<?xml version="1.0" encoding="UTF-8" standalone="no"?>
<!DOCTYPE svg PUBLIC "-//W3C//DTD SVG 1.1//EN"
 "http://www.w3.org/Graphics/SVG/1.1/DTD/svg11.dtd">
<!-- Generated by graphviz version 2.43.0 (0)
 -->
<!-- Title: BSC&#45;CLSC&#45;&#45;impacts&#45;adaptations&#45;and&#45;mitigation Pages: 1 -->
<svg width="631pt" height="1802pt"
 viewBox="0.00 0.00 631.15 1802.04" xmlns="http://www.w3.org/2000/svg" xmlns:xlink="http://www.w3.org/1999/xlink">
<g id="graph0" class="graph" transform="scale(1 1) rotate(0) translate(11.52 1790.52)">
<title>BSC&#45;CLSC&#45;&#45;impacts&#45;adaptations&#45;and&#45;mitigation</title>
<g id="clust1" class="cluster">
<title>cluster_year&#45;1</title>
<path fill="transparent" stroke="#c8d0d5" stroke-dasharray="5,2" d="M49.11,-1338C49.11,-1338 455.11,-1338 455.11,-1338 461.11,-1338 467.11,-1344 467.11,-1350 467.11,-1350 467.11,-1668 467.11,-1668 467.11,-1674 461.11,-1680 455.11,-1680 455.11,-1680 49.11,-1680 49.11,-1680 43.11,-1680 37.11,-1674 37.11,-1668 37.11,-1668 37.11,-1350 37.11,-1350 37.11,-1344 43.11,-1338 49.11,-1338"/>
<text text-anchor="middle" x="252.11" y="-1667.2" font-family="Avenir Next" font-size="11.00">Year 1</text>
</g>
<g id="clust2" class="cluster">
<title>cluster_year&#45;2</title>
<path fill="transparent" stroke="#c8d0d5" stroke-dasharray="5,2" d="M211.11,-638C211.11,-638 325.11,-638 325.11,-638 331.11,-638 337.11,-644 337.11,-650 337.11,-650 337.11,-1115 337.11,-1115 337.11,-1121 331.11,-1127 325.11,-1127 325.11,-1127 211.11,-1127 211.11,-1127 205.11,-1127 199.11,-1121 199.11,-1115 199.11,-1115 199.11,-650 199.11,-650 199.11,-644 205.11,-638 211.11,-638"/>
<text text-anchor="middle" x="268.11" y="-1114.2" font-family="Avenir Next" font-size="11.00">Year 2</text>
</g>
<g id="clust3" class="cluster">
<title>cluster_years&#45;3&#45;4</title>
<path fill="transparent" stroke="#c8d0d5" stroke-dasharray="5,2" d="M363.11,-50C363.11,-50 588.11,-50 588.11,-50 594.11,-50 600.11,-56 600.11,-62 600.11,-62 600.11,-1262 600.11,-1262 600.11,-1268 594.11,-1274 588.11,-1274 588.11,-1274 363.11,-1274 363.11,-1274 357.11,-1274 351.11,-1268 351.11,-1262 351.11,-1262 351.11,-62 351.11,-62 351.11,-56 357.11,-50 363.11,-50"/>
<text text-anchor="middle" x="475.61" y="-1261.2" font-family="Avenir Next" font-size="11.00">Years 3 + 4</text>
</g>
<!-- course__CHEM101 -->
<g id="node1" class="node">
<title>course__CHEM101</title>
<g id="a_node1"><a xlink:href="../../../courses/CHEM101.html" xlink:title="Equivalent or cross&#45;listed: CHEM101: Fundamentals of Chemistry from Atoms to Materials | CHEM150: Engineering Chemistry" target="_top">
<path fill="#d7e9ef" stroke="#1f4f66" stroke-width="1.6" d="M159.11,-1499C159.11,-1499 63.11,-1499 63.11,-1499 57.11,-1499 51.11,-1493 51.11,-1487 51.11,-1487 51.11,-1475 51.11,-1475 51.11,-1469 57.11,-1463 63.11,-1463 63.11,-1463 159.11,-1463 159.11,-1463 165.11,-1463 171.11,-1469 171.11,-1475 171.11,-1475 171.11,-1487 171.11,-1487 171.11,-1493 165.11,-1499 159.11,-1499"/>
<text text-anchor="middle" x="111.11" y="-1478.5" font-family="Avenir Next" font-size="10.00" fill="#17232b">CHEM101 / CHEM150</text>
</a>
</g>
</g>
<!-- course__CHEM102 -->
<g id="node7" class="node">
<title>course__CHEM102</title>
<g id="a_node7"><a xlink:href="../../../courses/CHEM102.html" xlink:title="CHEM102: Chemical Reactivity Fundamentals with Environmental Applications" target="_top">
<path fill="#d7e9ef" stroke="#1f4f66" stroke-width="1.6" d="M288.11,-1443C288.11,-1443 248.11,-1443 248.11,-1443 242.11,-1443 236.11,-1437 236.11,-1431 236.11,-1431 236.11,-1419 236.11,-1419 236.11,-1413 242.11,-1407 248.11,-1407 248.11,-1407 288.11,-1407 288.11,-1407 294.11,-1407 300.11,-1413 300.11,-1419 300.11,-1419 300.11,-1431 300.11,-1431 300.11,-1437 294.11,-1443 288.11,-1443"/>
<text text-anchor="middle" x="268.11" y="-1422.5" font-family="Avenir Next" font-size="10.00" fill="#17232b">CHEM102</text>
</a>
</g>
</g>
<!-- course__CHEM101&#45;&gt;course__CHEM102 -->
<g id="edge7" class="edge">
<title>course__CHEM101&#45;&gt;course__CHEM102</title>
<path fill="none" stroke="#5d6972" stroke-width="1.2" d="M162.01,-1462.97C183.79,-1455.1 208.93,-1446.02 229.15,-1438.71"/>
<polygon fill="#5d6972" stroke="#5d6972" stroke-width="1.2" points="230.06,-1440.99 235.81,-1436.31 228.39,-1436.38 230.06,-1440.99"/>
</g>
<!-- course__CIVE210 -->
<g id="node19" class="node">
<title>course__CIVE210</title>
<g id="a_node19"><a xlink:href="../../../courses/CIVE210.html" xlink:title="CIVE210: Sustainability in Civil Engineering" target="_top">
<path fill="#dbe8d2" stroke="#567447" stroke-width="1.3" d="M284.61,-995C284.61,-995 251.61,-995 251.61,-995 245.61,-995 239.61,-989 239.61,-983 239.61,-983 239.61,-971 239.61,-971 239.61,-965 245.61,-959 251.61,-959 251.61,-959 284.61,-959 284.61,-959 290.61,-959 296.61,-965 296.61,-971 296.61,-971 296.61,-983 296.61,-983 296.61,-989 290.61,-995 284.61,-995"/>
<text text-anchor="middle" x="268.11" y="-974.5" font-family="Avenir Next" font-size="10.00" fill="#24311e">CIVE210</text>
</a>
</g>
</g>
<!-- course__CHEM101&#45;&gt;course__CIVE210 -->
<g id="edge9" class="edge">
<title>course__CHEM101&#45;&gt;course__CIVE210</title>
<path fill="none" stroke="#5d6972" stroke-width="1.2" d="M165.84,-1462.9C167.78,-1461.12 169.56,-1459.16 171.11,-1457 230.21,-1374.73 138.61,-1083.26 199.11,-1002 207.03,-991.36 219.97,-985.24 232.44,-981.73"/>
<polygon fill="#5d6972" stroke="#5d6972" stroke-width="1.2" points="233.09,-984.09 239.29,-980.03 231.91,-979.34 233.09,-984.09"/>
</g>
<!-- course__EOS110 -->
<g id="node2" class="node">
<title>course__EOS110</title>
<g id="a_node2"><a xlink:href="../../../courses/EOS110.html" xlink:title="Equivalent or cross&#45;listed: EOS110: Oceans and Atmosphere | EOS350: Understanding the Oceans" target="_top">
<path fill="#ead9b8" stroke="#8f6a3b" stroke-width="1.3" d="M149.61,-1437C149.61,-1437 72.61,-1437 72.61,-1437 66.61,-1437 60.61,-1431 60.61,-1425 60.61,-1425 60.61,-1413 60.61,-1413 60.61,-1407 66.61,-1401 72.61,-1401 72.61,-1401 149.61,-1401 149.61,-1401 155.61,-1401 161.61,-1407 161.61,-1413 161.61,-1413 161.61,-1425 161.61,-1425 161.61,-1431 155.61,-1437 149.61,-1437"/>
<text text-anchor="middle" x="111.11" y="-1416.5" font-family="Avenir Next" font-size="10.00" fill="#3f3120">EOS110 / EOS350</text>
</a>
</g>
</g>
<!-- choice_EOS230_0_1 -->
<g id="node59" class="node">
<title>choice_EOS230_0_1</title>
<path fill="#fff7ee" stroke="#b7793f" stroke-width="1.1" d="M283.11,-1324C283.11,-1324 253.11,-1324 253.11,-1324 247.11,-1324 241.11,-1318 241.11,-1312 241.11,-1312 241.11,-1300 241.11,-1300 241.11,-1294 247.11,-1288 253.11,-1288 253.11,-1288 283.11,-1288 283.11,-1288 289.11,-1288 295.11,-1294 295.11,-1300 295.11,-1300 295.11,-1312 295.11,-1312 295.11,-1318 289.11,-1324 283.11,-1324"/>
<text text-anchor="middle" x="268.11" y="-1303.8" font-family="Avenir Next" font-size="9.00">1 of</text>
</g>
<!-- course__EOS110&#45;&gt;choice_EOS230_0_1 -->
<g id="edge17" class="edge">
<title>course__EOS110&#45;&gt;choice_EOS230_0_1</title>
<path fill="none" stroke="#7a8389" d="M161.83,-1402.19C165.16,-1400.05 168.31,-1397.67 171.11,-1395 192.43,-1374.72 177.96,-1355.46 199.11,-1335 208.84,-1325.59 222.1,-1319.01 234.32,-1314.53"/>
<polygon fill="#7a8389" stroke="#7a8389" points="235.15,-1316.83 240.97,-1312.25 233.56,-1312.2 235.15,-1316.83"/>
</g>
<!-- choice_EOS312_0_0 -->
<g id="node60" class="node">
<title>choice_EOS312_0_0</title>
<path fill="#fff7ee" stroke="#b7793f" stroke-width="1.1" d="M283.11,-624C283.11,-624 253.11,-624 253.11,-624 247.11,-624 241.11,-618 241.11,-612 241.11,-612 241.11,-600 241.11,-600 241.11,-594 247.11,-588 253.11,-588 253.11,-588 283.11,-588 283.11,-588 289.11,-588 295.11,-594 295.11,-600 295.11,-600 295.11,-612 295.11,-612 295.11,-618 289.11,-624 283.11,-624"/>
<text text-anchor="middle" x="268.11" y="-603.8" font-family="Avenir Next" font-size="9.00">1 of</text>
</g>
<!-- course__EOS110&#45;&gt;choice_EOS312_0_0 -->
<g id="edge21" class="edge">
<title>course__EOS110&#45;&gt;choice_EOS312_0_0</title>
<path fill="none" stroke="#7a8389" d="M161.82,-1404.31C165.39,-1401.7 168.57,-1398.62 171.11,-1395 219.56,-1325.77 151.24,-704.63 199.11,-635 207.16,-623.29 220.96,-616.29 234.04,-612.11"/>
<polygon fill="#7a8389" stroke="#7a8389" points="234.73,-614.46 240.78,-610.17 233.37,-609.75 234.73,-614.46"/>
</g>
<!-- course__EOS130 -->
<g id="node3" class="node">
<title>course__EOS130</title>
<g id="a_node3"><a xlink:href="../../../courses/EOS130.html" xlink:title="Equivalent or cross&#45;listed: EOS130: Climate Change | GEOG130: Climate Change" target="_top">
<path fill="#ead9b8" stroke="#8f6a3b" stroke-width="1.3" d="M154.11,-1597C154.11,-1597 68.11,-1597 68.11,-1597 62.11,-1597 56.11,-1591 56.11,-1585 56.11,-1585 56.11,-1573 56.11,-1573 56.11,-1567 62.11,-1561 68.11,-1561 68.11,-1561 154.11,-1561 154.11,-1561 160.11,-1561 166.11,-1567 166.11,-1573 166.11,-1573 166.11,-1585 166.11,-1585 166.11,-1591 160.11,-1597 154.11,-1597"/>
<text text-anchor="middle" x="111.11" y="-1576.5" font-family="Avenir Next" font-size="10.00" fill="#3f3120">EOS130 / GEOG130</text>
</a>
</g>
</g>
<!-- course__EOS130&#45;&gt;choice_EOS230_0_1 -->
<g id="edge18" class="edge">
<title>course__EOS130&#45;&gt;choice_EOS230_0_1</title>
<path fill="none" stroke="#7a8389" d="M165.42,-1561C167.51,-1559.18 169.42,-1557.19 171.11,-1555 231.19,-1476.86 139.68,-1413.64 199.11,-1335 207.53,-1323.86 221.08,-1316.94 233.88,-1312.68"/>
<polygon fill="#7a8389" stroke="#7a8389" points="234.88,-1314.94 240.88,-1310.58 233.47,-1310.25 234.88,-1314.94"/>
</g>
<!-- course__GEOG103 -->
<g id="node4" class="node">
<title>course__GEOG103</title>
<g id="a_node4"><a xlink:href="../../../courses/GEOG103.html" xlink:title="GEOG103: Our Natural Earth" target="_top">
<path fill="#ead9b8" stroke="#8f6a3b" stroke-width="1.3" d="M130.61,-1548C130.61,-1548 91.61,-1548 91.61,-1548 85.61,-1548 79.61,-1542 79.61,-1536 79.61,-1536 79.61,-1524 79.61,-1524 79.61,-1518 85.61,-1512 91.61,-1512 91.61,-1512 130.61,-1512 130.61,-1512 136.61,-1512 142.61,-1518 142.61,-1524 142.61,-1524 142.61,-1536 142.61,-1536 142.61,-1542 136.61,-1548 130.61,-1548"/>
<text text-anchor="middle" x="111.11" y="-1527.5" font-family="Avenir Next" font-size="10.00" fill="#3f3120">GEOG103</text>
</a>
</g>
</g>
<!-- course__GEOG103&#45;&gt;choice_EOS230_0_1 -->
<g id="edge19" class="edge">
<title>course__GEOG103&#45;&gt;choice_EOS230_0_1</title>
<path fill="none" stroke="#7a8389" d="M142.84,-1523.97C153.28,-1520.42 164.08,-1514.82 171.11,-1506 219.14,-1445.8 151.59,-1395.6 199.11,-1335 207.73,-1324.01 221.31,-1317.12 234.08,-1312.83"/>
<polygon fill="#7a8389" stroke="#7a8389" points="235.07,-1315.09 241.05,-1310.71 233.64,-1310.41 235.07,-1315.09"/>
</g>
<!-- bundle_GEOG209_0_0 -->
<g id="node62" class="node">
<title>bundle_GEOG209_0_0</title>
<g id="a_node62"><a xlink:title="Grouped requirement junction">
<ellipse fill="#7a8790" stroke="#667780" cx="268.11" cy="-1269" rx="6" ry="6"/>
</a>
</g>
</g>
<!-- course__GEOG103&#45;&gt;bundle_GEOG209_0_0 -->
<g id="edge36" class="edge">
<title>course__GEOG103&#45;&gt;bundle_GEOG209_0_0</title>
<path fill="none" stroke="#7a8389" d="M142.71,-1524.21C153.27,-1520.69 164.18,-1515.04 171.11,-1506 232.18,-1426.4 130.49,-1355.2 199.11,-1282 213.26,-1266.91 239.12,-1266.23 254.55,-1267.41"/>
<polygon fill="#7a8389" stroke="#7a8389" points="254.69,-1269.89 261.91,-1268.18 255.2,-1265.02 254.69,-1269.89"/>
</g>
<!-- course__MATH100 -->
<g id="node5" class="node">
<title>course__MATH100</title>
<g id="a_node5"><a xlink:href="../../../courses/MATH100.html" xlink:title="Collapsed in simplified view: MATH100: Calculus I | MATH102: Calculus for Students in the Social and Biological Sciences | MATH109: Introduction to Calculus" target="_top">
<path fill="#d7e9ef" stroke="#1f4f66" stroke-width="1.6" d="M131.11,-1646C131.11,-1646 91.11,-1646 91.11,-1646 85.11,-1646 79.11,-1640 79.11,-1634 79.11,-1634 79.11,-1622 79.11,-1622 79.11,-1616 85.11,-1610 91.11,-1610 91.11,-1610 131.11,-1610 131.11,-1610 137.11,-1610 143.11,-1616 143.11,-1622 143.11,-1622 143.11,-1634 143.11,-1634 143.11,-1640 137.11,-1646 131.11,-1646"/>
<text text-anchor="middle" x="111.11" y="-1625.5" font-family="Avenir Next" font-size="10.00" fill="#17232b">Calculus I</text>
</a>
</g>
</g>
<!-- course__MATH100&#45;&gt;course__CHEM102 -->
<g id="edge8" class="edge">
<title>course__MATH100&#45;&gt;course__CHEM102</title>
<path fill="none" stroke="#5d6972" stroke-width="1.2" d="M143.37,-1621.69C153.61,-1618.12 164.14,-1612.58 171.11,-1604 214.97,-1550 154.34,-1503.24 199.11,-1450 206.75,-1440.91 218.01,-1435.13 229.17,-1431.44"/>
<polygon fill="#5d6972" stroke="#5d6972" stroke-width="1.2" points="230.05,-1433.74 236.07,-1429.41 228.67,-1429.04 230.05,-1433.74"/>
</g>
<!-- course__MATH101 -->
<g id="node8" class="node">
<title>course__MATH101</title>
<g id="a_node8"><a xlink:href="../../../courses/MATH101.html" xlink:title="MATH101: Calculus II" target="_top">
<path fill="#d7e9ef" stroke="#1f4f66" stroke-width="1.6" d="M287.61,-1492C287.61,-1492 248.61,-1492 248.61,-1492 242.61,-1492 236.61,-1486 236.61,-1480 236.61,-1480 236.61,-1468 236.61,-1468 236.61,-1462 242.61,-1456 248.61,-1456 248.61,-1456 287.61,-1456 287.61,-1456 293.61,-1456 299.61,-1462 299.61,-1468 299.61,-1468 299.61,-1480 299.61,-1480 299.61,-1486 293.61,-1492 287.61,-1492"/>
<text text-anchor="middle" x="268.11" y="-1471.5" font-family="Avenir Next" font-size="10.00" fill="#17232b">MATH101</text>
</a>
</g>
</g>
<!-- course__MATH100&#45;&gt;course__MATH101 -->
<g id="edge72" class="edge">
<title>course__MATH100&#45;&gt;course__MATH101</title>
<path fill="none" stroke="#5d6972" stroke-width="1.2" d="M143.34,-1620.51C153.22,-1616.87 163.53,-1611.59 171.11,-1604 194.5,-1580.59 180.08,-1562.08 199.11,-1535 209.23,-1520.6 223.36,-1507.22 236.12,-1496.68"/>
<polygon fill="#5d6972" stroke="#5d6972" stroke-width="1.2" points="237.95,-1498.34 241.86,-1492.04 234.88,-1494.53 237.95,-1498.34"/>
</g>
<!-- course__PHYS102A -->
<g id="node9" class="node">
<title>course__PHYS102A</title>
<g id="a_node9"><a xlink:href="../../../courses/PHYS102A.html" xlink:title="Collapsed in simplified view: PHYS102A: General Physics I | PHYS110: Introductory Physics I | PHYS120: Physics I" target="_top">
<path fill="#d7e9ef" stroke="#1f4f66" stroke-width="1.6" d="M285.61,-1577C285.61,-1577 250.61,-1577 250.61,-1577 244.61,-1577 238.61,-1571 238.61,-1565 238.61,-1565 238.61,-1553 238.61,-1553 238.61,-1547 244.61,-1541 250.61,-1541 250.61,-1541 285.61,-1541 285.61,-1541 291.61,-1541 297.61,-1547 297.61,-1553 297.61,-1553 297.61,-1565 297.61,-1565 297.61,-1571 291.61,-1577 285.61,-1577"/>
<text text-anchor="middle" x="268.11" y="-1556.5" font-family="Avenir Next" font-size="10.00" fill="#17232b">Physics I</text>
</a>
</g>
</g>
<!-- course__MATH100&#45;&gt;course__PHYS102A -->
<g id="edge73" class="edge">
<title>course__MATH100&#45;&gt;course__PHYS102A</title>
<path fill="none" stroke="#5d6972" stroke-width="1.2" d="M143.16,-1615.72C152.21,-1612.05 162.09,-1607.94 171.11,-1604 191.39,-1595.13 213.79,-1584.67 231.86,-1576.06"/>
<polygon fill="#5d6972" stroke="#5d6972" stroke-width="1.2" points="233.04,-1578.21 238.3,-1572.98 230.93,-1573.79 233.04,-1578.21"/>
</g>
<!-- course__PHYS102B -->
<g id="node10" class="node">
<title>course__PHYS102B</title>
<g id="a_node10"><a xlink:href="../../../courses/PHYS102B.html" xlink:title="Collapsed in simplified view: PHYS102B: General Physics II | PHYS111: Introductory Physics II | PHYS130: Physics II" target="_top">
<path fill="#d7e9ef" stroke="#1f4f66" stroke-width="1.6" d="M441.11,-1388C441.11,-1388 403.11,-1388 403.11,-1388 397.11,-1388 391.11,-1382 391.11,-1376 391.11,-1376 391.11,-1364 391.11,-1364 391.11,-1358 397.11,-1352 403.11,-1352 403.11,-1352 441.11,-1352 441.11,-1352 447.11,-1352 453.11,-1358 453.11,-1364 453.11,-1364 453.11,-1376 453.11,-1376 453.11,-1382 447.11,-1388 441.11,-1388"/>
<text text-anchor="middle" x="422.11" y="-1367.5" font-family="Avenir Next" font-size="10.00" fill="#17232b">Physics II</text>
</a>
</g>
</g>
<!-- course__MATH100&#45;&gt;course__PHYS102B -->
<g id="edge75" class="edge">
<title>course__MATH100&#45;&gt;course__PHYS102B</title>
<path fill="none" stroke="#5d6972" stroke-width="1.2" d="M143.3,-1630.7C190.72,-1633.07 281.32,-1630.51 337.11,-1584 395.48,-1535.34 413.49,-1440.68 418.89,-1395.37"/>
<polygon fill="#5d6972" stroke="#5d6972" stroke-width="1.2" points="421.34,-1395.5 419.68,-1388.28 416.47,-1394.96 421.34,-1395.5"/>
</g>
<!-- course__CSC110 -->
<g id="node51" class="node">
<title>course__CSC110</title>
<g id="a_node51"><a xlink:href="../../../courses/CSC110.html" xlink:title="Collapsed in simplified view: CSC110: Fundamentals of Programming I | CSC111: Fundamentals of Programming with Engineering Applications" target="_top">
<path fill="#f9f9f9" stroke="#363636" d="M141.11,-1116C141.11,-1116 81.11,-1116 81.11,-1116 75.11,-1116 69.11,-1110 69.11,-1104 69.11,-1104 69.11,-1092 69.11,-1092 69.11,-1086 75.11,-1080 81.11,-1080 81.11,-1080 141.11,-1080 141.11,-1080 147.11,-1080 153.11,-1086 153.11,-1092 153.11,-1092 153.11,-1104 153.11,-1104 153.11,-1110 147.11,-1116 141.11,-1116"/>
<text text-anchor="middle" x="111.11" y="-1095.8" font-family="Avenir Next" font-size="9.00" fill="#363636">Programming I</text>
</a>
</g>
</g>
<!-- course__MATH100&#45;&gt;course__CSC110 -->
<g id="edge13" class="edge">
<title>course__MATH100&#45;&gt;course__CSC110</title>
<path fill="none" stroke="#5d6972" stroke-width="1.2" d="M79.07,-1626.96C57.47,-1624.38 30.4,-1617.09 16.11,-1597.5 -6.54,-1566.44 5.59,-1288.48 16.11,-1251.5 30.58,-1200.63 67.25,-1150.13 90.57,-1121.61"/>
<polygon fill="#5d6972" stroke="#5d6972" stroke-width="1.2" points="92.47,-1123.16 95.04,-1116.21 88.69,-1120.04 92.47,-1123.16"/>
</g>
<!-- choice_EOS314_0_0 -->
<g id="node61" class="node">
<title>choice_EOS314_0_0</title>
<path fill="#fff7ee" stroke="#b7793f" stroke-width="1.1" d="M283.11,-575C283.11,-575 253.11,-575 253.11,-575 247.11,-575 241.11,-569 241.11,-563 241.11,-563 241.11,-551 241.11,-551 241.11,-545 247.11,-539 253.11,-539 253.11,-539 283.11,-539 283.11,-539 289.11,-539 295.11,-545 295.11,-551 295.11,-551 295.11,-563 295.11,-563 295.11,-569 289.11,-575 283.11,-575"/>
<text text-anchor="middle" x="268.11" y="-554.8" font-family="Avenir Next" font-size="9.00">2 of</text>
</g>
<!-- course__MATH100&#45;&gt;choice_EOS314_0_0 -->
<g id="edge26" class="edge">
<title>course__MATH100&#45;&gt;choice_EOS314_0_0</title>
<path fill="none" stroke="#7a8389" d="M143.19,-1622.56C153.81,-1619.08 164.62,-1613.36 171.11,-1604 235.81,-1510.63 132.83,-674.26 199.11,-582 207.16,-570.79 220.79,-564.6 233.75,-561.18"/>
<polygon fill="#7a8389" stroke="#7a8389" points="234.57,-563.51 240.84,-559.56 233.47,-558.73 234.57,-563.51"/>
</g>
<!-- course__BIOL150A -->
<g id="node6" class="node">
<title>course__BIOL150A</title>
<g id="a_node6"><a xlink:href="../../../courses/BIOL150A.html" xlink:title="Collapsed in simplified view: BIOL150A: Modern Biology | BIOL184: Evolution and Biodiversity" target="_top">
<path fill="#d7e9ef" stroke="#1f4f66" stroke-width="1.6" d="M138.11,-1388C138.11,-1388 84.11,-1388 84.11,-1388 78.11,-1388 72.11,-1382 72.11,-1376 72.11,-1376 72.11,-1364 72.11,-1364 72.11,-1358 78.11,-1352 84.11,-1352 84.11,-1352 138.11,-1352 138.11,-1352 144.11,-1352 150.11,-1358 150.11,-1364 150.11,-1364 150.11,-1376 150.11,-1376 150.11,-1382 144.11,-1388 138.11,-1388"/>
<text text-anchor="middle" x="111.11" y="-1367.5" font-family="Avenir Next" font-size="10.00" fill="#17232b">Intro biology</text>
</a>
</g>
</g>
<!-- course__BIOL186 -->
<g id="node52" class="node">
<title>course__BIOL186</title>
<g id="a_node52"><a xlink:href="../../../courses/BIOL186.html" xlink:title="BIOL186: Physiology and Cell Biology" target="_top">
<path fill="#f9f9f9" stroke="#363636" d="M127.11,-1779C127.11,-1779 95.11,-1779 95.11,-1779 89.11,-1779 83.11,-1773 83.11,-1767 83.11,-1767 83.11,-1755 83.11,-1755 83.11,-1749 89.11,-1743 95.11,-1743 95.11,-1743 127.11,-1743 127.11,-1743 133.11,-1743 139.11,-1749 139.11,-1755 139.11,-1755 139.11,-1767 139.11,-1767 139.11,-1773 133.11,-1779 127.11,-1779"/>
<text text-anchor="middle" x="111.11" y="-1758.8" font-family="Avenir Next" font-size="9.00" fill="#363636">BIOL186</text>
</a>
</g>
</g>
<!-- course__BIOL150A&#45;&gt;course__BIOL186 -->
<g id="edge5" class="edge">
<title>course__BIOL150A&#45;&gt;course__BIOL186</title>
<path fill="none" stroke="#5d6972" stroke-width="1.2" d="M71.93,-1372.47C51.77,-1375.97 28.82,-1383.89 16.11,-1401.5 -5.29,-1431.14 -5.43,-1700.96 16.11,-1730.5 29.62,-1749.03 54.57,-1756.55 75.5,-1759.49"/>
<polygon fill="#5d6972" stroke="#5d6972" stroke-width="1.2" points="75.48,-1761.96 82.72,-1760.36 76.06,-1757.09 75.48,-1761.96"/>
</g>
<!-- course__EOS312 -->
<g id="node43" class="node">
<title>course__EOS312</title>
<g id="a_node43"><a xlink:href="../../../courses/EOS312.html" xlink:title="EOS312: Introductory Chemical Oceanography" target="_top">
<path fill="#d7e9ef" stroke="#1f4f66" stroke-width="1.6" d="M437.11,-1044C437.11,-1044 407.11,-1044 407.11,-1044 401.11,-1044 395.11,-1038 395.11,-1032 395.11,-1032 395.11,-1020 395.11,-1020 395.11,-1014 401.11,-1008 407.11,-1008 407.11,-1008 437.11,-1008 437.11,-1008 443.11,-1008 449.11,-1014 449.11,-1020 449.11,-1020 449.11,-1032 449.11,-1032 449.11,-1038 443.11,-1044 437.11,-1044"/>
<text text-anchor="middle" x="422.11" y="-1023.5" font-family="Avenir Next" font-size="10.00" fill="#17232b">EOS312</text>
</a>
</g>
</g>
<!-- course__CHEM102&#45;&gt;course__EOS312 -->
<g id="edge25" class="edge">
<title>course__CHEM102&#45;&gt;course__EOS312</title>
<path fill="none" stroke="#5d6972" stroke-width="1.2" d="M287.36,-1406.75C303.72,-1389.06 326.69,-1360.64 337.11,-1331 347.44,-1301.61 332.54,-1076.01 351.11,-1051 359.76,-1039.36 374.31,-1033.12 387.91,-1029.78"/>
<polygon fill="#5d6972" stroke="#5d6972" stroke-width="1.2" points="388.57,-1032.15 394.9,-1028.29 387.54,-1027.36 388.57,-1032.15"/>
</g>
<!-- course__MATH101&#45;&gt;course__PHYS102B -->
<g id="edge76" class="edge">
<title>course__MATH101&#45;&gt;course__PHYS102B</title>
<path fill="none" stroke="#5d6972" stroke-width="1.2" d="M299.8,-1466.19C311.94,-1462.35 325.69,-1457 337.11,-1450 362,-1434.73 385.65,-1411.1 401.47,-1393.47"/>
<polygon fill="#5d6972" stroke="#5d6972" stroke-width="1.2" points="403.32,-1395.07 406.12,-1388.21 399.65,-1391.83 403.32,-1395.07"/>
</g>
<!-- course__STAT254 -->
<g id="node18" class="node">
<title>course__STAT254</title>
<g id="a_node18"><a xlink:href="../../../courses/STAT254.html" xlink:title="Collapsed in simplified view: STAT254: Probability and Statistics for Engineers | STAT255: Statistics for Life Sciences I | STAT260: Introduction to Probability and Statistics I" target="_top">
<path fill="#d7e9ef" stroke="#1f4f66" stroke-width="1.6" d="M299.11,-1044C299.11,-1044 237.11,-1044 237.11,-1044 231.11,-1044 225.11,-1038 225.11,-1032 225.11,-1032 225.11,-1020 225.11,-1020 225.11,-1014 231.11,-1008 237.11,-1008 237.11,-1008 299.11,-1008 299.11,-1008 305.11,-1008 311.11,-1014 311.11,-1020 311.11,-1020 311.11,-1032 311.11,-1032 311.11,-1038 305.11,-1044 299.11,-1044"/>
<text text-anchor="middle" x="268.11" y="-1023.5" font-family="Avenir Next" font-size="10.00" fill="#17232b">Intro statistics</text>
</a>
</g>
</g>
<!-- course__MATH101&#45;&gt;course__STAT254 -->
<g id="edge77" class="edge">
<title>course__MATH101&#45;&gt;course__STAT254</title>
<path fill="none" stroke="#5d6972" stroke-width="1.2" d="M236.23,-1471.49C217.74,-1468.16 196.01,-1460.58 185.11,-1443.5 173.57,-1425.42 173.57,-1075.58 185.11,-1057.5 192.59,-1045.77 205.12,-1038.4 218.2,-1033.77"/>
<polygon fill="#5d6972" stroke="#5d6972" stroke-width="1.2" points="219.14,-1036.04 225.07,-1031.59 217.66,-1031.37 219.14,-1036.04"/>
</g>
<!-- course__MATH101&#45;&gt;choice_EOS314_0_0 -->
<g id="edge27" class="edge">
<title>course__MATH101&#45;&gt;choice_EOS314_0_0</title>
<path fill="none" stroke="#7a8389" d="M236.23,-1471.49C217.74,-1468.16 196.01,-1460.58 185.11,-1443.5 172.33,-1423.48 172.33,-608.52 185.11,-588.5 195.58,-572.1 215.91,-564.21 233.82,-560.43"/>
<polygon fill="#7a8389" stroke="#7a8389" points="234.37,-562.82 240.8,-559.13 233.47,-558.01 234.37,-562.82"/>
</g>
<!-- course__PHYS102A&#45;&gt;course__PHYS102B -->
<g id="edge74" class="edge">
<title>course__PHYS102A&#45;&gt;course__PHYS102B</title>
<path fill="none" stroke="#5d6972" stroke-width="1.2" d="M292.59,-1540.96C306.4,-1529.72 323.73,-1514.49 337.11,-1499 366.06,-1465.49 392.73,-1421.31 407.94,-1394.31"/>
<polygon fill="#5d6972" stroke="#5d6972" stroke-width="1.2" points="410.1,-1395.47 411.37,-1388.17 405.82,-1393.08 410.1,-1395.47"/>
</g>
<!-- course__PHYS102B&#45;&gt;course__CIVE210 -->
<g id="edge11" class="edge">
<title>course__PHYS102B&#45;&gt;course__CIVE210</title>
<path fill="none" stroke="#5d6972" stroke-width="1.2" d="M390.97,-1361C376.33,-1354.98 360.02,-1345.45 351.11,-1331 331.91,-1299.86 358.68,-1031.55 337.11,-1002 329.23,-991.2 316.16,-985.06 303.58,-981.57"/>
<polygon fill="#5d6972" stroke="#5d6972" stroke-width="1.2" points="304.06,-979.16 296.68,-979.89 302.9,-983.92 304.06,-979.16"/>
</g>
<!-- course__EOS314 -->
<g id="node38" class="node">
<title>course__EOS314</title>
<g id="a_node38"><a xlink:href="../../../courses/EOS314.html" xlink:title="EOS314: Descriptive Physical Oceanography" target="_top">
<path fill="#d7e9ef" stroke="#1f4f66" stroke-width="1.6" d="M437.11,-443C437.11,-443 407.11,-443 407.11,-443 401.11,-443 395.11,-437 395.11,-431 395.11,-431 395.11,-419 395.11,-419 395.11,-413 401.11,-407 407.11,-407 407.11,-407 437.11,-407 437.11,-407 443.11,-407 449.11,-413 449.11,-419 449.11,-419 449.11,-431 449.11,-431 449.11,-437 443.11,-443 437.11,-443"/>
<text text-anchor="middle" x="422.11" y="-422.5" font-family="Avenir Next" font-size="10.00" fill="#17232b">EOS314</text>
</a>
</g>
</g>
<!-- course__PHYS102B&#45;&gt;course__EOS314 -->
<g id="edge30" class="edge">
<title>course__PHYS102B&#45;&gt;course__EOS314</title>
<path fill="none" stroke="#5d6972" stroke-width="1.2" d="M390.76,-1361.67C372.86,-1354.97 352.38,-1343.47 344.11,-1324.5 339.29,-1313.45 339.29,-467.55 344.11,-456.5 351.41,-439.75 370.21,-431.85 387.52,-428.15"/>
<polygon fill="#5d6972" stroke="#5d6972" stroke-width="1.2" points="388.37,-430.48 394.81,-426.8 387.49,-425.66 388.37,-430.48"/>
</g>
<!-- course__EOS340 -->
<g id="node53" class="node">
<title>course__EOS340</title>
<g id="a_node53"><a xlink:href="../../../courses/EOS340.html" xlink:title="Equivalent or cross&#45;listed: EOS340: Atmospheric Physics | PHYS340: Atmospheric Physics" target="_top">
<path fill="#f9f9f9" stroke="#363636" d="M151.11,-296C151.11,-296 71.11,-296 71.11,-296 65.11,-296 59.11,-290 59.11,-284 59.11,-284 59.11,-272 59.11,-272 59.11,-266 65.11,-260 71.11,-260 71.11,-260 151.11,-260 151.11,-260 157.11,-260 163.11,-266 163.11,-272 163.11,-272 163.11,-284 163.11,-284 163.11,-290 157.11,-296 151.11,-296"/>
<text text-anchor="middle" x="111.11" y="-275.8" font-family="Avenir Next" font-size="9.00" fill="#363636">EOS340 / PHYS340</text>
</a>
</g>
</g>
<!-- course__PHYS102B&#45;&gt;course__EOS340 -->
<g id="edge31" class="edge">
<title>course__PHYS102B&#45;&gt;course__EOS340</title>
<path fill="none" stroke="#5d6972" stroke-width="1.2" d="M390.89,-1360.68C376.42,-1354.6 360.28,-1345.11 351.11,-1331 332.26,-1302 358.57,-1203.12 337.11,-1176 296.98,-1125.31 237.98,-1181.66 199.11,-1130 153.64,-1069.58 185.08,-524.32 171.11,-450 160.93,-395.83 137.19,-335.55 123.13,-302.69"/>
<polygon fill="#5d6972" stroke="#5d6972" stroke-width="1.2" points="125.31,-301.56 120.28,-296.11 120.81,-303.5 125.31,-301.56"/>
</g>
<!-- course__EOS431 -->
<g id="node54" class="node">
<title>course__EOS431</title>
<g id="a_node54"><a xlink:href="../../../courses/EOS431.html" xlink:title="Equivalent or cross&#45;listed: EOS431: Physical Oceanography | PHYS441: Physical Oceanography" target="_top">
<path fill="#f9f9f9" stroke="#363636" d="M151.11,-906C151.11,-906 71.11,-906 71.11,-906 65.11,-906 59.11,-900 59.11,-894 59.11,-894 59.11,-882 59.11,-882 59.11,-876 65.11,-870 71.11,-870 71.11,-870 151.11,-870 151.11,-870 157.11,-870 163.11,-876 163.11,-882 163.11,-882 163.11,-894 163.11,-894 163.11,-900 157.11,-906 151.11,-906"/>
<text text-anchor="middle" x="111.11" y="-885.8" font-family="Avenir Next" font-size="9.00" fill="#363636">EOS431 / PHYS441</text>
</a>
</g>
</g>
<!-- course__PHYS102B&#45;&gt;course__EOS431 -->
<g id="edge32" class="edge">
<title>course__PHYS102B&#45;&gt;course__EOS431</title>
<path fill="none" stroke="#5d6972" stroke-width="1.2" d="M391.1,-1360.14C376.87,-1353.96 360.87,-1344.54 351.11,-1331 331.53,-1303.85 356.31,-1284.42 337.11,-1257 296.19,-1198.56 242.43,-1231.69 199.11,-1175 170.82,-1137.99 184.38,-1118.65 171.11,-1074 153.88,-1016 131.97,-948.4 120.3,-912.82"/>
<polygon fill="#5d6972" stroke="#5d6972" stroke-width="1.2" points="122.62,-912.03 118.11,-906.15 117.97,-913.56 122.62,-912.03"/>
</g>
<!-- course__EOS220 -->
<g id="node11" class="node">
<title>course__EOS220</title>
<g id="a_node11"><a xlink:href="../../../courses/EOS220.html" xlink:title="Equivalent or cross&#45;listed: EOS220: Weather and Climate | GEOG220: Weather and Climate" target="_top">
<path fill="#d7e9ef" stroke="#1f4f66" stroke-width="1.6" d="M311.11,-1093C311.11,-1093 225.11,-1093 225.11,-1093 219.11,-1093 213.11,-1087 213.11,-1081 213.11,-1081 213.11,-1069 213.11,-1069 213.11,-1063 219.11,-1057 225.11,-1057 225.11,-1057 311.11,-1057 311.11,-1057 317.11,-1057 323.11,-1063 323.11,-1069 323.11,-1069 323.11,-1081 323.11,-1081 323.11,-1087 317.11,-1093 311.11,-1093"/>
<text text-anchor="middle" x="268.11" y="-1072.5" font-family="Avenir Next" font-size="10.00" fill="#17232b">EOS220 / GEOG220</text>
</a>
</g>
</g>
<!-- course__ES200 -->
<g id="node12" class="node">
<title>course__ES200</title>
<g id="a_node12"><a xlink:href="../../../courses/ES200.html" xlink:title="ES200: Introduction to Environmental Studies" target="_top">
<path fill="#dbe8d2" stroke="#567447" stroke-width="1.3" d="M283.11,-835C283.11,-835 253.11,-835 253.11,-835 247.11,-835 241.11,-829 241.11,-823 241.11,-823 241.11,-811 241.11,-811 241.11,-805 247.11,-799 253.11,-799 253.11,-799 283.11,-799 283.11,-799 289.11,-799 295.11,-805 295.11,-811 295.11,-811 295.11,-823 295.11,-823 295.11,-829 289.11,-835 283.11,-835"/>
<text text-anchor="middle" x="268.11" y="-814.5" font-family="Avenir Next" font-size="10.00" fill="#24311e">ES200</text>
</a>
</g>
</g>
<!-- course__ES301 -->
<g id="node29" class="node">
<title>course__ES301</title>
<g id="a_node29"><a xlink:href="../../../courses/ES301.html" xlink:title="ES301: Political Ecology" target="_top">
<path fill="#e2deef" stroke="#665683" stroke-width="1.3" d="M437.11,-590C437.11,-590 407.11,-590 407.11,-590 401.11,-590 395.11,-584 395.11,-578 395.11,-578 395.11,-566 395.11,-566 395.11,-560 401.11,-554 407.11,-554 407.11,-554 437.11,-554 437.11,-554 443.11,-554 449.11,-560 449.11,-566 449.11,-566 449.11,-578 449.11,-578 449.11,-584 443.11,-590 437.11,-590"/>
<text text-anchor="middle" x="422.11" y="-569.5" font-family="Avenir Next" font-size="10.00" fill="#2f2741">ES301</text>
</a>
</g>
</g>
<!-- course__ES200&#45;&gt;course__ES301 -->
<g id="edge33" class="edge">
<title>course__ES200&#45;&gt;course__ES301</title>
<path fill="none" stroke="#5d6972" stroke-width="1.2" d="M295.14,-814.69C309.86,-811.93 327.24,-805.94 337.11,-793 363.59,-758.27 324.7,-631.77 351.11,-597 359.88,-585.45 374.45,-579.22 388.03,-575.87"/>
<polygon fill="#5d6972" stroke="#5d6972" stroke-width="1.2" points="388.67,-578.24 395,-574.37 387.64,-573.45 388.67,-578.24"/>
</g>
<!-- course__GEOG222 -->
<g id="node13" class="node">
<title>course__GEOG222</title>
<g id="a_node13"><a xlink:href="../../../courses/GEOG222.html" xlink:title="GEOG222: Introduction to GIS" target="_top">
<path fill="#d7e9ef" stroke="#1f4f66" stroke-width="1.6" d="M287.61,-737C287.61,-737 248.61,-737 248.61,-737 242.61,-737 236.61,-731 236.61,-725 236.61,-725 236.61,-713 236.61,-713 236.61,-707 242.61,-701 248.61,-701 248.61,-701 287.61,-701 287.61,-701 293.61,-701 299.61,-707 299.61,-713 299.61,-713 299.61,-725 299.61,-725 299.61,-731 293.61,-737 287.61,-737"/>
<text text-anchor="middle" x="268.11" y="-716.5" font-family="Avenir Next" font-size="10.00" fill="#17232b">GEOG222</text>
</a>
</g>
</g>
<!-- course__GEOG323 -->
<g id="node30" class="node">
<title>course__GEOG323</title>
<g id="a_node30"><a xlink:href="../../../courses/GEOG323.html" xlink:title="GEOG323: Digital Mapping" target="_top">
<path fill="#d7e9ef" stroke="#1f4f66" stroke-width="1.6" d="M441.61,-492C441.61,-492 402.61,-492 402.61,-492 396.61,-492 390.61,-486 390.61,-480 390.61,-480 390.61,-468 390.61,-468 390.61,-462 396.61,-456 402.61,-456 402.61,-456 441.61,-456 441.61,-456 447.61,-456 453.61,-462 453.61,-468 453.61,-468 453.61,-480 453.61,-480 453.61,-486 447.61,-492 441.61,-492"/>
<text text-anchor="middle" x="422.11" y="-471.5" font-family="Avenir Next" font-size="10.00" fill="#17232b">GEOG323</text>
</a>
</g>
</g>
<!-- course__GEOG222&#45;&gt;course__GEOG323 -->
<g id="edge43" class="edge">
<title>course__GEOG222&#45;&gt;course__GEOG323</title>
<path fill="none" stroke="#5d6972" stroke-width="1.2" d="M299.63,-715.76C313.26,-712.66 328.23,-706.65 337.11,-695 363.59,-660.27 324.7,-533.77 351.11,-499 358.87,-488.78 371.17,-482.72 383.31,-479.14"/>
<polygon fill="#5d6972" stroke="#5d6972" stroke-width="1.2" points="384.24,-481.43 390.4,-477.31 383.01,-476.69 384.24,-481.43"/>
</g>
<!-- course__GEOG328 -->
<g id="node31" class="node">
<title>course__GEOG328</title>
<g id="a_node31"><a xlink:href="../../../courses/GEOG328.html" xlink:title="GEOG328: GIS Analysis" target="_top">
<path fill="#d7e9ef" stroke="#1f4f66" stroke-width="1.6" d="M441.61,-541C441.61,-541 402.61,-541 402.61,-541 396.61,-541 390.61,-535 390.61,-529 390.61,-529 390.61,-517 390.61,-517 390.61,-511 396.61,-505 402.61,-505 402.61,-505 441.61,-505 441.61,-505 447.61,-505 453.61,-511 453.61,-517 453.61,-517 453.61,-529 453.61,-529 453.61,-535 447.61,-541 441.61,-541"/>
<text text-anchor="middle" x="422.11" y="-520.5" font-family="Avenir Next" font-size="10.00" fill="#17232b">GEOG328</text>
</a>
</g>
</g>
<!-- course__GEOG222&#45;&gt;course__GEOG328 -->
<g id="edge45" class="edge">
<title>course__GEOG222&#45;&gt;course__GEOG328</title>
<path fill="none" stroke="#5d6972" stroke-width="1.2" d="M299.86,-715.58C313.37,-712.44 328.17,-706.44 337.11,-695 377.52,-643.28 310.8,-599.79 351.11,-548 358.99,-537.87 371.32,-531.84 383.45,-528.25"/>
<polygon fill="#5d6972" stroke="#5d6972" stroke-width="1.2" points="384.37,-530.54 390.53,-526.4 383.14,-525.8 384.37,-530.54"/>
</g>
<!-- course__GEOG228 -->
<g id="node14" class="node">
<title>course__GEOG228</title>
<g id="a_node14"><a xlink:href="../../../courses/GEOG228.html" xlink:title="GEOG228: Introduction to Remote Sensing" target="_top">
<path fill="#d7e9ef" stroke="#1f4f66" stroke-width="1.6" d="M287.61,-786C287.61,-786 248.61,-786 248.61,-786 242.61,-786 236.61,-780 236.61,-774 236.61,-774 236.61,-762 236.61,-762 236.61,-756 242.61,-750 248.61,-750 248.61,-750 287.61,-750 287.61,-750 293.61,-750 299.61,-756 299.61,-762 299.61,-762 299.61,-774 299.61,-774 299.61,-780 293.61,-786 287.61,-786"/>
<text text-anchor="middle" x="268.11" y="-765.5" font-family="Avenir Next" font-size="10.00" fill="#17232b">GEOG228</text>
</a>
</g>
</g>
<!-- course__GEOG228&#45;&gt;course__GEOG328 -->
<g id="edge46" class="edge">
<title>course__GEOG228&#45;&gt;course__GEOG328</title>
<path fill="none" stroke="#5d6972" stroke-width="1.2" d="M299.63,-764.76C313.26,-761.66 328.23,-755.65 337.11,-744 363.59,-709.27 324.7,-582.77 351.11,-548 358.87,-537.78 371.17,-531.72 383.31,-528.14"/>
<polygon fill="#5d6972" stroke="#5d6972" stroke-width="1.2" points="384.24,-530.43 390.4,-526.31 383.01,-525.69 384.24,-530.43"/>
</g>
<!-- course__EOS230 -->
<g id="node15" class="node">
<title>course__EOS230</title>
<g id="a_node15"><a xlink:href="../../../courses/EOS230.html" xlink:title="Equivalent or cross&#45;listed: EOS230: Introduction to Environmental Data Analysis | GEOG230: Introduction to Environmental Data Analysis" target="_top">
<path fill="#d7e9ef" stroke="#1f4f66" stroke-width="1.6" d="M311.11,-688C311.11,-688 225.11,-688 225.11,-688 219.11,-688 213.11,-682 213.11,-676 213.11,-676 213.11,-664 213.11,-664 213.11,-658 219.11,-652 225.11,-652 225.11,-652 311.11,-652 311.11,-652 317.11,-652 323.11,-658 323.11,-664 323.11,-664 323.11,-676 323.11,-676 323.11,-682 317.11,-688 311.11,-688"/>
<text text-anchor="middle" x="268.11" y="-667.5" font-family="Avenir Next" font-size="10.00" fill="#17232b">EOS230 / GEOG230</text>
</a>
</g>
</g>
<!-- course__GEOG489 -->
<g id="node45" class="node">
<title>course__GEOG489</title>
<g id="a_node45"><a xlink:href="../../../courses/GEOG489.html" xlink:title="GEOG489: Climate Solutions" target="_top">
<path fill="#d7e9ef" stroke="#1f4f66" stroke-width="1.6" d="M441.61,-394C441.61,-394 402.61,-394 402.61,-394 396.61,-394 390.61,-388 390.61,-382 390.61,-382 390.61,-370 390.61,-370 390.61,-364 396.61,-358 402.61,-358 402.61,-358 441.61,-358 441.61,-358 447.61,-358 453.61,-364 453.61,-370 453.61,-370 453.61,-382 453.61,-382 453.61,-388 447.61,-394 441.61,-394"/>
<text text-anchor="middle" x="422.11" y="-373.5" font-family="Avenir Next" font-size="10.00" fill="#17232b">GEOG489</text>
</a>
</g>
</g>
<!-- course__EOS230&#45;&gt;course__GEOG489 -->
<g id="edge69" class="edge">
<title>course__EOS230&#45;&gt;course__GEOG489</title>
<path fill="none" stroke="#5d6972" stroke-width="1.2" d="M315.3,-651.87C323.88,-646.43 331.8,-639.56 337.11,-631 364.11,-587.49 320.35,-441.94 351.11,-401 358.82,-390.74 371.11,-384.67 383.25,-381.1"/>
<polygon fill="#5d6972" stroke="#5d6972" stroke-width="1.2" points="384.18,-383.39 390.35,-379.27 382.96,-378.64 384.18,-383.39"/>
</g>
<!-- course__GEOG209 -->
<g id="node16" class="node">
<title>course__GEOG209</title>
<g id="a_node16"><a xlink:href="../../../courses/GEOG209.html" xlink:title="GEOG209: Environmental Management" target="_top">
<path fill="#d7e9ef" stroke="#1f4f66" stroke-width="1.6" d="M287.61,-946C287.61,-946 248.61,-946 248.61,-946 242.61,-946 236.61,-940 236.61,-934 236.61,-934 236.61,-922 236.61,-922 236.61,-916 242.61,-910 248.61,-910 248.61,-910 287.61,-910 287.61,-910 293.61,-910 299.61,-916 299.61,-922 299.61,-922 299.61,-934 299.61,-934 299.61,-940 293.61,-946 287.61,-946"/>
<text text-anchor="middle" x="268.11" y="-925.5" font-family="Avenir Next" font-size="10.00" fill="#17232b">GEOG209</text>
</a>
</g>
</g>
<!-- course__GEOG301 -->
<g id="node33" class="node">
<title>course__GEOG301</title>
<g id="a_node33"><a xlink:href="../../../courses/GEOG301.html" xlink:title="GEOG301: Environmental Impact Assessment" target="_top">
<path fill="#d7e9ef" stroke="#1f4f66" stroke-width="1.6" d="M441.61,-946C441.61,-946 402.61,-946 402.61,-946 396.61,-946 390.61,-940 390.61,-934 390.61,-934 390.61,-922 390.61,-922 390.61,-916 396.61,-910 402.61,-910 402.61,-910 441.61,-910 441.61,-910 447.61,-910 453.61,-916 453.61,-922 453.61,-922 453.61,-934 453.61,-934 453.61,-940 447.61,-946 441.61,-946"/>
<text text-anchor="middle" x="422.11" y="-925.5" font-family="Avenir Next" font-size="10.00" fill="#17232b">GEOG301</text>
</a>
</g>
</g>
<!-- course__GEOG209&#45;&gt;course__GEOG301 -->
<g id="edge41" class="edge">
<title>course__GEOG209&#45;&gt;course__GEOG301</title>
<path fill="none" stroke="#5d6972" stroke-width="1.2" d="M299.87,-928C323.97,-928 357.63,-928 383.36,-928"/>
<polygon fill="#5d6972" stroke="#5d6972" stroke-width="1.2" points="383.4,-930.45 390.4,-928 383.4,-925.55 383.4,-930.45"/>
</g>
<!-- course__GEOG371 -->
<g id="node35" class="node">
<title>course__GEOG371</title>
<g id="a_node35"><a xlink:href="../../../courses/GEOG371.html" xlink:title="GEOG371: Water Resources Management" target="_top">
<path fill="#d7e9ef" stroke="#1f4f66" stroke-width="1.6" d="M441.61,-835C441.61,-835 402.61,-835 402.61,-835 396.61,-835 390.61,-829 390.61,-823 390.61,-823 390.61,-811 390.61,-811 390.61,-805 396.61,-799 402.61,-799 402.61,-799 441.61,-799 441.61,-799 447.61,-799 453.61,-805 453.61,-811 453.61,-811 453.61,-823 453.61,-823 453.61,-829 447.61,-835 441.61,-835"/>
<text text-anchor="middle" x="422.11" y="-814.5" font-family="Avenir Next" font-size="10.00" fill="#17232b">GEOG371</text>
</a>
</g>
</g>
<!-- course__GEOG209&#45;&gt;course__GEOG371 -->
<g id="edge51" class="edge">
<title>course__GEOG209&#45;&gt;course__GEOG371</title>
<path fill="none" stroke="#5d6972" stroke-width="1.2" d="M299.93,-923.9C313.12,-920.61 327.64,-914.68 337.11,-904 356.13,-882.53 331.99,-862.38 351.11,-841 359.49,-831.63 371.68,-825.92 383.55,-822.44"/>
<polygon fill="#5d6972" stroke="#5d6972" stroke-width="1.2" points="384.32,-824.77 390.47,-820.63 383.08,-820.03 384.32,-824.77"/>
</g>
<!-- course__GEOG272 -->
<g id="node17" class="node">
<title>course__GEOG272</title>
<g id="a_node17"><a xlink:href="../../../courses/GEOG272.html" xlink:title="GEOG272: Climatology and Hydrology" target="_top">
<path fill="#d7e9ef" stroke="#1f4f66" stroke-width="1.6" d="M287.61,-884C287.61,-884 248.61,-884 248.61,-884 242.61,-884 236.61,-878 236.61,-872 236.61,-872 236.61,-860 236.61,-860 236.61,-854 242.61,-848 248.61,-848 248.61,-848 287.61,-848 287.61,-848 293.61,-848 299.61,-854 299.61,-860 299.61,-860 299.61,-872 299.61,-872 299.61,-878 293.61,-884 287.61,-884"/>
<text text-anchor="middle" x="268.11" y="-863.5" font-family="Avenir Next" font-size="10.00" fill="#17232b">GEOG272</text>
</a>
</g>
</g>
<!-- course__GEOG313 -->
<g id="node34" class="node">
<title>course__GEOG313</title>
<g id="a_node34"><a xlink:href="../../../courses/GEOG313.html" xlink:title="GEOG313: Field Studies in Mountain Meteorology" target="_top">
<path fill="#d7e9ef" stroke="#1f4f66" stroke-width="1.6" d="M441.61,-639C441.61,-639 402.61,-639 402.61,-639 396.61,-639 390.61,-633 390.61,-627 390.61,-627 390.61,-615 390.61,-615 390.61,-609 396.61,-603 402.61,-603 402.61,-603 441.61,-603 441.61,-603 447.61,-603 453.61,-609 453.61,-615 453.61,-615 453.61,-627 453.61,-627 453.61,-633 447.61,-639 441.61,-639"/>
<text text-anchor="middle" x="422.11" y="-618.5" font-family="Avenir Next" font-size="10.00" fill="#17232b">GEOG313</text>
</a>
</g>
</g>
<!-- course__GEOG272&#45;&gt;course__GEOG313 -->
<g id="edge42" class="edge">
<title>course__GEOG272&#45;&gt;course__GEOG313</title>
<path fill="none" stroke="#5d6972" stroke-width="1.2" d="M299.63,-862.76C313.26,-859.66 328.23,-853.65 337.11,-842 363.59,-807.27 324.7,-680.77 351.11,-646 358.87,-635.78 371.17,-629.72 383.31,-626.14"/>
<polygon fill="#5d6972" stroke="#5d6972" stroke-width="1.2" points="384.24,-628.43 390.4,-624.31 383.01,-623.69 384.24,-628.43"/>
</g>
<!-- course__GEOG272&#45;&gt;course__GEOG371 -->
<g id="edge52" class="edge">
<title>course__GEOG272&#45;&gt;course__GEOG371</title>
<path fill="none" stroke="#5d6972" stroke-width="1.2" d="M299.87,-856.08C324.08,-848.28 357.91,-837.37 383.69,-829.06"/>
<polygon fill="#5d6972" stroke="#5d6972" stroke-width="1.2" points="384.49,-831.38 390.4,-826.9 382.98,-826.72 384.49,-831.38"/>
</g>
<!-- course__GEOG373 -->
<g id="node36" class="node">
<title>course__GEOG373</title>
<g id="a_node36"><a xlink:href="../../../courses/GEOG373.html" xlink:title="GEOG373: Applied Climatology" target="_top">
<path fill="#d7e9ef" stroke="#1f4f66" stroke-width="1.6" d="M441.61,-296C441.61,-296 402.61,-296 402.61,-296 396.61,-296 390.61,-290 390.61,-284 390.61,-284 390.61,-272 390.61,-272 390.61,-266 396.61,-260 402.61,-260 402.61,-260 441.61,-260 441.61,-260 447.61,-260 453.61,-266 453.61,-272 453.61,-272 453.61,-284 453.61,-284 453.61,-290 447.61,-296 441.61,-296"/>
<text text-anchor="middle" x="422.11" y="-275.5" font-family="Avenir Next" font-size="10.00" fill="#17232b">GEOG373</text>
</a>
</g>
</g>
<!-- course__GEOG272&#45;&gt;course__GEOG373 -->
<g id="edge53" class="edge">
<title>course__GEOG272&#45;&gt;course__GEOG373</title>
<path fill="none" stroke="#5d6972" stroke-width="1.2" d="M299.86,-862.93C313.55,-859.88 328.5,-853.85 337.11,-842 372.34,-793.55 315.97,-351.52 351.11,-303 358.77,-292.42 371.33,-286.3 383.7,-282.76"/>
<polygon fill="#5d6972" stroke="#5d6972" stroke-width="1.2" points="384.33,-285.13 390.52,-281.05 383.14,-280.38 384.33,-285.13"/>
</g>
<!-- choice_GEOG370_0_0 -->
<g id="node64" class="node">
<title>choice_GEOG370_0_0</title>
<path fill="#fff7ee" stroke="#b7793f" stroke-width="1.1" d="M283.11,-247C283.11,-247 253.11,-247 253.11,-247 247.11,-247 241.11,-241 241.11,-235 241.11,-235 241.11,-223 241.11,-223 241.11,-217 247.11,-211 253.11,-211 253.11,-211 283.11,-211 283.11,-211 289.11,-211 295.11,-217 295.11,-223 295.11,-223 295.11,-235 295.11,-235 295.11,-241 289.11,-247 283.11,-247"/>
<text text-anchor="middle" x="268.11" y="-226.8" font-family="Avenir Next" font-size="9.00">1 of</text>
</g>
<!-- course__GEOG272&#45;&gt;choice_GEOG370_0_0 -->
<g id="edge48" class="edge">
<title>course__GEOG272&#45;&gt;choice_GEOG370_0_0</title>
<path fill="none" stroke="#7a8389" d="M236.23,-863.49C217.74,-860.16 196.01,-852.58 185.11,-835.5 167.92,-808.57 167.92,-287.43 185.11,-260.5 195.58,-244.1 215.91,-236.21 233.82,-232.43"/>
<polygon fill="#7a8389" stroke="#7a8389" points="234.37,-234.82 240.8,-231.13 233.47,-230.01 234.37,-234.82"/>
</g>
<!-- choice_ECON383_0_0 -->
<g id="node58" class="node">
<title>choice_ECON383_0_0</title>
<path fill="#fff7ee" stroke="#b7793f" stroke-width="1.1" d="M283.11,-296C283.11,-296 253.11,-296 253.11,-296 247.11,-296 241.11,-290 241.11,-284 241.11,-284 241.11,-272 241.11,-272 241.11,-266 247.11,-260 253.11,-260 253.11,-260 283.11,-260 283.11,-260 289.11,-260 295.11,-266 295.11,-272 295.11,-272 295.11,-284 295.11,-284 295.11,-290 289.11,-296 283.11,-296"/>
<text text-anchor="middle" x="268.11" y="-275.8" font-family="Avenir Next" font-size="9.00">1 of</text>
</g>
<!-- course__STAT254&#45;&gt;choice_ECON383_0_0 -->
<g id="edge15" class="edge">
<title>course__STAT254&#45;&gt;choice_ECON383_0_0</title>
<path fill="none" stroke="#7a8389" d="M225.03,-1020.99C209.6,-1016.8 193.86,-1009.22 185.11,-995.5 174.86,-979.44 174.86,-325.56 185.11,-309.5 195.58,-293.1 215.91,-285.21 233.82,-281.43"/>
<polygon fill="#7a8389" stroke="#7a8389" points="234.37,-283.82 240.8,-280.13 233.47,-279.01 234.37,-283.82"/>
</g>
<!-- course__CIVE315 -->
<g id="node42" class="node">
<title>course__CIVE315</title>
<g id="a_node42"><a xlink:href="../../../courses/CIVE315.html" xlink:title="CIVE315: Environmental Policy" target="_top">
<path fill="#e2deef" stroke="#665683" stroke-width="1.3" d="M438.61,-1240C438.61,-1240 405.61,-1240 405.61,-1240 399.61,-1240 393.61,-1234 393.61,-1228 393.61,-1228 393.61,-1216 393.61,-1216 393.61,-1210 399.61,-1204 405.61,-1204 405.61,-1204 438.61,-1204 438.61,-1204 444.61,-1204 450.61,-1210 450.61,-1216 450.61,-1216 450.61,-1228 450.61,-1228 450.61,-1234 444.61,-1240 438.61,-1240"/>
<text text-anchor="middle" x="422.11" y="-1219.5" font-family="Avenir Next" font-size="10.00" fill="#2f2741">CIVE315</text>
</a>
</g>
</g>
<!-- course__CIVE210&#45;&gt;course__CIVE315 -->
<g id="edge12" class="edge">
<title>course__CIVE210&#45;&gt;course__CIVE315</title>
<path fill="none" stroke="#5d6972" stroke-width="1.2" d="M296.88,-980.07C311.22,-983.18 327.66,-989.44 337.11,-1002 363.36,-1036.9 324.48,-1163.39 351.11,-1198 359.51,-1208.91 373.14,-1214.89 386.15,-1218.16"/>
<polygon fill="#5d6972" stroke="#5d6972" stroke-width="1.2" points="385.92,-1220.62 393.28,-1219.71 386.96,-1215.83 385.92,-1220.62"/>
</g>
<!-- course__ADMN311 -->
<g id="node20" class="node">
<title>course__ADMN311</title>
<g id="a_node20"><a xlink:href="../../../courses/ADMN311.html" xlink:title="Equivalent or cross&#45;listed: ADMN311: Introduction to Public Administration | POLI350: Introduction to Public Administration" target="_top">
<path fill="#e2deef" stroke="#665683" stroke-width="1.3" d="M467.11,-345C467.11,-345 377.11,-345 377.11,-345 371.11,-345 365.11,-339 365.11,-333 365.11,-333 365.11,-321 365.11,-321 365.11,-315 371.11,-309 377.11,-309 377.11,-309 467.11,-309 467.11,-309 473.11,-309 479.11,-315 479.11,-321 479.11,-321 479.11,-333 479.11,-333 479.11,-339 473.11,-345 467.11,-345"/>
<text text-anchor="middle" x="422.11" y="-324.5" font-family="Avenir Next" font-size="10.00" fill="#2f2741">ADMN311 / POLI350</text>
</a>
</g>
</g>
<!-- course__ADMN420 -->
<g id="node28" class="node">
<title>course__ADMN420</title>
<g id="a_node28"><a xlink:href="../../../courses/ADMN420.html" xlink:title="ADMN420: The Public Policy Process" target="_top">
<path fill="#e2deef" stroke="#665683" stroke-width="1.3" d="M574.11,-345C574.11,-345 533.11,-345 533.11,-345 527.11,-345 521.11,-339 521.11,-333 521.11,-333 521.11,-321 521.11,-321 521.11,-315 527.11,-309 533.11,-309 533.11,-309 574.11,-309 574.11,-309 580.11,-309 586.11,-315 586.11,-321 586.11,-321 586.11,-333 586.11,-333 586.11,-339 580.11,-345 574.11,-345"/>
<text text-anchor="middle" x="553.61" y="-324.5" font-family="Avenir Next" font-size="10.00" fill="#2f2741">ADMN420</text>
</a>
</g>
</g>
<!-- course__ADMN311&#45;&gt;course__ADMN420 -->
<g id="edge3" class="edge">
<title>course__ADMN311&#45;&gt;course__ADMN420</title>
<path fill="none" stroke="#5d6972" stroke-width="1.2" d="M479.16,-327C490.93,-327 503.1,-327 514.06,-327"/>
<polygon fill="#5d6972" stroke="#5d6972" stroke-width="1.2" points="514.07,-329.45 521.07,-327 514.07,-324.55 514.07,-329.45"/>
</g>
<!-- course__ADMN316 -->
<g id="node21" class="node">
<title>course__ADMN316</title>
<g id="a_node21"><a xlink:href="../../../courses/ADMN316.html" xlink:title="ADMN316: Public Sector Communications" target="_top">
<path fill="#e2deef" stroke="#665683" stroke-width="1.3" d="M442.61,-1191C442.61,-1191 401.61,-1191 401.61,-1191 395.61,-1191 389.61,-1185 389.61,-1179 389.61,-1179 389.61,-1167 389.61,-1167 389.61,-1161 395.61,-1155 401.61,-1155 401.61,-1155 442.61,-1155 442.61,-1155 448.61,-1155 454.61,-1161 454.61,-1167 454.61,-1167 454.61,-1179 454.61,-1179 454.61,-1185 448.61,-1191 442.61,-1191"/>
<text text-anchor="middle" x="422.11" y="-1170.5" font-family="Avenir Next" font-size="10.00" fill="#2f2741">ADMN316</text>
</a>
</g>
</g>
<!-- course__ANTH302 -->
<g id="node22" class="node">
<title>course__ANTH302</title>
<g id="a_node22"><a xlink:href="../../../courses/ANTH302.html" xlink:title="ANTH302: Globalization, Health, and the Environment" target="_top">
<path fill="#e2deef" stroke="#665683" stroke-width="1.3" d="M441.11,-1142C441.11,-1142 403.11,-1142 403.11,-1142 397.11,-1142 391.11,-1136 391.11,-1130 391.11,-1130 391.11,-1118 391.11,-1118 391.11,-1112 397.11,-1106 403.11,-1106 403.11,-1106 441.11,-1106 441.11,-1106 447.11,-1106 453.11,-1112 453.11,-1118 453.11,-1118 453.11,-1130 453.11,-1130 453.11,-1136 447.11,-1142 441.11,-1142"/>
<text text-anchor="middle" x="422.11" y="-1121.5" font-family="Avenir Next" font-size="10.00" fill="#2f2741">ANTH302</text>
</a>
</g>
</g>
<!-- course__CIVE411 -->
<g id="node23" class="node">
<title>course__CIVE411</title>
<g id="a_node23"><a xlink:href="../../../courses/CIVE411.html" xlink:title="CIVE411: Resilient Smart Cities" target="_top">
<path fill="#e2deef" stroke="#665683" stroke-width="1.3" d="M438.61,-1093C438.61,-1093 405.61,-1093 405.61,-1093 399.61,-1093 393.61,-1087 393.61,-1081 393.61,-1081 393.61,-1069 393.61,-1069 393.61,-1063 399.61,-1057 405.61,-1057 405.61,-1057 438.61,-1057 438.61,-1057 444.61,-1057 450.61,-1063 450.61,-1069 450.61,-1069 450.61,-1081 450.61,-1081 450.61,-1087 444.61,-1093 438.61,-1093"/>
<text text-anchor="middle" x="422.11" y="-1072.5" font-family="Avenir Next" font-size="10.00" fill="#2f2741">CIVE411</text>
</a>
</g>
</g>
<!-- course__EOS365 -->
<g id="node24" class="node">
<title>course__EOS365</title>
<g id="a_node24"><a xlink:href="../../../courses/EOS365.html" xlink:title="Equivalent or cross&#45;listed: EOS365: Climate and Society | ES365: Climate and Society" target="_top">
<path fill="#efd8cf" stroke="#8f5945" stroke-width="1.3" d="M456.61,-737C456.61,-737 387.61,-737 387.61,-737 381.61,-737 375.61,-731 375.61,-725 375.61,-725 375.61,-713 375.61,-713 375.61,-707 381.61,-701 387.61,-701 387.61,-701 456.61,-701 456.61,-701 462.61,-701 468.61,-707 468.61,-713 468.61,-713 468.61,-725 468.61,-725 468.61,-731 462.61,-737 456.61,-737"/>
<text text-anchor="middle" x="422.11" y="-716.5" font-family="Avenir Next" font-size="10.00" fill="#3f251d">EOS365 / ES365</text>
</a>
</g>
</g>
<!-- choice_GEOG450_0 -->
<g id="node66" class="node">
<title>choice_GEOG450_0</title>
<path fill="#fff7ee" stroke="#b7793f" stroke-width="1.1" d="M568.61,-1373C568.61,-1373 538.61,-1373 538.61,-1373 532.61,-1373 526.61,-1367 526.61,-1361 526.61,-1361 526.61,-1349 526.61,-1349 526.61,-1343 532.61,-1337 538.61,-1337 538.61,-1337 568.61,-1337 568.61,-1337 574.61,-1337 580.61,-1343 580.61,-1349 580.61,-1349 580.61,-1361 580.61,-1361 580.61,-1367 574.61,-1373 568.61,-1373"/>
<text text-anchor="middle" x="553.61" y="-1352.8" font-family="Avenir Next" font-size="9.00">2 of</text>
</g>
<!-- course__EOS365&#45;&gt;choice_GEOG450_0 -->
<g id="edge61" class="edge">
<title>course__EOS365&#45;&gt;choice_GEOG450_0</title>
<path fill="none" stroke="#7a8389" d="M468.66,-733.77C472.69,-736.61 476.3,-739.99 479.11,-744 554.15,-851.1 458.92,-1215.96 521.11,-1331 521.38,-1331.5 521.66,-1331.99 521.96,-1332.48"/>
<polygon fill="#7a8389" stroke="#7a8389" points="520.31,-1334.34 526.54,-1338.36 524.18,-1331.33 520.31,-1334.34"/>
</g>
<!-- choice_GEOG489_0_2 -->
<g id="node68" class="node">
<title>choice_GEOG489_0_2</title>
<path fill="#fff7ee" stroke="#b7793f" stroke-width="1.1" d="M568.61,-1324C568.61,-1324 538.61,-1324 538.61,-1324 532.61,-1324 526.61,-1318 526.61,-1312 526.61,-1312 526.61,-1300 526.61,-1300 526.61,-1294 532.61,-1288 538.61,-1288 538.61,-1288 568.61,-1288 568.61,-1288 574.61,-1288 580.61,-1294 580.61,-1300 580.61,-1300 580.61,-1312 580.61,-1312 580.61,-1318 574.61,-1324 568.61,-1324"/>
<text text-anchor="middle" x="553.61" y="-1303.8" font-family="Avenir Next" font-size="9.00">1 of</text>
</g>
<!-- course__EOS365&#45;&gt;choice_GEOG489_0_2 -->
<g id="edge68" class="edge">
<title>course__EOS365&#45;&gt;choice_GEOG489_0_2</title>
<path fill="none" stroke="#7a8389" d="M468.63,-733.79C472.67,-736.63 476.29,-740 479.11,-744 547.64,-841.06 469.15,-1170.15 521.11,-1277 521.99,-1278.82 523.05,-1280.58 524.22,-1282.27"/>
<polygon fill="#7a8389" stroke="#7a8389" points="522.32,-1283.82 528.61,-1287.75 526.15,-1280.75 522.32,-1283.82"/>
</g>
<!-- course__ES314 -->
<g id="node25" class="node">
<title>course__ES314</title>
<g id="a_node25"><a xlink:href="../../../courses/ES314.html" xlink:title="Equivalent or cross&#45;listed: ES314: Philosophy and the Environment | PHIL333: Philosophy and the Environment" target="_top">
<path fill="#e2deef" stroke="#665683" stroke-width="1.3" d="M457.61,-995C457.61,-995 386.61,-995 386.61,-995 380.61,-995 374.61,-989 374.61,-983 374.61,-983 374.61,-971 374.61,-971 374.61,-965 380.61,-959 386.61,-959 386.61,-959 457.61,-959 457.61,-959 463.61,-959 469.61,-965 469.61,-971 469.61,-971 469.61,-983 469.61,-983 469.61,-989 463.61,-995 457.61,-995"/>
<text text-anchor="middle" x="422.11" y="-974.5" font-family="Avenir Next" font-size="10.00" fill="#2f2741">ES314 / PHIL333</text>
</a>
</g>
</g>
<!-- course__GEOG314 -->
<g id="node26" class="node">
<title>course__GEOG314</title>
<g id="a_node26"><a xlink:href="../../../courses/GEOG314.html" xlink:title="GEOG314: Global Environmental Change and Human Response" target="_top">
<path fill="#efd8cf" stroke="#8f5945" stroke-width="1.3" d="M441.61,-688C441.61,-688 402.61,-688 402.61,-688 396.61,-688 390.61,-682 390.61,-676 390.61,-676 390.61,-664 390.61,-664 390.61,-658 396.61,-652 402.61,-652 402.61,-652 441.61,-652 441.61,-652 447.61,-652 453.61,-658 453.61,-664 453.61,-664 453.61,-676 453.61,-676 453.61,-682 447.61,-688 441.61,-688"/>
<text text-anchor="middle" x="422.11" y="-667.5" font-family="Avenir Next" font-size="10.00" fill="#3f251d">GEOG314</text>
</a>
</g>
</g>
<!-- course__GEOG314&#45;&gt;choice_GEOG450_0 -->
<g id="edge59" class="edge">
<title>course__GEOG314&#45;&gt;choice_GEOG450_0</title>
<path fill="none" stroke="#7a8389" d="M453.66,-676.92C463.35,-680.65 473.09,-686.35 479.11,-695 560.07,-811.22 454.1,-1206.21 521.11,-1331 521.38,-1331.5 521.66,-1331.99 521.96,-1332.48"/>
<polygon fill="#7a8389" stroke="#7a8389" points="520.3,-1334.34 526.53,-1338.37 524.17,-1331.33 520.3,-1334.34"/>
</g>
<!-- course__GEOG314&#45;&gt;choice_GEOG489_0_2 -->
<g id="edge67" class="edge">
<title>course__GEOG314&#45;&gt;choice_GEOG489_0_2</title>
<path fill="none" stroke="#7a8389" d="M453.64,-676.94C463.31,-680.68 473.06,-686.37 479.11,-695 553.55,-801.17 464.78,-1160.2 521.11,-1277 521.99,-1278.82 523.03,-1280.58 524.2,-1282.27"/>
<polygon fill="#7a8389" stroke="#7a8389" points="522.3,-1283.82 528.59,-1287.76 526.13,-1280.76 522.3,-1283.82"/>
</g>
<!-- course__POLI351 -->
<g id="node27" class="node">
<title>course__POLI351</title>
<g id="a_node27"><a xlink:href="../../../courses/POLI351.html" xlink:title="POLI351: Public Policy Analysis" target="_top">
<path fill="#e2deef" stroke="#665683" stroke-width="1.3" d="M438.11,-897C438.11,-897 406.11,-897 406.11,-897 400.11,-897 394.11,-891 394.11,-885 394.11,-885 394.11,-873 394.11,-873 394.11,-867 400.11,-861 406.11,-861 406.11,-861 438.11,-861 438.11,-861 444.11,-861 450.11,-867 450.11,-873 450.11,-873 450.11,-885 450.11,-885 450.11,-891 444.11,-897 438.11,-897"/>
<text text-anchor="middle" x="422.11" y="-876.5" font-family="Avenir Next" font-size="10.00" fill="#2f2741">POLI351</text>
</a>
</g>
</g>
<!-- course__ES405 -->
<g id="node32" class="node">
<title>course__ES405</title>
<g id="a_node32"><a xlink:href="../../../courses/ES405.html" xlink:title="ES405: Climate, Energy and Politics" target="_top">
<path fill="#e2deef" stroke="#665683" stroke-width="1.3" d="M568.61,-590C568.61,-590 538.61,-590 538.61,-590 532.61,-590 526.61,-584 526.61,-578 526.61,-578 526.61,-566 526.61,-566 526.61,-560 532.61,-554 538.61,-554 538.61,-554 568.61,-554 568.61,-554 574.61,-554 580.61,-560 580.61,-566 580.61,-566 580.61,-578 580.61,-578 580.61,-584 574.61,-590 568.61,-590"/>
<text text-anchor="middle" x="553.61" y="-569.5" font-family="Avenir Next" font-size="10.00" fill="#2f2741">ES405</text>
</a>
</g>
</g>
<!-- course__ES301&#45;&gt;course__ES405 -->
<g id="edge34" class="edge">
<title>course__ES301&#45;&gt;course__ES405</title>
<path fill="none" stroke="#5d6972" stroke-width="1.2" d="M449.32,-572C469.5,-572 497.55,-572 519.32,-572"/>
<polygon fill="#5d6972" stroke="#5d6972" stroke-width="1.2" points="519.44,-574.45 526.44,-572 519.44,-569.55 519.44,-574.45"/>
</g>
<!-- course__ES301&#45;&gt;choice_GEOG450_0 -->
<g id="edge62" class="edge">
<title>course__ES301&#45;&gt;choice_GEOG450_0</title>
<path fill="none" stroke="#7a8389" d="M449.32,-577.32C460.36,-580.96 472.22,-587.01 479.11,-597 571.9,-731.47 444.45,-1186.73 521.11,-1331 521.38,-1331.5 521.66,-1331.99 521.95,-1332.48"/>
<polygon fill="#7a8389" stroke="#7a8389" points="520.29,-1334.33 526.5,-1338.38 524.17,-1331.34 520.29,-1334.33"/>
</g>
<!-- course__GEOG301&#45;&gt;choice_GEOG450_0 -->
<g id="edge58" class="edge">
<title>course__GEOG301&#45;&gt;choice_GEOG450_0</title>
<path fill="none" stroke="#7a8389" d="M453.74,-935.18C463.31,-938.94 472.96,-944.57 479.11,-953 578.8,-1089.51 437.83,-1183.91 521.11,-1331 521.38,-1331.47 521.66,-1331.94 521.95,-1332.39"/>
<polygon fill="#7a8389" stroke="#7a8389" points="520.1,-1334.01 526.36,-1337.99 523.95,-1330.98 520.1,-1334.01"/>
</g>
<!-- course__GEOG371&#45;&gt;choice_GEOG450_0 -->
<g id="edge60" class="edge">
<title>course__GEOG371&#45;&gt;choice_GEOG450_0</title>
<path fill="none" stroke="#7a8389" d="M453.84,-823.54C463.41,-827.11 473.04,-832.6 479.11,-841 543.12,-929.58 468.46,-1235.23 521.11,-1331 521.38,-1331.5 521.67,-1331.99 521.97,-1332.47"/>
<polygon fill="#7a8389" stroke="#7a8389" points="520.33,-1334.34 526.58,-1338.34 524.18,-1331.32 520.33,-1334.34"/>
</g>
<!-- course__GEOG484 -->
<g id="node40" class="node">
<title>course__GEOG484</title>
<g id="a_node40"><a xlink:href="../../../courses/GEOG484.html" xlink:title="GEOG484: Advanced Topics in Weather and Climate" target="_top">
<path fill="#d7e9ef" stroke="#1f4f66" stroke-width="1.6" d="M573.11,-296C573.11,-296 534.11,-296 534.11,-296 528.11,-296 522.11,-290 522.11,-284 522.11,-284 522.11,-272 522.11,-272 522.11,-266 528.11,-260 534.11,-260 534.11,-260 573.11,-260 573.11,-260 579.11,-260 585.11,-266 585.11,-272 585.11,-272 585.11,-284 585.11,-284 585.11,-290 579.11,-296 573.11,-296"/>
<text text-anchor="middle" x="553.61" y="-275.5" font-family="Avenir Next" font-size="10.00" fill="#17232b">GEOG484</text>
</a>
</g>
</g>
<!-- course__GEOG373&#45;&gt;course__GEOG484 -->
<g id="edge64" class="edge">
<title>course__GEOG373&#45;&gt;course__GEOG484</title>
<path fill="none" stroke="#5d6972" stroke-width="1.2" d="M453.8,-278C471.97,-278 495.15,-278 514.49,-278"/>
<polygon fill="#5d6972" stroke="#5d6972" stroke-width="1.2" points="514.69,-280.45 521.69,-278 514.69,-275.55 514.69,-280.45"/>
</g>
<!-- choice_GEOG405_0 -->
<g id="node65" class="node">
<title>choice_GEOG405_0</title>
<path fill="#fff7ee" stroke="#b7793f" stroke-width="1.1" d="M568.61,-36C568.61,-36 538.61,-36 538.61,-36 532.61,-36 526.61,-30 526.61,-24 526.61,-24 526.61,-12 526.61,-12 526.61,-6 532.61,0 538.61,0 538.61,0 568.61,0 568.61,0 574.61,0 580.61,-6 580.61,-12 580.61,-12 580.61,-24 580.61,-24 580.61,-30 574.61,-36 568.61,-36"/>
<text text-anchor="middle" x="553.61" y="-15.8" font-family="Avenir Next" font-size="9.00">1 of</text>
</g>
<!-- course__GEOG373&#45;&gt;choice_GEOG405_0 -->
<g id="edge55" class="edge">
<title>course__GEOG373&#45;&gt;choice_GEOG405_0</title>
<path fill="none" stroke="#7a8389" d="M453.88,-270.82C463.22,-267.22 472.7,-261.88 479.11,-254 538.36,-181.19 475,-128.77 521.11,-47 522.14,-45.18 523.32,-43.41 524.61,-41.7"/>
<polygon fill="#7a8389" stroke="#7a8389" points="526.67,-43.05 529.34,-36.14 522.94,-39.88 526.67,-43.05"/>
</g>
<!-- choice_GEOG489_0_1 -->
<g id="node67" class="node">
<title>choice_GEOG489_0_1</title>
<path fill="#fff7ee" stroke="#b7793f" stroke-width="1.1" d="M283.11,-345C283.11,-345 253.11,-345 253.11,-345 247.11,-345 241.11,-339 241.11,-333 241.11,-333 241.11,-321 241.11,-321 241.11,-315 247.11,-309 253.11,-309 253.11,-309 283.11,-309 283.11,-309 289.11,-309 295.11,-315 295.11,-321 295.11,-321 295.11,-333 295.11,-333 295.11,-339 289.11,-345 283.11,-345"/>
<text text-anchor="middle" x="268.11" y="-324.8" font-family="Avenir Next" font-size="9.00">1 of</text>
</g>
<!-- course__GEOG373&#45;&gt;choice_GEOG489_0_1 -->
<g id="edge65" class="edge">
<title>course__GEOG373&#45;&gt;choice_GEOG489_0_1</title>
<path fill="none" stroke="#7a8389" d="M390.35,-287.92C364.7,-296.18 328.24,-307.94 302.01,-316.39"/>
<polygon fill="#7a8389" stroke="#7a8389" points="301.15,-314.1 295.24,-318.58 302.65,-318.76 301.15,-314.1"/>
</g>
<!-- course__ECON383 -->
<g id="node37" class="node">
<title>course__ECON383</title>
<g id="a_node37"><a xlink:href="../../../courses/ECON383.html" xlink:title="ECON383: Climate Economics" target="_top">
<path fill="#e2deef" stroke="#665683" stroke-width="1.3" d="M441.11,-247C441.11,-247 403.11,-247 403.11,-247 397.11,-247 391.11,-241 391.11,-235 391.11,-235 391.11,-223 391.11,-223 391.11,-217 397.11,-211 403.11,-211 403.11,-211 441.11,-211 441.11,-211 447.11,-211 453.11,-217 453.11,-223 453.11,-223 453.11,-235 453.11,-235 453.11,-241 447.11,-247 441.11,-247"/>
<text text-anchor="middle" x="422.11" y="-226.5" font-family="Avenir Next" font-size="10.00" fill="#2f2741">ECON383</text>
</a>
</g>
</g>
<!-- course__EOS314&#45;&gt;choice_EOS312_0_0 -->
<g id="edge22" class="edge">
<title>course__EOS314&#45;&gt;choice_EOS312_0_0</title>
<path fill="none" stroke="#7a8389" d="M394.82,-427.56C379.65,-430.48 361.56,-436.72 351.11,-450 314.63,-496.36 373.68,-535.71 337.11,-582 328.66,-592.69 315.11,-598.63 302.31,-601.93"/>
<polygon fill="#7a8389" stroke="#7a8389" points="301.61,-599.57 295.32,-603.5 302.69,-604.35 301.61,-599.57"/>
</g>
<!-- course__GEOG450 -->
<g id="node39" class="node">
<title>course__GEOG450</title>
<g id="a_node39"><a xlink:href="../../../courses/GEOG450.html" xlink:title="GEOG450: Environment and Sustainability in Practice" target="_top">
<path fill="#d7e9ef" stroke="#1f4f66" stroke-width="1.6" d="M441.61,-786C441.61,-786 402.61,-786 402.61,-786 396.61,-786 390.61,-780 390.61,-774 390.61,-774 390.61,-762 390.61,-762 390.61,-756 396.61,-750 402.61,-750 402.61,-750 441.61,-750 441.61,-750 447.61,-750 453.61,-756 453.61,-762 453.61,-762 453.61,-774 453.61,-774 453.61,-780 447.61,-786 441.61,-786"/>
<text text-anchor="middle" x="422.11" y="-765.5" font-family="Avenir Next" font-size="10.00" fill="#17232b">GEOG450</text>
</a>
</g>
</g>
<!-- course__STAT359 -->
<g id="node41" class="node">
<title>course__STAT359</title>
<g id="a_node41"><a xlink:href="../../../courses/STAT359.html" xlink:title="STAT359: Data Analysis" target="_top">
<path fill="#d7e9ef" stroke="#1f4f66" stroke-width="1.6" d="M439.11,-198C439.11,-198 405.11,-198 405.11,-198 399.11,-198 393.11,-192 393.11,-186 393.11,-186 393.11,-174 393.11,-174 393.11,-168 399.11,-162 405.11,-162 405.11,-162 439.11,-162 439.11,-162 445.11,-162 451.11,-168 451.11,-174 451.11,-174 451.11,-186 451.11,-186 451.11,-192 445.11,-198 439.11,-198"/>
<text text-anchor="middle" x="422.11" y="-177.5" font-family="Avenir Next" font-size="10.00" fill="#17232b">STAT359</text>
</a>
</g>
</g>
<!-- course__GEOG370 -->
<g id="node44" class="node">
<title>course__GEOG370</title>
<g id="a_node44"><a xlink:href="../../../courses/GEOG370.html" xlink:title="GEOG370: Methods in Hydrology" target="_top">
<path fill="#d7e9ef" stroke="#1f4f66" stroke-width="1.6" d="M441.61,-149C441.61,-149 402.61,-149 402.61,-149 396.61,-149 390.61,-143 390.61,-137 390.61,-137 390.61,-125 390.61,-125 390.61,-119 396.61,-113 402.61,-113 402.61,-113 441.61,-113 441.61,-113 447.61,-113 453.61,-119 453.61,-125 453.61,-125 453.61,-137 453.61,-137 453.61,-143 447.61,-149 441.61,-149"/>
<text text-anchor="middle" x="422.11" y="-128.5" font-family="Avenir Next" font-size="10.00" fill="#17232b">GEOG370</text>
</a>
</g>
</g>
<!-- course__GEOG370&#45;&gt;choice_GEOG405_0 -->
<g id="edge54" class="edge">
<title>course__GEOG370&#45;&gt;choice_GEOG405_0</title>
<path fill="none" stroke="#7a8389" d="M453.89,-121.39C462.61,-117.75 471.72,-113 479.11,-107 504.37,-86.47 499.68,-71.5 521.11,-47 522.83,-45.04 524.66,-43.07 526.56,-41.13"/>
<polygon fill="#7a8389" stroke="#7a8389" points="528.39,-42.77 531.65,-36.11 524.95,-39.28 528.39,-42.77"/>
</g>
<!-- course__GEOG405 -->
<g id="node46" class="node">
<title>course__GEOG405</title>
<g id="a_node46"><a xlink:href="../../../courses/GEOG405.html" xlink:title="GEOG405: Dynamics of the Cryosphere" target="_top">
<path fill="#d7e9ef" stroke="#1f4f66" stroke-width="1.6" d="M441.61,-100C441.61,-100 402.61,-100 402.61,-100 396.61,-100 390.61,-94 390.61,-88 390.61,-88 390.61,-76 390.61,-76 390.61,-70 396.61,-64 402.61,-64 402.61,-64 441.61,-64 441.61,-64 447.61,-64 453.61,-70 453.61,-76 453.61,-76 453.61,-88 453.61,-88 453.61,-94 447.61,-100 441.61,-100"/>
<text text-anchor="middle" x="422.11" y="-79.5" font-family="Avenir Next" font-size="10.00" fill="#17232b">GEOG405</text>
</a>
</g>
</g>
<!-- course__CHEM091 -->
<g id="node47" class="node">
<title>course__CHEM091</title>
<g id="a_node47"><a xlink:href="../../../courses/CHEM091.html" xlink:title="CHEM091: Introduction to Chemistry" target="_top">
<path fill="#f9f9f9" stroke="#363636" d="M129.61,-1730C129.61,-1730 92.61,-1730 92.61,-1730 86.61,-1730 80.61,-1724 80.61,-1718 80.61,-1718 80.61,-1706 80.61,-1706 80.61,-1700 86.61,-1694 92.61,-1694 92.61,-1694 129.61,-1694 129.61,-1694 135.61,-1694 141.61,-1700 141.61,-1706 141.61,-1706 141.61,-1718 141.61,-1718 141.61,-1724 135.61,-1730 129.61,-1730"/>
<text text-anchor="middle" x="111.11" y="-1709.8" font-family="Avenir Next" font-size="9.00" fill="#363636">CHEM091</text>
</a>
</g>
</g>
<!-- course__CHEM091&#45;&gt;course__CHEM102 -->
<g id="edge6" class="edge">
<title>course__CHEM091&#45;&gt;course__CHEM102</title>
<path fill="none" stroke="#5d6972" stroke-width="1.2" d="M141.63,-1704.09C152.58,-1699.66 164.05,-1692.96 171.11,-1683 231.44,-1597.92 134.42,-1531.82 199.11,-1450 206.47,-1440.69 217.66,-1434.84 228.84,-1431.17"/>
<polygon fill="#5d6972" stroke="#5d6972" stroke-width="1.2" points="229.73,-1433.47 235.76,-1429.16 228.36,-1428.76 229.73,-1433.47"/>
</g>
<!-- course__GEOG101A -->
<g id="node48" class="node">
<title>course__GEOG101A</title>
<g id="a_node48"><a xlink:href="../../../courses/GEOG101A.html" xlink:title="GEOG101A: Environment, Society and Sustainability" target="_top">
<path fill="#f9f9f9" stroke="#363636" d="M132.61,-1287C132.61,-1287 89.61,-1287 89.61,-1287 83.61,-1287 77.61,-1281 77.61,-1275 77.61,-1275 77.61,-1263 77.61,-1263 77.61,-1257 83.61,-1251 89.61,-1251 89.61,-1251 132.61,-1251 132.61,-1251 138.61,-1251 144.61,-1257 144.61,-1263 144.61,-1263 144.61,-1275 144.61,-1275 144.61,-1281 138.61,-1287 132.61,-1287"/>
<text text-anchor="middle" x="111.11" y="-1266.8" font-family="Avenir Next" font-size="9.00" fill="#363636">GEOG101A</text>
</a>
</g>
</g>
<!-- course__GEOG101A&#45;&gt;bundle_GEOG209_0_0 -->
<g id="edge35" class="edge">
<title>course__GEOG101A&#45;&gt;bundle_GEOG209_0_0</title>
<path fill="none" stroke="#7a8389" d="M144.98,-1269C179.32,-1269 231.4,-1269 254.87,-1269"/>
<polygon fill="#7a8389" stroke="#7a8389" points="254.91,-1271.45 261.91,-1269 254.91,-1266.55 254.91,-1271.45"/>
</g>
<!-- course__GEOG226 -->
<g id="node49" class="node">
<title>course__GEOG226</title>
<g id="a_node49"><a xlink:href="../../../courses/GEOG226.html" xlink:title="GEOG226: Quantitative Methods in Geography" target="_top">
<path fill="#f9f9f9" stroke="#363636" d="M129.61,-492C129.61,-492 92.61,-492 92.61,-492 86.61,-492 80.61,-486 80.61,-480 80.61,-480 80.61,-468 80.61,-468 80.61,-462 86.61,-456 92.61,-456 92.61,-456 129.61,-456 129.61,-456 135.61,-456 141.61,-462 141.61,-468 141.61,-468 141.61,-480 141.61,-480 141.61,-486 135.61,-492 129.61,-492"/>
<text text-anchor="middle" x="111.11" y="-471.8" font-family="Avenir Next" font-size="9.00" fill="#363636">GEOG226</text>
</a>
</g>
</g>
<!-- course__GEOG226&#45;&gt;course__GEOG323 -->
<g id="edge44" class="edge">
<title>course__GEOG226&#45;&gt;course__GEOG323</title>
<path fill="none" stroke="#5d6972" stroke-width="1.2" d="M141.74,-474C198.06,-474 320.5,-474 382.9,-474"/>
<polygon fill="#5d6972" stroke="#5d6972" stroke-width="1.2" points="383.2,-476.45 390.2,-474 383.2,-471.55 383.2,-476.45"/>
</g>
<!-- course__GEOG226&#45;&gt;course__GEOG328 -->
<g id="edge47" class="edge">
<title>course__GEOG226&#45;&gt;course__GEOG328</title>
<path fill="none" stroke="#5d6972" stroke-width="1.2" d="M141.74,-478.7C198.17,-487.65 321,-507.12 383.28,-517"/>
<polygon fill="#5d6972" stroke="#5d6972" stroke-width="1.2" points="382.9,-519.42 390.2,-518.1 383.67,-514.58 382.9,-519.42"/>
</g>
<!-- course__GEOG226&#45;&gt;choice_ECON383_0_0 -->
<g id="edge14" class="edge">
<title>course__GEOG226&#45;&gt;choice_ECON383_0_0</title>
<path fill="none" stroke="#7a8389" d="M116.59,-455.78C126,-421.2 151.04,-345.69 199.11,-303 208.86,-294.34 221.86,-288.6 233.88,-284.82"/>
<polygon fill="#7a8389" stroke="#7a8389" points="234.77,-287.12 240.82,-282.82 233.41,-282.41 234.77,-287.12"/>
</g>
<!-- course__MATH151 -->
<g id="node50" class="node">
<title>course__MATH151</title>
<g id="a_node50"><a xlink:href="../../../courses/MATH151.html" xlink:title="MATH151: Finite Mathematics" target="_top">
<path fill="#f9f9f9" stroke="#363636" d="M128.61,-575C128.61,-575 93.61,-575 93.61,-575 87.61,-575 81.61,-569 81.61,-563 81.61,-563 81.61,-551 81.61,-551 81.61,-545 87.61,-539 93.61,-539 93.61,-539 128.61,-539 128.61,-539 134.61,-539 140.61,-545 140.61,-551 140.61,-551 140.61,-563 140.61,-563 140.61,-569 134.61,-575 128.61,-575"/>
<text text-anchor="middle" x="111.11" y="-554.8" font-family="Avenir Next" font-size="9.00" fill="#363636">MATH151</text>
</a>
</g>
</g>
<!-- course__MATH151&#45;&gt;choice_EOS314_0_0 -->
<g id="edge28" class="edge">
<title>course__MATH151&#45;&gt;choice_EOS314_0_0</title>
<path fill="none" stroke="#7a8389" d="M140.9,-557C167.26,-557 206.26,-557 233.93,-557"/>
<polygon fill="#7a8389" stroke="#7a8389" points="234.05,-559.45 241.05,-557 234.05,-554.55 234.05,-559.45"/>
</g>
<!-- course__CSC110&#45;&gt;course__CIVE210 -->
<g id="edge10" class="edge">
<title>course__CSC110&#45;&gt;course__CIVE210</title>
<path fill="none" stroke="#5d6972" stroke-width="1.2" d="M124.51,-1079.64C139.78,-1058.29 167.6,-1023.26 199.11,-1002 209.21,-995.18 221.41,-989.95 232.67,-986.07"/>
<polygon fill="#5d6972" stroke="#5d6972" stroke-width="1.2" points="233.63,-988.33 239.53,-983.83 232.11,-983.67 233.63,-988.33"/>
</g>
<!-- course__BIOL186&#45;&gt;course__BIOL150A -->
<g id="edge4" class="edge">
<title>course__BIOL186&#45;&gt;course__BIOL150A</title>
<path fill="none" stroke="#5d6972" stroke-width="1.2" d="M82.72,-1760.36C60.61,-1758.17 31.22,-1751.21 16.11,-1730.5 -5.43,-1700.96 -5.29,-1431.14 16.11,-1401.5 27.33,-1385.95 46.53,-1377.96 64.75,-1373.89"/>
<polygon fill="#5d6972" stroke="#5d6972" stroke-width="1.2" points="65.54,-1376.23 71.93,-1372.47 64.59,-1371.42 65.54,-1376.23"/>
</g>
<!-- course__EOS340&#45;&gt;choice_GEOG370_0_0 -->
<g id="edge49" class="edge">
<title>course__EOS340&#45;&gt;choice_GEOG370_0_0</title>
<path fill="none" stroke="#7a8389" d="M163.29,-261.82C186.58,-254.46 213.47,-245.96 234.05,-239.45"/>
<polygon fill="#7a8389" stroke="#7a8389" points="234.84,-241.77 240.77,-237.33 233.36,-237.1 234.84,-241.77"/>
</g>
<!-- course__EOS340&#45;&gt;choice_GEOG405_0 -->
<g id="edge56" class="edge">
<title>course__EOS340&#45;&gt;choice_GEOG405_0</title>
<path fill="none" stroke="#7a8389" d="M124.6,-259.69C156.4,-214.73 245.4,-98.8 351.11,-47 405.6,-20.3 477.63,-16.37 519.17,-16.68"/>
<polygon fill="#7a8389" stroke="#7a8389" points="519.28,-19.13 526.31,-16.77 519.35,-14.23 519.28,-19.13"/>
</g>
<!-- course__EOS340&#45;&gt;choice_GEOG489_0_1 -->
<g id="edge66" class="edge">
<title>course__EOS340&#45;&gt;choice_GEOG489_0_1</title>
<path fill="none" stroke="#7a8389" d="M163.29,-294.18C186.58,-301.54 213.47,-310.04 234.05,-316.55"/>
<polygon fill="#7a8389" stroke="#7a8389" points="233.36,-318.9 240.77,-318.67 234.84,-314.23 233.36,-318.9"/>
</g>
<!-- course__EOS431&#45;&gt;choice_EOS312_0_0 -->
<g id="edge23" class="edge">
<title>course__EOS431&#45;&gt;choice_EOS312_0_0</title>
<path fill="none" stroke="#7a8389" d="M113.4,-869.85C117.56,-824.42 134.4,-704.54 199.11,-635 208.4,-625.01 221.71,-618.32 234.09,-613.9"/>
<polygon fill="#7a8389" stroke="#7a8389" points="234.95,-616.2 240.84,-611.68 233.42,-611.54 234.95,-616.2"/>
</g>
<!-- year_band__year&#45;1 -->
<!-- year_band__year&#45;2 -->
<!-- year_band__year&#45;1&#45;&gt;year_band__year&#45;2 -->
<!-- year_band__years&#45;3&#45;4 -->
<!-- year_band__year&#45;2&#45;&gt;year_band__years&#45;3&#45;4 -->
<!-- choice_ECON383_0_0&#45;&gt;course__ECON383 -->
<g id="edge16" class="edge">
<title>choice_ECON383_0_0&#45;&gt;course__ECON383</title>
<path fill="none" stroke="#5d6972" stroke-width="1.2" d="M295.24,-269.58C319.73,-261.68 356.6,-249.8 384.11,-240.93"/>
<polygon fill="#5d6972" stroke="#5d6972" stroke-width="1.2" points="384.98,-243.22 390.89,-238.74 383.47,-238.56 384.98,-243.22"/>
</g>
<!-- choice_ECON383_0_0&#45;&gt;course__STAT359 -->
<g id="edge78" class="edge">
<title>choice_ECON383_0_0&#45;&gt;course__STAT359</title>
<path fill="none" stroke="#5d6972" stroke-width="1.2" d="M295.21,-274.68C309.39,-271.58 326.22,-265.58 337.11,-254 352.63,-237.5 335.62,-221.53 351.11,-205 360.27,-195.23 373.51,-189.27 386.01,-185.64"/>
<polygon fill="#5d6972" stroke="#5d6972" stroke-width="1.2" points="386.7,-187.99 392.85,-183.85 385.46,-183.25 386.7,-187.99"/>
</g>
<!-- choice_EOS230_0_1&#45;&gt;course__EOS230 -->
<g id="edge20" class="edge">
<title>choice_EOS230_0_1&#45;&gt;course__EOS230</title>
<path fill="none" stroke="#5d6972" stroke-width="1.2" d="M240.78,-1304.24C221.43,-1301.35 196.92,-1294.01 185.11,-1275.5 167.95,-1248.62 167.95,-728.38 185.11,-701.5 190.26,-693.42 197.81,-687.41 206.28,-682.94"/>
<polygon fill="#5d6972" stroke="#5d6972" stroke-width="1.2" points="207.63,-685.01 212.91,-679.81 205.53,-680.58 207.63,-685.01"/>
</g>
<!-- choice_EOS230_0_1&#45;&gt;course__GEOG272 -->
<g id="edge40" class="edge">
<title>choice_EOS230_0_1&#45;&gt;course__GEOG272</title>
<path fill="none" stroke="#5d6972" stroke-width="1.2" d="M240.78,-1304.24C221.43,-1301.35 196.92,-1294.01 185.11,-1275.5 173.78,-1257.75 173.78,-914.25 185.11,-896.5 194.65,-881.55 212.48,-873.89 229.17,-869.97"/>
<polygon fill="#5d6972" stroke="#5d6972" stroke-width="1.2" points="229.87,-872.33 236.23,-868.51 228.88,-867.53 229.87,-872.33"/>
</g>
<!-- choice_GEOG209_0 -->
<g id="node63" class="node">
<title>choice_GEOG209_0</title>
<path fill="#fff7ee" stroke="#b7793f" stroke-width="1.1" d="M437.11,-1324C437.11,-1324 407.11,-1324 407.11,-1324 401.11,-1324 395.11,-1318 395.11,-1312 395.11,-1312 395.11,-1300 395.11,-1300 395.11,-1294 401.11,-1288 407.11,-1288 407.11,-1288 437.11,-1288 437.11,-1288 443.11,-1288 449.11,-1294 449.11,-1300 449.11,-1300 449.11,-1312 449.11,-1312 449.11,-1318 443.11,-1324 437.11,-1324"/>
<text text-anchor="middle" x="422.11" y="-1303.8" font-family="Avenir Next" font-size="9.00">1 of</text>
</g>
<!-- choice_EOS230_0_1&#45;&gt;choice_GEOG209_0 -->
<g id="edge38" class="edge">
<title>choice_EOS230_0_1&#45;&gt;choice_GEOG209_0</title>
<path fill="none" stroke="#7a8389" d="M295.24,-1306C320.87,-1306 360.06,-1306 387.9,-1306"/>
<polygon fill="#7a8389" stroke="#7a8389" points="388.07,-1308.45 395.07,-1306 388.07,-1303.55 388.07,-1308.45"/>
</g>
<!-- choice_EOS312_0_0&#45;&gt;course__EOS312 -->
<g id="edge24" class="edge">
<title>choice_EOS312_0_0&#45;&gt;course__EOS312</title>
<path fill="none" stroke="#5d6972" stroke-width="1.2" d="M295.44,-610.17C310.26,-613.99 327.65,-621.26 337.11,-635 360.25,-668.61 326.76,-969.25 351.11,-1002 359.73,-1013.59 374.27,-1019.63 387.88,-1022.76"/>
<polygon fill="#5d6972" stroke="#5d6972" stroke-width="1.2" points="387.53,-1025.18 394.87,-1024.14 388.48,-1020.38 387.53,-1025.18"/>
</g>
<!-- choice_EOS314_0_0&#45;&gt;course__EOS314 -->
<g id="edge29" class="edge">
<title>choice_EOS314_0_0&#45;&gt;course__EOS314</title>
<path fill="none" stroke="#5d6972" stroke-width="1.2" d="M278.6,-538.89C291.85,-515.27 318.01,-474.13 351.11,-450 361.92,-442.12 375.45,-436.52 387.73,-432.65"/>
<polygon fill="#5d6972" stroke="#5d6972" stroke-width="1.2" points="388.76,-434.9 394.78,-430.57 387.38,-430.2 388.76,-434.9"/>
</g>
<!-- bundle_GEOG209_0_0&#45;&gt;choice_GEOG209_0 -->
<g id="edge37" class="edge">
<title>bundle_GEOG209_0_0&#45;&gt;choice_GEOG209_0</title>
<path fill="none" stroke="#7a8389" d="M274.09,-1269.8C285.37,-1271.63 313.72,-1276.44 337.11,-1282 354,-1286.02 372.58,-1291.24 387.96,-1295.79"/>
<polygon fill="#7a8389" stroke="#7a8389" points="387.38,-1298.17 394.79,-1297.82 388.78,-1293.48 387.38,-1298.17"/>
</g>
<!-- choice_GEOG209_0&#45;&gt;course__GEOG209 -->
<g id="edge39" class="edge">
<title>choice_GEOG209_0&#45;&gt;course__GEOG209</title>
<path fill="none" stroke="#5d6972" stroke-width="1.2" d="M395.11,-1302.28C379.64,-1298.6 361.14,-1291.33 351.11,-1277 330.45,-1247.48 358.36,-982.1 337.11,-953 329.85,-943.07 318.22,-937.07 306.61,-933.46"/>
<polygon fill="#5d6972" stroke="#5d6972" stroke-width="1.2" points="307.2,-931.08 299.8,-931.6 305.91,-935.81 307.2,-931.08"/>
</g>
<!-- choice_GEOG370_0_0&#45;&gt;course__GEOG370 -->
<g id="edge50" class="edge">
<title>choice_GEOG370_0_0&#45;&gt;course__GEOG370</title>
<path fill="none" stroke="#5d6972" stroke-width="1.2" d="M285.46,-210.91C301,-194.65 325.7,-171.07 351.11,-156 361.13,-150.06 372.79,-145.2 383.68,-141.4"/>
<polygon fill="#5d6972" stroke="#5d6972" stroke-width="1.2" points="384.48,-143.71 390.34,-139.17 382.93,-139.07 384.48,-143.71"/>
</g>
<!-- choice_GEOG405_0&#45;&gt;course__GEOG405 -->
<g id="edge57" class="edge">
<title>choice_GEOG405_0&#45;&gt;course__GEOG405</title>
<path fill="none" stroke="#5d6972" stroke-width="1.2" d="M526.51,-30.9C507.47,-40.31 481.41,-53.19 460.21,-63.67"/>
<polygon fill="#5d6972" stroke="#5d6972" stroke-width="1.2" points="458.99,-61.54 453.8,-66.83 461.16,-65.93 458.99,-61.54"/>
</g>
<!-- choice_GEOG450_0&#45;&gt;course__GEOG450 -->
<g id="edge63" class="edge">
<title>choice_GEOG450_0&#45;&gt;course__GEOG450</title>
<path fill="none" stroke="#5d6972" stroke-width="1.2" d="M526.56,-1338.35C524.44,-1336.11 522.56,-1333.66 521.11,-1331 463.74,-1225.69 548.24,-890.99 479.11,-793 474.5,-786.47 467.79,-781.62 460.59,-778.03"/>
<polygon fill="#5d6972" stroke="#5d6972" stroke-width="1.2" points="461.29,-775.66 453.9,-775.07 459.31,-780.14 461.29,-775.66"/>
</g>
<!-- choice_GEOG489_0_1&#45;&gt;course__GEOG489 -->
<g id="edge70" class="edge">
<title>choice_GEOG489_0_1&#45;&gt;course__GEOG489</title>
<path fill="none" stroke="#5d6972" stroke-width="1.2" d="M295.24,-335.42C319.58,-343.27 356.12,-355.05 383.58,-363.9"/>
<polygon fill="#5d6972" stroke="#5d6972" stroke-width="1.2" points="382.94,-366.27 390.35,-366.08 384.44,-361.6 382.94,-366.27"/>
</g>
<!-- choice_GEOG489_0_2&#45;&gt;course__GEOG489 -->
<g id="edge71" class="edge">
<title>choice_GEOG489_0_2&#45;&gt;course__GEOG489</title>
<path fill="none" stroke="#5d6972" stroke-width="1.2" d="M528.5,-1287.8C525.55,-1284.53 522.94,-1280.91 521.11,-1277 438.57,-1100.45 589.06,-561.91 479.11,-401 474.56,-394.34 467.79,-389.43 460.52,-385.82"/>
<polygon fill="#5d6972" stroke="#5d6972" stroke-width="1.2" points="461.15,-383.42 453.75,-382.86 459.18,-387.91 461.15,-383.42"/>
</g>
</g>
</svg>
