<?xml version="1.0" encoding="UTF-8" standalone="no"?>
<!DOCTYPE svg PUBLIC "-//W3C//DTD SVG 1.1//EN"
 "http://www.w3.org/Graphics/SVG/1.1/DTD/svg11.dtd">
<!-- Generated by graphviz version 2.43.0 (0)
 -->
<!-- Title: BSC&#45;CSSD Pages: 1 -->
<svg width="1901pt" height="1388pt"
 viewBox="0.00 0.00 1901.20 1388.07" xmlns="http://www.w3.org/2000/svg" xmlns:xlink="http://www.w3.org/1999/xlink">
<g id="graph0" class="graph" transform="scale(1 1) rotate(0) translate(21.6 1366.47)">
<title>BSC&#45;CSSD</title>
<!-- course__CHEM091 -->
<g id="node1" class="node">
<title>course__CHEM091</title>
<g id="a_node1"><a xlink:href="../../../courses/CHEM091.html" xlink:title="CHEM091: Introduction to Chemistry" target="_top">
<path fill="#d7e9ef" stroke="#1f4f66" stroke-width="1.6" d="M80,-904.87C80,-904.87 40,-904.87 40,-904.87 34,-904.87 28,-898.87 28,-892.87 28,-892.87 28,-880.87 28,-880.87 28,-874.87 34,-868.87 40,-868.87 40,-868.87 80,-868.87 80,-868.87 86,-868.87 92,-874.87 92,-880.87 92,-880.87 92,-892.87 92,-892.87 92,-898.87 86,-904.87 80,-904.87"/>
<text text-anchor="middle" x="60" y="-884.37" font-family="Avenir Next" font-size="10.00" fill="#17232b">CHEM091</text>
</a>
</g>
</g>
<!-- course__CHEM102 -->
<g id="node15" class="node">
<title>course__CHEM102</title>
<g id="a_node15"><a xlink:href="../../../courses/CHEM102.html" xlink:title="CHEM102: Chemical Reactivity Fundamentals with Environmental Applications" target="_top">
<path fill="#d7e9ef" stroke="#1f4f66" stroke-width="1.6" d="M257.5,-903.87C257.5,-903.87 217.5,-903.87 217.5,-903.87 211.5,-903.87 205.5,-897.87 205.5,-891.87 205.5,-891.87 205.5,-879.87 205.5,-879.87 205.5,-873.87 211.5,-867.87 217.5,-867.87 217.5,-867.87 257.5,-867.87 257.5,-867.87 263.5,-867.87 269.5,-873.87 269.5,-879.87 269.5,-879.87 269.5,-891.87 269.5,-891.87 269.5,-897.87 263.5,-903.87 257.5,-903.87"/>
<text text-anchor="middle" x="237.5" y="-883.37" font-family="Avenir Next" font-size="10.00" fill="#17232b">CHEM102</text>
</a>
</g>
</g>
<!-- course__CHEM091&#45;&gt;course__CHEM102 -->
<g id="edge7" class="edge">
<title>course__CHEM091&#45;&gt;course__CHEM102</title>
<path fill="none" stroke="#5d6972" stroke-width="1.2" d="M92.38,-886.7C121.95,-886.53 166.34,-886.27 198.03,-886.09"/>
<polygon fill="#5d6972" stroke="#5d6972" stroke-width="1.2" points="198.41,-888.54 205.4,-886.05 198.38,-883.64 198.41,-888.54"/>
</g>
<!-- course__CHEM101 -->
<g id="node2" class="node">
<title>course__CHEM101</title>
<g id="a_node2"><a xlink:href="../../../courses/CHEM101.html" xlink:title="Equivalent or cross&#45;listed: CHEM101: Fundamentals of Chemistry from Atoms to Materials | CHEM150: Engineering Chemistry" target="_top">
<path fill="#d7e9ef" stroke="#1f4f66" stroke-width="1.6" d="M108,-848.87C108,-848.87 12,-848.87 12,-848.87 6,-848.87 0,-842.87 0,-836.87 0,-836.87 0,-824.87 0,-824.87 0,-818.87 6,-812.87 12,-812.87 12,-812.87 108,-812.87 108,-812.87 114,-812.87 120,-818.87 120,-824.87 120,-824.87 120,-836.87 120,-836.87 120,-842.87 114,-848.87 108,-848.87"/>
<text text-anchor="middle" x="60" y="-828.37" font-family="Avenir Next" font-size="10.00" fill="#17232b">CHEM101 / CHEM150</text>
</a>
</g>
</g>
<!-- course__CHEM101&#45;&gt;course__CHEM102 -->
<g id="edge8" class="edge">
<title>course__CHEM101&#45;&gt;course__CHEM102</title>
<path fill="none" stroke="#5d6972" stroke-width="1.2" d="M118.47,-848.88C144.67,-857.1 174.98,-866.59 198.32,-873.91"/>
<polygon fill="#5d6972" stroke="#5d6972" stroke-width="1.2" points="197.61,-876.25 205.02,-876.01 199.08,-871.58 197.61,-876.25"/>
</g>
<!-- course__CHEM231 -->
<g id="node16" class="node">
<title>course__CHEM231</title>
<g id="a_node16"><a xlink:href="../../../courses/CHEM231.html" xlink:title="CHEM231: Introduction to Organic Chemistry" target="_top">
<path fill="#d7e9ef" stroke="#1f4f66" stroke-width="1.6" d="M257.5,-1113.87C257.5,-1113.87 217.5,-1113.87 217.5,-1113.87 211.5,-1113.87 205.5,-1107.87 205.5,-1101.87 205.5,-1101.87 205.5,-1089.87 205.5,-1089.87 205.5,-1083.87 211.5,-1077.87 217.5,-1077.87 217.5,-1077.87 257.5,-1077.87 257.5,-1077.87 263.5,-1077.87 269.5,-1083.87 269.5,-1089.87 269.5,-1089.87 269.5,-1101.87 269.5,-1101.87 269.5,-1107.87 263.5,-1113.87 257.5,-1113.87"/>
<text text-anchor="middle" x="237.5" y="-1093.37" font-family="Avenir Next" font-size="10.00" fill="#17232b">CHEM231</text>
</a>
</g>
</g>
<!-- course__CHEM101&#45;&gt;course__CHEM231 -->
<g id="edge12" class="edge">
<title>course__CHEM101&#45;&gt;course__CHEM231</title>
<path fill="none" stroke="#5d6972" stroke-width="1.2" d="M107.18,-848.91C111.82,-851.82 116.21,-855.13 120,-858.87 182.87,-920.89 217.09,-1023.75 230.17,-1070.88"/>
<polygon fill="#5d6972" stroke="#5d6972" stroke-width="1.2" points="227.82,-1071.58 232.02,-1077.69 232.55,-1070.29 227.82,-1071.58"/>
</g>
<!-- course__EOS313 -->
<g id="node17" class="node">
<title>course__EOS313</title>
<g id="a_node17"><a xlink:href="../../../courses/EOS313.html" xlink:title="EOS313: Introductory Geological Oceanography" target="_top">
<path fill="#ead9b8" stroke="#8f6a3b" stroke-width="1.3" d="M252.5,-784.87C252.5,-784.87 222.5,-784.87 222.5,-784.87 216.5,-784.87 210.5,-778.87 210.5,-772.87 210.5,-772.87 210.5,-760.87 210.5,-760.87 210.5,-754.87 216.5,-748.87 222.5,-748.87 222.5,-748.87 252.5,-748.87 252.5,-748.87 258.5,-748.87 264.5,-754.87 264.5,-760.87 264.5,-760.87 264.5,-772.87 264.5,-772.87 264.5,-778.87 258.5,-784.87 252.5,-784.87"/>
<text text-anchor="middle" x="237.5" y="-764.37" font-family="Avenir Next" font-size="10.00" fill="#3f3120">EOS313</text>
</a>
</g>
</g>
<!-- course__CHEM101&#45;&gt;course__EOS313 -->
<g id="edge54" class="edge">
<title>course__CHEM101&#45;&gt;course__EOS313</title>
<path fill="none" stroke="#5d6972" stroke-width="1.2" d="M110.82,-812.71C140.59,-801.85 177.57,-788.36 203.69,-778.84"/>
<polygon fill="#5d6972" stroke="#5d6972" stroke-width="1.2" points="204.68,-781.09 210.42,-776.39 203,-776.48 204.68,-781.09"/>
</g>
<!-- course__CHEM499A -->
<g id="node3" class="node">
<title>course__CHEM499A</title>
<g id="a_node3"><a xlink:href="../../../courses/CHEM499A.html" xlink:title="CHEM499A: Honours Thesis I" target="_top">
<path fill="#dbe8d2" stroke="#567447" stroke-width="1.3" d="M83.5,-964.87C83.5,-964.87 36.5,-964.87 36.5,-964.87 30.5,-964.87 24.5,-958.87 24.5,-952.87 24.5,-952.87 24.5,-940.87 24.5,-940.87 24.5,-934.87 30.5,-928.87 36.5,-928.87 36.5,-928.87 83.5,-928.87 83.5,-928.87 89.5,-928.87 95.5,-934.87 95.5,-940.87 95.5,-940.87 95.5,-952.87 95.5,-952.87 95.5,-958.87 89.5,-964.87 83.5,-964.87"/>
<text text-anchor="middle" x="60" y="-944.37" font-family="Avenir Next" font-size="10.00" fill="#24311e">CHEM499A</text>
</a>
</g>
</g>
<!-- course__CHEM499B -->
<g id="node4" class="node">
<title>course__CHEM499B</title>
<g id="a_node4"><a xlink:href="../../../courses/CHEM499B.html" xlink:title="CHEM499B: Honours Thesis II" target="_top">
<path fill="#dbe8d2" stroke="#567447" stroke-width="1.3" d="M83.5,-1029.87C83.5,-1029.87 36.5,-1029.87 36.5,-1029.87 30.5,-1029.87 24.5,-1023.87 24.5,-1017.87 24.5,-1017.87 24.5,-1005.87 24.5,-1005.87 24.5,-999.87 30.5,-993.87 36.5,-993.87 36.5,-993.87 83.5,-993.87 83.5,-993.87 89.5,-993.87 95.5,-999.87 95.5,-1005.87 95.5,-1005.87 95.5,-1017.87 95.5,-1017.87 95.5,-1023.87 89.5,-1029.87 83.5,-1029.87"/>
<text text-anchor="middle" x="60" y="-1009.37" font-family="Avenir Next" font-size="10.00" fill="#24311e">CHEM499B</text>
</a>
</g>
</g>
<!-- course__EOS499A -->
<g id="node5" class="node">
<title>course__EOS499A</title>
<g id="a_node5"><a xlink:href="../../../courses/EOS499A.html" xlink:title="Equivalent or cross&#45;listed: EOS499A: Honours Thesis I | EOS499B: Honours Thesis II" target="_top">
<path fill="#dbe8d2" stroke="#567447" stroke-width="1.3" d="M105,-1102.87C105,-1102.87 15,-1102.87 15,-1102.87 9,-1102.87 3,-1096.87 3,-1090.87 3,-1090.87 3,-1078.87 3,-1078.87 3,-1072.87 9,-1066.87 15,-1066.87 15,-1066.87 105,-1066.87 105,-1066.87 111,-1066.87 117,-1072.87 117,-1078.87 117,-1078.87 117,-1090.87 117,-1090.87 117,-1096.87 111,-1102.87 105,-1102.87"/>
<text text-anchor="middle" x="60" y="-1082.37" font-family="Avenir Next" font-size="10.00" fill="#24311e">EOS499A / EOS499B</text>
</a>
</g>
</g>
<!-- course__MATH100 -->
<g id="node6" class="node">
<title>course__MATH100</title>
<g id="a_node6"><a xlink:href="../../../courses/MATH100.html" xlink:title="Equivalent or cross&#45;listed: MATH100: Calculus I | MATH102: Calculus for Students in the Social and Biological Sciences | MATH109: Introduction to Calculus" target="_top">
<path fill="#d7e9ef" stroke="#1f4f66" stroke-width="1.6" d="M107.5,-245.87C107.5,-245.87 12.5,-245.87 12.5,-245.87 6.5,-245.87 0.5,-239.87 0.5,-233.87 0.5,-233.87 0.5,-221.87 0.5,-221.87 0.5,-215.87 6.5,-209.87 12.5,-209.87 12.5,-209.87 107.5,-209.87 107.5,-209.87 113.5,-209.87 119.5,-215.87 119.5,-221.87 119.5,-221.87 119.5,-233.87 119.5,-233.87 119.5,-239.87 113.5,-245.87 107.5,-245.87"/>
<text text-anchor="middle" x="60" y="-230.87" font-family="Avenir Next" font-size="10.00" fill="#17232b">MATH100 / MATH102</text>
<text text-anchor="middle" x="60" y="-219.87" font-family="Avenir Next" font-size="10.00" fill="#17232b">MATH109</text>
</a>
</g>
</g>
<!-- course__MATH100&#45;&gt;course__CHEM102 -->
<g id="edge9" class="edge">
<title>course__MATH100&#45;&gt;course__CHEM102</title>
<path fill="none" stroke="#5d6972" stroke-width="1.2" d="M75.25,-246.23C89.1,-265.09 109.53,-295.87 120,-325.87 189.23,-524.35 111.2,-596.6 181,-794.87 189.67,-819.5 205.63,-844.61 218.22,-862.2"/>
<polygon fill="#5d6972" stroke="#5d6972" stroke-width="1.2" points="216.25,-863.65 222.35,-867.87 220.21,-860.77 216.25,-863.65"/>
</g>
<!-- course__MATH101 -->
<g id="node19" class="node">
<title>course__MATH101</title>
<g id="a_node19"><a xlink:href="../../../courses/MATH101.html" xlink:title="MATH101: Calculus II" target="_top">
<path fill="#d7e9ef" stroke="#1f4f66" stroke-width="1.6" d="M257,-420.87C257,-420.87 218,-420.87 218,-420.87 212,-420.87 206,-414.87 206,-408.87 206,-408.87 206,-396.87 206,-396.87 206,-390.87 212,-384.87 218,-384.87 218,-384.87 257,-384.87 257,-384.87 263,-384.87 269,-390.87 269,-396.87 269,-396.87 269,-408.87 269,-408.87 269,-414.87 263,-420.87 257,-420.87"/>
<text text-anchor="middle" x="237.5" y="-400.37" font-family="Avenir Next" font-size="10.00" fill="#17232b">MATH101</text>
</a>
</g>
</g>
<!-- course__MATH100&#45;&gt;course__MATH101 -->
<g id="edge94" class="edge">
<title>course__MATH100&#45;&gt;course__MATH101</title>
<path fill="none" stroke="#5d6972" stroke-width="1.2" d="M79.12,-245.94C111.17,-277.91 177.82,-344.36 213.23,-379.67"/>
<polygon fill="#5d6972" stroke="#5d6972" stroke-width="1.2" points="211.53,-381.43 218.22,-384.64 214.99,-377.96 211.53,-381.43"/>
</g>
<!-- course__PHYS110 -->
<g id="node20" class="node">
<title>course__PHYS110</title>
<g id="a_node20"><a xlink:href="../../../courses/PHYS110.html" xlink:title="Equivalent or cross&#45;listed: PHYS110: Introductory Physics I | PHYS120: Physics I" target="_top">
<path fill="#d7e9ef" stroke="#1f4f66" stroke-width="1.6" d="M282,-140.87C282,-140.87 193,-140.87 193,-140.87 187,-140.87 181,-134.87 181,-128.87 181,-128.87 181,-116.87 181,-116.87 181,-110.87 187,-104.87 193,-104.87 193,-104.87 282,-104.87 282,-104.87 288,-104.87 294,-110.87 294,-116.87 294,-116.87 294,-128.87 294,-128.87 294,-134.87 288,-140.87 282,-140.87"/>
<text text-anchor="middle" x="237.5" y="-120.37" font-family="Avenir Next" font-size="10.00" fill="#17232b">PHYS110 / PHYS120</text>
</a>
</g>
</g>
<!-- course__MATH100&#45;&gt;course__PHYS110 -->
<g id="edge100" class="edge">
<title>course__MATH100&#45;&gt;course__PHYS110</title>
<path fill="none" stroke="#5d6972" stroke-width="1.2" d="M87.67,-209.63C111.67,-193.49 148.11,-169.66 181,-150.87 184.81,-148.7 188.82,-146.5 192.85,-144.36"/>
<polygon fill="#5d6972" stroke="#5d6972" stroke-width="1.2" points="194.14,-146.45 199.2,-141.03 191.86,-142.11 194.14,-146.45"/>
</g>
<!-- course__CSC110 -->
<g id="node21" class="node">
<title>course__CSC110</title>
<g id="a_node21"><a xlink:href="../../../courses/CSC110.html" xlink:title="Equivalent or cross&#45;listed: CSC110: Fundamentals of Programming I | CSC111: Fundamentals of Programming with Engineering Applications" target="_top">
<path fill="#f9f9f9" stroke="#363636" d="M274.5,-196.87C274.5,-196.87 200.5,-196.87 200.5,-196.87 194.5,-196.87 188.5,-190.87 188.5,-184.87 188.5,-184.87 188.5,-172.87 188.5,-172.87 188.5,-166.87 194.5,-160.87 200.5,-160.87 200.5,-160.87 274.5,-160.87 274.5,-160.87 280.5,-160.87 286.5,-166.87 286.5,-172.87 286.5,-172.87 286.5,-184.87 286.5,-184.87 286.5,-190.87 280.5,-196.87 274.5,-196.87"/>
<text text-anchor="middle" x="237.5" y="-176.67" font-family="Avenir Next" font-size="9.00" fill="#363636">CSC110 / CSC111</text>
</a>
</g>
</g>
<!-- course__MATH100&#45;&gt;course__CSC110 -->
<g id="edge28" class="edge">
<title>course__MATH100&#45;&gt;course__CSC110</title>
<path fill="none" stroke="#5d6972" stroke-width="1.2" d="M119.93,-211.42C139.79,-205.88 161.87,-199.71 181.43,-194.25"/>
<polygon fill="#5d6972" stroke="#5d6972" stroke-width="1.2" points="182.15,-196.59 188.23,-192.35 180.83,-191.87 182.15,-196.59"/>
</g>
<!-- course__PHYS111 -->
<g id="node29" class="node">
<title>course__PHYS111</title>
<g id="a_node29"><a xlink:href="../../../courses/PHYS111.html" xlink:title="Equivalent or cross&#45;listed: PHYS111: Introductory Physics II | PHYS130: Physics II" target="_top">
<path fill="#d7e9ef" stroke="#1f4f66" stroke-width="1.6" d="M574,-231.87C574,-231.87 485,-231.87 485,-231.87 479,-231.87 473,-225.87 473,-219.87 473,-219.87 473,-207.87 473,-207.87 473,-201.87 479,-195.87 485,-195.87 485,-195.87 574,-195.87 574,-195.87 580,-195.87 586,-201.87 586,-207.87 586,-207.87 586,-219.87 586,-219.87 586,-225.87 580,-231.87 574,-231.87"/>
<text text-anchor="middle" x="529.5" y="-211.37" font-family="Avenir Next" font-size="10.00" fill="#17232b">PHYS111 / PHYS130</text>
</a>
</g>
</g>
<!-- course__MATH100&#45;&gt;course__PHYS111 -->
<g id="edge102" class="edge">
<title>course__MATH100&#45;&gt;course__PHYS111</title>
<path fill="none" stroke="#5d6972" stroke-width="1.2" d="M70.59,-209.74C87.9,-179.22 127.58,-118.63 181,-94.87 274.34,-53.37 320.37,-73.09 409,-123.87 442.54,-143.09 438.54,-163.41 470,-185.87 473.15,-188.12 476.51,-190.27 479.96,-192.31"/>
<polygon fill="#5d6972" stroke="#5d6972" stroke-width="1.2" points="478.96,-194.56 486.26,-195.85 481.36,-190.28 478.96,-194.56"/>
</g>
<!-- choice_EOS311_0_2 -->
<g id="node53" class="node">
<title>choice_EOS311_0_2</title>
<path fill="#fff7ee" stroke="#b7793f" stroke-width="1.1" d="M397,-266.87C397,-266.87 367,-266.87 367,-266.87 361,-266.87 355,-260.87 355,-254.87 355,-254.87 355,-242.87 355,-242.87 355,-236.87 361,-230.87 367,-230.87 367,-230.87 397,-230.87 397,-230.87 403,-230.87 409,-236.87 409,-242.87 409,-242.87 409,-254.87 409,-254.87 409,-260.87 403,-266.87 397,-266.87"/>
<text text-anchor="middle" x="382" y="-246.67" font-family="Avenir Next" font-size="9.00">2 of</text>
</g>
<!-- course__MATH100&#45;&gt;choice_EOS311_0_2 -->
<g id="edge40" class="edge">
<title>course__MATH100&#45;&gt;choice_EOS311_0_2</title>
<path fill="none" stroke="#7a8389" d="M119.69,-231.73C186.56,-236.11 293.52,-243.13 347.51,-246.68"/>
<polygon fill="#7a8389" stroke="#7a8389" points="347.62,-249.14 354.76,-247.15 347.94,-244.25 347.62,-249.14"/>
</g>
<!-- choice_EOS314_0_0 -->
<g id="node56" class="node">
<title>choice_EOS314_0_0</title>
<path fill="#fff7ee" stroke="#b7793f" stroke-width="1.1" d="M397,-322.87C397,-322.87 367,-322.87 367,-322.87 361,-322.87 355,-316.87 355,-310.87 355,-310.87 355,-298.87 355,-298.87 355,-292.87 361,-286.87 367,-286.87 367,-286.87 397,-286.87 397,-286.87 403,-286.87 409,-292.87 409,-298.87 409,-298.87 409,-310.87 409,-310.87 409,-316.87 403,-322.87 397,-322.87"/>
<text text-anchor="middle" x="382" y="-302.67" font-family="Avenir Next" font-size="9.00">2 of</text>
</g>
<!-- course__MATH100&#45;&gt;choice_EOS314_0_0 -->
<g id="edge55" class="edge">
<title>course__MATH100&#45;&gt;choice_EOS314_0_0</title>
<path fill="none" stroke="#7a8389" d="M119.69,-242C186.69,-258.12 293.95,-283.93 347.84,-296.89"/>
<polygon fill="#7a8389" stroke="#7a8389" points="347.38,-299.31 354.76,-298.56 348.53,-294.54 347.38,-299.31"/>
</g>
<!-- course__STAT255 -->
<g id="node7" class="node">
<title>course__STAT255</title>
<g id="a_node7"><a xlink:href="../../../courses/STAT255.html" xlink:title="STAT255: Statistics for Life Sciences I" target="_top">
<path fill="#efd8cf" stroke="#8f5945" stroke-width="1.3" d="M77,-1193.87C77,-1193.87 43,-1193.87 43,-1193.87 37,-1193.87 31,-1187.87 31,-1181.87 31,-1181.87 31,-1169.87 31,-1169.87 31,-1163.87 37,-1157.87 43,-1157.87 43,-1157.87 77,-1157.87 77,-1157.87 83,-1157.87 89,-1163.87 89,-1169.87 89,-1169.87 89,-1181.87 89,-1181.87 89,-1187.87 83,-1193.87 77,-1193.87"/>
<text text-anchor="middle" x="60" y="-1173.37" font-family="Avenir Next" font-size="10.00" fill="#3f251d">STAT255</text>
</a>
</g>
</g>
<!-- course__BIOL150A -->
<g id="node8" class="node">
<title>course__BIOL150A</title>
<g id="a_node8"><a xlink:href="../../../courses/BIOL150A.html" xlink:title="BIOL150A: Modern Biology" target="_top">
<path fill="#f9f9f9" stroke="#363636" d="M79,-1269.87C79,-1269.87 41,-1269.87 41,-1269.87 35,-1269.87 29,-1263.87 29,-1257.87 29,-1257.87 29,-1245.87 29,-1245.87 29,-1239.87 35,-1233.87 41,-1233.87 41,-1233.87 79,-1233.87 79,-1233.87 85,-1233.87 91,-1239.87 91,-1245.87 91,-1245.87 91,-1257.87 91,-1257.87 91,-1263.87 85,-1269.87 79,-1269.87"/>
<text text-anchor="middle" x="60" y="-1249.67" font-family="Avenir Next" font-size="9.00" fill="#363636">BIOL150A</text>
</a>
</g>
</g>
<!-- choice_BIOL184_0_0 -->
<g id="node47" class="node">
<title>choice_BIOL184_0_0</title>
<path fill="#fff7ee" stroke="#b7793f" stroke-width="1.1" d="M397,-1246.87C397,-1246.87 367,-1246.87 367,-1246.87 361,-1246.87 355,-1240.87 355,-1234.87 355,-1234.87 355,-1222.87 355,-1222.87 355,-1216.87 361,-1210.87 367,-1210.87 367,-1210.87 397,-1210.87 397,-1210.87 403,-1210.87 409,-1216.87 409,-1222.87 409,-1222.87 409,-1234.87 409,-1234.87 409,-1240.87 403,-1246.87 397,-1246.87"/>
<text text-anchor="middle" x="382" y="-1226.67" font-family="Avenir Next" font-size="9.00">1 of</text>
</g>
<!-- course__BIOL150A&#45;&gt;choice_BIOL184_0_0 -->
<g id="edge1" class="edge">
<title>course__BIOL150A&#45;&gt;choice_BIOL184_0_0</title>
<path fill="none" stroke="#7a8389" d="M91.1,-1249.71C151.06,-1245.4 284.97,-1235.78 347.56,-1231.28"/>
<polygon fill="#7a8389" stroke="#7a8389" points="348.02,-1233.7 354.83,-1230.76 347.67,-1228.81 348.02,-1233.7"/>
</g>
<!-- choice_BIOL186_0_0 -->
<g id="node48" class="node">
<title>choice_BIOL186_0_0</title>
<path fill="#fff7ee" stroke="#b7793f" stroke-width="1.1" d="M692,-1246.87C692,-1246.87 662,-1246.87 662,-1246.87 656,-1246.87 650,-1240.87 650,-1234.87 650,-1234.87 650,-1222.87 650,-1222.87 650,-1216.87 656,-1210.87 662,-1210.87 662,-1210.87 692,-1210.87 692,-1210.87 698,-1210.87 704,-1216.87 704,-1222.87 704,-1222.87 704,-1234.87 704,-1234.87 704,-1240.87 698,-1246.87 692,-1246.87"/>
<text text-anchor="middle" x="677" y="-1226.67" font-family="Avenir Next" font-size="9.00">1 of</text>
</g>
<!-- course__BIOL150A&#45;&gt;choice_BIOL186_0_0 -->
<g id="edge4" class="edge">
<title>course__BIOL150A&#45;&gt;choice_BIOL186_0_0</title>
<path fill="none" stroke="#7a8389" d="M91.08,-1252.74C115.35,-1253.41 150.37,-1254.32 181,-1254.87 362.31,-1258.18 409.86,-1284.99 589,-1256.87 607.38,-1253.99 627.17,-1247.87 643.23,-1242.09"/>
<polygon fill="#7a8389" stroke="#7a8389" points="644.15,-1244.36 649.87,-1239.64 642.45,-1239.77 644.15,-1244.36"/>
</g>
<!-- course__EOS110 -->
<g id="node9" class="node">
<title>course__EOS110</title>
<g id="a_node9"><a xlink:href="../../../courses/EOS110.html" xlink:title="Equivalent or cross&#45;listed: EOS110: Oceans and Atmosphere | EOS350: Understanding the Oceans" target="_top">
<path fill="#f9f9f9" stroke="#363636" d="M97.5,-644.87C97.5,-644.87 22.5,-644.87 22.5,-644.87 16.5,-644.87 10.5,-638.87 10.5,-632.87 10.5,-632.87 10.5,-620.87 10.5,-620.87 10.5,-614.87 16.5,-608.87 22.5,-608.87 22.5,-608.87 97.5,-608.87 97.5,-608.87 103.5,-608.87 109.5,-614.87 109.5,-620.87 109.5,-620.87 109.5,-632.87 109.5,-632.87 109.5,-638.87 103.5,-644.87 97.5,-644.87"/>
<text text-anchor="middle" x="60" y="-624.67" font-family="Avenir Next" font-size="9.00" fill="#363636">EOS110 / EOS350</text>
</a>
</g>
</g>
<!-- course__EOS230 -->
<g id="node22" class="node">
<title>course__EOS230</title>
<g id="a_node22"><a xlink:href="../../../courses/EOS230.html" xlink:title="Equivalent or cross&#45;listed: EOS230: Introduction to Environmental Data Analysis | GEOG230: Introduction to Environmental Data Analysis" target="_top">
<path fill="#f9f9f9" stroke="#363636" d="M279,-644.87C279,-644.87 196,-644.87 196,-644.87 190,-644.87 184,-638.87 184,-632.87 184,-632.87 184,-620.87 184,-620.87 184,-614.87 190,-608.87 196,-608.87 196,-608.87 279,-608.87 279,-608.87 285,-608.87 291,-614.87 291,-620.87 291,-620.87 291,-632.87 291,-632.87 291,-638.87 285,-644.87 279,-644.87"/>
<text text-anchor="middle" x="237.5" y="-624.67" font-family="Avenir Next" font-size="9.00" fill="#363636">EOS230 / GEOG230</text>
</a>
</g>
</g>
<!-- course__EOS110&#45;&gt;course__EOS230 -->
<g id="edge31" class="edge">
<title>course__EOS110&#45;&gt;course__EOS230</title>
<path fill="none" stroke="#5d6972" stroke-width="1.2" d="M109.89,-626.87C130.57,-626.87 154.87,-626.87 176.61,-626.87"/>
<polygon fill="#5d6972" stroke="#5d6972" stroke-width="1.2" points="176.88,-629.32 183.88,-626.87 176.88,-624.42 176.88,-629.32"/>
</g>
<!-- course__EOS261 -->
<g id="node41" class="node">
<title>course__EOS261</title>
<g id="a_node41"><a xlink:href="../../../courses/EOS261.html" xlink:title="EOS261: The Climate System" target="_top">
<path fill="#f9f9f9" stroke="#363636" d="M840,-553.87C840,-553.87 810,-553.87 810,-553.87 804,-553.87 798,-547.87 798,-541.87 798,-541.87 798,-529.87 798,-529.87 798,-523.87 804,-517.87 810,-517.87 810,-517.87 840,-517.87 840,-517.87 846,-517.87 852,-523.87 852,-529.87 852,-529.87 852,-541.87 852,-541.87 852,-547.87 846,-553.87 840,-553.87"/>
<text text-anchor="middle" x="825" y="-533.67" font-family="Avenir Next" font-size="9.00" fill="#363636">EOS261</text>
</a>
</g>
</g>
<!-- course__EOS110&#45;&gt;course__EOS261 -->
<g id="edge36" class="edge">
<title>course__EOS110&#45;&gt;course__EOS261</title>
<path fill="none" stroke="#5d6972" stroke-width="1.2" d="M109.74,-613.92C131.43,-608.56 157.35,-602.72 181,-598.87 411.43,-561.37 471.82,-574.29 704,-549.87 733.3,-546.79 766.58,-542.88 790.64,-539.97"/>
<polygon fill="#5d6972" stroke="#5d6972" stroke-width="1.2" points="791.15,-542.38 797.8,-539.1 790.56,-537.51 791.15,-542.38"/>
</g>
<!-- choice_EOS312_0_0 -->
<g id="node55" class="node">
<title>choice_EOS312_0_0</title>
<path fill="#fff7ee" stroke="#b7793f" stroke-width="1.1" d="M1501,-476.87C1501,-476.87 1471,-476.87 1471,-476.87 1465,-476.87 1459,-470.87 1459,-464.87 1459,-464.87 1459,-452.87 1459,-452.87 1459,-446.87 1465,-440.87 1471,-440.87 1471,-440.87 1501,-440.87 1501,-440.87 1507,-440.87 1513,-446.87 1513,-452.87 1513,-452.87 1513,-464.87 1513,-464.87 1513,-470.87 1507,-476.87 1501,-476.87"/>
<text text-anchor="middle" x="1486" y="-456.67" font-family="Avenir Next" font-size="9.00">1 of</text>
</g>
<!-- course__EOS110&#45;&gt;choice_EOS312_0_0 -->
<g id="edge48" class="edge">
<title>course__EOS110&#45;&gt;choice_EOS312_0_0</title>
<path fill="none" stroke="#7a8389" d="M109.85,-643.8C229.85,-683.8 549.34,-780.87 824,-780.87 824,-780.87 824,-780.87 1204,-780.87 1361.41,-780.87 1450.91,-559.72 1476.95,-483.97"/>
<polygon fill="#7a8389" stroke="#7a8389" points="1479.35,-484.53 1479.27,-477.11 1474.71,-482.95 1479.35,-484.53"/>
</g>
<!-- course__EOS120 -->
<g id="node10" class="node">
<title>course__EOS120</title>
<g id="a_node10"><a xlink:href="../../../courses/EOS120.html" xlink:title="EOS120: The Dynamic Earth" target="_top">
<path fill="#f9f9f9" stroke="#363636" d="M75,-784.87C75,-784.87 45,-784.87 45,-784.87 39,-784.87 33,-778.87 33,-772.87 33,-772.87 33,-760.87 33,-760.87 33,-754.87 39,-748.87 45,-748.87 45,-748.87 75,-748.87 75,-748.87 81,-748.87 87,-754.87 87,-760.87 87,-760.87 87,-772.87 87,-772.87 87,-778.87 81,-784.87 75,-784.87"/>
<text text-anchor="middle" x="60" y="-764.67" font-family="Avenir Next" font-size="9.00" fill="#363636">EOS120</text>
</a>
</g>
</g>
<!-- course__EOS120&#45;&gt;course__EOS313 -->
<g id="edge53" class="edge">
<title>course__EOS120&#45;&gt;course__EOS313</title>
<path fill="none" stroke="#5d6972" stroke-width="1.2" d="M87.27,-766.87C118.12,-766.87 169.34,-766.87 203.01,-766.87"/>
<polygon fill="#5d6972" stroke="#5d6972" stroke-width="1.2" points="203.33,-769.32 210.33,-766.87 203.33,-764.42 203.33,-769.32"/>
</g>
<!-- course__EOS335 -->
<g id="node11" class="node">
<title>course__EOS335</title>
<g id="a_node11"><a xlink:href="../../../courses/EOS335.html" xlink:title="EOS335: Isotopes in Natural Sciences" target="_top">
<path fill="#f9f9f9" stroke="#363636" d="M75,-1344.87C75,-1344.87 45,-1344.87 45,-1344.87 39,-1344.87 33,-1338.87 33,-1332.87 33,-1332.87 33,-1320.87 33,-1320.87 33,-1314.87 39,-1308.87 45,-1308.87 45,-1308.87 75,-1308.87 75,-1308.87 81,-1308.87 87,-1314.87 87,-1320.87 87,-1320.87 87,-1332.87 87,-1332.87 87,-1338.87 81,-1344.87 75,-1344.87"/>
<text text-anchor="middle" x="60" y="-1324.67" font-family="Avenir Next" font-size="9.00" fill="#363636">EOS335</text>
</a>
</g>
</g>
<!-- course__EOS425 -->
<g id="node18" class="node">
<title>course__EOS425</title>
<g id="a_node18"><a xlink:href="../../../courses/EOS425.html" xlink:title="EOS425: Aqueous Chemistry in the Earth and Ocean" target="_top">
<path fill="#d7e9ef" stroke="#1f4f66" stroke-width="1.6" d="M252.5,-1344.87C252.5,-1344.87 222.5,-1344.87 222.5,-1344.87 216.5,-1344.87 210.5,-1338.87 210.5,-1332.87 210.5,-1332.87 210.5,-1320.87 210.5,-1320.87 210.5,-1314.87 216.5,-1308.87 222.5,-1308.87 222.5,-1308.87 252.5,-1308.87 252.5,-1308.87 258.5,-1308.87 264.5,-1314.87 264.5,-1320.87 264.5,-1320.87 264.5,-1332.87 264.5,-1332.87 264.5,-1338.87 258.5,-1344.87 252.5,-1344.87"/>
<text text-anchor="middle" x="237.5" y="-1324.37" font-family="Avenir Next" font-size="10.00" fill="#17232b">EOS425</text>
</a>
</g>
</g>
<!-- course__EOS335&#45;&gt;course__EOS425 -->
<g id="edge87" class="edge">
<title>course__EOS335&#45;&gt;course__EOS425</title>
<path fill="none" stroke="#5d6972" stroke-width="1.2" d="M87.27,-1326.87C118.12,-1326.87 169.34,-1326.87 203.01,-1326.87"/>
<polygon fill="#5d6972" stroke="#5d6972" stroke-width="1.2" points="203.33,-1329.32 210.33,-1326.87 203.33,-1324.42 203.33,-1329.32"/>
</g>
<!-- course__MATH151 -->
<g id="node12" class="node">
<title>course__MATH151</title>
<g id="a_node12"><a xlink:href="../../../courses/MATH151.html" xlink:title="MATH151: Finite Mathematics" target="_top">
<path fill="#f9f9f9" stroke="#363636" d="M77.5,-371.87C77.5,-371.87 42.5,-371.87 42.5,-371.87 36.5,-371.87 30.5,-365.87 30.5,-359.87 30.5,-359.87 30.5,-347.87 30.5,-347.87 30.5,-341.87 36.5,-335.87 42.5,-335.87 42.5,-335.87 77.5,-335.87 77.5,-335.87 83.5,-335.87 89.5,-341.87 89.5,-347.87 89.5,-347.87 89.5,-359.87 89.5,-359.87 89.5,-365.87 83.5,-371.87 77.5,-371.87"/>
<text text-anchor="middle" x="60" y="-351.67" font-family="Avenir Next" font-size="9.00" fill="#363636">MATH151</text>
</a>
</g>
</g>
<!-- choice_EOS261_0_4 -->
<g id="node52" class="node">
<title>choice_EOS261_0_4</title>
<path fill="#fff7ee" stroke="#b7793f" stroke-width="1.1" d="M397,-546.87C397,-546.87 367,-546.87 367,-546.87 361,-546.87 355,-540.87 355,-534.87 355,-534.87 355,-522.87 355,-522.87 355,-516.87 361,-510.87 367,-510.87 367,-510.87 397,-510.87 397,-510.87 403,-510.87 409,-516.87 409,-522.87 409,-522.87 409,-534.87 409,-534.87 409,-540.87 403,-546.87 397,-546.87"/>
<text text-anchor="middle" x="382" y="-526.67" font-family="Avenir Next" font-size="9.00">1 of</text>
</g>
<!-- course__MATH151&#45;&gt;choice_EOS261_0_4 -->
<g id="edge35" class="edge">
<title>course__MATH151&#45;&gt;choice_EOS261_0_4</title>
<path fill="none" stroke="#7a8389" d="M87.15,-371.89C111.11,-388.1 147.79,-412.16 181,-430.87 238.48,-463.26 308.19,-496.01 348.29,-514.25"/>
<polygon fill="#7a8389" stroke="#7a8389" points="347.55,-516.61 354.94,-517.27 349.58,-512.15 347.55,-516.61"/>
</g>
<!-- course__MATH151&#45;&gt;choice_EOS311_0_2 -->
<g id="edge42" class="edge">
<title>course__MATH151&#45;&gt;choice_EOS311_0_2</title>
<path fill="none" stroke="#7a8389" d="M89.68,-344.46C149.06,-324.98 285.16,-280.32 348.04,-259.69"/>
<polygon fill="#7a8389" stroke="#7a8389" points="349.09,-261.92 354.98,-257.41 347.56,-257.27 349.09,-261.92"/>
</g>
<!-- course__MATH151&#45;&gt;choice_EOS314_0_0 -->
<g id="edge57" class="edge">
<title>course__MATH151&#45;&gt;choice_EOS314_0_0</title>
<path fill="none" stroke="#7a8389" d="M89.53,-352.05C133.66,-348.93 220.98,-341.52 294,-327.87 311.98,-324.51 331.71,-319.42 347.83,-314.87"/>
<polygon fill="#7a8389" stroke="#7a8389" points="348.9,-317.11 354.96,-312.83 347.56,-312.4 348.9,-317.11"/>
</g>
<!-- course__PHYS102A -->
<g id="node13" class="node">
<title>course__PHYS102A</title>
<g id="a_node13"><a xlink:href="../../../courses/PHYS102A.html" xlink:title="PHYS102A: General Physics I" target="_top">
<path fill="#f9f9f9" stroke="#363636" d="M80,-42.87C80,-42.87 40,-42.87 40,-42.87 34,-42.87 28,-36.87 28,-30.87 28,-30.87 28,-18.87 28,-18.87 28,-12.87 34,-6.87 40,-6.87 40,-6.87 80,-6.87 80,-6.87 86,-6.87 92,-12.87 92,-18.87 92,-18.87 92,-30.87 92,-30.87 92,-36.87 86,-42.87 80,-42.87"/>
<text text-anchor="middle" x="60" y="-22.67" font-family="Avenir Next" font-size="9.00" fill="#363636">PHYS102A</text>
</a>
</g>
</g>
<!-- choice_PHYS102B_0 -->
<g id="node67" class="node">
<title>choice_PHYS102B_0</title>
<path fill="#fff7ee" stroke="#b7793f" stroke-width="1.1" d="M397,-42.87C397,-42.87 367,-42.87 367,-42.87 361,-42.87 355,-36.87 355,-30.87 355,-30.87 355,-18.87 355,-18.87 355,-12.87 361,-6.87 367,-6.87 367,-6.87 397,-6.87 397,-6.87 403,-6.87 409,-12.87 409,-18.87 409,-18.87 409,-30.87 409,-30.87 409,-36.87 403,-42.87 397,-42.87"/>
<text text-anchor="middle" x="382" y="-22.67" font-family="Avenir Next" font-size="9.00">1 of</text>
</g>
<!-- course__PHYS102A&#45;&gt;choice_PHYS102B_0 -->
<g id="edge97" class="edge">
<title>course__PHYS102A&#45;&gt;choice_PHYS102B_0</title>
<path fill="none" stroke="#7a8389" d="M92.27,-24.87C152.71,-24.87 285.13,-24.87 347.39,-24.87"/>
<polygon fill="#7a8389" stroke="#7a8389" points="347.63,-27.32 354.63,-24.87 347.63,-22.42 347.63,-27.32"/>
</g>
<!-- course__BIOL186 -->
<g id="node14" class="node">
<title>course__BIOL186</title>
<g id="a_node14"><a xlink:href="../../../courses/BIOL186.html" xlink:title="BIOL186: Physiology and Cell Biology" target="_top">
<path fill="#d7e9ef" stroke="#1f4f66" stroke-width="1.6" d="M254,-1199.87C254,-1199.87 221,-1199.87 221,-1199.87 215,-1199.87 209,-1193.87 209,-1187.87 209,-1187.87 209,-1175.87 209,-1175.87 209,-1169.87 215,-1163.87 221,-1163.87 221,-1163.87 254,-1163.87 254,-1163.87 260,-1163.87 266,-1169.87 266,-1175.87 266,-1175.87 266,-1187.87 266,-1187.87 266,-1193.87 260,-1199.87 254,-1199.87"/>
<text text-anchor="middle" x="237.5" y="-1179.37" font-family="Avenir Next" font-size="10.00" fill="#17232b">BIOL186</text>
</a>
</g>
</g>
<!-- course__BIOL186&#45;&gt;choice_BIOL184_0_0 -->
<g id="edge2" class="edge">
<title>course__BIOL186&#45;&gt;choice_BIOL184_0_0</title>
<path fill="none" stroke="#7a8389" d="M266.31,-1191.05C289.71,-1198.76 323.21,-1209.81 347.96,-1217.98"/>
<polygon fill="#7a8389" stroke="#7a8389" points="347.28,-1220.33 354.7,-1220.2 348.82,-1215.68 347.28,-1220.33"/>
</g>
<!-- course__CHEM212 -->
<g id="node23" class="node">
<title>course__CHEM212</title>
<g id="a_node23"><a xlink:href="../../../courses/CHEM212.html" xlink:title="CHEM212: Introduction to Quantitative Analysis" target="_top">
<path fill="#d7e9ef" stroke="#1f4f66" stroke-width="1.6" d="M549.5,-1015.87C549.5,-1015.87 509.5,-1015.87 509.5,-1015.87 503.5,-1015.87 497.5,-1009.87 497.5,-1003.87 497.5,-1003.87 497.5,-991.87 497.5,-991.87 497.5,-985.87 503.5,-979.87 509.5,-979.87 509.5,-979.87 549.5,-979.87 549.5,-979.87 555.5,-979.87 561.5,-985.87 561.5,-991.87 561.5,-991.87 561.5,-1003.87 561.5,-1003.87 561.5,-1009.87 555.5,-1015.87 549.5,-1015.87"/>
<text text-anchor="middle" x="529.5" y="-995.37" font-family="Avenir Next" font-size="10.00" fill="#17232b">CHEM212</text>
</a>
</g>
</g>
<!-- course__CHEM102&#45;&gt;course__CHEM212 -->
<g id="edge10" class="edge">
<title>course__CHEM102&#45;&gt;course__CHEM212</title>
<path fill="none" stroke="#5d6972" stroke-width="1.2" d="M269.54,-897.86C323.03,-918.52 432.44,-960.77 490.44,-983.17"/>
<polygon fill="#5d6972" stroke="#5d6972" stroke-width="1.2" points="489.84,-985.57 497.25,-985.81 491.6,-981 489.84,-985.57"/>
</g>
<!-- course__CHEM225 -->
<g id="node24" class="node">
<title>course__CHEM225</title>
<g id="a_node24"><a xlink:href="../../../courses/CHEM225.html" xlink:title="CHEM225: Introduction to Inorganic Chemistry" target="_top">
<path fill="#d7e9ef" stroke="#1f4f66" stroke-width="1.6" d="M549.5,-959.87C549.5,-959.87 509.5,-959.87 509.5,-959.87 503.5,-959.87 497.5,-953.87 497.5,-947.87 497.5,-947.87 497.5,-935.87 497.5,-935.87 497.5,-929.87 503.5,-923.87 509.5,-923.87 509.5,-923.87 549.5,-923.87 549.5,-923.87 555.5,-923.87 561.5,-929.87 561.5,-935.87 561.5,-935.87 561.5,-947.87 561.5,-947.87 561.5,-953.87 555.5,-959.87 549.5,-959.87"/>
<text text-anchor="middle" x="529.5" y="-939.37" font-family="Avenir Next" font-size="10.00" fill="#17232b">CHEM225</text>
</a>
</g>
</g>
<!-- course__CHEM102&#45;&gt;course__CHEM225 -->
<g id="edge11" class="edge">
<title>course__CHEM102&#45;&gt;course__CHEM225</title>
<path fill="none" stroke="#5d6972" stroke-width="1.2" d="M269.54,-891.87C322.92,-902.18 431.99,-923.24 490.08,-934.46"/>
<polygon fill="#5d6972" stroke="#5d6972" stroke-width="1.2" points="489.91,-936.92 497.25,-935.84 490.84,-932.11 489.91,-936.92"/>
</g>
<!-- course__CHEM234 -->
<g id="node25" class="node">
<title>course__CHEM234</title>
<g id="a_node25"><a xlink:href="../../../courses/CHEM234.html" xlink:title="CHEM234: Organic Chemistry with Biological Applications" target="_top">
<path fill="#d7e9ef" stroke="#1f4f66" stroke-width="1.6" d="M549.5,-1133.87C549.5,-1133.87 509.5,-1133.87 509.5,-1133.87 503.5,-1133.87 497.5,-1127.87 497.5,-1121.87 497.5,-1121.87 497.5,-1109.87 497.5,-1109.87 497.5,-1103.87 503.5,-1097.87 509.5,-1097.87 509.5,-1097.87 549.5,-1097.87 549.5,-1097.87 555.5,-1097.87 561.5,-1103.87 561.5,-1109.87 561.5,-1109.87 561.5,-1121.87 561.5,-1121.87 561.5,-1127.87 555.5,-1133.87 549.5,-1133.87"/>
<text text-anchor="middle" x="529.5" y="-1113.37" font-family="Avenir Next" font-size="10.00" fill="#17232b">CHEM234</text>
</a>
</g>
</g>
<!-- course__CHEM102&#45;&gt;course__CHEM234 -->
<g id="edge13" class="edge">
<title>course__CHEM102&#45;&gt;course__CHEM234</title>
<path fill="none" stroke="#5d6972" stroke-width="1.2" d="M255.73,-903.93C292.42,-941.67 382.17,-1030.19 470,-1087.87 476.49,-1092.13 483.72,-1096.13 490.82,-1099.69"/>
<polygon fill="#5d6972" stroke="#5d6972" stroke-width="1.2" points="489.93,-1101.98 497.29,-1102.84 492.07,-1097.57 489.93,-1101.98"/>
</g>
<!-- course__CHEM245 -->
<g id="node26" class="node">
<title>course__CHEM245</title>
<g id="a_node26"><a xlink:href="../../../courses/CHEM245.html" xlink:title="CHEM245: Introduction to Thermodynamics" target="_top">
<path fill="#d7e9ef" stroke="#1f4f66" stroke-width="1.6" d="M549.5,-903.87C549.5,-903.87 509.5,-903.87 509.5,-903.87 503.5,-903.87 497.5,-897.87 497.5,-891.87 497.5,-891.87 497.5,-879.87 497.5,-879.87 497.5,-873.87 503.5,-867.87 509.5,-867.87 509.5,-867.87 549.5,-867.87 549.5,-867.87 555.5,-867.87 561.5,-873.87 561.5,-879.87 561.5,-879.87 561.5,-891.87 561.5,-891.87 561.5,-897.87 555.5,-903.87 549.5,-903.87"/>
<text text-anchor="middle" x="529.5" y="-883.37" font-family="Avenir Next" font-size="10.00" fill="#17232b">CHEM245</text>
</a>
</g>
</g>
<!-- course__CHEM102&#45;&gt;course__CHEM245 -->
<g id="edge15" class="edge">
<title>course__CHEM102&#45;&gt;course__CHEM245</title>
<path fill="none" stroke="#5d6972" stroke-width="1.2" d="M269.54,-885.87C322.92,-885.87 431.99,-885.87 490.08,-885.87"/>
<polygon fill="#5d6972" stroke="#5d6972" stroke-width="1.2" points="490.25,-888.32 497.25,-885.87 490.25,-883.42 490.25,-888.32"/>
</g>
<!-- course__CHEM260 -->
<g id="node27" class="node">
<title>course__CHEM260</title>
<g id="a_node27"><a xlink:href="../../../courses/CHEM260.html" xlink:title="CHEM260: Synthetic Chemistry Laboratory" target="_top">
<path fill="#d7e9ef" stroke="#1f4f66" stroke-width="1.6" d="M549.5,-1077.87C549.5,-1077.87 509.5,-1077.87 509.5,-1077.87 503.5,-1077.87 497.5,-1071.87 497.5,-1065.87 497.5,-1065.87 497.5,-1053.87 497.5,-1053.87 497.5,-1047.87 503.5,-1041.87 509.5,-1041.87 509.5,-1041.87 549.5,-1041.87 549.5,-1041.87 555.5,-1041.87 561.5,-1047.87 561.5,-1053.87 561.5,-1053.87 561.5,-1065.87 561.5,-1065.87 561.5,-1071.87 555.5,-1077.87 549.5,-1077.87"/>
<text text-anchor="middle" x="529.5" y="-1057.37" font-family="Avenir Next" font-size="10.00" fill="#17232b">CHEM260</text>
</a>
</g>
</g>
<!-- course__CHEM102&#45;&gt;course__CHEM260 -->
<g id="edge16" class="edge">
<title>course__CHEM102&#45;&gt;course__CHEM260</title>
<path fill="none" stroke="#5d6972" stroke-width="1.2" d="M268,-903.94C311.9,-930.77 397.08,-982.64 470,-1025.87 476.81,-1029.91 484.08,-1034.18 491.11,-1038.27"/>
<polygon fill="#5d6972" stroke="#5d6972" stroke-width="1.2" points="490.19,-1040.57 497.47,-1041.98 492.66,-1036.34 490.19,-1040.57"/>
</g>
<!-- course__EOS311 -->
<g id="node38" class="node">
<title>course__EOS311</title>
<g id="a_node38"><a xlink:href="../../../courses/EOS311.html" xlink:title="Equivalent or cross&#45;listed: BIOL311: Biological Oceanography | EOS311: Biological Oceanography" target="_top">
<path fill="#ead9b8" stroke="#8f6a3b" stroke-width="1.3" d="M865,-66.87C865,-66.87 785,-66.87 785,-66.87 779,-66.87 773,-60.87 773,-54.87 773,-54.87 773,-42.87 773,-42.87 773,-36.87 779,-30.87 785,-30.87 785,-30.87 865,-30.87 865,-30.87 871,-30.87 877,-36.87 877,-42.87 877,-42.87 877,-54.87 877,-54.87 877,-60.87 871,-66.87 865,-66.87"/>
<text text-anchor="middle" x="825" y="-46.37" font-family="Avenir Next" font-size="10.00" fill="#3f3120">BIOL311 / EOS311</text>
</a>
</g>
</g>
<!-- course__CHEM102&#45;&gt;course__EOS311 -->
<g id="edge45" class="edge">
<title>course__CHEM102&#45;&gt;course__EOS311</title>
<path fill="none" stroke="#5d6972" stroke-width="1.2" d="M251.05,-867.63C283.5,-819.43 370.34,-683.64 409,-556.87 464.92,-373.51 355.82,-283.86 470,-129.87 537.25,-39.17 683.66,-35.74 765.56,-41.86"/>
<polygon fill="#5d6972" stroke="#5d6972" stroke-width="1.2" points="765.62,-44.32 772.8,-42.43 766.01,-39.43 765.62,-44.32"/>
</g>
<!-- course__CHEM102&#45;&gt;course__EOS261 -->
<g id="edge37" class="edge">
<title>course__CHEM102&#45;&gt;course__EOS261</title>
<path fill="none" stroke="#5d6972" stroke-width="1.2" d="M259.16,-867.83C291.43,-839.58 355.61,-783.03 409,-733.87 436.52,-708.53 438.34,-695.8 470,-675.87 564.16,-616.6 600.78,-628.42 704,-586.87 733.75,-574.9 767.33,-560.56 791.38,-550.14"/>
<polygon fill="#5d6972" stroke="#5d6972" stroke-width="1.2" points="792.46,-552.34 797.9,-547.31 790.51,-547.85 792.46,-552.34"/>
</g>
<!-- course__EOS312 -->
<g id="node45" class="node">
<title>course__EOS312</title>
<g id="a_node45"><a xlink:href="../../../courses/EOS312.html" xlink:title="EOS312: Introductory Chemical Oceanography" target="_top">
<path fill="#d7e9ef" stroke="#1f4f66" stroke-width="1.6" d="M1616,-476.87C1616,-476.87 1586,-476.87 1586,-476.87 1580,-476.87 1574,-470.87 1574,-464.87 1574,-464.87 1574,-452.87 1574,-452.87 1574,-446.87 1580,-440.87 1586,-440.87 1586,-440.87 1616,-440.87 1616,-440.87 1622,-440.87 1628,-446.87 1628,-452.87 1628,-452.87 1628,-464.87 1628,-464.87 1628,-470.87 1622,-476.87 1616,-476.87"/>
<text text-anchor="middle" x="1601" y="-456.37" font-family="Avenir Next" font-size="10.00" fill="#17232b">EOS312</text>
</a>
</g>
</g>
<!-- course__CHEM102&#45;&gt;course__EOS312 -->
<g id="edge52" class="edge">
<title>course__CHEM102&#45;&gt;course__EOS312</title>
<path fill="none" stroke="#5d6972" stroke-width="1.2" d="M269.79,-880.12C357.12,-864.56 611.09,-822.87 824,-822.87 824,-822.87 824,-822.87 1345.5,-822.87 1511.29,-822.87 1578.12,-566.11 1595.27,-483.88"/>
<polygon fill="#5d6972" stroke="#5d6972" stroke-width="1.2" points="1597.69,-484.27 1596.69,-476.93 1592.89,-483.29 1597.69,-484.27"/>
</g>
<!-- course__CHEM231&#45;&gt;course__CHEM234 -->
<g id="edge14" class="edge">
<title>course__CHEM231&#45;&gt;course__CHEM234</title>
<path fill="none" stroke="#5d6972" stroke-width="1.2" d="M269.55,-1101.11C292.96,-1104.83 325.9,-1109.55 355,-1111.87 401.41,-1115.58 455,-1116.27 490.19,-1116.24"/>
<polygon fill="#5d6972" stroke="#5d6972" stroke-width="1.2" points="490.42,-1118.69 497.42,-1116.22 490.41,-1113.79 490.42,-1118.69"/>
</g>
<!-- course__CHEM231&#45;&gt;course__CHEM260 -->
<g id="edge17" class="edge">
<title>course__CHEM231&#45;&gt;course__CHEM260</title>
<path fill="none" stroke="#5d6972" stroke-width="1.2" d="M269.54,-1092.02C322.92,-1085.39 431.99,-1071.85 490.08,-1064.64"/>
<polygon fill="#5d6972" stroke="#5d6972" stroke-width="1.2" points="490.6,-1067.05 497.25,-1063.75 490,-1062.18 490.6,-1067.05"/>
</g>
<!-- choice_EOS401_0 -->
<g id="node64" class="node">
<title>choice_EOS401_0</title>
<path fill="#fff7ee" stroke="#b7793f" stroke-width="1.1" d="M1731,-449.87C1731,-449.87 1701,-449.87 1701,-449.87 1695,-449.87 1689,-443.87 1689,-437.87 1689,-437.87 1689,-425.87 1689,-425.87 1689,-419.87 1695,-413.87 1701,-413.87 1701,-413.87 1731,-413.87 1731,-413.87 1737,-413.87 1743,-419.87 1743,-425.87 1743,-425.87 1743,-437.87 1743,-437.87 1743,-443.87 1737,-449.87 1731,-449.87"/>
<text text-anchor="middle" x="1716" y="-429.67" font-family="Avenir Next" font-size="9.00">3 of</text>
</g>
<!-- course__EOS313&#45;&gt;choice_EOS401_0 -->
<g id="edge84" class="edge">
<title>course__EOS313&#45;&gt;choice_EOS401_0</title>
<path fill="none" stroke="#7a8389" d="M264.5,-774.4C346.14,-797.35 604.99,-864.87 824,-864.87 824,-864.87 824,-864.87 1487,-864.87 1672.7,-864.87 1707.51,-549.21 1713.71,-456.92"/>
<polygon fill="#7a8389" stroke="#7a8389" points="1716.16,-457.07 1714.16,-449.93 1711.27,-456.76 1716.16,-457.07"/>
</g>
<!-- course__MATH200 -->
<g id="node28" class="node">
<title>course__MATH200</title>
<g id="a_node28"><a xlink:href="../../../courses/MATH200.html" xlink:title="Equivalent or cross&#45;listed: MATH200: Calculus III | MATH202: Intermediate Calculus for CSC and EOS" target="_top">
<path fill="#d7e9ef" stroke="#1f4f66" stroke-width="1.6" d="M577,-721.87C577,-721.87 482,-721.87 482,-721.87 476,-721.87 470,-715.87 470,-709.87 470,-709.87 470,-697.87 470,-697.87 470,-691.87 476,-685.87 482,-685.87 482,-685.87 577,-685.87 577,-685.87 583,-685.87 589,-691.87 589,-697.87 589,-697.87 589,-709.87 589,-709.87 589,-715.87 583,-721.87 577,-721.87"/>
<text text-anchor="middle" x="529.5" y="-701.37" font-family="Avenir Next" font-size="10.00" fill="#17232b">MATH200 / MATH202</text>
</a>
</g>
</g>
<!-- course__MATH101&#45;&gt;course__MATH200 -->
<g id="edge95" class="edge">
<title>course__MATH101&#45;&gt;course__MATH200</title>
<path fill="none" stroke="#5d6972" stroke-width="1.2" d="M269.07,-414.15C306.15,-429.11 368.67,-458.66 409,-500.87 461.6,-555.95 500.91,-638.32 518.43,-679.13"/>
<polygon fill="#5d6972" stroke="#5d6972" stroke-width="1.2" points="516.26,-680.29 521.25,-685.78 520.77,-678.38 516.26,-680.29"/>
</g>
<!-- course__MATH101&#45;&gt;course__PHYS111 -->
<g id="edge103" class="edge">
<title>course__MATH101&#45;&gt;course__PHYS111</title>
<path fill="none" stroke="#5d6972" stroke-width="1.2" d="M269.22,-394.29C304.79,-383.47 364.22,-362.62 409,-332.87 449.36,-306.06 487.47,-264.19 509.38,-237.93"/>
<polygon fill="#5d6972" stroke="#5d6972" stroke-width="1.2" points="511.5,-239.21 514.07,-232.25 507.72,-236.09 511.5,-239.21"/>
</g>
<!-- course__STAT254 -->
<g id="node30" class="node">
<title>course__STAT254</title>
<g id="a_node30"><a xlink:href="../../../courses/STAT254.html" xlink:title="Equivalent or cross&#45;listed: STAT254: Probability and Statistics for Engineers | STAT260: Introduction to Probability and Statistics I" target="_top">
<path fill="#efd8cf" stroke="#8f5945" stroke-width="1.3" d="M571.5,-497.87C571.5,-497.87 487.5,-497.87 487.5,-497.87 481.5,-497.87 475.5,-491.87 475.5,-485.87 475.5,-485.87 475.5,-473.87 475.5,-473.87 475.5,-467.87 481.5,-461.87 487.5,-461.87 487.5,-461.87 571.5,-461.87 571.5,-461.87 577.5,-461.87 583.5,-467.87 583.5,-473.87 583.5,-473.87 583.5,-485.87 583.5,-485.87 583.5,-491.87 577.5,-497.87 571.5,-497.87"/>
<text text-anchor="middle" x="529.5" y="-477.37" font-family="Avenir Next" font-size="10.00" fill="#3f251d">STAT254 / STAT260</text>
</a>
</g>
</g>
<!-- course__MATH101&#45;&gt;course__STAT254 -->
<g id="edge105" class="edge">
<title>course__MATH101&#45;&gt;course__STAT254</title>
<path fill="none" stroke="#5d6972" stroke-width="1.2" d="M269.26,-411.04C316.49,-423.58 407.77,-447.82 468.42,-463.92"/>
<polygon fill="#5d6972" stroke="#5d6972" stroke-width="1.2" points="467.9,-466.32 475.29,-465.75 469.16,-461.58 467.9,-466.32"/>
</g>
<!-- course__EOS210 -->
<g id="node32" class="node">
<title>course__EOS210</title>
<g id="a_node32"><a xlink:href="../../../courses/EOS210.html" xlink:title="Equivalent or cross&#45;listed: EOS210: Introductory Geophysics | PHYS210: Introductory Geophysics" target="_top">
<path fill="#f9f9f9" stroke="#363636" d="M569.5,-441.87C569.5,-441.87 489.5,-441.87 489.5,-441.87 483.5,-441.87 477.5,-435.87 477.5,-429.87 477.5,-429.87 477.5,-417.87 477.5,-417.87 477.5,-411.87 483.5,-405.87 489.5,-405.87 489.5,-405.87 569.5,-405.87 569.5,-405.87 575.5,-405.87 581.5,-411.87 581.5,-417.87 581.5,-417.87 581.5,-429.87 581.5,-429.87 581.5,-435.87 575.5,-441.87 569.5,-441.87"/>
<text text-anchor="middle" x="529.5" y="-421.67" font-family="Avenir Next" font-size="9.00" fill="#363636">EOS210 / PHYS210</text>
</a>
</g>
</g>
<!-- course__MATH101&#45;&gt;course__EOS210 -->
<g id="edge29" class="edge">
<title>course__MATH101&#45;&gt;course__EOS210</title>
<path fill="none" stroke="#5d6972" stroke-width="1.2" d="M269.26,-405.1C316.96,-408.56 409.56,-415.26 470.2,-419.65"/>
<polygon fill="#5d6972" stroke="#5d6972" stroke-width="1.2" points="470.27,-422.11 477.43,-420.18 470.63,-417.23 470.27,-422.11"/>
</g>
<!-- course__MATH101&#45;&gt;choice_EOS261_0_4 -->
<g id="edge34" class="edge">
<title>course__MATH101&#45;&gt;choice_EOS261_0_4</title>
<path fill="none" stroke="#7a8389" d="M258.92,-420.93C284.31,-443.38 327.69,-481.74 355.32,-506.16"/>
<polygon fill="#7a8389" stroke="#7a8389" points="353.75,-508.05 360.62,-510.86 357,-504.38 353.75,-508.05"/>
</g>
<!-- course__MATH101&#45;&gt;choice_EOS311_0_2 -->
<g id="edge41" class="edge">
<title>course__MATH101&#45;&gt;choice_EOS311_0_2</title>
<path fill="none" stroke="#7a8389" d="M255.47,-384.5C278.14,-359.96 319.56,-315.12 355,-276.87 356.39,-275.37 357.83,-273.82 359.28,-272.26"/>
<polygon fill="#7a8389" stroke="#7a8389" points="361.25,-273.74 364.21,-266.94 357.65,-270.41 361.25,-273.74"/>
</g>
<!-- course__MATH101&#45;&gt;choice_EOS314_0_0 -->
<g id="edge56" class="edge">
<title>course__MATH101&#45;&gt;choice_EOS314_0_0</title>
<path fill="none" stroke="#7a8389" d="M269.1,-385.46C277.3,-380.58 286.08,-375.17 294,-369.87 313.97,-356.53 335.6,-340.38 352.3,-327.51"/>
<polygon fill="#7a8389" stroke="#7a8389" points="354.18,-329.15 358.22,-322.93 351.18,-325.28 354.18,-329.15"/>
</g>
<!-- course__PHYS110&#45;&gt;course__PHYS111 -->
<g id="edge101" class="edge">
<title>course__PHYS110&#45;&gt;course__PHYS111</title>
<path fill="none" stroke="#5d6972" stroke-width="1.2" d="M294.32,-121.99C328.47,-123.16 372.46,-127.79 409,-141.87 440.19,-153.9 441.25,-168.81 470,-185.87 473.81,-188.14 477.84,-190.37 481.92,-192.52"/>
<polygon fill="#5d6972" stroke="#5d6972" stroke-width="1.2" points="481.01,-194.81 488.35,-195.83 483.25,-190.45 481.01,-194.81"/>
</g>
<!-- course__PHYS110&#45;&gt;course__EOS210 -->
<g id="edge30" class="edge">
<title>course__PHYS110&#45;&gt;course__EOS210</title>
<path fill="none" stroke="#5d6972" stroke-width="1.2" d="M284.25,-140.93C321.39,-157.38 373.29,-184.64 409,-220.87 462.45,-275.12 501.38,-357.87 518.62,-398.94"/>
<polygon fill="#5d6972" stroke="#5d6972" stroke-width="1.2" points="516.45,-400.11 521.39,-405.64 520.98,-398.24 516.45,-400.11"/>
</g>
<!-- course__PHYS110&#45;&gt;choice_PHYS102B_0 -->
<g id="edge98" class="edge">
<title>course__PHYS110&#45;&gt;choice_PHYS102B_0</title>
<path fill="none" stroke="#7a8389" d="M264.97,-104.67C288.66,-88.38 323.47,-64.44 348.78,-47.03"/>
<polygon fill="#7a8389" stroke="#7a8389" points="350.29,-48.97 354.67,-42.98 347.52,-44.93 350.29,-48.97"/>
</g>
<!-- choice_EOS325_0_2_0 -->
<g id="node60" class="node">
<title>choice_EOS325_0_2_0</title>
<path fill="#fff7ee" stroke="#b7793f" stroke-width="1.1" d="M988,-525.87C988,-525.87 958,-525.87 958,-525.87 952,-525.87 946,-519.87 946,-513.87 946,-513.87 946,-501.87 946,-501.87 946,-495.87 952,-489.87 958,-489.87 958,-489.87 988,-489.87 988,-489.87 994,-489.87 1000,-495.87 1000,-501.87 1000,-501.87 1000,-513.87 1000,-513.87 1000,-519.87 994,-525.87 988,-525.87"/>
<text text-anchor="middle" x="973" y="-505.67" font-family="Avenir Next" font-size="9.00">1 of</text>
</g>
<!-- course__CSC110&#45;&gt;choice_EOS325_0_2_0 -->
<g id="edge70" class="edge">
<title>course__CSC110&#45;&gt;choice_EOS325_0_2_0</title>
<path fill="none" stroke="#7a8389" d="M286.62,-186.12C321.6,-192.48 369.53,-203.47 409,-220.87 526.87,-272.84 535.8,-322.28 650,-381.87 702.87,-409.46 867.62,-470.12 938.75,-495.9"/>
<polygon fill="#7a8389" stroke="#7a8389" points="938.32,-498.35 945.74,-498.43 939.99,-493.74 938.32,-498.35"/>
</g>
<!-- course__EOS230&#45;&gt;choice_EOS325_0_2_0 -->
<g id="edge67" class="edge">
<title>course__EOS230&#45;&gt;choice_EOS325_0_2_0</title>
<path fill="none" stroke="#7a8389" d="M291.39,-629.96C404.06,-634.79 674.62,-637 885,-563.87 906.61,-556.36 928.25,-542.47 944.54,-530.39"/>
<polygon fill="#7a8389" stroke="#7a8389" points="946.19,-532.22 950.29,-526.05 943.23,-528.31 946.19,-532.22"/>
</g>
<!-- course__CHEM318 -->
<g id="node34" class="node">
<title>course__CHEM318</title>
<g id="a_node34"><a xlink:href="../../../courses/CHEM318.html" xlink:title="Equivalent or cross&#45;listed: CHEM318: Instrumental Techniques of Analysis | CHEM361: Analytical Chemistry Laboratory" target="_top">
<path fill="#d7e9ef" stroke="#1f4f66" stroke-width="1.6" d="M873,-1068.87C873,-1068.87 777,-1068.87 777,-1068.87 771,-1068.87 765,-1062.87 765,-1056.87 765,-1056.87 765,-1044.87 765,-1044.87 765,-1038.87 771,-1032.87 777,-1032.87 777,-1032.87 873,-1032.87 873,-1032.87 879,-1032.87 885,-1038.87 885,-1044.87 885,-1044.87 885,-1056.87 885,-1056.87 885,-1062.87 879,-1068.87 873,-1068.87"/>
<text text-anchor="middle" x="825" y="-1048.37" font-family="Avenir Next" font-size="10.00" fill="#17232b">CHEM318 / CHEM361</text>
</a>
</g>
</g>
<!-- course__CHEM212&#45;&gt;course__CHEM318 -->
<g id="edge18" class="edge">
<title>course__CHEM212&#45;&gt;course__CHEM318</title>
<path fill="none" stroke="#5d6972" stroke-width="1.2" d="M561.63,-1003.5C608.08,-1011.88 696.63,-1027.87 757.92,-1038.94"/>
<polygon fill="#5d6972" stroke="#5d6972" stroke-width="1.2" points="757.56,-1041.37 764.89,-1040.2 758.43,-1036.54 757.56,-1041.37"/>
</g>
<!-- course__CHEM364 -->
<g id="node37" class="node">
<title>course__CHEM364</title>
<g id="a_node37"><a xlink:href="../../../courses/CHEM364.html" xlink:title="CHEM364: Physical Chemistry Laboratory" target="_top">
<path fill="#d7e9ef" stroke="#1f4f66" stroke-width="1.6" d="M845,-939.87C845,-939.87 805,-939.87 805,-939.87 799,-939.87 793,-933.87 793,-927.87 793,-927.87 793,-915.87 793,-915.87 793,-909.87 799,-903.87 805,-903.87 805,-903.87 845,-903.87 845,-903.87 851,-903.87 857,-909.87 857,-915.87 857,-915.87 857,-927.87 857,-927.87 857,-933.87 851,-939.87 845,-939.87"/>
<text text-anchor="middle" x="825" y="-919.37" font-family="Avenir Next" font-size="10.00" fill="#17232b">CHEM364</text>
</a>
</g>
</g>
<!-- course__CHEM212&#45;&gt;course__CHEM364 -->
<g id="edge26" class="edge">
<title>course__CHEM212&#45;&gt;course__CHEM364</title>
<path fill="none" stroke="#5d6972" stroke-width="1.2" d="M561.63,-989.81C615.79,-975.79 727.15,-946.95 785.86,-931.75"/>
<polygon fill="#5d6972" stroke="#5d6972" stroke-width="1.2" points="786.58,-934.09 792.75,-929.97 785.36,-929.35 786.58,-934.09"/>
</g>
<!-- bundle_CHEM362_0_1 -->
<g id="node49" class="node">
<title>bundle_CHEM362_0_1</title>
<g id="a_node49"><a xlink:title="Grouped requirement junction">
<ellipse fill="#7a8790" stroke="#667780" cx="677" cy="-985.87" rx="6" ry="6"/>
</a>
</g>
</g>
<!-- course__CHEM225&#45;&gt;bundle_CHEM362_0_1 -->
<g id="edge20" class="edge">
<title>course__CHEM225&#45;&gt;bundle_CHEM362_0_1</title>
<path fill="none" stroke="#7a8389" d="M561.71,-951.31C593.84,-961.03 642.22,-975.66 664.28,-982.33"/>
<polygon fill="#7a8389" stroke="#7a8389" points="663.73,-984.72 671.14,-984.41 665.15,-980.03 663.73,-984.72"/>
</g>
<!-- bundle_CHEM363_0_1 -->
<g id="node50" class="node">
<title>bundle_CHEM363_0_1</title>
<g id="a_node50"><a xlink:title="Grouped requirement junction">
<ellipse fill="#7a8790" stroke="#667780" cx="677" cy="-1108.87" rx="6" ry="6"/>
</a>
</g>
</g>
<!-- course__CHEM234&#45;&gt;bundle_CHEM363_0_1 -->
<g id="edge23" class="edge">
<title>course__CHEM234&#45;&gt;bundle_CHEM363_0_1</title>
<path fill="none" stroke="#7a8389" d="M561.71,-1114.37C593.54,-1112.84 641.33,-1110.54 663.66,-1109.47"/>
<polygon fill="#7a8389" stroke="#7a8389" points="663.79,-1111.91 670.67,-1109.13 663.56,-1107.02 663.79,-1111.91"/>
</g>
<!-- course__CHEM245&#45;&gt;course__CHEM364 -->
<g id="edge27" class="edge">
<title>course__CHEM245&#45;&gt;course__CHEM364</title>
<path fill="none" stroke="#5d6972" stroke-width="1.2" d="M561.63,-889.69C615.68,-896.32 726.7,-909.94 785.5,-917.15"/>
<polygon fill="#5d6972" stroke="#5d6972" stroke-width="1.2" points="785.5,-919.62 792.75,-918.04 786.1,-914.76 785.5,-919.62"/>
</g>
<!-- course__CHEM260&#45;&gt;course__CHEM318 -->
<g id="edge19" class="edge">
<title>course__CHEM260&#45;&gt;course__CHEM318</title>
<path fill="none" stroke="#5d6972" stroke-width="1.2" d="M561.63,-1058.92C607.99,-1057.5 696.27,-1054.79 757.55,-1052.91"/>
<polygon fill="#5d6972" stroke="#5d6972" stroke-width="1.2" points="757.97,-1055.35 764.89,-1052.69 757.81,-1050.45 757.97,-1055.35"/>
</g>
<!-- course__CHEM260&#45;&gt;bundle_CHEM362_0_1 -->
<g id="edge21" class="edge">
<title>course__CHEM260&#45;&gt;bundle_CHEM362_0_1</title>
<path fill="none" stroke="#7a8389" d="M561.71,-1044C594.12,-1027.52 643.07,-1002.62 664.86,-991.54"/>
<polygon fill="#7a8389" stroke="#7a8389" points="666.01,-993.7 671.14,-988.34 663.79,-989.33 666.01,-993.7"/>
</g>
<!-- course__CHEM260&#45;&gt;bundle_CHEM363_0_1 -->
<g id="edge24" class="edge">
<title>course__CHEM260&#45;&gt;bundle_CHEM363_0_1</title>
<path fill="none" stroke="#7a8389" d="M561.71,-1070.39C593.84,-1081.21 642.22,-1097.5 664.28,-1104.93"/>
<polygon fill="#7a8389" stroke="#7a8389" points="663.73,-1107.33 671.14,-1107.24 665.29,-1102.68 663.73,-1107.33"/>
</g>
<!-- course__MATH200&#45;&gt;course__STAT254 -->
<g id="edge104" class="edge">
<title>course__MATH200&#45;&gt;course__STAT254</title>
<path fill="none" stroke="#5d6972" stroke-width="1.2" d="M529.5,-685.8C529.5,-625.73 529.5,-565.65 529.5,-505.58"/>
<polygon fill="#5d6972" stroke="#5d6972" stroke-width="1.2" points="531.95,-505.25 529.5,-498.25 527.05,-505.25 531.95,-505.25"/>
</g>
<!-- course__MATH204 -->
<g id="node40" class="node">
<title>course__MATH204</title>
<g id="a_node40"><a xlink:href="../../../courses/MATH204.html" xlink:title="MATH204: Calculus IV" target="_top">
<path fill="#d7e9ef" stroke="#1f4f66" stroke-width="1.6" d="M844.5,-749.87C844.5,-749.87 805.5,-749.87 805.5,-749.87 799.5,-749.87 793.5,-743.87 793.5,-737.87 793.5,-737.87 793.5,-725.87 793.5,-725.87 793.5,-719.87 799.5,-713.87 805.5,-713.87 805.5,-713.87 844.5,-713.87 844.5,-713.87 850.5,-713.87 856.5,-719.87 856.5,-725.87 856.5,-725.87 856.5,-737.87 856.5,-737.87 856.5,-743.87 850.5,-749.87 844.5,-749.87"/>
<text text-anchor="middle" x="825" y="-729.37" font-family="Avenir Next" font-size="10.00" fill="#17232b">MATH204</text>
</a>
</g>
</g>
<!-- course__MATH200&#45;&gt;course__MATH204 -->
<g id="edge96" class="edge">
<title>course__MATH200&#45;&gt;course__MATH204</title>
<path fill="none" stroke="#5d6972" stroke-width="1.2" d="M589.19,-709.47C647.86,-715.07 736.35,-723.51 786.26,-728.27"/>
<polygon fill="#5d6972" stroke="#5d6972" stroke-width="1.2" points="786.13,-730.72 793.33,-728.95 786.6,-725.85 786.13,-730.72"/>
</g>
<!-- choice_EOS325_0_0 -->
<g id="node58" class="node">
<title>choice_EOS325_0_0</title>
<path fill="#fff7ee" stroke="#b7793f" stroke-width="1.1" d="M988,-658.87C988,-658.87 958,-658.87 958,-658.87 952,-658.87 946,-652.87 946,-646.87 946,-646.87 946,-634.87 946,-634.87 946,-628.87 952,-622.87 958,-622.87 958,-622.87 988,-622.87 988,-622.87 994,-622.87 1000,-628.87 1000,-634.87 1000,-634.87 1000,-646.87 1000,-646.87 1000,-652.87 994,-658.87 988,-658.87"/>
<text text-anchor="middle" x="973" y="-638.67" font-family="Avenir Next" font-size="9.00">1 of</text>
</g>
<!-- course__MATH200&#45;&gt;choice_EOS325_0_0 -->
<g id="edge62" class="edge">
<title>course__MATH200&#45;&gt;choice_EOS325_0_0</title>
<path fill="none" stroke="#7a8389" d="M589.13,-695.51C683.01,-682.11 864.09,-656.27 938.66,-645.63"/>
<polygon fill="#7a8389" stroke="#7a8389" points="939.38,-648 945.96,-644.59 938.69,-643.15 939.38,-648"/>
</g>
<!-- choice_EOS261_0_2 -->
<g id="node51" class="node">
<title>choice_EOS261_0_2</title>
<path fill="#fff7ee" stroke="#b7793f" stroke-width="1.1" d="M692,-371.87C692,-371.87 662,-371.87 662,-371.87 656,-371.87 650,-365.87 650,-359.87 650,-359.87 650,-347.87 650,-347.87 650,-341.87 656,-335.87 662,-335.87 662,-335.87 692,-335.87 692,-335.87 698,-335.87 704,-341.87 704,-347.87 704,-347.87 704,-359.87 704,-359.87 704,-365.87 698,-371.87 692,-371.87"/>
<text text-anchor="middle" x="677" y="-351.67" font-family="Avenir Next" font-size="9.00">1 of</text>
</g>
<!-- course__PHYS111&#45;&gt;choice_EOS261_0_2 -->
<g id="edge32" class="edge">
<title>course__PHYS111&#45;&gt;choice_EOS261_0_2</title>
<path fill="none" stroke="#7a8389" d="M549.22,-231.89C575.38,-257.06 622.88,-302.76 651.73,-330.52"/>
<polygon fill="#7a8389" stroke="#7a8389" points="650.14,-332.39 656.89,-335.48 653.54,-328.86 650.14,-332.39"/>
</g>
<!-- choice_EOS311_0_3 -->
<g id="node54" class="node">
<title>choice_EOS311_0_3</title>
<path fill="#fff7ee" stroke="#b7793f" stroke-width="1.1" d="M692,-91.87C692,-91.87 662,-91.87 662,-91.87 656,-91.87 650,-85.87 650,-79.87 650,-79.87 650,-67.87 650,-67.87 650,-61.87 656,-55.87 662,-55.87 662,-55.87 692,-55.87 692,-55.87 698,-55.87 704,-61.87 704,-67.87 704,-67.87 704,-79.87 704,-79.87 704,-85.87 698,-91.87 692,-91.87"/>
<text text-anchor="middle" x="677" y="-71.67" font-family="Avenir Next" font-size="9.00">1 of</text>
</g>
<!-- course__PHYS111&#45;&gt;choice_EOS311_0_3 -->
<g id="edge44" class="edge">
<title>course__PHYS111&#45;&gt;choice_EOS311_0_3</title>
<path fill="none" stroke="#7a8389" d="M574.47,-195.84C579.61,-192.87 584.59,-189.55 589,-185.87 624.45,-156.34 620.69,-137.51 650,-101.87 651.26,-100.34 652.59,-98.78 653.94,-97.22"/>
<polygon fill="#7a8389" stroke="#7a8389" points="655.79,-98.82 658.61,-91.97 652.13,-95.57 655.79,-98.82"/>
</g>
<!-- choice_EOS314_0_1 -->
<g id="node57" class="node">
<title>choice_EOS314_0_1</title>
<path fill="#fff7ee" stroke="#b7793f" stroke-width="1.1" d="M692,-315.87C692,-315.87 662,-315.87 662,-315.87 656,-315.87 650,-309.87 650,-303.87 650,-303.87 650,-291.87 650,-291.87 650,-285.87 656,-279.87 662,-279.87 662,-279.87 692,-279.87 692,-279.87 698,-279.87 704,-285.87 704,-291.87 704,-291.87 704,-303.87 704,-303.87 704,-309.87 698,-315.87 692,-315.87"/>
<text text-anchor="middle" x="677" y="-295.67" font-family="Avenir Next" font-size="9.00">1 of</text>
</g>
<!-- course__PHYS111&#45;&gt;choice_EOS314_0_1 -->
<g id="edge59" class="edge">
<title>course__PHYS111&#45;&gt;choice_EOS314_0_1</title>
<path fill="none" stroke="#7a8389" d="M561.71,-231.89C585.78,-245.79 618.97,-264.95 643.39,-279.05"/>
<polygon fill="#7a8389" stroke="#7a8389" points="642.42,-281.32 649.71,-282.7 644.87,-277.07 642.42,-281.32"/>
</g>
<!-- choice_EOS325_0_1 -->
<g id="node59" class="node">
<title>choice_EOS325_0_1</title>
<path fill="#fff7ee" stroke="#b7793f" stroke-width="1.1" d="M692,-259.87C692,-259.87 662,-259.87 662,-259.87 656,-259.87 650,-253.87 650,-247.87 650,-247.87 650,-235.87 650,-235.87 650,-229.87 656,-223.87 662,-223.87 662,-223.87 692,-223.87 692,-223.87 698,-223.87 704,-229.87 704,-235.87 704,-235.87 704,-247.87 704,-247.87 704,-253.87 698,-259.87 692,-259.87"/>
<text text-anchor="middle" x="677" y="-239.67" font-family="Avenir Next" font-size="9.00">1 of</text>
</g>
<!-- course__PHYS111&#45;&gt;choice_EOS325_0_1 -->
<g id="edge65" class="edge">
<title>course__PHYS111&#45;&gt;choice_EOS325_0_1</title>
<path fill="none" stroke="#7a8389" d="M586.34,-224.62C605.41,-228.29 626.13,-232.28 642.84,-235.49"/>
<polygon fill="#7a8389" stroke="#7a8389" points="642.4,-237.9 649.74,-236.82 643.32,-233.09 642.4,-237.9"/>
</g>
<!-- choice_EOS340_0 -->
<g id="node61" class="node">
<title>choice_EOS340_0</title>
<path fill="#fff7ee" stroke="#b7793f" stroke-width="1.1" d="M692,-203.87C692,-203.87 662,-203.87 662,-203.87 656,-203.87 650,-197.87 650,-191.87 650,-191.87 650,-179.87 650,-179.87 650,-173.87 656,-167.87 662,-167.87 662,-167.87 692,-167.87 692,-167.87 698,-167.87 704,-173.87 704,-179.87 704,-179.87 704,-191.87 704,-191.87 704,-197.87 698,-203.87 692,-203.87"/>
<text text-anchor="middle" x="677" y="-183.67" font-family="Avenir Next" font-size="9.00">1 of</text>
</g>
<!-- course__PHYS111&#45;&gt;choice_EOS340_0 -->
<g id="edge75" class="edge">
<title>course__PHYS111&#45;&gt;choice_EOS340_0</title>
<path fill="none" stroke="#7a8389" d="M586.34,-203.13C605.41,-199.46 626.13,-195.47 642.84,-192.26"/>
<polygon fill="#7a8389" stroke="#7a8389" points="643.32,-194.66 649.74,-190.93 642.4,-189.85 643.32,-194.66"/>
</g>
<!-- choice_EOS431_0_1 -->
<g id="node66" class="node">
<title>choice_EOS431_0_1</title>
<path fill="#fff7ee" stroke="#b7793f" stroke-width="1.1" d="M692,-147.87C692,-147.87 662,-147.87 662,-147.87 656,-147.87 650,-141.87 650,-135.87 650,-135.87 650,-123.87 650,-123.87 650,-117.87 656,-111.87 662,-111.87 662,-111.87 692,-111.87 692,-111.87 698,-111.87 704,-117.87 704,-123.87 704,-123.87 704,-135.87 704,-135.87 704,-141.87 698,-147.87 692,-147.87"/>
<text text-anchor="middle" x="677" y="-127.67" font-family="Avenir Next" font-size="9.00">1 of</text>
</g>
<!-- course__PHYS111&#45;&gt;choice_EOS431_0_1 -->
<g id="edge91" class="edge">
<title>course__PHYS111&#45;&gt;choice_EOS431_0_1</title>
<path fill="none" stroke="#7a8389" d="M569.87,-195.87C576.33,-192.67 582.9,-189.28 589,-185.87 607.55,-175.52 627.54,-162.77 643.67,-152.06"/>
<polygon fill="#7a8389" stroke="#7a8389" points="645.42,-153.84 649.88,-147.91 642.69,-149.77 645.42,-153.84"/>
</g>
<!-- course__BIOL184 -->
<g id="node31" class="node">
<title>course__BIOL184</title>
<g id="a_node31"><a xlink:href="../../../courses/BIOL184.html" xlink:title="BIOL184: Evolution and Biodiversity" target="_top">
<path fill="#f9f9f9" stroke="#363636" d="M545.5,-1246.87C545.5,-1246.87 513.5,-1246.87 513.5,-1246.87 507.5,-1246.87 501.5,-1240.87 501.5,-1234.87 501.5,-1234.87 501.5,-1222.87 501.5,-1222.87 501.5,-1216.87 507.5,-1210.87 513.5,-1210.87 513.5,-1210.87 545.5,-1210.87 545.5,-1210.87 551.5,-1210.87 557.5,-1216.87 557.5,-1222.87 557.5,-1222.87 557.5,-1234.87 557.5,-1234.87 557.5,-1240.87 551.5,-1246.87 545.5,-1246.87"/>
<text text-anchor="middle" x="529.5" y="-1226.67" font-family="Avenir Next" font-size="9.00" fill="#363636">BIOL184</text>
</a>
</g>
</g>
<!-- course__BIOL184&#45;&gt;choice_BIOL186_0_0 -->
<g id="edge5" class="edge">
<title>course__BIOL184&#45;&gt;choice_BIOL186_0_0</title>
<path fill="none" stroke="#7a8389" d="M557.53,-1228.87C581.56,-1228.87 616.8,-1228.87 642.6,-1228.87"/>
<polygon fill="#7a8389" stroke="#7a8389" points="642.61,-1231.32 649.61,-1228.87 642.61,-1226.42 642.61,-1231.32"/>
</g>
<!-- course__EOS210&#45;&gt;choice_EOS325_0_2_0 -->
<g id="edge66" class="edge">
<title>course__EOS210&#45;&gt;choice_EOS325_0_2_0</title>
<path fill="none" stroke="#7a8389" d="M581.79,-441.67C602.74,-448.44 627.33,-455.74 650,-460.87 754.1,-484.44 879.91,-498.82 938.7,-504.74"/>
<polygon fill="#7a8389" stroke="#7a8389" points="938.66,-507.2 945.87,-505.45 939.15,-502.32 938.66,-507.2"/>
</g>
<!-- course__PHYS102B -->
<g id="node33" class="node">
<title>course__PHYS102B</title>
<g id="a_node33"><a xlink:href="../../../courses/PHYS102B.html" xlink:title="PHYS102B: General Physics II" target="_top">
<path fill="#f9f9f9" stroke="#363636" d="M549.5,-175.87C549.5,-175.87 509.5,-175.87 509.5,-175.87 503.5,-175.87 497.5,-169.87 497.5,-163.87 497.5,-163.87 497.5,-151.87 497.5,-151.87 497.5,-145.87 503.5,-139.87 509.5,-139.87 509.5,-139.87 549.5,-139.87 549.5,-139.87 555.5,-139.87 561.5,-145.87 561.5,-151.87 561.5,-151.87 561.5,-163.87 561.5,-163.87 561.5,-169.87 555.5,-175.87 549.5,-175.87"/>
<text text-anchor="middle" x="529.5" y="-155.67" font-family="Avenir Next" font-size="9.00" fill="#363636">PHYS102B</text>
</a>
</g>
</g>
<!-- course__PHYS102B&#45;&gt;choice_EOS261_0_2 -->
<g id="edge33" class="edge">
<title>course__PHYS102B&#45;&gt;choice_EOS261_0_2</title>
<path fill="none" stroke="#7a8389" d="M561.69,-167.9C571.39,-172.21 581.49,-178.1 589,-185.87 636.13,-234.71 612.82,-269.09 650,-325.87 650.89,-327.23 651.84,-328.58 652.84,-329.91"/>
<polygon fill="#7a8389" stroke="#7a8389" points="651.15,-331.72 657.45,-335.62 654.96,-328.64 651.15,-331.72"/>
</g>
<!-- course__PHYS102B&#45;&gt;choice_EOS311_0_3 -->
<g id="edge43" class="edge">
<title>course__PHYS102B&#45;&gt;choice_EOS311_0_3</title>
<path fill="none" stroke="#7a8389" d="M561.71,-139.85C585.78,-125.96 618.97,-106.8 643.39,-92.7"/>
<polygon fill="#7a8389" stroke="#7a8389" points="644.87,-94.68 649.71,-89.05 642.42,-90.43 644.87,-94.68"/>
</g>
<!-- course__PHYS102B&#45;&gt;choice_EOS314_0_1 -->
<g id="edge58" class="edge">
<title>course__PHYS102B&#45;&gt;choice_EOS314_0_1</title>
<path fill="none" stroke="#7a8389" d="M561.66,-169.32C571.03,-173.64 580.95,-179.17 589,-185.87 624.45,-215.41 620.69,-234.24 650,-269.87 651.26,-271.41 652.59,-272.97 653.94,-274.53"/>
<polygon fill="#7a8389" stroke="#7a8389" points="652.13,-276.18 658.61,-279.78 655.79,-272.92 652.13,-276.18"/>
</g>
<!-- course__PHYS102B&#45;&gt;choice_EOS325_0_1 -->
<g id="edge64" class="edge">
<title>course__PHYS102B&#45;&gt;choice_EOS325_0_1</title>
<path fill="none" stroke="#7a8389" d="M561.53,-171.84C570.51,-176.12 580.25,-180.99 589,-185.87 607.55,-196.23 627.54,-208.98 643.67,-219.69"/>
<polygon fill="#7a8389" stroke="#7a8389" points="642.69,-221.98 649.88,-223.84 645.42,-217.91 642.69,-221.98"/>
</g>
<!-- course__PHYS102B&#45;&gt;choice_EOS340_0 -->
<g id="edge74" class="edge">
<title>course__PHYS102B&#45;&gt;choice_EOS340_0</title>
<path fill="none" stroke="#7a8389" d="M561.71,-163.88C585.58,-168.47 618.41,-174.79 642.76,-179.48"/>
<polygon fill="#7a8389" stroke="#7a8389" points="642.37,-181.9 649.71,-180.81 643.3,-177.09 642.37,-181.9"/>
</g>
<!-- course__PHYS102B&#45;&gt;choice_EOS431_0_1 -->
<g id="edge90" class="edge">
<title>course__PHYS102B&#45;&gt;choice_EOS431_0_1</title>
<path fill="none" stroke="#7a8389" d="M561.71,-151.87C585.58,-147.28 618.41,-140.96 642.76,-136.27"/>
<polygon fill="#7a8389" stroke="#7a8389" points="643.3,-138.66 649.71,-134.93 642.37,-133.85 643.3,-138.66"/>
</g>
<!-- course__CHEM362 -->
<g id="node35" class="node">
<title>course__CHEM362</title>
<g id="a_node35"><a xlink:href="../../../courses/CHEM362.html" xlink:title="CHEM362: Inorganic Chemistry Laboratory" target="_top">
<path fill="#d7e9ef" stroke="#1f4f66" stroke-width="1.6" d="M845,-1003.87C845,-1003.87 805,-1003.87 805,-1003.87 799,-1003.87 793,-997.87 793,-991.87 793,-991.87 793,-979.87 793,-979.87 793,-973.87 799,-967.87 805,-967.87 805,-967.87 845,-967.87 845,-967.87 851,-967.87 857,-973.87 857,-979.87 857,-979.87 857,-991.87 857,-991.87 857,-997.87 851,-1003.87 845,-1003.87"/>
<text text-anchor="middle" x="825" y="-983.37" font-family="Avenir Next" font-size="10.00" fill="#17232b">CHEM362</text>
</a>
</g>
</g>
<!-- course__CHEM363 -->
<g id="node36" class="node">
<title>course__CHEM363</title>
<g id="a_node36"><a xlink:href="../../../courses/CHEM363.html" xlink:title="CHEM363: Organic Chemistry Laboratory" target="_top">
<path fill="#d7e9ef" stroke="#1f4f66" stroke-width="1.6" d="M845,-1126.87C845,-1126.87 805,-1126.87 805,-1126.87 799,-1126.87 793,-1120.87 793,-1114.87 793,-1114.87 793,-1102.87 793,-1102.87 793,-1096.87 799,-1090.87 805,-1090.87 805,-1090.87 845,-1090.87 845,-1090.87 851,-1090.87 857,-1096.87 857,-1102.87 857,-1102.87 857,-1114.87 857,-1114.87 857,-1120.87 851,-1126.87 845,-1126.87"/>
<text text-anchor="middle" x="825" y="-1106.37" font-family="Avenir Next" font-size="10.00" fill="#17232b">CHEM363</text>
</a>
</g>
</g>
<!-- course__EOS311&#45;&gt;choice_EOS401_0 -->
<g id="edge82" class="edge">
<title>course__EOS311&#45;&gt;choice_EOS401_0</title>
<path fill="none" stroke="#7a8389" d="M850.85,-67.12C895.64,-98.15 993.95,-157.87 1087,-157.87 1087,-157.87 1087,-157.87 1487,-157.87 1615.67,-157.87 1685.73,-338.62 1707.51,-406.51"/>
<polygon fill="#7a8389" stroke="#7a8389" points="1705.26,-407.53 1709.7,-413.47 1709.94,-406.06 1705.26,-407.53"/>
</g>
<!-- course__EOS314 -->
<g id="node39" class="node">
<title>course__EOS314</title>
<g id="a_node39"><a xlink:href="../../../courses/EOS314.html" xlink:title="EOS314: Descriptive Physical Oceanography" target="_top">
<path fill="#d7e9ef" stroke="#1f4f66" stroke-width="1.6" d="M840,-413.87C840,-413.87 810,-413.87 810,-413.87 804,-413.87 798,-407.87 798,-401.87 798,-401.87 798,-389.87 798,-389.87 798,-383.87 804,-377.87 810,-377.87 810,-377.87 840,-377.87 840,-377.87 846,-377.87 852,-383.87 852,-389.87 852,-389.87 852,-401.87 852,-401.87 852,-407.87 846,-413.87 840,-413.87"/>
<text text-anchor="middle" x="825" y="-393.37" font-family="Avenir Next" font-size="10.00" fill="#17232b">EOS314</text>
</a>
</g>
</g>
<!-- course__EOS314&#45;&gt;choice_EOS312_0_0 -->
<g id="edge49" class="edge">
<title>course__EOS314&#45;&gt;choice_EOS312_0_0</title>
<path fill="none" stroke="#7a8389" d="M852.17,-406.56C898.62,-424.54 998.9,-458.87 1087,-458.87 1087,-458.87 1087,-458.87 1204,-458.87 1293.46,-458.87 1398.94,-458.87 1451.59,-458.87"/>
<polygon fill="#7a8389" stroke="#7a8389" points="1451.66,-461.32 1458.66,-458.87 1451.66,-456.42 1451.66,-461.32"/>
</g>
<!-- course__EOS314&#45;&gt;choice_EOS325_0_2_0 -->
<g id="edge69" class="edge">
<title>course__EOS314&#45;&gt;choice_EOS325_0_2_0</title>
<path fill="none" stroke="#7a8389" d="M852.04,-408.79C862.6,-414.44 874.71,-421.47 885,-428.87 908.41,-445.72 932.5,-468.05 949.38,-484.67"/>
<polygon fill="#7a8389" stroke="#7a8389" points="947.68,-486.44 954.37,-489.64 951.13,-482.97 947.68,-486.44"/>
</g>
<!-- choice_EOS401_0_3 -->
<g id="node63" class="node">
<title>choice_EOS401_0_3</title>
<path fill="#fff7ee" stroke="#b7793f" stroke-width="1.1" d="M1501,-371.87C1501,-371.87 1471,-371.87 1471,-371.87 1465,-371.87 1459,-365.87 1459,-359.87 1459,-359.87 1459,-347.87 1459,-347.87 1459,-341.87 1465,-335.87 1471,-335.87 1471,-335.87 1501,-335.87 1501,-335.87 1507,-335.87 1513,-341.87 1513,-347.87 1513,-347.87 1513,-359.87 1513,-359.87 1513,-365.87 1507,-371.87 1501,-371.87"/>
<text text-anchor="middle" x="1486" y="-351.67" font-family="Avenir Next" font-size="9.00">1 of</text>
</g>
<!-- course__EOS314&#45;&gt;choice_EOS401_0_3 -->
<g id="edge80" class="edge">
<title>course__EOS314&#45;&gt;choice_EOS401_0_3</title>
<path fill="none" stroke="#7a8389" d="M852.42,-381.73C916.16,-349.18 1083.93,-272.98 1230,-288.87 1311.38,-297.73 1403.77,-326.03 1451.89,-342.22"/>
<polygon fill="#7a8389" stroke="#7a8389" points="1451.24,-344.59 1458.66,-344.52 1452.81,-339.95 1451.24,-344.59"/>
</g>
<!-- course__MATH204&#45;&gt;choice_EOS325_0_0 -->
<g id="edge63" class="edge">
<title>course__MATH204&#45;&gt;choice_EOS325_0_0</title>
<path fill="none" stroke="#7a8389" d="M856.58,-715.36C865.8,-710.23 875.89,-704.45 885,-698.87 903.62,-687.48 923.94,-674 940.26,-662.9"/>
<polygon fill="#7a8389" stroke="#7a8389" points="941.68,-664.9 946.08,-658.93 938.91,-660.85 941.68,-664.9"/>
</g>
<!-- choice_EOS340_1 -->
<g id="node62" class="node">
<title>choice_EOS340_1</title>
<path fill="#fff7ee" stroke="#b7793f" stroke-width="1.1" d="M1218,-427.87C1218,-427.87 1188,-427.87 1188,-427.87 1182,-427.87 1176,-421.87 1176,-415.87 1176,-415.87 1176,-403.87 1176,-403.87 1176,-397.87 1182,-391.87 1188,-391.87 1188,-391.87 1218,-391.87 1218,-391.87 1224,-391.87 1230,-397.87 1230,-403.87 1230,-403.87 1230,-415.87 1230,-415.87 1230,-421.87 1224,-427.87 1218,-427.87"/>
<text text-anchor="middle" x="1203" y="-407.67" font-family="Avenir Next" font-size="9.00">1 of</text>
</g>
<!-- course__MATH204&#45;&gt;choice_EOS340_1 -->
<g id="edge78" class="edge">
<title>course__MATH204&#45;&gt;choice_EOS340_1</title>
<path fill="none" stroke="#7a8389" d="M856.69,-739.23C914.4,-751.1 1040.04,-767.4 1115,-705.87 1157.66,-670.86 1188.01,-500.44 1198.23,-435.28"/>
<polygon fill="#7a8389" stroke="#7a8389" points="1200.67,-435.52 1199.32,-428.23 1195.83,-434.77 1200.67,-435.52"/>
</g>
<!-- choice_EOS431_0_0 -->
<g id="node65" class="node">
<title>choice_EOS431_0_0</title>
<path fill="#fff7ee" stroke="#b7793f" stroke-width="1.1" d="M1218,-371.87C1218,-371.87 1188,-371.87 1188,-371.87 1182,-371.87 1176,-365.87 1176,-359.87 1176,-359.87 1176,-347.87 1176,-347.87 1176,-341.87 1182,-335.87 1188,-335.87 1188,-335.87 1218,-335.87 1218,-335.87 1224,-335.87 1230,-341.87 1230,-347.87 1230,-347.87 1230,-359.87 1230,-359.87 1230,-365.87 1224,-371.87 1218,-371.87"/>
<text text-anchor="middle" x="1203" y="-351.67" font-family="Avenir Next" font-size="9.00">1 of</text>
</g>
<!-- course__MATH204&#45;&gt;choice_EOS431_0_0 -->
<g id="edge89" class="edge">
<title>course__MATH204&#45;&gt;choice_EOS431_0_0</title>
<path fill="none" stroke="#7a8389" d="M856.73,-727.13C894.09,-720.04 957.42,-703.59 1000,-668.87 1115.97,-574.32 1085.54,-501.06 1176,-381.87 1177.09,-380.44 1178.24,-379 1179.42,-377.56"/>
<polygon fill="#7a8389" stroke="#7a8389" points="1181.41,-379 1184.12,-372.1 1177.7,-375.81 1181.41,-379"/>
</g>
<!-- course__EOS261&#45;&gt;choice_EOS325_0_2_0 -->
<g id="edge68" class="edge">
<title>course__EOS261&#45;&gt;choice_EOS325_0_2_0</title>
<path fill="none" stroke="#7a8389" d="M852.1,-530.87C876.24,-526.24 912.25,-519.33 938.5,-514.3"/>
<polygon fill="#7a8389" stroke="#7a8389" points="939.22,-516.66 945.63,-512.93 938.3,-511.84 939.22,-516.66"/>
</g>
<!-- course__EOS325 -->
<g id="node42" class="node">
<title>course__EOS325</title>
<g id="a_node42"><a xlink:href="../../../courses/EOS325.html" xlink:title="EOS325: Earth System Modelling" target="_top">
<path fill="#d7e9ef" stroke="#1f4f66" stroke-width="1.6" d="M1103,-427.87C1103,-427.87 1073,-427.87 1073,-427.87 1067,-427.87 1061,-421.87 1061,-415.87 1061,-415.87 1061,-403.87 1061,-403.87 1061,-397.87 1067,-391.87 1073,-391.87 1073,-391.87 1103,-391.87 1103,-391.87 1109,-391.87 1115,-397.87 1115,-403.87 1115,-403.87 1115,-415.87 1115,-415.87 1115,-421.87 1109,-427.87 1103,-427.87"/>
<text text-anchor="middle" x="1088" y="-407.37" font-family="Avenir Next" font-size="10.00" fill="#17232b">EOS325</text>
</a>
</g>
</g>
<!-- course__EOS325&#45;&gt;choice_EOS340_1 -->
<g id="edge77" class="edge">
<title>course__EOS325&#45;&gt;choice_EOS340_1</title>
<path fill="none" stroke="#7a8389" d="M1115.21,-409.87C1131.18,-409.87 1151.74,-409.87 1168.84,-409.87"/>
<polygon fill="#7a8389" stroke="#7a8389" points="1168.93,-412.32 1175.93,-409.87 1168.93,-407.42 1168.93,-412.32"/>
</g>
<!-- course__EOS325&#45;&gt;choice_EOS431_0_0 -->
<g id="edge88" class="edge">
<title>course__EOS325&#45;&gt;choice_EOS431_0_0</title>
<path fill="none" stroke="#7a8389" d="M1115.21,-396.89C1131.32,-388.9 1152.11,-378.6 1169.3,-370.08"/>
<polygon fill="#7a8389" stroke="#7a8389" points="1170.75,-372.1 1175.93,-366.79 1168.57,-367.71 1170.75,-372.1"/>
</g>
<!-- course__EOS340 -->
<g id="node43" class="node">
<title>course__EOS340</title>
<g id="a_node43"><a xlink:href="../../../courses/EOS340.html" xlink:title="Equivalent or cross&#45;listed: EOS340: Atmospheric Physics | PHYS340: Atmospheric Physics" target="_top">
<path fill="#ead9b8" stroke="#8f6a3b" stroke-width="1.3" d="M1386,-427.87C1386,-427.87 1303,-427.87 1303,-427.87 1297,-427.87 1291,-421.87 1291,-415.87 1291,-415.87 1291,-403.87 1291,-403.87 1291,-397.87 1297,-391.87 1303,-391.87 1303,-391.87 1386,-391.87 1386,-391.87 1392,-391.87 1398,-397.87 1398,-403.87 1398,-403.87 1398,-415.87 1398,-415.87 1398,-421.87 1392,-427.87 1386,-427.87"/>
<text text-anchor="middle" x="1344.5" y="-407.37" font-family="Avenir Next" font-size="10.00" fill="#3f3120">EOS340 / PHYS340</text>
</a>
</g>
</g>
<!-- course__EOS431 -->
<g id="node44" class="node">
<title>course__EOS431</title>
<g id="a_node44"><a xlink:href="../../../courses/EOS431.html" xlink:title="Equivalent or cross&#45;listed: EOS431: Physical Oceanography | PHYS441: Physical Oceanography" target="_top">
<path fill="#f9f9f9" stroke="#363636" d="M1384.5,-371.87C1384.5,-371.87 1304.5,-371.87 1304.5,-371.87 1298.5,-371.87 1292.5,-365.87 1292.5,-359.87 1292.5,-359.87 1292.5,-347.87 1292.5,-347.87 1292.5,-341.87 1298.5,-335.87 1304.5,-335.87 1304.5,-335.87 1384.5,-335.87 1384.5,-335.87 1390.5,-335.87 1396.5,-341.87 1396.5,-347.87 1396.5,-347.87 1396.5,-359.87 1396.5,-359.87 1396.5,-365.87 1390.5,-371.87 1384.5,-371.87"/>
<text text-anchor="middle" x="1344.5" y="-351.67" font-family="Avenir Next" font-size="9.00" fill="#363636">EOS431 / PHYS441</text>
</a>
</g>
</g>
<!-- course__EOS431&#45;&gt;choice_EOS312_0_0 -->
<g id="edge50" class="edge">
<title>course__EOS431&#45;&gt;choice_EOS312_0_0</title>
<path fill="none" stroke="#7a8389" d="M1382.03,-371.92C1387.51,-375.03 1392.99,-378.4 1398,-381.87 1421.07,-397.9 1444.78,-419.28 1461.62,-435.44"/>
<polygon fill="#7a8389" stroke="#7a8389" points="1460.32,-437.59 1467.05,-440.71 1463.73,-434.07 1460.32,-437.59"/>
</g>
<!-- course__EOS431&#45;&gt;choice_EOS401_0_3 -->
<g id="edge81" class="edge">
<title>course__EOS431&#45;&gt;choice_EOS401_0_3</title>
<path fill="none" stroke="#7a8389" d="M1396.65,-353.87C1414.99,-353.87 1435.19,-353.87 1451.63,-353.87"/>
<polygon fill="#7a8389" stroke="#7a8389" points="1451.9,-356.32 1458.9,-353.87 1451.9,-351.42 1451.9,-356.32"/>
</g>
<!-- course__EOS312&#45;&gt;choice_EOS401_0 -->
<g id="edge83" class="edge">
<title>course__EOS312&#45;&gt;choice_EOS401_0</title>
<path fill="none" stroke="#7a8389" d="M1628.21,-452.61C1644.18,-448.8 1664.74,-443.88 1681.84,-439.8"/>
<polygon fill="#7a8389" stroke="#7a8389" points="1682.69,-442.11 1688.93,-438.1 1681.56,-437.35 1682.69,-442.11"/>
</g>
<!-- course__EOS401 -->
<g id="node46" class="node">
<title>course__EOS401</title>
<g id="a_node46"><a xlink:href="../../../courses/EOS401.html" xlink:title="EOS401: Oceanographic Field School" target="_top">
<path fill="#d7e9ef" stroke="#1f4f66" stroke-width="1.6" d="M1846,-449.87C1846,-449.87 1816,-449.87 1816,-449.87 1810,-449.87 1804,-443.87 1804,-437.87 1804,-437.87 1804,-425.87 1804,-425.87 1804,-419.87 1810,-413.87 1816,-413.87 1816,-413.87 1846,-413.87 1846,-413.87 1852,-413.87 1858,-419.87 1858,-425.87 1858,-425.87 1858,-437.87 1858,-437.87 1858,-443.87 1852,-449.87 1846,-449.87"/>
<text text-anchor="middle" x="1831" y="-429.37" font-family="Avenir Next" font-size="10.00" fill="#17232b">EOS401</text>
</a>
</g>
</g>
<!-- choice_BIOL184_0_0&#45;&gt;course__BIOL184 -->
<g id="edge3" class="edge">
<title>choice_BIOL184_0_0&#45;&gt;course__BIOL184</title>
<path fill="none" stroke="#5d6972" stroke-width="1.2" d="M409.01,-1228.87C432.85,-1228.87 468.29,-1228.87 494.38,-1228.87"/>
<polygon fill="#5d6972" stroke="#5d6972" stroke-width="1.2" points="494.48,-1231.32 501.48,-1228.87 494.48,-1226.42 494.48,-1231.32"/>
</g>
<!-- choice_BIOL186_0_0&#45;&gt;course__BIOL186 -->
<g id="edge6" class="edge">
<title>choice_BIOL186_0_0&#45;&gt;course__BIOL186</title>
<path fill="none" stroke="#5d6972" stroke-width="1.2" d="M649.8,-1218.49C632.76,-1212.23 609.91,-1204.74 589,-1200.87 474.98,-1179.8 336.84,-1179.56 273.41,-1180.82"/>
<polygon fill="#5d6972" stroke="#5d6972" stroke-width="1.2" points="273,-1178.38 266.05,-1180.98 273.1,-1183.28 273,-1178.38"/>
</g>
<!-- bundle_CHEM362_0_1&#45;&gt;course__CHEM362 -->
<g id="edge22" class="edge">
<title>bundle_CHEM362_0_1&#45;&gt;course__CHEM362</title>
<path fill="none" stroke="#5d6972" stroke-width="1.2" d="M683.2,-985.87C699.32,-985.87 749.57,-985.87 785.44,-985.87"/>
<polygon fill="#5d6972" stroke="#5d6972" stroke-width="1.2" points="785.85,-988.32 792.85,-985.87 785.85,-983.42 785.85,-988.32"/>
</g>
<!-- bundle_CHEM363_0_1&#45;&gt;course__CHEM363 -->
<g id="edge25" class="edge">
<title>bundle_CHEM363_0_1&#45;&gt;course__CHEM363</title>
<path fill="none" stroke="#5d6972" stroke-width="1.2" d="M683.2,-1108.87C699.32,-1108.87 749.57,-1108.87 785.44,-1108.87"/>
<polygon fill="#5d6972" stroke="#5d6972" stroke-width="1.2" points="785.85,-1111.32 792.85,-1108.87 785.85,-1106.42 785.85,-1111.32"/>
</g>
<!-- choice_EOS261_0_2&#45;&gt;course__EOS261 -->
<g id="edge38" class="edge">
<title>choice_EOS261_0_2&#45;&gt;course__EOS261</title>
<path fill="none" stroke="#5d6972" stroke-width="1.2" d="M692.53,-371.99C719.1,-405.1 775.47,-475.38 805.02,-512.22"/>
<polygon fill="#5d6972" stroke="#5d6972" stroke-width="1.2" points="803.23,-513.9 809.53,-517.83 807.06,-510.84 803.23,-513.9"/>
</g>
<!-- choice_EOS261_0_4&#45;&gt;course__EOS261 -->
<g id="edge39" class="edge">
<title>choice_EOS261_0_4&#45;&gt;course__EOS261</title>
<path fill="none" stroke="#5d6972" stroke-width="1.2" d="M409.27,-529.29C485.48,-530.5 706.6,-534.01 790.86,-535.35"/>
<polygon fill="#5d6972" stroke="#5d6972" stroke-width="1.2" points="790.83,-537.8 797.87,-535.46 790.91,-532.9 790.83,-537.8"/>
</g>
<!-- choice_EOS311_0_2&#45;&gt;course__EOS311 -->
<g id="edge46" class="edge">
<title>choice_EOS311_0_2&#45;&gt;course__EOS311</title>
<path fill="none" stroke="#5d6972" stroke-width="1.2" d="M386.48,-230.78C394.5,-194.03 417.72,-110.3 470,-64.87 550.72,5.27 598.44,8.26 704,-8.87 727.67,-12.72 752.97,-20.56 774.22,-28.29"/>
<polygon fill="#5d6972" stroke="#5d6972" stroke-width="1.2" points="773.55,-30.65 780.97,-30.79 775.25,-26.06 773.55,-30.65"/>
</g>
<!-- choice_EOS311_0_3&#45;&gt;course__EOS311 -->
<g id="edge47" class="edge">
<title>choice_EOS311_0_3&#45;&gt;course__EOS311</title>
<path fill="none" stroke="#5d6972" stroke-width="1.2" d="M704.1,-69.4C721.2,-66.48 744.25,-62.53 765.57,-58.88"/>
<polygon fill="#5d6972" stroke="#5d6972" stroke-width="1.2" points="766.23,-61.25 772.72,-57.66 765.41,-56.42 766.23,-61.25"/>
</g>
<!-- choice_EOS312_0_0&#45;&gt;course__EOS312 -->
<g id="edge51" class="edge">
<title>choice_EOS312_0_0&#45;&gt;course__EOS312</title>
<path fill="none" stroke="#5d6972" stroke-width="1.2" d="M1513.21,-458.87C1529.18,-458.87 1549.74,-458.87 1566.84,-458.87"/>
<polygon fill="#5d6972" stroke="#5d6972" stroke-width="1.2" points="1566.93,-461.32 1573.93,-458.87 1566.93,-456.42 1566.93,-461.32"/>
</g>
<!-- choice_EOS314_0_0&#45;&gt;course__EOS314 -->
<g id="edge60" class="edge">
<title>choice_EOS314_0_0&#45;&gt;course__EOS314</title>
<path fill="none" stroke="#5d6972" stroke-width="1.2" d="M409.11,-314.31C456.43,-330.97 559.83,-365.42 650,-381.87 698.43,-390.71 755.46,-393.97 790.67,-395.17"/>
<polygon fill="#5d6972" stroke="#5d6972" stroke-width="1.2" points="790.77,-397.63 797.85,-395.4 790.93,-392.73 790.77,-397.63"/>
</g>
<!-- choice_EOS314_0_1&#45;&gt;course__EOS314 -->
<g id="edge61" class="edge">
<title>choice_EOS314_0_1&#45;&gt;course__EOS314</title>
<path fill="none" stroke="#5d6972" stroke-width="1.2" d="M700.67,-316.11C717.89,-329.63 742.39,-348.19 765,-362.87 773.4,-368.33 782.75,-373.81 791.49,-378.69"/>
<polygon fill="#5d6972" stroke="#5d6972" stroke-width="1.2" points="790.41,-380.9 797.72,-382.14 792.78,-376.61 790.41,-380.9"/>
</g>
<!-- choice_EOS325_0_0&#45;&gt;course__EOS325 -->
<g id="edge71" class="edge">
<title>choice_EOS325_0_0&#45;&gt;course__EOS325</title>
<path fill="none" stroke="#5d6972" stroke-width="1.2" d="M982.87,-622.75C1003,-581.59 1052.18,-481.05 1075.01,-434.39"/>
<polygon fill="#5d6972" stroke="#5d6972" stroke-width="1.2" points="1077.3,-435.28 1078.17,-427.92 1072.9,-433.13 1077.3,-435.28"/>
</g>
<!-- choice_EOS325_0_1&#45;&gt;course__EOS325 -->
<g id="edge72" class="edge">
<title>choice_EOS325_0_1&#45;&gt;course__EOS325</title>
<path fill="none" stroke="#5d6972" stroke-width="1.2" d="M696.08,-260.16C716.82,-280.79 749.9,-312.56 765,-320.87 815.59,-348.74 982.35,-387.11 1053.91,-402.78"/>
<polygon fill="#5d6972" stroke="#5d6972" stroke-width="1.2" points="1053.58,-405.22 1060.94,-404.31 1054.62,-400.43 1053.58,-405.22"/>
</g>
<!-- choice_EOS325_0_2_0&#45;&gt;course__EOS325 -->
<g id="edge73" class="edge">
<title>choice_EOS325_0_2_0&#45;&gt;course__EOS325</title>
<path fill="none" stroke="#5d6972" stroke-width="1.2" d="M994.99,-489.67C1013.54,-473.58 1040.68,-450.04 1060.68,-432.7"/>
<polygon fill="#5d6972" stroke="#5d6972" stroke-width="1.2" points="1062.44,-434.42 1066.12,-427.98 1059.23,-430.72 1062.44,-434.42"/>
</g>
<!-- choice_EOS340_0&#45;&gt;course__EOS340 -->
<g id="edge76" class="edge">
<title>choice_EOS340_0&#45;&gt;course__EOS340</title>
<path fill="none" stroke="#5d6972" stroke-width="1.2" d="M703.34,-203.95C752.59,-237.24 865.73,-304.87 972,-304.87 972,-304.87 972,-304.87 1089,-304.87 1152.36,-304.87 1172.82,-298.59 1230,-325.87 1263.21,-341.73 1260.97,-360.6 1291,-381.87 1293.9,-383.93 1296.97,-385.94 1300.12,-387.88"/>
<polygon fill="#5d6972" stroke="#5d6972" stroke-width="1.2" points="1299.37,-390.28 1306.64,-391.75 1301.87,-386.07 1299.37,-390.28"/>
</g>
<!-- choice_EOS340_1&#45;&gt;course__EOS340 -->
<g id="edge79" class="edge">
<title>choice_EOS340_1&#45;&gt;course__EOS340</title>
<path fill="none" stroke="#5d6972" stroke-width="1.2" d="M1230.24,-409.87C1245.29,-409.87 1264.84,-409.87 1283.45,-409.87"/>
<polygon fill="#5d6972" stroke="#5d6972" stroke-width="1.2" points="1283.8,-412.32 1290.8,-409.87 1283.8,-407.42 1283.8,-412.32"/>
</g>
<!-- choice_EOS401_0_3&#45;&gt;choice_EOS401_0 -->
<g id="edge85" class="edge">
<title>choice_EOS401_0_3&#45;&gt;choice_EOS401_0</title>
<path fill="none" stroke="#7a8389" d="M1513.15,-362.82C1554.88,-377.1 1636.43,-404.99 1682.07,-420.61"/>
<polygon fill="#7a8389" stroke="#7a8389" points="1681.38,-422.96 1688.8,-422.91 1682.97,-418.33 1681.38,-422.96"/>
</g>
<!-- choice_EOS401_0&#45;&gt;course__EOS401 -->
<g id="edge86" class="edge">
<title>choice_EOS401_0&#45;&gt;course__EOS401</title>
<path fill="none" stroke="#5d6972" stroke-width="1.2" d="M1743.21,-431.87C1759.18,-431.87 1779.74,-431.87 1796.84,-431.87"/>
<polygon fill="#5d6972" stroke="#5d6972" stroke-width="1.2" points="1796.93,-434.32 1803.93,-431.87 1796.93,-429.42 1796.93,-434.32"/>
</g>
<!-- choice_EOS431_0_0&#45;&gt;course__EOS431 -->
<g id="edge92" class="edge">
<title>choice_EOS431_0_0&#45;&gt;course__EOS431</title>
<path fill="none" stroke="#5d6972" stroke-width="1.2" d="M1230.24,-353.87C1245.71,-353.87 1265.92,-353.87 1284.99,-353.87"/>
<polygon fill="#5d6972" stroke="#5d6972" stroke-width="1.2" points="1285.23,-356.32 1292.23,-353.87 1285.23,-351.42 1285.23,-356.32"/>
</g>
<!-- choice_EOS431_0_1&#45;&gt;course__EOS431 -->
<g id="edge93" class="edge">
<title>choice_EOS431_0_1&#45;&gt;course__EOS431</title>
<path fill="none" stroke="#5d6972" stroke-width="1.2" d="M704.24,-136.9C784.19,-158.57 1031.43,-227.45 1230,-302.87 1253.42,-311.77 1278.9,-323.07 1299.78,-332.77"/>
<polygon fill="#5d6972" stroke="#5d6972" stroke-width="1.2" points="1299.01,-335.11 1306.39,-335.86 1301.09,-330.68 1299.01,-335.11"/>
</g>
<!-- choice_PHYS102B_0&#45;&gt;course__PHYS102B -->
<g id="edge99" class="edge">
<title>choice_PHYS102B_0&#45;&gt;course__PHYS102B</title>
<path fill="none" stroke="#5d6972" stroke-width="1.2" d="M402.93,-43.09C428.9,-66.83 474.37,-108.4 502.88,-134.46"/>
<polygon fill="#5d6972" stroke="#5d6972" stroke-width="1.2" points="501.53,-136.54 508.35,-139.45 504.83,-132.92 501.53,-136.54"/>
</g>
</g>
</svg>
