<?xml version="1.0" encoding="UTF-8" standalone="no"?>
<!DOCTYPE svg PUBLIC "-//W3C//DTD SVG 1.1//EN"
 "http://www.w3.org/Graphics/SVG/1.1/DTD/svg11.dtd">
<!-- Generated by graphviz version 2.43.0 (0)
 -->
<!-- Title: BSC&#45;CSSC Pages: 1 -->
<svg width="3239pt" height="2817pt"
 viewBox="0.00 0.00 3238.52 2816.67" xmlns="http://www.w3.org/2000/svg" xmlns:xlink="http://www.w3.org/1999/xlink">
<g id="graph0" class="graph" transform="scale(1 1) rotate(0) translate(32.4 2784.27)">
<title>BSC&#45;CSSC</title>
<g id="clust1" class="cluster">
<title>cluster_year&#45;1</title>
<path fill="#fbfcfd" stroke="#d8dde1" stroke-width="1.2" d="M20,-1568.87C20,-1568.87 884.86,-1568.87 884.86,-1568.87 890.86,-1568.87 896.86,-1574.87 896.86,-1580.87 896.86,-1580.87 896.86,-2224.87 896.86,-2224.87 896.86,-2230.87 890.86,-2236.87 884.86,-2236.87 884.86,-2236.87 20,-2236.87 20,-2236.87 14,-2236.87 8,-2230.87 8,-2224.87 8,-2224.87 8,-1580.87 8,-1580.87 8,-1574.87 14,-1568.87 20,-1568.87"/>
</g>
<g id="clust5" class="cluster">
<title>cluster_year&#45;2</title>
<path fill="#fbfcfd" stroke="#d8dde1" stroke-width="1.2" d="M1104,-563.87C1104,-563.87 2032.86,-563.87 2032.86,-563.87 2038.86,-563.87 2044.86,-569.87 2044.86,-575.87 2044.86,-575.87 2044.86,-1512.87 2044.86,-1512.87 2044.86,-1518.87 2038.86,-1524.87 2032.86,-1524.87 2032.86,-1524.87 1104,-1524.87 1104,-1524.87 1098,-1524.87 1092,-1518.87 1092,-1512.87 1092,-1512.87 1092,-575.87 1092,-575.87 1092,-569.87 1098,-563.87 1104,-563.87"/>
</g>
<g id="clust9" class="cluster">
<title>cluster_years&#45;3&#45;4</title>
<path fill="#fbfcfd" stroke="#d8dde1" stroke-width="1.2" d="M2252,-1097.87C2252,-1097.87 3153.72,-1097.87 3153.72,-1097.87 3159.72,-1097.87 3165.72,-1103.87 3165.72,-1109.87 3165.72,-1109.87 3165.72,-1975.87 3165.72,-1975.87 3165.72,-1981.87 3159.72,-1987.87 3153.72,-1987.87 3153.72,-1987.87 2252,-1987.87 2252,-1987.87 2246,-1987.87 2240,-1981.87 2240,-1975.87 2240,-1975.87 2240,-1109.87 2240,-1109.87 2240,-1103.87 2246,-1097.87 2252,-1097.87"/>
</g>
<!-- course__CHEM091 -->
<g id="node1" class="node">
<title>course__CHEM091</title>
<g id="a_node1"><a xlink:href="../../../courses/CHEM091.html" xlink:title="CHEM091: Introduction to Chemistry" target="_top">
<path fill="#d7e9ef" stroke="#1f4f66" stroke-width="1.6" d="M337,-1864.87C337,-1864.87 297,-1864.87 297,-1864.87 291,-1864.87 285,-1858.87 285,-1852.87 285,-1852.87 285,-1840.87 285,-1840.87 285,-1834.87 291,-1828.87 297,-1828.87 297,-1828.87 337,-1828.87 337,-1828.87 343,-1828.87 349,-1834.87 349,-1840.87 349,-1840.87 349,-1852.87 349,-1852.87 349,-1858.87 343,-1864.87 337,-1864.87"/>
<text text-anchor="middle" x="317" y="-1844.37" font-family="Avenir Next" font-size="10.00" fill="#17232b">CHEM091</text>
</a>
</g>
</g>
<!-- course__CHEM102 -->
<g id="node8" class="node">
<title>course__CHEM102</title>
<g id="a_node8"><a xlink:href="../../../courses/CHEM102.html" xlink:title="CHEM102: Chemical Reactivity Fundamentals with Environmental Applications" target="_top">
<path fill="#d7e9ef" stroke="#1f4f66" stroke-width="1.6" d="M522,-1855.87C522,-1855.87 482,-1855.87 482,-1855.87 476,-1855.87 470,-1849.87 470,-1843.87 470,-1843.87 470,-1831.87 470,-1831.87 470,-1825.87 476,-1819.87 482,-1819.87 482,-1819.87 522,-1819.87 522,-1819.87 528,-1819.87 534,-1825.87 534,-1831.87 534,-1831.87 534,-1843.87 534,-1843.87 534,-1849.87 528,-1855.87 522,-1855.87"/>
<text text-anchor="middle" x="502" y="-1835.37" font-family="Avenir Next" font-size="10.00" fill="#17232b">CHEM102</text>
</a>
</g>
</g>
<!-- course__CHEM091&#45;&gt;course__CHEM102 -->
<g id="edge81" class="edge">
<title>course__CHEM091&#45;&gt;course__CHEM102</title>
<path fill="none" stroke="#5d6972" stroke-width="1.2" d="M349.04,-1845.34C380.33,-1843.8 428.68,-1841.42 462.42,-1839.76"/>
<polygon fill="#5d6972" stroke="#5d6972" stroke-width="1.2" points="462.93,-1842.19 469.8,-1839.4 462.69,-1837.3 462.93,-1842.19"/>
</g>
<!-- year_band__year&#45;1__exit -->
<!-- course__CHEM091&#45;&gt;year_band__year&#45;1__exit -->
<!-- course__CHEM101 -->
<g id="node2" class="node">
<title>course__CHEM101</title>
<g id="a_node2"><a xlink:href="../../../courses/CHEM101.html" xlink:title="Equivalent or cross&#45;listed: CHEM101: Fundamentals of Chemistry from Atoms to Materials | CHEM150: Engineering Chemistry" target="_top">
<path fill="#d7e9ef" stroke="#1f4f66" stroke-width="1.6" d="M365,-1692.87C365,-1692.87 269,-1692.87 269,-1692.87 263,-1692.87 257,-1686.87 257,-1680.87 257,-1680.87 257,-1668.87 257,-1668.87 257,-1662.87 263,-1656.87 269,-1656.87 269,-1656.87 365,-1656.87 365,-1656.87 371,-1656.87 377,-1662.87 377,-1668.87 377,-1668.87 377,-1680.87 377,-1680.87 377,-1686.87 371,-1692.87 365,-1692.87"/>
<text text-anchor="middle" x="317" y="-1672.37" font-family="Avenir Next" font-size="10.00" fill="#17232b">CHEM101 / CHEM150</text>
</a>
</g>
</g>
<!-- course__CHEM101&#45;&gt;course__CHEM102 -->
<g id="edge82" class="edge">
<title>course__CHEM101&#45;&gt;course__CHEM102</title>
<path fill="none" stroke="#5d6972" stroke-width="1.2" d="M359.07,-1692.88C365.36,-1696.43 371.56,-1700.45 377,-1704.87 422.66,-1741.9 417.47,-1767.27 460,-1807.87 462.58,-1810.32 465.36,-1812.75 468.22,-1815.1"/>
<polygon fill="#5d6972" stroke="#5d6972" stroke-width="1.2" points="467.15,-1817.38 474.16,-1819.79 470.18,-1813.53 467.15,-1817.38"/>
</g>
<!-- course__CHEM231 -->
<g id="node14" class="node">
<title>course__CHEM231</title>
<g id="a_node14"><a xlink:href="../../../courses/CHEM231.html" xlink:title="CHEM231: Introduction to Organic Chemistry" target="_top">
<path fill="#d7e9ef" stroke="#1f4f66" stroke-width="1.6" d="M1414.5,-814.87C1414.5,-814.87 1374.5,-814.87 1374.5,-814.87 1368.5,-814.87 1362.5,-808.87 1362.5,-802.87 1362.5,-802.87 1362.5,-790.87 1362.5,-790.87 1362.5,-784.87 1368.5,-778.87 1374.5,-778.87 1374.5,-778.87 1414.5,-778.87 1414.5,-778.87 1420.5,-778.87 1426.5,-784.87 1426.5,-790.87 1426.5,-790.87 1426.5,-802.87 1426.5,-802.87 1426.5,-808.87 1420.5,-814.87 1414.5,-814.87"/>
<text text-anchor="middle" x="1394.5" y="-794.37" font-family="Avenir Next" font-size="10.00" fill="#17232b">CHEM231</text>
</a>
</g>
</g>
<!-- course__CHEM101&#45;&gt;course__CHEM231 -->
<g id="edge86" class="edge">
<title>course__CHEM101&#45;&gt;course__CHEM231</title>
<path fill="none" stroke="#5d6972" stroke-width="1.2" d="M364.88,-1656.69C369.51,-1653.35 373.7,-1649.43 377,-1644.87 520.74,-1445.9 286.5,-1272.49 460,-1098.87 524.51,-1034.31 571.73,-1067.87 663,-1067.87 663,-1067.87 663,-1067.87 953,-1067.87 1073.72,-1067.87 1167.47,-920.97 1341,-820.87 1345.76,-818.12 1350.89,-815.45 1356.01,-812.95"/>
<polygon fill="#5d6972" stroke="#5d6972" stroke-width="1.2" points="1357.2,-815.09 1362.47,-809.87 1355.1,-810.67 1357.2,-815.09"/>
</g>
<!-- course__EOS313 -->
<g id="node26" class="node">
<title>course__EOS313</title>
<g id="a_node26"><a xlink:href="../../../courses/EOS313.html" xlink:title="EOS313: Introductory Geological Oceanography" target="_top">
<path fill="#ead9b8" stroke="#8f6a3b" stroke-width="1.3" d="M2821,-1427.87C2821,-1427.87 2791,-1427.87 2791,-1427.87 2785,-1427.87 2779,-1421.87 2779,-1415.87 2779,-1415.87 2779,-1403.87 2779,-1403.87 2779,-1397.87 2785,-1391.87 2791,-1391.87 2791,-1391.87 2821,-1391.87 2821,-1391.87 2827,-1391.87 2833,-1397.87 2833,-1403.87 2833,-1403.87 2833,-1415.87 2833,-1415.87 2833,-1421.87 2827,-1427.87 2821,-1427.87"/>
<text text-anchor="middle" x="2806" y="-1407.37" font-family="Avenir Next" font-size="10.00" fill="#3f3120">EOS313</text>
</a>
</g>
</g>
<!-- course__CHEM101&#45;&gt;course__EOS313 -->
<g id="edge124" class="edge">
<title>course__CHEM101&#45;&gt;course__EOS313</title>
<path fill="none" stroke="#5d6972" stroke-width="1.2" d="M364.93,-1656.73C369.55,-1653.38 373.73,-1649.45 377,-1644.87 531.11,-1428.98 275.85,-1244.77 460,-1053.87 523.62,-987.92 571.37,-1017.87 663,-1017.87 663,-1017.87 663,-1017.87 953,-1017.87 1229.76,-1017.87 969.77,-682.87 1092,-449.87 1252.02,-144.83 1419.04,-62.87 1763.5,-62.87 1763.5,-62.87 1763.5,-62.87 2467,-62.87 2750.59,-62.87 2798.4,-1200.25 2804.29,-1384.73"/>
<polygon fill="#5d6972" stroke="#5d6972" stroke-width="1.2" points="2801.84,-1384.92 2804.51,-1391.84 2806.74,-1384.77 2801.84,-1384.92"/>
</g>
<!-- course__CHEM101&#45;&gt;year_band__year&#45;1__exit -->
<!-- course__MATH100 -->
<g id="node3" class="node">
<title>course__MATH100</title>
<g id="a_node3"><a xlink:href="../../../courses/MATH100.html" xlink:title="Collapsed in simplified view: MATH100: Calculus I | MATH102: Calculus for Students in the Social and Biological Sciences | MATH109: Introduction to Calculus" target="_top">
<path fill="#d7e9ef" stroke="#1f4f66" stroke-width="1.6" d="M337,-2010.87C337,-2010.87 297,-2010.87 297,-2010.87 291,-2010.87 285,-2004.87 285,-1998.87 285,-1998.87 285,-1986.87 285,-1986.87 285,-1980.87 291,-1974.87 297,-1974.87 297,-1974.87 337,-1974.87 337,-1974.87 343,-1974.87 349,-1980.87 349,-1986.87 349,-1986.87 349,-1998.87 349,-1998.87 349,-2004.87 343,-2010.87 337,-2010.87"/>
<text text-anchor="middle" x="317" y="-1990.37" font-family="Avenir Next" font-size="10.00" fill="#17232b">Calculus I</text>
</a>
</g>
</g>
<!-- course__MATH100&#45;&gt;course__CHEM102 -->
<g id="edge83" class="edge">
<title>course__MATH100&#45;&gt;course__CHEM102</title>
<path fill="none" stroke="#5d6972" stroke-width="1.2" d="M349.1,-1979.37C358.43,-1974.72 368.46,-1969.09 377,-1962.87 418.28,-1932.77 458.51,-1888.7 481.46,-1861.73"/>
<polygon fill="#5d6972" stroke="#5d6972" stroke-width="1.2" points="483.45,-1863.17 486.09,-1856.24 479.71,-1860.01 483.45,-1863.17"/>
</g>
<!-- course__MATH101 -->
<g id="node9" class="node">
<title>course__MATH101</title>
<g id="a_node9"><a xlink:href="../../../courses/MATH101.html" xlink:title="MATH101: Calculus II" target="_top">
<path fill="#d7e9ef" stroke="#1f4f66" stroke-width="1.6" d="M521.5,-1941.87C521.5,-1941.87 482.5,-1941.87 482.5,-1941.87 476.5,-1941.87 470.5,-1935.87 470.5,-1929.87 470.5,-1929.87 470.5,-1917.87 470.5,-1917.87 470.5,-1911.87 476.5,-1905.87 482.5,-1905.87 482.5,-1905.87 521.5,-1905.87 521.5,-1905.87 527.5,-1905.87 533.5,-1911.87 533.5,-1917.87 533.5,-1917.87 533.5,-1929.87 533.5,-1929.87 533.5,-1935.87 527.5,-1941.87 521.5,-1941.87"/>
<text text-anchor="middle" x="502" y="-1921.37" font-family="Avenir Next" font-size="10.00" fill="#17232b">MATH101</text>
</a>
</g>
</g>
<!-- course__MATH100&#45;&gt;course__MATH101 -->
<g id="edge151" class="edge">
<title>course__MATH100&#45;&gt;course__MATH101</title>
<path fill="none" stroke="#5d6972" stroke-width="1.2" d="M349.04,-1981.16C380.65,-1969.24 429.68,-1950.76 463.45,-1938.02"/>
<polygon fill="#5d6972" stroke="#5d6972" stroke-width="1.2" points="464.73,-1940.16 470.42,-1935.4 463,-1935.57 464.73,-1940.16"/>
</g>
<!-- course__PHYS102A -->
<g id="node10" class="node">
<title>course__PHYS102A</title>
<g id="a_node10"><a xlink:href="../../../courses/PHYS102A.html" xlink:title="Collapsed in simplified view: PHYS102A: General Physics I | PHYS110: Introductory Physics I | PHYS120: Physics I" target="_top">
<path fill="#d7e9ef" stroke="#1f4f66" stroke-width="1.6" d="M519.5,-2036.87C519.5,-2036.87 484.5,-2036.87 484.5,-2036.87 478.5,-2036.87 472.5,-2030.87 472.5,-2024.87 472.5,-2024.87 472.5,-2012.87 472.5,-2012.87 472.5,-2006.87 478.5,-2000.87 484.5,-2000.87 484.5,-2000.87 519.5,-2000.87 519.5,-2000.87 525.5,-2000.87 531.5,-2006.87 531.5,-2012.87 531.5,-2012.87 531.5,-2024.87 531.5,-2024.87 531.5,-2030.87 525.5,-2036.87 519.5,-2036.87"/>
<text text-anchor="middle" x="502" y="-2016.37" font-family="Avenir Next" font-size="10.00" fill="#17232b">Physics I</text>
</a>
</g>
</g>
<!-- course__MATH100&#45;&gt;course__PHYS102A -->
<g id="edge154" class="edge">
<title>course__MATH100&#45;&gt;course__PHYS102A</title>
<path fill="none" stroke="#5d6972" stroke-width="1.2" d="M349.04,-1997.28C381.22,-2001.85 431.46,-2008.98 465.27,-2013.79"/>
<polygon fill="#5d6972" stroke="#5d6972" stroke-width="1.2" points="464.95,-2016.22 472.22,-2014.78 465.63,-2011.37 464.95,-2016.22"/>
</g>
<!-- course__CSC110 -->
<g id="node11" class="node">
<title>course__CSC110</title>
<g id="a_node11"><a xlink:href="../../../courses/CSC110.html" xlink:title="Collapsed in simplified view: CSC110: Fundamentals of Programming I | CSC111: Fundamentals of Programming with Engineering Applications" target="_top">
<path fill="#f9f9f9" stroke="#363636" d="M532,-1795.87C532,-1795.87 472,-1795.87 472,-1795.87 466,-1795.87 460,-1789.87 460,-1783.87 460,-1783.87 460,-1771.87 460,-1771.87 460,-1765.87 466,-1759.87 472,-1759.87 472,-1759.87 532,-1759.87 532,-1759.87 538,-1759.87 544,-1765.87 544,-1771.87 544,-1771.87 544,-1783.87 544,-1783.87 544,-1789.87 538,-1795.87 532,-1795.87"/>
<text text-anchor="middle" x="502" y="-1775.67" font-family="Avenir Next" font-size="9.00" fill="#363636">Programming I</text>
</a>
</g>
</g>
<!-- course__MATH100&#45;&gt;course__CSC110 -->
<g id="edge102" class="edge">
<title>course__MATH100&#45;&gt;course__CSC110</title>
<path fill="none" stroke="#5d6972" stroke-width="1.2" d="M349.09,-1981.4C358.85,-1976.73 369.12,-1970.58 377,-1962.87 432.84,-1908.2 408.75,-1866.85 460,-1807.87 462.2,-1805.34 464.65,-1802.9 467.22,-1800.57"/>
<polygon fill="#5d6972" stroke="#5d6972" stroke-width="1.2" points="468.89,-1802.38 472.65,-1795.99 465.73,-1798.63 468.89,-1802.38"/>
</g>
<!-- course__PHYS102B -->
<g id="node12" class="node">
<title>course__PHYS102B</title>
<g id="a_node12"><a xlink:href="../../../courses/PHYS102B.html" xlink:title="Collapsed in simplified view: PHYS102B: General Physics II | PHYS111: Introductory Physics II | PHYS130: Physics II" target="_top">
<path fill="#d7e9ef" stroke="#1f4f66" stroke-width="1.6" d="M683,-2148.87C683,-2148.87 645,-2148.87 645,-2148.87 639,-2148.87 633,-2142.87 633,-2136.87 633,-2136.87 633,-2124.87 633,-2124.87 633,-2118.87 639,-2112.87 645,-2112.87 645,-2112.87 683,-2112.87 683,-2112.87 689,-2112.87 695,-2118.87 695,-2124.87 695,-2124.87 695,-2136.87 695,-2136.87 695,-2142.87 689,-2148.87 683,-2148.87"/>
<text text-anchor="middle" x="664" y="-2128.37" font-family="Avenir Next" font-size="10.00" fill="#17232b">Physics II</text>
</a>
</g>
</g>
<!-- course__MATH100&#45;&gt;course__PHYS102B -->
<g id="edge156" class="edge">
<title>course__MATH100&#45;&gt;course__PHYS102B</title>
<path fill="none" stroke="#5d6972" stroke-width="1.2" d="M349.22,-2005.36C412.89,-2030.82 557.43,-2088.64 625.82,-2115.99"/>
<polygon fill="#5d6972" stroke="#5d6972" stroke-width="1.2" points="625.18,-2118.38 632.59,-2118.7 627,-2113.83 625.18,-2118.38"/>
</g>
<!-- course__MATH100&#45;&gt;year_band__year&#45;1__exit -->
<!-- choice_EOS311_0_2 -->
<g id="node52" class="node">
<title>choice_EOS311_0_2</title>
<path fill="#fff7ee" stroke="#b7793f" stroke-width="1.1" d="M679,-2674.87C679,-2674.87 649,-2674.87 649,-2674.87 643,-2674.87 637,-2668.87 637,-2662.87 637,-2662.87 637,-2650.87 637,-2650.87 637,-2644.87 643,-2638.87 649,-2638.87 649,-2638.87 679,-2638.87 679,-2638.87 685,-2638.87 691,-2644.87 691,-2650.87 691,-2650.87 691,-2662.87 691,-2662.87 691,-2668.87 685,-2674.87 679,-2674.87"/>
<text text-anchor="middle" x="664" y="-2654.67" font-family="Avenir Next" font-size="9.00">2 of</text>
</g>
<!-- course__MATH100&#45;&gt;choice_EOS311_0_2 -->
<g id="edge112" class="edge">
<title>course__MATH100&#45;&gt;choice_EOS311_0_2</title>
<path fill="none" stroke="#7a8389" d="M319.99,-2011.03C327.9,-2076.94 361.58,-2308.04 460,-2466.87 505.38,-2540.1 586.16,-2603.58 630.92,-2635.3"/>
<polygon fill="#7a8389" stroke="#7a8389" points="629.59,-2637.36 636.72,-2639.38 632.41,-2633.35 629.59,-2637.36"/>
</g>
<!-- course__EOS110 -->
<g id="node4" class="node">
<title>course__EOS110</title>
<g id="a_node4"><a xlink:href="../../../courses/EOS110.html" xlink:title="Equivalent or cross&#45;listed: EOS110: Oceans and Atmosphere | EOS350: Understanding the Oceans" target="_top">
<path fill="#f9f9f9" stroke="#363636" d="M354.5,-1752.87C354.5,-1752.87 279.5,-1752.87 279.5,-1752.87 273.5,-1752.87 267.5,-1746.87 267.5,-1740.87 267.5,-1740.87 267.5,-1728.87 267.5,-1728.87 267.5,-1722.87 273.5,-1716.87 279.5,-1716.87 279.5,-1716.87 354.5,-1716.87 354.5,-1716.87 360.5,-1716.87 366.5,-1722.87 366.5,-1728.87 366.5,-1728.87 366.5,-1740.87 366.5,-1740.87 366.5,-1746.87 360.5,-1752.87 354.5,-1752.87"/>
<text text-anchor="middle" x="317" y="-1732.67" font-family="Avenir Next" font-size="9.00" fill="#363636">EOS110 / EOS350</text>
</a>
</g>
</g>
<!-- course__EOS230 -->
<g id="node15" class="node">
<title>course__EOS230</title>
<g id="a_node15"><a xlink:href="../../../courses/EOS230.html" xlink:title="Equivalent or cross&#45;listed: EOS230: Introduction to Environmental Data Analysis | GEOG230: Introduction to Environmental Data Analysis" target="_top">
<path fill="#f9f9f9" stroke="#363636" d="M1436,-728.87C1436,-728.87 1353,-728.87 1353,-728.87 1347,-728.87 1341,-722.87 1341,-716.87 1341,-716.87 1341,-704.87 1341,-704.87 1341,-698.87 1347,-692.87 1353,-692.87 1353,-692.87 1436,-692.87 1436,-692.87 1442,-692.87 1448,-698.87 1448,-704.87 1448,-704.87 1448,-716.87 1448,-716.87 1448,-722.87 1442,-728.87 1436,-728.87"/>
<text text-anchor="middle" x="1394.5" y="-708.67" font-family="Avenir Next" font-size="9.00" fill="#363636">EOS230 / GEOG230</text>
</a>
</g>
</g>
<!-- course__EOS110&#45;&gt;course__EOS230 -->
<g id="edge105" class="edge">
<title>course__EOS110&#45;&gt;course__EOS230</title>
<path fill="none" stroke="#5d6972" stroke-width="1.2" d="M364.36,-1716.73C369.15,-1713.37 373.52,-1709.44 377,-1704.87 488.61,-1558.36 368.44,-1458.67 460,-1298.87 520.09,-1193.98 542.12,-1117.87 663,-1117.87 663,-1117.87 663,-1117.87 785,-1117.87 902.64,-1117.87 937.48,-1099.6 1037,-1036.87 1198.11,-935.31 1184.4,-843.25 1341,-734.87 1342.14,-734.07 1343.32,-733.3 1344.51,-732.54"/>
<polygon fill="#5d6972" stroke="#5d6972" stroke-width="1.2" points="1345.91,-734.56 1350.67,-728.87 1343.4,-730.35 1345.91,-734.56"/>
</g>
<!-- course__EOS261 -->
<g id="node24" class="node">
<title>course__EOS261</title>
<g id="a_node24"><a xlink:href="../../../courses/EOS261.html" xlink:title="EOS261: The Climate System" target="_top">
<path fill="#f9f9f9" stroke="#363636" d="M1779.5,-1125.87C1779.5,-1125.87 1749.5,-1125.87 1749.5,-1125.87 1743.5,-1125.87 1737.5,-1119.87 1737.5,-1113.87 1737.5,-1113.87 1737.5,-1101.87 1737.5,-1101.87 1737.5,-1095.87 1743.5,-1089.87 1749.5,-1089.87 1749.5,-1089.87 1779.5,-1089.87 1779.5,-1089.87 1785.5,-1089.87 1791.5,-1095.87 1791.5,-1101.87 1791.5,-1101.87 1791.5,-1113.87 1791.5,-1113.87 1791.5,-1119.87 1785.5,-1125.87 1779.5,-1125.87"/>
<text text-anchor="middle" x="1764.5" y="-1105.67" font-family="Avenir Next" font-size="9.00" fill="#363636">EOS261</text>
</a>
</g>
</g>
<!-- course__EOS110&#45;&gt;course__EOS261 -->
<g id="edge108" class="edge">
<title>course__EOS110&#45;&gt;course__EOS261</title>
<path fill="none" stroke="#5d6972" stroke-width="1.2" d="M358.11,-1716.76C364.65,-1713.17 371.18,-1709.17 377,-1704.87 505.64,-1609.74 479.74,-1508.39 627,-1445.87 704.43,-1412.99 881.94,-1495.06 896.86,-1501.87 991.02,-1544.79 992.8,-1599.43 1092,-1628.87 1126.94,-1639.23 1139.92,-1641.77 1174,-1628.87 1452.49,-1523.44 1684.19,-1219.71 1746.81,-1131.91"/>
<polygon fill="#5d6972" stroke="#5d6972" stroke-width="1.2" points="1748.98,-1133.09 1751.03,-1125.96 1744.98,-1130.26 1748.98,-1133.09"/>
</g>
<!-- choice_EOS312_0_0 -->
<g id="node53" class="node">
<title>choice_EOS312_0_0</title>
<path fill="#fff7ee" stroke="#b7793f" stroke-width="1.1" d="M2821,-2111.87C2821,-2111.87 2791,-2111.87 2791,-2111.87 2785,-2111.87 2779,-2105.87 2779,-2099.87 2779,-2099.87 2779,-2087.87 2779,-2087.87 2779,-2081.87 2785,-2075.87 2791,-2075.87 2791,-2075.87 2821,-2075.87 2821,-2075.87 2827,-2075.87 2833,-2081.87 2833,-2087.87 2833,-2087.87 2833,-2099.87 2833,-2099.87 2833,-2105.87 2827,-2111.87 2821,-2111.87"/>
<text text-anchor="middle" x="2806" y="-2091.67" font-family="Avenir Next" font-size="9.00">1 of</text>
</g>
<!-- course__EOS110&#45;&gt;choice_EOS312_0_0 -->
<g id="edge118" class="edge">
<title>course__EOS110&#45;&gt;choice_EOS312_0_0</title>
<path fill="none" stroke="#7a8389" d="M334.43,-1753.06C347.82,-1768.84 366.22,-1792.87 377,-1816.87 555.06,-2213.27 228.44,-2751.87 663,-2751.87 663,-2751.87 663,-2751.87 2467,-2751.87 2756.95,-2751.87 2798.37,-2240.08 2804.1,-2119.22"/>
<polygon fill="#7a8389" stroke="#7a8389" points="2806.55,-2119.25 2804.42,-2112.15 2801.66,-2119.03 2806.55,-2119.25"/>
</g>
<!-- course__EOS120 -->
<g id="node5" class="node">
<title>course__EOS120</title>
<g id="a_node5"><a xlink:href="../../../courses/EOS120.html" xlink:title="EOS120: The Dynamic Earth" target="_top">
<path fill="#f9f9f9" stroke="#363636" d="M332,-1632.87C332,-1632.87 302,-1632.87 302,-1632.87 296,-1632.87 290,-1626.87 290,-1620.87 290,-1620.87 290,-1608.87 290,-1608.87 290,-1602.87 296,-1596.87 302,-1596.87 302,-1596.87 332,-1596.87 332,-1596.87 338,-1596.87 344,-1602.87 344,-1608.87 344,-1608.87 344,-1620.87 344,-1620.87 344,-1626.87 338,-1632.87 332,-1632.87"/>
<text text-anchor="middle" x="317" y="-1612.67" font-family="Avenir Next" font-size="9.00" fill="#363636">EOS120</text>
</a>
</g>
</g>
<!-- course__EOS120&#45;&gt;course__EOS313 -->
<g id="edge123" class="edge">
<title>course__EOS120&#45;&gt;course__EOS313</title>
<path fill="none" stroke="#5d6972" stroke-width="1.2" d="M319.48,-1596.82C327.48,-1504.25 368.48,-1083.77 460,-998.87 526.91,-936.79 571.73,-967.87 663,-967.87 663,-967.87 663,-967.87 953,-967.87 1245.38,-967.87 936.21,-572.28 1092,-324.87 1267.35,-46.39 1434.41,-12.87 1763.5,-12.87 1763.5,-12.87 1763.5,-12.87 2467,-12.87 2569.71,-12.87 2625.4,30.73 2696,-43.87 2791.83,-145.11 2803.55,-1206.01 2804.85,-1384.46"/>
<polygon fill="#5d6972" stroke="#5d6972" stroke-width="1.2" points="2802.4,-1384.61 2804.9,-1391.59 2807.3,-1384.58 2802.4,-1384.61"/>
</g>
<!-- course__MATH151 -->
<g id="node6" class="node">
<title>course__MATH151</title>
<g id="a_node6"><a xlink:href="../../../courses/MATH151.html" xlink:title="MATH151: Finite Mathematics" target="_top">
<path fill="#f9f9f9" stroke="#363636" d="M334.5,-1950.87C334.5,-1950.87 299.5,-1950.87 299.5,-1950.87 293.5,-1950.87 287.5,-1944.87 287.5,-1938.87 287.5,-1938.87 287.5,-1926.87 287.5,-1926.87 287.5,-1920.87 293.5,-1914.87 299.5,-1914.87 299.5,-1914.87 334.5,-1914.87 334.5,-1914.87 340.5,-1914.87 346.5,-1920.87 346.5,-1926.87 346.5,-1926.87 346.5,-1938.87 346.5,-1938.87 346.5,-1944.87 340.5,-1950.87 334.5,-1950.87"/>
<text text-anchor="middle" x="317" y="-1930.67" font-family="Avenir Next" font-size="9.00" fill="#363636">MATH151</text>
</a>
</g>
</g>
<!-- choice_EOS261_0_4 -->
<g id="node51" class="node">
<title>choice_EOS261_0_4</title>
<path fill="#fff7ee" stroke="#b7793f" stroke-width="1.1" d="M679,-1540.87C679,-1540.87 649,-1540.87 649,-1540.87 643,-1540.87 637,-1534.87 637,-1528.87 637,-1528.87 637,-1516.87 637,-1516.87 637,-1510.87 643,-1504.87 649,-1504.87 649,-1504.87 679,-1504.87 679,-1504.87 685,-1504.87 691,-1510.87 691,-1516.87 691,-1516.87 691,-1528.87 691,-1528.87 691,-1534.87 685,-1540.87 679,-1540.87"/>
<text text-anchor="middle" x="664" y="-1520.67" font-family="Avenir Next" font-size="9.00">1 of</text>
</g>
<!-- course__MATH151&#45;&gt;choice_EOS261_0_4 -->
<g id="edge107" class="edge">
<title>course__MATH151&#45;&gt;choice_EOS261_0_4</title>
<path fill="none" stroke="#7a8389" d="M339.41,-1914.81C351.18,-1904.35 365.65,-1890.57 377,-1876.87 420.48,-1824.35 418.58,-1802.02 460,-1747.87 519.8,-1669.67 600.62,-1585.59 639.8,-1546"/>
<polygon fill="#7a8389" stroke="#7a8389" points="641.62,-1547.63 644.81,-1540.94 638.15,-1544.18 641.62,-1547.63"/>
</g>
<!-- course__MATH151&#45;&gt;choice_EOS311_0_2 -->
<g id="edge114" class="edge">
<title>course__MATH151&#45;&gt;choice_EOS311_0_2</title>
<path fill="none" stroke="#7a8389" d="M346.69,-1942.33C357.39,-1947.06 368.9,-1953.77 377,-1962.87 447.61,-2042.15 422.49,-2087.54 460,-2186.87 533.02,-2380.21 514.37,-2447.58 627,-2620.87 629.85,-2625.25 633.3,-2629.52 636.93,-2633.51"/>
<polygon fill="#7a8389" stroke="#7a8389" points="635.33,-2635.39 641.94,-2638.76 638.87,-2632 635.33,-2635.39"/>
</g>
<!-- course__BIOL186 -->
<g id="node7" class="node">
<title>course__BIOL186</title>
<g id="a_node7"><a xlink:href="../../../courses/BIOL186.html" xlink:title="BIOL186: Physiology and Cell Biology" target="_top">
<path fill="#d7e9ef" stroke="#1f4f66" stroke-width="1.6" d="M518.5,-2174.87C518.5,-2174.87 485.5,-2174.87 485.5,-2174.87 479.5,-2174.87 473.5,-2168.87 473.5,-2162.87 473.5,-2162.87 473.5,-2150.87 473.5,-2150.87 473.5,-2144.87 479.5,-2138.87 485.5,-2138.87 485.5,-2138.87 518.5,-2138.87 518.5,-2138.87 524.5,-2138.87 530.5,-2144.87 530.5,-2150.87 530.5,-2150.87 530.5,-2162.87 530.5,-2162.87 530.5,-2168.87 524.5,-2174.87 518.5,-2174.87"/>
<text text-anchor="middle" x="502" y="-2154.37" font-family="Avenir Next" font-size="10.00" fill="#17232b">BIOL186</text>
</a>
</g>
</g>
<!-- course__BIOL150A -->
<g id="node13" class="node">
<title>course__BIOL150A</title>
<g id="a_node13"><a xlink:href="../../../courses/BIOL150A.html" xlink:title="Collapsed in simplified view: BIOL150A: Modern Biology | BIOL184: Evolution and Biodiversity" target="_top">
<path fill="#f9f9f9" stroke="#363636" d="M689,-2208.87C689,-2208.87 639,-2208.87 639,-2208.87 633,-2208.87 627,-2202.87 627,-2196.87 627,-2196.87 627,-2184.87 627,-2184.87 627,-2178.87 633,-2172.87 639,-2172.87 639,-2172.87 689,-2172.87 689,-2172.87 695,-2172.87 701,-2178.87 701,-2184.87 701,-2184.87 701,-2196.87 701,-2196.87 701,-2202.87 695,-2208.87 689,-2208.87"/>
<text text-anchor="middle" x="664" y="-2188.67" font-family="Avenir Next" font-size="9.00" fill="#363636">Intro biology</text>
</a>
</g>
</g>
<!-- course__BIOL186&#45;&gt;course__BIOL150A -->
<g id="edge79" class="edge">
<title>course__BIOL186&#45;&gt;course__BIOL150A</title>
<path fill="none" stroke="#5d6972" stroke-width="1.2" d="M530.5,-2155.72C555.05,-2158.7 591.4,-2166.05 619.82,-2173.6"/>
<polygon fill="#5d6972" stroke="#5d6972" stroke-width="1.2" points="619.47,-2176.04 626.86,-2175.52 620.75,-2171.31 619.47,-2176.04"/>
</g>
<!-- course__BIOL186&#45;&gt;year_band__year&#45;1__exit -->
<!-- course__CHEM212 -->
<g id="node16" class="node">
<title>course__CHEM212</title>
<g id="a_node16"><a xlink:href="../../../courses/CHEM212.html" xlink:title="CHEM212: Introduction to Quantitative Analysis" target="_top">
<path fill="#d7e9ef" stroke="#1f4f66" stroke-width="1.6" d="M1610.5,-747.87C1610.5,-747.87 1570.5,-747.87 1570.5,-747.87 1564.5,-747.87 1558.5,-741.87 1558.5,-735.87 1558.5,-735.87 1558.5,-723.87 1558.5,-723.87 1558.5,-717.87 1564.5,-711.87 1570.5,-711.87 1570.5,-711.87 1610.5,-711.87 1610.5,-711.87 1616.5,-711.87 1622.5,-717.87 1622.5,-723.87 1622.5,-723.87 1622.5,-735.87 1622.5,-735.87 1622.5,-741.87 1616.5,-747.87 1610.5,-747.87"/>
<text text-anchor="middle" x="1590.5" y="-727.37" font-family="Avenir Next" font-size="10.00" fill="#17232b">CHEM212</text>
</a>
</g>
</g>
<!-- course__CHEM102&#45;&gt;course__CHEM212 -->
<g id="edge84" class="edge">
<title>course__CHEM102&#45;&gt;course__CHEM212</title>
<path fill="none" stroke="#5d6972" stroke-width="1.2" d="M533.18,-1819.81C537.29,-1816.28 541.09,-1812.29 544,-1807.87 634.77,-1670 497.9,-1548.72 627,-1445.87 701.5,-1386.51 723.75,-1250.57 1037,-1476.87 1086.53,-1512.65 1040.88,-1569.4 1092,-1602.87 1122.49,-1622.83 1144.93,-1624.84 1174,-1602.87 1281.96,-1521.24 1180.81,-1421.73 1257,-1309.87 1283.42,-1271.07 1300.66,-1269.85 1341,-1245.87 1385.8,-1219.23 1415.71,-1238.78 1448,-1197.87 1570.76,-1042.34 1412.34,-918.54 1531,-759.87 1536.34,-752.72 1543.87,-747.15 1551.75,-742.85"/>
<polygon fill="#5d6972" stroke="#5d6972" stroke-width="1.2" points="1553.25,-744.84 1558.42,-739.53 1551.06,-740.45 1553.25,-744.84"/>
</g>
<!-- course__CHEM225 -->
<g id="node17" class="node">
<title>course__CHEM225</title>
<g id="a_node17"><a xlink:href="../../../courses/CHEM225.html" xlink:title="CHEM225: Introduction to Inorganic Chemistry" target="_top">
<path fill="#d7e9ef" stroke="#1f4f66" stroke-width="1.6" d="M1610.5,-867.87C1610.5,-867.87 1570.5,-867.87 1570.5,-867.87 1564.5,-867.87 1558.5,-861.87 1558.5,-855.87 1558.5,-855.87 1558.5,-843.87 1558.5,-843.87 1558.5,-837.87 1564.5,-831.87 1570.5,-831.87 1570.5,-831.87 1610.5,-831.87 1610.5,-831.87 1616.5,-831.87 1622.5,-837.87 1622.5,-843.87 1622.5,-843.87 1622.5,-855.87 1622.5,-855.87 1622.5,-861.87 1616.5,-867.87 1610.5,-867.87"/>
<text text-anchor="middle" x="1590.5" y="-847.37" font-family="Avenir Next" font-size="10.00" fill="#17232b">CHEM225</text>
</a>
</g>
</g>
<!-- course__CHEM102&#45;&gt;course__CHEM225 -->
<g id="edge85" class="edge">
<title>course__CHEM102&#45;&gt;course__CHEM225</title>
<path fill="none" stroke="#5d6972" stroke-width="1.2" d="M533.06,-1819.73C537.18,-1816.21 541.02,-1812.24 544,-1807.87 625.55,-1688.24 512.32,-1581.24 627,-1492.87 682.06,-1450.44 825.33,-1501.77 896.86,-1542.87 1030.86,-1619.85 1042.97,-1834.8 1174,-1752.87 1317.76,-1662.97 1244.17,-1549.05 1341,-1409.87 1380.32,-1353.35 1416.25,-1358.95 1448,-1297.87 1535.34,-1129.8 1416.91,-1031.05 1531,-879.87 1536.37,-872.75 1543.91,-867.18 1551.8,-862.88"/>
<polygon fill="#5d6972" stroke="#5d6972" stroke-width="1.2" points="1553.29,-864.87 1558.46,-859.56 1551.11,-860.49 1553.29,-864.87"/>
</g>
<!-- course__CHEM234 -->
<g id="node18" class="node">
<title>course__CHEM234</title>
<g id="a_node18"><a xlink:href="../../../courses/CHEM234.html" xlink:title="CHEM234: Organic Chemistry with Biological Applications" target="_top">
<path fill="#d7e9ef" stroke="#1f4f66" stroke-width="1.6" d="M1610.5,-687.87C1610.5,-687.87 1570.5,-687.87 1570.5,-687.87 1564.5,-687.87 1558.5,-681.87 1558.5,-675.87 1558.5,-675.87 1558.5,-663.87 1558.5,-663.87 1558.5,-657.87 1564.5,-651.87 1570.5,-651.87 1570.5,-651.87 1610.5,-651.87 1610.5,-651.87 1616.5,-651.87 1622.5,-657.87 1622.5,-663.87 1622.5,-663.87 1622.5,-675.87 1622.5,-675.87 1622.5,-681.87 1616.5,-687.87 1610.5,-687.87"/>
<text text-anchor="middle" x="1590.5" y="-667.37" font-family="Avenir Next" font-size="10.00" fill="#17232b">CHEM234</text>
</a>
</g>
</g>
<!-- course__CHEM102&#45;&gt;course__CHEM234 -->
<g id="edge87" class="edge">
<title>course__CHEM102&#45;&gt;course__CHEM234</title>
<path fill="none" stroke="#5d6972" stroke-width="1.2" d="M533.74,-1819.55C537.67,-1816.1 541.27,-1812.19 544,-1807.87 650.18,-1639.55 483.43,-1505.67 627,-1367.87 713.53,-1284.81 787.36,-1319.93 896.86,-1368.87 967.19,-1400.3 983.58,-1415.36 1037,-1470.87 1067.43,-1502.48 1053.28,-1532.21 1092,-1552.87 1124.16,-1570.02 1144.46,-1574.21 1174,-1552.87 1269.24,-1484.05 1201.21,-1405.27 1257,-1301.87 1285.54,-1248.96 1293.56,-1232.78 1341,-1195.87 1382.14,-1163.86 1415.79,-1188.84 1448,-1147.87 1573.14,-988.66 1410.06,-862.28 1531,-699.87 1536.33,-692.71 1543.85,-687.13 1551.73,-682.83"/>
<polygon fill="#5d6972" stroke="#5d6972" stroke-width="1.2" points="1553.23,-684.82 1558.4,-679.51 1551.04,-680.44 1553.23,-684.82"/>
</g>
<!-- course__CHEM245 -->
<g id="node19" class="node">
<title>course__CHEM245</title>
<g id="a_node19"><a xlink:href="../../../courses/CHEM245.html" xlink:title="CHEM245: Introduction to Thermodynamics" target="_top">
<path fill="#d7e9ef" stroke="#1f4f66" stroke-width="1.6" d="M1610.5,-807.87C1610.5,-807.87 1570.5,-807.87 1570.5,-807.87 1564.5,-807.87 1558.5,-801.87 1558.5,-795.87 1558.5,-795.87 1558.5,-783.87 1558.5,-783.87 1558.5,-777.87 1564.5,-771.87 1570.5,-771.87 1570.5,-771.87 1610.5,-771.87 1610.5,-771.87 1616.5,-771.87 1622.5,-777.87 1622.5,-783.87 1622.5,-783.87 1622.5,-795.87 1622.5,-795.87 1622.5,-801.87 1616.5,-807.87 1610.5,-807.87"/>
<text text-anchor="middle" x="1590.5" y="-787.37" font-family="Avenir Next" font-size="10.00" fill="#17232b">CHEM245</text>
</a>
</g>
</g>
<!-- course__CHEM102&#45;&gt;course__CHEM245 -->
<g id="edge89" class="edge">
<title>course__CHEM102&#45;&gt;course__CHEM245</title>
<path fill="none" stroke="#5d6972" stroke-width="1.2" d="M533.12,-1819.77C537.24,-1816.25 541.05,-1812.26 544,-1807.87 629.86,-1679.71 505.58,-1566.01 627,-1470.87 682.59,-1427.3 716.45,-1470.85 785,-1487.87 835.31,-1500.35 849.98,-1498.75 896.86,-1520.87 991.56,-1565.54 991.89,-1622.19 1092,-1652.87 1126.84,-1663.54 1143.25,-1672.43 1174,-1652.87 1321.79,-1558.84 1216.16,-1418.74 1341,-1295.87 1378.15,-1259.3 1415.62,-1288.71 1448,-1247.87 1568.38,-1096.03 1414.62,-974.79 1531,-819.87 1536.36,-812.74 1543.89,-807.16 1551.78,-802.86"/>
<polygon fill="#5d6972" stroke="#5d6972" stroke-width="1.2" points="1553.27,-804.86 1558.44,-799.54 1551.08,-800.47 1553.27,-804.86"/>
</g>
<!-- course__CHEM260 -->
<g id="node20" class="node">
<title>course__CHEM260</title>
<g id="a_node20"><a xlink:href="../../../courses/CHEM260.html" xlink:title="CHEM260: Synthetic Chemistry Laboratory" target="_top">
<path fill="#d7e9ef" stroke="#1f4f66" stroke-width="1.6" d="M1610.5,-627.87C1610.5,-627.87 1570.5,-627.87 1570.5,-627.87 1564.5,-627.87 1558.5,-621.87 1558.5,-615.87 1558.5,-615.87 1558.5,-603.87 1558.5,-603.87 1558.5,-597.87 1564.5,-591.87 1570.5,-591.87 1570.5,-591.87 1610.5,-591.87 1610.5,-591.87 1616.5,-591.87 1622.5,-597.87 1622.5,-603.87 1622.5,-603.87 1622.5,-615.87 1622.5,-615.87 1622.5,-621.87 1616.5,-627.87 1610.5,-627.87"/>
<text text-anchor="middle" x="1590.5" y="-607.37" font-family="Avenir Next" font-size="10.00" fill="#17232b">CHEM260</text>
</a>
</g>
</g>
<!-- course__CHEM102&#45;&gt;course__CHEM260 -->
<g id="edge90" class="edge">
<title>course__CHEM102&#45;&gt;course__CHEM260</title>
<path fill="none" stroke="#5d6972" stroke-width="1.2" d="M533.82,-1819.6C537.74,-1816.14 541.31,-1812.22 544,-1807.87 660.5,-1619.17 457.65,-1459.04 627,-1315.87 631.33,-1312.2 780.36,-1317.16 785,-1317.87 836.12,-1325.65 850.27,-1327.43 896.86,-1349.87 924.46,-1363.16 928.86,-1371 953,-1389.87 961.01,-1396.13 1082.46,-1505.34 1092,-1508.87 1126.18,-1521.5 1143.95,-1529.48 1174,-1508.87 1258.47,-1450.93 1218.76,-1388.89 1257,-1293.87 1264.35,-1275.59 1517.62,-654.32 1531,-639.87 1536.82,-633.58 1544.24,-628.41 1551.84,-624.23"/>
<polygon fill="#5d6972" stroke="#5d6972" stroke-width="1.2" points="1553.12,-626.33 1558.23,-620.95 1550.89,-621.97 1553.12,-626.33"/>
</g>
<!-- course__CHEM102&#45;&gt;course__EOS261 -->
<g id="edge109" class="edge">
<title>course__CHEM102&#45;&gt;course__EOS261</title>
<path fill="none" stroke="#5d6972" stroke-width="1.2" d="M518.97,-1855.9C527.5,-1866.35 537.53,-1880.13 544,-1893.87 659.06,-2138.09 514.03,-2451.87 784,-2451.87 784,-2451.87 784,-2451.87 869.5,-2451.87 1282.91,-2451.87 1476.5,-2321.1 1650,-1945.87 1719.71,-1795.11 1754.86,-1256.22 1762.08,-1133.06"/>
<polygon fill="#5d6972" stroke="#5d6972" stroke-width="1.2" points="1764.54,-1133.01 1762.5,-1125.88 1759.65,-1132.72 1764.54,-1133.01"/>
</g>
<!-- course__EOS311 -->
<g id="node33" class="node">
<title>course__EOS311</title>
<g id="a_node33"><a xlink:href="../../../courses/EOS311.html" xlink:title="Equivalent or cross&#45;listed: BIOL311: Biological Oceanography | EOS311: Biological Oceanography" target="_top">
<path fill="#ead9b8" stroke="#8f6a3b" stroke-width="1.3" d="M2676,-1959.87C2676,-1959.87 2596,-1959.87 2596,-1959.87 2590,-1959.87 2584,-1953.87 2584,-1947.87 2584,-1947.87 2584,-1935.87 2584,-1935.87 2584,-1929.87 2590,-1923.87 2596,-1923.87 2596,-1923.87 2676,-1923.87 2676,-1923.87 2682,-1923.87 2688,-1929.87 2688,-1935.87 2688,-1935.87 2688,-1947.87 2688,-1947.87 2688,-1953.87 2682,-1959.87 2676,-1959.87"/>
<text text-anchor="middle" x="2636" y="-1939.37" font-family="Avenir Next" font-size="10.00" fill="#3f3120">BIOL311 / EOS311</text>
</a>
</g>
</g>
<!-- course__CHEM102&#45;&gt;course__EOS311 -->
<g id="edge115" class="edge">
<title>course__CHEM102&#45;&gt;course__EOS311</title>
<path fill="none" stroke="#5d6972" stroke-width="1.2" d="M519.88,-1856.17C528.46,-1866.5 538.26,-1880.07 544,-1893.87 634.91,-2112.38 488.91,-2227.66 627,-2419.87 672.93,-2483.8 705.28,-2501.87 784,-2501.87 784,-2501.87 784,-2501.87 1765.5,-2501.87 1928.43,-2501.87 1937.07,-2651.87 2100,-2651.87 2100,-2651.87 2100,-2651.87 2313,-2651.87 2401.85,-2651.87 2437.66,-2634.38 2493,-2564.87 2569.66,-2468.56 2620.12,-2071.04 2632.2,-1966.92"/>
<polygon fill="#5d6972" stroke="#5d6972" stroke-width="1.2" points="2634.63,-1967.18 2633,-1959.94 2629.77,-1966.62 2634.63,-1967.18"/>
</g>
<!-- course__EOS312 -->
<g id="node38" class="node">
<title>course__EOS312</title>
<g id="a_node38"><a xlink:href="../../../courses/EOS312.html" xlink:title="EOS312: Introductory Chemical Oceanography" target="_top">
<path fill="#d7e9ef" stroke="#1f4f66" stroke-width="1.6" d="M2651,-1899.87C2651,-1899.87 2621,-1899.87 2621,-1899.87 2615,-1899.87 2609,-1893.87 2609,-1887.87 2609,-1887.87 2609,-1875.87 2609,-1875.87 2609,-1869.87 2615,-1863.87 2621,-1863.87 2621,-1863.87 2651,-1863.87 2651,-1863.87 2657,-1863.87 2663,-1869.87 2663,-1875.87 2663,-1875.87 2663,-1887.87 2663,-1887.87 2663,-1893.87 2657,-1899.87 2651,-1899.87"/>
<text text-anchor="middle" x="2636" y="-1879.37" font-family="Avenir Next" font-size="10.00" fill="#17232b">EOS312</text>
</a>
</g>
</g>
<!-- course__CHEM102&#45;&gt;course__EOS312 -->
<g id="edge122" class="edge">
<title>course__CHEM102&#45;&gt;course__EOS312</title>
<path fill="none" stroke="#5d6972" stroke-width="1.2" d="M520.02,-1856.12C528.64,-1866.43 538.43,-1880 544,-1893.87 596.37,-2024.29 530.81,-2418.39 627,-2520.87 675.68,-2572.73 712.88,-2551.87 784,-2551.87 784,-2551.87 784,-2551.87 1765.5,-2551.87 1847.95,-2551.87 2435.63,-2465.08 2493,-2405.87 2647.92,-2245.97 2444.22,-2091.31 2576,-1911.87 2582.47,-1903.06 2592.27,-1896.66 2602.03,-1892.09"/>
<polygon fill="#5d6972" stroke="#5d6972" stroke-width="1.2" points="2603.28,-1894.22 2608.75,-1889.21 2601.35,-1889.72 2603.28,-1894.22"/>
</g>
<!-- course__CHEM102&#45;&gt;year_band__year&#45;1__exit -->
<!-- course__MATH101&#45;&gt;course__PHYS102B -->
<g id="edge157" class="edge">
<title>course__MATH101&#45;&gt;course__PHYS102B</title>
<path fill="none" stroke="#5d6972" stroke-width="1.2" d="M516.92,-1941.87C545.82,-1979.26 612.33,-2065.31 644.67,-2107.15"/>
<polygon fill="#5d6972" stroke="#5d6972" stroke-width="1.2" points="642.78,-2108.71 649,-2112.75 646.66,-2105.71 642.78,-2108.71"/>
</g>
<!-- course__MATH200 -->
<g id="node21" class="node">
<title>course__MATH200</title>
<g id="a_node21"><a xlink:href="../../../courses/MATH200.html" xlink:title="Equivalent or cross&#45;listed: MATH200: Calculus III | MATH202: Intermediate Calculus for CSC and EOS" target="_top">
<path fill="#d7e9ef" stroke="#1f4f66" stroke-width="1.6" d="M1638,-987.87C1638,-987.87 1543,-987.87 1543,-987.87 1537,-987.87 1531,-981.87 1531,-975.87 1531,-975.87 1531,-963.87 1531,-963.87 1531,-957.87 1537,-951.87 1543,-951.87 1543,-951.87 1638,-951.87 1638,-951.87 1644,-951.87 1650,-957.87 1650,-963.87 1650,-963.87 1650,-975.87 1650,-975.87 1650,-981.87 1644,-987.87 1638,-987.87"/>
<text text-anchor="middle" x="1590.5" y="-967.37" font-family="Avenir Next" font-size="10.00" fill="#17232b">MATH200 / MATH202</text>
</a>
</g>
</g>
<!-- course__MATH101&#45;&gt;course__MATH200 -->
<g id="edge152" class="edge">
<title>course__MATH101&#45;&gt;course__MATH200</title>
<path fill="none" stroke="#5d6972" stroke-width="1.2" d="M517.93,-1905.64C526.22,-1895.02 536.37,-1881.13 544,-1867.87 589.94,-1787.98 549.89,-1728.32 627,-1677.87 685.76,-1639.41 719.43,-1652.74 785,-1677.87 878.16,-1713.56 864.42,-1780.07 952,-1827.87 1039.16,-1875.43 1086.3,-1899.42 1174,-1852.87 1512.96,-1672.94 1577.38,-1120.14 1587.72,-995.16"/>
<polygon fill="#5d6972" stroke="#5d6972" stroke-width="1.2" points="1590.19,-995.05 1588.3,-987.88 1585.3,-994.66 1590.19,-995.05"/>
</g>
<!-- course__EOS210 -->
<g id="node22" class="node">
<title>course__EOS210</title>
<g id="a_node22"><a xlink:href="../../../courses/EOS210.html" xlink:title="Collapsed in simplified view: EOS210: Introductory Geophysics | PHYS210: Introductory Geophysics" target="_top">
<path fill="#f9f9f9" stroke="#363636" d="M1624.5,-927.87C1624.5,-927.87 1556.5,-927.87 1556.5,-927.87 1550.5,-927.87 1544.5,-921.87 1544.5,-915.87 1544.5,-915.87 1544.5,-903.87 1544.5,-903.87 1544.5,-897.87 1550.5,-891.87 1556.5,-891.87 1556.5,-891.87 1624.5,-891.87 1624.5,-891.87 1630.5,-891.87 1636.5,-897.87 1636.5,-903.87 1636.5,-903.87 1636.5,-915.87 1636.5,-915.87 1636.5,-921.87 1630.5,-927.87 1624.5,-927.87"/>
<text text-anchor="middle" x="1590.5" y="-907.67" font-family="Avenir Next" font-size="9.00" fill="#363636">Intro geophysics</text>
</a>
</g>
</g>
<!-- course__MATH101&#45;&gt;course__EOS210 -->
<g id="edge103" class="edge">
<title>course__MATH101&#45;&gt;course__EOS210</title>
<path fill="none" stroke="#5d6972" stroke-width="1.2" d="M518.2,-1905.79C526.58,-1895.21 536.72,-1881.33 544,-1867.87 593.9,-1775.57 540.75,-1706.61 627,-1646.87 832.76,-1504.35 951.07,-1894.67 1174,-1780.87 1230.69,-1751.92 1222.01,-1717.36 1258,-1664.87 1296.34,-1608.94 1304.03,-1593.7 1341,-1536.87 1388.45,-1463.91 1415.42,-1453.57 1448,-1372.87 1521.36,-1191.17 1413.48,-1096.66 1531,-939.87 1533.15,-936.99 1535.66,-934.37 1538.41,-931.98"/>
<polygon fill="#5d6972" stroke="#5d6972" stroke-width="1.2" points="1540.29,-933.63 1544.33,-927.41 1537.29,-929.75 1540.29,-933.63"/>
</g>
<!-- course__STAT254 -->
<g id="node28" class="node">
<title>course__STAT254</title>
<g id="a_node28"><a xlink:href="../../../courses/STAT254.html" xlink:title="Collapsed in simplified view: STAT254: Probability and Statistics for Engineers | STAT255: Statistics for Life Sciences I | STAT260: Introduction to Probability and Statistics I" target="_top">
<path fill="#d7e9ef" stroke="#1f4f66" stroke-width="1.6" d="M2667,-1599.87C2667,-1599.87 2605,-1599.87 2605,-1599.87 2599,-1599.87 2593,-1593.87 2593,-1587.87 2593,-1587.87 2593,-1575.87 2593,-1575.87 2593,-1569.87 2599,-1563.87 2605,-1563.87 2605,-1563.87 2667,-1563.87 2667,-1563.87 2673,-1563.87 2679,-1569.87 2679,-1575.87 2679,-1575.87 2679,-1587.87 2679,-1587.87 2679,-1593.87 2673,-1599.87 2667,-1599.87"/>
<text text-anchor="middle" x="2636" y="-1579.37" font-family="Avenir Next" font-size="10.00" fill="#17232b">Intro statistics</text>
</a>
</g>
</g>
<!-- course__MATH101&#45;&gt;course__STAT254 -->
<g id="edge159" class="edge">
<title>course__MATH101&#45;&gt;course__STAT254</title>
<path fill="none" stroke="#5d6972" stroke-width="1.2" d="M517.44,-1942.1C526.53,-1954.56 537.71,-1971.84 544,-1988.87 632.42,-2228.18 459.09,-2364.79 627,-2556.87 674.77,-2611.51 711.41,-2601.87 784,-2601.87 784,-2601.87 784,-2601.87 1765.5,-2601.87 1893.18,-2601.87 1942.6,-2611.32 2044.86,-2534.87 2423.92,-2251.45 2232.78,-1937.76 2576,-1611.87 2579.28,-1608.75 2582.95,-1605.88 2586.81,-1603.26"/>
<polygon fill="#5d6972" stroke="#5d6972" stroke-width="1.2" points="2588.39,-1605.16 2593,-1599.35 2585.77,-1601.02 2588.39,-1605.16"/>
</g>
<!-- course__MATH101&#45;&gt;year_band__year&#45;1__exit -->
<!-- course__MATH101&#45;&gt;choice_EOS261_0_4 -->
<g id="edge106" class="edge">
<title>course__MATH101&#45;&gt;choice_EOS261_0_4</title>
<path fill="none" stroke="#7a8389" d="M518.88,-1905.79C527.38,-1895.32 537.41,-1881.54 544,-1867.87 604.96,-1741.29 559.74,-1686.2 627,-1562.87 630.15,-1557.08 634.3,-1551.45 638.65,-1546.33"/>
<polygon fill="#7a8389" stroke="#7a8389" points="640.59,-1547.84 643.42,-1540.98 636.93,-1544.57 640.59,-1547.84"/>
</g>
<!-- course__MATH101&#45;&gt;choice_EOS311_0_2 -->
<g id="edge113" class="edge">
<title>course__MATH101&#45;&gt;choice_EOS311_0_2</title>
<path fill="none" stroke="#7a8389" d="M517.52,-1942.07C526.65,-1954.52 537.84,-1971.8 544,-1988.87 640.25,-2255.31 501.74,-2366.76 627,-2620.87 629.15,-2625.23 632.05,-2629.39 635.26,-2633.22"/>
<polygon fill="#7a8389" stroke="#7a8389" points="633.63,-2635.07 640.16,-2638.59 637.25,-2631.77 633.63,-2635.07"/>
</g>
<!-- course__PHYS102A&#45;&gt;course__PHYS102B -->
<g id="edge155" class="edge">
<title>course__PHYS102A&#45;&gt;course__PHYS102B</title>
<path fill="none" stroke="#5d6972" stroke-width="1.2" d="M529.06,-2037.11C557.04,-2056.69 601.49,-2087.81 631.43,-2108.76"/>
<polygon fill="#5d6972" stroke="#5d6972" stroke-width="1.2" points="630.07,-2110.81 637.21,-2112.81 632.88,-2106.79 630.07,-2110.81"/>
</g>
<!-- course__PHYS102A&#45;&gt;course__EOS210 -->
<g id="edge104" class="edge">
<title>course__PHYS102A&#45;&gt;course__EOS210</title>
<path fill="none" stroke="#5d6972" stroke-width="1.2" d="M531.5,-2011.69C556.6,-2005.44 594.15,-1996.24 627,-1988.87 733.73,-1964.89 760.6,-1959.65 868,-1938.87 1003.66,-1912.61 1058.4,-1959.56 1174,-1883.87 1357.36,-1763.8 1368.41,-1678.07 1448,-1473.87 1535.23,-1250.08 1390.36,-1134.56 1531,-939.87 1533.26,-936.74 1535.93,-933.92 1538.88,-931.38"/>
<polygon fill="#5d6972" stroke="#5d6972" stroke-width="1.2" points="1540.4,-933.3 1544.45,-927.09 1537.41,-929.42 1540.4,-933.3"/>
</g>
<!-- course__PHYS102A&#45;&gt;year_band__year&#45;1__exit -->
<!-- choice_EOS325_0_2_0 -->
<g id="node55" class="node">
<title>choice_EOS325_0_2_0</title>
<path fill="#fff7ee" stroke="#b7793f" stroke-width="1.1" d="M2481,-503.87C2481,-503.87 2451,-503.87 2451,-503.87 2445,-503.87 2439,-497.87 2439,-491.87 2439,-491.87 2439,-479.87 2439,-479.87 2439,-473.87 2445,-467.87 2451,-467.87 2451,-467.87 2481,-467.87 2481,-467.87 2487,-467.87 2493,-473.87 2493,-479.87 2493,-479.87 2493,-491.87 2493,-491.87 2493,-497.87 2487,-503.87 2481,-503.87"/>
<text text-anchor="middle" x="2466" y="-483.67" font-family="Avenir Next" font-size="9.00">1 of</text>
</g>
<!-- course__CSC110&#45;&gt;choice_EOS325_0_2_0 -->
<g id="edge133" class="edge">
<title>course__CSC110&#45;&gt;choice_EOS325_0_2_0</title>
<path fill="none" stroke="#7a8389" d="M503.3,-1759.75C505.24,-1693.07 519.76,-1457.34 627,-1307.87 754.33,-1130.39 922.73,-1223.02 1037,-1036.87 1149.1,-854.24 989.81,-746.22 1092,-557.87 1177.37,-400.52 1584.49,-112.87 1763.5,-112.87 1763.5,-112.87 1763.5,-112.87 2185,-112.87 2270.68,-112.87 2298.95,-137.95 2356,-201.87 2425.53,-279.76 2452.67,-406.72 2461.43,-460.51"/>
<polygon fill="#7a8389" stroke="#7a8389" points="2459.04,-461.06 2462.55,-467.6 2463.88,-460.3 2459.04,-461.06"/>
</g>
<!-- course__PHYS102B&#45;&gt;course__EOS261 -->
<g id="edge110" class="edge">
<title>course__PHYS102B&#45;&gt;course__EOS261</title>
<path fill="none" stroke="#5d6972" stroke-width="1.2" d="M695.16,-2135.95C734.72,-2142.16 806.35,-2151.87 868,-2151.87 868,-2151.87 868,-2151.87 1395.5,-2151.87 1603.97,-2151.87 1574,-1951.98 1650,-1757.87 1740.4,-1526.99 1759.07,-1221.87 1762.68,-1133.09"/>
<polygon fill="#5d6972" stroke="#5d6972" stroke-width="1.2" points="1765.14,-1132.98 1762.96,-1125.89 1760.24,-1132.79 1765.14,-1132.98"/>
</g>
<!-- course__PHYS102B&#45;&gt;course__EOS311 -->
<g id="edge117" class="edge">
<title>course__PHYS102B&#45;&gt;course__EOS311</title>
<path fill="none" stroke="#5d6972" stroke-width="1.2" d="M690.23,-2149.06C694.17,-2152.66 697.95,-2156.65 701,-2160.87 759.82,-2242.18 707.71,-2305.66 784,-2370.87 909.32,-2477.99 981.13,-2451.87 1146,-2451.87 1146,-2451.87 1146,-2451.87 1907,-2451.87 2047,-2451.87 2044,-2601.87 2184,-2601.87 2184,-2601.87 2184,-2601.87 2313,-2601.87 2400.73,-2601.87 2436.87,-2588.29 2493,-2520.87 2566,-2433.17 2618.59,-2067.05 2631.77,-1967.14"/>
<polygon fill="#5d6972" stroke="#5d6972" stroke-width="1.2" points="2634.21,-1967.41 2632.69,-1960.15 2629.35,-1966.77 2634.21,-1967.41"/>
</g>
<!-- course__EOS314 -->
<g id="node34" class="node">
<title>course__EOS314</title>
<g id="a_node34"><a xlink:href="../../../courses/EOS314.html" xlink:title="EOS314: Descriptive Physical Oceanography" target="_top">
<path fill="#d7e9ef" stroke="#1f4f66" stroke-width="1.6" d="M2651,-1779.87C2651,-1779.87 2621,-1779.87 2621,-1779.87 2615,-1779.87 2609,-1773.87 2609,-1767.87 2609,-1767.87 2609,-1755.87 2609,-1755.87 2609,-1749.87 2615,-1743.87 2621,-1743.87 2621,-1743.87 2651,-1743.87 2651,-1743.87 2657,-1743.87 2663,-1749.87 2663,-1755.87 2663,-1755.87 2663,-1767.87 2663,-1767.87 2663,-1773.87 2657,-1779.87 2651,-1779.87"/>
<text text-anchor="middle" x="2636" y="-1759.37" font-family="Avenir Next" font-size="10.00" fill="#17232b">EOS314</text>
</a>
</g>
</g>
<!-- course__PHYS102B&#45;&gt;course__EOS314 -->
<g id="edge126" class="edge">
<title>course__PHYS102B&#45;&gt;course__EOS314</title>
<path fill="none" stroke="#5d6972" stroke-width="1.2" d="M688.55,-2149.16C692.85,-2152.87 697.18,-2156.86 701,-2160.87 743.25,-2205.21 734.84,-2234.34 784,-2270.87 815.94,-2294.6 828.21,-2301.87 868,-2301.87 868,-2301.87 868,-2301.87 1148,-2301.87 1345.48,-2301.87 1392.02,-2351.87 1589.5,-2351.87 1589.5,-2351.87 1589.5,-2351.87 2313,-2351.87 2400.73,-2351.87 2439.23,-2340.18 2493,-2270.87 2625.43,-2100.15 2447.67,-1965.68 2576,-1791.87 2582.49,-1783.08 2592.29,-1776.68 2602.06,-1772.11"/>
<polygon fill="#5d6972" stroke="#5d6972" stroke-width="1.2" points="2603.3,-1774.24 2608.77,-1769.23 2601.37,-1769.74 2603.3,-1774.24"/>
</g>
<!-- course__EOS325 -->
<g id="node35" class="node">
<title>course__EOS325</title>
<g id="a_node35"><a xlink:href="../../../courses/EOS325.html" xlink:title="EOS325: Earth System Modelling" target="_top">
<path fill="#d7e9ef" stroke="#1f4f66" stroke-width="1.6" d="M2651,-1341.87C2651,-1341.87 2621,-1341.87 2621,-1341.87 2615,-1341.87 2609,-1335.87 2609,-1329.87 2609,-1329.87 2609,-1317.87 2609,-1317.87 2609,-1311.87 2615,-1305.87 2621,-1305.87 2621,-1305.87 2651,-1305.87 2651,-1305.87 2657,-1305.87 2663,-1311.87 2663,-1317.87 2663,-1317.87 2663,-1329.87 2663,-1329.87 2663,-1335.87 2657,-1341.87 2651,-1341.87"/>
<text text-anchor="middle" x="2636" y="-1321.37" font-family="Avenir Next" font-size="10.00" fill="#17232b">EOS325</text>
</a>
</g>
</g>
<!-- course__PHYS102B&#45;&gt;course__EOS325 -->
<g id="edge135" class="edge">
<title>course__PHYS102B&#45;&gt;course__EOS325</title>
<path fill="none" stroke="#5d6972" stroke-width="1.2" d="M695.15,-2148.6C733.81,-2169.63 803.59,-2201.87 868,-2201.87 868,-2201.87 868,-2201.87 1395.5,-2201.87 1817.33,-2201.87 1678.17,-1565.87 2100,-1565.87 2100,-1565.87 2100,-1565.87 2313,-1565.87 2399.67,-1565.87 2422.99,-1541.96 2493,-1490.87 2522.08,-1469.64 2585.74,-1388.58 2616.98,-1347.71"/>
<polygon fill="#5d6972" stroke="#5d6972" stroke-width="1.2" points="2619.05,-1349.04 2621.34,-1341.99 2615.15,-1346.07 2619.05,-1349.04"/>
</g>
<!-- course__EOS340 -->
<g id="node36" class="node">
<title>course__EOS340</title>
<g id="a_node36"><a xlink:href="../../../courses/EOS340.html" xlink:title="Equivalent or cross&#45;listed: EOS340: Atmospheric Physics | PHYS340: Atmospheric Physics" target="_top">
<path fill="#ead9b8" stroke="#8f6a3b" stroke-width="1.3" d="M2677.5,-1659.87C2677.5,-1659.87 2594.5,-1659.87 2594.5,-1659.87 2588.5,-1659.87 2582.5,-1653.87 2582.5,-1647.87 2582.5,-1647.87 2582.5,-1635.87 2582.5,-1635.87 2582.5,-1629.87 2588.5,-1623.87 2594.5,-1623.87 2594.5,-1623.87 2677.5,-1623.87 2677.5,-1623.87 2683.5,-1623.87 2689.5,-1629.87 2689.5,-1635.87 2689.5,-1635.87 2689.5,-1647.87 2689.5,-1647.87 2689.5,-1653.87 2683.5,-1659.87 2677.5,-1659.87"/>
<text text-anchor="middle" x="2636" y="-1639.37" font-family="Avenir Next" font-size="10.00" fill="#3f3120">EOS340 / PHYS340</text>
</a>
</g>
</g>
<!-- course__PHYS102B&#45;&gt;course__EOS340 -->
<g id="edge137" class="edge">
<title>course__PHYS102B&#45;&gt;course__EOS340</title>
<path fill="none" stroke="#5d6972" stroke-width="1.2" d="M687.23,-2148.93C715.81,-2171.93 764.12,-2209.99 784,-2220.87 818.91,-2239.96 828.21,-2251.87 868,-2251.87 868,-2251.87 868,-2251.87 2313,-2251.87 2596.04,-2251.87 2380.38,-1876.43 2576,-1671.87 2578.68,-1669.06 2581.68,-1666.48 2584.87,-1664.1"/>
<polygon fill="#5d6972" stroke="#5d6972" stroke-width="1.2" points="2586.39,-1666.03 2590.78,-1660.05 2583.62,-1661.98 2586.39,-1666.03"/>
</g>
<!-- course__EOS431 -->
<g id="node37" class="node">
<title>course__EOS431</title>
<g id="a_node37"><a xlink:href="../../../courses/EOS431.html" xlink:title="Equivalent or cross&#45;listed: EOS431: Physical Oceanography | PHYS441: Physical Oceanography" target="_top">
<path fill="#f9f9f9" stroke="#363636" d="M2676,-1839.87C2676,-1839.87 2596,-1839.87 2596,-1839.87 2590,-1839.87 2584,-1833.87 2584,-1827.87 2584,-1827.87 2584,-1815.87 2584,-1815.87 2584,-1809.87 2590,-1803.87 2596,-1803.87 2596,-1803.87 2676,-1803.87 2676,-1803.87 2682,-1803.87 2688,-1809.87 2688,-1815.87 2688,-1815.87 2688,-1827.87 2688,-1827.87 2688,-1833.87 2682,-1839.87 2676,-1839.87"/>
<text text-anchor="middle" x="2636" y="-1819.67" font-family="Avenir Next" font-size="9.00" fill="#363636">EOS431 / PHYS441</text>
</a>
</g>
</g>
<!-- course__PHYS102B&#45;&gt;course__EOS431 -->
<g id="edge150" class="edge">
<title>course__PHYS102B&#45;&gt;course__EOS431</title>
<path fill="none" stroke="#5d6972" stroke-width="1.2" d="M689.49,-2149C693.61,-2152.66 697.63,-2156.68 701,-2160.87 751.2,-2223.29 723.93,-2267.87 784,-2320.87 813.84,-2347.19 828.21,-2351.87 868,-2351.87 868,-2351.87 868,-2351.87 953,-2351.87 1089.93,-2351.87 1120.07,-2401.87 1257,-2401.87 1257,-2401.87 1257,-2401.87 2313,-2401.87 2394.18,-2401.87 2435.94,-2428.61 2493,-2370.87 2657.19,-2204.7 2438.47,-2040.69 2576,-1851.87 2577.86,-1849.3 2580.01,-1846.95 2582.36,-1844.78"/>
<polygon fill="#5d6972" stroke="#5d6972" stroke-width="1.2" points="2584.28,-1846.38 2588.16,-1840.06 2581.18,-1842.58 2584.28,-1846.38"/>
</g>
<!-- course__PHYS102B&#45;&gt;year_band__year&#45;1__exit -->
<!-- course__BIOL150A&#45;&gt;course__BIOL186 -->
<g id="edge80" class="edge">
<title>course__BIOL150A&#45;&gt;course__BIOL186</title>
<path fill="none" stroke="#5d6972" stroke-width="1.2" d="M626.86,-2190.86C600.04,-2186.97 563.7,-2179.21 537.32,-2171.7"/>
<polygon fill="#5d6972" stroke="#5d6972" stroke-width="1.2" points="537.91,-2169.32 530.5,-2169.7 536.53,-2174.02 537.91,-2169.32"/>
</g>
<!-- course__CHEM231&#45;&gt;course__CHEM234 -->
<g id="edge88" class="edge">
<title>course__CHEM231&#45;&gt;course__CHEM234</title>
<path fill="none" stroke="#5d6972" stroke-width="1.2" d="M1422.33,-778.72C1430.6,-773.06 1439.71,-766.75 1448,-760.87 1485.33,-734.36 1492.06,-723.94 1531,-699.87 1537.61,-695.77 1544.85,-691.74 1551.91,-688.01"/>
<polygon fill="#5d6972" stroke="#5d6972" stroke-width="1.2" points="1553.24,-690.08 1558.33,-684.69 1550.98,-685.73 1553.24,-690.08"/>
</g>
<!-- course__CHEM231&#45;&gt;course__CHEM260 -->
<g id="edge91" class="edge">
<title>course__CHEM231&#45;&gt;course__CHEM260</title>
<path fill="none" stroke="#5d6972" stroke-width="1.2" d="M1425.86,-778.84C1433.53,-773.56 1441.44,-767.43 1448,-760.87 1494.12,-714.76 1482.05,-682.95 1531,-639.87 1537.1,-634.5 1544.33,-629.79 1551.6,-625.8"/>
<polygon fill="#5d6972" stroke="#5d6972" stroke-width="1.2" points="1553.17,-627.74 1558.24,-622.33 1550.9,-623.4 1553.17,-627.74"/>
</g>
<!-- year_band__year&#45;2__exit -->
<!-- course__CHEM231&#45;&gt;year_band__year&#45;2__exit -->
<!-- course__EOS230&#45;&gt;choice_EOS325_0_2_0 -->
<g id="edge130" class="edge">
<title>course__EOS230&#45;&gt;choice_EOS325_0_2_0</title>
<path fill="none" stroke="#7a8389" d="M1398.37,-692.63C1414.44,-597.55 1502.21,-162.87 1763.5,-162.87 1763.5,-162.87 1763.5,-162.87 2101,-162.87 2280.61,-162.87 2412.93,-385.6 2452.64,-461.15"/>
<polygon fill="#7a8389" stroke="#7a8389" points="2450.58,-462.49 2455.98,-467.57 2454.93,-460.23 2450.58,-462.49"/>
</g>
<!-- course__CHEM318 -->
<g id="node29" class="node">
<title>course__CHEM318</title>
<g id="a_node29"><a xlink:href="../../../courses/CHEM318.html" xlink:title="Equivalent or cross&#45;listed: CHEM318: Instrumental Techniques of Analysis | CHEM361: Analytical Chemistry Laboratory" target="_top">
<path fill="#d7e9ef" stroke="#1f4f66" stroke-width="1.6" d="M2684,-1539.87C2684,-1539.87 2588,-1539.87 2588,-1539.87 2582,-1539.87 2576,-1533.87 2576,-1527.87 2576,-1527.87 2576,-1515.87 2576,-1515.87 2576,-1509.87 2582,-1503.87 2588,-1503.87 2588,-1503.87 2684,-1503.87 2684,-1503.87 2690,-1503.87 2696,-1509.87 2696,-1515.87 2696,-1515.87 2696,-1527.87 2696,-1527.87 2696,-1533.87 2690,-1539.87 2684,-1539.87"/>
<text text-anchor="middle" x="2636" y="-1519.37" font-family="Avenir Next" font-size="10.00" fill="#17232b">CHEM318 / CHEM361</text>
</a>
</g>
</g>
<!-- course__CHEM212&#45;&gt;course__CHEM318 -->
<g id="edge92" class="edge">
<title>course__CHEM212&#45;&gt;course__CHEM318</title>
<path fill="none" stroke="#5d6972" stroke-width="1.2" d="M1622.5,-718.96C1632.3,-714.3 1642.51,-708.02 1650,-699.87 1715.91,-628.05 1666.39,-568.03 1733,-496.87 1791.13,-434.75 1819.93,-412.87 1905,-412.87 1905,-412.87 1905,-412.87 2101,-412.87 2339.96,-412.87 2388.42,-566 2493,-780.87 2627.22,-1056.61 2438.2,-1191.9 2576,-1465.87 2582.43,-1478.65 2593.01,-1490.09 2603.46,-1499.24"/>
<polygon fill="#5d6972" stroke="#5d6972" stroke-width="1.2" points="2601.95,-1501.18 2608.88,-1503.82 2605.11,-1497.43 2601.95,-1501.18"/>
</g>
<!-- course__CHEM364 -->
<g id="node32" class="node">
<title>course__CHEM364</title>
<g id="a_node32"><a xlink:href="../../../courses/CHEM364.html" xlink:title="CHEM364: Physical Chemistry Laboratory" target="_top">
<path fill="#d7e9ef" stroke="#1f4f66" stroke-width="1.6" d="M2656,-1221.87C2656,-1221.87 2616,-1221.87 2616,-1221.87 2610,-1221.87 2604,-1215.87 2604,-1209.87 2604,-1209.87 2604,-1197.87 2604,-1197.87 2604,-1191.87 2610,-1185.87 2616,-1185.87 2616,-1185.87 2656,-1185.87 2656,-1185.87 2662,-1185.87 2668,-1191.87 2668,-1197.87 2668,-1197.87 2668,-1209.87 2668,-1209.87 2668,-1215.87 2662,-1221.87 2656,-1221.87"/>
<text text-anchor="middle" x="2636" y="-1201.37" font-family="Avenir Next" font-size="10.00" fill="#17232b">CHEM364</text>
</a>
</g>
</g>
<!-- course__CHEM212&#45;&gt;course__CHEM364 -->
<g id="edge100" class="edge">
<title>course__CHEM212&#45;&gt;course__CHEM364</title>
<path fill="none" stroke="#5d6972" stroke-width="1.2" d="M1622.77,-719.98C1632.83,-715.36 1643.13,-708.84 1650,-699.87 1757.94,-558.77 1610.7,-437.72 1733,-308.87 1787.48,-251.47 1825.87,-262.87 1905,-262.87 1905,-262.87 1905,-262.87 2313,-262.87 2398.84,-262.87 2441.11,-264.49 2493,-332.87 2720.05,-632.06 2364.12,-863.74 2576,-1173.87 2581.27,-1181.58 2589.14,-1187.42 2597.43,-1191.79"/>
<polygon fill="#5d6972" stroke="#5d6972" stroke-width="1.2" points="2596.44,-1194.04 2603.81,-1194.86 2598.57,-1189.62 2596.44,-1194.04"/>
</g>
<!-- course__CHEM212&#45;&gt;year_band__year&#45;2__exit -->
<!-- course__CHEM225&#45;&gt;year_band__year&#45;2__exit -->
<!-- bundle_CHEM362_0_1 -->
<g id="node49" class="node">
<title>bundle_CHEM362_0_1</title>
<g id="a_node49"><a xlink:title="Grouped requirement junction">
<ellipse fill="#7a8790" stroke="#667780" cx="1764.5" cy="-369.87" rx="6" ry="6"/>
</a>
</g>
</g>
<!-- course__CHEM225&#45;&gt;bundle_CHEM362_0_1 -->
<g id="edge94" class="edge">
<title>course__CHEM225&#45;&gt;bundle_CHEM362_0_1</title>
<path fill="none" stroke="#7a8389" d="M1622.73,-839.95C1632.79,-835.33 1643.1,-828.81 1650,-819.87 1754.53,-684.37 1681.76,-607.15 1733,-443.87 1740.09,-421.28 1751.24,-396 1757.92,-381.6"/>
<polygon fill="#7a8389" stroke="#7a8389" points="1760.2,-382.51 1760.95,-375.13 1755.76,-380.43 1760.2,-382.51"/>
</g>
<!-- course__CHEM234&#45;&gt;year_band__year&#45;2__exit -->
<!-- bundle_CHEM363_0_1 -->
<g id="node50" class="node">
<title>bundle_CHEM363_0_1</title>
<g id="a_node50"><a xlink:title="Grouped requirement junction">
<ellipse fill="#7a8790" stroke="#667780" cx="1764.5" cy="-219.87" rx="6" ry="6"/>
</a>
</g>
</g>
<!-- course__CHEM234&#45;&gt;bundle_CHEM363_0_1 -->
<g id="edge97" class="edge">
<title>course__CHEM234&#45;&gt;bundle_CHEM363_0_1</title>
<path fill="none" stroke="#7a8389" d="M1622.79,-659.99C1632.84,-655.37 1643.15,-648.85 1650,-639.87 1759.08,-496.9 1638.19,-396.66 1733,-243.87 1737.7,-236.3 1745.67,-230.15 1752.29,-225.97"/>
<polygon fill="#7a8389" stroke="#7a8389" points="1753.9,-227.87 1758.72,-222.23 1751.44,-223.63 1753.9,-227.87"/>
</g>
<!-- course__CHEM245&#45;&gt;course__CHEM364 -->
<g id="edge101" class="edge">
<title>course__CHEM245&#45;&gt;course__CHEM364</title>
<path fill="none" stroke="#5d6972" stroke-width="1.2" d="M1622.51,-780.15C1632.67,-775.53 1643.1,-768.96 1650,-759.87 1761.81,-612.42 1603.62,-484.16 1733,-351.87 1787.81,-295.82 1826.62,-312.87 1905,-312.87 1905,-312.87 1905,-312.87 2313,-312.87 2400.01,-312.87 2441.31,-319.87 2493,-389.87 2701.13,-671.74 2377.31,-885.26 2576,-1173.87 2581.3,-1181.56 2589.18,-1187.39 2597.47,-1191.77"/>
<polygon fill="#5d6972" stroke="#5d6972" stroke-width="1.2" points="2596.48,-1194.01 2603.85,-1194.84 2598.6,-1189.6 2596.48,-1194.01"/>
</g>
<!-- course__CHEM245&#45;&gt;year_band__year&#45;2__exit -->
<!-- course__CHEM260&#45;&gt;course__CHEM318 -->
<g id="edge93" class="edge">
<title>course__CHEM260&#45;&gt;course__CHEM318</title>
<path fill="none" stroke="#5d6972" stroke-width="1.2" d="M1622.69,-619.44C1632.87,-624.06 1643.27,-630.65 1650,-639.87 1782.39,-821.04 1643.56,-932.07 1733,-1137.87 1839.76,-1383.51 1832.16,-1615.87 2100,-1615.87 2100,-1615.87 2100,-1615.87 2313,-1615.87 2394.18,-1615.87 2415.31,-1608.39 2493,-1584.87 2512.06,-1579.09 2556.37,-1559.02 2590.47,-1543.07"/>
<polygon fill="#5d6972" stroke="#5d6972" stroke-width="1.2" points="2591.84,-1545.13 2597.14,-1539.93 2589.76,-1540.69 2591.84,-1545.13"/>
</g>
<!-- course__CHEM260&#45;&gt;year_band__year&#45;2__exit -->
<!-- course__CHEM260&#45;&gt;bundle_CHEM362_0_1 -->
<g id="edge95" class="edge">
<title>course__CHEM260&#45;&gt;bundle_CHEM362_0_1</title>
<path fill="none" stroke="#7a8389" d="M1600.76,-591.7C1621.17,-552.72 1673.02,-459.29 1733,-393.87 1738.89,-387.45 1746.6,-381.39 1752.8,-376.97"/>
<polygon fill="#7a8389" stroke="#7a8389" points="1754.39,-378.85 1758.77,-372.87 1751.62,-374.81 1754.39,-378.85"/>
</g>
<!-- course__CHEM260&#45;&gt;bundle_CHEM363_0_1 -->
<g id="edge98" class="edge">
<title>course__CHEM260&#45;&gt;bundle_CHEM363_0_1</title>
<path fill="none" stroke="#7a8389" d="M1594.91,-591.84C1606.26,-535.61 1646.95,-360.28 1733,-243.87 1738.29,-236.7 1746.25,-230.54 1752.71,-226.25"/>
<polygon fill="#7a8389" stroke="#7a8389" points="1754.29,-228.15 1758.94,-222.38 1751.7,-223.99 1754.29,-228.15"/>
</g>
<!-- course__MATH204 -->
<g id="node23" class="node">
<title>course__MATH204</title>
<g id="a_node23"><a xlink:href="../../../courses/MATH204.html" xlink:title="MATH204: Calculus IV" target="_top">
<path fill="#d7e9ef" stroke="#1f4f66" stroke-width="1.6" d="M1784,-887.87C1784,-887.87 1745,-887.87 1745,-887.87 1739,-887.87 1733,-881.87 1733,-875.87 1733,-875.87 1733,-863.87 1733,-863.87 1733,-857.87 1739,-851.87 1745,-851.87 1745,-851.87 1784,-851.87 1784,-851.87 1790,-851.87 1796,-857.87 1796,-863.87 1796,-863.87 1796,-875.87 1796,-875.87 1796,-881.87 1790,-887.87 1784,-887.87"/>
<text text-anchor="middle" x="1764.5" y="-867.37" font-family="Avenir Next" font-size="10.00" fill="#17232b">MATH204</text>
</a>
</g>
</g>
<!-- course__MATH200&#45;&gt;course__MATH204 -->
<g id="edge153" class="edge">
<title>course__MATH200&#45;&gt;course__MATH204</title>
<path fill="none" stroke="#5d6972" stroke-width="1.2" d="M1627.94,-951.74C1635.3,-947.92 1642.94,-943.84 1650,-939.87 1677.1,-924.59 1707.02,-906.07 1729.33,-891.91"/>
<polygon fill="#5d6972" stroke="#5d6972" stroke-width="1.2" points="1730.83,-893.87 1735.42,-888.04 1728.2,-889.73 1730.83,-893.87"/>
</g>
<!-- course__MATH200&#45;&gt;course__STAT254 -->
<g id="edge158" class="edge">
<title>course__MATH200&#45;&gt;course__STAT254</title>
<path fill="none" stroke="#5d6972" stroke-width="1.2" d="M1632.16,-951.75C1638.4,-948.2 1644.57,-944.22 1650,-939.87 1780.54,-835.18 1737.67,-662.87 1905,-662.87 1905,-662.87 1905,-662.87 2313,-662.87 2534.01,-662.87 2546.16,-1510.75 2576,-1551.87 2579.02,-1556.02 2582.78,-1559.64 2586.93,-1562.78"/>
<polygon fill="#5d6972" stroke="#5d6972" stroke-width="1.2" points="2585.64,-1564.87 2592.81,-1566.78 2588.4,-1560.82 2585.64,-1564.87"/>
</g>
<!-- course__MATH200&#45;&gt;year_band__year&#45;2__exit -->
<!-- choice_EOS325_0_0 -->
<g id="node54" class="node">
<title>choice_EOS325_0_0</title>
<path fill="#fff7ee" stroke="#b7793f" stroke-width="1.1" d="M1921,-535.87C1921,-535.87 1891,-535.87 1891,-535.87 1885,-535.87 1879,-529.87 1879,-523.87 1879,-523.87 1879,-511.87 1879,-511.87 1879,-505.87 1885,-499.87 1891,-499.87 1891,-499.87 1921,-499.87 1921,-499.87 1927,-499.87 1933,-505.87 1933,-511.87 1933,-511.87 1933,-523.87 1933,-523.87 1933,-529.87 1927,-535.87 1921,-535.87"/>
<text text-anchor="middle" x="1906" y="-515.67" font-family="Avenir Next" font-size="9.00">1 of</text>
</g>
<!-- course__MATH200&#45;&gt;choice_EOS325_0_0 -->
<g id="edge127" class="edge">
<title>course__MATH200&#45;&gt;choice_EOS325_0_0</title>
<path fill="none" stroke="#7a8389" d="M1636.58,-951.83C1641.6,-948.43 1646.24,-944.46 1650,-939.87 1736.46,-834.07 1655.18,-756.17 1733,-643.87 1768.97,-591.95 1833.4,-553.26 1872.38,-533.24"/>
<polygon fill="#7a8389" stroke="#7a8389" points="1873.73,-535.3 1878.87,-529.95 1871.52,-530.92 1873.73,-535.3"/>
</g>
<!-- course__EOS210&#45;&gt;choice_EOS325_0_2_0 -->
<g id="edge129" class="edge">
<title>course__EOS210&#45;&gt;choice_EOS325_0_2_0</title>
<path fill="none" stroke="#7a8389" d="M1636.61,-891.85C1641.62,-888.45 1646.26,-884.47 1650,-879.87 1738.03,-771.48 1651.14,-689.98 1733,-576.87 1786.77,-502.57 1813.29,-462.87 1905,-462.87 1905,-462.87 1905,-462.87 2185,-462.87 2274.44,-462.87 2379.41,-474.67 2431.78,-481.36"/>
<polygon fill="#7a8389" stroke="#7a8389" points="2431.55,-483.8 2438.81,-482.27 2432.18,-478.94 2431.55,-483.8"/>
</g>
<!-- course__MATH204&#45;&gt;year_band__year&#45;2__exit -->
<!-- course__MATH204&#45;&gt;choice_EOS325_0_0 -->
<g id="edge128" class="edge">
<title>course__MATH204&#45;&gt;choice_EOS325_0_0</title>
<path fill="none" stroke="#7a8389" d="M1770.53,-851.68C1784.41,-802.73 1825.75,-664.64 1879,-557.87 1881.6,-552.65 1884.73,-547.29 1887.91,-542.24"/>
<polygon fill="#7a8389" stroke="#7a8389" points="1890.16,-543.27 1891.92,-536.07 1886.05,-540.6 1890.16,-543.27"/>
</g>
<!-- choice_EOS340_1 -->
<g id="node56" class="node">
<title>choice_EOS340_1</title>
<path fill="#fff7ee" stroke="#b7793f" stroke-width="1.1" d="M2481,-1069.87C2481,-1069.87 2451,-1069.87 2451,-1069.87 2445,-1069.87 2439,-1063.87 2439,-1057.87 2439,-1057.87 2439,-1045.87 2439,-1045.87 2439,-1039.87 2445,-1033.87 2451,-1033.87 2451,-1033.87 2481,-1033.87 2481,-1033.87 2487,-1033.87 2493,-1039.87 2493,-1045.87 2493,-1045.87 2493,-1057.87 2493,-1057.87 2493,-1063.87 2487,-1069.87 2481,-1069.87"/>
<text text-anchor="middle" x="2466" y="-1049.67" font-family="Avenir Next" font-size="9.00">1 of</text>
</g>
<!-- course__MATH204&#45;&gt;choice_EOS340_1 -->
<g id="edge139" class="edge">
<title>course__MATH204&#45;&gt;choice_EOS340_1</title>
<path fill="none" stroke="#7a8389" d="M1789.63,-851.71C1832.68,-821.19 1926.62,-762.87 2016,-762.87 2016,-762.87 2016,-762.87 2185,-762.87 2331.56,-762.87 2425.95,-956.96 2455.25,-1027.02"/>
<polygon fill="#7a8389" stroke="#7a8389" points="2453.11,-1028.25 2458.04,-1033.79 2457.64,-1026.38 2453.11,-1028.25"/>
</g>
<!-- course__EOS261&#45;&gt;choice_EOS325_0_2_0 -->
<g id="edge131" class="edge">
<title>course__EOS261&#45;&gt;choice_EOS325_0_2_0</title>
<path fill="none" stroke="#7a8389" d="M1775.08,-1089.74C1817.69,-1011.02 1998.51,-695.88 2240,-543.87 2300.6,-505.72 2385.33,-492.59 2431.6,-488.12"/>
<polygon fill="#7a8389" stroke="#7a8389" points="2431.94,-490.55 2438.69,-487.48 2431.49,-485.67 2431.94,-490.55"/>
</g>
<!-- course__EOS335 -->
<g id="node25" class="node">
<title>course__EOS335</title>
<g id="a_node25"><a xlink:href="../../../courses/EOS335.html" xlink:title="EOS335: Isotopes in Natural Sciences" target="_top">
<path fill="#f9f9f9" stroke="#363636" d="M2651,-1453.87C2651,-1453.87 2621,-1453.87 2621,-1453.87 2615,-1453.87 2609,-1447.87 2609,-1441.87 2609,-1441.87 2609,-1429.87 2609,-1429.87 2609,-1423.87 2615,-1417.87 2621,-1417.87 2621,-1417.87 2651,-1417.87 2651,-1417.87 2657,-1417.87 2663,-1423.87 2663,-1429.87 2663,-1429.87 2663,-1441.87 2663,-1441.87 2663,-1447.87 2657,-1453.87 2651,-1453.87"/>
<text text-anchor="middle" x="2636" y="-1433.67" font-family="Avenir Next" font-size="9.00" fill="#363636">EOS335</text>
</a>
</g>
</g>
<!-- course__EOS425 -->
<g id="node27" class="node">
<title>course__EOS425</title>
<g id="a_node27"><a xlink:href="../../../courses/EOS425.html" xlink:title="EOS425: Aqueous Chemistry in the Earth and Ocean" target="_top">
<path fill="#d7e9ef" stroke="#1f4f66" stroke-width="1.6" d="M2821,-1496.87C2821,-1496.87 2791,-1496.87 2791,-1496.87 2785,-1496.87 2779,-1490.87 2779,-1484.87 2779,-1484.87 2779,-1472.87 2779,-1472.87 2779,-1466.87 2785,-1460.87 2791,-1460.87 2791,-1460.87 2821,-1460.87 2821,-1460.87 2827,-1460.87 2833,-1466.87 2833,-1472.87 2833,-1472.87 2833,-1484.87 2833,-1484.87 2833,-1490.87 2827,-1496.87 2821,-1496.87"/>
<text text-anchor="middle" x="2806" y="-1476.37" font-family="Avenir Next" font-size="10.00" fill="#17232b">EOS425</text>
</a>
</g>
</g>
<!-- course__EOS335&#45;&gt;course__EOS425 -->
<g id="edge148" class="edge">
<title>course__EOS335&#45;&gt;course__EOS425</title>
<path fill="none" stroke="#5d6972" stroke-width="1.2" d="M2663.25,-1442.58C2692.59,-1450.09 2740.16,-1462.27 2771.99,-1470.42"/>
<polygon fill="#5d6972" stroke="#5d6972" stroke-width="1.2" points="2771.55,-1472.83 2778.93,-1472.19 2772.76,-1468.08 2771.55,-1472.83"/>
</g>
<!-- year_band__years&#45;3&#45;4__exit -->
<!-- course__EOS313&#45;&gt;year_band__years&#45;3&#45;4__exit -->
<!-- choice_EOS401_0 -->
<g id="node58" class="node">
<title>choice_EOS401_0</title>
<path fill="#fff7ee" stroke="#b7793f" stroke-width="1.1" d="M2958,-2051.87C2958,-2051.87 2928,-2051.87 2928,-2051.87 2922,-2051.87 2916,-2045.87 2916,-2039.87 2916,-2039.87 2916,-2027.87 2916,-2027.87 2916,-2021.87 2922,-2015.87 2928,-2015.87 2928,-2015.87 2958,-2015.87 2958,-2015.87 2964,-2015.87 2970,-2021.87 2970,-2027.87 2970,-2027.87 2970,-2039.87 2970,-2039.87 2970,-2045.87 2964,-2051.87 2958,-2051.87"/>
<text text-anchor="middle" x="2943" y="-2031.67" font-family="Avenir Next" font-size="9.00">3 of</text>
</g>
<!-- course__EOS313&#45;&gt;choice_EOS401_0 -->
<g id="edge145" class="edge">
<title>course__EOS313&#45;&gt;choice_EOS401_0</title>
<path fill="none" stroke="#7a8389" d="M2821.47,-1427.99C2825.82,-1434.28 2830.18,-1441.58 2833,-1448.87 2921.5,-1677.34 2828.83,-1764.88 2916,-1993.87 2918.03,-1999.2 2920.85,-2004.56 2923.89,-2009.55"/>
<polygon fill="#7a8389" stroke="#7a8389" points="2921.96,-2011.08 2927.81,-2015.63 2926.08,-2008.42 2921.96,-2011.08"/>
</g>
<!-- course__EOS425&#45;&gt;year_band__years&#45;3&#45;4__exit -->
<!-- course__STAT254&#45;&gt;year_band__years&#45;3&#45;4__exit -->
<!-- course__CHEM318&#45;&gt;year_band__years&#45;3&#45;4__exit -->
<!-- course__CHEM362 -->
<g id="node30" class="node">
<title>course__CHEM362</title>
<g id="a_node30"><a xlink:href="../../../courses/CHEM362.html" xlink:title="CHEM362: Inorganic Chemistry Laboratory" target="_top">
<path fill="#d7e9ef" stroke="#1f4f66" stroke-width="1.6" d="M2656,-1281.87C2656,-1281.87 2616,-1281.87 2616,-1281.87 2610,-1281.87 2604,-1275.87 2604,-1269.87 2604,-1269.87 2604,-1257.87 2604,-1257.87 2604,-1251.87 2610,-1245.87 2616,-1245.87 2616,-1245.87 2656,-1245.87 2656,-1245.87 2662,-1245.87 2668,-1251.87 2668,-1257.87 2668,-1257.87 2668,-1269.87 2668,-1269.87 2668,-1275.87 2662,-1281.87 2656,-1281.87"/>
<text text-anchor="middle" x="2636" y="-1261.37" font-family="Avenir Next" font-size="10.00" fill="#17232b">CHEM362</text>
</a>
</g>
</g>
<!-- course__CHEM362&#45;&gt;year_band__years&#45;3&#45;4__exit -->
<!-- course__CHEM363 -->
<g id="node31" class="node">
<title>course__CHEM363</title>
<g id="a_node31"><a xlink:href="../../../courses/CHEM363.html" xlink:title="CHEM363: Organic Chemistry Laboratory" target="_top">
<path fill="#d7e9ef" stroke="#1f4f66" stroke-width="1.6" d="M2656,-1161.87C2656,-1161.87 2616,-1161.87 2616,-1161.87 2610,-1161.87 2604,-1155.87 2604,-1149.87 2604,-1149.87 2604,-1137.87 2604,-1137.87 2604,-1131.87 2610,-1125.87 2616,-1125.87 2616,-1125.87 2656,-1125.87 2656,-1125.87 2662,-1125.87 2668,-1131.87 2668,-1137.87 2668,-1137.87 2668,-1149.87 2668,-1149.87 2668,-1155.87 2662,-1161.87 2656,-1161.87"/>
<text text-anchor="middle" x="2636" y="-1141.37" font-family="Avenir Next" font-size="10.00" fill="#17232b">CHEM363</text>
</a>
</g>
</g>
<!-- course__CHEM363&#45;&gt;year_band__years&#45;3&#45;4__exit -->
<!-- course__CHEM364&#45;&gt;year_band__years&#45;3&#45;4__exit -->
<!-- course__EOS311&#45;&gt;year_band__years&#45;3&#45;4__exit -->
<!-- course__EOS311&#45;&gt;choice_EOS401_0 -->
<g id="edge143" class="edge">
<title>course__EOS311&#45;&gt;choice_EOS401_0</title>
<path fill="none" stroke="#7a8389" d="M2641.86,-1960.06C2655.02,-2005.21 2696.06,-2122.03 2779,-2167.87 2841.78,-2202.56 2903.87,-2105.8 2929.61,-2058.37"/>
<polygon fill="#7a8389" stroke="#7a8389" points="2931.86,-2059.36 2933,-2052.03 2927.54,-2057.05 2931.86,-2059.36"/>
</g>
<!-- course__EOS314&#45;&gt;year_band__years&#45;3&#45;4__exit -->
<!-- course__EOS314&#45;&gt;choice_EOS312_0_0 -->
<g id="edge119" class="edge">
<title>course__EOS314&#45;&gt;choice_EOS312_0_0</title>
<path fill="none" stroke="#7a8389" d="M2663.25,-1769.93C2674.74,-1774.66 2687.5,-1781.74 2696,-1791.87 2777.26,-1888.67 2717.84,-1953.26 2779,-2063.87 2780.13,-2065.92 2781.43,-2067.95 2782.81,-2069.94"/>
<polygon fill="#7a8389" stroke="#7a8389" points="2781.02,-2071.63 2787.2,-2075.73 2784.92,-2068.67 2781.02,-2071.63"/>
</g>
<!-- course__EOS314&#45;&gt;choice_EOS325_0_2_0 -->
<g id="edge132" class="edge">
<title>course__EOS314&#45;&gt;choice_EOS325_0_2_0</title>
<path fill="none" stroke="#7a8389" d="M2608.97,-1755.02C2596.94,-1750.48 2583.65,-1743.2 2576,-1731.87 2540.5,-1679.27 2478.94,-683.69 2468.52,-511.22"/>
<polygon fill="#7a8389" stroke="#7a8389" points="2470.96,-510.92 2468.09,-504.08 2466.06,-511.21 2470.96,-510.92"/>
</g>
<!-- choice_EOS401_0_3 -->
<g id="node57" class="node">
<title>choice_EOS401_0_3</title>
<path fill="#fff7ee" stroke="#b7793f" stroke-width="1.1" d="M2821,-2051.87C2821,-2051.87 2791,-2051.87 2791,-2051.87 2785,-2051.87 2779,-2045.87 2779,-2039.87 2779,-2039.87 2779,-2027.87 2779,-2027.87 2779,-2021.87 2785,-2015.87 2791,-2015.87 2791,-2015.87 2821,-2015.87 2821,-2015.87 2827,-2015.87 2833,-2021.87 2833,-2027.87 2833,-2027.87 2833,-2039.87 2833,-2039.87 2833,-2045.87 2827,-2051.87 2821,-2051.87"/>
<text text-anchor="middle" x="2806" y="-2031.67" font-family="Avenir Next" font-size="9.00">1 of</text>
</g>
<!-- course__EOS314&#45;&gt;choice_EOS401_0_3 -->
<g id="edge141" class="edge">
<title>course__EOS314&#45;&gt;choice_EOS401_0_3</title>
<path fill="none" stroke="#7a8389" d="M2663.12,-1770.43C2674.45,-1775.23 2687.12,-1782.24 2696,-1791.87 2761.81,-1863.21 2733.91,-1907.91 2779,-1993.87 2781.71,-1999.02 2784.89,-2004.36 2788.08,-2009.4"/>
<polygon fill="#7a8389" stroke="#7a8389" points="2786.22,-2011.04 2792.09,-2015.58 2790.33,-2008.37 2786.22,-2011.04"/>
</g>
<!-- course__EOS325&#45;&gt;year_band__years&#45;3&#45;4__exit -->
<!-- course__EOS325&#45;&gt;choice_EOS340_1 -->
<g id="edge138" class="edge">
<title>course__EOS325&#45;&gt;choice_EOS340_1</title>
<path fill="none" stroke="#7a8389" d="M2608.88,-1315.3C2597.55,-1310.5 2584.88,-1303.49 2576,-1293.87 2510.19,-1222.53 2538.09,-1177.82 2493,-1091.87 2490.29,-1086.71 2487.11,-1081.37 2483.92,-1076.33"/>
<polygon fill="#7a8389" stroke="#7a8389" points="2485.78,-1074.69 2479.91,-1070.15 2481.67,-1077.36 2485.78,-1074.69"/>
</g>
<!-- course__EOS340&#45;&gt;year_band__years&#45;3&#45;4__exit -->
<!-- course__EOS431&#45;&gt;choice_EOS312_0_0 -->
<g id="edge120" class="edge">
<title>course__EOS431&#45;&gt;choice_EOS312_0_0</title>
<path fill="none" stroke="#7a8389" d="M2681.74,-1840.03C2686.98,-1843.43 2691.91,-1847.35 2696,-1851.87 2763.99,-1926.81 2726.66,-1977.27 2779,-2063.87 2780.21,-2065.87 2781.56,-2067.87 2782.99,-2069.84"/>
<polygon fill="#7a8389" stroke="#7a8389" points="2781.22,-2071.56 2787.45,-2075.58 2785.09,-2068.55 2781.22,-2071.56"/>
</g>
<!-- course__EOS431&#45;&gt;choice_EOS401_0_3 -->
<g id="edge142" class="edge">
<title>course__EOS431&#45;&gt;choice_EOS401_0_3</title>
<path fill="none" stroke="#7a8389" d="M2679.89,-1839.92C2685.67,-1843.39 2691.23,-1847.37 2696,-1851.87 2749.18,-1902.02 2740.63,-1931.65 2779,-1993.87 2782.19,-1999.03 2785.68,-2004.52 2789.05,-2009.72"/>
<polygon fill="#7a8389" stroke="#7a8389" points="2787.04,-2011.13 2792.91,-2015.66 2791.14,-2008.46 2787.04,-2011.13"/>
</g>
<!-- course__EOS312&#45;&gt;year_band__years&#45;3&#45;4__exit -->
<!-- course__EOS312&#45;&gt;choice_EOS401_0 -->
<g id="edge144" class="edge">
<title>course__EOS312&#45;&gt;choice_EOS401_0</title>
<path fill="none" stroke="#7a8389" d="M2663.2,-1890.36C2674.54,-1895.15 2687.2,-1902.16 2696,-1911.87 2763.99,-1986.81 2695.42,-2066.83 2779,-2123.87 2828.8,-2157.85 2892.56,-2094.54 2923.5,-2057.66"/>
<polygon fill="#7a8389" stroke="#7a8389" points="2925.62,-2058.95 2928.18,-2051.99 2921.84,-2055.83 2925.62,-2058.95"/>
</g>
<!-- course__EOS401 -->
<g id="node39" class="node">
<title>course__EOS401</title>
<g id="a_node39"><a xlink:href="../../../courses/EOS401.html" xlink:title="EOS401: Oceanographic Field School" target="_top">
<path fill="#d7e9ef" stroke="#1f4f66" stroke-width="1.6" d="M2651,-1719.87C2651,-1719.87 2621,-1719.87 2621,-1719.87 2615,-1719.87 2609,-1713.87 2609,-1707.87 2609,-1707.87 2609,-1695.87 2609,-1695.87 2609,-1689.87 2615,-1683.87 2621,-1683.87 2621,-1683.87 2651,-1683.87 2651,-1683.87 2657,-1683.87 2663,-1689.87 2663,-1695.87 2663,-1695.87 2663,-1707.87 2663,-1707.87 2663,-1713.87 2657,-1719.87 2651,-1719.87"/>
<text text-anchor="middle" x="2636" y="-1699.37" font-family="Avenir Next" font-size="10.00" fill="#17232b">EOS401</text>
</a>
</g>
</g>
<!-- course__EOS401&#45;&gt;year_band__years&#45;3&#45;4__exit -->
<!-- year_band__year&#45;1__label -->
<g id="node40" class="node">
<title>year_band__year&#45;1__label</title>
<path fill="#eef2f4" stroke="#c8d0d5" stroke-width="0.8" d="M78,-1632.87C78,-1632.87 48,-1632.87 48,-1632.87 42,-1632.87 36,-1626.87 36,-1620.87 36,-1620.87 36,-1608.87 36,-1608.87 36,-1602.87 42,-1596.87 48,-1596.87 48,-1596.87 78,-1596.87 78,-1596.87 84,-1596.87 90,-1602.87 90,-1608.87 90,-1608.87 90,-1620.87 90,-1620.87 90,-1626.87 84,-1632.87 78,-1632.87"/>
<text text-anchor="middle" x="63" y="-1611.47" font-family="Avenir Next" font-size="13.00" fill="#4e5f68">Year 1</text>
</g>
<!-- year_band__year&#45;1__entry -->
<!-- year_band__year&#45;1__label&#45;&gt;year_band__year&#45;1__entry -->
<!-- year_band__year&#45;2__entry -->
<!-- year_band__year&#45;1__label&#45;&gt;year_band__year&#45;2__entry -->
<!-- year_band__year&#45;1__entry&#45;&gt;course__CHEM091 -->
<!-- year_band__year&#45;1__entry&#45;&gt;course__CHEM101 -->
<!-- year_band__year&#45;1__entry&#45;&gt;course__MATH100 -->
<!-- year_band__year&#45;1__entry&#45;&gt;course__EOS110 -->
<!-- year_band__year&#45;1__entry&#45;&gt;course__EOS120 -->
<!-- year_band__year&#45;1__entry&#45;&gt;course__MATH151 -->
<!-- year_band__year&#45;1__entry&#45;&gt;course__BIOL186 -->
<!-- year_band__year&#45;1__entry&#45;&gt;course__CHEM102 -->
<!-- year_band__year&#45;1__entry&#45;&gt;course__MATH101 -->
<!-- year_band__year&#45;1__entry&#45;&gt;course__PHYS102A -->
<!-- year_band__year&#45;1__entry&#45;&gt;course__CSC110 -->
<!-- year_band__year&#45;1__entry&#45;&gt;course__PHYS102B -->
<!-- year_band__year&#45;1__entry&#45;&gt;course__BIOL150A -->
<!-- year_band__year&#45;1__entry&#45;&gt;year_band__year&#45;1__exit -->
<!-- year_band__year&#45;2__label -->
<g id="node43" class="node">
<title>year_band__year&#45;2__label</title>
<path fill="#eef2f4" stroke="#c8d0d5" stroke-width="0.8" d="M1162,-1496.87C1162,-1496.87 1132,-1496.87 1132,-1496.87 1126,-1496.87 1120,-1490.87 1120,-1484.87 1120,-1484.87 1120,-1472.87 1120,-1472.87 1120,-1466.87 1126,-1460.87 1132,-1460.87 1132,-1460.87 1162,-1460.87 1162,-1460.87 1168,-1460.87 1174,-1466.87 1174,-1472.87 1174,-1472.87 1174,-1484.87 1174,-1484.87 1174,-1490.87 1168,-1496.87 1162,-1496.87"/>
<text text-anchor="middle" x="1147" y="-1475.47" font-family="Avenir Next" font-size="13.00" fill="#4e5f68">Year 2</text>
</g>
<!-- year_band__year&#45;1__exit&#45;&gt;year_band__year&#45;2__label -->
<!-- year_band__year&#45;2__label&#45;&gt;year_band__year&#45;2__entry -->
<!-- year_band__years&#45;3&#45;4__entry -->
<!-- year_band__year&#45;2__label&#45;&gt;year_band__years&#45;3&#45;4__entry -->
<!-- year_band__year&#45;2__entry&#45;&gt;course__CHEM231 -->
<!-- year_band__year&#45;2__entry&#45;&gt;course__EOS230 -->
<!-- year_band__year&#45;2__entry&#45;&gt;course__CHEM212 -->
<!-- year_band__year&#45;2__entry&#45;&gt;course__CHEM225 -->
<!-- year_band__year&#45;2__entry&#45;&gt;course__CHEM234 -->
<!-- year_band__year&#45;2__entry&#45;&gt;course__CHEM245 -->
<!-- year_band__year&#45;2__entry&#45;&gt;course__CHEM260 -->
<!-- year_band__year&#45;2__entry&#45;&gt;course__MATH200 -->
<!-- year_band__year&#45;2__entry&#45;&gt;course__EOS210 -->
<!-- year_band__year&#45;2__entry&#45;&gt;course__MATH204 -->
<!-- year_band__year&#45;2__entry&#45;&gt;course__EOS261 -->
<!-- year_band__year&#45;2__entry&#45;&gt;year_band__year&#45;2__exit -->
<!-- year_band__years&#45;3&#45;4__label -->
<g id="node46" class="node">
<title>year_band__years&#45;3&#45;4__label</title>
<path fill="#eef2f4" stroke="#c8d0d5" stroke-width="0.8" d="M2344,-1161.87C2344,-1161.87 2280,-1161.87 2280,-1161.87 2274,-1161.87 2268,-1155.87 2268,-1149.87 2268,-1149.87 2268,-1137.87 2268,-1137.87 2268,-1131.87 2274,-1125.87 2280,-1125.87 2280,-1125.87 2344,-1125.87 2344,-1125.87 2350,-1125.87 2356,-1131.87 2356,-1137.87 2356,-1137.87 2356,-1149.87 2356,-1149.87 2356,-1155.87 2350,-1161.87 2344,-1161.87"/>
<text text-anchor="middle" x="2312" y="-1140.47" font-family="Avenir Next" font-size="13.00" fill="#4e5f68">Years 3 + 4</text>
</g>
<!-- year_band__year&#45;2__exit&#45;&gt;year_band__years&#45;3&#45;4__label -->
<!-- year_band__years&#45;3&#45;4__label&#45;&gt;year_band__years&#45;3&#45;4__entry -->
<!-- year_band__years&#45;3&#45;4__entry&#45;&gt;course__EOS335 -->
<!-- year_band__years&#45;3&#45;4__entry&#45;&gt;course__EOS313 -->
<!-- year_band__years&#45;3&#45;4__entry&#45;&gt;course__EOS425 -->
<!-- year_band__years&#45;3&#45;4__entry&#45;&gt;course__STAT254 -->
<!-- year_band__years&#45;3&#45;4__entry&#45;&gt;course__CHEM318 -->
<!-- year_band__years&#45;3&#45;4__entry&#45;&gt;course__CHEM362 -->
<!-- year_band__years&#45;3&#45;4__entry&#45;&gt;course__CHEM363 -->
<!-- year_band__years&#45;3&#45;4__entry&#45;&gt;course__CHEM364 -->
<!-- year_band__years&#45;3&#45;4__entry&#45;&gt;course__EOS311 -->
<!-- year_band__years&#45;3&#45;4__entry&#45;&gt;course__EOS314 -->
<!-- year_band__years&#45;3&#45;4__entry&#45;&gt;course__EOS325 -->
<!-- year_band__years&#45;3&#45;4__entry&#45;&gt;course__EOS340 -->
<!-- year_band__years&#45;3&#45;4__entry&#45;&gt;course__EOS431 -->
<!-- year_band__years&#45;3&#45;4__entry&#45;&gt;course__EOS312 -->
<!-- year_band__years&#45;3&#45;4__entry&#45;&gt;course__EOS401 -->
<!-- year_band__years&#45;3&#45;4__entry&#45;&gt;year_band__years&#45;3&#45;4__exit -->
<!-- bundle_CHEM362_0_1&#45;&gt;course__CHEM362 -->
<g id="edge96" class="edge">
<title>bundle_CHEM362_0_1&#45;&gt;course__CHEM362</title>
<path fill="none" stroke="#5d6972" stroke-width="1.2" d="M1770.61,-369.62C1796.66,-368.37 1917.24,-362.87 2016,-362.87 2016,-362.87 2016,-362.87 2313,-362.87 2403.05,-362.87 2442.15,-381.55 2493,-455.87 2689.38,-742.85 2378.69,-947.52 2576,-1233.87 2581.3,-1241.56 2589.18,-1247.39 2597.47,-1251.77"/>
<polygon fill="#5d6972" stroke="#5d6972" stroke-width="1.2" points="2596.49,-1254.01 2603.86,-1254.84 2598.61,-1249.59 2596.49,-1254.01"/>
</g>
<!-- bundle_CHEM363_0_1&#45;&gt;course__CHEM363 -->
<g id="edge99" class="edge">
<title>bundle_CHEM363_0_1&#45;&gt;course__CHEM363</title>
<path fill="none" stroke="#5d6972" stroke-width="1.2" d="M1770.61,-219.62C1796.66,-218.37 1917.24,-212.87 2016,-212.87 2016,-212.87 2016,-212.87 2313,-212.87 2394.18,-212.87 2436,-186.06 2493,-243.87 2619.59,-372.25 2633.33,-985.62 2634.82,-1118.46"/>
<polygon fill="#5d6972" stroke="#5d6972" stroke-width="1.2" points="2632.37,-1118.84 2634.89,-1125.82 2637.27,-1118.79 2632.37,-1118.84"/>
</g>
<!-- choice_EOS261_0_4&#45;&gt;course__EOS261 -->
<g id="edge111" class="edge">
<title>choice_EOS261_0_4&#45;&gt;course__EOS261</title>
<path fill="none" stroke="#5d6972" stroke-width="1.2" d="M691.36,-1521.62C736.61,-1520.69 830.58,-1524.08 896.86,-1562.87 1015.51,-1632.3 981.32,-1721.32 1092,-1802.87 1224.31,-1900.35 1312.04,-1995.19 1448,-1902.87 1723,-1716.13 1758.3,-1248.08 1762.83,-1133.49"/>
<polygon fill="#5d6972" stroke="#5d6972" stroke-width="1.2" points="1765.29,-1133.24 1763.1,-1126.16 1760.4,-1133.06 1765.29,-1133.24"/>
</g>
<!-- choice_EOS311_0_2&#45;&gt;course__EOS311 -->
<g id="edge116" class="edge">
<title>choice_EOS311_0_2&#45;&gt;course__EOS311</title>
<path fill="none" stroke="#5d6972" stroke-width="1.2" d="M691.19,-2666.52C729.47,-2679.74 803.2,-2701.87 868,-2701.87 868,-2701.87 868,-2701.87 2313,-2701.87 2394.18,-2701.87 2434.98,-2727.64 2493,-2670.87 2596.6,-2569.5 2627.75,-2083.96 2633.8,-1967.17"/>
<polygon fill="#5d6972" stroke="#5d6972" stroke-width="1.2" points="2636.26,-1967.14 2634.17,-1960.02 2631.37,-1966.89 2636.26,-1967.14"/>
</g>
<!-- choice_EOS311_0_2&#45;&gt;course__EOS314 -->
<g id="edge125" class="edge">
<title>choice_EOS311_0_2&#45;&gt;course__EOS314</title>
<path fill="none" stroke="#5d6972" stroke-width="1.2" d="M691.27,-2655.8C729.96,-2654.34 804.54,-2651.87 868,-2651.87 868,-2651.87 868,-2651.87 1765.5,-2651.87 2040,-2651.87 2128.5,-2624.47 2356,-2470.87 2432.2,-2419.42 2453.8,-2399.03 2493,-2315.87 2593.53,-2102.58 2437.32,-1982.57 2576,-1791.87 2582.42,-1783.03 2592.21,-1776.62 2601.98,-1772.05"/>
<polygon fill="#5d6972" stroke="#5d6972" stroke-width="1.2" points="2603.23,-1774.18 2608.7,-1769.18 2601.3,-1769.68 2603.23,-1774.18"/>
</g>
<!-- choice_EOS312_0_0&#45;&gt;course__EOS312 -->
<g id="edge121" class="edge">
<title>choice_EOS312_0_0&#45;&gt;course__EOS312</title>
<path fill="none" stroke="#5d6972" stroke-width="1.2" d="M2788.13,-2075.64C2784.94,-2071.87 2781.75,-2067.83 2779,-2063.87 2735.1,-2000.64 2751.22,-1965.49 2696,-1911.87 2688.5,-1904.58 2678.87,-1898.68 2669.59,-1894.11"/>
<polygon fill="#5d6972" stroke="#5d6972" stroke-width="1.2" points="2670.62,-1891.89 2663.24,-1891.15 2668.55,-1896.33 2670.62,-1891.89"/>
</g>
<!-- choice_EOS325_0_0&#45;&gt;course__EOS325 -->
<g id="edge134" class="edge">
<title>choice_EOS325_0_0&#45;&gt;course__EOS325</title>
<path fill="none" stroke="#5d6972" stroke-width="1.2" d="M1933.12,-525C1981.98,-537.68 2090.7,-562.87 2184,-562.87 2184,-562.87 2184,-562.87 2313,-562.87 2400.73,-562.87 2440.79,-573.37 2493,-643.87 2666.33,-877.9 2408.28,-1055.77 2576,-1293.87 2582.41,-1302.96 2592.4,-1309.46 2602.36,-1314.04"/>
<polygon fill="#5d6972" stroke="#5d6972" stroke-width="1.2" points="2601.46,-1316.32 2608.86,-1316.77 2603.36,-1311.8 2601.46,-1316.32"/>
</g>
<!-- choice_EOS325_0_2_0&#45;&gt;course__EOS325 -->
<g id="edge136" class="edge">
<title>choice_EOS325_0_2_0&#45;&gt;course__EOS325</title>
<path fill="none" stroke="#5d6972" stroke-width="1.2" d="M2476.83,-503.87C2482.48,-515.06 2489.2,-529.92 2493,-543.87 2537.05,-705.66 2480.59,-1155.97 2576,-1293.87 2582.33,-1303.01 2592.31,-1309.53 2602.27,-1314.1"/>
<polygon fill="#5d6972" stroke="#5d6972" stroke-width="1.2" points="2601.37,-1316.38 2608.78,-1316.83 2603.27,-1311.86 2601.37,-1316.38"/>
</g>
<!-- choice_EOS340_1&#45;&gt;course__EOS340 -->
<g id="edge140" class="edge">
<title>choice_EOS340_1&#45;&gt;course__EOS340</title>
<path fill="none" stroke="#5d6972" stroke-width="1.2" d="M2481.16,-1070.11C2485.59,-1076.65 2490.09,-1084.29 2493,-1091.87 2577.05,-1310.29 2438.24,-1422.67 2576,-1611.87 2577.86,-1614.43 2580.01,-1616.78 2582.36,-1618.95"/>
<polygon fill="#5d6972" stroke="#5d6972" stroke-width="1.2" points="2581.18,-1621.15 2588.16,-1623.67 2584.28,-1617.35 2581.18,-1621.15"/>
</g>
<!-- choice_EOS340_1&#45;&gt;course__EOS431 -->
<g id="edge149" class="edge">
<title>choice_EOS340_1&#45;&gt;course__EOS431</title>
<path fill="none" stroke="#5d6972" stroke-width="1.2" d="M2481.33,-1070.05C2485.78,-1076.58 2490.24,-1084.23 2493,-1091.87 2599.6,-1386.46 2396.73,-1534.93 2576,-1791.87 2577.81,-1794.46 2579.92,-1796.85 2582.23,-1799.04"/>
<polygon fill="#5d6972" stroke="#5d6972" stroke-width="1.2" points="2581.02,-1801.22 2587.98,-1803.8 2584.15,-1797.45 2581.02,-1801.22"/>
</g>
<!-- choice_EOS401_0_3&#45;&gt;choice_EOS401_0 -->
<g id="edge146" class="edge">
<title>choice_EOS401_0_3&#45;&gt;choice_EOS401_0</title>
<path fill="none" stroke="#7a8389" d="M2833.03,-2033.87C2854.46,-2033.87 2885,-2033.87 2908.3,-2033.87"/>
<polygon fill="#7a8389" stroke="#7a8389" points="2908.59,-2036.32 2915.59,-2033.87 2908.59,-2031.42 2908.59,-2036.32"/>
</g>
<!-- choice_EOS401_0&#45;&gt;course__EOS401 -->
<g id="edge147" class="edge">
<title>choice_EOS401_0&#45;&gt;course__EOS401</title>
<path fill="none" stroke="#5d6972" stroke-width="1.2" d="M2928.86,-2015.81C2886.38,-1957.81 2752.32,-1777.3 2696,-1731.87 2688.08,-1725.48 2678.59,-1719.92 2669.55,-1715.38"/>
<polygon fill="#5d6972" stroke="#5d6972" stroke-width="1.2" points="2670.45,-1713.1 2663.08,-1712.26 2668.32,-1717.51 2670.45,-1713.1"/>
</g>
</g>
</svg>
