<?xml version="1.0" encoding="UTF-8" standalone="no"?>
<!DOCTYPE svg PUBLIC "-//W3C//DTD SVG 1.1//EN"
 "http://www.w3.org/Graphics/SVG/1.1/DTD/svg11.dtd">
<!-- Generated by graphviz version 2.43.0 (0)
 -->
<!-- Title: BSC&#45;BESD Pages: 1 -->
<svg width="716pt" height="1831pt"
 viewBox="0.00 0.00 716.04 1830.74" xmlns="http://www.w3.org/2000/svg" xmlns:xlink="http://www.w3.org/1999/xlink">
<g id="graph0" class="graph" transform="scale(1 1) rotate(0) translate(11.52 1819.22)">
<title>BSC&#45;BESD</title>
<g id="clust1" class="cluster">
<title>cluster_year&#45;1</title>
<path fill="transparent" stroke="#c8d0d5" stroke-dasharray="5,2" d="M20,-781.7C20,-781.7 382.5,-781.7 382.5,-781.7 388.5,-781.7 394.5,-787.7 394.5,-793.7 394.5,-793.7 394.5,-1062.7 394.5,-1062.7 394.5,-1068.7 388.5,-1074.7 382.5,-1074.7 382.5,-1074.7 20,-1074.7 20,-1074.7 14,-1074.7 8,-1068.7 8,-1062.7 8,-1062.7 8,-793.7 8,-793.7 8,-787.7 14,-781.7 20,-781.7"/>
<text text-anchor="middle" x="201.25" y="-1061.9" font-family="Avenir Next" font-size="11.00">Year 1</text>
</g>
<g id="clust2" class="cluster">
<title>cluster_year&#45;2</title>
<path fill="transparent" stroke="#c8d0d5" stroke-dasharray="5,2" d="M288,-1192.7C288,-1192.7 541.5,-1192.7 541.5,-1192.7 547.5,-1192.7 553.5,-1198.7 553.5,-1204.7 553.5,-1204.7 553.5,-1571.7 553.5,-1571.7 553.5,-1577.7 547.5,-1583.7 541.5,-1583.7 541.5,-1583.7 288,-1583.7 288,-1583.7 282,-1583.7 276,-1577.7 276,-1571.7 276,-1571.7 276,-1204.7 276,-1204.7 276,-1198.7 282,-1192.7 288,-1192.7"/>
<text text-anchor="middle" x="414.75" y="-1570.9" font-family="Avenir Next" font-size="11.00">Year 2</text>
</g>
<g id="clust3" class="cluster">
<title>cluster_years&#45;3&#45;4</title>
<path fill="transparent" stroke="#c8d0d5" stroke-dasharray="5,2" d="M449,-548.7C449,-548.7 673,-548.7 673,-548.7 679,-548.7 685,-554.7 685,-560.7 685,-560.7 685,-1172.7 685,-1172.7 685,-1178.7 679,-1184.7 673,-1184.7 673,-1184.7 449,-1184.7 449,-1184.7 443,-1184.7 437,-1178.7 437,-1172.7 437,-1172.7 437,-560.7 437,-560.7 437,-554.7 443,-548.7 449,-548.7"/>
<text text-anchor="middle" x="561" y="-1171.9" font-family="Avenir Next" font-size="11.00">Years 3 + 4</text>
</g>
<!-- course__CHEM101 -->
<g id="node1" class="node">
<title>course__CHEM101</title>
<g id="a_node1"><a xlink:href="../../../courses/CHEM101.html" xlink:title="Equivalent or cross&#45;listed: CHEM101: Fundamentals of Chemistry from Atoms to Materials | CHEM150: Engineering Chemistry" target="_top">
<path fill="#d7e9ef" stroke="#1f4f66" stroke-width="1.6" d="M130,-978.7C130,-978.7 34,-978.7 34,-978.7 28,-978.7 22,-972.7 22,-966.7 22,-966.7 22,-954.7 22,-954.7 22,-948.7 28,-942.7 34,-942.7 34,-942.7 130,-942.7 130,-942.7 136,-942.7 142,-948.7 142,-954.7 142,-954.7 142,-966.7 142,-966.7 142,-972.7 136,-978.7 130,-978.7"/>
<text text-anchor="middle" x="82" y="-958.2" font-family="Avenir Next" font-size="10.00" fill="#17232b">CHEM101 / CHEM150</text>
</a>
</g>
</g>
<!-- course__CHEM102 -->
<g id="node6" class="node">
<title>course__CHEM102</title>
<g id="a_node6"><a xlink:href="../../../courses/CHEM102.html" xlink:title="CHEM102: Chemical Reactivity Fundamentals with Environmental Applications" target="_top">
<path fill="#d7e9ef" stroke="#1f4f66" stroke-width="1.6" d="M236,-978.7C236,-978.7 196,-978.7 196,-978.7 190,-978.7 184,-972.7 184,-966.7 184,-966.7 184,-954.7 184,-954.7 184,-948.7 190,-942.7 196,-942.7 196,-942.7 236,-942.7 236,-942.7 242,-942.7 248,-948.7 248,-954.7 248,-954.7 248,-966.7 248,-966.7 248,-972.7 242,-978.7 236,-978.7"/>
<text text-anchor="middle" x="216" y="-958.2" font-family="Avenir Next" font-size="10.00" fill="#17232b">CHEM102</text>
</a>
</g>
</g>
<!-- course__CHEM101&#45;&gt;course__CHEM102 -->
<g id="edge23" class="edge">
<title>course__CHEM101&#45;&gt;course__CHEM102</title>
<path fill="none" stroke="#5d6972" stroke-width="1.2" d="M142.05,-960.7C153.76,-960.7 165.77,-960.7 176.58,-960.7"/>
<polygon fill="#5d6972" stroke="#5d6972" stroke-width="1.2" points="176.85,-963.15 183.85,-960.7 176.85,-958.25 176.85,-963.15"/>
</g>
<!-- course__CHEM231 -->
<g id="node11" class="node">
<title>course__CHEM231</title>
<g id="a_node11"><a xlink:href="../../../courses/CHEM231.html" xlink:title="CHEM231: Introduction to Organic Chemistry" target="_top">
<path fill="#d7e9ef" stroke="#1f4f66" stroke-width="1.6" d="M369.5,-1451.7C369.5,-1451.7 329.5,-1451.7 329.5,-1451.7 323.5,-1451.7 317.5,-1445.7 317.5,-1439.7 317.5,-1439.7 317.5,-1427.7 317.5,-1427.7 317.5,-1421.7 323.5,-1415.7 329.5,-1415.7 329.5,-1415.7 369.5,-1415.7 369.5,-1415.7 375.5,-1415.7 381.5,-1421.7 381.5,-1427.7 381.5,-1427.7 381.5,-1439.7 381.5,-1439.7 381.5,-1445.7 375.5,-1451.7 369.5,-1451.7"/>
<text text-anchor="middle" x="349.5" y="-1431.2" font-family="Avenir Next" font-size="10.00" fill="#17232b">CHEM231</text>
</a>
</g>
</g>
<!-- course__CHEM101&#45;&gt;course__CHEM231 -->
<g id="edge25" class="edge">
<title>course__CHEM101&#45;&gt;course__CHEM231</title>
<path fill="none" stroke="#5d6972" stroke-width="1.2" d="M134.29,-978.72C137.1,-980.81 139.7,-983.12 142,-985.7 185.83,-1034.79 147.23,-1073.11 184,-1127.7 204.32,-1157.86 230.27,-1146.94 248,-1178.7 298.42,-1268.99 210.5,-1329.66 276,-1409.7 284.5,-1420.09 297.62,-1426.01 310.37,-1429.38"/>
<polygon fill="#5d6972" stroke="#5d6972" stroke-width="1.2" points="310.02,-1431.81 317.39,-1431 311.12,-1427.04 310.02,-1431.81"/>
</g>
<!-- course__EOS313 -->
<g id="node45" class="node">
<title>course__EOS313</title>
<g id="a_node45"><a xlink:href="../../../courses/EOS313.html" xlink:title="EOS313: Introductory Geological Oceanography" target="_top">
<path fill="#f9f9f9" stroke="#363636" d="M364.5,-186.7C364.5,-186.7 334.5,-186.7 334.5,-186.7 328.5,-186.7 322.5,-180.7 322.5,-174.7 322.5,-174.7 322.5,-162.7 322.5,-162.7 322.5,-156.7 328.5,-150.7 334.5,-150.7 334.5,-150.7 364.5,-150.7 364.5,-150.7 370.5,-150.7 376.5,-156.7 376.5,-162.7 376.5,-162.7 376.5,-174.7 376.5,-174.7 376.5,-180.7 370.5,-186.7 364.5,-186.7"/>
<text text-anchor="middle" x="349.5" y="-166.5" font-family="Avenir Next" font-size="9.00" fill="#363636">EOS313</text>
</a>
</g>
</g>
<!-- course__CHEM101&#45;&gt;course__EOS313 -->
<g id="edge59" class="edge">
<title>course__CHEM101&#45;&gt;course__EOS313</title>
<path fill="none" stroke="#5d6972" stroke-width="1.2" d="M136.25,-942.65C138.35,-940.85 140.29,-938.87 142,-936.7 220.06,-837.44 159.82,-779.64 184,-655.7 207.2,-536.77 225.27,-509.71 248,-390.7 256.34,-347.05 247.52,-226.8 276,-192.7 285.63,-181.17 300.92,-175.15 314.99,-172.01"/>
<polygon fill="#5d6972" stroke="#5d6972" stroke-width="1.2" points="315.79,-174.35 322.2,-170.62 314.86,-169.54 315.79,-174.35"/>
</g>
<!-- course__EOS110 -->
<g id="node2" class="node">
<title>course__EOS110</title>
<g id="a_node2"><a xlink:href="../../../courses/EOS110.html" xlink:title="Equivalent or cross&#45;listed: EOS110: Oceans and Atmosphere | EOS350: Understanding the Oceans" target="_top">
<path fill="#d7e9ef" stroke="#1f4f66" stroke-width="1.6" d="M120.5,-831.7C120.5,-831.7 43.5,-831.7 43.5,-831.7 37.5,-831.7 31.5,-825.7 31.5,-819.7 31.5,-819.7 31.5,-807.7 31.5,-807.7 31.5,-801.7 37.5,-795.7 43.5,-795.7 43.5,-795.7 120.5,-795.7 120.5,-795.7 126.5,-795.7 132.5,-801.7 132.5,-807.7 132.5,-807.7 132.5,-819.7 132.5,-819.7 132.5,-825.7 126.5,-831.7 120.5,-831.7"/>
<text text-anchor="middle" x="82" y="-811.2" font-family="Avenir Next" font-size="10.00" fill="#17232b">EOS110 / EOS350</text>
</a>
</g>
</g>
<!-- choice_EOS230_0_1 -->
<g id="node56" class="node">
<title>choice_EOS230_0_1</title>
<path fill="#fff7ee" stroke="#b7793f" stroke-width="1.1" d="M523,-110.7C523,-110.7 493,-110.7 493,-110.7 487,-110.7 481,-104.7 481,-98.7 481,-98.7 481,-86.7 481,-86.7 481,-80.7 487,-74.7 493,-74.7 493,-74.7 523,-74.7 523,-74.7 529,-74.7 535,-80.7 535,-86.7 535,-86.7 535,-98.7 535,-98.7 535,-104.7 529,-110.7 523,-110.7"/>
<text text-anchor="middle" x="508" y="-90.5" font-family="Avenir Next" font-size="9.00">1 of</text>
</g>
<!-- course__EOS110&#45;&gt;choice_EOS230_0_1 -->
<g id="edge34" class="edge">
<title>course__EOS110&#45;&gt;choice_EOS230_0_1</title>
<path fill="none" stroke="#7a8389" d="M83.4,-795.56C85.63,-718.26 99.63,-409.62 184,-174.7 211.21,-98.94 206.11,-58.62 276,-18.7 327.33,10.62 352.95,0.09 409,-18.7 438.68,-28.64 466.55,-51.52 484.92,-69.22"/>
<polygon fill="#7a8389" stroke="#7a8389" points="483.6,-71.36 490.31,-74.53 487.04,-67.87 483.6,-71.36"/>
</g>
<!-- choice_EOS312_0_0 -->
<g id="node59" class="node">
<title>choice_EOS312_0_0</title>
<path fill="#fff7ee" stroke="#b7793f" stroke-width="1.1" d="M523,-281.7C523,-281.7 493,-281.7 493,-281.7 487,-281.7 481,-275.7 481,-269.7 481,-269.7 481,-257.7 481,-257.7 481,-251.7 487,-245.7 493,-245.7 493,-245.7 523,-245.7 523,-245.7 529,-245.7 535,-251.7 535,-257.7 535,-257.7 535,-269.7 535,-269.7 535,-275.7 529,-281.7 523,-281.7"/>
<text text-anchor="middle" x="508" y="-261.5" font-family="Avenir Next" font-size="9.00">1 of</text>
</g>
<!-- course__EOS110&#45;&gt;choice_EOS312_0_0 -->
<g id="edge53" class="edge">
<title>course__EOS110&#45;&gt;choice_EOS312_0_0</title>
<path fill="none" stroke="#7a8389" d="M85.22,-795.59C97.73,-696.75 163.01,-223.97 276,-143.7 324.19,-109.46 355.59,-118.36 409,-143.7 450.57,-163.42 480.34,-210.37 495.52,-239.35"/>
<polygon fill="#7a8389" stroke="#7a8389" points="493.35,-240.48 498.72,-245.59 497.71,-238.25 493.35,-240.48"/>
</g>
<!-- course__EOS120 -->
<g id="node3" class="node">
<title>course__EOS120</title>
<g id="a_node3"><a xlink:href="../../../courses/EOS120.html" xlink:title="EOS120: The Dynamic Earth" target="_top">
<path fill="#d7e9ef" stroke="#1f4f66" stroke-width="1.6" d="M97,-929.7C97,-929.7 67,-929.7 67,-929.7 61,-929.7 55,-923.7 55,-917.7 55,-917.7 55,-905.7 55,-905.7 55,-899.7 61,-893.7 67,-893.7 67,-893.7 97,-893.7 97,-893.7 103,-893.7 109,-899.7 109,-905.7 109,-905.7 109,-917.7 109,-917.7 109,-923.7 103,-929.7 97,-929.7"/>
<text text-anchor="middle" x="82" y="-909.2" font-family="Avenir Next" font-size="10.00" fill="#17232b">EOS120</text>
</a>
</g>
</g>
<!-- course__EOS205 -->
<g id="node13" class="node">
<title>course__EOS205</title>
<g id="a_node13"><a xlink:href="../../../courses/EOS205.html" xlink:title="EOS205: Mineralogy" target="_top">
<path fill="#d7e9ef" stroke="#1f4f66" stroke-width="1.6" d="M364.5,-1389.7C364.5,-1389.7 334.5,-1389.7 334.5,-1389.7 328.5,-1389.7 322.5,-1383.7 322.5,-1377.7 322.5,-1377.7 322.5,-1365.7 322.5,-1365.7 322.5,-1359.7 328.5,-1353.7 334.5,-1353.7 334.5,-1353.7 364.5,-1353.7 364.5,-1353.7 370.5,-1353.7 376.5,-1359.7 376.5,-1365.7 376.5,-1365.7 376.5,-1377.7 376.5,-1377.7 376.5,-1383.7 370.5,-1389.7 364.5,-1389.7"/>
<text text-anchor="middle" x="349.5" y="-1369.2" font-family="Avenir Next" font-size="10.00" fill="#17232b">EOS205</text>
</a>
</g>
</g>
<!-- course__EOS120&#45;&gt;course__EOS205 -->
<g id="edge30" class="edge">
<title>course__EOS120&#45;&gt;course__EOS205</title>
<path fill="none" stroke="#5d6972" stroke-width="1.2" d="M109.09,-917.17C120.68,-920.86 133.58,-926.91 142,-936.7 191.07,-993.74 137.48,-1041.56 184,-1100.7 203.92,-1126.01 229.64,-1108.23 248,-1134.7 302.43,-1213.14 215.16,-1274.11 276,-1347.7 285.57,-1359.27 300.86,-1365.3 314.94,-1368.43"/>
<polygon fill="#5d6972" stroke="#5d6972" stroke-width="1.2" points="314.82,-1370.9 322.16,-1369.81 315.74,-1366.09 314.82,-1370.9"/>
</g>
<!-- course__EOS330 -->
<g id="node26" class="node">
<title>course__EOS330</title>
<g id="a_node26"><a xlink:href="../../../courses/EOS330.html" xlink:title="EOS330: Paleobiology" target="_top">
<path fill="#d7e9ef" stroke="#1f4f66" stroke-width="1.6" d="M523,-990.7C523,-990.7 493,-990.7 493,-990.7 487,-990.7 481,-984.7 481,-978.7 481,-978.7 481,-966.7 481,-966.7 481,-960.7 487,-954.7 493,-954.7 493,-954.7 523,-954.7 523,-954.7 529,-954.7 535,-960.7 535,-966.7 535,-966.7 535,-978.7 535,-978.7 535,-984.7 529,-990.7 523,-990.7"/>
<text text-anchor="middle" x="508" y="-970.2" font-family="Avenir Next" font-size="10.00" fill="#17232b">EOS330</text>
</a>
</g>
</g>
<!-- course__EOS120&#45;&gt;course__EOS330 -->
<g id="edge72" class="edge">
<title>course__EOS120&#45;&gt;course__EOS330</title>
<path fill="none" stroke="#5d6972" stroke-width="1.2" d="M109.03,-917.98C120.33,-921.81 133.01,-927.75 142,-936.7 175.58,-970.14 157.88,-995.16 184,-1034.7 206.69,-1069.06 219.73,-1071.75 248,-1101.7 260.52,-1114.96 259.27,-1124.43 276,-1131.7 330.21,-1155.26 363.15,-1169.01 409,-1131.7 456.53,-1093.02 396.48,-1042.66 437,-996.7 446.32,-986.13 460.5,-980.21 473.67,-976.9"/>
<polygon fill="#5d6972" stroke="#5d6972" stroke-width="1.2" points="474.54,-979.21 480.85,-975.31 473.48,-974.43 474.54,-979.21"/>
</g>
<!-- course__EOS202 -->
<g id="node43" class="node">
<title>course__EOS202</title>
<g id="a_node43"><a xlink:href="../../../courses/EOS202.html" xlink:title="EOS202: Structural Geology" target="_top">
<path fill="#f9f9f9" stroke="#363636" d="M364.5,-659.7C364.5,-659.7 334.5,-659.7 334.5,-659.7 328.5,-659.7 322.5,-653.7 322.5,-647.7 322.5,-647.7 322.5,-635.7 322.5,-635.7 322.5,-629.7 328.5,-623.7 334.5,-623.7 334.5,-623.7 364.5,-623.7 364.5,-623.7 370.5,-623.7 376.5,-629.7 376.5,-635.7 376.5,-635.7 376.5,-647.7 376.5,-647.7 376.5,-653.7 370.5,-659.7 364.5,-659.7"/>
<text text-anchor="middle" x="349.5" y="-639.5" font-family="Avenir Next" font-size="9.00" fill="#363636">EOS202</text>
</a>
</g>
</g>
<!-- course__EOS120&#45;&gt;course__EOS202 -->
<g id="edge29" class="edge">
<title>course__EOS120&#45;&gt;course__EOS202</title>
<path fill="none" stroke="#5d6972" stroke-width="1.2" d="M109.08,-907.04C120.82,-903.62 133.85,-897.74 142,-887.7 208.03,-806.33 106.5,-726.22 184,-655.7 219.28,-623.6 278.2,-627.31 315.12,-633.85"/>
<polygon fill="#5d6972" stroke="#5d6972" stroke-width="1.2" points="314.86,-636.29 322.2,-635.18 315.77,-631.48 314.86,-636.29"/>
</g>
<!-- course__EOS120&#45;&gt;course__EOS313 -->
<g id="edge58" class="edge">
<title>course__EOS120&#45;&gt;course__EOS313</title>
<path fill="none" stroke="#5d6972" stroke-width="1.2" d="M109.05,-907.34C120.93,-903.98 134.08,-898.07 142,-887.7 189.65,-825.24 169.15,-613.84 184,-536.7 213.92,-381.29 167.4,-307.82 276,-192.7 286.23,-181.86 301.45,-175.91 315.31,-172.65"/>
<polygon fill="#5d6972" stroke="#5d6972" stroke-width="1.2" points="316.05,-175 322.4,-171.17 315.05,-170.2 316.05,-175"/>
</g>
<!-- course__MATH100 -->
<g id="node4" class="node">
<title>course__MATH100</title>
<g id="a_node4"><a xlink:href="../../../courses/MATH100.html" xlink:title="Collapsed in simplified view: MATH100: Calculus I | MATH102: Calculus for Students in the Social and Biological Sciences | MATH109: Introduction to Calculus" target="_top">
<path fill="#d7e9ef" stroke="#1f4f66" stroke-width="1.6" d="M102,-880.7C102,-880.7 62,-880.7 62,-880.7 56,-880.7 50,-874.7 50,-868.7 50,-868.7 50,-856.7 50,-856.7 50,-850.7 56,-844.7 62,-844.7 62,-844.7 102,-844.7 102,-844.7 108,-844.7 114,-850.7 114,-856.7 114,-856.7 114,-868.7 114,-868.7 114,-874.7 108,-880.7 102,-880.7"/>
<text text-anchor="middle" x="82" y="-860.2" font-family="Avenir Next" font-size="10.00" fill="#17232b">Calculus I</text>
</a>
</g>
</g>
<!-- course__MATH100&#45;&gt;course__CHEM102 -->
<g id="edge24" class="edge">
<title>course__MATH100&#45;&gt;course__CHEM102</title>
<path fill="none" stroke="#5d6972" stroke-width="1.2" d="M114.17,-873.29C123.51,-877.14 133.51,-881.98 142,-887.7 162.38,-901.44 181.88,-921.41 195.59,-936.99"/>
<polygon fill="#5d6972" stroke="#5d6972" stroke-width="1.2" points="193.94,-938.82 200.37,-942.51 197.64,-935.62 193.94,-938.82"/>
</g>
<!-- course__MATH101 -->
<g id="node7" class="node">
<title>course__MATH101</title>
<g id="a_node7"><a xlink:href="../../../courses/MATH101.html" xlink:title="MATH101: Calculus II" target="_top">
<path fill="#d7e9ef" stroke="#1f4f66" stroke-width="1.6" d="M235.5,-880.7C235.5,-880.7 196.5,-880.7 196.5,-880.7 190.5,-880.7 184.5,-874.7 184.5,-868.7 184.5,-868.7 184.5,-856.7 184.5,-856.7 184.5,-850.7 190.5,-844.7 196.5,-844.7 196.5,-844.7 235.5,-844.7 235.5,-844.7 241.5,-844.7 247.5,-850.7 247.5,-856.7 247.5,-856.7 247.5,-868.7 247.5,-868.7 247.5,-874.7 241.5,-880.7 235.5,-880.7"/>
<text text-anchor="middle" x="216" y="-860.2" font-family="Avenir Next" font-size="10.00" fill="#17232b">MATH101</text>
</a>
</g>
</g>
<!-- course__MATH100&#45;&gt;course__MATH101 -->
<g id="edge91" class="edge">
<title>course__MATH100&#45;&gt;course__MATH101</title>
<path fill="none" stroke="#5d6972" stroke-width="1.2" d="M114.28,-862.7C133.16,-862.7 157.33,-862.7 177.26,-862.7"/>
<polygon fill="#5d6972" stroke="#5d6972" stroke-width="1.2" points="177.4,-865.15 184.4,-862.7 177.4,-860.25 177.4,-865.15"/>
</g>
<!-- course__PHYS102A -->
<g id="node8" class="node">
<title>course__PHYS102A</title>
<g id="a_node8"><a xlink:href="../../../courses/PHYS102A.html" xlink:title="Collapsed in simplified view: PHYS102A: General Physics I | PHYS110: Introductory Physics I | PHYS120: Physics I" target="_top">
<path fill="#d7e9ef" stroke="#1f4f66" stroke-width="1.6" d="M233.5,-831.7C233.5,-831.7 198.5,-831.7 198.5,-831.7 192.5,-831.7 186.5,-825.7 186.5,-819.7 186.5,-819.7 186.5,-807.7 186.5,-807.7 186.5,-801.7 192.5,-795.7 198.5,-795.7 198.5,-795.7 233.5,-795.7 233.5,-795.7 239.5,-795.7 245.5,-801.7 245.5,-807.7 245.5,-807.7 245.5,-819.7 245.5,-819.7 245.5,-825.7 239.5,-831.7 233.5,-831.7"/>
<text text-anchor="middle" x="216" y="-811.2" font-family="Avenir Next" font-size="10.00" fill="#17232b">Physics I</text>
</a>
</g>
</g>
<!-- course__MATH100&#45;&gt;course__PHYS102A -->
<g id="edge97" class="edge">
<title>course__MATH100&#45;&gt;course__PHYS102A</title>
<path fill="none" stroke="#5d6972" stroke-width="1.2" d="M114.28,-851.08C133.87,-843.81 159.17,-834.42 179.51,-826.87"/>
<polygon fill="#5d6972" stroke="#5d6972" stroke-width="1.2" points="180.49,-829.12 186.2,-824.39 178.78,-824.53 180.49,-829.12"/>
</g>
<!-- course__PHYS102B -->
<g id="node10" class="node">
<title>course__PHYS102B</title>
<g id="a_node10"><a xlink:href="../../../courses/PHYS102B.html" xlink:title="Collapsed in simplified view: PHYS102B: General Physics II | PHYS111: Introductory Physics II | PHYS130: Physics II" target="_top">
<path fill="#d7e9ef" stroke="#1f4f66" stroke-width="1.6" d="M368.5,-843.7C368.5,-843.7 330.5,-843.7 330.5,-843.7 324.5,-843.7 318.5,-837.7 318.5,-831.7 318.5,-831.7 318.5,-819.7 318.5,-819.7 318.5,-813.7 324.5,-807.7 330.5,-807.7 330.5,-807.7 368.5,-807.7 368.5,-807.7 374.5,-807.7 380.5,-813.7 380.5,-819.7 380.5,-819.7 380.5,-831.7 380.5,-831.7 380.5,-837.7 374.5,-843.7 368.5,-843.7"/>
<text text-anchor="middle" x="349.5" y="-823.2" font-family="Avenir Next" font-size="10.00" fill="#17232b">Physics II</text>
</a>
</g>
</g>
<!-- course__MATH100&#45;&gt;course__PHYS102B -->
<g id="edge99" class="edge">
<title>course__MATH100&#45;&gt;course__PHYS102B</title>
<path fill="none" stroke="#5d6972" stroke-width="1.2" d="M114.21,-875.19C147.76,-886.84 202.43,-900.62 248,-887.7 275.17,-879.99 302.2,-862.63 321.37,-848.23"/>
<polygon fill="#5d6972" stroke="#5d6972" stroke-width="1.2" points="322.99,-850.07 327.06,-843.87 320.01,-846.18 322.99,-850.07"/>
</g>
<!-- course__CSC110 -->
<g id="node42" class="node">
<title>course__CSC110</title>
<g id="a_node42"><a xlink:href="../../../courses/CSC110.html" xlink:title="Collapsed in simplified view: CSC110: Fundamentals of Programming I | CSC111: Fundamentals of Programming with Engineering Applications" target="_top">
<path fill="#f9f9f9" stroke="#363636" d="M379.5,-431.7C379.5,-431.7 319.5,-431.7 319.5,-431.7 313.5,-431.7 307.5,-425.7 307.5,-419.7 307.5,-419.7 307.5,-407.7 307.5,-407.7 307.5,-401.7 313.5,-395.7 319.5,-395.7 319.5,-395.7 379.5,-395.7 379.5,-395.7 385.5,-395.7 391.5,-401.7 391.5,-407.7 391.5,-407.7 391.5,-419.7 391.5,-419.7 391.5,-425.7 385.5,-431.7 379.5,-431.7"/>
<text text-anchor="middle" x="349.5" y="-411.5" font-family="Avenir Next" font-size="9.00" fill="#363636">Programming I</text>
</a>
</g>
</g>
<!-- course__MATH100&#45;&gt;course__CSC110 -->
<g id="edge27" class="edge">
<title>course__MATH100&#45;&gt;course__CSC110</title>
<path fill="none" stroke="#5d6972" stroke-width="1.2" d="M114,-856.88C124.48,-853.35 135.22,-847.71 142,-838.7 195.33,-767.8 123.28,-506.38 184,-441.7 213.09,-410.71 262.87,-406.04 300.07,-407.71"/>
<polygon fill="#5d6972" stroke="#5d6972" stroke-width="1.2" points="300.2,-410.17 307.33,-408.12 300.48,-405.28 300.2,-410.17"/>
</g>
<!-- choice_EOS311_0_2 -->
<g id="node58" class="node">
<title>choice_EOS311_0_2</title>
<path fill="#fff7ee" stroke="#b7793f" stroke-width="1.1" d="M523,-485.7C523,-485.7 493,-485.7 493,-485.7 487,-485.7 481,-479.7 481,-473.7 481,-473.7 481,-461.7 481,-461.7 481,-455.7 487,-449.7 493,-449.7 493,-449.7 523,-449.7 523,-449.7 529,-449.7 535,-455.7 535,-461.7 535,-461.7 535,-473.7 535,-473.7 535,-479.7 529,-485.7 523,-485.7"/>
<text text-anchor="middle" x="508" y="-465.5" font-family="Avenir Next" font-size="9.00">2 of</text>
</g>
<!-- course__MATH100&#45;&gt;choice_EOS311_0_2 -->
<g id="edge47" class="edge">
<title>course__MATH100&#45;&gt;choice_EOS311_0_2</title>
<path fill="none" stroke="#7a8389" d="M114.18,-856.32C124.42,-852.75 134.96,-847.23 142,-838.7 203.14,-764.62 150.4,-716.68 184,-626.7 212.83,-549.49 204.72,-507.06 276,-465.7 338.19,-429.6 426.58,-445.05 473.96,-457.55"/>
<polygon fill="#7a8389" stroke="#7a8389" points="473.53,-459.97 480.93,-459.44 474.82,-455.24 473.53,-459.97"/>
</g>
<!-- course__BIOL150A -->
<g id="node5" class="node">
<title>course__BIOL150A</title>
<g id="a_node5"><a xlink:href="../../../courses/BIOL150A.html" xlink:title="Collapsed in simplified view: BIOL150A: Modern Biology | BIOL184: Evolution and Biodiversity" target="_top">
<path fill="#d7e9ef" stroke="#1f4f66" stroke-width="1.6" d="M109,-1027.7C109,-1027.7 55,-1027.7 55,-1027.7 49,-1027.7 43,-1021.7 43,-1015.7 43,-1015.7 43,-1003.7 43,-1003.7 43,-997.7 49,-991.7 55,-991.7 55,-991.7 109,-991.7 109,-991.7 115,-991.7 121,-997.7 121,-1003.7 121,-1003.7 121,-1015.7 121,-1015.7 121,-1021.7 115,-1027.7 109,-1027.7"/>
<text text-anchor="middle" x="82" y="-1007.2" font-family="Avenir Next" font-size="10.00" fill="#17232b">Intro biology</text>
</a>
</g>
</g>
<!-- course__BIOL186 -->
<g id="node9" class="node">
<title>course__BIOL186</title>
<g id="a_node9"><a xlink:href="../../../courses/BIOL186.html" xlink:title="BIOL186: Physiology and Cell Biology" target="_top">
<path fill="#d7e9ef" stroke="#1f4f66" stroke-width="1.6" d="M232.5,-1027.7C232.5,-1027.7 199.5,-1027.7 199.5,-1027.7 193.5,-1027.7 187.5,-1021.7 187.5,-1015.7 187.5,-1015.7 187.5,-1003.7 187.5,-1003.7 187.5,-997.7 193.5,-991.7 199.5,-991.7 199.5,-991.7 232.5,-991.7 232.5,-991.7 238.5,-991.7 244.5,-997.7 244.5,-1003.7 244.5,-1003.7 244.5,-1015.7 244.5,-1015.7 244.5,-1021.7 238.5,-1027.7 232.5,-1027.7"/>
<text text-anchor="middle" x="216" y="-1007.2" font-family="Avenir Next" font-size="10.00" fill="#17232b">BIOL186</text>
</a>
</g>
</g>
<!-- course__BIOL150A&#45;&gt;course__BIOL186 -->
<g id="edge4" class="edge">
<title>course__BIOL150A&#45;&gt;course__BIOL186</title>
<path fill="none" stroke="#5d6972" stroke-width="1.2" d="M121.18,-1005.57C139.87,-1005.04 162.2,-1005.07 180.38,-1005.68"/>
<polygon fill="#5d6972" stroke="#5d6972" stroke-width="1.2" points="180.3,-1008.13 187.39,-1005.96 180.49,-1003.24 180.3,-1008.13"/>
</g>
<!-- course__BIOL225 -->
<g id="node16" class="node">
<title>course__BIOL225</title>
<g id="a_node16"><a xlink:href="../../../courses/BIOL225.html" xlink:title="BIOL225: Principles of Cell Biology" target="_top">
<path fill="#d7e9ef" stroke="#1f4f66" stroke-width="1.6" d="M366,-1500.7C366,-1500.7 333,-1500.7 333,-1500.7 327,-1500.7 321,-1494.7 321,-1488.7 321,-1488.7 321,-1476.7 321,-1476.7 321,-1470.7 327,-1464.7 333,-1464.7 333,-1464.7 366,-1464.7 366,-1464.7 372,-1464.7 378,-1470.7 378,-1476.7 378,-1476.7 378,-1488.7 378,-1488.7 378,-1494.7 372,-1500.7 366,-1500.7"/>
<text text-anchor="middle" x="349.5" y="-1480.2" font-family="Avenir Next" font-size="10.00" fill="#17232b">BIOL225</text>
</a>
</g>
</g>
<!-- course__BIOL150A&#45;&gt;course__BIOL225 -->
<g id="edge6" class="edge">
<title>course__BIOL150A&#45;&gt;course__BIOL225</title>
<path fill="none" stroke="#5d6972" stroke-width="1.2" d="M121.17,-1019.32C128.91,-1022.78 136.39,-1027.44 142,-1033.7 187.62,-1084.63 163.89,-1116.35 184,-1181.7 222.16,-1305.68 184.23,-1367.01 276,-1458.7 286.14,-1468.83 300.66,-1474.69 314.04,-1478.07"/>
<polygon fill="#5d6972" stroke="#5d6972" stroke-width="1.2" points="313.53,-1480.47 320.9,-1479.62 314.61,-1475.69 313.53,-1480.47"/>
</g>
<!-- course__BIOL150A&#45;&gt;course__EOS330 -->
<g id="edge73" class="edge">
<title>course__BIOL150A&#45;&gt;course__EOS330</title>
<path fill="none" stroke="#5d6972" stroke-width="1.2" d="M121.18,-1021.13C128.57,-1024.44 135.9,-1028.58 142,-1033.7 168.91,-1056.3 158.79,-1076.21 184,-1100.7 218.01,-1133.73 230.25,-1142.26 276,-1154.7 333.04,-1170.2 363.7,-1192.67 409,-1154.7 463.65,-1108.88 390.62,-1050.88 437,-996.7 446.16,-985.99 460.33,-980.05 473.52,-976.76"/>
<polygon fill="#5d6972" stroke="#5d6972" stroke-width="1.2" points="474.4,-979.08 480.71,-975.19 473.35,-974.29 474.4,-979.08"/>
</g>
<!-- course__CHEM245 -->
<g id="node12" class="node">
<title>course__CHEM245</title>
<g id="a_node12"><a xlink:href="../../../courses/CHEM245.html" xlink:title="CHEM245: Introduction to Thermodynamics" target="_top">
<path fill="#d7e9ef" stroke="#1f4f66" stroke-width="1.6" d="M369.5,-1340.7C369.5,-1340.7 329.5,-1340.7 329.5,-1340.7 323.5,-1340.7 317.5,-1334.7 317.5,-1328.7 317.5,-1328.7 317.5,-1316.7 317.5,-1316.7 317.5,-1310.7 323.5,-1304.7 329.5,-1304.7 329.5,-1304.7 369.5,-1304.7 369.5,-1304.7 375.5,-1304.7 381.5,-1310.7 381.5,-1316.7 381.5,-1316.7 381.5,-1328.7 381.5,-1328.7 381.5,-1334.7 375.5,-1340.7 369.5,-1340.7"/>
<text text-anchor="middle" x="349.5" y="-1320.2" font-family="Avenir Next" font-size="10.00" fill="#17232b">CHEM245</text>
</a>
</g>
</g>
<!-- course__CHEM102&#45;&gt;course__CHEM245 -->
<g id="edge26" class="edge">
<title>course__CHEM102&#45;&gt;course__CHEM245</title>
<path fill="none" stroke="#5d6972" stroke-width="1.2" d="M243.18,-978.85C245.04,-980.97 246.7,-983.26 248,-985.7 280.91,-1047.29 232.63,-1243.97 276,-1298.7 284.34,-1309.22 297.42,-1315.17 310.19,-1318.52"/>
<polygon fill="#5d6972" stroke="#5d6972" stroke-width="1.2" points="309.85,-1320.96 317.22,-1320.13 310.95,-1316.18 309.85,-1320.96"/>
</g>
<!-- course__CHEM102&#45;&gt;course__EOS205 -->
<g id="edge31" class="edge">
<title>course__CHEM102&#45;&gt;course__EOS205</title>
<path fill="none" stroke="#5d6972" stroke-width="1.2" d="M243.21,-978.83C245.07,-980.96 246.71,-983.25 248,-985.7 285.59,-1057.09 226.27,-1284.16 276,-1347.7 285.41,-1359.72 301.03,-1365.78 315.36,-1368.81"/>
<polygon fill="#5d6972" stroke="#5d6972" stroke-width="1.2" points="314.93,-1371.23 322.26,-1370.07 315.81,-1366.41 314.93,-1371.23"/>
</g>
<!-- course__EOS261 -->
<g id="node19" class="node">
<title>course__EOS261</title>
<g id="a_node19"><a xlink:href="../../../courses/EOS261.html" xlink:title="EOS261: The Climate System" target="_top">
<path fill="#d7e9ef" stroke="#1f4f66" stroke-width="1.6" d="M364.5,-1242.7C364.5,-1242.7 334.5,-1242.7 334.5,-1242.7 328.5,-1242.7 322.5,-1236.7 322.5,-1230.7 322.5,-1230.7 322.5,-1218.7 322.5,-1218.7 322.5,-1212.7 328.5,-1206.7 334.5,-1206.7 334.5,-1206.7 364.5,-1206.7 364.5,-1206.7 370.5,-1206.7 376.5,-1212.7 376.5,-1218.7 376.5,-1218.7 376.5,-1230.7 376.5,-1230.7 376.5,-1236.7 370.5,-1242.7 364.5,-1242.7"/>
<text text-anchor="middle" x="349.5" y="-1222.2" font-family="Avenir Next" font-size="10.00" fill="#17232b">EOS261</text>
</a>
</g>
</g>
<!-- course__CHEM102&#45;&gt;course__EOS261 -->
<g id="edge42" class="edge">
<title>course__CHEM102&#45;&gt;course__EOS261</title>
<path fill="none" stroke="#5d6972" stroke-width="1.2" d="M242.93,-978.99C244.84,-981.09 246.58,-983.33 248,-985.7 282.02,-1042.34 248.71,-1071.53 276,-1131.7 287.96,-1158.06 308.82,-1183.66 325.1,-1201.31"/>
<polygon fill="#5d6972" stroke="#5d6972" stroke-width="1.2" points="323.42,-1203.1 329.99,-1206.53 326.99,-1199.74 323.42,-1203.1"/>
</g>
<!-- course__EOS311 -->
<g id="node28" class="node">
<title>course__EOS311</title>
<g id="a_node28"><a xlink:href="../../../courses/EOS311.html" xlink:title="Equivalent or cross&#45;listed: BIOL311: Biological Oceanography | EOS311: Biological Oceanography" target="_top">
<path fill="#d7e9ef" stroke="#1f4f66" stroke-width="1.6" d="M548,-843.7C548,-843.7 468,-843.7 468,-843.7 462,-843.7 456,-837.7 456,-831.7 456,-831.7 456,-819.7 456,-819.7 456,-813.7 462,-807.7 468,-807.7 468,-807.7 548,-807.7 548,-807.7 554,-807.7 560,-813.7 560,-819.7 560,-819.7 560,-831.7 560,-831.7 560,-837.7 554,-843.7 548,-843.7"/>
<text text-anchor="middle" x="508" y="-823.2" font-family="Avenir Next" font-size="10.00" fill="#17232b">BIOL311 / EOS311</text>
</a>
</g>
</g>
<!-- course__CHEM102&#45;&gt;course__EOS311 -->
<g id="edge50" class="edge">
<title>course__CHEM102&#45;&gt;course__EOS311</title>
<path fill="none" stroke="#5d6972" stroke-width="1.2" d="M225.22,-942.57C231.74,-927.91 240.9,-906.65 248,-887.7 262.09,-850.05 243.47,-825.31 276,-801.7 323.83,-766.97 350.31,-794.62 409,-801.7 421.99,-803.26 435.73,-805.96 448.7,-808.99"/>
<polygon fill="#5d6972" stroke="#5d6972" stroke-width="1.2" points="448.43,-811.45 455.8,-810.7 449.57,-806.68 448.43,-811.45"/>
</g>
<!-- course__EOS312 -->
<g id="node50" class="node">
<title>course__EOS312</title>
<g id="a_node50"><a xlink:href="../../../courses/EOS312.html" xlink:title="EOS312: Introductory Chemical Oceanography" target="_top">
<path fill="#f9f9f9" stroke="#363636" d="M364.5,-235.7C364.5,-235.7 334.5,-235.7 334.5,-235.7 328.5,-235.7 322.5,-229.7 322.5,-223.7 322.5,-223.7 322.5,-211.7 322.5,-211.7 322.5,-205.7 328.5,-199.7 334.5,-199.7 334.5,-199.7 364.5,-199.7 364.5,-199.7 370.5,-199.7 376.5,-205.7 376.5,-211.7 376.5,-211.7 376.5,-223.7 376.5,-223.7 376.5,-229.7 370.5,-235.7 364.5,-235.7"/>
<text text-anchor="middle" x="349.5" y="-215.5" font-family="Avenir Next" font-size="9.00" fill="#363636">EOS312</text>
</a>
</g>
</g>
<!-- course__CHEM102&#45;&gt;course__EOS312 -->
<g id="edge57" class="edge">
<title>course__CHEM102&#45;&gt;course__EOS312</title>
<path fill="none" stroke="#5d6972" stroke-width="1.2" d="M226.95,-942.41C234.24,-928 243.6,-907.17 248,-887.7 263.85,-817.62 232.68,-299.01 276,-241.7 285.27,-229.43 301.03,-223.35 315.49,-220.37"/>
<polygon fill="#5d6972" stroke="#5d6972" stroke-width="1.2" points="315.99,-222.77 322.45,-219.14 315.13,-217.95 315.99,-222.77"/>
</g>
<!-- course__MATH101&#45;&gt;course__PHYS102B -->
<g id="edge100" class="edge">
<title>course__MATH101&#45;&gt;course__PHYS102B</title>
<path fill="none" stroke="#5d6972" stroke-width="1.2" d="M247.83,-854.02C266.84,-848.67 291.35,-841.78 311.42,-836.13"/>
<polygon fill="#5d6972" stroke="#5d6972" stroke-width="1.2" points="312.24,-838.44 318.32,-834.19 310.91,-833.73 312.24,-838.44"/>
</g>
<!-- course__MATH200 -->
<g id="node14" class="node">
<title>course__MATH200</title>
<g id="a_node14"><a xlink:href="../../../courses/MATH200.html" xlink:title="Equivalent or cross&#45;listed: MATH200: Calculus III | MATH202: Intermediate Calculus for CSC and EOS" target="_top">
<path fill="#d7e9ef" stroke="#1f4f66" stroke-width="1.6" d="M397,-1291.7C397,-1291.7 302,-1291.7 302,-1291.7 296,-1291.7 290,-1285.7 290,-1279.7 290,-1279.7 290,-1267.7 290,-1267.7 290,-1261.7 296,-1255.7 302,-1255.7 302,-1255.7 397,-1255.7 397,-1255.7 403,-1255.7 409,-1261.7 409,-1267.7 409,-1267.7 409,-1279.7 409,-1279.7 409,-1285.7 403,-1291.7 397,-1291.7"/>
<text text-anchor="middle" x="349.5" y="-1271.2" font-family="Avenir Next" font-size="10.00" fill="#17232b">MATH200 / MATH202</text>
</a>
</g>
</g>
<!-- course__MATH101&#45;&gt;course__MATH200 -->
<g id="edge92" class="edge">
<title>course__MATH101&#45;&gt;course__MATH200</title>
<path fill="none" stroke="#5d6972" stroke-width="1.2" d="M226.4,-880.71C233.58,-895.37 243.07,-916.82 248,-936.7 264.8,-1004.48 232.63,-1194.97 276,-1249.7 278.25,-1252.53 280.84,-1255.04 283.68,-1257.25"/>
<polygon fill="#5d6972" stroke="#5d6972" stroke-width="1.2" points="282.65,-1259.51 289.83,-1261.39 285.39,-1255.45 282.65,-1259.51"/>
</g>
<!-- course__STAT254 -->
<g id="node27" class="node">
<title>course__STAT254</title>
<g id="a_node27"><a xlink:href="../../../courses/STAT254.html" xlink:title="Collapsed in simplified view: STAT254: Probability and Statistics for Engineers | STAT255: Statistics for Life Sciences I | STAT260: Introduction to Probability and Statistics I" target="_top">
<path fill="#d7e9ef" stroke="#1f4f66" stroke-width="1.6" d="M539,-941.7C539,-941.7 477,-941.7 477,-941.7 471,-941.7 465,-935.7 465,-929.7 465,-929.7 465,-917.7 465,-917.7 465,-911.7 471,-905.7 477,-905.7 477,-905.7 539,-905.7 539,-905.7 545,-905.7 551,-911.7 551,-917.7 551,-917.7 551,-929.7 551,-929.7 551,-935.7 545,-941.7 539,-941.7"/>
<text text-anchor="middle" x="508" y="-921.2" font-family="Avenir Next" font-size="10.00" fill="#17232b">Intro statistics</text>
</a>
</g>
</g>
<!-- course__MATH101&#45;&gt;course__STAT254 -->
<g id="edge102" class="edge">
<title>course__MATH101&#45;&gt;course__STAT254</title>
<path fill="none" stroke="#5d6972" stroke-width="1.2" d="M241.56,-844.68C243.8,-842.74 245.99,-840.73 248,-838.7 262.5,-824.03 257.53,-810.88 276,-801.7 328.93,-775.38 361.81,-766.1 409,-801.7 445.16,-828.98 405.81,-866.84 437,-899.7 442.8,-905.81 450.23,-910.37 458.07,-913.76"/>
<polygon fill="#5d6972" stroke="#5d6972" stroke-width="1.2" points="457.31,-916.1 464.73,-916.35 459.09,-911.53 457.31,-916.1"/>
</g>
<!-- course__EOS210 -->
<g id="node46" class="node">
<title>course__EOS210</title>
<g id="a_node46"><a xlink:href="../../../courses/EOS210.html" xlink:title="Collapsed in simplified view: EOS210: Introductory Geophysics | PHYS210: Introductory Geophysics" target="_top">
<path fill="#f9f9f9" stroke="#363636" d="M383.5,-507.7C383.5,-507.7 315.5,-507.7 315.5,-507.7 309.5,-507.7 303.5,-501.7 303.5,-495.7 303.5,-495.7 303.5,-483.7 303.5,-483.7 303.5,-477.7 309.5,-471.7 315.5,-471.7 315.5,-471.7 383.5,-471.7 383.5,-471.7 389.5,-471.7 395.5,-477.7 395.5,-483.7 395.5,-483.7 395.5,-495.7 395.5,-495.7 395.5,-501.7 389.5,-507.7 383.5,-507.7"/>
<text text-anchor="middle" x="349.5" y="-487.5" font-family="Avenir Next" font-size="9.00" fill="#363636">Intro geophysics</text>
</a>
</g>
</g>
<!-- course__MATH101&#45;&gt;course__EOS210 -->
<g id="edge32" class="edge">
<title>course__MATH101&#45;&gt;course__EOS210</title>
<path fill="none" stroke="#5d6972" stroke-width="1.2" d="M244,-844.44C245.53,-842.64 246.89,-840.73 248,-838.7 282.3,-775.84 232.97,-574.93 276,-517.7 281.26,-510.7 288.5,-505.46 296.39,-501.52"/>
<polygon fill="#5d6972" stroke="#5d6972" stroke-width="1.2" points="297.74,-503.6 303.14,-498.51 295.75,-499.12 297.74,-503.6"/>
</g>
<!-- choice_EOS261_0_4 -->
<g id="node57" class="node">
<title>choice_EOS261_0_4</title>
<path fill="#fff7ee" stroke="#b7793f" stroke-width="1.1" d="M523,-534.7C523,-534.7 493,-534.7 493,-534.7 487,-534.7 481,-528.7 481,-522.7 481,-522.7 481,-510.7 481,-510.7 481,-504.7 487,-498.7 493,-498.7 493,-498.7 523,-498.7 523,-498.7 529,-498.7 535,-504.7 535,-510.7 535,-510.7 535,-522.7 535,-522.7 535,-528.7 529,-534.7 523,-534.7"/>
<text text-anchor="middle" x="508" y="-514.5" font-family="Avenir Next" font-size="9.00">1 of</text>
</g>
<!-- course__MATH101&#45;&gt;choice_EOS261_0_4 -->
<g id="edge39" class="edge">
<title>course__MATH101&#45;&gt;choice_EOS261_0_4</title>
<path fill="none" stroke="#7a8389" d="M243.92,-844.39C245.46,-842.61 246.85,-840.71 248,-838.7 297.11,-752.73 208.64,-690.26 276,-617.7 317.04,-573.49 359.47,-625.11 409,-590.7 428.34,-577.26 419.04,-560.93 437,-545.7 447.66,-536.65 461.54,-530.12 474.13,-525.57"/>
<polygon fill="#7a8389" stroke="#7a8389" points="475.12,-527.82 480.96,-523.24 473.54,-523.18 475.12,-527.82"/>
</g>
<!-- course__MATH101&#45;&gt;choice_EOS311_0_2 -->
<g id="edge48" class="edge">
<title>course__MATH101&#45;&gt;choice_EOS311_0_2</title>
<path fill="none" stroke="#7a8389" d="M243.99,-844.43C245.52,-842.64 246.88,-840.72 248,-838.7 279.96,-780.62 231.68,-591 276,-541.7 316.32,-496.84 354.25,-540.01 409,-514.7 423.36,-508.05 423.15,-500.35 437,-492.7 448.52,-486.34 461.97,-481.07 473.99,-477.05"/>
<polygon fill="#7a8389" stroke="#7a8389" points="474.96,-479.31 480.87,-474.82 473.45,-474.64 474.96,-479.31"/>
</g>
<!-- course__PHYS102A&#45;&gt;course__PHYS102B -->
<g id="edge98" class="edge">
<title>course__PHYS102A&#45;&gt;course__PHYS102B</title>
<path fill="none" stroke="#5d6972" stroke-width="1.2" d="M245.53,-816.3C264.72,-818.05 290.22,-820.38 311.04,-822.28"/>
<polygon fill="#5d6972" stroke="#5d6972" stroke-width="1.2" points="311,-824.73 318.19,-822.93 311.44,-819.86 311,-824.73"/>
</g>
<!-- course__PHYS102A&#45;&gt;course__EOS210 -->
<g id="edge33" class="edge">
<title>course__PHYS102A&#45;&gt;course__EOS210</title>
<path fill="none" stroke="#5d6972" stroke-width="1.2" d="M223,-795.36C229.85,-773.85 241.02,-737 248,-704.7 265.75,-622.56 223.46,-583.28 276,-517.7 281.4,-510.95 288.64,-505.83 296.46,-501.94"/>
<polygon fill="#5d6972" stroke="#5d6972" stroke-width="1.2" points="297.75,-504.05 303.14,-498.95 295.75,-499.57 297.75,-504.05"/>
</g>
<!-- course__BIOL186&#45;&gt;course__BIOL150A -->
<g id="edge3" class="edge">
<title>course__BIOL186&#45;&gt;course__BIOL150A</title>
<path fill="none" stroke="#5d6972" stroke-width="1.2" d="M187.39,-1014.06C170.29,-1014.96 147.92,-1015.17 128.28,-1014.71"/>
<polygon fill="#5d6972" stroke="#5d6972" stroke-width="1.2" points="128.25,-1012.26 121.18,-1014.51 128.11,-1017.16 128.25,-1012.26"/>
</g>
<!-- course__BIOL186&#45;&gt;course__BIOL225 -->
<g id="edge5" class="edge">
<title>course__BIOL186&#45;&gt;course__BIOL225</title>
<path fill="none" stroke="#5d6972" stroke-width="1.2" d="M219.11,-1027.75C228.81,-1110.55 268.96,-1450.19 276,-1458.7 285.28,-1469.92 299.95,-1475.93 313.67,-1479.14"/>
<polygon fill="#5d6972" stroke="#5d6972" stroke-width="1.2" points="313.37,-1481.58 320.72,-1480.57 314.35,-1476.78 313.37,-1481.58"/>
</g>
<!-- course__PHYS102B&#45;&gt;course__EOS261 -->
<g id="edge43" class="edge">
<title>course__PHYS102B&#45;&gt;course__EOS261</title>
<path fill="none" stroke="#5d6972" stroke-width="1.2" d="M341.26,-843.71C322.59,-885.66 277.47,-993.55 262,-1089.2 255.9,-1126.93 242.74,-1142.18 262,-1175.2 273.56,-1195.02 296.33,-1207.54 315.75,-1215.03"/>
<polygon fill="#5d6972" stroke="#5d6972" stroke-width="1.2" points="315.03,-1217.38 322.45,-1217.47 316.71,-1212.77 315.03,-1217.38"/>
</g>
<!-- course__PHYS102B&#45;&gt;course__EOS311 -->
<g id="edge52" class="edge">
<title>course__PHYS102B&#45;&gt;course__EOS311</title>
<path fill="none" stroke="#5d6972" stroke-width="1.2" d="M380.67,-825.7C399.99,-825.7 425.7,-825.7 448.87,-825.7"/>
<polygon fill="#5d6972" stroke="#5d6972" stroke-width="1.2" points="448.97,-828.15 455.97,-825.7 448.97,-823.25 448.97,-828.15"/>
</g>
<!-- course__EOS325 -->
<g id="node31" class="node">
<title>course__EOS325</title>
<g id="a_node31"><a xlink:href="../../../courses/EOS325.html" xlink:title="EOS325: Earth System Modelling" target="_top">
<path fill="#d7e9ef" stroke="#1f4f66" stroke-width="1.6" d="M523,-794.7C523,-794.7 493,-794.7 493,-794.7 487,-794.7 481,-788.7 481,-782.7 481,-782.7 481,-770.7 481,-770.7 481,-764.7 487,-758.7 493,-758.7 493,-758.7 523,-758.7 523,-758.7 529,-758.7 535,-764.7 535,-770.7 535,-770.7 535,-782.7 535,-782.7 535,-788.7 529,-794.7 523,-794.7"/>
<text text-anchor="middle" x="508" y="-774.2" font-family="Avenir Next" font-size="10.00" fill="#17232b">EOS325</text>
</a>
</g>
</g>
<!-- course__PHYS102B&#45;&gt;course__EOS325 -->
<g id="edge70" class="edge">
<title>course__PHYS102B&#45;&gt;course__EOS325</title>
<path fill="none" stroke="#5d6972" stroke-width="1.2" d="M380.67,-816.25C407.45,-807.87 446.49,-795.64 474.07,-787.01"/>
<polygon fill="#5d6972" stroke="#5d6972" stroke-width="1.2" points="474.87,-789.32 480.82,-784.89 473.4,-784.65 474.87,-789.32"/>
</g>
<!-- course__EOS314 -->
<g id="node47" class="node">
<title>course__EOS314</title>
<g id="a_node47"><a xlink:href="../../../courses/EOS314.html" xlink:title="EOS314: Descriptive Physical Oceanography" target="_top">
<path fill="#f9f9f9" stroke="#363636" d="M364.5,-382.7C364.5,-382.7 334.5,-382.7 334.5,-382.7 328.5,-382.7 322.5,-376.7 322.5,-370.7 322.5,-370.7 322.5,-358.7 322.5,-358.7 322.5,-352.7 328.5,-346.7 334.5,-346.7 334.5,-346.7 364.5,-346.7 364.5,-346.7 370.5,-346.7 376.5,-352.7 376.5,-358.7 376.5,-358.7 376.5,-370.7 376.5,-370.7 376.5,-376.7 370.5,-382.7 364.5,-382.7"/>
<text text-anchor="middle" x="349.5" y="-362.5" font-family="Avenir Next" font-size="9.00" fill="#363636">EOS314</text>
</a>
</g>
</g>
<!-- course__PHYS102B&#45;&gt;course__EOS314 -->
<g id="edge61" class="edge">
<title>course__PHYS102B&#45;&gt;course__EOS314</title>
<path fill="none" stroke="#5d6972" stroke-width="1.2" d="M322.41,-807.53C301.5,-791.73 274.15,-766.77 262,-737.2 247.6,-702.15 241.62,-428.14 262,-396.2 273.37,-378.38 296,-370.55 315.39,-367.15"/>
<polygon fill="#5d6972" stroke="#5d6972" stroke-width="1.2" points="315.81,-369.56 322.36,-366.09 315.07,-364.72 315.81,-369.56"/>
</g>
<!-- course__MATH248 -->
<g id="node48" class="node">
<title>course__MATH248</title>
<g id="a_node48"><a xlink:href="../../../courses/MATH248.html" xlink:title="Equivalent or cross&#45;listed: MATH248: Computer Assisted Mathematics | PHYS248: Computer Assisted Physics" target="_top">
<path fill="#f9f9f9" stroke="#363636" d="M392.5,-1633.7C392.5,-1633.7 306.5,-1633.7 306.5,-1633.7 300.5,-1633.7 294.5,-1627.7 294.5,-1621.7 294.5,-1621.7 294.5,-1609.7 294.5,-1609.7 294.5,-1603.7 300.5,-1597.7 306.5,-1597.7 306.5,-1597.7 392.5,-1597.7 392.5,-1597.7 398.5,-1597.7 404.5,-1603.7 404.5,-1609.7 404.5,-1609.7 404.5,-1621.7 404.5,-1621.7 404.5,-1627.7 398.5,-1633.7 392.5,-1633.7"/>
<text text-anchor="middle" x="349.5" y="-1613.5" font-family="Avenir Next" font-size="9.00" fill="#363636">MATH248 / PHYS248</text>
</a>
</g>
</g>
<!-- course__PHYS102B&#45;&gt;course__MATH248 -->
<g id="edge96" class="edge">
<title>course__PHYS102B&#45;&gt;course__MATH248</title>
<path fill="none" stroke="#5d6972" stroke-width="1.2" d="M341.26,-843.71C322.59,-885.66 277.47,-993.55 262,-1089.2 257.65,-1116.12 247.32,-1557.2 262,-1580.2 268.14,-1589.81 277.4,-1596.82 287.63,-1601.93"/>
<polygon fill="#5d6972" stroke="#5d6972" stroke-width="1.2" points="286.73,-1604.21 294.11,-1604.87 288.75,-1599.75 286.73,-1604.21"/>
</g>
<!-- course__EOS431 -->
<g id="node49" class="node">
<title>course__EOS431</title>
<g id="a_node49"><a xlink:href="../../../courses/EOS431.html" xlink:title="Equivalent or cross&#45;listed: EOS431: Physical Oceanography | PHYS441: Physical Oceanography" target="_top">
<path fill="#f9f9f9" stroke="#363636" d="M389.5,-284.7C389.5,-284.7 309.5,-284.7 309.5,-284.7 303.5,-284.7 297.5,-278.7 297.5,-272.7 297.5,-272.7 297.5,-260.7 297.5,-260.7 297.5,-254.7 303.5,-248.7 309.5,-248.7 309.5,-248.7 389.5,-248.7 389.5,-248.7 395.5,-248.7 401.5,-254.7 401.5,-260.7 401.5,-260.7 401.5,-272.7 401.5,-272.7 401.5,-278.7 395.5,-284.7 389.5,-284.7"/>
<text text-anchor="middle" x="349.5" y="-264.5" font-family="Avenir Next" font-size="9.00" fill="#363636">EOS431 / PHYS441</text>
</a>
</g>
</g>
<!-- course__PHYS102B&#45;&gt;course__EOS431 -->
<g id="edge85" class="edge">
<title>course__PHYS102B&#45;&gt;course__EOS431</title>
<path fill="none" stroke="#5d6972" stroke-width="1.2" d="M322.41,-807.53C301.5,-791.73 274.15,-766.77 262,-737.2 252.71,-714.59 248.85,-317.8 262,-297.2 268.58,-286.88 278.98,-280 290.34,-275.43"/>
<polygon fill="#5d6972" stroke="#5d6972" stroke-width="1.2" points="291.36,-277.67 297.12,-273 289.71,-273.06 291.36,-277.67"/>
</g>
<!-- course__BIOL230 -->
<g id="node21" class="node">
<title>course__BIOL230</title>
<g id="a_node21"><a xlink:href="../../../courses/BIOL230.html" xlink:title="BIOL230: Principles of Genetics" target="_top">
<path fill="#d7e9ef" stroke="#1f4f66" stroke-width="1.6" d="M524.5,-1413.7C524.5,-1413.7 491.5,-1413.7 491.5,-1413.7 485.5,-1413.7 479.5,-1407.7 479.5,-1401.7 479.5,-1401.7 479.5,-1389.7 479.5,-1389.7 479.5,-1383.7 485.5,-1377.7 491.5,-1377.7 491.5,-1377.7 524.5,-1377.7 524.5,-1377.7 530.5,-1377.7 536.5,-1383.7 536.5,-1389.7 536.5,-1389.7 536.5,-1401.7 536.5,-1401.7 536.5,-1407.7 530.5,-1413.7 524.5,-1413.7"/>
<text text-anchor="middle" x="508" y="-1393.2" font-family="Avenir Next" font-size="10.00" fill="#17232b">BIOL230</text>
</a>
</g>
</g>
<!-- course__CHEM231&#45;&gt;course__BIOL230 -->
<g id="edge8" class="edge">
<title>course__CHEM231&#45;&gt;course__BIOL230</title>
<path fill="none" stroke="#5d6972" stroke-width="1.2" d="M381.79,-1426.1C408,-1419.74 445.35,-1410.67 472.43,-1404.09"/>
<polygon fill="#5d6972" stroke="#5d6972" stroke-width="1.2" points="473.2,-1406.42 479.43,-1402.39 472.05,-1401.66 473.2,-1406.42"/>
</g>
<!-- course__EOS201 -->
<g id="node17" class="node">
<title>course__EOS201</title>
<g id="a_node17"><a xlink:href="../../../courses/EOS201.html" xlink:title="EOS201: Sedimentary Geology" target="_top">
<path fill="#d7e9ef" stroke="#1f4f66" stroke-width="1.6" d="M523,-1364.7C523,-1364.7 493,-1364.7 493,-1364.7 487,-1364.7 481,-1358.7 481,-1352.7 481,-1352.7 481,-1340.7 481,-1340.7 481,-1334.7 487,-1328.7 493,-1328.7 493,-1328.7 523,-1328.7 523,-1328.7 529,-1328.7 535,-1334.7 535,-1340.7 535,-1340.7 535,-1352.7 535,-1352.7 535,-1358.7 529,-1364.7 523,-1364.7"/>
<text text-anchor="middle" x="508" y="-1344.2" font-family="Avenir Next" font-size="10.00" fill="#17232b">EOS201</text>
</a>
</g>
</g>
<!-- course__EOS205&#45;&gt;course__EOS201 -->
<g id="edge28" class="edge">
<title>course__EOS205&#45;&gt;course__EOS201</title>
<path fill="none" stroke="#5d6972" stroke-width="1.2" d="M376.69,-1367.51C403.41,-1363.25 444.93,-1356.61 473.9,-1351.98"/>
<polygon fill="#5d6972" stroke="#5d6972" stroke-width="1.2" points="474.45,-1354.38 480.98,-1350.85 473.68,-1349.54 474.45,-1354.38"/>
</g>
<!-- course__EOS240 -->
<g id="node18" class="node">
<title>course__EOS240</title>
<g id="a_node18"><a xlink:href="../../../courses/EOS240.html" xlink:title="EOS240: Geochemistry" target="_top">
<path fill="#d7e9ef" stroke="#1f4f66" stroke-width="1.6" d="M523,-1315.7C523,-1315.7 493,-1315.7 493,-1315.7 487,-1315.7 481,-1309.7 481,-1303.7 481,-1303.7 481,-1291.7 481,-1291.7 481,-1285.7 487,-1279.7 493,-1279.7 493,-1279.7 523,-1279.7 523,-1279.7 529,-1279.7 535,-1285.7 535,-1291.7 535,-1291.7 535,-1303.7 535,-1303.7 535,-1309.7 529,-1315.7 523,-1315.7"/>
<text text-anchor="middle" x="508" y="-1295.2" font-family="Avenir Next" font-size="10.00" fill="#17232b">EOS240</text>
</a>
</g>
</g>
<!-- course__EOS205&#45;&gt;course__EOS240 -->
<g id="edge38" class="edge">
<title>course__EOS205&#45;&gt;course__EOS240</title>
<path fill="none" stroke="#5d6972" stroke-width="1.2" d="M376.76,-1363.1C387.19,-1359.14 399.04,-1353.93 409,-1347.7 423.14,-1338.85 422.66,-1331.22 437,-1322.7 448.32,-1315.98 461.72,-1310.64 473.76,-1306.66"/>
<polygon fill="#5d6972" stroke="#5d6972" stroke-width="1.2" points="474.74,-1308.92 480.67,-1304.47 473.25,-1304.25 474.74,-1308.92"/>
</g>
<!-- course__MATH204 -->
<g id="node20" class="node">
<title>course__MATH204</title>
<g id="a_node20"><a xlink:href="../../../courses/MATH204.html" xlink:title="MATH204: Calculus IV" target="_top">
<path fill="#d7e9ef" stroke="#1f4f66" stroke-width="1.6" d="M527.5,-1266.7C527.5,-1266.7 488.5,-1266.7 488.5,-1266.7 482.5,-1266.7 476.5,-1260.7 476.5,-1254.7 476.5,-1254.7 476.5,-1242.7 476.5,-1242.7 476.5,-1236.7 482.5,-1230.7 488.5,-1230.7 488.5,-1230.7 527.5,-1230.7 527.5,-1230.7 533.5,-1230.7 539.5,-1236.7 539.5,-1242.7 539.5,-1242.7 539.5,-1254.7 539.5,-1254.7 539.5,-1260.7 533.5,-1266.7 527.5,-1266.7"/>
<text text-anchor="middle" x="508" y="-1246.2" font-family="Avenir Next" font-size="10.00" fill="#17232b">MATH204</text>
</a>
</g>
</g>
<!-- course__MATH200&#45;&gt;course__MATH204 -->
<g id="edge93" class="edge">
<title>course__MATH200&#45;&gt;course__MATH204</title>
<path fill="none" stroke="#5d6972" stroke-width="1.2" d="M409.22,-1264.32C429.28,-1261.11 451.17,-1257.62 469.15,-1254.74"/>
<polygon fill="#5d6972" stroke="#5d6972" stroke-width="1.2" points="469.56,-1257.16 476.08,-1253.64 468.78,-1252.32 469.56,-1257.16"/>
</g>
<!-- course__MATH200&#45;&gt;course__STAT254 -->
<g id="edge101" class="edge">
<title>course__MATH200&#45;&gt;course__STAT254</title>
<path fill="none" stroke="#5d6972" stroke-width="1.2" d="M403.69,-1255.51C405.65,-1253.75 407.43,-1251.81 409,-1249.7 488.93,-1141.7 354.6,-1054.81 437,-948.7 442.38,-941.77 449.84,-936.76 457.89,-933.13"/>
<polygon fill="#5d6972" stroke="#5d6972" stroke-width="1.2" points="459.16,-935.27 464.76,-930.4 457.35,-930.71 459.16,-935.27"/>
</g>
<!-- course__MATH200&#45;&gt;course__MATH248 -->
<g id="edge94" class="edge">
<title>course__MATH200&#45;&gt;course__MATH248</title>
<path fill="none" stroke="#5d6972" stroke-width="1.2" d="M289.9,-1283.36C278.72,-1288.06 268.51,-1294.99 262,-1305.2 245.56,-1330.95 245.56,-1554.44 262,-1580.2 268.14,-1589.81 277.4,-1596.82 287.63,-1601.93"/>
<polygon fill="#5d6972" stroke="#5d6972" stroke-width="1.2" points="286.73,-1604.21 294.11,-1604.87 288.75,-1599.75 286.73,-1604.21"/>
</g>
<!-- choice_EOS325_0_0 -->
<g id="node60" class="node">
<title>choice_EOS325_0_0</title>
<path fill="#fff7ee" stroke="#b7793f" stroke-width="1.1" d="M523,-1633.7C523,-1633.7 493,-1633.7 493,-1633.7 487,-1633.7 481,-1627.7 481,-1621.7 481,-1621.7 481,-1609.7 481,-1609.7 481,-1603.7 487,-1597.7 493,-1597.7 493,-1597.7 523,-1597.7 523,-1597.7 529,-1597.7 535,-1603.7 535,-1609.7 535,-1609.7 535,-1621.7 535,-1621.7 535,-1627.7 529,-1633.7 523,-1633.7"/>
<text text-anchor="middle" x="508" y="-1613.5" font-family="Avenir Next" font-size="9.00">1 of</text>
</g>
<!-- course__MATH200&#45;&gt;choice_EOS325_0_0 -->
<g id="edge62" class="edge">
<title>course__MATH200&#45;&gt;choice_EOS325_0_0</title>
<path fill="none" stroke="#7a8389" d="M402.46,-1291.71C404.89,-1293.79 407.11,-1296.11 409,-1298.7 484.97,-1402.47 360.46,-1483.35 437,-1586.7 445.8,-1598.58 460.37,-1605.62 473.94,-1609.78"/>
<polygon fill="#7a8389" stroke="#7a8389" points="473.51,-1612.2 480.91,-1611.7 474.82,-1607.48 473.51,-1612.2"/>
</g>
<!-- course__BIOL215 -->
<g id="node15" class="node">
<title>course__BIOL215</title>
<g id="a_node15"><a xlink:href="../../../courses/BIOL215.html" xlink:title="BIOL215: Principles of Ecology" target="_top">
<path fill="#d7e9ef" stroke="#1f4f66" stroke-width="1.6" d="M366,-1549.7C366,-1549.7 333,-1549.7 333,-1549.7 327,-1549.7 321,-1543.7 321,-1537.7 321,-1537.7 321,-1525.7 321,-1525.7 321,-1519.7 327,-1513.7 333,-1513.7 333,-1513.7 366,-1513.7 366,-1513.7 372,-1513.7 378,-1519.7 378,-1525.7 378,-1525.7 378,-1537.7 378,-1537.7 378,-1543.7 372,-1549.7 366,-1549.7"/>
<text text-anchor="middle" x="349.5" y="-1529.2" font-family="Avenir Next" font-size="10.00" fill="#17232b">BIOL215</text>
</a>
</g>
</g>
<!-- course__BIOL370 -->
<g id="node35" class="node">
<title>course__BIOL370</title>
<g id="a_node35"><a xlink:href="../../../courses/BIOL370.html" xlink:title="BIOL370: Conservation Biology" target="_top">
<path fill="#ead9b8" stroke="#8f6a3b" stroke-width="1.3" d="M655.5,-1101.7C655.5,-1101.7 622.5,-1101.7 622.5,-1101.7 616.5,-1101.7 610.5,-1095.7 610.5,-1089.7 610.5,-1089.7 610.5,-1077.7 610.5,-1077.7 610.5,-1071.7 616.5,-1065.7 622.5,-1065.7 622.5,-1065.7 655.5,-1065.7 655.5,-1065.7 661.5,-1065.7 667.5,-1071.7 667.5,-1077.7 667.5,-1077.7 667.5,-1089.7 667.5,-1089.7 667.5,-1095.7 661.5,-1101.7 655.5,-1101.7"/>
<text text-anchor="middle" x="639" y="-1081.2" font-family="Avenir Next" font-size="10.00" fill="#3f3120">BIOL370</text>
</a>
</g>
</g>
<!-- course__BIOL215&#45;&gt;course__BIOL370 -->
<g id="edge15" class="edge">
<title>course__BIOL215&#45;&gt;course__BIOL370</title>
<path fill="none" stroke="#5d6972" stroke-width="1.2" d="M373.88,-1549.82C386.22,-1560.65 400.53,-1575.44 409,-1591.7 439.74,-1650.67 385.76,-1696.3 437,-1738.7 458.91,-1756.83 544.23,-1758.13 565,-1738.7 616.23,-1690.77 574.64,-1170.95 607,-1108.7 607.16,-1108.39 607.32,-1108.09 607.49,-1107.78"/>
<polygon fill="#5d6972" stroke="#5d6972" stroke-width="1.2" points="609.68,-1108.94 611.76,-1101.82 605.7,-1106.09 609.68,-1108.94"/>
</g>
<!-- choice_BIOL330_0_2 -->
<g id="node54" class="node">
<title>choice_BIOL330_0_2</title>
<path fill="#fff7ee" stroke="#b7793f" stroke-width="1.1" d="M523,-1682.7C523,-1682.7 493,-1682.7 493,-1682.7 487,-1682.7 481,-1676.7 481,-1670.7 481,-1670.7 481,-1658.7 481,-1658.7 481,-1652.7 487,-1646.7 493,-1646.7 493,-1646.7 523,-1646.7 523,-1646.7 529,-1646.7 535,-1652.7 535,-1658.7 535,-1658.7 535,-1670.7 535,-1670.7 535,-1676.7 529,-1682.7 523,-1682.7"/>
<text text-anchor="middle" x="508" y="-1662.5" font-family="Avenir Next" font-size="9.00">1 of</text>
</g>
<!-- course__BIOL215&#45;&gt;choice_BIOL330_0_2 -->
<g id="edge9" class="edge">
<title>course__BIOL215&#45;&gt;choice_BIOL330_0_2</title>
<path fill="none" stroke="#7a8389" d="M370.52,-1549.76C382.48,-1561.12 397.53,-1576.48 409,-1591.7 424.1,-1611.73 417.67,-1624.71 437,-1640.7 447.53,-1649.4 461.38,-1655.01 473.99,-1658.6"/>
<polygon fill="#7a8389" stroke="#7a8389" points="473.44,-1660.99 480.83,-1660.4 474.68,-1656.25 473.44,-1660.99"/>
</g>
<!-- choice_BIOL457_0_0 -->
<g id="node55" class="node">
<title>choice_BIOL457_0_0</title>
<path fill="#fff7ee" stroke="#b7793f" stroke-width="1.1" d="M523,-1731.7C523,-1731.7 493,-1731.7 493,-1731.7 487,-1731.7 481,-1725.7 481,-1719.7 481,-1719.7 481,-1707.7 481,-1707.7 481,-1701.7 487,-1695.7 493,-1695.7 493,-1695.7 523,-1695.7 523,-1695.7 529,-1695.7 535,-1701.7 535,-1707.7 535,-1707.7 535,-1719.7 535,-1719.7 535,-1725.7 529,-1731.7 523,-1731.7"/>
<text text-anchor="middle" x="508" y="-1711.5" font-family="Avenir Next" font-size="9.00">1 of</text>
</g>
<!-- course__BIOL215&#45;&gt;choice_BIOL457_0_0 -->
<g id="edge18" class="edge">
<title>course__BIOL215&#45;&gt;choice_BIOL457_0_0</title>
<path fill="none" stroke="#7a8389" d="M373.03,-1549.87C385.26,-1560.82 399.73,-1575.71 409,-1591.7 431.72,-1630.88 405.81,-1656.84 437,-1689.7 446.63,-1699.84 460.72,-1705.69 473.75,-1709.08"/>
<polygon fill="#7a8389" stroke="#7a8389" points="473.46,-1711.53 480.83,-1710.71 474.56,-1706.75 473.46,-1711.53"/>
</g>
<!-- course__BIOL225&#45;&gt;course__BIOL230 -->
<g id="edge7" class="edge">
<title>course__BIOL225&#45;&gt;course__BIOL230</title>
<path fill="none" stroke="#5d6972" stroke-width="1.2" d="M378.05,-1472.59C387.99,-1468.64 399.17,-1463.82 409,-1458.7 432.05,-1446.69 456.64,-1430.87 475.43,-1418.08"/>
<polygon fill="#5d6972" stroke="#5d6972" stroke-width="1.2" points="477.18,-1419.85 481.57,-1413.87 474.41,-1415.81 477.18,-1419.85"/>
</g>
<!-- course__BIOL225&#45;&gt;choice_BIOL330_0_2 -->
<g id="edge10" class="edge">
<title>course__BIOL225&#45;&gt;choice_BIOL330_0_2</title>
<path fill="none" stroke="#7a8389" d="M378.06,-1488.55C389.19,-1492.26 401.22,-1498.22 409,-1507.7 447.32,-1554.39 396.99,-1595.44 437,-1640.7 446.33,-1651.25 460.52,-1657.17 473.69,-1660.48"/>
<polygon fill="#7a8389" stroke="#7a8389" points="473.5,-1662.95 480.86,-1662.07 474.55,-1658.17 473.5,-1662.95"/>
</g>
<!-- course__EOS300 -->
<g id="node30" class="node">
<title>course__EOS300</title>
<g id="a_node30"><a xlink:href="../../../courses/EOS300.html" xlink:title="EOS300: Earth Science Field School" target="_top">
<path fill="#dbe8d2" stroke="#567447" stroke-width="1.3" d="M523,-696.7C523,-696.7 493,-696.7 493,-696.7 487,-696.7 481,-690.7 481,-684.7 481,-684.7 481,-672.7 481,-672.7 481,-666.7 487,-660.7 493,-660.7 493,-660.7 523,-660.7 523,-660.7 529,-660.7 535,-666.7 535,-672.7 535,-672.7 535,-684.7 535,-684.7 535,-690.7 529,-696.7 523,-696.7"/>
<text text-anchor="middle" x="508" y="-676.2" font-family="Avenir Next" font-size="10.00" fill="#24311e">EOS300</text>
</a>
</g>
</g>
<!-- course__EOS201&#45;&gt;course__EOS300 -->
<g id="edge45" class="edge">
<title>course__EOS201&#45;&gt;course__EOS300</title>
<path fill="none" stroke="#5d6972" stroke-width="1.2" d="M480.82,-1345.28C460.88,-1342.6 435.23,-1335.36 423,-1316.2 404.89,-1287.82 404.89,-738.58 423,-710.2 433.84,-693.22 455.09,-685.34 473.63,-681.71"/>
<polygon fill="#5d6972" stroke="#5d6972" stroke-width="1.2" points="474.35,-684.07 480.84,-680.48 473.53,-679.24 474.35,-684.07"/>
</g>
<!-- course__EOS335 -->
<g id="node32" class="node">
<title>course__EOS335</title>
<g id="a_node32"><a xlink:href="../../../courses/EOS335.html" xlink:title="EOS335: Isotopes in Natural Sciences" target="_top">
<path fill="#d7e9ef" stroke="#1f4f66" stroke-width="1.6" d="M523,-1101.7C523,-1101.7 493,-1101.7 493,-1101.7 487,-1101.7 481,-1095.7 481,-1089.7 481,-1089.7 481,-1077.7 481,-1077.7 481,-1071.7 487,-1065.7 493,-1065.7 493,-1065.7 523,-1065.7 523,-1065.7 529,-1065.7 535,-1071.7 535,-1077.7 535,-1077.7 535,-1089.7 535,-1089.7 535,-1095.7 529,-1101.7 523,-1101.7"/>
<text text-anchor="middle" x="508" y="-1081.2" font-family="Avenir Next" font-size="10.00" fill="#17232b">EOS335</text>
</a>
</g>
</g>
<!-- course__EOS240&#45;&gt;course__EOS335 -->
<g id="edge74" class="edge">
<title>course__EOS240&#45;&gt;course__EOS335</title>
<path fill="none" stroke="#5d6972" stroke-width="1.2" d="M480.82,-1296.28C460.88,-1293.6 435.23,-1286.36 423,-1267.2 404.83,-1238.72 404.83,-1143.67 423,-1115.2 433.84,-1098.22 455.09,-1090.34 473.63,-1086.71"/>
<polygon fill="#5d6972" stroke="#5d6972" stroke-width="1.2" points="474.35,-1089.07 480.84,-1085.48 473.53,-1084.24 474.35,-1089.07"/>
</g>
<!-- course__EOS460 -->
<g id="node36" class="node">
<title>course__EOS460</title>
<g id="a_node36"><a xlink:href="../../../courses/EOS460.html" xlink:title="EOS460: Earth System Science" target="_top">
<path fill="#dbe8d2" stroke="#567447" stroke-width="1.3" d="M654,-1150.7C654,-1150.7 624,-1150.7 624,-1150.7 618,-1150.7 612,-1144.7 612,-1138.7 612,-1138.7 612,-1126.7 612,-1126.7 612,-1120.7 618,-1114.7 624,-1114.7 624,-1114.7 654,-1114.7 654,-1114.7 660,-1114.7 666,-1120.7 666,-1126.7 666,-1126.7 666,-1138.7 666,-1138.7 666,-1144.7 660,-1150.7 654,-1150.7"/>
<text text-anchor="middle" x="639" y="-1130.2" font-family="Avenir Next" font-size="10.00" fill="#24311e">EOS460</text>
</a>
</g>
</g>
<!-- course__EOS261&#45;&gt;course__EOS460 -->
<g id="edge89" class="edge">
<title>course__EOS261&#45;&gt;course__EOS460</title>
<path fill="none" stroke="#5d6972" stroke-width="1.2" d="M376.76,-1229.9C388.35,-1233.53 401.1,-1239.61 409,-1249.7 456.5,-1310.32 378.31,-1370.83 437,-1420.7 480.35,-1457.53 520.1,-1455.63 565,-1420.7 606.76,-1388.2 628.47,-1222.82 635.45,-1158.42"/>
<polygon fill="#5d6972" stroke="#5d6972" stroke-width="1.2" points="637.92,-1158.3 636.23,-1151.08 633.05,-1157.78 637.92,-1158.3"/>
</g>
<!-- choice_EOS325_0_2_0 -->
<g id="node61" class="node">
<title>choice_EOS325_0_2_0</title>
<path fill="#fff7ee" stroke="#b7793f" stroke-width="1.1" d="M523,-434.7C523,-434.7 493,-434.7 493,-434.7 487,-434.7 481,-428.7 481,-422.7 481,-422.7 481,-410.7 481,-410.7 481,-404.7 487,-398.7 493,-398.7 493,-398.7 523,-398.7 523,-398.7 529,-398.7 535,-404.7 535,-410.7 535,-410.7 535,-422.7 535,-422.7 535,-428.7 529,-434.7 523,-434.7"/>
<text text-anchor="middle" x="508" y="-414.5" font-family="Avenir Next" font-size="9.00">1 of</text>
</g>
<!-- course__EOS261&#45;&gt;choice_EOS325_0_2_0 -->
<g id="edge66" class="edge">
<title>course__EOS261&#45;&gt;choice_EOS325_0_2_0</title>
<path fill="none" stroke="#7a8389" d="M366,-1206.56C380.13,-1188.8 400.12,-1160.3 409,-1131.7 431.69,-1058.63 392.44,-505.89 437,-443.7 445.53,-431.79 460.06,-425.14 473.68,-421.42"/>
<polygon fill="#7a8389" stroke="#7a8389" points="474.46,-423.75 480.69,-419.73 473.31,-418.99 474.46,-423.75"/>
</g>
<!-- course__MATH204&#45;&gt;choice_EOS325_0_0 -->
<g id="edge63" class="edge">
<title>course__MATH204&#45;&gt;choice_EOS325_0_0</title>
<path fill="none" stroke="#7a8389" d="M476.22,-1251.23C457.1,-1254.62 434.35,-1262.42 423,-1280.2 405.07,-1308.3 405.07,-1552.1 423,-1580.2 434.01,-1597.45 455.27,-1606.33 473.76,-1610.89"/>
<polygon fill="#7a8389" stroke="#7a8389" points="473.59,-1613.36 480.95,-1612.49 474.65,-1608.58 473.59,-1613.36"/>
</g>
<!-- choice_EOS431_0_0 -->
<g id="node64" class="node">
<title>choice_EOS431_0_0</title>
<path fill="#fff7ee" stroke="#b7793f" stroke-width="1.1" d="M231,-697.7C231,-697.7 201,-697.7 201,-697.7 195,-697.7 189,-691.7 189,-685.7 189,-685.7 189,-673.7 189,-673.7 189,-667.7 195,-661.7 201,-661.7 201,-661.7 231,-661.7 231,-661.7 237,-661.7 243,-667.7 243,-673.7 243,-673.7 243,-685.7 243,-685.7 243,-691.7 237,-697.7 231,-697.7"/>
<text text-anchor="middle" x="216" y="-677.5" font-family="Avenir Next" font-size="9.00">1 of</text>
</g>
<!-- course__MATH204&#45;&gt;choice_EOS431_0_0 -->
<g id="edge83" class="edge">
<title>course__MATH204&#45;&gt;choice_EOS431_0_0</title>
<path fill="none" stroke="#7a8389" d="M476.73,-1230.53C462.06,-1219.99 445.75,-1205.31 437,-1187.7 396.46,-1106.11 459.04,-854.82 409,-778.7 372.53,-723.22 294.68,-697.13 250.13,-686.31"/>
<polygon fill="#7a8389" stroke="#7a8389" points="250.65,-683.91 243.27,-684.7 249.53,-688.69 250.65,-683.91"/>
</g>
<!-- course__BIOL355 -->
<g id="node34" class="node">
<title>course__BIOL355</title>
<g id="a_node34"><a xlink:href="../../../courses/BIOL355.html" xlink:title="BIOL355: Evolution" target="_top">
<path fill="#ead9b8" stroke="#8f6a3b" stroke-width="1.3" d="M524.5,-598.7C524.5,-598.7 491.5,-598.7 491.5,-598.7 485.5,-598.7 479.5,-592.7 479.5,-586.7 479.5,-586.7 479.5,-574.7 479.5,-574.7 479.5,-568.7 485.5,-562.7 491.5,-562.7 491.5,-562.7 524.5,-562.7 524.5,-562.7 530.5,-562.7 536.5,-568.7 536.5,-574.7 536.5,-574.7 536.5,-586.7 536.5,-586.7 536.5,-592.7 530.5,-598.7 524.5,-598.7"/>
<text text-anchor="middle" x="508" y="-578.2" font-family="Avenir Next" font-size="10.00" fill="#3f3120">BIOL355</text>
</a>
</g>
</g>
<!-- course__BIOL230&#45;&gt;course__BIOL355 -->
<g id="edge14" class="edge">
<title>course__BIOL230&#45;&gt;course__BIOL355</title>
<path fill="none" stroke="#5d6972" stroke-width="1.2" d="M479.15,-1394.04C459.47,-1391.19 434.89,-1383.83 423,-1365.2 411.75,-1347.57 411.75,-629.83 423,-612.2 433.54,-595.68 453.93,-587.78 472.09,-584.02"/>
<polygon fill="#5d6972" stroke="#5d6972" stroke-width="1.2" points="472.73,-586.39 479.18,-582.73 471.85,-581.57 472.73,-586.39"/>
</g>
<!-- course__BIOL230&#45;&gt;course__BIOL370 -->
<g id="edge16" class="edge">
<title>course__BIOL230&#45;&gt;course__BIOL370</title>
<path fill="none" stroke="#5d6972" stroke-width="1.2" d="M536.76,-1389.84C547.12,-1386.28 558.04,-1380.62 565,-1371.7 637.77,-1278.34 547.65,-1211.11 607,-1108.7 607.17,-1108.4 607.35,-1108.1 607.53,-1107.81"/>
<polygon fill="#5d6972" stroke="#5d6972" stroke-width="1.2" points="609.71,-1109 612,-1101.95 605.81,-1106.03 609.71,-1109"/>
</g>
<!-- course__BIOL230&#45;&gt;choice_BIOL330_0_2 -->
<g id="edge11" class="edge">
<title>course__BIOL230&#45;&gt;choice_BIOL330_0_2</title>
<path fill="none" stroke="#7a8389" d="M497.36,-1413.99C469.55,-1462.94 398.46,-1595.75 423,-1634.2 433.8,-1651.11 455.05,-1658.74 473.6,-1662.13"/>
<polygon fill="#7a8389" stroke="#7a8389" points="473.52,-1664.6 480.82,-1663.28 474.28,-1659.76 473.52,-1664.6"/>
</g>
<!-- course__BIOL460 -->
<g id="node22" class="node">
<title>course__BIOL460</title>
<g id="a_node22"><a xlink:href="../../../courses/BIOL460.html" xlink:title="BIOL460: Honours Seminar" target="_top">
<path fill="#efd8cf" stroke="#8f5945" stroke-width="1.3" d="M524.5,-1150.7C524.5,-1150.7 491.5,-1150.7 491.5,-1150.7 485.5,-1150.7 479.5,-1144.7 479.5,-1138.7 479.5,-1138.7 479.5,-1126.7 479.5,-1126.7 479.5,-1120.7 485.5,-1114.7 491.5,-1114.7 491.5,-1114.7 524.5,-1114.7 524.5,-1114.7 530.5,-1114.7 536.5,-1120.7 536.5,-1126.7 536.5,-1126.7 536.5,-1138.7 536.5,-1138.7 536.5,-1144.7 530.5,-1150.7 524.5,-1150.7"/>
<text text-anchor="middle" x="508" y="-1130.2" font-family="Avenir Next" font-size="10.00" fill="#3f251d">BIOL460</text>
</a>
</g>
</g>
<!-- course__BIOL499A -->
<g id="node23" class="node">
<title>course__BIOL499A</title>
<g id="a_node23"><a xlink:href="../../../courses/BIOL499A.html" xlink:title="BIOL499A: Honours Thesis I" target="_top">
<path fill="#efd8cf" stroke="#8f5945" stroke-width="1.3" d="M528,-745.7C528,-745.7 488,-745.7 488,-745.7 482,-745.7 476,-739.7 476,-733.7 476,-733.7 476,-721.7 476,-721.7 476,-715.7 482,-709.7 488,-709.7 488,-709.7 528,-709.7 528,-709.7 534,-709.7 540,-715.7 540,-721.7 540,-721.7 540,-733.7 540,-733.7 540,-739.7 534,-745.7 528,-745.7"/>
<text text-anchor="middle" x="508" y="-725.2" font-family="Avenir Next" font-size="10.00" fill="#3f251d">BIOL499A</text>
</a>
</g>
</g>
<!-- course__BIOL499B -->
<g id="node25" class="node">
<title>course__BIOL499B</title>
<g id="a_node25"><a xlink:href="../../../courses/BIOL499B.html" xlink:title="BIOL499B: Honours Thesis II" target="_top">
<path fill="#efd8cf" stroke="#8f5945" stroke-width="1.3" d="M659,-745.7C659,-745.7 619,-745.7 619,-745.7 613,-745.7 607,-739.7 607,-733.7 607,-733.7 607,-721.7 607,-721.7 607,-715.7 613,-709.7 619,-709.7 619,-709.7 659,-709.7 659,-709.7 665,-709.7 671,-715.7 671,-721.7 671,-721.7 671,-733.7 671,-733.7 671,-739.7 665,-745.7 659,-745.7"/>
<text text-anchor="middle" x="639" y="-725.2" font-family="Avenir Next" font-size="10.00" fill="#3f251d">BIOL499B</text>
</a>
</g>
</g>
<!-- course__BIOL499A&#45;&gt;course__BIOL499B -->
<g id="edge21" class="edge">
<title>course__BIOL499A&#45;&gt;course__BIOL499B</title>
<path fill="none" stroke="#5d6972" stroke-width="1.2" d="M540.23,-727.7C558.08,-727.7 580.61,-727.7 599.55,-727.7"/>
<polygon fill="#5d6972" stroke="#5d6972" stroke-width="1.2" points="599.61,-730.15 606.61,-727.7 599.61,-725.25 599.61,-730.15"/>
</g>
<!-- course__EOS499A -->
<g id="node24" class="node">
<title>course__EOS499A</title>
<g id="a_node24"><a xlink:href="../../../courses/EOS499A.html" xlink:title="Equivalent or cross&#45;listed: EOS499A: Honours Thesis I | EOS499B: Honours Thesis II" target="_top">
<path fill="#efd8cf" stroke="#8f5945" stroke-width="1.3" d="M553,-1052.7C553,-1052.7 463,-1052.7 463,-1052.7 457,-1052.7 451,-1046.7 451,-1040.7 451,-1040.7 451,-1028.7 451,-1028.7 451,-1022.7 457,-1016.7 463,-1016.7 463,-1016.7 553,-1016.7 553,-1016.7 559,-1016.7 565,-1022.7 565,-1028.7 565,-1028.7 565,-1040.7 565,-1040.7 565,-1046.7 559,-1052.7 553,-1052.7"/>
<text text-anchor="middle" x="508" y="-1032.2" font-family="Avenir Next" font-size="10.00" fill="#3f251d">EOS499A / EOS499B</text>
</a>
</g>
</g>
<!-- course__EOS330&#45;&gt;choice_BIOL457_0_0 -->
<g id="edge19" class="edge">
<title>course__EOS330&#45;&gt;choice_BIOL457_0_0</title>
<path fill="none" stroke="#7a8389" d="M480.82,-974.12C460.88,-976.79 435.23,-984.03 423,-1003.2 412.84,-1019.12 412.84,-1667.27 423,-1683.2 433.8,-1700.11 455.05,-1707.74 473.6,-1711.13"/>
<polygon fill="#7a8389" stroke="#7a8389" points="473.52,-1713.6 480.82,-1712.28 474.28,-1708.76 473.52,-1713.6"/>
</g>
<!-- course__BIOL330 -->
<g id="node33" class="node">
<title>course__BIOL330</title>
<g id="a_node33"><a xlink:href="../../../courses/BIOL330.html" xlink:title="BIOL330: Study Design and Data Analysis" target="_top">
<path fill="#d7e9ef" stroke="#1f4f66" stroke-width="1.6" d="M655.5,-997.7C655.5,-997.7 622.5,-997.7 622.5,-997.7 616.5,-997.7 610.5,-991.7 610.5,-985.7 610.5,-985.7 610.5,-973.7 610.5,-973.7 610.5,-967.7 616.5,-961.7 622.5,-961.7 622.5,-961.7 655.5,-961.7 655.5,-961.7 661.5,-961.7 667.5,-967.7 667.5,-973.7 667.5,-973.7 667.5,-985.7 667.5,-985.7 667.5,-991.7 661.5,-997.7 655.5,-997.7"/>
<text text-anchor="middle" x="639" y="-977.2" font-family="Avenir Next" font-size="10.00" fill="#17232b">BIOL330</text>
</a>
</g>
</g>
<!-- course__STAT254&#45;&gt;course__BIOL330 -->
<g id="edge12" class="edge">
<title>course__STAT254&#45;&gt;course__BIOL330</title>
<path fill="none" stroke="#5d6972" stroke-width="1.2" d="M550.53,-941.72C567.67,-949.17 587.3,-957.69 603.62,-964.77"/>
<polygon fill="#5d6972" stroke="#5d6972" stroke-width="1.2" points="603,-967.17 610.39,-967.71 604.95,-962.68 603,-967.17"/>
</g>
<!-- course__STAT254&#45;&gt;course__BIOL370 -->
<g id="edge17" class="edge">
<title>course__STAT254&#45;&gt;course__BIOL370</title>
<path fill="none" stroke="#5d6972" stroke-width="1.2" d="M551.27,-938.85C556.22,-941.67 560.94,-944.93 565,-948.7 598.29,-979.55 619.6,-1029.12 630.13,-1058.83"/>
<polygon fill="#5d6972" stroke="#5d6972" stroke-width="1.2" points="627.86,-1059.76 632.46,-1065.58 632.49,-1058.16 627.86,-1059.76"/>
</g>
<!-- choice_EOS401_0 -->
<g id="node63" class="node">
<title>choice_EOS401_0</title>
<path fill="#fff7ee" stroke="#b7793f" stroke-width="1.1" d="M654,-354.7C654,-354.7 624,-354.7 624,-354.7 618,-354.7 612,-348.7 612,-342.7 612,-342.7 612,-330.7 612,-330.7 612,-324.7 618,-318.7 624,-318.7 624,-318.7 654,-318.7 654,-318.7 660,-318.7 666,-324.7 666,-330.7 666,-330.7 666,-342.7 666,-342.7 666,-348.7 660,-354.7 654,-354.7"/>
<text text-anchor="middle" x="639" y="-334.5" font-family="Avenir Next" font-size="9.00">3 of</text>
</g>
<!-- course__EOS311&#45;&gt;choice_EOS401_0 -->
<g id="edge77" class="edge">
<title>course__EOS311&#45;&gt;choice_EOS401_0</title>
<path fill="none" stroke="#7a8389" d="M559.3,-807.65C561.39,-805.85 563.31,-803.87 565,-801.7 568.44,-797.27 619.78,-457.73 634.24,-361.73"/>
<polygon fill="#7a8389" stroke="#7a8389" points="636.67,-362.02 635.29,-354.73 631.82,-361.29 636.67,-362.02"/>
</g>
<!-- course__BIOL457 -->
<g id="node29" class="node">
<title>course__BIOL457</title>
<g id="a_node29"><a xlink:href="../../../courses/BIOL457.html" xlink:title="BIOL457: Paleoecology and Environmental Change" target="_top">
<path fill="#ead9b8" stroke="#8f6a3b" stroke-width="1.3" d="M524.5,-892.7C524.5,-892.7 491.5,-892.7 491.5,-892.7 485.5,-892.7 479.5,-886.7 479.5,-880.7 479.5,-880.7 479.5,-868.7 479.5,-868.7 479.5,-862.7 485.5,-856.7 491.5,-856.7 491.5,-856.7 524.5,-856.7 524.5,-856.7 530.5,-856.7 536.5,-862.7 536.5,-868.7 536.5,-868.7 536.5,-880.7 536.5,-880.7 536.5,-886.7 530.5,-892.7 524.5,-892.7"/>
<text text-anchor="middle" x="508" y="-872.2" font-family="Avenir Next" font-size="10.00" fill="#3f3120">BIOL457</text>
</a>
</g>
</g>
<!-- course__EOS325&#45;&gt;choice_EOS431_0_0 -->
<g id="edge82" class="edge">
<title>course__EOS325&#45;&gt;choice_EOS431_0_0</title>
<path fill="none" stroke="#7a8389" d="M480.94,-772.74C466.6,-769.43 449.28,-763.44 437,-752.7 416.06,-734.38 432,-712.36 409,-696.7 361.51,-664.36 291.36,-667.75 250.3,-673.49"/>
<polygon fill="#7a8389" stroke="#7a8389" points="249.8,-671.09 243.23,-674.55 250.52,-675.94 249.8,-671.09"/>
</g>
<!-- choice_EOS460_0_0 -->
<g id="node65" class="node">
<title>choice_EOS460_0_0</title>
<path fill="#fff7ee" stroke="#b7793f" stroke-width="1.1" d="M523,-1807.7C523,-1807.7 493,-1807.7 493,-1807.7 487,-1807.7 481,-1801.7 481,-1795.7 481,-1795.7 481,-1783.7 481,-1783.7 481,-1777.7 487,-1771.7 493,-1771.7 493,-1771.7 523,-1771.7 523,-1771.7 529,-1771.7 535,-1777.7 535,-1783.7 535,-1783.7 535,-1795.7 535,-1795.7 535,-1801.7 529,-1807.7 523,-1807.7"/>
<text text-anchor="middle" x="508" y="-1787.5" font-family="Avenir Next" font-size="9.00">1 of</text>
</g>
<!-- course__EOS325&#45;&gt;choice_EOS460_0_0 -->
<g id="edge86" class="edge">
<title>course__EOS325&#45;&gt;choice_EOS460_0_0</title>
<path fill="none" stroke="#7a8389" d="M480.84,-778.48C460.92,-781.41 435.28,-788.96 423,-808.2 408.85,-830.37 408.85,-1733.02 423,-1755.2 433.97,-1772.38 455.22,-1781.01 473.73,-1785.34"/>
<polygon fill="#7a8389" stroke="#7a8389" points="473.57,-1787.81 480.92,-1786.84 474.58,-1783.01 473.57,-1787.81"/>
</g>
<!-- course__EOS335&#45;&gt;course__EOS460 -->
<g id="edge90" class="edge">
<title>course__EOS335&#45;&gt;course__EOS460</title>
<path fill="none" stroke="#5d6972" stroke-width="1.2" d="M535.11,-1093.61C555.3,-1101.28 583.39,-1111.95 605.12,-1120.21"/>
<polygon fill="#5d6972" stroke="#5d6972" stroke-width="1.2" points="604.52,-1122.6 611.93,-1122.8 606.26,-1118.02 604.52,-1122.6"/>
</g>
<!-- course__EOS401 -->
<g id="node37" class="node">
<title>course__EOS401</title>
<g id="a_node37"><a xlink:href="../../../courses/EOS401.html" xlink:title="EOS401: Oceanographic Field School" target="_top">
<path fill="#dbe8d2" stroke="#567447" stroke-width="1.3" d="M523,-647.7C523,-647.7 493,-647.7 493,-647.7 487,-647.7 481,-641.7 481,-635.7 481,-635.7 481,-623.7 481,-623.7 481,-617.7 487,-611.7 493,-611.7 493,-611.7 523,-611.7 523,-611.7 529,-611.7 535,-617.7 535,-623.7 535,-623.7 535,-635.7 535,-635.7 535,-641.7 529,-647.7 523,-647.7"/>
<text text-anchor="middle" x="508" y="-627.2" font-family="Avenir Next" font-size="10.00" fill="#24311e">EOS401</text>
</a>
</g>
</g>
<!-- course__CHEM091 -->
<g id="node38" class="node">
<title>course__CHEM091</title>
<g id="a_node38"><a xlink:href="../../../courses/CHEM091.html" xlink:title="CHEM091: Introduction to Chemistry" target="_top">
<path fill="#f9f9f9" stroke="#363636" d="M368,-1124.7C368,-1124.7 331,-1124.7 331,-1124.7 325,-1124.7 319,-1118.7 319,-1112.7 319,-1112.7 319,-1100.7 319,-1100.7 319,-1094.7 325,-1088.7 331,-1088.7 331,-1088.7 368,-1088.7 368,-1088.7 374,-1088.7 380,-1094.7 380,-1100.7 380,-1100.7 380,-1112.7 380,-1112.7 380,-1118.7 374,-1124.7 368,-1124.7"/>
<text text-anchor="middle" x="349.5" y="-1104.5" font-family="Avenir Next" font-size="9.00" fill="#363636">CHEM091</text>
</a>
</g>
</g>
<!-- course__CHEM091&#45;&gt;course__CHEM102 -->
<g id="edge22" class="edge">
<title>course__CHEM091&#45;&gt;course__CHEM102</title>
<path fill="none" stroke="#5d6972" stroke-width="1.2" d="M318.9,-1101.19C304.18,-1097.04 287.19,-1089.88 276,-1077.7 247.09,-1046.22 271.91,-1021.12 248,-985.7 247.7,-985.25 247.38,-984.8 247.06,-984.36"/>
<polygon fill="#5d6972" stroke="#5d6972" stroke-width="1.2" points="248.77,-982.59 242.36,-978.85 245.04,-985.77 248.77,-982.59"/>
</g>
<!-- course__EOS130 -->
<g id="node39" class="node">
<title>course__EOS130</title>
<g id="a_node39"><a xlink:href="../../../courses/EOS130.html" xlink:title="Equivalent or cross&#45;listed: EOS130: Climate Change | GEOG130: Climate Change" target="_top">
<path fill="#f9f9f9" stroke="#363636" d="M391,-61.7C391,-61.7 308,-61.7 308,-61.7 302,-61.7 296,-55.7 296,-49.7 296,-49.7 296,-37.7 296,-37.7 296,-31.7 302,-25.7 308,-25.7 308,-25.7 391,-25.7 391,-25.7 397,-25.7 403,-31.7 403,-37.7 403,-37.7 403,-49.7 403,-49.7 403,-55.7 397,-61.7 391,-61.7"/>
<text text-anchor="middle" x="349.5" y="-41.5" font-family="Avenir Next" font-size="9.00" fill="#363636">EOS130 / GEOG130</text>
</a>
</g>
</g>
<!-- course__EOS130&#45;&gt;choice_EOS230_0_1 -->
<g id="edge35" class="edge">
<title>course__EOS130&#45;&gt;choice_EOS230_0_1</title>
<path fill="none" stroke="#7a8389" d="M403.05,-60.15C426.5,-67.49 453.42,-75.92 473.99,-82.36"/>
<polygon fill="#7a8389" stroke="#7a8389" points="473.3,-84.71 480.71,-84.47 474.76,-80.04 473.3,-84.71"/>
</g>
<!-- course__GEOG103 -->
<g id="node40" class="node">
<title>course__GEOG103</title>
<g id="a_node40"><a xlink:href="../../../courses/GEOG103.html" xlink:title="GEOG103: Our Natural Earth" target="_top">
<path fill="#f9f9f9" stroke="#363636" d="M368,-110.7C368,-110.7 331,-110.7 331,-110.7 325,-110.7 319,-104.7 319,-98.7 319,-98.7 319,-86.7 319,-86.7 319,-80.7 325,-74.7 331,-74.7 331,-74.7 368,-74.7 368,-74.7 374,-74.7 380,-80.7 380,-86.7 380,-86.7 380,-98.7 380,-98.7 380,-104.7 374,-110.7 368,-110.7"/>
<text text-anchor="middle" x="349.5" y="-90.5" font-family="Avenir Next" font-size="9.00" fill="#363636">GEOG103</text>
</a>
</g>
</g>
<!-- course__GEOG103&#45;&gt;choice_EOS230_0_1 -->
<g id="edge36" class="edge">
<title>course__GEOG103&#45;&gt;choice_EOS230_0_1</title>
<path fill="none" stroke="#7a8389" d="M380.3,-92.7C407.01,-92.7 446.12,-92.7 473.81,-92.7"/>
<polygon fill="#7a8389" stroke="#7a8389" points="473.94,-95.15 480.94,-92.7 473.94,-90.25 473.94,-95.15"/>
</g>
<!-- course__MATH151 -->
<g id="node41" class="node">
<title>course__MATH151</title>
<g id="a_node41"><a xlink:href="../../../courses/MATH151.html" xlink:title="MATH151: Finite Mathematics" target="_top">
<path fill="#f9f9f9" stroke="#363636" d="M367,-583.7C367,-583.7 332,-583.7 332,-583.7 326,-583.7 320,-577.7 320,-571.7 320,-571.7 320,-559.7 320,-559.7 320,-553.7 326,-547.7 332,-547.7 332,-547.7 367,-547.7 367,-547.7 373,-547.7 379,-553.7 379,-559.7 379,-559.7 379,-571.7 379,-571.7 379,-577.7 373,-583.7 367,-583.7"/>
<text text-anchor="middle" x="349.5" y="-563.5" font-family="Avenir Next" font-size="9.00" fill="#363636">MATH151</text>
</a>
</g>
</g>
<!-- course__MATH151&#45;&gt;choice_EOS261_0_4 -->
<g id="edge40" class="edge">
<title>course__MATH151&#45;&gt;choice_EOS261_0_4</title>
<path fill="none" stroke="#7a8389" d="M379.2,-556.71C405.97,-548.33 445.87,-535.84 473.95,-527.04"/>
<polygon fill="#7a8389" stroke="#7a8389" points="474.87,-529.32 480.82,-524.89 473.41,-524.65 474.87,-529.32"/>
</g>
<!-- course__MATH151&#45;&gt;choice_EOS311_0_2 -->
<g id="edge49" class="edge">
<title>course__MATH151&#45;&gt;choice_EOS311_0_2</title>
<path fill="none" stroke="#7a8389" d="M379.25,-555.81C389.42,-551.36 400.44,-545.36 409,-537.7 426.55,-521.98 418.66,-507.48 437,-492.7 447.68,-484.09 461.56,-478.31 474.14,-474.51"/>
<polygon fill="#7a8389" stroke="#7a8389" points="474.89,-476.84 480.97,-472.59 473.57,-472.13 474.89,-476.84"/>
</g>
<!-- course__CSC110&#45;&gt;course__MATH248 -->
<g id="edge95" class="edge">
<title>course__CSC110&#45;&gt;course__MATH248</title>
<path fill="none" stroke="#5d6972" stroke-width="1.2" d="M307.2,-431.02C289.92,-440.45 271.73,-453.98 262,-472.2 247.5,-499.34 245.44,-1554.25 262,-1580.2 268.14,-1589.81 277.4,-1596.82 287.63,-1601.93"/>
<polygon fill="#5d6972" stroke="#5d6972" stroke-width="1.2" points="286.73,-1604.21 294.11,-1604.87 288.75,-1599.75 286.73,-1604.21"/>
</g>
<!-- course__CSC110&#45;&gt;choice_EOS325_0_2_0 -->
<g id="edge68" class="edge">
<title>course__CSC110&#45;&gt;choice_EOS325_0_2_0</title>
<path fill="none" stroke="#7a8389" d="M391.62,-414.49C417.23,-414.98 449.74,-415.6 473.72,-416.06"/>
<polygon fill="#7a8389" stroke="#7a8389" points="473.83,-418.51 480.87,-416.2 473.92,-413.61 473.83,-418.51"/>
</g>
<!-- course__EOS202&#45;&gt;course__EOS300 -->
<g id="edge46" class="edge">
<title>course__EOS202&#45;&gt;course__EOS300</title>
<path fill="none" stroke="#5d6972" stroke-width="1.2" d="M376.69,-647.89C403.41,-654.21 444.93,-664.02 473.9,-670.87"/>
<polygon fill="#5d6972" stroke="#5d6972" stroke-width="1.2" points="473.6,-673.32 480.98,-672.55 474.73,-668.55 473.6,-673.32"/>
</g>
<!-- course__EOS230 -->
<g id="node44" class="node">
<title>course__EOS230</title>
<g id="a_node44"><a xlink:href="../../../courses/EOS230.html" xlink:title="Equivalent or cross&#45;listed: EOS230: Introduction to Environmental Data Analysis | GEOG230: Introduction to Environmental Data Analysis" target="_top">
<path fill="#f9f9f9" stroke="#363636" d="M391,-333.7C391,-333.7 308,-333.7 308,-333.7 302,-333.7 296,-327.7 296,-321.7 296,-321.7 296,-309.7 296,-309.7 296,-303.7 302,-297.7 308,-297.7 308,-297.7 391,-297.7 391,-297.7 397,-297.7 403,-303.7 403,-309.7 403,-309.7 403,-321.7 403,-321.7 403,-327.7 397,-333.7 391,-333.7"/>
<text text-anchor="middle" x="349.5" y="-313.5" font-family="Avenir Next" font-size="9.00" fill="#363636">EOS230 / GEOG230</text>
</a>
</g>
</g>
<!-- course__EOS230&#45;&gt;choice_EOS325_0_2_0 -->
<g id="edge65" class="edge">
<title>course__EOS230&#45;&gt;choice_EOS325_0_2_0</title>
<path fill="none" stroke="#7a8389" d="M396.1,-333.82C400.54,-335.98 404.91,-338.29 409,-340.7 412.75,-342.9 450.77,-372.57 478.33,-394.18"/>
<polygon fill="#7a8389" stroke="#7a8389" points="477.02,-396.26 484.04,-398.65 480.04,-392.41 477.02,-396.26"/>
</g>
<!-- course__EOS313&#45;&gt;choice_EOS401_0 -->
<g id="edge79" class="edge">
<title>course__EOS313&#45;&gt;choice_EOS401_0</title>
<path fill="none" stroke="#7a8389" d="M376.62,-166.72C419.91,-164.8 507.46,-166.81 565,-207.7 600.73,-233.09 621.23,-281.81 630.95,-311.56"/>
<polygon fill="#7a8389" stroke="#7a8389" points="628.64,-312.39 633.08,-318.33 633.32,-310.92 628.64,-312.39"/>
</g>
<!-- course__EOS210&#45;&gt;choice_EOS325_0_2_0 -->
<g id="edge64" class="edge">
<title>course__EOS210&#45;&gt;choice_EOS325_0_2_0</title>
<path fill="none" stroke="#7a8389" d="M382.49,-471.5C398.6,-462.64 418.59,-452.11 437,-443.7 448.89,-438.27 462.2,-432.95 474.01,-428.49"/>
<polygon fill="#7a8389" stroke="#7a8389" points="475.06,-430.71 480.76,-425.96 473.35,-426.12 475.06,-430.71"/>
</g>
<!-- course__EOS314&#45;&gt;choice_EOS312_0_0 -->
<g id="edge54" class="edge">
<title>course__EOS314&#45;&gt;choice_EOS312_0_0</title>
<path fill="none" stroke="#7a8389" d="M376.71,-356.58C387.24,-352.66 399.19,-347.35 409,-340.7 423.83,-330.64 423.32,-323.27 437,-311.7 448.8,-301.72 462.67,-291.86 474.94,-283.7"/>
<polygon fill="#7a8389" stroke="#7a8389" points="476.32,-285.73 480.82,-279.84 473.63,-281.64 476.32,-285.73"/>
</g>
<!-- course__EOS314&#45;&gt;choice_EOS325_0_2_0 -->
<g id="edge67" class="edge">
<title>course__EOS314&#45;&gt;choice_EOS325_0_2_0</title>
<path fill="none" stroke="#7a8389" d="M376.69,-373.4C403.52,-382.31 445.28,-396.19 474.27,-405.82"/>
<polygon fill="#7a8389" stroke="#7a8389" points="473.57,-408.17 480.98,-408.05 475.11,-403.52 473.57,-408.17"/>
</g>
<!-- choice_EOS401_0_3 -->
<g id="node62" class="node">
<title>choice_EOS401_0_3</title>
<path fill="#fff7ee" stroke="#b7793f" stroke-width="1.1" d="M523,-354.7C523,-354.7 493,-354.7 493,-354.7 487,-354.7 481,-348.7 481,-342.7 481,-342.7 481,-330.7 481,-330.7 481,-324.7 487,-318.7 493,-318.7 493,-318.7 523,-318.7 523,-318.7 529,-318.7 535,-324.7 535,-330.7 535,-330.7 535,-342.7 535,-342.7 535,-348.7 529,-354.7 523,-354.7"/>
<text text-anchor="middle" x="508" y="-334.5" font-family="Avenir Next" font-size="9.00">1 of</text>
</g>
<!-- course__EOS314&#45;&gt;choice_EOS401_0_3 -->
<g id="edge75" class="edge">
<title>course__EOS314&#45;&gt;choice_EOS401_0_3</title>
<path fill="none" stroke="#7a8389" d="M376.69,-360.01C403.41,-355.23 444.93,-347.8 473.9,-342.62"/>
<polygon fill="#7a8389" stroke="#7a8389" points="474.52,-345 480.98,-341.35 473.66,-340.17 474.52,-345"/>
</g>
<!-- course__MATH248&#45;&gt;choice_EOS460_0_0 -->
<g id="edge87" class="edge">
<title>course__MATH248&#45;&gt;choice_EOS460_0_0</title>
<path fill="none" stroke="#7a8389" d="M356.84,-1633.99C368.29,-1664.47 395.16,-1725.86 437,-1761.7 447.57,-1770.75 461.43,-1777.11 474.03,-1781.46"/>
<polygon fill="#7a8389" stroke="#7a8389" points="473.46,-1783.85 480.87,-1783.67 474.96,-1779.18 473.46,-1783.85"/>
</g>
<!-- course__EOS431&#45;&gt;choice_EOS312_0_0 -->
<g id="edge55" class="edge">
<title>course__EOS431&#45;&gt;choice_EOS312_0_0</title>
<path fill="none" stroke="#7a8389" d="M401.74,-265.71C425.35,-265.26 452.69,-264.74 473.59,-264.34"/>
<polygon fill="#7a8389" stroke="#7a8389" points="473.74,-266.78 480.7,-264.2 473.65,-261.89 473.74,-266.78"/>
</g>
<!-- course__EOS431&#45;&gt;choice_EOS401_0_3 -->
<g id="edge76" class="edge">
<title>course__EOS431&#45;&gt;choice_EOS401_0_3</title>
<path fill="none" stroke="#7a8389" d="M395.31,-284.82C399.95,-286.77 404.58,-288.75 409,-290.7 430.91,-300.33 455.28,-311.76 474.23,-320.82"/>
<polygon fill="#7a8389" stroke="#7a8389" points="473.58,-323.23 480.96,-324.04 475.7,-318.81 473.58,-323.23"/>
</g>
<!-- course__EOS312&#45;&gt;choice_EOS401_0 -->
<g id="edge78" class="edge">
<title>course__EOS312&#45;&gt;choice_EOS401_0</title>
<path fill="none" stroke="#7a8389" d="M376.59,-213.83C419.09,-208.87 504.56,-204.57 565,-238.7 594.26,-255.22 615.25,-288.8 627.01,-312.02"/>
<polygon fill="#7a8389" stroke="#7a8389" points="624.94,-313.36 630.22,-318.56 629.34,-311.2 624.94,-313.36"/>
</g>
<!-- year_band__year&#45;1 -->
<!-- year_band__year&#45;2 -->
<!-- year_band__year&#45;1&#45;&gt;year_band__year&#45;2 -->
<!-- year_band__years&#45;3&#45;4 -->
<!-- year_band__year&#45;2&#45;&gt;year_band__years&#45;3&#45;4 -->
<!-- choice_BIOL330_0_2&#45;&gt;course__BIOL330 -->
<g id="edge13" class="edge">
<title>choice_BIOL330_0_2&#45;&gt;course__BIOL330</title>
<path fill="none" stroke="#5d6972" stroke-width="1.2" d="M535.12,-1659.8C546.13,-1656.35 558,-1650.52 565,-1640.7 640.11,-1535.27 578.63,-1186 607,-1059.7 611.27,-1040.67 619.29,-1020.17 626.09,-1004.69"/>
<polygon fill="#5d6972" stroke="#5d6972" stroke-width="1.2" points="628.49,-1005.35 629.12,-997.96 624.02,-1003.34 628.49,-1005.35"/>
</g>
<!-- choice_BIOL457_0_0&#45;&gt;course__BIOL457 -->
<g id="edge20" class="edge">
<title>choice_BIOL457_0_0&#45;&gt;course__BIOL457</title>
<path fill="none" stroke="#5d6972" stroke-width="1.2" d="M480.82,-1712.28C460.88,-1709.6 435.23,-1702.36 423,-1683.2 411.39,-1665 411.39,-924.39 423,-906.2 433.54,-889.68 453.93,-881.78 472.09,-878.02"/>
<polygon fill="#5d6972" stroke="#5d6972" stroke-width="1.2" points="472.73,-880.39 479.18,-876.73 471.85,-875.57 472.73,-880.39"/>
</g>
<!-- choice_EOS230_0_1&#45;&gt;course__EOS261 -->
<g id="edge41" class="edge">
<title>choice_EOS230_0_1&#45;&gt;course__EOS261</title>
<path fill="none" stroke="#5d6972" stroke-width="1.2" d="M495.05,-111.11C478.4,-137.91 448.92,-189.81 437,-238.7 389.96,-431.59 466.99,-941.81 409,-1131.7 401.14,-1157.43 384.18,-1183.04 370.54,-1200.85"/>
<polygon fill="#5d6972" stroke="#5d6972" stroke-width="1.2" points="368.44,-1199.56 366.06,-1206.58 372.3,-1202.58 368.44,-1199.56"/>
</g>
<!-- choice_EOS230_0_1&#45;&gt;course__EOS230 -->
<g id="edge37" class="edge">
<title>choice_EOS230_0_1&#45;&gt;course__EOS230</title>
<path fill="none" stroke="#5d6972" stroke-width="1.2" d="M498.4,-110.93C475.83,-158.63 416.21,-283.88 409,-290.7 408.09,-291.56 407.15,-292.39 406.17,-293.2"/>
<polygon fill="#5d6972" stroke="#5d6972" stroke-width="1.2" points="404.48,-291.4 400.31,-297.54 407.39,-295.34 404.48,-291.4"/>
</g>
<!-- choice_EOS261_0_4&#45;&gt;course__EOS261 -->
<g id="edge44" class="edge">
<title>choice_EOS261_0_4&#45;&gt;course__EOS261</title>
<path fill="none" stroke="#5d6972" stroke-width="1.2" d="M480.67,-520.52C465.29,-524.23 446.99,-531.49 437,-545.7 399.5,-599.02 428.55,-1069.51 409,-1131.7 400.93,-1157.36 383.99,-1182.98 370.41,-1200.81"/>
<polygon fill="#5d6972" stroke="#5d6972" stroke-width="1.2" points="368.31,-1199.52 365.95,-1206.55 372.18,-1202.52 368.31,-1199.52"/>
</g>
<!-- choice_EOS311_0_2&#45;&gt;course__EOS311 -->
<g id="edge51" class="edge">
<title>choice_EOS311_0_2&#45;&gt;course__EOS311</title>
<path fill="none" stroke="#5d6972" stroke-width="1.2" d="M480.84,-469.48C460.92,-472.41 435.28,-479.96 423,-499.2 405.31,-526.92 405.31,-767.47 423,-795.2 429.15,-804.83 438.68,-811.45 449.18,-815.99"/>
<polygon fill="#5d6972" stroke="#5d6972" stroke-width="1.2" points="448.4,-818.32 455.82,-818.56 450.17,-813.75 448.4,-818.32"/>
</g>
<!-- choice_EOS311_0_2&#45;&gt;course__EOS314 -->
<g id="edge60" class="edge">
<title>choice_EOS311_0_2&#45;&gt;course__EOS314</title>
<path fill="none" stroke="#5d6972" stroke-width="1.2" d="M480.71,-462.69C466.47,-458.89 449.32,-452.42 437,-441.7 417.2,-424.46 428.38,-407.4 409,-389.7 401.65,-382.98 392.23,-377.9 383.1,-374.13"/>
<polygon fill="#5d6972" stroke="#5d6972" stroke-width="1.2" points="383.95,-371.83 376.54,-371.61 382.19,-376.4 383.95,-371.83"/>
</g>
<!-- choice_EOS312_0_0&#45;&gt;course__EOS312 -->
<g id="edge56" class="edge">
<title>choice_EOS312_0_0&#45;&gt;course__EOS312</title>
<path fill="none" stroke="#5d6972" stroke-width="1.2" d="M480.98,-256.05C454.22,-248.18 412.46,-235.91 383.42,-227.37"/>
<polygon fill="#5d6972" stroke="#5d6972" stroke-width="1.2" points="384.1,-225.02 376.69,-225.4 382.72,-229.72 384.1,-225.02"/>
</g>
<!-- choice_EOS325_0_0&#45;&gt;course__EOS325 -->
<g id="edge69" class="edge">
<title>choice_EOS325_0_0&#45;&gt;course__EOS325</title>
<path fill="none" stroke="#5d6972" stroke-width="1.2" d="M480.95,-1612.49C461.09,-1608.54 435.48,-1599.74 423,-1580.2 411.46,-1562.12 411.46,-826.27 423,-808.2 433.84,-791.22 455.09,-783.34 473.63,-779.71"/>
<polygon fill="#5d6972" stroke="#5d6972" stroke-width="1.2" points="474.35,-782.07 480.84,-778.48 473.53,-777.24 474.35,-782.07"/>
</g>
<!-- choice_EOS325_0_2_0&#45;&gt;course__EOS325 -->
<g id="edge71" class="edge">
<title>choice_EOS325_0_2_0&#45;&gt;course__EOS325</title>
<path fill="none" stroke="#5d6972" stroke-width="1.2" d="M480.9,-419.19C461,-422.64 435.37,-430.81 423,-450.2 405.31,-477.92 405.31,-718.47 423,-746.2 433.8,-763.11 455.05,-770.74 473.6,-774.13"/>
<polygon fill="#5d6972" stroke="#5d6972" stroke-width="1.2" points="473.52,-776.6 480.82,-775.28 474.28,-771.76 473.52,-776.6"/>
</g>
<!-- choice_EOS401_0_3&#45;&gt;choice_EOS401_0 -->
<g id="edge80" class="edge">
<title>choice_EOS401_0_3&#45;&gt;choice_EOS401_0</title>
<path fill="none" stroke="#7a8389" d="M535.11,-336.7C555.21,-336.7 583.15,-336.7 604.84,-336.7"/>
<polygon fill="#7a8389" stroke="#7a8389" points="604.93,-339.15 611.93,-336.7 604.93,-334.25 604.93,-339.15"/>
</g>
<!-- choice_EOS401_0&#45;&gt;course__EOS401 -->
<g id="edge81" class="edge">
<title>choice_EOS401_0&#45;&gt;course__EOS401</title>
<path fill="none" stroke="#5d6972" stroke-width="1.2" d="M638.22,-354.86C637.81,-402.12 630.39,-530.46 565,-605.7 558.92,-612.69 550.45,-617.71 541.93,-621.28"/>
<polygon fill="#5d6972" stroke="#5d6972" stroke-width="1.2" points="540.82,-619.08 535.13,-623.85 542.55,-623.67 540.82,-619.08"/>
</g>
<!-- choice_EOS431_0_0&#45;&gt;course__EOS431 -->
<g id="edge84" class="edge">
<title>choice_EOS431_0_0&#45;&gt;course__EOS431</title>
<path fill="none" stroke="#5d6972" stroke-width="1.2" d="M222.44,-661.53C229.38,-637.69 241.3,-594.42 248,-556.7 258.4,-498.18 238.72,-336.99 276,-290.7 280.09,-285.62 285.29,-281.6 291.02,-278.43"/>
<polygon fill="#5d6972" stroke="#5d6972" stroke-width="1.2" points="292.19,-280.58 297.41,-275.31 290.04,-276.18 292.19,-280.58"/>
</g>
<!-- choice_EOS460_0_0&#45;&gt;course__EOS460 -->
<g id="edge88" class="edge">
<title>choice_EOS460_0_0&#45;&gt;course__EOS460</title>
<path fill="none" stroke="#5d6972" stroke-width="1.2" d="M535.01,-1782.78C546,-1778.51 557.89,-1771.84 565,-1761.7 635.02,-1661.81 638.5,-1262.41 638.19,-1157.85"/>
<polygon fill="#5d6972" stroke="#5d6972" stroke-width="1.2" points="640.64,-1157.83 638.16,-1150.84 635.74,-1157.85 640.64,-1157.83"/>
</g>
</g>
</svg>
