<?xml version="1.0" encoding="UTF-8" standalone="no"?>
<!DOCTYPE svg PUBLIC "-//W3C//DTD SVG 1.1//EN"
 "http://www.w3.org/Graphics/SVG/1.1/DTD/svg11.dtd">
<!-- Generated by graphviz version 2.43.0 (0)
 -->
<!-- Title: BSC&#45;PESC Pages: 1 -->
<svg width="822pt" height="1354pt"
 viewBox="0.00 0.00 822.04 1353.75" xmlns="http://www.w3.org/2000/svg" xmlns:xlink="http://www.w3.org/1999/xlink">
<g id="graph0" class="graph" transform="scale(1 1) rotate(0) translate(11.52 1342.23)">
<title>BSC&#45;PESC</title>
<g id="clust1" class="cluster">
<title>cluster_year&#45;1</title>
<path fill="transparent" stroke="#c8d0d5" stroke-dasharray="5,2" d="M20,-872.71C20,-872.71 436,-872.71 436,-872.71 442,-872.71 448,-878.71 448,-884.71 448,-884.71 448,-1106.71 448,-1106.71 448,-1112.71 442,-1118.71 436,-1118.71 436,-1118.71 20,-1118.71 20,-1118.71 14,-1118.71 8,-1112.71 8,-1106.71 8,-1106.71 8,-884.71 8,-884.71 8,-878.71 14,-872.71 20,-872.71"/>
<text text-anchor="middle" x="228" y="-1105.91" font-family="Avenir Next" font-size="11.00">Year 1</text>
</g>
<g id="clust2" class="cluster">
<title>cluster_year&#45;2</title>
<path fill="transparent" stroke="#c8d0d5" stroke-dasharray="5,2" d="M182,-522.71C182,-522.71 463,-522.71 463,-522.71 469,-522.71 475,-528.71 475,-534.71 475,-534.71 475,-852.71 475,-852.71 475,-858.71 469,-864.71 463,-864.71 463,-864.71 182,-864.71 182,-864.71 176,-864.71 170,-858.71 170,-852.71 170,-852.71 170,-534.71 170,-534.71 170,-528.71 176,-522.71 182,-522.71"/>
<text text-anchor="middle" x="322.5" y="-851.91" font-family="Avenir Next" font-size="11.00">Year 2</text>
</g>
<g id="clust3" class="cluster">
<title>cluster_years&#45;3&#45;4</title>
<path fill="transparent" stroke="#c8d0d5" stroke-dasharray="5,2" d="M501,-157.71C501,-157.71 779,-157.71 779,-157.71 785,-157.71 791,-163.71 791,-169.71 791,-169.71 791,-1075.71 791,-1075.71 791,-1081.71 785,-1087.71 779,-1087.71 779,-1087.71 501,-1087.71 501,-1087.71 495,-1087.71 489,-1081.71 489,-1075.71 489,-1075.71 489,-169.71 489,-169.71 489,-163.71 495,-157.71 501,-157.71"/>
<text text-anchor="middle" x="640" y="-1074.91" font-family="Avenir Next" font-size="11.00">Years 3 + 4</text>
</g>
<!-- course__CHEM101 -->
<g id="node1" class="node">
<title>course__CHEM101</title>
<g id="a_node1"><a xlink:href="../../../courses/CHEM101.html" xlink:title="Equivalent or cross&#45;listed: CHEM101: Fundamentals of Chemistry from Atoms to Materials | CHEM150: Engineering Chemistry" target="_top">
<path fill="#d7e9ef" stroke="#1f4f66" stroke-width="1.6" d="M130,-1084.71C130,-1084.71 34,-1084.71 34,-1084.71 28,-1084.71 22,-1078.71 22,-1072.71 22,-1072.71 22,-1060.71 22,-1060.71 22,-1054.71 28,-1048.71 34,-1048.71 34,-1048.71 130,-1048.71 130,-1048.71 136,-1048.71 142,-1054.71 142,-1060.71 142,-1060.71 142,-1072.71 142,-1072.71 142,-1078.71 136,-1084.71 130,-1084.71"/>
<text text-anchor="middle" x="82" y="-1064.21" font-family="Avenir Next" font-size="10.00" fill="#17232b">CHEM101 / CHEM150</text>
</a>
</g>
</g>
<!-- course__CHEM102 -->
<g id="node5" class="node">
<title>course__CHEM102</title>
<g id="a_node5"><a xlink:href="../../../courses/CHEM102.html" xlink:title="CHEM102: Chemical Reactivity Fundamentals with Environmental Applications" target="_top">
<path fill="#d7e9ef" stroke="#1f4f66" stroke-width="1.6" d="M263.5,-1084.71C263.5,-1084.71 223.5,-1084.71 223.5,-1084.71 217.5,-1084.71 211.5,-1078.71 211.5,-1072.71 211.5,-1072.71 211.5,-1060.71 211.5,-1060.71 211.5,-1054.71 217.5,-1048.71 223.5,-1048.71 223.5,-1048.71 263.5,-1048.71 263.5,-1048.71 269.5,-1048.71 275.5,-1054.71 275.5,-1060.71 275.5,-1060.71 275.5,-1072.71 275.5,-1072.71 275.5,-1078.71 269.5,-1084.71 263.5,-1084.71"/>
<text text-anchor="middle" x="243.5" y="-1064.21" font-family="Avenir Next" font-size="10.00" fill="#17232b">CHEM102</text>
</a>
</g>
</g>
<!-- course__CHEM101&#45;&gt;course__CHEM102 -->
<g id="edge4" class="edge">
<title>course__CHEM101&#45;&gt;course__CHEM102</title>
<path fill="none" stroke="#5d6972" stroke-width="1.2" d="M142.39,-1066.71C163.03,-1066.71 185.63,-1066.71 204.12,-1066.71"/>
<polygon fill="#5d6972" stroke="#5d6972" stroke-width="1.2" points="204.25,-1069.16 211.25,-1066.71 204.25,-1064.26 204.25,-1069.16"/>
</g>
<!-- course__EOS110 -->
<g id="node2" class="node">
<title>course__EOS110</title>
<g id="a_node2"><a xlink:href="../../../courses/EOS110.html" xlink:title="Equivalent or cross&#45;listed: EOS110: Oceans and Atmosphere | EOS350: Understanding the Oceans" target="_top">
<path fill="#d7e9ef" stroke="#1f4f66" stroke-width="1.6" d="M120.5,-1035.71C120.5,-1035.71 43.5,-1035.71 43.5,-1035.71 37.5,-1035.71 31.5,-1029.71 31.5,-1023.71 31.5,-1023.71 31.5,-1011.71 31.5,-1011.71 31.5,-1005.71 37.5,-999.71 43.5,-999.71 43.5,-999.71 120.5,-999.71 120.5,-999.71 126.5,-999.71 132.5,-1005.71 132.5,-1011.71 132.5,-1011.71 132.5,-1023.71 132.5,-1023.71 132.5,-1029.71 126.5,-1035.71 120.5,-1035.71"/>
<text text-anchor="middle" x="82" y="-1015.21" font-family="Avenir Next" font-size="10.00" fill="#17232b">EOS110 / EOS350</text>
</a>
</g>
</g>
<!-- course__EOS120 -->
<g id="node3" class="node">
<title>course__EOS120</title>
<g id="a_node3"><a xlink:href="../../../courses/EOS120.html" xlink:title="EOS120: The Dynamic Earth" target="_top">
<path fill="#d7e9ef" stroke="#1f4f66" stroke-width="1.6" d="M97,-935.71C97,-935.71 67,-935.71 67,-935.71 61,-935.71 55,-929.71 55,-923.71 55,-923.71 55,-911.71 55,-911.71 55,-905.71 61,-899.71 67,-899.71 67,-899.71 97,-899.71 97,-899.71 103,-899.71 109,-905.71 109,-911.71 109,-911.71 109,-923.71 109,-923.71 109,-929.71 103,-935.71 97,-935.71"/>
<text text-anchor="middle" x="82" y="-915.21" font-family="Avenir Next" font-size="10.00" fill="#17232b">EOS120</text>
</a>
</g>
</g>
<!-- course__EOS202 -->
<g id="node10" class="node">
<title>course__EOS202</title>
<g id="a_node10"><a xlink:href="../../../courses/EOS202.html" xlink:title="EOS202: Structural Geology" target="_top">
<path fill="#d7e9ef" stroke="#1f4f66" stroke-width="1.6" d="M258.5,-634.71C258.5,-634.71 228.5,-634.71 228.5,-634.71 222.5,-634.71 216.5,-628.71 216.5,-622.71 216.5,-622.71 216.5,-610.71 216.5,-610.71 216.5,-604.71 222.5,-598.71 228.5,-598.71 228.5,-598.71 258.5,-598.71 258.5,-598.71 264.5,-598.71 270.5,-604.71 270.5,-610.71 270.5,-610.71 270.5,-622.71 270.5,-622.71 270.5,-628.71 264.5,-634.71 258.5,-634.71"/>
<text text-anchor="middle" x="243.5" y="-614.21" font-family="Avenir Next" font-size="10.00" fill="#17232b">EOS202</text>
</a>
</g>
</g>
<!-- course__EOS120&#45;&gt;course__EOS202 -->
<g id="edge8" class="edge">
<title>course__EOS120&#45;&gt;course__EOS202</title>
<path fill="none" stroke="#5d6972" stroke-width="1.2" d="M109.09,-913.38C120.98,-910.03 134.13,-904.11 142,-893.71 209.98,-803.83 99.61,-729.71 170,-641.71 179.58,-629.73 195.21,-623.47 209.51,-620.21"/>
<polygon fill="#5d6972" stroke="#5d6972" stroke-width="1.2" points="210.01,-622.61 216.39,-618.84 209.05,-617.8 210.01,-622.61"/>
</g>
<!-- course__EOS205 -->
<g id="node12" class="node">
<title>course__EOS205</title>
<g id="a_node12"><a xlink:href="../../../courses/EOS205.html" xlink:title="EOS205: Mineralogy" target="_top">
<path fill="#d7e9ef" stroke="#1f4f66" stroke-width="1.6" d="M258.5,-683.71C258.5,-683.71 228.5,-683.71 228.5,-683.71 222.5,-683.71 216.5,-677.71 216.5,-671.71 216.5,-671.71 216.5,-659.71 216.5,-659.71 216.5,-653.71 222.5,-647.71 228.5,-647.71 228.5,-647.71 258.5,-647.71 258.5,-647.71 264.5,-647.71 270.5,-653.71 270.5,-659.71 270.5,-659.71 270.5,-671.71 270.5,-671.71 270.5,-677.71 264.5,-683.71 258.5,-683.71"/>
<text text-anchor="middle" x="243.5" y="-663.21" font-family="Avenir Next" font-size="10.00" fill="#17232b">EOS205</text>
</a>
</g>
</g>
<!-- course__EOS120&#45;&gt;course__EOS205 -->
<g id="edge9" class="edge">
<title>course__EOS120&#45;&gt;course__EOS205</title>
<path fill="none" stroke="#5d6972" stroke-width="1.2" d="M109.27,-913.2C121.05,-909.81 134.06,-903.92 142,-893.71 197.9,-821.8 112.17,-761.07 170,-690.71 179.57,-679.06 194.87,-672.82 208.94,-669.49"/>
<polygon fill="#5d6972" stroke="#5d6972" stroke-width="1.2" points="209.8,-671.82 216.16,-668 208.81,-667.02 209.8,-671.82"/>
</g>
<!-- course__MATH100 -->
<g id="node4" class="node">
<title>course__MATH100</title>
<g id="a_node4"><a xlink:href="../../../courses/MATH100.html" xlink:title="Collapsed in simplified view: MATH100: Calculus I | MATH102: Calculus for Students in the Social and Biological Sciences | MATH109: Introduction to Calculus" target="_top">
<path fill="#d7e9ef" stroke="#1f4f66" stroke-width="1.6" d="M102,-985.71C102,-985.71 62,-985.71 62,-985.71 56,-985.71 50,-979.71 50,-973.71 50,-973.71 50,-961.71 50,-961.71 50,-955.71 56,-949.71 62,-949.71 62,-949.71 102,-949.71 102,-949.71 108,-949.71 114,-955.71 114,-961.71 114,-961.71 114,-973.71 114,-973.71 114,-979.71 108,-985.71 102,-985.71"/>
<text text-anchor="middle" x="82" y="-965.21" font-family="Avenir Next" font-size="10.00" fill="#17232b">Calculus I</text>
</a>
</g>
</g>
<!-- course__MATH100&#45;&gt;course__CHEM102 -->
<g id="edge5" class="edge">
<title>course__MATH100&#45;&gt;course__CHEM102</title>
<path fill="none" stroke="#5d6972" stroke-width="1.2" d="M114.12,-977.35C123.77,-981.36 133.97,-986.74 142,-993.71 159.79,-1009.14 151.85,-1023.69 170,-1038.71 179.91,-1046.91 192.48,-1052.88 204.37,-1057.15"/>
<polygon fill="#5d6972" stroke="#5d6972" stroke-width="1.2" points="203.85,-1059.56 211.26,-1059.47 205.41,-1054.92 203.85,-1059.56"/>
</g>
<!-- course__CSC110 -->
<g id="node6" class="node">
<title>course__CSC110</title>
<g id="a_node6"><a xlink:href="../../../courses/CSC110.html" xlink:title="Collapsed in simplified view: CSC110: Fundamentals of Programming I | CSC111: Fundamentals of Programming with Engineering Applications" target="_top">
<path fill="#d7e9ef" stroke="#1f4f66" stroke-width="1.6" d="M276,-922.71C276,-922.71 211,-922.71 211,-922.71 205,-922.71 199,-916.71 199,-910.71 199,-910.71 199,-898.71 199,-898.71 199,-892.71 205,-886.71 211,-886.71 211,-886.71 276,-886.71 276,-886.71 282,-886.71 288,-892.71 288,-898.71 288,-898.71 288,-910.71 288,-910.71 288,-916.71 282,-922.71 276,-922.71"/>
<text text-anchor="middle" x="243.5" y="-902.21" font-family="Avenir Next" font-size="10.00" fill="#17232b">Programming I</text>
</a>
</g>
</g>
<!-- course__MATH100&#45;&gt;course__CSC110 -->
<g id="edge6" class="edge">
<title>course__MATH100&#45;&gt;course__CSC110</title>
<path fill="none" stroke="#5d6972" stroke-width="1.2" d="M114.01,-954.8C123.06,-950.97 132.95,-946.72 142,-942.71 154.54,-937.14 157.28,-934.84 170,-929.71 177.09,-926.85 184.65,-924.01 192.11,-921.34"/>
<polygon fill="#5d6972" stroke="#5d6972" stroke-width="1.2" points="193.13,-923.57 198.91,-918.93 191.49,-918.95 193.13,-923.57"/>
</g>
<!-- course__MATH101 -->
<g id="node7" class="node">
<title>course__MATH101</title>
<g id="a_node7"><a xlink:href="../../../courses/MATH101.html" xlink:title="MATH101: Calculus II" target="_top">
<path fill="#d7e9ef" stroke="#1f4f66" stroke-width="1.6" d="M263,-971.71C263,-971.71 224,-971.71 224,-971.71 218,-971.71 212,-965.71 212,-959.71 212,-959.71 212,-947.71 212,-947.71 212,-941.71 218,-935.71 224,-935.71 224,-935.71 263,-935.71 263,-935.71 269,-935.71 275,-941.71 275,-947.71 275,-947.71 275,-959.71 275,-959.71 275,-965.71 269,-971.71 263,-971.71"/>
<text text-anchor="middle" x="243.5" y="-951.21" font-family="Avenir Next" font-size="10.00" fill="#17232b">MATH101</text>
</a>
</g>
</g>
<!-- course__MATH100&#45;&gt;course__MATH101 -->
<g id="edge23" class="edge">
<title>course__MATH100&#45;&gt;course__MATH101</title>
<path fill="none" stroke="#5d6972" stroke-width="1.2" d="M114.13,-964.97C140.1,-962.7 177.18,-959.44 204.82,-957.01"/>
<polygon fill="#5d6972" stroke="#5d6972" stroke-width="1.2" points="205.23,-959.44 211.99,-956.39 204.8,-954.56 205.23,-959.44"/>
</g>
<!-- course__PHYS102A -->
<g id="node8" class="node">
<title>course__PHYS102A</title>
<g id="a_node8"><a xlink:href="../../../courses/PHYS102A.html" xlink:title="Collapsed in simplified view: PHYS102A: General Physics I | PHYS110: Introductory Physics I | PHYS120: Physics I" target="_top">
<path fill="#d7e9ef" stroke="#1f4f66" stroke-width="1.6" d="M261,-1020.71C261,-1020.71 226,-1020.71 226,-1020.71 220,-1020.71 214,-1014.71 214,-1008.71 214,-1008.71 214,-996.71 214,-996.71 214,-990.71 220,-984.71 226,-984.71 226,-984.71 261,-984.71 261,-984.71 267,-984.71 273,-990.71 273,-996.71 273,-996.71 273,-1008.71 273,-1008.71 273,-1014.71 267,-1020.71 261,-1020.71"/>
<text text-anchor="middle" x="243.5" y="-1000.21" font-family="Avenir Next" font-size="10.00" fill="#17232b">Physics I</text>
</a>
</g>
</g>
<!-- course__MATH100&#45;&gt;course__PHYS102A -->
<g id="edge61" class="edge">
<title>course__MATH100&#45;&gt;course__PHYS102A</title>
<path fill="none" stroke="#5d6972" stroke-width="1.2" d="M114.13,-974.54C140.79,-980.39 179.18,-988.81 207.02,-994.92"/>
<polygon fill="#5d6972" stroke="#5d6972" stroke-width="1.2" points="206.5,-997.31 213.86,-996.42 207.55,-992.53 206.5,-997.31"/>
</g>
<!-- course__PHYS102B -->
<g id="node9" class="node">
<title>course__PHYS102B</title>
<g id="a_node9"><a xlink:href="../../../courses/PHYS102B.html" xlink:title="Collapsed in simplified view: PHYS102B: General Physics II | PHYS111: Introductory Physics II | PHYS130: Physics II" target="_top">
<path fill="#d7e9ef" stroke="#1f4f66" stroke-width="1.6" d="M422,-988.71C422,-988.71 384,-988.71 384,-988.71 378,-988.71 372,-982.71 372,-976.71 372,-976.71 372,-964.71 372,-964.71 372,-958.71 378,-952.71 384,-952.71 384,-952.71 422,-952.71 422,-952.71 428,-952.71 434,-958.71 434,-964.71 434,-964.71 434,-976.71 434,-976.71 434,-982.71 428,-988.71 422,-988.71"/>
<text text-anchor="middle" x="403" y="-968.21" font-family="Avenir Next" font-size="10.00" fill="#17232b">Physics II</text>
</a>
</g>
</g>
<!-- course__MATH100&#45;&gt;course__PHYS102B -->
<g id="edge63" class="edge">
<title>course__MATH100&#45;&gt;course__PHYS102B</title>
<path fill="none" stroke="#5d6972" stroke-width="1.2" d="M114.21,-978.26C123.65,-982.27 133.7,-987.42 142,-993.71 157.6,-1005.53 152.3,-1019.35 170,-1027.71 196.73,-1040.32 274.45,-1035.34 303,-1027.71 328.3,-1020.94 353.85,-1005.99 372.65,-993.09"/>
<polygon fill="#5d6972" stroke="#5d6972" stroke-width="1.2" points="374.43,-994.84 378.76,-988.81 371.62,-990.82 374.43,-994.84"/>
</g>
<!-- choice_MATH211_0 -->
<g id="node52" class="node">
<title>choice_MATH211_0</title>
<path fill="#fff7ee" stroke="#b7793f" stroke-width="1.1" d="M735.5,-66.71C735.5,-66.71 705.5,-66.71 705.5,-66.71 699.5,-66.71 693.5,-60.71 693.5,-54.71 693.5,-54.71 693.5,-42.71 693.5,-42.71 693.5,-36.71 699.5,-30.71 705.5,-30.71 705.5,-30.71 735.5,-30.71 735.5,-30.71 741.5,-30.71 747.5,-36.71 747.5,-42.71 747.5,-42.71 747.5,-54.71 747.5,-54.71 747.5,-60.71 741.5,-66.71 735.5,-66.71"/>
<text text-anchor="middle" x="720.5" y="-46.51" font-family="Avenir Next" font-size="9.00">1 of</text>
</g>
<!-- course__MATH100&#45;&gt;choice_MATH211_0 -->
<g id="edge26" class="edge">
<title>course__MATH100&#45;&gt;choice_MATH211_0</title>
<path fill="none" stroke="#7a8389" d="M114.23,-961.49C124.72,-957.8 135.42,-951.96 142,-942.71 196.59,-865.93 150.44,-611.86 170,-519.71 216.81,-299.22 165.2,-179.64 345,-43.71 447.8,34.01 615.89,-11.6 686.56,-36.17"/>
<polygon fill="#7a8389" stroke="#7a8389" points="686.08,-38.6 693.49,-38.62 687.71,-33.98 686.08,-38.6"/>
</g>
<!-- course__CHEM102&#45;&gt;course__EOS205 -->
<g id="edge10" class="edge">
<title>course__CHEM102&#45;&gt;course__EOS205</title>
<path fill="none" stroke="#5d6972" stroke-width="1.2" d="M211.37,-1059.06C191.67,-1052.54 168,-1040.97 156,-1021.21 146.66,-1005.82 146.32,-712.38 156,-697.21 167.37,-679.39 190,-671.56 209.39,-668.16"/>
<polygon fill="#5d6972" stroke="#5d6972" stroke-width="1.2" points="209.81,-670.57 216.36,-667.1 209.07,-665.73 209.81,-670.57"/>
</g>
<!-- course__MATH248 -->
<g id="node17" class="node">
<title>course__MATH248</title>
<g id="a_node17"><a xlink:href="../../../courses/MATH248.html" xlink:title="Equivalent or cross&#45;listed: MATH248: Computer Assisted Mathematics | PHYS248: Computer Assisted Physics" target="_top">
<path fill="#d7e9ef" stroke="#1f4f66" stroke-width="1.6" d="M449,-781.71C449,-781.71 357,-781.71 357,-781.71 351,-781.71 345,-775.71 345,-769.71 345,-769.71 345,-757.71 345,-757.71 345,-751.71 351,-745.71 357,-745.71 357,-745.71 449,-745.71 449,-745.71 455,-745.71 461,-751.71 461,-757.71 461,-757.71 461,-769.71 461,-769.71 461,-775.71 455,-781.71 449,-781.71"/>
<text text-anchor="middle" x="403" y="-761.21" font-family="Avenir Next" font-size="10.00" fill="#17232b">MATH248 / PHYS248</text>
</a>
</g>
</g>
<!-- course__CSC110&#45;&gt;course__MATH248 -->
<g id="edge31" class="edge">
<title>course__CSC110&#45;&gt;course__MATH248</title>
<path fill="none" stroke="#5d6972" stroke-width="1.2" d="M279.55,-886.68C287.89,-881.33 296.3,-874.93 303,-867.71 330.04,-838.55 315.84,-815.75 345,-788.71 346.01,-787.77 347.06,-786.86 348.15,-785.99"/>
<polygon fill="#5d6972" stroke="#5d6972" stroke-width="1.2" points="349.6,-787.96 353.83,-781.87 346.72,-784 349.6,-787.96"/>
</g>
<!-- course__MATH101&#45;&gt;course__PHYS102B -->
<g id="edge64" class="edge">
<title>course__MATH101&#45;&gt;course__PHYS102B</title>
<path fill="none" stroke="#5d6972" stroke-width="1.2" d="M275.24,-957.03C300.88,-959.79 337.5,-963.75 364.79,-966.69"/>
<polygon fill="#5d6972" stroke="#5d6972" stroke-width="1.2" points="364.65,-969.14 371.87,-967.45 365.17,-964.27 364.65,-969.14"/>
</g>
<!-- course__EOS210 -->
<g id="node13" class="node">
<title>course__EOS210</title>
<g id="a_node13"><a xlink:href="../../../courses/EOS210.html" xlink:title="Collapsed in simplified view: EOS210: Introductory Geophysics | PHYS210: Introductory Geophysics" target="_top">
<path fill="#d7e9ef" stroke="#1f4f66" stroke-width="1.6" d="M280,-830.71C280,-830.71 207,-830.71 207,-830.71 201,-830.71 195,-824.71 195,-818.71 195,-818.71 195,-806.71 195,-806.71 195,-800.71 201,-794.71 207,-794.71 207,-794.71 280,-794.71 280,-794.71 286,-794.71 292,-800.71 292,-806.71 292,-806.71 292,-818.71 292,-818.71 292,-824.71 286,-830.71 280,-830.71"/>
<text text-anchor="middle" x="243.5" y="-810.21" font-family="Avenir Next" font-size="10.00" fill="#17232b">Intro geophysics</text>
</a>
</g>
</g>
<!-- course__MATH101&#45;&gt;course__EOS210 -->
<g id="edge11" class="edge">
<title>course__MATH101&#45;&gt;course__EOS210</title>
<path fill="none" stroke="#5d6972" stroke-width="1.2" d="M211.61,-952.04C191.73,-949.1 167.77,-941.65 156,-923.21 144.76,-905.6 146.51,-894.82 156,-876.21 164.88,-858.79 181.02,-845.03 197.05,-834.84"/>
<polygon fill="#5d6972" stroke="#5d6972" stroke-width="1.2" points="198.7,-836.7 203.4,-830.97 196.15,-832.52 198.7,-836.7"/>
</g>
<!-- course__MATH200 -->
<g id="node14" class="node">
<title>course__MATH200</title>
<g id="a_node14"><a xlink:href="../../../courses/MATH200.html" xlink:title="Equivalent or cross&#45;listed: MATH200: Calculus III | MATH202: Intermediate Calculus for CSC and EOS" target="_top">
<path fill="#d7e9ef" stroke="#1f4f66" stroke-width="1.6" d="M291,-732.71C291,-732.71 196,-732.71 196,-732.71 190,-732.71 184,-726.71 184,-720.71 184,-720.71 184,-708.71 184,-708.71 184,-702.71 190,-696.71 196,-696.71 196,-696.71 291,-696.71 291,-696.71 297,-696.71 303,-702.71 303,-708.71 303,-708.71 303,-720.71 303,-720.71 303,-726.71 297,-732.71 291,-732.71"/>
<text text-anchor="middle" x="243.5" y="-712.21" font-family="Avenir Next" font-size="10.00" fill="#17232b">MATH200 / MATH202</text>
</a>
</g>
</g>
<!-- course__MATH101&#45;&gt;course__MATH200 -->
<g id="edge24" class="edge">
<title>course__MATH101&#45;&gt;course__MATH200</title>
<path fill="none" stroke="#5d6972" stroke-width="1.2" d="M211.61,-952.04C191.73,-949.1 167.77,-941.65 156,-923.21 145.42,-906.63 145.42,-762.78 156,-746.21 161.19,-738.07 168.73,-732.02 177.23,-727.52"/>
<polygon fill="#5d6972" stroke="#5d6972" stroke-width="1.2" points="178.62,-729.58 183.9,-724.37 176.52,-725.14 178.62,-729.58"/>
</g>
<!-- course__STAT254 -->
<g id="node23" class="node">
<title>course__STAT254</title>
<g id="a_node23"><a xlink:href="../../../courses/STAT254.html" xlink:title="Collapsed in simplified view: STAT254: Probability and Statistics for Engineers | STAT255: Statistics for Life Sciences I | STAT260: Introduction to Probability and Statistics I" target="_top">
<path fill="#d7e9ef" stroke="#1f4f66" stroke-width="1.6" d="M593.5,-759.71C593.5,-759.71 531.5,-759.71 531.5,-759.71 525.5,-759.71 519.5,-753.71 519.5,-747.71 519.5,-747.71 519.5,-735.71 519.5,-735.71 519.5,-729.71 525.5,-723.71 531.5,-723.71 531.5,-723.71 593.5,-723.71 593.5,-723.71 599.5,-723.71 605.5,-729.71 605.5,-735.71 605.5,-735.71 605.5,-747.71 605.5,-747.71 605.5,-753.71 599.5,-759.71 593.5,-759.71"/>
<text text-anchor="middle" x="562.5" y="-739.21" font-family="Avenir Next" font-size="10.00" fill="#17232b">Intro statistics</text>
</a>
</g>
</g>
<!-- course__MATH101&#45;&gt;course__STAT254 -->
<g id="edge95" class="edge">
<title>course__MATH101&#45;&gt;course__STAT254</title>
<path fill="none" stroke="#5d6972" stroke-width="1.2" d="M275.23,-951.88C325.61,-947.1 425.18,-929.86 475,-867.71 503.34,-832.35 460.22,-801.71 489,-766.71 495.12,-759.26 503.59,-754.03 512.57,-750.35"/>
<polygon fill="#5d6972" stroke="#5d6972" stroke-width="1.2" points="513.45,-752.64 519.18,-747.94 511.77,-748.03 513.45,-752.64"/>
</g>
<!-- course__PHYS102A&#45;&gt;course__PHYS102B -->
<g id="edge62" class="edge">
<title>course__PHYS102A&#45;&gt;course__PHYS102B</title>
<path fill="none" stroke="#5d6972" stroke-width="1.2" d="M273.02,-996.91C298.76,-991.68 336.8,-983.95 364.9,-978.25"/>
<polygon fill="#5d6972" stroke="#5d6972" stroke-width="1.2" points="365.44,-980.64 371.81,-976.84 364.46,-975.83 365.44,-980.64"/>
</g>
<!-- course__PHYS102A&#45;&gt;course__EOS210 -->
<g id="edge12" class="edge">
<title>course__PHYS102A&#45;&gt;course__EOS210</title>
<path fill="none" stroke="#5d6972" stroke-width="1.2" d="M213.78,-1001.35C193.51,-998.64 168.2,-991.33 156,-972.21 144.52,-954.22 146.31,-895.21 156,-876.21 164.88,-858.79 181.02,-845.03 197.05,-834.84"/>
<polygon fill="#5d6972" stroke="#5d6972" stroke-width="1.2" points="198.7,-836.7 203.4,-830.97 196.15,-832.52 198.7,-836.7"/>
</g>
<!-- course__PHYS102B&#45;&gt;course__MATH248 -->
<g id="edge32" class="edge">
<title>course__PHYS102B&#45;&gt;course__MATH248</title>
<path fill="none" stroke="#5d6972" stroke-width="1.2" d="M371.99,-954.22C354.38,-942.99 333.93,-926.33 324,-905.21 303.21,-860.96 296.57,-835.68 324,-795.21 327.83,-789.55 332.86,-784.91 338.53,-781.11"/>
<polygon fill="#5d6972" stroke="#5d6972" stroke-width="1.2" points="340.15,-782.99 344.9,-777.29 337.63,-778.79 340.15,-782.99"/>
</g>
<!-- course__PHYS216 -->
<g id="node18" class="node">
<title>course__PHYS216</title>
<g id="a_node18"><a xlink:href="../../../courses/PHYS216.html" xlink:title="PHYS216: Introductory Electricity and Magnetism" target="_top">
<path fill="#d7e9ef" stroke="#1f4f66" stroke-width="1.6" d="M421,-732.71C421,-732.71 385,-732.71 385,-732.71 379,-732.71 373,-726.71 373,-720.71 373,-720.71 373,-708.71 373,-708.71 373,-702.71 379,-696.71 385,-696.71 385,-696.71 421,-696.71 421,-696.71 427,-696.71 433,-702.71 433,-708.71 433,-708.71 433,-720.71 433,-720.71 433,-726.71 427,-732.71 421,-732.71"/>
<text text-anchor="middle" x="403" y="-712.21" font-family="Avenir Next" font-size="10.00" fill="#17232b">PHYS216</text>
</a>
</g>
</g>
<!-- course__PHYS102B&#45;&gt;course__PHYS216 -->
<g id="edge67" class="edge">
<title>course__PHYS102B&#45;&gt;course__PHYS216</title>
<path fill="none" stroke="#5d6972" stroke-width="1.2" d="M371.99,-954.22C354.38,-942.99 333.93,-926.33 324,-905.21 308.97,-873.23 304.18,-775.45 324,-746.21 333.41,-732.32 350.03,-724.56 365.6,-720.22"/>
<polygon fill="#5d6972" stroke="#5d6972" stroke-width="1.2" points="366.45,-722.53 372.65,-718.45 365.27,-717.77 366.45,-722.53"/>
</g>
<!-- course__PHYS229 -->
<g id="node19" class="node">
<title>course__PHYS229</title>
<g id="a_node19"><a xlink:href="../../../courses/PHYS229.html" xlink:title="PHYS229: Introduction to Experimental Physics" target="_top">
<path fill="#d7e9ef" stroke="#1f4f66" stroke-width="1.6" d="M261.5,-781.71C261.5,-781.71 225.5,-781.71 225.5,-781.71 219.5,-781.71 213.5,-775.71 213.5,-769.71 213.5,-769.71 213.5,-757.71 213.5,-757.71 213.5,-751.71 219.5,-745.71 225.5,-745.71 225.5,-745.71 261.5,-745.71 261.5,-745.71 267.5,-745.71 273.5,-751.71 273.5,-757.71 273.5,-757.71 273.5,-769.71 273.5,-769.71 273.5,-775.71 267.5,-781.71 261.5,-781.71"/>
<text text-anchor="middle" x="243.5" y="-761.21" font-family="Avenir Next" font-size="10.00" fill="#17232b">PHYS229</text>
</a>
</g>
</g>
<!-- course__PHYS102B&#45;&gt;course__PHYS229 -->
<g id="edge71" class="edge">
<title>course__PHYS102B&#45;&gt;course__PHYS229</title>
<path fill="none" stroke="#5d6972" stroke-width="1.2" d="M391.82,-952.52C380.34,-931.98 361.18,-897.53 345,-867.71 326.04,-832.75 332.28,-815.61 303,-788.71 296.52,-782.75 288.4,-778.08 280.3,-774.48"/>
<polygon fill="#5d6972" stroke="#5d6972" stroke-width="1.2" points="280.94,-772.09 273.53,-771.69 279.07,-776.62 280.94,-772.09"/>
</g>
<!-- course__PHYS215 -->
<g id="node35" class="node">
<title>course__PHYS215</title>
<g id="a_node35"><a xlink:href="../../../courses/PHYS215.html" xlink:title="PHYS215: Introductory Quantum Physics" target="_top">
<path fill="#d7e9ef" stroke="#1f4f66" stroke-width="1.6" d="M580.5,-955.71C580.5,-955.71 544.5,-955.71 544.5,-955.71 538.5,-955.71 532.5,-949.71 532.5,-943.71 532.5,-943.71 532.5,-931.71 532.5,-931.71 532.5,-925.71 538.5,-919.71 544.5,-919.71 544.5,-919.71 580.5,-919.71 580.5,-919.71 586.5,-919.71 592.5,-925.71 592.5,-931.71 592.5,-931.71 592.5,-943.71 592.5,-943.71 592.5,-949.71 586.5,-955.71 580.5,-955.71"/>
<text text-anchor="middle" x="562.5" y="-935.21" font-family="Avenir Next" font-size="10.00" fill="#17232b">PHYS215</text>
</a>
</g>
</g>
<!-- course__PHYS102B&#45;&gt;course__PHYS215 -->
<g id="edge65" class="edge">
<title>course__PHYS102B&#45;&gt;course__PHYS215</title>
<path fill="none" stroke="#5d6972" stroke-width="1.2" d="M434.37,-964.34C460.3,-958.91 497.65,-951.08 525.17,-945.32"/>
<polygon fill="#5d6972" stroke="#5d6972" stroke-width="1.2" points="525.94,-947.66 532.29,-943.83 524.94,-942.86 525.94,-947.66"/>
</g>
<!-- course__PHYS217 -->
<g id="node36" class="node">
<title>course__PHYS217</title>
<g id="a_node36"><a xlink:href="../../../courses/PHYS217.html" xlink:title="Equivalent or cross&#45;listed: PHYS217: Introductory Thermodynamics | PHYS317: Thermodynamics" target="_top">
<path fill="#d7e9ef" stroke="#1f4f66" stroke-width="1.6" d="M607,-1004.71C607,-1004.71 518,-1004.71 518,-1004.71 512,-1004.71 506,-998.71 506,-992.71 506,-992.71 506,-980.71 506,-980.71 506,-974.71 512,-968.71 518,-968.71 518,-968.71 607,-968.71 607,-968.71 613,-968.71 619,-974.71 619,-980.71 619,-980.71 619,-992.71 619,-992.71 619,-998.71 613,-1004.71 607,-1004.71"/>
<text text-anchor="middle" x="562.5" y="-984.21" font-family="Avenir Next" font-size="10.00" fill="#17232b">PHYS217 / PHYS317</text>
</a>
</g>
</g>
<!-- course__PHYS102B&#45;&gt;course__PHYS217 -->
<g id="edge69" class="edge">
<title>course__PHYS102B&#45;&gt;course__PHYS217</title>
<path fill="none" stroke="#5d6972" stroke-width="1.2" d="M434.37,-973.79C452.6,-975.64 476.47,-978.07 498.61,-980.32"/>
<polygon fill="#5d6972" stroke="#5d6972" stroke-width="1.2" points="498.51,-982.77 505.72,-981.04 499.01,-977.9 498.51,-982.77"/>
</g>
<!-- course__EOS340 -->
<g id="node47" class="node">
<title>course__EOS340</title>
<g id="a_node47"><a xlink:href="../../../courses/EOS340.html" xlink:title="Equivalent or cross&#45;listed: EOS340: Atmospheric Physics | PHYS340: Atmospheric Physics" target="_top">
<path fill="#f9f9f9" stroke="#363636" d="M602.5,-1281.71C602.5,-1281.71 522.5,-1281.71 522.5,-1281.71 516.5,-1281.71 510.5,-1275.71 510.5,-1269.71 510.5,-1269.71 510.5,-1257.71 510.5,-1257.71 510.5,-1251.71 516.5,-1245.71 522.5,-1245.71 522.5,-1245.71 602.5,-1245.71 602.5,-1245.71 608.5,-1245.71 614.5,-1251.71 614.5,-1257.71 614.5,-1257.71 614.5,-1269.71 614.5,-1269.71 614.5,-1275.71 608.5,-1281.71 602.5,-1281.71"/>
<text text-anchor="middle" x="562.5" y="-1261.51" font-family="Avenir Next" font-size="9.00" fill="#363636">EOS340 / PHYS340</text>
</a>
</g>
</g>
<!-- course__PHYS102B&#45;&gt;course__EOS340 -->
<g id="edge15" class="edge">
<title>course__PHYS102B&#45;&gt;course__EOS340</title>
<path fill="none" stroke="#5d6972" stroke-width="1.2" d="M404.34,-988.91C406.23,-1036.83 417.97,-1167.71 489,-1239.71 493.28,-1244.05 498.37,-1247.61 503.83,-1250.52"/>
<polygon fill="#5d6972" stroke="#5d6972" stroke-width="1.2" points="503.01,-1252.84 510.38,-1253.65 505.12,-1248.42 503.01,-1252.84"/>
</g>
<!-- course__EOS431 -->
<g id="node48" class="node">
<title>course__EOS431</title>
<g id="a_node48"><a xlink:href="../../../courses/EOS431.html" xlink:title="Equivalent or cross&#45;listed: EOS431: Physical Oceanography | PHYS441: Physical Oceanography" target="_top">
<path fill="#f9f9f9" stroke="#363636" d="M602.5,-1232.71C602.5,-1232.71 522.5,-1232.71 522.5,-1232.71 516.5,-1232.71 510.5,-1226.71 510.5,-1220.71 510.5,-1220.71 510.5,-1208.71 510.5,-1208.71 510.5,-1202.71 516.5,-1196.71 522.5,-1196.71 522.5,-1196.71 602.5,-1196.71 602.5,-1196.71 608.5,-1196.71 614.5,-1202.71 614.5,-1208.71 614.5,-1208.71 614.5,-1220.71 614.5,-1220.71 614.5,-1226.71 608.5,-1232.71 602.5,-1232.71"/>
<text text-anchor="middle" x="562.5" y="-1212.51" font-family="Avenir Next" font-size="9.00" fill="#363636">EOS431 / PHYS441</text>
</a>
</g>
</g>
<!-- course__PHYS102B&#45;&gt;course__EOS431 -->
<g id="edge22" class="edge">
<title>course__PHYS102B&#45;&gt;course__EOS431</title>
<path fill="none" stroke="#5d6972" stroke-width="1.2" d="M405.83,-988.95C410.99,-1030.7 429.4,-1133.95 489,-1190.71 493.35,-1194.85 498.43,-1198.27 503.84,-1201.11"/>
<polygon fill="#5d6972" stroke="#5d6972" stroke-width="1.2" points="502.95,-1203.4 510.33,-1204.17 505.04,-1198.97 502.95,-1203.4"/>
</g>
<!-- course__EOS410 -->
<g id="node21" class="node">
<title>course__EOS410</title>
<g id="a_node21"><a xlink:href="../../../courses/EOS410.html" xlink:title="EOS410: Global Tectonics" target="_top">
<path fill="#d7e9ef" stroke="#1f4f66" stroke-width="1.6" d="M577.5,-465.71C577.5,-465.71 547.5,-465.71 547.5,-465.71 541.5,-465.71 535.5,-459.71 535.5,-453.71 535.5,-453.71 535.5,-441.71 535.5,-441.71 535.5,-435.71 541.5,-429.71 547.5,-429.71 547.5,-429.71 577.5,-429.71 577.5,-429.71 583.5,-429.71 589.5,-435.71 589.5,-441.71 589.5,-441.71 589.5,-453.71 589.5,-453.71 589.5,-459.71 583.5,-465.71 577.5,-465.71"/>
<text text-anchor="middle" x="562.5" y="-445.21" font-family="Avenir Next" font-size="10.00" fill="#17232b">EOS410</text>
</a>
</g>
</g>
<!-- course__EOS202&#45;&gt;course__EOS410 -->
<g id="edge17" class="edge">
<title>course__EOS202&#45;&gt;course__EOS410</title>
<path fill="none" stroke="#5d6972" stroke-width="1.2" d="M270.73,-611.26C282.02,-607.7 294.55,-601.94 303,-592.71 345.44,-546.37 295.27,-496.12 345,-457.71 372.73,-436.29 474.7,-440.74 528.21,-444.76"/>
<polygon fill="#5d6972" stroke="#5d6972" stroke-width="1.2" points="528.26,-447.22 535.43,-445.32 528.64,-442.33 528.26,-447.22"/>
</g>
<!-- course__EOS300 -->
<g id="node24" class="node">
<title>course__EOS300</title>
<g id="a_node24"><a xlink:href="../../../courses/EOS300.html" xlink:title="EOS300: Earth Science Field School" target="_top">
<path fill="#d7e9ef" stroke="#1f4f66" stroke-width="1.6" d="M577.5,-612.71C577.5,-612.71 547.5,-612.71 547.5,-612.71 541.5,-612.71 535.5,-606.71 535.5,-600.71 535.5,-600.71 535.5,-588.71 535.5,-588.71 535.5,-582.71 541.5,-576.71 547.5,-576.71 547.5,-576.71 577.5,-576.71 577.5,-576.71 583.5,-576.71 589.5,-582.71 589.5,-588.71 589.5,-588.71 589.5,-600.71 589.5,-600.71 589.5,-606.71 583.5,-612.71 577.5,-612.71"/>
<text text-anchor="middle" x="562.5" y="-592.21" font-family="Avenir Next" font-size="10.00" fill="#17232b">EOS300</text>
</a>
</g>
</g>
<!-- course__EOS202&#45;&gt;course__EOS300 -->
<g id="edge14" class="edge">
<title>course__EOS202&#45;&gt;course__EOS300</title>
<path fill="none" stroke="#5d6972" stroke-width="1.2" d="M270.71,-614.89C328.13,-610.9 464.93,-601.41 528.27,-597.01"/>
<polygon fill="#5d6972" stroke="#5d6972" stroke-width="1.2" points="528.44,-599.46 535.26,-596.53 528.11,-594.57 528.44,-599.46"/>
</g>
<!-- course__MATH211 -->
<g id="node11" class="node">
<title>course__MATH211</title>
<g id="a_node11"><a xlink:href="../../../courses/MATH211.html" xlink:title="MATH211: Matrix Algebra I" target="_top">
<path fill="#d7e9ef" stroke="#1f4f66" stroke-width="1.6" d="M263,-572.71C263,-572.71 224,-572.71 224,-572.71 218,-572.71 212,-566.71 212,-560.71 212,-560.71 212,-548.71 212,-548.71 212,-542.71 218,-536.71 224,-536.71 224,-536.71 263,-536.71 263,-536.71 269,-536.71 275,-542.71 275,-548.71 275,-548.71 275,-560.71 275,-560.71 275,-566.71 269,-572.71 263,-572.71"/>
<text text-anchor="middle" x="243.5" y="-552.21" font-family="Avenir Next" font-size="10.00" fill="#17232b">MATH211</text>
</a>
</g>
</g>
<!-- course__MATH211&#45;&gt;course__MATH248 -->
<g id="edge29" class="edge">
<title>course__MATH211&#45;&gt;course__MATH248</title>
<path fill="none" stroke="#5d6972" stroke-width="1.2" d="M275.15,-561.37C285.27,-564.97 295.78,-570.44 303,-578.71 351.67,-634.38 296.59,-683.81 345,-739.71 345.23,-739.97 345.46,-740.23 345.7,-740.49"/>
<polygon fill="#5d6972" stroke="#5d6972" stroke-width="1.2" points="344.28,-742.52 351.07,-745.51 347.63,-738.94 344.28,-742.52"/>
</g>
<!-- course__MATH311 -->
<g id="node22" class="node">
<title>course__MATH311</title>
<g id="a_node22"><a xlink:href="../../../courses/MATH311.html" xlink:title="MATH311: Linear Algebra" target="_top">
<path fill="#d7e9ef" stroke="#1f4f66" stroke-width="1.6" d="M582,-403.71C582,-403.71 543,-403.71 543,-403.71 537,-403.71 531,-397.71 531,-391.71 531,-391.71 531,-379.71 531,-379.71 531,-373.71 537,-367.71 543,-367.71 543,-367.71 582,-367.71 582,-367.71 588,-367.71 594,-373.71 594,-379.71 594,-379.71 594,-391.71 594,-391.71 594,-397.71 588,-403.71 582,-403.71"/>
<text text-anchor="middle" x="562.5" y="-383.21" font-family="Avenir Next" font-size="10.00" fill="#17232b">MATH311</text>
</a>
</g>
</g>
<!-- course__MATH211&#45;&gt;course__MATH311 -->
<g id="edge34" class="edge">
<title>course__MATH211&#45;&gt;course__MATH311</title>
<path fill="none" stroke="#5d6972" stroke-width="1.2" d="M251.28,-536.6C264.16,-505 295.4,-440.32 345,-410.71 400.35,-377.66 477.93,-377.53 523.63,-381.14"/>
<polygon fill="#5d6972" stroke="#5d6972" stroke-width="1.2" points="523.49,-383.58 530.68,-381.74 523.91,-378.7 523.49,-383.58"/>
</g>
<!-- course__MATH341 -->
<g id="node26" class="node">
<title>course__MATH341</title>
<g id="a_node26"><a xlink:href="../../../courses/MATH341.html" xlink:title="MATH341: Nonlinear dynamics and chaos" target="_top">
<path fill="#d7e9ef" stroke="#1f4f66" stroke-width="1.6" d="M582,-256.71C582,-256.71 543,-256.71 543,-256.71 537,-256.71 531,-250.71 531,-244.71 531,-244.71 531,-232.71 531,-232.71 531,-226.71 537,-220.71 543,-220.71 543,-220.71 582,-220.71 582,-220.71 588,-220.71 594,-226.71 594,-232.71 594,-232.71 594,-244.71 594,-244.71 594,-250.71 588,-256.71 582,-256.71"/>
<text text-anchor="middle" x="562.5" y="-236.21" font-family="Avenir Next" font-size="10.00" fill="#17232b">MATH341</text>
</a>
</g>
</g>
<!-- course__MATH211&#45;&gt;course__MATH341 -->
<g id="edge35" class="edge">
<title>course__MATH211&#45;&gt;course__MATH341</title>
<path fill="none" stroke="#5d6972" stroke-width="1.2" d="M248.26,-536.48C257.63,-495.17 285.67,-393.34 345,-332.71 394.61,-282.01 476.13,-256.89 523.71,-245.94"/>
<polygon fill="#5d6972" stroke="#5d6972" stroke-width="1.2" points="524.47,-248.28 530.76,-244.37 523.4,-243.5 524.47,-248.28"/>
</g>
<!-- course__MATH342 -->
<g id="node27" class="node">
<title>course__MATH342</title>
<g id="a_node27"><a xlink:href="../../../courses/MATH342.html" xlink:title="MATH342: Intermediate Ordinary Differential Equations" target="_top">
<path fill="#d7e9ef" stroke="#1f4f66" stroke-width="1.6" d="M582,-207.71C582,-207.71 543,-207.71 543,-207.71 537,-207.71 531,-201.71 531,-195.71 531,-195.71 531,-183.71 531,-183.71 531,-177.71 537,-171.71 543,-171.71 543,-171.71 582,-171.71 582,-171.71 588,-171.71 594,-177.71 594,-183.71 594,-183.71 594,-195.71 594,-195.71 594,-201.71 588,-207.71 582,-207.71"/>
<text text-anchor="middle" x="562.5" y="-187.21" font-family="Avenir Next" font-size="10.00" fill="#17232b">MATH342</text>
</a>
</g>
</g>
<!-- course__MATH211&#45;&gt;course__MATH342 -->
<g id="edge39" class="edge">
<title>course__MATH211&#45;&gt;course__MATH342</title>
<path fill="none" stroke="#5d6972" stroke-width="1.2" d="M245.2,-536.4C248.15,-484.88 263.68,-337.27 345,-257.71 393.89,-209.88 476.02,-195.65 523.84,-191.44"/>
<polygon fill="#5d6972" stroke="#5d6972" stroke-width="1.2" points="524.14,-193.88 530.92,-190.87 523.74,-188.99 524.14,-193.88"/>
</g>
<!-- course__MATH346 -->
<g id="node28" class="node">
<title>course__MATH346</title>
<g id="a_node28"><a xlink:href="../../../courses/MATH346.html" xlink:title="MATH346: Introduction to Partial Differential Equations" target="_top">
<path fill="#d7e9ef" stroke="#1f4f66" stroke-width="1.6" d="M582,-354.71C582,-354.71 543,-354.71 543,-354.71 537,-354.71 531,-348.71 531,-342.71 531,-342.71 531,-330.71 531,-330.71 531,-324.71 537,-318.71 543,-318.71 543,-318.71 582,-318.71 582,-318.71 588,-318.71 594,-324.71 594,-330.71 594,-330.71 594,-342.71 594,-342.71 594,-348.71 588,-354.71 582,-354.71"/>
<text text-anchor="middle" x="562.5" y="-334.21" font-family="Avenir Next" font-size="10.00" fill="#17232b">MATH346</text>
</a>
</g>
</g>
<!-- course__MATH211&#45;&gt;course__MATH346 -->
<g id="edge41" class="edge">
<title>course__MATH211&#45;&gt;course__MATH346</title>
<path fill="none" stroke="#5d6972" stroke-width="1.2" d="M249.14,-536.61C259.55,-499.99 288.38,-417.11 345,-376.71 398.31,-338.67 477.24,-333.63 523.61,-334.46"/>
<polygon fill="#5d6972" stroke="#5d6972" stroke-width="1.2" points="523.71,-336.91 530.77,-334.64 523.83,-332.01 523.71,-336.91"/>
</g>
<!-- course__MATH347 -->
<g id="node29" class="node">
<title>course__MATH347</title>
<g id="a_node29"><a xlink:href="../../../courses/MATH347.html" xlink:title="Equivalent or cross&#45;listed: MATH347: Introduction to Continuous Optimization | MATH492: Topics in Applied Mathematics" target="_top">
<path fill="#d7e9ef" stroke="#1f4f66" stroke-width="1.6" d="M610,-563.71C610,-563.71 515,-563.71 515,-563.71 509,-563.71 503,-557.71 503,-551.71 503,-551.71 503,-539.71 503,-539.71 503,-533.71 509,-527.71 515,-527.71 515,-527.71 610,-527.71 610,-527.71 616,-527.71 622,-533.71 622,-539.71 622,-539.71 622,-551.71 622,-551.71 622,-557.71 616,-563.71 610,-563.71"/>
<text text-anchor="middle" x="562.5" y="-543.21" font-family="Avenir Next" font-size="10.00" fill="#17232b">MATH347 / MATH492</text>
</a>
</g>
</g>
<!-- course__MATH211&#45;&gt;course__MATH347 -->
<g id="edge43" class="edge">
<title>course__MATH211&#45;&gt;course__MATH347</title>
<path fill="none" stroke="#5d6972" stroke-width="1.2" d="M275.1,-547.77C294.91,-543.64 321.34,-538.81 345,-536.71 402.55,-531.59 417.3,-533.71 475,-536.71 481.79,-537.06 488.86,-537.57 495.91,-538.16"/>
<polygon fill="#5d6972" stroke="#5d6972" stroke-width="1.2" points="495.75,-540.61 502.94,-538.78 496.18,-535.73 495.75,-540.61"/>
</g>
<!-- course__MATH369 -->
<g id="node32" class="node">
<title>course__MATH369</title>
<g id="a_node32"><a xlink:href="../../../courses/MATH369.html" xlink:title="MATH369: Differential Geometry in R3" target="_top">
<path fill="#d7e9ef" stroke="#1f4f66" stroke-width="1.6" d="M582,-710.71C582,-710.71 543,-710.71 543,-710.71 537,-710.71 531,-704.71 531,-698.71 531,-698.71 531,-686.71 531,-686.71 531,-680.71 537,-674.71 543,-674.71 543,-674.71 582,-674.71 582,-674.71 588,-674.71 594,-680.71 594,-686.71 594,-686.71 594,-698.71 594,-698.71 594,-704.71 588,-710.71 582,-710.71"/>
<text text-anchor="middle" x="562.5" y="-690.21" font-family="Avenir Next" font-size="10.00" fill="#17232b">MATH369</text>
</a>
</g>
</g>
<!-- course__MATH211&#45;&gt;course__MATH369 -->
<g id="edge51" class="edge">
<title>course__MATH211&#45;&gt;course__MATH369</title>
<path fill="none" stroke="#5d6972" stroke-width="1.2" d="M275.26,-558.82C331.32,-566.92 446.94,-586.62 475,-614.71 492.52,-632.25 472.06,-650.61 489,-668.71 498.1,-678.43 511.21,-684.21 523.79,-687.66"/>
<polygon fill="#5d6972" stroke="#5d6972" stroke-width="1.2" points="523.32,-690.06 530.7,-689.34 524.48,-685.3 523.32,-690.06"/>
</g>
<!-- course__MATH377 -->
<g id="node33" class="node">
<title>course__MATH377</title>
<g id="a_node33"><a xlink:href="../../../courses/MATH377.html" xlink:title="MATH377: Mathematical Modelling" target="_top">
<path fill="#d7e9ef" stroke="#1f4f66" stroke-width="1.6" d="M740,-759.71C740,-759.71 701,-759.71 701,-759.71 695,-759.71 689,-753.71 689,-747.71 689,-747.71 689,-735.71 689,-735.71 689,-729.71 695,-723.71 701,-723.71 701,-723.71 740,-723.71 740,-723.71 746,-723.71 752,-729.71 752,-735.71 752,-735.71 752,-747.71 752,-747.71 752,-753.71 746,-759.71 740,-759.71"/>
<text text-anchor="middle" x="720.5" y="-739.21" font-family="Avenir Next" font-size="10.00" fill="#17232b">MATH377</text>
</a>
</g>
</g>
<!-- course__MATH211&#45;&gt;course__MATH377 -->
<g id="edge52" class="edge">
<title>course__MATH211&#45;&gt;course__MATH377</title>
<path fill="none" stroke="#5d6972" stroke-width="1.2" d="M247.06,-536.45C256.74,-470.06 293.18,-242.85 345,-194.71 435.69,-110.45 529.49,-83.47 622,-165.71 681.54,-218.63 649.56,-443.37 664,-521.71 677.2,-593.33 700.29,-676.26 712.09,-716.8"/>
<polygon fill="#5d6972" stroke="#5d6972" stroke-width="1.2" points="709.77,-717.6 714.09,-723.63 714.47,-716.22 709.77,-717.6"/>
</g>
<!-- course__PHYS325 -->
<g id="node37" class="node">
<title>course__PHYS325</title>
<g id="a_node37"><a xlink:href="../../../courses/PHYS325.html" xlink:title="PHYS325: Optics" target="_top">
<path fill="#d7e9ef" stroke="#1f4f66" stroke-width="1.6" d="M580.5,-661.71C580.5,-661.71 544.5,-661.71 544.5,-661.71 538.5,-661.71 532.5,-655.71 532.5,-649.71 532.5,-649.71 532.5,-637.71 532.5,-637.71 532.5,-631.71 538.5,-625.71 544.5,-625.71 544.5,-625.71 580.5,-625.71 580.5,-625.71 586.5,-625.71 592.5,-631.71 592.5,-637.71 592.5,-637.71 592.5,-649.71 592.5,-649.71 592.5,-655.71 586.5,-661.71 580.5,-661.71"/>
<text text-anchor="middle" x="562.5" y="-641.21" font-family="Avenir Next" font-size="10.00" fill="#17232b">PHYS325</text>
</a>
</g>
</g>
<!-- course__MATH211&#45;&gt;course__PHYS325 -->
<g id="edge82" class="edge">
<title>course__MATH211&#45;&gt;course__PHYS325</title>
<path fill="none" stroke="#5d6972" stroke-width="1.2" d="M275.36,-551.53C331.02,-546.48 445.24,-539.52 475,-563.71 494.91,-579.89 471.55,-600.9 489,-619.71 498.44,-629.88 512.27,-635.74 525.33,-639.12"/>
<polygon fill="#5d6972" stroke="#5d6972" stroke-width="1.2" points="525.1,-641.58 532.47,-640.76 526.19,-636.81 525.1,-641.58"/>
</g>
<!-- course__EOS201 -->
<g id="node15" class="node">
<title>course__EOS201</title>
<g id="a_node15"><a xlink:href="../../../courses/EOS201.html" xlink:title="EOS201: Sedimentary Geology" target="_top">
<path fill="#d7e9ef" stroke="#1f4f66" stroke-width="1.6" d="M418,-683.71C418,-683.71 388,-683.71 388,-683.71 382,-683.71 376,-677.71 376,-671.71 376,-671.71 376,-659.71 376,-659.71 376,-653.71 382,-647.71 388,-647.71 388,-647.71 418,-647.71 418,-647.71 424,-647.71 430,-653.71 430,-659.71 430,-659.71 430,-671.71 430,-671.71 430,-677.71 424,-683.71 418,-683.71"/>
<text text-anchor="middle" x="403" y="-663.21" font-family="Avenir Next" font-size="10.00" fill="#17232b">EOS201</text>
</a>
</g>
</g>
<!-- course__EOS205&#45;&gt;course__EOS201 -->
<g id="edge7" class="edge">
<title>course__EOS205&#45;&gt;course__EOS201</title>
<path fill="none" stroke="#5d6972" stroke-width="1.2" d="M270.51,-665.71C297.41,-665.71 339.51,-665.71 368.8,-665.71"/>
<polygon fill="#5d6972" stroke="#5d6972" stroke-width="1.2" points="368.95,-668.16 375.95,-665.71 368.95,-663.26 368.95,-668.16"/>
</g>
<!-- course__MATH204 -->
<g id="node16" class="node">
<title>course__MATH204</title>
<g id="a_node16"><a xlink:href="../../../courses/MATH204.html" xlink:title="MATH204: Calculus IV" target="_top">
<path fill="#d7e9ef" stroke="#1f4f66" stroke-width="1.6" d="M422.5,-830.71C422.5,-830.71 383.5,-830.71 383.5,-830.71 377.5,-830.71 371.5,-824.71 371.5,-818.71 371.5,-818.71 371.5,-806.71 371.5,-806.71 371.5,-800.71 377.5,-794.71 383.5,-794.71 383.5,-794.71 422.5,-794.71 422.5,-794.71 428.5,-794.71 434.5,-800.71 434.5,-806.71 434.5,-806.71 434.5,-818.71 434.5,-818.71 434.5,-824.71 428.5,-830.71 422.5,-830.71"/>
<text text-anchor="middle" x="403" y="-810.21" font-family="Avenir Next" font-size="10.00" fill="#17232b">MATH204</text>
</a>
</g>
</g>
<!-- course__MATH200&#45;&gt;course__MATH204 -->
<g id="edge25" class="edge">
<title>course__MATH200&#45;&gt;course__MATH204</title>
<path fill="none" stroke="#5d6972" stroke-width="1.2" d="M292.15,-732.82C295.95,-734.93 299.62,-737.22 303,-739.71 326.13,-756.68 321.83,-771.8 345,-788.71 350.92,-793.03 357.73,-796.75 364.55,-799.88"/>
<polygon fill="#5d6972" stroke="#5d6972" stroke-width="1.2" points="363.93,-802.29 371.32,-802.83 365.88,-797.79 363.93,-802.29"/>
</g>
<!-- course__MATH200&#45;&gt;course__MATH248 -->
<g id="edge30" class="edge">
<title>course__MATH200&#45;&gt;course__MATH248</title>
<path fill="none" stroke="#5d6972" stroke-width="1.2" d="M302.7,-732.81C314.2,-736.39 326.33,-740.17 338.01,-743.8"/>
<polygon fill="#5d6972" stroke="#5d6972" stroke-width="1.2" points="337.41,-746.18 344.83,-745.92 338.87,-741.5 337.41,-746.18"/>
</g>
<!-- course__MATH200&#45;&gt;course__PHYS216 -->
<g id="edge68" class="edge">
<title>course__MATH200&#45;&gt;course__PHYS216</title>
<path fill="none" stroke="#5d6972" stroke-width="1.2" d="M303.15,-714.71C324.15,-714.71 347.19,-714.71 365.75,-714.71"/>
<polygon fill="#5d6972" stroke="#5d6972" stroke-width="1.2" points="365.88,-717.16 372.88,-714.71 365.88,-712.26 365.88,-717.16"/>
</g>
<!-- course__MATH200&#45;&gt;course__STAT254 -->
<g id="edge94" class="edge">
<title>course__MATH200&#45;&gt;course__STAT254</title>
<path fill="none" stroke="#5d6972" stroke-width="1.2" d="M293.65,-696.63C296.91,-694.8 300.06,-692.83 303,-690.71 326.25,-673.91 318.94,-653.69 345,-641.71 397.49,-617.56 430.6,-604.74 475,-641.71 501.39,-663.68 466.44,-691.81 489,-717.71 495.31,-724.95 503.85,-730.01 512.85,-733.55"/>
<polygon fill="#5d6972" stroke="#5d6972" stroke-width="1.2" points="512.05,-735.87 519.47,-735.87 513.67,-731.24 512.05,-735.87"/>
</g>
<!-- course__MATH352 -->
<g id="node31" class="node">
<title>course__MATH352</title>
<g id="a_node31"><a xlink:href="../../../courses/MATH352.html" xlink:title="Equivalent or cross&#45;listed: MATH352: Introduction to Probability | STAT350: Mathematical Statistics I" target="_top">
<path fill="#d7e9ef" stroke="#1f4f66" stroke-width="1.6" d="M765,-207.71C765,-207.71 676,-207.71 676,-207.71 670,-207.71 664,-201.71 664,-195.71 664,-195.71 664,-183.71 664,-183.71 664,-177.71 670,-171.71 676,-171.71 676,-171.71 765,-171.71 765,-171.71 771,-171.71 777,-177.71 777,-183.71 777,-183.71 777,-195.71 777,-195.71 777,-201.71 771,-207.71 765,-207.71"/>
<text text-anchor="middle" x="720.5" y="-187.21" font-family="Avenir Next" font-size="10.00" fill="#17232b">MATH352 / STAT350</text>
</a>
</g>
</g>
<!-- course__MATH200&#45;&gt;course__MATH352 -->
<g id="edge48" class="edge">
<title>course__MATH200&#45;&gt;course__MATH352</title>
<path fill="none" stroke="#5d6972" stroke-width="1.2" d="M297.22,-696.56C299.33,-694.79 301.27,-692.84 303,-690.71 369.16,-608.88 312.07,-557.65 345,-457.71 390.28,-320.27 366.12,-242.12 489,-165.71 544.96,-130.91 623.67,-150.46 673.11,-169.07"/>
<polygon fill="#5d6972" stroke="#5d6972" stroke-width="1.2" points="672.48,-171.45 679.89,-171.68 674.24,-166.87 672.48,-171.45"/>
</g>
<!-- choice_MATH342_0_1 -->
<g id="node53" class="node">
<title>choice_MATH342_0_1</title>
<path fill="#fff7ee" stroke="#b7793f" stroke-width="1.1" d="M418,-499.71C418,-499.71 388,-499.71 388,-499.71 382,-499.71 376,-493.71 376,-487.71 376,-487.71 376,-475.71 376,-475.71 376,-469.71 382,-463.71 388,-463.71 388,-463.71 418,-463.71 418,-463.71 424,-463.71 430,-469.71 430,-475.71 430,-475.71 430,-487.71 430,-487.71 430,-493.71 424,-499.71 418,-499.71"/>
<text text-anchor="middle" x="403" y="-479.51" font-family="Avenir Next" font-size="9.00">1 of</text>
</g>
<!-- course__MATH200&#45;&gt;choice_MATH342_0_1 -->
<g id="edge37" class="edge">
<title>course__MATH200&#45;&gt;choice_MATH342_0_1</title>
<path fill="none" stroke="#7a8389" d="M296.8,-696.64C299.05,-694.84 301.14,-692.87 303,-690.71 354.08,-631.42 300.05,-583.77 345,-519.71 351.33,-510.68 360.55,-503.21 369.74,-497.35"/>
<polygon fill="#7a8389" stroke="#7a8389" points="371.01,-499.45 375.74,-493.73 368.48,-495.25 371.01,-499.45"/>
</g>
<!-- course__EOS201&#45;&gt;course__EOS300 -->
<g id="edge13" class="edge">
<title>course__EOS201&#45;&gt;course__EOS300</title>
<path fill="none" stroke="#5d6972" stroke-width="1.2" d="M430.24,-650.06C446.76,-640.57 468.72,-628.62 489,-619.71 501.65,-614.15 515.96,-608.99 528.5,-604.82"/>
<polygon fill="#5d6972" stroke="#5d6972" stroke-width="1.2" points="529.38,-607.11 535.27,-602.6 527.85,-602.45 529.38,-607.11"/>
</g>
<!-- course__MATH301 -->
<g id="node25" class="node">
<title>course__MATH301</title>
<g id="a_node25"><a xlink:href="../../../courses/MATH301.html" xlink:title="MATH301: Complex Variables" target="_top">
<path fill="#d7e9ef" stroke="#1f4f66" stroke-width="1.6" d="M582,-906.71C582,-906.71 543,-906.71 543,-906.71 537,-906.71 531,-900.71 531,-894.71 531,-894.71 531,-882.71 531,-882.71 531,-876.71 537,-870.71 543,-870.71 543,-870.71 582,-870.71 582,-870.71 588,-870.71 594,-876.71 594,-882.71 594,-882.71 594,-894.71 594,-894.71 594,-900.71 588,-906.71 582,-906.71"/>
<text text-anchor="middle" x="562.5" y="-886.21" font-family="Avenir Next" font-size="10.00" fill="#17232b">MATH301</text>
</a>
</g>
</g>
<!-- course__MATH204&#45;&gt;course__MATH301 -->
<g id="edge33" class="edge">
<title>course__MATH204&#45;&gt;course__MATH301</title>
<path fill="none" stroke="#5d6972" stroke-width="1.2" d="M429.93,-830.72C446.33,-841.57 468.29,-855.1 489,-864.71 500.06,-869.84 512.52,-874.38 523.95,-878.09"/>
<polygon fill="#5d6972" stroke="#5d6972" stroke-width="1.2" points="523.51,-880.52 530.92,-880.29 524.98,-875.84 523.51,-880.52"/>
</g>
<!-- course__MATH204&#45;&gt;course__MATH341 -->
<g id="edge36" class="edge">
<title>course__MATH204&#45;&gt;course__MATH341</title>
<path fill="none" stroke="#5d6972" stroke-width="1.2" d="M434.61,-810.29C449.28,-807.43 465.65,-801.38 475,-788.71 509.65,-741.75 454.49,-310.77 489,-263.71 497.25,-252.46 510.88,-246.23 524.12,-242.8"/>
<polygon fill="#5d6972" stroke="#5d6972" stroke-width="1.2" points="524.68,-245.18 530.97,-241.25 523.6,-240.4 524.68,-245.18"/>
</g>
<!-- course__MATH204&#45;&gt;course__MATH347 -->
<g id="edge44" class="edge">
<title>course__MATH204&#45;&gt;course__MATH347</title>
<path fill="none" stroke="#5d6972" stroke-width="1.2" d="M434.78,-810.07C449.3,-807.14 465.5,-801.09 475,-788.71 504.55,-750.19 459.57,-609.31 489,-570.71 491.2,-567.82 493.76,-565.26 496.58,-562.99"/>
<polygon fill="#5d6972" stroke="#5d6972" stroke-width="1.2" points="498.33,-564.75 502.68,-558.74 495.53,-560.73 498.33,-564.75"/>
</g>
<!-- course__MATH204&#45;&gt;course__MATH369 -->
<g id="edge50" class="edge">
<title>course__MATH204&#45;&gt;course__MATH369</title>
<path fill="none" stroke="#5d6972" stroke-width="1.2" d="M434.83,-809.37C449,-806.25 464.88,-800.25 475,-788.71 496.2,-764.52 467.87,-741.96 489,-717.71 497.86,-707.54 511.05,-701.51 523.76,-697.93"/>
<polygon fill="#5d6972" stroke="#5d6972" stroke-width="1.2" points="524.55,-700.25 530.74,-696.18 523.36,-695.5 524.55,-700.25"/>
</g>
<!-- course__MATH204&#45;&gt;course__MATH377 -->
<g id="edge53" class="edge">
<title>course__MATH204&#45;&gt;course__MATH377</title>
<path fill="none" stroke="#5d6972" stroke-width="1.2" d="M434.62,-829.18C449.49,-838.89 466.03,-852.64 475,-869.71 494.79,-907.38 457.83,-1031.73 489,-1060.71 532.3,-1100.95 577.34,-1099.44 622,-1060.71 721.71,-974.22 584.67,-872.2 664,-766.71 668.72,-760.43 675.37,-755.7 682.43,-752.13"/>
<polygon fill="#5d6972" stroke="#5d6972" stroke-width="1.2" points="683.62,-754.29 689,-749.18 681.61,-749.82 683.62,-754.29"/>
</g>
<!-- course__MATH436 -->
<g id="node34" class="node">
<title>course__MATH436</title>
<g id="a_node34"><a xlink:href="../../../courses/MATH436.html" xlink:title="MATH436: Calculus on Manifolds" target="_top">
<path fill="#d7e9ef" stroke="#1f4f66" stroke-width="1.6" d="M740,-931.71C740,-931.71 701,-931.71 701,-931.71 695,-931.71 689,-925.71 689,-919.71 689,-919.71 689,-907.71 689,-907.71 689,-901.71 695,-895.71 701,-895.71 701,-895.71 740,-895.71 740,-895.71 746,-895.71 752,-901.71 752,-907.71 752,-907.71 752,-919.71 752,-919.71 752,-925.71 746,-931.71 740,-931.71"/>
<text text-anchor="middle" x="720.5" y="-911.21" font-family="Avenir Next" font-size="10.00" fill="#17232b">MATH436</text>
</a>
</g>
</g>
<!-- course__MATH204&#45;&gt;course__MATH436 -->
<g id="edge56" class="edge">
<title>course__MATH204&#45;&gt;course__MATH436</title>
<path fill="none" stroke="#5d6972" stroke-width="1.2" d="M434.68,-829.15C449.56,-838.85 466.1,-852.6 475,-869.71 486.05,-890.94 471.53,-1068.34 489,-1084.71 532.13,-1125.12 570.89,-1114.4 622,-1084.71 622.9,-1084.18 678.91,-985.41 705.62,-938.24"/>
<polygon fill="#5d6972" stroke="#5d6972" stroke-width="1.2" points="707.87,-939.24 709.18,-931.94 703.6,-936.82 707.87,-939.24"/>
</g>
<!-- course__MATH204&#45;&gt;course__PHYS215 -->
<g id="edge66" class="edge">
<title>course__MATH204&#45;&gt;course__PHYS215</title>
<path fill="none" stroke="#5d6972" stroke-width="1.2" d="M434.1,-830.88C448.27,-840.79 464.36,-854.19 475,-869.71 486.61,-886.63 474.57,-899.11 489,-913.71 498.67,-923.49 512.42,-929.29 525.34,-932.72"/>
<polygon fill="#5d6972" stroke="#5d6972" stroke-width="1.2" points="525.03,-935.17 532.41,-934.4 526.16,-930.4 525.03,-935.17"/>
</g>
<!-- course__MATH204&#45;&gt;course__PHYS217 -->
<g id="edge70" class="edge">
<title>course__MATH204&#45;&gt;course__PHYS217</title>
<path fill="none" stroke="#5d6972" stroke-width="1.2" d="M434.82,-829.95C449.35,-839.71 465.54,-853.26 475,-869.71 495.84,-905.94 462.06,-930.74 489,-962.71 492.1,-966.39 495.78,-969.5 499.81,-972.15"/>
<polygon fill="#5d6972" stroke="#5d6972" stroke-width="1.2" points="498.65,-974.31 505.93,-975.69 501.1,-970.06 498.65,-974.31"/>
</g>
<!-- course__MATH204&#45;&gt;course__PHYS325 -->
<g id="edge81" class="edge">
<title>course__MATH204&#45;&gt;course__PHYS325</title>
<path fill="none" stroke="#5d6972" stroke-width="1.2" d="M434.51,-809.86C448.96,-806.88 465.18,-800.84 475,-788.71 508.78,-746.97 455.34,-710.55 489,-668.71 497.88,-657.66 511.91,-651.48 525.28,-648.03"/>
<polygon fill="#5d6972" stroke="#5d6972" stroke-width="1.2" points="525.89,-650.4 532.17,-646.46 524.8,-645.62 525.89,-650.4"/>
</g>
<!-- course__PHYS321A -->
<g id="node40" class="node">
<title>course__PHYS321A</title>
<g id="a_node40"><a xlink:href="../../../courses/PHYS321A.html" xlink:title="PHYS321A: Classical Mechanics I" target="_top">
<path fill="#d7e9ef" stroke="#1f4f66" stroke-width="1.6" d="M584,-857.71C584,-857.71 541,-857.71 541,-857.71 535,-857.71 529,-851.71 529,-845.71 529,-845.71 529,-833.71 529,-833.71 529,-827.71 535,-821.71 541,-821.71 541,-821.71 584,-821.71 584,-821.71 590,-821.71 596,-827.71 596,-833.71 596,-833.71 596,-845.71 596,-845.71 596,-851.71 590,-857.71 584,-857.71"/>
<text text-anchor="middle" x="562.5" y="-837.21" font-family="Avenir Next" font-size="10.00" fill="#17232b">PHYS321A</text>
</a>
</g>
</g>
<!-- course__MATH204&#45;&gt;course__PHYS321A -->
<g id="edge72" class="edge">
<title>course__MATH204&#45;&gt;course__PHYS321A</title>
<path fill="none" stroke="#5d6972" stroke-width="1.2" d="M434.74,-817.98C459.64,-822.25 494.9,-828.29 521.91,-832.92"/>
<polygon fill="#5d6972" stroke="#5d6972" stroke-width="1.2" points="521.62,-835.36 528.94,-834.12 522.45,-830.53 521.62,-835.36"/>
</g>
<!-- course__PHYS326 -->
<g id="node42" class="node">
<title>course__PHYS326</title>
<g id="a_node42"><a xlink:href="../../../courses/PHYS326.html" xlink:title="PHYS326: Electricity and Magnetism" target="_top">
<path fill="#d7e9ef" stroke="#1f4f66" stroke-width="1.6" d="M580.5,-808.71C580.5,-808.71 544.5,-808.71 544.5,-808.71 538.5,-808.71 532.5,-802.71 532.5,-796.71 532.5,-796.71 532.5,-784.71 532.5,-784.71 532.5,-778.71 538.5,-772.71 544.5,-772.71 544.5,-772.71 580.5,-772.71 580.5,-772.71 586.5,-772.71 592.5,-778.71 592.5,-784.71 592.5,-784.71 592.5,-796.71 592.5,-796.71 592.5,-802.71 586.5,-808.71 580.5,-808.71"/>
<text text-anchor="middle" x="562.5" y="-788.21" font-family="Avenir Next" font-size="10.00" fill="#17232b">PHYS326</text>
</a>
</g>
</g>
<!-- course__MATH204&#45;&gt;course__PHYS326 -->
<g id="edge84" class="edge">
<title>course__MATH204&#45;&gt;course__PHYS326</title>
<path fill="none" stroke="#5d6972" stroke-width="1.2" d="M434.74,-808.41C460.71,-804.79 497.94,-799.59 525.34,-795.76"/>
<polygon fill="#5d6972" stroke="#5d6972" stroke-width="1.2" points="525.84,-798.16 532.43,-794.77 525.16,-793.31 525.84,-798.16"/>
</g>
<!-- course__MATH204&#45;&gt;course__EOS340 -->
<g id="edge16" class="edge">
<title>course__MATH204&#45;&gt;course__EOS340</title>
<path fill="none" stroke="#5d6972" stroke-width="1.2" d="M434.5,-828.81C449.53,-838.5 466.26,-852.34 475,-869.71 493.49,-906.46 464.28,-1206.82 489,-1239.71 492.98,-1245 498.16,-1249.14 503.93,-1252.38"/>
<polygon fill="#5d6972" stroke="#5d6972" stroke-width="1.2" points="503.03,-1254.66 510.39,-1255.55 505.19,-1250.27 503.03,-1254.66"/>
</g>
<!-- course__MATH204&#45;&gt;course__EOS431 -->
<g id="edge21" class="edge">
<title>course__MATH204&#45;&gt;course__EOS431</title>
<path fill="none" stroke="#5d6972" stroke-width="1.2" d="M434.83,-829.07C449.75,-838.75 466.28,-852.5 475,-869.71 491.14,-901.55 467.47,-1162.23 489,-1190.71 492.99,-1195.99 498.19,-1200.12 503.96,-1203.36"/>
<polygon fill="#5d6972" stroke="#5d6972" stroke-width="1.2" points="503.06,-1205.64 510.43,-1206.52 505.22,-1201.24 503.06,-1205.64"/>
</g>
<!-- course__MATH204&#45;&gt;choice_MATH342_0_1 -->
<g id="edge38" class="edge">
<title>course__MATH204&#45;&gt;choice_MATH342_0_1</title>
<path fill="none" stroke="#7a8389" d="M371.48,-809.1C354.39,-805.35 334.64,-797.73 324,-782.21 307.91,-758.75 309.65,-550.76 324,-526.21 333.82,-509.41 352.57,-498.46 369.34,-491.63"/>
<polygon fill="#7a8389" stroke="#7a8389" points="370.23,-493.91 375.89,-489.12 368.47,-489.33 370.23,-493.91"/>
</g>
<!-- course__MATH348 -->
<g id="node30" class="node">
<title>course__MATH348</title>
<g id="a_node30"><a xlink:href="../../../courses/MATH348.html" xlink:title="MATH348: Numerical Methods" target="_top">
<path fill="#d7e9ef" stroke="#1f4f66" stroke-width="1.6" d="M582,-514.71C582,-514.71 543,-514.71 543,-514.71 537,-514.71 531,-508.71 531,-502.71 531,-502.71 531,-490.71 531,-490.71 531,-484.71 537,-478.71 543,-478.71 543,-478.71 582,-478.71 582,-478.71 588,-478.71 594,-484.71 594,-490.71 594,-490.71 594,-502.71 594,-502.71 594,-508.71 588,-514.71 582,-514.71"/>
<text text-anchor="middle" x="562.5" y="-494.21" font-family="Avenir Next" font-size="10.00" fill="#17232b">MATH348</text>
</a>
</g>
</g>
<!-- course__MATH248&#45;&gt;course__MATH348 -->
<g id="edge45" class="edge">
<title>course__MATH248&#45;&gt;course__MATH348</title>
<path fill="none" stroke="#5d6972" stroke-width="1.2" d="M461.26,-751.54C466.53,-748.44 471.28,-744.56 475,-739.71 504.55,-701.19 459.57,-560.31 489,-521.71 497.31,-510.81 510.66,-504.63 523.65,-501.14"/>
<polygon fill="#5d6972" stroke="#5d6972" stroke-width="1.2" points="524.54,-503.45 530.8,-499.47 523.42,-498.68 524.54,-503.45"/>
</g>
<!-- course__MATH248&#45;&gt;course__PHYS321A -->
<g id="edge73" class="edge">
<title>course__MATH248&#45;&gt;course__PHYS321A</title>
<path fill="none" stroke="#5d6972" stroke-width="1.2" d="M461.21,-779.36C466.16,-782.01 470.86,-785.11 475,-788.71 485.2,-797.57 478.71,-806.94 489,-815.71 498.36,-823.69 510.46,-829.04 522.08,-832.61"/>
<polygon fill="#5d6972" stroke="#5d6972" stroke-width="1.2" points="521.45,-834.98 528.85,-834.52 522.78,-830.26 521.45,-834.98"/>
</g>
<!-- course__PHYS323 -->
<g id="node41" class="node">
<title>course__PHYS323</title>
<g id="a_node41"><a xlink:href="../../../courses/PHYS323.html" xlink:title="PHYS323: Quantum Mechanics I" target="_top">
<path fill="#d7e9ef" stroke="#1f4f66" stroke-width="1.6" d="M738.5,-1053.71C738.5,-1053.71 702.5,-1053.71 702.5,-1053.71 696.5,-1053.71 690.5,-1047.71 690.5,-1041.71 690.5,-1041.71 690.5,-1029.71 690.5,-1029.71 690.5,-1023.71 696.5,-1017.71 702.5,-1017.71 702.5,-1017.71 738.5,-1017.71 738.5,-1017.71 744.5,-1017.71 750.5,-1023.71 750.5,-1029.71 750.5,-1029.71 750.5,-1041.71 750.5,-1041.71 750.5,-1047.71 744.5,-1053.71 738.5,-1053.71"/>
<text text-anchor="middle" x="720.5" y="-1033.21" font-family="Avenir Next" font-size="10.00" fill="#17232b">PHYS323</text>
</a>
</g>
</g>
<!-- course__MATH248&#45;&gt;course__PHYS323 -->
<g id="edge78" class="edge">
<title>course__MATH248&#45;&gt;course__PHYS323</title>
<path fill="none" stroke="#5d6972" stroke-width="1.2" d="M461.01,-776.45C466.4,-779.66 471.24,-783.68 475,-788.71 493.12,-812.95 467.06,-1039.87 489,-1060.71 541.23,-1110.32 633.08,-1078.35 683.63,-1054.61"/>
<polygon fill="#5d6972" stroke="#5d6972" stroke-width="1.2" points="684.93,-1056.71 690.19,-1051.47 682.81,-1052.29 684.93,-1056.71"/>
</g>
<!-- course__MATH248&#45;&gt;course__PHYS326 -->
<g id="edge85" class="edge">
<title>course__MATH248&#45;&gt;course__PHYS326</title>
<path fill="none" stroke="#5d6972" stroke-width="1.2" d="M461.31,-773.53C482.68,-777.19 506.33,-781.25 525.28,-784.5"/>
<polygon fill="#5d6972" stroke="#5d6972" stroke-width="1.2" points="524.99,-786.93 532.3,-785.7 525.82,-782.1 524.99,-786.93"/>
</g>
<!-- course__PHYS216&#45;&gt;course__PHYS325 -->
<g id="edge80" class="edge">
<title>course__PHYS216&#45;&gt;course__PHYS325</title>
<path fill="none" stroke="#5d6972" stroke-width="1.2" d="M433.12,-709.56C446.89,-706.02 462.92,-700.18 475,-690.71 484.12,-683.56 479.9,-675.89 489,-668.71 499.58,-660.36 513.14,-654.7 525.65,-650.91"/>
<polygon fill="#5d6972" stroke="#5d6972" stroke-width="1.2" points="526.4,-653.25 532.48,-649 525.07,-648.53 526.4,-653.25"/>
</g>
<!-- course__PHYS216&#45;&gt;course__PHYS326 -->
<g id="edge83" class="edge">
<title>course__PHYS216&#45;&gt;course__PHYS326</title>
<path fill="none" stroke="#5d6972" stroke-width="1.2" d="M433.15,-719.76C447.1,-723.39 463.26,-729.51 475,-739.71 485.2,-748.57 478.71,-757.94 489,-766.71 499.3,-775.49 512.92,-781.08 525.56,-784.64"/>
<polygon fill="#5d6972" stroke="#5d6972" stroke-width="1.2" points="525.07,-787.04 532.46,-786.41 526.29,-782.29 525.07,-787.04"/>
</g>
<!-- course__EOS480 -->
<g id="node20" class="node">
<title>course__EOS480</title>
<g id="a_node20"><a xlink:href="../../../courses/EOS480.html" xlink:title="EOS480: Applied Geophysics" target="_top">
<path fill="#d7e9ef" stroke="#1f4f66" stroke-width="1.6" d="M577.5,-1053.71C577.5,-1053.71 547.5,-1053.71 547.5,-1053.71 541.5,-1053.71 535.5,-1047.71 535.5,-1041.71 535.5,-1041.71 535.5,-1029.71 535.5,-1029.71 535.5,-1023.71 541.5,-1017.71 547.5,-1017.71 547.5,-1017.71 577.5,-1017.71 577.5,-1017.71 583.5,-1017.71 589.5,-1023.71 589.5,-1029.71 589.5,-1029.71 589.5,-1041.71 589.5,-1041.71 589.5,-1047.71 583.5,-1053.71 577.5,-1053.71"/>
<text text-anchor="middle" x="562.5" y="-1033.21" font-family="Avenir Next" font-size="10.00" fill="#17232b">EOS480</text>
</a>
</g>
</g>
<!-- course__MATH311&#45;&gt;course__MATH436 -->
<g id="edge55" class="edge">
<title>course__MATH311&#45;&gt;course__MATH436</title>
<path fill="none" stroke="#5d6972" stroke-width="1.2" d="M594.26,-391.58C604.64,-395.11 615.29,-400.74 622,-409.71 676.33,-482.34 636.4,-729.3 664,-815.71 672.61,-842.65 689.21,-870.43 702.02,-889.5"/>
<polygon fill="#5d6972" stroke="#5d6972" stroke-width="1.2" points="700.23,-891.23 706.2,-895.63 704.27,-888.46 700.23,-891.23"/>
</g>
<!-- course__STAT254&#45;&gt;course__MATH352 -->
<g id="edge49" class="edge">
<title>course__STAT254&#45;&gt;course__MATH352</title>
<path fill="none" stroke="#5d6972" stroke-width="1.2" d="M605.68,-730.89C611.96,-727.59 617.75,-723.3 622,-717.71 669.44,-655.37 647.61,-444.31 664,-367.71 675.92,-312 697.68,-248.77 710.12,-214.68"/>
<polygon fill="#5d6972" stroke="#5d6972" stroke-width="1.2" points="712.51,-215.28 712.62,-207.86 707.91,-213.59 712.51,-215.28"/>
</g>
<!-- course__STAT254&#45;&gt;course__MATH377 -->
<g id="edge54" class="edge">
<title>course__STAT254&#45;&gt;course__MATH377</title>
<path fill="none" stroke="#5d6972" stroke-width="1.2" d="M605.72,-741.71C629.33,-741.71 658.53,-741.71 681.43,-741.71"/>
<polygon fill="#5d6972" stroke="#5d6972" stroke-width="1.2" points="681.63,-744.16 688.63,-741.71 681.63,-739.26 681.63,-744.16"/>
</g>
<!-- choice_MATH442_0_0_1 -->
<g id="node54" class="node">
<title>choice_MATH442_0_0_1</title>
<path fill="#fff7ee" stroke="#b7793f" stroke-width="1.1" d="M735.5,-143.71C735.5,-143.71 705.5,-143.71 705.5,-143.71 699.5,-143.71 693.5,-137.71 693.5,-131.71 693.5,-131.71 693.5,-119.71 693.5,-119.71 693.5,-113.71 699.5,-107.71 705.5,-107.71 705.5,-107.71 735.5,-107.71 735.5,-107.71 741.5,-107.71 747.5,-113.71 747.5,-119.71 747.5,-119.71 747.5,-131.71 747.5,-131.71 747.5,-137.71 741.5,-143.71 735.5,-143.71"/>
<text text-anchor="middle" x="720.5" y="-123.51" font-family="Avenir Next" font-size="9.00">1 of</text>
</g>
<!-- course__MATH341&#45;&gt;choice_MATH442_0_0_1 -->
<g id="edge57" class="edge">
<title>course__MATH341&#45;&gt;choice_MATH442_0_0_1</title>
<path fill="none" stroke="#7a8389" d="M594.15,-229.9C603.7,-226.21 613.86,-221.22 622,-214.71 647.42,-194.37 639.55,-176.19 664,-154.71 670.7,-148.82 678.8,-143.73 686.73,-139.53"/>
<polygon fill="#7a8389" stroke="#7a8389" points="688.16,-141.55 693.3,-136.21 685.95,-137.18 688.16,-141.55"/>
</g>
<!-- course__MATH342&#45;&gt;choice_MATH442_0_0_1 -->
<g id="edge58" class="edge">
<title>course__MATH342&#45;&gt;choice_MATH442_0_0_1</title>
<path fill="none" stroke="#7a8389" d="M594.32,-177.06C621.01,-166.11 659.49,-150.32 686.73,-139.15"/>
<polygon fill="#7a8389" stroke="#7a8389" points="687.86,-141.34 693.4,-136.41 686,-136.8 687.86,-141.34"/>
</g>
<!-- choice_PHYS321A_1 -->
<g id="node55" class="node">
<title>choice_PHYS321A_1</title>
<path fill="#fff7ee" stroke="#b7793f" stroke-width="1.1" d="M577.5,-1183.71C577.5,-1183.71 547.5,-1183.71 547.5,-1183.71 541.5,-1183.71 535.5,-1177.71 535.5,-1171.71 535.5,-1171.71 535.5,-1159.71 535.5,-1159.71 535.5,-1153.71 541.5,-1147.71 547.5,-1147.71 547.5,-1147.71 577.5,-1147.71 577.5,-1147.71 583.5,-1147.71 589.5,-1153.71 589.5,-1159.71 589.5,-1159.71 589.5,-1171.71 589.5,-1171.71 589.5,-1177.71 583.5,-1183.71 577.5,-1183.71"/>
<text text-anchor="middle" x="562.5" y="-1163.51" font-family="Avenir Next" font-size="9.00">1 of</text>
</g>
<!-- course__MATH342&#45;&gt;choice_PHYS321A_1 -->
<g id="edge74" class="edge">
<title>course__MATH342&#45;&gt;choice_PHYS321A_1</title>
<path fill="none" stroke="#7a8389" d="M530.98,-191.72C512.04,-194.89 490.1,-202.64 482,-221.21 476.95,-232.79 476.95,-1119.62 482,-1131.21 489.78,-1149.05 509.91,-1157.67 528.09,-1161.84"/>
<polygon fill="#7a8389" stroke="#7a8389" points="527.85,-1164.29 535.19,-1163.27 528.82,-1159.49 527.85,-1164.29"/>
</g>
<!-- course__EOS427 -->
<g id="node43" class="node">
<title>course__EOS427</title>
<g id="a_node43"><a xlink:href="../../../courses/EOS427.html" xlink:title="Equivalent or cross&#45;listed: EOS427: Geophysics | PHYS427: Geophysics" target="_top">
<path fill="#d7e9ef" stroke="#1f4f66" stroke-width="1.6" d="M762,-808.71C762,-808.71 679,-808.71 679,-808.71 673,-808.71 667,-802.71 667,-796.71 667,-796.71 667,-784.71 667,-784.71 667,-778.71 673,-772.71 679,-772.71 679,-772.71 762,-772.71 762,-772.71 768,-772.71 774,-778.71 774,-784.71 774,-784.71 774,-796.71 774,-796.71 774,-802.71 768,-808.71 762,-808.71"/>
<text text-anchor="middle" x="720.5" y="-788.21" font-family="Avenir Next" font-size="10.00" fill="#17232b">EOS427 / PHYS427</text>
</a>
</g>
</g>
<!-- course__MATH346&#45;&gt;course__EOS427 -->
<g id="edge20" class="edge">
<title>course__MATH346&#45;&gt;course__EOS427</title>
<path fill="none" stroke="#5d6972" stroke-width="1.2" d="M594.28,-343.12C604.67,-346.83 615.32,-352.64 622,-361.71 729.36,-507.38 556.95,-620.8 664,-766.71 664.09,-766.83 664.19,-766.96 664.28,-767.09"/>
<polygon fill="#5d6972" stroke="#5d6972" stroke-width="1.2" points="662.52,-768.79 669.04,-772.31 666.14,-765.48 662.52,-768.79"/>
</g>
<!-- course__PHYS411 -->
<g id="node44" class="node">
<title>course__PHYS411</title>
<g id="a_node44"><a xlink:href="../../../courses/PHYS411.html" xlink:title="PHYS411: Time Series Analysis" target="_top">
<path fill="#d7e9ef" stroke="#1f4f66" stroke-width="1.6" d="M738.5,-409.71C738.5,-409.71 702.5,-409.71 702.5,-409.71 696.5,-409.71 690.5,-403.71 690.5,-397.71 690.5,-397.71 690.5,-385.71 690.5,-385.71 690.5,-379.71 696.5,-373.71 702.5,-373.71 702.5,-373.71 738.5,-373.71 738.5,-373.71 744.5,-373.71 750.5,-379.71 750.5,-385.71 750.5,-385.71 750.5,-397.71 750.5,-397.71 750.5,-403.71 744.5,-409.71 738.5,-409.71"/>
<text text-anchor="middle" x="720.5" y="-389.21" font-family="Avenir Next" font-size="10.00" fill="#17232b">PHYS411</text>
</a>
</g>
</g>
<!-- course__MATH346&#45;&gt;course__PHYS411 -->
<g id="edge93" class="edge">
<title>course__MATH346&#45;&gt;course__PHYS411</title>
<path fill="none" stroke="#5d6972" stroke-width="1.2" d="M594.32,-347.57C620.02,-356.64 656.68,-369.56 683.68,-379.08"/>
<polygon fill="#5d6972" stroke="#5d6972" stroke-width="1.2" points="682.91,-381.4 690.33,-381.42 684.54,-376.78 682.91,-381.4"/>
</g>
<!-- course__MATH346&#45;&gt;choice_PHYS321A_1 -->
<g id="edge75" class="edge">
<title>course__MATH346&#45;&gt;choice_PHYS321A_1</title>
<path fill="none" stroke="#7a8389" d="M530.98,-338.72C512.04,-341.89 490.1,-349.64 482,-368.21 473.53,-387.63 473.53,-1111.78 482,-1131.21 489.78,-1149.05 509.91,-1157.67 528.09,-1161.84"/>
<polygon fill="#7a8389" stroke="#7a8389" points="527.85,-1164.29 535.19,-1163.27 528.82,-1159.49 527.85,-1164.29"/>
</g>
<!-- course__MATH449 -->
<g id="node39" class="node">
<title>course__MATH449</title>
<g id="a_node39"><a xlink:href="../../../courses/MATH449.html" xlink:title="MATH449: Scientific Computing" target="_top">
<path fill="#d7e9ef" stroke="#1f4f66" stroke-width="1.6" d="M740,-514.71C740,-514.71 701,-514.71 701,-514.71 695,-514.71 689,-508.71 689,-502.71 689,-502.71 689,-490.71 689,-490.71 689,-484.71 695,-478.71 701,-478.71 701,-478.71 740,-478.71 740,-478.71 746,-478.71 752,-484.71 752,-490.71 752,-490.71 752,-502.71 752,-502.71 752,-508.71 746,-514.71 740,-514.71"/>
<text text-anchor="middle" x="720.5" y="-494.21" font-family="Avenir Next" font-size="10.00" fill="#17232b">MATH449</text>
</a>
</g>
</g>
<!-- course__MATH348&#45;&gt;course__MATH449 -->
<g id="edge60" class="edge">
<title>course__MATH348&#45;&gt;course__MATH449</title>
<path fill="none" stroke="#5d6972" stroke-width="1.2" d="M594.32,-496.71C619.32,-496.71 654.67,-496.71 681.44,-496.71"/>
<polygon fill="#5d6972" stroke="#5d6972" stroke-width="1.2" points="681.74,-499.16 688.74,-496.71 681.74,-494.26 681.74,-499.16"/>
</g>
<!-- course__PHYS215&#45;&gt;course__PHYS323 -->
<g id="edge77" class="edge">
<title>course__PHYS215&#45;&gt;course__PHYS323</title>
<path fill="none" stroke="#5d6972" stroke-width="1.2" d="M592.73,-948.59C602.29,-952.57 612.82,-957.41 622,-962.71 647.4,-977.36 673.88,-997.55 692.83,-1012.99"/>
<polygon fill="#5d6972" stroke="#5d6972" stroke-width="1.2" points="691.5,-1015.06 698.46,-1017.62 694.61,-1011.28 691.5,-1015.06"/>
</g>
<!-- course__MATH442 -->
<g id="node38" class="node">
<title>course__MATH442</title>
<g id="a_node38"><a xlink:href="../../../courses/MATH442.html" xlink:title="MATH442: Advanced Ordinary Differential Equations" target="_top">
<path fill="#d7e9ef" stroke="#1f4f66" stroke-width="1.6" d="M582,-305.71C582,-305.71 543,-305.71 543,-305.71 537,-305.71 531,-299.71 531,-293.71 531,-293.71 531,-281.71 531,-281.71 531,-275.71 537,-269.71 543,-269.71 543,-269.71 582,-269.71 582,-269.71 588,-269.71 594,-275.71 594,-281.71 594,-281.71 594,-293.71 594,-293.71 594,-299.71 588,-305.71 582,-305.71"/>
<text text-anchor="middle" x="562.5" y="-285.21" font-family="Avenir Next" font-size="10.00" fill="#17232b">MATH442</text>
</a>
</g>
</g>
<!-- course__PHYS321A&#45;&gt;course__EOS427 -->
<g id="edge18" class="edge">
<title>course__PHYS321A&#45;&gt;course__EOS427</title>
<path fill="none" stroke="#5d6972" stroke-width="1.2" d="M596.2,-829.43C614.66,-823.64 638.31,-816.21 659.94,-809.41"/>
<polygon fill="#5d6972" stroke="#5d6972" stroke-width="1.2" points="660.94,-811.67 666.89,-807.23 659.47,-806.99 660.94,-811.67"/>
</g>
<!-- choice_PHYS411_0_0 -->
<g id="node56" class="node">
<title>choice_PHYS411_0_0</title>
<path fill="#fff7ee" stroke="#b7793f" stroke-width="1.1" d="M735.5,-1137.71C735.5,-1137.71 705.5,-1137.71 705.5,-1137.71 699.5,-1137.71 693.5,-1131.71 693.5,-1125.71 693.5,-1125.71 693.5,-1113.71 693.5,-1113.71 693.5,-1107.71 699.5,-1101.71 705.5,-1101.71 705.5,-1101.71 735.5,-1101.71 735.5,-1101.71 741.5,-1101.71 747.5,-1107.71 747.5,-1113.71 747.5,-1113.71 747.5,-1125.71 747.5,-1125.71 747.5,-1131.71 741.5,-1137.71 735.5,-1137.71"/>
<text text-anchor="middle" x="720.5" y="-1117.51" font-family="Avenir Next" font-size="9.00">2 of</text>
</g>
<!-- course__PHYS321A&#45;&gt;choice_PHYS411_0_0 -->
<g id="edge89" class="edge">
<title>course__PHYS321A&#45;&gt;choice_PHYS411_0_0</title>
<path fill="none" stroke="#7a8389" d="M596.03,-847.22C605.69,-850.96 615.44,-856.52 622,-864.71 685.87,-944.45 603.27,-1008.55 664,-1090.71 669.77,-1098.51 678.26,-1104.4 686.87,-1108.76"/>
<polygon fill="#7a8389" stroke="#7a8389" points="686.06,-1111.08 693.44,-1111.8 688.12,-1106.63 686.06,-1111.08"/>
</g>
<!-- course__PHYS323&#45;&gt;choice_PHYS411_0_0 -->
<g id="edge90" class="edge">
<title>course__PHYS323&#45;&gt;choice_PHYS411_0_0</title>
<path fill="none" stroke="#7a8389" d="M720.5,-1053.75C720.5,-1067.36 720.5,-1080.96 720.5,-1094.56"/>
<polygon fill="#7a8389" stroke="#7a8389" points="718.05,-1094.67 720.5,-1101.67 722.95,-1094.67 718.05,-1094.67"/>
</g>
<!-- course__PHYS326&#45;&gt;course__EOS427 -->
<g id="edge19" class="edge">
<title>course__PHYS326&#45;&gt;course__EOS427</title>
<path fill="none" stroke="#5d6972" stroke-width="1.2" d="M592.84,-790.71C611.72,-790.71 636.93,-790.71 659.88,-790.71"/>
<polygon fill="#5d6972" stroke="#5d6972" stroke-width="1.2" points="659.92,-793.16 666.92,-790.71 659.92,-788.26 659.92,-793.16"/>
</g>
<!-- course__PHYS326&#45;&gt;choice_PHYS411_0_0 -->
<g id="edge91" class="edge">
<title>course__PHYS326&#45;&gt;choice_PHYS411_0_0</title>
<path fill="none" stroke="#7a8389" d="M592.53,-796.76C603.35,-800.47 614.76,-806.37 622,-815.71 697.73,-913.44 592.12,-990.11 664,-1090.71 669.64,-1098.6 678.09,-1104.52 686.71,-1108.87"/>
<polygon fill="#7a8389" stroke="#7a8389" points="685.91,-1111.2 693.29,-1111.91 687.96,-1106.75 685.91,-1111.2"/>
</g>
<!-- course__CHEM091 -->
<g id="node45" class="node">
<title>course__CHEM091</title>
<g id="a_node45"><a xlink:href="../../../courses/CHEM091.html" xlink:title="CHEM091: Introduction to Chemistry" target="_top">
<path fill="#f9f9f9" stroke="#363636" d="M581,-1330.71C581,-1330.71 544,-1330.71 544,-1330.71 538,-1330.71 532,-1324.71 532,-1318.71 532,-1318.71 532,-1306.71 532,-1306.71 532,-1300.71 538,-1294.71 544,-1294.71 544,-1294.71 581,-1294.71 581,-1294.71 587,-1294.71 593,-1300.71 593,-1306.71 593,-1306.71 593,-1318.71 593,-1318.71 593,-1324.71 587,-1330.71 581,-1330.71"/>
<text text-anchor="middle" x="562.5" y="-1310.51" font-family="Avenir Next" font-size="9.00" fill="#363636">CHEM091</text>
</a>
</g>
</g>
<!-- course__CHEM091&#45;&gt;course__CHEM102 -->
<g id="edge3" class="edge">
<title>course__CHEM091&#45;&gt;course__CHEM102</title>
<path fill="none" stroke="#5d6972" stroke-width="1.2" d="M531.73,-1305.88C518.14,-1302.02 502.17,-1296.39 489,-1288.71 393.56,-1232.99 303.23,-1135.32 264.42,-1090.46"/>
<polygon fill="#5d6972" stroke="#5d6972" stroke-width="1.2" points="266.15,-1088.71 259.73,-1085 262.43,-1091.9 266.15,-1088.71"/>
</g>
<!-- course__MATH151 -->
<g id="node46" class="node">
<title>course__MATH151</title>
<g id="a_node46"><a xlink:href="../../../courses/MATH151.html" xlink:title="MATH151: Finite Mathematics" target="_top">
<path fill="#f9f9f9" stroke="#363636" d="M580,-104.71C580,-104.71 545,-104.71 545,-104.71 539,-104.71 533,-98.71 533,-92.71 533,-92.71 533,-80.71 533,-80.71 533,-74.71 539,-68.71 545,-68.71 545,-68.71 580,-68.71 580,-68.71 586,-68.71 592,-74.71 592,-80.71 592,-80.71 592,-92.71 592,-92.71 592,-98.71 586,-104.71 580,-104.71"/>
<text text-anchor="middle" x="562.5" y="-84.51" font-family="Avenir Next" font-size="9.00" fill="#363636">MATH151</text>
</a>
</g>
</g>
<!-- course__MATH151&#45;&gt;course__MATH352 -->
<g id="edge47" class="edge">
<title>course__MATH151&#45;&gt;course__MATH352</title>
<path fill="none" stroke="#5d6972" stroke-width="1.2" d="M592.28,-98.65C602.02,-103.17 612.76,-108.68 622,-114.71 642.6,-128.13 644.59,-135.62 664,-150.71 671.12,-156.24 678.94,-161.95 686.42,-167.24"/>
<polygon fill="#5d6972" stroke="#5d6972" stroke-width="1.2" points="685.45,-169.55 692.59,-171.57 688.26,-165.54 685.45,-169.55"/>
</g>
<!-- course__MATH151&#45;&gt;choice_MATH211_0 -->
<g id="edge27" class="edge">
<title>course__MATH151&#45;&gt;choice_MATH211_0</title>
<path fill="none" stroke="#7a8389" d="M592.11,-79.74C618.79,-73.24 658.56,-63.55 686.56,-56.73"/>
<polygon fill="#7a8389" stroke="#7a8389" points="687.18,-59.1 693.4,-55.06 686.02,-54.34 687.18,-59.1"/>
</g>
<!-- course__EOS340&#45;&gt;choice_PHYS411_0_0 -->
<g id="edge87" class="edge">
<title>course__EOS340&#45;&gt;choice_PHYS411_0_0</title>
<path fill="none" stroke="#7a8389" d="M613.01,-1245.55C616.15,-1243.75 619.18,-1241.8 622,-1239.71 657.71,-1213.18 688.04,-1170.71 705,-1144.06"/>
<polygon fill="#7a8389" stroke="#7a8389" points="707.17,-1145.2 708.81,-1137.97 703.02,-1142.6 707.17,-1145.2"/>
</g>
<!-- course__EOS431&#45;&gt;choice_PHYS411_0_0 -->
<g id="edge88" class="edge">
<title>course__EOS431&#45;&gt;choice_PHYS411_0_0</title>
<path fill="none" stroke="#7a8389" d="M610.59,-1196.56C614.51,-1194.7 618.36,-1192.74 622,-1190.71 647.02,-1176.73 673.15,-1157.41 692.05,-1142.45"/>
<polygon fill="#7a8389" stroke="#7a8389" points="693.74,-1144.24 697.68,-1137.96 690.68,-1140.41 693.74,-1144.24"/>
</g>
<!-- year_band__year&#45;1 -->
<!-- year_band__year&#45;2 -->
<!-- year_band__year&#45;1&#45;&gt;year_band__year&#45;2 -->
<!-- year_band__years&#45;3&#45;4 -->
<!-- year_band__year&#45;2&#45;&gt;year_band__years&#45;3&#45;4 -->
<!-- choice_MATH211_0&#45;&gt;course__MATH211 -->
<g id="edge28" class="edge">
<title>choice_MATH211_0&#45;&gt;course__MATH211</title>
<path fill="none" stroke="#5d6972" stroke-width="1.2" d="M693.46,-43.88C624.22,-32.73 434.76,-13.49 345,-116.71 289.96,-180 256.48,-445.94 247.17,-529.48"/>
<polygon fill="#5d6972" stroke="#5d6972" stroke-width="1.2" points="244.73,-529.31 246.39,-536.54 249.6,-529.85 244.73,-529.31"/>
</g>
<!-- choice_MATH342_0_1&#45;&gt;course__MATH342 -->
<g id="edge40" class="edge">
<title>choice_MATH342_0_1&#45;&gt;course__MATH342</title>
<path fill="none" stroke="#5d6972" stroke-width="1.2" d="M409.62,-463.3C427.85,-403.67 484.44,-219.37 489,-214.71 498.34,-205.14 511.51,-199.23 524.06,-195.59"/>
<polygon fill="#5d6972" stroke="#5d6972" stroke-width="1.2" points="524.79,-197.93 530.94,-193.78 523.55,-193.19 524.79,-197.93"/>
</g>
<!-- choice_MATH342_0_1&#45;&gt;course__MATH346 -->
<g id="edge42" class="edge">
<title>choice_MATH342_0_1&#45;&gt;course__MATH346</title>
<path fill="none" stroke="#5d6972" stroke-width="1.2" d="M412.3,-463.55C425.15,-437.4 452.23,-389.27 489,-361.71 499.24,-354.03 512.01,-348.59 523.97,-344.8"/>
<polygon fill="#5d6972" stroke="#5d6972" stroke-width="1.2" points="524.88,-347.08 530.9,-342.75 523.49,-342.39 524.88,-347.08"/>
</g>
<!-- choice_MATH342_0_1&#45;&gt;course__MATH348 -->
<g id="edge46" class="edge">
<title>choice_MATH342_0_1&#45;&gt;course__MATH348</title>
<path fill="none" stroke="#5d6972" stroke-width="1.2" d="M430.01,-484.18C455.54,-486.62 494.76,-490.35 523.73,-493.11"/>
<polygon fill="#5d6972" stroke="#5d6972" stroke-width="1.2" points="523.66,-495.56 530.86,-493.79 524.12,-490.69 523.66,-495.56"/>
</g>
<!-- choice_MATH442_0_0_1&#45;&gt;course__MATH442 -->
<g id="edge59" class="edge">
<title>choice_MATH442_0_0_1&#45;&gt;course__MATH442</title>
<path fill="none" stroke="#5d6972" stroke-width="1.2" d="M693.42,-134.67C683.12,-139.3 671.89,-145.87 664,-154.71 629.44,-193.44 658.31,-226.6 622,-263.71 616.12,-269.71 608.53,-274.27 600.77,-277.72"/>
<polygon fill="#5d6972" stroke="#5d6972" stroke-width="1.2" points="599.82,-275.46 594.25,-280.35 601.65,-280 599.82,-275.46"/>
</g>
<!-- choice_PHYS321A_1&#45;&gt;course__PHYS321A -->
<g id="edge76" class="edge">
<title>choice_PHYS321A_1&#45;&gt;course__PHYS321A</title>
<path fill="none" stroke="#5d6972" stroke-width="1.2" d="M535.19,-1163.27C515.47,-1159.8 490.81,-1151.42 482,-1131.21 476.23,-1117.97 476.23,-884.45 482,-871.21 488.82,-855.56 505.48,-847.6 521.88,-843.58"/>
<polygon fill="#5d6972" stroke="#5d6972" stroke-width="1.2" points="522.53,-845.95 528.86,-842.09 521.5,-841.16 522.53,-845.95"/>
</g>
<!-- choice_PHYS321A_1&#45;&gt;course__PHYS323 -->
<g id="edge79" class="edge">
<title>choice_PHYS321A_1&#45;&gt;course__PHYS323</title>
<path fill="none" stroke="#5d6972" stroke-width="1.2" d="M589.68,-1155.61C600.2,-1150.94 612.15,-1144.84 622,-1137.71 630.55,-1131.51 671.85,-1087.35 697.88,-1059.2"/>
<polygon fill="#5d6972" stroke="#5d6972" stroke-width="1.2" points="699.92,-1060.61 702.87,-1053.8 696.32,-1057.28 699.92,-1060.61"/>
</g>
<!-- choice_PHYS321A_1&#45;&gt;course__PHYS326 -->
<g id="edge86" class="edge">
<title>choice_PHYS321A_1&#45;&gt;course__PHYS326</title>
<path fill="none" stroke="#5d6972" stroke-width="1.2" d="M535.19,-1163.27C515.47,-1159.8 490.81,-1151.42 482,-1131.21 475.14,-1115.47 475.14,-837.94 482,-822.21 489.24,-805.6 507.56,-797.65 524.9,-793.88"/>
<polygon fill="#5d6972" stroke="#5d6972" stroke-width="1.2" points="525.8,-796.21 532.23,-792.51 524.9,-791.39 525.8,-796.21"/>
</g>
<!-- choice_PHYS411_0_0&#45;&gt;course__PHYS411 -->
<g id="edge92" class="edge">
<title>choice_PHYS411_0_0&#45;&gt;course__PHYS411</title>
<path fill="none" stroke="#5d6972" stroke-width="1.2" d="M693.31,-1114.99C675.69,-1110.37 654.03,-1101.39 643,-1084.21 624.84,-1055.92 631.08,-510.63 643,-479.21 652.72,-453.59 673.74,-430.65 691.45,-414.69"/>
<polygon fill="#5d6972" stroke="#5d6972" stroke-width="1.2" points="693.18,-416.43 696.82,-409.97 689.94,-412.75 693.18,-416.43"/>
</g>
</g>
</svg>
