<?xml version="1.0" encoding="UTF-8" standalone="no"?>
<!DOCTYPE svg PUBLIC "-//W3C//DTD SVG 1.1//EN"
 "http://www.w3.org/Graphics/SVG/1.1/DTD/svg11.dtd">
<!-- Generated by graphviz version 2.43.0 (0)
 -->
<!-- Title: BSC&#45;CSSC Pages: 1 -->
<svg width="1490pt" height="924pt"
 viewBox="0.00 0.00 1490.04 924.30" xmlns="http://www.w3.org/2000/svg" xmlns:xlink="http://www.w3.org/1999/xlink">
<g id="graph0" class="graph" transform="scale(1 1) rotate(0) translate(11.52 912.78)">
<title>BSC&#45;CSSC</title>
<!-- course__CHEM091 -->
<g id="node1" class="node">
<title>course__CHEM091</title>
<g id="a_node1"><a xlink:href="../../../courses/CHEM091.html" xlink:title="CHEM091: Introduction to Chemistry" target="_top">
<path fill="#d7e9ef" stroke="#1f4f66" stroke-width="1.6" d="M80,-604.26C80,-604.26 40,-604.26 40,-604.26 34,-604.26 28,-598.26 28,-592.26 28,-592.26 28,-580.26 28,-580.26 28,-574.26 34,-568.26 40,-568.26 40,-568.26 80,-568.26 80,-568.26 86,-568.26 92,-574.26 92,-580.26 92,-580.26 92,-592.26 92,-592.26 92,-598.26 86,-604.26 80,-604.26"/>
<text text-anchor="middle" x="60" y="-583.76" font-family="Avenir Next" font-size="10.00" fill="#17232b">CHEM091</text>
</a>
</g>
</g>
<!-- course__CHEM102 -->
<g id="node9" class="node">
<title>course__CHEM102</title>
<g id="a_node9"><a xlink:href="../../../courses/CHEM102.html" xlink:title="CHEM102: Chemical Reactivity Fundamentals with Environmental Applications" target="_top">
<path fill="#d7e9ef" stroke="#1f4f66" stroke-width="1.6" d="M235.5,-604.26C235.5,-604.26 195.5,-604.26 195.5,-604.26 189.5,-604.26 183.5,-598.26 183.5,-592.26 183.5,-592.26 183.5,-580.26 183.5,-580.26 183.5,-574.26 189.5,-568.26 195.5,-568.26 195.5,-568.26 235.5,-568.26 235.5,-568.26 241.5,-568.26 247.5,-574.26 247.5,-580.26 247.5,-580.26 247.5,-592.26 247.5,-592.26 247.5,-598.26 241.5,-604.26 235.5,-604.26"/>
<text text-anchor="middle" x="215.5" y="-583.76" font-family="Avenir Next" font-size="10.00" fill="#17232b">CHEM102</text>
</a>
</g>
</g>
<!-- course__CHEM091&#45;&gt;course__CHEM102 -->
<g id="edge3" class="edge">
<title>course__CHEM091&#45;&gt;course__CHEM102</title>
<path fill="none" stroke="#5d6972" stroke-width="1.2" d="M92.06,-586.26C116.41,-586.26 150.39,-586.26 176.38,-586.26"/>
<polygon fill="#5d6972" stroke="#5d6972" stroke-width="1.2" points="176.48,-588.71 183.48,-586.26 176.48,-583.81 176.48,-588.71"/>
</g>
<!-- course__CHEM101 -->
<g id="node2" class="node">
<title>course__CHEM101</title>
<g id="a_node2"><a xlink:href="../../../courses/CHEM101.html" xlink:title="Equivalent or cross&#45;listed: CHEM101: Fundamentals of Chemistry from Atoms to Materials | CHEM150: Engineering Chemistry" target="_top">
<path fill="#d7e9ef" stroke="#1f4f66" stroke-width="1.6" d="M108,-735.26C108,-735.26 12,-735.26 12,-735.26 6,-735.26 0,-729.26 0,-723.26 0,-723.26 0,-711.26 0,-711.26 0,-705.26 6,-699.26 12,-699.26 12,-699.26 108,-699.26 108,-699.26 114,-699.26 120,-705.26 120,-711.26 120,-711.26 120,-723.26 120,-723.26 120,-729.26 114,-735.26 108,-735.26"/>
<text text-anchor="middle" x="60" y="-714.76" font-family="Avenir Next" font-size="10.00" fill="#17232b">CHEM101 / CHEM150</text>
</a>
</g>
</g>
<!-- course__CHEM101&#45;&gt;course__CHEM102 -->
<g id="edge4" class="edge">
<title>course__CHEM101&#45;&gt;course__CHEM102</title>
<path fill="none" stroke="#5d6972" stroke-width="1.2" d="M82.34,-699.05C109.95,-675.49 158.04,-634.44 187.97,-608.9"/>
<polygon fill="#5d6972" stroke="#5d6972" stroke-width="1.2" points="189.6,-610.73 193.34,-604.32 186.42,-607 189.6,-610.73"/>
</g>
<!-- course__CHEM231 -->
<g id="node10" class="node">
<title>course__CHEM231</title>
<g id="a_node10"><a xlink:href="../../../courses/CHEM231.html" xlink:title="CHEM231: Introduction to Organic Chemistry" target="_top">
<path fill="#d7e9ef" stroke="#1f4f66" stroke-width="1.6" d="M235.5,-735.26C235.5,-735.26 195.5,-735.26 195.5,-735.26 189.5,-735.26 183.5,-729.26 183.5,-723.26 183.5,-723.26 183.5,-711.26 183.5,-711.26 183.5,-705.26 189.5,-699.26 195.5,-699.26 195.5,-699.26 235.5,-699.26 235.5,-699.26 241.5,-699.26 247.5,-705.26 247.5,-711.26 247.5,-711.26 247.5,-723.26 247.5,-723.26 247.5,-729.26 241.5,-735.26 235.5,-735.26"/>
<text text-anchor="middle" x="215.5" y="-714.76" font-family="Avenir Next" font-size="10.00" fill="#17232b">CHEM231</text>
</a>
</g>
</g>
<!-- course__CHEM101&#45;&gt;course__CHEM231 -->
<g id="edge8" class="edge">
<title>course__CHEM101&#45;&gt;course__CHEM231</title>
<path fill="none" stroke="#5d6972" stroke-width="1.2" d="M120.35,-717.26C139.1,-717.26 159.31,-717.26 176.18,-717.26"/>
<polygon fill="#5d6972" stroke="#5d6972" stroke-width="1.2" points="176.2,-719.71 183.2,-717.26 176.2,-714.81 176.2,-719.71"/>
</g>
<!-- course__EOS313 -->
<g id="node11" class="node">
<title>course__EOS313</title>
<g id="a_node11"><a xlink:href="../../../courses/EOS313.html" xlink:title="EOS313: Introductory Geological Oceanography" target="_top">
<path fill="#ead9b8" stroke="#8f6a3b" stroke-width="1.3" d="M230.5,-803.26C230.5,-803.26 200.5,-803.26 200.5,-803.26 194.5,-803.26 188.5,-797.26 188.5,-791.26 188.5,-791.26 188.5,-779.26 188.5,-779.26 188.5,-773.26 194.5,-767.26 200.5,-767.26 200.5,-767.26 230.5,-767.26 230.5,-767.26 236.5,-767.26 242.5,-773.26 242.5,-779.26 242.5,-779.26 242.5,-791.26 242.5,-791.26 242.5,-797.26 236.5,-803.26 230.5,-803.26"/>
<text text-anchor="middle" x="215.5" y="-782.76" font-family="Avenir Next" font-size="10.00" fill="#3f3120">EOS313</text>
</a>
</g>
</g>
<!-- course__CHEM101&#45;&gt;course__EOS313 -->
<g id="edge46" class="edge">
<title>course__CHEM101&#45;&gt;course__EOS313</title>
<path fill="none" stroke="#5d6972" stroke-width="1.2" d="M101.73,-735.31C126.63,-746.34 158.07,-760.26 181.42,-770.61"/>
<polygon fill="#5d6972" stroke="#5d6972" stroke-width="1.2" points="180.7,-772.97 188.09,-773.56 182.68,-768.49 180.7,-772.97"/>
</g>
<!-- course__MATH100 -->
<g id="node3" class="node">
<title>course__MATH100</title>
<g id="a_node3"><a xlink:href="../../../courses/MATH100.html" xlink:title="Collapsed in simplified view: MATH100: Calculus I | MATH102: Calculus for Students in the Social and Biological Sciences | MATH109: Introduction to Calculus" target="_top">
<path fill="#d7e9ef" stroke="#1f4f66" stroke-width="1.6" d="M80,-339.26C80,-339.26 40,-339.26 40,-339.26 34,-339.26 28,-333.26 28,-327.26 28,-327.26 28,-315.26 28,-315.26 28,-309.26 34,-303.26 40,-303.26 40,-303.26 80,-303.26 80,-303.26 86,-303.26 92,-309.26 92,-315.26 92,-315.26 92,-327.26 92,-327.26 92,-333.26 86,-339.26 80,-339.26"/>
<text text-anchor="middle" x="60" y="-318.76" font-family="Avenir Next" font-size="10.00" fill="#17232b">Calculus I</text>
</a>
</g>
</g>
<!-- course__MATH100&#45;&gt;course__CHEM102 -->
<g id="edge5" class="edge">
<title>course__MATH100&#45;&gt;course__CHEM102</title>
<path fill="none" stroke="#5d6972" stroke-width="1.2" d="M71.55,-339.48C98.5,-386 169.87,-509.22 200.37,-561.86"/>
<polygon fill="#5d6972" stroke="#5d6972" stroke-width="1.2" points="198.25,-563.09 203.88,-567.92 202.49,-560.63 198.25,-563.09"/>
</g>
<!-- course__MATH101 -->
<g id="node13" class="node">
<title>course__MATH101</title>
<g id="a_node13"><a xlink:href="../../../courses/MATH101.html" xlink:title="MATH101: Calculus II" target="_top">
<path fill="#d7e9ef" stroke="#1f4f66" stroke-width="1.6" d="M235,-271.26C235,-271.26 196,-271.26 196,-271.26 190,-271.26 184,-265.26 184,-259.26 184,-259.26 184,-247.26 184,-247.26 184,-241.26 190,-235.26 196,-235.26 196,-235.26 235,-235.26 235,-235.26 241,-235.26 247,-241.26 247,-247.26 247,-247.26 247,-259.26 247,-259.26 247,-265.26 241,-271.26 235,-271.26"/>
<text text-anchor="middle" x="215.5" y="-250.76" font-family="Avenir Next" font-size="10.00" fill="#17232b">MATH101</text>
</a>
</g>
</g>
<!-- course__MATH100&#45;&gt;course__MATH101 -->
<g id="edge73" class="edge">
<title>course__MATH100&#45;&gt;course__MATH101</title>
<path fill="none" stroke="#5d6972" stroke-width="1.2" d="M92.06,-307.5C116.69,-296.59 151.2,-281.3 177.3,-269.74"/>
<polygon fill="#5d6972" stroke="#5d6972" stroke-width="1.2" points="178.34,-271.96 183.75,-266.89 176.35,-267.48 178.34,-271.96"/>
</g>
<!-- course__PHYS102A -->
<g id="node14" class="node">
<title>course__PHYS102A</title>
<g id="a_node14"><a xlink:href="../../../courses/PHYS102A.html" xlink:title="Collapsed in simplified view: PHYS102A: General Physics I | PHYS110: Introductory Physics I | PHYS120: Physics I" target="_top">
<path fill="#d7e9ef" stroke="#1f4f66" stroke-width="1.6" d="M233,-320.26C233,-320.26 198,-320.26 198,-320.26 192,-320.26 186,-314.26 186,-308.26 186,-308.26 186,-296.26 186,-296.26 186,-290.26 192,-284.26 198,-284.26 198,-284.26 233,-284.26 233,-284.26 239,-284.26 245,-290.26 245,-296.26 245,-296.26 245,-308.26 245,-308.26 245,-314.26 239,-320.26 233,-320.26"/>
<text text-anchor="middle" x="215.5" y="-299.76" font-family="Avenir Next" font-size="10.00" fill="#17232b">Physics I</text>
</a>
</g>
</g>
<!-- course__MATH100&#45;&gt;course__PHYS102A -->
<g id="edge76" class="edge">
<title>course__MATH100&#45;&gt;course__PHYS102A</title>
<path fill="none" stroke="#5d6972" stroke-width="1.2" d="M92.06,-317.42C117.13,-314.31 152.41,-309.95 178.67,-306.7"/>
<polygon fill="#5d6972" stroke="#5d6972" stroke-width="1.2" points="179.17,-309.1 185.82,-305.81 178.57,-304.24 179.17,-309.1"/>
</g>
<!-- course__CSC110 -->
<g id="node15" class="node">
<title>course__CSC110</title>
<g id="a_node15"><a xlink:href="../../../courses/CSC110.html" xlink:title="Collapsed in simplified view: CSC110: Fundamentals of Programming I | CSC111: Fundamentals of Programming with Engineering Applications" target="_top">
<path fill="#f9f9f9" stroke="#363636" d="M245.5,-167.26C245.5,-167.26 185.5,-167.26 185.5,-167.26 179.5,-167.26 173.5,-161.26 173.5,-155.26 173.5,-155.26 173.5,-143.26 173.5,-143.26 173.5,-137.26 179.5,-131.26 185.5,-131.26 185.5,-131.26 245.5,-131.26 245.5,-131.26 251.5,-131.26 257.5,-137.26 257.5,-143.26 257.5,-143.26 257.5,-155.26 257.5,-155.26 257.5,-161.26 251.5,-167.26 245.5,-167.26"/>
<text text-anchor="middle" x="215.5" y="-147.06" font-family="Avenir Next" font-size="9.00" fill="#363636">Programming I</text>
</a>
</g>
</g>
<!-- course__MATH100&#45;&gt;course__CSC110 -->
<g id="edge24" class="edge">
<title>course__MATH100&#45;&gt;course__CSC110</title>
<path fill="none" stroke="#5d6972" stroke-width="1.2" d="M82.83,-303.2C94.32,-293.31 108.39,-280.6 120,-268.26 149.17,-237.27 179.1,-198.08 197.25,-173.33"/>
<polygon fill="#5d6972" stroke="#5d6972" stroke-width="1.2" points="199.46,-174.46 201.61,-167.37 195.5,-171.58 199.46,-174.46"/>
</g>
<!-- course__PHYS102B -->
<g id="node23" class="node">
<title>course__PHYS102B</title>
<g id="a_node23"><a xlink:href="../../../courses/PHYS102B.html" xlink:title="Collapsed in simplified view: PHYS102B: General Physics II | PHYS111: Introductory Physics II | PHYS130: Physics II" target="_top">
<path fill="#d7e9ef" stroke="#1f4f66" stroke-width="1.6" d="M389.5,-360.26C389.5,-360.26 351.5,-360.26 351.5,-360.26 345.5,-360.26 339.5,-354.26 339.5,-348.26 339.5,-348.26 339.5,-336.26 339.5,-336.26 339.5,-330.26 345.5,-324.26 351.5,-324.26 351.5,-324.26 389.5,-324.26 389.5,-324.26 395.5,-324.26 401.5,-330.26 401.5,-336.26 401.5,-336.26 401.5,-348.26 401.5,-348.26 401.5,-354.26 395.5,-360.26 389.5,-360.26"/>
<text text-anchor="middle" x="370.5" y="-339.76" font-family="Avenir Next" font-size="10.00" fill="#17232b">Physics II</text>
</a>
</g>
</g>
<!-- course__MATH100&#45;&gt;course__PHYS102B -->
<g id="edge78" class="edge">
<title>course__MATH100&#45;&gt;course__PHYS102B</title>
<path fill="none" stroke="#5d6972" stroke-width="1.2" d="M92.28,-323.39C149.39,-327.28 270.33,-335.51 331.85,-339.7"/>
<polygon fill="#5d6972" stroke="#5d6972" stroke-width="1.2" points="331.9,-342.16 339.05,-340.19 332.24,-337.27 331.9,-342.16"/>
</g>
<!-- choice_EOS311_0_2 -->
<g id="node43" class="node">
<title>choice_EOS311_0_2</title>
<path fill="#fff7ee" stroke="#b7793f" stroke-width="1.1" d="M385.5,-409.26C385.5,-409.26 355.5,-409.26 355.5,-409.26 349.5,-409.26 343.5,-403.26 343.5,-397.26 343.5,-397.26 343.5,-385.26 343.5,-385.26 343.5,-379.26 349.5,-373.26 355.5,-373.26 355.5,-373.26 385.5,-373.26 385.5,-373.26 391.5,-373.26 397.5,-379.26 397.5,-385.26 397.5,-385.26 397.5,-397.26 397.5,-397.26 397.5,-403.26 391.5,-409.26 385.5,-409.26"/>
<text text-anchor="middle" x="370.5" y="-389.06" font-family="Avenir Next" font-size="9.00">2 of</text>
</g>
<!-- course__MATH100&#45;&gt;choice_EOS311_0_2 -->
<g id="edge34" class="edge">
<title>course__MATH100&#45;&gt;choice_EOS311_0_2</title>
<path fill="none" stroke="#7a8389" d="M86.18,-339.35C105.81,-352.4 134.31,-369.09 162,-377.26 221.46,-394.8 294.5,-395.11 336.15,-393.41"/>
<polygon fill="#7a8389" stroke="#7a8389" points="336.43,-395.85 343.31,-393.09 336.21,-390.96 336.43,-395.85"/>
</g>
<!-- course__EOS110 -->
<g id="node4" class="node">
<title>course__EOS110</title>
<g id="a_node4"><a xlink:href="../../../courses/EOS110.html" xlink:title="Equivalent or cross&#45;listed: EOS110: Oceans and Atmosphere | EOS350: Understanding the Oceans" target="_top">
<path fill="#f9f9f9" stroke="#363636" d="M97.5,-56.26C97.5,-56.26 22.5,-56.26 22.5,-56.26 16.5,-56.26 10.5,-50.26 10.5,-44.26 10.5,-44.26 10.5,-32.26 10.5,-32.26 10.5,-26.26 16.5,-20.26 22.5,-20.26 22.5,-20.26 97.5,-20.26 97.5,-20.26 103.5,-20.26 109.5,-26.26 109.5,-32.26 109.5,-32.26 109.5,-44.26 109.5,-44.26 109.5,-50.26 103.5,-56.26 97.5,-56.26"/>
<text text-anchor="middle" x="60" y="-36.06" font-family="Avenir Next" font-size="9.00" fill="#363636">EOS110 / EOS350</text>
</a>
</g>
</g>
<!-- course__EOS230 -->
<g id="node16" class="node">
<title>course__EOS230</title>
<g id="a_node16"><a xlink:href="../../../courses/EOS230.html" xlink:title="Equivalent or cross&#45;listed: EOS230: Introduction to Environmental Data Analysis | GEOG230: Introduction to Environmental Data Analysis" target="_top">
<path fill="#f9f9f9" stroke="#363636" d="M257,-56.26C257,-56.26 174,-56.26 174,-56.26 168,-56.26 162,-50.26 162,-44.26 162,-44.26 162,-32.26 162,-32.26 162,-26.26 168,-20.26 174,-20.26 174,-20.26 257,-20.26 257,-20.26 263,-20.26 269,-26.26 269,-32.26 269,-32.26 269,-44.26 269,-44.26 269,-50.26 263,-56.26 257,-56.26"/>
<text text-anchor="middle" x="215.5" y="-36.06" font-family="Avenir Next" font-size="9.00" fill="#363636">EOS230 / GEOG230</text>
</a>
</g>
</g>
<!-- course__EOS110&#45;&gt;course__EOS230 -->
<g id="edge27" class="edge">
<title>course__EOS110&#45;&gt;course__EOS230</title>
<path fill="none" stroke="#5d6972" stroke-width="1.2" d="M109.57,-38.26C123.91,-38.26 139.78,-38.26 154.74,-38.26"/>
<polygon fill="#5d6972" stroke="#5d6972" stroke-width="1.2" points="155,-40.71 162,-38.26 155,-35.81 155,-40.71"/>
</g>
<!-- course__EOS261 -->
<g id="node34" class="node">
<title>course__EOS261</title>
<g id="a_node34"><a xlink:href="../../../courses/EOS261.html" xlink:title="EOS261: The Climate System" target="_top">
<path fill="#f9f9f9" stroke="#363636" d="M601,-211.26C601,-211.26 571,-211.26 571,-211.26 565,-211.26 559,-205.26 559,-199.26 559,-199.26 559,-187.26 559,-187.26 559,-181.26 565,-175.26 571,-175.26 571,-175.26 601,-175.26 601,-175.26 607,-175.26 613,-181.26 613,-187.26 613,-187.26 613,-199.26 613,-199.26 613,-205.26 607,-211.26 601,-211.26"/>
<text text-anchor="middle" x="586" y="-191.06" font-family="Avenir Next" font-size="9.00" fill="#363636">EOS261</text>
</a>
</g>
</g>
<!-- course__EOS110&#45;&gt;course__EOS261 -->
<g id="edge30" class="edge">
<title>course__EOS110&#45;&gt;course__EOS261</title>
<path fill="none" stroke="#5d6972" stroke-width="1.2" d="M109.57,-50.99C126.12,-55.01 144.79,-59.2 162,-62.26 280.1,-83.27 317.06,-53.85 430,-94.26 479.04,-111.81 528.52,-147.19 557.96,-170.55"/>
<polygon fill="#5d6972" stroke="#5d6972" stroke-width="1.2" points="556.59,-172.59 563.58,-175.06 559.65,-168.77 556.59,-172.59"/>
</g>
<!-- choice_EOS312_0_0 -->
<g id="node44" class="node">
<title>choice_EOS312_0_0</title>
<path fill="#fff7ee" stroke="#b7793f" stroke-width="1.1" d="M1167,-336.26C1167,-336.26 1137,-336.26 1137,-336.26 1131,-336.26 1125,-330.26 1125,-324.26 1125,-324.26 1125,-312.26 1125,-312.26 1125,-306.26 1131,-300.26 1137,-300.26 1137,-300.26 1167,-300.26 1167,-300.26 1173,-300.26 1179,-306.26 1179,-312.26 1179,-312.26 1179,-324.26 1179,-324.26 1179,-330.26 1173,-336.26 1167,-336.26"/>
<text text-anchor="middle" x="1152" y="-316.06" font-family="Avenir Next" font-size="9.00">1 of</text>
</g>
<!-- course__EOS110&#45;&gt;choice_EOS312_0_0 -->
<g id="edge40" class="edge">
<title>course__EOS110&#45;&gt;choice_EOS312_0_0</title>
<path fill="none" stroke="#7a8389" d="M109.7,-24.33C126.18,-20.12 144.77,-15.91 162,-13.26 253.33,0.79 277.1,-0.26 369.5,-0.26 369.5,-0.26 369.5,-0.26 908,-0.26 1055.41,-0.26 1125.39,-218.66 1145.03,-293.47"/>
<polygon fill="#7a8389" stroke="#7a8389" points="1142.66,-294.09 1146.77,-300.25 1147.4,-292.86 1142.66,-294.09"/>
</g>
<!-- course__EOS120 -->
<g id="node5" class="node">
<title>course__EOS120</title>
<g id="a_node5"><a xlink:href="../../../courses/EOS120.html" xlink:title="EOS120: The Dynamic Earth" target="_top">
<path fill="#f9f9f9" stroke="#363636" d="M75,-803.26C75,-803.26 45,-803.26 45,-803.26 39,-803.26 33,-797.26 33,-791.26 33,-791.26 33,-779.26 33,-779.26 33,-773.26 39,-767.26 45,-767.26 45,-767.26 75,-767.26 75,-767.26 81,-767.26 87,-773.26 87,-779.26 87,-779.26 87,-791.26 87,-791.26 87,-797.26 81,-803.26 75,-803.26"/>
<text text-anchor="middle" x="60" y="-783.06" font-family="Avenir Next" font-size="9.00" fill="#363636">EOS120</text>
</a>
</g>
</g>
<!-- course__EOS120&#45;&gt;course__EOS313 -->
<g id="edge45" class="edge">
<title>course__EOS120&#45;&gt;course__EOS313</title>
<path fill="none" stroke="#5d6972" stroke-width="1.2" d="M87.04,-785.26C112.95,-785.26 152.82,-785.26 181.06,-785.26"/>
<polygon fill="#5d6972" stroke="#5d6972" stroke-width="1.2" points="181.33,-787.71 188.33,-785.26 181.33,-782.81 181.33,-787.71"/>
</g>
<!-- course__EOS335 -->
<g id="node6" class="node">
<title>course__EOS335</title>
<g id="a_node6"><a xlink:href="../../../courses/EOS335.html" xlink:title="EOS335: Isotopes in Natural Sciences" target="_top">
<path fill="#f9f9f9" stroke="#363636" d="M75,-852.26C75,-852.26 45,-852.26 45,-852.26 39,-852.26 33,-846.26 33,-840.26 33,-840.26 33,-828.26 33,-828.26 33,-822.26 39,-816.26 45,-816.26 45,-816.26 75,-816.26 75,-816.26 81,-816.26 87,-822.26 87,-828.26 87,-828.26 87,-840.26 87,-840.26 87,-846.26 81,-852.26 75,-852.26"/>
<text text-anchor="middle" x="60" y="-832.06" font-family="Avenir Next" font-size="9.00" fill="#363636">EOS335</text>
</a>
</g>
</g>
<!-- course__EOS425 -->
<g id="node12" class="node">
<title>course__EOS425</title>
<g id="a_node12"><a xlink:href="../../../courses/EOS425.html" xlink:title="EOS425: Aqueous Chemistry in the Earth and Ocean" target="_top">
<path fill="#d7e9ef" stroke="#1f4f66" stroke-width="1.6" d="M230.5,-852.26C230.5,-852.26 200.5,-852.26 200.5,-852.26 194.5,-852.26 188.5,-846.26 188.5,-840.26 188.5,-840.26 188.5,-828.26 188.5,-828.26 188.5,-822.26 194.5,-816.26 200.5,-816.26 200.5,-816.26 230.5,-816.26 230.5,-816.26 236.5,-816.26 242.5,-822.26 242.5,-828.26 242.5,-828.26 242.5,-840.26 242.5,-840.26 242.5,-846.26 236.5,-852.26 230.5,-852.26"/>
<text text-anchor="middle" x="215.5" y="-831.76" font-family="Avenir Next" font-size="10.00" fill="#17232b">EOS425</text>
</a>
</g>
</g>
<!-- course__EOS335&#45;&gt;course__EOS425 -->
<g id="edge70" class="edge">
<title>course__EOS335&#45;&gt;course__EOS425</title>
<path fill="none" stroke="#5d6972" stroke-width="1.2" d="M87.04,-834.26C112.95,-834.26 152.82,-834.26 181.06,-834.26"/>
<polygon fill="#5d6972" stroke="#5d6972" stroke-width="1.2" points="181.33,-836.71 188.33,-834.26 181.33,-831.81 181.33,-836.71"/>
</g>
<!-- course__MATH151 -->
<g id="node7" class="node">
<title>course__MATH151</title>
<g id="a_node7"><a xlink:href="../../../courses/MATH151.html" xlink:title="MATH151: Finite Mathematics" target="_top">
<path fill="#f9f9f9" stroke="#363636" d="M77.5,-262.26C77.5,-262.26 42.5,-262.26 42.5,-262.26 36.5,-262.26 30.5,-256.26 30.5,-250.26 30.5,-250.26 30.5,-238.26 30.5,-238.26 30.5,-232.26 36.5,-226.26 42.5,-226.26 42.5,-226.26 77.5,-226.26 77.5,-226.26 83.5,-226.26 89.5,-232.26 89.5,-238.26 89.5,-238.26 89.5,-250.26 89.5,-250.26 89.5,-256.26 83.5,-262.26 77.5,-262.26"/>
<text text-anchor="middle" x="60" y="-242.06" font-family="Avenir Next" font-size="9.00" fill="#363636">MATH151</text>
</a>
</g>
</g>
<!-- choice_EOS261_0_4 -->
<g id="node42" class="node">
<title>choice_EOS261_0_4</title>
<path fill="#fff7ee" stroke="#b7793f" stroke-width="1.1" d="M385.5,-137.26C385.5,-137.26 355.5,-137.26 355.5,-137.26 349.5,-137.26 343.5,-131.26 343.5,-125.26 343.5,-125.26 343.5,-113.26 343.5,-113.26 343.5,-107.26 349.5,-101.26 355.5,-101.26 355.5,-101.26 385.5,-101.26 385.5,-101.26 391.5,-101.26 397.5,-107.26 397.5,-113.26 397.5,-113.26 397.5,-125.26 397.5,-125.26 397.5,-131.26 391.5,-137.26 385.5,-137.26"/>
<text text-anchor="middle" x="370.5" y="-117.06" font-family="Avenir Next" font-size="9.00">1 of</text>
</g>
<!-- course__MATH151&#45;&gt;choice_EOS261_0_4 -->
<g id="edge29" class="edge">
<title>course__MATH151&#45;&gt;choice_EOS261_0_4</title>
<path fill="none" stroke="#7a8389" d="M89.64,-237.33C130.76,-226.75 208.25,-204.47 269,-173.26 289.4,-162.78 290.92,-154.36 311,-143.26 319.04,-138.82 328.07,-134.72 336.58,-131.21"/>
<polygon fill="#7a8389" stroke="#7a8389" points="337.69,-133.41 343.27,-128.53 335.86,-128.86 337.69,-133.41"/>
</g>
<!-- course__MATH151&#45;&gt;choice_EOS311_0_2 -->
<g id="edge36" class="edge">
<title>course__MATH151&#45;&gt;choice_EOS311_0_2</title>
<path fill="none" stroke="#7a8389" d="M81.38,-262.36C105.64,-283.61 144.99,-317.13 162,-326.26 219.54,-357.15 294.06,-375.98 336.35,-384.94"/>
<polygon fill="#7a8389" stroke="#7a8389" points="336,-387.37 343.35,-386.39 337,-382.57 336,-387.37"/>
</g>
<!-- course__BIOL186 -->
<g id="node8" class="node">
<title>course__BIOL186</title>
<g id="a_node8"><a xlink:href="../../../courses/BIOL186.html" xlink:title="BIOL186: Physiology and Cell Biology" target="_top">
<path fill="#d7e9ef" stroke="#1f4f66" stroke-width="1.6" d="M232,-901.26C232,-901.26 199,-901.26 199,-901.26 193,-901.26 187,-895.26 187,-889.26 187,-889.26 187,-877.26 187,-877.26 187,-871.26 193,-865.26 199,-865.26 199,-865.26 232,-865.26 232,-865.26 238,-865.26 244,-871.26 244,-877.26 244,-877.26 244,-889.26 244,-889.26 244,-895.26 238,-901.26 232,-901.26"/>
<text text-anchor="middle" x="215.5" y="-880.76" font-family="Avenir Next" font-size="10.00" fill="#17232b">BIOL186</text>
</a>
</g>
</g>
<!-- course__BIOL150A -->
<g id="node25" class="node">
<title>course__BIOL150A</title>
<g id="a_node25"><a xlink:href="../../../courses/BIOL150A.html" xlink:title="Collapsed in simplified view: BIOL150A: Modern Biology | BIOL184: Evolution and Biodiversity" target="_top">
<path fill="#f9f9f9" stroke="#363636" d="M395.5,-901.26C395.5,-901.26 345.5,-901.26 345.5,-901.26 339.5,-901.26 333.5,-895.26 333.5,-889.26 333.5,-889.26 333.5,-877.26 333.5,-877.26 333.5,-871.26 339.5,-865.26 345.5,-865.26 345.5,-865.26 395.5,-865.26 395.5,-865.26 401.5,-865.26 407.5,-871.26 407.5,-877.26 407.5,-877.26 407.5,-889.26 407.5,-889.26 407.5,-895.26 401.5,-901.26 395.5,-901.26"/>
<text text-anchor="middle" x="370.5" y="-881.06" font-family="Avenir Next" font-size="9.00" fill="#363636">Intro biology</text>
</a>
</g>
</g>
<!-- course__BIOL186&#45;&gt;course__BIOL150A -->
<g id="edge1" class="edge">
<title>course__BIOL186&#45;&gt;course__BIOL150A</title>
<path fill="none" stroke="#5d6972" stroke-width="1.2" d="M244.21,-879.7C267.03,-878.67 299.81,-878.49 326.11,-879.16"/>
<polygon fill="#5d6972" stroke="#5d6972" stroke-width="1.2" points="326.28,-881.62 333.35,-879.37 326.42,-876.72 326.28,-881.62"/>
</g>
<!-- course__CHEM212 -->
<g id="node17" class="node">
<title>course__CHEM212</title>
<g id="a_node17"><a xlink:href="../../../courses/CHEM212.html" xlink:title="CHEM212: Introduction to Quantitative Analysis" target="_top">
<path fill="#d7e9ef" stroke="#1f4f66" stroke-width="1.6" d="M390.5,-628.26C390.5,-628.26 350.5,-628.26 350.5,-628.26 344.5,-628.26 338.5,-622.26 338.5,-616.26 338.5,-616.26 338.5,-604.26 338.5,-604.26 338.5,-598.26 344.5,-592.26 350.5,-592.26 350.5,-592.26 390.5,-592.26 390.5,-592.26 396.5,-592.26 402.5,-598.26 402.5,-604.26 402.5,-604.26 402.5,-616.26 402.5,-616.26 402.5,-622.26 396.5,-628.26 390.5,-628.26"/>
<text text-anchor="middle" x="370.5" y="-607.76" font-family="Avenir Next" font-size="10.00" fill="#17232b">CHEM212</text>
</a>
</g>
</g>
<!-- course__CHEM102&#45;&gt;course__CHEM212 -->
<g id="edge6" class="edge">
<title>course__CHEM102&#45;&gt;course__CHEM212</title>
<path fill="none" stroke="#5d6972" stroke-width="1.2" d="M247.83,-591.18C272.04,-594.97 305.66,-600.25 331.43,-604.29"/>
<polygon fill="#5d6972" stroke="#5d6972" stroke-width="1.2" points="331.18,-606.73 338.47,-605.39 331.94,-601.89 331.18,-606.73"/>
</g>
<!-- course__CHEM225 -->
<g id="node18" class="node">
<title>course__CHEM225</title>
<g id="a_node18"><a xlink:href="../../../courses/CHEM225.html" xlink:title="CHEM225: Introduction to Inorganic Chemistry" target="_top">
<path fill="#d7e9ef" stroke="#1f4f66" stroke-width="1.6" d="M390.5,-677.26C390.5,-677.26 350.5,-677.26 350.5,-677.26 344.5,-677.26 338.5,-671.26 338.5,-665.26 338.5,-665.26 338.5,-653.26 338.5,-653.26 338.5,-647.26 344.5,-641.26 350.5,-641.26 350.5,-641.26 390.5,-641.26 390.5,-641.26 396.5,-641.26 402.5,-647.26 402.5,-653.26 402.5,-653.26 402.5,-665.26 402.5,-665.26 402.5,-671.26 396.5,-677.26 390.5,-677.26"/>
<text text-anchor="middle" x="370.5" y="-656.76" font-family="Avenir Next" font-size="10.00" fill="#17232b">CHEM225</text>
</a>
</g>
</g>
<!-- course__CHEM102&#45;&gt;course__CHEM225 -->
<g id="edge7" class="edge">
<title>course__CHEM102&#45;&gt;course__CHEM225</title>
<path fill="none" stroke="#5d6972" stroke-width="1.2" d="M247.65,-603.3C265.91,-613.07 289.54,-625.32 311,-635.26 317.57,-638.31 324.65,-641.38 331.52,-644.26"/>
<polygon fill="#5d6972" stroke="#5d6972" stroke-width="1.2" points="330.91,-646.65 338.31,-647.07 332.78,-642.13 330.91,-646.65"/>
</g>
<!-- course__CHEM234 -->
<g id="node19" class="node">
<title>course__CHEM234</title>
<g id="a_node19"><a xlink:href="../../../courses/CHEM234.html" xlink:title="CHEM234: Organic Chemistry with Biological Applications" target="_top">
<path fill="#d7e9ef" stroke="#1f4f66" stroke-width="1.6" d="M390.5,-775.26C390.5,-775.26 350.5,-775.26 350.5,-775.26 344.5,-775.26 338.5,-769.26 338.5,-763.26 338.5,-763.26 338.5,-751.26 338.5,-751.26 338.5,-745.26 344.5,-739.26 350.5,-739.26 350.5,-739.26 390.5,-739.26 390.5,-739.26 396.5,-739.26 402.5,-745.26 402.5,-751.26 402.5,-751.26 402.5,-763.26 402.5,-763.26 402.5,-769.26 396.5,-775.26 390.5,-775.26"/>
<text text-anchor="middle" x="370.5" y="-754.76" font-family="Avenir Next" font-size="10.00" fill="#17232b">CHEM234</text>
</a>
</g>
</g>
<!-- course__CHEM102&#45;&gt;course__CHEM234 -->
<g id="edge9" class="edge">
<title>course__CHEM102&#45;&gt;course__CHEM234</title>
<path fill="none" stroke="#5d6972" stroke-width="1.2" d="M223.89,-604.63C237.07,-635.25 267.4,-696.96 311,-733.26 317.07,-738.32 324.35,-742.43 331.68,-745.72"/>
<polygon fill="#5d6972" stroke="#5d6972" stroke-width="1.2" points="330.99,-748.09 338.4,-748.53 332.88,-743.57 330.99,-748.09"/>
</g>
<!-- course__CHEM245 -->
<g id="node20" class="node">
<title>course__CHEM245</title>
<g id="a_node20"><a xlink:href="../../../courses/CHEM245.html" xlink:title="CHEM245: Introduction to Thermodynamics" target="_top">
<path fill="#d7e9ef" stroke="#1f4f66" stroke-width="1.6" d="M390.5,-579.26C390.5,-579.26 350.5,-579.26 350.5,-579.26 344.5,-579.26 338.5,-573.26 338.5,-567.26 338.5,-567.26 338.5,-555.26 338.5,-555.26 338.5,-549.26 344.5,-543.26 350.5,-543.26 350.5,-543.26 390.5,-543.26 390.5,-543.26 396.5,-543.26 402.5,-549.26 402.5,-555.26 402.5,-555.26 402.5,-567.26 402.5,-567.26 402.5,-573.26 396.5,-579.26 390.5,-579.26"/>
<text text-anchor="middle" x="370.5" y="-558.76" font-family="Avenir Next" font-size="10.00" fill="#17232b">CHEM245</text>
</a>
</g>
</g>
<!-- course__CHEM102&#45;&gt;course__CHEM245 -->
<g id="edge11" class="edge">
<title>course__CHEM102&#45;&gt;course__CHEM245</title>
<path fill="none" stroke="#5d6972" stroke-width="1.2" d="M247.83,-581.14C272.04,-577.19 305.66,-571.69 331.43,-567.48"/>
<polygon fill="#5d6972" stroke="#5d6972" stroke-width="1.2" points="331.96,-569.88 338.47,-566.33 331.17,-565.04 331.96,-569.88"/>
</g>
<!-- course__CHEM260 -->
<g id="node21" class="node">
<title>course__CHEM260</title>
<g id="a_node21"><a xlink:href="../../../courses/CHEM260.html" xlink:title="CHEM260: Synthetic Chemistry Laboratory" target="_top">
<path fill="#d7e9ef" stroke="#1f4f66" stroke-width="1.6" d="M390.5,-726.26C390.5,-726.26 350.5,-726.26 350.5,-726.26 344.5,-726.26 338.5,-720.26 338.5,-714.26 338.5,-714.26 338.5,-702.26 338.5,-702.26 338.5,-696.26 344.5,-690.26 350.5,-690.26 350.5,-690.26 390.5,-690.26 390.5,-690.26 396.5,-690.26 402.5,-696.26 402.5,-702.26 402.5,-702.26 402.5,-714.26 402.5,-714.26 402.5,-720.26 396.5,-726.26 390.5,-726.26"/>
<text text-anchor="middle" x="370.5" y="-705.76" font-family="Avenir Next" font-size="10.00" fill="#17232b">CHEM260</text>
</a>
</g>
</g>
<!-- course__CHEM102&#45;&gt;course__CHEM260 -->
<g id="edge12" class="edge">
<title>course__CHEM102&#45;&gt;course__CHEM260</title>
<path fill="none" stroke="#5d6972" stroke-width="1.2" d="M230.07,-604.37C246.99,-625.88 277.76,-661.69 311,-684.26 317.33,-688.56 324.54,-692.29 331.7,-695.45"/>
<polygon fill="#5d6972" stroke="#5d6972" stroke-width="1.2" points="330.82,-697.74 338.22,-698.2 332.72,-693.23 330.82,-697.74"/>
</g>
<!-- course__EOS311 -->
<g id="node31" class="node">
<title>course__EOS311</title>
<g id="a_node31"><a xlink:href="../../../courses/EOS311.html" xlink:title="Equivalent or cross&#45;listed: BIOL311: Biological Oceanography | EOS311: Biological Oceanography" target="_top">
<path fill="#ead9b8" stroke="#8f6a3b" stroke-width="1.3" d="M626,-495.26C626,-495.26 546,-495.26 546,-495.26 540,-495.26 534,-489.26 534,-483.26 534,-483.26 534,-471.26 534,-471.26 534,-465.26 540,-459.26 546,-459.26 546,-459.26 626,-459.26 626,-459.26 632,-459.26 638,-465.26 638,-471.26 638,-471.26 638,-483.26 638,-483.26 638,-489.26 632,-495.26 626,-495.26"/>
<text text-anchor="middle" x="586" y="-474.76" font-family="Avenir Next" font-size="10.00" fill="#3f3120">BIOL311 / EOS311</text>
</a>
</g>
</g>
<!-- course__CHEM102&#45;&gt;course__EOS311 -->
<g id="edge37" class="edge">
<title>course__CHEM102&#45;&gt;course__EOS311</title>
<path fill="none" stroke="#5d6972" stroke-width="1.2" d="M233.81,-568.21C251.48,-551.02 280.57,-525.92 311,-513.26 381.31,-484.02 469.75,-477.2 526.82,-476.24"/>
<polygon fill="#5d6972" stroke="#5d6972" stroke-width="1.2" points="527,-478.68 533.97,-476.14 526.94,-473.79 527,-478.68"/>
</g>
<!-- course__CHEM102&#45;&gt;course__EOS261 -->
<g id="edge31" class="edge">
<title>course__CHEM102&#45;&gt;course__EOS261</title>
<path fill="none" stroke="#5d6972" stroke-width="1.2" d="M219.45,-568.09C229.7,-507.02 265.7,-310.68 311,-268.26 350.59,-231.19 377.61,-255.29 430,-241.26 472.5,-229.88 520.84,-214.52 552.07,-204.27"/>
<polygon fill="#5d6972" stroke="#5d6972" stroke-width="1.2" points="552.97,-206.55 558.85,-202.04 551.44,-201.9 552.97,-206.55"/>
</g>
<!-- course__EOS312 -->
<g id="node38" class="node">
<title>course__EOS312</title>
<g id="a_node38"><a xlink:href="../../../courses/EOS312.html" xlink:title="EOS312: Introductory Chemical Oceanography" target="_top">
<path fill="#d7e9ef" stroke="#1f4f66" stroke-width="1.6" d="M1263,-476.26C1263,-476.26 1233,-476.26 1233,-476.26 1227,-476.26 1221,-470.26 1221,-464.26 1221,-464.26 1221,-452.26 1221,-452.26 1221,-446.26 1227,-440.26 1233,-440.26 1233,-440.26 1263,-440.26 1263,-440.26 1269,-440.26 1275,-446.26 1275,-452.26 1275,-452.26 1275,-464.26 1275,-464.26 1275,-470.26 1269,-476.26 1263,-476.26"/>
<text text-anchor="middle" x="1248" y="-455.76" font-family="Avenir Next" font-size="10.00" fill="#17232b">EOS312</text>
</a>
</g>
</g>
<!-- course__CHEM102&#45;&gt;course__EOS312 -->
<g id="edge44" class="edge">
<title>course__CHEM102&#45;&gt;course__EOS312</title>
<path fill="none" stroke="#5d6972" stroke-width="1.2" d="M244.22,-568.17C262.43,-557.24 287.21,-544.14 311,-537.26 382.13,-516.71 402.96,-523.26 477,-523.26 477,-523.26 477,-523.26 812,-523.26 963.34,-523.26 1141.07,-484.3 1213.63,-466.71"/>
<polygon fill="#5d6972" stroke="#5d6972" stroke-width="1.2" points="1214.51,-469.02 1220.72,-464.97 1213.34,-464.26 1214.51,-469.02"/>
</g>
<!-- course__CHEM231&#45;&gt;course__CHEM234 -->
<g id="edge10" class="edge">
<title>course__CHEM231&#45;&gt;course__CHEM234</title>
<path fill="none" stroke="#5d6972" stroke-width="1.2" d="M247.83,-725.45C272.04,-731.78 305.66,-740.57 331.43,-747.31"/>
<polygon fill="#5d6972" stroke="#5d6972" stroke-width="1.2" points="331.08,-749.75 338.47,-749.15 332.32,-745.01 331.08,-749.75"/>
</g>
<!-- course__CHEM231&#45;&gt;course__CHEM260 -->
<g id="edge13" class="edge">
<title>course__CHEM231&#45;&gt;course__CHEM260</title>
<path fill="none" stroke="#5d6972" stroke-width="1.2" d="M247.83,-715.42C272.04,-713.99 305.66,-712.02 331.43,-710.5"/>
<polygon fill="#5d6972" stroke="#5d6972" stroke-width="1.2" points="331.63,-712.94 338.47,-710.09 331.34,-708.05 331.63,-712.94"/>
</g>
<!-- choice_EOS401_0 -->
<g id="node49" class="node">
<title>choice_EOS401_0</title>
<path fill="#fff7ee" stroke="#b7793f" stroke-width="1.1" d="M1359,-495.26C1359,-495.26 1329,-495.26 1329,-495.26 1323,-495.26 1317,-489.26 1317,-483.26 1317,-483.26 1317,-471.26 1317,-471.26 1317,-465.26 1323,-459.26 1329,-459.26 1329,-459.26 1359,-459.26 1359,-459.26 1365,-459.26 1371,-465.26 1371,-471.26 1371,-471.26 1371,-483.26 1371,-483.26 1371,-489.26 1365,-495.26 1359,-495.26"/>
<text text-anchor="middle" x="1344" y="-475.06" font-family="Avenir Next" font-size="9.00">3 of</text>
</g>
<!-- course__EOS313&#45;&gt;choice_EOS401_0 -->
<g id="edge67" class="edge">
<title>course__EOS313&#45;&gt;choice_EOS401_0</title>
<path fill="none" stroke="#7a8389" d="M242.74,-786.94C289.7,-789.78 391.23,-795.26 477,-795.26 477,-795.26 477,-795.26 1153,-795.26 1289.17,-795.26 1330.06,-577.74 1340.14,-502.5"/>
<polygon fill="#7a8389" stroke="#7a8389" points="1342.6,-502.53 1341.07,-495.27 1337.74,-501.9 1342.6,-502.53"/>
</g>
<!-- course__MATH200 -->
<g id="node22" class="node">
<title>course__MATH200</title>
<g id="a_node22"><a xlink:href="../../../courses/MATH200.html" xlink:title="Equivalent or cross&#45;listed: MATH200: Calculus III | MATH202: Intermediate Calculus for CSC and EOS" target="_top">
<path fill="#d7e9ef" stroke="#1f4f66" stroke-width="1.6" d="M418,-311.26C418,-311.26 323,-311.26 323,-311.26 317,-311.26 311,-305.26 311,-299.26 311,-299.26 311,-287.26 311,-287.26 311,-281.26 317,-275.26 323,-275.26 323,-275.26 418,-275.26 418,-275.26 424,-275.26 430,-281.26 430,-287.26 430,-287.26 430,-299.26 430,-299.26 430,-305.26 424,-311.26 418,-311.26"/>
<text text-anchor="middle" x="370.5" y="-290.76" font-family="Avenir Next" font-size="10.00" fill="#17232b">MATH200 / MATH202</text>
</a>
</g>
</g>
<!-- course__MATH101&#45;&gt;course__MATH200 -->
<g id="edge74" class="edge">
<title>course__MATH101&#45;&gt;course__MATH200</title>
<path fill="none" stroke="#5d6972" stroke-width="1.2" d="M247.09,-261.26C263.4,-265.52 284.12,-270.94 303.85,-276.1"/>
<polygon fill="#5d6972" stroke="#5d6972" stroke-width="1.2" points="303.39,-278.51 310.78,-277.91 304.63,-273.77 303.39,-278.51"/>
</g>
<!-- course__MATH101&#45;&gt;course__PHYS102B -->
<g id="edge79" class="edge">
<title>course__MATH101&#45;&gt;course__PHYS102B</title>
<path fill="none" stroke="#5d6972" stroke-width="1.2" d="M247.13,-265.2C254.55,-268.64 262.28,-272.71 269,-277.26 290.35,-291.71 289.47,-303.08 311,-317.26 317.64,-321.63 325.17,-325.52 332.56,-328.86"/>
<polygon fill="#5d6972" stroke="#5d6972" stroke-width="1.2" points="331.89,-331.23 339.29,-331.76 333.83,-326.74 331.89,-331.23"/>
</g>
<!-- course__STAT254 -->
<g id="node24" class="node">
<title>course__STAT254</title>
<g id="a_node24"><a xlink:href="../../../courses/STAT254.html" xlink:title="Collapsed in simplified view: STAT254: Probability and Statistics for Engineers | STAT255: Statistics for Life Sciences I | STAT260: Introduction to Probability and Statistics I" target="_top">
<path fill="#d7e9ef" stroke="#1f4f66" stroke-width="1.6" d="M401.5,-186.26C401.5,-186.26 339.5,-186.26 339.5,-186.26 333.5,-186.26 327.5,-180.26 327.5,-174.26 327.5,-174.26 327.5,-162.26 327.5,-162.26 327.5,-156.26 333.5,-150.26 339.5,-150.26 339.5,-150.26 401.5,-150.26 401.5,-150.26 407.5,-150.26 413.5,-156.26 413.5,-162.26 413.5,-162.26 413.5,-174.26 413.5,-174.26 413.5,-180.26 407.5,-186.26 401.5,-186.26"/>
<text text-anchor="middle" x="370.5" y="-165.76" font-family="Avenir Next" font-size="10.00" fill="#17232b">Intro statistics</text>
</a>
</g>
</g>
<!-- course__MATH101&#45;&gt;course__STAT254 -->
<g id="edge81" class="edge">
<title>course__MATH101&#45;&gt;course__STAT254</title>
<path fill="none" stroke="#5d6972" stroke-width="1.2" d="M241.8,-235.11C260.41,-222.22 286.59,-205.01 311,-192.26 314.14,-190.62 317.42,-189.01 320.76,-187.45"/>
<polygon fill="#5d6972" stroke="#5d6972" stroke-width="1.2" points="321.85,-189.65 327.21,-184.52 319.83,-185.18 321.85,-189.65"/>
</g>
<!-- course__EOS210 -->
<g id="node26" class="node">
<title>course__EOS210</title>
<g id="a_node26"><a xlink:href="../../../courses/EOS210.html" xlink:title="Collapsed in simplified view: EOS210: Introductory Geophysics | PHYS210: Introductory Geophysics" target="_top">
<path fill="#f9f9f9" stroke="#363636" d="M404.5,-235.26C404.5,-235.26 336.5,-235.26 336.5,-235.26 330.5,-235.26 324.5,-229.26 324.5,-223.26 324.5,-223.26 324.5,-211.26 324.5,-211.26 324.5,-205.26 330.5,-199.26 336.5,-199.26 336.5,-199.26 404.5,-199.26 404.5,-199.26 410.5,-199.26 416.5,-205.26 416.5,-211.26 416.5,-211.26 416.5,-223.26 416.5,-223.26 416.5,-229.26 410.5,-235.26 404.5,-235.26"/>
<text text-anchor="middle" x="370.5" y="-215.06" font-family="Avenir Next" font-size="9.00" fill="#363636">Intro geophysics</text>
</a>
</g>
</g>
<!-- course__MATH101&#45;&gt;course__EOS210 -->
<g id="edge25" class="edge">
<title>course__MATH101&#45;&gt;course__EOS210</title>
<path fill="none" stroke="#5d6972" stroke-width="1.2" d="M247.09,-246.06C267.25,-241.32 294.16,-234.99 317.62,-229.47"/>
<polygon fill="#5d6972" stroke="#5d6972" stroke-width="1.2" points="318.2,-231.85 324.45,-227.86 317.08,-227.08 318.2,-231.85"/>
</g>
<!-- course__MATH101&#45;&gt;choice_EOS261_0_4 -->
<g id="edge28" class="edge">
<title>course__MATH101&#45;&gt;choice_EOS261_0_4</title>
<path fill="none" stroke="#7a8389" d="M242.01,-235.09C251.11,-227.94 261.06,-219.28 269,-210.26 292.23,-183.89 284.12,-165.9 311,-143.26 318.43,-137.01 327.7,-132.21 336.67,-128.61"/>
<polygon fill="#7a8389" stroke="#7a8389" points="337.73,-130.83 343.43,-126.08 336.01,-126.24 337.73,-130.83"/>
</g>
<!-- course__MATH101&#45;&gt;choice_EOS311_0_2 -->
<g id="edge35" class="edge">
<title>course__MATH101&#45;&gt;choice_EOS311_0_2</title>
<path fill="none" stroke="#7a8389" d="M247.11,-262.93C254.95,-266.49 262.88,-271.19 269,-277.26 300.33,-308.35 279.06,-336.8 311,-367.26 318.09,-374.02 327.35,-378.99 336.4,-382.59"/>
<polygon fill="#7a8389" stroke="#7a8389" points="335.82,-384.98 343.24,-385.08 337.5,-380.38 335.82,-384.98"/>
</g>
<!-- course__PHYS102A&#45;&gt;course__PHYS102B -->
<g id="edge77" class="edge">
<title>course__PHYS102A&#45;&gt;course__PHYS102B</title>
<path fill="none" stroke="#5d6972" stroke-width="1.2" d="M245.28,-309.79C269.91,-316.23 305.54,-325.54 332.32,-332.54"/>
<polygon fill="#5d6972" stroke="#5d6972" stroke-width="1.2" points="331.89,-334.96 339.28,-334.36 333.13,-330.22 331.89,-334.96"/>
</g>
<!-- course__PHYS102A&#45;&gt;course__EOS210 -->
<g id="edge26" class="edge">
<title>course__PHYS102A&#45;&gt;course__EOS210</title>
<path fill="none" stroke="#5d6972" stroke-width="1.2" d="M245.13,-289.94C253.04,-286.19 261.5,-281.84 269,-277.26 289.03,-265.04 290.98,-257.5 311,-245.26 314.72,-242.99 318.65,-240.76 322.65,-238.62"/>
<polygon fill="#5d6972" stroke="#5d6972" stroke-width="1.2" points="323.88,-240.74 328.96,-235.33 321.62,-236.39 323.88,-240.74"/>
</g>
<!-- choice_EOS325_0_2_0 -->
<g id="node46" class="node">
<title>choice_EOS325_0_2_0</title>
<path fill="#fff7ee" stroke="#b7793f" stroke-width="1.1" d="M730,-192.26C730,-192.26 700,-192.26 700,-192.26 694,-192.26 688,-186.26 688,-180.26 688,-180.26 688,-168.26 688,-168.26 688,-162.26 694,-156.26 700,-156.26 700,-156.26 730,-156.26 730,-156.26 736,-156.26 742,-162.26 742,-168.26 742,-168.26 742,-180.26 742,-180.26 742,-186.26 736,-192.26 730,-192.26"/>
<text text-anchor="middle" x="715" y="-172.06" font-family="Avenir Next" font-size="9.00">1 of</text>
</g>
<!-- course__CSC110&#45;&gt;choice_EOS325_0_2_0 -->
<g id="edge55" class="edge">
<title>course__CSC110&#45;&gt;choice_EOS325_0_2_0</title>
<path fill="none" stroke="#7a8389" d="M239.4,-131.25C257.64,-118.12 284.43,-101.43 311,-94.26 446.77,-57.63 612.42,-124.86 681.42,-157.71"/>
<polygon fill="#7a8389" stroke="#7a8389" points="680.42,-159.95 687.79,-160.78 682.54,-155.53 680.42,-159.95"/>
</g>
<!-- course__EOS230&#45;&gt;choice_EOS325_0_2_0 -->
<g id="edge52" class="edge">
<title>course__EOS230&#45;&gt;choice_EOS325_0_2_0</title>
<path fill="none" stroke="#7a8389" d="M269.23,-34.66C353.88,-31.2 523.08,-34.06 646,-99.26 668.13,-111 686.69,-132.91 698.8,-150.03"/>
<polygon fill="#7a8389" stroke="#7a8389" points="696.98,-151.71 702.96,-156.09 701.02,-148.93 696.98,-151.71"/>
</g>
<!-- course__CHEM318 -->
<g id="node27" class="node">
<title>course__CHEM318</title>
<g id="a_node27"><a xlink:href="../../../courses/CHEM318.html" xlink:title="Equivalent or cross&#45;listed: CHEM318: Instrumental Techniques of Analysis | CHEM361: Analytical Chemistry Laboratory" target="_top">
<path fill="#d7e9ef" stroke="#1f4f66" stroke-width="1.6" d="M634,-645.26C634,-645.26 538,-645.26 538,-645.26 532,-645.26 526,-639.26 526,-633.26 526,-633.26 526,-621.26 526,-621.26 526,-615.26 532,-609.26 538,-609.26 538,-609.26 634,-609.26 634,-609.26 640,-609.26 646,-615.26 646,-621.26 646,-621.26 646,-633.26 646,-633.26 646,-639.26 640,-645.26 634,-645.26"/>
<text text-anchor="middle" x="586" y="-624.76" font-family="Avenir Next" font-size="10.00" fill="#17232b">CHEM318 / CHEM361</text>
</a>
</g>
</g>
<!-- course__CHEM212&#45;&gt;course__CHEM318 -->
<g id="edge14" class="edge">
<title>course__CHEM212&#45;&gt;course__CHEM318</title>
<path fill="none" stroke="#5d6972" stroke-width="1.2" d="M402.54,-612.73C432.81,-615.14 479.81,-618.89 518.52,-621.97"/>
<polygon fill="#5d6972" stroke="#5d6972" stroke-width="1.2" points="518.48,-624.42 525.65,-622.54 518.87,-619.54 518.48,-624.42"/>
</g>
<!-- course__CHEM364 -->
<g id="node30" class="node">
<title>course__CHEM364</title>
<g id="a_node30"><a xlink:href="../../../courses/CHEM364.html" xlink:title="CHEM364: Physical Chemistry Laboratory" target="_top">
<path fill="#d7e9ef" stroke="#1f4f66" stroke-width="1.6" d="M606,-594.26C606,-594.26 566,-594.26 566,-594.26 560,-594.26 554,-588.26 554,-582.26 554,-582.26 554,-570.26 554,-570.26 554,-564.26 560,-558.26 566,-558.26 566,-558.26 606,-558.26 606,-558.26 612,-558.26 618,-564.26 618,-570.26 618,-570.26 618,-582.26 618,-582.26 618,-588.26 612,-594.26 606,-594.26"/>
<text text-anchor="middle" x="586" y="-573.76" font-family="Avenir Next" font-size="10.00" fill="#17232b">CHEM364</text>
</a>
</g>
</g>
<!-- course__CHEM212&#45;&gt;course__CHEM364 -->
<g id="edge22" class="edge">
<title>course__CHEM212&#45;&gt;course__CHEM364</title>
<path fill="none" stroke="#5d6972" stroke-width="1.2" d="M402.54,-605.32C440.73,-599.24 505.54,-588.92 546.76,-582.35"/>
<polygon fill="#5d6972" stroke="#5d6972" stroke-width="1.2" points="547.39,-584.73 553.92,-581.21 546.62,-579.89 547.39,-584.73"/>
</g>
<!-- bundle_CHEM362_0_1 -->
<g id="node40" class="node">
<title>bundle_CHEM362_0_1</title>
<g id="a_node40"><a xlink:title="Grouped requirement junction">
<ellipse fill="#7a8790" stroke="#667780" cx="478" cy="-680.26" rx="6" ry="6"/>
</a>
</g>
</g>
<!-- course__CHEM225&#45;&gt;bundle_CHEM362_0_1 -->
<g id="edge16" class="edge">
<title>course__CHEM225&#45;&gt;bundle_CHEM362_0_1</title>
<path fill="none" stroke="#7a8389" d="M402.58,-665.45C423.3,-669.57 449.42,-674.77 464.56,-677.79"/>
<polygon fill="#7a8389" stroke="#7a8389" points="464.4,-680.25 471.74,-679.21 465.35,-675.45 464.4,-680.25"/>
</g>
<!-- bundle_CHEM363_0_1 -->
<g id="node41" class="node">
<title>bundle_CHEM363_0_1</title>
<g id="a_node41"><a xlink:title="Grouped requirement junction">
<ellipse fill="#7a8790" stroke="#667780" cx="478" cy="-744.26" rx="6" ry="6"/>
</a>
</g>
</g>
<!-- course__CHEM234&#45;&gt;bundle_CHEM363_0_1 -->
<g id="edge19" class="edge">
<title>course__CHEM234&#45;&gt;bundle_CHEM363_0_1</title>
<path fill="none" stroke="#7a8389" d="M402.58,-753.43C423.3,-750.88 449.42,-747.66 464.56,-745.79"/>
<polygon fill="#7a8389" stroke="#7a8389" points="465.09,-748.2 471.74,-744.91 464.49,-743.33 465.09,-748.2"/>
</g>
<!-- course__CHEM245&#45;&gt;course__CHEM364 -->
<g id="edge23" class="edge">
<title>course__CHEM245&#45;&gt;course__CHEM364</title>
<path fill="none" stroke="#5d6972" stroke-width="1.2" d="M402.54,-563.44C440.73,-566.13 505.54,-570.68 546.76,-573.58"/>
<polygon fill="#5d6972" stroke="#5d6972" stroke-width="1.2" points="546.76,-576.03 553.92,-574.08 547.11,-571.14 546.76,-576.03"/>
</g>
<!-- course__CHEM260&#45;&gt;course__CHEM318 -->
<g id="edge15" class="edge">
<title>course__CHEM260&#45;&gt;course__CHEM318</title>
<path fill="none" stroke="#5d6972" stroke-width="1.2" d="M402.92,-708.9C426.26,-708.25 458.36,-704.94 484,-693.26 506.64,-682.95 505.32,-670.09 526,-656.26 529.89,-653.66 534.04,-651.15 538.28,-648.77"/>
<polygon fill="#5d6972" stroke="#5d6972" stroke-width="1.2" points="539.55,-650.87 544.53,-645.37 537.21,-646.56 539.55,-650.87"/>
</g>
<!-- course__CHEM260&#45;&gt;bundle_CHEM362_0_1 -->
<g id="edge17" class="edge">
<title>course__CHEM260&#45;&gt;bundle_CHEM362_0_1</title>
<path fill="none" stroke="#7a8389" d="M402.58,-700.01C423.51,-694.46 449.94,-687.44 465.01,-683.44"/>
<polygon fill="#7a8389" stroke="#7a8389" points="465.97,-685.72 472.11,-681.56 464.71,-680.99 465.97,-685.72"/>
</g>
<!-- course__CHEM260&#45;&gt;bundle_CHEM363_0_1 -->
<g id="edge20" class="edge">
<title>course__CHEM260&#45;&gt;bundle_CHEM363_0_1</title>
<path fill="none" stroke="#7a8389" d="M402.58,-718.87C423.7,-726.07 450.43,-735.19 465.42,-740.31"/>
<polygon fill="#7a8389" stroke="#7a8389" points="464.69,-742.65 472.11,-742.59 466.27,-738.01 464.69,-742.65"/>
</g>
<!-- course__MATH200&#45;&gt;course__STAT254 -->
<g id="edge80" class="edge">
<title>course__MATH200&#45;&gt;course__STAT254</title>
<path fill="none" stroke="#5d6972" stroke-width="1.2" d="M310.82,-277.41C302.59,-272.71 295.19,-266.63 290,-258.76 275.32,-236.5 274.85,-220.71 290,-198.76 297.24,-188.28 308.58,-181.4 320.48,-176.88"/>
<polygon fill="#5d6972" stroke="#5d6972" stroke-width="1.2" points="321.31,-179.19 327.14,-174.6 319.72,-174.55 321.31,-179.19"/>
</g>
<!-- course__MATH204 -->
<g id="node33" class="node">
<title>course__MATH204</title>
<g id="a_node33"><a xlink:href="../../../courses/MATH204.html" xlink:title="MATH204: Calculus IV" target="_top">
<path fill="#d7e9ef" stroke="#1f4f66" stroke-width="1.6" d="M605.5,-314.26C605.5,-314.26 566.5,-314.26 566.5,-314.26 560.5,-314.26 554.5,-308.26 554.5,-302.26 554.5,-302.26 554.5,-290.26 554.5,-290.26 554.5,-284.26 560.5,-278.26 566.5,-278.26 566.5,-278.26 605.5,-278.26 605.5,-278.26 611.5,-278.26 617.5,-284.26 617.5,-290.26 617.5,-290.26 617.5,-302.26 617.5,-302.26 617.5,-308.26 611.5,-314.26 605.5,-314.26"/>
<text text-anchor="middle" x="586" y="-293.76" font-family="Avenir Next" font-size="10.00" fill="#17232b">MATH204</text>
</a>
</g>
</g>
<!-- course__MATH200&#45;&gt;course__MATH204 -->
<g id="edge75" class="edge">
<title>course__MATH200&#45;&gt;course__MATH204</title>
<path fill="none" stroke="#5d6972" stroke-width="1.2" d="M430.12,-294.09C467.54,-294.61 514.93,-295.28 547.37,-295.73"/>
<polygon fill="#5d6972" stroke="#5d6972" stroke-width="1.2" points="547.43,-298.18 554.46,-295.83 547.5,-293.28 547.43,-298.18"/>
</g>
<!-- choice_EOS325_0_0 -->
<g id="node45" class="node">
<title>choice_EOS325_0_0</title>
<path fill="#fff7ee" stroke="#b7793f" stroke-width="1.1" d="M730,-287.26C730,-287.26 700,-287.26 700,-287.26 694,-287.26 688,-281.26 688,-275.26 688,-275.26 688,-263.26 688,-263.26 688,-257.26 694,-251.26 700,-251.26 700,-251.26 730,-251.26 730,-251.26 736,-251.26 742,-257.26 742,-263.26 742,-263.26 742,-275.26 742,-275.26 742,-281.26 736,-287.26 730,-287.26"/>
<text text-anchor="middle" x="715" y="-267.06" font-family="Avenir Next" font-size="9.00">1 of</text>
</g>
<!-- course__MATH200&#45;&gt;choice_EOS325_0_0 -->
<g id="edge49" class="edge">
<title>course__MATH200&#45;&gt;choice_EOS325_0_0</title>
<path fill="none" stroke="#7a8389" d="M430.36,-283.03C459.11,-278.51 494.26,-273.68 526,-271.26 580.01,-267.15 642.99,-267.53 680.62,-268.3"/>
<polygon fill="#7a8389" stroke="#7a8389" points="680.75,-270.76 687.8,-268.46 680.85,-265.86 680.75,-270.76"/>
</g>
<!-- course__PHYS102B&#45;&gt;course__EOS311 -->
<g id="edge39" class="edge">
<title>course__PHYS102B&#45;&gt;course__EOS311</title>
<path fill="none" stroke="#5d6972" stroke-width="1.2" d="M401.78,-351.6C411.42,-355.47 421.72,-360.64 430,-367.26 454.87,-387.12 447.41,-405.06 472,-425.26 488.13,-438.51 508.18,-449.16 526.9,-457.3"/>
<polygon fill="#5d6972" stroke="#5d6972" stroke-width="1.2" points="526.32,-459.71 533.72,-460.18 528.23,-455.2 526.32,-459.71"/>
</g>
<!-- course__EOS314 -->
<g id="node32" class="node">
<title>course__EOS314</title>
<g id="a_node32"><a xlink:href="../../../courses/EOS314.html" xlink:title="EOS314: Descriptive Physical Oceanography" target="_top">
<path fill="#d7e9ef" stroke="#1f4f66" stroke-width="1.6" d="M601,-390.26C601,-390.26 571,-390.26 571,-390.26 565,-390.26 559,-384.26 559,-378.26 559,-378.26 559,-366.26 559,-366.26 559,-360.26 565,-354.26 571,-354.26 571,-354.26 601,-354.26 601,-354.26 607,-354.26 613,-360.26 613,-366.26 613,-366.26 613,-378.26 613,-378.26 613,-384.26 607,-390.26 601,-390.26"/>
<text text-anchor="middle" x="586" y="-369.76" font-family="Avenir Next" font-size="10.00" fill="#17232b">EOS314</text>
</a>
</g>
</g>
<!-- course__PHYS102B&#45;&gt;course__EOS314 -->
<g id="edge48" class="edge">
<title>course__PHYS102B&#45;&gt;course__EOS314</title>
<path fill="none" stroke="#5d6972" stroke-width="1.2" d="M401.64,-346.5C441.21,-352.06 510.49,-361.79 551.62,-367.57"/>
<polygon fill="#5d6972" stroke="#5d6972" stroke-width="1.2" points="551.44,-370.02 558.71,-368.57 552.12,-365.17 551.44,-370.02"/>
</g>
<!-- course__PHYS102B&#45;&gt;course__EOS261 -->
<g id="edge32" class="edge">
<title>course__PHYS102B&#45;&gt;course__EOS261</title>
<path fill="none" stroke="#5d6972" stroke-width="1.2" d="M401.8,-331.89C411.23,-327.99 421.4,-323.08 430,-317.26 479.98,-283.46 476.69,-256.04 526,-221.26 534.13,-215.53 543.61,-210.44 552.57,-206.22"/>
<polygon fill="#5d6972" stroke="#5d6972" stroke-width="1.2" points="553.61,-208.44 558.97,-203.31 551.58,-203.98 553.61,-208.44"/>
</g>
<!-- course__EOS325 -->
<g id="node35" class="node">
<title>course__EOS325</title>
<g id="a_node35"><a xlink:href="../../../courses/EOS325.html" xlink:title="EOS325: Earth System Modelling" target="_top">
<path fill="#d7e9ef" stroke="#1f4f66" stroke-width="1.6" d="M826,-301.26C826,-301.26 796,-301.26 796,-301.26 790,-301.26 784,-295.26 784,-289.26 784,-289.26 784,-277.26 784,-277.26 784,-271.26 790,-265.26 796,-265.26 796,-265.26 826,-265.26 826,-265.26 832,-265.26 838,-271.26 838,-277.26 838,-277.26 838,-289.26 838,-289.26 838,-295.26 832,-301.26 826,-301.26"/>
<text text-anchor="middle" x="811" y="-280.76" font-family="Avenir Next" font-size="10.00" fill="#17232b">EOS325</text>
</a>
</g>
</g>
<!-- course__PHYS102B&#45;&gt;course__EOS325 -->
<g id="edge57" class="edge">
<title>course__PHYS102B&#45;&gt;course__EOS325</title>
<path fill="none" stroke="#5d6972" stroke-width="1.2" d="M401.72,-341.24C452.45,-339.22 557.85,-333.67 646,-320.26 691.74,-313.31 743.71,-300.78 776.66,-292.25"/>
<polygon fill="#5d6972" stroke="#5d6972" stroke-width="1.2" points="777.65,-294.52 783.8,-290.38 776.41,-289.78 777.65,-294.52"/>
</g>
<!-- course__EOS340 -->
<g id="node36" class="node">
<title>course__EOS340</title>
<g id="a_node36"><a xlink:href="../../../courses/EOS340.html" xlink:title="Equivalent or cross&#45;listed: EOS340: Atmospheric Physics | PHYS340: Atmospheric Physics" target="_top">
<path fill="#ead9b8" stroke="#8f6a3b" stroke-width="1.3" d="M1071,-341.26C1071,-341.26 988,-341.26 988,-341.26 982,-341.26 976,-335.26 976,-329.26 976,-329.26 976,-317.26 976,-317.26 976,-311.26 982,-305.26 988,-305.26 988,-305.26 1071,-305.26 1071,-305.26 1077,-305.26 1083,-311.26 1083,-317.26 1083,-317.26 1083,-329.26 1083,-329.26 1083,-335.26 1077,-341.26 1071,-341.26"/>
<text text-anchor="middle" x="1029.5" y="-320.76" font-family="Avenir Next" font-size="10.00" fill="#3f3120">EOS340 / PHYS340</text>
</a>
</g>
</g>
<!-- course__PHYS102B&#45;&gt;course__EOS340 -->
<g id="edge59" class="edge">
<title>course__PHYS102B&#45;&gt;course__EOS340</title>
<path fill="none" stroke="#5d6972" stroke-width="1.2" d="M401.71,-354.41C439.35,-369.29 501.66,-393.06 526,-397.26 686.86,-425.04 877.83,-373.95 971.26,-343.53"/>
<polygon fill="#5d6972" stroke="#5d6972" stroke-width="1.2" points="972.2,-345.8 978.09,-341.28 970.67,-341.14 972.2,-345.8"/>
</g>
<!-- course__EOS431 -->
<g id="node37" class="node">
<title>course__EOS431</title>
<g id="a_node37"><a xlink:href="../../../courses/EOS431.html" xlink:title="Equivalent or cross&#45;listed: EOS431: Physical Oceanography | PHYS441: Physical Oceanography" target="_top">
<path fill="#f9f9f9" stroke="#363636" d="M1069.5,-292.26C1069.5,-292.26 989.5,-292.26 989.5,-292.26 983.5,-292.26 977.5,-286.26 977.5,-280.26 977.5,-280.26 977.5,-268.26 977.5,-268.26 977.5,-262.26 983.5,-256.26 989.5,-256.26 989.5,-256.26 1069.5,-256.26 1069.5,-256.26 1075.5,-256.26 1081.5,-262.26 1081.5,-268.26 1081.5,-268.26 1081.5,-280.26 1081.5,-280.26 1081.5,-286.26 1075.5,-292.26 1069.5,-292.26"/>
<text text-anchor="middle" x="1029.5" y="-272.06" font-family="Avenir Next" font-size="9.00" fill="#363636">EOS431 / PHYS441</text>
</a>
</g>
</g>
<!-- course__PHYS102B&#45;&gt;course__EOS431 -->
<g id="edge72" class="edge">
<title>course__PHYS102B&#45;&gt;course__EOS431</title>
<path fill="none" stroke="#5d6972" stroke-width="1.2" d="M401.67,-329.66C410.81,-325.77 420.84,-321.41 430,-317.26 473.1,-297.74 481.21,-286.51 526,-271.26 606.87,-243.72 628.57,-231.26 714,-231.26 714,-231.26 714,-231.26 812,-231.26 866.56,-231.26 927.4,-244.56 970.66,-256.37"/>
<polygon fill="#5d6972" stroke="#5d6972" stroke-width="1.2" points="970.05,-258.74 977.45,-258.25 971.36,-254.02 970.05,-258.74"/>
</g>
<!-- course__BIOL150A&#45;&gt;course__BIOL186 -->
<g id="edge2" class="edge">
<title>course__BIOL150A&#45;&gt;course__BIOL186</title>
<path fill="none" stroke="#5d6972" stroke-width="1.2" d="M333.35,-887.8C308.51,-888.77 275.73,-888.75 251.21,-887.74"/>
<polygon fill="#5d6972" stroke="#5d6972" stroke-width="1.2" points="251.31,-885.29 244.21,-887.42 251.09,-890.19 251.31,-885.29"/>
</g>
<!-- course__EOS210&#45;&gt;choice_EOS325_0_2_0 -->
<g id="edge51" class="edge">
<title>course__EOS210&#45;&gt;choice_EOS325_0_2_0</title>
<path fill="none" stroke="#7a8389" d="M415.92,-199.16C446.33,-187.78 487.9,-174.16 526,-168.26 578.71,-160.1 592.72,-165.92 646,-168.26 657.36,-168.76 669.76,-169.73 680.83,-170.75"/>
<polygon fill="#7a8389" stroke="#7a8389" points="680.68,-173.19 687.88,-171.42 681.14,-168.31 680.68,-173.19"/>
</g>
<!-- course__CHEM362 -->
<g id="node28" class="node">
<title>course__CHEM362</title>
<g id="a_node28"><a xlink:href="../../../courses/CHEM362.html" xlink:title="CHEM362: Inorganic Chemistry Laboratory" target="_top">
<path fill="#d7e9ef" stroke="#1f4f66" stroke-width="1.6" d="M606,-698.26C606,-698.26 566,-698.26 566,-698.26 560,-698.26 554,-692.26 554,-686.26 554,-686.26 554,-674.26 554,-674.26 554,-668.26 560,-662.26 566,-662.26 566,-662.26 606,-662.26 606,-662.26 612,-662.26 618,-668.26 618,-674.26 618,-674.26 618,-686.26 618,-686.26 618,-692.26 612,-698.26 606,-698.26"/>
<text text-anchor="middle" x="586" y="-677.76" font-family="Avenir Next" font-size="10.00" fill="#17232b">CHEM362</text>
</a>
</g>
</g>
<!-- course__CHEM363 -->
<g id="node29" class="node">
<title>course__CHEM363</title>
<g id="a_node29"><a xlink:href="../../../courses/CHEM363.html" xlink:title="CHEM363: Organic Chemistry Laboratory" target="_top">
<path fill="#d7e9ef" stroke="#1f4f66" stroke-width="1.6" d="M606,-762.26C606,-762.26 566,-762.26 566,-762.26 560,-762.26 554,-756.26 554,-750.26 554,-750.26 554,-738.26 554,-738.26 554,-732.26 560,-726.26 566,-726.26 566,-726.26 606,-726.26 606,-726.26 612,-726.26 618,-732.26 618,-738.26 618,-738.26 618,-750.26 618,-750.26 618,-756.26 612,-762.26 606,-762.26"/>
<text text-anchor="middle" x="586" y="-741.76" font-family="Avenir Next" font-size="10.00" fill="#17232b">CHEM363</text>
</a>
</g>
</g>
<!-- course__EOS311&#45;&gt;choice_EOS401_0 -->
<g id="edge65" class="edge">
<title>course__EOS311&#45;&gt;choice_EOS401_0</title>
<path fill="none" stroke="#7a8389" d="M638.27,-484.12C683.4,-489.56 750.94,-496.26 810,-496.26 810,-496.26 810,-496.26 1153,-496.26 1208.16,-496.26 1271.89,-488.23 1309.74,-482.61"/>
<polygon fill="#7a8389" stroke="#7a8389" points="1310.4,-484.99 1316.96,-481.53 1309.67,-480.15 1310.4,-484.99"/>
</g>
<!-- course__EOS314&#45;&gt;choice_EOS312_0_0 -->
<g id="edge41" class="edge">
<title>course__EOS314&#45;&gt;choice_EOS312_0_0</title>
<path fill="none" stroke="#7a8389" d="M613.07,-370.14C654.68,-366.94 738.68,-361.26 810,-361.26 810,-361.26 810,-361.26 908,-361.26 986.03,-361.26 1007.24,-365.92 1083,-347.26 1094.87,-344.34 1107.32,-339.58 1118.27,-334.75"/>
<polygon fill="#7a8389" stroke="#7a8389" points="1119.52,-336.87 1124.88,-331.75 1117.49,-332.41 1119.52,-336.87"/>
</g>
<!-- course__EOS314&#45;&gt;choice_EOS325_0_2_0 -->
<g id="edge54" class="edge">
<title>course__EOS314&#45;&gt;choice_EOS325_0_2_0</title>
<path fill="none" stroke="#7a8389" d="M611.83,-354.23C623.29,-345.02 636.43,-333.05 646,-320.26 661.15,-300 688.85,-235.45 703.8,-199.33"/>
<polygon fill="#7a8389" stroke="#7a8389" points="706.21,-199.92 706.61,-192.51 701.68,-198.05 706.21,-199.92"/>
</g>
<!-- choice_EOS401_0_3 -->
<g id="node48" class="node">
<title>choice_EOS401_0_3</title>
<path fill="#fff7ee" stroke="#b7793f" stroke-width="1.1" d="M1167,-433.26C1167,-433.26 1137,-433.26 1137,-433.26 1131,-433.26 1125,-427.26 1125,-421.26 1125,-421.26 1125,-409.26 1125,-409.26 1125,-403.26 1131,-397.26 1137,-397.26 1137,-397.26 1167,-397.26 1167,-397.26 1173,-397.26 1179,-403.26 1179,-409.26 1179,-409.26 1179,-421.26 1179,-421.26 1179,-427.26 1173,-433.26 1167,-433.26"/>
<text text-anchor="middle" x="1152" y="-413.06" font-family="Avenir Next" font-size="9.00">1 of</text>
</g>
<!-- course__EOS314&#45;&gt;choice_EOS401_0_3 -->
<g id="edge63" class="edge">
<title>course__EOS314&#45;&gt;choice_EOS401_0_3</title>
<path fill="none" stroke="#7a8389" d="M613.07,-374.25C705.21,-381.27 1015.44,-404.93 1117.87,-412.74"/>
<polygon fill="#7a8389" stroke="#7a8389" points="1117.71,-415.18 1124.88,-413.27 1118.09,-410.3 1117.71,-415.18"/>
</g>
<!-- course__MATH204&#45;&gt;choice_EOS325_0_0 -->
<g id="edge50" class="edge">
<title>course__MATH204&#45;&gt;choice_EOS325_0_0</title>
<path fill="none" stroke="#7a8389" d="M617.74,-289.73C636.83,-285.67 661.37,-280.45 680.88,-276.3"/>
<polygon fill="#7a8389" stroke="#7a8389" points="681.49,-278.68 687.83,-274.83 680.47,-273.88 681.49,-278.68"/>
</g>
<!-- choice_EOS340_1 -->
<g id="node47" class="node">
<title>choice_EOS340_1</title>
<path fill="#fff7ee" stroke="#b7793f" stroke-width="1.1" d="M922,-328.26C922,-328.26 892,-328.26 892,-328.26 886,-328.26 880,-322.26 880,-316.26 880,-316.26 880,-304.26 880,-304.26 880,-298.26 886,-292.26 892,-292.26 892,-292.26 922,-292.26 922,-292.26 928,-292.26 934,-298.26 934,-304.26 934,-304.26 934,-316.26 934,-316.26 934,-322.26 928,-328.26 922,-328.26"/>
<text text-anchor="middle" x="907" y="-308.06" font-family="Avenir Next" font-size="9.00">1 of</text>
</g>
<!-- course__MATH204&#45;&gt;choice_EOS340_1 -->
<g id="edge61" class="edge">
<title>course__MATH204&#45;&gt;choice_EOS340_1</title>
<path fill="none" stroke="#7a8389" d="M617.7,-298.27C656.44,-300.74 725.13,-304.89 784,-307.26 813.93,-308.46 848.01,-309.25 872.53,-309.72"/>
<polygon fill="#7a8389" stroke="#7a8389" points="872.77,-312.17 879.81,-309.85 872.86,-307.28 872.77,-312.17"/>
</g>
<!-- course__EOS261&#45;&gt;choice_EOS325_0_2_0 -->
<g id="edge53" class="edge">
<title>course__EOS261&#45;&gt;choice_EOS325_0_2_0</title>
<path fill="none" stroke="#7a8389" d="M613.01,-189.37C632.57,-186.44 659.52,-182.41 680.66,-179.25"/>
<polygon fill="#7a8389" stroke="#7a8389" points="681.03,-181.67 687.59,-178.21 680.31,-176.83 681.03,-181.67"/>
</g>
<!-- course__EOS325&#45;&gt;choice_EOS340_1 -->
<g id="edge60" class="edge">
<title>course__EOS325&#45;&gt;choice_EOS340_1</title>
<path fill="none" stroke="#7a8389" d="M838.18,-290.78C848.98,-293.88 861.61,-297.51 873.03,-300.79"/>
<polygon fill="#7a8389" stroke="#7a8389" points="872.55,-303.2 879.96,-302.78 873.9,-298.49 872.55,-303.2"/>
</g>
<!-- course__EOS431&#45;&gt;choice_EOS312_0_0 -->
<g id="edge42" class="edge">
<title>course__EOS431&#45;&gt;choice_EOS312_0_0</title>
<path fill="none" stroke="#7a8389" d="M1079.86,-292.29C1092.79,-297.01 1106.41,-301.98 1118.24,-306.3"/>
<polygon fill="#7a8389" stroke="#7a8389" points="1117.56,-308.66 1124.98,-308.76 1119.24,-304.06 1117.56,-308.66"/>
</g>
<!-- course__EOS431&#45;&gt;choice_EOS401_0_3 -->
<g id="edge64" class="edge">
<title>course__EOS431&#45;&gt;choice_EOS401_0_3</title>
<path fill="none" stroke="#7a8389" d="M1075.29,-292.28C1078.02,-294.12 1080.62,-296.11 1083,-298.26 1111.44,-324.05 1131.28,-364.58 1141.91,-390.53"/>
<polygon fill="#7a8389" stroke="#7a8389" points="1139.67,-391.53 1144.54,-397.12 1144.22,-389.71 1139.67,-391.53"/>
</g>
<!-- course__EOS312&#45;&gt;choice_EOS401_0 -->
<g id="edge66" class="edge">
<title>course__EOS312&#45;&gt;choice_EOS401_0</title>
<path fill="none" stroke="#7a8389" d="M1275.18,-463.55C1285.98,-465.74 1298.61,-468.29 1310.03,-470.6"/>
<polygon fill="#7a8389" stroke="#7a8389" points="1309.61,-473.01 1316.96,-472 1310.58,-468.21 1309.61,-473.01"/>
</g>
<!-- course__EOS401 -->
<g id="node39" class="node">
<title>course__EOS401</title>
<g id="a_node39"><a xlink:href="../../../courses/EOS401.html" xlink:title="EOS401: Oceanographic Field School" target="_top">
<path fill="#d7e9ef" stroke="#1f4f66" stroke-width="1.6" d="M1455,-495.26C1455,-495.26 1425,-495.26 1425,-495.26 1419,-495.26 1413,-489.26 1413,-483.26 1413,-483.26 1413,-471.26 1413,-471.26 1413,-465.26 1419,-459.26 1425,-459.26 1425,-459.26 1455,-459.26 1455,-459.26 1461,-459.26 1467,-465.26 1467,-471.26 1467,-471.26 1467,-483.26 1467,-483.26 1467,-489.26 1461,-495.26 1455,-495.26"/>
<text text-anchor="middle" x="1440" y="-474.76" font-family="Avenir Next" font-size="10.00" fill="#17232b">EOS401</text>
</a>
</g>
</g>
<!-- bundle_CHEM362_0_1&#45;&gt;course__CHEM362 -->
<g id="edge18" class="edge">
<title>bundle_CHEM362_0_1&#45;&gt;course__CHEM362</title>
<path fill="none" stroke="#5d6972" stroke-width="1.2" d="M484.11,-680.26C495.36,-680.26 523.11,-680.26 546.66,-680.26"/>
<polygon fill="#5d6972" stroke="#5d6972" stroke-width="1.2" points="546.81,-682.71 553.81,-680.26 546.81,-677.81 546.81,-682.71"/>
</g>
<!-- bundle_CHEM363_0_1&#45;&gt;course__CHEM363 -->
<g id="edge21" class="edge">
<title>bundle_CHEM363_0_1&#45;&gt;course__CHEM363</title>
<path fill="none" stroke="#5d6972" stroke-width="1.2" d="M484.11,-744.26C495.36,-744.26 523.11,-744.26 546.66,-744.26"/>
<polygon fill="#5d6972" stroke="#5d6972" stroke-width="1.2" points="546.81,-746.71 553.81,-744.26 546.81,-741.81 546.81,-746.71"/>
</g>
<!-- choice_EOS261_0_4&#45;&gt;course__EOS261 -->
<g id="edge33" class="edge">
<title>choice_EOS261_0_4&#45;&gt;course__EOS261</title>
<path fill="none" stroke="#5d6972" stroke-width="1.2" d="M397.68,-128.34C436.6,-141.83 509.68,-167.16 552.15,-181.87"/>
<polygon fill="#5d6972" stroke="#5d6972" stroke-width="1.2" points="551.52,-184.25 558.94,-184.23 553.13,-179.62 551.52,-184.25"/>
</g>
<!-- choice_EOS311_0_2&#45;&gt;course__EOS311 -->
<g id="edge38" class="edge">
<title>choice_EOS311_0_2&#45;&gt;course__EOS311</title>
<path fill="none" stroke="#5d6972" stroke-width="1.2" d="M396.31,-409.5C415.94,-423.13 444.53,-441.24 472,-452.26 489.28,-459.2 508.87,-464.39 526.82,-468.19"/>
<polygon fill="#5d6972" stroke="#5d6972" stroke-width="1.2" points="526.52,-470.63 533.87,-469.63 527.5,-465.83 526.52,-470.63"/>
</g>
<!-- choice_EOS311_0_2&#45;&gt;course__EOS314 -->
<g id="edge47" class="edge">
<title>choice_EOS311_0_2&#45;&gt;course__EOS314</title>
<path fill="none" stroke="#5d6972" stroke-width="1.2" d="M397.68,-388.93C436.52,-385.48 509.38,-378.99 551.88,-375.21"/>
<polygon fill="#5d6972" stroke="#5d6972" stroke-width="1.2" points="552.19,-377.64 558.94,-374.58 551.75,-372.76 552.19,-377.64"/>
</g>
<!-- choice_EOS312_0_0&#45;&gt;course__EOS312 -->
<g id="edge43" class="edge">
<title>choice_EOS312_0_0&#45;&gt;course__EOS312</title>
<path fill="none" stroke="#5d6972" stroke-width="1.2" d="M1165.1,-336.28C1181.78,-361.13 1211.92,-406.02 1230.62,-433.86"/>
<polygon fill="#5d6972" stroke="#5d6972" stroke-width="1.2" points="1228.72,-435.42 1234.65,-439.87 1232.78,-432.69 1228.72,-435.42"/>
</g>
<!-- choice_EOS325_0_0&#45;&gt;course__EOS325 -->
<g id="edge56" class="edge">
<title>choice_EOS325_0_0&#45;&gt;course__EOS325</title>
<path fill="none" stroke="#5d6972" stroke-width="1.2" d="M742.18,-273.16C752.98,-274.77 765.61,-276.65 777.03,-278.35"/>
<polygon fill="#5d6972" stroke="#5d6972" stroke-width="1.2" points="776.67,-280.77 783.96,-279.38 777.39,-275.93 776.67,-280.77"/>
</g>
<!-- choice_EOS325_0_2_0&#45;&gt;course__EOS325 -->
<g id="edge58" class="edge">
<title>choice_EOS325_0_2_0&#45;&gt;course__EOS325</title>
<path fill="none" stroke="#5d6972" stroke-width="1.2" d="M731.95,-192.75C747.84,-211.18 772.32,-239.56 789.61,-259.62"/>
<polygon fill="#5d6972" stroke="#5d6972" stroke-width="1.2" points="787.86,-261.34 794.29,-265.04 791.57,-258.14 787.86,-261.34"/>
</g>
<!-- choice_EOS340_1&#45;&gt;course__EOS340 -->
<g id="edge62" class="edge">
<title>choice_EOS340_1&#45;&gt;course__EOS340</title>
<path fill="none" stroke="#5d6972" stroke-width="1.2" d="M934.15,-313.08C944.33,-314.18 956.45,-315.49 968.56,-316.79"/>
<polygon fill="#5d6972" stroke="#5d6972" stroke-width="1.2" points="968.45,-319.25 975.67,-317.56 968.97,-314.38 968.45,-319.25"/>
</g>
<!-- choice_EOS340_1&#45;&gt;course__EOS431 -->
<g id="edge71" class="edge">
<title>choice_EOS340_1&#45;&gt;course__EOS431</title>
<path fill="none" stroke="#5d6972" stroke-width="1.2" d="M934.15,-302.45C944.78,-299.27 957.52,-295.47 970.15,-291.7"/>
<polygon fill="#5d6972" stroke="#5d6972" stroke-width="1.2" points="971.13,-293.96 977.14,-289.61 969.73,-289.26 971.13,-293.96"/>
</g>
<!-- choice_EOS401_0_3&#45;&gt;choice_EOS401_0 -->
<g id="edge68" class="edge">
<title>choice_EOS401_0_3&#45;&gt;choice_EOS401_0</title>
<path fill="none" stroke="#7a8389" d="M1179.01,-416.25C1204.25,-417.91 1243.29,-422.36 1275,-434.26 1288.59,-439.36 1302.34,-447.41 1313.9,-455.16"/>
<polygon fill="#7a8389" stroke="#7a8389" points="1312.57,-457.22 1319.72,-459.17 1315.35,-453.19 1312.57,-457.22"/>
</g>
<!-- choice_EOS401_0&#45;&gt;course__EOS401 -->
<g id="edge69" class="edge">
<title>choice_EOS401_0&#45;&gt;course__EOS401</title>
<path fill="none" stroke="#5d6972" stroke-width="1.2" d="M1371.18,-477.26C1381.88,-477.26 1394.38,-477.26 1405.71,-477.26"/>
<polygon fill="#5d6972" stroke="#5d6972" stroke-width="1.2" points="1405.96,-479.71 1412.96,-477.26 1405.96,-474.81 1405.96,-479.71"/>
</g>
</g>
</svg>
