<?xml version="1.0" encoding="UTF-8" standalone="no"?>
<!DOCTYPE svg PUBLIC "-//W3C//DTD SVG 1.1//EN"
 "http://www.w3.org/Graphics/SVG/1.1/DTD/svg11.dtd">
<!-- Generated by graphviz version 2.43.0 (0)
 -->
<!-- Title: BSC&#45;CGSD Pages: 1 -->
<svg width="864pt" height="1845pt"
 viewBox="0.00 0.00 864.04 1845.02" xmlns="http://www.w3.org/2000/svg" xmlns:xlink="http://www.w3.org/1999/xlink">
<g id="graph0" class="graph" transform="scale(1 1) rotate(0) translate(11.52 1833.5)">
<title>BSC&#45;CGSD</title>
<g id="clust1" class="cluster">
<title>cluster_year&#45;1</title>
<path fill="transparent" stroke="#c8d0d5" stroke-dasharray="5,2" d="M20,-485.98C20,-485.98 382.5,-485.98 382.5,-485.98 388.5,-485.98 394.5,-491.98 394.5,-497.98 394.5,-497.98 394.5,-766.98 394.5,-766.98 394.5,-772.98 388.5,-778.98 382.5,-778.98 382.5,-778.98 20,-778.98 20,-778.98 14,-778.98 8,-772.98 8,-766.98 8,-766.98 8,-497.98 8,-497.98 8,-491.98 14,-485.98 20,-485.98"/>
<text text-anchor="middle" x="201.25" y="-766.18" font-family="Avenir Next" font-size="11.00">Year 1</text>
</g>
<g id="clust2" class="cluster">
<title>cluster_year&#45;2</title>
<path fill="transparent" stroke="#c8d0d5" stroke-dasharray="5,2" d="M288,-908.98C288,-908.98 540,-908.98 540,-908.98 546,-908.98 552,-914.98 552,-920.98 552,-920.98 552,-1287.98 552,-1287.98 552,-1293.98 546,-1299.98 540,-1299.98 540,-1299.98 288,-1299.98 288,-1299.98 282,-1299.98 276,-1293.98 276,-1287.98 276,-1287.98 276,-920.98 276,-920.98 276,-914.98 282,-908.98 288,-908.98"/>
<text text-anchor="middle" x="414" y="-1287.18" font-family="Avenir Next" font-size="11.00">Year 2</text>
</g>
<g id="clust3" class="cluster">
<title>cluster_years&#45;3&#45;4</title>
<path fill="transparent" stroke="#c8d0d5" stroke-dasharray="5,2" d="M601,-981.98C601,-981.98 821,-981.98 821,-981.98 827,-981.98 833,-987.98 833,-993.98 833,-993.98 833,-1801.98 833,-1801.98 833,-1807.98 827,-1813.98 821,-1813.98 821,-1813.98 601,-1813.98 601,-1813.98 595,-1813.98 589,-1807.98 589,-1801.98 589,-1801.98 589,-993.98 589,-993.98 589,-987.98 595,-981.98 601,-981.98"/>
<text text-anchor="middle" x="711" y="-1801.18" font-family="Avenir Next" font-size="11.00">Years 3 + 4</text>
</g>
<!-- course__CHEM091 -->
<g id="node1" class="node">
<title>course__CHEM091</title>
<g id="a_node1"><a xlink:href="../../../courses/CHEM091.html" xlink:title="CHEM091: Introduction to Chemistry" target="_top">
<path fill="#d7e9ef" stroke="#1f4f66" stroke-width="1.6" d="M102,-682.98C102,-682.98 62,-682.98 62,-682.98 56,-682.98 50,-676.98 50,-670.98 50,-670.98 50,-658.98 50,-658.98 50,-652.98 56,-646.98 62,-646.98 62,-646.98 102,-646.98 102,-646.98 108,-646.98 114,-652.98 114,-658.98 114,-658.98 114,-670.98 114,-670.98 114,-676.98 108,-682.98 102,-682.98"/>
<text text-anchor="middle" x="82" y="-662.48" font-family="Avenir Next" font-size="10.00" fill="#17232b">CHEM091</text>
</a>
</g>
</g>
<!-- course__CHEM102 -->
<g id="node6" class="node">
<title>course__CHEM102</title>
<g id="a_node6"><a xlink:href="../../../courses/CHEM102.html" xlink:title="CHEM102: Chemical Reactivity Fundamentals with Environmental Applications" target="_top">
<path fill="#d7e9ef" stroke="#1f4f66" stroke-width="1.6" d="M236,-744.98C236,-744.98 196,-744.98 196,-744.98 190,-744.98 184,-738.98 184,-732.98 184,-732.98 184,-720.98 184,-720.98 184,-714.98 190,-708.98 196,-708.98 196,-708.98 236,-708.98 236,-708.98 242,-708.98 248,-714.98 248,-720.98 248,-720.98 248,-732.98 248,-732.98 248,-738.98 242,-744.98 236,-744.98"/>
<text text-anchor="middle" x="216" y="-724.48" font-family="Avenir Next" font-size="10.00" fill="#17232b">CHEM102</text>
</a>
</g>
</g>
<!-- course__CHEM091&#45;&gt;course__CHEM102 -->
<g id="edge6" class="edge">
<title>course__CHEM091&#45;&gt;course__CHEM102</title>
<path fill="none" stroke="#5d6972" stroke-width="1.2" d="M114.1,-677.69C123.15,-681.52 133.02,-685.81 142,-689.98 153.63,-695.39 166.14,-701.58 177.46,-707.34"/>
<polygon fill="#5d6972" stroke="#5d6972" stroke-width="1.2" points="176.62,-709.66 183.97,-710.67 178.85,-705.3 176.62,-709.66"/>
</g>
<!-- course__CHEM101 -->
<g id="node2" class="node">
<title>course__CHEM101</title>
<g id="a_node2"><a xlink:href="../../../courses/CHEM101.html" xlink:title="Equivalent or cross&#45;listed: CHEM101: Fundamentals of Chemistry from Atoms to Materials | CHEM150: Engineering Chemistry" target="_top">
<path fill="#d7e9ef" stroke="#1f4f66" stroke-width="1.6" d="M130,-731.98C130,-731.98 34,-731.98 34,-731.98 28,-731.98 22,-725.98 22,-719.98 22,-719.98 22,-707.98 22,-707.98 22,-701.98 28,-695.98 34,-695.98 34,-695.98 130,-695.98 130,-695.98 136,-695.98 142,-701.98 142,-707.98 142,-707.98 142,-719.98 142,-719.98 142,-725.98 136,-731.98 130,-731.98"/>
<text text-anchor="middle" x="82" y="-711.48" font-family="Avenir Next" font-size="10.00" fill="#17232b">CHEM101 / CHEM150</text>
</a>
</g>
</g>
<!-- course__CHEM101&#45;&gt;course__CHEM102 -->
<g id="edge7" class="edge">
<title>course__CHEM101&#45;&gt;course__CHEM102</title>
<path fill="none" stroke="#5d6972" stroke-width="1.2" d="M142.05,-719.8C153.76,-720.95 165.77,-722.13 176.58,-723.2"/>
<polygon fill="#5d6972" stroke="#5d6972" stroke-width="1.2" points="176.64,-725.67 183.85,-723.91 177.12,-720.79 176.64,-725.67"/>
</g>
<!-- course__CHEM231 -->
<g id="node10" class="node">
<title>course__CHEM231</title>
<g id="a_node10"><a xlink:href="../../../courses/CHEM231.html" xlink:title="CHEM231: Introduction to Organic Chemistry" target="_top">
<path fill="#d7e9ef" stroke="#1f4f66" stroke-width="1.6" d="M369.5,-1105.98C369.5,-1105.98 329.5,-1105.98 329.5,-1105.98 323.5,-1105.98 317.5,-1099.98 317.5,-1093.98 317.5,-1093.98 317.5,-1081.98 317.5,-1081.98 317.5,-1075.98 323.5,-1069.98 329.5,-1069.98 329.5,-1069.98 369.5,-1069.98 369.5,-1069.98 375.5,-1069.98 381.5,-1075.98 381.5,-1081.98 381.5,-1081.98 381.5,-1093.98 381.5,-1093.98 381.5,-1099.98 375.5,-1105.98 369.5,-1105.98"/>
<text text-anchor="middle" x="349.5" y="-1085.48" font-family="Avenir Next" font-size="10.00" fill="#17232b">CHEM231</text>
</a>
</g>
</g>
<!-- course__CHEM101&#45;&gt;course__CHEM231 -->
<g id="edge11" class="edge">
<title>course__CHEM101&#45;&gt;course__CHEM231</title>
<path fill="none" stroke="#5d6972" stroke-width="1.2" d="M135.76,-732.01C138.02,-733.82 140.12,-735.8 142,-737.98 193.9,-798.28 153.71,-838.42 184,-911.98 214.06,-985 214.26,-1014.75 276,-1063.98 285.88,-1071.86 298.45,-1077.2 310.34,-1080.8"/>
<polygon fill="#5d6972" stroke="#5d6972" stroke-width="1.2" points="309.83,-1083.2 317.23,-1082.72 311.15,-1078.48 309.83,-1083.2"/>
</g>
<!-- course__EOS110 -->
<g id="node3" class="node">
<title>course__EOS110</title>
<g id="a_node3"><a xlink:href="../../../courses/EOS110.html" xlink:title="Equivalent or cross&#45;listed: EOS110: Oceans and Atmosphere | EOS350: Understanding the Oceans" target="_top">
<path fill="#d7e9ef" stroke="#1f4f66" stroke-width="1.6" d="M120.5,-535.98C120.5,-535.98 43.5,-535.98 43.5,-535.98 37.5,-535.98 31.5,-529.98 31.5,-523.98 31.5,-523.98 31.5,-511.98 31.5,-511.98 31.5,-505.98 37.5,-499.98 43.5,-499.98 43.5,-499.98 120.5,-499.98 120.5,-499.98 126.5,-499.98 132.5,-505.98 132.5,-511.98 132.5,-511.98 132.5,-523.98 132.5,-523.98 132.5,-529.98 126.5,-535.98 120.5,-535.98"/>
<text text-anchor="middle" x="82" y="-515.48" font-family="Avenir Next" font-size="10.00" fill="#17232b">EOS110 / EOS350</text>
</a>
</g>
</g>
<!-- choice_EOS230_0_1 -->
<g id="node60" class="node">
<title>choice_EOS230_0_1</title>
<path fill="#fff7ee" stroke="#b7793f" stroke-width="1.1" d="M678,-400.98C678,-400.98 648,-400.98 648,-400.98 642,-400.98 636,-394.98 636,-388.98 636,-388.98 636,-376.98 636,-376.98 636,-370.98 642,-364.98 648,-364.98 648,-364.98 678,-364.98 678,-364.98 684,-364.98 690,-370.98 690,-376.98 690,-376.98 690,-388.98 690,-388.98 690,-394.98 684,-400.98 678,-400.98"/>
<text text-anchor="middle" x="663" y="-380.78" font-family="Avenir Next" font-size="9.00">1 of</text>
</g>
<!-- course__EOS110&#45;&gt;choice_EOS230_0_1 -->
<g id="edge34" class="edge">
<title>course__EOS110&#45;&gt;choice_EOS230_0_1</title>
<path fill="none" stroke="#7a8389" d="M95.97,-499.76C113.21,-477.15 145.97,-439.44 184,-421.98 337.39,-351.56 547.57,-368.21 628.43,-378.19"/>
<polygon fill="#7a8389" stroke="#7a8389" points="628.59,-380.68 635.84,-379.14 629.21,-375.82 628.59,-380.68"/>
</g>
<!-- choice_EOS312_0_0 -->
<g id="node62" class="node">
<title>choice_EOS312_0_0</title>
<path fill="#fff7ee" stroke="#b7793f" stroke-width="1.1" d="M678,-218.98C678,-218.98 648,-218.98 648,-218.98 642,-218.98 636,-212.98 636,-206.98 636,-206.98 636,-194.98 636,-194.98 636,-188.98 642,-182.98 648,-182.98 648,-182.98 678,-182.98 678,-182.98 684,-182.98 690,-188.98 690,-194.98 690,-194.98 690,-206.98 690,-206.98 690,-212.98 684,-218.98 678,-218.98"/>
<text text-anchor="middle" x="663" y="-198.78" font-family="Avenir Next" font-size="9.00">1 of</text>
</g>
<!-- course__EOS110&#45;&gt;choice_EOS312_0_0 -->
<g id="edge47" class="edge">
<title>course__EOS110&#45;&gt;choice_EOS312_0_0</title>
<path fill="none" stroke="#7a8389" d="M93.26,-499.77C130.74,-435.4 267.73,-218.6 451,-145.98 496.45,-127.97 513.62,-133.92 561,-145.98 575.03,-149.56 605.58,-166.73 629.43,-180.95"/>
<polygon fill="#7a8389" stroke="#7a8389" points="628.39,-183.18 635.65,-184.68 630.91,-178.98 628.39,-183.18"/>
</g>
<!-- course__EOS120 -->
<g id="node4" class="node">
<title>course__EOS120</title>
<g id="a_node4"><a xlink:href="../../../courses/EOS120.html" xlink:title="EOS120: The Dynamic Earth" target="_top">
<path fill="#d7e9ef" stroke="#1f4f66" stroke-width="1.6" d="M97,-633.98C97,-633.98 67,-633.98 67,-633.98 61,-633.98 55,-627.98 55,-621.98 55,-621.98 55,-609.98 55,-609.98 55,-603.98 61,-597.98 67,-597.98 67,-597.98 97,-597.98 97,-597.98 103,-597.98 109,-603.98 109,-609.98 109,-609.98 109,-621.98 109,-621.98 109,-627.98 103,-633.98 97,-633.98"/>
<text text-anchor="middle" x="82" y="-613.48" font-family="Avenir Next" font-size="10.00" fill="#17232b">EOS120</text>
</a>
</g>
</g>
<!-- course__EOS205 -->
<g id="node15" class="node">
<title>course__EOS205</title>
<g id="a_node15"><a xlink:href="../../../courses/EOS205.html" xlink:title="EOS205: Mineralogy" target="_top">
<path fill="#d7e9ef" stroke="#1f4f66" stroke-width="1.6" d="M364.5,-1056.98C364.5,-1056.98 334.5,-1056.98 334.5,-1056.98 328.5,-1056.98 322.5,-1050.98 322.5,-1044.98 322.5,-1044.98 322.5,-1032.98 322.5,-1032.98 322.5,-1026.98 328.5,-1020.98 334.5,-1020.98 334.5,-1020.98 364.5,-1020.98 364.5,-1020.98 370.5,-1020.98 376.5,-1026.98 376.5,-1032.98 376.5,-1032.98 376.5,-1044.98 376.5,-1044.98 376.5,-1050.98 370.5,-1056.98 364.5,-1056.98"/>
<text text-anchor="middle" x="349.5" y="-1036.48" font-family="Avenir Next" font-size="10.00" fill="#17232b">EOS205</text>
</a>
</g>
</g>
<!-- course__EOS120&#45;&gt;course__EOS205 -->
<g id="edge30" class="edge">
<title>course__EOS120&#45;&gt;course__EOS205</title>
<path fill="none" stroke="#5d6972" stroke-width="1.2" d="M109.21,-622.09C120.55,-625.88 133.21,-631.84 142,-640.98 178.56,-679 164.92,-702.81 184,-751.98 211.85,-823.77 223.55,-839.97 248,-912.98 262.93,-957.56 243.63,-980.89 276,-1014.98 286.26,-1025.79 301.49,-1031.73 315.34,-1035"/>
<polygon fill="#5d6972" stroke="#5d6972" stroke-width="1.2" points="315.08,-1037.45 322.43,-1036.48 316.08,-1032.65 315.08,-1037.45"/>
</g>
<!-- course__EOS202 -->
<g id="node47" class="node">
<title>course__EOS202</title>
<g id="a_node47"><a xlink:href="../../../courses/EOS202.html" xlink:title="EOS202: Structural Geology" target="_top">
<path fill="#f9f9f9" stroke="#363636" d="M521,-737.98C521,-737.98 491,-737.98 491,-737.98 485,-737.98 479,-731.98 479,-725.98 479,-725.98 479,-713.98 479,-713.98 479,-707.98 485,-701.98 491,-701.98 491,-701.98 521,-701.98 521,-701.98 527,-701.98 533,-707.98 533,-713.98 533,-713.98 533,-725.98 533,-725.98 533,-731.98 527,-737.98 521,-737.98"/>
<text text-anchor="middle" x="506" y="-717.78" font-family="Avenir Next" font-size="9.00" fill="#363636">EOS202</text>
</a>
</g>
</g>
<!-- course__EOS120&#45;&gt;course__EOS202 -->
<g id="edge29" class="edge">
<title>course__EOS120&#45;&gt;course__EOS202</title>
<path fill="none" stroke="#5d6972" stroke-width="1.2" d="M109.03,-609.7C120.33,-605.87 133.01,-599.93 142,-590.98 175.58,-557.54 144.44,-519.07 184,-492.98 207.75,-477.32 220.32,-486.41 248,-492.98 325.94,-511.48 356.3,-513.66 409,-573.98 446.73,-617.17 412.25,-653.71 451,-695.98 456.8,-702.3 464.56,-707.06 472.4,-710.59"/>
<polygon fill="#5d6972" stroke="#5d6972" stroke-width="1.2" points="471.55,-712.89 478.95,-713.28 473.41,-708.35 471.55,-712.89"/>
</g>
<!-- course__MATH100 -->
<g id="node5" class="node">
<title>course__MATH100</title>
<g id="a_node5"><a xlink:href="../../../courses/MATH100.html" xlink:title="Collapsed in simplified view: MATH100: Calculus I | MATH102: Calculus for Students in the Social and Biological Sciences | MATH109: Introduction to Calculus" target="_top">
<path fill="#d7e9ef" stroke="#1f4f66" stroke-width="1.6" d="M102,-584.98C102,-584.98 62,-584.98 62,-584.98 56,-584.98 50,-578.98 50,-572.98 50,-572.98 50,-560.98 50,-560.98 50,-554.98 56,-548.98 62,-548.98 62,-548.98 102,-548.98 102,-548.98 108,-548.98 114,-554.98 114,-560.98 114,-560.98 114,-572.98 114,-572.98 114,-578.98 108,-584.98 102,-584.98"/>
<text text-anchor="middle" x="82" y="-564.48" font-family="Avenir Next" font-size="10.00" fill="#17232b">Calculus I</text>
</a>
</g>
</g>
<!-- course__MATH100&#45;&gt;course__CHEM102 -->
<g id="edge8" class="edge">
<title>course__MATH100&#45;&gt;course__CHEM102</title>
<path fill="none" stroke="#5d6972" stroke-width="1.2" d="M114.08,-575.07C123.83,-578.74 134.11,-583.89 142,-590.98 175.95,-621.5 197.04,-671.62 207.35,-701.74"/>
<polygon fill="#5d6972" stroke="#5d6972" stroke-width="1.2" points="205.09,-702.71 209.63,-708.58 209.74,-701.17 205.09,-702.71"/>
</g>
<!-- course__MATH101 -->
<g id="node7" class="node">
<title>course__MATH101</title>
<g id="a_node7"><a xlink:href="../../../courses/MATH101.html" xlink:title="MATH101: Calculus II" target="_top">
<path fill="#d7e9ef" stroke="#1f4f66" stroke-width="1.6" d="M235.5,-584.98C235.5,-584.98 196.5,-584.98 196.5,-584.98 190.5,-584.98 184.5,-578.98 184.5,-572.98 184.5,-572.98 184.5,-560.98 184.5,-560.98 184.5,-554.98 190.5,-548.98 196.5,-548.98 196.5,-548.98 235.5,-548.98 235.5,-548.98 241.5,-548.98 247.5,-554.98 247.5,-560.98 247.5,-560.98 247.5,-572.98 247.5,-572.98 247.5,-578.98 241.5,-584.98 235.5,-584.98"/>
<text text-anchor="middle" x="216" y="-564.48" font-family="Avenir Next" font-size="10.00" fill="#17232b">MATH101</text>
</a>
</g>
</g>
<!-- course__MATH100&#45;&gt;course__MATH101 -->
<g id="edge87" class="edge">
<title>course__MATH100&#45;&gt;course__MATH101</title>
<path fill="none" stroke="#5d6972" stroke-width="1.2" d="M114.28,-566.98C133.16,-566.98 157.33,-566.98 177.26,-566.98"/>
<polygon fill="#5d6972" stroke="#5d6972" stroke-width="1.2" points="177.4,-569.43 184.4,-566.98 177.4,-564.53 177.4,-569.43"/>
</g>
<!-- course__PHYS102A -->
<g id="node8" class="node">
<title>course__PHYS102A</title>
<g id="a_node8"><a xlink:href="../../../courses/PHYS102A.html" xlink:title="Collapsed in simplified view: PHYS102A: General Physics I | PHYS110: Introductory Physics I | PHYS120: Physics I" target="_top">
<path fill="#d7e9ef" stroke="#1f4f66" stroke-width="1.6" d="M233.5,-535.98C233.5,-535.98 198.5,-535.98 198.5,-535.98 192.5,-535.98 186.5,-529.98 186.5,-523.98 186.5,-523.98 186.5,-511.98 186.5,-511.98 186.5,-505.98 192.5,-499.98 198.5,-499.98 198.5,-499.98 233.5,-499.98 233.5,-499.98 239.5,-499.98 245.5,-505.98 245.5,-511.98 245.5,-511.98 245.5,-523.98 245.5,-523.98 245.5,-529.98 239.5,-535.98 233.5,-535.98"/>
<text text-anchor="middle" x="216" y="-515.48" font-family="Avenir Next" font-size="10.00" fill="#17232b">Physics I</text>
</a>
</g>
</g>
<!-- course__MATH100&#45;&gt;course__PHYS102A -->
<g id="edge93" class="edge">
<title>course__MATH100&#45;&gt;course__PHYS102A</title>
<path fill="none" stroke="#5d6972" stroke-width="1.2" d="M114.28,-555.37C133.87,-548.1 159.17,-538.71 179.51,-531.16"/>
<polygon fill="#5d6972" stroke="#5d6972" stroke-width="1.2" points="180.49,-533.41 186.2,-528.67 178.78,-528.81 180.49,-533.41"/>
</g>
<!-- course__PHYS102B -->
<g id="node9" class="node">
<title>course__PHYS102B</title>
<g id="a_node9"><a xlink:href="../../../courses/PHYS102B.html" xlink:title="Collapsed in simplified view: PHYS102B: General Physics II | PHYS111: Introductory Physics II | PHYS130: Physics II" target="_top">
<path fill="#d7e9ef" stroke="#1f4f66" stroke-width="1.6" d="M368.5,-616.98C368.5,-616.98 330.5,-616.98 330.5,-616.98 324.5,-616.98 318.5,-610.98 318.5,-604.98 318.5,-604.98 318.5,-592.98 318.5,-592.98 318.5,-586.98 324.5,-580.98 330.5,-580.98 330.5,-580.98 368.5,-580.98 368.5,-580.98 374.5,-580.98 380.5,-586.98 380.5,-592.98 380.5,-592.98 380.5,-604.98 380.5,-604.98 380.5,-610.98 374.5,-616.98 368.5,-616.98"/>
<text text-anchor="middle" x="349.5" y="-596.48" font-family="Avenir Next" font-size="10.00" fill="#17232b">Physics II</text>
</a>
</g>
</g>
<!-- course__MATH100&#45;&gt;course__PHYS102B -->
<g id="edge95" class="edge">
<title>course__MATH100&#45;&gt;course__PHYS102B</title>
<path fill="none" stroke="#5d6972" stroke-width="1.2" d="M114.11,-575.95C133.93,-581.27 160.27,-587.61 184,-590.98 227.29,-597.13 277.57,-598.78 311.03,-599.12"/>
<polygon fill="#5d6972" stroke="#5d6972" stroke-width="1.2" points="311.31,-601.58 318.33,-599.18 311.34,-596.68 311.31,-601.58"/>
</g>
<!-- course__CSC110 -->
<g id="node46" class="node">
<title>course__CSC110</title>
<g id="a_node46"><a xlink:href="../../../courses/CSC110.html" xlink:title="Collapsed in simplified view: CSC110: Fundamentals of Programming I | CSC111: Fundamentals of Programming with Engineering Applications" target="_top">
<path fill="#f9f9f9" stroke="#363636" d="M536,-639.98C536,-639.98 476,-639.98 476,-639.98 470,-639.98 464,-633.98 464,-627.98 464,-627.98 464,-615.98 464,-615.98 464,-609.98 470,-603.98 476,-603.98 476,-603.98 536,-603.98 536,-603.98 542,-603.98 548,-609.98 548,-615.98 548,-615.98 548,-627.98 548,-627.98 548,-633.98 542,-639.98 536,-639.98"/>
<text text-anchor="middle" x="506" y="-619.78" font-family="Avenir Next" font-size="9.00" fill="#363636">Programming I</text>
</a>
</g>
</g>
<!-- course__MATH100&#45;&gt;course__CSC110 -->
<g id="edge27" class="edge">
<title>course__MATH100&#45;&gt;course__CSC110</title>
<path fill="none" stroke="#5d6972" stroke-width="1.2" d="M114.17,-558.86C124.05,-555.05 134.37,-549.61 142,-541.98 175.8,-508.19 144.15,-469.37 184,-442.98 225.69,-415.38 369.26,-412.63 409,-442.98 465.38,-486.05 405.2,-542.8 451,-596.98 453.03,-599.38 455.33,-601.56 457.82,-603.54"/>
<polygon fill="#5d6972" stroke="#5d6972" stroke-width="1.2" points="456.78,-605.8 463.92,-607.81 459.59,-601.79 456.78,-605.8"/>
</g>
<!-- choice_EOS314_0_0 -->
<g id="node63" class="node">
<title>choice_EOS314_0_0</title>
<path fill="#fff7ee" stroke="#b7793f" stroke-width="1.1" d="M678,-66.98C678,-66.98 648,-66.98 648,-66.98 642,-66.98 636,-60.98 636,-54.98 636,-54.98 636,-42.98 636,-42.98 636,-36.98 642,-30.98 648,-30.98 648,-30.98 678,-30.98 678,-30.98 684,-30.98 690,-36.98 690,-42.98 690,-42.98 690,-54.98 690,-54.98 690,-60.98 684,-66.98 678,-66.98"/>
<text text-anchor="middle" x="663" y="-46.78" font-family="Avenir Next" font-size="9.00">2 of</text>
</g>
<!-- course__MATH100&#45;&gt;choice_EOS314_0_0 -->
<g id="edge52" class="edge">
<title>course__MATH100&#45;&gt;choice_EOS314_0_0</title>
<path fill="none" stroke="#7a8389" d="M114.16,-559.26C124.15,-555.46 134.54,-549.93 142,-541.98 180.65,-500.77 159.01,-472.66 184,-421.98 279.83,-227.61 260.37,-117.05 451,-13.98 508.32,17.01 586.21,-10.94 629.53,-31.58"/>
<polygon fill="#7a8389" stroke="#7a8389" points="628.55,-33.83 635.92,-34.69 630.7,-29.42 628.55,-33.83"/>
</g>
<!-- course__CHEM212 -->
<g id="node11" class="node">
<title>course__CHEM212</title>
<g id="a_node11"><a xlink:href="../../../courses/CHEM212.html" xlink:title="CHEM212: Introduction to Quantitative Analysis" target="_top">
<path fill="#d7e9ef" stroke="#1f4f66" stroke-width="1.6" d="M369.5,-1154.98C369.5,-1154.98 329.5,-1154.98 329.5,-1154.98 323.5,-1154.98 317.5,-1148.98 317.5,-1142.98 317.5,-1142.98 317.5,-1130.98 317.5,-1130.98 317.5,-1124.98 323.5,-1118.98 329.5,-1118.98 329.5,-1118.98 369.5,-1118.98 369.5,-1118.98 375.5,-1118.98 381.5,-1124.98 381.5,-1130.98 381.5,-1130.98 381.5,-1142.98 381.5,-1142.98 381.5,-1148.98 375.5,-1154.98 369.5,-1154.98"/>
<text text-anchor="middle" x="349.5" y="-1134.48" font-family="Avenir Next" font-size="10.00" fill="#17232b">CHEM212</text>
</a>
</g>
</g>
<!-- course__CHEM102&#45;&gt;course__CHEM212 -->
<g id="edge9" class="edge">
<title>course__CHEM102&#45;&gt;course__CHEM212</title>
<path fill="none" stroke="#5d6972" stroke-width="1.2" d="M217.34,-745.29C218.98,-814.1 228.1,-1056.27 276,-1112.98 284.59,-1123.15 297.59,-1129.04 310.23,-1132.43"/>
<polygon fill="#5d6972" stroke="#5d6972" stroke-width="1.2" points="309.8,-1134.85 317.18,-1134.07 310.93,-1130.08 309.8,-1134.85"/>
</g>
<!-- course__CHEM225 -->
<g id="node12" class="node">
<title>course__CHEM225</title>
<g id="a_node12"><a xlink:href="../../../courses/CHEM225.html" xlink:title="CHEM225: Introduction to Inorganic Chemistry" target="_top">
<path fill="#d7e9ef" stroke="#1f4f66" stroke-width="1.6" d="M369.5,-1252.98C369.5,-1252.98 329.5,-1252.98 329.5,-1252.98 323.5,-1252.98 317.5,-1246.98 317.5,-1240.98 317.5,-1240.98 317.5,-1228.98 317.5,-1228.98 317.5,-1222.98 323.5,-1216.98 329.5,-1216.98 329.5,-1216.98 369.5,-1216.98 369.5,-1216.98 375.5,-1216.98 381.5,-1222.98 381.5,-1228.98 381.5,-1228.98 381.5,-1240.98 381.5,-1240.98 381.5,-1246.98 375.5,-1252.98 369.5,-1252.98"/>
<text text-anchor="middle" x="349.5" y="-1232.48" font-family="Avenir Next" font-size="10.00" fill="#17232b">CHEM225</text>
</a>
</g>
</g>
<!-- course__CHEM102&#45;&gt;course__CHEM225 -->
<g id="edge10" class="edge">
<title>course__CHEM102&#45;&gt;course__CHEM225</title>
<path fill="none" stroke="#5d6972" stroke-width="1.2" d="M218.08,-745.21C223.17,-828.95 245.86,-1174.19 276,-1210.98 284.51,-1221.37 297.62,-1227.29 310.38,-1230.66"/>
<polygon fill="#5d6972" stroke="#5d6972" stroke-width="1.2" points="310.02,-1233.09 317.39,-1232.28 311.12,-1228.32 310.02,-1233.09"/>
</g>
<!-- course__CHEM245 -->
<g id="node13" class="node">
<title>course__CHEM245</title>
<g id="a_node13"><a xlink:href="../../../courses/CHEM245.html" xlink:title="CHEM245: Introduction to Thermodynamics" target="_top">
<path fill="#d7e9ef" stroke="#1f4f66" stroke-width="1.6" d="M369.5,-1203.98C369.5,-1203.98 329.5,-1203.98 329.5,-1203.98 323.5,-1203.98 317.5,-1197.98 317.5,-1191.98 317.5,-1191.98 317.5,-1179.98 317.5,-1179.98 317.5,-1173.98 323.5,-1167.98 329.5,-1167.98 329.5,-1167.98 369.5,-1167.98 369.5,-1167.98 375.5,-1167.98 381.5,-1173.98 381.5,-1179.98 381.5,-1179.98 381.5,-1191.98 381.5,-1191.98 381.5,-1197.98 375.5,-1203.98 369.5,-1203.98"/>
<text text-anchor="middle" x="349.5" y="-1183.48" font-family="Avenir Next" font-size="10.00" fill="#17232b">CHEM245</text>
</a>
</g>
</g>
<!-- course__CHEM102&#45;&gt;course__CHEM245 -->
<g id="edge14" class="edge">
<title>course__CHEM102&#45;&gt;course__CHEM245</title>
<path fill="none" stroke="#5d6972" stroke-width="1.2" d="M216.99,-745.02C217.3,-818.83 222.08,-1097.04 276,-1161.98 284.58,-1172.31 297.71,-1178.22 310.45,-1181.6"/>
<polygon fill="#5d6972" stroke="#5d6972" stroke-width="1.2" points="310.09,-1184.03 317.46,-1183.22 311.2,-1179.25 310.09,-1184.03"/>
</g>
<!-- course__CHEM260 -->
<g id="node14" class="node">
<title>course__CHEM260</title>
<g id="a_node14"><a xlink:href="../../../courses/CHEM260.html" xlink:title="CHEM260: Synthetic Chemistry Laboratory" target="_top">
<path fill="#d7e9ef" stroke="#1f4f66" stroke-width="1.6" d="M526,-1141.98C526,-1141.98 486,-1141.98 486,-1141.98 480,-1141.98 474,-1135.98 474,-1129.98 474,-1129.98 474,-1117.98 474,-1117.98 474,-1111.98 480,-1105.98 486,-1105.98 486,-1105.98 526,-1105.98 526,-1105.98 532,-1105.98 538,-1111.98 538,-1117.98 538,-1117.98 538,-1129.98 538,-1129.98 538,-1135.98 532,-1141.98 526,-1141.98"/>
<text text-anchor="middle" x="506" y="-1121.48" font-family="Avenir Next" font-size="10.00" fill="#17232b">CHEM260</text>
</a>
</g>
</g>
<!-- course__CHEM102&#45;&gt;course__CHEM260 -->
<g id="edge15" class="edge">
<title>course__CHEM102&#45;&gt;course__CHEM260</title>
<path fill="none" stroke="#5d6972" stroke-width="1.2" d="M218.44,-745.06C222.06,-777.81 234.46,-847.01 276,-883.98 321.49,-924.47 366.32,-873.54 409,-916.98 467.48,-976.51 397.94,-1035.57 451,-1099.98 455.31,-1105.22 461,-1109.35 467.06,-1112.6"/>
<polygon fill="#5d6972" stroke="#5d6972" stroke-width="1.2" points="466.36,-1114.98 473.74,-1115.79 468.47,-1110.56 466.36,-1114.98"/>
</g>
<!-- course__CHEM102&#45;&gt;course__EOS205 -->
<g id="edge31" class="edge">
<title>course__CHEM102&#45;&gt;course__EOS205</title>
<path fill="none" stroke="#5d6972" stroke-width="1.2" d="M220.45,-745.07C232.39,-807.41 271.41,-1009.82 276,-1014.98 285.98,-1026.21 301.32,-1032.2 315.32,-1035.39"/>
<polygon fill="#5d6972" stroke="#5d6972" stroke-width="1.2" points="315.14,-1037.85 322.49,-1036.81 316.1,-1033.04 315.14,-1037.85"/>
</g>
<!-- course__EOS261 -->
<g id="node19" class="node">
<title>course__EOS261</title>
<g id="a_node19"><a xlink:href="../../../courses/EOS261.html" xlink:title="EOS261: The Climate System" target="_top">
<path fill="#d7e9ef" stroke="#1f4f66" stroke-width="1.6" d="M364.5,-958.98C364.5,-958.98 334.5,-958.98 334.5,-958.98 328.5,-958.98 322.5,-952.98 322.5,-946.98 322.5,-946.98 322.5,-934.98 322.5,-934.98 322.5,-928.98 328.5,-922.98 334.5,-922.98 334.5,-922.98 364.5,-922.98 364.5,-922.98 370.5,-922.98 376.5,-928.98 376.5,-934.98 376.5,-934.98 376.5,-946.98 376.5,-946.98 376.5,-952.98 370.5,-958.98 364.5,-958.98"/>
<text text-anchor="middle" x="349.5" y="-938.48" font-family="Avenir Next" font-size="10.00" fill="#17232b">EOS261</text>
</a>
</g>
</g>
<!-- course__CHEM102&#45;&gt;course__EOS261 -->
<g id="edge42" class="edge">
<title>course__CHEM102&#45;&gt;course__EOS261</title>
<path fill="none" stroke="#5d6972" stroke-width="1.2" d="M217.73,-745.15C220.15,-781.7 230.63,-864.74 276,-912.98 286.31,-923.95 301.4,-930.67 315.15,-934.77"/>
<polygon fill="#5d6972" stroke="#5d6972" stroke-width="1.2" points="314.79,-937.21 322.19,-936.68 316.07,-932.48 314.79,-937.21"/>
</g>
<!-- course__EOS312 -->
<g id="node40" class="node">
<title>course__EOS312</title>
<g id="a_node40"><a xlink:href="../../../courses/EOS312.html" xlink:title="EOS312: Introductory Chemical Oceanography" target="_top">
<path fill="#efd8cf" stroke="#8f5945" stroke-width="1.3" d="M678,-1080.98C678,-1080.98 648,-1080.98 648,-1080.98 642,-1080.98 636,-1074.98 636,-1068.98 636,-1068.98 636,-1056.98 636,-1056.98 636,-1050.98 642,-1044.98 648,-1044.98 648,-1044.98 678,-1044.98 678,-1044.98 684,-1044.98 690,-1050.98 690,-1056.98 690,-1056.98 690,-1068.98 690,-1068.98 690,-1074.98 684,-1080.98 678,-1080.98"/>
<text text-anchor="middle" x="663" y="-1060.48" font-family="Avenir Next" font-size="10.00" fill="#3f251d">EOS312</text>
</a>
</g>
</g>
<!-- course__CHEM102&#45;&gt;course__EOS312 -->
<g id="edge51" class="edge">
<title>course__CHEM102&#45;&gt;course__EOS312</title>
<path fill="none" stroke="#5d6972" stroke-width="1.2" d="M248.07,-729.44C324.61,-736.16 519.06,-757.54 561,-803.98 631.5,-882.04 522.38,-957.58 589,-1038.98 598.73,-1050.87 614.48,-1056.92 628.86,-1059.98"/>
<polygon fill="#5d6972" stroke="#5d6972" stroke-width="1.2" points="628.45,-1062.39 635.78,-1061.25 629.34,-1057.57 628.45,-1062.39"/>
</g>
<!-- course__CHEM234 -->
<g id="node49" class="node">
<title>course__CHEM234</title>
<g id="a_node49"><a xlink:href="../../../courses/CHEM234.html" xlink:title="CHEM234: Organic Chemistry with Biological Applications" target="_top">
<path fill="#f9f9f9" stroke="#363636" d="M524.5,-894.98C524.5,-894.98 487.5,-894.98 487.5,-894.98 481.5,-894.98 475.5,-888.98 475.5,-882.98 475.5,-882.98 475.5,-870.98 475.5,-870.98 475.5,-864.98 481.5,-858.98 487.5,-858.98 487.5,-858.98 524.5,-858.98 524.5,-858.98 530.5,-858.98 536.5,-864.98 536.5,-870.98 536.5,-870.98 536.5,-882.98 536.5,-882.98 536.5,-888.98 530.5,-894.98 524.5,-894.98"/>
<text text-anchor="middle" x="506" y="-874.78" font-family="Avenir Next" font-size="9.00" fill="#363636">CHEM234</text>
</a>
</g>
</g>
<!-- course__CHEM102&#45;&gt;course__CHEM234 -->
<g id="edge12" class="edge">
<title>course__CHEM102&#45;&gt;course__CHEM234</title>
<path fill="none" stroke="#5d6972" stroke-width="1.2" d="M219.26,-745.16C223.99,-774.58 237.85,-832.07 276,-858.98 333.18,-899.33 419.58,-892.82 468.27,-884.73"/>
<polygon fill="#5d6972" stroke="#5d6972" stroke-width="1.2" points="468.98,-887.1 475.46,-883.48 468.14,-882.27 468.98,-887.1"/>
</g>
<!-- course__MATH101&#45;&gt;course__PHYS102B -->
<g id="edge96" class="edge">
<title>course__MATH101&#45;&gt;course__PHYS102B</title>
<path fill="none" stroke="#5d6972" stroke-width="1.2" d="M247.83,-574.48C266.84,-579.11 291.35,-585.07 311.42,-589.96"/>
<polygon fill="#5d6972" stroke="#5d6972" stroke-width="1.2" points="310.93,-592.36 318.32,-591.64 312.09,-587.6 310.93,-592.36"/>
</g>
<!-- course__MATH200 -->
<g id="node16" class="node">
<title>course__MATH200</title>
<g id="a_node16"><a xlink:href="../../../courses/MATH200.html" xlink:title="Equivalent or cross&#45;listed: MATH200: Calculus III | MATH202: Intermediate Calculus for CSC and EOS" target="_top">
<path fill="#d7e9ef" stroke="#1f4f66" stroke-width="1.6" d="M397,-1007.98C397,-1007.98 302,-1007.98 302,-1007.98 296,-1007.98 290,-1001.98 290,-995.98 290,-995.98 290,-983.98 290,-983.98 290,-977.98 296,-971.98 302,-971.98 302,-971.98 397,-971.98 397,-971.98 403,-971.98 409,-977.98 409,-983.98 409,-983.98 409,-995.98 409,-995.98 409,-1001.98 403,-1007.98 397,-1007.98"/>
<text text-anchor="middle" x="349.5" y="-987.48" font-family="Avenir Next" font-size="10.00" fill="#17232b">MATH200 / MATH202</text>
</a>
</g>
</g>
<!-- course__MATH101&#45;&gt;course__MATH200 -->
<g id="edge88" class="edge">
<title>course__MATH101&#45;&gt;course__MATH200</title>
<path fill="none" stroke="#5d6972" stroke-width="1.2" d="M221.91,-585.32C228.7,-611.32 240.92,-660.46 248,-702.98 257.66,-760.96 239.11,-920.23 276,-965.98 278.27,-968.8 280.89,-971.29 283.74,-973.49"/>
<polygon fill="#5d6972" stroke="#5d6972" stroke-width="1.2" points="282.73,-975.76 289.91,-977.61 285.45,-971.69 282.73,-975.76"/>
</g>
<!-- course__STAT254 -->
<g id="node26" class="node">
<title>course__STAT254</title>
<g id="a_node26"><a xlink:href="../../../courses/STAT254.html" xlink:title="Collapsed in simplified view: STAT254: Probability and Statistics for Engineers | STAT255: Statistics for Life Sciences I | STAT260: Introduction to Probability and Statistics I" target="_top">
<path fill="#d7e9ef" stroke="#1f4f66" stroke-width="1.6" d="M694,-1325.98C694,-1325.98 632,-1325.98 632,-1325.98 626,-1325.98 620,-1319.98 620,-1313.98 620,-1313.98 620,-1301.98 620,-1301.98 620,-1295.98 626,-1289.98 632,-1289.98 632,-1289.98 694,-1289.98 694,-1289.98 700,-1289.98 706,-1295.98 706,-1301.98 706,-1301.98 706,-1313.98 706,-1313.98 706,-1319.98 700,-1325.98 694,-1325.98"/>
<text text-anchor="middle" x="663" y="-1305.48" font-family="Avenir Next" font-size="10.00" fill="#17232b">Intro statistics</text>
</a>
</g>
</g>
<!-- course__MATH101&#45;&gt;course__STAT254 -->
<g id="edge100" class="edge">
<title>course__MATH101&#45;&gt;course__STAT254</title>
<path fill="none" stroke="#5d6972" stroke-width="1.2" d="M221.21,-585C227.26,-611.02 238.72,-660.64 248,-702.98 260.94,-761.99 230.25,-796.54 276,-835.98 324.06,-877.41 516.02,-808.24 561,-852.98 629.05,-920.67 530.23,-1208.1 589,-1283.98 595.05,-1291.79 603.7,-1297.09 612.95,-1300.68"/>
<polygon fill="#5d6972" stroke="#5d6972" stroke-width="1.2" points="612.34,-1303.06 619.76,-1303 613.93,-1298.42 612.34,-1303.06"/>
</g>
<!-- course__EOS210 -->
<g id="node50" class="node">
<title>course__EOS210</title>
<g id="a_node50"><a xlink:href="../../../courses/EOS210.html" xlink:title="Collapsed in simplified view: EOS210: Introductory Geophysics | PHYS210: Introductory Geophysics" target="_top">
<path fill="#f9f9f9" stroke="#363636" d="M540,-514.98C540,-514.98 472,-514.98 472,-514.98 466,-514.98 460,-508.98 460,-502.98 460,-502.98 460,-490.98 460,-490.98 460,-484.98 466,-478.98 472,-478.98 472,-478.98 540,-478.98 540,-478.98 546,-478.98 552,-484.98 552,-490.98 552,-490.98 552,-502.98 552,-502.98 552,-508.98 546,-514.98 540,-514.98"/>
<text text-anchor="middle" x="506" y="-494.78" font-family="Avenir Next" font-size="9.00" fill="#363636">Intro geophysics</text>
</a>
</g>
</g>
<!-- course__MATH101&#45;&gt;course__EOS210 -->
<g id="edge32" class="edge">
<title>course__MATH101&#45;&gt;course__EOS210</title>
<path fill="none" stroke="#5d6972" stroke-width="1.2" d="M247.56,-566.46C285.99,-565.1 353.62,-560.34 409,-543.98 414.86,-542.25 440.07,-529.88 463.19,-518.26"/>
<polygon fill="#5d6972" stroke="#5d6972" stroke-width="1.2" points="464.48,-520.35 469.63,-515.01 462.28,-515.97 464.48,-520.35"/>
</g>
<!-- choice_EOS261_0_4 -->
<g id="node61" class="node">
<title>choice_EOS261_0_4</title>
<path fill="#fff7ee" stroke="#b7793f" stroke-width="1.1" d="M678,-150.98C678,-150.98 648,-150.98 648,-150.98 642,-150.98 636,-144.98 636,-138.98 636,-138.98 636,-126.98 636,-126.98 636,-120.98 642,-114.98 648,-114.98 648,-114.98 678,-114.98 678,-114.98 684,-114.98 690,-120.98 690,-126.98 690,-126.98 690,-138.98 690,-138.98 690,-144.98 684,-150.98 678,-150.98"/>
<text text-anchor="middle" x="663" y="-130.78" font-family="Avenir Next" font-size="9.00">1 of</text>
</g>
<!-- course__MATH101&#45;&gt;choice_EOS261_0_4 -->
<g id="edge39" class="edge">
<title>course__MATH101&#45;&gt;choice_EOS261_0_4</title>
<path fill="none" stroke="#7a8389" d="M247.64,-554.57C256.68,-551.18 266.66,-547.69 276,-544.98 334.02,-528.16 368.36,-561.67 409,-516.98 520.65,-394.22 330.7,-260.28 451,-145.98 498.58,-100.78 582.64,-112.38 629,-123.49"/>
<polygon fill="#7a8389" stroke="#7a8389" points="628.45,-125.88 635.83,-125.19 629.63,-121.12 628.45,-125.88"/>
</g>
<!-- course__MATH101&#45;&gt;choice_EOS314_0_0 -->
<g id="edge53" class="edge">
<title>course__MATH101&#45;&gt;choice_EOS314_0_0</title>
<path fill="none" stroke="#7a8389" d="M239.75,-548.76C242.54,-546.49 245.34,-544.19 248,-541.98 260.6,-531.5 263.44,-528.51 276,-517.98 334.57,-468.89 372.41,-476.08 409,-408.98 448.2,-337.11 389.9,-97.47 451,-42.98 499.78,0.52 583,-19.5 629,-35.65"/>
<polygon fill="#7a8389" stroke="#7a8389" points="628.36,-38.03 635.78,-38.1 630.03,-33.42 628.36,-38.03"/>
</g>
<!-- course__PHYS102A&#45;&gt;course__PHYS102B -->
<g id="edge94" class="edge">
<title>course__PHYS102A&#45;&gt;course__PHYS102B</title>
<path fill="none" stroke="#5d6972" stroke-width="1.2" d="M245.53,-535.56C265.33,-547.75 291.85,-564.09 313.01,-577.12"/>
<polygon fill="#5d6972" stroke="#5d6972" stroke-width="1.2" points="311.87,-579.29 319.11,-580.88 314.44,-575.12 311.87,-579.29"/>
</g>
<!-- course__PHYS102A&#45;&gt;course__EOS210 -->
<g id="edge33" class="edge">
<title>course__PHYS102A&#45;&gt;course__EOS210</title>
<path fill="none" stroke="#5d6972" stroke-width="1.2" d="M245.67,-515.89C293.86,-512.38 391.79,-505.24 452.56,-500.81"/>
<polygon fill="#5d6972" stroke="#5d6972" stroke-width="1.2" points="452.98,-503.23 459.78,-500.28 452.62,-498.35 452.98,-503.23"/>
</g>
<!-- course__PHYS102B&#45;&gt;course__EOS261 -->
<g id="edge43" class="edge">
<title>course__PHYS102B&#45;&gt;course__EOS261</title>
<path fill="none" stroke="#5d6972" stroke-width="1.2" d="M333.56,-617.07C301.46,-655.77 234.39,-749.58 262,-829.48 274.15,-864.64 302.47,-897.16 323.62,-917.9"/>
<polygon fill="#5d6972" stroke="#5d6972" stroke-width="1.2" points="322.08,-919.82 328.83,-922.91 325.48,-916.29 322.08,-919.82"/>
</g>
<!-- course__EOS325 -->
<g id="node33" class="node">
<title>course__EOS325</title>
<g id="a_node33"><a xlink:href="../../../courses/EOS325.html" xlink:title="EOS325: Earth System Modelling" target="_top">
<path fill="#d7e9ef" stroke="#1f4f66" stroke-width="1.6" d="M678,-1178.98C678,-1178.98 648,-1178.98 648,-1178.98 642,-1178.98 636,-1172.98 636,-1166.98 636,-1166.98 636,-1154.98 636,-1154.98 636,-1148.98 642,-1142.98 648,-1142.98 648,-1142.98 678,-1142.98 678,-1142.98 684,-1142.98 690,-1148.98 690,-1154.98 690,-1154.98 690,-1166.98 690,-1166.98 690,-1172.98 684,-1178.98 678,-1178.98"/>
<text text-anchor="middle" x="663" y="-1158.48" font-family="Avenir Next" font-size="10.00" fill="#17232b">EOS325</text>
</a>
</g>
</g>
<!-- course__PHYS102B&#45;&gt;course__EOS325 -->
<g id="edge71" class="edge">
<title>course__PHYS102B&#45;&gt;course__EOS325</title>
<path fill="none" stroke="#5d6972" stroke-width="1.2" d="M359.37,-617.2C374.62,-647.03 408.35,-706.81 451,-744.98 492.34,-781.98 530.54,-757.61 561,-803.98 601.77,-866.05 542.97,-1078.71 589,-1136.98 598.59,-1149.13 614.48,-1155.19 628.99,-1158.2"/>
<polygon fill="#5d6972" stroke="#5d6972" stroke-width="1.2" points="628.65,-1160.62 635.97,-1159.44 629.51,-1155.8 628.65,-1160.62"/>
</g>
<!-- course__EOS314 -->
<g id="node51" class="node">
<title>course__EOS314</title>
<g id="a_node51"><a xlink:href="../../../courses/EOS314.html" xlink:title="EOS314: Descriptive Physical Oceanography" target="_top">
<path fill="#f9f9f9" stroke="#363636" d="M521,-188.98C521,-188.98 491,-188.98 491,-188.98 485,-188.98 479,-182.98 479,-176.98 479,-176.98 479,-164.98 479,-164.98 479,-158.98 485,-152.98 491,-152.98 491,-152.98 521,-152.98 521,-152.98 527,-152.98 533,-158.98 533,-164.98 533,-164.98 533,-176.98 533,-176.98 533,-182.98 527,-188.98 521,-188.98"/>
<text text-anchor="middle" x="506" y="-168.78" font-family="Avenir Next" font-size="9.00" fill="#363636">EOS314</text>
</a>
</g>
</g>
<!-- course__PHYS102B&#45;&gt;course__EOS314 -->
<g id="edge56" class="edge">
<title>course__PHYS102B&#45;&gt;course__EOS314</title>
<path fill="none" stroke="#5d6972" stroke-width="1.2" d="M377,-580.82C388.79,-571.28 401.64,-558.54 409,-543.98 479.48,-404.55 358.18,-320.65 451,-194.98 456.24,-187.89 464.04,-182.86 472.1,-179.3"/>
<polygon fill="#5d6972" stroke="#5d6972" stroke-width="1.2" points="473.26,-181.47 478.88,-176.64 471.47,-176.91 473.26,-181.47"/>
</g>
<!-- course__MATH248 -->
<g id="node52" class="node">
<title>course__MATH248</title>
<g id="a_node52"><a xlink:href="../../../courses/MATH248.html" xlink:title="Equivalent or cross&#45;listed: MATH248: Computer Assisted Mathematics | PHYS248: Computer Assisted Physics" target="_top">
<path fill="#f9f9f9" stroke="#363636" d="M549,-590.98C549,-590.98 463,-590.98 463,-590.98 457,-590.98 451,-584.98 451,-578.98 451,-578.98 451,-566.98 451,-566.98 451,-560.98 457,-554.98 463,-554.98 463,-554.98 549,-554.98 549,-554.98 555,-554.98 561,-560.98 561,-566.98 561,-566.98 561,-578.98 561,-578.98 561,-584.98 555,-590.98 549,-590.98"/>
<text text-anchor="middle" x="506" y="-570.78" font-family="Avenir Next" font-size="9.00" fill="#363636">MATH248 / PHYS248</text>
</a>
</g>
</g>
<!-- course__PHYS102B&#45;&gt;course__MATH248 -->
<g id="edge92" class="edge">
<title>course__PHYS102B&#45;&gt;course__MATH248</title>
<path fill="none" stroke="#5d6972" stroke-width="1.2" d="M380.66,-593.91C398.64,-590.88 422.14,-586.93 443.86,-583.27"/>
<polygon fill="#5d6972" stroke="#5d6972" stroke-width="1.2" points="444.34,-585.67 450.84,-582.1 443.53,-580.84 444.34,-585.67"/>
</g>
<!-- course__PHYS217 -->
<g id="node53" class="node">
<title>course__PHYS217</title>
<g id="a_node53"><a xlink:href="../../../courses/PHYS217.html" xlink:title="Equivalent or cross&#45;listed: PHYS217: Introductory Thermodynamics | PHYS317: Thermodynamics" target="_top">
<path fill="#f9f9f9" stroke="#363636" d="M548,-688.98C548,-688.98 464,-688.98 464,-688.98 458,-688.98 452,-682.98 452,-676.98 452,-676.98 452,-664.98 452,-664.98 452,-658.98 458,-652.98 464,-652.98 464,-652.98 548,-652.98 548,-652.98 554,-652.98 560,-658.98 560,-664.98 560,-664.98 560,-676.98 560,-676.98 560,-682.98 554,-688.98 548,-688.98"/>
<text text-anchor="middle" x="506" y="-668.78" font-family="Avenir Next" font-size="9.00" fill="#363636">PHYS217 / PHYS317</text>
</a>
</g>
</g>
<!-- course__PHYS102B&#45;&gt;course__PHYS217 -->
<g id="edge97" class="edge">
<title>course__PHYS102B&#45;&gt;course__PHYS217</title>
<path fill="none" stroke="#5d6972" stroke-width="1.2" d="M380.74,-613.69C400.64,-623.3 427.29,-636.06 451,-646.98 453.1,-647.95 455.24,-648.93 457.41,-649.92"/>
<polygon fill="#5d6972" stroke="#5d6972" stroke-width="1.2" points="456.58,-652.23 463.96,-652.88 458.6,-647.77 456.58,-652.23"/>
</g>
<!-- course__EOS431 -->
<g id="node54" class="node">
<title>course__EOS431</title>
<g id="a_node54"><a xlink:href="../../../courses/EOS431.html" xlink:title="Equivalent or cross&#45;listed: EOS431: Physical Oceanography | PHYS441: Physical Oceanography" target="_top">
<path fill="#f9f9f9" stroke="#363636" d="M546,-237.98C546,-237.98 466,-237.98 466,-237.98 460,-237.98 454,-231.98 454,-225.98 454,-225.98 454,-213.98 454,-213.98 454,-207.98 460,-201.98 466,-201.98 466,-201.98 546,-201.98 546,-201.98 552,-201.98 558,-207.98 558,-213.98 558,-213.98 558,-225.98 558,-225.98 558,-231.98 552,-237.98 546,-237.98"/>
<text text-anchor="middle" x="506" y="-217.78" font-family="Avenir Next" font-size="9.00" fill="#363636">EOS431 / PHYS441</text>
</a>
</g>
</g>
<!-- course__PHYS102B&#45;&gt;course__EOS431 -->
<g id="edge81" class="edge">
<title>course__PHYS102B&#45;&gt;course__EOS431</title>
<path fill="none" stroke="#5d6972" stroke-width="1.2" d="M376.87,-580.75C388.62,-571.19 401.49,-558.46 409,-543.98 470.19,-426.04 374.15,-356.38 451,-247.98 452.34,-246.09 453.86,-244.31 455.5,-242.65"/>
<polygon fill="#5d6972" stroke="#5d6972" stroke-width="1.2" points="457.15,-244.46 460.77,-237.99 453.9,-240.79 457.15,-244.46"/>
</g>
<!-- course__CHEM231&#45;&gt;course__CHEM260 -->
<g id="edge16" class="edge">
<title>course__CHEM231&#45;&gt;course__CHEM260</title>
<path fill="none" stroke="#5d6972" stroke-width="1.2" d="M381.77,-1095.27C406.27,-1100.98 440.47,-1108.95 466.63,-1115.04"/>
<polygon fill="#5d6972" stroke="#5d6972" stroke-width="1.2" points="466.41,-1117.51 473.78,-1116.71 467.52,-1112.73 466.41,-1117.51"/>
</g>
<!-- course__BIOC299 -->
<g id="node24" class="node">
<title>course__BIOC299</title>
<g id="a_node24"><a xlink:href="../../../courses/BIOC299.html" xlink:title="BIOC299: Biochemistry for Non&#45;Majors" target="_top">
<path fill="#ead9b8" stroke="#8f6a3b" stroke-width="1.3" d="M680.5,-1521.98C680.5,-1521.98 645.5,-1521.98 645.5,-1521.98 639.5,-1521.98 633.5,-1515.98 633.5,-1509.98 633.5,-1509.98 633.5,-1497.98 633.5,-1497.98 633.5,-1491.98 639.5,-1485.98 645.5,-1485.98 645.5,-1485.98 680.5,-1485.98 680.5,-1485.98 686.5,-1485.98 692.5,-1491.98 692.5,-1497.98 692.5,-1497.98 692.5,-1509.98 692.5,-1509.98 692.5,-1515.98 686.5,-1521.98 680.5,-1521.98"/>
<text text-anchor="middle" x="663" y="-1501.48" font-family="Avenir Next" font-size="10.00" fill="#3f3120">BIOC299</text>
</a>
</g>
</g>
<!-- course__CHEM231&#45;&gt;course__BIOC299 -->
<g id="edge3" class="edge">
<title>course__CHEM231&#45;&gt;course__BIOC299</title>
<path fill="none" stroke="#5d6972" stroke-width="1.2" d="M381.54,-1094.54C391.83,-1098.26 402.34,-1104.03 409,-1112.98 458.42,-1179.36 392.08,-1424.88 451,-1482.98 497,-1528.35 579.09,-1521.38 626.17,-1512.52"/>
<polygon fill="#5d6972" stroke="#5d6972" stroke-width="1.2" points="626.74,-1514.9 633.13,-1511.14 625.79,-1510.1 626.74,-1514.9"/>
</g>
<!-- course__CHEM231&#45;&gt;course__CHEM234 -->
<g id="edge13" class="edge">
<title>course__CHEM231&#45;&gt;course__CHEM234</title>
<path fill="none" stroke="#5d6972" stroke-width="1.2" d="M381.73,-1081.08C391.66,-1077.48 401.9,-1072.07 409,-1063.98 456.95,-1009.39 405.94,-962.99 451,-905.98 455.8,-899.91 462.23,-894.95 468.98,-890.95"/>
<polygon fill="#5d6972" stroke="#5d6972" stroke-width="1.2" points="470.25,-893.05 475.23,-887.55 467.91,-888.75 470.25,-893.05"/>
</g>
<!-- course__CHEM318 -->
<g id="node28" class="node">
<title>course__CHEM318</title>
<g id="a_node28"><a xlink:href="../../../courses/CHEM318.html" xlink:title="Equivalent or cross&#45;listed: CHEM318: Instrumental Techniques of Analysis | CHEM361: Analytical Chemistry Laboratory" target="_top">
<path fill="#d7e9ef" stroke="#1f4f66" stroke-width="1.6" d="M711,-1423.98C711,-1423.98 615,-1423.98 615,-1423.98 609,-1423.98 603,-1417.98 603,-1411.98 603,-1411.98 603,-1399.98 603,-1399.98 603,-1393.98 609,-1387.98 615,-1387.98 615,-1387.98 711,-1387.98 711,-1387.98 717,-1387.98 723,-1393.98 723,-1399.98 723,-1399.98 723,-1411.98 723,-1411.98 723,-1417.98 717,-1423.98 711,-1423.98"/>
<text text-anchor="middle" x="663" y="-1403.48" font-family="Avenir Next" font-size="10.00" fill="#17232b">CHEM318 / CHEM361</text>
</a>
</g>
</g>
<!-- course__CHEM212&#45;&gt;course__CHEM318 -->
<g id="edge17" class="edge">
<title>course__CHEM212&#45;&gt;course__CHEM318</title>
<path fill="none" stroke="#5d6972" stroke-width="1.2" d="M381.65,-1143.8C391.82,-1147.54 402.23,-1153.26 409,-1161.98 483.76,-1258.24 358.45,-1353.67 451,-1432.98 488.12,-1464.79 512.53,-1439.35 561,-1432.98 573.03,-1431.4 585.67,-1428.8 597.78,-1425.83"/>
<polygon fill="#5d6972" stroke="#5d6972" stroke-width="1.2" points="598.66,-1428.13 604.84,-1424.04 597.45,-1423.39 598.66,-1428.13"/>
</g>
<!-- course__CHEM364 -->
<g id="node31" class="node">
<title>course__CHEM364</title>
<g id="a_node31"><a xlink:href="../../../courses/CHEM364.html" xlink:title="CHEM364: Physical Chemistry Laboratory" target="_top">
<path fill="#d7e9ef" stroke="#1f4f66" stroke-width="1.6" d="M683,-1570.98C683,-1570.98 643,-1570.98 643,-1570.98 637,-1570.98 631,-1564.98 631,-1558.98 631,-1558.98 631,-1546.98 631,-1546.98 631,-1540.98 637,-1534.98 643,-1534.98 643,-1534.98 683,-1534.98 683,-1534.98 689,-1534.98 695,-1540.98 695,-1546.98 695,-1546.98 695,-1558.98 695,-1558.98 695,-1564.98 689,-1570.98 683,-1570.98"/>
<text text-anchor="middle" x="663" y="-1550.48" font-family="Avenir Next" font-size="10.00" fill="#17232b">CHEM364</text>
</a>
</g>
</g>
<!-- course__CHEM212&#45;&gt;course__CHEM364 -->
<g id="edge25" class="edge">
<title>course__CHEM212&#45;&gt;course__CHEM364</title>
<path fill="none" stroke="#5d6972" stroke-width="1.2" d="M381.51,-1143.56C391.79,-1147.28 402.31,-1153.06 409,-1161.98 502.72,-1286.98 344.85,-1396.36 451,-1510.98 494.93,-1558.42 575.94,-1560.91 623.78,-1557.54"/>
<polygon fill="#5d6972" stroke="#5d6972" stroke-width="1.2" points="624.09,-1559.98 630.88,-1556.99 623.71,-1555.09 624.09,-1559.98"/>
</g>
<!-- bundle_CHEM362_0_1 -->
<g id="node58" class="node">
<title>bundle_CHEM362_0_1</title>
<g id="a_node58"><a xlink:title="Grouped requirement junction">
<ellipse fill="#7a8790" stroke="#667780" cx="506" cy="-1606.98" rx="6" ry="6"/>
</a>
</g>
</g>
<!-- course__CHEM225&#45;&gt;bundle_CHEM362_0_1 -->
<g id="edge19" class="edge">
<title>course__CHEM225&#45;&gt;bundle_CHEM362_0_1</title>
<path fill="none" stroke="#7a8389" d="M381.76,-1241.15C391.94,-1244.7 402.32,-1250.27 409,-1258.98 499.44,-1377.06 354.7,-1477.64 451,-1590.98 461.28,-1603.09 480.25,-1606.27 492.75,-1606.98"/>
<polygon fill="#7a8389" stroke="#7a8389" points="492.81,-1609.44 499.87,-1607.16 492.93,-1604.54 492.81,-1609.44"/>
</g>
<!-- course__CHEM245&#45;&gt;course__CHEM364 -->
<g id="edge26" class="edge">
<title>course__CHEM245&#45;&gt;course__CHEM364</title>
<path fill="none" stroke="#5d6972" stroke-width="1.2" d="M381.51,-1192.56C391.8,-1196.28 402.31,-1202.05 409,-1210.98 456.35,-1274.22 391.93,-1511.53 451,-1563.98 475.67,-1585.89 569.89,-1571.57 623.71,-1561.12"/>
<polygon fill="#5d6972" stroke="#5d6972" stroke-width="1.2" points="624.31,-1563.5 630.7,-1559.74 623.36,-1558.7 624.31,-1563.5"/>
</g>
<!-- course__CHEM260&#45;&gt;course__CHEM318 -->
<g id="edge18" class="edge">
<title>course__CHEM260&#45;&gt;course__CHEM318</title>
<path fill="none" stroke="#5d6972" stroke-width="1.2" d="M512.3,-1142.22C529.04,-1199.58 580.17,-1373.07 589,-1381.98 591.4,-1384.4 594.04,-1386.58 596.86,-1388.54"/>
<polygon fill="#5d6972" stroke="#5d6972" stroke-width="1.2" points="595.63,-1390.65 602.87,-1392.25 598.2,-1386.49 595.63,-1390.65"/>
</g>
<!-- course__CHEM260&#45;&gt;bundle_CHEM362_0_1 -->
<g id="edge20" class="edge">
<title>course__CHEM260&#45;&gt;bundle_CHEM362_0_1</title>
<path fill="none" stroke="#7a8389" d="M496,-1142.19C478.45,-1175.29 442.76,-1248.04 430,-1314.48 418.68,-1373.4 394.39,-1536.19 430,-1584.48 444.45,-1604.08 475.22,-1607.33 492.86,-1607.48"/>
<polygon fill="#7a8389" stroke="#7a8389" points="492.97,-1609.93 499.93,-1607.37 492.89,-1605.03 492.97,-1609.93"/>
</g>
<!-- bundle_CHEM363_0_1 -->
<g id="node59" class="node">
<title>bundle_CHEM363_0_1</title>
<g id="a_node59"><a xlink:title="Grouped requirement junction">
<ellipse fill="#7a8790" stroke="#667780" cx="663" cy="-961.98" rx="6" ry="6"/>
</a>
</g>
</g>
<!-- course__CHEM260&#45;&gt;bundle_CHEM363_0_1 -->
<g id="edge23" class="edge">
<title>course__CHEM260&#45;&gt;bundle_CHEM363_0_1</title>
<path fill="none" stroke="#7a8389" d="M538.26,-1115.78C546.7,-1112.18 555.12,-1107.1 561,-1099.98 596.14,-1057.41 550,-1018.04 589,-978.98 605.13,-962.83 633.43,-960.83 649.65,-961.17"/>
<polygon fill="#7a8389" stroke="#7a8389" points="649.8,-963.63 656.9,-961.5 650.02,-958.74 649.8,-963.63"/>
</g>
<!-- course__EOS201 -->
<g id="node17" class="node">
<title>course__EOS201</title>
<g id="a_node17"><a xlink:href="../../../courses/EOS201.html" xlink:title="EOS201: Sedimentary Geology" target="_top">
<path fill="#d7e9ef" stroke="#1f4f66" stroke-width="1.6" d="M521,-1092.98C521,-1092.98 491,-1092.98 491,-1092.98 485,-1092.98 479,-1086.98 479,-1080.98 479,-1080.98 479,-1068.98 479,-1068.98 479,-1062.98 485,-1056.98 491,-1056.98 491,-1056.98 521,-1056.98 521,-1056.98 527,-1056.98 533,-1062.98 533,-1068.98 533,-1068.98 533,-1080.98 533,-1080.98 533,-1086.98 527,-1092.98 521,-1092.98"/>
<text text-anchor="middle" x="506" y="-1072.48" font-family="Avenir Next" font-size="10.00" fill="#17232b">EOS201</text>
</a>
</g>
</g>
<!-- course__EOS205&#45;&gt;course__EOS201 -->
<g id="edge28" class="edge">
<title>course__EOS205&#45;&gt;course__EOS201</title>
<path fill="none" stroke="#5d6972" stroke-width="1.2" d="M376.71,-1045.09C402.98,-1051.21 443.5,-1060.65 471.96,-1067.28"/>
<polygon fill="#5d6972" stroke="#5d6972" stroke-width="1.2" points="471.55,-1069.7 478.92,-1068.91 472.66,-1064.93 471.55,-1069.7"/>
</g>
<!-- course__EOS240 -->
<g id="node18" class="node">
<title>course__EOS240</title>
<g id="a_node18"><a xlink:href="../../../courses/EOS240.html" xlink:title="EOS240: Geochemistry" target="_top">
<path fill="#d7e9ef" stroke="#1f4f66" stroke-width="1.6" d="M521,-1043.98C521,-1043.98 491,-1043.98 491,-1043.98 485,-1043.98 479,-1037.98 479,-1031.98 479,-1031.98 479,-1019.98 479,-1019.98 479,-1013.98 485,-1007.98 491,-1007.98 491,-1007.98 521,-1007.98 521,-1007.98 527,-1007.98 533,-1013.98 533,-1019.98 533,-1019.98 533,-1031.98 533,-1031.98 533,-1037.98 527,-1043.98 521,-1043.98"/>
<text text-anchor="middle" x="506" y="-1023.48" font-family="Avenir Next" font-size="10.00" fill="#17232b">EOS240</text>
</a>
</g>
</g>
<!-- course__EOS205&#45;&gt;course__EOS240 -->
<g id="edge38" class="edge">
<title>course__EOS205&#45;&gt;course__EOS240</title>
<path fill="none" stroke="#5d6972" stroke-width="1.2" d="M376.71,-1036.78C402.87,-1034.58 443.16,-1031.19 471.6,-1028.79"/>
<polygon fill="#5d6972" stroke="#5d6972" stroke-width="1.2" points="472.15,-1031.21 478.92,-1028.18 471.74,-1026.32 472.15,-1031.21"/>
</g>
<!-- course__EOS316 -->
<g id="node35" class="node">
<title>course__EOS316</title>
<g id="a_node35"><a xlink:href="../../../courses/EOS316.html" xlink:title="EOS316: Igneous and Metamorphic Geology" target="_top">
<path fill="#d7e9ef" stroke="#1f4f66" stroke-width="1.6" d="M678,-1472.98C678,-1472.98 648,-1472.98 648,-1472.98 642,-1472.98 636,-1466.98 636,-1460.98 636,-1460.98 636,-1448.98 636,-1448.98 636,-1442.98 642,-1436.98 648,-1436.98 648,-1436.98 678,-1436.98 678,-1436.98 684,-1436.98 690,-1442.98 690,-1448.98 690,-1448.98 690,-1460.98 690,-1460.98 690,-1466.98 684,-1472.98 678,-1472.98"/>
<text text-anchor="middle" x="663" y="-1452.48" font-family="Avenir Next" font-size="10.00" fill="#17232b">EOS316</text>
</a>
</g>
</g>
<!-- course__EOS205&#45;&gt;course__EOS316 -->
<g id="edge59" class="edge">
<title>course__EOS205&#45;&gt;course__EOS316</title>
<path fill="none" stroke="#5d6972" stroke-width="1.2" d="M376.68,-1043.92C388.4,-1047.51 401.28,-1053.62 409,-1063.98 458.3,-1130.17 392.37,-1374.9 451,-1432.98 497.79,-1479.33 582.16,-1471.66 628.79,-1462.83"/>
<polygon fill="#5d6972" stroke="#5d6972" stroke-width="1.2" points="629.27,-1465.23 635.66,-1461.46 628.32,-1460.42 629.27,-1465.23"/>
</g>
<!-- course__MATH204 -->
<g id="node20" class="node">
<title>course__MATH204</title>
<g id="a_node20"><a xlink:href="../../../courses/MATH204.html" xlink:title="MATH204: Calculus IV" target="_top">
<path fill="#d7e9ef" stroke="#1f4f66" stroke-width="1.6" d="M525.5,-982.98C525.5,-982.98 486.5,-982.98 486.5,-982.98 480.5,-982.98 474.5,-976.98 474.5,-970.98 474.5,-970.98 474.5,-958.98 474.5,-958.98 474.5,-952.98 480.5,-946.98 486.5,-946.98 486.5,-946.98 525.5,-946.98 525.5,-946.98 531.5,-946.98 537.5,-952.98 537.5,-958.98 537.5,-958.98 537.5,-970.98 537.5,-970.98 537.5,-976.98 531.5,-982.98 525.5,-982.98"/>
<text text-anchor="middle" x="506" y="-962.48" font-family="Avenir Next" font-size="10.00" fill="#17232b">MATH204</text>
</a>
</g>
</g>
<!-- course__MATH200&#45;&gt;course__MATH204 -->
<g id="edge89" class="edge">
<title>course__MATH200&#45;&gt;course__MATH204</title>
<path fill="none" stroke="#5d6972" stroke-width="1.2" d="M409.35,-980.46C428.75,-977.32 449.8,-973.92 467.19,-971.1"/>
<polygon fill="#5d6972" stroke="#5d6972" stroke-width="1.2" points="467.89,-973.47 474.41,-969.93 467.11,-968.63 467.89,-973.47"/>
</g>
<!-- course__MATH200&#45;&gt;course__STAT254 -->
<g id="edge99" class="edge">
<title>course__MATH200&#45;&gt;course__STAT254</title>
<path fill="none" stroke="#5d6972" stroke-width="1.2" d="M402.38,-1008.05C404.84,-1010.12 407.08,-1012.42 409,-1014.98 455.01,-1076.19 393.65,-1306.25 451,-1356.98 487.62,-1389.38 515.15,-1373.94 561,-1356.98 576.37,-1351.3 574.77,-1341.12 589,-1332.98 596.45,-1328.72 604.74,-1325.03 612.99,-1321.89"/>
<polygon fill="#5d6972" stroke="#5d6972" stroke-width="1.2" points="614.15,-1324.07 619.89,-1319.38 612.47,-1319.47 614.15,-1324.07"/>
</g>
<!-- course__MATH200&#45;&gt;course__MATH248 -->
<g id="edge90" class="edge">
<title>course__MATH200&#45;&gt;course__MATH248</title>
<path fill="none" stroke="#5d6972" stroke-width="1.2" d="M403.39,-971.97C405.45,-970.16 407.34,-968.17 409,-965.98 508.55,-834.32 353.36,-730.07 451,-596.98 451.1,-596.85 451.2,-596.71 451.3,-596.58"/>
<polygon fill="#5d6972" stroke="#5d6972" stroke-width="1.2" points="453.43,-597.89 456.38,-591.08 449.83,-594.56 453.43,-597.89"/>
</g>
<!-- choice_EOS325_0_0 -->
<g id="node66" class="node">
<title>choice_EOS325_0_0</title>
<path fill="#fff7ee" stroke="#b7793f" stroke-width="1.1" d="M521,-1349.98C521,-1349.98 491,-1349.98 491,-1349.98 485,-1349.98 479,-1343.98 479,-1337.98 479,-1337.98 479,-1325.98 479,-1325.98 479,-1319.98 485,-1313.98 491,-1313.98 491,-1313.98 521,-1313.98 521,-1313.98 527,-1313.98 533,-1319.98 533,-1325.98 533,-1325.98 533,-1337.98 533,-1337.98 533,-1343.98 527,-1349.98 521,-1349.98"/>
<text text-anchor="middle" x="506" y="-1329.78" font-family="Avenir Next" font-size="9.00">1 of</text>
</g>
<!-- course__MATH200&#45;&gt;choice_EOS325_0_0 -->
<g id="edge68" class="edge">
<title>course__MATH200&#45;&gt;choice_EOS325_0_0</title>
<path fill="none" stroke="#7a8389" d="M402.31,-1008.1C404.79,-1010.16 407.05,-1012.44 409,-1014.98 487.89,-1117.5 376.75,-1197.06 451,-1302.98 456.25,-1310.47 464.06,-1316.2 472.12,-1320.51"/>
<polygon fill="#7a8389" stroke="#7a8389" points="471.53,-1322.94 478.9,-1323.8 473.67,-1318.54 471.53,-1322.94"/>
</g>
<!-- course__EOS300 -->
<g id="node32" class="node">
<title>course__EOS300</title>
<g id="a_node32"><a xlink:href="../../../courses/EOS300.html" xlink:title="EOS300: Earth Science Field School" target="_top">
<path fill="#dbe8d2" stroke="#567447" stroke-width="1.3" d="M678,-1129.98C678,-1129.98 648,-1129.98 648,-1129.98 642,-1129.98 636,-1123.98 636,-1117.98 636,-1117.98 636,-1105.98 636,-1105.98 636,-1099.98 642,-1093.98 648,-1093.98 648,-1093.98 678,-1093.98 678,-1093.98 684,-1093.98 690,-1099.98 690,-1105.98 690,-1105.98 690,-1117.98 690,-1117.98 690,-1123.98 684,-1129.98 678,-1129.98"/>
<text text-anchor="middle" x="663" y="-1109.48" font-family="Avenir Next" font-size="10.00" fill="#24311e">EOS300</text>
</a>
</g>
</g>
<!-- course__EOS201&#45;&gt;course__EOS300 -->
<g id="edge45" class="edge">
<title>course__EOS201&#45;&gt;course__EOS300</title>
<path fill="none" stroke="#5d6972" stroke-width="1.2" d="M533.29,-1081.26C559.65,-1087.55 600.31,-1097.26 628.85,-1104.07"/>
<polygon fill="#5d6972" stroke="#5d6972" stroke-width="1.2" points="628.46,-1106.49 635.84,-1105.74 629.6,-1101.73 628.46,-1106.49"/>
</g>
<!-- course__EOS335 -->
<g id="node34" class="node">
<title>course__EOS335</title>
<g id="a_node34"><a xlink:href="../../../courses/EOS335.html" xlink:title="EOS335: Isotopes in Natural Sciences" target="_top">
<path fill="#d7e9ef" stroke="#1f4f66" stroke-width="1.6" d="M678,-1227.98C678,-1227.98 648,-1227.98 648,-1227.98 642,-1227.98 636,-1221.98 636,-1215.98 636,-1215.98 636,-1203.98 636,-1203.98 636,-1197.98 642,-1191.98 648,-1191.98 648,-1191.98 678,-1191.98 678,-1191.98 684,-1191.98 690,-1197.98 690,-1203.98 690,-1203.98 690,-1215.98 690,-1215.98 690,-1221.98 684,-1227.98 678,-1227.98"/>
<text text-anchor="middle" x="663" y="-1207.48" font-family="Avenir Next" font-size="10.00" fill="#17232b">EOS335</text>
</a>
</g>
</g>
<!-- course__EOS240&#45;&gt;course__EOS335 -->
<g id="edge73" class="edge">
<title>course__EOS240&#45;&gt;course__EOS335</title>
<path fill="none" stroke="#5d6972" stroke-width="1.2" d="M533.04,-1032.52C543.17,-1036.32 554,-1042.16 561,-1050.98 599.09,-1098.98 548.19,-1140.27 589,-1185.98 599.06,-1197.25 614.51,-1203.25 628.61,-1206.43"/>
<polygon fill="#5d6972" stroke="#5d6972" stroke-width="1.2" points="628.48,-1208.9 635.82,-1207.85 629.43,-1204.1 628.48,-1208.9"/>
</g>
<!-- choice_EOS316_0_1 -->
<g id="node64" class="node">
<title>choice_EOS316_0_1</title>
<path fill="#fff7ee" stroke="#b7793f" stroke-width="1.1" d="M678,-942.98C678,-942.98 648,-942.98 648,-942.98 642,-942.98 636,-936.98 636,-930.98 636,-930.98 636,-918.98 636,-918.98 636,-912.98 642,-906.98 648,-906.98 648,-906.98 678,-906.98 678,-906.98 684,-906.98 690,-912.98 690,-918.98 690,-918.98 690,-930.98 690,-930.98 690,-936.98 684,-942.98 678,-942.98"/>
<text text-anchor="middle" x="663" y="-922.78" font-family="Avenir Next" font-size="9.00">1 of</text>
</g>
<!-- course__EOS240&#45;&gt;choice_EOS316_0_1 -->
<g id="edge57" class="edge">
<title>course__EOS240&#45;&gt;choice_EOS316_0_1</title>
<path fill="none" stroke="#7a8389" d="M533.19,-1011.3C542.54,-1005.36 552.78,-998.02 561,-989.98 576.52,-974.81 571.66,-963.03 589,-949.98 600.67,-941.2 615.63,-935.37 628.97,-931.56"/>
<polygon fill="#7a8389" stroke="#7a8389" points="629.64,-933.92 635.78,-929.75 628.38,-929.18 629.64,-933.92"/>
</g>
<!-- course__EOS460 -->
<g id="node39" class="node">
<title>course__EOS460</title>
<g id="a_node39"><a xlink:href="../../../courses/EOS460.html" xlink:title="EOS460: Earth System Science" target="_top">
<path fill="#dbe8d2" stroke="#567447" stroke-width="1.3" d="M807,-1276.98C807,-1276.98 777,-1276.98 777,-1276.98 771,-1276.98 765,-1270.98 765,-1264.98 765,-1264.98 765,-1252.98 765,-1252.98 765,-1246.98 771,-1240.98 777,-1240.98 777,-1240.98 807,-1240.98 807,-1240.98 813,-1240.98 819,-1246.98 819,-1252.98 819,-1252.98 819,-1264.98 819,-1264.98 819,-1270.98 813,-1276.98 807,-1276.98"/>
<text text-anchor="middle" x="792" y="-1256.48" font-family="Avenir Next" font-size="10.00" fill="#24311e">EOS460</text>
</a>
</g>
</g>
<!-- course__EOS261&#45;&gt;course__EOS460 -->
<g id="edge85" class="edge">
<title>course__EOS261&#45;&gt;course__EOS460</title>
<path fill="none" stroke="#5d6972" stroke-width="1.2" d="M376.79,-945.84C388.53,-949.41 401.4,-955.53 409,-965.98 470.24,-1050.28 415.95,-1334.86 451,-1432.98 480.28,-1514.94 529.48,-1513.86 561,-1594.98 576.62,-1635.17 556.39,-1758.78 589,-1786.98 634.05,-1825.94 678.49,-1826.55 723,-1786.98 782.54,-1734.06 754.38,-1509.93 765,-1430.98 772.04,-1378.67 781.59,-1317.61 786.93,-1284.14"/>
<polygon fill="#5d6972" stroke="#5d6972" stroke-width="1.2" points="789.38,-1284.33 788.07,-1277.03 784.55,-1283.56 789.38,-1284.33"/>
</g>
<!-- choice_EOS321_0_1_0 -->
<g id="node65" class="node">
<title>choice_EOS321_0_1_0</title>
<path fill="#fff7ee" stroke="#b7793f" stroke-width="1.1" d="M678,-552.98C678,-552.98 648,-552.98 648,-552.98 642,-552.98 636,-546.98 636,-540.98 636,-540.98 636,-528.98 636,-528.98 636,-522.98 642,-516.98 648,-516.98 648,-516.98 678,-516.98 678,-516.98 684,-516.98 690,-522.98 690,-528.98 690,-528.98 690,-540.98 690,-540.98 690,-546.98 684,-552.98 678,-552.98"/>
<text text-anchor="middle" x="663" y="-532.78" font-family="Avenir Next" font-size="9.00">1 of</text>
</g>
<!-- course__EOS261&#45;&gt;choice_EOS321_0_1_0 -->
<g id="edge63" class="edge">
<title>course__EOS261&#45;&gt;choice_EOS321_0_1_0</title>
<path fill="none" stroke="#7a8389" d="M363.23,-922.97C376.85,-902.79 397.95,-868.59 409,-835.98 429.75,-774.72 403.4,-591.77 451,-547.98 476.09,-524.9 575.87,-528.47 628.73,-532.17"/>
<polygon fill="#7a8389" stroke="#7a8389" points="628.71,-534.62 635.87,-532.69 629.06,-529.74 628.71,-534.62"/>
</g>
<!-- course__MATH204&#45;&gt;course__PHYS217 -->
<g id="edge98" class="edge">
<title>course__MATH204&#45;&gt;course__PHYS217</title>
<path fill="none" stroke="#5d6972" stroke-width="1.2" d="M476.09,-946.78C459.12,-934.61 439.44,-916.92 430,-895.48 412.71,-856.23 406.18,-738.15 430,-702.48 434.05,-696.43 439.5,-691.53 445.63,-687.58"/>
<polygon fill="#5d6972" stroke="#5d6972" stroke-width="1.2" points="447.12,-689.55 451.97,-683.93 444.68,-685.3 447.12,-689.55"/>
</g>
<!-- course__MATH204&#45;&gt;choice_EOS325_0_0 -->
<g id="edge69" class="edge">
<title>course__MATH204&#45;&gt;choice_EOS325_0_0</title>
<path fill="none" stroke="#7a8389" d="M474.15,-974.58C457.88,-981.29 439.53,-992.04 430,-1008.48 413.95,-1036.17 412.82,-1269.49 430,-1296.48 439.29,-1311.08 456.33,-1319.77 471.92,-1324.9"/>
<polygon fill="#7a8389" stroke="#7a8389" points="471.54,-1327.34 478.95,-1327.01 472.95,-1322.65 471.54,-1327.34"/>
</g>
<!-- choice_EOS431_0_0 -->
<g id="node67" class="node">
<title>choice_EOS431_0_0</title>
<path fill="#fff7ee" stroke="#b7793f" stroke-width="1.1" d="M364.5,-828.98C364.5,-828.98 334.5,-828.98 334.5,-828.98 328.5,-828.98 322.5,-822.98 322.5,-816.98 322.5,-816.98 322.5,-804.98 322.5,-804.98 322.5,-798.98 328.5,-792.98 334.5,-792.98 334.5,-792.98 364.5,-792.98 364.5,-792.98 370.5,-792.98 376.5,-798.98 376.5,-804.98 376.5,-804.98 376.5,-816.98 376.5,-816.98 376.5,-822.98 370.5,-828.98 364.5,-828.98"/>
<text text-anchor="middle" x="349.5" y="-808.78" font-family="Avenir Next" font-size="9.00">1 of</text>
</g>
<!-- course__MATH204&#45;&gt;choice_EOS431_0_0 -->
<g id="edge79" class="edge">
<title>course__MATH204&#45;&gt;choice_EOS431_0_0</title>
<path fill="none" stroke="#7a8389" d="M486.69,-946.74C458.6,-918.73 404.87,-865.17 373.96,-834.36"/>
<polygon fill="#7a8389" stroke="#7a8389" points="375.52,-832.46 368.83,-829.25 372.06,-835.93 375.52,-832.46"/>
</g>
<!-- course__CHEM499A -->
<g id="node21" class="node">
<title>course__CHEM499A</title>
<g id="a_node21"><a xlink:href="../../../courses/CHEM499A.html" xlink:title="CHEM499A: Honours Thesis I" target="_top">
<path fill="#e2deef" stroke="#665683" stroke-width="1.3" d="M686.5,-1779.98C686.5,-1779.98 639.5,-1779.98 639.5,-1779.98 633.5,-1779.98 627.5,-1773.98 627.5,-1767.98 627.5,-1767.98 627.5,-1755.98 627.5,-1755.98 627.5,-1749.98 633.5,-1743.98 639.5,-1743.98 639.5,-1743.98 686.5,-1743.98 686.5,-1743.98 692.5,-1743.98 698.5,-1749.98 698.5,-1755.98 698.5,-1755.98 698.5,-1767.98 698.5,-1767.98 698.5,-1773.98 692.5,-1779.98 686.5,-1779.98"/>
<text text-anchor="middle" x="663" y="-1759.48" font-family="Avenir Next" font-size="10.00" fill="#2f2741">CHEM499A</text>
</a>
</g>
</g>
<!-- course__CHEM499B -->
<g id="node22" class="node">
<title>course__CHEM499B</title>
<g id="a_node22"><a xlink:href="../../../courses/CHEM499B.html" xlink:title="CHEM499B: Honours Thesis II" target="_top">
<path fill="#e2deef" stroke="#665683" stroke-width="1.3" d="M686.5,-1730.98C686.5,-1730.98 639.5,-1730.98 639.5,-1730.98 633.5,-1730.98 627.5,-1724.98 627.5,-1718.98 627.5,-1718.98 627.5,-1706.98 627.5,-1706.98 627.5,-1700.98 633.5,-1694.98 639.5,-1694.98 639.5,-1694.98 686.5,-1694.98 686.5,-1694.98 692.5,-1694.98 698.5,-1700.98 698.5,-1706.98 698.5,-1706.98 698.5,-1718.98 698.5,-1718.98 698.5,-1724.98 692.5,-1730.98 686.5,-1730.98"/>
<text text-anchor="middle" x="663" y="-1710.48" font-family="Avenir Next" font-size="10.00" fill="#2f2741">CHEM499B</text>
</a>
</g>
</g>
<!-- course__EOS499A -->
<g id="node23" class="node">
<title>course__EOS499A</title>
<g id="a_node23"><a xlink:href="../../../courses/EOS499A.html" xlink:title="Equivalent or cross&#45;listed: EOS499A: Honours Thesis I | EOS499B: Honours Thesis II" target="_top">
<path fill="#e2deef" stroke="#665683" stroke-width="1.3" d="M708,-1681.98C708,-1681.98 618,-1681.98 618,-1681.98 612,-1681.98 606,-1675.98 606,-1669.98 606,-1669.98 606,-1657.98 606,-1657.98 606,-1651.98 612,-1645.98 618,-1645.98 618,-1645.98 708,-1645.98 708,-1645.98 714,-1645.98 720,-1651.98 720,-1657.98 720,-1657.98 720,-1669.98 720,-1669.98 720,-1675.98 714,-1681.98 708,-1681.98"/>
<text text-anchor="middle" x="663" y="-1661.48" font-family="Avenir Next" font-size="10.00" fill="#2f2741">EOS499A / EOS499B</text>
</a>
</g>
</g>
<!-- course__EOS410 -->
<g id="node25" class="node">
<title>course__EOS410</title>
<g id="a_node25"><a xlink:href="../../../courses/EOS410.html" xlink:title="EOS410: Global Tectonics" target="_top">
<path fill="#efd8cf" stroke="#8f5945" stroke-width="1.3" d="M678,-1031.98C678,-1031.98 648,-1031.98 648,-1031.98 642,-1031.98 636,-1025.98 636,-1019.98 636,-1019.98 636,-1007.98 636,-1007.98 636,-1001.98 642,-995.98 648,-995.98 648,-995.98 678,-995.98 678,-995.98 684,-995.98 690,-1001.98 690,-1007.98 690,-1007.98 690,-1019.98 690,-1019.98 690,-1025.98 684,-1031.98 678,-1031.98"/>
<text text-anchor="middle" x="663" y="-1011.48" font-family="Avenir Next" font-size="10.00" fill="#3f251d">EOS410</text>
</a>
</g>
</g>
<!-- course__BIOC300A -->
<g id="node27" class="node">
<title>course__BIOC300A</title>
<g id="a_node27"><a xlink:href="../../../courses/BIOC300A.html" xlink:title="BIOC300A: General Biochemistry I" target="_top">
<path fill="#ead9b8" stroke="#8f6a3b" stroke-width="1.3" d="M683.5,-1374.98C683.5,-1374.98 642.5,-1374.98 642.5,-1374.98 636.5,-1374.98 630.5,-1368.98 630.5,-1362.98 630.5,-1362.98 630.5,-1350.98 630.5,-1350.98 630.5,-1344.98 636.5,-1338.98 642.5,-1338.98 642.5,-1338.98 683.5,-1338.98 683.5,-1338.98 689.5,-1338.98 695.5,-1344.98 695.5,-1350.98 695.5,-1350.98 695.5,-1362.98 695.5,-1362.98 695.5,-1368.98 689.5,-1374.98 683.5,-1374.98"/>
<text text-anchor="middle" x="663" y="-1354.48" font-family="Avenir Next" font-size="10.00" fill="#3f3120">BIOC300A</text>
</a>
</g>
</g>
<!-- course__CHEM362 -->
<g id="node29" class="node">
<title>course__CHEM362</title>
<g id="a_node29"><a xlink:href="../../../courses/CHEM362.html" xlink:title="CHEM362: Inorganic Chemistry Laboratory" target="_top">
<path fill="#d7e9ef" stroke="#1f4f66" stroke-width="1.6" d="M683,-1619.98C683,-1619.98 643,-1619.98 643,-1619.98 637,-1619.98 631,-1613.98 631,-1607.98 631,-1607.98 631,-1595.98 631,-1595.98 631,-1589.98 637,-1583.98 643,-1583.98 643,-1583.98 683,-1583.98 683,-1583.98 689,-1583.98 695,-1589.98 695,-1595.98 695,-1595.98 695,-1607.98 695,-1607.98 695,-1613.98 689,-1619.98 683,-1619.98"/>
<text text-anchor="middle" x="663" y="-1599.48" font-family="Avenir Next" font-size="10.00" fill="#17232b">CHEM362</text>
</a>
</g>
</g>
<!-- course__CHEM363 -->
<g id="node30" class="node">
<title>course__CHEM363</title>
<g id="a_node30"><a xlink:href="../../../courses/CHEM363.html" xlink:title="CHEM363: Organic Chemistry Laboratory" target="_top">
<path fill="#d7e9ef" stroke="#1f4f66" stroke-width="1.6" d="M683,-1276.98C683,-1276.98 643,-1276.98 643,-1276.98 637,-1276.98 631,-1270.98 631,-1264.98 631,-1264.98 631,-1252.98 631,-1252.98 631,-1246.98 637,-1240.98 643,-1240.98 643,-1240.98 683,-1240.98 683,-1240.98 689,-1240.98 695,-1246.98 695,-1252.98 695,-1252.98 695,-1264.98 695,-1264.98 695,-1270.98 689,-1276.98 683,-1276.98"/>
<text text-anchor="middle" x="663" y="-1256.48" font-family="Avenir Next" font-size="10.00" fill="#17232b">CHEM363</text>
</a>
</g>
</g>
<!-- course__EOS321 -->
<g id="node36" class="node">
<title>course__EOS321</title>
<g id="a_node36"><a xlink:href="../../../courses/EOS321.html" xlink:title="EOS321: Earth History" target="_top">
<path fill="#efd8cf" stroke="#8f5945" stroke-width="1.3" d="M807,-1080.98C807,-1080.98 777,-1080.98 777,-1080.98 771,-1080.98 765,-1074.98 765,-1068.98 765,-1068.98 765,-1056.98 765,-1056.98 765,-1050.98 771,-1044.98 777,-1044.98 777,-1044.98 807,-1044.98 807,-1044.98 813,-1044.98 819,-1050.98 819,-1056.98 819,-1056.98 819,-1068.98 819,-1068.98 819,-1074.98 813,-1080.98 807,-1080.98"/>
<text text-anchor="middle" x="792" y="-1060.48" font-family="Avenir Next" font-size="10.00" fill="#3f251d">EOS321</text>
</a>
</g>
</g>
<!-- course__EOS300&#45;&gt;course__EOS321 -->
<g id="edge66" class="edge">
<title>course__EOS300&#45;&gt;course__EOS321</title>
<path fill="none" stroke="#5d6972" stroke-width="1.2" d="M690.01,-1101.95C709.65,-1094.37 736.76,-1083.91 757.94,-1075.74"/>
<polygon fill="#5d6972" stroke="#5d6972" stroke-width="1.2" points="758.94,-1077.98 764.59,-1073.17 757.18,-1073.41 758.94,-1077.98"/>
</g>
<!-- course__EOS325&#45;&gt;choice_EOS431_0_0 -->
<g id="edge78" class="edge">
<title>course__EOS325&#45;&gt;choice_EOS431_0_0</title>
<path fill="none" stroke="#7a8389" d="M635.65,-1159.36C619.61,-1156.89 600.13,-1150.97 589,-1136.98 546.22,-1083.19 609.73,-877.45 561,-828.98 536.85,-804.96 436.91,-806.32 383.89,-808.88"/>
<polygon fill="#7a8389" stroke="#7a8389" points="383.6,-806.44 376.73,-809.24 383.85,-811.33 383.6,-806.44"/>
</g>
<!-- choice_EOS460_0_0 -->
<g id="node68" class="node">
<title>choice_EOS460_0_0</title>
<path fill="#fff7ee" stroke="#b7793f" stroke-width="1.1" d="M678,-893.98C678,-893.98 648,-893.98 648,-893.98 642,-893.98 636,-887.98 636,-881.98 636,-881.98 636,-869.98 636,-869.98 636,-863.98 642,-857.98 648,-857.98 648,-857.98 678,-857.98 678,-857.98 684,-857.98 690,-863.98 690,-869.98 690,-869.98 690,-881.98 690,-881.98 690,-887.98 684,-893.98 678,-893.98"/>
<text text-anchor="middle" x="663" y="-873.78" font-family="Avenir Next" font-size="9.00">1 of</text>
</g>
<!-- course__EOS325&#45;&gt;choice_EOS460_0_0 -->
<g id="edge82" class="edge">
<title>course__EOS325&#45;&gt;choice_EOS460_0_0</title>
<path fill="none" stroke="#7a8389" d="M635.68,-1160C614.91,-1157.6 587.79,-1150.52 575,-1130.48 561.67,-1109.6 561.67,-928.37 575,-907.48 586.43,-889.57 609.18,-881.74 628.69,-878.37"/>
<polygon fill="#7a8389" stroke="#7a8389" points="629.15,-880.78 635.7,-877.32 628.42,-875.93 629.15,-880.78"/>
</g>
<!-- course__EOS403 -->
<g id="node37" class="node">
<title>course__EOS403</title>
<g id="a_node37"><a xlink:href="../../../courses/EOS403.html" xlink:title="EOS403: Global Biogeochemical Cycles" target="_top">
<path fill="#efd8cf" stroke="#8f5945" stroke-width="1.3" d="M807,-1178.98C807,-1178.98 777,-1178.98 777,-1178.98 771,-1178.98 765,-1172.98 765,-1166.98 765,-1166.98 765,-1154.98 765,-1154.98 765,-1148.98 771,-1142.98 777,-1142.98 777,-1142.98 807,-1142.98 807,-1142.98 813,-1142.98 819,-1148.98 819,-1154.98 819,-1154.98 819,-1166.98 819,-1166.98 819,-1172.98 813,-1178.98 807,-1178.98"/>
<text text-anchor="middle" x="792" y="-1158.48" font-family="Avenir Next" font-size="10.00" fill="#3f251d">EOS403</text>
</a>
</g>
</g>
<!-- course__EOS335&#45;&gt;course__EOS403 -->
<g id="edge74" class="edge">
<title>course__EOS335&#45;&gt;course__EOS403</title>
<path fill="none" stroke="#5d6972" stroke-width="1.2" d="M690.01,-1199.95C709.65,-1192.37 736.76,-1181.91 757.94,-1173.74"/>
<polygon fill="#5d6972" stroke="#5d6972" stroke-width="1.2" points="758.94,-1175.98 764.59,-1171.17 757.18,-1171.41 758.94,-1175.98"/>
</g>
<!-- course__EOS425 -->
<g id="node38" class="node">
<title>course__EOS425</title>
<g id="a_node38"><a xlink:href="../../../courses/EOS425.html" xlink:title="EOS425: Aqueous Chemistry in the Earth and Ocean" target="_top">
<path fill="#efd8cf" stroke="#8f5945" stroke-width="1.3" d="M807,-1227.98C807,-1227.98 777,-1227.98 777,-1227.98 771,-1227.98 765,-1221.98 765,-1215.98 765,-1215.98 765,-1203.98 765,-1203.98 765,-1197.98 771,-1191.98 777,-1191.98 777,-1191.98 807,-1191.98 807,-1191.98 813,-1191.98 819,-1197.98 819,-1203.98 819,-1203.98 819,-1215.98 819,-1215.98 819,-1221.98 813,-1227.98 807,-1227.98"/>
<text text-anchor="middle" x="792" y="-1207.48" font-family="Avenir Next" font-size="10.00" fill="#3f251d">EOS425</text>
</a>
</g>
</g>
<!-- course__EOS335&#45;&gt;course__EOS425 -->
<g id="edge77" class="edge">
<title>course__EOS335&#45;&gt;course__EOS425</title>
<path fill="none" stroke="#5d6972" stroke-width="1.2" d="M690.01,-1209.98C709.48,-1209.98 736.29,-1209.98 757.39,-1209.98"/>
<polygon fill="#5d6972" stroke="#5d6972" stroke-width="1.2" points="757.59,-1212.43 764.59,-1209.98 757.59,-1207.53 757.59,-1212.43"/>
</g>
<!-- course__EOS335&#45;&gt;course__EOS460 -->
<g id="edge86" class="edge">
<title>course__EOS335&#45;&gt;course__EOS460</title>
<path fill="none" stroke="#5d6972" stroke-width="1.2" d="M690.01,-1220.02C709.65,-1227.6 736.76,-1238.05 757.94,-1246.23"/>
<polygon fill="#5d6972" stroke="#5d6972" stroke-width="1.2" points="757.18,-1248.56 764.59,-1248.79 758.94,-1243.99 757.18,-1248.56"/>
</g>
<!-- course__EOS416 -->
<g id="node41" class="node">
<title>course__EOS416</title>
<g id="a_node41"><a xlink:href="../../../courses/EOS416.html" xlink:title="EOS416: High Temperature Petrology" target="_top">
<path fill="#efd8cf" stroke="#8f5945" stroke-width="1.3" d="M807,-1472.98C807,-1472.98 777,-1472.98 777,-1472.98 771,-1472.98 765,-1466.98 765,-1460.98 765,-1460.98 765,-1448.98 765,-1448.98 765,-1442.98 771,-1436.98 777,-1436.98 777,-1436.98 807,-1436.98 807,-1436.98 813,-1436.98 819,-1442.98 819,-1448.98 819,-1448.98 819,-1460.98 819,-1460.98 819,-1466.98 813,-1472.98 807,-1472.98"/>
<text text-anchor="middle" x="792" y="-1452.48" font-family="Avenir Next" font-size="10.00" fill="#3f251d">EOS416</text>
</a>
</g>
</g>
<!-- course__EOS316&#45;&gt;course__EOS416 -->
<g id="edge76" class="edge">
<title>course__EOS316&#45;&gt;course__EOS416</title>
<path fill="none" stroke="#5d6972" stroke-width="1.2" d="M690.01,-1454.98C709.48,-1454.98 736.29,-1454.98 757.39,-1454.98"/>
<polygon fill="#5d6972" stroke="#5d6972" stroke-width="1.2" points="757.59,-1457.43 764.59,-1454.98 757.59,-1452.53 757.59,-1457.43"/>
</g>
<!-- course__BIOL225 -->
<g id="node42" class="node">
<title>course__BIOL225</title>
<g id="a_node42"><a xlink:href="../../../courses/BIOL225.html" xlink:title="BIOL225: Principles of Cell Biology" target="_top">
<path fill="#f9f9f9" stroke="#363636" d="M522,-1425.98C522,-1425.98 490,-1425.98 490,-1425.98 484,-1425.98 478,-1419.98 478,-1413.98 478,-1413.98 478,-1401.98 478,-1401.98 478,-1395.98 484,-1389.98 490,-1389.98 490,-1389.98 522,-1389.98 522,-1389.98 528,-1389.98 534,-1395.98 534,-1401.98 534,-1401.98 534,-1413.98 534,-1413.98 534,-1419.98 528,-1425.98 522,-1425.98"/>
<text text-anchor="middle" x="506" y="-1405.78" font-family="Avenir Next" font-size="9.00" fill="#363636">BIOL225</text>
</a>
</g>
</g>
<!-- course__BIOL225&#45;&gt;course__BIOC300A -->
<g id="edge4" class="edge">
<title>course__BIOL225&#45;&gt;course__BIOC300A</title>
<path fill="none" stroke="#5d6972" stroke-width="1.2" d="M534.35,-1398.98C559.11,-1390.84 595.83,-1378.75 623.54,-1369.64"/>
<polygon fill="#5d6972" stroke="#5d6972" stroke-width="1.2" points="624.5,-1371.9 630.38,-1367.39 622.96,-1367.25 624.5,-1371.9"/>
</g>
<!-- course__EOS130 -->
<g id="node43" class="node">
<title>course__EOS130</title>
<g id="a_node43"><a xlink:href="../../../courses/EOS130.html" xlink:title="Equivalent or cross&#45;listed: EOS130: Climate Change | GEOG130: Climate Change" target="_top">
<path fill="#f9f9f9" stroke="#363636" d="M547.5,-362.98C547.5,-362.98 464.5,-362.98 464.5,-362.98 458.5,-362.98 452.5,-356.98 452.5,-350.98 452.5,-350.98 452.5,-338.98 452.5,-338.98 452.5,-332.98 458.5,-326.98 464.5,-326.98 464.5,-326.98 547.5,-326.98 547.5,-326.98 553.5,-326.98 559.5,-332.98 559.5,-338.98 559.5,-338.98 559.5,-350.98 559.5,-350.98 559.5,-356.98 553.5,-362.98 547.5,-362.98"/>
<text text-anchor="middle" x="506" y="-342.78" font-family="Avenir Next" font-size="9.00" fill="#363636">EOS130 / GEOG130</text>
</a>
</g>
</g>
<!-- course__EOS130&#45;&gt;choice_EOS230_0_1 -->
<g id="edge35" class="edge">
<title>course__EOS130&#45;&gt;choice_EOS230_0_1</title>
<path fill="none" stroke="#7a8389" d="M559.91,-357.95C582.82,-363.57 608.92,-369.97 629,-374.89"/>
<polygon fill="#7a8389" stroke="#7a8389" points="628.45,-377.28 635.84,-376.57 629.62,-372.52 628.45,-377.28"/>
</g>
<!-- course__GEOG103 -->
<g id="node44" class="node">
<title>course__GEOG103</title>
<g id="a_node44"><a xlink:href="../../../courses/GEOG103.html" xlink:title="GEOG103: Our Natural Earth" target="_top">
<path fill="#f9f9f9" stroke="#363636" d="M524.5,-313.98C524.5,-313.98 487.5,-313.98 487.5,-313.98 481.5,-313.98 475.5,-307.98 475.5,-301.98 475.5,-301.98 475.5,-289.98 475.5,-289.98 475.5,-283.98 481.5,-277.98 487.5,-277.98 487.5,-277.98 524.5,-277.98 524.5,-277.98 530.5,-277.98 536.5,-283.98 536.5,-289.98 536.5,-289.98 536.5,-301.98 536.5,-301.98 536.5,-307.98 530.5,-313.98 524.5,-313.98"/>
<text text-anchor="middle" x="506" y="-293.78" font-family="Avenir Next" font-size="9.00" fill="#363636">GEOG103</text>
</a>
</g>
</g>
<!-- course__GEOG103&#45;&gt;choice_EOS230_0_1 -->
<g id="edge36" class="edge">
<title>course__GEOG103&#45;&gt;choice_EOS230_0_1</title>
<path fill="none" stroke="#7a8389" d="M536.5,-308.2C544.56,-311.78 553.21,-315.85 561,-319.98 584.55,-332.48 610.02,-348.39 629.49,-361.09"/>
<polygon fill="#7a8389" stroke="#7a8389" points="628.4,-363.3 635.59,-365.09 631.09,-359.2 628.4,-363.3"/>
</g>
<!-- course__MATH151 -->
<g id="node45" class="node">
<title>course__MATH151</title>
<g id="a_node45"><a xlink:href="../../../courses/MATH151.html" xlink:title="MATH151: Finite Mathematics" target="_top">
<path fill="#f9f9f9" stroke="#363636" d="M523.5,-85.98C523.5,-85.98 488.5,-85.98 488.5,-85.98 482.5,-85.98 476.5,-79.98 476.5,-73.98 476.5,-73.98 476.5,-61.98 476.5,-61.98 476.5,-55.98 482.5,-49.98 488.5,-49.98 488.5,-49.98 523.5,-49.98 523.5,-49.98 529.5,-49.98 535.5,-55.98 535.5,-61.98 535.5,-61.98 535.5,-73.98 535.5,-73.98 535.5,-79.98 529.5,-85.98 523.5,-85.98"/>
<text text-anchor="middle" x="506" y="-65.78" font-family="Avenir Next" font-size="9.00" fill="#363636">MATH151</text>
</a>
</g>
</g>
<!-- course__MATH151&#45;&gt;choice_EOS261_0_4 -->
<g id="edge40" class="edge">
<title>course__MATH151&#45;&gt;choice_EOS261_0_4</title>
<path fill="none" stroke="#7a8389" d="M535.79,-80.06C562.26,-91.16 601.49,-107.61 629.17,-119.21"/>
<polygon fill="#7a8389" stroke="#7a8389" points="628.54,-121.61 635.94,-122.05 630.43,-117.09 628.54,-121.61"/>
</g>
<!-- course__MATH151&#45;&gt;choice_EOS314_0_0 -->
<g id="edge54" class="edge">
<title>course__MATH151&#45;&gt;choice_EOS314_0_0</title>
<path fill="none" stroke="#7a8389" d="M535.79,-64.45C562.15,-61.22 601.15,-56.44 628.82,-53.05"/>
<polygon fill="#7a8389" stroke="#7a8389" points="629.29,-55.46 635.94,-52.18 628.7,-50.6 629.29,-55.46"/>
</g>
<!-- course__CSC110&#45;&gt;course__MATH248 -->
<g id="edge91" class="edge">
<title>course__CSC110&#45;&gt;course__MATH248</title>
<path fill="none" stroke="#5d6972" stroke-width="1.2" d="M506,-603.8C506,-602.11 506,-600.43 506,-598.74"/>
<polygon fill="#5d6972" stroke="#5d6972" stroke-width="1.2" points="508.45,-598.36 506,-591.36 503.55,-598.36 508.45,-598.36"/>
</g>
<!-- course__CSC110&#45;&gt;choice_EOS321_0_1_0 -->
<g id="edge65" class="edge">
<title>course__CSC110&#45;&gt;choice_EOS321_0_1_0</title>
<path fill="none" stroke="#7a8389" d="M547.36,-603.93C552,-601.67 556.63,-599.33 561,-596.98 584.56,-584.35 610.23,-568.57 629.79,-556.09"/>
<polygon fill="#7a8389" stroke="#7a8389" points="631.34,-558 635.91,-552.16 628.7,-553.88 631.34,-558"/>
</g>
<!-- course__EOS202&#45;&gt;course__EOS410 -->
<g id="edge75" class="edge">
<title>course__EOS202&#45;&gt;course__EOS410</title>
<path fill="none" stroke="#5d6972" stroke-width="1.2" d="M533.19,-727.61C543.47,-731.93 554.37,-738.44 561,-747.98 619.03,-831.44 531.48,-891.17 589,-974.98 598.52,-988.85 614.6,-998.19 629.25,-1004.25"/>
<polygon fill="#5d6972" stroke="#5d6972" stroke-width="1.2" points="628.43,-1006.56 635.85,-1006.8 630.2,-1001.99 628.43,-1006.56"/>
</g>
<!-- course__EOS202&#45;&gt;course__EOS300 -->
<g id="edge46" class="edge">
<title>course__EOS202&#45;&gt;course__EOS300</title>
<path fill="none" stroke="#5d6972" stroke-width="1.2" d="M531.39,-738.2C542.39,-747.84 554.38,-760.65 561,-774.98 590.28,-838.38 545.57,-1033.3 589,-1087.98 598.63,-1100.1 614.52,-1106.17 629.02,-1109.17"/>
<polygon fill="#5d6972" stroke="#5d6972" stroke-width="1.2" points="628.68,-1111.6 636,-1110.42 629.54,-1106.78 628.68,-1111.6"/>
</g>
<!-- course__EOS230 -->
<g id="node48" class="node">
<title>course__EOS230</title>
<g id="a_node48"><a xlink:href="../../../courses/EOS230.html" xlink:title="Equivalent or cross&#45;listed: EOS230: Introduction to Environmental Data Analysis | GEOG230: Introduction to Environmental Data Analysis" target="_top">
<path fill="#f9f9f9" stroke="#363636" d="M547.5,-465.98C547.5,-465.98 464.5,-465.98 464.5,-465.98 458.5,-465.98 452.5,-459.98 452.5,-453.98 452.5,-453.98 452.5,-441.98 452.5,-441.98 452.5,-435.98 458.5,-429.98 464.5,-429.98 464.5,-429.98 547.5,-429.98 547.5,-429.98 553.5,-429.98 559.5,-435.98 559.5,-441.98 559.5,-441.98 559.5,-453.98 559.5,-453.98 559.5,-459.98 553.5,-465.98 547.5,-465.98"/>
<text text-anchor="middle" x="506" y="-445.78" font-family="Avenir Next" font-size="9.00" fill="#363636">EOS230 / GEOG230</text>
</a>
</g>
</g>
<!-- course__EOS230&#45;&gt;choice_EOS321_0_1_0 -->
<g id="edge62" class="edge">
<title>course__EOS230&#45;&gt;choice_EOS321_0_1_0</title>
<path fill="none" stroke="#7a8389" d="M549.14,-466.02C553.18,-467.96 557.19,-469.96 561,-471.98 584.55,-484.48 610.02,-500.39 629.49,-513.09"/>
<polygon fill="#7a8389" stroke="#7a8389" points="628.4,-515.3 635.59,-517.09 631.09,-511.2 628.4,-515.3"/>
</g>
<!-- course__CHEM234&#45;&gt;course__BIOC300A -->
<g id="edge5" class="edge">
<title>course__CHEM234&#45;&gt;course__BIOC300A</title>
<path fill="none" stroke="#5d6972" stroke-width="1.2" d="M536.59,-886.33C545.93,-890.78 555.3,-897.12 561,-905.98 612.45,-985.95 530.75,-1257.82 589,-1332.98 597.27,-1343.66 610.42,-1349.64 623.3,-1352.98"/>
<polygon fill="#5d6972" stroke="#5d6972" stroke-width="1.2" points="623.02,-1355.43 630.39,-1354.57 624.09,-1350.65 623.02,-1355.43"/>
</g>
<!-- course__CHEM234&#45;&gt;bundle_CHEM363_0_1 -->
<g id="edge22" class="edge">
<title>course__CHEM234&#45;&gt;bundle_CHEM363_0_1</title>
<path fill="none" stroke="#7a8389" d="M536.54,-889.38C545.03,-893.82 553.9,-899.39 561,-905.98 577.98,-921.76 569.66,-937.21 589,-949.98 607.45,-962.16 634.09,-963.39 649.57,-962.88"/>
<polygon fill="#7a8389" stroke="#7a8389" points="650.04,-965.31 656.89,-962.48 649.77,-960.42 650.04,-965.31"/>
</g>
<!-- course__EOS210&#45;&gt;choice_EOS321_0_1_0 -->
<g id="edge61" class="edge">
<title>course__EOS210&#45;&gt;choice_EOS321_0_1_0</title>
<path fill="none" stroke="#7a8389" d="M552.25,-508.08C576.76,-514.08 606.51,-521.38 628.85,-526.86"/>
<polygon fill="#7a8389" stroke="#7a8389" points="628.44,-529.28 635.83,-528.57 629.61,-524.52 628.44,-529.28"/>
</g>
<!-- course__EOS314&#45;&gt;choice_EOS312_0_0 -->
<g id="edge48" class="edge">
<title>course__EOS314&#45;&gt;choice_EOS312_0_0</title>
<path fill="none" stroke="#7a8389" d="M533.29,-176.07C559.65,-181.17 600.31,-189.04 628.85,-194.57"/>
<polygon fill="#7a8389" stroke="#7a8389" points="628.5,-196.99 635.84,-195.92 629.43,-192.18 628.5,-196.99"/>
</g>
<!-- course__EOS314&#45;&gt;choice_EOS321_0_1_0 -->
<g id="edge64" class="edge">
<title>course__EOS314&#45;&gt;choice_EOS321_0_1_0</title>
<path fill="none" stroke="#7a8389" d="M533.06,-176.68C543.32,-180.24 554.24,-185.94 561,-194.98 617.91,-271.1 558.67,-316.91 589,-406.98 602.1,-445.87 627.44,-486.28 644.54,-511.04"/>
<polygon fill="#7a8389" stroke="#7a8389" points="642.68,-512.65 648.7,-516.98 646.7,-509.84 642.68,-512.65"/>
</g>
<!-- course__MATH248&#45;&gt;choice_EOS460_0_0 -->
<g id="edge83" class="edge">
<title>course__MATH248&#45;&gt;choice_EOS460_0_0</title>
<path fill="none" stroke="#7a8389" d="M554.54,-591.18C556.87,-592.95 559.04,-594.88 561,-596.98 630.42,-671.5 652.85,-797.32 659.47,-850.76"/>
<polygon fill="#7a8389" stroke="#7a8389" points="657.05,-851.14 660.3,-857.81 661.92,-850.57 657.05,-851.14"/>
</g>
<!-- course__PHYS217&#45;&gt;choice_EOS316_0_1 -->
<g id="edge58" class="edge">
<title>course__PHYS217&#45;&gt;choice_EOS316_0_1</title>
<path fill="none" stroke="#7a8389" d="M554.64,-689.21C557.01,-691.24 559.16,-693.49 561,-695.98 615.66,-769.93 530.15,-830.32 589,-900.98 598.83,-912.79 614.59,-918.83 628.95,-921.9"/>
<polygon fill="#7a8389" stroke="#7a8389" points="628.53,-924.32 635.86,-923.18 629.42,-919.5 628.53,-924.32"/>
</g>
<!-- course__EOS431&#45;&gt;choice_EOS312_0_0 -->
<g id="edge49" class="edge">
<title>course__EOS431&#45;&gt;choice_EOS312_0_0</title>
<path fill="none" stroke="#7a8389" d="M558.18,-213.71C581.37,-210.87 608.13,-207.59 628.67,-205.07"/>
<polygon fill="#7a8389" stroke="#7a8389" points="629.01,-207.49 635.66,-204.21 628.42,-202.63 629.01,-207.49"/>
</g>
<!-- year_band__year&#45;1 -->
<!-- year_band__year&#45;2 -->
<!-- year_band__year&#45;1&#45;&gt;year_band__year&#45;2 -->
<!-- year_band__years&#45;3&#45;4 -->
<!-- year_band__year&#45;2&#45;&gt;year_band__years&#45;3&#45;4 -->
<!-- bundle_CHEM362_0_1&#45;&gt;course__CHEM362 -->
<g id="edge21" class="edge">
<title>bundle_CHEM362_0_1&#45;&gt;course__CHEM362</title>
<path fill="none" stroke="#5d6972" stroke-width="1.2" d="M512.16,-1606.82C529.2,-1606.27 584.79,-1604.47 623.25,-1603.23"/>
<polygon fill="#5d6972" stroke="#5d6972" stroke-width="1.2" points="623.77,-1605.67 630.69,-1602.99 623.62,-1600.77 623.77,-1605.67"/>
</g>
<!-- bundle_CHEM363_0_1&#45;&gt;course__CHEM363 -->
<g id="edge24" class="edge">
<title>bundle_CHEM363_0_1&#45;&gt;course__CHEM363</title>
<path fill="none" stroke="#5d6972" stroke-width="1.2" d="M656.75,-961.23C639.73,-959.57 592.7,-957.76 575,-985.48 560.47,-1008.24 560.47,-1205.72 575,-1228.48 585.44,-1244.85 605.45,-1252.57 623.75,-1256.16"/>
<polygon fill="#5d6972" stroke="#5d6972" stroke-width="1.2" points="623.61,-1258.62 630.92,-1257.38 624.43,-1253.79 623.61,-1258.62"/>
</g>
<!-- choice_EOS230_0_1&#45;&gt;course__EOS261 -->
<g id="edge41" class="edge">
<title>choice_EOS230_0_1&#45;&gt;course__EOS261</title>
<path fill="none" stroke="#5d6972" stroke-width="1.2" d="M635.93,-386.17C582.27,-392.98 463.45,-409.42 451,-422.98 388.63,-490.96 436.69,-747.98 409,-835.98 399.69,-865.57 381.47,-896.19 367.83,-916.68"/>
<polygon fill="#5d6972" stroke="#5d6972" stroke-width="1.2" points="365.65,-915.52 363.76,-922.7 369.71,-918.27 365.65,-915.52"/>
</g>
<!-- choice_EOS230_0_1&#45;&gt;course__EOS230 -->
<g id="edge37" class="edge">
<title>choice_EOS230_0_1&#45;&gt;course__EOS230</title>
<path fill="none" stroke="#5d6972" stroke-width="1.2" d="M635.57,-394.07C614,-403.11 582.92,-416.14 556.72,-427.13"/>
<polygon fill="#5d6972" stroke="#5d6972" stroke-width="1.2" points="555.68,-424.91 550.18,-429.88 557.58,-429.43 555.68,-424.91"/>
</g>
<!-- choice_EOS261_0_4&#45;&gt;course__EOS261 -->
<g id="edge44" class="edge">
<title>choice_EOS261_0_4&#45;&gt;course__EOS261</title>
<path fill="none" stroke="#5d6972" stroke-width="1.2" d="M635.81,-143.32C620.45,-150.51 601.63,-161.43 589,-175.98 567.58,-200.67 585.78,-222.67 561,-243.98 522.84,-276.81 483.51,-232.55 451,-270.98 369.68,-367.1 445.15,-715.38 409,-835.98 400.09,-865.69 381.81,-896.29 368.04,-916.74"/>
<polygon fill="#5d6972" stroke="#5d6972" stroke-width="1.2" points="365.86,-915.59 363.93,-922.75 369.9,-918.36 365.86,-915.59"/>
</g>
<!-- choice_EOS312_0_0&#45;&gt;course__EOS312 -->
<g id="edge50" class="edge">
<title>choice_EOS312_0_0&#45;&gt;course__EOS312</title>
<path fill="none" stroke="#5d6972" stroke-width="1.2" d="M649.13,-219.33C628.19,-248.31 589.42,-307.28 575,-364.48 565.93,-400.47 555.03,-1001.2 575,-1032.48 586.39,-1050.33 609.14,-1057.9 628.66,-1061.03"/>
<polygon fill="#5d6972" stroke="#5d6972" stroke-width="1.2" points="628.41,-1063.47 635.68,-1062 629.08,-1058.62 628.41,-1063.47"/>
</g>
<!-- choice_EOS314_0_0&#45;&gt;course__EOS314 -->
<g id="edge55" class="edge">
<title>choice_EOS314_0_0&#45;&gt;course__EOS314</title>
<path fill="none" stroke="#5d6972" stroke-width="1.2" d="M639.04,-67.06C611.52,-88.72 565.41,-125.01 535.6,-148.47"/>
<polygon fill="#5d6972" stroke="#5d6972" stroke-width="1.2" points="533.86,-146.73 529.87,-152.98 536.89,-150.58 533.86,-146.73"/>
</g>
<!-- choice_EOS316_0_1&#45;&gt;course__EOS316 -->
<g id="edge60" class="edge">
<title>choice_EOS316_0_1&#45;&gt;course__EOS316</title>
<path fill="none" stroke="#5d6972" stroke-width="1.2" d="M635.7,-926.32C614.94,-928.97 587.83,-936.37 575,-956.48 561.01,-978.4 561.01,-1402.57 575,-1424.48 586.39,-1442.33 609.14,-1449.9 628.66,-1453.03"/>
<polygon fill="#5d6972" stroke="#5d6972" stroke-width="1.2" points="628.41,-1455.47 635.68,-1454 629.08,-1450.62 628.41,-1455.47"/>
</g>
<!-- choice_EOS321_0_1_0&#45;&gt;course__EOS325 -->
<g id="edge72" class="edge">
<title>choice_EOS321_0_1_0&#45;&gt;course__EOS325</title>
<path fill="none" stroke="#5d6972" stroke-width="1.2" d="M656.19,-553.23C638.41,-601.92 590.91,-739.35 575,-858.48 571,-888.44 558.74,-1105.01 575,-1130.48 586.39,-1148.33 609.14,-1155.9 628.66,-1159.03"/>
<polygon fill="#5d6972" stroke="#5d6972" stroke-width="1.2" points="628.41,-1161.47 635.68,-1160 629.08,-1156.62 628.41,-1161.47"/>
</g>
<!-- choice_EOS321_0_1_0&#45;&gt;course__EOS321 -->
<g id="edge67" class="edge">
<title>choice_EOS321_0_1_0&#45;&gt;course__EOS321</title>
<path fill="none" stroke="#5d6972" stroke-width="1.2" d="M668.37,-553.16C687.4,-632.25 763.01,-946.6 784.98,-1037.96"/>
<polygon fill="#5d6972" stroke="#5d6972" stroke-width="1.2" points="782.63,-1038.65 786.65,-1044.88 787.39,-1037.5 782.63,-1038.65"/>
</g>
<!-- choice_EOS325_0_0&#45;&gt;course__EOS325 -->
<g id="edge70" class="edge">
<title>choice_EOS325_0_0&#45;&gt;course__EOS325</title>
<path fill="none" stroke="#5d6972" stroke-width="1.2" d="M533.24,-1323.24C543.28,-1318.67 553.99,-1312.09 561,-1302.98 593.63,-1260.63 553.03,-1225.54 589,-1185.98 599.21,-1174.76 614.67,-1168.57 628.74,-1165.16"/>
<polygon fill="#5d6972" stroke="#5d6972" stroke-width="1.2" points="629.61,-1167.48 635.94,-1163.62 628.58,-1162.69 629.61,-1167.48"/>
</g>
<!-- choice_EOS431_0_0&#45;&gt;course__EOS431 -->
<g id="edge80" class="edge">
<title>choice_EOS431_0_0&#45;&gt;course__EOS431</title>
<path fill="none" stroke="#5d6972" stroke-width="1.2" d="M376.64,-804.45C388.49,-800.09 401.51,-793.06 409,-781.98 475.67,-683.37 385.22,-347.19 451,-247.98 452.15,-246.25 453.44,-244.62 454.85,-243.08"/>
<polygon fill="#5d6972" stroke="#5d6972" stroke-width="1.2" points="456.6,-244.8 460.02,-238.22 453.24,-241.23 456.6,-244.8"/>
</g>
<!-- choice_EOS460_0_0&#45;&gt;course__EOS460 -->
<g id="edge84" class="edge">
<title>choice_EOS460_0_0&#45;&gt;course__EOS460</title>
<path fill="none" stroke="#5d6972" stroke-width="1.2" d="M690.05,-880.82C701.93,-884.38 715.08,-890.51 723,-900.98 813.25,-1020.31 696.54,-1101.95 765,-1234.98 765.07,-1235.11 765.13,-1235.24 765.2,-1235.37"/>
<polygon fill="#5d6972" stroke="#5d6972" stroke-width="1.2" points="762.97,-1236.44 768.87,-1240.93 767.06,-1233.74 762.97,-1236.44"/>
</g>
</g>
</svg>
