<?xml version="1.0" encoding="UTF-8" standalone="no"?>
<!DOCTYPE svg PUBLIC "-//W3C//DTD SVG 1.1//EN"
 "http://www.w3.org/Graphics/SVG/1.1/DTD/svg11.dtd">
<!-- Generated by graphviz version 2.43.0 (0)
 -->
<!-- Title: BSC&#45;OPSC Pages: 1 -->
<svg width="3231pt" height="3094pt"
 viewBox="0.00 0.00 3230.52 3093.68" xmlns="http://www.w3.org/2000/svg" xmlns:xlink="http://www.w3.org/1999/xlink">
<g id="graph0" class="graph" transform="scale(1 1) rotate(0) translate(32.4 3061.28)">
<title>BSC&#45;OPSC</title>
<g id="clust1" class="cluster">
<title>cluster_year&#45;1</title>
<path fill="#fbfcfd" stroke="#d8dde1" stroke-width="1.2" d="M20,-2372.88C20,-2372.88 877.86,-2372.88 877.86,-2372.88 883.86,-2372.88 889.86,-2378.88 889.86,-2384.88 889.86,-2384.88 889.86,-2930.88 889.86,-2930.88 889.86,-2936.88 883.86,-2942.88 877.86,-2942.88 877.86,-2942.88 20,-2942.88 20,-2942.88 14,-2942.88 8,-2936.88 8,-2930.88 8,-2930.88 8,-2384.88 8,-2384.88 8,-2378.88 14,-2372.88 20,-2372.88"/>
</g>
<g id="clust5" class="cluster">
<title>cluster_year&#45;2</title>
<path fill="#fbfcfd" stroke="#d8dde1" stroke-width="1.2" d="M1097,-2480.88C1097,-2480.88 2031.86,-2480.88 2031.86,-2480.88 2037.86,-2480.88 2043.86,-2486.88 2043.86,-2492.88 2043.86,-2492.88 2043.86,-3008.88 2043.86,-3008.88 2043.86,-3014.88 2037.86,-3020.88 2031.86,-3020.88 2031.86,-3020.88 1097,-3020.88 1097,-3020.88 1091,-3020.88 1085,-3014.88 1085,-3008.88 1085,-3008.88 1085,-2492.88 1085,-2492.88 1085,-2486.88 1091,-2480.88 1097,-2480.88"/>
</g>
<g id="clust11" class="cluster">
<title>cluster_years&#45;3&#45;4</title>
<path fill="#fbfcfd" stroke="#d8dde1" stroke-width="1.2" d="M2251,-1496.88C2251,-1496.88 3145.72,-1496.88 3145.72,-1496.88 3151.72,-1496.88 3157.72,-1502.88 3157.72,-1508.88 3157.72,-1508.88 3157.72,-2452.88 3157.72,-2452.88 3157.72,-2458.88 3151.72,-2464.88 3145.72,-2464.88 3145.72,-2464.88 2251,-2464.88 2251,-2464.88 2245,-2464.88 2239,-2458.88 2239,-2452.88 2239,-2452.88 2239,-1508.88 2239,-1508.88 2239,-1502.88 2245,-1496.88 2251,-1496.88"/>
</g>
<!-- course__CHEM101 -->
<g id="node1" class="node">
<title>course__CHEM101</title>
<g id="a_node1"><a xlink:href="../../../courses/CHEM101.html" xlink:title="Equivalent or cross&#45;listed: CHEM101: Fundamentals of Chemistry from Atoms to Materials | CHEM150: Engineering Chemistry" target="_top">
<path fill="#d7e9ef" stroke="#1f4f66" stroke-width="1.6" d="M365,-2724.88C365,-2724.88 269,-2724.88 269,-2724.88 263,-2724.88 257,-2718.88 257,-2712.88 257,-2712.88 257,-2700.88 257,-2700.88 257,-2694.88 263,-2688.88 269,-2688.88 269,-2688.88 365,-2688.88 365,-2688.88 371,-2688.88 377,-2694.88 377,-2700.88 377,-2700.88 377,-2712.88 377,-2712.88 377,-2718.88 371,-2724.88 365,-2724.88"/>
<text text-anchor="middle" x="317" y="-2704.38" font-family="Avenir Next" font-size="10.00" fill="#17232b">CHEM101 / CHEM150</text>
</a>
</g>
</g>
<!-- course__CHEM102 -->
<g id="node4" class="node">
<title>course__CHEM102</title>
<g id="a_node4"><a xlink:href="../../../courses/CHEM102.html" xlink:title="CHEM102: Chemical Reactivity Fundamentals with Environmental Applications" target="_top">
<path fill="#d7e9ef" stroke="#1f4f66" stroke-width="1.6" d="M524.5,-2604.88C524.5,-2604.88 484.5,-2604.88 484.5,-2604.88 478.5,-2604.88 472.5,-2598.88 472.5,-2592.88 472.5,-2592.88 472.5,-2580.88 472.5,-2580.88 472.5,-2574.88 478.5,-2568.88 484.5,-2568.88 484.5,-2568.88 524.5,-2568.88 524.5,-2568.88 530.5,-2568.88 536.5,-2574.88 536.5,-2580.88 536.5,-2580.88 536.5,-2592.88 536.5,-2592.88 536.5,-2598.88 530.5,-2604.88 524.5,-2604.88"/>
<text text-anchor="middle" x="504.5" y="-2584.38" font-family="Avenir Next" font-size="10.00" fill="#17232b">CHEM102</text>
</a>
</g>
</g>
<!-- course__CHEM101&#45;&gt;course__CHEM102 -->
<g id="edge82" class="edge">
<title>course__CHEM101&#45;&gt;course__CHEM102</title>
<path fill="none" stroke="#5d6972" stroke-width="1.2" d="M348.15,-2688.79C357.45,-2683.13 367.69,-2676.81 377,-2670.88 409.12,-2650.43 445.26,-2626.32 470.66,-2609.19"/>
<polygon fill="#5d6972" stroke="#5d6972" stroke-width="1.2" points="472.12,-2611.15 476.55,-2605.21 469.38,-2607.09 472.12,-2611.15"/>
</g>
<!-- course__EOS313 -->
<g id="node20" class="node">
<title>course__EOS313</title>
<g id="a_node20"><a xlink:href="../../../courses/EOS313.html" xlink:title="EOS313: Introductory Geological Oceanography" target="_top">
<path fill="#ead9b8" stroke="#8f6a3b" stroke-width="1.3" d="M2643.5,-1560.88C2643.5,-1560.88 2613.5,-1560.88 2613.5,-1560.88 2607.5,-1560.88 2601.5,-1554.88 2601.5,-1548.88 2601.5,-1548.88 2601.5,-1536.88 2601.5,-1536.88 2601.5,-1530.88 2607.5,-1524.88 2613.5,-1524.88 2613.5,-1524.88 2643.5,-1524.88 2643.5,-1524.88 2649.5,-1524.88 2655.5,-1530.88 2655.5,-1536.88 2655.5,-1536.88 2655.5,-1548.88 2655.5,-1548.88 2655.5,-1554.88 2649.5,-1560.88 2643.5,-1560.88"/>
<text text-anchor="middle" x="2628.5" y="-1540.38" font-family="Avenir Next" font-size="10.00" fill="#3f3120">EOS313</text>
</a>
</g>
</g>
<!-- course__CHEM101&#45;&gt;course__EOS313 -->
<g id="edge97" class="edge">
<title>course__CHEM101&#45;&gt;course__EOS313</title>
<path fill="none" stroke="#5d6972" stroke-width="1.2" d="M341.28,-2688.84C353.18,-2678.7 367.18,-2665.21 377,-2650.88 431.86,-2570.81 394.11,-2520.15 460,-2448.88 490.09,-2416.34 525.03,-2441.17 549,-2403.88 673.95,-2209.5 505.27,-519.1 632,-325.88 671.25,-266.04 705.44,-255.88 777,-255.88 777,-255.88 777,-255.88 946,-255.88 1236.97,-255.88 1302.03,-155.88 1593,-155.88 1593,-155.88 1593,-155.88 2312,-155.88 2394.57,-155.88 2438.14,-139.3 2492,-201.88 2581.35,-305.69 2620.61,-1341.34 2626.66,-1517.48"/>
<polygon fill="#5d6972" stroke="#5d6972" stroke-width="1.2" points="2624.21,-1517.62 2626.9,-1524.53 2629.11,-1517.45 2624.21,-1517.62"/>
</g>
<!-- year_band__year&#45;1__exit -->
<!-- course__CHEM101&#45;&gt;year_band__year&#45;1__exit -->
<!-- course__MATH100 -->
<g id="node2" class="node">
<title>course__MATH100</title>
<g id="a_node2"><a xlink:href="../../../courses/MATH100.html" xlink:title="Collapsed in simplified view: MATH100: Calculus I | MATH102: Calculus for Students in the Social and Biological Sciences | MATH109: Introduction to Calculus" target="_top">
<path fill="#d7e9ef" stroke="#1f4f66" stroke-width="1.6" d="M337,-2810.88C337,-2810.88 297,-2810.88 297,-2810.88 291,-2810.88 285,-2804.88 285,-2798.88 285,-2798.88 285,-2786.88 285,-2786.88 285,-2780.88 291,-2774.88 297,-2774.88 297,-2774.88 337,-2774.88 337,-2774.88 343,-2774.88 349,-2780.88 349,-2786.88 349,-2786.88 349,-2798.88 349,-2798.88 349,-2804.88 343,-2810.88 337,-2810.88"/>
<text text-anchor="middle" x="317" y="-2790.38" font-family="Avenir Next" font-size="10.00" fill="#17232b">Calculus I</text>
</a>
</g>
</g>
<!-- course__MATH100&#45;&gt;course__CHEM102 -->
<g id="edge83" class="edge">
<title>course__MATH100&#45;&gt;course__CHEM102</title>
<path fill="none" stroke="#5d6972" stroke-width="1.2" d="M339.24,-2774.68C350.95,-2764.17 365.42,-2750.39 377,-2736.88 419.19,-2687.63 414.11,-2662.7 460,-2616.88 462.47,-2614.42 465.16,-2612.02 467.96,-2609.73"/>
<polygon fill="#5d6972" stroke="#5d6972" stroke-width="1.2" points="469.78,-2611.42 473.81,-2605.19 466.78,-2607.55 469.78,-2611.42"/>
</g>
<!-- course__CSC110 -->
<g id="node5" class="node">
<title>course__CSC110</title>
<g id="a_node5"><a xlink:href="../../../courses/CSC110.html" xlink:title="Collapsed in simplified view: CSC110: Fundamentals of Programming I | CSC111: Fundamentals of Programming with Engineering Applications" target="_top">
<path fill="#d7e9ef" stroke="#1f4f66" stroke-width="1.6" d="M537,-2776.88C537,-2776.88 472,-2776.88 472,-2776.88 466,-2776.88 460,-2770.88 460,-2764.88 460,-2764.88 460,-2752.88 460,-2752.88 460,-2746.88 466,-2740.88 472,-2740.88 472,-2740.88 537,-2740.88 537,-2740.88 543,-2740.88 549,-2746.88 549,-2752.88 549,-2752.88 549,-2764.88 549,-2764.88 549,-2770.88 543,-2776.88 537,-2776.88"/>
<text text-anchor="middle" x="504.5" y="-2756.38" font-family="Avenir Next" font-size="10.00" fill="#17232b">Programming I</text>
</a>
</g>
</g>
<!-- course__MATH100&#45;&gt;course__CSC110 -->
<g id="edge84" class="edge">
<title>course__MATH100&#45;&gt;course__CSC110</title>
<path fill="none" stroke="#5d6972" stroke-width="1.2" d="M349.05,-2787.19C377.36,-2782 419.7,-2774.24 452.9,-2768.16"/>
<polygon fill="#5d6972" stroke="#5d6972" stroke-width="1.2" points="453.39,-2770.56 459.83,-2766.88 452.51,-2765.74 453.39,-2770.56"/>
</g>
<!-- course__MATH101 -->
<g id="node6" class="node">
<title>course__MATH101</title>
<g id="a_node6"><a xlink:href="../../../courses/MATH101.html" xlink:title="MATH101: Calculus II" target="_top">
<path fill="#d7e9ef" stroke="#1f4f66" stroke-width="1.6" d="M524,-2664.88C524,-2664.88 485,-2664.88 485,-2664.88 479,-2664.88 473,-2658.88 473,-2652.88 473,-2652.88 473,-2640.88 473,-2640.88 473,-2634.88 479,-2628.88 485,-2628.88 485,-2628.88 524,-2628.88 524,-2628.88 530,-2628.88 536,-2634.88 536,-2640.88 536,-2640.88 536,-2652.88 536,-2652.88 536,-2658.88 530,-2664.88 524,-2664.88"/>
<text text-anchor="middle" x="504.5" y="-2644.38" font-family="Avenir Next" font-size="10.00" fill="#17232b">MATH101</text>
</a>
</g>
</g>
<!-- course__MATH100&#45;&gt;course__MATH101 -->
<g id="edge121" class="edge">
<title>course__MATH100&#45;&gt;course__MATH101</title>
<path fill="none" stroke="#5d6972" stroke-width="1.2" d="M349.26,-2775.15C358.41,-2769.6 368.29,-2763.26 377,-2756.88 414.55,-2729.39 454.55,-2693.33 479.28,-2670.12"/>
<polygon fill="#5d6972" stroke="#5d6972" stroke-width="1.2" points="481.21,-2671.67 484.63,-2665.09 477.85,-2668.11 481.21,-2671.67"/>
</g>
<!-- course__PHYS102A -->
<g id="node7" class="node">
<title>course__PHYS102A</title>
<g id="a_node7"><a xlink:href="../../../courses/PHYS102A.html" xlink:title="Collapsed in simplified view: PHYS102A: General Physics I | PHYS110: Introductory Physics I | PHYS120: Physics I" target="_top">
<path fill="#d7e9ef" stroke="#1f4f66" stroke-width="1.6" d="M522,-2862.88C522,-2862.88 487,-2862.88 487,-2862.88 481,-2862.88 475,-2856.88 475,-2850.88 475,-2850.88 475,-2838.88 475,-2838.88 475,-2832.88 481,-2826.88 487,-2826.88 487,-2826.88 522,-2826.88 522,-2826.88 528,-2826.88 534,-2832.88 534,-2838.88 534,-2838.88 534,-2850.88 534,-2850.88 534,-2856.88 528,-2862.88 522,-2862.88"/>
<text text-anchor="middle" x="504.5" y="-2842.38" font-family="Avenir Next" font-size="10.00" fill="#17232b">Physics I</text>
</a>
</g>
</g>
<!-- course__MATH100&#45;&gt;course__PHYS102A -->
<g id="edge137" class="edge">
<title>course__MATH100&#45;&gt;course__PHYS102A</title>
<path fill="none" stroke="#5d6972" stroke-width="1.2" d="M349.05,-2801.58C381.79,-2810.76 433.3,-2825.2 467.72,-2834.85"/>
<polygon fill="#5d6972" stroke="#5d6972" stroke-width="1.2" points="467.39,-2837.3 474.79,-2836.83 468.71,-2832.58 467.39,-2837.3"/>
</g>
<!-- course__PHYS102B -->
<g id="node8" class="node">
<title>course__PHYS102B</title>
<g id="a_node8"><a xlink:href="../../../courses/PHYS102B.html" xlink:title="Collapsed in simplified view: PHYS102B: General Physics II | PHYS111: Introductory Physics II | PHYS130: Physics II" target="_top">
<path fill="#d7e9ef" stroke="#1f4f66" stroke-width="1.6" d="M682,-2612.88C682,-2612.88 644,-2612.88 644,-2612.88 638,-2612.88 632,-2606.88 632,-2600.88 632,-2600.88 632,-2588.88 632,-2588.88 632,-2582.88 638,-2576.88 644,-2576.88 644,-2576.88 682,-2576.88 682,-2576.88 688,-2576.88 694,-2582.88 694,-2588.88 694,-2588.88 694,-2600.88 694,-2600.88 694,-2606.88 688,-2612.88 682,-2612.88"/>
<text text-anchor="middle" x="663" y="-2592.38" font-family="Avenir Next" font-size="10.00" fill="#17232b">Physics II</text>
</a>
</g>
</g>
<!-- course__MATH100&#45;&gt;course__PHYS102B -->
<g id="edge139" class="edge">
<title>course__MATH100&#45;&gt;course__PHYS102B</title>
<path fill="none" stroke="#5d6972" stroke-width="1.2" d="M349.12,-2779.21C394.3,-2758.93 480.18,-2718.75 549,-2676.88 579.03,-2658.61 611.31,-2634.72 633.64,-2617.44"/>
<polygon fill="#5d6972" stroke="#5d6972" stroke-width="1.2" points="635.36,-2619.21 639.38,-2612.98 632.35,-2615.34 635.36,-2619.21"/>
</g>
<!-- course__MATH100&#45;&gt;year_band__year&#45;1__exit -->
<!-- choice_EOS311_0_2 -->
<g id="node48" class="node">
<title>choice_EOS311_0_2</title>
<path fill="#fff7ee" stroke="#b7793f" stroke-width="1.1" d="M1806.5,-323.88C1806.5,-323.88 1776.5,-323.88 1776.5,-323.88 1770.5,-323.88 1764.5,-317.88 1764.5,-311.88 1764.5,-311.88 1764.5,-299.88 1764.5,-299.88 1764.5,-293.88 1770.5,-287.88 1776.5,-287.88 1776.5,-287.88 1806.5,-287.88 1806.5,-287.88 1812.5,-287.88 1818.5,-293.88 1818.5,-299.88 1818.5,-299.88 1818.5,-311.88 1818.5,-311.88 1818.5,-317.88 1812.5,-323.88 1806.5,-323.88"/>
<text text-anchor="middle" x="1791.5" y="-303.68" font-family="Avenir Next" font-size="9.00">2 of</text>
</g>
<!-- course__MATH100&#45;&gt;choice_EOS311_0_2 -->
<g id="edge85" class="edge">
<title>course__MATH100&#45;&gt;choice_EOS311_0_2</title>
<path fill="none" stroke="#7a8389" d="M341.89,-2774.81C353.81,-2764.75 367.65,-2751.35 377,-2736.88 437.78,-2642.78 387.33,-2584.14 460,-2498.88 489.15,-2464.68 525.07,-2488.92 549,-2450.88 804.28,-2045.16 297.65,-305.88 777,-305.88 777,-305.88 777,-305.88 1394.5,-305.88 1528.82,-305.88 1688.78,-305.88 1757,-305.88"/>
<polygon fill="#7a8389" stroke="#7a8389" points="1757.08,-308.33 1764.08,-305.88 1757.08,-303.43 1757.08,-308.33"/>
</g>
<!-- choice_MATH211_0 -->
<g id="node54" class="node">
<title>choice_MATH211_0</title>
<path fill="#fff7ee" stroke="#b7793f" stroke-width="1.1" d="M1806.5,-1728.88C1806.5,-1728.88 1776.5,-1728.88 1776.5,-1728.88 1770.5,-1728.88 1764.5,-1722.88 1764.5,-1716.88 1764.5,-1716.88 1764.5,-1704.88 1764.5,-1704.88 1764.5,-1698.88 1770.5,-1692.88 1776.5,-1692.88 1776.5,-1692.88 1806.5,-1692.88 1806.5,-1692.88 1812.5,-1692.88 1818.5,-1698.88 1818.5,-1704.88 1818.5,-1704.88 1818.5,-1716.88 1818.5,-1716.88 1818.5,-1722.88 1812.5,-1728.88 1806.5,-1728.88"/>
<text text-anchor="middle" x="1791.5" y="-1708.68" font-family="Avenir Next" font-size="9.00">1 of</text>
</g>
<!-- course__MATH100&#45;&gt;choice_MATH211_0 -->
<g id="edge124" class="edge">
<title>course__MATH100&#45;&gt;choice_MATH211_0</title>
<path fill="none" stroke="#7a8389" d="M341.03,-2774.67C352.87,-2764.48 366.88,-2751 377,-2736.88 428.31,-2665.27 401.87,-2623.08 460,-2556.88 490.84,-2521.76 524.02,-2540.38 549,-2500.88 782.96,-2130.9 423.25,-555.88 861,-555.88 861,-555.88 861,-555.88 1030,-555.88 1590.67,-555.88 1761.28,-1517.01 1786.91,-1685.74"/>
<polygon fill="#7a8389" stroke="#7a8389" points="1784.5,-1686.18 1787.96,-1692.74 1789.34,-1685.45 1784.5,-1686.18"/>
</g>
<!-- course__EOS120 -->
<g id="node3" class="node">
<title>course__EOS120</title>
<g id="a_node3"><a xlink:href="../../../courses/EOS120.html" xlink:title="EOS120: The Dynamic Earth" target="_top">
<path fill="#f9f9f9" stroke="#363636" d="M332,-2638.88C332,-2638.88 302,-2638.88 302,-2638.88 296,-2638.88 290,-2632.88 290,-2626.88 290,-2626.88 290,-2614.88 290,-2614.88 290,-2608.88 296,-2602.88 302,-2602.88 302,-2602.88 332,-2602.88 332,-2602.88 338,-2602.88 344,-2608.88 344,-2614.88 344,-2614.88 344,-2626.88 344,-2626.88 344,-2632.88 338,-2638.88 332,-2638.88"/>
<text text-anchor="middle" x="317" y="-2618.68" font-family="Avenir Next" font-size="9.00" fill="#363636">EOS120</text>
</a>
</g>
</g>
<!-- course__EOS120&#45;&gt;course__EOS313 -->
<g id="edge96" class="edge">
<title>course__EOS120&#45;&gt;course__EOS313</title>
<path fill="none" stroke="#5d6972" stroke-width="1.2" d="M330.73,-2602.69C342.73,-2585.51 361.17,-2559.01 377,-2535.88 414.25,-2481.46 412.63,-2458.76 460,-2412.88 493.57,-2380.37 525.61,-2397.34 549,-2356.88 666.98,-2152.79 475.24,-412.94 632,-236.88 978.55,152.33 1269.36,-55.88 1790.5,-55.88 1790.5,-55.88 1790.5,-55.88 2312,-55.88 2399.73,-55.88 2440.88,-65.58 2492,-136.88 2575.81,-253.78 2619.82,-1337.46 2626.58,-1517.57"/>
<polygon fill="#5d6972" stroke="#5d6972" stroke-width="1.2" points="2624.14,-1517.86 2626.85,-1524.76 2629.03,-1517.68 2624.14,-1517.86"/>
</g>
<!-- course__EOS311 -->
<g id="node21" class="node">
<title>course__EOS311</title>
<g id="a_node21"><a xlink:href="../../../courses/EOS311.html" xlink:title="Equivalent or cross&#45;listed: BIOL311: Biological Oceanography | EOS311: Biological Oceanography" target="_top">
<path fill="#ead9b8" stroke="#8f6a3b" stroke-width="1.3" d="M2668.5,-1620.88C2668.5,-1620.88 2588.5,-1620.88 2588.5,-1620.88 2582.5,-1620.88 2576.5,-1614.88 2576.5,-1608.88 2576.5,-1608.88 2576.5,-1596.88 2576.5,-1596.88 2576.5,-1590.88 2582.5,-1584.88 2588.5,-1584.88 2588.5,-1584.88 2668.5,-1584.88 2668.5,-1584.88 2674.5,-1584.88 2680.5,-1590.88 2680.5,-1596.88 2680.5,-1596.88 2680.5,-1608.88 2680.5,-1608.88 2680.5,-1614.88 2674.5,-1620.88 2668.5,-1620.88"/>
<text text-anchor="middle" x="2628.5" y="-1600.38" font-family="Avenir Next" font-size="10.00" fill="#3f3120">BIOL311 / EOS311</text>
</a>
</g>
</g>
<!-- course__CHEM102&#45;&gt;course__EOS311 -->
<g id="edge88" class="edge">
<title>course__CHEM102&#45;&gt;course__EOS311</title>
<path fill="none" stroke="#5d6972" stroke-width="1.2" d="M516.54,-2568.79C527.01,-2550.59 542.13,-2521.38 549,-2493.88 719.56,-1811.69 500.71,-1604.71 632,-913.88 678.24,-670.58 613.34,-405.88 861,-405.88 861,-405.88 861,-405.88 1141,-405.88 1539.49,-405.88 1616.51,-205.88 2015,-205.88 2015,-205.88 2015,-205.88 2312,-205.88 2393.95,-205.88 2438.75,-183.59 2492,-245.88 2683.99,-470.47 2418.79,-1322.09 2575,-1572.88 2576.47,-1575.25 2578.21,-1577.45 2580.13,-1579.49"/>
<polygon fill="#5d6972" stroke="#5d6972" stroke-width="1.2" points="2578.8,-1581.59 2585.62,-1584.52 2582.12,-1577.98 2578.8,-1581.59"/>
</g>
<!-- course__EOS312 -->
<g id="node31" class="node">
<title>course__EOS312</title>
<g id="a_node31"><a xlink:href="../../../courses/EOS312.html" xlink:title="EOS312: Introductory Chemical Oceanography" target="_top">
<path fill="#ead9b8" stroke="#8f6a3b" stroke-width="1.3" d="M2810,-1850.88C2810,-1850.88 2780,-1850.88 2780,-1850.88 2774,-1850.88 2768,-1844.88 2768,-1838.88 2768,-1838.88 2768,-1826.88 2768,-1826.88 2768,-1820.88 2774,-1814.88 2780,-1814.88 2780,-1814.88 2810,-1814.88 2810,-1814.88 2816,-1814.88 2822,-1820.88 2822,-1826.88 2822,-1826.88 2822,-1838.88 2822,-1838.88 2822,-1844.88 2816,-1850.88 2810,-1850.88"/>
<text text-anchor="middle" x="2795" y="-1830.38" font-family="Avenir Next" font-size="10.00" fill="#3f3120">EOS312</text>
</a>
</g>
</g>
<!-- course__CHEM102&#45;&gt;course__EOS312 -->
<g id="edge95" class="edge">
<title>course__CHEM102&#45;&gt;course__EOS312</title>
<path fill="none" stroke="#5d6972" stroke-width="1.2" d="M516.61,-2568.8C527.13,-2550.62 542.28,-2521.41 549,-2493.88 601.78,-2277.71 518.25,-684.13 632,-492.88 692.63,-390.95 742.4,-355.88 861,-355.88 861,-355.88 861,-355.88 1141,-355.88 1450.31,-355.88 1481.19,-105.88 1790.5,-105.88 1790.5,-105.88 1790.5,-105.88 2466,-105.88 2519.4,-105.88 2458.03,301.17 2682,-563.88 2690.11,-595.21 2777.07,-1630.74 2791.87,-1807.38"/>
<polygon fill="#5d6972" stroke="#5d6972" stroke-width="1.2" points="2789.43,-1807.68 2792.46,-1814.45 2794.32,-1807.27 2789.43,-1807.68"/>
</g>
<!-- course__CHEM102&#45;&gt;year_band__year&#45;1__exit -->
<!-- course__MATH248 -->
<g id="node13" class="node">
<title>course__MATH248</title>
<g id="a_node13"><a xlink:href="../../../courses/MATH248.html" xlink:title="Equivalent or cross&#45;listed: MATH248: Computer Assisted Mathematics | PHYS248: Computer Assisted Physics" target="_top">
<path fill="#d7e9ef" stroke="#1f4f66" stroke-width="1.6" d="M1640,-2690.88C1640,-2690.88 1548,-2690.88 1548,-2690.88 1542,-2690.88 1536,-2684.88 1536,-2678.88 1536,-2678.88 1536,-2666.88 1536,-2666.88 1536,-2660.88 1542,-2654.88 1548,-2654.88 1548,-2654.88 1640,-2654.88 1640,-2654.88 1646,-2654.88 1652,-2660.88 1652,-2666.88 1652,-2666.88 1652,-2678.88 1652,-2678.88 1652,-2684.88 1646,-2690.88 1640,-2690.88"/>
<text text-anchor="middle" x="1594" y="-2670.38" font-family="Avenir Next" font-size="10.00" fill="#17232b">MATH248 / PHYS248</text>
</a>
</g>
</g>
<!-- course__CSC110&#45;&gt;course__MATH248 -->
<g id="edge129" class="edge">
<title>course__CSC110&#45;&gt;course__MATH248</title>
<path fill="none" stroke="#5d6972" stroke-width="1.2" d="M516.72,-2740.6C550.87,-2683.88 653.68,-2504.76 694,-2340.88 752.77,-2101.98 628.86,-1433.31 777,-1236.88 800.96,-1205.11 821.21,-1205.88 861,-1205.88 861,-1205.88 861,-1205.88 1030,-1205.88 1128.82,-1205.88 1365.4,-1462.33 1453,-1671.88 1536.53,-1871.69 1416.27,-2462.42 1536,-2642.88 1537.7,-2645.45 1539.7,-2647.81 1541.91,-2649.98"/>
<polygon fill="#5d6972" stroke="#5d6972" stroke-width="1.2" points="1540.5,-2652.01 1547.41,-2654.71 1543.7,-2648.29 1540.5,-2652.01"/>
</g>
<!-- course__CSC110&#45;&gt;year_band__year&#45;1__exit -->
<!-- choice_EOS325_0_2_0 -->
<g id="node50" class="node">
<title>choice_EOS325_0_2_0</title>
<path fill="#fff7ee" stroke="#b7793f" stroke-width="1.1" d="M2480,-628.88C2480,-628.88 2450,-628.88 2450,-628.88 2444,-628.88 2438,-622.88 2438,-616.88 2438,-616.88 2438,-604.88 2438,-604.88 2438,-598.88 2444,-592.88 2450,-592.88 2450,-592.88 2480,-592.88 2480,-592.88 2486,-592.88 2492,-598.88 2492,-604.88 2492,-604.88 2492,-616.88 2492,-616.88 2492,-622.88 2486,-628.88 2480,-628.88"/>
<text text-anchor="middle" x="2465" y="-608.68" font-family="Avenir Next" font-size="9.00">1 of</text>
</g>
<!-- course__CSC110&#45;&gt;choice_EOS325_0_2_0 -->
<g id="edge101" class="edge">
<title>course__CSC110&#45;&gt;choice_EOS325_0_2_0</title>
<path fill="none" stroke="#7a8389" d="M517.59,-2740.85C527.73,-2724.78 541.69,-2700.26 549,-2676.88 630.58,-2415.87 662.27,-1726.49 694,-1454.88 731.47,-1134.06 701.97,-1047.05 777,-732.88 801.99,-628.25 753.43,-505.88 861,-505.88 861,-505.88 861,-505.88 1394.5,-505.88 1708.36,-505.88 1787.02,-513.46 2100,-536.88 2213.65,-545.39 2244.76,-534.99 2355,-563.88 2381.74,-570.89 2410.38,-583.45 2431.59,-593.83"/>
<polygon fill="#7a8389" stroke="#7a8389" points="2430.56,-596.06 2437.92,-596.97 2432.74,-591.67 2430.56,-596.06"/>
</g>
<!-- course__MATH101&#45;&gt;course__PHYS102B -->
<g id="edge140" class="edge">
<title>course__MATH101&#45;&gt;course__PHYS102B</title>
<path fill="none" stroke="#5d6972" stroke-width="1.2" d="M536.05,-2636.73C561.55,-2628.26 597.99,-2616.15 625.11,-2607.14"/>
<polygon fill="#5d6972" stroke="#5d6972" stroke-width="1.2" points="625.93,-2609.45 631.8,-2604.92 624.38,-2604.8 625.93,-2609.45"/>
</g>
<!-- course__MATH200 -->
<g id="node10" class="node">
<title>course__MATH200</title>
<g id="a_node10"><a xlink:href="../../../courses/MATH200.html" xlink:title="Equivalent or cross&#45;listed: MATH200: Calculus III | MATH202: Intermediate Calculus for CSC and EOS" target="_top">
<path fill="#d7e9ef" stroke="#1f4f66" stroke-width="1.6" d="M1441,-2690.88C1441,-2690.88 1346,-2690.88 1346,-2690.88 1340,-2690.88 1334,-2684.88 1334,-2678.88 1334,-2678.88 1334,-2666.88 1334,-2666.88 1334,-2660.88 1340,-2654.88 1346,-2654.88 1346,-2654.88 1441,-2654.88 1441,-2654.88 1447,-2654.88 1453,-2660.88 1453,-2666.88 1453,-2666.88 1453,-2678.88 1453,-2678.88 1453,-2684.88 1447,-2690.88 1441,-2690.88"/>
<text text-anchor="middle" x="1393.5" y="-2670.38" font-family="Avenir Next" font-size="10.00" fill="#17232b">MATH200 / MATH202</text>
</a>
</g>
</g>
<!-- course__MATH101&#45;&gt;course__MATH200 -->
<g id="edge122" class="edge">
<title>course__MATH101&#45;&gt;course__MATH200</title>
<path fill="none" stroke="#5d6972" stroke-width="1.2" d="M536.01,-2629.3C540.77,-2625.63 545.33,-2621.46 549,-2616.88 606.85,-2544.68 815.53,-1925.45 861,-1844.88 922.16,-1736.5 942.49,-1710.33 1029,-1620.88 1109.12,-1538.04 1166.58,-1408.43 1251,-1486.88 1435.45,-1658.28 1226.69,-2389.1 1334,-2616.88 1340.02,-2629.66 1350.33,-2641.04 1360.63,-2650.14"/>
<polygon fill="#5d6972" stroke="#5d6972" stroke-width="1.2" points="1359.07,-2652.03 1365.99,-2654.69 1362.24,-2648.29 1359.07,-2652.03"/>
</g>
<!-- course__STAT254 -->
<g id="node11" class="node">
<title>course__STAT254</title>
<g id="a_node11"><a xlink:href="../../../courses/STAT254.html" xlink:title="Collapsed in simplified view: STAT254: Probability and Statistics for Engineers | STAT255: Statistics for Life Sciences I | STAT260: Introduction to Probability and Statistics I" target="_top">
<path fill="#d7e9ef" stroke="#1f4f66" stroke-width="1.6" d="M1424.5,-2750.88C1424.5,-2750.88 1362.5,-2750.88 1362.5,-2750.88 1356.5,-2750.88 1350.5,-2744.88 1350.5,-2738.88 1350.5,-2738.88 1350.5,-2726.88 1350.5,-2726.88 1350.5,-2720.88 1356.5,-2714.88 1362.5,-2714.88 1362.5,-2714.88 1424.5,-2714.88 1424.5,-2714.88 1430.5,-2714.88 1436.5,-2720.88 1436.5,-2726.88 1436.5,-2726.88 1436.5,-2738.88 1436.5,-2738.88 1436.5,-2744.88 1430.5,-2750.88 1424.5,-2750.88"/>
<text text-anchor="middle" x="1393.5" y="-2730.38" font-family="Avenir Next" font-size="10.00" fill="#17232b">Intro statistics</text>
</a>
</g>
</g>
<!-- course__MATH101&#45;&gt;course__STAT254 -->
<g id="edge173" class="edge">
<title>course__MATH101&#45;&gt;course__STAT254</title>
<path fill="none" stroke="#5d6972" stroke-width="1.2" d="M534.41,-2628.56C539.45,-2624.91 544.52,-2620.95 549,-2616.88 665.34,-2511.37 655.85,-2446.84 777,-2346.88 914.53,-2233.41 1020.63,-2151.07 1167,-2252.88 1342.13,-2374.69 1192.35,-2543.37 1334,-2702.88 1337.11,-2706.38 1340.72,-2709.53 1344.59,-2712.34"/>
<polygon fill="#5d6972" stroke="#5d6972" stroke-width="1.2" points="1343.25,-2714.39 1350.43,-2716.24 1345.97,-2710.32 1343.25,-2714.39"/>
</g>
<!-- course__MATH101&#45;&gt;year_band__year&#45;1__exit -->
<!-- course__MATH101&#45;&gt;choice_EOS311_0_2 -->
<g id="edge86" class="edge">
<title>course__MATH101&#45;&gt;choice_EOS311_0_2</title>
<path fill="none" stroke="#7a8389" d="M536.26,-2630.78C541.24,-2626.87 545.81,-2622.24 549,-2616.88 670.73,-2412.34 630.7,-674.63 777,-486.88 801.46,-455.49 821.21,-455.88 861,-455.88 861,-455.88 861,-455.88 1141,-455.88 1266.12,-455.88 1643.22,-348.87 1757.39,-315.62"/>
<polygon fill="#7a8389" stroke="#7a8389" points="1758.18,-317.94 1764.21,-313.63 1756.81,-313.24 1758.18,-317.94"/>
</g>
<!-- course__PHYS102A&#45;&gt;course__PHYS102B -->
<g id="edge138" class="edge">
<title>course__PHYS102A&#45;&gt;course__PHYS102B</title>
<path fill="none" stroke="#5d6972" stroke-width="1.2" d="M520.64,-2826.67C529.31,-2815.94 540.18,-2801.94 549,-2788.88 588.63,-2730.19 628.93,-2657.09 648.98,-2619.59"/>
<polygon fill="#5d6972" stroke="#5d6972" stroke-width="1.2" points="651.36,-2620.35 652.49,-2613.02 647.03,-2618.04 651.36,-2620.35"/>
</g>
<!-- course__PHYS102A&#45;&gt;year_band__year&#45;1__exit -->
<!-- course__PHYS102B&#45;&gt;course__MATH248 -->
<g id="edge130" class="edge">
<title>course__PHYS102B&#45;&gt;course__MATH248</title>
<path fill="none" stroke="#5d6972" stroke-width="1.2" d="M669.92,-2576.77C683.14,-2539.1 718.54,-2451.74 777,-2402.88 807.53,-2377.36 821.21,-2371.88 861,-2371.88 861,-2371.88 861,-2371.88 1030,-2371.88 1231.85,-2371.88 1113.36,-2133.47 1167,-1938.88 1209.75,-1783.83 1103.86,-1521.93 1251,-1586.88 1301.08,-1608.98 1295.51,-1638.96 1334,-1677.88 1384.86,-1729.31 1420.99,-1724.03 1453,-1788.88 1621.79,-2130.83 1323.33,-2326.35 1536,-2642.88 1537.72,-2645.44 1539.73,-2647.79 1541.95,-2649.96"/>
<polygon fill="#5d6972" stroke="#5d6972" stroke-width="1.2" points="1540.55,-2651.99 1547.46,-2654.68 1543.73,-2648.27 1540.55,-2651.99"/>
</g>
<!-- course__PHYS216 -->
<g id="node14" class="node">
<title>course__PHYS216</title>
<g id="a_node14"><a xlink:href="../../../courses/PHYS216.html" xlink:title="PHYS216: Introductory Electricity and Magnetism" target="_top">
<path fill="#d7e9ef" stroke="#1f4f66" stroke-width="1.6" d="M1612,-2630.88C1612,-2630.88 1576,-2630.88 1576,-2630.88 1570,-2630.88 1564,-2624.88 1564,-2618.88 1564,-2618.88 1564,-2606.88 1564,-2606.88 1564,-2600.88 1570,-2594.88 1576,-2594.88 1576,-2594.88 1612,-2594.88 1612,-2594.88 1618,-2594.88 1624,-2600.88 1624,-2606.88 1624,-2606.88 1624,-2618.88 1624,-2618.88 1624,-2624.88 1618,-2630.88 1612,-2630.88"/>
<text text-anchor="middle" x="1594" y="-2610.38" font-family="Avenir Next" font-size="10.00" fill="#17232b">PHYS216</text>
</a>
</g>
</g>
<!-- course__PHYS102B&#45;&gt;course__PHYS216 -->
<g id="edge143" class="edge">
<title>course__PHYS102B&#45;&gt;course__PHYS216</title>
<path fill="none" stroke="#5d6972" stroke-width="1.2" d="M670.42,-2576.72C688.59,-2526.22 741.34,-2385.69 777,-2352.88 806.29,-2325.94 821.21,-2321.88 861,-2321.88 861,-2321.88 861,-2321.88 1030,-2321.88 1392.45,-2321.88 916.14,-1398.18 1251,-1536.88 1368.3,-1585.47 1395.26,-1625.8 1453,-1738.88 1532.31,-1894.2 1581.04,-2461.17 1591.07,-2587.72"/>
<polygon fill="#5d6972" stroke="#5d6972" stroke-width="1.2" points="1588.63,-2587.96 1591.62,-2594.75 1593.51,-2587.58 1588.63,-2587.96"/>
</g>
<!-- course__PHYS229 -->
<g id="node15" class="node">
<title>course__PHYS229</title>
<g id="a_node15"><a xlink:href="../../../courses/PHYS229.html" xlink:title="PHYS229: Introduction to Experimental Physics" target="_top">
<path fill="#d7e9ef" stroke="#1f4f66" stroke-width="1.6" d="M1612,-2966.88C1612,-2966.88 1576,-2966.88 1576,-2966.88 1570,-2966.88 1564,-2960.88 1564,-2954.88 1564,-2954.88 1564,-2942.88 1564,-2942.88 1564,-2936.88 1570,-2930.88 1576,-2930.88 1576,-2930.88 1612,-2930.88 1612,-2930.88 1618,-2930.88 1624,-2936.88 1624,-2942.88 1624,-2942.88 1624,-2954.88 1624,-2954.88 1624,-2960.88 1618,-2966.88 1612,-2966.88"/>
<text text-anchor="middle" x="1594" y="-2946.38" font-family="Avenir Next" font-size="10.00" fill="#17232b">PHYS229</text>
</a>
</g>
</g>
<!-- course__PHYS102B&#45;&gt;course__PHYS229 -->
<g id="edge147" class="edge">
<title>course__PHYS102B&#45;&gt;course__PHYS229</title>
<path fill="none" stroke="#5d6972" stroke-width="1.2" d="M673.41,-2576.69C697.84,-2532.28 767.92,-2421.88 861,-2421.88 861,-2421.88 861,-2421.88 1030,-2421.88 1220.93,-2421.88 1309.83,-2370.56 1453,-2496.88 1455.11,-2498.74 1556.33,-2829.07 1585.32,-2923.77"/>
<polygon fill="#5d6972" stroke="#5d6972" stroke-width="1.2" points="1583.04,-2924.71 1587.43,-2930.69 1587.73,-2923.28 1583.04,-2924.71"/>
</g>
<!-- course__PHYS215 -->
<g id="node16" class="node">
<title>course__PHYS215</title>
<g id="a_node16"><a xlink:href="../../../courses/PHYS215.html" xlink:title="PHYS215: Introductory Quantum Physics" target="_top">
<path fill="#d7e9ef" stroke="#1f4f66" stroke-width="1.6" d="M1809.5,-2750.88C1809.5,-2750.88 1773.5,-2750.88 1773.5,-2750.88 1767.5,-2750.88 1761.5,-2744.88 1761.5,-2738.88 1761.5,-2738.88 1761.5,-2726.88 1761.5,-2726.88 1761.5,-2720.88 1767.5,-2714.88 1773.5,-2714.88 1773.5,-2714.88 1809.5,-2714.88 1809.5,-2714.88 1815.5,-2714.88 1821.5,-2720.88 1821.5,-2726.88 1821.5,-2726.88 1821.5,-2738.88 1821.5,-2738.88 1821.5,-2744.88 1815.5,-2750.88 1809.5,-2750.88"/>
<text text-anchor="middle" x="1791.5" y="-2730.38" font-family="Avenir Next" font-size="10.00" fill="#17232b">PHYS215</text>
</a>
</g>
</g>
<!-- course__PHYS102B&#45;&gt;course__PHYS215 -->
<g id="edge141" class="edge">
<title>course__PHYS102B&#45;&gt;course__PHYS215</title>
<path fill="none" stroke="#5d6972" stroke-width="1.2" d="M668.32,-2576.87C674.9,-2548.68 687.39,-2492.34 694,-2443.88 710.66,-2321.67 702.74,-1435.37 777,-1336.88 800.96,-1305.11 821.21,-1305.88 861,-1305.88 861,-1305.88 861,-1305.88 1251,-1305.88 1347.73,-1305.88 1389.96,-1313.52 1453,-1386.88 1558.32,-1509.45 1488.81,-1586.32 1536,-1740.88 1578.47,-1879.99 1611.7,-1907.13 1652,-2046.88 1725.11,-2300.38 1773.84,-2617.4 1786.95,-2707.79"/>
<polygon fill="#5d6972" stroke="#5d6972" stroke-width="1.2" points="1784.55,-2708.29 1787.97,-2714.87 1789.4,-2707.59 1784.55,-2708.29"/>
</g>
<!-- course__PHYS217 -->
<g id="node17" class="node">
<title>course__PHYS217</title>
<g id="a_node17"><a xlink:href="../../../courses/PHYS217.html" xlink:title="Equivalent or cross&#45;listed: PHYS217: Introductory Thermodynamics | PHYS317: Thermodynamics" target="_top">
<path fill="#d7e9ef" stroke="#1f4f66" stroke-width="1.6" d="M1836,-2810.88C1836,-2810.88 1747,-2810.88 1747,-2810.88 1741,-2810.88 1735,-2804.88 1735,-2798.88 1735,-2798.88 1735,-2786.88 1735,-2786.88 1735,-2780.88 1741,-2774.88 1747,-2774.88 1747,-2774.88 1836,-2774.88 1836,-2774.88 1842,-2774.88 1848,-2780.88 1848,-2786.88 1848,-2786.88 1848,-2798.88 1848,-2798.88 1848,-2804.88 1842,-2810.88 1836,-2810.88"/>
<text text-anchor="middle" x="1791.5" y="-2790.38" font-family="Avenir Next" font-size="10.00" fill="#17232b">PHYS217 / PHYS317</text>
</a>
</g>
</g>
<!-- course__PHYS102B&#45;&gt;course__PHYS217 -->
<g id="edge145" class="edge">
<title>course__PHYS102B&#45;&gt;course__PHYS217</title>
<path fill="none" stroke="#5d6972" stroke-width="1.2" d="M667.86,-2576.8C673.83,-2548.51 685.52,-2492.05 694,-2443.88 736.4,-2202.97 616.39,-1355.88 861,-1355.88 861,-1355.88 861,-1355.88 1141,-1355.88 1310.16,-1355.88 1357.92,-1433.97 1453,-1573.88 1472.08,-1601.95 1714.35,-2735.94 1735,-2762.88 1737.06,-2765.56 1739.43,-2768.04 1742,-2770.31"/>
<polygon fill="#5d6972" stroke="#5d6972" stroke-width="1.2" points="1740.53,-2772.27 1747.54,-2774.7 1743.58,-2768.43 1740.53,-2772.27"/>
</g>
<!-- course__EOS340 -->
<g id="node18" class="node">
<title>course__EOS340</title>
<g id="a_node18"><a xlink:href="../../../courses/EOS340.html" xlink:title="Equivalent or cross&#45;listed: EOS340: Atmospheric Physics | PHYS340: Atmospheric Physics" target="_top">
<path fill="#d7e9ef" stroke="#1f4f66" stroke-width="1.6" d="M1435,-2544.88C1435,-2544.88 1352,-2544.88 1352,-2544.88 1346,-2544.88 1340,-2538.88 1340,-2532.88 1340,-2532.88 1340,-2520.88 1340,-2520.88 1340,-2514.88 1346,-2508.88 1352,-2508.88 1352,-2508.88 1435,-2508.88 1435,-2508.88 1441,-2508.88 1447,-2514.88 1447,-2520.88 1447,-2520.88 1447,-2532.88 1447,-2532.88 1447,-2538.88 1441,-2544.88 1435,-2544.88"/>
<text text-anchor="middle" x="1393.5" y="-2524.38" font-family="Avenir Next" font-size="10.00" fill="#17232b">EOS340 / PHYS340</text>
</a>
</g>
</g>
<!-- course__PHYS102B&#45;&gt;course__EOS340 -->
<g id="edge105" class="edge">
<title>course__PHYS102B&#45;&gt;course__EOS340</title>
<path fill="none" stroke="#5d6972" stroke-width="1.2" d="M679.3,-2576.73C709.98,-2542.52 782.78,-2471.88 861,-2471.88 861,-2471.88 861,-2471.88 1141,-2471.88 1208.45,-2471.88 1283.77,-2490.99 1334.24,-2506.68"/>
<polygon fill="#5d6972" stroke="#5d6972" stroke-width="1.2" points="1333.78,-2509.11 1341.2,-2508.87 1335.25,-2504.43 1333.78,-2509.11"/>
</g>
<!-- course__PHYS102B&#45;&gt;course__EOS311 -->
<g id="edge90" class="edge">
<title>course__PHYS102B&#45;&gt;course__EOS311</title>
<path fill="none" stroke="#5d6972" stroke-width="1.2" d="M666.55,-2576.75C672.3,-2535.15 686.4,-2429.59 694,-2340.88 710.52,-2147.92 667.33,-605.88 861,-605.88 861,-605.88 861,-605.88 1030,-605.88 1356.02,-605.88 2314.48,-210.43 2492,-483.88 2624.15,-687.45 2445.29,-1367.75 2575,-1572.88 2576.64,-1575.48 2578.59,-1577.87 2580.76,-1580.07"/>
<polygon fill="#5d6972" stroke="#5d6972" stroke-width="1.2" points="2579.31,-1582.07 2586.18,-1584.88 2582.57,-1578.4 2579.31,-1582.07"/>
</g>
<!-- course__EOS314 -->
<g id="node22" class="node">
<title>course__EOS314</title>
<g id="a_node22"><a xlink:href="../../../courses/EOS314.html" xlink:title="EOS314: Descriptive Physical Oceanography" target="_top">
<path fill="#f9f9f9" stroke="#363636" d="M2643.5,-1680.88C2643.5,-1680.88 2613.5,-1680.88 2613.5,-1680.88 2607.5,-1680.88 2601.5,-1674.88 2601.5,-1668.88 2601.5,-1668.88 2601.5,-1656.88 2601.5,-1656.88 2601.5,-1650.88 2607.5,-1644.88 2613.5,-1644.88 2613.5,-1644.88 2643.5,-1644.88 2643.5,-1644.88 2649.5,-1644.88 2655.5,-1650.88 2655.5,-1656.88 2655.5,-1656.88 2655.5,-1668.88 2655.5,-1668.88 2655.5,-1674.88 2649.5,-1680.88 2643.5,-1680.88"/>
<text text-anchor="middle" x="2628.5" y="-1660.68" font-family="Avenir Next" font-size="9.00" fill="#363636">EOS314</text>
</a>
</g>
</g>
<!-- course__PHYS102B&#45;&gt;course__EOS314 -->
<g id="edge99" class="edge">
<title>course__PHYS102B&#45;&gt;course__EOS314</title>
<path fill="none" stroke="#5d6972" stroke-width="1.2" d="M666.53,-2576.75C672.27,-2535.14 686.31,-2429.58 694,-2340.88 710.24,-2153.44 672.86,-655.88 861,-655.88 861,-655.88 861,-655.88 1141,-655.88 1415.13,-655.88 2103.06,-328.83 2355,-436.88 2436.19,-471.7 2456.01,-500.21 2492,-580.88 2587.54,-795.04 2449.4,-1434.84 2575,-1632.88 2579.74,-1640.36 2587.06,-1646.17 2594.75,-1650.59"/>
<polygon fill="#5d6972" stroke="#5d6972" stroke-width="1.2" points="2593.9,-1652.92 2601.24,-1653.99 2596.17,-1648.58 2593.9,-1652.92"/>
</g>
<!-- course__EOS325 -->
<g id="node26" class="node">
<title>course__EOS325</title>
<g id="a_node26"><a xlink:href="../../../courses/EOS325.html" xlink:title="EOS325: Earth System Modelling" target="_top">
<path fill="#f9f9f9" stroke="#363636" d="M2643.5,-1740.88C2643.5,-1740.88 2613.5,-1740.88 2613.5,-1740.88 2607.5,-1740.88 2601.5,-1734.88 2601.5,-1728.88 2601.5,-1728.88 2601.5,-1716.88 2601.5,-1716.88 2601.5,-1710.88 2607.5,-1704.88 2613.5,-1704.88 2613.5,-1704.88 2643.5,-1704.88 2643.5,-1704.88 2649.5,-1704.88 2655.5,-1710.88 2655.5,-1716.88 2655.5,-1716.88 2655.5,-1728.88 2655.5,-1728.88 2655.5,-1734.88 2649.5,-1740.88 2643.5,-1740.88"/>
<text text-anchor="middle" x="2628.5" y="-1720.68" font-family="Avenir Next" font-size="9.00" fill="#363636">EOS325</text>
</a>
</g>
</g>
<!-- course__PHYS102B&#45;&gt;course__EOS325 -->
<g id="edge103" class="edge">
<title>course__PHYS102B&#45;&gt;course__EOS325</title>
<path fill="none" stroke="#5d6972" stroke-width="1.2" d="M666.37,-2576.73C671.76,-2535.1 685.15,-2429.47 694,-2340.88 712.15,-2159.17 678.39,-705.88 861,-705.88 861,-705.88 861,-705.88 1394.5,-705.88 1678.22,-705.88 1731.28,-555.88 2015,-555.88 2015,-555.88 2015,-555.88 2100,-555.88 2307.84,-555.88 2406.55,-621.42 2492,-810.88 2653.88,-1169.79 2361.62,-1361.98 2575,-1692.88 2579.8,-1700.32 2587.14,-1706.12 2594.82,-1710.55"/>
<polygon fill="#5d6972" stroke="#5d6972" stroke-width="1.2" points="2593.97,-1712.87 2601.31,-1713.95 2596.25,-1708.53 2593.97,-1712.87"/>
</g>
<!-- course__EOS431 -->
<g id="node27" class="node">
<title>course__EOS431</title>
<g id="a_node27"><a xlink:href="../../../courses/EOS431.html" xlink:title="Equivalent or cross&#45;listed: EOS431: Physical Oceanography | PHYS441: Physical Oceanography" target="_top">
<path fill="#d7e9ef" stroke="#1f4f66" stroke-width="1.6" d="M2670,-1800.88C2670,-1800.88 2587,-1800.88 2587,-1800.88 2581,-1800.88 2575,-1794.88 2575,-1788.88 2575,-1788.88 2575,-1776.88 2575,-1776.88 2575,-1770.88 2581,-1764.88 2587,-1764.88 2587,-1764.88 2670,-1764.88 2670,-1764.88 2676,-1764.88 2682,-1770.88 2682,-1776.88 2682,-1776.88 2682,-1788.88 2682,-1788.88 2682,-1794.88 2676,-1800.88 2670,-1800.88"/>
<text text-anchor="middle" x="2628.5" y="-1780.38" font-family="Avenir Next" font-size="10.00" fill="#17232b">EOS431 / PHYS441</text>
</a>
</g>
</g>
<!-- course__PHYS102B&#45;&gt;course__EOS431 -->
<g id="edge117" class="edge">
<title>course__PHYS102B&#45;&gt;course__EOS431</title>
<path fill="none" stroke="#5d6972" stroke-width="1.2" d="M668.32,-2576.87C674.91,-2548.68 687.4,-2492.35 694,-2443.88 727.45,-2198.13 667.29,-1553.32 777,-1330.88 799.14,-1285.99 810.95,-1255.88 861,-1255.88 861,-1255.88 861,-1255.88 1030,-1255.88 1542.6,-1255.88 1502.4,-655.88 2015,-655.88 2015,-655.88 2015,-655.88 2100,-655.88 2304.51,-655.88 2383.69,-723.4 2492,-896.88 2694.42,-1221.11 2367.4,-1431.94 2575,-1752.88 2576.67,-1755.46 2578.64,-1757.84 2580.82,-1760.03"/>
<polygon fill="#5d6972" stroke="#5d6972" stroke-width="1.2" points="2579.39,-1762.04 2586.27,-1764.82 2582.63,-1758.36 2579.39,-1762.04"/>
</g>
<!-- course__PHYS102B&#45;&gt;year_band__year&#45;1__exit -->
<!-- course__MATH211 -->
<g id="node9" class="node">
<title>course__MATH211</title>
<g id="a_node9"><a xlink:href="../../../courses/MATH211.html" xlink:title="MATH211: Matrix Algebra I" target="_top">
<path fill="#d7e9ef" stroke="#1f4f66" stroke-width="1.6" d="M1413,-2604.88C1413,-2604.88 1374,-2604.88 1374,-2604.88 1368,-2604.88 1362,-2598.88 1362,-2592.88 1362,-2592.88 1362,-2580.88 1362,-2580.88 1362,-2574.88 1368,-2568.88 1374,-2568.88 1374,-2568.88 1413,-2568.88 1413,-2568.88 1419,-2568.88 1425,-2574.88 1425,-2580.88 1425,-2580.88 1425,-2592.88 1425,-2592.88 1425,-2598.88 1419,-2604.88 1413,-2604.88"/>
<text text-anchor="middle" x="1393.5" y="-2584.38" font-family="Avenir Next" font-size="10.00" fill="#17232b">MATH211</text>
</a>
</g>
</g>
<!-- course__MATH211&#45;&gt;course__MATH248 -->
<g id="edge127" class="edge">
<title>course__MATH211&#45;&gt;course__MATH248</title>
<path fill="none" stroke="#5d6972" stroke-width="1.2" d="M1425.08,-2600.13C1456.92,-2613.92 1507.25,-2635.73 1544.52,-2651.88"/>
<polygon fill="#5d6972" stroke="#5d6972" stroke-width="1.2" points="1543.92,-2654.29 1551.32,-2654.82 1545.87,-2649.79 1543.92,-2654.29"/>
</g>
<!-- course__MATH342 -->
<g id="node23" class="node">
<title>course__MATH342</title>
<g id="a_node23"><a xlink:href="../../../courses/MATH342.html" xlink:title="MATH342: Intermediate Ordinary Differential Equations" target="_top">
<path fill="#d7e9ef" stroke="#1f4f66" stroke-width="1.6" d="M2648,-1980.88C2648,-1980.88 2609,-1980.88 2609,-1980.88 2603,-1980.88 2597,-1974.88 2597,-1968.88 2597,-1968.88 2597,-1956.88 2597,-1956.88 2597,-1950.88 2603,-1944.88 2609,-1944.88 2609,-1944.88 2648,-1944.88 2648,-1944.88 2654,-1944.88 2660,-1950.88 2660,-1956.88 2660,-1956.88 2660,-1968.88 2660,-1968.88 2660,-1974.88 2654,-1980.88 2648,-1980.88"/>
<text text-anchor="middle" x="2628.5" y="-1960.38" font-family="Avenir Next" font-size="10.00" fill="#17232b">MATH342</text>
</a>
</g>
</g>
<!-- course__MATH211&#45;&gt;course__MATH342 -->
<g id="edge133" class="edge">
<title>course__MATH211&#45;&gt;course__MATH342</title>
<path fill="none" stroke="#5d6972" stroke-width="1.2" d="M1425.16,-2576.08C1435.05,-2571.41 1445.4,-2565.09 1453,-2556.88 1517.83,-2486.86 1485.57,-2439.88 1536,-2358.88 1563.89,-2314.09 1826.53,-2049.08 1848,-2000.88 1972.22,-1721.94 1811.35,-1599.81 1931,-1318.88 1985.54,-1190.81 2047.44,-1164.54 2183,-1132.88 2324.67,-1099.79 2400.92,-1127.44 2492,-1240.88 2685.92,-1482.43 2403.82,-1674.72 2575,-1932.88 2578.96,-1938.85 2584.54,-1943.77 2590.59,-1947.78"/>
<polygon fill="#5d6972" stroke="#5d6972" stroke-width="1.2" points="2589.5,-1949.98 2596.76,-1951.48 2592.02,-1945.78 2589.5,-1949.98"/>
</g>
<!-- course__MATH346 -->
<g id="node24" class="node">
<title>course__MATH346</title>
<g id="a_node24"><a xlink:href="../../../courses/MATH346.html" xlink:title="MATH346: Introduction to Partial Differential Equations" target="_top">
<path fill="#d7e9ef" stroke="#1f4f66" stroke-width="1.6" d="M2648,-2040.88C2648,-2040.88 2609,-2040.88 2609,-2040.88 2603,-2040.88 2597,-2034.88 2597,-2028.88 2597,-2028.88 2597,-2016.88 2597,-2016.88 2597,-2010.88 2603,-2004.88 2609,-2004.88 2609,-2004.88 2648,-2004.88 2648,-2004.88 2654,-2004.88 2660,-2010.88 2660,-2016.88 2660,-2016.88 2660,-2028.88 2660,-2028.88 2660,-2034.88 2654,-2040.88 2648,-2040.88"/>
<text text-anchor="middle" x="2628.5" y="-2020.38" font-family="Avenir Next" font-size="10.00" fill="#17232b">MATH346</text>
</a>
</g>
</g>
<!-- course__MATH211&#45;&gt;course__MATH346 -->
<g id="edge135" class="edge">
<title>course__MATH211&#45;&gt;course__MATH346</title>
<path fill="none" stroke="#5d6972" stroke-width="1.2" d="M1425.09,-2573.59C1434.44,-2568.91 1444.49,-2563.22 1453,-2556.88 1503.86,-2519 1818.36,-2200.95 1848,-2144.88 1995.24,-1866.31 1778.93,-1664.57 2015,-1455.88 2128.29,-1355.73 2225.97,-1389.05 2355,-1467.88 2449.15,-1525.4 2447.02,-1574.14 2492,-1674.88 2551.56,-1808.25 2486.2,-1876.91 2575,-1992.88 2579.26,-1998.44 2584.87,-2003.15 2590.83,-2007.06"/>
<polygon fill="#5d6972" stroke="#5d6972" stroke-width="1.2" points="2589.62,-2009.19 2596.88,-2010.71 2592.15,-2004.99 2589.62,-2009.19"/>
</g>
<!-- course__PHYS325 -->
<g id="node25" class="node">
<title>course__PHYS325</title>
<g id="a_node25"><a xlink:href="../../../courses/PHYS325.html" xlink:title="PHYS325: Optics" target="_top">
<path fill="#d7e9ef" stroke="#1f4f66" stroke-width="1.6" d="M2646.5,-1860.88C2646.5,-1860.88 2610.5,-1860.88 2610.5,-1860.88 2604.5,-1860.88 2598.5,-1854.88 2598.5,-1848.88 2598.5,-1848.88 2598.5,-1836.88 2598.5,-1836.88 2598.5,-1830.88 2604.5,-1824.88 2610.5,-1824.88 2610.5,-1824.88 2646.5,-1824.88 2646.5,-1824.88 2652.5,-1824.88 2658.5,-1830.88 2658.5,-1836.88 2658.5,-1836.88 2658.5,-1848.88 2658.5,-1848.88 2658.5,-1854.88 2652.5,-1860.88 2646.5,-1860.88"/>
<text text-anchor="middle" x="2628.5" y="-1840.38" font-family="Avenir Next" font-size="10.00" fill="#17232b">PHYS325</text>
</a>
</g>
</g>
<!-- course__MATH211&#45;&gt;course__PHYS325 -->
<g id="edge158" class="edge">
<title>course__MATH211&#45;&gt;course__PHYS325</title>
<path fill="none" stroke="#5d6972" stroke-width="1.2" d="M1425.3,-2577.01C1435.44,-2572.37 1445.92,-2565.83 1453,-2556.88 1548.47,-2436.27 1471.87,-2360.7 1536,-2220.88 1599.65,-2082.11 1618.87,-2039.99 1735,-1940.88 1777.63,-1904.49 1816.34,-1931.13 1848,-1884.88 1985.05,-1684.66 1772.37,-805.88 2015,-805.88 2015,-805.88 2015,-805.88 2100,-805.88 2290.8,-805.88 2380.34,-826.17 2492,-980.88 2709.48,-1282.21 2372.74,-1501.13 2575,-1812.88 2579.24,-1819.42 2585.44,-1824.69 2592.11,-1828.88"/>
<polygon fill="#5d6972" stroke="#5d6972" stroke-width="1.2" points="2591.02,-1831.08 2598.31,-1832.42 2593.45,-1826.82 2591.02,-1831.08"/>
</g>
<!-- year_band__year&#45;2__exit -->
<!-- course__MATH211&#45;&gt;year_band__year&#45;2__exit -->
<!-- course__MATH200&#45;&gt;course__STAT254 -->
<g id="edge172" class="edge">
<title>course__MATH200&#45;&gt;course__STAT254</title>
<path fill="none" stroke="#5d6972" stroke-width="1.2" d="M1393.5,-2691.16C1393.5,-2696.54 1393.5,-2701.92 1393.5,-2707.3"/>
<polygon fill="#5d6972" stroke="#5d6972" stroke-width="1.2" points="1391.05,-2707.63 1393.5,-2714.63 1395.95,-2707.63 1391.05,-2707.63"/>
</g>
<!-- course__MATH204 -->
<g id="node12" class="node">
<title>course__MATH204</title>
<g id="a_node12"><a xlink:href="../../../courses/MATH204.html" xlink:title="MATH204: Calculus IV" target="_top">
<path fill="#d7e9ef" stroke="#1f4f66" stroke-width="1.6" d="M1613.5,-2750.88C1613.5,-2750.88 1574.5,-2750.88 1574.5,-2750.88 1568.5,-2750.88 1562.5,-2744.88 1562.5,-2738.88 1562.5,-2738.88 1562.5,-2726.88 1562.5,-2726.88 1562.5,-2720.88 1568.5,-2714.88 1574.5,-2714.88 1574.5,-2714.88 1613.5,-2714.88 1613.5,-2714.88 1619.5,-2714.88 1625.5,-2720.88 1625.5,-2726.88 1625.5,-2726.88 1625.5,-2738.88 1625.5,-2738.88 1625.5,-2744.88 1619.5,-2750.88 1613.5,-2750.88"/>
<text text-anchor="middle" x="1594" y="-2730.38" font-family="Avenir Next" font-size="10.00" fill="#17232b">MATH204</text>
</a>
</g>
</g>
<!-- course__MATH200&#45;&gt;course__MATH204 -->
<g id="edge123" class="edge">
<title>course__MATH200&#45;&gt;course__MATH204</title>
<path fill="none" stroke="#5d6972" stroke-width="1.2" d="M1453.25,-2690.64C1486.24,-2700.61 1526.43,-2712.76 1555.23,-2721.46"/>
<polygon fill="#5d6972" stroke="#5d6972" stroke-width="1.2" points="1554.88,-2723.92 1562.29,-2723.6 1556.3,-2719.23 1554.88,-2723.92"/>
</g>
<!-- course__MATH200&#45;&gt;course__MATH248 -->
<g id="edge128" class="edge">
<title>course__MATH200&#45;&gt;course__MATH248</title>
<path fill="none" stroke="#5d6972" stroke-width="1.2" d="M1453.25,-2672.88C1476.97,-2672.88 1504.42,-2672.88 1528.68,-2672.88"/>
<polygon fill="#5d6972" stroke="#5d6972" stroke-width="1.2" points="1528.77,-2675.33 1535.77,-2672.88 1528.77,-2670.43 1528.77,-2675.33"/>
</g>
<!-- course__MATH200&#45;&gt;course__PHYS216 -->
<g id="edge144" class="edge">
<title>course__MATH200&#45;&gt;course__PHYS216</title>
<path fill="none" stroke="#5d6972" stroke-width="1.2" d="M1453.25,-2655.12C1487.01,-2644.92 1528.32,-2632.43 1557.24,-2623.69"/>
<polygon fill="#5d6972" stroke="#5d6972" stroke-width="1.2" points="1557.95,-2626.03 1563.94,-2621.66 1556.53,-2621.34 1557.95,-2626.03"/>
</g>
<!-- course__MATH200&#45;&gt;year_band__year&#45;2__exit -->
<!-- choice_MATH342_0_1 -->
<g id="node55" class="node">
<title>choice_MATH342_0_1</title>
<path fill="#fff7ee" stroke="#b7793f" stroke-width="1.1" d="M2480,-1288.88C2480,-1288.88 2450,-1288.88 2450,-1288.88 2444,-1288.88 2438,-1282.88 2438,-1276.88 2438,-1276.88 2438,-1264.88 2438,-1264.88 2438,-1258.88 2444,-1252.88 2450,-1252.88 2450,-1252.88 2480,-1252.88 2480,-1252.88 2486,-1252.88 2492,-1258.88 2492,-1264.88 2492,-1264.88 2492,-1276.88 2492,-1276.88 2492,-1282.88 2486,-1288.88 2480,-1288.88"/>
<text text-anchor="middle" x="2465" y="-1268.68" font-family="Avenir Next" font-size="9.00">1 of</text>
</g>
<!-- course__MATH200&#45;&gt;choice_MATH342_0_1 -->
<g id="edge131" class="edge">
<title>course__MATH200&#45;&gt;choice_MATH342_0_1</title>
<path fill="none" stroke="#7a8389" d="M1414.53,-2654.74C1426.08,-2644.02 1440.71,-2630.02 1453,-2616.88 1499.72,-2566.94 1818.1,-2206.38 1848,-2144.88 2020.59,-1789.85 1769.48,-1510.25 2099,-1292.88 2203.05,-1224.25 2362.2,-1247.95 2430.73,-1262.73"/>
<polygon fill="#7a8389" stroke="#7a8389" points="2430.49,-1265.18 2437.85,-1264.3 2431.54,-1260.4 2430.49,-1265.18"/>
</g>
<!-- course__STAT254&#45;&gt;year_band__year&#45;2__exit -->
<!-- course__MATH204&#45;&gt;course__PHYS215 -->
<g id="edge142" class="edge">
<title>course__MATH204&#45;&gt;course__PHYS215</title>
<path fill="none" stroke="#5d6972" stroke-width="1.2" d="M1625.55,-2732.88C1660.38,-2732.88 1717.29,-2732.88 1754.31,-2732.88"/>
<polygon fill="#5d6972" stroke="#5d6972" stroke-width="1.2" points="1754.44,-2735.33 1761.44,-2732.88 1754.44,-2730.43 1754.44,-2735.33"/>
</g>
<!-- course__MATH204&#45;&gt;course__PHYS217 -->
<g id="edge146" class="edge">
<title>course__MATH204&#45;&gt;course__PHYS217</title>
<path fill="none" stroke="#5d6972" stroke-width="1.2" d="M1625.55,-2742.26C1652.83,-2750.63 1693.65,-2763.16 1727.86,-2773.66"/>
<polygon fill="#5d6972" stroke="#5d6972" stroke-width="1.2" points="1727.2,-2776.02 1734.61,-2775.73 1728.64,-2771.33 1727.2,-2776.02"/>
</g>
<!-- course__MATH204&#45;&gt;course__PHYS325 -->
<g id="edge157" class="edge">
<title>course__MATH204&#45;&gt;course__PHYS325</title>
<path fill="none" stroke="#5d6972" stroke-width="1.2" d="M1625.76,-2721.91C1635.23,-2717.27 1645,-2711.02 1652,-2702.88 1725.32,-2617.63 1670.99,-2556.33 1735,-2463.88 1772.19,-2410.17 1816.26,-2426.98 1848,-2369.88 1978.57,-2134.96 1859.22,-2029.88 1931,-1770.88 1956.42,-1679.16 1968.36,-1656.85 2015,-1573.88 2098.82,-1424.76 2094.23,-1352.02 2239,-1260.88 2335.06,-1200.4 2406.3,-1151.44 2492,-1225.88 2690.93,-1398.66 2427.08,-1594.83 2575,-1812.88 2579.33,-1819.27 2585.5,-1824.46 2592.1,-1828.61"/>
<polygon fill="#5d6972" stroke="#5d6972" stroke-width="1.2" points="2590.95,-1830.78 2598.24,-1832.15 2593.4,-1826.53 2590.95,-1830.78"/>
</g>
<!-- course__MATH204&#45;&gt;course__EOS325 -->
<g id="edge102" class="edge">
<title>course__MATH204&#45;&gt;course__EOS325</title>
<path fill="none" stroke="#5d6972" stroke-width="1.2" d="M1625.63,-2722.57C1635.32,-2717.94 1645.25,-2711.52 1652,-2702.88 1747.5,-2580.65 1643.44,-2489.09 1735,-2363.88 1769.73,-2316.38 1815.34,-2343.83 1848,-2294.88 1981.31,-2095.09 1880.59,-1995.71 1931,-1760.88 1960.51,-1623.41 1949.42,-1580.25 2015,-1455.88 2086.93,-1319.47 2099.61,-1256.85 2239,-1190.88 2340.64,-1142.77 2406.28,-1115.1 2492,-1187.88 2665.39,-1335.1 2445.21,-1506.09 2575,-1692.88 2580.01,-1700.09 2587.34,-1705.79 2594.95,-1710.19"/>
<polygon fill="#5d6972" stroke="#5d6972" stroke-width="1.2" points="2594.03,-1712.48 2601.36,-1713.6 2596.33,-1708.15 2594.03,-1712.48"/>
</g>
<!-- course__PHYS321A -->
<g id="node28" class="node">
<title>course__PHYS321A</title>
<g id="a_node28"><a xlink:href="../../../courses/PHYS321A.html" xlink:title="PHYS321A: Classical Mechanics I" target="_top">
<path fill="#d7e9ef" stroke="#1f4f66" stroke-width="1.6" d="M2650,-2100.88C2650,-2100.88 2607,-2100.88 2607,-2100.88 2601,-2100.88 2595,-2094.88 2595,-2088.88 2595,-2088.88 2595,-2076.88 2595,-2076.88 2595,-2070.88 2601,-2064.88 2607,-2064.88 2607,-2064.88 2650,-2064.88 2650,-2064.88 2656,-2064.88 2662,-2070.88 2662,-2076.88 2662,-2076.88 2662,-2088.88 2662,-2088.88 2662,-2094.88 2656,-2100.88 2650,-2100.88"/>
<text text-anchor="middle" x="2628.5" y="-2080.38" font-family="Avenir Next" font-size="10.00" fill="#17232b">PHYS321A</text>
</a>
</g>
</g>
<!-- course__MATH204&#45;&gt;course__PHYS321A -->
<g id="edge148" class="edge">
<title>course__MATH204&#45;&gt;course__PHYS321A</title>
<path fill="none" stroke="#5d6972" stroke-width="1.2" d="M1625.73,-2721.36C1676.24,-2701.35 1778.14,-2656.36 1848,-2594.88 2069.1,-2400.32 1999.84,-2231.75 2239,-2059.88 2333.1,-1992.26 2381.19,-1962.99 2492,-1996.88 2534.55,-2009.89 2537.21,-2029.38 2575,-2052.88 2579.41,-2055.62 2584.08,-2058.43 2588.74,-2061.17"/>
<polygon fill="#5d6972" stroke="#5d6972" stroke-width="1.2" points="2587.79,-2063.45 2595.07,-2064.85 2590.25,-2059.21 2587.79,-2063.45"/>
</g>
<!-- course__PHYS326 -->
<g id="node30" class="node">
<title>course__PHYS326</title>
<g id="a_node30"><a xlink:href="../../../courses/PHYS326.html" xlink:title="PHYS326: Electricity and Magnetism" target="_top">
<path fill="#d7e9ef" stroke="#1f4f66" stroke-width="1.6" d="M2646.5,-1920.88C2646.5,-1920.88 2610.5,-1920.88 2610.5,-1920.88 2604.5,-1920.88 2598.5,-1914.88 2598.5,-1908.88 2598.5,-1908.88 2598.5,-1896.88 2598.5,-1896.88 2598.5,-1890.88 2604.5,-1884.88 2610.5,-1884.88 2610.5,-1884.88 2646.5,-1884.88 2646.5,-1884.88 2652.5,-1884.88 2658.5,-1890.88 2658.5,-1896.88 2658.5,-1896.88 2658.5,-1908.88 2658.5,-1908.88 2658.5,-1914.88 2652.5,-1920.88 2646.5,-1920.88"/>
<text text-anchor="middle" x="2628.5" y="-1900.38" font-family="Avenir Next" font-size="10.00" fill="#17232b">PHYS326</text>
</a>
</g>
</g>
<!-- course__MATH204&#45;&gt;course__PHYS326 -->
<g id="edge160" class="edge">
<title>course__MATH204&#45;&gt;course__PHYS326</title>
<path fill="none" stroke="#5d6972" stroke-width="1.2" d="M1625.69,-2721C1634.94,-2716.36 1644.59,-2710.34 1652,-2702.88 1708.48,-2646.07 1681.11,-2602.15 1735,-2542.88 1775.22,-2498.64 1816.32,-2520.59 1848,-2469.88 2011.88,-2207.54 1818.67,-2067.08 1931,-1778.88 1931.17,-1778.45 2238.66,-1351.18 2239,-1350.88 2314.57,-1283.79 2340.15,-1266.13 2438,-1240.88 2461.24,-1234.89 2473.96,-1225.05 2492,-1240.88 2704.97,-1427.71 2417.12,-1637.65 2575,-1872.88 2579.34,-1879.35 2585.59,-1884.6 2592.26,-1888.78"/>
<polygon fill="#5d6972" stroke="#5d6972" stroke-width="1.2" points="2591.17,-1890.98 2598.47,-1892.32 2593.6,-1886.72 2591.17,-1890.98"/>
</g>
<!-- course__MATH204&#45;&gt;year_band__year&#45;2__exit -->
<!-- choice_EOS340_1 -->
<g id="node51" class="node">
<title>choice_EOS340_1</title>
<path fill="#fff7ee" stroke="#b7793f" stroke-width="1.1" d="M1806.5,-1988.88C1806.5,-1988.88 1776.5,-1988.88 1776.5,-1988.88 1770.5,-1988.88 1764.5,-1982.88 1764.5,-1976.88 1764.5,-1976.88 1764.5,-1964.88 1764.5,-1964.88 1764.5,-1958.88 1770.5,-1952.88 1776.5,-1952.88 1776.5,-1952.88 1806.5,-1952.88 1806.5,-1952.88 1812.5,-1952.88 1818.5,-1958.88 1818.5,-1964.88 1818.5,-1964.88 1818.5,-1976.88 1818.5,-1976.88 1818.5,-1982.88 1812.5,-1988.88 1806.5,-1988.88"/>
<text text-anchor="middle" x="1791.5" y="-1968.68" font-family="Avenir Next" font-size="9.00">1 of</text>
</g>
<!-- course__MATH204&#45;&gt;choice_EOS340_1 -->
<g id="edge107" class="edge">
<title>course__MATH204&#45;&gt;choice_EOS340_1</title>
<path fill="none" stroke="#7a8389" d="M1625.59,-2722.91C1635.4,-2718.29 1645.42,-2711.78 1652,-2702.88 1673.82,-2673.37 1765.82,-2120.75 1786.4,-1995.83"/>
<polygon fill="#7a8389" stroke="#7a8389" points="1788.83,-1996.19 1787.55,-1988.88 1783.99,-1995.39 1788.83,-1996.19"/>
</g>
<!-- course__MATH204&#45;&gt;choice_MATH342_0_1 -->
<g id="edge132" class="edge">
<title>course__MATH204&#45;&gt;choice_MATH342_0_1</title>
<path fill="none" stroke="#7a8389" d="M1625.58,-2719.45C1634.53,-2714.83 1644.03,-2709.21 1652,-2702.88 1696.17,-2667.8 1691.14,-2642.34 1735,-2606.88 1779.55,-2570.87 1816.18,-2592.51 1848,-2544.88 2036.28,-2263.09 1722.11,-2053.75 1931,-1786.88 1980.31,-1723.88 2041.64,-1779.61 2100,-1724.88 2166.62,-1662.4 2130.36,-1611.52 2183,-1536.88 2256.97,-1432.01 2377.02,-1335.53 2433.19,-1293.31"/>
<polygon fill="#7a8389" stroke="#7a8389" points="2434.93,-1295.07 2439.07,-1288.92 2432,-1291.15 2434.93,-1295.07"/>
</g>
<!-- course__MATH248&#45;&gt;course__PHYS321A -->
<g id="edge149" class="edge">
<title>course__MATH248&#45;&gt;course__PHYS321A</title>
<path fill="none" stroke="#5d6972" stroke-width="1.2" d="M1638.09,-2654.86C1643.24,-2651.43 1648.05,-2647.45 1652,-2642.88 1724.66,-2558.72 1675.56,-2500.85 1735,-2406.88 1772.8,-2347.12 1817.29,-2358.58 1848,-2294.88 1921.88,-2141.65 1805.04,-1648.21 1931,-1533.88 2070.55,-1407.22 2200.43,-1432.05 2355,-1539.88 2456.73,-1610.85 2492.43,-1960.32 2575,-2052.88 2578.97,-2057.33 2583.76,-2061.28 2588.81,-2064.73"/>
<polygon fill="#5d6972" stroke="#5d6972" stroke-width="1.2" points="2587.61,-2066.87 2594.83,-2068.56 2590.24,-2062.74 2587.61,-2066.87"/>
</g>
<!-- course__PHYS323 -->
<g id="node29" class="node">
<title>course__PHYS323</title>
<g id="a_node29"><a xlink:href="../../../courses/PHYS323.html" xlink:title="PHYS323: Quantum Mechanics I" target="_top">
<path fill="#d7e9ef" stroke="#1f4f66" stroke-width="1.6" d="M2646.5,-2160.88C2646.5,-2160.88 2610.5,-2160.88 2610.5,-2160.88 2604.5,-2160.88 2598.5,-2154.88 2598.5,-2148.88 2598.5,-2148.88 2598.5,-2136.88 2598.5,-2136.88 2598.5,-2130.88 2604.5,-2124.88 2610.5,-2124.88 2610.5,-2124.88 2646.5,-2124.88 2646.5,-2124.88 2652.5,-2124.88 2658.5,-2130.88 2658.5,-2136.88 2658.5,-2136.88 2658.5,-2148.88 2658.5,-2148.88 2658.5,-2154.88 2652.5,-2160.88 2646.5,-2160.88"/>
<text text-anchor="middle" x="2628.5" y="-2140.38" font-family="Avenir Next" font-size="10.00" fill="#17232b">PHYS323</text>
</a>
</g>
</g>
<!-- course__MATH248&#45;&gt;course__PHYS323 -->
<g id="edge154" class="edge">
<title>course__MATH248&#45;&gt;course__PHYS323</title>
<path fill="none" stroke="#5d6972" stroke-width="1.2" d="M1636.06,-2654.77C1641.76,-2651.29 1647.27,-2647.32 1652,-2642.88 1703.64,-2594.42 1691.09,-2562.43 1735,-2506.88 1778.85,-2451.41 1817.03,-2458.45 1848,-2394.88 1986.74,-2110.05 1758.62,-1952.7 1931,-1686.88 2001.92,-1577.52 2057.33,-1571.45 2183,-1536.88 2332.28,-1495.81 2461.37,-2007.71 2575,-2112.88 2580.14,-2117.64 2586.17,-2121.96 2592.28,-2125.74"/>
<polygon fill="#5d6972" stroke="#5d6972" stroke-width="1.2" points="2591.1,-2127.89 2598.38,-2129.34 2593.59,-2123.67 2591.1,-2127.89"/>
</g>
<!-- course__MATH248&#45;&gt;course__PHYS326 -->
<g id="edge161" class="edge">
<title>course__MATH248&#45;&gt;course__PHYS326</title>
<path fill="none" stroke="#5d6972" stroke-width="1.2" d="M1639.07,-2654.81C1643.93,-2651.42 1648.42,-2647.46 1652,-2642.88 1746.83,-2521.76 1671.49,-2446.98 1735,-2306.88 1771.25,-2226.93 1817.24,-2227.1 1848,-2144.88 1990.71,-1763.44 1692.91,-1493.12 2015,-1243.88 2183.48,-1113.51 2337.7,-1050.01 2492,-1196.88 2601.63,-1301.23 2491.18,-1746.86 2575,-1872.88 2579.32,-1879.37 2585.55,-1884.62 2592.22,-1888.8"/>
<polygon fill="#5d6972" stroke="#5d6972" stroke-width="1.2" points="2591.13,-1891.01 2598.43,-1892.35 2593.56,-1886.75 2591.13,-1891.01"/>
</g>
<!-- course__MATH248&#45;&gt;year_band__year&#45;2__exit -->
<!-- course__PHYS216&#45;&gt;course__PHYS325 -->
<g id="edge156" class="edge">
<title>course__PHYS216&#45;&gt;course__PHYS325</title>
<path fill="none" stroke="#5d6972" stroke-width="1.2" d="M1597.16,-2594.77C1607.94,-2507.26 1658.39,-2128.85 1735,-2042.88 1770.65,-2002.88 1815.22,-2043.26 1848,-2000.88 1958.98,-1857.41 1867.73,-1358.87 1931,-1188.88 1953.71,-1127.87 1961.91,-1106.55 2015,-1068.88 2188.31,-945.91 2350.16,-877.64 2492,-1035.88 2607.91,-1165.18 2479.98,-1667.54 2575,-1812.88 2579.27,-1819.41 2585.48,-1824.67 2592.14,-1828.86"/>
<polygon fill="#5d6972" stroke="#5d6972" stroke-width="1.2" points="2591.06,-1831.06 2598.35,-1832.4 2593.49,-1826.8 2591.06,-1831.06"/>
</g>
<!-- course__PHYS216&#45;&gt;course__PHYS326 -->
<g id="edge159" class="edge">
<title>course__PHYS216&#45;&gt;course__PHYS326</title>
<path fill="none" stroke="#5d6972" stroke-width="1.2" d="M1599.33,-2594.76C1613.66,-2536.37 1662.83,-2348.76 1735,-2206.88 1774.8,-2128.64 1817.63,-2127.25 1848,-2044.88 1979.3,-1688.74 1766.79,-1537.1 1931,-1194.88 1988.19,-1075.7 2053.78,-1064.75 2183,-1036.88 2319.75,-1007.39 2409.32,-984.03 2492,-1096.88 2696.99,-1376.68 2385.18,-1582.58 2575,-1872.88 2579.27,-1879.41 2585.48,-1884.67 2592.14,-1888.85"/>
<polygon fill="#5d6972" stroke="#5d6972" stroke-width="1.2" points="2591.06,-1891.06 2598.35,-1892.4 2593.49,-1886.8 2591.06,-1891.06"/>
</g>
<!-- course__PHYS216&#45;&gt;year_band__year&#45;2__exit -->
<!-- course__PHYS229&#45;&gt;year_band__year&#45;2__exit -->
<!-- course__PHYS215&#45;&gt;course__PHYS323 -->
<g id="edge153" class="edge">
<title>course__PHYS215&#45;&gt;course__PHYS323</title>
<path fill="none" stroke="#5d6972" stroke-width="1.2" d="M1805.42,-2714.83C1880.28,-2610.84 2261.3,-2089.92 2438,-2010.88 2459.91,-2001.08 2470.33,-2000.57 2492,-2010.88 2544.78,-2035.98 2530.43,-2075.07 2575,-2112.88 2580.28,-2117.36 2586.33,-2121.53 2592.4,-2125.24"/>
<polygon fill="#5d6972" stroke="#5d6972" stroke-width="1.2" points="2591.17,-2127.36 2598.45,-2128.8 2593.66,-2123.14 2591.17,-2127.36"/>
</g>
<!-- course__PHYS215&#45;&gt;year_band__year&#45;2__exit -->
<!-- course__PHYS217&#45;&gt;year_band__year&#45;2__exit -->
<!-- course__EOS433 -->
<g id="node32" class="node">
<title>course__EOS433</title>
<g id="a_node32"><a xlink:href="../../../courses/EOS433.html" xlink:title="EOS433: The Physics of Climate" target="_top">
<path fill="#dbe8d2" stroke="#567447" stroke-width="1.3" d="M2810,-1988.88C2810,-1988.88 2780,-1988.88 2780,-1988.88 2774,-1988.88 2768,-1982.88 2768,-1976.88 2768,-1976.88 2768,-1964.88 2768,-1964.88 2768,-1958.88 2774,-1952.88 2780,-1952.88 2780,-1952.88 2810,-1952.88 2810,-1952.88 2816,-1952.88 2822,-1958.88 2822,-1964.88 2822,-1964.88 2822,-1976.88 2822,-1976.88 2822,-1982.88 2816,-1988.88 2810,-1988.88"/>
<text text-anchor="middle" x="2795" y="-1968.38" font-family="Avenir Next" font-size="10.00" fill="#24311e">EOS433</text>
</a>
</g>
</g>
<!-- course__EOS340&#45;&gt;course__EOS433 -->
<g id="edge118" class="edge">
<title>course__EOS340&#45;&gt;course__EOS433</title>
<path fill="none" stroke="#5d6972" stroke-width="1.2" d="M1398.46,-2508.68C1408,-2464.86 1432.91,-2349.96 1453,-2253.88 1490.79,-2073.18 1413.96,-1985.4 1536,-1846.88 1632.81,-1736.99 1758.1,-1856.49 1848,-1740.88 2004.5,-1539.63 1760.06,-605.88 2015,-605.88 2015,-605.88 2015,-605.88 2100,-605.88 2163.11,-605.88 2176.86,-587.88 2239,-576.88 2327.01,-561.3 2348.86,-554.34 2438,-547.88 2461.94,-546.15 2468.78,-541.79 2492,-547.88 2585.75,-572.46 2630.25,-572.94 2682,-654.88 2825.67,-882.39 2720.68,-1597.48 2765,-1862.88 2769.83,-1891.78 2779.04,-1924.15 2785.79,-1945.84"/>
<polygon fill="#5d6972" stroke="#5d6972" stroke-width="1.2" points="2783.54,-1946.83 2787.98,-1952.77 2788.21,-1945.36 2783.54,-1946.83"/>
</g>
<!-- course__EOS451 -->
<g id="node33" class="node">
<title>course__EOS451</title>
<g id="a_node33"><a xlink:href="../../../courses/EOS451.html" xlink:title="EOS451: Introductory Dynamic Meteorology" target="_top">
<path fill="#dbe8d2" stroke="#567447" stroke-width="1.3" d="M2810,-2238.88C2810,-2238.88 2780,-2238.88 2780,-2238.88 2774,-2238.88 2768,-2232.88 2768,-2226.88 2768,-2226.88 2768,-2214.88 2768,-2214.88 2768,-2208.88 2774,-2202.88 2780,-2202.88 2780,-2202.88 2810,-2202.88 2810,-2202.88 2816,-2202.88 2822,-2208.88 2822,-2214.88 2822,-2214.88 2822,-2226.88 2822,-2226.88 2822,-2232.88 2816,-2238.88 2810,-2238.88"/>
<text text-anchor="middle" x="2795" y="-2218.38" font-family="Avenir Next" font-size="10.00" fill="#24311e">EOS451</text>
</a>
</g>
</g>
<!-- course__EOS340&#45;&gt;course__EOS451 -->
<g id="edge119" class="edge">
<title>course__EOS340&#45;&gt;course__EOS451</title>
<path fill="none" stroke="#5d6972" stroke-width="1.2" d="M1398.21,-2508.75C1414.49,-2430.41 1481.15,-2121.3 1536,-2039.88 1598.94,-1946.45 1638.08,-1940.3 1735,-1882.88 1781.95,-1855.07 1815.99,-1879.07 1848,-1834.88 1990.34,-1638.38 1772.37,-755.88 2015,-755.88 2015,-755.88 2015,-755.88 2100,-755.88 2290.8,-755.88 2344.23,-460.19 2492,-580.88 2819.42,-848.29 2613.04,-1095.8 2682,-1512.88 2729.65,-1801.08 2678.05,-1886 2765,-2164.88 2768.36,-2175.67 2773.73,-2186.85 2778.93,-2196.37"/>
<polygon fill="#5d6972" stroke="#5d6972" stroke-width="1.2" points="2776.91,-2197.77 2782.48,-2202.66 2781.18,-2195.36 2776.91,-2197.77"/>
</g>
<!-- course__EOS340&#45;&gt;year_band__year&#45;2__exit -->
<!-- choice_PHYS411_0_0 -->
<g id="node57" class="node">
<title>choice_PHYS411_0_0</title>
<path fill="#fff7ee" stroke="#b7793f" stroke-width="1.1" d="M2810,-1468.88C2810,-1468.88 2780,-1468.88 2780,-1468.88 2774,-1468.88 2768,-1462.88 2768,-1456.88 2768,-1456.88 2768,-1444.88 2768,-1444.88 2768,-1438.88 2774,-1432.88 2780,-1432.88 2780,-1432.88 2810,-1432.88 2810,-1432.88 2816,-1432.88 2822,-1438.88 2822,-1444.88 2822,-1444.88 2822,-1456.88 2822,-1456.88 2822,-1462.88 2816,-1468.88 2810,-1468.88"/>
<text text-anchor="middle" x="2795" y="-1448.68" font-family="Avenir Next" font-size="9.00">2 of</text>
</g>
<!-- course__EOS340&#45;&gt;choice_PHYS411_0_0 -->
<g id="edge163" class="edge">
<title>course__EOS340&#45;&gt;choice_PHYS411_0_0</title>
<path fill="none" stroke="#7a8389" d="M1398.56,-2508.57C1420.72,-2408.9 1526.25,-1935.79 1536,-1923.88 1597.62,-1848.64 1645.72,-1871.45 1735,-1832.88 1784.78,-1811.38 1815.86,-1830.55 1848,-1786.88 1992.08,-1591.11 1771.93,-705.88 2015,-705.88 2015,-705.88 2015,-705.88 2100,-705.88 2184.28,-705.88 2162.98,-613.27 2239,-576.88 2419.33,-490.57 2571.95,-487.98 2682,-654.88 2870.5,-940.77 2619.7,-1110.8 2765,-1420.88 2765.98,-1422.98 2767.17,-1425.02 2768.51,-1426.99"/>
<polygon fill="#7a8389" stroke="#7a8389" points="2766.65,-1428.59 2772.85,-1432.65 2770.53,-1425.61 2766.65,-1428.59"/>
</g>
<!-- course__EOS110 -->
<g id="node19" class="node">
<title>course__EOS110</title>
<g id="a_node19"><a xlink:href="../../../courses/EOS110.html" xlink:title="Equivalent or cross&#45;listed: EOS110: Oceans and Atmosphere | EOS350: Understanding the Oceans" target="_top">
<path fill="#f9f9f9" stroke="#363636" d="M2666,-2436.88C2666,-2436.88 2591,-2436.88 2591,-2436.88 2585,-2436.88 2579,-2430.88 2579,-2424.88 2579,-2424.88 2579,-2412.88 2579,-2412.88 2579,-2406.88 2585,-2400.88 2591,-2400.88 2591,-2400.88 2666,-2400.88 2666,-2400.88 2672,-2400.88 2678,-2406.88 2678,-2412.88 2678,-2412.88 2678,-2424.88 2678,-2424.88 2678,-2430.88 2672,-2436.88 2666,-2436.88"/>
<text text-anchor="middle" x="2628.5" y="-2416.68" font-family="Avenir Next" font-size="9.00" fill="#363636">EOS110 / EOS350</text>
</a>
</g>
</g>
<!-- choice_EOS312_0_0 -->
<g id="node49" class="node">
<title>choice_EOS312_0_0</title>
<path fill="#fff7ee" stroke="#b7793f" stroke-width="1.1" d="M2810,-2528.88C2810,-2528.88 2780,-2528.88 2780,-2528.88 2774,-2528.88 2768,-2522.88 2768,-2516.88 2768,-2516.88 2768,-2504.88 2768,-2504.88 2768,-2498.88 2774,-2492.88 2780,-2492.88 2780,-2492.88 2810,-2492.88 2810,-2492.88 2816,-2492.88 2822,-2498.88 2822,-2504.88 2822,-2504.88 2822,-2516.88 2822,-2516.88 2822,-2522.88 2816,-2528.88 2810,-2528.88"/>
<text text-anchor="middle" x="2795" y="-2508.68" font-family="Avenir Next" font-size="9.00">1 of</text>
</g>
<!-- course__EOS110&#45;&gt;choice_EOS312_0_0 -->
<g id="edge91" class="edge">
<title>course__EOS110&#45;&gt;choice_EOS312_0_0</title>
<path fill="none" stroke="#7a8389" d="M2662,-2437.06C2690.81,-2453.17 2732.67,-2476.58 2761.49,-2492.7"/>
<polygon fill="#7a8389" stroke="#7a8389" points="2760.49,-2494.95 2767.79,-2496.22 2762.88,-2490.67 2760.49,-2494.95"/>
</g>
<!-- year_band__years&#45;3&#45;4__exit -->
<!-- course__EOS313&#45;&gt;year_band__years&#45;3&#45;4__exit -->
<!-- choice_EOS401_0 -->
<g id="node53" class="node">
<title>choice_EOS401_0</title>
<path fill="#fff7ee" stroke="#b7793f" stroke-width="1.1" d="M2950,-1408.88C2950,-1408.88 2920,-1408.88 2920,-1408.88 2914,-1408.88 2908,-1402.88 2908,-1396.88 2908,-1396.88 2908,-1384.88 2908,-1384.88 2908,-1378.88 2914,-1372.88 2920,-1372.88 2920,-1372.88 2950,-1372.88 2950,-1372.88 2956,-1372.88 2962,-1378.88 2962,-1384.88 2962,-1384.88 2962,-1396.88 2962,-1396.88 2962,-1402.88 2956,-1408.88 2950,-1408.88"/>
<text text-anchor="middle" x="2935" y="-1388.68" font-family="Avenir Next" font-size="9.00">3 of</text>
</g>
<!-- course__EOS313&#45;&gt;choice_EOS401_0 -->
<g id="edge113" class="edge">
<title>course__EOS313&#45;&gt;choice_EOS401_0</title>
<path fill="none" stroke="#7a8389" d="M2633.86,-1524.72C2645.78,-1479.65 2683.6,-1362.99 2765,-1316.88 2815.06,-1288.53 2878.06,-1336.39 2911.21,-1367.47"/>
<polygon fill="#7a8389" stroke="#7a8389" points="2909.9,-1369.61 2916.65,-1372.68 2913.29,-1366.07 2909.9,-1369.61"/>
</g>
<!-- course__EOS311&#45;&gt;year_band__years&#45;3&#45;4__exit -->
<!-- course__EOS311&#45;&gt;choice_EOS401_0 -->
<g id="edge111" class="edge">
<title>course__EOS311&#45;&gt;choice_EOS401_0</title>
<path fill="none" stroke="#7a8389" d="M2668.53,-1584.71C2673.48,-1581.27 2678.16,-1577.33 2682,-1572.88 2748.14,-1496.3 2681.42,-1417.92 2765,-1360.88 2805.9,-1332.97 2864.9,-1353.93 2901.28,-1372.08"/>
<polygon fill="#7a8389" stroke="#7a8389" points="2900.45,-1374.41 2907.8,-1375.42 2902.69,-1370.05 2900.45,-1374.41"/>
</g>
<!-- course__EOS314&#45;&gt;choice_EOS312_0_0 -->
<g id="edge92" class="edge">
<title>course__EOS314&#45;&gt;choice_EOS312_0_0</title>
<path fill="none" stroke="#7a8389" d="M2655.63,-1671.85C2665.48,-1676.57 2675.8,-1683.39 2682,-1692.88 2872.27,-1983.95 2640.29,-2146.27 2765,-2470.88 2767.08,-2476.29 2770.07,-2481.62 2773.36,-2486.55"/>
<polygon fill="#7a8389" stroke="#7a8389" points="2771.58,-2488.27 2777.64,-2492.54 2775.57,-2485.42 2771.58,-2488.27"/>
</g>
<!-- course__EOS314&#45;&gt;choice_EOS325_0_2_0 -->
<g id="edge100" class="edge">
<title>course__EOS314&#45;&gt;choice_EOS325_0_2_0</title>
<path fill="none" stroke="#7a8389" d="M2601.26,-1653.98C2591.39,-1649.27 2581.1,-1642.44 2575,-1632.88 2456.75,-1447.5 2568.38,-853.08 2492,-646.88 2490.52,-642.9 2488.48,-638.96 2486.18,-635.24"/>
<polygon fill="#7a8389" stroke="#7a8389" points="2488.06,-633.64 2482.12,-629.2 2483.99,-636.37 2488.06,-633.64"/>
</g>
<!-- choice_EOS401_0_3 -->
<g id="node52" class="node">
<title>choice_EOS401_0_3</title>
<path fill="#fff7ee" stroke="#b7793f" stroke-width="1.1" d="M2810,-1408.88C2810,-1408.88 2780,-1408.88 2780,-1408.88 2774,-1408.88 2768,-1402.88 2768,-1396.88 2768,-1396.88 2768,-1384.88 2768,-1384.88 2768,-1378.88 2774,-1372.88 2780,-1372.88 2780,-1372.88 2810,-1372.88 2810,-1372.88 2816,-1372.88 2822,-1378.88 2822,-1384.88 2822,-1384.88 2822,-1396.88 2822,-1396.88 2822,-1402.88 2816,-1408.88 2810,-1408.88"/>
<text text-anchor="middle" x="2795" y="-1388.68" font-family="Avenir Next" font-size="9.00">1 of</text>
</g>
<!-- course__EOS314&#45;&gt;choice_EOS401_0_3 -->
<g id="edge109" class="edge">
<title>course__EOS314&#45;&gt;choice_EOS401_0_3</title>
<path fill="none" stroke="#7a8389" d="M2655.77,-1652.31C2665.05,-1647.52 2674.93,-1641.06 2682,-1632.88 2748.14,-1556.3 2710.33,-1506.02 2765,-1420.88 2766.41,-1418.68 2768.01,-1416.5 2769.7,-1414.38"/>
<polygon fill="#7a8389" stroke="#7a8389" points="2771.66,-1415.86 2774.36,-1408.95 2767.94,-1412.67 2771.66,-1415.86"/>
</g>
<!-- course__MATH342&#45;&gt;year_band__years&#45;3&#45;4__exit -->
<!-- choice_PHYS321A_1 -->
<g id="node56" class="node">
<title>choice_PHYS321A_1</title>
<path fill="#fff7ee" stroke="#b7793f" stroke-width="1.1" d="M2480,-2528.88C2480,-2528.88 2450,-2528.88 2450,-2528.88 2444,-2528.88 2438,-2522.88 2438,-2516.88 2438,-2516.88 2438,-2504.88 2438,-2504.88 2438,-2498.88 2444,-2492.88 2450,-2492.88 2450,-2492.88 2480,-2492.88 2480,-2492.88 2486,-2492.88 2492,-2498.88 2492,-2504.88 2492,-2504.88 2492,-2516.88 2492,-2516.88 2492,-2522.88 2486,-2528.88 2480,-2528.88"/>
<text text-anchor="middle" x="2465" y="-2508.68" font-family="Avenir Next" font-size="9.00">1 of</text>
</g>
<!-- course__MATH342&#45;&gt;choice_PHYS321A_1 -->
<g id="edge150" class="edge">
<title>course__MATH342&#45;&gt;choice_PHYS321A_1</title>
<path fill="none" stroke="#7a8389" d="M2596.75,-1974.61C2588.53,-1979.14 2580.43,-1985.15 2575,-1992.88 2451.16,-2169.39 2570.81,-2270.17 2492,-2470.88 2489.91,-2476.19 2487.07,-2481.54 2484.02,-2486.53"/>
<polygon fill="#7a8389" stroke="#7a8389" points="2481.83,-2485.4 2480.1,-2492.61 2485.95,-2488.06 2481.83,-2485.4"/>
</g>
<!-- course__PHYS411 -->
<g id="node34" class="node">
<title>course__PHYS411</title>
<g id="a_node34"><a xlink:href="../../../courses/PHYS411.html" xlink:title="PHYS411: Time Series Analysis" target="_top">
<path fill="#d7e9ef" stroke="#1f4f66" stroke-width="1.6" d="M2813,-2324.88C2813,-2324.88 2777,-2324.88 2777,-2324.88 2771,-2324.88 2765,-2318.88 2765,-2312.88 2765,-2312.88 2765,-2300.88 2765,-2300.88 2765,-2294.88 2771,-2288.88 2777,-2288.88 2777,-2288.88 2813,-2288.88 2813,-2288.88 2819,-2288.88 2825,-2294.88 2825,-2300.88 2825,-2300.88 2825,-2312.88 2825,-2312.88 2825,-2318.88 2819,-2324.88 2813,-2324.88"/>
<text text-anchor="middle" x="2795" y="-2304.38" font-family="Avenir Next" font-size="10.00" fill="#17232b">PHYS411</text>
</a>
</g>
</g>
<!-- course__MATH346&#45;&gt;course__PHYS411 -->
<g id="edge169" class="edge">
<title>course__MATH346&#45;&gt;course__PHYS411</title>
<path fill="none" stroke="#5d6972" stroke-width="1.2" d="M2660.02,-2035.9C2667.95,-2040.38 2675.95,-2046.04 2682,-2052.88 2745.23,-2124.35 2724.58,-2164.44 2765,-2250.88 2769.86,-2261.28 2775.6,-2272.55 2780.69,-2282.23"/>
<polygon fill="#5d6972" stroke="#5d6972" stroke-width="1.2" points="2778.65,-2283.61 2784.09,-2288.65 2782.98,-2281.32 2778.65,-2283.61"/>
</g>
<!-- course__PHYS426 -->
<g id="node35" class="node">
<title>course__PHYS426</title>
<g id="a_node35"><a xlink:href="../../../courses/PHYS426.html" xlink:title="PHYS426: Fluid Mechanics" target="_top">
<path fill="#d7e9ef" stroke="#1f4f66" stroke-width="1.6" d="M2813,-2152.88C2813,-2152.88 2777,-2152.88 2777,-2152.88 2771,-2152.88 2765,-2146.88 2765,-2140.88 2765,-2140.88 2765,-2128.88 2765,-2128.88 2765,-2122.88 2771,-2116.88 2777,-2116.88 2777,-2116.88 2813,-2116.88 2813,-2116.88 2819,-2116.88 2825,-2122.88 2825,-2128.88 2825,-2128.88 2825,-2140.88 2825,-2140.88 2825,-2146.88 2819,-2152.88 2813,-2152.88"/>
<text text-anchor="middle" x="2795" y="-2132.38" font-family="Avenir Next" font-size="10.00" fill="#17232b">PHYS426</text>
</a>
</g>
</g>
<!-- course__MATH346&#45;&gt;course__PHYS426 -->
<g id="edge171" class="edge">
<title>course__MATH346&#45;&gt;course__PHYS426</title>
<path fill="none" stroke="#5d6972" stroke-width="1.2" d="M2660.11,-2039.6C2667.38,-2043.78 2675.04,-2048.37 2682,-2052.88 2711.14,-2071.78 2742.96,-2095.39 2765.22,-2112.42"/>
<polygon fill="#5d6972" stroke="#5d6972" stroke-width="1.2" points="2763.9,-2114.5 2770.95,-2116.82 2766.89,-2110.61 2763.9,-2114.5"/>
</g>
<!-- course__MATH346&#45;&gt;year_band__years&#45;3&#45;4__exit -->
<!-- course__MATH346&#45;&gt;choice_PHYS321A_1 -->
<g id="edge151" class="edge">
<title>course__MATH346&#45;&gt;choice_PHYS321A_1</title>
<path fill="none" stroke="#7a8389" d="M2596.87,-2034.69C2588.65,-2039.23 2580.52,-2045.21 2575,-2052.88 2464.36,-2206.61 2563.34,-2295.43 2492,-2470.88 2489.85,-2476.17 2486.97,-2481.51 2483.92,-2486.49"/>
<polygon fill="#7a8389" stroke="#7a8389" points="2481.73,-2485.36 2479.99,-2492.57 2485.85,-2488.02 2481.73,-2485.36"/>
</g>
<!-- course__PHYS325&#45;&gt;year_band__years&#45;3&#45;4__exit -->
<!-- course__EOS325&#45;&gt;choice_EOS340_1 -->
<g id="edge106" class="edge">
<title>course__EOS325&#45;&gt;choice_EOS340_1</title>
<path fill="none" stroke="#7a8389" d="M2601.3,-1713.95C2591.44,-1709.24 2581.14,-1702.41 2575,-1692.88 2466.76,-1524.75 2639.77,-931.6 2492,-796.88 2361.8,-678.18 2276.18,-855.88 2100,-855.88 2015,-855.88 2015,-855.88 2015,-855.88 1952.42,-855.88 1953.19,-910.37 1931,-968.88 1854.6,-1170.34 1958.87,-1750.14 1848,-1934.88 1842.53,-1944 1833.75,-1951.24 1824.77,-1956.75"/>
<polygon fill="#7a8389" stroke="#7a8389" points="1823.43,-1954.7 1818.57,-1960.3 1825.86,-1958.95 1823.43,-1954.7"/>
</g>
<!-- course__EOS431&#45;&gt;year_band__years&#45;3&#45;4__exit -->
<!-- course__EOS431&#45;&gt;choice_EOS312_0_0 -->
<g id="edge93" class="edge">
<title>course__EOS431&#45;&gt;choice_EOS312_0_0</title>
<path fill="none" stroke="#7a8389" d="M2670.61,-1801.02C2675,-1804.41 2678.97,-1808.34 2682,-1812.88 2845.64,-2058.05 2656.65,-2196.75 2765,-2470.88 2767.13,-2476.26 2770.15,-2481.59 2773.45,-2486.51"/>
<polygon fill="#7a8389" stroke="#7a8389" points="2771.66,-2488.23 2777.72,-2492.51 2775.65,-2485.39 2771.66,-2488.23"/>
</g>
<!-- course__EOS431&#45;&gt;choice_EOS401_0_3 -->
<g id="edge110" class="edge">
<title>course__EOS431&#45;&gt;choice_EOS401_0_3</title>
<path fill="none" stroke="#7a8389" d="M2669.58,-1764.76C2674.26,-1761.35 2678.58,-1757.4 2682,-1752.88 2773.84,-1631.64 2691.19,-1553.87 2765,-1420.88 2766.16,-1418.79 2767.5,-1416.74 2768.96,-1414.76"/>
<polygon fill="#7a8389" stroke="#7a8389" points="2771.11,-1416 2773.62,-1409.02 2767.31,-1412.91 2771.11,-1416"/>
</g>
<!-- course__EOS431&#45;&gt;choice_PHYS411_0_0 -->
<g id="edge164" class="edge">
<title>course__EOS431&#45;&gt;choice_PHYS411_0_0</title>
<path fill="none" stroke="#7a8389" d="M2669.06,-1764.75C2673.88,-1761.32 2678.37,-1757.37 2682,-1752.88 2758.73,-1657.84 2710,-1599.95 2765,-1490.88 2767.72,-1485.49 2771.14,-1480.03 2774.67,-1474.96"/>
<polygon fill="#7a8389" stroke="#7a8389" points="2776.71,-1476.32 2778.82,-1469.21 2772.74,-1473.45 2776.71,-1476.32"/>
</g>
<!-- course__PHYS321A&#45;&gt;course__EOS451 -->
<g id="edge120" class="edge">
<title>course__PHYS321A&#45;&gt;course__EOS451</title>
<path fill="none" stroke="#5d6972" stroke-width="1.2" d="M2662.23,-2099.91C2668.96,-2103.87 2675.87,-2108.28 2682,-2112.88 2716.42,-2138.68 2751.35,-2174.17 2772.84,-2197.31"/>
<polygon fill="#5d6972" stroke="#5d6972" stroke-width="1.2" points="2771.2,-2199.14 2777.75,-2202.63 2774.8,-2195.82 2771.2,-2199.14"/>
</g>
<!-- course__PHYS321A&#45;&gt;course__PHYS426 -->
<g id="edge170" class="edge">
<title>course__PHYS321A&#45;&gt;course__PHYS426</title>
<path fill="none" stroke="#5d6972" stroke-width="1.2" d="M2662.39,-2093.28C2689.97,-2101.99 2729.28,-2114.42 2757.76,-2123.42"/>
<polygon fill="#5d6972" stroke="#5d6972" stroke-width="1.2" points="2757.33,-2125.86 2764.75,-2125.63 2758.81,-2121.19 2757.33,-2125.86"/>
</g>
<!-- course__PHYS321A&#45;&gt;year_band__years&#45;3&#45;4__exit -->
<!-- course__PHYS321A&#45;&gt;choice_PHYS411_0_0 -->
<g id="edge165" class="edge">
<title>course__PHYS321A&#45;&gt;choice_PHYS411_0_0</title>
<path fill="none" stroke="#7a8389" d="M2662.02,-2070.31C2669.67,-2065.9 2677.03,-2060.16 2682,-2052.88 2824.39,-1844.37 2669.72,-1724.7 2765,-1490.88 2767.28,-1485.29 2770.5,-1479.74 2773.97,-1474.64"/>
<polygon fill="#7a8389" stroke="#7a8389" points="2776.02,-1476 2778.12,-1468.89 2772.04,-1473.13 2776.02,-1476"/>
</g>
<!-- course__PHYS323&#45;&gt;year_band__years&#45;3&#45;4__exit -->
<!-- course__PHYS323&#45;&gt;choice_PHYS411_0_0 -->
<g id="edge166" class="edge">
<title>course__PHYS323&#45;&gt;choice_PHYS411_0_0</title>
<path fill="none" stroke="#7a8389" d="M2658.52,-2132.32C2667.4,-2127.68 2676.32,-2121.33 2682,-2112.88 2837.66,-1881.47 2661.56,-1749.88 2765,-1490.88 2767.15,-1485.5 2770.18,-1480.18 2773.48,-1475.26"/>
<polygon fill="#7a8389" stroke="#7a8389" points="2775.68,-1476.38 2777.75,-1469.26 2771.7,-1473.54 2775.68,-1476.38"/>
</g>
<!-- course__PHYS326&#45;&gt;year_band__years&#45;3&#45;4__exit -->
<!-- course__PHYS326&#45;&gt;choice_PHYS411_0_0 -->
<g id="edge167" class="edge">
<title>course__PHYS326&#45;&gt;choice_PHYS411_0_0</title>
<path fill="none" stroke="#7a8389" d="M2658.68,-1891.75C2667.35,-1887.13 2676.1,-1880.92 2682,-1872.88 2784.75,-1732.78 2694.06,-1649.48 2765,-1490.88 2767.47,-1485.37 2770.77,-1479.86 2774.27,-1474.77"/>
<polygon fill="#7a8389" stroke="#7a8389" points="2776.31,-1476.12 2778.42,-1469.01 2772.34,-1473.26 2776.31,-1476.12"/>
</g>
<!-- course__EOS312&#45;&gt;year_band__years&#45;3&#45;4__exit -->
<!-- course__EOS312&#45;&gt;choice_EOS401_0 -->
<g id="edge112" class="edge">
<title>course__EOS312&#45;&gt;choice_EOS401_0</title>
<path fill="none" stroke="#7a8389" d="M2801.67,-1814.73C2823.38,-1745.19 2901.29,-1495.64 2926.25,-1415.7"/>
<polygon fill="#7a8389" stroke="#7a8389" points="2928.61,-1416.35 2928.36,-1408.94 2923.94,-1414.89 2928.61,-1416.35"/>
</g>
<!-- course__EOS433&#45;&gt;year_band__years&#45;3&#45;4__exit -->
<!-- course__EOS451&#45;&gt;year_band__years&#45;3&#45;4__exit -->
<!-- course__PHYS411&#45;&gt;year_band__years&#45;3&#45;4__exit -->
<!-- course__PHYS426&#45;&gt;year_band__years&#45;3&#45;4__exit -->
<!-- course__EOS401 -->
<g id="node36" class="node">
<title>course__EOS401</title>
<g id="a_node36"><a xlink:href="../../../courses/EOS401.html" xlink:title="EOS401: Oceanographic Field School" target="_top">
<path fill="#d7e9ef" stroke="#1f4f66" stroke-width="1.6" d="M2643.5,-2350.88C2643.5,-2350.88 2613.5,-2350.88 2613.5,-2350.88 2607.5,-2350.88 2601.5,-2344.88 2601.5,-2338.88 2601.5,-2338.88 2601.5,-2326.88 2601.5,-2326.88 2601.5,-2320.88 2607.5,-2314.88 2613.5,-2314.88 2613.5,-2314.88 2643.5,-2314.88 2643.5,-2314.88 2649.5,-2314.88 2655.5,-2320.88 2655.5,-2326.88 2655.5,-2326.88 2655.5,-2338.88 2655.5,-2338.88 2655.5,-2344.88 2649.5,-2350.88 2643.5,-2350.88"/>
<text text-anchor="middle" x="2628.5" y="-2330.38" font-family="Avenir Next" font-size="10.00" fill="#17232b">EOS401</text>
</a>
</g>
</g>
<!-- course__EOS401&#45;&gt;year_band__years&#45;3&#45;4__exit -->
<!-- course__CHEM091 -->
<g id="node37" class="node">
<title>course__CHEM091</title>
<g id="a_node37"><a xlink:href="../../../courses/CHEM091.html" xlink:title="CHEM091: Introduction to Chemistry" target="_top">
<path fill="#f9f9f9" stroke="#363636" d="M523,-2344.88C523,-2344.88 486,-2344.88 486,-2344.88 480,-2344.88 474,-2338.88 474,-2332.88 474,-2332.88 474,-2320.88 474,-2320.88 474,-2314.88 480,-2308.88 486,-2308.88 486,-2308.88 523,-2308.88 523,-2308.88 529,-2308.88 535,-2314.88 535,-2320.88 535,-2320.88 535,-2332.88 535,-2332.88 535,-2338.88 529,-2344.88 523,-2344.88"/>
<text text-anchor="middle" x="504.5" y="-2324.68" font-family="Avenir Next" font-size="9.00" fill="#363636">CHEM091</text>
</a>
</g>
</g>
<!-- course__CHEM091&#45;&gt;course__CHEM102 -->
<g id="edge81" class="edge">
<title>course__CHEM091&#45;&gt;course__CHEM102</title>
<path fill="none" stroke="#5d6972" stroke-width="1.2" d="M504.5,-2344.91C504.5,-2416.95 504.5,-2488.99 504.5,-2561.03"/>
<polygon fill="#5d6972" stroke="#5d6972" stroke-width="1.2" points="502.05,-2561.45 504.5,-2568.45 506.95,-2561.45 502.05,-2561.45"/>
</g>
<!-- course__MATH151 -->
<g id="node38" class="node">
<title>course__MATH151</title>
<g id="a_node38"><a xlink:href="../../../courses/MATH151.html" xlink:title="MATH151: Finite Mathematics" target="_top">
<path fill="#f9f9f9" stroke="#363636" d="M1611.5,-1728.88C1611.5,-1728.88 1576.5,-1728.88 1576.5,-1728.88 1570.5,-1728.88 1564.5,-1722.88 1564.5,-1716.88 1564.5,-1716.88 1564.5,-1704.88 1564.5,-1704.88 1564.5,-1698.88 1570.5,-1692.88 1576.5,-1692.88 1576.5,-1692.88 1611.5,-1692.88 1611.5,-1692.88 1617.5,-1692.88 1623.5,-1698.88 1623.5,-1704.88 1623.5,-1704.88 1623.5,-1716.88 1623.5,-1716.88 1623.5,-1722.88 1617.5,-1728.88 1611.5,-1728.88"/>
<text text-anchor="middle" x="1594" y="-1708.68" font-family="Avenir Next" font-size="9.00" fill="#363636">MATH151</text>
</a>
</g>
</g>
<!-- course__MATH151&#45;&gt;choice_EOS311_0_2 -->
<g id="edge87" class="edge">
<title>course__MATH151&#45;&gt;choice_EOS311_0_2</title>
<path fill="none" stroke="#7a8389" d="M1597.51,-1692.86C1618.34,-1543.17 1762.5,-507.1 1786.97,-331.23"/>
<polygon fill="#7a8389" stroke="#7a8389" points="1789.41,-331.46 1787.95,-324.18 1784.56,-330.78 1789.41,-331.46"/>
</g>
<!-- course__MATH151&#45;&gt;choice_MATH211_0 -->
<g id="edge125" class="edge">
<title>course__MATH151&#45;&gt;choice_MATH211_0</title>
<path fill="none" stroke="#7a8389" d="M1623.85,-1710.88C1659.4,-1710.88 1719.68,-1710.88 1757.17,-1710.88"/>
<polygon fill="#7a8389" stroke="#7a8389" points="1757.35,-1713.33 1764.35,-1710.88 1757.35,-1708.43 1757.35,-1713.33"/>
</g>
<!-- year_band__year&#45;1__label -->
<g id="node39" class="node">
<title>year_band__year&#45;1__label</title>
<path fill="#eef2f4" stroke="#c8d0d5" stroke-width="0.8" d="M78,-2436.88C78,-2436.88 48,-2436.88 48,-2436.88 42,-2436.88 36,-2430.88 36,-2424.88 36,-2424.88 36,-2412.88 36,-2412.88 36,-2406.88 42,-2400.88 48,-2400.88 48,-2400.88 78,-2400.88 78,-2400.88 84,-2400.88 90,-2406.88 90,-2412.88 90,-2412.88 90,-2424.88 90,-2424.88 90,-2430.88 84,-2436.88 78,-2436.88"/>
<text text-anchor="middle" x="63" y="-2415.48" font-family="Avenir Next" font-size="13.00" fill="#4e5f68">Year 1</text>
</g>
<!-- year_band__year&#45;1__entry -->
<!-- year_band__year&#45;1__label&#45;&gt;year_band__year&#45;1__entry -->
<!-- year_band__year&#45;2__entry -->
<!-- year_band__year&#45;1__label&#45;&gt;year_band__year&#45;2__entry -->
<!-- year_band__year&#45;1__entry&#45;&gt;course__CHEM101 -->
<!-- year_band__year&#45;1__entry&#45;&gt;course__MATH100 -->
<!-- year_band__year&#45;1__entry&#45;&gt;course__EOS120 -->
<!-- year_band__year&#45;1__entry&#45;&gt;course__CHEM102 -->
<!-- year_band__year&#45;1__entry&#45;&gt;course__CSC110 -->
<!-- year_band__year&#45;1__entry&#45;&gt;course__MATH101 -->
<!-- year_band__year&#45;1__entry&#45;&gt;course__PHYS102A -->
<!-- year_band__year&#45;1__entry&#45;&gt;course__PHYS102B -->
<!-- year_band__year&#45;1__entry&#45;&gt;course__CHEM091 -->
<!-- year_band__year&#45;1__entry&#45;&gt;year_band__year&#45;1__exit -->
<!-- year_band__year&#45;2__label -->
<g id="node42" class="node">
<title>year_band__year&#45;2__label</title>
<path fill="#eef2f4" stroke="#c8d0d5" stroke-width="0.8" d="M1155,-2544.88C1155,-2544.88 1125,-2544.88 1125,-2544.88 1119,-2544.88 1113,-2538.88 1113,-2532.88 1113,-2532.88 1113,-2520.88 1113,-2520.88 1113,-2514.88 1119,-2508.88 1125,-2508.88 1125,-2508.88 1155,-2508.88 1155,-2508.88 1161,-2508.88 1167,-2514.88 1167,-2520.88 1167,-2520.88 1167,-2532.88 1167,-2532.88 1167,-2538.88 1161,-2544.88 1155,-2544.88"/>
<text text-anchor="middle" x="1140" y="-2523.48" font-family="Avenir Next" font-size="13.00" fill="#4e5f68">Year 2</text>
</g>
<!-- year_band__year&#45;1__exit&#45;&gt;year_band__year&#45;2__label -->
<!-- year_band__year&#45;2__label&#45;&gt;year_band__year&#45;2__entry -->
<!-- year_band__years&#45;3&#45;4__entry -->
<!-- year_band__year&#45;2__label&#45;&gt;year_band__years&#45;3&#45;4__entry -->
<!-- year_band__year&#45;2__entry&#45;&gt;course__MATH211 -->
<!-- year_band__year&#45;2__entry&#45;&gt;course__MATH200 -->
<!-- year_band__year&#45;2__entry&#45;&gt;course__STAT254 -->
<!-- year_band__year&#45;2__entry&#45;&gt;course__MATH204 -->
<!-- year_band__year&#45;2__entry&#45;&gt;course__MATH248 -->
<!-- year_band__year&#45;2__entry&#45;&gt;course__PHYS216 -->
<!-- year_band__year&#45;2__entry&#45;&gt;course__PHYS229 -->
<!-- year_band__year&#45;2__entry&#45;&gt;course__PHYS215 -->
<!-- year_band__year&#45;2__entry&#45;&gt;course__PHYS217 -->
<!-- year_band__year&#45;2__entry&#45;&gt;course__EOS340 -->
<!-- year_band__year&#45;2__entry&#45;&gt;course__MATH151 -->
<!-- year_band__year&#45;2__entry&#45;&gt;year_band__year&#45;2__exit -->
<!-- year_band__years&#45;3&#45;4__label -->
<g id="node45" class="node">
<title>year_band__years&#45;3&#45;4__label</title>
<path fill="#eef2f4" stroke="#c8d0d5" stroke-width="0.8" d="M2343,-2436.88C2343,-2436.88 2279,-2436.88 2279,-2436.88 2273,-2436.88 2267,-2430.88 2267,-2424.88 2267,-2424.88 2267,-2412.88 2267,-2412.88 2267,-2406.88 2273,-2400.88 2279,-2400.88 2279,-2400.88 2343,-2400.88 2343,-2400.88 2349,-2400.88 2355,-2406.88 2355,-2412.88 2355,-2412.88 2355,-2424.88 2355,-2424.88 2355,-2430.88 2349,-2436.88 2343,-2436.88"/>
<text text-anchor="middle" x="2311" y="-2415.48" font-family="Avenir Next" font-size="13.00" fill="#4e5f68">Years 3 + 4</text>
</g>
<!-- year_band__year&#45;2__exit&#45;&gt;year_band__years&#45;3&#45;4__label -->
<!-- year_band__years&#45;3&#45;4__label&#45;&gt;year_band__years&#45;3&#45;4__entry -->
<!-- year_band__years&#45;3&#45;4__entry&#45;&gt;course__EOS110 -->
<!-- year_band__years&#45;3&#45;4__entry&#45;&gt;course__EOS313 -->
<!-- year_band__years&#45;3&#45;4__entry&#45;&gt;course__EOS311 -->
<!-- year_band__years&#45;3&#45;4__entry&#45;&gt;course__EOS314 -->
<!-- year_band__years&#45;3&#45;4__entry&#45;&gt;course__MATH342 -->
<!-- year_band__years&#45;3&#45;4__entry&#45;&gt;course__MATH346 -->
<!-- year_band__years&#45;3&#45;4__entry&#45;&gt;course__PHYS325 -->
<!-- year_band__years&#45;3&#45;4__entry&#45;&gt;course__EOS325 -->
<!-- year_band__years&#45;3&#45;4__entry&#45;&gt;course__EOS431 -->
<!-- year_band__years&#45;3&#45;4__entry&#45;&gt;course__PHYS321A -->
<!-- year_band__years&#45;3&#45;4__entry&#45;&gt;course__PHYS323 -->
<!-- year_band__years&#45;3&#45;4__entry&#45;&gt;course__PHYS326 -->
<!-- year_band__years&#45;3&#45;4__entry&#45;&gt;course__EOS312 -->
<!-- year_band__years&#45;3&#45;4__entry&#45;&gt;course__EOS433 -->
<!-- year_band__years&#45;3&#45;4__entry&#45;&gt;course__EOS451 -->
<!-- year_band__years&#45;3&#45;4__entry&#45;&gt;course__PHYS411 -->
<!-- year_band__years&#45;3&#45;4__entry&#45;&gt;course__PHYS426 -->
<!-- year_band__years&#45;3&#45;4__entry&#45;&gt;course__EOS401 -->
<!-- year_band__years&#45;3&#45;4__entry&#45;&gt;year_band__years&#45;3&#45;4__exit -->
<!-- choice_EOS311_0_2&#45;&gt;course__EOS311 -->
<g id="edge89" class="edge">
<title>choice_EOS311_0_2&#45;&gt;course__EOS311</title>
<path fill="none" stroke="#5d6972" stroke-width="1.2" d="M1818.78,-296C1859.98,-281.43 1942.55,-255.88 2015,-255.88 2015,-255.88 2015,-255.88 2312,-255.88 2393.18,-255.88 2437.72,-226.52 2492,-286.88 2683.47,-499.83 2423.36,-1329.95 2575,-1572.88 2576.59,-1575.44 2578.49,-1577.79 2580.6,-1579.97"/>
<polygon fill="#5d6972" stroke="#5d6972" stroke-width="1.2" points="2579.03,-1581.85 2585.87,-1584.71 2582.31,-1578.21 2579.03,-1581.85"/>
</g>
<!-- choice_EOS311_0_2&#45;&gt;course__EOS314 -->
<g id="edge98" class="edge">
<title>choice_EOS311_0_2&#45;&gt;course__EOS314</title>
<path fill="none" stroke="#5d6972" stroke-width="1.2" d="M1818.53,-305.88C1860.08,-305.88 1943.92,-305.88 2015,-305.88 2015,-305.88 2015,-305.88 2312,-305.88 2442.16,-305.88 2445.08,-415.47 2492,-536.88 2580.04,-764.71 2444.51,-1426.41 2575,-1632.88 2579.78,-1640.44 2587.18,-1646.29 2594.94,-1650.73"/>
<polygon fill="#5d6972" stroke="#5d6972" stroke-width="1.2" points="2594.15,-1653.08 2601.5,-1654.13 2596.41,-1648.73 2594.15,-1653.08"/>
</g>
<!-- choice_EOS312_0_0&#45;&gt;course__EOS312 -->
<g id="edge94" class="edge">
<title>choice_EOS312_0_0&#45;&gt;course__EOS312</title>
<path fill="none" stroke="#5d6972" stroke-width="1.2" d="M2767.76,-2499C2751.7,-2490.4 2732.76,-2477.07 2723.5,-2458.88 2672.48,-2358.68 2693.65,-2061.29 2723.5,-1952.88 2733.59,-1916.24 2758.12,-1879.49 2775.63,-1856.49"/>
<polygon fill="#5d6972" stroke="#5d6972" stroke-width="1.2" points="2777.57,-1857.99 2779.92,-1850.95 2773.7,-1854.99 2777.57,-1857.99"/>
</g>
<!-- choice_EOS325_0_2_0&#45;&gt;course__EOS325 -->
<g id="edge104" class="edge">
<title>choice_EOS325_0_2_0&#45;&gt;course__EOS325</title>
<path fill="none" stroke="#5d6972" stroke-width="1.2" d="M2482.14,-629.19C2486.03,-634.55 2489.71,-640.66 2492,-646.88 2572.47,-865.73 2450.07,-1496 2575,-1692.88 2579.75,-1700.36 2587.07,-1706.17 2594.75,-1710.59"/>
<polygon fill="#5d6972" stroke="#5d6972" stroke-width="1.2" points="2593.9,-1712.91 2601.24,-1713.99 2596.17,-1708.57 2593.9,-1712.91"/>
</g>
<!-- choice_EOS340_1&#45;&gt;course__EOS340 -->
<g id="edge108" class="edge">
<title>choice_EOS340_1&#45;&gt;course__EOS340</title>
<path fill="none" stroke="#5d6972" stroke-width="1.2" d="M1764.15,-1982.33C1712.99,-2005.84 1599.66,-2064.36 1536,-2146.88 1447.6,-2261.47 1409.93,-2437.07 1398.52,-2501.8"/>
<polygon fill="#5d6972" stroke="#5d6972" stroke-width="1.2" points="1396.09,-2501.46 1397.31,-2508.78 1400.92,-2502.3 1396.09,-2501.46"/>
</g>
<!-- choice_EOS340_1&#45;&gt;course__EOS431 -->
<g id="edge116" class="edge">
<title>choice_EOS340_1&#45;&gt;course__EOS431</title>
<path fill="none" stroke="#5d6972" stroke-width="1.2" d="M1818.56,-1960.3C1829.52,-1954.47 1841.26,-1946.1 1848,-1934.88 2068.48,-1567.74 1731.46,-1353.81 1931,-974.88 1953.51,-932.13 1966.69,-905.88 2015,-905.88 2015,-905.88 2015,-905.88 2100,-905.88 2213.65,-905.88 2243.76,-863.59 2355,-886.88 2420.06,-900.5 2452.82,-893.18 2492,-946.88 2704.25,-1237.8 2378.51,-1451.09 2575,-1752.88 2576.68,-1755.45 2578.65,-1757.83 2580.84,-1760.02"/>
<polygon fill="#5d6972" stroke="#5d6972" stroke-width="1.2" points="2579.42,-1762.03 2586.29,-1764.81 2582.65,-1758.35 2579.42,-1762.03"/>
</g>
<!-- choice_EOS401_0_3&#45;&gt;choice_EOS401_0 -->
<g id="edge114" class="edge">
<title>choice_EOS401_0_3&#45;&gt;choice_EOS401_0</title>
<path fill="none" stroke="#7a8389" d="M2822.28,-1390.88C2844.53,-1390.88 2876.56,-1390.88 2900.62,-1390.88"/>
<polygon fill="#7a8389" stroke="#7a8389" points="2900.82,-1393.33 2907.82,-1390.88 2900.82,-1388.43 2900.82,-1393.33"/>
</g>
<!-- choice_EOS401_0&#45;&gt;course__EOS401 -->
<g id="edge115" class="edge">
<title>choice_EOS401_0&#45;&gt;course__EOS401</title>
<path fill="none" stroke="#5d6972" stroke-width="1.2" d="M2925.29,-1408.95C2898.21,-1465.74 2814.33,-1646.17 2765,-1802.88 2714.4,-1963.64 2726.77,-2010.4 2682,-2172.88 2668.64,-2221.36 2649.54,-2276.92 2638.44,-2308.16"/>
<polygon fill="#5d6972" stroke="#5d6972" stroke-width="1.2" points="2636.1,-2307.4 2636.06,-2314.82 2640.72,-2309.05 2636.1,-2307.4"/>
</g>
<!-- choice_MATH211_0&#45;&gt;course__MATH211 -->
<g id="edge126" class="edge">
<title>choice_MATH211_0&#45;&gt;course__MATH211</title>
<path fill="none" stroke="#5d6972" stroke-width="1.2" d="M1774.54,-1729.01C1729.14,-1781.66 1598.49,-1940.76 1536,-2096.88 1458.81,-2289.75 1576.69,-2389.97 1453,-2556.88 1447.48,-2564.33 1439.56,-2570.08 1431.33,-2574.45"/>
<polygon fill="#5d6972" stroke="#5d6972" stroke-width="1.2" points="1430.23,-2572.26 1425.01,-2577.53 1432.38,-2576.66 1430.23,-2572.26"/>
</g>
<!-- choice_MATH342_0_1&#45;&gt;course__MATH342 -->
<g id="edge134" class="edge">
<title>choice_MATH342_0_1&#45;&gt;course__MATH342</title>
<path fill="none" stroke="#5d6972" stroke-width="1.2" d="M2481.66,-1288.9C2485.64,-1294.35 2489.49,-1300.58 2492,-1306.88 2595.75,-1567.66 2418.45,-1699.94 2575,-1932.88 2579,-1938.83 2584.59,-1943.74 2590.65,-1947.74"/>
<polygon fill="#5d6972" stroke="#5d6972" stroke-width="1.2" points="2589.56,-1949.94 2596.83,-1951.44 2592.08,-1945.74 2589.56,-1949.94"/>
</g>
<!-- choice_MATH342_0_1&#45;&gt;course__MATH346 -->
<g id="edge136" class="edge">
<title>choice_MATH342_0_1&#45;&gt;course__MATH346</title>
<path fill="none" stroke="#5d6972" stroke-width="1.2" d="M2481.97,-1289.25C2485.86,-1294.62 2489.58,-1300.71 2492,-1306.88 2603.9,-1592.88 2405.15,-1737.01 2575,-1992.88 2578.96,-1998.85 2584.54,-2003.77 2590.6,-2007.77"/>
<polygon fill="#5d6972" stroke="#5d6972" stroke-width="1.2" points="2589.51,-2009.97 2596.77,-2011.48 2592.03,-2005.77 2589.51,-2009.97"/>
</g>
<!-- choice_PHYS321A_1&#45;&gt;course__PHYS321A -->
<g id="edge152" class="edge">
<title>choice_PHYS321A_1&#45;&gt;course__PHYS321A</title>
<path fill="none" stroke="#5d6972" stroke-width="1.2" d="M2479.86,-2492.51C2484.27,-2485.96 2488.82,-2478.35 2492,-2470.88 2555.92,-2320.58 2477.49,-2243.91 2575,-2112.88 2578.69,-2107.92 2583.47,-2103.65 2588.63,-2100.02"/>
<polygon fill="#5d6972" stroke="#5d6972" stroke-width="1.2" points="2590.26,-2101.89 2594.83,-2096.05 2587.62,-2097.76 2590.26,-2101.89"/>
</g>
<!-- choice_PHYS321A_1&#45;&gt;course__PHYS323 -->
<g id="edge155" class="edge">
<title>choice_PHYS321A_1&#45;&gt;course__PHYS323</title>
<path fill="none" stroke="#5d6972" stroke-width="1.2" d="M2478.9,-2492.59C2483.33,-2485.92 2488.15,-2478.21 2492,-2470.88 2549.19,-2362.1 2599.52,-2223.71 2618.96,-2167.89"/>
<polygon fill="#5d6972" stroke="#5d6972" stroke-width="1.2" points="2621.31,-2168.6 2621.29,-2161.19 2616.68,-2167 2621.31,-2168.6"/>
</g>
<!-- choice_PHYS321A_1&#45;&gt;course__PHYS326 -->
<g id="edge162" class="edge">
<title>choice_PHYS321A_1&#45;&gt;course__PHYS326</title>
<path fill="none" stroke="#5d6972" stroke-width="1.2" d="M2480.18,-2492.64C2484.62,-2486.1 2489.1,-2478.46 2492,-2470.88 2578.3,-2244.85 2437.92,-2132.24 2575,-1932.88 2579.37,-1926.52 2585.56,-1921.34 2592.16,-1917.19"/>
<polygon fill="#5d6972" stroke="#5d6972" stroke-width="1.2" points="2593.46,-1919.27 2598.3,-1913.66 2591.01,-1915.02 2593.46,-1919.27"/>
</g>
<!-- choice_PHYS411_0_0&#45;&gt;course__PHYS411 -->
<g id="edge168" class="edge">
<title>choice_PHYS411_0_0&#45;&gt;course__PHYS411</title>
<path fill="none" stroke="#5d6972" stroke-width="1.2" d="M2767.76,-1462.76C2751.7,-1471.36 2732.76,-1484.69 2723.5,-1502.88 2685.38,-1577.73 2683.98,-2184.76 2723.5,-2258.88 2731.12,-2273.18 2745.11,-2283.98 2758.71,-2291.67"/>
<polygon fill="#5d6972" stroke="#5d6972" stroke-width="1.2" points="2757.57,-2293.85 2764.9,-2294.99 2759.89,-2289.53 2757.57,-2293.85"/>
</g>
</g>
</svg>
