<?xml version="1.0" encoding="UTF-8" standalone="no"?>
<!DOCTYPE svg PUBLIC "-//W3C//DTD SVG 1.1//EN"
 "http://www.w3.org/Graphics/SVG/1.1/DTD/svg11.dtd">
<!-- Generated by graphviz version 2.43.0 (0)
 -->
<!-- Title: BSC&#45;BESC Pages: 1 -->
<svg width="699pt" height="1831pt"
 viewBox="0.00 0.00 699.04 1830.96" xmlns="http://www.w3.org/2000/svg" xmlns:xlink="http://www.w3.org/1999/xlink">
<g id="graph0" class="graph" transform="scale(1 1) rotate(0) translate(11.52 1819.44)">
<title>BSC&#45;BESC</title>
<g id="clust1" class="cluster">
<title>cluster_year&#45;1</title>
<path fill="transparent" stroke="#c8d0d5" stroke-dasharray="5,2" d="M20,-781.92C20,-781.92 382.5,-781.92 382.5,-781.92 388.5,-781.92 394.5,-787.92 394.5,-793.92 394.5,-793.92 394.5,-1062.92 394.5,-1062.92 394.5,-1068.92 388.5,-1074.92 382.5,-1074.92 382.5,-1074.92 20,-1074.92 20,-1074.92 14,-1074.92 8,-1068.92 8,-1062.92 8,-1062.92 8,-793.92 8,-793.92 8,-787.92 14,-781.92 20,-781.92"/>
<text text-anchor="middle" x="201.25" y="-1062.12" font-family="Avenir Next" font-size="11.00">Year 1</text>
</g>
<g id="clust2" class="cluster">
<title>cluster_year&#45;2</title>
<path fill="transparent" stroke="#c8d0d5" stroke-dasharray="5,2" d="M288,-1192.92C288,-1192.92 536.5,-1192.92 536.5,-1192.92 542.5,-1192.92 548.5,-1198.92 548.5,-1204.92 548.5,-1204.92 548.5,-1571.92 548.5,-1571.92 548.5,-1577.92 542.5,-1583.92 536.5,-1583.92 536.5,-1583.92 288,-1583.92 288,-1583.92 282,-1583.92 276,-1577.92 276,-1571.92 276,-1571.92 276,-1204.92 276,-1204.92 276,-1198.92 282,-1192.92 288,-1192.92"/>
<text text-anchor="middle" x="412.25" y="-1571.12" font-family="Avenir Next" font-size="11.00">Year 2</text>
</g>
<g id="clust3" class="cluster">
<title>cluster_years&#45;3&#45;4</title>
<path fill="transparent" stroke="#c8d0d5" stroke-dasharray="5,2" d="M449,-695.92C449,-695.92 656,-695.92 656,-695.92 662,-695.92 668,-701.92 668,-707.92 668,-707.92 668,-1172.92 668,-1172.92 668,-1178.92 662,-1184.92 656,-1184.92 656,-1184.92 449,-1184.92 449,-1184.92 443,-1184.92 437,-1178.92 437,-1172.92 437,-1172.92 437,-707.92 437,-707.92 437,-701.92 443,-695.92 449,-695.92"/>
<text text-anchor="middle" x="552.5" y="-1172.12" font-family="Avenir Next" font-size="11.00">Years 3 + 4</text>
</g>
<!-- course__CHEM101 -->
<g id="node1" class="node">
<title>course__CHEM101</title>
<g id="a_node1"><a xlink:href="../../../courses/CHEM101.html" xlink:title="Equivalent or cross&#45;listed: CHEM101: Fundamentals of Chemistry from Atoms to Materials | CHEM150: Engineering Chemistry" target="_top">
<path fill="#d7e9ef" stroke="#1f4f66" stroke-width="1.6" d="M130,-978.92C130,-978.92 34,-978.92 34,-978.92 28,-978.92 22,-972.92 22,-966.92 22,-966.92 22,-954.92 22,-954.92 22,-948.92 28,-942.92 34,-942.92 34,-942.92 130,-942.92 130,-942.92 136,-942.92 142,-948.92 142,-954.92 142,-954.92 142,-966.92 142,-966.92 142,-972.92 136,-978.92 130,-978.92"/>
<text text-anchor="middle" x="82" y="-958.42" font-family="Avenir Next" font-size="10.00" fill="#17232b">CHEM101 / CHEM150</text>
</a>
</g>
</g>
<!-- course__CHEM102 -->
<g id="node6" class="node">
<title>course__CHEM102</title>
<g id="a_node6"><a xlink:href="../../../courses/CHEM102.html" xlink:title="CHEM102: Chemical Reactivity Fundamentals with Environmental Applications" target="_top">
<path fill="#d7e9ef" stroke="#1f4f66" stroke-width="1.6" d="M236,-978.92C236,-978.92 196,-978.92 196,-978.92 190,-978.92 184,-972.92 184,-966.92 184,-966.92 184,-954.92 184,-954.92 184,-948.92 190,-942.92 196,-942.92 196,-942.92 236,-942.92 236,-942.92 242,-942.92 248,-948.92 248,-954.92 248,-954.92 248,-966.92 248,-966.92 248,-972.92 242,-978.92 236,-978.92"/>
<text text-anchor="middle" x="216" y="-958.42" font-family="Avenir Next" font-size="10.00" fill="#17232b">CHEM102</text>
</a>
</g>
</g>
<!-- course__CHEM101&#45;&gt;course__CHEM102 -->
<g id="edge22" class="edge">
<title>course__CHEM101&#45;&gt;course__CHEM102</title>
<path fill="none" stroke="#5d6972" stroke-width="1.2" d="M142.05,-960.92C153.76,-960.92 165.77,-960.92 176.58,-960.92"/>
<polygon fill="#5d6972" stroke="#5d6972" stroke-width="1.2" points="176.85,-963.37 183.85,-960.92 176.85,-958.47 176.85,-963.37"/>
</g>
<!-- course__CHEM231 -->
<g id="node11" class="node">
<title>course__CHEM231</title>
<g id="a_node11"><a xlink:href="../../../courses/CHEM231.html" xlink:title="CHEM231: Introduction to Organic Chemistry" target="_top">
<path fill="#d7e9ef" stroke="#1f4f66" stroke-width="1.6" d="M369.5,-1451.92C369.5,-1451.92 329.5,-1451.92 329.5,-1451.92 323.5,-1451.92 317.5,-1445.92 317.5,-1439.92 317.5,-1439.92 317.5,-1427.92 317.5,-1427.92 317.5,-1421.92 323.5,-1415.92 329.5,-1415.92 329.5,-1415.92 369.5,-1415.92 369.5,-1415.92 375.5,-1415.92 381.5,-1421.92 381.5,-1427.92 381.5,-1427.92 381.5,-1439.92 381.5,-1439.92 381.5,-1445.92 375.5,-1451.92 369.5,-1451.92"/>
<text text-anchor="middle" x="349.5" y="-1431.42" font-family="Avenir Next" font-size="10.00" fill="#17232b">CHEM231</text>
</a>
</g>
</g>
<!-- course__CHEM101&#45;&gt;course__CHEM231 -->
<g id="edge24" class="edge">
<title>course__CHEM101&#45;&gt;course__CHEM231</title>
<path fill="none" stroke="#5d6972" stroke-width="1.2" d="M135.18,-979.06C137.69,-981.11 140,-983.39 142,-985.92 210.84,-1072.89 148.79,-1126.74 184,-1231.92 212.27,-1316.36 208.28,-1352.09 276,-1409.92 285.69,-1418.19 298.33,-1423.64 310.33,-1427.21"/>
<polygon fill="#5d6972" stroke="#5d6972" stroke-width="1.2" points="309.9,-1429.63 317.3,-1429.11 311.19,-1424.91 309.9,-1429.63"/>
</g>
<!-- course__EOS313 -->
<g id="node41" class="node">
<title>course__EOS313</title>
<g id="a_node41"><a xlink:href="../../../courses/EOS313.html" xlink:title="EOS313: Introductory Geological Oceanography" target="_top">
<path fill="#f9f9f9" stroke="#363636" d="M364.5,-186.92C364.5,-186.92 334.5,-186.92 334.5,-186.92 328.5,-186.92 322.5,-180.92 322.5,-174.92 322.5,-174.92 322.5,-162.92 322.5,-162.92 322.5,-156.92 328.5,-150.92 334.5,-150.92 334.5,-150.92 364.5,-150.92 364.5,-150.92 370.5,-150.92 376.5,-156.92 376.5,-162.92 376.5,-162.92 376.5,-174.92 376.5,-174.92 376.5,-180.92 370.5,-186.92 364.5,-186.92"/>
<text text-anchor="middle" x="349.5" y="-166.72" font-family="Avenir Next" font-size="9.00" fill="#363636">EOS313</text>
</a>
</g>
</g>
<!-- course__CHEM101&#45;&gt;course__EOS313 -->
<g id="edge58" class="edge">
<title>course__CHEM101&#45;&gt;course__EOS313</title>
<path fill="none" stroke="#5d6972" stroke-width="1.2" d="M136.25,-942.87C138.35,-941.07 140.29,-939.09 142,-936.92 220.06,-837.66 159.82,-779.86 184,-655.92 207.2,-537 225.27,-509.93 248,-390.92 256.34,-347.27 247.52,-227.03 276,-192.92 285.63,-181.39 300.92,-175.37 314.99,-172.23"/>
<polygon fill="#5d6972" stroke="#5d6972" stroke-width="1.2" points="315.79,-174.57 322.2,-170.84 314.86,-169.76 315.79,-174.57"/>
</g>
<!-- course__EOS110 -->
<g id="node2" class="node">
<title>course__EOS110</title>
<g id="a_node2"><a xlink:href="../../../courses/EOS110.html" xlink:title="Equivalent or cross&#45;listed: EOS110: Oceans and Atmosphere | EOS350: Understanding the Oceans" target="_top">
<path fill="#d7e9ef" stroke="#1f4f66" stroke-width="1.6" d="M120.5,-831.92C120.5,-831.92 43.5,-831.92 43.5,-831.92 37.5,-831.92 31.5,-825.92 31.5,-819.92 31.5,-819.92 31.5,-807.92 31.5,-807.92 31.5,-801.92 37.5,-795.92 43.5,-795.92 43.5,-795.92 120.5,-795.92 120.5,-795.92 126.5,-795.92 132.5,-801.92 132.5,-807.92 132.5,-807.92 132.5,-819.92 132.5,-819.92 132.5,-825.92 126.5,-831.92 120.5,-831.92"/>
<text text-anchor="middle" x="82" y="-811.42" font-family="Avenir Next" font-size="10.00" fill="#17232b">EOS110 / EOS350</text>
</a>
</g>
</g>
<!-- choice_EOS230_0_1 -->
<g id="node52" class="node">
<title>choice_EOS230_0_1</title>
<path fill="#fff7ee" stroke="#b7793f" stroke-width="1.1" d="M518,-110.92C518,-110.92 488,-110.92 488,-110.92 482,-110.92 476,-104.92 476,-98.92 476,-98.92 476,-86.92 476,-86.92 476,-80.92 482,-74.92 488,-74.92 488,-74.92 518,-74.92 518,-74.92 524,-74.92 530,-80.92 530,-86.92 530,-86.92 530,-98.92 530,-98.92 530,-104.92 524,-110.92 518,-110.92"/>
<text text-anchor="middle" x="503" y="-90.72" font-family="Avenir Next" font-size="9.00">1 of</text>
</g>
<!-- course__EOS110&#45;&gt;choice_EOS230_0_1 -->
<g id="edge33" class="edge">
<title>course__EOS110&#45;&gt;choice_EOS230_0_1</title>
<path fill="none" stroke="#7a8389" d="M83.4,-795.78C85.63,-718.48 99.63,-409.85 184,-174.92 211.21,-99.16 206.11,-58.84 276,-18.92 327.33,10.4 353.2,0.57 409,-18.92 437.6,-28.91 463.98,-51.78 481.28,-69.47"/>
<polygon fill="#7a8389" stroke="#7a8389" points="479.75,-71.41 486.36,-74.77 483.29,-68.02 479.75,-71.41"/>
</g>
<!-- choice_EOS312_0_0 -->
<g id="node55" class="node">
<title>choice_EOS312_0_0</title>
<path fill="#fff7ee" stroke="#b7793f" stroke-width="1.1" d="M518,-281.92C518,-281.92 488,-281.92 488,-281.92 482,-281.92 476,-275.92 476,-269.92 476,-269.92 476,-257.92 476,-257.92 476,-251.92 482,-245.92 488,-245.92 488,-245.92 518,-245.92 518,-245.92 524,-245.92 530,-251.92 530,-257.92 530,-257.92 530,-269.92 530,-269.92 530,-275.92 524,-281.92 518,-281.92"/>
<text text-anchor="middle" x="503" y="-261.72" font-family="Avenir Next" font-size="9.00">1 of</text>
</g>
<!-- course__EOS110&#45;&gt;choice_EOS312_0_0 -->
<g id="edge52" class="edge">
<title>course__EOS110&#45;&gt;choice_EOS312_0_0</title>
<path fill="none" stroke="#7a8389" d="M85.22,-795.81C97.73,-696.98 163.01,-224.2 276,-143.92 324.19,-109.68 355.92,-117.9 409,-143.92 449.32,-163.68 477.16,-210.27 491.27,-239.24"/>
<polygon fill="#7a8389" stroke="#7a8389" points="489.19,-240.57 494.4,-245.85 493.62,-238.47 489.19,-240.57"/>
</g>
<!-- course__EOS120 -->
<g id="node3" class="node">
<title>course__EOS120</title>
<g id="a_node3"><a xlink:href="../../../courses/EOS120.html" xlink:title="EOS120: The Dynamic Earth" target="_top">
<path fill="#d7e9ef" stroke="#1f4f66" stroke-width="1.6" d="M97,-929.92C97,-929.92 67,-929.92 67,-929.92 61,-929.92 55,-923.92 55,-917.92 55,-917.92 55,-905.92 55,-905.92 55,-899.92 61,-893.92 67,-893.92 67,-893.92 97,-893.92 97,-893.92 103,-893.92 109,-899.92 109,-905.92 109,-905.92 109,-917.92 109,-917.92 109,-923.92 103,-929.92 97,-929.92"/>
<text text-anchor="middle" x="82" y="-909.42" font-family="Avenir Next" font-size="10.00" fill="#17232b">EOS120</text>
</a>
</g>
</g>
<!-- course__EOS205 -->
<g id="node13" class="node">
<title>course__EOS205</title>
<g id="a_node13"><a xlink:href="../../../courses/EOS205.html" xlink:title="EOS205: Mineralogy" target="_top">
<path fill="#d7e9ef" stroke="#1f4f66" stroke-width="1.6" d="M364.5,-1389.92C364.5,-1389.92 334.5,-1389.92 334.5,-1389.92 328.5,-1389.92 322.5,-1383.92 322.5,-1377.92 322.5,-1377.92 322.5,-1365.92 322.5,-1365.92 322.5,-1359.92 328.5,-1353.92 334.5,-1353.92 334.5,-1353.92 364.5,-1353.92 364.5,-1353.92 370.5,-1353.92 376.5,-1359.92 376.5,-1365.92 376.5,-1365.92 376.5,-1377.92 376.5,-1377.92 376.5,-1383.92 370.5,-1389.92 364.5,-1389.92"/>
<text text-anchor="middle" x="349.5" y="-1369.42" font-family="Avenir Next" font-size="10.00" fill="#17232b">EOS205</text>
</a>
</g>
</g>
<!-- course__EOS120&#45;&gt;course__EOS205 -->
<g id="edge29" class="edge">
<title>course__EOS120&#45;&gt;course__EOS205</title>
<path fill="none" stroke="#5d6972" stroke-width="1.2" d="M109.05,-917.08C120.79,-920.71 133.81,-926.8 142,-936.92 204.06,-1013.63 153.19,-1061.18 184,-1154.92 187.71,-1166.2 267.09,-1340.06 276,-1347.92 287.01,-1357.63 302.05,-1363.43 315.58,-1366.88"/>
<polygon fill="#5d6972" stroke="#5d6972" stroke-width="1.2" points="315.12,-1369.29 322.49,-1368.49 316.23,-1364.52 315.12,-1369.29"/>
</g>
<!-- course__EOS330 -->
<g id="node22" class="node">
<title>course__EOS330</title>
<g id="a_node22"><a xlink:href="../../../courses/EOS330.html" xlink:title="EOS330: Paleobiology" target="_top">
<path fill="#d7e9ef" stroke="#1f4f66" stroke-width="1.6" d="M518,-941.92C518,-941.92 488,-941.92 488,-941.92 482,-941.92 476,-935.92 476,-929.92 476,-929.92 476,-917.92 476,-917.92 476,-911.92 482,-905.92 488,-905.92 488,-905.92 518,-905.92 518,-905.92 524,-905.92 530,-911.92 530,-917.92 530,-917.92 530,-929.92 530,-929.92 530,-935.92 524,-941.92 518,-941.92"/>
<text text-anchor="middle" x="503" y="-921.42" font-family="Avenir Next" font-size="10.00" fill="#17232b">EOS330</text>
</a>
</g>
</g>
<!-- course__EOS120&#45;&gt;course__EOS330 -->
<g id="edge71" class="edge">
<title>course__EOS120&#45;&gt;course__EOS330</title>
<path fill="none" stroke="#5d6972" stroke-width="1.2" d="M109.03,-918.2C120.33,-922.03 133.01,-927.97 142,-936.92 175.58,-970.36 157.95,-995.33 184,-1034.92 216.66,-1084.56 221.41,-1108.46 276,-1131.92 330.31,-1155.26 364.15,-1170.43 409,-1131.92 471.43,-1078.32 385.41,-1013.01 437,-948.92 444.92,-939.08 457.21,-933.1 468.97,-929.48"/>
<polygon fill="#5d6972" stroke="#5d6972" stroke-width="1.2" points="469.7,-931.82 475.8,-927.61 468.4,-927.1 469.7,-931.82"/>
</g>
<!-- course__EOS202 -->
<g id="node39" class="node">
<title>course__EOS202</title>
<g id="a_node39"><a xlink:href="../../../courses/EOS202.html" xlink:title="EOS202: Structural Geology" target="_top">
<path fill="#f9f9f9" stroke="#363636" d="M364.5,-659.92C364.5,-659.92 334.5,-659.92 334.5,-659.92 328.5,-659.92 322.5,-653.92 322.5,-647.92 322.5,-647.92 322.5,-635.92 322.5,-635.92 322.5,-629.92 328.5,-623.92 334.5,-623.92 334.5,-623.92 364.5,-623.92 364.5,-623.92 370.5,-623.92 376.5,-629.92 376.5,-635.92 376.5,-635.92 376.5,-647.92 376.5,-647.92 376.5,-653.92 370.5,-659.92 364.5,-659.92"/>
<text text-anchor="middle" x="349.5" y="-639.72" font-family="Avenir Next" font-size="9.00" fill="#363636">EOS202</text>
</a>
</g>
</g>
<!-- course__EOS120&#45;&gt;course__EOS202 -->
<g id="edge28" class="edge">
<title>course__EOS120&#45;&gt;course__EOS202</title>
<path fill="none" stroke="#5d6972" stroke-width="1.2" d="M109.08,-907.26C120.82,-903.84 133.85,-897.96 142,-887.92 208.03,-806.56 106.5,-726.44 184,-655.92 219.28,-623.82 278.2,-627.53 315.12,-634.07"/>
<polygon fill="#5d6972" stroke="#5d6972" stroke-width="1.2" points="314.86,-636.51 322.2,-635.4 315.77,-631.7 314.86,-636.51"/>
</g>
<!-- course__EOS120&#45;&gt;course__EOS313 -->
<g id="edge57" class="edge">
<title>course__EOS120&#45;&gt;course__EOS313</title>
<path fill="none" stroke="#5d6972" stroke-width="1.2" d="M109.05,-907.56C120.93,-904.2 134.08,-898.29 142,-887.92 189.65,-825.47 169.15,-614.06 184,-536.92 213.92,-381.51 167.4,-308.04 276,-192.92 286.23,-182.08 301.45,-176.13 315.31,-172.87"/>
<polygon fill="#5d6972" stroke="#5d6972" stroke-width="1.2" points="316.05,-175.22 322.4,-171.4 315.05,-170.42 316.05,-175.22"/>
</g>
<!-- course__MATH100 -->
<g id="node4" class="node">
<title>course__MATH100</title>
<g id="a_node4"><a xlink:href="../../../courses/MATH100.html" xlink:title="Collapsed in simplified view: MATH100: Calculus I | MATH102: Calculus for Students in the Social and Biological Sciences | MATH109: Introduction to Calculus" target="_top">
<path fill="#d7e9ef" stroke="#1f4f66" stroke-width="1.6" d="M102,-880.92C102,-880.92 62,-880.92 62,-880.92 56,-880.92 50,-874.92 50,-868.92 50,-868.92 50,-856.92 50,-856.92 50,-850.92 56,-844.92 62,-844.92 62,-844.92 102,-844.92 102,-844.92 108,-844.92 114,-850.92 114,-856.92 114,-856.92 114,-868.92 114,-868.92 114,-874.92 108,-880.92 102,-880.92"/>
<text text-anchor="middle" x="82" y="-860.42" font-family="Avenir Next" font-size="10.00" fill="#17232b">Calculus I</text>
</a>
</g>
</g>
<!-- course__MATH100&#45;&gt;course__CHEM102 -->
<g id="edge23" class="edge">
<title>course__MATH100&#45;&gt;course__CHEM102</title>
<path fill="none" stroke="#5d6972" stroke-width="1.2" d="M114.17,-873.51C123.51,-877.36 133.51,-882.2 142,-887.92 162.38,-901.66 181.88,-921.63 195.59,-937.21"/>
<polygon fill="#5d6972" stroke="#5d6972" stroke-width="1.2" points="193.94,-939.04 200.37,-942.73 197.64,-935.84 193.94,-939.04"/>
</g>
<!-- course__MATH101 -->
<g id="node7" class="node">
<title>course__MATH101</title>
<g id="a_node7"><a xlink:href="../../../courses/MATH101.html" xlink:title="MATH101: Calculus II" target="_top">
<path fill="#d7e9ef" stroke="#1f4f66" stroke-width="1.6" d="M235.5,-880.92C235.5,-880.92 196.5,-880.92 196.5,-880.92 190.5,-880.92 184.5,-874.92 184.5,-868.92 184.5,-868.92 184.5,-856.92 184.5,-856.92 184.5,-850.92 190.5,-844.92 196.5,-844.92 196.5,-844.92 235.5,-844.92 235.5,-844.92 241.5,-844.92 247.5,-850.92 247.5,-856.92 247.5,-856.92 247.5,-868.92 247.5,-868.92 247.5,-874.92 241.5,-880.92 235.5,-880.92"/>
<text text-anchor="middle" x="216" y="-860.42" font-family="Avenir Next" font-size="10.00" fill="#17232b">MATH101</text>
</a>
</g>
</g>
<!-- course__MATH100&#45;&gt;course__MATH101 -->
<g id="edge90" class="edge">
<title>course__MATH100&#45;&gt;course__MATH101</title>
<path fill="none" stroke="#5d6972" stroke-width="1.2" d="M114.28,-862.92C133.16,-862.92 157.33,-862.92 177.26,-862.92"/>
<polygon fill="#5d6972" stroke="#5d6972" stroke-width="1.2" points="177.4,-865.37 184.4,-862.92 177.4,-860.47 177.4,-865.37"/>
</g>
<!-- course__PHYS102A -->
<g id="node8" class="node">
<title>course__PHYS102A</title>
<g id="a_node8"><a xlink:href="../../../courses/PHYS102A.html" xlink:title="Collapsed in simplified view: PHYS102A: General Physics I | PHYS110: Introductory Physics I | PHYS120: Physics I" target="_top">
<path fill="#d7e9ef" stroke="#1f4f66" stroke-width="1.6" d="M233.5,-831.92C233.5,-831.92 198.5,-831.92 198.5,-831.92 192.5,-831.92 186.5,-825.92 186.5,-819.92 186.5,-819.92 186.5,-807.92 186.5,-807.92 186.5,-801.92 192.5,-795.92 198.5,-795.92 198.5,-795.92 233.5,-795.92 233.5,-795.92 239.5,-795.92 245.5,-801.92 245.5,-807.92 245.5,-807.92 245.5,-819.92 245.5,-819.92 245.5,-825.92 239.5,-831.92 233.5,-831.92"/>
<text text-anchor="middle" x="216" y="-811.42" font-family="Avenir Next" font-size="10.00" fill="#17232b">Physics I</text>
</a>
</g>
</g>
<!-- course__MATH100&#45;&gt;course__PHYS102A -->
<g id="edge96" class="edge">
<title>course__MATH100&#45;&gt;course__PHYS102A</title>
<path fill="none" stroke="#5d6972" stroke-width="1.2" d="M114.28,-851.31C133.87,-844.03 159.17,-834.64 179.51,-827.09"/>
<polygon fill="#5d6972" stroke="#5d6972" stroke-width="1.2" points="180.49,-829.34 186.2,-824.61 178.78,-824.75 180.49,-829.34"/>
</g>
<!-- course__PHYS102B -->
<g id="node10" class="node">
<title>course__PHYS102B</title>
<g id="a_node10"><a xlink:href="../../../courses/PHYS102B.html" xlink:title="Collapsed in simplified view: PHYS102B: General Physics II | PHYS111: Introductory Physics II | PHYS130: Physics II" target="_top">
<path fill="#d7e9ef" stroke="#1f4f66" stroke-width="1.6" d="M368.5,-880.92C368.5,-880.92 330.5,-880.92 330.5,-880.92 324.5,-880.92 318.5,-874.92 318.5,-868.92 318.5,-868.92 318.5,-856.92 318.5,-856.92 318.5,-850.92 324.5,-844.92 330.5,-844.92 330.5,-844.92 368.5,-844.92 368.5,-844.92 374.5,-844.92 380.5,-850.92 380.5,-856.92 380.5,-856.92 380.5,-868.92 380.5,-868.92 380.5,-874.92 374.5,-880.92 368.5,-880.92"/>
<text text-anchor="middle" x="349.5" y="-860.42" font-family="Avenir Next" font-size="10.00" fill="#17232b">Physics II</text>
</a>
</g>
</g>
<!-- course__MATH100&#45;&gt;course__PHYS102B -->
<g id="edge98" class="edge">
<title>course__MATH100&#45;&gt;course__PHYS102B</title>
<path fill="none" stroke="#5d6972" stroke-width="1.2" d="M114.03,-872.67C133.82,-878.38 160.15,-885.01 184,-887.92 212.24,-891.36 219.77,-891.38 248,-887.92 269.11,-885.33 292.17,-879.8 310.87,-874.59"/>
<polygon fill="#5d6972" stroke="#5d6972" stroke-width="1.2" points="312.01,-876.82 318.07,-872.54 310.67,-872.1 312.01,-876.82"/>
</g>
<!-- course__CSC110 -->
<g id="node38" class="node">
<title>course__CSC110</title>
<g id="a_node38"><a xlink:href="../../../courses/CSC110.html" xlink:title="Collapsed in simplified view: CSC110: Fundamentals of Programming I | CSC111: Fundamentals of Programming with Engineering Applications" target="_top">
<path fill="#f9f9f9" stroke="#363636" d="M379.5,-431.92C379.5,-431.92 319.5,-431.92 319.5,-431.92 313.5,-431.92 307.5,-425.92 307.5,-419.92 307.5,-419.92 307.5,-407.92 307.5,-407.92 307.5,-401.92 313.5,-395.92 319.5,-395.92 319.5,-395.92 379.5,-395.92 379.5,-395.92 385.5,-395.92 391.5,-401.92 391.5,-407.92 391.5,-407.92 391.5,-419.92 391.5,-419.92 391.5,-425.92 385.5,-431.92 379.5,-431.92"/>
<text text-anchor="middle" x="349.5" y="-411.72" font-family="Avenir Next" font-size="9.00" fill="#363636">Programming I</text>
</a>
</g>
</g>
<!-- course__MATH100&#45;&gt;course__CSC110 -->
<g id="edge26" class="edge">
<title>course__MATH100&#45;&gt;course__CSC110</title>
<path fill="none" stroke="#5d6972" stroke-width="1.2" d="M114,-857.1C124.48,-853.57 135.22,-847.93 142,-838.92 195.33,-768.02 123.28,-506.6 184,-441.92 213.09,-410.93 262.87,-406.26 300.07,-407.93"/>
<polygon fill="#5d6972" stroke="#5d6972" stroke-width="1.2" points="300.2,-410.39 307.33,-408.34 300.48,-405.5 300.2,-410.39"/>
</g>
<!-- choice_EOS311_0_2 -->
<g id="node54" class="node">
<title>choice_EOS311_0_2</title>
<path fill="#fff7ee" stroke="#b7793f" stroke-width="1.1" d="M518,-545.92C518,-545.92 488,-545.92 488,-545.92 482,-545.92 476,-539.92 476,-533.92 476,-533.92 476,-521.92 476,-521.92 476,-515.92 482,-509.92 488,-509.92 488,-509.92 518,-509.92 518,-509.92 524,-509.92 530,-515.92 530,-521.92 530,-521.92 530,-533.92 530,-533.92 530,-539.92 524,-545.92 518,-545.92"/>
<text text-anchor="middle" x="503" y="-525.72" font-family="Avenir Next" font-size="9.00">2 of</text>
</g>
<!-- course__MATH100&#45;&gt;choice_EOS311_0_2 -->
<g id="edge46" class="edge">
<title>course__MATH100&#45;&gt;choice_EOS311_0_2</title>
<path fill="none" stroke="#7a8389" d="M114.18,-856.54C124.42,-852.97 134.96,-847.45 142,-838.92 203.14,-764.84 150.4,-716.9 184,-626.92 212.83,-549.71 204.72,-507.28 276,-465.92 327.13,-436.25 352.43,-448.79 409,-465.92 434.36,-473.6 459.13,-490.73 476.72,-505.04"/>
<polygon fill="#7a8389" stroke="#7a8389" points="475.45,-507.17 482.4,-509.77 478.59,-503.41 475.45,-507.17"/>
</g>
<!-- course__BIOL150A -->
<g id="node5" class="node">
<title>course__BIOL150A</title>
<g id="a_node5"><a xlink:href="../../../courses/BIOL150A.html" xlink:title="Collapsed in simplified view: BIOL150A: Modern Biology | BIOL184: Evolution and Biodiversity" target="_top">
<path fill="#d7e9ef" stroke="#1f4f66" stroke-width="1.6" d="M109,-1027.92C109,-1027.92 55,-1027.92 55,-1027.92 49,-1027.92 43,-1021.92 43,-1015.92 43,-1015.92 43,-1003.92 43,-1003.92 43,-997.92 49,-991.92 55,-991.92 55,-991.92 109,-991.92 109,-991.92 115,-991.92 121,-997.92 121,-1003.92 121,-1003.92 121,-1015.92 121,-1015.92 121,-1021.92 115,-1027.92 109,-1027.92"/>
<text text-anchor="middle" x="82" y="-1007.42" font-family="Avenir Next" font-size="10.00" fill="#17232b">Intro biology</text>
</a>
</g>
</g>
<!-- course__BIOL186 -->
<g id="node9" class="node">
<title>course__BIOL186</title>
<g id="a_node9"><a xlink:href="../../../courses/BIOL186.html" xlink:title="BIOL186: Physiology and Cell Biology" target="_top">
<path fill="#d7e9ef" stroke="#1f4f66" stroke-width="1.6" d="M232.5,-1027.92C232.5,-1027.92 199.5,-1027.92 199.5,-1027.92 193.5,-1027.92 187.5,-1021.92 187.5,-1015.92 187.5,-1015.92 187.5,-1003.92 187.5,-1003.92 187.5,-997.92 193.5,-991.92 199.5,-991.92 199.5,-991.92 232.5,-991.92 232.5,-991.92 238.5,-991.92 244.5,-997.92 244.5,-1003.92 244.5,-1003.92 244.5,-1015.92 244.5,-1015.92 244.5,-1021.92 238.5,-1027.92 232.5,-1027.92"/>
<text text-anchor="middle" x="216" y="-1007.42" font-family="Avenir Next" font-size="10.00" fill="#17232b">BIOL186</text>
</a>
</g>
</g>
<!-- course__BIOL150A&#45;&gt;course__BIOL186 -->
<g id="edge4" class="edge">
<title>course__BIOL150A&#45;&gt;course__BIOL186</title>
<path fill="none" stroke="#5d6972" stroke-width="1.2" d="M121.18,-1005.79C139.87,-1005.26 162.2,-1005.3 180.38,-1005.91"/>
<polygon fill="#5d6972" stroke="#5d6972" stroke-width="1.2" points="180.3,-1008.35 187.39,-1006.18 180.49,-1003.46 180.3,-1008.35"/>
</g>
<!-- course__BIOL225 -->
<g id="node16" class="node">
<title>course__BIOL225</title>
<g id="a_node16"><a xlink:href="../../../courses/BIOL225.html" xlink:title="BIOL225: Principles of Cell Biology" target="_top">
<path fill="#d7e9ef" stroke="#1f4f66" stroke-width="1.6" d="M366,-1500.92C366,-1500.92 333,-1500.92 333,-1500.92 327,-1500.92 321,-1494.92 321,-1488.92 321,-1488.92 321,-1476.92 321,-1476.92 321,-1470.92 327,-1464.92 333,-1464.92 333,-1464.92 366,-1464.92 366,-1464.92 372,-1464.92 378,-1470.92 378,-1476.92 378,-1476.92 378,-1488.92 378,-1488.92 378,-1494.92 372,-1500.92 366,-1500.92"/>
<text text-anchor="middle" x="349.5" y="-1480.42" font-family="Avenir Next" font-size="10.00" fill="#17232b">BIOL225</text>
</a>
</g>
</g>
<!-- course__BIOL150A&#45;&gt;course__BIOL225 -->
<g id="edge6" class="edge">
<title>course__BIOL150A&#45;&gt;course__BIOL225</title>
<path fill="none" stroke="#5d6972" stroke-width="1.2" d="M121.06,-1018.47C129.1,-1021.99 136.74,-1026.95 142,-1033.92 245.7,-1171.3 81.94,-1280.31 184,-1418.92 214.32,-1460.1 275.01,-1474.79 313.59,-1480.02"/>
<polygon fill="#5d6972" stroke="#5d6972" stroke-width="1.2" points="313.75,-1482.51 321,-1480.95 314.36,-1477.65 313.75,-1482.51"/>
</g>
<!-- course__BIOL150A&#45;&gt;course__EOS330 -->
<g id="edge72" class="edge">
<title>course__BIOL150A&#45;&gt;course__EOS330</title>
<path fill="none" stroke="#5d6972" stroke-width="1.2" d="M121.3,-1022.25C128.53,-1025.46 135.76,-1029.33 142,-1033.92 165.66,-1051.32 162.7,-1064.71 184,-1084.92 220.88,-1119.92 227.71,-1137.01 276,-1152.92 332.14,-1171.41 364.45,-1191.77 409,-1152.92 477.97,-1092.77 380.17,-1020.65 437,-948.92 444.85,-939.02 457.12,-933.03 468.89,-929.42"/>
<polygon fill="#5d6972" stroke="#5d6972" stroke-width="1.2" points="469.62,-931.76 475.73,-927.55 468.33,-927.03 469.62,-931.76"/>
</g>
<!-- course__CHEM245 -->
<g id="node12" class="node">
<title>course__CHEM245</title>
<g id="a_node12"><a xlink:href="../../../courses/CHEM245.html" xlink:title="CHEM245: Introduction to Thermodynamics" target="_top">
<path fill="#d7e9ef" stroke="#1f4f66" stroke-width="1.6" d="M369.5,-1340.92C369.5,-1340.92 329.5,-1340.92 329.5,-1340.92 323.5,-1340.92 317.5,-1334.92 317.5,-1328.92 317.5,-1328.92 317.5,-1316.92 317.5,-1316.92 317.5,-1310.92 323.5,-1304.92 329.5,-1304.92 329.5,-1304.92 369.5,-1304.92 369.5,-1304.92 375.5,-1304.92 381.5,-1310.92 381.5,-1316.92 381.5,-1316.92 381.5,-1328.92 381.5,-1328.92 381.5,-1334.92 375.5,-1340.92 369.5,-1340.92"/>
<text text-anchor="middle" x="349.5" y="-1320.42" font-family="Avenir Next" font-size="10.00" fill="#17232b">CHEM245</text>
</a>
</g>
</g>
<!-- course__CHEM102&#45;&gt;course__CHEM245 -->
<g id="edge25" class="edge">
<title>course__CHEM102&#45;&gt;course__CHEM245</title>
<path fill="none" stroke="#5d6972" stroke-width="1.2" d="M243.18,-979.07C245.04,-981.19 246.7,-983.48 248,-985.92 280.91,-1047.51 232.63,-1244.19 276,-1298.92 284.34,-1309.44 297.42,-1315.39 310.19,-1318.74"/>
<polygon fill="#5d6972" stroke="#5d6972" stroke-width="1.2" points="309.85,-1321.18 317.22,-1320.35 310.95,-1316.4 309.85,-1321.18"/>
</g>
<!-- course__CHEM102&#45;&gt;course__EOS205 -->
<g id="edge30" class="edge">
<title>course__CHEM102&#45;&gt;course__EOS205</title>
<path fill="none" stroke="#5d6972" stroke-width="1.2" d="M243.21,-979.05C245.07,-981.18 246.71,-983.47 248,-985.92 285.59,-1057.31 226.27,-1284.38 276,-1347.92 285.41,-1359.94 301.03,-1366 315.36,-1369.04"/>
<polygon fill="#5d6972" stroke="#5d6972" stroke-width="1.2" points="314.93,-1371.45 322.26,-1370.29 315.81,-1366.63 314.93,-1371.45"/>
</g>
<!-- course__EOS261 -->
<g id="node19" class="node">
<title>course__EOS261</title>
<g id="a_node19"><a xlink:href="../../../courses/EOS261.html" xlink:title="EOS261: The Climate System" target="_top">
<path fill="#d7e9ef" stroke="#1f4f66" stroke-width="1.6" d="M364.5,-1242.92C364.5,-1242.92 334.5,-1242.92 334.5,-1242.92 328.5,-1242.92 322.5,-1236.92 322.5,-1230.92 322.5,-1230.92 322.5,-1218.92 322.5,-1218.92 322.5,-1212.92 328.5,-1206.92 334.5,-1206.92 334.5,-1206.92 364.5,-1206.92 364.5,-1206.92 370.5,-1206.92 376.5,-1212.92 376.5,-1218.92 376.5,-1218.92 376.5,-1230.92 376.5,-1230.92 376.5,-1236.92 370.5,-1242.92 364.5,-1242.92"/>
<text text-anchor="middle" x="349.5" y="-1222.42" font-family="Avenir Next" font-size="10.00" fill="#17232b">EOS261</text>
</a>
</g>
</g>
<!-- course__CHEM102&#45;&gt;course__EOS261 -->
<g id="edge41" class="edge">
<title>course__CHEM102&#45;&gt;course__EOS261</title>
<path fill="none" stroke="#5d6972" stroke-width="1.2" d="M242.93,-979.21C244.84,-981.31 246.58,-983.55 248,-985.92 282.02,-1042.56 248.71,-1071.75 276,-1131.92 287.96,-1158.28 308.82,-1183.89 325.1,-1201.53"/>
<polygon fill="#5d6972" stroke="#5d6972" stroke-width="1.2" points="323.42,-1203.32 329.99,-1206.75 326.99,-1199.97 323.42,-1203.32"/>
</g>
<!-- course__EOS311 -->
<g id="node24" class="node">
<title>course__EOS311</title>
<g id="a_node24"><a xlink:href="../../../courses/EOS311.html" xlink:title="Equivalent or cross&#45;listed: BIOL311: Biological Oceanography | EOS311: Biological Oceanography" target="_top">
<path fill="#d7e9ef" stroke="#1f4f66" stroke-width="1.6" d="M543,-892.92C543,-892.92 463,-892.92 463,-892.92 457,-892.92 451,-886.92 451,-880.92 451,-880.92 451,-868.92 451,-868.92 451,-862.92 457,-856.92 463,-856.92 463,-856.92 543,-856.92 543,-856.92 549,-856.92 555,-862.92 555,-868.92 555,-868.92 555,-880.92 555,-880.92 555,-886.92 549,-892.92 543,-892.92"/>
<text text-anchor="middle" x="503" y="-872.42" font-family="Avenir Next" font-size="10.00" fill="#17232b">BIOL311 / EOS311</text>
</a>
</g>
</g>
<!-- course__CHEM102&#45;&gt;course__EOS311 -->
<g id="edge49" class="edge">
<title>course__CHEM102&#45;&gt;course__EOS311</title>
<path fill="none" stroke="#5d6972" stroke-width="1.2" d="M224.53,-942.73C238.18,-910.2 266.46,-844.9 276,-838.92 326.08,-807.51 351.1,-827.03 409,-838.92 422.26,-841.64 424.42,-845.91 437,-850.92 439.77,-852.02 442.6,-853.13 445.48,-854.25"/>
<polygon fill="#5d6972" stroke="#5d6972" stroke-width="1.2" points="444.8,-856.61 452.22,-856.83 446.56,-852.04 444.8,-856.61"/>
</g>
<!-- course__EOS312 -->
<g id="node46" class="node">
<title>course__EOS312</title>
<g id="a_node46"><a xlink:href="../../../courses/EOS312.html" xlink:title="EOS312: Introductory Chemical Oceanography" target="_top">
<path fill="#f9f9f9" stroke="#363636" d="M364.5,-235.92C364.5,-235.92 334.5,-235.92 334.5,-235.92 328.5,-235.92 322.5,-229.92 322.5,-223.92 322.5,-223.92 322.5,-211.92 322.5,-211.92 322.5,-205.92 328.5,-199.92 334.5,-199.92 334.5,-199.92 364.5,-199.92 364.5,-199.92 370.5,-199.92 376.5,-205.92 376.5,-211.92 376.5,-211.92 376.5,-223.92 376.5,-223.92 376.5,-229.92 370.5,-235.92 364.5,-235.92"/>
<text text-anchor="middle" x="349.5" y="-215.72" font-family="Avenir Next" font-size="9.00" fill="#363636">EOS312</text>
</a>
</g>
</g>
<!-- course__CHEM102&#45;&gt;course__EOS312 -->
<g id="edge56" class="edge">
<title>course__CHEM102&#45;&gt;course__EOS312</title>
<path fill="none" stroke="#5d6972" stroke-width="1.2" d="M226.95,-942.63C234.24,-928.22 243.6,-907.39 248,-887.92 263.85,-817.84 232.68,-299.23 276,-241.92 285.27,-229.65 301.03,-223.57 315.49,-220.59"/>
<polygon fill="#5d6972" stroke="#5d6972" stroke-width="1.2" points="315.99,-222.99 322.45,-219.36 315.13,-218.17 315.99,-222.99"/>
</g>
<!-- course__MATH101&#45;&gt;course__PHYS102B -->
<g id="edge99" class="edge">
<title>course__MATH101&#45;&gt;course__PHYS102B</title>
<path fill="none" stroke="#5d6972" stroke-width="1.2" d="M247.83,-862.92C266.76,-862.92 291.13,-862.92 311.15,-862.92"/>
<polygon fill="#5d6972" stroke="#5d6972" stroke-width="1.2" points="311.32,-865.37 318.32,-862.92 311.32,-860.47 311.32,-865.37"/>
</g>
<!-- course__MATH200 -->
<g id="node14" class="node">
<title>course__MATH200</title>
<g id="a_node14"><a xlink:href="../../../courses/MATH200.html" xlink:title="Equivalent or cross&#45;listed: MATH200: Calculus III | MATH202: Intermediate Calculus for CSC and EOS" target="_top">
<path fill="#d7e9ef" stroke="#1f4f66" stroke-width="1.6" d="M397,-1291.92C397,-1291.92 302,-1291.92 302,-1291.92 296,-1291.92 290,-1285.92 290,-1279.92 290,-1279.92 290,-1267.92 290,-1267.92 290,-1261.92 296,-1255.92 302,-1255.92 302,-1255.92 397,-1255.92 397,-1255.92 403,-1255.92 409,-1261.92 409,-1267.92 409,-1267.92 409,-1279.92 409,-1279.92 409,-1285.92 403,-1291.92 397,-1291.92"/>
<text text-anchor="middle" x="349.5" y="-1271.42" font-family="Avenir Next" font-size="10.00" fill="#17232b">MATH200 / MATH202</text>
</a>
</g>
</g>
<!-- course__MATH101&#45;&gt;course__MATH200 -->
<g id="edge91" class="edge">
<title>course__MATH101&#45;&gt;course__MATH200</title>
<path fill="none" stroke="#5d6972" stroke-width="1.2" d="M226.4,-880.93C233.58,-895.59 243.07,-917.04 248,-936.92 264.8,-1004.7 232.63,-1195.19 276,-1249.92 278.25,-1252.76 280.84,-1255.26 283.68,-1257.47"/>
<polygon fill="#5d6972" stroke="#5d6972" stroke-width="1.2" points="282.65,-1259.73 289.83,-1261.61 285.39,-1255.67 282.65,-1259.73"/>
</g>
<!-- course__STAT254 -->
<g id="node23" class="node">
<title>course__STAT254</title>
<g id="a_node23"><a xlink:href="../../../courses/STAT254.html" xlink:title="Collapsed in simplified view: STAT254: Probability and Statistics for Engineers | STAT255: Statistics for Life Sciences I | STAT260: Introduction to Probability and Statistics I" target="_top">
<path fill="#d7e9ef" stroke="#1f4f66" stroke-width="1.6" d="M534,-990.92C534,-990.92 472,-990.92 472,-990.92 466,-990.92 460,-984.92 460,-978.92 460,-978.92 460,-966.92 460,-966.92 460,-960.92 466,-954.92 472,-954.92 472,-954.92 534,-954.92 534,-954.92 540,-954.92 546,-960.92 546,-966.92 546,-966.92 546,-978.92 546,-978.92 546,-984.92 540,-990.92 534,-990.92"/>
<text text-anchor="middle" x="503" y="-970.42" font-family="Avenir Next" font-size="10.00" fill="#17232b">Intro statistics</text>
</a>
</g>
</g>
<!-- course__MATH101&#45;&gt;course__STAT254 -->
<g id="edge101" class="edge">
<title>course__MATH101&#45;&gt;course__STAT254</title>
<path fill="none" stroke="#5d6972" stroke-width="1.2" d="M247.51,-846.88C288.66,-827.73 362.19,-802.53 409,-838.92 448.83,-869.88 403.24,-911.43 437,-948.92 441.49,-953.91 447.12,-957.86 453.16,-961"/>
<polygon fill="#5d6972" stroke="#5d6972" stroke-width="1.2" points="452.48,-963.38 459.86,-964.08 454.53,-958.93 452.48,-963.38"/>
</g>
<!-- course__EOS210 -->
<g id="node42" class="node">
<title>course__EOS210</title>
<g id="a_node42"><a xlink:href="../../../courses/EOS210.html" xlink:title="Collapsed in simplified view: EOS210: Introductory Geophysics | PHYS210: Introductory Geophysics" target="_top">
<path fill="#f9f9f9" stroke="#363636" d="M383.5,-507.92C383.5,-507.92 315.5,-507.92 315.5,-507.92 309.5,-507.92 303.5,-501.92 303.5,-495.92 303.5,-495.92 303.5,-483.92 303.5,-483.92 303.5,-477.92 309.5,-471.92 315.5,-471.92 315.5,-471.92 383.5,-471.92 383.5,-471.92 389.5,-471.92 395.5,-477.92 395.5,-483.92 395.5,-483.92 395.5,-495.92 395.5,-495.92 395.5,-501.92 389.5,-507.92 383.5,-507.92"/>
<text text-anchor="middle" x="349.5" y="-487.72" font-family="Avenir Next" font-size="9.00" fill="#363636">Intro geophysics</text>
</a>
</g>
</g>
<!-- course__MATH101&#45;&gt;course__EOS210 -->
<g id="edge31" class="edge">
<title>course__MATH101&#45;&gt;course__EOS210</title>
<path fill="none" stroke="#5d6972" stroke-width="1.2" d="M244,-844.66C245.53,-842.87 246.89,-840.95 248,-838.92 282.3,-776.06 232.97,-575.15 276,-517.92 281.26,-510.92 288.5,-505.68 296.39,-501.74"/>
<polygon fill="#5d6972" stroke="#5d6972" stroke-width="1.2" points="297.74,-503.82 303.14,-498.73 295.75,-499.34 297.74,-503.82"/>
</g>
<!-- choice_EOS261_0_4 -->
<g id="node53" class="node">
<title>choice_EOS261_0_4</title>
<path fill="#fff7ee" stroke="#b7793f" stroke-width="1.1" d="M518,-621.92C518,-621.92 488,-621.92 488,-621.92 482,-621.92 476,-615.92 476,-609.92 476,-609.92 476,-597.92 476,-597.92 476,-591.92 482,-585.92 488,-585.92 488,-585.92 518,-585.92 518,-585.92 524,-585.92 530,-591.92 530,-597.92 530,-597.92 530,-609.92 530,-609.92 530,-615.92 524,-621.92 518,-621.92"/>
<text text-anchor="middle" x="503" y="-601.72" font-family="Avenir Next" font-size="9.00">1 of</text>
</g>
<!-- course__MATH101&#45;&gt;choice_EOS261_0_4 -->
<g id="edge38" class="edge">
<title>course__MATH101&#45;&gt;choice_EOS261_0_4</title>
<path fill="none" stroke="#7a8389" d="M243.92,-844.61C245.46,-842.83 246.85,-840.93 248,-838.92 272.55,-795.93 239.89,-651.78 276,-617.92 302.96,-592.63 412.27,-596.94 468.39,-601.01"/>
<polygon fill="#7a8389" stroke="#7a8389" points="468.45,-603.47 475.62,-601.55 468.82,-598.59 468.45,-603.47"/>
</g>
<!-- course__MATH101&#45;&gt;choice_EOS311_0_2 -->
<g id="edge47" class="edge">
<title>course__MATH101&#45;&gt;choice_EOS311_0_2</title>
<path fill="none" stroke="#7a8389" d="M243.99,-844.65C245.52,-842.86 246.88,-840.95 248,-838.92 279.96,-780.84 228.38,-588.04 276,-541.92 302.62,-516.14 412.61,-520.74 468.73,-524.95"/>
<polygon fill="#7a8389" stroke="#7a8389" points="468.78,-527.41 475.95,-525.51 469.16,-522.53 468.78,-527.41"/>
</g>
<!-- course__PHYS102A&#45;&gt;course__PHYS102B -->
<g id="edge97" class="edge">
<title>course__PHYS102A&#45;&gt;course__PHYS102B</title>
<path fill="none" stroke="#5d6972" stroke-width="1.2" d="M245.53,-824.55C264.89,-831.76 290.67,-841.37 311.59,-849.16"/>
<polygon fill="#5d6972" stroke="#5d6972" stroke-width="1.2" points="310.78,-851.48 318.19,-851.62 312.49,-846.88 310.78,-851.48"/>
</g>
<!-- course__PHYS102A&#45;&gt;course__EOS210 -->
<g id="edge32" class="edge">
<title>course__PHYS102A&#45;&gt;course__EOS210</title>
<path fill="none" stroke="#5d6972" stroke-width="1.2" d="M223,-795.59C229.85,-774.07 241.02,-737.22 248,-704.92 265.75,-622.78 223.46,-583.5 276,-517.92 281.4,-511.17 288.64,-506.05 296.46,-502.16"/>
<polygon fill="#5d6972" stroke="#5d6972" stroke-width="1.2" points="297.75,-504.27 303.14,-499.17 295.75,-499.8 297.75,-504.27"/>
</g>
<!-- course__BIOL186&#45;&gt;course__BIOL150A -->
<g id="edge3" class="edge">
<title>course__BIOL186&#45;&gt;course__BIOL150A</title>
<path fill="none" stroke="#5d6972" stroke-width="1.2" d="M187.39,-1014.28C170.29,-1015.18 147.92,-1015.39 128.28,-1014.93"/>
<polygon fill="#5d6972" stroke="#5d6972" stroke-width="1.2" points="128.25,-1012.48 121.18,-1014.73 128.11,-1017.38 128.25,-1012.48"/>
</g>
<!-- course__BIOL186&#45;&gt;course__BIOL225 -->
<g id="edge5" class="edge">
<title>course__BIOL186&#45;&gt;course__BIOL225</title>
<path fill="none" stroke="#5d6972" stroke-width="1.2" d="M216.9,-1028.02C216.86,-1103.4 220.39,-1391.66 276,-1458.92 285.28,-1470.14 299.95,-1476.15 313.67,-1479.36"/>
<polygon fill="#5d6972" stroke="#5d6972" stroke-width="1.2" points="313.37,-1481.8 320.72,-1480.79 314.35,-1477 313.37,-1481.8"/>
</g>
<!-- course__PHYS102B&#45;&gt;course__EOS261 -->
<g id="edge42" class="edge">
<title>course__PHYS102B&#45;&gt;course__EOS261</title>
<path fill="none" stroke="#5d6972" stroke-width="1.2" d="M339.83,-881.03C320.39,-918.57 277.14,-1008.19 262,-1089.42 254.99,-1126.99 242.74,-1142.4 262,-1175.42 273.56,-1195.24 296.33,-1207.76 315.75,-1215.25"/>
<polygon fill="#5d6972" stroke="#5d6972" stroke-width="1.2" points="315.03,-1217.6 322.45,-1217.69 316.71,-1212.99 315.03,-1217.6"/>
</g>
<!-- course__PHYS102B&#45;&gt;course__EOS311 -->
<g id="edge51" class="edge">
<title>course__PHYS102B&#45;&gt;course__EOS311</title>
<path fill="none" stroke="#5d6972" stroke-width="1.2" d="M380.79,-865.32C398.79,-866.74 422.22,-868.6 443.68,-870.3"/>
<polygon fill="#5d6972" stroke="#5d6972" stroke-width="1.2" points="443.7,-872.76 450.87,-870.87 444.09,-867.87 443.7,-872.76"/>
</g>
<!-- course__EOS325 -->
<g id="node27" class="node">
<title>course__EOS325</title>
<g id="a_node27"><a xlink:href="../../../courses/EOS325.html" xlink:title="EOS325: Earth System Modelling" target="_top">
<path fill="#d7e9ef" stroke="#1f4f66" stroke-width="1.6" d="M518,-843.92C518,-843.92 488,-843.92 488,-843.92 482,-843.92 476,-837.92 476,-831.92 476,-831.92 476,-819.92 476,-819.92 476,-813.92 482,-807.92 488,-807.92 488,-807.92 518,-807.92 518,-807.92 524,-807.92 530,-813.92 530,-819.92 530,-819.92 530,-831.92 530,-831.92 530,-837.92 524,-843.92 518,-843.92"/>
<text text-anchor="middle" x="503" y="-823.42" font-family="Avenir Next" font-size="10.00" fill="#17232b">EOS325</text>
</a>
</g>
</g>
<!-- course__PHYS102B&#45;&gt;course__EOS325 -->
<g id="edge69" class="edge">
<title>course__PHYS102B&#45;&gt;course__EOS325</title>
<path fill="none" stroke="#5d6972" stroke-width="1.2" d="M380.79,-855.52C406.21,-849.31 442.46,-840.46 468.69,-834.05"/>
<polygon fill="#5d6972" stroke="#5d6972" stroke-width="1.2" points="469.58,-836.36 475.8,-832.32 468.42,-831.6 469.58,-836.36"/>
</g>
<!-- course__EOS314 -->
<g id="node43" class="node">
<title>course__EOS314</title>
<g id="a_node43"><a xlink:href="../../../courses/EOS314.html" xlink:title="EOS314: Descriptive Physical Oceanography" target="_top">
<path fill="#f9f9f9" stroke="#363636" d="M364.5,-382.92C364.5,-382.92 334.5,-382.92 334.5,-382.92 328.5,-382.92 322.5,-376.92 322.5,-370.92 322.5,-370.92 322.5,-358.92 322.5,-358.92 322.5,-352.92 328.5,-346.92 334.5,-346.92 334.5,-346.92 364.5,-346.92 364.5,-346.92 370.5,-346.92 376.5,-352.92 376.5,-358.92 376.5,-358.92 376.5,-370.92 376.5,-370.92 376.5,-376.92 370.5,-382.92 364.5,-382.92"/>
<text text-anchor="middle" x="349.5" y="-362.72" font-family="Avenir Next" font-size="9.00" fill="#363636">EOS314</text>
</a>
</g>
</g>
<!-- course__PHYS102B&#45;&gt;course__EOS314 -->
<g id="edge60" class="edge">
<title>course__PHYS102B&#45;&gt;course__EOS314</title>
<path fill="none" stroke="#5d6972" stroke-width="1.2" d="M325.68,-844.84C304.39,-827.05 274.68,-797.77 262,-764.42 247.47,-726.2 240,-430.89 262,-396.42 273.37,-378.6 296,-370.77 315.39,-367.37"/>
<polygon fill="#5d6972" stroke="#5d6972" stroke-width="1.2" points="315.81,-369.78 322.36,-366.31 315.07,-364.94 315.81,-369.78"/>
</g>
<!-- course__MATH248 -->
<g id="node44" class="node">
<title>course__MATH248</title>
<g id="a_node44"><a xlink:href="../../../courses/MATH248.html" xlink:title="Equivalent or cross&#45;listed: MATH248: Computer Assisted Mathematics | PHYS248: Computer Assisted Physics" target="_top">
<path fill="#f9f9f9" stroke="#363636" d="M392.5,-1633.92C392.5,-1633.92 306.5,-1633.92 306.5,-1633.92 300.5,-1633.92 294.5,-1627.92 294.5,-1621.92 294.5,-1621.92 294.5,-1609.92 294.5,-1609.92 294.5,-1603.92 300.5,-1597.92 306.5,-1597.92 306.5,-1597.92 392.5,-1597.92 392.5,-1597.92 398.5,-1597.92 404.5,-1603.92 404.5,-1609.92 404.5,-1609.92 404.5,-1621.92 404.5,-1621.92 404.5,-1627.92 398.5,-1633.92 392.5,-1633.92"/>
<text text-anchor="middle" x="349.5" y="-1613.72" font-family="Avenir Next" font-size="9.00" fill="#363636">MATH248 / PHYS248</text>
</a>
</g>
</g>
<!-- course__PHYS102B&#45;&gt;course__MATH248 -->
<g id="edge95" class="edge">
<title>course__PHYS102B&#45;&gt;course__MATH248</title>
<path fill="none" stroke="#5d6972" stroke-width="1.2" d="M339.83,-881.03C320.39,-918.57 277.14,-1008.19 262,-1089.42 257,-1116.23 247.32,-1557.42 262,-1580.42 268.14,-1590.03 277.4,-1597.04 287.63,-1602.15"/>
<polygon fill="#5d6972" stroke="#5d6972" stroke-width="1.2" points="286.73,-1604.43 294.11,-1605.1 288.75,-1599.97 286.73,-1604.43"/>
</g>
<!-- course__EOS431 -->
<g id="node45" class="node">
<title>course__EOS431</title>
<g id="a_node45"><a xlink:href="../../../courses/EOS431.html" xlink:title="Equivalent or cross&#45;listed: EOS431: Physical Oceanography | PHYS441: Physical Oceanography" target="_top">
<path fill="#f9f9f9" stroke="#363636" d="M389.5,-284.92C389.5,-284.92 309.5,-284.92 309.5,-284.92 303.5,-284.92 297.5,-278.92 297.5,-272.92 297.5,-272.92 297.5,-260.92 297.5,-260.92 297.5,-254.92 303.5,-248.92 309.5,-248.92 309.5,-248.92 389.5,-248.92 389.5,-248.92 395.5,-248.92 401.5,-254.92 401.5,-260.92 401.5,-260.92 401.5,-272.92 401.5,-272.92 401.5,-278.92 395.5,-284.92 389.5,-284.92"/>
<text text-anchor="middle" x="349.5" y="-264.72" font-family="Avenir Next" font-size="9.00" fill="#363636">EOS431 / PHYS441</text>
</a>
</g>
</g>
<!-- course__PHYS102B&#45;&gt;course__EOS431 -->
<g id="edge84" class="edge">
<title>course__PHYS102B&#45;&gt;course__EOS431</title>
<path fill="none" stroke="#5d6972" stroke-width="1.2" d="M325.68,-844.84C304.39,-827.05 274.68,-797.77 262,-764.42 252.78,-740.17 248.04,-319.29 262,-297.42 268.58,-287.1 278.98,-280.22 290.34,-275.65"/>
<polygon fill="#5d6972" stroke="#5d6972" stroke-width="1.2" points="291.36,-277.89 297.12,-273.22 289.71,-273.28 291.36,-277.89"/>
</g>
<!-- course__BIOL230 -->
<g id="node21" class="node">
<title>course__BIOL230</title>
<g id="a_node21"><a xlink:href="../../../courses/BIOL230.html" xlink:title="BIOL230: Principles of Genetics" target="_top">
<path fill="#d7e9ef" stroke="#1f4f66" stroke-width="1.6" d="M519.5,-1413.92C519.5,-1413.92 486.5,-1413.92 486.5,-1413.92 480.5,-1413.92 474.5,-1407.92 474.5,-1401.92 474.5,-1401.92 474.5,-1389.92 474.5,-1389.92 474.5,-1383.92 480.5,-1377.92 486.5,-1377.92 486.5,-1377.92 519.5,-1377.92 519.5,-1377.92 525.5,-1377.92 531.5,-1383.92 531.5,-1389.92 531.5,-1389.92 531.5,-1401.92 531.5,-1401.92 531.5,-1407.92 525.5,-1413.92 519.5,-1413.92"/>
<text text-anchor="middle" x="503" y="-1393.42" font-family="Avenir Next" font-size="10.00" fill="#17232b">BIOL230</text>
</a>
</g>
</g>
<!-- course__CHEM231&#45;&gt;course__BIOL230 -->
<g id="edge8" class="edge">
<title>course__CHEM231&#45;&gt;course__BIOL230</title>
<path fill="none" stroke="#5d6972" stroke-width="1.2" d="M381.52,-1426.14C406.37,-1419.9 441.22,-1411.16 467.05,-1404.69"/>
<polygon fill="#5d6972" stroke="#5d6972" stroke-width="1.2" points="467.89,-1407 474.08,-1402.92 466.69,-1402.25 467.89,-1407"/>
</g>
<!-- course__EOS201 -->
<g id="node17" class="node">
<title>course__EOS201</title>
<g id="a_node17"><a xlink:href="../../../courses/EOS201.html" xlink:title="EOS201: Sedimentary Geology" target="_top">
<path fill="#d7e9ef" stroke="#1f4f66" stroke-width="1.6" d="M518,-1364.92C518,-1364.92 488,-1364.92 488,-1364.92 482,-1364.92 476,-1358.92 476,-1352.92 476,-1352.92 476,-1340.92 476,-1340.92 476,-1334.92 482,-1328.92 488,-1328.92 488,-1328.92 518,-1328.92 518,-1328.92 524,-1328.92 530,-1334.92 530,-1340.92 530,-1340.92 530,-1352.92 530,-1352.92 530,-1358.92 524,-1364.92 518,-1364.92"/>
<text text-anchor="middle" x="503" y="-1344.42" font-family="Avenir Next" font-size="10.00" fill="#17232b">EOS201</text>
</a>
</g>
</g>
<!-- course__EOS205&#45;&gt;course__EOS201 -->
<g id="edge27" class="edge">
<title>course__EOS205&#45;&gt;course__EOS201</title>
<path fill="none" stroke="#5d6972" stroke-width="1.2" d="M376.54,-1367.62C402.02,-1363.42 440.92,-1357 468.64,-1352.42"/>
<polygon fill="#5d6972" stroke="#5d6972" stroke-width="1.2" points="469.28,-1354.8 475.79,-1351.24 468.48,-1349.97 469.28,-1354.8"/>
</g>
<!-- course__EOS240 -->
<g id="node18" class="node">
<title>course__EOS240</title>
<g id="a_node18"><a xlink:href="../../../courses/EOS240.html" xlink:title="EOS240: Geochemistry" target="_top">
<path fill="#d7e9ef" stroke="#1f4f66" stroke-width="1.6" d="M518,-1315.92C518,-1315.92 488,-1315.92 488,-1315.92 482,-1315.92 476,-1309.92 476,-1303.92 476,-1303.92 476,-1291.92 476,-1291.92 476,-1285.92 482,-1279.92 488,-1279.92 488,-1279.92 518,-1279.92 518,-1279.92 524,-1279.92 530,-1285.92 530,-1291.92 530,-1291.92 530,-1303.92 530,-1303.92 530,-1309.92 524,-1315.92 518,-1315.92"/>
<text text-anchor="middle" x="503" y="-1295.42" font-family="Avenir Next" font-size="10.00" fill="#17232b">EOS240</text>
</a>
</g>
</g>
<!-- course__EOS205&#45;&gt;course__EOS240 -->
<g id="edge37" class="edge">
<title>course__EOS205&#45;&gt;course__EOS240</title>
<path fill="none" stroke="#5d6972" stroke-width="1.2" d="M376.76,-1363.32C387.19,-1359.36 399.04,-1354.15 409,-1347.92 423.14,-1339.07 422.76,-1331.61 437,-1322.92 446.82,-1316.92 458.32,-1311.93 468.9,-1308.03"/>
<polygon fill="#5d6972" stroke="#5d6972" stroke-width="1.2" points="469.91,-1310.27 475.68,-1305.62 468.27,-1305.65 469.91,-1310.27"/>
</g>
<!-- course__MATH204 -->
<g id="node20" class="node">
<title>course__MATH204</title>
<g id="a_node20"><a xlink:href="../../../courses/MATH204.html" xlink:title="MATH204: Calculus IV" target="_top">
<path fill="#d7e9ef" stroke="#1f4f66" stroke-width="1.6" d="M522.5,-1266.92C522.5,-1266.92 483.5,-1266.92 483.5,-1266.92 477.5,-1266.92 471.5,-1260.92 471.5,-1254.92 471.5,-1254.92 471.5,-1242.92 471.5,-1242.92 471.5,-1236.92 477.5,-1230.92 483.5,-1230.92 483.5,-1230.92 522.5,-1230.92 522.5,-1230.92 528.5,-1230.92 534.5,-1236.92 534.5,-1242.92 534.5,-1242.92 534.5,-1254.92 534.5,-1254.92 534.5,-1260.92 528.5,-1266.92 522.5,-1266.92"/>
<text text-anchor="middle" x="503" y="-1246.42" font-family="Avenir Next" font-size="10.00" fill="#17232b">MATH204</text>
</a>
</g>
</g>
<!-- course__MATH200&#45;&gt;course__MATH204 -->
<g id="edge92" class="edge">
<title>course__MATH200&#45;&gt;course__MATH204</title>
<path fill="none" stroke="#5d6972" stroke-width="1.2" d="M409.07,-1264.25C427.58,-1261.2 447.53,-1257.91 464.18,-1255.16"/>
<polygon fill="#5d6972" stroke="#5d6972" stroke-width="1.2" points="464.6,-1257.57 471.1,-1254.02 463.8,-1252.74 464.6,-1257.57"/>
</g>
<!-- course__MATH200&#45;&gt;course__STAT254 -->
<g id="edge100" class="edge">
<title>course__MATH200&#45;&gt;course__STAT254</title>
<path fill="none" stroke="#5d6972" stroke-width="1.2" d="M403.4,-1255.91C405.46,-1254.1 407.35,-1252.11 409,-1249.92 476.84,-1159.94 368.16,-1087.14 437,-997.92 441.32,-992.32 447.06,-987.97 453.35,-984.6"/>
<polygon fill="#5d6972" stroke="#5d6972" stroke-width="1.2" points="454.51,-986.76 459.78,-981.54 452.41,-982.33 454.51,-986.76"/>
</g>
<!-- course__MATH200&#45;&gt;course__MATH248 -->
<g id="edge93" class="edge">
<title>course__MATH200&#45;&gt;course__MATH248</title>
<path fill="none" stroke="#5d6972" stroke-width="1.2" d="M289.9,-1283.58C278.72,-1288.28 268.51,-1295.21 262,-1305.42 245.56,-1331.18 245.56,-1554.66 262,-1580.42 268.14,-1590.03 277.4,-1597.04 287.63,-1602.15"/>
<polygon fill="#5d6972" stroke="#5d6972" stroke-width="1.2" points="286.73,-1604.43 294.11,-1605.1 288.75,-1599.97 286.73,-1604.43"/>
</g>
<!-- choice_EOS325_0_0 -->
<g id="node56" class="node">
<title>choice_EOS325_0_0</title>
<path fill="#fff7ee" stroke="#b7793f" stroke-width="1.1" d="M518,-1633.92C518,-1633.92 488,-1633.92 488,-1633.92 482,-1633.92 476,-1627.92 476,-1621.92 476,-1621.92 476,-1609.92 476,-1609.92 476,-1603.92 482,-1597.92 488,-1597.92 488,-1597.92 518,-1597.92 518,-1597.92 524,-1597.92 530,-1603.92 530,-1609.92 530,-1609.92 530,-1621.92 530,-1621.92 530,-1627.92 524,-1633.92 518,-1633.92"/>
<text text-anchor="middle" x="503" y="-1613.72" font-family="Avenir Next" font-size="9.00">1 of</text>
</g>
<!-- course__MATH200&#45;&gt;choice_EOS325_0_0 -->
<g id="edge61" class="edge">
<title>course__MATH200&#45;&gt;choice_EOS325_0_0</title>
<path fill="none" stroke="#7a8389" d="M402.46,-1291.93C404.89,-1294.01 407.11,-1296.33 409,-1298.92 484.97,-1402.69 361.86,-1482.55 437,-1586.92 444.6,-1597.48 456.96,-1604.26 468.86,-1608.58"/>
<polygon fill="#7a8389" stroke="#7a8389" points="468.36,-1611 475.78,-1610.85 469.89,-1606.34 468.36,-1611"/>
</g>
<!-- course__BIOL215 -->
<g id="node15" class="node">
<title>course__BIOL215</title>
<g id="a_node15"><a xlink:href="../../../courses/BIOL215.html" xlink:title="BIOL215: Principles of Ecology" target="_top">
<path fill="#d7e9ef" stroke="#1f4f66" stroke-width="1.6" d="M366,-1549.92C366,-1549.92 333,-1549.92 333,-1549.92 327,-1549.92 321,-1543.92 321,-1537.92 321,-1537.92 321,-1525.92 321,-1525.92 321,-1519.92 327,-1513.92 333,-1513.92 333,-1513.92 366,-1513.92 366,-1513.92 372,-1513.92 378,-1519.92 378,-1525.92 378,-1525.92 378,-1537.92 378,-1537.92 378,-1543.92 372,-1549.92 366,-1549.92"/>
<text text-anchor="middle" x="349.5" y="-1529.42" font-family="Avenir Next" font-size="10.00" fill="#17232b">BIOL215</text>
</a>
</g>
</g>
<!-- course__BIOL370 -->
<g id="node31" class="node">
<title>course__BIOL370</title>
<g id="a_node31"><a xlink:href="../../../courses/BIOL370.html" xlink:title="BIOL370: Conservation Biology" target="_top">
<path fill="#ead9b8" stroke="#8f6a3b" stroke-width="1.3" d="M642,-1101.92C642,-1101.92 609,-1101.92 609,-1101.92 603,-1101.92 597,-1095.92 597,-1089.92 597,-1089.92 597,-1077.92 597,-1077.92 597,-1071.92 603,-1065.92 609,-1065.92 609,-1065.92 642,-1065.92 642,-1065.92 648,-1065.92 654,-1071.92 654,-1077.92 654,-1077.92 654,-1089.92 654,-1089.92 654,-1095.92 648,-1101.92 642,-1101.92"/>
<text text-anchor="middle" x="625.5" y="-1081.42" font-family="Avenir Next" font-size="10.00" fill="#3f3120">BIOL370</text>
</a>
</g>
</g>
<!-- course__BIOL215&#45;&gt;course__BIOL370 -->
<g id="edge15" class="edge">
<title>course__BIOL215&#45;&gt;course__BIOL370</title>
<path fill="none" stroke="#5d6972" stroke-width="1.2" d="M373.88,-1550.05C386.22,-1560.87 400.53,-1575.66 409,-1591.92 439.74,-1650.9 385.76,-1696.52 437,-1738.92 477.4,-1772.35 516.7,-1774.75 555,-1738.92 606.23,-1690.99 566.5,-1172.1 597,-1108.92 597.15,-1108.61 597.3,-1108.31 597.46,-1108.01"/>
<polygon fill="#5d6972" stroke="#5d6972" stroke-width="1.2" points="599.61,-1109.19 601.45,-1102 595.53,-1106.48 599.61,-1109.19"/>
</g>
<!-- choice_BIOL330_0_2 -->
<g id="node50" class="node">
<title>choice_BIOL330_0_2</title>
<path fill="#fff7ee" stroke="#b7793f" stroke-width="1.1" d="M518,-1682.92C518,-1682.92 488,-1682.92 488,-1682.92 482,-1682.92 476,-1676.92 476,-1670.92 476,-1670.92 476,-1658.92 476,-1658.92 476,-1652.92 482,-1646.92 488,-1646.92 488,-1646.92 518,-1646.92 518,-1646.92 524,-1646.92 530,-1652.92 530,-1658.92 530,-1658.92 530,-1670.92 530,-1670.92 530,-1676.92 524,-1682.92 518,-1682.92"/>
<text text-anchor="middle" x="503" y="-1662.72" font-family="Avenir Next" font-size="9.00">1 of</text>
</g>
<!-- course__BIOL215&#45;&gt;choice_BIOL330_0_2 -->
<g id="edge9" class="edge">
<title>course__BIOL215&#45;&gt;choice_BIOL330_0_2</title>
<path fill="none" stroke="#7a8389" d="M370.52,-1549.98C382.48,-1561.34 397.53,-1576.7 409,-1591.92 424.1,-1611.95 417.86,-1624.71 437,-1640.92 446.12,-1648.64 457.96,-1653.99 469.02,-1657.64"/>
<polygon fill="#7a8389" stroke="#7a8389" points="468.37,-1660 475.78,-1659.69 469.8,-1655.31 468.37,-1660"/>
</g>
<!-- choice_BIOL457_0_0 -->
<g id="node51" class="node">
<title>choice_BIOL457_0_0</title>
<path fill="#fff7ee" stroke="#b7793f" stroke-width="1.1" d="M518,-1731.92C518,-1731.92 488,-1731.92 488,-1731.92 482,-1731.92 476,-1725.92 476,-1719.92 476,-1719.92 476,-1707.92 476,-1707.92 476,-1701.92 482,-1695.92 488,-1695.92 488,-1695.92 518,-1695.92 518,-1695.92 524,-1695.92 530,-1701.92 530,-1707.92 530,-1707.92 530,-1719.92 530,-1719.92 530,-1725.92 524,-1731.92 518,-1731.92"/>
<text text-anchor="middle" x="503" y="-1711.72" font-family="Avenir Next" font-size="9.00">1 of</text>
</g>
<!-- course__BIOL215&#45;&gt;choice_BIOL457_0_0 -->
<g id="edge18" class="edge">
<title>course__BIOL215&#45;&gt;choice_BIOL457_0_0</title>
<path fill="none" stroke="#7a8389" d="M373.03,-1550.09C385.26,-1561.04 399.73,-1575.94 409,-1591.92 431.72,-1631.1 406.2,-1656.7 437,-1689.92 445.33,-1698.9 457.32,-1704.54 468.74,-1708.07"/>
<polygon fill="#7a8389" stroke="#7a8389" points="468.34,-1710.5 475.74,-1710 469.65,-1705.77 468.34,-1710.5"/>
</g>
<!-- course__BIOL225&#45;&gt;course__BIOL230 -->
<g id="edge7" class="edge">
<title>course__BIOL225&#45;&gt;course__BIOL230</title>
<path fill="none" stroke="#5d6972" stroke-width="1.2" d="M378.12,-1472.94C388.06,-1469 399.23,-1464.16 409,-1458.92 431.23,-1446.99 454.75,-1431.03 472.57,-1418.16"/>
<polygon fill="#5d6972" stroke="#5d6972" stroke-width="1.2" points="474.17,-1420.02 478.38,-1413.92 471.28,-1416.06 474.17,-1420.02"/>
</g>
<!-- course__BIOL225&#45;&gt;choice_BIOL330_0_2 -->
<g id="edge10" class="edge">
<title>course__BIOL225&#45;&gt;choice_BIOL330_0_2</title>
<path fill="none" stroke="#7a8389" d="M378.06,-1488.77C389.19,-1492.48 401.22,-1498.44 409,-1507.92 447.32,-1554.61 397.52,-1595.2 437,-1640.92 445.07,-1650.27 457.13,-1655.98 468.67,-1659.46"/>
<polygon fill="#7a8389" stroke="#7a8389" points="468.36,-1661.92 475.75,-1661.36 469.62,-1657.18 468.36,-1661.92"/>
</g>
<!-- course__EOS300 -->
<g id="node26" class="node">
<title>course__EOS300</title>
<g id="a_node26"><a xlink:href="../../../courses/EOS300.html" xlink:title="EOS300: Earth Science Field School" target="_top">
<path fill="#dbe8d2" stroke="#567447" stroke-width="1.3" d="M518,-794.92C518,-794.92 488,-794.92 488,-794.92 482,-794.92 476,-788.92 476,-782.92 476,-782.92 476,-770.92 476,-770.92 476,-764.92 482,-758.92 488,-758.92 488,-758.92 518,-758.92 518,-758.92 524,-758.92 530,-764.92 530,-770.92 530,-770.92 530,-782.92 530,-782.92 530,-788.92 524,-794.92 518,-794.92"/>
<text text-anchor="middle" x="503" y="-774.42" font-family="Avenir Next" font-size="10.00" fill="#24311e">EOS300</text>
</a>
</g>
</g>
<!-- course__EOS201&#45;&gt;course__EOS300 -->
<g id="edge44" class="edge">
<title>course__EOS201&#45;&gt;course__EOS300</title>
<path fill="none" stroke="#5d6972" stroke-width="1.2" d="M475.9,-1344.68C457.4,-1341.54 434.28,-1334.09 423,-1316.42 407.82,-1292.63 407.82,-832.21 423,-808.42 432.91,-792.89 451.85,-785.02 468.81,-781.02"/>
<polygon fill="#5d6972" stroke="#5d6972" stroke-width="1.2" points="469.58,-783.37 475.93,-779.54 468.57,-778.57 469.58,-783.37"/>
</g>
<!-- course__EOS335 -->
<g id="node28" class="node">
<title>course__EOS335</title>
<g id="a_node28"><a xlink:href="../../../courses/EOS335.html" xlink:title="EOS335: Isotopes in Natural Sciences" target="_top">
<path fill="#d7e9ef" stroke="#1f4f66" stroke-width="1.6" d="M518,-1137.92C518,-1137.92 488,-1137.92 488,-1137.92 482,-1137.92 476,-1131.92 476,-1125.92 476,-1125.92 476,-1113.92 476,-1113.92 476,-1107.92 482,-1101.92 488,-1101.92 488,-1101.92 518,-1101.92 518,-1101.92 524,-1101.92 530,-1107.92 530,-1113.92 530,-1113.92 530,-1125.92 530,-1125.92 530,-1131.92 524,-1137.92 518,-1137.92"/>
<text text-anchor="middle" x="503" y="-1117.42" font-family="Avenir Next" font-size="10.00" fill="#17232b">EOS335</text>
</a>
</g>
</g>
<!-- course__EOS240&#45;&gt;course__EOS335 -->
<g id="edge73" class="edge">
<title>course__EOS240&#45;&gt;course__EOS335</title>
<path fill="none" stroke="#5d6972" stroke-width="1.2" d="M475.9,-1295.68C457.4,-1292.54 434.28,-1285.09 423,-1267.42 409.01,-1245.5 409.01,-1172.33 423,-1150.42 432.87,-1134.96 451.8,-1127.32 468.78,-1123.55"/>
<polygon fill="#5d6972" stroke="#5d6972" stroke-width="1.2" points="469.5,-1125.9 475.9,-1122.16 468.56,-1121.09 469.5,-1125.9"/>
</g>
<!-- course__EOS460 -->
<g id="node32" class="node">
<title>course__EOS460</title>
<g id="a_node32"><a xlink:href="../../../courses/EOS460.html" xlink:title="EOS460: Earth System Science" target="_top">
<path fill="#dbe8d2" stroke="#567447" stroke-width="1.3" d="M640.5,-1150.92C640.5,-1150.92 610.5,-1150.92 610.5,-1150.92 604.5,-1150.92 598.5,-1144.92 598.5,-1138.92 598.5,-1138.92 598.5,-1126.92 598.5,-1126.92 598.5,-1120.92 604.5,-1114.92 610.5,-1114.92 610.5,-1114.92 640.5,-1114.92 640.5,-1114.92 646.5,-1114.92 652.5,-1120.92 652.5,-1126.92 652.5,-1126.92 652.5,-1138.92 652.5,-1138.92 652.5,-1144.92 646.5,-1150.92 640.5,-1150.92"/>
<text text-anchor="middle" x="625.5" y="-1130.42" font-family="Avenir Next" font-size="10.00" fill="#24311e">EOS460</text>
</a>
</g>
</g>
<!-- course__EOS261&#45;&gt;course__EOS460 -->
<g id="edge88" class="edge">
<title>course__EOS261&#45;&gt;course__EOS460</title>
<path fill="none" stroke="#5d6972" stroke-width="1.2" d="M376.76,-1230.12C388.35,-1233.75 401.1,-1239.83 409,-1249.92 456.5,-1310.54 378.31,-1371.06 437,-1420.92 476.97,-1454.87 513.8,-1453.36 555,-1420.92 596.45,-1388.28 616.1,-1222.99 622.27,-1158.62"/>
<polygon fill="#5d6972" stroke="#5d6972" stroke-width="1.2" points="624.74,-1158.48 622.96,-1151.29 619.86,-1158.03 624.74,-1158.48"/>
</g>
<!-- choice_EOS325_0_2_0 -->
<g id="node57" class="node">
<title>choice_EOS325_0_2_0</title>
<path fill="#fff7ee" stroke="#b7793f" stroke-width="1.1" d="M518,-463.92C518,-463.92 488,-463.92 488,-463.92 482,-463.92 476,-457.92 476,-451.92 476,-451.92 476,-439.92 476,-439.92 476,-433.92 482,-427.92 488,-427.92 488,-427.92 518,-427.92 518,-427.92 524,-427.92 530,-433.92 530,-439.92 530,-439.92 530,-451.92 530,-451.92 530,-457.92 524,-463.92 518,-463.92"/>
<text text-anchor="middle" x="503" y="-443.72" font-family="Avenir Next" font-size="9.00">1 of</text>
</g>
<!-- course__EOS261&#45;&gt;choice_EOS325_0_2_0 -->
<g id="edge65" class="edge">
<title>course__EOS261&#45;&gt;choice_EOS325_0_2_0</title>
<path fill="none" stroke="#7a8389" d="M365.97,-1206.77C380.09,-1189 400.06,-1160.5 409,-1131.92 450.69,-998.59 377.07,-630.1 437,-503.92 444.2,-488.75 457.38,-475.84 470,-466.07"/>
<polygon fill="#7a8389" stroke="#7a8389" points="471.57,-467.95 475.73,-461.8 468.65,-464.01 471.57,-467.95"/>
</g>
<!-- course__MATH204&#45;&gt;choice_EOS325_0_0 -->
<g id="edge62" class="edge">
<title>course__MATH204&#45;&gt;choice_EOS325_0_0</title>
<path fill="none" stroke="#7a8389" d="M471.12,-1252.5C453.59,-1256.32 433.36,-1264.19 423,-1280.42 405.07,-1308.52 405.07,-1552.32 423,-1580.42 433.01,-1596.11 451.76,-1604.91 468.59,-1609.83"/>
<polygon fill="#7a8389" stroke="#7a8389" points="468.26,-1612.27 475.66,-1611.7 469.52,-1607.54 468.26,-1612.27"/>
</g>
<!-- choice_EOS431_0_0 -->
<g id="node60" class="node">
<title>choice_EOS431_0_0</title>
<path fill="#fff7ee" stroke="#b7793f" stroke-width="1.1" d="M231,-697.92C231,-697.92 201,-697.92 201,-697.92 195,-697.92 189,-691.92 189,-685.92 189,-685.92 189,-673.92 189,-673.92 189,-667.92 195,-661.92 201,-661.92 201,-661.92 231,-661.92 231,-661.92 237,-661.92 243,-667.92 243,-673.92 243,-673.92 243,-685.92 243,-685.92 243,-691.92 237,-697.92 231,-697.92"/>
<text text-anchor="middle" x="216" y="-677.72" font-family="Avenir Next" font-size="9.00">1 of</text>
</g>
<!-- course__MATH204&#45;&gt;choice_EOS431_0_0 -->
<g id="edge82" class="edge">
<title>course__MATH204&#45;&gt;choice_EOS431_0_0</title>
<path fill="none" stroke="#7a8389" d="M474.53,-1230.82C460.73,-1220.11 445.22,-1205.26 437,-1187.92 397.97,-1105.6 468.54,-847.87 409,-778.92 369.46,-733.13 327.81,-781.16 276,-749.92 257.38,-738.69 241.8,-719.46 231.34,-704"/>
<polygon fill="#7a8389" stroke="#7a8389" points="233.34,-702.58 227.45,-698.07 229.24,-705.27 233.34,-702.58"/>
</g>
<!-- course__BIOL355 -->
<g id="node30" class="node">
<title>course__BIOL355</title>
<g id="a_node30"><a xlink:href="../../../courses/BIOL355.html" xlink:title="BIOL355: Evolution" target="_top">
<path fill="#ead9b8" stroke="#8f6a3b" stroke-width="1.3" d="M519.5,-1039.92C519.5,-1039.92 486.5,-1039.92 486.5,-1039.92 480.5,-1039.92 474.5,-1033.92 474.5,-1027.92 474.5,-1027.92 474.5,-1015.92 474.5,-1015.92 474.5,-1009.92 480.5,-1003.92 486.5,-1003.92 486.5,-1003.92 519.5,-1003.92 519.5,-1003.92 525.5,-1003.92 531.5,-1009.92 531.5,-1015.92 531.5,-1015.92 531.5,-1027.92 531.5,-1027.92 531.5,-1033.92 525.5,-1039.92 519.5,-1039.92"/>
<text text-anchor="middle" x="503" y="-1019.42" font-family="Avenir Next" font-size="10.00" fill="#3f3120">BIOL355</text>
</a>
</g>
</g>
<!-- course__BIOL230&#45;&gt;course__BIOL355 -->
<g id="edge14" class="edge">
<title>course__BIOL230&#45;&gt;course__BIOL355</title>
<path fill="none" stroke="#5d6972" stroke-width="1.2" d="M474.31,-1393.4C456.1,-1390.11 433.96,-1382.58 423,-1365.42 404.35,-1336.2 404.35,-1082.64 423,-1053.42 432.63,-1038.34 450.78,-1030.47 467.36,-1026.37"/>
<polygon fill="#5d6972" stroke="#5d6972" stroke-width="1.2" points="468.03,-1028.73 474.34,-1024.84 466.98,-1023.95 468.03,-1028.73"/>
</g>
<!-- course__BIOL230&#45;&gt;course__BIOL370 -->
<g id="edge16" class="edge">
<title>course__BIOL230&#45;&gt;course__BIOL370</title>
<path fill="none" stroke="#5d6972" stroke-width="1.2" d="M531.72,-1388.54C540.41,-1384.9 549.24,-1379.58 555,-1371.92 626.13,-1277.3 540.7,-1213.04 597,-1108.92 597.16,-1108.62 597.33,-1108.32 597.5,-1108.03"/>
<polygon fill="#5d6972" stroke="#5d6972" stroke-width="1.2" points="599.63,-1109.25 601.68,-1102.12 595.64,-1106.42 599.63,-1109.25"/>
</g>
<!-- course__BIOL230&#45;&gt;choice_BIOL330_0_2 -->
<g id="edge11" class="edge">
<title>course__BIOL230&#45;&gt;choice_BIOL330_0_2</title>
<path fill="none" stroke="#7a8389" d="M493.19,-1413.92C474.99,-1448.46 436.61,-1526.94 423,-1598.42 420.01,-1614.14 414.39,-1620.93 423,-1634.42 432.87,-1649.88 451.8,-1657.52 468.78,-1661.29"/>
<polygon fill="#7a8389" stroke="#7a8389" points="468.56,-1663.74 475.9,-1662.68 469.5,-1658.93 468.56,-1663.74"/>
</g>
<!-- course__EOS330&#45;&gt;choice_BIOL457_0_0 -->
<g id="edge19" class="edge">
<title>course__EOS330&#45;&gt;choice_BIOL457_0_0</title>
<path fill="none" stroke="#7a8389" d="M475.93,-926.54C457.44,-929.92 434.32,-937.68 423,-955.42 412.12,-972.46 412.12,-1666.37 423,-1683.42 432.87,-1698.88 451.8,-1706.52 468.78,-1710.29"/>
<polygon fill="#7a8389" stroke="#7a8389" points="468.56,-1712.74 475.9,-1711.68 469.5,-1707.93 468.56,-1712.74"/>
</g>
<!-- course__BIOL330 -->
<g id="node29" class="node">
<title>course__BIOL330</title>
<g id="a_node29"><a xlink:href="../../../courses/BIOL330.html" xlink:title="BIOL330: Study Design and Data Analysis" target="_top">
<path fill="#d7e9ef" stroke="#1f4f66" stroke-width="1.6" d="M642,-1021.92C642,-1021.92 609,-1021.92 609,-1021.92 603,-1021.92 597,-1015.92 597,-1009.92 597,-1009.92 597,-997.92 597,-997.92 597,-991.92 603,-985.92 609,-985.92 609,-985.92 642,-985.92 642,-985.92 648,-985.92 654,-991.92 654,-997.92 654,-997.92 654,-1009.92 654,-1009.92 654,-1015.92 648,-1021.92 642,-1021.92"/>
<text text-anchor="middle" x="625.5" y="-1001.42" font-family="Avenir Next" font-size="10.00" fill="#17232b">BIOL330</text>
</a>
</g>
</g>
<!-- course__STAT254&#45;&gt;course__BIOL330 -->
<g id="edge12" class="edge">
<title>course__STAT254&#45;&gt;course__BIOL330</title>
<path fill="none" stroke="#5d6972" stroke-width="1.2" d="M546.15,-983.76C560.48,-987.45 576.32,-991.52 589.98,-995.04"/>
<polygon fill="#5d6972" stroke="#5d6972" stroke-width="1.2" points="589.52,-997.45 596.91,-996.82 590.74,-992.7 589.52,-997.45"/>
</g>
<!-- course__STAT254&#45;&gt;course__BIOL370 -->
<g id="edge17" class="edge">
<title>course__STAT254&#45;&gt;course__BIOL370</title>
<path fill="none" stroke="#5d6972" stroke-width="1.2" d="M545.07,-991.02C548.55,-993.16 551.92,-995.46 555,-997.92 576.97,-1015.45 596.55,-1041.07 609.28,-1059.78"/>
<polygon fill="#5d6972" stroke="#5d6972" stroke-width="1.2" points="607.41,-1061.38 613.33,-1065.84 611.48,-1058.66 607.41,-1061.38"/>
</g>
<!-- choice_EOS401_0 -->
<g id="node59" class="node">
<title>choice_EOS401_0</title>
<path fill="#fff7ee" stroke="#b7793f" stroke-width="1.1" d="M640.5,-357.92C640.5,-357.92 610.5,-357.92 610.5,-357.92 604.5,-357.92 598.5,-351.92 598.5,-345.92 598.5,-345.92 598.5,-333.92 598.5,-333.92 598.5,-327.92 604.5,-321.92 610.5,-321.92 610.5,-321.92 640.5,-321.92 640.5,-321.92 646.5,-321.92 652.5,-327.92 652.5,-333.92 652.5,-333.92 652.5,-345.92 652.5,-345.92 652.5,-351.92 646.5,-357.92 640.5,-357.92"/>
<text text-anchor="middle" x="625.5" y="-337.72" font-family="Avenir Next" font-size="9.00">3 of</text>
</g>
<!-- course__EOS311&#45;&gt;choice_EOS401_0 -->
<g id="edge76" class="edge">
<title>course__EOS311&#45;&gt;choice_EOS401_0</title>
<path fill="none" stroke="#7a8389" d="M549.88,-856.58C551.77,-854.85 553.49,-852.97 555,-850.92 584.14,-811.21 614.53,-462.31 622.49,-365.01"/>
<polygon fill="#7a8389" stroke="#7a8389" points="624.94,-365.11 623.07,-357.93 620.06,-364.71 624.94,-365.11"/>
</g>
<!-- course__BIOL457 -->
<g id="node25" class="node">
<title>course__BIOL457</title>
<g id="a_node25"><a xlink:href="../../../courses/BIOL457.html" xlink:title="BIOL457: Paleoecology and Environmental Change" target="_top">
<path fill="#ead9b8" stroke="#8f6a3b" stroke-width="1.3" d="M519.5,-1088.92C519.5,-1088.92 486.5,-1088.92 486.5,-1088.92 480.5,-1088.92 474.5,-1082.92 474.5,-1076.92 474.5,-1076.92 474.5,-1064.92 474.5,-1064.92 474.5,-1058.92 480.5,-1052.92 486.5,-1052.92 486.5,-1052.92 519.5,-1052.92 519.5,-1052.92 525.5,-1052.92 531.5,-1058.92 531.5,-1064.92 531.5,-1064.92 531.5,-1076.92 531.5,-1076.92 531.5,-1082.92 525.5,-1088.92 519.5,-1088.92"/>
<text text-anchor="middle" x="503" y="-1068.42" font-family="Avenir Next" font-size="10.00" fill="#3f3120">BIOL457</text>
</a>
</g>
</g>
<!-- course__EOS325&#45;&gt;choice_EOS431_0_0 -->
<g id="edge81" class="edge">
<title>course__EOS325&#45;&gt;choice_EOS431_0_0</title>
<path fill="none" stroke="#7a8389" d="M475.8,-818.46C463.59,-814.44 449.1,-808.86 437,-801.92 423.03,-793.91 422.45,-787.77 409,-778.92 355.83,-743.94 288.8,-711.84 249.63,-694.17"/>
<polygon fill="#7a8389" stroke="#7a8389" points="250.51,-691.87 243.12,-691.24 248.51,-696.35 250.51,-691.87"/>
</g>
<!-- choice_EOS460_0_0 -->
<g id="node61" class="node">
<title>choice_EOS460_0_0</title>
<path fill="#fff7ee" stroke="#b7793f" stroke-width="1.1" d="M518,-1807.92C518,-1807.92 488,-1807.92 488,-1807.92 482,-1807.92 476,-1801.92 476,-1795.92 476,-1795.92 476,-1783.92 476,-1783.92 476,-1777.92 482,-1771.92 488,-1771.92 488,-1771.92 518,-1771.92 518,-1771.92 524,-1771.92 530,-1777.92 530,-1783.92 530,-1783.92 530,-1795.92 530,-1795.92 530,-1801.92 524,-1807.92 518,-1807.92"/>
<text text-anchor="middle" x="503" y="-1787.72" font-family="Avenir Next" font-size="9.00">1 of</text>
</g>
<!-- course__EOS325&#45;&gt;choice_EOS460_0_0 -->
<g id="edge85" class="edge">
<title>course__EOS325&#45;&gt;choice_EOS460_0_0</title>
<path fill="none" stroke="#7a8389" d="M475.93,-828.54C457.44,-831.92 434.32,-839.68 423,-857.42 409.58,-878.45 409.58,-1734.39 423,-1755.42 432.97,-1771.04 451.71,-1779.61 468.56,-1784.3"/>
<polygon fill="#7a8389" stroke="#7a8389" points="468.24,-1786.75 475.63,-1786.08 469.44,-1781.99 468.24,-1786.75"/>
</g>
<!-- course__EOS335&#45;&gt;course__EOS460 -->
<g id="edge89" class="edge">
<title>course__EOS335&#45;&gt;course__EOS460</title>
<path fill="none" stroke="#5d6972" stroke-width="1.2" d="M530.15,-1122.74C548.07,-1124.67 571.99,-1127.25 591.27,-1129.33"/>
<polygon fill="#5d6972" stroke="#5d6972" stroke-width="1.2" points="591.18,-1131.79 598.4,-1130.1 591.71,-1126.92 591.18,-1131.79"/>
</g>
<!-- course__EOS401 -->
<g id="node33" class="node">
<title>course__EOS401</title>
<g id="a_node33"><a xlink:href="../../../courses/EOS401.html" xlink:title="EOS401: Oceanographic Field School" target="_top">
<path fill="#dbe8d2" stroke="#567447" stroke-width="1.3" d="M518,-745.92C518,-745.92 488,-745.92 488,-745.92 482,-745.92 476,-739.92 476,-733.92 476,-733.92 476,-721.92 476,-721.92 476,-715.92 482,-709.92 488,-709.92 488,-709.92 518,-709.92 518,-709.92 524,-709.92 530,-715.92 530,-721.92 530,-721.92 530,-733.92 530,-733.92 530,-739.92 524,-745.92 518,-745.92"/>
<text text-anchor="middle" x="503" y="-725.42" font-family="Avenir Next" font-size="10.00" fill="#24311e">EOS401</text>
</a>
</g>
</g>
<!-- course__CHEM091 -->
<g id="node34" class="node">
<title>course__CHEM091</title>
<g id="a_node34"><a xlink:href="../../../courses/CHEM091.html" xlink:title="CHEM091: Introduction to Chemistry" target="_top">
<path fill="#f9f9f9" stroke="#363636" d="M368,-1124.92C368,-1124.92 331,-1124.92 331,-1124.92 325,-1124.92 319,-1118.92 319,-1112.92 319,-1112.92 319,-1100.92 319,-1100.92 319,-1094.92 325,-1088.92 331,-1088.92 331,-1088.92 368,-1088.92 368,-1088.92 374,-1088.92 380,-1094.92 380,-1100.92 380,-1100.92 380,-1112.92 380,-1112.92 380,-1118.92 374,-1124.92 368,-1124.92"/>
<text text-anchor="middle" x="349.5" y="-1104.72" font-family="Avenir Next" font-size="9.00" fill="#363636">CHEM091</text>
</a>
</g>
</g>
<!-- course__CHEM091&#45;&gt;course__CHEM102 -->
<g id="edge21" class="edge">
<title>course__CHEM091&#45;&gt;course__CHEM102</title>
<path fill="none" stroke="#5d6972" stroke-width="1.2" d="M318.9,-1101.41C304.18,-1097.26 287.19,-1090.1 276,-1077.92 247.09,-1046.44 271.91,-1021.34 248,-985.92 247.7,-985.47 247.38,-985.02 247.06,-984.58"/>
<polygon fill="#5d6972" stroke="#5d6972" stroke-width="1.2" points="248.77,-982.81 242.36,-979.07 245.04,-985.99 248.77,-982.81"/>
</g>
<!-- course__EOS130 -->
<g id="node35" class="node">
<title>course__EOS130</title>
<g id="a_node35"><a xlink:href="../../../courses/EOS130.html" xlink:title="Equivalent or cross&#45;listed: EOS130: Climate Change | GEOG130: Climate Change" target="_top">
<path fill="#f9f9f9" stroke="#363636" d="M391,-61.92C391,-61.92 308,-61.92 308,-61.92 302,-61.92 296,-55.92 296,-49.92 296,-49.92 296,-37.92 296,-37.92 296,-31.92 302,-25.92 308,-25.92 308,-25.92 391,-25.92 391,-25.92 397,-25.92 403,-31.92 403,-37.92 403,-37.92 403,-49.92 403,-49.92 403,-55.92 397,-61.92 391,-61.92"/>
<text text-anchor="middle" x="349.5" y="-41.72" font-family="Avenir Next" font-size="9.00" fill="#363636">EOS130 / GEOG130</text>
</a>
</g>
</g>
<!-- course__EOS130&#45;&gt;choice_EOS230_0_1 -->
<g id="edge34" class="edge">
<title>course__EOS130&#45;&gt;choice_EOS230_0_1</title>
<path fill="none" stroke="#7a8389" d="M403.06,-60.92C424.98,-68.01 449.77,-76.03 469.05,-82.26"/>
<polygon fill="#7a8389" stroke="#7a8389" points="468.48,-84.65 475.89,-84.47 469.99,-79.99 468.48,-84.65"/>
</g>
<!-- course__GEOG103 -->
<g id="node36" class="node">
<title>course__GEOG103</title>
<g id="a_node36"><a xlink:href="../../../courses/GEOG103.html" xlink:title="GEOG103: Our Natural Earth" target="_top">
<path fill="#f9f9f9" stroke="#363636" d="M368,-110.92C368,-110.92 331,-110.92 331,-110.92 325,-110.92 319,-104.92 319,-98.92 319,-98.92 319,-86.92 319,-86.92 319,-80.92 325,-74.92 331,-74.92 331,-74.92 368,-74.92 368,-74.92 374,-74.92 380,-80.92 380,-86.92 380,-86.92 380,-98.92 380,-98.92 380,-104.92 374,-110.92 368,-110.92"/>
<text text-anchor="middle" x="349.5" y="-90.72" font-family="Avenir Next" font-size="9.00" fill="#363636">GEOG103</text>
</a>
</g>
</g>
<!-- course__GEOG103&#45;&gt;choice_EOS230_0_1 -->
<g id="edge35" class="edge">
<title>course__GEOG103&#45;&gt;choice_EOS230_0_1</title>
<path fill="none" stroke="#7a8389" d="M380.07,-92.92C405.42,-92.92 441.91,-92.92 468.37,-92.92"/>
<polygon fill="#7a8389" stroke="#7a8389" points="468.54,-95.37 475.54,-92.92 468.54,-90.47 468.54,-95.37"/>
</g>
<!-- course__MATH151 -->
<g id="node37" class="node">
<title>course__MATH151</title>
<g id="a_node37"><a xlink:href="../../../courses/MATH151.html" xlink:title="MATH151: Finite Mathematics" target="_top">
<path fill="#f9f9f9" stroke="#363636" d="M367,-583.92C367,-583.92 332,-583.92 332,-583.92 326,-583.92 320,-577.92 320,-571.92 320,-571.92 320,-559.92 320,-559.92 320,-553.92 326,-547.92 332,-547.92 332,-547.92 367,-547.92 367,-547.92 373,-547.92 379,-553.92 379,-559.92 379,-559.92 379,-571.92 379,-571.92 379,-577.92 373,-583.92 367,-583.92"/>
<text text-anchor="middle" x="349.5" y="-563.72" font-family="Avenir Next" font-size="9.00" fill="#363636">MATH151</text>
</a>
</g>
</g>
<!-- course__MATH151&#45;&gt;choice_EOS261_0_4 -->
<g id="edge39" class="edge">
<title>course__MATH151&#45;&gt;choice_EOS261_0_4</title>
<path fill="none" stroke="#7a8389" d="M379.35,-573.16C404.89,-579.56 442.14,-588.9 468.88,-595.61"/>
<polygon fill="#7a8389" stroke="#7a8389" points="468.4,-598.02 475.79,-597.34 469.59,-593.26 468.4,-598.02"/>
</g>
<!-- course__MATH151&#45;&gt;choice_EOS311_0_2 -->
<g id="edge48" class="edge">
<title>course__MATH151&#45;&gt;choice_EOS311_0_2</title>
<path fill="none" stroke="#7a8389" d="M379.35,-558.68C404.89,-552.28 442.14,-542.93 468.88,-536.22"/>
<polygon fill="#7a8389" stroke="#7a8389" points="469.59,-538.57 475.79,-534.49 468.4,-533.82 469.59,-538.57"/>
</g>
<!-- course__CSC110&#45;&gt;course__MATH248 -->
<g id="edge94" class="edge">
<title>course__CSC110&#45;&gt;course__MATH248</title>
<path fill="none" stroke="#5d6972" stroke-width="1.2" d="M307.2,-431.24C289.92,-440.67 271.73,-454.21 262,-472.42 247.5,-499.56 245.44,-1554.47 262,-1580.42 268.14,-1590.03 277.4,-1597.04 287.63,-1602.15"/>
<polygon fill="#5d6972" stroke="#5d6972" stroke-width="1.2" points="286.73,-1604.43 294.11,-1605.1 288.75,-1599.97 286.73,-1604.43"/>
</g>
<!-- course__CSC110&#45;&gt;choice_EOS325_0_2_0 -->
<g id="edge67" class="edge">
<title>course__CSC110&#45;&gt;choice_EOS325_0_2_0</title>
<path fill="none" stroke="#7a8389" d="M391.9,-422.66C416.09,-427.77 446.21,-434.13 468.83,-438.91"/>
<polygon fill="#7a8389" stroke="#7a8389" points="468.54,-441.35 475.89,-440.4 469.55,-436.56 468.54,-441.35"/>
</g>
<!-- course__EOS202&#45;&gt;course__EOS300 -->
<g id="edge45" class="edge">
<title>course__EOS202&#45;&gt;course__EOS300</title>
<path fill="none" stroke="#5d6972" stroke-width="1.2" d="M376.67,-649.34C387.96,-653.71 400.49,-660.31 409,-669.92 434.81,-699.06 409.86,-725 437,-752.92 445.54,-761.7 457.58,-767.3 468.97,-770.85"/>
<polygon fill="#5d6972" stroke="#5d6972" stroke-width="1.2" points="468.55,-773.27 475.95,-772.81 469.87,-768.56 468.55,-773.27"/>
</g>
<!-- course__EOS230 -->
<g id="node40" class="node">
<title>course__EOS230</title>
<g id="a_node40"><a xlink:href="../../../courses/EOS230.html" xlink:title="Equivalent or cross&#45;listed: EOS230: Introduction to Environmental Data Analysis | GEOG230: Introduction to Environmental Data Analysis" target="_top">
<path fill="#f9f9f9" stroke="#363636" d="M391,-333.92C391,-333.92 308,-333.92 308,-333.92 302,-333.92 296,-327.92 296,-321.92 296,-321.92 296,-309.92 296,-309.92 296,-303.92 302,-297.92 308,-297.92 308,-297.92 391,-297.92 391,-297.92 397,-297.92 403,-303.92 403,-309.92 403,-309.92 403,-321.92 403,-321.92 403,-327.92 397,-333.92 391,-333.92"/>
<text text-anchor="middle" x="349.5" y="-313.72" font-family="Avenir Next" font-size="9.00" fill="#363636">EOS230 / GEOG230</text>
</a>
</g>
</g>
<!-- course__EOS230&#45;&gt;choice_EOS325_0_2_0 -->
<g id="edge64" class="edge">
<title>course__EOS230&#45;&gt;choice_EOS325_0_2_0</title>
<path fill="none" stroke="#7a8389" d="M397.81,-333.92C401.72,-336.07 405.51,-338.4 409,-340.92 425.69,-352.95 460.86,-394.85 482.85,-421.94"/>
<polygon fill="#7a8389" stroke="#7a8389" points="481.03,-423.58 487.33,-427.48 484.84,-420.5 481.03,-423.58"/>
</g>
<!-- course__EOS313&#45;&gt;choice_EOS401_0 -->
<g id="edge78" class="edge">
<title>course__EOS313&#45;&gt;choice_EOS401_0</title>
<path fill="none" stroke="#7a8389" d="M376.56,-167.24C418.39,-165.92 501.24,-169.05 555,-208.92 590.42,-235.18 609.55,-284.94 618.34,-315"/>
<polygon fill="#7a8389" stroke="#7a8389" points="616,-315.75 620.26,-321.83 620.72,-314.42 616,-315.75"/>
</g>
<!-- course__EOS210&#45;&gt;choice_EOS325_0_2_0 -->
<g id="edge63" class="edge">
<title>course__EOS210&#45;&gt;choice_EOS325_0_2_0</title>
<path fill="none" stroke="#7a8389" d="M395.54,-476.84C419.16,-469.98 447.56,-461.73 469.09,-455.48"/>
<polygon fill="#7a8389" stroke="#7a8389" points="469.78,-457.83 475.82,-453.52 468.41,-453.12 469.78,-457.83"/>
</g>
<!-- course__EOS314&#45;&gt;choice_EOS312_0_0 -->
<g id="edge53" class="edge">
<title>course__EOS314&#45;&gt;choice_EOS312_0_0</title>
<path fill="none" stroke="#7a8389" d="M376.53,-356.53C387.04,-352.57 399.01,-347.3 409,-340.92 423.31,-331.77 424.09,-325.95 437,-314.92 448.24,-305.32 460.96,-295.19 472.15,-286.5"/>
<polygon fill="#7a8389" stroke="#7a8389" points="473.8,-288.32 477.85,-282.1 470.81,-284.44 473.8,-288.32"/>
</g>
<!-- course__EOS314&#45;&gt;choice_EOS325_0_2_0 -->
<g id="edge66" class="edge">
<title>course__EOS314&#45;&gt;choice_EOS325_0_2_0</title>
<path fill="none" stroke="#7a8389" d="M376.77,-375.24C386.98,-379.48 398.68,-384.64 409,-389.92 429.62,-400.47 451.88,-413.8 469.45,-424.8"/>
<polygon fill="#7a8389" stroke="#7a8389" points="468.47,-427.08 475.7,-428.74 471.08,-422.94 468.47,-427.08"/>
</g>
<!-- choice_EOS401_0_3 -->
<g id="node58" class="node">
<title>choice_EOS401_0_3</title>
<path fill="#fff7ee" stroke="#b7793f" stroke-width="1.1" d="M518,-357.92C518,-357.92 488,-357.92 488,-357.92 482,-357.92 476,-351.92 476,-345.92 476,-345.92 476,-333.92 476,-333.92 476,-327.92 482,-321.92 488,-321.92 488,-321.92 518,-321.92 518,-321.92 524,-321.92 530,-327.92 530,-333.92 530,-333.92 530,-345.92 530,-345.92 530,-351.92 524,-357.92 518,-357.92"/>
<text text-anchor="middle" x="503" y="-337.72" font-family="Avenir Next" font-size="9.00">1 of</text>
</g>
<!-- course__EOS314&#45;&gt;choice_EOS401_0_3 -->
<g id="edge74" class="edge">
<title>course__EOS314&#45;&gt;choice_EOS401_0_3</title>
<path fill="none" stroke="#7a8389" d="M376.54,-360.62C402.02,-356.42 440.92,-350 468.64,-345.42"/>
<polygon fill="#7a8389" stroke="#7a8389" points="469.28,-347.8 475.79,-344.24 468.48,-342.97 469.28,-347.8"/>
</g>
<!-- course__MATH248&#45;&gt;choice_EOS460_0_0 -->
<g id="edge86" class="edge">
<title>course__MATH248&#45;&gt;choice_EOS460_0_0</title>
<path fill="none" stroke="#7a8389" d="M356.95,-1634.09C368.54,-1664.4 395.63,-1725.53 437,-1761.92 446.17,-1769.98 458.01,-1776 469.08,-1780.36"/>
<polygon fill="#7a8389" stroke="#7a8389" points="468.42,-1782.72 475.83,-1782.85 470.11,-1778.13 468.42,-1782.72"/>
</g>
<!-- course__EOS431&#45;&gt;choice_EOS312_0_0 -->
<g id="edge54" class="edge">
<title>course__EOS431&#45;&gt;choice_EOS312_0_0</title>
<path fill="none" stroke="#7a8389" d="M401.79,-265.9C423.87,-265.47 449.04,-264.97 468.64,-264.58"/>
<polygon fill="#7a8389" stroke="#7a8389" points="468.91,-267.02 475.86,-264.44 468.81,-262.13 468.91,-267.02"/>
</g>
<!-- course__EOS431&#45;&gt;choice_EOS401_0_3 -->
<g id="edge75" class="edge">
<title>course__EOS431&#45;&gt;choice_EOS401_0_3</title>
<path fill="none" stroke="#7a8389" d="M395.72,-284.96C400.23,-286.92 404.72,-288.92 409,-290.92 429.47,-300.48 451.89,-312.26 469.59,-321.86"/>
<polygon fill="#7a8389" stroke="#7a8389" points="468.56,-324.1 475.88,-325.3 470.91,-319.79 468.56,-324.1"/>
</g>
<!-- course__EOS312&#45;&gt;choice_EOS401_0 -->
<g id="edge77" class="edge">
<title>course__EOS312&#45;&gt;choice_EOS401_0</title>
<path fill="none" stroke="#7a8389" d="M376.53,-214.02C417.58,-209.23 498.51,-205.43 555,-238.92 584.16,-256.21 603.94,-291.08 614.72,-314.96"/>
<polygon fill="#7a8389" stroke="#7a8389" points="612.61,-316.25 617.65,-321.69 617.1,-314.29 612.61,-316.25"/>
</g>
<!-- year_band__year&#45;1 -->
<!-- year_band__year&#45;2 -->
<!-- year_band__year&#45;1&#45;&gt;year_band__year&#45;2 -->
<!-- year_band__years&#45;3&#45;4 -->
<!-- year_band__year&#45;2&#45;&gt;year_band__years&#45;3&#45;4 -->
<!-- choice_BIOL330_0_2&#45;&gt;course__BIOL330 -->
<g id="edge13" class="edge">
<title>choice_BIOL330_0_2&#45;&gt;course__BIOL330</title>
<path fill="none" stroke="#5d6972" stroke-width="1.2" d="M530.23,-1658.56C539.56,-1654.95 549.19,-1649.39 555,-1640.92 628.26,-1534.19 563.18,-1184.87 597,-1059.92 599.92,-1049.13 604.95,-1037.94 609.92,-1028.43"/>
<polygon fill="#5d6972" stroke="#5d6972" stroke-width="1.2" points="612.15,-1029.45 613.33,-1022.13 607.84,-1027.12 612.15,-1029.45"/>
</g>
<!-- choice_BIOL457_0_0&#45;&gt;course__BIOL457 -->
<g id="edge20" class="edge">
<title>choice_BIOL457_0_0&#45;&gt;course__BIOL457</title>
<path fill="none" stroke="#5d6972" stroke-width="1.2" d="M475.9,-1711.68C457.4,-1708.54 434.28,-1701.09 423,-1683.42 405.63,-1656.21 405.63,-1129.63 423,-1102.42 432.63,-1087.34 450.78,-1079.47 467.36,-1075.37"/>
<polygon fill="#5d6972" stroke="#5d6972" stroke-width="1.2" points="468.03,-1077.73 474.34,-1073.84 466.98,-1072.95 468.03,-1077.73"/>
</g>
<!-- choice_EOS230_0_1&#45;&gt;course__EOS261 -->
<g id="edge40" class="edge">
<title>choice_EOS230_0_1&#45;&gt;course__EOS261</title>
<path fill="none" stroke="#5d6972" stroke-width="1.2" d="M491.16,-111.01C475.75,-137.83 448.15,-190.24 437,-238.92 392.68,-432.45 466.99,-942.04 409,-1131.92 401.14,-1157.65 384.18,-1183.26 370.54,-1201.07"/>
<polygon fill="#5d6972" stroke="#5d6972" stroke-width="1.2" points="368.44,-1199.78 366.06,-1206.8 372.3,-1202.8 368.44,-1199.78"/>
</g>
<!-- choice_EOS230_0_1&#45;&gt;course__EOS230 -->
<g id="edge36" class="edge">
<title>choice_EOS230_0_1&#45;&gt;course__EOS230</title>
<path fill="none" stroke="#5d6972" stroke-width="1.2" d="M493.86,-111.15C472.51,-158.85 416.07,-284.09 409,-290.92 408.1,-291.79 407.16,-292.63 406.2,-293.45"/>
<polygon fill="#5d6972" stroke="#5d6972" stroke-width="1.2" points="404.49,-291.66 400.36,-297.82 407.43,-295.58 404.49,-291.66"/>
</g>
<!-- choice_EOS261_0_4&#45;&gt;course__EOS261 -->
<g id="edge43" class="edge">
<title>choice_EOS261_0_4&#45;&gt;course__EOS261</title>
<path fill="none" stroke="#5d6972" stroke-width="1.2" d="M483.74,-622.18C468.23,-638.98 446.96,-665.39 437,-692.92 370.47,-876.76 469.12,-945.89 409,-1131.92 400.73,-1157.52 383.81,-1183.14 370.29,-1200.99"/>
<polygon fill="#5d6972" stroke="#5d6972" stroke-width="1.2" points="368.19,-1199.7 365.85,-1206.74 372.07,-1202.69 368.19,-1199.7"/>
</g>
<!-- choice_EOS311_0_2&#45;&gt;course__EOS311 -->
<g id="edge50" class="edge">
<title>choice_EOS311_0_2&#45;&gt;course__EOS311</title>
<path fill="none" stroke="#5d6972" stroke-width="1.2" d="M475.72,-539.63C457.13,-549.24 433.98,-564.79 423,-586.42 410.02,-611.98 407.58,-820.25 423,-844.42 428.1,-852.41 435.62,-858.31 444.04,-862.66"/>
<polygon fill="#5d6972" stroke="#5d6972" stroke-width="1.2" points="443.24,-865 450.63,-865.71 445.3,-860.55 443.24,-865"/>
</g>
<!-- choice_EOS311_0_2&#45;&gt;course__EOS314 -->
<g id="edge59" class="edge">
<title>choice_EOS311_0_2&#45;&gt;course__EOS314</title>
<path fill="none" stroke="#5d6972" stroke-width="1.2" d="M475.94,-510.16C462.71,-500 447.3,-486.24 437,-470.92 415.75,-439.31 434.96,-417.79 409,-389.92 402.09,-382.5 392.63,-377.19 383.32,-373.43"/>
<polygon fill="#5d6972" stroke="#5d6972" stroke-width="1.2" points="384.02,-371.08 376.61,-370.96 382.33,-375.68 384.02,-371.08"/>
</g>
<!-- choice_EOS312_0_0&#45;&gt;course__EOS312 -->
<g id="edge55" class="edge">
<title>choice_EOS312_0_0&#45;&gt;course__EOS312</title>
<path fill="none" stroke="#5d6972" stroke-width="1.2" d="M475.79,-255.96C450.15,-248.17 411.02,-236.29 383.32,-227.88"/>
<polygon fill="#5d6972" stroke="#5d6972" stroke-width="1.2" points="383.95,-225.52 376.54,-225.83 382.53,-230.2 383.95,-225.52"/>
</g>
<!-- choice_EOS325_0_0&#45;&gt;course__EOS325 -->
<g id="edge68" class="edge">
<title>choice_EOS325_0_0&#45;&gt;course__EOS325</title>
<path fill="none" stroke="#5d6972" stroke-width="1.2" d="M475.66,-1611.7C457.3,-1607.29 434.44,-1598.35 423,-1580.42 412.2,-1563.49 412.2,-874.35 423,-857.42 432.91,-841.89 451.85,-834.02 468.81,-830.02"/>
<polygon fill="#5d6972" stroke="#5d6972" stroke-width="1.2" points="469.58,-832.37 475.93,-828.54 468.57,-827.57 469.58,-832.37"/>
</g>
<!-- choice_EOS325_0_2_0&#45;&gt;course__EOS325 -->
<g id="edge70" class="edge">
<title>choice_EOS325_0_2_0&#45;&gt;course__EOS325</title>
<path fill="none" stroke="#5d6972" stroke-width="1.2" d="M475.64,-459.53C457.02,-470.46 433.85,-487.72 423,-510.42 409.34,-538.99 405.96,-768.73 423,-795.42 432.87,-810.88 451.8,-818.52 468.78,-822.29"/>
<polygon fill="#5d6972" stroke="#5d6972" stroke-width="1.2" points="468.56,-824.74 475.9,-823.68 469.5,-819.93 468.56,-824.74"/>
</g>
<!-- choice_EOS401_0_3&#45;&gt;choice_EOS401_0 -->
<g id="edge79" class="edge">
<title>choice_EOS401_0_3&#45;&gt;choice_EOS401_0</title>
<path fill="none" stroke="#7a8389" d="M530.15,-339.92C548.07,-339.92 571.99,-339.92 591.27,-339.92"/>
<polygon fill="#7a8389" stroke="#7a8389" points="591.4,-342.37 598.4,-339.92 591.4,-337.47 591.4,-342.37"/>
</g>
<!-- choice_EOS401_0&#45;&gt;course__EOS401 -->
<g id="edge80" class="edge">
<title>choice_EOS401_0&#45;&gt;course__EOS401</title>
<path fill="none" stroke="#5d6972" stroke-width="1.2" d="M621.71,-357.95C614.25,-404.09 591.86,-529.76 555,-628.92 545.14,-655.46 529.87,-684.03 518.61,-703.63"/>
<polygon fill="#5d6972" stroke="#5d6972" stroke-width="1.2" points="516.35,-702.63 514.95,-709.91 520.59,-705.09 516.35,-702.63"/>
</g>
<!-- choice_EOS431_0_0&#45;&gt;course__EOS431 -->
<g id="edge83" class="edge">
<title>choice_EOS431_0_0&#45;&gt;course__EOS431</title>
<path fill="none" stroke="#5d6972" stroke-width="1.2" d="M222.44,-661.76C229.38,-637.91 241.3,-594.65 248,-556.92 258.4,-498.4 238.72,-337.21 276,-290.92 280.09,-285.84 285.29,-281.82 291.02,-278.65"/>
<polygon fill="#5d6972" stroke="#5d6972" stroke-width="1.2" points="292.19,-280.81 297.41,-275.53 290.04,-276.4 292.19,-280.81"/>
</g>
<!-- choice_EOS460_0_0&#45;&gt;course__EOS460 -->
<g id="edge87" class="edge">
<title>choice_EOS460_0_0&#45;&gt;course__EOS460</title>
<path fill="none" stroke="#5d6972" stroke-width="1.2" d="M530.15,-1781.39C539.47,-1777.03 549.1,-1770.73 555,-1761.92 622.69,-1660.68 625.26,-1263.04 624.74,-1158.31"/>
<polygon fill="#5d6972" stroke="#5d6972" stroke-width="1.2" points="627.19,-1157.99 624.69,-1151.01 622.29,-1158.02 627.19,-1157.99"/>
</g>
</g>
</svg>
