<?xml version="1.0" encoding="UTF-8" standalone="no"?>
<!DOCTYPE svg PUBLIC "-//W3C//DTD SVG 1.1//EN"
 "http://www.w3.org/Graphics/SVG/1.1/DTD/svg11.dtd">
<!-- Generated by graphviz version 2.43.0 (0)
 -->
<!-- Title: BSC&#45;BESC Pages: 1 -->
<svg width="1522pt" height="909pt"
 viewBox="0.00 0.00 1522.04 909.46" xmlns="http://www.w3.org/2000/svg" xmlns:xlink="http://www.w3.org/1999/xlink">
<g id="graph0" class="graph" transform="scale(1 1) rotate(0) translate(11.52 897.94)">
<title>BSC&#45;BESC</title>
<!-- course__CHEM101 -->
<g id="node1" class="node">
<title>course__CHEM101</title>
<g id="a_node1"><a xlink:href="../../../courses/CHEM101.html" xlink:title="Equivalent or cross&#45;listed: CHEM101: Fundamentals of Chemistry from Atoms to Materials | CHEM150: Engineering Chemistry" target="_top">
<path fill="#d7e9ef" stroke="#1f4f66" stroke-width="1.6" d="M108,-746.42C108,-746.42 12,-746.42 12,-746.42 6,-746.42 0,-740.42 0,-734.42 0,-734.42 0,-722.42 0,-722.42 0,-716.42 6,-710.42 12,-710.42 12,-710.42 108,-710.42 108,-710.42 114,-710.42 120,-716.42 120,-722.42 120,-722.42 120,-734.42 120,-734.42 120,-740.42 114,-746.42 108,-746.42"/>
<text text-anchor="middle" x="60" y="-725.92" font-family="Avenir Next" font-size="10.00" fill="#17232b">CHEM101 / CHEM150</text>
</a>
</g>
</g>
<!-- course__CHEM102 -->
<g id="node10" class="node">
<title>course__CHEM102</title>
<g id="a_node10"><a xlink:href="../../../courses/CHEM102.html" xlink:title="CHEM102: Chemical Reactivity Fundamentals with Environmental Applications" target="_top">
<path fill="#d7e9ef" stroke="#1f4f66" stroke-width="1.6" d="M331.5,-726.42C331.5,-726.42 291.5,-726.42 291.5,-726.42 285.5,-726.42 279.5,-720.42 279.5,-714.42 279.5,-714.42 279.5,-702.42 279.5,-702.42 279.5,-696.42 285.5,-690.42 291.5,-690.42 291.5,-690.42 331.5,-690.42 331.5,-690.42 337.5,-690.42 343.5,-696.42 343.5,-702.42 343.5,-702.42 343.5,-714.42 343.5,-714.42 343.5,-720.42 337.5,-726.42 331.5,-726.42"/>
<text text-anchor="middle" x="311.5" y="-705.92" font-family="Avenir Next" font-size="10.00" fill="#17232b">CHEM102</text>
</a>
</g>
</g>
<!-- course__CHEM101&#45;&gt;course__CHEM102 -->
<g id="edge20" class="edge">
<title>course__CHEM101&#45;&gt;course__CHEM102</title>
<path fill="none" stroke="#5d6972" stroke-width="1.2" d="M120.13,-723.68C167.16,-719.91 231.6,-714.74 272.13,-711.49"/>
<polygon fill="#5d6972" stroke="#5d6972" stroke-width="1.2" points="272.38,-713.93 279.17,-710.93 271.99,-709.04 272.38,-713.93"/>
</g>
<!-- course__CHEM231 -->
<g id="node11" class="node">
<title>course__CHEM231</title>
<g id="a_node11"><a xlink:href="../../../courses/CHEM231.html" xlink:title="CHEM231: Introduction to Organic Chemistry" target="_top">
<path fill="#d7e9ef" stroke="#1f4f66" stroke-width="1.6" d="M331.5,-238.42C331.5,-238.42 291.5,-238.42 291.5,-238.42 285.5,-238.42 279.5,-232.42 279.5,-226.42 279.5,-226.42 279.5,-214.42 279.5,-214.42 279.5,-208.42 285.5,-202.42 291.5,-202.42 291.5,-202.42 331.5,-202.42 331.5,-202.42 337.5,-202.42 343.5,-208.42 343.5,-214.42 343.5,-214.42 343.5,-226.42 343.5,-226.42 343.5,-232.42 337.5,-238.42 331.5,-238.42"/>
<text text-anchor="middle" x="311.5" y="-217.92" font-family="Avenir Next" font-size="10.00" fill="#17232b">CHEM231</text>
</a>
</g>
</g>
<!-- course__CHEM101&#45;&gt;course__CHEM231 -->
<g id="edge22" class="edge">
<title>course__CHEM101&#45;&gt;course__CHEM231</title>
<path fill="none" stroke="#5d6972" stroke-width="1.2" d="M113.65,-710.29C115.94,-708.51 118.08,-706.56 120,-704.42 165.38,-653.85 142.7,-622.57 162,-557.42 203.32,-417.9 162.08,-353.83 258,-244.42 262.08,-239.76 267.26,-235.95 272.75,-232.85"/>
<polygon fill="#5d6972" stroke="#5d6972" stroke-width="1.2" points="274.17,-234.88 279.31,-229.54 271.96,-230.51 274.17,-234.88"/>
</g>
<!-- course__EOS313 -->
<g id="node17" class="node">
<title>course__EOS313</title>
<g id="a_node17"><a xlink:href="../../../courses/EOS313.html" xlink:title="EOS313: Introductory Geological Oceanography" target="_top">
<path fill="#f9f9f9" stroke="#363636" d="M326.5,-835.42C326.5,-835.42 296.5,-835.42 296.5,-835.42 290.5,-835.42 284.5,-829.42 284.5,-823.42 284.5,-823.42 284.5,-811.42 284.5,-811.42 284.5,-805.42 290.5,-799.42 296.5,-799.42 296.5,-799.42 326.5,-799.42 326.5,-799.42 332.5,-799.42 338.5,-805.42 338.5,-811.42 338.5,-811.42 338.5,-823.42 338.5,-823.42 338.5,-829.42 332.5,-835.42 326.5,-835.42"/>
<text text-anchor="middle" x="311.5" y="-815.22" font-family="Avenir Next" font-size="9.00" fill="#363636">EOS313</text>
</a>
</g>
</g>
<!-- course__CHEM101&#45;&gt;course__EOS313 -->
<g id="edge56" class="edge">
<title>course__CHEM101&#45;&gt;course__EOS313</title>
<path fill="none" stroke="#5d6972" stroke-width="1.2" d="M111.49,-746.43C160.99,-764.08 235.02,-790.49 277.45,-805.63"/>
<polygon fill="#5d6972" stroke="#5d6972" stroke-width="1.2" points="276.81,-808 284.23,-808.04 278.46,-803.39 276.81,-808"/>
</g>
<!-- course__EOS110 -->
<g id="node2" class="node">
<title>course__EOS110</title>
<g id="a_node2"><a xlink:href="../../../courses/EOS110.html" xlink:title="Equivalent or cross&#45;listed: EOS110: Oceans and Atmosphere | EOS350: Understanding the Oceans" target="_top">
<path fill="#d7e9ef" stroke="#1f4f66" stroke-width="1.6" d="M98.5,-117.42C98.5,-117.42 21.5,-117.42 21.5,-117.42 15.5,-117.42 9.5,-111.42 9.5,-105.42 9.5,-105.42 9.5,-93.42 9.5,-93.42 9.5,-87.42 15.5,-81.42 21.5,-81.42 21.5,-81.42 98.5,-81.42 98.5,-81.42 104.5,-81.42 110.5,-87.42 110.5,-93.42 110.5,-93.42 110.5,-105.42 110.5,-105.42 110.5,-111.42 104.5,-117.42 98.5,-117.42"/>
<text text-anchor="middle" x="60" y="-96.92" font-family="Avenir Next" font-size="10.00" fill="#17232b">EOS110 / EOS350</text>
</a>
</g>
</g>
<!-- choice_EOS230_0_1 -->
<g id="node49" class="node">
<title>choice_EOS230_0_1</title>
<path fill="#fff7ee" stroke="#b7793f" stroke-width="1.1" d="M204,-287.42C204,-287.42 174,-287.42 174,-287.42 168,-287.42 162,-281.42 162,-275.42 162,-275.42 162,-263.42 162,-263.42 162,-257.42 168,-251.42 174,-251.42 174,-251.42 204,-251.42 204,-251.42 210,-251.42 216,-257.42 216,-263.42 216,-263.42 216,-275.42 216,-275.42 216,-281.42 210,-287.42 204,-287.42"/>
<text text-anchor="middle" x="189" y="-267.22" font-family="Avenir Next" font-size="9.00">1 of</text>
</g>
<!-- course__EOS110&#45;&gt;choice_EOS230_0_1 -->
<g id="edge31" class="edge">
<title>course__EOS110&#45;&gt;choice_EOS230_0_1</title>
<path fill="none" stroke="#7a8389" d="M74.59,-117.61C97.7,-148.54 144.62,-211.35 170.28,-245.69"/>
<polygon fill="#7a8389" stroke="#7a8389" points="168.35,-247.21 174.51,-251.35 172.28,-244.28 168.35,-247.21"/>
</g>
<!-- choice_EOS312_0_0 -->
<g id="node52" class="node">
<title>choice_EOS312_0_0</title>
<path fill="#fff7ee" stroke="#b7793f" stroke-width="1.1" d="M1199,-531.42C1199,-531.42 1169,-531.42 1169,-531.42 1163,-531.42 1157,-525.42 1157,-519.42 1157,-519.42 1157,-507.42 1157,-507.42 1157,-501.42 1163,-495.42 1169,-495.42 1169,-495.42 1199,-495.42 1199,-495.42 1205,-495.42 1211,-501.42 1211,-507.42 1211,-507.42 1211,-519.42 1211,-519.42 1211,-525.42 1205,-531.42 1199,-531.42"/>
<text text-anchor="middle" x="1184" y="-511.22" font-family="Avenir Next" font-size="9.00">1 of</text>
</g>
<!-- course__EOS110&#45;&gt;choice_EOS312_0_0 -->
<g id="edge50" class="edge">
<title>course__EOS110&#45;&gt;choice_EOS312_0_0</title>
<path fill="none" stroke="#7a8389" d="M92.13,-81.39C138.24,-56.44 228.13,-14.42 310.5,-14.42 310.5,-14.42 310.5,-14.42 943,-14.42 1019.66,-14.42 1059.1,25.04 1115,-27.42 1182.6,-90.85 1184.41,-397.67 1183.43,-488.21"/>
<polygon fill="#7a8389" stroke="#7a8389" points="1180.98,-488.3 1183.34,-495.33 1185.88,-488.36 1180.98,-488.3"/>
</g>
<!-- course__EOS120 -->
<g id="node3" class="node">
<title>course__EOS120</title>
<g id="a_node3"><a xlink:href="../../../courses/EOS120.html" xlink:title="EOS120: The Dynamic Earth" target="_top">
<path fill="#d7e9ef" stroke="#1f4f66" stroke-width="1.6" d="M75,-796.42C75,-796.42 45,-796.42 45,-796.42 39,-796.42 33,-790.42 33,-784.42 33,-784.42 33,-772.42 33,-772.42 33,-766.42 39,-760.42 45,-760.42 45,-760.42 75,-760.42 75,-760.42 81,-760.42 87,-766.42 87,-772.42 87,-772.42 87,-784.42 87,-784.42 87,-790.42 81,-796.42 75,-796.42"/>
<text text-anchor="middle" x="60" y="-775.92" font-family="Avenir Next" font-size="10.00" fill="#17232b">EOS120</text>
</a>
</g>
</g>
<!-- course__EOS202 -->
<g id="node15" class="node">
<title>course__EOS202</title>
<g id="a_node15"><a xlink:href="../../../courses/EOS202.html" xlink:title="EOS202: Structural Geology" target="_top">
<path fill="#f9f9f9" stroke="#363636" d="M326.5,-886.42C326.5,-886.42 296.5,-886.42 296.5,-886.42 290.5,-886.42 284.5,-880.42 284.5,-874.42 284.5,-874.42 284.5,-862.42 284.5,-862.42 284.5,-856.42 290.5,-850.42 296.5,-850.42 296.5,-850.42 326.5,-850.42 326.5,-850.42 332.5,-850.42 338.5,-856.42 338.5,-862.42 338.5,-862.42 338.5,-874.42 338.5,-874.42 338.5,-880.42 332.5,-886.42 326.5,-886.42"/>
<text text-anchor="middle" x="311.5" y="-866.22" font-family="Avenir Next" font-size="9.00" fill="#363636">EOS202</text>
</a>
</g>
</g>
<!-- course__EOS120&#45;&gt;course__EOS202 -->
<g id="edge26" class="edge">
<title>course__EOS120&#45;&gt;course__EOS202</title>
<path fill="none" stroke="#5d6972" stroke-width="1.2" d="M87.3,-790.44C107.52,-799.47 136.26,-811.89 162,-821.42 201.21,-835.93 247.22,-850.05 277.52,-858.97"/>
<polygon fill="#5d6972" stroke="#5d6972" stroke-width="1.2" points="277.08,-861.39 284.49,-861.01 278.46,-856.69 277.08,-861.39"/>
</g>
<!-- course__EOS120&#45;&gt;course__EOS313 -->
<g id="edge55" class="edge">
<title>course__EOS120&#45;&gt;course__EOS313</title>
<path fill="none" stroke="#5d6972" stroke-width="1.2" d="M87.19,-787.99C107.35,-794.92 136.06,-803.84 162,-808.42 201.04,-815.3 246.65,-817.17 276.92,-817.56"/>
<polygon fill="#5d6972" stroke="#5d6972" stroke-width="1.2" points="277.25,-820.01 284.27,-817.62 277.29,-815.11 277.25,-820.01"/>
</g>
<!-- course__EOS205 -->
<g id="node20" class="node">
<title>course__EOS205</title>
<g id="a_node20"><a xlink:href="../../../courses/EOS205.html" xlink:title="EOS205: Mineralogy" target="_top">
<path fill="#d7e9ef" stroke="#1f4f66" stroke-width="1.6" d="M481.5,-797.42C481.5,-797.42 451.5,-797.42 451.5,-797.42 445.5,-797.42 439.5,-791.42 439.5,-785.42 439.5,-785.42 439.5,-773.42 439.5,-773.42 439.5,-767.42 445.5,-761.42 451.5,-761.42 451.5,-761.42 481.5,-761.42 481.5,-761.42 487.5,-761.42 493.5,-767.42 493.5,-773.42 493.5,-773.42 493.5,-785.42 493.5,-785.42 493.5,-791.42 487.5,-797.42 481.5,-797.42"/>
<text text-anchor="middle" x="466.5" y="-776.92" font-family="Avenir Next" font-size="10.00" fill="#17232b">EOS205</text>
</a>
</g>
</g>
<!-- course__EOS120&#45;&gt;course__EOS205 -->
<g id="edge27" class="edge">
<title>course__EOS120&#45;&gt;course__EOS205</title>
<path fill="none" stroke="#5d6972" stroke-width="1.2" d="M87.23,-778.48C158.12,-778.66 353.49,-779.14 432.1,-779.33"/>
<polygon fill="#5d6972" stroke="#5d6972" stroke-width="1.2" points="432.32,-781.78 439.33,-779.35 432.34,-776.88 432.32,-781.78"/>
</g>
<!-- course__EOS330 -->
<g id="node31" class="node">
<title>course__EOS330</title>
<g id="a_node31"><a xlink:href="../../../courses/EOS330.html" xlink:title="EOS330: Paleobiology" target="_top">
<path fill="#d7e9ef" stroke="#1f4f66" stroke-width="1.6" d="M638,-227.42C638,-227.42 608,-227.42 608,-227.42 602,-227.42 596,-221.42 596,-215.42 596,-215.42 596,-203.42 596,-203.42 596,-197.42 602,-191.42 608,-191.42 608,-191.42 638,-191.42 638,-191.42 644,-191.42 650,-197.42 650,-203.42 650,-203.42 650,-215.42 650,-215.42 650,-221.42 644,-227.42 638,-227.42"/>
<text text-anchor="middle" x="623" y="-206.92" font-family="Avenir Next" font-size="10.00" fill="#17232b">EOS330</text>
</a>
</g>
</g>
<!-- course__EOS120&#45;&gt;course__EOS330 -->
<g id="edge69" class="edge">
<title>course__EOS120&#45;&gt;course__EOS330</title>
<path fill="none" stroke="#5d6972" stroke-width="1.2" d="M87.13,-772.62C98.6,-768.87 111.38,-762.87 120,-753.42 128.51,-744.09 248.8,-329.06 258,-320.42 293.73,-286.81 317.88,-307.04 365,-293.42 446.23,-269.92 540.4,-237.9 589.07,-220.98"/>
<polygon fill="#5d6972" stroke="#5d6972" stroke-width="1.2" points="590.11,-223.22 595.92,-218.6 588.5,-218.59 590.11,-223.22"/>
</g>
<!-- course__MATH100 -->
<g id="node4" class="node">
<title>course__MATH100</title>
<g id="a_node4"><a xlink:href="../../../courses/MATH100.html" xlink:title="Collapsed in simplified view: MATH100: Calculus I | MATH102: Calculus for Students in the Social and Biological Sciences | MATH109: Introduction to Calculus" target="_top">
<path fill="#d7e9ef" stroke="#1f4f66" stroke-width="1.6" d="M80,-477.42C80,-477.42 40,-477.42 40,-477.42 34,-477.42 28,-471.42 28,-465.42 28,-465.42 28,-453.42 28,-453.42 28,-447.42 34,-441.42 40,-441.42 40,-441.42 80,-441.42 80,-441.42 86,-441.42 92,-447.42 92,-453.42 92,-453.42 92,-465.42 92,-465.42 92,-471.42 86,-477.42 80,-477.42"/>
<text text-anchor="middle" x="60" y="-456.92" font-family="Avenir Next" font-size="10.00" fill="#17232b">Calculus I</text>
</a>
</g>
</g>
<!-- course__MATH100&#45;&gt;course__CHEM102 -->
<g id="edge21" class="edge">
<title>course__MATH100&#45;&gt;course__CHEM102</title>
<path fill="none" stroke="#5d6972" stroke-width="1.2" d="M79.35,-477.73C123.97,-522.26 238.13,-636.19 287.35,-685.31"/>
<polygon fill="#5d6972" stroke="#5d6972" stroke-width="1.2" points="285.78,-687.2 292.46,-690.42 289.24,-683.74 285.78,-687.2"/>
</g>
<!-- course__MATH101 -->
<g id="node12" class="node">
<title>course__MATH101</title>
<g id="a_node12"><a xlink:href="../../../courses/MATH101.html" xlink:title="MATH101: Calculus II" target="_top">
<path fill="#d7e9ef" stroke="#1f4f66" stroke-width="1.6" d="M331,-412.42C331,-412.42 292,-412.42 292,-412.42 286,-412.42 280,-406.42 280,-400.42 280,-400.42 280,-388.42 280,-388.42 280,-382.42 286,-376.42 292,-376.42 292,-376.42 331,-376.42 331,-376.42 337,-376.42 343,-382.42 343,-388.42 343,-388.42 343,-400.42 343,-400.42 343,-406.42 337,-412.42 331,-412.42"/>
<text text-anchor="middle" x="311.5" y="-391.92" font-family="Avenir Next" font-size="10.00" fill="#17232b">MATH101</text>
</a>
</g>
</g>
<!-- course__MATH100&#45;&gt;course__MATH101 -->
<g id="edge88" class="edge">
<title>course__MATH100&#45;&gt;course__MATH101</title>
<path fill="none" stroke="#5d6972" stroke-width="1.2" d="M92.41,-446.39C112.12,-438.59 138.23,-428.96 162,-422.42 199.12,-412.19 242.47,-404.49 272.72,-399.78"/>
<polygon fill="#5d6972" stroke="#5d6972" stroke-width="1.2" points="273.18,-402.18 279.73,-398.7 272.44,-397.34 273.18,-402.18"/>
</g>
<!-- course__PHYS102A -->
<g id="node13" class="node">
<title>course__PHYS102A</title>
<g id="a_node13"><a xlink:href="../../../courses/PHYS102A.html" xlink:title="Collapsed in simplified view: PHYS102A: General Physics I | PHYS110: Introductory Physics I | PHYS120: Physics I" target="_top">
<path fill="#d7e9ef" stroke="#1f4f66" stroke-width="1.6" d="M329,-363.42C329,-363.42 294,-363.42 294,-363.42 288,-363.42 282,-357.42 282,-351.42 282,-351.42 282,-339.42 282,-339.42 282,-333.42 288,-327.42 294,-327.42 294,-327.42 329,-327.42 329,-327.42 335,-327.42 341,-333.42 341,-339.42 341,-339.42 341,-351.42 341,-351.42 341,-357.42 335,-363.42 329,-363.42"/>
<text text-anchor="middle" x="311.5" y="-342.92" font-family="Avenir Next" font-size="10.00" fill="#17232b">Physics I</text>
</a>
</g>
</g>
<!-- course__MATH100&#45;&gt;course__PHYS102A -->
<g id="edge94" class="edge">
<title>course__MATH100&#45;&gt;course__PHYS102A</title>
<path fill="none" stroke="#5d6972" stroke-width="1.2" d="M92.07,-442.6C111.89,-432.08 138.22,-418.48 162,-407.42 200.15,-389.67 244.81,-371.34 275.12,-359.26"/>
<polygon fill="#5d6972" stroke="#5d6972" stroke-width="1.2" points="276.14,-361.49 281.74,-356.63 274.33,-356.94 276.14,-361.49"/>
</g>
<!-- course__CSC110 -->
<g id="node14" class="node">
<title>course__CSC110</title>
<g id="a_node14"><a xlink:href="../../../courses/CSC110.html" xlink:title="Collapsed in simplified view: CSC110: Fundamentals of Programming I | CSC111: Fundamentals of Programming with Engineering Applications" target="_top">
<path fill="#f9f9f9" stroke="#363636" d="M341.5,-580.42C341.5,-580.42 281.5,-580.42 281.5,-580.42 275.5,-580.42 269.5,-574.42 269.5,-568.42 269.5,-568.42 269.5,-556.42 269.5,-556.42 269.5,-550.42 275.5,-544.42 281.5,-544.42 281.5,-544.42 341.5,-544.42 341.5,-544.42 347.5,-544.42 353.5,-550.42 353.5,-556.42 353.5,-556.42 353.5,-568.42 353.5,-568.42 353.5,-574.42 347.5,-580.42 341.5,-580.42"/>
<text text-anchor="middle" x="311.5" y="-560.22" font-family="Avenir Next" font-size="9.00" fill="#363636">Programming I</text>
</a>
</g>
</g>
<!-- course__MATH100&#45;&gt;course__CSC110 -->
<g id="edge24" class="edge">
<title>course__MATH100&#45;&gt;course__CSC110</title>
<path fill="none" stroke="#5d6972" stroke-width="1.2" d="M92.09,-472.25C134.98,-489.95 212.65,-522.02 262.87,-542.75"/>
<polygon fill="#5d6972" stroke="#5d6972" stroke-width="1.2" points="262.06,-545.07 269.47,-545.48 263.93,-540.54 262.06,-545.07"/>
</g>
<!-- course__PHYS102B -->
<g id="node22" class="node">
<title>course__PHYS102B</title>
<g id="a_node22"><a xlink:href="../../../courses/PHYS102B.html" xlink:title="Collapsed in simplified view: PHYS102B: General Physics II | PHYS111: Introductory Physics II | PHYS130: Physics II" target="_top">
<path fill="#d7e9ef" stroke="#1f4f66" stroke-width="1.6" d="M485.5,-439.42C485.5,-439.42 447.5,-439.42 447.5,-439.42 441.5,-439.42 435.5,-433.42 435.5,-427.42 435.5,-427.42 435.5,-415.42 435.5,-415.42 435.5,-409.42 441.5,-403.42 447.5,-403.42 447.5,-403.42 485.5,-403.42 485.5,-403.42 491.5,-403.42 497.5,-409.42 497.5,-415.42 497.5,-415.42 497.5,-427.42 497.5,-427.42 497.5,-433.42 491.5,-439.42 485.5,-439.42"/>
<text text-anchor="middle" x="466.5" y="-418.92" font-family="Avenir Next" font-size="10.00" fill="#17232b">Physics II</text>
</a>
</g>
</g>
<!-- course__MATH100&#45;&gt;course__PHYS102B -->
<g id="edge96" class="edge">
<title>course__MATH100&#45;&gt;course__PHYS102B</title>
<path fill="none" stroke="#5d6972" stroke-width="1.2" d="M92.07,-456.5C165.37,-449.61 348.86,-432.37 428.09,-424.93"/>
<polygon fill="#5d6972" stroke="#5d6972" stroke-width="1.2" points="428.69,-427.33 435.43,-424.24 428.23,-422.46 428.69,-427.33"/>
</g>
<!-- choice_EOS311_0_2 -->
<g id="node51" class="node">
<title>choice_EOS311_0_2</title>
<path fill="#fff7ee" stroke="#b7793f" stroke-width="1.1" d="M481.5,-515.42C481.5,-515.42 451.5,-515.42 451.5,-515.42 445.5,-515.42 439.5,-509.42 439.5,-503.42 439.5,-503.42 439.5,-491.42 439.5,-491.42 439.5,-485.42 445.5,-479.42 451.5,-479.42 451.5,-479.42 481.5,-479.42 481.5,-479.42 487.5,-479.42 493.5,-485.42 493.5,-491.42 493.5,-491.42 493.5,-503.42 493.5,-503.42 493.5,-509.42 487.5,-515.42 481.5,-515.42"/>
<text text-anchor="middle" x="466.5" y="-495.22" font-family="Avenir Next" font-size="9.00">2 of</text>
</g>
<!-- course__MATH100&#45;&gt;choice_EOS311_0_2 -->
<g id="edge44" class="edge">
<title>course__MATH100&#45;&gt;choice_EOS311_0_2</title>
<path fill="none" stroke="#7a8389" d="M92.07,-462.33C166.71,-469.35 355.62,-487.09 432.35,-494.3"/>
<polygon fill="#7a8389" stroke="#7a8389" points="432.21,-496.75 439.41,-494.96 432.67,-491.87 432.21,-496.75"/>
</g>
<!-- course__CHEM091 -->
<g id="node5" class="node">
<title>course__CHEM091</title>
<g id="a_node5"><a xlink:href="../../../courses/CHEM091.html" xlink:title="CHEM091: Introduction to Chemistry" target="_top">
<path fill="#f9f9f9" stroke="#363636" d="M78.5,-697.42C78.5,-697.42 41.5,-697.42 41.5,-697.42 35.5,-697.42 29.5,-691.42 29.5,-685.42 29.5,-685.42 29.5,-673.42 29.5,-673.42 29.5,-667.42 35.5,-661.42 41.5,-661.42 41.5,-661.42 78.5,-661.42 78.5,-661.42 84.5,-661.42 90.5,-667.42 90.5,-673.42 90.5,-673.42 90.5,-685.42 90.5,-685.42 90.5,-691.42 84.5,-697.42 78.5,-697.42"/>
<text text-anchor="middle" x="60" y="-677.22" font-family="Avenir Next" font-size="9.00" fill="#363636">CHEM091</text>
</a>
</g>
</g>
<!-- course__CHEM091&#45;&gt;course__CHEM102 -->
<g id="edge19" class="edge">
<title>course__CHEM091&#45;&gt;course__CHEM102</title>
<path fill="none" stroke="#5d6972" stroke-width="1.2" d="M90.6,-682.86C135.88,-688.12 222.32,-698.17 272.28,-703.97"/>
<polygon fill="#5d6972" stroke="#5d6972" stroke-width="1.2" points="272.14,-706.42 279.37,-704.8 272.7,-701.56 272.14,-706.42"/>
</g>
<!-- course__EOS130 -->
<g id="node6" class="node">
<title>course__EOS130</title>
<g id="a_node6"><a xlink:href="../../../courses/EOS130.html" xlink:title="Equivalent or cross&#45;listed: EOS130: Climate Change | GEOG130: Climate Change" target="_top">
<path fill="#f9f9f9" stroke="#363636" d="M101.5,-262.42C101.5,-262.42 18.5,-262.42 18.5,-262.42 12.5,-262.42 6.5,-256.42 6.5,-250.42 6.5,-250.42 6.5,-238.42 6.5,-238.42 6.5,-232.42 12.5,-226.42 18.5,-226.42 18.5,-226.42 101.5,-226.42 101.5,-226.42 107.5,-226.42 113.5,-232.42 113.5,-238.42 113.5,-238.42 113.5,-250.42 113.5,-250.42 113.5,-256.42 107.5,-262.42 101.5,-262.42"/>
<text text-anchor="middle" x="60" y="-242.22" font-family="Avenir Next" font-size="9.00" fill="#363636">EOS130 / GEOG130</text>
</a>
</g>
</g>
<!-- course__EOS130&#45;&gt;choice_EOS230_0_1 -->
<g id="edge32" class="edge">
<title>course__EOS130&#45;&gt;choice_EOS230_0_1</title>
<path fill="none" stroke="#7a8389" d="M113.76,-254.8C127.66,-257.54 142.26,-260.41 154.81,-262.88"/>
<polygon fill="#7a8389" stroke="#7a8389" points="154.6,-265.34 161.94,-264.29 155.54,-260.53 154.6,-265.34"/>
</g>
<!-- course__GEOG103 -->
<g id="node7" class="node">
<title>course__GEOG103</title>
<g id="a_node7"><a xlink:href="../../../courses/GEOG103.html" xlink:title="GEOG103: Our Natural Earth" target="_top">
<path fill="#f9f9f9" stroke="#363636" d="M78.5,-311.42C78.5,-311.42 41.5,-311.42 41.5,-311.42 35.5,-311.42 29.5,-305.42 29.5,-299.42 29.5,-299.42 29.5,-287.42 29.5,-287.42 29.5,-281.42 35.5,-275.42 41.5,-275.42 41.5,-275.42 78.5,-275.42 78.5,-275.42 84.5,-275.42 90.5,-281.42 90.5,-287.42 90.5,-287.42 90.5,-299.42 90.5,-299.42 90.5,-305.42 84.5,-311.42 78.5,-311.42"/>
<text text-anchor="middle" x="60" y="-291.22" font-family="Avenir Next" font-size="9.00" fill="#363636">GEOG103</text>
</a>
</g>
</g>
<!-- course__GEOG103&#45;&gt;choice_EOS230_0_1 -->
<g id="edge33" class="edge">
<title>course__GEOG103&#45;&gt;choice_EOS230_0_1</title>
<path fill="none" stroke="#7a8389" d="M90.78,-287.79C109.97,-284.16 134.96,-279.44 154.8,-275.69"/>
<polygon fill="#7a8389" stroke="#7a8389" points="155.43,-278.06 161.86,-274.36 154.52,-273.25 155.43,-278.06"/>
</g>
<!-- course__MATH151 -->
<g id="node8" class="node">
<title>course__MATH151</title>
<g id="a_node8"><a xlink:href="../../../courses/MATH151.html" xlink:title="MATH151: Finite Mathematics" target="_top">
<path fill="#f9f9f9" stroke="#363636" d="M77.5,-585.42C77.5,-585.42 42.5,-585.42 42.5,-585.42 36.5,-585.42 30.5,-579.42 30.5,-573.42 30.5,-573.42 30.5,-561.42 30.5,-561.42 30.5,-555.42 36.5,-549.42 42.5,-549.42 42.5,-549.42 77.5,-549.42 77.5,-549.42 83.5,-549.42 89.5,-555.42 89.5,-561.42 89.5,-561.42 89.5,-573.42 89.5,-573.42 89.5,-579.42 83.5,-585.42 77.5,-585.42"/>
<text text-anchor="middle" x="60" y="-565.22" font-family="Avenir Next" font-size="9.00" fill="#363636">MATH151</text>
</a>
</g>
</g>
<!-- choice_EOS261_0_4 -->
<g id="node50" class="node">
<title>choice_EOS261_0_4</title>
<path fill="#fff7ee" stroke="#b7793f" stroke-width="1.1" d="M481.5,-618.42C481.5,-618.42 451.5,-618.42 451.5,-618.42 445.5,-618.42 439.5,-612.42 439.5,-606.42 439.5,-606.42 439.5,-594.42 439.5,-594.42 439.5,-588.42 445.5,-582.42 451.5,-582.42 451.5,-582.42 481.5,-582.42 481.5,-582.42 487.5,-582.42 493.5,-588.42 493.5,-594.42 493.5,-594.42 493.5,-606.42 493.5,-606.42 493.5,-612.42 487.5,-618.42 481.5,-618.42"/>
<text text-anchor="middle" x="466.5" y="-598.22" font-family="Avenir Next" font-size="9.00">1 of</text>
</g>
<!-- course__MATH151&#45;&gt;choice_EOS261_0_4 -->
<g id="edge37" class="edge">
<title>course__MATH151&#45;&gt;choice_EOS261_0_4</title>
<path fill="none" stroke="#7a8389" d="M89.68,-570.68C128,-574.96 198.04,-582.5 258,-587.42 319.42,-592.46 391.22,-596.56 432.23,-598.73"/>
<polygon fill="#7a8389" stroke="#7a8389" points="432.15,-601.18 439.27,-599.1 432.41,-596.28 432.15,-601.18"/>
</g>
<!-- course__MATH151&#45;&gt;choice_EOS311_0_2 -->
<g id="edge46" class="edge">
<title>course__MATH151&#45;&gt;choice_EOS311_0_2</title>
<path fill="none" stroke="#7a8389" d="M89.77,-562.44C162.68,-549.82 354.44,-516.64 432.11,-503.19"/>
<polygon fill="#7a8389" stroke="#7a8389" points="432.79,-505.56 439.27,-501.96 431.95,-500.73 432.79,-505.56"/>
</g>
<!-- course__BIOL186 -->
<g id="node9" class="node">
<title>course__BIOL186</title>
<g id="a_node9"><a xlink:href="../../../courses/BIOL186.html" xlink:title="BIOL186: Physiology and Cell Biology" target="_top">
<path fill="#d7e9ef" stroke="#1f4f66" stroke-width="1.6" d="M328,-189.42C328,-189.42 295,-189.42 295,-189.42 289,-189.42 283,-183.42 283,-177.42 283,-177.42 283,-165.42 283,-165.42 283,-159.42 289,-153.42 295,-153.42 295,-153.42 328,-153.42 328,-153.42 334,-153.42 340,-159.42 340,-165.42 340,-165.42 340,-177.42 340,-177.42 340,-183.42 334,-189.42 328,-189.42"/>
<text text-anchor="middle" x="311.5" y="-168.92" font-family="Avenir Next" font-size="10.00" fill="#17232b">BIOL186</text>
</a>
</g>
</g>
<!-- course__BIOL150A -->
<g id="node18" class="node">
<title>course__BIOL150A</title>
<g id="a_node18"><a xlink:href="../../../courses/BIOL150A.html" xlink:title="Collapsed in simplified view: BIOL150A: Modern Biology | BIOL184: Evolution and Biodiversity" target="_top">
<path fill="#d7e9ef" stroke="#1f4f66" stroke-width="1.6" d="M493.5,-194.42C493.5,-194.42 439.5,-194.42 439.5,-194.42 433.5,-194.42 427.5,-188.42 427.5,-182.42 427.5,-182.42 427.5,-170.42 427.5,-170.42 427.5,-164.42 433.5,-158.42 439.5,-158.42 439.5,-158.42 493.5,-158.42 493.5,-158.42 499.5,-158.42 505.5,-164.42 505.5,-170.42 505.5,-170.42 505.5,-182.42 505.5,-182.42 505.5,-188.42 499.5,-194.42 493.5,-194.42"/>
<text text-anchor="middle" x="466.5" y="-173.92" font-family="Avenir Next" font-size="10.00" fill="#17232b">Intro biology</text>
</a>
</g>
</g>
<!-- course__BIOL186&#45;&gt;course__BIOL150A -->
<g id="edge1" class="edge">
<title>course__BIOL186&#45;&gt;course__BIOL150A</title>
<path fill="none" stroke="#5d6972" stroke-width="1.2" d="M340.21,-168.76C362.48,-168.48 394.23,-169.32 420.2,-170.79"/>
<polygon fill="#5d6972" stroke="#5d6972" stroke-width="1.2" points="420.22,-173.24 427.35,-171.21 420.51,-168.35 420.22,-173.24"/>
</g>
<!-- course__BIOL225 -->
<g id="node26" class="node">
<title>course__BIOL225</title>
<g id="a_node26"><a xlink:href="../../../courses/BIOL225.html" xlink:title="BIOL225: Principles of Cell Biology" target="_top">
<path fill="#d7e9ef" stroke="#1f4f66" stroke-width="1.6" d="M639.5,-178.42C639.5,-178.42 606.5,-178.42 606.5,-178.42 600.5,-178.42 594.5,-172.42 594.5,-166.42 594.5,-166.42 594.5,-154.42 594.5,-154.42 594.5,-148.42 600.5,-142.42 606.5,-142.42 606.5,-142.42 639.5,-142.42 639.5,-142.42 645.5,-142.42 651.5,-148.42 651.5,-154.42 651.5,-154.42 651.5,-166.42 651.5,-166.42 651.5,-172.42 645.5,-178.42 639.5,-178.42"/>
<text text-anchor="middle" x="623" y="-157.92" font-family="Avenir Next" font-size="10.00" fill="#17232b">BIOL225</text>
</a>
</g>
</g>
<!-- course__BIOL186&#45;&gt;course__BIOL225 -->
<g id="edge3" class="edge">
<title>course__BIOL186&#45;&gt;course__BIOL225</title>
<path fill="none" stroke="#5d6972" stroke-width="1.2" d="M340.37,-163.92C359.06,-159.29 384.32,-153.79 407,-151.42 470.4,-144.78 544.8,-150.99 587.37,-155.87"/>
<polygon fill="#5d6972" stroke="#5d6972" stroke-width="1.2" points="587.19,-158.31 594.43,-156.7 587.76,-153.45 587.19,-158.31"/>
</g>
<!-- course__CHEM245 -->
<g id="node19" class="node">
<title>course__CHEM245</title>
<g id="a_node19"><a xlink:href="../../../courses/CHEM245.html" xlink:title="CHEM245: Introduction to Thermodynamics" target="_top">
<path fill="#d7e9ef" stroke="#1f4f66" stroke-width="1.6" d="M486.5,-694.42C486.5,-694.42 446.5,-694.42 446.5,-694.42 440.5,-694.42 434.5,-688.42 434.5,-682.42 434.5,-682.42 434.5,-670.42 434.5,-670.42 434.5,-664.42 440.5,-658.42 446.5,-658.42 446.5,-658.42 486.5,-658.42 486.5,-658.42 492.5,-658.42 498.5,-664.42 498.5,-670.42 498.5,-670.42 498.5,-682.42 498.5,-682.42 498.5,-688.42 492.5,-694.42 486.5,-694.42"/>
<text text-anchor="middle" x="466.5" y="-673.92" font-family="Avenir Next" font-size="10.00" fill="#17232b">CHEM245</text>
</a>
</g>
</g>
<!-- course__CHEM102&#45;&gt;course__CHEM245 -->
<g id="edge23" class="edge">
<title>course__CHEM102&#45;&gt;course__CHEM245</title>
<path fill="none" stroke="#5d6972" stroke-width="1.2" d="M343.83,-701.86C368.04,-696.8 401.66,-689.77 427.43,-684.38"/>
<polygon fill="#5d6972" stroke="#5d6972" stroke-width="1.2" points="428.12,-686.74 434.47,-682.91 427.12,-681.94 428.12,-686.74"/>
</g>
<!-- course__CHEM102&#45;&gt;course__EOS205 -->
<g id="edge28" class="edge">
<title>course__CHEM102&#45;&gt;course__EOS205</title>
<path fill="none" stroke="#5d6972" stroke-width="1.2" d="M343.83,-722.95C369.78,-735 406.54,-752.06 432.85,-764.26"/>
<polygon fill="#5d6972" stroke="#5d6972" stroke-width="1.2" points="431.92,-766.53 439.3,-767.26 433.98,-762.09 431.92,-766.53"/>
</g>
<!-- course__EOS261 -->
<g id="node29" class="node">
<title>course__EOS261</title>
<g id="a_node29"><a xlink:href="../../../courses/EOS261.html" xlink:title="EOS261: The Climate System" target="_top">
<path fill="#d7e9ef" stroke="#1f4f66" stroke-width="1.6" d="M638,-614.42C638,-614.42 608,-614.42 608,-614.42 602,-614.42 596,-608.42 596,-602.42 596,-602.42 596,-590.42 596,-590.42 596,-584.42 602,-578.42 608,-578.42 608,-578.42 638,-578.42 638,-578.42 644,-578.42 650,-584.42 650,-590.42 650,-590.42 650,-602.42 650,-602.42 650,-608.42 644,-614.42 638,-614.42"/>
<text text-anchor="middle" x="623" y="-593.92" font-family="Avenir Next" font-size="10.00" fill="#17232b">EOS261</text>
</a>
</g>
</g>
<!-- course__CHEM102&#45;&gt;course__EOS261 -->
<g id="edge39" class="edge">
<title>course__CHEM102&#45;&gt;course__EOS261</title>
<path fill="none" stroke="#5d6972" stroke-width="1.2" d="M343.85,-711.15C395.71,-715.06 496.54,-719.89 526,-701.42 560.02,-680.08 538.91,-649.09 568,-621.42 573.96,-615.75 581.44,-611.18 588.91,-607.59"/>
<polygon fill="#5d6972" stroke="#5d6972" stroke-width="1.2" points="590.33,-609.64 595.73,-604.56 588.34,-605.16 590.33,-609.64"/>
</g>
<!-- course__EOS311 -->
<g id="node30" class="node">
<title>course__EOS311</title>
<g id="a_node30"><a xlink:href="../../../courses/EOS311.html" xlink:title="Equivalent or cross&#45;listed: BIOL311: Biological Oceanography | EOS311: Biological Oceanography" target="_top">
<path fill="#d7e9ef" stroke="#1f4f66" stroke-width="1.6" d="M663,-663.42C663,-663.42 583,-663.42 583,-663.42 577,-663.42 571,-657.42 571,-651.42 571,-651.42 571,-639.42 571,-639.42 571,-633.42 577,-627.42 583,-627.42 583,-627.42 663,-627.42 663,-627.42 669,-627.42 675,-633.42 675,-639.42 675,-639.42 675,-651.42 675,-651.42 675,-657.42 669,-663.42 663,-663.42"/>
<text text-anchor="middle" x="623" y="-642.92" font-family="Avenir Next" font-size="10.00" fill="#17232b">BIOL311 / EOS311</text>
</a>
</g>
</g>
<!-- course__CHEM102&#45;&gt;course__EOS311 -->
<g id="edge47" class="edge">
<title>course__CHEM102&#45;&gt;course__EOS311</title>
<path fill="none" stroke="#5d6972" stroke-width="1.2" d="M343.61,-718.49C386.16,-730.56 464.24,-746.56 526,-724.42 556.64,-713.43 584.5,-687.97 602.22,-668.9"/>
<polygon fill="#5d6972" stroke="#5d6972" stroke-width="1.2" points="604.04,-670.54 606.94,-663.71 600.42,-667.24 604.04,-670.54"/>
</g>
<!-- course__EOS312 -->
<g id="node45" class="node">
<title>course__EOS312</title>
<g id="a_node45"><a xlink:href="../../../courses/EOS312.html" xlink:title="EOS312: Introductory Chemical Oceanography" target="_top">
<path fill="#f9f9f9" stroke="#363636" d="M1295,-599.42C1295,-599.42 1265,-599.42 1265,-599.42 1259,-599.42 1253,-593.42 1253,-587.42 1253,-587.42 1253,-575.42 1253,-575.42 1253,-569.42 1259,-563.42 1265,-563.42 1265,-563.42 1295,-563.42 1295,-563.42 1301,-563.42 1307,-569.42 1307,-575.42 1307,-575.42 1307,-587.42 1307,-587.42 1307,-593.42 1301,-599.42 1295,-599.42"/>
<text text-anchor="middle" x="1280" y="-579.22" font-family="Avenir Next" font-size="9.00" fill="#363636">EOS312</text>
</a>
</g>
</g>
<!-- course__CHEM102&#45;&gt;course__EOS312 -->
<g id="edge54" class="edge">
<title>course__CHEM102&#45;&gt;course__EOS312</title>
<path fill="none" stroke="#5d6972" stroke-width="1.2" d="M334.98,-690.36C353.19,-676.95 380.15,-659.77 407,-652.42 458.01,-638.44 474.19,-641.78 526,-652.42 545.89,-656.5 548.27,-665.61 568,-670.42 645.07,-689.19 666.68,-683.42 746,-683.42 746,-683.42 746,-683.42 1064,-683.42 1137.53,-683.42 1212.74,-634.11 1251.75,-604.06"/>
<polygon fill="#5d6972" stroke="#5d6972" stroke-width="1.2" points="1253.69,-605.66 1257.7,-599.42 1250.67,-601.8 1253.69,-605.66"/>
</g>
<!-- course__BIOL230 -->
<g id="node35" class="node">
<title>course__BIOL230</title>
<g id="a_node35"><a xlink:href="../../../courses/BIOL230.html" xlink:title="BIOL230: Principles of Genetics" target="_top">
<path fill="#d7e9ef" stroke="#1f4f66" stroke-width="1.6" d="M861,-254.42C861,-254.42 828,-254.42 828,-254.42 822,-254.42 816,-248.42 816,-242.42 816,-242.42 816,-230.42 816,-230.42 816,-224.42 822,-218.42 828,-218.42 828,-218.42 861,-218.42 861,-218.42 867,-218.42 873,-224.42 873,-230.42 873,-230.42 873,-242.42 873,-242.42 873,-248.42 867,-254.42 861,-254.42"/>
<text text-anchor="middle" x="844.5" y="-233.92" font-family="Avenir Next" font-size="10.00" fill="#17232b">BIOL230</text>
</a>
</g>
</g>
<!-- course__CHEM231&#45;&gt;course__BIOL230 -->
<g id="edge6" class="edge">
<title>course__CHEM231&#45;&gt;course__BIOL230</title>
<path fill="none" stroke="#5d6972" stroke-width="1.2" d="M343.55,-222.4C391.63,-225.37 486.98,-230.91 568,-233.42 654.53,-236.09 756.41,-236.48 808.69,-236.48"/>
<polygon fill="#5d6972" stroke="#5d6972" stroke-width="1.2" points="808.73,-238.93 815.73,-236.48 808.73,-234.03 808.73,-238.93"/>
</g>
<!-- course__MATH200 -->
<g id="node21" class="node">
<title>course__MATH200</title>
<g id="a_node21"><a xlink:href="../../../courses/MATH200.html" xlink:title="Equivalent or cross&#45;listed: MATH200: Calculus III | MATH202: Intermediate Calculus for CSC and EOS" target="_top">
<path fill="#d7e9ef" stroke="#1f4f66" stroke-width="1.6" d="M514,-390.42C514,-390.42 419,-390.42 419,-390.42 413,-390.42 407,-384.42 407,-378.42 407,-378.42 407,-366.42 407,-366.42 407,-360.42 413,-354.42 419,-354.42 419,-354.42 514,-354.42 514,-354.42 520,-354.42 526,-360.42 526,-366.42 526,-366.42 526,-378.42 526,-378.42 526,-384.42 520,-390.42 514,-390.42"/>
<text text-anchor="middle" x="466.5" y="-369.92" font-family="Avenir Next" font-size="10.00" fill="#17232b">MATH200 / MATH202</text>
</a>
</g>
</g>
<!-- course__MATH101&#45;&gt;course__MATH200 -->
<g id="edge89" class="edge">
<title>course__MATH101&#45;&gt;course__MATH200</title>
<path fill="none" stroke="#5d6972" stroke-width="1.2" d="M343.09,-390.02C359.4,-387.67 380.12,-384.69 399.85,-381.86"/>
<polygon fill="#5d6972" stroke="#5d6972" stroke-width="1.2" points="400.2,-384.28 406.78,-380.86 399.5,-379.43 400.2,-384.28"/>
</g>
<!-- course__MATH101&#45;&gt;course__PHYS102B -->
<g id="edge97" class="edge">
<title>course__MATH101&#45;&gt;course__PHYS102B</title>
<path fill="none" stroke="#5d6972" stroke-width="1.2" d="M343.09,-399.81C367.65,-404.15 402.21,-410.25 428.35,-414.86"/>
<polygon fill="#5d6972" stroke="#5d6972" stroke-width="1.2" points="428.16,-417.31 435.48,-416.12 429.01,-412.49 428.16,-417.31"/>
</g>
<!-- course__STAT254 -->
<g id="node23" class="node">
<title>course__STAT254</title>
<g id="a_node23"><a xlink:href="../../../courses/STAT254.html" xlink:title="Collapsed in simplified view: STAT254: Probability and Statistics for Engineers | STAT255: Statistics for Life Sciences I | STAT260: Introduction to Probability and Statistics I" target="_top">
<path fill="#d7e9ef" stroke="#1f4f66" stroke-width="1.6" d="M497.5,-106.42C497.5,-106.42 435.5,-106.42 435.5,-106.42 429.5,-106.42 423.5,-100.42 423.5,-94.42 423.5,-94.42 423.5,-82.42 423.5,-82.42 423.5,-76.42 429.5,-70.42 435.5,-70.42 435.5,-70.42 497.5,-70.42 497.5,-70.42 503.5,-70.42 509.5,-76.42 509.5,-82.42 509.5,-82.42 509.5,-94.42 509.5,-94.42 509.5,-100.42 503.5,-106.42 497.5,-106.42"/>
<text text-anchor="middle" x="466.5" y="-85.92" font-family="Avenir Next" font-size="10.00" fill="#17232b">Intro statistics</text>
</a>
</g>
</g>
<!-- course__MATH101&#45;&gt;course__STAT254 -->
<g id="edge99" class="edge">
<title>course__MATH101&#45;&gt;course__STAT254</title>
<path fill="none" stroke="#5d6972" stroke-width="1.2" d="M343.08,-385.58C351.3,-381.83 359.44,-376.6 365,-369.42 425.37,-291.37 362.37,-239.42 407,-151.42 414.61,-136.41 426.86,-122.4 438.19,-111.42"/>
<polygon fill="#5d6972" stroke="#5d6972" stroke-width="1.2" points="439.9,-113.18 443.31,-106.6 436.54,-109.62 439.9,-113.18"/>
</g>
<!-- course__EOS210 -->
<g id="node24" class="node">
<title>course__EOS210</title>
<g id="a_node24"><a xlink:href="../../../courses/EOS210.html" xlink:title="Collapsed in simplified view: EOS210: Introductory Geophysics | PHYS210: Introductory Geophysics" target="_top">
<path fill="#f9f9f9" stroke="#363636" d="M500.5,-341.42C500.5,-341.42 432.5,-341.42 432.5,-341.42 426.5,-341.42 420.5,-335.42 420.5,-329.42 420.5,-329.42 420.5,-317.42 420.5,-317.42 420.5,-311.42 426.5,-305.42 432.5,-305.42 432.5,-305.42 500.5,-305.42 500.5,-305.42 506.5,-305.42 512.5,-311.42 512.5,-317.42 512.5,-317.42 512.5,-329.42 512.5,-329.42 512.5,-335.42 506.5,-341.42 500.5,-341.42"/>
<text text-anchor="middle" x="466.5" y="-321.22" font-family="Avenir Next" font-size="9.00" fill="#363636">Intro geophysics</text>
</a>
</g>
</g>
<!-- course__MATH101&#45;&gt;course__EOS210 -->
<g id="edge29" class="edge">
<title>course__MATH101&#45;&gt;course__EOS210</title>
<path fill="none" stroke="#5d6972" stroke-width="1.2" d="M343.13,-380.07C350.33,-376.63 357.96,-372.94 365,-369.42 383.85,-360 387.9,-356.31 407,-347.42 409.14,-346.42 411.33,-345.42 413.55,-344.43"/>
<polygon fill="#5d6972" stroke="#5d6972" stroke-width="1.2" points="414.86,-346.53 420.28,-341.47 412.89,-342.04 414.86,-346.53"/>
</g>
<!-- course__MATH101&#45;&gt;choice_EOS261_0_4 -->
<g id="edge36" class="edge">
<title>course__MATH101&#45;&gt;choice_EOS261_0_4</title>
<path fill="none" stroke="#7a8389" d="M325.92,-412.68C344.2,-437.54 377.98,-483.41 407,-522.42 420.47,-540.52 435.77,-560.92 447.35,-576.31"/>
<polygon fill="#7a8389" stroke="#7a8389" points="445.58,-578.04 451.75,-582.16 449.5,-575.1 445.58,-578.04"/>
</g>
<!-- course__MATH101&#45;&gt;choice_EOS311_0_2 -->
<g id="edge45" class="edge">
<title>course__MATH101&#45;&gt;choice_EOS311_0_2</title>
<path fill="none" stroke="#7a8389" d="M339.5,-412.59C365.66,-430.2 405.35,-456.93 433.18,-475.66"/>
<polygon fill="#7a8389" stroke="#7a8389" points="432.1,-477.89 439.28,-479.76 434.84,-473.82 432.1,-477.89"/>
</g>
<!-- course__PHYS102A&#45;&gt;course__PHYS102B -->
<g id="edge95" class="edge">
<title>course__PHYS102A&#45;&gt;course__PHYS102B</title>
<path fill="none" stroke="#5d6972" stroke-width="1.2" d="M341.2,-357.64C349.03,-361.22 357.44,-365.28 365,-369.42 384.47,-380.06 387.4,-386.02 407,-396.42 413.87,-400.06 421.39,-403.59 428.68,-406.8"/>
<polygon fill="#5d6972" stroke="#5d6972" stroke-width="1.2" points="427.89,-409.12 435.29,-409.64 429.83,-404.62 427.89,-409.12"/>
</g>
<!-- course__PHYS102A&#45;&gt;course__EOS210 -->
<g id="edge30" class="edge">
<title>course__PHYS102A&#45;&gt;course__EOS210</title>
<path fill="none" stroke="#5d6972" stroke-width="1.2" d="M341.28,-341.28C361.53,-338.37 389.2,-334.39 413.29,-330.92"/>
<polygon fill="#5d6972" stroke="#5d6972" stroke-width="1.2" points="413.73,-333.34 420.31,-329.91 413.03,-328.49 413.73,-333.34"/>
</g>
<!-- course__MATH248 -->
<g id="node34" class="node">
<title>course__MATH248</title>
<g id="a_node34"><a xlink:href="../../../courses/MATH248.html" xlink:title="Equivalent or cross&#45;listed: MATH248: Computer Assisted Mathematics | PHYS248: Computer Assisted Physics" target="_top">
<path fill="#f9f9f9" stroke="#363636" d="M666,-489.42C666,-489.42 580,-489.42 580,-489.42 574,-489.42 568,-483.42 568,-477.42 568,-477.42 568,-465.42 568,-465.42 568,-459.42 574,-453.42 580,-453.42 580,-453.42 666,-453.42 666,-453.42 672,-453.42 678,-459.42 678,-465.42 678,-465.42 678,-477.42 678,-477.42 678,-483.42 672,-489.42 666,-489.42"/>
<text text-anchor="middle" x="623" y="-469.22" font-family="Avenir Next" font-size="9.00" fill="#363636">MATH248 / PHYS248</text>
</a>
</g>
</g>
<!-- course__CSC110&#45;&gt;course__MATH248 -->
<g id="edge92" class="edge">
<title>course__CSC110&#45;&gt;course__MATH248</title>
<path fill="none" stroke="#5d6972" stroke-width="1.2" d="M353.87,-559.21C397.8,-554.77 468.69,-544.63 526,-522.42 546.47,-514.48 548.67,-506.82 568,-496.42 570.32,-495.17 572.71,-493.92 575.14,-492.68"/>
<polygon fill="#5d6972" stroke="#5d6972" stroke-width="1.2" points="576.46,-494.77 581.63,-489.45 574.27,-490.38 576.46,-494.77"/>
</g>
<!-- choice_EOS325_0_2_0 -->
<g id="node54" class="node">
<title>choice_EOS325_0_2_0</title>
<path fill="#fff7ee" stroke="#b7793f" stroke-width="1.1" d="M762,-523.42C762,-523.42 732,-523.42 732,-523.42 726,-523.42 720,-517.42 720,-511.42 720,-511.42 720,-499.42 720,-499.42 720,-493.42 726,-487.42 732,-487.42 732,-487.42 762,-487.42 762,-487.42 768,-487.42 774,-493.42 774,-499.42 774,-499.42 774,-511.42 774,-511.42 774,-517.42 768,-523.42 762,-523.42"/>
<text text-anchor="middle" x="747" y="-503.22" font-family="Avenir Next" font-size="9.00">1 of</text>
</g>
<!-- course__CSC110&#45;&gt;choice_EOS325_0_2_0 -->
<g id="edge65" class="edge">
<title>course__CSC110&#45;&gt;choice_EOS325_0_2_0</title>
<path fill="none" stroke="#7a8389" d="M353.58,-566.81C422.36,-572.78 564.45,-579.19 678,-545.42 691.18,-541.5 704.48,-534.5 715.78,-527.44"/>
<polygon fill="#7a8389" stroke="#7a8389" points="717.29,-529.38 721.84,-523.53 714.63,-525.27 717.29,-529.38"/>
</g>
<!-- course__EOS300 -->
<g id="node37" class="node">
<title>course__EOS300</title>
<g id="a_node37"><a xlink:href="../../../courses/EOS300.html" xlink:title="EOS300: Earth Science Field School" target="_top">
<path fill="#dbe8d2" stroke="#567447" stroke-width="1.3" d="M859.5,-881.42C859.5,-881.42 829.5,-881.42 829.5,-881.42 823.5,-881.42 817.5,-875.42 817.5,-869.42 817.5,-869.42 817.5,-857.42 817.5,-857.42 817.5,-851.42 823.5,-845.42 829.5,-845.42 829.5,-845.42 859.5,-845.42 859.5,-845.42 865.5,-845.42 871.5,-851.42 871.5,-857.42 871.5,-857.42 871.5,-869.42 871.5,-869.42 871.5,-875.42 865.5,-881.42 859.5,-881.42"/>
<text text-anchor="middle" x="844.5" y="-860.92" font-family="Avenir Next" font-size="10.00" fill="#24311e">EOS300</text>
</a>
</g>
</g>
<!-- course__EOS202&#45;&gt;course__EOS300 -->
<g id="edge43" class="edge">
<title>course__EOS202&#45;&gt;course__EOS300</title>
<path fill="none" stroke="#5d6972" stroke-width="1.2" d="M338.83,-868.17C427.04,-867.34 712.07,-864.65 810.05,-863.73"/>
<polygon fill="#5d6972" stroke="#5d6972" stroke-width="1.2" points="810.35,-866.18 817.32,-863.66 810.3,-861.28 810.35,-866.18"/>
</g>
<!-- course__EOS230 -->
<g id="node16" class="node">
<title>course__EOS230</title>
<g id="a_node16"><a xlink:href="../../../courses/EOS230.html" xlink:title="Equivalent or cross&#45;listed: EOS230: Introduction to Environmental Data Analysis | GEOG230: Introduction to Environmental Data Analysis" target="_top">
<path fill="#f9f9f9" stroke="#363636" d="M353,-287.42C353,-287.42 270,-287.42 270,-287.42 264,-287.42 258,-281.42 258,-275.42 258,-275.42 258,-263.42 258,-263.42 258,-257.42 264,-251.42 270,-251.42 270,-251.42 353,-251.42 353,-251.42 359,-251.42 365,-257.42 365,-263.42 365,-263.42 365,-275.42 365,-275.42 365,-281.42 359,-287.42 353,-287.42"/>
<text text-anchor="middle" x="311.5" y="-267.22" font-family="Avenir Next" font-size="9.00" fill="#363636">EOS230 / GEOG230</text>
</a>
</g>
</g>
<!-- course__EOS230&#45;&gt;choice_EOS325_0_2_0 -->
<g id="edge62" class="edge">
<title>course__EOS230&#45;&gt;choice_EOS325_0_2_0</title>
<path fill="none" stroke="#7a8389" d="M365.17,-272.21C408.94,-275.57 472.49,-282.84 526,-298.42 561.71,-308.81 651.32,-342.51 678,-368.42 710.45,-399.93 729.82,-450.16 739.15,-480.25"/>
<polygon fill="#7a8389" stroke="#7a8389" points="736.84,-481.08 741.21,-487.08 741.54,-479.67 736.84,-481.08"/>
</g>
<!-- choice_EOS401_0 -->
<g id="node56" class="node">
<title>choice_EOS401_0</title>
<path fill="#fff7ee" stroke="#b7793f" stroke-width="1.1" d="M1391,-650.42C1391,-650.42 1361,-650.42 1361,-650.42 1355,-650.42 1349,-644.42 1349,-638.42 1349,-638.42 1349,-626.42 1349,-626.42 1349,-620.42 1355,-614.42 1361,-614.42 1361,-614.42 1391,-614.42 1391,-614.42 1397,-614.42 1403,-620.42 1403,-626.42 1403,-626.42 1403,-638.42 1403,-638.42 1403,-644.42 1397,-650.42 1391,-650.42"/>
<text text-anchor="middle" x="1376" y="-630.22" font-family="Avenir Next" font-size="9.00">3 of</text>
</g>
<!-- course__EOS313&#45;&gt;choice_EOS401_0 -->
<g id="edge76" class="edge">
<title>course__EOS313&#45;&gt;choice_EOS401_0</title>
<path fill="none" stroke="#7a8389" d="M338.59,-817.42C391.85,-817.42 516.95,-817.42 622,-817.42 622,-817.42 622,-817.42 1185,-817.42 1275.99,-817.42 1339.72,-707.16 1364.06,-656.89"/>
<polygon fill="#7a8389" stroke="#7a8389" points="1366.31,-657.87 1367.1,-650.49 1361.88,-655.76 1366.31,-657.87"/>
</g>
<!-- course__BIOL150A&#45;&gt;course__BIOL186 -->
<g id="edge2" class="edge">
<title>course__BIOL150A&#45;&gt;course__BIOL186</title>
<path fill="none" stroke="#5d6972" stroke-width="1.2" d="M427.35,-179.78C402.82,-179.87 371.2,-178.79 347.34,-177.04"/>
<polygon fill="#5d6972" stroke="#5d6972" stroke-width="1.2" points="347.38,-174.59 340.21,-176.47 346.99,-179.47 347.38,-174.59"/>
</g>
<!-- course__BIOL150A&#45;&gt;course__BIOL225 -->
<g id="edge4" class="edge">
<title>course__BIOL150A&#45;&gt;course__BIOL225</title>
<path fill="none" stroke="#5d6972" stroke-width="1.2" d="M505.69,-172.46C530.63,-169.88 562.95,-166.53 587.18,-164.02"/>
<polygon fill="#5d6972" stroke="#5d6972" stroke-width="1.2" points="587.72,-166.43 594.43,-163.27 587.21,-161.56 587.72,-166.43"/>
</g>
<!-- course__BIOL150A&#45;&gt;course__EOS330 -->
<g id="edge70" class="edge">
<title>course__BIOL150A&#45;&gt;course__EOS330</title>
<path fill="none" stroke="#5d6972" stroke-width="1.2" d="M505.69,-184.57C531.23,-190.03 564.5,-197.13 588.91,-202.35"/>
<polygon fill="#5d6972" stroke="#5d6972" stroke-width="1.2" points="588.5,-204.77 595.86,-203.83 589.53,-199.97 588.5,-204.77"/>
</g>
<!-- course__EOS201 -->
<g id="node27" class="node">
<title>course__EOS201</title>
<g id="a_node27"><a xlink:href="../../../courses/EOS201.html" xlink:title="EOS201: Sedimentary Geology" target="_top">
<path fill="#d7e9ef" stroke="#1f4f66" stroke-width="1.6" d="M638,-797.42C638,-797.42 608,-797.42 608,-797.42 602,-797.42 596,-791.42 596,-785.42 596,-785.42 596,-773.42 596,-773.42 596,-767.42 602,-761.42 608,-761.42 608,-761.42 638,-761.42 638,-761.42 644,-761.42 650,-767.42 650,-773.42 650,-773.42 650,-785.42 650,-785.42 650,-791.42 644,-797.42 638,-797.42"/>
<text text-anchor="middle" x="623" y="-776.92" font-family="Avenir Next" font-size="10.00" fill="#17232b">EOS201</text>
</a>
</g>
</g>
<!-- course__EOS205&#45;&gt;course__EOS201 -->
<g id="edge25" class="edge">
<title>course__EOS205&#45;&gt;course__EOS201</title>
<path fill="none" stroke="#5d6972" stroke-width="1.2" d="M493.71,-779.42C519.87,-779.42 560.16,-779.42 588.6,-779.42"/>
<polygon fill="#5d6972" stroke="#5d6972" stroke-width="1.2" points="588.92,-781.87 595.92,-779.42 588.92,-776.97 588.92,-781.87"/>
</g>
<!-- course__EOS240 -->
<g id="node28" class="node">
<title>course__EOS240</title>
<g id="a_node28"><a xlink:href="../../../courses/EOS240.html" xlink:title="EOS240: Geochemistry" target="_top">
<path fill="#d7e9ef" stroke="#1f4f66" stroke-width="1.6" d="M638,-745.42C638,-745.42 608,-745.42 608,-745.42 602,-745.42 596,-739.42 596,-733.42 596,-733.42 596,-721.42 596,-721.42 596,-715.42 602,-709.42 608,-709.42 608,-709.42 638,-709.42 638,-709.42 644,-709.42 650,-715.42 650,-721.42 650,-721.42 650,-733.42 650,-733.42 650,-739.42 644,-745.42 638,-745.42"/>
<text text-anchor="middle" x="623" y="-724.92" font-family="Avenir Next" font-size="10.00" fill="#17232b">EOS240</text>
</a>
</g>
</g>
<!-- course__EOS205&#45;&gt;course__EOS240 -->
<g id="edge35" class="edge">
<title>course__EOS205&#45;&gt;course__EOS240</title>
<path fill="none" stroke="#5d6972" stroke-width="1.2" d="M493.71,-770.59C519.98,-761.75 560.5,-748.11 588.96,-738.54"/>
<polygon fill="#5d6972" stroke="#5d6972" stroke-width="1.2" points="590.07,-740.75 595.92,-736.19 588.51,-736.1 590.07,-740.75"/>
</g>
<!-- course__MATH200&#45;&gt;course__STAT254 -->
<g id="edge98" class="edge">
<title>course__MATH200&#45;&gt;course__STAT254</title>
<path fill="none" stroke="#5d6972" stroke-width="1.2" d="M406.92,-358.8C398.67,-354.41 391.25,-348.6 386,-340.92 363.07,-307.33 369.07,-194.89 386,-157.92 394.9,-138.48 412.21,-122.41 428.51,-110.63"/>
<polygon fill="#5d6972" stroke="#5d6972" stroke-width="1.2" points="430.11,-112.5 434.45,-106.49 427.31,-108.48 430.11,-112.5"/>
</g>
<!-- course__MATH204 -->
<g id="node32" class="node">
<title>course__MATH204</title>
<g id="a_node32"><a xlink:href="../../../courses/MATH204.html" xlink:title="MATH204: Calculus IV" target="_top">
<path fill="#d7e9ef" stroke="#1f4f66" stroke-width="1.6" d="M642.5,-305.42C642.5,-305.42 603.5,-305.42 603.5,-305.42 597.5,-305.42 591.5,-299.42 591.5,-293.42 591.5,-293.42 591.5,-281.42 591.5,-281.42 591.5,-275.42 597.5,-269.42 603.5,-269.42 603.5,-269.42 642.5,-269.42 642.5,-269.42 648.5,-269.42 654.5,-275.42 654.5,-281.42 654.5,-281.42 654.5,-293.42 654.5,-293.42 654.5,-299.42 648.5,-305.42 642.5,-305.42"/>
<text text-anchor="middle" x="623" y="-284.92" font-family="Avenir Next" font-size="10.00" fill="#17232b">MATH204</text>
</a>
</g>
</g>
<!-- course__MATH200&#45;&gt;course__MATH204 -->
<g id="edge90" class="edge">
<title>course__MATH200&#45;&gt;course__MATH204</title>
<path fill="none" stroke="#5d6972" stroke-width="1.2" d="M511.92,-354.29C516.72,-352.08 521.5,-349.77 526,-347.42 547.76,-336.05 571.13,-321.5 589.37,-309.57"/>
<polygon fill="#5d6972" stroke="#5d6972" stroke-width="1.2" points="590.85,-311.53 595.35,-305.63 588.15,-307.44 590.85,-311.53"/>
</g>
<!-- course__MATH200&#45;&gt;course__MATH248 -->
<g id="edge91" class="edge">
<title>course__MATH200&#45;&gt;course__MATH248</title>
<path fill="none" stroke="#5d6972" stroke-width="1.2" d="M514.67,-390.43C518.57,-392.32 522.39,-394.32 526,-396.42 551.69,-411.34 578.09,-432.47 596.69,-448.5"/>
<polygon fill="#5d6972" stroke="#5d6972" stroke-width="1.2" points="595.31,-450.55 602.2,-453.29 598.53,-446.85 595.31,-450.55"/>
</g>
<!-- choice_EOS325_0_0 -->
<g id="node53" class="node">
<title>choice_EOS325_0_0</title>
<path fill="#fff7ee" stroke="#b7793f" stroke-width="1.1" d="M762,-386.42C762,-386.42 732,-386.42 732,-386.42 726,-386.42 720,-380.42 720,-374.42 720,-374.42 720,-362.42 720,-362.42 720,-356.42 726,-350.42 732,-350.42 732,-350.42 762,-350.42 762,-350.42 768,-350.42 774,-356.42 774,-362.42 774,-362.42 774,-374.42 774,-374.42 774,-380.42 768,-386.42 762,-386.42"/>
<text text-anchor="middle" x="747" y="-366.22" font-family="Avenir Next" font-size="9.00">1 of</text>
</g>
<!-- course__MATH200&#45;&gt;choice_EOS325_0_0 -->
<g id="edge59" class="edge">
<title>course__MATH200&#45;&gt;choice_EOS325_0_0</title>
<path fill="none" stroke="#7a8389" d="M526.22,-371.57C582.88,-370.76 666.63,-369.56 712.66,-368.89"/>
<polygon fill="#7a8389" stroke="#7a8389" points="712.75,-371.34 719.72,-368.79 712.68,-366.44 712.75,-371.34"/>
</g>
<!-- course__PHYS102B&#45;&gt;course__EOS261 -->
<g id="edge40" class="edge">
<title>course__PHYS102B&#45;&gt;course__EOS261</title>
<path fill="none" stroke="#5d6972" stroke-width="1.2" d="M497.78,-431.05C507.75,-435.4 518.25,-441.4 526,-449.42 558.37,-482.9 541.2,-507.33 568,-545.42 575.2,-555.64 584.69,-565.44 593.7,-573.66"/>
<polygon fill="#5d6972" stroke="#5d6972" stroke-width="1.2" points="592.08,-575.5 598.94,-578.32 595.33,-571.83 592.08,-575.5"/>
</g>
<!-- course__PHYS102B&#45;&gt;course__EOS311 -->
<g id="edge49" class="edge">
<title>course__PHYS102B&#45;&gt;course__EOS311</title>
<path fill="none" stroke="#5d6972" stroke-width="1.2" d="M493.93,-439.55C505.27,-448.55 517.77,-460.29 526,-473.42 562.34,-531.33 523.2,-569.77 568,-621.42 568.35,-621.82 568.71,-622.22 569.08,-622.62"/>
<polygon fill="#5d6972" stroke="#5d6972" stroke-width="1.2" points="567.46,-624.45 574.28,-627.38 570.77,-620.84 567.46,-624.45"/>
</g>
<!-- course__EOS314 -->
<g id="node33" class="node">
<title>course__EOS314</title>
<g id="a_node33"><a xlink:href="../../../courses/EOS314.html" xlink:title="EOS314: Descriptive Physical Oceanography" target="_top">
<path fill="#f9f9f9" stroke="#363636" d="M638,-538.42C638,-538.42 608,-538.42 608,-538.42 602,-538.42 596,-532.42 596,-526.42 596,-526.42 596,-514.42 596,-514.42 596,-508.42 602,-502.42 608,-502.42 608,-502.42 638,-502.42 638,-502.42 644,-502.42 650,-508.42 650,-514.42 650,-514.42 650,-526.42 650,-526.42 650,-532.42 644,-538.42 638,-538.42"/>
<text text-anchor="middle" x="623" y="-518.22" font-family="Avenir Next" font-size="9.00" fill="#363636">EOS314</text>
</a>
</g>
</g>
<!-- course__PHYS102B&#45;&gt;course__EOS314 -->
<g id="edge58" class="edge">
<title>course__PHYS102B&#45;&gt;course__EOS314</title>
<path fill="none" stroke="#5d6972" stroke-width="1.2" d="M497.66,-433.09C507.18,-437.48 517.45,-442.99 526,-449.42 548.4,-466.23 545.36,-479.91 568,-496.42 574.41,-501.09 581.88,-505.13 589.17,-508.49"/>
<polygon fill="#5d6972" stroke="#5d6972" stroke-width="1.2" points="588.4,-510.83 595.79,-511.39 590.36,-506.34 588.4,-510.83"/>
</g>
<!-- course__PHYS102B&#45;&gt;course__MATH248 -->
<g id="edge93" class="edge">
<title>course__PHYS102B&#45;&gt;course__MATH248</title>
<path fill="none" stroke="#5d6972" stroke-width="1.2" d="M497.66,-431.17C515.72,-437.02 539.34,-444.67 561.14,-451.72"/>
<polygon fill="#5d6972" stroke="#5d6972" stroke-width="1.2" points="560.42,-454.06 567.84,-453.89 561.93,-449.4 560.42,-454.06"/>
</g>
<!-- course__EOS325 -->
<g id="node38" class="node">
<title>course__EOS325</title>
<g id="a_node38"><a xlink:href="../../../courses/EOS325.html" xlink:title="EOS325: Earth System Modelling" target="_top">
<path fill="#d7e9ef" stroke="#1f4f66" stroke-width="1.6" d="M859.5,-449.42C859.5,-449.42 829.5,-449.42 829.5,-449.42 823.5,-449.42 817.5,-443.42 817.5,-437.42 817.5,-437.42 817.5,-425.42 817.5,-425.42 817.5,-419.42 823.5,-413.42 829.5,-413.42 829.5,-413.42 859.5,-413.42 859.5,-413.42 865.5,-413.42 871.5,-419.42 871.5,-425.42 871.5,-425.42 871.5,-437.42 871.5,-437.42 871.5,-443.42 865.5,-449.42 859.5,-449.42"/>
<text text-anchor="middle" x="844.5" y="-428.92" font-family="Avenir Next" font-size="10.00" fill="#17232b">EOS325</text>
</a>
</g>
</g>
<!-- course__PHYS102B&#45;&gt;course__EOS325 -->
<g id="edge67" class="edge">
<title>course__PHYS102B&#45;&gt;course__EOS325</title>
<path fill="none" stroke="#5d6972" stroke-width="1.2" d="M497.63,-422.22C567.05,-424.06 737.79,-428.6 810.19,-430.53"/>
<polygon fill="#5d6972" stroke="#5d6972" stroke-width="1.2" points="810.23,-432.98 817.29,-430.72 810.36,-428.08 810.23,-432.98"/>
</g>
<!-- course__EOS431 -->
<g id="node44" class="node">
<title>course__EOS431</title>
<g id="a_node44"><a xlink:href="../../../courses/EOS431.html" xlink:title="Equivalent or cross&#45;listed: EOS431: Physical Oceanography | PHYS441: Physical Oceanography" target="_top">
<path fill="#f9f9f9" stroke="#363636" d="M1103,-488.42C1103,-488.42 1023,-488.42 1023,-488.42 1017,-488.42 1011,-482.42 1011,-476.42 1011,-476.42 1011,-464.42 1011,-464.42 1011,-458.42 1017,-452.42 1023,-452.42 1023,-452.42 1103,-452.42 1103,-452.42 1109,-452.42 1115,-458.42 1115,-464.42 1115,-464.42 1115,-476.42 1115,-476.42 1115,-482.42 1109,-488.42 1103,-488.42"/>
<text text-anchor="middle" x="1063" y="-468.22" font-family="Avenir Next" font-size="9.00" fill="#363636">EOS431 / PHYS441</text>
</a>
</g>
</g>
<!-- course__PHYS102B&#45;&gt;course__EOS431 -->
<g id="edge82" class="edge">
<title>course__PHYS102B&#45;&gt;course__EOS431</title>
<path fill="none" stroke="#5d6972" stroke-width="1.2" d="M497.84,-418.97C599.52,-410.93 924.43,-386.69 969,-401.42 996.33,-410.45 1022.18,-430.96 1039.66,-447.29"/>
<polygon fill="#5d6972" stroke="#5d6972" stroke-width="1.2" points="1038.05,-449.14 1044.81,-452.2 1041.44,-445.6 1038.05,-449.14"/>
</g>
<!-- course__BIOL330 -->
<g id="node40" class="node">
<title>course__BIOL330</title>
<g id="a_node40"><a xlink:href="../../../courses/BIOL330.html" xlink:title="BIOL330: Study Design and Data Analysis" target="_top">
<path fill="#d7e9ef" stroke="#1f4f66" stroke-width="1.6" d="M1079.5,-70.42C1079.5,-70.42 1046.5,-70.42 1046.5,-70.42 1040.5,-70.42 1034.5,-64.42 1034.5,-58.42 1034.5,-58.42 1034.5,-46.42 1034.5,-46.42 1034.5,-40.42 1040.5,-34.42 1046.5,-34.42 1046.5,-34.42 1079.5,-34.42 1079.5,-34.42 1085.5,-34.42 1091.5,-40.42 1091.5,-46.42 1091.5,-46.42 1091.5,-58.42 1091.5,-58.42 1091.5,-64.42 1085.5,-70.42 1079.5,-70.42"/>
<text text-anchor="middle" x="1063" y="-49.92" font-family="Avenir Next" font-size="10.00" fill="#17232b">BIOL330</text>
</a>
</g>
</g>
<!-- course__STAT254&#45;&gt;course__BIOL330 -->
<g id="edge10" class="edge">
<title>course__STAT254&#45;&gt;course__BIOL330</title>
<path fill="none" stroke="#5d6972" stroke-width="1.2" d="M509.59,-76.8C563.81,-62.88 661.17,-41.42 746,-41.42 746,-41.42 746,-41.42 845.5,-41.42 909.72,-41.42 984.51,-46.3 1027.25,-49.56"/>
<polygon fill="#5d6972" stroke="#5d6972" stroke-width="1.2" points="1027.17,-52.01 1034.34,-50.11 1027.55,-47.13 1027.17,-52.01"/>
</g>
<!-- course__BIOL370 -->
<g id="node42" class="node">
<title>course__BIOL370</title>
<g id="a_node42"><a xlink:href="../../../courses/BIOL370.html" xlink:title="BIOL370: Conservation Biology" target="_top">
<path fill="#ead9b8" stroke="#8f6a3b" stroke-width="1.3" d="M1079.5,-119.42C1079.5,-119.42 1046.5,-119.42 1046.5,-119.42 1040.5,-119.42 1034.5,-113.42 1034.5,-107.42 1034.5,-107.42 1034.5,-95.42 1034.5,-95.42 1034.5,-89.42 1040.5,-83.42 1046.5,-83.42 1046.5,-83.42 1079.5,-83.42 1079.5,-83.42 1085.5,-83.42 1091.5,-89.42 1091.5,-95.42 1091.5,-95.42 1091.5,-107.42 1091.5,-107.42 1091.5,-113.42 1085.5,-119.42 1079.5,-119.42"/>
<text text-anchor="middle" x="1063" y="-98.92" font-family="Avenir Next" font-size="10.00" fill="#3f3120">BIOL370</text>
</a>
</g>
</g>
<!-- course__STAT254&#45;&gt;course__BIOL370 -->
<g id="edge15" class="edge">
<title>course__STAT254&#45;&gt;course__BIOL370</title>
<path fill="none" stroke="#5d6972" stroke-width="1.2" d="M509.9,-83.47C564.44,-77.55 662.14,-68.42 746,-68.42 746,-68.42 746,-68.42 845.5,-68.42 910.19,-68.42 984.54,-82.99 1027.12,-92.77"/>
<polygon fill="#5d6972" stroke="#5d6972" stroke-width="1.2" points="1026.81,-95.22 1034.18,-94.42 1027.92,-90.44 1026.81,-95.22"/>
</g>
<!-- course__EOS210&#45;&gt;choice_EOS325_0_2_0 -->
<g id="edge61" class="edge">
<title>course__EOS210&#45;&gt;choice_EOS325_0_2_0</title>
<path fill="none" stroke="#7a8389" d="M512.62,-340.89C517.2,-342.97 521.73,-345.16 526,-347.42 597.52,-385.16 613.34,-398.86 678,-447.42 692.53,-458.32 707.99,-471.38 720.49,-482.35"/>
<polygon fill="#7a8389" stroke="#7a8389" points="719.14,-484.43 726.01,-487.22 722.39,-480.75 719.14,-484.43"/>
</g>
<!-- course__BIOL215 -->
<g id="node25" class="node">
<title>course__BIOL215</title>
<g id="a_node25"><a xlink:href="../../../courses/BIOL215.html" xlink:title="BIOL215: Principles of Ecology" target="_top">
<path fill="#d7e9ef" stroke="#1f4f66" stroke-width="1.6" d="M639.5,-129.42C639.5,-129.42 606.5,-129.42 606.5,-129.42 600.5,-129.42 594.5,-123.42 594.5,-117.42 594.5,-117.42 594.5,-105.42 594.5,-105.42 594.5,-99.42 600.5,-93.42 606.5,-93.42 606.5,-93.42 639.5,-93.42 639.5,-93.42 645.5,-93.42 651.5,-99.42 651.5,-105.42 651.5,-105.42 651.5,-117.42 651.5,-117.42 651.5,-123.42 645.5,-129.42 639.5,-129.42"/>
<text text-anchor="middle" x="623" y="-108.92" font-family="Avenir Next" font-size="10.00" fill="#17232b">BIOL215</text>
</a>
</g>
</g>
<!-- course__BIOL215&#45;&gt;course__BIOL370 -->
<g id="edge13" class="edge">
<title>course__BIOL215&#45;&gt;course__BIOL370</title>
<path fill="none" stroke="#5d6972" stroke-width="1.2" d="M651.73,-110.78C728.38,-109.03 943.02,-104.13 1027.36,-102.21"/>
<polygon fill="#5d6972" stroke="#5d6972" stroke-width="1.2" points="1027.45,-104.66 1034.39,-102.05 1027.34,-99.76 1027.45,-104.66"/>
</g>
<!-- choice_BIOL330_0_2 -->
<g id="node47" class="node">
<title>choice_BIOL330_0_2</title>
<path fill="#fff7ee" stroke="#b7793f" stroke-width="1.1" d="M957,-159.42C957,-159.42 927,-159.42 927,-159.42 921,-159.42 915,-153.42 915,-147.42 915,-147.42 915,-135.42 915,-135.42 915,-129.42 921,-123.42 927,-123.42 927,-123.42 957,-123.42 957,-123.42 963,-123.42 969,-129.42 969,-135.42 969,-135.42 969,-147.42 969,-147.42 969,-153.42 963,-159.42 957,-159.42"/>
<text text-anchor="middle" x="942" y="-139.22" font-family="Avenir Next" font-size="9.00">1 of</text>
</g>
<!-- course__BIOL215&#45;&gt;choice_BIOL330_0_2 -->
<g id="edge7" class="edge">
<title>course__BIOL215&#45;&gt;choice_BIOL330_0_2</title>
<path fill="none" stroke="#7a8389" d="M651.58,-114.03C709.62,-119.52 844.23,-132.26 907.28,-138.22"/>
<polygon fill="#7a8389" stroke="#7a8389" points="907.41,-140.7 914.61,-138.92 907.87,-135.82 907.41,-140.7"/>
</g>
<!-- choice_BIOL457_0_0 -->
<g id="node48" class="node">
<title>choice_BIOL457_0_0</title>
<path fill="#fff7ee" stroke="#b7793f" stroke-width="1.1" d="M762,-205.42C762,-205.42 732,-205.42 732,-205.42 726,-205.42 720,-199.42 720,-193.42 720,-193.42 720,-181.42 720,-181.42 720,-175.42 726,-169.42 732,-169.42 732,-169.42 762,-169.42 762,-169.42 768,-169.42 774,-175.42 774,-181.42 774,-181.42 774,-193.42 774,-193.42 774,-199.42 768,-205.42 762,-205.42"/>
<text text-anchor="middle" x="747" y="-185.22" font-family="Avenir Next" font-size="9.00">1 of</text>
</g>
<!-- course__BIOL215&#45;&gt;choice_BIOL457_0_0 -->
<g id="edge16" class="edge">
<title>course__BIOL215&#45;&gt;choice_BIOL457_0_0</title>
<path fill="none" stroke="#7a8389" d="M651.54,-122.17C660.22,-125.95 669.71,-130.49 678,-135.42 692.28,-143.89 707.05,-154.87 719.15,-164.56"/>
<polygon fill="#7a8389" stroke="#7a8389" points="717.89,-166.69 724.87,-169.19 720.98,-162.88 717.89,-166.69"/>
</g>
<!-- course__BIOL225&#45;&gt;course__BIOL230 -->
<g id="edge5" class="edge">
<title>course__BIOL225&#45;&gt;course__BIOL230</title>
<path fill="none" stroke="#5d6972" stroke-width="1.2" d="M651.59,-171.7C660.18,-175.48 669.6,-179.89 678,-184.42 697.53,-194.95 699.44,-203.07 720,-211.42 748.6,-223.02 783.18,-229.43 808.47,-232.84"/>
<polygon fill="#5d6972" stroke="#5d6972" stroke-width="1.2" points="808.41,-235.3 815.67,-233.77 809.04,-230.44 808.41,-235.3"/>
</g>
<!-- course__BIOL225&#45;&gt;choice_BIOL330_0_2 -->
<g id="edge8" class="edge">
<title>course__BIOL225&#45;&gt;choice_BIOL330_0_2</title>
<path fill="none" stroke="#7a8389" d="M651.58,-158.76C709.62,-155.28 844.23,-147.22 907.28,-143.44"/>
<polygon fill="#7a8389" stroke="#7a8389" points="907.77,-145.86 914.61,-143 907.47,-140.97 907.77,-145.86"/>
</g>
<!-- course__EOS201&#45;&gt;course__EOS300 -->
<g id="edge42" class="edge">
<title>course__EOS201&#45;&gt;course__EOS300</title>
<path fill="none" stroke="#5d6972" stroke-width="1.2" d="M650.04,-789.38C690.14,-804.73 766.95,-834.12 810.76,-850.88"/>
<polygon fill="#5d6972" stroke="#5d6972" stroke-width="1.2" points="810.08,-853.25 817.49,-853.46 811.83,-848.67 810.08,-853.25"/>
</g>
<!-- course__EOS335 -->
<g id="node39" class="node">
<title>course__EOS335</title>
<g id="a_node39"><a xlink:href="../../../courses/EOS335.html" xlink:title="EOS335: Isotopes in Natural Sciences" target="_top">
<path fill="#d7e9ef" stroke="#1f4f66" stroke-width="1.6" d="M859.5,-742.42C859.5,-742.42 829.5,-742.42 829.5,-742.42 823.5,-742.42 817.5,-736.42 817.5,-730.42 817.5,-730.42 817.5,-718.42 817.5,-718.42 817.5,-712.42 823.5,-706.42 829.5,-706.42 829.5,-706.42 859.5,-706.42 859.5,-706.42 865.5,-706.42 871.5,-712.42 871.5,-718.42 871.5,-718.42 871.5,-730.42 871.5,-730.42 871.5,-736.42 865.5,-742.42 859.5,-742.42"/>
<text text-anchor="middle" x="844.5" y="-721.92" font-family="Avenir Next" font-size="10.00" fill="#17232b">EOS335</text>
</a>
</g>
</g>
<!-- course__EOS240&#45;&gt;course__EOS335 -->
<g id="edge71" class="edge">
<title>course__EOS240&#45;&gt;course__EOS335</title>
<path fill="none" stroke="#5d6972" stroke-width="1.2" d="M650.04,-727.06C690.06,-726.51 766.63,-725.47 810.48,-724.87"/>
<polygon fill="#5d6972" stroke="#5d6972" stroke-width="1.2" points="810.53,-727.32 817.49,-724.77 810.46,-722.42 810.53,-727.32"/>
</g>
<!-- course__EOS460 -->
<g id="node43" class="node">
<title>course__EOS460</title>
<g id="a_node43"><a xlink:href="../../../courses/EOS460.html" xlink:title="EOS460: Earth System Science" target="_top">
<path fill="#dbe8d2" stroke="#567447" stroke-width="1.3" d="M1078,-626.42C1078,-626.42 1048,-626.42 1048,-626.42 1042,-626.42 1036,-620.42 1036,-614.42 1036,-614.42 1036,-602.42 1036,-602.42 1036,-596.42 1042,-590.42 1048,-590.42 1048,-590.42 1078,-590.42 1078,-590.42 1084,-590.42 1090,-596.42 1090,-602.42 1090,-602.42 1090,-614.42 1090,-614.42 1090,-620.42 1084,-626.42 1078,-626.42"/>
<text text-anchor="middle" x="1063" y="-605.92" font-family="Avenir Next" font-size="10.00" fill="#24311e">EOS460</text>
</a>
</g>
</g>
<!-- course__EOS261&#45;&gt;course__EOS460 -->
<g id="edge86" class="edge">
<title>course__EOS261&#45;&gt;course__EOS460</title>
<path fill="none" stroke="#5d6972" stroke-width="1.2" d="M650.09,-597.13C725.62,-599.2 944.44,-605.19 1028.54,-607.5"/>
<polygon fill="#5d6972" stroke="#5d6972" stroke-width="1.2" points="1028.71,-609.95 1035.77,-607.7 1028.84,-605.06 1028.71,-609.95"/>
</g>
<!-- course__EOS261&#45;&gt;choice_EOS325_0_2_0 -->
<g id="edge63" class="edge">
<title>course__EOS261&#45;&gt;choice_EOS325_0_2_0</title>
<path fill="none" stroke="#7a8389" d="M650.09,-584.66C659.23,-580.09 669.36,-574.49 678,-568.42 694.47,-556.83 711.09,-541.52 723.77,-528.9"/>
<polygon fill="#7a8389" stroke="#7a8389" points="725.77,-530.36 728.95,-523.67 722.29,-526.91 725.77,-530.36"/>
</g>
<!-- course__EOS311&#45;&gt;choice_EOS401_0 -->
<g id="edge74" class="edge">
<title>course__EOS311&#45;&gt;choice_EOS401_0</title>
<path fill="none" stroke="#7a8389" d="M675.01,-645.78C719.49,-646.07 785.77,-646.42 843.5,-646.42 843.5,-646.42 843.5,-646.42 1185,-646.42 1240.04,-646.42 1303.81,-640.5 1341.7,-636.36"/>
<polygon fill="#7a8389" stroke="#7a8389" points="1342.23,-638.77 1348.92,-635.56 1341.69,-633.9 1342.23,-638.77"/>
</g>
<!-- course__EOS330&#45;&gt;choice_BIOL457_0_0 -->
<g id="edge17" class="edge">
<title>course__EOS330&#45;&gt;choice_BIOL457_0_0</title>
<path fill="none" stroke="#7a8389" d="M650.17,-204.7C668.51,-201.39 693.15,-196.95 712.86,-193.39"/>
<polygon fill="#7a8389" stroke="#7a8389" points="713.42,-195.78 719.87,-192.13 712.55,-190.96 713.42,-195.78"/>
</g>
<!-- course__MATH204&#45;&gt;choice_EOS325_0_0 -->
<g id="edge60" class="edge">
<title>course__MATH204&#45;&gt;choice_EOS325_0_0</title>
<path fill="none" stroke="#7a8389" d="M654.54,-302.01C662.35,-306.08 670.62,-310.68 678,-315.42 692.08,-324.44 706.82,-335.68 718.96,-345.49"/>
<polygon fill="#7a8389" stroke="#7a8389" points="717.73,-347.64 724.7,-350.17 720.83,-343.85 717.73,-347.64"/>
</g>
<!-- choice_EOS431_0_0 -->
<g id="node57" class="node">
<title>choice_EOS431_0_0</title>
<path fill="#fff7ee" stroke="#b7793f" stroke-width="1.1" d="M957,-444.42C957,-444.42 927,-444.42 927,-444.42 921,-444.42 915,-438.42 915,-432.42 915,-432.42 915,-420.42 915,-420.42 915,-414.42 921,-408.42 927,-408.42 927,-408.42 957,-408.42 957,-408.42 963,-408.42 969,-414.42 969,-420.42 969,-420.42 969,-432.42 969,-432.42 969,-438.42 963,-444.42 957,-444.42"/>
<text text-anchor="middle" x="942" y="-424.22" font-family="Avenir Next" font-size="9.00">1 of</text>
</g>
<!-- course__MATH204&#45;&gt;choice_EOS431_0_0 -->
<g id="edge80" class="edge">
<title>course__MATH204&#45;&gt;choice_EOS431_0_0</title>
<path fill="none" stroke="#7a8389" d="M654.53,-297.77C685.11,-308.38 733.33,-325.77 774,-343.42 821.62,-364.07 875.09,-391.41 908.4,-408.95"/>
<polygon fill="#7a8389" stroke="#7a8389" points="907.46,-411.22 914.79,-412.33 909.75,-406.89 907.46,-411.22"/>
</g>
<!-- course__EOS314&#45;&gt;choice_EOS312_0_0 -->
<g id="edge51" class="edge">
<title>course__EOS314&#45;&gt;choice_EOS312_0_0</title>
<path fill="none" stroke="#7a8389" d="M650.26,-524.96C691.35,-531.66 773.38,-543.42 843.5,-543.42 843.5,-543.42 843.5,-543.42 943,-543.42 1017.34,-543.42 1103.63,-529.07 1149.8,-520.22"/>
<polygon fill="#7a8389" stroke="#7a8389" points="1150.45,-522.59 1156.85,-518.85 1149.52,-517.78 1150.45,-522.59"/>
</g>
<!-- course__EOS314&#45;&gt;choice_EOS325_0_2_0 -->
<g id="edge64" class="edge">
<title>course__EOS314&#45;&gt;choice_EOS325_0_2_0</title>
<path fill="none" stroke="#7a8389" d="M650.17,-517.2C668.51,-514.94 693.15,-511.91 712.86,-509.49"/>
<polygon fill="#7a8389" stroke="#7a8389" points="713.22,-511.91 719.87,-508.63 712.62,-507.05 713.22,-511.91"/>
</g>
<!-- choice_EOS401_0_3 -->
<g id="node55" class="node">
<title>choice_EOS401_0_3</title>
<path fill="#fff7ee" stroke="#b7793f" stroke-width="1.1" d="M1199,-588.42C1199,-588.42 1169,-588.42 1169,-588.42 1163,-588.42 1157,-582.42 1157,-576.42 1157,-576.42 1157,-564.42 1157,-564.42 1157,-558.42 1163,-552.42 1169,-552.42 1169,-552.42 1199,-552.42 1199,-552.42 1205,-552.42 1211,-558.42 1211,-564.42 1211,-564.42 1211,-576.42 1211,-576.42 1211,-582.42 1205,-588.42 1199,-588.42"/>
<text text-anchor="middle" x="1184" y="-568.22" font-family="Avenir Next" font-size="9.00">1 of</text>
</g>
<!-- course__EOS314&#45;&gt;choice_EOS401_0_3 -->
<g id="edge72" class="edge">
<title>course__EOS314&#45;&gt;choice_EOS401_0_3</title>
<path fill="none" stroke="#7a8389" d="M650.25,-530.41C690.99,-545.01 772.17,-570.42 843.5,-570.42 843.5,-570.42 843.5,-570.42 943,-570.42 1016.76,-570.42 1103.28,-570.42 1149.63,-570.42"/>
<polygon fill="#7a8389" stroke="#7a8389" points="1149.72,-572.87 1156.72,-570.42 1149.72,-567.97 1149.72,-572.87"/>
</g>
<!-- choice_EOS460_0_0 -->
<g id="node58" class="node">
<title>choice_EOS460_0_0</title>
<path fill="#fff7ee" stroke="#b7793f" stroke-width="1.1" d="M957,-493.42C957,-493.42 927,-493.42 927,-493.42 921,-493.42 915,-487.42 915,-481.42 915,-481.42 915,-469.42 915,-469.42 915,-463.42 921,-457.42 927,-457.42 927,-457.42 957,-457.42 957,-457.42 963,-457.42 969,-463.42 969,-469.42 969,-469.42 969,-481.42 969,-481.42 969,-487.42 963,-493.42 957,-493.42"/>
<text text-anchor="middle" x="942" y="-473.22" font-family="Avenir Next" font-size="9.00">1 of</text>
</g>
<!-- course__MATH248&#45;&gt;choice_EOS460_0_0 -->
<g id="edge84" class="edge">
<title>course__MATH248&#45;&gt;choice_EOS460_0_0</title>
<path fill="none" stroke="#7a8389" d="M678.13,-472.1C743.97,-472.93 853.04,-474.31 907.67,-475"/>
<polygon fill="#7a8389" stroke="#7a8389" points="907.66,-477.45 914.69,-475.08 907.72,-472.55 907.66,-477.45"/>
</g>
<!-- course__BIOL355 -->
<g id="node41" class="node">
<title>course__BIOL355</title>
<g id="a_node41"><a xlink:href="../../../courses/BIOL355.html" xlink:title="BIOL355: Evolution" target="_top">
<path fill="#ead9b8" stroke="#8f6a3b" stroke-width="1.3" d="M1079.5,-254.42C1079.5,-254.42 1046.5,-254.42 1046.5,-254.42 1040.5,-254.42 1034.5,-248.42 1034.5,-242.42 1034.5,-242.42 1034.5,-230.42 1034.5,-230.42 1034.5,-224.42 1040.5,-218.42 1046.5,-218.42 1046.5,-218.42 1079.5,-218.42 1079.5,-218.42 1085.5,-218.42 1091.5,-224.42 1091.5,-230.42 1091.5,-230.42 1091.5,-242.42 1091.5,-242.42 1091.5,-248.42 1085.5,-254.42 1079.5,-254.42"/>
<text text-anchor="middle" x="1063" y="-233.92" font-family="Avenir Next" font-size="10.00" fill="#3f3120">BIOL355</text>
</a>
</g>
</g>
<!-- course__BIOL230&#45;&gt;course__BIOL355 -->
<g id="edge12" class="edge">
<title>course__BIOL230&#45;&gt;course__BIOL355</title>
<path fill="none" stroke="#5d6972" stroke-width="1.2" d="M873.36,-236.42C912.66,-236.42 984.34,-236.42 1027.12,-236.42"/>
<polygon fill="#5d6972" stroke="#5d6972" stroke-width="1.2" points="1027.25,-238.87 1034.25,-236.42 1027.25,-233.97 1027.25,-238.87"/>
</g>
<!-- course__BIOL230&#45;&gt;course__BIOL370 -->
<g id="edge14" class="edge">
<title>course__BIOL230&#45;&gt;course__BIOL370</title>
<path fill="none" stroke="#5d6972" stroke-width="1.2" d="M873.35,-221.25C898.63,-207.29 936.78,-185.72 969,-165.42 990.01,-152.18 1013,-136.37 1030.86,-123.78"/>
<polygon fill="#5d6972" stroke="#5d6972" stroke-width="1.2" points="1032.41,-125.68 1036.71,-119.64 1029.58,-121.68 1032.41,-125.68"/>
</g>
<!-- course__BIOL230&#45;&gt;choice_BIOL330_0_2 -->
<g id="edge9" class="edge">
<title>course__BIOL230&#45;&gt;choice_BIOL330_0_2</title>
<path fill="none" stroke="#7a8389" d="M865.76,-218.26C868.22,-215.98 870.68,-213.66 873,-211.42 888.7,-196.23 905.82,-178.59 918.96,-164.82"/>
<polygon fill="#7a8389" stroke="#7a8389" points="920.92,-166.32 923.97,-159.55 917.37,-162.94 920.92,-166.32"/>
</g>
<!-- course__BIOL457 -->
<g id="node36" class="node">
<title>course__BIOL457</title>
<g id="a_node36"><a xlink:href="../../../courses/BIOL457.html" xlink:title="BIOL457: Paleoecology and Environmental Change" target="_top">
<path fill="#ead9b8" stroke="#8f6a3b" stroke-width="1.3" d="M861,-205.42C861,-205.42 828,-205.42 828,-205.42 822,-205.42 816,-199.42 816,-193.42 816,-193.42 816,-181.42 816,-181.42 816,-175.42 822,-169.42 828,-169.42 828,-169.42 861,-169.42 861,-169.42 867,-169.42 873,-175.42 873,-181.42 873,-181.42 873,-193.42 873,-193.42 873,-199.42 867,-205.42 861,-205.42"/>
<text text-anchor="middle" x="844.5" y="-184.92" font-family="Avenir Next" font-size="10.00" fill="#3f3120">BIOL457</text>
</a>
</g>
</g>
<!-- course__EOS325&#45;&gt;choice_EOS431_0_0 -->
<g id="edge79" class="edge">
<title>course__EOS325&#45;&gt;choice_EOS431_0_0</title>
<path fill="none" stroke="#7a8389" d="M871.6,-430.05C882.75,-429.47 895.92,-428.78 907.76,-428.16"/>
<polygon fill="#7a8389" stroke="#7a8389" points="908.07,-430.59 914.94,-427.78 907.82,-425.7 908.07,-430.59"/>
</g>
<!-- course__EOS325&#45;&gt;choice_EOS460_0_0 -->
<g id="edge83" class="edge">
<title>course__EOS325&#45;&gt;choice_EOS460_0_0</title>
<path fill="none" stroke="#7a8389" d="M871.6,-443.44C882.97,-448.68 896.41,-454.87 908.43,-460.41"/>
<polygon fill="#7a8389" stroke="#7a8389" points="907.55,-462.7 914.94,-463.41 909.6,-458.25 907.55,-462.7"/>
</g>
<!-- course__EOS335&#45;&gt;course__EOS460 -->
<g id="edge87" class="edge">
<title>course__EOS335&#45;&gt;course__EOS460</title>
<path fill="none" stroke="#5d6972" stroke-width="1.2" d="M871.61,-710.42C911.2,-689.22 986.32,-648.97 1029.42,-625.87"/>
<polygon fill="#5d6972" stroke="#5d6972" stroke-width="1.2" points="1030.78,-627.92 1035.79,-622.46 1028.47,-623.6 1030.78,-627.92"/>
</g>
<!-- course__EOS431&#45;&gt;choice_EOS312_0_0 -->
<g id="edge52" class="edge">
<title>course__EOS431&#45;&gt;choice_EOS312_0_0</title>
<path fill="none" stroke="#7a8389" d="M1114.12,-488.53C1126.33,-492.94 1139.07,-497.54 1150.23,-501.57"/>
<polygon fill="#7a8389" stroke="#7a8389" points="1149.54,-503.93 1156.95,-504 1151.2,-499.32 1149.54,-503.93"/>
</g>
<!-- course__EOS431&#45;&gt;choice_EOS401_0_3 -->
<g id="edge73" class="edge">
<title>course__EOS431&#45;&gt;choice_EOS401_0_3</title>
<path fill="none" stroke="#7a8389" d="M1085.55,-488.52C1105.22,-505.06 1134.4,-529.58 1155.7,-547.47"/>
<polygon fill="#7a8389" stroke="#7a8389" points="1154.27,-549.48 1161.21,-552.1 1157.43,-545.72 1154.27,-549.48"/>
</g>
<!-- course__EOS312&#45;&gt;choice_EOS401_0 -->
<g id="edge75" class="edge">
<title>course__EOS312&#45;&gt;choice_EOS401_0</title>
<path fill="none" stroke="#7a8389" d="M1307.18,-595.62C1318.18,-601.59 1331.09,-608.59 1342.68,-614.88"/>
<polygon fill="#7a8389" stroke="#7a8389" points="1341.64,-617.1 1348.96,-618.29 1343.97,-612.79 1341.64,-617.1"/>
</g>
<!-- course__EOS401 -->
<g id="node46" class="node">
<title>course__EOS401</title>
<g id="a_node46"><a xlink:href="../../../courses/EOS401.html" xlink:title="EOS401: Oceanographic Field School" target="_top">
<path fill="#dbe8d2" stroke="#567447" stroke-width="1.3" d="M1487,-650.42C1487,-650.42 1457,-650.42 1457,-650.42 1451,-650.42 1445,-644.42 1445,-638.42 1445,-638.42 1445,-626.42 1445,-626.42 1445,-620.42 1451,-614.42 1457,-614.42 1457,-614.42 1487,-614.42 1487,-614.42 1493,-614.42 1499,-620.42 1499,-626.42 1499,-626.42 1499,-638.42 1499,-638.42 1499,-644.42 1493,-650.42 1487,-650.42"/>
<text text-anchor="middle" x="1472" y="-629.92" font-family="Avenir Next" font-size="10.00" fill="#24311e">EOS401</text>
</a>
</g>
</g>
<!-- choice_BIOL330_0_2&#45;&gt;course__BIOL330 -->
<g id="edge11" class="edge">
<title>choice_BIOL330_0_2&#45;&gt;course__BIOL330</title>
<path fill="none" stroke="#5d6972" stroke-width="1.2" d="M958.99,-123.2C971.99,-109.15 991.34,-89.91 1011,-76.42 1016.27,-72.8 1022.18,-69.46 1028.05,-66.5"/>
<polygon fill="#5d6972" stroke="#5d6972" stroke-width="1.2" points="1029.14,-68.69 1034.37,-63.44 1027.01,-64.28 1029.14,-68.69"/>
</g>
<!-- choice_BIOL457_0_0&#45;&gt;course__BIOL457 -->
<g id="edge18" class="edge">
<title>choice_BIOL457_0_0&#45;&gt;course__BIOL457</title>
<path fill="none" stroke="#5d6972" stroke-width="1.2" d="M774.1,-187.42C784.7,-187.42 797.1,-187.42 808.47,-187.42"/>
<polygon fill="#5d6972" stroke="#5d6972" stroke-width="1.2" points="808.77,-189.87 815.77,-187.42 808.77,-184.97 808.77,-189.87"/>
</g>
<!-- choice_EOS230_0_1&#45;&gt;course__EOS230 -->
<g id="edge34" class="edge">
<title>choice_EOS230_0_1&#45;&gt;course__EOS230</title>
<path fill="none" stroke="#5d6972" stroke-width="1.2" d="M216.15,-269.42C226.33,-269.42 238.45,-269.42 250.56,-269.42"/>
<polygon fill="#5d6972" stroke="#5d6972" stroke-width="1.2" points="250.67,-271.87 257.67,-269.42 250.67,-266.97 250.67,-271.87"/>
</g>
<!-- choice_EOS230_0_1&#45;&gt;course__EOS261 -->
<g id="edge38" class="edge">
<title>choice_EOS230_0_1&#45;&gt;course__EOS261</title>
<path fill="none" stroke="#5d6972" stroke-width="1.2" d="M192.85,-287.56C198.84,-319.33 215.85,-384.85 258,-418.42 305.56,-456.29 476.61,-437.96 526,-473.42 556.1,-495.02 544.97,-516.4 568,-545.42 575.91,-555.38 585.74,-565.23 594.84,-573.59"/>
<polygon fill="#5d6972" stroke="#5d6972" stroke-width="1.2" points="593.25,-575.46 600.09,-578.32 596.53,-571.82 593.25,-575.46"/>
</g>
<!-- choice_EOS261_0_4&#45;&gt;course__EOS261 -->
<g id="edge41" class="edge">
<title>choice_EOS261_0_4&#45;&gt;course__EOS261</title>
<path fill="none" stroke="#5d6972" stroke-width="1.2" d="M493.71,-599.74C519.87,-599.06 560.16,-598.02 588.6,-597.28"/>
<polygon fill="#5d6972" stroke="#5d6972" stroke-width="1.2" points="588.99,-599.72 595.92,-597.09 588.86,-594.82 588.99,-599.72"/>
</g>
<!-- choice_EOS311_0_2&#45;&gt;course__EOS311 -->
<g id="edge48" class="edge">
<title>choice_EOS311_0_2&#45;&gt;course__EOS311</title>
<path fill="none" stroke="#5d6972" stroke-width="1.2" d="M480.63,-515.66C502.82,-546.12 547.33,-605.57 568,-621.42 568.95,-622.15 569.93,-622.86 570.93,-623.55"/>
<polygon fill="#5d6972" stroke="#5d6972" stroke-width="1.2" points="569.64,-625.64 576.85,-627.36 572.29,-621.51 569.64,-625.64"/>
</g>
<!-- choice_EOS311_0_2&#45;&gt;course__EOS314 -->
<g id="edge57" class="edge">
<title>choice_EOS311_0_2&#45;&gt;course__EOS314</title>
<path fill="none" stroke="#5d6972" stroke-width="1.2" d="M493.71,-501.32C519.98,-505.23 560.5,-511.26 588.96,-515.5"/>
<polygon fill="#5d6972" stroke="#5d6972" stroke-width="1.2" points="588.64,-517.93 595.92,-516.53 589.36,-513.08 588.64,-517.93"/>
</g>
<!-- choice_EOS312_0_0&#45;&gt;course__EOS312 -->
<g id="edge53" class="edge">
<title>choice_EOS312_0_0&#45;&gt;course__EOS312</title>
<path fill="none" stroke="#5d6972" stroke-width="1.2" d="M1210.19,-531.64C1221.87,-540.09 1235.87,-550.21 1248.18,-559.12"/>
<polygon fill="#5d6972" stroke="#5d6972" stroke-width="1.2" points="1246.96,-561.26 1254.07,-563.38 1249.83,-557.29 1246.96,-561.26"/>
</g>
<!-- choice_EOS325_0_0&#45;&gt;course__EOS325 -->
<g id="edge66" class="edge">
<title>choice_EOS325_0_0&#45;&gt;course__EOS325</title>
<path fill="none" stroke="#5d6972" stroke-width="1.2" d="M774.1,-385.63C785.57,-393.2 799.16,-402.17 811.26,-410.15"/>
<polygon fill="#5d6972" stroke="#5d6972" stroke-width="1.2" points="810.24,-412.41 817.44,-414.22 812.94,-408.32 810.24,-412.41"/>
</g>
<!-- choice_EOS325_0_2_0&#45;&gt;course__EOS325 -->
<g id="edge68" class="edge">
<title>choice_EOS325_0_2_0&#45;&gt;course__EOS325</title>
<path fill="none" stroke="#5d6972" stroke-width="1.2" d="M771.61,-487.12C784.56,-477.09 800.73,-464.56 814.45,-453.93"/>
<polygon fill="#5d6972" stroke="#5d6972" stroke-width="1.2" points="816.13,-455.72 820.16,-449.5 813.13,-451.85 816.13,-455.72"/>
</g>
<!-- choice_EOS401_0_3&#45;&gt;choice_EOS401_0 -->
<g id="edge77" class="edge">
<title>choice_EOS401_0_3&#45;&gt;choice_EOS401_0</title>
<path fill="none" stroke="#7a8389" d="M1211.02,-586.38C1223.37,-593.37 1238.56,-601.17 1253,-606.42 1282.09,-616.98 1316.71,-623.85 1341.63,-627.86"/>
<polygon fill="#7a8389" stroke="#7a8389" points="1341.42,-630.31 1348.71,-628.97 1342.17,-625.47 1341.42,-630.31"/>
</g>
<!-- choice_EOS401_0&#45;&gt;course__EOS401 -->
<g id="edge78" class="edge">
<title>choice_EOS401_0&#45;&gt;course__EOS401</title>
<path fill="none" stroke="#5d6972" stroke-width="1.2" d="M1403.18,-632.42C1413.88,-632.42 1426.38,-632.42 1437.71,-632.42"/>
<polygon fill="#5d6972" stroke="#5d6972" stroke-width="1.2" points="1437.96,-634.87 1444.96,-632.42 1437.96,-629.97 1437.96,-634.87"/>
</g>
<!-- choice_EOS431_0_0&#45;&gt;course__EOS431 -->
<g id="edge81" class="edge">
<title>choice_EOS431_0_0&#45;&gt;course__EOS431</title>
<path fill="none" stroke="#5d6972" stroke-width="1.2" d="M969.12,-436.07C980.07,-440.12 993.25,-445 1006.2,-449.78"/>
<polygon fill="#5d6972" stroke="#5d6972" stroke-width="1.2" points="1005.53,-452.15 1012.94,-452.28 1007.22,-447.55 1005.53,-452.15"/>
</g>
<!-- choice_EOS460_0_0&#45;&gt;course__EOS460 -->
<g id="edge85" class="edge">
<title>choice_EOS460_0_0&#45;&gt;course__EOS460</title>
<path fill="none" stroke="#5d6972" stroke-width="1.2" d="M959.3,-493.63C980.45,-517.27 1017.42,-558.59 1040.76,-584.67"/>
<polygon fill="#5d6972" stroke="#5d6972" stroke-width="1.2" points="1039.02,-586.41 1045.52,-589.99 1042.68,-583.14 1039.02,-586.41"/>
</g>
</g>
</svg>
