<?xml version="1.0" encoding="UTF-8" standalone="no"?>
<!DOCTYPE svg PUBLIC "-//W3C//DTD SVG 1.1//EN"
 "http://www.w3.org/Graphics/SVG/1.1/DTD/svg11.dtd">
<!-- Generated by graphviz version 2.43.0 (0)
 -->
<!-- Title: BSC&#45;CLSD&#45;&#45;impacts&#45;adaptations&#45;and&#45;mitigation Pages: 1 -->
<svg width="649pt" height="1900pt"
 viewBox="0.00 0.00 649.15 1900.04" xmlns="http://www.w3.org/2000/svg" xmlns:xlink="http://www.w3.org/1999/xlink">
<g id="graph0" class="graph" transform="scale(1 1) rotate(0) translate(11.52 1888.52)">
<title>BSC&#45;CLSD&#45;&#45;impacts&#45;adaptations&#45;and&#45;mitigation</title>
<g id="clust1" class="cluster">
<title>cluster_year&#45;1</title>
<path fill="transparent" stroke="#c8d0d5" stroke-dasharray="5,2" d="M49.11,-1436C49.11,-1436 464.11,-1436 464.11,-1436 470.11,-1436 476.11,-1442 476.11,-1448 476.11,-1448 476.11,-1766 476.11,-1766 476.11,-1772 470.11,-1778 464.11,-1778 464.11,-1778 49.11,-1778 49.11,-1778 43.11,-1778 37.11,-1772 37.11,-1766 37.11,-1766 37.11,-1448 37.11,-1448 37.11,-1442 43.11,-1436 49.11,-1436"/>
<text text-anchor="middle" x="256.61" y="-1765.2" font-family="Avenir Next" font-size="11.00">Year 1</text>
</g>
<g id="clust2" class="cluster">
<title>cluster_year&#45;2</title>
<path fill="transparent" stroke="#c8d0d5" stroke-dasharray="5,2" d="M211.11,-596C211.11,-596 325.11,-596 325.11,-596 331.11,-596 337.11,-602 337.11,-608 337.11,-608 337.11,-1073 337.11,-1073 337.11,-1079 331.11,-1085 325.11,-1085 325.11,-1085 211.11,-1085 211.11,-1085 205.11,-1085 199.11,-1079 199.11,-1073 199.11,-1073 199.11,-608 199.11,-608 199.11,-602 205.11,-596 211.11,-596"/>
<text text-anchor="middle" x="268.11" y="-1072.2" font-family="Avenir Next" font-size="11.00">Year 2</text>
</g>
<g id="clust3" class="cluster">
<title>cluster_years&#45;3&#45;4</title>
<path fill="transparent" stroke="#c8d0d5" stroke-dasharray="5,2" d="M363.11,-50C363.11,-50 606.11,-50 606.11,-50 612.11,-50 618.11,-56 618.11,-62 618.11,-62 618.11,-1360 618.11,-1360 618.11,-1366 612.11,-1372 606.11,-1372 606.11,-1372 363.11,-1372 363.11,-1372 357.11,-1372 351.11,-1366 351.11,-1360 351.11,-1360 351.11,-62 351.11,-62 351.11,-56 357.11,-50 363.11,-50"/>
<text text-anchor="middle" x="484.61" y="-1359.2" font-family="Avenir Next" font-size="11.00">Years 3 + 4</text>
</g>
<!-- course__CHEM101 -->
<g id="node1" class="node">
<title>course__CHEM101</title>
<g id="a_node1"><a xlink:href="../../../courses/CHEM101.html" xlink:title="Equivalent or cross&#45;listed: CHEM101: Fundamentals of Chemistry from Atoms to Materials | CHEM150: Engineering Chemistry" target="_top">
<path fill="#d7e9ef" stroke="#1f4f66" stroke-width="1.6" d="M159.11,-1597C159.11,-1597 63.11,-1597 63.11,-1597 57.11,-1597 51.11,-1591 51.11,-1585 51.11,-1585 51.11,-1573 51.11,-1573 51.11,-1567 57.11,-1561 63.11,-1561 63.11,-1561 159.11,-1561 159.11,-1561 165.11,-1561 171.11,-1567 171.11,-1573 171.11,-1573 171.11,-1585 171.11,-1585 171.11,-1591 165.11,-1597 159.11,-1597"/>
<text text-anchor="middle" x="111.11" y="-1576.5" font-family="Avenir Next" font-size="10.00" fill="#17232b">CHEM101 / CHEM150</text>
</a>
</g>
</g>
<!-- course__CHEM102 -->
<g id="node7" class="node">
<title>course__CHEM102</title>
<g id="a_node7"><a xlink:href="../../../courses/CHEM102.html" xlink:title="CHEM102: Chemical Reactivity Fundamentals with Environmental Applications" target="_top">
<path fill="#d7e9ef" stroke="#1f4f66" stroke-width="1.6" d="M288.11,-1541C288.11,-1541 248.11,-1541 248.11,-1541 242.11,-1541 236.11,-1535 236.11,-1529 236.11,-1529 236.11,-1517 236.11,-1517 236.11,-1511 242.11,-1505 248.11,-1505 248.11,-1505 288.11,-1505 288.11,-1505 294.11,-1505 300.11,-1511 300.11,-1517 300.11,-1517 300.11,-1529 300.11,-1529 300.11,-1535 294.11,-1541 288.11,-1541"/>
<text text-anchor="middle" x="268.11" y="-1520.5" font-family="Avenir Next" font-size="10.00" fill="#17232b">CHEM102</text>
</a>
</g>
</g>
<!-- course__CHEM101&#45;&gt;course__CHEM102 -->
<g id="edge7" class="edge">
<title>course__CHEM101&#45;&gt;course__CHEM102</title>
<path fill="none" stroke="#5d6972" stroke-width="1.2" d="M162.01,-1560.97C183.79,-1553.1 208.93,-1544.02 229.15,-1536.71"/>
<polygon fill="#5d6972" stroke="#5d6972" stroke-width="1.2" points="230.06,-1538.99 235.81,-1534.31 228.39,-1534.38 230.06,-1538.99"/>
</g>
<!-- course__CIVE210 -->
<g id="node19" class="node">
<title>course__CIVE210</title>
<g id="a_node19"><a xlink:href="../../../courses/CIVE210.html" xlink:title="CIVE210: Sustainability in Civil Engineering" target="_top">
<path fill="#efd8cf" stroke="#8f5945" stroke-width="1.3" d="M284.61,-953C284.61,-953 251.61,-953 251.61,-953 245.61,-953 239.61,-947 239.61,-941 239.61,-941 239.61,-929 239.61,-929 239.61,-923 245.61,-917 251.61,-917 251.61,-917 284.61,-917 284.61,-917 290.61,-917 296.61,-923 296.61,-929 296.61,-929 296.61,-941 296.61,-941 296.61,-947 290.61,-953 284.61,-953"/>
<text text-anchor="middle" x="268.11" y="-932.5" font-family="Avenir Next" font-size="10.00" fill="#3f251d">CIVE210</text>
</a>
</g>
</g>
<!-- course__CHEM101&#45;&gt;course__CIVE210 -->
<g id="edge9" class="edge">
<title>course__CHEM101&#45;&gt;course__CIVE210</title>
<path fill="none" stroke="#5d6972" stroke-width="1.2" d="M165.87,-1560.93C167.81,-1559.14 169.58,-1557.17 171.11,-1555 247.56,-1446.94 120.83,-1066.74 199.11,-960 207.02,-949.22 220.08,-943.08 232.66,-939.59"/>
<polygon fill="#5d6972" stroke="#5d6972" stroke-width="1.2" points="233.34,-941.94 239.56,-937.91 232.18,-937.18 233.34,-941.94"/>
</g>
<!-- course__EOS110 -->
<g id="node2" class="node">
<title>course__EOS110</title>
<g id="a_node2"><a xlink:href="../../../courses/EOS110.html" xlink:title="Equivalent or cross&#45;listed: EOS110: Oceans and Atmosphere | EOS350: Understanding the Oceans" target="_top">
<path fill="#ead9b8" stroke="#8f6a3b" stroke-width="1.3" d="M149.61,-1535C149.61,-1535 72.61,-1535 72.61,-1535 66.61,-1535 60.61,-1529 60.61,-1523 60.61,-1523 60.61,-1511 60.61,-1511 60.61,-1505 66.61,-1499 72.61,-1499 72.61,-1499 149.61,-1499 149.61,-1499 155.61,-1499 161.61,-1505 161.61,-1511 161.61,-1511 161.61,-1523 161.61,-1523 161.61,-1529 155.61,-1535 149.61,-1535"/>
<text text-anchor="middle" x="111.11" y="-1514.5" font-family="Avenir Next" font-size="10.00" fill="#3f3120">EOS110 / EOS350</text>
</a>
</g>
</g>
<!-- choice_EOS230_0_1 -->
<g id="node61" class="node">
<title>choice_EOS230_0_1</title>
<path fill="#fff7ee" stroke="#b7793f" stroke-width="1.1" d="M283.11,-1422C283.11,-1422 253.11,-1422 253.11,-1422 247.11,-1422 241.11,-1416 241.11,-1410 241.11,-1410 241.11,-1398 241.11,-1398 241.11,-1392 247.11,-1386 253.11,-1386 253.11,-1386 283.11,-1386 283.11,-1386 289.11,-1386 295.11,-1392 295.11,-1398 295.11,-1398 295.11,-1410 295.11,-1410 295.11,-1416 289.11,-1422 283.11,-1422"/>
<text text-anchor="middle" x="268.11" y="-1401.8" font-family="Avenir Next" font-size="9.00">1 of</text>
</g>
<!-- course__EOS110&#45;&gt;choice_EOS230_0_1 -->
<g id="edge17" class="edge">
<title>course__EOS110&#45;&gt;choice_EOS230_0_1</title>
<path fill="none" stroke="#7a8389" d="M161.83,-1500.19C165.16,-1498.05 168.31,-1495.67 171.11,-1493 192.43,-1472.72 177.96,-1453.46 199.11,-1433 208.84,-1423.59 222.1,-1417.01 234.32,-1412.53"/>
<polygon fill="#7a8389" stroke="#7a8389" points="235.15,-1414.83 240.97,-1410.25 233.56,-1410.2 235.15,-1414.83"/>
</g>
<!-- choice_EOS312_0_0 -->
<g id="node62" class="node">
<title>choice_EOS312_0_0</title>
<path fill="#fff7ee" stroke="#b7793f" stroke-width="1.1" d="M283.11,-582C283.11,-582 253.11,-582 253.11,-582 247.11,-582 241.11,-576 241.11,-570 241.11,-570 241.11,-558 241.11,-558 241.11,-552 247.11,-546 253.11,-546 253.11,-546 283.11,-546 283.11,-546 289.11,-546 295.11,-552 295.11,-558 295.11,-558 295.11,-570 295.11,-570 295.11,-576 289.11,-582 283.11,-582"/>
<text text-anchor="middle" x="268.11" y="-561.8" font-family="Avenir Next" font-size="9.00">1 of</text>
</g>
<!-- course__EOS110&#45;&gt;choice_EOS312_0_0 -->
<g id="edge21" class="edge">
<title>course__EOS110&#45;&gt;choice_EOS312_0_0</title>
<path fill="none" stroke="#7a8389" d="M161.84,-1502.33C165.41,-1499.71 168.58,-1496.63 171.11,-1493 228.24,-1410.87 142.67,-675.61 199.11,-593 207.19,-581.18 221.14,-574.15 234.31,-569.99"/>
<polygon fill="#7a8389" stroke="#7a8389" points="235.03,-572.33 241.09,-568.06 233.69,-567.62 235.03,-572.33"/>
</g>
<!-- course__EOS130 -->
<g id="node3" class="node">
<title>course__EOS130</title>
<g id="a_node3"><a xlink:href="../../../courses/EOS130.html" xlink:title="Equivalent or cross&#45;listed: EOS130: Climate Change | GEOG130: Climate Change" target="_top">
<path fill="#ead9b8" stroke="#8f6a3b" stroke-width="1.3" d="M154.11,-1695C154.11,-1695 68.11,-1695 68.11,-1695 62.11,-1695 56.11,-1689 56.11,-1683 56.11,-1683 56.11,-1671 56.11,-1671 56.11,-1665 62.11,-1659 68.11,-1659 68.11,-1659 154.11,-1659 154.11,-1659 160.11,-1659 166.11,-1665 166.11,-1671 166.11,-1671 166.11,-1683 166.11,-1683 166.11,-1689 160.11,-1695 154.11,-1695"/>
<text text-anchor="middle" x="111.11" y="-1674.5" font-family="Avenir Next" font-size="10.00" fill="#3f3120">EOS130 / GEOG130</text>
</a>
</g>
</g>
<!-- course__EOS130&#45;&gt;choice_EOS230_0_1 -->
<g id="edge18" class="edge">
<title>course__EOS130&#45;&gt;choice_EOS230_0_1</title>
<path fill="none" stroke="#7a8389" d="M165.42,-1659C167.51,-1657.18 169.42,-1655.19 171.11,-1653 231.19,-1574.86 139.68,-1511.64 199.11,-1433 207.53,-1421.86 221.08,-1414.94 233.88,-1410.68"/>
<polygon fill="#7a8389" stroke="#7a8389" points="234.88,-1412.94 240.88,-1408.58 233.47,-1408.25 234.88,-1412.94"/>
</g>
<!-- course__GEOG103 -->
<g id="node4" class="node">
<title>course__GEOG103</title>
<g id="a_node4"><a xlink:href="../../../courses/GEOG103.html" xlink:title="GEOG103: Our Natural Earth" target="_top">
<path fill="#ead9b8" stroke="#8f6a3b" stroke-width="1.3" d="M130.61,-1646C130.61,-1646 91.61,-1646 91.61,-1646 85.61,-1646 79.61,-1640 79.61,-1634 79.61,-1634 79.61,-1622 79.61,-1622 79.61,-1616 85.61,-1610 91.61,-1610 91.61,-1610 130.61,-1610 130.61,-1610 136.61,-1610 142.61,-1616 142.61,-1622 142.61,-1622 142.61,-1634 142.61,-1634 142.61,-1640 136.61,-1646 130.61,-1646"/>
<text text-anchor="middle" x="111.11" y="-1625.5" font-family="Avenir Next" font-size="10.00" fill="#3f3120">GEOG103</text>
</a>
</g>
</g>
<!-- course__GEOG103&#45;&gt;choice_EOS230_0_1 -->
<g id="edge19" class="edge">
<title>course__GEOG103&#45;&gt;choice_EOS230_0_1</title>
<path fill="none" stroke="#7a8389" d="M142.84,-1621.97C153.28,-1618.42 164.08,-1612.82 171.11,-1604 219.14,-1543.8 151.59,-1493.6 199.11,-1433 207.73,-1422.01 221.31,-1415.12 234.08,-1410.83"/>
<polygon fill="#7a8389" stroke="#7a8389" points="235.07,-1413.09 241.05,-1408.71 233.64,-1408.41 235.07,-1413.09"/>
</g>
<!-- bundle_GEOG209_0_0 -->
<g id="node64" class="node">
<title>bundle_GEOG209_0_0</title>
<g id="a_node64"><a xlink:title="Grouped requirement junction">
<ellipse fill="#7a8790" stroke="#667780" cx="268.11" cy="-1367" rx="6" ry="6"/>
</a>
</g>
</g>
<!-- course__GEOG103&#45;&gt;bundle_GEOG209_0_0 -->
<g id="edge36" class="edge">
<title>course__GEOG103&#45;&gt;bundle_GEOG209_0_0</title>
<path fill="none" stroke="#7a8389" d="M142.71,-1622.21C153.27,-1618.69 164.18,-1613.04 171.11,-1604 232.18,-1524.4 130.49,-1453.2 199.11,-1380 213.26,-1364.91 239.12,-1364.23 254.55,-1365.41"/>
<polygon fill="#7a8389" stroke="#7a8389" points="254.69,-1367.89 261.91,-1366.18 255.2,-1363.02 254.69,-1367.89"/>
</g>
<!-- course__MATH100 -->
<g id="node5" class="node">
<title>course__MATH100</title>
<g id="a_node5"><a xlink:href="../../../courses/MATH100.html" xlink:title="Collapsed in simplified view: MATH100: Calculus I | MATH102: Calculus for Students in the Social and Biological Sciences | MATH109: Introduction to Calculus" target="_top">
<path fill="#d7e9ef" stroke="#1f4f66" stroke-width="1.6" d="M131.11,-1744C131.11,-1744 91.11,-1744 91.11,-1744 85.11,-1744 79.11,-1738 79.11,-1732 79.11,-1732 79.11,-1720 79.11,-1720 79.11,-1714 85.11,-1708 91.11,-1708 91.11,-1708 131.11,-1708 131.11,-1708 137.11,-1708 143.11,-1714 143.11,-1720 143.11,-1720 143.11,-1732 143.11,-1732 143.11,-1738 137.11,-1744 131.11,-1744"/>
<text text-anchor="middle" x="111.11" y="-1723.5" font-family="Avenir Next" font-size="10.00" fill="#17232b">Calculus I</text>
</a>
</g>
</g>
<!-- course__MATH100&#45;&gt;course__CHEM102 -->
<g id="edge8" class="edge">
<title>course__MATH100&#45;&gt;course__CHEM102</title>
<path fill="none" stroke="#5d6972" stroke-width="1.2" d="M143.37,-1719.69C153.61,-1716.12 164.14,-1710.58 171.11,-1702 214.97,-1648 154.34,-1601.24 199.11,-1548 206.75,-1538.91 218.01,-1533.13 229.17,-1529.44"/>
<polygon fill="#5d6972" stroke="#5d6972" stroke-width="1.2" points="230.05,-1531.74 236.07,-1527.41 228.67,-1527.04 230.05,-1531.74"/>
</g>
<!-- course__MATH101 -->
<g id="node8" class="node">
<title>course__MATH101</title>
<g id="a_node8"><a xlink:href="../../../courses/MATH101.html" xlink:title="MATH101: Calculus II" target="_top">
<path fill="#d7e9ef" stroke="#1f4f66" stroke-width="1.6" d="M287.61,-1590C287.61,-1590 248.61,-1590 248.61,-1590 242.61,-1590 236.61,-1584 236.61,-1578 236.61,-1578 236.61,-1566 236.61,-1566 236.61,-1560 242.61,-1554 248.61,-1554 248.61,-1554 287.61,-1554 287.61,-1554 293.61,-1554 299.61,-1560 299.61,-1566 299.61,-1566 299.61,-1578 299.61,-1578 299.61,-1584 293.61,-1590 287.61,-1590"/>
<text text-anchor="middle" x="268.11" y="-1569.5" font-family="Avenir Next" font-size="10.00" fill="#17232b">MATH101</text>
</a>
</g>
</g>
<!-- course__MATH100&#45;&gt;course__MATH101 -->
<g id="edge72" class="edge">
<title>course__MATH100&#45;&gt;course__MATH101</title>
<path fill="none" stroke="#5d6972" stroke-width="1.2" d="M143.34,-1718.51C153.22,-1714.87 163.53,-1709.59 171.11,-1702 194.5,-1678.59 180.08,-1660.08 199.11,-1633 209.23,-1618.6 223.36,-1605.22 236.12,-1594.68"/>
<polygon fill="#5d6972" stroke="#5d6972" stroke-width="1.2" points="237.95,-1596.34 241.86,-1590.04 234.88,-1592.53 237.95,-1596.34"/>
</g>
<!-- course__PHYS102A -->
<g id="node9" class="node">
<title>course__PHYS102A</title>
<g id="a_node9"><a xlink:href="../../../courses/PHYS102A.html" xlink:title="Collapsed in simplified view: PHYS102A: General Physics I | PHYS110: Introductory Physics I | PHYS120: Physics I" target="_top">
<path fill="#d7e9ef" stroke="#1f4f66" stroke-width="1.6" d="M285.61,-1675C285.61,-1675 250.61,-1675 250.61,-1675 244.61,-1675 238.61,-1669 238.61,-1663 238.61,-1663 238.61,-1651 238.61,-1651 238.61,-1645 244.61,-1639 250.61,-1639 250.61,-1639 285.61,-1639 285.61,-1639 291.61,-1639 297.61,-1645 297.61,-1651 297.61,-1651 297.61,-1663 297.61,-1663 297.61,-1669 291.61,-1675 285.61,-1675"/>
<text text-anchor="middle" x="268.11" y="-1654.5" font-family="Avenir Next" font-size="10.00" fill="#17232b">Physics I</text>
</a>
</g>
</g>
<!-- course__MATH100&#45;&gt;course__PHYS102A -->
<g id="edge73" class="edge">
<title>course__MATH100&#45;&gt;course__PHYS102A</title>
<path fill="none" stroke="#5d6972" stroke-width="1.2" d="M143.16,-1713.72C152.21,-1710.05 162.09,-1705.94 171.11,-1702 191.39,-1693.13 213.79,-1682.67 231.86,-1674.06"/>
<polygon fill="#5d6972" stroke="#5d6972" stroke-width="1.2" points="233.04,-1676.21 238.3,-1670.98 230.93,-1671.79 233.04,-1676.21"/>
</g>
<!-- course__PHYS102B -->
<g id="node10" class="node">
<title>course__PHYS102B</title>
<g id="a_node10"><a xlink:href="../../../courses/PHYS102B.html" xlink:title="Collapsed in simplified view: PHYS102B: General Physics II | PHYS111: Introductory Physics II | PHYS130: Physics II" target="_top">
<path fill="#d7e9ef" stroke="#1f4f66" stroke-width="1.6" d="M450.11,-1486C450.11,-1486 412.11,-1486 412.11,-1486 406.11,-1486 400.11,-1480 400.11,-1474 400.11,-1474 400.11,-1462 400.11,-1462 400.11,-1456 406.11,-1450 412.11,-1450 412.11,-1450 450.11,-1450 450.11,-1450 456.11,-1450 462.11,-1456 462.11,-1462 462.11,-1462 462.11,-1474 462.11,-1474 462.11,-1480 456.11,-1486 450.11,-1486"/>
<text text-anchor="middle" x="431.11" y="-1465.5" font-family="Avenir Next" font-size="10.00" fill="#17232b">Physics II</text>
</a>
</g>
</g>
<!-- course__MATH100&#45;&gt;course__PHYS102B -->
<g id="edge75" class="edge">
<title>course__MATH100&#45;&gt;course__PHYS102B</title>
<path fill="none" stroke="#5d6972" stroke-width="1.2" d="M143.49,-1728.47C190.74,-1730.47 280.64,-1727.38 337.11,-1682 397.38,-1633.56 419.48,-1538.39 426.82,-1493.1"/>
<polygon fill="#5d6972" stroke="#5d6972" stroke-width="1.2" points="429.26,-1493.31 427.91,-1486.01 424.42,-1492.56 429.26,-1493.31"/>
</g>
<!-- course__CSC110 -->
<g id="node53" class="node">
<title>course__CSC110</title>
<g id="a_node53"><a xlink:href="../../../courses/CSC110.html" xlink:title="Collapsed in simplified view: CSC110: Fundamentals of Programming I | CSC111: Fundamentals of Programming with Engineering Applications" target="_top">
<path fill="#f9f9f9" stroke="#363636" d="M141.11,-1144C141.11,-1144 81.11,-1144 81.11,-1144 75.11,-1144 69.11,-1138 69.11,-1132 69.11,-1132 69.11,-1120 69.11,-1120 69.11,-1114 75.11,-1108 81.11,-1108 81.11,-1108 141.11,-1108 141.11,-1108 147.11,-1108 153.11,-1114 153.11,-1120 153.11,-1120 153.11,-1132 153.11,-1132 153.11,-1138 147.11,-1144 141.11,-1144"/>
<text text-anchor="middle" x="111.11" y="-1123.8" font-family="Avenir Next" font-size="9.00" fill="#363636">Programming I</text>
</a>
</g>
</g>
<!-- course__MATH100&#45;&gt;course__CSC110 -->
<g id="edge13" class="edge">
<title>course__MATH100&#45;&gt;course__CSC110</title>
<path fill="none" stroke="#5d6972" stroke-width="1.2" d="M79.07,-1724.96C57.47,-1722.38 30.4,-1715.09 16.11,-1695.5 -6.54,-1664.44 8.44,-1387.17 16.11,-1349.5 31.66,-1273.15 74.27,-1190.56 96.76,-1150.53"/>
<polygon fill="#5d6972" stroke="#5d6972" stroke-width="1.2" points="99.13,-1151.31 100.46,-1144.02 94.87,-1148.9 99.13,-1151.31"/>
</g>
<!-- choice_EOS314_0_0 -->
<g id="node63" class="node">
<title>choice_EOS314_0_0</title>
<path fill="#fff7ee" stroke="#b7793f" stroke-width="1.1" d="M283.11,-533C283.11,-533 253.11,-533 253.11,-533 247.11,-533 241.11,-527 241.11,-521 241.11,-521 241.11,-509 241.11,-509 241.11,-503 247.11,-497 253.11,-497 253.11,-497 283.11,-497 283.11,-497 289.11,-497 295.11,-503 295.11,-509 295.11,-509 295.11,-521 295.11,-521 295.11,-527 289.11,-533 283.11,-533"/>
<text text-anchor="middle" x="268.11" y="-512.8" font-family="Avenir Next" font-size="9.00">2 of</text>
</g>
<!-- course__MATH100&#45;&gt;choice_EOS314_0_0 -->
<g id="edge26" class="edge">
<title>course__MATH100&#45;&gt;choice_EOS314_0_0</title>
<path fill="none" stroke="#7a8389" d="M143.21,-1720.57C153.82,-1717.09 164.64,-1711.37 171.11,-1702 244.49,-1595.72 123.93,-645.01 199.11,-540 207.14,-528.78 220.77,-522.59 233.73,-519.17"/>
<polygon fill="#7a8389" stroke="#7a8389" points="234.55,-521.5 240.82,-517.54 233.45,-516.72 234.55,-521.5"/>
</g>
<!-- course__BIOL150A -->
<g id="node6" class="node">
<title>course__BIOL150A</title>
<g id="a_node6"><a xlink:href="../../../courses/BIOL150A.html" xlink:title="Collapsed in simplified view: BIOL150A: Modern Biology | BIOL184: Evolution and Biodiversity" target="_top">
<path fill="#d7e9ef" stroke="#1f4f66" stroke-width="1.6" d="M138.11,-1486C138.11,-1486 84.11,-1486 84.11,-1486 78.11,-1486 72.11,-1480 72.11,-1474 72.11,-1474 72.11,-1462 72.11,-1462 72.11,-1456 78.11,-1450 84.11,-1450 84.11,-1450 138.11,-1450 138.11,-1450 144.11,-1450 150.11,-1456 150.11,-1462 150.11,-1462 150.11,-1474 150.11,-1474 150.11,-1480 144.11,-1486 138.11,-1486"/>
<text text-anchor="middle" x="111.11" y="-1465.5" font-family="Avenir Next" font-size="10.00" fill="#17232b">Intro biology</text>
</a>
</g>
</g>
<!-- course__BIOL186 -->
<g id="node54" class="node">
<title>course__BIOL186</title>
<g id="a_node54"><a xlink:href="../../../courses/BIOL186.html" xlink:title="BIOL186: Physiology and Cell Biology" target="_top">
<path fill="#f9f9f9" stroke="#363636" d="M127.11,-1877C127.11,-1877 95.11,-1877 95.11,-1877 89.11,-1877 83.11,-1871 83.11,-1865 83.11,-1865 83.11,-1853 83.11,-1853 83.11,-1847 89.11,-1841 95.11,-1841 95.11,-1841 127.11,-1841 127.11,-1841 133.11,-1841 139.11,-1847 139.11,-1853 139.11,-1853 139.11,-1865 139.11,-1865 139.11,-1871 133.11,-1877 127.11,-1877"/>
<text text-anchor="middle" x="111.11" y="-1856.8" font-family="Avenir Next" font-size="9.00" fill="#363636">BIOL186</text>
</a>
</g>
</g>
<!-- course__BIOL150A&#45;&gt;course__BIOL186 -->
<g id="edge5" class="edge">
<title>course__BIOL150A&#45;&gt;course__BIOL186</title>
<path fill="none" stroke="#5d6972" stroke-width="1.2" d="M71.93,-1470.47C51.77,-1473.97 28.82,-1481.89 16.11,-1499.5 -5.29,-1529.14 -5.43,-1798.96 16.11,-1828.5 29.62,-1847.03 54.57,-1854.55 75.5,-1857.49"/>
<polygon fill="#5d6972" stroke="#5d6972" stroke-width="1.2" points="75.48,-1859.96 82.72,-1858.36 76.06,-1855.09 75.48,-1859.96"/>
</g>
<!-- course__EOS312 -->
<g id="node45" class="node">
<title>course__EOS312</title>
<g id="a_node45"><a xlink:href="../../../courses/EOS312.html" xlink:title="EOS312: Introductory Chemical Oceanography" target="_top">
<path fill="#d7e9ef" stroke="#1f4f66" stroke-width="1.6" d="M446.11,-1142C446.11,-1142 416.11,-1142 416.11,-1142 410.11,-1142 404.11,-1136 404.11,-1130 404.11,-1130 404.11,-1118 404.11,-1118 404.11,-1112 410.11,-1106 416.11,-1106 416.11,-1106 446.11,-1106 446.11,-1106 452.11,-1106 458.11,-1112 458.11,-1118 458.11,-1118 458.11,-1130 458.11,-1130 458.11,-1136 452.11,-1142 446.11,-1142"/>
<text text-anchor="middle" x="431.11" y="-1121.5" font-family="Avenir Next" font-size="10.00" fill="#17232b">EOS312</text>
</a>
</g>
</g>
<!-- course__CHEM102&#45;&gt;course__EOS312 -->
<g id="edge25" class="edge">
<title>course__CHEM102&#45;&gt;course__EOS312</title>
<path fill="none" stroke="#5d6972" stroke-width="1.2" d="M287.36,-1504.75C303.72,-1487.06 326.69,-1458.64 337.11,-1429 347.44,-1399.61 332.08,-1173.66 351.11,-1149 361.85,-1135.07 380.36,-1128.75 396.76,-1125.94"/>
<polygon fill="#5d6972" stroke="#5d6972" stroke-width="1.2" points="397.53,-1128.3 404.11,-1124.88 396.83,-1123.45 397.53,-1128.3"/>
</g>
<!-- course__MATH101&#45;&gt;course__PHYS102B -->
<g id="edge76" class="edge">
<title>course__MATH101&#45;&gt;course__PHYS102B</title>
<path fill="none" stroke="#5d6972" stroke-width="1.2" d="M299.62,-1563.89C311.74,-1560.01 325.52,-1554.71 337.11,-1548 363.83,-1532.53 390.12,-1508.92 407.89,-1491.35"/>
<polygon fill="#5d6972" stroke="#5d6972" stroke-width="1.2" points="409.91,-1492.79 413.13,-1486.11 406.45,-1489.33 409.91,-1492.79"/>
</g>
<!-- course__STAT254 -->
<g id="node18" class="node">
<title>course__STAT254</title>
<g id="a_node18"><a xlink:href="../../../courses/STAT254.html" xlink:title="Collapsed in simplified view: STAT254: Probability and Statistics for Engineers | STAT255: Statistics for Life Sciences I | STAT260: Introduction to Probability and Statistics I" target="_top">
<path fill="#d7e9ef" stroke="#1f4f66" stroke-width="1.6" d="M299.11,-1002C299.11,-1002 237.11,-1002 237.11,-1002 231.11,-1002 225.11,-996 225.11,-990 225.11,-990 225.11,-978 225.11,-978 225.11,-972 231.11,-966 237.11,-966 237.11,-966 299.11,-966 299.11,-966 305.11,-966 311.11,-972 311.11,-978 311.11,-978 311.11,-990 311.11,-990 311.11,-996 305.11,-1002 299.11,-1002"/>
<text text-anchor="middle" x="268.11" y="-981.5" font-family="Avenir Next" font-size="10.00" fill="#17232b">Intro statistics</text>
</a>
</g>
</g>
<!-- course__MATH101&#45;&gt;course__STAT254 -->
<g id="edge77" class="edge">
<title>course__MATH101&#45;&gt;course__STAT254</title>
<path fill="none" stroke="#5d6972" stroke-width="1.2" d="M236.23,-1569.49C217.74,-1566.16 196.01,-1558.58 185.11,-1541.5 169.39,-1516.87 169.39,-1040.13 185.11,-1015.5 192.59,-1003.77 205.12,-996.4 218.2,-991.77"/>
<polygon fill="#5d6972" stroke="#5d6972" stroke-width="1.2" points="219.14,-994.04 225.07,-989.59 217.66,-989.37 219.14,-994.04"/>
</g>
<!-- course__MATH101&#45;&gt;choice_EOS314_0_0 -->
<g id="edge27" class="edge">
<title>course__MATH101&#45;&gt;choice_EOS314_0_0</title>
<path fill="none" stroke="#7a8389" d="M236.23,-1569.49C217.74,-1566.16 196.01,-1558.58 185.11,-1541.5 170.24,-1518.2 170.24,-569.8 185.11,-546.5 195.58,-530.1 215.91,-522.21 233.82,-518.43"/>
<polygon fill="#7a8389" stroke="#7a8389" points="234.37,-520.82 240.8,-517.13 233.47,-516.01 234.37,-520.82"/>
</g>
<!-- course__PHYS102A&#45;&gt;course__PHYS102B -->
<g id="edge74" class="edge">
<title>course__PHYS102A&#45;&gt;course__PHYS102B</title>
<path fill="none" stroke="#5d6972" stroke-width="1.2" d="M292.01,-1638.99C305.78,-1627.64 323.26,-1612.28 337.11,-1597 367.83,-1563.1 397.75,-1519.03 415.03,-1492.17"/>
<polygon fill="#5d6972" stroke="#5d6972" stroke-width="1.2" points="417.23,-1493.27 418.94,-1486.05 413.1,-1490.63 417.23,-1493.27"/>
</g>
<!-- course__PHYS102B&#45;&gt;course__CIVE210 -->
<g id="edge11" class="edge">
<title>course__PHYS102B&#45;&gt;course__CIVE210</title>
<path fill="none" stroke="#5d6972" stroke-width="1.2" d="M399.74,-1461.24C382.37,-1455.68 361.94,-1445.86 351.11,-1429 322.93,-1385.14 367.58,-1002.3 337.11,-960 329.3,-949.15 316.24,-943 303.65,-939.52"/>
<polygon fill="#5d6972" stroke="#5d6972" stroke-width="1.2" points="304.12,-937.11 296.74,-937.84 302.97,-941.87 304.12,-937.11"/>
</g>
<!-- course__EOS314 -->
<g id="node40" class="node">
<title>course__EOS314</title>
<g id="a_node40"><a xlink:href="../../../courses/EOS314.html" xlink:title="EOS314: Descriptive Physical Oceanography" target="_top">
<path fill="#d7e9ef" stroke="#1f4f66" stroke-width="1.6" d="M446.11,-443C446.11,-443 416.11,-443 416.11,-443 410.11,-443 404.11,-437 404.11,-431 404.11,-431 404.11,-419 404.11,-419 404.11,-413 410.11,-407 416.11,-407 416.11,-407 446.11,-407 446.11,-407 452.11,-407 458.11,-413 458.11,-419 458.11,-419 458.11,-431 458.11,-431 458.11,-437 452.11,-443 446.11,-443"/>
<text text-anchor="middle" x="431.11" y="-422.5" font-family="Avenir Next" font-size="10.00" fill="#17232b">EOS314</text>
</a>
</g>
</g>
<!-- course__PHYS102B&#45;&gt;course__EOS314 -->
<g id="edge30" class="edge">
<title>course__PHYS102B&#45;&gt;course__EOS314</title>
<path fill="none" stroke="#5d6972" stroke-width="1.2" d="M400.03,-1462.04C379.13,-1456.1 353.72,-1444.53 344.11,-1422.5 338.75,-1410.2 338.75,-468.8 344.11,-456.5 352.78,-436.61 376.52,-428.94 397.02,-426.13"/>
<polygon fill="#5d6972" stroke="#5d6972" stroke-width="1.2" points="397.42,-428.55 404.1,-425.33 396.87,-423.68 397.42,-428.55"/>
</g>
<!-- course__EOS340 -->
<g id="node55" class="node">
<title>course__EOS340</title>
<g id="a_node55"><a xlink:href="../../../courses/EOS340.html" xlink:title="Equivalent or cross&#45;listed: EOS340: Atmospheric Physics | PHYS340: Atmospheric Physics" target="_top">
<path fill="#f9f9f9" stroke="#363636" d="M151.11,-296C151.11,-296 71.11,-296 71.11,-296 65.11,-296 59.11,-290 59.11,-284 59.11,-284 59.11,-272 59.11,-272 59.11,-266 65.11,-260 71.11,-260 71.11,-260 151.11,-260 151.11,-260 157.11,-260 163.11,-266 163.11,-272 163.11,-272 163.11,-284 163.11,-284 163.11,-290 157.11,-296 151.11,-296"/>
<text text-anchor="middle" x="111.11" y="-275.8" font-family="Avenir Next" font-size="9.00" fill="#363636">EOS340 / PHYS340</text>
</a>
</g>
</g>
<!-- course__PHYS102B&#45;&gt;course__EOS340 -->
<g id="edge31" class="edge">
<title>course__PHYS102B&#45;&gt;course__EOS340</title>
<path fill="none" stroke="#5d6972" stroke-width="1.2" d="M399.89,-1461.15C382.57,-1455.55 362.14,-1445.73 351.11,-1429 319.25,-1380.7 367.2,-1218.42 337.11,-1169 300.13,-1108.26 235.74,-1148.96 199.11,-1088 161.19,-1024.9 186.52,-497.99 171.11,-426 161.41,-380.68 139.13,-331.28 124.9,-302.56"/>
<polygon fill="#5d6972" stroke="#5d6972" stroke-width="1.2" points="126.97,-301.22 121.64,-296.06 122.59,-303.41 126.97,-301.22"/>
</g>
<!-- course__EOS431 -->
<g id="node56" class="node">
<title>course__EOS431</title>
<g id="a_node56"><a xlink:href="../../../courses/EOS431.html" xlink:title="Equivalent or cross&#45;listed: EOS431: Physical Oceanography | PHYS441: Physical Oceanography" target="_top">
<path fill="#f9f9f9" stroke="#363636" d="M151.11,-934C151.11,-934 71.11,-934 71.11,-934 65.11,-934 59.11,-928 59.11,-922 59.11,-922 59.11,-910 59.11,-910 59.11,-904 65.11,-898 71.11,-898 71.11,-898 151.11,-898 151.11,-898 157.11,-898 163.11,-904 163.11,-910 163.11,-910 163.11,-922 163.11,-922 163.11,-928 157.11,-934 151.11,-934"/>
<text text-anchor="middle" x="111.11" y="-913.8" font-family="Avenir Next" font-size="9.00" fill="#363636">EOS431 / PHYS441</text>
</a>
</g>
</g>
<!-- course__PHYS102B&#45;&gt;course__EOS431 -->
<g id="edge32" class="edge">
<title>course__PHYS102B&#45;&gt;course__EOS431</title>
<path fill="none" stroke="#5d6972" stroke-width="1.2" d="M399.88,-1460.33C383.01,-1454.49 363.04,-1444.71 351.11,-1429 330.86,-1402.35 350.49,-1385.68 337.11,-1355 295.81,-1260.33 247.18,-1259.42 199.11,-1168 177.57,-1127.03 136.58,-996.24 119.68,-941"/>
<polygon fill="#5d6972" stroke="#5d6972" stroke-width="1.2" points="121.94,-940.01 117.55,-934.03 117.25,-941.44 121.94,-940.01"/>
</g>
<!-- course__EOS220 -->
<g id="node11" class="node">
<title>course__EOS220</title>
<g id="a_node11"><a xlink:href="../../../courses/EOS220.html" xlink:title="Equivalent or cross&#45;listed: EOS220: Weather and Climate | GEOG220: Weather and Climate" target="_top">
<path fill="#d7e9ef" stroke="#1f4f66" stroke-width="1.6" d="M311.11,-1051C311.11,-1051 225.11,-1051 225.11,-1051 219.11,-1051 213.11,-1045 213.11,-1039 213.11,-1039 213.11,-1027 213.11,-1027 213.11,-1021 219.11,-1015 225.11,-1015 225.11,-1015 311.11,-1015 311.11,-1015 317.11,-1015 323.11,-1021 323.11,-1027 323.11,-1027 323.11,-1039 323.11,-1039 323.11,-1045 317.11,-1051 311.11,-1051"/>
<text text-anchor="middle" x="268.11" y="-1030.5" font-family="Avenir Next" font-size="10.00" fill="#17232b">EOS220 / GEOG220</text>
</a>
</g>
</g>
<!-- course__ES200 -->
<g id="node12" class="node">
<title>course__ES200</title>
<g id="a_node12"><a xlink:href="../../../courses/ES200.html" xlink:title="ES200: Introduction to Environmental Studies" target="_top">
<path fill="#efd8cf" stroke="#8f5945" stroke-width="1.3" d="M283.11,-793C283.11,-793 253.11,-793 253.11,-793 247.11,-793 241.11,-787 241.11,-781 241.11,-781 241.11,-769 241.11,-769 241.11,-763 247.11,-757 253.11,-757 253.11,-757 283.11,-757 283.11,-757 289.11,-757 295.11,-763 295.11,-769 295.11,-769 295.11,-781 295.11,-781 295.11,-787 289.11,-793 283.11,-793"/>
<text text-anchor="middle" x="268.11" y="-772.5" font-family="Avenir Next" font-size="10.00" fill="#3f251d">ES200</text>
</a>
</g>
</g>
<!-- course__ES301 -->
<g id="node31" class="node">
<title>course__ES301</title>
<g id="a_node31"><a xlink:href="../../../courses/ES301.html" xlink:title="ES301: Political Ecology" target="_top">
<path fill="#e7e2d8" stroke="#746554" stroke-width="1.3" d="M446.11,-590C446.11,-590 416.11,-590 416.11,-590 410.11,-590 404.11,-584 404.11,-578 404.11,-578 404.11,-566 404.11,-566 404.11,-560 410.11,-554 416.11,-554 416.11,-554 446.11,-554 446.11,-554 452.11,-554 458.11,-560 458.11,-566 458.11,-566 458.11,-578 458.11,-578 458.11,-584 452.11,-590 446.11,-590"/>
<text text-anchor="middle" x="431.11" y="-569.5" font-family="Avenir Next" font-size="10.00" fill="#342d25">ES301</text>
</a>
</g>
</g>
<!-- course__ES200&#45;&gt;course__ES301 -->
<g id="edge33" class="edge">
<title>course__ES200&#45;&gt;course__ES301</title>
<path fill="none" stroke="#5d6972" stroke-width="1.2" d="M295.39,-772.55C310.01,-769.74 327.19,-763.75 337.11,-751 358.21,-723.88 329.57,-623.77 351.11,-597 362.06,-583.39 380.39,-577.07 396.64,-574.18"/>
<polygon fill="#5d6972" stroke="#5d6972" stroke-width="1.2" points="397.37,-576.55 403.92,-573.08 396.64,-571.7 397.37,-576.55"/>
</g>
<!-- course__GEOG222 -->
<g id="node13" class="node">
<title>course__GEOG222</title>
<g id="a_node13"><a xlink:href="../../../courses/GEOG222.html" xlink:title="GEOG222: Introduction to GIS" target="_top">
<path fill="#d7e9ef" stroke="#1f4f66" stroke-width="1.6" d="M287.61,-695C287.61,-695 248.61,-695 248.61,-695 242.61,-695 236.61,-689 236.61,-683 236.61,-683 236.61,-671 236.61,-671 236.61,-665 242.61,-659 248.61,-659 248.61,-659 287.61,-659 287.61,-659 293.61,-659 299.61,-665 299.61,-671 299.61,-671 299.61,-683 299.61,-683 299.61,-689 293.61,-695 287.61,-695"/>
<text text-anchor="middle" x="268.11" y="-674.5" font-family="Avenir Next" font-size="10.00" fill="#17232b">GEOG222</text>
</a>
</g>
</g>
<!-- course__GEOG323 -->
<g id="node32" class="node">
<title>course__GEOG323</title>
<g id="a_node32"><a xlink:href="../../../courses/GEOG323.html" xlink:title="GEOG323: Digital Mapping" target="_top">
<path fill="#d7e9ef" stroke="#1f4f66" stroke-width="1.6" d="M450.61,-492C450.61,-492 411.61,-492 411.61,-492 405.61,-492 399.61,-486 399.61,-480 399.61,-480 399.61,-468 399.61,-468 399.61,-462 405.61,-456 411.61,-456 411.61,-456 450.61,-456 450.61,-456 456.61,-456 462.61,-462 462.61,-468 462.61,-468 462.61,-480 462.61,-480 462.61,-486 456.61,-492 450.61,-492"/>
<text text-anchor="middle" x="431.11" y="-471.5" font-family="Avenir Next" font-size="10.00" fill="#17232b">GEOG323</text>
</a>
</g>
</g>
<!-- course__GEOG222&#45;&gt;course__GEOG323 -->
<g id="edge43" class="edge">
<title>course__GEOG222&#45;&gt;course__GEOG323</title>
<path fill="none" stroke="#5d6972" stroke-width="1.2" d="M299.88,-673.6C313.4,-670.47 328.19,-664.46 337.11,-653 358.21,-625.88 329.57,-525.77 351.11,-499 361.03,-486.67 377.01,-480.32 392.01,-477.09"/>
<polygon fill="#5d6972" stroke="#5d6972" stroke-width="1.2" points="392.83,-479.43 399.27,-475.74 391.94,-474.61 392.83,-479.43"/>
</g>
<!-- course__GEOG328 -->
<g id="node33" class="node">
<title>course__GEOG328</title>
<g id="a_node33"><a xlink:href="../../../courses/GEOG328.html" xlink:title="GEOG328: GIS Analysis" target="_top">
<path fill="#d7e9ef" stroke="#1f4f66" stroke-width="1.6" d="M450.61,-541C450.61,-541 411.61,-541 411.61,-541 405.61,-541 399.61,-535 399.61,-529 399.61,-529 399.61,-517 399.61,-517 399.61,-511 405.61,-505 411.61,-505 411.61,-505 450.61,-505 450.61,-505 456.61,-505 462.61,-511 462.61,-517 462.61,-517 462.61,-529 462.61,-529 462.61,-535 456.61,-541 450.61,-541"/>
<text text-anchor="middle" x="431.11" y="-520.5" font-family="Avenir Next" font-size="10.00" fill="#17232b">GEOG328</text>
</a>
</g>
</g>
<!-- course__GEOG222&#45;&gt;course__GEOG328 -->
<g id="edge45" class="edge">
<title>course__GEOG222&#45;&gt;course__GEOG328</title>
<path fill="none" stroke="#5d6972" stroke-width="1.2" d="M299.66,-673.43C313.14,-670.26 327.96,-664.27 337.11,-653 366.79,-616.45 320.84,-584.06 351.11,-548 361.29,-535.88 377.3,-529.56 392.26,-526.29"/>
<polygon fill="#5d6972" stroke="#5d6972" stroke-width="1.2" points="393.07,-528.63 399.49,-524.92 392.16,-523.82 393.07,-528.63"/>
</g>
<!-- course__GEOG228 -->
<g id="node14" class="node">
<title>course__GEOG228</title>
<g id="a_node14"><a xlink:href="../../../courses/GEOG228.html" xlink:title="GEOG228: Introduction to Remote Sensing" target="_top">
<path fill="#d7e9ef" stroke="#1f4f66" stroke-width="1.6" d="M287.61,-744C287.61,-744 248.61,-744 248.61,-744 242.61,-744 236.61,-738 236.61,-732 236.61,-732 236.61,-720 236.61,-720 236.61,-714 242.61,-708 248.61,-708 248.61,-708 287.61,-708 287.61,-708 293.61,-708 299.61,-714 299.61,-720 299.61,-720 299.61,-732 299.61,-732 299.61,-738 293.61,-744 287.61,-744"/>
<text text-anchor="middle" x="268.11" y="-723.5" font-family="Avenir Next" font-size="10.00" fill="#17232b">GEOG228</text>
</a>
</g>
</g>
<!-- course__GEOG228&#45;&gt;course__GEOG328 -->
<g id="edge46" class="edge">
<title>course__GEOG228&#45;&gt;course__GEOG328</title>
<path fill="none" stroke="#5d6972" stroke-width="1.2" d="M299.88,-722.6C313.4,-719.47 328.19,-713.46 337.11,-702 358.21,-674.88 329.57,-574.77 351.11,-548 361.03,-535.67 377.01,-529.32 392.01,-526.09"/>
<polygon fill="#5d6972" stroke="#5d6972" stroke-width="1.2" points="392.83,-528.43 399.27,-524.74 391.94,-523.61 392.83,-528.43"/>
</g>
<!-- course__EOS230 -->
<g id="node15" class="node">
<title>course__EOS230</title>
<g id="a_node15"><a xlink:href="../../../courses/EOS230.html" xlink:title="Equivalent or cross&#45;listed: EOS230: Introduction to Environmental Data Analysis | GEOG230: Introduction to Environmental Data Analysis" target="_top">
<path fill="#d7e9ef" stroke="#1f4f66" stroke-width="1.6" d="M311.11,-646C311.11,-646 225.11,-646 225.11,-646 219.11,-646 213.11,-640 213.11,-634 213.11,-634 213.11,-622 213.11,-622 213.11,-616 219.11,-610 225.11,-610 225.11,-610 311.11,-610 311.11,-610 317.11,-610 323.11,-616 323.11,-622 323.11,-622 323.11,-634 323.11,-634 323.11,-640 317.11,-646 311.11,-646"/>
<text text-anchor="middle" x="268.11" y="-625.5" font-family="Avenir Next" font-size="10.00" fill="#17232b">EOS230 / GEOG230</text>
</a>
</g>
</g>
<!-- course__GEOG489 -->
<g id="node47" class="node">
<title>course__GEOG489</title>
<g id="a_node47"><a xlink:href="../../../courses/GEOG489.html" xlink:title="GEOG489: Climate Solutions" target="_top">
<path fill="#d7e9ef" stroke="#1f4f66" stroke-width="1.6" d="M450.61,-394C450.61,-394 411.61,-394 411.61,-394 405.61,-394 399.61,-388 399.61,-382 399.61,-382 399.61,-370 399.61,-370 399.61,-364 405.61,-358 411.61,-358 411.61,-358 450.61,-358 450.61,-358 456.61,-358 462.61,-364 462.61,-370 462.61,-370 462.61,-382 462.61,-382 462.61,-388 456.61,-394 450.61,-394"/>
<text text-anchor="middle" x="431.11" y="-373.5" font-family="Avenir Next" font-size="10.00" fill="#17232b">GEOG489</text>
</a>
</g>
</g>
<!-- course__EOS230&#45;&gt;course__GEOG489 -->
<g id="edge69" class="edge">
<title>course__EOS230&#45;&gt;course__GEOG489</title>
<path fill="none" stroke="#5d6972" stroke-width="1.2" d="M315.21,-609.81C323.8,-604.37 331.74,-597.52 337.11,-589 359.44,-553.55 325.12,-433.85 351.11,-401 361.09,-388.38 377.44,-382.01 392.68,-378.85"/>
<polygon fill="#5d6972" stroke="#5d6972" stroke-width="1.2" points="393.12,-381.26 399.57,-377.61 392.25,-376.44 393.12,-381.26"/>
</g>
<!-- course__GEOG209 -->
<g id="node16" class="node">
<title>course__GEOG209</title>
<g id="a_node16"><a xlink:href="../../../courses/GEOG209.html" xlink:title="GEOG209: Environmental Management" target="_top">
<path fill="#d7e9ef" stroke="#1f4f66" stroke-width="1.6" d="M287.61,-904C287.61,-904 248.61,-904 248.61,-904 242.61,-904 236.61,-898 236.61,-892 236.61,-892 236.61,-880 236.61,-880 236.61,-874 242.61,-868 248.61,-868 248.61,-868 287.61,-868 287.61,-868 293.61,-868 299.61,-874 299.61,-880 299.61,-880 299.61,-892 299.61,-892 299.61,-898 293.61,-904 287.61,-904"/>
<text text-anchor="middle" x="268.11" y="-883.5" font-family="Avenir Next" font-size="10.00" fill="#17232b">GEOG209</text>
</a>
</g>
</g>
<!-- course__GEOG301 -->
<g id="node35" class="node">
<title>course__GEOG301</title>
<g id="a_node35"><a xlink:href="../../../courses/GEOG301.html" xlink:title="GEOG301: Environmental Impact Assessment" target="_top">
<path fill="#d7e9ef" stroke="#1f4f66" stroke-width="1.6" d="M450.61,-848C450.61,-848 411.61,-848 411.61,-848 405.61,-848 399.61,-842 399.61,-836 399.61,-836 399.61,-824 399.61,-824 399.61,-818 405.61,-812 411.61,-812 411.61,-812 450.61,-812 450.61,-812 456.61,-812 462.61,-818 462.61,-824 462.61,-824 462.61,-836 462.61,-836 462.61,-842 456.61,-848 450.61,-848"/>
<text text-anchor="middle" x="431.11" y="-827.5" font-family="Avenir Next" font-size="10.00" fill="#17232b">GEOG301</text>
</a>
</g>
</g>
<!-- course__GEOG209&#45;&gt;course__GEOG301 -->
<g id="edge41" class="edge">
<title>course__GEOG209&#45;&gt;course__GEOG301</title>
<path fill="none" stroke="#5d6972" stroke-width="1.2" d="M299.89,-876.05C311.66,-872 325.13,-867.09 337.11,-862 343.51,-859.28 344.66,-857.61 351.11,-855 364.39,-849.62 379.3,-844.64 392.56,-840.56"/>
<polygon fill="#5d6972" stroke="#5d6972" stroke-width="1.2" points="393.34,-842.89 399.33,-838.52 391.92,-838.2 393.34,-842.89"/>
</g>
<!-- course__GEOG371 -->
<g id="node37" class="node">
<title>course__GEOG371</title>
<g id="a_node37"><a xlink:href="../../../courses/GEOG371.html" xlink:title="GEOG371: Water Resources Management" target="_top">
<path fill="#d7e9ef" stroke="#1f4f66" stroke-width="1.6" d="M450.61,-786C450.61,-786 411.61,-786 411.61,-786 405.61,-786 399.61,-780 399.61,-774 399.61,-774 399.61,-762 399.61,-762 399.61,-756 405.61,-750 411.61,-750 411.61,-750 450.61,-750 450.61,-750 456.61,-750 462.61,-756 462.61,-762 462.61,-762 462.61,-774 462.61,-774 462.61,-780 456.61,-786 450.61,-786"/>
<text text-anchor="middle" x="431.11" y="-765.5" font-family="Avenir Next" font-size="10.00" fill="#17232b">GEOG371</text>
</a>
</g>
</g>
<!-- course__GEOG209&#45;&gt;course__GEOG371 -->
<g id="edge51" class="edge">
<title>course__GEOG209&#45;&gt;course__GEOG371</title>
<path fill="none" stroke="#5d6972" stroke-width="1.2" d="M299.69,-882.08C313,-878.82 327.68,-872.88 337.11,-862 357.9,-838.03 329.8,-815.5 351.11,-792 361.62,-780.41 377.53,-774.34 392.32,-771.19"/>
<polygon fill="#5d6972" stroke="#5d6972" stroke-width="1.2" points="393.03,-773.55 399.46,-769.87 392.13,-768.73 393.03,-773.55"/>
</g>
<!-- course__GEOG272 -->
<g id="node17" class="node">
<title>course__GEOG272</title>
<g id="a_node17"><a xlink:href="../../../courses/GEOG272.html" xlink:title="GEOG272: Climatology and Hydrology" target="_top">
<path fill="#d7e9ef" stroke="#1f4f66" stroke-width="1.6" d="M287.61,-842C287.61,-842 248.61,-842 248.61,-842 242.61,-842 236.61,-836 236.61,-830 236.61,-830 236.61,-818 236.61,-818 236.61,-812 242.61,-806 248.61,-806 248.61,-806 287.61,-806 287.61,-806 293.61,-806 299.61,-812 299.61,-818 299.61,-818 299.61,-830 299.61,-830 299.61,-836 293.61,-842 287.61,-842"/>
<text text-anchor="middle" x="268.11" y="-821.5" font-family="Avenir Next" font-size="10.00" fill="#17232b">GEOG272</text>
</a>
</g>
</g>
<!-- course__GEOG313 -->
<g id="node36" class="node">
<title>course__GEOG313</title>
<g id="a_node36"><a xlink:href="../../../courses/GEOG313.html" xlink:title="GEOG313: Field Studies in Mountain Meteorology" target="_top">
<path fill="#d7e9ef" stroke="#1f4f66" stroke-width="1.6" d="M450.61,-639C450.61,-639 411.61,-639 411.61,-639 405.61,-639 399.61,-633 399.61,-627 399.61,-627 399.61,-615 399.61,-615 399.61,-609 405.61,-603 411.61,-603 411.61,-603 450.61,-603 450.61,-603 456.61,-603 462.61,-609 462.61,-615 462.61,-615 462.61,-627 462.61,-627 462.61,-633 456.61,-639 450.61,-639"/>
<text text-anchor="middle" x="431.11" y="-618.5" font-family="Avenir Next" font-size="10.00" fill="#17232b">GEOG313</text>
</a>
</g>
</g>
<!-- course__GEOG272&#45;&gt;course__GEOG313 -->
<g id="edge42" class="edge">
<title>course__GEOG272&#45;&gt;course__GEOG313</title>
<path fill="none" stroke="#5d6972" stroke-width="1.2" d="M299.88,-820.6C313.4,-817.47 328.19,-811.46 337.11,-800 358.21,-772.88 329.57,-672.77 351.11,-646 361.03,-633.67 377.01,-627.32 392.01,-624.09"/>
<polygon fill="#5d6972" stroke="#5d6972" stroke-width="1.2" points="392.83,-626.43 399.27,-622.74 391.94,-621.61 392.83,-626.43"/>
</g>
<!-- course__GEOG272&#45;&gt;course__GEOG371 -->
<g id="edge52" class="edge">
<title>course__GEOG272&#45;&gt;course__GEOG371</title>
<path fill="none" stroke="#5d6972" stroke-width="1.2" d="M299.7,-814.51C311.57,-810.49 325.16,-805.47 337.11,-800 343.63,-797.02 344.53,-794.84 351.11,-792 364.34,-786.3 379.35,-781.37 392.71,-777.5"/>
<polygon fill="#5d6972" stroke="#5d6972" stroke-width="1.2" points="393.46,-779.83 399.53,-775.57 392.13,-775.12 393.46,-779.83"/>
</g>
<!-- course__GEOG373 -->
<g id="node38" class="node">
<title>course__GEOG373</title>
<g id="a_node38"><a xlink:href="../../../courses/GEOG373.html" xlink:title="GEOG373: Applied Climatology" target="_top">
<path fill="#d7e9ef" stroke="#1f4f66" stroke-width="1.6" d="M450.61,-296C450.61,-296 411.61,-296 411.61,-296 405.61,-296 399.61,-290 399.61,-284 399.61,-284 399.61,-272 399.61,-272 399.61,-266 405.61,-260 411.61,-260 411.61,-260 450.61,-260 450.61,-260 456.61,-260 462.61,-266 462.61,-272 462.61,-272 462.61,-284 462.61,-284 462.61,-290 456.61,-296 450.61,-296"/>
<text text-anchor="middle" x="431.11" y="-275.5" font-family="Avenir Next" font-size="10.00" fill="#17232b">GEOG373</text>
</a>
</g>
</g>
<!-- course__GEOG272&#45;&gt;course__GEOG373 -->
<g id="edge53" class="edge">
<title>course__GEOG272&#45;&gt;course__GEOG373</title>
<path fill="none" stroke="#5d6972" stroke-width="1.2" d="M299.85,-820.93C313.54,-817.87 328.48,-811.84 337.11,-800 369.65,-755.36 317.84,-347.1 351.11,-303 360.8,-290.15 377.11,-283.76 392.4,-280.63"/>
<polygon fill="#5d6972" stroke="#5d6972" stroke-width="1.2" points="392.85,-283.04 399.32,-279.41 392.01,-278.21 392.85,-283.04"/>
</g>
<!-- choice_GEOG370_0_0 -->
<g id="node66" class="node">
<title>choice_GEOG370_0_0</title>
<path fill="#fff7ee" stroke="#b7793f" stroke-width="1.1" d="M283.11,-247C283.11,-247 253.11,-247 253.11,-247 247.11,-247 241.11,-241 241.11,-235 241.11,-235 241.11,-223 241.11,-223 241.11,-217 247.11,-211 253.11,-211 253.11,-211 283.11,-211 283.11,-211 289.11,-211 295.11,-217 295.11,-223 295.11,-223 295.11,-235 295.11,-235 295.11,-241 289.11,-247 283.11,-247"/>
<text text-anchor="middle" x="268.11" y="-226.8" font-family="Avenir Next" font-size="9.00">1 of</text>
</g>
<!-- course__GEOG272&#45;&gt;choice_GEOG370_0_0 -->
<g id="edge48" class="edge">
<title>course__GEOG272&#45;&gt;choice_GEOG370_0_0</title>
<path fill="none" stroke="#7a8389" d="M236.23,-821.49C217.74,-818.16 196.01,-810.58 185.11,-793.5 169.18,-768.54 169.18,-285.46 185.11,-260.5 195.58,-244.1 215.91,-236.21 233.82,-232.43"/>
<polygon fill="#7a8389" stroke="#7a8389" points="234.37,-234.82 240.8,-231.13 233.47,-230.01 234.37,-234.82"/>
</g>
<!-- choice_ECON383_0_0 -->
<g id="node60" class="node">
<title>choice_ECON383_0_0</title>
<path fill="#fff7ee" stroke="#b7793f" stroke-width="1.1" d="M283.11,-296C283.11,-296 253.11,-296 253.11,-296 247.11,-296 241.11,-290 241.11,-284 241.11,-284 241.11,-272 241.11,-272 241.11,-266 247.11,-260 253.11,-260 253.11,-260 283.11,-260 283.11,-260 289.11,-260 295.11,-266 295.11,-272 295.11,-272 295.11,-284 295.11,-284 295.11,-290 289.11,-296 283.11,-296"/>
<text text-anchor="middle" x="268.11" y="-275.8" font-family="Avenir Next" font-size="9.00">1 of</text>
</g>
<!-- course__STAT254&#45;&gt;choice_ECON383_0_0 -->
<g id="edge15" class="edge">
<title>course__STAT254&#45;&gt;choice_ECON383_0_0</title>
<path fill="none" stroke="#7a8389" d="M225.03,-978.99C209.6,-974.8 193.86,-967.22 185.11,-953.5 175.49,-938.42 175.49,-324.58 185.11,-309.5 195.58,-293.1 215.91,-285.21 233.82,-281.43"/>
<polygon fill="#7a8389" stroke="#7a8389" points="234.37,-283.82 240.8,-280.13 233.47,-279.01 234.37,-283.82"/>
</g>
<!-- course__CIVE315 -->
<g id="node44" class="node">
<title>course__CIVE315</title>
<g id="a_node44"><a xlink:href="../../../courses/CIVE315.html" xlink:title="CIVE315: Environmental Policy" target="_top">
<path fill="#e7e2d8" stroke="#746554" stroke-width="1.3" d="M447.61,-1338C447.61,-1338 414.61,-1338 414.61,-1338 408.61,-1338 402.61,-1332 402.61,-1326 402.61,-1326 402.61,-1314 402.61,-1314 402.61,-1308 408.61,-1302 414.61,-1302 414.61,-1302 447.61,-1302 447.61,-1302 453.61,-1302 459.61,-1308 459.61,-1314 459.61,-1314 459.61,-1326 459.61,-1326 459.61,-1332 453.61,-1338 447.61,-1338"/>
<text text-anchor="middle" x="431.11" y="-1317.5" font-family="Avenir Next" font-size="10.00" fill="#342d25">CIVE315</text>
</a>
</g>
</g>
<!-- course__CIVE210&#45;&gt;course__CIVE315 -->
<g id="edge12" class="edge">
<title>course__CIVE210&#45;&gt;course__CIVE315</title>
<path fill="none" stroke="#5d6972" stroke-width="1.2" d="M296.68,-937.89C311.15,-940.94 327.77,-947.19 337.11,-960 359.13,-990.19 328.24,-1266.45 351.11,-1296 361.53,-1309.47 379.3,-1315.6 395.34,-1318.31"/>
<polygon fill="#5d6972" stroke="#5d6972" stroke-width="1.2" points="395.29,-1320.78 402.56,-1319.33 395.97,-1315.93 395.29,-1320.78"/>
</g>
<!-- course__ADMN311 -->
<g id="node20" class="node">
<title>course__ADMN311</title>
<g id="a_node20"><a xlink:href="../../../courses/ADMN311.html" xlink:title="Equivalent or cross&#45;listed: ADMN311: Introduction to Public Administration | POLI350: Introduction to Public Administration" target="_top">
<path fill="#e7e2d8" stroke="#746554" stroke-width="1.3" d="M476.11,-345C476.11,-345 386.11,-345 386.11,-345 380.11,-345 374.11,-339 374.11,-333 374.11,-333 374.11,-321 374.11,-321 374.11,-315 380.11,-309 386.11,-309 386.11,-309 476.11,-309 476.11,-309 482.11,-309 488.11,-315 488.11,-321 488.11,-321 488.11,-333 488.11,-333 488.11,-339 482.11,-345 476.11,-345"/>
<text text-anchor="middle" x="431.11" y="-324.5" font-family="Avenir Next" font-size="10.00" fill="#342d25">ADMN311 / POLI350</text>
</a>
</g>
</g>
<!-- course__ADMN420 -->
<g id="node30" class="node">
<title>course__ADMN420</title>
<g id="a_node30"><a xlink:href="../../../courses/ADMN420.html" xlink:title="ADMN420: The Public Policy Process" target="_top">
<path fill="#e7e2d8" stroke="#746554" stroke-width="1.3" d="M592.11,-345C592.11,-345 551.11,-345 551.11,-345 545.11,-345 539.11,-339 539.11,-333 539.11,-333 539.11,-321 539.11,-321 539.11,-315 545.11,-309 551.11,-309 551.11,-309 592.11,-309 592.11,-309 598.11,-309 604.11,-315 604.11,-321 604.11,-321 604.11,-333 604.11,-333 604.11,-339 598.11,-345 592.11,-345"/>
<text text-anchor="middle" x="571.61" y="-324.5" font-family="Avenir Next" font-size="10.00" fill="#342d25">ADMN420</text>
</a>
</g>
</g>
<!-- course__ADMN311&#45;&gt;course__ADMN420 -->
<g id="edge3" class="edge">
<title>course__ADMN311&#45;&gt;course__ADMN420</title>
<path fill="none" stroke="#5d6972" stroke-width="1.2" d="M488.44,-327C502.98,-327 518.3,-327 531.72,-327"/>
<polygon fill="#5d6972" stroke="#5d6972" stroke-width="1.2" points="531.97,-329.45 538.97,-327 531.97,-324.55 531.97,-329.45"/>
</g>
<!-- course__ADMN316 -->
<g id="node21" class="node">
<title>course__ADMN316</title>
<g id="a_node21"><a xlink:href="../../../courses/ADMN316.html" xlink:title="ADMN316: Public Sector Communications" target="_top">
<path fill="#e7e2d8" stroke="#746554" stroke-width="1.3" d="M451.61,-1289C451.61,-1289 410.61,-1289 410.61,-1289 404.61,-1289 398.61,-1283 398.61,-1277 398.61,-1277 398.61,-1265 398.61,-1265 398.61,-1259 404.61,-1253 410.61,-1253 410.61,-1253 451.61,-1253 451.61,-1253 457.61,-1253 463.61,-1259 463.61,-1265 463.61,-1265 463.61,-1277 463.61,-1277 463.61,-1283 457.61,-1289 451.61,-1289"/>
<text text-anchor="middle" x="431.11" y="-1268.5" font-family="Avenir Next" font-size="10.00" fill="#342d25">ADMN316</text>
</a>
</g>
</g>
<!-- course__ANTH302 -->
<g id="node22" class="node">
<title>course__ANTH302</title>
<g id="a_node22"><a xlink:href="../../../courses/ANTH302.html" xlink:title="ANTH302: Globalization, Health, and the Environment" target="_top">
<path fill="#e7e2d8" stroke="#746554" stroke-width="1.3" d="M450.11,-1240C450.11,-1240 412.11,-1240 412.11,-1240 406.11,-1240 400.11,-1234 400.11,-1228 400.11,-1228 400.11,-1216 400.11,-1216 400.11,-1210 406.11,-1204 412.11,-1204 412.11,-1204 450.11,-1204 450.11,-1204 456.11,-1204 462.11,-1210 462.11,-1216 462.11,-1216 462.11,-1228 462.11,-1228 462.11,-1234 456.11,-1240 450.11,-1240"/>
<text text-anchor="middle" x="431.11" y="-1219.5" font-family="Avenir Next" font-size="10.00" fill="#342d25">ANTH302</text>
</a>
</g>
</g>
<!-- course__CIVE411 -->
<g id="node23" class="node">
<title>course__CIVE411</title>
<g id="a_node23"><a xlink:href="../../../courses/CIVE411.html" xlink:title="CIVE411: Resilient Smart Cities" target="_top">
<path fill="#e7e2d8" stroke="#746554" stroke-width="1.3" d="M447.61,-1191C447.61,-1191 414.61,-1191 414.61,-1191 408.61,-1191 402.61,-1185 402.61,-1179 402.61,-1179 402.61,-1167 402.61,-1167 402.61,-1161 408.61,-1155 414.61,-1155 414.61,-1155 447.61,-1155 447.61,-1155 453.61,-1155 459.61,-1161 459.61,-1167 459.61,-1167 459.61,-1179 459.61,-1179 459.61,-1185 453.61,-1191 447.61,-1191"/>
<text text-anchor="middle" x="431.11" y="-1170.5" font-family="Avenir Next" font-size="10.00" fill="#342d25">CIVE411</text>
</a>
</g>
</g>
<!-- course__EOS365 -->
<g id="node24" class="node">
<title>course__EOS365</title>
<g id="a_node24"><a xlink:href="../../../courses/EOS365.html" xlink:title="Equivalent or cross&#45;listed: EOS365: Climate and Society | ES365: Climate and Society" target="_top">
<path fill="#e2deef" stroke="#665683" stroke-width="1.3" d="M465.61,-737C465.61,-737 396.61,-737 396.61,-737 390.61,-737 384.61,-731 384.61,-725 384.61,-725 384.61,-713 384.61,-713 384.61,-707 390.61,-701 396.61,-701 396.61,-701 465.61,-701 465.61,-701 471.61,-701 477.61,-707 477.61,-713 477.61,-713 477.61,-725 477.61,-725 477.61,-731 471.61,-737 465.61,-737"/>
<text text-anchor="middle" x="431.11" y="-716.5" font-family="Avenir Next" font-size="10.00" fill="#2f2741">EOS365 / ES365</text>
</a>
</g>
</g>
<!-- choice_GEOG450_0 -->
<g id="node68" class="node">
<title>choice_GEOG450_0</title>
<path fill="#fff7ee" stroke="#b7793f" stroke-width="1.1" d="M586.61,-1471C586.61,-1471 556.61,-1471 556.61,-1471 550.61,-1471 544.61,-1465 544.61,-1459 544.61,-1459 544.61,-1447 544.61,-1447 544.61,-1441 550.61,-1435 556.61,-1435 556.61,-1435 586.61,-1435 586.61,-1435 592.61,-1435 598.61,-1441 598.61,-1447 598.61,-1447 598.61,-1459 598.61,-1459 598.61,-1465 592.61,-1471 586.61,-1471"/>
<text text-anchor="middle" x="571.61" y="-1450.8" font-family="Avenir Next" font-size="9.00">2 of</text>
</g>
<!-- course__EOS365&#45;&gt;choice_GEOG450_0 -->
<g id="edge61" class="edge">
<title>course__EOS365&#45;&gt;choice_GEOG450_0</title>
<path fill="none" stroke="#7a8389" d="M477.92,-728.92C485.39,-732.5 492.25,-737.37 497.11,-744 587.26,-867.01 467.27,-1294.47 539.11,-1429 539.38,-1429.5 539.66,-1429.99 539.96,-1430.48"/>
<polygon fill="#7a8389" stroke="#7a8389" points="538.29,-1432.33 544.51,-1436.37 542.17,-1429.34 538.29,-1432.33"/>
</g>
<!-- choice_GEOG489_0_2 -->
<g id="node70" class="node">
<title>choice_GEOG489_0_2</title>
<path fill="#fff7ee" stroke="#b7793f" stroke-width="1.1" d="M586.61,-1422C586.61,-1422 556.61,-1422 556.61,-1422 550.61,-1422 544.61,-1416 544.61,-1410 544.61,-1410 544.61,-1398 544.61,-1398 544.61,-1392 550.61,-1386 556.61,-1386 556.61,-1386 586.61,-1386 586.61,-1386 592.61,-1386 598.61,-1392 598.61,-1398 598.61,-1398 598.61,-1410 598.61,-1410 598.61,-1416 592.61,-1422 586.61,-1422"/>
<text text-anchor="middle" x="571.61" y="-1401.8" font-family="Avenir Next" font-size="9.00">1 of</text>
</g>
<!-- course__EOS365&#45;&gt;choice_GEOG489_0_2 -->
<g id="edge68" class="edge">
<title>course__EOS365&#45;&gt;choice_GEOG489_0_2</title>
<path fill="none" stroke="#7a8389" d="M477.9,-728.94C485.36,-732.51 492.23,-737.38 497.11,-744 580.48,-857.14 478.42,-1248.25 539.11,-1375 539.98,-1376.82 541.03,-1378.59 542.19,-1380.28"/>
<polygon fill="#7a8389" stroke="#7a8389" points="540.29,-1381.82 546.57,-1385.77 544.12,-1378.77 540.29,-1381.82"/>
</g>
<!-- course__EOS499A -->
<g id="node25" class="node">
<title>course__EOS499A</title>
<g id="a_node25"><a xlink:href="../../../courses/EOS499A.html" xlink:title="Equivalent or cross&#45;listed: EOS499A: Honours Thesis I | EOS499B: Honours Thesis II" target="_top">
<path fill="#dbe8d2" stroke="#567447" stroke-width="1.3" d="M476.11,-1093C476.11,-1093 386.11,-1093 386.11,-1093 380.11,-1093 374.11,-1087 374.11,-1081 374.11,-1081 374.11,-1069 374.11,-1069 374.11,-1063 380.11,-1057 386.11,-1057 386.11,-1057 476.11,-1057 476.11,-1057 482.11,-1057 488.11,-1063 488.11,-1069 488.11,-1069 488.11,-1081 488.11,-1081 488.11,-1087 482.11,-1093 476.11,-1093"/>
<text text-anchor="middle" x="431.11" y="-1072.5" font-family="Avenir Next" font-size="10.00" fill="#24311e">EOS499A / EOS499B</text>
</a>
</g>
</g>
<!-- course__ES314 -->
<g id="node26" class="node">
<title>course__ES314</title>
<g id="a_node26"><a xlink:href="../../../courses/ES314.html" xlink:title="Equivalent or cross&#45;listed: ES314: Philosophy and the Environment | PHIL333: Philosophy and the Environment" target="_top">
<path fill="#e7e2d8" stroke="#746554" stroke-width="1.3" d="M466.61,-1044C466.61,-1044 395.61,-1044 395.61,-1044 389.61,-1044 383.61,-1038 383.61,-1032 383.61,-1032 383.61,-1020 383.61,-1020 383.61,-1014 389.61,-1008 395.61,-1008 395.61,-1008 466.61,-1008 466.61,-1008 472.61,-1008 478.61,-1014 478.61,-1020 478.61,-1020 478.61,-1032 478.61,-1032 478.61,-1038 472.61,-1044 466.61,-1044"/>
<text text-anchor="middle" x="431.11" y="-1023.5" font-family="Avenir Next" font-size="10.00" fill="#342d25">ES314 / PHIL333</text>
</a>
</g>
</g>
<!-- course__GEOG314 -->
<g id="node27" class="node">
<title>course__GEOG314</title>
<g id="a_node27"><a xlink:href="../../../courses/GEOG314.html" xlink:title="GEOG314: Global Environmental Change and Human Response" target="_top">
<path fill="#e2deef" stroke="#665683" stroke-width="1.3" d="M450.61,-688C450.61,-688 411.61,-688 411.61,-688 405.61,-688 399.61,-682 399.61,-676 399.61,-676 399.61,-664 399.61,-664 399.61,-658 405.61,-652 411.61,-652 411.61,-652 450.61,-652 450.61,-652 456.61,-652 462.61,-658 462.61,-664 462.61,-664 462.61,-676 462.61,-676 462.61,-682 456.61,-688 450.61,-688"/>
<text text-anchor="middle" x="431.11" y="-667.5" font-family="Avenir Next" font-size="10.00" fill="#2f2741">GEOG314</text>
</a>
</g>
</g>
<!-- course__GEOG314&#45;&gt;choice_GEOG450_0 -->
<g id="edge59" class="edge">
<title>course__GEOG314&#45;&gt;choice_GEOG450_0</title>
<path fill="none" stroke="#7a8389" d="M462.76,-674.36C475.45,-677.8 489.06,-683.96 497.11,-695 593.41,-826.98 462.45,-1284.73 539.11,-1429 539.38,-1429.5 539.66,-1429.99 539.95,-1430.48"/>
<polygon fill="#7a8389" stroke="#7a8389" points="538.29,-1432.33 544.5,-1436.38 542.17,-1429.34 538.29,-1432.33"/>
</g>
<!-- course__GEOG314&#45;&gt;choice_GEOG489_0_2 -->
<g id="edge67" class="edge">
<title>course__GEOG314&#45;&gt;choice_GEOG489_0_2</title>
<path fill="none" stroke="#7a8389" d="M462.73,-674.37C475.42,-677.82 489.03,-683.98 497.11,-695 586.63,-817.1 474.05,-1238.29 539.11,-1375 539.98,-1376.82 541.02,-1378.59 542.18,-1380.29"/>
<polygon fill="#7a8389" stroke="#7a8389" points="540.28,-1381.83 546.55,-1385.78 544.11,-1378.77 540.28,-1381.83"/>
</g>
<!-- course__GEOG499A -->
<g id="node28" class="node">
<title>course__GEOG499A</title>
<g id="a_node28"><a xlink:href="../../../courses/GEOG499A.html" xlink:title="Equivalent or cross&#45;listed: GEOG499A: Honours Thesis | GEOG499B: Honours Thesis" target="_top">
<path fill="#dbe8d2" stroke="#567447" stroke-width="1.3" d="M485.11,-946C485.11,-946 377.11,-946 377.11,-946 371.11,-946 365.11,-940 365.11,-934 365.11,-934 365.11,-922 365.11,-922 365.11,-916 371.11,-910 377.11,-910 377.11,-910 485.11,-910 485.11,-910 491.11,-910 497.11,-916 497.11,-922 497.11,-922 497.11,-934 497.11,-934 497.11,-940 491.11,-946 485.11,-946"/>
<text text-anchor="middle" x="431.11" y="-925.5" font-family="Avenir Next" font-size="10.00" fill="#24311e">GEOG499A / GEOG499B</text>
</a>
</g>
</g>
<!-- course__POLI351 -->
<g id="node29" class="node">
<title>course__POLI351</title>
<g id="a_node29"><a xlink:href="../../../courses/POLI351.html" xlink:title="POLI351: Public Policy Analysis" target="_top">
<path fill="#e7e2d8" stroke="#746554" stroke-width="1.3" d="M447.11,-897C447.11,-897 415.11,-897 415.11,-897 409.11,-897 403.11,-891 403.11,-885 403.11,-885 403.11,-873 403.11,-873 403.11,-867 409.11,-861 415.11,-861 415.11,-861 447.11,-861 447.11,-861 453.11,-861 459.11,-867 459.11,-873 459.11,-873 459.11,-885 459.11,-885 459.11,-891 453.11,-897 447.11,-897"/>
<text text-anchor="middle" x="431.11" y="-876.5" font-family="Avenir Next" font-size="10.00" fill="#342d25">POLI351</text>
</a>
</g>
</g>
<!-- course__ES405 -->
<g id="node34" class="node">
<title>course__ES405</title>
<g id="a_node34"><a xlink:href="../../../courses/ES405.html" xlink:title="ES405: Climate, Energy and Politics" target="_top">
<path fill="#e7e2d8" stroke="#746554" stroke-width="1.3" d="M586.61,-590C586.61,-590 556.61,-590 556.61,-590 550.61,-590 544.61,-584 544.61,-578 544.61,-578 544.61,-566 544.61,-566 544.61,-560 550.61,-554 556.61,-554 556.61,-554 586.61,-554 586.61,-554 592.61,-554 598.61,-560 598.61,-566 598.61,-566 598.61,-578 598.61,-578 598.61,-584 592.61,-590 586.61,-590"/>
<text text-anchor="middle" x="571.61" y="-569.5" font-family="Avenir Next" font-size="10.00" fill="#342d25">ES405</text>
</a>
</g>
</g>
<!-- course__ES301&#45;&gt;course__ES405 -->
<g id="edge34" class="edge">
<title>course__ES301&#45;&gt;course__ES405</title>
<path fill="none" stroke="#5d6972" stroke-width="1.2" d="M458.16,-572C480.46,-572 512.71,-572 536.96,-572"/>
<polygon fill="#5d6972" stroke="#5d6972" stroke-width="1.2" points="537.21,-574.45 544.21,-572 537.21,-569.55 537.21,-574.45"/>
</g>
<!-- course__ES301&#45;&gt;choice_GEOG450_0 -->
<g id="edge62" class="edge">
<title>course__ES301&#45;&gt;choice_GEOG450_0</title>
<path fill="none" stroke="#7a8389" d="M458.13,-575.17C472.03,-578.32 488.1,-584.57 497.11,-597 605.73,-746.91 452.79,-1265.23 539.11,-1429 539.37,-1429.5 539.65,-1430 539.95,-1430.48"/>
<polygon fill="#7a8389" stroke="#7a8389" points="538.28,-1432.33 544.48,-1436.39 542.16,-1429.34 538.28,-1432.33"/>
</g>
<!-- course__GEOG301&#45;&gt;choice_GEOG450_0 -->
<g id="edge58" class="edge">
<title>course__GEOG301&#45;&gt;choice_GEOG450_0</title>
<path fill="none" stroke="#7a8389" d="M462.68,-834.42C475.35,-837.87 488.97,-844.03 497.11,-855 573.32,-957.71 478.2,-1316.54 539.11,-1429 539.38,-1429.5 539.67,-1429.99 539.96,-1430.47"/>
<polygon fill="#7a8389" stroke="#7a8389" points="538.31,-1432.34 544.55,-1436.36 542.18,-1429.33 538.31,-1432.34"/>
</g>
<!-- course__GEOG371&#45;&gt;choice_GEOG450_0 -->
<g id="edge60" class="edge">
<title>course__GEOG371&#45;&gt;choice_GEOG450_0</title>
<path fill="none" stroke="#7a8389" d="M462.68,-771.9C475.36,-775.16 488.98,-781.11 497.11,-792 582,-905.66 472,-1304.02 539.11,-1429 539.38,-1429.5 539.66,-1429.99 539.96,-1430.48"/>
<polygon fill="#7a8389" stroke="#7a8389" points="538.3,-1432.34 544.53,-1436.37 542.17,-1429.33 538.3,-1432.34"/>
</g>
<!-- course__GEOG484 -->
<g id="node42" class="node">
<title>course__GEOG484</title>
<g id="a_node42"><a xlink:href="../../../courses/GEOG484.html" xlink:title="GEOG484: Advanced Topics in Weather and Climate" target="_top">
<path fill="#d7e9ef" stroke="#1f4f66" stroke-width="1.6" d="M591.11,-296C591.11,-296 552.11,-296 552.11,-296 546.11,-296 540.11,-290 540.11,-284 540.11,-284 540.11,-272 540.11,-272 540.11,-266 546.11,-260 552.11,-260 552.11,-260 591.11,-260 591.11,-260 597.11,-260 603.11,-266 603.11,-272 603.11,-272 603.11,-284 603.11,-284 603.11,-290 597.11,-296 591.11,-296"/>
<text text-anchor="middle" x="571.61" y="-275.5" font-family="Avenir Next" font-size="10.00" fill="#17232b">GEOG484</text>
</a>
</g>
</g>
<!-- course__GEOG373&#45;&gt;course__GEOG484 -->
<g id="edge64" class="edge">
<title>course__GEOG373&#45;&gt;course__GEOG484</title>
<path fill="none" stroke="#5d6972" stroke-width="1.2" d="M462.85,-278C483.47,-278 510.77,-278 532.73,-278"/>
<polygon fill="#5d6972" stroke="#5d6972" stroke-width="1.2" points="532.96,-280.45 539.96,-278 532.96,-275.55 532.96,-280.45"/>
</g>
<!-- choice_GEOG405_0 -->
<g id="node67" class="node">
<title>choice_GEOG405_0</title>
<path fill="#fff7ee" stroke="#b7793f" stroke-width="1.1" d="M586.61,-36C586.61,-36 556.61,-36 556.61,-36 550.61,-36 544.61,-30 544.61,-24 544.61,-24 544.61,-12 544.61,-12 544.61,-6 550.61,0 556.61,0 556.61,0 586.61,0 586.61,0 592.61,0 598.61,-6 598.61,-12 598.61,-12 598.61,-24 598.61,-24 598.61,-30 592.61,-36 586.61,-36"/>
<text text-anchor="middle" x="571.61" y="-15.8" font-family="Avenir Next" font-size="9.00">1 of</text>
</g>
<!-- course__GEOG373&#45;&gt;choice_GEOG405_0 -->
<g id="edge55" class="edge">
<title>course__GEOG373&#45;&gt;choice_GEOG405_0</title>
<path fill="none" stroke="#7a8389" d="M462.68,-273.38C475.05,-270 488.42,-264.14 497.11,-254 558.2,-182.73 493,-128.77 539.11,-47 540.14,-45.18 541.32,-43.41 542.61,-41.7"/>
<polygon fill="#7a8389" stroke="#7a8389" points="544.67,-43.05 547.34,-36.14 540.94,-39.88 544.67,-43.05"/>
</g>
<!-- choice_GEOG489_0_1 -->
<g id="node69" class="node">
<title>choice_GEOG489_0_1</title>
<path fill="#fff7ee" stroke="#b7793f" stroke-width="1.1" d="M283.11,-345C283.11,-345 253.11,-345 253.11,-345 247.11,-345 241.11,-339 241.11,-333 241.11,-333 241.11,-321 241.11,-321 241.11,-315 247.11,-309 253.11,-309 253.11,-309 283.11,-309 283.11,-309 289.11,-309 295.11,-315 295.11,-321 295.11,-321 295.11,-333 295.11,-333 295.11,-339 289.11,-345 283.11,-345"/>
<text text-anchor="middle" x="268.11" y="-324.8" font-family="Avenir Next" font-size="9.00">1 of</text>
</g>
<!-- course__GEOG373&#45;&gt;choice_GEOG489_0_1 -->
<g id="edge65" class="edge">
<title>course__GEOG373&#45;&gt;choice_GEOG489_0_1</title>
<path fill="none" stroke="#7a8389" d="M399.5,-287.32C371.72,-295.77 330.87,-308.2 302.31,-316.89"/>
<polygon fill="#7a8389" stroke="#7a8389" points="301.32,-314.64 295.34,-319.02 302.75,-319.32 301.32,-314.64"/>
</g>
<!-- course__ECON383 -->
<g id="node39" class="node">
<title>course__ECON383</title>
<g id="a_node39"><a xlink:href="../../../courses/ECON383.html" xlink:title="ECON383: Climate Economics" target="_top">
<path fill="#e7e2d8" stroke="#746554" stroke-width="1.3" d="M450.11,-247C450.11,-247 412.11,-247 412.11,-247 406.11,-247 400.11,-241 400.11,-235 400.11,-235 400.11,-223 400.11,-223 400.11,-217 406.11,-211 412.11,-211 412.11,-211 450.11,-211 450.11,-211 456.11,-211 462.11,-217 462.11,-223 462.11,-223 462.11,-235 462.11,-235 462.11,-241 456.11,-247 450.11,-247"/>
<text text-anchor="middle" x="431.11" y="-226.5" font-family="Avenir Next" font-size="10.00" fill="#342d25">ECON383</text>
</a>
</g>
</g>
<!-- course__EOS314&#45;&gt;choice_EOS312_0_0 -->
<g id="edge22" class="edge">
<title>course__EOS314&#45;&gt;choice_EOS312_0_0</title>
<path fill="none" stroke="#7a8389" d="M403.85,-426.38C386.3,-428.76 364.13,-434.83 351.11,-450 324.74,-480.72 362.97,-508.85 337.11,-540 328.47,-550.4 315.02,-556.3 302.35,-559.64"/>
<polygon fill="#7a8389" stroke="#7a8389" points="301.7,-557.28 295.43,-561.25 302.81,-562.05 301.7,-557.28"/>
</g>
<!-- course__GEOG450 -->
<g id="node41" class="node">
<title>course__GEOG450</title>
<g id="a_node41"><a xlink:href="../../../courses/GEOG450.html" xlink:title="GEOG450: Environment and Sustainability in Practice" target="_top">
<path fill="#d7e9ef" stroke="#1f4f66" stroke-width="1.6" d="M450.61,-995C450.61,-995 411.61,-995 411.61,-995 405.61,-995 399.61,-989 399.61,-983 399.61,-983 399.61,-971 399.61,-971 399.61,-965 405.61,-959 411.61,-959 411.61,-959 450.61,-959 450.61,-959 456.61,-959 462.61,-965 462.61,-971 462.61,-971 462.61,-983 462.61,-983 462.61,-989 456.61,-995 450.61,-995"/>
<text text-anchor="middle" x="431.11" y="-974.5" font-family="Avenir Next" font-size="10.00" fill="#17232b">GEOG450</text>
</a>
</g>
</g>
<!-- course__STAT359 -->
<g id="node43" class="node">
<title>course__STAT359</title>
<g id="a_node43"><a xlink:href="../../../courses/STAT359.html" xlink:title="STAT359: Data Analysis" target="_top">
<path fill="#d7e9ef" stroke="#1f4f66" stroke-width="1.6" d="M448.11,-198C448.11,-198 414.11,-198 414.11,-198 408.11,-198 402.11,-192 402.11,-186 402.11,-186 402.11,-174 402.11,-174 402.11,-168 408.11,-162 414.11,-162 414.11,-162 448.11,-162 448.11,-162 454.11,-162 460.11,-168 460.11,-174 460.11,-174 460.11,-186 460.11,-186 460.11,-192 454.11,-198 448.11,-198"/>
<text text-anchor="middle" x="431.11" y="-177.5" font-family="Avenir Next" font-size="10.00" fill="#17232b">STAT359</text>
</a>
</g>
</g>
<!-- course__GEOG370 -->
<g id="node46" class="node">
<title>course__GEOG370</title>
<g id="a_node46"><a xlink:href="../../../courses/GEOG370.html" xlink:title="GEOG370: Methods in Hydrology" target="_top">
<path fill="#d7e9ef" stroke="#1f4f66" stroke-width="1.6" d="M450.61,-149C450.61,-149 411.61,-149 411.61,-149 405.61,-149 399.61,-143 399.61,-137 399.61,-137 399.61,-125 399.61,-125 399.61,-119 405.61,-113 411.61,-113 411.61,-113 450.61,-113 450.61,-113 456.61,-113 462.61,-119 462.61,-125 462.61,-125 462.61,-137 462.61,-137 462.61,-143 456.61,-149 450.61,-149"/>
<text text-anchor="middle" x="431.11" y="-128.5" font-family="Avenir Next" font-size="10.00" fill="#17232b">GEOG370</text>
</a>
</g>
</g>
<!-- course__GEOG370&#45;&gt;choice_GEOG405_0 -->
<g id="edge54" class="edge">
<title>course__GEOG370&#45;&gt;choice_GEOG405_0</title>
<path fill="none" stroke="#7a8389" d="M462.84,-123.85C474.38,-120.14 487.11,-114.71 497.11,-107 522.89,-87.12 517.68,-71.5 539.11,-47 540.83,-45.04 542.66,-43.07 544.56,-41.13"/>
<polygon fill="#7a8389" stroke="#7a8389" points="546.39,-42.77 549.65,-36.11 542.95,-39.28 546.39,-42.77"/>
</g>
<!-- course__GEOG405 -->
<g id="node48" class="node">
<title>course__GEOG405</title>
<g id="a_node48"><a xlink:href="../../../courses/GEOG405.html" xlink:title="GEOG405: Dynamics of the Cryosphere" target="_top">
<path fill="#d7e9ef" stroke="#1f4f66" stroke-width="1.6" d="M450.61,-100C450.61,-100 411.61,-100 411.61,-100 405.61,-100 399.61,-94 399.61,-88 399.61,-88 399.61,-76 399.61,-76 399.61,-70 405.61,-64 411.61,-64 411.61,-64 450.61,-64 450.61,-64 456.61,-64 462.61,-70 462.61,-76 462.61,-76 462.61,-88 462.61,-88 462.61,-94 456.61,-100 450.61,-100"/>
<text text-anchor="middle" x="431.11" y="-79.5" font-family="Avenir Next" font-size="10.00" fill="#17232b">GEOG405</text>
</a>
</g>
</g>
<!-- course__CHEM091 -->
<g id="node49" class="node">
<title>course__CHEM091</title>
<g id="a_node49"><a xlink:href="../../../courses/CHEM091.html" xlink:title="CHEM091: Introduction to Chemistry" target="_top">
<path fill="#f9f9f9" stroke="#363636" d="M129.61,-1828C129.61,-1828 92.61,-1828 92.61,-1828 86.61,-1828 80.61,-1822 80.61,-1816 80.61,-1816 80.61,-1804 80.61,-1804 80.61,-1798 86.61,-1792 92.61,-1792 92.61,-1792 129.61,-1792 129.61,-1792 135.61,-1792 141.61,-1798 141.61,-1804 141.61,-1804 141.61,-1816 141.61,-1816 141.61,-1822 135.61,-1828 129.61,-1828"/>
<text text-anchor="middle" x="111.11" y="-1807.8" font-family="Avenir Next" font-size="9.00" fill="#363636">CHEM091</text>
</a>
</g>
</g>
<!-- course__CHEM091&#45;&gt;course__CHEM102 -->
<g id="edge6" class="edge">
<title>course__CHEM091&#45;&gt;course__CHEM102</title>
<path fill="none" stroke="#5d6972" stroke-width="1.2" d="M141.63,-1802.09C152.58,-1797.66 164.05,-1790.96 171.11,-1781 231.44,-1695.92 134.42,-1629.82 199.11,-1548 206.47,-1538.69 217.66,-1532.84 228.84,-1529.17"/>
<polygon fill="#5d6972" stroke="#5d6972" stroke-width="1.2" points="229.73,-1531.47 235.76,-1527.16 228.36,-1526.76 229.73,-1531.47"/>
</g>
<!-- course__GEOG101A -->
<g id="node50" class="node">
<title>course__GEOG101A</title>
<g id="a_node50"><a xlink:href="../../../courses/GEOG101A.html" xlink:title="GEOG101A: Environment, Society and Sustainability" target="_top">
<path fill="#f9f9f9" stroke="#363636" d="M132.61,-1385C132.61,-1385 89.61,-1385 89.61,-1385 83.61,-1385 77.61,-1379 77.61,-1373 77.61,-1373 77.61,-1361 77.61,-1361 77.61,-1355 83.61,-1349 89.61,-1349 89.61,-1349 132.61,-1349 132.61,-1349 138.61,-1349 144.61,-1355 144.61,-1361 144.61,-1361 144.61,-1373 144.61,-1373 144.61,-1379 138.61,-1385 132.61,-1385"/>
<text text-anchor="middle" x="111.11" y="-1364.8" font-family="Avenir Next" font-size="9.00" fill="#363636">GEOG101A</text>
</a>
</g>
</g>
<!-- course__GEOG101A&#45;&gt;bundle_GEOG209_0_0 -->
<g id="edge35" class="edge">
<title>course__GEOG101A&#45;&gt;bundle_GEOG209_0_0</title>
<path fill="none" stroke="#7a8389" d="M144.98,-1367C179.32,-1367 231.4,-1367 254.87,-1367"/>
<polygon fill="#7a8389" stroke="#7a8389" points="254.91,-1369.45 261.91,-1367 254.91,-1364.55 254.91,-1369.45"/>
</g>
<!-- course__GEOG226 -->
<g id="node51" class="node">
<title>course__GEOG226</title>
<g id="a_node51"><a xlink:href="../../../courses/GEOG226.html" xlink:title="GEOG226: Quantitative Methods in Geography" target="_top">
<path fill="#f9f9f9" stroke="#363636" d="M129.61,-468C129.61,-468 92.61,-468 92.61,-468 86.61,-468 80.61,-462 80.61,-456 80.61,-456 80.61,-444 80.61,-444 80.61,-438 86.61,-432 92.61,-432 92.61,-432 129.61,-432 129.61,-432 135.61,-432 141.61,-438 141.61,-444 141.61,-444 141.61,-456 141.61,-456 141.61,-462 135.61,-468 129.61,-468"/>
<text text-anchor="middle" x="111.11" y="-447.8" font-family="Avenir Next" font-size="9.00" fill="#363636">GEOG226</text>
</a>
</g>
</g>
<!-- course__GEOG226&#45;&gt;course__GEOG323 -->
<g id="edge44" class="edge">
<title>course__GEOG226&#45;&gt;course__GEOG323</title>
<path fill="none" stroke="#5d6972" stroke-width="1.2" d="M141.74,-452.24C199.79,-456.62 328.39,-466.32 392.4,-471.15"/>
<polygon fill="#5d6972" stroke="#5d6972" stroke-width="1.2" points="392.34,-473.61 399.51,-471.69 392.71,-468.72 392.34,-473.61"/>
</g>
<!-- course__GEOG226&#45;&gt;course__GEOG328 -->
<g id="edge47" class="edge">
<title>course__GEOG226&#45;&gt;course__GEOG328</title>
<path fill="none" stroke="#5d6972" stroke-width="1.2" d="M141.9,-455.5C158.7,-458.6 180.07,-462.53 199.11,-466 260.43,-477.19 278.54,-469.67 337.11,-491 343.84,-493.45 344.53,-496.16 351.11,-499 364.34,-504.7 379.35,-509.63 392.71,-513.5"/>
<polygon fill="#5d6972" stroke="#5d6972" stroke-width="1.2" points="392.13,-515.88 399.53,-515.43 393.46,-511.17 392.13,-515.88"/>
</g>
<!-- course__GEOG226&#45;&gt;choice_ECON383_0_0 -->
<g id="edge14" class="edge">
<title>course__GEOG226&#45;&gt;choice_ECON383_0_0</title>
<path fill="none" stroke="#7a8389" d="M118.2,-431.95C129.43,-401.23 156.27,-338.68 199.11,-303 209.13,-294.66 222.18,-288.97 234.17,-285.16"/>
<polygon fill="#7a8389" stroke="#7a8389" points="235.05,-287.45 241.08,-283.13 233.67,-282.75 235.05,-287.45"/>
</g>
<!-- course__MATH151 -->
<g id="node52" class="node">
<title>course__MATH151</title>
<g id="a_node52"><a xlink:href="../../../courses/MATH151.html" xlink:title="MATH151: Finite Mathematics" target="_top">
<path fill="#f9f9f9" stroke="#363636" d="M128.61,-533C128.61,-533 93.61,-533 93.61,-533 87.61,-533 81.61,-527 81.61,-521 81.61,-521 81.61,-509 81.61,-509 81.61,-503 87.61,-497 93.61,-497 93.61,-497 128.61,-497 128.61,-497 134.61,-497 140.61,-503 140.61,-509 140.61,-509 140.61,-521 140.61,-521 140.61,-527 134.61,-533 128.61,-533"/>
<text text-anchor="middle" x="111.11" y="-512.8" font-family="Avenir Next" font-size="9.00" fill="#363636">MATH151</text>
</a>
</g>
</g>
<!-- course__MATH151&#45;&gt;choice_EOS314_0_0 -->
<g id="edge28" class="edge">
<title>course__MATH151&#45;&gt;choice_EOS314_0_0</title>
<path fill="none" stroke="#7a8389" d="M140.9,-515C167.26,-515 206.26,-515 233.93,-515"/>
<polygon fill="#7a8389" stroke="#7a8389" points="234.05,-517.45 241.05,-515 234.05,-512.55 234.05,-517.45"/>
</g>
<!-- course__CSC110&#45;&gt;course__CIVE210 -->
<g id="edge10" class="edge">
<title>course__CSC110&#45;&gt;course__CIVE210</title>
<path fill="none" stroke="#5d6972" stroke-width="1.2" d="M116.9,-1107.79C126.69,-1073.98 152.15,-1001.2 199.11,-960 208.59,-951.68 221.09,-946.04 232.77,-942.26"/>
<polygon fill="#5d6972" stroke="#5d6972" stroke-width="1.2" points="233.53,-944.59 239.53,-940.24 232.12,-939.9 233.53,-944.59"/>
</g>
<!-- course__BIOL186&#45;&gt;course__BIOL150A -->
<g id="edge4" class="edge">
<title>course__BIOL186&#45;&gt;course__BIOL150A</title>
<path fill="none" stroke="#5d6972" stroke-width="1.2" d="M82.72,-1858.36C60.61,-1856.17 31.22,-1849.21 16.11,-1828.5 -5.43,-1798.96 -5.29,-1529.14 16.11,-1499.5 27.33,-1483.95 46.53,-1475.96 64.75,-1471.89"/>
<polygon fill="#5d6972" stroke="#5d6972" stroke-width="1.2" points="65.54,-1474.23 71.93,-1470.47 64.59,-1469.42 65.54,-1474.23"/>
</g>
<!-- course__EOS340&#45;&gt;choice_GEOG370_0_0 -->
<g id="edge49" class="edge">
<title>course__EOS340&#45;&gt;choice_GEOG370_0_0</title>
<path fill="none" stroke="#7a8389" d="M163.29,-261.82C186.58,-254.46 213.47,-245.96 234.05,-239.45"/>
<polygon fill="#7a8389" stroke="#7a8389" points="234.84,-241.77 240.77,-237.33 233.36,-237.1 234.84,-241.77"/>
</g>
<!-- course__EOS340&#45;&gt;choice_GEOG405_0 -->
<g id="edge56" class="edge">
<title>course__EOS340&#45;&gt;choice_GEOG405_0</title>
<path fill="none" stroke="#7a8389" d="M124.33,-259.95C155.84,-215.05 244.84,-98.32 351.11,-47 411.93,-17.63 492.67,-14.92 537.33,-16.1"/>
<polygon fill="#7a8389" stroke="#7a8389" points="537.37,-18.55 544.45,-16.33 537.53,-13.66 537.37,-18.55"/>
</g>
<!-- course__EOS340&#45;&gt;choice_GEOG489_0_1 -->
<g id="edge66" class="edge">
<title>course__EOS340&#45;&gt;choice_GEOG489_0_1</title>
<path fill="none" stroke="#7a8389" d="M163.29,-294.18C186.58,-301.54 213.47,-310.04 234.05,-316.55"/>
<polygon fill="#7a8389" stroke="#7a8389" points="233.36,-318.9 240.77,-318.67 234.84,-314.23 233.36,-318.9"/>
</g>
<!-- course__EOS431&#45;&gt;choice_EOS312_0_0 -->
<g id="edge23" class="edge">
<title>course__EOS431&#45;&gt;choice_EOS312_0_0</title>
<path fill="none" stroke="#7a8389" d="M111.78,-897.76C111.78,-844.19 118.93,-685.28 199.11,-593 208.13,-582.62 221.51,-575.85 234.03,-571.48"/>
<polygon fill="#7a8389" stroke="#7a8389" points="234.94,-573.76 240.86,-569.3 233.44,-569.1 234.94,-573.76"/>
</g>
<!-- year_band__year&#45;1 -->
<!-- year_band__year&#45;2 -->
<!-- year_band__year&#45;1&#45;&gt;year_band__year&#45;2 -->
<!-- year_band__years&#45;3&#45;4 -->
<!-- year_band__year&#45;2&#45;&gt;year_band__years&#45;3&#45;4 -->
<!-- choice_ECON383_0_0&#45;&gt;course__ECON383 -->
<g id="edge16" class="edge">
<title>choice_ECON383_0_0&#45;&gt;course__ECON383</title>
<path fill="none" stroke="#5d6972" stroke-width="1.2" d="M295.34,-270.02C321.9,-261.93 363.22,-249.36 393.1,-240.26"/>
<polygon fill="#5d6972" stroke="#5d6972" stroke-width="1.2" points="394.08,-242.53 400.06,-238.15 392.65,-237.84 394.08,-242.53"/>
</g>
<!-- choice_ECON383_0_0&#45;&gt;course__STAT359 -->
<g id="edge78" class="edge">
<title>choice_ECON383_0_0&#45;&gt;course__STAT359</title>
<path fill="none" stroke="#5d6972" stroke-width="1.2" d="M295.21,-274.68C309.39,-271.58 326.22,-265.58 337.11,-254 352.63,-237.5 335.32,-221.24 351.11,-205 362.59,-193.19 379.6,-186.95 394.9,-183.65"/>
<polygon fill="#5d6972" stroke="#5d6972" stroke-width="1.2" points="395.36,-186.05 401.78,-182.33 394.44,-181.24 395.36,-186.05"/>
</g>
<!-- choice_EOS230_0_1&#45;&gt;course__EOS230 -->
<g id="edge20" class="edge">
<title>choice_EOS230_0_1&#45;&gt;course__EOS230</title>
<path fill="none" stroke="#5d6972" stroke-width="1.2" d="M240.78,-1402.24C221.43,-1399.35 196.92,-1392.01 185.11,-1373.5 174.44,-1356.78 174.44,-676.22 185.11,-659.5 190.26,-651.42 197.81,-645.41 206.28,-640.94"/>
<polygon fill="#5d6972" stroke="#5d6972" stroke-width="1.2" points="207.63,-643.01 212.91,-637.81 205.53,-638.58 207.63,-643.01"/>
</g>
<!-- choice_EOS230_0_1&#45;&gt;course__GEOG272 -->
<g id="edge40" class="edge">
<title>choice_EOS230_0_1&#45;&gt;course__GEOG272</title>
<path fill="none" stroke="#5d6972" stroke-width="1.2" d="M240.78,-1402.24C221.43,-1399.35 196.92,-1392.01 185.11,-1373.5 169.6,-1349.2 169.6,-878.8 185.11,-854.5 194.65,-839.55 212.48,-831.89 229.17,-827.97"/>
<polygon fill="#5d6972" stroke="#5d6972" stroke-width="1.2" points="229.87,-830.33 236.23,-826.51 228.88,-825.53 229.87,-830.33"/>
</g>
<!-- choice_GEOG209_0 -->
<g id="node65" class="node">
<title>choice_GEOG209_0</title>
<path fill="#fff7ee" stroke="#b7793f" stroke-width="1.1" d="M446.11,-1422C446.11,-1422 416.11,-1422 416.11,-1422 410.11,-1422 404.11,-1416 404.11,-1410 404.11,-1410 404.11,-1398 404.11,-1398 404.11,-1392 410.11,-1386 416.11,-1386 416.11,-1386 446.11,-1386 446.11,-1386 452.11,-1386 458.11,-1392 458.11,-1398 458.11,-1398 458.11,-1410 458.11,-1410 458.11,-1416 452.11,-1422 446.11,-1422"/>
<text text-anchor="middle" x="431.11" y="-1401.8" font-family="Avenir Next" font-size="9.00">1 of</text>
</g>
<!-- choice_EOS230_0_1&#45;&gt;choice_GEOG209_0 -->
<g id="edge38" class="edge">
<title>choice_EOS230_0_1&#45;&gt;choice_GEOG209_0</title>
<path fill="none" stroke="#7a8389" d="M295.34,-1404C322.94,-1404 366.47,-1404 396.55,-1404"/>
<polygon fill="#7a8389" stroke="#7a8389" points="396.9,-1406.45 403.9,-1404 396.9,-1401.55 396.9,-1406.45"/>
</g>
<!-- choice_EOS312_0_0&#45;&gt;course__EOS312 -->
<g id="edge24" class="edge">
<title>choice_EOS312_0_0&#45;&gt;course__EOS312</title>
<path fill="none" stroke="#5d6972" stroke-width="1.2" d="M295.15,-568.05C310.06,-571.83 327.65,-579.1 337.11,-593 368.82,-639.59 316.93,-1055.2 351.11,-1100 361.74,-1113.93 380.24,-1120.03 396.66,-1122.6"/>
<polygon fill="#5d6972" stroke="#5d6972" stroke-width="1.2" points="396.77,-1125.09 404.03,-1123.55 397.4,-1120.23 396.77,-1125.09"/>
</g>
<!-- choice_EOS314_0_0&#45;&gt;course__EOS314 -->
<g id="edge29" class="edge">
<title>choice_EOS314_0_0&#45;&gt;course__EOS314</title>
<path fill="none" stroke="#5d6972" stroke-width="1.2" d="M287.9,-496.79C303.67,-482.37 327.37,-462.61 351.11,-450 365.41,-442.4 382.41,-436.65 396.97,-432.59"/>
<polygon fill="#5d6972" stroke="#5d6972" stroke-width="1.2" points="397.77,-434.91 403.9,-430.74 396.51,-430.18 397.77,-434.91"/>
</g>
<!-- bundle_GEOG209_0_0&#45;&gt;choice_GEOG209_0 -->
<g id="edge37" class="edge">
<title>bundle_GEOG209_0_0&#45;&gt;choice_GEOG209_0</title>
<path fill="none" stroke="#7a8389" d="M274.08,-1367.84C285.34,-1369.76 313.65,-1374.74 337.11,-1380 357.08,-1384.48 379.27,-1390.18 396.97,-1394.9"/>
<polygon fill="#7a8389" stroke="#7a8389" points="396.37,-1397.28 403.76,-1396.72 397.64,-1392.54 396.37,-1397.28"/>
</g>
<!-- choice_GEOG209_0&#45;&gt;course__GEOG209 -->
<g id="edge39" class="edge">
<title>choice_GEOG209_0&#45;&gt;course__GEOG209</title>
<path fill="none" stroke="#5d6972" stroke-width="1.2" d="M403.9,-1401.82C385.9,-1398.81 363.16,-1391.71 351.11,-1375 320.95,-1333.16 367.26,-952.85 337.11,-911 329.92,-901.02 318.3,-895.02 306.68,-891.41"/>
<polygon fill="#5d6972" stroke="#5d6972" stroke-width="1.2" points="307.27,-889.03 299.87,-889.55 305.98,-893.76 307.27,-889.03"/>
</g>
<!-- choice_GEOG370_0_0&#45;&gt;course__GEOG370 -->
<g id="edge50" class="edge">
<title>choice_GEOG370_0_0&#45;&gt;course__GEOG370</title>
<path fill="none" stroke="#5d6972" stroke-width="1.2" d="M285.34,-210.7C300.78,-194.28 325.43,-170.6 351.11,-156 363.78,-148.8 378.8,-143.38 392.32,-139.46"/>
<polygon fill="#5d6972" stroke="#5d6972" stroke-width="1.2" points="393.14,-141.78 399.24,-137.55 391.84,-137.05 393.14,-141.78"/>
</g>
<!-- choice_GEOG405_0&#45;&gt;course__GEOG405 -->
<g id="edge57" class="edge">
<title>choice_GEOG405_0&#45;&gt;course__GEOG405</title>
<path fill="none" stroke="#5d6972" stroke-width="1.2" d="M544.16,-30.22C522.96,-40.02 492.95,-53.88 469.33,-64.8"/>
<polygon fill="#5d6972" stroke="#5d6972" stroke-width="1.2" points="468.17,-62.64 462.85,-67.8 470.23,-67.08 468.17,-62.64"/>
</g>
<!-- choice_GEOG450_0&#45;&gt;course__GEOG450 -->
<g id="edge63" class="edge">
<title>choice_GEOG450_0&#45;&gt;course__GEOG450</title>
<path fill="none" stroke="#5d6972" stroke-width="1.2" d="M544.32,-1436.01C542.31,-1433.86 540.52,-1431.52 539.11,-1429 492.66,-1345.73 554.88,-1077.86 497.11,-1002 490.38,-993.16 480.11,-987.45 469.7,-983.75"/>
<polygon fill="#5d6972" stroke="#5d6972" stroke-width="1.2" points="470.3,-981.37 462.88,-981.61 468.82,-986.05 470.3,-981.37"/>
</g>
<!-- choice_GEOG489_0_1&#45;&gt;course__GEOG489 -->
<g id="edge70" class="edge">
<title>choice_GEOG489_0_1&#45;&gt;course__GEOG489</title>
<path fill="none" stroke="#5d6972" stroke-width="1.2" d="M295.33,-335C311.42,-339.91 332.46,-346.32 351.11,-352 364.53,-356.08 379.24,-360.55 392.29,-364.52"/>
<polygon fill="#5d6972" stroke="#5d6972" stroke-width="1.2" points="391.93,-366.97 399.34,-366.66 393.36,-362.28 391.93,-366.97"/>
</g>
<!-- choice_GEOG489_0_2&#45;&gt;course__GEOG489 -->
<g id="edge71" class="edge">
<title>choice_GEOG489_0_2&#45;&gt;course__GEOG489</title>
<path fill="none" stroke="#5d6972" stroke-width="1.2" d="M546.49,-1385.81C543.54,-1382.54 540.93,-1378.91 539.11,-1375 493.47,-1276.76 560.35,-488.95 497.11,-401 490.57,-391.9 480.24,-386.11 469.73,-382.43"/>
<polygon fill="#5d6972" stroke="#5d6972" stroke-width="1.2" points="470.24,-380.03 462.83,-380.3 468.8,-384.71 470.24,-380.03"/>
</g>
</g>
</svg>
