<?xml version="1.0" encoding="UTF-8" standalone="no"?>
<!DOCTYPE svg PUBLIC "-//W3C//DTD SVG 1.1//EN"
 "http://www.w3.org/Graphics/SVG/1.1/DTD/svg11.dtd">
<!-- Generated by graphviz version 2.43.0 (0)
 -->
<!-- Title: BSC&#45;CLSC&#45;&#45;impacts&#45;adaptations&#45;and&#45;mitigation Pages: 1 -->
<svg width="3156pt" height="2581pt"
 viewBox="0.00 0.00 3156.16 2581.43" xmlns="http://www.w3.org/2000/svg" xmlns:xlink="http://www.w3.org/1999/xlink">
<g id="graph0" class="graph" transform="scale(1 1) rotate(0) translate(32.4 2549.03)">
<title>BSC&#45;CLSC&#45;&#45;impacts&#45;adaptations&#45;and&#45;mitigation</title>
<g id="clust1" class="cluster">
<title>cluster_year&#45;1</title>
<path fill="#fbfcfd" stroke="#d8dde1" stroke-width="1.2" d="M20,-978C20,-978 888.86,-978 888.86,-978 894.86,-978 900.86,-984 900.86,-990 900.86,-990 900.86,-1724 900.86,-1724 900.86,-1730 894.86,-1736 888.86,-1736 888.86,-1736 20,-1736 20,-1736 14,-1736 8,-1730 8,-1724 8,-1724 8,-990 8,-990 8,-984 14,-978 20,-978"/>
</g>
<g id="clust5" class="cluster">
<title>cluster_year&#45;2</title>
<path fill="#fbfcfd" stroke="#d8dde1" stroke-width="1.2" d="M1108,-1038C1108,-1038 1806.86,-1038 1806.86,-1038 1812.86,-1038 1818.86,-1044 1818.86,-1050 1818.86,-1050 1818.86,-1684 1818.86,-1684 1818.86,-1690 1812.86,-1696 1806.86,-1696 1806.86,-1696 1108,-1696 1108,-1696 1102,-1696 1096,-1690 1096,-1684 1096,-1684 1096,-1050 1096,-1050 1096,-1044 1102,-1038 1108,-1038"/>
</g>
<g id="clust10" class="cluster">
<title>cluster_years&#45;3&#45;4</title>
<path fill="#fbfcfd" stroke="#d8dde1" stroke-width="1.2" d="M2026,-351C2026,-351 3071.36,-351 3071.36,-351 3077.36,-351 3083.36,-357 3083.36,-363 3083.36,-363 3083.36,-1678 3083.36,-1678 3083.36,-1684 3077.36,-1690 3071.36,-1690 3071.36,-1690 2026,-1690 2026,-1690 2020,-1690 2014,-1684 2014,-1678 2014,-1678 2014,-363 2014,-363 2014,-357 2020,-351 2026,-351"/>
</g>
<!-- course__CHEM101 -->
<g id="node1" class="node">
<title>course__CHEM101</title>
<g id="a_node1"><a xlink:href="../../../courses/CHEM101.html" xlink:title="Equivalent or cross&#45;listed: CHEM101: Fundamentals of Chemistry from Atoms to Materials | CHEM150: Engineering Chemistry" target="_top">
<path fill="#d7e9ef" stroke="#1f4f66" stroke-width="1.6" d="M365,-1282C365,-1282 269,-1282 269,-1282 263,-1282 257,-1276 257,-1270 257,-1270 257,-1258 257,-1258 257,-1252 263,-1246 269,-1246 269,-1246 365,-1246 365,-1246 371,-1246 377,-1252 377,-1258 377,-1258 377,-1270 377,-1270 377,-1276 371,-1282 365,-1282"/>
<text text-anchor="middle" x="317" y="-1261.5" font-family="Avenir Next" font-size="10.00" fill="#17232b">CHEM101 / CHEM150</text>
</a>
</g>
</g>
<!-- course__CHEM102 -->
<g id="node8" class="node">
<title>course__CHEM102</title>
<g id="a_node8"><a xlink:href="../../../courses/CHEM102.html" xlink:title="CHEM102: Chemical Reactivity Fundamentals with Environmental Applications" target="_top">
<path fill="#d7e9ef" stroke="#1f4f66" stroke-width="1.6" d="M522,-1180C522,-1180 482,-1180 482,-1180 476,-1180 470,-1174 470,-1168 470,-1168 470,-1156 470,-1156 470,-1150 476,-1144 482,-1144 482,-1144 522,-1144 522,-1144 528,-1144 534,-1150 534,-1156 534,-1156 534,-1168 534,-1168 534,-1174 528,-1180 522,-1180"/>
<text text-anchor="middle" x="502" y="-1159.5" font-family="Avenir Next" font-size="10.00" fill="#17232b">CHEM102</text>
</a>
</g>
</g>
<!-- course__CHEM101&#45;&gt;course__CHEM102 -->
<g id="edge115" class="edge">
<title>course__CHEM101&#45;&gt;course__CHEM102</title>
<path fill="none" stroke="#5d6972" stroke-width="1.2" d="M354.36,-1245.91C361.89,-1242.06 369.73,-1237.95 377,-1234 406.94,-1217.71 440.31,-1198.26 464.89,-1183.68"/>
<polygon fill="#5d6972" stroke="#5d6972" stroke-width="1.2" points="466.18,-1185.76 470.95,-1180.08 463.68,-1181.55 466.18,-1185.76"/>
</g>
<!-- course__CIVE210 -->
<g id="node24" class="node">
<title>course__CIVE210</title>
<g id="a_node24"><a xlink:href="../../../courses/CIVE210.html" xlink:title="CIVE210: Sustainability in Civil Engineering" target="_top">
<path fill="#dbe8d2" stroke="#567447" stroke-width="1.3" d="M1416.5,-1162C1416.5,-1162 1383.5,-1162 1383.5,-1162 1377.5,-1162 1371.5,-1156 1371.5,-1150 1371.5,-1150 1371.5,-1138 1371.5,-1138 1371.5,-1132 1377.5,-1126 1383.5,-1126 1383.5,-1126 1416.5,-1126 1416.5,-1126 1422.5,-1126 1428.5,-1132 1428.5,-1138 1428.5,-1138 1428.5,-1150 1428.5,-1150 1428.5,-1156 1422.5,-1162 1416.5,-1162"/>
<text text-anchor="middle" x="1400" y="-1141.5" font-family="Avenir Next" font-size="10.00" fill="#24311e">CIVE210</text>
</a>
</g>
</g>
<!-- course__CHEM101&#45;&gt;course__CIVE210 -->
<g id="edge117" class="edge">
<title>course__CHEM101&#45;&gt;course__CIVE210</title>
<path fill="none" stroke="#5d6972" stroke-width="1.2" d="M364.33,-1245.84C369.12,-1242.48 373.5,-1238.56 377,-1234 485.41,-1092.72 363.08,-991.4 460,-842 521.3,-747.51 552.37,-693 665,-693 665,-693 665,-693 1152,-693 1357.84,-693 1205.18,-962.94 1345,-1114 1350.58,-1120.03 1357.65,-1125.13 1364.82,-1129.33"/>
<polygon fill="#5d6972" stroke="#5d6972" stroke-width="1.2" points="1364.08,-1131.71 1371.4,-1132.92 1366.43,-1127.42 1364.08,-1131.71"/>
</g>
<!-- year_band__year&#45;1__exit -->
<!-- course__CHEM101&#45;&gt;year_band__year&#45;1__exit -->
<!-- course__EOS110 -->
<g id="node2" class="node">
<title>course__EOS110</title>
<g id="a_node2"><a xlink:href="../../../courses/EOS110.html" xlink:title="Equivalent or cross&#45;listed: EOS110: Oceans and Atmosphere | EOS350: Understanding the Oceans" target="_top">
<path fill="#ead9b8" stroke="#8f6a3b" stroke-width="1.3" d="M355.5,-1042C355.5,-1042 278.5,-1042 278.5,-1042 272.5,-1042 266.5,-1036 266.5,-1030 266.5,-1030 266.5,-1018 266.5,-1018 266.5,-1012 272.5,-1006 278.5,-1006 278.5,-1006 355.5,-1006 355.5,-1006 361.5,-1006 367.5,-1012 367.5,-1018 367.5,-1018 367.5,-1030 367.5,-1030 367.5,-1036 361.5,-1042 355.5,-1042"/>
<text text-anchor="middle" x="317" y="-1021.5" font-family="Avenir Next" font-size="10.00" fill="#3f3120">EOS110 / EOS350</text>
</a>
</g>
</g>
<!-- course__EOS110&#45;&gt;year_band__year&#45;1__exit -->
<!-- choice_EOS230_0_1 -->
<g id="node65" class="node">
<title>choice_EOS230_0_1</title>
<path fill="#fff7ee" stroke="#b7793f" stroke-width="1.1" d="M517,-890C517,-890 487,-890 487,-890 481,-890 475,-884 475,-878 475,-878 475,-866 475,-866 475,-860 481,-854 487,-854 487,-854 517,-854 517,-854 523,-854 529,-860 529,-866 529,-866 529,-878 529,-878 529,-884 523,-890 517,-890"/>
<text text-anchor="middle" x="502" y="-869.8" font-family="Avenir Next" font-size="9.00">1 of</text>
</g>
<!-- course__EOS110&#45;&gt;choice_EOS230_0_1 -->
<g id="edge125" class="edge">
<title>course__EOS110&#45;&gt;choice_EOS230_0_1</title>
<path fill="none" stroke="#7a8389" d="M339.71,-1005.97C373.14,-978.2 437.18,-925.01 473.7,-894.68"/>
<polygon fill="#7a8389" stroke="#7a8389" points="475.5,-896.37 479.32,-890.01 472.37,-892.6 475.5,-896.37"/>
</g>
<!-- choice_EOS312_0_0 -->
<g id="node66" class="node">
<title>choice_EOS312_0_0</title>
<path fill="#fff7ee" stroke="#b7793f" stroke-width="1.1" d="M3070,-245C3070,-245 3040,-245 3040,-245 3034,-245 3028,-239 3028,-233 3028,-233 3028,-221 3028,-221 3028,-215 3034,-209 3040,-209 3040,-209 3070,-209 3070,-209 3076,-209 3082,-215 3082,-221 3082,-221 3082,-233 3082,-233 3082,-239 3076,-245 3070,-245"/>
<text text-anchor="middle" x="3055" y="-224.8" font-family="Avenir Next" font-size="9.00">1 of</text>
</g>
<!-- course__EOS110&#45;&gt;choice_EOS312_0_0 -->
<g id="edge129" class="edge">
<title>course__EOS110&#45;&gt;choice_EOS312_0_0</title>
<path fill="none" stroke="#7a8389" d="M320.02,-1005.79C335.72,-868.41 443.74,0 665,0 665,0 665,0 2727.5,0 2828.39,0 2863.74,-5.2 2945,-65 2994.14,-101.17 3028.07,-166.57 3043.88,-202.21"/>
<polygon fill="#7a8389" stroke="#7a8389" points="3041.76,-203.48 3046.8,-208.92 3046.25,-201.52 3041.76,-203.48"/>
</g>
<!-- course__EOS130 -->
<g id="node3" class="node">
<title>course__EOS130</title>
<g id="a_node3"><a xlink:href="../../../courses/EOS130.html" xlink:title="Equivalent or cross&#45;listed: EOS130: Climate Change | GEOG130: Climate Change" target="_top">
<path fill="#ead9b8" stroke="#8f6a3b" stroke-width="1.3" d="M360,-1222C360,-1222 274,-1222 274,-1222 268,-1222 262,-1216 262,-1210 262,-1210 262,-1198 262,-1198 262,-1192 268,-1186 274,-1186 274,-1186 360,-1186 360,-1186 366,-1186 372,-1192 372,-1198 372,-1198 372,-1210 372,-1210 372,-1216 366,-1222 360,-1222"/>
<text text-anchor="middle" x="317" y="-1201.5" font-family="Avenir Next" font-size="10.00" fill="#3f3120">EOS130 / GEOG130</text>
</a>
</g>
</g>
<!-- course__EOS130&#45;&gt;year_band__year&#45;1__exit -->
<!-- course__EOS130&#45;&gt;choice_EOS230_0_1 -->
<g id="edge126" class="edge">
<title>course__EOS130&#45;&gt;choice_EOS230_0_1</title>
<path fill="none" stroke="#7a8389" d="M363.25,-1185.83C368.35,-1182.45 373.1,-1178.52 377,-1174 452.91,-1085.98 405.69,-1028.76 460,-926 465.5,-915.58 472.97,-905.06 480.02,-896.1"/>
<polygon fill="#7a8389" stroke="#7a8389" points="482.09,-897.45 484.58,-890.46 478.27,-894.37 482.09,-897.45"/>
</g>
<!-- course__GEOG103 -->
<g id="node4" class="node">
<title>course__GEOG103</title>
<g id="a_node4"><a xlink:href="../../../courses/GEOG103.html" xlink:title="GEOG103: Our Natural Earth" target="_top">
<path fill="#ead9b8" stroke="#8f6a3b" stroke-width="1.3" d="M336.5,-1102C336.5,-1102 297.5,-1102 297.5,-1102 291.5,-1102 285.5,-1096 285.5,-1090 285.5,-1090 285.5,-1078 285.5,-1078 285.5,-1072 291.5,-1066 297.5,-1066 297.5,-1066 336.5,-1066 336.5,-1066 342.5,-1066 348.5,-1072 348.5,-1078 348.5,-1078 348.5,-1090 348.5,-1090 348.5,-1096 342.5,-1102 336.5,-1102"/>
<text text-anchor="middle" x="317" y="-1081.5" font-family="Avenir Next" font-size="10.00" fill="#3f3120">GEOG103</text>
</a>
</g>
</g>
<!-- course__GEOG103&#45;&gt;year_band__year&#45;1__exit -->
<!-- course__GEOG103&#45;&gt;choice_EOS230_0_1 -->
<g id="edge127" class="edge">
<title>course__GEOG103&#45;&gt;choice_EOS230_0_1</title>
<path fill="none" stroke="#7a8389" d="M348.72,-1072.14C358.45,-1067.44 368.8,-1061.38 377,-1054 427.39,-1008.64 421.03,-981.48 460,-926 467.06,-915.95 475.18,-905.12 482.31,-895.82"/>
<polygon fill="#7a8389" stroke="#7a8389" points="484.28,-897.28 486.61,-890.24 480.4,-894.29 484.28,-897.28"/>
</g>
<!-- bundle_GEOG209_0_0 -->
<g id="node68" class="node">
<title>bundle_GEOG209_0_0</title>
<g id="a_node68"><a xlink:title="Grouped requirement junction">
<ellipse fill="#7a8790" stroke="#667780" cx="502" cy="-944" rx="6" ry="6"/>
</a>
</g>
</g>
<!-- course__GEOG103&#45;&gt;bundle_GEOG209_0_0 -->
<g id="edge144" class="edge">
<title>course__GEOG103&#45;&gt;bundle_GEOG209_0_0</title>
<path fill="none" stroke="#7a8389" d="M348.76,-1070.6C358.18,-1065.92 368.33,-1060.25 377,-1054 419.06,-1023.66 419.98,-1004.98 460,-972 469.77,-963.95 481.83,-955.92 490.33,-950.54"/>
<polygon fill="#7a8389" stroke="#7a8389" points="491.85,-952.47 496.51,-946.7 489.27,-948.31 491.85,-952.47"/>
</g>
<!-- course__MATH100 -->
<g id="node5" class="node">
<title>course__MATH100</title>
<g id="a_node5"><a xlink:href="../../../courses/MATH100.html" xlink:title="Collapsed in simplified view: MATH100: Calculus I | MATH102: Calculus for Students in the Social and Biological Sciences | MATH109: Introduction to Calculus" target="_top">
<path fill="#d7e9ef" stroke="#1f4f66" stroke-width="1.6" d="M337,-1472C337,-1472 297,-1472 297,-1472 291,-1472 285,-1466 285,-1460 285,-1460 285,-1448 285,-1448 285,-1442 291,-1436 297,-1436 297,-1436 337,-1436 337,-1436 343,-1436 349,-1442 349,-1448 349,-1448 349,-1460 349,-1460 349,-1466 343,-1472 337,-1472"/>
<text text-anchor="middle" x="317" y="-1451.5" font-family="Avenir Next" font-size="10.00" fill="#17232b">Calculus I</text>
</a>
</g>
</g>
<!-- course__MATH100&#45;&gt;course__CHEM102 -->
<g id="edge116" class="edge">
<title>course__MATH100&#45;&gt;course__CHEM102</title>
<path fill="none" stroke="#5d6972" stroke-width="1.2" d="M324.6,-1435.8C341.62,-1390.67 390.57,-1271.5 460,-1192 462.2,-1189.48 464.66,-1187.04 467.24,-1184.72"/>
<polygon fill="#5d6972" stroke="#5d6972" stroke-width="1.2" points="468.9,-1186.52 472.67,-1180.14 465.74,-1182.78 468.9,-1186.52"/>
</g>
<!-- course__MATH101 -->
<g id="node9" class="node">
<title>course__MATH101</title>
<g id="a_node9"><a xlink:href="../../../courses/MATH101.html" xlink:title="MATH101: Calculus II" target="_top">
<path fill="#d7e9ef" stroke="#1f4f66" stroke-width="1.6" d="M521.5,-1498C521.5,-1498 482.5,-1498 482.5,-1498 476.5,-1498 470.5,-1492 470.5,-1486 470.5,-1486 470.5,-1474 470.5,-1474 470.5,-1468 476.5,-1462 482.5,-1462 482.5,-1462 521.5,-1462 521.5,-1462 527.5,-1462 533.5,-1468 533.5,-1474 533.5,-1474 533.5,-1486 533.5,-1486 533.5,-1492 527.5,-1498 521.5,-1498"/>
<text text-anchor="middle" x="502" y="-1477.5" font-family="Avenir Next" font-size="10.00" fill="#17232b">MATH101</text>
</a>
</g>
</g>
<!-- course__MATH100&#45;&gt;course__MATH101 -->
<g id="edge180" class="edge">
<title>course__MATH100&#45;&gt;course__MATH101</title>
<path fill="none" stroke="#5d6972" stroke-width="1.2" d="M349.04,-1458.41C380.65,-1462.9 429.68,-1469.87 463.45,-1474.67"/>
<polygon fill="#5d6972" stroke="#5d6972" stroke-width="1.2" points="463.14,-1477.1 470.42,-1475.65 463.83,-1472.24 463.14,-1477.1"/>
</g>
<!-- course__PHYS102A -->
<g id="node10" class="node">
<title>course__PHYS102A</title>
<g id="a_node10"><a xlink:href="../../../courses/PHYS102A.html" xlink:title="Collapsed in simplified view: PHYS102A: General Physics I | PHYS110: Introductory Physics I | PHYS120: Physics I" target="_top">
<path fill="#d7e9ef" stroke="#1f4f66" stroke-width="1.6" d="M519.5,-1386C519.5,-1386 484.5,-1386 484.5,-1386 478.5,-1386 472.5,-1380 472.5,-1374 472.5,-1374 472.5,-1362 472.5,-1362 472.5,-1356 478.5,-1350 484.5,-1350 484.5,-1350 519.5,-1350 519.5,-1350 525.5,-1350 531.5,-1356 531.5,-1362 531.5,-1362 531.5,-1374 531.5,-1374 531.5,-1380 525.5,-1386 519.5,-1386"/>
<text text-anchor="middle" x="502" y="-1365.5" font-family="Avenir Next" font-size="10.00" fill="#17232b">Physics I</text>
</a>
</g>
</g>
<!-- course__MATH100&#45;&gt;course__PHYS102A -->
<g id="edge181" class="edge">
<title>course__MATH100&#45;&gt;course__PHYS102A</title>
<path fill="none" stroke="#5d6972" stroke-width="1.2" d="M349.04,-1439.41C381.36,-1424.23 431.88,-1400.48 465.69,-1384.59"/>
<polygon fill="#5d6972" stroke="#5d6972" stroke-width="1.2" points="466.93,-1386.72 472.22,-1381.52 464.84,-1382.28 466.93,-1386.72"/>
</g>
<!-- course__CSC110 -->
<g id="node12" class="node">
<title>course__CSC110</title>
<g id="a_node12"><a xlink:href="../../../courses/CSC110.html" xlink:title="Collapsed in simplified view: CSC110: Fundamentals of Programming I | CSC111: Fundamentals of Programming with Engineering Applications" target="_top">
<path fill="#f9f9f9" stroke="#363636" d="M532,-1240C532,-1240 472,-1240 472,-1240 466,-1240 460,-1234 460,-1228 460,-1228 460,-1216 460,-1216 460,-1210 466,-1204 472,-1204 472,-1204 532,-1204 532,-1204 538,-1204 544,-1210 544,-1216 544,-1216 544,-1228 544,-1228 544,-1234 538,-1240 532,-1240"/>
<text text-anchor="middle" x="502" y="-1219.8" font-family="Avenir Next" font-size="9.00" fill="#363636">Programming I</text>
</a>
</g>
</g>
<!-- course__MATH100&#45;&gt;course__CSC110 -->
<g id="edge121" class="edge">
<title>course__MATH100&#45;&gt;course__CSC110</title>
<path fill="none" stroke="#5d6972" stroke-width="1.2" d="M332.36,-1435.8C365.17,-1394.21 445.6,-1292.24 482.25,-1245.77"/>
<polygon fill="#5d6972" stroke="#5d6972" stroke-width="1.2" points="484.3,-1247.13 486.71,-1240.12 480.45,-1244.1 484.3,-1247.13"/>
</g>
<!-- course__PHYS102B -->
<g id="node14" class="node">
<title>course__PHYS102B</title>
<g id="a_node14"><a xlink:href="../../../courses/PHYS102B.html" xlink:title="Collapsed in simplified view: PHYS102B: General Physics II | PHYS111: Introductory Physics II | PHYS130: Physics II" target="_top">
<path fill="#d7e9ef" stroke="#1f4f66" stroke-width="1.6" d="M685,-1584C685,-1584 647,-1584 647,-1584 641,-1584 635,-1578 635,-1572 635,-1572 635,-1560 635,-1560 635,-1554 641,-1548 647,-1548 647,-1548 685,-1548 685,-1548 691,-1548 697,-1554 697,-1560 697,-1560 697,-1572 697,-1572 697,-1578 691,-1584 685,-1584"/>
<text text-anchor="middle" x="666" y="-1563.5" font-family="Avenir Next" font-size="10.00" fill="#17232b">Physics II</text>
</a>
</g>
</g>
<!-- course__MATH100&#45;&gt;course__PHYS102B -->
<g id="edge183" class="edge">
<title>course__MATH100&#45;&gt;course__PHYS102B</title>
<path fill="none" stroke="#5d6972" stroke-width="1.2" d="M349.35,-1446.02C394.3,-1436.2 478.82,-1423.8 544,-1450 590.13,-1468.54 628.58,-1514 649.06,-1542.19"/>
<polygon fill="#5d6972" stroke="#5d6972" stroke-width="1.2" points="647.09,-1543.65 653.15,-1547.93 651.08,-1540.81 647.09,-1543.65"/>
</g>
<!-- course__MATH100&#45;&gt;year_band__year&#45;1__exit -->
<!-- choice_EOS314_0_0 -->
<g id="node67" class="node">
<title>choice_EOS314_0_0</title>
<path fill="#fff7ee" stroke="#b7793f" stroke-width="1.1" d="M681,-1800C681,-1800 651,-1800 651,-1800 645,-1800 639,-1794 639,-1788 639,-1788 639,-1776 639,-1776 639,-1770 645,-1764 651,-1764 651,-1764 681,-1764 681,-1764 687,-1764 693,-1770 693,-1776 693,-1776 693,-1788 693,-1788 693,-1794 687,-1800 681,-1800"/>
<text text-anchor="middle" x="666" y="-1779.8" font-family="Avenir Next" font-size="9.00">2 of</text>
</g>
<!-- course__MATH100&#45;&gt;choice_EOS314_0_0 -->
<g id="edge134" class="edge">
<title>course__MATH100&#45;&gt;choice_EOS314_0_0</title>
<path fill="none" stroke="#7a8389" d="M338.14,-1472.25C377.87,-1508.32 468.97,-1591.45 544,-1663 578.29,-1695.71 617.26,-1734.29 641.49,-1758.45"/>
<polygon fill="#7a8389" stroke="#7a8389" points="640.04,-1760.47 646.72,-1763.68 643.5,-1757 640.04,-1760.47"/>
</g>
<!-- course__GEOG101A -->
<g id="node6" class="node">
<title>course__GEOG101A</title>
<g id="a_node6"><a xlink:href="../../../courses/GEOG101A.html" xlink:title="GEOG101A: Environment, Society and Sustainability" target="_top">
<path fill="#f9f9f9" stroke="#363636" d="M338.5,-1162C338.5,-1162 295.5,-1162 295.5,-1162 289.5,-1162 283.5,-1156 283.5,-1150 283.5,-1150 283.5,-1138 283.5,-1138 283.5,-1132 289.5,-1126 295.5,-1126 295.5,-1126 338.5,-1126 338.5,-1126 344.5,-1126 350.5,-1132 350.5,-1138 350.5,-1138 350.5,-1150 350.5,-1150 350.5,-1156 344.5,-1162 338.5,-1162"/>
<text text-anchor="middle" x="317" y="-1141.8" font-family="Avenir Next" font-size="9.00" fill="#363636">GEOG101A</text>
</a>
</g>
</g>
<!-- course__GEOG101A&#45;&gt;bundle_GEOG209_0_0 -->
<g id="edge143" class="edge">
<title>course__GEOG101A&#45;&gt;bundle_GEOG209_0_0</title>
<path fill="none" stroke="#7a8389" d="M350.76,-1131.47C359.95,-1126.91 369.48,-1121.1 377,-1114 430.18,-1063.84 410.16,-1025.47 460,-972 468.72,-962.65 481.1,-954.73 489.97,-949.73"/>
<polygon fill="#7a8389" stroke="#7a8389" points="491.2,-951.85 496.2,-946.37 488.87,-947.54 491.2,-951.85"/>
</g>
<!-- course__MATH151 -->
<g id="node7" class="node">
<title>course__MATH151</title>
<g id="a_node7"><a xlink:href="../../../courses/MATH151.html" xlink:title="MATH151: Finite Mathematics" target="_top">
<path fill="#f9f9f9" stroke="#363636" d="M334.5,-1610C334.5,-1610 299.5,-1610 299.5,-1610 293.5,-1610 287.5,-1604 287.5,-1598 287.5,-1598 287.5,-1586 287.5,-1586 287.5,-1580 293.5,-1574 299.5,-1574 299.5,-1574 334.5,-1574 334.5,-1574 340.5,-1574 346.5,-1580 346.5,-1586 346.5,-1586 346.5,-1598 346.5,-1598 346.5,-1604 340.5,-1610 334.5,-1610"/>
<text text-anchor="middle" x="317" y="-1589.8" font-family="Avenir Next" font-size="9.00" fill="#363636">MATH151</text>
</a>
</g>
</g>
<!-- course__MATH151&#45;&gt;choice_EOS314_0_0 -->
<g id="edge136" class="edge">
<title>course__MATH151&#45;&gt;choice_EOS314_0_0</title>
<path fill="none" stroke="#7a8389" d="M346.69,-1607.71C410.71,-1642.77 564.9,-1727.19 632.41,-1764.16"/>
<polygon fill="#7a8389" stroke="#7a8389" points="631.35,-1766.37 638.67,-1767.58 633.7,-1762.07 631.35,-1766.37"/>
</g>
<!-- course__EOS312 -->
<g id="node50" class="node">
<title>course__EOS312</title>
<g id="a_node50"><a xlink:href="../../../courses/EOS312.html" xlink:title="EOS312: Introductory Chemical Oceanography" target="_top">
<path fill="#d7e9ef" stroke="#1f4f66" stroke-width="1.6" d="M2422,-1275C2422,-1275 2392,-1275 2392,-1275 2386,-1275 2380,-1269 2380,-1263 2380,-1263 2380,-1251 2380,-1251 2380,-1245 2386,-1239 2392,-1239 2392,-1239 2422,-1239 2422,-1239 2428,-1239 2434,-1245 2434,-1251 2434,-1251 2434,-1263 2434,-1263 2434,-1269 2428,-1275 2422,-1275"/>
<text text-anchor="middle" x="2407" y="-1254.5" font-family="Avenir Next" font-size="10.00" fill="#17232b">EOS312</text>
</a>
</g>
</g>
<!-- course__CHEM102&#45;&gt;course__EOS312 -->
<g id="edge133" class="edge">
<title>course__CHEM102&#45;&gt;course__EOS312</title>
<path fill="none" stroke="#5d6972" stroke-width="1.2" d="M508.41,-1143.73C521.57,-1102.49 559.27,-1001.66 627,-949 685.75,-903.32 713.58,-903 788,-903 788,-903 788,-903 873.5,-903 1208.78,-903 1286.72,-997 1622,-997 1622,-997 1622,-997 1875,-997 1990.66,-997 1915.67,-1156.1 2014,-1217 2129.27,-1288.39 2301.01,-1273.21 2372.7,-1262.72"/>
<polygon fill="#5d6972" stroke="#5d6972" stroke-width="1.2" points="2373.17,-1265.13 2379.72,-1261.66 2372.43,-1260.28 2373.17,-1265.13"/>
</g>
<!-- course__CHEM102&#45;&gt;year_band__year&#45;1__exit -->
<!-- course__MATH101&#45;&gt;course__PHYS102B -->
<g id="edge184" class="edge">
<title>course__MATH101&#45;&gt;course__PHYS102B</title>
<path fill="none" stroke="#5d6972" stroke-width="1.2" d="M533.85,-1496.38C560.82,-1510.7 600.02,-1531.5 628.53,-1546.64"/>
<polygon fill="#5d6972" stroke="#5d6972" stroke-width="1.2" points="627.48,-1548.86 634.81,-1549.97 629.78,-1544.53 627.48,-1548.86"/>
</g>
<!-- course__STAT254 -->
<g id="node23" class="node">
<title>course__STAT254</title>
<g id="a_node23"><a xlink:href="../../../courses/STAT254.html" xlink:title="Collapsed in simplified view: STAT254: Probability and Statistics for Engineers | STAT255: Statistics for Life Sciences I | STAT260: Introduction to Probability and Statistics I" target="_top">
<path fill="#d7e9ef" stroke="#1f4f66" stroke-width="1.6" d="M1431,-1368C1431,-1368 1369,-1368 1369,-1368 1363,-1368 1357,-1362 1357,-1356 1357,-1356 1357,-1344 1357,-1344 1357,-1338 1363,-1332 1369,-1332 1369,-1332 1431,-1332 1431,-1332 1437,-1332 1443,-1338 1443,-1344 1443,-1344 1443,-1356 1443,-1356 1443,-1362 1437,-1368 1431,-1368"/>
<text text-anchor="middle" x="1400" y="-1347.5" font-family="Avenir Next" font-size="10.00" fill="#17232b">Intro statistics</text>
</a>
</g>
</g>
<!-- course__MATH101&#45;&gt;course__STAT254 -->
<g id="edge185" class="edge">
<title>course__MATH101&#45;&gt;course__STAT254</title>
<path fill="none" stroke="#5d6972" stroke-width="1.2" d="M512.12,-1461.77C540.37,-1405.32 624.65,-1237.13 627,-1235 792.7,-1085.12 876.35,-1094.91 1096,-1054 1131.83,-1047.33 1146.11,-1036.37 1178,-1054 1300.16,-1121.55 1243.69,-1223.97 1345,-1320 1347.99,-1322.84 1351.3,-1325.5 1354.77,-1327.97"/>
<polygon fill="#5d6972" stroke="#5d6972" stroke-width="1.2" points="1353.54,-1330.1 1360.72,-1331.96 1356.27,-1326.03 1353.54,-1330.1"/>
</g>
<!-- course__MATH101&#45;&gt;year_band__year&#45;1__exit -->
<!-- course__MATH101&#45;&gt;choice_EOS314_0_0 -->
<g id="edge135" class="edge">
<title>course__MATH101&#45;&gt;choice_EOS314_0_0</title>
<path fill="none" stroke="#7a8389" d="M509.32,-1498.2C525.11,-1542.37 569.24,-1657.74 627,-1742 630.98,-1747.81 635.81,-1753.58 640.67,-1758.85"/>
<polygon fill="#7a8389" stroke="#7a8389" points="638.91,-1760.56 645.51,-1763.95 642.46,-1757.18 638.91,-1760.56"/>
</g>
<!-- course__PHYS102A&#45;&gt;course__PHYS102B -->
<g id="edge182" class="edge">
<title>course__PHYS102A&#45;&gt;course__PHYS102B</title>
<path fill="none" stroke="#5d6972" stroke-width="1.2" d="M517.95,-1386.27C547.37,-1422.22 612.74,-1502.12 645.5,-1542.16"/>
<polygon fill="#5d6972" stroke="#5d6972" stroke-width="1.2" points="643.76,-1543.91 650.09,-1547.77 647.55,-1540.8 643.76,-1543.91"/>
</g>
<!-- course__PHYS102A&#45;&gt;year_band__year&#45;1__exit -->
<!-- course__BIOL186 -->
<g id="node11" class="node">
<title>course__BIOL186</title>
<g id="a_node11"><a xlink:href="../../../courses/BIOL186.html" xlink:title="BIOL186: Physiology and Cell Biology" target="_top">
<path fill="#f9f9f9" stroke="#363636" d="M518,-1326C518,-1326 486,-1326 486,-1326 480,-1326 474,-1320 474,-1314 474,-1314 474,-1302 474,-1302 474,-1296 480,-1290 486,-1290 486,-1290 518,-1290 518,-1290 524,-1290 530,-1296 530,-1302 530,-1302 530,-1314 530,-1314 530,-1320 524,-1326 518,-1326"/>
<text text-anchor="middle" x="502" y="-1305.8" font-family="Avenir Next" font-size="9.00" fill="#363636">BIOL186</text>
</a>
</g>
</g>
<!-- course__BIOL150A -->
<g id="node13" class="node">
<title>course__BIOL150A</title>
<g id="a_node13"><a xlink:href="../../../courses/BIOL150A.html" xlink:title="Collapsed in simplified view: BIOL150A: Modern Biology | BIOL184: Evolution and Biodiversity" target="_top">
<path fill="#d7e9ef" stroke="#1f4f66" stroke-width="1.6" d="M693,-1283C693,-1283 639,-1283 639,-1283 633,-1283 627,-1277 627,-1271 627,-1271 627,-1259 627,-1259 627,-1253 633,-1247 639,-1247 639,-1247 693,-1247 693,-1247 699,-1247 705,-1253 705,-1259 705,-1259 705,-1271 705,-1271 705,-1277 699,-1283 693,-1283"/>
<text text-anchor="middle" x="666" y="-1262.5" font-family="Avenir Next" font-size="10.00" fill="#17232b">Intro biology</text>
</a>
</g>
</g>
<!-- course__BIOL186&#45;&gt;course__BIOL150A -->
<g id="edge112" class="edge">
<title>course__BIOL186&#45;&gt;course__BIOL150A</title>
<path fill="none" stroke="#5d6972" stroke-width="1.2" d="M530.12,-1293.88C554.53,-1285.14 590.89,-1275.07 619.71,-1268.85"/>
<polygon fill="#5d6972" stroke="#5d6972" stroke-width="1.2" points="620.52,-1271.18 626.87,-1267.35 619.51,-1266.39 620.52,-1271.18"/>
</g>
<!-- course__CSC110&#45;&gt;course__CIVE210 -->
<g id="edge118" class="edge">
<title>course__CSC110&#45;&gt;course__CIVE210</title>
<path fill="none" stroke="#5d6972" stroke-width="1.2" d="M532.18,-1203.87C536.52,-1200.31 540.65,-1196.32 544,-1192 604.98,-1113.33 544.6,-1039.84 627,-984 744.1,-904.65 1139.14,-957.91 1262,-1028 1308.14,-1054.32 1302.88,-1081.64 1345,-1114 1351.19,-1118.75 1358.22,-1123.23 1365.11,-1127.2"/>
<polygon fill="#5d6972" stroke="#5d6972" stroke-width="1.2" points="1364.07,-1129.42 1371.38,-1130.69 1366.46,-1125.14 1364.07,-1129.42"/>
</g>
<!-- course__BIOL150A&#45;&gt;course__BIOL186 -->
<g id="edge113" class="edge">
<title>course__BIOL150A&#45;&gt;course__BIOL186</title>
<path fill="none" stroke="#5d6972" stroke-width="1.2" d="M626.87,-1282.89C599.7,-1291.83 563.49,-1301.35 537.24,-1306.42"/>
<polygon fill="#5d6972" stroke="#5d6972" stroke-width="1.2" points="536.56,-1304.05 530.12,-1307.73 537.44,-1308.87 536.56,-1304.05"/>
</g>
<!-- course__BIOL150A&#45;&gt;year_band__year&#45;1__exit -->
<!-- course__PHYS102B&#45;&gt;course__CIVE210 -->
<g id="edge119" class="edge">
<title>course__PHYS102B&#45;&gt;course__CIVE210</title>
<path fill="none" stroke="#5d6972" stroke-width="1.2" d="M697.12,-1571.03C737,-1577.24 809.57,-1587 872,-1587 872,-1587 872,-1587 1152,-1587 1344.2,-1587 1242.5,-1362.59 1345,-1200 1352.54,-1188.05 1362.93,-1176.51 1372.59,-1167.05"/>
<polygon fill="#5d6972" stroke="#5d6972" stroke-width="1.2" points="1374.49,-1168.62 1377.86,-1162.01 1371.11,-1165.08 1374.49,-1168.62"/>
</g>
<!-- course__EOS314 -->
<g id="node43" class="node">
<title>course__EOS314</title>
<g id="a_node43"><a xlink:href="../../../courses/EOS314.html" xlink:title="EOS314: Descriptive Physical Oceanography" target="_top">
<path fill="#d7e9ef" stroke="#1f4f66" stroke-width="1.6" d="M2908,-1662C2908,-1662 2878,-1662 2878,-1662 2872,-1662 2866,-1656 2866,-1650 2866,-1650 2866,-1638 2866,-1638 2866,-1632 2872,-1626 2878,-1626 2878,-1626 2908,-1626 2908,-1626 2914,-1626 2920,-1632 2920,-1638 2920,-1638 2920,-1650 2920,-1650 2920,-1656 2914,-1662 2908,-1662"/>
<text text-anchor="middle" x="2893" y="-1641.5" font-family="Avenir Next" font-size="10.00" fill="#17232b">EOS314</text>
</a>
</g>
</g>
<!-- course__PHYS102B&#45;&gt;course__EOS314 -->
<g id="edge138" class="edge">
<title>course__PHYS102B&#45;&gt;course__EOS314</title>
<path fill="none" stroke="#5d6972" stroke-width="1.2" d="M697.31,-1575.38C794.76,-1605.93 1098.27,-1704.26 1178,-1768 1239.08,-1816.83 1543.81,-2314 1622,-2314 1622,-2314 1622,-2314 2580.5,-2314 2681.53,-2314 2706.39,-2258.85 2758,-2172 2865.47,-1991.15 2752.86,-1897.02 2841,-1706 2847.51,-1691.88 2858.04,-1678.3 2867.83,-1667.46"/>
<polygon fill="#5d6972" stroke="#5d6972" stroke-width="1.2" points="2869.89,-1668.84 2872.87,-1662.05 2866.3,-1665.51 2869.89,-1668.84"/>
</g>
<!-- course__EOS340 -->
<g id="node47" class="node">
<title>course__EOS340</title>
<g id="a_node47"><a xlink:href="../../../courses/EOS340.html" xlink:title="Equivalent or cross&#45;listed: EOS340: Atmospheric Physics | PHYS340: Atmospheric Physics" target="_top">
<path fill="#f9f9f9" stroke="#363636" d="M2933,-1602C2933,-1602 2853,-1602 2853,-1602 2847,-1602 2841,-1596 2841,-1590 2841,-1590 2841,-1578 2841,-1578 2841,-1572 2847,-1566 2853,-1566 2853,-1566 2933,-1566 2933,-1566 2939,-1566 2945,-1572 2945,-1578 2945,-1578 2945,-1590 2945,-1590 2945,-1596 2939,-1602 2933,-1602"/>
<text text-anchor="middle" x="2893" y="-1581.8" font-family="Avenir Next" font-size="9.00" fill="#363636">EOS340 / PHYS340</text>
</a>
</g>
</g>
<!-- course__PHYS102B&#45;&gt;course__EOS340 -->
<g id="edge139" class="edge">
<title>course__PHYS102B&#45;&gt;course__EOS340</title>
<path fill="none" stroke="#5d6972" stroke-width="1.2" d="M678.17,-1584.06C697.24,-1613.51 738.85,-1672.02 788,-1706 853.81,-1751.49 891.29,-1722.36 957,-1768 1266.62,-1983.08 1194.48,-2230.71 1538,-2386 1714.47,-2465.77 2212.33,-2464 2406,-2464 2406,-2464 2406,-2464 2580.5,-2464 2660.58,-2464 2703.44,-2491.63 2758,-2433 2882.62,-2299.08 2742.28,-1768.01 2841,-1614 2842.62,-1611.47 2844.54,-1609.13 2846.66,-1606.96"/>
<polygon fill="#5d6972" stroke="#5d6972" stroke-width="1.2" points="2848.37,-1608.72 2851.95,-1602.22 2845.1,-1605.07 2848.37,-1608.72"/>
</g>
<!-- course__EOS431 -->
<g id="node48" class="node">
<title>course__EOS431</title>
<g id="a_node48"><a xlink:href="../../../courses/EOS431.html" xlink:title="Equivalent or cross&#45;listed: EOS431: Physical Oceanography | PHYS441: Physical Oceanography" target="_top">
<path fill="#f9f9f9" stroke="#363636" d="M2933,-698C2933,-698 2853,-698 2853,-698 2847,-698 2841,-692 2841,-686 2841,-686 2841,-674 2841,-674 2841,-668 2847,-662 2853,-662 2853,-662 2933,-662 2933,-662 2939,-662 2945,-668 2945,-674 2945,-674 2945,-686 2945,-686 2945,-692 2939,-698 2933,-698"/>
<text text-anchor="middle" x="2893" y="-677.8" font-family="Avenir Next" font-size="9.00" fill="#363636">EOS431 / PHYS441</text>
</a>
</g>
</g>
<!-- course__PHYS102B&#45;&gt;course__EOS431 -->
<g id="edge140" class="edge">
<title>course__PHYS102B&#45;&gt;course__EOS431</title>
<path fill="none" stroke="#5d6972" stroke-width="1.2" d="M697.17,-1580.49C779.78,-1621.05 1014.34,-1742.09 1178,-1885 1265.49,-1961.39 1265.26,-2001.56 1345,-2086 1425.53,-2171.28 1449.2,-2189.37 1538,-2266 1574.16,-2297.2 1577.8,-2314.93 1622,-2333 1946.24,-2465.57 2055.7,-2414 2406,-2414 2406,-2414 2406,-2414 2580.5,-2414 2713.89,-2414 2712.67,-2297.45 2758,-2172 2861.42,-1885.78 2773.39,-1101.73 2841,-805 2849.28,-768.65 2866.96,-729.22 2879.16,-704.57"/>
<polygon fill="#5d6972" stroke="#5d6972" stroke-width="1.2" points="2881.49,-705.38 2882.44,-698.02 2877.11,-703.18 2881.49,-705.38"/>
</g>
<!-- course__PHYS102B&#45;&gt;year_band__year&#45;1__exit -->
<!-- course__EOS220 -->
<g id="node15" class="node">
<title>course__EOS220</title>
<g id="a_node15"><a xlink:href="../../../courses/EOS220.html" xlink:title="Equivalent or cross&#45;listed: EOS220: Weather and Climate | GEOG220: Weather and Climate" target="_top">
<path fill="#d7e9ef" stroke="#1f4f66" stroke-width="1.6" d="M1443,-1248C1443,-1248 1357,-1248 1357,-1248 1351,-1248 1345,-1242 1345,-1236 1345,-1236 1345,-1224 1345,-1224 1345,-1218 1351,-1212 1357,-1212 1357,-1212 1443,-1212 1443,-1212 1449,-1212 1455,-1218 1455,-1224 1455,-1224 1455,-1236 1455,-1236 1455,-1242 1449,-1248 1443,-1248"/>
<text text-anchor="middle" x="1400" y="-1227.5" font-family="Avenir Next" font-size="10.00" fill="#17232b">EOS220 / GEOG220</text>
</a>
</g>
</g>
<!-- year_band__year&#45;2__exit -->
<!-- course__EOS220&#45;&gt;year_band__year&#45;2__exit -->
<!-- course__ES200 -->
<g id="node16" class="node">
<title>course__ES200</title>
<g id="a_node16"><a xlink:href="../../../courses/ES200.html" xlink:title="ES200: Introduction to Environmental Studies" target="_top">
<path fill="#dbe8d2" stroke="#567447" stroke-width="1.3" d="M1415,-1488C1415,-1488 1385,-1488 1385,-1488 1379,-1488 1373,-1482 1373,-1476 1373,-1476 1373,-1464 1373,-1464 1373,-1458 1379,-1452 1385,-1452 1385,-1452 1415,-1452 1415,-1452 1421,-1452 1427,-1458 1427,-1464 1427,-1464 1427,-1476 1427,-1476 1427,-1482 1421,-1488 1415,-1488"/>
<text text-anchor="middle" x="1400" y="-1467.5" font-family="Avenir Next" font-size="10.00" fill="#24311e">ES200</text>
</a>
</g>
</g>
<!-- course__ES301 -->
<g id="node34" class="node">
<title>course__ES301</title>
<g id="a_node34"><a xlink:href="../../../courses/ES301.html" xlink:title="ES301: Political Ecology" target="_top">
<path fill="#e2deef" stroke="#665683" stroke-width="1.3" d="M2594.5,-1163C2594.5,-1163 2564.5,-1163 2564.5,-1163 2558.5,-1163 2552.5,-1157 2552.5,-1151 2552.5,-1151 2552.5,-1139 2552.5,-1139 2552.5,-1133 2558.5,-1127 2564.5,-1127 2564.5,-1127 2594.5,-1127 2594.5,-1127 2600.5,-1127 2606.5,-1133 2606.5,-1139 2606.5,-1139 2606.5,-1151 2606.5,-1151 2606.5,-1157 2600.5,-1163 2594.5,-1163"/>
<text text-anchor="middle" x="2579.5" y="-1142.5" font-family="Avenir Next" font-size="10.00" fill="#2f2741">ES301</text>
</a>
</g>
</g>
<!-- course__ES200&#45;&gt;course__ES301 -->
<g id="edge141" class="edge">
<title>course__ES200&#45;&gt;course__ES301</title>
<path fill="none" stroke="#5d6972" stroke-width="1.2" d="M1427.06,-1479.39C1437.07,-1484.17 1447.8,-1490.92 1455,-1500 1563.07,-1636.32 1448.04,-1854 1622,-1854 1622,-1854 1622,-1854 2087,-1854 2426.96,-1854 2550.46,-1296.64 2574.09,-1170.27"/>
<polygon fill="#5d6972" stroke="#5d6972" stroke-width="1.2" points="2576.53,-1170.57 2575.38,-1163.24 2571.71,-1169.68 2576.53,-1170.57"/>
</g>
<!-- course__ES200&#45;&gt;year_band__year&#45;2__exit -->
<!-- course__GEOG222 -->
<g id="node17" class="node">
<title>course__GEOG222</title>
<g id="a_node17"><a xlink:href="../../../courses/GEOG222.html" xlink:title="GEOG222: Introduction to GIS" target="_top">
<path fill="#d7e9ef" stroke="#1f4f66" stroke-width="1.6" d="M1419.5,-1428C1419.5,-1428 1380.5,-1428 1380.5,-1428 1374.5,-1428 1368.5,-1422 1368.5,-1416 1368.5,-1416 1368.5,-1404 1368.5,-1404 1368.5,-1398 1374.5,-1392 1380.5,-1392 1380.5,-1392 1419.5,-1392 1419.5,-1392 1425.5,-1392 1431.5,-1398 1431.5,-1404 1431.5,-1404 1431.5,-1416 1431.5,-1416 1431.5,-1422 1425.5,-1428 1419.5,-1428"/>
<text text-anchor="middle" x="1400" y="-1407.5" font-family="Avenir Next" font-size="10.00" fill="#17232b">GEOG222</text>
</a>
</g>
</g>
<!-- course__GEOG323 -->
<g id="node35" class="node">
<title>course__GEOG323</title>
<g id="a_node35"><a xlink:href="../../../courses/GEOG323.html" xlink:title="GEOG323: Digital Mapping" target="_top">
<path fill="#d7e9ef" stroke="#1f4f66" stroke-width="1.6" d="M2599,-1585C2599,-1585 2560,-1585 2560,-1585 2554,-1585 2548,-1579 2548,-1573 2548,-1573 2548,-1561 2548,-1561 2548,-1555 2554,-1549 2560,-1549 2560,-1549 2599,-1549 2599,-1549 2605,-1549 2611,-1555 2611,-1561 2611,-1561 2611,-1573 2611,-1573 2611,-1579 2605,-1585 2599,-1585"/>
<text text-anchor="middle" x="2579.5" y="-1564.5" font-family="Avenir Next" font-size="10.00" fill="#17232b">GEOG323</text>
</a>
</g>
</g>
<!-- course__GEOG222&#45;&gt;course__GEOG323 -->
<g id="edge151" class="edge">
<title>course__GEOG222&#45;&gt;course__GEOG323</title>
<path fill="none" stroke="#5d6972" stroke-width="1.2" d="M1431.7,-1421.52C1440.34,-1426.09 1449,-1432.17 1455,-1440 1547.79,-1561.06 1436.2,-1659.42 1538,-1773 1564.56,-1802.63 1582.21,-1804 1622,-1804 1622,-1804 1622,-1804 2087,-1804 2282.8,-1804 2482.82,-1649.51 2552.61,-1589.99"/>
<polygon fill="#5d6972" stroke="#5d6972" stroke-width="1.2" points="2554.47,-1591.62 2558.19,-1585.2 2551.28,-1587.91 2554.47,-1591.62"/>
</g>
<!-- course__GEOG328 -->
<g id="node36" class="node">
<title>course__GEOG328</title>
<g id="a_node36"><a xlink:href="../../../courses/GEOG328.html" xlink:title="GEOG328: GIS Analysis" target="_top">
<path fill="#d7e9ef" stroke="#1f4f66" stroke-width="1.6" d="M2599,-1645C2599,-1645 2560,-1645 2560,-1645 2554,-1645 2548,-1639 2548,-1633 2548,-1633 2548,-1621 2548,-1621 2548,-1615 2554,-1609 2560,-1609 2560,-1609 2599,-1609 2599,-1609 2605,-1609 2611,-1615 2611,-1621 2611,-1621 2611,-1633 2611,-1633 2611,-1639 2605,-1645 2599,-1645"/>
<text text-anchor="middle" x="2579.5" y="-1624.5" font-family="Avenir Next" font-size="10.00" fill="#17232b">GEOG328</text>
</a>
</g>
</g>
<!-- course__GEOG222&#45;&gt;course__GEOG328 -->
<g id="edge153" class="edge">
<title>course__GEOG222&#45;&gt;course__GEOG328</title>
<path fill="none" stroke="#5d6972" stroke-width="1.2" d="M1431.5,-1421.67C1440.13,-1426.25 1448.84,-1432.29 1455,-1440 1536.86,-1542.37 1448.53,-1627.21 1538,-1723 1565.16,-1752.08 1582.21,-1754 1622,-1754 1622,-1754 1622,-1754 2087,-1754 2254.82,-1754 2309.51,-1798.54 2464,-1733 2505.27,-1715.49 2541.03,-1676.33 2561.16,-1650.82"/>
<polygon fill="#5d6972" stroke="#5d6972" stroke-width="1.2" points="2563.1,-1652.31 2565.45,-1645.28 2559.23,-1649.31 2563.1,-1652.31"/>
</g>
<!-- course__GEOG222&#45;&gt;year_band__year&#45;2__exit -->
<!-- course__GEOG228 -->
<g id="node18" class="node">
<title>course__GEOG228</title>
<g id="a_node18"><a xlink:href="../../../courses/GEOG228.html" xlink:title="GEOG228: Introduction to Remote Sensing" target="_top">
<path fill="#d7e9ef" stroke="#1f4f66" stroke-width="1.6" d="M1419.5,-1308C1419.5,-1308 1380.5,-1308 1380.5,-1308 1374.5,-1308 1368.5,-1302 1368.5,-1296 1368.5,-1296 1368.5,-1284 1368.5,-1284 1368.5,-1278 1374.5,-1272 1380.5,-1272 1380.5,-1272 1419.5,-1272 1419.5,-1272 1425.5,-1272 1431.5,-1278 1431.5,-1284 1431.5,-1284 1431.5,-1296 1431.5,-1296 1431.5,-1302 1425.5,-1308 1419.5,-1308"/>
<text text-anchor="middle" x="1400" y="-1287.5" font-family="Avenir Next" font-size="10.00" fill="#17232b">GEOG228</text>
</a>
</g>
</g>
<!-- course__GEOG228&#45;&gt;course__GEOG328 -->
<g id="edge154" class="edge">
<title>course__GEOG228&#45;&gt;course__GEOG328</title>
<path fill="none" stroke="#5d6972" stroke-width="1.2" d="M1431.77,-1302.62C1440.1,-1307.15 1448.59,-1312.93 1455,-1320 1580.07,-1457.82 1435.89,-1704 1622,-1704 1622,-1704 1622,-1704 2087,-1704 2258.24,-1704 2459.05,-1657.81 2540.91,-1636.98"/>
<polygon fill="#5d6972" stroke="#5d6972" stroke-width="1.2" points="2541.82,-1639.28 2547.99,-1635.17 2540.6,-1634.53 2541.82,-1639.28"/>
</g>
<!-- course__GEOG228&#45;&gt;year_band__year&#45;2__exit -->
<!-- course__GEOG226 -->
<g id="node19" class="node">
<title>course__GEOG226</title>
<g id="a_node19"><a xlink:href="../../../courses/GEOG226.html" xlink:title="GEOG226: Quantitative Methods in Geography" target="_top">
<path fill="#f9f9f9" stroke="#363636" d="M1418.5,-1668C1418.5,-1668 1381.5,-1668 1381.5,-1668 1375.5,-1668 1369.5,-1662 1369.5,-1656 1369.5,-1656 1369.5,-1644 1369.5,-1644 1369.5,-1638 1375.5,-1632 1381.5,-1632 1381.5,-1632 1418.5,-1632 1418.5,-1632 1424.5,-1632 1430.5,-1638 1430.5,-1644 1430.5,-1644 1430.5,-1656 1430.5,-1656 1430.5,-1662 1424.5,-1668 1418.5,-1668"/>
<text text-anchor="middle" x="1400" y="-1647.8" font-family="Avenir Next" font-size="9.00" fill="#363636">GEOG226</text>
</a>
</g>
</g>
<!-- course__GEOG226&#45;&gt;course__GEOG323 -->
<g id="edge152" class="edge">
<title>course__GEOG226&#45;&gt;course__GEOG323</title>
<path fill="none" stroke="#5d6972" stroke-width="1.2" d="M1430.67,-1650.88C1473.08,-1652.06 1553.5,-1654 1622,-1654 1622,-1654 1622,-1654 2087,-1654 2258.6,-1654 2458.81,-1601.94 2540.7,-1578.37"/>
<polygon fill="#5d6972" stroke="#5d6972" stroke-width="1.2" points="2541.74,-1580.61 2547.78,-1576.31 2540.38,-1575.91 2541.74,-1580.61"/>
</g>
<!-- course__GEOG226&#45;&gt;course__GEOG328 -->
<g id="edge155" class="edge">
<title>course__GEOG226&#45;&gt;course__GEOG328</title>
<path fill="none" stroke="#5d6972" stroke-width="1.2" d="M1430.62,-1639.79C1472.65,-1626.24 1552.24,-1604 1622,-1604 1622,-1604 1622,-1604 2087,-1604 2256.37,-1604 2458.2,-1617.8 2540.62,-1624.02"/>
<polygon fill="#5d6972" stroke="#5d6972" stroke-width="1.2" points="2540.59,-1626.47 2547.76,-1624.56 2540.96,-1621.59 2540.59,-1626.47"/>
</g>
<!-- choice_ECON383_0_0 -->
<g id="node64" class="node">
<title>choice_ECON383_0_0</title>
<path fill="#fff7ee" stroke="#b7793f" stroke-width="1.1" d="M2741.5,-2160C2741.5,-2160 2711.5,-2160 2711.5,-2160 2705.5,-2160 2699.5,-2154 2699.5,-2148 2699.5,-2148 2699.5,-2136 2699.5,-2136 2699.5,-2130 2705.5,-2124 2711.5,-2124 2711.5,-2124 2741.5,-2124 2741.5,-2124 2747.5,-2124 2753.5,-2130 2753.5,-2136 2753.5,-2136 2753.5,-2148 2753.5,-2148 2753.5,-2154 2747.5,-2160 2741.5,-2160"/>
<text text-anchor="middle" x="2726.5" y="-2139.8" font-family="Avenir Next" font-size="9.00">1 of</text>
</g>
<!-- course__GEOG226&#45;&gt;choice_ECON383_0_0 -->
<g id="edge122" class="edge">
<title>course__GEOG226&#45;&gt;choice_ECON383_0_0</title>
<path fill="none" stroke="#7a8389" d="M1405.49,-1668.29C1427.38,-1757.23 1522.48,-2141.11 1538,-2162 1564.19,-2197.25 1578.09,-2214 1622,-2214 1622,-2214 1622,-2214 2408,-2214 2514.18,-2214 2635.5,-2175.23 2692.56,-2154.59"/>
<polygon fill="#7a8389" stroke="#7a8389" points="2693.46,-2156.87 2699.2,-2152.16 2691.78,-2152.26 2693.46,-2156.87"/>
</g>
<!-- course__EOS230 -->
<g id="node20" class="node">
<title>course__EOS230</title>
<g id="a_node20"><a xlink:href="../../../courses/EOS230.html" xlink:title="Equivalent or cross&#45;listed: EOS230: Introduction to Environmental Data Analysis | GEOG230: Introduction to Environmental Data Analysis" target="_top">
<path fill="#d7e9ef" stroke="#1f4f66" stroke-width="1.6" d="M1443,-1102C1443,-1102 1357,-1102 1357,-1102 1351,-1102 1345,-1096 1345,-1090 1345,-1090 1345,-1078 1345,-1078 1345,-1072 1351,-1066 1357,-1066 1357,-1066 1443,-1066 1443,-1066 1449,-1066 1455,-1072 1455,-1078 1455,-1078 1455,-1090 1455,-1090 1455,-1096 1449,-1102 1443,-1102"/>
<text text-anchor="middle" x="1400" y="-1081.5" font-family="Avenir Next" font-size="10.00" fill="#17232b">EOS230 / GEOG230</text>
</a>
</g>
</g>
<!-- course__GEOG489 -->
<g id="node52" class="node">
<title>course__GEOG489</title>
<g id="a_node52"><a xlink:href="../../../courses/GEOG489.html" xlink:title="GEOG489: Climate Solutions" target="_top">
<path fill="#d7e9ef" stroke="#1f4f66" stroke-width="1.6" d="M2426.5,-655C2426.5,-655 2387.5,-655 2387.5,-655 2381.5,-655 2375.5,-649 2375.5,-643 2375.5,-643 2375.5,-631 2375.5,-631 2375.5,-625 2381.5,-619 2387.5,-619 2387.5,-619 2426.5,-619 2426.5,-619 2432.5,-619 2438.5,-625 2438.5,-631 2438.5,-631 2438.5,-643 2438.5,-643 2438.5,-649 2432.5,-655 2426.5,-655"/>
<text text-anchor="middle" x="2407" y="-634.5" font-family="Avenir Next" font-size="10.00" fill="#17232b">GEOG489</text>
</a>
</g>
</g>
<!-- course__EOS230&#45;&gt;course__GEOG489 -->
<g id="edge177" class="edge">
<title>course__EOS230&#45;&gt;course__GEOG489</title>
<path fill="none" stroke="#5d6972" stroke-width="1.2" d="M1455.44,-1088.99C1500.14,-1092.66 1565.12,-1097 1622,-1097 1622,-1097 1622,-1097 1875,-1097 1991.03,-1097 2031.77,-1102.77 2130,-1041 2180.65,-1009.15 2173.74,-980.15 2213,-935 2235.69,-908.91 2248.47,-908.19 2267,-879 2322.55,-791.47 2278.21,-735.8 2350,-661 2355.27,-655.51 2362,-651.21 2368.96,-647.86"/>
<polygon fill="#5d6972" stroke="#5d6972" stroke-width="1.2" points="2369.95,-650.1 2375.38,-645.05 2367.98,-645.62 2369.95,-650.1"/>
</g>
<!-- course__EOS230&#45;&gt;year_band__year&#45;2__exit -->
<!-- course__GEOG209 -->
<g id="node21" class="node">
<title>course__GEOG209</title>
<g id="a_node21"><a xlink:href="../../../courses/GEOG209.html" xlink:title="GEOG209: Environmental Management" target="_top">
<path fill="#d7e9ef" stroke="#1f4f66" stroke-width="1.6" d="M1419.5,-1608C1419.5,-1608 1380.5,-1608 1380.5,-1608 1374.5,-1608 1368.5,-1602 1368.5,-1596 1368.5,-1596 1368.5,-1584 1368.5,-1584 1368.5,-1578 1374.5,-1572 1380.5,-1572 1380.5,-1572 1419.5,-1572 1419.5,-1572 1425.5,-1572 1431.5,-1578 1431.5,-1584 1431.5,-1584 1431.5,-1596 1431.5,-1596 1431.5,-1602 1425.5,-1608 1419.5,-1608"/>
<text text-anchor="middle" x="1400" y="-1587.5" font-family="Avenir Next" font-size="10.00" fill="#17232b">GEOG209</text>
</a>
</g>
</g>
<!-- course__GEOG301 -->
<g id="node38" class="node">
<title>course__GEOG301</title>
<g id="a_node38"><a xlink:href="../../../courses/GEOG301.html" xlink:title="GEOG301: Environmental Impact Assessment" target="_top">
<path fill="#d7e9ef" stroke="#1f4f66" stroke-width="1.6" d="M2746,-1069C2746,-1069 2707,-1069 2707,-1069 2701,-1069 2695,-1063 2695,-1057 2695,-1057 2695,-1045 2695,-1045 2695,-1039 2701,-1033 2707,-1033 2707,-1033 2746,-1033 2746,-1033 2752,-1033 2758,-1039 2758,-1045 2758,-1045 2758,-1057 2758,-1057 2758,-1063 2752,-1069 2746,-1069"/>
<text text-anchor="middle" x="2726.5" y="-1048.5" font-family="Avenir Next" font-size="10.00" fill="#17232b">GEOG301</text>
</a>
</g>
</g>
<!-- course__GEOG209&#45;&gt;course__GEOG301 -->
<g id="edge149" class="edge">
<title>course__GEOG209&#45;&gt;course__GEOG301</title>
<path fill="none" stroke="#5d6972" stroke-width="1.2" d="M1431.73,-1601.86C1440.27,-1606.43 1448.86,-1612.41 1455,-1620 1561.86,-1752.16 1452.05,-1964 1622,-1964 1622,-1964 1622,-1964 2087,-1964 2357.3,-1964 2479.03,-1892.33 2612,-1657 2739.24,-1431.82 2578.24,-1311.79 2695,-1081 2696.07,-1078.88 2697.35,-1076.82 2698.78,-1074.84"/>
<polygon fill="#5d6972" stroke="#5d6972" stroke-width="1.2" points="2700.88,-1076.13 2703.39,-1069.15 2697.07,-1073.05 2700.88,-1076.13"/>
</g>
<!-- course__GEOG371 -->
<g id="node40" class="node">
<title>course__GEOG371</title>
<g id="a_node40"><a xlink:href="../../../courses/GEOG371.html" xlink:title="GEOG371: Water Resources Management" target="_top">
<path fill="#d7e9ef" stroke="#1f4f66" stroke-width="1.6" d="M2746,-1585C2746,-1585 2707,-1585 2707,-1585 2701,-1585 2695,-1579 2695,-1573 2695,-1573 2695,-1561 2695,-1561 2695,-1555 2701,-1549 2707,-1549 2707,-1549 2746,-1549 2746,-1549 2752,-1549 2758,-1555 2758,-1561 2758,-1561 2758,-1573 2758,-1573 2758,-1579 2752,-1585 2746,-1585"/>
<text text-anchor="middle" x="2726.5" y="-1564.5" font-family="Avenir Next" font-size="10.00" fill="#17232b">GEOG371</text>
</a>
</g>
</g>
<!-- course__GEOG209&#45;&gt;course__GEOG371 -->
<g id="edge159" class="edge">
<title>course__GEOG209&#45;&gt;course__GEOG371</title>
<path fill="none" stroke="#5d6972" stroke-width="1.2" d="M1431.55,-1600.92C1440.39,-1605.51 1449.21,-1611.75 1455,-1620 1600.31,-1827 1369.09,-2164 1622,-2164 1622,-2164 1622,-2164 2408,-2164 2499.71,-2164 2545.64,-2196.3 2612,-2133 2691.86,-2056.81 2718.32,-1692.73 2724.15,-1592.56"/>
<polygon fill="#5d6972" stroke="#5d6972" stroke-width="1.2" points="2726.61,-1592.4 2724.57,-1585.28 2721.72,-1592.13 2726.61,-1592.4"/>
</g>
<!-- course__GEOG209&#45;&gt;year_band__year&#45;2__exit -->
<!-- course__GEOG272 -->
<g id="node22" class="node">
<title>course__GEOG272</title>
<g id="a_node22"><a xlink:href="../../../courses/GEOG272.html" xlink:title="GEOG272: Climatology and Hydrology" target="_top">
<path fill="#d7e9ef" stroke="#1f4f66" stroke-width="1.6" d="M1419.5,-1548C1419.5,-1548 1380.5,-1548 1380.5,-1548 1374.5,-1548 1368.5,-1542 1368.5,-1536 1368.5,-1536 1368.5,-1524 1368.5,-1524 1368.5,-1518 1374.5,-1512 1380.5,-1512 1380.5,-1512 1419.5,-1512 1419.5,-1512 1425.5,-1512 1431.5,-1518 1431.5,-1524 1431.5,-1524 1431.5,-1536 1431.5,-1536 1431.5,-1542 1425.5,-1548 1419.5,-1548"/>
<text text-anchor="middle" x="1400" y="-1527.5" font-family="Avenir Next" font-size="10.00" fill="#17232b">GEOG272</text>
</a>
</g>
</g>
<!-- course__GEOG313 -->
<g id="node39" class="node">
<title>course__GEOG313</title>
<g id="a_node39"><a xlink:href="../../../courses/GEOG313.html" xlink:title="GEOG313: Field Studies in Mountain Meteorology" target="_top">
<path fill="#d7e9ef" stroke="#1f4f66" stroke-width="1.6" d="M2746,-1395C2746,-1395 2707,-1395 2707,-1395 2701,-1395 2695,-1389 2695,-1383 2695,-1383 2695,-1371 2695,-1371 2695,-1365 2701,-1359 2707,-1359 2707,-1359 2746,-1359 2746,-1359 2752,-1359 2758,-1365 2758,-1371 2758,-1371 2758,-1383 2758,-1383 2758,-1389 2752,-1395 2746,-1395"/>
<text text-anchor="middle" x="2726.5" y="-1374.5" font-family="Avenir Next" font-size="10.00" fill="#17232b">GEOG313</text>
</a>
</g>
</g>
<!-- course__GEOG272&#45;&gt;course__GEOG313 -->
<g id="edge150" class="edge">
<title>course__GEOG272&#45;&gt;course__GEOG313</title>
<path fill="none" stroke="#5d6972" stroke-width="1.2" d="M1431.53,-1540.94C1440.37,-1545.53 1449.19,-1551.76 1455,-1560 1603.18,-1770.18 1364.83,-2114 1622,-2114 1622,-2114 1622,-2114 2408,-2114 2515.75,-2114 2551.87,-2072.42 2612,-1983 2724.51,-1815.68 2657.68,-1735.14 2695,-1537 2703.96,-1489.41 2714.59,-1433.88 2720.63,-1402.34"/>
<polygon fill="#5d6972" stroke="#5d6972" stroke-width="1.2" points="2723.09,-1402.57 2722,-1395.23 2718.27,-1401.64 2723.09,-1402.57"/>
</g>
<!-- course__GEOG272&#45;&gt;course__GEOG371 -->
<g id="edge160" class="edge">
<title>course__GEOG272&#45;&gt;course__GEOG371</title>
<path fill="none" stroke="#5d6972" stroke-width="1.2" d="M1431.76,-1541.12C1440.51,-1545.69 1449.22,-1551.87 1455,-1560 1591.86,-1752.23 1386.02,-2064 1622,-2064 1622,-2064 1622,-2064 2408,-2064 2505.55,-2064 2546.98,-2055.72 2612,-1983 2716.24,-1866.43 2725.93,-1663.12 2725.97,-1592.24"/>
<polygon fill="#5d6972" stroke="#5d6972" stroke-width="1.2" points="2728.42,-1592.02 2725.94,-1585.03 2723.52,-1592.04 2728.42,-1592.02"/>
</g>
<!-- course__GEOG373 -->
<g id="node41" class="node">
<title>course__GEOG373</title>
<g id="a_node41"><a xlink:href="../../../courses/GEOG373.html" xlink:title="GEOG373: Applied Climatology" target="_top">
<path fill="#d7e9ef" stroke="#1f4f66" stroke-width="1.6" d="M2746,-1241C2746,-1241 2707,-1241 2707,-1241 2701,-1241 2695,-1235 2695,-1229 2695,-1229 2695,-1217 2695,-1217 2695,-1211 2701,-1205 2707,-1205 2707,-1205 2746,-1205 2746,-1205 2752,-1205 2758,-1211 2758,-1217 2758,-1217 2758,-1229 2758,-1229 2758,-1235 2752,-1241 2746,-1241"/>
<text text-anchor="middle" x="2726.5" y="-1220.5" font-family="Avenir Next" font-size="10.00" fill="#17232b">GEOG373</text>
</a>
</g>
</g>
<!-- course__GEOG272&#45;&gt;course__GEOG373 -->
<g id="edge161" class="edge">
<title>course__GEOG272&#45;&gt;course__GEOG373</title>
<path fill="none" stroke="#5d6972" stroke-width="1.2" d="M1431.7,-1541.52C1440.33,-1546.09 1448.99,-1552.17 1455,-1560 1585.85,-1730.59 1407,-2014 1622,-2014 1622,-2014 1622,-2014 2087,-2014 2205.05,-2014 2529.05,-2016.99 2612,-1933 2704.42,-1839.43 2670.04,-1476.13 2695,-1347 2701.66,-1312.53 2711.75,-1273.25 2718.48,-1248.31"/>
<polygon fill="#5d6972" stroke="#5d6972" stroke-width="1.2" points="2720.9,-1248.76 2720.37,-1241.36 2716.17,-1247.47 2720.9,-1248.76"/>
</g>
<!-- course__GEOG272&#45;&gt;year_band__year&#45;2__exit -->
<!-- choice_GEOG370_0_0 -->
<g id="node70" class="node">
<title>choice_GEOG370_0_0</title>
<path fill="#fff7ee" stroke="#b7793f" stroke-width="1.1" d="M2255,-1927C2255,-1927 2225,-1927 2225,-1927 2219,-1927 2213,-1921 2213,-1915 2213,-1915 2213,-1903 2213,-1903 2213,-1897 2219,-1891 2225,-1891 2225,-1891 2255,-1891 2255,-1891 2261,-1891 2267,-1897 2267,-1903 2267,-1903 2267,-1915 2267,-1915 2267,-1921 2261,-1927 2255,-1927"/>
<text text-anchor="middle" x="2240" y="-1906.8" font-family="Avenir Next" font-size="9.00">1 of</text>
</g>
<!-- course__GEOG272&#45;&gt;choice_GEOG370_0_0 -->
<g id="edge156" class="edge">
<title>course__GEOG272&#45;&gt;choice_GEOG370_0_0</title>
<path fill="none" stroke="#7a8389" d="M1431.63,-1541.58C1440.26,-1546.15 1448.94,-1552.21 1455,-1560 1543.4,-1673.57 1442.26,-1765.55 1538,-1873 1564.68,-1902.95 1581.89,-1906 1622,-1906 1622,-1906 1622,-1906 1959,-1906 2048.15,-1906 2153.25,-1907.54 2205.71,-1908.41"/>
<polygon fill="#7a8389" stroke="#7a8389" points="2205.71,-1910.86 2212.75,-1908.53 2205.79,-1905.96 2205.71,-1910.86"/>
</g>
<!-- course__STAT254&#45;&gt;year_band__year&#45;2__exit -->
<!-- course__STAT254&#45;&gt;choice_ECON383_0_0 -->
<g id="edge123" class="edge">
<title>course__STAT254&#45;&gt;choice_ECON383_0_0</title>
<path fill="none" stroke="#7a8389" d="M1443,-1368.18C1447.57,-1371.56 1451.74,-1375.48 1455,-1380 1572.01,-1542.1 1422.08,-2264 1622,-2264 1622,-2264 1622,-2264 2408,-2264 2518.59,-2264 2637.3,-2198.71 2693.06,-2163.65"/>
<polygon fill="#7a8389" stroke="#7a8389" points="2694.62,-2165.56 2699.22,-2159.74 2692,-2161.42 2694.62,-2165.56"/>
</g>
<!-- course__CIVE315 -->
<g id="node49" class="node">
<title>course__CIVE315</title>
<g id="a_node49"><a xlink:href="../../../courses/CIVE315.html" xlink:title="CIVE315: Environmental Policy" target="_top">
<path fill="#e2deef" stroke="#665683" stroke-width="1.3" d="M2423.5,-535C2423.5,-535 2390.5,-535 2390.5,-535 2384.5,-535 2378.5,-529 2378.5,-523 2378.5,-523 2378.5,-511 2378.5,-511 2378.5,-505 2384.5,-499 2390.5,-499 2390.5,-499 2423.5,-499 2423.5,-499 2429.5,-499 2435.5,-505 2435.5,-511 2435.5,-511 2435.5,-523 2435.5,-523 2435.5,-529 2429.5,-535 2423.5,-535"/>
<text text-anchor="middle" x="2407" y="-514.5" font-family="Avenir Next" font-size="10.00" fill="#2f2741">CIVE315</text>
</a>
</g>
</g>
<!-- course__CIVE210&#45;&gt;course__CIVE315 -->
<g id="edge120" class="edge">
<title>course__CIVE210&#45;&gt;course__CIVE315</title>
<path fill="none" stroke="#5d6972" stroke-width="1.2" d="M1428.77,-1128.42C1478.66,-1101 1581.98,-1047 1622,-1047 1622,-1047 1622,-1047 1875,-1047 2181.51,-1047 2106.25,-732.84 2350,-547 2356.78,-541.83 2364.58,-537.04 2372.16,-532.88"/>
<polygon fill="#5d6972" stroke="#5d6972" stroke-width="1.2" points="2373.41,-534.99 2378.44,-529.54 2371.11,-530.66 2373.41,-534.99"/>
</g>
<!-- course__CIVE210&#45;&gt;year_band__year&#45;2__exit -->
<!-- course__ADMN311 -->
<g id="node25" class="node">
<title>course__ADMN311</title>
<g id="a_node25"><a xlink:href="../../../courses/ADMN311.html" xlink:title="Equivalent or cross&#45;listed: ADMN311: Introduction to Public Administration | POLI350: Introduction to Public Administration" target="_top">
<path fill="#e2deef" stroke="#665683" stroke-width="1.3" d="M2452,-793C2452,-793 2362,-793 2362,-793 2356,-793 2350,-787 2350,-781 2350,-781 2350,-769 2350,-769 2350,-763 2356,-757 2362,-757 2362,-757 2452,-757 2452,-757 2458,-757 2464,-763 2464,-769 2464,-769 2464,-781 2464,-781 2464,-787 2458,-793 2452,-793"/>
<text text-anchor="middle" x="2407" y="-772.5" font-family="Avenir Next" font-size="10.00" fill="#2f2741">ADMN311 / POLI350</text>
</a>
</g>
</g>
<!-- course__ADMN420 -->
<g id="node33" class="node">
<title>course__ADMN420</title>
<g id="a_node33"><a xlink:href="../../../courses/ADMN420.html" xlink:title="ADMN420: The Public Policy Process" target="_top">
<path fill="#e2deef" stroke="#665683" stroke-width="1.3" d="M2600,-767C2600,-767 2559,-767 2559,-767 2553,-767 2547,-761 2547,-755 2547,-755 2547,-743 2547,-743 2547,-737 2553,-731 2559,-731 2559,-731 2600,-731 2600,-731 2606,-731 2612,-737 2612,-743 2612,-743 2612,-755 2612,-755 2612,-761 2606,-767 2600,-767"/>
<text text-anchor="middle" x="2579.5" y="-746.5" font-family="Avenir Next" font-size="10.00" fill="#2f2741">ADMN420</text>
</a>
</g>
</g>
<!-- course__ADMN311&#45;&gt;course__ADMN420 -->
<g id="edge111" class="edge">
<title>course__ADMN311&#45;&gt;course__ADMN420</title>
<path fill="none" stroke="#5d6972" stroke-width="1.2" d="M2464.3,-766.41C2488.98,-762.65 2517.34,-758.33 2539.62,-754.93"/>
<polygon fill="#5d6972" stroke="#5d6972" stroke-width="1.2" points="2540.08,-757.34 2546.63,-753.86 2539.34,-752.49 2540.08,-757.34"/>
</g>
<!-- year_band__years&#45;3&#45;4__exit -->
<!-- course__ADMN311&#45;&gt;year_band__years&#45;3&#45;4__exit -->
<!-- course__ADMN316 -->
<g id="node26" class="node">
<title>course__ADMN316</title>
<g id="a_node26"><a xlink:href="../../../courses/ADMN316.html" xlink:title="ADMN316: Public Sector Communications" target="_top">
<path fill="#e2deef" stroke="#665683" stroke-width="1.3" d="M2427.5,-879C2427.5,-879 2386.5,-879 2386.5,-879 2380.5,-879 2374.5,-873 2374.5,-867 2374.5,-867 2374.5,-855 2374.5,-855 2374.5,-849 2380.5,-843 2386.5,-843 2386.5,-843 2427.5,-843 2427.5,-843 2433.5,-843 2439.5,-849 2439.5,-855 2439.5,-855 2439.5,-867 2439.5,-867 2439.5,-873 2433.5,-879 2427.5,-879"/>
<text text-anchor="middle" x="2407" y="-858.5" font-family="Avenir Next" font-size="10.00" fill="#2f2741">ADMN316</text>
</a>
</g>
</g>
<!-- course__ADMN316&#45;&gt;year_band__years&#45;3&#45;4__exit -->
<!-- course__ANTH302 -->
<g id="node27" class="node">
<title>course__ANTH302</title>
<g id="a_node27"><a xlink:href="../../../courses/ANTH302.html" xlink:title="ANTH302: Globalization, Health, and the Environment" target="_top">
<path fill="#e2deef" stroke="#665683" stroke-width="1.3" d="M2426,-965C2426,-965 2388,-965 2388,-965 2382,-965 2376,-959 2376,-953 2376,-953 2376,-941 2376,-941 2376,-935 2382,-929 2388,-929 2388,-929 2426,-929 2426,-929 2432,-929 2438,-935 2438,-941 2438,-941 2438,-953 2438,-953 2438,-959 2432,-965 2426,-965"/>
<text text-anchor="middle" x="2407" y="-944.5" font-family="Avenir Next" font-size="10.00" fill="#2f2741">ANTH302</text>
</a>
</g>
</g>
<!-- course__ANTH302&#45;&gt;year_band__years&#45;3&#45;4__exit -->
<!-- course__CIVE411 -->
<g id="node28" class="node">
<title>course__CIVE411</title>
<g id="a_node28"><a xlink:href="../../../courses/CIVE411.html" xlink:title="CIVE411: Resilient Smart Cities" target="_top">
<path fill="#e2deef" stroke="#665683" stroke-width="1.3" d="M2423.5,-1025C2423.5,-1025 2390.5,-1025 2390.5,-1025 2384.5,-1025 2378.5,-1019 2378.5,-1013 2378.5,-1013 2378.5,-1001 2378.5,-1001 2378.5,-995 2384.5,-989 2390.5,-989 2390.5,-989 2423.5,-989 2423.5,-989 2429.5,-989 2435.5,-995 2435.5,-1001 2435.5,-1001 2435.5,-1013 2435.5,-1013 2435.5,-1019 2429.5,-1025 2423.5,-1025"/>
<text text-anchor="middle" x="2407" y="-1004.5" font-family="Avenir Next" font-size="10.00" fill="#2f2741">CIVE411</text>
</a>
</g>
</g>
<!-- course__CIVE411&#45;&gt;year_band__years&#45;3&#45;4__exit -->
<!-- course__EOS365 -->
<g id="node29" class="node">
<title>course__EOS365</title>
<g id="a_node29"><a xlink:href="../../../courses/EOS365.html" xlink:title="Equivalent or cross&#45;listed: EOS365: Climate and Society | ES365: Climate and Society" target="_top">
<path fill="#efd8cf" stroke="#8f5945" stroke-width="1.3" d="M2441.5,-475C2441.5,-475 2372.5,-475 2372.5,-475 2366.5,-475 2360.5,-469 2360.5,-463 2360.5,-463 2360.5,-451 2360.5,-451 2360.5,-445 2366.5,-439 2372.5,-439 2372.5,-439 2441.5,-439 2441.5,-439 2447.5,-439 2453.5,-445 2453.5,-451 2453.5,-451 2453.5,-463 2453.5,-463 2453.5,-469 2447.5,-475 2441.5,-475"/>
<text text-anchor="middle" x="2407" y="-454.5" font-family="Avenir Next" font-size="10.00" fill="#3f251d">EOS365 / ES365</text>
</a>
</g>
</g>
<!-- course__EOS365&#45;&gt;year_band__years&#45;3&#45;4__exit -->
<!-- choice_GEOG450_0 -->
<g id="node72" class="node">
<title>choice_GEOG450_0</title>
<path fill="#fff7ee" stroke="#b7793f" stroke-width="1.1" d="M2908,-323C2908,-323 2878,-323 2878,-323 2872,-323 2866,-317 2866,-311 2866,-311 2866,-299 2866,-299 2866,-293 2872,-287 2878,-287 2878,-287 2908,-287 2908,-287 2914,-287 2920,-293 2920,-299 2920,-299 2920,-311 2920,-311 2920,-317 2914,-323 2908,-323"/>
<text text-anchor="middle" x="2893" y="-302.8" font-family="Avenir Next" font-size="9.00">2 of</text>
</g>
<!-- course__EOS365&#45;&gt;choice_GEOG450_0 -->
<g id="edge169" class="edge">
<title>course__EOS365&#45;&gt;choice_GEOG450_0</title>
<path fill="none" stroke="#7a8389" d="M2448.82,-438.83C2454.28,-435.37 2459.54,-431.43 2464,-427 2518.64,-372.79 2480.8,-314.28 2547,-275 2647.52,-215.36 2794.34,-263.61 2859.16,-290.27"/>
<polygon fill="#7a8389" stroke="#7a8389" points="2858.51,-292.66 2865.91,-293.09 2860.4,-288.13 2858.51,-292.66"/>
</g>
<!-- choice_GEOG489_0_2 -->
<g id="node74" class="node">
<title>choice_GEOG489_0_2</title>
<path fill="#fff7ee" stroke="#b7793f" stroke-width="1.1" d="M2594.5,-323C2594.5,-323 2564.5,-323 2564.5,-323 2558.5,-323 2552.5,-317 2552.5,-311 2552.5,-311 2552.5,-299 2552.5,-299 2552.5,-293 2558.5,-287 2564.5,-287 2564.5,-287 2594.5,-287 2594.5,-287 2600.5,-287 2606.5,-293 2606.5,-299 2606.5,-299 2606.5,-311 2606.5,-311 2606.5,-317 2600.5,-323 2594.5,-323"/>
<text text-anchor="middle" x="2579.5" y="-302.8" font-family="Avenir Next" font-size="9.00">1 of</text>
</g>
<!-- course__EOS365&#45;&gt;choice_GEOG489_0_2 -->
<g id="edge176" class="edge">
<title>course__EOS365&#45;&gt;choice_GEOG489_0_2</title>
<path fill="none" stroke="#7a8389" d="M2445.8,-438.94C2452.1,-435.32 2458.4,-431.3 2464,-427 2502.14,-397.74 2538.81,-355.33 2559.98,-329"/>
<polygon fill="#7a8389" stroke="#7a8389" points="2562.07,-330.31 2564.51,-323.31 2558.24,-327.26 2562.07,-330.31"/>
</g>
<!-- course__ES314 -->
<g id="node30" class="node">
<title>course__ES314</title>
<g id="a_node30"><a xlink:href="../../../courses/ES314.html" xlink:title="Equivalent or cross&#45;listed: ES314: Philosophy and the Environment | PHIL333: Philosophy and the Environment" target="_top">
<path fill="#e2deef" stroke="#665683" stroke-width="1.3" d="M2442.5,-1085C2442.5,-1085 2371.5,-1085 2371.5,-1085 2365.5,-1085 2359.5,-1079 2359.5,-1073 2359.5,-1073 2359.5,-1061 2359.5,-1061 2359.5,-1055 2365.5,-1049 2371.5,-1049 2371.5,-1049 2442.5,-1049 2442.5,-1049 2448.5,-1049 2454.5,-1055 2454.5,-1061 2454.5,-1061 2454.5,-1073 2454.5,-1073 2454.5,-1079 2448.5,-1085 2442.5,-1085"/>
<text text-anchor="middle" x="2407" y="-1064.5" font-family="Avenir Next" font-size="10.00" fill="#2f2741">ES314 / PHIL333</text>
</a>
</g>
</g>
<!-- course__ES314&#45;&gt;year_band__years&#45;3&#45;4__exit -->
<!-- course__GEOG314 -->
<g id="node31" class="node">
<title>course__GEOG314</title>
<g id="a_node31"><a xlink:href="../../../courses/GEOG314.html" xlink:title="GEOG314: Global Environmental Change and Human Response" target="_top">
<path fill="#efd8cf" stroke="#8f5945" stroke-width="1.3" d="M2426.5,-415C2426.5,-415 2387.5,-415 2387.5,-415 2381.5,-415 2375.5,-409 2375.5,-403 2375.5,-403 2375.5,-391 2375.5,-391 2375.5,-385 2381.5,-379 2387.5,-379 2387.5,-379 2426.5,-379 2426.5,-379 2432.5,-379 2438.5,-385 2438.5,-391 2438.5,-391 2438.5,-403 2438.5,-403 2438.5,-409 2432.5,-415 2426.5,-415"/>
<text text-anchor="middle" x="2407" y="-394.5" font-family="Avenir Next" font-size="10.00" fill="#3f251d">GEOG314</text>
</a>
</g>
</g>
<!-- course__GEOG314&#45;&gt;year_band__years&#45;3&#45;4__exit -->
<!-- course__GEOG314&#45;&gt;choice_GEOG450_0 -->
<g id="edge167" class="edge">
<title>course__GEOG314&#45;&gt;choice_GEOG450_0</title>
<path fill="none" stroke="#7a8389" d="M2416.46,-378.78C2434.46,-342.51 2480.42,-262.09 2547,-231 2631.97,-191.32 2667.19,-207.59 2758,-231 2796.6,-240.95 2835.96,-264.64 2861.95,-282.55"/>
<polygon fill="#7a8389" stroke="#7a8389" points="2860.79,-284.74 2867.93,-286.74 2863.6,-280.72 2860.79,-284.74"/>
</g>
<!-- course__GEOG314&#45;&gt;choice_GEOG489_0_2 -->
<g id="edge175" class="edge">
<title>course__GEOG314&#45;&gt;choice_GEOG489_0_2</title>
<path fill="none" stroke="#7a8389" d="M2438.88,-380.34C2469.16,-364 2515.15,-339.18 2545.98,-322.55"/>
<polygon fill="#7a8389" stroke="#7a8389" points="2547.32,-324.61 2552.32,-319.13 2545,-320.29 2547.32,-324.61"/>
</g>
<!-- course__POLI351 -->
<g id="node32" class="node">
<title>course__POLI351</title>
<g id="a_node32"><a xlink:href="../../../courses/POLI351.html" xlink:title="POLI351: Public Policy Analysis" target="_top">
<path fill="#e2deef" stroke="#665683" stroke-width="1.3" d="M2423,-1335C2423,-1335 2391,-1335 2391,-1335 2385,-1335 2379,-1329 2379,-1323 2379,-1323 2379,-1311 2379,-1311 2379,-1305 2385,-1299 2391,-1299 2391,-1299 2423,-1299 2423,-1299 2429,-1299 2435,-1305 2435,-1311 2435,-1311 2435,-1323 2435,-1323 2435,-1329 2429,-1335 2423,-1335"/>
<text text-anchor="middle" x="2407" y="-1314.5" font-family="Avenir Next" font-size="10.00" fill="#2f2741">POLI351</text>
</a>
</g>
</g>
<!-- course__POLI351&#45;&gt;year_band__years&#45;3&#45;4__exit -->
<!-- course__ADMN420&#45;&gt;year_band__years&#45;3&#45;4__exit -->
<!-- course__ES405 -->
<g id="node37" class="node">
<title>course__ES405</title>
<g id="a_node37"><a xlink:href="../../../courses/ES405.html" xlink:title="ES405: Climate, Energy and Politics" target="_top">
<path fill="#e2deef" stroke="#665683" stroke-width="1.3" d="M2741.5,-1129C2741.5,-1129 2711.5,-1129 2711.5,-1129 2705.5,-1129 2699.5,-1123 2699.5,-1117 2699.5,-1117 2699.5,-1105 2699.5,-1105 2699.5,-1099 2705.5,-1093 2711.5,-1093 2711.5,-1093 2741.5,-1093 2741.5,-1093 2747.5,-1093 2753.5,-1099 2753.5,-1105 2753.5,-1105 2753.5,-1117 2753.5,-1117 2753.5,-1123 2747.5,-1129 2741.5,-1129"/>
<text text-anchor="middle" x="2726.5" y="-1108.5" font-family="Avenir Next" font-size="10.00" fill="#2f2741">ES405</text>
</a>
</g>
</g>
<!-- course__ES301&#45;&gt;course__ES405 -->
<g id="edge142" class="edge">
<title>course__ES301&#45;&gt;course__ES405</title>
<path fill="none" stroke="#5d6972" stroke-width="1.2" d="M2606.76,-1138.84C2630.78,-1133.21 2666.42,-1124.85 2692.39,-1118.76"/>
<polygon fill="#5d6972" stroke="#5d6972" stroke-width="1.2" points="2693.18,-1121.09 2699.44,-1117.11 2692.06,-1116.32 2693.18,-1121.09"/>
</g>
<!-- course__ES301&#45;&gt;year_band__years&#45;3&#45;4__exit -->
<!-- course__ES301&#45;&gt;choice_GEOG450_0 -->
<g id="edge170" class="edge">
<title>course__ES301&#45;&gt;choice_GEOG450_0</title>
<path fill="none" stroke="#7a8389" d="M2582.46,-1126.99C2593.13,-1035.58 2650.99,-616.73 2841,-345 2846.14,-337.65 2853.02,-331 2860.06,-325.33"/>
<polygon fill="#7a8389" stroke="#7a8389" points="2861.91,-327 2865.98,-320.8 2858.93,-323.11 2861.91,-327"/>
</g>
<!-- course__GEOG323&#45;&gt;year_band__years&#45;3&#45;4__exit -->
<!-- course__GEOG328&#45;&gt;year_band__years&#45;3&#45;4__exit -->
<!-- course__ES405&#45;&gt;year_band__years&#45;3&#45;4__exit -->
<!-- course__GEOG301&#45;&gt;year_band__years&#45;3&#45;4__exit -->
<!-- course__GEOG301&#45;&gt;choice_GEOG450_0 -->
<g id="edge166" class="edge">
<title>course__GEOG301&#45;&gt;choice_GEOG450_0</title>
<path fill="none" stroke="#7a8389" d="M2728.63,-1032.86C2735.03,-934.74 2768.91,-467.33 2841,-345 2845.78,-336.89 2852.88,-329.81 2860.28,-323.95"/>
<polygon fill="#7a8389" stroke="#7a8389" points="2861.82,-325.86 2865.96,-319.71 2858.89,-321.93 2861.82,-325.86"/>
</g>
<!-- course__GEOG313&#45;&gt;year_band__years&#45;3&#45;4__exit -->
<!-- course__GEOG371&#45;&gt;year_band__years&#45;3&#45;4__exit -->
<!-- course__GEOG371&#45;&gt;choice_GEOG450_0 -->
<g id="edge168" class="edge">
<title>course__GEOG371&#45;&gt;choice_GEOG450_0</title>
<path fill="none" stroke="#7a8389" d="M2731.63,-1548.87C2738.22,-1519.32 2751.05,-1458.85 2758,-1407 2789.43,-1172.38 2729.21,-553.66 2841,-345 2845.49,-336.62 2852.57,-329.42 2860.04,-323.52"/>
<polygon fill="#7a8389" stroke="#7a8389" points="2861.62,-325.41 2865.79,-319.28 2858.71,-321.46 2861.62,-325.41"/>
</g>
<!-- course__GEOG484 -->
<g id="node45" class="node">
<title>course__GEOG484</title>
<g id="a_node45"><a xlink:href="../../../courses/GEOG484.html" xlink:title="GEOG484: Advanced Topics in Weather and Climate" target="_top">
<path fill="#d7e9ef" stroke="#1f4f66" stroke-width="1.6" d="M2912.5,-1198C2912.5,-1198 2873.5,-1198 2873.5,-1198 2867.5,-1198 2861.5,-1192 2861.5,-1186 2861.5,-1186 2861.5,-1174 2861.5,-1174 2861.5,-1168 2867.5,-1162 2873.5,-1162 2873.5,-1162 2912.5,-1162 2912.5,-1162 2918.5,-1162 2924.5,-1168 2924.5,-1174 2924.5,-1174 2924.5,-1186 2924.5,-1186 2924.5,-1192 2918.5,-1198 2912.5,-1198"/>
<text text-anchor="middle" x="2893" y="-1177.5" font-family="Avenir Next" font-size="10.00" fill="#17232b">GEOG484</text>
</a>
</g>
</g>
<!-- course__GEOG373&#45;&gt;course__GEOG484 -->
<g id="edge172" class="edge">
<title>course__GEOG373&#45;&gt;course__GEOG484</title>
<path fill="none" stroke="#5d6972" stroke-width="1.2" d="M2758.06,-1215.01C2785.32,-1207.89 2825.34,-1197.43 2854.53,-1189.79"/>
<polygon fill="#5d6972" stroke="#5d6972" stroke-width="1.2" points="2855.18,-1192.16 2861.33,-1188.02 2853.94,-1187.42 2855.18,-1192.16"/>
</g>
<!-- course__GEOG373&#45;&gt;year_band__years&#45;3&#45;4__exit -->
<!-- choice_GEOG405_0 -->
<g id="node71" class="node">
<title>choice_GEOG405_0</title>
<path fill="#fff7ee" stroke="#b7793f" stroke-width="1.1" d="M2908,-113C2908,-113 2878,-113 2878,-113 2872,-113 2866,-107 2866,-101 2866,-101 2866,-89 2866,-89 2866,-83 2872,-77 2878,-77 2878,-77 2908,-77 2908,-77 2914,-77 2920,-83 2920,-89 2920,-89 2920,-101 2920,-101 2920,-107 2914,-113 2908,-113"/>
<text text-anchor="middle" x="2893" y="-92.8" font-family="Avenir Next" font-size="9.00">1 of</text>
</g>
<!-- course__GEOG373&#45;&gt;choice_GEOG405_0 -->
<g id="edge163" class="edge">
<title>course__GEOG373&#45;&gt;choice_GEOG405_0</title>
<path fill="none" stroke="#7a8389" d="M2735.81,-1204.86C2742.92,-1188.52 2752.8,-1163.65 2758,-1141 2844.57,-764.16 2769.56,-655 2841,-275 2851.59,-218.68 2871.81,-154.48 2883.35,-120.03"/>
<polygon fill="#7a8389" stroke="#7a8389" points="2885.76,-120.55 2885.68,-113.14 2881.12,-118.99 2885.76,-120.55"/>
</g>
<!-- choice_GEOG489_0_1 -->
<g id="node73" class="node">
<title>choice_GEOG489_0_1</title>
<path fill="#fff7ee" stroke="#b7793f" stroke-width="1.1" d="M2908,-1754C2908,-1754 2878,-1754 2878,-1754 2872,-1754 2866,-1748 2866,-1742 2866,-1742 2866,-1730 2866,-1730 2866,-1724 2872,-1718 2878,-1718 2878,-1718 2908,-1718 2908,-1718 2914,-1718 2920,-1724 2920,-1730 2920,-1730 2920,-1742 2920,-1742 2920,-1748 2914,-1754 2908,-1754"/>
<text text-anchor="middle" x="2893" y="-1733.8" font-family="Avenir Next" font-size="9.00">1 of</text>
</g>
<!-- course__GEOG373&#45;&gt;choice_GEOG489_0_1 -->
<g id="edge173" class="edge">
<title>course__GEOG373&#45;&gt;choice_GEOG489_0_1</title>
<path fill="none" stroke="#7a8389" d="M2731.99,-1241.06C2737.98,-1265.19 2748.88,-1309.29 2758,-1347 2795.49,-1501.97 2755.02,-1561.73 2841,-1696 2845.88,-1703.63 2852.74,-1710.41 2859.84,-1716.13"/>
<polygon fill="#7a8389" stroke="#7a8389" points="2858.77,-1718.39 2865.82,-1720.67 2861.73,-1714.49 2858.77,-1718.39"/>
</g>
<!-- course__ECON383 -->
<g id="node42" class="node">
<title>course__ECON383</title>
<g id="a_node42"><a xlink:href="../../../courses/ECON383.html" xlink:title="ECON383: Climate Economics" target="_top">
<path fill="#e2deef" stroke="#665683" stroke-width="1.3" d="M2912,-1404C2912,-1404 2874,-1404 2874,-1404 2868,-1404 2862,-1398 2862,-1392 2862,-1392 2862,-1380 2862,-1380 2862,-1374 2868,-1368 2874,-1368 2874,-1368 2912,-1368 2912,-1368 2918,-1368 2924,-1374 2924,-1380 2924,-1380 2924,-1392 2924,-1392 2924,-1398 2918,-1404 2912,-1404"/>
<text text-anchor="middle" x="2893" y="-1383.5" font-family="Avenir Next" font-size="10.00" fill="#2f2741">ECON383</text>
</a>
</g>
</g>
<!-- course__ECON383&#45;&gt;year_band__years&#45;3&#45;4__exit -->
<!-- course__EOS314&#45;&gt;year_band__years&#45;3&#45;4__exit -->
<!-- course__EOS314&#45;&gt;choice_EOS312_0_0 -->
<g id="edge130" class="edge">
<title>course__EOS314&#45;&gt;choice_EOS312_0_0</title>
<path fill="none" stroke="#7a8389" d="M2920.13,-1634.72C2929.56,-1630.01 2939.29,-1623.27 2945,-1614 3093.24,-1373.4 2988.26,-624.79 3028,-345 3032.6,-312.63 3041.24,-275.93 3047.29,-252.18"/>
<polygon fill="#7a8389" stroke="#7a8389" points="3049.7,-252.63 3049.08,-245.24 3044.96,-251.4 3049.7,-252.63"/>
</g>
<!-- course__GEOG450 -->
<g id="node44" class="node">
<title>course__GEOG450</title>
<g id="a_node44"><a xlink:href="../../../courses/GEOG450.html" xlink:title="GEOG450: Environment and Sustainability in Practice" target="_top">
<path fill="#d7e9ef" stroke="#1f4f66" stroke-width="1.6" d="M2912.5,-853C2912.5,-853 2873.5,-853 2873.5,-853 2867.5,-853 2861.5,-847 2861.5,-841 2861.5,-841 2861.5,-829 2861.5,-829 2861.5,-823 2867.5,-817 2873.5,-817 2873.5,-817 2912.5,-817 2912.5,-817 2918.5,-817 2924.5,-823 2924.5,-829 2924.5,-829 2924.5,-841 2924.5,-841 2924.5,-847 2918.5,-853 2912.5,-853"/>
<text text-anchor="middle" x="2893" y="-832.5" font-family="Avenir Next" font-size="10.00" fill="#17232b">GEOG450</text>
</a>
</g>
</g>
<!-- course__GEOG450&#45;&gt;year_band__years&#45;3&#45;4__exit -->
<!-- course__GEOG484&#45;&gt;year_band__years&#45;3&#45;4__exit -->
<!-- course__STAT359 -->
<g id="node46" class="node">
<title>course__STAT359</title>
<g id="a_node46"><a xlink:href="../../../courses/STAT359.html" xlink:title="STAT359: Data Analysis" target="_top">
<path fill="#d7e9ef" stroke="#1f4f66" stroke-width="1.6" d="M2910,-1490C2910,-1490 2876,-1490 2876,-1490 2870,-1490 2864,-1484 2864,-1478 2864,-1478 2864,-1466 2864,-1466 2864,-1460 2870,-1454 2876,-1454 2876,-1454 2910,-1454 2910,-1454 2916,-1454 2922,-1460 2922,-1466 2922,-1466 2922,-1478 2922,-1478 2922,-1484 2916,-1490 2910,-1490"/>
<text text-anchor="middle" x="2893" y="-1469.5" font-family="Avenir Next" font-size="10.00" fill="#17232b">STAT359</text>
</a>
</g>
</g>
<!-- course__STAT359&#45;&gt;year_band__years&#45;3&#45;4__exit -->
<!-- course__EOS340&#45;&gt;choice_GEOG370_0_0 -->
<g id="edge157" class="edge">
<title>course__EOS340&#45;&gt;choice_GEOG370_0_0</title>
<path fill="none" stroke="#7a8389" d="M2860.18,-1602.14C2853.76,-1605.95 2847.12,-1610.03 2841,-1614 2668.35,-1726.07 2656.06,-1808.97 2464,-1883 2400.09,-1907.63 2318.85,-1910.7 2274.18,-1910.2"/>
<polygon fill="#7a8389" stroke="#7a8389" points="2274.11,-1907.75 2267.07,-1910.09 2274.03,-1912.65 2274.11,-1907.75"/>
</g>
<!-- course__EOS340&#45;&gt;choice_GEOG405_0 -->
<g id="edge164" class="edge">
<title>course__EOS340&#45;&gt;choice_GEOG405_0</title>
<path fill="none" stroke="#7a8389" d="M2840.77,-1569.16C2824.71,-1561.87 2808.82,-1551.26 2799.5,-1536 2727.17,-1417.56 2768.32,-422.23 2799.5,-287 2814.4,-222.38 2854.12,-154.33 2876.71,-119.19"/>
<polygon fill="#7a8389" stroke="#7a8389" points="2878.96,-120.22 2880.72,-113.02 2874.85,-117.55 2878.96,-120.22"/>
</g>
<!-- course__EOS340&#45;&gt;choice_GEOG489_0_1 -->
<g id="edge174" class="edge">
<title>course__EOS340&#45;&gt;choice_GEOG489_0_1</title>
<path fill="none" stroke="#7a8389" d="M2840.94,-1595.52C2824.9,-1601.77 2808.97,-1611.36 2799.5,-1626 2785.5,-1647.64 2786.43,-1661.78 2799.5,-1684 2812.33,-1705.82 2837.99,-1719.14 2859.19,-1726.83"/>
<polygon fill="#7a8389" stroke="#7a8389" points="2858.47,-1729.18 2865.89,-1729.13 2860.07,-1724.54 2858.47,-1729.18"/>
</g>
<!-- course__EOS431&#45;&gt;choice_EOS312_0_0 -->
<g id="edge131" class="edge">
<title>course__EOS431&#45;&gt;choice_EOS312_0_0</title>
<path fill="none" stroke="#7a8389" d="M2900.37,-661.96C2925.31,-591.36 3016.33,-333.64 3045.17,-251.99"/>
<polygon fill="#7a8389" stroke="#7a8389" points="3047.59,-252.51 3047.61,-245.09 3042.97,-250.87 3047.59,-252.51"/>
</g>
<!-- course__CIVE315&#45;&gt;year_band__years&#45;3&#45;4__exit -->
<!-- course__EOS312&#45;&gt;year_band__years&#45;3&#45;4__exit -->
<!-- course__GEOG370 -->
<g id="node51" class="node">
<title>course__GEOG370</title>
<g id="a_node51"><a xlink:href="../../../courses/GEOG370.html" xlink:title="GEOG370: Methods in Hydrology" target="_top">
<path fill="#d7e9ef" stroke="#1f4f66" stroke-width="1.6" d="M2426.5,-1395C2426.5,-1395 2387.5,-1395 2387.5,-1395 2381.5,-1395 2375.5,-1389 2375.5,-1383 2375.5,-1383 2375.5,-1371 2375.5,-1371 2375.5,-1365 2381.5,-1359 2387.5,-1359 2387.5,-1359 2426.5,-1359 2426.5,-1359 2432.5,-1359 2438.5,-1365 2438.5,-1371 2438.5,-1371 2438.5,-1383 2438.5,-1383 2438.5,-1389 2432.5,-1395 2426.5,-1395"/>
<text text-anchor="middle" x="2407" y="-1374.5" font-family="Avenir Next" font-size="10.00" fill="#17232b">GEOG370</text>
</a>
</g>
</g>
<!-- course__GEOG370&#45;&gt;year_band__years&#45;3&#45;4__exit -->
<!-- course__GEOG370&#45;&gt;choice_GEOG405_0 -->
<g id="edge162" class="edge">
<title>course__GEOG370&#45;&gt;choice_GEOG405_0</title>
<path fill="none" stroke="#7a8389" d="M2438.62,-1367.31C2448.31,-1362.7 2458.03,-1356.14 2464,-1347 2594.57,-1146.9 2415.34,-474.39 2547,-275 2620.96,-162.99 2787.92,-116.42 2858.98,-101.19"/>
<polygon fill="#7a8389" stroke="#7a8389" points="2859.6,-103.56 2865.95,-99.73 2858.6,-98.76 2859.6,-103.56"/>
</g>
<!-- course__GEOG489&#45;&gt;year_band__years&#45;3&#45;4__exit -->
<!-- course__GEOG405 -->
<g id="node53" class="node">
<title>course__GEOG405</title>
<g id="a_node53"><a xlink:href="../../../courses/GEOG405.html" xlink:title="GEOG405: Dynamics of the Cryosphere" target="_top">
<path fill="#d7e9ef" stroke="#1f4f66" stroke-width="1.6" d="M2426.5,-595C2426.5,-595 2387.5,-595 2387.5,-595 2381.5,-595 2375.5,-589 2375.5,-583 2375.5,-583 2375.5,-571 2375.5,-571 2375.5,-565 2381.5,-559 2387.5,-559 2387.5,-559 2426.5,-559 2426.5,-559 2432.5,-559 2438.5,-565 2438.5,-571 2438.5,-571 2438.5,-583 2438.5,-583 2438.5,-589 2432.5,-595 2426.5,-595"/>
<text text-anchor="middle" x="2407" y="-574.5" font-family="Avenir Next" font-size="10.00" fill="#17232b">GEOG405</text>
</a>
</g>
</g>
<!-- course__GEOG405&#45;&gt;year_band__years&#45;3&#45;4__exit -->
<!-- course__CHEM091 -->
<g id="node54" class="node">
<title>course__CHEM091</title>
<g id="a_node54"><a xlink:href="../../../courses/CHEM091.html" xlink:title="CHEM091: Introduction to Chemistry" target="_top">
<path fill="#f9f9f9" stroke="#363636" d="M520.5,-1800C520.5,-1800 483.5,-1800 483.5,-1800 477.5,-1800 471.5,-1794 471.5,-1788 471.5,-1788 471.5,-1776 471.5,-1776 471.5,-1770 477.5,-1764 483.5,-1764 483.5,-1764 520.5,-1764 520.5,-1764 526.5,-1764 532.5,-1770 532.5,-1776 532.5,-1776 532.5,-1788 532.5,-1788 532.5,-1794 526.5,-1800 520.5,-1800"/>
<text text-anchor="middle" x="502" y="-1779.8" font-family="Avenir Next" font-size="9.00" fill="#363636">CHEM091</text>
</a>
</g>
</g>
<!-- course__CHEM091&#45;&gt;course__CHEM102 -->
<g id="edge114" class="edge">
<title>course__CHEM091&#45;&gt;course__CHEM102</title>
<path fill="none" stroke="#5d6972" stroke-width="1.2" d="M471.17,-1771.64C452.3,-1763.51 429.69,-1750.16 418.5,-1730 390.13,-1678.9 387.83,-1253.75 418.5,-1204 428.26,-1188.17 446.02,-1178.09 462.66,-1171.79"/>
<polygon fill="#5d6972" stroke="#5d6972" stroke-width="1.2" points="463.9,-1173.95 469.7,-1169.32 462.28,-1169.33 463.9,-1173.95"/>
</g>
<!-- year_band__year&#45;1__label -->
<g id="node55" class="node">
<title>year_band__year&#45;1__label</title>
<path fill="#eef2f4" stroke="#c8d0d5" stroke-width="0.8" d="M78,-1708C78,-1708 48,-1708 48,-1708 42,-1708 36,-1702 36,-1696 36,-1696 36,-1684 36,-1684 36,-1678 42,-1672 48,-1672 48,-1672 78,-1672 78,-1672 84,-1672 90,-1678 90,-1684 90,-1684 90,-1696 90,-1696 90,-1702 84,-1708 78,-1708"/>
<text text-anchor="middle" x="63" y="-1686.6" font-family="Avenir Next" font-size="13.00" fill="#4e5f68">Year 1</text>
</g>
<!-- year_band__year&#45;1__entry -->
<!-- year_band__year&#45;1__label&#45;&gt;year_band__year&#45;1__entry -->
<!-- year_band__year&#45;2__entry -->
<!-- year_band__year&#45;1__label&#45;&gt;year_band__year&#45;2__entry -->
<!-- year_band__year&#45;1__entry&#45;&gt;course__CHEM101 -->
<!-- year_band__year&#45;1__entry&#45;&gt;course__EOS110 -->
<!-- year_band__year&#45;1__entry&#45;&gt;course__EOS130 -->
<!-- year_band__year&#45;1__entry&#45;&gt;course__GEOG103 -->
<!-- year_band__year&#45;1__entry&#45;&gt;course__MATH100 -->
<!-- year_band__year&#45;1__entry&#45;&gt;course__GEOG101A -->
<!-- year_band__year&#45;1__entry&#45;&gt;course__MATH151 -->
<!-- year_band__year&#45;1__entry&#45;&gt;course__CHEM102 -->
<!-- year_band__year&#45;1__entry&#45;&gt;course__MATH101 -->
<!-- year_band__year&#45;1__entry&#45;&gt;course__PHYS102A -->
<!-- year_band__year&#45;1__entry&#45;&gt;course__BIOL186 -->
<!-- year_band__year&#45;1__entry&#45;&gt;course__CSC110 -->
<!-- year_band__year&#45;1__entry&#45;&gt;course__BIOL150A -->
<!-- year_band__year&#45;1__entry&#45;&gt;course__PHYS102B -->
<!-- year_band__year&#45;1__entry&#45;&gt;course__CHEM091 -->
<!-- year_band__year&#45;1__entry&#45;&gt;year_band__year&#45;1__exit -->
<!-- year_band__year&#45;2__label -->
<g id="node58" class="node">
<title>year_band__year&#45;2__label</title>
<path fill="#eef2f4" stroke="#c8d0d5" stroke-width="0.8" d="M1166,-1102C1166,-1102 1136,-1102 1136,-1102 1130,-1102 1124,-1096 1124,-1090 1124,-1090 1124,-1078 1124,-1078 1124,-1072 1130,-1066 1136,-1066 1136,-1066 1166,-1066 1166,-1066 1172,-1066 1178,-1072 1178,-1078 1178,-1078 1178,-1090 1178,-1090 1178,-1096 1172,-1102 1166,-1102"/>
<text text-anchor="middle" x="1151" y="-1080.6" font-family="Avenir Next" font-size="13.00" fill="#4e5f68">Year 2</text>
</g>
<!-- year_band__year&#45;1__exit&#45;&gt;year_band__year&#45;2__label -->
<!-- year_band__year&#45;2__label&#45;&gt;year_band__year&#45;2__entry -->
<!-- year_band__years&#45;3&#45;4__entry -->
<!-- year_band__year&#45;2__label&#45;&gt;year_band__years&#45;3&#45;4__entry -->
<!-- year_band__year&#45;2__entry&#45;&gt;course__EOS220 -->
<!-- year_band__year&#45;2__entry&#45;&gt;course__ES200 -->
<!-- year_band__year&#45;2__entry&#45;&gt;course__GEOG222 -->
<!-- year_band__year&#45;2__entry&#45;&gt;course__GEOG228 -->
<!-- year_band__year&#45;2__entry&#45;&gt;course__GEOG226 -->
<!-- year_band__year&#45;2__entry&#45;&gt;course__EOS230 -->
<!-- year_band__year&#45;2__entry&#45;&gt;course__GEOG209 -->
<!-- year_band__year&#45;2__entry&#45;&gt;course__GEOG272 -->
<!-- year_band__year&#45;2__entry&#45;&gt;course__STAT254 -->
<!-- year_band__year&#45;2__entry&#45;&gt;course__CIVE210 -->
<!-- year_band__year&#45;2__entry&#45;&gt;year_band__year&#45;2__exit -->
<!-- year_band__years&#45;3&#45;4__label -->
<g id="node61" class="node">
<title>year_band__years&#45;3&#45;4__label</title>
<path fill="#eef2f4" stroke="#c8d0d5" stroke-width="0.8" d="M2118,-1205C2118,-1205 2054,-1205 2054,-1205 2048,-1205 2042,-1199 2042,-1193 2042,-1193 2042,-1181 2042,-1181 2042,-1175 2048,-1169 2054,-1169 2054,-1169 2118,-1169 2118,-1169 2124,-1169 2130,-1175 2130,-1181 2130,-1181 2130,-1193 2130,-1193 2130,-1199 2124,-1205 2118,-1205"/>
<text text-anchor="middle" x="2086" y="-1183.6" font-family="Avenir Next" font-size="13.00" fill="#4e5f68">Years 3 + 4</text>
</g>
<!-- year_band__year&#45;2__exit&#45;&gt;year_band__years&#45;3&#45;4__label -->
<!-- year_band__years&#45;3&#45;4__label&#45;&gt;year_band__years&#45;3&#45;4__entry -->
<!-- year_band__years&#45;3&#45;4__entry&#45;&gt;course__ADMN311 -->
<!-- year_band__years&#45;3&#45;4__entry&#45;&gt;course__ADMN316 -->
<!-- year_band__years&#45;3&#45;4__entry&#45;&gt;course__ANTH302 -->
<!-- year_band__years&#45;3&#45;4__entry&#45;&gt;course__CIVE411 -->
<!-- year_band__years&#45;3&#45;4__entry&#45;&gt;course__EOS365 -->
<!-- year_band__years&#45;3&#45;4__entry&#45;&gt;course__ES314 -->
<!-- year_band__years&#45;3&#45;4__entry&#45;&gt;course__GEOG314 -->
<!-- year_band__years&#45;3&#45;4__entry&#45;&gt;course__POLI351 -->
<!-- year_band__years&#45;3&#45;4__entry&#45;&gt;course__ADMN420 -->
<!-- year_band__years&#45;3&#45;4__entry&#45;&gt;course__ES301 -->
<!-- year_band__years&#45;3&#45;4__entry&#45;&gt;course__GEOG323 -->
<!-- year_band__years&#45;3&#45;4__entry&#45;&gt;course__GEOG328 -->
<!-- year_band__years&#45;3&#45;4__entry&#45;&gt;course__ES405 -->
<!-- year_band__years&#45;3&#45;4__entry&#45;&gt;course__GEOG301 -->
<!-- year_band__years&#45;3&#45;4__entry&#45;&gt;course__GEOG313 -->
<!-- year_band__years&#45;3&#45;4__entry&#45;&gt;course__GEOG371 -->
<!-- year_band__years&#45;3&#45;4__entry&#45;&gt;course__GEOG373 -->
<!-- year_band__years&#45;3&#45;4__entry&#45;&gt;course__ECON383 -->
<!-- year_band__years&#45;3&#45;4__entry&#45;&gt;course__EOS314 -->
<!-- year_band__years&#45;3&#45;4__entry&#45;&gt;course__GEOG450 -->
<!-- year_band__years&#45;3&#45;4__entry&#45;&gt;course__GEOG484 -->
<!-- year_band__years&#45;3&#45;4__entry&#45;&gt;course__STAT359 -->
<!-- year_band__years&#45;3&#45;4__entry&#45;&gt;course__EOS340 -->
<!-- year_band__years&#45;3&#45;4__entry&#45;&gt;course__EOS431 -->
<!-- year_band__years&#45;3&#45;4__entry&#45;&gt;course__CIVE315 -->
<!-- year_band__years&#45;3&#45;4__entry&#45;&gt;course__EOS312 -->
<!-- year_band__years&#45;3&#45;4__entry&#45;&gt;course__GEOG370 -->
<!-- year_band__years&#45;3&#45;4__entry&#45;&gt;course__GEOG489 -->
<!-- year_band__years&#45;3&#45;4__entry&#45;&gt;course__GEOG405 -->
<!-- year_band__years&#45;3&#45;4__entry&#45;&gt;year_band__years&#45;3&#45;4__exit -->
<!-- choice_ECON383_0_0&#45;&gt;course__ECON383 -->
<g id="edge124" class="edge">
<title>choice_ECON383_0_0&#45;&gt;course__ECON383</title>
<path fill="none" stroke="#5d6972" stroke-width="1.2" d="M2729.03,-2123.89C2737.44,-2026.9 2779.85,-1568.67 2841,-1442 2846.88,-1429.81 2856.28,-1418.37 2865.42,-1409.05"/>
<polygon fill="#5d6972" stroke="#5d6972" stroke-width="1.2" points="2867.18,-1410.75 2870.44,-1404.09 2863.74,-1407.26 2867.18,-1410.75"/>
</g>
<!-- choice_ECON383_0_0&#45;&gt;course__STAT359 -->
<g id="edge186" class="edge">
<title>choice_ECON383_0_0&#45;&gt;course__STAT359</title>
<path fill="none" stroke="#5d6972" stroke-width="1.2" d="M2728.6,-2123.78C2733.54,-2050.06 2757.25,-1767.68 2841,-1554 2849.16,-1533.19 2862.65,-1511.82 2873.7,-1496.11"/>
<polygon fill="#5d6972" stroke="#5d6972" stroke-width="1.2" points="2875.88,-1497.29 2877.96,-1490.17 2871.89,-1494.44 2875.88,-1497.29"/>
</g>
<!-- choice_EOS230_0_1&#45;&gt;course__EOS230 -->
<g id="edge128" class="edge">
<title>choice_EOS230_0_1&#45;&gt;course__EOS230</title>
<path fill="none" stroke="#5d6972" stroke-width="1.2" d="M520.43,-853.62C542.87,-831.14 584.09,-793.65 627,-774 693.25,-743.65 715.13,-743 788,-743 788,-743 788,-743 1041,-743 1145.61,-743 1189.97,-748.13 1262,-824 1330.47,-896.12 1374.1,-1009.14 1391.02,-1058.97"/>
<polygon fill="#5d6972" stroke="#5d6972" stroke-width="1.2" points="1388.77,-1059.99 1393.32,-1065.85 1393.42,-1058.44 1388.77,-1059.99"/>
</g>
<!-- choice_EOS230_0_1&#45;&gt;course__GEOG272 -->
<g id="edge148" class="edge">
<title>choice_EOS230_0_1&#45;&gt;course__GEOG272</title>
<path fill="none" stroke="#5d6972" stroke-width="1.2" d="M529.35,-858.15C553.96,-845.8 592.05,-828.14 627,-818 696.55,-797.82 715.59,-793 788,-793 788,-793 788,-793 1041,-793 1139.08,-793 1132.15,-879.3 1178,-966 1294.25,-1185.82 1187.98,-1307.17 1345,-1500 1349.62,-1505.68 1355.62,-1510.46 1361.93,-1514.42"/>
<polygon fill="#5d6972" stroke="#5d6972" stroke-width="1.2" points="1361.01,-1516.72 1368.3,-1518.11 1363.47,-1512.48 1361.01,-1516.72"/>
</g>
<!-- choice_GEOG209_0 -->
<g id="node69" class="node">
<title>choice_GEOG209_0</title>
<path fill="#fff7ee" stroke="#b7793f" stroke-width="1.1" d="M681,-866C681,-866 651,-866 651,-866 645,-866 639,-860 639,-854 639,-854 639,-842 639,-842 639,-836 645,-830 651,-830 651,-830 681,-830 681,-830 687,-830 693,-836 693,-842 693,-842 693,-854 693,-854 693,-860 687,-866 681,-866"/>
<text text-anchor="middle" x="666" y="-845.8" font-family="Avenir Next" font-size="9.00">1 of</text>
</g>
<!-- choice_EOS230_0_1&#45;&gt;choice_GEOG209_0 -->
<g id="edge146" class="edge">
<title>choice_EOS230_0_1&#45;&gt;choice_GEOG209_0</title>
<path fill="none" stroke="#7a8389" d="M529.03,-868.14C556.93,-864.01 601.32,-857.43 631.74,-852.93"/>
<polygon fill="#7a8389" stroke="#7a8389" points="632.2,-855.34 638.77,-851.89 631.48,-850.49 632.2,-855.34"/>
</g>
<!-- choice_EOS312_0_0&#45;&gt;course__EOS312 -->
<g id="edge132" class="edge">
<title>choice_EOS312_0_0&#45;&gt;course__EOS312</title>
<path fill="none" stroke="#5d6972" stroke-width="1.2" d="M3027.79,-219.53C2944.09,-197.43 2680.89,-141.94 2547,-275 2416.77,-404.42 2503.82,-917.78 2464,-1097 2453.08,-1146.15 2431.75,-1201.05 2418.8,-1232.08"/>
<polygon fill="#5d6972" stroke="#5d6972" stroke-width="1.2" points="2416.47,-1231.29 2416.01,-1238.69 2420.99,-1233.19 2416.47,-1231.29"/>
</g>
<!-- choice_EOS314_0_0&#45;&gt;course__EOS314 -->
<g id="edge137" class="edge">
<title>choice_EOS314_0_0&#45;&gt;course__EOS314</title>
<path fill="none" stroke="#5d6972" stroke-width="1.2" d="M693.06,-1786.22C718.7,-1791.15 758.33,-1800.9 789,-1818 1078.74,-1979.57 1067.74,-2133.85 1345,-2316 1685.13,-2539.45 1832.04,-2514 2239,-2514 2239,-2514 2239,-2514 2580.5,-2514 2661.78,-2514 2704.53,-2531.21 2758,-2470 2870.35,-2341.39 2774.77,-1863.41 2841,-1706 2846.98,-1691.78 2857.33,-1678.26 2867.15,-1667.5"/>
<polygon fill="#5d6972" stroke="#5d6972" stroke-width="1.2" points="2869.18,-1668.91 2872.2,-1662.14 2865.62,-1665.55 2869.18,-1668.91"/>
</g>
<!-- bundle_GEOG209_0_0&#45;&gt;choice_GEOG209_0 -->
<g id="edge145" class="edge">
<title>bundle_GEOG209_0_0&#45;&gt;choice_GEOG209_0</title>
<path fill="none" stroke="#7a8389" d="M507.67,-941.23C525.78,-930.5 592.33,-891.06 632.85,-867.05"/>
<polygon fill="#7a8389" stroke="#7a8389" points="634.1,-869.16 638.87,-863.48 631.6,-864.94 634.1,-869.16"/>
</g>
<!-- choice_GEOG209_0&#45;&gt;course__GEOG209 -->
<g id="edge147" class="edge">
<title>choice_GEOG209_0&#45;&gt;course__GEOG209</title>
<path fill="none" stroke="#5d6972" stroke-width="1.2" d="M693.02,-849.22C779.66,-854.83 1059.64,-885.82 1178,-1054 1314.3,-1247.67 1194.03,-1377.54 1345,-1560 1349.67,-1565.64 1355.68,-1570.4 1362,-1574.36"/>
<polygon fill="#5d6972" stroke="#5d6972" stroke-width="1.2" points="1361.09,-1576.66 1368.37,-1578.05 1363.54,-1572.42 1361.09,-1576.66"/>
</g>
<!-- choice_GEOG370_0_0&#45;&gt;course__GEOG370 -->
<g id="edge158" class="edge">
<title>choice_GEOG370_0_0&#45;&gt;course__GEOG370</title>
<path fill="none" stroke="#5d6972" stroke-width="1.2" d="M2246.58,-1890.99C2271.17,-1811.74 2369.78,-1493.79 2398.26,-1401.96"/>
<polygon fill="#5d6972" stroke="#5d6972" stroke-width="1.2" points="2400.68,-1402.41 2400.42,-1395 2396,-1400.96 2400.68,-1402.41"/>
</g>
<!-- choice_GEOG405_0&#45;&gt;course__GEOG405 -->
<g id="edge165" class="edge">
<title>choice_GEOG405_0&#45;&gt;course__GEOG405</title>
<path fill="none" stroke="#5d6972" stroke-width="1.2" d="M2865.85,-88.51C2802.16,-74.4 2637.59,-48.46 2547,-131 2407.64,-257.97 2576.28,-395.55 2464,-547 2459.02,-553.71 2452.08,-559.08 2444.78,-563.31"/>
<polygon fill="#5d6972" stroke="#5d6972" stroke-width="1.2" points="2443.63,-561.15 2438.6,-566.6 2445.93,-565.48 2443.63,-561.15"/>
</g>
<!-- choice_GEOG450_0&#45;&gt;course__GEOG450 -->
<g id="edge171" class="edge">
<title>choice_GEOG450_0&#45;&gt;course__GEOG450</title>
<path fill="none" stroke="#5d6972" stroke-width="1.2" d="M2865.89,-311.87C2843.69,-319.08 2813.72,-332.82 2799.5,-357 2751.06,-439.37 2749.7,-705.45 2799.5,-787 2811.55,-806.73 2834.57,-818.68 2854.75,-825.73"/>
<polygon fill="#5d6972" stroke="#5d6972" stroke-width="1.2" points="2854.05,-828.08 2861.47,-827.94 2855.58,-823.42 2854.05,-828.08"/>
</g>
<!-- choice_GEOG489_0_1&#45;&gt;course__GEOG489 -->
<g id="edge178" class="edge">
<title>choice_GEOG489_0_1&#45;&gt;course__GEOG489</title>
<path fill="none" stroke="#5d6972" stroke-width="1.2" d="M2890.9,-1754.28C2884.44,-1850.13 2846.45,-2286.05 2695,-2172 2438.39,-1978.75 2554.18,-1053.32 2464,-745 2455.04,-714.37 2437.15,-682.28 2423.99,-661.12"/>
<polygon fill="#5d6972" stroke="#5d6972" stroke-width="1.2" points="2426.06,-659.79 2420.25,-655.18 2421.91,-662.41 2426.06,-659.79"/>
</g>
<!-- choice_GEOG489_0_2&#45;&gt;course__GEOG489 -->
<g id="edge179" class="edge">
<title>choice_GEOG489_0_2&#45;&gt;course__GEOG489</title>
<path fill="none" stroke="#5d6972" stroke-width="1.2" d="M2561.95,-323.15C2556.62,-329.69 2551.05,-337.34 2547,-345 2489.84,-452.95 2542.02,-513.02 2464,-607 2458.88,-613.17 2452.14,-618.26 2445.13,-622.38"/>
<polygon fill="#5d6972" stroke="#5d6972" stroke-width="1.2" points="2443.63,-620.4 2438.65,-625.89 2445.97,-624.71 2443.63,-620.4"/>
</g>
</g>
</svg>
