<?xml version="1.0" encoding="UTF-8" standalone="no"?>
<!DOCTYPE svg PUBLIC "-//W3C//DTD SVG 1.1//EN"
 "http://www.w3.org/Graphics/SVG/1.1/DTD/svg11.dtd">
<!-- Generated by graphviz version 2.43.0 (0)
 -->
<!-- Title: BSC&#45;GOSC Pages: 1 -->
<svg width="3233pt" height="3011pt"
 viewBox="0.00 0.00 3232.52 3011.11" xmlns="http://www.w3.org/2000/svg" xmlns:xlink="http://www.w3.org/1999/xlink">
<g id="graph0" class="graph" transform="scale(1 1) rotate(0) translate(32.4 2978.71)">
<title>BSC&#45;GOSC</title>
<g id="clust1" class="cluster">
<title>cluster_year&#45;1</title>
<path fill="#fbfcfd" stroke="#d8dde1" stroke-width="1.2" d="M20,-1951C20,-1951 872.86,-1951 872.86,-1951 878.86,-1951 884.86,-1957 884.86,-1963 884.86,-1963 884.86,-2659 884.86,-2659 884.86,-2665 878.86,-2671 872.86,-2671 872.86,-2671 20,-2671 20,-2671 14,-2671 8,-2665 8,-2659 8,-2659 8,-1963 8,-1963 8,-1957 14,-1951 20,-1951"/>
</g>
<g id="clust5" class="cluster">
<title>cluster_year&#45;2</title>
<path fill="#fbfcfd" stroke="#d8dde1" stroke-width="1.2" d="M1092,-1241C1092,-1241 2021.86,-1241 2021.86,-1241 2027.86,-1241 2033.86,-1247 2033.86,-1253 2033.86,-1253 2033.86,-2017 2033.86,-2017 2033.86,-2023 2027.86,-2029 2021.86,-2029 2021.86,-2029 1092,-2029 1092,-2029 1086,-2029 1080,-2023 1080,-2017 1080,-2017 1080,-1253 1080,-1253 1080,-1247 1086,-1241 1092,-1241"/>
</g>
<g id="clust11" class="cluster">
<title>cluster_years&#45;3&#45;4</title>
<path fill="#fbfcfd" stroke="#d8dde1" stroke-width="1.2" d="M2241,-1429C2241,-1429 3147.72,-1429 3147.72,-1429 3153.72,-1429 3159.72,-1435 3159.72,-1441 3159.72,-1441 3159.72,-2533 3159.72,-2533 3159.72,-2539 3153.72,-2545 3147.72,-2545 3147.72,-2545 2241,-2545 2241,-2545 2235,-2545 2229,-2539 2229,-2533 2229,-2533 2229,-1441 2229,-1441 2229,-1435 2235,-1429 2241,-1429"/>
</g>
<!-- course__CHEM101 -->
<g id="node1" class="node">
<title>course__CHEM101</title>
<g id="a_node1"><a xlink:href="../../../courses/CHEM101.html" xlink:title="Equivalent or cross&#45;listed: CHEM101: Fundamentals of Chemistry from Atoms to Materials | CHEM150: Engineering Chemistry" target="_top">
<path fill="#d7e9ef" stroke="#1f4f66" stroke-width="1.6" d="M365,-2411C365,-2411 269,-2411 269,-2411 263,-2411 257,-2405 257,-2399 257,-2399 257,-2387 257,-2387 257,-2381 263,-2375 269,-2375 269,-2375 365,-2375 365,-2375 371,-2375 377,-2381 377,-2387 377,-2387 377,-2399 377,-2399 377,-2405 371,-2411 365,-2411"/>
<text text-anchor="middle" x="317" y="-2390.5" font-family="Avenir Next" font-size="10.00" fill="#17232b">CHEM101 / CHEM150</text>
</a>
</g>
</g>
<!-- course__CHEM102 -->
<g id="node7" class="node">
<title>course__CHEM102</title>
<g id="a_node7"><a xlink:href="../../../courses/CHEM102.html" xlink:title="CHEM102: Chemical Reactivity Fundamentals with Environmental Applications" target="_top">
<path fill="#d7e9ef" stroke="#1f4f66" stroke-width="1.6" d="M522,-2281C522,-2281 482,-2281 482,-2281 476,-2281 470,-2275 470,-2269 470,-2269 470,-2257 470,-2257 470,-2251 476,-2245 482,-2245 482,-2245 522,-2245 522,-2245 528,-2245 534,-2251 534,-2257 534,-2257 534,-2269 534,-2269 534,-2275 528,-2281 522,-2281"/>
<text text-anchor="middle" x="502" y="-2260.5" font-family="Avenir Next" font-size="10.00" fill="#17232b">CHEM102</text>
</a>
</g>
</g>
<!-- course__CHEM101&#45;&gt;course__CHEM102 -->
<g id="edge108" class="edge">
<title>course__CHEM101&#45;&gt;course__CHEM102</title>
<path fill="none" stroke="#5d6972" stroke-width="1.2" d="M343.45,-2374.92C376.4,-2351.51 433.84,-2310.71 469.51,-2285.37"/>
<polygon fill="#5d6972" stroke="#5d6972" stroke-width="1.2" points="471.19,-2287.18 475.48,-2281.13 468.35,-2283.19 471.19,-2287.18"/>
</g>
<!-- year_band__year&#45;1__exit -->
<!-- course__CHEM101&#45;&gt;year_band__year&#45;1__exit -->
<!-- course__EOS110 -->
<g id="node2" class="node">
<title>course__EOS110</title>
<g id="a_node2"><a xlink:href="../../../courses/EOS110.html" xlink:title="Equivalent or cross&#45;listed: EOS110: Oceans and Atmosphere | EOS350: Understanding the Oceans" target="_top">
<path fill="#d7e9ef" stroke="#1f4f66" stroke-width="1.6" d="M355.5,-2153C355.5,-2153 278.5,-2153 278.5,-2153 272.5,-2153 266.5,-2147 266.5,-2141 266.5,-2141 266.5,-2129 266.5,-2129 266.5,-2123 272.5,-2117 278.5,-2117 278.5,-2117 355.5,-2117 355.5,-2117 361.5,-2117 367.5,-2123 367.5,-2129 367.5,-2129 367.5,-2141 367.5,-2141 367.5,-2147 361.5,-2153 355.5,-2153"/>
<text text-anchor="middle" x="317" y="-2132.5" font-family="Avenir Next" font-size="10.00" fill="#17232b">EOS110 / EOS350</text>
</a>
</g>
</g>
<!-- course__EOS230 -->
<g id="node15" class="node">
<title>course__EOS230</title>
<g id="a_node15"><a xlink:href="../../../courses/EOS230.html" xlink:title="Equivalent or cross&#45;listed: EOS230: Introduction to Environmental Data Analysis | GEOG230: Introduction to Environmental Data Analysis" target="_top">
<path fill="#f9f9f9" stroke="#363636" d="M1430,-1545C1430,-1545 1347,-1545 1347,-1545 1341,-1545 1335,-1539 1335,-1533 1335,-1533 1335,-1521 1335,-1521 1335,-1515 1341,-1509 1347,-1509 1347,-1509 1430,-1509 1430,-1509 1436,-1509 1442,-1515 1442,-1521 1442,-1521 1442,-1533 1442,-1533 1442,-1539 1436,-1545 1430,-1545"/>
<text text-anchor="middle" x="1388.5" y="-1524.8" font-family="Avenir Next" font-size="9.00" fill="#363636">EOS230 / GEOG230</text>
</a>
</g>
</g>
<!-- course__EOS110&#45;&gt;course__EOS230 -->
<g id="edge118" class="edge">
<title>course__EOS110&#45;&gt;course__EOS230</title>
<path fill="none" stroke="#5d6972" stroke-width="1.2" d="M321.61,-2116.75C345.4,-1998.89 484.24,-1350 657,-1350 657,-1350 657,-1350 1136,-1350 1243.83,-1350 1237.78,-1439.51 1329,-1497 1333.62,-1499.91 1338.55,-1502.78 1343.52,-1505.52"/>
<polygon fill="#5d6972" stroke="#5d6972" stroke-width="1.2" points="1342.49,-1507.75 1349.81,-1508.92 1344.82,-1503.44 1342.49,-1507.75"/>
</g>
<!-- course__GEOG272 -->
<g id="node16" class="node">
<title>course__GEOG272</title>
<g id="a_node16"><a xlink:href="../../../courses/GEOG272.html" xlink:title="GEOG272: Climatology and Hydrology" target="_top">
<path fill="#f9f9f9" stroke="#363636" d="M1407,-1305C1407,-1305 1370,-1305 1370,-1305 1364,-1305 1358,-1299 1358,-1293 1358,-1293 1358,-1281 1358,-1281 1358,-1275 1364,-1269 1370,-1269 1370,-1269 1407,-1269 1407,-1269 1413,-1269 1419,-1275 1419,-1281 1419,-1281 1419,-1293 1419,-1293 1419,-1299 1413,-1305 1407,-1305"/>
<text text-anchor="middle" x="1388.5" y="-1284.8" font-family="Avenir Next" font-size="9.00" fill="#363636">GEOG272</text>
</a>
</g>
</g>
<!-- course__EOS110&#45;&gt;course__GEOG272 -->
<g id="edge154" class="edge">
<title>course__EOS110&#45;&gt;course__GEOG272</title>
<path fill="none" stroke="#5d6972" stroke-width="1.2" d="M317.89,-2116.78C318.16,-2033.52 327.46,-1682.85 460,-1441 518.61,-1334.06 535.05,-1250 657,-1250 657,-1250 657,-1250 1136,-1250 1213.19,-1250 1302.3,-1267.27 1351.01,-1278.21"/>
<polygon fill="#5d6972" stroke="#5d6972" stroke-width="1.2" points="1350.53,-1280.62 1357.9,-1279.78 1351.61,-1275.84 1350.53,-1280.62"/>
</g>
<!-- course__EOS261 -->
<g id="node25" class="node">
<title>course__EOS261</title>
<g id="a_node25"><a xlink:href="../../../courses/EOS261.html" xlink:title="EOS261: The Climate System" target="_top">
<path fill="#f9f9f9" stroke="#363636" d="M1577.5,-1949C1577.5,-1949 1547.5,-1949 1547.5,-1949 1541.5,-1949 1535.5,-1943 1535.5,-1937 1535.5,-1937 1535.5,-1925 1535.5,-1925 1535.5,-1919 1541.5,-1913 1547.5,-1913 1547.5,-1913 1577.5,-1913 1577.5,-1913 1583.5,-1913 1589.5,-1919 1589.5,-1925 1589.5,-1925 1589.5,-1937 1589.5,-1937 1589.5,-1943 1583.5,-1949 1577.5,-1949"/>
<text text-anchor="middle" x="1562.5" y="-1928.8" font-family="Avenir Next" font-size="9.00" fill="#363636">EOS261</text>
</a>
</g>
</g>
<!-- course__EOS110&#45;&gt;course__EOS261 -->
<g id="edge120" class="edge">
<title>course__EOS110&#45;&gt;course__EOS261</title>
<path fill="none" stroke="#5d6972" stroke-width="1.2" d="M319.44,-2116.75C334.57,-1928.67 467.15,-350 657,-350 657,-350 657,-350 1246,-350 1573.73,-350 1469.7,-1475.05 1531,-1797 1538.26,-1835.13 1548.61,-1878.92 1555.19,-1905.77"/>
<polygon fill="#5d6972" stroke="#5d6972" stroke-width="1.2" points="1552.89,-1906.67 1556.94,-1912.88 1557.65,-1905.5 1552.89,-1906.67"/>
</g>
<!-- course__EOS110&#45;&gt;year_band__year&#45;1__exit -->
<!-- course__EOS120 -->
<g id="node3" class="node">
<title>course__EOS120</title>
<g id="a_node3"><a xlink:href="../../../courses/EOS120.html" xlink:title="EOS120: The Dynamic Earth" target="_top">
<path fill="#d7e9ef" stroke="#1f4f66" stroke-width="1.6" d="M332,-2213C332,-2213 302,-2213 302,-2213 296,-2213 290,-2207 290,-2201 290,-2201 290,-2189 290,-2189 290,-2183 296,-2177 302,-2177 302,-2177 332,-2177 332,-2177 338,-2177 344,-2183 344,-2189 344,-2189 344,-2201 344,-2201 344,-2207 338,-2213 332,-2213"/>
<text text-anchor="middle" x="317" y="-2192.5" font-family="Avenir Next" font-size="10.00" fill="#17232b">EOS120</text>
</a>
</g>
</g>
<!-- course__EOS202 -->
<g id="node14" class="node">
<title>course__EOS202</title>
<g id="a_node14"><a xlink:href="../../../courses/EOS202.html" xlink:title="EOS202: Structural Geology" target="_top">
<path fill="#d7e9ef" stroke="#1f4f66" stroke-width="1.6" d="M1403.5,-1485C1403.5,-1485 1373.5,-1485 1373.5,-1485 1367.5,-1485 1361.5,-1479 1361.5,-1473 1361.5,-1473 1361.5,-1461 1361.5,-1461 1361.5,-1455 1367.5,-1449 1373.5,-1449 1373.5,-1449 1403.5,-1449 1403.5,-1449 1409.5,-1449 1415.5,-1455 1415.5,-1461 1415.5,-1461 1415.5,-1473 1415.5,-1473 1415.5,-1479 1409.5,-1485 1403.5,-1485"/>
<text text-anchor="middle" x="1388.5" y="-1464.5" font-family="Avenir Next" font-size="10.00" fill="#17232b">EOS202</text>
</a>
</g>
</g>
<!-- course__EOS120&#45;&gt;course__EOS202 -->
<g id="edge113" class="edge">
<title>course__EOS120&#45;&gt;course__EOS202</title>
<path fill="none" stroke="#5d6972" stroke-width="1.2" d="M344.26,-2186.56C355.61,-2181.78 368.27,-2174.76 377,-2165 446.96,-2086.8 413.86,-2038.23 460,-1944 607.75,-1642.22 520,-1300 856,-1300 856,-1300 856,-1300 1136,-1300 1241.19,-1300 1239.08,-1382.41 1329,-1437 1337.24,-1442 1346.41,-1446.97 1355,-1451.38"/>
<polygon fill="#5d6972" stroke="#5d6972" stroke-width="1.2" points="1354.08,-1453.66 1361.44,-1454.64 1356.3,-1449.29 1354.08,-1453.66"/>
</g>
<!-- course__EOS205 -->
<g id="node18" class="node">
<title>course__EOS205</title>
<g id="a_node18"><a xlink:href="../../../courses/EOS205.html" xlink:title="EOS205: Mineralogy" target="_top">
<path fill="#d7e9ef" stroke="#1f4f66" stroke-width="1.6" d="M1403.5,-1605C1403.5,-1605 1373.5,-1605 1373.5,-1605 1367.5,-1605 1361.5,-1599 1361.5,-1593 1361.5,-1593 1361.5,-1581 1361.5,-1581 1361.5,-1575 1367.5,-1569 1373.5,-1569 1373.5,-1569 1403.5,-1569 1403.5,-1569 1409.5,-1569 1415.5,-1575 1415.5,-1581 1415.5,-1581 1415.5,-1593 1415.5,-1593 1415.5,-1599 1409.5,-1605 1403.5,-1605"/>
<text text-anchor="middle" x="1388.5" y="-1584.5" font-family="Avenir Next" font-size="10.00" fill="#17232b">EOS205</text>
</a>
</g>
</g>
<!-- course__EOS120&#45;&gt;course__EOS205 -->
<g id="edge114" class="edge">
<title>course__EOS120&#45;&gt;course__EOS205</title>
<path fill="none" stroke="#5d6972" stroke-width="1.2" d="M344.17,-2185.19C355.12,-2180.25 367.47,-2173.48 377,-2165 426.8,-2120.65 417.61,-2091.48 460,-2040 526.32,-1959.45 551.15,-1946.65 627,-1875 653.99,-1849.5 664.65,-1847.03 689,-1819 775.91,-1718.97 763.51,-1666.9 856,-1572 888.02,-1539.14 896.31,-1526 940,-1512 1090.55,-1463.75 1280.08,-1537.25 1354.95,-1571.25"/>
<polygon fill="#5d6972" stroke="#5d6972" stroke-width="1.2" points="1354.02,-1573.53 1361.41,-1574.22 1356.07,-1569.07 1354.02,-1573.53"/>
</g>
<!-- course__EOS120&#45;&gt;year_band__year&#45;1__exit -->
<!-- course__GEOG101A -->
<g id="node4" class="node">
<title>course__GEOG101A</title>
<g id="a_node4"><a xlink:href="../../../courses/GEOG101A.html" xlink:title="GEOG101A: Environment, Society and Sustainability" target="_top">
<path fill="#ead9b8" stroke="#8f6a3b" stroke-width="1.3" d="M340,-2497C340,-2497 294,-2497 294,-2497 288,-2497 282,-2491 282,-2485 282,-2485 282,-2473 282,-2473 282,-2467 288,-2461 294,-2461 294,-2461 340,-2461 340,-2461 346,-2461 352,-2467 352,-2473 352,-2473 352,-2485 352,-2485 352,-2491 346,-2497 340,-2497"/>
<text text-anchor="middle" x="317" y="-2476.5" font-family="Avenir Next" font-size="10.00" fill="#3f3120">GEOG101A</text>
</a>
</g>
</g>
<!-- course__GEOG101A&#45;&gt;year_band__year&#45;1__exit -->
<!-- course__GEOG104 -->
<g id="node5" class="node">
<title>course__GEOG104</title>
<g id="a_node5"><a xlink:href="../../../courses/GEOG104.html" xlink:title="GEOG104: Our Digital Earth" target="_top">
<path fill="#ead9b8" stroke="#8f6a3b" stroke-width="1.3" d="M336.5,-2557C336.5,-2557 297.5,-2557 297.5,-2557 291.5,-2557 285.5,-2551 285.5,-2545 285.5,-2545 285.5,-2533 285.5,-2533 285.5,-2527 291.5,-2521 297.5,-2521 297.5,-2521 336.5,-2521 336.5,-2521 342.5,-2521 348.5,-2527 348.5,-2533 348.5,-2533 348.5,-2545 348.5,-2545 348.5,-2551 342.5,-2557 336.5,-2557"/>
<text text-anchor="middle" x="317" y="-2536.5" font-family="Avenir Next" font-size="10.00" fill="#3f3120">GEOG104</text>
</a>
</g>
</g>
<!-- course__GEOG104&#45;&gt;year_band__year&#45;1__exit -->
<!-- course__MATH100 -->
<g id="node6" class="node">
<title>course__MATH100</title>
<g id="a_node6"><a xlink:href="../../../courses/MATH100.html" xlink:title="Collapsed in simplified view: MATH100: Calculus I | MATH102: Calculus for Students in the Social and Biological Sciences | MATH109: Introduction to Calculus" target="_top">
<path fill="#d7e9ef" stroke="#1f4f66" stroke-width="1.6" d="M337,-2325C337,-2325 297,-2325 297,-2325 291,-2325 285,-2319 285,-2313 285,-2313 285,-2301 285,-2301 285,-2295 291,-2289 297,-2289 297,-2289 337,-2289 337,-2289 343,-2289 349,-2295 349,-2301 349,-2301 349,-2313 349,-2313 349,-2319 343,-2325 337,-2325"/>
<text text-anchor="middle" x="317" y="-2304.5" font-family="Avenir Next" font-size="10.00" fill="#17232b">Calculus I</text>
</a>
</g>
</g>
<!-- course__MATH100&#45;&gt;course__CHEM102 -->
<g id="edge109" class="edge">
<title>course__MATH100&#45;&gt;course__CHEM102</title>
<path fill="none" stroke="#5d6972" stroke-width="1.2" d="M349.04,-2299.54C380.46,-2291.98 429.09,-2280.29 462.84,-2272.18"/>
<polygon fill="#5d6972" stroke="#5d6972" stroke-width="1.2" points="463.57,-2274.52 469.8,-2270.5 462.43,-2269.76 463.57,-2274.52"/>
</g>
<!-- course__MATH101 -->
<g id="node8" class="node">
<title>course__MATH101</title>
<g id="a_node8"><a xlink:href="../../../courses/MATH101.html" xlink:title="MATH101: Calculus II" target="_top">
<path fill="#d7e9ef" stroke="#1f4f66" stroke-width="1.6" d="M521.5,-2195C521.5,-2195 482.5,-2195 482.5,-2195 476.5,-2195 470.5,-2189 470.5,-2183 470.5,-2183 470.5,-2171 470.5,-2171 470.5,-2165 476.5,-2159 482.5,-2159 482.5,-2159 521.5,-2159 521.5,-2159 527.5,-2159 533.5,-2165 533.5,-2171 533.5,-2171 533.5,-2183 533.5,-2183 533.5,-2189 527.5,-2195 521.5,-2195"/>
<text text-anchor="middle" x="502" y="-2174.5" font-family="Avenir Next" font-size="10.00" fill="#17232b">MATH101</text>
</a>
</g>
</g>
<!-- course__MATH100&#45;&gt;course__MATH101 -->
<g id="edge186" class="edge">
<title>course__MATH100&#45;&gt;course__MATH101</title>
<path fill="none" stroke="#5d6972" stroke-width="1.2" d="M343.45,-2288.92C376.4,-2265.51 433.84,-2224.71 469.51,-2199.37"/>
<polygon fill="#5d6972" stroke="#5d6972" stroke-width="1.2" points="471.19,-2201.18 475.48,-2195.13 468.35,-2197.19 471.19,-2201.18"/>
</g>
<!-- course__PHYS102A -->
<g id="node9" class="node">
<title>course__PHYS102A</title>
<g id="a_node9"><a xlink:href="../../../courses/PHYS102A.html" xlink:title="Collapsed in simplified view: PHYS102A: General Physics I | PHYS110: Introductory Physics I | PHYS120: Physics I" target="_top">
<path fill="#d7e9ef" stroke="#1f4f66" stroke-width="1.6" d="M519.5,-2479C519.5,-2479 484.5,-2479 484.5,-2479 478.5,-2479 472.5,-2473 472.5,-2467 472.5,-2467 472.5,-2455 472.5,-2455 472.5,-2449 478.5,-2443 484.5,-2443 484.5,-2443 519.5,-2443 519.5,-2443 525.5,-2443 531.5,-2449 531.5,-2455 531.5,-2455 531.5,-2467 531.5,-2467 531.5,-2473 525.5,-2479 519.5,-2479"/>
<text text-anchor="middle" x="502" y="-2458.5" font-family="Avenir Next" font-size="10.00" fill="#17232b">Physics I</text>
</a>
</g>
</g>
<!-- course__MATH100&#45;&gt;course__PHYS102A -->
<g id="edge189" class="edge">
<title>course__MATH100&#45;&gt;course__PHYS102A</title>
<path fill="none" stroke="#5d6972" stroke-width="1.2" d="M339.71,-2325.27C373.23,-2353.48 437.52,-2407.58 473.99,-2438.27"/>
<polygon fill="#5d6972" stroke="#5d6972" stroke-width="1.2" points="472.67,-2440.36 479.6,-2442.99 475.82,-2436.61 472.67,-2440.36"/>
</g>
<!-- course__CSC110 -->
<g id="node10" class="node">
<title>course__CSC110</title>
<g id="a_node10"><a xlink:href="../../../courses/CSC110.html" xlink:title="Collapsed in simplified view: CSC110: Fundamentals of Programming I | CSC111: Fundamentals of Programming with Engineering Applications" target="_top">
<path fill="#f9f9f9" stroke="#363636" d="M532,-2393C532,-2393 472,-2393 472,-2393 466,-2393 460,-2387 460,-2381 460,-2381 460,-2369 460,-2369 460,-2363 466,-2357 472,-2357 472,-2357 532,-2357 532,-2357 538,-2357 544,-2363 544,-2369 544,-2369 544,-2381 544,-2381 544,-2387 538,-2393 532,-2393"/>
<text text-anchor="middle" x="502" y="-2372.8" font-family="Avenir Next" font-size="9.00" fill="#363636">Programming I</text>
</a>
</g>
</g>
<!-- course__MATH100&#45;&gt;course__CSC110 -->
<g id="edge111" class="edge">
<title>course__MATH100&#45;&gt;course__CSC110</title>
<path fill="none" stroke="#5d6972" stroke-width="1.2" d="M349.04,-2318.54C377.51,-2329.11 420.1,-2344.94 452.96,-2357.15"/>
<polygon fill="#5d6972" stroke="#5d6972" stroke-width="1.2" points="452.4,-2359.55 459.82,-2359.7 454.11,-2354.96 452.4,-2359.55"/>
</g>
<!-- course__PHYS102B -->
<g id="node11" class="node">
<title>course__PHYS102B</title>
<g id="a_node11"><a xlink:href="../../../courses/PHYS102B.html" xlink:title="Collapsed in simplified view: PHYS102B: General Physics II | PHYS111: Introductory Physics II | PHYS130: Physics II" target="_top">
<path fill="#d7e9ef" stroke="#1f4f66" stroke-width="1.6" d="M677,-2643C677,-2643 639,-2643 639,-2643 633,-2643 627,-2637 627,-2631 627,-2631 627,-2619 627,-2619 627,-2613 633,-2607 639,-2607 639,-2607 677,-2607 677,-2607 683,-2607 689,-2613 689,-2619 689,-2619 689,-2631 689,-2631 689,-2637 683,-2643 677,-2643"/>
<text text-anchor="middle" x="658" y="-2622.5" font-family="Avenir Next" font-size="10.00" fill="#17232b">Physics II</text>
</a>
</g>
</g>
<!-- course__MATH100&#45;&gt;course__PHYS102B -->
<g id="edge191" class="edge">
<title>course__MATH100&#45;&gt;course__PHYS102B</title>
<path fill="none" stroke="#5d6972" stroke-width="1.2" d="M339.39,-2325.07C351.16,-2335.53 365.63,-2349.31 377,-2363 420.33,-2415.15 412.59,-2442.53 460,-2491 508.7,-2540.78 578.54,-2583.04 620.66,-2606.14"/>
<polygon fill="#5d6972" stroke="#5d6972" stroke-width="1.2" points="619.6,-2608.35 626.92,-2609.55 621.94,-2604.05 619.6,-2608.35"/>
</g>
<!-- course__MATH100&#45;&gt;year_band__year&#45;1__exit -->
<!-- choice_EOS314_0_0 -->
<g id="node62" class="node">
<title>choice_EOS314_0_0</title>
<path fill="#fff7ee" stroke="#b7793f" stroke-width="1.1" d="M673,-1923C673,-1923 643,-1923 643,-1923 637,-1923 631,-1917 631,-1911 631,-1911 631,-1899 631,-1899 631,-1893 637,-1887 643,-1887 643,-1887 673,-1887 673,-1887 679,-1887 685,-1893 685,-1899 685,-1899 685,-1911 685,-1911 685,-1917 679,-1923 673,-1923"/>
<text text-anchor="middle" x="658" y="-1902.8" font-family="Avenir Next" font-size="9.00">2 of</text>
</g>
<!-- course__MATH100&#45;&gt;choice_EOS314_0_0 -->
<g id="edge125" class="edge">
<title>course__MATH100&#45;&gt;choice_EOS314_0_0</title>
<path fill="none" stroke="#7a8389" d="M333.22,-2288.95C388.1,-2223.88 575.72,-2001.39 637.27,-1928.4"/>
<polygon fill="#7a8389" stroke="#7a8389" points="639.18,-1929.94 641.82,-1923 635.43,-1926.78 639.18,-1929.94"/>
</g>
<!-- course__CHEM245 -->
<g id="node17" class="node">
<title>course__CHEM245</title>
<g id="a_node17"><a xlink:href="../../../courses/CHEM245.html" xlink:title="CHEM245: Introduction to Thermodynamics" target="_top">
<path fill="#d7e9ef" stroke="#1f4f66" stroke-width="1.6" d="M1408.5,-1897C1408.5,-1897 1368.5,-1897 1368.5,-1897 1362.5,-1897 1356.5,-1891 1356.5,-1885 1356.5,-1885 1356.5,-1873 1356.5,-1873 1356.5,-1867 1362.5,-1861 1368.5,-1861 1368.5,-1861 1408.5,-1861 1408.5,-1861 1414.5,-1861 1420.5,-1867 1420.5,-1873 1420.5,-1873 1420.5,-1885 1420.5,-1885 1420.5,-1891 1414.5,-1897 1408.5,-1897"/>
<text text-anchor="middle" x="1388.5" y="-1876.5" font-family="Avenir Next" font-size="10.00" fill="#17232b">CHEM245</text>
</a>
</g>
</g>
<!-- course__CHEM102&#45;&gt;course__CHEM245 -->
<g id="edge110" class="edge">
<title>course__CHEM102&#45;&gt;course__CHEM245</title>
<path fill="none" stroke="#5d6972" stroke-width="1.2" d="M532.24,-2245C596.87,-2204.98 756.3,-2104.98 884.86,-2014 1049.47,-1897.51 1054.02,-1802.76 1245,-1738 1295.3,-1720.94 1291.26,-1785.63 1329,-1823 1339.98,-1833.87 1352.3,-1845.72 1362.8,-1855.71"/>
<polygon fill="#5d6972" stroke="#5d6972" stroke-width="1.2" points="1361.35,-1857.71 1368.11,-1860.75 1364.72,-1854.15 1361.35,-1857.71"/>
</g>
<!-- course__CHEM102&#45;&gt;course__EOS205 -->
<g id="edge115" class="edge">
<title>course__CHEM102&#45;&gt;course__EOS205</title>
<path fill="none" stroke="#5d6972" stroke-width="1.2" d="M516.43,-2244.94C524.5,-2234.02 534.94,-2219.77 544,-2207 588.95,-2143.66 886.65,-1687.44 940,-1631 972.43,-1596.69 983.31,-1589.93 1024,-1566 1109.58,-1515.66 1147.93,-1525.46 1246,-1541 1284.38,-1547.08 1326.52,-1561.9 1354.74,-1573.09"/>
<polygon fill="#5d6972" stroke="#5d6972" stroke-width="1.2" points="1353.84,-1575.37 1361.25,-1575.7 1355.67,-1570.82 1353.84,-1575.37"/>
</g>
<!-- course__CHEM102&#45;&gt;course__EOS261 -->
<g id="edge121" class="edge">
<title>course__CHEM102&#45;&gt;course__EOS261</title>
<path fill="none" stroke="#5d6972" stroke-width="1.2" d="M534.11,-2253.24C688.38,-2204.85 1370.34,-1990.96 1528.61,-1941.32"/>
<polygon fill="#5d6972" stroke="#5d6972" stroke-width="1.2" points="1529.37,-1943.64 1535.32,-1939.21 1527.91,-1938.97 1529.37,-1943.64"/>
</g>
<!-- course__CHEM102&#45;&gt;year_band__year&#45;1__exit -->
<!-- course__MATH101&#45;&gt;course__PHYS102B -->
<g id="edge192" class="edge">
<title>course__MATH101&#45;&gt;course__PHYS102B</title>
<path fill="none" stroke="#5d6972" stroke-width="1.2" d="M518.8,-2195.11C527.27,-2205.59 537.31,-2219.37 544,-2233 607.88,-2363.14 641.85,-2535.76 652.9,-2599.74"/>
<polygon fill="#5d6972" stroke="#5d6972" stroke-width="1.2" points="650.54,-2600.51 654.13,-2607 655.37,-2599.69 650.54,-2600.51"/>
</g>
<!-- course__EOS210 -->
<g id="node19" class="node">
<title>course__EOS210</title>
<g id="a_node19"><a xlink:href="../../../courses/EOS210.html" xlink:title="Collapsed in simplified view: EOS210: Introductory Geophysics | PHYS210: Introductory Geophysics" target="_top">
<path fill="#d7e9ef" stroke="#1f4f66" stroke-width="1.6" d="M1425,-1725C1425,-1725 1352,-1725 1352,-1725 1346,-1725 1340,-1719 1340,-1713 1340,-1713 1340,-1701 1340,-1701 1340,-1695 1346,-1689 1352,-1689 1352,-1689 1425,-1689 1425,-1689 1431,-1689 1437,-1695 1437,-1701 1437,-1701 1437,-1713 1437,-1713 1437,-1719 1431,-1725 1425,-1725"/>
<text text-anchor="middle" x="1388.5" y="-1704.5" font-family="Avenir Next" font-size="10.00" fill="#17232b">Intro geophysics</text>
</a>
</g>
</g>
<!-- course__MATH101&#45;&gt;course__EOS210 -->
<g id="edge116" class="edge">
<title>course__MATH101&#45;&gt;course__EOS210</title>
<path fill="none" stroke="#5d6972" stroke-width="1.2" d="M516.82,-2158.69C538.66,-2130.29 583.21,-2074.56 627,-2033 686.52,-1976.51 719.02,-1981.79 773,-1920 870.6,-1808.28 826.05,-1725.99 940,-1631 1045.85,-1542.76 1120.68,-1523.69 1246,-1581 1297.29,-1604.46 1284.65,-1642.16 1329,-1677 1332.74,-1679.94 1336.81,-1682.71 1341.01,-1685.3"/>
<polygon fill="#5d6972" stroke="#5d6972" stroke-width="1.2" points="1339.94,-1687.52 1347.22,-1688.96 1342.43,-1683.3 1339.94,-1687.52"/>
</g>
<!-- course__MATH200 -->
<g id="node20" class="node">
<title>course__MATH200</title>
<g id="a_node20"><a xlink:href="../../../courses/MATH200.html" xlink:title="Equivalent or cross&#45;listed: MATH200: Calculus III | MATH202: Intermediate Calculus for CSC and EOS" target="_top">
<path fill="#d7e9ef" stroke="#1f4f66" stroke-width="1.6" d="M1436,-1665C1436,-1665 1341,-1665 1341,-1665 1335,-1665 1329,-1659 1329,-1653 1329,-1653 1329,-1641 1329,-1641 1329,-1635 1335,-1629 1341,-1629 1341,-1629 1436,-1629 1436,-1629 1442,-1629 1448,-1635 1448,-1641 1448,-1641 1448,-1653 1448,-1653 1448,-1659 1442,-1665 1436,-1665"/>
<text text-anchor="middle" x="1388.5" y="-1644.5" font-family="Avenir Next" font-size="10.00" fill="#17232b">MATH200 / MATH202</text>
</a>
</g>
</g>
<!-- course__MATH101&#45;&gt;course__MATH200 -->
<g id="edge187" class="edge">
<title>course__MATH101&#45;&gt;course__MATH200</title>
<path fill="none" stroke="#5d6972" stroke-width="1.2" d="M513.92,-2158.8C541.5,-2112.92 612.81,-1995.16 627,-1980 650.27,-1955.14 663.55,-1957.62 689,-1935 730.14,-1898.43 741.2,-1888.93 773,-1844 882.33,-1689.51 834.74,-1500 1024,-1500 1024,-1500 1024,-1500 1136,-1500 1236.31,-1500 1241.43,-1568.08 1329,-1617 1334.16,-1619.88 1339.62,-1622.82 1345.05,-1625.68"/>
<polygon fill="#5d6972" stroke="#5d6972" stroke-width="1.2" points="1344.06,-1627.93 1351.4,-1629 1346.33,-1623.58 1344.06,-1627.93"/>
</g>
<!-- course__STAT254 -->
<g id="node21" class="node">
<title>course__STAT254</title>
<g id="a_node21"><a xlink:href="../../../courses/STAT254.html" xlink:title="Collapsed in simplified view: STAT254: Probability and Statistics for Engineers | STAT255: Statistics for Life Sciences I | STAT260: Introduction to Probability and Statistics I" target="_top">
<path fill="#dbe8d2" stroke="#567447" stroke-width="1.3" d="M1419.5,-1811C1419.5,-1811 1357.5,-1811 1357.5,-1811 1351.5,-1811 1345.5,-1805 1345.5,-1799 1345.5,-1799 1345.5,-1787 1345.5,-1787 1345.5,-1781 1351.5,-1775 1357.5,-1775 1357.5,-1775 1419.5,-1775 1419.5,-1775 1425.5,-1775 1431.5,-1781 1431.5,-1787 1431.5,-1787 1431.5,-1799 1431.5,-1799 1431.5,-1805 1425.5,-1811 1419.5,-1811"/>
<text text-anchor="middle" x="1388.5" y="-1790.5" font-family="Avenir Next" font-size="10.00" fill="#24311e">Intro statistics</text>
</a>
</g>
</g>
<!-- course__MATH101&#45;&gt;course__STAT254 -->
<g id="edge196" class="edge">
<title>course__MATH101&#45;&gt;course__STAT254</title>
<path fill="none" stroke="#5d6972" stroke-width="1.2" d="M527.19,-2158.94C628.64,-2083.3 1017.55,-1794.61 1080,-1767 1149.05,-1736.47 1172.11,-1715.52 1246,-1731 1283.06,-1738.76 1322.28,-1756.82 1350.01,-1771.46"/>
<polygon fill="#5d6972" stroke="#5d6972" stroke-width="1.2" points="1349.12,-1773.76 1356.45,-1774.9 1351.43,-1769.44 1349.12,-1773.76"/>
</g>
<!-- course__MATH101&#45;&gt;year_band__year&#45;1__exit -->
<!-- course__MATH101&#45;&gt;choice_EOS314_0_0 -->
<g id="edge126" class="edge">
<title>course__MATH101&#45;&gt;choice_EOS314_0_0</title>
<path fill="none" stroke="#7a8389" d="M511.59,-2158.72C530.57,-2118.83 578.3,-2021.46 627,-1945 630.35,-1939.74 634.19,-1934.28 637.97,-1929.14"/>
<polygon fill="#7a8389" stroke="#7a8389" points="640.11,-1930.37 642.35,-1923.3 636.19,-1927.43 640.11,-1930.37"/>
</g>
<!-- course__PHYS102A&#45;&gt;course__PHYS102B -->
<g id="edge190" class="edge">
<title>course__PHYS102A&#45;&gt;course__PHYS102B</title>
<path fill="none" stroke="#5d6972" stroke-width="1.2" d="M520.07,-2479.18C548.05,-2508.98 603.67,-2568.21 634.72,-2601.28"/>
<polygon fill="#5d6972" stroke="#5d6972" stroke-width="1.2" points="633.28,-2603.32 639.85,-2606.74 636.85,-2599.96 633.28,-2603.32"/>
</g>
<!-- course__PHYS102A&#45;&gt;course__EOS210 -->
<g id="edge117" class="edge">
<title>course__PHYS102A&#45;&gt;course__EOS210</title>
<path fill="none" stroke="#5d6972" stroke-width="1.2" d="M516.69,-2442.66C600.15,-2330.97 1038.19,-1746.44 1080,-1725 1160.3,-1683.83 1268.35,-1689.11 1332.67,-1697.5"/>
<polygon fill="#5d6972" stroke="#5d6972" stroke-width="1.2" points="1332.64,-1699.97 1339.91,-1698.48 1333.3,-1695.11 1332.64,-1699.97"/>
</g>
<!-- course__PHYS102A&#45;&gt;year_band__year&#45;1__exit -->
<!-- choice_EOS325_0_2_0 -->
<g id="node65" class="node">
<title>choice_EOS325_0_2_0</title>
<path fill="#fff7ee" stroke="#b7793f" stroke-width="1.1" d="M2470,-1261C2470,-1261 2440,-1261 2440,-1261 2434,-1261 2428,-1255 2428,-1249 2428,-1249 2428,-1237 2428,-1237 2428,-1231 2434,-1225 2440,-1225 2440,-1225 2470,-1225 2470,-1225 2476,-1225 2482,-1231 2482,-1237 2482,-1237 2482,-1249 2482,-1249 2482,-1255 2476,-1261 2470,-1261"/>
<text text-anchor="middle" x="2455" y="-1240.8" font-family="Avenir Next" font-size="9.00">1 of</text>
</g>
<!-- course__CSC110&#45;&gt;choice_EOS325_0_2_0 -->
<g id="edge139" class="edge">
<title>course__CSC110&#45;&gt;choice_EOS325_0_2_0</title>
<path fill="none" stroke="#7a8389" d="M544.04,-2379.34C738.98,-2397.54 1580.89,-2448.89 2033.86,-2035 2244.62,-1842.42 2064.86,-1656.59 2229,-1423 2266.36,-1369.83 2294.27,-1374.61 2345,-1334 2373.56,-1311.13 2405.65,-1284.19 2427.56,-1265.59"/>
<polygon fill="#7a8389" stroke="#7a8389" points="2429.16,-1267.45 2432.91,-1261.05 2425.99,-1263.71 2429.16,-1267.45"/>
</g>
<!-- course__PHYS102B&#45;&gt;course__EOS261 -->
<g id="edge122" class="edge">
<title>course__PHYS102B&#45;&gt;course__EOS261</title>
<path fill="none" stroke="#5d6972" stroke-width="1.2" d="M689.16,-2620.67C712.81,-2616.5 746.11,-2608.88 773,-2596 815.3,-2575.74 1415.19,-2122.51 1448,-2089 1489.42,-2046.69 1527.34,-1988.23 1547.13,-1955.58"/>
<polygon fill="#5d6972" stroke="#5d6972" stroke-width="1.2" points="1549.33,-1956.67 1550.84,-1949.41 1545.13,-1954.15 1549.33,-1956.67"/>
</g>
<!-- course__PHYS217 -->
<g id="node26" class="node">
<title>course__PHYS217</title>
<g id="a_node26"><a xlink:href="../../../courses/PHYS217.html" xlink:title="Equivalent or cross&#45;listed: PHYS217: Introductory Thermodynamics | PHYS317: Thermodynamics" target="_top">
<path fill="#f9f9f9" stroke="#363636" d="M1773,-1785C1773,-1785 1689,-1785 1689,-1785 1683,-1785 1677,-1779 1677,-1773 1677,-1773 1677,-1761 1677,-1761 1677,-1755 1683,-1749 1689,-1749 1689,-1749 1773,-1749 1773,-1749 1779,-1749 1785,-1755 1785,-1761 1785,-1761 1785,-1773 1785,-1773 1785,-1779 1779,-1785 1773,-1785"/>
<text text-anchor="middle" x="1731" y="-1764.8" font-family="Avenir Next" font-size="9.00" fill="#363636">PHYS217 / PHYS317</text>
</a>
</g>
</g>
<!-- course__PHYS102B&#45;&gt;course__PHYS217 -->
<g id="edge193" class="edge">
<title>course__PHYS102B&#45;&gt;course__PHYS217</title>
<path fill="none" stroke="#5d6972" stroke-width="1.2" d="M689.27,-2626.05C712.69,-2625.99 745.63,-2623.98 773,-2615 828.28,-2596.87 835.84,-2578.33 884.86,-2547 1141.82,-2382.78 1227.68,-2365.85 1448,-2155 1572.18,-2036.16 1679.44,-1856.72 1716.33,-1791.66"/>
<polygon fill="#5d6972" stroke="#5d6972" stroke-width="1.2" points="1718.58,-1792.67 1719.88,-1785.37 1714.31,-1790.26 1718.58,-1792.67"/>
</g>
<!-- course__EOS314 -->
<g id="node39" class="node">
<title>course__EOS314</title>
<g id="a_node39"><a xlink:href="../../../courses/EOS314.html" xlink:title="EOS314: Descriptive Physical Oceanography" target="_top">
<path fill="#f9f9f9" stroke="#363636" d="M2611.5,-1853C2611.5,-1853 2581.5,-1853 2581.5,-1853 2575.5,-1853 2569.5,-1847 2569.5,-1841 2569.5,-1841 2569.5,-1829 2569.5,-1829 2569.5,-1823 2575.5,-1817 2581.5,-1817 2581.5,-1817 2611.5,-1817 2611.5,-1817 2617.5,-1817 2623.5,-1823 2623.5,-1829 2623.5,-1829 2623.5,-1841 2623.5,-1841 2623.5,-1847 2617.5,-1853 2611.5,-1853"/>
<text text-anchor="middle" x="2596.5" y="-1832.8" font-family="Avenir Next" font-size="9.00" fill="#363636">EOS314</text>
</a>
</g>
</g>
<!-- course__PHYS102B&#45;&gt;course__EOS314 -->
<g id="edge128" class="edge">
<title>course__PHYS102B&#45;&gt;course__EOS314</title>
<path fill="none" stroke="#5d6972" stroke-width="1.2" d="M668.65,-2643.3C693.37,-2687.41 763.61,-2796 856,-2796 856,-2796 856,-2796 2302,-2796 2383.18,-2796 2426.54,-2824.28 2482,-2765 2603.5,-2635.12 2535.99,-2144.47 2565,-1969 2571.33,-1930.7 2581.94,-1886.96 2588.82,-1860.16"/>
<polygon fill="#5d6972" stroke="#5d6972" stroke-width="1.2" points="2591.28,-1860.46 2590.66,-1853.07 2586.53,-1859.23 2591.28,-1860.46"/>
</g>
<!-- course__EOS325 -->
<g id="node41" class="node">
<title>course__EOS325</title>
<g id="a_node41"><a xlink:href="../../../courses/EOS325.html" xlink:title="EOS325: Earth System Modelling" target="_top">
<path fill="#d7e9ef" stroke="#1f4f66" stroke-width="1.6" d="M2611.5,-1793C2611.5,-1793 2581.5,-1793 2581.5,-1793 2575.5,-1793 2569.5,-1787 2569.5,-1781 2569.5,-1781 2569.5,-1769 2569.5,-1769 2569.5,-1763 2575.5,-1757 2581.5,-1757 2581.5,-1757 2611.5,-1757 2611.5,-1757 2617.5,-1757 2623.5,-1763 2623.5,-1769 2623.5,-1769 2623.5,-1781 2623.5,-1781 2623.5,-1787 2617.5,-1793 2611.5,-1793"/>
<text text-anchor="middle" x="2596.5" y="-1772.5" font-family="Avenir Next" font-size="10.00" fill="#17232b">EOS325</text>
</a>
</g>
</g>
<!-- course__PHYS102B&#45;&gt;course__EOS325 -->
<g id="edge141" class="edge">
<title>course__PHYS102B&#45;&gt;course__EOS325</title>
<path fill="none" stroke="#5d6972" stroke-width="1.2" d="M674.61,-2643.11C705.53,-2676.87 778.33,-2746 856,-2746 856,-2746 856,-2746 2302,-2746 2586.37,-2746 2407.01,-2406.31 2482,-2132 2521.54,-1987.37 2490.35,-1935.04 2565,-1805 2566.3,-1802.74 2567.81,-1800.54 2569.46,-1798.42"/>
<polygon fill="#5d6972" stroke="#5d6972" stroke-width="1.2" points="2571.38,-1799.93 2574.07,-1793.02 2567.66,-1796.75 2571.38,-1799.93"/>
</g>
<!-- course__EOS340 -->
<g id="node47" class="node">
<title>course__EOS340</title>
<g id="a_node47"><a xlink:href="../../../courses/EOS340.html" xlink:title="Equivalent or cross&#45;listed: EOS340: Atmospheric Physics | PHYS340: Atmospheric Physics" target="_top">
<path fill="#e7e2d8" stroke="#746554" stroke-width="1.3" d="M2806,-1837C2806,-1837 2723,-1837 2723,-1837 2717,-1837 2711,-1831 2711,-1825 2711,-1825 2711,-1813 2711,-1813 2711,-1807 2717,-1801 2723,-1801 2723,-1801 2806,-1801 2806,-1801 2812,-1801 2818,-1807 2818,-1813 2818,-1813 2818,-1825 2818,-1825 2818,-1831 2812,-1837 2806,-1837"/>
<text text-anchor="middle" x="2764.5" y="-1816.5" font-family="Avenir Next" font-size="10.00" fill="#342d25">EOS340 / PHYS340</text>
</a>
</g>
</g>
<!-- course__PHYS102B&#45;&gt;course__EOS340 -->
<g id="edge144" class="edge">
<title>course__PHYS102B&#45;&gt;course__EOS340</title>
<path fill="none" stroke="#5d6972" stroke-width="1.2" d="M665.07,-2643.09C684.04,-2695.87 747.55,-2846 856,-2846 856,-2846 856,-2846 2456,-2846 2488.13,-2846 2408.05,-3219.78 2628,-2521 2714.91,-2244.88 2587.58,-2136.84 2711,-1875 2716.8,-1862.69 2726.32,-1851.3 2735.68,-1842.04"/>
<polygon fill="#5d6972" stroke="#5d6972" stroke-width="1.2" points="2737.46,-1843.73 2740.83,-1837.13 2734.08,-1840.18 2737.46,-1843.73"/>
</g>
<!-- course__PHYS102B&#45;&gt;year_band__year&#45;1__exit -->
<!-- course__GEOG222 -->
<g id="node12" class="node">
<title>course__GEOG222</title>
<g id="a_node12"><a xlink:href="../../../courses/GEOG222.html" xlink:title="GEOG222: Introduction to GIS" target="_top">
<path fill="#d7e9ef" stroke="#1f4f66" stroke-width="1.6" d="M1408,-1425C1408,-1425 1369,-1425 1369,-1425 1363,-1425 1357,-1419 1357,-1413 1357,-1413 1357,-1401 1357,-1401 1357,-1395 1363,-1389 1369,-1389 1369,-1389 1408,-1389 1408,-1389 1414,-1389 1420,-1395 1420,-1401 1420,-1401 1420,-1413 1420,-1413 1420,-1419 1414,-1425 1408,-1425"/>
<text text-anchor="middle" x="1388.5" y="-1404.5" font-family="Avenir Next" font-size="10.00" fill="#17232b">GEOG222</text>
</a>
</g>
</g>
<!-- course__GEOG319 -->
<g id="node29" class="node">
<title>course__GEOG319</title>
<g id="a_node29"><a xlink:href="../../../courses/GEOG319.html" xlink:title="GEOG319: Remote Sensing of the Environment using Passive Sensors" target="_top">
<path fill="#ead9b8" stroke="#8f6a3b" stroke-width="1.3" d="M2784,-1639C2784,-1639 2745,-1639 2745,-1639 2739,-1639 2733,-1633 2733,-1627 2733,-1627 2733,-1615 2733,-1615 2733,-1609 2739,-1603 2745,-1603 2745,-1603 2784,-1603 2784,-1603 2790,-1603 2796,-1609 2796,-1615 2796,-1615 2796,-1627 2796,-1627 2796,-1633 2790,-1639 2784,-1639"/>
<text text-anchor="middle" x="2764.5" y="-1618.5" font-family="Avenir Next" font-size="10.00" fill="#3f3120">GEOG319</text>
</a>
</g>
</g>
<!-- course__GEOG222&#45;&gt;course__GEOG319 -->
<g id="edge155" class="edge">
<title>course__GEOG222&#45;&gt;course__GEOG319</title>
<path fill="none" stroke="#5d6972" stroke-width="1.2" d="M1420.2,-1398.13C1430.71,-1393.53 1441.46,-1386.77 1448,-1377 1571.58,-1192.45 1394.48,-556.19 1531,-381 1661.97,-212.94 2274.5,-210.62 2482,-259 2552.46,-275.43 2587.75,-270.88 2628,-331 2780.89,-559.39 2601.41,-1312.95 2711,-1565 2716.38,-1577.37 2725.72,-1588.72 2735.04,-1597.92"/>
<polygon fill="#5d6972" stroke="#5d6972" stroke-width="1.2" points="2733.42,-1599.76 2740.19,-1602.8 2736.79,-1596.2 2733.42,-1599.76"/>
</g>
<!-- course__GEOG322 -->
<g id="node30" class="node">
<title>course__GEOG322</title>
<g id="a_node30"><a xlink:href="../../../courses/GEOG322.html" xlink:title="GEOG322: Remote Sensing of the Environment using Active Sensors" target="_top">
<path fill="#ead9b8" stroke="#8f6a3b" stroke-width="1.3" d="M2784,-1725C2784,-1725 2745,-1725 2745,-1725 2739,-1725 2733,-1719 2733,-1713 2733,-1713 2733,-1701 2733,-1701 2733,-1695 2739,-1689 2745,-1689 2745,-1689 2784,-1689 2784,-1689 2790,-1689 2796,-1695 2796,-1701 2796,-1701 2796,-1713 2796,-1713 2796,-1719 2790,-1725 2784,-1725"/>
<text text-anchor="middle" x="2764.5" y="-1704.5" font-family="Avenir Next" font-size="10.00" fill="#3f3120">GEOG322</text>
</a>
</g>
</g>
<!-- course__GEOG222&#45;&gt;course__GEOG322 -->
<g id="edge158" class="edge">
<title>course__GEOG222&#45;&gt;course__GEOG322</title>
<path fill="none" stroke="#5d6972" stroke-width="1.2" d="M1420.18,-1398.11C1430.69,-1393.52 1441.44,-1386.75 1448,-1377 1565.8,-1201.91 1400.92,-597.17 1531,-431 1581.95,-365.92 1811.35,-350 1894,-350 1894,-350 1894,-350 2006.5,-350 2169.14,-350 2595.31,-372.46 2628,-406 2821.53,-604.57 2600.51,-1396.68 2711,-1651 2716.38,-1663.38 2725.71,-1674.72 2735.04,-1683.92"/>
<polygon fill="#5d6972" stroke="#5d6972" stroke-width="1.2" points="2733.42,-1685.76 2740.19,-1688.8 2736.79,-1682.2 2733.42,-1685.76"/>
</g>
<!-- course__GEOG328 -->
<g id="node31" class="node">
<title>course__GEOG328</title>
<g id="a_node31"><a xlink:href="../../../courses/GEOG328.html" xlink:title="GEOG328: GIS Analysis" target="_top">
<path fill="#ead9b8" stroke="#8f6a3b" stroke-width="1.3" d="M2784,-2009C2784,-2009 2745,-2009 2745,-2009 2739,-2009 2733,-2003 2733,-1997 2733,-1997 2733,-1985 2733,-1985 2733,-1979 2739,-1973 2745,-1973 2745,-1973 2784,-1973 2784,-1973 2790,-1973 2796,-1979 2796,-1985 2796,-1985 2796,-1997 2796,-1997 2796,-2003 2790,-2009 2784,-2009"/>
<text text-anchor="middle" x="2764.5" y="-1988.5" font-family="Avenir Next" font-size="10.00" fill="#3f3120">GEOG328</text>
</a>
</g>
</g>
<!-- course__GEOG222&#45;&gt;course__GEOG328 -->
<g id="edge161" class="edge">
<title>course__GEOG222&#45;&gt;course__GEOG328</title>
<path fill="none" stroke="#5d6972" stroke-width="1.2" d="M1420.06,-1398.04C1430.56,-1393.43 1441.33,-1386.68 1448,-1377 1543.64,-1238.19 1409.37,-739.71 1531,-623 1662.7,-496.62 2178.57,-658.04 2345,-733 2655.49,-872.84 2560.14,-1111.31 2628,-1445 2672.02,-1661.45 2612.85,-1737.13 2711,-1935 2717.05,-1947.19 2726.62,-1958.56 2735.95,-1967.83"/>
<polygon fill="#5d6972" stroke="#5d6972" stroke-width="1.2" points="2734.33,-1969.68 2741.08,-1972.76 2737.72,-1966.14 2734.33,-1969.68"/>
</g>
<!-- course__GEOG329 -->
<g id="node32" class="node">
<title>course__GEOG329</title>
<g id="a_node32"><a xlink:href="../../../courses/GEOG329.html" xlink:title="GEOG329: GIS Applications and Tools" target="_top">
<path fill="#ead9b8" stroke="#8f6a3b" stroke-width="1.3" d="M2784,-1923C2784,-1923 2745,-1923 2745,-1923 2739,-1923 2733,-1917 2733,-1911 2733,-1911 2733,-1899 2733,-1899 2733,-1893 2739,-1887 2745,-1887 2745,-1887 2784,-1887 2784,-1887 2790,-1887 2796,-1893 2796,-1899 2796,-1899 2796,-1911 2796,-1911 2796,-1917 2790,-1923 2784,-1923"/>
<text text-anchor="middle" x="2764.5" y="-1902.5" font-family="Avenir Next" font-size="10.00" fill="#3f3120">GEOG329</text>
</a>
</g>
</g>
<!-- course__GEOG222&#45;&gt;course__GEOG329 -->
<g id="edge164" class="edge">
<title>course__GEOG222&#45;&gt;course__GEOG329</title>
<path fill="none" stroke="#5d6972" stroke-width="1.2" d="M1420.15,-1398.1C1430.66,-1393.5 1441.41,-1386.74 1448,-1377 1560.02,-1211.36 1383.23,-615.72 1531,-481 1551.69,-462.14 1566.04,-479.42 1594,-481 1790.44,-492.13 1839.97,-497.58 2033.86,-531 2050.56,-533.88 2617,-656.11 2628,-669 2798.63,-868.97 2605.81,-1608.09 2711,-1849 2716.4,-1861.37 2725.74,-1872.71 2735.06,-1881.91"/>
<polygon fill="#5d6972" stroke="#5d6972" stroke-width="1.2" points="2733.44,-1883.75 2740.21,-1886.79 2736.81,-1880.19 2733.44,-1883.75"/>
</g>
<!-- year_band__year&#45;2__exit -->
<!-- course__GEOG222&#45;&gt;year_band__year&#45;2__exit -->
<!-- course__GEOG226 -->
<g id="node13" class="node">
<title>course__GEOG226</title>
<g id="a_node13"><a xlink:href="../../../courses/GEOG226.html" xlink:title="GEOG226: Quantitative Methods in Geography" target="_top">
<path fill="#dbe8d2" stroke="#567447" stroke-width="1.3" d="M1408,-1365C1408,-1365 1369,-1365 1369,-1365 1363,-1365 1357,-1359 1357,-1353 1357,-1353 1357,-1341 1357,-1341 1357,-1335 1363,-1329 1369,-1329 1369,-1329 1408,-1329 1408,-1329 1414,-1329 1420,-1335 1420,-1341 1420,-1341 1420,-1353 1420,-1353 1420,-1359 1414,-1365 1408,-1365"/>
<text text-anchor="middle" x="1388.5" y="-1344.5" font-family="Avenir Next" font-size="10.00" fill="#24311e">GEOG226</text>
</a>
</g>
</g>
<!-- course__GEOG226&#45;&gt;course__GEOG319 -->
<g id="edge157" class="edge">
<title>course__GEOG226&#45;&gt;course__GEOG319</title>
<path fill="none" stroke="#5d6972" stroke-width="1.2" d="M1420.27,-1338.18C1430.79,-1333.58 1441.52,-1326.81 1448,-1317 1593.54,-1096.5 1369.98,-340.47 1531,-131 1631.74,0.06 1728.7,-50 1894,-50 1894,-50 1894,-50 2006.5,-50 2299.97,-50 2477.3,-21.19 2628,-273 2775.74,-519.87 2596.67,-1300.99 2711,-1565 2716.36,-1577.38 2725.69,-1588.73 2735.02,-1597.92"/>
<polygon fill="#5d6972" stroke="#5d6972" stroke-width="1.2" points="2733.41,-1599.77 2740.17,-1602.8 2736.77,-1596.21 2733.41,-1599.77"/>
</g>
<!-- course__GEOG226&#45;&gt;course__GEOG322 -->
<g id="edge160" class="edge">
<title>course__GEOG226&#45;&gt;course__GEOG322</title>
<path fill="none" stroke="#5d6972" stroke-width="1.2" d="M1420.25,-1338.16C1430.77,-1333.57 1441.51,-1326.8 1448,-1317 1587.76,-1105.96 1365.61,-372.61 1531,-181 1639.01,-55.87 1728.7,-100 1894,-100 1894,-100 1894,-100 2006.5,-100 2309.83,-100 2455.46,-132.53 2628,-382 2788.75,-614.43 2598.55,-1391.73 2711,-1651 2716.37,-1663.38 2725.7,-1674.73 2735.03,-1683.92"/>
<polygon fill="#5d6972" stroke="#5d6972" stroke-width="1.2" points="2733.41,-1685.77 2740.18,-1688.8 2736.78,-1682.21 2733.41,-1685.77"/>
</g>
<!-- course__GEOG226&#45;&gt;course__GEOG328 -->
<g id="edge163" class="edge">
<title>course__GEOG226&#45;&gt;course__GEOG328</title>
<path fill="none" stroke="#5d6972" stroke-width="1.2" d="M1420.2,-1338.13C1430.71,-1333.53 1441.46,-1326.77 1448,-1317 1571.23,-1133.02 1368.03,-473.92 1531,-324 1562.2,-295.3 1350.08,-222.67 1922,-344 2181.87,-399.13 2295.36,-363.96 2482,-553 2617.02,-689.75 2587.06,-772.24 2628,-960 2720.65,-1384.92 2534.05,-1537.73 2711,-1935 2716.54,-1947.43 2726.01,-1958.85 2735.39,-1968.09"/>
<polygon fill="#5d6972" stroke="#5d6972" stroke-width="1.2" points="2733.8,-1969.96 2740.57,-1972.99 2737.17,-1966.4 2733.8,-1969.96"/>
</g>
<!-- course__GEOG226&#45;&gt;course__GEOG329 -->
<g id="edge166" class="edge">
<title>course__GEOG226&#45;&gt;course__GEOG329</title>
<path fill="none" stroke="#5d6972" stroke-width="1.2" d="M1420.24,-1338.15C1430.75,-1333.56 1441.49,-1326.79 1448,-1317 1581.98,-1115.43 1366.68,-408.71 1531,-231 1591.77,-165.28 1640.49,-200 1730,-200 1730,-200 1730,-200 1896,-200 1981.98,-200 2557.24,-435.77 2628,-541 2790.52,-782.69 2595.37,-1581.69 2711,-1849 2716.36,-1861.38 2725.69,-1872.73 2735.01,-1881.93"/>
<polygon fill="#5d6972" stroke="#5d6972" stroke-width="1.2" points="2733.4,-1883.77 2740.17,-1886.81 2736.77,-1880.21 2733.4,-1883.77"/>
</g>
<!-- course__GEOG226&#45;&gt;year_band__year&#45;2__exit -->
<!-- course__EOS410 -->
<g id="node33" class="node">
<title>course__EOS410</title>
<g id="a_node33"><a xlink:href="../../../courses/EOS410.html" xlink:title="EOS410: Global Tectonics" target="_top">
<path fill="#e7e2d8" stroke="#746554" stroke-width="1.3" d="M2947.5,-1923C2947.5,-1923 2917.5,-1923 2917.5,-1923 2911.5,-1923 2905.5,-1917 2905.5,-1911 2905.5,-1911 2905.5,-1899 2905.5,-1899 2905.5,-1893 2911.5,-1887 2917.5,-1887 2917.5,-1887 2947.5,-1887 2947.5,-1887 2953.5,-1887 2959.5,-1893 2959.5,-1899 2959.5,-1899 2959.5,-1911 2959.5,-1911 2959.5,-1917 2953.5,-1923 2947.5,-1923"/>
<text text-anchor="middle" x="2932.5" y="-1902.5" font-family="Avenir Next" font-size="10.00" fill="#342d25">EOS410</text>
</a>
</g>
</g>
<!-- course__EOS202&#45;&gt;course__EOS410 -->
<g id="edge148" class="edge">
<title>course__EOS202&#45;&gt;course__EOS410</title>
<path fill="none" stroke="#5d6972" stroke-width="1.2" d="M1415.76,-1459.76C1427.49,-1455.16 1440.37,-1447.96 1448,-1437 1623.83,-1184.67 1410.22,-1032.84 1531,-750 1571.18,-655.9 1592.49,-629.68 1677,-572 1766.6,-510.85 2544.26,-282.03 2628,-351 2753.18,-454.09 2905.46,-1687.49 2928.52,-1879.85"/>
<polygon fill="#5d6972" stroke="#5d6972" stroke-width="1.2" points="2926.11,-1880.34 2929.37,-1886.99 2930.97,-1879.75 2926.11,-1880.34"/>
</g>
<!-- course__EOS300 -->
<g id="node40" class="node">
<title>course__EOS300</title>
<g id="a_node40"><a xlink:href="../../../courses/EOS300.html" xlink:title="EOS300: Earth Science Field School" target="_top">
<path fill="#efd8cf" stroke="#8f5945" stroke-width="1.3" d="M2611.5,-1553C2611.5,-1553 2581.5,-1553 2581.5,-1553 2575.5,-1553 2569.5,-1547 2569.5,-1541 2569.5,-1541 2569.5,-1529 2569.5,-1529 2569.5,-1523 2575.5,-1517 2581.5,-1517 2581.5,-1517 2611.5,-1517 2611.5,-1517 2617.5,-1517 2623.5,-1523 2623.5,-1529 2623.5,-1529 2623.5,-1541 2623.5,-1541 2623.5,-1547 2617.5,-1553 2611.5,-1553"/>
<text text-anchor="middle" x="2596.5" y="-1532.5" font-family="Avenir Next" font-size="10.00" fill="#3f251d">EOS300</text>
</a>
</g>
</g>
<!-- course__EOS202&#45;&gt;course__EOS300 -->
<g id="edge124" class="edge">
<title>course__EOS202&#45;&gt;course__EOS300</title>
<path fill="none" stroke="#5d6972" stroke-width="1.2" d="M1415.51,-1459.92C1427.34,-1455.33 1440.36,-1448.09 1448,-1437 1640.2,-1157.87 1318.42,-942.94 1531,-679 1603.12,-589.46 1670.39,-620.86 1785,-630 1949.41,-643.12 2381.56,-754.18 2482,-885 2651.31,-1105.51 2440.74,-1256.3 2565,-1505 2566.06,-1507.13 2567.34,-1509.19 2568.75,-1511.17"/>
<polygon fill="#5d6972" stroke="#5d6972" stroke-width="1.2" points="2567.04,-1512.96 2573.35,-1516.86 2570.86,-1509.88 2567.04,-1512.96"/>
</g>
<!-- course__EOS202&#45;&gt;year_band__year&#45;2__exit -->
<!-- course__EOS230&#45;&gt;choice_EOS325_0_2_0 -->
<g id="edge136" class="edge">
<title>course__EOS230&#45;&gt;choice_EOS325_0_2_0</title>
<path fill="none" stroke="#7a8389" d="M1436.17,-1508.92C1440.73,-1505.55 1444.83,-1501.61 1448,-1497 1545.02,-1355.92 1403.58,-845.36 1531,-731 1697.33,-581.72 1835.38,-628.25 2033.86,-731 2167.27,-800.06 2133.55,-890.99 2229,-1007 2296.95,-1089.58 2387.14,-1178.8 2429.75,-1219.89"/>
<polygon fill="#7a8389" stroke="#7a8389" points="2428.2,-1221.81 2434.95,-1224.89 2431.6,-1218.28 2428.2,-1221.81"/>
</g>
<!-- course__GEOG373 -->
<g id="node38" class="node">
<title>course__GEOG373</title>
<g id="a_node38"><a xlink:href="../../../courses/GEOG373.html" xlink:title="GEOG373: Applied Climatology" target="_top">
<path fill="#f9f9f9" stroke="#363636" d="M2951,-2259C2951,-2259 2914,-2259 2914,-2259 2908,-2259 2902,-2253 2902,-2247 2902,-2247 2902,-2235 2902,-2235 2902,-2229 2908,-2223 2914,-2223 2914,-2223 2951,-2223 2951,-2223 2957,-2223 2963,-2229 2963,-2235 2963,-2235 2963,-2247 2963,-2247 2963,-2253 2957,-2259 2951,-2259"/>
<text text-anchor="middle" x="2932.5" y="-2238.8" font-family="Avenir Next" font-size="9.00" fill="#363636">GEOG373</text>
</a>
</g>
</g>
<!-- course__GEOG272&#45;&gt;course__GEOG373 -->
<g id="edge170" class="edge">
<title>course__GEOG272&#45;&gt;course__GEOG373</title>
<path fill="none" stroke="#5d6972" stroke-width="1.2" d="M1389.68,-1268.6C1391.25,-1136.53 1405.9,-332.68 1531,-131 1586.82,-41.02 1624.11,0 1730,0 1730,0 1730,0 2456,0 2629.72,0 2575.1,-185.53 2628,-351 2786.28,-846.11 2745.41,-990.3 2818,-1505 2862.12,-1817.84 2762.06,-1927.25 2901,-2211 2902.05,-2213.13 2903.31,-2215.2 2904.71,-2217.19"/>
<polygon fill="#5d6972" stroke="#5d6972" stroke-width="1.2" points="2903,-2218.97 2909.29,-2222.89 2906.82,-2215.9 2903,-2218.97"/>
</g>
<!-- choice_GEOG370_0_0 -->
<g id="node67" class="node">
<title>choice_GEOG370_0_0</title>
<path fill="#fff7ee" stroke="#b7793f" stroke-width="1.1" d="M2470,-601C2470,-601 2440,-601 2440,-601 2434,-601 2428,-595 2428,-589 2428,-589 2428,-577 2428,-577 2428,-571 2434,-565 2440,-565 2440,-565 2470,-565 2470,-565 2476,-565 2482,-571 2482,-577 2482,-577 2482,-589 2482,-589 2482,-595 2476,-601 2470,-601"/>
<text text-anchor="middle" x="2455" y="-580.8" font-family="Avenir Next" font-size="9.00">1 of</text>
</g>
<!-- course__GEOG272&#45;&gt;choice_GEOG370_0_0 -->
<g id="edge167" class="edge">
<title>course__GEOG272&#45;&gt;choice_GEOG370_0_0</title>
<path fill="none" stroke="#7a8389" d="M1390.47,-1268.82C1397.97,-1131.44 1448.65,-259.96 1531,-181 1647.88,-68.94 1732.08,-150 1894,-150 1894,-150 1894,-150 2006.5,-150 2243.27,-150 2402.46,-466.94 2443.51,-558.5"/>
<polygon fill="#7a8389" stroke="#7a8389" points="2441.29,-559.54 2446.36,-564.95 2445.76,-557.55 2441.29,-559.54"/>
</g>
<!-- course__CHEM245&#45;&gt;year_band__year&#45;2__exit -->
<!-- course__EOS201 -->
<g id="node22" class="node">
<title>course__EOS201</title>
<g id="a_node22"><a xlink:href="../../../courses/EOS201.html" xlink:title="EOS201: Sedimentary Geology" target="_top">
<path fill="#d7e9ef" stroke="#1f4f66" stroke-width="1.6" d="M1577.5,-1595C1577.5,-1595 1547.5,-1595 1547.5,-1595 1541.5,-1595 1535.5,-1589 1535.5,-1583 1535.5,-1583 1535.5,-1571 1535.5,-1571 1535.5,-1565 1541.5,-1559 1547.5,-1559 1547.5,-1559 1577.5,-1559 1577.5,-1559 1583.5,-1559 1589.5,-1565 1589.5,-1571 1589.5,-1571 1589.5,-1583 1589.5,-1583 1589.5,-1589 1583.5,-1595 1577.5,-1595"/>
<text text-anchor="middle" x="1562.5" y="-1574.5" font-family="Avenir Next" font-size="10.00" fill="#17232b">EOS201</text>
</a>
</g>
</g>
<!-- course__EOS205&#45;&gt;course__EOS201 -->
<g id="edge112" class="edge">
<title>course__EOS205&#45;&gt;course__EOS201</title>
<path fill="none" stroke="#5d6972" stroke-width="1.2" d="M1415.62,-1585.48C1445.77,-1583.73 1495.39,-1580.84 1528.26,-1578.93"/>
<polygon fill="#5d6972" stroke="#5d6972" stroke-width="1.2" points="1528.57,-1581.37 1535.41,-1578.52 1528.28,-1576.48 1528.57,-1581.37"/>
</g>
<!-- course__EOS240 -->
<g id="node23" class="node">
<title>course__EOS240</title>
<g id="a_node23"><a xlink:href="../../../courses/EOS240.html" xlink:title="EOS240: Geochemistry" target="_top">
<path fill="#d7e9ef" stroke="#1f4f66" stroke-width="1.6" d="M1577.5,-1535C1577.5,-1535 1547.5,-1535 1547.5,-1535 1541.5,-1535 1535.5,-1529 1535.5,-1523 1535.5,-1523 1535.5,-1511 1535.5,-1511 1535.5,-1505 1541.5,-1499 1547.5,-1499 1547.5,-1499 1577.5,-1499 1577.5,-1499 1583.5,-1499 1589.5,-1505 1589.5,-1511 1589.5,-1511 1589.5,-1523 1589.5,-1523 1589.5,-1529 1583.5,-1535 1577.5,-1535"/>
<text text-anchor="middle" x="1562.5" y="-1514.5" font-family="Avenir Next" font-size="10.00" fill="#17232b">EOS240</text>
</a>
</g>
</g>
<!-- course__EOS205&#45;&gt;course__EOS240 -->
<g id="edge119" class="edge">
<title>course__EOS205&#45;&gt;course__EOS240</title>
<path fill="none" stroke="#5d6972" stroke-width="1.2" d="M1415.62,-1576.37C1445.89,-1564.05 1495.81,-1543.74 1528.67,-1530.36"/>
<polygon fill="#5d6972" stroke="#5d6972" stroke-width="1.2" points="1529.85,-1532.52 1535.41,-1527.62 1528.01,-1527.99 1529.85,-1532.52"/>
</g>
<!-- course__EOS316 -->
<g id="node46" class="node">
<title>course__EOS316</title>
<g id="a_node46"><a xlink:href="../../../courses/EOS316.html" xlink:title="EOS316: Igneous and Metamorphic Geology" target="_top">
<path fill="#e7e2d8" stroke="#746554" stroke-width="1.3" d="M2779.5,-1553C2779.5,-1553 2749.5,-1553 2749.5,-1553 2743.5,-1553 2737.5,-1547 2737.5,-1541 2737.5,-1541 2737.5,-1529 2737.5,-1529 2737.5,-1523 2743.5,-1517 2749.5,-1517 2749.5,-1517 2779.5,-1517 2779.5,-1517 2785.5,-1517 2791.5,-1523 2791.5,-1529 2791.5,-1529 2791.5,-1541 2791.5,-1541 2791.5,-1547 2785.5,-1553 2779.5,-1553"/>
<text text-anchor="middle" x="2764.5" y="-1532.5" font-family="Avenir Next" font-size="10.00" fill="#342d25">EOS316</text>
</a>
</g>
</g>
<!-- course__EOS205&#45;&gt;course__EOS316 -->
<g id="edge131" class="edge">
<title>course__EOS205&#45;&gt;course__EOS316</title>
<path fill="none" stroke="#5d6972" stroke-width="1.2" d="M1415.77,-1579.77C1427.51,-1575.18 1440.38,-1567.97 1448,-1557 1628.21,-1297.5 1370.07,-1122.88 1531,-851 1757.78,-467.86 1994.29,-505.6 2428,-405 2515.16,-384.78 2561.14,-322.54 2628,-382 2715.56,-459.87 2755.86,-1347.77 2762.5,-1509.73"/>
<polygon fill="#5d6972" stroke="#5d6972" stroke-width="1.2" points="2760.06,-1509.99 2762.79,-1516.88 2764.96,-1509.79 2760.06,-1509.99"/>
</g>
<!-- course__EOS205&#45;&gt;year_band__year&#45;2__exit -->
<!-- course__EOS210&#45;&gt;year_band__year&#45;2__exit -->
<!-- course__EOS210&#45;&gt;choice_EOS325_0_2_0 -->
<g id="edge135" class="edge">
<title>course__EOS210&#45;&gt;choice_EOS325_0_2_0</title>
<path fill="none" stroke="#7a8389" d="M1434.61,-1688.98C1439.62,-1685.58 1444.26,-1681.61 1448,-1677 1569.22,-1527.85 1529.8,-966.58 1677,-843 1760.62,-772.8 1819.63,-787.04 1922,-825 2090.73,-887.57 2086.31,-979.35 2229,-1089 2295.32,-1139.96 2377.27,-1193.94 2421.69,-1222.49"/>
<polygon fill="#7a8389" stroke="#7a8389" points="2420.49,-1224.63 2427.7,-1226.35 2423.13,-1220.51 2420.49,-1224.63"/>
</g>
<!-- course__MATH200&#45;&gt;course__STAT254 -->
<g id="edge195" class="edge">
<title>course__MATH200&#45;&gt;course__STAT254</title>
<path fill="none" stroke="#5d6972" stroke-width="1.2" d="M1328.93,-1658.83C1312.8,-1665.06 1297.14,-1674.55 1287.5,-1689 1266.2,-1720.93 1306.12,-1751.73 1341.88,-1771.41"/>
<polygon fill="#5d6972" stroke="#5d6972" stroke-width="1.2" points="1341.17,-1773.8 1348.49,-1774.95 1343.48,-1769.48 1341.17,-1773.8"/>
</g>
<!-- course__MATH204 -->
<g id="node24" class="node">
<title>course__MATH204</title>
<g id="a_node24"><a xlink:href="../../../courses/MATH204.html" xlink:title="MATH204: Calculus IV" target="_top">
<path fill="#d7e9ef" stroke="#1f4f66" stroke-width="1.6" d="M1582,-1785C1582,-1785 1543,-1785 1543,-1785 1537,-1785 1531,-1779 1531,-1773 1531,-1773 1531,-1761 1531,-1761 1531,-1755 1537,-1749 1543,-1749 1543,-1749 1582,-1749 1582,-1749 1588,-1749 1594,-1755 1594,-1761 1594,-1761 1594,-1773 1594,-1773 1594,-1779 1588,-1785 1582,-1785"/>
<text text-anchor="middle" x="1562.5" y="-1764.5" font-family="Avenir Next" font-size="10.00" fill="#17232b">MATH204</text>
</a>
</g>
</g>
<!-- course__MATH200&#45;&gt;course__MATH204 -->
<g id="edge188" class="edge">
<title>course__MATH200&#45;&gt;course__MATH204</title>
<path fill="none" stroke="#5d6972" stroke-width="1.2" d="M1427.56,-1665.14C1434.5,-1668.83 1441.57,-1672.86 1448,-1677 1479.77,-1697.46 1513.35,-1724.91 1535.67,-1744.09"/>
<polygon fill="#5d6972" stroke="#5d6972" stroke-width="1.2" points="1534.19,-1746.06 1541.09,-1748.78 1537.4,-1742.35 1534.19,-1746.06"/>
</g>
<!-- course__MATH200&#45;&gt;year_band__year&#45;2__exit -->
<!-- choice_EOS325_0_0 -->
<g id="node64" class="node">
<title>choice_EOS325_0_0</title>
<path fill="#fff7ee" stroke="#b7793f" stroke-width="1.1" d="M2470,-1101C2470,-1101 2440,-1101 2440,-1101 2434,-1101 2428,-1095 2428,-1089 2428,-1089 2428,-1077 2428,-1077 2428,-1071 2434,-1065 2440,-1065 2440,-1065 2470,-1065 2470,-1065 2476,-1065 2482,-1071 2482,-1077 2482,-1077 2482,-1089 2482,-1089 2482,-1095 2476,-1101 2470,-1101"/>
<text text-anchor="middle" x="2455" y="-1080.8" font-family="Avenir Next" font-size="9.00">1 of</text>
</g>
<!-- course__MATH200&#45;&gt;choice_EOS325_0_0 -->
<g id="edge133" class="edge">
<title>course__MATH200&#45;&gt;choice_EOS325_0_0</title>
<path fill="none" stroke="#7a8389" d="M1436.05,-1628.83C1440.63,-1625.48 1444.77,-1621.56 1448,-1617 1605.87,-1394.07 1434.6,-1263.59 1531,-1008 1572.41,-898.2 1573.59,-843.48 1677,-788 1958.39,-637.02 2333.97,-967.57 2430.57,-1059.91"/>
<polygon fill="#7a8389" stroke="#7a8389" points="2429.01,-1061.8 2435.75,-1064.88 2432.4,-1058.27 2429.01,-1061.8"/>
</g>
<!-- course__STAT254&#45;&gt;year_band__year&#45;2__exit -->
<!-- course__EOS201&#45;&gt;course__EOS300 -->
<g id="edge123" class="edge">
<title>course__EOS201&#45;&gt;course__EOS300</title>
<path fill="none" stroke="#5d6972" stroke-width="1.2" d="M1585.48,-1558.78C1588.76,-1555.18 1591.78,-1551.2 1594,-1547 1690.38,-1364.94 1552.58,-1255.18 1677,-1091 1787.49,-945.21 2343.88,-799.06 2482,-919 2581.31,-1005.23 2505.77,-1387.57 2565,-1505 2566.07,-1507.12 2567.35,-1509.18 2568.77,-1511.16"/>
<polygon fill="#5d6972" stroke="#5d6972" stroke-width="1.2" points="2567.07,-1512.95 2573.38,-1516.85 2570.87,-1509.87 2567.07,-1512.95"/>
</g>
<!-- course__EOS450 -->
<g id="node44" class="node">
<title>course__EOS450</title>
<g id="a_node44"><a xlink:href="../../../courses/EOS450.html" xlink:title="EOS450: Quaternary Geology" target="_top">
<path fill="#e2deef" stroke="#665683" stroke-width="1.3" d="M2611.5,-1673C2611.5,-1673 2581.5,-1673 2581.5,-1673 2575.5,-1673 2569.5,-1667 2569.5,-1661 2569.5,-1661 2569.5,-1649 2569.5,-1649 2569.5,-1643 2575.5,-1637 2581.5,-1637 2581.5,-1637 2611.5,-1637 2611.5,-1637 2617.5,-1637 2623.5,-1643 2623.5,-1649 2623.5,-1649 2623.5,-1661 2623.5,-1661 2623.5,-1667 2617.5,-1673 2611.5,-1673"/>
<text text-anchor="middle" x="2596.5" y="-1652.5" font-family="Avenir Next" font-size="10.00" fill="#2f2741">EOS450</text>
</a>
</g>
</g>
<!-- course__EOS201&#45;&gt;course__EOS450 -->
<g id="edge152" class="edge">
<title>course__EOS201&#45;&gt;course__EOS450</title>
<path fill="none" stroke="#5d6972" stroke-width="1.2" d="M1584.45,-1558.68C1587.92,-1555.04 1591.27,-1551.07 1594,-1547 1648.3,-1466.05 1614.84,-1419.08 1677,-1344 1787.84,-1210.11 1838.34,-1180.37 2005,-1131 2017.3,-1127.36 2021.04,-1130.68 2033.86,-1131 2095.76,-1132.56 2111.08,-1138 2173,-1138 2173,-1138 2173,-1138 2302,-1138 2383.18,-1138 2424.33,-1111.87 2482,-1169 2628.35,-1313.97 2468.62,-1442.94 2565,-1625 2566.11,-1627.1 2567.42,-1629.14 2568.86,-1631.11"/>
<polygon fill="#5d6972" stroke="#5d6972" stroke-width="1.2" points="2567.18,-1632.92 2573.52,-1636.78 2570.97,-1629.81 2567.18,-1632.92"/>
</g>
<!-- course__GEOG376 -->
<g id="node45" class="node">
<title>course__GEOG376</title>
<g id="a_node45"><a xlink:href="../../../courses/GEOG376.html" xlink:title="GEOG376: Process Geomorphology" target="_top">
<path fill="#d7e9ef" stroke="#1f4f66" stroke-width="1.6" d="M2616,-2181C2616,-2181 2577,-2181 2577,-2181 2571,-2181 2565,-2175 2565,-2169 2565,-2169 2565,-2157 2565,-2157 2565,-2151 2571,-2145 2577,-2145 2577,-2145 2616,-2145 2616,-2145 2622,-2145 2628,-2151 2628,-2157 2628,-2157 2628,-2169 2628,-2169 2628,-2175 2622,-2181 2616,-2181"/>
<text text-anchor="middle" x="2596.5" y="-2160.5" font-family="Avenir Next" font-size="10.00" fill="#17232b">GEOG376</text>
</a>
</g>
</g>
<!-- course__EOS201&#45;&gt;course__GEOG376 -->
<g id="edge171" class="edge">
<title>course__EOS201&#45;&gt;course__GEOG376</title>
<path fill="none" stroke="#5d6972" stroke-width="1.2" d="M1587.73,-1558.83C1640.45,-1521.15 1770.75,-1438 1894,-1438 1894,-1438 1894,-1438 2302,-1438 2379.21,-1438 2550.91,-2010.31 2588.24,-2137.96"/>
<polygon fill="#5d6972" stroke="#5d6972" stroke-width="1.2" points="2585.9,-2138.68 2590.22,-2144.72 2590.61,-2137.31 2585.9,-2138.68"/>
</g>
<!-- course__EOS201&#45;&gt;year_band__year&#45;2__exit -->
<!-- course__EOS335 -->
<g id="node42" class="node">
<title>course__EOS335</title>
<g id="a_node42"><a xlink:href="../../../courses/EOS335.html" xlink:title="EOS335: Isotopes in Natural Sciences" target="_top">
<path fill="#e7e2d8" stroke="#746554" stroke-width="1.3" d="M2611.5,-1733C2611.5,-1733 2581.5,-1733 2581.5,-1733 2575.5,-1733 2569.5,-1727 2569.5,-1721 2569.5,-1721 2569.5,-1709 2569.5,-1709 2569.5,-1703 2575.5,-1697 2581.5,-1697 2581.5,-1697 2611.5,-1697 2611.5,-1697 2617.5,-1697 2623.5,-1703 2623.5,-1709 2623.5,-1709 2623.5,-1721 2623.5,-1721 2623.5,-1727 2617.5,-1733 2611.5,-1733"/>
<text text-anchor="middle" x="2596.5" y="-1712.5" font-family="Avenir Next" font-size="10.00" fill="#342d25">EOS335</text>
</a>
</g>
</g>
<!-- course__EOS240&#45;&gt;course__EOS335 -->
<g id="edge143" class="edge">
<title>course__EOS240&#45;&gt;course__EOS335</title>
<path fill="none" stroke="#5d6972" stroke-width="1.2" d="M1581.04,-1498.84C1649.65,-1429.87 1909.06,-1188 2173,-1188 2173,-1188 2173,-1188 2302,-1188 2382.77,-1188 2423.87,-1156.93 2482,-1213 2635.3,-1360.87 2465.91,-1496.45 2565,-1685 2566.11,-1687.1 2567.41,-1689.15 2568.85,-1691.12"/>
<polygon fill="#5d6972" stroke="#5d6972" stroke-width="1.2" points="2567.16,-1692.93 2573.5,-1696.79 2570.95,-1689.82 2567.16,-1692.93"/>
</g>
<!-- course__EOS440 -->
<g id="node43" class="node">
<title>course__EOS440</title>
<g id="a_node43"><a xlink:href="../../../courses/EOS440.html" xlink:title="EOS440: Hydrogeology" target="_top">
<path fill="#dfe3f4" stroke="#576989" stroke-width="1.3" d="M2611.5,-1613C2611.5,-1613 2581.5,-1613 2581.5,-1613 2575.5,-1613 2569.5,-1607 2569.5,-1601 2569.5,-1601 2569.5,-1589 2569.5,-1589 2569.5,-1583 2575.5,-1577 2581.5,-1577 2581.5,-1577 2611.5,-1577 2611.5,-1577 2617.5,-1577 2623.5,-1583 2623.5,-1589 2623.5,-1589 2623.5,-1601 2623.5,-1601 2623.5,-1607 2617.5,-1613 2611.5,-1613"/>
<text text-anchor="middle" x="2596.5" y="-1592.5" font-family="Avenir Next" font-size="10.00" fill="#263246">EOS440</text>
</a>
</g>
</g>
<!-- course__EOS240&#45;&gt;course__EOS440 -->
<g id="edge150" class="edge">
<title>course__EOS240&#45;&gt;course__EOS440</title>
<path fill="none" stroke="#5d6972" stroke-width="1.2" d="M1565.08,-1498.97C1572.63,-1416.71 1607.58,-1077.78 1677,-1002 1798.48,-869.4 2350.67,-796.14 2482,-919 2587.7,-1017.88 2500.65,-1435.36 2565,-1565 2566.06,-1567.13 2567.33,-1569.19 2568.74,-1571.18"/>
<polygon fill="#5d6972" stroke="#5d6972" stroke-width="1.2" points="2567.03,-1572.96 2573.33,-1576.87 2570.84,-1569.89 2567.03,-1572.96"/>
</g>
<!-- course__EOS240&#45;&gt;course__EOS450 -->
<g id="edge153" class="edge">
<title>course__EOS240&#45;&gt;course__EOS450</title>
<path fill="none" stroke="#5d6972" stroke-width="1.2" d="M1565.49,-1498.85C1571.94,-1448.43 1596.77,-1305.14 1677,-1225 1806.42,-1095.72 2343.68,-933.3 2482,-1053 2676.25,-1221.1 2448.92,-1395.84 2565,-1625 2566.07,-1627.12 2567.36,-1629.18 2568.78,-1631.16"/>
<polygon fill="#5d6972" stroke="#5d6972" stroke-width="1.2" points="2567.08,-1632.95 2573.39,-1636.84 2570.88,-1629.86 2567.08,-1632.95"/>
</g>
<!-- course__EOS240&#45;&gt;year_band__year&#45;2__exit -->
<!-- choice_EOS316_0_1 -->
<g id="node63" class="node">
<title>choice_EOS316_0_1</title>
<path fill="#fff7ee" stroke="#b7793f" stroke-width="1.1" d="M1910,-873C1910,-873 1880,-873 1880,-873 1874,-873 1868,-867 1868,-861 1868,-861 1868,-849 1868,-849 1868,-843 1874,-837 1880,-837 1880,-837 1910,-837 1910,-837 1916,-837 1922,-843 1922,-849 1922,-849 1922,-861 1922,-861 1922,-867 1916,-873 1910,-873"/>
<text text-anchor="middle" x="1895" y="-852.8" font-family="Avenir Next" font-size="9.00">1 of</text>
</g>
<!-- course__EOS240&#45;&gt;choice_EOS316_0_1 -->
<g id="edge129" class="edge">
<title>course__EOS240&#45;&gt;choice_EOS316_0_1</title>
<path fill="none" stroke="#7a8389" d="M1564.08,-1498.73C1567.44,-1405.01 1587.5,-979.17 1677,-891 1725.91,-842.82 1813.13,-844.55 1860.75,-849.86"/>
<polygon fill="#7a8389" stroke="#7a8389" points="1860.51,-852.3 1867.75,-850.7 1861.1,-847.43 1860.51,-852.3"/>
</g>
<!-- course__MATH204&#45;&gt;course__PHYS217 -->
<g id="edge194" class="edge">
<title>course__MATH204&#45;&gt;course__PHYS217</title>
<path fill="none" stroke="#5d6972" stroke-width="1.2" d="M1594.04,-1767C1615.15,-1767 1643.94,-1767 1669.6,-1767"/>
<polygon fill="#5d6972" stroke="#5d6972" stroke-width="1.2" points="1669.74,-1769.45 1676.74,-1767 1669.74,-1764.55 1669.74,-1769.45"/>
</g>
<!-- course__MATH204&#45;&gt;year_band__year&#45;2__exit -->
<!-- course__MATH204&#45;&gt;choice_EOS325_0_0 -->
<g id="edge134" class="edge">
<title>course__MATH204&#45;&gt;choice_EOS325_0_0</title>
<path fill="none" stroke="#7a8389" d="M1566.29,-1748.91C1574.76,-1699.17 1604.16,-1558.19 1677,-1469 1860.74,-1244 1957.32,-1221.84 2229,-1119 2294.01,-1094.39 2375.78,-1086.6 2420.68,-1084.14"/>
<polygon fill="#7a8389" stroke="#7a8389" points="2420.95,-1086.58 2427.82,-1083.78 2420.71,-1081.69 2420.95,-1086.58"/>
</g>
<!-- choice_EOS340_1 -->
<g id="node66" class="node">
<title>choice_EOS340_1</title>
<path fill="#fff7ee" stroke="#b7793f" stroke-width="1.1" d="M2611.5,-473C2611.5,-473 2581.5,-473 2581.5,-473 2575.5,-473 2569.5,-467 2569.5,-461 2569.5,-461 2569.5,-449 2569.5,-449 2569.5,-443 2575.5,-437 2581.5,-437 2581.5,-437 2611.5,-437 2611.5,-437 2617.5,-437 2623.5,-443 2623.5,-449 2623.5,-449 2623.5,-461 2623.5,-461 2623.5,-467 2617.5,-473 2611.5,-473"/>
<text text-anchor="middle" x="2596.5" y="-452.8" font-family="Avenir Next" font-size="9.00">1 of</text>
</g>
<!-- course__MATH204&#45;&gt;choice_EOS340_1 -->
<g id="edge146" class="edge">
<title>course__MATH204&#45;&gt;choice_EOS340_1</title>
<path fill="none" stroke="#7a8389" d="M1566.92,-1748.98C1580.69,-1677.66 1633.34,-1415.56 1677,-1344 1928.71,-931.45 2160.35,-973.69 2482,-613 2521.2,-569.04 2559.66,-511.66 2580.2,-479.54"/>
<polygon fill="#7a8389" stroke="#7a8389" points="2582.37,-480.68 2584.06,-473.46 2578.24,-478.06 2582.37,-480.68"/>
</g>
<!-- course__EOS261&#45;&gt;choice_EOS325_0_2_0 -->
<g id="edge137" class="edge">
<title>course__EOS261&#45;&gt;choice_EOS325_0_2_0</title>
<path fill="none" stroke="#7a8389" d="M1571.2,-1912.94C1587.2,-1876.79 1626.75,-1794.14 1677,-1737 1906.02,-1476.62 2304.83,-1302.81 2421.23,-1255.81"/>
<polygon fill="#7a8389" stroke="#7a8389" points="2422.26,-1258.04 2427.85,-1253.16 2420.44,-1253.49 2422.26,-1258.04"/>
</g>
<!-- course__PHYS217&#45;&gt;choice_EOS316_0_1 -->
<g id="edge130" class="edge">
<title>course__PHYS217&#45;&gt;choice_EOS316_0_1</title>
<path fill="none" stroke="#7a8389" d="M1735.24,-1748.78C1755.59,-1634.21 1865.8,-1013.77 1889.51,-880.3"/>
<polygon fill="#7a8389" stroke="#7a8389" points="1891.94,-880.58 1890.76,-873.26 1887.12,-879.72 1891.94,-880.58"/>
</g>
<!-- course__EOS480 -->
<g id="node27" class="node">
<title>course__EOS480</title>
<g id="a_node27"><a xlink:href="../../../courses/EOS480.html" xlink:title="EOS480: Applied Geophysics" target="_top">
<path fill="#e7e2d8" stroke="#746554" stroke-width="1.3" d="M2611.5,-2345C2611.5,-2345 2581.5,-2345 2581.5,-2345 2575.5,-2345 2569.5,-2339 2569.5,-2333 2569.5,-2333 2569.5,-2321 2569.5,-2321 2569.5,-2315 2575.5,-2309 2581.5,-2309 2581.5,-2309 2611.5,-2309 2611.5,-2309 2617.5,-2309 2623.5,-2315 2623.5,-2321 2623.5,-2321 2623.5,-2333 2623.5,-2333 2623.5,-2339 2617.5,-2345 2611.5,-2345"/>
<text text-anchor="middle" x="2596.5" y="-2324.5" font-family="Avenir Next" font-size="10.00" fill="#342d25">EOS480</text>
</a>
</g>
</g>
<!-- year_band__years&#45;3&#45;4__exit -->
<!-- course__EOS480&#45;&gt;year_band__years&#45;3&#45;4__exit -->
<!-- course__GEOG228 -->
<g id="node28" class="node">
<title>course__GEOG228</title>
<g id="a_node28"><a xlink:href="../../../courses/GEOG228.html" xlink:title="GEOG228: Introduction to Remote Sensing" target="_top">
<path fill="#d7e9ef" stroke="#1f4f66" stroke-width="1.6" d="M2616,-2017C2616,-2017 2577,-2017 2577,-2017 2571,-2017 2565,-2011 2565,-2005 2565,-2005 2565,-1993 2565,-1993 2565,-1987 2571,-1981 2577,-1981 2577,-1981 2616,-1981 2616,-1981 2622,-1981 2628,-1987 2628,-1993 2628,-1993 2628,-2005 2628,-2005 2628,-2011 2622,-2017 2616,-2017"/>
<text text-anchor="middle" x="2596.5" y="-1996.5" font-family="Avenir Next" font-size="10.00" fill="#17232b">GEOG228</text>
</a>
</g>
</g>
<!-- course__GEOG228&#45;&gt;course__GEOG319 -->
<g id="edge156" class="edge">
<title>course__GEOG228&#45;&gt;course__GEOG319</title>
<path fill="none" stroke="#5d6972" stroke-width="1.2" d="M2603.82,-1980.74C2627.09,-1913.6 2706.8,-1683.92 2711,-1677 2718.24,-1665.08 2728.33,-1653.55 2737.73,-1644.09"/>
<polygon fill="#5d6972" stroke="#5d6972" stroke-width="1.2" points="2739.59,-1645.7 2742.86,-1639.05 2736.15,-1642.2 2739.59,-1645.7"/>
</g>
<!-- course__GEOG228&#45;&gt;course__GEOG322 -->
<g id="edge159" class="edge">
<title>course__GEOG228&#45;&gt;course__GEOG322</title>
<path fill="none" stroke="#5d6972" stroke-width="1.2" d="M2606.77,-1980.77C2625.59,-1944.03 2669.97,-1858.62 2711,-1789 2722.59,-1769.33 2736.57,-1747.59 2747.18,-1731.44"/>
<polygon fill="#5d6972" stroke="#5d6972" stroke-width="1.2" points="2749.41,-1732.51 2751.22,-1725.32 2745.32,-1729.81 2749.41,-1732.51"/>
</g>
<!-- course__GEOG228&#45;&gt;course__GEOG328 -->
<g id="edge162" class="edge">
<title>course__GEOG228&#45;&gt;course__GEOG328</title>
<path fill="none" stroke="#5d6972" stroke-width="1.2" d="M2628.33,-1997.51C2655.82,-1996.19 2696.14,-1994.25 2725.59,-1992.83"/>
<polygon fill="#5d6972" stroke="#5d6972" stroke-width="1.2" points="2725.96,-1995.26 2732.83,-1992.48 2725.72,-1990.37 2725.96,-1995.26"/>
</g>
<!-- course__GEOG228&#45;&gt;course__GEOG329 -->
<g id="edge165" class="edge">
<title>course__GEOG228&#45;&gt;course__GEOG329</title>
<path fill="none" stroke="#5d6972" stroke-width="1.2" d="M2628.33,-1981.54C2656.17,-1965.78 2697.17,-1942.56 2726.71,-1925.83"/>
<polygon fill="#5d6972" stroke="#5d6972" stroke-width="1.2" points="2727.95,-1927.95 2732.83,-1922.37 2725.53,-1923.68 2727.95,-1927.95"/>
</g>
<!-- course__GEOG228&#45;&gt;year_band__years&#45;3&#45;4__exit -->
<!-- course__GEOG420 -->
<g id="node35" class="node">
<title>course__GEOG420</title>
<g id="a_node35"><a xlink:href="../../../courses/GEOG420.html" xlink:title="GEOG420: Field Studies in Coastal Geomatics" target="_top">
<path fill="#ead9b8" stroke="#8f6a3b" stroke-width="1.3" d="M2952,-2371C2952,-2371 2913,-2371 2913,-2371 2907,-2371 2901,-2365 2901,-2359 2901,-2359 2901,-2347 2901,-2347 2901,-2341 2907,-2335 2913,-2335 2913,-2335 2952,-2335 2952,-2335 2958,-2335 2964,-2341 2964,-2347 2964,-2347 2964,-2359 2964,-2359 2964,-2365 2958,-2371 2952,-2371"/>
<text text-anchor="middle" x="2932.5" y="-2350.5" font-family="Avenir Next" font-size="10.00" fill="#3f3120">GEOG420</text>
</a>
</g>
</g>
<!-- course__GEOG319&#45;&gt;course__GEOG420 -->
<g id="edge175" class="edge">
<title>course__GEOG319&#45;&gt;course__GEOG420</title>
<path fill="none" stroke="#5d6972" stroke-width="1.2" d="M2788.1,-1639.16C2798.94,-1649.15 2811.04,-1662.45 2818,-1677 2932.98,-1917.49 2835.71,-2012.56 2901,-2271 2905.98,-2290.71 2914.09,-2312.23 2920.7,-2328.28"/>
<polygon fill="#5d6972" stroke="#5d6972" stroke-width="1.2" points="2918.47,-2329.29 2923.43,-2334.8 2922.99,-2327.4 2918.47,-2329.29"/>
</g>
<!-- course__GEOG319&#45;&gt;year_band__years&#45;3&#45;4__exit -->
<!-- choice_GEOG422_0 -->
<g id="node69" class="node">
<title>choice_GEOG422_0</title>
<path fill="#fff7ee" stroke="#b7793f" stroke-width="1.1" d="M2947.5,-1401C2947.5,-1401 2917.5,-1401 2917.5,-1401 2911.5,-1401 2905.5,-1395 2905.5,-1389 2905.5,-1389 2905.5,-1377 2905.5,-1377 2905.5,-1371 2911.5,-1365 2917.5,-1365 2917.5,-1365 2947.5,-1365 2947.5,-1365 2953.5,-1365 2959.5,-1371 2959.5,-1377 2959.5,-1377 2959.5,-1389 2959.5,-1389 2959.5,-1395 2953.5,-1401 2947.5,-1401"/>
<text text-anchor="middle" x="2932.5" y="-1380.8" font-family="Avenir Next" font-size="9.00">1 of</text>
</g>
<!-- course__GEOG319&#45;&gt;choice_GEOG422_0 -->
<g id="edge177" class="edge">
<title>course__GEOG319&#45;&gt;choice_GEOG422_0</title>
<path fill="none" stroke="#7a8389" d="M2784.6,-1602.76C2795.08,-1592.23 2807.96,-1578.46 2818,-1565 2861.72,-1506.41 2860.32,-1483.73 2901,-1423 2904.49,-1417.79 2908.43,-1412.35 2912.28,-1407.22"/>
<polygon fill="#7a8389" stroke="#7a8389" points="2914.44,-1408.43 2916.74,-1401.38 2910.55,-1405.46 2914.44,-1408.43"/>
</g>
<!-- course__GEOG322&#45;&gt;year_band__years&#45;3&#45;4__exit -->
<!-- course__GEOG322&#45;&gt;choice_GEOG422_0 -->
<g id="edge178" class="edge">
<title>course__GEOG322&#45;&gt;choice_GEOG422_0</title>
<path fill="none" stroke="#7a8389" d="M2786.08,-1688.92C2796.76,-1678.66 2809.35,-1665.08 2818,-1651 2874.47,-1559.13 2849.27,-1517.62 2901,-1423 2903.95,-1417.6 2907.59,-1412.15 2911.31,-1407.07"/>
<polygon fill="#7a8389" stroke="#7a8389" points="2913.39,-1408.38 2915.68,-1401.32 2909.49,-1405.41 2913.39,-1408.38"/>
</g>
<!-- course__GEOG328&#45;&gt;year_band__years&#45;3&#45;4__exit -->
<!-- choice_GEOG418_0 -->
<g id="node68" class="node">
<title>choice_GEOG418_0</title>
<path fill="#fff7ee" stroke="#b7793f" stroke-width="1.1" d="M2779.5,-2669C2779.5,-2669 2749.5,-2669 2749.5,-2669 2743.5,-2669 2737.5,-2663 2737.5,-2657 2737.5,-2657 2737.5,-2645 2737.5,-2645 2737.5,-2639 2743.5,-2633 2749.5,-2633 2749.5,-2633 2779.5,-2633 2779.5,-2633 2785.5,-2633 2791.5,-2639 2791.5,-2645 2791.5,-2645 2791.5,-2657 2791.5,-2657 2791.5,-2663 2785.5,-2669 2779.5,-2669"/>
<text text-anchor="middle" x="2764.5" y="-2648.8" font-family="Avenir Next" font-size="9.00">1 of</text>
</g>
<!-- course__GEOG328&#45;&gt;choice_GEOG418_0 -->
<g id="edge172" class="edge">
<title>course__GEOG328&#45;&gt;choice_GEOG418_0</title>
<path fill="none" stroke="#7a8389" d="M2732.61,-1995.91C2710.79,-2001.12 2683.38,-2011.69 2669.5,-2033 2634.57,-2086.63 2634.57,-2555.37 2669.5,-2609 2682.85,-2629.5 2708.73,-2640.07 2730.11,-2645.47"/>
<polygon fill="#7a8389" stroke="#7a8389" points="2729.79,-2647.91 2737.16,-2647.11 2730.9,-2643.14 2729.79,-2647.91"/>
</g>
<!-- course__GEOG329&#45;&gt;year_band__years&#45;3&#45;4__exit -->
<!-- course__GEOG329&#45;&gt;choice_GEOG418_0 -->
<g id="edge173" class="edge">
<title>course__GEOG329&#45;&gt;choice_GEOG418_0</title>
<path fill="none" stroke="#7a8389" d="M2732.59,-1918.2C2710.46,-1929.26 2682.67,-1947.38 2669.5,-1973 2637.2,-2035.85 2630.93,-2549.78 2669.5,-2609 2682.85,-2629.5 2708.73,-2640.07 2730.11,-2645.47"/>
<polygon fill="#7a8389" stroke="#7a8389" points="2729.79,-2647.91 2737.16,-2647.11 2730.9,-2643.14 2729.79,-2647.91"/>
</g>
<!-- course__EOS410&#45;&gt;year_band__years&#45;3&#45;4__exit -->
<!-- course__GEOG418 -->
<g id="node34" class="node">
<title>course__GEOG418</title>
<g id="a_node34"><a xlink:href="../../../courses/GEOG418.html" xlink:title="GEOG418: Advanced Spatial Analysis and Geo&#45;statistics" target="_top">
<path fill="#ead9b8" stroke="#8f6a3b" stroke-width="1.3" d="M2952,-2517C2952,-2517 2913,-2517 2913,-2517 2907,-2517 2901,-2511 2901,-2505 2901,-2505 2901,-2493 2901,-2493 2901,-2487 2907,-2481 2913,-2481 2913,-2481 2952,-2481 2952,-2481 2958,-2481 2964,-2487 2964,-2493 2964,-2493 2964,-2505 2964,-2505 2964,-2511 2958,-2517 2952,-2517"/>
<text text-anchor="middle" x="2932.5" y="-2496.5" font-family="Avenir Next" font-size="10.00" fill="#3f3120">GEOG418</text>
</a>
</g>
</g>
<!-- course__GEOG418&#45;&gt;year_band__years&#45;3&#45;4__exit -->
<!-- course__GEOG420&#45;&gt;year_band__years&#45;3&#45;4__exit -->
<!-- course__GEOG422 -->
<g id="node36" class="node">
<title>course__GEOG422</title>
<g id="a_node36"><a xlink:href="../../../courses/GEOG422.html" xlink:title="GEOG422: Advanced Topics in Remote Sensing" target="_top">
<path fill="#ead9b8" stroke="#8f6a3b" stroke-width="1.3" d="M2952,-2199C2952,-2199 2913,-2199 2913,-2199 2907,-2199 2901,-2193 2901,-2187 2901,-2187 2901,-2175 2901,-2175 2901,-2169 2907,-2163 2913,-2163 2913,-2163 2952,-2163 2952,-2163 2958,-2163 2964,-2169 2964,-2175 2964,-2175 2964,-2187 2964,-2187 2964,-2193 2958,-2199 2952,-2199"/>
<text text-anchor="middle" x="2932.5" y="-2178.5" font-family="Avenir Next" font-size="10.00" fill="#3f3120">GEOG422</text>
</a>
</g>
</g>
<!-- course__GEOG422&#45;&gt;year_band__years&#45;3&#45;4__exit -->
<!-- course__GEOG428 -->
<g id="node37" class="node">
<title>course__GEOG428</title>
<g id="a_node37"><a xlink:href="../../../courses/GEOG428.html" xlink:title="GEOG428: Advanced Topics in Geographic Information Sciences" target="_top">
<path fill="#ead9b8" stroke="#8f6a3b" stroke-width="1.3" d="M2952,-2457C2952,-2457 2913,-2457 2913,-2457 2907,-2457 2901,-2451 2901,-2445 2901,-2445 2901,-2433 2901,-2433 2901,-2427 2907,-2421 2913,-2421 2913,-2421 2952,-2421 2952,-2421 2958,-2421 2964,-2427 2964,-2433 2964,-2433 2964,-2445 2964,-2445 2964,-2451 2958,-2457 2952,-2457"/>
<text text-anchor="middle" x="2932.5" y="-2436.5" font-family="Avenir Next" font-size="10.00" fill="#3f3120">GEOG428</text>
</a>
</g>
</g>
<!-- course__GEOG428&#45;&gt;year_band__years&#45;3&#45;4__exit -->
<!-- choice_GEOG477_0_0 -->
<g id="node70" class="node">
<title>choice_GEOG477_0_0</title>
<path fill="#fff7ee" stroke="#b7793f" stroke-width="1.1" d="M2779.5,-2609C2779.5,-2609 2749.5,-2609 2749.5,-2609 2743.5,-2609 2737.5,-2603 2737.5,-2597 2737.5,-2597 2737.5,-2585 2737.5,-2585 2737.5,-2579 2743.5,-2573 2749.5,-2573 2749.5,-2573 2779.5,-2573 2779.5,-2573 2785.5,-2573 2791.5,-2579 2791.5,-2585 2791.5,-2585 2791.5,-2597 2791.5,-2597 2791.5,-2603 2785.5,-2609 2779.5,-2609"/>
<text text-anchor="middle" x="2764.5" y="-2588.8" font-family="Avenir Next" font-size="9.00">1 of</text>
</g>
<!-- course__GEOG373&#45;&gt;choice_GEOG477_0_0 -->
<g id="edge183" class="edge">
<title>course__GEOG373&#45;&gt;choice_GEOG477_0_0</title>
<path fill="none" stroke="#7a8389" d="M2924.68,-2259.22C2918.47,-2275.83 2909.08,-2301.05 2901,-2323 2863.76,-2424.2 2881.92,-2464.14 2818,-2551 2812.37,-2558.65 2804.89,-2565.54 2797.33,-2571.36"/>
<polygon fill="#7a8389" stroke="#7a8389" points="2795.76,-2569.47 2791.58,-2575.59 2798.67,-2573.42 2795.76,-2569.47"/>
</g>
<!-- course__EOS314&#45;&gt;choice_EOS325_0_2_0 -->
<g id="edge138" class="edge">
<title>course__EOS314&#45;&gt;choice_EOS325_0_2_0</title>
<path fill="none" stroke="#7a8389" d="M2573.43,-1816.82C2570.17,-1813.22 2567.17,-1809.23 2565,-1805 2456.74,-1594.54 2572.2,-1497.81 2482,-1279 2480.3,-1274.88 2478.05,-1270.79 2475.57,-1266.92"/>
<polygon fill="#7a8389" stroke="#7a8389" points="2477.53,-1265.45 2471.55,-1261.06 2473.49,-1268.22 2477.53,-1265.45"/>
</g>
<!-- course__EOS300&#45;&gt;year_band__years&#45;3&#45;4__exit -->
<!-- course__EOS325&#45;&gt;year_band__years&#45;3&#45;4__exit -->
<!-- course__EOS325&#45;&gt;choice_EOS340_1 -->
<g id="edge145" class="edge">
<title>course__EOS325&#45;&gt;choice_EOS340_1</title>
<path fill="none" stroke="#7a8389" d="M2569.25,-1767.03C2552.85,-1760.67 2533.31,-1749.96 2523.5,-1733 2457.19,-1618.35 2518.58,-1567.35 2523.5,-1435 2537.66,-1054.18 2582.69,-591.83 2593.93,-480.15"/>
<polygon fill="#7a8389" stroke="#7a8389" points="2596.39,-480.22 2594.66,-473.01 2591.51,-479.73 2596.39,-480.22"/>
</g>
<!-- course__EOS425 -->
<g id="node48" class="node">
<title>course__EOS425</title>
<g id="a_node48"><a xlink:href="../../../courses/EOS425.html" xlink:title="EOS425: Aqueous Chemistry in the Earth and Ocean" target="_top">
<path fill="#e7e2d8" stroke="#746554" stroke-width="1.3" d="M2779.5,-2069C2779.5,-2069 2749.5,-2069 2749.5,-2069 2743.5,-2069 2737.5,-2063 2737.5,-2057 2737.5,-2057 2737.5,-2045 2737.5,-2045 2737.5,-2039 2743.5,-2033 2749.5,-2033 2749.5,-2033 2779.5,-2033 2779.5,-2033 2785.5,-2033 2791.5,-2039 2791.5,-2045 2791.5,-2045 2791.5,-2057 2791.5,-2057 2791.5,-2063 2785.5,-2069 2779.5,-2069"/>
<text text-anchor="middle" x="2764.5" y="-2048.5" font-family="Avenir Next" font-size="10.00" fill="#342d25">EOS425</text>
</a>
</g>
</g>
<!-- course__EOS335&#45;&gt;course__EOS425 -->
<g id="edge149" class="edge">
<title>course__EOS335&#45;&gt;course__EOS425</title>
<path fill="none" stroke="#5d6972" stroke-width="1.2" d="M2618.78,-1733.11C2622.21,-1736.78 2625.47,-1740.8 2628,-1745 2694.17,-1854.68 2631.27,-1920.75 2711,-2021 2716.36,-2027.74 2723.68,-2033.24 2731.14,-2037.6"/>
<polygon fill="#5d6972" stroke="#5d6972" stroke-width="1.2" points="2730.09,-2039.82 2737.41,-2041 2732.43,-2035.51 2730.09,-2039.82"/>
</g>
<!-- course__EOS335&#45;&gt;year_band__years&#45;3&#45;4__exit -->
<!-- course__EOS440&#45;&gt;year_band__years&#45;3&#45;4__exit -->
<!-- course__EOS450&#45;&gt;year_band__years&#45;3&#45;4__exit -->
<!-- course__GEOG476 -->
<g id="node49" class="node">
<title>course__GEOG476</title>
<g id="a_node49"><a xlink:href="../../../courses/GEOG476.html" xlink:title="GEOG476: Advanced Topics in Geomorphology" target="_top">
<path fill="#e2deef" stroke="#665683" stroke-width="1.3" d="M2784,-2207C2784,-2207 2745,-2207 2745,-2207 2739,-2207 2733,-2201 2733,-2195 2733,-2195 2733,-2183 2733,-2183 2733,-2177 2739,-2171 2745,-2171 2745,-2171 2784,-2171 2784,-2171 2790,-2171 2796,-2177 2796,-2183 2796,-2183 2796,-2195 2796,-2195 2796,-2201 2790,-2207 2784,-2207"/>
<text text-anchor="middle" x="2764.5" y="-2186.5" font-family="Avenir Next" font-size="10.00" fill="#2f2741">GEOG476</text>
</a>
</g>
</g>
<!-- course__GEOG376&#45;&gt;course__GEOG476 -->
<g id="edge181" class="edge">
<title>course__GEOG376&#45;&gt;course__GEOG476</title>
<path fill="none" stroke="#5d6972" stroke-width="1.2" d="M2628.33,-2167.83C2655.82,-2172.13 2696.14,-2178.45 2725.59,-2183.06"/>
<polygon fill="#5d6972" stroke="#5d6972" stroke-width="1.2" points="2725.54,-2185.53 2732.83,-2184.2 2726.29,-2180.69 2725.54,-2185.53"/>
</g>
<!-- course__GEOG376&#45;&gt;year_band__years&#45;3&#45;4__exit -->
<!-- course__GEOG376&#45;&gt;choice_GEOG477_0_0 -->
<g id="edge184" class="edge">
<title>course__GEOG376&#45;&gt;choice_GEOG477_0_0</title>
<path fill="none" stroke="#7a8389" d="M2602.18,-2181.47C2620.72,-2254.31 2689.09,-2519.12 2711,-2551 2716.43,-2558.9 2723.92,-2565.91 2731.54,-2571.77"/>
<polygon fill="#7a8389" stroke="#7a8389" points="2730.27,-2573.87 2737.36,-2576.02 2733.15,-2569.91 2730.27,-2573.87"/>
</g>
<!-- course__EOS316&#45;&gt;year_band__years&#45;3&#45;4__exit -->
<!-- course__EOS340&#45;&gt;year_band__years&#45;3&#45;4__exit -->
<!-- course__EOS340&#45;&gt;choice_GEOG370_0_0 -->
<g id="edge168" class="edge">
<title>course__EOS340&#45;&gt;choice_GEOG370_0_0</title>
<path fill="none" stroke="#7a8389" d="M2748.01,-1800.86C2735.56,-1785.11 2718.89,-1761.1 2711,-1737 2665.56,-1598.18 2734.5,-524.97 2628,-425 2568.06,-368.73 2495.17,-500.71 2467.45,-558.04"/>
<polygon fill="#7a8389" stroke="#7a8389" points="2465.1,-557.27 2464.29,-564.64 2469.52,-559.38 2465.1,-557.27"/>
</g>
<!-- course__EOS425&#45;&gt;year_band__years&#45;3&#45;4__exit -->
<!-- course__GEOG476&#45;&gt;year_band__years&#45;3&#45;4__exit -->
<!-- course__GEOG370 -->
<g id="node50" class="node">
<title>course__GEOG370</title>
<g id="a_node50"><a xlink:href="../../../courses/GEOG370.html" xlink:title="GEOG370: Methods in Hydrology" target="_top">
<path fill="#dfe3f4" stroke="#576989" stroke-width="1.3" d="M2616,-1493C2616,-1493 2577,-1493 2577,-1493 2571,-1493 2565,-1487 2565,-1481 2565,-1481 2565,-1469 2565,-1469 2565,-1463 2571,-1457 2577,-1457 2577,-1457 2616,-1457 2616,-1457 2622,-1457 2628,-1463 2628,-1469 2628,-1469 2628,-1481 2628,-1481 2628,-1487 2622,-1493 2616,-1493"/>
<text text-anchor="middle" x="2596.5" y="-1472.5" font-family="Avenir Next" font-size="10.00" fill="#263246">GEOG370</text>
</a>
</g>
</g>
<!-- course__GEOG370&#45;&gt;year_band__years&#45;3&#45;4__exit -->
<!-- course__GEOG370&#45;&gt;choice_GEOG477_0_0 -->
<g id="edge182" class="edge">
<title>course__GEOG370&#45;&gt;choice_GEOG477_0_0</title>
<path fill="none" stroke="#7a8389" d="M2619.84,-1493.04C2623.08,-1496.66 2625.99,-1500.69 2628,-1505 2825.13,-1927.64 2487.64,-2141.62 2711,-2551 2715.77,-2559.74 2723.34,-2567.15 2731.27,-2573.13"/>
<polygon fill="#7a8389" stroke="#7a8389" points="2730.23,-2575.4 2737.37,-2577.43 2733.05,-2571.39 2730.23,-2575.4"/>
</g>
<!-- course__GEOG477 -->
<g id="node51" class="node">
<title>course__GEOG477</title>
<g id="a_node51"><a xlink:href="../../../courses/GEOG477.html" xlink:title="GEOG477: Field Studies in Physical Geography" target="_top">
<path fill="#efd8cf" stroke="#8f5945" stroke-width="1.3" d="M2616,-2509C2616,-2509 2577,-2509 2577,-2509 2571,-2509 2565,-2503 2565,-2497 2565,-2497 2565,-2485 2565,-2485 2565,-2479 2571,-2473 2577,-2473 2577,-2473 2616,-2473 2616,-2473 2622,-2473 2628,-2479 2628,-2485 2628,-2485 2628,-2497 2628,-2497 2628,-2503 2622,-2509 2616,-2509"/>
<text text-anchor="middle" x="2596.5" y="-2488.5" font-family="Avenir Next" font-size="10.00" fill="#3f251d">GEOG477</text>
</a>
</g>
</g>
<!-- course__GEOG477&#45;&gt;year_band__years&#45;3&#45;4__exit -->
<!-- course__CHEM091 -->
<g id="node52" class="node">
<title>course__CHEM091</title>
<g id="a_node52"><a xlink:href="../../../courses/CHEM091.html" xlink:title="CHEM091: Introduction to Chemistry" target="_top">
<path fill="#f9f9f9" stroke="#363636" d="M520.5,-2735C520.5,-2735 483.5,-2735 483.5,-2735 477.5,-2735 471.5,-2729 471.5,-2723 471.5,-2723 471.5,-2711 471.5,-2711 471.5,-2705 477.5,-2699 483.5,-2699 483.5,-2699 520.5,-2699 520.5,-2699 526.5,-2699 532.5,-2705 532.5,-2711 532.5,-2711 532.5,-2723 532.5,-2723 532.5,-2729 526.5,-2735 520.5,-2735"/>
<text text-anchor="middle" x="502" y="-2714.8" font-family="Avenir Next" font-size="9.00" fill="#363636">CHEM091</text>
</a>
</g>
</g>
<!-- course__CHEM091&#45;&gt;course__CHEM102 -->
<g id="edge107" class="edge">
<title>course__CHEM091&#45;&gt;course__CHEM102</title>
<path fill="none" stroke="#5d6972" stroke-width="1.2" d="M471.17,-2706.64C452.3,-2698.51 429.69,-2685.16 418.5,-2665 385.27,-2605.16 394.19,-2420.98 418.5,-2357 429.34,-2328.46 453.26,-2303.05 472.73,-2285.87"/>
<polygon fill="#5d6972" stroke="#5d6972" stroke-width="1.2" points="474.39,-2287.67 478.09,-2281.24 471.19,-2283.96 474.39,-2287.67"/>
</g>
<!-- year_band__year&#45;1__label -->
<g id="node53" class="node">
<title>year_band__year&#45;1__label</title>
<path fill="#eef2f4" stroke="#c8d0d5" stroke-width="0.8" d="M78,-2015C78,-2015 48,-2015 48,-2015 42,-2015 36,-2009 36,-2003 36,-2003 36,-1991 36,-1991 36,-1985 42,-1979 48,-1979 48,-1979 78,-1979 78,-1979 84,-1979 90,-1985 90,-1991 90,-1991 90,-2003 90,-2003 90,-2009 84,-2015 78,-2015"/>
<text text-anchor="middle" x="63" y="-1993.6" font-family="Avenir Next" font-size="13.00" fill="#4e5f68">Year 1</text>
</g>
<!-- year_band__year&#45;1__entry -->
<!-- year_band__year&#45;1__label&#45;&gt;year_band__year&#45;1__entry -->
<!-- year_band__year&#45;2__entry -->
<!-- year_band__year&#45;1__label&#45;&gt;year_band__year&#45;2__entry -->
<!-- year_band__year&#45;1__entry&#45;&gt;course__CHEM101 -->
<!-- year_band__year&#45;1__entry&#45;&gt;course__EOS110 -->
<!-- year_band__year&#45;1__entry&#45;&gt;course__EOS120 -->
<!-- year_band__year&#45;1__entry&#45;&gt;course__GEOG101A -->
<!-- year_band__year&#45;1__entry&#45;&gt;course__GEOG104 -->
<!-- year_band__year&#45;1__entry&#45;&gt;course__MATH100 -->
<!-- year_band__year&#45;1__entry&#45;&gt;course__CHEM102 -->
<!-- year_band__year&#45;1__entry&#45;&gt;course__MATH101 -->
<!-- year_band__year&#45;1__entry&#45;&gt;course__PHYS102A -->
<!-- year_band__year&#45;1__entry&#45;&gt;course__CSC110 -->
<!-- year_band__year&#45;1__entry&#45;&gt;course__PHYS102B -->
<!-- year_band__year&#45;1__entry&#45;&gt;course__CHEM091 -->
<!-- year_band__year&#45;1__entry&#45;&gt;year_band__year&#45;1__exit -->
<!-- year_band__year&#45;2__label -->
<g id="node56" class="node">
<title>year_band__year&#45;2__label</title>
<path fill="#eef2f4" stroke="#c8d0d5" stroke-width="0.8" d="M1150,-2001C1150,-2001 1120,-2001 1120,-2001 1114,-2001 1108,-1995 1108,-1989 1108,-1989 1108,-1977 1108,-1977 1108,-1971 1114,-1965 1120,-1965 1120,-1965 1150,-1965 1150,-1965 1156,-1965 1162,-1971 1162,-1977 1162,-1977 1162,-1989 1162,-1989 1162,-1995 1156,-2001 1150,-2001"/>
<text text-anchor="middle" x="1135" y="-1979.6" font-family="Avenir Next" font-size="13.00" fill="#4e5f68">Year 2</text>
</g>
<!-- year_band__year&#45;1__exit&#45;&gt;year_band__year&#45;2__label -->
<!-- year_band__year&#45;2__label&#45;&gt;year_band__year&#45;2__entry -->
<!-- year_band__years&#45;3&#45;4__entry -->
<!-- year_band__year&#45;2__label&#45;&gt;year_band__years&#45;3&#45;4__entry -->
<!-- year_band__year&#45;2__entry&#45;&gt;course__GEOG222 -->
<!-- year_band__year&#45;2__entry&#45;&gt;course__GEOG226 -->
<!-- year_band__year&#45;2__entry&#45;&gt;course__EOS202 -->
<!-- year_band__year&#45;2__entry&#45;&gt;course__EOS230 -->
<!-- year_band__year&#45;2__entry&#45;&gt;course__GEOG272 -->
<!-- year_band__year&#45;2__entry&#45;&gt;course__CHEM245 -->
<!-- year_band__year&#45;2__entry&#45;&gt;course__EOS205 -->
<!-- year_band__year&#45;2__entry&#45;&gt;course__EOS210 -->
<!-- year_band__year&#45;2__entry&#45;&gt;course__MATH200 -->
<!-- year_band__year&#45;2__entry&#45;&gt;course__STAT254 -->
<!-- year_band__year&#45;2__entry&#45;&gt;course__EOS201 -->
<!-- year_band__year&#45;2__entry&#45;&gt;course__EOS240 -->
<!-- year_band__year&#45;2__entry&#45;&gt;course__MATH204 -->
<!-- year_band__year&#45;2__entry&#45;&gt;course__EOS261 -->
<!-- year_band__year&#45;2__entry&#45;&gt;course__PHYS217 -->
<!-- year_band__year&#45;2__entry&#45;&gt;year_band__year&#45;2__exit -->
<!-- year_band__years&#45;3&#45;4__label -->
<g id="node59" class="node">
<title>year_band__years&#45;3&#45;4__label</title>
<path fill="#eef2f4" stroke="#c8d0d5" stroke-width="0.8" d="M2333,-2018C2333,-2018 2269,-2018 2269,-2018 2263,-2018 2257,-2012 2257,-2006 2257,-2006 2257,-1994 2257,-1994 2257,-1988 2263,-1982 2269,-1982 2269,-1982 2333,-1982 2333,-1982 2339,-1982 2345,-1988 2345,-1994 2345,-1994 2345,-2006 2345,-2006 2345,-2012 2339,-2018 2333,-2018"/>
<text text-anchor="middle" x="2301" y="-1996.6" font-family="Avenir Next" font-size="13.00" fill="#4e5f68">Years 3 + 4</text>
</g>
<!-- year_band__year&#45;2__exit&#45;&gt;year_band__years&#45;3&#45;4__label -->
<!-- year_band__years&#45;3&#45;4__label&#45;&gt;year_band__years&#45;3&#45;4__entry -->
<!-- year_band__years&#45;3&#45;4__entry&#45;&gt;course__EOS480 -->
<!-- year_band__years&#45;3&#45;4__entry&#45;&gt;course__GEOG228 -->
<!-- year_band__years&#45;3&#45;4__entry&#45;&gt;course__GEOG319 -->
<!-- year_band__years&#45;3&#45;4__entry&#45;&gt;course__GEOG322 -->
<!-- year_band__years&#45;3&#45;4__entry&#45;&gt;course__GEOG328 -->
<!-- year_band__years&#45;3&#45;4__entry&#45;&gt;course__GEOG329 -->
<!-- year_band__years&#45;3&#45;4__entry&#45;&gt;course__EOS410 -->
<!-- year_band__years&#45;3&#45;4__entry&#45;&gt;course__GEOG418 -->
<!-- year_band__years&#45;3&#45;4__entry&#45;&gt;course__GEOG420 -->
<!-- year_band__years&#45;3&#45;4__entry&#45;&gt;course__GEOG422 -->
<!-- year_band__years&#45;3&#45;4__entry&#45;&gt;course__GEOG428 -->
<!-- year_band__years&#45;3&#45;4__entry&#45;&gt;course__GEOG373 -->
<!-- year_band__years&#45;3&#45;4__entry&#45;&gt;course__EOS314 -->
<!-- year_band__years&#45;3&#45;4__entry&#45;&gt;course__EOS300 -->
<!-- year_band__years&#45;3&#45;4__entry&#45;&gt;course__EOS325 -->
<!-- year_band__years&#45;3&#45;4__entry&#45;&gt;course__EOS335 -->
<!-- year_band__years&#45;3&#45;4__entry&#45;&gt;course__EOS440 -->
<!-- year_band__years&#45;3&#45;4__entry&#45;&gt;course__EOS450 -->
<!-- year_band__years&#45;3&#45;4__entry&#45;&gt;course__GEOG376 -->
<!-- year_band__years&#45;3&#45;4__entry&#45;&gt;course__EOS316 -->
<!-- year_band__years&#45;3&#45;4__entry&#45;&gt;course__EOS340 -->
<!-- year_band__years&#45;3&#45;4__entry&#45;&gt;course__EOS425 -->
<!-- year_band__years&#45;3&#45;4__entry&#45;&gt;course__GEOG476 -->
<!-- year_band__years&#45;3&#45;4__entry&#45;&gt;course__GEOG370 -->
<!-- year_band__years&#45;3&#45;4__entry&#45;&gt;course__GEOG477 -->
<!-- year_band__years&#45;3&#45;4__entry&#45;&gt;year_band__years&#45;3&#45;4__exit -->
<!-- choice_EOS314_0_0&#45;&gt;course__EOS314 -->
<g id="edge127" class="edge">
<title>choice_EOS314_0_0&#45;&gt;course__EOS314</title>
<path fill="none" stroke="#5d6972" stroke-width="1.2" d="M659.08,-1886.98C660.34,-1710.64 681.09,-300 1024,-300 1024,-300 1024,-300 1389.5,-300 1716.49,-300 2168.98,-1143.43 2345,-1419 2371.57,-1460.6 2534.9,-1765.88 2565,-1805 2566.64,-1807.13 2568.42,-1809.25 2570.27,-1811.33"/>
<polygon fill="#5d6972" stroke="#5d6972" stroke-width="1.2" points="2568.73,-1813.26 2575.3,-1816.7 2572.3,-1809.92 2568.73,-1813.26"/>
</g>
<!-- choice_EOS316_0_1&#45;&gt;course__EOS316 -->
<g id="edge132" class="edge">
<title>choice_EOS316_0_1&#45;&gt;course__EOS316</title>
<path fill="none" stroke="#5d6972" stroke-width="1.2" d="M1914.78,-836.97C2016.39,-740.41 2500.44,-292.84 2628,-406 2713.77,-482.09 2755.46,-1349.82 2762.44,-1509.74"/>
<polygon fill="#5d6972" stroke="#5d6972" stroke-width="1.2" points="2759.99,-1509.93 2762.74,-1516.82 2764.89,-1509.72 2759.99,-1509.93"/>
</g>
<!-- choice_EOS325_0_0&#45;&gt;course__EOS325 -->
<g id="edge140" class="edge">
<title>choice_EOS325_0_0&#45;&gt;course__EOS325</title>
<path fill="none" stroke="#5d6972" stroke-width="1.2" d="M2459.86,-1101.04C2465.17,-1126.1 2474.86,-1172.89 2482,-1213 2523.92,-1448.6 2455.72,-1532.1 2565,-1745 2566.09,-1747.11 2567.38,-1749.17 2568.8,-1751.15"/>
<polygon fill="#5d6972" stroke="#5d6972" stroke-width="1.2" points="2567.11,-1752.94 2573.43,-1756.82 2570.91,-1749.85 2567.11,-1752.94"/>
</g>
<!-- choice_EOS325_0_0&#45;&gt;course__EOS440 -->
<g id="edge151" class="edge">
<title>choice_EOS325_0_0&#45;&gt;course__EOS440</title>
<path fill="none" stroke="#5d6972" stroke-width="1.2" d="M2471.44,-1101.11C2475.42,-1106.56 2479.33,-1112.76 2482,-1119 2561.4,-1304.34 2470.32,-1386.99 2565,-1565 2566.12,-1567.1 2567.43,-1569.14 2568.87,-1571.11"/>
<polygon fill="#5d6972" stroke="#5d6972" stroke-width="1.2" points="2567.19,-1572.92 2573.53,-1576.77 2570.98,-1569.81 2567.19,-1572.92"/>
</g>
<!-- choice_EOS325_0_2_0&#45;&gt;course__EOS325 -->
<g id="edge142" class="edge">
<title>choice_EOS325_0_2_0&#45;&gt;course__EOS325</title>
<path fill="none" stroke="#5d6972" stroke-width="1.2" d="M2471.47,-1261.09C2475.45,-1266.55 2479.35,-1272.75 2482,-1279 2564.09,-1472.69 2466.93,-1558.89 2565,-1745 2566.11,-1747.1 2567.42,-1749.15 2568.86,-1751.12"/>
<polygon fill="#5d6972" stroke="#5d6972" stroke-width="1.2" points="2567.17,-1752.93 2573.51,-1756.78 2570.96,-1749.82 2567.17,-1752.93"/>
</g>
<!-- choice_EOS340_1&#45;&gt;course__EOS340 -->
<g id="edge147" class="edge">
<title>choice_EOS340_1&#45;&gt;course__EOS340</title>
<path fill="none" stroke="#5d6972" stroke-width="1.2" d="M2616.81,-473.28C2621.25,-478.55 2625.42,-484.62 2628,-491 2836.28,-1005.44 2537.47,-1209.82 2711,-1737 2718,-1758.26 2731.8,-1779.47 2743.5,-1794.99"/>
<polygon fill="#5d6972" stroke="#5d6972" stroke-width="1.2" points="2741.81,-1796.81 2748.03,-1800.85 2745.69,-1793.82 2741.81,-1796.81"/>
</g>
<!-- choice_GEOG370_0_0&#45;&gt;course__GEOG370 -->
<g id="edge169" class="edge">
<title>choice_GEOG370_0_0&#45;&gt;course__GEOG370</title>
<path fill="none" stroke="#5d6972" stroke-width="1.2" d="M2458.85,-601.22C2476.52,-714.22 2571.06,-1318.72 2591.57,-1449.88"/>
<polygon fill="#5d6972" stroke="#5d6972" stroke-width="1.2" points="2589.15,-1450.27 2592.65,-1456.81 2593.99,-1449.51 2589.15,-1450.27"/>
</g>
<!-- choice_GEOG418_0&#45;&gt;course__GEOG418 -->
<g id="edge174" class="edge">
<title>choice_GEOG418_0&#45;&gt;course__GEOG418</title>
<path fill="none" stroke="#5d6972" stroke-width="1.2" d="M2791.6,-2638.13C2800.36,-2633.29 2809.94,-2627.39 2818,-2621 2855.51,-2591.26 2891.96,-2548.99 2913.04,-2522.82"/>
<polygon fill="#5d6972" stroke="#5d6972" stroke-width="1.2" points="2915.09,-2524.17 2917.55,-2517.17 2911.27,-2521.11 2915.09,-2524.17"/>
</g>
<!-- choice_GEOG418_0&#45;&gt;course__GEOG420 -->
<g id="edge176" class="edge">
<title>choice_GEOG418_0&#45;&gt;course__GEOG420</title>
<path fill="none" stroke="#5d6972" stroke-width="1.2" d="M2791.77,-2640.43C2801.05,-2635.64 2810.93,-2629.18 2818,-2621 2884.14,-2544.42 2858.27,-2500.72 2901,-2409 2905.86,-2398.56 2911.81,-2387.36 2917.15,-2377.74"/>
<polygon fill="#5d6972" stroke="#5d6972" stroke-width="1.2" points="2919.44,-2378.67 2920.74,-2371.37 2915.17,-2376.27 2919.44,-2378.67"/>
</g>
<!-- choice_GEOG418_0&#45;&gt;course__GEOG428 -->
<g id="edge180" class="edge">
<title>choice_GEOG418_0&#45;&gt;course__GEOG428</title>
<path fill="none" stroke="#5d6972" stroke-width="1.2" d="M2791.77,-2639.65C2800.84,-2634.84 2810.58,-2628.57 2818,-2621 2871.9,-2566.05 2854.62,-2530.43 2901,-2469 2902.62,-2466.86 2904.38,-2464.72 2906.23,-2462.64"/>
<polygon fill="#5d6972" stroke="#5d6972" stroke-width="1.2" points="2908.26,-2464.05 2911.24,-2457.25 2904.68,-2460.71 2908.26,-2464.05"/>
</g>
<!-- choice_GEOG422_0&#45;&gt;course__GEOG422 -->
<g id="edge179" class="edge">
<title>choice_GEOG422_0&#45;&gt;course__GEOG422</title>
<path fill="none" stroke="#5d6972" stroke-width="1.2" d="M2905.44,-1394.36C2888.9,-1402.89 2869.12,-1416.33 2859.5,-1435 2823.97,-1503.94 2822.69,-2064.74 2859.5,-2133 2867.12,-2147.12 2880.91,-2157.77 2894.46,-2165.4"/>
<polygon fill="#5d6972" stroke="#5d6972" stroke-width="1.2" points="2893.32,-2167.57 2900.66,-2168.7 2895.63,-2163.25 2893.32,-2167.57"/>
</g>
<!-- choice_GEOG477_0_0&#45;&gt;course__GEOG477 -->
<g id="edge185" class="edge">
<title>choice_GEOG477_0_0&#45;&gt;course__GEOG477</title>
<path fill="none" stroke="#5d6972" stroke-width="1.2" d="M2737.48,-2575.33C2709.55,-2558.5 2664.97,-2531.65 2633.64,-2512.77"/>
<polygon fill="#5d6972" stroke="#5d6972" stroke-width="1.2" points="2634.82,-2510.62 2627.56,-2509.11 2632.29,-2514.82 2634.82,-2510.62"/>
</g>
</g>
</svg>
