<?xml version="1.0" encoding="UTF-8" standalone="no"?>
<!DOCTYPE svg PUBLIC "-//W3C//DTD SVG 1.1//EN"
 "http://www.w3.org/Graphics/SVG/1.1/DTD/svg11.dtd">
<!-- Generated by graphviz version 2.43.0 (0)
 -->
<!-- Title: BSC&#45;OPSD Pages: 1 -->
<svg width="1582pt" height="1108pt"
 viewBox="0.00 0.00 1582.04 1107.82" xmlns="http://www.w3.org/2000/svg" xmlns:xlink="http://www.w3.org/1999/xlink">
<g id="graph0" class="graph" transform="scale(1 1) rotate(0) translate(11.52 1096.3)">
<title>BSC&#45;OPSD</title>
<!-- course__CHEM101 -->
<g id="node1" class="node">
<title>course__CHEM101</title>
<g id="a_node1"><a xlink:href="../../../courses/CHEM101.html" xlink:title="Equivalent or cross&#45;listed: CHEM101: Fundamentals of Chemistry from Atoms to Materials | CHEM150: Engineering Chemistry" target="_top">
<path fill="#d7e9ef" stroke="#1f4f66" stroke-width="1.6" d="M108,-839.78C108,-839.78 12,-839.78 12,-839.78 6,-839.78 0,-833.78 0,-827.78 0,-827.78 0,-815.78 0,-815.78 0,-809.78 6,-803.78 12,-803.78 12,-803.78 108,-803.78 108,-803.78 114,-803.78 120,-809.78 120,-815.78 120,-815.78 120,-827.78 120,-827.78 120,-833.78 114,-839.78 108,-839.78"/>
<text text-anchor="middle" x="60" y="-819.28" font-family="Avenir Next" font-size="10.00" fill="#17232b">CHEM101 / CHEM150</text>
</a>
</g>
</g>
<!-- course__CHEM102 -->
<g id="node11" class="node">
<title>course__CHEM102</title>
<g id="a_node11"><a xlink:href="../../../courses/CHEM102.html" xlink:title="CHEM102: Chemical Reactivity Fundamentals with Environmental Applications" target="_top">
<path fill="#d7e9ef" stroke="#1f4f66" stroke-width="1.6" d="M322.5,-790.78C322.5,-790.78 282.5,-790.78 282.5,-790.78 276.5,-790.78 270.5,-784.78 270.5,-778.78 270.5,-778.78 270.5,-766.78 270.5,-766.78 270.5,-760.78 276.5,-754.78 282.5,-754.78 282.5,-754.78 322.5,-754.78 322.5,-754.78 328.5,-754.78 334.5,-760.78 334.5,-766.78 334.5,-766.78 334.5,-778.78 334.5,-778.78 334.5,-784.78 328.5,-790.78 322.5,-790.78"/>
<text text-anchor="middle" x="302.5" y="-770.28" font-family="Avenir Next" font-size="10.00" fill="#17232b">CHEM102</text>
</a>
</g>
</g>
<!-- course__CHEM101&#45;&gt;course__CHEM102 -->
<g id="edge2" class="edge">
<title>course__CHEM101&#45;&gt;course__CHEM102</title>
<path fill="none" stroke="#5d6972" stroke-width="1.2" d="M120.14,-809.73C164.79,-800.63 224.74,-788.42 263.26,-780.57"/>
<polygon fill="#5d6972" stroke="#5d6972" stroke-width="1.2" points="263.82,-782.96 270.19,-779.16 262.85,-778.16 263.82,-782.96"/>
</g>
<!-- course__EOS313 -->
<g id="node13" class="node">
<title>course__EOS313</title>
<g id="a_node13"><a xlink:href="../../../courses/EOS313.html" xlink:title="EOS313: Introductory Geological Oceanography" target="_top">
<path fill="#ead9b8" stroke="#8f6a3b" stroke-width="1.3" d="M317.5,-844.78C317.5,-844.78 287.5,-844.78 287.5,-844.78 281.5,-844.78 275.5,-838.78 275.5,-832.78 275.5,-832.78 275.5,-820.78 275.5,-820.78 275.5,-814.78 281.5,-808.78 287.5,-808.78 287.5,-808.78 317.5,-808.78 317.5,-808.78 323.5,-808.78 329.5,-814.78 329.5,-820.78 329.5,-820.78 329.5,-832.78 329.5,-832.78 329.5,-838.78 323.5,-844.78 317.5,-844.78"/>
<text text-anchor="middle" x="302.5" y="-824.28" font-family="Avenir Next" font-size="10.00" fill="#3f3120">EOS313</text>
</a>
</g>
</g>
<!-- course__CHEM101&#45;&gt;course__EOS313 -->
<g id="edge17" class="edge">
<title>course__CHEM101&#45;&gt;course__EOS313</title>
<path fill="none" stroke="#5d6972" stroke-width="1.2" d="M120.14,-823.01C166.69,-823.98 229.88,-825.29 268.06,-826.08"/>
<polygon fill="#5d6972" stroke="#5d6972" stroke-width="1.2" points="268.3,-828.54 275.35,-826.24 268.4,-823.64 268.3,-828.54"/>
</g>
<!-- course__EOS499A -->
<g id="node2" class="node">
<title>course__EOS499A</title>
<g id="a_node2"><a xlink:href="../../../courses/EOS499A.html" xlink:title="Equivalent or cross&#45;listed: EOS499A: Honours Thesis I | EOS499B: Honours Thesis II" target="_top">
<path fill="#efd8cf" stroke="#8f5945" stroke-width="1.3" d="M105,-937.78C105,-937.78 15,-937.78 15,-937.78 9,-937.78 3,-931.78 3,-925.78 3,-925.78 3,-913.78 3,-913.78 3,-907.78 9,-901.78 15,-901.78 15,-901.78 105,-901.78 105,-901.78 111,-901.78 117,-907.78 117,-913.78 117,-913.78 117,-925.78 117,-925.78 117,-931.78 111,-937.78 105,-937.78"/>
<text text-anchor="middle" x="60" y="-917.28" font-family="Avenir Next" font-size="10.00" fill="#3f251d">EOS499A / EOS499B</text>
</a>
</g>
</g>
<!-- course__MATH100 -->
<g id="node3" class="node">
<title>course__MATH100</title>
<g id="a_node3"><a xlink:href="../../../courses/MATH100.html" xlink:title="Collapsed in simplified view: MATH100: Calculus I | MATH102: Calculus for Students in the Social and Biological Sciences | MATH109: Introduction to Calculus" target="_top">
<path fill="#d7e9ef" stroke="#1f4f66" stroke-width="1.6" d="M80,-576.78C80,-576.78 40,-576.78 40,-576.78 34,-576.78 28,-570.78 28,-564.78 28,-564.78 28,-552.78 28,-552.78 28,-546.78 34,-540.78 40,-540.78 40,-540.78 80,-540.78 80,-540.78 86,-540.78 92,-546.78 92,-552.78 92,-552.78 92,-564.78 92,-564.78 92,-570.78 86,-576.78 80,-576.78"/>
<text text-anchor="middle" x="60" y="-556.28" font-family="Avenir Next" font-size="10.00" fill="#17232b">Calculus I</text>
</a>
</g>
</g>
<!-- course__MATH100&#45;&gt;course__CHEM102 -->
<g id="edge3" class="edge">
<title>course__MATH100&#45;&gt;course__CHEM102</title>
<path fill="none" stroke="#5d6972" stroke-width="1.2" d="M75.31,-577.1C93.96,-600.4 128.2,-641.29 162,-671.78 195.37,-701.89 237.64,-731.46 266.86,-750.74"/>
<polygon fill="#5d6972" stroke="#5d6972" stroke-width="1.2" points="265.7,-752.91 272.89,-754.7 268.38,-748.81 265.7,-752.91"/>
</g>
<!-- course__CSC110 -->
<g id="node12" class="node">
<title>course__CSC110</title>
<g id="a_node12"><a xlink:href="../../../courses/CSC110.html" xlink:title="Collapsed in simplified view: CSC110: Fundamentals of Programming I | CSC111: Fundamentals of Programming with Engineering Applications" target="_top">
<path fill="#d7e9ef" stroke="#1f4f66" stroke-width="1.6" d="M335,-489.78C335,-489.78 270,-489.78 270,-489.78 264,-489.78 258,-483.78 258,-477.78 258,-477.78 258,-465.78 258,-465.78 258,-459.78 264,-453.78 270,-453.78 270,-453.78 335,-453.78 335,-453.78 341,-453.78 347,-459.78 347,-465.78 347,-465.78 347,-477.78 347,-477.78 347,-483.78 341,-489.78 335,-489.78"/>
<text text-anchor="middle" x="302.5" y="-469.28" font-family="Avenir Next" font-size="10.00" fill="#17232b">Programming I</text>
</a>
</g>
</g>
<!-- course__MATH100&#45;&gt;course__CSC110 -->
<g id="edge4" class="edge">
<title>course__MATH100&#45;&gt;course__CSC110</title>
<path fill="none" stroke="#5d6972" stroke-width="1.2" d="M92.44,-547.41C132.81,-532.8 203.36,-507.28 251.23,-489.97"/>
<polygon fill="#5d6972" stroke="#5d6972" stroke-width="1.2" points="252.08,-492.26 257.83,-487.58 250.41,-487.66 252.08,-492.26"/>
</g>
<!-- course__MATH101 -->
<g id="node14" class="node">
<title>course__MATH101</title>
<g id="a_node14"><a xlink:href="../../../courses/MATH101.html" xlink:title="MATH101: Calculus II" target="_top">
<path fill="#d7e9ef" stroke="#1f4f66" stroke-width="1.6" d="M322,-614.78C322,-614.78 283,-614.78 283,-614.78 277,-614.78 271,-608.78 271,-602.78 271,-602.78 271,-590.78 271,-590.78 271,-584.78 277,-578.78 283,-578.78 283,-578.78 322,-578.78 322,-578.78 328,-578.78 334,-584.78 334,-590.78 334,-590.78 334,-602.78 334,-602.78 334,-608.78 328,-614.78 322,-614.78"/>
<text text-anchor="middle" x="302.5" y="-594.28" font-family="Avenir Next" font-size="10.00" fill="#17232b">MATH101</text>
</a>
</g>
</g>
<!-- course__MATH100&#45;&gt;course__MATH101 -->
<g id="edge41" class="edge">
<title>course__MATH100&#45;&gt;course__MATH101</title>
<path fill="none" stroke="#5d6972" stroke-width="1.2" d="M92.44,-563.75C136.52,-570.71 216.59,-583.36 263.81,-590.82"/>
<polygon fill="#5d6972" stroke="#5d6972" stroke-width="1.2" points="263.51,-593.26 270.81,-591.93 264.28,-588.42 263.51,-593.26"/>
</g>
<!-- course__PHYS102A -->
<g id="node16" class="node">
<title>course__PHYS102A</title>
<g id="a_node16"><a xlink:href="../../../courses/PHYS102A.html" xlink:title="Collapsed in simplified view: PHYS102A: General Physics I | PHYS110: Introductory Physics I | PHYS120: Physics I" target="_top">
<path fill="#d7e9ef" stroke="#1f4f66" stroke-width="1.6" d="M320,-538.78C320,-538.78 285,-538.78 285,-538.78 279,-538.78 273,-532.78 273,-526.78 273,-526.78 273,-514.78 273,-514.78 273,-508.78 279,-502.78 285,-502.78 285,-502.78 320,-502.78 320,-502.78 326,-502.78 332,-508.78 332,-514.78 332,-514.78 332,-526.78 332,-526.78 332,-532.78 326,-538.78 320,-538.78"/>
<text text-anchor="middle" x="302.5" y="-518.28" font-family="Avenir Next" font-size="10.00" fill="#17232b">Physics I</text>
</a>
</g>
</g>
<!-- course__MATH100&#45;&gt;course__PHYS102A -->
<g id="edge58" class="edge">
<title>course__MATH100&#45;&gt;course__PHYS102A</title>
<path fill="none" stroke="#5d6972" stroke-width="1.2" d="M92.44,-553.81C137.13,-546.75 218.79,-533.85 265.74,-526.43"/>
<polygon fill="#5d6972" stroke="#5d6972" stroke-width="1.2" points="266.15,-528.85 272.68,-525.33 265.38,-524.01 266.15,-528.85"/>
</g>
<!-- course__PHYS102B -->
<g id="node19" class="node">
<title>course__PHYS102B</title>
<g id="a_node19"><a xlink:href="../../../courses/PHYS102B.html" xlink:title="Collapsed in simplified view: PHYS102B: General Physics II | PHYS111: Introductory Physics II | PHYS130: Physics II" target="_top">
<path fill="#d7e9ef" stroke="#1f4f66" stroke-width="1.6" d="M467.5,-546.78C467.5,-546.78 429.5,-546.78 429.5,-546.78 423.5,-546.78 417.5,-540.78 417.5,-534.78 417.5,-534.78 417.5,-522.78 417.5,-522.78 417.5,-516.78 423.5,-510.78 429.5,-510.78 429.5,-510.78 467.5,-510.78 467.5,-510.78 473.5,-510.78 479.5,-516.78 479.5,-522.78 479.5,-522.78 479.5,-534.78 479.5,-534.78 479.5,-540.78 473.5,-546.78 467.5,-546.78"/>
<text text-anchor="middle" x="448.5" y="-526.28" font-family="Avenir Next" font-size="10.00" fill="#17232b">Physics II</text>
</a>
</g>
</g>
<!-- course__MATH100&#45;&gt;course__PHYS102B -->
<g id="edge60" class="edge">
<title>course__MATH100&#45;&gt;course__PHYS102B</title>
<path fill="none" stroke="#5d6972" stroke-width="1.2" d="M92.4,-558.36C145.14,-557.41 254.78,-554.35 347,-544.78 367.94,-542.61 391.17,-538.99 410.01,-535.74"/>
<polygon fill="#5d6972" stroke="#5d6972" stroke-width="1.2" points="410.79,-538.09 417.27,-534.47 409.95,-533.27 410.79,-538.09"/>
</g>
<!-- choice_EOS311_0_2 -->
<g id="node47" class="node">
<title>choice_EOS311_0_2</title>
<path fill="#fff7ee" stroke="#b7793f" stroke-width="1.1" d="M463.5,-675.78C463.5,-675.78 433.5,-675.78 433.5,-675.78 427.5,-675.78 421.5,-669.78 421.5,-663.78 421.5,-663.78 421.5,-651.78 421.5,-651.78 421.5,-645.78 427.5,-639.78 433.5,-639.78 433.5,-639.78 463.5,-639.78 463.5,-639.78 469.5,-639.78 475.5,-645.78 475.5,-651.78 475.5,-651.78 475.5,-663.78 475.5,-663.78 475.5,-669.78 469.5,-675.78 463.5,-675.78"/>
<text text-anchor="middle" x="448.5" y="-655.58" font-family="Avenir Next" font-size="9.00">2 of</text>
</g>
<!-- course__MATH100&#45;&gt;choice_EOS311_0_2 -->
<g id="edge5" class="edge">
<title>course__MATH100&#45;&gt;choice_EOS311_0_2</title>
<path fill="none" stroke="#7a8389" d="M75.52,-576.88C93.37,-597.6 125.79,-630.51 162,-644.78 247.71,-678.56 359.26,-670.18 414.1,-663.02"/>
<polygon fill="#7a8389" stroke="#7a8389" points="414.52,-665.44 421.13,-662.07 413.87,-660.58 414.52,-665.44"/>
</g>
<!-- choice_MATH211_0 -->
<g id="node53" class="node">
<title>choice_MATH211_0</title>
<path fill="#fff7ee" stroke="#b7793f" stroke-width="1.1" d="M204,-484.78C204,-484.78 174,-484.78 174,-484.78 168,-484.78 162,-478.78 162,-472.78 162,-472.78 162,-460.78 162,-460.78 162,-454.78 168,-448.78 174,-448.78 174,-448.78 204,-448.78 204,-448.78 210,-448.78 216,-454.78 216,-460.78 216,-460.78 216,-472.78 216,-472.78 216,-478.78 210,-484.78 204,-484.78"/>
<text text-anchor="middle" x="189" y="-464.58" font-family="Avenir Next" font-size="9.00">1 of</text>
</g>
<!-- course__MATH100&#45;&gt;choice_MATH211_0 -->
<g id="edge44" class="edge">
<title>course__MATH100&#45;&gt;choice_MATH211_0</title>
<path fill="none" stroke="#7a8389" d="M86.09,-540.6C106.44,-525.86 135.23,-505.01 157.01,-489.23"/>
<polygon fill="#7a8389" stroke="#7a8389" points="158.73,-491.01 162.96,-484.92 155.85,-487.04 158.73,-491.01"/>
</g>
<!-- course__PHYS429A -->
<g id="node4" class="node">
<title>course__PHYS429A</title>
<g id="a_node4"><a xlink:href="../../../courses/PHYS429A.html" xlink:title="PHYS429A: Honours Laboratory" target="_top">
<path fill="#efd8cf" stroke="#8f5945" stroke-width="1.3" d="M81.5,-986.78C81.5,-986.78 38.5,-986.78 38.5,-986.78 32.5,-986.78 26.5,-980.78 26.5,-974.78 26.5,-974.78 26.5,-962.78 26.5,-962.78 26.5,-956.78 32.5,-950.78 38.5,-950.78 38.5,-950.78 81.5,-950.78 81.5,-950.78 87.5,-950.78 93.5,-956.78 93.5,-962.78 93.5,-962.78 93.5,-974.78 93.5,-974.78 93.5,-980.78 87.5,-986.78 81.5,-986.78"/>
<text text-anchor="middle" x="60" y="-966.28" font-family="Avenir Next" font-size="10.00" fill="#3f251d">PHYS429A</text>
</a>
</g>
</g>
<!-- course__PHYS460A -->
<g id="node5" class="node">
<title>course__PHYS460A</title>
<g id="a_node5"><a xlink:href="../../../courses/PHYS460A.html" xlink:title="PHYS460A: Colloquium I" target="_top">
<path fill="#d7e9ef" stroke="#1f4f66" stroke-width="1.6" d="M81.5,-1035.78C81.5,-1035.78 38.5,-1035.78 38.5,-1035.78 32.5,-1035.78 26.5,-1029.78 26.5,-1023.78 26.5,-1023.78 26.5,-1011.78 26.5,-1011.78 26.5,-1005.78 32.5,-999.78 38.5,-999.78 38.5,-999.78 81.5,-999.78 81.5,-999.78 87.5,-999.78 93.5,-1005.78 93.5,-1011.78 93.5,-1011.78 93.5,-1023.78 93.5,-1023.78 93.5,-1029.78 87.5,-1035.78 81.5,-1035.78"/>
<text text-anchor="middle" x="60" y="-1015.28" font-family="Avenir Next" font-size="10.00" fill="#17232b">PHYS460A</text>
</a>
</g>
</g>
<!-- course__PHYS460B -->
<g id="node17" class="node">
<title>course__PHYS460B</title>
<g id="a_node17"><a xlink:href="../../../courses/PHYS460B.html" xlink:title="PHYS460B: Colloquium II" target="_top">
<path fill="#d7e9ef" stroke="#1f4f66" stroke-width="1.6" d="M324,-1035.78C324,-1035.78 281,-1035.78 281,-1035.78 275,-1035.78 269,-1029.78 269,-1023.78 269,-1023.78 269,-1011.78 269,-1011.78 269,-1005.78 275,-999.78 281,-999.78 281,-999.78 324,-999.78 324,-999.78 330,-999.78 336,-1005.78 336,-1011.78 336,-1011.78 336,-1023.78 336,-1023.78 336,-1029.78 330,-1035.78 324,-1035.78"/>
<text text-anchor="middle" x="302.5" y="-1015.28" font-family="Avenir Next" font-size="10.00" fill="#17232b">PHYS460B</text>
</a>
</g>
</g>
<!-- course__PHYS460A&#45;&gt;course__PHYS460B -->
<g id="edge97" class="edge">
<title>course__PHYS460A&#45;&gt;course__PHYS460B</title>
<path fill="none" stroke="#5d6972" stroke-width="1.2" d="M93.69,-1017.78C137.33,-1017.78 214.58,-1017.78 261.61,-1017.78"/>
<polygon fill="#5d6972" stroke="#5d6972" stroke-width="1.2" points="261.89,-1020.23 268.89,-1017.78 261.89,-1015.33 261.89,-1020.23"/>
</g>
<!-- course__PHYS499 -->
<g id="node6" class="node">
<title>course__PHYS499</title>
<g id="a_node6"><a xlink:href="../../../courses/PHYS499.html" xlink:title="PHYS499: Honours Thesis" target="_top">
<path fill="#efd8cf" stroke="#8f5945" stroke-width="1.3" d="M78,-1084.78C78,-1084.78 42,-1084.78 42,-1084.78 36,-1084.78 30,-1078.78 30,-1072.78 30,-1072.78 30,-1060.78 30,-1060.78 30,-1054.78 36,-1048.78 42,-1048.78 42,-1048.78 78,-1048.78 78,-1048.78 84,-1048.78 90,-1054.78 90,-1060.78 90,-1060.78 90,-1072.78 90,-1072.78 90,-1078.78 84,-1084.78 78,-1084.78"/>
<text text-anchor="middle" x="60" y="-1064.28" font-family="Avenir Next" font-size="10.00" fill="#3f251d">PHYS499</text>
</a>
</g>
</g>
<!-- course__CHEM091 -->
<g id="node7" class="node">
<title>course__CHEM091</title>
<g id="a_node7"><a xlink:href="../../../courses/CHEM091.html" xlink:title="CHEM091: Introduction to Chemistry" target="_top">
<path fill="#f9f9f9" stroke="#363636" d="M78.5,-790.78C78.5,-790.78 41.5,-790.78 41.5,-790.78 35.5,-790.78 29.5,-784.78 29.5,-778.78 29.5,-778.78 29.5,-766.78 29.5,-766.78 29.5,-760.78 35.5,-754.78 41.5,-754.78 41.5,-754.78 78.5,-754.78 78.5,-754.78 84.5,-754.78 90.5,-760.78 90.5,-766.78 90.5,-766.78 90.5,-778.78 90.5,-778.78 90.5,-784.78 84.5,-790.78 78.5,-790.78"/>
<text text-anchor="middle" x="60" y="-770.58" font-family="Avenir Next" font-size="9.00" fill="#363636">CHEM091</text>
</a>
</g>
</g>
<!-- course__CHEM091&#45;&gt;course__CHEM102 -->
<g id="edge1" class="edge">
<title>course__CHEM091&#45;&gt;course__CHEM102</title>
<path fill="none" stroke="#5d6972" stroke-width="1.2" d="M90.97,-772.78C134.57,-772.78 215.47,-772.78 263.29,-772.78"/>
<polygon fill="#5d6972" stroke="#5d6972" stroke-width="1.2" points="263.39,-775.23 270.39,-772.78 263.39,-770.33 263.39,-775.23"/>
</g>
<!-- course__EOS110 -->
<g id="node8" class="node">
<title>course__EOS110</title>
<g id="a_node8"><a xlink:href="../../../courses/EOS110.html" xlink:title="Equivalent or cross&#45;listed: EOS110: Oceans and Atmosphere | EOS350: Understanding the Oceans" target="_top">
<path fill="#f9f9f9" stroke="#363636" d="M97.5,-741.78C97.5,-741.78 22.5,-741.78 22.5,-741.78 16.5,-741.78 10.5,-735.78 10.5,-729.78 10.5,-729.78 10.5,-717.78 10.5,-717.78 10.5,-711.78 16.5,-705.78 22.5,-705.78 22.5,-705.78 97.5,-705.78 97.5,-705.78 103.5,-705.78 109.5,-711.78 109.5,-717.78 109.5,-717.78 109.5,-729.78 109.5,-729.78 109.5,-735.78 103.5,-741.78 97.5,-741.78"/>
<text text-anchor="middle" x="60" y="-721.58" font-family="Avenir Next" font-size="9.00" fill="#363636">EOS110 / EOS350</text>
</a>
</g>
</g>
<!-- choice_EOS312_0_0 -->
<g id="node48" class="node">
<title>choice_EOS312_0_0</title>
<path fill="#fff7ee" stroke="#b7793f" stroke-width="1.1" d="M1246,-692.78C1246,-692.78 1216,-692.78 1216,-692.78 1210,-692.78 1204,-686.78 1204,-680.78 1204,-680.78 1204,-668.78 1204,-668.78 1204,-662.78 1210,-656.78 1216,-656.78 1216,-656.78 1246,-656.78 1246,-656.78 1252,-656.78 1258,-662.78 1258,-668.78 1258,-668.78 1258,-680.78 1258,-680.78 1258,-686.78 1252,-692.78 1246,-692.78"/>
<text text-anchor="middle" x="1231" y="-672.58" font-family="Avenir Next" font-size="9.00">1 of</text>
</g>
<!-- course__EOS110&#45;&gt;choice_EOS312_0_0 -->
<g id="edge11" class="edge">
<title>course__EOS110&#45;&gt;choice_EOS312_0_0</title>
<path fill="none" stroke="#7a8389" d="M109.55,-725.73C220.27,-729.99 499.96,-739.78 734,-739.78 734,-739.78 734,-739.78 987,-739.78 1064.42,-739.78 1151.15,-708.61 1197.16,-689.44"/>
<polygon fill="#7a8389" stroke="#7a8389" points="1198.15,-691.68 1203.65,-686.7 1196.25,-687.16 1198.15,-691.68"/>
</g>
<!-- course__EOS120 -->
<g id="node9" class="node">
<title>course__EOS120</title>
<g id="a_node9"><a xlink:href="../../../courses/EOS120.html" xlink:title="EOS120: The Dynamic Earth" target="_top">
<path fill="#f9f9f9" stroke="#363636" d="M75,-888.78C75,-888.78 45,-888.78 45,-888.78 39,-888.78 33,-882.78 33,-876.78 33,-876.78 33,-864.78 33,-864.78 33,-858.78 39,-852.78 45,-852.78 45,-852.78 75,-852.78 75,-852.78 81,-852.78 87,-858.78 87,-864.78 87,-864.78 87,-876.78 87,-876.78 87,-882.78 81,-888.78 75,-888.78"/>
<text text-anchor="middle" x="60" y="-868.58" font-family="Avenir Next" font-size="9.00" fill="#363636">EOS120</text>
</a>
</g>
</g>
<!-- course__EOS120&#45;&gt;course__EOS313 -->
<g id="edge16" class="edge">
<title>course__EOS120&#45;&gt;course__EOS313</title>
<path fill="none" stroke="#5d6972" stroke-width="1.2" d="M87.2,-865.99C131.2,-857.94 219.88,-841.71 268.22,-832.87"/>
<polygon fill="#5d6972" stroke="#5d6972" stroke-width="1.2" points="268.89,-835.24 275.34,-831.57 268.01,-830.42 268.89,-835.24"/>
</g>
<!-- course__MATH151 -->
<g id="node10" class="node">
<title>course__MATH151</title>
<g id="a_node10"><a xlink:href="../../../courses/MATH151.html" xlink:title="MATH151: Finite Mathematics" target="_top">
<path fill="#f9f9f9" stroke="#363636" d="M77.5,-506.78C77.5,-506.78 42.5,-506.78 42.5,-506.78 36.5,-506.78 30.5,-500.78 30.5,-494.78 30.5,-494.78 30.5,-482.78 30.5,-482.78 30.5,-476.78 36.5,-470.78 42.5,-470.78 42.5,-470.78 77.5,-470.78 77.5,-470.78 83.5,-470.78 89.5,-476.78 89.5,-482.78 89.5,-482.78 89.5,-494.78 89.5,-494.78 89.5,-500.78 83.5,-506.78 77.5,-506.78"/>
<text text-anchor="middle" x="60" y="-486.58" font-family="Avenir Next" font-size="9.00" fill="#363636">MATH151</text>
</a>
</g>
</g>
<!-- course__MATH151&#45;&gt;choice_EOS311_0_2 -->
<g id="edge7" class="edge">
<title>course__MATH151&#45;&gt;choice_EOS311_0_2</title>
<path fill="none" stroke="#7a8389" d="M85.28,-506.83C129.4,-539.34 221.56,-605.74 258,-620.78 309.99,-642.25 375.25,-651.47 414.04,-655.28"/>
<polygon fill="#7a8389" stroke="#7a8389" points="414.24,-657.75 421.43,-655.97 414.69,-652.88 414.24,-657.75"/>
</g>
<!-- course__MATH151&#45;&gt;choice_MATH211_0 -->
<g id="edge45" class="edge">
<title>course__MATH151&#45;&gt;choice_MATH211_0</title>
<path fill="none" stroke="#7a8389" d="M89.5,-483.84C108.87,-480.49 134.54,-476.04 154.83,-472.53"/>
<polygon fill="#7a8389" stroke="#7a8389" points="155.28,-474.93 161.76,-471.33 154.44,-470.11 155.28,-474.93"/>
</g>
<!-- course__EOS311 -->
<g id="node21" class="node">
<title>course__EOS311</title>
<g id="a_node21"><a xlink:href="../../../courses/EOS311.html" xlink:title="Equivalent or cross&#45;listed: BIOL311: Biological Oceanography | EOS311: Biological Oceanography" target="_top">
<path fill="#ead9b8" stroke="#8f6a3b" stroke-width="1.3" d="M648,-719.78C648,-719.78 568,-719.78 568,-719.78 562,-719.78 556,-713.78 556,-707.78 556,-707.78 556,-695.78 556,-695.78 556,-689.78 562,-683.78 568,-683.78 568,-683.78 648,-683.78 648,-683.78 654,-683.78 660,-689.78 660,-695.78 660,-695.78 660,-707.78 660,-707.78 660,-713.78 654,-719.78 648,-719.78"/>
<text text-anchor="middle" x="608" y="-699.28" font-family="Avenir Next" font-size="10.00" fill="#3f3120">BIOL311 / EOS311</text>
</a>
</g>
</g>
<!-- course__CHEM102&#45;&gt;course__EOS311 -->
<g id="edge8" class="edge">
<title>course__CHEM102&#45;&gt;course__EOS311</title>
<path fill="none" stroke="#5d6972" stroke-width="1.2" d="M334.55,-765.52C384.92,-753.73 485.19,-730.28 549.03,-715.34"/>
<polygon fill="#5d6972" stroke="#5d6972" stroke-width="1.2" points="549.61,-717.72 555.86,-713.74 548.49,-712.95 549.61,-717.72"/>
</g>
<!-- course__EOS312 -->
<g id="node39" class="node">
<title>course__EOS312</title>
<g id="a_node39"><a xlink:href="../../../courses/EOS312.html" xlink:title="EOS312: Introductory Chemical Oceanography" target="_top">
<path fill="#ead9b8" stroke="#8f6a3b" stroke-width="1.3" d="M1348.5,-692.78C1348.5,-692.78 1318.5,-692.78 1318.5,-692.78 1312.5,-692.78 1306.5,-686.78 1306.5,-680.78 1306.5,-680.78 1306.5,-668.78 1306.5,-668.78 1306.5,-662.78 1312.5,-656.78 1318.5,-656.78 1318.5,-656.78 1348.5,-656.78 1348.5,-656.78 1354.5,-656.78 1360.5,-662.78 1360.5,-668.78 1360.5,-668.78 1360.5,-680.78 1360.5,-680.78 1360.5,-686.78 1354.5,-692.78 1348.5,-692.78"/>
<text text-anchor="middle" x="1333.5" y="-672.28" font-family="Avenir Next" font-size="10.00" fill="#3f3120">EOS312</text>
</a>
</g>
</g>
<!-- course__CHEM102&#45;&gt;course__EOS312 -->
<g id="edge15" class="edge">
<title>course__CHEM102&#45;&gt;course__EOS312</title>
<path fill="none" stroke="#5d6972" stroke-width="1.2" d="M334.52,-772.61C389.45,-772.32 507.41,-771.78 607,-771.78 607,-771.78 607,-771.78 1109.5,-771.78 1184.15,-771.78 1262.05,-725.51 1303.11,-696.89"/>
<polygon fill="#5d6972" stroke="#5d6972" stroke-width="1.2" points="1304.59,-698.84 1308.9,-692.8 1301.77,-694.84 1304.59,-698.84"/>
</g>
<!-- course__MATH248 -->
<g id="node23" class="node">
<title>course__MATH248</title>
<g id="a_node23"><a xlink:href="../../../courses/MATH248.html" xlink:title="Equivalent or cross&#45;listed: MATH248: Computer Assisted Mathematics | PHYS248: Computer Assisted Physics" target="_top">
<path fill="#d7e9ef" stroke="#1f4f66" stroke-width="1.6" d="M654,-222.78C654,-222.78 562,-222.78 562,-222.78 556,-222.78 550,-216.78 550,-210.78 550,-210.78 550,-198.78 550,-198.78 550,-192.78 556,-186.78 562,-186.78 562,-186.78 654,-186.78 654,-186.78 660,-186.78 666,-192.78 666,-198.78 666,-198.78 666,-210.78 666,-210.78 666,-216.78 660,-222.78 654,-222.78"/>
<text text-anchor="middle" x="608" y="-202.28" font-family="Avenir Next" font-size="10.00" fill="#17232b">MATH248 / PHYS248</text>
</a>
</g>
</g>
<!-- course__CSC110&#45;&gt;course__MATH248 -->
<g id="edge49" class="edge">
<title>course__CSC110&#45;&gt;course__MATH248</title>
<path fill="none" stroke="#5d6972" stroke-width="1.2" d="M306.93,-453.61C314.81,-416.68 337.65,-332.31 389,-284.78 431.58,-245.36 495.18,-224.98 542.72,-214.69"/>
<polygon fill="#5d6972" stroke="#5d6972" stroke-width="1.2" points="543.26,-217.08 549.61,-213.24 542.25,-212.28 543.26,-217.08"/>
</g>
<!-- choice_EOS325_0_2_0 -->
<g id="node49" class="node">
<title>choice_EOS325_0_2_0</title>
<path fill="#fff7ee" stroke="#b7793f" stroke-width="1.1" d="M750,-638.78C750,-638.78 720,-638.78 720,-638.78 714,-638.78 708,-632.78 708,-626.78 708,-626.78 708,-614.78 708,-614.78 708,-608.78 714,-602.78 720,-602.78 720,-602.78 750,-602.78 750,-602.78 756,-602.78 762,-608.78 762,-614.78 762,-614.78 762,-626.78 762,-626.78 762,-632.78 756,-638.78 750,-638.78"/>
<text text-anchor="middle" x="735" y="-618.58" font-family="Avenir Next" font-size="9.00">1 of</text>
</g>
<!-- course__CSC110&#45;&gt;choice_EOS325_0_2_0 -->
<g id="edge21" class="edge">
<title>course__CSC110&#45;&gt;choice_EOS325_0_2_0</title>
<path fill="none" stroke="#7a8389" d="M339.49,-489.95C342.13,-491.79 344.67,-493.73 347,-495.78 370.66,-516.53 362.85,-535.28 389,-552.78 396.66,-557.9 540.96,-590.97 550,-592.78 602.43,-603.26 663.95,-611.89 700.91,-616.68"/>
<polygon fill="#7a8389" stroke="#7a8389" points="700.71,-619.13 707.97,-617.59 701.34,-614.27 700.71,-619.13"/>
</g>
<!-- choice_EOS401_0 -->
<g id="node52" class="node">
<title>choice_EOS401_0</title>
<path fill="#fff7ee" stroke="#b7793f" stroke-width="1.1" d="M1451,-711.78C1451,-711.78 1421,-711.78 1421,-711.78 1415,-711.78 1409,-705.78 1409,-699.78 1409,-699.78 1409,-687.78 1409,-687.78 1409,-681.78 1415,-675.78 1421,-675.78 1421,-675.78 1451,-675.78 1451,-675.78 1457,-675.78 1463,-681.78 1463,-687.78 1463,-687.78 1463,-699.78 1463,-699.78 1463,-705.78 1457,-711.78 1451,-711.78"/>
<text text-anchor="middle" x="1436" y="-691.58" font-family="Avenir Next" font-size="9.00">3 of</text>
</g>
<!-- course__EOS313&#45;&gt;choice_EOS401_0 -->
<g id="edge33" class="edge">
<title>course__EOS313&#45;&gt;choice_EOS401_0</title>
<path fill="none" stroke="#7a8389" d="M329.87,-824.6C382.51,-820.44 504.39,-811.78 607,-811.78 607,-811.78 607,-811.78 1232,-811.78 1306.49,-811.78 1378.06,-751.66 1412.93,-717.25"/>
<polygon fill="#7a8389" stroke="#7a8389" points="1415,-718.64 1418.21,-711.96 1411.53,-715.18 1415,-718.64"/>
</g>
<!-- course__MATH200 -->
<g id="node18" class="node">
<title>course__MATH200</title>
<g id="a_node18"><a xlink:href="../../../courses/MATH200.html" xlink:title="Equivalent or cross&#45;listed: MATH200: Calculus III | MATH202: Intermediate Calculus for CSC and EOS" target="_top">
<path fill="#d7e9ef" stroke="#1f4f66" stroke-width="1.6" d="M496,-327.78C496,-327.78 401,-327.78 401,-327.78 395,-327.78 389,-321.78 389,-315.78 389,-315.78 389,-303.78 389,-303.78 389,-297.78 395,-291.78 401,-291.78 401,-291.78 496,-291.78 496,-291.78 502,-291.78 508,-297.78 508,-303.78 508,-303.78 508,-315.78 508,-315.78 508,-321.78 502,-327.78 496,-327.78"/>
<text text-anchor="middle" x="448.5" y="-307.28" font-family="Avenir Next" font-size="10.00" fill="#17232b">MATH200 / MATH202</text>
</a>
</g>
</g>
<!-- course__MATH101&#45;&gt;course__MATH200 -->
<g id="edge42" class="edge">
<title>course__MATH101&#45;&gt;course__MATH200</title>
<path fill="none" stroke="#5d6972" stroke-width="1.2" d="M321.03,-578.54C329.59,-569 339.61,-556.82 347,-544.78 390.95,-473.16 424.87,-378.91 439.55,-334.7"/>
<polygon fill="#5d6972" stroke="#5d6972" stroke-width="1.2" points="441.88,-335.46 441.74,-328.04 437.23,-333.93 441.88,-335.46"/>
</g>
<!-- course__MATH101&#45;&gt;course__PHYS102B -->
<g id="edge61" class="edge">
<title>course__MATH101&#45;&gt;course__PHYS102B</title>
<path fill="none" stroke="#5d6972" stroke-width="1.2" d="M334.04,-582.36C356.53,-571.74 387.2,-557.25 410.99,-546.02"/>
<polygon fill="#5d6972" stroke="#5d6972" stroke-width="1.2" points="412.22,-548.15 417.5,-542.95 410.12,-543.72 412.22,-548.15"/>
</g>
<!-- course__STAT254 -->
<g id="node20" class="node">
<title>course__STAT254</title>
<g id="a_node20"><a xlink:href="../../../courses/STAT254.html" xlink:title="Collapsed in simplified view: STAT254: Probability and Statistics for Engineers | STAT255: Statistics for Life Sciences I | STAT260: Introduction to Probability and Statistics I" target="_top">
<path fill="#d7e9ef" stroke="#1f4f66" stroke-width="1.6" d="M479.5,-626.78C479.5,-626.78 417.5,-626.78 417.5,-626.78 411.5,-626.78 405.5,-620.78 405.5,-614.78 405.5,-614.78 405.5,-602.78 405.5,-602.78 405.5,-596.78 411.5,-590.78 417.5,-590.78 417.5,-590.78 479.5,-590.78 479.5,-590.78 485.5,-590.78 491.5,-596.78 491.5,-602.78 491.5,-602.78 491.5,-614.78 491.5,-614.78 491.5,-620.78 485.5,-626.78 479.5,-626.78"/>
<text text-anchor="middle" x="448.5" y="-606.28" font-family="Avenir Next" font-size="10.00" fill="#17232b">Intro statistics</text>
</a>
</g>
</g>
<!-- course__MATH101&#45;&gt;course__STAT254 -->
<g id="edge99" class="edge">
<title>course__MATH101&#45;&gt;course__STAT254</title>
<path fill="none" stroke="#5d6972" stroke-width="1.2" d="M334.04,-599.32C352.66,-600.88 376.88,-602.9 398.17,-604.67"/>
<polygon fill="#5d6972" stroke="#5d6972" stroke-width="1.2" points="398.08,-607.12 405.26,-605.26 398.49,-602.24 398.08,-607.12"/>
</g>
<!-- course__MATH101&#45;&gt;choice_EOS311_0_2 -->
<g id="edge6" class="edge">
<title>course__MATH101&#45;&gt;choice_EOS311_0_2</title>
<path fill="none" stroke="#7a8389" d="M334.04,-609.72C357.73,-619.75 390.52,-633.64 414.75,-643.91"/>
<polygon fill="#7a8389" stroke="#7a8389" points="413.95,-646.23 421.35,-646.7 415.86,-641.72 413.95,-646.23"/>
</g>
<!-- course__MATH211 -->
<g id="node15" class="node">
<title>course__MATH211</title>
<g id="a_node15"><a xlink:href="../../../courses/MATH211.html" xlink:title="MATH211: Matrix Algebra I" target="_top">
<path fill="#d7e9ef" stroke="#1f4f66" stroke-width="1.6" d="M322,-114.78C322,-114.78 283,-114.78 283,-114.78 277,-114.78 271,-108.78 271,-102.78 271,-102.78 271,-90.78 271,-90.78 271,-84.78 277,-78.78 283,-78.78 283,-78.78 322,-78.78 322,-78.78 328,-78.78 334,-84.78 334,-90.78 334,-90.78 334,-102.78 334,-102.78 334,-108.78 328,-114.78 322,-114.78"/>
<text text-anchor="middle" x="302.5" y="-94.28" font-family="Avenir Next" font-size="10.00" fill="#17232b">MATH211</text>
</a>
</g>
</g>
<!-- course__MATH211&#45;&gt;course__MATH248 -->
<g id="edge47" class="edge">
<title>course__MATH211&#45;&gt;course__MATH248</title>
<path fill="none" stroke="#5d6972" stroke-width="1.2" d="M334.27,-107.73C384.65,-125.66 485.52,-161.55 549.46,-184.31"/>
<polygon fill="#5d6972" stroke="#5d6972" stroke-width="1.2" points="548.89,-186.7 556.3,-186.74 550.53,-182.08 548.89,-186.7"/>
</g>
<!-- course__MATH342 -->
<g id="node28" class="node">
<title>course__MATH342</title>
<g id="a_node28"><a xlink:href="../../../courses/MATH342.html" xlink:title="MATH342: Intermediate Ordinary Differential Equations" target="_top">
<path fill="#d7e9ef" stroke="#1f4f66" stroke-width="1.6" d="M880,-97.78C880,-97.78 841,-97.78 841,-97.78 835,-97.78 829,-91.78 829,-85.78 829,-85.78 829,-73.78 829,-73.78 829,-67.78 835,-61.78 841,-61.78 841,-61.78 880,-61.78 880,-61.78 886,-61.78 892,-67.78 892,-73.78 892,-73.78 892,-85.78 892,-85.78 892,-91.78 886,-97.78 880,-97.78"/>
<text text-anchor="middle" x="860.5" y="-77.28" font-family="Avenir Next" font-size="10.00" fill="#17232b">MATH342</text>
</a>
</g>
</g>
<!-- course__MATH211&#45;&gt;course__MATH342 -->
<g id="edge54" class="edge">
<title>course__MATH211&#45;&gt;course__MATH342</title>
<path fill="none" stroke="#5d6972" stroke-width="1.2" d="M334.18,-84.88C408.45,-57.73 603.45,3.65 762,-33.78 782.31,-38.57 785.15,-45.83 804,-54.78 809.89,-57.58 816.16,-60.48 822.29,-63.27"/>
<polygon fill="#5d6972" stroke="#5d6972" stroke-width="1.2" points="821.48,-65.59 828.86,-66.25 823.5,-61.13 821.48,-65.59"/>
</g>
<!-- course__MATH346 -->
<g id="node29" class="node">
<title>course__MATH346</title>
<g id="a_node29"><a xlink:href="../../../courses/MATH346.html" xlink:title="MATH346: Introduction to Partial Differential Equations" target="_top">
<path fill="#d7e9ef" stroke="#1f4f66" stroke-width="1.6" d="M880,-48.78C880,-48.78 841,-48.78 841,-48.78 835,-48.78 829,-42.78 829,-36.78 829,-36.78 829,-24.78 829,-24.78 829,-18.78 835,-12.78 841,-12.78 841,-12.78 880,-12.78 880,-12.78 886,-12.78 892,-18.78 892,-24.78 892,-24.78 892,-36.78 892,-36.78 892,-42.78 886,-48.78 880,-48.78"/>
<text text-anchor="middle" x="860.5" y="-28.28" font-family="Avenir Next" font-size="10.00" fill="#17232b">MATH346</text>
</a>
</g>
</g>
<!-- course__MATH211&#45;&gt;course__MATH346 -->
<g id="edge56" class="edge">
<title>course__MATH211&#45;&gt;course__MATH346</title>
<path fill="none" stroke="#5d6972" stroke-width="1.2" d="M321.71,-78.64C337.89,-63.76 362.95,-43.61 389,-33.78 540.52,23.41 739.56,-6.19 821.62,-22.44"/>
<polygon fill="#5d6972" stroke="#5d6972" stroke-width="1.2" points="821.38,-24.89 828.73,-23.88 822.35,-20.09 821.38,-24.89"/>
</g>
<!-- course__PHYS325 -->
<g id="node32" class="node">
<title>course__PHYS325</title>
<g id="a_node32"><a xlink:href="../../../courses/PHYS325.html" xlink:title="PHYS325: Optics" target="_top">
<path fill="#d7e9ef" stroke="#1f4f66" stroke-width="1.6" d="M878.5,-200.78C878.5,-200.78 842.5,-200.78 842.5,-200.78 836.5,-200.78 830.5,-194.78 830.5,-188.78 830.5,-188.78 830.5,-176.78 830.5,-176.78 830.5,-170.78 836.5,-164.78 842.5,-164.78 842.5,-164.78 878.5,-164.78 878.5,-164.78 884.5,-164.78 890.5,-170.78 890.5,-176.78 890.5,-176.78 890.5,-188.78 890.5,-188.78 890.5,-194.78 884.5,-200.78 878.5,-200.78"/>
<text text-anchor="middle" x="860.5" y="-180.28" font-family="Avenir Next" font-size="10.00" fill="#17232b">PHYS325</text>
</a>
</g>
</g>
<!-- course__MATH211&#45;&gt;course__PHYS325 -->
<g id="edge82" class="edge">
<title>course__MATH211&#45;&gt;course__PHYS325</title>
<path fill="none" stroke="#5d6972" stroke-width="1.2" d="M334.02,-100.91C374.01,-106.38 446.31,-116.41 508,-125.78 623.35,-143.31 759.66,-165.97 823.33,-176.67"/>
<polygon fill="#5d6972" stroke="#5d6972" stroke-width="1.2" points="823.06,-179.11 830.37,-177.85 823.87,-174.28 823.06,-179.11"/>
</g>
<!-- course__PHYS102A&#45;&gt;course__PHYS102B -->
<g id="edge59" class="edge">
<title>course__PHYS102A&#45;&gt;course__PHYS102B</title>
<path fill="none" stroke="#5d6972" stroke-width="1.2" d="M332.29,-522.38C354.61,-523.62 385.71,-525.35 409.97,-526.7"/>
<polygon fill="#5d6972" stroke="#5d6972" stroke-width="1.2" points="410.14,-529.16 417.27,-527.1 410.41,-524.27 410.14,-529.16"/>
</g>
<!-- course__MATH200&#45;&gt;course__STAT254 -->
<g id="edge98" class="edge">
<title>course__MATH200&#45;&gt;course__STAT254</title>
<path fill="none" stroke="#5d6972" stroke-width="1.2" d="M432.91,-327.9C400.09,-368.35 329.95,-468.57 368,-546.28 376.24,-563.11 391.45,-576.72 406.44,-586.88"/>
<polygon fill="#5d6972" stroke="#5d6972" stroke-width="1.2" points="405.18,-588.99 412.39,-590.75 407.85,-584.88 405.18,-588.99"/>
</g>
<!-- course__MATH204 -->
<g id="node22" class="node">
<title>course__MATH204</title>
<g id="a_node22"><a xlink:href="../../../courses/MATH204.html" xlink:title="MATH204: Calculus IV" target="_top">
<path fill="#d7e9ef" stroke="#1f4f66" stroke-width="1.6" d="M627.5,-348.78C627.5,-348.78 588.5,-348.78 588.5,-348.78 582.5,-348.78 576.5,-342.78 576.5,-336.78 576.5,-336.78 576.5,-324.78 576.5,-324.78 576.5,-318.78 582.5,-312.78 588.5,-312.78 588.5,-312.78 627.5,-312.78 627.5,-312.78 633.5,-312.78 639.5,-318.78 639.5,-324.78 639.5,-324.78 639.5,-336.78 639.5,-336.78 639.5,-342.78 633.5,-348.78 627.5,-348.78"/>
<text text-anchor="middle" x="608" y="-328.28" font-family="Avenir Next" font-size="10.00" fill="#17232b">MATH204</text>
</a>
</g>
</g>
<!-- course__MATH200&#45;&gt;course__MATH204 -->
<g id="edge43" class="edge">
<title>course__MATH200&#45;&gt;course__MATH204</title>
<path fill="none" stroke="#5d6972" stroke-width="1.2" d="M508.15,-317.6C528.53,-320.32 550.84,-323.29 569.1,-325.73"/>
<polygon fill="#5d6972" stroke="#5d6972" stroke-width="1.2" points="568.88,-328.17 576.14,-326.67 569.53,-323.31 568.88,-328.17"/>
</g>
<!-- course__MATH200&#45;&gt;course__MATH248 -->
<g id="edge48" class="edge">
<title>course__MATH200&#45;&gt;course__MATH248</title>
<path fill="none" stroke="#5d6972" stroke-width="1.2" d="M476.43,-291.66C486.41,-284.88 497.77,-277.05 508,-269.78 526.91,-256.34 530.68,-251.63 550,-238.78 556.04,-234.76 562.57,-230.66 568.96,-226.76"/>
<polygon fill="#5d6972" stroke="#5d6972" stroke-width="1.2" points="570.57,-228.66 575.3,-222.94 568.04,-224.46 570.57,-228.66"/>
</g>
<!-- course__PHYS216 -->
<g id="node24" class="node">
<title>course__PHYS216</title>
<g id="a_node24"><a xlink:href="../../../courses/PHYS216.html" xlink:title="PHYS216: Introductory Electricity and Magnetism" target="_top">
<path fill="#d7e9ef" stroke="#1f4f66" stroke-width="1.6" d="M626,-281.78C626,-281.78 590,-281.78 590,-281.78 584,-281.78 578,-275.78 578,-269.78 578,-269.78 578,-257.78 578,-257.78 578,-251.78 584,-245.78 590,-245.78 590,-245.78 626,-245.78 626,-245.78 632,-245.78 638,-251.78 638,-257.78 638,-257.78 638,-269.78 638,-269.78 638,-275.78 632,-281.78 626,-281.78"/>
<text text-anchor="middle" x="608" y="-261.28" font-family="Avenir Next" font-size="10.00" fill="#17232b">PHYS216</text>
</a>
</g>
</g>
<!-- course__MATH200&#45;&gt;course__PHYS216 -->
<g id="edge65" class="edge">
<title>course__MATH200&#45;&gt;course__PHYS216</title>
<path fill="none" stroke="#5d6972" stroke-width="1.2" d="M508.15,-292.65C529.15,-286.52 552.19,-279.79 570.75,-274.37"/>
<polygon fill="#5d6972" stroke="#5d6972" stroke-width="1.2" points="571.85,-276.6 577.88,-272.28 570.48,-271.89 571.85,-276.6"/>
</g>
<!-- choice_MATH342_0_1 -->
<g id="node54" class="node">
<title>choice_MATH342_0_1</title>
<path fill="#fff7ee" stroke="#b7793f" stroke-width="1.1" d="M750,-76.78C750,-76.78 720,-76.78 720,-76.78 714,-76.78 708,-70.78 708,-64.78 708,-64.78 708,-52.78 708,-52.78 708,-46.78 714,-40.78 720,-40.78 720,-40.78 750,-40.78 750,-40.78 756,-40.78 762,-46.78 762,-52.78 762,-52.78 762,-64.78 762,-64.78 762,-70.78 756,-76.78 750,-76.78"/>
<text text-anchor="middle" x="735" y="-56.58" font-family="Avenir Next" font-size="9.00">1 of</text>
</g>
<!-- course__MATH200&#45;&gt;choice_MATH342_0_1 -->
<g id="edge52" class="edge">
<title>course__MATH200&#45;&gt;choice_MATH342_0_1</title>
<path fill="none" stroke="#7a8389" d="M460.85,-291.44C477.95,-264.77 512.33,-214.68 550,-179.78 597.46,-135.81 662.57,-97.11 701.26,-75.91"/>
<polygon fill="#7a8389" stroke="#7a8389" points="702.72,-77.91 707.7,-72.41 700.38,-73.6 702.72,-77.91"/>
</g>
<!-- course__PHYS102B&#45;&gt;course__EOS311 -->
<g id="edge10" class="edge">
<title>course__PHYS102B&#45;&gt;course__EOS311</title>
<path fill="none" stroke="#5d6972" stroke-width="1.2" d="M472.68,-546.84C484.37,-556.8 498.12,-569.94 508,-583.78 534.36,-620.69 517.76,-644.89 550,-676.78 550.87,-677.64 551.78,-678.48 552.71,-679.28"/>
<polygon fill="#5d6972" stroke="#5d6972" stroke-width="1.2" points="551.32,-681.31 558.37,-683.63 554.31,-677.42 551.32,-681.31"/>
</g>
<!-- course__PHYS102B&#45;&gt;course__MATH248 -->
<g id="edge50" class="edge">
<title>course__PHYS102B&#45;&gt;course__MATH248</title>
<path fill="none" stroke="#5d6972" stroke-width="1.2" d="M455.02,-510.56C473.32,-450.44 531.92,-260.99 550,-238.78 553.53,-234.44 557.77,-230.53 562.32,-227.04"/>
<polygon fill="#5d6972" stroke="#5d6972" stroke-width="1.2" points="563.94,-228.89 568.23,-222.83 561.1,-224.9 563.94,-228.89"/>
</g>
<!-- course__PHYS102B&#45;&gt;course__PHYS216 -->
<g id="edge64" class="edge">
<title>course__PHYS102B&#45;&gt;course__PHYS216</title>
<path fill="none" stroke="#5d6972" stroke-width="1.2" d="M454.24,-510.62C465.46,-470.3 496.76,-371.68 550,-305.78 556.16,-298.16 564,-291.22 571.89,-285.26"/>
<polygon fill="#5d6972" stroke="#5d6972" stroke-width="1.2" points="573.67,-287 577.9,-280.91 570.8,-283.03 573.67,-287"/>
</g>
<!-- course__PHYS229 -->
<g id="node25" class="node">
<title>course__PHYS229</title>
<g id="a_node25"><a xlink:href="../../../courses/PHYS229.html" xlink:title="PHYS229: Introduction to Experimental Physics" target="_top">
<path fill="#d7e9ef" stroke="#1f4f66" stroke-width="1.6" d="M626,-508.78C626,-508.78 590,-508.78 590,-508.78 584,-508.78 578,-502.78 578,-496.78 578,-496.78 578,-484.78 578,-484.78 578,-478.78 584,-472.78 590,-472.78 590,-472.78 626,-472.78 626,-472.78 632,-472.78 638,-478.78 638,-484.78 638,-484.78 638,-496.78 638,-496.78 638,-502.78 632,-508.78 626,-508.78"/>
<text text-anchor="middle" x="608" y="-488.28" font-family="Avenir Next" font-size="10.00" fill="#17232b">PHYS229</text>
</a>
</g>
</g>
<!-- course__PHYS102B&#45;&gt;course__PHYS229 -->
<g id="edge68" class="edge">
<title>course__PHYS102B&#45;&gt;course__PHYS229</title>
<path fill="none" stroke="#5d6972" stroke-width="1.2" d="M479.87,-521.45C505.8,-515.2 543.15,-506.18 570.67,-499.55"/>
<polygon fill="#5d6972" stroke="#5d6972" stroke-width="1.2" points="571.56,-501.85 577.79,-497.83 570.41,-497.09 571.56,-501.85"/>
</g>
<!-- course__EOS314 -->
<g id="node26" class="node">
<title>course__EOS314</title>
<g id="a_node26"><a xlink:href="../../../courses/EOS314.html" xlink:title="EOS314: Descriptive Physical Oceanography" target="_top">
<path fill="#f9f9f9" stroke="#363636" d="M623,-670.78C623,-670.78 593,-670.78 593,-670.78 587,-670.78 581,-664.78 581,-658.78 581,-658.78 581,-646.78 581,-646.78 581,-640.78 587,-634.78 593,-634.78 593,-634.78 623,-634.78 623,-634.78 629,-634.78 635,-640.78 635,-646.78 635,-646.78 635,-658.78 635,-658.78 635,-664.78 629,-670.78 623,-670.78"/>
<text text-anchor="middle" x="608" y="-650.58" font-family="Avenir Next" font-size="9.00" fill="#363636">EOS314</text>
</a>
</g>
</g>
<!-- course__PHYS102B&#45;&gt;course__EOS314 -->
<g id="edge19" class="edge">
<title>course__PHYS102B&#45;&gt;course__EOS314</title>
<path fill="none" stroke="#5d6972" stroke-width="1.2" d="M472.4,-546.81C500.4,-568.85 547.79,-606.16 578.22,-630.12"/>
<polygon fill="#5d6972" stroke="#5d6972" stroke-width="1.2" points="577.05,-632.32 584.07,-634.73 580.09,-628.47 577.05,-632.32"/>
</g>
<!-- course__PHYS215 -->
<g id="node30" class="node">
<title>course__PHYS215</title>
<g id="a_node30"><a xlink:href="../../../courses/PHYS215.html" xlink:title="PHYS215: Introductory Quantum Physics" target="_top">
<path fill="#d7e9ef" stroke="#1f4f66" stroke-width="1.6" d="M878.5,-406.78C878.5,-406.78 842.5,-406.78 842.5,-406.78 836.5,-406.78 830.5,-400.78 830.5,-394.78 830.5,-394.78 830.5,-382.78 830.5,-382.78 830.5,-376.78 836.5,-370.78 842.5,-370.78 842.5,-370.78 878.5,-370.78 878.5,-370.78 884.5,-370.78 890.5,-376.78 890.5,-382.78 890.5,-382.78 890.5,-394.78 890.5,-394.78 890.5,-400.78 884.5,-406.78 878.5,-406.78"/>
<text text-anchor="middle" x="860.5" y="-386.28" font-family="Avenir Next" font-size="10.00" fill="#17232b">PHYS215</text>
</a>
</g>
</g>
<!-- course__PHYS102B&#45;&gt;course__PHYS215 -->
<g id="edge62" class="edge">
<title>course__PHYS102B&#45;&gt;course__PHYS215</title>
<path fill="none" stroke="#5d6972" stroke-width="1.2" d="M464.92,-510.75C483.11,-490.74 515.31,-459.12 550,-442.78 641.56,-399.64 763,-390.67 822.9,-389"/>
<polygon fill="#5d6972" stroke="#5d6972" stroke-width="1.2" points="823.3,-391.44 830.24,-388.82 823.18,-386.54 823.3,-391.44"/>
</g>
<!-- course__PHYS217 -->
<g id="node31" class="node">
<title>course__PHYS217</title>
<g id="a_node31"><a xlink:href="../../../courses/PHYS217.html" xlink:title="Equivalent or cross&#45;listed: PHYS217: Introductory Thermodynamics | PHYS317: Thermodynamics" target="_top">
<path fill="#d7e9ef" stroke="#1f4f66" stroke-width="1.6" d="M905,-482.78C905,-482.78 816,-482.78 816,-482.78 810,-482.78 804,-476.78 804,-470.78 804,-470.78 804,-458.78 804,-458.78 804,-452.78 810,-446.78 816,-446.78 816,-446.78 905,-446.78 905,-446.78 911,-446.78 917,-452.78 917,-458.78 917,-458.78 917,-470.78 917,-470.78 917,-476.78 911,-482.78 905,-482.78"/>
<text text-anchor="middle" x="860.5" y="-462.28" font-family="Avenir Next" font-size="10.00" fill="#17232b">PHYS217 / PHYS317</text>
</a>
</g>
</g>
<!-- course__PHYS102B&#45;&gt;course__PHYS217 -->
<g id="edge66" class="edge">
<title>course__PHYS102B&#45;&gt;course__PHYS217</title>
<path fill="none" stroke="#5d6972" stroke-width="1.2" d="M479.82,-528.61C521.87,-527.98 600.17,-525.32 666,-514.78 710.35,-507.68 759.32,-494.98 796.9,-484.15"/>
<polygon fill="#5d6972" stroke="#5d6972" stroke-width="1.2" points="797.74,-486.46 803.78,-482.15 796.38,-481.75 797.74,-486.46"/>
</g>
<!-- course__EOS325 -->
<g id="node33" class="node">
<title>course__EOS325</title>
<g id="a_node33"><a xlink:href="../../../courses/EOS325.html" xlink:title="EOS325: Earth System Modelling" target="_top">
<path fill="#f9f9f9" stroke="#363636" d="M875.5,-561.78C875.5,-561.78 845.5,-561.78 845.5,-561.78 839.5,-561.78 833.5,-555.78 833.5,-549.78 833.5,-549.78 833.5,-537.78 833.5,-537.78 833.5,-531.78 839.5,-525.78 845.5,-525.78 845.5,-525.78 875.5,-525.78 875.5,-525.78 881.5,-525.78 887.5,-531.78 887.5,-537.78 887.5,-537.78 887.5,-549.78 887.5,-549.78 887.5,-555.78 881.5,-561.78 875.5,-561.78"/>
<text text-anchor="middle" x="860.5" y="-541.58" font-family="Avenir Next" font-size="9.00" fill="#363636">EOS325</text>
</a>
</g>
</g>
<!-- course__PHYS102B&#45;&gt;course__EOS325 -->
<g id="edge23" class="edge">
<title>course__PHYS102B&#45;&gt;course__EOS325</title>
<path fill="none" stroke="#5d6972" stroke-width="1.2" d="M479.79,-532.46C499.71,-534.71 526.37,-537.42 550,-538.78 650.38,-544.57 769.35,-544.57 826.12,-544.15"/>
<polygon fill="#5d6972" stroke="#5d6972" stroke-width="1.2" points="826.41,-546.6 833.39,-544.09 826.37,-541.7 826.41,-546.6"/>
</g>
<!-- course__EOS340 -->
<g id="node34" class="node">
<title>course__EOS340</title>
<g id="a_node34"><a xlink:href="../../../courses/EOS340.html" xlink:title="Equivalent or cross&#45;listed: EOS340: Atmospheric Physics | PHYS340: Atmospheric Physics" target="_top">
<path fill="#d7e9ef" stroke="#1f4f66" stroke-width="1.6" d="M1150,-450.78C1150,-450.78 1067,-450.78 1067,-450.78 1061,-450.78 1055,-444.78 1055,-438.78 1055,-438.78 1055,-426.78 1055,-426.78 1055,-420.78 1061,-414.78 1067,-414.78 1067,-414.78 1150,-414.78 1150,-414.78 1156,-414.78 1162,-420.78 1162,-426.78 1162,-426.78 1162,-438.78 1162,-438.78 1162,-444.78 1156,-450.78 1150,-450.78"/>
<text text-anchor="middle" x="1108.5" y="-430.28" font-family="Avenir Next" font-size="10.00" fill="#17232b">EOS340 / PHYS340</text>
</a>
</g>
</g>
<!-- course__PHYS102B&#45;&gt;course__EOS340 -->
<g id="edge25" class="edge">
<title>course__PHYS102B&#45;&gt;course__EOS340</title>
<path fill="none" stroke="#5d6972" stroke-width="1.2" d="M470.51,-510.62C489.74,-495.29 519.72,-474.49 550,-465.78 658.94,-434.46 691.04,-479.43 804,-488.78 854.05,-492.92 867.29,-495.93 917,-488.78 964.06,-482.01 1015.7,-466.28 1053.33,-453.21"/>
<polygon fill="#5d6972" stroke="#5d6972" stroke-width="1.2" points="1054.4,-455.43 1060.19,-450.8 1052.78,-450.81 1054.4,-455.43"/>
</g>
<!-- course__EOS431 -->
<g id="node35" class="node">
<title>course__EOS431</title>
<g id="a_node35"><a xlink:href="../../../courses/EOS431.html" xlink:title="Equivalent or cross&#45;listed: EOS431: Physical Oceanography | PHYS441: Physical Oceanography" target="_top">
<path fill="#d7e9ef" stroke="#1f4f66" stroke-width="1.6" d="M1150,-600.78C1150,-600.78 1067,-600.78 1067,-600.78 1061,-600.78 1055,-594.78 1055,-588.78 1055,-588.78 1055,-576.78 1055,-576.78 1055,-570.78 1061,-564.78 1067,-564.78 1067,-564.78 1150,-564.78 1150,-564.78 1156,-564.78 1162,-570.78 1162,-576.78 1162,-576.78 1162,-588.78 1162,-588.78 1162,-594.78 1156,-600.78 1150,-600.78"/>
<text text-anchor="middle" x="1108.5" y="-580.28" font-family="Avenir Next" font-size="10.00" fill="#17232b">EOS431 / PHYS441</text>
</a>
</g>
</g>
<!-- course__PHYS102B&#45;&gt;course__EOS431 -->
<g id="edge37" class="edge">
<title>course__PHYS102B&#45;&gt;course__EOS431</title>
<path fill="none" stroke="#5d6972" stroke-width="1.2" d="M479.87,-538.43C531.52,-553.97 639.99,-582.78 734,-582.78 734,-582.78 734,-582.78 861.5,-582.78 925,-582.78 997.72,-582.78 1047.54,-582.78"/>
<polygon fill="#5d6972" stroke="#5d6972" stroke-width="1.2" points="1047.71,-585.23 1054.71,-582.78 1047.71,-580.33 1047.71,-585.23"/>
</g>
<!-- course__EOS311&#45;&gt;choice_EOS401_0 -->
<g id="edge31" class="edge">
<title>course__EOS311&#45;&gt;choice_EOS401_0</title>
<path fill="none" stroke="#7a8389" d="M660.31,-705.35C710.92,-708.56 790.5,-712.78 859.5,-712.78 859.5,-712.78 859.5,-712.78 1232,-712.78 1291.98,-712.78 1361.5,-704.46 1401.65,-698.83"/>
<polygon fill="#7a8389" stroke="#7a8389" points="1402.21,-701.22 1408.8,-697.81 1401.52,-696.37 1402.21,-701.22"/>
</g>
<!-- course__MATH301 -->
<g id="node27" class="node">
<title>course__MATH301</title>
<g id="a_node27"><a xlink:href="../../../courses/MATH301.html" xlink:title="MATH301: Complex Variables" target="_top">
<path fill="#d7e9ef" stroke="#1f4f66" stroke-width="1.6" d="M880,-357.78C880,-357.78 841,-357.78 841,-357.78 835,-357.78 829,-351.78 829,-345.78 829,-345.78 829,-333.78 829,-333.78 829,-327.78 835,-321.78 841,-321.78 841,-321.78 880,-321.78 880,-321.78 886,-321.78 892,-327.78 892,-333.78 892,-333.78 892,-345.78 892,-345.78 892,-351.78 886,-357.78 880,-357.78"/>
<text text-anchor="middle" x="860.5" y="-337.28" font-family="Avenir Next" font-size="10.00" fill="#17232b">MATH301</text>
</a>
</g>
</g>
<!-- course__MATH204&#45;&gt;course__MATH301 -->
<g id="edge51" class="edge">
<title>course__MATH204&#45;&gt;course__MATH301</title>
<path fill="none" stroke="#5d6972" stroke-width="1.2" d="M639.72,-331.88C685.66,-333.53 772.19,-336.64 821.87,-338.43"/>
<polygon fill="#5d6972" stroke="#5d6972" stroke-width="1.2" points="821.84,-340.88 828.92,-338.68 822.02,-335.98 821.84,-340.88"/>
</g>
<!-- course__MATH204&#45;&gt;course__PHYS215 -->
<g id="edge63" class="edge">
<title>course__MATH204&#45;&gt;course__PHYS215</title>
<path fill="none" stroke="#5d6972" stroke-width="1.2" d="M639.72,-337.89C686.16,-348.65 774.08,-369 823.47,-380.44"/>
<polygon fill="#5d6972" stroke="#5d6972" stroke-width="1.2" points="823.1,-382.87 830.47,-382.06 824.21,-378.09 823.1,-382.87"/>
</g>
<!-- course__MATH204&#45;&gt;course__PHYS217 -->
<g id="edge67" class="edge">
<title>course__MATH204&#45;&gt;course__PHYS217</title>
<path fill="none" stroke="#5d6972" stroke-width="1.2" d="M621.81,-349.04C638.81,-371.84 671.02,-410.31 708,-430.78 735.07,-445.76 768.32,-454.15 796.76,-458.84"/>
<polygon fill="#5d6972" stroke="#5d6972" stroke-width="1.2" points="796.59,-461.29 803.89,-459.95 797.35,-456.45 796.59,-461.29"/>
</g>
<!-- course__MATH204&#45;&gt;course__PHYS325 -->
<g id="edge81" class="edge">
<title>course__MATH204&#45;&gt;course__PHYS325</title>
<path fill="none" stroke="#5d6972" stroke-width="1.2" d="M639.72,-312.63C686.45,-285.02 775.16,-232.61 824.38,-203.53"/>
<polygon fill="#5d6972" stroke="#5d6972" stroke-width="1.2" points="825.69,-205.6 830.47,-199.93 823.2,-201.38 825.69,-205.6"/>
</g>
<!-- course__MATH204&#45;&gt;course__EOS325 -->
<g id="edge22" class="edge">
<title>course__MATH204&#45;&gt;course__EOS325</title>
<path fill="none" stroke="#5d6972" stroke-width="1.2" d="M621.16,-349.05C638.41,-374.05 671.93,-419.41 708,-450.78 745.07,-483.02 794.61,-511.12 826.79,-527.77"/>
<polygon fill="#5d6972" stroke="#5d6972" stroke-width="1.2" points="826.03,-530.13 833.38,-531.14 828.26,-525.77 826.03,-530.13"/>
</g>
<!-- course__PHYS321A -->
<g id="node36" class="node">
<title>course__PHYS321A</title>
<g id="a_node36"><a xlink:href="../../../courses/PHYS321A.html" xlink:title="PHYS321A: Classical Mechanics I" target="_top">
<path fill="#d7e9ef" stroke="#1f4f66" stroke-width="1.6" d="M1130,-179.78C1130,-179.78 1087,-179.78 1087,-179.78 1081,-179.78 1075,-173.78 1075,-167.78 1075,-167.78 1075,-155.78 1075,-155.78 1075,-149.78 1081,-143.78 1087,-143.78 1087,-143.78 1130,-143.78 1130,-143.78 1136,-143.78 1142,-149.78 1142,-155.78 1142,-155.78 1142,-167.78 1142,-167.78 1142,-173.78 1136,-179.78 1130,-179.78"/>
<text text-anchor="middle" x="1108.5" y="-159.28" font-family="Avenir Next" font-size="10.00" fill="#17232b">PHYS321A</text>
</a>
</g>
</g>
<!-- course__MATH204&#45;&gt;course__PHYS321A -->
<g id="edge69" class="edge">
<title>course__MATH204&#45;&gt;course__PHYS321A</title>
<path fill="none" stroke="#5d6972" stroke-width="1.2" d="M639.81,-320.34C726.46,-290.96 972.23,-207.64 1068.31,-175.07"/>
<polygon fill="#5d6972" stroke="#5d6972" stroke-width="1.2" points="1069.13,-177.38 1074.97,-172.81 1067.55,-172.74 1069.13,-177.38"/>
</g>
<!-- course__PHYS326 -->
<g id="node38" class="node">
<title>course__PHYS326</title>
<g id="a_node38"><a xlink:href="../../../courses/PHYS326.html" xlink:title="PHYS326: Electricity and Magnetism" target="_top">
<path fill="#d7e9ef" stroke="#1f4f66" stroke-width="1.6" d="M1126.5,-265.78C1126.5,-265.78 1090.5,-265.78 1090.5,-265.78 1084.5,-265.78 1078.5,-259.78 1078.5,-253.78 1078.5,-253.78 1078.5,-241.78 1078.5,-241.78 1078.5,-235.78 1084.5,-229.78 1090.5,-229.78 1090.5,-229.78 1126.5,-229.78 1126.5,-229.78 1132.5,-229.78 1138.5,-235.78 1138.5,-241.78 1138.5,-241.78 1138.5,-253.78 1138.5,-253.78 1138.5,-259.78 1132.5,-265.78 1126.5,-265.78"/>
<text text-anchor="middle" x="1108.5" y="-245.28" font-family="Avenir Next" font-size="10.00" fill="#17232b">PHYS326</text>
</a>
</g>
</g>
<!-- course__MATH204&#45;&gt;course__PHYS326 -->
<g id="edge84" class="edge">
<title>course__MATH204&#45;&gt;course__PHYS326</title>
<path fill="none" stroke="#5d6972" stroke-width="1.2" d="M639.67,-326.65C695.14,-319.08 815.76,-302.16 917,-284.78 970.92,-275.52 1033.09,-263.12 1071.34,-255.29"/>
<polygon fill="#5d6972" stroke="#5d6972" stroke-width="1.2" points="1071.84,-257.69 1078.2,-253.88 1070.85,-252.89 1071.84,-257.69"/>
</g>
<!-- choice_EOS340_1 -->
<g id="node50" class="node">
<title>choice_EOS340_1</title>
<path fill="#fff7ee" stroke="#b7793f" stroke-width="1.1" d="M1001,-560.78C1001,-560.78 971,-560.78 971,-560.78 965,-560.78 959,-554.78 959,-548.78 959,-548.78 959,-536.78 959,-536.78 959,-530.78 965,-524.78 971,-524.78 971,-524.78 1001,-524.78 1001,-524.78 1007,-524.78 1013,-530.78 1013,-536.78 1013,-536.78 1013,-548.78 1013,-548.78 1013,-554.78 1007,-560.78 1001,-560.78"/>
<text text-anchor="middle" x="986" y="-540.58" font-family="Avenir Next" font-size="9.00">1 of</text>
</g>
<!-- course__MATH204&#45;&gt;choice_EOS340_1 -->
<g id="edge27" class="edge">
<title>course__MATH204&#45;&gt;choice_EOS340_1</title>
<path fill="none" stroke="#7a8389" d="M639.81,-345.59C677.75,-363.4 744.49,-393.3 804,-412.78 853.07,-428.84 874.7,-410.16 917,-439.78 944.8,-459.25 964.22,-494.04 975,-517.76"/>
<polygon fill="#7a8389" stroke="#7a8389" points="972.88,-519.01 977.94,-524.43 977.36,-517.04 972.88,-519.01"/>
</g>
<!-- course__MATH204&#45;&gt;choice_MATH342_0_1 -->
<g id="edge53" class="edge">
<title>course__MATH204&#45;&gt;choice_MATH342_0_1</title>
<path fill="none" stroke="#7a8389" d="M639.72,-313.05C649.3,-306.22 659.15,-297.66 666,-287.78 710.79,-223.23 726.53,-128.8 731.68,-84.07"/>
<polygon fill="#7a8389" stroke="#7a8389" points="734.12,-84.3 732.45,-77.08 729.25,-83.77 734.12,-84.3"/>
</g>
<!-- course__MATH248&#45;&gt;course__PHYS321A -->
<g id="edge70" class="edge">
<title>course__MATH248&#45;&gt;course__PHYS321A</title>
<path fill="none" stroke="#5d6972" stroke-width="1.2" d="M630.11,-186.49C649.09,-171.25 678.45,-150.51 708,-140.78 836.82,-98.35 879.07,-109.37 1013,-130.78 1031.5,-133.74 1051.29,-139.76 1067.96,-145.71"/>
<polygon fill="#5d6972" stroke="#5d6972" stroke-width="1.2" points="1067.48,-148.14 1074.9,-148.25 1069.17,-143.54 1067.48,-148.14"/>
</g>
<!-- course__PHYS323 -->
<g id="node37" class="node">
<title>course__PHYS323</title>
<g id="a_node37"><a xlink:href="../../../courses/PHYS323.html" xlink:title="PHYS323: Quantum Mechanics I" target="_top">
<path fill="#d7e9ef" stroke="#1f4f66" stroke-width="1.6" d="M1126.5,-316.78C1126.5,-316.78 1090.5,-316.78 1090.5,-316.78 1084.5,-316.78 1078.5,-310.78 1078.5,-304.78 1078.5,-304.78 1078.5,-292.78 1078.5,-292.78 1078.5,-286.78 1084.5,-280.78 1090.5,-280.78 1090.5,-280.78 1126.5,-280.78 1126.5,-280.78 1132.5,-280.78 1138.5,-286.78 1138.5,-292.78 1138.5,-292.78 1138.5,-304.78 1138.5,-304.78 1138.5,-310.78 1132.5,-316.78 1126.5,-316.78"/>
<text text-anchor="middle" x="1108.5" y="-296.28" font-family="Avenir Next" font-size="10.00" fill="#17232b">PHYS323</text>
</a>
</g>
</g>
<!-- course__MATH248&#45;&gt;course__PHYS323 -->
<g id="edge78" class="edge">
<title>course__MATH248&#45;&gt;course__PHYS323</title>
<path fill="none" stroke="#5d6972" stroke-width="1.2" d="M666.18,-215.56C769.79,-235.1 985.73,-275.82 1071.37,-291.97"/>
<polygon fill="#5d6972" stroke="#5d6972" stroke-width="1.2" points="1070.95,-294.38 1078.28,-293.27 1071.86,-289.57 1070.95,-294.38"/>
</g>
<!-- course__MATH248&#45;&gt;course__PHYS326 -->
<g id="edge85" class="edge">
<title>course__MATH248&#45;&gt;course__PHYS326</title>
<path fill="none" stroke="#5d6972" stroke-width="1.2" d="M654.64,-186.76C715.22,-165.34 825.21,-135.2 917,-157.78 937.46,-162.81 940.08,-170.5 959,-179.78 997.11,-198.47 1041.42,-218.55 1071.65,-232.01"/>
<polygon fill="#5d6972" stroke="#5d6972" stroke-width="1.2" points="1070.87,-234.34 1078.26,-234.94 1072.86,-229.86 1070.87,-234.34"/>
</g>
<!-- course__PHYS216&#45;&gt;course__PHYS325 -->
<g id="edge80" class="edge">
<title>course__PHYS216&#45;&gt;course__PHYS325</title>
<path fill="none" stroke="#5d6972" stroke-width="1.2" d="M638.01,-250.12C657.51,-241.27 683.95,-229.93 708,-221.78 746.7,-208.67 792.23,-197.5 823.21,-190.52"/>
<polygon fill="#5d6972" stroke="#5d6972" stroke-width="1.2" points="824.06,-192.84 830.36,-188.92 823,-188.05 824.06,-192.84"/>
</g>
<!-- course__PHYS216&#45;&gt;course__PHYS326 -->
<g id="edge83" class="edge">
<title>course__PHYS216&#45;&gt;course__PHYS326</title>
<path fill="none" stroke="#5d6972" stroke-width="1.2" d="M638.32,-262.84C724.46,-260.07 976.63,-251.98 1071.15,-248.95"/>
<polygon fill="#5d6972" stroke="#5d6972" stroke-width="1.2" points="1071.3,-251.39 1078.21,-248.72 1071.14,-246.5 1071.3,-251.39"/>
</g>
<!-- course__EOS314&#45;&gt;choice_EOS312_0_0 -->
<g id="edge12" class="edge">
<title>course__EOS314&#45;&gt;choice_EOS312_0_0</title>
<path fill="none" stroke="#7a8389" d="M635.18,-658.53C680.59,-667.98 777.03,-685.78 859.5,-685.78 859.5,-685.78 859.5,-685.78 987,-685.78 1061.96,-685.78 1149.8,-680.49 1196.61,-677.25"/>
<polygon fill="#7a8389" stroke="#7a8389" points="1196.96,-679.68 1203.77,-676.75 1196.61,-674.79 1196.96,-679.68"/>
</g>
<!-- course__EOS314&#45;&gt;choice_EOS325_0_2_0 -->
<g id="edge20" class="edge">
<title>course__EOS314&#45;&gt;choice_EOS325_0_2_0</title>
<path fill="none" stroke="#7a8389" d="M635.2,-646.07C654.29,-641.19 680.28,-634.53 700.82,-629.28"/>
<polygon fill="#7a8389" stroke="#7a8389" points="701.66,-631.59 707.83,-627.48 700.44,-626.84 701.66,-631.59"/>
</g>
<!-- choice_EOS401_0_3 -->
<g id="node51" class="node">
<title>choice_EOS401_0_3</title>
<path fill="#fff7ee" stroke="#b7793f" stroke-width="1.1" d="M1246,-643.78C1246,-643.78 1216,-643.78 1216,-643.78 1210,-643.78 1204,-637.78 1204,-631.78 1204,-631.78 1204,-619.78 1204,-619.78 1204,-613.78 1210,-607.78 1216,-607.78 1216,-607.78 1246,-607.78 1246,-607.78 1252,-607.78 1258,-613.78 1258,-619.78 1258,-619.78 1258,-631.78 1258,-631.78 1258,-637.78 1252,-643.78 1246,-643.78"/>
<text text-anchor="middle" x="1231" y="-623.58" font-family="Avenir Next" font-size="9.00">1 of</text>
</g>
<!-- course__EOS314&#45;&gt;choice_EOS401_0_3 -->
<g id="edge29" class="edge">
<title>course__EOS314&#45;&gt;choice_EOS401_0_3</title>
<path fill="none" stroke="#7a8389" d="M635.32,-653.83C680.96,-655.54 777.72,-658.78 859.5,-658.78 859.5,-658.78 859.5,-658.78 987,-658.78 1062.57,-658.78 1150.17,-642.91 1196.79,-633.19"/>
<polygon fill="#7a8389" stroke="#7a8389" points="1197.57,-635.52 1203.91,-631.68 1196.55,-630.73 1197.57,-635.52"/>
</g>
<!-- course__PHYS321B -->
<g id="node42" class="node">
<title>course__PHYS321B</title>
<g id="a_node42"><a xlink:href="../../../courses/PHYS321B.html" xlink:title="PHYS321B: Classical Mechanics II" target="_top">
<path fill="#d7e9ef" stroke="#1f4f66" stroke-width="1.6" d="M1355,-105.78C1355,-105.78 1312,-105.78 1312,-105.78 1306,-105.78 1300,-99.78 1300,-93.78 1300,-93.78 1300,-81.78 1300,-81.78 1300,-75.78 1306,-69.78 1312,-69.78 1312,-69.78 1355,-69.78 1355,-69.78 1361,-69.78 1367,-75.78 1367,-81.78 1367,-81.78 1367,-93.78 1367,-93.78 1367,-99.78 1361,-105.78 1355,-105.78"/>
<text text-anchor="middle" x="1333.5" y="-85.28" font-family="Avenir Next" font-size="10.00" fill="#17232b">PHYS321B</text>
</a>
</g>
</g>
<!-- course__MATH342&#45;&gt;course__PHYS321B -->
<g id="edge75" class="edge">
<title>course__MATH342&#45;&gt;course__PHYS321B</title>
<path fill="none" stroke="#5d6972" stroke-width="1.2" d="M892.04,-80.3C974.31,-81.7 1200.54,-85.54 1292.67,-87.1"/>
<polygon fill="#5d6972" stroke="#5d6972" stroke-width="1.2" points="1292.82,-89.56 1299.86,-87.23 1292.9,-84.66 1292.82,-89.56"/>
</g>
<!-- choice_PHYS321A_1 -->
<g id="node55" class="node">
<title>choice_PHYS321A_1</title>
<path fill="#fff7ee" stroke="#b7793f" stroke-width="1.1" d="M1001,-173.78C1001,-173.78 971,-173.78 971,-173.78 965,-173.78 959,-167.78 959,-161.78 959,-161.78 959,-149.78 959,-149.78 959,-143.78 965,-137.78 971,-137.78 971,-137.78 1001,-137.78 1001,-137.78 1007,-137.78 1013,-143.78 1013,-149.78 1013,-149.78 1013,-161.78 1013,-161.78 1013,-167.78 1007,-173.78 1001,-173.78"/>
<text text-anchor="middle" x="986" y="-153.58" font-family="Avenir Next" font-size="9.00">1 of</text>
</g>
<!-- course__MATH342&#45;&gt;choice_PHYS321A_1 -->
<g id="edge71" class="edge">
<title>course__MATH342&#45;&gt;choice_PHYS321A_1</title>
<path fill="none" stroke="#7a8389" d="M890.77,-97.79C909.43,-109.28 933.63,-124.17 952.84,-135.99"/>
<polygon fill="#7a8389" stroke="#7a8389" points="951.64,-138.13 958.88,-139.71 954.2,-133.95 951.64,-138.13"/>
</g>
<!-- course__MATH346&#45;&gt;course__PHYS321B -->
<g id="edge76" class="edge">
<title>course__MATH346&#45;&gt;course__PHYS321B</title>
<path fill="none" stroke="#5d6972" stroke-width="1.2" d="M892.24,-28.14C959.73,-23.23 1125.47,-16.14 1258,-50.78 1271.2,-54.23 1284.81,-60.18 1296.72,-66.3"/>
<polygon fill="#5d6972" stroke="#5d6972" stroke-width="1.2" points="1295.82,-68.6 1303.16,-69.71 1298.12,-64.27 1295.82,-68.6"/>
</g>
<!-- course__PHYS411 -->
<g id="node44" class="node">
<title>course__PHYS411</title>
<g id="a_node44"><a xlink:href="../../../courses/PHYS411.html" xlink:title="PHYS411: Time Series Analysis" target="_top">
<path fill="#d7e9ef" stroke="#1f4f66" stroke-width="1.6" d="M1351.5,-257.78C1351.5,-257.78 1315.5,-257.78 1315.5,-257.78 1309.5,-257.78 1303.5,-251.78 1303.5,-245.78 1303.5,-245.78 1303.5,-233.78 1303.5,-233.78 1303.5,-227.78 1309.5,-221.78 1315.5,-221.78 1315.5,-221.78 1351.5,-221.78 1351.5,-221.78 1357.5,-221.78 1363.5,-227.78 1363.5,-233.78 1363.5,-233.78 1363.5,-245.78 1363.5,-245.78 1363.5,-251.78 1357.5,-257.78 1351.5,-257.78"/>
<text text-anchor="middle" x="1333.5" y="-237.28" font-family="Avenir Next" font-size="10.00" fill="#17232b">PHYS411</text>
</a>
</g>
</g>
<!-- course__MATH346&#45;&gt;course__PHYS411 -->
<g id="edge94" class="edge">
<title>course__MATH346&#45;&gt;course__PHYS411</title>
<path fill="none" stroke="#5d6972" stroke-width="1.2" d="M892.16,-39.86C922.9,-49.11 971.5,-64.14 1013,-78.78 1080.02,-102.41 1098.24,-105.4 1162,-136.78 1211.8,-161.29 1266.18,-195.56 1299.82,-217.71"/>
<polygon fill="#5d6972" stroke="#5d6972" stroke-width="1.2" points="1298.66,-219.88 1305.85,-221.7 1301.36,-215.79 1298.66,-219.88"/>
</g>
<!-- course__PHYS426 -->
<g id="node45" class="node">
<title>course__PHYS426</title>
<g id="a_node45"><a xlink:href="../../../courses/PHYS426.html" xlink:title="PHYS426: Fluid Mechanics" target="_top">
<path fill="#d7e9ef" stroke="#1f4f66" stroke-width="1.6" d="M1351.5,-40.78C1351.5,-40.78 1315.5,-40.78 1315.5,-40.78 1309.5,-40.78 1303.5,-34.78 1303.5,-28.78 1303.5,-28.78 1303.5,-16.78 1303.5,-16.78 1303.5,-10.78 1309.5,-4.78 1315.5,-4.78 1315.5,-4.78 1351.5,-4.78 1351.5,-4.78 1357.5,-4.78 1363.5,-10.78 1363.5,-16.78 1363.5,-16.78 1363.5,-28.78 1363.5,-28.78 1363.5,-34.78 1357.5,-40.78 1351.5,-40.78"/>
<text text-anchor="middle" x="1333.5" y="-20.28" font-family="Avenir Next" font-size="10.00" fill="#17232b">PHYS426</text>
</a>
</g>
</g>
<!-- course__MATH346&#45;&gt;course__PHYS426 -->
<g id="edge96" class="edge">
<title>course__MATH346&#45;&gt;course__PHYS426</title>
<path fill="none" stroke="#5d6972" stroke-width="1.2" d="M892.21,-28.03C911.39,-26.45 936.61,-24.61 959,-23.78 1082.54,-19.19 1229.23,-20.88 1296.06,-22.04"/>
<polygon fill="#5d6972" stroke="#5d6972" stroke-width="1.2" points="1296.39,-24.5 1303.43,-22.18 1296.47,-19.6 1296.39,-24.5"/>
</g>
<!-- course__MATH346&#45;&gt;choice_PHYS321A_1 -->
<g id="edge72" class="edge">
<title>course__MATH346&#45;&gt;choice_PHYS321A_1</title>
<path fill="none" stroke="#7a8389" d="M892.08,-40.35C900.72,-43.98 909.73,-48.74 917,-54.78 942.31,-75.8 961.98,-108.59 973.51,-131.07"/>
<polygon fill="#7a8389" stroke="#7a8389" points="971.36,-132.25 976.68,-137.41 975.74,-130.05 971.36,-132.25"/>
</g>
<!-- course__PHYS215&#45;&gt;course__PHYS323 -->
<g id="edge77" class="edge">
<title>course__PHYS215&#45;&gt;course__PHYS323</title>
<path fill="none" stroke="#5d6972" stroke-width="1.2" d="M890.69,-378.1C935.9,-361.56 1022.77,-329.78 1071.71,-311.87"/>
<polygon fill="#5d6972" stroke="#5d6972" stroke-width="1.2" points="1072.62,-314.15 1078.35,-309.44 1070.94,-309.55 1072.62,-314.15"/>
</g>
<!-- course__EOS325&#45;&gt;choice_EOS340_1 -->
<g id="edge26" class="edge">
<title>course__EOS325&#45;&gt;choice_EOS340_1</title>
<path fill="none" stroke="#7a8389" d="M887.69,-543.57C906.36,-543.42 931.6,-543.21 951.7,-543.05"/>
<polygon fill="#7a8389" stroke="#7a8389" points="951.87,-545.5 958.85,-542.99 951.83,-540.6 951.87,-545.5"/>
</g>
<!-- course__EOS433 -->
<g id="node40" class="node">
<title>course__EOS433</title>
<g id="a_node40"><a xlink:href="../../../courses/EOS433.html" xlink:title="EOS433: The Physics of Climate" target="_top">
<path fill="#dbe8d2" stroke="#567447" stroke-width="1.3" d="M1348.5,-450.78C1348.5,-450.78 1318.5,-450.78 1318.5,-450.78 1312.5,-450.78 1306.5,-444.78 1306.5,-438.78 1306.5,-438.78 1306.5,-426.78 1306.5,-426.78 1306.5,-420.78 1312.5,-414.78 1318.5,-414.78 1318.5,-414.78 1348.5,-414.78 1348.5,-414.78 1354.5,-414.78 1360.5,-420.78 1360.5,-426.78 1360.5,-426.78 1360.5,-438.78 1360.5,-438.78 1360.5,-444.78 1354.5,-450.78 1348.5,-450.78"/>
<text text-anchor="middle" x="1333.5" y="-430.28" font-family="Avenir Next" font-size="10.00" fill="#24311e">EOS433</text>
</a>
</g>
</g>
<!-- course__EOS340&#45;&gt;course__EOS433 -->
<g id="edge38" class="edge">
<title>course__EOS340&#45;&gt;course__EOS433</title>
<path fill="none" stroke="#5d6972" stroke-width="1.2" d="M1162.07,-432.78C1204.38,-432.78 1262.59,-432.78 1298.86,-432.78"/>
<polygon fill="#5d6972" stroke="#5d6972" stroke-width="1.2" points="1299.25,-435.23 1306.25,-432.78 1299.25,-430.33 1299.25,-435.23"/>
</g>
<!-- course__EOS451 -->
<g id="node41" class="node">
<title>course__EOS451</title>
<g id="a_node41"><a xlink:href="../../../courses/EOS451.html" xlink:title="EOS451: Introductory Dynamic Meteorology" target="_top">
<path fill="#dbe8d2" stroke="#567447" stroke-width="1.3" d="M1348.5,-363.78C1348.5,-363.78 1318.5,-363.78 1318.5,-363.78 1312.5,-363.78 1306.5,-357.78 1306.5,-351.78 1306.5,-351.78 1306.5,-339.78 1306.5,-339.78 1306.5,-333.78 1312.5,-327.78 1318.5,-327.78 1318.5,-327.78 1348.5,-327.78 1348.5,-327.78 1354.5,-327.78 1360.5,-333.78 1360.5,-339.78 1360.5,-339.78 1360.5,-351.78 1360.5,-351.78 1360.5,-357.78 1354.5,-363.78 1348.5,-363.78"/>
<text text-anchor="middle" x="1333.5" y="-343.28" font-family="Avenir Next" font-size="10.00" fill="#24311e">EOS451</text>
</a>
</g>
</g>
<!-- course__EOS340&#45;&gt;course__EOS451 -->
<g id="edge39" class="edge">
<title>course__EOS340&#45;&gt;course__EOS451</title>
<path fill="none" stroke="#5d6972" stroke-width="1.2" d="M1155.71,-414.75C1198.58,-398.03 1261.34,-373.54 1299.41,-358.69"/>
<polygon fill="#5d6972" stroke="#5d6972" stroke-width="1.2" points="1300.59,-360.86 1306.22,-356.03 1298.81,-356.29 1300.59,-360.86"/>
</g>
<!-- choice_PHYS411_0_0 -->
<g id="node56" class="node">
<title>choice_PHYS411_0_0</title>
<path fill="#fff7ee" stroke="#b7793f" stroke-width="1.1" d="M1246,-295.78C1246,-295.78 1216,-295.78 1216,-295.78 1210,-295.78 1204,-289.78 1204,-283.78 1204,-283.78 1204,-271.78 1204,-271.78 1204,-265.78 1210,-259.78 1216,-259.78 1216,-259.78 1246,-259.78 1246,-259.78 1252,-259.78 1258,-265.78 1258,-271.78 1258,-271.78 1258,-283.78 1258,-283.78 1258,-289.78 1252,-295.78 1246,-295.78"/>
<text text-anchor="middle" x="1231" y="-275.58" font-family="Avenir Next" font-size="9.00">2 of</text>
</g>
<!-- course__EOS340&#45;&gt;choice_PHYS411_0_0 -->
<g id="edge88" class="edge">
<title>course__EOS340&#45;&gt;choice_PHYS411_0_0</title>
<path fill="none" stroke="#7a8389" d="M1123.56,-414.7C1145.3,-386.73 1187.1,-332.97 1211.34,-301.78"/>
<polygon fill="#7a8389" stroke="#7a8389" points="1213.3,-303.26 1215.66,-296.23 1209.43,-300.25 1213.3,-303.26"/>
</g>
<!-- course__EOS431&#45;&gt;choice_EOS312_0_0 -->
<g id="edge13" class="edge">
<title>course__EOS431&#45;&gt;choice_EOS312_0_0</title>
<path fill="none" stroke="#7a8389" d="M1133.31,-600.96C1152.62,-615.7 1179.93,-636.55 1200.6,-652.33"/>
<polygon fill="#7a8389" stroke="#7a8389" points="1199.19,-654.34 1206.24,-656.64 1202.17,-650.45 1199.19,-654.34"/>
</g>
<!-- course__EOS431&#45;&gt;choice_EOS401_0_3 -->
<g id="edge30" class="edge">
<title>course__EOS431&#45;&gt;choice_EOS401_0_3</title>
<path fill="none" stroke="#7a8389" d="M1160.25,-600.89C1172.72,-605.34 1185.74,-609.99 1197.11,-614.04"/>
<polygon fill="#7a8389" stroke="#7a8389" points="1196.54,-616.44 1203.95,-616.49 1198.18,-611.83 1196.54,-616.44"/>
</g>
<!-- course__EOS431&#45;&gt;choice_PHYS411_0_0 -->
<g id="edge89" class="edge">
<title>course__EOS431&#45;&gt;choice_PHYS411_0_0</title>
<path fill="none" stroke="#7a8389" d="M1117.33,-564.49C1127.76,-540.04 1146.66,-495.31 1162,-456.78 1183.76,-402.14 1207.92,-337.53 1220.77,-302.83"/>
<polygon fill="#7a8389" stroke="#7a8389" points="1223.21,-303.31 1223.34,-295.89 1218.61,-301.61 1223.21,-303.31"/>
</g>
<!-- course__PHYS321A&#45;&gt;course__EOS451 -->
<g id="edge40" class="edge">
<title>course__PHYS321A&#45;&gt;course__EOS451</title>
<path fill="none" stroke="#5d6972" stroke-width="1.2" d="M1142.07,-177.53C1173.69,-193.75 1222.05,-221.09 1258,-252.78 1281.2,-273.24 1302.72,-301.53 1316.6,-321.52"/>
<polygon fill="#5d6972" stroke="#5d6972" stroke-width="1.2" points="1314.68,-323.05 1320.66,-327.44 1318.72,-320.28 1314.68,-323.05"/>
</g>
<!-- course__PHYS321A&#45;&gt;course__PHYS321B -->
<g id="edge74" class="edge">
<title>course__PHYS321A&#45;&gt;course__PHYS321B</title>
<path fill="none" stroke="#5d6972" stroke-width="1.2" d="M1142.26,-155.75C1172.77,-149.63 1219.23,-139.05 1258,-124.78 1269.78,-120.44 1282.15,-114.79 1293.36,-109.2"/>
<polygon fill="#5d6972" stroke="#5d6972" stroke-width="1.2" points="1294.67,-111.29 1299.8,-105.94 1292.45,-106.92 1294.67,-111.29"/>
</g>
<!-- course__PHYS410 -->
<g id="node43" class="node">
<title>course__PHYS410</title>
<g id="a_node43"><a xlink:href="../../../courses/PHYS410.html" xlink:title="PHYS410: Topics in Mathematical Physics I" target="_top">
<path fill="#d7e9ef" stroke="#1f4f66" stroke-width="1.6" d="M1351.5,-186.78C1351.5,-186.78 1315.5,-186.78 1315.5,-186.78 1309.5,-186.78 1303.5,-180.78 1303.5,-174.78 1303.5,-174.78 1303.5,-162.78 1303.5,-162.78 1303.5,-156.78 1309.5,-150.78 1315.5,-150.78 1315.5,-150.78 1351.5,-150.78 1351.5,-150.78 1357.5,-150.78 1363.5,-156.78 1363.5,-162.78 1363.5,-162.78 1363.5,-174.78 1363.5,-174.78 1363.5,-180.78 1357.5,-186.78 1351.5,-186.78"/>
<text text-anchor="middle" x="1333.5" y="-166.28" font-family="Avenir Next" font-size="10.00" fill="#17232b">PHYS410</text>
</a>
</g>
</g>
<!-- course__PHYS321A&#45;&gt;course__PHYS410 -->
<g id="edge87" class="edge">
<title>course__PHYS321A&#45;&gt;course__PHYS410</title>
<path fill="none" stroke="#5d6972" stroke-width="1.2" d="M1142.4,-162.81C1183.52,-164.1 1253.65,-166.3 1296.26,-167.64"/>
<polygon fill="#5d6972" stroke="#5d6972" stroke-width="1.2" points="1296.3,-170.09 1303.37,-167.87 1296.45,-165.2 1296.3,-170.09"/>
</g>
<!-- course__PHYS321A&#45;&gt;course__PHYS426 -->
<g id="edge95" class="edge">
<title>course__PHYS321A&#45;&gt;course__PHYS426</title>
<path fill="none" stroke="#5d6972" stroke-width="1.2" d="M1138.65,-143.61C1179.47,-118.17 1253.56,-71.99 1297.37,-44.68"/>
<polygon fill="#5d6972" stroke="#5d6972" stroke-width="1.2" points="1298.69,-46.74 1303.34,-40.96 1296.1,-42.58 1298.69,-46.74"/>
</g>
<!-- course__PHYS321A&#45;&gt;choice_PHYS411_0_0 -->
<g id="edge90" class="edge">
<title>course__PHYS321A&#45;&gt;choice_PHYS411_0_0</title>
<path fill="none" stroke="#7a8389" d="M1128.33,-179.9C1149.16,-199.96 1182.81,-232.35 1205.64,-254.33"/>
<polygon fill="#7a8389" stroke="#7a8389" points="1204.16,-256.31 1210.91,-259.4 1207.56,-252.78 1204.16,-256.31"/>
</g>
<!-- course__PHYS323&#45;&gt;choice_PHYS411_0_0 -->
<g id="edge91" class="edge">
<title>course__PHYS323&#45;&gt;choice_PHYS411_0_0</title>
<path fill="none" stroke="#7a8389" d="M1138.67,-293.7C1156.26,-290.63 1178.71,-286.72 1196.95,-283.54"/>
<polygon fill="#7a8389" stroke="#7a8389" points="1197.49,-285.93 1203.97,-282.32 1196.65,-281.1 1197.49,-285.93"/>
</g>
<!-- course__PHYS326&#45;&gt;choice_PHYS411_0_0 -->
<g id="edge92" class="edge">
<title>course__PHYS326&#45;&gt;choice_PHYS411_0_0</title>
<path fill="none" stroke="#7a8389" d="M1138.67,-255.04C1156.26,-259.42 1178.71,-265.01 1196.95,-269.55"/>
<polygon fill="#7a8389" stroke="#7a8389" points="1196.58,-271.99 1203.97,-271.3 1197.77,-267.23 1196.58,-271.99"/>
</g>
<!-- course__EOS312&#45;&gt;choice_EOS401_0 -->
<g id="edge32" class="edge">
<title>course__EOS312&#45;&gt;choice_EOS401_0</title>
<path fill="none" stroke="#7a8389" d="M1360.64,-679.72C1373.21,-682.1 1388.4,-684.97 1401.77,-687.5"/>
<polygon fill="#7a8389" stroke="#7a8389" points="1401.65,-689.97 1408.99,-688.86 1402.57,-685.15 1401.65,-689.97"/>
</g>
<!-- course__EOS401 -->
<g id="node46" class="node">
<title>course__EOS401</title>
<g id="a_node46"><a xlink:href="../../../courses/EOS401.html" xlink:title="EOS401: Oceanographic Field School" target="_top">
<path fill="#d7e9ef" stroke="#1f4f66" stroke-width="1.6" d="M1547,-711.78C1547,-711.78 1517,-711.78 1517,-711.78 1511,-711.78 1505,-705.78 1505,-699.78 1505,-699.78 1505,-687.78 1505,-687.78 1505,-681.78 1511,-675.78 1517,-675.78 1517,-675.78 1547,-675.78 1547,-675.78 1553,-675.78 1559,-681.78 1559,-687.78 1559,-687.78 1559,-699.78 1559,-699.78 1559,-705.78 1553,-711.78 1547,-711.78"/>
<text text-anchor="middle" x="1532" y="-691.28" font-family="Avenir Next" font-size="10.00" fill="#17232b">EOS401</text>
</a>
</g>
</g>
<!-- choice_EOS311_0_2&#45;&gt;course__EOS311 -->
<g id="edge9" class="edge">
<title>choice_EOS311_0_2&#45;&gt;course__EOS311</title>
<path fill="none" stroke="#5d6972" stroke-width="1.2" d="M475.51,-665.05C495.39,-670.6 523.58,-678.48 548.77,-685.51"/>
<polygon fill="#5d6972" stroke="#5d6972" stroke-width="1.2" points="548.38,-687.95 555.78,-687.47 549.7,-683.23 548.38,-687.95"/>
</g>
<!-- choice_EOS311_0_2&#45;&gt;course__EOS314 -->
<g id="edge18" class="edge">
<title>choice_EOS311_0_2&#45;&gt;course__EOS314</title>
<path fill="none" stroke="#5d6972" stroke-width="1.2" d="M475.51,-656.95C502.41,-656.1 544.51,-654.76 573.8,-653.83"/>
<polygon fill="#5d6972" stroke="#5d6972" stroke-width="1.2" points="574.03,-656.28 580.95,-653.61 573.88,-651.38 574.03,-656.28"/>
</g>
<!-- choice_EOS312_0_0&#45;&gt;course__EOS312 -->
<g id="edge14" class="edge">
<title>choice_EOS312_0_0&#45;&gt;course__EOS312</title>
<path fill="none" stroke="#5d6972" stroke-width="1.2" d="M1258.14,-674.78C1270.71,-674.78 1285.9,-674.78 1299.27,-674.78"/>
<polygon fill="#5d6972" stroke="#5d6972" stroke-width="1.2" points="1299.49,-677.23 1306.49,-674.78 1299.49,-672.33 1299.49,-677.23"/>
</g>
<!-- choice_EOS325_0_2_0&#45;&gt;course__EOS325 -->
<g id="edge24" class="edge">
<title>choice_EOS325_0_2_0&#45;&gt;course__EOS325</title>
<path fill="none" stroke="#5d6972" stroke-width="1.2" d="M762.19,-604.45C781.18,-592.61 806.99,-576.52 827.25,-563.89"/>
<polygon fill="#5d6972" stroke="#5d6972" stroke-width="1.2" points="828.7,-565.87 833.35,-560.09 826.11,-561.71 828.7,-565.87"/>
</g>
<!-- choice_EOS340_1&#45;&gt;course__EOS340 -->
<g id="edge28" class="edge">
<title>choice_EOS340_1&#45;&gt;course__EOS340</title>
<path fill="none" stroke="#5d6972" stroke-width="1.2" d="M1006.9,-524.62C1027.57,-505.75 1059.96,-476.17 1082.38,-455.71"/>
<polygon fill="#5d6972" stroke="#5d6972" stroke-width="1.2" points="1084.05,-457.5 1087.57,-450.97 1080.75,-453.88 1084.05,-457.5"/>
</g>
<!-- choice_EOS340_1&#45;&gt;course__EOS431 -->
<g id="edge36" class="edge">
<title>choice_EOS340_1&#45;&gt;course__EOS431</title>
<path fill="none" stroke="#5d6972" stroke-width="1.2" d="M1013.15,-551.46C1023.43,-554.87 1035.68,-558.94 1047.9,-562.99"/>
<polygon fill="#5d6972" stroke="#5d6972" stroke-width="1.2" points="1047.25,-565.36 1054.67,-565.24 1048.8,-560.71 1047.25,-565.36"/>
</g>
<!-- choice_EOS401_0_3&#45;&gt;choice_EOS401_0 -->
<g id="edge34" class="edge">
<title>choice_EOS401_0_3&#45;&gt;choice_EOS401_0</title>
<path fill="none" stroke="#7a8389" d="M1258.21,-627.35C1286.04,-629.72 1330.9,-635.56 1367,-649.78 1380.7,-655.18 1394.58,-663.52 1406.19,-671.5"/>
<polygon fill="#7a8389" stroke="#7a8389" points="1404.91,-673.6 1412.04,-675.62 1407.73,-669.59 1404.91,-673.6"/>
</g>
<!-- choice_EOS401_0&#45;&gt;course__EOS401 -->
<g id="edge35" class="edge">
<title>choice_EOS401_0&#45;&gt;course__EOS401</title>
<path fill="none" stroke="#5d6972" stroke-width="1.2" d="M1463.18,-693.78C1473.88,-693.78 1486.38,-693.78 1497.71,-693.78"/>
<polygon fill="#5d6972" stroke="#5d6972" stroke-width="1.2" points="1497.96,-696.23 1504.96,-693.78 1497.96,-691.33 1497.96,-696.23"/>
</g>
<!-- choice_MATH211_0&#45;&gt;course__MATH211 -->
<g id="edge46" class="edge">
<title>choice_MATH211_0&#45;&gt;course__MATH211</title>
<path fill="none" stroke="#5d6972" stroke-width="1.2" d="M195.45,-448.68C213.76,-387.95 273.02,-191.28 294.03,-121.56"/>
<polygon fill="#5d6972" stroke="#5d6972" stroke-width="1.2" points="296.38,-122.25 296.06,-114.84 291.69,-120.84 296.38,-122.25"/>
</g>
<!-- choice_MATH342_0_1&#45;&gt;course__MATH342 -->
<g id="edge55" class="edge">
<title>choice_MATH342_0_1&#45;&gt;course__MATH342</title>
<path fill="none" stroke="#5d6972" stroke-width="1.2" d="M762.19,-63.23C779.6,-66.19 802.72,-70.12 822.06,-73.41"/>
<polygon fill="#5d6972" stroke="#5d6972" stroke-width="1.2" points="821.68,-75.83 828.99,-74.59 822.5,-71 821.68,-75.83"/>
</g>
<!-- choice_MATH342_0_1&#45;&gt;course__MATH346 -->
<g id="edge57" class="edge">
<title>choice_MATH342_0_1&#45;&gt;course__MATH346</title>
<path fill="none" stroke="#5d6972" stroke-width="1.2" d="M762.19,-52.84C779.6,-48.9 802.72,-43.65 822.06,-39.27"/>
<polygon fill="#5d6972" stroke="#5d6972" stroke-width="1.2" points="822.71,-41.63 828.99,-37.7 821.62,-36.86 822.71,-41.63"/>
</g>
<!-- choice_PHYS321A_1&#45;&gt;course__PHYS321A -->
<g id="edge73" class="edge">
<title>choice_PHYS321A_1&#45;&gt;course__PHYS321A</title>
<path fill="none" stroke="#5d6972" stroke-width="1.2" d="M1013.15,-157.08C1029.16,-157.88 1049.96,-158.91 1067.95,-159.81"/>
<polygon fill="#5d6972" stroke="#5d6972" stroke-width="1.2" points="1067.84,-162.26 1074.95,-160.16 1068.08,-157.36 1067.84,-162.26"/>
</g>
<!-- choice_PHYS321A_1&#45;&gt;course__PHYS323 -->
<g id="edge79" class="edge">
<title>choice_PHYS321A_1&#45;&gt;course__PHYS323</title>
<path fill="none" stroke="#5d6972" stroke-width="1.2" d="M993.86,-173.99C1003.97,-198.8 1024.99,-243.38 1055,-271.78 1059.92,-276.44 1065.8,-280.49 1071.81,-283.94"/>
<polygon fill="#5d6972" stroke="#5d6972" stroke-width="1.2" points="1071.03,-286.29 1078.36,-287.44 1073.34,-281.98 1071.03,-286.29"/>
</g>
<!-- choice_PHYS321A_1&#45;&gt;course__PHYS326 -->
<g id="edge86" class="edge">
<title>choice_PHYS321A_1&#45;&gt;course__PHYS326</title>
<path fill="none" stroke="#5d6972" stroke-width="1.2" d="M1010.81,-173.96C1030.12,-188.7 1057.43,-209.55 1078.1,-225.33"/>
<polygon fill="#5d6972" stroke="#5d6972" stroke-width="1.2" points="1076.69,-227.34 1083.74,-229.64 1079.67,-223.45 1076.69,-227.34"/>
</g>
<!-- choice_PHYS411_0_0&#45;&gt;course__PHYS411 -->
<g id="edge93" class="edge">
<title>choice_PHYS411_0_0&#45;&gt;course__PHYS411</title>
<path fill="none" stroke="#5d6972" stroke-width="1.2" d="M1258.14,-267.9C1269.82,-263.48 1283.78,-258.2 1296.43,-253.42"/>
<polygon fill="#5d6972" stroke="#5d6972" stroke-width="1.2" points="1297.62,-255.59 1303.3,-250.82 1295.89,-251.01 1297.62,-255.59"/>
</g>
</g>
</svg>
