<?xml version="1.0" encoding="UTF-8" standalone="no"?>
<!DOCTYPE svg PUBLIC "-//W3C//DTD SVG 1.1//EN"
 "http://www.w3.org/Graphics/SVG/1.1/DTD/svg11.dtd">
<!-- Generated by graphviz version 2.43.0 (0)
 -->
<!-- Title: MNR&#45;ESCX Pages: 1 -->
<svg width="2963pt" height="1426pt"
 viewBox="0.00 0.00 2962.52 1425.58" xmlns="http://www.w3.org/2000/svg" xmlns:xlink="http://www.w3.org/1999/xlink">
<g id="graph0" class="graph" transform="scale(1 1) rotate(0) translate(32.4 1393.18)">
<title>MNR&#45;ESCX</title>
<g id="clust1" class="cluster">
<title>cluster_year&#45;1</title>
<path fill="#fbfcfd" stroke="#d8dde1" stroke-width="1.2" d="M20,-938.78C20,-938.78 791.86,-938.78 791.86,-938.78 797.86,-938.78 803.86,-944.78 803.86,-950.78 803.86,-950.78 803.86,-1340.78 803.86,-1340.78 803.86,-1346.78 797.86,-1352.78 791.86,-1352.78 791.86,-1352.78 20,-1352.78 20,-1352.78 14,-1352.78 8,-1346.78 8,-1340.78 8,-1340.78 8,-950.78 8,-950.78 8,-944.78 14,-938.78 20,-938.78"/>
</g>
<g id="clust4" class="cluster">
<title>cluster_year&#45;2</title>
<path fill="#fbfcfd" stroke="#d8dde1" stroke-width="1.2" d="M1011,-896.78C1011,-896.78 1706.86,-896.78 1706.86,-896.78 1712.86,-896.78 1718.86,-902.78 1718.86,-908.78 1718.86,-908.78 1718.86,-1114.78 1718.86,-1114.78 1718.86,-1120.78 1712.86,-1126.78 1706.86,-1126.78 1706.86,-1126.78 1011,-1126.78 1011,-1126.78 1005,-1126.78 999,-1120.78 999,-1114.78 999,-1114.78 999,-908.78 999,-908.78 999,-902.78 1005,-896.78 1011,-896.78"/>
</g>
<g id="clust8" class="cluster">
<title>cluster_years&#45;3&#45;4</title>
<path fill="#fbfcfd" stroke="#d8dde1" stroke-width="1.2" d="M1926,-579.78C1926,-579.78 2877.72,-579.78 2877.72,-579.78 2883.72,-579.78 2889.72,-585.78 2889.72,-591.78 2889.72,-591.78 2889.72,-985.78 2889.72,-985.78 2889.72,-991.78 2883.72,-997.78 2877.72,-997.78 2877.72,-997.78 1926,-997.78 1926,-997.78 1920,-997.78 1914,-991.78 1914,-985.78 1914,-985.78 1914,-591.78 1914,-591.78 1914,-585.78 1920,-579.78 1926,-579.78"/>
</g>
<!-- course__CHEM101 -->
<g id="node1" class="node">
<title>course__CHEM101</title>
<g id="a_node1"><a xlink:href="../../../courses/CHEM101.html" xlink:title="Equivalent or cross&#45;listed: CHEM101: Fundamentals of Chemistry from Atoms to Materials | CHEM150: Engineering Chemistry" target="_top">
<path fill="#d7e9ef" stroke="#1f4f66" stroke-width="1.6" d="M365,-1298.78C365,-1298.78 269,-1298.78 269,-1298.78 263,-1298.78 257,-1292.78 257,-1286.78 257,-1286.78 257,-1274.78 257,-1274.78 257,-1268.78 263,-1262.78 269,-1262.78 269,-1262.78 365,-1262.78 365,-1262.78 371,-1262.78 377,-1268.78 377,-1274.78 377,-1274.78 377,-1286.78 377,-1286.78 377,-1292.78 371,-1298.78 365,-1298.78"/>
<text text-anchor="middle" x="317" y="-1278.28" font-family="Avenir Next" font-size="10.00" fill="#17232b">CHEM101 / CHEM150</text>
</a>
</g>
</g>
<!-- course__CHEM102 -->
<g id="node4" class="node">
<title>course__CHEM102</title>
<g id="a_node4"><a xlink:href="../../../courses/CHEM102.html" xlink:title="CHEM102: Chemical Reactivity Fundamentals with Environmental Applications" target="_top">
<path fill="#d7e9ef" stroke="#1f4f66" stroke-width="1.6" d="M512,-1246.78C512,-1246.78 472,-1246.78 472,-1246.78 466,-1246.78 460,-1240.78 460,-1234.78 460,-1234.78 460,-1222.78 460,-1222.78 460,-1216.78 466,-1210.78 472,-1210.78 472,-1210.78 512,-1210.78 512,-1210.78 518,-1210.78 524,-1216.78 524,-1222.78 524,-1222.78 524,-1234.78 524,-1234.78 524,-1240.78 518,-1246.78 512,-1246.78"/>
<text text-anchor="middle" x="492" y="-1226.28" font-family="Avenir Next" font-size="10.00" fill="#17232b">CHEM102</text>
</a>
</g>
</g>
<!-- course__CHEM101&#45;&gt;course__CHEM102 -->
<g id="edge49" class="edge">
<title>course__CHEM101&#45;&gt;course__CHEM102</title>
<path fill="none" stroke="#5d6972" stroke-width="1.2" d="M377.05,-1263.03C402.14,-1255.49 430.66,-1246.92 452.89,-1240.23"/>
<polygon fill="#5d6972" stroke="#5d6972" stroke-width="1.2" points="453.88,-1242.5 459.87,-1238.13 452.47,-1237.8 453.88,-1242.5"/>
</g>
<!-- year_band__year&#45;1__exit -->
<!-- course__CHEM101&#45;&gt;year_band__year&#45;1__exit -->
<!-- course__EOS120 -->
<g id="node2" class="node">
<title>course__EOS120</title>
<g id="a_node2"><a xlink:href="../../../courses/EOS120.html" xlink:title="EOS120: The Dynamic Earth" target="_top">
<path fill="#d7e9ef" stroke="#1f4f66" stroke-width="1.6" d="M332,-1212.78C332,-1212.78 302,-1212.78 302,-1212.78 296,-1212.78 290,-1206.78 290,-1200.78 290,-1200.78 290,-1188.78 290,-1188.78 290,-1182.78 296,-1176.78 302,-1176.78 302,-1176.78 332,-1176.78 332,-1176.78 338,-1176.78 344,-1182.78 344,-1188.78 344,-1188.78 344,-1200.78 344,-1200.78 344,-1206.78 338,-1212.78 332,-1212.78"/>
<text text-anchor="middle" x="317" y="-1192.28" font-family="Avenir Next" font-size="10.00" fill="#17232b">EOS120</text>
</a>
</g>
</g>
<!-- course__EOS202 -->
<g id="node5" class="node">
<title>course__EOS202</title>
<g id="a_node5"><a xlink:href="../../../courses/EOS202.html" xlink:title="EOS202: Structural Geology" target="_top">
<path fill="#ead9b8" stroke="#8f6a3b" stroke-width="1.3" d="M1290,-960.78C1290,-960.78 1260,-960.78 1260,-960.78 1254,-960.78 1248,-954.78 1248,-948.78 1248,-948.78 1248,-936.78 1248,-936.78 1248,-930.78 1254,-924.78 1260,-924.78 1260,-924.78 1290,-924.78 1290,-924.78 1296,-924.78 1302,-930.78 1302,-936.78 1302,-936.78 1302,-948.78 1302,-948.78 1302,-954.78 1296,-960.78 1290,-960.78"/>
<text text-anchor="middle" x="1275" y="-940.28" font-family="Avenir Next" font-size="10.00" fill="#3f3120">EOS202</text>
</a>
</g>
</g>
<!-- course__EOS120&#45;&gt;course__EOS202 -->
<g id="edge53" class="edge">
<title>course__EOS120&#45;&gt;course__EOS202</title>
<path fill="none" stroke="#5d6972" stroke-width="1.2" d="M344.2,-1182.28C354.56,-1177.13 366.49,-1170.93 377,-1164.78 410.89,-1144.96 495.08,-1093.33 524,-1066.78 567.57,-1026.79 565.92,-1005.32 607,-962.78 675.31,-892.03 682.77,-852.9 775,-818.78 945.94,-755.54 1161.64,-872.06 1241.95,-921.82"/>
<polygon fill="#5d6972" stroke="#5d6972" stroke-width="1.2" points="1240.72,-923.94 1247.95,-925.57 1243.31,-919.78 1240.72,-923.94"/>
</g>
<!-- course__EOS205 -->
<g id="node6" class="node">
<title>course__EOS205</title>
<g id="a_node6"><a xlink:href="../../../courses/EOS205.html" xlink:title="EOS205: Mineralogy" target="_top">
<path fill="#d7e9ef" stroke="#1f4f66" stroke-width="1.6" d="M1290,-1020.78C1290,-1020.78 1260,-1020.78 1260,-1020.78 1254,-1020.78 1248,-1014.78 1248,-1008.78 1248,-1008.78 1248,-996.78 1248,-996.78 1248,-990.78 1254,-984.78 1260,-984.78 1260,-984.78 1290,-984.78 1290,-984.78 1296,-984.78 1302,-990.78 1302,-996.78 1302,-996.78 1302,-1008.78 1302,-1008.78 1302,-1014.78 1296,-1020.78 1290,-1020.78"/>
<text text-anchor="middle" x="1275" y="-1000.28" font-family="Avenir Next" font-size="10.00" fill="#17232b">EOS205</text>
</a>
</g>
</g>
<!-- course__EOS120&#45;&gt;course__EOS205 -->
<g id="edge54" class="edge">
<title>course__EOS120&#45;&gt;course__EOS205</title>
<path fill="none" stroke="#5d6972" stroke-width="1.2" d="M344.03,-1190.82C386.23,-1183.23 470.24,-1163.06 524,-1116.78 581.15,-1067.57 549.64,-1017.74 607,-968.78 637.27,-942.94 651.21,-937.78 691,-937.78 691,-937.78 691,-937.78 860,-937.78 924.8,-937.78 934.96,-903.67 999,-893.78 1035.02,-888.21 1045.12,-887.37 1081,-893.78 1146.89,-905.55 1212.34,-951.64 1247.53,-979.99"/>
<polygon fill="#5d6972" stroke="#5d6972" stroke-width="1.2" points="1246.36,-982.19 1253.33,-984.72 1249.45,-978.39 1246.36,-982.19"/>
</g>
<!-- course__EOS330 -->
<g id="node9" class="node">
<title>course__EOS330</title>
<g id="a_node9"><a xlink:href="../../../courses/EOS330.html" xlink:title="EOS330: Paleobiology" target="_top">
<path fill="#dbe8d2" stroke="#567447" stroke-width="1.3" d="M2241.5,-643.78C2241.5,-643.78 2211.5,-643.78 2211.5,-643.78 2205.5,-643.78 2199.5,-637.78 2199.5,-631.78 2199.5,-631.78 2199.5,-619.78 2199.5,-619.78 2199.5,-613.78 2205.5,-607.78 2211.5,-607.78 2211.5,-607.78 2241.5,-607.78 2241.5,-607.78 2247.5,-607.78 2253.5,-613.78 2253.5,-619.78 2253.5,-619.78 2253.5,-631.78 2253.5,-631.78 2253.5,-637.78 2247.5,-643.78 2241.5,-643.78"/>
<text text-anchor="middle" x="2226.5" y="-623.28" font-family="Avenir Next" font-size="10.00" fill="#24311e">EOS330</text>
</a>
</g>
</g>
<!-- course__EOS120&#45;&gt;course__EOS330 -->
<g id="edge76" class="edge">
<title>course__EOS120&#45;&gt;course__EOS330</title>
<path fill="none" stroke="#5d6972" stroke-width="1.2" d="M344.05,-1184.34C354.84,-1179.32 367.13,-1172.67 377,-1164.78 422.12,-1128.72 418.16,-1104.6 460,-1064.78 485.75,-1040.26 496.75,-1039.61 524,-1016.78 601.85,-951.55 611.63,-924.15 691,-860.78 1014.71,-602.33 1107.77,-438.78 1522,-438.78 1522,-438.78 1522,-438.78 1987,-438.78 2091.2,-438.78 2176.9,-550.68 2210.38,-601.36"/>
<polygon fill="#5d6972" stroke="#5d6972" stroke-width="1.2" points="2208.51,-602.98 2214.38,-607.51 2212.62,-600.31 2208.51,-602.98"/>
</g>
<!-- course__EOS120&#45;&gt;year_band__year&#45;1__exit -->
<!-- course__MATH100 -->
<g id="node3" class="node">
<title>course__MATH100</title>
<g id="a_node3"><a xlink:href="../../../courses/MATH100.html" xlink:title="Collapsed in simplified view: MATH100: Calculus I | MATH102: Calculus for Students in the Social and Biological Sciences | MATH109: Introduction to Calculus" target="_top">
<path fill="#d7e9ef" stroke="#1f4f66" stroke-width="1.6" d="M337,-1152.78C337,-1152.78 297,-1152.78 297,-1152.78 291,-1152.78 285,-1146.78 285,-1140.78 285,-1140.78 285,-1128.78 285,-1128.78 285,-1122.78 291,-1116.78 297,-1116.78 297,-1116.78 337,-1116.78 337,-1116.78 343,-1116.78 349,-1122.78 349,-1128.78 349,-1128.78 349,-1140.78 349,-1140.78 349,-1146.78 343,-1152.78 337,-1152.78"/>
<text text-anchor="middle" x="317" y="-1132.28" font-family="Avenir Next" font-size="10.00" fill="#17232b">Calculus I</text>
</a>
</g>
</g>
<!-- course__MATH100&#45;&gt;course__CHEM102 -->
<g id="edge50" class="edge">
<title>course__MATH100&#45;&gt;course__CHEM102</title>
<path fill="none" stroke="#5d6972" stroke-width="1.2" d="M349.05,-1150.27C358.1,-1154.86 367.98,-1159.96 377,-1164.78 402.69,-1178.51 431.27,-1194.56 453.39,-1207.15"/>
<polygon fill="#5d6972" stroke="#5d6972" stroke-width="1.2" points="452.44,-1209.43 459.74,-1210.77 454.87,-1205.18 452.44,-1209.43"/>
</g>
<!-- course__CSC110 -->
<g id="node21" class="node">
<title>course__CSC110</title>
<g id="a_node21"><a xlink:href="../../../courses/CSC110.html" xlink:title="Collapsed in simplified view: CSC110: Fundamentals of Programming I | CSC111: Fundamentals of Programming with Engineering Applications" target="_top">
<path fill="#f9f9f9" stroke="#363636" d="M2424.5,-251.78C2424.5,-251.78 2364.5,-251.78 2364.5,-251.78 2358.5,-251.78 2352.5,-245.78 2352.5,-239.78 2352.5,-239.78 2352.5,-227.78 2352.5,-227.78 2352.5,-221.78 2358.5,-215.78 2364.5,-215.78 2364.5,-215.78 2424.5,-215.78 2424.5,-215.78 2430.5,-215.78 2436.5,-221.78 2436.5,-227.78 2436.5,-227.78 2436.5,-239.78 2436.5,-239.78 2436.5,-245.78 2430.5,-251.78 2424.5,-251.78"/>
<text text-anchor="middle" x="2394.5" y="-231.58" font-family="Avenir Next" font-size="9.00" fill="#363636">Programming I</text>
</a>
</g>
</g>
<!-- course__MATH100&#45;&gt;course__CSC110 -->
<g id="edge51" class="edge">
<title>course__MATH100&#45;&gt;course__CSC110</title>
<path fill="none" stroke="#5d6972" stroke-width="1.2" d="M338.22,-1116.7C365.35,-1092.69 415.28,-1049.29 460,-1014.78 487.53,-993.54 496.82,-991.47 524,-969.78 934.13,-642.39 997.22,-338.78 1522,-338.78 1522,-338.78 1522,-338.78 1987,-338.78 2057.59,-338.78 2254.09,-278.66 2345.54,-249.41"/>
<polygon fill="#5d6972" stroke="#5d6972" stroke-width="1.2" points="2346.55,-251.65 2352.47,-247.18 2345.06,-246.99 2346.55,-251.65"/>
</g>
<!-- course__PHYS102B -->
<g id="node22" class="node">
<title>course__PHYS102B</title>
<g id="a_node22"><a xlink:href="../../../courses/PHYS102B.html" xlink:title="Collapsed in simplified view: PHYS102B: General Physics II | PHYS111: Introductory Physics II | PHYS130: Physics II" target="_top">
<path fill="#f9f9f9" stroke="#363636" d="M2244,-83.78C2244,-83.78 2209,-83.78 2209,-83.78 2203,-83.78 2197,-77.78 2197,-71.78 2197,-71.78 2197,-59.78 2197,-59.78 2197,-53.78 2203,-47.78 2209,-47.78 2209,-47.78 2244,-47.78 2244,-47.78 2250,-47.78 2256,-53.78 2256,-59.78 2256,-59.78 2256,-71.78 2256,-71.78 2256,-77.78 2250,-83.78 2244,-83.78"/>
<text text-anchor="middle" x="2226.5" y="-63.58" font-family="Avenir Next" font-size="9.00" fill="#363636">Physics II</text>
</a>
</g>
</g>
<!-- course__MATH100&#45;&gt;course__PHYS102B -->
<g id="edge79" class="edge">
<title>course__MATH100&#45;&gt;course__PHYS102B</title>
<path fill="none" stroke="#5d6972" stroke-width="1.2" d="M333.55,-1116.38C359.01,-1086.56 411.62,-1026.22 460,-978.78 486.99,-952.32 503.38,-954.45 524,-922.78 591.58,-819 524.95,-749.54 607,-656.78 897.4,-328.46 1083.68,-288.78 1522,-288.78 1522,-288.78 1522,-288.78 1691.5,-288.78 1898.35,-288.78 2117.88,-144.54 2195.9,-88.07"/>
<polygon fill="#5d6972" stroke="#5d6972" stroke-width="1.2" points="2197.49,-89.94 2201.71,-83.84 2194.61,-85.98 2197.49,-89.94"/>
</g>
<!-- course__MATH100&#45;&gt;year_band__year&#45;1__exit -->
<!-- course__CHEM102&#45;&gt;course__EOS205 -->
<g id="edge55" class="edge">
<title>course__CHEM102&#45;&gt;course__EOS205</title>
<path fill="none" stroke="#5d6972" stroke-width="1.2" d="M501.12,-1210.47C523.7,-1162.66 592.13,-1037.78 691,-1037.78 691,-1037.78 691,-1037.78 776.5,-1037.78 859.19,-1037.78 876.02,-1003.87 944,-956.78 969.73,-938.95 969.46,-923.14 999,-912.78 1069.03,-888.22 1096.57,-902.06 1165,-930.78 1194.82,-943.3 1225.24,-964.21 1246.34,-980.28"/>
<polygon fill="#5d6972" stroke="#5d6972" stroke-width="1.2" points="1244.99,-982.34 1252.03,-984.67 1247.98,-978.46 1244.99,-982.34"/>
</g>
<!-- course__EOS261 -->
<g id="node23" class="node">
<title>course__EOS261</title>
<g id="a_node23"><a xlink:href="../../../courses/EOS261.html" xlink:title="EOS261: The Climate System" target="_top">
<path fill="#f9f9f9" stroke="#363636" d="M2409.5,-141.78C2409.5,-141.78 2379.5,-141.78 2379.5,-141.78 2373.5,-141.78 2367.5,-135.78 2367.5,-129.78 2367.5,-129.78 2367.5,-117.78 2367.5,-117.78 2367.5,-111.78 2373.5,-105.78 2379.5,-105.78 2379.5,-105.78 2409.5,-105.78 2409.5,-105.78 2415.5,-105.78 2421.5,-111.78 2421.5,-117.78 2421.5,-117.78 2421.5,-129.78 2421.5,-129.78 2421.5,-135.78 2415.5,-141.78 2409.5,-141.78"/>
<text text-anchor="middle" x="2394.5" y="-121.58" font-family="Avenir Next" font-size="9.00" fill="#363636">EOS261</text>
</a>
</g>
</g>
<!-- course__CHEM102&#45;&gt;course__EOS261 -->
<g id="edge57" class="edge">
<title>course__CHEM102&#45;&gt;course__EOS261</title>
<path fill="none" stroke="#5d6972" stroke-width="1.2" d="M503,-1210.66C534.56,-1154.62 633.33,-987.78 691,-987.78 691,-987.78 691,-987.78 776.5,-987.78 989.02,-987.78 1309.48,-388.78 1522,-388.78 1522,-388.78 1522,-388.78 1859,-388.78 2042.47,-388.78 2026.38,-219.24 2197,-151.78 2251.45,-130.25 2320.19,-124.96 2360.26,-123.84"/>
<polygon fill="#5d6972" stroke="#5d6972" stroke-width="1.2" points="2360.46,-126.29 2367.4,-123.68 2360.35,-121.39 2360.46,-126.29"/>
</g>
<!-- course__CHEM102&#45;&gt;year_band__year&#45;1__exit -->
<!-- course__EOS300 -->
<g id="node12" class="node">
<title>course__EOS300</title>
<g id="a_node12"><a xlink:href="../../../courses/EOS300.html" xlink:title="EOS300: Earth Science Field School" target="_top">
<path fill="#dbe8d2" stroke="#567447" stroke-width="1.3" d="M2241.5,-883.78C2241.5,-883.78 2211.5,-883.78 2211.5,-883.78 2205.5,-883.78 2199.5,-877.78 2199.5,-871.78 2199.5,-871.78 2199.5,-859.78 2199.5,-859.78 2199.5,-853.78 2205.5,-847.78 2211.5,-847.78 2211.5,-847.78 2241.5,-847.78 2241.5,-847.78 2247.5,-847.78 2253.5,-853.78 2253.5,-859.78 2253.5,-859.78 2253.5,-871.78 2253.5,-871.78 2253.5,-877.78 2247.5,-883.78 2241.5,-883.78"/>
<text text-anchor="middle" x="2226.5" y="-863.28" font-family="Avenir Next" font-size="10.00" fill="#24311e">EOS300</text>
</a>
</g>
</g>
<!-- course__EOS202&#45;&gt;course__EOS300 -->
<g id="edge60" class="edge">
<title>course__EOS202&#45;&gt;course__EOS300</title>
<path fill="none" stroke="#5d6972" stroke-width="1.2" d="M1281.62,-924.39C1302.21,-861.05 1379.92,-655.78 1522,-655.78 1522,-655.78 1522,-655.78 1987,-655.78 2014.99,-655.78 2148.5,-787.77 2202.63,-842.47"/>
<polygon fill="#5d6972" stroke="#5d6972" stroke-width="1.2" points="2200.95,-844.25 2207.61,-847.51 2204.44,-840.81 2200.95,-844.25"/>
</g>
<!-- year_band__year&#45;2__exit -->
<!-- course__EOS202&#45;&gt;year_band__year&#45;2__exit -->
<!-- course__EOS201 -->
<g id="node7" class="node">
<title>course__EOS201</title>
<g id="a_node7"><a xlink:href="../../../courses/EOS201.html" xlink:title="EOS201: Sedimentary Geology" target="_top">
<path fill="#ead9b8" stroke="#8f6a3b" stroke-width="1.3" d="M1427,-1072.78C1427,-1072.78 1397,-1072.78 1397,-1072.78 1391,-1072.78 1385,-1066.78 1385,-1060.78 1385,-1060.78 1385,-1048.78 1385,-1048.78 1385,-1042.78 1391,-1036.78 1397,-1036.78 1397,-1036.78 1427,-1036.78 1427,-1036.78 1433,-1036.78 1439,-1042.78 1439,-1048.78 1439,-1048.78 1439,-1060.78 1439,-1060.78 1439,-1066.78 1433,-1072.78 1427,-1072.78"/>
<text text-anchor="middle" x="1412" y="-1052.28" font-family="Avenir Next" font-size="10.00" fill="#3f3120">EOS201</text>
</a>
</g>
</g>
<!-- course__EOS205&#45;&gt;course__EOS201 -->
<g id="edge52" class="edge">
<title>course__EOS205&#45;&gt;course__EOS201</title>
<path fill="none" stroke="#5d6972" stroke-width="1.2" d="M1302.03,-1012.81C1323.65,-1021.13 1354.53,-1033.03 1377.9,-1042.03"/>
<polygon fill="#5d6972" stroke="#5d6972" stroke-width="1.2" points="1377.18,-1044.38 1384.59,-1044.61 1378.94,-1039.8 1377.18,-1044.38"/>
</g>
<!-- course__EOS240 -->
<g id="node8" class="node">
<title>course__EOS240</title>
<g id="a_node8"><a xlink:href="../../../courses/EOS240.html" xlink:title="EOS240: Geochemistry" target="_top">
<path fill="#ead9b8" stroke="#8f6a3b" stroke-width="1.3" d="M1427,-986.78C1427,-986.78 1397,-986.78 1397,-986.78 1391,-986.78 1385,-980.78 1385,-974.78 1385,-974.78 1385,-962.78 1385,-962.78 1385,-956.78 1391,-950.78 1397,-950.78 1397,-950.78 1427,-950.78 1427,-950.78 1433,-950.78 1439,-956.78 1439,-962.78 1439,-962.78 1439,-974.78 1439,-974.78 1439,-980.78 1433,-986.78 1427,-986.78"/>
<text text-anchor="middle" x="1412" y="-966.28" font-family="Avenir Next" font-size="10.00" fill="#3f3120">EOS240</text>
</a>
</g>
</g>
<!-- course__EOS205&#45;&gt;course__EOS240 -->
<g id="edge56" class="edge">
<title>course__EOS205&#45;&gt;course__EOS240</title>
<path fill="none" stroke="#5d6972" stroke-width="1.2" d="M1302.03,-996.22C1323.55,-990.8 1354.27,-983.07 1377.6,-977.19"/>
<polygon fill="#5d6972" stroke="#5d6972" stroke-width="1.2" points="1378.4,-979.52 1384.59,-975.43 1377.2,-974.76 1378.4,-979.52"/>
</g>
<!-- course__EOS316 -->
<g id="node13" class="node">
<title>course__EOS316</title>
<g id="a_node13"><a xlink:href="../../../courses/EOS316.html" xlink:title="EOS316: Igneous and Metamorphic Geology" target="_top">
<path fill="#dbe8d2" stroke="#567447" stroke-width="1.3" d="M2241.5,-823.78C2241.5,-823.78 2211.5,-823.78 2211.5,-823.78 2205.5,-823.78 2199.5,-817.78 2199.5,-811.78 2199.5,-811.78 2199.5,-799.78 2199.5,-799.78 2199.5,-793.78 2205.5,-787.78 2211.5,-787.78 2211.5,-787.78 2241.5,-787.78 2241.5,-787.78 2247.5,-787.78 2253.5,-793.78 2253.5,-799.78 2253.5,-799.78 2253.5,-811.78 2253.5,-811.78 2253.5,-817.78 2247.5,-823.78 2241.5,-823.78"/>
<text text-anchor="middle" x="2226.5" y="-803.28" font-family="Avenir Next" font-size="10.00" fill="#24311e">EOS316</text>
</a>
</g>
</g>
<!-- course__EOS205&#45;&gt;course__EOS316 -->
<g id="edge64" class="edge">
<title>course__EOS205&#45;&gt;course__EOS316</title>
<path fill="none" stroke="#5d6972" stroke-width="1.2" d="M1293.11,-984.71C1296.27,-980.92 1299.4,-976.84 1302,-972.78 1429.58,-773.89 1285.71,-488.78 1522,-488.78 1522,-488.78 1522,-488.78 1859,-488.78 1903.88,-488.78 2128.57,-709.01 2202.14,-782.34"/>
<polygon fill="#5d6972" stroke="#5d6972" stroke-width="1.2" points="2200.48,-784.16 2207.17,-787.37 2203.95,-780.69 2200.48,-784.16"/>
</g>
<!-- course__EOS205&#45;&gt;year_band__year&#45;2__exit -->
<!-- course__EOS201&#45;&gt;course__EOS300 -->
<g id="edge59" class="edge">
<title>course__EOS201&#45;&gt;course__EOS300</title>
<path fill="none" stroke="#5d6972" stroke-width="1.2" d="M1432.69,-1036.62C1465.81,-1008.04 1535.96,-955.78 1606,-955.78 1606,-955.78 1606,-955.78 1775,-955.78 1941.59,-955.78 1950.56,-830.7 2113,-793.78 2131.58,-789.56 2172.65,-820.42 2199.69,-843.06"/>
<polygon fill="#5d6972" stroke="#5d6972" stroke-width="1.2" points="2198.31,-845.1 2205.24,-847.76 2201.48,-841.36 2198.31,-845.1"/>
</g>
<!-- course__EOS201&#45;&gt;year_band__year&#45;2__exit -->
<!-- course__EOS335 -->
<g id="node14" class="node">
<title>course__EOS335</title>
<g id="a_node14"><a xlink:href="../../../courses/EOS335.html" xlink:title="EOS335: Isotopes in Natural Sciences" target="_top">
<path fill="#dbe8d2" stroke="#567447" stroke-width="1.3" d="M2241.5,-943.78C2241.5,-943.78 2211.5,-943.78 2211.5,-943.78 2205.5,-943.78 2199.5,-937.78 2199.5,-931.78 2199.5,-931.78 2199.5,-919.78 2199.5,-919.78 2199.5,-913.78 2205.5,-907.78 2211.5,-907.78 2211.5,-907.78 2241.5,-907.78 2241.5,-907.78 2247.5,-907.78 2253.5,-913.78 2253.5,-919.78 2253.5,-919.78 2253.5,-931.78 2253.5,-931.78 2253.5,-937.78 2247.5,-943.78 2241.5,-943.78"/>
<text text-anchor="middle" x="2226.5" y="-923.28" font-family="Avenir Next" font-size="10.00" fill="#24311e">EOS335</text>
</a>
</g>
</g>
<!-- course__EOS240&#45;&gt;course__EOS335 -->
<g id="edge78" class="edge">
<title>course__EOS240&#45;&gt;course__EOS335</title>
<path fill="none" stroke="#5d6972" stroke-width="1.2" d="M1439.28,-954.33C1475.62,-935.73 1543.79,-905.78 1606,-905.78 1606,-905.78 1606,-905.78 1775,-905.78 1933.68,-905.78 1970.7,-725.64 2114,-793.78 2166.78,-818.88 2158.4,-851.89 2197,-895.78 2198.92,-897.96 2200.95,-900.21 2203,-902.44"/>
<polygon fill="#5d6972" stroke="#5d6972" stroke-width="1.2" points="2201.23,-904.13 2207.79,-907.58 2204.81,-900.79 2201.23,-904.13"/>
</g>
<!-- course__EOS240&#45;&gt;year_band__year&#45;2__exit -->
<!-- choice_EOS316_0_1 -->
<g id="node34" class="node">
<title>choice_EOS316_0_1</title>
<path fill="#fff7ee" stroke="#b7793f" stroke-width="1.1" d="M2766,-196.78C2766,-196.78 2736,-196.78 2736,-196.78 2730,-196.78 2724,-190.78 2724,-184.78 2724,-184.78 2724,-172.78 2724,-172.78 2724,-166.78 2730,-160.78 2736,-160.78 2736,-160.78 2766,-160.78 2766,-160.78 2772,-160.78 2778,-166.78 2778,-172.78 2778,-172.78 2778,-184.78 2778,-184.78 2778,-190.78 2772,-196.78 2766,-196.78"/>
<text text-anchor="middle" x="2751" y="-176.58" font-family="Avenir Next" font-size="9.00">1 of</text>
</g>
<!-- course__EOS240&#45;&gt;choice_EOS316_0_1 -->
<g id="edge62" class="edge">
<title>course__EOS240&#45;&gt;choice_EOS316_0_1</title>
<path fill="none" stroke="#7a8389" d="M1429.67,-950.62C1460.91,-918.68 1531.84,-855.78 1606,-855.78 1606,-855.78 1606,-855.78 1775,-855.78 1914.73,-855.78 1850.58,-698.29 1914,-573.78 2036.62,-333.04 1965.73,-175.44 2197,-35.78 2375.62,72.08 2634.2,-93.97 2720.63,-156.53"/>
<polygon fill="#7a8389" stroke="#7a8389" points="2719.21,-158.53 2726.31,-160.67 2722.1,-154.57 2719.21,-158.53"/>
</g>
<!-- year_band__years&#45;3&#45;4__exit -->
<!-- course__EOS330&#45;&gt;year_band__years&#45;3&#45;4__exit -->
<!-- course__EOS314 -->
<g id="node10" class="node">
<title>course__EOS314</title>
<g id="a_node10"><a xlink:href="../../../courses/EOS314.html" xlink:title="EOS314: Descriptive Physical Oceanography" target="_top">
<path fill="#f9f9f9" stroke="#363636" d="M2241.5,-703.78C2241.5,-703.78 2211.5,-703.78 2211.5,-703.78 2205.5,-703.78 2199.5,-697.78 2199.5,-691.78 2199.5,-691.78 2199.5,-679.78 2199.5,-679.78 2199.5,-673.78 2205.5,-667.78 2211.5,-667.78 2211.5,-667.78 2241.5,-667.78 2241.5,-667.78 2247.5,-667.78 2253.5,-673.78 2253.5,-679.78 2253.5,-679.78 2253.5,-691.78 2253.5,-691.78 2253.5,-697.78 2247.5,-703.78 2241.5,-703.78"/>
<text text-anchor="middle" x="2226.5" y="-683.58" font-family="Avenir Next" font-size="9.00" fill="#363636">EOS314</text>
</a>
</g>
</g>
<!-- choice_EOS325_0_2_0 -->
<g id="node36" class="node">
<title>choice_EOS325_0_2_0</title>
<path fill="#fff7ee" stroke="#b7793f" stroke-width="1.1" d="M2602,-341.78C2602,-341.78 2572,-341.78 2572,-341.78 2566,-341.78 2560,-335.78 2560,-329.78 2560,-329.78 2560,-317.78 2560,-317.78 2560,-311.78 2566,-305.78 2572,-305.78 2572,-305.78 2602,-305.78 2602,-305.78 2608,-305.78 2614,-311.78 2614,-317.78 2614,-317.78 2614,-329.78 2614,-329.78 2614,-335.78 2608,-341.78 2602,-341.78"/>
<text text-anchor="middle" x="2587" y="-321.58" font-family="Avenir Next" font-size="9.00">1 of</text>
</g>
<!-- course__EOS314&#45;&gt;choice_EOS325_0_2_0 -->
<g id="edge71" class="edge">
<title>course__EOS314&#45;&gt;choice_EOS325_0_2_0</title>
<path fill="none" stroke="#7a8389" d="M2253.77,-673.62C2305.75,-649.22 2419.34,-594.02 2450,-563.78 2484.09,-530.16 2547.89,-402.65 2574.2,-348.42"/>
<polygon fill="#7a8389" stroke="#7a8389" points="2576.52,-349.25 2577.36,-341.88 2572.11,-347.12 2576.52,-349.25"/>
</g>
<!-- course__EOS325 -->
<g id="node11" class="node">
<title>course__EOS325</title>
<g id="a_node11"><a xlink:href="../../../courses/EOS325.html" xlink:title="EOS325: Earth System Modelling" target="_top">
<path fill="#dbe8d2" stroke="#567447" stroke-width="1.3" d="M2241.5,-763.78C2241.5,-763.78 2211.5,-763.78 2211.5,-763.78 2205.5,-763.78 2199.5,-757.78 2199.5,-751.78 2199.5,-751.78 2199.5,-739.78 2199.5,-739.78 2199.5,-733.78 2205.5,-727.78 2211.5,-727.78 2211.5,-727.78 2241.5,-727.78 2241.5,-727.78 2247.5,-727.78 2253.5,-733.78 2253.5,-739.78 2253.5,-739.78 2253.5,-751.78 2253.5,-751.78 2253.5,-757.78 2247.5,-763.78 2241.5,-763.78"/>
<text text-anchor="middle" x="2226.5" y="-743.28" font-family="Avenir Next" font-size="10.00" fill="#24311e">EOS325</text>
</a>
</g>
</g>
<!-- course__EOS325&#45;&gt;year_band__years&#45;3&#45;4__exit -->
<!-- course__EOS300&#45;&gt;year_band__years&#45;3&#45;4__exit -->
<!-- course__EOS316&#45;&gt;year_band__years&#45;3&#45;4__exit -->
<!-- course__EOS335&#45;&gt;year_band__years&#45;3&#45;4__exit -->
<!-- course__BIOL150A -->
<g id="node15" class="node">
<title>course__BIOL150A</title>
<g id="a_node15"><a xlink:href="../../../courses/BIOL150A.html" xlink:title="Collapsed in simplified view: BIOL150A: Modern Biology | BIOL184: Evolution and Biodiversity" target="_top">
<path fill="#f9f9f9" stroke="#363636" d="M2419.5,-551.78C2419.5,-551.78 2369.5,-551.78 2369.5,-551.78 2363.5,-551.78 2357.5,-545.78 2357.5,-539.78 2357.5,-539.78 2357.5,-527.78 2357.5,-527.78 2357.5,-521.78 2363.5,-515.78 2369.5,-515.78 2369.5,-515.78 2419.5,-515.78 2419.5,-515.78 2425.5,-515.78 2431.5,-521.78 2431.5,-527.78 2431.5,-527.78 2431.5,-539.78 2431.5,-539.78 2431.5,-545.78 2425.5,-551.78 2419.5,-551.78"/>
<text text-anchor="middle" x="2394.5" y="-531.58" font-family="Avenir Next" font-size="9.00" fill="#363636">Intro biology</text>
</a>
</g>
</g>
<!-- course__BIOL150A&#45;&gt;course__EOS330 -->
<g id="edge77" class="edge">
<title>course__BIOL150A&#45;&gt;course__EOS330</title>
<path fill="none" stroke="#5d6972" stroke-width="1.2" d="M2360.76,-551.93C2331.63,-568.07 2289.27,-591.55 2260.17,-607.67"/>
<polygon fill="#5d6972" stroke="#5d6972" stroke-width="1.2" points="2258.74,-605.67 2253.8,-611.2 2261.11,-609.95 2258.74,-605.67"/>
</g>
<!-- course__CHEM091 -->
<g id="node16" class="node">
<title>course__CHEM091</title>
<g id="a_node16"><a xlink:href="../../../courses/CHEM091.html" xlink:title="CHEM091: Introduction to Chemistry" target="_top">
<path fill="#f9f9f9" stroke="#363636" d="M510.5,-910.78C510.5,-910.78 473.5,-910.78 473.5,-910.78 467.5,-910.78 461.5,-904.78 461.5,-898.78 461.5,-898.78 461.5,-886.78 461.5,-886.78 461.5,-880.78 467.5,-874.78 473.5,-874.78 473.5,-874.78 510.5,-874.78 510.5,-874.78 516.5,-874.78 522.5,-880.78 522.5,-886.78 522.5,-886.78 522.5,-898.78 522.5,-898.78 522.5,-904.78 516.5,-910.78 510.5,-910.78"/>
<text text-anchor="middle" x="492" y="-890.58" font-family="Avenir Next" font-size="9.00" fill="#363636">CHEM091</text>
</a>
</g>
</g>
<!-- course__CHEM091&#45;&gt;course__CHEM102 -->
<g id="edge48" class="edge">
<title>course__CHEM091&#45;&gt;course__CHEM102</title>
<path fill="none" stroke="#5d6972" stroke-width="1.2" d="M492,-910.83C492,-1008.46 492,-1106.1 492,-1203.74"/>
<polygon fill="#5d6972" stroke="#5d6972" stroke-width="1.2" points="489.55,-1203.77 492,-1210.77 494.45,-1203.77 489.55,-1203.77"/>
</g>
<!-- course__EOS210 -->
<g id="node17" class="node">
<title>course__EOS210</title>
<g id="a_node17"><a xlink:href="../../../courses/EOS210.html" xlink:title="Collapsed in simplified view: EOS210: Introductory Geophysics | PHYS210: Introductory Geophysics" target="_top">
<path fill="#f9f9f9" stroke="#363636" d="M2428.5,-371.78C2428.5,-371.78 2360.5,-371.78 2360.5,-371.78 2354.5,-371.78 2348.5,-365.78 2348.5,-359.78 2348.5,-359.78 2348.5,-347.78 2348.5,-347.78 2348.5,-341.78 2354.5,-335.78 2360.5,-335.78 2360.5,-335.78 2428.5,-335.78 2428.5,-335.78 2434.5,-335.78 2440.5,-341.78 2440.5,-347.78 2440.5,-347.78 2440.5,-359.78 2440.5,-359.78 2440.5,-365.78 2434.5,-371.78 2428.5,-371.78"/>
<text text-anchor="middle" x="2394.5" y="-351.58" font-family="Avenir Next" font-size="9.00" fill="#363636">Intro geophysics</text>
</a>
</g>
</g>
<!-- course__EOS210&#45;&gt;choice_EOS325_0_2_0 -->
<g id="edge68" class="edge">
<title>course__EOS210&#45;&gt;choice_EOS325_0_2_0</title>
<path fill="none" stroke="#7a8389" d="M2440.65,-346.67C2475.07,-341.25 2521.71,-333.9 2552.78,-329.01"/>
<polygon fill="#7a8389" stroke="#7a8389" points="2553.4,-331.39 2559.93,-327.88 2552.64,-326.55 2553.4,-331.39"/>
</g>
<!-- course__EOS230 -->
<g id="node18" class="node">
<title>course__EOS230</title>
<g id="a_node18"><a xlink:href="../../../courses/EOS230.html" xlink:title="Equivalent or cross&#45;listed: EOS230: Introduction to Environmental Data Analysis | GEOG230: Introduction to Environmental Data Analysis" target="_top">
<path fill="#f9f9f9" stroke="#363636" d="M2436,-311.78C2436,-311.78 2353,-311.78 2353,-311.78 2347,-311.78 2341,-305.78 2341,-299.78 2341,-299.78 2341,-287.78 2341,-287.78 2341,-281.78 2347,-275.78 2353,-275.78 2353,-275.78 2436,-275.78 2436,-275.78 2442,-275.78 2448,-281.78 2448,-287.78 2448,-287.78 2448,-299.78 2448,-299.78 2448,-305.78 2442,-311.78 2436,-311.78"/>
<text text-anchor="middle" x="2394.5" y="-291.58" font-family="Avenir Next" font-size="9.00" fill="#363636">EOS230 / GEOG230</text>
</a>
</g>
</g>
<!-- course__EOS230&#45;&gt;choice_EOS325_0_2_0 -->
<g id="edge69" class="edge">
<title>course__EOS230&#45;&gt;choice_EOS325_0_2_0</title>
<path fill="none" stroke="#7a8389" d="M2448.06,-302.06C2481.56,-307.33 2523.95,-314.01 2552.84,-318.56"/>
<polygon fill="#7a8389" stroke="#7a8389" points="2552.58,-321 2559.88,-319.67 2553.34,-316.16 2552.58,-321"/>
</g>
<!-- course__MATH200 -->
<g id="node19" class="node">
<title>course__MATH200</title>
<g id="a_node19"><a xlink:href="../../../courses/MATH200.html" xlink:title="Equivalent or cross&#45;listed: MATH200: Calculus III | MATH202: Intermediate Calculus for CSC and EOS" target="_top">
<path fill="#f9f9f9" stroke="#363636" d="M2438,-491.78C2438,-491.78 2351,-491.78 2351,-491.78 2345,-491.78 2339,-485.78 2339,-479.78 2339,-479.78 2339,-467.78 2339,-467.78 2339,-461.78 2345,-455.78 2351,-455.78 2351,-455.78 2438,-455.78 2438,-455.78 2444,-455.78 2450,-461.78 2450,-467.78 2450,-467.78 2450,-479.78 2450,-479.78 2450,-485.78 2444,-491.78 2438,-491.78"/>
<text text-anchor="middle" x="2394.5" y="-471.58" font-family="Avenir Next" font-size="9.00" fill="#363636">MATH200 / MATH202</text>
</a>
</g>
</g>
<!-- choice_EOS325_0_0 -->
<g id="node35" class="node">
<title>choice_EOS325_0_0</title>
<path fill="#fff7ee" stroke="#b7793f" stroke-width="1.1" d="M2602,-491.78C2602,-491.78 2572,-491.78 2572,-491.78 2566,-491.78 2560,-485.78 2560,-479.78 2560,-479.78 2560,-467.78 2560,-467.78 2560,-461.78 2566,-455.78 2572,-455.78 2572,-455.78 2602,-455.78 2602,-455.78 2608,-455.78 2614,-461.78 2614,-467.78 2614,-467.78 2614,-479.78 2614,-479.78 2614,-485.78 2608,-491.78 2602,-491.78"/>
<text text-anchor="middle" x="2587" y="-471.58" font-family="Avenir Next" font-size="9.00">1 of</text>
</g>
<!-- course__MATH200&#45;&gt;choice_EOS325_0_0 -->
<g id="edge66" class="edge">
<title>course__MATH200&#45;&gt;choice_EOS325_0_0</title>
<path fill="none" stroke="#7a8389" d="M2450.09,-473.78C2483.19,-473.78 2524.36,-473.78 2552.67,-473.78"/>
<polygon fill="#7a8389" stroke="#7a8389" points="2552.93,-476.23 2559.93,-473.78 2552.93,-471.33 2552.93,-476.23"/>
</g>
<!-- course__MATH204 -->
<g id="node20" class="node">
<title>course__MATH204</title>
<g id="a_node20"><a xlink:href="../../../courses/MATH204.html" xlink:title="MATH204: Calculus IV" target="_top">
<path fill="#f9f9f9" stroke="#363636" d="M2412,-431.78C2412,-431.78 2377,-431.78 2377,-431.78 2371,-431.78 2365,-425.78 2365,-419.78 2365,-419.78 2365,-407.78 2365,-407.78 2365,-401.78 2371,-395.78 2377,-395.78 2377,-395.78 2412,-395.78 2412,-395.78 2418,-395.78 2424,-401.78 2424,-407.78 2424,-407.78 2424,-419.78 2424,-419.78 2424,-425.78 2418,-431.78 2412,-431.78"/>
<text text-anchor="middle" x="2394.5" y="-411.58" font-family="Avenir Next" font-size="9.00" fill="#363636">MATH204</text>
</a>
</g>
</g>
<!-- course__PHYS217 -->
<g id="node24" class="node">
<title>course__PHYS217</title>
<g id="a_node24"><a xlink:href="../../../courses/PHYS217.html" xlink:title="Equivalent or cross&#45;listed: PHYS217: Introductory Thermodynamics | PHYS317: Thermodynamics" target="_top">
<path fill="#f9f9f9" stroke="#363636" d="M2629,-196.78C2629,-196.78 2545,-196.78 2545,-196.78 2539,-196.78 2533,-190.78 2533,-184.78 2533,-184.78 2533,-172.78 2533,-172.78 2533,-166.78 2539,-160.78 2545,-160.78 2545,-160.78 2629,-160.78 2629,-160.78 2635,-160.78 2641,-166.78 2641,-172.78 2641,-172.78 2641,-184.78 2641,-184.78 2641,-190.78 2635,-196.78 2629,-196.78"/>
<text text-anchor="middle" x="2587" y="-176.58" font-family="Avenir Next" font-size="9.00" fill="#363636">PHYS217 / PHYS317</text>
</a>
</g>
</g>
<!-- course__MATH204&#45;&gt;course__PHYS217 -->
<g id="edge81" class="edge">
<title>course__MATH204&#45;&gt;course__PHYS217</title>
<path fill="none" stroke="#5d6972" stroke-width="1.2" d="M2424.1,-401.35C2433,-396.65 2442.45,-390.73 2450,-383.78 2508.78,-329.66 2554.28,-245.16 2574.52,-203.58"/>
<polygon fill="#5d6972" stroke="#5d6972" stroke-width="1.2" points="2576.83,-204.42 2577.66,-197.05 2572.42,-202.3 2576.83,-204.42"/>
</g>
<!-- course__MATH204&#45;&gt;choice_EOS325_0_0 -->
<g id="edge67" class="edge">
<title>course__MATH204&#45;&gt;choice_EOS325_0_0</title>
<path fill="none" stroke="#7a8389" d="M2424.02,-422.76C2458.47,-433.61 2516.31,-451.83 2552.75,-463.31"/>
<polygon fill="#7a8389" stroke="#7a8389" points="2552.33,-465.74 2559.74,-465.51 2553.8,-461.07 2552.33,-465.74"/>
</g>
<!-- course__CSC110&#45;&gt;choice_EOS325_0_2_0 -->
<g id="edge72" class="edge">
<title>course__CSC110&#45;&gt;choice_EOS325_0_2_0</title>
<path fill="none" stroke="#7a8389" d="M2434.05,-251.99C2469.11,-268.56 2520.29,-292.74 2553.37,-308.36"/>
<polygon fill="#7a8389" stroke="#7a8389" points="2552.36,-310.6 2559.74,-311.37 2554.45,-306.17 2552.36,-310.6"/>
</g>
<!-- course__PHYS102B&#45;&gt;course__EOS314 -->
<g id="edge61" class="edge">
<title>course__PHYS102B&#45;&gt;course__EOS314</title>
<path fill="none" stroke="#5d6972" stroke-width="1.2" d="M2223.08,-84.11C2210.79,-150.95 2168.94,-388.06 2155.5,-585.78 2153.75,-611.5 2142.73,-621.39 2155.5,-643.78 2163.62,-658.02 2178.68,-667.92 2192.84,-674.52"/>
<polygon fill="#5d6972" stroke="#5d6972" stroke-width="1.2" points="2191.86,-676.77 2199.26,-677.32 2193.82,-672.27 2191.86,-676.77"/>
</g>
<!-- course__PHYS102B&#45;&gt;course__EOS325 -->
<g id="edge74" class="edge">
<title>course__PHYS102B&#45;&gt;course__EOS325</title>
<path fill="none" stroke="#5d6972" stroke-width="1.2" d="M2223.08,-84.11C2210.79,-150.95 2168.94,-388.06 2155.5,-585.78 2151.94,-638.1 2129.52,-658.22 2155.5,-703.78 2163.62,-718.02 2178.68,-727.92 2192.84,-734.52"/>
<polygon fill="#5d6972" stroke="#5d6972" stroke-width="1.2" points="2191.86,-736.77 2199.26,-737.32 2193.82,-732.27 2191.86,-736.77"/>
</g>
<!-- course__PHYS102B&#45;&gt;course__EOS261 -->
<g id="edge58" class="edge">
<title>course__PHYS102B&#45;&gt;course__EOS261</title>
<path fill="none" stroke="#5d6972" stroke-width="1.2" d="M2256.04,-75.75C2285.08,-85.9 2330.05,-101.61 2360.58,-112.28"/>
<polygon fill="#5d6972" stroke="#5d6972" stroke-width="1.2" points="2359.83,-114.61 2367.25,-114.61 2361.45,-109.99 2359.83,-114.61"/>
</g>
<!-- course__PHYS102B&#45;&gt;course__PHYS217 -->
<g id="edge80" class="edge">
<title>course__PHYS102B&#45;&gt;course__PHYS217</title>
<path fill="none" stroke="#5d6972" stroke-width="1.2" d="M2256.15,-65.49C2299.41,-65.92 2383.43,-70.09 2450,-93.78 2490.73,-108.27 2532.08,-136.45 2558.31,-156.38"/>
<polygon fill="#5d6972" stroke="#5d6972" stroke-width="1.2" points="2556.96,-158.43 2564,-160.75 2559.94,-154.55 2556.96,-158.43"/>
</g>
<!-- course__EOS261&#45;&gt;choice_EOS325_0_2_0 -->
<g id="edge70" class="edge">
<title>course__EOS261&#45;&gt;choice_EOS325_0_2_0</title>
<path fill="none" stroke="#7a8389" d="M2412.74,-141.88C2447.36,-178.23 2525.31,-260.06 2563.73,-300.4"/>
<polygon fill="#7a8389" stroke="#7a8389" points="2562.06,-302.2 2568.66,-305.57 2565.61,-298.82 2562.06,-302.2"/>
</g>
<!-- course__PHYS217&#45;&gt;choice_EOS316_0_1 -->
<g id="edge63" class="edge">
<title>course__PHYS217&#45;&gt;choice_EOS316_0_1</title>
<path fill="none" stroke="#7a8389" d="M2641.04,-178.78C2665.92,-178.78 2694.8,-178.78 2716.57,-178.78"/>
<polygon fill="#7a8389" stroke="#7a8389" points="2716.67,-181.23 2723.67,-178.78 2716.67,-176.33 2716.67,-181.23"/>
</g>
<!-- year_band__year&#45;1__label -->
<g id="node25" class="node">
<title>year_band__year&#45;1__label</title>
<path fill="#eef2f4" stroke="#c8d0d5" stroke-width="0.8" d="M78,-1002.78C78,-1002.78 48,-1002.78 48,-1002.78 42,-1002.78 36,-996.78 36,-990.78 36,-990.78 36,-978.78 36,-978.78 36,-972.78 42,-966.78 48,-966.78 48,-966.78 78,-966.78 78,-966.78 84,-966.78 90,-972.78 90,-978.78 90,-978.78 90,-990.78 90,-990.78 90,-996.78 84,-1002.78 78,-1002.78"/>
<text text-anchor="middle" x="63" y="-981.38" font-family="Avenir Next" font-size="13.00" fill="#4e5f68">Year 1</text>
</g>
<!-- year_band__year&#45;1__entry -->
<!-- year_band__year&#45;1__label&#45;&gt;year_band__year&#45;1__entry -->
<!-- year_band__year&#45;2__entry -->
<!-- year_band__year&#45;1__label&#45;&gt;year_band__year&#45;2__entry -->
<!-- year_band__year&#45;1__entry&#45;&gt;course__CHEM101 -->
<!-- year_band__year&#45;1__entry&#45;&gt;course__EOS120 -->
<!-- year_band__year&#45;1__entry&#45;&gt;course__MATH100 -->
<!-- year_band__year&#45;1__entry&#45;&gt;course__CHEM102 -->
<!-- year_band__year&#45;1__entry&#45;&gt;course__CHEM091 -->
<!-- year_band__year&#45;1__entry&#45;&gt;year_band__year&#45;1__exit -->
<!-- year_band__year&#45;2__label -->
<g id="node28" class="node">
<title>year_band__year&#45;2__label</title>
<path fill="#eef2f4" stroke="#c8d0d5" stroke-width="0.8" d="M1069,-960.78C1069,-960.78 1039,-960.78 1039,-960.78 1033,-960.78 1027,-954.78 1027,-948.78 1027,-948.78 1027,-936.78 1027,-936.78 1027,-930.78 1033,-924.78 1039,-924.78 1039,-924.78 1069,-924.78 1069,-924.78 1075,-924.78 1081,-930.78 1081,-936.78 1081,-936.78 1081,-948.78 1081,-948.78 1081,-954.78 1075,-960.78 1069,-960.78"/>
<text text-anchor="middle" x="1054" y="-939.38" font-family="Avenir Next" font-size="13.00" fill="#4e5f68">Year 2</text>
</g>
<!-- year_band__year&#45;1__exit&#45;&gt;year_band__year&#45;2__label -->
<!-- year_band__year&#45;2__label&#45;&gt;year_band__year&#45;2__entry -->
<!-- year_band__years&#45;3&#45;4__entry -->
<!-- year_band__year&#45;2__label&#45;&gt;year_band__years&#45;3&#45;4__entry -->
<!-- year_band__year&#45;2__entry&#45;&gt;course__EOS202 -->
<!-- year_band__year&#45;2__entry&#45;&gt;course__EOS205 -->
<!-- year_band__year&#45;2__entry&#45;&gt;course__EOS201 -->
<!-- year_band__year&#45;2__entry&#45;&gt;course__EOS240 -->
<!-- year_band__year&#45;2__entry&#45;&gt;year_band__year&#45;2__exit -->
<!-- year_band__years&#45;3&#45;4__label -->
<g id="node31" class="node">
<title>year_band__years&#45;3&#45;4__label</title>
<path fill="#eef2f4" stroke="#c8d0d5" stroke-width="0.8" d="M2018,-969.78C2018,-969.78 1954,-969.78 1954,-969.78 1948,-969.78 1942,-963.78 1942,-957.78 1942,-957.78 1942,-945.78 1942,-945.78 1942,-939.78 1948,-933.78 1954,-933.78 1954,-933.78 2018,-933.78 2018,-933.78 2024,-933.78 2030,-939.78 2030,-945.78 2030,-945.78 2030,-957.78 2030,-957.78 2030,-963.78 2024,-969.78 2018,-969.78"/>
<text text-anchor="middle" x="1986" y="-948.38" font-family="Avenir Next" font-size="13.00" fill="#4e5f68">Years 3 + 4</text>
</g>
<!-- year_band__year&#45;2__exit&#45;&gt;year_band__years&#45;3&#45;4__label -->
<!-- year_band__years&#45;3&#45;4__label&#45;&gt;year_band__years&#45;3&#45;4__entry -->
<!-- year_band__years&#45;3&#45;4__entry&#45;&gt;course__EOS330 -->
<!-- year_band__years&#45;3&#45;4__entry&#45;&gt;course__EOS314 -->
<!-- year_band__years&#45;3&#45;4__entry&#45;&gt;course__EOS325 -->
<!-- year_band__years&#45;3&#45;4__entry&#45;&gt;course__EOS300 -->
<!-- year_band__years&#45;3&#45;4__entry&#45;&gt;course__EOS316 -->
<!-- year_band__years&#45;3&#45;4__entry&#45;&gt;course__EOS335 -->
<!-- year_band__years&#45;3&#45;4__entry&#45;&gt;course__BIOL150A -->
<!-- year_band__years&#45;3&#45;4__entry&#45;&gt;course__EOS210 -->
<!-- year_band__years&#45;3&#45;4__entry&#45;&gt;course__EOS230 -->
<!-- year_band__years&#45;3&#45;4__entry&#45;&gt;course__MATH200 -->
<!-- year_band__years&#45;3&#45;4__entry&#45;&gt;course__MATH204 -->
<!-- year_band__years&#45;3&#45;4__entry&#45;&gt;course__CSC110 -->
<!-- year_band__years&#45;3&#45;4__entry&#45;&gt;course__PHYS102B -->
<!-- year_band__years&#45;3&#45;4__entry&#45;&gt;course__EOS261 -->
<!-- year_band__years&#45;3&#45;4__entry&#45;&gt;course__PHYS217 -->
<!-- year_band__years&#45;3&#45;4__entry&#45;&gt;year_band__years&#45;3&#45;4__exit -->
<!-- choice_EOS316_0_1&#45;&gt;course__EOS316 -->
<g id="edge65" class="edge">
<title>choice_EOS316_0_1&#45;&gt;course__EOS316</title>
<path fill="none" stroke="#5d6972" stroke-width="1.2" d="M2746.56,-197.1C2736.38,-248.35 2703.19,-396.41 2641,-503.78 2576.94,-614.38 2554.87,-645.71 2450,-718.78 2389.76,-760.76 2306.43,-786.28 2260.76,-798.03"/>
<polygon fill="#5d6972" stroke="#5d6972" stroke-width="1.2" points="2259.95,-795.71 2253.76,-799.8 2261.15,-800.46 2259.95,-795.71"/>
</g>
<!-- choice_EOS325_0_0&#45;&gt;course__EOS325 -->
<g id="edge73" class="edge">
<title>choice_EOS325_0_0&#45;&gt;course__EOS325</title>
<path fill="none" stroke="#5d6972" stroke-width="1.2" d="M2575.7,-492.1C2550.34,-536.68 2484.41,-649.03 2450,-674.78 2392.22,-718.02 2307.24,-735.45 2260.8,-742.06"/>
<polygon fill="#5d6972" stroke="#5d6972" stroke-width="1.2" points="2260.3,-739.66 2253.69,-743.03 2260.96,-744.51 2260.3,-739.66"/>
</g>
<!-- choice_EOS325_0_2_0&#45;&gt;course__EOS325 -->
<g id="edge75" class="edge">
<title>choice_EOS325_0_2_0&#45;&gt;course__EOS325</title>
<path fill="none" stroke="#5d6972" stroke-width="1.2" d="M2577.84,-342.14C2550.09,-404.5 2460.47,-604.9 2450,-615.78 2411.55,-655.74 2386.93,-644.89 2339,-672.78 2311.58,-688.74 2281.55,-708.54 2259.57,-723.49"/>
<polygon fill="#5d6972" stroke="#5d6972" stroke-width="1.2" points="2257.99,-721.6 2253.59,-727.58 2260.75,-725.65 2257.99,-721.6"/>
</g>
</g>
</svg>
