<?xml version="1.0" encoding="UTF-8" standalone="no"?>
<!DOCTYPE svg PUBLIC "-//W3C//DTD SVG 1.1//EN"
 "http://www.w3.org/Graphics/SVG/1.1/DTD/svg11.dtd">
<!-- Generated by graphviz version 2.43.0 (0)
 -->
<!-- Title: MNR&#45;ESC Pages: 1 -->
<svg width="1863pt" height="754pt"
 viewBox="0.00 0.00 1862.52 753.80" xmlns="http://www.w3.org/2000/svg" xmlns:xlink="http://www.w3.org/1999/xlink">
<g id="graph0" class="graph" transform="scale(1 1) rotate(0) translate(32.4 721.4)">
<title>MNR&#45;ESC</title>
<g id="clust1" class="cluster">
<title>cluster_year&#45;1</title>
<path fill="#fbfcfd" stroke="#d8dde1" stroke-width="1.2" d="M20,-8C20,-8 852.86,-8 852.86,-8 858.86,-8 864.86,-14 864.86,-20 864.86,-20 864.86,-503 864.86,-503 864.86,-509 858.86,-515 852.86,-515 852.86,-515 20,-515 20,-515 14,-515 8,-509 8,-503 8,-503 8,-20 8,-20 8,-14 14,-8 20,-8"/>
</g>
<g id="clust5" class="cluster">
<title>cluster_year&#45;2</title>
<path fill="#fbfcfd" stroke="#d8dde1" stroke-width="1.2" d="M1072,-25C1072,-25 1777.72,-25 1777.72,-25 1783.72,-25 1789.72,-31 1789.72,-37 1789.72,-37 1789.72,-303 1789.72,-303 1789.72,-309 1783.72,-315 1777.72,-315 1777.72,-315 1072,-315 1072,-315 1066,-315 1060,-309 1060,-303 1060,-303 1060,-37 1060,-37 1060,-31 1066,-25 1072,-25"/>
</g>
<!-- course__CHEM101 -->
<g id="node1" class="node">
<title>course__CHEM101</title>
<g id="a_node1"><a xlink:href="../../../courses/CHEM101.html" xlink:title="Equivalent or cross&#45;listed: CHEM101: Fundamentals of Chemistry from Atoms to Materials | CHEM150: Engineering Chemistry" target="_top">
<path fill="#d7e9ef" stroke="#1f4f66" stroke-width="1.6" d="M365,-263C365,-263 269,-263 269,-263 263,-263 257,-257 257,-251 257,-251 257,-239 257,-239 257,-233 263,-227 269,-227 269,-227 365,-227 365,-227 371,-227 377,-233 377,-239 377,-239 377,-251 377,-251 377,-257 371,-263 365,-263"/>
<text text-anchor="middle" x="317" y="-242.5" font-family="Avenir Next" font-size="10.00" fill="#17232b">CHEM101 / CHEM150</text>
</a>
</g>
</g>
<!-- course__CHEM102 -->
<g id="node5" class="node">
<title>course__CHEM102</title>
<g id="a_node5"><a xlink:href="../../../courses/CHEM102.html" xlink:title="CHEM102: Chemical Reactivity Fundamentals with Environmental Applications" target="_top">
<path fill="#d7e9ef" stroke="#1f4f66" stroke-width="1.6" d="M512,-255C512,-255 472,-255 472,-255 466,-255 460,-249 460,-243 460,-243 460,-231 460,-231 460,-225 466,-219 472,-219 472,-219 512,-219 512,-219 518,-219 524,-225 524,-231 524,-231 524,-243 524,-243 524,-249 518,-255 512,-255"/>
<text text-anchor="middle" x="492" y="-234.5" font-family="Avenir Next" font-size="10.00" fill="#17232b">CHEM102</text>
</a>
</g>
</g>
<!-- course__CHEM101&#45;&gt;course__CHEM102 -->
<g id="edge35" class="edge">
<title>course__CHEM101&#45;&gt;course__CHEM102</title>
<path fill="none" stroke="#5d6972" stroke-width="1.2" d="M377.05,-242.27C402.03,-241.11 430.41,-239.8 452.6,-238.78"/>
<polygon fill="#5d6972" stroke="#5d6972" stroke-width="1.2" points="453,-241.21 459.87,-238.44 452.77,-236.32 453,-241.21"/>
</g>
<!-- year_band__year&#45;1__exit -->
<!-- course__CHEM101&#45;&gt;year_band__year&#45;1__exit -->
<!-- course__EOS110 -->
<g id="node2" class="node">
<title>course__EOS110</title>
<g id="a_node2"><a xlink:href="../../../courses/EOS110.html" xlink:title="Equivalent or cross&#45;listed: EOS110: Oceans and Atmosphere | EOS350: Understanding the Oceans" target="_top">
<path fill="#d7e9ef" stroke="#1f4f66" stroke-width="1.6" d="M355.5,-203C355.5,-203 278.5,-203 278.5,-203 272.5,-203 266.5,-197 266.5,-191 266.5,-191 266.5,-179 266.5,-179 266.5,-173 272.5,-167 278.5,-167 278.5,-167 355.5,-167 355.5,-167 361.5,-167 367.5,-173 367.5,-179 367.5,-179 367.5,-191 367.5,-191 367.5,-197 361.5,-203 355.5,-203"/>
<text text-anchor="middle" x="317" y="-182.5" font-family="Avenir Next" font-size="10.00" fill="#17232b">EOS110 / EOS350</text>
</a>
</g>
</g>
<!-- course__EOS110&#45;&gt;year_band__year&#45;1__exit -->
<!-- course__EOS120 -->
<g id="node3" class="node">
<title>course__EOS120</title>
<g id="a_node3"><a xlink:href="../../../courses/EOS120.html" xlink:title="EOS120: The Dynamic Earth" target="_top">
<path fill="#d7e9ef" stroke="#1f4f66" stroke-width="1.6" d="M332,-487C332,-487 302,-487 302,-487 296,-487 290,-481 290,-475 290,-475 290,-463 290,-463 290,-457 296,-451 302,-451 302,-451 332,-451 332,-451 338,-451 344,-457 344,-463 344,-463 344,-475 344,-475 344,-481 338,-487 332,-487"/>
<text text-anchor="middle" x="317" y="-466.5" font-family="Avenir Next" font-size="10.00" fill="#17232b">EOS120</text>
</a>
</g>
</g>
<!-- course__EOS202 -->
<g id="node9" class="node">
<title>course__EOS202</title>
<g id="a_node9"><a xlink:href="../../../courses/EOS202.html" xlink:title="EOS202: Structural Geology" target="_top">
<path fill="#d7e9ef" stroke="#1f4f66" stroke-width="1.6" d="M1356,-287C1356,-287 1326,-287 1326,-287 1320,-287 1314,-281 1314,-275 1314,-275 1314,-263 1314,-263 1314,-257 1320,-251 1326,-251 1326,-251 1356,-251 1356,-251 1362,-251 1368,-257 1368,-263 1368,-263 1368,-275 1368,-275 1368,-281 1362,-287 1356,-287"/>
<text text-anchor="middle" x="1341" y="-266.5" font-family="Avenir Next" font-size="10.00" fill="#17232b">EOS202</text>
</a>
</g>
</g>
<!-- course__EOS120&#45;&gt;course__EOS202 -->
<g id="edge39" class="edge">
<title>course__EOS120&#45;&gt;course__EOS202</title>
<path fill="none" stroke="#5d6972" stroke-width="1.2" d="M344.26,-476.81C354.97,-480.7 367.13,-486.08 377,-493 422.09,-524.62 411.81,-558.35 460,-585 529.89,-623.64 557.14,-616 637,-616 637,-616 637,-616 1116,-616 1269.17,-616 1322.68,-374.4 1336.21,-294.39"/>
<polygon fill="#5d6972" stroke="#5d6972" stroke-width="1.2" points="1338.68,-294.47 1337.39,-287.17 1333.84,-293.68 1338.68,-294.47"/>
</g>
<!-- course__EOS205 -->
<g id="node11" class="node">
<title>course__EOS205</title>
<g id="a_node11"><a xlink:href="../../../courses/EOS205.html" xlink:title="EOS205: Mineralogy" target="_top">
<path fill="#d7e9ef" stroke="#1f4f66" stroke-width="1.6" d="M1356,-141C1356,-141 1326,-141 1326,-141 1320,-141 1314,-135 1314,-129 1314,-129 1314,-117 1314,-117 1314,-111 1320,-105 1326,-105 1326,-105 1356,-105 1356,-105 1362,-105 1368,-111 1368,-117 1368,-117 1368,-129 1368,-129 1368,-135 1362,-141 1356,-141"/>
<text text-anchor="middle" x="1341" y="-120.5" font-family="Avenir Next" font-size="10.00" fill="#17232b">EOS205</text>
</a>
</g>
</g>
<!-- course__EOS120&#45;&gt;course__EOS205 -->
<g id="edge40" class="edge">
<title>course__EOS120&#45;&gt;course__EOS205</title>
<path fill="none" stroke="#5d6972" stroke-width="1.2" d="M344.35,-479.2C409.62,-504.1 577.81,-566 637,-566 637,-566 637,-566 837.5,-566 965.51,-566 1244.95,-238.41 1320.72,-146.64"/>
<polygon fill="#5d6972" stroke="#5d6972" stroke-width="1.2" points="1322.65,-148.15 1325.21,-141.19 1318.87,-145.04 1322.65,-148.15"/>
</g>
<!-- course__EOS120&#45;&gt;year_band__year&#45;1__exit -->
<!-- course__MATH100 -->
<g id="node4" class="node">
<title>course__MATH100</title>
<g id="a_node4"><a xlink:href="../../../courses/MATH100.html" xlink:title="Collapsed in simplified view: MATH100: Calculus I | MATH102: Calculus for Students in the Social and Biological Sciences | MATH109: Introduction to Calculus" target="_top">
<path fill="#d7e9ef" stroke="#1f4f66" stroke-width="1.6" d="M337,-375C337,-375 297,-375 297,-375 291,-375 285,-369 285,-363 285,-363 285,-351 285,-351 285,-345 291,-339 297,-339 297,-339 337,-339 337,-339 343,-339 349,-345 349,-351 349,-351 349,-363 349,-363 349,-369 343,-375 337,-375"/>
<text text-anchor="middle" x="317" y="-354.5" font-family="Avenir Next" font-size="10.00" fill="#17232b">Calculus I</text>
</a>
</g>
</g>
<!-- course__MATH100&#45;&gt;course__CHEM102 -->
<g id="edge36" class="edge">
<title>course__MATH100&#45;&gt;course__CHEM102</title>
<path fill="none" stroke="#5d6972" stroke-width="1.2" d="M344.27,-338.77C375.06,-317.42 426.06,-282.04 459.09,-259.13"/>
<polygon fill="#5d6972" stroke="#5d6972" stroke-width="1.2" points="460.69,-261.01 465.04,-255 457.9,-256.98 460.69,-261.01"/>
</g>
<!-- course__MATH101 -->
<g id="node6" class="node">
<title>course__MATH101</title>
<g id="a_node6"><a xlink:href="../../../courses/MATH101.html" xlink:title="MATH101: Calculus II" target="_top">
<path fill="#d7e9ef" stroke="#1f4f66" stroke-width="1.6" d="M511.5,-315C511.5,-315 472.5,-315 472.5,-315 466.5,-315 460.5,-309 460.5,-303 460.5,-303 460.5,-291 460.5,-291 460.5,-285 466.5,-279 472.5,-279 472.5,-279 511.5,-279 511.5,-279 517.5,-279 523.5,-285 523.5,-291 523.5,-291 523.5,-303 523.5,-303 523.5,-309 517.5,-315 511.5,-315"/>
<text text-anchor="middle" x="492" y="-294.5" font-family="Avenir Next" font-size="10.00" fill="#17232b">MATH101</text>
</a>
</g>
</g>
<!-- course__MATH100&#45;&gt;course__MATH101 -->
<g id="edge43" class="edge">
<title>course__MATH100&#45;&gt;course__MATH101</title>
<path fill="none" stroke="#5d6972" stroke-width="1.2" d="M349.33,-346.13C378.66,-335.96 422.51,-320.75 453.65,-309.95"/>
<polygon fill="#5d6972" stroke="#5d6972" stroke-width="1.2" points="454.67,-312.19 460.48,-307.58 453.07,-307.56 454.67,-312.19"/>
</g>
<!-- course__PHYS102A -->
<g id="node7" class="node">
<title>course__PHYS102A</title>
<g id="a_node7"><a xlink:href="../../../courses/PHYS102A.html" xlink:title="Collapsed in simplified view: PHYS102A: General Physics I | PHYS110: Introductory Physics I | PHYS120: Physics I" target="_top">
<path fill="#d7e9ef" stroke="#1f4f66" stroke-width="1.6" d="M509.5,-427C509.5,-427 474.5,-427 474.5,-427 468.5,-427 462.5,-421 462.5,-415 462.5,-415 462.5,-403 462.5,-403 462.5,-397 468.5,-391 474.5,-391 474.5,-391 509.5,-391 509.5,-391 515.5,-391 521.5,-397 521.5,-403 521.5,-403 521.5,-415 521.5,-415 521.5,-421 515.5,-427 509.5,-427"/>
<text text-anchor="middle" x="492" y="-406.5" font-family="Avenir Next" font-size="10.00" fill="#17232b">Physics I</text>
</a>
</g>
</g>
<!-- course__MATH100&#45;&gt;course__PHYS102A -->
<g id="edge44" class="edge">
<title>course__MATH100&#45;&gt;course__PHYS102A</title>
<path fill="none" stroke="#5d6972" stroke-width="1.2" d="M349.33,-366.42C379.29,-375.42 424.41,-388.99 455.65,-398.37"/>
<polygon fill="#5d6972" stroke="#5d6972" stroke-width="1.2" points="455.08,-400.76 462.49,-400.43 456.49,-396.07 455.08,-400.76"/>
</g>
<!-- course__PHYS102B -->
<g id="node8" class="node">
<title>course__PHYS102B</title>
<g id="a_node8"><a xlink:href="../../../courses/PHYS102B.html" xlink:title="Collapsed in simplified view: PHYS102B: General Physics II | PHYS111: Introductory Physics II | PHYS130: Physics II" target="_top">
<path fill="#d7e9ef" stroke="#1f4f66" stroke-width="1.6" d="M657,-401C657,-401 619,-401 619,-401 613,-401 607,-395 607,-389 607,-389 607,-377 607,-377 607,-371 613,-365 619,-365 619,-365 657,-365 657,-365 663,-365 669,-371 669,-377 669,-377 669,-389 669,-389 669,-395 663,-401 657,-401"/>
<text text-anchor="middle" x="638" y="-380.5" font-family="Avenir Next" font-size="10.00" fill="#17232b">Physics II</text>
</a>
</g>
</g>
<!-- course__MATH100&#45;&gt;course__PHYS102B -->
<g id="edge46" class="edge">
<title>course__MATH100&#45;&gt;course__PHYS102B</title>
<path fill="none" stroke="#5d6972" stroke-width="1.2" d="M349.17,-359.54C408.19,-364.35 536.05,-374.77 599.59,-379.95"/>
<polygon fill="#5d6972" stroke="#5d6972" stroke-width="1.2" points="599.47,-382.4 606.64,-380.53 599.86,-377.52 599.47,-382.4"/>
</g>
<!-- course__MATH100&#45;&gt;year_band__year&#45;1__exit -->
<!-- course__CHEM245 -->
<g id="node10" class="node">
<title>course__CHEM245</title>
<g id="a_node10"><a xlink:href="../../../courses/CHEM245.html" xlink:title="CHEM245: Introduction to Thermodynamics" target="_top">
<path fill="#d7e9ef" stroke="#1f4f66" stroke-width="1.6" d="M1361,-227C1361,-227 1321,-227 1321,-227 1315,-227 1309,-221 1309,-215 1309,-215 1309,-203 1309,-203 1309,-197 1315,-191 1321,-191 1321,-191 1361,-191 1361,-191 1367,-191 1373,-197 1373,-203 1373,-203 1373,-215 1373,-215 1373,-221 1367,-227 1361,-227"/>
<text text-anchor="middle" x="1341" y="-206.5" font-family="Avenir Next" font-size="10.00" fill="#17232b">CHEM245</text>
</a>
</g>
</g>
<!-- course__CHEM102&#45;&gt;course__CHEM245 -->
<g id="edge37" class="edge">
<title>course__CHEM102&#45;&gt;course__CHEM245</title>
<path fill="none" stroke="#5d6972" stroke-width="1.2" d="M513.55,-255.26C517.23,-258.97 520.88,-262.97 524,-267 615.92,-385.6 601.95,-516 752,-516 752,-516 752,-516 1116,-516 1166.79,-516 1189.18,-519.99 1226,-485 1309.63,-405.5 1247.36,-336.54 1309,-239 1310.4,-236.78 1312,-234.61 1313.72,-232.51"/>
<polygon fill="#5d6972" stroke="#5d6972" stroke-width="1.2" points="1315.67,-234 1318.48,-227.14 1312,-230.75 1315.67,-234"/>
</g>
<!-- course__CHEM102&#45;&gt;course__EOS205 -->
<g id="edge41" class="edge">
<title>course__CHEM102&#45;&gt;course__EOS205</title>
<path fill="none" stroke="#5d6972" stroke-width="1.2" d="M514.78,-218.72C582.51,-163.79 797.29,-4 1004,-4 1004,-4 1004,-4 1116,-4 1197.01,-4 1277.26,-65.44 1316.01,-100.03"/>
<polygon fill="#5d6972" stroke="#5d6972" stroke-width="1.2" points="1314.59,-102.05 1321.42,-104.93 1317.87,-98.41 1314.59,-102.05"/>
</g>
<!-- course__CHEM102&#45;&gt;year_band__year&#45;1__exit -->
<!-- course__MATH101&#45;&gt;course__PHYS102B -->
<g id="edge47" class="edge">
<title>course__MATH101&#45;&gt;course__PHYS102B</title>
<path fill="none" stroke="#5d6972" stroke-width="1.2" d="M523.19,-315.03C545.75,-328.5 576.69,-346.98 600.62,-361.27"/>
<polygon fill="#5d6972" stroke="#5d6972" stroke-width="1.2" points="599.59,-363.51 606.85,-365 602.1,-359.3 599.59,-363.51"/>
</g>
<!-- course__MATH101&#45;&gt;year_band__year&#45;1__exit -->
<!-- course__PHYS102A&#45;&gt;course__PHYS102B -->
<g id="edge45" class="edge">
<title>course__PHYS102A&#45;&gt;course__PHYS102B</title>
<path fill="none" stroke="#5d6972" stroke-width="1.2" d="M521.79,-403.8C544.21,-399.75 575.48,-394.11 599.79,-389.72"/>
<polygon fill="#5d6972" stroke="#5d6972" stroke-width="1.2" points="600.31,-392.11 606.77,-388.46 599.44,-387.29 600.31,-392.11"/>
</g>
<!-- course__PHYS102A&#45;&gt;year_band__year&#45;1__exit -->
<!-- course__PHYS102B&#45;&gt;year_band__year&#45;1__exit -->
<!-- year_band__year&#45;2__exit -->
<!-- course__EOS202&#45;&gt;year_band__year&#45;2__exit -->
<!-- course__CHEM245&#45;&gt;year_band__year&#45;2__exit -->
<!-- course__EOS201 -->
<g id="node12" class="node">
<title>course__EOS201</title>
<g id="a_node12"><a xlink:href="../../../courses/EOS201.html" xlink:title="EOS201: Sedimentary Geology" target="_top">
<path fill="#d7e9ef" stroke="#1f4f66" stroke-width="1.6" d="M1498,-201C1498,-201 1468,-201 1468,-201 1462,-201 1456,-195 1456,-189 1456,-189 1456,-177 1456,-177 1456,-171 1462,-165 1468,-165 1468,-165 1498,-165 1498,-165 1504,-165 1510,-171 1510,-177 1510,-177 1510,-189 1510,-189 1510,-195 1504,-201 1498,-201"/>
<text text-anchor="middle" x="1483" y="-180.5" font-family="Avenir Next" font-size="10.00" fill="#17232b">EOS201</text>
</a>
</g>
</g>
<!-- course__EOS205&#45;&gt;course__EOS201 -->
<g id="edge38" class="edge">
<title>course__EOS205&#45;&gt;course__EOS201</title>
<path fill="none" stroke="#5d6972" stroke-width="1.2" d="M1368,-134.14C1390.85,-143.93 1424.2,-158.23 1448.93,-168.83"/>
<polygon fill="#5d6972" stroke="#5d6972" stroke-width="1.2" points="1448.26,-171.21 1455.66,-171.71 1450.19,-166.7 1448.26,-171.21"/>
</g>
<!-- course__EOS240 -->
<g id="node13" class="node">
<title>course__EOS240</title>
<g id="a_node13"><a xlink:href="../../../courses/EOS240.html" xlink:title="EOS240: Geochemistry" target="_top">
<path fill="#d7e9ef" stroke="#1f4f66" stroke-width="1.6" d="M1498,-115C1498,-115 1468,-115 1468,-115 1462,-115 1456,-109 1456,-103 1456,-103 1456,-91 1456,-91 1456,-85 1462,-79 1468,-79 1468,-79 1498,-79 1498,-79 1504,-79 1510,-85 1510,-91 1510,-91 1510,-103 1510,-103 1510,-109 1504,-115 1498,-115"/>
<text text-anchor="middle" x="1483" y="-94.5" font-family="Avenir Next" font-size="10.00" fill="#17232b">EOS240</text>
</a>
</g>
</g>
<!-- course__EOS205&#45;&gt;course__EOS240 -->
<g id="edge42" class="edge">
<title>course__EOS205&#45;&gt;course__EOS240</title>
<path fill="none" stroke="#5d6972" stroke-width="1.2" d="M1368,-118.17C1390.75,-113.95 1423.91,-107.79 1448.61,-103.2"/>
<polygon fill="#5d6972" stroke="#5d6972" stroke-width="1.2" points="1449.22,-105.58 1455.66,-101.89 1448.33,-100.76 1449.22,-105.58"/>
</g>
<!-- course__EOS205&#45;&gt;year_band__year&#45;2__exit -->
<!-- course__EOS201&#45;&gt;year_band__year&#45;2__exit -->
<!-- course__EOS240&#45;&gt;year_band__year&#45;2__exit -->
<!-- course__CHEM091 -->
<g id="node14" class="node">
<title>course__CHEM091</title>
<g id="a_node14"><a xlink:href="../../../courses/CHEM091.html" xlink:title="CHEM091: Introduction to Chemistry" target="_top">
<path fill="#f9f9f9" stroke="#363636" d="M510.5,-689C510.5,-689 473.5,-689 473.5,-689 467.5,-689 461.5,-683 461.5,-677 461.5,-677 461.5,-665 461.5,-665 461.5,-659 467.5,-653 473.5,-653 473.5,-653 510.5,-653 510.5,-653 516.5,-653 522.5,-659 522.5,-665 522.5,-665 522.5,-677 522.5,-677 522.5,-683 516.5,-689 510.5,-689"/>
<text text-anchor="middle" x="492" y="-668.8" font-family="Avenir Next" font-size="9.00" fill="#363636">CHEM091</text>
</a>
</g>
</g>
<!-- course__CHEM091&#45;&gt;course__CHEM102 -->
<g id="edge34" class="edge">
<title>course__CHEM091&#45;&gt;course__CHEM102</title>
<path fill="none" stroke="#5d6972" stroke-width="1.2" d="M461.46,-659.5C445.59,-651.78 427.64,-639.89 418.5,-623 382.11,-555.77 380.13,-345.12 418.5,-279 426.17,-265.78 439.74,-256.37 453.14,-249.86"/>
<polygon fill="#5d6972" stroke="#5d6972" stroke-width="1.2" points="454.32,-252.01 459.68,-246.89 452.3,-247.55 454.32,-252.01"/>
</g>
<!-- year_band__year&#45;1__label -->
<g id="node15" class="node">
<title>year_band__year&#45;1__label</title>
<path fill="#eef2f4" stroke="#c8d0d5" stroke-width="0.8" d="M78,-72C78,-72 48,-72 48,-72 42,-72 36,-66 36,-60 36,-60 36,-48 36,-48 36,-42 42,-36 48,-36 48,-36 78,-36 78,-36 84,-36 90,-42 90,-48 90,-48 90,-60 90,-60 90,-66 84,-72 78,-72"/>
<text text-anchor="middle" x="63" y="-50.6" font-family="Avenir Next" font-size="13.00" fill="#4e5f68">Year 1</text>
</g>
<!-- year_band__year&#45;1__entry -->
<!-- year_band__year&#45;1__label&#45;&gt;year_band__year&#45;1__entry -->
<!-- year_band__year&#45;2__entry -->
<!-- year_band__year&#45;1__label&#45;&gt;year_band__year&#45;2__entry -->
<!-- year_band__year&#45;1__entry&#45;&gt;course__CHEM101 -->
<!-- year_band__year&#45;1__entry&#45;&gt;course__EOS110 -->
<!-- year_band__year&#45;1__entry&#45;&gt;course__EOS120 -->
<!-- year_band__year&#45;1__entry&#45;&gt;course__MATH100 -->
<!-- year_band__year&#45;1__entry&#45;&gt;course__CHEM102 -->
<!-- year_band__year&#45;1__entry&#45;&gt;course__MATH101 -->
<!-- year_band__year&#45;1__entry&#45;&gt;course__PHYS102A -->
<!-- year_band__year&#45;1__entry&#45;&gt;course__PHYS102B -->
<!-- year_band__year&#45;1__entry&#45;&gt;course__CHEM091 -->
<!-- year_band__year&#45;1__entry&#45;&gt;year_band__year&#45;1__exit -->
<!-- year_band__year&#45;2__label -->
<g id="node18" class="node">
<title>year_band__year&#45;2__label</title>
<path fill="#eef2f4" stroke="#c8d0d5" stroke-width="0.8" d="M1130,-160C1130,-160 1100,-160 1100,-160 1094,-160 1088,-154 1088,-148 1088,-148 1088,-136 1088,-136 1088,-130 1094,-124 1100,-124 1100,-124 1130,-124 1130,-124 1136,-124 1142,-130 1142,-136 1142,-136 1142,-148 1142,-148 1142,-154 1136,-160 1130,-160"/>
<text text-anchor="middle" x="1115" y="-138.6" font-family="Avenir Next" font-size="13.00" fill="#4e5f68">Year 2</text>
</g>
<!-- year_band__year&#45;1__exit&#45;&gt;year_band__year&#45;2__label -->
<!-- year_band__year&#45;2__label&#45;&gt;year_band__year&#45;2__entry -->
<!-- year_band__year&#45;2__entry&#45;&gt;course__EOS202 -->
<!-- year_band__year&#45;2__entry&#45;&gt;course__CHEM245 -->
<!-- year_band__year&#45;2__entry&#45;&gt;course__EOS205 -->
<!-- year_band__year&#45;2__entry&#45;&gt;course__EOS201 -->
<!-- year_band__year&#45;2__entry&#45;&gt;course__EOS240 -->
<!-- year_band__year&#45;2__entry&#45;&gt;year_band__year&#45;2__exit -->
</g>
</svg>
