<?xml version="1.0" encoding="UTF-8" standalone="no"?>
<!DOCTYPE svg PUBLIC "-//W3C//DTD SVG 1.1//EN"
 "http://www.w3.org/Graphics/SVG/1.1/DTD/svg11.dtd">
<!-- Generated by graphviz version 2.43.0 (0)
 -->
<!-- Title: unix Pages: 1 -->
<svg width="744pt" height="420pt"
 viewBox="0.00 0.00 744.00 420.00" xmlns="http://www.w3.org/2000/svg" xmlns:xlink="http://www.w3.org/1999/xlink">
<g id="graph0" class="graph" transform="scale(1 1) rotate(0) translate(4 416)">
<title>unix</title>
<polygon fill="white" stroke="transparent" points="-4,4 -4,-416 740,-416 740,4 -4,4"/>
<text text-anchor="middle" x="368" y="-396.8" font-family="Times,serif" font-size="14.00">EOS130: Climate Change</text>
<!-- EOS340 -->
<g id="node1" class="node">
<title>EOS340</title>
<path fill="#f5edc9" stroke="#030a10" d="M635,-311C635,-311 591,-311 591,-311 587.5,-311 584,-307.5 584,-304 584,-304 584,-297 584,-297 584,-293.5 587.5,-290 591,-290 591,-290 635,-290 635,-290 638.5,-290 642,-293.5 642,-297 642,-297 642,-304 642,-304 642,-307.5 638.5,-311 635,-311"/>
<text text-anchor="middle" x="613" y="-297.4" font-family="Times,serif" font-size="12.00">EOS340</text>
</g>
<!-- EOS433 -->
<g id="node2" class="node">
<title>EOS433</title>
<path fill="#f5edc9" stroke="#030a10" d="M729,-311C729,-311 685,-311 685,-311 681.5,-311 678,-307.5 678,-304 678,-304 678,-297 678,-297 678,-293.5 681.5,-290 685,-290 685,-290 729,-290 729,-290 732.5,-290 736,-293.5 736,-297 736,-297 736,-304 736,-304 736,-307.5 732.5,-311 729,-311"/>
<text text-anchor="middle" x="707" y="-297.4" font-family="Times,serif" font-size="12.00">EOS433</text>
</g>
<!-- EOS340&#45;&gt;EOS433 -->
<g id="edge12" class="edge">
<title>EOS340&#45;&gt;EOS433</title>
<path fill="none" stroke="black" d="M642.1,-300.5C651.73,-300.5 662.6,-300.5 672.61,-300.5"/>
<polygon fill="black" stroke="black" points="672.75,-302.25 677.75,-300.5 672.75,-298.75 672.75,-302.25"/>
</g>
<!-- EOS325 -->
<g id="node3" class="node">
<title>EOS325</title>
<path fill="#f5edc9" stroke="#030a10" d="M438.5,-239C438.5,-239 394.5,-239 394.5,-239 391,-239 387.5,-235.5 387.5,-232 387.5,-232 387.5,-225 387.5,-225 387.5,-221.5 391,-218 394.5,-218 394.5,-218 438.5,-218 438.5,-218 442,-218 445.5,-221.5 445.5,-225 445.5,-225 445.5,-232 445.5,-232 445.5,-235.5 442,-239 438.5,-239"/>
<text text-anchor="middle" x="416.5" y="-225.4" font-family="Times,serif" font-size="12.00">EOS325</text>
</g>
<!-- 1 of [&#39;EOS325&#39;, &#39;MATH204&#39;] -->
<g id="node8" class="node">
<title>1 of [&#39;EOS325&#39;, &#39;MATH204&#39;]</title>
<ellipse fill="#e9dbd0" stroke="#030a10" cx="519" cy="-278.5" rx="11" ry="11"/>
<text text-anchor="middle" x="519" y="-275.4" font-family="Times,serif" font-size="12.00">1</text>
</g>
<!-- EOS325&#45;&gt;1 of [&#39;EOS325&#39;, &#39;MATH204&#39;] -->
<g id="edge2" class="edge">
<title>EOS325&#45;&gt;1 of [&#39;EOS325&#39;, &#39;MATH204&#39;]</title>
<path fill="none" stroke="black" d="M445.58,-238.79C448.45,-239.98 451.3,-241.23 454,-242.5 472.09,-251 492.02,-262.59 504.76,-270.29"/>
<polygon fill="black" stroke="black" points="503.93,-271.84 509.11,-272.95 505.75,-268.85 503.93,-271.84"/>
</g>
<!-- 1 of [&#39;EOS325&#39;, &#39;MATH248&#39;, &#39;PHYS248&#39;] -->
<g id="node27" class="node">
<title>1 of [&#39;EOS325&#39;, &#39;MATH248&#39;, &#39;PHYS248&#39;]</title>
<ellipse fill="#e9dbd0" stroke="#030a10" cx="519" cy="-215.5" rx="11" ry="11"/>
<text text-anchor="middle" x="519" y="-212.4" font-family="Times,serif" font-size="12.00">1</text>
</g>
<!-- EOS325&#45;&gt;1 of [&#39;EOS325&#39;, &#39;MATH248&#39;, &#39;PHYS248&#39;] -->
<g id="edge26" class="edge">
<title>EOS325&#45;&gt;1 of [&#39;EOS325&#39;, &#39;MATH248&#39;, &#39;PHYS248&#39;]</title>
<path fill="none" stroke="black" d="M445.76,-224.84C464.17,-222.46 487.48,-219.45 502.56,-217.5"/>
<polygon fill="black" stroke="black" points="502.99,-219.21 507.72,-216.83 502.54,-215.74 502.99,-219.21"/>
</g>
<!-- 1 of [&#39;EOS225&#39;, &#39;EOS325&#39;] -->
<g id="node34" class="node">
<title>1 of [&#39;EOS225&#39;, &#39;EOS325&#39;]</title>
<ellipse fill="#e9dbd0" stroke="#030a10" cx="519" cy="-172.5" rx="11" ry="11"/>
<text text-anchor="middle" x="519" y="-169.4" font-family="Times,serif" font-size="12.00">1</text>
</g>
<!-- EOS325&#45;&gt;1 of [&#39;EOS225&#39;, &#39;EOS325&#39;] -->
<g id="edge36" class="edge">
<title>EOS325&#45;&gt;1 of [&#39;EOS225&#39;, &#39;EOS325&#39;]</title>
<path fill="none" stroke="black" d="M444.85,-217.89C447.98,-216.49 451.08,-215.02 454,-213.5 472.56,-203.84 492.67,-190.42 505.3,-181.6"/>
<polygon fill="black" stroke="black" points="506.52,-182.89 509.6,-178.58 504.5,-180.03 506.52,-182.89"/>
</g>
<!-- EOS460 -->
<g id="node4" class="node">
<title>EOS460</title>
<path fill="#f5edc9" stroke="#030a10" d="M635,-141C635,-141 591,-141 591,-141 587.5,-141 584,-137.5 584,-134 584,-134 584,-127 584,-127 584,-123.5 587.5,-120 591,-120 591,-120 635,-120 635,-120 638.5,-120 642,-123.5 642,-127 642,-127 642,-134 642,-134 642,-137.5 638.5,-141 635,-141"/>
<text text-anchor="middle" x="613" y="-127.4" font-family="Times,serif" font-size="12.00">EOS460</text>
</g>
<!-- EOS423 -->
<g id="node5" class="node">
<title>EOS423</title>
<path fill="#f5edc9" stroke="#030a10" d="M635,-98C635,-98 591,-98 591,-98 587.5,-98 584,-94.5 584,-91 584,-91 584,-84 584,-84 584,-80.5 587.5,-77 591,-77 591,-77 635,-77 635,-77 638.5,-77 642,-80.5 642,-84 642,-84 642,-91 642,-91 642,-94.5 638.5,-98 635,-98"/>
<text text-anchor="middle" x="613" y="-84.4" font-family="Times,serif" font-size="12.00">EOS423</text>
</g>
<!-- EOS261 -->
<g id="node6" class="node">
<title>EOS261</title>
<path fill="#e7a79b" stroke="#030a10" d="M272.5,-49C272.5,-49 228.5,-49 228.5,-49 225,-49 221.5,-45.5 221.5,-42 221.5,-42 221.5,-35 221.5,-35 221.5,-31.5 225,-28 228.5,-28 228.5,-28 272.5,-28 272.5,-28 276,-28 279.5,-31.5 279.5,-35 279.5,-35 279.5,-42 279.5,-42 279.5,-45.5 276,-49 272.5,-49"/>
<text text-anchor="middle" x="250.5" y="-35.4" font-family="Times,serif" font-size="12.00">EOS261</text>
</g>
<!-- EOS261&#45;&gt;EOS460 -->
<g id="edge29" class="edge">
<title>EOS261&#45;&gt;EOS460</title>
<path fill="none" stroke="black" d="M279.79,-45.72C345.6,-62.51 508.7,-104.14 578.95,-122.07"/>
<polygon fill="black" stroke="black" points="578.57,-123.77 583.84,-123.31 579.43,-120.38 578.57,-123.77"/>
</g>
<!-- 1 of [&#39;CSC110&#39;, &#39;CSC111&#39;, &#39;EOS210&#39;, &#39;EOS230&#39;, &#39;GEOG230&#39;, &#39;EOS261&#39;, &#39;EOS314&#39;] -->
<g id="node20" class="node">
<title>1 of [&#39;CSC110&#39;, &#39;CSC111&#39;, &#39;EOS210&#39;, &#39;EOS230&#39;, &#39;GEOG230&#39;, &#39;EOS261&#39;, &#39;EOS314&#39;]</title>
<ellipse fill="#e9dbd0" stroke="#030a10" cx="332" cy="-136.5" rx="11" ry="11"/>
<text text-anchor="middle" x="332" y="-133.4" font-family="Times,serif" font-size="12.00">1</text>
</g>
<!-- EOS261&#45;&gt;1 of [&#39;CSC110&#39;, &#39;CSC111&#39;, &#39;EOS210&#39;, &#39;EOS230&#39;, &#39;GEOG230&#39;, &#39;EOS261&#39;, &#39;EOS314&#39;] -->
<g id="edge22" class="edge">
<title>EOS261&#45;&gt;1 of [&#39;CSC110&#39;, &#39;CSC111&#39;, &#39;EOS210&#39;, &#39;EOS230&#39;, &#39;GEOG230&#39;, &#39;EOS261&#39;, &#39;EOS314&#39;]</title>
<path fill="none" stroke="black" d="M279.79,-48.59C281.65,-49.77 283.41,-51.07 285,-52.5 306.12,-71.51 319.55,-102.58 326.14,-121.14"/>
<polygon fill="black" stroke="black" points="324.53,-121.86 327.81,-126.02 327.84,-120.72 324.53,-121.86"/>
</g>
<!-- EOS130 -->
<g id="node7" class="node">
<title>EOS130</title>
<path fill="#9fa7be" stroke="#030a10" d="M59,-120C59,-120 15,-120 15,-120 11.5,-120 8,-116.5 8,-113 8,-113 8,-106 8,-106 8,-102.5 11.5,-99 15,-99 15,-99 59,-99 59,-99 62.5,-99 66,-102.5 66,-106 66,-106 66,-113 66,-113 66,-116.5 62.5,-120 59,-120"/>
<text text-anchor="middle" x="37" y="-106.4" font-family="Times,serif" font-size="12.00">EOS130</text>
</g>
<!-- 1 of [&#39;EOS110&#39;, &#39;EOS130&#39;, &#39;GEOG130&#39;, &#39;GEOG103&#39;] -->
<g id="node36" class="node">
<title>1 of [&#39;EOS110&#39;, &#39;EOS130&#39;, &#39;GEOG130&#39;, &#39;GEOG103&#39;]</title>
<ellipse fill="#e9dbd0" stroke="#030a10" cx="145" cy="-67.5" rx="11" ry="11"/>
<text text-anchor="middle" x="145" y="-64.4" font-family="Times,serif" font-size="12.00">1</text>
</g>
<!-- EOS130&#45;&gt;1 of [&#39;EOS110&#39;, &#39;EOS130&#39;, &#39;GEOG130&#39;, &#39;GEOG103&#39;] -->
<g id="edge39" class="edge">
<title>EOS130&#45;&gt;1 of [&#39;EOS110&#39;, &#39;EOS130&#39;, &#39;GEOG130&#39;, &#39;GEOG103&#39;]</title>
<path fill="none" stroke="black" d="M64.75,-98.9C85.42,-90.71 113.23,-79.69 129.82,-73.12"/>
<polygon fill="black" stroke="black" points="130.58,-74.7 134.58,-71.23 129.29,-71.45 130.58,-74.7"/>
</g>
<!-- 1 of [&#39;EOS325&#39;, &#39;MATH204&#39;]&#45;&gt;EOS340 -->
<g id="edge1" class="edge">
<title>1 of [&#39;EOS325&#39;, &#39;MATH204&#39;]&#45;&gt;EOS340</title>
<path fill="none" stroke="black" d="M529.85,-280.85C541.44,-283.63 561.31,-288.38 578.61,-292.52"/>
<polygon fill="black" stroke="black" points="578.61,-294.32 583.88,-293.78 579.43,-290.91 578.61,-294.32"/>
</g>
<!-- MATH204 -->
<g id="node9" class="node">
<title>MATH204</title>
<path fill="#f5edc9" stroke="#030a10" d="M278,-289C278,-289 223,-289 223,-289 219.5,-289 216,-285.5 216,-282 216,-282 216,-275 216,-275 216,-271.5 219.5,-268 223,-268 223,-268 278,-268 278,-268 281.5,-268 285,-271.5 285,-275 285,-275 285,-282 285,-282 285,-285.5 281.5,-289 278,-289"/>
<text text-anchor="middle" x="250.5" y="-275.4" font-family="Times,serif" font-size="12.00">MATH204</text>
</g>
<!-- MATH204&#45;&gt;1 of [&#39;EOS325&#39;, &#39;MATH204&#39;] -->
<g id="edge3" class="edge">
<title>MATH204&#45;&gt;1 of [&#39;EOS325&#39;, &#39;MATH204&#39;]</title>
<path fill="none" stroke="black" d="M285.25,-278.5C343.56,-278.5 460.93,-278.5 502.76,-278.5"/>
<polygon fill="black" stroke="black" points="502.92,-280.25 507.92,-278.5 502.92,-276.75 502.92,-280.25"/>
</g>
<!-- 1 of [&#39;MATH202&#39;, &#39;MATH204&#39;] -->
<g id="node18" class="node">
<title>1 of [&#39;MATH202&#39;, &#39;MATH204&#39;]</title>
<ellipse fill="#e9dbd0" stroke="#030a10" cx="332" cy="-250.5" rx="11" ry="11"/>
<text text-anchor="middle" x="332" y="-247.4" font-family="Times,serif" font-size="12.00">1</text>
</g>
<!-- MATH204&#45;&gt;1 of [&#39;MATH202&#39;, &#39;MATH204&#39;] -->
<g id="edge15" class="edge">
<title>MATH204&#45;&gt;1 of [&#39;MATH202&#39;, &#39;MATH204&#39;]</title>
<path fill="none" stroke="black" d="M281.56,-267.91C293.54,-263.69 306.77,-259.03 316.53,-255.6"/>
<polygon fill="black" stroke="black" points="317.16,-257.23 321.29,-253.92 315.99,-253.93 317.16,-257.23"/>
</g>
<!-- 1 of [&#39;PHYS102A&#39;, &#39;PHYS110&#39;, &#39;PHYS120&#39;] -->
<g id="node10" class="node">
<title>1 of [&#39;PHYS102A&#39;, &#39;PHYS110&#39;, &#39;PHYS120&#39;]</title>
<ellipse fill="#e9dbd0" stroke="#030a10" cx="519" cy="-336.5" rx="11" ry="11"/>
<text text-anchor="middle" x="519" y="-333.4" font-family="Times,serif" font-size="12.00">1</text>
</g>
<!-- 1 of [&#39;PHYS102A&#39;, &#39;PHYS110&#39;, &#39;PHYS120&#39;]&#45;&gt;EOS340 -->
<g id="edge4" class="edge">
<title>1 of [&#39;PHYS102A&#39;, &#39;PHYS110&#39;, &#39;PHYS120&#39;]&#45;&gt;EOS340</title>
<path fill="none" stroke="black" d="M529.5,-332.78C541.33,-328.15 562.16,-320 579.93,-313.05"/>
<polygon fill="black" stroke="black" points="580.83,-314.58 584.85,-311.12 579.56,-311.32 580.83,-314.58"/>
</g>
<!-- PHYS102A -->
<g id="node11" class="node">
<title>PHYS102A</title>
<path fill="#f5edc9" stroke="#030a10" d="M447,-389C447,-389 386,-389 386,-389 382.5,-389 379,-385.5 379,-382 379,-382 379,-375 379,-375 379,-371.5 382.5,-368 386,-368 386,-368 447,-368 447,-368 450.5,-368 454,-371.5 454,-375 454,-375 454,-382 454,-382 454,-385.5 450.5,-389 447,-389"/>
<text text-anchor="middle" x="416.5" y="-375.4" font-family="Times,serif" font-size="12.00">PHYS102A</text>
</g>
<!-- PHYS102A&#45;&gt;1 of [&#39;PHYS102A&#39;, &#39;PHYS110&#39;, &#39;PHYS120&#39;] -->
<g id="edge5" class="edge">
<title>PHYS102A&#45;&gt;1 of [&#39;PHYS102A&#39;, &#39;PHYS110&#39;, &#39;PHYS120&#39;]</title>
<path fill="none" stroke="black" d="M445.45,-367.93C448.35,-366.79 451.24,-365.63 454,-364.5 471.24,-357.43 490.83,-348.76 503.75,-342.96"/>
<polygon fill="black" stroke="black" points="504.68,-344.46 508.52,-340.81 503.24,-341.27 504.68,-344.46"/>
</g>
<!-- PHYS110 -->
<g id="node12" class="node">
<title>PHYS110</title>
<path fill="#f5edc9" stroke="#030a10" d="M442.5,-361C442.5,-361 390.5,-361 390.5,-361 387,-361 383.5,-357.5 383.5,-354 383.5,-354 383.5,-347 383.5,-347 383.5,-343.5 387,-340 390.5,-340 390.5,-340 442.5,-340 442.5,-340 446,-340 449.5,-343.5 449.5,-347 449.5,-347 449.5,-354 449.5,-354 449.5,-357.5 446,-361 442.5,-361"/>
<text text-anchor="middle" x="416.5" y="-347.4" font-family="Times,serif" font-size="12.00">PHYS110</text>
</g>
<!-- PHYS110&#45;&gt;1 of [&#39;PHYS102A&#39;, &#39;PHYS110&#39;, &#39;PHYS120&#39;] -->
<g id="edge6" class="edge">
<title>PHYS110&#45;&gt;1 of [&#39;PHYS102A&#39;, &#39;PHYS110&#39;, &#39;PHYS120&#39;]</title>
<path fill="none" stroke="black" d="M449.58,-346.03C467.43,-343.55 488.81,-340.57 502.87,-338.61"/>
<polygon fill="black" stroke="black" points="503.34,-340.31 508.05,-337.89 502.86,-336.84 503.34,-340.31"/>
</g>
<!-- PHYS120 -->
<g id="node13" class="node">
<title>PHYS120</title>
<path fill="#f5edc9" stroke="#030a10" d="M442.5,-333C442.5,-333 390.5,-333 390.5,-333 387,-333 383.5,-329.5 383.5,-326 383.5,-326 383.5,-319 383.5,-319 383.5,-315.5 387,-312 390.5,-312 390.5,-312 442.5,-312 442.5,-312 446,-312 449.5,-315.5 449.5,-319 449.5,-319 449.5,-326 449.5,-326 449.5,-329.5 446,-333 442.5,-333"/>
<text text-anchor="middle" x="416.5" y="-319.4" font-family="Times,serif" font-size="12.00">PHYS120</text>
</g>
<!-- PHYS120&#45;&gt;1 of [&#39;PHYS102A&#39;, &#39;PHYS110&#39;, &#39;PHYS120&#39;] -->
<g id="edge7" class="edge">
<title>PHYS120&#45;&gt;1 of [&#39;PHYS102A&#39;, &#39;PHYS110&#39;, &#39;PHYS120&#39;]</title>
<path fill="none" stroke="black" d="M449.58,-326.97C467.43,-329.45 488.81,-332.43 502.87,-334.39"/>
<polygon fill="black" stroke="black" points="502.86,-336.16 508.05,-335.11 503.34,-332.69 502.86,-336.16"/>
</g>
<!-- 1 of [&#39;PHYS102B&#39;, &#39;PHYS111&#39;, &#39;PHYS130&#39;] -->
<g id="node14" class="node">
<title>1 of [&#39;PHYS102B&#39;, &#39;PHYS111&#39;, &#39;PHYS130&#39;]</title>
<ellipse fill="#e9dbd0" stroke="#030a10" cx="145" cy="-228.5" rx="11" ry="11"/>
<text text-anchor="middle" x="145" y="-225.4" font-family="Times,serif" font-size="12.00">1</text>
</g>
<!-- 1 of [&#39;PHYS102B&#39;, &#39;PHYS111&#39;, &#39;PHYS130&#39;]&#45;&gt;EOS340 -->
<g id="edge8" class="edge">
<title>1 of [&#39;PHYS102B&#39;, &#39;PHYS111&#39;, &#39;PHYS130&#39;]&#45;&gt;EOS340</title>
<path fill="none" stroke="black" d="M152.17,-237.07C163.13,-251.5 187.55,-280.3 216,-292.5 263.09,-312.69 279.77,-300.5 331,-300.5 331,-300.5 331,-300.5 417.5,-300.5 474.22,-300.5 540.23,-300.5 578.93,-300.5"/>
<polygon fill="black" stroke="black" points="578.98,-302.25 583.98,-300.5 578.98,-298.75 578.98,-302.25"/>
</g>
<!-- 1 of [&#39;PHYS102B&#39;, &#39;PHYS111&#39;, &#39;PHYS130&#39;]&#45;&gt;EOS325 -->
<g id="edge24" class="edge">
<title>1 of [&#39;PHYS102B&#39;, &#39;PHYS111&#39;, &#39;PHYS130&#39;]&#45;&gt;EOS325</title>
<path fill="none" stroke="black" d="M156.24,-228.5C193.19,-228.5 320.8,-228.5 382.1,-228.5"/>
<polygon fill="black" stroke="black" points="382.47,-230.25 387.47,-228.5 382.47,-226.75 382.47,-230.25"/>
</g>
<!-- PHYS102B -->
<g id="node15" class="node">
<title>PHYS102B</title>
<path fill="#f5edc9" stroke="#030a10" d="M67,-224C67,-224 7,-224 7,-224 3.5,-224 0,-220.5 0,-217 0,-217 0,-210 0,-210 0,-206.5 3.5,-203 7,-203 7,-203 67,-203 67,-203 70.5,-203 74,-206.5 74,-210 74,-210 74,-217 74,-217 74,-220.5 70.5,-224 67,-224"/>
<text text-anchor="middle" x="37" y="-210.4" font-family="Times,serif" font-size="12.00">PHYS102B</text>
</g>
<!-- PHYS102B&#45;&gt;1 of [&#39;PHYS102B&#39;, &#39;PHYS111&#39;, &#39;PHYS130&#39;] -->
<g id="edge9" class="edge">
<title>PHYS102B&#45;&gt;1 of [&#39;PHYS102B&#39;, &#39;PHYS111&#39;, &#39;PHYS130&#39;]</title>
<path fill="none" stroke="black" d="M74.18,-218.62C92.82,-221.26 114.55,-224.33 128.76,-226.34"/>
<polygon fill="black" stroke="black" points="128.8,-228.12 133.99,-227.08 129.29,-224.65 128.8,-228.12"/>
</g>
<!-- 1 of [&#39;PHYS111&#39;, &#39;PHYS130&#39;, &#39;PHYS102B&#39;] -->
<g id="node42" class="node">
<title>1 of [&#39;PHYS111&#39;, &#39;PHYS130&#39;, &#39;PHYS102B&#39;]</title>
<ellipse fill="#e9dbd0" stroke="#030a10" cx="145" cy="-192.5" rx="11" ry="11"/>
<text text-anchor="middle" x="145" y="-189.4" font-family="Times,serif" font-size="12.00">1</text>
</g>
<!-- PHYS102B&#45;&gt;1 of [&#39;PHYS111&#39;, &#39;PHYS130&#39;, &#39;PHYS102B&#39;] -->
<g id="edge47" class="edge">
<title>PHYS102B&#45;&gt;1 of [&#39;PHYS111&#39;, &#39;PHYS130&#39;, &#39;PHYS102B&#39;]</title>
<path fill="none" stroke="black" d="M74.18,-206.33C92.82,-202.64 114.55,-198.33 128.76,-195.52"/>
<polygon fill="black" stroke="black" points="129.43,-197.17 133.99,-194.48 128.75,-193.74 129.43,-197.17"/>
</g>
<!-- PHYS111 -->
<g id="node16" class="node">
<title>PHYS111</title>
<path fill="#f5edc9" stroke="#030a10" d="M62.5,-196C62.5,-196 11.5,-196 11.5,-196 8,-196 4.5,-192.5 4.5,-189 4.5,-189 4.5,-182 4.5,-182 4.5,-178.5 8,-175 11.5,-175 11.5,-175 62.5,-175 62.5,-175 66,-175 69.5,-178.5 69.5,-182 69.5,-182 69.5,-189 69.5,-189 69.5,-192.5 66,-196 62.5,-196"/>
<text text-anchor="middle" x="37" y="-182.4" font-family="Times,serif" font-size="12.00">PHYS111</text>
</g>
<!-- PHYS111&#45;&gt;1 of [&#39;PHYS102B&#39;, &#39;PHYS111&#39;, &#39;PHYS130&#39;] -->
<g id="edge10" class="edge">
<title>PHYS111&#45;&gt;1 of [&#39;PHYS102B&#39;, &#39;PHYS111&#39;, &#39;PHYS130&#39;]</title>
<path fill="none" stroke="black" d="M65.54,-196.14C68.4,-197.27 71.26,-198.4 74,-199.5 93.35,-207.27 115.58,-216.54 129.7,-222.47"/>
<polygon fill="black" stroke="black" points="129.23,-224.17 134.52,-224.49 130.59,-220.94 129.23,-224.17"/>
</g>
<!-- PHYS111&#45;&gt;1 of [&#39;PHYS111&#39;, &#39;PHYS130&#39;, &#39;PHYS102B&#39;] -->
<g id="edge45" class="edge">
<title>PHYS111&#45;&gt;1 of [&#39;PHYS111&#39;, &#39;PHYS130&#39;, &#39;PHYS102B&#39;]</title>
<path fill="none" stroke="black" d="M69.52,-187.58C89.08,-188.87 113.35,-190.48 128.76,-191.49"/>
<polygon fill="black" stroke="black" points="128.91,-193.26 134.01,-191.84 129.14,-189.76 128.91,-193.26"/>
</g>
<!-- PHYS130 -->
<g id="node17" class="node">
<title>PHYS130</title>
<path fill="#f5edc9" stroke="#030a10" d="M63,-252C63,-252 11,-252 11,-252 7.5,-252 4,-248.5 4,-245 4,-245 4,-238 4,-238 4,-234.5 7.5,-231 11,-231 11,-231 63,-231 63,-231 66.5,-231 70,-234.5 70,-238 70,-238 70,-245 70,-245 70,-248.5 66.5,-252 63,-252"/>
<text text-anchor="middle" x="37" y="-238.4" font-family="Times,serif" font-size="12.00">PHYS130</text>
</g>
<!-- PHYS130&#45;&gt;1 of [&#39;PHYS102B&#39;, &#39;PHYS111&#39;, &#39;PHYS130&#39;] -->
<g id="edge11" class="edge">
<title>PHYS130&#45;&gt;1 of [&#39;PHYS102B&#39;, &#39;PHYS111&#39;, &#39;PHYS130&#39;]</title>
<path fill="none" stroke="black" d="M70.09,-237.56C89.41,-235.19 113.15,-232.28 128.42,-230.41"/>
<polygon fill="black" stroke="black" points="128.89,-232.12 133.64,-229.77 128.46,-228.64 128.89,-232.12"/>
</g>
<!-- PHYS130&#45;&gt;1 of [&#39;PHYS111&#39;, &#39;PHYS130&#39;, &#39;PHYS102B&#39;] -->
<g id="edge46" class="edge">
<title>PHYS130&#45;&gt;1 of [&#39;PHYS111&#39;, &#39;PHYS130&#39;, &#39;PHYS102B&#39;]</title>
<path fill="none" stroke="black" d="M64.03,-230.86C67.4,-229.42 70.79,-227.95 74,-226.5 93.53,-217.7 115.71,-206.76 129.78,-199.71"/>
<polygon fill="black" stroke="black" points="130.89,-201.1 134.57,-197.29 129.32,-197.98 130.89,-201.1"/>
</g>
<!-- 1 of [&#39;MATH202&#39;, &#39;MATH204&#39;]&#45;&gt;EOS325 -->
<g id="edge13" class="edge">
<title>1 of [&#39;MATH202&#39;, &#39;MATH204&#39;]&#45;&gt;EOS325</title>
<path fill="none" stroke="black" d="M342.79,-247.89C352.52,-245.29 368,-241.17 382.19,-237.38"/>
<polygon fill="black" stroke="black" points="382.96,-238.99 387.34,-236.01 382.06,-235.61 382.96,-238.99"/>
</g>
<!-- MATH202 -->
<g id="node19" class="node">
<title>MATH202</title>
<path fill="#f5edc9" stroke="#030a10" d="M278,-261C278,-261 223,-261 223,-261 219.5,-261 216,-257.5 216,-254 216,-254 216,-247 216,-247 216,-243.5 219.5,-240 223,-240 223,-240 278,-240 278,-240 281.5,-240 285,-243.5 285,-247 285,-247 285,-254 285,-254 285,-257.5 281.5,-261 278,-261"/>
<text text-anchor="middle" x="250.5" y="-247.4" font-family="Times,serif" font-size="12.00">MATH202</text>
</g>
<!-- MATH202&#45;&gt;1 of [&#39;MATH202&#39;, &#39;MATH204&#39;] -->
<g id="edge14" class="edge">
<title>MATH202&#45;&gt;1 of [&#39;MATH202&#39;, &#39;MATH204&#39;]</title>
<path fill="none" stroke="black" d="M285.22,-250.5C295.87,-250.5 307.12,-250.5 315.8,-250.5"/>
<polygon fill="black" stroke="black" points="315.84,-252.25 320.84,-250.5 315.84,-248.75 315.84,-252.25"/>
</g>
<!-- 1 of [&#39;CSC110&#39;, &#39;CSC111&#39;, &#39;EOS210&#39;, &#39;EOS230&#39;, &#39;GEOG230&#39;, &#39;EOS261&#39;, &#39;EOS314&#39;]&#45;&gt;EOS325 -->
<g id="edge16" class="edge">
<title>1 of [&#39;CSC110&#39;, &#39;CSC111&#39;, &#39;EOS210&#39;, &#39;EOS230&#39;, &#39;GEOG230&#39;, &#39;EOS261&#39;, &#39;EOS314&#39;]&#45;&gt;EOS325</title>
<path fill="none" stroke="black" d="M336.62,-146.64C342.87,-162.86 357.17,-194.7 379,-213.5 380.25,-214.57 381.58,-215.58 382.97,-216.51"/>
<polygon fill="black" stroke="black" points="382.12,-218.04 387.3,-219.13 383.93,-215.05 382.12,-218.04"/>
</g>
<!-- CSC110 -->
<g id="node21" class="node">
<title>CSC110</title>
<path fill="#f5edc9" stroke="#030a10" d="M272.5,-105C272.5,-105 228.5,-105 228.5,-105 225,-105 221.5,-101.5 221.5,-98 221.5,-98 221.5,-91 221.5,-91 221.5,-87.5 225,-84 228.5,-84 228.5,-84 272.5,-84 272.5,-84 276,-84 279.5,-87.5 279.5,-91 279.5,-91 279.5,-98 279.5,-98 279.5,-101.5 276,-105 272.5,-105"/>
<text text-anchor="middle" x="250.5" y="-91.4" font-family="Times,serif" font-size="12.00">CSC110</text>
</g>
<!-- CSC110&#45;&gt;1 of [&#39;CSC110&#39;, &#39;CSC111&#39;, &#39;EOS210&#39;, &#39;EOS230&#39;, &#39;GEOG230&#39;, &#39;EOS261&#39;, &#39;EOS314&#39;] -->
<g id="edge17" class="edge">
<title>CSC110&#45;&gt;1 of [&#39;CSC110&#39;, &#39;CSC111&#39;, &#39;EOS210&#39;, &#39;EOS230&#39;, &#39;GEOG230&#39;, &#39;EOS261&#39;, &#39;EOS314&#39;]</title>
<path fill="none" stroke="black" d="M278,-105.14C280.39,-106.23 282.75,-107.36 285,-108.5 296.39,-114.3 308.73,-121.89 317.76,-127.7"/>
<polygon fill="black" stroke="black" points="317.26,-129.47 322.41,-130.73 319.17,-126.54 317.26,-129.47"/>
</g>
<!-- CSC111 -->
<g id="node22" class="node">
<title>CSC111</title>
<path fill="#f5edc9" stroke="#030a10" d="M272,-77C272,-77 229,-77 229,-77 225.5,-77 222,-73.5 222,-70 222,-70 222,-63 222,-63 222,-59.5 225.5,-56 229,-56 229,-56 272,-56 272,-56 275.5,-56 279,-59.5 279,-63 279,-63 279,-70 279,-70 279,-73.5 275.5,-77 272,-77"/>
<text text-anchor="middle" x="250.5" y="-63.4" font-family="Times,serif" font-size="12.00">CSC111</text>
</g>
<!-- CSC111&#45;&gt;1 of [&#39;CSC110&#39;, &#39;CSC111&#39;, &#39;EOS210&#39;, &#39;EOS230&#39;, &#39;GEOG230&#39;, &#39;EOS261&#39;, &#39;EOS314&#39;] -->
<g id="edge18" class="edge">
<title>CSC111&#45;&gt;1 of [&#39;CSC110&#39;, &#39;CSC111&#39;, &#39;EOS210&#39;, &#39;EOS230&#39;, &#39;GEOG230&#39;, &#39;EOS261&#39;, &#39;EOS314&#39;]</title>
<path fill="none" stroke="black" d="M279.16,-76.75C281.21,-77.9 283.18,-79.15 285,-80.5 300.82,-92.27 314.52,-110.62 322.75,-123.08"/>
<polygon fill="black" stroke="black" points="321.35,-124.14 325.54,-127.38 324.29,-122.23 321.35,-124.14"/>
</g>
<!-- EOS210 -->
<g id="node23" class="node">
<title>EOS210</title>
<path fill="#f5edc9" stroke="#030a10" d="M272.5,-217C272.5,-217 228.5,-217 228.5,-217 225,-217 221.5,-213.5 221.5,-210 221.5,-210 221.5,-203 221.5,-203 221.5,-199.5 225,-196 228.5,-196 228.5,-196 272.5,-196 272.5,-196 276,-196 279.5,-199.5 279.5,-203 279.5,-203 279.5,-210 279.5,-210 279.5,-213.5 276,-217 272.5,-217"/>
<text text-anchor="middle" x="250.5" y="-203.4" font-family="Times,serif" font-size="12.00">EOS210</text>
</g>
<!-- EOS210&#45;&gt;1 of [&#39;CSC110&#39;, &#39;CSC111&#39;, &#39;EOS210&#39;, &#39;EOS230&#39;, &#39;GEOG230&#39;, &#39;EOS261&#39;, &#39;EOS314&#39;] -->
<g id="edge19" class="edge">
<title>EOS210&#45;&gt;1 of [&#39;CSC110&#39;, &#39;CSC111&#39;, &#39;EOS210&#39;, &#39;EOS230&#39;, &#39;GEOG230&#39;, &#39;EOS261&#39;, &#39;EOS314&#39;]</title>
<path fill="none" stroke="black" d="M278.12,-195.96C280.53,-194.6 282.87,-193.11 285,-191.5 300.56,-179.73 314.31,-161.75 322.64,-149.58"/>
<polygon fill="black" stroke="black" points="324.12,-150.51 325.45,-145.38 321.21,-148.56 324.12,-150.51"/>
</g>
<!-- EOS230 -->
<g id="node24" class="node">
<title>EOS230</title>
<path fill="#f5edc9" stroke="#030a10" d="M272.5,-189C272.5,-189 228.5,-189 228.5,-189 225,-189 221.5,-185.5 221.5,-182 221.5,-182 221.5,-175 221.5,-175 221.5,-171.5 225,-168 228.5,-168 228.5,-168 272.5,-168 272.5,-168 276,-168 279.5,-171.5 279.5,-175 279.5,-175 279.5,-182 279.5,-182 279.5,-185.5 276,-189 272.5,-189"/>
<text text-anchor="middle" x="250.5" y="-175.4" font-family="Times,serif" font-size="12.00">EOS230</text>
</g>
<!-- EOS230&#45;&gt;1 of [&#39;CSC110&#39;, &#39;CSC111&#39;, &#39;EOS210&#39;, &#39;EOS230&#39;, &#39;GEOG230&#39;, &#39;EOS261&#39;, &#39;EOS314&#39;] -->
<g id="edge20" class="edge">
<title>EOS230&#45;&gt;1 of [&#39;CSC110&#39;, &#39;CSC111&#39;, &#39;EOS210&#39;, &#39;EOS230&#39;, &#39;GEOG230&#39;, &#39;EOS261&#39;, &#39;EOS314&#39;]</title>
<path fill="none" stroke="black" d="M275.8,-168C278.92,-166.54 282.05,-165.02 285,-163.5 296.36,-157.65 308.83,-150.26 317.92,-144.7"/>
<polygon fill="black" stroke="black" points="319.01,-146.08 322.34,-141.97 317.17,-143.1 319.01,-146.08"/>
</g>
<!-- GEOG230 -->
<g id="node25" class="node">
<title>GEOG230</title>
<path fill="#f5edc9" stroke="#030a10" d="M278,-161C278,-161 223,-161 223,-161 219.5,-161 216,-157.5 216,-154 216,-154 216,-147 216,-147 216,-143.5 219.5,-140 223,-140 223,-140 278,-140 278,-140 281.5,-140 285,-143.5 285,-147 285,-147 285,-154 285,-154 285,-157.5 281.5,-161 278,-161"/>
<text text-anchor="middle" x="250.5" y="-147.4" font-family="Times,serif" font-size="12.00">GEOG230</text>
</g>
<!-- GEOG230&#45;&gt;1 of [&#39;CSC110&#39;, &#39;CSC111&#39;, &#39;EOS210&#39;, &#39;EOS230&#39;, &#39;GEOG230&#39;, &#39;EOS261&#39;, &#39;EOS314&#39;] -->
<g id="edge21" class="edge">
<title>GEOG230&#45;&gt;1 of [&#39;CSC110&#39;, &#39;CSC111&#39;, &#39;EOS210&#39;, &#39;EOS230&#39;, &#39;GEOG230&#39;, &#39;EOS261&#39;, &#39;EOS314&#39;]</title>
<path fill="none" stroke="black" d="M285.22,-144.56C295.87,-142.69 307.12,-140.71 315.8,-139.18"/>
<polygon fill="black" stroke="black" points="316.22,-140.88 320.84,-138.29 315.61,-137.43 316.22,-140.88"/>
</g>
<!-- EOS314 -->
<g id="node26" class="node">
<title>EOS314</title>
<path fill="#f5edc9" stroke="#030a10" d="M272.5,-133C272.5,-133 228.5,-133 228.5,-133 225,-133 221.5,-129.5 221.5,-126 221.5,-126 221.5,-119 221.5,-119 221.5,-115.5 225,-112 228.5,-112 228.5,-112 272.5,-112 272.5,-112 276,-112 279.5,-115.5 279.5,-119 279.5,-119 279.5,-126 279.5,-126 279.5,-129.5 276,-133 272.5,-133"/>
<text text-anchor="middle" x="250.5" y="-119.4" font-family="Times,serif" font-size="12.00">EOS314</text>
</g>
<!-- EOS314&#45;&gt;1 of [&#39;CSC110&#39;, &#39;CSC111&#39;, &#39;EOS210&#39;, &#39;EOS230&#39;, &#39;GEOG230&#39;, &#39;EOS261&#39;, &#39;EOS314&#39;] -->
<g id="edge23" class="edge">
<title>EOS314&#45;&gt;1 of [&#39;CSC110&#39;, &#39;CSC111&#39;, &#39;EOS210&#39;, &#39;EOS230&#39;, &#39;GEOG230&#39;, &#39;EOS261&#39;, &#39;EOS314&#39;]</title>
<path fill="none" stroke="black" d="M279.75,-127.48C291.91,-129.62 305.65,-132.04 315.83,-133.83"/>
<polygon fill="black" stroke="black" points="315.58,-135.56 320.81,-134.71 316.19,-132.11 315.58,-135.56"/>
</g>
<!-- 1 of [&#39;EOS325&#39;, &#39;MATH248&#39;, &#39;PHYS248&#39;]&#45;&gt;EOS460 -->
<g id="edge25" class="edge">
<title>1 of [&#39;EOS325&#39;, &#39;MATH248&#39;, &#39;PHYS248&#39;]&#45;&gt;EOS460</title>
<path fill="none" stroke="black" d="M527.53,-208.54C542.58,-194.64 576.63,-163.18 596.6,-144.73"/>
<polygon fill="black" stroke="black" points="597.91,-145.9 600.4,-141.22 595.54,-143.33 597.91,-145.9"/>
</g>
<!-- MATH248 -->
<g id="node28" class="node">
<title>MATH248</title>
<path fill="#f5edc9" stroke="#030a10" d="M444,-267C444,-267 389,-267 389,-267 385.5,-267 382,-263.5 382,-260 382,-260 382,-253 382,-253 382,-249.5 385.5,-246 389,-246 389,-246 444,-246 444,-246 447.5,-246 451,-249.5 451,-253 451,-253 451,-260 451,-260 451,-263.5 447.5,-267 444,-267"/>
<text text-anchor="middle" x="416.5" y="-253.4" font-family="Times,serif" font-size="12.00">MATH248</text>
</g>
<!-- MATH248&#45;&gt;1 of [&#39;EOS325&#39;, &#39;MATH248&#39;, &#39;PHYS248&#39;] -->
<g id="edge27" class="edge">
<title>MATH248&#45;&gt;1 of [&#39;EOS325&#39;, &#39;MATH248&#39;, &#39;PHYS248&#39;]</title>
<path fill="none" stroke="black" d="M443.38,-245.94C462.4,-238.18 487.57,-227.92 503.27,-221.51"/>
<polygon fill="black" stroke="black" points="504.24,-223 508.21,-219.5 502.92,-219.76 504.24,-223"/>
</g>
<!-- PHYS248 -->
<g id="node29" class="node">
<title>PHYS248</title>
<path fill="#f5edc9" stroke="#030a10" d="M442.5,-211C442.5,-211 390.5,-211 390.5,-211 387,-211 383.5,-207.5 383.5,-204 383.5,-204 383.5,-197 383.5,-197 383.5,-193.5 387,-190 390.5,-190 390.5,-190 442.5,-190 442.5,-190 446,-190 449.5,-193.5 449.5,-197 449.5,-197 449.5,-204 449.5,-204 449.5,-207.5 446,-211 442.5,-211"/>
<text text-anchor="middle" x="416.5" y="-197.4" font-family="Times,serif" font-size="12.00">PHYS248</text>
</g>
<!-- PHYS248&#45;&gt;1 of [&#39;EOS325&#39;, &#39;MATH248&#39;, &#39;PHYS248&#39;] -->
<g id="edge28" class="edge">
<title>PHYS248&#45;&gt;1 of [&#39;EOS325&#39;, &#39;MATH248&#39;, &#39;PHYS248&#39;]</title>
<path fill="none" stroke="black" d="M449.58,-205.29C467.43,-207.95 488.81,-211.14 502.87,-213.24"/>
<polygon fill="black" stroke="black" points="502.85,-215.01 508.05,-214.02 503.37,-211.55 502.85,-215.01"/>
</g>
<!-- 1 of [&#39;EOS335&#39;, &#39;EOS430&#39;] -->
<g id="node30" class="node">
<title>1 of [&#39;EOS335&#39;, &#39;EOS430&#39;]</title>
<ellipse fill="#e9dbd0" stroke="#030a10" cx="519" cy="-130.5" rx="11" ry="11"/>
<text text-anchor="middle" x="519" y="-127.4" font-family="Times,serif" font-size="12.00">1</text>
</g>
<!-- 1 of [&#39;EOS335&#39;, &#39;EOS430&#39;]&#45;&gt;EOS460 -->
<g id="edge30" class="edge">
<title>1 of [&#39;EOS335&#39;, &#39;EOS430&#39;]&#45;&gt;EOS460</title>
<path fill="none" stroke="black" d="M530.2,-130.5C541.81,-130.5 561.4,-130.5 578.5,-130.5"/>
<polygon fill="black" stroke="black" points="578.71,-132.25 583.71,-130.5 578.71,-128.75 578.71,-132.25"/>
</g>
<!-- EOS335 -->
<g id="node31" class="node">
<title>EOS335</title>
<path fill="#f5edc9" stroke="#030a10" d="M438.5,-155C438.5,-155 394.5,-155 394.5,-155 391,-155 387.5,-151.5 387.5,-148 387.5,-148 387.5,-141 387.5,-141 387.5,-137.5 391,-134 394.5,-134 394.5,-134 438.5,-134 438.5,-134 442,-134 445.5,-137.5 445.5,-141 445.5,-141 445.5,-148 445.5,-148 445.5,-151.5 442,-155 438.5,-155"/>
<text text-anchor="middle" x="416.5" y="-141.4" font-family="Times,serif" font-size="12.00">EOS335</text>
</g>
<!-- EOS335&#45;&gt;1 of [&#39;EOS335&#39;, &#39;EOS430&#39;] -->
<g id="edge31" class="edge">
<title>EOS335&#45;&gt;1 of [&#39;EOS335&#39;, &#39;EOS430&#39;]</title>
<path fill="none" stroke="black" d="M445.76,-140.56C464.17,-138 487.48,-134.75 502.56,-132.65"/>
<polygon fill="black" stroke="black" points="503.01,-134.35 507.72,-131.93 502.53,-130.89 503.01,-134.35"/>
</g>
<!-- EOS430 -->
<g id="node32" class="node">
<title>EOS430</title>
<path fill="#f5edc9" stroke="#030a10" d="M438.5,-127C438.5,-127 394.5,-127 394.5,-127 391,-127 387.5,-123.5 387.5,-120 387.5,-120 387.5,-113 387.5,-113 387.5,-109.5 391,-106 394.5,-106 394.5,-106 438.5,-106 438.5,-106 442,-106 445.5,-109.5 445.5,-113 445.5,-113 445.5,-120 445.5,-120 445.5,-123.5 442,-127 438.5,-127"/>
<text text-anchor="middle" x="416.5" y="-113.4" font-family="Times,serif" font-size="12.00">EOS430</text>
</g>
<!-- EOS430&#45;&gt;1 of [&#39;EOS335&#39;, &#39;EOS430&#39;] -->
<g id="edge32" class="edge">
<title>EOS430&#45;&gt;1 of [&#39;EOS335&#39;, &#39;EOS430&#39;]</title>
<path fill="none" stroke="black" d="M445.76,-120.44C464.17,-123 487.48,-126.25 502.56,-128.35"/>
<polygon fill="black" stroke="black" points="502.53,-130.11 507.72,-129.07 503.01,-126.65 502.53,-130.11"/>
</g>
<!-- EOS201 -->
<g id="node33" class="node">
<title>EOS201</title>
<path fill="#f5edc9" stroke="#030a10" d="M541,-83C541,-83 497,-83 497,-83 493.5,-83 490,-79.5 490,-76 490,-76 490,-69 490,-69 490,-65.5 493.5,-62 497,-62 497,-62 541,-62 541,-62 544.5,-62 548,-65.5 548,-69 548,-69 548,-76 548,-76 548,-79.5 544.5,-83 541,-83"/>
<text text-anchor="middle" x="519" y="-69.4" font-family="Times,serif" font-size="12.00">EOS201</text>
</g>
<!-- EOS201&#45;&gt;EOS423 -->
<g id="edge33" class="edge">
<title>EOS201&#45;&gt;EOS423</title>
<path fill="none" stroke="black" d="M548.1,-77.08C557.73,-78.65 568.6,-80.42 578.61,-82.06"/>
<polygon fill="black" stroke="black" points="578.54,-83.82 583.75,-82.89 579.1,-80.36 578.54,-83.82"/>
</g>
<!-- 1 of [&#39;EOS225&#39;, &#39;EOS325&#39;]&#45;&gt;EOS423 -->
<g id="edge34" class="edge">
<title>1 of [&#39;EOS225&#39;, &#39;EOS325&#39;]&#45;&gt;EOS423</title>
<path fill="none" stroke="black" d="M527.53,-165.54C542.58,-151.64 576.63,-120.18 596.6,-101.73"/>
<polygon fill="black" stroke="black" points="597.91,-102.9 600.4,-98.22 595.54,-100.33 597.91,-102.9"/>
</g>
<!-- EOS225 -->
<g id="node35" class="node">
<title>EOS225</title>
<path fill="#f5edc9" stroke="#030a10" d="M438.5,-183C438.5,-183 394.5,-183 394.5,-183 391,-183 387.5,-179.5 387.5,-176 387.5,-176 387.5,-169 387.5,-169 387.5,-165.5 391,-162 394.5,-162 394.5,-162 438.5,-162 438.5,-162 442,-162 445.5,-165.5 445.5,-169 445.5,-169 445.5,-176 445.5,-176 445.5,-179.5 442,-183 438.5,-183"/>
<text text-anchor="middle" x="416.5" y="-169.4" font-family="Times,serif" font-size="12.00">EOS225</text>
</g>
<!-- EOS225&#45;&gt;1 of [&#39;EOS225&#39;, &#39;EOS325&#39;] -->
<g id="edge35" class="edge">
<title>EOS225&#45;&gt;1 of [&#39;EOS225&#39;, &#39;EOS325&#39;]</title>
<path fill="none" stroke="black" d="M445.76,-172.5C464.17,-172.5 487.48,-172.5 502.56,-172.5"/>
<polygon fill="black" stroke="black" points="502.72,-174.25 507.72,-172.5 502.72,-170.75 502.72,-174.25"/>
</g>
<!-- 1 of [&#39;EOS110&#39;, &#39;EOS130&#39;, &#39;GEOG130&#39;, &#39;GEOG103&#39;]&#45;&gt;EOS261 -->
<g id="edge37" class="edge">
<title>1 of [&#39;EOS110&#39;, &#39;EOS130&#39;, &#39;GEOG130&#39;, &#39;GEOG103&#39;]&#45;&gt;EOS261</title>
<path fill="none" stroke="black" d="M155.92,-64.72C169.7,-60.86 195.27,-53.7 216.21,-47.83"/>
<polygon fill="black" stroke="black" points="216.8,-49.48 221.14,-46.45 215.86,-46.11 216.8,-49.48"/>
</g>
<!-- EOS110 -->
<g id="node37" class="node">
<title>EOS110</title>
<path fill="#f5edc9" stroke="#030a10" d="M59,-92C59,-92 15,-92 15,-92 11.5,-92 8,-88.5 8,-85 8,-85 8,-78 8,-78 8,-74.5 11.5,-71 15,-71 15,-71 59,-71 59,-71 62.5,-71 66,-74.5 66,-78 66,-78 66,-85 66,-85 66,-88.5 62.5,-92 59,-92"/>
<text text-anchor="middle" x="37" y="-78.4" font-family="Times,serif" font-size="12.00">EOS110</text>
</g>
<!-- EOS110&#45;&gt;1 of [&#39;EOS110&#39;, &#39;EOS130&#39;, &#39;GEOG130&#39;, &#39;GEOG103&#39;] -->
<g id="edge38" class="edge">
<title>EOS110&#45;&gt;1 of [&#39;EOS110&#39;, &#39;EOS130&#39;, &#39;GEOG130&#39;, &#39;GEOG103&#39;]</title>
<path fill="none" stroke="black" d="M66.13,-77.79C86.19,-75.14 112.39,-71.67 128.71,-69.52"/>
<polygon fill="black" stroke="black" points="129.11,-71.23 133.84,-68.84 128.65,-67.76 129.11,-71.23"/>
</g>
<!-- GEOG130 -->
<g id="node38" class="node">
<title>GEOG130</title>
<path fill="#f5edc9" stroke="#030a10" d="M64.5,-64C64.5,-64 9.5,-64 9.5,-64 6,-64 2.5,-60.5 2.5,-57 2.5,-57 2.5,-50 2.5,-50 2.5,-46.5 6,-43 9.5,-43 9.5,-43 64.5,-43 64.5,-43 68,-43 71.5,-46.5 71.5,-50 71.5,-50 71.5,-57 71.5,-57 71.5,-60.5 68,-64 64.5,-64"/>
<text text-anchor="middle" x="37" y="-50.4" font-family="Times,serif" font-size="12.00">GEOG130</text>
</g>
<!-- GEOG130&#45;&gt;1 of [&#39;EOS110&#39;, &#39;EOS130&#39;, &#39;GEOG130&#39;, &#39;GEOG103&#39;] -->
<g id="edge40" class="edge">
<title>GEOG130&#45;&gt;1 of [&#39;EOS110&#39;, &#39;EOS130&#39;, &#39;GEOG130&#39;, &#39;GEOG103&#39;]</title>
<path fill="none" stroke="black" d="M71.54,-57.93C90.77,-60.47 113.97,-63.53 128.85,-65.5"/>
<polygon fill="black" stroke="black" points="128.75,-67.25 133.93,-66.17 129.2,-63.78 128.75,-67.25"/>
</g>
<!-- GEOG103 -->
<g id="node39" class="node">
<title>GEOG103</title>
<path fill="#f5edc9" stroke="#030a10" d="M64.5,-36C64.5,-36 9.5,-36 9.5,-36 6,-36 2.5,-32.5 2.5,-29 2.5,-29 2.5,-22 2.5,-22 2.5,-18.5 6,-15 9.5,-15 9.5,-15 64.5,-15 64.5,-15 68,-15 71.5,-18.5 71.5,-22 71.5,-22 71.5,-29 71.5,-29 71.5,-32.5 68,-36 64.5,-36"/>
<text text-anchor="middle" x="37" y="-22.4" font-family="Times,serif" font-size="12.00">GEOG103</text>
</g>
<!-- GEOG103&#45;&gt;1 of [&#39;EOS110&#39;, &#39;EOS130&#39;, &#39;GEOG130&#39;, &#39;GEOG103&#39;] -->
<g id="edge41" class="edge">
<title>GEOG103&#45;&gt;1 of [&#39;EOS110&#39;, &#39;EOS130&#39;, &#39;GEOG130&#39;, &#39;GEOG103&#39;]</title>
<path fill="none" stroke="black" d="M65.14,-36.02C68.13,-37.19 71.13,-38.37 74,-39.5 93.3,-47.11 115.54,-56.04 129.68,-61.73"/>
<polygon fill="black" stroke="black" points="129.21,-63.42 134.5,-63.67 130.52,-60.18 129.21,-63.42"/>
</g>
<!-- CHEM102 -->
<g id="node40" class="node">
<title>CHEM102</title>
<path fill="#f5edc9" stroke="#030a10" d="M173,-49C173,-49 117,-49 117,-49 113.5,-49 110,-45.5 110,-42 110,-42 110,-35 110,-35 110,-31.5 113.5,-28 117,-28 117,-28 173,-28 173,-28 176.5,-28 180,-31.5 180,-35 180,-35 180,-42 180,-42 180,-45.5 176.5,-49 173,-49"/>
<text text-anchor="middle" x="145" y="-35.4" font-family="Times,serif" font-size="12.00">CHEM102</text>
</g>
<!-- CHEM102&#45;&gt;EOS261 -->
<g id="edge42" class="edge">
<title>CHEM102&#45;&gt;EOS261</title>
<path fill="none" stroke="black" d="M180.18,-38.5C191.72,-38.5 204.58,-38.5 216.06,-38.5"/>
<polygon fill="black" stroke="black" points="216.23,-40.25 221.23,-38.5 216.23,-36.75 216.23,-40.25"/>
</g>
<!-- MATH101 -->
<g id="node41" class="node">
<title>MATH101</title>
<path fill="#f5edc9" stroke="#030a10" d="M172.5,-21C172.5,-21 117.5,-21 117.5,-21 114,-21 110.5,-17.5 110.5,-14 110.5,-14 110.5,-7 110.5,-7 110.5,-3.5 114,0 117.5,0 117.5,0 172.5,0 172.5,0 176,0 179.5,-3.5 179.5,-7 179.5,-7 179.5,-14 179.5,-14 179.5,-17.5 176,-21 172.5,-21"/>
<text text-anchor="middle" x="145" y="-7.4" font-family="Times,serif" font-size="12.00">MATH101</text>
</g>
<!-- MATH101&#45;&gt;EOS261 -->
<g id="edge43" class="edge">
<title>MATH101&#45;&gt;EOS261</title>
<path fill="none" stroke="black" d="M179.6,-19.59C191.38,-22.78 204.59,-26.35 216.33,-29.53"/>
<polygon fill="black" stroke="black" points="215.98,-31.24 221.26,-30.86 216.89,-27.87 215.98,-31.24"/>
</g>
<!-- 1 of [&#39;PHYS111&#39;, &#39;PHYS130&#39;, &#39;PHYS102B&#39;]&#45;&gt;EOS261 -->
<g id="edge44" class="edge">
<title>1 of [&#39;PHYS111&#39;, &#39;PHYS130&#39;, &#39;PHYS102B&#39;]&#45;&gt;EOS261</title>
<path fill="none" stroke="black" d="M148.58,-181.83C155.29,-156.13 175.69,-90.16 216,-52.5 216.41,-52.11 216.84,-51.74 217.28,-51.37"/>
<polygon fill="black" stroke="black" points="218.46,-52.67 221.47,-48.31 216.4,-49.84 218.46,-52.67"/>
</g>
</g>
</svg>
