<?xml version="1.0" encoding="UTF-8" standalone="no"?>
<!DOCTYPE svg PUBLIC "-//W3C//DTD SVG 1.1//EN"
 "http://www.w3.org/Graphics/SVG/1.1/DTD/svg11.dtd">
<!-- Generated by graphviz version 2.43.0 (0)
 -->
<!-- Title: unix Pages: 1 -->
<svg width="889pt" height="468pt"
 viewBox="0.00 0.00 889.00 468.00" xmlns="http://www.w3.org/2000/svg" xmlns:xlink="http://www.w3.org/1999/xlink">
<g id="graph0" class="graph" transform="scale(1 1) rotate(0) translate(4 464)">
<title>unix</title>
<polygon fill="white" stroke="transparent" points="-4,4 -4,-464 885,-464 885,4 -4,4"/>
<text text-anchor="middle" x="440.5" y="-444.8" font-family="Times,serif" font-size="14.00">EOS205: Mineralogy</text>
<!-- CHEM150 -->
<g id="node1" class="node">
<title>CHEM150</title>
<path fill="#f5edc9" stroke="#030a10" d="M168,-301C168,-301 112,-301 112,-301 108.5,-301 105,-297.5 105,-294 105,-294 105,-287 105,-287 105,-283.5 108.5,-280 112,-280 112,-280 168,-280 168,-280 171.5,-280 175,-283.5 175,-287 175,-287 175,-294 175,-294 175,-297.5 171.5,-301 168,-301"/>
<text text-anchor="middle" x="140" y="-287.4" font-family="Times,serif" font-size="12.00">CHEM150</text>
</g>
<!-- 1 of [&#39;CHEM101&#39;, &#39;CHEM150&#39;] -->
<g id="node50" class="node">
<title>1 of [&#39;CHEM101&#39;, &#39;CHEM150&#39;]</title>
<ellipse fill="#e9dbd0" stroke="#030a10" cx="246" cy="-287.5" rx="11" ry="11"/>
<text text-anchor="middle" x="246" y="-284.4" font-family="Times,serif" font-size="12.00">1</text>
</g>
<!-- CHEM150&#45;&gt;1 of [&#39;CHEM101&#39;, &#39;CHEM150&#39;] -->
<g id="edge53" class="edge">
<title>CHEM150&#45;&gt;1 of [&#39;CHEM101&#39;, &#39;CHEM150&#39;]</title>
<path fill="none" stroke="black" d="M175.05,-289.52C193.46,-288.99 215.29,-288.36 229.61,-287.94"/>
<polygon fill="black" stroke="black" points="229.94,-289.69 234.89,-287.79 229.84,-286.19 229.94,-289.69"/>
</g>
<!-- EOS201 -->
<g id="node2" class="node">
<title>EOS201</title>
<path fill="#e7a79b" stroke="#030a10" d="M582,-283C582,-283 538,-283 538,-283 534.5,-283 531,-279.5 531,-276 531,-276 531,-269 531,-269 531,-265.5 534.5,-262 538,-262 538,-262 582,-262 582,-262 585.5,-262 589,-265.5 589,-269 589,-269 589,-276 589,-276 589,-279.5 585.5,-283 582,-283"/>
<text text-anchor="middle" x="560" y="-269.4" font-family="Times,serif" font-size="12.00">EOS201</text>
</g>
<!-- EOS420 -->
<g id="node10" class="node">
<title>EOS420</title>
<path fill="#f5edc9" stroke="#030a10" d="M678.5,-287C678.5,-287 634.5,-287 634.5,-287 631,-287 627.5,-283.5 627.5,-280 627.5,-280 627.5,-273 627.5,-273 627.5,-269.5 631,-266 634.5,-266 634.5,-266 678.5,-266 678.5,-266 682,-266 685.5,-269.5 685.5,-273 685.5,-273 685.5,-280 685.5,-280 685.5,-283.5 682,-287 678.5,-287"/>
<text text-anchor="middle" x="656.5" y="-273.4" font-family="Times,serif" font-size="12.00">EOS420</text>
</g>
<!-- EOS201&#45;&gt;EOS420 -->
<g id="edge19" class="edge">
<title>EOS201&#45;&gt;EOS420</title>
<path fill="none" stroke="black" d="M589.1,-273.69C599.48,-274.13 611.34,-274.63 622.14,-275.09"/>
<polygon fill="black" stroke="black" points="622.28,-276.85 627.35,-275.31 622.43,-273.35 622.28,-276.85"/>
</g>
<!-- EOS423 -->
<g id="node11" class="node">
<title>EOS423</title>
<path fill="#f5edc9" stroke="#030a10" d="M678.5,-130C678.5,-130 634.5,-130 634.5,-130 631,-130 627.5,-126.5 627.5,-123 627.5,-123 627.5,-116 627.5,-116 627.5,-112.5 631,-109 634.5,-109 634.5,-109 678.5,-109 678.5,-109 682,-109 685.5,-112.5 685.5,-116 685.5,-116 685.5,-123 685.5,-123 685.5,-126.5 682,-130 678.5,-130"/>
<text text-anchor="middle" x="656.5" y="-116.4" font-family="Times,serif" font-size="12.00">EOS423</text>
</g>
<!-- EOS201&#45;&gt;EOS423 -->
<g id="edge21" class="edge">
<title>EOS201&#45;&gt;EOS423</title>
<path fill="none" stroke="black" d="M577.07,-261.96C581.44,-258.44 585.84,-254.2 589,-249.5 618.24,-206.02 591.07,-175.87 625.31,-133.95"/>
<polygon fill="black" stroke="black" points="626.66,-135.06 628.58,-130.12 624,-132.78 626.66,-135.06"/>
</g>
<!-- EOS408 -->
<g id="node16" class="node">
<title>EOS408</title>
<path fill="#f5edc9" stroke="#030a10" d="M775,-349C775,-349 731,-349 731,-349 727.5,-349 724,-345.5 724,-342 724,-342 724,-335 724,-335 724,-331.5 727.5,-328 731,-328 731,-328 775,-328 775,-328 778.5,-328 782,-331.5 782,-335 782,-335 782,-342 782,-342 782,-345.5 778.5,-349 775,-349"/>
<text text-anchor="middle" x="753" y="-335.4" font-family="Times,serif" font-size="12.00">EOS408</text>
</g>
<!-- EOS201&#45;&gt;EOS408 -->
<g id="edge32" class="edge">
<title>EOS201&#45;&gt;EOS408</title>
<path fill="none" stroke="black" d="M572.26,-283.15C584.31,-293.89 604.49,-310.08 625,-318.5 655.2,-330.9 692.34,-335.66 718.64,-337.46"/>
<polygon fill="black" stroke="black" points="718.65,-339.22 723.75,-337.78 718.87,-335.72 718.65,-339.22"/>
</g>
<!-- EOS330 -->
<g id="node19" class="node">
<title>EOS330</title>
<path fill="#f5edc9" stroke="#030a10" d="M678.5,-69C678.5,-69 634.5,-69 634.5,-69 631,-69 627.5,-65.5 627.5,-62 627.5,-62 627.5,-55 627.5,-55 627.5,-51.5 631,-48 634.5,-48 634.5,-48 678.5,-48 678.5,-48 682,-48 685.5,-51.5 685.5,-55 685.5,-55 685.5,-62 685.5,-62 685.5,-65.5 682,-69 678.5,-69"/>
<text text-anchor="middle" x="656.5" y="-55.4" font-family="Times,serif" font-size="12.00">EOS330</text>
</g>
<!-- EOS201&#45;&gt;EOS330 -->
<g id="edge45" class="edge">
<title>EOS201&#45;&gt;EOS330</title>
<path fill="none" stroke="black" d="M577.53,-261.83C581.81,-258.36 586.04,-254.18 589,-249.5 624.27,-193.75 598.69,-165.99 625,-105.5 630,-94 637.7,-82.17 644.11,-73.25"/>
<polygon fill="black" stroke="black" points="645.59,-74.19 647.14,-69.12 642.77,-72.12 645.59,-74.19"/>
</g>
<!-- EOS300 -->
<g id="node22" class="node">
<title>EOS300</title>
<path fill="#e7a79b" stroke="#030a10" d="M678.5,-359C678.5,-359 634.5,-359 634.5,-359 631,-359 627.5,-355.5 627.5,-352 627.5,-352 627.5,-345 627.5,-345 627.5,-341.5 631,-338 634.5,-338 634.5,-338 678.5,-338 678.5,-338 682,-338 685.5,-341.5 685.5,-345 685.5,-345 685.5,-352 685.5,-352 685.5,-355.5 682,-359 678.5,-359"/>
<text text-anchor="middle" x="656.5" y="-345.4" font-family="Times,serif" font-size="12.00">EOS300</text>
</g>
<!-- EOS201&#45;&gt;EOS300 -->
<g id="edge55" class="edge">
<title>EOS201&#45;&gt;EOS300</title>
<path fill="none" stroke="black" d="M571.2,-283.34C583.3,-295.86 604.44,-316.61 625,-331.5 626.77,-332.78 628.64,-334.04 630.56,-335.25"/>
<polygon fill="black" stroke="black" points="629.89,-336.89 635.07,-338 631.71,-333.9 629.89,-336.89"/>
</g>
<!-- 1 of [&#39;EOS201&#39;, &#39;EOS240&#39;] -->
<g id="node40" class="node">
<title>1 of [&#39;EOS201&#39;, &#39;EOS240&#39;]</title>
<ellipse fill="#e9dbd0" stroke="#030a10" cx="656.5" cy="-247.5" rx="11" ry="11"/>
<text text-anchor="middle" x="656.5" y="-244.4" font-family="Times,serif" font-size="12.00">1</text>
</g>
<!-- EOS201&#45;&gt;1 of [&#39;EOS201&#39;, &#39;EOS240&#39;] -->
<g id="edge28" class="edge">
<title>EOS201&#45;&gt;1 of [&#39;EOS201&#39;, &#39;EOS240&#39;]</title>
<path fill="none" stroke="black" d="M589.1,-265.07C606,-260.59 626.85,-255.08 640.62,-251.44"/>
<polygon fill="black" stroke="black" points="641.32,-253.06 645.71,-250.09 640.43,-249.68 641.32,-253.06"/>
</g>
<!-- EOS316 -->
<g id="node3" class="node">
<title>EOS316</title>
<path fill="#e7a79b" stroke="#030a10" d="M582,-381C582,-381 538,-381 538,-381 534.5,-381 531,-377.5 531,-374 531,-374 531,-367 531,-367 531,-363.5 534.5,-360 538,-360 538,-360 582,-360 582,-360 585.5,-360 589,-363.5 589,-367 589,-367 589,-374 589,-374 589,-377.5 585.5,-381 582,-381"/>
<text text-anchor="middle" x="560" y="-367.4" font-family="Times,serif" font-size="12.00">EOS316</text>
</g>
<!-- EOS316&#45;&gt;EOS420 -->
<g id="edge20" class="edge">
<title>EOS316&#45;&gt;EOS420</title>
<path fill="none" stroke="black" d="M571.45,-359.97C576.87,-354.35 583.48,-347.22 589,-340.5 606.38,-319.34 603.86,-307.9 625,-290.5 625.09,-290.43 625.18,-290.35 625.27,-290.28"/>
<polygon fill="black" stroke="black" points="626.56,-291.51 629.62,-287.18 624.53,-288.66 626.56,-291.51"/>
</g>
<!-- EOS400 -->
<g id="node15" class="node">
<title>EOS400</title>
<path fill="#f5edc9" stroke="#030a10" d="M775,-379C775,-379 731,-379 731,-379 727.5,-379 724,-375.5 724,-372 724,-372 724,-365 724,-365 724,-361.5 727.5,-358 731,-358 731,-358 775,-358 775,-358 778.5,-358 782,-361.5 782,-365 782,-365 782,-372 782,-372 782,-375.5 778.5,-379 775,-379"/>
<text text-anchor="middle" x="753" y="-365.4" font-family="Times,serif" font-size="12.00">EOS400</text>
</g>
<!-- EOS316&#45;&gt;EOS400 -->
<g id="edge31" class="edge">
<title>EOS316&#45;&gt;EOS400</title>
<path fill="none" stroke="black" d="M589.18,-370.2C623.6,-369.84 681.76,-369.24 718.45,-368.85"/>
<polygon fill="black" stroke="black" points="718.72,-370.6 723.7,-368.8 718.68,-367.1 718.72,-370.6"/>
</g>
<!-- 1 of [&#39;EOS310&#39;, &#39;EOS316&#39;, &#39;EOS320&#39;] -->
<g id="node31" class="node">
<title>1 of [&#39;EOS310&#39;, &#39;EOS316&#39;, &#39;EOS320&#39;]</title>
<ellipse fill="#e9dbd0" stroke="#030a10" cx="656.5" cy="-421.5" rx="11" ry="11"/>
<text text-anchor="middle" x="656.5" y="-418.4" font-family="Times,serif" font-size="12.00">1</text>
</g>
<!-- EOS316&#45;&gt;1 of [&#39;EOS310&#39;, &#39;EOS316&#39;, &#39;EOS320&#39;] -->
<g id="edge12" class="edge">
<title>EOS316&#45;&gt;1 of [&#39;EOS310&#39;, &#39;EOS316&#39;, &#39;EOS320&#39;]</title>
<path fill="none" stroke="black" d="M580.93,-381.06C583.65,-382.54 586.4,-384.05 589,-385.5 605.17,-394.54 608.68,-397.74 625,-406.5 630.41,-409.41 636.47,-412.43 641.75,-414.99"/>
<polygon fill="black" stroke="black" points="641.07,-416.61 646.34,-417.2 642.59,-413.46 641.07,-416.61"/>
</g>
<!-- 1 of [&#39;EOS310&#39;, &#39;EOS316&#39;] -->
<g id="node41" class="node">
<title>1 of [&#39;EOS310&#39;, &#39;EOS316&#39;]</title>
<ellipse fill="#e9dbd0" stroke="#030a10" cx="656.5" cy="-392.5" rx="11" ry="11"/>
<text text-anchor="middle" x="656.5" y="-389.4" font-family="Times,serif" font-size="12.00">1</text>
</g>
<!-- EOS316&#45;&gt;1 of [&#39;EOS310&#39;, &#39;EOS316&#39;] -->
<g id="edge35" class="edge">
<title>EOS316&#45;&gt;1 of [&#39;EOS310&#39;, &#39;EOS316&#39;]</title>
<path fill="none" stroke="black" d="M589.1,-377.04C606,-380.98 626.85,-385.83 640.62,-389.04"/>
<polygon fill="black" stroke="black" points="640.44,-390.79 645.71,-390.22 641.24,-387.38 640.44,-390.79"/>
</g>
<!-- EOS321 -->
<g id="node4" class="node">
<title>EOS321</title>
<path fill="#f5edc9" stroke="#030a10" d="M775,-316C775,-316 731,-316 731,-316 727.5,-316 724,-312.5 724,-309 724,-309 724,-302 724,-302 724,-298.5 727.5,-295 731,-295 731,-295 775,-295 775,-295 778.5,-295 782,-298.5 782,-302 782,-302 782,-309 782,-309 782,-312.5 778.5,-316 775,-316"/>
<text text-anchor="middle" x="753" y="-302.4" font-family="Times,serif" font-size="12.00">EOS321</text>
</g>
<!-- EOS403 -->
<g id="node5" class="node">
<title>EOS403</title>
<path fill="#f5edc9" stroke="#030a10" d="M871.5,-229C871.5,-229 827.5,-229 827.5,-229 824,-229 820.5,-225.5 820.5,-222 820.5,-222 820.5,-215 820.5,-215 820.5,-211.5 824,-208 827.5,-208 827.5,-208 871.5,-208 871.5,-208 875,-208 878.5,-211.5 878.5,-215 878.5,-215 878.5,-222 878.5,-222 878.5,-225.5 875,-229 871.5,-229"/>
<text text-anchor="middle" x="849.5" y="-215.4" font-family="Times,serif" font-size="12.00">EOS403</text>
</g>
<!-- EOS416 -->
<g id="node6" class="node">
<title>EOS416</title>
<path fill="#f5edc9" stroke="#030a10" d="M775,-432C775,-432 731,-432 731,-432 727.5,-432 724,-428.5 724,-425 724,-425 724,-418 724,-418 724,-414.5 727.5,-411 731,-411 731,-411 775,-411 775,-411 778.5,-411 782,-414.5 782,-418 782,-418 782,-425 782,-425 782,-428.5 778.5,-432 775,-432"/>
<text text-anchor="middle" x="753" y="-418.4" font-family="Times,serif" font-size="12.00">EOS416</text>
</g>
<!-- CHEM091 -->
<g id="node7" class="node">
<title>CHEM091</title>
<path fill="#f5edc9" stroke="#030a10" d="M274,-259C274,-259 218,-259 218,-259 214.5,-259 211,-255.5 211,-252 211,-252 211,-245 211,-245 211,-241.5 214.5,-238 218,-238 218,-238 274,-238 274,-238 277.5,-238 281,-241.5 281,-245 281,-245 281,-252 281,-252 281,-255.5 277.5,-259 274,-259"/>
<text text-anchor="middle" x="246" y="-245.4" font-family="Times,serif" font-size="12.00">CHEM091</text>
</g>
<!-- CHEM102 -->
<g id="node20" class="node">
<title>CHEM102</title>
<path fill="#e7a79b" stroke="#030a10" d="M380,-298C380,-298 324,-298 324,-298 320.5,-298 317,-294.5 317,-291 317,-291 317,-284 317,-284 317,-280.5 320.5,-277 324,-277 324,-277 380,-277 380,-277 383.5,-277 387,-280.5 387,-284 387,-284 387,-291 387,-291 387,-294.5 383.5,-298 380,-298"/>
<text text-anchor="middle" x="352" y="-284.4" font-family="Times,serif" font-size="12.00">CHEM102</text>
</g>
<!-- CHEM091&#45;&gt;CHEM102 -->
<g id="edge50" class="edge">
<title>CHEM091&#45;&gt;CHEM102</title>
<path fill="none" stroke="black" d="M275.14,-259.05C288.32,-264 304.11,-269.92 317.87,-275.08"/>
<polygon fill="black" stroke="black" points="317.54,-276.82 322.83,-276.94 318.77,-273.54 317.54,-276.82"/>
</g>
<!-- MATH100 -->
<g id="node8" class="node">
<title>MATH100</title>
<path fill="#f5edc9" stroke="#030a10" d="M167.5,-357C167.5,-357 112.5,-357 112.5,-357 109,-357 105.5,-353.5 105.5,-350 105.5,-350 105.5,-343 105.5,-343 105.5,-339.5 109,-336 112.5,-336 112.5,-336 167.5,-336 167.5,-336 171,-336 174.5,-339.5 174.5,-343 174.5,-343 174.5,-350 174.5,-350 174.5,-353.5 171,-357 167.5,-357"/>
<text text-anchor="middle" x="140" y="-343.4" font-family="Times,serif" font-size="12.00">MATH100</text>
</g>
<!-- 1 of [&#39;MATH100&#39;, &#39;MATH102&#39;, &#39;MATH109&#39;] -->
<g id="node49" class="node">
<title>1 of [&#39;MATH100&#39;, &#39;MATH102&#39;, &#39;MATH109&#39;]</title>
<ellipse fill="#e9dbd0" stroke="#030a10" cx="246" cy="-321.5" rx="11" ry="11"/>
<text text-anchor="middle" x="246" y="-318.4" font-family="Times,serif" font-size="12.00">1</text>
</g>
<!-- MATH100&#45;&gt;1 of [&#39;MATH100&#39;, &#39;MATH102&#39;, &#39;MATH109&#39;] -->
<g id="edge47" class="edge">
<title>MATH100&#45;&gt;1 of [&#39;MATH100&#39;, &#39;MATH102&#39;, &#39;MATH109&#39;]</title>
<path fill="none" stroke="black" d="M174.77,-338.38C193.36,-333.91 215.52,-328.59 229.9,-325.13"/>
<polygon fill="black" stroke="black" points="230.37,-326.82 234.83,-323.95 229.56,-323.41 230.37,-326.82"/>
</g>
<!-- BIOL457 -->
<g id="node9" class="node">
<title>BIOL457</title>
<path fill="#f5edc9" stroke="#030a10" d="M874,-55C874,-55 825,-55 825,-55 821.5,-55 818,-51.5 818,-48 818,-48 818,-41 818,-41 818,-37.5 821.5,-34 825,-34 825,-34 874,-34 874,-34 877.5,-34 881,-37.5 881,-41 881,-41 881,-48 881,-48 881,-51.5 877.5,-55 874,-55"/>
<text text-anchor="middle" x="849.5" y="-41.4" font-family="Times,serif" font-size="12.00">BIOL457</text>
</g>
<!-- EOS335 -->
<g id="node12" class="node">
<title>EOS335</title>
<path fill="#f5edc9" stroke="#030a10" d="M678.5,-214C678.5,-214 634.5,-214 634.5,-214 631,-214 627.5,-210.5 627.5,-207 627.5,-207 627.5,-200 627.5,-200 627.5,-196.5 631,-193 634.5,-193 634.5,-193 678.5,-193 678.5,-193 682,-193 685.5,-196.5 685.5,-200 685.5,-200 685.5,-207 685.5,-207 685.5,-210.5 682,-214 678.5,-214"/>
<text text-anchor="middle" x="656.5" y="-200.4" font-family="Times,serif" font-size="12.00">EOS335</text>
</g>
<!-- 1 of [&#39;EOS335&#39;, &#39;EOS430&#39;] -->
<g id="node29" class="node">
<title>1 of [&#39;EOS335&#39;, &#39;EOS430&#39;]</title>
<ellipse fill="#e9dbd0" stroke="#030a10" cx="753" cy="-166.5" rx="11" ry="11"/>
<text text-anchor="middle" x="753" y="-163.4" font-family="Times,serif" font-size="12.00">1</text>
</g>
<!-- EOS335&#45;&gt;1 of [&#39;EOS335&#39;, &#39;EOS430&#39;] -->
<g id="edge8" class="edge">
<title>EOS335&#45;&gt;1 of [&#39;EOS335&#39;, &#39;EOS430&#39;]</title>
<path fill="none" stroke="black" d="M684.33,-193C701.63,-186.22 723.45,-177.68 737.56,-172.15"/>
<polygon fill="black" stroke="black" points="738.37,-173.71 742.39,-170.26 737.1,-170.46 738.37,-173.71"/>
</g>
<!-- EOS425 -->
<g id="node13" class="node">
<title>EOS425</title>
<path fill="#f5edc9" stroke="#030a10" d="M871.5,-177C871.5,-177 827.5,-177 827.5,-177 824,-177 820.5,-173.5 820.5,-170 820.5,-170 820.5,-163 820.5,-163 820.5,-159.5 824,-156 827.5,-156 827.5,-156 871.5,-156 871.5,-156 875,-156 878.5,-159.5 878.5,-163 878.5,-163 878.5,-170 878.5,-170 878.5,-173.5 875,-177 871.5,-177"/>
<text text-anchor="middle" x="849.5" y="-163.4" font-family="Times,serif" font-size="12.00">EOS425</text>
</g>
<!-- EOS450 -->
<g id="node14" class="node">
<title>EOS450</title>
<path fill="#f5edc9" stroke="#030a10" d="M775,-258C775,-258 731,-258 731,-258 727.5,-258 724,-254.5 724,-251 724,-251 724,-244 724,-244 724,-240.5 727.5,-237 731,-237 731,-237 775,-237 775,-237 778.5,-237 782,-240.5 782,-244 782,-244 782,-251 782,-251 782,-254.5 778.5,-258 775,-258"/>
<text text-anchor="middle" x="753" y="-244.4" font-family="Times,serif" font-size="12.00">EOS450</text>
</g>
<!-- EOS460 -->
<g id="node17" class="node">
<title>EOS460</title>
<path fill="#f5edc9" stroke="#030a10" d="M871.5,-142C871.5,-142 827.5,-142 827.5,-142 824,-142 820.5,-138.5 820.5,-135 820.5,-135 820.5,-128 820.5,-128 820.5,-124.5 824,-121 827.5,-121 827.5,-121 871.5,-121 871.5,-121 875,-121 878.5,-124.5 878.5,-128 878.5,-128 878.5,-135 878.5,-135 878.5,-138.5 875,-142 871.5,-142"/>
<text text-anchor="middle" x="849.5" y="-128.4" font-family="Times,serif" font-size="12.00">EOS460</text>
</g>
<!-- EOS120 -->
<g id="node18" class="node">
<title>EOS120</title>
<path fill="#e7a79b" stroke="#030a10" d="M374,-270C374,-270 330,-270 330,-270 326.5,-270 323,-266.5 323,-263 323,-263 323,-256 323,-256 323,-252.5 326.5,-249 330,-249 330,-249 374,-249 374,-249 377.5,-249 381,-252.5 381,-256 381,-256 381,-263 381,-263 381,-266.5 377.5,-270 374,-270"/>
<text text-anchor="middle" x="352" y="-256.4" font-family="Times,serif" font-size="12.00">EOS120</text>
</g>
<!-- EOS120&#45;&gt;EOS201 -->
<g id="edge1" class="edge">
<title>EOS120&#45;&gt;EOS201</title>
<path fill="none" stroke="black" d="M381.21,-261.28C418.86,-263.66 485.43,-267.86 525.56,-270.39"/>
<polygon fill="black" stroke="black" points="525.7,-272.15 530.8,-270.72 525.92,-268.66 525.7,-272.15"/>
</g>
<!-- EOS205 -->
<g id="node24" class="node">
<title>EOS205</title>
<path fill="#9fa7be" stroke="#030a10" d="M481,-298C481,-298 437,-298 437,-298 433.5,-298 430,-294.5 430,-291 430,-291 430,-284 430,-284 430,-280.5 433.5,-277 437,-277 437,-277 481,-277 481,-277 484.5,-277 488,-280.5 488,-284 488,-284 488,-291 488,-291 488,-294.5 484.5,-298 481,-298"/>
<text text-anchor="middle" x="459" y="-284.4" font-family="Times,serif" font-size="12.00">EOS205</text>
</g>
<!-- EOS120&#45;&gt;EOS205 -->
<g id="edge62" class="edge">
<title>EOS120&#45;&gt;EOS205</title>
<path fill="none" stroke="black" d="M381.14,-267C394.56,-270.58 410.7,-274.89 424.72,-278.63"/>
<polygon fill="black" stroke="black" points="424.5,-280.38 429.78,-279.98 425.4,-277 424.5,-280.38"/>
</g>
<!-- EOS240 -->
<g id="node27" class="node">
<title>EOS240</title>
<path fill="#e7a79b" stroke="#030a10" d="M582,-246C582,-246 538,-246 538,-246 534.5,-246 531,-242.5 531,-239 531,-239 531,-232 531,-232 531,-228.5 534.5,-225 538,-225 538,-225 582,-225 582,-225 585.5,-225 589,-228.5 589,-232 589,-232 589,-239 589,-239 589,-242.5 585.5,-246 582,-246"/>
<text text-anchor="middle" x="560" y="-232.4" font-family="Times,serif" font-size="12.00">EOS240</text>
</g>
<!-- EOS120&#45;&gt;EOS240 -->
<g id="edge65" class="edge">
<title>EOS120&#45;&gt;EOS240</title>
<path fill="none" stroke="black" d="M381.13,-253.04C393.86,-250.34 409.12,-247.39 423,-245.5 457.89,-240.75 498.15,-238.14 525.76,-236.79"/>
<polygon fill="black" stroke="black" points="525.85,-238.54 530.76,-236.55 525.69,-235.04 525.85,-238.54"/>
</g>
<!-- 1 of [&#39;BIOL215&#39;, &#39;EOS330&#39;] -->
<g id="node35" class="node">
<title>1 of [&#39;BIOL215&#39;, &#39;EOS330&#39;]</title>
<ellipse fill="#e9dbd0" stroke="#030a10" cx="753" cy="-44.5" rx="11" ry="11"/>
<text text-anchor="middle" x="753" y="-41.4" font-family="Times,serif" font-size="12.00">1</text>
</g>
<!-- EOS330&#45;&gt;1 of [&#39;BIOL215&#39;, &#39;EOS330&#39;] -->
<g id="edge18" class="edge">
<title>EOS330&#45;&gt;1 of [&#39;BIOL215&#39;, &#39;EOS330&#39;]</title>
<path fill="none" stroke="black" d="M685.6,-54.34C702.31,-51.86 722.88,-48.81 736.65,-46.77"/>
<polygon fill="black" stroke="black" points="737.06,-48.48 741.75,-46.02 736.55,-45.02 737.06,-48.48"/>
</g>
<!-- CHEM102&#45;&gt;EOS205 -->
<g id="edge63" class="edge">
<title>CHEM102&#45;&gt;EOS205</title>
<path fill="none" stroke="black" d="M387.09,-287.5C399.14,-287.5 412.67,-287.5 424.66,-287.5"/>
<polygon fill="black" stroke="black" points="424.7,-289.25 429.7,-287.5 424.7,-285.75 424.7,-289.25"/>
</g>
<!-- CHEM102&#45;&gt;EOS240 -->
<g id="edge67" class="edge">
<title>CHEM102&#45;&gt;EOS240</title>
<path fill="none" stroke="black" d="M387.02,-278.91C425.51,-269.2 487.81,-253.47 525.91,-243.85"/>
<polygon fill="black" stroke="black" points="526.48,-245.51 530.9,-242.59 525.62,-242.12 526.48,-245.51"/>
</g>
<!-- MATH109 -->
<g id="node21" class="node">
<title>MATH109</title>
<path fill="#f5edc9" stroke="#030a10" d="M167.5,-385C167.5,-385 112.5,-385 112.5,-385 109,-385 105.5,-381.5 105.5,-378 105.5,-378 105.5,-371 105.5,-371 105.5,-367.5 109,-364 112.5,-364 112.5,-364 167.5,-364 167.5,-364 171,-364 174.5,-367.5 174.5,-371 174.5,-371 174.5,-378 174.5,-378 174.5,-381.5 171,-385 167.5,-385"/>
<text text-anchor="middle" x="140" y="-371.4" font-family="Times,serif" font-size="12.00">MATH109</text>
</g>
<!-- MATH109&#45;&gt;1 of [&#39;MATH100&#39;, &#39;MATH102&#39;, &#39;MATH109&#39;] -->
<g id="edge49" class="edge">
<title>MATH109&#45;&gt;1 of [&#39;MATH100&#39;, &#39;MATH102&#39;, &#39;MATH109&#39;]</title>
<path fill="none" stroke="black" d="M167.49,-363.95C170.05,-362.82 172.59,-361.66 175,-360.5 195.26,-350.73 217.86,-337.74 231.76,-329.5"/>
<polygon fill="black" stroke="black" points="232.72,-330.96 236.12,-326.89 230.93,-327.95 232.72,-330.96"/>
</g>
<!-- EOS300&#45;&gt;EOS321 -->
<g id="edge5" class="edge">
<title>EOS300&#45;&gt;EOS321</title>
<path fill="none" stroke="black" d="M680.86,-337.87C694.02,-331.88 710.54,-324.37 724.34,-318.09"/>
<polygon fill="black" stroke="black" points="725.08,-319.67 728.91,-316.01 723.63,-316.48 725.08,-319.67"/>
</g>
<!-- EOS300&#45;&gt;EOS400 -->
<g id="edge30" class="edge">
<title>EOS300&#45;&gt;EOS400</title>
<path fill="none" stroke="black" d="M685.6,-354.45C696.07,-356.66 708.06,-359.2 718.94,-361.5"/>
<polygon fill="black" stroke="black" points="718.59,-363.22 723.85,-362.54 719.32,-359.79 718.59,-363.22"/>
</g>
<!-- EOS440 -->
<g id="node23" class="node">
<title>EOS440</title>
<path fill="#f5edc9" stroke="#030a10" d="M678.5,-186C678.5,-186 634.5,-186 634.5,-186 631,-186 627.5,-182.5 627.5,-179 627.5,-179 627.5,-172 627.5,-172 627.5,-168.5 631,-165 634.5,-165 634.5,-165 678.5,-165 678.5,-165 682,-165 685.5,-168.5 685.5,-172 685.5,-172 685.5,-179 685.5,-179 685.5,-182.5 682,-186 678.5,-186"/>
<text text-anchor="middle" x="656.5" y="-172.4" font-family="Times,serif" font-size="12.00">EOS440</text>
</g>
<!-- EOS205&#45;&gt;EOS201 -->
<g id="edge2" class="edge">
<title>EOS205&#45;&gt;EOS201</title>
<path fill="none" stroke="black" d="M488.1,-283.24C499.81,-281.47 513.49,-279.4 525.69,-277.55"/>
<polygon fill="black" stroke="black" points="526.14,-279.25 530.83,-276.77 525.62,-275.79 526.14,-279.25"/>
</g>
<!-- EOS205&#45;&gt;EOS316 -->
<g id="edge3" class="edge">
<title>EOS205&#45;&gt;EOS316</title>
<path fill="none" stroke="black" d="M470,-298.04C483.23,-311.7 507.64,-335.84 531,-353.5 532.54,-354.67 534.17,-355.82 535.83,-356.95"/>
<polygon fill="black" stroke="black" points="535.13,-358.59 540.27,-359.86 537.05,-355.66 535.13,-358.59"/>
</g>
<!-- EOS205&#45;&gt;EOS300 -->
<g id="edge57" class="edge">
<title>EOS205&#45;&gt;EOS300</title>
<path fill="none" stroke="black" d="M470.35,-298.37C483.2,-311.06 506.46,-331.47 531,-340.5 560.54,-351.37 596.66,-352.48 622.37,-351.4"/>
<polygon fill="black" stroke="black" points="622.46,-353.15 627.37,-351.16 622.29,-349.66 622.46,-353.15"/>
</g>
<!-- EOS205&#45;&gt;EOS240 -->
<g id="edge66" class="edge">
<title>EOS205&#45;&gt;EOS240</title>
<path fill="none" stroke="black" d="M480.03,-276.98C495.73,-268.73 517.65,-257.22 534.41,-248.41"/>
<polygon fill="black" stroke="black" points="535.38,-249.88 539,-246.01 533.76,-246.78 535.38,-249.88"/>
</g>
<!-- MATH102 -->
<g id="node25" class="node">
<title>MATH102</title>
<path fill="#f5edc9" stroke="#030a10" d="M167.5,-329C167.5,-329 112.5,-329 112.5,-329 109,-329 105.5,-325.5 105.5,-322 105.5,-322 105.5,-315 105.5,-315 105.5,-311.5 109,-308 112.5,-308 112.5,-308 167.5,-308 167.5,-308 171,-308 174.5,-311.5 174.5,-315 174.5,-315 174.5,-322 174.5,-322 174.5,-325.5 171,-329 167.5,-329"/>
<text text-anchor="middle" x="140" y="-315.4" font-family="Times,serif" font-size="12.00">MATH102</text>
</g>
<!-- MATH102&#45;&gt;1 of [&#39;MATH100&#39;, &#39;MATH102&#39;, &#39;MATH109&#39;] -->
<g id="edge48" class="edge">
<title>MATH102&#45;&gt;1 of [&#39;MATH100&#39;, &#39;MATH102&#39;, &#39;MATH109&#39;]</title>
<path fill="none" stroke="black" d="M174.77,-319.47C193.2,-320.01 215.13,-320.64 229.52,-321.05"/>
<polygon fill="black" stroke="black" points="229.78,-322.81 234.83,-321.21 229.88,-319.31 229.78,-322.81"/>
</g>
<!-- CHEM101 -->
<g id="node26" class="node">
<title>CHEM101</title>
<path fill="#f5edc9" stroke="#030a10" d="M168,-273C168,-273 112,-273 112,-273 108.5,-273 105,-269.5 105,-266 105,-266 105,-259 105,-259 105,-255.5 108.5,-252 112,-252 112,-252 168,-252 168,-252 171.5,-252 175,-255.5 175,-259 175,-259 175,-266 175,-266 175,-269.5 171.5,-273 168,-273"/>
<text text-anchor="middle" x="140" y="-259.4" font-family="Times,serif" font-size="12.00">CHEM101</text>
</g>
<!-- CHEM101&#45;&gt;1 of [&#39;CHEM101&#39;, &#39;CHEM150&#39;] -->
<g id="edge52" class="edge">
<title>CHEM101&#45;&gt;1 of [&#39;CHEM101&#39;, &#39;CHEM150&#39;]</title>
<path fill="none" stroke="black" d="M175.05,-270.69C193.63,-275.15 215.68,-280.45 229.99,-283.89"/>
<polygon fill="black" stroke="black" points="229.62,-285.6 234.89,-285.07 230.43,-282.2 229.62,-285.6"/>
</g>
<!-- EOS240&#45;&gt;EOS403 -->
<g id="edge6" class="edge">
<title>EOS240&#45;&gt;EOS403</title>
<path fill="none" stroke="black" d="M589.09,-233.84C642.44,-230.68 758.2,-223.84 815.29,-220.46"/>
<polygon fill="black" stroke="black" points="815.41,-222.21 820.3,-220.17 815.2,-218.72 815.41,-222.21"/>
</g>
<!-- EOS240&#45;&gt;EOS335 -->
<g id="edge25" class="edge">
<title>EOS240&#45;&gt;EOS335</title>
<path fill="none" stroke="black" d="M589.1,-225.99C599.57,-222.44 611.56,-218.38 622.44,-214.7"/>
<polygon fill="black" stroke="black" points="623.17,-216.29 627.35,-213.03 622.05,-212.98 623.17,-216.29"/>
</g>
<!-- EOS240&#45;&gt;EOS440 -->
<g id="edge58" class="edge">
<title>EOS240&#45;&gt;EOS440</title>
<path fill="none" stroke="black" d="M574.22,-224.84C586.82,-214.97 606.55,-200.23 625,-189.5 625.5,-189.21 626.01,-188.92 626.53,-188.63"/>
<polygon fill="black" stroke="black" points="627.72,-189.98 631.3,-186.08 626.07,-186.89 627.72,-189.98"/>
</g>
<!-- EOS240&#45;&gt;1 of [&#39;EOS201&#39;, &#39;EOS240&#39;] -->
<g id="edge29" class="edge">
<title>EOS240&#45;&gt;1 of [&#39;EOS201&#39;, &#39;EOS240&#39;]</title>
<path fill="none" stroke="black" d="M589.1,-239.07C605.81,-241.19 626.38,-243.8 640.15,-245.55"/>
<polygon fill="black" stroke="black" points="640.07,-247.3 645.25,-246.2 640.51,-243.83 640.07,-247.3"/>
</g>
<!-- EOS210 -->
<g id="node28" class="node">
<title>EOS210</title>
<path fill="#f5edc9" stroke="#030a10" d="M678.5,-315C678.5,-315 634.5,-315 634.5,-315 631,-315 627.5,-311.5 627.5,-308 627.5,-308 627.5,-301 627.5,-301 627.5,-297.5 631,-294 634.5,-294 634.5,-294 678.5,-294 678.5,-294 682,-294 685.5,-297.5 685.5,-301 685.5,-301 685.5,-308 685.5,-308 685.5,-311.5 682,-315 678.5,-315"/>
<text text-anchor="middle" x="656.5" y="-301.4" font-family="Times,serif" font-size="12.00">EOS210</text>
</g>
<!-- EOS210&#45;&gt;EOS321 -->
<g id="edge4" class="edge">
<title>EOS210&#45;&gt;EOS321</title>
<path fill="none" stroke="black" d="M685.6,-304.8C695.98,-304.91 707.84,-305.03 718.64,-305.15"/>
<polygon fill="black" stroke="black" points="718.83,-306.9 723.85,-305.2 718.87,-303.4 718.83,-306.9"/>
</g>
<!-- 1 of [&#39;EOS335&#39;, &#39;EOS430&#39;]&#45;&gt;EOS403 -->
<g id="edge7" class="edge">
<title>1 of [&#39;EOS335&#39;, &#39;EOS430&#39;]&#45;&gt;EOS403</title>
<path fill="none" stroke="black" d="M763.06,-171.49C777.15,-179.24 804.76,-194.43 824.79,-205.45"/>
<polygon fill="black" stroke="black" points="823.97,-207 829.2,-207.88 825.66,-203.94 823.97,-207"/>
</g>
<!-- 1 of [&#39;EOS335&#39;, &#39;EOS430&#39;]&#45;&gt;EOS425 -->
<g id="edge26" class="edge">
<title>1 of [&#39;EOS335&#39;, &#39;EOS430&#39;]&#45;&gt;EOS425</title>
<path fill="none" stroke="black" d="M764.11,-166.5C776.2,-166.5 797.03,-166.5 814.97,-166.5"/>
<polygon fill="black" stroke="black" points="815.43,-168.25 820.43,-166.5 815.43,-164.75 815.43,-168.25"/>
</g>
<!-- 1 of [&#39;EOS335&#39;, &#39;EOS430&#39;]&#45;&gt;EOS460 -->
<g id="edge41" class="edge">
<title>1 of [&#39;EOS335&#39;, &#39;EOS430&#39;]&#45;&gt;EOS460</title>
<path fill="none" stroke="black" d="M763.76,-162.89C775.83,-158.42 797,-150.57 815.17,-143.84"/>
<polygon fill="black" stroke="black" points="816.12,-145.36 820.2,-141.98 814.91,-142.08 816.12,-145.36"/>
</g>
<!-- EOS430 -->
<g id="node30" class="node">
<title>EOS430</title>
<path fill="#f5edc9" stroke="#030a10" d="M678.5,-158C678.5,-158 634.5,-158 634.5,-158 631,-158 627.5,-154.5 627.5,-151 627.5,-151 627.5,-144 627.5,-144 627.5,-140.5 631,-137 634.5,-137 634.5,-137 678.5,-137 678.5,-137 682,-137 685.5,-140.5 685.5,-144 685.5,-144 685.5,-151 685.5,-151 685.5,-154.5 682,-158 678.5,-158"/>
<text text-anchor="middle" x="656.5" y="-144.4" font-family="Times,serif" font-size="12.00">EOS430</text>
</g>
<!-- EOS430&#45;&gt;1 of [&#39;EOS335&#39;, &#39;EOS430&#39;] -->
<g id="edge9" class="edge">
<title>EOS430&#45;&gt;1 of [&#39;EOS335&#39;, &#39;EOS430&#39;]</title>
<path fill="none" stroke="black" d="M685.6,-153.15C702.31,-156.51 722.88,-160.64 736.65,-163.41"/>
<polygon fill="black" stroke="black" points="736.51,-165.17 741.75,-164.44 737.2,-161.74 736.51,-165.17"/>
</g>
<!-- 1 of [&#39;EOS310&#39;, &#39;EOS316&#39;, &#39;EOS320&#39;]&#45;&gt;EOS416 -->
<g id="edge10" class="edge">
<title>1 of [&#39;EOS310&#39;, &#39;EOS316&#39;, &#39;EOS320&#39;]&#45;&gt;EOS416</title>
<path fill="none" stroke="black" d="M667.61,-421.5C679.7,-421.5 700.53,-421.5 718.47,-421.5"/>
<polygon fill="black" stroke="black" points="718.93,-423.25 723.93,-421.5 718.93,-419.75 718.93,-423.25"/>
</g>
<!-- EOS310 -->
<g id="node32" class="node">
<title>EOS310</title>
<path fill="#f5edc9" stroke="#030a10" d="M582,-409C582,-409 538,-409 538,-409 534.5,-409 531,-405.5 531,-402 531,-402 531,-395 531,-395 531,-391.5 534.5,-388 538,-388 538,-388 582,-388 582,-388 585.5,-388 589,-391.5 589,-395 589,-395 589,-402 589,-402 589,-405.5 585.5,-409 582,-409"/>
<text text-anchor="middle" x="560" y="-395.4" font-family="Times,serif" font-size="12.00">EOS310</text>
</g>
<!-- EOS310&#45;&gt;1 of [&#39;EOS310&#39;, &#39;EOS316&#39;, &#39;EOS320&#39;] -->
<g id="edge11" class="edge">
<title>EOS310&#45;&gt;1 of [&#39;EOS310&#39;, &#39;EOS316&#39;, &#39;EOS320&#39;]</title>
<path fill="none" stroke="black" d="M589.1,-405.34C606,-409.45 626.85,-414.53 640.62,-417.88"/>
<polygon fill="black" stroke="black" points="640.44,-419.64 645.71,-419.12 641.27,-416.23 640.44,-419.64"/>
</g>
<!-- EOS310&#45;&gt;1 of [&#39;EOS310&#39;, &#39;EOS316&#39;] -->
<g id="edge34" class="edge">
<title>EOS310&#45;&gt;1 of [&#39;EOS310&#39;, &#39;EOS316&#39;]</title>
<path fill="none" stroke="black" d="M589.1,-396.72C605.81,-395.65 626.38,-394.35 640.15,-393.47"/>
<polygon fill="black" stroke="black" points="640.37,-395.21 645.25,-393.15 640.15,-391.72 640.37,-395.21"/>
</g>
<!-- EOS320 -->
<g id="node33" class="node">
<title>EOS320</title>
<path fill="#f5edc9" stroke="#030a10" d="M582,-437C582,-437 538,-437 538,-437 534.5,-437 531,-433.5 531,-430 531,-430 531,-423 531,-423 531,-419.5 534.5,-416 538,-416 538,-416 582,-416 582,-416 585.5,-416 589,-419.5 589,-423 589,-423 589,-430 589,-430 589,-433.5 585.5,-437 582,-437"/>
<text text-anchor="middle" x="560" y="-423.4" font-family="Times,serif" font-size="12.00">EOS320</text>
</g>
<!-- EOS320&#45;&gt;1 of [&#39;EOS310&#39;, &#39;EOS316&#39;, &#39;EOS320&#39;] -->
<g id="edge13" class="edge">
<title>EOS320&#45;&gt;1 of [&#39;EOS310&#39;, &#39;EOS316&#39;, &#39;EOS320&#39;]</title>
<path fill="none" stroke="black" d="M589.1,-425.01C605.81,-424.13 626.38,-423.04 640.15,-422.31"/>
<polygon fill="black" stroke="black" points="640.35,-424.05 645.25,-422.04 640.17,-420.56 640.35,-424.05"/>
</g>
<!-- MATH120 -->
<g id="node34" class="node">
<title>MATH120</title>
<path fill="#f5edc9" stroke="#030a10" d="M62,-315C62,-315 7,-315 7,-315 3.5,-315 0,-311.5 0,-308 0,-308 0,-301 0,-301 0,-297.5 3.5,-294 7,-294 7,-294 62,-294 62,-294 65.5,-294 69,-297.5 69,-301 69,-301 69,-308 69,-308 69,-311.5 65.5,-315 62,-315"/>
<text text-anchor="middle" x="34.5" y="-301.4" font-family="Times,serif" font-size="12.00">MATH120</text>
</g>
<!-- MATH120&#45;&gt;CHEM091 -->
<g id="edge14" class="edge">
<title>MATH120&#45;&gt;CHEM091</title>
<path fill="none" stroke="black" d="M44.5,-293.7C56.6,-280.12 79.57,-257.47 105,-248.5 137.48,-237.04 176.89,-238.27 205.61,-241.65"/>
<polygon fill="black" stroke="black" points="205.66,-243.42 210.84,-242.3 206.1,-239.94 205.66,-243.42"/>
</g>
<!-- MATH120&#45;&gt;MATH100 -->
<g id="edge15" class="edge">
<title>MATH120&#45;&gt;MATH100</title>
<path fill="none" stroke="black" d="M61.62,-315.1C75.71,-320.82 93.2,-327.92 107.99,-333.92"/>
<polygon fill="black" stroke="black" points="107.6,-335.65 112.89,-335.91 108.92,-332.4 107.6,-335.65"/>
</g>
<!-- MATH120&#45;&gt;MATH109 -->
<g id="edge54" class="edge">
<title>MATH120&#45;&gt;MATH109</title>
<path fill="none" stroke="black" d="M46.55,-315.1C59.67,-327.27 82.6,-347.24 105,-360.5 105.49,-360.79 106,-361.08 106.5,-361.37"/>
<polygon fill="black" stroke="black" points="105.97,-363.06 111.21,-363.85 107.6,-359.97 105.97,-363.06"/>
</g>
<!-- MATH120&#45;&gt;CHEM101 -->
<g id="edge64" class="edge">
<title>MATH120&#45;&gt;CHEM101</title>
<path fill="none" stroke="black" d="M61.62,-293.9C75.71,-288.18 93.2,-281.08 107.99,-275.08"/>
<polygon fill="black" stroke="black" points="108.92,-276.6 112.89,-273.09 107.6,-273.35 108.92,-276.6"/>
</g>
<!-- 1 of [&#39;BIOL215&#39;, &#39;EOS330&#39;]&#45;&gt;BIOL457 -->
<g id="edge16" class="edge">
<title>1 of [&#39;BIOL215&#39;, &#39;EOS330&#39;]&#45;&gt;BIOL457</title>
<path fill="none" stroke="black" d="M764.11,-44.5C775.68,-44.5 795.26,-44.5 812.65,-44.5"/>
<polygon fill="black" stroke="black" points="812.97,-46.25 817.97,-44.5 812.97,-42.75 812.97,-46.25"/>
</g>
<!-- BIOL215 -->
<g id="node36" class="node">
<title>BIOL215</title>
<path fill="#f5edc9" stroke="#030a10" d="M681,-41C681,-41 632,-41 632,-41 628.5,-41 625,-37.5 625,-34 625,-34 625,-27 625,-27 625,-23.5 628.5,-20 632,-20 632,-20 681,-20 681,-20 684.5,-20 688,-23.5 688,-27 688,-27 688,-34 688,-34 688,-37.5 684.5,-41 681,-41"/>
<text text-anchor="middle" x="656.5" y="-27.4" font-family="Times,serif" font-size="12.00">BIOL215</text>
</g>
<!-- BIOL215&#45;&gt;1 of [&#39;BIOL215&#39;, &#39;EOS330&#39;] -->
<g id="edge17" class="edge">
<title>BIOL215&#45;&gt;1 of [&#39;BIOL215&#39;, &#39;EOS330&#39;]</title>
<path fill="none" stroke="black" d="M688.18,-35.05C704.4,-37.45 723.61,-40.29 736.68,-42.23"/>
<polygon fill="black" stroke="black" points="736.68,-44 741.88,-43 737.19,-40.54 736.68,-44"/>
</g>
<!-- 1 of [&#39;EOS225&#39;, &#39;EOS325&#39;] -->
<g id="node37" class="node">
<title>1 of [&#39;EOS225&#39;, &#39;EOS325&#39;]</title>
<ellipse fill="#e9dbd0" stroke="#030a10" cx="560" cy="-123.5" rx="11" ry="11"/>
<text text-anchor="middle" x="560" y="-120.4" font-family="Times,serif" font-size="12.00">1</text>
</g>
<!-- 1 of [&#39;EOS225&#39;, &#39;EOS325&#39;]&#45;&gt;EOS423 -->
<g id="edge22" class="edge">
<title>1 of [&#39;EOS225&#39;, &#39;EOS325&#39;]&#45;&gt;EOS423</title>
<path fill="none" stroke="black" d="M571.11,-123.07C583.3,-122.56 604.39,-121.66 622.44,-120.9"/>
<polygon fill="black" stroke="black" points="622.51,-122.65 627.43,-120.69 622.37,-119.15 622.51,-122.65"/>
</g>
<!-- EOS225 -->
<g id="node38" class="node">
<title>EOS225</title>
<path fill="#f5edc9" stroke="#030a10" d="M481,-161C481,-161 437,-161 437,-161 433.5,-161 430,-157.5 430,-154 430,-154 430,-147 430,-147 430,-143.5 433.5,-140 437,-140 437,-140 481,-140 481,-140 484.5,-140 488,-143.5 488,-147 488,-147 488,-154 488,-154 488,-157.5 484.5,-161 481,-161"/>
<text text-anchor="middle" x="459" y="-147.4" font-family="Times,serif" font-size="12.00">EOS225</text>
</g>
<!-- EOS225&#45;&gt;1 of [&#39;EOS225&#39;, &#39;EOS325&#39;] -->
<g id="edge23" class="edge">
<title>EOS225&#45;&gt;1 of [&#39;EOS225&#39;, &#39;EOS325&#39;]</title>
<path fill="none" stroke="black" d="M488.1,-142.84C506.23,-137.89 529.09,-131.66 543.88,-127.62"/>
<polygon fill="black" stroke="black" points="544.57,-129.25 548.93,-126.25 543.65,-125.87 544.57,-129.25"/>
</g>
<!-- EOS325 -->
<g id="node39" class="node">
<title>EOS325</title>
<path fill="#f5edc9" stroke="#030a10" d="M481,-133C481,-133 437,-133 437,-133 433.5,-133 430,-129.5 430,-126 430,-126 430,-119 430,-119 430,-115.5 433.5,-112 437,-112 437,-112 481,-112 481,-112 484.5,-112 488,-115.5 488,-119 488,-119 488,-126 488,-126 488,-129.5 484.5,-133 481,-133"/>
<text text-anchor="middle" x="459" y="-119.4" font-family="Times,serif" font-size="12.00">EOS325</text>
</g>
<!-- EOS325&#45;&gt;1 of [&#39;EOS225&#39;, &#39;EOS325&#39;] -->
<g id="edge24" class="edge">
<title>EOS325&#45;&gt;1 of [&#39;EOS225&#39;, &#39;EOS325&#39;]</title>
<path fill="none" stroke="black" d="M488.1,-122.78C506.23,-122.97 529.09,-123.2 543.88,-123.35"/>
<polygon fill="black" stroke="black" points="543.92,-125.1 548.93,-123.4 543.95,-121.6 543.92,-125.1"/>
</g>
<!-- 1 of [&#39;EOS325&#39;, &#39;MATH248&#39;, &#39;PHYS248&#39;] -->
<g id="node42" class="node">
<title>1 of [&#39;EOS325&#39;, &#39;MATH248&#39;, &#39;PHYS248&#39;]</title>
<ellipse fill="#e9dbd0" stroke="#030a10" cx="560" cy="-94.5" rx="11" ry="11"/>
<text text-anchor="middle" x="560" y="-91.4" font-family="Times,serif" font-size="12.00">1</text>
</g>
<!-- EOS325&#45;&gt;1 of [&#39;EOS325&#39;, &#39;MATH248&#39;, &#39;PHYS248&#39;] -->
<g id="edge37" class="edge">
<title>EOS325&#45;&gt;1 of [&#39;EOS325&#39;, &#39;MATH248&#39;, &#39;PHYS248&#39;]</title>
<path fill="none" stroke="black" d="M488.1,-114.55C506.23,-109.42 529.09,-102.96 543.88,-98.78"/>
<polygon fill="black" stroke="black" points="544.6,-100.39 548.93,-97.35 543.65,-97.02 544.6,-100.39"/>
</g>
<!-- 1 of [&#39;EOS201&#39;, &#39;EOS240&#39;]&#45;&gt;EOS450 -->
<g id="edge27" class="edge">
<title>1 of [&#39;EOS201&#39;, &#39;EOS240&#39;]&#45;&gt;EOS450</title>
<path fill="none" stroke="black" d="M667.61,-247.5C679.7,-247.5 700.53,-247.5 718.47,-247.5"/>
<polygon fill="black" stroke="black" points="718.93,-249.25 723.93,-247.5 718.93,-245.75 718.93,-249.25"/>
</g>
<!-- 1 of [&#39;EOS310&#39;, &#39;EOS316&#39;]&#45;&gt;EOS408 -->
<g id="edge33" class="edge">
<title>1 of [&#39;EOS310&#39;, &#39;EOS316&#39;]&#45;&gt;EOS408</title>
<path fill="none" stroke="black" d="M666.56,-387.32C680.82,-379.17 708.94,-363.11 729.02,-351.63"/>
<polygon fill="black" stroke="black" points="729.96,-353.11 733.43,-349.11 728.22,-350.07 729.96,-353.11"/>
</g>
<!-- 1 of [&#39;EOS325&#39;, &#39;MATH248&#39;, &#39;PHYS248&#39;]&#45;&gt;EOS460 -->
<g id="edge36" class="edge">
<title>1 of [&#39;EOS325&#39;, &#39;MATH248&#39;, &#39;PHYS248&#39;]&#45;&gt;EOS460</title>
<path fill="none" stroke="black" d="M571.2,-95.1C602.72,-97.05 701.36,-103.89 782,-117.5 792.9,-119.34 804.72,-121.71 815.34,-123.97"/>
<polygon fill="black" stroke="black" points="815.19,-125.73 820.44,-125.07 815.93,-122.31 815.19,-125.73"/>
</g>
<!-- MATH248 -->
<g id="node43" class="node">
<title>MATH248</title>
<path fill="#f5edc9" stroke="#030a10" d="M486.5,-105C486.5,-105 431.5,-105 431.5,-105 428,-105 424.5,-101.5 424.5,-98 424.5,-98 424.5,-91 424.5,-91 424.5,-87.5 428,-84 431.5,-84 431.5,-84 486.5,-84 486.5,-84 490,-84 493.5,-87.5 493.5,-91 493.5,-91 493.5,-98 493.5,-98 493.5,-101.5 490,-105 486.5,-105"/>
<text text-anchor="middle" x="459" y="-91.4" font-family="Times,serif" font-size="12.00">MATH248</text>
</g>
<!-- MATH248&#45;&gt;1 of [&#39;EOS325&#39;, &#39;MATH248&#39;, &#39;PHYS248&#39;] -->
<g id="edge38" class="edge">
<title>MATH248&#45;&gt;1 of [&#39;EOS325&#39;, &#39;MATH248&#39;, &#39;PHYS248&#39;]</title>
<path fill="none" stroke="black" d="M493.52,-94.5C510.4,-94.5 530.07,-94.5 543.41,-94.5"/>
<polygon fill="black" stroke="black" points="543.71,-96.25 548.71,-94.5 543.71,-92.75 543.71,-96.25"/>
</g>
<!-- PHYS248 -->
<g id="node44" class="node">
<title>PHYS248</title>
<path fill="#f5edc9" stroke="#030a10" d="M485,-77C485,-77 433,-77 433,-77 429.5,-77 426,-73.5 426,-70 426,-70 426,-63 426,-63 426,-59.5 429.5,-56 433,-56 433,-56 485,-56 485,-56 488.5,-56 492,-59.5 492,-63 492,-63 492,-70 492,-70 492,-73.5 488.5,-77 485,-77"/>
<text text-anchor="middle" x="459" y="-63.4" font-family="Times,serif" font-size="12.00">PHYS248</text>
</g>
<!-- PHYS248&#45;&gt;1 of [&#39;EOS325&#39;, &#39;MATH248&#39;, &#39;PHYS248&#39;] -->
<g id="edge39" class="edge">
<title>PHYS248&#45;&gt;1 of [&#39;EOS325&#39;, &#39;MATH248&#39;, &#39;PHYS248&#39;]</title>
<path fill="none" stroke="black" d="M492.14,-75.59C509.69,-80.55 530.56,-86.46 544.26,-90.33"/>
<polygon fill="black" stroke="black" points="544.03,-92.08 549.32,-91.76 544.98,-88.72 544.03,-92.08"/>
</g>
<!-- EOS261 -->
<g id="node45" class="node">
<title>EOS261</title>
<path fill="#f5edc9" stroke="#030a10" d="M775,-142C775,-142 731,-142 731,-142 727.5,-142 724,-138.5 724,-135 724,-135 724,-128 724,-128 724,-124.5 727.5,-121 731,-121 731,-121 775,-121 775,-121 778.5,-121 782,-124.5 782,-128 782,-128 782,-135 782,-135 782,-138.5 778.5,-142 775,-142"/>
<text text-anchor="middle" x="753" y="-128.4" font-family="Times,serif" font-size="12.00">EOS261</text>
</g>
<!-- EOS261&#45;&gt;EOS460 -->
<g id="edge40" class="edge">
<title>EOS261&#45;&gt;EOS460</title>
<path fill="none" stroke="black" d="M782.1,-131.5C792.48,-131.5 804.34,-131.5 815.14,-131.5"/>
<polygon fill="black" stroke="black" points="815.35,-133.25 820.35,-131.5 815.35,-129.75 815.35,-133.25"/>
</g>
<!-- 1 of [&#39;BIOL150A&#39;, &#39;BIOL184&#39;] -->
<g id="node46" class="node">
<title>1 of [&#39;BIOL150A&#39;, &#39;BIOL184&#39;]</title>
<ellipse fill="#e9dbd0" stroke="#030a10" cx="560" cy="-38.5" rx="11" ry="11"/>
<text text-anchor="middle" x="560" y="-35.4" font-family="Times,serif" font-size="12.00">1</text>
</g>
<!-- 1 of [&#39;BIOL150A&#39;, &#39;BIOL184&#39;]&#45;&gt;EOS330 -->
<g id="edge42" class="edge">
<title>1 of [&#39;BIOL150A&#39;, &#39;BIOL184&#39;]&#45;&gt;EOS330</title>
<path fill="none" stroke="black" d="M571.11,-40.64C583.3,-43.22 604.39,-47.68 622.44,-51.5"/>
<polygon fill="black" stroke="black" points="622.18,-53.24 627.43,-52.56 622.91,-49.81 622.18,-53.24"/>
</g>
<!-- BIOL150A -->
<g id="node47" class="node">
<title>BIOL150A</title>
<path fill="#f5edc9" stroke="#030a10" d="M488,-49C488,-49 430,-49 430,-49 426.5,-49 423,-45.5 423,-42 423,-42 423,-35 423,-35 423,-31.5 426.5,-28 430,-28 430,-28 488,-28 488,-28 491.5,-28 495,-31.5 495,-35 495,-35 495,-42 495,-42 495,-45.5 491.5,-49 488,-49"/>
<text text-anchor="middle" x="459" y="-35.4" font-family="Times,serif" font-size="12.00">BIOL150A</text>
</g>
<!-- BIOL150A&#45;&gt;1 of [&#39;BIOL150A&#39;, &#39;BIOL184&#39;] -->
<g id="edge43" class="edge">
<title>BIOL150A&#45;&gt;1 of [&#39;BIOL150A&#39;, &#39;BIOL184&#39;]</title>
<path fill="none" stroke="black" d="M495.18,-38.5C511.72,-38.5 530.58,-38.5 543.49,-38.5"/>
<polygon fill="black" stroke="black" points="543.63,-40.25 548.63,-38.5 543.63,-36.75 543.63,-40.25"/>
</g>
<!-- BIOL184 -->
<g id="node48" class="node">
<title>BIOL184</title>
<path fill="#f5edc9" stroke="#030a10" d="M483.5,-21C483.5,-21 434.5,-21 434.5,-21 431,-21 427.5,-17.5 427.5,-14 427.5,-14 427.5,-7 427.5,-7 427.5,-3.5 431,0 434.5,0 434.5,0 483.5,0 483.5,0 487,0 490.5,-3.5 490.5,-7 490.5,-7 490.5,-14 490.5,-14 490.5,-17.5 487,-21 483.5,-21"/>
<text text-anchor="middle" x="459" y="-7.4" font-family="Times,serif" font-size="12.00">BIOL184</text>
</g>
<!-- BIOL184&#45;&gt;1 of [&#39;BIOL150A&#39;, &#39;BIOL184&#39;] -->
<g id="edge44" class="edge">
<title>BIOL184&#45;&gt;1 of [&#39;BIOL150A&#39;, &#39;BIOL184&#39;]</title>
<path fill="none" stroke="black" d="M490.51,-19.13C508.32,-24.17 530,-30.3 544.13,-34.29"/>
<polygon fill="black" stroke="black" points="543.69,-35.99 548.97,-35.66 544.64,-32.62 543.69,-35.99"/>
</g>
<!-- 1 of [&#39;MATH100&#39;, &#39;MATH102&#39;, &#39;MATH109&#39;]&#45;&gt;CHEM102 -->
<g id="edge46" class="edge">
<title>1 of [&#39;MATH100&#39;, &#39;MATH102&#39;, &#39;MATH109&#39;]&#45;&gt;CHEM102</title>
<path fill="none" stroke="black" d="M256.6,-318.36C269.54,-314.13 293.32,-306.36 313.78,-299.67"/>
<polygon fill="black" stroke="black" points="314.42,-301.3 318.63,-298.08 313.33,-297.97 314.42,-301.3"/>
</g>
<!-- 1 of [&#39;CHEM101&#39;, &#39;CHEM150&#39;]&#45;&gt;CHEM102 -->
<g id="edge51" class="edge">
<title>1 of [&#39;CHEM101&#39;, &#39;CHEM150&#39;]&#45;&gt;CHEM102</title>
<path fill="none" stroke="black" d="M257.35,-287.5C269.94,-287.5 291.92,-287.5 311.42,-287.5"/>
<polygon fill="black" stroke="black" points="311.85,-289.25 316.85,-287.5 311.85,-285.75 311.85,-289.25"/>
</g>
<!-- EOS202 -->
<g id="node51" class="node">
<title>EOS202</title>
<path fill="#f5edc9" stroke="#030a10" d="M582,-337C582,-337 538,-337 538,-337 534.5,-337 531,-333.5 531,-330 531,-330 531,-323 531,-323 531,-319.5 534.5,-316 538,-316 538,-316 582,-316 582,-316 585.5,-316 589,-319.5 589,-323 589,-323 589,-330 589,-330 589,-333.5 585.5,-337 582,-337"/>
<text text-anchor="middle" x="560" y="-323.4" font-family="Times,serif" font-size="12.00">EOS202</text>
</g>
<!-- EOS202&#45;&gt;EOS300 -->
<g id="edge56" class="edge">
<title>EOS202&#45;&gt;EOS300</title>
<path fill="none" stroke="black" d="M589.1,-333.04C599.57,-335.48 611.56,-338.27 622.44,-340.8"/>
<polygon fill="black" stroke="black" points="622.08,-342.52 627.35,-341.95 622.87,-339.11 622.08,-342.52"/>
</g>
<!-- 1 of [&#39;MATH202&#39;, &#39;MATH204&#39;] -->
<g id="node52" class="node">
<title>1 of [&#39;MATH202&#39;, &#39;MATH204&#39;]</title>
<ellipse fill="#e9dbd0" stroke="#030a10" cx="560" cy="-178.5" rx="11" ry="11"/>
<text text-anchor="middle" x="560" y="-175.4" font-family="Times,serif" font-size="12.00">1</text>
</g>
<!-- 1 of [&#39;MATH202&#39;, &#39;MATH204&#39;]&#45;&gt;EOS440 -->
<g id="edge59" class="edge">
<title>1 of [&#39;MATH202&#39;, &#39;MATH204&#39;]&#45;&gt;EOS440</title>
<path fill="none" stroke="black" d="M571.11,-178.18C583.3,-177.79 604.39,-177.12 622.44,-176.55"/>
<polygon fill="black" stroke="black" points="622.49,-178.3 627.43,-176.39 622.38,-174.8 622.49,-178.3"/>
</g>
<!-- MATH202 -->
<g id="node53" class="node">
<title>MATH202</title>
<path fill="#f5edc9" stroke="#030a10" d="M486.5,-217C486.5,-217 431.5,-217 431.5,-217 428,-217 424.5,-213.5 424.5,-210 424.5,-210 424.5,-203 424.5,-203 424.5,-199.5 428,-196 431.5,-196 431.5,-196 486.5,-196 486.5,-196 490,-196 493.5,-199.5 493.5,-203 493.5,-203 493.5,-210 493.5,-210 493.5,-213.5 490,-217 486.5,-217"/>
<text text-anchor="middle" x="459" y="-203.4" font-family="Times,serif" font-size="12.00">MATH202</text>
</g>
<!-- MATH202&#45;&gt;1 of [&#39;MATH202&#39;, &#39;MATH204&#39;] -->
<g id="edge60" class="edge">
<title>MATH202&#45;&gt;1 of [&#39;MATH202&#39;, &#39;MATH204&#39;]</title>
<path fill="none" stroke="black" d="M493.52,-197.02C510.75,-192.15 530.88,-186.45 544.22,-182.68"/>
<polygon fill="black" stroke="black" points="544.82,-184.33 549.16,-181.28 543.87,-180.96 544.82,-184.33"/>
</g>
<!-- MATH204 -->
<g id="node54" class="node">
<title>MATH204</title>
<path fill="#f5edc9" stroke="#030a10" d="M486.5,-189C486.5,-189 431.5,-189 431.5,-189 428,-189 424.5,-185.5 424.5,-182 424.5,-182 424.5,-175 424.5,-175 424.5,-171.5 428,-168 431.5,-168 431.5,-168 486.5,-168 486.5,-168 490,-168 493.5,-171.5 493.5,-175 493.5,-175 493.5,-182 493.5,-182 493.5,-185.5 490,-189 486.5,-189"/>
<text text-anchor="middle" x="459" y="-175.4" font-family="Times,serif" font-size="12.00">MATH204</text>
</g>
<!-- MATH204&#45;&gt;1 of [&#39;MATH202&#39;, &#39;MATH204&#39;] -->
<g id="edge61" class="edge">
<title>MATH204&#45;&gt;1 of [&#39;MATH202&#39;, &#39;MATH204&#39;]</title>
<path fill="none" stroke="black" d="M493.52,-178.5C510.4,-178.5 530.07,-178.5 543.41,-178.5"/>
<polygon fill="black" stroke="black" points="543.71,-180.25 548.71,-178.5 543.71,-176.75 543.71,-180.25"/>
</g>
</g>
</svg>
