<?xml version="1.0" encoding="UTF-8" standalone="no"?>
<!DOCTYPE svg PUBLIC "-//W3C//DTD SVG 1.1//EN"
 "http://www.w3.org/Graphics/SVG/1.1/DTD/svg11.dtd">
<!-- Generated by graphviz version 2.43.0 (0)
 -->
<!-- Title: unix Pages: 1 -->
<svg width="784pt" height="285pt"
 viewBox="0.00 0.00 784.00 284.50" xmlns="http://www.w3.org/2000/svg" xmlns:xlink="http://www.w3.org/1999/xlink">
<g id="graph0" class="graph" transform="scale(1 1) rotate(0) translate(4 280.5)">
<title>unix</title>
<polygon fill="white" stroke="transparent" points="-4,4 -4,-280.5 780,-280.5 780,4 -4,4"/>
<text text-anchor="middle" x="388" y="-261.3" font-family="Times,serif" font-size="14.00">EOS201: Sedimentology</text>
<!-- EOS420 -->
<g id="node1" class="node">
<title>EOS420</title>
<path fill="#e7a79b" stroke="#030a10" d="M573.5,-206.5C573.5,-206.5 529.5,-206.5 529.5,-206.5 526,-206.5 522.5,-203 522.5,-199.5 522.5,-199.5 522.5,-192.5 522.5,-192.5 522.5,-189 526,-185.5 529.5,-185.5 529.5,-185.5 573.5,-185.5 573.5,-185.5 577,-185.5 580.5,-189 580.5,-192.5 580.5,-192.5 580.5,-199.5 580.5,-199.5 580.5,-203 577,-206.5 573.5,-206.5"/>
<text text-anchor="middle" x="551.5" y="-192.9" font-family="Times,serif" font-size="12.00">EOS420</text>
</g>
<!-- EOS201 -->
<g id="node2" class="node">
<title>EOS201</title>
<path fill="#9fa7be" stroke="#030a10" d="M477,-156.5C477,-156.5 433,-156.5 433,-156.5 429.5,-156.5 426,-153 426,-149.5 426,-149.5 426,-142.5 426,-142.5 426,-139 429.5,-135.5 433,-135.5 433,-135.5 477,-135.5 477,-135.5 480.5,-135.5 484,-139 484,-142.5 484,-142.5 484,-149.5 484,-149.5 484,-153 480.5,-156.5 477,-156.5"/>
<text text-anchor="middle" x="455" y="-142.9" font-family="Times,serif" font-size="12.00">EOS201</text>
</g>
<!-- EOS201&#45;&gt;EOS420 -->
<g id="edge1" class="edge">
<title>EOS201&#45;&gt;EOS420</title>
<path fill="none" stroke="black" d="M477.48,-156.56C479.69,-157.7 481.9,-158.86 484,-160 500.29,-168.81 503.68,-172.24 520,-181 521.27,-181.68 522.57,-182.37 523.89,-183.05"/>
<polygon fill="black" stroke="black" points="523.17,-184.65 528.41,-185.37 524.76,-181.53 523.17,-184.65"/>
</g>
<!-- EOS423 -->
<g id="node6" class="node">
<title>EOS423</title>
<path fill="#e7a79b" stroke="#030a10" d="M573.5,-178.5C573.5,-178.5 529.5,-178.5 529.5,-178.5 526,-178.5 522.5,-175 522.5,-171.5 522.5,-171.5 522.5,-164.5 522.5,-164.5 522.5,-161 526,-157.5 529.5,-157.5 529.5,-157.5 573.5,-157.5 573.5,-157.5 577,-157.5 580.5,-161 580.5,-164.5 580.5,-164.5 580.5,-171.5 580.5,-171.5 580.5,-175 577,-178.5 573.5,-178.5"/>
<text text-anchor="middle" x="551.5" y="-164.9" font-family="Times,serif" font-size="12.00">EOS423</text>
</g>
<!-- EOS201&#45;&gt;EOS423 -->
<g id="edge9" class="edge">
<title>EOS201&#45;&gt;EOS423</title>
<path fill="none" stroke="black" d="M484.1,-152.54C494.57,-154.98 506.56,-157.77 517.44,-160.3"/>
<polygon fill="black" stroke="black" points="517.08,-162.02 522.35,-161.45 517.87,-158.61 517.08,-162.02"/>
</g>
<!-- EOS330 -->
<g id="node7" class="node">
<title>EOS330</title>
<path fill="#e7a79b" stroke="#030a10" d="M573.5,-50.5C573.5,-50.5 529.5,-50.5 529.5,-50.5 526,-50.5 522.5,-47 522.5,-43.5 522.5,-43.5 522.5,-36.5 522.5,-36.5 522.5,-33 526,-29.5 529.5,-29.5 529.5,-29.5 573.5,-29.5 573.5,-29.5 577,-29.5 580.5,-33 580.5,-36.5 580.5,-36.5 580.5,-43.5 580.5,-43.5 580.5,-47 577,-50.5 573.5,-50.5"/>
<text text-anchor="middle" x="551.5" y="-36.9" font-family="Times,serif" font-size="12.00">EOS330</text>
</g>
<!-- EOS201&#45;&gt;EOS330 -->
<g id="edge16" class="edge">
<title>EOS201&#45;&gt;EOS330</title>
<path fill="none" stroke="black" d="M467,-135.41C472.43,-129.89 478.9,-122.87 484,-116 502.99,-90.41 496.42,-75.43 520,-54 520.09,-53.92 520.17,-53.84 520.26,-53.77"/>
<polygon fill="black" stroke="black" points="521.58,-54.95 524.48,-50.52 519.45,-52.18 521.58,-54.95"/>
</g>
<!-- EOS408 -->
<g id="node11" class="node">
<title>EOS408</title>
<path fill="#e7a79b" stroke="#030a10" d="M670,-228.5C670,-228.5 626,-228.5 626,-228.5 622.5,-228.5 619,-225 619,-221.5 619,-221.5 619,-214.5 619,-214.5 619,-211 622.5,-207.5 626,-207.5 626,-207.5 670,-207.5 670,-207.5 673.5,-207.5 677,-211 677,-214.5 677,-214.5 677,-221.5 677,-221.5 677,-225 673.5,-228.5 670,-228.5"/>
<text text-anchor="middle" x="648" y="-214.9" font-family="Times,serif" font-size="12.00">EOS408</text>
</g>
<!-- EOS201&#45;&gt;EOS408 -->
<g id="edge30" class="edge">
<title>EOS201&#45;&gt;EOS408</title>
<path fill="none" stroke="black" d="M484.11,-142.26C510.78,-139.95 551.39,-139.73 583,-154 606.43,-164.58 626.05,-187.78 637.17,-203.15"/>
<polygon fill="black" stroke="black" points="635.76,-204.18 640.07,-207.25 638.61,-202.16 635.76,-204.18"/>
</g>
<!-- EOS300 -->
<g id="node12" class="node">
<title>EOS300</title>
<path fill="#e7a79b" stroke="#030a10" d="M573.5,-134.5C573.5,-134.5 529.5,-134.5 529.5,-134.5 526,-134.5 522.5,-131 522.5,-127.5 522.5,-127.5 522.5,-120.5 522.5,-120.5 522.5,-117 526,-113.5 529.5,-113.5 529.5,-113.5 573.5,-113.5 573.5,-113.5 577,-113.5 580.5,-117 580.5,-120.5 580.5,-120.5 580.5,-127.5 580.5,-127.5 580.5,-131 577,-134.5 573.5,-134.5"/>
<text text-anchor="middle" x="551.5" y="-120.9" font-family="Times,serif" font-size="12.00">EOS300</text>
</g>
<!-- EOS201&#45;&gt;EOS300 -->
<g id="edge34" class="edge">
<title>EOS201&#45;&gt;EOS300</title>
<path fill="none" stroke="black" d="M484.1,-139.46C494.57,-137.02 506.56,-134.23 517.44,-131.7"/>
<polygon fill="black" stroke="black" points="517.87,-133.39 522.35,-130.55 517.08,-129.98 517.87,-133.39"/>
</g>
<!-- 1 of [&#39;EOS201&#39;, &#39;EOS240&#39;] -->
<g id="node30" class="node">
<title>1 of [&#39;EOS201&#39;, &#39;EOS240&#39;]</title>
<ellipse fill="#e9dbd0" stroke="#030a10" cx="551.5" cy="-11" rx="11" ry="11"/>
<text text-anchor="middle" x="551.5" y="-7.9" font-family="Times,serif" font-size="12.00">1</text>
</g>
<!-- EOS201&#45;&gt;1 of [&#39;EOS201&#39;, &#39;EOS240&#39;] -->
<g id="edge26" class="edge">
<title>EOS201&#45;&gt;1 of [&#39;EOS201&#39;, &#39;EOS240&#39;]</title>
<path fill="none" stroke="black" d="M467.71,-135.43C473.19,-130.03 479.49,-123.1 484,-116 507.09,-79.63 490.73,-57.61 520,-26 524.24,-21.43 530.17,-18.07 535.68,-15.71"/>
<polygon fill="black" stroke="black" points="536.53,-17.26 540.56,-13.81 535.27,-13.99 536.53,-17.26"/>
</g>
<!-- EOS321 -->
<g id="node3" class="node">
<title>EOS321</title>
<path fill="#f5edc9" stroke="#030a10" d="M670,-113.5C670,-113.5 626,-113.5 626,-113.5 622.5,-113.5 619,-110 619,-106.5 619,-106.5 619,-99.5 619,-99.5 619,-96 622.5,-92.5 626,-92.5 626,-92.5 670,-92.5 670,-92.5 673.5,-92.5 677,-96 677,-99.5 677,-99.5 677,-106.5 677,-106.5 677,-110 673.5,-113.5 670,-113.5"/>
<text text-anchor="middle" x="648" y="-99.9" font-family="Times,serif" font-size="12.00">EOS321</text>
</g>
<!-- EOS120 -->
<g id="node4" class="node">
<title>EOS120</title>
<path fill="#e7a79b" stroke="#030a10" d="M269,-156.5C269,-156.5 225,-156.5 225,-156.5 221.5,-156.5 218,-153 218,-149.5 218,-149.5 218,-142.5 218,-142.5 218,-139 221.5,-135.5 225,-135.5 225,-135.5 269,-135.5 269,-135.5 272.5,-135.5 276,-139 276,-142.5 276,-142.5 276,-149.5 276,-149.5 276,-153 272.5,-156.5 269,-156.5"/>
<text text-anchor="middle" x="247" y="-142.9" font-family="Times,serif" font-size="12.00">EOS120</text>
</g>
<!-- EOS120&#45;&gt;EOS201 -->
<g id="edge3" class="edge">
<title>EOS120&#45;&gt;EOS201</title>
<path fill="none" stroke="black" d="M276.21,-146C313.86,-146 380.43,-146 420.56,-146"/>
<polygon fill="black" stroke="black" points="420.8,-147.75 425.8,-146 420.8,-144.25 420.8,-147.75"/>
</g>
<!-- EOS205 -->
<g id="node5" class="node">
<title>EOS205</title>
<path fill="#e7a79b" stroke="#030a10" d="M376,-134.5C376,-134.5 332,-134.5 332,-134.5 328.5,-134.5 325,-131 325,-127.5 325,-127.5 325,-120.5 325,-120.5 325,-117 328.5,-113.5 332,-113.5 332,-113.5 376,-113.5 376,-113.5 379.5,-113.5 383,-117 383,-120.5 383,-120.5 383,-127.5 383,-127.5 383,-131 379.5,-134.5 376,-134.5"/>
<text text-anchor="middle" x="354" y="-120.9" font-family="Times,serif" font-size="12.00">EOS205</text>
</g>
<!-- EOS120&#45;&gt;EOS205 -->
<g id="edge7" class="edge">
<title>EOS120&#45;&gt;EOS205</title>
<path fill="none" stroke="black" d="M276.14,-140.1C289.56,-137.29 305.7,-133.91 319.72,-130.97"/>
<polygon fill="black" stroke="black" points="320.25,-132.65 324.78,-129.91 319.53,-129.22 320.25,-132.65"/>
</g>
<!-- EOS205&#45;&gt;EOS201 -->
<g id="edge4" class="edge">
<title>EOS205&#45;&gt;EOS201</title>
<path fill="none" stroke="black" d="M383.1,-130.25C394.81,-132.85 408.49,-135.89 420.69,-138.6"/>
<polygon fill="black" stroke="black" points="420.56,-140.36 425.83,-139.74 421.32,-136.95 420.56,-140.36"/>
</g>
<!-- EOS205&#45;&gt;EOS300 -->
<g id="edge36" class="edge">
<title>EOS205&#45;&gt;EOS300</title>
<path fill="none" stroke="black" d="M383.01,-124C418.33,-124 479,-124 516.82,-124"/>
<polygon fill="black" stroke="black" points="517.22,-125.75 522.22,-124 517.22,-122.25 517.22,-125.75"/>
</g>
<!-- 1 of [&#39;BIOL215&#39;, &#39;EOS330&#39;] -->
<g id="node35" class="node">
<title>1 of [&#39;BIOL215&#39;, &#39;EOS330&#39;]</title>
<ellipse fill="#e9dbd0" stroke="#030a10" cx="648" cy="-61" rx="11" ry="11"/>
<text text-anchor="middle" x="648" y="-57.9" font-family="Times,serif" font-size="12.00">1</text>
</g>
<!-- EOS330&#45;&gt;1 of [&#39;BIOL215&#39;, &#39;EOS330&#39;] -->
<g id="edge39" class="edge">
<title>EOS330&#45;&gt;1 of [&#39;BIOL215&#39;, &#39;EOS330&#39;]</title>
<path fill="none" stroke="black" d="M580.6,-46.24C597.5,-50 618.35,-54.63 632.12,-57.69"/>
<polygon fill="black" stroke="black" points="631.95,-59.45 637.21,-58.82 632.71,-56.03 631.95,-59.45"/>
</g>
<!-- CHEM102 -->
<g id="node8" class="node">
<title>CHEM102</title>
<path fill="#f5edc9" stroke="#030a10" d="M275,-128.5C275,-128.5 219,-128.5 219,-128.5 215.5,-128.5 212,-125 212,-121.5 212,-121.5 212,-114.5 212,-114.5 212,-111 215.5,-107.5 219,-107.5 219,-107.5 275,-107.5 275,-107.5 278.5,-107.5 282,-111 282,-114.5 282,-114.5 282,-121.5 282,-121.5 282,-125 278.5,-128.5 275,-128.5"/>
<text text-anchor="middle" x="247" y="-114.9" font-family="Times,serif" font-size="12.00">CHEM102</text>
</g>
<!-- CHEM102&#45;&gt;EOS205 -->
<g id="edge8" class="edge">
<title>CHEM102&#45;&gt;EOS205</title>
<path fill="none" stroke="black" d="M282.09,-119.95C294.14,-120.64 307.67,-121.41 319.66,-122.1"/>
<polygon fill="black" stroke="black" points="319.61,-123.84 324.7,-122.38 319.8,-120.35 319.61,-123.84"/>
</g>
<!-- EOS450 -->
<g id="node9" class="node">
<title>EOS450</title>
<path fill="#e7a79b" stroke="#030a10" d="M670,-21.5C670,-21.5 626,-21.5 626,-21.5 622.5,-21.5 619,-18 619,-14.5 619,-14.5 619,-7.5 619,-7.5 619,-4 622.5,-0.5 626,-0.5 626,-0.5 670,-0.5 670,-0.5 673.5,-0.5 677,-4 677,-7.5 677,-7.5 677,-14.5 677,-14.5 677,-18 673.5,-21.5 670,-21.5"/>
<text text-anchor="middle" x="648" y="-7.9" font-family="Times,serif" font-size="12.00">EOS450</text>
</g>
<!-- EOS400 -->
<g id="node10" class="node">
<title>EOS400</title>
<path fill="#f5edc9" stroke="#030a10" d="M670,-156.5C670,-156.5 626,-156.5 626,-156.5 622.5,-156.5 619,-153 619,-149.5 619,-149.5 619,-142.5 619,-142.5 619,-139 622.5,-135.5 626,-135.5 626,-135.5 670,-135.5 670,-135.5 673.5,-135.5 677,-139 677,-142.5 677,-142.5 677,-149.5 677,-149.5 677,-153 673.5,-156.5 670,-156.5"/>
<text text-anchor="middle" x="648" y="-142.9" font-family="Times,serif" font-size="12.00">EOS400</text>
</g>
<!-- EOS300&#45;&gt;EOS321 -->
<g id="edge6" class="edge">
<title>EOS300&#45;&gt;EOS321</title>
<path fill="none" stroke="black" d="M580.6,-117.76C591.07,-115.43 603.06,-112.77 613.94,-110.35"/>
<polygon fill="black" stroke="black" points="614.35,-112.05 618.85,-109.26 613.59,-108.63 614.35,-112.05"/>
</g>
<!-- EOS300&#45;&gt;EOS400 -->
<g id="edge28" class="edge">
<title>EOS300&#45;&gt;EOS400</title>
<path fill="none" stroke="black" d="M580.6,-130.54C591.07,-132.98 603.06,-135.77 613.94,-138.3"/>
<polygon fill="black" stroke="black" points="613.58,-140.02 618.85,-139.45 614.37,-136.61 613.58,-140.02"/>
</g>
<!-- BIOL457 -->
<g id="node13" class="node">
<title>BIOL457</title>
<path fill="#f5edc9" stroke="#030a10" d="M769,-71.5C769,-71.5 720,-71.5 720,-71.5 716.5,-71.5 713,-68 713,-64.5 713,-64.5 713,-57.5 713,-57.5 713,-54 716.5,-50.5 720,-50.5 720,-50.5 769,-50.5 769,-50.5 772.5,-50.5 776,-54 776,-57.5 776,-57.5 776,-64.5 776,-64.5 776,-68 772.5,-71.5 769,-71.5"/>
<text text-anchor="middle" x="744.5" y="-57.9" font-family="Times,serif" font-size="12.00">BIOL457</text>
</g>
<!-- EOS316 -->
<g id="node14" class="node">
<title>EOS316</title>
<path fill="#f5edc9" stroke="#030a10" d="M477,-225.5C477,-225.5 433,-225.5 433,-225.5 429.5,-225.5 426,-222 426,-218.5 426,-218.5 426,-211.5 426,-211.5 426,-208 429.5,-204.5 433,-204.5 433,-204.5 477,-204.5 477,-204.5 480.5,-204.5 484,-208 484,-211.5 484,-211.5 484,-218.5 484,-218.5 484,-222 480.5,-225.5 477,-225.5"/>
<text text-anchor="middle" x="455" y="-211.9" font-family="Times,serif" font-size="12.00">EOS316</text>
</g>
<!-- EOS316&#45;&gt;EOS420 -->
<g id="edge2" class="edge">
<title>EOS316&#45;&gt;EOS420</title>
<path fill="none" stroke="black" d="M484.1,-209.35C494.57,-207.24 506.56,-204.84 517.44,-202.65"/>
<polygon fill="black" stroke="black" points="517.79,-204.36 522.35,-201.66 517.1,-200.93 517.79,-204.36"/>
</g>
<!-- EOS316&#45;&gt;EOS400 -->
<g id="edge29" class="edge">
<title>EOS316&#45;&gt;EOS400</title>
<path fill="none" stroke="black" d="M484.05,-219.56C510.69,-222.62 551.26,-223.88 583,-210 606.69,-199.64 626.36,-176.16 637.4,-160.7"/>
<polygon fill="black" stroke="black" points="638.85,-161.68 640.28,-156.58 635.98,-159.68 638.85,-161.68"/>
</g>
<!-- 1 of [&#39;EOS310&#39;, &#39;EOS316&#39;] -->
<g id="node32" class="node">
<title>1 of [&#39;EOS310&#39;, &#39;EOS316&#39;]</title>
<ellipse fill="#e9dbd0" stroke="#030a10" cx="551.5" cy="-240" rx="11" ry="11"/>
<text text-anchor="middle" x="551.5" y="-236.9" font-family="Times,serif" font-size="12.00">1</text>
</g>
<!-- EOS316&#45;&gt;1 of [&#39;EOS310&#39;, &#39;EOS316&#39;] -->
<g id="edge33" class="edge">
<title>EOS316&#45;&gt;1 of [&#39;EOS310&#39;, &#39;EOS316&#39;]</title>
<path fill="none" stroke="black" d="M484.1,-222.43C501,-226.91 521.85,-232.42 535.62,-236.06"/>
<polygon fill="black" stroke="black" points="535.43,-237.82 540.71,-237.41 536.32,-234.44 535.43,-237.82"/>
</g>
<!-- EOS210 -->
<g id="node15" class="node">
<title>EOS210</title>
<path fill="#f5edc9" stroke="#030a10" d="M573.5,-106.5C573.5,-106.5 529.5,-106.5 529.5,-106.5 526,-106.5 522.5,-103 522.5,-99.5 522.5,-99.5 522.5,-92.5 522.5,-92.5 522.5,-89 526,-85.5 529.5,-85.5 529.5,-85.5 573.5,-85.5 573.5,-85.5 577,-85.5 580.5,-89 580.5,-92.5 580.5,-92.5 580.5,-99.5 580.5,-99.5 580.5,-103 577,-106.5 573.5,-106.5"/>
<text text-anchor="middle" x="551.5" y="-92.9" font-family="Times,serif" font-size="12.00">EOS210</text>
</g>
<!-- EOS210&#45;&gt;EOS321 -->
<g id="edge5" class="edge">
<title>EOS210&#45;&gt;EOS321</title>
<path fill="none" stroke="black" d="M580.6,-98.08C590.98,-98.85 602.84,-99.73 613.64,-100.53"/>
<polygon fill="black" stroke="black" points="613.73,-102.29 618.85,-100.91 613.99,-98.8 613.73,-102.29"/>
</g>
<!-- 1 of [&#39;EOS225&#39;, &#39;EOS325&#39;] -->
<g id="node16" class="node">
<title>1 of [&#39;EOS225&#39;, &#39;EOS325&#39;]</title>
<ellipse fill="#e9dbd0" stroke="#030a10" cx="455" cy="-175" rx="11" ry="11"/>
<text text-anchor="middle" x="455" y="-171.9" font-family="Times,serif" font-size="12.00">1</text>
</g>
<!-- 1 of [&#39;EOS225&#39;, &#39;EOS325&#39;]&#45;&gt;EOS423 -->
<g id="edge10" class="edge">
<title>1 of [&#39;EOS225&#39;, &#39;EOS325&#39;]&#45;&gt;EOS423</title>
<path fill="none" stroke="black" d="M466.11,-174.25C478.3,-173.35 499.39,-171.79 517.44,-170.45"/>
<polygon fill="black" stroke="black" points="517.58,-172.19 522.43,-170.08 517.32,-168.7 517.58,-172.19"/>
</g>
<!-- EOS225 -->
<g id="node17" class="node">
<title>EOS225</title>
<path fill="#f5edc9" stroke="#030a10" d="M376,-209.5C376,-209.5 332,-209.5 332,-209.5 328.5,-209.5 325,-206 325,-202.5 325,-202.5 325,-195.5 325,-195.5 325,-192 328.5,-188.5 332,-188.5 332,-188.5 376,-188.5 376,-188.5 379.5,-188.5 383,-192 383,-195.5 383,-195.5 383,-202.5 383,-202.5 383,-206 379.5,-209.5 376,-209.5"/>
<text text-anchor="middle" x="354" y="-195.9" font-family="Times,serif" font-size="12.00">EOS225</text>
</g>
<!-- EOS225&#45;&gt;1 of [&#39;EOS225&#39;, &#39;EOS325&#39;] -->
<g id="edge11" class="edge">
<title>EOS225&#45;&gt;1 of [&#39;EOS225&#39;, &#39;EOS325&#39;]</title>
<path fill="none" stroke="black" d="M383.1,-192.19C401.23,-187.79 424.09,-182.25 438.88,-178.67"/>
<polygon fill="black" stroke="black" points="439.49,-180.32 443.93,-177.44 438.66,-176.92 439.49,-180.32"/>
</g>
<!-- EOS325 -->
<g id="node18" class="node">
<title>EOS325</title>
<path fill="#f5edc9" stroke="#030a10" d="M376,-181.5C376,-181.5 332,-181.5 332,-181.5 328.5,-181.5 325,-178 325,-174.5 325,-174.5 325,-167.5 325,-167.5 325,-164 328.5,-160.5 332,-160.5 332,-160.5 376,-160.5 376,-160.5 379.5,-160.5 383,-164 383,-167.5 383,-167.5 383,-174.5 383,-174.5 383,-178 379.5,-181.5 376,-181.5"/>
<text text-anchor="middle" x="354" y="-167.9" font-family="Times,serif" font-size="12.00">EOS325</text>
</g>
<!-- EOS325&#45;&gt;1 of [&#39;EOS225&#39;, &#39;EOS325&#39;] -->
<g id="edge12" class="edge">
<title>EOS325&#45;&gt;1 of [&#39;EOS225&#39;, &#39;EOS325&#39;]</title>
<path fill="none" stroke="black" d="M383.1,-172.14C401.23,-172.87 424.09,-173.79 438.88,-174.39"/>
<polygon fill="black" stroke="black" points="438.87,-176.14 443.93,-174.59 439.01,-172.64 438.87,-176.14"/>
</g>
<!-- 1 of [&#39;BIOL150A&#39;, &#39;BIOL184&#39;] -->
<g id="node19" class="node">
<title>1 of [&#39;BIOL150A&#39;, &#39;BIOL184&#39;]</title>
<ellipse fill="#e9dbd0" stroke="#030a10" cx="455" cy="-40" rx="11" ry="11"/>
<text text-anchor="middle" x="455" y="-36.9" font-family="Times,serif" font-size="12.00">1</text>
</g>
<!-- 1 of [&#39;BIOL150A&#39;, &#39;BIOL184&#39;]&#45;&gt;EOS330 -->
<g id="edge13" class="edge">
<title>1 of [&#39;BIOL150A&#39;, &#39;BIOL184&#39;]&#45;&gt;EOS330</title>
<path fill="none" stroke="black" d="M466.11,-40C478.2,-40 499.03,-40 516.97,-40"/>
<polygon fill="black" stroke="black" points="517.43,-41.75 522.43,-40 517.43,-38.25 517.43,-41.75"/>
</g>
<!-- BIOL150A -->
<g id="node20" class="node">
<title>BIOL150A</title>
<path fill="#f5edc9" stroke="#030a10" d="M383,-64.5C383,-64.5 325,-64.5 325,-64.5 321.5,-64.5 318,-61 318,-57.5 318,-57.5 318,-50.5 318,-50.5 318,-47 321.5,-43.5 325,-43.5 325,-43.5 383,-43.5 383,-43.5 386.5,-43.5 390,-47 390,-50.5 390,-50.5 390,-57.5 390,-57.5 390,-61 386.5,-64.5 383,-64.5"/>
<text text-anchor="middle" x="354" y="-50.9" font-family="Times,serif" font-size="12.00">BIOL150A</text>
</g>
<!-- BIOL150A&#45;&gt;1 of [&#39;BIOL150A&#39;, &#39;BIOL184&#39;] -->
<g id="edge14" class="edge">
<title>BIOL150A&#45;&gt;1 of [&#39;BIOL150A&#39;, &#39;BIOL184&#39;]</title>
<path fill="none" stroke="black" d="M390.18,-49.02C406.91,-46.66 426.03,-43.96 438.94,-42.13"/>
<polygon fill="black" stroke="black" points="439.37,-43.84 444.07,-41.4 438.88,-40.37 439.37,-43.84"/>
</g>
<!-- BIOL184 -->
<g id="node21" class="node">
<title>BIOL184</title>
<path fill="#f5edc9" stroke="#030a10" d="M378.5,-36.5C378.5,-36.5 329.5,-36.5 329.5,-36.5 326,-36.5 322.5,-33 322.5,-29.5 322.5,-29.5 322.5,-22.5 322.5,-22.5 322.5,-19 326,-15.5 329.5,-15.5 329.5,-15.5 378.5,-15.5 378.5,-15.5 382,-15.5 385.5,-19 385.5,-22.5 385.5,-22.5 385.5,-29.5 385.5,-29.5 385.5,-33 382,-36.5 378.5,-36.5"/>
<text text-anchor="middle" x="354" y="-22.9" font-family="Times,serif" font-size="12.00">BIOL184</text>
</g>
<!-- BIOL184&#45;&gt;1 of [&#39;BIOL150A&#39;, &#39;BIOL184&#39;] -->
<g id="edge15" class="edge">
<title>BIOL184&#45;&gt;1 of [&#39;BIOL150A&#39;, &#39;BIOL184&#39;]</title>
<path fill="none" stroke="black" d="M385.51,-30.31C403.17,-32.81 424.62,-35.85 438.76,-37.84"/>
<polygon fill="black" stroke="black" points="438.78,-39.61 443.97,-38.58 439.27,-36.15 438.78,-39.61"/>
</g>
<!-- 1 of [&#39;MATH100&#39;, &#39;MATH102&#39;, &#39;MATH109&#39;] -->
<g id="node22" class="node">
<title>1 of [&#39;MATH100&#39;, &#39;MATH102&#39;, &#39;MATH109&#39;]</title>
<ellipse fill="#e9dbd0" stroke="#030a10" cx="141" cy="-147" rx="11" ry="11"/>
<text text-anchor="middle" x="141" y="-143.9" font-family="Times,serif" font-size="12.00">1</text>
</g>
<!-- 1 of [&#39;MATH100&#39;, &#39;MATH102&#39;, &#39;MATH109&#39;]&#45;&gt;CHEM102 -->
<g id="edge17" class="edge">
<title>1 of [&#39;MATH100&#39;, &#39;MATH102&#39;, &#39;MATH109&#39;]&#45;&gt;CHEM102</title>
<path fill="none" stroke="black" d="M151.97,-144.22C164.53,-140.72 186.87,-134.49 206.61,-128.98"/>
<polygon fill="black" stroke="black" points="207.23,-130.63 211.57,-127.6 206.29,-127.26 207.23,-130.63"/>
</g>
<!-- MATH100 -->
<g id="node23" class="node">
<title>MATH100</title>
<path fill="#f5edc9" stroke="#030a10" d="M62.5,-185.5C62.5,-185.5 7.5,-185.5 7.5,-185.5 4,-185.5 0.5,-182 0.5,-178.5 0.5,-178.5 0.5,-171.5 0.5,-171.5 0.5,-168 4,-164.5 7.5,-164.5 7.5,-164.5 62.5,-164.5 62.5,-164.5 66,-164.5 69.5,-168 69.5,-171.5 69.5,-171.5 69.5,-178.5 69.5,-178.5 69.5,-182 66,-185.5 62.5,-185.5"/>
<text text-anchor="middle" x="35" y="-171.9" font-family="Times,serif" font-size="12.00">MATH100</text>
</g>
<!-- MATH100&#45;&gt;1 of [&#39;MATH100&#39;, &#39;MATH102&#39;, &#39;MATH109&#39;] -->
<g id="edge18" class="edge">
<title>MATH100&#45;&gt;1 of [&#39;MATH100&#39;, &#39;MATH102&#39;, &#39;MATH109&#39;]</title>
<path fill="none" stroke="black" d="M69.77,-165.91C88.57,-160.85 111.02,-154.8 125.39,-150.93"/>
<polygon fill="black" stroke="black" points="125.92,-152.6 130.29,-149.61 125.01,-149.22 125.92,-152.6"/>
</g>
<!-- MATH102 -->
<g id="node24" class="node">
<title>MATH102</title>
<path fill="#f5edc9" stroke="#030a10" d="M62.5,-157.5C62.5,-157.5 7.5,-157.5 7.5,-157.5 4,-157.5 0.5,-154 0.5,-150.5 0.5,-150.5 0.5,-143.5 0.5,-143.5 0.5,-140 4,-136.5 7.5,-136.5 7.5,-136.5 62.5,-136.5 62.5,-136.5 66,-136.5 69.5,-140 69.5,-143.5 69.5,-143.5 69.5,-150.5 69.5,-150.5 69.5,-154 66,-157.5 62.5,-157.5"/>
<text text-anchor="middle" x="35" y="-143.9" font-family="Times,serif" font-size="12.00">MATH102</text>
</g>
<!-- MATH102&#45;&gt;1 of [&#39;MATH100&#39;, &#39;MATH102&#39;, &#39;MATH109&#39;] -->
<g id="edge19" class="edge">
<title>MATH102&#45;&gt;1 of [&#39;MATH100&#39;, &#39;MATH102&#39;, &#39;MATH109&#39;]</title>
<path fill="none" stroke="black" d="M69.77,-147C88.2,-147 110.13,-147 124.52,-147"/>
<polygon fill="black" stroke="black" points="124.83,-148.75 129.83,-147 124.83,-145.25 124.83,-148.75"/>
</g>
<!-- MATH109 -->
<g id="node25" class="node">
<title>MATH109</title>
<path fill="#f5edc9" stroke="#030a10" d="M62.5,-129.5C62.5,-129.5 7.5,-129.5 7.5,-129.5 4,-129.5 0.5,-126 0.5,-122.5 0.5,-122.5 0.5,-115.5 0.5,-115.5 0.5,-112 4,-108.5 7.5,-108.5 7.5,-108.5 62.5,-108.5 62.5,-108.5 66,-108.5 69.5,-112 69.5,-115.5 69.5,-115.5 69.5,-122.5 69.5,-122.5 69.5,-126 66,-129.5 62.5,-129.5"/>
<text text-anchor="middle" x="35" y="-115.9" font-family="Times,serif" font-size="12.00">MATH109</text>
</g>
<!-- MATH109&#45;&gt;1 of [&#39;MATH100&#39;, &#39;MATH102&#39;, &#39;MATH109&#39;] -->
<g id="edge20" class="edge">
<title>MATH109&#45;&gt;1 of [&#39;MATH100&#39;, &#39;MATH102&#39;, &#39;MATH109&#39;]</title>
<path fill="none" stroke="black" d="M69.77,-128.09C88.57,-133.15 111.02,-139.2 125.39,-143.07"/>
<polygon fill="black" stroke="black" points="125.01,-144.78 130.29,-144.39 125.92,-141.4 125.01,-144.78"/>
</g>
<!-- CHEM091 -->
<g id="node26" class="node">
<title>CHEM091</title>
<path fill="#f5edc9" stroke="#030a10" d="M169,-128.5C169,-128.5 113,-128.5 113,-128.5 109.5,-128.5 106,-125 106,-121.5 106,-121.5 106,-114.5 106,-114.5 106,-111 109.5,-107.5 113,-107.5 113,-107.5 169,-107.5 169,-107.5 172.5,-107.5 176,-111 176,-114.5 176,-114.5 176,-121.5 176,-121.5 176,-125 172.5,-128.5 169,-128.5"/>
<text text-anchor="middle" x="141" y="-114.9" font-family="Times,serif" font-size="12.00">CHEM091</text>
</g>
<!-- CHEM091&#45;&gt;CHEM102 -->
<g id="edge21" class="edge">
<title>CHEM091&#45;&gt;CHEM102</title>
<path fill="none" stroke="black" d="M176.05,-118C185.84,-118 196.59,-118 206.67,-118"/>
<polygon fill="black" stroke="black" points="206.87,-119.75 211.87,-118 206.87,-116.25 206.87,-119.75"/>
</g>
<!-- 1 of [&#39;CHEM101&#39;, &#39;CHEM150&#39;] -->
<g id="node27" class="node">
<title>1 of [&#39;CHEM101&#39;, &#39;CHEM150&#39;]</title>
<ellipse fill="#e9dbd0" stroke="#030a10" cx="141" cy="-89" rx="11" ry="11"/>
<text text-anchor="middle" x="141" y="-85.9" font-family="Times,serif" font-size="12.00">1</text>
</g>
<!-- 1 of [&#39;CHEM101&#39;, &#39;CHEM150&#39;]&#45;&gt;CHEM102 -->
<g id="edge22" class="edge">
<title>1 of [&#39;CHEM101&#39;, &#39;CHEM150&#39;]&#45;&gt;CHEM102</title>
<path fill="none" stroke="black" d="M151.97,-91.78C164.53,-95.28 186.87,-101.51 206.61,-107.02"/>
<polygon fill="black" stroke="black" points="206.29,-108.74 211.57,-108.4 207.23,-105.37 206.29,-108.74"/>
</g>
<!-- CHEM101 -->
<g id="node28" class="node">
<title>CHEM101</title>
<path fill="#f5edc9" stroke="#030a10" d="M63,-72.5C63,-72.5 7,-72.5 7,-72.5 3.5,-72.5 0,-69 0,-65.5 0,-65.5 0,-58.5 0,-58.5 0,-55 3.5,-51.5 7,-51.5 7,-51.5 63,-51.5 63,-51.5 66.5,-51.5 70,-55 70,-58.5 70,-58.5 70,-65.5 70,-65.5 70,-69 66.5,-72.5 63,-72.5"/>
<text text-anchor="middle" x="35" y="-58.9" font-family="Times,serif" font-size="12.00">CHEM101</text>
</g>
<!-- CHEM101&#45;&gt;1 of [&#39;CHEM101&#39;, &#39;CHEM150&#39;] -->
<g id="edge23" class="edge">
<title>CHEM101&#45;&gt;1 of [&#39;CHEM101&#39;, &#39;CHEM150&#39;]</title>
<path fill="none" stroke="black" d="M70.05,-70.84C88.63,-75.66 110.68,-81.39 124.99,-85.1"/>
<polygon fill="black" stroke="black" points="124.61,-86.81 129.89,-86.37 125.49,-83.42 124.61,-86.81"/>
</g>
<!-- CHEM150 -->
<g id="node29" class="node">
<title>CHEM150</title>
<path fill="#f5edc9" stroke="#030a10" d="M63,-100.5C63,-100.5 7,-100.5 7,-100.5 3.5,-100.5 0,-97 0,-93.5 0,-93.5 0,-86.5 0,-86.5 0,-83 3.5,-79.5 7,-79.5 7,-79.5 63,-79.5 63,-79.5 66.5,-79.5 70,-83 70,-86.5 70,-86.5 70,-93.5 70,-93.5 70,-97 66.5,-100.5 63,-100.5"/>
<text text-anchor="middle" x="35" y="-86.9" font-family="Times,serif" font-size="12.00">CHEM150</text>
</g>
<!-- CHEM150&#45;&gt;1 of [&#39;CHEM101&#39;, &#39;CHEM150&#39;] -->
<g id="edge24" class="edge">
<title>CHEM150&#45;&gt;1 of [&#39;CHEM101&#39;, &#39;CHEM150&#39;]</title>
<path fill="none" stroke="black" d="M70.05,-89.67C88.46,-89.5 110.29,-89.29 124.61,-89.15"/>
<polygon fill="black" stroke="black" points="124.9,-90.9 129.89,-89.1 124.87,-87.4 124.9,-90.9"/>
</g>
<!-- 1 of [&#39;EOS201&#39;, &#39;EOS240&#39;]&#45;&gt;EOS450 -->
<g id="edge25" class="edge">
<title>1 of [&#39;EOS201&#39;, &#39;EOS240&#39;]&#45;&gt;EOS450</title>
<path fill="none" stroke="black" d="M562.61,-11C574.7,-11 595.53,-11 613.47,-11"/>
<polygon fill="black" stroke="black" points="613.93,-12.75 618.93,-11 613.93,-9.25 613.93,-12.75"/>
</g>
<!-- EOS240 -->
<g id="node31" class="node">
<title>EOS240</title>
<path fill="#f5edc9" stroke="#030a10" d="M477,-21.5C477,-21.5 433,-21.5 433,-21.5 429.5,-21.5 426,-18 426,-14.5 426,-14.5 426,-7.5 426,-7.5 426,-4 429.5,-0.5 433,-0.5 433,-0.5 477,-0.5 477,-0.5 480.5,-0.5 484,-4 484,-7.5 484,-7.5 484,-14.5 484,-14.5 484,-18 480.5,-21.5 477,-21.5"/>
<text text-anchor="middle" x="455" y="-7.9" font-family="Times,serif" font-size="12.00">EOS240</text>
</g>
<!-- EOS240&#45;&gt;1 of [&#39;EOS201&#39;, &#39;EOS240&#39;] -->
<g id="edge27" class="edge">
<title>EOS240&#45;&gt;1 of [&#39;EOS201&#39;, &#39;EOS240&#39;]</title>
<path fill="none" stroke="black" d="M484.1,-11C500.81,-11 521.38,-11 535.15,-11"/>
<polygon fill="black" stroke="black" points="535.25,-12.75 540.25,-11 535.25,-9.25 535.25,-12.75"/>
</g>
<!-- 1 of [&#39;EOS310&#39;, &#39;EOS316&#39;]&#45;&gt;EOS408 -->
<g id="edge31" class="edge">
<title>1 of [&#39;EOS310&#39;, &#39;EOS316&#39;]&#45;&gt;EOS408</title>
<path fill="none" stroke="black" d="M562.61,-237.65C574.8,-234.81 595.89,-229.9 613.94,-225.7"/>
<polygon fill="black" stroke="black" points="614.46,-227.37 618.93,-224.53 613.67,-223.96 614.46,-227.37"/>
</g>
<!-- EOS310 -->
<g id="node33" class="node">
<title>EOS310</title>
<path fill="#f5edc9" stroke="#030a10" d="M477,-253.5C477,-253.5 433,-253.5 433,-253.5 429.5,-253.5 426,-250 426,-246.5 426,-246.5 426,-239.5 426,-239.5 426,-236 429.5,-232.5 433,-232.5 433,-232.5 477,-232.5 477,-232.5 480.5,-232.5 484,-236 484,-239.5 484,-239.5 484,-246.5 484,-246.5 484,-250 480.5,-253.5 477,-253.5"/>
<text text-anchor="middle" x="455" y="-239.9" font-family="Times,serif" font-size="12.00">EOS310</text>
</g>
<!-- EOS310&#45;&gt;1 of [&#39;EOS310&#39;, &#39;EOS316&#39;] -->
<g id="edge32" class="edge">
<title>EOS310&#45;&gt;1 of [&#39;EOS310&#39;, &#39;EOS316&#39;]</title>
<path fill="none" stroke="black" d="M484.1,-242.11C500.81,-241.58 521.38,-240.92 535.15,-240.49"/>
<polygon fill="black" stroke="black" points="535.31,-242.23 540.25,-240.33 535.2,-238.73 535.31,-242.23"/>
</g>
<!-- EOS202 -->
<g id="node34" class="node">
<title>EOS202</title>
<path fill="#f5edc9" stroke="#030a10" d="M477,-112.5C477,-112.5 433,-112.5 433,-112.5 429.5,-112.5 426,-109 426,-105.5 426,-105.5 426,-98.5 426,-98.5 426,-95 429.5,-91.5 433,-91.5 433,-91.5 477,-91.5 477,-91.5 480.5,-91.5 484,-95 484,-98.5 484,-98.5 484,-105.5 484,-105.5 484,-109 480.5,-112.5 477,-112.5"/>
<text text-anchor="middle" x="455" y="-98.9" font-family="Times,serif" font-size="12.00">EOS202</text>
</g>
<!-- EOS202&#45;&gt;EOS300 -->
<g id="edge35" class="edge">
<title>EOS202&#45;&gt;EOS300</title>
<path fill="none" stroke="black" d="M484.1,-108.54C494.57,-110.98 506.56,-113.77 517.44,-116.3"/>
<polygon fill="black" stroke="black" points="517.08,-118.02 522.35,-117.45 517.87,-114.61 517.08,-118.02"/>
</g>
<!-- 1 of [&#39;BIOL215&#39;, &#39;EOS330&#39;]&#45;&gt;BIOL457 -->
<g id="edge37" class="edge">
<title>1 of [&#39;BIOL215&#39;, &#39;EOS330&#39;]&#45;&gt;BIOL457</title>
<path fill="none" stroke="black" d="M659.11,-61C670.68,-61 690.26,-61 707.65,-61"/>
<polygon fill="black" stroke="black" points="707.97,-62.75 712.97,-61 707.97,-59.25 707.97,-62.75"/>
</g>
<!-- BIOL215 -->
<g id="node36" class="node">
<title>BIOL215</title>
<path fill="#f5edc9" stroke="#030a10" d="M576,-78.5C576,-78.5 527,-78.5 527,-78.5 523.5,-78.5 520,-75 520,-71.5 520,-71.5 520,-64.5 520,-64.5 520,-61 523.5,-57.5 527,-57.5 527,-57.5 576,-57.5 576,-57.5 579.5,-57.5 583,-61 583,-64.5 583,-64.5 583,-71.5 583,-71.5 583,-75 579.5,-78.5 576,-78.5"/>
<text text-anchor="middle" x="551.5" y="-64.9" font-family="Times,serif" font-size="12.00">BIOL215</text>
</g>
<!-- BIOL215&#45;&gt;1 of [&#39;BIOL215&#39;, &#39;EOS330&#39;] -->
<g id="edge38" class="edge">
<title>BIOL215&#45;&gt;1 of [&#39;BIOL215&#39;, &#39;EOS330&#39;]</title>
<path fill="none" stroke="black" d="M583.18,-65.73C599.4,-64.53 618.61,-63.1 631.68,-62.13"/>
<polygon fill="black" stroke="black" points="632.03,-63.86 636.88,-61.75 631.77,-60.37 632.03,-63.86"/>
</g>
</g>
</svg>
