<?xml version="1.0" encoding="UTF-8" standalone="no"?>
<!DOCTYPE svg PUBLIC "-//W3C//DTD SVG 1.1//EN"
 "http://www.w3.org/Graphics/SVG/1.1/DTD/svg11.dtd">
<!-- Generated by graphviz version 2.43.0 (0)
 -->
<!-- Title: unix Pages: 1 -->
<svg width="715pt" height="236pt"
 viewBox="0.00 0.00 715.00 236.00" xmlns="http://www.w3.org/2000/svg" xmlns:xlink="http://www.w3.org/1999/xlink">
<g id="graph0" class="graph" transform="scale(1 1) rotate(0) translate(4 232)">
<title>unix</title>
<polygon fill="white" stroke="transparent" points="-4,4 -4,-232 711,-232 711,4 -4,4"/>
<text text-anchor="middle" x="353.5" y="-212.8" font-family="Times,serif" font-size="14.00">EOS220: Weather and Climate</text>
<!-- PHYS102A -->
<g id="node1" class="node">
<title>PHYS102A</title>
<path fill="#e7a79b" stroke="#030a10" d="M336,-105C336,-105 275,-105 275,-105 271.5,-105 268,-101.5 268,-98 268,-98 268,-91 268,-91 268,-87.5 271.5,-84 275,-84 275,-84 336,-84 336,-84 339.5,-84 343,-87.5 343,-91 343,-91 343,-98 343,-98 343,-101.5 339.5,-105 336,-105"/>
<text text-anchor="middle" x="305.5" y="-91.4" font-family="Times,serif" font-size="12.00">PHYS102A</text>
</g>
<!-- 1 of [&#39;PHYS102A&#39;, &#39;PHYS110&#39;, &#39;PHYS120&#39;] -->
<g id="node17" class="node">
<title>1 of [&#39;PHYS102A&#39;, &#39;PHYS110&#39;, &#39;PHYS120&#39;]</title>
<ellipse fill="#dfe6e9" stroke="#030a10" cx="412" cy="-70.5" rx="11" ry="11"/>
<text text-anchor="middle" x="412" y="-67.4" font-family="Times,serif" font-size="12.00">1</text>
</g>
<!-- PHYS102A&#45;&gt;1 of [&#39;PHYS102A&#39;, &#39;PHYS110&#39;, &#39;PHYS120&#39;] -->
<g id="edge2" class="edge">
<title>PHYS102A&#45;&gt;1 of [&#39;PHYS102A&#39;, &#39;PHYS110&#39;, &#39;PHYS120&#39;]</title>
<path fill="none" stroke="black" d="M343.05,-86.11C361.13,-81.95 381.98,-77.17 395.76,-74"/>
<polygon fill="black" stroke="black" points="396.37,-75.65 400.86,-72.83 395.59,-72.24 396.37,-75.65"/>
</g>
<!-- 1 of [&#39;PHYS110&#39;, &#39;PHYS120&#39;, &#39;PHYS102A&#39;, &#39;PHYS112&#39;, &#39;PHYS111&#39;, &#39;PHYS102B&#39;, &#39;PHYS130&#39;] -->
<g id="node21" class="node">
<title>1 of [&#39;PHYS110&#39;, &#39;PHYS120&#39;, &#39;PHYS102A&#39;, &#39;PHYS112&#39;, &#39;PHYS111&#39;, &#39;PHYS102B&#39;, &#39;PHYS130&#39;]</title>
<ellipse fill="#dfe6e9" stroke="#030a10" cx="602" cy="-81.5" rx="11" ry="11"/>
<text text-anchor="middle" x="602" y="-78.4" font-family="Times,serif" font-size="12.00">1</text>
</g>
<!-- PHYS102A&#45;&gt;1 of [&#39;PHYS110&#39;, &#39;PHYS120&#39;, &#39;PHYS102A&#39;, &#39;PHYS112&#39;, &#39;PHYS111&#39;, &#39;PHYS102B&#39;, &#39;PHYS130&#39;] -->
<g id="edge23" class="edge">
<title>PHYS102A&#45;&gt;1 of [&#39;PHYS110&#39;, &#39;PHYS120&#39;, &#39;PHYS102A&#39;, &#39;PHYS112&#39;, &#39;PHYS111&#39;, &#39;PHYS102B&#39;, &#39;PHYS130&#39;]</title>
<path fill="none" stroke="black" d="M343.14,-93.31C391.63,-91.67 479.76,-88.47 555,-84.5 565.19,-83.96 576.65,-83.22 585.57,-82.6"/>
<polygon fill="black" stroke="black" points="585.91,-84.33 590.77,-82.24 585.66,-80.84 585.91,-84.33"/>
</g>
<!-- PHYS102B -->
<g id="node2" class="node">
<title>PHYS102B</title>
<path fill="#e7a79b" stroke="#030a10" d="M548,-81C548,-81 488,-81 488,-81 484.5,-81 481,-77.5 481,-74 481,-74 481,-67 481,-67 481,-63.5 484.5,-60 488,-60 488,-60 548,-60 548,-60 551.5,-60 555,-63.5 555,-67 555,-67 555,-74 555,-74 555,-77.5 551.5,-81 548,-81"/>
<text text-anchor="middle" x="518" y="-67.4" font-family="Times,serif" font-size="12.00">PHYS102B</text>
</g>
<!-- PHYS102B&#45;&gt;1 of [&#39;PHYS110&#39;, &#39;PHYS120&#39;, &#39;PHYS102A&#39;, &#39;PHYS112&#39;, &#39;PHYS111&#39;, &#39;PHYS102B&#39;, &#39;PHYS130&#39;] -->
<g id="edge26" class="edge">
<title>PHYS102B&#45;&gt;1 of [&#39;PHYS110&#39;, &#39;PHYS120&#39;, &#39;PHYS102A&#39;, &#39;PHYS112&#39;, &#39;PHYS111&#39;, &#39;PHYS102B&#39;, &#39;PHYS130&#39;]</title>
<path fill="none" stroke="black" d="M555.21,-75.36C566.01,-76.81 577.26,-78.31 585.9,-79.47"/>
<polygon fill="black" stroke="black" points="585.74,-81.22 590.92,-80.15 586.2,-77.75 585.74,-81.22"/>
</g>
<!-- PHYS120 -->
<g id="node3" class="node">
<title>PHYS120</title>
<path fill="#e7a79b" stroke="#030a10" d="M331.5,-49C331.5,-49 279.5,-49 279.5,-49 276,-49 272.5,-45.5 272.5,-42 272.5,-42 272.5,-35 272.5,-35 272.5,-31.5 276,-28 279.5,-28 279.5,-28 331.5,-28 331.5,-28 335,-28 338.5,-31.5 338.5,-35 338.5,-35 338.5,-42 338.5,-42 338.5,-45.5 335,-49 331.5,-49"/>
<text text-anchor="middle" x="305.5" y="-35.4" font-family="Times,serif" font-size="12.00">PHYS120</text>
</g>
<!-- PHYS130 -->
<g id="node7" class="node">
<title>PHYS130</title>
<path fill="#e7a79b" stroke="#030a10" d="M438,-22C438,-22 386,-22 386,-22 382.5,-22 379,-18.5 379,-15 379,-15 379,-8 379,-8 379,-4.5 382.5,-1 386,-1 386,-1 438,-1 438,-1 441.5,-1 445,-4.5 445,-8 445,-8 445,-15 445,-15 445,-18.5 441.5,-22 438,-22"/>
<text text-anchor="middle" x="412" y="-8.4" font-family="Times,serif" font-size="12.00">PHYS130</text>
</g>
<!-- PHYS120&#45;&gt;PHYS130 -->
<g id="edge28" class="edge">
<title>PHYS120&#45;&gt;PHYS130</title>
<path fill="none" stroke="black" d="M338.71,-30.18C349.83,-27.3 362.38,-24.06 373.87,-21.09"/>
<polygon fill="black" stroke="black" points="374.32,-22.79 378.72,-19.84 373.44,-19.4 374.32,-22.79"/>
</g>
<!-- PHYS120&#45;&gt;1 of [&#39;PHYS102A&#39;, &#39;PHYS110&#39;, &#39;PHYS120&#39;] -->
<g id="edge4" class="edge">
<title>PHYS120&#45;&gt;1 of [&#39;PHYS102A&#39;, &#39;PHYS110&#39;, &#39;PHYS120&#39;]</title>
<path fill="none" stroke="black" d="M338.71,-48.36C357.93,-54.25 381.43,-61.45 396.31,-66"/>
<polygon fill="black" stroke="black" points="396.08,-67.76 401.38,-67.55 397.11,-64.42 396.08,-67.76"/>
</g>
<!-- PHYS120&#45;&gt;1 of [&#39;PHYS110&#39;, &#39;PHYS120&#39;, &#39;PHYS102A&#39;, &#39;PHYS112&#39;, &#39;PHYS111&#39;, &#39;PHYS102B&#39;, &#39;PHYS130&#39;] -->
<g id="edge22" class="edge">
<title>PHYS120&#45;&gt;1 of [&#39;PHYS110&#39;, &#39;PHYS120&#39;, &#39;PHYS102A&#39;, &#39;PHYS112&#39;, &#39;PHYS111&#39;, &#39;PHYS102B&#39;, &#39;PHYS130&#39;]</title>
<path fill="none" stroke="black" d="M338.63,-33.48C387.12,-27.22 481.17,-20.28 555,-46.5 568.49,-51.29 581.23,-61.61 589.87,-69.81"/>
<polygon fill="black" stroke="black" points="588.97,-71.38 593.76,-73.63 591.42,-68.88 588.97,-71.38"/>
</g>
<!-- MATH110 -->
<g id="node4" class="node">
<title>MATH110</title>
<path fill="#e7a79b" stroke="#030a10" d="M167,-177C167,-177 112,-177 112,-177 108.5,-177 105,-173.5 105,-170 105,-170 105,-163 105,-163 105,-159.5 108.5,-156 112,-156 112,-156 167,-156 167,-156 170.5,-156 174,-159.5 174,-163 174,-163 174,-170 174,-170 174,-173.5 170.5,-177 167,-177"/>
<text text-anchor="middle" x="139.5" y="-163.4" font-family="Times,serif" font-size="12.00">MATH110</text>
</g>
<!-- 1 of [&#39;MATH100&#39;, &#39;MATH102&#39;, &#39;MATH109&#39;, &#39;MATH120&#39;, &#39;MATH122&#39;, &#39;MATH151&#39;, &#39;MATH110&#39;] -->
<g id="node20" class="node">
<title>1 of [&#39;MATH100&#39;, &#39;MATH102&#39;, &#39;MATH109&#39;, &#39;MATH120&#39;, &#39;MATH122&#39;, &#39;MATH151&#39;, &#39;MATH110&#39;]</title>
<ellipse fill="#dfe6e9" stroke="#030a10" cx="221" cy="-133.5" rx="11" ry="11"/>
<text text-anchor="middle" x="221" y="-130.4" font-family="Times,serif" font-size="12.00">1</text>
</g>
<!-- MATH110&#45;&gt;1 of [&#39;MATH100&#39;, &#39;MATH102&#39;, &#39;MATH109&#39;, &#39;MATH120&#39;, &#39;MATH122&#39;, &#39;MATH151&#39;, &#39;MATH110&#39;] -->
<g id="edge19" class="edge">
<title>MATH110&#45;&gt;1 of [&#39;MATH100&#39;, &#39;MATH102&#39;, &#39;MATH109&#39;, &#39;MATH120&#39;, &#39;MATH122&#39;, &#39;MATH151&#39;, &#39;MATH110&#39;]</title>
<path fill="none" stroke="black" d="M166.09,-155.88C179.32,-150.39 194.95,-143.9 205.96,-139.33"/>
<polygon fill="black" stroke="black" points="206.73,-140.9 210.68,-137.37 205.39,-137.67 206.73,-140.9"/>
</g>
<!-- PHYS110 -->
<g id="node5" class="node">
<title>PHYS110</title>
<path fill="#e7a79b" stroke="#030a10" d="M331.5,-77C331.5,-77 279.5,-77 279.5,-77 276,-77 272.5,-73.5 272.5,-70 272.5,-70 272.5,-63 272.5,-63 272.5,-59.5 276,-56 279.5,-56 279.5,-56 331.5,-56 331.5,-56 335,-56 338.5,-59.5 338.5,-63 338.5,-63 338.5,-70 338.5,-70 338.5,-73.5 335,-77 331.5,-77"/>
<text text-anchor="middle" x="305.5" y="-63.4" font-family="Times,serif" font-size="12.00">PHYS110</text>
</g>
<!-- PHYS111 -->
<g id="node13" class="node">
<title>PHYS111</title>
<path fill="#e7a79b" stroke="#030a10" d="M437.5,-127C437.5,-127 386.5,-127 386.5,-127 383,-127 379.5,-123.5 379.5,-120 379.5,-120 379.5,-113 379.5,-113 379.5,-109.5 383,-106 386.5,-106 386.5,-106 437.5,-106 437.5,-106 441,-106 444.5,-109.5 444.5,-113 444.5,-113 444.5,-120 444.5,-120 444.5,-123.5 441,-127 437.5,-127"/>
<text text-anchor="middle" x="412" y="-113.4" font-family="Times,serif" font-size="12.00">PHYS111</text>
</g>
<!-- PHYS110&#45;&gt;PHYS111 -->
<g id="edge31" class="edge">
<title>PHYS110&#45;&gt;PHYS111</title>
<path fill="none" stroke="black" d="M334.93,-77.02C337.68,-78.15 340.4,-79.32 343,-80.5 358.27,-87.44 374.92,-96.23 387.93,-103.39"/>
<polygon fill="black" stroke="black" points="387.32,-105.06 392.54,-105.95 389.02,-102 387.32,-105.06"/>
</g>
<!-- PHYS110&#45;&gt;1 of [&#39;PHYS102A&#39;, &#39;PHYS110&#39;, &#39;PHYS120&#39;] -->
<g id="edge3" class="edge">
<title>PHYS110&#45;&gt;1 of [&#39;PHYS102A&#39;, &#39;PHYS110&#39;, &#39;PHYS120&#39;]</title>
<path fill="none" stroke="black" d="M338.71,-67.73C357.72,-68.46 380.91,-69.35 395.81,-69.92"/>
<polygon fill="black" stroke="black" points="395.84,-71.67 400.9,-70.11 395.97,-68.17 395.84,-71.67"/>
</g>
<!-- PHYS110&#45;&gt;1 of [&#39;PHYS110&#39;, &#39;PHYS120&#39;, &#39;PHYS102A&#39;, &#39;PHYS112&#39;, &#39;PHYS111&#39;, &#39;PHYS102B&#39;, &#39;PHYS130&#39;] -->
<g id="edge21" class="edge">
<title>PHYS110&#45;&gt;1 of [&#39;PHYS110&#39;, &#39;PHYS120&#39;, &#39;PHYS102A&#39;, &#39;PHYS112&#39;, &#39;PHYS111&#39;, &#39;PHYS102B&#39;, &#39;PHYS130&#39;]</title>
<path fill="none" stroke="black" d="M338.88,-59.39C386.91,-50.15 479.47,-37.3 555,-56.5 567.04,-59.56 579.34,-66.48 588.18,-72.27"/>
<polygon fill="black" stroke="black" points="587.6,-73.98 592.72,-75.33 589.56,-71.08 587.6,-73.98"/>
</g>
<!-- EOS220 -->
<g id="node6" class="node">
<title>EOS220</title>
<path fill="#9fa7be" stroke="#030a10" d="M700,-127C700,-127 656,-127 656,-127 652.5,-127 649,-123.5 649,-120 649,-120 649,-113 649,-113 649,-109.5 652.5,-106 656,-106 656,-106 700,-106 700,-106 703.5,-106 707,-109.5 707,-113 707,-113 707,-120 707,-120 707,-123.5 703.5,-127 700,-127"/>
<text text-anchor="middle" x="678" y="-113.4" font-family="Times,serif" font-size="12.00">EOS220</text>
</g>
<!-- PHYS130&#45;&gt;1 of [&#39;PHYS110&#39;, &#39;PHYS120&#39;, &#39;PHYS102A&#39;, &#39;PHYS112&#39;, &#39;PHYS111&#39;, &#39;PHYS102B&#39;, &#39;PHYS130&#39;] -->
<g id="edge27" class="edge">
<title>PHYS130&#45;&gt;1 of [&#39;PHYS110&#39;, &#39;PHYS120&#39;, &#39;PHYS102A&#39;, &#39;PHYS112&#39;, &#39;PHYS111&#39;, &#39;PHYS102B&#39;, &#39;PHYS130&#39;]</title>
<path fill="none" stroke="black" d="M445.12,-8.96C475.25,-8 520.67,-10.3 555,-28.5 571.87,-37.45 585.33,-55.31 593.23,-67.81"/>
<polygon fill="black" stroke="black" points="591.78,-68.8 595.88,-72.15 594.76,-66.97 591.78,-68.8"/>
</g>
<!-- MATH151 -->
<g id="node8" class="node">
<title>MATH151</title>
<path fill="#e7a79b" stroke="#030a10" d="M167,-133C167,-133 112,-133 112,-133 108.5,-133 105,-129.5 105,-126 105,-126 105,-119 105,-119 105,-115.5 108.5,-112 112,-112 112,-112 167,-112 167,-112 170.5,-112 174,-115.5 174,-119 174,-119 174,-126 174,-126 174,-129.5 170.5,-133 167,-133"/>
<text text-anchor="middle" x="139.5" y="-119.4" font-family="Times,serif" font-size="12.00">MATH151</text>
</g>
<!-- MATH151&#45;&gt;1 of [&#39;MATH100&#39;, &#39;MATH102&#39;, &#39;MATH109&#39;, &#39;MATH120&#39;, &#39;MATH122&#39;, &#39;MATH151&#39;, &#39;MATH110&#39;] -->
<g id="edge18" class="edge">
<title>MATH151&#45;&gt;1 of [&#39;MATH100&#39;, &#39;MATH102&#39;, &#39;MATH109&#39;, &#39;MATH120&#39;, &#39;MATH122&#39;, &#39;MATH151&#39;, &#39;MATH110&#39;]</title>
<path fill="none" stroke="black" d="M174.22,-127.16C184.87,-128.64 196.12,-130.2 204.8,-131.4"/>
<polygon fill="black" stroke="black" points="204.65,-133.14 209.84,-132.09 205.13,-129.68 204.65,-133.14"/>
</g>
<!-- MATH102 -->
<g id="node9" class="node">
<title>MATH102</title>
<path fill="#e7a79b" stroke="#030a10" d="M167,-105C167,-105 112,-105 112,-105 108.5,-105 105,-101.5 105,-98 105,-98 105,-91 105,-91 105,-87.5 108.5,-84 112,-84 112,-84 167,-84 167,-84 170.5,-84 174,-87.5 174,-91 174,-91 174,-98 174,-98 174,-101.5 170.5,-105 167,-105"/>
<text text-anchor="middle" x="139.5" y="-91.4" font-family="Times,serif" font-size="12.00">MATH102</text>
</g>
<!-- 1 of [&#39;MATH100&#39;, &#39;MATH102&#39;, &#39;MATH109&#39;] -->
<g id="node19" class="node">
<title>1 of [&#39;MATH100&#39;, &#39;MATH102&#39;, &#39;MATH109&#39;]</title>
<ellipse fill="#dfe6e9" stroke="#030a10" cx="221" cy="-67.5" rx="11" ry="11"/>
<text text-anchor="middle" x="221" y="-64.4" font-family="Times,serif" font-size="12.00">1</text>
</g>
<!-- MATH102&#45;&gt;1 of [&#39;MATH100&#39;, &#39;MATH102&#39;, &#39;MATH109&#39;] -->
<g id="edge10" class="edge">
<title>MATH102&#45;&gt;1 of [&#39;MATH100&#39;, &#39;MATH102&#39;, &#39;MATH109&#39;]</title>
<path fill="none" stroke="black" d="M171.46,-83.98C183.09,-80.04 195.77,-75.73 205.25,-72.51"/>
<polygon fill="black" stroke="black" points="205.99,-74.11 210.16,-70.84 204.87,-70.79 205.99,-74.11"/>
</g>
<!-- MATH102&#45;&gt;1 of [&#39;MATH100&#39;, &#39;MATH102&#39;, &#39;MATH109&#39;, &#39;MATH120&#39;, &#39;MATH122&#39;, &#39;MATH151&#39;, &#39;MATH110&#39;] -->
<g id="edge14" class="edge">
<title>MATH102&#45;&gt;1 of [&#39;MATH100&#39;, &#39;MATH102&#39;, &#39;MATH109&#39;, &#39;MATH120&#39;, &#39;MATH122&#39;, &#39;MATH151&#39;, &#39;MATH110&#39;]</title>
<path fill="none" stroke="black" d="M166.59,-105.09C169.11,-106.21 171.61,-107.36 174,-108.5 185.07,-113.8 197.25,-120.46 206.3,-125.58"/>
<polygon fill="black" stroke="black" points="205.77,-127.29 210.98,-128.24 207.5,-124.25 205.77,-127.29"/>
</g>
<!-- MATH109 -->
<g id="node10" class="node">
<title>MATH109</title>
<path fill="#e7a79b" stroke="#030a10" d="M167,-49C167,-49 112,-49 112,-49 108.5,-49 105,-45.5 105,-42 105,-42 105,-35 105,-35 105,-31.5 108.5,-28 112,-28 112,-28 167,-28 167,-28 170.5,-28 174,-31.5 174,-35 174,-35 174,-42 174,-42 174,-45.5 170.5,-49 167,-49"/>
<text text-anchor="middle" x="139.5" y="-35.4" font-family="Times,serif" font-size="12.00">MATH109</text>
</g>
<!-- 1 of [&#39;MATH100&#39;, &#39;MATH109&#39;] -->
<g id="node18" class="node">
<title>1 of [&#39;MATH100&#39;, &#39;MATH109&#39;]</title>
<ellipse fill="#dfe6e9" stroke="#030a10" cx="221" cy="-38.5" rx="11" ry="11"/>
<text text-anchor="middle" x="221" y="-35.4" font-family="Times,serif" font-size="12.00">1</text>
</g>
<!-- MATH109&#45;&gt;1 of [&#39;MATH100&#39;, &#39;MATH109&#39;] -->
<g id="edge7" class="edge">
<title>MATH109&#45;&gt;1 of [&#39;MATH100&#39;, &#39;MATH109&#39;]</title>
<path fill="none" stroke="black" d="M174.22,-38.5C184.87,-38.5 196.12,-38.5 204.8,-38.5"/>
<polygon fill="black" stroke="black" points="204.84,-40.25 209.84,-38.5 204.84,-36.75 204.84,-40.25"/>
</g>
<!-- MATH109&#45;&gt;1 of [&#39;MATH100&#39;, &#39;MATH102&#39;, &#39;MATH109&#39;] -->
<g id="edge11" class="edge">
<title>MATH109&#45;&gt;1 of [&#39;MATH100&#39;, &#39;MATH102&#39;, &#39;MATH109&#39;]</title>
<path fill="none" stroke="black" d="M169.65,-49.13C181.88,-53.59 195.55,-58.58 205.56,-62.23"/>
<polygon fill="black" stroke="black" points="205.13,-63.94 210.43,-64.01 206.33,-60.65 205.13,-63.94"/>
</g>
<!-- MATH109&#45;&gt;1 of [&#39;MATH100&#39;, &#39;MATH102&#39;, &#39;MATH109&#39;, &#39;MATH120&#39;, &#39;MATH122&#39;, &#39;MATH151&#39;, &#39;MATH110&#39;] -->
<g id="edge15" class="edge">
<title>MATH109&#45;&gt;1 of [&#39;MATH100&#39;, &#39;MATH102&#39;, &#39;MATH109&#39;, &#39;MATH120&#39;, &#39;MATH122&#39;, &#39;MATH151&#39;, &#39;MATH110&#39;]</title>
<path fill="none" stroke="black" d="M169.42,-49.04C171.04,-50.09 172.58,-51.25 174,-52.5 194.58,-70.73 208.11,-100.47 214.88,-118.4"/>
<polygon fill="black" stroke="black" points="213.25,-119.03 216.61,-123.12 216.54,-117.82 213.25,-119.03"/>
</g>
<!-- MATH122 -->
<g id="node11" class="node">
<title>MATH122</title>
<path fill="#e7a79b" stroke="#030a10" d="M167,-205C167,-205 112,-205 112,-205 108.5,-205 105,-201.5 105,-198 105,-198 105,-191 105,-191 105,-187.5 108.5,-184 112,-184 112,-184 167,-184 167,-184 170.5,-184 174,-187.5 174,-191 174,-191 174,-198 174,-198 174,-201.5 170.5,-205 167,-205"/>
<text text-anchor="middle" x="139.5" y="-191.4" font-family="Times,serif" font-size="12.00">MATH122</text>
</g>
<!-- MATH122&#45;&gt;1 of [&#39;MATH100&#39;, &#39;MATH102&#39;, &#39;MATH109&#39;, &#39;MATH120&#39;, &#39;MATH122&#39;, &#39;MATH151&#39;, &#39;MATH110&#39;] -->
<g id="edge17" class="edge">
<title>MATH122&#45;&gt;1 of [&#39;MATH100&#39;, &#39;MATH102&#39;, &#39;MATH109&#39;, &#39;MATH120&#39;, &#39;MATH122&#39;, &#39;MATH151&#39;, &#39;MATH110&#39;]</title>
<path fill="none" stroke="black" d="M168.38,-183.89C170.33,-182.83 172.23,-181.7 174,-180.5 188.35,-170.77 201.86,-156.05 210.48,-145.68"/>
<polygon fill="black" stroke="black" points="211.84,-146.78 213.64,-141.8 209.12,-144.57 211.84,-146.78"/>
</g>
<!-- MATH120 -->
<g id="node12" class="node">
<title>MATH120</title>
<path fill="#e7a79b" stroke="#030a10" d="M62,-77C62,-77 7,-77 7,-77 3.5,-77 0,-73.5 0,-70 0,-70 0,-63 0,-63 0,-59.5 3.5,-56 7,-56 7,-56 62,-56 62,-56 65.5,-56 69,-59.5 69,-63 69,-63 69,-70 69,-70 69,-73.5 65.5,-77 62,-77"/>
<text text-anchor="middle" x="34.5" y="-63.4" font-family="Times,serif" font-size="12.00">MATH120</text>
</g>
<!-- MATH120&#45;&gt;MATH109 -->
<g id="edge30" class="edge">
<title>MATH120&#45;&gt;MATH109</title>
<path fill="none" stroke="black" d="M69.23,-57.33C79.01,-54.67 89.76,-51.75 99.82,-49.01"/>
<polygon fill="black" stroke="black" points="100.33,-50.69 104.7,-47.69 99.41,-47.31 100.33,-50.69"/>
</g>
<!-- MATH100 -->
<g id="node14" class="node">
<title>MATH100</title>
<path fill="#e7a79b" stroke="#030a10" d="M167,-77C167,-77 112,-77 112,-77 108.5,-77 105,-73.5 105,-70 105,-70 105,-63 105,-63 105,-59.5 108.5,-56 112,-56 112,-56 167,-56 167,-56 170.5,-56 174,-59.5 174,-63 174,-63 174,-70 174,-70 174,-73.5 170.5,-77 167,-77"/>
<text text-anchor="middle" x="139.5" y="-63.4" font-family="Times,serif" font-size="12.00">MATH100</text>
</g>
<!-- MATH120&#45;&gt;MATH100 -->
<g id="edge33" class="edge">
<title>MATH120&#45;&gt;MATH100</title>
<path fill="none" stroke="black" d="M69.23,-66.5C78.92,-66.5 89.57,-66.5 99.55,-66.5"/>
<polygon fill="black" stroke="black" points="99.7,-68.25 104.7,-66.5 99.7,-64.75 99.7,-68.25"/>
</g>
<!-- MATH120&#45;&gt;1 of [&#39;MATH100&#39;, &#39;MATH102&#39;, &#39;MATH109&#39;, &#39;MATH120&#39;, &#39;MATH122&#39;, &#39;MATH151&#39;, &#39;MATH110&#39;] -->
<g id="edge16" class="edge">
<title>MATH120&#45;&gt;1 of [&#39;MATH100&#39;, &#39;MATH102&#39;, &#39;MATH109&#39;, &#39;MATH120&#39;, &#39;MATH122&#39;, &#39;MATH151&#39;, &#39;MATH110&#39;]</title>
<path fill="none" stroke="black" d="M42,-77.12C52.73,-93.53 75.91,-124.39 105,-136.5 138.63,-150.5 182.71,-143.03 205.28,-137.58"/>
<polygon fill="black" stroke="black" points="205.86,-139.23 210.28,-136.31 205,-135.84 205.86,-139.23"/>
</g>
<!-- PHYS111&#45;&gt;1 of [&#39;PHYS110&#39;, &#39;PHYS120&#39;, &#39;PHYS102A&#39;, &#39;PHYS112&#39;, &#39;PHYS111&#39;, &#39;PHYS102B&#39;, &#39;PHYS130&#39;] -->
<g id="edge25" class="edge">
<title>PHYS111&#45;&gt;1 of [&#39;PHYS110&#39;, &#39;PHYS120&#39;, &#39;PHYS102A&#39;, &#39;PHYS112&#39;, &#39;PHYS111&#39;, &#39;PHYS102B&#39;, &#39;PHYS130&#39;]</title>
<path fill="none" stroke="black" d="M443.37,-127.01C473.03,-135.48 518.85,-143.7 555,-128.5 571.17,-121.7 584.49,-106.14 592.57,-94.78"/>
<polygon fill="black" stroke="black" points="594.11,-95.62 595.5,-90.51 591.23,-93.64 594.11,-95.62"/>
</g>
<!-- MATH100&#45;&gt;1 of [&#39;MATH100&#39;, &#39;MATH109&#39;] -->
<g id="edge6" class="edge">
<title>MATH100&#45;&gt;1 of [&#39;MATH100&#39;, &#39;MATH109&#39;]</title>
<path fill="none" stroke="black" d="M170.56,-55.91C182.54,-51.69 195.77,-47.03 205.53,-43.6"/>
<polygon fill="black" stroke="black" points="206.16,-45.23 210.29,-41.92 204.99,-41.93 206.16,-45.23"/>
</g>
<!-- MATH100&#45;&gt;1 of [&#39;MATH100&#39;, &#39;MATH102&#39;, &#39;MATH109&#39;] -->
<g id="edge9" class="edge">
<title>MATH100&#45;&gt;1 of [&#39;MATH100&#39;, &#39;MATH102&#39;, &#39;MATH109&#39;]</title>
<path fill="none" stroke="black" d="M174.22,-66.92C184.87,-67.06 196.12,-67.2 204.8,-67.31"/>
<polygon fill="black" stroke="black" points="204.82,-69.06 209.84,-67.37 204.86,-65.56 204.82,-69.06"/>
</g>
<!-- MATH100&#45;&gt;1 of [&#39;MATH100&#39;, &#39;MATH102&#39;, &#39;MATH109&#39;, &#39;MATH120&#39;, &#39;MATH122&#39;, &#39;MATH151&#39;, &#39;MATH110&#39;] -->
<g id="edge13" class="edge">
<title>MATH100&#45;&gt;1 of [&#39;MATH100&#39;, &#39;MATH102&#39;, &#39;MATH109&#39;, &#39;MATH120&#39;, &#39;MATH122&#39;, &#39;MATH151&#39;, &#39;MATH110&#39;]</title>
<path fill="none" stroke="black" d="M168.81,-77.18C170.62,-78.21 172.37,-79.32 174,-80.5 189.17,-91.46 202.69,-108.35 211.09,-120.11"/>
<polygon fill="black" stroke="black" points="209.85,-121.4 214.15,-124.49 212.72,-119.39 209.85,-121.4"/>
</g>
<!-- PHYS112 -->
<g id="node15" class="node">
<title>PHYS112</title>
<path fill="#e7a79b" stroke="#030a10" d="M544,-125C544,-125 492,-125 492,-125 488.5,-125 485,-121.5 485,-118 485,-118 485,-111 485,-111 485,-107.5 488.5,-104 492,-104 492,-104 544,-104 544,-104 547.5,-104 551,-107.5 551,-111 551,-111 551,-118 551,-118 551,-121.5 547.5,-125 544,-125"/>
<text text-anchor="middle" x="518" y="-111.4" font-family="Times,serif" font-size="12.00">PHYS112</text>
</g>
<!-- PHYS112&#45;&gt;1 of [&#39;PHYS110&#39;, &#39;PHYS120&#39;, &#39;PHYS102A&#39;, &#39;PHYS112&#39;, &#39;PHYS111&#39;, &#39;PHYS102B&#39;, &#39;PHYS130&#39;] -->
<g id="edge24" class="edge">
<title>PHYS112&#45;&gt;1 of [&#39;PHYS110&#39;, &#39;PHYS120&#39;, &#39;PHYS102A&#39;, &#39;PHYS112&#39;, &#39;PHYS111&#39;, &#39;PHYS102B&#39;, &#39;PHYS130&#39;]</title>
<path fill="none" stroke="black" d="M545.4,-103.88C559.04,-98.39 575.16,-91.9 586.52,-87.33"/>
<polygon fill="black" stroke="black" points="587.4,-88.86 591.38,-85.37 586.09,-85.61 587.4,-88.86"/>
</g>
<!-- MATH101 -->
<g id="node16" class="node">
<title>MATH101</title>
<path fill="#f5edc9" stroke="#030a10" d="M333,-21C333,-21 278,-21 278,-21 274.5,-21 271,-17.5 271,-14 271,-14 271,-7 271,-7 271,-3.5 274.5,0 278,0 278,0 333,0 333,0 336.5,0 340,-3.5 340,-7 340,-7 340,-14 340,-14 340,-17.5 336.5,-21 333,-21"/>
<text text-anchor="middle" x="305.5" y="-7.4" font-family="Times,serif" font-size="12.00">MATH101</text>
</g>
<!-- MATH101&#45;&gt;PHYS130 -->
<g id="edge29" class="edge">
<title>MATH101&#45;&gt;PHYS130</title>
<path fill="none" stroke="black" d="M340.14,-10.82C350.8,-10.92 362.66,-11.04 373.57,-11.14"/>
<polygon fill="black" stroke="black" points="373.83,-12.89 378.85,-11.19 373.86,-9.39 373.83,-12.89"/>
</g>
<!-- 1 of [&#39;PHYS102A&#39;, &#39;PHYS110&#39;, &#39;PHYS120&#39;]&#45;&gt;PHYS102B -->
<g id="edge1" class="edge">
<title>1 of [&#39;PHYS102A&#39;, &#39;PHYS110&#39;, &#39;PHYS120&#39;]&#45;&gt;PHYS102B</title>
<path fill="none" stroke="black" d="M423.35,-70.5C435.56,-70.5 456.61,-70.5 475.67,-70.5"/>
<polygon fill="black" stroke="black" points="475.98,-72.25 480.98,-70.5 475.98,-68.75 475.98,-72.25"/>
</g>
<!-- 1 of [&#39;MATH100&#39;, &#39;MATH109&#39;]&#45;&gt;PHYS120 -->
<g id="edge5" class="edge">
<title>1 of [&#39;MATH100&#39;, &#39;MATH109&#39;]&#45;&gt;PHYS120</title>
<path fill="none" stroke="black" d="M232.12,-38.5C240.93,-38.5 254.27,-38.5 267.11,-38.5"/>
<polygon fill="black" stroke="black" points="267.19,-40.25 272.19,-38.5 267.19,-36.75 267.19,-40.25"/>
</g>
<!-- 1 of [&#39;MATH100&#39;, &#39;MATH109&#39;]&#45;&gt;MATH101 -->
<g id="edge34" class="edge">
<title>1 of [&#39;MATH100&#39;, &#39;MATH109&#39;]&#45;&gt;MATH101</title>
<path fill="none" stroke="black" d="M231.79,-35.18C240.91,-32.08 255.09,-27.27 268.51,-22.71"/>
<polygon fill="black" stroke="black" points="269.24,-24.31 273.41,-21.05 268.12,-21 269.24,-24.31"/>
</g>
<!-- 1 of [&#39;MATH100&#39;, &#39;MATH102&#39;, &#39;MATH109&#39;]&#45;&gt;PHYS110 -->
<g id="edge8" class="edge">
<title>1 of [&#39;MATH100&#39;, &#39;MATH102&#39;, &#39;MATH109&#39;]&#45;&gt;PHYS110</title>
<path fill="none" stroke="black" d="M232.12,-67.38C240.93,-67.27 254.27,-67.11 267.11,-66.95"/>
<polygon fill="black" stroke="black" points="267.21,-68.7 272.19,-66.89 267.17,-65.2 267.21,-68.7"/>
</g>
<!-- 1 of [&#39;MATH100&#39;, &#39;MATH102&#39;, &#39;MATH109&#39;]&#45;&gt;PHYS111 -->
<g id="edge32" class="edge">
<title>1 of [&#39;MATH100&#39;, &#39;MATH102&#39;, &#39;MATH109&#39;]&#45;&gt;PHYS111</title>
<path fill="none" stroke="black" d="M228.4,-75.92C236.42,-85.75 251.19,-101.55 268,-108.5 302,-122.55 344.46,-123.03 374.25,-120.94"/>
<polygon fill="black" stroke="black" points="374.43,-122.68 379.28,-120.55 374.16,-119.19 374.43,-122.68"/>
</g>
<!-- 1 of [&#39;MATH100&#39;, &#39;MATH102&#39;, &#39;MATH109&#39;, &#39;MATH120&#39;, &#39;MATH122&#39;, &#39;MATH151&#39;, &#39;MATH110&#39;]&#45;&gt;EOS220 -->
<g id="edge12" class="edge">
<title>1 of [&#39;MATH100&#39;, &#39;MATH102&#39;, &#39;MATH109&#39;, &#39;MATH120&#39;, &#39;MATH122&#39;, &#39;MATH151&#39;, &#39;MATH110&#39;]&#45;&gt;EOS220</title>
<path fill="none" stroke="black" d="M232.21,-135.16C260.52,-139.62 342.44,-151.5 411,-151.5 411,-151.5 411,-151.5 519,-151.5 563,-151.5 612.3,-138.4 643.95,-128.23"/>
<polygon fill="black" stroke="black" points="644.66,-129.84 648.87,-126.62 643.58,-126.51 644.66,-129.84"/>
</g>
<!-- 1 of [&#39;PHYS110&#39;, &#39;PHYS120&#39;, &#39;PHYS102A&#39;, &#39;PHYS112&#39;, &#39;PHYS111&#39;, &#39;PHYS102B&#39;, &#39;PHYS130&#39;]&#45;&gt;EOS220 -->
<g id="edge20" class="edge">
<title>1 of [&#39;PHYS110&#39;, &#39;PHYS120&#39;, &#39;PHYS102A&#39;, &#39;PHYS112&#39;, &#39;PHYS111&#39;, &#39;PHYS102B&#39;, &#39;PHYS130&#39;]&#45;&gt;EOS220</title>
<path fill="none" stroke="black" d="M612.37,-85.93C621.79,-90.39 636.77,-97.47 649.93,-103.7"/>
<polygon fill="black" stroke="black" points="649.42,-105.39 654.68,-105.95 650.91,-102.23 649.42,-105.39"/>
</g>
</g>
</svg>
