<?xml version="1.0" encoding="UTF-8" standalone="no"?>
<!DOCTYPE svg PUBLIC "-//W3C//DTD SVG 1.1//EN"
 "http://www.w3.org/Graphics/SVG/1.1/DTD/svg11.dtd">
<!-- Generated by graphviz version 2.43.0 (0)
 -->
<!-- Title: unix Pages: 1 -->
<svg width="1047pt" height="411pt"
 viewBox="0.00 0.00 1047.00 411.11" xmlns="http://www.w3.org/2000/svg" xmlns:xlink="http://www.w3.org/1999/xlink">
<g id="graph0" class="graph" transform="scale(1 1) rotate(0) translate(4 407.11)">
<title>unix</title>
<polygon fill="white" stroke="transparent" points="-4,4 -4,-407.11 1043,-407.11 1043,4 -4,4"/>
<text text-anchor="middle" x="519.5" y="-387.91" font-family="Times,serif" font-size="14.00">EOS210: Introductory Geophysics</text>
<!-- PHYS120 -->
<g id="node1" class="node">
<title>PHYS120</title>
<path fill="#e7a79b" stroke="#030a10" d="M331.5,-104C331.5,-104 279.5,-104 279.5,-104 276,-104 272.5,-100.5 272.5,-97 272.5,-97 272.5,-90 272.5,-90 272.5,-86.5 276,-83 279.5,-83 279.5,-83 331.5,-83 331.5,-83 335,-83 338.5,-86.5 338.5,-90 338.5,-90 338.5,-97 338.5,-97 338.5,-100.5 335,-104 331.5,-104"/>
<text text-anchor="middle" x="305.5" y="-90.4" font-family="Times,serif" font-size="12.00">PHYS120</text>
</g>
<!-- 1 of [&#39;PHYS102A&#39;, &#39;PHYS110&#39;, &#39;PHYS120&#39;] -->
<g id="node17" class="node">
<title>1 of [&#39;PHYS102A&#39;, &#39;PHYS110&#39;, &#39;PHYS120&#39;]</title>
<ellipse fill="#e9dbd0" stroke="#030a10" cx="413.5" cy="-107.5" rx="11" ry="11"/>
<text text-anchor="middle" x="413.5" y="-104.4" font-family="Times,serif" font-size="12.00">1</text>
</g>
<!-- PHYS120&#45;&gt;1 of [&#39;PHYS102A&#39;, &#39;PHYS110&#39;, &#39;PHYS120&#39;] -->
<g id="edge10" class="edge">
<title>PHYS120&#45;&gt;1 of [&#39;PHYS102A&#39;, &#39;PHYS110&#39;, &#39;PHYS120&#39;]</title>
<path fill="none" stroke="black" d="M338.59,-97.74C357.91,-100.29 381.65,-103.42 396.92,-105.44"/>
<polygon fill="black" stroke="black" points="396.95,-107.21 402.14,-106.13 397.41,-103.74 396.95,-107.21"/>
</g>
<!-- 1 of [&#39;PHYS110&#39;, &#39;PHYS120&#39;] -->
<g id="node23" class="node">
<title>1 of [&#39;PHYS110&#39;, &#39;PHYS120&#39;]</title>
<ellipse fill="#e9dbd0" stroke="#030a10" cx="413.5" cy="-67.5" rx="11" ry="11"/>
<text text-anchor="middle" x="413.5" y="-64.4" font-family="Times,serif" font-size="12.00">1</text>
</g>
<!-- PHYS120&#45;&gt;1 of [&#39;PHYS110&#39;, &#39;PHYS120&#39;] -->
<g id="edge18" class="edge">
<title>PHYS120&#45;&gt;1 of [&#39;PHYS110&#39;, &#39;PHYS120&#39;]</title>
<path fill="none" stroke="black" d="M338.59,-85.63C358.13,-80.84 382.18,-74.94 397.43,-71.2"/>
<polygon fill="black" stroke="black" points="398.19,-72.81 402.63,-69.92 397.35,-69.41 398.19,-72.81"/>
</g>
<!-- EOS340 -->
<g id="node2" class="node">
<title>EOS340</title>
<path fill="#f5edc9" stroke="#030a10" d="M938,-315C938,-315 894,-315 894,-315 890.5,-315 887,-311.5 887,-308 887,-308 887,-301 887,-301 887,-297.5 890.5,-294 894,-294 894,-294 938,-294 938,-294 941.5,-294 945,-297.5 945,-301 945,-301 945,-308 945,-308 945,-311.5 941.5,-315 938,-315"/>
<text text-anchor="middle" x="916" y="-301.4" font-family="Times,serif" font-size="12.00">EOS340</text>
</g>
<!-- EOS433 -->
<g id="node6" class="node">
<title>EOS433</title>
<path fill="#f5edc9" stroke="#030a10" d="M1032,-315C1032,-315 988,-315 988,-315 984.5,-315 981,-311.5 981,-308 981,-308 981,-301 981,-301 981,-297.5 984.5,-294 988,-294 988,-294 1032,-294 1032,-294 1035.5,-294 1039,-297.5 1039,-301 1039,-301 1039,-308 1039,-308 1039,-311.5 1035.5,-315 1032,-315"/>
<text text-anchor="middle" x="1010" y="-301.4" font-family="Times,serif" font-size="12.00">EOS433</text>
</g>
<!-- EOS340&#45;&gt;EOS433 -->
<g id="edge39" class="edge">
<title>EOS340&#45;&gt;EOS433</title>
<path fill="none" stroke="black" d="M945.1,-304.5C954.73,-304.5 965.6,-304.5 975.61,-304.5"/>
<polygon fill="black" stroke="black" points="975.75,-306.25 980.75,-304.5 975.75,-302.75 975.75,-306.25"/>
</g>
<!-- EOS210 -->
<g id="node3" class="node">
<title>EOS210</title>
<path fill="#9fa7be" stroke="#030a10" d="M543,-49C543,-49 499,-49 499,-49 495.5,-49 492,-45.5 492,-42 492,-42 492,-35 492,-35 492,-31.5 495.5,-28 499,-28 499,-28 543,-28 543,-28 546.5,-28 550,-31.5 550,-35 550,-35 550,-42 550,-42 550,-45.5 546.5,-49 543,-49"/>
<text text-anchor="middle" x="521" y="-35.4" font-family="Times,serif" font-size="12.00">EOS210</text>
</g>
<!-- EOS321 -->
<g id="node7" class="node">
<title>EOS321</title>
<path fill="#e7a79b" stroke="#030a10" d="M645,-35C645,-35 601,-35 601,-35 597.5,-35 594,-31.5 594,-28 594,-28 594,-21 594,-21 594,-17.5 597.5,-14 601,-14 601,-14 645,-14 645,-14 648.5,-14 652,-17.5 652,-21 652,-21 652,-28 652,-28 652,-31.5 648.5,-35 645,-35"/>
<text text-anchor="middle" x="623" y="-21.4" font-family="Times,serif" font-size="12.00">EOS321</text>
</g>
<!-- EOS210&#45;&gt;EOS321 -->
<g id="edge40" class="edge">
<title>EOS210&#45;&gt;EOS321</title>
<path fill="none" stroke="black" d="M550.12,-34.56C562.05,-32.89 576.05,-30.93 588.51,-29.19"/>
<polygon fill="black" stroke="black" points="589.03,-30.88 593.74,-28.46 588.55,-27.42 589.03,-30.88"/>
</g>
<!-- 1 of [&#39;CSC110&#39;, &#39;CSC111&#39;, &#39;EOS210&#39;, &#39;EOS230&#39;, &#39;GEOG230&#39;, &#39;EOS261&#39;, &#39;EOS314&#39;] -->
<g id="node26" class="node">
<title>1 of [&#39;CSC110&#39;, &#39;CSC111&#39;, &#39;EOS210&#39;, &#39;EOS230&#39;, &#39;GEOG230&#39;, &#39;EOS261&#39;, &#39;EOS314&#39;]</title>
<ellipse fill="#e9dbd0" stroke="#030a10" cx="623" cy="-150.5" rx="11" ry="11"/>
<text text-anchor="middle" x="623" y="-147.4" font-family="Times,serif" font-size="12.00">1</text>
</g>
<!-- EOS210&#45;&gt;1 of [&#39;CSC110&#39;, &#39;CSC111&#39;, &#39;EOS210&#39;, &#39;EOS230&#39;, &#39;GEOG230&#39;, &#39;EOS261&#39;, &#39;EOS314&#39;] -->
<g id="edge25" class="edge">
<title>EOS210&#45;&gt;1 of [&#39;CSC110&#39;, &#39;CSC111&#39;, &#39;EOS210&#39;, &#39;EOS230&#39;, &#39;GEOG230&#39;, &#39;EOS261&#39;, &#39;EOS314&#39;]</title>
<path fill="none" stroke="black" d="M550.09,-47.38C552.91,-48.86 555.6,-50.56 558,-52.5 586.34,-75.49 606.42,-114.46 615.87,-135.67"/>
<polygon fill="black" stroke="black" points="614.34,-136.53 617.94,-140.41 617.55,-135.13 614.34,-136.53"/>
</g>
<!-- EOS325 -->
<g id="node4" class="node">
<title>EOS325</title>
<path fill="#e7a79b" stroke="#030a10" d="M744.5,-178C744.5,-178 700.5,-178 700.5,-178 697,-178 693.5,-174.5 693.5,-171 693.5,-171 693.5,-164 693.5,-164 693.5,-160.5 697,-157 700.5,-157 700.5,-157 744.5,-157 744.5,-157 748,-157 751.5,-160.5 751.5,-164 751.5,-164 751.5,-171 751.5,-171 751.5,-174.5 748,-178 744.5,-178"/>
<text text-anchor="middle" x="722.5" y="-164.4" font-family="Times,serif" font-size="12.00">EOS325</text>
</g>
<!-- 1 of [&#39;EOS325&#39;, &#39;MATH204&#39;] -->
<g id="node15" class="node">
<title>1 of [&#39;EOS325&#39;, &#39;MATH204&#39;]</title>
<ellipse fill="#e9dbd0" stroke="#030a10" cx="822" cy="-262.5" rx="11" ry="11"/>
<text text-anchor="middle" x="822" y="-259.4" font-family="Times,serif" font-size="12.00">1</text>
</g>
<!-- EOS325&#45;&gt;1 of [&#39;EOS325&#39;, &#39;MATH204&#39;] -->
<g id="edge5" class="edge">
<title>EOS325&#45;&gt;1 of [&#39;EOS325&#39;, &#39;MATH204&#39;]</title>
<path fill="none" stroke="black" d="M750.5,-178.18C752.78,-179.5 754.98,-180.94 757,-182.5 781.43,-201.4 802.17,-231.48 812.98,-248.87"/>
<polygon fill="black" stroke="black" points="811.66,-250.06 815.76,-253.41 814.65,-248.23 811.66,-250.06"/>
</g>
<!-- 1 of [&#39;EOS325&#39;, &#39;MATH248&#39;, &#39;PHYS248&#39;] -->
<g id="node33" class="node">
<title>1 of [&#39;EOS325&#39;, &#39;MATH248&#39;, &#39;PHYS248&#39;]</title>
<ellipse fill="#e9dbd0" stroke="#030a10" cx="822" cy="-181.5" rx="11" ry="11"/>
<text text-anchor="middle" x="822" y="-178.4" font-family="Times,serif" font-size="12.00">1</text>
</g>
<!-- EOS325&#45;&gt;1 of [&#39;EOS325&#39;, &#39;MATH248&#39;, &#39;PHYS248&#39;] -->
<g id="edge32" class="edge">
<title>EOS325&#45;&gt;1 of [&#39;EOS325&#39;, &#39;MATH248&#39;, &#39;PHYS248&#39;]</title>
<path fill="none" stroke="black" d="M751.7,-171.55C769.18,-174.06 790.97,-177.19 805.4,-179.26"/>
<polygon fill="black" stroke="black" points="805.53,-181.05 810.73,-180.02 806.03,-177.58 805.53,-181.05"/>
</g>
<!-- 1 of [&#39;EOS225&#39;, &#39;EOS325&#39;] -->
<g id="node41" class="node">
<title>1 of [&#39;EOS225&#39;, &#39;EOS325&#39;]</title>
<ellipse fill="#e9dbd0" stroke="#030a10" cx="822" cy="-106.5" rx="11" ry="11"/>
<text text-anchor="middle" x="822" y="-103.4" font-family="Times,serif" font-size="12.00">1</text>
</g>
<!-- EOS325&#45;&gt;1 of [&#39;EOS225&#39;, &#39;EOS325&#39;] -->
<g id="edge46" class="edge">
<title>EOS325&#45;&gt;1 of [&#39;EOS225&#39;, &#39;EOS325&#39;]</title>
<path fill="none" stroke="black" d="M740.48,-156.87C759.63,-144.89 790.37,-125.66 807.8,-114.76"/>
<polygon fill="black" stroke="black" points="809.04,-116.05 812.35,-111.91 807.18,-113.08 809.04,-116.05"/>
</g>
<!-- EOS460 -->
<g id="node5" class="node">
<title>EOS460</title>
<path fill="#f5edc9" stroke="#030a10" d="M938,-139C938,-139 894,-139 894,-139 890.5,-139 887,-135.5 887,-132 887,-132 887,-125 887,-125 887,-121.5 890.5,-118 894,-118 894,-118 938,-118 938,-118 941.5,-118 945,-121.5 945,-125 945,-125 945,-132 945,-132 945,-135.5 941.5,-139 938,-139"/>
<text text-anchor="middle" x="916" y="-125.4" font-family="Times,serif" font-size="12.00">EOS460</text>
</g>
<!-- MATH101 -->
<g id="node8" class="node">
<title>MATH101</title>
<path fill="#e7a79b" stroke="#030a10" d="M441,-49C441,-49 386,-49 386,-49 382.5,-49 379,-45.5 379,-42 379,-42 379,-35 379,-35 379,-31.5 382.5,-28 386,-28 386,-28 441,-28 441,-28 444.5,-28 448,-31.5 448,-35 448,-35 448,-42 448,-42 448,-45.5 444.5,-49 441,-49"/>
<text text-anchor="middle" x="413.5" y="-35.4" font-family="Times,serif" font-size="12.00">MATH101</text>
</g>
<!-- MATH101&#45;&gt;EOS210 -->
<g id="edge15" class="edge">
<title>MATH101&#45;&gt;EOS210</title>
<path fill="none" stroke="black" d="M448.17,-38.5C460.52,-38.5 474.48,-38.5 486.78,-38.5"/>
<polygon fill="black" stroke="black" points="486.95,-40.25 491.95,-38.5 486.95,-36.75 486.95,-40.25"/>
</g>
<!-- EOS423 -->
<g id="node9" class="node">
<title>EOS423</title>
<path fill="#f5edc9" stroke="#030a10" d="M938,-85C938,-85 894,-85 894,-85 890.5,-85 887,-81.5 887,-78 887,-78 887,-71 887,-71 887,-67.5 890.5,-64 894,-64 894,-64 938,-64 938,-64 941.5,-64 945,-67.5 945,-71 945,-71 945,-78 945,-78 945,-81.5 941.5,-85 938,-85"/>
<text text-anchor="middle" x="916" y="-71.4" font-family="Times,serif" font-size="12.00">EOS423</text>
</g>
<!-- PHYS110 -->
<g id="node10" class="node">
<title>PHYS110</title>
<path fill="#e7a79b" stroke="#030a10" d="M331.5,-76C331.5,-76 279.5,-76 279.5,-76 276,-76 272.5,-72.5 272.5,-69 272.5,-69 272.5,-62 272.5,-62 272.5,-58.5 276,-55 279.5,-55 279.5,-55 331.5,-55 331.5,-55 335,-55 338.5,-58.5 338.5,-62 338.5,-62 338.5,-69 338.5,-69 338.5,-72.5 335,-76 331.5,-76"/>
<text text-anchor="middle" x="305.5" y="-62.4" font-family="Times,serif" font-size="12.00">PHYS110</text>
</g>
<!-- PHYS110&#45;&gt;1 of [&#39;PHYS102A&#39;, &#39;PHYS110&#39;, &#39;PHYS120&#39;] -->
<g id="edge9" class="edge">
<title>PHYS110&#45;&gt;1 of [&#39;PHYS102A&#39;, &#39;PHYS110&#39;, &#39;PHYS120&#39;]</title>
<path fill="none" stroke="black" d="M334.02,-76C337.05,-77.17 340.09,-78.36 343,-79.5 362.19,-87.05 384.27,-95.98 398.29,-101.7"/>
<polygon fill="black" stroke="black" points="397.79,-103.38 403.08,-103.65 399.11,-100.14 397.79,-103.38"/>
</g>
<!-- PHYS110&#45;&gt;1 of [&#39;PHYS110&#39;, &#39;PHYS120&#39;] -->
<g id="edge17" class="edge">
<title>PHYS110&#45;&gt;1 of [&#39;PHYS110&#39;, &#39;PHYS120&#39;]</title>
<path fill="none" stroke="black" d="M338.59,-66.11C357.91,-66.47 381.65,-66.92 396.92,-67.21"/>
<polygon fill="black" stroke="black" points="397.11,-68.96 402.14,-67.3 397.17,-65.46 397.11,-68.96"/>
</g>
<!-- MATH102 -->
<g id="node11" class="node">
<title>MATH102</title>
<path fill="#f5edc9" stroke="#030a10" d="M167,-48C167,-48 112,-48 112,-48 108.5,-48 105,-44.5 105,-41 105,-41 105,-34 105,-34 105,-30.5 108.5,-27 112,-27 112,-27 167,-27 167,-27 170.5,-27 174,-30.5 174,-34 174,-34 174,-41 174,-41 174,-44.5 170.5,-48 167,-48"/>
<text text-anchor="middle" x="139.5" y="-34.4" font-family="Times,serif" font-size="12.00">MATH102</text>
</g>
<!-- 1 of [&#39;MATH100&#39;, &#39;MATH102&#39;, &#39;MATH109&#39;] -->
<g id="node43" class="node">
<title>1 of [&#39;MATH100&#39;, &#39;MATH102&#39;, &#39;MATH109&#39;]</title>
<ellipse fill="#e9dbd0" stroke="#030a10" cx="221" cy="-64.5" rx="11" ry="11"/>
<text text-anchor="middle" x="221" y="-61.4" font-family="Times,serif" font-size="12.00">1</text>
</g>
<!-- MATH102&#45;&gt;1 of [&#39;MATH100&#39;, &#39;MATH102&#39;, &#39;MATH109&#39;] -->
<g id="edge49" class="edge">
<title>MATH102&#45;&gt;1 of [&#39;MATH100&#39;, &#39;MATH102&#39;, &#39;MATH109&#39;]</title>
<path fill="none" stroke="black" d="M171.46,-48.02C183.09,-51.96 195.77,-56.27 205.25,-59.49"/>
<polygon fill="black" stroke="black" points="204.87,-61.21 210.16,-61.16 205.99,-57.89 204.87,-61.21"/>
</g>
<!-- MATH109 -->
<g id="node12" class="node">
<title>MATH109</title>
<path fill="#f5edc9" stroke="#030a10" d="M167,-76C167,-76 112,-76 112,-76 108.5,-76 105,-72.5 105,-69 105,-69 105,-62 105,-62 105,-58.5 108.5,-55 112,-55 112,-55 167,-55 167,-55 170.5,-55 174,-58.5 174,-62 174,-62 174,-69 174,-69 174,-72.5 170.5,-76 167,-76"/>
<text text-anchor="middle" x="139.5" y="-62.4" font-family="Times,serif" font-size="12.00">MATH109</text>
</g>
<!-- 1 of [&#39;MATH100&#39;, &#39;MATH109&#39;] -->
<g id="node14" class="node">
<title>1 of [&#39;MATH100&#39;, &#39;MATH109&#39;]</title>
<ellipse fill="#e9dbd0" stroke="#030a10" cx="221" cy="-93.5" rx="11" ry="11"/>
<text text-anchor="middle" x="221" y="-90.4" font-family="Times,serif" font-size="12.00">1</text>
</g>
<!-- MATH109&#45;&gt;1 of [&#39;MATH100&#39;, &#39;MATH109&#39;] -->
<g id="edge3" class="edge">
<title>MATH109&#45;&gt;1 of [&#39;MATH100&#39;, &#39;MATH109&#39;]</title>
<path fill="none" stroke="black" d="M170.56,-76.09C182.54,-80.31 195.77,-84.97 205.53,-88.4"/>
<polygon fill="black" stroke="black" points="204.99,-90.07 210.29,-90.08 206.16,-86.77 204.99,-90.07"/>
</g>
<!-- MATH109&#45;&gt;1 of [&#39;MATH100&#39;, &#39;MATH102&#39;, &#39;MATH109&#39;] -->
<g id="edge50" class="edge">
<title>MATH109&#45;&gt;1 of [&#39;MATH100&#39;, &#39;MATH102&#39;, &#39;MATH109&#39;]</title>
<path fill="none" stroke="black" d="M174.22,-65.08C184.87,-64.94 196.12,-64.8 204.8,-64.69"/>
<polygon fill="black" stroke="black" points="204.86,-66.44 209.84,-64.63 204.82,-62.94 204.86,-66.44"/>
</g>
<!-- MATH100 -->
<g id="node13" class="node">
<title>MATH100</title>
<path fill="#f5edc9" stroke="#030a10" d="M167,-104C167,-104 112,-104 112,-104 108.5,-104 105,-100.5 105,-97 105,-97 105,-90 105,-90 105,-86.5 108.5,-83 112,-83 112,-83 167,-83 167,-83 170.5,-83 174,-86.5 174,-90 174,-90 174,-97 174,-97 174,-100.5 170.5,-104 167,-104"/>
<text text-anchor="middle" x="139.5" y="-90.4" font-family="Times,serif" font-size="12.00">MATH100</text>
</g>
<!-- MATH100&#45;&gt;1 of [&#39;MATH100&#39;, &#39;MATH109&#39;] -->
<g id="edge2" class="edge">
<title>MATH100&#45;&gt;1 of [&#39;MATH100&#39;, &#39;MATH109&#39;]</title>
<path fill="none" stroke="black" d="M174.22,-93.5C184.87,-93.5 196.12,-93.5 204.8,-93.5"/>
<polygon fill="black" stroke="black" points="204.84,-95.25 209.84,-93.5 204.84,-91.75 204.84,-95.25"/>
</g>
<!-- MATH100&#45;&gt;1 of [&#39;MATH100&#39;, &#39;MATH102&#39;, &#39;MATH109&#39;] -->
<g id="edge48" class="edge">
<title>MATH100&#45;&gt;1 of [&#39;MATH100&#39;, &#39;MATH102&#39;, &#39;MATH109&#39;]</title>
<path fill="none" stroke="black" d="M169.65,-82.87C181.88,-78.41 195.55,-73.42 205.56,-69.77"/>
<polygon fill="black" stroke="black" points="206.33,-71.35 210.43,-67.99 205.13,-68.06 206.33,-71.35"/>
</g>
<!-- 1 of [&#39;MATH100&#39;, &#39;MATH109&#39;]&#45;&gt;PHYS120 -->
<g id="edge1" class="edge">
<title>1 of [&#39;MATH100&#39;, &#39;MATH109&#39;]&#45;&gt;PHYS120</title>
<path fill="none" stroke="black" d="M232.12,-93.5C240.93,-93.5 254.27,-93.5 267.11,-93.5"/>
<polygon fill="black" stroke="black" points="267.19,-95.25 272.19,-93.5 267.19,-91.75 267.19,-95.25"/>
</g>
<!-- 1 of [&#39;MATH100&#39;, &#39;MATH109&#39;]&#45;&gt;MATH101 -->
<g id="edge42" class="edge">
<title>1 of [&#39;MATH100&#39;, &#39;MATH109&#39;]&#45;&gt;MATH101</title>
<path fill="none" stroke="black" d="M228.39,-84.97C236.41,-75 251.18,-58.91 268,-51.5 301.56,-36.72 343.68,-34.55 373.77,-35.42"/>
<polygon fill="black" stroke="black" points="373.81,-37.17 378.87,-35.6 373.93,-33.67 373.81,-37.17"/>
</g>
<!-- 1 of [&#39;EOS325&#39;, &#39;MATH204&#39;]&#45;&gt;EOS340 -->
<g id="edge4" class="edge">
<title>1 of [&#39;EOS325&#39;, &#39;MATH204&#39;]&#45;&gt;EOS340</title>
<path fill="none" stroke="black" d="M832.5,-266.84C845.28,-272.67 868.56,-283.3 887.13,-291.78"/>
<polygon fill="black" stroke="black" points="886.47,-293.4 891.75,-293.88 887.92,-290.22 886.47,-293.4"/>
</g>
<!-- MATH204 -->
<g id="node16" class="node">
<title>MATH204</title>
<path fill="#f5edc9" stroke="#030a10" d="M548.5,-273C548.5,-273 493.5,-273 493.5,-273 490,-273 486.5,-269.5 486.5,-266 486.5,-266 486.5,-259 486.5,-259 486.5,-255.5 490,-252 493.5,-252 493.5,-252 548.5,-252 548.5,-252 552,-252 555.5,-255.5 555.5,-259 555.5,-259 555.5,-266 555.5,-266 555.5,-269.5 552,-273 548.5,-273"/>
<text text-anchor="middle" x="521" y="-259.4" font-family="Times,serif" font-size="12.00">MATH204</text>
</g>
<!-- MATH204&#45;&gt;1 of [&#39;EOS325&#39;, &#39;MATH204&#39;] -->
<g id="edge6" class="edge">
<title>MATH204&#45;&gt;1 of [&#39;EOS325&#39;, &#39;MATH204&#39;]</title>
<path fill="none" stroke="black" d="M555.72,-262.5C620.44,-262.5 759.76,-262.5 805.85,-262.5"/>
<polygon fill="black" stroke="black" points="806,-264.25 811,-262.5 806,-260.75 806,-264.25"/>
</g>
<!-- 1 of [&#39;MATH202&#39;, &#39;MATH204&#39;] -->
<g id="node24" class="node">
<title>1 of [&#39;MATH202&#39;, &#39;MATH204&#39;]</title>
<ellipse fill="#e9dbd0" stroke="#030a10" cx="623" cy="-234.5" rx="11" ry="11"/>
<text text-anchor="middle" x="623" y="-231.4" font-family="Times,serif" font-size="12.00">1</text>
</g>
<!-- MATH204&#45;&gt;1 of [&#39;MATH202&#39;, &#39;MATH204&#39;] -->
<g id="edge21" class="edge">
<title>MATH204&#45;&gt;1 of [&#39;MATH202&#39;, &#39;MATH204&#39;]</title>
<path fill="none" stroke="black" d="M555.58,-253.1C573.01,-248.22 593.44,-242.5 606.99,-238.7"/>
<polygon fill="black" stroke="black" points="607.66,-240.33 612,-237.3 606.71,-236.96 607.66,-240.33"/>
</g>
<!-- 1 of [&#39;PHYS102A&#39;, &#39;PHYS110&#39;, &#39;PHYS120&#39;]&#45;&gt;EOS340 -->
<g id="edge7" class="edge">
<title>1 of [&#39;PHYS102A&#39;, &#39;PHYS110&#39;, &#39;PHYS120&#39;]&#45;&gt;EOS340</title>
<path fill="none" stroke="black" d="M415.81,-118.32C421.4,-162.54 444.78,-328.77 484,-360.5 531.76,-399.15 560.56,-368.5 622,-368.5 622,-368.5 622,-368.5 723.5,-368.5 787.24,-368.5 857.05,-336.21 892.14,-317.5"/>
<polygon fill="black" stroke="black" points="893.09,-318.98 896.66,-315.07 891.43,-315.9 893.09,-318.98"/>
</g>
<!-- PHYS102A -->
<g id="node18" class="node">
<title>PHYS102A</title>
<path fill="#f5edc9" stroke="#030a10" d="M336,-132C336,-132 275,-132 275,-132 271.5,-132 268,-128.5 268,-125 268,-125 268,-118 268,-118 268,-114.5 271.5,-111 275,-111 275,-111 336,-111 336,-111 339.5,-111 343,-114.5 343,-118 343,-118 343,-125 343,-125 343,-128.5 339.5,-132 336,-132"/>
<text text-anchor="middle" x="305.5" y="-118.4" font-family="Times,serif" font-size="12.00">PHYS102A</text>
</g>
<!-- PHYS102A&#45;&gt;1 of [&#39;PHYS102A&#39;, &#39;PHYS110&#39;, &#39;PHYS120&#39;] -->
<g id="edge8" class="edge">
<title>PHYS102A&#45;&gt;1 of [&#39;PHYS102A&#39;, &#39;PHYS110&#39;, &#39;PHYS120&#39;]</title>
<path fill="none" stroke="black" d="M343.28,-116.64C361.65,-114.22 382.89,-111.41 396.95,-109.55"/>
<polygon fill="black" stroke="black" points="397.42,-111.26 402.15,-108.87 396.96,-107.79 397.42,-111.26"/>
</g>
<!-- 1 of [&#39;PHYS102B&#39;, &#39;PHYS111&#39;, &#39;PHYS130&#39;] -->
<g id="node19" class="node">
<title>1 of [&#39;PHYS102B&#39;, &#39;PHYS111&#39;, &#39;PHYS130&#39;]</title>
<ellipse fill="#e9dbd0" stroke="#030a10" cx="623" cy="-304.5" rx="11" ry="11"/>
<text text-anchor="middle" x="623" y="-301.4" font-family="Times,serif" font-size="12.00">1</text>
</g>
<!-- 1 of [&#39;PHYS102B&#39;, &#39;PHYS111&#39;, &#39;PHYS130&#39;]&#45;&gt;EOS340 -->
<g id="edge11" class="edge">
<title>1 of [&#39;PHYS102B&#39;, &#39;PHYS111&#39;, &#39;PHYS130&#39;]&#45;&gt;EOS340</title>
<path fill="none" stroke="black" d="M634.02,-304.5C673,-304.5 815.65,-304.5 881.4,-304.5"/>
<polygon fill="black" stroke="black" points="881.76,-306.25 886.76,-304.5 881.76,-302.75 881.76,-306.25"/>
</g>
<!-- 1 of [&#39;PHYS102B&#39;, &#39;PHYS111&#39;, &#39;PHYS130&#39;]&#45;&gt;EOS325 -->
<g id="edge30" class="edge">
<title>1 of [&#39;PHYS102B&#39;, &#39;PHYS111&#39;, &#39;PHYS130&#39;]&#45;&gt;EOS325</title>
<path fill="none" stroke="black" d="M628.82,-295.12C643.32,-266.91 685.69,-184.67 688,-182.5 688.42,-182.11 688.85,-181.72 689.29,-181.35"/>
<polygon fill="black" stroke="black" points="690.54,-182.6 693.5,-178.21 688.45,-179.79 690.54,-182.6"/>
</g>
<!-- PHYS102B -->
<g id="node20" class="node">
<title>PHYS102B</title>
<path fill="#f5edc9" stroke="#030a10" d="M551,-357C551,-357 491,-357 491,-357 487.5,-357 484,-353.5 484,-350 484,-350 484,-343 484,-343 484,-339.5 487.5,-336 491,-336 491,-336 551,-336 551,-336 554.5,-336 558,-339.5 558,-343 558,-343 558,-350 558,-350 558,-353.5 554.5,-357 551,-357"/>
<text text-anchor="middle" x="521" y="-343.4" font-family="Times,serif" font-size="12.00">PHYS102B</text>
</g>
<!-- PHYS102B&#45;&gt;1 of [&#39;PHYS102B&#39;, &#39;PHYS111&#39;, &#39;PHYS130&#39;] -->
<g id="edge12" class="edge">
<title>PHYS102B&#45;&gt;1 of [&#39;PHYS102B&#39;, &#39;PHYS111&#39;, &#39;PHYS130&#39;]</title>
<path fill="none" stroke="black" d="M549.56,-335.92C552.42,-334.78 555.27,-333.63 558,-332.5 575.22,-325.39 594.82,-316.73 607.74,-310.94"/>
<polygon fill="black" stroke="black" points="608.67,-312.44 612.51,-308.8 607.23,-309.25 608.67,-312.44"/>
</g>
<!-- PHYS111 -->
<g id="node21" class="node">
<title>PHYS111</title>
<path fill="#f5edc9" stroke="#030a10" d="M546.5,-329C546.5,-329 495.5,-329 495.5,-329 492,-329 488.5,-325.5 488.5,-322 488.5,-322 488.5,-315 488.5,-315 488.5,-311.5 492,-308 495.5,-308 495.5,-308 546.5,-308 546.5,-308 550,-308 553.5,-311.5 553.5,-315 553.5,-315 553.5,-322 553.5,-322 553.5,-325.5 550,-329 546.5,-329"/>
<text text-anchor="middle" x="521" y="-315.4" font-family="Times,serif" font-size="12.00">PHYS111</text>
</g>
<!-- PHYS111&#45;&gt;1 of [&#39;PHYS102B&#39;, &#39;PHYS111&#39;, &#39;PHYS130&#39;] -->
<g id="edge13" class="edge">
<title>PHYS111&#45;&gt;1 of [&#39;PHYS102B&#39;, &#39;PHYS111&#39;, &#39;PHYS130&#39;]</title>
<path fill="none" stroke="black" d="M553.64,-314.07C571.42,-311.58 592.8,-308.59 606.86,-306.62"/>
<polygon fill="black" stroke="black" points="607.34,-308.32 612.05,-305.89 606.85,-304.85 607.34,-308.32"/>
</g>
<!-- PHYS130 -->
<g id="node22" class="node">
<title>PHYS130</title>
<path fill="#f5edc9" stroke="#030a10" d="M547,-301C547,-301 495,-301 495,-301 491.5,-301 488,-297.5 488,-294 488,-294 488,-287 488,-287 488,-283.5 491.5,-280 495,-280 495,-280 547,-280 547,-280 550.5,-280 554,-283.5 554,-287 554,-287 554,-294 554,-294 554,-297.5 550.5,-301 547,-301"/>
<text text-anchor="middle" x="521" y="-287.4" font-family="Times,serif" font-size="12.00">PHYS130</text>
</g>
<!-- PHYS130&#45;&gt;1 of [&#39;PHYS102B&#39;, &#39;PHYS111&#39;, &#39;PHYS130&#39;] -->
<g id="edge14" class="edge">
<title>PHYS130&#45;&gt;1 of [&#39;PHYS102B&#39;, &#39;PHYS111&#39;, &#39;PHYS130&#39;]</title>
<path fill="none" stroke="black" d="M554.19,-295.01C571.73,-297.46 592.64,-300.39 606.55,-302.34"/>
<polygon fill="black" stroke="black" points="606.51,-304.1 611.7,-303.06 606.99,-300.63 606.51,-304.1"/>
</g>
<!-- 1 of [&#39;PHYS110&#39;, &#39;PHYS120&#39;]&#45;&gt;EOS210 -->
<g id="edge16" class="edge">
<title>1 of [&#39;PHYS110&#39;, &#39;PHYS120&#39;]&#45;&gt;EOS210</title>
<path fill="none" stroke="black" d="M424.24,-64.82C438.37,-60.94 465.25,-53.55 486.94,-47.59"/>
<polygon fill="black" stroke="black" points="487.41,-49.27 491.76,-46.26 486.48,-45.9 487.41,-49.27"/>
</g>
<!-- 1 of [&#39;MATH202&#39;, &#39;MATH204&#39;]&#45;&gt;EOS325 -->
<g id="edge19" class="edge">
<title>1 of [&#39;MATH202&#39;, &#39;MATH204&#39;]&#45;&gt;EOS325</title>
<path fill="none" stroke="black" d="M631.77,-227.04C643.33,-216.23 666.05,-196.01 688,-182.5 689.09,-181.83 690.22,-181.17 691.37,-180.52"/>
<polygon fill="black" stroke="black" points="692.3,-182.01 695.9,-178.12 690.66,-178.92 692.3,-182.01"/>
</g>
<!-- MATH202 -->
<g id="node25" class="node">
<title>MATH202</title>
<path fill="#f5edc9" stroke="#030a10" d="M548.5,-245C548.5,-245 493.5,-245 493.5,-245 490,-245 486.5,-241.5 486.5,-238 486.5,-238 486.5,-231 486.5,-231 486.5,-227.5 490,-224 493.5,-224 493.5,-224 548.5,-224 548.5,-224 552,-224 555.5,-227.5 555.5,-231 555.5,-231 555.5,-238 555.5,-238 555.5,-241.5 552,-245 548.5,-245"/>
<text text-anchor="middle" x="521" y="-231.4" font-family="Times,serif" font-size="12.00">MATH202</text>
</g>
<!-- MATH202&#45;&gt;1 of [&#39;MATH202&#39;, &#39;MATH204&#39;] -->
<g id="edge20" class="edge">
<title>MATH202&#45;&gt;1 of [&#39;MATH202&#39;, &#39;MATH204&#39;]</title>
<path fill="none" stroke="black" d="M555.58,-234.5C573.01,-234.5 593.44,-234.5 606.99,-234.5"/>
<polygon fill="black" stroke="black" points="607,-236.25 612,-234.5 607,-232.75 607,-236.25"/>
</g>
<!-- 1 of [&#39;CSC110&#39;, &#39;CSC111&#39;, &#39;EOS210&#39;, &#39;EOS230&#39;, &#39;GEOG230&#39;, &#39;EOS261&#39;, &#39;EOS314&#39;]&#45;&gt;EOS325 -->
<g id="edge22" class="edge">
<title>1 of [&#39;CSC110&#39;, &#39;CSC111&#39;, &#39;EOS210&#39;, &#39;EOS230&#39;, &#39;GEOG230&#39;, &#39;EOS261&#39;, &#39;EOS314&#39;]&#45;&gt;EOS325</title>
<path fill="none" stroke="black" d="M634.07,-152.26C646.7,-154.46 669,-158.35 687.91,-161.64"/>
<polygon fill="black" stroke="black" points="687.92,-163.42 693.15,-162.56 688.52,-159.97 687.92,-163.42"/>
</g>
<!-- CSC110 -->
<g id="node27" class="node">
<title>CSC110</title>
<path fill="#f5edc9" stroke="#030a10" d="M543,-161C543,-161 499,-161 499,-161 495.5,-161 492,-157.5 492,-154 492,-154 492,-147 492,-147 492,-143.5 495.5,-140 499,-140 499,-140 543,-140 543,-140 546.5,-140 550,-143.5 550,-147 550,-147 550,-154 550,-154 550,-157.5 546.5,-161 543,-161"/>
<text text-anchor="middle" x="521" y="-147.4" font-family="Times,serif" font-size="12.00">CSC110</text>
</g>
<!-- CSC110&#45;&gt;1 of [&#39;CSC110&#39;, &#39;CSC111&#39;, &#39;EOS210&#39;, &#39;EOS230&#39;, &#39;GEOG230&#39;, &#39;EOS261&#39;, &#39;EOS314&#39;] -->
<g id="edge23" class="edge">
<title>CSC110&#45;&gt;1 of [&#39;CSC110&#39;, &#39;CSC111&#39;, &#39;EOS210&#39;, &#39;EOS230&#39;, &#39;GEOG230&#39;, &#39;EOS261&#39;, &#39;EOS314&#39;]</title>
<path fill="none" stroke="black" d="M550.12,-150.5C568.44,-150.5 591.63,-150.5 606.64,-150.5"/>
<polygon fill="black" stroke="black" points="606.78,-152.25 611.78,-150.5 606.78,-148.75 606.78,-152.25"/>
</g>
<!-- CSC111 -->
<g id="node28" class="node">
<title>CSC111</title>
<path fill="#f5edc9" stroke="#030a10" d="M542.5,-133C542.5,-133 499.5,-133 499.5,-133 496,-133 492.5,-129.5 492.5,-126 492.5,-126 492.5,-119 492.5,-119 492.5,-115.5 496,-112 499.5,-112 499.5,-112 542.5,-112 542.5,-112 546,-112 549.5,-115.5 549.5,-119 549.5,-119 549.5,-126 549.5,-126 549.5,-129.5 546,-133 542.5,-133"/>
<text text-anchor="middle" x="521" y="-119.4" font-family="Times,serif" font-size="12.00">CSC111</text>
</g>
<!-- CSC111&#45;&gt;1 of [&#39;CSC110&#39;, &#39;CSC111&#39;, &#39;EOS210&#39;, &#39;EOS230&#39;, &#39;GEOG230&#39;, &#39;EOS261&#39;, &#39;EOS314&#39;] -->
<g id="edge24" class="edge">
<title>CSC111&#45;&gt;1 of [&#39;CSC110&#39;, &#39;CSC111&#39;, &#39;EOS210&#39;, &#39;EOS230&#39;, &#39;GEOG230&#39;, &#39;EOS261&#39;, &#39;EOS314&#39;]</title>
<path fill="none" stroke="black" d="M549.59,-130.23C568.13,-135.42 591.84,-142.06 606.98,-146.3"/>
<polygon fill="black" stroke="black" points="606.86,-148.08 612.15,-147.74 607.8,-144.71 606.86,-148.08"/>
</g>
<!-- EOS230 -->
<g id="node29" class="node">
<title>EOS230</title>
<path fill="#f5edc9" stroke="#030a10" d="M543,-105C543,-105 499,-105 499,-105 495.5,-105 492,-101.5 492,-98 492,-98 492,-91 492,-91 492,-87.5 495.5,-84 499,-84 499,-84 543,-84 543,-84 546.5,-84 550,-87.5 550,-91 550,-91 550,-98 550,-98 550,-101.5 546.5,-105 543,-105"/>
<text text-anchor="middle" x="521" y="-91.4" font-family="Times,serif" font-size="12.00">EOS230</text>
</g>
<!-- EOS230&#45;&gt;1 of [&#39;CSC110&#39;, &#39;CSC111&#39;, &#39;EOS210&#39;, &#39;EOS230&#39;, &#39;GEOG230&#39;, &#39;EOS261&#39;, &#39;EOS314&#39;] -->
<g id="edge26" class="edge">
<title>EOS230&#45;&gt;1 of [&#39;CSC110&#39;, &#39;CSC111&#39;, &#39;EOS210&#39;, &#39;EOS230&#39;, &#39;GEOG230&#39;, &#39;EOS261&#39;, &#39;EOS314&#39;]</title>
<path fill="none" stroke="black" d="M550.2,-104.72C552.87,-105.91 555.51,-107.18 558,-108.5 575.2,-117.65 577.67,-122.88 594,-133.5 598.72,-136.57 603.98,-139.81 608.65,-142.62"/>
<polygon fill="black" stroke="black" points="607.9,-144.21 613.09,-145.28 609.69,-141.21 607.9,-144.21"/>
</g>
<!-- GEOG230 -->
<g id="node30" class="node">
<title>GEOG230</title>
<path fill="#f5edc9" stroke="#030a10" d="M548.5,-217C548.5,-217 493.5,-217 493.5,-217 490,-217 486.5,-213.5 486.5,-210 486.5,-210 486.5,-203 486.5,-203 486.5,-199.5 490,-196 493.5,-196 493.5,-196 548.5,-196 548.5,-196 552,-196 555.5,-199.5 555.5,-203 555.5,-203 555.5,-210 555.5,-210 555.5,-213.5 552,-217 548.5,-217"/>
<text text-anchor="middle" x="521" y="-203.4" font-family="Times,serif" font-size="12.00">GEOG230</text>
</g>
<!-- GEOG230&#45;&gt;1 of [&#39;CSC110&#39;, &#39;CSC111&#39;, &#39;EOS210&#39;, &#39;EOS230&#39;, &#39;GEOG230&#39;, &#39;EOS261&#39;, &#39;EOS314&#39;] -->
<g id="edge27" class="edge">
<title>GEOG230&#45;&gt;1 of [&#39;CSC110&#39;, &#39;CSC111&#39;, &#39;EOS210&#39;, &#39;EOS230&#39;, &#39;GEOG230&#39;, &#39;EOS261&#39;, &#39;EOS314&#39;]</title>
<path fill="none" stroke="black" d="M550.93,-195.87C553.35,-194.8 555.73,-193.67 558,-192.5 576.73,-182.85 596.8,-169.04 609.38,-159.93"/>
<polygon fill="black" stroke="black" points="610.65,-161.17 613.65,-156.8 608.58,-158.34 610.65,-161.17"/>
</g>
<!-- EOS261 -->
<g id="node31" class="node">
<title>EOS261</title>
<path fill="#f5edc9" stroke="#030a10" d="M543,-77C543,-77 499,-77 499,-77 495.5,-77 492,-73.5 492,-70 492,-70 492,-63 492,-63 492,-59.5 495.5,-56 499,-56 499,-56 543,-56 543,-56 546.5,-56 550,-59.5 550,-63 550,-63 550,-70 550,-70 550,-73.5 546.5,-77 543,-77"/>
<text text-anchor="middle" x="521" y="-63.4" font-family="Times,serif" font-size="12.00">EOS261</text>
</g>
<!-- EOS261&#45;&gt;EOS460 -->
<g id="edge35" class="edge">
<title>EOS261&#45;&gt;EOS460</title>
<path fill="none" stroke="black" d="M550.1,-76.7C589.98,-90.99 661.14,-115.75 688,-120.5 755.91,-132.5 836.98,-131.84 881.53,-130.21"/>
<polygon fill="black" stroke="black" points="881.85,-131.95 886.78,-130.01 881.72,-128.45 881.85,-131.95"/>
</g>
<!-- EOS261&#45;&gt;1 of [&#39;CSC110&#39;, &#39;CSC111&#39;, &#39;EOS210&#39;, &#39;EOS230&#39;, &#39;GEOG230&#39;, &#39;EOS261&#39;, &#39;EOS314&#39;] -->
<g id="edge28" class="edge">
<title>EOS261&#45;&gt;1 of [&#39;CSC110&#39;, &#39;CSC111&#39;, &#39;EOS210&#39;, &#39;EOS230&#39;, &#39;GEOG230&#39;, &#39;EOS261&#39;, &#39;EOS314&#39;]</title>
<path fill="none" stroke="black" d="M550.06,-75.43C552.88,-76.9 555.59,-78.58 558,-80.5 580.28,-98.24 573.36,-113.88 594,-133.5 598.14,-137.44 603.35,-140.9 608.14,-143.66"/>
<polygon fill="black" stroke="black" points="607.52,-145.31 612.75,-146.17 609.2,-142.24 607.52,-145.31"/>
</g>
<!-- EOS314 -->
<g id="node32" class="node">
<title>EOS314</title>
<path fill="#f5edc9" stroke="#030a10" d="M543,-189C543,-189 499,-189 499,-189 495.5,-189 492,-185.5 492,-182 492,-182 492,-175 492,-175 492,-171.5 495.5,-168 499,-168 499,-168 543,-168 543,-168 546.5,-168 550,-171.5 550,-175 550,-175 550,-182 550,-182 550,-185.5 546.5,-189 543,-189"/>
<text text-anchor="middle" x="521" y="-175.4" font-family="Times,serif" font-size="12.00">EOS314</text>
</g>
<!-- EOS314&#45;&gt;1 of [&#39;CSC110&#39;, &#39;CSC111&#39;, &#39;EOS210&#39;, &#39;EOS230&#39;, &#39;GEOG230&#39;, &#39;EOS261&#39;, &#39;EOS314&#39;] -->
<g id="edge29" class="edge">
<title>EOS314&#45;&gt;1 of [&#39;CSC110&#39;, &#39;CSC111&#39;, &#39;EOS210&#39;, &#39;EOS230&#39;, &#39;GEOG230&#39;, &#39;EOS261&#39;, &#39;EOS314&#39;]</title>
<path fill="none" stroke="black" d="M550.12,-170.63C568.64,-165.44 592.16,-158.86 607.14,-154.66"/>
<polygon fill="black" stroke="black" points="607.91,-156.26 612.26,-153.23 606.97,-152.89 607.91,-156.26"/>
</g>
<!-- 1 of [&#39;EOS325&#39;, &#39;MATH248&#39;, &#39;PHYS248&#39;]&#45;&gt;EOS460 -->
<g id="edge31" class="edge">
<title>1 of [&#39;EOS325&#39;, &#39;MATH248&#39;, &#39;PHYS248&#39;]&#45;&gt;EOS460</title>
<path fill="none" stroke="black" d="M831.82,-176.42C845.5,-168.54 872.29,-153.1 891.78,-141.88"/>
<polygon fill="black" stroke="black" points="893.11,-143.13 896.57,-139.12 891.36,-140.1 893.11,-143.13"/>
</g>
<!-- MATH248 -->
<g id="node34" class="node">
<title>MATH248</title>
<path fill="#f5edc9" stroke="#030a10" d="M750,-234C750,-234 695,-234 695,-234 691.5,-234 688,-230.5 688,-227 688,-227 688,-220 688,-220 688,-216.5 691.5,-213 695,-213 695,-213 750,-213 750,-213 753.5,-213 757,-216.5 757,-220 757,-220 757,-227 757,-227 757,-230.5 753.5,-234 750,-234"/>
<text text-anchor="middle" x="722.5" y="-220.4" font-family="Times,serif" font-size="12.00">MATH248</text>
</g>
<!-- MATH248&#45;&gt;1 of [&#39;EOS325&#39;, &#39;MATH248&#39;, &#39;PHYS248&#39;] -->
<g id="edge33" class="edge">
<title>MATH248&#45;&gt;1 of [&#39;EOS325&#39;, &#39;MATH248&#39;, &#39;PHYS248&#39;]</title>
<path fill="none" stroke="black" d="M748.76,-213C751.54,-211.82 754.33,-210.64 757,-209.5 774.13,-202.17 793.74,-193.56 806.7,-187.84"/>
<polygon fill="black" stroke="black" points="807.61,-189.35 811.48,-185.72 806.2,-186.15 807.61,-189.35"/>
</g>
<!-- PHYS248 -->
<g id="node35" class="node">
<title>PHYS248</title>
<path fill="#f5edc9" stroke="#030a10" d="M748.5,-206C748.5,-206 696.5,-206 696.5,-206 693,-206 689.5,-202.5 689.5,-199 689.5,-199 689.5,-192 689.5,-192 689.5,-188.5 693,-185 696.5,-185 696.5,-185 748.5,-185 748.5,-185 752,-185 755.5,-188.5 755.5,-192 755.5,-192 755.5,-199 755.5,-199 755.5,-202.5 752,-206 748.5,-206"/>
<text text-anchor="middle" x="722.5" y="-192.4" font-family="Times,serif" font-size="12.00">PHYS248</text>
</g>
<!-- PHYS248&#45;&gt;1 of [&#39;EOS325&#39;, &#39;MATH248&#39;, &#39;PHYS248&#39;] -->
<g id="edge34" class="edge">
<title>PHYS248&#45;&gt;1 of [&#39;EOS325&#39;, &#39;MATH248&#39;, &#39;PHYS248&#39;]</title>
<path fill="none" stroke="black" d="M755.7,-190.88C772.54,-188.46 792.38,-185.61 805.73,-183.69"/>
<polygon fill="black" stroke="black" points="805.98,-185.42 810.68,-182.98 805.49,-181.96 805.98,-185.42"/>
</g>
<!-- 1 of [&#39;EOS335&#39;, &#39;EOS430&#39;] -->
<g id="node36" class="node">
<title>1 of [&#39;EOS335&#39;, &#39;EOS430&#39;]</title>
<ellipse fill="#e9dbd0" stroke="#030a10" cx="822" cy="-77.5" rx="11" ry="11"/>
<text text-anchor="middle" x="822" y="-74.4" font-family="Times,serif" font-size="12.00">1</text>
</g>
<!-- 1 of [&#39;EOS335&#39;, &#39;EOS430&#39;]&#45;&gt;EOS460 -->
<g id="edge36" class="edge">
<title>1 of [&#39;EOS335&#39;, &#39;EOS430&#39;]&#45;&gt;EOS460</title>
<path fill="none" stroke="black" d="M832.36,-82.45C837.81,-85.35 844.81,-89.1 851,-92.5 864.52,-99.92 879.55,-108.36 891.64,-115.21"/>
<polygon fill="black" stroke="black" points="891.08,-116.9 896.29,-117.84 892.81,-113.86 891.08,-116.9"/>
</g>
<!-- EOS335 -->
<g id="node37" class="node">
<title>EOS335</title>
<path fill="#f5edc9" stroke="#030a10" d="M744.5,-88C744.5,-88 700.5,-88 700.5,-88 697,-88 693.5,-84.5 693.5,-81 693.5,-81 693.5,-74 693.5,-74 693.5,-70.5 697,-67 700.5,-67 700.5,-67 744.5,-67 744.5,-67 748,-67 751.5,-70.5 751.5,-74 751.5,-74 751.5,-81 751.5,-81 751.5,-84.5 748,-88 744.5,-88"/>
<text text-anchor="middle" x="722.5" y="-74.4" font-family="Times,serif" font-size="12.00">EOS335</text>
</g>
<!-- EOS335&#45;&gt;1 of [&#39;EOS335&#39;, &#39;EOS430&#39;] -->
<g id="edge37" class="edge">
<title>EOS335&#45;&gt;1 of [&#39;EOS335&#39;, &#39;EOS430&#39;]</title>
<path fill="none" stroke="black" d="M751.7,-77.5C769.18,-77.5 790.97,-77.5 805.4,-77.5"/>
<polygon fill="black" stroke="black" points="805.73,-79.25 810.73,-77.5 805.73,-75.75 805.73,-79.25"/>
</g>
<!-- EOS430 -->
<g id="node38" class="node">
<title>EOS430</title>
<path fill="#f5edc9" stroke="#030a10" d="M744.5,-60C744.5,-60 700.5,-60 700.5,-60 697,-60 693.5,-56.5 693.5,-53 693.5,-53 693.5,-46 693.5,-46 693.5,-42.5 697,-39 700.5,-39 700.5,-39 744.5,-39 744.5,-39 748,-39 751.5,-42.5 751.5,-46 751.5,-46 751.5,-53 751.5,-53 751.5,-56.5 748,-60 744.5,-60"/>
<text text-anchor="middle" x="722.5" y="-46.4" font-family="Times,serif" font-size="12.00">EOS430</text>
</g>
<!-- EOS430&#45;&gt;1 of [&#39;EOS335&#39;, &#39;EOS430&#39;] -->
<g id="edge38" class="edge">
<title>EOS430&#45;&gt;1 of [&#39;EOS335&#39;, &#39;EOS430&#39;]</title>
<path fill="none" stroke="black" d="M751.7,-57.6C769.53,-62.72 791.85,-69.13 806.27,-73.27"/>
<polygon fill="black" stroke="black" points="805.91,-74.99 811.2,-74.68 806.87,-71.62 805.91,-74.99"/>
</g>
<!-- EOS300 -->
<g id="node39" class="node">
<title>EOS300</title>
<path fill="#f5edc9" stroke="#030a10" d="M543,-21C543,-21 499,-21 499,-21 495.5,-21 492,-17.5 492,-14 492,-14 492,-7 492,-7 492,-3.5 495.5,0 499,0 499,0 543,0 543,0 546.5,0 550,-3.5 550,-7 550,-7 550,-14 550,-14 550,-17.5 546.5,-21 543,-21"/>
<text text-anchor="middle" x="521" y="-7.4" font-family="Times,serif" font-size="12.00">EOS300</text>
</g>
<!-- EOS300&#45;&gt;EOS321 -->
<g id="edge41" class="edge">
<title>EOS300&#45;&gt;EOS321</title>
<path fill="none" stroke="black" d="M550.12,-14.44C562.05,-16.11 576.05,-18.07 588.51,-19.81"/>
<polygon fill="black" stroke="black" points="588.55,-21.58 593.74,-20.54 589.03,-18.12 588.55,-21.58"/>
</g>
<!-- EOS201 -->
<g id="node40" class="node">
<title>EOS201</title>
<path fill="#f5edc9" stroke="#030a10" d="M844,-59C844,-59 800,-59 800,-59 796.5,-59 793,-55.5 793,-52 793,-52 793,-45 793,-45 793,-41.5 796.5,-38 800,-38 800,-38 844,-38 844,-38 847.5,-38 851,-41.5 851,-45 851,-45 851,-52 851,-52 851,-55.5 847.5,-59 844,-59"/>
<text text-anchor="middle" x="822" y="-45.4" font-family="Times,serif" font-size="12.00">EOS201</text>
</g>
<!-- EOS201&#45;&gt;EOS423 -->
<g id="edge43" class="edge">
<title>EOS201&#45;&gt;EOS423</title>
<path fill="none" stroke="black" d="M851.1,-56.44C860.82,-59.19 871.8,-62.29 881.88,-65.14"/>
<polygon fill="black" stroke="black" points="881.46,-66.84 886.75,-66.52 882.42,-63.47 881.46,-66.84"/>
</g>
<!-- 1 of [&#39;EOS225&#39;, &#39;EOS325&#39;]&#45;&gt;EOS423 -->
<g id="edge44" class="edge">
<title>1 of [&#39;EOS225&#39;, &#39;EOS325&#39;]&#45;&gt;EOS423</title>
<path fill="none" stroke="black" d="M832.5,-103.2C844.08,-99.17 864.28,-92.14 881.79,-86.05"/>
<polygon fill="black" stroke="black" points="882.5,-87.66 886.65,-84.36 881.35,-84.35 882.5,-87.66"/>
</g>
<!-- EOS225 -->
<g id="node42" class="node">
<title>EOS225</title>
<path fill="#f5edc9" stroke="#030a10" d="M744.5,-117C744.5,-117 700.5,-117 700.5,-117 697,-117 693.5,-113.5 693.5,-110 693.5,-110 693.5,-103 693.5,-103 693.5,-99.5 697,-96 700.5,-96 700.5,-96 744.5,-96 744.5,-96 748,-96 751.5,-99.5 751.5,-103 751.5,-103 751.5,-110 751.5,-110 751.5,-113.5 748,-117 744.5,-117"/>
<text text-anchor="middle" x="722.5" y="-103.4" font-family="Times,serif" font-size="12.00">EOS225</text>
</g>
<!-- EOS225&#45;&gt;1 of [&#39;EOS225&#39;, &#39;EOS325&#39;] -->
<g id="edge45" class="edge">
<title>EOS225&#45;&gt;1 of [&#39;EOS225&#39;, &#39;EOS325&#39;]</title>
<path fill="none" stroke="black" d="M751.7,-106.5C769.18,-106.5 790.97,-106.5 805.4,-106.5"/>
<polygon fill="black" stroke="black" points="805.73,-108.25 810.73,-106.5 805.73,-104.75 805.73,-108.25"/>
</g>
<!-- 1 of [&#39;MATH100&#39;, &#39;MATH102&#39;, &#39;MATH109&#39;]&#45;&gt;PHYS110 -->
<g id="edge47" class="edge">
<title>1 of [&#39;MATH100&#39;, &#39;MATH102&#39;, &#39;MATH109&#39;]&#45;&gt;PHYS110</title>
<path fill="none" stroke="black" d="M232.12,-64.62C240.93,-64.73 254.27,-64.89 267.11,-65.05"/>
<polygon fill="black" stroke="black" points="267.17,-66.8 272.19,-65.11 267.21,-63.3 267.17,-66.8"/>
</g>
<!-- MATH120 -->
<g id="node44" class="node">
<title>MATH120</title>
<path fill="#f5edc9" stroke="#030a10" d="M62,-90C62,-90 7,-90 7,-90 3.5,-90 0,-86.5 0,-83 0,-83 0,-76 0,-76 0,-72.5 3.5,-69 7,-69 7,-69 62,-69 62,-69 65.5,-69 69,-72.5 69,-76 69,-76 69,-83 69,-83 69,-86.5 65.5,-90 62,-90"/>
<text text-anchor="middle" x="34.5" y="-76.4" font-family="Times,serif" font-size="12.00">MATH120</text>
</g>
<!-- MATH120&#45;&gt;MATH109 -->
<g id="edge51" class="edge">
<title>MATH120&#45;&gt;MATH109</title>
<path fill="none" stroke="black" d="M69.23,-74.92C78.92,-73.6 89.57,-72.15 99.55,-70.79"/>
<polygon fill="black" stroke="black" points="99.98,-72.5 104.7,-70.09 99.51,-69.03 99.98,-72.5"/>
</g>
<!-- MATH120&#45;&gt;MATH100 -->
<g id="edge52" class="edge">
<title>MATH120&#45;&gt;MATH100</title>
<path fill="none" stroke="black" d="M69.23,-84.08C78.92,-85.4 89.57,-86.85 99.55,-88.21"/>
<polygon fill="black" stroke="black" points="99.51,-89.97 104.7,-88.91 99.98,-86.5 99.51,-89.97"/>
</g>
</g>
</svg>
