<?xml version="1.0" encoding="UTF-8" standalone="no"?>
<!DOCTYPE svg PUBLIC "-//W3C//DTD SVG 1.1//EN"
 "http://www.w3.org/Graphics/SVG/1.1/DTD/svg11.dtd">
<!-- Generated by graphviz version 2.43.0 (0)
 -->
<!-- Title: unix Pages: 1 -->
<svg width="1068pt" height="360pt"
 viewBox="0.00 0.00 1068.00 360.00" xmlns="http://www.w3.org/2000/svg" xmlns:xlink="http://www.w3.org/1999/xlink">
<g id="graph0" class="graph" transform="scale(1 1) rotate(0) translate(4 356)">
<title>unix</title>
<polygon fill="white" stroke="transparent" points="-4,4 -4,-356 1064,-356 1064,4 -4,4"/>
<text text-anchor="middle" x="530" y="-336.8" font-family="Times,serif" font-size="14.00">EOS312: Introductory Chemical Oceanography</text>
<!-- CHEM150 -->
<g id="node1" class="node">
<title>CHEM150</title>
<path fill="#f5edc9" stroke="#030a10" d="M168,-47C168,-47 112,-47 112,-47 108.5,-47 105,-43.5 105,-40 105,-40 105,-33 105,-33 105,-29.5 108.5,-26 112,-26 112,-26 168,-26 168,-26 171.5,-26 175,-29.5 175,-33 175,-33 175,-40 175,-40 175,-43.5 171.5,-47 168,-47"/>
<text text-anchor="middle" x="140" y="-33.4" font-family="Times,serif" font-size="12.00">CHEM150</text>
</g>
<!-- 1 of [&#39;CHEM101&#39;, &#39;CHEM150&#39;] -->
<g id="node38" class="node">
<title>1 of [&#39;CHEM101&#39;, &#39;CHEM150&#39;]</title>
<ellipse fill="#e9dbd0" stroke="#030a10" cx="246" cy="-39.5" rx="11" ry="11"/>
<text text-anchor="middle" x="246" y="-36.4" font-family="Times,serif" font-size="12.00">1</text>
</g>
<!-- CHEM150&#45;&gt;1 of [&#39;CHEM101&#39;, &#39;CHEM150&#39;] -->
<g id="edge52" class="edge">
<title>CHEM150&#45;&gt;1 of [&#39;CHEM101&#39;, &#39;CHEM150&#39;]</title>
<path fill="none" stroke="black" d="M175.05,-37.48C193.46,-38.01 215.29,-38.64 229.61,-39.06"/>
<polygon fill="black" stroke="black" points="229.84,-40.81 234.89,-39.21 229.94,-37.31 229.84,-40.81"/>
</g>
<!-- EOS110 -->
<g id="node2" class="node">
<title>EOS110</title>
<path fill="#e7a79b" stroke="#030a10" d="M749,-196C749,-196 705,-196 705,-196 701.5,-196 698,-192.5 698,-189 698,-189 698,-182 698,-182 698,-178.5 701.5,-175 705,-175 705,-175 749,-175 749,-175 752.5,-175 756,-178.5 756,-182 756,-182 756,-189 756,-189 756,-192.5 752.5,-196 749,-196"/>
<text text-anchor="middle" x="727" y="-182.4" font-family="Times,serif" font-size="12.00">EOS110</text>
</g>
<!-- 1 of [&#39;EOS110&#39;, &#39;EOS314&#39;, &#39;EOS431&#39;] -->
<g id="node29" class="node">
<title>1 of [&#39;EOS110&#39;, &#39;EOS314&#39;, &#39;EOS431&#39;]</title>
<ellipse fill="#e9dbd0" stroke="#030a10" cx="803" cy="-182.5" rx="11" ry="11"/>
<text text-anchor="middle" x="803" y="-179.4" font-family="Times,serif" font-size="12.00">1</text>
</g>
<!-- EOS110&#45;&gt;1 of [&#39;EOS110&#39;, &#39;EOS314&#39;, &#39;EOS431&#39;] -->
<g id="edge21" class="edge">
<title>EOS110&#45;&gt;1 of [&#39;EOS110&#39;, &#39;EOS314&#39;, &#39;EOS431&#39;]</title>
<path fill="none" stroke="black" d="M756.4,-184.35C766.66,-183.93 777.85,-183.48 786.58,-183.12"/>
<polygon fill="black" stroke="black" points="786.75,-184.87 791.67,-182.92 786.6,-181.37 786.75,-184.87"/>
</g>
<!-- MATH101 -->
<g id="node3" class="node">
<title>MATH101</title>
<path fill="#f5edc9" stroke="#030a10" d="M382,-183C382,-183 327,-183 327,-183 323.5,-183 320,-179.5 320,-176 320,-176 320,-169 320,-169 320,-165.5 323.5,-162 327,-162 327,-162 382,-162 382,-162 385.5,-162 389,-165.5 389,-169 389,-169 389,-176 389,-176 389,-179.5 385.5,-183 382,-183"/>
<text text-anchor="middle" x="354.5" y="-169.4" font-family="Times,serif" font-size="12.00">MATH101</text>
</g>
<!-- PHYS130 -->
<g id="node20" class="node">
<title>PHYS130</title>
<path fill="#f5edc9" stroke="#030a10" d="M487,-183C487,-183 435,-183 435,-183 431.5,-183 428,-179.5 428,-176 428,-176 428,-169 428,-169 428,-165.5 431.5,-162 435,-162 435,-162 487,-162 487,-162 490.5,-162 494,-165.5 494,-169 494,-169 494,-176 494,-176 494,-179.5 490.5,-183 487,-183"/>
<text text-anchor="middle" x="461" y="-169.4" font-family="Times,serif" font-size="12.00">PHYS130</text>
</g>
<!-- MATH101&#45;&gt;PHYS130 -->
<g id="edge57" class="edge">
<title>MATH101&#45;&gt;PHYS130</title>
<path fill="none" stroke="black" d="M389.14,-172.5C399.8,-172.5 411.66,-172.5 422.57,-172.5"/>
<polygon fill="black" stroke="black" points="422.85,-174.25 427.85,-172.5 422.85,-170.75 422.85,-174.25"/>
</g>
<!-- 2 of [&#39;MATH100&#39;, &#39;MATH101&#39;, &#39;MATH102&#39;, &#39;MATH109&#39;, &#39;MATH151&#39;] -->
<g id="node30" class="node">
<title>2 of [&#39;MATH100&#39;, &#39;MATH101&#39;, &#39;MATH102&#39;, &#39;MATH109&#39;, &#39;MATH151&#39;]</title>
<ellipse fill="#d1b79e" stroke="#030a10" cx="461" cy="-113.5" rx="11" ry="11"/>
<text text-anchor="middle" x="461" y="-110.4" font-family="Times,serif" font-size="12.00">2</text>
</g>
<!-- MATH101&#45;&gt;2 of [&#39;MATH100&#39;, &#39;MATH101&#39;, &#39;MATH102&#39;, &#39;MATH109&#39;, &#39;MATH151&#39;] -->
<g id="edge30" class="edge">
<title>MATH101&#45;&gt;2 of [&#39;MATH100&#39;, &#39;MATH101&#39;, &#39;MATH102&#39;, &#39;MATH109&#39;, &#39;MATH151&#39;]</title>
<path fill="none" stroke="black" d="M379.26,-161.93C383.55,-159.88 387.94,-157.69 392,-155.5 411.75,-144.85 433.68,-130.89 447.16,-122.06"/>
<polygon fill="black" stroke="black" points="448.18,-123.48 451.39,-119.27 446.25,-120.56 448.18,-123.48"/>
</g>
<!-- PHYS110 -->
<g id="node4" class="node">
<title>PHYS110</title>
<path fill="#f5edc9" stroke="#030a10" d="M380.5,-211C380.5,-211 328.5,-211 328.5,-211 325,-211 321.5,-207.5 321.5,-204 321.5,-204 321.5,-197 321.5,-197 321.5,-193.5 325,-190 328.5,-190 328.5,-190 380.5,-190 380.5,-190 384,-190 387.5,-193.5 387.5,-197 387.5,-197 387.5,-204 387.5,-204 387.5,-207.5 384,-211 380.5,-211"/>
<text text-anchor="middle" x="354.5" y="-197.4" font-family="Times,serif" font-size="12.00">PHYS110</text>
</g>
<!-- PHYS111 -->
<g id="node22" class="node">
<title>PHYS111</title>
<path fill="#f5edc9" stroke="#030a10" d="M592.5,-161C592.5,-161 541.5,-161 541.5,-161 538,-161 534.5,-157.5 534.5,-154 534.5,-154 534.5,-147 534.5,-147 534.5,-143.5 538,-140 541.5,-140 541.5,-140 592.5,-140 592.5,-140 596,-140 599.5,-143.5 599.5,-147 599.5,-147 599.5,-154 599.5,-154 599.5,-157.5 596,-161 592.5,-161"/>
<text text-anchor="middle" x="567" y="-147.4" font-family="Times,serif" font-size="12.00">PHYS111</text>
</g>
<!-- PHYS110&#45;&gt;PHYS111 -->
<g id="edge58" class="edge">
<title>PHYS110&#45;&gt;PHYS111</title>
<path fill="none" stroke="black" d="M383.36,-189.92C386.33,-188.54 389.26,-187.06 392,-185.5 409.39,-175.62 409.22,-165.37 428,-158.5 460.67,-146.55 500.6,-145.57 529.08,-146.96"/>
<polygon fill="black" stroke="black" points="529.18,-148.72 534.26,-147.25 529.37,-145.23 529.18,-148.72"/>
</g>
<!-- 1 of [&#39;PHYS102A&#39;, &#39;PHYS110&#39;, &#39;PHYS120&#39;] -->
<g id="node27" class="node">
<title>1 of [&#39;PHYS102A&#39;, &#39;PHYS110&#39;, &#39;PHYS120&#39;]</title>
<ellipse fill="#e9dbd0" stroke="#030a10" cx="461" cy="-229.5" rx="11" ry="11"/>
<text text-anchor="middle" x="461" y="-226.4" font-family="Times,serif" font-size="12.00">1</text>
</g>
<!-- PHYS110&#45;&gt;1 of [&#39;PHYS102A&#39;, &#39;PHYS110&#39;, &#39;PHYS120&#39;] -->
<g id="edge13" class="edge">
<title>PHYS110&#45;&gt;1 of [&#39;PHYS102A&#39;, &#39;PHYS110&#39;, &#39;PHYS120&#39;]</title>
<path fill="none" stroke="black" d="M387.71,-209.44C406.72,-214.71 429.91,-221.15 444.81,-225.28"/>
<polygon fill="black" stroke="black" points="444.62,-227.05 449.9,-226.7 445.55,-223.67 444.62,-227.05"/>
</g>
<!-- EOS431 -->
<g id="node5" class="node">
<title>EOS431</title>
<path fill="#e7a79b" stroke="#030a10" d="M749,-224C749,-224 705,-224 705,-224 701.5,-224 698,-220.5 698,-217 698,-217 698,-210 698,-210 698,-206.5 701.5,-203 705,-203 705,-203 749,-203 749,-203 752.5,-203 756,-206.5 756,-210 756,-210 756,-217 756,-217 756,-220.5 752.5,-224 749,-224"/>
<text text-anchor="middle" x="727" y="-210.4" font-family="Times,serif" font-size="12.00">EOS431</text>
</g>
<!-- EOS431&#45;&gt;1 of [&#39;EOS110&#39;, &#39;EOS314&#39;, &#39;EOS431&#39;] -->
<g id="edge23" class="edge">
<title>EOS431&#45;&gt;1 of [&#39;EOS110&#39;, &#39;EOS314&#39;, &#39;EOS431&#39;]</title>
<path fill="none" stroke="black" d="M753.47,-202.83C765,-198 778.2,-192.47 787.92,-188.4"/>
<polygon fill="black" stroke="black" points="788.72,-189.96 792.65,-186.42 787.37,-186.73 788.72,-189.96"/>
</g>
<!-- 3 of [&#39;EOS313&#39;, &#39;EOS314&#39;, &#39;EOS431&#39;, &#39;EOS312&#39;, &#39;EOS311&#39;] -->
<g id="node32" class="node">
<title>3 of [&#39;EOS313&#39;, &#39;EOS314&#39;, &#39;EOS431&#39;, &#39;EOS312&#39;, &#39;EOS311&#39;]</title>
<ellipse fill="#ad8152" stroke="#030a10" cx="955" cy="-135.5" rx="11" ry="11"/>
<text text-anchor="middle" x="955" y="-132.4" font-family="Times,serif" font-size="12.00">3</text>
</g>
<!-- EOS431&#45;&gt;3 of [&#39;EOS313&#39;, &#39;EOS314&#39;, &#39;EOS431&#39;, &#39;EOS312&#39;, &#39;EOS311&#39;] -->
<g id="edge42" class="edge">
<title>EOS431&#45;&gt;3 of [&#39;EOS313&#39;, &#39;EOS314&#39;, &#39;EOS431&#39;, &#39;EOS312&#39;, &#39;EOS311&#39;]</title>
<path fill="none" stroke="black" d="M756.21,-209.31C773.16,-206.45 795.04,-202.15 814,-196.5 857.19,-183.63 866.93,-177.04 908,-158.5 919.09,-153.5 931.4,-147.3 940.5,-142.6"/>
<polygon fill="black" stroke="black" points="941.31,-144.16 944.94,-140.3 939.7,-141.05 941.31,-144.16"/>
</g>
<!-- PHYS102B -->
<g id="node6" class="node">
<title>PHYS102B</title>
<path fill="#f5edc9" stroke="#030a10" d="M597,-220C597,-220 537,-220 537,-220 533.5,-220 530,-216.5 530,-213 530,-213 530,-206 530,-206 530,-202.5 533.5,-199 537,-199 537,-199 597,-199 597,-199 600.5,-199 604,-202.5 604,-206 604,-206 604,-213 604,-213 604,-216.5 600.5,-220 597,-220"/>
<text text-anchor="middle" x="567" y="-206.4" font-family="Times,serif" font-size="12.00">PHYS102B</text>
</g>
<!-- 1 of [&#39;PHYS102B&#39;, &#39;PHYS111&#39;, &#39;PHYS130&#39;] -->
<g id="node28" class="node">
<title>1 of [&#39;PHYS102B&#39;, &#39;PHYS111&#39;, &#39;PHYS130&#39;]</title>
<ellipse fill="#e9dbd0" stroke="#030a10" cx="651" cy="-165.5" rx="11" ry="11"/>
<text text-anchor="middle" x="651" y="-162.4" font-family="Times,serif" font-size="12.00">1</text>
</g>
<!-- PHYS102B&#45;&gt;1 of [&#39;PHYS102B&#39;, &#39;PHYS111&#39;, &#39;PHYS130&#39;] -->
<g id="edge16" class="edge">
<title>PHYS102B&#45;&gt;1 of [&#39;PHYS102B&#39;, &#39;PHYS111&#39;, &#39;PHYS130&#39;]</title>
<path fill="none" stroke="black" d="M587.85,-198.85C602.88,-190.78 623.13,-179.92 636.37,-172.81"/>
<polygon fill="black" stroke="black" points="637.33,-174.29 640.91,-170.38 635.67,-171.2 637.33,-174.29"/>
</g>
<!-- 1 of [&#39;PHYS102B&#39;, &#39;PHYS111&#39;, &#39;PHYS120&#39;] -->
<g id="node31" class="node">
<title>1 of [&#39;PHYS102B&#39;, &#39;PHYS111&#39;, &#39;PHYS120&#39;]</title>
<ellipse fill="#e9dbd0" stroke="#030a10" cx="651" cy="-194.5" rx="11" ry="11"/>
<text text-anchor="middle" x="651" y="-191.4" font-family="Times,serif" font-size="12.00">1</text>
</g>
<!-- PHYS102B&#45;&gt;1 of [&#39;PHYS102B&#39;, &#39;PHYS111&#39;, &#39;PHYS120&#39;] -->
<g id="edge36" class="edge">
<title>PHYS102B&#45;&gt;1 of [&#39;PHYS102B&#39;, &#39;PHYS111&#39;, &#39;PHYS120&#39;]</title>
<path fill="none" stroke="black" d="M604.21,-202.88C615.01,-200.9 626.26,-198.84 634.9,-197.26"/>
<polygon fill="black" stroke="black" points="635.32,-198.96 639.92,-196.34 634.69,-195.52 635.32,-198.96"/>
</g>
<!-- EOS312 -->
<g id="node7" class="node">
<title>EOS312</title>
<path fill="#9fa7be" stroke="#030a10" d="M901,-146C901,-146 857,-146 857,-146 853.5,-146 850,-142.5 850,-139 850,-139 850,-132 850,-132 850,-128.5 853.5,-125 857,-125 857,-125 901,-125 901,-125 904.5,-125 908,-128.5 908,-132 908,-132 908,-139 908,-139 908,-142.5 904.5,-146 901,-146"/>
<text text-anchor="middle" x="879" y="-132.4" font-family="Times,serif" font-size="12.00">EOS312</text>
</g>
<!-- EOS312&#45;&gt;3 of [&#39;EOS313&#39;, &#39;EOS314&#39;, &#39;EOS431&#39;, &#39;EOS312&#39;, &#39;EOS311&#39;] -->
<g id="edge43" class="edge">
<title>EOS312&#45;&gt;3 of [&#39;EOS313&#39;, &#39;EOS314&#39;, &#39;EOS431&#39;, &#39;EOS312&#39;, &#39;EOS311&#39;]</title>
<path fill="none" stroke="black" d="M908.4,-135.5C918.66,-135.5 929.85,-135.5 938.58,-135.5"/>
<polygon fill="black" stroke="black" points="938.67,-137.25 943.67,-135.5 938.67,-133.75 938.67,-137.25"/>
</g>
<!-- CHEM091 -->
<g id="node8" class="node">
<title>CHEM091</title>
<path fill="#f5edc9" stroke="#030a10" d="M274,-21C274,-21 218,-21 218,-21 214.5,-21 211,-17.5 211,-14 211,-14 211,-7 211,-7 211,-3.5 214.5,0 218,0 218,0 274,0 274,0 277.5,0 281,-3.5 281,-7 281,-7 281,-14 281,-14 281,-17.5 277.5,-21 274,-21"/>
<text text-anchor="middle" x="246" y="-7.4" font-family="Times,serif" font-size="12.00">CHEM091</text>
</g>
<!-- CHEM102 -->
<g id="node13" class="node">
<title>CHEM102</title>
<path fill="#e7a79b" stroke="#030a10" d="M382.5,-50C382.5,-50 326.5,-50 326.5,-50 323,-50 319.5,-46.5 319.5,-43 319.5,-43 319.5,-36 319.5,-36 319.5,-32.5 323,-29 326.5,-29 326.5,-29 382.5,-29 382.5,-29 386,-29 389.5,-32.5 389.5,-36 389.5,-36 389.5,-43 389.5,-43 389.5,-46.5 386,-50 382.5,-50"/>
<text text-anchor="middle" x="354.5" y="-36.4" font-family="Times,serif" font-size="12.00">CHEM102</text>
</g>
<!-- CHEM091&#45;&gt;CHEM102 -->
<g id="edge49" class="edge">
<title>CHEM091&#45;&gt;CHEM102</title>
<path fill="none" stroke="black" d="M281.28,-19.84C291.83,-22.71 303.52,-25.89 314.36,-28.84"/>
<polygon fill="black" stroke="black" points="314,-30.56 319.28,-30.18 314.92,-27.18 314,-30.56"/>
</g>
<!-- MATH100 -->
<g id="node9" class="node">
<title>MATH100</title>
<path fill="#e7a79b" stroke="#030a10" d="M167.5,-131C167.5,-131 112.5,-131 112.5,-131 109,-131 105.5,-127.5 105.5,-124 105.5,-124 105.5,-117 105.5,-117 105.5,-113.5 109,-110 112.5,-110 112.5,-110 167.5,-110 167.5,-110 171,-110 174.5,-113.5 174.5,-117 174.5,-117 174.5,-124 174.5,-124 174.5,-127.5 171,-131 167.5,-131"/>
<text text-anchor="middle" x="140" y="-117.4" font-family="Times,serif" font-size="12.00">MATH100</text>
</g>
<!-- 1 of [&#39;MATH100&#39;, &#39;MATH109&#39;] -->
<g id="node24" class="node">
<title>1 of [&#39;MATH100&#39;, &#39;MATH109&#39;]</title>
<ellipse fill="#e9dbd0" stroke="#030a10" cx="246" cy="-172.5" rx="11" ry="11"/>
<text text-anchor="middle" x="246" y="-169.4" font-family="Times,serif" font-size="12.00">1</text>
</g>
<!-- MATH100&#45;&gt;1 of [&#39;MATH100&#39;, &#39;MATH109&#39;] -->
<g id="edge2" class="edge">
<title>MATH100&#45;&gt;1 of [&#39;MATH100&#39;, &#39;MATH109&#39;]</title>
<path fill="none" stroke="black" d="M165.61,-131.11C168.78,-132.55 171.98,-134.04 175,-135.5 195.01,-145.19 217.67,-157.4 231.65,-165.08"/>
<polygon fill="black" stroke="black" points="230.82,-166.62 236.04,-167.5 232.51,-163.56 230.82,-166.62"/>
</g>
<!-- 1 of [&#39;MATH100&#39;, &#39;MATH102&#39;, &#39;MATH109&#39;] -->
<g id="node25" class="node">
<title>1 of [&#39;MATH100&#39;, &#39;MATH102&#39;, &#39;MATH109&#39;]</title>
<ellipse fill="#e9dbd0" stroke="#030a10" cx="246" cy="-120.5" rx="11" ry="11"/>
<text text-anchor="middle" x="246" y="-117.4" font-family="Times,serif" font-size="12.00">1</text>
</g>
<!-- MATH100&#45;&gt;1 of [&#39;MATH100&#39;, &#39;MATH102&#39;, &#39;MATH109&#39;] -->
<g id="edge5" class="edge">
<title>MATH100&#45;&gt;1 of [&#39;MATH100&#39;, &#39;MATH102&#39;, &#39;MATH109&#39;]</title>
<path fill="none" stroke="black" d="M174.77,-120.5C193.2,-120.5 215.13,-120.5 229.52,-120.5"/>
<polygon fill="black" stroke="black" points="229.83,-122.25 234.83,-120.5 229.83,-118.75 229.83,-122.25"/>
</g>
<!-- MATH100&#45;&gt;2 of [&#39;MATH100&#39;, &#39;MATH101&#39;, &#39;MATH102&#39;, &#39;MATH109&#39;, &#39;MATH151&#39;] -->
<g id="edge29" class="edge">
<title>MATH100&#45;&gt;2 of [&#39;MATH100&#39;, &#39;MATH101&#39;, &#39;MATH102&#39;, &#39;MATH109&#39;, &#39;MATH151&#39;]</title>
<path fill="none" stroke="black" d="M174.64,-112.19C186.11,-109.65 199.05,-107.11 211,-105.5 290.77,-94.76 311.93,-91.34 392,-99.5 410.42,-101.38 431.22,-106.04 444.91,-109.47"/>
<polygon fill="black" stroke="black" points="444.68,-111.22 449.96,-110.77 445.55,-107.83 444.68,-111.22"/>
</g>
<!-- EOS314 -->
<g id="node10" class="node">
<title>EOS314</title>
<path fill="#e7a79b" stroke="#030a10" d="M749,-168C749,-168 705,-168 705,-168 701.5,-168 698,-164.5 698,-161 698,-161 698,-154 698,-154 698,-150.5 701.5,-147 705,-147 705,-147 749,-147 749,-147 752.5,-147 756,-150.5 756,-154 756,-154 756,-161 756,-161 756,-164.5 752.5,-168 749,-168"/>
<text text-anchor="middle" x="727" y="-154.4" font-family="Times,serif" font-size="12.00">EOS314</text>
</g>
<!-- EOS314&#45;&gt;1 of [&#39;EOS110&#39;, &#39;EOS314&#39;, &#39;EOS431&#39;] -->
<g id="edge22" class="edge">
<title>EOS314&#45;&gt;1 of [&#39;EOS110&#39;, &#39;EOS314&#39;, &#39;EOS431&#39;]</title>
<path fill="none" stroke="black" d="M756.4,-167.09C766.93,-170.65 778.44,-174.54 787.27,-177.52"/>
<polygon fill="black" stroke="black" points="787.09,-179.31 792.38,-179.25 788.21,-175.99 787.09,-179.31"/>
</g>
<!-- EOS314&#45;&gt;3 of [&#39;EOS313&#39;, &#39;EOS314&#39;, &#39;EOS431&#39;, &#39;EOS312&#39;, &#39;EOS311&#39;] -->
<g id="edge41" class="edge">
<title>EOS314&#45;&gt;3 of [&#39;EOS313&#39;, &#39;EOS314&#39;, &#39;EOS431&#39;, &#39;EOS312&#39;, &#39;EOS311&#39;]</title>
<path fill="none" stroke="black" d="M756.29,-158.42C791.95,-159.08 854.97,-158.6 908,-149.5 918.73,-147.66 930.46,-144.06 939.4,-140.97"/>
<polygon fill="black" stroke="black" points="940.18,-142.55 944.3,-139.23 939,-139.26 940.18,-142.55"/>
</g>
<!-- EOS401 -->
<g id="node11" class="node">
<title>EOS401</title>
<path fill="#e7a79b" stroke="#030a10" d="M1053,-146C1053,-146 1009,-146 1009,-146 1005.5,-146 1002,-142.5 1002,-139 1002,-139 1002,-132 1002,-132 1002,-128.5 1005.5,-125 1009,-125 1009,-125 1053,-125 1053,-125 1056.5,-125 1060,-128.5 1060,-132 1060,-132 1060,-139 1060,-139 1060,-142.5 1056.5,-146 1053,-146"/>
<text text-anchor="middle" x="1031" y="-132.4" font-family="Times,serif" font-size="12.00">EOS401</text>
</g>
<!-- MATH204 -->
<g id="node12" class="node">
<title>MATH204</title>
<path fill="#f5edc9" stroke="#030a10" d="M594.5,-307C594.5,-307 539.5,-307 539.5,-307 536,-307 532.5,-303.5 532.5,-300 532.5,-300 532.5,-293 532.5,-293 532.5,-289.5 536,-286 539.5,-286 539.5,-286 594.5,-286 594.5,-286 598,-286 601.5,-289.5 601.5,-293 601.5,-293 601.5,-300 601.5,-300 601.5,-303.5 598,-307 594.5,-307"/>
<text text-anchor="middle" x="567" y="-293.4" font-family="Times,serif" font-size="12.00">MATH204</text>
</g>
<!-- 1 of [&#39;EOS225&#39;, &#39;MATH204&#39;] -->
<g id="node26" class="node">
<title>1 of [&#39;EOS225&#39;, &#39;MATH204&#39;]</title>
<ellipse fill="#e9dbd0" stroke="#030a10" cx="651" cy="-268.5" rx="11" ry="11"/>
<text text-anchor="middle" x="651" y="-265.4" font-family="Times,serif" font-size="12.00">1</text>
</g>
<!-- MATH204&#45;&gt;1 of [&#39;EOS225&#39;, &#39;MATH204&#39;] -->
<g id="edge10" class="edge">
<title>MATH204&#45;&gt;1 of [&#39;EOS225&#39;, &#39;MATH204&#39;]</title>
<path fill="none" stroke="black" d="M599,-285.91C611.51,-281.64 625.35,-276.92 635.45,-273.47"/>
<polygon fill="black" stroke="black" points="636.2,-275.06 640.37,-271.79 635.07,-271.75 636.2,-275.06"/>
</g>
<!-- CHEM102&#45;&gt;EOS312 -->
<g id="edge24" class="edge">
<title>CHEM102&#45;&gt;EOS312</title>
<path fill="none" stroke="black" d="M389.74,-42.39C431.38,-45.65 503.79,-50.5 566,-50.5 566,-50.5 566,-50.5 728,-50.5 767.35,-50.5 781.27,-49.66 814,-71.5 836.48,-86.5 829.59,-102.79 850,-120.5 850.57,-121 851.16,-121.48 851.77,-121.96"/>
<polygon fill="black" stroke="black" points="850.88,-123.47 855.97,-124.95 852.91,-120.62 850.88,-123.47"/>
</g>
<!-- MATH109 -->
<g id="node14" class="node">
<title>MATH109</title>
<path fill="#e7a79b" stroke="#030a10" d="M167.5,-160C167.5,-160 112.5,-160 112.5,-160 109,-160 105.5,-156.5 105.5,-153 105.5,-153 105.5,-146 105.5,-146 105.5,-142.5 109,-139 112.5,-139 112.5,-139 167.5,-139 167.5,-139 171,-139 174.5,-142.5 174.5,-146 174.5,-146 174.5,-153 174.5,-153 174.5,-156.5 171,-160 167.5,-160"/>
<text text-anchor="middle" x="140" y="-146.4" font-family="Times,serif" font-size="12.00">MATH109</text>
</g>
<!-- MATH109&#45;&gt;1 of [&#39;MATH100&#39;, &#39;MATH109&#39;] -->
<g id="edge3" class="edge">
<title>MATH109&#45;&gt;1 of [&#39;MATH100&#39;, &#39;MATH109&#39;]</title>
<path fill="none" stroke="black" d="M174.77,-156.97C193.36,-161.08 215.52,-165.98 229.9,-169.16"/>
<polygon fill="black" stroke="black" points="229.57,-170.88 234.83,-170.25 230.32,-167.46 229.57,-170.88"/>
</g>
<!-- MATH109&#45;&gt;1 of [&#39;MATH100&#39;, &#39;MATH102&#39;, &#39;MATH109&#39;] -->
<g id="edge7" class="edge">
<title>MATH109&#45;&gt;1 of [&#39;MATH100&#39;, &#39;MATH102&#39;, &#39;MATH109&#39;]</title>
<path fill="none" stroke="black" d="M174.77,-140.08C193.57,-134.84 216.02,-128.58 230.39,-124.57"/>
<polygon fill="black" stroke="black" points="230.95,-126.24 235.29,-123.21 230.01,-122.86 230.95,-126.24"/>
</g>
<!-- MATH109&#45;&gt;2 of [&#39;MATH100&#39;, &#39;MATH101&#39;, &#39;MATH102&#39;, &#39;MATH109&#39;, &#39;MATH151&#39;] -->
<g id="edge32" class="edge">
<title>MATH109&#45;&gt;2 of [&#39;MATH100&#39;, &#39;MATH101&#39;, &#39;MATH102&#39;, &#39;MATH109&#39;, &#39;MATH151&#39;]</title>
<path fill="none" stroke="black" d="M174.84,-147.78C223.19,-145.04 314.74,-138.8 392,-127.5 410.32,-124.82 431.14,-120.32 444.86,-117.14"/>
<polygon fill="black" stroke="black" points="445.46,-118.8 449.93,-115.95 444.66,-115.39 445.46,-118.8"/>
</g>
<!-- PHYS120 -->
<g id="node15" class="node">
<title>PHYS120</title>
<path fill="#f5edc9" stroke="#030a10" d="M380.5,-239C380.5,-239 328.5,-239 328.5,-239 325,-239 321.5,-235.5 321.5,-232 321.5,-232 321.5,-225 321.5,-225 321.5,-221.5 325,-218 328.5,-218 328.5,-218 380.5,-218 380.5,-218 384,-218 387.5,-221.5 387.5,-225 387.5,-225 387.5,-232 387.5,-232 387.5,-235.5 384,-239 380.5,-239"/>
<text text-anchor="middle" x="354.5" y="-225.4" font-family="Times,serif" font-size="12.00">PHYS120</text>
</g>
<!-- PHYS120&#45;&gt;PHYS130 -->
<g id="edge56" class="edge">
<title>PHYS120&#45;&gt;PHYS130</title>
<path fill="none" stroke="black" d="M382.88,-217.94C386,-216.54 389.1,-215.04 392,-213.5 408.98,-204.47 411.49,-199.36 428,-189.5 430.12,-188.24 432.34,-186.96 434.57,-185.71"/>
<polygon fill="black" stroke="black" points="435.64,-187.12 439.18,-183.18 433.95,-184.05 435.64,-187.12"/>
</g>
<!-- PHYS120&#45;&gt;1 of [&#39;PHYS102A&#39;, &#39;PHYS110&#39;, &#39;PHYS120&#39;] -->
<g id="edge14" class="edge">
<title>PHYS120&#45;&gt;1 of [&#39;PHYS102A&#39;, &#39;PHYS110&#39;, &#39;PHYS120&#39;]</title>
<path fill="none" stroke="black" d="M387.71,-228.81C406.72,-228.99 429.91,-229.21 444.81,-229.35"/>
<polygon fill="black" stroke="black" points="444.88,-231.11 449.9,-229.4 444.92,-227.61 444.88,-231.11"/>
</g>
<!-- PHYS120&#45;&gt;1 of [&#39;PHYS102B&#39;, &#39;PHYS111&#39;, &#39;PHYS120&#39;] -->
<g id="edge38" class="edge">
<title>PHYS120&#45;&gt;1 of [&#39;PHYS102B&#39;, &#39;PHYS111&#39;, &#39;PHYS120&#39;]</title>
<path fill="none" stroke="black" d="M387.61,-222.25C400.2,-219.81 414.78,-217.01 428,-214.5 473.31,-205.91 484.1,-199.93 530,-195.5 567.44,-191.89 611.75,-192.87 634.62,-193.77"/>
<polygon fill="black" stroke="black" points="634.63,-195.52 639.69,-193.98 634.77,-192.02 634.63,-195.52"/>
</g>
<!-- MATH120 -->
<g id="node16" class="node">
<title>MATH120</title>
<path fill="#f5edc9" stroke="#030a10" d="M62,-103C62,-103 7,-103 7,-103 3.5,-103 0,-99.5 0,-96 0,-96 0,-89 0,-89 0,-85.5 3.5,-82 7,-82 7,-82 62,-82 62,-82 65.5,-82 69,-85.5 69,-89 69,-89 69,-96 69,-96 69,-99.5 65.5,-103 62,-103"/>
<text text-anchor="middle" x="34.5" y="-89.4" font-family="Times,serif" font-size="12.00">MATH120</text>
</g>
<!-- MATH120&#45;&gt;CHEM091 -->
<g id="edge26" class="edge">
<title>MATH120&#45;&gt;CHEM091</title>
<path fill="none" stroke="black" d="M42.31,-81.91C53.29,-65.84 76.61,-35.77 105,-22.5 136.52,-7.77 176.37,-5.73 205.49,-6.81"/>
<polygon fill="black" stroke="black" points="205.72,-8.57 210.8,-7.04 205.88,-5.07 205.72,-8.57"/>
</g>
<!-- MATH120&#45;&gt;MATH100 -->
<g id="edge27" class="edge">
<title>MATH120&#45;&gt;MATH100</title>
<path fill="none" stroke="black" d="M69.1,-101.59C79.05,-104.28 90.01,-107.25 100.25,-110.02"/>
<polygon fill="black" stroke="black" points="99.93,-111.74 105.21,-111.36 100.84,-108.36 99.93,-111.74"/>
</g>
<!-- MATH120&#45;&gt;MATH109 -->
<g id="edge53" class="edge">
<title>MATH120&#45;&gt;MATH109</title>
<path fill="none" stroke="black" d="M51.73,-103.12C65.6,-112 86.24,-124.74 105,-134.5 106.43,-135.24 107.91,-135.99 109.4,-136.72"/>
<polygon fill="black" stroke="black" points="108.68,-138.31 113.94,-138.88 110.18,-135.15 108.68,-138.31"/>
</g>
<!-- CHEM101 -->
<g id="node19" class="node">
<title>CHEM101</title>
<path fill="#f5edc9" stroke="#030a10" d="M168,-75C168,-75 112,-75 112,-75 108.5,-75 105,-71.5 105,-68 105,-68 105,-61 105,-61 105,-57.5 108.5,-54 112,-54 112,-54 168,-54 168,-54 171.5,-54 175,-57.5 175,-61 175,-61 175,-68 175,-68 175,-71.5 171.5,-75 168,-75"/>
<text text-anchor="middle" x="140" y="-61.4" font-family="Times,serif" font-size="12.00">CHEM101</text>
</g>
<!-- MATH120&#45;&gt;CHEM101 -->
<g id="edge55" class="edge">
<title>MATH120&#45;&gt;CHEM101</title>
<path fill="none" stroke="black" d="M69.1,-83.41C78.94,-80.75 89.79,-77.81 99.94,-75.07"/>
<polygon fill="black" stroke="black" points="100.49,-76.73 104.86,-73.74 99.57,-73.35 100.49,-76.73"/>
</g>
<!-- MATH102 -->
<g id="node17" class="node">
<title>MATH102</title>
<path fill="#e7a79b" stroke="#030a10" d="M167.5,-103C167.5,-103 112.5,-103 112.5,-103 109,-103 105.5,-99.5 105.5,-96 105.5,-96 105.5,-89 105.5,-89 105.5,-85.5 109,-82 112.5,-82 112.5,-82 167.5,-82 167.5,-82 171,-82 174.5,-85.5 174.5,-89 174.5,-89 174.5,-96 174.5,-96 174.5,-99.5 171,-103 167.5,-103"/>
<text text-anchor="middle" x="140" y="-89.4" font-family="Times,serif" font-size="12.00">MATH102</text>
</g>
<!-- MATH102&#45;&gt;1 of [&#39;MATH100&#39;, &#39;MATH102&#39;, &#39;MATH109&#39;] -->
<g id="edge6" class="edge">
<title>MATH102&#45;&gt;1 of [&#39;MATH100&#39;, &#39;MATH102&#39;, &#39;MATH109&#39;]</title>
<path fill="none" stroke="black" d="M174.77,-101.59C193.57,-106.65 216.02,-112.7 230.39,-116.57"/>
<polygon fill="black" stroke="black" points="230.01,-118.28 235.29,-117.89 230.92,-114.9 230.01,-118.28"/>
</g>
<!-- MATH102&#45;&gt;2 of [&#39;MATH100&#39;, &#39;MATH101&#39;, &#39;MATH102&#39;, &#39;MATH109&#39;, &#39;MATH151&#39;] -->
<g id="edge31" class="edge">
<title>MATH102&#45;&gt;2 of [&#39;MATH100&#39;, &#39;MATH101&#39;, &#39;MATH102&#39;, &#39;MATH109&#39;, &#39;MATH151&#39;]</title>
<path fill="none" stroke="black" d="M174.5,-89.98C222.82,-86.96 314.76,-83.6 392,-94.5 410.86,-97.16 431.87,-103.59 445.48,-108.23"/>
<polygon fill="black" stroke="black" points="445.19,-109.99 450.49,-109.98 446.34,-106.68 445.19,-109.99"/>
</g>
<!-- EOS225 -->
<g id="node18" class="node">
<title>EOS225</title>
<path fill="#f5edc9" stroke="#030a10" d="M589,-279C589,-279 545,-279 545,-279 541.5,-279 538,-275.5 538,-272 538,-272 538,-265 538,-265 538,-261.5 541.5,-258 545,-258 545,-258 589,-258 589,-258 592.5,-258 596,-261.5 596,-265 596,-265 596,-272 596,-272 596,-275.5 592.5,-279 589,-279"/>
<text text-anchor="middle" x="567" y="-265.4" font-family="Times,serif" font-size="12.00">EOS225</text>
</g>
<!-- EOS225&#45;&gt;1 of [&#39;EOS225&#39;, &#39;MATH204&#39;] -->
<g id="edge9" class="edge">
<title>EOS225&#45;&gt;1 of [&#39;EOS225&#39;, &#39;MATH204&#39;]</title>
<path fill="none" stroke="black" d="M596.22,-268.5C609,-268.5 623.63,-268.5 634.39,-268.5"/>
<polygon fill="black" stroke="black" points="634.64,-270.25 639.64,-268.5 634.64,-266.75 634.64,-270.25"/>
</g>
<!-- CHEM101&#45;&gt;1 of [&#39;CHEM101&#39;, &#39;CHEM150&#39;] -->
<g id="edge51" class="edge">
<title>CHEM101&#45;&gt;1 of [&#39;CHEM101&#39;, &#39;CHEM150&#39;]</title>
<path fill="none" stroke="black" d="M175.05,-56.31C193.63,-51.85 215.68,-46.55 229.99,-43.11"/>
<polygon fill="black" stroke="black" points="230.43,-44.8 234.89,-41.93 229.62,-41.4 230.43,-44.8"/>
</g>
<!-- PHYS130&#45;&gt;1 of [&#39;PHYS102B&#39;, &#39;PHYS111&#39;, &#39;PHYS130&#39;] -->
<g id="edge18" class="edge">
<title>PHYS130&#45;&gt;1 of [&#39;PHYS102B&#39;, &#39;PHYS111&#39;, &#39;PHYS130&#39;]</title>
<path fill="none" stroke="black" d="M494.32,-171.3C535.24,-169.77 604.07,-167.21 634.61,-166.07"/>
<polygon fill="black" stroke="black" points="634.92,-167.81 639.85,-165.88 634.79,-164.32 634.92,-167.81"/>
</g>
<!-- MATH151 -->
<g id="node21" class="node">
<title>MATH151</title>
<path fill="#f5edc9" stroke="#030a10" d="M382,-124C382,-124 327,-124 327,-124 323.5,-124 320,-120.5 320,-117 320,-117 320,-110 320,-110 320,-106.5 323.5,-103 327,-103 327,-103 382,-103 382,-103 385.5,-103 389,-106.5 389,-110 389,-110 389,-117 389,-117 389,-120.5 385.5,-124 382,-124"/>
<text text-anchor="middle" x="354.5" y="-110.4" font-family="Times,serif" font-size="12.00">MATH151</text>
</g>
<!-- MATH151&#45;&gt;2 of [&#39;MATH100&#39;, &#39;MATH101&#39;, &#39;MATH102&#39;, &#39;MATH109&#39;, &#39;MATH151&#39;] -->
<g id="edge33" class="edge">
<title>MATH151&#45;&gt;2 of [&#39;MATH100&#39;, &#39;MATH101&#39;, &#39;MATH102&#39;, &#39;MATH109&#39;, &#39;MATH151&#39;]</title>
<path fill="none" stroke="black" d="M389.14,-113.5C407.68,-113.5 429.82,-113.5 444.36,-113.5"/>
<polygon fill="black" stroke="black" points="444.72,-115.25 449.72,-113.5 444.72,-111.75 444.72,-115.25"/>
</g>
<!-- PHYS111&#45;&gt;1 of [&#39;PHYS102B&#39;, &#39;PHYS111&#39;, &#39;PHYS130&#39;] -->
<g id="edge17" class="edge">
<title>PHYS111&#45;&gt;1 of [&#39;PHYS102B&#39;, &#39;PHYS111&#39;, &#39;PHYS130&#39;]</title>
<path fill="none" stroke="black" d="M599.94,-156.34C611.93,-158.54 625.01,-160.93 634.79,-162.72"/>
<polygon fill="black" stroke="black" points="634.62,-164.47 639.86,-163.64 635.25,-161.02 634.62,-164.47"/>
</g>
<!-- PHYS111&#45;&gt;1 of [&#39;PHYS102B&#39;, &#39;PHYS111&#39;, &#39;PHYS120&#39;] -->
<g id="edge37" class="edge">
<title>PHYS111&#45;&gt;1 of [&#39;PHYS102B&#39;, &#39;PHYS111&#39;, &#39;PHYS120&#39;]</title>
<path fill="none" stroke="black" d="M587.85,-161.15C602.88,-169.22 623.13,-180.08 636.37,-187.19"/>
<polygon fill="black" stroke="black" points="635.67,-188.8 640.91,-189.62 637.33,-185.71 635.67,-188.8"/>
</g>
<!-- PHYS102A -->
<g id="node23" class="node">
<title>PHYS102A</title>
<path fill="#f5edc9" stroke="#030a10" d="M385,-267C385,-267 324,-267 324,-267 320.5,-267 317,-263.5 317,-260 317,-260 317,-253 317,-253 317,-249.5 320.5,-246 324,-246 324,-246 385,-246 385,-246 388.5,-246 392,-249.5 392,-253 392,-253 392,-260 392,-260 392,-263.5 388.5,-267 385,-267"/>
<text text-anchor="middle" x="354.5" y="-253.4" font-family="Times,serif" font-size="12.00">PHYS102A</text>
</g>
<!-- PHYS102A&#45;&gt;1 of [&#39;PHYS102A&#39;, &#39;PHYS110&#39;, &#39;PHYS120&#39;] -->
<g id="edge12" class="edge">
<title>PHYS102A&#45;&gt;1 of [&#39;PHYS102A&#39;, &#39;PHYS110&#39;, &#39;PHYS120&#39;]</title>
<path fill="none" stroke="black" d="M392.05,-247.06C410.13,-242.38 430.98,-237 444.76,-233.44"/>
<polygon fill="black" stroke="black" points="445.45,-235.07 449.86,-232.12 444.58,-231.68 445.45,-235.07"/>
</g>
<!-- 1 of [&#39;MATH100&#39;, &#39;MATH109&#39;]&#45;&gt;MATH101 -->
<g id="edge1" class="edge">
<title>1 of [&#39;MATH100&#39;, &#39;MATH109&#39;]&#45;&gt;MATH101</title>
<path fill="none" stroke="black" d="M257.21,-172.5C270.36,-172.5 293.97,-172.5 314.52,-172.5"/>
<polygon fill="black" stroke="black" points="314.67,-174.25 319.67,-172.5 314.67,-170.75 314.67,-174.25"/>
</g>
<!-- 1 of [&#39;MATH100&#39;, &#39;MATH109&#39;]&#45;&gt;PHYS120 -->
<g id="edge54" class="edge">
<title>1 of [&#39;MATH100&#39;, &#39;MATH109&#39;]&#45;&gt;PHYS120</title>
<path fill="none" stroke="black" d="M255.84,-178.22C268.9,-186.55 294.28,-202.25 317,-213.5 318.63,-214.31 320.32,-215.11 322.03,-215.9"/>
<polygon fill="black" stroke="black" points="321.32,-217.5 326.6,-217.95 322.75,-214.3 321.32,-217.5"/>
</g>
<!-- 1 of [&#39;MATH100&#39;, &#39;MATH102&#39;, &#39;MATH109&#39;]&#45;&gt;PHYS110 -->
<g id="edge4" class="edge">
<title>1 of [&#39;MATH100&#39;, &#39;MATH102&#39;, &#39;MATH109&#39;]&#45;&gt;PHYS110</title>
<path fill="none" stroke="black" d="M254.01,-128.69C265.84,-142.1 291.02,-168.88 317,-185.5 318.06,-186.18 319.16,-186.84 320.28,-187.47"/>
<polygon fill="black" stroke="black" points="319.47,-189.03 324.71,-189.83 321.11,-185.94 319.47,-189.03"/>
</g>
<!-- 1 of [&#39;MATH100&#39;, &#39;MATH102&#39;, &#39;MATH109&#39;]&#45;&gt;EOS312 -->
<g id="edge25" class="edge">
<title>1 of [&#39;MATH100&#39;, &#39;MATH102&#39;, &#39;MATH109&#39;]&#45;&gt;EOS312</title>
<path fill="none" stroke="black" d="M256.62,-117.05C286.41,-106.67 379.95,-76.5 460,-76.5 460,-76.5 460,-76.5 728,-76.5 753.04,-76.5 816.38,-105.33 852.23,-122.69"/>
<polygon fill="black" stroke="black" points="851.62,-124.34 856.89,-124.95 853.15,-121.19 851.62,-124.34"/>
</g>
<!-- 1 of [&#39;MATH100&#39;, &#39;MATH102&#39;, &#39;MATH109&#39;]&#45;&gt;CHEM102 -->
<g id="edge48" class="edge">
<title>1 of [&#39;MATH100&#39;, &#39;MATH102&#39;, &#39;MATH109&#39;]&#45;&gt;CHEM102</title>
<path fill="none" stroke="black" d="M255.36,-114.14C272.53,-101.08 312.13,-70.97 335.44,-53.24"/>
<polygon fill="black" stroke="black" points="336.67,-54.5 339.59,-50.08 334.55,-51.71 336.67,-54.5"/>
</g>
<!-- 1 of [&#39;MATH100&#39;, &#39;MATH102&#39;, &#39;MATH109&#39;]&#45;&gt;PHYS111 -->
<g id="edge59" class="edge">
<title>1 of [&#39;MATH100&#39;, &#39;MATH102&#39;, &#39;MATH109&#39;]&#45;&gt;PHYS111</title>
<path fill="none" stroke="black" d="M256.97,-121.52C270.54,-122.91 295.6,-125.44 317,-127.5 392.26,-134.74 480.36,-142.77 529,-147.17"/>
<polygon fill="black" stroke="black" points="529.02,-148.93 534.15,-147.64 529.33,-145.44 529.02,-148.93"/>
</g>
<!-- 1 of [&#39;EOS225&#39;, &#39;MATH204&#39;]&#45;&gt;EOS431 -->
<g id="edge8" class="edge">
<title>1 of [&#39;EOS225&#39;, &#39;MATH204&#39;]&#45;&gt;EOS431</title>
<path fill="none" stroke="black" d="M660.2,-262.4C671.55,-253.97 692.37,-238.5 707.55,-227.21"/>
<polygon fill="black" stroke="black" points="708.71,-228.53 711.68,-224.15 706.62,-225.72 708.71,-228.53"/>
</g>
<!-- 1 of [&#39;PHYS102A&#39;, &#39;PHYS110&#39;, &#39;PHYS120&#39;]&#45;&gt;EOS431 -->
<g id="edge11" class="edge">
<title>1 of [&#39;PHYS102A&#39;, &#39;PHYS110&#39;, &#39;PHYS120&#39;]&#45;&gt;EOS431</title>
<path fill="none" stroke="black" d="M472.09,-231.31C501.59,-236.29 590.12,-249.02 662,-236.5 674.1,-234.39 686.94,-230.2 697.92,-225.96"/>
<polygon fill="black" stroke="black" points="698.82,-227.49 702.82,-224.02 697.53,-224.23 698.82,-227.49"/>
</g>
<!-- 1 of [&#39;PHYS102A&#39;, &#39;PHYS110&#39;, &#39;PHYS120&#39;]&#45;&gt;PHYS102B -->
<g id="edge19" class="edge">
<title>1 of [&#39;PHYS102A&#39;, &#39;PHYS110&#39;, &#39;PHYS120&#39;]&#45;&gt;PHYS102B</title>
<path fill="none" stroke="black" d="M471.97,-227.58C484.05,-225.26 505.18,-221.2 524.35,-217.51"/>
<polygon fill="black" stroke="black" points="525.11,-219.14 529.69,-216.48 524.45,-215.71 525.11,-219.14"/>
</g>
<!-- 1 of [&#39;PHYS102A&#39;, &#39;PHYS110&#39;, &#39;PHYS120&#39;]&#45;&gt;EOS314 -->
<g id="edge34" class="edge">
<title>1 of [&#39;PHYS102A&#39;, &#39;PHYS110&#39;, &#39;PHYS120&#39;]&#45;&gt;EOS314</title>
<path fill="none" stroke="black" d="M472.02,-231.15C502.84,-235.68 597.99,-245.67 662,-208.5 681.84,-196.98 679.48,-185.04 698,-171.5 698.31,-171.27 698.63,-171.04 698.95,-170.82"/>
<polygon fill="black" stroke="black" points="700.04,-172.2 703.29,-168.01 698.14,-169.26 700.04,-172.2"/>
</g>
<!-- 1 of [&#39;PHYS102B&#39;, &#39;PHYS111&#39;, &#39;PHYS130&#39;]&#45;&gt;EOS431 -->
<g id="edge15" class="edge">
<title>1 of [&#39;PHYS102B&#39;, &#39;PHYS111&#39;, &#39;PHYS130&#39;]&#45;&gt;EOS431</title>
<path fill="none" stroke="black" d="M660.25,-171.92C669.29,-178.83 684.32,-189.98 698,-198.5 699.06,-199.16 700.16,-199.83 701.28,-200.49"/>
<polygon fill="black" stroke="black" points="700.43,-202.02 705.63,-202.99 702.17,-198.98 700.43,-202.02"/>
</g>
<!-- 1 of [&#39;EOS110&#39;, &#39;EOS314&#39;, &#39;EOS431&#39;]&#45;&gt;EOS312 -->
<g id="edge20" class="edge">
<title>1 of [&#39;EOS110&#39;, &#39;EOS314&#39;, &#39;EOS431&#39;]&#45;&gt;EOS312</title>
<path fill="none" stroke="black" d="M812.78,-176.92C823.6,-170.05 842.36,-158.13 856.99,-148.84"/>
<polygon fill="black" stroke="black" points="858.1,-150.21 861.39,-146.05 856.23,-147.25 858.1,-150.21"/>
</g>
<!-- 2 of [&#39;MATH100&#39;, &#39;MATH101&#39;, &#39;MATH102&#39;, &#39;MATH109&#39;, &#39;MATH151&#39;]&#45;&gt;EOS314 -->
<g id="edge28" class="edge">
<title>2 of [&#39;MATH100&#39;, &#39;MATH101&#39;, &#39;MATH102&#39;, &#39;MATH109&#39;, &#39;MATH151&#39;]&#45;&gt;EOS314</title>
<path fill="none" stroke="black" d="M471.99,-115.08C495.19,-118.77 554.49,-128.23 604,-136.5 634.08,-141.53 668.3,-147.43 692.83,-151.7"/>
<polygon fill="black" stroke="black" points="692.68,-153.45 697.91,-152.58 693.28,-150 692.68,-153.45"/>
</g>
<!-- 1 of [&#39;PHYS102B&#39;, &#39;PHYS111&#39;, &#39;PHYS120&#39;]&#45;&gt;EOS314 -->
<g id="edge35" class="edge">
<title>1 of [&#39;PHYS102B&#39;, &#39;PHYS111&#39;, &#39;PHYS120&#39;]&#45;&gt;EOS314</title>
<path fill="none" stroke="black" d="M661.07,-189.96C670.78,-185.11 686.62,-177.19 700.23,-170.39"/>
<polygon fill="black" stroke="black" points="701.06,-171.93 704.75,-168.13 699.49,-168.8 701.06,-171.93"/>
</g>
<!-- 3 of [&#39;EOS313&#39;, &#39;EOS314&#39;, &#39;EOS431&#39;, &#39;EOS312&#39;, &#39;EOS311&#39;]&#45;&gt;EOS401 -->
<g id="edge39" class="edge">
<title>3 of [&#39;EOS313&#39;, &#39;EOS314&#39;, &#39;EOS431&#39;, &#39;EOS312&#39;, &#39;EOS311&#39;]&#45;&gt;EOS401</title>
<path fill="none" stroke="black" d="M966.29,-135.5C974.28,-135.5 985.83,-135.5 996.9,-135.5"/>
<polygon fill="black" stroke="black" points="996.94,-137.25 1001.94,-135.5 996.94,-133.75 996.94,-137.25"/>
</g>
<!-- EOS313 -->
<g id="node33" class="node">
<title>EOS313</title>
<path fill="#f5edc9" stroke="#030a10" d="M901,-118C901,-118 857,-118 857,-118 853.5,-118 850,-114.5 850,-111 850,-111 850,-104 850,-104 850,-100.5 853.5,-97 857,-97 857,-97 901,-97 901,-97 904.5,-97 908,-100.5 908,-104 908,-104 908,-111 908,-111 908,-114.5 904.5,-118 901,-118"/>
<text text-anchor="middle" x="879" y="-104.4" font-family="Times,serif" font-size="12.00">EOS313</text>
</g>
<!-- EOS313&#45;&gt;3 of [&#39;EOS313&#39;, &#39;EOS314&#39;, &#39;EOS431&#39;, &#39;EOS312&#39;, &#39;EOS311&#39;] -->
<g id="edge40" class="edge">
<title>EOS313&#45;&gt;3 of [&#39;EOS313&#39;, &#39;EOS314&#39;, &#39;EOS431&#39;, &#39;EOS312&#39;, &#39;EOS311&#39;]</title>
<path fill="none" stroke="black" d="M907.98,-118.09C918.65,-122.12 930.39,-126.57 939.34,-129.95"/>
<polygon fill="black" stroke="black" points="938.97,-131.68 944.26,-131.82 940.21,-128.41 938.97,-131.68"/>
</g>
<!-- EOS311 -->
<g id="node34" class="node">
<title>EOS311</title>
<path fill="#f5edc9" stroke="#030a10" d="M901,-90C901,-90 857,-90 857,-90 853.5,-90 850,-86.5 850,-83 850,-83 850,-76 850,-76 850,-72.5 853.5,-69 857,-69 857,-69 901,-69 901,-69 904.5,-69 908,-72.5 908,-76 908,-76 908,-83 908,-83 908,-86.5 904.5,-90 901,-90"/>
<text text-anchor="middle" x="879" y="-76.4" font-family="Times,serif" font-size="12.00">EOS311</text>
</g>
<!-- EOS311&#45;&gt;3 of [&#39;EOS313&#39;, &#39;EOS314&#39;, &#39;EOS431&#39;, &#39;EOS312&#39;, &#39;EOS311&#39;] -->
<g id="edge44" class="edge">
<title>EOS311&#45;&gt;3 of [&#39;EOS313&#39;, &#39;EOS314&#39;, &#39;EOS431&#39;, &#39;EOS312&#39;, &#39;EOS311&#39;]</title>
<path fill="none" stroke="black" d="M902.63,-90.12C904.48,-91.2 906.3,-92.33 908,-93.5 921.1,-102.5 934.33,-115.01 943.21,-124.04"/>
<polygon fill="black" stroke="black" points="942,-125.3 946.74,-127.67 944.51,-122.86 942,-125.3"/>
</g>
<!-- 1 of [&#39;MATH200&#39;, &#39;MATH205&#39;] -->
<g id="node35" class="node">
<title>1 of [&#39;MATH200&#39;, &#39;MATH205&#39;]</title>
<ellipse fill="#e9dbd0" stroke="#030a10" cx="461" cy="-296.5" rx="11" ry="11"/>
<text text-anchor="middle" x="461" y="-293.4" font-family="Times,serif" font-size="12.00">1</text>
</g>
<!-- 1 of [&#39;MATH200&#39;, &#39;MATH205&#39;]&#45;&gt;MATH204 -->
<g id="edge45" class="edge">
<title>1 of [&#39;MATH200&#39;, &#39;MATH205&#39;]&#45;&gt;MATH204</title>
<path fill="none" stroke="black" d="M472.35,-296.5C485.09,-296.5 507.44,-296.5 527.11,-296.5"/>
<polygon fill="black" stroke="black" points="527.31,-298.25 532.31,-296.5 527.31,-294.75 527.31,-298.25"/>
</g>
<!-- MATH200 -->
<g id="node36" class="node">
<title>MATH200</title>
<path fill="#f5edc9" stroke="#030a10" d="M382,-329C382,-329 327,-329 327,-329 323.5,-329 320,-325.5 320,-322 320,-322 320,-315 320,-315 320,-311.5 323.5,-308 327,-308 327,-308 382,-308 382,-308 385.5,-308 389,-311.5 389,-315 389,-315 389,-322 389,-322 389,-325.5 385.5,-329 382,-329"/>
<text text-anchor="middle" x="354.5" y="-315.4" font-family="Times,serif" font-size="12.00">MATH200</text>
</g>
<!-- MATH200&#45;&gt;1 of [&#39;MATH200&#39;, &#39;MATH205&#39;] -->
<g id="edge46" class="edge">
<title>MATH200&#45;&gt;1 of [&#39;MATH200&#39;, &#39;MATH205&#39;]</title>
<path fill="none" stroke="black" d="M389.14,-311.42C408.06,-307.44 430.72,-302.66 445.23,-299.61"/>
<polygon fill="black" stroke="black" points="445.66,-301.31 450.19,-298.57 444.94,-297.88 445.66,-301.31"/>
</g>
<!-- MATH205 -->
<g id="node37" class="node">
<title>MATH205</title>
<path fill="#f5edc9" stroke="#030a10" d="M382,-301C382,-301 327,-301 327,-301 323.5,-301 320,-297.5 320,-294 320,-294 320,-287 320,-287 320,-283.5 323.5,-280 327,-280 327,-280 382,-280 382,-280 385.5,-280 389,-283.5 389,-287 389,-287 389,-294 389,-294 389,-297.5 385.5,-301 382,-301"/>
<text text-anchor="middle" x="354.5" y="-287.4" font-family="Times,serif" font-size="12.00">MATH205</text>
</g>
<!-- MATH205&#45;&gt;1 of [&#39;MATH200&#39;, &#39;MATH205&#39;] -->
<g id="edge47" class="edge">
<title>MATH205&#45;&gt;1 of [&#39;MATH200&#39;, &#39;MATH205&#39;]</title>
<path fill="none" stroke="black" d="M389.14,-292.43C407.68,-293.5 429.82,-294.77 444.36,-295.6"/>
<polygon fill="black" stroke="black" points="444.63,-297.37 449.72,-295.91 444.83,-293.88 444.63,-297.37"/>
</g>
<!-- 1 of [&#39;CHEM101&#39;, &#39;CHEM150&#39;]&#45;&gt;CHEM102 -->
<g id="edge50" class="edge">
<title>1 of [&#39;CHEM101&#39;, &#39;CHEM150&#39;]&#45;&gt;CHEM102</title>
<path fill="none" stroke="black" d="M257.21,-39.5C270.27,-39.5 293.63,-39.5 314.07,-39.5"/>
<polygon fill="black" stroke="black" points="314.2,-41.25 319.2,-39.5 314.2,-37.75 314.2,-41.25"/>
</g>
</g>
</svg>
