<?xml version="1.0" encoding="UTF-8" standalone="no"?>
<!DOCTYPE svg PUBLIC "-//W3C//DTD SVG 1.1//EN"
 "http://www.w3.org/Graphics/SVG/1.1/DTD/svg11.dtd">
<!-- Generated by graphviz version 2.43.0 (0)
 -->
<!-- Title: unix Pages: 1 -->
<svg width="666pt" height="165pt"
 viewBox="0.00 0.00 666.00 165.00" xmlns="http://www.w3.org/2000/svg" xmlns:xlink="http://www.w3.org/1999/xlink">
<g id="graph0" class="graph" transform="scale(1 1) rotate(0) translate(4 161)">
<title>unix</title>
<polygon fill="white" stroke="transparent" points="-4,4 -4,-161 662,-161 662,4 -4,4"/>
<text text-anchor="middle" x="329" y="-141.8" font-family="Times,serif" font-size="14.00">EOS300: Earth Science Field School</text>
<!-- EOS201 -->
<g id="node1" class="node">
<title>EOS201</title>
<path fill="#e7a79b" stroke="#030a10" d="M463,-99C463,-99 419,-99 419,-99 415.5,-99 412,-95.5 412,-92 412,-92 412,-85 412,-85 412,-81.5 415.5,-78 419,-78 419,-78 463,-78 463,-78 466.5,-78 470,-81.5 470,-85 470,-85 470,-92 470,-92 470,-95.5 466.5,-99 463,-99"/>
<text text-anchor="middle" x="441" y="-85.4" font-family="Times,serif" font-size="12.00">EOS201</text>
</g>
<!-- EOS300 -->
<g id="node8" class="node">
<title>EOS300</title>
<path fill="#9fa7be" stroke="#030a10" d="M557,-99C557,-99 513,-99 513,-99 509.5,-99 506,-95.5 506,-92 506,-92 506,-85 506,-85 506,-81.5 509.5,-78 513,-78 513,-78 557,-78 557,-78 560.5,-78 564,-81.5 564,-85 564,-85 564,-92 564,-92 564,-95.5 560.5,-99 557,-99"/>
<text text-anchor="middle" x="535" y="-85.4" font-family="Times,serif" font-size="12.00">EOS300</text>
</g>
<!-- EOS201&#45;&gt;EOS300 -->
<g id="edge18" class="edge">
<title>EOS201&#45;&gt;EOS300</title>
<path fill="none" stroke="black" d="M470.1,-88.5C479.73,-88.5 490.6,-88.5 500.61,-88.5"/>
<polygon fill="black" stroke="black" points="500.75,-90.25 505.75,-88.5 500.75,-86.75 500.75,-90.25"/>
</g>
<!-- EOS321 -->
<g id="node2" class="node">
<title>EOS321</title>
<path fill="#e7a79b" stroke="#030a10" d="M651,-120C651,-120 607,-120 607,-120 603.5,-120 600,-116.5 600,-113 600,-113 600,-106 600,-106 600,-102.5 603.5,-99 607,-99 607,-99 651,-99 651,-99 654.5,-99 658,-102.5 658,-106 658,-106 658,-113 658,-113 658,-116.5 654.5,-120 651,-120"/>
<text text-anchor="middle" x="629" y="-106.4" font-family="Times,serif" font-size="12.00">EOS321</text>
</g>
<!-- EOS120 -->
<g id="node3" class="node">
<title>EOS120</title>
<path fill="#f5edc9" stroke="#030a10" d="M269,-105C269,-105 225,-105 225,-105 221.5,-105 218,-101.5 218,-98 218,-98 218,-91 218,-91 218,-87.5 221.5,-84 225,-84 225,-84 269,-84 269,-84 272.5,-84 276,-87.5 276,-91 276,-91 276,-98 276,-98 276,-101.5 272.5,-105 269,-105"/>
<text text-anchor="middle" x="247" y="-91.4" font-family="Times,serif" font-size="12.00">EOS120</text>
</g>
<!-- EOS120&#45;&gt;EOS201 -->
<g id="edge1" class="edge">
<title>EOS120&#45;&gt;EOS201</title>
<path fill="none" stroke="black" d="M276.33,-93.61C311.03,-92.53 369.73,-90.7 406.59,-89.54"/>
<polygon fill="black" stroke="black" points="406.92,-91.28 411.87,-89.38 406.81,-87.79 406.92,-91.28"/>
</g>
<!-- EOS205 -->
<g id="node4" class="node">
<title>EOS205</title>
<path fill="#e7a79b" stroke="#030a10" d="M369,-80C369,-80 325,-80 325,-80 321.5,-80 318,-76.5 318,-73 318,-73 318,-66 318,-66 318,-62.5 321.5,-59 325,-59 325,-59 369,-59 369,-59 372.5,-59 376,-62.5 376,-66 376,-66 376,-73 376,-73 376,-76.5 372.5,-80 369,-80"/>
<text text-anchor="middle" x="347" y="-66.4" font-family="Times,serif" font-size="12.00">EOS205</text>
</g>
<!-- EOS120&#45;&gt;EOS205 -->
<g id="edge5" class="edge">
<title>EOS120&#45;&gt;EOS205</title>
<path fill="none" stroke="black" d="M276.08,-87.34C287.56,-84.41 300.93,-81 312.89,-77.95"/>
<polygon fill="black" stroke="black" points="313.5,-79.6 317.91,-76.67 312.64,-76.21 313.5,-79.6"/>
</g>
<!-- EOS202 -->
<g id="node5" class="node">
<title>EOS202</title>
<path fill="#e7a79b" stroke="#030a10" d="M463,-127C463,-127 419,-127 419,-127 415.5,-127 412,-123.5 412,-120 412,-120 412,-113 412,-113 412,-109.5 415.5,-106 419,-106 419,-106 463,-106 463,-106 466.5,-106 470,-109.5 470,-113 470,-113 470,-120 470,-120 470,-123.5 466.5,-127 463,-127"/>
<text text-anchor="middle" x="441" y="-113.4" font-family="Times,serif" font-size="12.00">EOS202</text>
</g>
<!-- EOS120&#45;&gt;EOS202 -->
<g id="edge7" class="edge">
<title>EOS120&#45;&gt;EOS202</title>
<path fill="none" stroke="black" d="M276.33,-97.75C311.03,-101.72 369.73,-108.45 406.59,-112.67"/>
<polygon fill="black" stroke="black" points="406.7,-114.45 411.87,-113.28 407.1,-110.97 406.7,-114.45"/>
</g>
<!-- EOS205&#45;&gt;EOS201 -->
<g id="edge2" class="edge">
<title>EOS205&#45;&gt;EOS201</title>
<path fill="none" stroke="black" d="M376.1,-75.3C385.73,-77.29 396.6,-79.54 406.61,-81.6"/>
<polygon fill="black" stroke="black" points="406.5,-83.37 411.75,-82.67 407.21,-79.94 406.5,-83.37"/>
</g>
<!-- EOS205&#45;&gt;EOS300 -->
<g id="edge20" class="edge">
<title>EOS205&#45;&gt;EOS300</title>
<path fill="none" stroke="black" d="M376.22,-69.27C401.02,-69.39 438.04,-70.38 470,-74.5 480.09,-75.8 490.93,-77.9 500.78,-80.08"/>
<polygon fill="black" stroke="black" points="500.57,-81.83 505.83,-81.23 501.34,-78.41 500.57,-81.83"/>
</g>
<!-- EOS202&#45;&gt;EOS300 -->
<g id="edge19" class="edge">
<title>EOS202&#45;&gt;EOS300</title>
<path fill="none" stroke="black" d="M470.1,-107.95C479.82,-104.99 490.8,-101.65 500.88,-98.58"/>
<polygon fill="black" stroke="black" points="501.48,-100.23 505.75,-97.1 500.46,-96.88 501.48,-100.23"/>
</g>
<!-- CHEM102 -->
<g id="node6" class="node">
<title>CHEM102</title>
<path fill="#f5edc9" stroke="#030a10" d="M275,-77C275,-77 219,-77 219,-77 215.5,-77 212,-73.5 212,-70 212,-70 212,-63 212,-63 212,-59.5 215.5,-56 219,-56 219,-56 275,-56 275,-56 278.5,-56 282,-59.5 282,-63 282,-63 282,-70 282,-70 282,-73.5 278.5,-77 275,-77"/>
<text text-anchor="middle" x="247" y="-63.4" font-family="Times,serif" font-size="12.00">CHEM102</text>
</g>
<!-- CHEM102&#45;&gt;EOS205 -->
<g id="edge6" class="edge">
<title>CHEM102&#45;&gt;EOS205</title>
<path fill="none" stroke="black" d="M282,-67.54C291.98,-67.85 302.88,-68.18 312.81,-68.48"/>
<polygon fill="black" stroke="black" points="312.85,-70.24 317.9,-68.64 312.96,-66.74 312.85,-70.24"/>
</g>
<!-- EOS400 -->
<g id="node7" class="node">
<title>EOS400</title>
<path fill="#e7a79b" stroke="#030a10" d="M651,-85C651,-85 607,-85 607,-85 603.5,-85 600,-81.5 600,-78 600,-78 600,-71 600,-71 600,-67.5 603.5,-64 607,-64 607,-64 651,-64 651,-64 654.5,-64 658,-67.5 658,-71 658,-71 658,-78 658,-78 658,-81.5 654.5,-85 651,-85"/>
<text text-anchor="middle" x="629" y="-71.4" font-family="Times,serif" font-size="12.00">EOS400</text>
</g>
<!-- EOS300&#45;&gt;EOS321 -->
<g id="edge4" class="edge">
<title>EOS300&#45;&gt;EOS321</title>
<path fill="none" stroke="black" d="M564.1,-94.91C573.73,-97.11 584.6,-99.59 594.61,-101.88"/>
<polygon fill="black" stroke="black" points="594.49,-103.65 599.75,-103.05 595.27,-100.23 594.49,-103.65"/>
</g>
<!-- EOS300&#45;&gt;EOS400 -->
<g id="edge16" class="edge">
<title>EOS300&#45;&gt;EOS400</title>
<path fill="none" stroke="black" d="M564.1,-84.22C573.73,-82.76 584.6,-81.1 594.61,-79.58"/>
<polygon fill="black" stroke="black" points="595.07,-81.28 599.75,-78.8 594.55,-77.82 595.07,-81.28"/>
</g>
<!-- EOS210 -->
<g id="node9" class="node">
<title>EOS210</title>
<path fill="#f5edc9" stroke="#030a10" d="M557,-127C557,-127 513,-127 513,-127 509.5,-127 506,-123.5 506,-120 506,-120 506,-113 506,-113 506,-109.5 509.5,-106 513,-106 513,-106 557,-106 557,-106 560.5,-106 564,-109.5 564,-113 564,-113 564,-120 564,-120 564,-123.5 560.5,-127 557,-127"/>
<text text-anchor="middle" x="535" y="-113.4" font-family="Times,serif" font-size="12.00">EOS210</text>
</g>
<!-- EOS210&#45;&gt;EOS321 -->
<g id="edge3" class="edge">
<title>EOS210&#45;&gt;EOS321</title>
<path fill="none" stroke="black" d="M564.1,-114.36C573.73,-113.63 584.6,-112.8 594.61,-112.04"/>
<polygon fill="black" stroke="black" points="594.9,-113.77 599.75,-111.65 594.63,-110.28 594.9,-113.77"/>
</g>
<!-- 1 of [&#39;MATH100&#39;, &#39;MATH102&#39;, &#39;MATH109&#39;] -->
<g id="node10" class="node">
<title>1 of [&#39;MATH100&#39;, &#39;MATH102&#39;, &#39;MATH109&#39;]</title>
<ellipse fill="#e9dbd0" stroke="#030a10" cx="141" cy="-95.5" rx="11" ry="11"/>
<text text-anchor="middle" x="141" y="-92.4" font-family="Times,serif" font-size="12.00">1</text>
</g>
<!-- 1 of [&#39;MATH100&#39;, &#39;MATH102&#39;, &#39;MATH109&#39;]&#45;&gt;CHEM102 -->
<g id="edge8" class="edge">
<title>1 of [&#39;MATH100&#39;, &#39;MATH102&#39;, &#39;MATH109&#39;]&#45;&gt;CHEM102</title>
<path fill="none" stroke="black" d="M151.97,-92.72C164.53,-89.22 186.87,-82.99 206.61,-77.48"/>
<polygon fill="black" stroke="black" points="207.23,-79.13 211.57,-76.1 206.29,-75.76 207.23,-79.13"/>
</g>
<!-- MATH100 -->
<g id="node11" class="node">
<title>MATH100</title>
<path fill="#f5edc9" stroke="#030a10" d="M62.5,-134C62.5,-134 7.5,-134 7.5,-134 4,-134 0.5,-130.5 0.5,-127 0.5,-127 0.5,-120 0.5,-120 0.5,-116.5 4,-113 7.5,-113 7.5,-113 62.5,-113 62.5,-113 66,-113 69.5,-116.5 69.5,-120 69.5,-120 69.5,-127 69.5,-127 69.5,-130.5 66,-134 62.5,-134"/>
<text text-anchor="middle" x="35" y="-120.4" font-family="Times,serif" font-size="12.00">MATH100</text>
</g>
<!-- MATH100&#45;&gt;1 of [&#39;MATH100&#39;, &#39;MATH102&#39;, &#39;MATH109&#39;] -->
<g id="edge9" class="edge">
<title>MATH100&#45;&gt;1 of [&#39;MATH100&#39;, &#39;MATH102&#39;, &#39;MATH109&#39;]</title>
<path fill="none" stroke="black" d="M69.77,-114.41C88.57,-109.35 111.02,-103.3 125.39,-99.43"/>
<polygon fill="black" stroke="black" points="125.92,-101.1 130.29,-98.11 125.01,-97.72 125.92,-101.1"/>
</g>
<!-- MATH102 -->
<g id="node12" class="node">
<title>MATH102</title>
<path fill="#f5edc9" stroke="#030a10" d="M62.5,-106C62.5,-106 7.5,-106 7.5,-106 4,-106 0.5,-102.5 0.5,-99 0.5,-99 0.5,-92 0.5,-92 0.5,-88.5 4,-85 7.5,-85 7.5,-85 62.5,-85 62.5,-85 66,-85 69.5,-88.5 69.5,-92 69.5,-92 69.5,-99 69.5,-99 69.5,-102.5 66,-106 62.5,-106"/>
<text text-anchor="middle" x="35" y="-92.4" font-family="Times,serif" font-size="12.00">MATH102</text>
</g>
<!-- MATH102&#45;&gt;1 of [&#39;MATH100&#39;, &#39;MATH102&#39;, &#39;MATH109&#39;] -->
<g id="edge10" class="edge">
<title>MATH102&#45;&gt;1 of [&#39;MATH100&#39;, &#39;MATH102&#39;, &#39;MATH109&#39;]</title>
<path fill="none" stroke="black" d="M69.77,-95.5C88.2,-95.5 110.13,-95.5 124.52,-95.5"/>
<polygon fill="black" stroke="black" points="124.83,-97.25 129.83,-95.5 124.83,-93.75 124.83,-97.25"/>
</g>
<!-- MATH109 -->
<g id="node13" class="node">
<title>MATH109</title>
<path fill="#f5edc9" stroke="#030a10" d="M62.5,-78C62.5,-78 7.5,-78 7.5,-78 4,-78 0.5,-74.5 0.5,-71 0.5,-71 0.5,-64 0.5,-64 0.5,-60.5 4,-57 7.5,-57 7.5,-57 62.5,-57 62.5,-57 66,-57 69.5,-60.5 69.5,-64 69.5,-64 69.5,-71 69.5,-71 69.5,-74.5 66,-78 62.5,-78"/>
<text text-anchor="middle" x="35" y="-64.4" font-family="Times,serif" font-size="12.00">MATH109</text>
</g>
<!-- MATH109&#45;&gt;1 of [&#39;MATH100&#39;, &#39;MATH102&#39;, &#39;MATH109&#39;] -->
<g id="edge11" class="edge">
<title>MATH109&#45;&gt;1 of [&#39;MATH100&#39;, &#39;MATH102&#39;, &#39;MATH109&#39;]</title>
<path fill="none" stroke="black" d="M69.77,-76.59C88.57,-81.65 111.02,-87.7 125.39,-91.57"/>
<polygon fill="black" stroke="black" points="125.01,-93.28 130.29,-92.89 125.92,-89.9 125.01,-93.28"/>
</g>
<!-- CHEM091 -->
<g id="node14" class="node">
<title>CHEM091</title>
<path fill="#f5edc9" stroke="#030a10" d="M169,-77C169,-77 113,-77 113,-77 109.5,-77 106,-73.5 106,-70 106,-70 106,-63 106,-63 106,-59.5 109.5,-56 113,-56 113,-56 169,-56 169,-56 172.5,-56 176,-59.5 176,-63 176,-63 176,-70 176,-70 176,-73.5 172.5,-77 169,-77"/>
<text text-anchor="middle" x="141" y="-63.4" font-family="Times,serif" font-size="12.00">CHEM091</text>
</g>
<!-- CHEM091&#45;&gt;CHEM102 -->
<g id="edge12" class="edge">
<title>CHEM091&#45;&gt;CHEM102</title>
<path fill="none" stroke="black" d="M176.05,-66.5C185.84,-66.5 196.59,-66.5 206.67,-66.5"/>
<polygon fill="black" stroke="black" points="206.87,-68.25 211.87,-66.5 206.87,-64.75 206.87,-68.25"/>
</g>
<!-- 1 of [&#39;CHEM101&#39;, &#39;CHEM150&#39;] -->
<g id="node15" class="node">
<title>1 of [&#39;CHEM101&#39;, &#39;CHEM150&#39;]</title>
<ellipse fill="#e9dbd0" stroke="#030a10" cx="141" cy="-37.5" rx="11" ry="11"/>
<text text-anchor="middle" x="141" y="-34.4" font-family="Times,serif" font-size="12.00">1</text>
</g>
<!-- 1 of [&#39;CHEM101&#39;, &#39;CHEM150&#39;]&#45;&gt;CHEM102 -->
<g id="edge13" class="edge">
<title>1 of [&#39;CHEM101&#39;, &#39;CHEM150&#39;]&#45;&gt;CHEM102</title>
<path fill="none" stroke="black" d="M151.97,-40.28C164.53,-43.78 186.87,-50.01 206.61,-55.52"/>
<polygon fill="black" stroke="black" points="206.29,-57.24 211.57,-56.9 207.23,-53.87 206.29,-57.24"/>
</g>
<!-- CHEM101 -->
<g id="node16" class="node">
<title>CHEM101</title>
<path fill="#f5edc9" stroke="#030a10" d="M63,-49C63,-49 7,-49 7,-49 3.5,-49 0,-45.5 0,-42 0,-42 0,-35 0,-35 0,-31.5 3.5,-28 7,-28 7,-28 63,-28 63,-28 66.5,-28 70,-31.5 70,-35 70,-35 70,-42 70,-42 70,-45.5 66.5,-49 63,-49"/>
<text text-anchor="middle" x="35" y="-35.4" font-family="Times,serif" font-size="12.00">CHEM101</text>
</g>
<!-- CHEM101&#45;&gt;1 of [&#39;CHEM101&#39;, &#39;CHEM150&#39;] -->
<g id="edge14" class="edge">
<title>CHEM101&#45;&gt;1 of [&#39;CHEM101&#39;, &#39;CHEM150&#39;]</title>
<path fill="none" stroke="black" d="M70.05,-38.17C88.46,-38 110.29,-37.79 124.61,-37.65"/>
<polygon fill="black" stroke="black" points="124.9,-39.4 129.89,-37.6 124.87,-35.9 124.9,-39.4"/>
</g>
<!-- CHEM150 -->
<g id="node17" class="node">
<title>CHEM150</title>
<path fill="#f5edc9" stroke="#030a10" d="M63,-21C63,-21 7,-21 7,-21 3.5,-21 0,-17.5 0,-14 0,-14 0,-7 0,-7 0,-3.5 3.5,0 7,0 7,0 63,0 63,0 66.5,0 70,-3.5 70,-7 70,-7 70,-14 70,-14 70,-17.5 66.5,-21 63,-21"/>
<text text-anchor="middle" x="35" y="-7.4" font-family="Times,serif" font-size="12.00">CHEM150</text>
</g>
<!-- CHEM150&#45;&gt;1 of [&#39;CHEM101&#39;, &#39;CHEM150&#39;] -->
<g id="edge15" class="edge">
<title>CHEM150&#45;&gt;1 of [&#39;CHEM101&#39;, &#39;CHEM150&#39;]</title>
<path fill="none" stroke="black" d="M70.05,-19.34C88.63,-24.16 110.68,-29.89 124.99,-33.6"/>
<polygon fill="black" stroke="black" points="124.61,-35.31 129.89,-34.87 125.49,-31.92 124.61,-35.31"/>
</g>
<!-- EOS316 -->
<g id="node18" class="node">
<title>EOS316</title>
<path fill="#f5edc9" stroke="#030a10" d="M557,-71C557,-71 513,-71 513,-71 509.5,-71 506,-67.5 506,-64 506,-64 506,-57 506,-57 506,-53.5 509.5,-50 513,-50 513,-50 557,-50 557,-50 560.5,-50 564,-53.5 564,-57 564,-57 564,-64 564,-64 564,-67.5 560.5,-71 557,-71"/>
<text text-anchor="middle" x="535" y="-57.4" font-family="Times,serif" font-size="12.00">EOS316</text>
</g>
<!-- EOS316&#45;&gt;EOS400 -->
<g id="edge17" class="edge">
<title>EOS316&#45;&gt;EOS400</title>
<path fill="none" stroke="black" d="M564.1,-64.78C573.73,-66.24 584.6,-67.9 594.61,-69.42"/>
<polygon fill="black" stroke="black" points="594.55,-71.18 599.75,-70.2 595.07,-67.72 594.55,-71.18"/>
</g>
</g>
</svg>
