<?xml version="1.0" encoding="UTF-8" standalone="no"?>
<!DOCTYPE svg PUBLIC "-//W3C//DTD SVG 1.1//EN"
 "http://www.w3.org/Graphics/SVG/1.1/DTD/svg11.dtd">
<!-- Generated by graphviz version 2.43.0 (0)
 -->
<!-- Title: unix Pages: 1 -->
<svg width="560pt" height="192pt"
 viewBox="0.00 0.00 560.00 192.00" xmlns="http://www.w3.org/2000/svg" xmlns:xlink="http://www.w3.org/1999/xlink">
<g id="graph0" class="graph" transform="scale(1 1) rotate(0) translate(4 188)">
<title>unix</title>
<polygon fill="white" stroke="transparent" points="-4,4 -4,-188 556,-188 556,4 -4,4"/>
<text text-anchor="middle" x="276" y="-168.8" font-family="Times,serif" font-size="14.00">EOS300: Earth Science Field School</text>
<!-- EOS201 -->
<g id="node1" class="node">
<title>EOS201</title>
<path fill="#e7a79b" stroke="#030a10" d="M357,-113C357,-113 313,-113 313,-113 309.5,-113 306,-109.5 306,-106 306,-106 306,-99 306,-99 306,-95.5 309.5,-92 313,-92 313,-92 357,-92 357,-92 360.5,-92 364,-95.5 364,-99 364,-99 364,-106 364,-106 364,-109.5 360.5,-113 357,-113"/>
<text text-anchor="middle" x="335" y="-99.4" font-family="Times,serif" font-size="12.00">EOS201</text>
</g>
<!-- EOS300 -->
<g id="node8" class="node">
<title>EOS300</title>
<path fill="#9fa7be" stroke="#030a10" d="M451,-113C451,-113 407,-113 407,-113 403.5,-113 400,-109.5 400,-106 400,-106 400,-99 400,-99 400,-95.5 403.5,-92 407,-92 407,-92 451,-92 451,-92 454.5,-92 458,-95.5 458,-99 458,-99 458,-106 458,-106 458,-109.5 454.5,-113 451,-113"/>
<text text-anchor="middle" x="429" y="-99.4" font-family="Times,serif" font-size="12.00">EOS300</text>
</g>
<!-- EOS201&#45;&gt;EOS300 -->
<g id="edge16" class="edge">
<title>EOS201&#45;&gt;EOS300</title>
<path fill="none" stroke="black" d="M364.1,-102.5C373.73,-102.5 384.6,-102.5 394.61,-102.5"/>
<polygon fill="black" stroke="black" points="394.75,-104.25 399.75,-102.5 394.75,-100.75 394.75,-104.25"/>
</g>
<!-- EOS321 -->
<g id="node2" class="node">
<title>EOS321</title>
<path fill="#e7a79b" stroke="#030a10" d="M545,-134C545,-134 501,-134 501,-134 497.5,-134 494,-130.5 494,-127 494,-127 494,-120 494,-120 494,-116.5 497.5,-113 501,-113 501,-113 545,-113 545,-113 548.5,-113 552,-116.5 552,-120 552,-120 552,-127 552,-127 552,-130.5 548.5,-134 545,-134"/>
<text text-anchor="middle" x="523" y="-120.4" font-family="Times,serif" font-size="12.00">EOS321</text>
</g>
<!-- EOS120 -->
<g id="node3" class="node">
<title>EOS120</title>
<path fill="#f5edc9" stroke="#030a10" d="M163,-119C163,-119 119,-119 119,-119 115.5,-119 112,-115.5 112,-112 112,-112 112,-105 112,-105 112,-101.5 115.5,-98 119,-98 119,-98 163,-98 163,-98 166.5,-98 170,-101.5 170,-105 170,-105 170,-112 170,-112 170,-115.5 166.5,-119 163,-119"/>
<text text-anchor="middle" x="141" y="-105.4" font-family="Times,serif" font-size="12.00">EOS120</text>
</g>
<!-- EOS120&#45;&gt;EOS201 -->
<g id="edge1" class="edge">
<title>EOS120&#45;&gt;EOS201</title>
<path fill="none" stroke="black" d="M170.33,-107.61C205.03,-106.53 263.73,-104.7 300.59,-103.54"/>
<polygon fill="black" stroke="black" points="300.92,-105.28 305.87,-103.38 300.81,-101.79 300.92,-105.28"/>
</g>
<!-- EOS205 -->
<g id="node4" class="node">
<title>EOS205</title>
<path fill="#e7a79b" stroke="#030a10" d="M263,-94C263,-94 219,-94 219,-94 215.5,-94 212,-90.5 212,-87 212,-87 212,-80 212,-80 212,-76.5 215.5,-73 219,-73 219,-73 263,-73 263,-73 266.5,-73 270,-76.5 270,-80 270,-80 270,-87 270,-87 270,-90.5 266.5,-94 263,-94"/>
<text text-anchor="middle" x="241" y="-80.4" font-family="Times,serif" font-size="12.00">EOS205</text>
</g>
<!-- EOS120&#45;&gt;EOS205 -->
<g id="edge5" class="edge">
<title>EOS120&#45;&gt;EOS205</title>
<path fill="none" stroke="black" d="M170.08,-101.34C181.56,-98.41 194.93,-95 206.89,-91.95"/>
<polygon fill="black" stroke="black" points="207.5,-93.6 211.91,-90.67 206.64,-90.21 207.5,-93.6"/>
</g>
<!-- EOS202 -->
<g id="node5" class="node">
<title>EOS202</title>
<path fill="#e7a79b" stroke="#030a10" d="M357,-141C357,-141 313,-141 313,-141 309.5,-141 306,-137.5 306,-134 306,-134 306,-127 306,-127 306,-123.5 309.5,-120 313,-120 313,-120 357,-120 357,-120 360.5,-120 364,-123.5 364,-127 364,-127 364,-134 364,-134 364,-137.5 360.5,-141 357,-141"/>
<text text-anchor="middle" x="335" y="-127.4" font-family="Times,serif" font-size="12.00">EOS202</text>
</g>
<!-- EOS120&#45;&gt;EOS202 -->
<g id="edge7" class="edge">
<title>EOS120&#45;&gt;EOS202</title>
<path fill="none" stroke="black" d="M170.33,-111.75C205.03,-115.72 263.73,-122.45 300.59,-126.67"/>
<polygon fill="black" stroke="black" points="300.7,-128.45 305.87,-127.28 301.1,-124.97 300.7,-128.45"/>
</g>
<!-- EOS205&#45;&gt;EOS201 -->
<g id="edge2" class="edge">
<title>EOS205&#45;&gt;EOS201</title>
<path fill="none" stroke="black" d="M270.1,-89.3C279.73,-91.29 290.6,-93.54 300.61,-95.6"/>
<polygon fill="black" stroke="black" points="300.5,-97.37 305.75,-96.67 301.21,-93.94 300.5,-97.37"/>
</g>
<!-- EOS205&#45;&gt;EOS300 -->
<g id="edge18" class="edge">
<title>EOS205&#45;&gt;EOS300</title>
<path fill="none" stroke="black" d="M270.22,-83.27C295.02,-83.39 332.04,-84.38 364,-88.5 374.09,-89.8 384.93,-91.9 394.78,-94.08"/>
<polygon fill="black" stroke="black" points="394.57,-95.83 399.83,-95.23 395.34,-92.41 394.57,-95.83"/>
</g>
<!-- EOS202&#45;&gt;EOS300 -->
<g id="edge17" class="edge">
<title>EOS202&#45;&gt;EOS300</title>
<path fill="none" stroke="black" d="M364.1,-121.95C373.82,-118.99 384.8,-115.65 394.88,-112.58"/>
<polygon fill="black" stroke="black" points="395.48,-114.23 399.75,-111.1 394.46,-110.88 395.48,-114.23"/>
</g>
<!-- CHEM102 -->
<g id="node6" class="node">
<title>CHEM102</title>
<path fill="#f5edc9" stroke="#030a10" d="M169,-91C169,-91 113,-91 113,-91 109.5,-91 106,-87.5 106,-84 106,-84 106,-77 106,-77 106,-73.5 109.5,-70 113,-70 113,-70 169,-70 169,-70 172.5,-70 176,-73.5 176,-77 176,-77 176,-84 176,-84 176,-87.5 172.5,-91 169,-91"/>
<text text-anchor="middle" x="141" y="-77.4" font-family="Times,serif" font-size="12.00">CHEM102</text>
</g>
<!-- CHEM102&#45;&gt;EOS205 -->
<g id="edge6" class="edge">
<title>CHEM102&#45;&gt;EOS205</title>
<path fill="none" stroke="black" d="M176,-81.54C185.98,-81.85 196.88,-82.18 206.81,-82.48"/>
<polygon fill="black" stroke="black" points="206.85,-84.24 211.9,-82.64 206.96,-80.74 206.85,-84.24"/>
</g>
<!-- EOS400 -->
<g id="node7" class="node">
<title>EOS400</title>
<path fill="#e7a79b" stroke="#030a10" d="M545,-99C545,-99 501,-99 501,-99 497.5,-99 494,-95.5 494,-92 494,-92 494,-85 494,-85 494,-81.5 497.5,-78 501,-78 501,-78 545,-78 545,-78 548.5,-78 552,-81.5 552,-85 552,-85 552,-92 552,-92 552,-95.5 548.5,-99 545,-99"/>
<text text-anchor="middle" x="523" y="-85.4" font-family="Times,serif" font-size="12.00">EOS400</text>
</g>
<!-- EOS300&#45;&gt;EOS321 -->
<g id="edge4" class="edge">
<title>EOS300&#45;&gt;EOS321</title>
<path fill="none" stroke="black" d="M458.1,-108.91C467.73,-111.11 478.6,-113.59 488.61,-115.88"/>
<polygon fill="black" stroke="black" points="488.49,-117.65 493.75,-117.05 489.27,-114.23 488.49,-117.65"/>
</g>
<!-- EOS300&#45;&gt;EOS400 -->
<g id="edge14" class="edge">
<title>EOS300&#45;&gt;EOS400</title>
<path fill="none" stroke="black" d="M458.1,-98.22C467.73,-96.76 478.6,-95.1 488.61,-93.58"/>
<polygon fill="black" stroke="black" points="489.07,-95.28 493.75,-92.8 488.55,-91.82 489.07,-95.28"/>
</g>
<!-- EOS210 -->
<g id="node9" class="node">
<title>EOS210</title>
<path fill="#f5edc9" stroke="#030a10" d="M451,-141C451,-141 407,-141 407,-141 403.5,-141 400,-137.5 400,-134 400,-134 400,-127 400,-127 400,-123.5 403.5,-120 407,-120 407,-120 451,-120 451,-120 454.5,-120 458,-123.5 458,-127 458,-127 458,-134 458,-134 458,-137.5 454.5,-141 451,-141"/>
<text text-anchor="middle" x="429" y="-127.4" font-family="Times,serif" font-size="12.00">EOS210</text>
</g>
<!-- EOS210&#45;&gt;EOS321 -->
<g id="edge3" class="edge">
<title>EOS210&#45;&gt;EOS321</title>
<path fill="none" stroke="black" d="M458.1,-128.36C467.73,-127.63 478.6,-126.8 488.61,-126.04"/>
<polygon fill="black" stroke="black" points="488.9,-127.77 493.75,-125.65 488.63,-124.28 488.9,-127.77"/>
</g>
<!-- MATH100 -->
<g id="node10" class="node">
<title>MATH100</title>
<path fill="#f5edc9" stroke="#030a10" d="M62.5,-161C62.5,-161 7.5,-161 7.5,-161 4,-161 0.5,-157.5 0.5,-154 0.5,-154 0.5,-147 0.5,-147 0.5,-143.5 4,-140 7.5,-140 7.5,-140 62.5,-140 62.5,-140 66,-140 69.5,-143.5 69.5,-147 69.5,-147 69.5,-154 69.5,-154 69.5,-157.5 66,-161 62.5,-161"/>
<text text-anchor="middle" x="35" y="-147.4" font-family="Times,serif" font-size="12.00">MATH100</text>
</g>
<!-- MATH100&#45;&gt;CHEM102 -->
<g id="edge8" class="edge">
<title>MATH100&#45;&gt;CHEM102</title>
<path fill="none" stroke="#e55039" d="M64.72,-139.83C66.56,-138.8 68.34,-137.69 70,-136.5 89.73,-122.4 86.45,-109.84 106,-95.5 106.82,-94.9 107.67,-94.32 108.54,-93.75"/>
<polygon fill="#e55039" stroke="#e55039" points="109.63,-95.13 113.03,-91.06 107.84,-92.13 109.63,-95.13"/>
</g>
<!-- MATH102 -->
<g id="node11" class="node">
<title>MATH102</title>
<path fill="#f5edc9" stroke="#030a10" d="M62.5,-133C62.5,-133 7.5,-133 7.5,-133 4,-133 0.5,-129.5 0.5,-126 0.5,-126 0.5,-119 0.5,-119 0.5,-115.5 4,-112 7.5,-112 7.5,-112 62.5,-112 62.5,-112 66,-112 69.5,-115.5 69.5,-119 69.5,-119 69.5,-126 69.5,-126 69.5,-129.5 66,-133 62.5,-133"/>
<text text-anchor="middle" x="35" y="-119.4" font-family="Times,serif" font-size="12.00">MATH102</text>
</g>
<!-- MATH102&#45;&gt;CHEM102 -->
<g id="edge9" class="edge">
<title>MATH102&#45;&gt;CHEM102</title>
<path fill="none" stroke="#e55039" d="M62.24,-111.9C76.41,-106.18 93.98,-99.08 108.84,-93.08"/>
<polygon fill="#e55039" stroke="#e55039" points="109.78,-94.59 113.76,-91.09 108.47,-91.34 109.78,-94.59"/>
</g>
<!-- MATH109 -->
<g id="node12" class="node">
<title>MATH109</title>
<path fill="#f5edc9" stroke="#030a10" d="M62.5,-105C62.5,-105 7.5,-105 7.5,-105 4,-105 0.5,-101.5 0.5,-98 0.5,-98 0.5,-91 0.5,-91 0.5,-87.5 4,-84 7.5,-84 7.5,-84 62.5,-84 62.5,-84 66,-84 69.5,-87.5 69.5,-91 69.5,-91 69.5,-98 69.5,-98 69.5,-101.5 66,-105 62.5,-105"/>
<text text-anchor="middle" x="35" y="-91.4" font-family="Times,serif" font-size="12.00">MATH109</text>
</g>
<!-- MATH109&#45;&gt;CHEM102 -->
<g id="edge10" class="edge">
<title>MATH109&#45;&gt;CHEM102</title>
<path fill="none" stroke="#e55039" d="M69.77,-89.95C79.56,-88.64 90.35,-87.18 100.47,-85.82"/>
<polygon fill="#e55039" stroke="#e55039" points="100.97,-87.52 105.69,-85.12 100.5,-84.05 100.97,-87.52"/>
</g>
<!-- CHEM091 -->
<g id="node13" class="node">
<title>CHEM091</title>
<path fill="#f5edc9" stroke="#030a10" d="M63,-77C63,-77 7,-77 7,-77 3.5,-77 0,-73.5 0,-70 0,-70 0,-63 0,-63 0,-59.5 3.5,-56 7,-56 7,-56 63,-56 63,-56 66.5,-56 70,-59.5 70,-63 70,-63 70,-70 70,-70 70,-73.5 66.5,-77 63,-77"/>
<text text-anchor="middle" x="35" y="-63.4" font-family="Times,serif" font-size="12.00">CHEM091</text>
</g>
<!-- CHEM091&#45;&gt;CHEM102 -->
<g id="edge11" class="edge">
<title>CHEM091&#45;&gt;CHEM102</title>
<path fill="none" stroke="black" d="M70.05,-71.08C79.84,-72.4 90.59,-73.85 100.67,-75.21"/>
<polygon fill="black" stroke="black" points="100.68,-76.97 105.87,-75.91 101.15,-73.5 100.68,-76.97"/>
</g>
<!-- CHEM101 -->
<g id="node14" class="node">
<title>CHEM101</title>
<path fill="#f5edc9" stroke="#030a10" d="M63,-49C63,-49 7,-49 7,-49 3.5,-49 0,-45.5 0,-42 0,-42 0,-35 0,-35 0,-31.5 3.5,-28 7,-28 7,-28 63,-28 63,-28 66.5,-28 70,-31.5 70,-35 70,-35 70,-42 70,-42 70,-45.5 66.5,-49 63,-49"/>
<text text-anchor="middle" x="35" y="-35.4" font-family="Times,serif" font-size="12.00">CHEM101</text>
</g>
<!-- CHEM101&#45;&gt;CHEM102 -->
<g id="edge12" class="edge">
<title>CHEM101&#45;&gt;CHEM102</title>
<path fill="none" stroke="#eb2f06" stroke-dasharray="5,2" d="M62.24,-49.1C76.41,-54.82 93.98,-61.92 108.84,-67.92"/>
<polygon fill="#eb2f06" stroke="#eb2f06" points="108.47,-69.66 113.76,-69.91 109.78,-66.41 108.47,-69.66"/>
</g>
<!-- CHEM150 -->
<g id="node15" class="node">
<title>CHEM150</title>
<path fill="#f5edc9" stroke="#030a10" d="M63,-21C63,-21 7,-21 7,-21 3.5,-21 0,-17.5 0,-14 0,-14 0,-7 0,-7 0,-3.5 3.5,0 7,0 7,0 63,0 63,0 66.5,0 70,-3.5 70,-7 70,-7 70,-14 70,-14 70,-17.5 66.5,-21 63,-21"/>
<text text-anchor="middle" x="35" y="-7.4" font-family="Times,serif" font-size="12.00">CHEM150</text>
</g>
<!-- CHEM150&#45;&gt;CHEM102 -->
<g id="edge13" class="edge">
<title>CHEM150&#45;&gt;CHEM102</title>
<path fill="none" stroke="#eb2f06" stroke-dasharray="5,2" d="M63.79,-21.16C65.93,-22.22 68.02,-23.33 70,-24.5 90.41,-36.53 111.3,-54.06 124.89,-66.29"/>
<polygon fill="#eb2f06" stroke="#eb2f06" points="123.98,-67.83 128.86,-69.9 126.34,-65.25 123.98,-67.83"/>
</g>
<!-- EOS316 -->
<g id="node16" class="node">
<title>EOS316</title>
<path fill="#f5edc9" stroke="#030a10" d="M451,-85C451,-85 407,-85 407,-85 403.5,-85 400,-81.5 400,-78 400,-78 400,-71 400,-71 400,-67.5 403.5,-64 407,-64 407,-64 451,-64 451,-64 454.5,-64 458,-67.5 458,-71 458,-71 458,-78 458,-78 458,-81.5 454.5,-85 451,-85"/>
<text text-anchor="middle" x="429" y="-71.4" font-family="Times,serif" font-size="12.00">EOS316</text>
</g>
<!-- EOS316&#45;&gt;EOS400 -->
<g id="edge15" class="edge">
<title>EOS316&#45;&gt;EOS400</title>
<path fill="none" stroke="black" d="M458.1,-78.78C467.73,-80.24 478.6,-81.9 488.61,-83.42"/>
<polygon fill="black" stroke="black" points="488.55,-85.18 493.75,-84.2 489.07,-81.72 488.55,-85.18"/>
</g>
</g>
</svg>
