<?xml version="1.0" encoding="UTF-8" standalone="no"?>
<!DOCTYPE svg PUBLIC "-//W3C//DTD SVG 1.1//EN"
 "http://www.w3.org/Graphics/SVG/1.1/DTD/svg11.dtd">
<!-- Generated by graphviz version 2.43.0 (0)
 -->
<!-- Title: unix Pages: 1 -->
<svg width="578pt" height="163pt"
 viewBox="0.00 0.00 578.00 163.00" xmlns="http://www.w3.org/2000/svg" xmlns:xlink="http://www.w3.org/1999/xlink">
<g id="graph0" class="graph" transform="scale(1 1) rotate(0) translate(4 159)">
<title>unix</title>
<polygon fill="white" stroke="transparent" points="-4,4 -4,-159 574,-159 574,4 -4,4"/>
<text text-anchor="middle" x="285" y="-139.8" font-family="Times,serif" font-size="14.00">EOS321: Earth History</text>
<!-- PHYS120 -->
<g id="node1" class="node">
<title>PHYS120</title>
<path fill="#f5edc9" stroke="#030a10" d="M270,-111C270,-111 218,-111 218,-111 214.5,-111 211,-107.5 211,-104 211,-104 211,-97 211,-97 211,-93.5 214.5,-90 218,-90 218,-90 270,-90 270,-90 273.5,-90 277,-93.5 277,-97 277,-97 277,-104 277,-104 277,-107.5 273.5,-111 270,-111"/>
<text text-anchor="middle" x="244" y="-97.4" font-family="Times,serif" font-size="12.00">PHYS120</text>
</g>
<!-- 1 of [&#39;PHYS110&#39;, &#39;PHYS120&#39;] -->
<g id="node13" class="node">
<title>1 of [&#39;PHYS110&#39;, &#39;PHYS120&#39;]</title>
<ellipse fill="#e9dbd0" stroke="#030a10" cx="347.5" cy="-92.5" rx="11" ry="11"/>
<text text-anchor="middle" x="347.5" y="-89.4" font-family="Times,serif" font-size="12.00">1</text>
</g>
<!-- PHYS120&#45;&gt;1 of [&#39;PHYS110&#39;, &#39;PHYS120&#39;] -->
<g id="edge7" class="edge">
<title>PHYS120&#45;&gt;1 of [&#39;PHYS110&#39;, &#39;PHYS120&#39;]</title>
<path fill="none" stroke="black" d="M277.12,-97.97C295.16,-96.55 316.86,-94.84 331.13,-93.71"/>
<polygon fill="black" stroke="black" points="331.55,-95.43 336.4,-93.3 331.27,-91.94 331.55,-95.43"/>
</g>
<!-- EOS210 -->
<g id="node2" class="node">
<title>EOS210</title>
<path fill="#e7a79b" stroke="#030a10" d="M469,-103C469,-103 425,-103 425,-103 421.5,-103 418,-99.5 418,-96 418,-96 418,-89 418,-89 418,-85.5 421.5,-82 425,-82 425,-82 469,-82 469,-82 472.5,-82 476,-85.5 476,-89 476,-89 476,-96 476,-96 476,-99.5 472.5,-103 469,-103"/>
<text text-anchor="middle" x="447" y="-89.4" font-family="Times,serif" font-size="12.00">EOS210</text>
</g>
<!-- EOS321 -->
<g id="node4" class="node">
<title>EOS321</title>
<path fill="#9fa7be" stroke="#030a10" d="M563,-74C563,-74 519,-74 519,-74 515.5,-74 512,-70.5 512,-67 512,-67 512,-60 512,-60 512,-56.5 515.5,-53 519,-53 519,-53 563,-53 563,-53 566.5,-53 570,-56.5 570,-60 570,-60 570,-67 570,-67 570,-70.5 566.5,-74 563,-74"/>
<text text-anchor="middle" x="541" y="-60.4" font-family="Times,serif" font-size="12.00">EOS321</text>
</g>
<!-- EOS210&#45;&gt;EOS321 -->
<g id="edge10" class="edge">
<title>EOS210&#45;&gt;EOS321</title>
<path fill="none" stroke="black" d="M476.1,-83.64C485.82,-80.58 496.8,-77.12 506.88,-73.94"/>
<polygon fill="black" stroke="black" points="507.51,-75.58 511.75,-72.4 506.46,-72.24 507.51,-75.58"/>
</g>
<!-- EOS201 -->
<g id="node3" class="node">
<title>EOS201</title>
<path fill="#f5edc9" stroke="#030a10" d="M369.5,-46C369.5,-46 325.5,-46 325.5,-46 322,-46 318.5,-42.5 318.5,-39 318.5,-39 318.5,-32 318.5,-32 318.5,-28.5 322,-25 325.5,-25 325.5,-25 369.5,-25 369.5,-25 373,-25 376.5,-28.5 376.5,-32 376.5,-32 376.5,-39 376.5,-39 376.5,-42.5 373,-46 369.5,-46"/>
<text text-anchor="middle" x="347.5" y="-32.4" font-family="Times,serif" font-size="12.00">EOS201</text>
</g>
<!-- EOS300 -->
<g id="node9" class="node">
<title>EOS300</title>
<path fill="#e7a79b" stroke="#030a10" d="M469,-60C469,-60 425,-60 425,-60 421.5,-60 418,-56.5 418,-53 418,-53 418,-46 418,-46 418,-42.5 421.5,-39 425,-39 425,-39 469,-39 469,-39 472.5,-39 476,-42.5 476,-46 476,-46 476,-53 476,-53 476,-56.5 472.5,-60 469,-60"/>
<text text-anchor="middle" x="447" y="-46.4" font-family="Times,serif" font-size="12.00">EOS300</text>
</g>
<!-- EOS201&#45;&gt;EOS300 -->
<g id="edge20" class="edge">
<title>EOS201&#45;&gt;EOS300</title>
<path fill="none" stroke="black" d="M376.7,-39.55C388.02,-41.17 401.15,-43.06 412.91,-44.75"/>
<polygon fill="black" stroke="black" points="412.66,-46.48 417.86,-45.46 413.16,-43.02 412.66,-46.48"/>
</g>
<!-- MATH101 -->
<g id="node5" class="node">
<title>MATH101</title>
<path fill="#f5edc9" stroke="#030a10" d="M375,-132C375,-132 320,-132 320,-132 316.5,-132 313,-128.5 313,-125 313,-125 313,-118 313,-118 313,-114.5 316.5,-111 320,-111 320,-111 375,-111 375,-111 378.5,-111 382,-114.5 382,-118 382,-118 382,-125 382,-125 382,-128.5 378.5,-132 375,-132"/>
<text text-anchor="middle" x="347.5" y="-118.4" font-family="Times,serif" font-size="12.00">MATH101</text>
</g>
<!-- MATH101&#45;&gt;EOS210 -->
<g id="edge4" class="edge">
<title>MATH101&#45;&gt;EOS210</title>
<path fill="none" stroke="black" d="M382.05,-111.52C392.09,-108.53 403.08,-105.27 413.07,-102.29"/>
<polygon fill="black" stroke="black" points="413.6,-103.96 417.89,-100.86 412.6,-100.61 413.6,-103.96"/>
</g>
<!-- EOS205 -->
<g id="node6" class="node">
<title>EOS205</title>
<path fill="#f5edc9" stroke="#030a10" d="M266,-24C266,-24 222,-24 222,-24 218.5,-24 215,-20.5 215,-17 215,-17 215,-10 215,-10 215,-6.5 218.5,-3 222,-3 222,-3 266,-3 266,-3 269.5,-3 273,-6.5 273,-10 273,-10 273,-17 273,-17 273,-20.5 269.5,-24 266,-24"/>
<text text-anchor="middle" x="244" y="-10.4" font-family="Times,serif" font-size="12.00">EOS205</text>
</g>
<!-- EOS205&#45;&gt;EOS201 -->
<g id="edge9" class="edge">
<title>EOS205&#45;&gt;EOS201</title>
<path fill="none" stroke="black" d="M273,-19.57C285.44,-22.26 300.17,-25.46 313.16,-28.27"/>
<polygon fill="black" stroke="black" points="312.98,-30.02 318.24,-29.37 313.72,-26.6 312.98,-30.02"/>
</g>
<!-- EOS205&#45;&gt;EOS300 -->
<g id="edge22" class="edge">
<title>EOS205&#45;&gt;EOS300</title>
<path fill="none" stroke="black" d="M273.24,-12.27C301.24,-11.72 345.16,-12.67 382,-21.5 395.85,-24.82 410.46,-30.99 422.21,-36.69"/>
<polygon fill="black" stroke="black" points="421.48,-38.28 426.74,-38.92 423.03,-35.14 421.48,-38.28"/>
</g>
<!-- PHYS110 -->
<g id="node7" class="node">
<title>PHYS110</title>
<path fill="#f5edc9" stroke="#030a10" d="M270,-83C270,-83 218,-83 218,-83 214.5,-83 211,-79.5 211,-76 211,-76 211,-69 211,-69 211,-65.5 214.5,-62 218,-62 218,-62 270,-62 270,-62 273.5,-62 277,-65.5 277,-69 277,-69 277,-76 277,-76 277,-79.5 273.5,-83 270,-83"/>
<text text-anchor="middle" x="244" y="-69.4" font-family="Times,serif" font-size="12.00">PHYS110</text>
</g>
<!-- PHYS110&#45;&gt;1 of [&#39;PHYS110&#39;, &#39;PHYS120&#39;] -->
<g id="edge6" class="edge">
<title>PHYS110&#45;&gt;1 of [&#39;PHYS110&#39;, &#39;PHYS120&#39;]</title>
<path fill="none" stroke="black" d="M277.12,-78.83C295.16,-82.38 316.86,-86.66 331.13,-89.47"/>
<polygon fill="black" stroke="black" points="331.15,-91.26 336.4,-90.51 331.83,-87.83 331.15,-91.26"/>
</g>
<!-- EOS202 -->
<g id="node8" class="node">
<title>EOS202</title>
<path fill="#f5edc9" stroke="#030a10" d="M369.5,-74C369.5,-74 325.5,-74 325.5,-74 322,-74 318.5,-70.5 318.5,-67 318.5,-67 318.5,-60 318.5,-60 318.5,-56.5 322,-53 325.5,-53 325.5,-53 369.5,-53 369.5,-53 373,-53 376.5,-56.5 376.5,-60 376.5,-60 376.5,-67 376.5,-67 376.5,-70.5 373,-74 369.5,-74"/>
<text text-anchor="middle" x="347.5" y="-60.4" font-family="Times,serif" font-size="12.00">EOS202</text>
</g>
<!-- EOS202&#45;&gt;EOS300 -->
<g id="edge21" class="edge">
<title>EOS202&#45;&gt;EOS300</title>
<path fill="none" stroke="black" d="M376.7,-59.45C388.02,-57.83 401.15,-55.94 412.91,-54.25"/>
<polygon fill="black" stroke="black" points="413.16,-55.98 417.86,-53.54 412.66,-52.52 413.16,-55.98"/>
</g>
<!-- EOS300&#45;&gt;EOS321 -->
<g id="edge11" class="edge">
<title>EOS300&#45;&gt;EOS321</title>
<path fill="none" stroke="black" d="M476.1,-53.78C485.73,-55.24 496.6,-56.9 506.61,-58.42"/>
<polygon fill="black" stroke="black" points="506.55,-60.18 511.75,-59.2 507.07,-56.72 506.55,-60.18"/>
</g>
<!-- 1 of [&#39;MATH100&#39;, &#39;MATH109&#39;] -->
<g id="node10" class="node">
<title>1 of [&#39;MATH100&#39;, &#39;MATH109&#39;]</title>
<ellipse fill="#e9dbd0" stroke="#030a10" cx="140" cy="-101.5" rx="11" ry="11"/>
<text text-anchor="middle" x="140" y="-98.4" font-family="Times,serif" font-size="12.00">1</text>
</g>
<!-- 1 of [&#39;MATH100&#39;, &#39;MATH109&#39;]&#45;&gt;PHYS120 -->
<g id="edge1" class="edge">
<title>1 of [&#39;MATH100&#39;, &#39;MATH109&#39;]&#45;&gt;PHYS120</title>
<path fill="none" stroke="black" d="M151.15,-101.4C163.77,-101.28 186.02,-101.06 205.46,-100.87"/>
<polygon fill="black" stroke="black" points="205.88,-102.61 210.86,-100.82 205.85,-99.11 205.88,-102.61"/>
</g>
<!-- 1 of [&#39;MATH100&#39;, &#39;MATH109&#39;]&#45;&gt;MATH101 -->
<g id="edge12" class="edge">
<title>1 of [&#39;MATH100&#39;, &#39;MATH109&#39;]&#45;&gt;MATH101</title>
<path fill="none" stroke="black" d="M150.91,-103.77C164.41,-106.76 189.4,-111.95 211,-114.5 243.46,-118.34 280.54,-120.07 307.69,-120.85"/>
<polygon fill="black" stroke="black" points="307.94,-122.61 312.99,-121 308.03,-119.11 307.94,-122.61"/>
</g>
<!-- MATH100 -->
<g id="node11" class="node">
<title>MATH100</title>
<path fill="#f5edc9" stroke="#030a10" d="M62,-112C62,-112 7,-112 7,-112 3.5,-112 0,-108.5 0,-105 0,-105 0,-98 0,-98 0,-94.5 3.5,-91 7,-91 7,-91 62,-91 62,-91 65.5,-91 69,-94.5 69,-98 69,-98 69,-105 69,-105 69,-108.5 65.5,-112 62,-112"/>
<text text-anchor="middle" x="34.5" y="-98.4" font-family="Times,serif" font-size="12.00">MATH100</text>
</g>
<!-- MATH100&#45;&gt;1 of [&#39;MATH100&#39;, &#39;MATH109&#39;] -->
<g id="edge2" class="edge">
<title>MATH100&#45;&gt;1 of [&#39;MATH100&#39;, &#39;MATH109&#39;]</title>
<path fill="none" stroke="black" d="M69.1,-101.5C87.45,-101.5 109.27,-101.5 123.59,-101.5"/>
<polygon fill="black" stroke="black" points="123.88,-103.25 128.88,-101.5 123.88,-99.75 123.88,-103.25"/>
</g>
<!-- 1 of [&#39;MATH100&#39;, &#39;MATH102&#39;, &#39;MATH109&#39;] -->
<g id="node16" class="node">
<title>1 of [&#39;MATH100&#39;, &#39;MATH102&#39;, &#39;MATH109&#39;]</title>
<ellipse fill="#e9dbd0" stroke="#030a10" cx="140" cy="-72.5" rx="11" ry="11"/>
<text text-anchor="middle" x="140" y="-69.4" font-family="Times,serif" font-size="12.00">1</text>
</g>
<!-- MATH100&#45;&gt;1 of [&#39;MATH100&#39;, &#39;MATH102&#39;, &#39;MATH109&#39;] -->
<g id="edge16" class="edge">
<title>MATH100&#45;&gt;1 of [&#39;MATH100&#39;, &#39;MATH102&#39;, &#39;MATH109&#39;]</title>
<path fill="none" stroke="black" d="M69.1,-92.08C87.61,-86.9 109.66,-80.72 123.97,-76.71"/>
<polygon fill="black" stroke="black" points="124.53,-78.37 128.88,-75.34 123.59,-75 124.53,-78.37"/>
</g>
<!-- MATH109 -->
<g id="node12" class="node">
<title>MATH109</title>
<path fill="#f5edc9" stroke="#030a10" d="M62,-84C62,-84 7,-84 7,-84 3.5,-84 0,-80.5 0,-77 0,-77 0,-70 0,-70 0,-66.5 3.5,-63 7,-63 7,-63 62,-63 62,-63 65.5,-63 69,-66.5 69,-70 69,-70 69,-77 69,-77 69,-80.5 65.5,-84 62,-84"/>
<text text-anchor="middle" x="34.5" y="-70.4" font-family="Times,serif" font-size="12.00">MATH109</text>
</g>
<!-- MATH109&#45;&gt;1 of [&#39;MATH100&#39;, &#39;MATH109&#39;] -->
<g id="edge3" class="edge">
<title>MATH109&#45;&gt;1 of [&#39;MATH100&#39;, &#39;MATH109&#39;]</title>
<path fill="none" stroke="black" d="M69.1,-82.59C87.61,-87.6 109.66,-93.56 123.97,-97.43"/>
<polygon fill="black" stroke="black" points="123.59,-99.14 128.88,-98.76 124.51,-95.77 123.59,-99.14"/>
</g>
<!-- MATH109&#45;&gt;1 of [&#39;MATH100&#39;, &#39;MATH102&#39;, &#39;MATH109&#39;] -->
<g id="edge18" class="edge">
<title>MATH109&#45;&gt;1 of [&#39;MATH100&#39;, &#39;MATH102&#39;, &#39;MATH109&#39;]</title>
<path fill="none" stroke="black" d="M69.1,-73.18C87.45,-73 109.27,-72.79 123.59,-72.65"/>
<polygon fill="black" stroke="black" points="123.89,-74.4 128.88,-72.6 123.86,-70.9 123.89,-74.4"/>
</g>
<!-- 1 of [&#39;PHYS110&#39;, &#39;PHYS120&#39;]&#45;&gt;EOS210 -->
<g id="edge5" class="edge">
<title>1 of [&#39;PHYS110&#39;, &#39;PHYS120&#39;]&#45;&gt;EOS210</title>
<path fill="none" stroke="black" d="M358.57,-92.5C371.2,-92.5 393.5,-92.5 412.41,-92.5"/>
<polygon fill="black" stroke="black" points="412.65,-94.25 417.65,-92.5 412.65,-90.75 412.65,-94.25"/>
</g>
<!-- EOS120 -->
<g id="node14" class="node">
<title>EOS120</title>
<path fill="#f5edc9" stroke="#030a10" d="M162,-49C162,-49 118,-49 118,-49 114.5,-49 111,-45.5 111,-42 111,-42 111,-35 111,-35 111,-31.5 114.5,-28 118,-28 118,-28 162,-28 162,-28 165.5,-28 169,-31.5 169,-35 169,-35 169,-42 169,-42 169,-45.5 165.5,-49 162,-49"/>
<text text-anchor="middle" x="140" y="-35.4" font-family="Times,serif" font-size="12.00">EOS120</text>
</g>
<!-- EOS120&#45;&gt;EOS201 -->
<g id="edge8" class="edge">
<title>EOS120&#45;&gt;EOS201</title>
<path fill="none" stroke="black" d="M169.14,-38.09C206.7,-37.54 273.11,-36.57 313.14,-35.99"/>
<polygon fill="black" stroke="black" points="313.39,-37.73 318.37,-35.91 313.34,-34.23 313.39,-37.73"/>
</g>
<!-- EOS120&#45;&gt;EOS205 -->
<g id="edge13" class="edge">
<title>EOS120&#45;&gt;EOS205</title>
<path fill="none" stroke="black" d="M169.14,-31.6C181.74,-28.51 196.68,-24.85 209.82,-21.63"/>
<polygon fill="black" stroke="black" points="210.51,-23.27 214.95,-20.38 209.68,-19.87 210.51,-23.27"/>
</g>
<!-- EOS120&#45;&gt;EOS202 -->
<g id="edge19" class="edge">
<title>EOS120&#45;&gt;EOS202</title>
<path fill="none" stroke="black" d="M169.14,-41.92C206.7,-46.49 273.11,-54.57 313.14,-59.44"/>
<polygon fill="black" stroke="black" points="313.19,-61.21 318.37,-60.08 313.62,-57.74 313.19,-61.21"/>
</g>
<!-- CHEM102 -->
<g id="node15" class="node">
<title>CHEM102</title>
<path fill="#f5edc9" stroke="#030a10" d="M168,-21C168,-21 112,-21 112,-21 108.5,-21 105,-17.5 105,-14 105,-14 105,-7 105,-7 105,-3.5 108.5,0 112,0 112,0 168,0 168,0 171.5,0 175,-3.5 175,-7 175,-7 175,-14 175,-14 175,-17.5 171.5,-21 168,-21"/>
<text text-anchor="middle" x="140" y="-7.4" font-family="Times,serif" font-size="12.00">CHEM102</text>
</g>
<!-- CHEM102&#45;&gt;EOS205 -->
<g id="edge14" class="edge">
<title>CHEM102&#45;&gt;EOS205</title>
<path fill="none" stroke="black" d="M175.25,-11.51C186.29,-11.83 198.51,-12.19 209.5,-12.51"/>
<polygon fill="black" stroke="black" points="209.73,-14.27 214.78,-12.67 209.83,-10.77 209.73,-14.27"/>
</g>
<!-- 1 of [&#39;MATH100&#39;, &#39;MATH102&#39;, &#39;MATH109&#39;]&#45;&gt;PHYS110 -->
<g id="edge15" class="edge">
<title>1 of [&#39;MATH100&#39;, &#39;MATH102&#39;, &#39;MATH109&#39;]&#45;&gt;PHYS110</title>
<path fill="none" stroke="black" d="M151.15,-72.5C163.77,-72.5 186.02,-72.5 205.46,-72.5"/>
<polygon fill="black" stroke="black" points="205.86,-74.25 210.86,-72.5 205.86,-70.75 205.86,-74.25"/>
</g>
<!-- MATH102 -->
<g id="node17" class="node">
<title>MATH102</title>
<path fill="#f5edc9" stroke="#030a10" d="M62,-56C62,-56 7,-56 7,-56 3.5,-56 0,-52.5 0,-49 0,-49 0,-42 0,-42 0,-38.5 3.5,-35 7,-35 7,-35 62,-35 62,-35 65.5,-35 69,-38.5 69,-42 69,-42 69,-49 69,-49 69,-52.5 65.5,-56 62,-56"/>
<text text-anchor="middle" x="34.5" y="-42.4" font-family="Times,serif" font-size="12.00">MATH102</text>
</g>
<!-- MATH102&#45;&gt;1 of [&#39;MATH100&#39;, &#39;MATH102&#39;, &#39;MATH109&#39;] -->
<g id="edge17" class="edge">
<title>MATH102&#45;&gt;1 of [&#39;MATH100&#39;, &#39;MATH102&#39;, &#39;MATH109&#39;]</title>
<path fill="none" stroke="black" d="M69.1,-54.27C87.61,-59.09 109.66,-64.85 123.97,-68.58"/>
<polygon fill="black" stroke="black" points="123.6,-70.29 128.88,-69.86 124.48,-66.9 123.6,-70.29"/>
</g>
</g>
</svg>
