<?xml version="1.0" encoding="UTF-8" standalone="no"?>
<!DOCTYPE svg PUBLIC "-//W3C//DTD SVG 1.1//EN"
 "http://www.w3.org/Graphics/SVG/1.1/DTD/svg11.dtd">
<!-- Generated by graphviz version 2.43.0 (0)
 -->
<!-- Title: unix Pages: 1 -->
<svg width="1270pt" height="480pt"
 viewBox="0.00 0.00 1270.00 479.81" xmlns="http://www.w3.org/2000/svg" xmlns:xlink="http://www.w3.org/1999/xlink">
<g id="graph0" class="graph" transform="scale(1 1) rotate(0) translate(4 475.81)">
<title>unix</title>
<polygon fill="white" stroke="transparent" points="-4,4 -4,-475.81 1266,-475.81 1266,4 -4,4"/>
<text text-anchor="middle" x="631" y="-456.61" font-family="Times,serif" font-size="14.00">EOS325: Earth System Modeling</text>
<!-- EOS433 -->
<g id="node1" class="node">
<title>EOS433</title>
<path fill="#f5edc9" stroke="#030a10" d="M1255,-365.81C1255,-365.81 1211,-365.81 1211,-365.81 1207.5,-365.81 1204,-362.31 1204,-358.81 1204,-358.81 1204,-351.81 1204,-351.81 1204,-348.31 1207.5,-344.81 1211,-344.81 1211,-344.81 1255,-344.81 1255,-344.81 1258.5,-344.81 1262,-348.31 1262,-351.81 1262,-351.81 1262,-358.81 1262,-358.81 1262,-362.31 1258.5,-365.81 1255,-365.81"/>
<text text-anchor="middle" x="1233" y="-352.21" font-family="Times,serif" font-size="12.00">EOS433</text>
</g>
<!-- EOS110 -->
<g id="node2" class="node">
<title>EOS110</title>
<path fill="#f5edc9" stroke="#030a10" d="M592,-179.81C592,-179.81 548,-179.81 548,-179.81 544.5,-179.81 541,-176.31 541,-172.81 541,-172.81 541,-165.81 541,-165.81 541,-162.31 544.5,-158.81 548,-158.81 548,-158.81 592,-158.81 592,-158.81 595.5,-158.81 599,-162.31 599,-165.81 599,-165.81 599,-172.81 599,-172.81 599,-176.31 595.5,-179.81 592,-179.81"/>
<text text-anchor="middle" x="570" y="-166.21" font-family="Times,serif" font-size="12.00">EOS110</text>
</g>
<!-- 1 of [&#39;EOS110&#39;, &#39;EOS130&#39;, &#39;GEOG130&#39;, &#39;GEOG103&#39;] -->
<g id="node43" class="node">
<title>1 of [&#39;EOS110&#39;, &#39;EOS130&#39;, &#39;GEOG130&#39;, &#39;GEOG103&#39;]</title>
<ellipse fill="#e9dbd0" stroke="#030a10" cx="677.5" cy="-183.31" rx="11" ry="11"/>
<text text-anchor="middle" x="677.5" y="-180.21" font-family="Times,serif" font-size="12.00">1</text>
</g>
<!-- EOS110&#45;&gt;1 of [&#39;EOS110&#39;, &#39;EOS130&#39;, &#39;GEOG130&#39;, &#39;GEOG103&#39;] -->
<g id="edge34" class="edge">
<title>EOS110&#45;&gt;1 of [&#39;EOS110&#39;, &#39;EOS130&#39;, &#39;GEOG130&#39;, &#39;GEOG103&#39;]</title>
<path fill="none" stroke="black" d="M599.27,-173.06C619.23,-175.71 645.2,-179.16 661.36,-181.3"/>
<polygon fill="black" stroke="black" points="661.25,-183.05 666.44,-181.97 661.71,-179.58 661.25,-183.05"/>
</g>
<!-- MATH101 -->
<g id="node3" class="node">
<title>MATH101</title>
<path fill="#f5edc9" stroke="#030a10" d="M490,-228.81C490,-228.81 435,-228.81 435,-228.81 431.5,-228.81 428,-225.31 428,-221.81 428,-221.81 428,-214.81 428,-214.81 428,-211.31 431.5,-207.81 435,-207.81 435,-207.81 490,-207.81 490,-207.81 493.5,-207.81 497,-211.31 497,-214.81 497,-214.81 497,-221.81 497,-221.81 497,-225.31 493.5,-228.81 490,-228.81"/>
<text text-anchor="middle" x="462.5" y="-215.21" font-family="Times,serif" font-size="12.00">MATH101</text>
</g>
<!-- EOS210 -->
<g id="node11" class="node">
<title>EOS210</title>
<path fill="#e7a79b" stroke="#030a10" d="M592,-279.81C592,-279.81 548,-279.81 548,-279.81 544.5,-279.81 541,-276.31 541,-272.81 541,-272.81 541,-265.81 541,-265.81 541,-262.31 544.5,-258.81 548,-258.81 548,-258.81 592,-258.81 592,-258.81 595.5,-258.81 599,-262.31 599,-265.81 599,-265.81 599,-272.81 599,-272.81 599,-276.31 595.5,-279.81 592,-279.81"/>
<text text-anchor="middle" x="570" y="-266.21" font-family="Times,serif" font-size="12.00">EOS210</text>
</g>
<!-- MATH101&#45;&gt;EOS210 -->
<g id="edge25" class="edge">
<title>MATH101&#45;&gt;EOS210</title>
<path fill="none" stroke="black" d="M485.06,-228.95C498.77,-235.69 516.9,-244.57 533,-252.31 535.86,-253.68 538.86,-255.11 541.84,-256.53"/>
<polygon fill="black" stroke="black" points="541.24,-258.18 546.51,-258.75 542.74,-255.02 541.24,-258.18"/>
</g>
<!-- EOS261 -->
<g id="node14" class="node">
<title>EOS261</title>
<path fill="#e7a79b" stroke="#030a10" d="M804.5,-203.81C804.5,-203.81 760.5,-203.81 760.5,-203.81 757,-203.81 753.5,-200.31 753.5,-196.81 753.5,-196.81 753.5,-189.81 753.5,-189.81 753.5,-186.31 757,-182.81 760.5,-182.81 760.5,-182.81 804.5,-182.81 804.5,-182.81 808,-182.81 811.5,-186.31 811.5,-189.81 811.5,-189.81 811.5,-196.81 811.5,-196.81 811.5,-200.31 808,-203.81 804.5,-203.81"/>
<text text-anchor="middle" x="782.5" y="-190.21" font-family="Times,serif" font-size="12.00">EOS261</text>
</g>
<!-- MATH101&#45;&gt;EOS261 -->
<g id="edge39" class="edge">
<title>MATH101&#45;&gt;EOS261</title>
<path fill="none" stroke="black" d="M488.89,-207.73C491.83,-205.86 494.62,-203.73 497,-201.31 522.64,-175.23 501.99,-146.71 533,-127.31 560.88,-109.87 574.65,-121.39 607,-127.31 635.69,-132.55 710.35,-163.07 752.12,-180.72"/>
<polygon fill="black" stroke="black" points="751.51,-182.36 756.8,-182.7 752.87,-179.14 751.51,-182.36"/>
</g>
<!-- MATH200 -->
<g id="node16" class="node">
<title>MATH200</title>
<path fill="#f5edc9" stroke="#030a10" d="M597.5,-50.81C597.5,-50.81 542.5,-50.81 542.5,-50.81 539,-50.81 535.5,-47.31 535.5,-43.81 535.5,-43.81 535.5,-36.81 535.5,-36.81 535.5,-33.31 539,-29.81 542.5,-29.81 542.5,-29.81 597.5,-29.81 597.5,-29.81 601,-29.81 604.5,-33.31 604.5,-36.81 604.5,-36.81 604.5,-43.81 604.5,-43.81 604.5,-47.31 601,-50.81 597.5,-50.81"/>
<text text-anchor="middle" x="570" y="-37.21" font-family="Times,serif" font-size="12.00">MATH200</text>
</g>
<!-- MATH101&#45;&gt;MATH200 -->
<g id="edge44" class="edge">
<title>MATH101&#45;&gt;MATH200</title>
<path fill="none" stroke="black" d="M465.12,-207.48C469.97,-178.6 487.06,-98.89 533,-54.31 533.16,-54.16 533.31,-54.01 533.47,-53.86"/>
<polygon fill="black" stroke="black" points="534.27,-55.46 537.07,-50.96 532.08,-52.74 534.27,-55.46"/>
</g>
<!-- MATH202 -->
<g id="node26" class="node">
<title>MATH202</title>
<path fill="#e7a79b" stroke="#030a10" d="M705,-222.81C705,-222.81 650,-222.81 650,-222.81 646.5,-222.81 643,-219.31 643,-215.81 643,-215.81 643,-208.81 643,-208.81 643,-205.31 646.5,-201.81 650,-201.81 650,-201.81 705,-201.81 705,-201.81 708.5,-201.81 712,-205.31 712,-208.81 712,-208.81 712,-215.81 712,-215.81 712,-219.31 708.5,-222.81 705,-222.81"/>
<text text-anchor="middle" x="677.5" y="-209.21" font-family="Times,serif" font-size="12.00">MATH202</text>
</g>
<!-- MATH101&#45;&gt;MATH202 -->
<g id="edge83" class="edge">
<title>MATH101&#45;&gt;MATH202</title>
<path fill="none" stroke="black" d="M491.81,-228.92C504.25,-233.04 519.16,-237.26 533,-239.31 565.54,-244.12 574.67,-245.37 607,-239.31 622.07,-236.48 638.07,-230.49 650.92,-224.87"/>
<polygon fill="black" stroke="black" points="651.65,-226.46 655.5,-222.82 650.23,-223.26 651.65,-226.46"/>
</g>
<!-- PHYS130 -->
<g id="node29" class="node">
<title>PHYS130</title>
<path fill="#e7a79b" stroke="#030a10" d="M596,-307.81C596,-307.81 544,-307.81 544,-307.81 540.5,-307.81 537,-304.31 537,-300.81 537,-300.81 537,-293.81 537,-293.81 537,-290.31 540.5,-286.81 544,-286.81 544,-286.81 596,-286.81 596,-286.81 599.5,-286.81 603,-290.31 603,-293.81 603,-293.81 603,-300.81 603,-300.81 603,-304.31 599.5,-307.81 596,-307.81"/>
<text text-anchor="middle" x="570" y="-294.21" font-family="Times,serif" font-size="12.00">PHYS130</text>
</g>
<!-- MATH101&#45;&gt;PHYS130 -->
<g id="edge85" class="edge">
<title>MATH101&#45;&gt;PHYS130</title>
<path fill="none" stroke="black" d="M472.93,-229.06C485.49,-242.88 508.96,-266.92 533,-282.31 534.1,-283.01 535.23,-283.69 536.4,-284.35"/>
<polygon fill="black" stroke="black" points="535.75,-285.99 540.99,-286.79 537.39,-282.9 535.75,-285.99"/>
</g>
<!-- 2 of [&#39;MATH100&#39;, &#39;MATH101&#39;, &#39;MATH102&#39;, &#39;MATH109&#39;, &#39;MATH151&#39;] -->
<g id="node37" class="node">
<title>2 of [&#39;MATH100&#39;, &#39;MATH101&#39;, &#39;MATH102&#39;, &#39;MATH109&#39;, &#39;MATH151&#39;]</title>
<ellipse fill="#d1b79e" stroke="#030a10" cx="570" cy="-97.31" rx="11" ry="11"/>
<text text-anchor="middle" x="570" y="-94.21" font-family="Times,serif" font-size="12.00">2</text>
</g>
<!-- MATH101&#45;&gt;2 of [&#39;MATH100&#39;, &#39;MATH101&#39;, &#39;MATH102&#39;, &#39;MATH109&#39;, &#39;MATH151&#39;] -->
<g id="edge16" class="edge">
<title>MATH101&#45;&gt;2 of [&#39;MATH100&#39;, &#39;MATH101&#39;, &#39;MATH102&#39;, &#39;MATH109&#39;, &#39;MATH151&#39;]</title>
<path fill="none" stroke="black" d="M489.36,-207.65C492.16,-205.81 494.78,-203.7 497,-201.31 525.42,-170.6 504.14,-144.61 533,-114.31 538.81,-108.21 547.25,-104.06 554.49,-101.39"/>
<polygon fill="black" stroke="black" points="555.1,-103.04 559.27,-99.78 553.98,-99.72 555.1,-103.04"/>
</g>
<!-- PHYS110 -->
<g id="node4" class="node">
<title>PHYS110</title>
<path fill="#f5edc9" stroke="#030a10" d="M380.5,-356.81C380.5,-356.81 328.5,-356.81 328.5,-356.81 325,-356.81 321.5,-353.31 321.5,-349.81 321.5,-349.81 321.5,-342.81 321.5,-342.81 321.5,-339.31 325,-335.81 328.5,-335.81 328.5,-335.81 380.5,-335.81 380.5,-335.81 384,-335.81 387.5,-339.31 387.5,-342.81 387.5,-342.81 387.5,-349.81 387.5,-349.81 387.5,-353.31 384,-356.81 380.5,-356.81"/>
<text text-anchor="middle" x="354.5" y="-343.21" font-family="Times,serif" font-size="12.00">PHYS110</text>
</g>
<!-- PHYS111 -->
<g id="node31" class="node">
<title>PHYS111</title>
<path fill="#e7a79b" stroke="#030a10" d="M595.5,-335.81C595.5,-335.81 544.5,-335.81 544.5,-335.81 541,-335.81 537.5,-332.31 537.5,-328.81 537.5,-328.81 537.5,-321.81 537.5,-321.81 537.5,-318.31 541,-314.81 544.5,-314.81 544.5,-314.81 595.5,-314.81 595.5,-314.81 599,-314.81 602.5,-318.31 602.5,-321.81 602.5,-321.81 602.5,-328.81 602.5,-328.81 602.5,-332.31 599,-335.81 595.5,-335.81"/>
<text text-anchor="middle" x="570" y="-322.21" font-family="Times,serif" font-size="12.00">PHYS111</text>
</g>
<!-- PHYS110&#45;&gt;PHYS111 -->
<g id="edge86" class="edge">
<title>PHYS110&#45;&gt;PHYS111</title>
<path fill="none" stroke="black" d="M387.93,-343.12C426.67,-339.31 491.33,-332.95 531.99,-328.95"/>
<polygon fill="black" stroke="black" points="532.51,-330.66 537.32,-328.43 532.17,-327.17 532.51,-330.66"/>
</g>
<!-- 1 of [&#39;PHYS102A&#39;, &#39;PHYS110&#39;, &#39;PHYS120&#39;] -->
<g id="node35" class="node">
<title>1 of [&#39;PHYS102A&#39;, &#39;PHYS110&#39;, &#39;PHYS120&#39;]</title>
<ellipse fill="#e9dbd0" stroke="#030a10" cx="462.5" cy="-369.31" rx="11" ry="11"/>
<text text-anchor="middle" x="462.5" y="-366.21" font-family="Times,serif" font-size="12.00">1</text>
</g>
<!-- PHYS110&#45;&gt;1 of [&#39;PHYS102A&#39;, &#39;PHYS110&#39;, &#39;PHYS120&#39;] -->
<g id="edge11" class="edge">
<title>PHYS110&#45;&gt;1 of [&#39;PHYS102A&#39;, &#39;PHYS110&#39;, &#39;PHYS120&#39;]</title>
<path fill="none" stroke="black" d="M387.59,-353.27C407.13,-357.51 431.18,-362.73 446.43,-366.04"/>
<polygon fill="black" stroke="black" points="446.37,-367.82 451.63,-367.17 447.11,-364.4 446.37,-367.82"/>
</g>
<!-- 1 of [&#39;PHYS110&#39;, &#39;PHYS120&#39;] -->
<g id="node39" class="node">
<title>1 of [&#39;PHYS110&#39;, &#39;PHYS120&#39;]</title>
<ellipse fill="#e9dbd0" stroke="#030a10" cx="462.5" cy="-274.31" rx="11" ry="11"/>
<text text-anchor="middle" x="462.5" y="-271.21" font-family="Times,serif" font-size="12.00">1</text>
</g>
<!-- PHYS110&#45;&gt;1 of [&#39;PHYS110&#39;, &#39;PHYS120&#39;] -->
<g id="edge27" class="edge">
<title>PHYS110&#45;&gt;1 of [&#39;PHYS110&#39;, &#39;PHYS120&#39;]</title>
<path fill="none" stroke="black" d="M371.14,-335.68C392.06,-321.48 428.77,-296.54 448.34,-283.25"/>
<polygon fill="black" stroke="black" points="449.78,-284.39 452.93,-280.13 447.81,-281.49 449.78,-284.39"/>
</g>
<!-- EOS230 -->
<g id="node5" class="node">
<title>EOS230</title>
<path fill="#e7a79b" stroke="#030a10" d="M804.5,-389.81C804.5,-389.81 760.5,-389.81 760.5,-389.81 757,-389.81 753.5,-386.31 753.5,-382.81 753.5,-382.81 753.5,-375.81 753.5,-375.81 753.5,-372.31 757,-368.81 760.5,-368.81 760.5,-368.81 804.5,-368.81 804.5,-368.81 808,-368.81 811.5,-372.31 811.5,-375.81 811.5,-375.81 811.5,-382.81 811.5,-382.81 811.5,-386.31 808,-389.81 804.5,-389.81"/>
<text text-anchor="middle" x="782.5" y="-376.21" font-family="Times,serif" font-size="12.00">EOS230</text>
</g>
<!-- 1 of [&#39;CSC110&#39;, &#39;CSC111&#39;, &#39;EOS210&#39;, &#39;EOS230&#39;, &#39;GEOG230&#39;, &#39;EOS261&#39;, &#39;EOS314&#39;] -->
<g id="node59" class="node">
<title>1 of [&#39;CSC110&#39;, &#39;CSC111&#39;, &#39;EOS210&#39;, &#39;EOS230&#39;, &#39;GEOG230&#39;, &#39;EOS261&#39;, &#39;EOS314&#39;]</title>
<ellipse fill="#e9dbd0" stroke="#030a10" cx="864" cy="-309.31" rx="11" ry="11"/>
<text text-anchor="middle" x="864" y="-306.21" font-family="Times,serif" font-size="12.00">1</text>
</g>
<!-- EOS230&#45;&gt;1 of [&#39;CSC110&#39;, &#39;CSC111&#39;, &#39;EOS210&#39;, &#39;EOS230&#39;, &#39;GEOG230&#39;, &#39;EOS261&#39;, &#39;EOS314&#39;] -->
<g id="edge78" class="edge">
<title>EOS230&#45;&gt;1 of [&#39;CSC110&#39;, &#39;CSC111&#39;, &#39;EOS210&#39;, &#39;EOS230&#39;, &#39;GEOG230&#39;, &#39;EOS261&#39;, &#39;EOS314&#39;]</title>
<path fill="none" stroke="black" d="M810.12,-368.77C812.53,-367.41 814.87,-365.92 817,-364.31 832.56,-352.54 846.31,-334.56 854.64,-322.39"/>
<polygon fill="black" stroke="black" points="856.12,-323.32 857.45,-318.19 853.21,-321.37 856.12,-323.32"/>
</g>
<!-- PHYS102B -->
<g id="node6" class="node">
<title>PHYS102B</title>
<path fill="#e7a79b" stroke="#030a10" d="M600,-363.81C600,-363.81 540,-363.81 540,-363.81 536.5,-363.81 533,-360.31 533,-356.81 533,-356.81 533,-349.81 533,-349.81 533,-346.31 536.5,-342.81 540,-342.81 540,-342.81 600,-342.81 600,-342.81 603.5,-342.81 607,-346.31 607,-349.81 607,-349.81 607,-356.81 607,-356.81 607,-360.31 603.5,-363.81 600,-363.81"/>
<text text-anchor="middle" x="570" y="-350.21" font-family="Times,serif" font-size="12.00">PHYS102B</text>
</g>
<!-- 1 of [&#39;PHYS102B&#39;, &#39;PHYS111&#39;, &#39;PHYS120&#39;] -->
<g id="node38" class="node">
<title>1 of [&#39;PHYS102B&#39;, &#39;PHYS111&#39;, &#39;PHYS120&#39;]</title>
<ellipse fill="#e9dbd0" stroke="#030a10" cx="677.5" cy="-354.31" rx="11" ry="11"/>
<text text-anchor="middle" x="677.5" y="-351.21" font-family="Times,serif" font-size="12.00">1</text>
</g>
<!-- PHYS102B&#45;&gt;1 of [&#39;PHYS102B&#39;, &#39;PHYS111&#39;, &#39;PHYS120&#39;] -->
<g id="edge22" class="edge">
<title>PHYS102B&#45;&gt;1 of [&#39;PHYS102B&#39;, &#39;PHYS111&#39;, &#39;PHYS120&#39;]</title>
<path fill="none" stroke="black" d="M607.01,-353.65C625.35,-353.82 646.7,-354.03 660.84,-354.16"/>
<polygon fill="black" stroke="black" points="661.06,-355.91 666.07,-354.21 661.09,-352.41 661.06,-355.91"/>
</g>
<!-- 1 of [&#39;PHYS111&#39;, &#39;PHYS130&#39;, &#39;PHYS102B&#39;] -->
<g id="node44" class="node">
<title>1 of [&#39;PHYS111&#39;, &#39;PHYS130&#39;, &#39;PHYS102B&#39;]</title>
<ellipse fill="#e9dbd0" stroke="#030a10" cx="677.5" cy="-296.31" rx="11" ry="11"/>
<text text-anchor="middle" x="677.5" y="-293.21" font-family="Times,serif" font-size="12.00">1</text>
</g>
<!-- PHYS102B&#45;&gt;1 of [&#39;PHYS111&#39;, &#39;PHYS130&#39;, &#39;PHYS102B&#39;] -->
<g id="edge43" class="edge">
<title>PHYS102B&#45;&gt;1 of [&#39;PHYS111&#39;, &#39;PHYS130&#39;, &#39;PHYS102B&#39;]</title>
<path fill="none" stroke="black" d="M598.47,-342.71C601.4,-341.33 604.3,-339.85 607,-338.31 624.36,-328.39 625.77,-321.46 643,-311.31 649.01,-307.77 655.99,-304.52 662.03,-301.95"/>
<polygon fill="black" stroke="black" points="662.88,-303.5 666.83,-299.97 661.54,-300.26 662.88,-303.5"/>
</g>
<!-- 1 of [&#39;PHYS102B&#39;, &#39;PHYS111&#39;, &#39;PHYS130&#39;] -->
<g id="node46" class="node">
<title>1 of [&#39;PHYS102B&#39;, &#39;PHYS111&#39;, &#39;PHYS130&#39;]</title>
<ellipse fill="#e9dbd0" stroke="#030a10" cx="677.5" cy="-325.31" rx="11" ry="11"/>
<text text-anchor="middle" x="677.5" y="-322.21" font-family="Times,serif" font-size="12.00">1</text>
</g>
<!-- PHYS102B&#45;&gt;1 of [&#39;PHYS102B&#39;, &#39;PHYS111&#39;, &#39;PHYS130&#39;] -->
<g id="edge50" class="edge">
<title>PHYS102B&#45;&gt;1 of [&#39;PHYS102B&#39;, &#39;PHYS111&#39;, &#39;PHYS130&#39;]</title>
<path fill="none" stroke="black" d="M607.01,-343.75C625.73,-338.78 647.57,-332.99 661.7,-329.24"/>
<polygon fill="black" stroke="black" points="662.16,-330.93 666.54,-327.95 661.26,-327.54 662.16,-330.93"/>
</g>
<!-- GEOG130 -->
<g id="node7" class="node">
<title>GEOG130</title>
<path fill="#f5edc9" stroke="#030a10" d="M597.5,-151.81C597.5,-151.81 542.5,-151.81 542.5,-151.81 539,-151.81 535.5,-148.31 535.5,-144.81 535.5,-144.81 535.5,-137.81 535.5,-137.81 535.5,-134.31 539,-130.81 542.5,-130.81 542.5,-130.81 597.5,-130.81 597.5,-130.81 601,-130.81 604.5,-134.31 604.5,-137.81 604.5,-137.81 604.5,-144.81 604.5,-144.81 604.5,-148.31 601,-151.81 597.5,-151.81"/>
<text text-anchor="middle" x="570" y="-138.21" font-family="Times,serif" font-size="12.00">GEOG130</text>
</g>
<!-- GEOG130&#45;&gt;1 of [&#39;EOS110&#39;, &#39;EOS130&#39;, &#39;GEOG130&#39;, &#39;GEOG103&#39;] -->
<g id="edge36" class="edge">
<title>GEOG130&#45;&gt;1 of [&#39;EOS110&#39;, &#39;EOS130&#39;, &#39;GEOG130&#39;, &#39;GEOG103&#39;]</title>
<path fill="none" stroke="black" d="M598.14,-151.82C601.13,-152.99 604.13,-154.17 607,-155.31 626.17,-162.9 648.25,-171.83 662.29,-177.52"/>
<polygon fill="black" stroke="black" points="661.78,-179.21 667.07,-179.47 663.1,-175.96 661.78,-179.21"/>
</g>
<!-- MATH100 -->
<g id="node8" class="node">
<title>MATH100</title>
<path fill="#f5edc9" stroke="#030a10" d="M167.5,-127.81C167.5,-127.81 112.5,-127.81 112.5,-127.81 109,-127.81 105.5,-124.31 105.5,-120.81 105.5,-120.81 105.5,-113.81 105.5,-113.81 105.5,-110.31 109,-106.81 112.5,-106.81 112.5,-106.81 167.5,-106.81 167.5,-106.81 171,-106.81 174.5,-110.31 174.5,-113.81 174.5,-113.81 174.5,-120.81 174.5,-120.81 174.5,-124.31 171,-127.81 167.5,-127.81"/>
<text text-anchor="middle" x="140" y="-114.21" font-family="Times,serif" font-size="12.00">MATH100</text>
</g>
<!-- 1 of [&#39;MATH100&#39;, &#39;MATH109&#39;] -->
<g id="node33" class="node">
<title>1 of [&#39;MATH100&#39;, &#39;MATH109&#39;]</title>
<ellipse fill="#e9dbd0" stroke="#030a10" cx="246" cy="-145.31" rx="11" ry="11"/>
<text text-anchor="middle" x="246" y="-142.21" font-family="Times,serif" font-size="12.00">1</text>
</g>
<!-- MATH100&#45;&gt;1 of [&#39;MATH100&#39;, &#39;MATH109&#39;] -->
<g id="edge3" class="edge">
<title>MATH100&#45;&gt;1 of [&#39;MATH100&#39;, &#39;MATH109&#39;]</title>
<path fill="none" stroke="black" d="M174.77,-126.4C193.57,-131.46 216.02,-137.51 230.39,-141.37"/>
<polygon fill="black" stroke="black" points="230.01,-143.09 235.29,-142.7 230.92,-139.71 230.01,-143.09"/>
</g>
<!-- 1 of [&#39;MATH100&#39;, &#39;MATH102&#39;, &#39;MATH109&#39;] -->
<g id="node34" class="node">
<title>1 of [&#39;MATH100&#39;, &#39;MATH102&#39;, &#39;MATH109&#39;]</title>
<ellipse fill="#e9dbd0" stroke="#030a10" cx="246" cy="-174.31" rx="11" ry="11"/>
<text text-anchor="middle" x="246" y="-171.21" font-family="Times,serif" font-size="12.00">1</text>
</g>
<!-- MATH100&#45;&gt;1 of [&#39;MATH100&#39;, &#39;MATH102&#39;, &#39;MATH109&#39;] -->
<g id="edge6" class="edge">
<title>MATH100&#45;&gt;1 of [&#39;MATH100&#39;, &#39;MATH102&#39;, &#39;MATH109&#39;]</title>
<path fill="none" stroke="black" d="M168.41,-127.83C170.68,-128.93 172.9,-130.09 175,-131.31 192.53,-141.48 193.6,-148.92 211,-159.31 217.15,-162.98 224.35,-166.28 230.54,-168.85"/>
<polygon fill="black" stroke="black" points="230.17,-170.59 235.46,-170.83 231.47,-167.34 230.17,-170.59"/>
</g>
<!-- MATH100&#45;&gt;2 of [&#39;MATH100&#39;, &#39;MATH101&#39;, &#39;MATH102&#39;, &#39;MATH109&#39;, &#39;MATH151&#39;] -->
<g id="edge15" class="edge">
<title>MATH100&#45;&gt;2 of [&#39;MATH100&#39;, &#39;MATH101&#39;, &#39;MATH102&#39;, &#39;MATH109&#39;, &#39;MATH151&#39;]</title>
<path fill="none" stroke="black" d="M174.58,-115.74C261.62,-111.67 492,-100.91 553.65,-98.03"/>
<polygon fill="black" stroke="black" points="553.84,-99.77 558.76,-97.79 553.68,-96.27 553.84,-99.77"/>
</g>
<!-- EOS314 -->
<g id="node9" class="node">
<title>EOS314</title>
<path fill="#e7a79b" stroke="#030a10" d="M804.5,-277.81C804.5,-277.81 760.5,-277.81 760.5,-277.81 757,-277.81 753.5,-274.31 753.5,-270.81 753.5,-270.81 753.5,-263.81 753.5,-263.81 753.5,-260.31 757,-256.81 760.5,-256.81 760.5,-256.81 804.5,-256.81 804.5,-256.81 808,-256.81 811.5,-260.31 811.5,-263.81 811.5,-263.81 811.5,-270.81 811.5,-270.81 811.5,-274.31 808,-277.81 804.5,-277.81"/>
<text text-anchor="middle" x="782.5" y="-264.21" font-family="Times,serif" font-size="12.00">EOS314</text>
</g>
<!-- EOS314&#45;&gt;1 of [&#39;CSC110&#39;, &#39;CSC111&#39;, &#39;EOS210&#39;, &#39;EOS230&#39;, &#39;GEOG230&#39;, &#39;EOS261&#39;, &#39;EOS314&#39;] -->
<g id="edge81" class="edge">
<title>EOS314&#45;&gt;1 of [&#39;CSC110&#39;, &#39;CSC111&#39;, &#39;EOS210&#39;, &#39;EOS230&#39;, &#39;GEOG230&#39;, &#39;EOS261&#39;, &#39;EOS314&#39;]</title>
<path fill="none" stroke="black" d="M810,-277.94C812.39,-279.03 814.75,-280.16 817,-281.31 828.39,-287.11 840.73,-294.7 849.76,-300.51"/>
<polygon fill="black" stroke="black" points="849.26,-302.28 854.41,-303.54 851.17,-299.34 849.26,-302.28"/>
</g>
<!-- GEOG103 -->
<g id="node10" class="node">
<title>GEOG103</title>
<path fill="#f5edc9" stroke="#030a10" d="M597.5,-235.81C597.5,-235.81 542.5,-235.81 542.5,-235.81 539,-235.81 535.5,-232.31 535.5,-228.81 535.5,-228.81 535.5,-221.81 535.5,-221.81 535.5,-218.31 539,-214.81 542.5,-214.81 542.5,-214.81 597.5,-214.81 597.5,-214.81 601,-214.81 604.5,-218.31 604.5,-221.81 604.5,-221.81 604.5,-228.81 604.5,-228.81 604.5,-232.31 601,-235.81 597.5,-235.81"/>
<text text-anchor="middle" x="570" y="-222.21" font-family="Times,serif" font-size="12.00">GEOG103</text>
</g>
<!-- GEOG103&#45;&gt;1 of [&#39;EOS110&#39;, &#39;EOS130&#39;, &#39;GEOG130&#39;, &#39;GEOG103&#39;] -->
<g id="edge37" class="edge">
<title>GEOG103&#45;&gt;1 of [&#39;EOS110&#39;, &#39;EOS130&#39;, &#39;GEOG130&#39;, &#39;GEOG103&#39;]</title>
<path fill="none" stroke="black" d="M597.62,-214.71C618.2,-206.52 645.88,-195.5 662.38,-188.93"/>
<polygon fill="black" stroke="black" points="663.13,-190.52 667.13,-187.04 661.83,-187.26 663.13,-190.52"/>
</g>
<!-- EOS210&#45;&gt;1 of [&#39;CSC110&#39;, &#39;CSC111&#39;, &#39;EOS210&#39;, &#39;EOS230&#39;, &#39;GEOG230&#39;, &#39;EOS261&#39;, &#39;EOS314&#39;] -->
<g id="edge77" class="edge">
<title>EOS210&#45;&gt;1 of [&#39;CSC110&#39;, &#39;CSC111&#39;, &#39;EOS210&#39;, &#39;EOS230&#39;, &#39;GEOG230&#39;, &#39;EOS261&#39;, &#39;EOS314&#39;]</title>
<path fill="none" stroke="black" d="M599.21,-258.99C646.73,-243.41 744.64,-219.11 817,-253.31 835.03,-261.83 848.37,-281.27 855.92,-294.84"/>
<polygon fill="black" stroke="black" points="854.53,-295.96 858.43,-299.55 857.62,-294.31 854.53,-295.96"/>
</g>
<!-- CSC111 -->
<g id="node12" class="node">
<title>CSC111</title>
<path fill="#e7a79b" stroke="#030a10" d="M804,-361.81C804,-361.81 761,-361.81 761,-361.81 757.5,-361.81 754,-358.31 754,-354.81 754,-354.81 754,-347.81 754,-347.81 754,-344.31 757.5,-340.81 761,-340.81 761,-340.81 804,-340.81 804,-340.81 807.5,-340.81 811,-344.31 811,-347.81 811,-347.81 811,-354.81 811,-354.81 811,-358.31 807.5,-361.81 804,-361.81"/>
<text text-anchor="middle" x="782.5" y="-348.21" font-family="Times,serif" font-size="12.00">CSC111</text>
</g>
<!-- CSC111&#45;&gt;1 of [&#39;CSC110&#39;, &#39;CSC111&#39;, &#39;EOS210&#39;, &#39;EOS230&#39;, &#39;GEOG230&#39;, &#39;EOS261&#39;, &#39;EOS314&#39;] -->
<g id="edge76" class="edge">
<title>CSC111&#45;&gt;1 of [&#39;CSC110&#39;, &#39;CSC111&#39;, &#39;EOS210&#39;, &#39;EOS230&#39;, &#39;GEOG230&#39;, &#39;EOS261&#39;, &#39;EOS314&#39;]</title>
<path fill="none" stroke="black" d="M807.8,-340.81C810.92,-339.35 814.05,-337.83 817,-336.31 828.36,-330.46 840.83,-323.07 849.92,-317.5"/>
<polygon fill="black" stroke="black" points="851.01,-318.89 854.34,-314.78 849.17,-315.91 851.01,-318.89"/>
</g>
<!-- EOS423 -->
<g id="node13" class="node">
<title>EOS423</title>
<path fill="#e7a79b" stroke="#030a10" d="M1161,-426.81C1161,-426.81 1117,-426.81 1117,-426.81 1113.5,-426.81 1110,-423.31 1110,-419.81 1110,-419.81 1110,-412.81 1110,-412.81 1110,-409.31 1113.5,-405.81 1117,-405.81 1117,-405.81 1161,-405.81 1161,-405.81 1164.5,-405.81 1168,-409.31 1168,-412.81 1168,-412.81 1168,-419.81 1168,-419.81 1168,-423.31 1164.5,-426.81 1161,-426.81"/>
<text text-anchor="middle" x="1139" y="-413.21" font-family="Times,serif" font-size="12.00">EOS423</text>
</g>
<!-- EOS460 -->
<g id="node19" class="node">
<title>EOS460</title>
<path fill="#e7a79b" stroke="#030a10" d="M1161,-269.81C1161,-269.81 1117,-269.81 1117,-269.81 1113.5,-269.81 1110,-266.31 1110,-262.81 1110,-262.81 1110,-255.81 1110,-255.81 1110,-252.31 1113.5,-248.81 1117,-248.81 1117,-248.81 1161,-248.81 1161,-248.81 1164.5,-248.81 1168,-252.31 1168,-255.81 1168,-255.81 1168,-262.81 1168,-262.81 1168,-266.31 1164.5,-269.81 1161,-269.81"/>
<text text-anchor="middle" x="1139" y="-256.21" font-family="Times,serif" font-size="12.00">EOS460</text>
</g>
<!-- EOS261&#45;&gt;EOS460 -->
<g id="edge57" class="edge">
<title>EOS261&#45;&gt;EOS460</title>
<path fill="none" stroke="black" d="M811.82,-189.84C865.07,-184.43 982.95,-177.8 1074,-211.31 1093.44,-218.46 1111.95,-233.57 1124.02,-244.94"/>
<polygon fill="black" stroke="black" points="1123.04,-246.43 1127.85,-248.64 1125.47,-243.91 1123.04,-246.43"/>
</g>
<!-- EOS261&#45;&gt;1 of [&#39;CSC110&#39;, &#39;CSC111&#39;, &#39;EOS210&#39;, &#39;EOS230&#39;, &#39;GEOG230&#39;, &#39;EOS261&#39;, &#39;EOS314&#39;] -->
<g id="edge80" class="edge">
<title>EOS261&#45;&gt;1 of [&#39;CSC110&#39;, &#39;CSC111&#39;, &#39;EOS210&#39;, &#39;EOS230&#39;, &#39;GEOG230&#39;, &#39;EOS261&#39;, &#39;EOS314&#39;]</title>
<path fill="none" stroke="black" d="M796.52,-204.03C803.14,-209.89 811.03,-217.52 817,-225.31 834.21,-247.73 848.85,-277.42 856.74,-294.83"/>
<polygon fill="black" stroke="black" points="855.15,-295.55 858.79,-299.4 858.34,-294.13 855.15,-295.55"/>
</g>
<!-- MATH151 -->
<g id="node15" class="node">
<title>MATH151</title>
<path fill="#f5edc9" stroke="#030a10" d="M490,-96.81C490,-96.81 435,-96.81 435,-96.81 431.5,-96.81 428,-93.31 428,-89.81 428,-89.81 428,-82.81 428,-82.81 428,-79.31 431.5,-75.81 435,-75.81 435,-75.81 490,-75.81 490,-75.81 493.5,-75.81 497,-79.31 497,-82.81 497,-82.81 497,-89.81 497,-89.81 497,-93.31 493.5,-96.81 490,-96.81"/>
<text text-anchor="middle" x="462.5" y="-83.21" font-family="Times,serif" font-size="12.00">MATH151</text>
</g>
<!-- MATH151&#45;&gt;2 of [&#39;MATH100&#39;, &#39;MATH101&#39;, &#39;MATH102&#39;, &#39;MATH109&#39;, &#39;MATH151&#39;] -->
<g id="edge19" class="edge">
<title>MATH151&#45;&gt;2 of [&#39;MATH100&#39;, &#39;MATH101&#39;, &#39;MATH102&#39;, &#39;MATH109&#39;, &#39;MATH151&#39;]</title>
<path fill="none" stroke="black" d="M497.17,-89.82C516.29,-91.81 539.28,-94.21 554.01,-95.75"/>
<polygon fill="black" stroke="black" points="553.88,-97.49 559.04,-96.27 554.25,-94.01 553.88,-97.49"/>
</g>
<!-- 1 of [&#39;MATH200&#39;, &#39;MATH205&#39;] -->
<g id="node53" class="node">
<title>1 of [&#39;MATH200&#39;, &#39;MATH205&#39;]</title>
<ellipse fill="#e9dbd0" stroke="#030a10" cx="677.5" cy="-68.31" rx="11" ry="11"/>
<text text-anchor="middle" x="677.5" y="-65.21" font-family="Times,serif" font-size="12.00">1</text>
</g>
<!-- MATH200&#45;&gt;1 of [&#39;MATH200&#39;, &#39;MATH205&#39;] -->
<g id="edge62" class="edge">
<title>MATH200&#45;&gt;1 of [&#39;MATH200&#39;, &#39;MATH205&#39;]</title>
<path fill="none" stroke="black" d="M604.67,-49.25C623.79,-54.32 646.78,-60.42 661.51,-64.33"/>
<polygon fill="black" stroke="black" points="661.26,-66.07 666.54,-65.66 662.15,-62.69 661.26,-66.07"/>
</g>
<!-- GEOG230 -->
<g id="node17" class="node">
<title>GEOG230</title>
<path fill="#e7a79b" stroke="#030a10" d="M810,-333.81C810,-333.81 755,-333.81 755,-333.81 751.5,-333.81 748,-330.31 748,-326.81 748,-326.81 748,-319.81 748,-319.81 748,-316.31 751.5,-312.81 755,-312.81 755,-312.81 810,-312.81 810,-312.81 813.5,-312.81 817,-316.31 817,-319.81 817,-319.81 817,-326.81 817,-326.81 817,-330.31 813.5,-333.81 810,-333.81"/>
<text text-anchor="middle" x="782.5" y="-320.21" font-family="Times,serif" font-size="12.00">GEOG230</text>
</g>
<!-- GEOG230&#45;&gt;1 of [&#39;CSC110&#39;, &#39;CSC111&#39;, &#39;EOS210&#39;, &#39;EOS230&#39;, &#39;GEOG230&#39;, &#39;EOS261&#39;, &#39;EOS314&#39;] -->
<g id="edge79" class="edge">
<title>GEOG230&#45;&gt;1 of [&#39;CSC110&#39;, &#39;CSC111&#39;, &#39;EOS210&#39;, &#39;EOS230&#39;, &#39;GEOG230&#39;, &#39;EOS261&#39;, &#39;EOS314&#39;]</title>
<path fill="none" stroke="black" d="M817.22,-317.37C827.87,-315.5 839.12,-313.51 847.8,-311.99"/>
<polygon fill="black" stroke="black" points="848.22,-313.69 852.84,-311.1 847.61,-310.24 848.22,-313.69"/>
</g>
<!-- EOS340 -->
<g id="node18" class="node">
<title>EOS340</title>
<path fill="#e7a79b" stroke="#030a10" d="M1161,-365.81C1161,-365.81 1117,-365.81 1117,-365.81 1113.5,-365.81 1110,-362.31 1110,-358.81 1110,-358.81 1110,-351.81 1110,-351.81 1110,-348.31 1113.5,-344.81 1117,-344.81 1117,-344.81 1161,-344.81 1161,-344.81 1164.5,-344.81 1168,-348.31 1168,-351.81 1168,-351.81 1168,-358.81 1168,-358.81 1168,-362.31 1164.5,-365.81 1161,-365.81"/>
<text text-anchor="middle" x="1139" y="-352.21" font-family="Times,serif" font-size="12.00">EOS340</text>
</g>
<!-- EOS340&#45;&gt;EOS433 -->
<g id="edge1" class="edge">
<title>EOS340&#45;&gt;EOS433</title>
<path fill="none" stroke="black" d="M1168.1,-355.31C1177.73,-355.31 1188.6,-355.31 1198.61,-355.31"/>
<polygon fill="black" stroke="black" points="1198.75,-357.06 1203.75,-355.31 1198.75,-353.56 1198.75,-357.06"/>
</g>
<!-- MATH204 -->
<g id="node20" class="node">
<title>MATH204</title>
<path fill="#e7a79b" stroke="#030a10" d="M810,-175.81C810,-175.81 755,-175.81 755,-175.81 751.5,-175.81 748,-172.31 748,-168.81 748,-168.81 748,-161.81 748,-161.81 748,-158.31 751.5,-154.81 755,-154.81 755,-154.81 810,-154.81 810,-154.81 813.5,-154.81 817,-158.31 817,-161.81 817,-161.81 817,-168.81 817,-168.81 817,-172.31 813.5,-175.81 810,-175.81"/>
<text text-anchor="middle" x="782.5" y="-162.21" font-family="Times,serif" font-size="12.00">MATH204</text>
</g>
<!-- 1 of [&#39;EOS325&#39;, &#39;MATH204&#39;] -->
<g id="node45" class="node">
<title>1 of [&#39;EOS325&#39;, &#39;MATH204&#39;]</title>
<ellipse fill="#e9dbd0" stroke="#030a10" cx="1045" cy="-355.31" rx="11" ry="11"/>
<text text-anchor="middle" x="1045" y="-352.21" font-family="Times,serif" font-size="12.00">1</text>
</g>
<!-- MATH204&#45;&gt;1 of [&#39;EOS325&#39;, &#39;MATH204&#39;] -->
<g id="edge47" class="edge">
<title>MATH204&#45;&gt;1 of [&#39;EOS325&#39;, &#39;MATH204&#39;]</title>
<path fill="none" stroke="black" d="M817.17,-173.38C836.74,-179.74 860.35,-190.58 875,-208.31 912.65,-253.86 866.54,-297.37 911,-336.31 919.75,-343.97 995.6,-351.23 1028.68,-354.06"/>
<polygon fill="black" stroke="black" points="1028.84,-355.83 1033.97,-354.51 1029.14,-352.34 1028.84,-355.83"/>
</g>
<!-- 1 of [&#39;MATH202&#39;, &#39;MATH204&#39;] -->
<g id="node58" class="node">
<title>1 of [&#39;MATH202&#39;, &#39;MATH204&#39;]</title>
<ellipse fill="#e9dbd0" stroke="#030a10" cx="864" cy="-223.31" rx="11" ry="11"/>
<text text-anchor="middle" x="864" y="-220.21" font-family="Times,serif" font-size="12.00">1</text>
</g>
<!-- MATH204&#45;&gt;1 of [&#39;MATH202&#39;, &#39;MATH204&#39;] -->
<g id="edge73" class="edge">
<title>MATH204&#45;&gt;1 of [&#39;MATH202&#39;, &#39;MATH204&#39;]</title>
<path fill="none" stroke="black" d="M811.34,-175.99C813.3,-177.03 815.21,-178.14 817,-179.31 830.75,-188.31 844.06,-201.71 852.79,-211.35"/>
<polygon fill="black" stroke="black" points="851.61,-212.66 856.24,-215.23 854.22,-210.33 851.61,-212.66"/>
</g>
<!-- CHEM102 -->
<g id="node21" class="node">
<title>CHEM102</title>
<path fill="#f5edc9" stroke="#030a10" d="M382.5,-49.81C382.5,-49.81 326.5,-49.81 326.5,-49.81 323,-49.81 319.5,-46.31 319.5,-42.81 319.5,-42.81 319.5,-35.81 319.5,-35.81 319.5,-32.31 323,-28.81 326.5,-28.81 326.5,-28.81 382.5,-28.81 382.5,-28.81 386,-28.81 389.5,-32.31 389.5,-35.81 389.5,-35.81 389.5,-42.81 389.5,-42.81 389.5,-46.31 386,-49.81 382.5,-49.81"/>
<text text-anchor="middle" x="354.5" y="-36.21" font-family="Times,serif" font-size="12.00">CHEM102</text>
</g>
<!-- CHEM102&#45;&gt;EOS261 -->
<g id="edge38" class="edge">
<title>CHEM102&#45;&gt;EOS261</title>
<path fill="none" stroke="black" d="M385.94,-28.79C454.7,-7.2 622.93,33.24 712,-53.31 753.46,-93.6 710.09,-134.66 748,-178.31 748.5,-178.88 749.02,-179.43 749.56,-179.96"/>
<polygon fill="black" stroke="black" points="748.48,-181.34 753.45,-183.18 750.71,-178.64 748.48,-181.34"/>
</g>
<!-- MATH109 -->
<g id="node22" class="node">
<title>MATH109</title>
<path fill="#f5edc9" stroke="#030a10" d="M167.5,-155.81C167.5,-155.81 112.5,-155.81 112.5,-155.81 109,-155.81 105.5,-152.31 105.5,-148.81 105.5,-148.81 105.5,-141.81 105.5,-141.81 105.5,-138.31 109,-134.81 112.5,-134.81 112.5,-134.81 167.5,-134.81 167.5,-134.81 171,-134.81 174.5,-138.31 174.5,-141.81 174.5,-141.81 174.5,-148.81 174.5,-148.81 174.5,-152.31 171,-155.81 167.5,-155.81"/>
<text text-anchor="middle" x="140" y="-142.21" font-family="Times,serif" font-size="12.00">MATH109</text>
</g>
<!-- MATH109&#45;&gt;1 of [&#39;MATH100&#39;, &#39;MATH109&#39;] -->
<g id="edge4" class="edge">
<title>MATH109&#45;&gt;1 of [&#39;MATH100&#39;, &#39;MATH109&#39;]</title>
<path fill="none" stroke="black" d="M174.77,-145.31C193.2,-145.31 215.13,-145.31 229.52,-145.31"/>
<polygon fill="black" stroke="black" points="229.83,-147.06 234.83,-145.31 229.83,-143.56 229.83,-147.06"/>
</g>
<!-- MATH109&#45;&gt;1 of [&#39;MATH100&#39;, &#39;MATH102&#39;, &#39;MATH109&#39;] -->
<g id="edge8" class="edge">
<title>MATH109&#45;&gt;1 of [&#39;MATH100&#39;, &#39;MATH102&#39;, &#39;MATH109&#39;]</title>
<path fill="none" stroke="black" d="M174.77,-154.72C193.57,-159.97 216.02,-166.23 230.39,-170.23"/>
<polygon fill="black" stroke="black" points="230.01,-171.94 235.29,-171.6 230.95,-168.57 230.01,-171.94"/>
</g>
<!-- MATH109&#45;&gt;2 of [&#39;MATH100&#39;, &#39;MATH101&#39;, &#39;MATH102&#39;, &#39;MATH109&#39;, &#39;MATH151&#39;] -->
<g id="edge18" class="edge">
<title>MATH109&#45;&gt;2 of [&#39;MATH100&#39;, &#39;MATH101&#39;, &#39;MATH102&#39;, &#39;MATH109&#39;, &#39;MATH151&#39;]</title>
<path fill="none" stroke="black" d="M174.69,-137.76C186.16,-135.41 199.1,-132.99 211,-131.31 337.3,-113.44 370.23,-121.42 497,-107.31 516.66,-105.12 539.24,-101.86 553.79,-99.67"/>
<polygon fill="black" stroke="black" points="554.09,-101.39 558.77,-98.91 553.56,-97.93 554.09,-101.39"/>
</g>
<!-- MATH205 -->
<g id="node23" class="node">
<title>MATH205</title>
<path fill="#f5edc9" stroke="#030a10" d="M597.5,-78.81C597.5,-78.81 542.5,-78.81 542.5,-78.81 539,-78.81 535.5,-75.31 535.5,-71.81 535.5,-71.81 535.5,-64.81 535.5,-64.81 535.5,-61.31 539,-57.81 542.5,-57.81 542.5,-57.81 597.5,-57.81 597.5,-57.81 601,-57.81 604.5,-61.31 604.5,-64.81 604.5,-64.81 604.5,-71.81 604.5,-71.81 604.5,-75.31 601,-78.81 597.5,-78.81"/>
<text text-anchor="middle" x="570" y="-65.21" font-family="Times,serif" font-size="12.00">MATH205</text>
</g>
<!-- MATH205&#45;&gt;1 of [&#39;MATH200&#39;, &#39;MATH205&#39;] -->
<g id="edge63" class="edge">
<title>MATH205&#45;&gt;1 of [&#39;MATH200&#39;, &#39;MATH205&#39;]</title>
<path fill="none" stroke="black" d="M604.67,-68.31C623.58,-68.31 646.26,-68.31 661.01,-68.31"/>
<polygon fill="black" stroke="black" points="661.06,-70.06 666.06,-68.31 661.06,-66.56 661.06,-70.06"/>
</g>
<!-- PHYS120 -->
<g id="node24" class="node">
<title>PHYS120</title>
<path fill="#f5edc9" stroke="#030a10" d="M380.5,-306.81C380.5,-306.81 328.5,-306.81 328.5,-306.81 325,-306.81 321.5,-303.31 321.5,-299.81 321.5,-299.81 321.5,-292.81 321.5,-292.81 321.5,-289.31 325,-285.81 328.5,-285.81 328.5,-285.81 380.5,-285.81 380.5,-285.81 384,-285.81 387.5,-289.31 387.5,-292.81 387.5,-292.81 387.5,-299.81 387.5,-299.81 387.5,-303.31 384,-306.81 380.5,-306.81"/>
<text text-anchor="middle" x="354.5" y="-293.21" font-family="Times,serif" font-size="12.00">PHYS120</text>
</g>
<!-- PHYS120&#45;&gt;PHYS130 -->
<g id="edge84" class="edge">
<title>PHYS120&#45;&gt;PHYS130</title>
<path fill="none" stroke="black" d="M387.93,-296.46C426.55,-296.64 490.96,-296.94 531.64,-297.13"/>
<polygon fill="black" stroke="black" points="531.96,-298.89 536.97,-297.16 531.98,-295.39 531.96,-298.89"/>
</g>
<!-- PHYS120&#45;&gt;1 of [&#39;PHYS102A&#39;, &#39;PHYS110&#39;, &#39;PHYS120&#39;] -->
<g id="edge12" class="edge">
<title>PHYS120&#45;&gt;1 of [&#39;PHYS102A&#39;, &#39;PHYS110&#39;, &#39;PHYS120&#39;]</title>
<path fill="none" stroke="black" d="M371.14,-307.08C392.06,-321.49 428.77,-346.77 448.34,-360.25"/>
<polygon fill="black" stroke="black" points="447.82,-362.01 452.93,-363.41 449.8,-359.13 447.82,-362.01"/>
</g>
<!-- PHYS120&#45;&gt;1 of [&#39;PHYS102B&#39;, &#39;PHYS111&#39;, &#39;PHYS120&#39;] -->
<g id="edge24" class="edge">
<title>PHYS120&#45;&gt;1 of [&#39;PHYS102B&#39;, &#39;PHYS111&#39;, &#39;PHYS120&#39;]</title>
<path fill="none" stroke="black" d="M381.03,-306.82C428.24,-326.21 525.14,-365.79 533,-367.31 579.32,-376.23 635.27,-364.95 661.52,-358.39"/>
<polygon fill="black" stroke="black" points="662.25,-360.01 666.66,-357.08 661.38,-356.62 662.25,-360.01"/>
</g>
<!-- PHYS120&#45;&gt;1 of [&#39;PHYS110&#39;, &#39;PHYS120&#39;] -->
<g id="edge28" class="edge">
<title>PHYS120&#45;&gt;1 of [&#39;PHYS110&#39;, &#39;PHYS120&#39;]</title>
<path fill="none" stroke="black" d="M387.59,-289.65C407.13,-285.59 431.18,-280.6 446.43,-277.44"/>
<polygon fill="black" stroke="black" points="447.09,-279.09 451.63,-276.36 446.37,-275.66 447.09,-279.09"/>
</g>
<!-- EOS325 -->
<g id="node25" class="node">
<title>EOS325</title>
<path fill="#9fa7be" stroke="#030a10" d="M967.5,-376.81C967.5,-376.81 923.5,-376.81 923.5,-376.81 920,-376.81 916.5,-373.31 916.5,-369.81 916.5,-369.81 916.5,-362.81 916.5,-362.81 916.5,-359.31 920,-355.81 923.5,-355.81 923.5,-355.81 967.5,-355.81 967.5,-355.81 971,-355.81 974.5,-359.31 974.5,-362.81 974.5,-362.81 974.5,-369.81 974.5,-369.81 974.5,-373.31 971,-376.81 967.5,-376.81"/>
<text text-anchor="middle" x="945.5" y="-363.21" font-family="Times,serif" font-size="12.00">EOS325</text>
</g>
<!-- 1 of [&#39;EOS225&#39;, &#39;EOS325&#39;] -->
<g id="node41" class="node">
<title>1 of [&#39;EOS225&#39;, &#39;EOS325&#39;]</title>
<ellipse fill="#e9dbd0" stroke="#030a10" cx="1045" cy="-394.31" rx="11" ry="11"/>
<text text-anchor="middle" x="1045" y="-391.21" font-family="Times,serif" font-size="12.00">1</text>
</g>
<!-- EOS325&#45;&gt;1 of [&#39;EOS225&#39;, &#39;EOS325&#39;] -->
<g id="edge32" class="edge">
<title>EOS325&#45;&gt;1 of [&#39;EOS225&#39;, &#39;EOS325&#39;]</title>
<path fill="none" stroke="black" d="M974.7,-374.41C992.53,-379.53 1014.85,-385.94 1029.27,-390.08"/>
<polygon fill="black" stroke="black" points="1028.91,-391.8 1034.2,-391.49 1029.87,-388.43 1028.91,-391.8"/>
</g>
<!-- EOS325&#45;&gt;1 of [&#39;EOS325&#39;, &#39;MATH204&#39;] -->
<g id="edge46" class="edge">
<title>EOS325&#45;&gt;1 of [&#39;EOS325&#39;, &#39;MATH204&#39;]</title>
<path fill="none" stroke="black" d="M974.7,-363.13C992.18,-361.16 1013.97,-358.7 1028.4,-357.07"/>
<polygon fill="black" stroke="black" points="1028.95,-358.77 1033.73,-356.47 1028.56,-355.29 1028.95,-358.77"/>
</g>
<!-- 1 of [&#39;EOS325&#39;, &#39;MATH248&#39;, &#39;PHYS248&#39;] -->
<g id="node47" class="node">
<title>1 of [&#39;EOS325&#39;, &#39;MATH248&#39;, &#39;PHYS248&#39;]</title>
<ellipse fill="#e9dbd0" stroke="#030a10" cx="1045" cy="-301.31" rx="11" ry="11"/>
<text text-anchor="middle" x="1045" y="-298.21" font-family="Times,serif" font-size="12.00">1</text>
</g>
<!-- EOS325&#45;&gt;1 of [&#39;EOS325&#39;, &#39;MATH248&#39;, &#39;PHYS248&#39;] -->
<g id="edge54" class="edge">
<title>EOS325&#45;&gt;1 of [&#39;EOS325&#39;, &#39;MATH248&#39;, &#39;PHYS248&#39;]</title>
<path fill="none" stroke="black" d="M962.6,-355.58C981.75,-342.81 1013.33,-321.76 1031,-309.98"/>
<polygon fill="black" stroke="black" points="1031.99,-311.42 1035.18,-307.19 1030.04,-308.51 1031.99,-311.42"/>
</g>
<!-- MATH202&#45;&gt;1 of [&#39;MATH202&#39;, &#39;MATH204&#39;] -->
<g id="edge72" class="edge">
<title>MATH202&#45;&gt;1 of [&#39;MATH202&#39;, &#39;MATH204&#39;]</title>
<path fill="none" stroke="black" d="M712.34,-214.33C752.69,-216.73 818.36,-220.65 847.84,-222.4"/>
<polygon fill="black" stroke="black" points="847.81,-224.16 852.91,-222.71 848.02,-220.66 847.81,-224.16"/>
</g>
<!-- MATH102 -->
<g id="node27" class="node">
<title>MATH102</title>
<path fill="#f5edc9" stroke="#030a10" d="M167.5,-195.81C167.5,-195.81 112.5,-195.81 112.5,-195.81 109,-195.81 105.5,-192.31 105.5,-188.81 105.5,-188.81 105.5,-181.81 105.5,-181.81 105.5,-178.31 109,-174.81 112.5,-174.81 112.5,-174.81 167.5,-174.81 167.5,-174.81 171,-174.81 174.5,-178.31 174.5,-181.81 174.5,-181.81 174.5,-188.81 174.5,-188.81 174.5,-192.31 171,-195.81 167.5,-195.81"/>
<text text-anchor="middle" x="140" y="-182.21" font-family="Times,serif" font-size="12.00">MATH102</text>
</g>
<!-- MATH102&#45;&gt;1 of [&#39;MATH100&#39;, &#39;MATH102&#39;, &#39;MATH109&#39;] -->
<g id="edge7" class="edge">
<title>MATH102&#45;&gt;1 of [&#39;MATH100&#39;, &#39;MATH102&#39;, &#39;MATH109&#39;]</title>
<path fill="none" stroke="black" d="M174.77,-181.74C193.2,-179.79 215.13,-177.47 229.52,-175.95"/>
<polygon fill="black" stroke="black" points="230.04,-177.65 234.83,-175.38 229.67,-174.17 230.04,-177.65"/>
</g>
<!-- MATH102&#45;&gt;2 of [&#39;MATH100&#39;, &#39;MATH101&#39;, &#39;MATH102&#39;, &#39;MATH109&#39;, &#39;MATH151&#39;] -->
<g id="edge17" class="edge">
<title>MATH102&#45;&gt;2 of [&#39;MATH100&#39;, &#39;MATH101&#39;, &#39;MATH102&#39;, &#39;MATH109&#39;, &#39;MATH151&#39;]</title>
<path fill="none" stroke="black" d="M174.59,-189.28C203.09,-191.88 244.96,-193.87 281,-188.31 389.56,-171.57 513.3,-121.29 554.68,-103.57"/>
<polygon fill="black" stroke="black" points="555.41,-105.16 559.31,-101.58 554.03,-101.95 555.41,-105.16"/>
</g>
<!-- CSC110 -->
<g id="node28" class="node">
<title>CSC110</title>
<path fill="#e7a79b" stroke="#030a10" d="M804.5,-305.81C804.5,-305.81 760.5,-305.81 760.5,-305.81 757,-305.81 753.5,-302.31 753.5,-298.81 753.5,-298.81 753.5,-291.81 753.5,-291.81 753.5,-288.31 757,-284.81 760.5,-284.81 760.5,-284.81 804.5,-284.81 804.5,-284.81 808,-284.81 811.5,-288.31 811.5,-291.81 811.5,-291.81 811.5,-298.81 811.5,-298.81 811.5,-302.31 808,-305.81 804.5,-305.81"/>
<text text-anchor="middle" x="782.5" y="-292.21" font-family="Times,serif" font-size="12.00">CSC110</text>
</g>
<!-- CSC110&#45;&gt;1 of [&#39;CSC110&#39;, &#39;CSC111&#39;, &#39;EOS210&#39;, &#39;EOS230&#39;, &#39;GEOG230&#39;, &#39;EOS261&#39;, &#39;EOS314&#39;] -->
<g id="edge75" class="edge">
<title>CSC110&#45;&gt;1 of [&#39;CSC110&#39;, &#39;CSC111&#39;, &#39;EOS210&#39;, &#39;EOS230&#39;, &#39;GEOG230&#39;, &#39;EOS261&#39;, &#39;EOS314&#39;]</title>
<path fill="none" stroke="black" d="M811.75,-300.28C823.91,-302.43 837.65,-304.84 847.83,-306.64"/>
<polygon fill="black" stroke="black" points="847.58,-308.37 852.81,-307.51 848.19,-304.92 847.58,-308.37"/>
</g>
<!-- PHYS130&#45;&gt;1 of [&#39;PHYS111&#39;, &#39;PHYS130&#39;, &#39;PHYS102B&#39;] -->
<g id="edge42" class="edge">
<title>PHYS130&#45;&gt;1 of [&#39;PHYS111&#39;, &#39;PHYS130&#39;, &#39;PHYS102B&#39;]</title>
<path fill="none" stroke="black" d="M603.23,-297C622.44,-296.82 645.96,-296.6 661.08,-296.45"/>
<polygon fill="black" stroke="black" points="661.26,-298.2 666.25,-296.41 661.23,-294.7 661.26,-298.2"/>
</g>
<!-- PHYS130&#45;&gt;1 of [&#39;PHYS102B&#39;, &#39;PHYS111&#39;, &#39;PHYS130&#39;] -->
<g id="edge52" class="edge">
<title>PHYS130&#45;&gt;1 of [&#39;PHYS102B&#39;, &#39;PHYS111&#39;, &#39;PHYS130&#39;]</title>
<path fill="none" stroke="black" d="M603.23,-305.86C622.66,-311.02 646.49,-317.34 661.58,-321.35"/>
<polygon fill="black" stroke="black" points="661.45,-323.12 666.73,-322.72 662.34,-319.74 661.45,-323.12"/>
</g>
<!-- EOS130 -->
<g id="node30" class="node">
<title>EOS130</title>
<path fill="#f5edc9" stroke="#030a10" d="M592,-207.81C592,-207.81 548,-207.81 548,-207.81 544.5,-207.81 541,-204.31 541,-200.81 541,-200.81 541,-193.81 541,-193.81 541,-190.31 544.5,-186.81 548,-186.81 548,-186.81 592,-186.81 592,-186.81 595.5,-186.81 599,-190.31 599,-193.81 599,-193.81 599,-200.81 599,-200.81 599,-204.31 595.5,-207.81 592,-207.81"/>
<text text-anchor="middle" x="570" y="-194.21" font-family="Times,serif" font-size="12.00">EOS130</text>
</g>
<!-- EOS130&#45;&gt;1 of [&#39;EOS110&#39;, &#39;EOS130&#39;, &#39;GEOG130&#39;, &#39;GEOG103&#39;] -->
<g id="edge35" class="edge">
<title>EOS130&#45;&gt;1 of [&#39;EOS110&#39;, &#39;EOS130&#39;, &#39;GEOG130&#39;, &#39;GEOG103&#39;]</title>
<path fill="none" stroke="black" d="M599.27,-193.56C619.23,-190.91 645.2,-187.46 661.36,-185.32"/>
<polygon fill="black" stroke="black" points="661.71,-187.04 666.44,-184.64 661.25,-183.57 661.71,-187.04"/>
</g>
<!-- PHYS111&#45;&gt;1 of [&#39;PHYS102B&#39;, &#39;PHYS111&#39;, &#39;PHYS120&#39;] -->
<g id="edge23" class="edge">
<title>PHYS111&#45;&gt;1 of [&#39;PHYS102B&#39;, &#39;PHYS111&#39;, &#39;PHYS120&#39;]</title>
<path fill="none" stroke="black" d="M602.65,-334.01C622.11,-339.36 646.16,-345.97 661.42,-350.16"/>
<polygon fill="black" stroke="black" points="661.33,-351.95 666.62,-351.59 662.26,-348.58 661.33,-351.95"/>
</g>
<!-- PHYS111&#45;&gt;1 of [&#39;PHYS111&#39;, &#39;PHYS130&#39;, &#39;PHYS102B&#39;] -->
<g id="edge41" class="edge">
<title>PHYS111&#45;&gt;1 of [&#39;PHYS111&#39;, &#39;PHYS130&#39;, &#39;PHYS102B&#39;]</title>
<path fill="none" stroke="black" d="M602.65,-316.61C622.11,-311.26 646.16,-304.65 661.42,-300.45"/>
<polygon fill="black" stroke="black" points="662.26,-302.04 666.62,-299.03 661.33,-298.66 662.26,-302.04"/>
</g>
<!-- PHYS111&#45;&gt;1 of [&#39;PHYS102B&#39;, &#39;PHYS111&#39;, &#39;PHYS130&#39;] -->
<g id="edge51" class="edge">
<title>PHYS111&#45;&gt;1 of [&#39;PHYS102B&#39;, &#39;PHYS111&#39;, &#39;PHYS130&#39;]</title>
<path fill="none" stroke="black" d="M602.65,-325.31C621.9,-325.31 645.63,-325.31 660.91,-325.31"/>
<polygon fill="black" stroke="black" points="661.13,-327.06 666.13,-325.31 661.13,-323.56 661.13,-327.06"/>
</g>
<!-- PHYS102A -->
<g id="node32" class="node">
<title>PHYS102A</title>
<path fill="#f5edc9" stroke="#030a10" d="M385,-384.81C385,-384.81 324,-384.81 324,-384.81 320.5,-384.81 317,-381.31 317,-377.81 317,-377.81 317,-370.81 317,-370.81 317,-367.31 320.5,-363.81 324,-363.81 324,-363.81 385,-363.81 385,-363.81 388.5,-363.81 392,-367.31 392,-370.81 392,-370.81 392,-377.81 392,-377.81 392,-381.31 388.5,-384.81 385,-384.81"/>
<text text-anchor="middle" x="354.5" y="-371.21" font-family="Times,serif" font-size="12.00">PHYS102A</text>
</g>
<!-- PHYS102A&#45;&gt;1 of [&#39;PHYS102A&#39;, &#39;PHYS110&#39;, &#39;PHYS120&#39;] -->
<g id="edge10" class="edge">
<title>PHYS102A&#45;&gt;1 of [&#39;PHYS102A&#39;, &#39;PHYS110&#39;, &#39;PHYS120&#39;]</title>
<path fill="none" stroke="black" d="M392.28,-372.57C410.65,-371.71 431.89,-370.71 445.95,-370.04"/>
<polygon fill="black" stroke="black" points="446.24,-371.78 451.15,-369.8 446.07,-368.28 446.24,-371.78"/>
</g>
<!-- 1 of [&#39;MATH100&#39;, &#39;MATH109&#39;]&#45;&gt;MATH101 -->
<g id="edge2" class="edge">
<title>1 of [&#39;MATH100&#39;, &#39;MATH109&#39;]&#45;&gt;MATH101</title>
<path fill="none" stroke="black" d="M256.77,-148.64C286.23,-158.66 375.21,-188.94 425.63,-206.1"/>
<polygon fill="black" stroke="black" points="425.09,-207.77 430.39,-207.72 426.22,-204.45 425.09,-207.77"/>
</g>
<!-- 1 of [&#39;MATH100&#39;, &#39;MATH109&#39;]&#45;&gt;PHYS120 -->
<g id="edge70" class="edge">
<title>1 of [&#39;MATH100&#39;, &#39;MATH109&#39;]&#45;&gt;PHYS120</title>
<path fill="none" stroke="black" d="M256.92,-147.78C264.28,-150.03 274.19,-153.99 281,-160.31 290.81,-169.42 329.6,-247.42 346.06,-281.02"/>
<polygon fill="black" stroke="black" points="344.55,-281.92 348.32,-285.64 347.69,-280.38 344.55,-281.92"/>
</g>
<!-- 1 of [&#39;MATH100&#39;, &#39;MATH102&#39;, &#39;MATH109&#39;]&#45;&gt;PHYS110 -->
<g id="edge5" class="edge">
<title>1 of [&#39;MATH100&#39;, &#39;MATH102&#39;, &#39;MATH109&#39;]&#45;&gt;PHYS110</title>
<path fill="none" stroke="black" d="M249.16,-185.19C255.16,-212.76 274.45,-286.26 317,-329.31 318.18,-330.5 319.46,-331.62 320.81,-332.67"/>
<polygon fill="black" stroke="black" points="319.93,-334.19 325.04,-335.6 321.93,-331.32 319.93,-334.19"/>
</g>
<!-- 1 of [&#39;MATH100&#39;, &#39;MATH102&#39;, &#39;MATH109&#39;]&#45;&gt;CHEM102 -->
<g id="edge64" class="edge">
<title>1 of [&#39;MATH100&#39;, &#39;MATH102&#39;, &#39;MATH109&#39;]&#45;&gt;CHEM102</title>
<path fill="none" stroke="black" d="M256.82,-171.73C264.14,-169.42 274.02,-165.44 281,-159.31 314.93,-129.47 337.77,-79.81 347.77,-54.76"/>
<polygon fill="black" stroke="black" points="349.4,-55.39 349.59,-50.1 346.14,-54.11 349.4,-55.39"/>
</g>
<!-- 1 of [&#39;MATH100&#39;, &#39;MATH102&#39;, &#39;MATH109&#39;]&#45;&gt;PHYS111 -->
<g id="edge87" class="edge">
<title>1 of [&#39;MATH100&#39;, &#39;MATH102&#39;, &#39;MATH109&#39;]&#45;&gt;PHYS111</title>
<path fill="none" stroke="black" d="M248.87,-185.2C254.11,-211.93 271.61,-280.74 317,-310.31 351.47,-332.77 470.89,-330.35 532.14,-327.47"/>
<polygon fill="black" stroke="black" points="532.26,-329.22 537.16,-327.23 532.09,-325.72 532.26,-329.22"/>
</g>
<!-- 1 of [&#39;PHYS102A&#39;, &#39;PHYS110&#39;, &#39;PHYS120&#39;]&#45;&gt;PHYS102B -->
<g id="edge9" class="edge">
<title>1 of [&#39;PHYS102A&#39;, &#39;PHYS110&#39;, &#39;PHYS120&#39;]&#45;&gt;PHYS102B</title>
<path fill="none" stroke="black" d="M473.62,-367.77C486.07,-365.89 508,-362.56 527.7,-359.57"/>
<polygon fill="black" stroke="black" points="527.97,-361.3 532.65,-358.82 527.44,-357.84 527.97,-361.3"/>
</g>
<!-- 1 of [&#39;PHYS102A&#39;, &#39;PHYS110&#39;, &#39;PHYS120&#39;]&#45;&gt;EOS314 -->
<g id="edge20" class="edge">
<title>1 of [&#39;PHYS102A&#39;, &#39;PHYS110&#39;, &#39;PHYS120&#39;]&#45;&gt;EOS314</title>
<path fill="none" stroke="black" d="M473.23,-372.85C509.04,-385.21 635.33,-422.78 712,-368.31 746.11,-344.07 718.46,-310.95 748,-281.31 748.4,-280.91 748.81,-280.52 749.24,-280.14"/>
<polygon fill="black" stroke="black" points="750.44,-281.42 753.35,-276.99 748.31,-278.64 750.44,-281.42"/>
</g>
<!-- 1 of [&#39;PHYS102A&#39;, &#39;PHYS110&#39;, &#39;PHYS120&#39;]&#45;&gt;EOS340 -->
<g id="edge48" class="edge">
<title>1 of [&#39;PHYS102A&#39;, &#39;PHYS110&#39;, &#39;PHYS120&#39;]&#45;&gt;EOS340</title>
<path fill="none" stroke="black" d="M472.63,-374.27C485.63,-381.1 510.41,-393.23 533,-399.31 595.02,-415.99 612.28,-416.31 676.5,-416.31 676.5,-416.31 676.5,-416.31 946.5,-416.31 1003.28,-416.31 1021.21,-429.22 1074,-408.31 1094.66,-400.12 1113.64,-382.59 1125.47,-369.93"/>
<polygon fill="black" stroke="black" points="1126.82,-371.05 1128.9,-366.18 1124.24,-368.68 1126.82,-371.05"/>
</g>
<!-- MATH120 -->
<g id="node36" class="node">
<title>MATH120</title>
<path fill="#f5edc9" stroke="#030a10" d="M62,-141.81C62,-141.81 7,-141.81 7,-141.81 3.5,-141.81 0,-138.31 0,-134.81 0,-134.81 0,-127.81 0,-127.81 0,-124.31 3.5,-120.81 7,-120.81 7,-120.81 62,-120.81 62,-120.81 65.5,-120.81 69,-124.31 69,-127.81 69,-127.81 69,-134.81 69,-134.81 69,-138.31 65.5,-141.81 62,-141.81"/>
<text text-anchor="middle" x="34.5" y="-128.21" font-family="Times,serif" font-size="12.00">MATH120</text>
</g>
<!-- MATH120&#45;&gt;MATH100 -->
<g id="edge13" class="edge">
<title>MATH120&#45;&gt;MATH100</title>
<path fill="none" stroke="black" d="M69.1,-126.76C79.05,-125.42 90.01,-123.94 100.25,-122.55"/>
<polygon fill="black" stroke="black" points="100.49,-124.28 105.21,-121.88 100.02,-120.82 100.49,-124.28"/>
</g>
<!-- MATH120&#45;&gt;MATH109 -->
<g id="edge69" class="edge">
<title>MATH120&#45;&gt;MATH109</title>
<path fill="none" stroke="black" d="M69.1,-135.85C79.05,-137.2 90.01,-138.68 100.25,-140.07"/>
<polygon fill="black" stroke="black" points="100.02,-141.8 105.21,-140.74 100.49,-138.33 100.02,-141.8"/>
</g>
<!-- 2 of [&#39;MATH100&#39;, &#39;MATH101&#39;, &#39;MATH102&#39;, &#39;MATH109&#39;, &#39;MATH151&#39;]&#45;&gt;EOS314 -->
<g id="edge14" class="edge">
<title>2 of [&#39;MATH100&#39;, &#39;MATH101&#39;, &#39;MATH102&#39;, &#39;MATH109&#39;, &#39;MATH151&#39;]&#45;&gt;EOS314</title>
<path fill="none" stroke="black" d="M580.85,-100.38C605.28,-108.37 669.69,-131.75 712,-168.31 740.36,-192.82 762.96,-231.28 774.05,-252.32"/>
<polygon fill="black" stroke="black" points="772.51,-253.15 776.36,-256.78 775.61,-251.54 772.51,-253.15"/>
</g>
<!-- 1 of [&#39;PHYS102B&#39;, &#39;PHYS111&#39;, &#39;PHYS120&#39;]&#45;&gt;EOS314 -->
<g id="edge21" class="edge">
<title>1 of [&#39;PHYS102B&#39;, &#39;PHYS111&#39;, &#39;PHYS120&#39;]&#45;&gt;EOS314</title>
<path fill="none" stroke="black" d="M688.46,-351.58C695.62,-349.23 705.19,-345.26 712,-339.31 734.85,-319.35 724.9,-300.98 748,-281.31 748.31,-281.05 748.62,-280.79 748.93,-280.54"/>
<polygon fill="black" stroke="black" points="750.2,-281.79 753.3,-277.5 748.19,-278.92 750.2,-281.79"/>
</g>
<!-- 1 of [&#39;PHYS110&#39;, &#39;PHYS120&#39;]&#45;&gt;EOS210 -->
<g id="edge26" class="edge">
<title>1 of [&#39;PHYS110&#39;, &#39;PHYS120&#39;]&#45;&gt;EOS210</title>
<path fill="none" stroke="black" d="M473.62,-273.83C487.84,-273.15 514.43,-271.89 535.93,-270.88"/>
<polygon fill="black" stroke="black" points="536.08,-272.62 540.99,-270.64 535.92,-269.12 536.08,-272.62"/>
</g>
<!-- EOS201 -->
<g id="node40" class="node">
<title>EOS201</title>
<path fill="#f5edc9" stroke="#030a10" d="M1067,-448.81C1067,-448.81 1023,-448.81 1023,-448.81 1019.5,-448.81 1016,-445.31 1016,-441.81 1016,-441.81 1016,-434.81 1016,-434.81 1016,-431.31 1019.5,-427.81 1023,-427.81 1023,-427.81 1067,-427.81 1067,-427.81 1070.5,-427.81 1074,-431.31 1074,-434.81 1074,-434.81 1074,-441.81 1074,-441.81 1074,-445.31 1070.5,-448.81 1067,-448.81"/>
<text text-anchor="middle" x="1045" y="-435.21" font-family="Times,serif" font-size="12.00">EOS201</text>
</g>
<!-- EOS201&#45;&gt;EOS423 -->
<g id="edge29" class="edge">
<title>EOS201&#45;&gt;EOS423</title>
<path fill="none" stroke="black" d="M1074.1,-431.59C1083.82,-429.26 1094.8,-426.64 1104.88,-424.23"/>
<polygon fill="black" stroke="black" points="1105.3,-425.93 1109.75,-423.06 1104.48,-422.52 1105.3,-425.93"/>
</g>
<!-- 1 of [&#39;EOS225&#39;, &#39;EOS325&#39;]&#45;&gt;EOS423 -->
<g id="edge30" class="edge">
<title>1 of [&#39;EOS225&#39;, &#39;EOS325&#39;]&#45;&gt;EOS423</title>
<path fill="none" stroke="black" d="M1055.85,-396.66C1067.44,-399.44 1087.31,-404.19 1104.61,-408.32"/>
<polygon fill="black" stroke="black" points="1104.61,-410.12 1109.88,-409.58 1105.43,-406.72 1104.61,-410.12"/>
</g>
<!-- EOS225 -->
<g id="node42" class="node">
<title>EOS225</title>
<path fill="#f5edc9" stroke="#030a10" d="M967.5,-404.81C967.5,-404.81 923.5,-404.81 923.5,-404.81 920,-404.81 916.5,-401.31 916.5,-397.81 916.5,-397.81 916.5,-390.81 916.5,-390.81 916.5,-387.31 920,-383.81 923.5,-383.81 923.5,-383.81 967.5,-383.81 967.5,-383.81 971,-383.81 974.5,-387.31 974.5,-390.81 974.5,-390.81 974.5,-397.81 974.5,-397.81 974.5,-401.31 971,-404.81 967.5,-404.81"/>
<text text-anchor="middle" x="945.5" y="-391.21" font-family="Times,serif" font-size="12.00">EOS225</text>
</g>
<!-- EOS225&#45;&gt;1 of [&#39;EOS225&#39;, &#39;EOS325&#39;] -->
<g id="edge31" class="edge">
<title>EOS225&#45;&gt;1 of [&#39;EOS225&#39;, &#39;EOS325&#39;]</title>
<path fill="none" stroke="black" d="M974.7,-394.31C992.18,-394.31 1013.97,-394.31 1028.4,-394.31"/>
<polygon fill="black" stroke="black" points="1028.73,-396.06 1033.73,-394.31 1028.73,-392.56 1028.73,-396.06"/>
</g>
<!-- 1 of [&#39;EOS110&#39;, &#39;EOS130&#39;, &#39;GEOG130&#39;, &#39;GEOG103&#39;]&#45;&gt;EOS261 -->
<g id="edge33" class="edge">
<title>1 of [&#39;EOS110&#39;, &#39;EOS130&#39;, &#39;GEOG130&#39;, &#39;GEOG103&#39;]&#45;&gt;EOS261</title>
<path fill="none" stroke="black" d="M688.75,-184.3C702.45,-185.63 727.38,-188.05 747.95,-190.05"/>
<polygon fill="black" stroke="black" points="747.93,-191.81 753.07,-190.55 748.27,-188.32 747.93,-191.81"/>
</g>
<!-- 1 of [&#39;PHYS111&#39;, &#39;PHYS130&#39;, &#39;PHYS102B&#39;]&#45;&gt;EOS261 -->
<g id="edge40" class="edge">
<title>1 of [&#39;PHYS111&#39;, &#39;PHYS130&#39;, &#39;PHYS102B&#39;]&#45;&gt;EOS261</title>
<path fill="none" stroke="black" d="M685.91,-288.9C702.91,-271.9 744.99,-229.82 767.22,-207.59"/>
<polygon fill="black" stroke="black" points="768.57,-208.71 770.87,-203.94 766.1,-206.24 768.57,-208.71"/>
</g>
<!-- 1 of [&#39;EOS325&#39;, &#39;MATH204&#39;]&#45;&gt;EOS340 -->
<g id="edge45" class="edge">
<title>1 of [&#39;EOS325&#39;, &#39;MATH204&#39;]&#45;&gt;EOS340</title>
<path fill="none" stroke="black" d="M1056.2,-355.31C1067.81,-355.31 1087.4,-355.31 1104.5,-355.31"/>
<polygon fill="black" stroke="black" points="1104.71,-357.06 1109.71,-355.31 1104.71,-353.56 1104.71,-357.06"/>
</g>
<!-- 1 of [&#39;PHYS102B&#39;, &#39;PHYS111&#39;, &#39;PHYS130&#39;]&#45;&gt;EOS340 -->
<g id="edge49" class="edge">
<title>1 of [&#39;PHYS102B&#39;, &#39;PHYS111&#39;, &#39;PHYS130&#39;]&#45;&gt;EOS340</title>
<path fill="none" stroke="black" d="M688.45,-322.56C695.6,-320.2 705.16,-316.24 712,-310.31 734.64,-290.68 722.72,-269.39 748,-253.31 796.01,-222.78 819.69,-250.61 875,-237.31 891.54,-233.33 894.24,-227.24 911,-224.31 941.21,-219.02 949.5,-221.1 980,-224.31 1022.48,-228.78 1039.45,-219.19 1074,-244.31 1107.26,-268.49 1125.86,-315.63 1133.62,-339.96"/>
<polygon fill="black" stroke="black" points="1131.97,-340.53 1135.12,-344.79 1135.31,-339.49 1131.97,-340.53"/>
</g>
<!-- 1 of [&#39;PHYS102B&#39;, &#39;PHYS111&#39;, &#39;PHYS130&#39;]&#45;&gt;EOS325 -->
<g id="edge82" class="edge">
<title>1 of [&#39;PHYS102B&#39;, &#39;PHYS111&#39;, &#39;PHYS130&#39;]&#45;&gt;EOS325</title>
<path fill="none" stroke="black" d="M688.39,-328.13C695.52,-330.52 705.06,-334.5 712,-340.31 733.82,-358.6 722.84,-379.98 748,-393.31 775.66,-407.96 863.09,-388.19 911.48,-375.5"/>
<polygon fill="black" stroke="black" points="911.94,-377.19 916.33,-374.22 911.05,-373.81 911.94,-377.19"/>
</g>
<!-- 1 of [&#39;EOS325&#39;, &#39;MATH248&#39;, &#39;PHYS248&#39;]&#45;&gt;EOS460 -->
<g id="edge53" class="edge">
<title>1 of [&#39;EOS325&#39;, &#39;MATH248&#39;, &#39;PHYS248&#39;]&#45;&gt;EOS460</title>
<path fill="none" stroke="black" d="M1055.5,-296.97C1068.28,-291.14 1091.56,-280.51 1110.13,-272.03"/>
<polygon fill="black" stroke="black" points="1110.92,-273.59 1114.75,-269.92 1109.47,-270.41 1110.92,-273.59"/>
</g>
<!-- MATH248 -->
<g id="node48" class="node">
<title>MATH248</title>
<path fill="#f5edc9" stroke="#030a10" d="M973,-332.81C973,-332.81 918,-332.81 918,-332.81 914.5,-332.81 911,-329.31 911,-325.81 911,-325.81 911,-318.81 911,-318.81 911,-315.31 914.5,-311.81 918,-311.81 918,-311.81 973,-311.81 973,-311.81 976.5,-311.81 980,-315.31 980,-318.81 980,-318.81 980,-325.81 980,-325.81 980,-329.31 976.5,-332.81 973,-332.81"/>
<text text-anchor="middle" x="945.5" y="-319.21" font-family="Times,serif" font-size="12.00">MATH248</text>
</g>
<!-- MATH248&#45;&gt;1 of [&#39;EOS325&#39;, &#39;MATH248&#39;, &#39;PHYS248&#39;] -->
<g id="edge55" class="edge">
<title>MATH248&#45;&gt;1 of [&#39;EOS325&#39;, &#39;MATH248&#39;, &#39;PHYS248&#39;]</title>
<path fill="none" stroke="black" d="M980.05,-315.08C996.63,-311.51 1015.82,-307.38 1028.82,-304.58"/>
<polygon fill="black" stroke="black" points="1029.46,-306.23 1033.98,-303.47 1028.73,-302.81 1029.46,-306.23"/>
</g>
<!-- PHYS248 -->
<g id="node49" class="node">
<title>PHYS248</title>
<path fill="#f5edc9" stroke="#030a10" d="M971.5,-304.81C971.5,-304.81 919.5,-304.81 919.5,-304.81 916,-304.81 912.5,-301.31 912.5,-297.81 912.5,-297.81 912.5,-290.81 912.5,-290.81 912.5,-287.31 916,-283.81 919.5,-283.81 919.5,-283.81 971.5,-283.81 971.5,-283.81 975,-283.81 978.5,-287.31 978.5,-290.81 978.5,-290.81 978.5,-297.81 978.5,-297.81 978.5,-301.31 975,-304.81 971.5,-304.81"/>
<text text-anchor="middle" x="945.5" y="-291.21" font-family="Times,serif" font-size="12.00">PHYS248</text>
</g>
<!-- PHYS248&#45;&gt;1 of [&#39;EOS325&#39;, &#39;MATH248&#39;, &#39;PHYS248&#39;] -->
<g id="edge56" class="edge">
<title>PHYS248&#45;&gt;1 of [&#39;EOS325&#39;, &#39;MATH248&#39;, &#39;PHYS248&#39;]</title>
<path fill="none" stroke="black" d="M978.7,-296.62C995.39,-297.82 1015.03,-299.23 1028.38,-300.19"/>
<polygon fill="black" stroke="black" points="1028.57,-301.96 1033.68,-300.57 1028.82,-298.46 1028.57,-301.96"/>
</g>
<!-- 1 of [&#39;EOS335&#39;, &#39;EOS430&#39;] -->
<g id="node50" class="node">
<title>1 of [&#39;EOS335&#39;, &#39;EOS430&#39;]</title>
<ellipse fill="#e9dbd0" stroke="#030a10" cx="1045" cy="-259.31" rx="11" ry="11"/>
<text text-anchor="middle" x="1045" y="-256.21" font-family="Times,serif" font-size="12.00">1</text>
</g>
<!-- 1 of [&#39;EOS335&#39;, &#39;EOS430&#39;]&#45;&gt;EOS460 -->
<g id="edge58" class="edge">
<title>1 of [&#39;EOS335&#39;, &#39;EOS430&#39;]&#45;&gt;EOS460</title>
<path fill="none" stroke="black" d="M1056.2,-259.31C1067.81,-259.31 1087.4,-259.31 1104.5,-259.31"/>
<polygon fill="black" stroke="black" points="1104.71,-261.06 1109.71,-259.31 1104.71,-257.56 1104.71,-261.06"/>
</g>
<!-- EOS335 -->
<g id="node51" class="node">
<title>EOS335</title>
<path fill="#f5edc9" stroke="#030a10" d="M967.5,-276.81C967.5,-276.81 923.5,-276.81 923.5,-276.81 920,-276.81 916.5,-273.31 916.5,-269.81 916.5,-269.81 916.5,-262.81 916.5,-262.81 916.5,-259.31 920,-255.81 923.5,-255.81 923.5,-255.81 967.5,-255.81 967.5,-255.81 971,-255.81 974.5,-259.31 974.5,-262.81 974.5,-262.81 974.5,-269.81 974.5,-269.81 974.5,-273.31 971,-276.81 967.5,-276.81"/>
<text text-anchor="middle" x="945.5" y="-263.21" font-family="Times,serif" font-size="12.00">EOS335</text>
</g>
<!-- EOS335&#45;&gt;1 of [&#39;EOS335&#39;, &#39;EOS430&#39;] -->
<g id="edge59" class="edge">
<title>EOS335&#45;&gt;1 of [&#39;EOS335&#39;, &#39;EOS430&#39;]</title>
<path fill="none" stroke="black" d="M974.7,-264.28C992.18,-263.03 1013.97,-261.46 1028.4,-260.43"/>
<polygon fill="black" stroke="black" points="1028.87,-262.15 1033.73,-260.05 1028.61,-258.66 1028.87,-262.15"/>
</g>
<!-- EOS430 -->
<g id="node52" class="node">
<title>EOS430</title>
<path fill="#f5edc9" stroke="#030a10" d="M967.5,-248.81C967.5,-248.81 923.5,-248.81 923.5,-248.81 920,-248.81 916.5,-245.31 916.5,-241.81 916.5,-241.81 916.5,-234.81 916.5,-234.81 916.5,-231.31 920,-227.81 923.5,-227.81 923.5,-227.81 967.5,-227.81 967.5,-227.81 971,-227.81 974.5,-231.31 974.5,-234.81 974.5,-234.81 974.5,-241.81 974.5,-241.81 974.5,-245.31 971,-248.81 967.5,-248.81"/>
<text text-anchor="middle" x="945.5" y="-235.21" font-family="Times,serif" font-size="12.00">EOS430</text>
</g>
<!-- EOS430&#45;&gt;1 of [&#39;EOS335&#39;, &#39;EOS430&#39;] -->
<g id="edge60" class="edge">
<title>EOS430&#45;&gt;1 of [&#39;EOS335&#39;, &#39;EOS430&#39;]</title>
<path fill="none" stroke="black" d="M974.7,-244.38C992.53,-248.22 1014.85,-253.03 1029.27,-256.14"/>
<polygon fill="black" stroke="black" points="1028.94,-257.86 1034.2,-257.2 1029.68,-254.43 1028.94,-257.86"/>
</g>
<!-- 1 of [&#39;MATH200&#39;, &#39;MATH205&#39;]&#45;&gt;MATH204 -->
<g id="edge61" class="edge">
<title>1 of [&#39;MATH200&#39;, &#39;MATH205&#39;]&#45;&gt;MATH204</title>
<path fill="none" stroke="black" d="M686.65,-74.8C693.54,-80.35 703.6,-88.65 712,-96.31 731.99,-114.52 753.97,-136.74 767.75,-150.95"/>
<polygon fill="black" stroke="black" points="766.67,-152.36 771.41,-154.74 769.19,-149.93 766.67,-152.36"/>
</g>
<!-- CHEM091 -->
<g id="node54" class="node">
<title>CHEM091</title>
<path fill="#f5edc9" stroke="#030a10" d="M274,-64.81C274,-64.81 218,-64.81 218,-64.81 214.5,-64.81 211,-61.31 211,-57.81 211,-57.81 211,-50.81 211,-50.81 211,-47.31 214.5,-43.81 218,-43.81 218,-43.81 274,-43.81 274,-43.81 277.5,-43.81 281,-47.31 281,-50.81 281,-50.81 281,-57.81 281,-57.81 281,-61.31 277.5,-64.81 274,-64.81"/>
<text text-anchor="middle" x="246" y="-51.21" font-family="Times,serif" font-size="12.00">CHEM091</text>
</g>
<!-- CHEM091&#45;&gt;CHEM102 -->
<g id="edge65" class="edge">
<title>CHEM091&#45;&gt;CHEM102</title>
<path fill="none" stroke="black" d="M281.28,-49.48C291.73,-48.01 303.31,-46.38 314.07,-44.86"/>
<polygon fill="black" stroke="black" points="314.57,-46.56 319.28,-44.13 314.09,-43.09 314.57,-46.56"/>
</g>
<!-- 1 of [&#39;CHEM101&#39;, &#39;CHEM150&#39;] -->
<g id="node55" class="node">
<title>1 of [&#39;CHEM101&#39;, &#39;CHEM150&#39;]</title>
<ellipse fill="#e9dbd0" stroke="#030a10" cx="246" cy="-25.31" rx="11" ry="11"/>
<text text-anchor="middle" x="246" y="-22.21" font-family="Times,serif" font-size="12.00">1</text>
</g>
<!-- 1 of [&#39;CHEM101&#39;, &#39;CHEM150&#39;]&#45;&gt;CHEM102 -->
<g id="edge66" class="edge">
<title>1 of [&#39;CHEM101&#39;, &#39;CHEM150&#39;]&#45;&gt;CHEM102</title>
<path fill="none" stroke="black" d="M257.21,-26.65C270.27,-28.37 293.63,-31.44 314.07,-34.13"/>
<polygon fill="black" stroke="black" points="314.01,-35.88 319.2,-34.8 314.47,-32.41 314.01,-35.88"/>
</g>
<!-- CHEM101 -->
<g id="node56" class="node">
<title>CHEM101</title>
<path fill="#f5edc9" stroke="#030a10" d="M168,-49.81C168,-49.81 112,-49.81 112,-49.81 108.5,-49.81 105,-46.31 105,-42.81 105,-42.81 105,-35.81 105,-35.81 105,-32.31 108.5,-28.81 112,-28.81 112,-28.81 168,-28.81 168,-28.81 171.5,-28.81 175,-32.31 175,-35.81 175,-35.81 175,-42.81 175,-42.81 175,-46.31 171.5,-49.81 168,-49.81"/>
<text text-anchor="middle" x="140" y="-36.21" font-family="Times,serif" font-size="12.00">CHEM101</text>
</g>
<!-- CHEM101&#45;&gt;1 of [&#39;CHEM101&#39;, &#39;CHEM150&#39;] -->
<g id="edge67" class="edge">
<title>CHEM101&#45;&gt;1 of [&#39;CHEM101&#39;, &#39;CHEM150&#39;]</title>
<path fill="none" stroke="black" d="M175.05,-34.72C193.46,-32.25 215.29,-29.31 229.61,-27.38"/>
<polygon fill="black" stroke="black" points="230.16,-29.07 234.89,-26.67 229.7,-25.6 230.16,-29.07"/>
</g>
<!-- CHEM150 -->
<g id="node57" class="node">
<title>CHEM150</title>
<path fill="#f5edc9" stroke="#030a10" d="M168,-21.81C168,-21.81 112,-21.81 112,-21.81 108.5,-21.81 105,-18.31 105,-14.81 105,-14.81 105,-7.81 105,-7.81 105,-4.31 108.5,-0.81 112,-0.81 112,-0.81 168,-0.81 168,-0.81 171.5,-0.81 175,-4.31 175,-7.81 175,-7.81 175,-14.81 175,-14.81 175,-18.31 171.5,-21.81 168,-21.81"/>
<text text-anchor="middle" x="140" y="-8.21" font-family="Times,serif" font-size="12.00">CHEM150</text>
</g>
<!-- CHEM150&#45;&gt;1 of [&#39;CHEM101&#39;, &#39;CHEM150&#39;] -->
<g id="edge68" class="edge">
<title>CHEM150&#45;&gt;1 of [&#39;CHEM101&#39;, &#39;CHEM150&#39;]</title>
<path fill="none" stroke="black" d="M175.05,-15.89C193.46,-18.37 215.29,-21.31 229.61,-23.24"/>
<polygon fill="black" stroke="black" points="229.7,-25.01 234.89,-23.95 230.16,-21.55 229.7,-25.01"/>
</g>
<!-- 1 of [&#39;MATH202&#39;, &#39;MATH204&#39;]&#45;&gt;EOS325 -->
<g id="edge71" class="edge">
<title>1 of [&#39;MATH202&#39;, &#39;MATH204&#39;]&#45;&gt;EOS325</title>
<path fill="none" stroke="black" d="M866.25,-234.11C869.51,-257.73 880.25,-314.64 911,-349.31 911.95,-350.38 912.98,-351.38 914.07,-352.34"/>
<polygon fill="black" stroke="black" points="913.5,-354.1 918.54,-355.74 915.62,-351.32 913.5,-354.1"/>
</g>
<!-- 1 of [&#39;CSC110&#39;, &#39;CSC111&#39;, &#39;EOS210&#39;, &#39;EOS230&#39;, &#39;GEOG230&#39;, &#39;EOS261&#39;, &#39;EOS314&#39;]&#45;&gt;EOS325 -->
<g id="edge74" class="edge">
<title>1 of [&#39;CSC110&#39;, &#39;CSC111&#39;, &#39;EOS210&#39;, &#39;EOS230&#39;, &#39;GEOG230&#39;, &#39;EOS261&#39;, &#39;EOS314&#39;]&#45;&gt;EOS325</title>
<path fill="none" stroke="black" d="M872.34,-316.72C881.05,-325.25 896.25,-339.38 911,-349.31 912.99,-350.65 915.1,-351.96 917.26,-353.21"/>
<polygon fill="black" stroke="black" points="916.5,-354.79 921.72,-355.71 918.21,-351.74 916.5,-354.79"/>
</g>
</g>
</svg>
