<?xml version="1.0" encoding="UTF-8" standalone="no"?>
<!DOCTYPE svg PUBLIC "-//W3C//DTD SVG 1.1//EN"
 "http://www.w3.org/Graphics/SVG/1.1/DTD/svg11.dtd">
<!-- Generated by graphviz version 2.43.0 (0)
 -->
<!-- Title: unix Pages: 1 -->
<svg width="771pt" height="231pt"
 viewBox="0.00 0.00 771.00 231.00" xmlns="http://www.w3.org/2000/svg" xmlns:xlink="http://www.w3.org/1999/xlink">
<g id="graph0" class="graph" transform="scale(1 1) rotate(0) translate(4 227)">
<title>unix</title>
<polygon fill="white" stroke="transparent" points="-4,4 -4,-227 767,-227 767,4 -4,4"/>
<text text-anchor="middle" x="381.5" y="-207.8" font-family="Times,serif" font-size="14.00">EOS335: Isotopes in Natural Sciences</text>
<!-- EOS460 -->
<g id="node1" class="node">
<title>EOS460</title>
<path fill="#e7a79b" stroke="#030a10" d="M756,-140C756,-140 712,-140 712,-140 708.5,-140 705,-136.5 705,-133 705,-133 705,-126 705,-126 705,-122.5 708.5,-119 712,-119 712,-119 756,-119 756,-119 759.5,-119 763,-122.5 763,-126 763,-126 763,-133 763,-133 763,-136.5 759.5,-140 756,-140"/>
<text text-anchor="middle" x="734" y="-126.4" font-family="Times,serif" font-size="12.00">EOS460</text>
</g>
<!-- EOS120 -->
<g id="node2" class="node">
<title>EOS120</title>
<path fill="#f5edc9" stroke="#030a10" d="M269,-109C269,-109 225,-109 225,-109 221.5,-109 218,-105.5 218,-102 218,-102 218,-95 218,-95 218,-91.5 221.5,-88 225,-88 225,-88 269,-88 269,-88 272.5,-88 276,-91.5 276,-95 276,-95 276,-102 276,-102 276,-105.5 272.5,-109 269,-109"/>
<text text-anchor="middle" x="247" y="-95.4" font-family="Times,serif" font-size="12.00">EOS120</text>
</g>
<!-- EOS205 -->
<g id="node3" class="node">
<title>EOS205</title>
<path fill="#f5edc9" stroke="#030a10" d="M369,-91C369,-91 325,-91 325,-91 321.5,-91 318,-87.5 318,-84 318,-84 318,-77 318,-77 318,-73.5 321.5,-70 325,-70 325,-70 369,-70 369,-70 372.5,-70 376,-73.5 376,-77 376,-77 376,-84 376,-84 376,-87.5 372.5,-91 369,-91"/>
<text text-anchor="middle" x="347" y="-77.4" font-family="Times,serif" font-size="12.00">EOS205</text>
</g>
<!-- EOS120&#45;&gt;EOS205 -->
<g id="edge9" class="edge">
<title>EOS120&#45;&gt;EOS205</title>
<path fill="none" stroke="black" d="M276.08,-93.34C287.56,-91.23 300.93,-88.78 312.89,-86.58"/>
<polygon fill="black" stroke="black" points="313.31,-88.28 317.91,-85.66 312.68,-84.84 313.31,-88.28"/>
</g>
<!-- EOS240 -->
<g id="node8" class="node">
<title>EOS240</title>
<path fill="#e7a79b" stroke="#030a10" d="M463,-91C463,-91 419,-91 419,-91 415.5,-91 412,-87.5 412,-84 412,-84 412,-77 412,-77 412,-73.5 415.5,-70 419,-70 419,-70 463,-70 463,-70 466.5,-70 470,-73.5 470,-77 470,-77 470,-84 470,-84 470,-87.5 466.5,-91 463,-91"/>
<text text-anchor="middle" x="441" y="-77.4" font-family="Times,serif" font-size="12.00">EOS240</text>
</g>
<!-- EOS120&#45;&gt;EOS240 -->
<g id="edge23" class="edge">
<title>EOS120&#45;&gt;EOS240</title>
<path fill="none" stroke="black" d="M276.08,-99.1C302.09,-99.31 341.8,-98.74 376,-94.5 386.09,-93.25 396.94,-91.16 406.79,-88.98"/>
<polygon fill="black" stroke="black" points="407.35,-90.65 411.84,-87.83 406.57,-87.23 407.35,-90.65"/>
</g>
<!-- EOS205&#45;&gt;EOS240 -->
<g id="edge24" class="edge">
<title>EOS205&#45;&gt;EOS240</title>
<path fill="none" stroke="black" d="M376.1,-80.5C385.73,-80.5 396.6,-80.5 406.61,-80.5"/>
<polygon fill="black" stroke="black" points="406.75,-82.25 411.75,-80.5 406.75,-78.75 406.75,-82.25"/>
</g>
<!-- EOS335 -->
<g id="node4" class="node">
<title>EOS335</title>
<path fill="#9fa7be" stroke="#030a10" d="M562.5,-116C562.5,-116 518.5,-116 518.5,-116 515,-116 511.5,-112.5 511.5,-109 511.5,-109 511.5,-102 511.5,-102 511.5,-98.5 515,-95 518.5,-95 518.5,-95 562.5,-95 562.5,-95 566,-95 569.5,-98.5 569.5,-102 569.5,-102 569.5,-109 569.5,-109 569.5,-112.5 566,-116 562.5,-116"/>
<text text-anchor="middle" x="540.5" y="-102.4" font-family="Times,serif" font-size="12.00">EOS335</text>
</g>
<!-- 1 of [&#39;EOS335&#39;, &#39;EOS430&#39;] -->
<g id="node14" class="node">
<title>1 of [&#39;EOS335&#39;, &#39;EOS430&#39;]</title>
<ellipse fill="#e9dbd0" stroke="#030a10" cx="640" cy="-98.5" rx="11" ry="11"/>
<text text-anchor="middle" x="640" y="-95.4" font-family="Times,serif" font-size="12.00">1</text>
</g>
<!-- EOS335&#45;&gt;1 of [&#39;EOS335&#39;, &#39;EOS430&#39;] -->
<g id="edge7" class="edge">
<title>EOS335&#45;&gt;1 of [&#39;EOS335&#39;, &#39;EOS430&#39;]</title>
<path fill="none" stroke="black" d="M569.7,-103.48C587.18,-102.22 608.97,-100.66 623.4,-99.62"/>
<polygon fill="black" stroke="black" points="623.87,-101.34 628.73,-99.24 623.61,-97.85 623.87,-101.34"/>
</g>
<!-- EOS403 -->
<g id="node5" class="node">
<title>EOS403</title>
<path fill="#e7a79b" stroke="#030a10" d="M756,-76C756,-76 712,-76 712,-76 708.5,-76 705,-72.5 705,-69 705,-69 705,-62 705,-62 705,-58.5 708.5,-55 712,-55 712,-55 756,-55 756,-55 759.5,-55 763,-58.5 763,-62 763,-62 763,-69 763,-69 763,-72.5 759.5,-76 756,-76"/>
<text text-anchor="middle" x="734" y="-62.4" font-family="Times,serif" font-size="12.00">EOS403</text>
</g>
<!-- EOS425 -->
<g id="node6" class="node">
<title>EOS425</title>
<path fill="#e7a79b" stroke="#030a10" d="M756,-109C756,-109 712,-109 712,-109 708.5,-109 705,-105.5 705,-102 705,-102 705,-95 705,-95 705,-91.5 708.5,-88 712,-88 712,-88 756,-88 756,-88 759.5,-88 763,-91.5 763,-95 763,-95 763,-102 763,-102 763,-105.5 759.5,-109 756,-109"/>
<text text-anchor="middle" x="734" y="-95.4" font-family="Times,serif" font-size="12.00">EOS425</text>
</g>
<!-- CHEM102 -->
<g id="node7" class="node">
<title>CHEM102</title>
<path fill="#f5edc9" stroke="#030a10" d="M275,-77C275,-77 219,-77 219,-77 215.5,-77 212,-73.5 212,-70 212,-70 212,-63 212,-63 212,-59.5 215.5,-56 219,-56 219,-56 275,-56 275,-56 278.5,-56 282,-59.5 282,-63 282,-63 282,-70 282,-70 282,-73.5 278.5,-77 275,-77"/>
<text text-anchor="middle" x="247" y="-63.4" font-family="Times,serif" font-size="12.00">CHEM102</text>
</g>
<!-- CHEM102&#45;&gt;EOS205 -->
<g id="edge10" class="edge">
<title>CHEM102&#45;&gt;EOS205</title>
<path fill="none" stroke="black" d="M282,-71.36C291.98,-72.78 302.88,-74.34 312.81,-75.76"/>
<polygon fill="black" stroke="black" points="312.71,-77.51 317.9,-76.49 313.2,-74.05 312.71,-77.51"/>
</g>
<!-- CHEM102&#45;&gt;EOS240 -->
<g id="edge25" class="edge">
<title>CHEM102&#45;&gt;EOS240</title>
<path fill="none" stroke="black" d="M282.06,-64.51C307.92,-63.49 344.3,-63.07 376,-66.5 386.11,-67.59 396.97,-69.63 406.81,-71.82"/>
<polygon fill="black" stroke="black" points="406.6,-73.56 411.86,-72.97 407.38,-70.15 406.6,-73.56"/>
</g>
<!-- EOS240&#45;&gt;EOS335 -->
<g id="edge11" class="edge">
<title>EOS240&#45;&gt;EOS335</title>
<path fill="none" stroke="black" d="M470.2,-87.73C481.52,-90.63 494.65,-94 506.41,-97.02"/>
<polygon fill="black" stroke="black" points="506.08,-98.74 511.36,-98.29 506.95,-95.35 506.08,-98.74"/>
</g>
<!-- EOS240&#45;&gt;EOS403 -->
<g id="edge12" class="edge">
<title>EOS240&#45;&gt;EOS403</title>
<path fill="none" stroke="black" d="M470.04,-71.36C481.11,-68.2 494.03,-65.06 506,-63.5 574.35,-54.58 655.25,-58.78 699.66,-62.34"/>
<polygon fill="black" stroke="black" points="699.77,-64.1 704.89,-62.77 700.05,-60.61 699.77,-64.1"/>
</g>
<!-- 1 of [&#39;EOS325&#39;, &#39;MATH248&#39;, &#39;PHYS248&#39;] -->
<g id="node9" class="node">
<title>1 of [&#39;EOS325&#39;, &#39;MATH248&#39;, &#39;PHYS248&#39;]</title>
<ellipse fill="#e9dbd0" stroke="#030a10" cx="640" cy="-159.5" rx="11" ry="11"/>
<text text-anchor="middle" x="640" y="-156.4" font-family="Times,serif" font-size="12.00">1</text>
</g>
<!-- 1 of [&#39;EOS325&#39;, &#39;MATH248&#39;, &#39;PHYS248&#39;]&#45;&gt;EOS460 -->
<g id="edge1" class="edge">
<title>1 of [&#39;EOS325&#39;, &#39;MATH248&#39;, &#39;PHYS248&#39;]&#45;&gt;EOS460</title>
<path fill="none" stroke="black" d="M650.85,-156.29C662.54,-152.48 682.66,-145.92 700.06,-140.24"/>
<polygon fill="black" stroke="black" points="700.67,-141.88 704.88,-138.67 699.59,-138.56 700.67,-141.88"/>
</g>
<!-- EOS325 -->
<g id="node10" class="node">
<title>EOS325</title>
<path fill="#f5edc9" stroke="#030a10" d="M562.5,-200C562.5,-200 518.5,-200 518.5,-200 515,-200 511.5,-196.5 511.5,-193 511.5,-193 511.5,-186 511.5,-186 511.5,-182.5 515,-179 518.5,-179 518.5,-179 562.5,-179 562.5,-179 566,-179 569.5,-182.5 569.5,-186 569.5,-186 569.5,-193 569.5,-193 569.5,-196.5 566,-200 562.5,-200"/>
<text text-anchor="middle" x="540.5" y="-186.4" font-family="Times,serif" font-size="12.00">EOS325</text>
</g>
<!-- EOS325&#45;&gt;1 of [&#39;EOS325&#39;, &#39;MATH248&#39;, &#39;PHYS248&#39;] -->
<g id="edge2" class="edge">
<title>EOS325&#45;&gt;1 of [&#39;EOS325&#39;, &#39;MATH248&#39;, &#39;PHYS248&#39;]</title>
<path fill="none" stroke="black" d="M569.7,-180.82C587.53,-175.34 609.85,-168.47 624.27,-164.03"/>
<polygon fill="black" stroke="black" points="624.93,-165.66 629.2,-162.52 623.9,-162.31 624.93,-165.66"/>
</g>
<!-- MATH248 -->
<g id="node11" class="node">
<title>MATH248</title>
<path fill="#f5edc9" stroke="#030a10" d="M568,-172C568,-172 513,-172 513,-172 509.5,-172 506,-168.5 506,-165 506,-165 506,-158 506,-158 506,-154.5 509.5,-151 513,-151 513,-151 568,-151 568,-151 571.5,-151 575,-154.5 575,-158 575,-158 575,-165 575,-165 575,-168.5 571.5,-172 568,-172"/>
<text text-anchor="middle" x="540.5" y="-158.4" font-family="Times,serif" font-size="12.00">MATH248</text>
</g>
<!-- MATH248&#45;&gt;1 of [&#39;EOS325&#39;, &#39;MATH248&#39;, &#39;PHYS248&#39;] -->
<g id="edge3" class="edge">
<title>MATH248&#45;&gt;1 of [&#39;EOS325&#39;, &#39;MATH248&#39;, &#39;PHYS248&#39;]</title>
<path fill="none" stroke="black" d="M575.05,-160.81C591.63,-160.47 610.82,-160.08 623.82,-159.81"/>
<polygon fill="black" stroke="black" points="624.02,-161.56 628.98,-159.71 623.95,-158.06 624.02,-161.56"/>
</g>
<!-- PHYS248 -->
<g id="node12" class="node">
<title>PHYS248</title>
<path fill="#f5edc9" stroke="#030a10" d="M566.5,-144C566.5,-144 514.5,-144 514.5,-144 511,-144 507.5,-140.5 507.5,-137 507.5,-137 507.5,-130 507.5,-130 507.5,-126.5 511,-123 514.5,-123 514.5,-123 566.5,-123 566.5,-123 570,-123 573.5,-126.5 573.5,-130 573.5,-130 573.5,-137 573.5,-137 573.5,-140.5 570,-144 566.5,-144"/>
<text text-anchor="middle" x="540.5" y="-130.4" font-family="Times,serif" font-size="12.00">PHYS248</text>
</g>
<!-- PHYS248&#45;&gt;1 of [&#39;EOS325&#39;, &#39;MATH248&#39;, &#39;PHYS248&#39;] -->
<g id="edge4" class="edge">
<title>PHYS248&#45;&gt;1 of [&#39;EOS325&#39;, &#39;MATH248&#39;, &#39;PHYS248&#39;]</title>
<path fill="none" stroke="black" d="M573.7,-142.09C590.74,-146.63 610.84,-151.99 624.19,-155.55"/>
<polygon fill="black" stroke="black" points="623.85,-157.27 629.13,-156.87 624.75,-153.89 623.85,-157.27"/>
</g>
<!-- EOS261 -->
<g id="node13" class="node">
<title>EOS261</title>
<path fill="#f5edc9" stroke="#030a10" d="M662,-140C662,-140 618,-140 618,-140 614.5,-140 611,-136.5 611,-133 611,-133 611,-126 611,-126 611,-122.5 614.5,-119 618,-119 618,-119 662,-119 662,-119 665.5,-119 669,-122.5 669,-126 669,-126 669,-133 669,-133 669,-136.5 665.5,-140 662,-140"/>
<text text-anchor="middle" x="640" y="-126.4" font-family="Times,serif" font-size="12.00">EOS261</text>
</g>
<!-- EOS261&#45;&gt;EOS460 -->
<g id="edge5" class="edge">
<title>EOS261&#45;&gt;EOS460</title>
<path fill="none" stroke="black" d="M669.1,-129.5C678.73,-129.5 689.6,-129.5 699.61,-129.5"/>
<polygon fill="black" stroke="black" points="699.75,-131.25 704.75,-129.5 699.75,-127.75 699.75,-131.25"/>
</g>
<!-- 1 of [&#39;EOS335&#39;, &#39;EOS430&#39;]&#45;&gt;EOS460 -->
<g id="edge6" class="edge">
<title>1 of [&#39;EOS335&#39;, &#39;EOS430&#39;]&#45;&gt;EOS460</title>
<path fill="none" stroke="black" d="M650.85,-101.82C662.54,-105.76 682.66,-112.54 700.06,-118.4"/>
<polygon fill="black" stroke="black" points="699.58,-120.09 704.88,-120.03 700.7,-116.77 699.58,-120.09"/>
</g>
<!-- 1 of [&#39;EOS335&#39;, &#39;EOS430&#39;]&#45;&gt;EOS403 -->
<g id="edge13" class="edge">
<title>1 of [&#39;EOS335&#39;, &#39;EOS430&#39;]&#45;&gt;EOS403</title>
<path fill="none" stroke="black" d="M650.5,-95.09C662.08,-90.94 682.28,-83.69 699.79,-77.41"/>
<polygon fill="black" stroke="black" points="700.53,-79 704.65,-75.67 699.35,-75.71 700.53,-79"/>
</g>
<!-- 1 of [&#39;EOS335&#39;, &#39;EOS430&#39;]&#45;&gt;EOS425 -->
<g id="edge14" class="edge">
<title>1 of [&#39;EOS335&#39;, &#39;EOS430&#39;]&#45;&gt;EOS425</title>
<path fill="none" stroke="black" d="M651.2,-98.5C662.81,-98.5 682.4,-98.5 699.5,-98.5"/>
<polygon fill="black" stroke="black" points="699.71,-100.25 704.71,-98.5 699.71,-96.75 699.71,-100.25"/>
</g>
<!-- EOS430 -->
<g id="node15" class="node">
<title>EOS430</title>
<path fill="#f5edc9" stroke="#030a10" d="M562.5,-88C562.5,-88 518.5,-88 518.5,-88 515,-88 511.5,-84.5 511.5,-81 511.5,-81 511.5,-74 511.5,-74 511.5,-70.5 515,-67 518.5,-67 518.5,-67 562.5,-67 562.5,-67 566,-67 569.5,-70.5 569.5,-74 569.5,-74 569.5,-81 569.5,-81 569.5,-84.5 566,-88 562.5,-88"/>
<text text-anchor="middle" x="540.5" y="-74.4" font-family="Times,serif" font-size="12.00">EOS430</text>
</g>
<!-- EOS430&#45;&gt;1 of [&#39;EOS335&#39;, &#39;EOS430&#39;] -->
<g id="edge8" class="edge">
<title>EOS430&#45;&gt;1 of [&#39;EOS335&#39;, &#39;EOS430&#39;]</title>
<path fill="none" stroke="black" d="M569.7,-83.57C587.53,-87.41 609.85,-92.22 624.27,-95.33"/>
<polygon fill="black" stroke="black" points="623.94,-97.05 629.2,-96.39 624.68,-93.62 623.94,-97.05"/>
</g>
<!-- 1 of [&#39;MATH100&#39;, &#39;MATH102&#39;, &#39;MATH109&#39;] -->
<g id="node16" class="node">
<title>1 of [&#39;MATH100&#39;, &#39;MATH102&#39;, &#39;MATH109&#39;]</title>
<ellipse fill="#e9dbd0" stroke="#030a10" cx="141" cy="-95.5" rx="11" ry="11"/>
<text text-anchor="middle" x="141" y="-92.4" font-family="Times,serif" font-size="12.00">1</text>
</g>
<!-- 1 of [&#39;MATH100&#39;, &#39;MATH102&#39;, &#39;MATH109&#39;]&#45;&gt;CHEM102 -->
<g id="edge15" class="edge">
<title>1 of [&#39;MATH100&#39;, &#39;MATH102&#39;, &#39;MATH109&#39;]&#45;&gt;CHEM102</title>
<path fill="none" stroke="black" d="M151.97,-92.72C164.53,-89.22 186.87,-82.99 206.61,-77.48"/>
<polygon fill="black" stroke="black" points="207.23,-79.13 211.57,-76.1 206.29,-75.76 207.23,-79.13"/>
</g>
<!-- MATH100 -->
<g id="node17" class="node">
<title>MATH100</title>
<path fill="#f5edc9" stroke="#030a10" d="M62.5,-134C62.5,-134 7.5,-134 7.5,-134 4,-134 0.5,-130.5 0.5,-127 0.5,-127 0.5,-120 0.5,-120 0.5,-116.5 4,-113 7.5,-113 7.5,-113 62.5,-113 62.5,-113 66,-113 69.5,-116.5 69.5,-120 69.5,-120 69.5,-127 69.5,-127 69.5,-130.5 66,-134 62.5,-134"/>
<text text-anchor="middle" x="35" y="-120.4" font-family="Times,serif" font-size="12.00">MATH100</text>
</g>
<!-- MATH100&#45;&gt;1 of [&#39;MATH100&#39;, &#39;MATH102&#39;, &#39;MATH109&#39;] -->
<g id="edge16" class="edge">
<title>MATH100&#45;&gt;1 of [&#39;MATH100&#39;, &#39;MATH102&#39;, &#39;MATH109&#39;]</title>
<path fill="none" stroke="black" d="M69.77,-114.41C88.57,-109.35 111.02,-103.3 125.39,-99.43"/>
<polygon fill="black" stroke="black" points="125.92,-101.1 130.29,-98.11 125.01,-97.72 125.92,-101.1"/>
</g>
<!-- MATH102 -->
<g id="node18" class="node">
<title>MATH102</title>
<path fill="#f5edc9" stroke="#030a10" d="M62.5,-106C62.5,-106 7.5,-106 7.5,-106 4,-106 0.5,-102.5 0.5,-99 0.5,-99 0.5,-92 0.5,-92 0.5,-88.5 4,-85 7.5,-85 7.5,-85 62.5,-85 62.5,-85 66,-85 69.5,-88.5 69.5,-92 69.5,-92 69.5,-99 69.5,-99 69.5,-102.5 66,-106 62.5,-106"/>
<text text-anchor="middle" x="35" y="-92.4" font-family="Times,serif" font-size="12.00">MATH102</text>
</g>
<!-- MATH102&#45;&gt;1 of [&#39;MATH100&#39;, &#39;MATH102&#39;, &#39;MATH109&#39;] -->
<g id="edge17" class="edge">
<title>MATH102&#45;&gt;1 of [&#39;MATH100&#39;, &#39;MATH102&#39;, &#39;MATH109&#39;]</title>
<path fill="none" stroke="black" d="M69.77,-95.5C88.2,-95.5 110.13,-95.5 124.52,-95.5"/>
<polygon fill="black" stroke="black" points="124.83,-97.25 129.83,-95.5 124.83,-93.75 124.83,-97.25"/>
</g>
<!-- MATH109 -->
<g id="node19" class="node">
<title>MATH109</title>
<path fill="#f5edc9" stroke="#030a10" d="M62.5,-78C62.5,-78 7.5,-78 7.5,-78 4,-78 0.5,-74.5 0.5,-71 0.5,-71 0.5,-64 0.5,-64 0.5,-60.5 4,-57 7.5,-57 7.5,-57 62.5,-57 62.5,-57 66,-57 69.5,-60.5 69.5,-64 69.5,-64 69.5,-71 69.5,-71 69.5,-74.5 66,-78 62.5,-78"/>
<text text-anchor="middle" x="35" y="-64.4" font-family="Times,serif" font-size="12.00">MATH109</text>
</g>
<!-- MATH109&#45;&gt;1 of [&#39;MATH100&#39;, &#39;MATH102&#39;, &#39;MATH109&#39;] -->
<g id="edge18" class="edge">
<title>MATH109&#45;&gt;1 of [&#39;MATH100&#39;, &#39;MATH102&#39;, &#39;MATH109&#39;]</title>
<path fill="none" stroke="black" d="M69.77,-76.59C88.57,-81.65 111.02,-87.7 125.39,-91.57"/>
<polygon fill="black" stroke="black" points="125.01,-93.28 130.29,-92.89 125.92,-89.9 125.01,-93.28"/>
</g>
<!-- CHEM091 -->
<g id="node20" class="node">
<title>CHEM091</title>
<path fill="#f5edc9" stroke="#030a10" d="M169,-77C169,-77 113,-77 113,-77 109.5,-77 106,-73.5 106,-70 106,-70 106,-63 106,-63 106,-59.5 109.5,-56 113,-56 113,-56 169,-56 169,-56 172.5,-56 176,-59.5 176,-63 176,-63 176,-70 176,-70 176,-73.5 172.5,-77 169,-77"/>
<text text-anchor="middle" x="141" y="-63.4" font-family="Times,serif" font-size="12.00">CHEM091</text>
</g>
<!-- CHEM091&#45;&gt;CHEM102 -->
<g id="edge19" class="edge">
<title>CHEM091&#45;&gt;CHEM102</title>
<path fill="none" stroke="black" d="M176.05,-66.5C185.84,-66.5 196.59,-66.5 206.67,-66.5"/>
<polygon fill="black" stroke="black" points="206.87,-68.25 211.87,-66.5 206.87,-64.75 206.87,-68.25"/>
</g>
<!-- 1 of [&#39;CHEM101&#39;, &#39;CHEM150&#39;] -->
<g id="node21" class="node">
<title>1 of [&#39;CHEM101&#39;, &#39;CHEM150&#39;]</title>
<ellipse fill="#e9dbd0" stroke="#030a10" cx="141" cy="-37.5" rx="11" ry="11"/>
<text text-anchor="middle" x="141" y="-34.4" font-family="Times,serif" font-size="12.00">1</text>
</g>
<!-- 1 of [&#39;CHEM101&#39;, &#39;CHEM150&#39;]&#45;&gt;CHEM102 -->
<g id="edge20" class="edge">
<title>1 of [&#39;CHEM101&#39;, &#39;CHEM150&#39;]&#45;&gt;CHEM102</title>
<path fill="none" stroke="black" d="M151.97,-40.28C164.53,-43.78 186.87,-50.01 206.61,-55.52"/>
<polygon fill="black" stroke="black" points="206.29,-57.24 211.57,-56.9 207.23,-53.87 206.29,-57.24"/>
</g>
<!-- CHEM101 -->
<g id="node22" class="node">
<title>CHEM101</title>
<path fill="#f5edc9" stroke="#030a10" d="M63,-49C63,-49 7,-49 7,-49 3.5,-49 0,-45.5 0,-42 0,-42 0,-35 0,-35 0,-31.5 3.5,-28 7,-28 7,-28 63,-28 63,-28 66.5,-28 70,-31.5 70,-35 70,-35 70,-42 70,-42 70,-45.5 66.5,-49 63,-49"/>
<text text-anchor="middle" x="35" y="-35.4" font-family="Times,serif" font-size="12.00">CHEM101</text>
</g>
<!-- CHEM101&#45;&gt;1 of [&#39;CHEM101&#39;, &#39;CHEM150&#39;] -->
<g id="edge21" class="edge">
<title>CHEM101&#45;&gt;1 of [&#39;CHEM101&#39;, &#39;CHEM150&#39;]</title>
<path fill="none" stroke="black" d="M70.05,-38.17C88.46,-38 110.29,-37.79 124.61,-37.65"/>
<polygon fill="black" stroke="black" points="124.9,-39.4 129.89,-37.6 124.87,-35.9 124.9,-39.4"/>
</g>
<!-- CHEM150 -->
<g id="node23" class="node">
<title>CHEM150</title>
<path fill="#f5edc9" stroke="#030a10" d="M63,-21C63,-21 7,-21 7,-21 3.5,-21 0,-17.5 0,-14 0,-14 0,-7 0,-7 0,-3.5 3.5,0 7,0 7,0 63,0 63,0 66.5,0 70,-3.5 70,-7 70,-7 70,-14 70,-14 70,-17.5 66.5,-21 63,-21"/>
<text text-anchor="middle" x="35" y="-7.4" font-family="Times,serif" font-size="12.00">CHEM150</text>
</g>
<!-- CHEM150&#45;&gt;1 of [&#39;CHEM101&#39;, &#39;CHEM150&#39;] -->
<g id="edge22" class="edge">
<title>CHEM150&#45;&gt;1 of [&#39;CHEM101&#39;, &#39;CHEM150&#39;]</title>
<path fill="none" stroke="black" d="M70.05,-19.34C88.63,-24.16 110.68,-29.89 124.99,-33.6"/>
<polygon fill="black" stroke="black" points="124.61,-35.31 129.89,-34.87 125.49,-31.92 124.61,-35.31"/>
</g>
</g>
</svg>
