<?xml version="1.0" encoding="UTF-8" standalone="no"?>
<!DOCTYPE svg PUBLIC "-//W3C//DTD SVG 1.1//EN"
 "http://www.w3.org/Graphics/SVG/1.1/DTD/svg11.dtd">
<!-- Generated by graphviz version 2.43.0 (0)
 -->
<!-- Title: unix Pages: 1 -->
<svg width="254pt" height="52pt"
 viewBox="0.00 0.00 254.00 52.00" xmlns="http://www.w3.org/2000/svg" xmlns:xlink="http://www.w3.org/1999/xlink">
<g id="graph0" class="graph" transform="scale(1 1) rotate(0) translate(4 48)">
<title>unix</title>
<polygon fill="white" stroke="transparent" points="-4,4 -4,-48 250,-48 250,4 -4,4"/>
<text text-anchor="middle" x="123" y="-28.8" font-family="Times,serif" font-size="14.00">EOS410: Global Tectonics</text>
<!-- EOS120 -->
<g id="node1" class="node">
<title>EOS120</title>
<path fill="#f5edc9" stroke="#030a10" d="M51,-21C51,-21 7,-21 7,-21 3.5,-21 0,-17.5 0,-14 0,-14 0,-7 0,-7 0,-3.5 3.5,0 7,0 7,0 51,0 51,0 54.5,0 58,-3.5 58,-7 58,-7 58,-14 58,-14 58,-17.5 54.5,-21 51,-21"/>
<text text-anchor="middle" x="29" y="-7.4" font-family="Times,serif" font-size="12.00">EOS120</text>
</g>
<!-- EOS202 -->
<g id="node2" class="node">
<title>EOS202</title>
<path fill="#e7a79b" stroke="#030a10" d="M145,-21C145,-21 101,-21 101,-21 97.5,-21 94,-17.5 94,-14 94,-14 94,-7 94,-7 94,-3.5 97.5,0 101,0 101,0 145,0 145,0 148.5,0 152,-3.5 152,-7 152,-7 152,-14 152,-14 152,-17.5 148.5,-21 145,-21"/>
<text text-anchor="middle" x="123" y="-7.4" font-family="Times,serif" font-size="12.00">EOS202</text>
</g>
<!-- EOS120&#45;&gt;EOS202 -->
<g id="edge1" class="edge">
<title>EOS120&#45;&gt;EOS202</title>
<path fill="none" stroke="black" d="M58.1,-10.5C67.73,-10.5 78.6,-10.5 88.61,-10.5"/>
<polygon fill="black" stroke="black" points="88.75,-12.25 93.75,-10.5 88.75,-8.75 88.75,-12.25"/>
</g>
<!-- EOS410 -->
<g id="node3" class="node">
<title>EOS410</title>
<path fill="#9fa7be" stroke="#030a10" d="M239,-21C239,-21 195,-21 195,-21 191.5,-21 188,-17.5 188,-14 188,-14 188,-7 188,-7 188,-3.5 191.5,0 195,0 195,0 239,0 239,0 242.5,0 246,-3.5 246,-7 246,-7 246,-14 246,-14 246,-17.5 242.5,-21 239,-21"/>
<text text-anchor="middle" x="217" y="-7.4" font-family="Times,serif" font-size="12.00">EOS410</text>
</g>
<!-- EOS202&#45;&gt;EOS410 -->
<g id="edge2" class="edge">
<title>EOS202&#45;&gt;EOS410</title>
<path fill="none" stroke="black" d="M152.1,-10.5C161.73,-10.5 172.6,-10.5 182.61,-10.5"/>
<polygon fill="black" stroke="black" points="182.75,-12.25 187.75,-10.5 182.75,-8.75 182.75,-12.25"/>
</g>
</g>
</svg>
