<?xml version="1.0" encoding="UTF-8" standalone="no"?>
<!DOCTYPE svg PUBLIC "-//W3C//DTD SVG 1.1//EN"
 "http://www.w3.org/Graphics/SVG/1.1/DTD/svg11.dtd">
<!-- Generated by graphviz version 2.43.0 (0)
 -->
<!-- Title: unix Pages: 1 -->
<svg width="849pt" height="437pt"
 viewBox="0.00 0.00 849.00 437.00" xmlns="http://www.w3.org/2000/svg" xmlns:xlink="http://www.w3.org/1999/xlink">
<g id="graph0" class="graph" transform="scale(1 1) rotate(0) translate(4 433)">
<title>unix</title>
<polygon fill="white" stroke="transparent" points="-4,4 -4,-433 845,-433 845,4 -4,4"/>
<text text-anchor="middle" x="420.5" y="-413.8" font-family="Times,serif" font-size="14.00">EOS423: Advanced Sedimentology and Stratigraphy</text>
<!-- GEOG230 -->
<g id="node1" class="node">
<title>GEOG230</title>
<path fill="#f5edc9" stroke="#030a10" d="M494,-317C494,-317 439,-317 439,-317 435.5,-317 432,-313.5 432,-310 432,-310 432,-303 432,-303 432,-299.5 435.5,-296 439,-296 439,-296 494,-296 494,-296 497.5,-296 501,-299.5 501,-303 501,-303 501,-310 501,-310 501,-313.5 497.5,-317 494,-317"/>
<text text-anchor="middle" x="466.5" y="-303.4" font-family="Times,serif" font-size="12.00">GEOG230</text>
</g>
<!-- 1 of [&#39;CSC110&#39;, &#39;CSC111&#39;, &#39;EOS210&#39;, &#39;EOS230&#39;, &#39;GEOG230&#39;, &#39;EOS261&#39;, &#39;EOS314&#39;] -->
<g id="node24" class="node">
<title>1 of [&#39;CSC110&#39;, &#39;CSC111&#39;, &#39;EOS210&#39;, &#39;EOS230&#39;, &#39;GEOG230&#39;, &#39;EOS261&#39;, &#39;EOS314&#39;]</title>
<ellipse fill="#e9dbd0" stroke="#030a10" cx="566" cy="-208.5" rx="11" ry="11"/>
<text text-anchor="middle" x="566" y="-205.4" font-family="Times,serif" font-size="12.00">1</text>
</g>
<!-- GEOG230&#45;&gt;1 of [&#39;CSC110&#39;, &#39;CSC111&#39;, &#39;EOS210&#39;, &#39;EOS230&#39;, &#39;GEOG230&#39;, &#39;EOS261&#39;, &#39;EOS314&#39;] -->
<g id="edge13" class="edge">
<title>GEOG230&#45;&gt;1 of [&#39;CSC110&#39;, &#39;CSC111&#39;, &#39;EOS210&#39;, &#39;EOS230&#39;, &#39;GEOG230&#39;, &#39;EOS261&#39;, &#39;EOS314&#39;]</title>
<path fill="none" stroke="black" d="M495.89,-295.93C497.68,-294.88 499.4,-293.73 501,-292.5 526.33,-272.93 546.88,-240.99 557.38,-222.65"/>
<polygon fill="black" stroke="black" points="559.15,-223.07 560.08,-217.86 556.1,-221.36 559.15,-223.07"/>
</g>
<!-- EOS210 -->
<g id="node2" class="node">
<title>EOS210</title>
<path fill="#f5edc9" stroke="#030a10" d="M275,-63C275,-63 231,-63 231,-63 227.5,-63 224,-59.5 224,-56 224,-56 224,-49 224,-49 224,-45.5 227.5,-42 231,-42 231,-42 275,-42 275,-42 278.5,-42 282,-45.5 282,-49 282,-49 282,-56 282,-56 282,-59.5 278.5,-63 275,-63"/>
<text text-anchor="middle" x="253" y="-49.4" font-family="Times,serif" font-size="12.00">EOS210</text>
</g>
<!-- EOS210&#45;&gt;1 of [&#39;CSC110&#39;, &#39;CSC111&#39;, &#39;EOS210&#39;, &#39;EOS230&#39;, &#39;GEOG230&#39;, &#39;EOS261&#39;, &#39;EOS314&#39;] -->
<g id="edge11" class="edge">
<title>EOS210&#45;&gt;1 of [&#39;CSC110&#39;, &#39;CSC111&#39;, &#39;EOS210&#39;, &#39;EOS230&#39;, &#39;GEOG230&#39;, &#39;EOS261&#39;, &#39;EOS314&#39;]</title>
<path fill="none" stroke="black" d="M281.25,-63.02C294.68,-68.13 311.14,-74.27 326,-79.5 405.5,-107.45 430.58,-106.2 501,-152.5 521.17,-165.76 541.69,-184.93 553.87,-197.05"/>
<polygon fill="black" stroke="black" points="552.91,-198.56 557.68,-200.87 555.39,-196.09 552.91,-198.56"/>
</g>
<!-- CSC111 -->
<g id="node3" class="node">
<title>CSC111</title>
<path fill="#f5edc9" stroke="#030a10" d="M488,-261C488,-261 445,-261 445,-261 441.5,-261 438,-257.5 438,-254 438,-254 438,-247 438,-247 438,-243.5 441.5,-240 445,-240 445,-240 488,-240 488,-240 491.5,-240 495,-243.5 495,-247 495,-247 495,-254 495,-254 495,-257.5 491.5,-261 488,-261"/>
<text text-anchor="middle" x="466.5" y="-247.4" font-family="Times,serif" font-size="12.00">CSC111</text>
</g>
<!-- CSC111&#45;&gt;1 of [&#39;CSC110&#39;, &#39;CSC111&#39;, &#39;EOS210&#39;, &#39;EOS230&#39;, &#39;GEOG230&#39;, &#39;EOS261&#39;, &#39;EOS314&#39;] -->
<g id="edge10" class="edge">
<title>CSC111&#45;&gt;1 of [&#39;CSC110&#39;, &#39;CSC111&#39;, &#39;EOS210&#39;, &#39;EOS230&#39;, &#39;GEOG230&#39;, &#39;EOS261&#39;, &#39;EOS314&#39;]</title>
<path fill="none" stroke="black" d="M492.76,-240C495.54,-238.82 498.33,-237.64 501,-236.5 518.13,-229.17 537.74,-220.56 550.7,-214.84"/>
<polygon fill="black" stroke="black" points="551.61,-216.35 555.48,-212.72 550.2,-213.15 551.61,-216.35"/>
</g>
<!-- EOS325 -->
<g id="node4" class="node">
<title>EOS325</title>
<path fill="#e7a79b" stroke="#030a10" d="M682,-187C682,-187 638,-187 638,-187 634.5,-187 631,-183.5 631,-180 631,-180 631,-173 631,-173 631,-169.5 634.5,-166 638,-166 638,-166 682,-166 682,-166 685.5,-166 689,-169.5 689,-173 689,-173 689,-180 689,-180 689,-183.5 685.5,-187 682,-187"/>
<text text-anchor="middle" x="660" y="-173.4" font-family="Times,serif" font-size="12.00">EOS325</text>
</g>
<!-- 1 of [&#39;EOS225&#39;, &#39;EOS325&#39;] -->
<g id="node26" class="node">
<title>1 of [&#39;EOS225&#39;, &#39;EOS325&#39;]</title>
<ellipse fill="#e9dbd0" stroke="#030a10" cx="736" cy="-176.5" rx="11" ry="11"/>
<text text-anchor="middle" x="736" y="-173.4" font-family="Times,serif" font-size="12.00">1</text>
</g>
<!-- EOS325&#45;&gt;1 of [&#39;EOS225&#39;, &#39;EOS325&#39;] -->
<g id="edge25" class="edge">
<title>EOS325&#45;&gt;1 of [&#39;EOS225&#39;, &#39;EOS325&#39;]</title>
<path fill="none" stroke="black" d="M689.4,-176.5C699.66,-176.5 710.85,-176.5 719.58,-176.5"/>
<polygon fill="black" stroke="black" points="719.67,-178.25 724.67,-176.5 719.67,-174.75 719.67,-178.25"/>
</g>
<!-- EOS201 -->
<g id="node5" class="node">
<title>EOS201</title>
<path fill="#e7a79b" stroke="#030a10" d="M588,-380C588,-380 544,-380 544,-380 540.5,-380 537,-376.5 537,-373 537,-373 537,-366 537,-366 537,-362.5 540.5,-359 544,-359 544,-359 588,-359 588,-359 591.5,-359 595,-362.5 595,-366 595,-366 595,-373 595,-373 595,-376.5 591.5,-380 588,-380"/>
<text text-anchor="middle" x="566" y="-366.4" font-family="Times,serif" font-size="12.00">EOS201</text>
</g>
<!-- EOS423 -->
<g id="node7" class="node">
<title>EOS423</title>
<path fill="#9fa7be" stroke="#030a10" d="M834,-198C834,-198 790,-198 790,-198 786.5,-198 783,-194.5 783,-191 783,-191 783,-184 783,-184 783,-180.5 786.5,-177 790,-177 790,-177 834,-177 834,-177 837.5,-177 841,-180.5 841,-184 841,-184 841,-191 841,-191 841,-194.5 837.5,-198 834,-198"/>
<text text-anchor="middle" x="812" y="-184.4" font-family="Times,serif" font-size="12.00">EOS423</text>
</g>
<!-- EOS201&#45;&gt;EOS423 -->
<g id="edge22" class="edge">
<title>EOS201&#45;&gt;EOS423</title>
<path fill="none" stroke="black" d="M581.17,-358.93C623.03,-327.7 746.11,-235.9 792.78,-201.09"/>
<polygon fill="black" stroke="black" points="793.83,-202.49 796.79,-198.1 791.73,-199.69 793.83,-202.49"/>
</g>
<!-- EOS120 -->
<g id="node6" class="node">
<title>EOS120</title>
<path fill="#f5edc9" stroke="#030a10" d="M383,-406C383,-406 339,-406 339,-406 335.5,-406 332,-402.5 332,-399 332,-399 332,-392 332,-392 332,-388.5 335.5,-385 339,-385 339,-385 383,-385 383,-385 386.5,-385 390,-388.5 390,-392 390,-392 390,-399 390,-399 390,-402.5 386.5,-406 383,-406"/>
<text text-anchor="middle" x="361" y="-392.4" font-family="Times,serif" font-size="12.00">EOS120</text>
</g>
<!-- EOS120&#45;&gt;EOS201 -->
<g id="edge20" class="edge">
<title>EOS120&#45;&gt;EOS201</title>
<path fill="none" stroke="black" d="M390.08,-394.14C418.25,-392.53 462.8,-389.3 501,-383.5 511.05,-381.97 521.89,-379.8 531.74,-377.63"/>
<polygon fill="black" stroke="black" points="532.3,-379.3 536.79,-376.49 531.53,-375.88 532.3,-379.3"/>
</g>
<!-- EOS205 -->
<g id="node8" class="node">
<title>EOS205</title>
<path fill="#f5edc9" stroke="#030a10" d="M488.5,-380C488.5,-380 444.5,-380 444.5,-380 441,-380 437.5,-376.5 437.5,-373 437.5,-373 437.5,-366 437.5,-366 437.5,-362.5 441,-359 444.5,-359 444.5,-359 488.5,-359 488.5,-359 492,-359 495.5,-362.5 495.5,-366 495.5,-366 495.5,-373 495.5,-373 495.5,-376.5 492,-380 488.5,-380"/>
<text text-anchor="middle" x="466.5" y="-366.4" font-family="Times,serif" font-size="12.00">EOS205</text>
</g>
<!-- EOS120&#45;&gt;EOS205 -->
<g id="edge26" class="edge">
<title>EOS120&#45;&gt;EOS205</title>
<path fill="none" stroke="black" d="M390.01,-388.46C403.13,-385.17 418.84,-381.22 432.53,-377.78"/>
<polygon fill="black" stroke="black" points="433.05,-379.46 437.47,-376.54 432.19,-376.06 433.05,-379.46"/>
</g>
<!-- EOS205&#45;&gt;EOS201 -->
<g id="edge21" class="edge">
<title>EOS205&#45;&gt;EOS201</title>
<path fill="none" stroke="black" d="M495.7,-369.5C506.92,-369.5 519.91,-369.5 531.6,-369.5"/>
<polygon fill="black" stroke="black" points="531.86,-371.25 536.86,-369.5 531.86,-367.75 531.86,-371.25"/>
</g>
<!-- MATH202 -->
<g id="node9" class="node">
<title>MATH202</title>
<path fill="#f5edc9" stroke="#030a10" d="M280.5,-91C280.5,-91 225.5,-91 225.5,-91 222,-91 218.5,-87.5 218.5,-84 218.5,-84 218.5,-77 218.5,-77 218.5,-73.5 222,-70 225.5,-70 225.5,-70 280.5,-70 280.5,-70 284,-70 287.5,-73.5 287.5,-77 287.5,-77 287.5,-84 287.5,-84 287.5,-87.5 284,-91 280.5,-91"/>
<text text-anchor="middle" x="253" y="-77.4" font-family="Times,serif" font-size="12.00">MATH202</text>
</g>
<!-- 1 of [&#39;MATH202&#39;, &#39;MATH204&#39;] -->
<g id="node23" class="node">
<title>1 of [&#39;MATH202&#39;, &#39;MATH204&#39;]</title>
<ellipse fill="#e9dbd0" stroke="#030a10" cx="361" cy="-65.5" rx="11" ry="11"/>
<text text-anchor="middle" x="361" y="-62.4" font-family="Times,serif" font-size="12.00">1</text>
</g>
<!-- MATH202&#45;&gt;1 of [&#39;MATH202&#39;, &#39;MATH204&#39;] -->
<g id="edge6" class="edge">
<title>MATH202&#45;&gt;1 of [&#39;MATH202&#39;, &#39;MATH204&#39;]</title>
<path fill="none" stroke="black" d="M287.54,-75.75C306.77,-73.03 329.97,-69.75 344.85,-67.64"/>
<polygon fill="black" stroke="black" points="345.23,-69.36 349.93,-66.92 344.74,-65.89 345.23,-69.36"/>
</g>
<!-- EOS230 -->
<g id="node10" class="node">
<title>EOS230</title>
<path fill="#f5edc9" stroke="#030a10" d="M488.5,-233C488.5,-233 444.5,-233 444.5,-233 441,-233 437.5,-229.5 437.5,-226 437.5,-226 437.5,-219 437.5,-219 437.5,-215.5 441,-212 444.5,-212 444.5,-212 488.5,-212 488.5,-212 492,-212 495.5,-215.5 495.5,-219 495.5,-219 495.5,-226 495.5,-226 495.5,-229.5 492,-233 488.5,-233"/>
<text text-anchor="middle" x="466.5" y="-219.4" font-family="Times,serif" font-size="12.00">EOS230</text>
</g>
<!-- EOS230&#45;&gt;1 of [&#39;CSC110&#39;, &#39;CSC111&#39;, &#39;EOS210&#39;, &#39;EOS230&#39;, &#39;GEOG230&#39;, &#39;EOS261&#39;, &#39;EOS314&#39;] -->
<g id="edge12" class="edge">
<title>EOS230&#45;&gt;1 of [&#39;CSC110&#39;, &#39;CSC111&#39;, &#39;EOS210&#39;, &#39;EOS230&#39;, &#39;GEOG230&#39;, &#39;EOS261&#39;, &#39;EOS314&#39;]</title>
<path fill="none" stroke="black" d="M495.7,-218.45C513.18,-215.94 534.97,-212.81 549.4,-210.74"/>
<polygon fill="black" stroke="black" points="550.03,-212.42 554.73,-209.98 549.53,-208.95 550.03,-212.42"/>
</g>
<!-- EOS261 -->
<g id="node11" class="node">
<title>EOS261</title>
<path fill="#f5edc9" stroke="#030a10" d="M488.5,-205C488.5,-205 444.5,-205 444.5,-205 441,-205 437.5,-201.5 437.5,-198 437.5,-198 437.5,-191 437.5,-191 437.5,-187.5 441,-184 444.5,-184 444.5,-184 488.5,-184 488.5,-184 492,-184 495.5,-187.5 495.5,-191 495.5,-191 495.5,-198 495.5,-198 495.5,-201.5 492,-205 488.5,-205"/>
<text text-anchor="middle" x="466.5" y="-191.4" font-family="Times,serif" font-size="12.00">EOS261</text>
</g>
<!-- EOS261&#45;&gt;1 of [&#39;CSC110&#39;, &#39;CSC111&#39;, &#39;EOS210&#39;, &#39;EOS230&#39;, &#39;GEOG230&#39;, &#39;EOS261&#39;, &#39;EOS314&#39;] -->
<g id="edge14" class="edge">
<title>EOS261&#45;&gt;1 of [&#39;CSC110&#39;, &#39;CSC111&#39;, &#39;EOS210&#39;, &#39;EOS230&#39;, &#39;GEOG230&#39;, &#39;EOS261&#39;, &#39;EOS314&#39;]</title>
<path fill="none" stroke="black" d="M495.7,-198.55C513.18,-201.06 534.97,-204.19 549.4,-206.26"/>
<polygon fill="black" stroke="black" points="549.53,-208.05 554.73,-207.02 550.03,-204.58 549.53,-208.05"/>
</g>
<!-- MATH204 -->
<g id="node12" class="node">
<title>MATH204</title>
<path fill="#f5edc9" stroke="#030a10" d="M280.5,-35C280.5,-35 225.5,-35 225.5,-35 222,-35 218.5,-31.5 218.5,-28 218.5,-28 218.5,-21 218.5,-21 218.5,-17.5 222,-14 225.5,-14 225.5,-14 280.5,-14 280.5,-14 284,-14 287.5,-17.5 287.5,-21 287.5,-21 287.5,-28 287.5,-28 287.5,-31.5 284,-35 280.5,-35"/>
<text text-anchor="middle" x="253" y="-21.4" font-family="Times,serif" font-size="12.00">MATH204</text>
</g>
<!-- MATH204&#45;&gt;1 of [&#39;MATH202&#39;, &#39;MATH204&#39;] -->
<g id="edge7" class="edge">
<title>MATH204&#45;&gt;1 of [&#39;MATH202&#39;, &#39;MATH204&#39;]</title>
<path fill="none" stroke="black" d="M281.3,-35.06C301.76,-42.97 328.95,-53.49 345.43,-59.87"/>
<polygon fill="black" stroke="black" points="344.89,-61.53 350.18,-61.7 346.15,-58.27 344.89,-61.53"/>
</g>
<!-- EOS225 -->
<g id="node13" class="node">
<title>EOS225</title>
<path fill="#e7a79b" stroke="#030a10" d="M682,-159C682,-159 638,-159 638,-159 634.5,-159 631,-155.5 631,-152 631,-152 631,-145 631,-145 631,-141.5 634.5,-138 638,-138 638,-138 682,-138 682,-138 685.5,-138 689,-141.5 689,-145 689,-145 689,-152 689,-152 689,-155.5 685.5,-159 682,-159"/>
<text text-anchor="middle" x="660" y="-145.4" font-family="Times,serif" font-size="12.00">EOS225</text>
</g>
<!-- EOS225&#45;&gt;1 of [&#39;EOS225&#39;, &#39;EOS325&#39;] -->
<g id="edge24" class="edge">
<title>EOS225&#45;&gt;1 of [&#39;EOS225&#39;, &#39;EOS325&#39;]</title>
<path fill="none" stroke="black" d="M688.98,-159.09C699.65,-163.12 711.39,-167.57 720.34,-170.95"/>
<polygon fill="black" stroke="black" points="719.97,-172.68 725.26,-172.82 721.21,-169.41 719.97,-172.68"/>
</g>
<!-- CSC110 -->
<g id="node14" class="node">
<title>CSC110</title>
<path fill="#f5edc9" stroke="#030a10" d="M488.5,-177C488.5,-177 444.5,-177 444.5,-177 441,-177 437.5,-173.5 437.5,-170 437.5,-170 437.5,-163 437.5,-163 437.5,-159.5 441,-156 444.5,-156 444.5,-156 488.5,-156 488.5,-156 492,-156 495.5,-159.5 495.5,-163 495.5,-163 495.5,-170 495.5,-170 495.5,-173.5 492,-177 488.5,-177"/>
<text text-anchor="middle" x="466.5" y="-163.4" font-family="Times,serif" font-size="12.00">CSC110</text>
</g>
<!-- CSC110&#45;&gt;1 of [&#39;CSC110&#39;, &#39;CSC111&#39;, &#39;EOS210&#39;, &#39;EOS230&#39;, &#39;GEOG230&#39;, &#39;EOS261&#39;, &#39;EOS314&#39;] -->
<g id="edge9" class="edge">
<title>CSC110&#45;&gt;1 of [&#39;CSC110&#39;, &#39;CSC111&#39;, &#39;EOS210&#39;, &#39;EOS230&#39;, &#39;GEOG230&#39;, &#39;EOS261&#39;, &#39;EOS314&#39;]</title>
<path fill="none" stroke="black" d="M492.76,-177C495.54,-178.18 498.33,-179.36 501,-180.5 518.13,-187.83 537.74,-196.44 550.7,-202.16"/>
<polygon fill="black" stroke="black" points="550.2,-203.85 555.48,-204.28 551.61,-200.65 550.2,-203.85"/>
</g>
<!-- PHYS102B -->
<g id="node15" class="node">
<title>PHYS102B</title>
<path fill="#f5edc9" stroke="#030a10" d="M283,-163C283,-163 223,-163 223,-163 219.5,-163 216,-159.5 216,-156 216,-156 216,-149 216,-149 216,-145.5 219.5,-142 223,-142 223,-142 283,-142 283,-142 286.5,-142 290,-145.5 290,-149 290,-149 290,-156 290,-156 290,-159.5 286.5,-163 283,-163"/>
<text text-anchor="middle" x="253" y="-149.4" font-family="Times,serif" font-size="12.00">PHYS102B</text>
</g>
<!-- 1 of [&#39;PHYS102B&#39;, &#39;PHYS111&#39;, &#39;PHYS130&#39;] -->
<g id="node25" class="node">
<title>1 of [&#39;PHYS102B&#39;, &#39;PHYS111&#39;, &#39;PHYS130&#39;]</title>
<ellipse fill="#e9dbd0" stroke="#030a10" cx="361" cy="-144.5" rx="11" ry="11"/>
<text text-anchor="middle" x="361" y="-141.4" font-family="Times,serif" font-size="12.00">1</text>
</g>
<!-- PHYS102B&#45;&gt;1 of [&#39;PHYS102B&#39;, &#39;PHYS111&#39;, &#39;PHYS130&#39;] -->
<g id="edge17" class="edge">
<title>PHYS102B&#45;&gt;1 of [&#39;PHYS102B&#39;, &#39;PHYS111&#39;, &#39;PHYS130&#39;]</title>
<path fill="none" stroke="black" d="M290.18,-149.77C308.82,-148.36 330.55,-146.72 344.76,-145.65"/>
<polygon fill="black" stroke="black" points="345.14,-147.38 349.99,-145.26 344.87,-143.89 345.14,-147.38"/>
</g>
<!-- 1 of [&#39;PHYS111&#39;, &#39;PHYS130&#39;, &#39;PHYS102B&#39;] -->
<g id="node33" class="node">
<title>1 of [&#39;PHYS111&#39;, &#39;PHYS130&#39;, &#39;PHYS102B&#39;]</title>
<ellipse fill="#e9dbd0" stroke="#030a10" cx="361" cy="-173.5" rx="11" ry="11"/>
<text text-anchor="middle" x="361" y="-170.4" font-family="Times,serif" font-size="12.00">1</text>
</g>
<!-- PHYS102B&#45;&gt;1 of [&#39;PHYS111&#39;, &#39;PHYS130&#39;, &#39;PHYS102B&#39;] -->
<g id="edge39" class="edge">
<title>PHYS102B&#45;&gt;1 of [&#39;PHYS111&#39;, &#39;PHYS130&#39;, &#39;PHYS102B&#39;]</title>
<path fill="none" stroke="black" d="M290.18,-159.67C308.82,-163.36 330.55,-167.67 344.76,-170.48"/>
<polygon fill="black" stroke="black" points="344.75,-172.26 349.99,-171.52 345.43,-168.83 344.75,-172.26"/>
</g>
<!-- 1 of [&#39;PHYS102B&#39;, &#39;PHYS111&#39;, &#39;PHYS120&#39;] -->
<g id="node45" class="node">
<title>1 of [&#39;PHYS102B&#39;, &#39;PHYS111&#39;, &#39;PHYS120&#39;]</title>
<ellipse fill="#e9dbd0" stroke="#030a10" cx="361" cy="-202.5" rx="11" ry="11"/>
<text text-anchor="middle" x="361" y="-199.4" font-family="Times,serif" font-size="12.00">1</text>
</g>
<!-- PHYS102B&#45;&gt;1 of [&#39;PHYS102B&#39;, &#39;PHYS111&#39;, &#39;PHYS120&#39;] -->
<g id="edge62" class="edge">
<title>PHYS102B&#45;&gt;1 of [&#39;PHYS102B&#39;, &#39;PHYS111&#39;, &#39;PHYS120&#39;]</title>
<path fill="none" stroke="black" d="M282.48,-163.09C285.04,-164.19 287.58,-165.33 290,-166.5 306.68,-174.55 309.5,-179.08 326,-187.5 332.38,-190.75 339.61,-194 345.76,-196.64"/>
<polygon fill="black" stroke="black" points="345.35,-198.37 350.63,-198.7 346.71,-195.14 345.35,-198.37"/>
</g>
<!-- PHYS130 -->
<g id="node16" class="node">
<title>PHYS130</title>
<path fill="#f5edc9" stroke="#030a10" d="M279,-135C279,-135 227,-135 227,-135 223.5,-135 220,-131.5 220,-128 220,-128 220,-121 220,-121 220,-117.5 223.5,-114 227,-114 227,-114 279,-114 279,-114 282.5,-114 286,-117.5 286,-121 286,-121 286,-128 286,-128 286,-131.5 282.5,-135 279,-135"/>
<text text-anchor="middle" x="253" y="-121.4" font-family="Times,serif" font-size="12.00">PHYS130</text>
</g>
<!-- PHYS130&#45;&gt;1 of [&#39;PHYS102B&#39;, &#39;PHYS111&#39;, &#39;PHYS130&#39;] -->
<g id="edge19" class="edge">
<title>PHYS130&#45;&gt;1 of [&#39;PHYS102B&#39;, &#39;PHYS111&#39;, &#39;PHYS130&#39;]</title>
<path fill="none" stroke="black" d="M286.09,-130.55C305.63,-134.24 329.68,-138.78 344.93,-141.66"/>
<polygon fill="black" stroke="black" points="344.89,-143.43 350.13,-142.64 345.54,-139.99 344.89,-143.43"/>
</g>
<!-- PHYS130&#45;&gt;1 of [&#39;PHYS111&#39;, &#39;PHYS130&#39;, &#39;PHYS102B&#39;] -->
<g id="edge38" class="edge">
<title>PHYS130&#45;&gt;1 of [&#39;PHYS111&#39;, &#39;PHYS130&#39;, &#39;PHYS102B&#39;]</title>
<path fill="none" stroke="black" d="M282.45,-135.15C285.02,-136.23 287.57,-137.36 290,-138.5 306.57,-146.28 309.61,-150.35 326,-158.5 332.41,-161.69 339.65,-164.93 345.79,-167.58"/>
<polygon fill="black" stroke="black" points="345.37,-169.3 350.66,-169.65 346.75,-166.08 345.37,-169.3"/>
</g>
<!-- PHYS111 -->
<g id="node17" class="node">
<title>PHYS111</title>
<path fill="#f5edc9" stroke="#030a10" d="M278.5,-191C278.5,-191 227.5,-191 227.5,-191 224,-191 220.5,-187.5 220.5,-184 220.5,-184 220.5,-177 220.5,-177 220.5,-173.5 224,-170 227.5,-170 227.5,-170 278.5,-170 278.5,-170 282,-170 285.5,-173.5 285.5,-177 285.5,-177 285.5,-184 285.5,-184 285.5,-187.5 282,-191 278.5,-191"/>
<text text-anchor="middle" x="253" y="-177.4" font-family="Times,serif" font-size="12.00">PHYS111</text>
</g>
<!-- PHYS111&#45;&gt;1 of [&#39;PHYS102B&#39;, &#39;PHYS111&#39;, &#39;PHYS130&#39;] -->
<g id="edge18" class="edge">
<title>PHYS111&#45;&gt;1 of [&#39;PHYS102B&#39;, &#39;PHYS111&#39;, &#39;PHYS130&#39;]</title>
<path fill="none" stroke="black" d="M284.94,-169.99C304.93,-163.2 330,-154.69 345.52,-149.42"/>
<polygon fill="black" stroke="black" points="346.22,-151.03 350.39,-147.76 345.09,-147.72 346.22,-151.03"/>
</g>
<!-- PHYS111&#45;&gt;1 of [&#39;PHYS111&#39;, &#39;PHYS130&#39;, &#39;PHYS102B&#39;] -->
<g id="edge37" class="edge">
<title>PHYS111&#45;&gt;1 of [&#39;PHYS111&#39;, &#39;PHYS130&#39;, &#39;PHYS102B&#39;]</title>
<path fill="none" stroke="black" d="M285.52,-178.42C305.08,-177.13 329.35,-175.52 344.76,-174.51"/>
<polygon fill="black" stroke="black" points="345.14,-176.24 350.01,-174.16 344.91,-172.74 345.14,-176.24"/>
</g>
<!-- PHYS111&#45;&gt;1 of [&#39;PHYS102B&#39;, &#39;PHYS111&#39;, &#39;PHYS120&#39;] -->
<g id="edge63" class="edge">
<title>PHYS111&#45;&gt;1 of [&#39;PHYS102B&#39;, &#39;PHYS111&#39;, &#39;PHYS120&#39;]</title>
<path fill="none" stroke="black" d="M285.52,-187.04C305.08,-191.1 329.35,-196.14 344.76,-199.34"/>
<polygon fill="black" stroke="black" points="344.76,-201.12 350.01,-200.43 345.47,-197.7 344.76,-201.12"/>
</g>
<!-- EOS314 -->
<g id="node18" class="node">
<title>EOS314</title>
<path fill="#f5edc9" stroke="#030a10" d="M488.5,-289C488.5,-289 444.5,-289 444.5,-289 441,-289 437.5,-285.5 437.5,-282 437.5,-282 437.5,-275 437.5,-275 437.5,-271.5 441,-268 444.5,-268 444.5,-268 488.5,-268 488.5,-268 492,-268 495.5,-271.5 495.5,-275 495.5,-275 495.5,-282 495.5,-282 495.5,-285.5 492,-289 488.5,-289"/>
<text text-anchor="middle" x="466.5" y="-275.4" font-family="Times,serif" font-size="12.00">EOS314</text>
</g>
<!-- EOS314&#45;&gt;1 of [&#39;CSC110&#39;, &#39;CSC111&#39;, &#39;EOS210&#39;, &#39;EOS230&#39;, &#39;GEOG230&#39;, &#39;EOS261&#39;, &#39;EOS314&#39;] -->
<g id="edge15" class="edge">
<title>EOS314&#45;&gt;1 of [&#39;CSC110&#39;, &#39;CSC111&#39;, &#39;EOS210&#39;, &#39;EOS230&#39;, &#39;GEOG230&#39;, &#39;EOS261&#39;, &#39;EOS314&#39;]</title>
<path fill="none" stroke="black" d="M494.93,-267.91C497.03,-266.84 499.07,-265.7 501,-264.5 521.49,-251.73 541.91,-232.43 554,-220.15"/>
<polygon fill="black" stroke="black" points="555.54,-221.08 557.76,-216.27 553.03,-218.64 555.54,-221.08"/>
</g>
<!-- MATH101 -->
<g id="node19" class="node">
<title>MATH101</title>
<path fill="#f5edc9" stroke="#030a10" d="M173,-120C173,-120 118,-120 118,-120 114.5,-120 111,-116.5 111,-113 111,-113 111,-106 111,-106 111,-102.5 114.5,-99 118,-99 118,-99 173,-99 173,-99 176.5,-99 180,-102.5 180,-106 180,-106 180,-113 180,-113 180,-116.5 176.5,-120 173,-120"/>
<text text-anchor="middle" x="145.5" y="-106.4" font-family="Times,serif" font-size="12.00">MATH101</text>
</g>
<!-- MATH101&#45;&gt;EOS210 -->
<g id="edge1" class="edge">
<title>MATH101&#45;&gt;EOS210</title>
<path fill="none" stroke="black" d="M172.07,-98.83C174.8,-97.46 177.49,-96.01 180,-94.5 197.37,-84.06 198.37,-76.5 216,-66.5 216.92,-65.98 217.86,-65.47 218.82,-64.97"/>
<polygon fill="black" stroke="black" points="220,-66.34 223.72,-62.58 218.46,-63.2 220,-66.34"/>
</g>
<!-- MATH101&#45;&gt;MATH202 -->
<g id="edge28" class="edge">
<title>MATH101&#45;&gt;MATH202</title>
<path fill="none" stroke="black" d="M180.17,-100.24C190.73,-97.34 202.48,-94.11 213.36,-91.12"/>
<polygon fill="black" stroke="black" points="213.93,-92.78 218.29,-89.77 213,-89.4 213.93,-92.78"/>
</g>
<!-- MATH101&#45;&gt;EOS261 -->
<g id="edge35" class="edge">
<title>MATH101&#45;&gt;EOS261</title>
<path fill="none" stroke="black" d="M180.26,-102.9C231.32,-94.84 329.28,-87.04 396,-129.5 419.41,-144.4 410.36,-163.14 432,-180.5 432.31,-180.75 432.63,-181 432.96,-181.24"/>
<polygon fill="black" stroke="black" points="432.26,-182.88 437.39,-184.2 434.2,-179.97 432.26,-182.88"/>
</g>
<!-- MATH101&#45;&gt;PHYS130 -->
<g id="edge48" class="edge">
<title>MATH101&#45;&gt;PHYS130</title>
<path fill="none" stroke="black" d="M180.17,-114.29C191.15,-115.85 203.41,-117.59 214.65,-119.19"/>
<polygon fill="black" stroke="black" points="214.53,-120.94 219.73,-119.91 215.02,-117.47 214.53,-120.94"/>
</g>
<!-- 2 of [&#39;MATH100&#39;, &#39;MATH101&#39;, &#39;MATH102&#39;, &#39;MATH109&#39;, &#39;MATH151&#39;] -->
<g id="node43" class="node">
<title>2 of [&#39;MATH100&#39;, &#39;MATH101&#39;, &#39;MATH102&#39;, &#39;MATH109&#39;, &#39;MATH151&#39;]</title>
<ellipse fill="#d1b79e" stroke="#030a10" cx="253" cy="-352.5" rx="11" ry="11"/>
<text text-anchor="middle" x="253" y="-349.4" font-family="Times,serif" font-size="12.00">2</text>
</g>
<!-- MATH101&#45;&gt;2 of [&#39;MATH100&#39;, &#39;MATH101&#39;, &#39;MATH102&#39;, &#39;MATH109&#39;, &#39;MATH151&#39;] -->
<g id="edge56" class="edge">
<title>MATH101&#45;&gt;2 of [&#39;MATH100&#39;, &#39;MATH101&#39;, &#39;MATH102&#39;, &#39;MATH109&#39;, &#39;MATH151&#39;]</title>
<path fill="none" stroke="black" d="M150.05,-120.1C156.21,-138.49 169.22,-177.48 180,-210.5 196.23,-260.2 186.76,-279.16 216,-322.5 221.88,-331.21 230.99,-338.77 238.58,-344.12"/>
<polygon fill="black" stroke="black" points="237.94,-345.8 243.06,-347.16 239.9,-342.91 237.94,-345.8"/>
</g>
<!-- 1 of [&#39;PHYS110&#39;, &#39;PHYS120&#39;] -->
<g id="node20" class="node">
<title>1 of [&#39;PHYS110&#39;, &#39;PHYS120&#39;]</title>
<ellipse fill="#e9dbd0" stroke="#030a10" cx="145.5" cy="-80.5" rx="11" ry="11"/>
<text text-anchor="middle" x="145.5" y="-77.4" font-family="Times,serif" font-size="12.00">1</text>
</g>
<!-- 1 of [&#39;PHYS110&#39;, &#39;PHYS120&#39;]&#45;&gt;EOS210 -->
<g id="edge2" class="edge">
<title>1 of [&#39;PHYS110&#39;, &#39;PHYS120&#39;]&#45;&gt;EOS210</title>
<path fill="none" stroke="black" d="M156.24,-77.92C170.31,-74.18 197.02,-67.09 218.66,-61.35"/>
<polygon fill="black" stroke="black" points="219.38,-62.97 223.76,-59.99 218.48,-59.59 219.38,-62.97"/>
</g>
<!-- PHYS110 -->
<g id="node21" class="node">
<title>PHYS110</title>
<path fill="#f5edc9" stroke="#030a10" d="M63.5,-191C63.5,-191 11.5,-191 11.5,-191 8,-191 4.5,-187.5 4.5,-184 4.5,-184 4.5,-177 4.5,-177 4.5,-173.5 8,-170 11.5,-170 11.5,-170 63.5,-170 63.5,-170 67,-170 70.5,-173.5 70.5,-177 70.5,-177 70.5,-184 70.5,-184 70.5,-187.5 67,-191 63.5,-191"/>
<text text-anchor="middle" x="37.5" y="-177.4" font-family="Times,serif" font-size="12.00">PHYS110</text>
</g>
<!-- PHYS110&#45;&gt;PHYS111 -->
<g id="edge49" class="edge">
<title>PHYS110&#45;&gt;PHYS111</title>
<path fill="none" stroke="black" d="M70.93,-180.5C109.67,-180.5 174.33,-180.5 214.99,-180.5"/>
<polygon fill="black" stroke="black" points="215.32,-182.25 220.32,-180.5 215.32,-178.75 215.32,-182.25"/>
</g>
<!-- PHYS110&#45;&gt;1 of [&#39;PHYS110&#39;, &#39;PHYS120&#39;] -->
<g id="edge3" class="edge">
<title>PHYS110&#45;&gt;1 of [&#39;PHYS110&#39;, &#39;PHYS120&#39;]</title>
<path fill="none" stroke="black" d="M64.94,-169.96C68.57,-167.83 72.05,-165.35 75,-162.5 99.32,-139.02 86.25,-118.53 111,-95.5 116.25,-90.62 123.35,-87.13 129.67,-84.75"/>
<polygon fill="black" stroke="black" points="130.57,-86.29 134.73,-83.01 129.43,-82.98 130.57,-86.29"/>
</g>
<!-- 1 of [&#39;PHYS102A&#39;, &#39;PHYS110&#39;, &#39;PHYS120&#39;] -->
<g id="node37" class="node">
<title>1 of [&#39;PHYS102A&#39;, &#39;PHYS110&#39;, &#39;PHYS120&#39;]</title>
<ellipse fill="#e9dbd0" stroke="#030a10" cx="145.5" cy="-224.5" rx="11" ry="11"/>
<text text-anchor="middle" x="145.5" y="-221.4" font-family="Times,serif" font-size="12.00">1</text>
</g>
<!-- PHYS110&#45;&gt;1 of [&#39;PHYS102A&#39;, &#39;PHYS110&#39;, &#39;PHYS120&#39;] -->
<g id="edge45" class="edge">
<title>PHYS110&#45;&gt;1 of [&#39;PHYS102A&#39;, &#39;PHYS110&#39;, &#39;PHYS120&#39;]</title>
<path fill="none" stroke="black" d="M63.89,-191.04C84.65,-199.66 113.25,-211.53 130.21,-218.57"/>
<polygon fill="black" stroke="black" points="129.79,-220.29 135.08,-220.59 131.13,-217.06 129.79,-220.29"/>
</g>
<!-- PHYS120 -->
<g id="node22" class="node">
<title>PHYS120</title>
<path fill="#f5edc9" stroke="#030a10" d="M63.5,-159C63.5,-159 11.5,-159 11.5,-159 8,-159 4.5,-155.5 4.5,-152 4.5,-152 4.5,-145 4.5,-145 4.5,-141.5 8,-138 11.5,-138 11.5,-138 63.5,-138 63.5,-138 67,-138 70.5,-141.5 70.5,-145 70.5,-145 70.5,-152 70.5,-152 70.5,-155.5 67,-159 63.5,-159"/>
<text text-anchor="middle" x="37.5" y="-145.4" font-family="Times,serif" font-size="12.00">PHYS120</text>
</g>
<!-- PHYS120&#45;&gt;PHYS130 -->
<g id="edge47" class="edge">
<title>PHYS120&#45;&gt;PHYS130</title>
<path fill="none" stroke="black" d="M70.93,-144.85C109.55,-140.51 173.96,-133.27 214.64,-128.7"/>
<polygon fill="black" stroke="black" points="215.2,-130.4 219.97,-128.1 214.8,-126.92 215.2,-130.4"/>
</g>
<!-- PHYS120&#45;&gt;1 of [&#39;PHYS110&#39;, &#39;PHYS120&#39;] -->
<g id="edge4" class="edge">
<title>PHYS120&#45;&gt;1 of [&#39;PHYS110&#39;, &#39;PHYS120&#39;]</title>
<path fill="none" stroke="black" d="M51.29,-137.86C65.35,-126.48 88.89,-108.34 111,-95.5 117.03,-92 124.02,-88.75 130.05,-86.18"/>
<polygon fill="black" stroke="black" points="130.9,-87.72 134.85,-84.19 129.56,-84.49 130.9,-87.72"/>
</g>
<!-- PHYS120&#45;&gt;1 of [&#39;PHYS102A&#39;, &#39;PHYS110&#39;, &#39;PHYS120&#39;] -->
<g id="edge46" class="edge">
<title>PHYS120&#45;&gt;1 of [&#39;PHYS102A&#39;, &#39;PHYS110&#39;, &#39;PHYS120&#39;]</title>
<path fill="none" stroke="black" d="M63.24,-159.04C67.34,-161.25 71.41,-163.75 75,-166.5 94.24,-181.26 91.84,-192.63 111,-207.5 116.72,-211.94 123.77,-215.72 129.93,-218.58"/>
<polygon fill="black" stroke="black" points="129.56,-220.34 134.84,-220.77 130.98,-217.14 129.56,-220.34"/>
</g>
<!-- PHYS120&#45;&gt;1 of [&#39;PHYS102B&#39;, &#39;PHYS111&#39;, &#39;PHYS120&#39;] -->
<g id="edge64" class="edge">
<title>PHYS120&#45;&gt;1 of [&#39;PHYS102B&#39;, &#39;PHYS111&#39;, &#39;PHYS120&#39;]</title>
<path fill="none" stroke="black" d="M70.81,-158.94C106.08,-169.85 164.41,-186.46 216,-194.5 262.43,-201.73 318.16,-202.66 344.62,-202.64"/>
<polygon fill="black" stroke="black" points="344.81,-204.39 349.8,-202.62 344.8,-200.89 344.81,-204.39"/>
</g>
<!-- 1 of [&#39;MATH202&#39;, &#39;MATH204&#39;]&#45;&gt;EOS325 -->
<g id="edge5" class="edge">
<title>1 of [&#39;MATH202&#39;, &#39;MATH204&#39;]&#45;&gt;EOS325</title>
<path fill="none" stroke="black" d="M372.1,-65.28C395.49,-65.08 454.88,-66.36 501,-82.5 565.03,-104.91 571.71,-129.52 631,-162.5 631.65,-162.86 632.32,-163.23 632.99,-163.59"/>
<polygon fill="black" stroke="black" points="632.26,-165.19 637.5,-165.99 633.9,-162.1 632.26,-165.19"/>
</g>
<!-- 1 of [&#39;CSC110&#39;, &#39;CSC111&#39;, &#39;EOS210&#39;, &#39;EOS230&#39;, &#39;GEOG230&#39;, &#39;EOS261&#39;, &#39;EOS314&#39;]&#45;&gt;EOS325 -->
<g id="edge8" class="edge">
<title>1 of [&#39;CSC110&#39;, &#39;CSC111&#39;, &#39;EOS210&#39;, &#39;EOS230&#39;, &#39;GEOG230&#39;, &#39;EOS261&#39;, &#39;EOS314&#39;]&#45;&gt;EOS325</title>
<path fill="none" stroke="black" d="M576.5,-205.2C588.08,-201.17 608.28,-194.14 625.79,-188.05"/>
<polygon fill="black" stroke="black" points="626.5,-189.66 630.65,-186.36 625.35,-186.35 626.5,-189.66"/>
</g>
<!-- 1 of [&#39;PHYS102B&#39;, &#39;PHYS111&#39;, &#39;PHYS130&#39;]&#45;&gt;EOS325 -->
<g id="edge16" class="edge">
<title>1 of [&#39;PHYS102B&#39;, &#39;PHYS111&#39;, &#39;PHYS130&#39;]&#45;&gt;EOS325</title>
<path fill="none" stroke="black" d="M372.14,-144.76C395.13,-145.42 452.92,-147.48 501,-152.5 544.35,-157.03 593.99,-165.04 625.88,-170.55"/>
<polygon fill="black" stroke="black" points="625.62,-172.28 630.85,-171.41 626.22,-168.83 625.62,-172.28"/>
</g>
<!-- 1 of [&#39;EOS225&#39;, &#39;EOS325&#39;]&#45;&gt;EOS423 -->
<g id="edge23" class="edge">
<title>1 of [&#39;EOS225&#39;, &#39;EOS325&#39;]&#45;&gt;EOS423</title>
<path fill="none" stroke="black" d="M746.98,-177.98C754.92,-179.16 766.5,-180.89 777.64,-182.54"/>
<polygon fill="black" stroke="black" points="777.51,-184.29 782.71,-183.3 778.03,-180.83 777.51,-184.29"/>
</g>
<!-- CHEM102 -->
<g id="node27" class="node">
<title>CHEM102</title>
<path fill="#f5edc9" stroke="#030a10" d="M389,-378C389,-378 333,-378 333,-378 329.5,-378 326,-374.5 326,-371 326,-371 326,-364 326,-364 326,-360.5 329.5,-357 333,-357 333,-357 389,-357 389,-357 392.5,-357 396,-360.5 396,-364 396,-364 396,-371 396,-371 396,-374.5 392.5,-378 389,-378"/>
<text text-anchor="middle" x="361" y="-364.4" font-family="Times,serif" font-size="12.00">CHEM102</text>
</g>
<!-- CHEM102&#45;&gt;EOS205 -->
<g id="edge27" class="edge">
<title>CHEM102&#45;&gt;EOS205</title>
<path fill="none" stroke="black" d="M396.18,-368.16C407.72,-368.38 420.58,-368.63 432.06,-368.85"/>
<polygon fill="black" stroke="black" points="432.2,-370.61 437.23,-368.95 432.26,-367.11 432.2,-370.61"/>
</g>
<!-- CHEM102&#45;&gt;EOS261 -->
<g id="edge34" class="edge">
<title>CHEM102&#45;&gt;EOS261</title>
<path fill="none" stroke="black" d="M365.66,-356.65C376.59,-324.72 409.66,-231.93 432,-209.5 432.4,-209.09 432.82,-208.7 433.25,-208.31"/>
<polygon fill="black" stroke="black" points="434.52,-209.54 437.39,-205.09 432.37,-206.78 434.52,-209.54"/>
</g>
<!-- 1 of [&#39;EOS110&#39;, &#39;EOS130&#39;, &#39;GEOG130&#39;, &#39;GEOG103&#39;] -->
<g id="node28" class="node">
<title>1 of [&#39;EOS110&#39;, &#39;EOS130&#39;, &#39;GEOG130&#39;, &#39;GEOG103&#39;]</title>
<ellipse fill="#e9dbd0" stroke="#030a10" cx="361" cy="-252.5" rx="11" ry="11"/>
<text text-anchor="middle" x="361" y="-249.4" font-family="Times,serif" font-size="12.00">1</text>
</g>
<!-- 1 of [&#39;EOS110&#39;, &#39;EOS130&#39;, &#39;GEOG130&#39;, &#39;GEOG103&#39;]&#45;&gt;EOS261 -->
<g id="edge29" class="edge">
<title>1 of [&#39;EOS110&#39;, &#39;EOS130&#39;, &#39;GEOG130&#39;, &#39;GEOG103&#39;]&#45;&gt;EOS261</title>
<path fill="none" stroke="black" d="M370.84,-246.55C383.91,-237.88 409.3,-221.49 432,-209.5 433.32,-208.8 434.68,-208.11 436.06,-207.42"/>
<polygon fill="black" stroke="black" points="437.07,-208.87 440.81,-205.12 435.55,-205.72 437.07,-208.87"/>
</g>
<!-- EOS110 -->
<g id="node29" class="node">
<title>EOS110</title>
<path fill="#f5edc9" stroke="#030a10" d="M275,-291C275,-291 231,-291 231,-291 227.5,-291 224,-287.5 224,-284 224,-284 224,-277 224,-277 224,-273.5 227.5,-270 231,-270 231,-270 275,-270 275,-270 278.5,-270 282,-273.5 282,-277 282,-277 282,-284 282,-284 282,-287.5 278.5,-291 275,-291"/>
<text text-anchor="middle" x="253" y="-277.4" font-family="Times,serif" font-size="12.00">EOS110</text>
</g>
<!-- EOS110&#45;&gt;1 of [&#39;EOS110&#39;, &#39;EOS130&#39;, &#39;GEOG130&#39;, &#39;GEOG103&#39;] -->
<g id="edge30" class="edge">
<title>EOS110&#45;&gt;1 of [&#39;EOS110&#39;, &#39;EOS130&#39;, &#39;GEOG130&#39;, &#39;GEOG103&#39;]</title>
<path fill="none" stroke="black" d="M282.13,-273.07C302.3,-267.74 328.68,-260.77 344.97,-256.47"/>
<polygon fill="black" stroke="black" points="345.7,-258.09 350.09,-255.12 344.81,-254.7 345.7,-258.09"/>
</g>
<!-- EOS130 -->
<g id="node30" class="node">
<title>EOS130</title>
<path fill="#f5edc9" stroke="#030a10" d="M275,-263C275,-263 231,-263 231,-263 227.5,-263 224,-259.5 224,-256 224,-256 224,-249 224,-249 224,-245.5 227.5,-242 231,-242 231,-242 275,-242 275,-242 278.5,-242 282,-245.5 282,-249 282,-249 282,-256 282,-256 282,-259.5 278.5,-263 275,-263"/>
<text text-anchor="middle" x="253" y="-249.4" font-family="Times,serif" font-size="12.00">EOS130</text>
</g>
<!-- EOS130&#45;&gt;1 of [&#39;EOS110&#39;, &#39;EOS130&#39;, &#39;GEOG130&#39;, &#39;GEOG103&#39;] -->
<g id="edge31" class="edge">
<title>EOS130&#45;&gt;1 of [&#39;EOS110&#39;, &#39;EOS130&#39;, &#39;GEOG130&#39;, &#39;GEOG103&#39;]</title>
<path fill="none" stroke="black" d="M282.13,-252.5C302.19,-252.5 328.39,-252.5 344.71,-252.5"/>
<polygon fill="black" stroke="black" points="344.84,-254.25 349.84,-252.5 344.84,-250.75 344.84,-254.25"/>
</g>
<!-- GEOG130 -->
<g id="node31" class="node">
<title>GEOG130</title>
<path fill="#f5edc9" stroke="#030a10" d="M280.5,-235C280.5,-235 225.5,-235 225.5,-235 222,-235 218.5,-231.5 218.5,-228 218.5,-228 218.5,-221 218.5,-221 218.5,-217.5 222,-214 225.5,-214 225.5,-214 280.5,-214 280.5,-214 284,-214 287.5,-217.5 287.5,-221 287.5,-221 287.5,-228 287.5,-228 287.5,-231.5 284,-235 280.5,-235"/>
<text text-anchor="middle" x="253" y="-221.4" font-family="Times,serif" font-size="12.00">GEOG130</text>
</g>
<!-- GEOG130&#45;&gt;1 of [&#39;EOS110&#39;, &#39;EOS130&#39;, &#39;GEOG130&#39;, &#39;GEOG103&#39;] -->
<g id="edge32" class="edge">
<title>GEOG130&#45;&gt;1 of [&#39;EOS110&#39;, &#39;EOS130&#39;, &#39;GEOG130&#39;, &#39;GEOG103&#39;]</title>
<path fill="none" stroke="black" d="M287.54,-233.36C306.77,-238.44 329.97,-244.57 344.85,-248.5"/>
<polygon fill="black" stroke="black" points="344.65,-250.26 349.93,-249.84 345.54,-246.87 344.65,-250.26"/>
</g>
<!-- GEOG103 -->
<g id="node32" class="node">
<title>GEOG103</title>
<path fill="#f5edc9" stroke="#030a10" d="M280.5,-319C280.5,-319 225.5,-319 225.5,-319 222,-319 218.5,-315.5 218.5,-312 218.5,-312 218.5,-305 218.5,-305 218.5,-301.5 222,-298 225.5,-298 225.5,-298 280.5,-298 280.5,-298 284,-298 287.5,-301.5 287.5,-305 287.5,-305 287.5,-312 287.5,-312 287.5,-315.5 284,-319 280.5,-319"/>
<text text-anchor="middle" x="253" y="-305.4" font-family="Times,serif" font-size="12.00">GEOG103</text>
</g>
<!-- GEOG103&#45;&gt;1 of [&#39;EOS110&#39;, &#39;EOS130&#39;, &#39;GEOG130&#39;, &#39;GEOG103&#39;] -->
<g id="edge33" class="edge">
<title>GEOG103&#45;&gt;1 of [&#39;EOS110&#39;, &#39;EOS130&#39;, &#39;GEOG130&#39;, &#39;GEOG103&#39;]</title>
<path fill="none" stroke="black" d="M282.49,-297.94C285.06,-296.83 287.59,-295.68 290,-294.5 310.58,-284.41 333.09,-270.31 346.88,-261.29"/>
<polygon fill="black" stroke="black" points="348,-262.65 351.21,-258.44 346.07,-259.73 348,-262.65"/>
</g>
<!-- 1 of [&#39;PHYS111&#39;, &#39;PHYS130&#39;, &#39;PHYS102B&#39;]&#45;&gt;EOS261 -->
<g id="edge36" class="edge">
<title>1 of [&#39;PHYS111&#39;, &#39;PHYS130&#39;, &#39;PHYS102B&#39;]&#45;&gt;EOS261</title>
<path fill="none" stroke="black" d="M371.92,-175.51C385.7,-178.31 411.27,-183.5 432.21,-187.74"/>
<polygon fill="black" stroke="black" points="431.9,-189.47 437.14,-188.75 432.59,-186.04 431.9,-189.47"/>
</g>
<!-- 1 of [&#39;MATH200&#39;, &#39;MATH205&#39;] -->
<g id="node34" class="node">
<title>1 of [&#39;MATH200&#39;, &#39;MATH205&#39;]</title>
<ellipse fill="#e9dbd0" stroke="#030a10" cx="145.5" cy="-24.5" rx="11" ry="11"/>
<text text-anchor="middle" x="145.5" y="-21.4" font-family="Times,serif" font-size="12.00">1</text>
</g>
<!-- 1 of [&#39;MATH200&#39;, &#39;MATH205&#39;]&#45;&gt;MATH204 -->
<g id="edge40" class="edge">
<title>1 of [&#39;MATH200&#39;, &#39;MATH205&#39;]&#45;&gt;MATH204</title>
<path fill="none" stroke="black" d="M156.62,-24.5C169.64,-24.5 193.03,-24.5 213.39,-24.5"/>
<polygon fill="black" stroke="black" points="213.49,-26.25 218.49,-24.5 213.49,-22.75 213.49,-26.25"/>
</g>
<!-- MATH200 -->
<g id="node35" class="node">
<title>MATH200</title>
<path fill="#f5edc9" stroke="#030a10" d="M65,-49C65,-49 10,-49 10,-49 6.5,-49 3,-45.5 3,-42 3,-42 3,-35 3,-35 3,-31.5 6.5,-28 10,-28 10,-28 65,-28 65,-28 68.5,-28 72,-31.5 72,-35 72,-35 72,-42 72,-42 72,-45.5 68.5,-49 65,-49"/>
<text text-anchor="middle" x="37.5" y="-35.4" font-family="Times,serif" font-size="12.00">MATH200</text>
</g>
<!-- MATH200&#45;&gt;1 of [&#39;MATH200&#39;, &#39;MATH205&#39;] -->
<g id="edge41" class="edge">
<title>MATH200&#45;&gt;1 of [&#39;MATH200&#39;, &#39;MATH205&#39;]</title>
<path fill="none" stroke="black" d="M72.04,-34.07C91.27,-31.53 114.47,-28.47 129.35,-26.5"/>
<polygon fill="black" stroke="black" points="129.7,-28.22 134.43,-25.83 129.25,-24.75 129.7,-28.22"/>
</g>
<!-- MATH205 -->
<g id="node36" class="node">
<title>MATH205</title>
<path fill="#f5edc9" stroke="#030a10" d="M65,-21C65,-21 10,-21 10,-21 6.5,-21 3,-17.5 3,-14 3,-14 3,-7 3,-7 3,-3.5 6.5,0 10,0 10,0 65,0 65,0 68.5,0 72,-3.5 72,-7 72,-7 72,-14 72,-14 72,-17.5 68.5,-21 65,-21"/>
<text text-anchor="middle" x="37.5" y="-7.4" font-family="Times,serif" font-size="12.00">MATH205</text>
</g>
<!-- MATH205&#45;&gt;1 of [&#39;MATH200&#39;, &#39;MATH205&#39;] -->
<g id="edge42" class="edge">
<title>MATH205&#45;&gt;1 of [&#39;MATH200&#39;, &#39;MATH205&#39;]</title>
<path fill="none" stroke="black" d="M72.04,-14.93C91.27,-17.47 114.47,-20.53 129.35,-22.5"/>
<polygon fill="black" stroke="black" points="129.25,-24.25 134.43,-23.17 129.7,-20.78 129.25,-24.25"/>
</g>
<!-- 1 of [&#39;PHYS102A&#39;, &#39;PHYS110&#39;, &#39;PHYS120&#39;]&#45;&gt;PHYS102B -->
<g id="edge43" class="edge">
<title>1 of [&#39;PHYS102A&#39;, &#39;PHYS110&#39;, &#39;PHYS120&#39;]&#45;&gt;PHYS102B</title>
<path fill="none" stroke="black" d="M153.99,-216.8C166.09,-204.73 191.1,-181.2 216,-166.5 216.65,-166.12 217.31,-165.74 217.98,-165.37"/>
<polygon fill="black" stroke="black" points="218.89,-166.87 222.54,-163.03 217.29,-163.76 218.89,-166.87"/>
</g>
<!-- 1 of [&#39;PHYS102A&#39;, &#39;PHYS110&#39;, &#39;PHYS120&#39;]&#45;&gt;EOS314 -->
<g id="edge60" class="edge">
<title>1 of [&#39;PHYS102A&#39;, &#39;PHYS110&#39;, &#39;PHYS120&#39;]&#45;&gt;EOS314</title>
<path fill="none" stroke="black" d="M152.55,-233.13C169.23,-256.95 214.79,-321.87 216,-322.5 253.25,-341.75 373.38,-307.93 432.3,-289.4"/>
<polygon fill="black" stroke="black" points="432.88,-291.06 437.12,-287.88 431.82,-287.72 432.88,-291.06"/>
</g>
<!-- PHYS102A -->
<g id="node38" class="node">
<title>PHYS102A</title>
<path fill="#f5edc9" stroke="#030a10" d="M68,-235C68,-235 7,-235 7,-235 3.5,-235 0,-231.5 0,-228 0,-228 0,-221 0,-221 0,-217.5 3.5,-214 7,-214 7,-214 68,-214 68,-214 71.5,-214 75,-217.5 75,-221 75,-221 75,-228 75,-228 75,-231.5 71.5,-235 68,-235"/>
<text text-anchor="middle" x="37.5" y="-221.4" font-family="Times,serif" font-size="12.00">PHYS102A</text>
</g>
<!-- PHYS102A&#45;&gt;1 of [&#39;PHYS102A&#39;, &#39;PHYS110&#39;, &#39;PHYS120&#39;] -->
<g id="edge44" class="edge">
<title>PHYS102A&#45;&gt;1 of [&#39;PHYS102A&#39;, &#39;PHYS110&#39;, &#39;PHYS120&#39;]</title>
<path fill="none" stroke="black" d="M75.28,-224.5C93.65,-224.5 114.89,-224.5 128.95,-224.5"/>
<polygon fill="black" stroke="black" points="129.15,-226.25 134.15,-224.5 129.15,-222.75 129.15,-226.25"/>
</g>
<!-- 1 of [&#39;MATH100&#39;, &#39;MATH102&#39;, &#39;MATH109&#39;] -->
<g id="node39" class="node">
<title>1 of [&#39;MATH100&#39;, &#39;MATH102&#39;, &#39;MATH109&#39;]</title>
<ellipse fill="#e9dbd0" stroke="#030a10" cx="145.5" cy="-301.5" rx="11" ry="11"/>
<text text-anchor="middle" x="145.5" y="-298.4" font-family="Times,serif" font-size="12.00">1</text>
</g>
<!-- 1 of [&#39;MATH100&#39;, &#39;MATH102&#39;, &#39;MATH109&#39;]&#45;&gt;PHYS111 -->
<g id="edge50" class="edge">
<title>1 of [&#39;MATH100&#39;, &#39;MATH102&#39;, &#39;MATH109&#39;]&#45;&gt;PHYS111</title>
<path fill="none" stroke="black" d="M152.23,-292.71C163.43,-275.86 189.45,-238.2 216,-210.5 221.4,-204.87 227.8,-199.25 233.7,-194.42"/>
<polygon fill="black" stroke="black" points="234.89,-195.71 237.69,-191.21 232.69,-192.98 234.89,-195.71"/>
</g>
<!-- MATH100 -->
<g id="node40" class="node">
<title>MATH100</title>
<path fill="#f5edc9" stroke="#030a10" d="M65,-294C65,-294 10,-294 10,-294 6.5,-294 3,-290.5 3,-287 3,-287 3,-280 3,-280 3,-276.5 6.5,-273 10,-273 10,-273 65,-273 65,-273 68.5,-273 72,-276.5 72,-280 72,-280 72,-287 72,-287 72,-290.5 68.5,-294 65,-294"/>
<text text-anchor="middle" x="37.5" y="-280.4" font-family="Times,serif" font-size="12.00">MATH100</text>
</g>
<!-- MATH100&#45;&gt;1 of [&#39;MATH100&#39;, &#39;MATH102&#39;, &#39;MATH109&#39;] -->
<g id="edge51" class="edge">
<title>MATH100&#45;&gt;1 of [&#39;MATH100&#39;, &#39;MATH102&#39;, &#39;MATH109&#39;]</title>
<path fill="none" stroke="black" d="M72.04,-289.2C91.27,-292.46 114.47,-296.4 129.35,-298.93"/>
<polygon fill="black" stroke="black" points="129.21,-300.68 134.43,-299.79 129.8,-297.23 129.21,-300.68"/>
</g>
<!-- MATH100&#45;&gt;2 of [&#39;MATH100&#39;, &#39;MATH101&#39;, &#39;MATH102&#39;, &#39;MATH109&#39;, &#39;MATH151&#39;] -->
<g id="edge55" class="edge">
<title>MATH100&#45;&gt;2 of [&#39;MATH100&#39;, &#39;MATH101&#39;, &#39;MATH102&#39;, &#39;MATH109&#39;, &#39;MATH151&#39;]</title>
<path fill="none" stroke="black" d="M72.28,-276.57C102.3,-272.17 146.5,-270.15 180,-287.5 203.68,-299.76 195.34,-318.64 216,-335.5 222.32,-340.65 230.45,-344.67 237.39,-347.5"/>
<polygon fill="black" stroke="black" points="237.12,-349.27 242.42,-349.43 238.38,-346 237.12,-349.27"/>
</g>
<!-- MATH102 -->
<g id="node41" class="node">
<title>MATH102</title>
<path fill="#f5edc9" stroke="#030a10" d="M65,-338C65,-338 10,-338 10,-338 6.5,-338 3,-334.5 3,-331 3,-331 3,-324 3,-324 3,-320.5 6.5,-317 10,-317 10,-317 65,-317 65,-317 68.5,-317 72,-320.5 72,-324 72,-324 72,-331 72,-331 72,-334.5 68.5,-338 65,-338"/>
<text text-anchor="middle" x="37.5" y="-324.4" font-family="Times,serif" font-size="12.00">MATH102</text>
</g>
<!-- MATH102&#45;&gt;1 of [&#39;MATH100&#39;, &#39;MATH102&#39;, &#39;MATH109&#39;] -->
<g id="edge52" class="edge">
<title>MATH102&#45;&gt;1 of [&#39;MATH100&#39;, &#39;MATH102&#39;, &#39;MATH109&#39;]</title>
<path fill="none" stroke="black" d="M72.04,-319.27C91.27,-314.56 114.47,-308.87 129.35,-305.22"/>
<polygon fill="black" stroke="black" points="129.99,-306.86 134.43,-303.97 129.16,-303.46 129.99,-306.86"/>
</g>
<!-- MATH102&#45;&gt;2 of [&#39;MATH100&#39;, &#39;MATH101&#39;, &#39;MATH102&#39;, &#39;MATH109&#39;, &#39;MATH151&#39;] -->
<g id="edge57" class="edge">
<title>MATH102&#45;&gt;2 of [&#39;MATH100&#39;, &#39;MATH101&#39;, &#39;MATH102&#39;, &#39;MATH109&#39;, &#39;MATH151&#39;]</title>
<path fill="none" stroke="black" d="M72.2,-336.68C84.34,-339.65 98.2,-342.65 111,-344.5 156.31,-351.05 210.53,-352.3 236.56,-352.5"/>
<polygon fill="black" stroke="black" points="236.67,-354.25 241.68,-352.53 236.69,-350.75 236.67,-354.25"/>
</g>
<!-- MATH109 -->
<g id="node42" class="node">
<title>MATH109</title>
<path fill="#f5edc9" stroke="#030a10" d="M65,-374C65,-374 10,-374 10,-374 6.5,-374 3,-370.5 3,-367 3,-367 3,-360 3,-360 3,-356.5 6.5,-353 10,-353 10,-353 65,-353 65,-353 68.5,-353 72,-356.5 72,-360 72,-360 72,-367 72,-367 72,-370.5 68.5,-374 65,-374"/>
<text text-anchor="middle" x="37.5" y="-360.4" font-family="Times,serif" font-size="12.00">MATH109</text>
</g>
<!-- MATH109&#45;&gt;1 of [&#39;MATH100&#39;, &#39;MATH102&#39;, &#39;MATH109&#39;] -->
<g id="edge53" class="edge">
<title>MATH109&#45;&gt;1 of [&#39;MATH100&#39;, &#39;MATH102&#39;, &#39;MATH109&#39;]</title>
<path fill="none" stroke="black" d="M56.46,-352.99C62.41,-349.42 69.04,-345.36 75,-341.5 91.35,-330.91 94.04,-326.08 111,-316.5 117.07,-313.07 124.07,-309.84 130.09,-307.25"/>
<polygon fill="black" stroke="black" points="130.95,-308.79 134.88,-305.25 129.6,-305.56 130.95,-308.79"/>
</g>
<!-- MATH109&#45;&gt;2 of [&#39;MATH100&#39;, &#39;MATH101&#39;, &#39;MATH102&#39;, &#39;MATH109&#39;, &#39;MATH151&#39;] -->
<g id="edge58" class="edge">
<title>MATH109&#45;&gt;2 of [&#39;MATH100&#39;, &#39;MATH101&#39;, &#39;MATH102&#39;, &#39;MATH109&#39;, &#39;MATH151&#39;]</title>
<path fill="none" stroke="black" d="M72.25,-362.32C100.92,-361.27 143.18,-359.56 180,-357.5 199.44,-356.41 221.8,-354.8 236.38,-353.71"/>
<polygon fill="black" stroke="black" points="236.9,-355.42 241.75,-353.3 236.63,-351.93 236.9,-355.42"/>
</g>
<!-- 2 of [&#39;MATH100&#39;, &#39;MATH101&#39;, &#39;MATH102&#39;, &#39;MATH109&#39;, &#39;MATH151&#39;]&#45;&gt;EOS314 -->
<g id="edge54" class="edge">
<title>2 of [&#39;MATH100&#39;, &#39;MATH101&#39;, &#39;MATH102&#39;, &#39;MATH109&#39;, &#39;MATH151&#39;]&#45;&gt;EOS314</title>
<path fill="none" stroke="black" d="M264.29,-352.23C292.95,-351.32 373.11,-347.73 396,-335.5 417.68,-323.92 412.3,-308.21 432,-293.5 432.8,-292.9 433.64,-292.32 434.49,-291.75"/>
<polygon fill="black" stroke="black" points="435.54,-293.16 438.9,-289.06 433.72,-290.17 435.54,-293.16"/>
</g>
<!-- MATH151 -->
<g id="node44" class="node">
<title>MATH151</title>
<path fill="#f5edc9" stroke="#030a10" d="M173,-341C173,-341 118,-341 118,-341 114.5,-341 111,-337.5 111,-334 111,-334 111,-327 111,-327 111,-323.5 114.5,-320 118,-320 118,-320 173,-320 173,-320 176.5,-320 180,-323.5 180,-327 180,-327 180,-334 180,-334 180,-337.5 176.5,-341 173,-341"/>
<text text-anchor="middle" x="145.5" y="-327.4" font-family="Times,serif" font-size="12.00">MATH151</text>
</g>
<!-- MATH151&#45;&gt;2 of [&#39;MATH100&#39;, &#39;MATH101&#39;, &#39;MATH102&#39;, &#39;MATH109&#39;, &#39;MATH151&#39;] -->
<g id="edge59" class="edge">
<title>MATH151&#45;&gt;2 of [&#39;MATH100&#39;, &#39;MATH101&#39;, &#39;MATH102&#39;, &#39;MATH109&#39;, &#39;MATH151&#39;]</title>
<path fill="none" stroke="black" d="M180.17,-337.52C199.29,-341.51 222.28,-346.3 237.01,-349.37"/>
<polygon fill="black" stroke="black" points="236.79,-351.11 242.04,-350.42 237.5,-347.69 236.79,-351.11"/>
</g>
<!-- 1 of [&#39;PHYS102B&#39;, &#39;PHYS111&#39;, &#39;PHYS120&#39;]&#45;&gt;EOS314 -->
<g id="edge61" class="edge">
<title>1 of [&#39;PHYS102B&#39;, &#39;PHYS111&#39;, &#39;PHYS120&#39;]&#45;&gt;EOS314</title>
<path fill="none" stroke="black" d="M369.1,-210.27C381.06,-222.99 406.42,-248.45 432,-264.5 432.48,-264.8 432.97,-265.1 433.46,-265.39"/>
<polygon fill="black" stroke="black" points="432.84,-267.05 438.06,-267.92 434.52,-263.98 432.84,-267.05"/>
</g>
</g>
</svg>
