<?xml version="1.0" encoding="UTF-8" standalone="no"?>
<!DOCTYPE svg PUBLIC "-//W3C//DTD SVG 1.1//EN"
 "http://www.w3.org/Graphics/SVG/1.1/DTD/svg11.dtd">
<!-- Generated by graphviz version 2.43.0 (0)
 -->
<!-- Title: unix Pages: 1 -->
<svg width="454pt" height="107pt"
 viewBox="0.00 0.00 454.00 107.00" xmlns="http://www.w3.org/2000/svg" xmlns:xlink="http://www.w3.org/1999/xlink">
<g id="graph0" class="graph" transform="scale(1 1) rotate(0) translate(4 103)">
<title>unix</title>
<polygon fill="white" stroke="transparent" points="-4,4 -4,-103 450,-103 450,4 -4,4"/>
<text text-anchor="middle" x="223" y="-83.8" font-family="Times,serif" font-size="14.00">EOS400: Advanced Field Geology</text>
<!-- EOS201 -->
<g id="node1" class="node">
<title>EOS201</title>
<path fill="#f5edc9" stroke="#030a10" d="M251,-54C251,-54 207,-54 207,-54 203.5,-54 200,-50.5 200,-47 200,-47 200,-40 200,-40 200,-36.5 203.5,-33 207,-33 207,-33 251,-33 251,-33 254.5,-33 258,-36.5 258,-40 258,-40 258,-47 258,-47 258,-50.5 254.5,-54 251,-54"/>
<text text-anchor="middle" x="229" y="-40.4" font-family="Times,serif" font-size="12.00">EOS201</text>
</g>
<!-- EOS300 -->
<g id="node6" class="node">
<title>EOS300</title>
<path fill="#e7a79b" stroke="#030a10" d="M345,-51C345,-51 301,-51 301,-51 297.5,-51 294,-47.5 294,-44 294,-44 294,-37 294,-37 294,-33.5 297.5,-30 301,-30 301,-30 345,-30 345,-30 348.5,-30 352,-33.5 352,-37 352,-37 352,-44 352,-44 352,-47.5 348.5,-51 345,-51"/>
<text text-anchor="middle" x="323" y="-37.4" font-family="Times,serif" font-size="12.00">EOS300</text>
</g>
<!-- EOS201&#45;&gt;EOS300 -->
<g id="edge9" class="edge">
<title>EOS201&#45;&gt;EOS300</title>
<path fill="none" stroke="black" d="M258.1,-42.58C267.73,-42.27 278.6,-41.92 288.61,-41.59"/>
<polygon fill="black" stroke="black" points="288.81,-43.33 293.75,-41.42 288.7,-39.84 288.81,-43.33"/>
</g>
<!-- EOS316 -->
<g id="node2" class="node">
<title>EOS316</title>
<path fill="#e7a79b" stroke="#030a10" d="M345,-21C345,-21 301,-21 301,-21 297.5,-21 294,-17.5 294,-14 294,-14 294,-7 294,-7 294,-3.5 297.5,0 301,0 301,0 345,0 345,0 348.5,0 352,-3.5 352,-7 352,-7 352,-14 352,-14 352,-17.5 348.5,-21 345,-21"/>
<text text-anchor="middle" x="323" y="-7.4" font-family="Times,serif" font-size="12.00">EOS316</text>
</g>
<!-- EOS400 -->
<g id="node5" class="node">
<title>EOS400</title>
<path fill="#9fa7be" stroke="#030a10" d="M439,-35C439,-35 395,-35 395,-35 391.5,-35 388,-31.5 388,-28 388,-28 388,-21 388,-21 388,-17.5 391.5,-14 395,-14 395,-14 439,-14 439,-14 442.5,-14 446,-17.5 446,-21 446,-21 446,-28 446,-28 446,-31.5 442.5,-35 439,-35"/>
<text text-anchor="middle" x="417" y="-21.4" font-family="Times,serif" font-size="12.00">EOS400</text>
</g>
<!-- EOS316&#45;&gt;EOS400 -->
<g id="edge8" class="edge">
<title>EOS316&#45;&gt;EOS400</title>
<path fill="none" stroke="black" d="M352.1,-14.78C361.73,-16.24 372.6,-17.9 382.61,-19.42"/>
<polygon fill="black" stroke="black" points="382.55,-21.18 387.75,-20.2 383.07,-17.72 382.55,-21.18"/>
</g>
<!-- EOS205 -->
<g id="node3" class="node">
<title>EOS205</title>
<path fill="#f5edc9" stroke="#030a10" d="M157,-32C157,-32 113,-32 113,-32 109.5,-32 106,-28.5 106,-25 106,-25 106,-18 106,-18 106,-14.5 109.5,-11 113,-11 113,-11 157,-11 157,-11 160.5,-11 164,-14.5 164,-18 164,-18 164,-25 164,-25 164,-28.5 160.5,-32 157,-32"/>
<text text-anchor="middle" x="135" y="-18.4" font-family="Times,serif" font-size="12.00">EOS205</text>
</g>
<!-- EOS205&#45;&gt;EOS201 -->
<g id="edge2" class="edge">
<title>EOS205&#45;&gt;EOS201</title>
<path fill="none" stroke="black" d="M164.1,-28.22C173.82,-30.54 184.8,-33.17 194.88,-35.58"/>
<polygon fill="black" stroke="black" points="194.48,-37.28 199.75,-36.75 195.3,-33.88 194.48,-37.28"/>
</g>
<!-- EOS205&#45;&gt;EOS316 -->
<g id="edge3" class="edge">
<title>EOS205&#45;&gt;EOS316</title>
<path fill="none" stroke="black" d="M164.03,-19.13C175.21,-18.24 188.21,-17.25 200,-16.5 230.03,-14.59 264.26,-12.95 288.8,-11.87"/>
<polygon fill="black" stroke="black" points="288.96,-13.62 293.88,-11.65 288.81,-10.12 288.96,-13.62"/>
</g>
<!-- EOS205&#45;&gt;EOS300 -->
<g id="edge11" class="edge">
<title>EOS205&#45;&gt;EOS300</title>
<path fill="none" stroke="black" d="M164.18,-22.51C188.96,-23.6 225.96,-25.71 258,-29.5 268.01,-30.69 278.84,-32.38 288.69,-34.09"/>
<polygon fill="black" stroke="black" points="288.51,-35.84 293.74,-34.99 289.12,-32.39 288.51,-35.84"/>
</g>
<!-- EOS202 -->
<g id="node4" class="node">
<title>EOS202</title>
<path fill="#f5edc9" stroke="#030a10" d="M157,-76C157,-76 113,-76 113,-76 109.5,-76 106,-72.5 106,-69 106,-69 106,-62 106,-62 106,-58.5 109.5,-55 113,-55 113,-55 157,-55 157,-55 160.5,-55 164,-58.5 164,-62 164,-62 164,-69 164,-69 164,-72.5 160.5,-76 157,-76"/>
<text text-anchor="middle" x="135" y="-62.4" font-family="Times,serif" font-size="12.00">EOS202</text>
</g>
<!-- EOS202&#45;&gt;EOS300 -->
<g id="edge10" class="edge">
<title>EOS202&#45;&gt;EOS300</title>
<path fill="none" stroke="black" d="M164.28,-65.2C189.12,-64.56 226.16,-62.72 258,-57.5 268.14,-55.84 279.01,-53.26 288.85,-50.61"/>
<polygon fill="black" stroke="black" points="289.54,-52.24 293.9,-49.23 288.62,-48.86 289.54,-52.24"/>
</g>
<!-- EOS300&#45;&gt;EOS400 -->
<g id="edge7" class="edge">
<title>EOS300&#45;&gt;EOS400</title>
<path fill="none" stroke="black" d="M352.1,-35.61C361.73,-33.94 372.6,-32.05 382.61,-30.31"/>
<polygon fill="black" stroke="black" points="383.13,-31.99 387.75,-29.41 382.53,-28.55 383.13,-31.99"/>
</g>
<!-- EOS120 -->
<g id="node7" class="node">
<title>EOS120</title>
<path fill="#f5edc9" stroke="#030a10" d="M57,-57C57,-57 13,-57 13,-57 9.5,-57 6,-53.5 6,-50 6,-50 6,-43 6,-43 6,-39.5 9.5,-36 13,-36 13,-36 57,-36 57,-36 60.5,-36 64,-39.5 64,-43 64,-43 64,-50 64,-50 64,-53.5 60.5,-57 57,-57"/>
<text text-anchor="middle" x="35" y="-43.4" font-family="Times,serif" font-size="12.00">EOS120</text>
</g>
<!-- EOS120&#45;&gt;EOS201 -->
<g id="edge1" class="edge">
<title>EOS120&#45;&gt;EOS201</title>
<path fill="none" stroke="black" d="M64.33,-46.06C99.03,-45.52 157.73,-44.6 194.59,-44.02"/>
<polygon fill="black" stroke="black" points="194.89,-45.77 199.87,-43.94 194.84,-42.27 194.89,-45.77"/>
</g>
<!-- EOS120&#45;&gt;EOS205 -->
<g id="edge4" class="edge">
<title>EOS120&#45;&gt;EOS205</title>
<path fill="none" stroke="black" d="M64.08,-39.34C75.56,-36.41 88.93,-33 100.89,-29.95"/>
<polygon fill="black" stroke="black" points="101.5,-31.6 105.91,-28.67 100.64,-28.21 101.5,-31.6"/>
</g>
<!-- EOS120&#45;&gt;EOS202 -->
<g id="edge6" class="edge">
<title>EOS120&#45;&gt;EOS202</title>
<path fill="none" stroke="black" d="M64.08,-51.94C75.56,-54.17 88.93,-56.76 100.89,-59.08"/>
<polygon fill="black" stroke="black" points="100.67,-60.82 105.91,-60.05 101.34,-57.38 100.67,-60.82"/>
</g>
<!-- CHEM102 -->
<g id="node8" class="node">
<title>CHEM102</title>
<path fill="#f5edc9" stroke="#030a10" d="M63,-29C63,-29 7,-29 7,-29 3.5,-29 0,-25.5 0,-22 0,-22 0,-15 0,-15 0,-11.5 3.5,-8 7,-8 7,-8 63,-8 63,-8 66.5,-8 70,-11.5 70,-15 70,-15 70,-22 70,-22 70,-25.5 66.5,-29 63,-29"/>
<text text-anchor="middle" x="35" y="-15.4" font-family="Times,serif" font-size="12.00">CHEM102</text>
</g>
<!-- CHEM102&#45;&gt;EOS205 -->
<g id="edge5" class="edge">
<title>CHEM102&#45;&gt;EOS205</title>
<path fill="none" stroke="black" d="M70,-19.54C79.98,-19.85 90.88,-20.18 100.81,-20.48"/>
<polygon fill="black" stroke="black" points="100.85,-22.24 105.9,-20.64 100.96,-18.74 100.85,-22.24"/>
</g>
</g>
</svg>
