<?xml version="1.0" encoding="UTF-8" standalone="no"?>
<!DOCTYPE svg PUBLIC "-//W3C//DTD SVG 1.1//EN"
 "http://www.w3.org/Graphics/SVG/1.1/DTD/svg11.dtd">
<!-- Generated by graphviz version 2.43.0 (0)
 -->
<!-- Title: unix Pages: 1 -->
<svg width="418pt" height="108pt"
 viewBox="0.00 0.00 418.00 108.00" xmlns="http://www.w3.org/2000/svg" xmlns:xlink="http://www.w3.org/1999/xlink">
<g id="graph0" class="graph" transform="scale(1 1) rotate(0) translate(4 104)">
<title>unix</title>
<polygon fill="white" stroke="transparent" points="-4,4 -4,-104 414,-104 414,4 -4,4"/>
<text text-anchor="middle" x="205" y="-84.8" font-family="Times,serif" font-size="14.00">EOS416: High Temperature Petrology</text>
<!-- EOS310 -->
<g id="node1" class="node">
<title>EOS310</title>
<path fill="#e7a79b" stroke="#030a10" d="M251,-77C251,-77 207,-77 207,-77 203.5,-77 200,-73.5 200,-70 200,-70 200,-63 200,-63 200,-59.5 203.5,-56 207,-56 207,-56 251,-56 251,-56 254.5,-56 258,-59.5 258,-63 258,-63 258,-70 258,-70 258,-73.5 254.5,-77 251,-77"/>
<text text-anchor="middle" x="229" y="-63.4" font-family="Times,serif" font-size="12.00">EOS310</text>
</g>
<!-- 1 of [&#39;EOS310&#39;, &#39;EOS316&#39;, &#39;EOS320&#39;] -->
<g id="node8" class="node">
<title>1 of [&#39;EOS310&#39;, &#39;EOS316&#39;, &#39;EOS320&#39;]</title>
<ellipse fill="#e9dbd0" stroke="#030a10" cx="305" cy="-38.5" rx="11" ry="11"/>
<text text-anchor="middle" x="305" y="-35.4" font-family="Times,serif" font-size="12.00">1</text>
</g>
<!-- EOS310&#45;&gt;1 of [&#39;EOS310&#39;, &#39;EOS316&#39;, &#39;EOS320&#39;] -->
<g id="edge5" class="edge">
<title>EOS310&#45;&gt;1 of [&#39;EOS310&#39;, &#39;EOS316&#39;, &#39;EOS320&#39;]</title>
<path fill="none" stroke="black" d="M257.98,-55.91C268.65,-51.88 280.39,-47.43 289.34,-44.05"/>
<polygon fill="black" stroke="black" points="290.21,-45.59 294.26,-42.18 288.97,-42.32 290.21,-45.59"/>
</g>
<!-- EOS316 -->
<g id="node2" class="node">
<title>EOS316</title>
<path fill="#e7a79b" stroke="#030a10" d="M251,-49C251,-49 207,-49 207,-49 203.5,-49 200,-45.5 200,-42 200,-42 200,-35 200,-35 200,-31.5 203.5,-28 207,-28 207,-28 251,-28 251,-28 254.5,-28 258,-31.5 258,-35 258,-35 258,-42 258,-42 258,-45.5 254.5,-49 251,-49"/>
<text text-anchor="middle" x="229" y="-35.4" font-family="Times,serif" font-size="12.00">EOS316</text>
</g>
<!-- EOS316&#45;&gt;1 of [&#39;EOS310&#39;, &#39;EOS316&#39;, &#39;EOS320&#39;] -->
<g id="edge6" class="edge">
<title>EOS316&#45;&gt;1 of [&#39;EOS310&#39;, &#39;EOS316&#39;, &#39;EOS320&#39;]</title>
<path fill="none" stroke="black" d="M258.4,-38.5C268.66,-38.5 279.85,-38.5 288.58,-38.5"/>
<polygon fill="black" stroke="black" points="288.67,-40.25 293.67,-38.5 288.67,-36.75 288.67,-40.25"/>
</g>
<!-- EOS320 -->
<g id="node3" class="node">
<title>EOS320</title>
<path fill="#e7a79b" stroke="#030a10" d="M251,-21C251,-21 207,-21 207,-21 203.5,-21 200,-17.5 200,-14 200,-14 200,-7 200,-7 200,-3.5 203.5,0 207,0 207,0 251,0 251,0 254.5,0 258,-3.5 258,-7 258,-7 258,-14 258,-14 258,-17.5 254.5,-21 251,-21"/>
<text text-anchor="middle" x="229" y="-7.4" font-family="Times,serif" font-size="12.00">EOS320</text>
</g>
<!-- EOS320&#45;&gt;1 of [&#39;EOS310&#39;, &#39;EOS316&#39;, &#39;EOS320&#39;] -->
<g id="edge7" class="edge">
<title>EOS320&#45;&gt;1 of [&#39;EOS310&#39;, &#39;EOS316&#39;, &#39;EOS320&#39;]</title>
<path fill="none" stroke="black" d="M257.98,-21.09C268.65,-25.12 280.39,-29.57 289.34,-32.95"/>
<polygon fill="black" stroke="black" points="288.97,-34.68 294.26,-34.82 290.21,-31.41 288.97,-34.68"/>
</g>
<!-- EOS205 -->
<g id="node4" class="node">
<title>EOS205</title>
<path fill="#f5edc9" stroke="#030a10" d="M157,-49C157,-49 113,-49 113,-49 109.5,-49 106,-45.5 106,-42 106,-42 106,-35 106,-35 106,-31.5 109.5,-28 113,-28 113,-28 157,-28 157,-28 160.5,-28 164,-31.5 164,-35 164,-35 164,-42 164,-42 164,-45.5 160.5,-49 157,-49"/>
<text text-anchor="middle" x="135" y="-35.4" font-family="Times,serif" font-size="12.00">EOS205</text>
</g>
<!-- EOS205&#45;&gt;EOS316 -->
<g id="edge1" class="edge">
<title>EOS205&#45;&gt;EOS316</title>
<path fill="none" stroke="black" d="M164.1,-38.5C173.73,-38.5 184.6,-38.5 194.61,-38.5"/>
<polygon fill="black" stroke="black" points="194.75,-40.25 199.75,-38.5 194.75,-36.75 194.75,-40.25"/>
</g>
<!-- EOS416 -->
<g id="node5" class="node">
<title>EOS416</title>
<path fill="#9fa7be" stroke="#030a10" d="M403,-49C403,-49 359,-49 359,-49 355.5,-49 352,-45.5 352,-42 352,-42 352,-35 352,-35 352,-31.5 355.5,-28 359,-28 359,-28 403,-28 403,-28 406.5,-28 410,-31.5 410,-35 410,-35 410,-42 410,-42 410,-45.5 406.5,-49 403,-49"/>
<text text-anchor="middle" x="381" y="-35.4" font-family="Times,serif" font-size="12.00">EOS416</text>
</g>
<!-- EOS120 -->
<g id="node6" class="node">
<title>EOS120</title>
<path fill="#f5edc9" stroke="#030a10" d="M57,-63C57,-63 13,-63 13,-63 9.5,-63 6,-59.5 6,-56 6,-56 6,-49 6,-49 6,-45.5 9.5,-42 13,-42 13,-42 57,-42 57,-42 60.5,-42 64,-45.5 64,-49 64,-49 64,-56 64,-56 64,-59.5 60.5,-63 57,-63"/>
<text text-anchor="middle" x="35" y="-49.4" font-family="Times,serif" font-size="12.00">EOS120</text>
</g>
<!-- EOS120&#45;&gt;EOS205 -->
<g id="edge2" class="edge">
<title>EOS120&#45;&gt;EOS205</title>
<path fill="none" stroke="black" d="M64.08,-48.49C75.56,-46.85 88.93,-44.94 100.89,-43.23"/>
<polygon fill="black" stroke="black" points="101.21,-44.95 105.91,-42.51 100.72,-41.49 101.21,-44.95"/>
</g>
<!-- CHEM102 -->
<g id="node7" class="node">
<title>CHEM102</title>
<path fill="#f5edc9" stroke="#030a10" d="M63,-35C63,-35 7,-35 7,-35 3.5,-35 0,-31.5 0,-28 0,-28 0,-21 0,-21 0,-17.5 3.5,-14 7,-14 7,-14 63,-14 63,-14 66.5,-14 70,-17.5 70,-21 70,-21 70,-28 70,-28 70,-31.5 66.5,-35 63,-35"/>
<text text-anchor="middle" x="35" y="-21.4" font-family="Times,serif" font-size="12.00">CHEM102</text>
</g>
<!-- CHEM102&#45;&gt;EOS205 -->
<g id="edge3" class="edge">
<title>CHEM102&#45;&gt;EOS205</title>
<path fill="none" stroke="black" d="M70,-29.36C79.98,-30.78 90.88,-32.34 100.81,-33.76"/>
<polygon fill="black" stroke="black" points="100.71,-35.51 105.9,-34.49 101.2,-32.05 100.71,-35.51"/>
</g>
<!-- 1 of [&#39;EOS310&#39;, &#39;EOS316&#39;, &#39;EOS320&#39;]&#45;&gt;EOS416 -->
<g id="edge4" class="edge">
<title>1 of [&#39;EOS310&#39;, &#39;EOS316&#39;, &#39;EOS320&#39;]&#45;&gt;EOS416</title>
<path fill="none" stroke="black" d="M316.29,-38.5C324.28,-38.5 335.83,-38.5 346.9,-38.5"/>
<polygon fill="black" stroke="black" points="346.94,-40.25 351.94,-38.5 346.94,-36.75 346.94,-40.25"/>
</g>
</g>
</svg>
