<?xml version="1.0" encoding="UTF-8" standalone="no"?>
<!DOCTYPE svg PUBLIC "-//W3C//DTD SVG 1.1//EN"
 "http://www.w3.org/Graphics/SVG/1.1/DTD/svg11.dtd">
<!-- Generated by graphviz version 2.43.0 (0)
 -->
<!-- Title: unix Pages: 1 -->
<svg width="187pt" height="52pt"
 viewBox="0.00 0.00 187.00 52.00" xmlns="http://www.w3.org/2000/svg" xmlns:xlink="http://www.w3.org/1999/xlink">
<g id="graph0" class="graph" transform="scale(1 1) rotate(0) translate(4 48)">
<title>unix</title>
<polygon fill="white" stroke="transparent" points="-4,4 -4,-48 183,-48 183,4 -4,4"/>
<text text-anchor="middle" x="89.5" y="-28.8" font-family="Times,serif" font-size="14.00">EOS480: Applied Geophysics</text>
<!-- EOS480 -->
<g id="node1" class="node">
<title>EOS480</title>
<path fill="#9fa7be" stroke="#030a10" d="M111.5,-21C111.5,-21 67.5,-21 67.5,-21 64,-21 60.5,-17.5 60.5,-14 60.5,-14 60.5,-7 60.5,-7 60.5,-3.5 64,0 67.5,0 67.5,0 111.5,0 111.5,0 115,0 118.5,-3.5 118.5,-7 118.5,-7 118.5,-14 118.5,-14 118.5,-17.5 115,-21 111.5,-21"/>
<text text-anchor="middle" x="89.5" y="-7.4" font-family="Times,serif" font-size="12.00">EOS480</text>
</g>
</g>
</svg>
