<?xml version="1.0" encoding="UTF-8" standalone="no"?>
<!DOCTYPE svg PUBLIC "-//W3C//DTD SVG 1.1//EN"
 "http://www.w3.org/Graphics/SVG/1.1/DTD/svg11.dtd">
<!-- Generated by graphviz version 2.43.0 (0)
 -->
<!-- Title: unix Pages: 1 -->
<svg width="166pt" height="52pt"
 viewBox="0.00 0.00 166.00 52.00" xmlns="http://www.w3.org/2000/svg" xmlns:xlink="http://www.w3.org/1999/xlink">
<g id="graph0" class="graph" transform="scale(1 1) rotate(0) translate(4 48)">
<title>unix</title>
<polygon fill="white" stroke="transparent" points="-4,4 -4,-48 162,-48 162,4 -4,4"/>
<text text-anchor="middle" x="79" y="-28.8" font-family="Times,serif" font-size="14.00">EOS170: Natural Hazards</text>
<!-- EOS170 -->
<g id="node1" class="node">
<title>EOS170</title>
<path fill="#9fa7be" stroke="#030a10" d="M101,-21C101,-21 57,-21 57,-21 53.5,-21 50,-17.5 50,-14 50,-14 50,-7 50,-7 50,-3.5 53.5,0 57,0 57,0 101,0 101,0 104.5,0 108,-3.5 108,-7 108,-7 108,-14 108,-14 108,-17.5 104.5,-21 101,-21"/>
<text text-anchor="middle" x="79" y="-7.4" font-family="Times,serif" font-size="12.00">EOS170</text>
</g>
</g>
</svg>
