<?xml version="1.0" encoding="UTF-8" standalone="no"?>
<!DOCTYPE svg PUBLIC "-//W3C//DTD SVG 1.1//EN"
 "http://www.w3.org/Graphics/SVG/1.1/DTD/svg11.dtd">
<!-- Generated by graphviz version 2.43.0 (0)
 -->
<!-- Title: unix Pages: 1 -->
<svg width="917pt" height="444pt"
 viewBox="0.00 0.00 917.00 444.00" xmlns="http://www.w3.org/2000/svg" xmlns:xlink="http://www.w3.org/1999/xlink">
<g id="graph0" class="graph" transform="scale(1 1) rotate(0) translate(4 440)">
<title>unix</title>
<polygon fill="white" stroke="transparent" points="-4,4 -4,-440 913,-440 913,4 -4,4"/>
<text text-anchor="middle" x="454.5" y="-420.8" font-family="Times,serif" font-size="14.00">EOS201: Sedimentology</text>
<!-- EOS420 -->
<g id="node1" class="node">
<title>EOS420</title>
<path fill="#e7a79b" stroke="#030a10" d="M584.5,-366C584.5,-366 540.5,-366 540.5,-366 537,-366 533.5,-362.5 533.5,-359 533.5,-359 533.5,-352 533.5,-352 533.5,-348.5 537,-345 540.5,-345 540.5,-345 584.5,-345 584.5,-345 588,-345 591.5,-348.5 591.5,-352 591.5,-352 591.5,-359 591.5,-359 591.5,-362.5 588,-366 584.5,-366"/>
<text text-anchor="middle" x="562.5" y="-352.4" font-family="Times,serif" font-size="12.00">EOS420</text>
</g>
<!-- EOS201 -->
<g id="node2" class="node">
<title>EOS201</title>
<path fill="#9fa7be" stroke="#030a10" d="M482.5,-285C482.5,-285 438.5,-285 438.5,-285 435,-285 431.5,-281.5 431.5,-278 431.5,-278 431.5,-271 431.5,-271 431.5,-267.5 435,-264 438.5,-264 438.5,-264 482.5,-264 482.5,-264 486,-264 489.5,-267.5 489.5,-271 489.5,-271 489.5,-278 489.5,-278 489.5,-281.5 486,-285 482.5,-285"/>
<text text-anchor="middle" x="460.5" y="-271.4" font-family="Times,serif" font-size="12.00">EOS201</text>
</g>
<!-- EOS201&#45;&gt;EOS420 -->
<g id="edge1" class="edge">
<title>EOS201&#45;&gt;EOS420</title>
<path fill="none" stroke="black" d="M488.61,-285.04C490.87,-286.39 493.04,-287.87 495,-289.5 516.62,-307.46 509.46,-323.44 531,-341.5 531.09,-341.57 531.18,-341.65 531.27,-341.72"/>
<polygon fill="black" stroke="black" points="530.52,-343.34 535.59,-344.85 532.57,-340.5 530.52,-343.34"/>
</g>
<!-- EOS423 -->
<g id="node6" class="node">
<title>EOS423</title>
<path fill="#e7a79b" stroke="#030a10" d="M584.5,-338C584.5,-338 540.5,-338 540.5,-338 537,-338 533.5,-334.5 533.5,-331 533.5,-331 533.5,-324 533.5,-324 533.5,-320.5 537,-317 540.5,-317 540.5,-317 584.5,-317 584.5,-317 588,-317 591.5,-320.5 591.5,-324 591.5,-324 591.5,-331 591.5,-331 591.5,-334.5 588,-338 584.5,-338"/>
<text text-anchor="middle" x="562.5" y="-324.4" font-family="Times,serif" font-size="12.00">EOS423</text>
</g>
<!-- EOS201&#45;&gt;EOS423 -->
<g id="edge10" class="edge">
<title>EOS201&#45;&gt;EOS423</title>
<path fill="none" stroke="black" d="M486.25,-285.02C489.23,-286.45 492.21,-287.96 495,-289.5 511.83,-298.79 514.21,-304.13 531,-313.5 531.51,-313.78 532.02,-314.07 532.55,-314.35"/>
<polygon fill="black" stroke="black" points="532.1,-316.09 537.35,-316.84 533.72,-312.99 532.1,-316.09"/>
</g>
<!-- EOS330 -->
<g id="node7" class="node">
<title>EOS330</title>
<path fill="#e7a79b" stroke="#030a10" d="M584.5,-310C584.5,-310 540.5,-310 540.5,-310 537,-310 533.5,-306.5 533.5,-303 533.5,-303 533.5,-296 533.5,-296 533.5,-292.5 537,-289 540.5,-289 540.5,-289 584.5,-289 584.5,-289 588,-289 591.5,-292.5 591.5,-296 591.5,-296 591.5,-303 591.5,-303 591.5,-306.5 588,-310 584.5,-310"/>
<text text-anchor="middle" x="562.5" y="-296.4" font-family="Times,serif" font-size="12.00">EOS330</text>
</g>
<!-- EOS201&#45;&gt;EOS330 -->
<g id="edge17" class="edge">
<title>EOS201&#45;&gt;EOS330</title>
<path fill="none" stroke="black" d="M489.62,-281.53C501.66,-284.54 515.8,-288.07 528.34,-291.21"/>
<polygon fill="black" stroke="black" points="527.97,-292.92 533.24,-292.44 528.82,-289.53 527.97,-292.92"/>
</g>
<!-- EOS408 -->
<g id="node14" class="node">
<title>EOS408</title>
<path fill="#e7a79b" stroke="#030a10" d="M686.5,-381C686.5,-381 642.5,-381 642.5,-381 639,-381 635.5,-377.5 635.5,-374 635.5,-374 635.5,-367 635.5,-367 635.5,-363.5 639,-360 642.5,-360 642.5,-360 686.5,-360 686.5,-360 690,-360 693.5,-363.5 693.5,-367 693.5,-367 693.5,-374 693.5,-374 693.5,-377.5 690,-381 686.5,-381"/>
<text text-anchor="middle" x="664.5" y="-367.4" font-family="Times,serif" font-size="12.00">EOS408</text>
</g>
<!-- EOS201&#45;&gt;EOS408 -->
<g id="edge48" class="edge">
<title>EOS201&#45;&gt;EOS408</title>
<path fill="none" stroke="black" d="M489.69,-274.04C523.25,-273.97 576.91,-275.52 594,-285.5 618.59,-299.86 611.6,-316.77 630,-338.5 635.24,-344.68 641.54,-350.96 647.26,-356.29"/>
<polygon fill="black" stroke="black" points="646.24,-357.73 651.1,-359.82 648.6,-355.15 646.24,-357.73"/>
</g>
<!-- EOS300 -->
<g id="node15" class="node">
<title>EOS300</title>
<path fill="#e7a79b" stroke="#030a10" d="M584.5,-266C584.5,-266 540.5,-266 540.5,-266 537,-266 533.5,-262.5 533.5,-259 533.5,-259 533.5,-252 533.5,-252 533.5,-248.5 537,-245 540.5,-245 540.5,-245 584.5,-245 584.5,-245 588,-245 591.5,-248.5 591.5,-252 591.5,-252 591.5,-259 591.5,-259 591.5,-262.5 588,-266 584.5,-266"/>
<text text-anchor="middle" x="562.5" y="-252.4" font-family="Times,serif" font-size="12.00">EOS300</text>
</g>
<!-- EOS201&#45;&gt;EOS300 -->
<g id="edge52" class="edge">
<title>EOS201&#45;&gt;EOS300</title>
<path fill="none" stroke="black" d="M489.62,-269.16C501.55,-266.89 515.55,-264.23 528.01,-261.86"/>
<polygon fill="black" stroke="black" points="528.66,-263.52 533.24,-260.87 528,-260.08 528.66,-263.52"/>
</g>
<!-- 1 of [&#39;EOS201&#39;, &#39;EOS240&#39;] -->
<g id="node38" class="node">
<title>1 of [&#39;EOS201&#39;, &#39;EOS240&#39;]</title>
<ellipse fill="#dfe6e9" stroke="#030a10" cx="562.5" cy="-142.5" rx="11" ry="11"/>
<text text-anchor="middle" x="562.5" y="-139.4" font-family="Times,serif" font-size="12.00">1</text>
</g>
<!-- EOS201&#45;&gt;1 of [&#39;EOS201&#39;, &#39;EOS240&#39;] -->
<g id="edge32" class="edge">
<title>EOS201&#45;&gt;1 of [&#39;EOS201&#39;, &#39;EOS240&#39;]</title>
<path fill="none" stroke="black" d="M489.75,-264.91C491.66,-263.62 493.44,-262.15 495,-260.5 528.25,-225.2 498.84,-193.8 531,-157.5 535.19,-152.77 541.22,-149.37 546.82,-147.01"/>
<polygon fill="black" stroke="black" points="547.71,-148.55 551.76,-145.14 546.47,-145.27 547.71,-148.55"/>
</g>
<!-- 1 of [&#39;GEOG276&#39;, &#39;EOS201&#39;] -->
<g id="node40" class="node">
<title>1 of [&#39;GEOG276&#39;, &#39;EOS201&#39;]</title>
<ellipse fill="#dfe6e9" stroke="#030a10" cx="562.5" cy="-109.5" rx="11" ry="11"/>
<text text-anchor="middle" x="562.5" y="-106.4" font-family="Times,serif" font-size="12.00">1</text>
</g>
<!-- EOS201&#45;&gt;1 of [&#39;GEOG276&#39;, &#39;EOS201&#39;] -->
<g id="edge39" class="edge">
<title>EOS201&#45;&gt;1 of [&#39;GEOG276&#39;, &#39;EOS201&#39;]</title>
<path fill="none" stroke="black" d="M489.57,-265.25C491.57,-263.87 493.42,-262.3 495,-260.5 535.12,-214.81 494.69,-177.28 531,-128.5 535.13,-122.95 541.41,-118.64 547.2,-115.54"/>
<polygon fill="black" stroke="black" points="548.18,-117.01 551.89,-113.22 546.63,-113.87 548.18,-117.01"/>
</g>
<!-- EOS321 -->
<g id="node3" class="node">
<title>EOS321</title>
<path fill="#f5edc9" stroke="#030a10" d="M686.5,-215C686.5,-215 642.5,-215 642.5,-215 639,-215 635.5,-211.5 635.5,-208 635.5,-208 635.5,-201 635.5,-201 635.5,-197.5 639,-194 642.5,-194 642.5,-194 686.5,-194 686.5,-194 690,-194 693.5,-197.5 693.5,-201 693.5,-201 693.5,-208 693.5,-208 693.5,-211.5 690,-215 686.5,-215"/>
<text text-anchor="middle" x="664.5" y="-201.4" font-family="Times,serif" font-size="12.00">EOS321</text>
</g>
<!-- EOS120 -->
<g id="node4" class="node">
<title>EOS120</title>
<path fill="#e7a79b" stroke="#030a10" d="M269,-262C269,-262 225,-262 225,-262 221.5,-262 218,-258.5 218,-255 218,-255 218,-248 218,-248 218,-244.5 221.5,-241 225,-241 225,-241 269,-241 269,-241 272.5,-241 276,-244.5 276,-248 276,-248 276,-255 276,-255 276,-258.5 272.5,-262 269,-262"/>
<text text-anchor="middle" x="247" y="-248.4" font-family="Times,serif" font-size="12.00">EOS120</text>
</g>
<!-- EOS120&#45;&gt;EOS201 -->
<g id="edge3" class="edge">
<title>EOS120&#45;&gt;EOS201</title>
<path fill="none" stroke="black" d="M276.11,-252.53C304.83,-253.8 350.66,-256.45 390,-261.5 401.83,-263.02 414.68,-265.25 426.08,-267.45"/>
<polygon fill="black" stroke="black" points="425.97,-269.21 431.21,-268.45 426.64,-265.77 425.97,-269.21"/>
</g>
<!-- EOS205 -->
<g id="node5" class="node">
<title>EOS205</title>
<path fill="#e7a79b" stroke="#030a10" d="M376,-236C376,-236 332,-236 332,-236 328.5,-236 325,-232.5 325,-229 325,-229 325,-222 325,-222 325,-218.5 328.5,-215 332,-215 332,-215 376,-215 376,-215 379.5,-215 383,-218.5 383,-222 383,-222 383,-229 383,-229 383,-232.5 379.5,-236 376,-236"/>
<text text-anchor="middle" x="354" y="-222.4" font-family="Times,serif" font-size="12.00">EOS205</text>
</g>
<!-- EOS120&#45;&gt;EOS205 -->
<g id="edge8" class="edge">
<title>EOS120&#45;&gt;EOS205</title>
<path fill="none" stroke="black" d="M276.14,-244.53C289.56,-241.21 305.7,-237.21 319.72,-233.74"/>
<polygon fill="black" stroke="black" points="320.35,-235.39 324.78,-232.49 319.51,-231.99 320.35,-235.39"/>
</g>
<!-- EOS205&#45;&gt;EOS201 -->
<g id="edge4" class="edge">
<title>EOS205&#45;&gt;EOS201</title>
<path fill="none" stroke="black" d="M375.65,-236.1C389.73,-243.23 408.86,-252.7 426,-260.5 426.95,-260.93 427.91,-261.36 428.89,-261.8"/>
<polygon fill="black" stroke="black" points="428.54,-263.56 433.82,-263.96 429.95,-260.35 428.54,-263.56"/>
</g>
<!-- EOS205&#45;&gt;EOS300 -->
<g id="edge54" class="edge">
<title>EOS205&#45;&gt;EOS300</title>
<path fill="none" stroke="black" d="M383.17,-224.59C411.64,-224.21 456.77,-225.09 495,-232.5 507.28,-234.88 520.37,-239.03 531.66,-243.16"/>
<polygon fill="black" stroke="black" points="531.09,-244.82 536.38,-244.93 532.31,-241.54 531.09,-244.82"/>
</g>
<!-- 1 of [&#39;BIOL215&#39;, &#39;EOS330&#39;] -->
<g id="node50" class="node">
<title>1 of [&#39;BIOL215&#39;, &#39;EOS330&#39;]</title>
<ellipse fill="#dfe6e9" stroke="#030a10" cx="664.5" cy="-260.5" rx="11" ry="11"/>
<text text-anchor="middle" x="664.5" y="-257.4" font-family="Times,serif" font-size="12.00">1</text>
</g>
<!-- EOS330&#45;&gt;1 of [&#39;BIOL215&#39;, &#39;EOS330&#39;] -->
<g id="edge57" class="edge">
<title>EOS330&#45;&gt;1 of [&#39;BIOL215&#39;, &#39;EOS330&#39;]</title>
<path fill="none" stroke="black" d="M590.56,-288.95C609.48,-281.57 633.99,-272.01 649.23,-266.07"/>
<polygon fill="black" stroke="black" points="650,-267.65 654.02,-264.2 648.72,-264.38 650,-267.65"/>
</g>
<!-- GEOG477 -->
<g id="node8" class="node">
<title>GEOG477</title>
<path fill="#f5edc9" stroke="#030a10" d="M902,-118C902,-118 847,-118 847,-118 843.5,-118 840,-114.5 840,-111 840,-111 840,-104 840,-104 840,-100.5 843.5,-97 847,-97 847,-97 902,-97 902,-97 905.5,-97 909,-100.5 909,-104 909,-104 909,-111 909,-111 909,-114.5 905.5,-118 902,-118"/>
<text text-anchor="middle" x="874.5" y="-104.4" font-family="Times,serif" font-size="12.00">GEOG477</text>
</g>
<!-- CHEM102 -->
<g id="node9" class="node">
<title>CHEM102</title>
<path fill="#f5edc9" stroke="#030a10" d="M275,-233C275,-233 219,-233 219,-233 215.5,-233 212,-229.5 212,-226 212,-226 212,-219 212,-219 212,-215.5 215.5,-212 219,-212 219,-212 275,-212 275,-212 278.5,-212 282,-215.5 282,-219 282,-219 282,-226 282,-226 282,-229.5 278.5,-233 275,-233"/>
<text text-anchor="middle" x="247" y="-219.4" font-family="Times,serif" font-size="12.00">CHEM102</text>
</g>
<!-- CHEM102&#45;&gt;EOS205 -->
<g id="edge9" class="edge">
<title>CHEM102&#45;&gt;EOS205</title>
<path fill="none" stroke="black" d="M282.09,-223.47C294.14,-223.82 307.67,-224.2 319.66,-224.55"/>
<polygon fill="black" stroke="black" points="319.65,-226.3 324.7,-224.69 319.75,-222.8 319.65,-226.3"/>
</g>
<!-- EOS450 -->
<g id="node10" class="node">
<title>EOS450</title>
<path fill="#e7a79b" stroke="#030a10" d="M686.5,-187C686.5,-187 642.5,-187 642.5,-187 639,-187 635.5,-183.5 635.5,-180 635.5,-180 635.5,-173 635.5,-173 635.5,-169.5 639,-166 642.5,-166 642.5,-166 686.5,-166 686.5,-166 690,-166 693.5,-169.5 693.5,-173 693.5,-173 693.5,-180 693.5,-180 693.5,-183.5 690,-187 686.5,-187"/>
<text text-anchor="middle" x="664.5" y="-173.4" font-family="Times,serif" font-size="12.00">EOS450</text>
</g>
<!-- EOS400 -->
<g id="node11" class="node">
<title>EOS400</title>
<path fill="#f5edc9" stroke="#030a10" d="M686.5,-335C686.5,-335 642.5,-335 642.5,-335 639,-335 635.5,-331.5 635.5,-328 635.5,-328 635.5,-321 635.5,-321 635.5,-317.5 639,-314 642.5,-314 642.5,-314 686.5,-314 686.5,-314 690,-314 693.5,-317.5 693.5,-321 693.5,-321 693.5,-328 693.5,-328 693.5,-331.5 690,-335 686.5,-335"/>
<text text-anchor="middle" x="664.5" y="-321.4" font-family="Times,serif" font-size="12.00">EOS400</text>
</g>
<!-- GEOG476 -->
<g id="node12" class="node">
<title>GEOG476</title>
<path fill="#f5edc9" stroke="#030a10" d="M797,-75C797,-75 742,-75 742,-75 738.5,-75 735,-71.5 735,-68 735,-68 735,-61 735,-61 735,-57.5 738.5,-54 742,-54 742,-54 797,-54 797,-54 800.5,-54 804,-57.5 804,-61 804,-61 804,-68 804,-68 804,-71.5 800.5,-75 797,-75"/>
<text text-anchor="middle" x="769.5" y="-61.4" font-family="Times,serif" font-size="12.00">GEOG476</text>
</g>
<!-- GEOG376 -->
<g id="node13" class="node">
<title>GEOG376</title>
<path fill="#e7a79b" stroke="#030a10" d="M692,-75C692,-75 637,-75 637,-75 633.5,-75 630,-71.5 630,-68 630,-68 630,-61 630,-61 630,-57.5 633.5,-54 637,-54 637,-54 692,-54 692,-54 695.5,-54 699,-57.5 699,-61 699,-61 699,-68 699,-68 699,-71.5 695.5,-75 692,-75"/>
<text text-anchor="middle" x="664.5" y="-61.4" font-family="Times,serif" font-size="12.00">GEOG376</text>
</g>
<!-- GEOG376&#45;&gt;GEOG476 -->
<g id="edge36" class="edge">
<title>GEOG376&#45;&gt;GEOG476</title>
<path fill="none" stroke="black" d="M699.23,-64.5C708.92,-64.5 719.57,-64.5 729.55,-64.5"/>
<polygon fill="black" stroke="black" points="729.7,-66.25 734.7,-64.5 729.7,-62.75 729.7,-66.25"/>
</g>
<!-- 1 of [&#39;GEOG358&#39;, &#39;GEOG370&#39;, &#39;GEOG373&#39;, &#39;GEOG376&#39;] -->
<g id="node26" class="node">
<title>1 of [&#39;GEOG358&#39;, &#39;GEOG370&#39;, &#39;GEOG373&#39;, &#39;GEOG376&#39;]</title>
<ellipse fill="#dfe6e9" stroke="#030a10" cx="769.5" cy="-107.5" rx="11" ry="11"/>
<text text-anchor="middle" x="769.5" y="-104.4" font-family="Times,serif" font-size="12.00">1</text>
</g>
<!-- GEOG376&#45;&gt;1 of [&#39;GEOG358&#39;, &#39;GEOG370&#39;, &#39;GEOG373&#39;, &#39;GEOG376&#39;] -->
<g id="edge22" class="edge">
<title>GEOG376&#45;&gt;1 of [&#39;GEOG358&#39;, &#39;GEOG370&#39;, &#39;GEOG373&#39;, &#39;GEOG376&#39;]</title>
<path fill="none" stroke="black" d="M690.7,-75.02C710.77,-83.4 738.14,-94.83 754.5,-101.65"/>
<polygon fill="black" stroke="black" points="753.91,-103.31 759.2,-103.62 755.26,-100.08 753.91,-103.31"/>
</g>
<!-- EOS300&#45;&gt;EOS321 -->
<g id="edge6" class="edge">
<title>EOS300&#45;&gt;EOS321</title>
<path fill="none" stroke="black" d="M586.88,-244.94C589.29,-243.8 591.7,-242.64 594,-241.5 609.38,-233.88 626.4,-224.84 639.74,-217.59"/>
<polygon fill="black" stroke="black" points="640.93,-218.94 644.48,-215.01 639.25,-215.87 640.93,-218.94"/>
</g>
<!-- EOS300&#45;&gt;EOS400 -->
<g id="edge34" class="edge">
<title>EOS300&#45;&gt;EOS400</title>
<path fill="none" stroke="black" d="M583.42,-266.09C586.99,-268.14 590.64,-270.32 594,-272.5 612.56,-284.54 632.69,-299.87 646.49,-310.76"/>
<polygon fill="black" stroke="black" points="645.55,-312.25 650.55,-313.99 647.72,-309.51 645.55,-312.25"/>
</g>
<!-- BIOL457 -->
<g id="node16" class="node">
<title>BIOL457</title>
<path fill="#f5edc9" stroke="#030a10" d="M794,-271C794,-271 745,-271 745,-271 741.5,-271 738,-267.5 738,-264 738,-264 738,-257 738,-257 738,-253.5 741.5,-250 745,-250 745,-250 794,-250 794,-250 797.5,-250 801,-253.5 801,-257 801,-257 801,-264 801,-264 801,-267.5 797.5,-271 794,-271"/>
<text text-anchor="middle" x="769.5" y="-257.4" font-family="Times,serif" font-size="12.00">BIOL457</text>
</g>
<!-- EOS316 -->
<g id="node17" class="node">
<title>EOS316</title>
<path fill="#f5edc9" stroke="#030a10" d="M482.5,-385C482.5,-385 438.5,-385 438.5,-385 435,-385 431.5,-381.5 431.5,-378 431.5,-378 431.5,-371 431.5,-371 431.5,-367.5 435,-364 438.5,-364 438.5,-364 482.5,-364 482.5,-364 486,-364 489.5,-367.5 489.5,-371 489.5,-371 489.5,-378 489.5,-378 489.5,-381.5 486,-385 482.5,-385"/>
<text text-anchor="middle" x="460.5" y="-371.4" font-family="Times,serif" font-size="12.00">EOS316</text>
</g>
<!-- EOS316&#45;&gt;EOS420 -->
<g id="edge2" class="edge">
<title>EOS316&#45;&gt;EOS420</title>
<path fill="none" stroke="black" d="M489.62,-369.16C501.55,-366.89 515.55,-364.23 528.01,-361.86"/>
<polygon fill="black" stroke="black" points="528.66,-363.52 533.24,-360.87 528,-360.08 528.66,-363.52"/>
</g>
<!-- EOS316&#45;&gt;EOS400 -->
<g id="edge35" class="edge">
<title>EOS316&#45;&gt;EOS400</title>
<path fill="none" stroke="black" d="M489.64,-377.68C516.98,-379.8 559.32,-380.46 594,-369.5 614.37,-363.06 634.51,-348.93 647.83,-338.21"/>
<polygon fill="black" stroke="black" points="648.98,-339.53 651.73,-335.01 646.76,-336.82 648.98,-339.53"/>
</g>
<!-- 1 of [&#39;EOS310&#39;, &#39;EOS316&#39;] -->
<g id="node47" class="node">
<title>1 of [&#39;EOS310&#39;, &#39;EOS316&#39;]</title>
<ellipse fill="#dfe6e9" stroke="#030a10" cx="562.5" cy="-399.5" rx="11" ry="11"/>
<text text-anchor="middle" x="562.5" y="-396.4" font-family="Times,serif" font-size="12.00">1</text>
</g>
<!-- EOS316&#45;&gt;1 of [&#39;EOS310&#39;, &#39;EOS316&#39;] -->
<g id="edge51" class="edge">
<title>EOS316&#45;&gt;1 of [&#39;EOS310&#39;, &#39;EOS316&#39;]</title>
<path fill="none" stroke="black" d="M489.62,-381.53C508.14,-386.16 531.66,-392.04 546.64,-395.79"/>
<polygon fill="black" stroke="black" points="546.48,-397.55 551.76,-397.06 547.33,-394.15 546.48,-397.55"/>
</g>
<!-- EOS210 -->
<g id="node18" class="node">
<title>EOS210</title>
<path fill="#f5edc9" stroke="#030a10" d="M584.5,-210C584.5,-210 540.5,-210 540.5,-210 537,-210 533.5,-206.5 533.5,-203 533.5,-203 533.5,-196 533.5,-196 533.5,-192.5 537,-189 540.5,-189 540.5,-189 584.5,-189 584.5,-189 588,-189 591.5,-192.5 591.5,-196 591.5,-196 591.5,-203 591.5,-203 591.5,-206.5 588,-210 584.5,-210"/>
<text text-anchor="middle" x="562.5" y="-196.4" font-family="Times,serif" font-size="12.00">EOS210</text>
</g>
<!-- EOS210&#45;&gt;EOS321 -->
<g id="edge5" class="edge">
<title>EOS210&#45;&gt;EOS321</title>
<path fill="none" stroke="black" d="M591.62,-200.91C603.55,-201.5 617.55,-202.2 630.01,-202.83"/>
<polygon fill="black" stroke="black" points="630.16,-204.59 635.24,-203.09 630.34,-201.09 630.16,-204.59"/>
</g>
<!-- EOS261 -->
<g id="node19" class="node">
<title>EOS261</title>
<path fill="#f5edc9" stroke="#030a10" d="M584.5,-182C584.5,-182 540.5,-182 540.5,-182 537,-182 533.5,-178.5 533.5,-175 533.5,-175 533.5,-168 533.5,-168 533.5,-164.5 537,-161 540.5,-161 540.5,-161 584.5,-161 584.5,-161 588,-161 591.5,-164.5 591.5,-168 591.5,-168 591.5,-175 591.5,-175 591.5,-178.5 588,-182 584.5,-182"/>
<text text-anchor="middle" x="562.5" y="-168.4" font-family="Times,serif" font-size="12.00">EOS261</text>
</g>
<!-- EOS261&#45;&gt;EOS321 -->
<g id="edge7" class="edge">
<title>EOS261&#45;&gt;EOS321</title>
<path fill="none" stroke="black" d="M591.62,-180.78C603.66,-184.75 617.8,-189.42 630.34,-193.56"/>
<polygon fill="black" stroke="black" points="629.95,-195.27 635.24,-195.18 631.04,-191.95 629.95,-195.27"/>
</g>
<!-- 1 of [&#39;EOS225&#39;, &#39;EOS325&#39;] -->
<g id="node20" class="node">
<title>1 of [&#39;EOS225&#39;, &#39;EOS325&#39;]</title>
<ellipse fill="#dfe6e9" stroke="#030a10" cx="460.5" cy="-332.5" rx="11" ry="11"/>
<text text-anchor="middle" x="460.5" y="-329.4" font-family="Times,serif" font-size="12.00">1</text>
</g>
<!-- 1 of [&#39;EOS225&#39;, &#39;EOS325&#39;]&#45;&gt;EOS423 -->
<g id="edge11" class="edge">
<title>1 of [&#39;EOS225&#39;, &#39;EOS325&#39;]&#45;&gt;EOS423</title>
<path fill="none" stroke="black" d="M471.83,-331.98C485.02,-331.32 508.5,-330.15 528.12,-329.17"/>
<polygon fill="black" stroke="black" points="528.37,-330.91 533.28,-328.91 528.2,-327.41 528.37,-330.91"/>
</g>
<!-- EOS225 -->
<g id="node21" class="node">
<title>EOS225</title>
<path fill="#f5edc9" stroke="#030a10" d="M376,-370C376,-370 332,-370 332,-370 328.5,-370 325,-366.5 325,-363 325,-363 325,-356 325,-356 325,-352.5 328.5,-349 332,-349 332,-349 376,-349 376,-349 379.5,-349 383,-352.5 383,-356 383,-356 383,-363 383,-363 383,-366.5 379.5,-370 376,-370"/>
<text text-anchor="middle" x="354" y="-356.4" font-family="Times,serif" font-size="12.00">EOS225</text>
</g>
<!-- EOS225&#45;&gt;1 of [&#39;EOS225&#39;, &#39;EOS325&#39;] -->
<g id="edge12" class="edge">
<title>EOS225&#45;&gt;1 of [&#39;EOS225&#39;, &#39;EOS325&#39;]</title>
<path fill="none" stroke="black" d="M383,-352.26C402.88,-347.13 428.78,-340.44 444.77,-336.31"/>
<polygon fill="black" stroke="black" points="445.38,-337.96 449.78,-335.01 444.51,-334.57 445.38,-337.96"/>
</g>
<!-- EOS325 -->
<g id="node22" class="node">
<title>EOS325</title>
<path fill="#f5edc9" stroke="#030a10" d="M376,-342C376,-342 332,-342 332,-342 328.5,-342 325,-338.5 325,-335 325,-335 325,-328 325,-328 325,-324.5 328.5,-321 332,-321 332,-321 376,-321 376,-321 379.5,-321 383,-324.5 383,-328 383,-328 383,-335 383,-335 383,-338.5 379.5,-342 376,-342"/>
<text text-anchor="middle" x="354" y="-328.4" font-family="Times,serif" font-size="12.00">EOS325</text>
</g>
<!-- EOS325&#45;&gt;1 of [&#39;EOS225&#39;, &#39;EOS325&#39;] -->
<g id="edge13" class="edge">
<title>EOS325&#45;&gt;1 of [&#39;EOS225&#39;, &#39;EOS325&#39;]</title>
<path fill="none" stroke="black" d="M383,-331.77C402.67,-331.96 428.22,-332.2 444.24,-332.35"/>
<polygon fill="black" stroke="black" points="444.27,-334.1 449.29,-332.4 444.3,-330.6 444.27,-334.1"/>
</g>
<!-- 1 of [&#39;BIOL150A&#39;, &#39;BIOL184&#39;] -->
<g id="node23" class="node">
<title>1 of [&#39;BIOL150A&#39;, &#39;BIOL184&#39;]</title>
<ellipse fill="#dfe6e9" stroke="#030a10" cx="460.5" cy="-303.5" rx="11" ry="11"/>
<text text-anchor="middle" x="460.5" y="-300.4" font-family="Times,serif" font-size="12.00">1</text>
</g>
<!-- 1 of [&#39;BIOL150A&#39;, &#39;BIOL184&#39;]&#45;&gt;EOS330 -->
<g id="edge14" class="edge">
<title>1 of [&#39;BIOL150A&#39;, &#39;BIOL184&#39;]&#45;&gt;EOS330</title>
<path fill="none" stroke="black" d="M471.83,-303.09C485.02,-302.56 508.5,-301.62 528.12,-300.84"/>
<polygon fill="black" stroke="black" points="528.35,-302.58 533.28,-300.63 528.21,-299.08 528.35,-302.58"/>
</g>
<!-- BIOL150A -->
<g id="node24" class="node">
<title>BIOL150A</title>
<path fill="#f5edc9" stroke="#030a10" d="M383,-314C383,-314 325,-314 325,-314 321.5,-314 318,-310.5 318,-307 318,-307 318,-300 318,-300 318,-296.5 321.5,-293 325,-293 325,-293 383,-293 383,-293 386.5,-293 390,-296.5 390,-300 390,-300 390,-307 390,-307 390,-310.5 386.5,-314 383,-314"/>
<text text-anchor="middle" x="354" y="-300.4" font-family="Times,serif" font-size="12.00">BIOL150A</text>
</g>
<!-- BIOL150A&#45;&gt;1 of [&#39;BIOL150A&#39;, &#39;BIOL184&#39;] -->
<g id="edge15" class="edge">
<title>BIOL150A&#45;&gt;1 of [&#39;BIOL150A&#39;, &#39;BIOL184&#39;]</title>
<path fill="none" stroke="black" d="M390.09,-303.5C408.3,-303.5 429.65,-303.5 443.81,-303.5"/>
<polygon fill="black" stroke="black" points="444.05,-305.25 449.05,-303.5 444.05,-301.75 444.05,-305.25"/>
</g>
<!-- BIOL184 -->
<g id="node25" class="node">
<title>BIOL184</title>
<path fill="#f5edc9" stroke="#030a10" d="M378.5,-286C378.5,-286 329.5,-286 329.5,-286 326,-286 322.5,-282.5 322.5,-279 322.5,-279 322.5,-272 322.5,-272 322.5,-268.5 326,-265 329.5,-265 329.5,-265 378.5,-265 378.5,-265 382,-265 385.5,-268.5 385.5,-272 385.5,-272 385.5,-279 385.5,-279 385.5,-282.5 382,-286 378.5,-286"/>
<text text-anchor="middle" x="354" y="-272.4" font-family="Times,serif" font-size="12.00">BIOL184</text>
</g>
<!-- BIOL184&#45;&gt;1 of [&#39;BIOL150A&#39;, &#39;BIOL184&#39;] -->
<g id="edge16" class="edge">
<title>BIOL184&#45;&gt;1 of [&#39;BIOL150A&#39;, &#39;BIOL184&#39;]</title>
<path fill="none" stroke="black" d="M385.51,-283.67C404.82,-288.85 428.96,-295.32 444.31,-299.43"/>
<polygon fill="black" stroke="black" points="444.26,-301.23 449.54,-300.83 445.17,-297.85 444.26,-301.23"/>
</g>
<!-- 1 of [&#39;GEOG358&#39;, &#39;GEOG370&#39;, &#39;GEOG373&#39;, &#39;GEOG376&#39;]&#45;&gt;GEOG477 -->
<g id="edge18" class="edge">
<title>1 of [&#39;GEOG358&#39;, &#39;GEOG370&#39;, &#39;GEOG373&#39;, &#39;GEOG376&#39;]&#45;&gt;GEOG477</title>
<path fill="none" stroke="black" d="M780.75,-107.5C793.22,-107.5 814.99,-107.5 834.3,-107.5"/>
<polygon fill="black" stroke="black" points="834.68,-109.25 839.68,-107.5 834.68,-105.75 834.68,-109.25"/>
</g>
<!-- GEOG358 -->
<g id="node27" class="node">
<title>GEOG358</title>
<path fill="#f5edc9" stroke="#030a10" d="M692,-159C692,-159 637,-159 637,-159 633.5,-159 630,-155.5 630,-152 630,-152 630,-145 630,-145 630,-141.5 633.5,-138 637,-138 637,-138 692,-138 692,-138 695.5,-138 699,-141.5 699,-145 699,-145 699,-152 699,-152 699,-155.5 695.5,-159 692,-159"/>
<text text-anchor="middle" x="664.5" y="-145.4" font-family="Times,serif" font-size="12.00">GEOG358</text>
</g>
<!-- GEOG358&#45;&gt;1 of [&#39;GEOG358&#39;, &#39;GEOG370&#39;, &#39;GEOG373&#39;, &#39;GEOG376&#39;] -->
<g id="edge19" class="edge">
<title>GEOG358&#45;&gt;1 of [&#39;GEOG358&#39;, &#39;GEOG370&#39;, &#39;GEOG373&#39;, &#39;GEOG376&#39;]</title>
<path fill="none" stroke="black" d="M692.03,-137.94C711.73,-130.1 737.88,-119.69 753.93,-113.3"/>
<polygon fill="black" stroke="black" points="754.96,-114.77 758.96,-111.3 753.67,-111.52 754.96,-114.77"/>
</g>
<!-- GEOG370 -->
<g id="node28" class="node">
<title>GEOG370</title>
<path fill="#f5edc9" stroke="#030a10" d="M692,-131C692,-131 637,-131 637,-131 633.5,-131 630,-127.5 630,-124 630,-124 630,-117 630,-117 630,-113.5 633.5,-110 637,-110 637,-110 692,-110 692,-110 695.5,-110 699,-113.5 699,-117 699,-117 699,-124 699,-124 699,-127.5 695.5,-131 692,-131"/>
<text text-anchor="middle" x="664.5" y="-117.4" font-family="Times,serif" font-size="12.00">GEOG370</text>
</g>
<!-- GEOG370&#45;&gt;1 of [&#39;GEOG358&#39;, &#39;GEOG370&#39;, &#39;GEOG373&#39;, &#39;GEOG376&#39;] -->
<g id="edge20" class="edge">
<title>GEOG370&#45;&gt;1 of [&#39;GEOG358&#39;, &#39;GEOG370&#39;, &#39;GEOG373&#39;, &#39;GEOG376&#39;]</title>
<path fill="none" stroke="black" d="M699.23,-116.24C717.46,-113.94 739.08,-111.21 753.26,-109.42"/>
<polygon fill="black" stroke="black" points="753.74,-111.13 758.48,-108.76 753.3,-107.65 753.74,-111.13"/>
</g>
<!-- GEOG373 -->
<g id="node29" class="node">
<title>GEOG373</title>
<path fill="#f5edc9" stroke="#030a10" d="M692,-103C692,-103 637,-103 637,-103 633.5,-103 630,-99.5 630,-96 630,-96 630,-89 630,-89 630,-85.5 633.5,-82 637,-82 637,-82 692,-82 692,-82 695.5,-82 699,-85.5 699,-89 699,-89 699,-96 699,-96 699,-99.5 695.5,-103 692,-103"/>
<text text-anchor="middle" x="664.5" y="-89.4" font-family="Times,serif" font-size="12.00">GEOG373</text>
</g>
<!-- GEOG373&#45;&gt;1 of [&#39;GEOG358&#39;, &#39;GEOG370&#39;, &#39;GEOG373&#39;, &#39;GEOG376&#39;] -->
<g id="edge21" class="edge">
<title>GEOG373&#45;&gt;1 of [&#39;GEOG358&#39;, &#39;GEOG370&#39;, &#39;GEOG373&#39;, &#39;GEOG376&#39;]</title>
<path fill="none" stroke="black" d="M699.23,-97.41C717.46,-100.07 739.08,-103.22 753.26,-105.28"/>
<polygon fill="black" stroke="black" points="753.28,-107.05 758.48,-106.04 753.79,-103.59 753.28,-107.05"/>
</g>
<!-- 1 of [&#39;MATH100&#39;, &#39;MATH102&#39;, &#39;MATH109&#39;] -->
<g id="node30" class="node">
<title>1 of [&#39;MATH100&#39;, &#39;MATH102&#39;, &#39;MATH109&#39;]</title>
<ellipse fill="#dfe6e9" stroke="#030a10" cx="141" cy="-164.5" rx="11" ry="11"/>
<text text-anchor="middle" x="141" y="-161.4" font-family="Times,serif" font-size="12.00">1</text>
</g>
<!-- 1 of [&#39;MATH100&#39;, &#39;MATH102&#39;, &#39;MATH109&#39;]&#45;&gt;CHEM102 -->
<g id="edge23" class="edge">
<title>1 of [&#39;MATH100&#39;, &#39;MATH102&#39;, &#39;MATH109&#39;]&#45;&gt;CHEM102</title>
<path fill="none" stroke="black" d="M150.87,-169.45C166.62,-178.23 199.95,-196.82 222.66,-209.49"/>
<polygon fill="black" stroke="black" points="221.84,-211.03 227.06,-211.94 223.54,-207.97 221.84,-211.03"/>
</g>
<!-- MATH100 -->
<g id="node31" class="node">
<title>MATH100</title>
<path fill="#f5edc9" stroke="#030a10" d="M62.5,-133C62.5,-133 7.5,-133 7.5,-133 4,-133 0.5,-129.5 0.5,-126 0.5,-126 0.5,-119 0.5,-119 0.5,-115.5 4,-112 7.5,-112 7.5,-112 62.5,-112 62.5,-112 66,-112 69.5,-115.5 69.5,-119 69.5,-119 69.5,-126 69.5,-126 69.5,-129.5 66,-133 62.5,-133"/>
<text text-anchor="middle" x="35" y="-119.4" font-family="Times,serif" font-size="12.00">MATH100</text>
</g>
<!-- MATH100&#45;&gt;1 of [&#39;MATH100&#39;, &#39;MATH102&#39;, &#39;MATH109&#39;] -->
<g id="edge24" class="edge">
<title>MATH100&#45;&gt;1 of [&#39;MATH100&#39;, &#39;MATH102&#39;, &#39;MATH109&#39;]</title>
<path fill="none" stroke="black" d="M62.24,-133.1C82.31,-141.2 109.23,-152.07 125.55,-158.67"/>
<polygon fill="black" stroke="black" points="124.97,-160.32 130.26,-160.57 126.28,-157.07 124.97,-160.32"/>
</g>
<!-- 1 of [&#39;MATH100&#39;, &#39;MATH102&#39;, &#39;MATH109&#39;, &#39;MATH120&#39;, &#39;MATH122&#39;, &#39;MATH151&#39;, &#39;MATH110&#39;] -->
<g id="node42" class="node">
<title>1 of [&#39;MATH100&#39;, &#39;MATH102&#39;, &#39;MATH109&#39;, &#39;MATH120&#39;, &#39;MATH122&#39;, &#39;MATH151&#39;, &#39;MATH110&#39;]</title>
<ellipse fill="#dfe6e9" stroke="#030a10" cx="141" cy="-92.5" rx="11" ry="11"/>
<text text-anchor="middle" x="141" y="-89.4" font-family="Times,serif" font-size="12.00">1</text>
</g>
<!-- MATH100&#45;&gt;1 of [&#39;MATH100&#39;, &#39;MATH102&#39;, &#39;MATH109&#39;, &#39;MATH120&#39;, &#39;MATH122&#39;, &#39;MATH151&#39;, &#39;MATH110&#39;] -->
<g id="edge41" class="edge">
<title>MATH100&#45;&gt;1 of [&#39;MATH100&#39;, &#39;MATH102&#39;, &#39;MATH109&#39;, &#39;MATH120&#39;, &#39;MATH122&#39;, &#39;MATH151&#39;, &#39;MATH110&#39;]</title>
<path fill="none" stroke="black" d="M69.77,-112.76C88.57,-107.34 111.02,-100.86 125.39,-96.72"/>
<polygon fill="black" stroke="black" points="125.97,-98.37 130.29,-95.3 125,-95 125.97,-98.37"/>
</g>
<!-- MATH102 -->
<g id="node32" class="node">
<title>MATH102</title>
<path fill="#f5edc9" stroke="#030a10" d="M62.5,-189C62.5,-189 7.5,-189 7.5,-189 4,-189 0.5,-185.5 0.5,-182 0.5,-182 0.5,-175 0.5,-175 0.5,-171.5 4,-168 7.5,-168 7.5,-168 62.5,-168 62.5,-168 66,-168 69.5,-171.5 69.5,-175 69.5,-175 69.5,-182 69.5,-182 69.5,-185.5 66,-189 62.5,-189"/>
<text text-anchor="middle" x="35" y="-175.4" font-family="Times,serif" font-size="12.00">MATH102</text>
</g>
<!-- MATH102&#45;&gt;1 of [&#39;MATH100&#39;, &#39;MATH102&#39;, &#39;MATH109&#39;] -->
<g id="edge25" class="edge">
<title>MATH102&#45;&gt;1 of [&#39;MATH100&#39;, &#39;MATH102&#39;, &#39;MATH109&#39;]</title>
<path fill="none" stroke="black" d="M69.77,-173.95C88.2,-171.47 110.13,-168.52 124.52,-166.58"/>
<polygon fill="black" stroke="black" points="125.1,-168.27 129.83,-165.87 124.64,-164.8 125.1,-168.27"/>
</g>
<!-- MATH102&#45;&gt;1 of [&#39;MATH100&#39;, &#39;MATH102&#39;, &#39;MATH109&#39;, &#39;MATH120&#39;, &#39;MATH122&#39;, &#39;MATH151&#39;, &#39;MATH110&#39;] -->
<g id="edge42" class="edge">
<title>MATH102&#45;&gt;1 of [&#39;MATH100&#39;, &#39;MATH102&#39;, &#39;MATH109&#39;, &#39;MATH120&#39;, &#39;MATH122&#39;, &#39;MATH151&#39;, &#39;MATH110&#39;]</title>
<path fill="none" stroke="black" d="M64.31,-167.92C66.28,-166.86 68.2,-165.72 70,-164.5 94.81,-147.71 117.85,-121.02 130.32,-105.28"/>
<polygon fill="black" stroke="black" points="131.85,-106.17 133.55,-101.15 129.09,-104.01 131.85,-106.17"/>
</g>
<!-- MATH109 -->
<g id="node33" class="node">
<title>MATH109</title>
<path fill="#f5edc9" stroke="#030a10" d="M62.5,-161C62.5,-161 7.5,-161 7.5,-161 4,-161 0.5,-157.5 0.5,-154 0.5,-154 0.5,-147 0.5,-147 0.5,-143.5 4,-140 7.5,-140 7.5,-140 62.5,-140 62.5,-140 66,-140 69.5,-143.5 69.5,-147 69.5,-147 69.5,-154 69.5,-154 69.5,-157.5 66,-161 62.5,-161"/>
<text text-anchor="middle" x="35" y="-147.4" font-family="Times,serif" font-size="12.00">MATH109</text>
</g>
<!-- MATH109&#45;&gt;1 of [&#39;MATH100&#39;, &#39;MATH102&#39;, &#39;MATH109&#39;] -->
<g id="edge26" class="edge">
<title>MATH109&#45;&gt;1 of [&#39;MATH100&#39;, &#39;MATH102&#39;, &#39;MATH109&#39;]</title>
<path fill="none" stroke="black" d="M69.77,-155.05C88.2,-157.53 110.13,-160.48 124.52,-162.42"/>
<polygon fill="black" stroke="black" points="124.64,-164.2 129.83,-163.13 125.1,-160.73 124.64,-164.2"/>
</g>
<!-- MATH109&#45;&gt;1 of [&#39;MATH100&#39;, &#39;MATH102&#39;, &#39;MATH109&#39;, &#39;MATH120&#39;, &#39;MATH122&#39;, &#39;MATH151&#39;, &#39;MATH110&#39;] -->
<g id="edge43" class="edge">
<title>MATH109&#45;&gt;1 of [&#39;MATH100&#39;, &#39;MATH102&#39;, &#39;MATH109&#39;, &#39;MATH120&#39;, &#39;MATH122&#39;, &#39;MATH151&#39;, &#39;MATH110&#39;]</title>
<path fill="none" stroke="black" d="M62.92,-139.92C65.34,-138.82 67.73,-137.67 70,-136.5 90.86,-125.75 113.63,-110.78 127.36,-101.37"/>
<polygon fill="black" stroke="black" points="128.54,-102.68 131.66,-98.4 126.55,-99.8 128.54,-102.68"/>
</g>
<!-- CHEM091 -->
<g id="node34" class="node">
<title>CHEM091</title>
<path fill="#f5edc9" stroke="#030a10" d="M169,-258C169,-258 113,-258 113,-258 109.5,-258 106,-254.5 106,-251 106,-251 106,-244 106,-244 106,-240.5 109.5,-237 113,-237 113,-237 169,-237 169,-237 172.5,-237 176,-240.5 176,-244 176,-244 176,-251 176,-251 176,-254.5 172.5,-258 169,-258"/>
<text text-anchor="middle" x="141" y="-244.4" font-family="Times,serif" font-size="12.00">CHEM091</text>
</g>
<!-- CHEM091&#45;&gt;CHEM102 -->
<g id="edge27" class="edge">
<title>CHEM091&#45;&gt;CHEM102</title>
<path fill="none" stroke="black" d="M176.05,-239.31C185.93,-236.94 196.79,-234.33 206.95,-231.89"/>
<polygon fill="black" stroke="black" points="207.42,-233.57 211.87,-230.7 206.6,-230.17 207.42,-233.57"/>
</g>
<!-- 1 of [&#39;CHEM101&#39;, &#39;CHEM150&#39;] -->
<g id="node35" class="node">
<title>1 of [&#39;CHEM101&#39;, &#39;CHEM150&#39;]</title>
<ellipse fill="#dfe6e9" stroke="#030a10" cx="141" cy="-218.5" rx="11" ry="11"/>
<text text-anchor="middle" x="141" y="-215.4" font-family="Times,serif" font-size="12.00">1</text>
</g>
<!-- 1 of [&#39;CHEM101&#39;, &#39;CHEM150&#39;]&#45;&gt;CHEM102 -->
<g id="edge28" class="edge">
<title>1 of [&#39;CHEM101&#39;, &#39;CHEM150&#39;]&#45;&gt;CHEM102</title>
<path fill="none" stroke="black" d="M152.35,-218.9C164.94,-219.38 186.92,-220.23 206.42,-220.98"/>
<polygon fill="black" stroke="black" points="206.78,-222.74 211.85,-221.19 206.92,-219.25 206.78,-222.74"/>
</g>
<!-- CHEM101 -->
<g id="node36" class="node">
<title>CHEM101</title>
<path fill="#f5edc9" stroke="#030a10" d="M63,-255C63,-255 7,-255 7,-255 3.5,-255 0,-251.5 0,-248 0,-248 0,-241 0,-241 0,-237.5 3.5,-234 7,-234 7,-234 63,-234 63,-234 66.5,-234 70,-237.5 70,-241 70,-241 70,-248 70,-248 70,-251.5 66.5,-255 63,-255"/>
<text text-anchor="middle" x="35" y="-241.4" font-family="Times,serif" font-size="12.00">CHEM101</text>
</g>
<!-- CHEM101&#45;&gt;1 of [&#39;CHEM101&#39;, &#39;CHEM150&#39;] -->
<g id="edge29" class="edge">
<title>CHEM101&#45;&gt;1 of [&#39;CHEM101&#39;, &#39;CHEM150&#39;]</title>
<path fill="none" stroke="black" d="M70.05,-235.99C88.63,-231.34 110.68,-225.83 124.99,-222.25"/>
<polygon fill="black" stroke="black" points="125.46,-223.94 129.89,-221.03 124.61,-220.54 125.46,-223.94"/>
</g>
<!-- CHEM150 -->
<g id="node37" class="node">
<title>CHEM150</title>
<path fill="#f5edc9" stroke="#030a10" d="M63,-227C63,-227 7,-227 7,-227 3.5,-227 0,-223.5 0,-220 0,-220 0,-213 0,-213 0,-209.5 3.5,-206 7,-206 7,-206 63,-206 63,-206 66.5,-206 70,-209.5 70,-213 70,-213 70,-220 70,-220 70,-223.5 66.5,-227 63,-227"/>
<text text-anchor="middle" x="35" y="-213.4" font-family="Times,serif" font-size="12.00">CHEM150</text>
</g>
<!-- CHEM150&#45;&gt;1 of [&#39;CHEM101&#39;, &#39;CHEM150&#39;] -->
<g id="edge30" class="edge">
<title>CHEM150&#45;&gt;1 of [&#39;CHEM101&#39;, &#39;CHEM150&#39;]</title>
<path fill="none" stroke="black" d="M70.05,-217.15C88.46,-217.51 110.29,-217.93 124.61,-218.2"/>
<polygon fill="black" stroke="black" points="124.85,-219.96 129.89,-218.31 124.92,-216.46 124.85,-219.96"/>
</g>
<!-- 1 of [&#39;EOS201&#39;, &#39;EOS240&#39;]&#45;&gt;EOS450 -->
<g id="edge31" class="edge">
<title>1 of [&#39;EOS201&#39;, &#39;EOS240&#39;]&#45;&gt;EOS450</title>
<path fill="none" stroke="black" d="M573.09,-145.76C586.21,-150.22 610.43,-158.46 630.5,-165.28"/>
<polygon fill="black" stroke="black" points="629.95,-166.94 635.24,-166.89 631.07,-163.63 629.95,-166.94"/>
</g>
<!-- EOS240 -->
<g id="node39" class="node">
<title>EOS240</title>
<path fill="#f5edc9" stroke="#030a10" d="M482.5,-153C482.5,-153 438.5,-153 438.5,-153 435,-153 431.5,-149.5 431.5,-146 431.5,-146 431.5,-139 431.5,-139 431.5,-135.5 435,-132 438.5,-132 438.5,-132 482.5,-132 482.5,-132 486,-132 489.5,-135.5 489.5,-139 489.5,-139 489.5,-146 489.5,-146 489.5,-149.5 486,-153 482.5,-153"/>
<text text-anchor="middle" x="460.5" y="-139.4" font-family="Times,serif" font-size="12.00">EOS240</text>
</g>
<!-- EOS240&#45;&gt;1 of [&#39;EOS201&#39;, &#39;EOS240&#39;] -->
<g id="edge33" class="edge">
<title>EOS240&#45;&gt;1 of [&#39;EOS201&#39;, &#39;EOS240&#39;]</title>
<path fill="none" stroke="black" d="M489.62,-142.5C507.94,-142.5 531.13,-142.5 546.14,-142.5"/>
<polygon fill="black" stroke="black" points="546.28,-144.25 551.28,-142.5 546.28,-140.75 546.28,-144.25"/>
</g>
<!-- 1 of [&#39;GEOG276&#39;, &#39;EOS201&#39;]&#45;&gt;GEOG376 -->
<g id="edge37" class="edge">
<title>1 of [&#39;GEOG276&#39;, &#39;EOS201&#39;]&#45;&gt;GEOG376</title>
<path fill="none" stroke="black" d="M572.92,-104.96C585.75,-98.81 609.49,-87.56 630,-78.5 630.95,-78.08 631.92,-77.66 632.9,-77.23"/>
<polygon fill="black" stroke="black" points="633.95,-78.68 637.85,-75.1 632.56,-75.47 633.95,-78.68"/>
</g>
<!-- GEOG276 -->
<g id="node41" class="node">
<title>GEOG276</title>
<path fill="#f5edc9" stroke="#030a10" d="M488,-120C488,-120 433,-120 433,-120 429.5,-120 426,-116.5 426,-113 426,-113 426,-106 426,-106 426,-102.5 429.5,-99 433,-99 433,-99 488,-99 488,-99 491.5,-99 495,-102.5 495,-106 495,-106 495,-113 495,-113 495,-116.5 491.5,-120 488,-120"/>
<text text-anchor="middle" x="460.5" y="-106.4" font-family="Times,serif" font-size="12.00">GEOG276</text>
</g>
<!-- GEOG276&#45;&gt;1 of [&#39;GEOG276&#39;, &#39;EOS201&#39;] -->
<g id="edge38" class="edge">
<title>GEOG276&#45;&gt;1 of [&#39;GEOG276&#39;, &#39;EOS201&#39;]</title>
<path fill="none" stroke="black" d="M495.08,-109.5C512.51,-109.5 532.94,-109.5 546.49,-109.5"/>
<polygon fill="black" stroke="black" points="546.5,-111.25 551.5,-109.5 546.5,-107.75 546.5,-111.25"/>
</g>
<!-- 1 of [&#39;MATH100&#39;, &#39;MATH102&#39;, &#39;MATH109&#39;, &#39;MATH120&#39;, &#39;MATH122&#39;, &#39;MATH151&#39;, &#39;MATH110&#39;]&#45;&gt;GEOG376 -->
<g id="edge40" class="edge">
<title>1 of [&#39;MATH100&#39;, &#39;MATH102&#39;, &#39;MATH109&#39;, &#39;MATH120&#39;, &#39;MATH122&#39;, &#39;MATH151&#39;, &#39;MATH110&#39;]&#45;&gt;GEOG376</title>
<path fill="none" stroke="black" d="M152.09,-91.52C182.44,-88.65 275.58,-80.5 353,-80.5 353,-80.5 353,-80.5 461.5,-80.5 518.4,-80.5 584.03,-74.11 624.65,-69.41"/>
<polygon fill="black" stroke="black" points="625.2,-71.11 629.97,-68.79 624.8,-67.63 625.2,-71.11"/>
</g>
<!-- MATH120 -->
<g id="node43" class="node">
<title>MATH120</title>
<path fill="#f5edc9" stroke="#030a10" d="M62.5,-49C62.5,-49 7.5,-49 7.5,-49 4,-49 0.5,-45.5 0.5,-42 0.5,-42 0.5,-35 0.5,-35 0.5,-31.5 4,-28 7.5,-28 7.5,-28 62.5,-28 62.5,-28 66,-28 69.5,-31.5 69.5,-35 69.5,-35 69.5,-42 69.5,-42 69.5,-45.5 66,-49 62.5,-49"/>
<text text-anchor="middle" x="35" y="-35.4" font-family="Times,serif" font-size="12.00">MATH120</text>
</g>
<!-- MATH120&#45;&gt;1 of [&#39;MATH100&#39;, &#39;MATH102&#39;, &#39;MATH109&#39;, &#39;MATH120&#39;, &#39;MATH122&#39;, &#39;MATH151&#39;, &#39;MATH110&#39;] -->
<g id="edge44" class="edge">
<title>MATH120&#45;&gt;1 of [&#39;MATH100&#39;, &#39;MATH102&#39;, &#39;MATH109&#39;, &#39;MATH120&#39;, &#39;MATH122&#39;, &#39;MATH151&#39;, &#39;MATH110&#39;]</title>
<path fill="none" stroke="black" d="M62.51,-49.02C65.06,-50.15 67.59,-51.32 70,-52.5 90.33,-62.45 112.91,-75.79 126.78,-84.27"/>
<polygon fill="black" stroke="black" points="125.96,-85.82 131.14,-86.94 127.8,-82.83 125.96,-85.82"/>
</g>
<!-- MATH122 -->
<g id="node44" class="node">
<title>MATH122</title>
<path fill="#f5edc9" stroke="#030a10" d="M62.5,-21C62.5,-21 7.5,-21 7.5,-21 4,-21 0.5,-17.5 0.5,-14 0.5,-14 0.5,-7 0.5,-7 0.5,-3.5 4,0 7.5,0 7.5,0 62.5,0 62.5,0 66,0 69.5,-3.5 69.5,-7 69.5,-7 69.5,-14 69.5,-14 69.5,-17.5 66,-21 62.5,-21"/>
<text text-anchor="middle" x="35" y="-7.4" font-family="Times,serif" font-size="12.00">MATH122</text>
</g>
<!-- MATH122&#45;&gt;1 of [&#39;MATH100&#39;, &#39;MATH102&#39;, &#39;MATH109&#39;, &#39;MATH120&#39;, &#39;MATH122&#39;, &#39;MATH151&#39;, &#39;MATH110&#39;] -->
<g id="edge45" class="edge">
<title>MATH122&#45;&gt;1 of [&#39;MATH100&#39;, &#39;MATH102&#39;, &#39;MATH109&#39;, &#39;MATH120&#39;, &#39;MATH122&#39;, &#39;MATH151&#39;, &#39;MATH110&#39;]</title>
<path fill="none" stroke="black" d="M64.27,-21.14C66.25,-22.19 68.19,-23.31 70,-24.5 94.34,-40.47 117.55,-65.64 130.17,-80.46"/>
<polygon fill="black" stroke="black" points="128.89,-81.66 133.44,-84.35 131.56,-79.4 128.89,-81.66"/>
</g>
<!-- MATH151 -->
<g id="node45" class="node">
<title>MATH151</title>
<path fill="#f5edc9" stroke="#030a10" d="M62.5,-105C62.5,-105 7.5,-105 7.5,-105 4,-105 0.5,-101.5 0.5,-98 0.5,-98 0.5,-91 0.5,-91 0.5,-87.5 4,-84 7.5,-84 7.5,-84 62.5,-84 62.5,-84 66,-84 69.5,-87.5 69.5,-91 69.5,-91 69.5,-98 69.5,-98 69.5,-101.5 66,-105 62.5,-105"/>
<text text-anchor="middle" x="35" y="-91.4" font-family="Times,serif" font-size="12.00">MATH151</text>
</g>
<!-- MATH151&#45;&gt;1 of [&#39;MATH100&#39;, &#39;MATH102&#39;, &#39;MATH109&#39;, &#39;MATH120&#39;, &#39;MATH122&#39;, &#39;MATH151&#39;, &#39;MATH110&#39;] -->
<g id="edge46" class="edge">
<title>MATH151&#45;&gt;1 of [&#39;MATH100&#39;, &#39;MATH102&#39;, &#39;MATH109&#39;, &#39;MATH120&#39;, &#39;MATH122&#39;, &#39;MATH151&#39;, &#39;MATH110&#39;]</title>
<path fill="none" stroke="black" d="M69.77,-93.85C88.2,-93.5 110.13,-93.07 124.52,-92.8"/>
<polygon fill="black" stroke="black" points="124.86,-94.54 129.83,-92.7 124.79,-91.04 124.86,-94.54"/>
</g>
<!-- MATH110 -->
<g id="node46" class="node">
<title>MATH110</title>
<path fill="#f5edc9" stroke="#030a10" d="M62.5,-77C62.5,-77 7.5,-77 7.5,-77 4,-77 0.5,-73.5 0.5,-70 0.5,-70 0.5,-63 0.5,-63 0.5,-59.5 4,-56 7.5,-56 7.5,-56 62.5,-56 62.5,-56 66,-56 69.5,-59.5 69.5,-63 69.5,-63 69.5,-70 69.5,-70 69.5,-73.5 66,-77 62.5,-77"/>
<text text-anchor="middle" x="35" y="-63.4" font-family="Times,serif" font-size="12.00">MATH110</text>
</g>
<!-- MATH110&#45;&gt;1 of [&#39;MATH100&#39;, &#39;MATH102&#39;, &#39;MATH109&#39;, &#39;MATH120&#39;, &#39;MATH122&#39;, &#39;MATH151&#39;, &#39;MATH110&#39;] -->
<g id="edge47" class="edge">
<title>MATH110&#45;&gt;1 of [&#39;MATH100&#39;, &#39;MATH102&#39;, &#39;MATH109&#39;, &#39;MATH120&#39;, &#39;MATH122&#39;, &#39;MATH151&#39;, &#39;MATH110&#39;]</title>
<path fill="none" stroke="black" d="M69.77,-74.94C88.36,-79.59 110.52,-85.13 124.9,-88.72"/>
<polygon fill="black" stroke="black" points="124.55,-90.44 129.83,-89.96 125.4,-87.05 124.55,-90.44"/>
</g>
<!-- 1 of [&#39;EOS310&#39;, &#39;EOS316&#39;]&#45;&gt;EOS408 -->
<g id="edge49" class="edge">
<title>1 of [&#39;EOS310&#39;, &#39;EOS316&#39;]&#45;&gt;EOS408</title>
<path fill="none" stroke="black" d="M573.45,-396.61C586.66,-392.78 610.63,-385.83 630.51,-380.07"/>
<polygon fill="black" stroke="black" points="631.16,-381.7 635.47,-378.63 630.18,-378.34 631.16,-381.7"/>
</g>
<!-- EOS310 -->
<g id="node48" class="node">
<title>EOS310</title>
<path fill="#f5edc9" stroke="#030a10" d="M482.5,-413C482.5,-413 438.5,-413 438.5,-413 435,-413 431.5,-409.5 431.5,-406 431.5,-406 431.5,-399 431.5,-399 431.5,-395.5 435,-392 438.5,-392 438.5,-392 482.5,-392 482.5,-392 486,-392 489.5,-395.5 489.5,-399 489.5,-399 489.5,-406 489.5,-406 489.5,-409.5 486,-413 482.5,-413"/>
<text text-anchor="middle" x="460.5" y="-399.4" font-family="Times,serif" font-size="12.00">EOS310</text>
</g>
<!-- EOS310&#45;&gt;1 of [&#39;EOS310&#39;, &#39;EOS316&#39;] -->
<g id="edge50" class="edge">
<title>EOS310&#45;&gt;1 of [&#39;EOS310&#39;, &#39;EOS316&#39;]</title>
<path fill="none" stroke="black" d="M489.62,-401.66C507.94,-401.11 531.13,-400.41 546.14,-399.96"/>
<polygon fill="black" stroke="black" points="546.33,-401.71 551.28,-399.81 546.23,-398.21 546.33,-401.71"/>
</g>
<!-- EOS202 -->
<g id="node49" class="node">
<title>EOS202</title>
<path fill="#f5edc9" stroke="#030a10" d="M482.5,-257C482.5,-257 438.5,-257 438.5,-257 435,-257 431.5,-253.5 431.5,-250 431.5,-250 431.5,-243 431.5,-243 431.5,-239.5 435,-236 438.5,-236 438.5,-236 482.5,-236 482.5,-236 486,-236 489.5,-239.5 489.5,-243 489.5,-243 489.5,-250 489.5,-250 489.5,-253.5 486,-257 482.5,-257"/>
<text text-anchor="middle" x="460.5" y="-243.4" font-family="Times,serif" font-size="12.00">EOS202</text>
</g>
<!-- EOS202&#45;&gt;EOS300 -->
<g id="edge53" class="edge">
<title>EOS202&#45;&gt;EOS300</title>
<path fill="none" stroke="black" d="M489.62,-249.03C501.55,-250.1 515.55,-251.36 528.01,-252.49"/>
<polygon fill="black" stroke="black" points="528.11,-254.25 533.24,-252.96 528.42,-250.77 528.11,-254.25"/>
</g>
<!-- 1 of [&#39;BIOL215&#39;, &#39;EOS330&#39;]&#45;&gt;BIOL457 -->
<g id="edge55" class="edge">
<title>1 of [&#39;BIOL215&#39;, &#39;EOS330&#39;]&#45;&gt;BIOL457</title>
<path fill="none" stroke="black" d="M675.75,-260.5C688.98,-260.5 712.69,-260.5 732.82,-260.5"/>
<polygon fill="black" stroke="black" points="732.85,-262.25 737.85,-260.5 732.85,-258.75 732.85,-262.25"/>
</g>
<!-- BIOL215 -->
<g id="node51" class="node">
<title>BIOL215</title>
<path fill="#f5edc9" stroke="#030a10" d="M587,-238C587,-238 538,-238 538,-238 534.5,-238 531,-234.5 531,-231 531,-231 531,-224 531,-224 531,-220.5 534.5,-217 538,-217 538,-217 587,-217 587,-217 590.5,-217 594,-220.5 594,-224 594,-224 594,-231 594,-231 594,-234.5 590.5,-238 587,-238"/>
<text text-anchor="middle" x="562.5" y="-224.4" font-family="Times,serif" font-size="12.00">BIOL215</text>
</g>
<!-- BIOL215&#45;&gt;1 of [&#39;BIOL215&#39;, &#39;EOS330&#39;] -->
<g id="edge56" class="edge">
<title>BIOL215&#45;&gt;1 of [&#39;BIOL215&#39;, &#39;EOS330&#39;]</title>
<path fill="none" stroke="black" d="M594.05,-237.58C612.26,-243.59 634.55,-250.95 648.88,-255.68"/>
<polygon fill="black" stroke="black" points="648.48,-257.39 653.78,-257.29 649.58,-254.06 648.48,-257.39"/>
</g>
</g>
</svg>
