<?xml version="1.0" encoding="UTF-8" standalone="no"?>
<!DOCTYPE svg PUBLIC "-//W3C//DTD SVG 1.1//EN"
 "http://www.w3.org/Graphics/SVG/1.1/DTD/svg11.dtd">
<!-- Generated by graphviz version 2.43.0 (0)
 -->
<!-- Title: unix Pages: 1 -->
<svg width="792pt" height="340pt"
 viewBox="0.00 0.00 792.00 339.50" xmlns="http://www.w3.org/2000/svg" xmlns:xlink="http://www.w3.org/1999/xlink">
<g id="graph0" class="graph" transform="scale(1 1) rotate(0) translate(4 335.5)">
<title>unix</title>
<polygon fill="white" stroke="transparent" points="-4,4 -4,-335.5 788,-335.5 788,4 -4,4"/>
<text text-anchor="middle" x="392" y="-316.3" font-family="Times,serif" font-size="14.00">EOS321: Earth History</text>
<!-- PHYS120 -->
<g id="node1" class="node">
<title>PHYS120</title>
<path fill="#f5edc9" stroke="#030a10" d="M274.5,-260C274.5,-260 222.5,-260 222.5,-260 219,-260 215.5,-256.5 215.5,-253 215.5,-253 215.5,-246 215.5,-246 215.5,-242.5 219,-239 222.5,-239 222.5,-239 274.5,-239 274.5,-239 278,-239 281.5,-242.5 281.5,-246 281.5,-246 281.5,-253 281.5,-253 281.5,-256.5 278,-260 274.5,-260"/>
<text text-anchor="middle" x="248.5" y="-246.4" font-family="Times,serif" font-size="12.00">PHYS120</text>
</g>
<!-- PHYS130 -->
<g id="node12" class="node">
<title>PHYS130</title>
<path fill="#f5edc9" stroke="#030a10" d="M491,-257C491,-257 439,-257 439,-257 435.5,-257 432,-253.5 432,-250 432,-250 432,-243 432,-243 432,-239.5 435.5,-236 439,-236 439,-236 491,-236 491,-236 494.5,-236 498,-239.5 498,-243 498,-243 498,-250 498,-250 498,-253.5 494.5,-257 491,-257"/>
<text text-anchor="middle" x="465" y="-243.4" font-family="Times,serif" font-size="12.00">PHYS130</text>
</g>
<!-- PHYS120&#45;&gt;PHYS130 -->
<g id="edge37" class="edge">
<title>PHYS120&#45;&gt;PHYS130</title>
<path fill="none" stroke="black" d="M281.61,-249.05C320.39,-248.51 385.51,-247.6 426.54,-247.02"/>
<polygon fill="black" stroke="black" points="426.69,-248.77 431.67,-246.95 426.64,-245.27 426.69,-248.77"/>
</g>
<!-- 1 of [&#39;PHYS110&#39;, &#39;PHYS120&#39;] -->
<g id="node22" class="node">
<title>1 of [&#39;PHYS110&#39;, &#39;PHYS120&#39;]</title>
<ellipse fill="#dfe6e9" stroke="#030a10" cx="357" cy="-297.5" rx="11" ry="11"/>
<text text-anchor="middle" x="357" y="-294.4" font-family="Times,serif" font-size="12.00">1</text>
</g>
<!-- PHYS120&#45;&gt;1 of [&#39;PHYS110&#39;, &#39;PHYS120&#39;] -->
<g id="edge7" class="edge">
<title>PHYS120&#45;&gt;1 of [&#39;PHYS110&#39;, &#39;PHYS120&#39;]</title>
<path fill="none" stroke="black" d="M272.65,-260.12C286.87,-266.62 305.47,-275.09 322,-282.5 328.53,-285.43 335.79,-288.63 341.91,-291.33"/>
<polygon fill="black" stroke="black" points="341.47,-293.05 346.75,-293.45 342.88,-289.84 341.47,-293.05"/>
</g>
<!-- 1 of [&#39;PHYS102A&#39;, &#39;PHYS110&#39;, &#39;PHYS120&#39;] -->
<g id="node32" class="node">
<title>1 of [&#39;PHYS102A&#39;, &#39;PHYS110&#39;, &#39;PHYS120&#39;]</title>
<ellipse fill="#dfe6e9" stroke="#030a10" cx="357" cy="-221.5" rx="11" ry="11"/>
<text text-anchor="middle" x="357" y="-218.4" font-family="Times,serif" font-size="12.00">1</text>
</g>
<!-- PHYS120&#45;&gt;1 of [&#39;PHYS102A&#39;, &#39;PHYS110&#39;, &#39;PHYS120&#39;] -->
<g id="edge42" class="edge">
<title>PHYS120&#45;&gt;1 of [&#39;PHYS102A&#39;, &#39;PHYS110&#39;, &#39;PHYS120&#39;]</title>
<path fill="none" stroke="black" d="M281.74,-241.02C301.37,-235.86 325.54,-229.51 340.86,-225.48"/>
<polygon fill="black" stroke="black" points="341.69,-227.07 346.08,-224.11 340.8,-223.69 341.69,-227.07"/>
</g>
<!-- EOS210 -->
<g id="node2" class="node">
<title>EOS210</title>
<path fill="#e7a79b" stroke="#030a10" d="M487,-301C487,-301 443,-301 443,-301 439.5,-301 436,-297.5 436,-294 436,-294 436,-287 436,-287 436,-283.5 439.5,-280 443,-280 443,-280 487,-280 487,-280 490.5,-280 494,-283.5 494,-287 494,-287 494,-294 494,-294 494,-297.5 490.5,-301 487,-301"/>
<text text-anchor="middle" x="465" y="-287.4" font-family="Times,serif" font-size="12.00">EOS210</text>
</g>
<!-- EOS321 -->
<g id="node5" class="node">
<title>EOS321</title>
<path fill="#9fa7be" stroke="#030a10" d="M777,-207C777,-207 733,-207 733,-207 729.5,-207 726,-203.5 726,-200 726,-200 726,-193 726,-193 726,-189.5 729.5,-186 733,-186 733,-186 777,-186 777,-186 780.5,-186 784,-189.5 784,-193 784,-193 784,-200 784,-200 784,-203.5 780.5,-207 777,-207"/>
<text text-anchor="middle" x="755" y="-193.4" font-family="Times,serif" font-size="12.00">EOS321</text>
</g>
<!-- EOS210&#45;&gt;EOS321 -->
<g id="edge10" class="edge">
<title>EOS210&#45;&gt;EOS321</title>
<path fill="none" stroke="black" d="M494.14,-281.32C547.58,-263.87 663.54,-226.03 720.73,-207.36"/>
<polygon fill="black" stroke="black" points="721.54,-208.94 725.75,-205.72 720.45,-205.61 721.54,-208.94"/>
</g>
<!-- EOS201 -->
<g id="node3" class="node">
<title>EOS201</title>
<path fill="#f5edc9" stroke="#030a10" d="M589,-49C589,-49 545,-49 545,-49 541.5,-49 538,-45.5 538,-42 538,-42 538,-35 538,-35 538,-31.5 541.5,-28 545,-28 545,-28 589,-28 589,-28 592.5,-28 596,-31.5 596,-35 596,-35 596,-42 596,-42 596,-45.5 592.5,-49 589,-49"/>
<text text-anchor="middle" x="567" y="-35.4" font-family="Times,serif" font-size="12.00">EOS201</text>
</g>
<!-- EOS300 -->
<g id="node17" class="node">
<title>EOS300</title>
<path fill="#e7a79b" stroke="#030a10" d="M683,-60C683,-60 639,-60 639,-60 635.5,-60 632,-56.5 632,-53 632,-53 632,-46 632,-46 632,-42.5 635.5,-39 639,-39 639,-39 683,-39 683,-39 686.5,-39 690,-42.5 690,-46 690,-46 690,-53 690,-53 690,-56.5 686.5,-60 683,-60"/>
<text text-anchor="middle" x="661" y="-46.4" font-family="Times,serif" font-size="12.00">EOS300</text>
</g>
<!-- EOS201&#45;&gt;EOS300 -->
<g id="edge45" class="edge">
<title>EOS201&#45;&gt;EOS300</title>
<path fill="none" stroke="black" d="M596.1,-41.86C605.73,-43.01 616.6,-44.31 626.61,-45.51"/>
<polygon fill="black" stroke="black" points="626.58,-47.27 631.75,-46.12 627,-43.79 626.58,-47.27"/>
</g>
<!-- EOS110 -->
<g id="node4" class="node">
<title>EOS110</title>
<path fill="#f5edc9" stroke="#030a10" d="M487,-170C487,-170 443,-170 443,-170 439.5,-170 436,-166.5 436,-163 436,-163 436,-156 436,-156 436,-152.5 439.5,-149 443,-149 443,-149 487,-149 487,-149 490.5,-149 494,-152.5 494,-156 494,-156 494,-163 494,-163 494,-166.5 490.5,-170 487,-170"/>
<text text-anchor="middle" x="465" y="-156.4" font-family="Times,serif" font-size="12.00">EOS110</text>
</g>
<!-- 1 of [&#39;EOS110&#39;, &#39;EOS130&#39;, &#39;GEOG130&#39;, &#39;GEOG103&#39;] -->
<g id="node24" class="node">
<title>1 of [&#39;EOS110&#39;, &#39;EOS130&#39;, &#39;GEOG130&#39;, &#39;GEOG103&#39;]</title>
<ellipse fill="#dfe6e9" stroke="#030a10" cx="567" cy="-131.5" rx="11" ry="11"/>
<text text-anchor="middle" x="567" y="-128.4" font-family="Times,serif" font-size="12.00">1</text>
</g>
<!-- EOS110&#45;&gt;1 of [&#39;EOS110&#39;, &#39;EOS130&#39;, &#39;GEOG130&#39;, &#39;GEOG103&#39;] -->
<g id="edge17" class="edge">
<title>EOS110&#45;&gt;1 of [&#39;EOS110&#39;, &#39;EOS130&#39;, &#39;GEOG130&#39;, &#39;GEOG103&#39;]</title>
<path fill="none" stroke="black" d="M494.12,-151.63C512.64,-146.44 536.16,-139.86 551.14,-135.66"/>
<polygon fill="black" stroke="black" points="551.91,-137.26 556.26,-134.23 550.97,-133.89 551.91,-137.26"/>
</g>
<!-- MATH101 -->
<g id="node6" class="node">
<title>MATH101</title>
<path fill="#f5edc9" stroke="#030a10" d="M384.5,-279C384.5,-279 329.5,-279 329.5,-279 326,-279 322.5,-275.5 322.5,-272 322.5,-272 322.5,-265 322.5,-265 322.5,-261.5 326,-258 329.5,-258 329.5,-258 384.5,-258 384.5,-258 388,-258 391.5,-261.5 391.5,-265 391.5,-265 391.5,-272 391.5,-272 391.5,-275.5 388,-279 384.5,-279"/>
<text text-anchor="middle" x="357" y="-265.4" font-family="Times,serif" font-size="12.00">MATH101</text>
</g>
<!-- MATH101&#45;&gt;EOS210 -->
<g id="edge4" class="edge">
<title>MATH101&#45;&gt;EOS210</title>
<path fill="none" stroke="black" d="M391.54,-275.46C403.96,-278.04 418.03,-280.96 430.45,-283.54"/>
<polygon fill="black" stroke="black" points="430.41,-285.32 435.66,-284.62 431.12,-281.89 430.41,-285.32"/>
</g>
<!-- EOS261 -->
<g id="node8" class="node">
<title>EOS261</title>
<path fill="#e7a79b" stroke="#030a10" d="M683,-207C683,-207 639,-207 639,-207 635.5,-207 632,-203.5 632,-200 632,-200 632,-193 632,-193 632,-189.5 635.5,-186 639,-186 639,-186 683,-186 683,-186 686.5,-186 690,-189.5 690,-193 690,-193 690,-200 690,-200 690,-203.5 686.5,-207 683,-207"/>
<text text-anchor="middle" x="661" y="-193.4" font-family="Times,serif" font-size="12.00">EOS261</text>
</g>
<!-- MATH101&#45;&gt;EOS261 -->
<g id="edge22" class="edge">
<title>MATH101&#45;&gt;EOS261</title>
<path fill="none" stroke="black" d="M391.52,-269.38C420.94,-269.5 464.71,-268.11 502,-260.5 545.53,-251.62 554.96,-243.5 596,-226.5 608.6,-221.28 622.32,-214.94 633.81,-209.44"/>
<polygon fill="black" stroke="black" points="634.85,-210.88 638.59,-207.13 633.33,-207.73 634.85,-210.88"/>
</g>
<!-- MATH101&#45;&gt;PHYS130 -->
<g id="edge38" class="edge">
<title>MATH101&#45;&gt;PHYS130</title>
<path fill="none" stroke="black" d="M391.54,-261.54C402.69,-259.22 415.18,-256.63 426.6,-254.26"/>
<polygon fill="black" stroke="black" points="427.22,-255.92 431.76,-253.19 426.51,-252.49 427.22,-255.92"/>
</g>
<!-- EOS205 -->
<g id="node7" class="node">
<title>EOS205</title>
<path fill="#f5edc9" stroke="#030a10" d="M487,-58C487,-58 443,-58 443,-58 439.5,-58 436,-54.5 436,-51 436,-51 436,-44 436,-44 436,-40.5 439.5,-37 443,-37 443,-37 487,-37 487,-37 490.5,-37 494,-40.5 494,-44 494,-44 494,-51 494,-51 494,-54.5 490.5,-58 487,-58"/>
<text text-anchor="middle" x="465" y="-44.4" font-family="Times,serif" font-size="12.00">EOS205</text>
</g>
<!-- EOS205&#45;&gt;EOS201 -->
<g id="edge9" class="edge">
<title>EOS205&#45;&gt;EOS201</title>
<path fill="none" stroke="black" d="M494.12,-44.97C506.05,-43.9 520.05,-42.64 532.51,-41.51"/>
<polygon fill="black" stroke="black" points="532.92,-43.23 537.74,-41.04 532.61,-39.75 532.92,-43.23"/>
</g>
<!-- EOS205&#45;&gt;EOS300 -->
<g id="edge47" class="edge">
<title>EOS205&#45;&gt;EOS300</title>
<path fill="none" stroke="black" d="M494.01,-49.9C507.33,-50.92 523.47,-52 538,-52.5 563.76,-53.39 570.23,-53.1 596,-52.5 606.04,-52.26 616.95,-51.82 626.88,-51.35"/>
<polygon fill="black" stroke="black" points="627.06,-53.09 631.97,-51.1 626.89,-49.6 627.06,-53.09"/>
</g>
<!-- EOS261&#45;&gt;EOS321 -->
<g id="edge12" class="edge">
<title>EOS261&#45;&gt;EOS321</title>
<path fill="none" stroke="black" d="M690.1,-196.5C699.73,-196.5 710.6,-196.5 720.61,-196.5"/>
<polygon fill="black" stroke="black" points="720.75,-198.25 725.75,-196.5 720.75,-194.75 720.75,-198.25"/>
</g>
<!-- PHYS110 -->
<g id="node9" class="node">
<title>PHYS110</title>
<path fill="#f5edc9" stroke="#030a10" d="M274.5,-232C274.5,-232 222.5,-232 222.5,-232 219,-232 215.5,-228.5 215.5,-225 215.5,-225 215.5,-218 215.5,-218 215.5,-214.5 219,-211 222.5,-211 222.5,-211 274.5,-211 274.5,-211 278,-211 281.5,-214.5 281.5,-218 281.5,-218 281.5,-225 281.5,-225 281.5,-228.5 278,-232 274.5,-232"/>
<text text-anchor="middle" x="248.5" y="-218.4" font-family="Times,serif" font-size="12.00">PHYS110</text>
</g>
<!-- PHYS111 -->
<g id="node16" class="node">
<title>PHYS111</title>
<path fill="#f5edc9" stroke="#030a10" d="M382.5,-203C382.5,-203 331.5,-203 331.5,-203 328,-203 324.5,-199.5 324.5,-196 324.5,-196 324.5,-189 324.5,-189 324.5,-185.5 328,-182 331.5,-182 331.5,-182 382.5,-182 382.5,-182 386,-182 389.5,-185.5 389.5,-189 389.5,-189 389.5,-196 389.5,-196 389.5,-199.5 386,-203 382.5,-203"/>
<text text-anchor="middle" x="357" y="-189.4" font-family="Times,serif" font-size="12.00">PHYS111</text>
</g>
<!-- PHYS110&#45;&gt;PHYS111 -->
<g id="edge43" class="edge">
<title>PHYS110&#45;&gt;PHYS111</title>
<path fill="none" stroke="black" d="M281.74,-212.72C293.53,-209.51 306.95,-205.86 319.11,-202.55"/>
<polygon fill="black" stroke="black" points="319.87,-204.15 324.23,-201.15 318.95,-200.78 319.87,-204.15"/>
</g>
<!-- PHYS110&#45;&gt;1 of [&#39;PHYS110&#39;, &#39;PHYS120&#39;] -->
<g id="edge6" class="edge">
<title>PHYS110&#45;&gt;1 of [&#39;PHYS110&#39;, &#39;PHYS120&#39;]</title>
<path fill="none" stroke="black" d="M279.31,-232.19C281.66,-233.49 283.92,-234.93 286,-236.5 306.69,-252.18 301.51,-266.56 322,-282.5 327.65,-286.89 334.79,-290.3 341.06,-292.74"/>
<polygon fill="black" stroke="black" points="340.78,-294.5 346.08,-294.57 341.98,-291.21 340.78,-294.5"/>
</g>
<!-- PHYS110&#45;&gt;1 of [&#39;PHYS102A&#39;, &#39;PHYS110&#39;, &#39;PHYS120&#39;] -->
<g id="edge41" class="edge">
<title>PHYS110&#45;&gt;1 of [&#39;PHYS102A&#39;, &#39;PHYS110&#39;, &#39;PHYS120&#39;]</title>
<path fill="none" stroke="black" d="M281.74,-221.5C301.15,-221.5 325,-221.5 340.35,-221.5"/>
<polygon fill="black" stroke="black" points="340.59,-223.25 345.59,-221.5 340.59,-219.75 340.59,-223.25"/>
</g>
<!-- EOS202 -->
<g id="node10" class="node">
<title>EOS202</title>
<path fill="#f5edc9" stroke="#030a10" d="M589,-21C589,-21 545,-21 545,-21 541.5,-21 538,-17.5 538,-14 538,-14 538,-7 538,-7 538,-3.5 541.5,0 545,0 545,0 589,0 589,0 592.5,0 596,-3.5 596,-7 596,-7 596,-14 596,-14 596,-17.5 592.5,-21 589,-21"/>
<text text-anchor="middle" x="567" y="-7.4" font-family="Times,serif" font-size="12.00">EOS202</text>
</g>
<!-- EOS202&#45;&gt;EOS300 -->
<g id="edge46" class="edge">
<title>EOS202&#45;&gt;EOS300</title>
<path fill="none" stroke="black" d="M593.14,-21.16C604.69,-26.05 618.48,-31.9 630.52,-37"/>
<polygon fill="black" stroke="black" points="629.92,-38.65 635.21,-38.99 631.29,-35.43 629.92,-38.65"/>
</g>
<!-- CHEM102 -->
<g id="node11" class="node">
<title>CHEM102</title>
<path fill="#f5edc9" stroke="#030a10" d="M385,-138C385,-138 329,-138 329,-138 325.5,-138 322,-134.5 322,-131 322,-131 322,-124 322,-124 322,-120.5 325.5,-117 329,-117 329,-117 385,-117 385,-117 388.5,-117 392,-120.5 392,-124 392,-124 392,-131 392,-131 392,-134.5 388.5,-138 385,-138"/>
<text text-anchor="middle" x="357" y="-124.4" font-family="Times,serif" font-size="12.00">CHEM102</text>
</g>
<!-- CHEM102&#45;&gt;EOS205 -->
<g id="edge15" class="edge">
<title>CHEM102&#45;&gt;EOS205</title>
<path fill="none" stroke="black" d="M366.95,-116.79C379.38,-102.51 403.15,-77.2 428,-61.5 429.09,-60.81 430.22,-60.15 431.38,-59.51"/>
<polygon fill="black" stroke="black" points="432.31,-61 435.96,-57.16 430.71,-57.88 432.31,-61"/>
</g>
<!-- CHEM102&#45;&gt;EOS261 -->
<g id="edge21" class="edge">
<title>CHEM102&#45;&gt;EOS261</title>
<path fill="none" stroke="black" d="M370.4,-138.37C383.66,-149.31 405.79,-165.64 428,-173.5 463.76,-186.15 571.54,-192.61 626.7,-195.16"/>
<polygon fill="black" stroke="black" points="626.79,-196.91 631.87,-195.39 626.95,-193.42 626.79,-196.91"/>
</g>
<!-- 1 of [&#39;PHYS111&#39;, &#39;PHYS130&#39;, &#39;PHYS102B&#39;] -->
<g id="node25" class="node">
<title>1 of [&#39;PHYS111&#39;, &#39;PHYS130&#39;, &#39;PHYS102B&#39;]</title>
<ellipse fill="#dfe6e9" stroke="#030a10" cx="567" cy="-211.5" rx="11" ry="11"/>
<text text-anchor="middle" x="567" y="-208.4" font-family="Times,serif" font-size="12.00">1</text>
</g>
<!-- PHYS130&#45;&gt;1 of [&#39;PHYS111&#39;, &#39;PHYS130&#39;, &#39;PHYS102B&#39;] -->
<g id="edge25" class="edge">
<title>PHYS130&#45;&gt;1 of [&#39;PHYS111&#39;, &#39;PHYS130&#39;, &#39;PHYS102B&#39;]</title>
<path fill="none" stroke="black" d="M496,-236C514.24,-229.61 536.74,-221.74 551.22,-216.67"/>
<polygon fill="black" stroke="black" points="552.03,-218.24 556.17,-214.94 550.87,-214.94 552.03,-218.24"/>
</g>
<!-- EOS130 -->
<g id="node13" class="node">
<title>EOS130</title>
<path fill="#f5edc9" stroke="#030a10" d="M487,-142C487,-142 443,-142 443,-142 439.5,-142 436,-138.5 436,-135 436,-135 436,-128 436,-128 436,-124.5 439.5,-121 443,-121 443,-121 487,-121 487,-121 490.5,-121 494,-124.5 494,-128 494,-128 494,-135 494,-135 494,-138.5 490.5,-142 487,-142"/>
<text text-anchor="middle" x="465" y="-128.4" font-family="Times,serif" font-size="12.00">EOS130</text>
</g>
<!-- EOS130&#45;&gt;1 of [&#39;EOS110&#39;, &#39;EOS130&#39;, &#39;GEOG130&#39;, &#39;GEOG103&#39;] -->
<g id="edge18" class="edge">
<title>EOS130&#45;&gt;1 of [&#39;EOS110&#39;, &#39;EOS130&#39;, &#39;GEOG130&#39;, &#39;GEOG103&#39;]</title>
<path fill="none" stroke="black" d="M494.12,-131.5C512.44,-131.5 535.63,-131.5 550.64,-131.5"/>
<polygon fill="black" stroke="black" points="550.78,-133.25 555.78,-131.5 550.78,-129.75 550.78,-133.25"/>
</g>
<!-- PHYS102B -->
<g id="node14" class="node">
<title>PHYS102B</title>
<path fill="#f5edc9" stroke="#030a10" d="M495,-229C495,-229 435,-229 435,-229 431.5,-229 428,-225.5 428,-222 428,-222 428,-215 428,-215 428,-211.5 431.5,-208 435,-208 435,-208 495,-208 495,-208 498.5,-208 502,-211.5 502,-215 502,-215 502,-222 502,-222 502,-225.5 498.5,-229 495,-229"/>
<text text-anchor="middle" x="465" y="-215.4" font-family="Times,serif" font-size="12.00">PHYS102B</text>
</g>
<!-- PHYS102B&#45;&gt;1 of [&#39;PHYS111&#39;, &#39;PHYS130&#39;, &#39;PHYS102B&#39;] -->
<g id="edge26" class="edge">
<title>PHYS102B&#45;&gt;1 of [&#39;PHYS111&#39;, &#39;PHYS130&#39;, &#39;PHYS102B&#39;]</title>
<path fill="none" stroke="black" d="M502.1,-215.97C518.75,-214.81 537.62,-213.49 550.52,-212.58"/>
<polygon fill="black" stroke="black" points="550.79,-214.32 555.65,-212.22 550.54,-210.83 550.79,-214.32"/>
</g>
<!-- GEOG130 -->
<g id="node15" class="node">
<title>GEOG130</title>
<path fill="#f5edc9" stroke="#030a10" d="M492.5,-114C492.5,-114 437.5,-114 437.5,-114 434,-114 430.5,-110.5 430.5,-107 430.5,-107 430.5,-100 430.5,-100 430.5,-96.5 434,-93 437.5,-93 437.5,-93 492.5,-93 492.5,-93 496,-93 499.5,-96.5 499.5,-100 499.5,-100 499.5,-107 499.5,-107 499.5,-110.5 496,-114 492.5,-114"/>
<text text-anchor="middle" x="465" y="-100.4" font-family="Times,serif" font-size="12.00">GEOG130</text>
</g>
<!-- GEOG130&#45;&gt;1 of [&#39;EOS110&#39;, &#39;EOS130&#39;, &#39;GEOG130&#39;, &#39;GEOG103&#39;] -->
<g id="edge19" class="edge">
<title>GEOG130&#45;&gt;1 of [&#39;EOS110&#39;, &#39;EOS130&#39;, &#39;GEOG130&#39;, &#39;GEOG103&#39;]</title>
<path fill="none" stroke="black" d="M499.58,-112.9C517.01,-117.78 537.44,-123.5 550.99,-127.3"/>
<polygon fill="black" stroke="black" points="550.71,-129.04 556,-128.7 551.66,-125.67 550.71,-129.04"/>
</g>
<!-- PHYS111&#45;&gt;1 of [&#39;PHYS111&#39;, &#39;PHYS130&#39;, &#39;PHYS102B&#39;] -->
<g id="edge24" class="edge">
<title>PHYS111&#45;&gt;1 of [&#39;PHYS111&#39;, &#39;PHYS130&#39;, &#39;PHYS102B&#39;]</title>
<path fill="none" stroke="black" d="M389.77,-194.91C418.96,-197.18 463.42,-200.78 502,-204.5 518.74,-206.11 537.92,-208.25 550.88,-209.74"/>
<polygon fill="black" stroke="black" points="550.86,-211.49 556.03,-210.33 551.26,-208.02 550.86,-211.49"/>
</g>
<!-- EOS300&#45;&gt;EOS321 -->
<g id="edge11" class="edge">
<title>EOS300&#45;&gt;EOS321</title>
<path fill="none" stroke="black" d="M668.62,-60.07C684.65,-85.69 725.64,-151.19 744.39,-181.14"/>
<polygon fill="black" stroke="black" points="743.06,-182.32 747.2,-185.63 746.03,-180.46 743.06,-182.32"/>
</g>
<!-- GEOG103 -->
<g id="node18" class="node">
<title>GEOG103</title>
<path fill="#f5edc9" stroke="#030a10" d="M492.5,-86C492.5,-86 437.5,-86 437.5,-86 434,-86 430.5,-82.5 430.5,-79 430.5,-79 430.5,-72 430.5,-72 430.5,-68.5 434,-65 437.5,-65 437.5,-65 492.5,-65 492.5,-65 496,-65 499.5,-68.5 499.5,-72 499.5,-72 499.5,-79 499.5,-79 499.5,-82.5 496,-86 492.5,-86"/>
<text text-anchor="middle" x="465" y="-72.4" font-family="Times,serif" font-size="12.00">GEOG103</text>
</g>
<!-- GEOG103&#45;&gt;1 of [&#39;EOS110&#39;, &#39;EOS130&#39;, &#39;GEOG130&#39;, &#39;GEOG103&#39;] -->
<g id="edge20" class="edge">
<title>GEOG103&#45;&gt;1 of [&#39;EOS110&#39;, &#39;EOS130&#39;, &#39;GEOG130&#39;, &#39;GEOG103&#39;]</title>
<path fill="none" stroke="black" d="M494.93,-86.13C497.35,-87.2 499.73,-88.33 502,-89.5 520.73,-99.15 540.8,-112.96 553.38,-122.07"/>
<polygon fill="black" stroke="black" points="552.58,-123.66 557.65,-125.2 554.65,-120.83 552.58,-123.66"/>
</g>
<!-- 1 of [&#39;MATH100&#39;, &#39;MATH109&#39;] -->
<g id="node19" class="node">
<title>1 of [&#39;MATH100&#39;, &#39;MATH109&#39;]</title>
<ellipse fill="#dfe6e9" stroke="#030a10" cx="140" cy="-249.5" rx="11" ry="11"/>
<text text-anchor="middle" x="140" y="-246.4" font-family="Times,serif" font-size="12.00">1</text>
</g>
<!-- 1 of [&#39;MATH100&#39;, &#39;MATH109&#39;]&#45;&gt;PHYS120 -->
<g id="edge1" class="edge">
<title>1 of [&#39;MATH100&#39;, &#39;MATH109&#39;]&#45;&gt;PHYS120</title>
<path fill="none" stroke="black" d="M151.21,-249.5C164.65,-249.5 189.01,-249.5 209.87,-249.5"/>
<polygon fill="black" stroke="black" points="210.09,-251.25 215.09,-249.5 210.09,-247.75 210.09,-251.25"/>
</g>
<!-- 1 of [&#39;MATH100&#39;, &#39;MATH109&#39;]&#45;&gt;MATH101 -->
<g id="edge13" class="edge">
<title>1 of [&#39;MATH100&#39;, &#39;MATH109&#39;]&#45;&gt;MATH101</title>
<path fill="none" stroke="black" d="M150.89,-252.01C164.37,-255.31 189.33,-260.98 211,-263.5 246.8,-267.67 287.88,-268.74 317.16,-268.87"/>
<polygon fill="black" stroke="black" points="317.48,-270.62 322.48,-268.89 317.49,-267.12 317.48,-270.62"/>
</g>
<!-- MATH100 -->
<g id="node20" class="node">
<title>MATH100</title>
<path fill="#f5edc9" stroke="#030a10" d="M62,-232C62,-232 7,-232 7,-232 3.5,-232 0,-228.5 0,-225 0,-225 0,-218 0,-218 0,-214.5 3.5,-211 7,-211 7,-211 62,-211 62,-211 65.5,-211 69,-214.5 69,-218 69,-218 69,-225 69,-225 69,-228.5 65.5,-232 62,-232"/>
<text text-anchor="middle" x="34.5" y="-218.4" font-family="Times,serif" font-size="12.00">MATH100</text>
</g>
<!-- MATH100&#45;&gt;1 of [&#39;MATH100&#39;, &#39;MATH109&#39;] -->
<g id="edge2" class="edge">
<title>MATH100&#45;&gt;1 of [&#39;MATH100&#39;, &#39;MATH109&#39;]</title>
<path fill="none" stroke="black" d="M69.1,-230.59C87.61,-235.6 109.66,-241.56 123.97,-245.43"/>
<polygon fill="black" stroke="black" points="123.59,-247.14 128.88,-246.76 124.51,-243.77 123.59,-247.14"/>
</g>
<!-- 1 of [&#39;MATH100&#39;, &#39;MATH102&#39;, &#39;MATH109&#39;] -->
<g id="node26" class="node">
<title>1 of [&#39;MATH100&#39;, &#39;MATH102&#39;, &#39;MATH109&#39;]</title>
<ellipse fill="#dfe6e9" stroke="#030a10" cx="140" cy="-206.5" rx="11" ry="11"/>
<text text-anchor="middle" x="140" y="-203.4" font-family="Times,serif" font-size="12.00">1</text>
</g>
<!-- MATH100&#45;&gt;1 of [&#39;MATH100&#39;, &#39;MATH102&#39;, &#39;MATH109&#39;] -->
<g id="edge28" class="edge">
<title>MATH100&#45;&gt;1 of [&#39;MATH100&#39;, &#39;MATH102&#39;, &#39;MATH109&#39;]</title>
<path fill="none" stroke="black" d="M69.1,-216.63C87.45,-213.97 109.27,-210.81 123.59,-208.73"/>
<polygon fill="black" stroke="black" points="124.18,-210.42 128.88,-207.97 123.68,-206.95 124.18,-210.42"/>
</g>
<!-- MATH109 -->
<g id="node21" class="node">
<title>MATH109</title>
<path fill="#f5edc9" stroke="#030a10" d="M62,-260C62,-260 7,-260 7,-260 3.5,-260 0,-256.5 0,-253 0,-253 0,-246 0,-246 0,-242.5 3.5,-239 7,-239 7,-239 62,-239 62,-239 65.5,-239 69,-242.5 69,-246 69,-246 69,-253 69,-253 69,-256.5 65.5,-260 62,-260"/>
<text text-anchor="middle" x="34.5" y="-246.4" font-family="Times,serif" font-size="12.00">MATH109</text>
</g>
<!-- MATH109&#45;&gt;1 of [&#39;MATH100&#39;, &#39;MATH109&#39;] -->
<g id="edge3" class="edge">
<title>MATH109&#45;&gt;1 of [&#39;MATH100&#39;, &#39;MATH109&#39;]</title>
<path fill="none" stroke="black" d="M69.1,-249.5C87.45,-249.5 109.27,-249.5 123.59,-249.5"/>
<polygon fill="black" stroke="black" points="123.88,-251.25 128.88,-249.5 123.88,-247.75 123.88,-251.25"/>
</g>
<!-- MATH109&#45;&gt;1 of [&#39;MATH100&#39;, &#39;MATH102&#39;, &#39;MATH109&#39;] -->
<g id="edge30" class="edge">
<title>MATH109&#45;&gt;1 of [&#39;MATH100&#39;, &#39;MATH102&#39;, &#39;MATH109&#39;]</title>
<path fill="none" stroke="black" d="M60.82,-238.98C80.99,-230.6 108.5,-219.17 124.93,-212.35"/>
<polygon fill="black" stroke="black" points="125.71,-213.92 129.65,-210.38 124.37,-210.69 125.71,-213.92"/>
</g>
<!-- 1 of [&#39;PHYS110&#39;, &#39;PHYS120&#39;]&#45;&gt;EOS210 -->
<g id="edge5" class="edge">
<title>1 of [&#39;PHYS110&#39;, &#39;PHYS120&#39;]&#45;&gt;EOS210</title>
<path fill="none" stroke="black" d="M368.16,-296.83C382.46,-295.88 409.17,-294.12 430.77,-292.69"/>
<polygon fill="black" stroke="black" points="430.99,-294.43 435.86,-292.36 430.76,-290.94 430.99,-294.43"/>
</g>
<!-- EOS120 -->
<g id="node23" class="node">
<title>EOS120</title>
<path fill="#f5edc9" stroke="#030a10" d="M379,-36C379,-36 335,-36 335,-36 331.5,-36 328,-32.5 328,-29 328,-29 328,-22 328,-22 328,-18.5 331.5,-15 335,-15 335,-15 379,-15 379,-15 382.5,-15 386,-18.5 386,-22 386,-22 386,-29 386,-29 386,-32.5 382.5,-36 379,-36"/>
<text text-anchor="middle" x="357" y="-22.4" font-family="Times,serif" font-size="12.00">EOS120</text>
</g>
<!-- EOS120&#45;&gt;EOS201 -->
<g id="edge8" class="edge">
<title>EOS120&#45;&gt;EOS201</title>
<path fill="none" stroke="black" d="M386.16,-26.88C415.19,-28.34 461.78,-30.81 502,-33.5 512.04,-34.17 522.95,-34.99 532.88,-35.77"/>
<polygon fill="black" stroke="black" points="532.85,-37.52 537.97,-36.17 533.13,-34.03 532.85,-37.52"/>
</g>
<!-- EOS120&#45;&gt;EOS205 -->
<g id="edge14" class="edge">
<title>EOS120&#45;&gt;EOS205</title>
<path fill="none" stroke="black" d="M386.13,-31.34C399.78,-34.17 416.29,-37.6 430.58,-40.56"/>
<polygon fill="black" stroke="black" points="430.49,-42.33 435.74,-41.63 431.2,-38.91 430.49,-42.33"/>
</g>
<!-- EOS120&#45;&gt;EOS202 -->
<g id="edge31" class="edge">
<title>EOS120&#45;&gt;EOS202</title>
<path fill="none" stroke="black" d="M386.05,-23.48C424.04,-20.74 491.77,-15.85 532.42,-12.92"/>
<polygon fill="black" stroke="black" points="532.87,-14.64 537.73,-12.54 532.62,-11.15 532.87,-14.64"/>
</g>
<!-- 1 of [&#39;EOS110&#39;, &#39;EOS130&#39;, &#39;GEOG130&#39;, &#39;GEOG103&#39;]&#45;&gt;EOS261 -->
<g id="edge16" class="edge">
<title>1 of [&#39;EOS110&#39;, &#39;EOS130&#39;, &#39;GEOG130&#39;, &#39;GEOG103&#39;]&#45;&gt;EOS261</title>
<path fill="none" stroke="black" d="M576.49,-137.5C590.96,-147.73 620.77,-168.78 640.57,-182.78"/>
<polygon fill="black" stroke="black" points="639.79,-184.37 644.89,-185.82 641.81,-181.51 639.79,-184.37"/>
</g>
<!-- 1 of [&#39;PHYS111&#39;, &#39;PHYS130&#39;, &#39;PHYS102B&#39;]&#45;&gt;EOS261 -->
<g id="edge23" class="edge">
<title>1 of [&#39;PHYS111&#39;, &#39;PHYS130&#39;, &#39;PHYS102B&#39;]&#45;&gt;EOS261</title>
<path fill="none" stroke="black" d="M578.2,-209.84C589.81,-207.94 609.4,-204.75 626.5,-201.96"/>
<polygon fill="black" stroke="black" points="627.06,-203.64 631.71,-201.11 626.5,-200.19 627.06,-203.64"/>
</g>
<!-- 1 of [&#39;MATH100&#39;, &#39;MATH102&#39;, &#39;MATH109&#39;]&#45;&gt;PHYS110 -->
<g id="edge27" class="edge">
<title>1 of [&#39;MATH100&#39;, &#39;MATH102&#39;, &#39;MATH109&#39;]&#45;&gt;PHYS110</title>
<path fill="none" stroke="black" d="M151.21,-207.94C164.71,-209.84 189.22,-213.29 210.13,-216.24"/>
<polygon fill="black" stroke="black" points="209.89,-217.97 215.09,-216.93 210.38,-214.5 209.89,-217.97"/>
</g>
<!-- 1 of [&#39;MATH100&#39;, &#39;MATH102&#39;, &#39;MATH109&#39;]&#45;&gt;CHEM102 -->
<g id="edge32" class="edge">
<title>1 of [&#39;MATH100&#39;, &#39;MATH102&#39;, &#39;MATH109&#39;]&#45;&gt;CHEM102</title>
<path fill="none" stroke="black" d="M146.58,-197.47C156.98,-181.58 181.02,-149.02 211,-135.5 244.35,-120.46 286.48,-119.9 316.72,-122.23"/>
<polygon fill="black" stroke="black" points="316.71,-123.99 321.84,-122.67 317.01,-120.5 316.71,-123.99"/>
</g>
<!-- 1 of [&#39;MATH100&#39;, &#39;MATH102&#39;, &#39;MATH109&#39;]&#45;&gt;PHYS111 -->
<g id="edge44" class="edge">
<title>1 of [&#39;MATH100&#39;, &#39;MATH102&#39;, &#39;MATH109&#39;]&#45;&gt;PHYS111</title>
<path fill="none" stroke="black" d="M150.19,-201.69C163.27,-195.14 188.21,-183.74 211,-179.5 247.53,-172.7 289.91,-178 319.39,-183.74"/>
<polygon fill="black" stroke="black" points="319.12,-185.47 324.37,-184.74 319.81,-182.04 319.12,-185.47"/>
</g>
<!-- MATH102 -->
<g id="node27" class="node">
<title>MATH102</title>
<path fill="#f5edc9" stroke="#030a10" d="M62,-204C62,-204 7,-204 7,-204 3.5,-204 0,-200.5 0,-197 0,-197 0,-190 0,-190 0,-186.5 3.5,-183 7,-183 7,-183 62,-183 62,-183 65.5,-183 69,-186.5 69,-190 69,-190 69,-197 69,-197 69,-200.5 65.5,-204 62,-204"/>
<text text-anchor="middle" x="34.5" y="-190.4" font-family="Times,serif" font-size="12.00">MATH102</text>
</g>
<!-- MATH102&#45;&gt;1 of [&#39;MATH100&#39;, &#39;MATH102&#39;, &#39;MATH109&#39;] -->
<g id="edge29" class="edge">
<title>MATH102&#45;&gt;1 of [&#39;MATH100&#39;, &#39;MATH102&#39;, &#39;MATH109&#39;]</title>
<path fill="none" stroke="black" d="M69.1,-197.72C87.45,-200.02 109.27,-202.77 123.59,-204.56"/>
<polygon fill="black" stroke="black" points="123.7,-206.34 128.88,-205.23 124.13,-202.87 123.7,-206.34"/>
</g>
<!-- CHEM091 -->
<g id="node28" class="node">
<title>CHEM091</title>
<path fill="#f5edc9" stroke="#030a10" d="M276.5,-160C276.5,-160 220.5,-160 220.5,-160 217,-160 213.5,-156.5 213.5,-153 213.5,-153 213.5,-146 213.5,-146 213.5,-142.5 217,-139 220.5,-139 220.5,-139 276.5,-139 276.5,-139 280,-139 283.5,-142.5 283.5,-146 283.5,-146 283.5,-153 283.5,-153 283.5,-156.5 280,-160 276.5,-160"/>
<text text-anchor="middle" x="248.5" y="-146.4" font-family="Times,serif" font-size="12.00">CHEM091</text>
</g>
<!-- CHEM091&#45;&gt;CHEM102 -->
<g id="edge33" class="edge">
<title>CHEM091&#45;&gt;CHEM102</title>
<path fill="none" stroke="black" d="M283.78,-142.42C294.33,-140.24 306.02,-137.82 316.86,-135.58"/>
<polygon fill="black" stroke="black" points="317.24,-137.29 321.78,-134.57 316.53,-133.87 317.24,-137.29"/>
</g>
<!-- 1 of [&#39;CHEM101&#39;, &#39;CHEM150&#39;] -->
<g id="node29" class="node">
<title>1 of [&#39;CHEM101&#39;, &#39;CHEM150&#39;]</title>
<ellipse fill="#dfe6e9" stroke="#030a10" cx="248.5" cy="-105.5" rx="11" ry="11"/>
<text text-anchor="middle" x="248.5" y="-102.4" font-family="Times,serif" font-size="12.00">1</text>
</g>
<!-- 1 of [&#39;CHEM101&#39;, &#39;CHEM150&#39;]&#45;&gt;CHEM102 -->
<g id="edge34" class="edge">
<title>1 of [&#39;CHEM101&#39;, &#39;CHEM150&#39;]&#45;&gt;CHEM102</title>
<path fill="none" stroke="black" d="M259.33,-107.53C272.39,-110.23 296.24,-115.15 316.98,-119.44"/>
<polygon fill="black" stroke="black" points="316.65,-121.16 321.9,-120.46 317.36,-117.73 316.65,-121.16"/>
</g>
<!-- CHEM101 -->
<g id="node30" class="node">
<title>CHEM101</title>
<path fill="#f5edc9" stroke="#030a10" d="M168,-130C168,-130 112,-130 112,-130 108.5,-130 105,-126.5 105,-123 105,-123 105,-116 105,-116 105,-112.5 108.5,-109 112,-109 112,-109 168,-109 168,-109 171.5,-109 175,-112.5 175,-116 175,-116 175,-123 175,-123 175,-126.5 171.5,-130 168,-130"/>
<text text-anchor="middle" x="140" y="-116.4" font-family="Times,serif" font-size="12.00">CHEM101</text>
</g>
<!-- CHEM101&#45;&gt;1 of [&#39;CHEM101&#39;, &#39;CHEM150&#39;] -->
<g id="edge35" class="edge">
<title>CHEM101&#45;&gt;1 of [&#39;CHEM101&#39;, &#39;CHEM150&#39;]</title>
<path fill="none" stroke="black" d="M175.28,-114.99C194.56,-112.46 217.66,-109.42 232.45,-107.48"/>
<polygon fill="black" stroke="black" points="232.77,-109.2 237.5,-106.81 232.32,-105.73 232.77,-109.2"/>
</g>
<!-- CHEM150 -->
<g id="node31" class="node">
<title>CHEM150</title>
<path fill="#f5edc9" stroke="#030a10" d="M168,-102C168,-102 112,-102 112,-102 108.5,-102 105,-98.5 105,-95 105,-95 105,-88 105,-88 105,-84.5 108.5,-81 112,-81 112,-81 168,-81 168,-81 171.5,-81 175,-84.5 175,-88 175,-88 175,-95 175,-95 175,-98.5 171.5,-102 168,-102"/>
<text text-anchor="middle" x="140" y="-88.4" font-family="Times,serif" font-size="12.00">CHEM150</text>
</g>
<!-- CHEM150&#45;&gt;1 of [&#39;CHEM101&#39;, &#39;CHEM150&#39;] -->
<g id="edge36" class="edge">
<title>CHEM150&#45;&gt;1 of [&#39;CHEM101&#39;, &#39;CHEM150&#39;]</title>
<path fill="none" stroke="black" d="M175.28,-96.01C194.56,-98.54 217.66,-101.58 232.45,-103.52"/>
<polygon fill="black" stroke="black" points="232.32,-105.27 237.5,-104.19 232.77,-101.8 232.32,-105.27"/>
</g>
<!-- 1 of [&#39;PHYS102A&#39;, &#39;PHYS110&#39;, &#39;PHYS120&#39;]&#45;&gt;PHYS102B -->
<g id="edge39" class="edge">
<title>1 of [&#39;PHYS102A&#39;, &#39;PHYS110&#39;, &#39;PHYS120&#39;]&#45;&gt;PHYS102B</title>
<path fill="none" stroke="black" d="M368.16,-221.21C380.77,-220.86 403.05,-220.22 422.95,-219.66"/>
<polygon fill="black" stroke="black" points="423.01,-221.41 427.96,-219.52 422.91,-217.91 423.01,-221.41"/>
</g>
<!-- PHYS102A -->
<g id="node33" class="node">
<title>PHYS102A</title>
<path fill="#f5edc9" stroke="#030a10" d="M279,-204C279,-204 218,-204 218,-204 214.5,-204 211,-200.5 211,-197 211,-197 211,-190 211,-190 211,-186.5 214.5,-183 218,-183 218,-183 279,-183 279,-183 282.5,-183 286,-186.5 286,-190 286,-190 286,-197 286,-197 286,-200.5 282.5,-204 279,-204"/>
<text text-anchor="middle" x="248.5" y="-190.4" font-family="Times,serif" font-size="12.00">PHYS102A</text>
</g>
<!-- PHYS102A&#45;&gt;1 of [&#39;PHYS102A&#39;, &#39;PHYS110&#39;, &#39;PHYS120&#39;] -->
<g id="edge40" class="edge">
<title>PHYS102A&#45;&gt;1 of [&#39;PHYS102A&#39;, &#39;PHYS110&#39;, &#39;PHYS120&#39;]</title>
<path fill="none" stroke="black" d="M286.15,-203.14C305.01,-208.1 326.96,-213.87 341.15,-217.6"/>
<polygon fill="black" stroke="black" points="340.72,-219.29 346,-218.87 341.61,-215.91 340.72,-219.29"/>
</g>
</g>
</svg>
