<?xml version="1.0" encoding="UTF-8" standalone="no"?>
<!DOCTYPE svg PUBLIC "-//W3C//DTD SVG 1.1//EN"
 "http://www.w3.org/Graphics/SVG/1.1/DTD/svg11.dtd">
<!-- Generated by graphviz version 2.43.0 (0)
 -->
<!-- Title: unix Pages: 1 -->
<svg width="666pt" height="184pt"
 viewBox="0.00 0.00 666.00 184.00" xmlns="http://www.w3.org/2000/svg" xmlns:xlink="http://www.w3.org/1999/xlink">
<g id="graph0" class="graph" transform="scale(1 1) rotate(0) translate(4 180)">
<title>unix</title>
<polygon fill="white" stroke="transparent" points="-4,4 -4,-180 662,-180 662,4 -4,4"/>
<text text-anchor="middle" x="329" y="-160.8" font-family="Times,serif" font-size="14.00">EOS316: Igneous and Metamorphic Geology</text>
<!-- EOS420 -->
<g id="node1" class="node">
<title>EOS420</title>
<path fill="#e7a79b" stroke="#030a10" d="M557,-32C557,-32 513,-32 513,-32 509.5,-32 506,-28.5 506,-25 506,-25 506,-18 506,-18 506,-14.5 509.5,-11 513,-11 513,-11 557,-11 557,-11 560.5,-11 564,-14.5 564,-18 564,-18 564,-25 564,-25 564,-28.5 560.5,-32 557,-32"/>
<text text-anchor="middle" x="535" y="-18.4" font-family="Times,serif" font-size="12.00">EOS420</text>
</g>
<!-- EOS400 -->
<g id="node2" class="node">
<title>EOS400</title>
<path fill="#e7a79b" stroke="#030a10" d="M557,-60C557,-60 513,-60 513,-60 509.5,-60 506,-56.5 506,-53 506,-53 506,-46 506,-46 506,-42.5 509.5,-39 513,-39 513,-39 557,-39 557,-39 560.5,-39 564,-42.5 564,-46 564,-46 564,-53 564,-53 564,-56.5 560.5,-60 557,-60"/>
<text text-anchor="middle" x="535" y="-46.4" font-family="Times,serif" font-size="12.00">EOS400</text>
</g>
<!-- CHEM102 -->
<g id="node3" class="node">
<title>CHEM102</title>
<path fill="#f5edc9" stroke="#030a10" d="M275,-96C275,-96 219,-96 219,-96 215.5,-96 212,-92.5 212,-89 212,-89 212,-82 212,-82 212,-78.5 215.5,-75 219,-75 219,-75 275,-75 275,-75 278.5,-75 282,-78.5 282,-82 282,-82 282,-89 282,-89 282,-92.5 278.5,-96 275,-96"/>
<text text-anchor="middle" x="247" y="-82.4" font-family="Times,serif" font-size="12.00">CHEM102</text>
</g>
<!-- EOS205 -->
<g id="node8" class="node">
<title>EOS205</title>
<path fill="#e7a79b" stroke="#030a10" d="M369,-82C369,-82 325,-82 325,-82 321.5,-82 318,-78.5 318,-75 318,-75 318,-68 318,-68 318,-64.5 321.5,-61 325,-61 325,-61 369,-61 369,-61 372.5,-61 376,-64.5 376,-68 376,-68 376,-75 376,-75 376,-78.5 372.5,-82 369,-82"/>
<text text-anchor="middle" x="347" y="-68.4" font-family="Times,serif" font-size="12.00">EOS205</text>
</g>
<!-- CHEM102&#45;&gt;EOS205 -->
<g id="edge23" class="edge">
<title>CHEM102&#45;&gt;EOS205</title>
<path fill="none" stroke="black" d="M282,-80.64C291.98,-79.22 302.88,-77.66 312.81,-76.24"/>
<polygon fill="black" stroke="black" points="313.2,-77.95 317.9,-75.51 312.71,-74.49 313.2,-77.95"/>
</g>
<!-- EOS416 -->
<g id="node4" class="node">
<title>EOS416</title>
<path fill="#e7a79b" stroke="#030a10" d="M651,-118C651,-118 607,-118 607,-118 603.5,-118 600,-114.5 600,-111 600,-111 600,-104 600,-104 600,-100.5 603.5,-97 607,-97 607,-97 651,-97 651,-97 654.5,-97 658,-100.5 658,-104 658,-104 658,-111 658,-111 658,-114.5 654.5,-118 651,-118"/>
<text text-anchor="middle" x="629" y="-104.4" font-family="Times,serif" font-size="12.00">EOS416</text>
</g>
<!-- EOS408 -->
<g id="node5" class="node">
<title>EOS408</title>
<path fill="#e7a79b" stroke="#030a10" d="M651,-50C651,-50 607,-50 607,-50 603.5,-50 600,-46.5 600,-43 600,-43 600,-36 600,-36 600,-32.5 603.5,-29 607,-29 607,-29 651,-29 651,-29 654.5,-29 658,-32.5 658,-36 658,-36 658,-43 658,-43 658,-46.5 654.5,-50 651,-50"/>
<text text-anchor="middle" x="629" y="-36.4" font-family="Times,serif" font-size="12.00">EOS408</text>
</g>
<!-- EOS316 -->
<g id="node6" class="node">
<title>EOS316</title>
<path fill="#9fa7be" stroke="#030a10" d="M463,-82C463,-82 419,-82 419,-82 415.5,-82 412,-78.5 412,-75 412,-75 412,-68 412,-68 412,-64.5 415.5,-61 419,-61 419,-61 463,-61 463,-61 466.5,-61 470,-64.5 470,-68 470,-68 470,-75 470,-75 470,-78.5 466.5,-82 463,-82"/>
<text text-anchor="middle" x="441" y="-68.4" font-family="Times,serif" font-size="12.00">EOS316</text>
</g>
<!-- EOS316&#45;&gt;EOS420 -->
<g id="edge2" class="edge">
<title>EOS316&#45;&gt;EOS420</title>
<path fill="none" stroke="black" d="M463.5,-60.98C465.71,-59.83 467.91,-58.66 470,-57.5 486.4,-48.41 489.6,-44.59 506,-35.5 506.65,-35.14 507.32,-34.77 507.99,-34.41"/>
<polygon fill="black" stroke="black" points="508.9,-35.91 512.5,-32.02 507.26,-32.81 508.9,-35.91"/>
</g>
<!-- EOS316&#45;&gt;EOS400 -->
<g id="edge4" class="edge">
<title>EOS316&#45;&gt;EOS400</title>
<path fill="none" stroke="black" d="M470.1,-64.78C479.82,-62.46 490.8,-59.83 500.88,-57.42"/>
<polygon fill="black" stroke="black" points="501.3,-59.12 505.75,-56.25 500.48,-55.72 501.3,-59.12"/>
</g>
<!-- 1 of [&#39;EOS310&#39;, &#39;EOS316&#39;, &#39;EOS320&#39;] -->
<g id="node19" class="node">
<title>1 of [&#39;EOS310&#39;, &#39;EOS316&#39;, &#39;EOS320&#39;]</title>
<ellipse fill="#dfe6e9" stroke="#030a10" cx="535" cy="-107.5" rx="11" ry="11"/>
<text text-anchor="middle" x="535" y="-104.4" font-family="Times,serif" font-size="12.00">1</text>
</g>
<!-- EOS316&#45;&gt;1 of [&#39;EOS310&#39;, &#39;EOS316&#39;, &#39;EOS320&#39;] -->
<g id="edge15" class="edge">
<title>EOS316&#45;&gt;1 of [&#39;EOS310&#39;, &#39;EOS316&#39;, &#39;EOS320&#39;]</title>
<path fill="none" stroke="black" d="M469.11,-82.11C485.58,-88.55 505.96,-96.53 519.44,-101.8"/>
<polygon fill="black" stroke="black" points="519.12,-103.56 524.41,-103.75 520.4,-100.3 519.12,-103.56"/>
</g>
<!-- 1 of [&#39;EOS310&#39;, &#39;EOS316&#39;] -->
<g id="node22" class="node">
<title>1 of [&#39;EOS310&#39;, &#39;EOS316&#39;]</title>
<ellipse fill="#dfe6e9" stroke="#030a10" cx="535" cy="-78.5" rx="11" ry="11"/>
<text text-anchor="middle" x="535" y="-75.4" font-family="Times,serif" font-size="12.00">1</text>
</g>
<!-- EOS316&#45;&gt;1 of [&#39;EOS310&#39;, &#39;EOS316&#39;] -->
<g id="edge20" class="edge">
<title>EOS316&#45;&gt;1 of [&#39;EOS310&#39;, &#39;EOS316&#39;]</title>
<path fill="none" stroke="black" d="M470.1,-73.64C486.01,-74.85 505.3,-76.32 518.49,-77.32"/>
<polygon fill="black" stroke="black" points="518.63,-79.09 523.75,-77.72 518.89,-75.6 518.63,-79.09"/>
</g>
<!-- EOS120 -->
<g id="node7" class="node">
<title>EOS120</title>
<path fill="#f5edc9" stroke="#030a10" d="M269,-68C269,-68 225,-68 225,-68 221.5,-68 218,-64.5 218,-61 218,-61 218,-54 218,-54 218,-50.5 221.5,-47 225,-47 225,-47 269,-47 269,-47 272.5,-47 276,-50.5 276,-54 276,-54 276,-61 276,-61 276,-64.5 272.5,-68 269,-68"/>
<text text-anchor="middle" x="247" y="-54.4" font-family="Times,serif" font-size="12.00">EOS120</text>
</g>
<!-- EOS120&#45;&gt;EOS205 -->
<g id="edge22" class="edge">
<title>EOS120&#45;&gt;EOS205</title>
<path fill="none" stroke="black" d="M276.08,-61.51C287.56,-63.15 300.93,-65.06 312.89,-66.77"/>
<polygon fill="black" stroke="black" points="312.72,-68.51 317.91,-67.49 313.21,-65.05 312.72,-68.51"/>
</g>
<!-- EOS205&#45;&gt;EOS316 -->
<g id="edge21" class="edge">
<title>EOS205&#45;&gt;EOS316</title>
<path fill="none" stroke="black" d="M376.1,-71.5C385.73,-71.5 396.6,-71.5 406.61,-71.5"/>
<polygon fill="black" stroke="black" points="406.75,-73.25 411.75,-71.5 406.75,-69.75 406.75,-73.25"/>
</g>
<!-- EOS201 -->
<g id="node9" class="node">
<title>EOS201</title>
<path fill="#f5edc9" stroke="#030a10" d="M463,-21C463,-21 419,-21 419,-21 415.5,-21 412,-17.5 412,-14 412,-14 412,-7 412,-7 412,-3.5 415.5,0 419,0 419,0 463,0 463,0 466.5,0 470,-3.5 470,-7 470,-7 470,-14 470,-14 470,-17.5 466.5,-21 463,-21"/>
<text text-anchor="middle" x="441" y="-7.4" font-family="Times,serif" font-size="12.00">EOS201</text>
</g>
<!-- EOS201&#45;&gt;EOS420 -->
<g id="edge1" class="edge">
<title>EOS201&#45;&gt;EOS420</title>
<path fill="none" stroke="black" d="M470.1,-13.86C479.73,-15.01 490.6,-16.31 500.61,-17.51"/>
<polygon fill="black" stroke="black" points="500.58,-19.27 505.75,-18.12 501,-15.79 500.58,-19.27"/>
</g>
<!-- EOS201&#45;&gt;EOS408 -->
<g id="edge17" class="edge">
<title>EOS201&#45;&gt;EOS408</title>
<path fill="none" stroke="black" d="M470.03,-5.82C495.04,-2.58 532.45,-0.05 564,-7.5 579.37,-11.13 595.26,-19.04 607.36,-26.09"/>
<polygon fill="black" stroke="black" points="606.78,-27.79 611.97,-28.84 608.57,-24.78 606.78,-27.79"/>
</g>
<!-- EOS300 -->
<g id="node10" class="node">
<title>EOS300</title>
<path fill="#f5edc9" stroke="#030a10" d="M463,-54C463,-54 419,-54 419,-54 415.5,-54 412,-50.5 412,-47 412,-47 412,-40 412,-40 412,-36.5 415.5,-33 419,-33 419,-33 463,-33 463,-33 466.5,-33 470,-36.5 470,-40 470,-40 470,-47 470,-47 470,-50.5 466.5,-54 463,-54"/>
<text text-anchor="middle" x="441" y="-40.4" font-family="Times,serif" font-size="12.00">EOS300</text>
</g>
<!-- EOS300&#45;&gt;EOS400 -->
<g id="edge3" class="edge">
<title>EOS300&#45;&gt;EOS400</title>
<path fill="none" stroke="black" d="M470.1,-45.33C479.73,-45.96 490.6,-46.67 500.61,-47.32"/>
<polygon fill="black" stroke="black" points="500.65,-49.08 505.75,-47.66 500.88,-45.59 500.65,-49.08"/>
</g>
<!-- 1 of [&#39;MATH100&#39;, &#39;MATH102&#39;, &#39;MATH109&#39;] -->
<g id="node11" class="node">
<title>1 of [&#39;MATH100&#39;, &#39;MATH102&#39;, &#39;MATH109&#39;]</title>
<ellipse fill="#dfe6e9" stroke="#030a10" cx="141" cy="-114.5" rx="11" ry="11"/>
<text text-anchor="middle" x="141" y="-111.4" font-family="Times,serif" font-size="12.00">1</text>
</g>
<!-- 1 of [&#39;MATH100&#39;, &#39;MATH102&#39;, &#39;MATH109&#39;]&#45;&gt;CHEM102 -->
<g id="edge5" class="edge">
<title>1 of [&#39;MATH100&#39;, &#39;MATH102&#39;, &#39;MATH109&#39;]&#45;&gt;CHEM102</title>
<path fill="none" stroke="black" d="M151.97,-111.72C164.53,-108.22 186.87,-101.99 206.61,-96.48"/>
<polygon fill="black" stroke="black" points="207.23,-98.13 211.57,-95.1 206.29,-94.76 207.23,-98.13"/>
</g>
<!-- MATH100 -->
<g id="node12" class="node">
<title>MATH100</title>
<path fill="#f5edc9" stroke="#030a10" d="M62.5,-153C62.5,-153 7.5,-153 7.5,-153 4,-153 0.5,-149.5 0.5,-146 0.5,-146 0.5,-139 0.5,-139 0.5,-135.5 4,-132 7.5,-132 7.5,-132 62.5,-132 62.5,-132 66,-132 69.5,-135.5 69.5,-139 69.5,-139 69.5,-146 69.5,-146 69.5,-149.5 66,-153 62.5,-153"/>
<text text-anchor="middle" x="35" y="-139.4" font-family="Times,serif" font-size="12.00">MATH100</text>
</g>
<!-- MATH100&#45;&gt;1 of [&#39;MATH100&#39;, &#39;MATH102&#39;, &#39;MATH109&#39;] -->
<g id="edge6" class="edge">
<title>MATH100&#45;&gt;1 of [&#39;MATH100&#39;, &#39;MATH102&#39;, &#39;MATH109&#39;]</title>
<path fill="none" stroke="black" d="M69.77,-133.41C88.57,-128.35 111.02,-122.3 125.39,-118.43"/>
<polygon fill="black" stroke="black" points="125.92,-120.1 130.29,-117.11 125.01,-116.72 125.92,-120.1"/>
</g>
<!-- MATH102 -->
<g id="node13" class="node">
<title>MATH102</title>
<path fill="#f5edc9" stroke="#030a10" d="M62.5,-125C62.5,-125 7.5,-125 7.5,-125 4,-125 0.5,-121.5 0.5,-118 0.5,-118 0.5,-111 0.5,-111 0.5,-107.5 4,-104 7.5,-104 7.5,-104 62.5,-104 62.5,-104 66,-104 69.5,-107.5 69.5,-111 69.5,-111 69.5,-118 69.5,-118 69.5,-121.5 66,-125 62.5,-125"/>
<text text-anchor="middle" x="35" y="-111.4" font-family="Times,serif" font-size="12.00">MATH102</text>
</g>
<!-- MATH102&#45;&gt;1 of [&#39;MATH100&#39;, &#39;MATH102&#39;, &#39;MATH109&#39;] -->
<g id="edge7" class="edge">
<title>MATH102&#45;&gt;1 of [&#39;MATH100&#39;, &#39;MATH102&#39;, &#39;MATH109&#39;]</title>
<path fill="none" stroke="black" d="M69.77,-114.5C88.2,-114.5 110.13,-114.5 124.52,-114.5"/>
<polygon fill="black" stroke="black" points="124.83,-116.25 129.83,-114.5 124.83,-112.75 124.83,-116.25"/>
</g>
<!-- MATH109 -->
<g id="node14" class="node">
<title>MATH109</title>
<path fill="#f5edc9" stroke="#030a10" d="M62.5,-97C62.5,-97 7.5,-97 7.5,-97 4,-97 0.5,-93.5 0.5,-90 0.5,-90 0.5,-83 0.5,-83 0.5,-79.5 4,-76 7.5,-76 7.5,-76 62.5,-76 62.5,-76 66,-76 69.5,-79.5 69.5,-83 69.5,-83 69.5,-90 69.5,-90 69.5,-93.5 66,-97 62.5,-97"/>
<text text-anchor="middle" x="35" y="-83.4" font-family="Times,serif" font-size="12.00">MATH109</text>
</g>
<!-- MATH109&#45;&gt;1 of [&#39;MATH100&#39;, &#39;MATH102&#39;, &#39;MATH109&#39;] -->
<g id="edge8" class="edge">
<title>MATH109&#45;&gt;1 of [&#39;MATH100&#39;, &#39;MATH102&#39;, &#39;MATH109&#39;]</title>
<path fill="none" stroke="black" d="M69.77,-95.59C88.57,-100.65 111.02,-106.7 125.39,-110.57"/>
<polygon fill="black" stroke="black" points="125.01,-112.28 130.29,-111.89 125.92,-108.9 125.01,-112.28"/>
</g>
<!-- CHEM091 -->
<g id="node15" class="node">
<title>CHEM091</title>
<path fill="#f5edc9" stroke="#030a10" d="M169,-96C169,-96 113,-96 113,-96 109.5,-96 106,-92.5 106,-89 106,-89 106,-82 106,-82 106,-78.5 109.5,-75 113,-75 113,-75 169,-75 169,-75 172.5,-75 176,-78.5 176,-82 176,-82 176,-89 176,-89 176,-92.5 172.5,-96 169,-96"/>
<text text-anchor="middle" x="141" y="-82.4" font-family="Times,serif" font-size="12.00">CHEM091</text>
</g>
<!-- CHEM091&#45;&gt;CHEM102 -->
<g id="edge9" class="edge">
<title>CHEM091&#45;&gt;CHEM102</title>
<path fill="none" stroke="black" d="M176.05,-85.5C185.84,-85.5 196.59,-85.5 206.67,-85.5"/>
<polygon fill="black" stroke="black" points="206.87,-87.25 211.87,-85.5 206.87,-83.75 206.87,-87.25"/>
</g>
<!-- 1 of [&#39;CHEM101&#39;, &#39;CHEM150&#39;] -->
<g id="node16" class="node">
<title>1 of [&#39;CHEM101&#39;, &#39;CHEM150&#39;]</title>
<ellipse fill="#dfe6e9" stroke="#030a10" cx="141" cy="-56.5" rx="11" ry="11"/>
<text text-anchor="middle" x="141" y="-53.4" font-family="Times,serif" font-size="12.00">1</text>
</g>
<!-- 1 of [&#39;CHEM101&#39;, &#39;CHEM150&#39;]&#45;&gt;CHEM102 -->
<g id="edge10" class="edge">
<title>1 of [&#39;CHEM101&#39;, &#39;CHEM150&#39;]&#45;&gt;CHEM102</title>
<path fill="none" stroke="black" d="M151.97,-59.28C164.53,-62.78 186.87,-69.01 206.61,-74.52"/>
<polygon fill="black" stroke="black" points="206.29,-76.24 211.57,-75.9 207.23,-72.87 206.29,-76.24"/>
</g>
<!-- CHEM101 -->
<g id="node17" class="node">
<title>CHEM101</title>
<path fill="#f5edc9" stroke="#030a10" d="M63,-40C63,-40 7,-40 7,-40 3.5,-40 0,-36.5 0,-33 0,-33 0,-26 0,-26 0,-22.5 3.5,-19 7,-19 7,-19 63,-19 63,-19 66.5,-19 70,-22.5 70,-26 70,-26 70,-33 70,-33 70,-36.5 66.5,-40 63,-40"/>
<text text-anchor="middle" x="35" y="-26.4" font-family="Times,serif" font-size="12.00">CHEM101</text>
</g>
<!-- CHEM101&#45;&gt;1 of [&#39;CHEM101&#39;, &#39;CHEM150&#39;] -->
<g id="edge11" class="edge">
<title>CHEM101&#45;&gt;1 of [&#39;CHEM101&#39;, &#39;CHEM150&#39;]</title>
<path fill="none" stroke="black" d="M70.05,-38.34C88.63,-43.16 110.68,-48.89 124.99,-52.6"/>
<polygon fill="black" stroke="black" points="124.61,-54.31 129.89,-53.87 125.49,-50.92 124.61,-54.31"/>
</g>
<!-- CHEM150 -->
<g id="node18" class="node">
<title>CHEM150</title>
<path fill="#f5edc9" stroke="#030a10" d="M63,-68C63,-68 7,-68 7,-68 3.5,-68 0,-64.5 0,-61 0,-61 0,-54 0,-54 0,-50.5 3.5,-47 7,-47 7,-47 63,-47 63,-47 66.5,-47 70,-50.5 70,-54 70,-54 70,-61 70,-61 70,-64.5 66.5,-68 63,-68"/>
<text text-anchor="middle" x="35" y="-54.4" font-family="Times,serif" font-size="12.00">CHEM150</text>
</g>
<!-- CHEM150&#45;&gt;1 of [&#39;CHEM101&#39;, &#39;CHEM150&#39;] -->
<g id="edge12" class="edge">
<title>CHEM150&#45;&gt;1 of [&#39;CHEM101&#39;, &#39;CHEM150&#39;]</title>
<path fill="none" stroke="black" d="M70.05,-57.17C88.46,-57 110.29,-56.79 124.61,-56.65"/>
<polygon fill="black" stroke="black" points="124.9,-58.4 129.89,-56.6 124.87,-54.9 124.9,-58.4"/>
</g>
<!-- 1 of [&#39;EOS310&#39;, &#39;EOS316&#39;, &#39;EOS320&#39;]&#45;&gt;EOS416 -->
<g id="edge13" class="edge">
<title>1 of [&#39;EOS310&#39;, &#39;EOS316&#39;, &#39;EOS320&#39;]&#45;&gt;EOS416</title>
<path fill="none" stroke="black" d="M546.2,-107.5C557.81,-107.5 577.4,-107.5 594.5,-107.5"/>
<polygon fill="black" stroke="black" points="594.71,-109.25 599.71,-107.5 594.71,-105.75 594.71,-109.25"/>
</g>
<!-- EOS310 -->
<g id="node20" class="node">
<title>EOS310</title>
<path fill="#f5edc9" stroke="#030a10" d="M463,-110C463,-110 419,-110 419,-110 415.5,-110 412,-106.5 412,-103 412,-103 412,-96 412,-96 412,-92.5 415.5,-89 419,-89 419,-89 463,-89 463,-89 466.5,-89 470,-92.5 470,-96 470,-96 470,-103 470,-103 470,-106.5 466.5,-110 463,-110"/>
<text text-anchor="middle" x="441" y="-96.4" font-family="Times,serif" font-size="12.00">EOS310</text>
</g>
<!-- EOS310&#45;&gt;1 of [&#39;EOS310&#39;, &#39;EOS316&#39;, &#39;EOS320&#39;] -->
<g id="edge14" class="edge">
<title>EOS310&#45;&gt;1 of [&#39;EOS310&#39;, &#39;EOS316&#39;, &#39;EOS320&#39;]</title>
<path fill="none" stroke="black" d="M470.1,-101.94C486.01,-103.33 505.3,-105 518.49,-106.15"/>
<polygon fill="black" stroke="black" points="518.61,-107.92 523.75,-106.61 518.92,-104.43 518.61,-107.92"/>
</g>
<!-- EOS310&#45;&gt;1 of [&#39;EOS310&#39;, &#39;EOS316&#39;] -->
<g id="edge19" class="edge">
<title>EOS310&#45;&gt;1 of [&#39;EOS310&#39;, &#39;EOS316&#39;]</title>
<path fill="none" stroke="black" d="M470.1,-93.09C486.34,-89.38 506.09,-84.87 519.3,-81.85"/>
<polygon fill="black" stroke="black" points="519.71,-83.56 524.19,-80.74 518.93,-80.15 519.71,-83.56"/>
</g>
<!-- EOS320 -->
<g id="node21" class="node">
<title>EOS320</title>
<path fill="#f5edc9" stroke="#030a10" d="M463,-138C463,-138 419,-138 419,-138 415.5,-138 412,-134.5 412,-131 412,-131 412,-124 412,-124 412,-120.5 415.5,-117 419,-117 419,-117 463,-117 463,-117 466.5,-117 470,-120.5 470,-124 470,-124 470,-131 470,-131 470,-134.5 466.5,-138 463,-138"/>
<text text-anchor="middle" x="441" y="-124.4" font-family="Times,serif" font-size="12.00">EOS320</text>
</g>
<!-- EOS320&#45;&gt;1 of [&#39;EOS310&#39;, &#39;EOS316&#39;, &#39;EOS320&#39;] -->
<g id="edge16" class="edge">
<title>EOS320&#45;&gt;1 of [&#39;EOS310&#39;, &#39;EOS316&#39;, &#39;EOS320&#39;]</title>
<path fill="none" stroke="black" d="M470.1,-121.39C486.34,-117.86 506.09,-113.57 519.3,-110.7"/>
<polygon fill="black" stroke="black" points="519.68,-112.4 524.19,-109.63 518.93,-108.98 519.68,-112.4"/>
</g>
<!-- 1 of [&#39;EOS310&#39;, &#39;EOS316&#39;]&#45;&gt;EOS408 -->
<g id="edge18" class="edge">
<title>1 of [&#39;EOS310&#39;, &#39;EOS316&#39;]&#45;&gt;EOS408</title>
<path fill="none" stroke="black" d="M545.5,-74.47C557.84,-69.24 579.95,-59.87 598.18,-52.14"/>
<polygon fill="black" stroke="black" points="599.29,-53.57 603.21,-50.01 597.92,-50.35 599.29,-53.57"/>
</g>
</g>
</svg>
