<?xml version="1.0" encoding="UTF-8" standalone="no"?>
<!DOCTYPE svg PUBLIC "-//W3C//DTD SVG 1.1//EN"
 "http://www.w3.org/Graphics/SVG/1.1/DTD/svg11.dtd">
<!-- Generated by graphviz version 2.43.0 (0)
 -->
<!-- Title: unix Pages: 1 -->
<svg width="859pt" height="413pt"
 viewBox="0.00 0.00 859.00 412.82" xmlns="http://www.w3.org/2000/svg" xmlns:xlink="http://www.w3.org/1999/xlink">
<g id="graph0" class="graph" transform="scale(1 1) rotate(0) translate(4 408.82)">
<title>unix</title>
<polygon fill="white" stroke="transparent" points="-4,4 -4,-408.82 855,-408.82 855,4 -4,4"/>
<text text-anchor="middle" x="425.5" y="-389.62" font-family="Times,serif" font-size="14.00">EOS427: Geophysics</text>
<!-- MATH200 -->
<g id="node1" class="node">
<title>MATH200</title>
<path fill="#f5edc9" stroke="#030a10" d="M167,-198.82C167,-198.82 112,-198.82 112,-198.82 108.5,-198.82 105,-195.32 105,-191.82 105,-191.82 105,-184.82 105,-184.82 105,-181.32 108.5,-177.82 112,-177.82 112,-177.82 167,-177.82 167,-177.82 170.5,-177.82 174,-181.32 174,-184.82 174,-184.82 174,-191.82 174,-191.82 174,-195.32 170.5,-198.82 167,-198.82"/>
<text text-anchor="middle" x="139.5" y="-185.22" font-family="Times,serif" font-size="12.00">MATH200</text>
</g>
<!-- MATH248 -->
<g id="node8" class="node">
<title>MATH248</title>
<path fill="#f5edc9" stroke="#030a10" d="M537,-317.82C537,-317.82 482,-317.82 482,-317.82 478.5,-317.82 475,-314.32 475,-310.82 475,-310.82 475,-303.82 475,-303.82 475,-300.32 478.5,-296.82 482,-296.82 482,-296.82 537,-296.82 537,-296.82 540.5,-296.82 544,-300.32 544,-303.82 544,-303.82 544,-310.82 544,-310.82 544,-314.32 540.5,-317.82 537,-317.82"/>
<text text-anchor="middle" x="509.5" y="-304.22" font-family="Times,serif" font-size="12.00">MATH248</text>
</g>
<!-- MATH200&#45;&gt;MATH248 -->
<g id="edge25" class="edge">
<title>MATH200&#45;&gt;MATH248</title>
<path fill="none" stroke="black" d="M174,-191.11C247.36,-197.46 417.41,-213.58 439,-228.32 466.27,-246.95 450.4,-271.29 475,-293.32 475.18,-293.48 475.35,-293.64 475.53,-293.79"/>
<polygon fill="black" stroke="black" points="474.51,-295.21 479.57,-296.81 476.61,-292.41 474.51,-295.21"/>
</g>
<!-- PHYS248 -->
<g id="node13" class="node">
<title>PHYS248</title>
<path fill="#f5edc9" stroke="#030a10" d="M535.5,-345.82C535.5,-345.82 483.5,-345.82 483.5,-345.82 480,-345.82 476.5,-342.32 476.5,-338.82 476.5,-338.82 476.5,-331.82 476.5,-331.82 476.5,-328.32 480,-324.82 483.5,-324.82 483.5,-324.82 535.5,-324.82 535.5,-324.82 539,-324.82 542.5,-328.32 542.5,-331.82 542.5,-331.82 542.5,-338.82 542.5,-338.82 542.5,-342.32 539,-345.82 535.5,-345.82"/>
<text text-anchor="middle" x="509.5" y="-332.22" font-family="Times,serif" font-size="12.00">PHYS248</text>
</g>
<!-- MATH200&#45;&gt;PHYS248 -->
<g id="edge35" class="edge">
<title>MATH200&#45;&gt;PHYS248</title>
<path fill="none" stroke="black" d="M146.18,-198.94C161.5,-226.31 206.71,-299.15 268,-327.32 334.29,-357.8 422.06,-350.42 471.15,-342.65"/>
<polygon fill="black" stroke="black" points="471.71,-344.33 476.36,-341.8 471.14,-340.88 471.71,-344.33"/>
</g>
<!-- PHYS216 -->
<g id="node16" class="node">
<title>PHYS216</title>
<path fill="#f5edc9" stroke="#030a10" d="M639,-116.82C639,-116.82 587,-116.82 587,-116.82 583.5,-116.82 580,-113.32 580,-109.82 580,-109.82 580,-102.82 580,-102.82 580,-99.32 583.5,-95.82 587,-95.82 587,-95.82 639,-95.82 639,-95.82 642.5,-95.82 646,-99.32 646,-102.82 646,-102.82 646,-109.82 646,-109.82 646,-113.32 642.5,-116.82 639,-116.82"/>
<text text-anchor="middle" x="613" y="-103.22" font-family="Times,serif" font-size="12.00">PHYS216</text>
</g>
<!-- MATH200&#45;&gt;PHYS216 -->
<g id="edge45" class="edge">
<title>MATH200&#45;&gt;PHYS216</title>
<path fill="none" stroke="black" d="M161.76,-177.67C165.9,-175.38 170.15,-172.88 174,-170.32 191.12,-158.97 191.75,-150.77 210,-141.32 247.55,-121.9 259.22,-115.32 301.5,-115.32 301.5,-115.32 301.5,-115.32 407,-115.32 465.59,-115.32 533.51,-111.61 574.59,-108.95"/>
<polygon fill="black" stroke="black" points="574.83,-110.69 579.71,-108.62 574.61,-107.2 574.83,-110.69"/>
</g>
<!-- 1 of [&#39;MATH200&#39;, &#39;MATH201&#39;, &#39;MATH204&#39;] -->
<g id="node33" class="node">
<title>1 of [&#39;MATH200&#39;, &#39;MATH201&#39;, &#39;MATH204&#39;]</title>
<ellipse fill="#dfe6e9" stroke="#030a10" cx="406" cy="-185.32" rx="11" ry="11"/>
<text text-anchor="middle" x="406" y="-182.22" font-family="Times,serif" font-size="12.00">1</text>
</g>
<!-- MATH200&#45;&gt;1 of [&#39;MATH200&#39;, &#39;MATH201&#39;, &#39;MATH204&#39;] -->
<g id="edge21" class="edge">
<title>MATH200&#45;&gt;1 of [&#39;MATH200&#39;, &#39;MATH201&#39;, &#39;MATH204&#39;]</title>
<path fill="none" stroke="black" d="M174.27,-187.94C232.11,-187.29 347.95,-185.97 389.62,-185.5"/>
<polygon fill="black" stroke="black" points="389.8,-187.25 394.78,-185.44 389.76,-183.75 389.8,-187.25"/>
</g>
<!-- 1 of [&#39;MATH200&#39;, &#39;MATH205&#39;] -->
<g id="node39" class="node">
<title>1 of [&#39;MATH200&#39;, &#39;MATH205&#39;]</title>
<ellipse fill="#dfe6e9" stroke="#030a10" cx="221" cy="-156.32" rx="11" ry="11"/>
<text text-anchor="middle" x="221" y="-153.22" font-family="Times,serif" font-size="12.00">1</text>
</g>
<!-- MATH200&#45;&gt;1 of [&#39;MATH200&#39;, &#39;MATH205&#39;] -->
<g id="edge47" class="edge">
<title>MATH200&#45;&gt;1 of [&#39;MATH200&#39;, &#39;MATH205&#39;]</title>
<path fill="none" stroke="black" d="M166.97,-177.67C179.86,-172.48 194.85,-166.45 205.6,-162.12"/>
<polygon fill="black" stroke="black" points="206.52,-163.64 210.51,-160.15 205.21,-160.39 206.52,-163.64"/>
</g>
<!-- MATH201 -->
<g id="node2" class="node">
<title>MATH201</title>
<path fill="#f5edc9" stroke="#030a10" d="M330,-180.82C330,-180.82 275,-180.82 275,-180.82 271.5,-180.82 268,-177.32 268,-173.82 268,-173.82 268,-166.82 268,-166.82 268,-163.32 271.5,-159.82 275,-159.82 275,-159.82 330,-159.82 330,-159.82 333.5,-159.82 337,-163.32 337,-166.82 337,-166.82 337,-173.82 337,-173.82 337,-177.32 333.5,-180.82 330,-180.82"/>
<text text-anchor="middle" x="302.5" y="-167.22" font-family="Times,serif" font-size="12.00">MATH201</text>
</g>
<!-- MATH201&#45;&gt;1 of [&#39;MATH200&#39;, &#39;MATH201&#39;, &#39;MATH204&#39;] -->
<g id="edge22" class="edge">
<title>MATH201&#45;&gt;1 of [&#39;MATH200&#39;, &#39;MATH201&#39;, &#39;MATH204&#39;]</title>
<path fill="none" stroke="black" d="M337.02,-175.28C354.76,-177.9 375.68,-180.99 389.59,-183.05"/>
<polygon fill="black" stroke="black" points="389.53,-184.81 394.73,-183.81 390.04,-181.34 389.53,-184.81"/>
</g>
<!-- MATH211 -->
<g id="node3" class="node">
<title>MATH211</title>
<path fill="#f5edc9" stroke="#030a10" d="M330,-239.82C330,-239.82 275,-239.82 275,-239.82 271.5,-239.82 268,-236.32 268,-232.82 268,-232.82 268,-225.82 268,-225.82 268,-222.32 271.5,-218.82 275,-218.82 275,-218.82 330,-218.82 330,-218.82 333.5,-218.82 337,-222.32 337,-225.82 337,-225.82 337,-232.82 337,-232.82 337,-236.32 333.5,-239.82 330,-239.82"/>
<text text-anchor="middle" x="302.5" y="-226.22" font-family="Times,serif" font-size="12.00">MATH211</text>
</g>
<!-- 1 of [&#39;MATH110&#39;, &#39;MATH211&#39;] -->
<g id="node32" class="node">
<title>1 of [&#39;MATH110&#39;, &#39;MATH211&#39;]</title>
<ellipse fill="#dfe6e9" stroke="#030a10" cx="406" cy="-243.32" rx="11" ry="11"/>
<text text-anchor="middle" x="406" y="-240.22" font-family="Times,serif" font-size="12.00">1</text>
</g>
<!-- MATH211&#45;&gt;1 of [&#39;MATH110&#39;, &#39;MATH211&#39;] -->
<g id="edge19" class="edge">
<title>MATH211&#45;&gt;1 of [&#39;MATH110&#39;, &#39;MATH211&#39;]</title>
<path fill="none" stroke="black" d="M337.02,-233.95C354.76,-236.39 375.68,-239.28 389.59,-241.2"/>
<polygon fill="black" stroke="black" points="389.54,-242.96 394.73,-241.91 390.01,-239.49 389.54,-242.96"/>
</g>
<!-- PHYS120 -->
<g id="node4" class="node">
<title>PHYS120</title>
<path fill="#f5edc9" stroke="#030a10" d="M328.5,-45.82C328.5,-45.82 276.5,-45.82 276.5,-45.82 273,-45.82 269.5,-42.32 269.5,-38.82 269.5,-38.82 269.5,-31.82 269.5,-31.82 269.5,-28.32 273,-24.82 276.5,-24.82 276.5,-24.82 328.5,-24.82 328.5,-24.82 332,-24.82 335.5,-28.32 335.5,-31.82 335.5,-31.82 335.5,-38.82 335.5,-38.82 335.5,-42.32 332,-45.82 328.5,-45.82"/>
<text text-anchor="middle" x="302.5" y="-32.22" font-family="Times,serif" font-size="12.00">PHYS120</text>
</g>
<!-- PHYS130 -->
<g id="node19" class="node">
<title>PHYS130</title>
<path fill="#f5edc9" stroke="#030a10" d="M432,-37.82C432,-37.82 380,-37.82 380,-37.82 376.5,-37.82 373,-34.32 373,-30.82 373,-30.82 373,-23.82 373,-23.82 373,-20.32 376.5,-16.82 380,-16.82 380,-16.82 432,-16.82 432,-16.82 435.5,-16.82 439,-20.32 439,-23.82 439,-23.82 439,-30.82 439,-30.82 439,-34.32 435.5,-37.82 432,-37.82"/>
<text text-anchor="middle" x="406" y="-24.22" font-family="Times,serif" font-size="12.00">PHYS130</text>
</g>
<!-- PHYS120&#45;&gt;PHYS130 -->
<g id="edge60" class="edge">
<title>PHYS120&#45;&gt;PHYS130</title>
<path fill="none" stroke="black" d="M335.62,-32.79C345.8,-31.99 357.14,-31.1 367.66,-30.27"/>
<polygon fill="black" stroke="black" points="367.9,-32 372.75,-29.87 367.62,-28.52 367.9,-32"/>
</g>
<!-- 1 of [&#39;PHYS110&#39;, &#39;PHYS120&#39;] -->
<g id="node37" class="node">
<title>1 of [&#39;PHYS110&#39;, &#39;PHYS120&#39;]</title>
<ellipse fill="#dfe6e9" stroke="#030a10" cx="406" cy="-56.32" rx="11" ry="11"/>
<text text-anchor="middle" x="406" y="-53.22" font-family="Times,serif" font-size="12.00">1</text>
</g>
<!-- PHYS120&#45;&gt;1 of [&#39;PHYS110&#39;, &#39;PHYS120&#39;] -->
<g id="edge41" class="edge">
<title>PHYS120&#45;&gt;1 of [&#39;PHYS110&#39;, &#39;PHYS120&#39;]</title>
<path fill="none" stroke="black" d="M335.62,-41.97C353.66,-45.7 375.36,-50.19 389.63,-53.14"/>
<polygon fill="black" stroke="black" points="389.65,-54.93 394.9,-54.23 390.35,-51.51 389.65,-54.93"/>
</g>
<!-- MATH110 -->
<g id="node5" class="node">
<title>MATH110</title>
<path fill="#f5edc9" stroke="#030a10" d="M330,-267.82C330,-267.82 275,-267.82 275,-267.82 271.5,-267.82 268,-264.32 268,-260.82 268,-260.82 268,-253.82 268,-253.82 268,-250.32 271.5,-246.82 275,-246.82 275,-246.82 330,-246.82 330,-246.82 333.5,-246.82 337,-250.32 337,-253.82 337,-253.82 337,-260.82 337,-260.82 337,-264.32 333.5,-267.82 330,-267.82"/>
<text text-anchor="middle" x="302.5" y="-254.22" font-family="Times,serif" font-size="12.00">MATH110</text>
</g>
<!-- MATH110&#45;&gt;1 of [&#39;MATH110&#39;, &#39;MATH211&#39;] -->
<g id="edge18" class="edge">
<title>MATH110&#45;&gt;1 of [&#39;MATH110&#39;, &#39;MATH211&#39;]</title>
<path fill="none" stroke="black" d="M337.02,-252.7C354.76,-250.25 375.68,-247.37 389.59,-245.45"/>
<polygon fill="black" stroke="black" points="390.01,-247.16 394.73,-244.74 389.54,-243.69 390.01,-247.16"/>
</g>
<!-- PHYS110 -->
<g id="node6" class="node">
<title>PHYS110</title>
<path fill="#f5edc9" stroke="#030a10" d="M328.5,-73.82C328.5,-73.82 276.5,-73.82 276.5,-73.82 273,-73.82 269.5,-70.32 269.5,-66.82 269.5,-66.82 269.5,-59.82 269.5,-59.82 269.5,-56.32 273,-52.82 276.5,-52.82 276.5,-52.82 328.5,-52.82 328.5,-52.82 332,-52.82 335.5,-56.32 335.5,-59.82 335.5,-59.82 335.5,-66.82 335.5,-66.82 335.5,-70.32 332,-73.82 328.5,-73.82"/>
<text text-anchor="middle" x="302.5" y="-60.22" font-family="Times,serif" font-size="12.00">PHYS110</text>
</g>
<!-- PHYS111 -->
<g id="node14" class="node">
<title>PHYS111</title>
<path fill="#f5edc9" stroke="#030a10" d="M431.5,-95.82C431.5,-95.82 380.5,-95.82 380.5,-95.82 377,-95.82 373.5,-92.32 373.5,-88.82 373.5,-88.82 373.5,-81.82 373.5,-81.82 373.5,-78.32 377,-74.82 380.5,-74.82 380.5,-74.82 431.5,-74.82 431.5,-74.82 435,-74.82 438.5,-78.32 438.5,-81.82 438.5,-81.82 438.5,-88.82 438.5,-88.82 438.5,-92.32 435,-95.82 431.5,-95.82"/>
<text text-anchor="middle" x="406" y="-82.22" font-family="Times,serif" font-size="12.00">PHYS111</text>
</g>
<!-- PHYS110&#45;&gt;PHYS111 -->
<g id="edge37" class="edge">
<title>PHYS110&#45;&gt;PHYS111</title>
<path fill="none" stroke="black" d="M335.62,-70.29C346,-72.54 357.59,-75.05 368.28,-77.36"/>
<polygon fill="black" stroke="black" points="368.18,-79.14 373.44,-78.48 368.93,-75.71 368.18,-79.14"/>
</g>
<!-- PHYS110&#45;&gt;1 of [&#39;PHYS110&#39;, &#39;PHYS120&#39;] -->
<g id="edge40" class="edge">
<title>PHYS110&#45;&gt;1 of [&#39;PHYS110&#39;, &#39;PHYS120&#39;]</title>
<path fill="none" stroke="black" d="M335.62,-61.11C353.66,-59.86 375.36,-58.37 389.63,-57.38"/>
<polygon fill="black" stroke="black" points="390.03,-59.11 394.9,-57.02 389.79,-55.62 390.03,-59.11"/>
</g>
<!-- MATH342 -->
<g id="node7" class="node">
<title>MATH342</title>
<path fill="#f5edc9" stroke="#030a10" d="M537,-205.82C537,-205.82 482,-205.82 482,-205.82 478.5,-205.82 475,-202.32 475,-198.82 475,-198.82 475,-191.82 475,-191.82 475,-188.32 478.5,-184.82 482,-184.82 482,-184.82 537,-184.82 537,-184.82 540.5,-184.82 544,-188.32 544,-191.82 544,-191.82 544,-198.82 544,-198.82 544,-202.32 540.5,-205.82 537,-205.82"/>
<text text-anchor="middle" x="509.5" y="-192.22" font-family="Times,serif" font-size="12.00">MATH342</text>
</g>
<!-- 1 of [&#39;PHYS301&#39;, &#39;MATH342&#39;, &#39;MATH346&#39;] -->
<g id="node42" class="node">
<title>1 of [&#39;PHYS301&#39;, &#39;MATH342&#39;, &#39;MATH346&#39;]</title>
<ellipse fill="#dfe6e9" stroke="#030a10" cx="613" cy="-167.32" rx="11" ry="11"/>
<text text-anchor="middle" x="613" y="-164.22" font-family="Times,serif" font-size="12.00">1</text>
</g>
<!-- MATH342&#45;&gt;1 of [&#39;PHYS301&#39;, &#39;MATH342&#39;, &#39;MATH346&#39;] -->
<g id="edge58" class="edge">
<title>MATH342&#45;&gt;1 of [&#39;PHYS301&#39;, &#39;MATH342&#39;, &#39;MATH346&#39;]</title>
<path fill="none" stroke="black" d="M544.02,-186.08C561.96,-181.13 583.17,-175.28 597.06,-171.44"/>
<polygon fill="black" stroke="black" points="597.83,-173.05 602.19,-170.03 596.9,-169.67 597.83,-173.05"/>
</g>
<!-- 1 of [&#39;PHYS248&#39;, &#39;CSC226&#39;, &#39;CSC349A&#39;, &#39;MATH248&#39;] -->
<g id="node41" class="node">
<title>1 of [&#39;PHYS248&#39;, &#39;CSC226&#39;, &#39;CSC349A&#39;, &#39;MATH248&#39;]</title>
<ellipse fill="#dfe6e9" stroke="#030a10" cx="613" cy="-265.32" rx="11" ry="11"/>
<text text-anchor="middle" x="613" y="-262.22" font-family="Times,serif" font-size="12.00">1</text>
</g>
<!-- MATH248&#45;&gt;1 of [&#39;PHYS248&#39;, &#39;CSC226&#39;, &#39;CSC349A&#39;, &#39;MATH248&#39;] -->
<g id="edge55" class="edge">
<title>MATH248&#45;&gt;1 of [&#39;PHYS248&#39;, &#39;CSC226&#39;, &#39;CSC349A&#39;, &#39;MATH248&#39;]</title>
<path fill="none" stroke="black" d="M536.11,-296.73C555.53,-288.69 581.51,-277.94 597.49,-271.33"/>
<polygon fill="black" stroke="black" points="598.55,-272.79 602.5,-269.26 597.21,-269.55 598.55,-272.79"/>
</g>
<!-- CSC226 -->
<g id="node9" class="node">
<title>CSC226</title>
<path fill="#f5edc9" stroke="#030a10" d="M531.5,-289.82C531.5,-289.82 487.5,-289.82 487.5,-289.82 484,-289.82 480.5,-286.32 480.5,-282.82 480.5,-282.82 480.5,-275.82 480.5,-275.82 480.5,-272.32 484,-268.82 487.5,-268.82 487.5,-268.82 531.5,-268.82 531.5,-268.82 535,-268.82 538.5,-272.32 538.5,-275.82 538.5,-275.82 538.5,-282.82 538.5,-282.82 538.5,-286.32 535,-289.82 531.5,-289.82"/>
<text text-anchor="middle" x="509.5" y="-276.22" font-family="Times,serif" font-size="12.00">CSC226</text>
</g>
<!-- CSC226&#45;&gt;1 of [&#39;PHYS248&#39;, &#39;CSC226&#39;, &#39;CSC349A&#39;, &#39;MATH248&#39;] -->
<g id="edge53" class="edge">
<title>CSC226&#45;&gt;1 of [&#39;PHYS248&#39;, &#39;CSC226&#39;, &#39;CSC349A&#39;, &#39;MATH248&#39;]</title>
<path fill="none" stroke="black" d="M538.5,-275.46C557.32,-272.87 581.39,-269.55 596.76,-267.43"/>
<polygon fill="black" stroke="black" points="597.28,-269.12 602,-266.7 596.81,-265.65 597.28,-269.12"/>
</g>
<!-- EOS427 -->
<g id="node10" class="node">
<title>EOS427</title>
<path fill="#9fa7be" stroke="#030a10" d="M844,-174.82C844,-174.82 800,-174.82 800,-174.82 796.5,-174.82 793,-171.32 793,-167.82 793,-167.82 793,-160.82 793,-160.82 793,-157.32 796.5,-153.82 800,-153.82 800,-153.82 844,-153.82 844,-153.82 847.5,-153.82 851,-157.32 851,-160.82 851,-160.82 851,-167.82 851,-167.82 851,-171.32 847.5,-174.82 844,-174.82"/>
<text text-anchor="middle" x="822" y="-161.22" font-family="Times,serif" font-size="12.00">EOS427</text>
</g>
<!-- MATH346 -->
<g id="node11" class="node">
<title>MATH346</title>
<path fill="#e7a79b" stroke="#030a10" d="M537,-233.82C537,-233.82 482,-233.82 482,-233.82 478.5,-233.82 475,-230.32 475,-226.82 475,-226.82 475,-219.82 475,-219.82 475,-216.32 478.5,-212.82 482,-212.82 482,-212.82 537,-212.82 537,-212.82 540.5,-212.82 544,-216.32 544,-219.82 544,-219.82 544,-226.82 544,-226.82 544,-230.32 540.5,-233.82 537,-233.82"/>
<text text-anchor="middle" x="509.5" y="-220.22" font-family="Times,serif" font-size="12.00">MATH346</text>
</g>
<!-- MATH346&#45;&gt;EOS427 -->
<g id="edge31" class="edge">
<title>MATH346&#45;&gt;EOS427</title>
<path fill="none" stroke="black" d="M544.06,-217.58C591.56,-209.36 681.08,-193.55 757,-178.32 766.97,-176.32 777.78,-174.01 787.64,-171.85"/>
<polygon fill="black" stroke="black" points="788.18,-173.52 792.69,-170.74 787.43,-170.11 788.18,-173.52"/>
</g>
<!-- MATH346&#45;&gt;1 of [&#39;PHYS301&#39;, &#39;MATH342&#39;, &#39;MATH346&#39;] -->
<g id="edge59" class="edge">
<title>MATH346&#45;&gt;1 of [&#39;PHYS301&#39;, &#39;MATH342&#39;, &#39;MATH346&#39;]</title>
<path fill="none" stroke="black" d="M535.18,-212.69C538.18,-211.27 541.18,-209.8 544,-208.32 563.76,-197.99 585.69,-184.35 599.16,-175.71"/>
<polygon fill="black" stroke="black" points="600.14,-177.16 603.39,-172.98 598.24,-174.22 600.14,-177.16"/>
</g>
<!-- PHYS301 -->
<g id="node12" class="node">
<title>PHYS301</title>
<path fill="#f5edc9" stroke="#030a10" d="M535.5,-177.82C535.5,-177.82 483.5,-177.82 483.5,-177.82 480,-177.82 476.5,-174.32 476.5,-170.82 476.5,-170.82 476.5,-163.82 476.5,-163.82 476.5,-160.32 480,-156.82 483.5,-156.82 483.5,-156.82 535.5,-156.82 535.5,-156.82 539,-156.82 542.5,-160.32 542.5,-163.82 542.5,-163.82 542.5,-170.82 542.5,-170.82 542.5,-174.32 539,-177.82 535.5,-177.82"/>
<text text-anchor="middle" x="509.5" y="-164.22" font-family="Times,serif" font-size="12.00">PHYS301</text>
</g>
<!-- PHYS301&#45;&gt;1 of [&#39;PHYS301&#39;, &#39;MATH342&#39;, &#39;MATH346&#39;] -->
<g id="edge57" class="edge">
<title>PHYS301&#45;&gt;1 of [&#39;PHYS301&#39;, &#39;MATH342&#39;, &#39;MATH346&#39;]</title>
<path fill="none" stroke="black" d="M542.62,-167.32C560.66,-167.32 582.36,-167.32 596.63,-167.32"/>
<polygon fill="black" stroke="black" points="596.9,-169.07 601.9,-167.32 596.9,-165.57 596.9,-169.07"/>
</g>
<!-- PHYS248&#45;&gt;1 of [&#39;PHYS248&#39;, &#39;CSC226&#39;, &#39;CSC349A&#39;, &#39;MATH248&#39;] -->
<g id="edge52" class="edge">
<title>PHYS248&#45;&gt;1 of [&#39;PHYS248&#39;, &#39;CSC226&#39;, &#39;CSC349A&#39;, &#39;MATH248&#39;]</title>
<path fill="none" stroke="black" d="M537.89,-324.67C540,-323.61 542.06,-322.5 544,-321.32 565.84,-308.16 588.08,-288.39 600.93,-276.2"/>
<polygon fill="black" stroke="black" points="602.21,-277.4 604.61,-272.67 599.79,-274.87 602.21,-277.4"/>
</g>
<!-- 1 of [&#39;PHYS111&#39;, &#39;PHYS130&#39;] -->
<g id="node38" class="node">
<title>1 of [&#39;PHYS111&#39;, &#39;PHYS130&#39;]</title>
<ellipse fill="#dfe6e9" stroke="#030a10" cx="509.5" cy="-78.32" rx="11" ry="11"/>
<text text-anchor="middle" x="509.5" y="-75.22" font-family="Times,serif" font-size="12.00">1</text>
</g>
<!-- PHYS111&#45;&gt;1 of [&#39;PHYS111&#39;, &#39;PHYS130&#39;] -->
<g id="edge43" class="edge">
<title>PHYS111&#45;&gt;1 of [&#39;PHYS111&#39;, &#39;PHYS130&#39;]</title>
<path fill="none" stroke="black" d="M438.56,-83.15C456.64,-81.9 478.54,-80.39 492.96,-79.4"/>
<polygon fill="black" stroke="black" points="493.41,-81.12 498.28,-79.03 493.17,-77.63 493.41,-81.12"/>
</g>
<!-- CSC349A -->
<g id="node15" class="node">
<title>CSC349A</title>
<path fill="#f5edc9" stroke="#030a10" d="M536,-261.82C536,-261.82 483,-261.82 483,-261.82 479.5,-261.82 476,-258.32 476,-254.82 476,-254.82 476,-247.82 476,-247.82 476,-244.32 479.5,-240.82 483,-240.82 483,-240.82 536,-240.82 536,-240.82 539.5,-240.82 543,-244.32 543,-247.82 543,-247.82 543,-254.82 543,-254.82 543,-258.32 539.5,-261.82 536,-261.82"/>
<text text-anchor="middle" x="509.5" y="-248.22" font-family="Times,serif" font-size="12.00">CSC349A</text>
</g>
<!-- CSC349A&#45;&gt;1 of [&#39;PHYS248&#39;, &#39;CSC226&#39;, &#39;CSC349A&#39;, &#39;MATH248&#39;] -->
<g id="edge54" class="edge">
<title>CSC349A&#45;&gt;1 of [&#39;PHYS248&#39;, &#39;CSC226&#39;, &#39;CSC349A&#39;, &#39;MATH248&#39;]</title>
<path fill="none" stroke="black" d="M543.17,-255.83C561.18,-258.32 582.68,-261.28 596.81,-263.23"/>
<polygon fill="black" stroke="black" points="596.82,-265 602.01,-263.95 597.3,-261.53 596.82,-265"/>
</g>
<!-- PHYS326 -->
<g id="node18" class="node">
<title>PHYS326</title>
<path fill="#e7a79b" stroke="#030a10" d="M745.5,-174.82C745.5,-174.82 693.5,-174.82 693.5,-174.82 690,-174.82 686.5,-171.32 686.5,-167.82 686.5,-167.82 686.5,-160.82 686.5,-160.82 686.5,-157.32 690,-153.82 693.5,-153.82 693.5,-153.82 745.5,-153.82 745.5,-153.82 749,-153.82 752.5,-157.32 752.5,-160.82 752.5,-160.82 752.5,-167.82 752.5,-167.82 752.5,-171.32 749,-174.82 745.5,-174.82"/>
<text text-anchor="middle" x="719.5" y="-161.22" font-family="Times,serif" font-size="12.00">PHYS326</text>
</g>
<!-- PHYS216&#45;&gt;PHYS326 -->
<g id="edge50" class="edge">
<title>PHYS216&#45;&gt;PHYS326</title>
<path fill="none" stroke="black" d="M629.84,-116.99C643.39,-125.9 663.57,-138.65 682,-148.32 684.11,-149.43 686.31,-150.53 688.55,-151.6"/>
<polygon fill="black" stroke="black" points="687.88,-153.22 693.15,-153.76 689.37,-150.05 687.88,-153.22"/>
</g>
<!-- MATH204 -->
<g id="node17" class="node">
<title>MATH204</title>
<path fill="#f5edc9" stroke="#030a10" d="M330,-152.82C330,-152.82 275,-152.82 275,-152.82 271.5,-152.82 268,-149.32 268,-145.82 268,-145.82 268,-138.82 268,-138.82 268,-135.32 271.5,-131.82 275,-131.82 275,-131.82 330,-131.82 330,-131.82 333.5,-131.82 337,-135.32 337,-138.82 337,-138.82 337,-145.82 337,-145.82 337,-149.32 333.5,-152.82 330,-152.82"/>
<text text-anchor="middle" x="302.5" y="-139.22" font-family="Times,serif" font-size="12.00">MATH204</text>
</g>
<!-- MATH204&#45;&gt;PHYS326 -->
<g id="edge49" class="edge">
<title>MATH204&#45;&gt;PHYS326</title>
<path fill="none" stroke="black" d="M337.13,-142.09C398.59,-141.94 533.14,-142.99 646,-153.32 657.54,-154.38 670.05,-156.08 681.37,-157.83"/>
<polygon fill="black" stroke="black" points="681.27,-159.58 686.48,-158.63 681.81,-156.12 681.27,-159.58"/>
</g>
<!-- PHYS321A -->
<g id="node20" class="node">
<title>PHYS321A</title>
<path fill="#e7a79b" stroke="#030a10" d="M750,-144.82C750,-144.82 689,-144.82 689,-144.82 685.5,-144.82 682,-141.32 682,-137.82 682,-137.82 682,-130.82 682,-130.82 682,-127.32 685.5,-123.82 689,-123.82 689,-123.82 750,-123.82 750,-123.82 753.5,-123.82 757,-127.32 757,-130.82 757,-130.82 757,-137.82 757,-137.82 757,-141.32 753.5,-144.82 750,-144.82"/>
<text text-anchor="middle" x="719.5" y="-131.22" font-family="Times,serif" font-size="12.00">PHYS321A</text>
</g>
<!-- MATH204&#45;&gt;PHYS321A -->
<g id="edge64" class="edge">
<title>MATH204&#45;&gt;PHYS321A</title>
<path fill="none" stroke="black" d="M337.08,-141.28C348.48,-140.95 361.29,-140.59 373,-140.32 482.53,-137.8 611.6,-135.82 676.61,-134.9"/>
<polygon fill="black" stroke="black" points="676.96,-136.64 681.93,-134.82 676.91,-133.14 676.96,-136.64"/>
</g>
<!-- MATH204&#45;&gt;1 of [&#39;MATH200&#39;, &#39;MATH201&#39;, &#39;MATH204&#39;] -->
<g id="edge23" class="edge">
<title>MATH204&#45;&gt;1 of [&#39;MATH200&#39;, &#39;MATH201&#39;, &#39;MATH204&#39;]</title>
<path fill="none" stroke="black" d="M328.75,-152.85C331.54,-154.02 334.33,-155.2 337,-156.32 355.53,-164.15 376.87,-173.26 390.62,-179.16"/>
<polygon fill="black" stroke="black" points="390.04,-180.81 395.33,-181.17 391.42,-177.59 390.04,-180.81"/>
</g>
<!-- PHYS326&#45;&gt;EOS427 -->
<g id="edge30" class="edge">
<title>PHYS326&#45;&gt;EOS427</title>
<path fill="none" stroke="black" d="M752.58,-164.32C763.83,-164.32 776.5,-164.32 787.84,-164.32"/>
<polygon fill="black" stroke="black" points="787.95,-166.07 792.95,-164.32 787.95,-162.57 787.95,-166.07"/>
</g>
<!-- PHYS130&#45;&gt;1 of [&#39;PHYS111&#39;, &#39;PHYS130&#39;] -->
<g id="edge44" class="edge">
<title>PHYS130&#45;&gt;1 of [&#39;PHYS111&#39;, &#39;PHYS130&#39;]</title>
<path fill="none" stroke="black" d="M431.55,-37.83C434.08,-38.99 436.6,-40.16 439,-41.32 458.72,-50.87 481,-62.97 494.9,-70.68"/>
<polygon fill="black" stroke="black" points="494.4,-72.41 499.62,-73.31 496.1,-69.35 494.4,-72.41"/>
</g>
<!-- PHYS321A&#45;&gt;EOS427 -->
<g id="edge29" class="edge">
<title>PHYS321A&#45;&gt;EOS427</title>
<path fill="none" stroke="black" d="M755.93,-144.9C766.33,-148 777.65,-151.38 787.89,-154.44"/>
<polygon fill="black" stroke="black" points="787.53,-156.16 792.82,-155.91 788.53,-152.81 787.53,-156.16"/>
</g>
<!-- MATH101 -->
<g id="node21" class="node">
<title>MATH101</title>
<path fill="#f5edc9" stroke="#030a10" d="M62,-104.82C62,-104.82 7,-104.82 7,-104.82 3.5,-104.82 0,-101.32 0,-97.82 0,-97.82 0,-90.82 0,-90.82 0,-87.32 3.5,-83.82 7,-83.82 7,-83.82 62,-83.82 62,-83.82 65.5,-83.82 69,-87.32 69,-90.82 69,-90.82 69,-97.82 69,-97.82 69,-101.32 65.5,-104.82 62,-104.82"/>
<text text-anchor="middle" x="34.5" y="-91.22" font-family="Times,serif" font-size="12.00">MATH101</text>
</g>
<!-- MATH101&#45;&gt;MATH200 -->
<g id="edge1" class="edge">
<title>MATH101&#45;&gt;MATH200</title>
<path fill="none" stroke="black" d="M43.33,-104.95C55.3,-120.68 79.46,-150.44 105,-170.32 107.15,-172 109.48,-173.6 111.87,-175.11"/>
<polygon fill="black" stroke="black" points="111.03,-176.65 116.21,-177.72 112.83,-173.65 111.03,-176.65"/>
</g>
<!-- MATH101&#45;&gt;PHYS130 -->
<g id="edge61" class="edge">
<title>MATH101&#45;&gt;PHYS130</title>
<path fill="none" stroke="black" d="M41.76,-83.71C52.33,-66.97 75.48,-35.03 105,-22.32 192.79,15.44 308.83,-3.49 367.54,-17.25"/>
<polygon fill="black" stroke="black" points="367.42,-19.02 372.69,-18.48 368.24,-15.62 367.42,-19.02"/>
</g>
<!-- 1 of [&#39;MATH100&#39;, &#39;MATH102&#39;, &#39;MATH109&#39;, &#39;MATH122&#39;] -->
<g id="node22" class="node">
<title>1 of [&#39;MATH100&#39;, &#39;MATH102&#39;, &#39;MATH109&#39;, &#39;MATH122&#39;]</title>
<ellipse fill="#dfe6e9" stroke="#030a10" cx="221" cy="-93.32" rx="11" ry="11"/>
<text text-anchor="middle" x="221" y="-90.22" font-family="Times,serif" font-size="12.00">1</text>
</g>
<!-- 1 of [&#39;MATH100&#39;, &#39;MATH102&#39;, &#39;MATH109&#39;, &#39;MATH122&#39;]&#45;&gt;MATH211 -->
<g id="edge2" class="edge">
<title>1 of [&#39;MATH100&#39;, &#39;MATH102&#39;, &#39;MATH109&#39;, &#39;MATH122&#39;]&#45;&gt;MATH211</title>
<path fill="none" stroke="black" d="M226.31,-103.18C233.89,-120.21 250.49,-156.02 268,-184.32 274.52,-194.86 282.83,-206.03 289.54,-214.61"/>
<polygon fill="black" stroke="black" points="288.22,-215.76 292.69,-218.6 290.97,-213.59 288.22,-215.76"/>
</g>
<!-- MATH100 -->
<g id="node23" class="node">
<title>MATH100</title>
<path fill="#f5edc9" stroke="#030a10" d="M167,-46.82C167,-46.82 112,-46.82 112,-46.82 108.5,-46.82 105,-43.32 105,-39.82 105,-39.82 105,-32.82 105,-32.82 105,-29.32 108.5,-25.82 112,-25.82 112,-25.82 167,-25.82 167,-25.82 170.5,-25.82 174,-29.32 174,-32.82 174,-32.82 174,-39.82 174,-39.82 174,-43.32 170.5,-46.82 167,-46.82"/>
<text text-anchor="middle" x="139.5" y="-33.22" font-family="Times,serif" font-size="12.00">MATH100</text>
</g>
<!-- MATH100&#45;&gt;1 of [&#39;MATH100&#39;, &#39;MATH102&#39;, &#39;MATH109&#39;, &#39;MATH122&#39;] -->
<g id="edge3" class="edge">
<title>MATH100&#45;&gt;1 of [&#39;MATH100&#39;, &#39;MATH102&#39;, &#39;MATH109&#39;, &#39;MATH122&#39;]</title>
<path fill="none" stroke="black" d="M167.98,-46.84C170.06,-47.93 172.09,-49.09 174,-50.32 187.66,-59.15 200.97,-72.24 209.73,-81.65"/>
<polygon fill="black" stroke="black" points="208.53,-82.93 213.2,-85.44 211.12,-80.57 208.53,-82.93"/>
</g>
<!-- 1 of [&#39;MATH100&#39;, &#39;MATH109&#39;] -->
<g id="node30" class="node">
<title>1 of [&#39;MATH100&#39;, &#39;MATH109&#39;]</title>
<ellipse fill="#dfe6e9" stroke="#030a10" cx="221" cy="-35.32" rx="11" ry="11"/>
<text text-anchor="middle" x="221" y="-32.22" font-family="Times,serif" font-size="12.00">1</text>
</g>
<!-- MATH100&#45;&gt;1 of [&#39;MATH100&#39;, &#39;MATH109&#39;] -->
<g id="edge11" class="edge">
<title>MATH100&#45;&gt;1 of [&#39;MATH100&#39;, &#39;MATH109&#39;]</title>
<path fill="none" stroke="black" d="M174.22,-35.9C184.87,-35.77 196.12,-35.62 204.8,-35.52"/>
<polygon fill="black" stroke="black" points="204.86,-37.27 209.84,-35.45 204.82,-33.77 204.86,-37.27"/>
</g>
<!-- 1 of [&#39;MATH100&#39;, &#39;MATH102&#39;, &#39;MATH109&#39;] -->
<g id="node31" class="node">
<title>1 of [&#39;MATH100&#39;, &#39;MATH102&#39;, &#39;MATH109&#39;]</title>
<ellipse fill="#dfe6e9" stroke="#030a10" cx="221" cy="-64.32" rx="11" ry="11"/>
<text text-anchor="middle" x="221" y="-61.22" font-family="Times,serif" font-size="12.00">1</text>
</g>
<!-- MATH100&#45;&gt;1 of [&#39;MATH100&#39;, &#39;MATH102&#39;, &#39;MATH109&#39;] -->
<g id="edge14" class="edge">
<title>MATH100&#45;&gt;1 of [&#39;MATH100&#39;, &#39;MATH102&#39;, &#39;MATH109&#39;]</title>
<path fill="none" stroke="black" d="M170.56,-46.91C182.54,-51.13 195.77,-55.79 205.53,-59.23"/>
<polygon fill="black" stroke="black" points="204.99,-60.89 210.29,-60.91 206.16,-57.59 204.99,-60.89"/>
</g>
<!-- MATH102 -->
<g id="node24" class="node">
<title>MATH102</title>
<path fill="#f5edc9" stroke="#030a10" d="M167,-102.82C167,-102.82 112,-102.82 112,-102.82 108.5,-102.82 105,-99.32 105,-95.82 105,-95.82 105,-88.82 105,-88.82 105,-85.32 108.5,-81.82 112,-81.82 112,-81.82 167,-81.82 167,-81.82 170.5,-81.82 174,-85.32 174,-88.82 174,-88.82 174,-95.82 174,-95.82 174,-99.32 170.5,-102.82 167,-102.82"/>
<text text-anchor="middle" x="139.5" y="-89.22" font-family="Times,serif" font-size="12.00">MATH102</text>
</g>
<!-- MATH102&#45;&gt;1 of [&#39;MATH100&#39;, &#39;MATH102&#39;, &#39;MATH109&#39;, &#39;MATH122&#39;] -->
<g id="edge4" class="edge">
<title>MATH102&#45;&gt;1 of [&#39;MATH100&#39;, &#39;MATH102&#39;, &#39;MATH109&#39;, &#39;MATH122&#39;]</title>
<path fill="none" stroke="black" d="M174.22,-92.75C184.87,-92.88 196.12,-93.02 204.8,-93.13"/>
<polygon fill="black" stroke="black" points="204.82,-94.88 209.84,-93.2 204.86,-91.38 204.82,-94.88"/>
</g>
<!-- MATH102&#45;&gt;1 of [&#39;MATH100&#39;, &#39;MATH102&#39;, &#39;MATH109&#39;] -->
<g id="edge15" class="edge">
<title>MATH102&#45;&gt;1 of [&#39;MATH100&#39;, &#39;MATH102&#39;, &#39;MATH109&#39;]</title>
<path fill="none" stroke="black" d="M170.56,-81.74C182.54,-77.52 195.77,-72.86 205.53,-69.42"/>
<polygon fill="black" stroke="black" points="206.16,-71.06 210.29,-67.74 204.99,-67.75 206.16,-71.06"/>
</g>
<!-- MATH109 -->
<g id="node25" class="node">
<title>MATH109</title>
<path fill="#f5edc9" stroke="#030a10" d="M167,-74.82C167,-74.82 112,-74.82 112,-74.82 108.5,-74.82 105,-71.32 105,-67.82 105,-67.82 105,-60.82 105,-60.82 105,-57.32 108.5,-53.82 112,-53.82 112,-53.82 167,-53.82 167,-53.82 170.5,-53.82 174,-57.32 174,-60.82 174,-60.82 174,-67.82 174,-67.82 174,-71.32 170.5,-74.82 167,-74.82"/>
<text text-anchor="middle" x="139.5" y="-61.22" font-family="Times,serif" font-size="12.00">MATH109</text>
</g>
<!-- MATH109&#45;&gt;1 of [&#39;MATH100&#39;, &#39;MATH102&#39;, &#39;MATH109&#39;, &#39;MATH122&#39;] -->
<g id="edge5" class="edge">
<title>MATH109&#45;&gt;1 of [&#39;MATH100&#39;, &#39;MATH102&#39;, &#39;MATH109&#39;, &#39;MATH122&#39;]</title>
<path fill="none" stroke="black" d="M169.65,-74.96C181.88,-79.42 195.55,-84.4 205.56,-88.06"/>
<polygon fill="black" stroke="black" points="205.13,-89.76 210.43,-89.83 206.33,-86.48 205.13,-89.76"/>
</g>
<!-- MATH109&#45;&gt;1 of [&#39;MATH100&#39;, &#39;MATH109&#39;] -->
<g id="edge12" class="edge">
<title>MATH109&#45;&gt;1 of [&#39;MATH100&#39;, &#39;MATH109&#39;]</title>
<path fill="none" stroke="black" d="M169.65,-53.69C181.88,-49.23 195.55,-44.24 205.56,-40.59"/>
<polygon fill="black" stroke="black" points="206.33,-42.17 210.43,-38.82 205.13,-38.89 206.33,-42.17"/>
</g>
<!-- MATH109&#45;&gt;1 of [&#39;MATH100&#39;, &#39;MATH102&#39;, &#39;MATH109&#39;] -->
<g id="edge16" class="edge">
<title>MATH109&#45;&gt;1 of [&#39;MATH100&#39;, &#39;MATH102&#39;, &#39;MATH109&#39;]</title>
<path fill="none" stroke="black" d="M174.22,-64.32C184.87,-64.32 196.12,-64.32 204.8,-64.32"/>
<polygon fill="black" stroke="black" points="204.84,-66.07 209.84,-64.32 204.84,-62.57 204.84,-66.07"/>
</g>
<!-- MATH122 -->
<g id="node26" class="node">
<title>MATH122</title>
<path fill="#f5edc9" stroke="#030a10" d="M167,-130.82C167,-130.82 112,-130.82 112,-130.82 108.5,-130.82 105,-127.32 105,-123.82 105,-123.82 105,-116.82 105,-116.82 105,-113.32 108.5,-109.82 112,-109.82 112,-109.82 167,-109.82 167,-109.82 170.5,-109.82 174,-113.32 174,-116.82 174,-116.82 174,-123.82 174,-123.82 174,-127.32 170.5,-130.82 167,-130.82"/>
<text text-anchor="middle" x="139.5" y="-117.22" font-family="Times,serif" font-size="12.00">MATH122</text>
</g>
<!-- MATH122&#45;&gt;1 of [&#39;MATH100&#39;, &#39;MATH102&#39;, &#39;MATH109&#39;, &#39;MATH122&#39;] -->
<g id="edge6" class="edge">
<title>MATH122&#45;&gt;1 of [&#39;MATH100&#39;, &#39;MATH102&#39;, &#39;MATH109&#39;, &#39;MATH122&#39;]</title>
<path fill="none" stroke="black" d="M171.46,-109.81C183.09,-105.86 195.77,-101.55 205.25,-98.33"/>
<polygon fill="black" stroke="black" points="205.99,-99.93 210.16,-96.66 204.87,-96.62 205.99,-99.93"/>
</g>
<!-- 1 of [&#39;MATH120&#39;, &#39;MATH151&#39;] -->
<g id="node27" class="node">
<title>1 of [&#39;MATH120&#39;, &#39;MATH151&#39;]</title>
<ellipse fill="#dfe6e9" stroke="#030a10" cx="221" cy="-357.32" rx="11" ry="11"/>
<text text-anchor="middle" x="221" y="-354.22" font-family="Times,serif" font-size="12.00">1</text>
</g>
<!-- 1 of [&#39;MATH120&#39;, &#39;MATH151&#39;]&#45;&gt;MATH211 -->
<g id="edge7" class="edge">
<title>1 of [&#39;MATH120&#39;, &#39;MATH151&#39;]&#45;&gt;MATH211</title>
<path fill="none" stroke="black" d="M223.55,-346.38C227.26,-324.1 238.6,-273.08 268,-243.32 268.16,-243.17 268.31,-243.01 268.47,-242.86"/>
<polygon fill="black" stroke="black" points="269.34,-244.41 272.07,-239.87 267.1,-241.72 269.34,-244.41"/>
</g>
<!-- MATH120 -->
<g id="node28" class="node">
<title>MATH120</title>
<path fill="#f5edc9" stroke="#030a10" d="M167,-353.82C167,-353.82 112,-353.82 112,-353.82 108.5,-353.82 105,-350.32 105,-346.82 105,-346.82 105,-339.82 105,-339.82 105,-336.32 108.5,-332.82 112,-332.82 112,-332.82 167,-332.82 167,-332.82 170.5,-332.82 174,-336.32 174,-339.82 174,-339.82 174,-346.82 174,-346.82 174,-350.32 170.5,-353.82 167,-353.82"/>
<text text-anchor="middle" x="139.5" y="-340.22" font-family="Times,serif" font-size="12.00">MATH120</text>
</g>
<!-- MATH120&#45;&gt;1 of [&#39;MATH120&#39;, &#39;MATH151&#39;] -->
<g id="edge8" class="edge">
<title>MATH120&#45;&gt;1 of [&#39;MATH120&#39;, &#39;MATH151&#39;]</title>
<path fill="none" stroke="black" d="M174.22,-349.26C184.87,-351.14 196.12,-353.12 204.8,-354.65"/>
<polygon fill="black" stroke="black" points="204.61,-356.39 209.84,-355.54 205.22,-352.94 204.61,-356.39"/>
</g>
<!-- MATH151 -->
<g id="node29" class="node">
<title>MATH151</title>
<path fill="#f5edc9" stroke="#030a10" d="M167,-381.82C167,-381.82 112,-381.82 112,-381.82 108.5,-381.82 105,-378.32 105,-374.82 105,-374.82 105,-367.82 105,-367.82 105,-364.32 108.5,-360.82 112,-360.82 112,-360.82 167,-360.82 167,-360.82 170.5,-360.82 174,-364.32 174,-367.82 174,-367.82 174,-374.82 174,-374.82 174,-378.32 170.5,-381.82 167,-381.82"/>
<text text-anchor="middle" x="139.5" y="-368.22" font-family="Times,serif" font-size="12.00">MATH151</text>
</g>
<!-- MATH151&#45;&gt;1 of [&#39;MATH120&#39;, &#39;MATH151&#39;] -->
<g id="edge9" class="edge">
<title>MATH151&#45;&gt;1 of [&#39;MATH120&#39;, &#39;MATH151&#39;]</title>
<path fill="none" stroke="black" d="M174.22,-365.39C184.87,-363.51 196.12,-361.53 204.8,-360"/>
<polygon fill="black" stroke="black" points="205.22,-361.7 209.84,-359.11 204.61,-358.26 205.22,-361.7"/>
</g>
<!-- 1 of [&#39;MATH100&#39;, &#39;MATH109&#39;]&#45;&gt;PHYS120 -->
<g id="edge10" class="edge">
<title>1 of [&#39;MATH100&#39;, &#39;MATH109&#39;]&#45;&gt;PHYS120</title>
<path fill="none" stroke="black" d="M232.07,-35.32C240.26,-35.32 252.35,-35.32 264.16,-35.32"/>
<polygon fill="black" stroke="black" points="264.19,-37.07 269.19,-35.32 264.19,-33.57 264.19,-37.07"/>
</g>
<!-- 1 of [&#39;MATH100&#39;, &#39;MATH102&#39;, &#39;MATH109&#39;]&#45;&gt;PHYS110 -->
<g id="edge13" class="edge">
<title>1 of [&#39;MATH100&#39;, &#39;MATH102&#39;, &#39;MATH109&#39;]&#45;&gt;PHYS110</title>
<path fill="none" stroke="black" d="M232.07,-64.2C240.26,-64.09 252.35,-63.94 264.16,-63.79"/>
<polygon fill="black" stroke="black" points="264.22,-65.54 269.19,-63.73 264.17,-62.04 264.22,-65.54"/>
</g>
<!-- 1 of [&#39;MATH100&#39;, &#39;MATH102&#39;, &#39;MATH109&#39;]&#45;&gt;PHYS111 -->
<g id="edge38" class="edge">
<title>1 of [&#39;MATH100&#39;, &#39;MATH102&#39;, &#39;MATH109&#39;]&#45;&gt;PHYS111</title>
<path fill="none" stroke="black" d="M231.73,-67.74C240.94,-70.82 255.23,-75.17 268,-77.32 301.73,-83.01 340.71,-84.83 368.45,-85.34"/>
<polygon fill="black" stroke="black" points="368.47,-87.09 373.5,-85.42 368.52,-83.59 368.47,-87.09"/>
</g>
<!-- 1 of [&#39;MATH110&#39;, &#39;MATH211&#39;]&#45;&gt;MATH342 -->
<g id="edge17" class="edge">
<title>1 of [&#39;MATH110&#39;, &#39;MATH211&#39;]&#45;&gt;MATH342</title>
<path fill="none" stroke="black" d="M416.14,-238.5C429.11,-231.73 453.64,-219.11 475,-209.32 475.95,-208.89 476.91,-208.46 477.88,-208.02"/>
<polygon fill="black" stroke="black" points="478.94,-209.46 482.82,-205.85 477.53,-206.26 478.94,-209.46"/>
</g>
<!-- 1 of [&#39;MATH110&#39;, &#39;MATH211&#39;]&#45;&gt;MATH248 -->
<g id="edge24" class="edge">
<title>1 of [&#39;MATH110&#39;, &#39;MATH211&#39;]&#45;&gt;MATH248</title>
<path fill="none" stroke="black" d="M414.94,-250.15C427.21,-260.46 451.79,-280.19 475,-293.32 475.65,-293.69 476.31,-294.06 476.99,-294.42"/>
<polygon fill="black" stroke="black" points="476.28,-296.02 481.53,-296.72 477.86,-292.9 476.28,-296.02"/>
</g>
<!-- 1 of [&#39;MATH110&#39;, &#39;MATH211&#39;]&#45;&gt;MATH346 -->
<g id="edge32" class="edge">
<title>1 of [&#39;MATH110&#39;, &#39;MATH211&#39;]&#45;&gt;MATH346</title>
<path fill="none" stroke="black" d="M417.1,-241.33C429.3,-238.93 450.52,-234.75 469.45,-231.02"/>
<polygon fill="black" stroke="black" points="470.15,-232.67 474.72,-229.98 469.47,-229.23 470.15,-232.67"/>
</g>
<!-- 1 of [&#39;MATH110&#39;, &#39;MATH211&#39;]&#45;&gt;PHYS248 -->
<g id="edge34" class="edge">
<title>1 of [&#39;MATH110&#39;, &#39;MATH211&#39;]&#45;&gt;PHYS248</title>
<path fill="none" stroke="black" d="M412.71,-252.22C423.27,-268.06 447.32,-301.36 475,-321.32 475.31,-321.55 475.62,-321.76 475.93,-321.98"/>
<polygon fill="black" stroke="black" points="475.03,-323.48 480.2,-324.64 476.88,-320.51 475.03,-323.48"/>
</g>
<!-- 1 of [&#39;MATH200&#39;, &#39;MATH201&#39;, &#39;MATH204&#39;]&#45;&gt;MATH342 -->
<g id="edge20" class="edge">
<title>1 of [&#39;MATH200&#39;, &#39;MATH201&#39;, &#39;MATH204&#39;]&#45;&gt;MATH342</title>
<path fill="none" stroke="black" d="M417.1,-186.32C429.3,-187.52 450.52,-189.61 469.45,-191.48"/>
<polygon fill="black" stroke="black" points="469.57,-193.25 474.72,-192 469.91,-189.76 469.57,-193.25"/>
</g>
<!-- 1 of [&#39;MATH200&#39;, &#39;MATH201&#39;, &#39;MATH204&#39;]&#45;&gt;MATH346 -->
<g id="edge33" class="edge">
<title>1 of [&#39;MATH200&#39;, &#39;MATH201&#39;, &#39;MATH204&#39;]&#45;&gt;MATH346</title>
<path fill="none" stroke="black" d="M416.73,-188.97C430.15,-193.99 454.98,-203.29 475.43,-210.94"/>
<polygon fill="black" stroke="black" points="474.96,-212.64 480.26,-212.75 476.19,-209.36 474.96,-212.64"/>
</g>
<!-- 1 of [&#39;CSC110&#39;, &#39;CSC111&#39;] -->
<g id="node34" class="node">
<title>1 of [&#39;CSC110&#39;, &#39;CSC111&#39;]</title>
<ellipse fill="#dfe6e9" stroke="#030a10" cx="406" cy="-310.32" rx="11" ry="11"/>
<text text-anchor="middle" x="406" y="-307.22" font-family="Times,serif" font-size="12.00">1</text>
</g>
<!-- 1 of [&#39;CSC110&#39;, &#39;CSC111&#39;]&#45;&gt;MATH248 -->
<g id="edge26" class="edge">
<title>1 of [&#39;CSC110&#39;, &#39;CSC111&#39;]&#45;&gt;MATH248</title>
<path fill="none" stroke="black" d="M417.1,-310.03C429.3,-309.67 450.52,-309.04 469.45,-308.48"/>
<polygon fill="black" stroke="black" points="469.77,-310.22 474.72,-308.32 469.67,-306.72 469.77,-310.22"/>
</g>
<!-- 1 of [&#39;CSC110&#39;, &#39;CSC111&#39;]&#45;&gt;PHYS248 -->
<g id="edge36" class="edge">
<title>1 of [&#39;CSC110&#39;, &#39;CSC111&#39;]&#45;&gt;PHYS248</title>
<path fill="none" stroke="black" d="M417.1,-312.81C429.57,-315.88 451.48,-321.28 470.72,-326.02"/>
<polygon fill="black" stroke="black" points="470.8,-327.84 476.07,-327.34 471.63,-324.44 470.8,-327.84"/>
</g>
<!-- CSC110 -->
<g id="node35" class="node">
<title>CSC110</title>
<path fill="#f5edc9" stroke="#030a10" d="M324.5,-295.82C324.5,-295.82 280.5,-295.82 280.5,-295.82 277,-295.82 273.5,-292.32 273.5,-288.82 273.5,-288.82 273.5,-281.82 273.5,-281.82 273.5,-278.32 277,-274.82 280.5,-274.82 280.5,-274.82 324.5,-274.82 324.5,-274.82 328,-274.82 331.5,-278.32 331.5,-281.82 331.5,-281.82 331.5,-288.82 331.5,-288.82 331.5,-292.32 328,-295.82 324.5,-295.82"/>
<text text-anchor="middle" x="302.5" y="-282.22" font-family="Times,serif" font-size="12.00">CSC110</text>
</g>
<!-- CSC110&#45;&gt;1 of [&#39;CSC110&#39;, &#39;CSC111&#39;] -->
<g id="edge27" class="edge">
<title>CSC110&#45;&gt;1 of [&#39;CSC110&#39;, &#39;CSC111&#39;]</title>
<path fill="none" stroke="black" d="M331.5,-292.22C350.32,-296.86 374.39,-302.79 389.76,-306.57"/>
<polygon fill="black" stroke="black" points="389.73,-308.36 395,-307.86 390.56,-304.97 389.73,-308.36"/>
</g>
<!-- CSC111 -->
<g id="node36" class="node">
<title>CSC111</title>
<path fill="#f5edc9" stroke="#030a10" d="M324,-323.82C324,-323.82 281,-323.82 281,-323.82 277.5,-323.82 274,-320.32 274,-316.82 274,-316.82 274,-309.82 274,-309.82 274,-306.32 277.5,-302.82 281,-302.82 281,-302.82 324,-302.82 324,-302.82 327.5,-302.82 331,-306.32 331,-309.82 331,-309.82 331,-316.82 331,-316.82 331,-320.32 327.5,-323.82 324,-323.82"/>
<text text-anchor="middle" x="302.5" y="-310.22" font-family="Times,serif" font-size="12.00">CSC111</text>
</g>
<!-- CSC111&#45;&gt;1 of [&#39;CSC110&#39;, &#39;CSC111&#39;] -->
<g id="edge28" class="edge">
<title>CSC111&#45;&gt;1 of [&#39;CSC110&#39;, &#39;CSC111&#39;]</title>
<path fill="none" stroke="black" d="M331.24,-312.5C350.05,-311.95 374.23,-311.23 389.67,-310.78"/>
<polygon fill="black" stroke="black" points="390,-312.52 394.94,-310.62 389.89,-309.02 390,-312.52"/>
</g>
<!-- 1 of [&#39;PHYS110&#39;, &#39;PHYS120&#39;]&#45;&gt;PHYS216 -->
<g id="edge39" class="edge">
<title>1 of [&#39;PHYS110&#39;, &#39;PHYS120&#39;]&#45;&gt;PHYS216</title>
<path fill="none" stroke="black" d="M416.35,-60.44C422.79,-63.34 431.5,-67.39 439,-71.32 455.4,-79.93 457.39,-86.59 475,-92.32 507.64,-102.96 546.75,-106.07 574.82,-106.75"/>
<polygon fill="black" stroke="black" points="574.89,-108.5 579.93,-106.85 574.96,-105 574.89,-108.5"/>
</g>
<!-- 1 of [&#39;PHYS110&#39;, &#39;PHYS120&#39;]&#45;&gt;PHYS321A -->
<g id="edge62" class="edge">
<title>1 of [&#39;PHYS110&#39;, &#39;PHYS120&#39;]&#45;&gt;PHYS321A</title>
<path fill="none" stroke="black" d="M417.07,-55.24C450.96,-51.99 563.37,-44.63 646,-79.32 668.64,-88.83 690.5,-107.06 704.2,-119.92"/>
<polygon fill="black" stroke="black" points="703.01,-121.21 707.84,-123.39 705.43,-118.68 703.01,-121.21"/>
</g>
<!-- 1 of [&#39;PHYS111&#39;, &#39;PHYS130&#39;]&#45;&gt;PHYS216 -->
<g id="edge42" class="edge">
<title>1 of [&#39;PHYS111&#39;, &#39;PHYS130&#39;]&#45;&gt;PHYS216</title>
<path fill="none" stroke="black" d="M520.23,-81.01C532.77,-84.47 555.27,-90.67 574.85,-96.08"/>
<polygon fill="black" stroke="black" points="574.48,-97.79 579.76,-97.43 575.41,-94.41 574.48,-97.79"/>
</g>
<!-- 1 of [&#39;PHYS111&#39;, &#39;PHYS130&#39;]&#45;&gt;PHYS321A -->
<g id="edge63" class="edge">
<title>1 of [&#39;PHYS111&#39;, &#39;PHYS130&#39;]&#45;&gt;PHYS321A</title>
<path fill="none" stroke="black" d="M520.66,-77.94C543.62,-77.39 601.01,-77.71 646,-92.32 665.81,-98.76 686.14,-111.13 700.21,-120.79"/>
<polygon fill="black" stroke="black" points="699.27,-122.27 704.37,-123.69 701.27,-119.4 699.27,-122.27"/>
</g>
<!-- 1 of [&#39;MATH200&#39;, &#39;MATH205&#39;]&#45;&gt;MATH204 -->
<g id="edge46" class="edge">
<title>1 of [&#39;MATH200&#39;, &#39;MATH205&#39;]&#45;&gt;MATH204</title>
<path fill="none" stroke="black" d="M232.07,-154.55C239.9,-153.17 251.29,-151.17 262.59,-149.18"/>
<polygon fill="black" stroke="black" points="263.14,-150.86 267.76,-148.27 262.54,-147.41 263.14,-150.86"/>
</g>
<!-- MATH205 -->
<g id="node40" class="node">
<title>MATH205</title>
<path fill="#f5edc9" stroke="#030a10" d="M167,-166.82C167,-166.82 112,-166.82 112,-166.82 108.5,-166.82 105,-163.32 105,-159.82 105,-159.82 105,-152.82 105,-152.82 105,-149.32 108.5,-145.82 112,-145.82 112,-145.82 167,-145.82 167,-145.82 170.5,-145.82 174,-149.32 174,-152.82 174,-152.82 174,-159.82 174,-159.82 174,-163.32 170.5,-166.82 167,-166.82"/>
<text text-anchor="middle" x="139.5" y="-153.22" font-family="Times,serif" font-size="12.00">MATH205</text>
</g>
<!-- MATH205&#45;&gt;1 of [&#39;MATH200&#39;, &#39;MATH205&#39;] -->
<g id="edge48" class="edge">
<title>MATH205&#45;&gt;1 of [&#39;MATH200&#39;, &#39;MATH205&#39;]</title>
<path fill="none" stroke="black" d="M174.22,-156.32C184.87,-156.32 196.12,-156.32 204.8,-156.32"/>
<polygon fill="black" stroke="black" points="204.84,-158.07 209.84,-156.32 204.84,-154.57 204.84,-158.07"/>
</g>
<!-- 1 of [&#39;PHYS248&#39;, &#39;CSC226&#39;, &#39;CSC349A&#39;, &#39;MATH248&#39;]&#45;&gt;PHYS326 -->
<g id="edge51" class="edge">
<title>1 of [&#39;PHYS248&#39;, &#39;CSC226&#39;, &#39;CSC349A&#39;, &#39;MATH248&#39;]&#45;&gt;PHYS326</title>
<path fill="none" stroke="black" d="M621.52,-258.06C638.68,-241.47 681.02,-200.55 703.66,-178.67"/>
<polygon fill="black" stroke="black" points="705.01,-179.8 707.38,-175.07 702.57,-177.28 705.01,-179.8"/>
</g>
<!-- 1 of [&#39;PHYS248&#39;, &#39;CSC226&#39;, &#39;CSC349A&#39;, &#39;MATH248&#39;]&#45;&gt;PHYS321A -->
<g id="edge65" class="edge">
<title>1 of [&#39;PHYS248&#39;, &#39;CSC226&#39;, &#39;CSC349A&#39;, &#39;MATH248&#39;]&#45;&gt;PHYS321A</title>
<path fill="none" stroke="black" d="M617.6,-254.98C625.75,-232.92 647.62,-180.78 682,-150.32 683,-149.44 684.05,-148.6 685.15,-147.8"/>
<polygon fill="black" stroke="black" points="686.33,-149.12 689.55,-144.92 684.41,-146.19 686.33,-149.12"/>
</g>
<!-- 1 of [&#39;PHYS301&#39;, &#39;MATH342&#39;, &#39;MATH346&#39;]&#45;&gt;PHYS326 -->
<g id="edge56" class="edge">
<title>1 of [&#39;PHYS301&#39;, &#39;MATH342&#39;, &#39;MATH346&#39;]&#45;&gt;PHYS326</title>
<path fill="none" stroke="black" d="M624.02,-167.04C637.11,-166.66 660.77,-165.98 681.14,-165.4"/>
<polygon fill="black" stroke="black" points="681.29,-167.14 686.23,-165.25 681.19,-163.65 681.29,-167.14"/>
</g>
<!-- 1 of [&#39;PHYS301&#39;, &#39;MATH342&#39;, &#39;MATH346&#39;]&#45;&gt;PHYS321A -->
<g id="edge66" class="edge">
<title>1 of [&#39;PHYS301&#39;, &#39;MATH342&#39;, &#39;MATH346&#39;]&#45;&gt;PHYS321A</title>
<path fill="none" stroke="black" d="M623.64,-164.28C636.46,-160.23 659.86,-152.84 680.21,-146.42"/>
<polygon fill="black" stroke="black" points="680.8,-148.07 685.04,-144.89 679.75,-144.73 680.8,-148.07"/>
</g>
</g>
</svg>
