<?xml version="1.0" encoding="UTF-8" standalone="no"?>
<!DOCTYPE svg PUBLIC "-//W3C//DTD SVG 1.1//EN"
 "http://www.w3.org/Graphics/SVG/1.1/DTD/svg11.dtd">
<!-- Generated by graphviz version 2.43.0 (0)
 -->
<!-- Title: unix Pages: 1 -->
<svg width="856pt" height="398pt"
 viewBox="0.00 0.00 856.00 398.00" xmlns="http://www.w3.org/2000/svg" xmlns:xlink="http://www.w3.org/1999/xlink">
<g id="graph0" class="graph" transform="scale(1 1) rotate(0) translate(4 394)">
<title>unix</title>
<polygon fill="white" stroke="transparent" points="-4,4 -4,-394 852,-394 852,4 -4,4"/>
<text text-anchor="middle" x="424" y="-374.8" font-family="Times,serif" font-size="14.00">EOS433: Physics of Climate</text>
<!-- EOS340 -->
<g id="node1" class="node">
<title>EOS340</title>
<path fill="#e7a79b" stroke="#030a10" d="M747,-292C747,-292 703,-292 703,-292 699.5,-292 696,-288.5 696,-285 696,-285 696,-278 696,-278 696,-274.5 699.5,-271 703,-271 703,-271 747,-271 747,-271 750.5,-271 754,-274.5 754,-278 754,-278 754,-285 754,-285 754,-288.5 750.5,-292 747,-292"/>
<text text-anchor="middle" x="725" y="-278.4" font-family="Times,serif" font-size="12.00">EOS340</text>
</g>
<!-- EOS433 -->
<g id="node3" class="node">
<title>EOS433</title>
<path fill="#9fa7be" stroke="#030a10" d="M841,-292C841,-292 797,-292 797,-292 793.5,-292 790,-288.5 790,-285 790,-285 790,-278 790,-278 790,-274.5 793.5,-271 797,-271 797,-271 841,-271 841,-271 844.5,-271 848,-274.5 848,-278 848,-278 848,-285 848,-285 848,-288.5 844.5,-292 841,-292"/>
<text text-anchor="middle" x="819" y="-278.4" font-family="Times,serif" font-size="12.00">EOS433</text>
</g>
<!-- EOS340&#45;&gt;EOS433 -->
<g id="edge15" class="edge">
<title>EOS340&#45;&gt;EOS433</title>
<path fill="none" stroke="black" d="M754.1,-281.5C763.73,-281.5 774.6,-281.5 784.61,-281.5"/>
<polygon fill="black" stroke="black" points="784.75,-283.25 789.75,-281.5 784.75,-279.75 784.75,-283.25"/>
</g>
<!-- PHYS120 -->
<g id="node2" class="node">
<title>PHYS120</title>
<path fill="#f5edc9" stroke="#030a10" d="M226.5,-339C226.5,-339 174.5,-339 174.5,-339 171,-339 167.5,-335.5 167.5,-332 167.5,-332 167.5,-325 167.5,-325 167.5,-321.5 171,-318 174.5,-318 174.5,-318 226.5,-318 226.5,-318 230,-318 233.5,-321.5 233.5,-325 233.5,-325 233.5,-332 233.5,-332 233.5,-335.5 230,-339 226.5,-339"/>
<text text-anchor="middle" x="200.5" y="-325.4" font-family="Times,serif" font-size="12.00">PHYS120</text>
</g>
<!-- PHYS130 -->
<g id="node8" class="node">
<title>PHYS130</title>
<path fill="#f5edc9" stroke="#030a10" d="M333,-340C333,-340 281,-340 281,-340 277.5,-340 274,-336.5 274,-333 274,-333 274,-326 274,-326 274,-322.5 277.5,-319 281,-319 281,-319 333,-319 333,-319 336.5,-319 340,-322.5 340,-326 340,-326 340,-333 340,-333 340,-336.5 336.5,-340 333,-340"/>
<text text-anchor="middle" x="307" y="-326.4" font-family="Times,serif" font-size="12.00">PHYS130</text>
</g>
<!-- PHYS120&#45;&gt;PHYS130 -->
<g id="edge36" class="edge">
<title>PHYS120&#45;&gt;PHYS130</title>
<path fill="none" stroke="black" d="M233.71,-328.81C244.73,-328.91 257.16,-329.03 268.56,-329.14"/>
<polygon fill="black" stroke="black" points="268.7,-330.89 273.72,-329.19 268.74,-327.39 268.7,-330.89"/>
</g>
<!-- 1 of [&#39;PHYS102A&#39;, &#39;PHYS110&#39;, &#39;PHYS120&#39;] -->
<g id="node12" class="node">
<title>1 of [&#39;PHYS102A&#39;, &#39;PHYS110&#39;, &#39;PHYS120&#39;]</title>
<ellipse fill="#dfe6e9" stroke="#030a10" cx="307" cy="-300.5" rx="11" ry="11"/>
<text text-anchor="middle" x="307" y="-297.4" font-family="Times,serif" font-size="12.00">1</text>
</g>
<!-- PHYS120&#45;&gt;1 of [&#39;PHYS102A&#39;, &#39;PHYS110&#39;, &#39;PHYS120&#39;] -->
<g id="edge7" class="edge">
<title>PHYS120&#45;&gt;1 of [&#39;PHYS102A&#39;, &#39;PHYS110&#39;, &#39;PHYS120&#39;]</title>
<path fill="none" stroke="black" d="M233.71,-319.87C252.72,-314.78 275.91,-308.56 290.81,-304.57"/>
<polygon fill="black" stroke="black" points="291.52,-306.19 295.9,-303.21 290.62,-302.81 291.52,-306.19"/>
</g>
<!-- EOS325 -->
<g id="node4" class="node">
<title>EOS325</title>
<path fill="#f5edc9" stroke="#030a10" d="M595,-175C595,-175 551,-175 551,-175 547.5,-175 544,-171.5 544,-168 544,-168 544,-161 544,-161 544,-157.5 547.5,-154 551,-154 551,-154 595,-154 595,-154 598.5,-154 602,-157.5 602,-161 602,-161 602,-168 602,-168 602,-171.5 598.5,-175 595,-175"/>
<text text-anchor="middle" x="573" y="-161.4" font-family="Times,serif" font-size="12.00">EOS325</text>
</g>
<!-- 1 of [&#39;EOS325&#39;, &#39;MATH204&#39;] -->
<g id="node11" class="node">
<title>1 of [&#39;EOS325&#39;, &#39;MATH204&#39;]</title>
<ellipse fill="#dfe6e9" stroke="#030a10" cx="649" cy="-164.5" rx="11" ry="11"/>
<text text-anchor="middle" x="649" y="-161.4" font-family="Times,serif" font-size="12.00">1</text>
</g>
<!-- EOS325&#45;&gt;1 of [&#39;EOS325&#39;, &#39;MATH204&#39;] -->
<g id="edge2" class="edge">
<title>EOS325&#45;&gt;1 of [&#39;EOS325&#39;, &#39;MATH204&#39;]</title>
<path fill="none" stroke="black" d="M602.4,-164.5C612.66,-164.5 623.85,-164.5 632.58,-164.5"/>
<polygon fill="black" stroke="black" points="632.67,-166.25 637.67,-164.5 632.67,-162.75 632.67,-166.25"/>
</g>
<!-- PHYS110 -->
<g id="node5" class="node">
<title>PHYS110</title>
<path fill="#f5edc9" stroke="#030a10" d="M226.5,-283C226.5,-283 174.5,-283 174.5,-283 171,-283 167.5,-279.5 167.5,-276 167.5,-276 167.5,-269 167.5,-269 167.5,-265.5 171,-262 174.5,-262 174.5,-262 226.5,-262 226.5,-262 230,-262 233.5,-265.5 233.5,-269 233.5,-269 233.5,-276 233.5,-276 233.5,-279.5 230,-283 226.5,-283"/>
<text text-anchor="middle" x="200.5" y="-269.4" font-family="Times,serif" font-size="12.00">PHYS110</text>
</g>
<!-- PHYS111 -->
<g id="node9" class="node">
<title>PHYS111</title>
<path fill="#f5edc9" stroke="#030a10" d="M332.5,-281C332.5,-281 281.5,-281 281.5,-281 278,-281 274.5,-277.5 274.5,-274 274.5,-274 274.5,-267 274.5,-267 274.5,-263.5 278,-260 281.5,-260 281.5,-260 332.5,-260 332.5,-260 336,-260 339.5,-263.5 339.5,-267 339.5,-267 339.5,-274 339.5,-274 339.5,-277.5 336,-281 332.5,-281"/>
<text text-anchor="middle" x="307" y="-267.4" font-family="Times,serif" font-size="12.00">PHYS111</text>
</g>
<!-- PHYS110&#45;&gt;PHYS111 -->
<g id="edge38" class="edge">
<title>PHYS110&#45;&gt;PHYS111</title>
<path fill="none" stroke="black" d="M233.71,-271.88C244.94,-271.67 257.63,-271.43 269.21,-271.2"/>
<polygon fill="black" stroke="black" points="269.47,-272.95 274.44,-271.1 269.41,-269.45 269.47,-272.95"/>
</g>
<!-- PHYS110&#45;&gt;1 of [&#39;PHYS102A&#39;, &#39;PHYS110&#39;, &#39;PHYS120&#39;] -->
<g id="edge6" class="edge">
<title>PHYS110&#45;&gt;1 of [&#39;PHYS102A&#39;, &#39;PHYS110&#39;, &#39;PHYS120&#39;]</title>
<path fill="none" stroke="black" d="M233.71,-281.13C252.72,-286.22 275.91,-292.44 290.81,-296.43"/>
<polygon fill="black" stroke="black" points="290.62,-298.19 295.9,-297.79 291.52,-294.81 290.62,-298.19"/>
</g>
<!-- MATH204 -->
<g id="node6" class="node">
<title>MATH204</title>
<path fill="#f5edc9" stroke="#030a10" d="M440.5,-35C440.5,-35 385.5,-35 385.5,-35 382,-35 378.5,-31.5 378.5,-28 378.5,-28 378.5,-21 378.5,-21 378.5,-17.5 382,-14 385.5,-14 385.5,-14 440.5,-14 440.5,-14 444,-14 447.5,-17.5 447.5,-21 447.5,-21 447.5,-28 447.5,-28 447.5,-31.5 444,-35 440.5,-35"/>
<text text-anchor="middle" x="413" y="-21.4" font-family="Times,serif" font-size="12.00">MATH204</text>
</g>
<!-- MATH204&#45;&gt;1 of [&#39;EOS325&#39;, &#39;MATH204&#39;] -->
<g id="edge3" class="edge">
<title>MATH204&#45;&gt;1 of [&#39;EOS325&#39;, &#39;MATH204&#39;]</title>
<path fill="none" stroke="black" d="M447.55,-24.35C466.13,-25.43 489.19,-28.71 508,-37.5 566.46,-64.81 617.71,-125.09 638.33,-151.58"/>
<polygon fill="black" stroke="black" points="637.17,-152.93 641.6,-155.83 639.94,-150.8 637.17,-152.93"/>
</g>
<!-- 1 of [&#39;MATH202&#39;, &#39;MATH204&#39;] -->
<g id="node17" class="node">
<title>1 of [&#39;MATH202&#39;, &#39;MATH204&#39;]</title>
<ellipse fill="#dfe6e9" stroke="#030a10" cx="497" cy="-52.5" rx="11" ry="11"/>
<text text-anchor="middle" x="497" y="-49.4" font-family="Times,serif" font-size="12.00">1</text>
</g>
<!-- MATH204&#45;&gt;1 of [&#39;MATH202&#39;, &#39;MATH204&#39;] -->
<g id="edge18" class="edge">
<title>MATH204&#45;&gt;1 of [&#39;MATH202&#39;, &#39;MATH204&#39;]</title>
<path fill="none" stroke="black" d="M445,-35.09C457.51,-39.36 471.35,-44.08 481.45,-47.53"/>
<polygon fill="black" stroke="black" points="481.07,-49.25 486.37,-49.21 482.2,-45.94 481.07,-49.25"/>
</g>
<!-- PHYS102B -->
<g id="node7" class="node">
<title>PHYS102B</title>
<path fill="#f5edc9" stroke="#030a10" d="M443,-303C443,-303 383,-303 383,-303 379.5,-303 376,-299.5 376,-296 376,-296 376,-289 376,-289 376,-285.5 379.5,-282 383,-282 383,-282 443,-282 443,-282 446.5,-282 450,-285.5 450,-289 450,-289 450,-296 450,-296 450,-299.5 446.5,-303 443,-303"/>
<text text-anchor="middle" x="413" y="-289.4" font-family="Times,serif" font-size="12.00">PHYS102B</text>
</g>
<!-- 1 of [&#39;PHYS102B&#39;, &#39;PHYS111&#39;, &#39;PHYS130&#39;] -->
<g id="node13" class="node">
<title>1 of [&#39;PHYS102B&#39;, &#39;PHYS111&#39;, &#39;PHYS130&#39;]</title>
<ellipse fill="#dfe6e9" stroke="#030a10" cx="497" cy="-281.5" rx="11" ry="11"/>
<text text-anchor="middle" x="497" y="-278.4" font-family="Times,serif" font-size="12.00">1</text>
</g>
<!-- PHYS102B&#45;&gt;1 of [&#39;PHYS102B&#39;, &#39;PHYS111&#39;, &#39;PHYS130&#39;] -->
<g id="edge9" class="edge">
<title>PHYS102B&#45;&gt;1 of [&#39;PHYS102B&#39;, &#39;PHYS111&#39;, &#39;PHYS130&#39;]</title>
<path fill="none" stroke="black" d="M450.21,-287.64C461.01,-286.19 472.26,-284.69 480.9,-283.53"/>
<polygon fill="black" stroke="black" points="481.2,-285.25 485.92,-282.85 480.74,-281.78 481.2,-285.25"/>
</g>
<!-- PHYS130&#45;&gt;1 of [&#39;PHYS102B&#39;, &#39;PHYS111&#39;, &#39;PHYS130&#39;] -->
<g id="edge11" class="edge">
<title>PHYS130&#45;&gt;1 of [&#39;PHYS102B&#39;, &#39;PHYS111&#39;, &#39;PHYS130&#39;]</title>
<path fill="none" stroke="black" d="M340.05,-327.4C369.33,-324.77 413.49,-318.97 450,-306.5 461.76,-302.48 474.07,-295.63 483,-290.11"/>
<polygon fill="black" stroke="black" points="484.29,-291.36 487.58,-287.21 482.42,-288.41 484.29,-291.36"/>
</g>
<!-- PHYS111&#45;&gt;1 of [&#39;PHYS102B&#39;, &#39;PHYS111&#39;, &#39;PHYS130&#39;] -->
<g id="edge10" class="edge">
<title>PHYS111&#45;&gt;1 of [&#39;PHYS102B&#39;, &#39;PHYS111&#39;, &#39;PHYS130&#39;]</title>
<path fill="none" stroke="black" d="M339.59,-272.2C368.37,-273.77 412.04,-276.19 450,-278.5 460.19,-279.12 471.64,-279.87 480.57,-280.46"/>
<polygon fill="black" stroke="black" points="480.66,-282.22 485.77,-280.81 480.9,-278.73 480.66,-282.22"/>
</g>
<!-- PHYS102A -->
<g id="node10" class="node">
<title>PHYS102A</title>
<path fill="#f5edc9" stroke="#030a10" d="M231,-311C231,-311 170,-311 170,-311 166.5,-311 163,-307.5 163,-304 163,-304 163,-297 163,-297 163,-293.5 166.5,-290 170,-290 170,-290 231,-290 231,-290 234.5,-290 238,-293.5 238,-297 238,-297 238,-304 238,-304 238,-307.5 234.5,-311 231,-311"/>
<text text-anchor="middle" x="200.5" y="-297.4" font-family="Times,serif" font-size="12.00">PHYS102A</text>
</g>
<!-- PHYS102A&#45;&gt;1 of [&#39;PHYS102A&#39;, &#39;PHYS110&#39;, &#39;PHYS120&#39;] -->
<g id="edge5" class="edge">
<title>PHYS102A&#45;&gt;1 of [&#39;PHYS102A&#39;, &#39;PHYS110&#39;, &#39;PHYS120&#39;]</title>
<path fill="none" stroke="black" d="M238.05,-300.5C256.13,-300.5 276.98,-300.5 290.76,-300.5"/>
<polygon fill="black" stroke="black" points="290.86,-302.25 295.86,-300.5 290.86,-298.75 290.86,-302.25"/>
</g>
<!-- 1 of [&#39;EOS325&#39;, &#39;MATH204&#39;]&#45;&gt;EOS340 -->
<g id="edge1" class="edge">
<title>1 of [&#39;EOS325&#39;, &#39;MATH204&#39;]&#45;&gt;EOS340</title>
<path fill="none" stroke="black" d="M655.81,-173.68C668.51,-193.76 698.87,-241.76 714.44,-266.38"/>
<polygon fill="black" stroke="black" points="713.01,-267.4 717.16,-270.69 715.97,-265.53 713.01,-267.4"/>
</g>
<!-- 1 of [&#39;PHYS102A&#39;, &#39;PHYS110&#39;, &#39;PHYS120&#39;]&#45;&gt;EOS340 -->
<g id="edge4" class="edge">
<title>1 of [&#39;PHYS102A&#39;, &#39;PHYS110&#39;, &#39;PHYS120&#39;]&#45;&gt;EOS340</title>
<path fill="none" stroke="black" d="M318.17,-301.79C346.36,-305.26 427.92,-314.5 496,-314.5 496,-314.5 496,-314.5 574,-314.5 614.96,-314.5 660.77,-302.62 690.87,-293.11"/>
<polygon fill="black" stroke="black" points="691.7,-294.68 695.93,-291.49 690.63,-291.35 691.7,-294.68"/>
</g>
<!-- 1 of [&#39;PHYS102A&#39;, &#39;PHYS110&#39;, &#39;PHYS120&#39;]&#45;&gt;PHYS102B -->
<g id="edge35" class="edge">
<title>1 of [&#39;PHYS102A&#39;, &#39;PHYS110&#39;, &#39;PHYS120&#39;]&#45;&gt;PHYS102B</title>
<path fill="none" stroke="black" d="M318.35,-299.7C330.56,-298.76 351.61,-297.15 370.67,-295.68"/>
<polygon fill="black" stroke="black" points="371.13,-297.4 375.98,-295.27 370.86,-293.91 371.13,-297.4"/>
</g>
<!-- 1 of [&#39;PHYS102B&#39;, &#39;PHYS111&#39;, &#39;PHYS130&#39;]&#45;&gt;EOS340 -->
<g id="edge8" class="edge">
<title>1 of [&#39;PHYS102B&#39;, &#39;PHYS111&#39;, &#39;PHYS130&#39;]&#45;&gt;EOS340</title>
<path fill="none" stroke="black" d="M508,-281.5C539.55,-281.5 637.97,-281.5 690.38,-281.5"/>
<polygon fill="black" stroke="black" points="690.61,-283.25 695.61,-281.5 690.61,-279.75 690.61,-283.25"/>
</g>
<!-- 1 of [&#39;PHYS102B&#39;, &#39;PHYS111&#39;, &#39;PHYS130&#39;]&#45;&gt;EOS325 -->
<g id="edge27" class="edge">
<title>1 of [&#39;PHYS102B&#39;, &#39;PHYS111&#39;, &#39;PHYS130&#39;]&#45;&gt;EOS325</title>
<path fill="none" stroke="black" d="M503.81,-272.32C516.51,-252.24 546.87,-204.24 562.44,-179.62"/>
<polygon fill="black" stroke="black" points="563.97,-180.47 565.16,-175.31 561.01,-178.6 563.97,-180.47"/>
</g>
<!-- 1 of [&#39;MATH100&#39;, &#39;MATH109&#39;] -->
<g id="node14" class="node">
<title>1 of [&#39;MATH100&#39;, &#39;MATH109&#39;]</title>
<ellipse fill="#dfe6e9" stroke="#030a10" cx="116" cy="-314.5" rx="11" ry="11"/>
<text text-anchor="middle" x="116" y="-311.4" font-family="Times,serif" font-size="12.00">1</text>
</g>
<!-- 1 of [&#39;MATH100&#39;, &#39;MATH109&#39;]&#45;&gt;PHYS120 -->
<g id="edge12" class="edge">
<title>1 of [&#39;MATH100&#39;, &#39;MATH109&#39;]&#45;&gt;PHYS120</title>
<path fill="none" stroke="black" d="M127.12,-316.22C135.93,-317.71 149.27,-319.98 162.11,-322.16"/>
<polygon fill="black" stroke="black" points="161.97,-323.91 167.19,-323.02 162.55,-320.46 161.97,-323.91"/>
</g>
<!-- MATH100 -->
<g id="node15" class="node">
<title>MATH100</title>
<path fill="#f5edc9" stroke="#030a10" d="M62,-325C62,-325 7,-325 7,-325 3.5,-325 0,-321.5 0,-318 0,-318 0,-311 0,-311 0,-307.5 3.5,-304 7,-304 7,-304 62,-304 62,-304 65.5,-304 69,-307.5 69,-311 69,-311 69,-318 69,-318 69,-321.5 65.5,-325 62,-325"/>
<text text-anchor="middle" x="34.5" y="-311.4" font-family="Times,serif" font-size="12.00">MATH100</text>
</g>
<!-- MATH100&#45;&gt;1 of [&#39;MATH100&#39;, &#39;MATH109&#39;] -->
<g id="edge13" class="edge">
<title>MATH100&#45;&gt;1 of [&#39;MATH100&#39;, &#39;MATH109&#39;]</title>
<path fill="none" stroke="black" d="M69.22,-314.5C79.87,-314.5 91.12,-314.5 99.8,-314.5"/>
<polygon fill="black" stroke="black" points="99.84,-316.25 104.84,-314.5 99.84,-312.75 99.84,-316.25"/>
</g>
<!-- 1 of [&#39;MATH100&#39;, &#39;MATH102&#39;, &#39;MATH109&#39;] -->
<g id="node27" class="node">
<title>1 of [&#39;MATH100&#39;, &#39;MATH102&#39;, &#39;MATH109&#39;]</title>
<ellipse fill="#dfe6e9" stroke="#030a10" cx="116" cy="-272.5" rx="11" ry="11"/>
<text text-anchor="middle" x="116" y="-269.4" font-family="Times,serif" font-size="12.00">1</text>
</g>
<!-- MATH100&#45;&gt;1 of [&#39;MATH100&#39;, &#39;MATH102&#39;, &#39;MATH109&#39;] -->
<g id="edge29" class="edge">
<title>MATH100&#45;&gt;1 of [&#39;MATH100&#39;, &#39;MATH102&#39;, &#39;MATH109&#39;]</title>
<path fill="none" stroke="black" d="M62,-303.86C64.39,-302.77 66.75,-301.64 69,-300.5 80.39,-294.7 92.73,-287.11 101.76,-281.3"/>
<polygon fill="black" stroke="black" points="103.17,-282.46 106.41,-278.27 101.26,-279.53 103.17,-282.46"/>
</g>
<!-- MATH109 -->
<g id="node16" class="node">
<title>MATH109</title>
<path fill="#f5edc9" stroke="#030a10" d="M62,-297C62,-297 7,-297 7,-297 3.5,-297 0,-293.5 0,-290 0,-290 0,-283 0,-283 0,-279.5 3.5,-276 7,-276 7,-276 62,-276 62,-276 65.5,-276 69,-279.5 69,-283 69,-283 69,-290 69,-290 69,-293.5 65.5,-297 62,-297"/>
<text text-anchor="middle" x="34.5" y="-283.4" font-family="Times,serif" font-size="12.00">MATH109</text>
</g>
<!-- MATH109&#45;&gt;1 of [&#39;MATH100&#39;, &#39;MATH109&#39;] -->
<g id="edge14" class="edge">
<title>MATH109&#45;&gt;1 of [&#39;MATH100&#39;, &#39;MATH109&#39;]</title>
<path fill="none" stroke="black" d="M65.56,-297.09C77.54,-301.31 90.77,-305.97 100.53,-309.4"/>
<polygon fill="black" stroke="black" points="99.99,-311.07 105.29,-311.08 101.16,-307.77 99.99,-311.07"/>
</g>
<!-- MATH109&#45;&gt;1 of [&#39;MATH100&#39;, &#39;MATH102&#39;, &#39;MATH109&#39;] -->
<g id="edge31" class="edge">
<title>MATH109&#45;&gt;1 of [&#39;MATH100&#39;, &#39;MATH102&#39;, &#39;MATH109&#39;]</title>
<path fill="none" stroke="black" d="M69.22,-280.56C79.87,-278.69 91.12,-276.71 99.8,-275.18"/>
<polygon fill="black" stroke="black" points="100.22,-276.88 104.84,-274.29 99.61,-273.43 100.22,-276.88"/>
</g>
<!-- 1 of [&#39;MATH202&#39;, &#39;MATH204&#39;]&#45;&gt;EOS325 -->
<g id="edge16" class="edge">
<title>1 of [&#39;MATH202&#39;, &#39;MATH204&#39;]&#45;&gt;EOS325</title>
<path fill="none" stroke="black" d="M503.81,-61.29C516.39,-80.34 546.31,-125.62 562,-149.37"/>
<polygon fill="black" stroke="black" points="560.73,-150.61 564.94,-153.82 563.65,-148.68 560.73,-150.61"/>
</g>
<!-- MATH202 -->
<g id="node18" class="node">
<title>MATH202</title>
<path fill="#f5edc9" stroke="#030a10" d="M440.5,-63C440.5,-63 385.5,-63 385.5,-63 382,-63 378.5,-59.5 378.5,-56 378.5,-56 378.5,-49 378.5,-49 378.5,-45.5 382,-42 385.5,-42 385.5,-42 440.5,-42 440.5,-42 444,-42 447.5,-45.5 447.5,-49 447.5,-49 447.5,-56 447.5,-56 447.5,-59.5 444,-63 440.5,-63"/>
<text text-anchor="middle" x="413" y="-49.4" font-family="Times,serif" font-size="12.00">MATH202</text>
</g>
<!-- MATH202&#45;&gt;1 of [&#39;MATH202&#39;, &#39;MATH204&#39;] -->
<g id="edge17" class="edge">
<title>MATH202&#45;&gt;1 of [&#39;MATH202&#39;, &#39;MATH204&#39;]</title>
<path fill="none" stroke="black" d="M447.83,-52.5C459.33,-52.5 471.62,-52.5 480.9,-52.5"/>
<polygon fill="black" stroke="black" points="480.99,-54.25 485.99,-52.5 480.99,-50.75 480.99,-54.25"/>
</g>
<!-- 1 of [&#39;CSC110&#39;, &#39;CSC111&#39;, &#39;EOS210&#39;, &#39;EOS230&#39;, &#39;GEOG230&#39;, &#39;EOS261&#39;, &#39;EOS314&#39;] -->
<g id="node19" class="node">
<title>1 of [&#39;CSC110&#39;, &#39;CSC111&#39;, &#39;EOS210&#39;, &#39;EOS230&#39;, &#39;GEOG230&#39;, &#39;EOS261&#39;, &#39;EOS314&#39;]</title>
<ellipse fill="#dfe6e9" stroke="#030a10" cx="497" cy="-164.5" rx="11" ry="11"/>
<text text-anchor="middle" x="497" y="-161.4" font-family="Times,serif" font-size="12.00">1</text>
</g>
<!-- 1 of [&#39;CSC110&#39;, &#39;CSC111&#39;, &#39;EOS210&#39;, &#39;EOS230&#39;, &#39;GEOG230&#39;, &#39;EOS261&#39;, &#39;EOS314&#39;]&#45;&gt;EOS325 -->
<g id="edge19" class="edge">
<title>1 of [&#39;CSC110&#39;, &#39;CSC111&#39;, &#39;EOS210&#39;, &#39;EOS230&#39;, &#39;GEOG230&#39;, &#39;EOS261&#39;, &#39;EOS314&#39;]&#45;&gt;EOS325</title>
<path fill="none" stroke="black" d="M508.29,-164.5C516.28,-164.5 527.83,-164.5 538.9,-164.5"/>
<polygon fill="black" stroke="black" points="538.94,-166.25 543.94,-164.5 538.94,-162.75 538.94,-166.25"/>
</g>
<!-- CSC110 -->
<g id="node20" class="node">
<title>CSC110</title>
<path fill="#f5edc9" stroke="#030a10" d="M435,-259C435,-259 391,-259 391,-259 387.5,-259 384,-255.5 384,-252 384,-252 384,-245 384,-245 384,-241.5 387.5,-238 391,-238 391,-238 435,-238 435,-238 438.5,-238 442,-241.5 442,-245 442,-245 442,-252 442,-252 442,-255.5 438.5,-259 435,-259"/>
<text text-anchor="middle" x="413" y="-245.4" font-family="Times,serif" font-size="12.00">CSC110</text>
</g>
<!-- CSC110&#45;&gt;1 of [&#39;CSC110&#39;, &#39;CSC111&#39;, &#39;EOS210&#39;, &#39;EOS230&#39;, &#39;GEOG230&#39;, &#39;EOS261&#39;, &#39;EOS314&#39;] -->
<g id="edge20" class="edge">
<title>CSC110&#45;&gt;1 of [&#39;CSC110&#39;, &#39;CSC111&#39;, &#39;EOS210&#39;, &#39;EOS230&#39;, &#39;GEOG230&#39;, &#39;EOS261&#39;, &#39;EOS314&#39;]</title>
<path fill="none" stroke="black" d="M442.09,-239.61C444.9,-238.13 447.6,-236.44 450,-234.5 468.65,-219.42 482.36,-194.71 489.76,-179.04"/>
<polygon fill="black" stroke="black" points="491.35,-179.77 491.85,-174.49 488.17,-178.31 491.35,-179.77"/>
</g>
<!-- CSC111 -->
<g id="node21" class="node">
<title>CSC111</title>
<path fill="#f5edc9" stroke="#030a10" d="M434.5,-231C434.5,-231 391.5,-231 391.5,-231 388,-231 384.5,-227.5 384.5,-224 384.5,-224 384.5,-217 384.5,-217 384.5,-213.5 388,-210 391.5,-210 391.5,-210 434.5,-210 434.5,-210 438,-210 441.5,-213.5 441.5,-217 441.5,-217 441.5,-224 441.5,-224 441.5,-227.5 438,-231 434.5,-231"/>
<text text-anchor="middle" x="413" y="-217.4" font-family="Times,serif" font-size="12.00">CSC111</text>
</g>
<!-- CSC111&#45;&gt;1 of [&#39;CSC110&#39;, &#39;CSC111&#39;, &#39;EOS210&#39;, &#39;EOS230&#39;, &#39;GEOG230&#39;, &#39;EOS261&#39;, &#39;EOS314&#39;] -->
<g id="edge21" class="edge">
<title>CSC111&#45;&gt;1 of [&#39;CSC110&#39;, &#39;CSC111&#39;, &#39;EOS210&#39;, &#39;EOS230&#39;, &#39;GEOG230&#39;, &#39;EOS261&#39;, &#39;EOS314&#39;]</title>
<path fill="none" stroke="black" d="M441.64,-210.98C444.54,-209.62 447.38,-208.13 450,-206.5 463.51,-198.12 476.67,-185.51 485.43,-176.3"/>
<polygon fill="black" stroke="black" points="486.77,-177.43 488.9,-172.58 484.21,-175.04 486.77,-177.43"/>
</g>
<!-- EOS210 -->
<g id="node22" class="node">
<title>EOS210</title>
<path fill="#f5edc9" stroke="#030a10" d="M435,-203C435,-203 391,-203 391,-203 387.5,-203 384,-199.5 384,-196 384,-196 384,-189 384,-189 384,-185.5 387.5,-182 391,-182 391,-182 435,-182 435,-182 438.5,-182 442,-185.5 442,-189 442,-189 442,-196 442,-196 442,-199.5 438.5,-203 435,-203"/>
<text text-anchor="middle" x="413" y="-189.4" font-family="Times,serif" font-size="12.00">EOS210</text>
</g>
<!-- EOS210&#45;&gt;1 of [&#39;CSC110&#39;, &#39;CSC111&#39;, &#39;EOS210&#39;, &#39;EOS230&#39;, &#39;GEOG230&#39;, &#39;EOS261&#39;, &#39;EOS314&#39;] -->
<g id="edge22" class="edge">
<title>EOS210&#45;&gt;1 of [&#39;CSC110&#39;, &#39;CSC111&#39;, &#39;EOS210&#39;, &#39;EOS230&#39;, &#39;GEOG230&#39;, &#39;EOS261&#39;, &#39;EOS314&#39;]</title>
<path fill="none" stroke="black" d="M442.22,-182.86C455.44,-178.35 470.62,-173.16 481.48,-169.46"/>
<polygon fill="black" stroke="black" points="482.27,-171.04 486.44,-167.77 481.14,-167.73 482.27,-171.04"/>
</g>
<!-- EOS230 -->
<g id="node23" class="node">
<title>EOS230</title>
<path fill="#f5edc9" stroke="#030a10" d="M435,-175C435,-175 391,-175 391,-175 387.5,-175 384,-171.5 384,-168 384,-168 384,-161 384,-161 384,-157.5 387.5,-154 391,-154 391,-154 435,-154 435,-154 438.5,-154 442,-157.5 442,-161 442,-161 442,-168 442,-168 442,-171.5 438.5,-175 435,-175"/>
<text text-anchor="middle" x="413" y="-161.4" font-family="Times,serif" font-size="12.00">EOS230</text>
</g>
<!-- EOS230&#45;&gt;1 of [&#39;CSC110&#39;, &#39;CSC111&#39;, &#39;EOS210&#39;, &#39;EOS230&#39;, &#39;GEOG230&#39;, &#39;EOS261&#39;, &#39;EOS314&#39;] -->
<g id="edge23" class="edge">
<title>EOS230&#45;&gt;1 of [&#39;CSC110&#39;, &#39;CSC111&#39;, &#39;EOS210&#39;, &#39;EOS230&#39;, &#39;GEOG230&#39;, &#39;EOS261&#39;, &#39;EOS314&#39;]</title>
<path fill="none" stroke="black" d="M442.22,-164.5C455,-164.5 469.63,-164.5 480.39,-164.5"/>
<polygon fill="black" stroke="black" points="480.64,-166.25 485.64,-164.5 480.64,-162.75 480.64,-166.25"/>
</g>
<!-- GEOG230 -->
<g id="node24" class="node">
<title>GEOG230</title>
<path fill="#f5edc9" stroke="#030a10" d="M440.5,-147C440.5,-147 385.5,-147 385.5,-147 382,-147 378.5,-143.5 378.5,-140 378.5,-140 378.5,-133 378.5,-133 378.5,-129.5 382,-126 385.5,-126 385.5,-126 440.5,-126 440.5,-126 444,-126 447.5,-129.5 447.5,-133 447.5,-133 447.5,-140 447.5,-140 447.5,-143.5 444,-147 440.5,-147"/>
<text text-anchor="middle" x="413" y="-133.4" font-family="Times,serif" font-size="12.00">GEOG230</text>
</g>
<!-- GEOG230&#45;&gt;1 of [&#39;CSC110&#39;, &#39;CSC111&#39;, &#39;EOS210&#39;, &#39;EOS230&#39;, &#39;GEOG230&#39;, &#39;EOS261&#39;, &#39;EOS314&#39;] -->
<g id="edge24" class="edge">
<title>GEOG230&#45;&gt;1 of [&#39;CSC110&#39;, &#39;CSC111&#39;, &#39;EOS210&#39;, &#39;EOS230&#39;, &#39;GEOG230&#39;, &#39;EOS261&#39;, &#39;EOS314&#39;]</title>
<path fill="none" stroke="black" d="M445,-147.09C457.51,-151.36 471.35,-156.08 481.45,-159.53"/>
<polygon fill="black" stroke="black" points="481.07,-161.25 486.37,-161.21 482.2,-157.94 481.07,-161.25"/>
</g>
<!-- EOS261 -->
<g id="node25" class="node">
<title>EOS261</title>
<path fill="#f5edc9" stroke="#030a10" d="M435,-119C435,-119 391,-119 391,-119 387.5,-119 384,-115.5 384,-112 384,-112 384,-105 384,-105 384,-101.5 387.5,-98 391,-98 391,-98 435,-98 435,-98 438.5,-98 442,-101.5 442,-105 442,-105 442,-112 442,-112 442,-115.5 438.5,-119 435,-119"/>
<text text-anchor="middle" x="413" y="-105.4" font-family="Times,serif" font-size="12.00">EOS261</text>
</g>
<!-- EOS261&#45;&gt;1 of [&#39;CSC110&#39;, &#39;CSC111&#39;, &#39;EOS210&#39;, &#39;EOS230&#39;, &#39;GEOG230&#39;, &#39;EOS261&#39;, &#39;EOS314&#39;] -->
<g id="edge25" class="edge">
<title>EOS261&#45;&gt;1 of [&#39;CSC110&#39;, &#39;CSC111&#39;, &#39;EOS210&#39;, &#39;EOS230&#39;, &#39;GEOG230&#39;, &#39;EOS261&#39;, &#39;EOS314&#39;]</title>
<path fill="none" stroke="black" d="M441.99,-119.06C444.76,-120.43 447.48,-121.91 450,-123.5 463.31,-131.87 476.5,-144.15 485.32,-153.08"/>
<polygon fill="black" stroke="black" points="484.08,-154.32 488.82,-156.69 486.6,-151.88 484.08,-154.32"/>
</g>
<!-- EOS314 -->
<g id="node26" class="node">
<title>EOS314</title>
<path fill="#f5edc9" stroke="#030a10" d="M435,-91C435,-91 391,-91 391,-91 387.5,-91 384,-87.5 384,-84 384,-84 384,-77 384,-77 384,-73.5 387.5,-70 391,-70 391,-70 435,-70 435,-70 438.5,-70 442,-73.5 442,-77 442,-77 442,-84 442,-84 442,-87.5 438.5,-91 435,-91"/>
<text text-anchor="middle" x="413" y="-77.4" font-family="Times,serif" font-size="12.00">EOS314</text>
</g>
<!-- EOS314&#45;&gt;1 of [&#39;CSC110&#39;, &#39;CSC111&#39;, &#39;EOS210&#39;, &#39;EOS230&#39;, &#39;GEOG230&#39;, &#39;EOS261&#39;, &#39;EOS314&#39;] -->
<g id="edge26" class="edge">
<title>EOS314&#45;&gt;1 of [&#39;CSC110&#39;, &#39;CSC111&#39;, &#39;EOS210&#39;, &#39;EOS230&#39;, &#39;GEOG230&#39;, &#39;EOS261&#39;, &#39;EOS314&#39;]</title>
<path fill="none" stroke="black" d="M442.09,-89.39C444.9,-90.87 447.6,-92.56 450,-94.5 468.65,-109.58 482.36,-134.29 489.76,-149.96"/>
<polygon fill="black" stroke="black" points="488.17,-150.69 491.85,-154.51 491.35,-149.23 488.17,-150.69"/>
</g>
<!-- 1 of [&#39;MATH100&#39;, &#39;MATH102&#39;, &#39;MATH109&#39;]&#45;&gt;PHYS110 -->
<g id="edge28" class="edge">
<title>1 of [&#39;MATH100&#39;, &#39;MATH102&#39;, &#39;MATH109&#39;]&#45;&gt;PHYS110</title>
<path fill="none" stroke="black" d="M127.12,-272.5C135.93,-272.5 149.27,-272.5 162.11,-272.5"/>
<polygon fill="black" stroke="black" points="162.19,-274.25 167.19,-272.5 162.19,-270.75 162.19,-274.25"/>
</g>
<!-- 1 of [&#39;MATH100&#39;, &#39;MATH102&#39;, &#39;MATH109&#39;]&#45;&gt;PHYS111 -->
<g id="edge39" class="edge">
<title>1 of [&#39;MATH100&#39;, &#39;MATH102&#39;, &#39;MATH109&#39;]&#45;&gt;PHYS111</title>
<path fill="none" stroke="black" d="M126.68,-268.64C135.86,-265.2 150.12,-260.42 163,-258.5 198.84,-253.17 240.12,-257.77 269.08,-262.74"/>
<polygon fill="black" stroke="black" points="269.11,-264.52 274.34,-263.66 269.72,-261.07 269.11,-264.52"/>
</g>
<!-- MATH102 -->
<g id="node28" class="node">
<title>MATH102</title>
<path fill="#f5edc9" stroke="#030a10" d="M62,-269C62,-269 7,-269 7,-269 3.5,-269 0,-265.5 0,-262 0,-262 0,-255 0,-255 0,-251.5 3.5,-248 7,-248 7,-248 62,-248 62,-248 65.5,-248 69,-251.5 69,-255 69,-255 69,-262 69,-262 69,-265.5 65.5,-269 62,-269"/>
<text text-anchor="middle" x="34.5" y="-255.4" font-family="Times,serif" font-size="12.00">MATH102</text>
</g>
<!-- MATH102&#45;&gt;1 of [&#39;MATH100&#39;, &#39;MATH102&#39;, &#39;MATH109&#39;] -->
<g id="edge30" class="edge">
<title>MATH102&#45;&gt;1 of [&#39;MATH100&#39;, &#39;MATH102&#39;, &#39;MATH109&#39;]</title>
<path fill="none" stroke="black" d="M69.22,-264.44C79.87,-266.31 91.12,-268.29 99.8,-269.82"/>
<polygon fill="black" stroke="black" points="99.61,-271.57 104.84,-270.71 100.22,-268.12 99.61,-271.57"/>
</g>
<!-- 1 of [&#39;MATH200&#39;, &#39;MATH205&#39;] -->
<g id="node29" class="node">
<title>1 of [&#39;MATH200&#39;, &#39;MATH205&#39;]</title>
<ellipse fill="#dfe6e9" stroke="#030a10" cx="307" cy="-24.5" rx="11" ry="11"/>
<text text-anchor="middle" x="307" y="-21.4" font-family="Times,serif" font-size="12.00">1</text>
</g>
<!-- 1 of [&#39;MATH200&#39;, &#39;MATH205&#39;]&#45;&gt;MATH204 -->
<g id="edge32" class="edge">
<title>1 of [&#39;MATH200&#39;, &#39;MATH205&#39;]&#45;&gt;MATH204</title>
<path fill="none" stroke="black" d="M318.35,-24.5C331.09,-24.5 353.44,-24.5 373.11,-24.5"/>
<polygon fill="black" stroke="black" points="373.31,-26.25 378.31,-24.5 373.31,-22.75 373.31,-26.25"/>
</g>
<!-- MATH200 -->
<g id="node30" class="node">
<title>MATH200</title>
<path fill="#f5edc9" stroke="#030a10" d="M228,-21C228,-21 173,-21 173,-21 169.5,-21 166,-17.5 166,-14 166,-14 166,-7 166,-7 166,-3.5 169.5,0 173,0 173,0 228,0 228,0 231.5,0 235,-3.5 235,-7 235,-7 235,-14 235,-14 235,-17.5 231.5,-21 228,-21"/>
<text text-anchor="middle" x="200.5" y="-7.4" font-family="Times,serif" font-size="12.00">MATH200</text>
</g>
<!-- MATH200&#45;&gt;1 of [&#39;MATH200&#39;, &#39;MATH205&#39;] -->
<g id="edge33" class="edge">
<title>MATH200&#45;&gt;1 of [&#39;MATH200&#39;, &#39;MATH205&#39;]</title>
<path fill="none" stroke="black" d="M235.14,-15.01C253.84,-17.51 276.21,-20.51 290.74,-22.46"/>
<polygon fill="black" stroke="black" points="290.53,-24.19 295.72,-23.12 290.99,-20.72 290.53,-24.19"/>
</g>
<!-- MATH205 -->
<g id="node31" class="node">
<title>MATH205</title>
<path fill="#f5edc9" stroke="#030a10" d="M228,-49C228,-49 173,-49 173,-49 169.5,-49 166,-45.5 166,-42 166,-42 166,-35 166,-35 166,-31.5 169.5,-28 173,-28 173,-28 228,-28 228,-28 231.5,-28 235,-31.5 235,-35 235,-35 235,-42 235,-42 235,-45.5 231.5,-49 228,-49"/>
<text text-anchor="middle" x="200.5" y="-35.4" font-family="Times,serif" font-size="12.00">MATH205</text>
</g>
<!-- MATH205&#45;&gt;1 of [&#39;MATH200&#39;, &#39;MATH205&#39;] -->
<g id="edge34" class="edge">
<title>MATH205&#45;&gt;1 of [&#39;MATH200&#39;, &#39;MATH205&#39;]</title>
<path fill="none" stroke="black" d="M235.14,-33.99C253.84,-31.49 276.21,-28.49 290.74,-26.54"/>
<polygon fill="black" stroke="black" points="290.99,-28.28 295.72,-25.88 290.53,-24.81 290.99,-28.28"/>
</g>
<!-- MATH101 -->
<g id="node32" class="node">
<title>MATH101</title>
<path fill="#f5edc9" stroke="#030a10" d="M228,-367C228,-367 173,-367 173,-367 169.5,-367 166,-363.5 166,-360 166,-360 166,-353 166,-353 166,-349.5 169.5,-346 173,-346 173,-346 228,-346 228,-346 231.5,-346 235,-349.5 235,-353 235,-353 235,-360 235,-360 235,-363.5 231.5,-367 228,-367"/>
<text text-anchor="middle" x="200.5" y="-353.4" font-family="Times,serif" font-size="12.00">MATH101</text>
</g>
<!-- MATH101&#45;&gt;PHYS130 -->
<g id="edge37" class="edge">
<title>MATH101&#45;&gt;PHYS130</title>
<path fill="none" stroke="black" d="M235.14,-347.81C245.9,-345.03 257.88,-341.93 268.87,-339.09"/>
<polygon fill="black" stroke="black" points="269.44,-340.75 273.85,-337.81 268.57,-337.36 269.44,-340.75"/>
</g>
</g>
</svg>
