<?xml version="1.0" encoding="UTF-8" standalone="no"?>
<!DOCTYPE svg PUBLIC "-//W3C//DTD SVG 1.1//EN"
 "http://www.w3.org/Graphics/SVG/1.1/DTD/svg11.dtd">
<!-- Generated by graphviz version 2.43.0 (0)
 -->
<!-- Title: unix Pages: 1 -->
<svg width="746pt" height="174pt"
 viewBox="0.00 0.00 746.00 174.00" xmlns="http://www.w3.org/2000/svg" xmlns:xlink="http://www.w3.org/1999/xlink">
<g id="graph0" class="graph" transform="scale(1 1) rotate(0) translate(4 170)">
<title>unix</title>
<polygon fill="white" stroke="transparent" points="-4,4 -4,-170 742,-170 742,4 -4,4"/>
<text text-anchor="middle" x="369" y="-150.8" font-family="Times,serif" font-size="14.00">EOS440: Hydrogeology</text>
<!-- MATH200 -->
<g id="node1" class="node">
<title>MATH200</title>
<path fill="#f5edc9" stroke="#030a10" d="M380,-34C380,-34 325,-34 325,-34 321.5,-34 318,-30.5 318,-27 318,-27 318,-20 318,-20 318,-16.5 321.5,-13 325,-13 325,-13 380,-13 380,-13 383.5,-13 387,-16.5 387,-20 387,-20 387,-27 387,-27 387,-30.5 383.5,-34 380,-34"/>
<text text-anchor="middle" x="352.5" y="-20.4" font-family="Times,serif" font-size="12.00">MATH200</text>
</g>
<!-- 1 of [&#39;MATH200&#39;, &#39;MATH205&#39;] -->
<g id="node11" class="node">
<title>1 of [&#39;MATH200&#39;, &#39;MATH205&#39;]</title>
<ellipse fill="#dfe6e9" stroke="#030a10" cx="452" cy="-45.5" rx="11" ry="11"/>
<text text-anchor="middle" x="452" y="-42.4" font-family="Times,serif" font-size="12.00">1</text>
</g>
<!-- MATH200&#45;&gt;1 of [&#39;MATH200&#39;, &#39;MATH205&#39;] -->
<g id="edge3" class="edge">
<title>MATH200&#45;&gt;1 of [&#39;MATH200&#39;, &#39;MATH205&#39;]</title>
<path fill="none" stroke="black" d="M387.05,-31.07C403.63,-34.81 422.82,-39.14 435.82,-42.07"/>
<polygon fill="black" stroke="black" points="435.72,-43.85 440.98,-43.24 436.49,-40.43 435.72,-43.85"/>
</g>
<!-- MATH204 -->
<g id="node2" class="node">
<title>MATH204</title>
<path fill="#e7a79b" stroke="#030a10" d="M579,-56C579,-56 524,-56 524,-56 520.5,-56 517,-52.5 517,-49 517,-49 517,-42 517,-42 517,-38.5 520.5,-35 524,-35 524,-35 579,-35 579,-35 582.5,-35 586,-38.5 586,-42 586,-42 586,-49 586,-49 586,-52.5 582.5,-56 579,-56"/>
<text text-anchor="middle" x="551.5" y="-42.4" font-family="Times,serif" font-size="12.00">MATH204</text>
</g>
<!-- 1 of [&#39;MATH202&#39;, &#39;MATH204&#39;] -->
<g id="node12" class="node">
<title>1 of [&#39;MATH202&#39;, &#39;MATH204&#39;]</title>
<ellipse fill="#dfe6e9" stroke="#030a10" cx="633" cy="-45.5" rx="11" ry="11"/>
<text text-anchor="middle" x="633" y="-42.4" font-family="Times,serif" font-size="12.00">1</text>
</g>
<!-- MATH204&#45;&gt;1 of [&#39;MATH202&#39;, &#39;MATH204&#39;] -->
<g id="edge8" class="edge">
<title>MATH204&#45;&gt;1 of [&#39;MATH202&#39;, &#39;MATH204&#39;]</title>
<path fill="none" stroke="black" d="M586.22,-45.5C596.87,-45.5 608.12,-45.5 616.8,-45.5"/>
<polygon fill="black" stroke="black" points="616.84,-47.25 621.84,-45.5 616.84,-43.75 616.84,-47.25"/>
</g>
<!-- EOS440 -->
<g id="node3" class="node">
<title>EOS440</title>
<path fill="#9fa7be" stroke="#030a10" d="M731,-67C731,-67 687,-67 687,-67 683.5,-67 680,-63.5 680,-60 680,-60 680,-53 680,-53 680,-49.5 683.5,-46 687,-46 687,-46 731,-46 731,-46 734.5,-46 738,-49.5 738,-53 738,-53 738,-60 738,-60 738,-63.5 734.5,-67 731,-67"/>
<text text-anchor="middle" x="709" y="-53.4" font-family="Times,serif" font-size="12.00">EOS440</text>
</g>
<!-- MATH202 -->
<g id="node4" class="node">
<title>MATH202</title>
<path fill="#e7a79b" stroke="#030a10" d="M579,-21C579,-21 524,-21 524,-21 520.5,-21 517,-17.5 517,-14 517,-14 517,-7 517,-7 517,-3.5 520.5,0 524,0 524,0 579,0 579,0 582.5,0 586,-3.5 586,-7 586,-7 586,-14 586,-14 586,-17.5 582.5,-21 579,-21"/>
<text text-anchor="middle" x="551.5" y="-7.4" font-family="Times,serif" font-size="12.00">MATH202</text>
</g>
<!-- MATH202&#45;&gt;1 of [&#39;MATH202&#39;, &#39;MATH204&#39;] -->
<g id="edge7" class="edge">
<title>MATH202&#45;&gt;1 of [&#39;MATH202&#39;, &#39;MATH204&#39;]</title>
<path fill="none" stroke="black" d="M576.35,-21C589.96,-26.99 606.54,-34.29 618.05,-39.36"/>
<polygon fill="black" stroke="black" points="617.36,-40.97 622.64,-41.38 618.77,-37.76 617.36,-40.97"/>
</g>
<!-- CHEM102 -->
<g id="node5" class="node">
<title>CHEM102</title>
<path fill="#f5edc9" stroke="#030a10" d="M275,-114C275,-114 219,-114 219,-114 215.5,-114 212,-110.5 212,-107 212,-107 212,-100 212,-100 212,-96.5 215.5,-93 219,-93 219,-93 275,-93 275,-93 278.5,-93 282,-96.5 282,-100 282,-100 282,-107 282,-107 282,-110.5 278.5,-114 275,-114"/>
<text text-anchor="middle" x="247" y="-100.4" font-family="Times,serif" font-size="12.00">CHEM102</text>
</g>
<!-- EOS240 -->
<g id="node6" class="node">
<title>EOS240</title>
<path fill="#e7a79b" stroke="#030a10" d="M474,-89C474,-89 430,-89 430,-89 426.5,-89 423,-85.5 423,-82 423,-82 423,-75 423,-75 423,-71.5 426.5,-68 430,-68 430,-68 474,-68 474,-68 477.5,-68 481,-71.5 481,-75 481,-75 481,-82 481,-82 481,-85.5 477.5,-89 474,-89"/>
<text text-anchor="middle" x="452" y="-75.4" font-family="Times,serif" font-size="12.00">EOS240</text>
</g>
<!-- CHEM102&#45;&gt;EOS240 -->
<g id="edge20" class="edge">
<title>CHEM102&#45;&gt;EOS240</title>
<path fill="none" stroke="black" d="M282.17,-109.99C310.59,-114.2 351.92,-117.55 387,-109.5 402.08,-106.04 417.74,-98.53 429.8,-91.78"/>
<polygon fill="black" stroke="black" points="430.93,-93.14 434.39,-89.13 429.19,-90.11 430.93,-93.14"/>
</g>
<!-- EOS205 -->
<g id="node9" class="node">
<title>EOS205</title>
<path fill="#f5edc9" stroke="#030a10" d="M374.5,-106C374.5,-106 330.5,-106 330.5,-106 327,-106 323.5,-102.5 323.5,-99 323.5,-99 323.5,-92 323.5,-92 323.5,-88.5 327,-85 330.5,-85 330.5,-85 374.5,-85 374.5,-85 378,-85 381.5,-88.5 381.5,-92 381.5,-92 381.5,-99 381.5,-99 381.5,-102.5 378,-106 374.5,-106"/>
<text text-anchor="middle" x="352.5" y="-92.4" font-family="Times,serif" font-size="12.00">EOS205</text>
</g>
<!-- CHEM102&#45;&gt;EOS205 -->
<g id="edge22" class="edge">
<title>CHEM102&#45;&gt;EOS205</title>
<path fill="none" stroke="black" d="M282.18,-100.86C293.72,-99.97 306.58,-98.97 318.06,-98.08"/>
<polygon fill="black" stroke="black" points="318.38,-99.82 323.23,-97.69 318.11,-96.33 318.38,-99.82"/>
</g>
<!-- EOS240&#45;&gt;EOS440 -->
<g id="edge5" class="edge">
<title>EOS240&#45;&gt;EOS440</title>
<path fill="none" stroke="black" d="M481.26,-76.06C528.78,-71.96 624.41,-63.71 674.95,-59.35"/>
<polygon fill="black" stroke="black" points="675.17,-61.09 680,-58.92 674.87,-57.6 675.17,-61.09"/>
</g>
<!-- EOS120 -->
<g id="node7" class="node">
<title>EOS120</title>
<path fill="#f5edc9" stroke="#030a10" d="M269,-85C269,-85 225,-85 225,-85 221.5,-85 218,-81.5 218,-78 218,-78 218,-71 218,-71 218,-67.5 221.5,-64 225,-64 225,-64 269,-64 269,-64 272.5,-64 276,-67.5 276,-71 276,-71 276,-78 276,-78 276,-81.5 272.5,-85 269,-85"/>
<text text-anchor="middle" x="247" y="-71.4" font-family="Times,serif" font-size="12.00">EOS120</text>
</g>
<!-- EOS120&#45;&gt;EOS240 -->
<g id="edge18" class="edge">
<title>EOS120&#45;&gt;EOS240</title>
<path fill="none" stroke="black" d="M276.23,-75.06C313.24,-75.79 378.09,-77.06 417.53,-77.84"/>
<polygon fill="black" stroke="black" points="417.65,-79.59 422.69,-77.94 417.72,-76.09 417.65,-79.59"/>
</g>
<!-- EOS120&#45;&gt;EOS205 -->
<g id="edge21" class="edge">
<title>EOS120&#45;&gt;EOS205</title>
<path fill="none" stroke="black" d="M276.01,-80.18C289.13,-82.84 304.84,-86.03 318.53,-88.81"/>
<polygon fill="black" stroke="black" points="318.22,-90.53 323.47,-89.81 318.92,-87.1 318.22,-90.53"/>
</g>
<!-- MATH205 -->
<g id="node8" class="node">
<title>MATH205</title>
<path fill="#f5edc9" stroke="#030a10" d="M380,-62C380,-62 325,-62 325,-62 321.5,-62 318,-58.5 318,-55 318,-55 318,-48 318,-48 318,-44.5 321.5,-41 325,-41 325,-41 380,-41 380,-41 383.5,-41 387,-44.5 387,-48 387,-48 387,-55 387,-55 387,-58.5 383.5,-62 380,-62"/>
<text text-anchor="middle" x="352.5" y="-48.4" font-family="Times,serif" font-size="12.00">MATH205</text>
</g>
<!-- MATH205&#45;&gt;1 of [&#39;MATH200&#39;, &#39;MATH205&#39;] -->
<g id="edge4" class="edge">
<title>MATH205&#45;&gt;1 of [&#39;MATH200&#39;, &#39;MATH205&#39;]</title>
<path fill="none" stroke="black" d="M387.05,-49.44C403.63,-48.41 422.82,-47.23 435.82,-46.43"/>
<polygon fill="black" stroke="black" points="436.1,-48.17 440.98,-46.12 435.89,-44.68 436.1,-48.17"/>
</g>
<!-- EOS205&#45;&gt;EOS240 -->
<g id="edge19" class="edge">
<title>EOS205&#45;&gt;EOS240</title>
<path fill="none" stroke="black" d="M381.7,-90.58C393.02,-88.61 406.15,-86.32 417.91,-84.27"/>
<polygon fill="black" stroke="black" points="418.24,-85.99 422.86,-83.41 417.64,-82.54 418.24,-85.99"/>
</g>
<!-- MATH101 -->
<g id="node10" class="node">
<title>MATH101</title>
<path fill="#f5edc9" stroke="#030a10" d="M274.5,-33C274.5,-33 219.5,-33 219.5,-33 216,-33 212.5,-29.5 212.5,-26 212.5,-26 212.5,-19 212.5,-19 212.5,-15.5 216,-12 219.5,-12 219.5,-12 274.5,-12 274.5,-12 278,-12 281.5,-15.5 281.5,-19 281.5,-19 281.5,-26 281.5,-26 281.5,-29.5 278,-33 274.5,-33"/>
<text text-anchor="middle" x="247" y="-19.4" font-family="Times,serif" font-size="12.00">MATH101</text>
</g>
<!-- MATH101&#45;&gt;MATH200 -->
<g id="edge1" class="edge">
<title>MATH101&#45;&gt;MATH200</title>
<path fill="none" stroke="black" d="M281.6,-22.82C291.46,-22.92 302.31,-23.02 312.47,-23.12"/>
<polygon fill="black" stroke="black" points="312.69,-24.88 317.71,-23.17 312.73,-21.38 312.69,-24.88"/>
</g>
<!-- MATH101&#45;&gt;MATH202 -->
<g id="edge9" class="edge">
<title>MATH101&#45;&gt;MATH202</title>
<path fill="none" stroke="black" d="M281.65,-14.96C293.12,-12.73 306.06,-10.6 318,-9.5 385.92,-3.25 465.48,-5.68 511.72,-8.06"/>
<polygon fill="black" stroke="black" points="511.83,-9.82 516.91,-8.34 512.01,-6.33 511.83,-9.82"/>
</g>
<!-- 1 of [&#39;MATH200&#39;, &#39;MATH205&#39;]&#45;&gt;MATH204 -->
<g id="edge2" class="edge">
<title>1 of [&#39;MATH200&#39;, &#39;MATH205&#39;]&#45;&gt;MATH204</title>
<path fill="none" stroke="black" d="M463.07,-45.5C474.44,-45.5 493.66,-45.5 511.19,-45.5"/>
<polygon fill="black" stroke="black" points="511.56,-47.25 516.56,-45.5 511.56,-43.75 511.56,-47.25"/>
</g>
<!-- 1 of [&#39;MATH202&#39;, &#39;MATH204&#39;]&#45;&gt;EOS440 -->
<g id="edge6" class="edge">
<title>1 of [&#39;MATH202&#39;, &#39;MATH204&#39;]&#45;&gt;EOS440</title>
<path fill="none" stroke="black" d="M643.98,-46.98C651.92,-48.16 663.5,-49.89 674.64,-51.54"/>
<polygon fill="black" stroke="black" points="674.51,-53.29 679.71,-52.3 675.03,-49.83 674.51,-53.29"/>
</g>
<!-- 1 of [&#39;MATH100&#39;, &#39;MATH102&#39;, &#39;MATH109&#39;] -->
<g id="node13" class="node">
<title>1 of [&#39;MATH100&#39;, &#39;MATH102&#39;, &#39;MATH109&#39;]</title>
<ellipse fill="#dfe6e9" stroke="#030a10" cx="141" cy="-63.5" rx="11" ry="11"/>
<text text-anchor="middle" x="141" y="-60.4" font-family="Times,serif" font-size="12.00">1</text>
</g>
<!-- 1 of [&#39;MATH100&#39;, &#39;MATH102&#39;, &#39;MATH109&#39;]&#45;&gt;CHEM102 -->
<g id="edge10" class="edge">
<title>1 of [&#39;MATH100&#39;, &#39;MATH102&#39;, &#39;MATH109&#39;]&#45;&gt;CHEM102</title>
<path fill="none" stroke="black" d="M151.6,-67.19C165.62,-72.59 192.38,-82.88 213.84,-91.13"/>
<polygon fill="black" stroke="black" points="213.31,-92.8 218.61,-92.96 214.57,-89.54 213.31,-92.8"/>
</g>
<!-- MATH100 -->
<g id="node14" class="node">
<title>MATH100</title>
<path fill="#f5edc9" stroke="#030a10" d="M62.5,-58C62.5,-58 7.5,-58 7.5,-58 4,-58 0.5,-54.5 0.5,-51 0.5,-51 0.5,-44 0.5,-44 0.5,-40.5 4,-37 7.5,-37 7.5,-37 62.5,-37 62.5,-37 66,-37 69.5,-40.5 69.5,-44 69.5,-44 69.5,-51 69.5,-51 69.5,-54.5 66,-58 62.5,-58"/>
<text text-anchor="middle" x="35" y="-44.4" font-family="Times,serif" font-size="12.00">MATH100</text>
</g>
<!-- MATH100&#45;&gt;1 of [&#39;MATH100&#39;, &#39;MATH102&#39;, &#39;MATH109&#39;] -->
<g id="edge11" class="edge">
<title>MATH100&#45;&gt;1 of [&#39;MATH100&#39;, &#39;MATH102&#39;, &#39;MATH109&#39;]</title>
<path fill="none" stroke="black" d="M69.77,-52.69C88.2,-55.53 110.13,-58.9 124.52,-61.12"/>
<polygon fill="black" stroke="black" points="124.62,-62.9 129.83,-61.93 125.15,-59.44 124.62,-62.9"/>
</g>
<!-- 1 of [&#39;MATH100&#39;, &#39;MATH109&#39;] -->
<g id="node21" class="node">
<title>1 of [&#39;MATH100&#39;, &#39;MATH109&#39;]</title>
<ellipse fill="#dfe6e9" stroke="#030a10" cx="141" cy="-22.5" rx="11" ry="11"/>
<text text-anchor="middle" x="141" y="-19.4" font-family="Times,serif" font-size="12.00">1</text>
</g>
<!-- MATH100&#45;&gt;1 of [&#39;MATH100&#39;, &#39;MATH109&#39;] -->
<g id="edge24" class="edge">
<title>MATH100&#45;&gt;1 of [&#39;MATH100&#39;, &#39;MATH109&#39;]</title>
<path fill="none" stroke="black" d="M69.77,-39.38C88.36,-34.91 110.52,-29.59 124.9,-26.13"/>
<polygon fill="black" stroke="black" points="125.37,-27.82 129.83,-24.95 124.56,-24.41 125.37,-27.82"/>
</g>
<!-- MATH102 -->
<g id="node15" class="node">
<title>MATH102</title>
<path fill="#f5edc9" stroke="#030a10" d="M62.5,-86C62.5,-86 7.5,-86 7.5,-86 4,-86 0.5,-82.5 0.5,-79 0.5,-79 0.5,-72 0.5,-72 0.5,-68.5 4,-65 7.5,-65 7.5,-65 62.5,-65 62.5,-65 66,-65 69.5,-68.5 69.5,-72 69.5,-72 69.5,-79 69.5,-79 69.5,-82.5 66,-86 62.5,-86"/>
<text text-anchor="middle" x="35" y="-72.4" font-family="Times,serif" font-size="12.00">MATH102</text>
</g>
<!-- MATH102&#45;&gt;1 of [&#39;MATH100&#39;, &#39;MATH102&#39;, &#39;MATH109&#39;] -->
<g id="edge12" class="edge">
<title>MATH102&#45;&gt;1 of [&#39;MATH100&#39;, &#39;MATH102&#39;, &#39;MATH109&#39;]</title>
<path fill="none" stroke="black" d="M69.77,-71.6C88.2,-69.48 110.13,-66.95 124.52,-65.29"/>
<polygon fill="black" stroke="black" points="125.06,-66.99 129.83,-64.67 124.66,-63.51 125.06,-66.99"/>
</g>
<!-- MATH109 -->
<g id="node16" class="node">
<title>MATH109</title>
<path fill="#f5edc9" stroke="#030a10" d="M62.5,-30C62.5,-30 7.5,-30 7.5,-30 4,-30 0.5,-26.5 0.5,-23 0.5,-23 0.5,-16 0.5,-16 0.5,-12.5 4,-9 7.5,-9 7.5,-9 62.5,-9 62.5,-9 66,-9 69.5,-12.5 69.5,-16 69.5,-16 69.5,-23 69.5,-23 69.5,-26.5 66,-30 62.5,-30"/>
<text text-anchor="middle" x="35" y="-16.4" font-family="Times,serif" font-size="12.00">MATH109</text>
</g>
<!-- MATH109&#45;&gt;1 of [&#39;MATH100&#39;, &#39;MATH102&#39;, &#39;MATH109&#39;] -->
<g id="edge13" class="edge">
<title>MATH109&#45;&gt;1 of [&#39;MATH100&#39;, &#39;MATH102&#39;, &#39;MATH109&#39;]</title>
<path fill="none" stroke="black" d="M61.64,-30.01C64.46,-31.18 67.29,-32.36 70,-33.5 89.32,-41.62 111.56,-51.19 125.69,-57.3"/>
<polygon fill="black" stroke="black" points="125.22,-59 130.51,-59.38 126.61,-55.79 125.22,-59"/>
</g>
<!-- MATH109&#45;&gt;1 of [&#39;MATH100&#39;, &#39;MATH109&#39;] -->
<g id="edge25" class="edge">
<title>MATH109&#45;&gt;1 of [&#39;MATH100&#39;, &#39;MATH109&#39;]</title>
<path fill="none" stroke="black" d="M69.77,-20.47C88.2,-21.01 110.13,-21.64 124.52,-22.05"/>
<polygon fill="black" stroke="black" points="124.78,-23.81 129.83,-22.21 124.88,-20.31 124.78,-23.81"/>
</g>
<!-- CHEM091 -->
<g id="node17" class="node">
<title>CHEM091</title>
<path fill="#f5edc9" stroke="#030a10" d="M169,-143C169,-143 113,-143 113,-143 109.5,-143 106,-139.5 106,-136 106,-136 106,-129 106,-129 106,-125.5 109.5,-122 113,-122 113,-122 169,-122 169,-122 172.5,-122 176,-125.5 176,-129 176,-129 176,-136 176,-136 176,-139.5 172.5,-143 169,-143"/>
<text text-anchor="middle" x="141" y="-129.4" font-family="Times,serif" font-size="12.00">CHEM091</text>
</g>
<!-- CHEM091&#45;&gt;CHEM102 -->
<g id="edge14" class="edge">
<title>CHEM091&#45;&gt;CHEM102</title>
<path fill="none" stroke="black" d="M176.05,-123C185.93,-120.25 196.79,-117.22 206.95,-114.39"/>
<polygon fill="black" stroke="black" points="207.52,-116.05 211.87,-113.02 206.58,-112.67 207.52,-116.05"/>
</g>
<!-- 1 of [&#39;CHEM101&#39;, &#39;CHEM150&#39;] -->
<g id="node18" class="node">
<title>1 of [&#39;CHEM101&#39;, &#39;CHEM150&#39;]</title>
<ellipse fill="#dfe6e9" stroke="#030a10" cx="141" cy="-103.5" rx="11" ry="11"/>
<text text-anchor="middle" x="141" y="-100.4" font-family="Times,serif" font-size="12.00">1</text>
</g>
<!-- 1 of [&#39;CHEM101&#39;, &#39;CHEM150&#39;]&#45;&gt;CHEM102 -->
<g id="edge15" class="edge">
<title>1 of [&#39;CHEM101&#39;, &#39;CHEM150&#39;]&#45;&gt;CHEM102</title>
<path fill="none" stroke="black" d="M152.35,-103.5C164.94,-103.5 186.92,-103.5 206.42,-103.5"/>
<polygon fill="black" stroke="black" points="206.85,-105.25 211.85,-103.5 206.85,-101.75 206.85,-105.25"/>
</g>
<!-- CHEM101 -->
<g id="node19" class="node">
<title>CHEM101</title>
<path fill="#f5edc9" stroke="#030a10" d="M63,-142C63,-142 7,-142 7,-142 3.5,-142 0,-138.5 0,-135 0,-135 0,-128 0,-128 0,-124.5 3.5,-121 7,-121 7,-121 63,-121 63,-121 66.5,-121 70,-124.5 70,-128 70,-128 70,-135 70,-135 70,-138.5 66.5,-142 63,-142"/>
<text text-anchor="middle" x="35" y="-128.4" font-family="Times,serif" font-size="12.00">CHEM101</text>
</g>
<!-- CHEM101&#45;&gt;1 of [&#39;CHEM101&#39;, &#39;CHEM150&#39;] -->
<g id="edge16" class="edge">
<title>CHEM101&#45;&gt;1 of [&#39;CHEM101&#39;, &#39;CHEM150&#39;]</title>
<path fill="none" stroke="black" d="M70.05,-122.33C88.63,-117.33 110.68,-111.39 124.99,-107.54"/>
<polygon fill="black" stroke="black" points="125.51,-109.21 129.89,-106.22 124.6,-105.83 125.51,-109.21"/>
</g>
<!-- CHEM150 -->
<g id="node20" class="node">
<title>CHEM150</title>
<path fill="#f5edc9" stroke="#030a10" d="M63,-114C63,-114 7,-114 7,-114 3.5,-114 0,-110.5 0,-107 0,-107 0,-100 0,-100 0,-96.5 3.5,-93 7,-93 7,-93 63,-93 63,-93 66.5,-93 70,-96.5 70,-100 70,-100 70,-107 70,-107 70,-110.5 66.5,-114 63,-114"/>
<text text-anchor="middle" x="35" y="-100.4" font-family="Times,serif" font-size="12.00">CHEM150</text>
</g>
<!-- CHEM150&#45;&gt;1 of [&#39;CHEM101&#39;, &#39;CHEM150&#39;] -->
<g id="edge17" class="edge">
<title>CHEM150&#45;&gt;1 of [&#39;CHEM101&#39;, &#39;CHEM150&#39;]</title>
<path fill="none" stroke="black" d="M70.05,-103.5C88.46,-103.5 110.29,-103.5 124.61,-103.5"/>
<polygon fill="black" stroke="black" points="124.89,-105.25 129.89,-103.5 124.89,-101.75 124.89,-105.25"/>
</g>
<!-- 1 of [&#39;MATH100&#39;, &#39;MATH109&#39;]&#45;&gt;MATH101 -->
<g id="edge23" class="edge">
<title>1 of [&#39;MATH100&#39;, &#39;MATH109&#39;]&#45;&gt;MATH101</title>
<path fill="none" stroke="black" d="M152.35,-22.5C165.09,-22.5 187.44,-22.5 207.11,-22.5"/>
<polygon fill="black" stroke="black" points="207.31,-24.25 212.31,-22.5 207.31,-20.75 207.31,-24.25"/>
</g>
</g>
</svg>
