<?xml version="1.0" encoding="UTF-8" standalone="no"?>
<!DOCTYPE svg PUBLIC "-//W3C//DTD SVG 1.1//EN"
 "http://www.w3.org/Graphics/SVG/1.1/DTD/svg11.dtd">
<!-- Generated by graphviz version 2.43.0 (0)
 -->
<!-- Title: unix Pages: 1 -->
<svg width="804pt" height="454pt"
 viewBox="0.00 0.00 804.00 453.59" xmlns="http://www.w3.org/2000/svg" xmlns:xlink="http://www.w3.org/1999/xlink">
<g id="graph0" class="graph" transform="scale(1 1) rotate(0) translate(4 449.59)">
<title>unix</title>
<polygon fill="white" stroke="transparent" points="-4,4 -4,-449.59 800,-449.59 800,4 -4,4"/>
<text text-anchor="middle" x="398" y="-430.39" font-family="Times,serif" font-size="14.00">Earth Sciences (Minor) PROPOSED CHANGES</text>
<text text-anchor="middle" x="398" y="-415.39" font-family="Times,serif" font-size="14.00">Using options: [&#39;EOS202&#39;, &#39;EOS240&#39;]</text>
<g id="clust1" class="cluster">
<title>cluster_Legend</title>
<polygon fill="none" stroke="black" points="8,-8 8,-237 168,-237 168,-8 8,-8"/>
<text text-anchor="middle" x="88" y="-221.8" font-family="Times,serif" font-size="14.00">Legend</text>
</g>
<!-- Required -->
<g id="node1" class="node">
<title>Required</title>
<path fill="#9fa7be" stroke="#030a10" d="M153,-205.5C153,-205.5 23,-205.5 23,-205.5 19.5,-205.5 16,-202 16,-198.5 16,-198.5 16,-191.5 16,-191.5 16,-188 19.5,-184.5 23,-184.5 23,-184.5 153,-184.5 153,-184.5 156.5,-184.5 160,-188 160,-191.5 160,-191.5 160,-198.5 160,-198.5 160,-202 156.5,-205.5 153,-205.5"/>
<text text-anchor="middle" x="88" y="-191.9" font-family="Times,serif" font-size="12.00">Required</text>
</g>
<!-- Required.11 Required -->
<g id="node2" class="node">
<title>Required.11 Required</title>
<path fill="#f77189" stroke="#030a10" d="M153,-177.5C153,-177.5 23,-177.5 23,-177.5 19.5,-177.5 16,-174 16,-170.5 16,-170.5 16,-163.5 16,-163.5 16,-160 19.5,-156.5 23,-156.5 23,-156.5 153,-156.5 153,-156.5 156.5,-156.5 160,-160 160,-163.5 160,-163.5 160,-170.5 160,-170.5 160,-174 156.5,-177.5 153,-177.5"/>
<text text-anchor="middle" x="88" y="-163.9" font-family="Times,serif" font-size="12.00">1 Required</text>
</g>
<!-- Required.21 Required -->
<g id="node3" class="node">
<title>Required.21 Required</title>
<path fill="#c69432" stroke="#030a10" d="M153,-149.5C153,-149.5 23,-149.5 23,-149.5 19.5,-149.5 16,-146 16,-142.5 16,-142.5 16,-135.5 16,-135.5 16,-132 19.5,-128.5 23,-128.5 23,-128.5 153,-128.5 153,-128.5 156.5,-128.5 160,-132 160,-135.5 160,-135.5 160,-142.5 160,-142.5 160,-146 156.5,-149.5 153,-149.5"/>
<text text-anchor="middle" x="88" y="-135.9" font-family="Times,serif" font-size="12.00">1 Required</text>
</g>
<!-- Required.31 Required -->
<g id="node4" class="node">
<title>Required.31 Required</title>
<path fill="#82a931" stroke="#030a10" d="M153,-121.5C153,-121.5 23,-121.5 23,-121.5 19.5,-121.5 16,-118 16,-114.5 16,-114.5 16,-107.5 16,-107.5 16,-104 19.5,-100.5 23,-100.5 23,-100.5 153,-100.5 153,-100.5 156.5,-100.5 160,-104 160,-107.5 160,-107.5 160,-114.5 160,-114.5 160,-118 156.5,-121.5 153,-121.5"/>
<text text-anchor="middle" x="88" y="-107.9" font-family="Times,serif" font-size="12.00">1 Required</text>
</g>
<!-- Required.41 Required -->
<g id="node5" class="node">
<title>Required.41 Required</title>
<path fill="#34af8a" stroke="#030a10" d="M153,-93.5C153,-93.5 23,-93.5 23,-93.5 19.5,-93.5 16,-90 16,-86.5 16,-86.5 16,-79.5 16,-79.5 16,-76 19.5,-72.5 23,-72.5 23,-72.5 153,-72.5 153,-72.5 156.5,-72.5 160,-76 160,-79.5 160,-79.5 160,-86.5 160,-86.5 160,-90 156.5,-93.5 153,-93.5"/>
<text text-anchor="middle" x="88" y="-79.9" font-family="Times,serif" font-size="12.00">1 Required</text>
</g>
<!-- Required.52 Required -->
<g id="node6" class="node">
<title>Required.52 Required</title>
<path fill="#37aabb" stroke="#030a10" d="M153,-65.5C153,-65.5 23,-65.5 23,-65.5 19.5,-65.5 16,-62 16,-58.5 16,-58.5 16,-51.5 16,-51.5 16,-48 19.5,-44.5 23,-44.5 23,-44.5 153,-44.5 153,-44.5 156.5,-44.5 160,-48 160,-51.5 160,-51.5 160,-58.5 160,-58.5 160,-62 156.5,-65.5 153,-65.5"/>
<text text-anchor="middle" x="88" y="-51.9" font-family="Times,serif" font-size="12.00">2 Required</text>
</g>
<!-- Required.64.5 units Required -->
<g id="node7" class="node">
<title>Required.64.5 units Required</title>
<path fill="#8197f4" stroke="#030a10" d="M153,-37.5C153,-37.5 23,-37.5 23,-37.5 19.5,-37.5 16,-34 16,-30.5 16,-30.5 16,-23.5 16,-23.5 16,-20 19.5,-16.5 23,-16.5 23,-16.5 153,-16.5 153,-16.5 156.5,-16.5 160,-20 160,-23.5 160,-23.5 160,-30.5 160,-30.5 160,-34 156.5,-37.5 153,-37.5"/>
<text text-anchor="middle" x="88" y="-23.9" font-family="Times,serif" font-size="12.00">4.5 units Required</text>
</g>
<!-- MATH101 -->
<g id="node8" class="node">
<title>MATH101</title>
<path fill="#9fa7be" stroke="#030a10" d="M412,-294C412,-294 368,-294 368,-294 365,-294 362,-291 362,-288 362,-288 362,-282 362,-282 362,-279 365,-276 368,-276 368,-276 412,-276 412,-276 415,-276 418,-279 418,-282 418,-282 418,-288 418,-288 418,-291 415,-294 412,-294"/>
<text text-anchor="middle" x="390" y="-282.8" font-family="Times,serif" font-size="9.00">MATH101</text>
</g>
<!-- PHYS130 -->
<g id="node22" class="node">
<title>PHYS130</title>
<path fill="#34af8a" stroke="#030a10" d="M504,-315C504,-315 462,-315 462,-315 459,-315 456,-312 456,-309 456,-309 456,-303 456,-303 456,-300 459,-297 462,-297 462,-297 504,-297 504,-297 507,-297 510,-300 510,-303 510,-303 510,-309 510,-309 510,-312 507,-315 504,-315"/>
<text text-anchor="middle" x="483" y="-303.8" font-family="Times,serif" font-size="9.00">PHYS130</text>
</g>
<!-- MATH101&#45;&gt;PHYS130 -->
<g id="edge27" class="edge">
<title>MATH101&#45;&gt;PHYS130</title>
<path fill="none" stroke="black" d="M418.3,-291.3C428.56,-293.67 440.3,-296.38 450.88,-298.82"/>
<polygon fill="black" stroke="black" points="450.7,-300.57 455.96,-299.99 451.49,-297.16 450.7,-300.57"/>
</g>
<!-- 2 of [&#39;MATH100&#39;, &#39;MATH101&#39;, &#39;MATH102&#39;, &#39;MATH109&#39;, &#39;MATH151&#39;] -->
<g id="node41" class="node">
<title>2 of [&#39;MATH100&#39;, &#39;MATH101&#39;, &#39;MATH102&#39;, &#39;MATH109&#39;, &#39;MATH151&#39;]</title>
<ellipse fill="#b2bec3" stroke="#030a10" cx="483" cy="-252" rx="11" ry="11"/>
<text text-anchor="middle" x="483" y="-248.9" font-family="Times,serif" font-size="12.00">2</text>
</g>
<!-- MATH101&#45;&gt;2 of [&#39;MATH100&#39;, &#39;MATH101&#39;, &#39;MATH102&#39;, &#39;MATH109&#39;, &#39;MATH151&#39;] -->
<g id="edge39" class="edge">
<title>MATH101&#45;&gt;2 of [&#39;MATH100&#39;, &#39;MATH101&#39;, &#39;MATH102&#39;, &#39;MATH109&#39;, &#39;MATH151&#39;]</title>
<path fill="none" stroke="black" d="M415.87,-275.98C432.55,-269.93 453.93,-262.18 467.8,-257.15"/>
<polygon fill="black" stroke="black" points="468.44,-258.78 472.54,-255.43 467.24,-255.49 468.44,-258.78"/>
</g>
<!-- PHYS110 -->
<g id="node9" class="node">
<title>PHYS110</title>
<path fill="#82a931" stroke="#030a10" d="M411,-355C411,-355 369,-355 369,-355 366,-355 363,-352 363,-349 363,-349 363,-343 363,-343 363,-340 366,-337 369,-337 369,-337 411,-337 411,-337 414,-337 417,-340 417,-343 417,-343 417,-349 417,-349 417,-352 414,-355 411,-355"/>
<text text-anchor="middle" x="390" y="-343.8" font-family="Times,serif" font-size="9.00">PHYS110</text>
</g>
<!-- PHYS111 -->
<g id="node16" class="node">
<title>PHYS111</title>
<path fill="#34af8a" stroke="#030a10" d="M599,-336C599,-336 557,-336 557,-336 554,-336 551,-333 551,-330 551,-330 551,-324 551,-324 551,-321 554,-318 557,-318 557,-318 599,-318 599,-318 602,-318 605,-321 605,-324 605,-324 605,-330 605,-330 605,-333 602,-336 599,-336"/>
<text text-anchor="middle" x="578" y="-324.8" font-family="Times,serif" font-size="9.00">PHYS111</text>
</g>
<!-- PHYS110&#45;&gt;PHYS111 -->
<g id="edge28" class="edge">
<title>PHYS110&#45;&gt;PHYS111</title>
<path fill="none" stroke="black" d="M417.25,-343.32C451.04,-339.87 509.67,-333.88 545.73,-330.19"/>
<polygon fill="black" stroke="black" points="546.08,-331.92 550.88,-329.67 545.73,-328.44 546.08,-331.92"/>
</g>
<!-- 1 of [&#39;PHYS102A&#39;, &#39;PHYS110&#39;, &#39;PHYS120&#39;] -->
<g id="node26" class="node">
<title>1 of [&#39;PHYS102A&#39;, &#39;PHYS110&#39;, &#39;PHYS120&#39;]</title>
<ellipse fill="#dfe6e9" stroke="#030a10" cx="483" cy="-392" rx="11" ry="11"/>
<text text-anchor="middle" x="483" y="-388.9" font-family="Times,serif" font-size="12.00">1</text>
</g>
<!-- PHYS110&#45;&gt;1 of [&#39;PHYS102A&#39;, &#39;PHYS110&#39;, &#39;PHYS120&#39;] -->
<g id="edge12" class="edge">
<title>PHYS110&#45;&gt;1 of [&#39;PHYS102A&#39;, &#39;PHYS110&#39;, &#39;PHYS120&#39;]</title>
<path fill="none" stroke="black" d="M409.91,-355.03C412.63,-356.35 415.39,-357.7 418,-359 435.38,-367.66 455.24,-377.97 468.17,-384.73"/>
<polygon fill="black" stroke="black" points="467.68,-386.45 472.93,-387.22 469.31,-383.35 467.68,-386.45"/>
</g>
<!-- 1 of [&#39;PHYS102A&#39;, &#39;PHYS110&#39;, &#39;PHYS112&#39;, &#39;PHYS120&#39;] -->
<g id="node44" class="node">
<title>1 of [&#39;PHYS102A&#39;, &#39;PHYS110&#39;, &#39;PHYS112&#39;, &#39;PHYS120&#39;]</title>
<ellipse fill="#dfe6e9" stroke="#030a10" cx="483" cy="-363" rx="11" ry="11"/>
<text text-anchor="middle" x="483" y="-359.9" font-family="Times,serif" font-size="12.00">1</text>
</g>
<!-- PHYS110&#45;&gt;1 of [&#39;PHYS102A&#39;, &#39;PHYS110&#39;, &#39;PHYS112&#39;, &#39;PHYS120&#39;] -->
<g id="edge53" class="edge">
<title>PHYS110&#45;&gt;1 of [&#39;PHYS102A&#39;, &#39;PHYS110&#39;, &#39;PHYS112&#39;, &#39;PHYS120&#39;]</title>
<path fill="none" stroke="black" d="M417.32,-350.92C433.45,-353.93 453.51,-357.68 466.98,-360.19"/>
<polygon fill="black" stroke="black" points="466.73,-361.93 471.97,-361.13 467.37,-358.49 466.73,-361.93"/>
</g>
<!-- EOS202 -->
<g id="node10" class="node">
<title>EOS202</title>
<path fill="#37aabb" stroke="#030a10" d="M504,-106C504,-106 462,-106 462,-106 459,-106 456,-103 456,-100 456,-100 456,-94 456,-94 456,-91 459,-88 462,-88 462,-88 504,-88 504,-88 507,-88 510,-91 510,-94 510,-94 510,-100 510,-100 510,-103 507,-106 504,-106"/>
<text text-anchor="middle" x="483" y="-94.8" font-family="Times,serif" font-size="9.00">EOS202</text>
</g>
<!-- EOS410 -->
<g id="node35" class="node">
<title>EOS410</title>
<path fill="#8197f4" stroke="#030a10" d="M600,-107.5C600,-107.5 556,-107.5 556,-107.5 552.5,-107.5 549,-104 549,-100.5 549,-100.5 549,-93.5 549,-93.5 549,-90 552.5,-86.5 556,-86.5 556,-86.5 600,-86.5 600,-86.5 603.5,-86.5 607,-90 607,-93.5 607,-93.5 607,-100.5 607,-100.5 607,-104 603.5,-107.5 600,-107.5"/>
<text text-anchor="middle" x="578" y="-93.9" font-family="Times,serif" font-size="12.00">EOS410</text>
</g>
<!-- EOS202&#45;&gt;EOS410 -->
<g id="edge34" class="edge">
<title>EOS202&#45;&gt;EOS410</title>
<path fill="none" stroke="black" d="M510.4,-97C520.74,-97 532.72,-97 543.64,-97"/>
<polygon fill="black" stroke="black" points="543.91,-98.75 548.91,-97 543.91,-95.25 543.91,-98.75"/>
</g>
<!-- EOS240 -->
<g id="node11" class="node">
<title>EOS240</title>
<path fill="#37aabb" stroke="#030a10" d="M599,-161C599,-161 557,-161 557,-161 554,-161 551,-158 551,-155 551,-155 551,-149 551,-149 551,-146 554,-143 557,-143 557,-143 599,-143 599,-143 602,-143 605,-146 605,-149 605,-149 605,-155 605,-155 605,-158 602,-161 599,-161"/>
<text text-anchor="middle" x="578" y="-149.8" font-family="Times,serif" font-size="9.00">EOS240</text>
</g>
<!-- EOS335 -->
<g id="node32" class="node">
<title>EOS335</title>
<path fill="#8197f4" stroke="#030a10" d="M695,-165.5C695,-165.5 651,-165.5 651,-165.5 647.5,-165.5 644,-162 644,-158.5 644,-158.5 644,-151.5 644,-151.5 644,-148 647.5,-144.5 651,-144.5 651,-144.5 695,-144.5 695,-144.5 698.5,-144.5 702,-148 702,-151.5 702,-151.5 702,-158.5 702,-158.5 702,-162 698.5,-165.5 695,-165.5"/>
<text text-anchor="middle" x="673" y="-151.9" font-family="Times,serif" font-size="12.00">EOS335</text>
</g>
<!-- EOS240&#45;&gt;EOS335 -->
<g id="edge33" class="edge">
<title>EOS240&#45;&gt;EOS335</title>
<path fill="none" stroke="black" d="M605.4,-152.85C615.74,-153.19 627.72,-153.57 638.64,-153.92"/>
<polygon fill="black" stroke="black" points="638.85,-155.68 643.91,-154.09 638.97,-152.18 638.85,-155.68"/>
</g>
<!-- 1 of [&#39;EOS201&#39;, &#39;EOS240&#39;] -->
<g id="node47" class="node">
<title>1 of [&#39;EOS201&#39;, &#39;EOS240&#39;]</title>
<ellipse fill="#dfe6e9" stroke="#030a10" cx="673" cy="-126" rx="11" ry="11"/>
<text text-anchor="middle" x="673" y="-122.9" font-family="Times,serif" font-size="12.00">1</text>
</g>
<!-- EOS240&#45;&gt;1 of [&#39;EOS201&#39;, &#39;EOS240&#39;] -->
<g id="edge63" class="edge">
<title>EOS240&#45;&gt;1 of [&#39;EOS201&#39;, &#39;EOS240&#39;]</title>
<path fill="none" stroke="black" d="M605.4,-144.62C622.09,-139.95 643.05,-134.09 656.95,-130.21"/>
<polygon fill="black" stroke="black" points="657.75,-131.8 662.09,-128.77 656.8,-128.43 657.75,-131.8"/>
</g>
<!-- EOS205 -->
<g id="node12" class="node">
<title>EOS205</title>
<path fill="#9fa7be" stroke="#030a10" d="M504,-161C504,-161 462,-161 462,-161 459,-161 456,-158 456,-155 456,-155 456,-149 456,-149 456,-146 459,-143 462,-143 462,-143 504,-143 504,-143 507,-143 510,-146 510,-149 510,-149 510,-155 510,-155 510,-158 507,-161 504,-161"/>
<text text-anchor="middle" x="483" y="-149.8" font-family="Times,serif" font-size="9.00">EOS205</text>
</g>
<!-- EOS205&#45;&gt;EOS240 -->
<g id="edge31" class="edge">
<title>EOS205&#45;&gt;EOS240</title>
<path fill="none" stroke="black" d="M510.4,-152C521.39,-152 534.24,-152 545.7,-152"/>
<polygon fill="black" stroke="black" points="545.85,-153.75 550.85,-152 545.85,-150.25 545.85,-153.75"/>
</g>
<!-- EOS201 -->
<g id="node20" class="node">
<title>EOS201</title>
<path fill="#37aabb" stroke="#030a10" d="M599,-135C599,-135 557,-135 557,-135 554,-135 551,-132 551,-129 551,-129 551,-123 551,-123 551,-120 554,-117 557,-117 557,-117 599,-117 599,-117 602,-117 605,-120 605,-123 605,-123 605,-129 605,-129 605,-132 602,-135 599,-135"/>
<text text-anchor="middle" x="578" y="-123.8" font-family="Times,serif" font-size="9.00">EOS201</text>
</g>
<!-- EOS205&#45;&gt;EOS201 -->
<g id="edge2" class="edge">
<title>EOS205&#45;&gt;EOS201</title>
<path fill="none" stroke="black" d="M510.4,-144.62C521.49,-141.52 534.47,-137.89 546.01,-134.66"/>
<polygon fill="black" stroke="black" points="546.51,-136.34 550.85,-133.31 545.57,-132.97 546.51,-136.34"/>
</g>
<!-- MATH109 -->
<g id="node13" class="node">
<title>MATH109</title>
<path fill="#c69432" stroke="#030a10" d="M246,-261C246,-261 202,-261 202,-261 199,-261 196,-258 196,-255 196,-255 196,-249 196,-249 196,-246 199,-243 202,-243 202,-243 246,-243 246,-243 249,-243 252,-246 252,-249 252,-249 252,-255 252,-255 252,-258 249,-261 246,-261"/>
<text text-anchor="middle" x="224" y="-249.8" font-family="Times,serif" font-size="9.00">MATH109</text>
</g>
<!-- 1 of [&#39;MATH100&#39;, &#39;MATH109&#39;] -->
<g id="node23" class="node">
<title>1 of [&#39;MATH100&#39;, &#39;MATH109&#39;]</title>
<ellipse fill="#dfe6e9" stroke="#030a10" cx="307" cy="-298" rx="11" ry="11"/>
<text text-anchor="middle" x="307" y="-294.9" font-family="Times,serif" font-size="12.00">1</text>
</g>
<!-- MATH109&#45;&gt;1 of [&#39;MATH100&#39;, &#39;MATH109&#39;] -->
<g id="edge5" class="edge">
<title>MATH109&#45;&gt;1 of [&#39;MATH100&#39;, &#39;MATH109&#39;]</title>
<path fill="none" stroke="black" d="M244.58,-261.14C247.1,-262.4 249.62,-263.71 252,-265 266.35,-272.82 282.26,-282.69 293.07,-289.59"/>
<polygon fill="black" stroke="black" points="292.21,-291.12 297.37,-292.35 294.1,-288.18 292.21,-291.12"/>
</g>
<!-- 1 of [&#39;MATH100&#39;, &#39;MATH102&#39;, &#39;MATH109&#39;] -->
<g id="node24" class="node">
<title>1 of [&#39;MATH100&#39;, &#39;MATH102&#39;, &#39;MATH109&#39;]</title>
<ellipse fill="#dfe6e9" stroke="#030a10" cx="307" cy="-254" rx="11" ry="11"/>
<text text-anchor="middle" x="307" y="-250.9" font-family="Times,serif" font-size="12.00">1</text>
</g>
<!-- MATH109&#45;&gt;1 of [&#39;MATH100&#39;, &#39;MATH102&#39;, &#39;MATH109&#39;] -->
<g id="edge9" class="edge">
<title>MATH109&#45;&gt;1 of [&#39;MATH100&#39;, &#39;MATH102&#39;, &#39;MATH109&#39;]</title>
<path fill="none" stroke="black" d="M252.42,-252.68C265.09,-252.99 279.66,-253.35 290.41,-253.61"/>
<polygon fill="black" stroke="black" points="290.61,-255.37 295.65,-253.74 290.69,-251.87 290.61,-255.37"/>
</g>
<!-- MATH109&#45;&gt;2 of [&#39;MATH100&#39;, &#39;MATH101&#39;, &#39;MATH102&#39;, &#39;MATH109&#39;, &#39;MATH151&#39;] -->
<g id="edge41" class="edge">
<title>MATH109&#45;&gt;2 of [&#39;MATH100&#39;, &#39;MATH101&#39;, &#39;MATH102&#39;, &#39;MATH109&#39;, &#39;MATH151&#39;]</title>
<path fill="none" stroke="black" d="M252.13,-245.67C263.19,-243.4 276.14,-241.12 288,-240 304.81,-238.41 309.12,-239.35 326,-240 353.07,-241.04 432.66,-247.74 466.49,-250.65"/>
<polygon fill="black" stroke="black" points="466.76,-252.43 471.89,-251.12 467.06,-248.95 466.76,-252.43"/>
</g>
<!-- PHYS102B -->
<g id="node14" class="node">
<title>PHYS102B</title>
<path fill="#34af8a" stroke="#030a10" d="M602,-378C602,-378 554,-378 554,-378 551,-378 548,-375 548,-372 548,-372 548,-366 548,-366 548,-363 551,-360 554,-360 554,-360 602,-360 602,-360 605,-360 608,-363 608,-366 608,-366 608,-372 608,-372 608,-375 605,-378 602,-378"/>
<text text-anchor="middle" x="578" y="-366.8" font-family="Times,serif" font-size="9.00">PHYS102B</text>
</g>
<!-- 1 of [&#39;PHYS102B&#39;, &#39;PHYS111&#39;, &#39;PHYS120&#39;] -->
<g id="node43" class="node">
<title>1 of [&#39;PHYS102B&#39;, &#39;PHYS111&#39;, &#39;PHYS120&#39;]</title>
<ellipse fill="#dfe6e9" stroke="#030a10" cx="673" cy="-369" rx="11" ry="11"/>
<text text-anchor="middle" x="673" y="-365.9" font-family="Times,serif" font-size="12.00">1</text>
</g>
<!-- PHYS102B&#45;&gt;1 of [&#39;PHYS102B&#39;, &#39;PHYS111&#39;, &#39;PHYS120&#39;] -->
<g id="edge45" class="edge">
<title>PHYS102B&#45;&gt;1 of [&#39;PHYS102B&#39;, &#39;PHYS111&#39;, &#39;PHYS120&#39;]</title>
<path fill="none" stroke="black" d="M608.17,-369C624.2,-369 643.45,-369 656.58,-369"/>
<polygon fill="black" stroke="black" points="656.81,-370.75 661.81,-369 656.81,-367.25 656.81,-370.75"/>
</g>
<!-- 1 of [&#39;PHYS102B&#39;, &#39;PHYS111&#39;, &#39;PHYS112&#39;, &#39;PHYS130&#39;] -->
<g id="node46" class="node">
<title>1 of [&#39;PHYS102B&#39;, &#39;PHYS111&#39;, &#39;PHYS112&#39;, &#39;PHYS130&#39;]</title>
<ellipse fill="#dfe6e9" stroke="#030a10" cx="673" cy="-306" rx="11" ry="11"/>
<text text-anchor="middle" x="673" y="-302.9" font-family="Times,serif" font-size="12.00">1</text>
</g>
<!-- PHYS102B&#45;&gt;1 of [&#39;PHYS102B&#39;, &#39;PHYS111&#39;, &#39;PHYS112&#39;, &#39;PHYS130&#39;] -->
<g id="edge57" class="edge">
<title>PHYS102B&#45;&gt;1 of [&#39;PHYS102B&#39;, &#39;PHYS111&#39;, &#39;PHYS112&#39;, &#39;PHYS130&#39;]</title>
<path fill="none" stroke="black" d="M592.32,-359.97C610.1,-347.93 641.39,-326.74 659,-314.81"/>
<polygon fill="black" stroke="black" points="660.01,-316.24 663.17,-311.98 658.05,-313.34 660.01,-316.24"/>
</g>
<!-- MATH100 -->
<g id="node15" class="node">
<title>MATH100</title>
<path fill="#c69432" stroke="#030a10" d="M246,-286C246,-286 202,-286 202,-286 199,-286 196,-283 196,-280 196,-280 196,-274 196,-274 196,-271 199,-268 202,-268 202,-268 246,-268 246,-268 249,-268 252,-271 252,-274 252,-274 252,-280 252,-280 252,-283 249,-286 246,-286"/>
<text text-anchor="middle" x="224" y="-274.8" font-family="Times,serif" font-size="9.00">MATH100</text>
</g>
<!-- MATH100&#45;&gt;1 of [&#39;MATH100&#39;, &#39;MATH109&#39;] -->
<g id="edge4" class="edge">
<title>MATH100&#45;&gt;1 of [&#39;MATH100&#39;, &#39;MATH109&#39;]</title>
<path fill="none" stroke="black" d="M252.42,-284.11C265.36,-287.46 280.29,-291.33 291.1,-294.14"/>
<polygon fill="black" stroke="black" points="290.77,-295.86 296.05,-295.42 291.65,-292.47 290.77,-295.86"/>
</g>
<!-- MATH100&#45;&gt;1 of [&#39;MATH100&#39;, &#39;MATH102&#39;, &#39;MATH109&#39;] -->
<g id="edge7" class="edge">
<title>MATH100&#45;&gt;1 of [&#39;MATH100&#39;, &#39;MATH102&#39;, &#39;MATH109&#39;]</title>
<path fill="none" stroke="black" d="M252.42,-269.21C265.36,-265.54 280.29,-261.3 291.1,-258.23"/>
<polygon fill="black" stroke="black" points="291.72,-259.88 296.05,-256.83 290.76,-256.51 291.72,-259.88"/>
</g>
<!-- MATH100&#45;&gt;2 of [&#39;MATH100&#39;, &#39;MATH101&#39;, &#39;MATH102&#39;, &#39;MATH109&#39;, &#39;MATH151&#39;] -->
<g id="edge38" class="edge">
<title>MATH100&#45;&gt;2 of [&#39;MATH100&#39;, &#39;MATH101&#39;, &#39;MATH102&#39;, &#39;MATH109&#39;, &#39;MATH151&#39;]</title>
<path fill="none" stroke="black" d="M252.02,-274.69C272.36,-272.93 300.94,-270.4 326,-268 377.58,-263.06 438.68,-256.62 466.65,-253.64"/>
<polygon fill="black" stroke="black" points="467,-255.37 471.78,-253.1 466.63,-251.89 467,-255.37"/>
</g>
<!-- PHYS111&#45;&gt;1 of [&#39;PHYS102B&#39;, &#39;PHYS111&#39;, &#39;PHYS120&#39;] -->
<g id="edge46" class="edge">
<title>PHYS111&#45;&gt;1 of [&#39;PHYS102B&#39;, &#39;PHYS111&#39;, &#39;PHYS120&#39;]</title>
<path fill="none" stroke="black" d="M599.18,-336.11C616.84,-344.09 642.06,-355.48 657.71,-362.55"/>
<polygon fill="black" stroke="black" points="657.35,-364.3 662.62,-364.77 658.79,-361.11 657.35,-364.3"/>
</g>
<!-- PHYS111&#45;&gt;1 of [&#39;PHYS102B&#39;, &#39;PHYS111&#39;, &#39;PHYS112&#39;, &#39;PHYS130&#39;] -->
<g id="edge58" class="edge">
<title>PHYS111&#45;&gt;1 of [&#39;PHYS102B&#39;, &#39;PHYS111&#39;, &#39;PHYS112&#39;, &#39;PHYS130&#39;]</title>
<path fill="none" stroke="black" d="M605.4,-321.04C622.09,-317.27 643.05,-312.54 656.95,-309.4"/>
<polygon fill="black" stroke="black" points="657.6,-311.05 662.09,-308.24 656.83,-307.63 657.6,-311.05"/>
</g>
<!-- EOS120 -->
<g id="node17" class="node">
<title>EOS120</title>
<path fill="#9fa7be" stroke="#030a10" d="M411,-126C411,-126 369,-126 369,-126 366,-126 363,-123 363,-120 363,-120 363,-114 363,-114 363,-111 366,-108 369,-108 369,-108 411,-108 411,-108 414,-108 417,-111 417,-114 417,-114 417,-120 417,-120 417,-123 414,-126 411,-126"/>
<text text-anchor="middle" x="390" y="-114.8" font-family="Times,serif" font-size="9.00">EOS120</text>
</g>
<!-- EOS120&#45;&gt;EOS202 -->
<g id="edge24" class="edge">
<title>EOS120&#45;&gt;EOS202</title>
<path fill="none" stroke="black" d="M417.32,-111.22C427.79,-108.91 439.92,-106.25 450.82,-103.85"/>
<polygon fill="black" stroke="black" points="451.23,-105.55 455.74,-102.77 450.48,-102.14 451.23,-105.55"/>
</g>
<!-- EOS120&#45;&gt;EOS240 -->
<g id="edge30" class="edge">
<title>EOS120&#45;&gt;EOS240</title>
<path fill="none" stroke="black" d="M417.25,-121.94C451.04,-128.3 509.67,-139.33 545.73,-146.12"/>
<polygon fill="black" stroke="black" points="545.64,-147.88 550.88,-147.08 546.29,-144.44 545.64,-147.88"/>
</g>
<!-- EOS120&#45;&gt;EOS205 -->
<g id="edge22" class="edge">
<title>EOS120&#45;&gt;EOS205</title>
<path fill="none" stroke="black" d="M414.43,-126.01C426.34,-130.59 440.9,-136.19 453.45,-141.02"/>
<polygon fill="black" stroke="black" points="453.03,-142.73 458.33,-142.9 454.29,-139.47 453.03,-142.73"/>
</g>
<!-- EOS120&#45;&gt;EOS201 -->
<g id="edge1" class="edge">
<title>EOS120&#45;&gt;EOS201</title>
<path fill="none" stroke="black" d="M417.25,-118.27C451.04,-119.91 509.67,-122.74 545.73,-124.49"/>
<polygon fill="black" stroke="black" points="545.8,-126.24 550.88,-124.74 545.97,-122.75 545.8,-126.24"/>
</g>
<!-- EOS313 -->
<g id="node36" class="node">
<title>EOS313</title>
<path fill="#8197f4" stroke="#030a10" d="M505,-80.5C505,-80.5 461,-80.5 461,-80.5 457.5,-80.5 454,-77 454,-73.5 454,-73.5 454,-66.5 454,-66.5 454,-63 457.5,-59.5 461,-59.5 461,-59.5 505,-59.5 505,-59.5 508.5,-59.5 512,-63 512,-66.5 512,-66.5 512,-73.5 512,-73.5 512,-77 508.5,-80.5 505,-80.5"/>
<text text-anchor="middle" x="483" y="-66.9" font-family="Times,serif" font-size="12.00">EOS313</text>
</g>
<!-- EOS120&#45;&gt;EOS313 -->
<g id="edge35" class="edge">
<title>EOS120&#45;&gt;EOS313</title>
<path fill="none" stroke="black" d="M408.07,-107.95C420.72,-101.27 438.39,-91.99 454,-84 454.7,-83.64 455.4,-83.28 456.11,-82.92"/>
<polygon fill="black" stroke="black" points="457.21,-84.33 460.88,-80.51 455.63,-81.21 457.21,-84.33"/>
</g>
<!-- CHEM102 -->
<g id="node18" class="node">
<title>CHEM102</title>
<path fill="#9fa7be" stroke="#030a10" d="M412,-183C412,-183 368,-183 368,-183 365,-183 362,-180 362,-177 362,-177 362,-171 362,-171 362,-168 365,-165 368,-165 368,-165 412,-165 412,-165 415,-165 418,-168 418,-171 418,-171 418,-177 418,-177 418,-180 415,-183 412,-183"/>
<text text-anchor="middle" x="390" y="-171.8" font-family="Times,serif" font-size="9.00">CHEM102</text>
</g>
<!-- CHEM102&#45;&gt;EOS240 -->
<g id="edge32" class="edge">
<title>CHEM102&#45;&gt;EOS240</title>
<path fill="none" stroke="black" d="M418.48,-172.52C443.06,-171 480.03,-168.26 512,-164 523.05,-162.53 535.06,-160.45 545.73,-158.43"/>
<polygon fill="black" stroke="black" points="546.26,-160.11 550.85,-157.45 545.6,-156.67 546.26,-160.11"/>
</g>
<!-- CHEM102&#45;&gt;EOS205 -->
<g id="edge23" class="edge">
<title>CHEM102&#45;&gt;EOS205</title>
<path fill="none" stroke="black" d="M418.3,-167.4C428.56,-164.92 440.3,-162.08 450.88,-159.52"/>
<polygon fill="black" stroke="black" points="451.52,-161.17 455.96,-158.29 450.69,-157.77 451.52,-161.17"/>
</g>
<!-- EOS311 -->
<g id="node38" class="node">
<title>EOS311</title>
<path fill="#8197f4" stroke="#030a10" d="M789,-262.5C789,-262.5 745,-262.5 745,-262.5 741.5,-262.5 738,-259 738,-255.5 738,-255.5 738,-248.5 738,-248.5 738,-245 741.5,-241.5 745,-241.5 745,-241.5 789,-241.5 789,-241.5 792.5,-241.5 796,-245 796,-248.5 796,-248.5 796,-255.5 796,-255.5 796,-259 792.5,-262.5 789,-262.5"/>
<text text-anchor="middle" x="767" y="-248.9" font-family="Times,serif" font-size="12.00">EOS311</text>
</g>
<!-- CHEM102&#45;&gt;EOS311 -->
<g id="edge49" class="edge">
<title>CHEM102&#45;&gt;EOS311</title>
<path fill="none" stroke="black" d="M418.45,-173.85C484.6,-173.84 651.09,-175.96 702,-197 723.11,-205.72 742.24,-224.21 753.97,-237.34"/>
<polygon fill="black" stroke="black" points="752.76,-238.62 757.37,-241.23 755.4,-236.31 752.76,-238.62"/>
</g>
<!-- PHYS120 -->
<g id="node19" class="node">
<title>PHYS120</title>
<path fill="#82a931" stroke="#030a10" d="M411,-401C411,-401 369,-401 369,-401 366,-401 363,-398 363,-395 363,-395 363,-389 363,-389 363,-386 366,-383 369,-383 369,-383 411,-383 411,-383 414,-383 417,-386 417,-389 417,-389 417,-395 417,-395 417,-398 414,-401 411,-401"/>
<text text-anchor="middle" x="390" y="-389.8" font-family="Times,serif" font-size="9.00">PHYS120</text>
</g>
<!-- PHYS120&#45;&gt;PHYS130 -->
<g id="edge26" class="edge">
<title>PHYS120&#45;&gt;PHYS130</title>
<path fill="none" stroke="black" d="M412.13,-382.87C414.18,-381.68 416.18,-380.39 418,-379 440.81,-361.66 461.55,-335.16 472.91,-319.31"/>
<polygon fill="black" stroke="black" points="474.4,-320.23 475.86,-315.13 471.54,-318.21 474.4,-320.23"/>
</g>
<!-- PHYS120&#45;&gt;1 of [&#39;PHYS102A&#39;, &#39;PHYS110&#39;, &#39;PHYS120&#39;] -->
<g id="edge13" class="edge">
<title>PHYS120&#45;&gt;1 of [&#39;PHYS102A&#39;, &#39;PHYS110&#39;, &#39;PHYS120&#39;]</title>
<path fill="none" stroke="black" d="M417.32,-392C433.3,-392 453.15,-392 466.62,-392"/>
<polygon fill="black" stroke="black" points="466.97,-393.75 471.97,-392 466.97,-390.25 466.97,-393.75"/>
</g>
<!-- PHYS120&#45;&gt;1 of [&#39;PHYS102B&#39;, &#39;PHYS111&#39;, &#39;PHYS120&#39;] -->
<g id="edge47" class="edge">
<title>PHYS120&#45;&gt;1 of [&#39;PHYS102B&#39;, &#39;PHYS111&#39;, &#39;PHYS120&#39;]</title>
<path fill="none" stroke="black" d="M417.15,-399.15C428.39,-401.88 441.75,-404.66 454,-406 531.15,-414.47 622.42,-386.48 657.38,-374.34"/>
<polygon fill="black" stroke="black" points="658.36,-375.85 662.49,-372.54 657.2,-372.55 658.36,-375.85"/>
</g>
<!-- PHYS120&#45;&gt;1 of [&#39;PHYS102A&#39;, &#39;PHYS110&#39;, &#39;PHYS112&#39;, &#39;PHYS120&#39;] -->
<g id="edge55" class="edge">
<title>PHYS120&#45;&gt;1 of [&#39;PHYS102A&#39;, &#39;PHYS110&#39;, &#39;PHYS112&#39;, &#39;PHYS120&#39;]</title>
<path fill="none" stroke="black" d="M417.32,-383.61C433.63,-378.41 453.97,-371.93 467.44,-367.64"/>
<polygon fill="black" stroke="black" points="468.18,-369.24 472.41,-366.06 467.12,-365.91 468.18,-369.24"/>
</g>
<!-- EOS201&#45;&gt;1 of [&#39;EOS201&#39;, &#39;EOS240&#39;] -->
<g id="edge62" class="edge">
<title>EOS201&#45;&gt;1 of [&#39;EOS201&#39;, &#39;EOS240&#39;]</title>
<path fill="none" stroke="black" d="M605.4,-126C621.9,-126 642.58,-126 656.48,-126"/>
<polygon fill="black" stroke="black" points="656.63,-127.75 661.63,-126 656.63,-124.25 656.63,-127.75"/>
</g>
<!-- CHEM101 -->
<g id="node21" class="node">
<title>CHEM101</title>
<path fill="#f77189" stroke="#030a10" d="M246,-194C246,-194 202,-194 202,-194 199,-194 196,-191 196,-188 196,-188 196,-182 196,-182 196,-179 199,-176 202,-176 202,-176 246,-176 246,-176 249,-176 252,-179 252,-182 252,-182 252,-188 252,-188 252,-191 249,-194 246,-194"/>
<text text-anchor="middle" x="224" y="-182.8" font-family="Times,serif" font-size="9.00">CHEM101</text>
</g>
<!-- 1 of [&#39;CHEM101&#39;, &#39;CHEM150&#39;] -->
<g id="node30" class="node">
<title>1 of [&#39;CHEM101&#39;, &#39;CHEM150&#39;]</title>
<ellipse fill="#dfe6e9" stroke="#030a10" cx="307" cy="-187" rx="11" ry="11"/>
<text text-anchor="middle" x="307" y="-183.9" font-family="Times,serif" font-size="12.00">1</text>
</g>
<!-- CHEM101&#45;&gt;1 of [&#39;CHEM101&#39;, &#39;CHEM150&#39;] -->
<g id="edge18" class="edge">
<title>CHEM101&#45;&gt;1 of [&#39;CHEM101&#39;, &#39;CHEM150&#39;]</title>
<path fill="none" stroke="black" d="M252.42,-185.68C265.09,-185.99 279.66,-186.35 290.41,-186.61"/>
<polygon fill="black" stroke="black" points="290.61,-188.37 295.65,-186.74 290.69,-184.87 290.61,-188.37"/>
</g>
<!-- PHYS130&#45;&gt;1 of [&#39;PHYS102B&#39;, &#39;PHYS111&#39;, &#39;PHYS112&#39;, &#39;PHYS130&#39;] -->
<g id="edge60" class="edge">
<title>PHYS130&#45;&gt;1 of [&#39;PHYS102B&#39;, &#39;PHYS111&#39;, &#39;PHYS112&#39;, &#39;PHYS130&#39;]</title>
<path fill="none" stroke="black" d="M510.14,-306C550.01,-306 624.74,-306 656.78,-306"/>
<polygon fill="black" stroke="black" points="656.9,-307.75 661.9,-306 656.9,-304.25 656.9,-307.75"/>
</g>
<!-- 1 of [&#39;MATH100&#39;, &#39;MATH109&#39;]&#45;&gt;MATH101 -->
<g id="edge3" class="edge">
<title>1 of [&#39;MATH100&#39;, &#39;MATH109&#39;]&#45;&gt;MATH101</title>
<path fill="none" stroke="black" d="M317.93,-296.41C327.64,-294.85 342.95,-292.39 356.87,-290.16"/>
<polygon fill="black" stroke="black" points="357.27,-291.86 361.93,-289.34 356.72,-288.41 357.27,-291.86"/>
</g>
<!-- 1 of [&#39;MATH100&#39;, &#39;MATH109&#39;]&#45;&gt;PHYS120 -->
<g id="edge21" class="edge">
<title>1 of [&#39;MATH100&#39;, &#39;MATH109&#39;]&#45;&gt;PHYS120</title>
<path fill="none" stroke="black" d="M312.33,-307.7C320.14,-324.24 338.02,-358.15 362,-379 362.41,-379.36 362.84,-379.71 363.27,-380.05"/>
<polygon fill="black" stroke="black" points="362.3,-381.51 367.4,-382.94 364.3,-378.64 362.3,-381.51"/>
</g>
<!-- 1 of [&#39;MATH100&#39;, &#39;MATH102&#39;, &#39;MATH109&#39;]&#45;&gt;PHYS110 -->
<g id="edge6" class="edge">
<title>1 of [&#39;MATH100&#39;, &#39;MATH102&#39;, &#39;MATH109&#39;]&#45;&gt;PHYS110</title>
<path fill="none" stroke="black" d="M313.55,-262.94C324.77,-280.84 350.11,-320.29 362,-331 363.05,-331.94 364.16,-332.85 365.32,-333.72"/>
<polygon fill="black" stroke="black" points="364.84,-335.51 369.96,-336.87 366.81,-332.61 364.84,-335.51"/>
</g>
<!-- 1 of [&#39;MATH100&#39;, &#39;MATH102&#39;, &#39;MATH109&#39;]&#45;&gt;PHYS111 -->
<g id="edge29" class="edge">
<title>1 of [&#39;MATH100&#39;, &#39;MATH102&#39;, &#39;MATH109&#39;]&#45;&gt;PHYS111</title>
<path fill="none" stroke="black" d="M314.09,-262.85C325.36,-278.93 349.47,-311.86 362,-318 393.38,-333.38 493.71,-331.09 545.46,-328.74"/>
<polygon fill="black" stroke="black" points="545.7,-330.48 550.62,-328.5 545.54,-326.98 545.7,-330.48"/>
</g>
<!-- 1 of [&#39;MATH100&#39;, &#39;MATH102&#39;, &#39;MATH109&#39;]&#45;&gt;CHEM102 -->
<g id="edge15" class="edge">
<title>1 of [&#39;MATH100&#39;, &#39;MATH102&#39;, &#39;MATH109&#39;]&#45;&gt;CHEM102</title>
<path fill="none" stroke="black" d="M315.48,-246.62C329.31,-232.95 359.06,-203.57 376.17,-186.67"/>
<polygon fill="black" stroke="black" points="377.5,-187.82 379.83,-183.06 375.04,-185.33 377.5,-187.82"/>
</g>
<!-- MATH102 -->
<g id="node25" class="node">
<title>MATH102</title>
<path fill="white" stroke="#030a10" stroke-opacity="0.125490" d="M238.33,-236C238.33,-236 209.67,-236 209.67,-236 207.33,-236 205,-233.67 205,-231.33 205,-231.33 205,-226.67 205,-226.67 205,-224.33 207.33,-222 209.67,-222 209.67,-222 238.33,-222 238.33,-222 240.67,-222 243,-224.33 243,-226.67 243,-226.67 243,-231.33 243,-231.33 243,-233.67 240.67,-236 238.33,-236"/>
<text text-anchor="middle" x="224" y="-228" font-family="Times,serif" font-size="5.00">MATH102</text>
</g>
<!-- MATH102&#45;&gt;1 of [&#39;MATH100&#39;, &#39;MATH102&#39;, &#39;MATH109&#39;] -->
<g id="edge8" class="edge">
<title>MATH102&#45;&gt;1 of [&#39;MATH100&#39;, &#39;MATH102&#39;, &#39;MATH109&#39;]</title>
<path fill="none" stroke="black" d="M243.38,-234.67C257.88,-239.15 277.85,-245.31 291.3,-249.46"/>
<polygon fill="black" stroke="black" points="291,-251.2 296.29,-251 292.03,-247.86 291,-251.2"/>
</g>
<!-- MATH102&#45;&gt;2 of [&#39;MATH100&#39;, &#39;MATH101&#39;, &#39;MATH102&#39;, &#39;MATH109&#39;, &#39;MATH151&#39;] -->
<g id="edge40" class="edge">
<title>MATH102&#45;&gt;2 of [&#39;MATH100&#39;, &#39;MATH101&#39;, &#39;MATH102&#39;, &#39;MATH109&#39;, &#39;MATH151&#39;]</title>
<path fill="none" stroke="black" d="M243.1,-225.33C277.62,-219 355,-207.97 418,-222 436.61,-226.15 456.21,-236.31 468.74,-243.66"/>
<polygon fill="black" stroke="black" points="468.14,-245.35 473.33,-246.42 469.94,-242.34 468.14,-245.35"/>
</g>
<!-- 1 of [&#39;PHYS102A&#39;, &#39;PHYS110&#39;, &#39;PHYS120&#39;]&#45;&gt;PHYS102B -->
<g id="edge10" class="edge">
<title>1 of [&#39;PHYS102A&#39;, &#39;PHYS110&#39;, &#39;PHYS120&#39;]&#45;&gt;PHYS102B</title>
<path fill="none" stroke="black" d="M493.95,-389.54C505.5,-386.68 525.18,-381.82 542.48,-377.54"/>
<polygon fill="black" stroke="black" points="543.33,-379.13 547.77,-376.23 542.49,-375.73 543.33,-379.13"/>
</g>
<!-- EOS314 -->
<g id="node37" class="node">
<title>EOS314</title>
<path fill="#8197f4" stroke="#030a10" d="M789,-379.5C789,-379.5 745,-379.5 745,-379.5 741.5,-379.5 738,-376 738,-372.5 738,-372.5 738,-365.5 738,-365.5 738,-362 741.5,-358.5 745,-358.5 745,-358.5 789,-358.5 789,-358.5 792.5,-358.5 796,-362 796,-365.5 796,-365.5 796,-372.5 796,-372.5 796,-376 792.5,-379.5 789,-379.5"/>
<text text-anchor="middle" x="767" y="-365.9" font-family="Times,serif" font-size="12.00">EOS314</text>
</g>
<!-- 1 of [&#39;PHYS102A&#39;, &#39;PHYS110&#39;, &#39;PHYS120&#39;]&#45;&gt;EOS314 -->
<g id="edge43" class="edge">
<title>1 of [&#39;PHYS102A&#39;, &#39;PHYS110&#39;, &#39;PHYS120&#39;]&#45;&gt;EOS314</title>
<path fill="none" stroke="black" d="M494.05,-392.2C525.12,-392.7 622.36,-393.28 702,-383 712.09,-381.7 722.93,-379.6 732.78,-377.42"/>
<polygon fill="black" stroke="black" points="733.34,-379.08 737.83,-376.27 732.57,-375.67 733.34,-379.08"/>
</g>
<!-- PHYS102A -->
<g id="node27" class="node">
<title>PHYS102A</title>
<path fill="white" stroke="#030a10" stroke-opacity="0.125490" d="M405.83,-376C405.83,-376 374.17,-376 374.17,-376 371.83,-376 369.5,-373.67 369.5,-371.33 369.5,-371.33 369.5,-366.67 369.5,-366.67 369.5,-364.33 371.83,-362 374.17,-362 374.17,-362 405.83,-362 405.83,-362 408.17,-362 410.5,-364.33 410.5,-366.67 410.5,-366.67 410.5,-371.33 410.5,-371.33 410.5,-373.67 408.17,-376 405.83,-376"/>
<text text-anchor="middle" x="390" y="-368" font-family="Times,serif" font-size="5.00">PHYS102A</text>
</g>
<!-- PHYS102A&#45;&gt;1 of [&#39;PHYS102A&#39;, &#39;PHYS110&#39;, &#39;PHYS120&#39;] -->
<g id="edge11" class="edge">
<title>PHYS102A&#45;&gt;1 of [&#39;PHYS102A&#39;, &#39;PHYS110&#39;, &#39;PHYS120&#39;]</title>
<path fill="none" stroke="black" d="M410.75,-373.99C427.65,-378.26 451.63,-384.33 467,-388.21"/>
<polygon fill="black" stroke="black" points="466.59,-389.91 471.86,-389.44 467.45,-386.52 466.59,-389.91"/>
</g>
<!-- PHYS102A&#45;&gt;1 of [&#39;PHYS102A&#39;, &#39;PHYS110&#39;, &#39;PHYS112&#39;, &#39;PHYS120&#39;] -->
<g id="edge52" class="edge">
<title>PHYS102A&#45;&gt;1 of [&#39;PHYS102A&#39;, &#39;PHYS110&#39;, &#39;PHYS112&#39;, &#39;PHYS120&#39;]</title>
<path fill="none" stroke="black" d="M410.75,-367.7C427.51,-366.59 451.22,-365.03 466.6,-364.02"/>
<polygon fill="black" stroke="black" points="466.99,-365.74 471.86,-363.67 466.76,-362.25 466.99,-365.74"/>
</g>
<!-- MATH120 -->
<g id="node28" class="node">
<title>MATH120</title>
<path fill="white" stroke="#030a10" stroke-opacity="0.125490" d="M102.33,-259C102.33,-259 73.67,-259 73.67,-259 71.33,-259 69,-256.67 69,-254.33 69,-254.33 69,-249.67 69,-249.67 69,-247.33 71.33,-245 73.67,-245 73.67,-245 102.33,-245 102.33,-245 104.67,-245 107,-247.33 107,-249.67 107,-249.67 107,-254.33 107,-254.33 107,-256.67 104.67,-259 102.33,-259"/>
<text text-anchor="middle" x="88" y="-251" font-family="Times,serif" font-size="5.00">MATH120</text>
</g>
<!-- MATH120&#45;&gt;MATH109 -->
<g id="edge20" class="edge">
<title>MATH120&#45;&gt;MATH109</title>
<path fill="none" stroke="black" d="M107.07,-252C128.5,-252 164.62,-252 190.86,-252"/>
<polygon fill="black" stroke="black" points="190.96,-253.75 195.96,-252 190.96,-250.25 190.96,-253.75"/>
</g>
<!-- MATH120&#45;&gt;MATH100 -->
<g id="edge14" class="edge">
<title>MATH120&#45;&gt;MATH100</title>
<path fill="none" stroke="black" d="M107.29,-253.96C123.37,-255.83 147.35,-258.95 168,-263 175.46,-264.46 183.43,-266.32 190.91,-268.19"/>
<polygon fill="black" stroke="black" points="190.72,-269.95 196,-269.49 191.59,-266.56 190.72,-269.95"/>
</g>
<!-- MATH120&#45;&gt;CHEM101 -->
<g id="edge25" class="edge">
<title>MATH120&#45;&gt;CHEM101</title>
<path fill="none" stroke="black" d="M107.03,-252.61C124.03,-252.36 149.56,-249.76 168,-238 186.3,-226.33 179.46,-212.05 196,-198 196.42,-197.65 196.84,-197.3 197.28,-196.96"/>
<polygon fill="black" stroke="black" points="198.31,-198.38 201.43,-194.1 196.32,-195.5 198.31,-198.38"/>
</g>
<!-- CHEM091 -->
<g id="node29" class="node">
<title>CHEM091</title>
<path fill="white" stroke="#030a10" stroke-opacity="0.125490" d="M321.33,-169C321.33,-169 292.67,-169 292.67,-169 290.33,-169 288,-166.67 288,-164.33 288,-164.33 288,-159.67 288,-159.67 288,-157.33 290.33,-155 292.67,-155 292.67,-155 321.33,-155 321.33,-155 323.67,-155 326,-157.33 326,-159.67 326,-159.67 326,-164.33 326,-164.33 326,-166.67 323.67,-169 321.33,-169"/>
<text text-anchor="middle" x="307" y="-161" font-family="Times,serif" font-size="5.00">CHEM091</text>
</g>
<!-- CHEM091&#45;&gt;CHEM102 -->
<g id="edge16" class="edge">
<title>CHEM091&#45;&gt;CHEM102</title>
<path fill="none" stroke="black" d="M326.38,-164.72C335.37,-166.05 346.45,-167.7 356.78,-169.23"/>
<polygon fill="black" stroke="black" points="356.57,-170.96 361.77,-169.97 357.09,-167.5 356.57,-170.96"/>
</g>
<!-- 1 of [&#39;CHEM101&#39;, &#39;CHEM150&#39;]&#45;&gt;CHEM102 -->
<g id="edge17" class="edge">
<title>1 of [&#39;CHEM101&#39;, &#39;CHEM150&#39;]&#45;&gt;CHEM102</title>
<path fill="none" stroke="black" d="M317.93,-185.41C327.64,-183.85 342.95,-181.39 356.87,-179.16"/>
<polygon fill="black" stroke="black" points="357.27,-180.86 361.93,-178.34 356.72,-177.41 357.27,-180.86"/>
</g>
<!-- 1 of [&#39;CHEM101&#39;, &#39;CHEM150&#39;]&#45;&gt;EOS313 -->
<g id="edge36" class="edge">
<title>1 of [&#39;CHEM101&#39;, &#39;CHEM150&#39;]&#45;&gt;EOS313</title>
<path fill="none" stroke="black" d="M316.68,-180.89C319.86,-178.38 323.33,-175.29 326,-172 347.54,-145.44 335.41,-125.5 362,-104 386.78,-83.96 422.74,-75.72 448.82,-72.34"/>
<polygon fill="black" stroke="black" points="449.15,-74.07 453.9,-71.73 448.73,-70.59 449.15,-74.07"/>
</g>
<!-- 1 of [&#39;CHEM101&#39;, &#39;CHEM150&#39;]&#45;&gt;EOS311 -->
<g id="edge48" class="edge">
<title>1 of [&#39;CHEM101&#39;, &#39;CHEM150&#39;]&#45;&gt;EOS311</title>
<path fill="none" stroke="black" d="M317.99,-188.42C372.88,-196.21 638.66,-233.93 732.83,-247.29"/>
<polygon fill="black" stroke="black" points="732.79,-249.05 737.99,-248.02 733.28,-245.59 732.79,-249.05"/>
</g>
<!-- CHEM150 -->
<g id="node31" class="node">
<title>CHEM150</title>
<path fill="white" stroke="#030a10" stroke-opacity="0.125490" d="M238.33,-215C238.33,-215 209.67,-215 209.67,-215 207.33,-215 205,-212.67 205,-210.33 205,-210.33 205,-205.67 205,-205.67 205,-203.33 207.33,-201 209.67,-201 209.67,-201 238.33,-201 238.33,-201 240.67,-201 243,-203.33 243,-205.67 243,-205.67 243,-210.33 243,-210.33 243,-212.67 240.67,-215 238.33,-215"/>
<text text-anchor="middle" x="224" y="-207" font-family="Times,serif" font-size="5.00">CHEM150</text>
</g>
<!-- CHEM150&#45;&gt;1 of [&#39;CHEM101&#39;, &#39;CHEM150&#39;] -->
<g id="edge19" class="edge">
<title>CHEM150&#45;&gt;1 of [&#39;CHEM101&#39;, &#39;CHEM150&#39;]</title>
<path fill="none" stroke="black" d="M243.38,-203.23C257.88,-199.47 277.85,-194.3 291.3,-190.81"/>
<polygon fill="black" stroke="black" points="291.89,-192.47 296.29,-189.52 291.01,-189.08 291.89,-192.47"/>
</g>
<!-- EOS350 -->
<g id="node33" class="node">
<title>EOS350</title>
<path fill="#8197f4" stroke="#030a10" d="M110,-287.5C110,-287.5 66,-287.5 66,-287.5 62.5,-287.5 59,-284 59,-280.5 59,-280.5 59,-273.5 59,-273.5 59,-270 62.5,-266.5 66,-266.5 66,-266.5 110,-266.5 110,-266.5 113.5,-266.5 117,-270 117,-273.5 117,-273.5 117,-280.5 117,-280.5 117,-284 113.5,-287.5 110,-287.5"/>
<text text-anchor="middle" x="88" y="-273.9" font-family="Times,serif" font-size="12.00">EOS350</text>
</g>
<!-- EOS365 -->
<g id="node34" class="node">
<title>EOS365</title>
<path fill="#8197f4" stroke="#030a10" d="M110,-315.5C110,-315.5 66,-315.5 66,-315.5 62.5,-315.5 59,-312 59,-308.5 59,-308.5 59,-301.5 59,-301.5 59,-298 62.5,-294.5 66,-294.5 66,-294.5 110,-294.5 110,-294.5 113.5,-294.5 117,-298 117,-301.5 117,-301.5 117,-308.5 117,-308.5 117,-312 113.5,-315.5 110,-315.5"/>
<text text-anchor="middle" x="88" y="-301.9" font-family="Times,serif" font-size="12.00">EOS365</text>
</g>
<!-- EOS480 -->
<g id="node39" class="node">
<title>EOS480</title>
<path fill="#8197f4" stroke="#030a10" d="M110,-343.5C110,-343.5 66,-343.5 66,-343.5 62.5,-343.5 59,-340 59,-336.5 59,-336.5 59,-329.5 59,-329.5 59,-326 62.5,-322.5 66,-322.5 66,-322.5 110,-322.5 110,-322.5 113.5,-322.5 117,-326 117,-329.5 117,-329.5 117,-336.5 117,-336.5 117,-340 113.5,-343.5 110,-343.5"/>
<text text-anchor="middle" x="88" y="-329.9" font-family="Times,serif" font-size="12.00">EOS480</text>
</g>
<!-- EOS450 -->
<g id="node40" class="node">
<title>EOS450</title>
<path fill="#8197f4" stroke="#030a10" d="M789,-136.5C789,-136.5 745,-136.5 745,-136.5 741.5,-136.5 738,-133 738,-129.5 738,-129.5 738,-122.5 738,-122.5 738,-119 741.5,-115.5 745,-115.5 745,-115.5 789,-115.5 789,-115.5 792.5,-115.5 796,-119 796,-122.5 796,-122.5 796,-129.5 796,-129.5 796,-133 792.5,-136.5 789,-136.5"/>
<text text-anchor="middle" x="767" y="-122.9" font-family="Times,serif" font-size="12.00">EOS450</text>
</g>
<!-- 2 of [&#39;MATH100&#39;, &#39;MATH101&#39;, &#39;MATH102&#39;, &#39;MATH109&#39;, &#39;MATH151&#39;]&#45;&gt;EOS314 -->
<g id="edge37" class="edge">
<title>2 of [&#39;MATH100&#39;, &#39;MATH101&#39;, &#39;MATH102&#39;, &#39;MATH109&#39;, &#39;MATH151&#39;]&#45;&gt;EOS314</title>
<path fill="none" stroke="black" d="M494.07,-252.93C531.95,-256.58 665.63,-270.72 702,-292 727.37,-306.84 747.15,-335.68 757.65,-353.54"/>
<polygon fill="black" stroke="black" points="756.36,-354.8 760.37,-358.26 759.4,-353.06 756.36,-354.8"/>
</g>
<!-- 2 of [&#39;MATH100&#39;, &#39;MATH101&#39;, &#39;MATH102&#39;, &#39;MATH109&#39;, &#39;MATH151&#39;]&#45;&gt;EOS311 -->
<g id="edge50" class="edge">
<title>2 of [&#39;MATH100&#39;, &#39;MATH101&#39;, &#39;MATH102&#39;, &#39;MATH109&#39;, &#39;MATH151&#39;]&#45;&gt;EOS311</title>
<path fill="none" stroke="black" d="M494.04,-252C532.11,-252 668.72,-252 732.61,-252"/>
<polygon fill="black" stroke="black" points="732.83,-253.75 737.83,-252 732.83,-250.25 732.83,-253.75"/>
</g>
<!-- MATH151 -->
<g id="node42" class="node">
<title>MATH151</title>
<path fill="white" stroke="#030a10" stroke-opacity="0.125490" d="M404.33,-239C404.33,-239 375.67,-239 375.67,-239 373.33,-239 371,-236.67 371,-234.33 371,-234.33 371,-229.67 371,-229.67 371,-227.33 373.33,-225 375.67,-225 375.67,-225 404.33,-225 404.33,-225 406.67,-225 409,-227.33 409,-229.67 409,-229.67 409,-234.33 409,-234.33 409,-236.67 406.67,-239 404.33,-239"/>
<text text-anchor="middle" x="390" y="-231" font-family="Times,serif" font-size="5.00">MATH151</text>
</g>
<!-- MATH151&#45;&gt;2 of [&#39;MATH100&#39;, &#39;MATH101&#39;, &#39;MATH102&#39;, &#39;MATH109&#39;, &#39;MATH151&#39;] -->
<g id="edge42" class="edge">
<title>MATH151&#45;&gt;2 of [&#39;MATH100&#39;, &#39;MATH101&#39;, &#39;MATH102&#39;, &#39;MATH109&#39;, &#39;MATH151&#39;]</title>
<path fill="none" stroke="black" d="M409.42,-236.05C426.4,-239.78 451.3,-245.25 467.07,-248.72"/>
<polygon fill="black" stroke="black" points="466.79,-250.45 472.05,-249.81 467.54,-247.03 466.79,-250.45"/>
</g>
<!-- 1 of [&#39;PHYS102B&#39;, &#39;PHYS111&#39;, &#39;PHYS120&#39;]&#45;&gt;EOS314 -->
<g id="edge44" class="edge">
<title>1 of [&#39;PHYS102B&#39;, &#39;PHYS111&#39;, &#39;PHYS120&#39;]&#45;&gt;EOS314</title>
<path fill="none" stroke="black" d="M684.2,-369C695.81,-369 715.4,-369 732.5,-369"/>
<polygon fill="black" stroke="black" points="732.71,-370.75 737.71,-369 732.71,-367.25 732.71,-370.75"/>
</g>
<!-- 1 of [&#39;PHYS102A&#39;, &#39;PHYS110&#39;, &#39;PHYS112&#39;, &#39;PHYS120&#39;]&#45;&gt;EOS311 -->
<g id="edge51" class="edge">
<title>1 of [&#39;PHYS102A&#39;, &#39;PHYS110&#39;, &#39;PHYS112&#39;, &#39;PHYS120&#39;]&#45;&gt;EOS311</title>
<path fill="none" stroke="black" d="M494.03,-361.9C531.79,-357.66 665.1,-341.48 702,-321 725.64,-307.88 745.45,-282.9 756.51,-266.87"/>
<polygon fill="black" stroke="black" points="758.05,-267.72 759.4,-262.6 755.15,-265.76 758.05,-267.72"/>
</g>
<!-- PHYS112 -->
<g id="node45" class="node">
<title>PHYS112</title>
<path fill="white" stroke="#030a10" stroke-opacity="0.125490" d="M403.83,-315C403.83,-315 376.17,-315 376.17,-315 373.83,-315 371.5,-312.67 371.5,-310.33 371.5,-310.33 371.5,-305.67 371.5,-305.67 371.5,-303.33 373.83,-301 376.17,-301 376.17,-301 403.83,-301 403.83,-301 406.17,-301 408.5,-303.33 408.5,-305.67 408.5,-305.67 408.5,-310.33 408.5,-310.33 408.5,-312.67 406.17,-315 403.83,-315"/>
<text text-anchor="middle" x="390" y="-307" font-family="Times,serif" font-size="5.00">PHYS112</text>
</g>
<!-- PHYS112&#45;&gt;1 of [&#39;PHYS102A&#39;, &#39;PHYS110&#39;, &#39;PHYS112&#39;, &#39;PHYS120&#39;] -->
<g id="edge54" class="edge">
<title>PHYS112&#45;&gt;1 of [&#39;PHYS102A&#39;, &#39;PHYS110&#39;, &#39;PHYS112&#39;, &#39;PHYS120&#39;]</title>
<path fill="none" stroke="black" d="M402.9,-315.19C419.81,-325.41 450.71,-344.09 468.47,-354.82"/>
<polygon fill="black" stroke="black" points="467.92,-356.54 473.11,-357.63 469.73,-353.54 467.92,-356.54"/>
</g>
<!-- PHYS112&#45;&gt;1 of [&#39;PHYS102B&#39;, &#39;PHYS111&#39;, &#39;PHYS112&#39;, &#39;PHYS130&#39;] -->
<g id="edge59" class="edge">
<title>PHYS112&#45;&gt;1 of [&#39;PHYS102B&#39;, &#39;PHYS111&#39;, &#39;PHYS112&#39;, &#39;PHYS130&#39;]</title>
<path fill="none" stroke="black" d="M408.75,-302.97C421.28,-299.68 438.52,-295.7 454,-294 529.82,-285.68 621.14,-297.85 656.75,-303.44"/>
<polygon fill="black" stroke="black" points="656.76,-305.22 661.97,-304.28 657.31,-301.76 656.76,-305.22"/>
</g>
<!-- 1 of [&#39;PHYS102B&#39;, &#39;PHYS111&#39;, &#39;PHYS112&#39;, &#39;PHYS130&#39;]&#45;&gt;EOS311 -->
<g id="edge56" class="edge">
<title>1 of [&#39;PHYS102B&#39;, &#39;PHYS111&#39;, &#39;PHYS112&#39;, &#39;PHYS130&#39;]&#45;&gt;EOS311</title>
<path fill="none" stroke="black" d="M682.82,-300.82C696.59,-292.74 723.62,-276.88 743.14,-265.42"/>
<polygon fill="black" stroke="black" points="744.5,-266.65 747.92,-262.61 742.73,-263.63 744.5,-266.65"/>
</g>
<!-- 1 of [&#39;EOS201&#39;, &#39;EOS240&#39;]&#45;&gt;EOS450 -->
<g id="edge61" class="edge">
<title>1 of [&#39;EOS201&#39;, &#39;EOS240&#39;]&#45;&gt;EOS450</title>
<path fill="none" stroke="black" d="M684.2,-126C695.81,-126 715.4,-126 732.5,-126"/>
<polygon fill="black" stroke="black" points="732.71,-127.75 737.71,-126 732.71,-124.25 732.71,-127.75"/>
</g>
</g>
</svg>
