<?xml version="1.0" encoding="UTF-8" standalone="no"?>
<!DOCTYPE svg PUBLIC "-//W3C//DTD SVG 1.1//EN"
 "http://www.w3.org/Graphics/SVG/1.1/DTD/svg11.dtd">
<!-- Generated by graphviz version 2.43.0 (0)
 -->
<!-- Title: unix Pages: 1 -->
<svg width="783pt" height="512pt"
 viewBox="0.00 0.00 783.00 512.27" xmlns="http://www.w3.org/2000/svg" xmlns:xlink="http://www.w3.org/1999/xlink">
<g id="graph0" class="graph" transform="scale(1 1) rotate(0) translate(4 508.27)">
<title>unix</title>
<polygon fill="white" stroke="transparent" points="-4,4 -4,-508.27 779,-508.27 779,4 -4,4"/>
<text text-anchor="middle" x="387.5" y="-489.07" font-family="Times,serif" font-size="14.00">Earth Sciences (Minor) PROPOSED CHANGES</text>
<text text-anchor="middle" x="387.5" y="-474.07" font-family="Times,serif" font-size="14.00">Using options: [&#39;EOS201&#39;, &#39;EOS240&#39;]</text>
<g id="clust1" class="cluster">
<title>cluster_Legend</title>
<polygon fill="none" stroke="black" points="8,-8 8,-215 168,-215 168,-8 8,-8"/>
<text text-anchor="middle" x="88" y="-199.8" font-family="Times,serif" font-size="14.00">Legend</text>
</g>
<!-- Required -->
<g id="node1" class="node">
<title>Required</title>
<path fill="#acd2a3" stroke="#030a10" d="M154,-184C154,-184 22,-184 22,-184 19,-184 16,-181 16,-178 16,-178 16,-172 16,-172 16,-169 19,-166 22,-166 22,-166 154,-166 154,-166 157,-166 160,-169 160,-172 160,-172 160,-178 160,-178 160,-181 157,-184 154,-184"/>
<text text-anchor="middle" x="88" y="-172.8" font-family="Times,serif" font-size="9.00">Required</text>
</g>
<!-- Required.11 Required -->
<g id="node2" class="node">
<title>Required.11 Required</title>
<path fill="#4c72b0" stroke="#030a10" d="M154,-159C154,-159 22,-159 22,-159 19,-159 16,-156 16,-153 16,-153 16,-147 16,-147 16,-144 19,-141 22,-141 22,-141 154,-141 154,-141 157,-141 160,-144 160,-147 160,-147 160,-153 160,-153 160,-156 157,-159 154,-159"/>
<text text-anchor="middle" x="88" y="-147.8" font-family="Times,serif" font-size="9.00">1 Required</text>
</g>
<!-- Required.21 Required -->
<g id="node3" class="node">
<title>Required.21 Required</title>
<path fill="#dd8452" stroke="#030a10" d="M154,-134C154,-134 22,-134 22,-134 19,-134 16,-131 16,-128 16,-128 16,-122 16,-122 16,-119 19,-116 22,-116 22,-116 154,-116 154,-116 157,-116 160,-119 160,-122 160,-122 160,-128 160,-128 160,-131 157,-134 154,-134"/>
<text text-anchor="middle" x="88" y="-122.8" font-family="Times,serif" font-size="9.00">1 Required</text>
</g>
<!-- Required.31 Required -->
<g id="node4" class="node">
<title>Required.31 Required</title>
<path fill="#55a868" stroke="#030a10" d="M154,-109C154,-109 22,-109 22,-109 19,-109 16,-106 16,-103 16,-103 16,-97 16,-97 16,-94 19,-91 22,-91 22,-91 154,-91 154,-91 157,-91 160,-94 160,-97 160,-97 160,-103 160,-103 160,-106 157,-109 154,-109"/>
<text text-anchor="middle" x="88" y="-97.8" font-family="Times,serif" font-size="9.00">1 Required</text>
</g>
<!-- Required.41 Required -->
<g id="node5" class="node">
<title>Required.41 Required</title>
<path fill="#c44e52" stroke="#030a10" d="M154,-84C154,-84 22,-84 22,-84 19,-84 16,-81 16,-78 16,-78 16,-72 16,-72 16,-69 19,-66 22,-66 22,-66 154,-66 154,-66 157,-66 160,-69 160,-72 160,-72 160,-78 160,-78 160,-81 157,-84 154,-84"/>
<text text-anchor="middle" x="88" y="-72.8" font-family="Times,serif" font-size="9.00">1 Required</text>
</g>
<!-- Required.52 Required -->
<g id="node6" class="node">
<title>Required.52 Required</title>
<path fill="#8172b3" stroke="#030a10" d="M154,-59C154,-59 22,-59 22,-59 19,-59 16,-56 16,-53 16,-53 16,-47 16,-47 16,-44 19,-41 22,-41 22,-41 154,-41 154,-41 157,-41 160,-44 160,-47 160,-47 160,-53 160,-53 160,-56 157,-59 154,-59"/>
<text text-anchor="middle" x="88" y="-47.8" font-family="Times,serif" font-size="9.00">2 Required</text>
</g>
<!-- Required.64.5 units Required -->
<g id="node7" class="node">
<title>Required.64.5 units Required</title>
<path fill="#937860" stroke="#030a10" d="M154,-34C154,-34 22,-34 22,-34 19,-34 16,-31 16,-28 16,-28 16,-22 16,-22 16,-19 19,-16 22,-16 22,-16 154,-16 154,-16 157,-16 160,-19 160,-22 160,-22 160,-28 160,-28 160,-31 157,-34 154,-34"/>
<text text-anchor="middle" x="88" y="-22.8" font-family="Times,serif" font-size="9.00">4.5 units Required</text>
</g>
<!-- MATH101 -->
<g id="node8" class="node">
<title>MATH101</title>
<path fill="#acd2a3" stroke="#030a10" d="M414.5,-212C414.5,-212 370.5,-212 370.5,-212 367.5,-212 364.5,-209 364.5,-206 364.5,-206 364.5,-200 364.5,-200 364.5,-197 367.5,-194 370.5,-194 370.5,-194 414.5,-194 414.5,-194 417.5,-194 420.5,-197 420.5,-200 420.5,-200 420.5,-206 420.5,-206 420.5,-209 417.5,-212 414.5,-212"/>
<text text-anchor="middle" x="392.5" y="-200.8" font-family="Times,serif" font-size="9.00">MATH101</text>
</g>
<!-- PHYS130 -->
<g id="node22" class="node">
<title>PHYS130</title>
<path fill="#c44e52" stroke="#030a10" d="M507,-235C507,-235 465,-235 465,-235 462,-235 459,-232 459,-229 459,-229 459,-223 459,-223 459,-220 462,-217 465,-217 465,-217 507,-217 507,-217 510,-217 513,-220 513,-223 513,-223 513,-229 513,-229 513,-232 510,-235 507,-235"/>
<text text-anchor="middle" x="486" y="-223.8" font-family="Times,serif" font-size="9.00">PHYS130</text>
</g>
<!-- MATH101&#45;&gt;PHYS130 -->
<g id="edge27" class="edge">
<title>MATH101&#45;&gt;PHYS130</title>
<path fill="none" stroke="black" d="M420.95,-209.9C431.27,-212.49 443.07,-215.46 453.7,-218.13"/>
<polygon fill="black" stroke="black" points="453.55,-219.9 458.82,-219.42 454.4,-216.5 453.55,-219.9"/>
</g>
<!-- 2 of [&#39;MATH100&#39;, &#39;MATH101&#39;, &#39;MATH102&#39;, &#39;MATH109&#39;, &#39;MATH151&#39;] -->
<g id="node41" class="node">
<title>2 of [&#39;MATH100&#39;, &#39;MATH101&#39;, &#39;MATH102&#39;, &#39;MATH109&#39;, &#39;MATH151&#39;]</title>
<ellipse fill="#b2bec3" stroke="#030a10" cx="486" cy="-169" rx="11" ry="11"/>
<text text-anchor="middle" x="486" y="-166.8" font-family="Times,serif" font-size="9.00">2</text>
</g>
<!-- MATH101&#45;&gt;2 of [&#39;MATH100&#39;, &#39;MATH101&#39;, &#39;MATH102&#39;, &#39;MATH109&#39;, &#39;MATH151&#39;] -->
<g id="edge38" class="edge">
<title>MATH101&#45;&gt;2 of [&#39;MATH100&#39;, &#39;MATH101&#39;, &#39;MATH102&#39;, &#39;MATH109&#39;, &#39;MATH151&#39;]</title>
<path fill="none" stroke="black" d="M418.02,-193.89C434.8,-187.65 456.49,-179.6 470.56,-174.36"/>
<polygon fill="black" stroke="black" points="471.31,-175.96 475.38,-172.57 470.09,-172.67 471.31,-175.96"/>
</g>
<!-- PHYS110 -->
<g id="node9" class="node">
<title>PHYS110</title>
<path fill="#55a868" stroke="#030a10" d="M413.5,-277C413.5,-277 371.5,-277 371.5,-277 368.5,-277 365.5,-274 365.5,-271 365.5,-271 365.5,-265 365.5,-265 365.5,-262 368.5,-259 371.5,-259 371.5,-259 413.5,-259 413.5,-259 416.5,-259 419.5,-262 419.5,-265 419.5,-265 419.5,-271 419.5,-271 419.5,-274 416.5,-277 413.5,-277"/>
<text text-anchor="middle" x="392.5" y="-265.8" font-family="Times,serif" font-size="9.00">PHYS110</text>
</g>
<!-- PHYS111 -->
<g id="node16" class="node">
<title>PHYS111</title>
<path fill="#c44e52" stroke="#030a10" d="M600,-235C600,-235 558,-235 558,-235 555,-235 552,-232 552,-229 552,-229 552,-223 552,-223 552,-220 555,-217 558,-217 558,-217 600,-217 600,-217 603,-217 606,-220 606,-223 606,-223 606,-229 606,-229 606,-232 603,-235 600,-235"/>
<text text-anchor="middle" x="579" y="-223.8" font-family="Times,serif" font-size="9.00">PHYS111</text>
</g>
<!-- PHYS110&#45;&gt;PHYS111 -->
<g id="edge28" class="edge">
<title>PHYS110&#45;&gt;PHYS111</title>
<path fill="none" stroke="black" d="M419.54,-262.07C452.96,-254.46 510.89,-241.28 546.68,-233.13"/>
<polygon fill="black" stroke="black" points="547.3,-234.78 551.79,-231.97 546.53,-231.37 547.3,-234.78"/>
</g>
<!-- 1 of [&#39;PHYS102A&#39;, &#39;PHYS110&#39;, &#39;PHYS120&#39;] -->
<g id="node29" class="node">
<title>1 of [&#39;PHYS102A&#39;, &#39;PHYS110&#39;, &#39;PHYS120&#39;]</title>
<ellipse fill="#dfe6e9" stroke="#030a10" cx="486" cy="-268" rx="11" ry="11"/>
<text text-anchor="middle" x="486" y="-265.8" font-family="Times,serif" font-size="9.00">1</text>
</g>
<!-- PHYS110&#45;&gt;1 of [&#39;PHYS102A&#39;, &#39;PHYS110&#39;, &#39;PHYS120&#39;] -->
<g id="edge12" class="edge">
<title>PHYS110&#45;&gt;1 of [&#39;PHYS102A&#39;, &#39;PHYS110&#39;, &#39;PHYS120&#39;]</title>
<path fill="none" stroke="black" d="M419.97,-268C436.18,-268 456.35,-268 469.89,-268"/>
<polygon fill="black" stroke="black" points="469.91,-269.75 474.91,-268 469.91,-266.25 469.91,-269.75"/>
</g>
<!-- 1 of [&#39;PHYS102A&#39;, &#39;PHYS110&#39;, &#39;PHYS112&#39;, &#39;PHYS120&#39;] -->
<g id="node44" class="node">
<title>1 of [&#39;PHYS102A&#39;, &#39;PHYS110&#39;, &#39;PHYS112&#39;, &#39;PHYS120&#39;]</title>
<ellipse fill="#dfe6e9" stroke="#030a10" cx="486" cy="-297" rx="11" ry="11"/>
<text text-anchor="middle" x="486" y="-294.8" font-family="Times,serif" font-size="9.00">1</text>
</g>
<!-- PHYS110&#45;&gt;1 of [&#39;PHYS102A&#39;, &#39;PHYS110&#39;, &#39;PHYS112&#39;, &#39;PHYS120&#39;] -->
<g id="edge52" class="edge">
<title>PHYS110&#45;&gt;1 of [&#39;PHYS102A&#39;, &#39;PHYS110&#39;, &#39;PHYS112&#39;, &#39;PHYS120&#39;]</title>
<path fill="none" stroke="black" d="M419.97,-276.39C436.37,-281.59 456.82,-288.07 470.36,-292.36"/>
<polygon fill="black" stroke="black" points="470.06,-294.1 475.36,-293.94 471.12,-290.77 470.06,-294.1"/>
</g>
<!-- EOS202 -->
<g id="node10" class="node">
<title>EOS202</title>
<path fill="#8172b3" stroke="#030a10" d="M507,-458C507,-458 465,-458 465,-458 462,-458 459,-455 459,-452 459,-452 459,-446 459,-446 459,-443 462,-440 465,-440 465,-440 507,-440 507,-440 510,-440 513,-443 513,-446 513,-446 513,-452 513,-452 513,-455 510,-458 507,-458"/>
<text text-anchor="middle" x="486" y="-446.8" font-family="Times,serif" font-size="9.00">EOS202</text>
</g>
<!-- EOS240 -->
<g id="node11" class="node">
<title>EOS240</title>
<path fill="#8172b3" stroke="#030a10" d="M600,-393C600,-393 558,-393 558,-393 555,-393 552,-390 552,-387 552,-387 552,-381 552,-381 552,-378 555,-375 558,-375 558,-375 600,-375 600,-375 603,-375 606,-378 606,-381 606,-381 606,-387 606,-387 606,-390 603,-393 600,-393"/>
<text text-anchor="middle" x="579" y="-381.8" font-family="Times,serif" font-size="9.00">EOS240</text>
</g>
<!-- EOS335 -->
<g id="node33" class="node">
<title>EOS335</title>
<path fill="#937860" stroke="#030a10" d="M686,-392C686,-392 651,-392 651,-392 648,-392 645,-389 645,-386 645,-386 645,-380 645,-380 645,-377 648,-374 651,-374 651,-374 686,-374 686,-374 689,-374 692,-377 692,-380 692,-380 692,-386 692,-386 692,-389 689,-392 686,-392"/>
<text text-anchor="middle" x="668.5" y="-380.8" font-family="Times,serif" font-size="9.00">EOS335</text>
</g>
<!-- EOS240&#45;&gt;EOS335 -->
<g id="edge33" class="edge">
<title>EOS240&#45;&gt;EOS335</title>
<path fill="none" stroke="black" d="M606.25,-383.7C616.81,-383.58 628.99,-383.44 639.7,-383.32"/>
<polygon fill="black" stroke="black" points="639.84,-385.07 644.82,-383.26 639.8,-381.57 639.84,-385.07"/>
</g>
<!-- 1 of [&#39;EOS201&#39;, &#39;EOS240&#39;] -->
<g id="node47" class="node">
<title>1 of [&#39;EOS201&#39;, &#39;EOS240&#39;]</title>
<ellipse fill="#dfe6e9" stroke="#030a10" cx="668.5" cy="-410" rx="11" ry="11"/>
<text text-anchor="middle" x="668.5" y="-407.8" font-family="Times,serif" font-size="9.00">1</text>
</g>
<!-- EOS240&#45;&gt;1 of [&#39;EOS201&#39;, &#39;EOS240&#39;] -->
<g id="edge62" class="edge">
<title>EOS240&#45;&gt;1 of [&#39;EOS201&#39;, &#39;EOS240&#39;]</title>
<path fill="none" stroke="black" d="M606.25,-391.8C621.4,-396.3 639.91,-401.8 652.59,-405.57"/>
<polygon fill="black" stroke="black" points="652.35,-407.32 657.64,-407.07 653.34,-403.97 652.35,-407.32"/>
</g>
<!-- EOS205 -->
<g id="node12" class="node">
<title>EOS205</title>
<path fill="#acd2a3" stroke="#030a10" d="M507,-393C507,-393 465,-393 465,-393 462,-393 459,-390 459,-387 459,-387 459,-381 459,-381 459,-378 462,-375 465,-375 465,-375 507,-375 507,-375 510,-375 513,-378 513,-381 513,-381 513,-387 513,-387 513,-390 510,-393 507,-393"/>
<text text-anchor="middle" x="486" y="-381.8" font-family="Times,serif" font-size="9.00">EOS205</text>
</g>
<!-- EOS205&#45;&gt;EOS240 -->
<g id="edge31" class="edge">
<title>EOS205&#45;&gt;EOS240</title>
<path fill="none" stroke="black" d="M513.32,-384C523.7,-384 535.7,-384 546.53,-384"/>
<polygon fill="black" stroke="black" points="546.74,-385.75 551.74,-384 546.74,-382.25 546.74,-385.75"/>
</g>
<!-- EOS201 -->
<g id="node20" class="node">
<title>EOS201</title>
<path fill="#8172b3" stroke="#030a10" d="M600,-419C600,-419 558,-419 558,-419 555,-419 552,-416 552,-413 552,-413 552,-407 552,-407 552,-404 555,-401 558,-401 558,-401 600,-401 600,-401 603,-401 606,-404 606,-407 606,-407 606,-413 606,-413 606,-416 603,-419 600,-419"/>
<text text-anchor="middle" x="579" y="-407.8" font-family="Times,serif" font-size="9.00">EOS201</text>
</g>
<!-- EOS205&#45;&gt;EOS201 -->
<g id="edge2" class="edge">
<title>EOS205&#45;&gt;EOS201</title>
<path fill="none" stroke="black" d="M513.32,-391.52C523.79,-394.51 535.92,-397.98 546.82,-401.09"/>
<polygon fill="black" stroke="black" points="546.45,-402.81 551.74,-402.5 547.41,-399.44 546.45,-402.81"/>
</g>
<!-- MATH109 -->
<g id="node13" class="node">
<title>MATH109</title>
<path fill="#dd8452" stroke="#030a10" d="M246,-239C246,-239 202,-239 202,-239 199,-239 196,-236 196,-233 196,-233 196,-227 196,-227 196,-224 199,-221 202,-221 202,-221 246,-221 246,-221 249,-221 252,-224 252,-227 252,-227 252,-233 252,-233 252,-236 249,-239 246,-239"/>
<text text-anchor="middle" x="224" y="-227.8" font-family="Times,serif" font-size="9.00">MATH109</text>
</g>
<!-- 1 of [&#39;MATH100&#39;, &#39;MATH109&#39;] -->
<g id="node26" class="node">
<title>1 of [&#39;MATH100&#39;, &#39;MATH109&#39;]</title>
<ellipse fill="#dfe6e9" stroke="#030a10" cx="307" cy="-205" rx="11" ry="11"/>
<text text-anchor="middle" x="307" y="-201.9" font-family="Times,serif" font-size="12.00">1</text>
</g>
<!-- MATH109&#45;&gt;1 of [&#39;MATH100&#39;, &#39;MATH109&#39;] -->
<g id="edge5" class="edge">
<title>MATH109&#45;&gt;1 of [&#39;MATH100&#39;, &#39;MATH109&#39;]</title>
<path fill="none" stroke="black" d="M252.42,-221.54C265.36,-217.54 280.29,-212.93 291.1,-209.6"/>
<polygon fill="black" stroke="black" points="291.79,-211.22 296.05,-208.07 290.75,-207.87 291.79,-211.22"/>
</g>
<!-- 1 of [&#39;MATH100&#39;, &#39;MATH102&#39;, &#39;MATH109&#39;] -->
<g id="node27" class="node">
<title>1 of [&#39;MATH100&#39;, &#39;MATH102&#39;, &#39;MATH109&#39;]</title>
<ellipse fill="#dfe6e9" stroke="#030a10" cx="307" cy="-234" rx="11" ry="11"/>
<text text-anchor="middle" x="307" y="-230.9" font-family="Times,serif" font-size="12.00">1</text>
</g>
<!-- MATH109&#45;&gt;1 of [&#39;MATH100&#39;, &#39;MATH102&#39;, &#39;MATH109&#39;] -->
<g id="edge9" class="edge">
<title>MATH109&#45;&gt;1 of [&#39;MATH100&#39;, &#39;MATH102&#39;, &#39;MATH109&#39;]</title>
<path fill="none" stroke="black" d="M252.42,-231.35C265.09,-231.98 279.66,-232.7 290.41,-233.23"/>
<polygon fill="black" stroke="black" points="290.57,-234.99 295.65,-233.49 290.74,-231.49 290.57,-234.99"/>
</g>
<!-- MATH109&#45;&gt;2 of [&#39;MATH100&#39;, &#39;MATH101&#39;, &#39;MATH102&#39;, &#39;MATH109&#39;, &#39;MATH151&#39;] -->
<g id="edge40" class="edge">
<title>MATH109&#45;&gt;2 of [&#39;MATH100&#39;, &#39;MATH101&#39;, &#39;MATH102&#39;, &#39;MATH109&#39;, &#39;MATH151&#39;]</title>
<path fill="none" stroke="black" d="M244.97,-220.88C247.37,-219.64 249.77,-218.33 252,-217 268.96,-206.9 269.59,-198.11 288,-191 321.18,-178.19 429.23,-171.72 469.6,-169.71"/>
<polygon fill="black" stroke="black" points="469.71,-171.46 474.61,-169.46 469.53,-167.96 469.71,-171.46"/>
</g>
<!-- PHYS102B -->
<g id="node14" class="node">
<title>PHYS102B</title>
<path fill="#c44e52" stroke="#030a10" d="M603,-260C603,-260 555,-260 555,-260 552,-260 549,-257 549,-254 549,-254 549,-248 549,-248 549,-245 552,-242 555,-242 555,-242 603,-242 603,-242 606,-242 609,-245 609,-248 609,-248 609,-254 609,-254 609,-257 606,-260 603,-260"/>
<text text-anchor="middle" x="579" y="-248.8" font-family="Times,serif" font-size="9.00">PHYS102B</text>
</g>
<!-- 1 of [&#39;PHYS102B&#39;, &#39;PHYS111&#39;, &#39;PHYS120&#39;] -->
<g id="node43" class="node">
<title>1 of [&#39;PHYS102B&#39;, &#39;PHYS111&#39;, &#39;PHYS120&#39;]</title>
<ellipse fill="#dfe6e9" stroke="#030a10" cx="668.5" cy="-226" rx="11" ry="11"/>
<text text-anchor="middle" x="668.5" y="-223.8" font-family="Times,serif" font-size="9.00">1</text>
</g>
<!-- PHYS102B&#45;&gt;1 of [&#39;PHYS102B&#39;, &#39;PHYS111&#39;, &#39;PHYS120&#39;] -->
<g id="edge44" class="edge">
<title>PHYS102B&#45;&gt;1 of [&#39;PHYS102B&#39;, &#39;PHYS111&#39;, &#39;PHYS120&#39;]</title>
<path fill="none" stroke="black" d="M609.14,-242.68C623.62,-238.54 640.52,-233.71 652.4,-230.32"/>
<polygon fill="black" stroke="black" points="653.15,-231.92 657.47,-228.86 652.18,-228.56 653.15,-231.92"/>
</g>
<!-- 1 of [&#39;PHYS102B&#39;, &#39;PHYS111&#39;, &#39;PHYS112&#39;, &#39;PHYS130&#39;] -->
<g id="node46" class="node">
<title>1 of [&#39;PHYS102B&#39;, &#39;PHYS111&#39;, &#39;PHYS112&#39;, &#39;PHYS130&#39;]</title>
<ellipse fill="#dfe6e9" stroke="#030a10" cx="668.5" cy="-264" rx="11" ry="11"/>
<text text-anchor="middle" x="668.5" y="-261.8" font-family="Times,serif" font-size="9.00">1</text>
</g>
<!-- PHYS102B&#45;&gt;1 of [&#39;PHYS102B&#39;, &#39;PHYS111&#39;, &#39;PHYS112&#39;, &#39;PHYS130&#39;] -->
<g id="edge56" class="edge">
<title>PHYS102B&#45;&gt;1 of [&#39;PHYS102B&#39;, &#39;PHYS111&#39;, &#39;PHYS112&#39;, &#39;PHYS130&#39;]</title>
<path fill="none" stroke="black" d="M609.14,-255.33C623.62,-257.48 640.52,-259.99 652.4,-261.76"/>
<polygon fill="black" stroke="black" points="652.27,-263.51 657.47,-262.51 652.78,-260.04 652.27,-263.51"/>
</g>
<!-- MATH100 -->
<g id="node15" class="node">
<title>MATH100</title>
<path fill="#dd8452" stroke="#030a10" d="M246,-214C246,-214 202,-214 202,-214 199,-214 196,-211 196,-208 196,-208 196,-202 196,-202 196,-199 199,-196 202,-196 202,-196 246,-196 246,-196 249,-196 252,-199 252,-202 252,-202 252,-208 252,-208 252,-211 249,-214 246,-214"/>
<text text-anchor="middle" x="224" y="-202.8" font-family="Times,serif" font-size="9.00">MATH100</text>
</g>
<!-- MATH100&#45;&gt;1 of [&#39;MATH100&#39;, &#39;MATH109&#39;] -->
<g id="edge4" class="edge">
<title>MATH100&#45;&gt;1 of [&#39;MATH100&#39;, &#39;MATH109&#39;]</title>
<path fill="none" stroke="black" d="M252.42,-205C265.09,-205 279.66,-205 290.41,-205"/>
<polygon fill="black" stroke="black" points="290.65,-206.75 295.65,-205 290.65,-203.25 290.65,-206.75"/>
</g>
<!-- MATH100&#45;&gt;1 of [&#39;MATH100&#39;, &#39;MATH102&#39;, &#39;MATH109&#39;] -->
<g id="edge7" class="edge">
<title>MATH100&#45;&gt;1 of [&#39;MATH100&#39;, &#39;MATH102&#39;, &#39;MATH109&#39;]</title>
<path fill="none" stroke="black" d="M250.18,-214.02C263.72,-218.86 279.92,-224.66 291.38,-228.76"/>
<polygon fill="black" stroke="black" points="290.98,-230.48 296.28,-230.52 292.16,-227.19 290.98,-230.48"/>
</g>
<!-- MATH100&#45;&gt;2 of [&#39;MATH100&#39;, &#39;MATH101&#39;, &#39;MATH102&#39;, &#39;MATH109&#39;, &#39;MATH151&#39;] -->
<g id="edge37" class="edge">
<title>MATH100&#45;&gt;2 of [&#39;MATH100&#39;, &#39;MATH101&#39;, &#39;MATH102&#39;, &#39;MATH109&#39;, &#39;MATH151&#39;]</title>
<path fill="none" stroke="black" d="M241.55,-195.95C253.95,-189.67 271.53,-181.77 288,-178 354.25,-162.82 436.21,-165.77 469.68,-167.86"/>
<polygon fill="black" stroke="black" points="469.89,-169.63 474.99,-168.21 470.12,-166.14 469.89,-169.63"/>
</g>
<!-- PHYS111&#45;&gt;1 of [&#39;PHYS102B&#39;, &#39;PHYS111&#39;, &#39;PHYS120&#39;] -->
<g id="edge45" class="edge">
<title>PHYS111&#45;&gt;1 of [&#39;PHYS102B&#39;, &#39;PHYS111&#39;, &#39;PHYS120&#39;]</title>
<path fill="none" stroke="black" d="M606.25,-226C621.23,-226 639.48,-226 652.14,-226"/>
<polygon fill="black" stroke="black" points="652.2,-227.75 657.2,-226 652.2,-224.25 652.2,-227.75"/>
</g>
<!-- PHYS111&#45;&gt;1 of [&#39;PHYS102B&#39;, &#39;PHYS111&#39;, &#39;PHYS112&#39;, &#39;PHYS130&#39;] -->
<g id="edge57" class="edge">
<title>PHYS111&#45;&gt;1 of [&#39;PHYS102B&#39;, &#39;PHYS111&#39;, &#39;PHYS112&#39;, &#39;PHYS130&#39;]</title>
<path fill="none" stroke="black" d="M600.74,-235.01C616.94,-242.04 639.03,-251.64 653.28,-257.83"/>
<polygon fill="black" stroke="black" points="652.87,-259.55 658.15,-259.94 654.26,-256.34 652.87,-259.55"/>
</g>
<!-- EOS120 -->
<g id="node17" class="node">
<title>EOS120</title>
<path fill="#acd2a3" stroke="#030a10" d="M413.5,-438C413.5,-438 371.5,-438 371.5,-438 368.5,-438 365.5,-435 365.5,-432 365.5,-432 365.5,-426 365.5,-426 365.5,-423 368.5,-420 371.5,-420 371.5,-420 413.5,-420 413.5,-420 416.5,-420 419.5,-423 419.5,-426 419.5,-426 419.5,-432 419.5,-432 419.5,-435 416.5,-438 413.5,-438"/>
<text text-anchor="middle" x="392.5" y="-426.8" font-family="Times,serif" font-size="9.00">EOS120</text>
</g>
<!-- EOS120&#45;&gt;EOS202 -->
<g id="edge24" class="edge">
<title>EOS120&#45;&gt;EOS202</title>
<path fill="none" stroke="black" d="M419.97,-434.78C430.58,-437.11 442.9,-439.8 453.94,-442.21"/>
<polygon fill="black" stroke="black" points="453.65,-443.94 458.91,-443.3 454.4,-440.52 453.65,-443.94"/>
</g>
<!-- EOS120&#45;&gt;EOS240 -->
<g id="edge30" class="edge">
<title>EOS120&#45;&gt;EOS240</title>
<path fill="none" stroke="black" d="M419.85,-430.93C444.55,-431.89 482.19,-431.13 513,-421 531.04,-415.07 532.42,-407.25 549,-398 550.61,-397.1 552.28,-396.2 553.98,-395.32"/>
<polygon fill="black" stroke="black" points="554.83,-396.85 558.49,-393.02 553.24,-393.73 554.83,-396.85"/>
</g>
<!-- EOS120&#45;&gt;EOS205 -->
<g id="edge22" class="edge">
<title>EOS120&#45;&gt;EOS205</title>
<path fill="none" stroke="black" d="M412.02,-419.89C426.4,-412.82 446.44,-402.96 461.88,-395.37"/>
<polygon fill="black" stroke="black" points="462.8,-396.87 466.51,-393.09 461.25,-393.73 462.8,-396.87"/>
</g>
<!-- EOS120&#45;&gt;EOS201 -->
<g id="edge1" class="edge">
<title>EOS120&#45;&gt;EOS201</title>
<path fill="none" stroke="black" d="M407.36,-438.1C420.16,-445.92 440.01,-456.61 459,-461 482.38,-466.41 490.32,-468.84 513,-461 534.62,-453.53 554.53,-435.57 566.47,-423.09"/>
<polygon fill="black" stroke="black" points="567.78,-424.26 569.91,-419.41 565.22,-421.87 567.78,-424.26"/>
</g>
<!-- EOS313 -->
<g id="node36" class="node">
<title>EOS313</title>
<path fill="#937860" stroke="#030a10" d="M503.5,-418C503.5,-418 468.5,-418 468.5,-418 465.5,-418 462.5,-415 462.5,-412 462.5,-412 462.5,-406 462.5,-406 462.5,-403 465.5,-400 468.5,-400 468.5,-400 503.5,-400 503.5,-400 506.5,-400 509.5,-403 509.5,-406 509.5,-406 509.5,-412 509.5,-412 509.5,-415 506.5,-418 503.5,-418"/>
<text text-anchor="middle" x="486" y="-406.8" font-family="Times,serif" font-size="9.00">EOS313</text>
</g>
<!-- EOS120&#45;&gt;EOS313 -->
<g id="edge34" class="edge">
<title>EOS120&#45;&gt;EOS313</title>
<path fill="none" stroke="black" d="M419.97,-423.22C431.7,-420.65 445.5,-417.63 457.36,-415.04"/>
<polygon fill="black" stroke="black" points="457.8,-416.74 462.31,-413.96 457.06,-413.32 457.8,-416.74"/>
</g>
<!-- CHEM102 -->
<g id="node18" class="node">
<title>CHEM102</title>
<path fill="#acd2a3" stroke="#030a10" d="M414.5,-365C414.5,-365 370.5,-365 370.5,-365 367.5,-365 364.5,-362 364.5,-359 364.5,-359 364.5,-353 364.5,-353 364.5,-350 367.5,-347 370.5,-347 370.5,-347 414.5,-347 414.5,-347 417.5,-347 420.5,-350 420.5,-353 420.5,-353 420.5,-359 420.5,-359 420.5,-362 417.5,-365 414.5,-365"/>
<text text-anchor="middle" x="392.5" y="-353.8" font-family="Times,serif" font-size="9.00">CHEM102</text>
</g>
<!-- CHEM102&#45;&gt;EOS240 -->
<g id="edge32" class="edge">
<title>CHEM102&#45;&gt;EOS240</title>
<path fill="none" stroke="black" d="M420.61,-359.24C444.87,-362.23 481.37,-366.97 513,-372 524.01,-373.75 536.01,-375.9 546.68,-377.89"/>
<polygon fill="black" stroke="black" points="546.56,-379.65 551.8,-378.86 547.21,-376.21 546.56,-379.65"/>
</g>
<!-- CHEM102&#45;&gt;EOS205 -->
<g id="edge23" class="edge">
<title>CHEM102&#45;&gt;EOS205</title>
<path fill="none" stroke="black" d="M420.95,-364.4C431.36,-367.59 443.28,-371.23 453.99,-374.51"/>
<polygon fill="black" stroke="black" points="453.53,-376.2 458.82,-375.99 454.55,-372.85 453.53,-376.2"/>
</g>
<!-- EOS311 -->
<g id="node38" class="node">
<title>EOS311</title>
<path fill="#937860" stroke="#030a10" d="M769,-328C769,-328 734,-328 734,-328 731,-328 728,-325 728,-322 728,-322 728,-316 728,-316 728,-313 731,-310 734,-310 734,-310 769,-310 769,-310 772,-310 775,-313 775,-316 775,-316 775,-322 775,-322 775,-325 772,-328 769,-328"/>
<text text-anchor="middle" x="751.5" y="-316.8" font-family="Times,serif" font-size="9.00">EOS311</text>
</g>
<!-- CHEM102&#45;&gt;EOS311 -->
<g id="edge48" class="edge">
<title>CHEM102&#45;&gt;EOS311</title>
<path fill="none" stroke="black" d="M420.56,-356.9C473.33,-358.13 593.43,-358.28 692,-339 702.68,-336.91 714.08,-333.34 723.95,-329.79"/>
<polygon fill="black" stroke="black" points="724.58,-331.42 728.67,-328.05 723.37,-328.14 724.58,-331.42"/>
</g>
<!-- PHYS120 -->
<g id="node19" class="node">
<title>PHYS120</title>
<path fill="#55a868" stroke="#030a10" d="M413.5,-252C413.5,-252 371.5,-252 371.5,-252 368.5,-252 365.5,-249 365.5,-246 365.5,-246 365.5,-240 365.5,-240 365.5,-237 368.5,-234 371.5,-234 371.5,-234 413.5,-234 413.5,-234 416.5,-234 419.5,-237 419.5,-240 419.5,-240 419.5,-246 419.5,-246 419.5,-249 416.5,-252 413.5,-252"/>
<text text-anchor="middle" x="392.5" y="-240.8" font-family="Times,serif" font-size="9.00">PHYS120</text>
</g>
<!-- PHYS120&#45;&gt;PHYS130 -->
<g id="edge26" class="edge">
<title>PHYS120&#45;&gt;PHYS130</title>
<path fill="none" stroke="black" d="M419.97,-238.08C430.58,-236.11 442.9,-233.82 453.94,-231.77"/>
<polygon fill="black" stroke="black" points="454.31,-233.48 458.91,-230.85 453.67,-230.04 454.31,-233.48"/>
</g>
<!-- PHYS120&#45;&gt;1 of [&#39;PHYS102A&#39;, &#39;PHYS110&#39;, &#39;PHYS120&#39;] -->
<g id="edge13" class="edge">
<title>PHYS120&#45;&gt;1 of [&#39;PHYS102A&#39;, &#39;PHYS110&#39;, &#39;PHYS120&#39;]</title>
<path fill="none" stroke="black" d="M419.97,-250.23C436.18,-254.66 456.35,-260.17 469.89,-263.87"/>
<polygon fill="black" stroke="black" points="469.63,-265.61 474.91,-265.24 470.55,-262.24 469.63,-265.61"/>
</g>
<!-- PHYS120&#45;&gt;1 of [&#39;PHYS102B&#39;, &#39;PHYS111&#39;, &#39;PHYS120&#39;] -->
<g id="edge46" class="edge">
<title>PHYS120&#45;&gt;1 of [&#39;PHYS102B&#39;, &#39;PHYS111&#39;, &#39;PHYS120&#39;]</title>
<path fill="none" stroke="black" d="M409.02,-233.9C421.91,-226.91 440.99,-217.81 459,-214 524.22,-200.21 542.67,-207.27 609,-214 624.03,-215.53 640.9,-219.2 652.65,-222.09"/>
<polygon fill="black" stroke="black" points="652.38,-223.82 657.66,-223.34 653.23,-220.43 652.38,-223.82"/>
</g>
<!-- PHYS120&#45;&gt;1 of [&#39;PHYS102A&#39;, &#39;PHYS110&#39;, &#39;PHYS112&#39;, &#39;PHYS120&#39;] -->
<g id="edge54" class="edge">
<title>PHYS120&#45;&gt;1 of [&#39;PHYS102A&#39;, &#39;PHYS110&#39;, &#39;PHYS112&#39;, &#39;PHYS120&#39;]</title>
<path fill="none" stroke="black" d="M415.35,-252C417.97,-253.27 420.57,-254.61 423,-256 440.12,-265.81 442.43,-271.28 459,-282 462.9,-284.52 467.23,-287.11 471.23,-289.41"/>
<polygon fill="black" stroke="black" points="470.51,-291.01 475.72,-291.95 472.23,-287.96 470.51,-291.01"/>
</g>
<!-- EOS201&#45;&gt;1 of [&#39;EOS201&#39;, &#39;EOS240&#39;] -->
<g id="edge61" class="edge">
<title>EOS201&#45;&gt;1 of [&#39;EOS201&#39;, &#39;EOS240&#39;]</title>
<path fill="none" stroke="black" d="M606.25,-410C621.23,-410 639.48,-410 652.14,-410"/>
<polygon fill="black" stroke="black" points="652.2,-411.75 657.2,-410 652.2,-408.25 652.2,-411.75"/>
</g>
<!-- CHEM101 -->
<g id="node21" class="node">
<title>CHEM101</title>
<path fill="#4c72b0" stroke="#030a10" d="M246,-343C246,-343 202,-343 202,-343 199,-343 196,-340 196,-337 196,-337 196,-331 196,-331 196,-328 199,-325 202,-325 202,-325 246,-325 246,-325 249,-325 252,-328 252,-331 252,-331 252,-337 252,-337 252,-340 249,-343 246,-343"/>
<text text-anchor="middle" x="224" y="-331.8" font-family="Times,serif" font-size="9.00">CHEM101</text>
</g>
<!-- 1 of [&#39;CHEM101&#39;, &#39;CHEM150&#39;] -->
<g id="node32" class="node">
<title>1 of [&#39;CHEM101&#39;, &#39;CHEM150&#39;]</title>
<ellipse fill="#dfe6e9" stroke="#030a10" cx="307" cy="-334" rx="11" ry="11"/>
<text text-anchor="middle" x="307" y="-331.8" font-family="Times,serif" font-size="9.00">1</text>
</g>
<!-- CHEM101&#45;&gt;1 of [&#39;CHEM101&#39;, &#39;CHEM150&#39;] -->
<g id="edge18" class="edge">
<title>CHEM101&#45;&gt;1 of [&#39;CHEM101&#39;, &#39;CHEM150&#39;]</title>
<path fill="none" stroke="black" d="M252.42,-334C265.09,-334 279.66,-334 290.41,-334"/>
<polygon fill="black" stroke="black" points="290.65,-335.75 295.65,-334 290.65,-332.25 290.65,-335.75"/>
</g>
<!-- PHYS130&#45;&gt;1 of [&#39;PHYS102B&#39;, &#39;PHYS111&#39;, &#39;PHYS112&#39;, &#39;PHYS130&#39;] -->
<g id="edge59" class="edge">
<title>PHYS130&#45;&gt;1 of [&#39;PHYS102B&#39;, &#39;PHYS111&#39;, &#39;PHYS112&#39;, &#39;PHYS130&#39;]</title>
<path fill="none" stroke="black" d="M498.03,-235.09C509.81,-244.16 529.45,-257.52 549,-263 584.95,-273.07 629.47,-269.37 652.35,-266.36"/>
<polygon fill="black" stroke="black" points="652.71,-268.07 657.42,-265.65 652.23,-264.61 652.71,-268.07"/>
</g>
<!-- CHEM150 -->
<g id="node23" class="node">
<title>CHEM150</title>
<path fill="#4c72b0" stroke="#030a10" d="M246,-318C246,-318 202,-318 202,-318 199,-318 196,-315 196,-312 196,-312 196,-306 196,-306 196,-303 199,-300 202,-300 202,-300 246,-300 246,-300 249,-300 252,-303 252,-306 252,-306 252,-312 252,-312 252,-315 249,-318 246,-318"/>
<text text-anchor="middle" x="224" y="-306.8" font-family="Times,serif" font-size="9.00">CHEM150</text>
</g>
<!-- CHEM150&#45;&gt;1 of [&#39;CHEM101&#39;, &#39;CHEM150&#39;] -->
<g id="edge19" class="edge">
<title>CHEM150&#45;&gt;1 of [&#39;CHEM101&#39;, &#39;CHEM150&#39;]</title>
<path fill="none" stroke="black" d="M252.42,-317.46C265.36,-321.46 280.29,-326.07 291.1,-329.4"/>
<polygon fill="black" stroke="black" points="290.75,-331.13 296.05,-330.93 291.79,-327.78 290.75,-331.13"/>
</g>
<!-- PHYS102A -->
<g id="node24" class="node">
<title>PHYS102A</title>
<path fill="#55a868" stroke="#030a10" d="M417,-302C417,-302 368,-302 368,-302 365,-302 362,-299 362,-296 362,-296 362,-290 362,-290 362,-287 365,-284 368,-284 368,-284 417,-284 417,-284 420,-284 423,-287 423,-290 423,-290 423,-296 423,-296 423,-299 420,-302 417,-302"/>
<text text-anchor="middle" x="392.5" y="-290.8" font-family="Times,serif" font-size="9.00">PHYS102A</text>
</g>
<!-- PHYS102A&#45;&gt;1 of [&#39;PHYS102A&#39;, &#39;PHYS110&#39;, &#39;PHYS120&#39;] -->
<g id="edge11" class="edge">
<title>PHYS102A&#45;&gt;1 of [&#39;PHYS102A&#39;, &#39;PHYS110&#39;, &#39;PHYS120&#39;]</title>
<path fill="none" stroke="black" d="M423.21,-284.88C438.91,-280.59 457.51,-275.51 470.17,-272.05"/>
<polygon fill="black" stroke="black" points="470.84,-273.68 475.21,-270.68 469.92,-270.31 470.84,-273.68"/>
</g>
<!-- PHYS102A&#45;&gt;1 of [&#39;PHYS102A&#39;, &#39;PHYS110&#39;, &#39;PHYS112&#39;, &#39;PHYS120&#39;] -->
<g id="edge51" class="edge">
<title>PHYS102A&#45;&gt;1 of [&#39;PHYS102A&#39;, &#39;PHYS110&#39;, &#39;PHYS112&#39;, &#39;PHYS120&#39;]</title>
<path fill="none" stroke="black" d="M423.21,-294.3C438.73,-294.98 457.08,-295.78 469.73,-296.33"/>
<polygon fill="black" stroke="black" points="469.7,-298.08 474.77,-296.55 469.85,-294.59 469.7,-298.08"/>
</g>
<!-- EOS300+ -->
<g id="node25" class="node">
<title>EOS300+</title>
<path fill="#937860" stroke="#030a10" d="M109,-262C109,-262 67,-262 67,-262 64,-262 61,-259 61,-256 61,-256 61,-250 61,-250 61,-247 64,-244 67,-244 67,-244 109,-244 109,-244 112,-244 115,-247 115,-250 115,-250 115,-256 115,-256 115,-259 112,-262 109,-262"/>
<text text-anchor="middle" x="88" y="-250.8" font-family="Times,serif" font-size="9.00">EOS300+</text>
</g>
<!-- 1 of [&#39;MATH100&#39;, &#39;MATH109&#39;]&#45;&gt;MATH101 -->
<g id="edge3" class="edge">
<title>1 of [&#39;MATH100&#39;, &#39;MATH109&#39;]&#45;&gt;MATH101</title>
<path fill="none" stroke="black" d="M318.24,-204.75C328.4,-204.51 344.52,-204.13 359.05,-203.78"/>
<polygon fill="black" stroke="black" points="359.36,-205.52 364.32,-203.65 359.28,-202.02 359.36,-205.52"/>
</g>
<!-- 1 of [&#39;MATH100&#39;, &#39;MATH109&#39;]&#45;&gt;PHYS120 -->
<g id="edge21" class="edge">
<title>1 of [&#39;MATH100&#39;, &#39;MATH109&#39;]&#45;&gt;PHYS120</title>
<path fill="none" stroke="black" d="M317.25,-209.21C329.13,-214.62 350.19,-224.2 366.85,-231.78"/>
<polygon fill="black" stroke="black" points="366.15,-233.39 371.42,-233.86 367.6,-230.2 366.15,-233.39"/>
</g>
<!-- 1 of [&#39;MATH100&#39;, &#39;MATH102&#39;, &#39;MATH109&#39;]&#45;&gt;PHYS110 -->
<g id="edge6" class="edge">
<title>1 of [&#39;MATH100&#39;, &#39;MATH102&#39;, &#39;MATH109&#39;]&#45;&gt;PHYS110</title>
<path fill="none" stroke="black" d="M317.58,-237.9C328.91,-242.52 348.28,-250.4 364.35,-256.94"/>
<polygon fill="black" stroke="black" points="363.92,-258.66 369.21,-258.92 365.24,-255.42 363.92,-258.66"/>
</g>
<!-- 1 of [&#39;MATH100&#39;, &#39;MATH102&#39;, &#39;MATH109&#39;]&#45;&gt;PHYS111 -->
<g id="edge29" class="edge">
<title>1 of [&#39;MATH100&#39;, &#39;MATH102&#39;, &#39;MATH109&#39;]&#45;&gt;PHYS111</title>
<path fill="none" stroke="black" d="M317.84,-232.15C341.86,-227.74 405.4,-216.71 459,-213 482.94,-211.34 489.12,-210.64 513,-213 524.12,-214.1 536.16,-216.24 546.82,-218.47"/>
<polygon fill="black" stroke="black" points="546.67,-220.22 551.93,-219.56 547.41,-216.8 546.67,-220.22"/>
</g>
<!-- 1 of [&#39;MATH100&#39;, &#39;MATH102&#39;, &#39;MATH109&#39;]&#45;&gt;CHEM102 -->
<g id="edge15" class="edge">
<title>1 of [&#39;MATH100&#39;, &#39;MATH102&#39;, &#39;MATH109&#39;]&#45;&gt;CHEM102</title>
<path fill="none" stroke="black" d="M312.65,-243.62C321.22,-260.92 340.6,-298.07 362,-326 366.6,-332.01 372.31,-338.06 377.48,-343.15"/>
<polygon fill="black" stroke="black" points="376.48,-344.62 381.29,-346.83 378.91,-342.1 376.48,-344.62"/>
</g>
<!-- MATH102 -->
<g id="node28" class="node">
<title>MATH102</title>
<path fill="white" stroke="#030a10" stroke-opacity="0.125490" d="M238.33,-164C238.33,-164 209.67,-164 209.67,-164 207.33,-164 205,-161.67 205,-159.33 205,-159.33 205,-154.67 205,-154.67 205,-152.33 207.33,-150 209.67,-150 209.67,-150 238.33,-150 238.33,-150 240.67,-150 243,-152.33 243,-154.67 243,-154.67 243,-159.33 243,-159.33 243,-161.67 240.67,-164 238.33,-164"/>
<text text-anchor="middle" x="224" y="-156" font-family="Times,serif" font-size="5.00">MATH102</text>
</g>
<!-- MATH102&#45;&gt;1 of [&#39;MATH100&#39;, &#39;MATH102&#39;, &#39;MATH109&#39;] -->
<g id="edge8" class="edge">
<title>MATH102&#45;&gt;1 of [&#39;MATH100&#39;, &#39;MATH102&#39;, &#39;MATH109&#39;]</title>
<path fill="none" stroke="black" d="M231.81,-164.07C243.17,-175.79 266.85,-199.84 288,-219 289.86,-220.69 291.87,-222.43 293.85,-224.11"/>
<polygon fill="black" stroke="black" points="292.85,-225.56 297.81,-227.42 295.1,-222.87 292.85,-225.56"/>
</g>
<!-- MATH102&#45;&gt;2 of [&#39;MATH100&#39;, &#39;MATH101&#39;, &#39;MATH102&#39;, &#39;MATH109&#39;, &#39;MATH151&#39;] -->
<g id="edge39" class="edge">
<title>MATH102&#45;&gt;2 of [&#39;MATH100&#39;, &#39;MATH101&#39;, &#39;MATH102&#39;, &#39;MATH109&#39;, &#39;MATH151&#39;]</title>
<path fill="none" stroke="black" d="M243.26,-151.79C278.47,-142.55 358,-125.55 423,-140 440.82,-143.96 459.58,-153.61 471.73,-160.69"/>
<polygon fill="black" stroke="black" points="471.01,-162.3 476.2,-163.36 472.81,-159.3 471.01,-162.3"/>
</g>
<!-- 1 of [&#39;PHYS102A&#39;, &#39;PHYS110&#39;, &#39;PHYS120&#39;]&#45;&gt;PHYS102B -->
<g id="edge10" class="edge">
<title>1 of [&#39;PHYS102A&#39;, &#39;PHYS110&#39;, &#39;PHYS120&#39;]&#45;&gt;PHYS102B</title>
<path fill="none" stroke="black" d="M497.09,-266.12C508.33,-264.02 527.11,-260.51 543.75,-257.4"/>
<polygon fill="black" stroke="black" points="544.24,-259.09 548.84,-256.45 543.6,-255.65 544.24,-259.09"/>
</g>
<!-- EOS314 -->
<g id="node37" class="node">
<title>EOS314</title>
<path fill="#937860" stroke="#030a10" d="M769,-235C769,-235 734,-235 734,-235 731,-235 728,-232 728,-229 728,-229 728,-223 728,-223 728,-220 731,-217 734,-217 734,-217 769,-217 769,-217 772,-217 775,-220 775,-223 775,-223 775,-229 775,-229 775,-232 772,-235 769,-235"/>
<text text-anchor="middle" x="751.5" y="-223.8" font-family="Times,serif" font-size="9.00">EOS314</text>
</g>
<!-- 1 of [&#39;PHYS102A&#39;, &#39;PHYS110&#39;, &#39;PHYS120&#39;]&#45;&gt;EOS314 -->
<g id="edge42" class="edge">
<title>1 of [&#39;PHYS102A&#39;, &#39;PHYS110&#39;, &#39;PHYS120&#39;]&#45;&gt;EOS314</title>
<path fill="none" stroke="black" d="M496.83,-271.16C527.14,-280.37 621.39,-304.85 692,-278 712.31,-270.28 730.08,-251.91 740.55,-239.21"/>
<polygon fill="black" stroke="black" points="742.05,-240.14 743.81,-235.15 739.32,-237.95 742.05,-240.14"/>
</g>
<!-- MATH120 -->
<g id="node30" class="node">
<title>MATH120</title>
<path fill="white" stroke="#030a10" stroke-opacity="0.125490" d="M102.33,-237C102.33,-237 73.67,-237 73.67,-237 71.33,-237 69,-234.67 69,-232.33 69,-232.33 69,-227.67 69,-227.67 69,-225.33 71.33,-223 73.67,-223 73.67,-223 102.33,-223 102.33,-223 104.67,-223 107,-225.33 107,-227.67 107,-227.67 107,-232.33 107,-232.33 107,-234.67 104.67,-237 102.33,-237"/>
<text text-anchor="middle" x="88" y="-229" font-family="Times,serif" font-size="5.00">MATH120</text>
</g>
<!-- MATH120&#45;&gt;MATH109 -->
<g id="edge20" class="edge">
<title>MATH120&#45;&gt;MATH109</title>
<path fill="none" stroke="black" d="M107.07,-230C128.5,-230 164.62,-230 190.86,-230"/>
<polygon fill="black" stroke="black" points="190.96,-231.75 195.96,-230 190.96,-228.25 190.96,-231.75"/>
</g>
<!-- MATH120&#45;&gt;MATH100 -->
<g id="edge14" class="edge">
<title>MATH120&#45;&gt;MATH100</title>
<path fill="none" stroke="black" d="M107.22,-226.89C123.25,-224.12 147.19,-219.92 168,-216 175.39,-214.61 183.32,-213.05 190.8,-211.56"/>
<polygon fill="black" stroke="black" points="191.33,-213.24 195.89,-210.55 190.64,-209.81 191.33,-213.24"/>
</g>
<!-- MATH120&#45;&gt;CHEM101 -->
<g id="edge25" class="edge">
<title>MATH120&#45;&gt;CHEM101</title>
<path fill="none" stroke="black" d="M107.09,-227.53C124.62,-226.18 150.97,-227.05 168,-241 197.14,-264.87 170.9,-292.91 196,-321 196.16,-321.18 196.33,-321.37 196.5,-321.55"/>
<polygon fill="black" stroke="black" points="195.55,-323.03 200.47,-324.98 197.84,-320.39 195.55,-323.03"/>
</g>
<!-- CHEM091 -->
<g id="node31" class="node">
<title>CHEM091</title>
<path fill="white" stroke="#030a10" stroke-opacity="0.125490" d="M321.33,-366C321.33,-366 292.67,-366 292.67,-366 290.33,-366 288,-363.67 288,-361.33 288,-361.33 288,-356.67 288,-356.67 288,-354.33 290.33,-352 292.67,-352 292.67,-352 321.33,-352 321.33,-352 323.67,-352 326,-354.33 326,-356.67 326,-356.67 326,-361.33 326,-361.33 326,-363.67 323.67,-366 321.33,-366"/>
<text text-anchor="middle" x="307" y="-358" font-family="Times,serif" font-size="5.00">CHEM091</text>
</g>
<!-- CHEM091&#45;&gt;CHEM102 -->
<g id="edge16" class="edge">
<title>CHEM091&#45;&gt;CHEM102</title>
<path fill="none" stroke="black" d="M326.12,-358.35C335.77,-358 347.93,-357.57 359.14,-357.16"/>
<polygon fill="black" stroke="black" points="359.28,-358.91 364.21,-356.98 359.15,-355.41 359.28,-358.91"/>
</g>
<!-- 1 of [&#39;CHEM101&#39;, &#39;CHEM150&#39;]&#45;&gt;CHEM102 -->
<g id="edge17" class="edge">
<title>1 of [&#39;CHEM101&#39;, &#39;CHEM150&#39;]&#45;&gt;CHEM102</title>
<path fill="none" stroke="black" d="M317.91,-336.61C328.15,-339.31 344.7,-343.67 359.51,-347.57"/>
<polygon fill="black" stroke="black" points="359.17,-349.29 364.45,-348.87 360.07,-345.91 359.17,-349.29"/>
</g>
<!-- 1 of [&#39;CHEM101&#39;, &#39;CHEM150&#39;]&#45;&gt;EOS313 -->
<g id="edge35" class="edge">
<title>1 of [&#39;CHEM101&#39;, &#39;CHEM150&#39;]&#45;&gt;EOS313</title>
<path fill="none" stroke="black" d="M316.38,-340.43C326.67,-348.08 344.86,-360.83 362,-369 393.36,-383.94 431.73,-395.43 457.19,-402.19"/>
<polygon fill="black" stroke="black" points="456.82,-403.9 462.1,-403.47 457.71,-400.51 456.82,-403.9"/>
</g>
<!-- 1 of [&#39;CHEM101&#39;, &#39;CHEM150&#39;]&#45;&gt;EOS311 -->
<g id="edge47" class="edge">
<title>1 of [&#39;CHEM101&#39;, &#39;CHEM150&#39;]&#45;&gt;EOS311</title>
<path fill="none" stroke="black" d="M318.37,-334C345.66,-334 421.7,-334 485,-334 485,-334 485,-334 580,-334 630.49,-334 689.07,-327.39 722.75,-322.95"/>
<polygon fill="black" stroke="black" points="723.22,-324.65 727.94,-322.25 722.75,-321.18 723.22,-324.65"/>
</g>
<!-- EOS350 -->
<g id="node34" class="node">
<title>EOS350</title>
<path fill="#937860" stroke="#030a10" d="M105.5,-287C105.5,-287 70.5,-287 70.5,-287 67.5,-287 64.5,-284 64.5,-281 64.5,-281 64.5,-275 64.5,-275 64.5,-272 67.5,-269 70.5,-269 70.5,-269 105.5,-269 105.5,-269 108.5,-269 111.5,-272 111.5,-275 111.5,-275 111.5,-281 111.5,-281 111.5,-284 108.5,-287 105.5,-287"/>
<text text-anchor="middle" x="88" y="-275.8" font-family="Times,serif" font-size="9.00">EOS350</text>
</g>
<!-- EOS365 -->
<g id="node35" class="node">
<title>EOS365</title>
<path fill="#937860" stroke="#030a10" d="M105.5,-312C105.5,-312 70.5,-312 70.5,-312 67.5,-312 64.5,-309 64.5,-306 64.5,-306 64.5,-300 64.5,-300 64.5,-297 67.5,-294 70.5,-294 70.5,-294 105.5,-294 105.5,-294 108.5,-294 111.5,-297 111.5,-300 111.5,-300 111.5,-306 111.5,-306 111.5,-309 108.5,-312 105.5,-312"/>
<text text-anchor="middle" x="88" y="-300.8" font-family="Times,serif" font-size="9.00">EOS365</text>
</g>
<!-- EOS480 -->
<g id="node39" class="node">
<title>EOS480</title>
<path fill="#937860" stroke="#030a10" d="M105.5,-337C105.5,-337 70.5,-337 70.5,-337 67.5,-337 64.5,-334 64.5,-331 64.5,-331 64.5,-325 64.5,-325 64.5,-322 67.5,-319 70.5,-319 70.5,-319 105.5,-319 105.5,-319 108.5,-319 111.5,-322 111.5,-325 111.5,-325 111.5,-331 111.5,-331 111.5,-334 108.5,-337 105.5,-337"/>
<text text-anchor="middle" x="88" y="-325.8" font-family="Times,serif" font-size="9.00">EOS480</text>
</g>
<!-- EOS450 -->
<g id="node40" class="node">
<title>EOS450</title>
<path fill="#937860" stroke="#030a10" d="M769,-419C769,-419 734,-419 734,-419 731,-419 728,-416 728,-413 728,-413 728,-407 728,-407 728,-404 731,-401 734,-401 734,-401 769,-401 769,-401 772,-401 775,-404 775,-407 775,-407 775,-413 775,-413 775,-416 772,-419 769,-419"/>
<text text-anchor="middle" x="751.5" y="-407.8" font-family="Times,serif" font-size="9.00">EOS450</text>
</g>
<!-- 2 of [&#39;MATH100&#39;, &#39;MATH101&#39;, &#39;MATH102&#39;, &#39;MATH109&#39;, &#39;MATH151&#39;]&#45;&gt;EOS314 -->
<g id="edge36" class="edge">
<title>2 of [&#39;MATH100&#39;, &#39;MATH101&#39;, &#39;MATH102&#39;, &#39;MATH109&#39;, &#39;MATH151&#39;]&#45;&gt;EOS314</title>
<path fill="none" stroke="black" d="M497.21,-167.85C527.85,-164.79 621.21,-158.33 692,-184 709.38,-190.3 726.19,-203.33 737.3,-213.22"/>
<polygon fill="black" stroke="black" points="736.25,-214.63 741.13,-216.7 738.61,-212.04 736.25,-214.63"/>
</g>
<!-- 2 of [&#39;MATH100&#39;, &#39;MATH101&#39;, &#39;MATH102&#39;, &#39;MATH109&#39;, &#39;MATH151&#39;]&#45;&gt;EOS311 -->
<g id="edge49" class="edge">
<title>2 of [&#39;MATH100&#39;, &#39;MATH101&#39;, &#39;MATH102&#39;, &#39;MATH109&#39;, &#39;MATH151&#39;]&#45;&gt;EOS311</title>
<path fill="none" stroke="black" d="M497.11,-169.94C533.9,-173.54 660.2,-187.41 692,-211 724,-234.74 740.46,-281.37 747.01,-304.82"/>
<polygon fill="black" stroke="black" points="745.34,-305.35 748.33,-309.72 748.72,-304.44 745.34,-305.35"/>
</g>
<!-- MATH151 -->
<g id="node42" class="node">
<title>MATH151</title>
<path fill="white" stroke="#030a10" stroke-opacity="0.125490" d="M406.83,-157C406.83,-157 378.17,-157 378.17,-157 375.83,-157 373.5,-154.67 373.5,-152.33 373.5,-152.33 373.5,-147.67 373.5,-147.67 373.5,-145.33 375.83,-143 378.17,-143 378.17,-143 406.83,-143 406.83,-143 409.17,-143 411.5,-145.33 411.5,-147.67 411.5,-147.67 411.5,-152.33 411.5,-152.33 411.5,-154.67 409.17,-157 406.83,-157"/>
<text text-anchor="middle" x="392.5" y="-149" font-family="Times,serif" font-size="5.00">MATH151</text>
</g>
<!-- MATH151&#45;&gt;2 of [&#39;MATH100&#39;, &#39;MATH101&#39;, &#39;MATH102&#39;, &#39;MATH109&#39;, &#39;MATH151&#39;] -->
<g id="edge41" class="edge">
<title>MATH151&#45;&gt;2 of [&#39;MATH100&#39;, &#39;MATH101&#39;, &#39;MATH102&#39;, &#39;MATH109&#39;, &#39;MATH151&#39;]</title>
<path fill="none" stroke="black" d="M411.58,-153.75C428.7,-157.31 454.12,-162.59 470.11,-165.91"/>
<polygon fill="black" stroke="black" points="469.89,-167.65 475.14,-166.95 470.6,-164.22 469.89,-167.65"/>
</g>
<!-- 1 of [&#39;PHYS102B&#39;, &#39;PHYS111&#39;, &#39;PHYS120&#39;]&#45;&gt;EOS314 -->
<g id="edge43" class="edge">
<title>1 of [&#39;PHYS102B&#39;, &#39;PHYS111&#39;, &#39;PHYS120&#39;]&#45;&gt;EOS314</title>
<path fill="none" stroke="black" d="M679.76,-226C690.45,-226 707.68,-226 722.45,-226"/>
<polygon fill="black" stroke="black" points="722.77,-227.75 727.77,-226 722.77,-224.25 722.77,-227.75"/>
</g>
<!-- 1 of [&#39;PHYS102A&#39;, &#39;PHYS110&#39;, &#39;PHYS112&#39;, &#39;PHYS120&#39;]&#45;&gt;EOS311 -->
<g id="edge50" class="edge">
<title>1 of [&#39;PHYS102A&#39;, &#39;PHYS110&#39;, &#39;PHYS112&#39;, &#39;PHYS120&#39;]&#45;&gt;EOS311</title>
<path fill="none" stroke="black" d="M497.01,-297.84C534.15,-300.94 664.9,-311.85 722.69,-316.68"/>
<polygon fill="black" stroke="black" points="722.59,-318.43 727.72,-317.1 722.88,-314.94 722.59,-318.43"/>
</g>
<!-- PHYS112 -->
<g id="node45" class="node">
<title>PHYS112</title>
<path fill="white" stroke="#030a10" stroke-opacity="0.125490" d="M406.33,-323C406.33,-323 378.67,-323 378.67,-323 376.33,-323 374,-320.67 374,-318.33 374,-318.33 374,-313.67 374,-313.67 374,-311.33 376.33,-309 378.67,-309 378.67,-309 406.33,-309 406.33,-309 408.67,-309 411,-311.33 411,-313.67 411,-313.67 411,-318.33 411,-318.33 411,-320.67 408.67,-323 406.33,-323"/>
<text text-anchor="middle" x="392.5" y="-315" font-family="Times,serif" font-size="5.00">PHYS112</text>
</g>
<!-- PHYS112&#45;&gt;1 of [&#39;PHYS102A&#39;, &#39;PHYS110&#39;, &#39;PHYS112&#39;, &#39;PHYS120&#39;] -->
<g id="edge53" class="edge">
<title>PHYS112&#45;&gt;1 of [&#39;PHYS102A&#39;, &#39;PHYS110&#39;, &#39;PHYS112&#39;, &#39;PHYS120&#39;]</title>
<path fill="none" stroke="black" d="M411.14,-312.34C428.22,-308.79 453.83,-303.47 469.96,-300.12"/>
<polygon fill="black" stroke="black" points="470.5,-301.8 475.04,-299.07 469.79,-298.37 470.5,-301.8"/>
</g>
<!-- PHYS112&#45;&gt;1 of [&#39;PHYS102B&#39;, &#39;PHYS111&#39;, &#39;PHYS112&#39;, &#39;PHYS130&#39;] -->
<g id="edge58" class="edge">
<title>PHYS112&#45;&gt;1 of [&#39;PHYS102B&#39;, &#39;PHYS111&#39;, &#39;PHYS112&#39;, &#39;PHYS130&#39;]</title>
<path fill="none" stroke="black" d="M411.06,-316.65C434.49,-317.19 477.18,-317.1 513,-311 565.86,-302 625.97,-280.22 652.99,-269.77"/>
<polygon fill="black" stroke="black" points="653.92,-271.29 657.94,-267.84 652.65,-268.03 653.92,-271.29"/>
</g>
<!-- 1 of [&#39;PHYS102B&#39;, &#39;PHYS111&#39;, &#39;PHYS112&#39;, &#39;PHYS130&#39;]&#45;&gt;EOS311 -->
<g id="edge55" class="edge">
<title>1 of [&#39;PHYS102B&#39;, &#39;PHYS111&#39;, &#39;PHYS112&#39;, &#39;PHYS130&#39;]&#45;&gt;EOS311</title>
<path fill="none" stroke="black" d="M678.17,-269.89C691.08,-278.65 715.64,-295.33 732.53,-306.8"/>
<polygon fill="black" stroke="black" points="731.95,-308.52 737.07,-309.88 733.92,-305.63 731.95,-308.52"/>
</g>
<!-- 1 of [&#39;EOS201&#39;, &#39;EOS240&#39;]&#45;&gt;EOS450 -->
<g id="edge60" class="edge">
<title>1 of [&#39;EOS201&#39;, &#39;EOS240&#39;]&#45;&gt;EOS450</title>
<path fill="none" stroke="black" d="M679.76,-410C690.45,-410 707.68,-410 722.45,-410"/>
<polygon fill="black" stroke="black" points="722.77,-411.75 727.77,-410 722.77,-408.25 722.77,-411.75"/>
</g>
</g>
</svg>
