<?xml version="1.0" encoding="UTF-8" standalone="no"?>
<!DOCTYPE svg PUBLIC "-//W3C//DTD SVG 1.1//EN"
 "http://www.w3.org/Graphics/SVG/1.1/DTD/svg11.dtd">
<!-- Generated by graphviz version 2.43.0 (0)
 -->
<!-- Title: unix Pages: 1 -->
<svg width="768pt" height="408pt"
 viewBox="0.00 0.00 768.00 408.00" xmlns="http://www.w3.org/2000/svg" xmlns:xlink="http://www.w3.org/1999/xlink">
<g id="graph0" class="graph" transform="scale(1 1) rotate(0) translate(4 404)">
<title>unix</title>
<polygon fill="white" stroke="transparent" points="-4,4 -4,-404 764,-404 764,4 -4,4"/>
<text text-anchor="middle" x="380" y="-384.8" font-family="Times,serif" font-size="14.00">Earth Sciences (Minor) PROPOSED CHANGES</text>
<text text-anchor="middle" x="380" y="-369.8" font-family="Times,serif" font-size="14.00">Using options: [&#39;EOS202&#39;, &#39;EOS201&#39;]</text>
<g id="clust1" class="cluster">
<title>cluster_Legend</title>
<polygon fill="none" stroke="black" points="8,-26.5 8,-255.5 168,-255.5 168,-26.5 8,-26.5"/>
<text text-anchor="middle" x="88" y="-240.3" font-family="Times,serif" font-size="14.00">Legend</text>
</g>
<!-- Required -->
<g id="node1" class="node">
<title>Required</title>
<path fill="#9fa7be" stroke="#030a10" d="M153,-224C153,-224 23,-224 23,-224 19.5,-224 16,-220.5 16,-217 16,-217 16,-210 16,-210 16,-206.5 19.5,-203 23,-203 23,-203 153,-203 153,-203 156.5,-203 160,-206.5 160,-210 160,-210 160,-217 160,-217 160,-220.5 156.5,-224 153,-224"/>
<text text-anchor="middle" x="88" y="-210.4" font-family="Times,serif" font-size="12.00">Required</text>
</g>
<!-- Required.11 Required -->
<g id="node2" class="node">
<title>Required.11 Required</title>
<path fill="#f77189" stroke="#030a10" d="M153,-196C153,-196 23,-196 23,-196 19.5,-196 16,-192.5 16,-189 16,-189 16,-182 16,-182 16,-178.5 19.5,-175 23,-175 23,-175 153,-175 153,-175 156.5,-175 160,-178.5 160,-182 160,-182 160,-189 160,-189 160,-192.5 156.5,-196 153,-196"/>
<text text-anchor="middle" x="88" y="-182.4" font-family="Times,serif" font-size="12.00">1 Required</text>
</g>
<!-- Required.21 Required -->
<g id="node3" class="node">
<title>Required.21 Required</title>
<path fill="#c69432" stroke="#030a10" d="M153,-168C153,-168 23,-168 23,-168 19.5,-168 16,-164.5 16,-161 16,-161 16,-154 16,-154 16,-150.5 19.5,-147 23,-147 23,-147 153,-147 153,-147 156.5,-147 160,-150.5 160,-154 160,-154 160,-161 160,-161 160,-164.5 156.5,-168 153,-168"/>
<text text-anchor="middle" x="88" y="-154.4" font-family="Times,serif" font-size="12.00">1 Required</text>
</g>
<!-- Required.31 Required -->
<g id="node4" class="node">
<title>Required.31 Required</title>
<path fill="#82a931" stroke="#030a10" d="M153,-140C153,-140 23,-140 23,-140 19.5,-140 16,-136.5 16,-133 16,-133 16,-126 16,-126 16,-122.5 19.5,-119 23,-119 23,-119 153,-119 153,-119 156.5,-119 160,-122.5 160,-126 160,-126 160,-133 160,-133 160,-136.5 156.5,-140 153,-140"/>
<text text-anchor="middle" x="88" y="-126.4" font-family="Times,serif" font-size="12.00">1 Required</text>
</g>
<!-- Required.41 Required -->
<g id="node5" class="node">
<title>Required.41 Required</title>
<path fill="#34af8a" stroke="#030a10" d="M153,-112C153,-112 23,-112 23,-112 19.5,-112 16,-108.5 16,-105 16,-105 16,-98 16,-98 16,-94.5 19.5,-91 23,-91 23,-91 153,-91 153,-91 156.5,-91 160,-94.5 160,-98 160,-98 160,-105 160,-105 160,-108.5 156.5,-112 153,-112"/>
<text text-anchor="middle" x="88" y="-98.4" font-family="Times,serif" font-size="12.00">1 Required</text>
</g>
<!-- Required.52 Required -->
<g id="node6" class="node">
<title>Required.52 Required</title>
<path fill="#37aabb" stroke="#030a10" d="M153,-84C153,-84 23,-84 23,-84 19.5,-84 16,-80.5 16,-77 16,-77 16,-70 16,-70 16,-66.5 19.5,-63 23,-63 23,-63 153,-63 153,-63 156.5,-63 160,-66.5 160,-70 160,-70 160,-77 160,-77 160,-80.5 156.5,-84 153,-84"/>
<text text-anchor="middle" x="88" y="-70.4" font-family="Times,serif" font-size="12.00">2 Required</text>
</g>
<!-- Required.64.5 units Required -->
<g id="node7" class="node">
<title>Required.64.5 units Required</title>
<path fill="#8197f4" stroke="#030a10" d="M153,-56C153,-56 23,-56 23,-56 19.5,-56 16,-52.5 16,-49 16,-49 16,-42 16,-42 16,-38.5 19.5,-35 23,-35 23,-35 153,-35 153,-35 156.5,-35 160,-38.5 160,-42 160,-42 160,-49 160,-49 160,-52.5 156.5,-56 153,-56"/>
<text text-anchor="middle" x="88" y="-42.4" font-family="Times,serif" font-size="12.00">4.5 units Required</text>
</g>
<!-- MATH101 -->
<g id="node8" class="node">
<title>MATH101</title>
<path fill="#9fa7be" stroke="#030a10" d="M412,-306.5C412,-306.5 368,-306.5 368,-306.5 365,-306.5 362,-303.5 362,-300.5 362,-300.5 362,-294.5 362,-294.5 362,-291.5 365,-288.5 368,-288.5 368,-288.5 412,-288.5 412,-288.5 415,-288.5 418,-291.5 418,-294.5 418,-294.5 418,-300.5 418,-300.5 418,-303.5 415,-306.5 412,-306.5"/>
<text text-anchor="middle" x="390" y="-295.3" font-family="Times,serif" font-size="9.00">MATH101</text>
</g>
<!-- PHYS130 -->
<g id="node22" class="node">
<title>PHYS130</title>
<path fill="#34af8a" stroke="#030a10" d="M504,-289.5C504,-289.5 462,-289.5 462,-289.5 459,-289.5 456,-286.5 456,-283.5 456,-283.5 456,-277.5 456,-277.5 456,-274.5 459,-271.5 462,-271.5 462,-271.5 504,-271.5 504,-271.5 507,-271.5 510,-274.5 510,-277.5 510,-277.5 510,-283.5 510,-283.5 510,-286.5 507,-289.5 504,-289.5"/>
<text text-anchor="middle" x="483" y="-278.3" font-family="Times,serif" font-size="9.00">PHYS130</text>
</g>
<!-- MATH101&#45;&gt;PHYS130 -->
<g id="edge27" class="edge">
<title>MATH101&#45;&gt;PHYS130</title>
<path fill="none" stroke="black" d="M418.3,-292.4C428.56,-290.48 440.3,-288.29 450.88,-286.31"/>
<polygon fill="black" stroke="black" points="451.37,-288 455.96,-285.36 450.73,-284.56 451.37,-288"/>
</g>
<!-- 2 of [&#39;MATH100&#39;, &#39;MATH101&#39;, &#39;MATH102&#39;, &#39;MATH109&#39;, &#39;MATH151&#39;] -->
<g id="node40" class="node">
<title>2 of [&#39;MATH100&#39;, &#39;MATH101&#39;, &#39;MATH102&#39;, &#39;MATH109&#39;, &#39;MATH151&#39;]</title>
<ellipse fill="#b2bec3" stroke="#030a10" cx="483" cy="-317.5" rx="11" ry="11"/>
<text text-anchor="middle" x="483" y="-314.4" font-family="Times,serif" font-size="12.00">2</text>
</g>
<!-- MATH101&#45;&gt;2 of [&#39;MATH100&#39;, &#39;MATH101&#39;, &#39;MATH102&#39;, &#39;MATH109&#39;, &#39;MATH151&#39;] -->
<g id="edge38" class="edge">
<title>MATH101&#45;&gt;2 of [&#39;MATH100&#39;, &#39;MATH101&#39;, &#39;MATH102&#39;, &#39;MATH109&#39;, &#39;MATH151&#39;]</title>
<path fill="none" stroke="black" d="M418.3,-303.5C434.39,-307.04 454.1,-311.37 467.3,-314.27"/>
<polygon fill="black" stroke="black" points="466.93,-315.98 472.19,-315.34 467.68,-312.56 466.93,-315.98"/>
</g>
<!-- PHYS110 -->
<g id="node9" class="node">
<title>PHYS110</title>
<path fill="#82a931" stroke="#030a10" d="M411,-220.5C411,-220.5 369,-220.5 369,-220.5 366,-220.5 363,-217.5 363,-214.5 363,-214.5 363,-208.5 363,-208.5 363,-205.5 366,-202.5 369,-202.5 369,-202.5 411,-202.5 411,-202.5 414,-202.5 417,-205.5 417,-208.5 417,-208.5 417,-214.5 417,-214.5 417,-217.5 414,-220.5 411,-220.5"/>
<text text-anchor="middle" x="390" y="-209.3" font-family="Times,serif" font-size="9.00">PHYS110</text>
</g>
<!-- PHYS111 -->
<g id="node16" class="node">
<title>PHYS111</title>
<path fill="#34af8a" stroke="#030a10" d="M599,-196.5C599,-196.5 557,-196.5 557,-196.5 554,-196.5 551,-193.5 551,-190.5 551,-190.5 551,-184.5 551,-184.5 551,-181.5 554,-178.5 557,-178.5 557,-178.5 599,-178.5 599,-178.5 602,-178.5 605,-181.5 605,-184.5 605,-184.5 605,-190.5 605,-190.5 605,-193.5 602,-196.5 599,-196.5"/>
<text text-anchor="middle" x="578" y="-185.3" font-family="Times,serif" font-size="9.00">PHYS111</text>
</g>
<!-- PHYS110&#45;&gt;PHYS111 -->
<g id="edge28" class="edge">
<title>PHYS110&#45;&gt;PHYS111</title>
<path fill="none" stroke="black" d="M417.14,-203.72C428.38,-200.67 441.74,-197.44 454,-195.5 484.98,-190.6 520.81,-188.69 545.77,-187.95"/>
<polygon fill="black" stroke="black" points="545.98,-189.7 550.93,-187.81 545.89,-186.2 545.98,-189.7"/>
</g>
<!-- 1 of [&#39;PHYS102A&#39;, &#39;PHYS110&#39;, &#39;PHYS120&#39;] -->
<g id="node26" class="node">
<title>1 of [&#39;PHYS102A&#39;, &#39;PHYS110&#39;, &#39;PHYS120&#39;]</title>
<ellipse fill="#dfe6e9" stroke="#030a10" cx="483" cy="-238.5" rx="11" ry="11"/>
<text text-anchor="middle" x="483" y="-235.4" font-family="Times,serif" font-size="12.00">1</text>
</g>
<!-- PHYS110&#45;&gt;1 of [&#39;PHYS102A&#39;, &#39;PHYS110&#39;, &#39;PHYS120&#39;] -->
<g id="edge12" class="edge">
<title>PHYS110&#45;&gt;1 of [&#39;PHYS102A&#39;, &#39;PHYS110&#39;, &#39;PHYS120&#39;]</title>
<path fill="none" stroke="black" d="M417.32,-219.31C433.45,-224.09 453.51,-230.05 466.98,-234.04"/>
<polygon fill="black" stroke="black" points="466.67,-235.78 471.97,-235.52 467.67,-232.42 466.67,-235.78"/>
</g>
<!-- 1 of [&#39;PHYS102A&#39;, &#39;PHYS110&#39;, &#39;PHYS112&#39;, &#39;PHYS120&#39;] -->
<g id="node43" class="node">
<title>1 of [&#39;PHYS102A&#39;, &#39;PHYS110&#39;, &#39;PHYS112&#39;, &#39;PHYS120&#39;]</title>
<ellipse fill="#dfe6e9" stroke="#030a10" cx="483" cy="-209.5" rx="11" ry="11"/>
<text text-anchor="middle" x="483" y="-206.4" font-family="Times,serif" font-size="12.00">1</text>
</g>
<!-- PHYS110&#45;&gt;1 of [&#39;PHYS102A&#39;, &#39;PHYS110&#39;, &#39;PHYS112&#39;, &#39;PHYS120&#39;] -->
<g id="edge52" class="edge">
<title>PHYS110&#45;&gt;1 of [&#39;PHYS102A&#39;, &#39;PHYS110&#39;, &#39;PHYS112&#39;, &#39;PHYS120&#39;]</title>
<path fill="none" stroke="black" d="M417.32,-210.92C433.3,-210.57 453.15,-210.13 466.62,-209.84"/>
<polygon fill="black" stroke="black" points="467.01,-211.58 471.97,-209.72 466.93,-208.08 467.01,-211.58"/>
</g>
<!-- EOS202 -->
<g id="node10" class="node">
<title>EOS202</title>
<path fill="#37aabb" stroke="#030a10" d="M504,-46.5C504,-46.5 462,-46.5 462,-46.5 459,-46.5 456,-43.5 456,-40.5 456,-40.5 456,-34.5 456,-34.5 456,-31.5 459,-28.5 462,-28.5 462,-28.5 504,-28.5 504,-28.5 507,-28.5 510,-31.5 510,-34.5 510,-34.5 510,-40.5 510,-40.5 510,-43.5 507,-46.5 504,-46.5"/>
<text text-anchor="middle" x="483" y="-35.3" font-family="Times,serif" font-size="9.00">EOS202</text>
</g>
<!-- EOS410 -->
<g id="node34" class="node">
<title>EOS410</title>
<path fill="#8197f4" stroke="#030a10" d="M600,-48C600,-48 556,-48 556,-48 552.5,-48 549,-44.5 549,-41 549,-41 549,-34 549,-34 549,-30.5 552.5,-27 556,-27 556,-27 600,-27 600,-27 603.5,-27 607,-30.5 607,-34 607,-34 607,-41 607,-41 607,-44.5 603.5,-48 600,-48"/>
<text text-anchor="middle" x="578" y="-34.4" font-family="Times,serif" font-size="12.00">EOS410</text>
</g>
<!-- EOS202&#45;&gt;EOS410 -->
<g id="edge33" class="edge">
<title>EOS202&#45;&gt;EOS410</title>
<path fill="none" stroke="black" d="M510.4,-37.5C520.74,-37.5 532.72,-37.5 543.64,-37.5"/>
<polygon fill="black" stroke="black" points="543.91,-39.25 548.91,-37.5 543.91,-35.75 543.91,-39.25"/>
</g>
<!-- EOS240 -->
<g id="node11" class="node">
<title>EOS240</title>
<path fill="#37aabb" stroke="#030a10" d="M599,-106.5C599,-106.5 557,-106.5 557,-106.5 554,-106.5 551,-103.5 551,-100.5 551,-100.5 551,-94.5 551,-94.5 551,-91.5 554,-88.5 557,-88.5 557,-88.5 599,-88.5 599,-88.5 602,-88.5 605,-91.5 605,-94.5 605,-94.5 605,-100.5 605,-100.5 605,-103.5 602,-106.5 599,-106.5"/>
<text text-anchor="middle" x="578" y="-95.3" font-family="Times,serif" font-size="9.00">EOS240</text>
</g>
<!-- 1 of [&#39;EOS201&#39;, &#39;EOS240&#39;] -->
<g id="node46" class="node">
<title>1 of [&#39;EOS201&#39;, &#39;EOS240&#39;]</title>
<ellipse fill="#dfe6e9" stroke="#030a10" cx="655" cy="-85.5" rx="11" ry="11"/>
<text text-anchor="middle" x="655" y="-82.4" font-family="Times,serif" font-size="12.00">1</text>
</g>
<!-- EOS240&#45;&gt;1 of [&#39;EOS201&#39;, &#39;EOS240&#39;] -->
<g id="edge62" class="edge">
<title>EOS240&#45;&gt;1 of [&#39;EOS201&#39;, &#39;EOS240&#39;]</title>
<path fill="none" stroke="black" d="M605.23,-93.3C616.49,-91.5 629.25,-89.46 638.89,-87.92"/>
<polygon fill="black" stroke="black" points="639.24,-89.63 643.9,-87.12 638.69,-86.18 639.24,-89.63"/>
</g>
<!-- EOS205 -->
<g id="node12" class="node">
<title>EOS205</title>
<path fill="#9fa7be" stroke="#030a10" d="M504,-86.5C504,-86.5 462,-86.5 462,-86.5 459,-86.5 456,-83.5 456,-80.5 456,-80.5 456,-74.5 456,-74.5 456,-71.5 459,-68.5 462,-68.5 462,-68.5 504,-68.5 504,-68.5 507,-68.5 510,-71.5 510,-74.5 510,-74.5 510,-80.5 510,-80.5 510,-83.5 507,-86.5 504,-86.5"/>
<text text-anchor="middle" x="483" y="-75.3" font-family="Times,serif" font-size="9.00">EOS205</text>
</g>
<!-- EOS205&#45;&gt;EOS240 -->
<g id="edge31" class="edge">
<title>EOS205&#45;&gt;EOS240</title>
<path fill="none" stroke="black" d="M510.4,-83.18C521.39,-85.54 534.24,-88.3 545.7,-90.77"/>
<polygon fill="black" stroke="black" points="545.6,-92.54 550.85,-91.88 546.33,-89.12 545.6,-92.54"/>
</g>
<!-- EOS201 -->
<g id="node20" class="node">
<title>EOS201</title>
<path fill="#37aabb" stroke="#030a10" d="M599,-81.5C599,-81.5 557,-81.5 557,-81.5 554,-81.5 551,-78.5 551,-75.5 551,-75.5 551,-69.5 551,-69.5 551,-66.5 554,-63.5 557,-63.5 557,-63.5 599,-63.5 599,-63.5 602,-63.5 605,-66.5 605,-69.5 605,-69.5 605,-75.5 605,-75.5 605,-78.5 602,-81.5 599,-81.5"/>
<text text-anchor="middle" x="578" y="-70.3" font-family="Times,serif" font-size="9.00">EOS201</text>
</g>
<!-- EOS205&#45;&gt;EOS201 -->
<g id="edge2" class="edge">
<title>EOS205&#45;&gt;EOS201</title>
<path fill="none" stroke="black" d="M510.4,-76.08C521.39,-75.49 534.24,-74.8 545.7,-74.18"/>
<polygon fill="black" stroke="black" points="545.96,-75.92 550.85,-73.91 545.77,-72.43 545.96,-75.92"/>
</g>
<!-- MATH109 -->
<g id="node13" class="node">
<title>MATH109</title>
<path fill="#c69432" stroke="#030a10" d="M246,-304.5C246,-304.5 202,-304.5 202,-304.5 199,-304.5 196,-301.5 196,-298.5 196,-298.5 196,-292.5 196,-292.5 196,-289.5 199,-286.5 202,-286.5 202,-286.5 246,-286.5 246,-286.5 249,-286.5 252,-289.5 252,-292.5 252,-292.5 252,-298.5 252,-298.5 252,-301.5 249,-304.5 246,-304.5"/>
<text text-anchor="middle" x="224" y="-293.3" font-family="Times,serif" font-size="9.00">MATH109</text>
</g>
<!-- 1 of [&#39;MATH100&#39;, &#39;MATH109&#39;] -->
<g id="node23" class="node">
<title>1 of [&#39;MATH100&#39;, &#39;MATH109&#39;]</title>
<ellipse fill="#dfe6e9" stroke="#030a10" cx="307" cy="-295.5" rx="11" ry="11"/>
<text text-anchor="middle" x="307" y="-292.4" font-family="Times,serif" font-size="12.00">1</text>
</g>
<!-- MATH109&#45;&gt;1 of [&#39;MATH100&#39;, &#39;MATH109&#39;] -->
<g id="edge5" class="edge">
<title>MATH109&#45;&gt;1 of [&#39;MATH100&#39;, &#39;MATH109&#39;]</title>
<path fill="none" stroke="black" d="M252.42,-295.5C265.09,-295.5 279.66,-295.5 290.41,-295.5"/>
<polygon fill="black" stroke="black" points="290.65,-297.25 295.65,-295.5 290.65,-293.75 290.65,-297.25"/>
</g>
<!-- 1 of [&#39;MATH100&#39;, &#39;MATH102&#39;, &#39;MATH109&#39;] -->
<g id="node24" class="node">
<title>1 of [&#39;MATH100&#39;, &#39;MATH102&#39;, &#39;MATH109&#39;]</title>
<ellipse fill="#dfe6e9" stroke="#030a10" cx="307" cy="-220.5" rx="11" ry="11"/>
<text text-anchor="middle" x="307" y="-217.4" font-family="Times,serif" font-size="12.00">1</text>
</g>
<!-- MATH109&#45;&gt;1 of [&#39;MATH100&#39;, &#39;MATH102&#39;, &#39;MATH109&#39;] -->
<g id="edge9" class="edge">
<title>MATH109&#45;&gt;1 of [&#39;MATH100&#39;, &#39;MATH102&#39;, &#39;MATH109&#39;]</title>
<path fill="none" stroke="black" d="M246.14,-286.38C248.19,-285.18 250.18,-283.89 252,-282.5 270.36,-268.5 287.07,-247.45 296.89,-233.84"/>
<polygon fill="black" stroke="black" points="298.48,-234.62 299.95,-229.53 295.63,-232.59 298.48,-234.62"/>
</g>
<!-- MATH109&#45;&gt;2 of [&#39;MATH100&#39;, &#39;MATH101&#39;, &#39;MATH102&#39;, &#39;MATH109&#39;, &#39;MATH151&#39;] -->
<g id="edge40" class="edge">
<title>MATH109&#45;&gt;2 of [&#39;MATH100&#39;, &#39;MATH101&#39;, &#39;MATH102&#39;, &#39;MATH109&#39;, &#39;MATH151&#39;]</title>
<path fill="none" stroke="black" d="M240.99,-304.5C253.38,-310.94 271.21,-319.05 288,-322.5 353.21,-335.88 433.31,-325.63 466.49,-320.25"/>
<polygon fill="black" stroke="black" points="467.11,-321.92 471.76,-319.38 466.54,-318.47 467.11,-321.92"/>
</g>
<!-- PHYS102B -->
<g id="node14" class="node">
<title>PHYS102B</title>
<path fill="#34af8a" stroke="#030a10" d="M602,-247.5C602,-247.5 554,-247.5 554,-247.5 551,-247.5 548,-244.5 548,-241.5 548,-241.5 548,-235.5 548,-235.5 548,-232.5 551,-229.5 554,-229.5 554,-229.5 602,-229.5 602,-229.5 605,-229.5 608,-232.5 608,-235.5 608,-235.5 608,-241.5 608,-241.5 608,-244.5 605,-247.5 602,-247.5"/>
<text text-anchor="middle" x="578" y="-236.3" font-family="Times,serif" font-size="9.00">PHYS102B</text>
</g>
<!-- 1 of [&#39;PHYS102B&#39;, &#39;PHYS111&#39;, &#39;PHYS120&#39;] -->
<g id="node42" class="node">
<title>1 of [&#39;PHYS102B&#39;, &#39;PHYS111&#39;, &#39;PHYS120&#39;]</title>
<ellipse fill="#dfe6e9" stroke="#030a10" cx="655" cy="-258.5" rx="11" ry="11"/>
<text text-anchor="middle" x="655" y="-255.4" font-family="Times,serif" font-size="12.00">1</text>
</g>
<!-- PHYS102B&#45;&gt;1 of [&#39;PHYS102B&#39;, &#39;PHYS111&#39;, &#39;PHYS120&#39;] -->
<g id="edge44" class="edge">
<title>PHYS102B&#45;&gt;1 of [&#39;PHYS102B&#39;, &#39;PHYS111&#39;, &#39;PHYS120&#39;]</title>
<path fill="none" stroke="black" d="M608.21,-246.29C618.7,-249.09 630.1,-252.13 638.91,-254.47"/>
<polygon fill="black" stroke="black" points="638.74,-256.24 644.02,-255.84 639.64,-252.86 638.74,-256.24"/>
</g>
<!-- 1 of [&#39;PHYS102B&#39;, &#39;PHYS111&#39;, &#39;PHYS112&#39;, &#39;PHYS130&#39;] -->
<g id="node45" class="node">
<title>1 of [&#39;PHYS102B&#39;, &#39;PHYS111&#39;, &#39;PHYS112&#39;, &#39;PHYS130&#39;]</title>
<ellipse fill="#dfe6e9" stroke="#030a10" cx="655" cy="-229.5" rx="11" ry="11"/>
<text text-anchor="middle" x="655" y="-226.4" font-family="Times,serif" font-size="12.00">1</text>
</g>
<!-- PHYS102B&#45;&gt;1 of [&#39;PHYS102B&#39;, &#39;PHYS111&#39;, &#39;PHYS112&#39;, &#39;PHYS130&#39;] -->
<g id="edge56" class="edge">
<title>PHYS102B&#45;&gt;1 of [&#39;PHYS102B&#39;, &#39;PHYS111&#39;, &#39;PHYS112&#39;, &#39;PHYS130&#39;]</title>
<path fill="none" stroke="black" d="M608.21,-234.99C618.7,-233.74 630.1,-232.37 638.91,-231.31"/>
<polygon fill="black" stroke="black" points="639.26,-233.03 644.02,-230.7 638.85,-229.56 639.26,-233.03"/>
</g>
<!-- MATH100 -->
<g id="node15" class="node">
<title>MATH100</title>
<path fill="#c69432" stroke="#030a10" d="M246,-279.5C246,-279.5 202,-279.5 202,-279.5 199,-279.5 196,-276.5 196,-273.5 196,-273.5 196,-267.5 196,-267.5 196,-264.5 199,-261.5 202,-261.5 202,-261.5 246,-261.5 246,-261.5 249,-261.5 252,-264.5 252,-267.5 252,-267.5 252,-273.5 252,-273.5 252,-276.5 249,-279.5 246,-279.5"/>
<text text-anchor="middle" x="224" y="-268.3" font-family="Times,serif" font-size="9.00">MATH100</text>
</g>
<!-- MATH100&#45;&gt;1 of [&#39;MATH100&#39;, &#39;MATH109&#39;] -->
<g id="edge4" class="edge">
<title>MATH100&#45;&gt;1 of [&#39;MATH100&#39;, &#39;MATH109&#39;]</title>
<path fill="none" stroke="black" d="M252.42,-278.96C265.36,-282.96 280.29,-287.57 291.1,-290.9"/>
<polygon fill="black" stroke="black" points="290.75,-292.63 296.05,-292.43 291.79,-289.28 290.75,-292.63"/>
</g>
<!-- MATH100&#45;&gt;1 of [&#39;MATH100&#39;, &#39;MATH102&#39;, &#39;MATH109&#39;] -->
<g id="edge7" class="edge">
<title>MATH100&#45;&gt;1 of [&#39;MATH100&#39;, &#39;MATH102&#39;, &#39;MATH109&#39;]</title>
<path fill="none" stroke="black" d="M239.86,-261.33C254.96,-252.01 278.14,-237.7 292.66,-228.73"/>
<polygon fill="black" stroke="black" points="293.9,-230.03 297.24,-225.91 292.06,-227.05 293.9,-230.03"/>
</g>
<!-- MATH100&#45;&gt;2 of [&#39;MATH100&#39;, &#39;MATH101&#39;, &#39;MATH102&#39;, &#39;MATH109&#39;, &#39;MATH151&#39;] -->
<g id="edge37" class="edge">
<title>MATH100&#45;&gt;2 of [&#39;MATH100&#39;, &#39;MATH101&#39;, &#39;MATH102&#39;, &#39;MATH109&#39;, &#39;MATH151&#39;]</title>
<path fill="none" stroke="black" d="M244.97,-279.62C247.37,-280.86 249.77,-282.17 252,-283.5 268.96,-293.6 269.35,-303.04 288,-309.5 351.23,-331.4 433.06,-324.14 466.61,-319.78"/>
<polygon fill="black" stroke="black" points="467.22,-321.47 471.94,-319.06 466.75,-318 467.22,-321.47"/>
</g>
<!-- PHYS111&#45;&gt;1 of [&#39;PHYS102B&#39;, &#39;PHYS111&#39;, &#39;PHYS120&#39;] -->
<g id="edge45" class="edge">
<title>PHYS111&#45;&gt;1 of [&#39;PHYS102B&#39;, &#39;PHYS111&#39;, &#39;PHYS120&#39;]</title>
<path fill="none" stroke="black" d="M588.8,-196.78C602.6,-209.84 627.68,-233.58 642.39,-247.51"/>
<polygon fill="black" stroke="black" points="641.41,-248.99 646.24,-251.16 643.82,-246.45 641.41,-248.99"/>
</g>
<!-- PHYS111&#45;&gt;1 of [&#39;PHYS102B&#39;, &#39;PHYS111&#39;, &#39;PHYS112&#39;, &#39;PHYS130&#39;] -->
<g id="edge57" class="edge">
<title>PHYS111&#45;&gt;1 of [&#39;PHYS102B&#39;, &#39;PHYS111&#39;, &#39;PHYS112&#39;, &#39;PHYS130&#39;]</title>
<path fill="none" stroke="black" d="M595.27,-196.61C608.78,-204.18 627.76,-214.81 640.45,-221.91"/>
<polygon fill="black" stroke="black" points="639.6,-223.44 644.82,-224.36 641.31,-220.39 639.6,-223.44"/>
</g>
<!-- EOS120 -->
<g id="node17" class="node">
<title>EOS120</title>
<path fill="#9fa7be" stroke="#030a10" d="M411,-66.5C411,-66.5 369,-66.5 369,-66.5 366,-66.5 363,-63.5 363,-60.5 363,-60.5 363,-54.5 363,-54.5 363,-51.5 366,-48.5 369,-48.5 369,-48.5 411,-48.5 411,-48.5 414,-48.5 417,-51.5 417,-54.5 417,-54.5 417,-60.5 417,-60.5 417,-63.5 414,-66.5 411,-66.5"/>
<text text-anchor="middle" x="390" y="-55.3" font-family="Times,serif" font-size="9.00">EOS120</text>
</g>
<!-- EOS120&#45;&gt;EOS202 -->
<g id="edge24" class="edge">
<title>EOS120&#45;&gt;EOS202</title>
<path fill="none" stroke="black" d="M417.32,-51.72C427.79,-49.41 439.92,-46.75 450.82,-44.35"/>
<polygon fill="black" stroke="black" points="451.23,-46.05 455.74,-43.27 450.48,-42.64 451.23,-46.05"/>
</g>
<!-- EOS120&#45;&gt;EOS240 -->
<g id="edge30" class="edge">
<title>EOS120&#45;&gt;EOS240</title>
<path fill="none" stroke="black" d="M404.84,-66.61C417.18,-74.21 436.02,-84.57 454,-89.5 484.25,-97.79 520.18,-99.21 545.37,-98.91"/>
<polygon fill="black" stroke="black" points="545.61,-100.65 550.58,-98.82 545.55,-97.16 545.61,-100.65"/>
</g>
<!-- EOS120&#45;&gt;EOS205 -->
<g id="edge22" class="edge">
<title>EOS120&#45;&gt;EOS205</title>
<path fill="none" stroke="black" d="M417.32,-63.28C427.79,-65.59 439.92,-68.25 450.82,-70.65"/>
<polygon fill="black" stroke="black" points="450.48,-72.36 455.74,-71.73 451.23,-68.95 450.48,-72.36"/>
</g>
<!-- EOS120&#45;&gt;EOS201 -->
<g id="edge1" class="edge">
<title>EOS120&#45;&gt;EOS201</title>
<path fill="none" stroke="black" d="M417.46,-58.93C441.99,-60.34 479.49,-62.68 512,-65.5 522.98,-66.45 534.98,-67.69 545.65,-68.86"/>
<polygon fill="black" stroke="black" points="545.61,-70.62 550.77,-69.43 546,-67.14 545.61,-70.62"/>
</g>
<!-- EOS313 -->
<g id="node35" class="node">
<title>EOS313</title>
<path fill="#8197f4" stroke="#030a10" d="M505,-21C505,-21 461,-21 461,-21 457.5,-21 454,-17.5 454,-14 454,-14 454,-7 454,-7 454,-3.5 457.5,0 461,0 461,0 505,0 505,0 508.5,0 512,-3.5 512,-7 512,-7 512,-14 512,-14 512,-17.5 508.5,-21 505,-21"/>
<text text-anchor="middle" x="483" y="-7.4" font-family="Times,serif" font-size="12.00">EOS313</text>
</g>
<!-- EOS120&#45;&gt;EOS313 -->
<g id="edge34" class="edge">
<title>EOS120&#45;&gt;EOS313</title>
<path fill="none" stroke="black" d="M408.07,-48.45C420.72,-41.77 438.39,-32.49 454,-24.5 454.7,-24.14 455.4,-23.78 456.11,-23.42"/>
<polygon fill="black" stroke="black" points="457.21,-24.83 460.88,-21.01 455.63,-21.71 457.21,-24.83"/>
</g>
<!-- CHEM102 -->
<g id="node18" class="node">
<title>CHEM102</title>
<path fill="#9fa7be" stroke="#030a10" d="M412,-131.5C412,-131.5 368,-131.5 368,-131.5 365,-131.5 362,-128.5 362,-125.5 362,-125.5 362,-119.5 362,-119.5 362,-116.5 365,-113.5 368,-113.5 368,-113.5 412,-113.5 412,-113.5 415,-113.5 418,-116.5 418,-119.5 418,-119.5 418,-125.5 418,-125.5 418,-128.5 415,-131.5 412,-131.5"/>
<text text-anchor="middle" x="390" y="-120.3" font-family="Times,serif" font-size="9.00">CHEM102</text>
</g>
<!-- CHEM102&#45;&gt;EOS240 -->
<g id="edge32" class="edge">
<title>CHEM102&#45;&gt;EOS240</title>
<path fill="none" stroke="black" d="M418.05,-118.86C451.95,-114.31 509.93,-106.51 545.71,-101.71"/>
<polygon fill="black" stroke="black" points="546.1,-103.42 550.82,-101.02 545.63,-99.95 546.1,-103.42"/>
</g>
<!-- CHEM102&#45;&gt;EOS205 -->
<g id="edge23" class="edge">
<title>CHEM102&#45;&gt;EOS205</title>
<path fill="none" stroke="black" d="M409.42,-113.39C423.72,-106.32 443.65,-96.46 459,-88.87"/>
<polygon fill="black" stroke="black" points="459.91,-90.38 463.61,-86.59 458.35,-87.24 459.91,-90.38"/>
</g>
<!-- EOS311 -->
<g id="node37" class="node">
<title>EOS311</title>
<path fill="#8197f4" stroke="#030a10" d="M753,-218C753,-218 709,-218 709,-218 705.5,-218 702,-214.5 702,-211 702,-211 702,-204 702,-204 702,-200.5 705.5,-197 709,-197 709,-197 753,-197 753,-197 756.5,-197 760,-200.5 760,-204 760,-204 760,-211 760,-211 760,-214.5 756.5,-218 753,-218"/>
<text text-anchor="middle" x="731" y="-204.4" font-family="Times,serif" font-size="12.00">EOS311</text>
</g>
<!-- CHEM102&#45;&gt;EOS311 -->
<g id="edge48" class="edge">
<title>CHEM102&#45;&gt;EOS311</title>
<path fill="none" stroke="black" d="M418.06,-121.42C478.53,-119.4 622.68,-116.98 666,-137.5 690.89,-149.29 710.58,-175.56 721.24,-192.35"/>
<polygon fill="black" stroke="black" points="719.88,-193.49 724,-196.82 722.86,-191.64 719.88,-193.49"/>
</g>
<!-- PHYS120 -->
<g id="node19" class="node">
<title>PHYS120</title>
<path fill="#82a931" stroke="#030a10" d="M411,-266.5C411,-266.5 369,-266.5 369,-266.5 366,-266.5 363,-263.5 363,-260.5 363,-260.5 363,-254.5 363,-254.5 363,-251.5 366,-248.5 369,-248.5 369,-248.5 411,-248.5 411,-248.5 414,-248.5 417,-251.5 417,-254.5 417,-254.5 417,-260.5 417,-260.5 417,-263.5 414,-266.5 411,-266.5"/>
<text text-anchor="middle" x="390" y="-255.3" font-family="Times,serif" font-size="9.00">PHYS120</text>
</g>
<!-- PHYS120&#45;&gt;PHYS130 -->
<g id="edge26" class="edge">
<title>PHYS120&#45;&gt;PHYS130</title>
<path fill="none" stroke="black" d="M417.32,-264.15C427.79,-266.8 439.92,-269.86 450.82,-272.62"/>
<polygon fill="black" stroke="black" points="450.46,-274.33 455.74,-273.86 451.32,-270.94 450.46,-274.33"/>
</g>
<!-- PHYS120&#45;&gt;1 of [&#39;PHYS102A&#39;, &#39;PHYS110&#39;, &#39;PHYS120&#39;] -->
<g id="edge13" class="edge">
<title>PHYS120&#45;&gt;1 of [&#39;PHYS102A&#39;, &#39;PHYS110&#39;, &#39;PHYS120&#39;]</title>
<path fill="none" stroke="black" d="M417.32,-252C433.45,-248.64 453.51,-244.45 466.98,-241.64"/>
<polygon fill="black" stroke="black" points="467.43,-243.33 471.97,-240.6 466.71,-239.9 467.43,-243.33"/>
</g>
<!-- PHYS120&#45;&gt;1 of [&#39;PHYS102B&#39;, &#39;PHYS111&#39;, &#39;PHYS120&#39;] -->
<g id="edge46" class="edge">
<title>PHYS120&#45;&gt;1 of [&#39;PHYS102B&#39;, &#39;PHYS111&#39;, &#39;PHYS120&#39;]</title>
<path fill="none" stroke="black" d="M417.18,-257.6C471.63,-257.81 595.6,-258.28 638.81,-258.44"/>
<polygon fill="black" stroke="black" points="638.89,-260.19 643.9,-258.46 638.91,-256.69 638.89,-260.19"/>
</g>
<!-- PHYS120&#45;&gt;1 of [&#39;PHYS102A&#39;, &#39;PHYS110&#39;, &#39;PHYS112&#39;, &#39;PHYS120&#39;] -->
<g id="edge54" class="edge">
<title>PHYS120&#45;&gt;1 of [&#39;PHYS102A&#39;, &#39;PHYS110&#39;, &#39;PHYS112&#39;, &#39;PHYS120&#39;]</title>
<path fill="none" stroke="black" d="M410.24,-248.4C412.86,-247.12 415.51,-245.79 418,-244.5 434.25,-236.08 437.93,-233.27 454,-224.5 458.55,-222.02 463.53,-219.34 468.02,-216.94"/>
<polygon fill="black" stroke="black" points="469.06,-218.36 472.65,-214.46 467.41,-215.28 469.06,-218.36"/>
</g>
<!-- EOS201&#45;&gt;1 of [&#39;EOS201&#39;, &#39;EOS240&#39;] -->
<g id="edge61" class="edge">
<title>EOS201&#45;&gt;1 of [&#39;EOS201&#39;, &#39;EOS240&#39;]</title>
<path fill="none" stroke="black" d="M605.23,-77.05C616.49,-79 629.25,-81.21 638.89,-82.88"/>
<polygon fill="black" stroke="black" points="638.67,-84.62 643.9,-83.75 639.27,-81.17 638.67,-84.62"/>
</g>
<!-- CHEM101 -->
<g id="node21" class="node">
<title>CHEM101</title>
<path fill="#f77189" stroke="#030a10" d="M246,-131.5C246,-131.5 202,-131.5 202,-131.5 199,-131.5 196,-128.5 196,-125.5 196,-125.5 196,-119.5 196,-119.5 196,-116.5 199,-113.5 202,-113.5 202,-113.5 246,-113.5 246,-113.5 249,-113.5 252,-116.5 252,-119.5 252,-119.5 252,-125.5 252,-125.5 252,-128.5 249,-131.5 246,-131.5"/>
<text text-anchor="middle" x="224" y="-120.3" font-family="Times,serif" font-size="9.00">CHEM101</text>
</g>
<!-- 1 of [&#39;CHEM101&#39;, &#39;CHEM150&#39;] -->
<g id="node30" class="node">
<title>1 of [&#39;CHEM101&#39;, &#39;CHEM150&#39;]</title>
<ellipse fill="#dfe6e9" stroke="#030a10" cx="307" cy="-122.5" rx="11" ry="11"/>
<text text-anchor="middle" x="307" y="-119.4" font-family="Times,serif" font-size="12.00">1</text>
</g>
<!-- CHEM101&#45;&gt;1 of [&#39;CHEM101&#39;, &#39;CHEM150&#39;] -->
<g id="edge18" class="edge">
<title>CHEM101&#45;&gt;1 of [&#39;CHEM101&#39;, &#39;CHEM150&#39;]</title>
<path fill="none" stroke="black" d="M252.42,-122.5C265.09,-122.5 279.66,-122.5 290.41,-122.5"/>
<polygon fill="black" stroke="black" points="290.65,-124.25 295.65,-122.5 290.65,-120.75 290.65,-124.25"/>
</g>
<!-- PHYS130&#45;&gt;1 of [&#39;PHYS102B&#39;, &#39;PHYS111&#39;, &#39;PHYS112&#39;, &#39;PHYS130&#39;] -->
<g id="edge59" class="edge">
<title>PHYS130&#45;&gt;1 of [&#39;PHYS102B&#39;, &#39;PHYS111&#39;, &#39;PHYS112&#39;, &#39;PHYS130&#39;]</title>
<path fill="none" stroke="black" d="M510.06,-275.7C535.44,-270.68 574.93,-261.93 608,-250.5 619.2,-246.63 631.38,-241 640.39,-236.54"/>
<polygon fill="black" stroke="black" points="641.36,-238.02 645.05,-234.21 639.79,-234.89 641.36,-238.02"/>
</g>
<!-- 1 of [&#39;MATH100&#39;, &#39;MATH109&#39;]&#45;&gt;MATH101 -->
<g id="edge3" class="edge">
<title>1 of [&#39;MATH100&#39;, &#39;MATH109&#39;]&#45;&gt;MATH101</title>
<path fill="none" stroke="black" d="M318.26,-295.75C327.88,-295.99 342.79,-296.36 356.45,-296.7"/>
<polygon fill="black" stroke="black" points="356.76,-298.45 361.8,-296.83 356.85,-294.96 356.76,-298.45"/>
</g>
<!-- 1 of [&#39;MATH100&#39;, &#39;MATH109&#39;]&#45;&gt;PHYS120 -->
<g id="edge21" class="edge">
<title>1 of [&#39;MATH100&#39;, &#39;MATH109&#39;]&#45;&gt;PHYS120</title>
<path fill="none" stroke="black" d="M317.29,-291.14C328.82,-285.73 348.89,-276.32 364.88,-268.82"/>
<polygon fill="black" stroke="black" points="365.91,-270.27 369.69,-266.56 364.42,-267.1 365.91,-270.27"/>
</g>
<!-- 1 of [&#39;MATH100&#39;, &#39;MATH102&#39;, &#39;MATH109&#39;]&#45;&gt;PHYS110 -->
<g id="edge6" class="edge">
<title>1 of [&#39;MATH100&#39;, &#39;MATH102&#39;, &#39;MATH109&#39;]&#45;&gt;PHYS110</title>
<path fill="none" stroke="black" d="M318.26,-219.36C328.19,-218.26 343.76,-216.53 357.77,-214.97"/>
<polygon fill="black" stroke="black" points="358.07,-216.7 362.85,-214.41 357.69,-213.22 358.07,-216.7"/>
</g>
<!-- 1 of [&#39;MATH100&#39;, &#39;MATH102&#39;, &#39;MATH109&#39;]&#45;&gt;PHYS111 -->
<g id="edge29" class="edge">
<title>1 of [&#39;MATH100&#39;, &#39;MATH102&#39;, &#39;MATH109&#39;]&#45;&gt;PHYS111</title>
<path fill="none" stroke="black" d="M315.06,-212.4C324.53,-202.2 342.45,-185.21 362,-178.5 424.48,-157.06 503.22,-169.53 545.95,-179.3"/>
<polygon fill="black" stroke="black" points="545.71,-181.04 550.98,-180.47 546.5,-177.63 545.71,-181.04"/>
</g>
<!-- 1 of [&#39;MATH100&#39;, &#39;MATH102&#39;, &#39;MATH109&#39;]&#45;&gt;CHEM102 -->
<g id="edge15" class="edge">
<title>1 of [&#39;MATH100&#39;, &#39;MATH102&#39;, &#39;MATH109&#39;]&#45;&gt;CHEM102</title>
<path fill="none" stroke="black" d="M314.63,-212.48C328.58,-195.59 361.11,-156.24 378.15,-135.63"/>
<polygon fill="black" stroke="black" points="379.51,-136.73 381.34,-131.77 376.81,-134.5 379.51,-136.73"/>
</g>
<!-- MATH102 -->
<g id="node25" class="node">
<title>MATH102</title>
<path fill="white" stroke="#030a10" stroke-opacity="0.125490" d="M238.33,-236.5C238.33,-236.5 209.67,-236.5 209.67,-236.5 207.33,-236.5 205,-234.17 205,-231.83 205,-231.83 205,-227.17 205,-227.17 205,-224.83 207.33,-222.5 209.67,-222.5 209.67,-222.5 238.33,-222.5 238.33,-222.5 240.67,-222.5 243,-224.83 243,-227.17 243,-227.17 243,-231.83 243,-231.83 243,-234.17 240.67,-236.5 238.33,-236.5"/>
<text text-anchor="middle" x="224" y="-228.5" font-family="Times,serif" font-size="5.00">MATH102</text>
</g>
<!-- MATH102&#45;&gt;1 of [&#39;MATH100&#39;, &#39;MATH102&#39;, &#39;MATH109&#39;] -->
<g id="edge8" class="edge">
<title>MATH102&#45;&gt;1 of [&#39;MATH100&#39;, &#39;MATH102&#39;, &#39;MATH109&#39;]</title>
<path fill="none" stroke="black" d="M243.38,-227.46C257.72,-225.86 277.4,-223.68 290.84,-222.18"/>
<polygon fill="black" stroke="black" points="291.07,-223.92 295.84,-221.63 290.68,-220.44 291.07,-223.92"/>
</g>
<!-- MATH102&#45;&gt;2 of [&#39;MATH100&#39;, &#39;MATH101&#39;, &#39;MATH102&#39;, &#39;MATH109&#39;, &#39;MATH151&#39;] -->
<g id="edge39" class="edge">
<title>MATH102&#45;&gt;2 of [&#39;MATH100&#39;, &#39;MATH101&#39;, &#39;MATH102&#39;, &#39;MATH109&#39;, &#39;MATH151&#39;]</title>
<path fill="none" stroke="black" d="M243.16,-234.84C269.39,-242.54 319.39,-257.19 362,-269.5 386.87,-276.68 393.88,-276.12 418,-285.5 435.99,-292.5 455.72,-302.79 468.45,-309.8"/>
<polygon fill="black" stroke="black" points="467.91,-311.5 473.13,-312.4 469.61,-308.44 467.91,-311.5"/>
</g>
<!-- 1 of [&#39;PHYS102A&#39;, &#39;PHYS110&#39;, &#39;PHYS120&#39;]&#45;&gt;PHYS102B -->
<g id="edge10" class="edge">
<title>1 of [&#39;PHYS102A&#39;, &#39;PHYS110&#39;, &#39;PHYS120&#39;]&#45;&gt;PHYS102B</title>
<path fill="none" stroke="black" d="M494.31,-238.5C505.88,-238.5 525.28,-238.5 542.38,-238.5"/>
<polygon fill="black" stroke="black" points="542.6,-240.25 547.6,-238.5 542.6,-236.75 542.6,-240.25"/>
</g>
<!-- EOS314 -->
<g id="node36" class="node">
<title>EOS314</title>
<path fill="#8197f4" stroke="#030a10" d="M753,-306C753,-306 709,-306 709,-306 705.5,-306 702,-302.5 702,-299 702,-299 702,-292 702,-292 702,-288.5 705.5,-285 709,-285 709,-285 753,-285 753,-285 756.5,-285 760,-288.5 760,-292 760,-292 760,-299 760,-299 760,-302.5 756.5,-306 753,-306"/>
<text text-anchor="middle" x="731" y="-292.4" font-family="Times,serif" font-size="12.00">EOS314</text>
</g>
<!-- 1 of [&#39;PHYS102A&#39;, &#39;PHYS110&#39;, &#39;PHYS120&#39;]&#45;&gt;EOS314 -->
<g id="edge42" class="edge">
<title>1 of [&#39;PHYS102A&#39;, &#39;PHYS110&#39;, &#39;PHYS120&#39;]&#45;&gt;EOS314</title>
<path fill="none" stroke="black" d="M493.95,-240.81C527.89,-248.67 640.16,-274.68 696.76,-287.8"/>
<polygon fill="black" stroke="black" points="696.46,-289.53 701.73,-288.95 697.25,-286.12 696.46,-289.53"/>
</g>
<!-- PHYS102A -->
<g id="node27" class="node">
<title>PHYS102A</title>
<path fill="white" stroke="#030a10" stroke-opacity="0.125490" d="M405.83,-241.5C405.83,-241.5 374.17,-241.5 374.17,-241.5 371.83,-241.5 369.5,-239.17 369.5,-236.83 369.5,-236.83 369.5,-232.17 369.5,-232.17 369.5,-229.83 371.83,-227.5 374.17,-227.5 374.17,-227.5 405.83,-227.5 405.83,-227.5 408.17,-227.5 410.5,-229.83 410.5,-232.17 410.5,-232.17 410.5,-236.83 410.5,-236.83 410.5,-239.17 408.17,-241.5 405.83,-241.5"/>
<text text-anchor="middle" x="390" y="-233.5" font-family="Times,serif" font-size="5.00">PHYS102A</text>
</g>
<!-- PHYS102A&#45;&gt;1 of [&#39;PHYS102A&#39;, &#39;PHYS110&#39;, &#39;PHYS120&#39;] -->
<g id="edge11" class="edge">
<title>PHYS102A&#45;&gt;1 of [&#39;PHYS102A&#39;, &#39;PHYS110&#39;, &#39;PHYS120&#39;]</title>
<path fill="none" stroke="black" d="M410.75,-235.37C427.51,-236.1 451.22,-237.15 466.6,-237.82"/>
<polygon fill="black" stroke="black" points="466.79,-239.58 471.86,-238.05 466.95,-236.09 466.79,-239.58"/>
</g>
<!-- PHYS102A&#45;&gt;1 of [&#39;PHYS102A&#39;, &#39;PHYS110&#39;, &#39;PHYS112&#39;, &#39;PHYS120&#39;] -->
<g id="edge51" class="edge">
<title>PHYS102A&#45;&gt;1 of [&#39;PHYS102A&#39;, &#39;PHYS110&#39;, &#39;PHYS112&#39;, &#39;PHYS120&#39;]</title>
<path fill="none" stroke="black" d="M410.75,-229.08C427.65,-224.43 451.63,-217.84 467,-213.62"/>
<polygon fill="black" stroke="black" points="467.51,-215.3 471.86,-212.28 466.58,-211.92 467.51,-215.3"/>
</g>
<!-- MATH120 -->
<g id="node28" class="node">
<title>MATH120</title>
<path fill="white" stroke="#030a10" stroke-opacity="0.125490" d="M102.33,-277.5C102.33,-277.5 73.67,-277.5 73.67,-277.5 71.33,-277.5 69,-275.17 69,-272.83 69,-272.83 69,-268.17 69,-268.17 69,-265.83 71.33,-263.5 73.67,-263.5 73.67,-263.5 102.33,-263.5 102.33,-263.5 104.67,-263.5 107,-265.83 107,-268.17 107,-268.17 107,-272.83 107,-272.83 107,-275.17 104.67,-277.5 102.33,-277.5"/>
<text text-anchor="middle" x="88" y="-269.5" font-family="Times,serif" font-size="5.00">MATH120</text>
</g>
<!-- MATH120&#45;&gt;MATH109 -->
<g id="edge20" class="edge">
<title>MATH120&#45;&gt;MATH109</title>
<path fill="none" stroke="black" d="M107.29,-272.46C123.37,-274.33 147.35,-277.45 168,-281.5 175.46,-282.96 183.43,-284.82 190.91,-286.69"/>
<polygon fill="black" stroke="black" points="190.72,-288.45 196,-287.99 191.59,-285.06 190.72,-288.45"/>
</g>
<!-- MATH120&#45;&gt;MATH100 -->
<g id="edge14" class="edge">
<title>MATH120&#45;&gt;MATH100</title>
<path fill="none" stroke="black" d="M107.07,-270.5C128.5,-270.5 164.62,-270.5 190.86,-270.5"/>
<polygon fill="black" stroke="black" points="190.96,-272.25 195.96,-270.5 190.96,-268.75 190.96,-272.25"/>
</g>
<!-- MATH120&#45;&gt;CHEM101 -->
<g id="edge25" class="edge">
<title>MATH120&#45;&gt;CHEM101</title>
<path fill="none" stroke="black" d="M107.18,-272.54C125.02,-273.48 151.84,-271.84 168,-256.5 208.03,-218.5 161.52,-178.6 196,-135.5 196.07,-135.41 196.15,-135.32 196.22,-135.23"/>
<polygon fill="black" stroke="black" points="197.65,-136.29 200.04,-131.56 195.22,-133.76 197.65,-136.29"/>
</g>
<!-- CHEM091 -->
<g id="node29" class="node">
<title>CHEM091</title>
<path fill="white" stroke="#030a10" stroke-opacity="0.125490" d="M321.33,-154.5C321.33,-154.5 292.67,-154.5 292.67,-154.5 290.33,-154.5 288,-152.17 288,-149.83 288,-149.83 288,-145.17 288,-145.17 288,-142.83 290.33,-140.5 292.67,-140.5 292.67,-140.5 321.33,-140.5 321.33,-140.5 323.67,-140.5 326,-142.83 326,-145.17 326,-145.17 326,-149.83 326,-149.83 326,-152.17 323.67,-154.5 321.33,-154.5"/>
<text text-anchor="middle" x="307" y="-146.5" font-family="Times,serif" font-size="5.00">CHEM091</text>
</g>
<!-- CHEM091&#45;&gt;CHEM102 -->
<g id="edge16" class="edge">
<title>CHEM091&#45;&gt;CHEM102</title>
<path fill="none" stroke="black" d="M326.38,-141.83C335.37,-139.05 346.45,-135.63 356.78,-132.45"/>
<polygon fill="black" stroke="black" points="357.51,-134.05 361.77,-130.9 356.48,-130.71 357.51,-134.05"/>
</g>
<!-- 1 of [&#39;CHEM101&#39;, &#39;CHEM150&#39;]&#45;&gt;CHEM102 -->
<g id="edge17" class="edge">
<title>1 of [&#39;CHEM101&#39;, &#39;CHEM150&#39;]&#45;&gt;CHEM102</title>
<path fill="none" stroke="black" d="M318.26,-122.5C327.88,-122.5 342.79,-122.5 356.45,-122.5"/>
<polygon fill="black" stroke="black" points="356.8,-124.25 361.8,-122.5 356.8,-120.75 356.8,-124.25"/>
</g>
<!-- 1 of [&#39;CHEM101&#39;, &#39;CHEM150&#39;]&#45;&gt;EOS313 -->
<g id="edge35" class="edge">
<title>1 of [&#39;CHEM101&#39;, &#39;CHEM150&#39;]&#45;&gt;EOS313</title>
<path fill="none" stroke="black" d="M312.07,-112.73C319.5,-96.13 336.81,-62.51 362,-44.5 387.76,-26.08 423.25,-17.61 448.95,-13.73"/>
<polygon fill="black" stroke="black" points="449.25,-15.46 453.95,-13.02 448.75,-11.99 449.25,-15.46"/>
</g>
<!-- 1 of [&#39;CHEM101&#39;, &#39;CHEM150&#39;]&#45;&gt;EOS311 -->
<g id="edge47" class="edge">
<title>1 of [&#39;CHEM101&#39;, &#39;CHEM150&#39;]&#45;&gt;EOS311</title>
<path fill="none" stroke="black" d="M317.87,-125.17C328.63,-127.97 346.41,-132.26 362,-134.5 414.91,-142.1 428.55,-142.5 482,-142.5 482,-142.5 482,-142.5 579,-142.5 630.47,-142.5 684.37,-174.76 711.72,-193.83"/>
<polygon fill="black" stroke="black" points="710.79,-195.31 715.88,-196.77 712.81,-192.45 710.79,-195.31"/>
</g>
<!-- CHEM150 -->
<g id="node31" class="node">
<title>CHEM150</title>
<path fill="white" stroke="#030a10" stroke-opacity="0.125490" d="M238.33,-152.5C238.33,-152.5 209.67,-152.5 209.67,-152.5 207.33,-152.5 205,-150.17 205,-147.83 205,-147.83 205,-143.17 205,-143.17 205,-140.83 207.33,-138.5 209.67,-138.5 209.67,-138.5 238.33,-138.5 238.33,-138.5 240.67,-138.5 243,-140.83 243,-143.17 243,-143.17 243,-147.83 243,-147.83 243,-150.17 240.67,-152.5 238.33,-152.5"/>
<text text-anchor="middle" x="224" y="-144.5" font-family="Times,serif" font-size="5.00">CHEM150</text>
</g>
<!-- CHEM150&#45;&gt;1 of [&#39;CHEM101&#39;, &#39;CHEM150&#39;] -->
<g id="edge19" class="edge">
<title>CHEM150&#45;&gt;1 of [&#39;CHEM101&#39;, &#39;CHEM150&#39;]</title>
<path fill="none" stroke="black" d="M243.38,-140.28C257.88,-136.16 277.85,-130.49 291.3,-126.67"/>
<polygon fill="black" stroke="black" points="291.96,-128.31 296.29,-125.26 291,-124.94 291.96,-128.31"/>
</g>
<!-- EOS350 -->
<g id="node32" class="node">
<title>EOS350</title>
<path fill="#8197f4" stroke="#030a10" d="M110,-306C110,-306 66,-306 66,-306 62.5,-306 59,-302.5 59,-299 59,-299 59,-292 59,-292 59,-288.5 62.5,-285 66,-285 66,-285 110,-285 110,-285 113.5,-285 117,-288.5 117,-292 117,-292 117,-299 117,-299 117,-302.5 113.5,-306 110,-306"/>
<text text-anchor="middle" x="88" y="-292.4" font-family="Times,serif" font-size="12.00">EOS350</text>
</g>
<!-- EOS365 -->
<g id="node33" class="node">
<title>EOS365</title>
<path fill="#8197f4" stroke="#030a10" d="M110,-334C110,-334 66,-334 66,-334 62.5,-334 59,-330.5 59,-327 59,-327 59,-320 59,-320 59,-316.5 62.5,-313 66,-313 66,-313 110,-313 110,-313 113.5,-313 117,-316.5 117,-320 117,-320 117,-327 117,-327 117,-330.5 113.5,-334 110,-334"/>
<text text-anchor="middle" x="88" y="-320.4" font-family="Times,serif" font-size="12.00">EOS365</text>
</g>
<!-- EOS480 -->
<g id="node38" class="node">
<title>EOS480</title>
<path fill="#8197f4" stroke="#030a10" d="M110,-362C110,-362 66,-362 66,-362 62.5,-362 59,-358.5 59,-355 59,-355 59,-348 59,-348 59,-344.5 62.5,-341 66,-341 66,-341 110,-341 110,-341 113.5,-341 117,-344.5 117,-348 117,-348 117,-355 117,-355 117,-358.5 113.5,-362 110,-362"/>
<text text-anchor="middle" x="88" y="-348.4" font-family="Times,serif" font-size="12.00">EOS480</text>
</g>
<!-- EOS450 -->
<g id="node39" class="node">
<title>EOS450</title>
<path fill="#8197f4" stroke="#030a10" d="M753,-96C753,-96 709,-96 709,-96 705.5,-96 702,-92.5 702,-89 702,-89 702,-82 702,-82 702,-78.5 705.5,-75 709,-75 709,-75 753,-75 753,-75 756.5,-75 760,-78.5 760,-82 760,-82 760,-89 760,-89 760,-92.5 756.5,-96 753,-96"/>
<text text-anchor="middle" x="731" y="-82.4" font-family="Times,serif" font-size="12.00">EOS450</text>
</g>
<!-- 2 of [&#39;MATH100&#39;, &#39;MATH101&#39;, &#39;MATH102&#39;, &#39;MATH109&#39;, &#39;MATH151&#39;]&#45;&gt;EOS314 -->
<g id="edge36" class="edge">
<title>2 of [&#39;MATH100&#39;, &#39;MATH101&#39;, &#39;MATH102&#39;, &#39;MATH109&#39;, &#39;MATH151&#39;]&#45;&gt;EOS314</title>
<path fill="none" stroke="black" d="M494.3,-317.15C515.58,-316.37 565.91,-314.27 608,-310.5 638.16,-307.8 672.37,-303.48 696.87,-300.17"/>
<polygon fill="black" stroke="black" points="697.23,-301.89 701.95,-299.48 696.76,-298.42 697.23,-301.89"/>
</g>
<!-- 2 of [&#39;MATH100&#39;, &#39;MATH101&#39;, &#39;MATH102&#39;, &#39;MATH109&#39;, &#39;MATH151&#39;]&#45;&gt;EOS311 -->
<g id="edge49" class="edge">
<title>2 of [&#39;MATH100&#39;, &#39;MATH101&#39;, &#39;MATH102&#39;, &#39;MATH109&#39;, &#39;MATH151&#39;]&#45;&gt;EOS311</title>
<path fill="none" stroke="black" d="M494.17,-316.91C522.99,-314.86 606.89,-306.17 666,-272.5 688.2,-259.86 707.83,-237.34 719.32,-222.41"/>
<polygon fill="black" stroke="black" points="721,-223.09 722.62,-218.04 718.21,-220.98 721,-223.09"/>
</g>
<!-- MATH151 -->
<g id="node41" class="node">
<title>MATH151</title>
<path fill="white" stroke="#030a10" stroke-opacity="0.125490" d="M404.33,-357.5C404.33,-357.5 375.67,-357.5 375.67,-357.5 373.33,-357.5 371,-355.17 371,-352.83 371,-352.83 371,-348.17 371,-348.17 371,-345.83 373.33,-343.5 375.67,-343.5 375.67,-343.5 404.33,-343.5 404.33,-343.5 406.67,-343.5 409,-345.83 409,-348.17 409,-348.17 409,-352.83 409,-352.83 409,-355.17 406.67,-357.5 404.33,-357.5"/>
<text text-anchor="middle" x="390" y="-349.5" font-family="Times,serif" font-size="5.00">MATH151</text>
</g>
<!-- MATH151&#45;&gt;2 of [&#39;MATH100&#39;, &#39;MATH101&#39;, &#39;MATH102&#39;, &#39;MATH109&#39;, &#39;MATH151&#39;] -->
<g id="edge41" class="edge">
<title>MATH151&#45;&gt;2 of [&#39;MATH100&#39;, &#39;MATH101&#39;, &#39;MATH102&#39;, &#39;MATH109&#39;, &#39;MATH151&#39;]</title>
<path fill="none" stroke="black" d="M409.42,-343.82C426.59,-337.6 451.85,-328.43 467.59,-322.73"/>
<polygon fill="black" stroke="black" points="468.44,-324.28 472.54,-320.93 467.24,-320.99 468.44,-324.28"/>
</g>
<!-- 1 of [&#39;PHYS102B&#39;, &#39;PHYS111&#39;, &#39;PHYS120&#39;]&#45;&gt;EOS314 -->
<g id="edge43" class="edge">
<title>1 of [&#39;PHYS102B&#39;, &#39;PHYS111&#39;, &#39;PHYS120&#39;]&#45;&gt;EOS314</title>
<path fill="none" stroke="black" d="M665.07,-263.04C674.78,-267.89 690.62,-275.81 704.23,-282.61"/>
<polygon fill="black" stroke="black" points="703.49,-284.2 708.75,-284.87 705.06,-281.07 703.49,-284.2"/>
</g>
<!-- 1 of [&#39;PHYS102A&#39;, &#39;PHYS110&#39;, &#39;PHYS112&#39;, &#39;PHYS120&#39;]&#45;&gt;EOS311 -->
<g id="edge50" class="edge">
<title>1 of [&#39;PHYS102A&#39;, &#39;PHYS110&#39;, &#39;PHYS112&#39;, &#39;PHYS120&#39;]&#45;&gt;EOS311</title>
<path fill="none" stroke="black" d="M494.26,-209.42C528.52,-209.14 640.06,-208.23 696.55,-207.77"/>
<polygon fill="black" stroke="black" points="696.86,-209.52 701.85,-207.73 696.83,-206.02 696.86,-209.52"/>
</g>
<!-- PHYS112 -->
<g id="node44" class="node">
<title>PHYS112</title>
<path fill="white" stroke="#030a10" stroke-opacity="0.125490" d="M403.83,-195.5C403.83,-195.5 376.17,-195.5 376.17,-195.5 373.83,-195.5 371.5,-193.17 371.5,-190.83 371.5,-190.83 371.5,-186.17 371.5,-186.17 371.5,-183.83 373.83,-181.5 376.17,-181.5 376.17,-181.5 403.83,-181.5 403.83,-181.5 406.17,-181.5 408.5,-183.83 408.5,-186.17 408.5,-186.17 408.5,-190.83 408.5,-190.83 408.5,-193.17 406.17,-195.5 403.83,-195.5"/>
<text text-anchor="middle" x="390" y="-187.5" font-family="Times,serif" font-size="5.00">PHYS112</text>
</g>
<!-- PHYS112&#45;&gt;1 of [&#39;PHYS102A&#39;, &#39;PHYS110&#39;, &#39;PHYS112&#39;, &#39;PHYS120&#39;] -->
<g id="edge53" class="edge">
<title>PHYS112&#45;&gt;1 of [&#39;PHYS102A&#39;, &#39;PHYS110&#39;, &#39;PHYS112&#39;, &#39;PHYS120&#39;]</title>
<path fill="none" stroke="black" d="M408.55,-192.55C425.53,-196.47 451,-202.35 467.04,-206.05"/>
<polygon fill="black" stroke="black" points="466.83,-207.8 472.1,-207.22 467.62,-204.39 466.83,-207.8"/>
</g>
<!-- PHYS112&#45;&gt;1 of [&#39;PHYS102B&#39;, &#39;PHYS111&#39;, &#39;PHYS112&#39;, &#39;PHYS130&#39;] -->
<g id="edge58" class="edge">
<title>PHYS112&#45;&gt;1 of [&#39;PHYS102B&#39;, &#39;PHYS111&#39;, &#39;PHYS112&#39;, &#39;PHYS130&#39;]</title>
<path fill="none" stroke="black" d="M408.65,-181.9C447.04,-168.67 540.11,-142.78 608,-174.5 625.88,-182.85 639.25,-201.95 646.85,-215.29"/>
<polygon fill="black" stroke="black" points="645.44,-216.36 649.38,-219.91 648.51,-214.68 645.44,-216.36"/>
</g>
<!-- 1 of [&#39;PHYS102B&#39;, &#39;PHYS111&#39;, &#39;PHYS112&#39;, &#39;PHYS130&#39;]&#45;&gt;EOS311 -->
<g id="edge55" class="edge">
<title>1 of [&#39;PHYS102B&#39;, &#39;PHYS111&#39;, &#39;PHYS112&#39;, &#39;PHYS130&#39;]&#45;&gt;EOS311</title>
<path fill="none" stroke="black" d="M665.67,-226.62C673.7,-224.24 685.59,-220.7 696.97,-217.32"/>
<polygon fill="black" stroke="black" points="697.52,-218.98 701.81,-215.88 696.52,-215.63 697.52,-218.98"/>
</g>
<!-- 1 of [&#39;EOS201&#39;, &#39;EOS240&#39;]&#45;&gt;EOS450 -->
<g id="edge60" class="edge">
<title>1 of [&#39;EOS201&#39;, &#39;EOS240&#39;]&#45;&gt;EOS450</title>
<path fill="none" stroke="black" d="M666.29,-85.5C674.28,-85.5 685.83,-85.5 696.9,-85.5"/>
<polygon fill="black" stroke="black" points="696.94,-87.25 701.94,-85.5 696.94,-83.75 696.94,-87.25"/>
</g>
</g>
</svg>
