<?xml version="1.0" encoding="UTF-8" standalone="no"?>
<!DOCTYPE svg PUBLIC "-//W3C//DTD SVG 1.1//EN"
 "http://www.w3.org/Graphics/SVG/1.1/DTD/svg11.dtd">
<!-- Generated by graphviz version 2.43.0 (0)
 -->
<!-- Title: unix Pages: 1 -->
<svg width="614pt" height="402pt"
 viewBox="0.00 0.00 614.00 402.00" xmlns="http://www.w3.org/2000/svg" xmlns:xlink="http://www.w3.org/1999/xlink">
<g id="graph0" class="graph" transform="scale(1 1) rotate(0) translate(4 398)">
<title>unix</title>
<polygon fill="white" stroke="transparent" points="-4,4 -4,-398 610,-398 610,4 -4,4"/>
<text text-anchor="middle" x="303" y="-378.8" font-family="Times,serif" font-size="14.00">Earth Sciences (Minor)</text>
<g id="clust1" class="cluster">
<title>cluster_Legend</title>
<polygon fill="none" stroke="black" points="8,-8 8,-209 168,-209 168,-8 8,-8"/>
<text text-anchor="middle" x="88" y="-193.8" font-family="Times,serif" font-size="14.00">Legend</text>
</g>
<!-- Required -->
<g id="node1" class="node">
<title>Required</title>
<path fill="#9fa7be" stroke="#030a10" d="M153,-177.5C153,-177.5 23,-177.5 23,-177.5 19.5,-177.5 16,-174 16,-170.5 16,-170.5 16,-163.5 16,-163.5 16,-160 19.5,-156.5 23,-156.5 23,-156.5 153,-156.5 153,-156.5 156.5,-156.5 160,-160 160,-163.5 160,-163.5 160,-170.5 160,-170.5 160,-174 156.5,-177.5 153,-177.5"/>
<text text-anchor="middle" x="88" y="-163.9" font-family="Times,serif" font-size="12.00">Required</text>
</g>
<!-- Required.11 Required -->
<g id="node2" class="node">
<title>Required.11 Required</title>
<path fill="#f77189" stroke="#030a10" d="M153,-149.5C153,-149.5 23,-149.5 23,-149.5 19.5,-149.5 16,-146 16,-142.5 16,-142.5 16,-135.5 16,-135.5 16,-132 19.5,-128.5 23,-128.5 23,-128.5 153,-128.5 153,-128.5 156.5,-128.5 160,-132 160,-135.5 160,-135.5 160,-142.5 160,-142.5 160,-146 156.5,-149.5 153,-149.5"/>
<text text-anchor="middle" x="88" y="-135.9" font-family="Times,serif" font-size="12.00">1 Required</text>
</g>
<!-- Required.21 Required -->
<g id="node3" class="node">
<title>Required.21 Required</title>
<path fill="#bb9832" stroke="#030a10" d="M153,-121.5C153,-121.5 23,-121.5 23,-121.5 19.5,-121.5 16,-118 16,-114.5 16,-114.5 16,-107.5 16,-107.5 16,-104 19.5,-100.5 23,-100.5 23,-100.5 153,-100.5 153,-100.5 156.5,-100.5 160,-104 160,-107.5 160,-107.5 160,-114.5 160,-114.5 160,-118 156.5,-121.5 153,-121.5"/>
<text text-anchor="middle" x="88" y="-107.9" font-family="Times,serif" font-size="12.00">1 Required</text>
</g>
<!-- Required.31 Required -->
<g id="node4" class="node">
<title>Required.31 Required</title>
<path fill="#50b131" stroke="#030a10" d="M153,-93.5C153,-93.5 23,-93.5 23,-93.5 19.5,-93.5 16,-90 16,-86.5 16,-86.5 16,-79.5 16,-79.5 16,-76 19.5,-72.5 23,-72.5 23,-72.5 153,-72.5 153,-72.5 156.5,-72.5 160,-76 160,-79.5 160,-79.5 160,-86.5 160,-86.5 160,-90 156.5,-93.5 153,-93.5"/>
<text text-anchor="middle" x="88" y="-79.9" font-family="Times,serif" font-size="12.00">1 Required</text>
</g>
<!-- Required.41 Required -->
<g id="node5" class="node">
<title>Required.41 Required</title>
<path fill="#36ada4" stroke="#030a10" d="M153,-65.5C153,-65.5 23,-65.5 23,-65.5 19.5,-65.5 16,-62 16,-58.5 16,-58.5 16,-51.5 16,-51.5 16,-48 19.5,-44.5 23,-44.5 23,-44.5 153,-44.5 153,-44.5 156.5,-44.5 160,-48 160,-51.5 160,-51.5 160,-58.5 160,-58.5 160,-62 156.5,-65.5 153,-65.5"/>
<text text-anchor="middle" x="88" y="-51.9" font-family="Times,serif" font-size="12.00">1 Required</text>
</g>
<!-- Required.59 units Required -->
<g id="node6" class="node">
<title>Required.59 units Required</title>
<path fill="#3ba3ec" stroke="#030a10" d="M153,-37.5C153,-37.5 23,-37.5 23,-37.5 19.5,-37.5 16,-34 16,-30.5 16,-30.5 16,-23.5 16,-23.5 16,-20 19.5,-16.5 23,-16.5 23,-16.5 153,-16.5 153,-16.5 156.5,-16.5 160,-20 160,-23.5 160,-23.5 160,-30.5 160,-30.5 160,-34 156.5,-37.5 153,-37.5"/>
<text text-anchor="middle" x="88" y="-23.9" font-family="Times,serif" font-size="12.00">9 units Required</text>
</g>
<!-- MATH101 -->
<g id="node7" class="node">
<title>MATH101</title>
<path fill="#9fa7be" stroke="#030a10" d="M412,-170C412,-170 368,-170 368,-170 365,-170 362,-167 362,-164 362,-164 362,-158 362,-158 362,-155 365,-152 368,-152 368,-152 412,-152 412,-152 415,-152 418,-155 418,-158 418,-158 418,-164 418,-164 418,-167 415,-170 412,-170"/>
<text text-anchor="middle" x="390" y="-158.8" font-family="Times,serif" font-size="9.00">MATH101</text>
</g>
<!-- PHYS130 -->
<g id="node23" class="node">
<title>PHYS130</title>
<path fill="#36ada4" stroke="#030a10" d="M503,-181C503,-181 461,-181 461,-181 458,-181 455,-178 455,-175 455,-175 455,-169 455,-169 455,-166 458,-163 461,-163 461,-163 503,-163 503,-163 506,-163 509,-166 509,-169 509,-169 509,-175 509,-175 509,-178 506,-181 503,-181"/>
<text text-anchor="middle" x="482" y="-169.8" font-family="Times,serif" font-size="9.00">PHYS130</text>
</g>
<!-- MATH101&#45;&gt;PHYS130 -->
<g id="edge29" class="edge">
<title>MATH101&#45;&gt;PHYS130</title>
<path fill="none" stroke="black" d="M418,-164.3C428.06,-165.53 439.55,-166.93 449.94,-168.2"/>
<polygon fill="black" stroke="black" points="449.77,-169.95 454.94,-168.82 450.19,-166.47 449.77,-169.95"/>
</g>
<!-- PHYS110 -->
<g id="node8" class="node">
<title>PHYS110</title>
<path fill="#50b131" stroke="#030a10" d="M411,-241C411,-241 369,-241 369,-241 366,-241 363,-238 363,-235 363,-235 363,-229 363,-229 363,-226 366,-223 369,-223 369,-223 411,-223 411,-223 414,-223 417,-226 417,-229 417,-229 417,-235 417,-235 417,-238 414,-241 411,-241"/>
<text text-anchor="middle" x="390" y="-229.8" font-family="Times,serif" font-size="9.00">PHYS110</text>
</g>
<!-- PHYS111 -->
<g id="node15" class="node">
<title>PHYS111</title>
<path fill="#36ada4" stroke="#030a10" d="M503,-248C503,-248 461,-248 461,-248 458,-248 455,-245 455,-242 455,-242 455,-236 455,-236 455,-233 458,-230 461,-230 461,-230 503,-230 503,-230 506,-230 509,-233 509,-236 509,-236 509,-242 509,-242 509,-245 506,-248 503,-248"/>
<text text-anchor="middle" x="482" y="-236.8" font-family="Times,serif" font-size="9.00">PHYS111</text>
</g>
<!-- PHYS110&#45;&gt;PHYS111 -->
<g id="edge30" class="edge">
<title>PHYS110&#45;&gt;PHYS111</title>
<path fill="none" stroke="black" d="M417.03,-234.02C427.2,-234.82 438.96,-235.73 449.6,-236.56"/>
<polygon fill="black" stroke="black" points="449.59,-238.31 454.71,-236.96 449.87,-234.82 449.59,-238.31"/>
</g>
<!-- 1 of [&#39;PHYS102A&#39;, &#39;PHYS110&#39;, &#39;PHYS120&#39;] -->
<g id="node27" class="node">
<title>1 of [&#39;PHYS102A&#39;, &#39;PHYS110&#39;, &#39;PHYS120&#39;]</title>
<ellipse fill="#dfe6e9" stroke="#030a10" cx="482" cy="-209" rx="11" ry="11"/>
<text text-anchor="middle" x="482" y="-205.9" font-family="Times,serif" font-size="12.00">1</text>
</g>
<!-- PHYS110&#45;&gt;1 of [&#39;PHYS102A&#39;, &#39;PHYS110&#39;, &#39;PHYS120&#39;] -->
<g id="edge14" class="edge">
<title>PHYS110&#45;&gt;1 of [&#39;PHYS102A&#39;, &#39;PHYS110&#39;, &#39;PHYS120&#39;]</title>
<path fill="none" stroke="black" d="M417.03,-225.35C432.98,-221.27 452.82,-216.2 466.14,-212.8"/>
<polygon fill="black" stroke="black" points="466.66,-214.47 471.08,-211.54 465.8,-211.08 466.66,-214.47"/>
</g>
<!-- EOS202 -->
<g id="node9" class="node">
<title>EOS202</title>
<path fill="#9fa7be" stroke="#030a10" d="M503,-371C503,-371 461,-371 461,-371 458,-371 455,-368 455,-365 455,-365 455,-359 455,-359 455,-356 458,-353 461,-353 461,-353 503,-353 503,-353 506,-353 509,-356 509,-359 509,-359 509,-365 509,-365 509,-368 506,-371 503,-371"/>
<text text-anchor="middle" x="482" y="-359.8" font-family="Times,serif" font-size="9.00">EOS202</text>
</g>
<!-- EOS240 -->
<g id="node10" class="node">
<title>EOS240</title>
<path fill="#9fa7be" stroke="#030a10" d="M597,-316C597,-316 555,-316 555,-316 552,-316 549,-313 549,-310 549,-310 549,-304 549,-304 549,-301 552,-298 555,-298 555,-298 597,-298 597,-298 600,-298 603,-301 603,-304 603,-304 603,-310 603,-310 603,-313 600,-316 597,-316"/>
<text text-anchor="middle" x="576" y="-304.8" font-family="Times,serif" font-size="9.00">EOS240</text>
</g>
<!-- EOS205 -->
<g id="node11" class="node">
<title>EOS205</title>
<path fill="#9fa7be" stroke="#030a10" d="M503,-316C503,-316 461,-316 461,-316 458,-316 455,-313 455,-310 455,-310 455,-304 455,-304 455,-301 458,-298 461,-298 461,-298 503,-298 503,-298 506,-298 509,-301 509,-304 509,-304 509,-310 509,-310 509,-313 506,-316 503,-316"/>
<text text-anchor="middle" x="482" y="-304.8" font-family="Times,serif" font-size="9.00">EOS205</text>
</g>
<!-- EOS205&#45;&gt;EOS240 -->
<g id="edge33" class="edge">
<title>EOS205&#45;&gt;EOS240</title>
<path fill="none" stroke="black" d="M509.12,-307C519.9,-307 532.48,-307 543.75,-307"/>
<polygon fill="black" stroke="black" points="543.82,-308.75 548.82,-307 543.82,-305.25 543.82,-308.75"/>
</g>
<!-- EOS201 -->
<g id="node20" class="node">
<title>EOS201</title>
<path fill="#9fa7be" stroke="#030a10" d="M597,-346C597,-346 555,-346 555,-346 552,-346 549,-343 549,-340 549,-340 549,-334 549,-334 549,-331 552,-328 555,-328 555,-328 597,-328 597,-328 600,-328 603,-331 603,-334 603,-334 603,-340 603,-340 603,-343 600,-346 597,-346"/>
<text text-anchor="middle" x="576" y="-334.8" font-family="Times,serif" font-size="9.00">EOS201</text>
</g>
<!-- EOS205&#45;&gt;EOS201 -->
<g id="edge2" class="edge">
<title>EOS205&#45;&gt;EOS201</title>
<path fill="none" stroke="black" d="M509.12,-315.52C519.99,-319.06 532.71,-323.21 544.05,-326.91"/>
<polygon fill="black" stroke="black" points="543.52,-328.58 548.82,-328.46 544.61,-325.25 543.52,-328.58"/>
</g>
<!-- MATH109 -->
<g id="node12" class="node">
<title>MATH109</title>
<path fill="#bb9832" stroke="#030a10" d="M246,-233C246,-233 202,-233 202,-233 199,-233 196,-230 196,-227 196,-227 196,-221 196,-221 196,-218 199,-215 202,-215 202,-215 246,-215 246,-215 249,-215 252,-218 252,-221 252,-221 252,-227 252,-227 252,-230 249,-233 246,-233"/>
<text text-anchor="middle" x="224" y="-221.8" font-family="Times,serif" font-size="9.00">MATH109</text>
</g>
<!-- 1 of [&#39;MATH100&#39;, &#39;MATH102&#39;, &#39;MATH109&#39;] -->
<g id="node24" class="node">
<title>1 of [&#39;MATH100&#39;, &#39;MATH102&#39;, &#39;MATH109&#39;]</title>
<ellipse fill="#dfe6e9" stroke="#030a10" cx="307" cy="-247" rx="11" ry="11"/>
<text text-anchor="middle" x="307" y="-243.9" font-family="Times,serif" font-size="12.00">1</text>
</g>
<!-- MATH109&#45;&gt;1 of [&#39;MATH100&#39;, &#39;MATH102&#39;, &#39;MATH109&#39;] -->
<g id="edge7" class="edge">
<title>MATH109&#45;&gt;1 of [&#39;MATH100&#39;, &#39;MATH102&#39;, &#39;MATH109&#39;]</title>
<path fill="none" stroke="black" d="M252.42,-231.79C265.36,-235.46 280.29,-239.7 291.1,-242.77"/>
<polygon fill="black" stroke="black" points="290.76,-244.49 296.05,-244.17 291.72,-241.12 290.76,-244.49"/>
</g>
<!-- 1 of [&#39;MATH100&#39;, &#39;MATH109&#39;] -->
<g id="node26" class="node">
<title>1 of [&#39;MATH100&#39;, &#39;MATH109&#39;]</title>
<ellipse fill="#dfe6e9" stroke="#030a10" cx="307" cy="-190" rx="11" ry="11"/>
<text text-anchor="middle" x="307" y="-186.9" font-family="Times,serif" font-size="12.00">1</text>
</g>
<!-- MATH109&#45;&gt;1 of [&#39;MATH100&#39;, &#39;MATH109&#39;] -->
<g id="edge10" class="edge">
<title>MATH109&#45;&gt;1 of [&#39;MATH100&#39;, &#39;MATH109&#39;]</title>
<path fill="none" stroke="black" d="M246.71,-214.89C261.1,-208.85 279.57,-201.09 292.04,-195.86"/>
<polygon fill="black" stroke="black" points="292.73,-197.47 296.67,-193.92 291.38,-194.24 292.73,-197.47"/>
</g>
<!-- PHYS102B -->
<g id="node13" class="node">
<title>PHYS102B</title>
<path fill="#36ada4" stroke="#030a10" d="M600,-218C600,-218 552,-218 552,-218 549,-218 546,-215 546,-212 546,-212 546,-206 546,-206 546,-203 549,-200 552,-200 552,-200 600,-200 600,-200 603,-200 606,-203 606,-206 606,-206 606,-212 606,-212 606,-215 603,-218 600,-218"/>
<text text-anchor="middle" x="576" y="-206.8" font-family="Times,serif" font-size="9.00">PHYS102B</text>
</g>
<!-- MATH100 -->
<g id="node14" class="node">
<title>MATH100</title>
<path fill="#bb9832" stroke="#030a10" d="M246,-208C246,-208 202,-208 202,-208 199,-208 196,-205 196,-202 196,-202 196,-196 196,-196 196,-193 199,-190 202,-190 202,-190 246,-190 246,-190 249,-190 252,-193 252,-196 252,-196 252,-202 252,-202 252,-205 249,-208 246,-208"/>
<text text-anchor="middle" x="224" y="-196.8" font-family="Times,serif" font-size="9.00">MATH100</text>
</g>
<!-- MATH100&#45;&gt;1 of [&#39;MATH100&#39;, &#39;MATH102&#39;, &#39;MATH109&#39;] -->
<g id="edge5" class="edge">
<title>MATH100&#45;&gt;1 of [&#39;MATH100&#39;, &#39;MATH102&#39;, &#39;MATH109&#39;]</title>
<path fill="none" stroke="black" d="M244.62,-208.08C247.13,-209.35 249.64,-210.67 252,-212 266.49,-220.14 282.37,-230.64 293.14,-238"/>
<polygon fill="black" stroke="black" points="292.31,-239.56 297.42,-240.95 294.29,-236.68 292.31,-239.56"/>
</g>
<!-- MATH100&#45;&gt;1 of [&#39;MATH100&#39;, &#39;MATH109&#39;] -->
<g id="edge9" class="edge">
<title>MATH100&#45;&gt;1 of [&#39;MATH100&#39;, &#39;MATH109&#39;]</title>
<path fill="none" stroke="black" d="M252.42,-195.95C265.24,-194.53 280.02,-192.89 290.8,-191.69"/>
<polygon fill="black" stroke="black" points="291.27,-193.4 296.05,-191.11 290.88,-189.92 291.27,-193.4"/>
</g>
<!-- EOS110 -->
<g id="node16" class="node">
<title>EOS110</title>
<path fill="#9fa7be" stroke="#030a10" d="M109,-256C109,-256 67,-256 67,-256 64,-256 61,-253 61,-250 61,-250 61,-244 61,-244 61,-241 64,-238 67,-238 67,-238 109,-238 109,-238 112,-238 115,-241 115,-244 115,-244 115,-250 115,-250 115,-253 112,-256 109,-256"/>
<text text-anchor="middle" x="88" y="-244.8" font-family="Times,serif" font-size="9.00">EOS110</text>
</g>
<!-- EOS120 -->
<g id="node17" class="node">
<title>EOS120</title>
<path fill="#9fa7be" stroke="#030a10" d="M411,-343C411,-343 369,-343 369,-343 366,-343 363,-340 363,-337 363,-337 363,-331 363,-331 363,-328 366,-325 369,-325 369,-325 411,-325 411,-325 414,-325 417,-328 417,-331 417,-331 417,-337 417,-337 417,-340 414,-343 411,-343"/>
<text text-anchor="middle" x="390" y="-331.8" font-family="Times,serif" font-size="9.00">EOS120</text>
</g>
<!-- EOS120&#45;&gt;EOS202 -->
<g id="edge26" class="edge">
<title>EOS120&#45;&gt;EOS202</title>
<path fill="none" stroke="black" d="M417.03,-342.1C427.3,-345.29 439.17,-348.99 449.88,-352.32"/>
<polygon fill="black" stroke="black" points="449.42,-354.01 454.71,-353.82 450.46,-350.67 449.42,-354.01"/>
</g>
<!-- EOS120&#45;&gt;EOS240 -->
<g id="edge32" class="edge">
<title>EOS120&#45;&gt;EOS240</title>
<path fill="none" stroke="black" d="M417.06,-331.15C441.21,-328.4 478.11,-323.95 510,-319 521.01,-317.29 533.02,-315.15 543.69,-313.15"/>
<polygon fill="black" stroke="black" points="544.22,-314.84 548.81,-312.19 543.57,-311.4 544.22,-314.84"/>
</g>
<!-- EOS120&#45;&gt;EOS205 -->
<g id="edge24" class="edge">
<title>EOS120&#45;&gt;EOS205</title>
<path fill="none" stroke="black" d="M417.03,-326.19C427.3,-323.11 439.17,-319.55 449.88,-316.33"/>
<polygon fill="black" stroke="black" points="450.43,-318 454.71,-314.89 449.42,-314.65 450.43,-318"/>
</g>
<!-- EOS120&#45;&gt;EOS201 -->
<g id="edge1" class="edge">
<title>EOS120&#45;&gt;EOS201</title>
<path fill="none" stroke="black" d="M417.36,-334.43C450.8,-334.97 508.36,-335.91 543.9,-336.49"/>
<polygon fill="black" stroke="black" points="543.96,-338.24 548.98,-336.58 544.01,-334.74 543.96,-338.24"/>
</g>
<!-- CHEM102 -->
<g id="node18" class="node">
<title>CHEM102</title>
<path fill="#9fa7be" stroke="#030a10" d="M412,-296C412,-296 368,-296 368,-296 365,-296 362,-293 362,-290 362,-290 362,-284 362,-284 362,-281 365,-278 368,-278 368,-278 412,-278 412,-278 415,-278 418,-281 418,-284 418,-284 418,-290 418,-290 418,-293 415,-296 412,-296"/>
<text text-anchor="middle" x="390" y="-284.8" font-family="Times,serif" font-size="9.00">CHEM102</text>
</g>
<!-- CHEM102&#45;&gt;EOS240 -->
<g id="edge34" class="edge">
<title>CHEM102&#45;&gt;EOS240</title>
<path fill="none" stroke="black" d="M418.02,-287.93C442.2,-288.97 478.57,-291.06 510,-295 521.06,-296.39 533.08,-298.45 543.74,-300.47"/>
<polygon fill="black" stroke="black" points="543.62,-302.23 548.86,-301.46 544.28,-298.8 543.62,-302.23"/>
</g>
<!-- CHEM102&#45;&gt;EOS205 -->
<g id="edge25" class="edge">
<title>CHEM102&#45;&gt;EOS205</title>
<path fill="none" stroke="black" d="M418,-293C428.06,-295.24 439.55,-297.79 449.94,-300.1"/>
<polygon fill="black" stroke="black" points="449.68,-301.83 454.94,-301.21 450.44,-298.42 449.68,-301.83"/>
</g>
<!-- CHEM245 -->
<g id="node22" class="node">
<title>CHEM245</title>
<path fill="#9fa7be" stroke="#030a10" d="M504,-276C504,-276 460,-276 460,-276 457,-276 454,-273 454,-270 454,-270 454,-264 454,-264 454,-261 457,-258 460,-258 460,-258 504,-258 504,-258 507,-258 510,-261 510,-264 510,-264 510,-270 510,-270 510,-273 507,-276 504,-276"/>
<text text-anchor="middle" x="482" y="-264.8" font-family="Times,serif" font-size="9.00">CHEM245</text>
</g>
<!-- CHEM102&#45;&gt;CHEM245 -->
<g id="edge3" class="edge">
<title>CHEM102&#45;&gt;CHEM245</title>
<path fill="none" stroke="black" d="M418,-281C427.61,-278.86 438.54,-276.44 448.56,-274.21"/>
<polygon fill="black" stroke="black" points="449.2,-275.86 453.71,-273.07 448.44,-272.44 449.2,-275.86"/>
</g>
<!-- PHYS120 -->
<g id="node19" class="node">
<title>PHYS120</title>
<path fill="#50b131" stroke="#030a10" d="M411,-195C411,-195 369,-195 369,-195 366,-195 363,-192 363,-189 363,-189 363,-183 363,-183 363,-180 366,-177 369,-177 369,-177 411,-177 411,-177 414,-177 417,-180 417,-183 417,-183 417,-189 417,-189 417,-192 414,-195 411,-195"/>
<text text-anchor="middle" x="390" y="-183.8" font-family="Times,serif" font-size="9.00">PHYS120</text>
</g>
<!-- PHYS120&#45;&gt;PHYS130 -->
<g id="edge28" class="edge">
<title>PHYS120&#45;&gt;PHYS130</title>
<path fill="none" stroke="black" d="M417.03,-181.95C427.2,-180.37 438.96,-178.54 449.6,-176.89"/>
<polygon fill="black" stroke="black" points="450.04,-178.59 454.71,-176.09 449.51,-175.13 450.04,-178.59"/>
</g>
<!-- PHYS120&#45;&gt;1 of [&#39;PHYS102A&#39;, &#39;PHYS110&#39;, &#39;PHYS120&#39;] -->
<g id="edge15" class="edge">
<title>PHYS120&#45;&gt;1 of [&#39;PHYS102A&#39;, &#39;PHYS110&#39;, &#39;PHYS120&#39;]</title>
<path fill="none" stroke="black" d="M417.03,-192.65C432.98,-196.73 452.82,-201.8 466.14,-205.2"/>
<polygon fill="black" stroke="black" points="465.8,-206.92 471.08,-206.46 466.66,-203.53 465.8,-206.92"/>
</g>
<!-- CHEM101 -->
<g id="node21" class="node">
<title>CHEM101</title>
<path fill="#f77189" stroke="#030a10" d="M246,-279C246,-279 202,-279 202,-279 199,-279 196,-276 196,-273 196,-273 196,-267 196,-267 196,-264 199,-261 202,-261 202,-261 246,-261 246,-261 249,-261 252,-264 252,-267 252,-267 252,-273 252,-273 252,-276 249,-279 246,-279"/>
<text text-anchor="middle" x="224" y="-267.8" font-family="Times,serif" font-size="9.00">CHEM101</text>
</g>
<!-- 1 of [&#39;CHEM101&#39;, &#39;CHEM150&#39;] -->
<g id="node31" class="node">
<title>1 of [&#39;CHEM101&#39;, &#39;CHEM150&#39;]</title>
<ellipse fill="#dfe6e9" stroke="#030a10" cx="307" cy="-281" rx="11" ry="11"/>
<text text-anchor="middle" x="307" y="-277.9" font-family="Times,serif" font-size="12.00">1</text>
</g>
<!-- CHEM101&#45;&gt;1 of [&#39;CHEM101&#39;, &#39;CHEM150&#39;] -->
<g id="edge20" class="edge">
<title>CHEM101&#45;&gt;1 of [&#39;CHEM101&#39;, &#39;CHEM150&#39;]</title>
<path fill="none" stroke="black" d="M252.42,-273.72C265.24,-275.46 280.02,-277.47 290.8,-278.94"/>
<polygon fill="black" stroke="black" points="290.86,-280.71 296.05,-279.65 291.33,-277.24 290.86,-280.71"/>
</g>
<!-- 1 of [&#39;MATH100&#39;, &#39;MATH102&#39;, &#39;MATH109&#39;]&#45;&gt;PHYS110 -->
<g id="edge11" class="edge">
<title>1 of [&#39;MATH100&#39;, &#39;MATH102&#39;, &#39;MATH109&#39;]&#45;&gt;PHYS110</title>
<path fill="none" stroke="black" d="M317.93,-245.16C327.86,-243.32 343.66,-240.4 357.84,-237.77"/>
<polygon fill="black" stroke="black" points="358.38,-239.45 362.98,-236.82 357.75,-236.01 358.38,-239.45"/>
</g>
<!-- 1 of [&#39;MATH100&#39;, &#39;MATH102&#39;, &#39;MATH109&#39;]&#45;&gt;PHYS111 -->
<g id="edge31" class="edge">
<title>1 of [&#39;MATH100&#39;, &#39;MATH102&#39;, &#39;MATH109&#39;]&#45;&gt;PHYS111</title>
<path fill="none" stroke="black" d="M318.02,-246.9C337.36,-246.67 381.18,-245.96 418,-244 428.36,-243.45 439.65,-242.62 449.79,-241.8"/>
<polygon fill="black" stroke="black" points="450.13,-243.53 454.97,-241.37 449.84,-240.04 450.13,-243.53"/>
</g>
<!-- 1 of [&#39;MATH100&#39;, &#39;MATH102&#39;, &#39;MATH109&#39;]&#45;&gt;CHEM102 -->
<g id="edge17" class="edge">
<title>1 of [&#39;MATH100&#39;, &#39;MATH102&#39;, &#39;MATH109&#39;]&#45;&gt;CHEM102</title>
<path fill="none" stroke="black" d="M317.29,-251.59C329.04,-257.39 349.68,-267.58 365.81,-275.55"/>
<polygon fill="black" stroke="black" points="365.4,-277.3 370.66,-277.94 366.95,-274.16 365.4,-277.3"/>
</g>
<!-- 1 of [&#39;MATH100&#39;, &#39;MATH102&#39;, &#39;MATH109&#39;]&#45;&gt;CHEM245 -->
<g id="edge4" class="edge">
<title>1 of [&#39;MATH100&#39;, &#39;MATH102&#39;, &#39;MATH109&#39;]&#45;&gt;CHEM245</title>
<path fill="none" stroke="black" d="M318.05,-248.16C343.03,-251.05 408.81,-258.65 448.74,-263.27"/>
<polygon fill="black" stroke="black" points="448.79,-265.04 453.96,-263.87 449.19,-261.56 448.79,-265.04"/>
</g>
<!-- MATH102 -->
<g id="node25" class="node">
<title>MATH102</title>
<path fill="white" stroke="#030a10" stroke-opacity="0.125490" d="M238.33,-254C238.33,-254 209.67,-254 209.67,-254 207.33,-254 205,-251.67 205,-249.33 205,-249.33 205,-244.67 205,-244.67 205,-242.33 207.33,-240 209.67,-240 209.67,-240 238.33,-240 238.33,-240 240.67,-240 243,-242.33 243,-244.67 243,-244.67 243,-249.33 243,-249.33 243,-251.67 240.67,-254 238.33,-254"/>
<text text-anchor="middle" x="224" y="-246" font-family="Times,serif" font-size="5.00">MATH102</text>
</g>
<!-- MATH102&#45;&gt;1 of [&#39;MATH100&#39;, &#39;MATH102&#39;, &#39;MATH109&#39;] -->
<g id="edge6" class="edge">
<title>MATH102&#45;&gt;1 of [&#39;MATH100&#39;, &#39;MATH102&#39;, &#39;MATH109&#39;]</title>
<path fill="none" stroke="black" d="M243.38,-247C257.59,-247 277.05,-247 290.48,-247"/>
<polygon fill="black" stroke="black" points="290.84,-248.75 295.84,-247 290.84,-245.25 290.84,-248.75"/>
</g>
<!-- 1 of [&#39;MATH100&#39;, &#39;MATH109&#39;]&#45;&gt;MATH101 -->
<g id="edge8" class="edge">
<title>1 of [&#39;MATH100&#39;, &#39;MATH109&#39;]&#45;&gt;MATH101</title>
<path fill="none" stroke="black" d="M317.61,-186.56C327.78,-182.92 344.33,-176.99 358.94,-171.76"/>
<polygon fill="black" stroke="black" points="359.7,-173.35 363.81,-170.02 358.52,-170.06 359.7,-173.35"/>
</g>
<!-- 1 of [&#39;MATH100&#39;, &#39;MATH109&#39;]&#45;&gt;PHYS120 -->
<g id="edge23" class="edge">
<title>1 of [&#39;MATH100&#39;, &#39;MATH109&#39;]&#45;&gt;PHYS120</title>
<path fill="none" stroke="black" d="M318.26,-189.49C328.19,-189 343.76,-188.23 357.77,-187.54"/>
<polygon fill="black" stroke="black" points="357.94,-189.29 362.85,-187.29 357.77,-185.79 357.94,-189.29"/>
</g>
<!-- 1 of [&#39;PHYS102A&#39;, &#39;PHYS110&#39;, &#39;PHYS120&#39;]&#45;&gt;PHYS102B -->
<g id="edge12" class="edge">
<title>1 of [&#39;PHYS102A&#39;, &#39;PHYS110&#39;, &#39;PHYS120&#39;]&#45;&gt;PHYS102B</title>
<path fill="none" stroke="black" d="M493.2,-209C504.64,-209 523.83,-209 540.75,-209"/>
<polygon fill="black" stroke="black" points="540.92,-210.75 545.92,-209 540.92,-207.25 540.92,-210.75"/>
</g>
<!-- PHYS102A -->
<g id="node28" class="node">
<title>PHYS102A</title>
<path fill="white" stroke="#030a10" stroke-opacity="0.125490" d="M405.83,-216C405.83,-216 374.17,-216 374.17,-216 371.83,-216 369.5,-213.67 369.5,-211.33 369.5,-211.33 369.5,-206.67 369.5,-206.67 369.5,-204.33 371.83,-202 374.17,-202 374.17,-202 405.83,-202 405.83,-202 408.17,-202 410.5,-204.33 410.5,-206.67 410.5,-206.67 410.5,-211.33 410.5,-211.33 410.5,-213.67 408.17,-216 405.83,-216"/>
<text text-anchor="middle" x="390" y="-208" font-family="Times,serif" font-size="5.00">PHYS102A</text>
</g>
<!-- PHYS102A&#45;&gt;1 of [&#39;PHYS102A&#39;, &#39;PHYS110&#39;, &#39;PHYS120&#39;] -->
<g id="edge13" class="edge">
<title>PHYS102A&#45;&gt;1 of [&#39;PHYS102A&#39;, &#39;PHYS110&#39;, &#39;PHYS120&#39;]</title>
<path fill="none" stroke="black" d="M410.53,-209C427.1,-209 450.56,-209 465.77,-209"/>
<polygon fill="black" stroke="black" points="465.98,-210.75 470.98,-209 465.98,-207.25 465.98,-210.75"/>
</g>
<!-- MATH120 -->
<g id="node29" class="node">
<title>MATH120</title>
<path fill="white" stroke="#030a10" stroke-opacity="0.125490" d="M102.33,-231C102.33,-231 73.67,-231 73.67,-231 71.33,-231 69,-228.67 69,-226.33 69,-226.33 69,-221.67 69,-221.67 69,-219.33 71.33,-217 73.67,-217 73.67,-217 102.33,-217 102.33,-217 104.67,-217 107,-219.33 107,-221.67 107,-221.67 107,-226.33 107,-226.33 107,-228.67 104.67,-231 102.33,-231"/>
<text text-anchor="middle" x="88" y="-223" font-family="Times,serif" font-size="5.00">MATH120</text>
</g>
<!-- MATH120&#45;&gt;MATH109 -->
<g id="edge22" class="edge">
<title>MATH120&#45;&gt;MATH109</title>
<path fill="none" stroke="black" d="M107.07,-224C128.5,-224 164.62,-224 190.86,-224"/>
<polygon fill="black" stroke="black" points="190.96,-225.75 195.96,-224 190.96,-222.25 190.96,-225.75"/>
</g>
<!-- MATH120&#45;&gt;MATH100 -->
<g id="edge16" class="edge">
<title>MATH120&#45;&gt;MATH100</title>
<path fill="none" stroke="black" d="M107.22,-220.89C123.25,-218.12 147.19,-213.92 168,-210 175.39,-208.61 183.32,-207.05 190.8,-205.56"/>
<polygon fill="black" stroke="black" points="191.33,-207.24 195.89,-204.55 190.64,-203.81 191.33,-207.24"/>
</g>
<!-- MATH120&#45;&gt;CHEM101 -->
<g id="edge27" class="edge">
<title>MATH120&#45;&gt;CHEM101</title>
<path fill="none" stroke="black" d="M107.28,-223.87C123.77,-224.37 148.38,-226.65 168,-235 182.56,-241.19 182.57,-248.63 196,-257 196.83,-257.52 197.68,-258.03 198.55,-258.53"/>
<polygon fill="black" stroke="black" points="197.75,-260.09 202.98,-260.97 199.44,-257.02 197.75,-260.09"/>
</g>
<!-- CHEM091 -->
<g id="node30" class="node">
<title>CHEM091</title>
<path fill="white" stroke="#030a10" stroke-opacity="0.125490" d="M321.33,-313C321.33,-313 292.67,-313 292.67,-313 290.33,-313 288,-310.67 288,-308.33 288,-308.33 288,-303.67 288,-303.67 288,-301.33 290.33,-299 292.67,-299 292.67,-299 321.33,-299 321.33,-299 323.67,-299 326,-301.33 326,-303.67 326,-303.67 326,-308.33 326,-308.33 326,-310.67 323.67,-313 321.33,-313"/>
<text text-anchor="middle" x="307" y="-305" font-family="Times,serif" font-size="5.00">CHEM091</text>
</g>
<!-- CHEM091&#45;&gt;CHEM102 -->
<g id="edge18" class="edge">
<title>CHEM091&#45;&gt;CHEM102</title>
<path fill="none" stroke="black" d="M326.38,-301.69C335.37,-299.58 346.45,-296.98 356.78,-294.56"/>
<polygon fill="black" stroke="black" points="357.31,-296.23 361.77,-293.39 356.51,-292.82 357.31,-296.23"/>
</g>
<!-- 1 of [&#39;CHEM101&#39;, &#39;CHEM150&#39;]&#45;&gt;CHEM102 -->
<g id="edge19" class="edge">
<title>1 of [&#39;CHEM101&#39;, &#39;CHEM150&#39;]&#45;&gt;CHEM102</title>
<path fill="none" stroke="black" d="M318.26,-281.76C327.96,-282.48 343.05,-283.6 356.81,-284.62"/>
<polygon fill="black" stroke="black" points="356.69,-286.36 361.8,-284.99 356.95,-282.87 356.69,-286.36"/>
</g>
<!-- CHEM150 -->
<g id="node32" class="node">
<title>CHEM150</title>
<path fill="white" stroke="#030a10" stroke-opacity="0.125490" d="M238.33,-300C238.33,-300 209.67,-300 209.67,-300 207.33,-300 205,-297.67 205,-295.33 205,-295.33 205,-290.67 205,-290.67 205,-288.33 207.33,-286 209.67,-286 209.67,-286 238.33,-286 238.33,-286 240.67,-286 243,-288.33 243,-290.67 243,-290.67 243,-295.33 243,-295.33 243,-297.67 240.67,-300 238.33,-300"/>
<text text-anchor="middle" x="224" y="-292" font-family="Times,serif" font-size="5.00">CHEM150</text>
</g>
<!-- CHEM150&#45;&gt;1 of [&#39;CHEM101&#39;, &#39;CHEM150&#39;] -->
<g id="edge21" class="edge">
<title>CHEM150&#45;&gt;1 of [&#39;CHEM101&#39;, &#39;CHEM150&#39;]</title>
<path fill="none" stroke="black" d="M243.38,-290.28C257.72,-288.15 277.4,-285.24 290.84,-283.25"/>
<polygon fill="black" stroke="black" points="291.15,-284.97 295.84,-282.51 290.64,-281.51 291.15,-284.97"/>
</g>
</g>
</svg>
