<?xml version="1.0" encoding="UTF-8" standalone="no"?>
<!DOCTYPE svg PUBLIC "-//W3C//DTD SVG 1.1//EN"
 "http://www.w3.org/Graphics/SVG/1.1/DTD/svg11.dtd">
<!-- Generated by graphviz version 2.43.0 (0)
 -->
<!-- Title: unix Pages: 1 -->
<svg width="612pt" height="357pt"
 viewBox="0.00 0.00 612.00 357.00" xmlns="http://www.w3.org/2000/svg" xmlns:xlink="http://www.w3.org/1999/xlink">
<g id="graph0" class="graph" transform="scale(1 1) rotate(0) translate(4 353)">
<title>unix</title>
<polygon fill="white" stroke="transparent" points="-4,4 -4,-353 608,-353 608,4 -4,4"/>
<text text-anchor="middle" x="302" y="-333.8" font-family="Times,serif" font-size="14.00">Earth Sciences (Minor) PROPOSED CHANGES</text>
<text text-anchor="middle" x="302" y="-318.8" font-family="Times,serif" font-size="14.00">Using options: [&#39;EOS202&#39;, &#39;EOS240&#39;]</text>
<g id="clust1" class="cluster">
<title>cluster_Legend</title>
<polygon fill="none" stroke="black" points="8,-8 8,-237 168,-237 168,-8 8,-8"/>
<text text-anchor="middle" x="88" y="-221.8" font-family="Times,serif" font-size="14.00">Legend</text>
</g>
<!-- Required -->
<g id="node1" class="node">
<title>Required</title>
<path fill="#9fa7be" stroke="#030a10" d="M153,-205.5C153,-205.5 23,-205.5 23,-205.5 19.5,-205.5 16,-202 16,-198.5 16,-198.5 16,-191.5 16,-191.5 16,-188 19.5,-184.5 23,-184.5 23,-184.5 153,-184.5 153,-184.5 156.5,-184.5 160,-188 160,-191.5 160,-191.5 160,-198.5 160,-198.5 160,-202 156.5,-205.5 153,-205.5"/>
<text text-anchor="middle" x="88" y="-191.9" font-family="Times,serif" font-size="12.00">Required</text>
</g>
<!-- Required.11 Required -->
<g id="node2" class="node">
<title>Required.11 Required</title>
<path fill="#f77189" stroke="#030a10" d="M153,-177.5C153,-177.5 23,-177.5 23,-177.5 19.5,-177.5 16,-174 16,-170.5 16,-170.5 16,-163.5 16,-163.5 16,-160 19.5,-156.5 23,-156.5 23,-156.5 153,-156.5 153,-156.5 156.5,-156.5 160,-160 160,-163.5 160,-163.5 160,-170.5 160,-170.5 160,-174 156.5,-177.5 153,-177.5"/>
<text text-anchor="middle" x="88" y="-163.9" font-family="Times,serif" font-size="12.00">1 Required</text>
</g>
<!-- Required.21 Required -->
<g id="node3" class="node">
<title>Required.21 Required</title>
<path fill="#c69432" stroke="#030a10" d="M153,-149.5C153,-149.5 23,-149.5 23,-149.5 19.5,-149.5 16,-146 16,-142.5 16,-142.5 16,-135.5 16,-135.5 16,-132 19.5,-128.5 23,-128.5 23,-128.5 153,-128.5 153,-128.5 156.5,-128.5 160,-132 160,-135.5 160,-135.5 160,-142.5 160,-142.5 160,-146 156.5,-149.5 153,-149.5"/>
<text text-anchor="middle" x="88" y="-135.9" font-family="Times,serif" font-size="12.00">1 Required</text>
</g>
<!-- Required.31 Required -->
<g id="node4" class="node">
<title>Required.31 Required</title>
<path fill="#82a931" stroke="#030a10" d="M153,-121.5C153,-121.5 23,-121.5 23,-121.5 19.5,-121.5 16,-118 16,-114.5 16,-114.5 16,-107.5 16,-107.5 16,-104 19.5,-100.5 23,-100.5 23,-100.5 153,-100.5 153,-100.5 156.5,-100.5 160,-104 160,-107.5 160,-107.5 160,-114.5 160,-114.5 160,-118 156.5,-121.5 153,-121.5"/>
<text text-anchor="middle" x="88" y="-107.9" font-family="Times,serif" font-size="12.00">1 Required</text>
</g>
<!-- Required.41 Required -->
<g id="node5" class="node">
<title>Required.41 Required</title>
<path fill="#34af8a" stroke="#030a10" d="M153,-93.5C153,-93.5 23,-93.5 23,-93.5 19.5,-93.5 16,-90 16,-86.5 16,-86.5 16,-79.5 16,-79.5 16,-76 19.5,-72.5 23,-72.5 23,-72.5 153,-72.5 153,-72.5 156.5,-72.5 160,-76 160,-79.5 160,-79.5 160,-86.5 160,-86.5 160,-90 156.5,-93.5 153,-93.5"/>
<text text-anchor="middle" x="88" y="-79.9" font-family="Times,serif" font-size="12.00">1 Required</text>
</g>
<!-- Required.52 Required -->
<g id="node6" class="node">
<title>Required.52 Required</title>
<path fill="#37aabb" stroke="#030a10" d="M153,-65.5C153,-65.5 23,-65.5 23,-65.5 19.5,-65.5 16,-62 16,-58.5 16,-58.5 16,-51.5 16,-51.5 16,-48 19.5,-44.5 23,-44.5 23,-44.5 153,-44.5 153,-44.5 156.5,-44.5 160,-48 160,-51.5 160,-51.5 160,-58.5 160,-58.5 160,-62 156.5,-65.5 153,-65.5"/>
<text text-anchor="middle" x="88" y="-51.9" font-family="Times,serif" font-size="12.00">2 Required</text>
</g>
<!-- Required.64.5 units Required -->
<g id="node7" class="node">
<title>Required.64.5 units Required</title>
<path fill="#8197f4" stroke="#030a10" d="M153,-37.5C153,-37.5 23,-37.5 23,-37.5 19.5,-37.5 16,-34 16,-30.5 16,-30.5 16,-23.5 16,-23.5 16,-20 19.5,-16.5 23,-16.5 23,-16.5 153,-16.5 153,-16.5 156.5,-16.5 160,-20 160,-23.5 160,-23.5 160,-30.5 160,-30.5 160,-34 156.5,-37.5 153,-37.5"/>
<text text-anchor="middle" x="88" y="-23.9" font-family="Times,serif" font-size="12.00">4.5 units Required</text>
</g>
<!-- MATH101 -->
<g id="node8" class="node">
<title>MATH101</title>
<path fill="#9fa7be" stroke="#030a10" d="M412,-311C412,-311 368,-311 368,-311 365,-311 362,-308 362,-305 362,-305 362,-299 362,-299 362,-296 365,-293 368,-293 368,-293 412,-293 412,-293 415,-293 418,-296 418,-299 418,-299 418,-305 418,-305 418,-308 415,-311 412,-311"/>
<text text-anchor="middle" x="390" y="-299.8" font-family="Times,serif" font-size="9.00">MATH101</text>
</g>
<!-- PHYS130 -->
<g id="node22" class="node">
<title>PHYS130</title>
<path fill="#34af8a" stroke="#030a10" d="M502,-301C502,-301 460,-301 460,-301 457,-301 454,-298 454,-295 454,-295 454,-289 454,-289 454,-286 457,-283 460,-283 460,-283 502,-283 502,-283 505,-283 508,-286 508,-289 508,-289 508,-295 508,-295 508,-298 505,-301 502,-301"/>
<text text-anchor="middle" x="481" y="-289.8" font-family="Times,serif" font-size="9.00">PHYS130</text>
</g>
<!-- MATH101&#45;&gt;PHYS130 -->
<g id="edge27" class="edge">
<title>MATH101&#45;&gt;PHYS130</title>
<path fill="none" stroke="black" d="M418.19,-298.95C427.85,-297.86 438.81,-296.63 448.78,-295.51"/>
<polygon fill="black" stroke="black" points="449.12,-297.23 453.89,-294.93 448.73,-293.75 449.12,-297.23"/>
</g>
<!-- PHYS110 -->
<g id="node9" class="node">
<title>PHYS110</title>
<path fill="#82a931" stroke="#030a10" d="M411,-240C411,-240 369,-240 369,-240 366,-240 363,-237 363,-234 363,-234 363,-228 363,-228 363,-225 366,-222 369,-222 369,-222 411,-222 411,-222 414,-222 417,-225 417,-228 417,-228 417,-234 417,-234 417,-237 414,-240 411,-240"/>
<text text-anchor="middle" x="390" y="-228.8" font-family="Times,serif" font-size="9.00">PHYS110</text>
</g>
<!-- PHYS111 -->
<g id="node16" class="node">
<title>PHYS111</title>
<path fill="#34af8a" stroke="#030a10" d="M502,-236C502,-236 460,-236 460,-236 457,-236 454,-233 454,-230 454,-230 454,-224 454,-224 454,-221 457,-218 460,-218 460,-218 502,-218 502,-218 505,-218 508,-221 508,-224 508,-224 508,-230 508,-230 508,-233 505,-236 502,-236"/>
<text text-anchor="middle" x="481" y="-224.8" font-family="Times,serif" font-size="9.00">PHYS111</text>
</g>
<!-- PHYS110&#45;&gt;PHYS111 -->
<g id="edge28" class="edge">
<title>PHYS110&#45;&gt;PHYS111</title>
<path fill="none" stroke="black" d="M417.22,-229.82C427.09,-229.38 438.41,-228.87 448.69,-228.41"/>
<polygon fill="black" stroke="black" points="449.05,-230.14 453.97,-228.17 448.89,-226.65 449.05,-230.14"/>
</g>
<!-- 1 of [&#39;PHYS102A&#39;, &#39;PHYS110&#39;, &#39;PHYS120&#39;] -->
<g id="node26" class="node">
<title>1 of [&#39;PHYS102A&#39;, &#39;PHYS110&#39;, &#39;PHYS120&#39;]</title>
<ellipse fill="#dfe6e9" stroke="#030a10" cx="481" cy="-254" rx="11" ry="11"/>
<text text-anchor="middle" x="481" y="-250.9" font-family="Times,serif" font-size="12.00">1</text>
</g>
<!-- PHYS110&#45;&gt;1 of [&#39;PHYS102A&#39;, &#39;PHYS110&#39;, &#39;PHYS120&#39;] -->
<g id="edge12" class="edge">
<title>PHYS110&#45;&gt;1 of [&#39;PHYS102A&#39;, &#39;PHYS110&#39;, &#39;PHYS120&#39;]</title>
<path fill="none" stroke="black" d="M417.22,-237.78C432.79,-241.8 451.98,-246.76 465.01,-250.13"/>
<polygon fill="black" stroke="black" points="464.58,-251.82 469.86,-251.38 465.45,-248.43 464.58,-251.82"/>
</g>
<!-- EOS202 -->
<g id="node10" class="node">
<title>EOS202</title>
<path fill="#37aabb" stroke="#030a10" d="M502,-141C502,-141 460,-141 460,-141 457,-141 454,-138 454,-135 454,-135 454,-129 454,-129 454,-126 457,-123 460,-123 460,-123 502,-123 502,-123 505,-123 508,-126 508,-129 508,-129 508,-135 508,-135 508,-138 505,-141 502,-141"/>
<text text-anchor="middle" x="481" y="-129.8" font-family="Times,serif" font-size="9.00">EOS202</text>
</g>
<!-- EOS240 -->
<g id="node11" class="node">
<title>EOS240</title>
<path fill="#37aabb" stroke="#030a10" d="M595,-196C595,-196 553,-196 553,-196 550,-196 547,-193 547,-190 547,-190 547,-184 547,-184 547,-181 550,-178 553,-178 553,-178 595,-178 595,-178 598,-178 601,-181 601,-184 601,-184 601,-190 601,-190 601,-193 598,-196 595,-196"/>
<text text-anchor="middle" x="574" y="-184.8" font-family="Times,serif" font-size="9.00">EOS240</text>
</g>
<!-- EOS205 -->
<g id="node12" class="node">
<title>EOS205</title>
<path fill="#9fa7be" stroke="#030a10" d="M502,-196C502,-196 460,-196 460,-196 457,-196 454,-193 454,-190 454,-190 454,-184 454,-184 454,-181 457,-178 460,-178 460,-178 502,-178 502,-178 505,-178 508,-181 508,-184 508,-184 508,-190 508,-190 508,-193 505,-196 502,-196"/>
<text text-anchor="middle" x="481" y="-184.8" font-family="Times,serif" font-size="9.00">EOS205</text>
</g>
<!-- EOS205&#45;&gt;EOS240 -->
<g id="edge31" class="edge">
<title>EOS205&#45;&gt;EOS240</title>
<path fill="none" stroke="black" d="M508.32,-187C518.7,-187 530.7,-187 541.53,-187"/>
<polygon fill="black" stroke="black" points="541.74,-188.75 546.74,-187 541.74,-185.25 541.74,-188.75"/>
</g>
<!-- EOS201 -->
<g id="node20" class="node">
<title>EOS201</title>
<path fill="#37aabb" stroke="#030a10" d="M595,-166C595,-166 553,-166 553,-166 550,-166 547,-163 547,-160 547,-160 547,-154 547,-154 547,-151 550,-148 553,-148 553,-148 595,-148 595,-148 598,-148 601,-151 601,-154 601,-154 601,-160 601,-160 601,-163 598,-166 595,-166"/>
<text text-anchor="middle" x="574" y="-154.8" font-family="Times,serif" font-size="9.00">EOS201</text>
</g>
<!-- EOS205&#45;&gt;EOS201 -->
<g id="edge2" class="edge">
<title>EOS205&#45;&gt;EOS201</title>
<path fill="none" stroke="black" d="M508.32,-178.32C518.79,-174.87 530.92,-170.87 541.82,-167.28"/>
<polygon fill="black" stroke="black" points="542.54,-168.89 546.74,-165.66 541.44,-165.56 542.54,-168.89"/>
</g>
<!-- MATH109 -->
<g id="node13" class="node">
<title>MATH109</title>
<path fill="#c69432" stroke="#030a10" d="M246,-261C246,-261 202,-261 202,-261 199,-261 196,-258 196,-255 196,-255 196,-249 196,-249 196,-246 199,-243 202,-243 202,-243 246,-243 246,-243 249,-243 252,-246 252,-249 252,-249 252,-255 252,-255 252,-258 249,-261 246,-261"/>
<text text-anchor="middle" x="224" y="-249.8" font-family="Times,serif" font-size="9.00">MATH109</text>
</g>
<!-- 1 of [&#39;MATH100&#39;, &#39;MATH109&#39;] -->
<g id="node23" class="node">
<title>1 of [&#39;MATH100&#39;, &#39;MATH109&#39;]</title>
<ellipse fill="#dfe6e9" stroke="#030a10" cx="307" cy="-277" rx="11" ry="11"/>
<text text-anchor="middle" x="307" y="-273.9" font-family="Times,serif" font-size="12.00">1</text>
</g>
<!-- MATH109&#45;&gt;1 of [&#39;MATH100&#39;, &#39;MATH109&#39;] -->
<g id="edge5" class="edge">
<title>MATH109&#45;&gt;1 of [&#39;MATH100&#39;, &#39;MATH109&#39;]</title>
<path fill="none" stroke="black" d="M252.42,-260.46C265.36,-264.46 280.29,-269.07 291.1,-272.4"/>
<polygon fill="black" stroke="black" points="290.75,-274.13 296.05,-273.93 291.79,-270.78 290.75,-274.13"/>
</g>
<!-- 1 of [&#39;MATH100&#39;, &#39;MATH102&#39;, &#39;MATH109&#39;] -->
<g id="node24" class="node">
<title>1 of [&#39;MATH100&#39;, &#39;MATH102&#39;, &#39;MATH109&#39;]</title>
<ellipse fill="#dfe6e9" stroke="#030a10" cx="307" cy="-230" rx="11" ry="11"/>
<text text-anchor="middle" x="307" y="-226.9" font-family="Times,serif" font-size="12.00">1</text>
</g>
<!-- MATH109&#45;&gt;1 of [&#39;MATH100&#39;, &#39;MATH102&#39;, &#39;MATH109&#39;] -->
<g id="edge9" class="edge">
<title>MATH109&#45;&gt;1 of [&#39;MATH100&#39;, &#39;MATH102&#39;, &#39;MATH109&#39;]</title>
<path fill="none" stroke="black" d="M252.42,-244.55C265.36,-241.04 280.29,-236.98 291.1,-234.05"/>
<polygon fill="black" stroke="black" points="291.68,-235.7 296.05,-232.7 290.76,-232.32 291.68,-235.7"/>
</g>
<!-- PHYS102B -->
<g id="node14" class="node">
<title>PHYS102B</title>
<path fill="#34af8a" stroke="#030a10" d="M598,-263C598,-263 550,-263 550,-263 547,-263 544,-260 544,-257 544,-257 544,-251 544,-251 544,-248 547,-245 550,-245 550,-245 598,-245 598,-245 601,-245 604,-248 604,-251 604,-251 604,-257 604,-257 604,-260 601,-263 598,-263"/>
<text text-anchor="middle" x="574" y="-251.8" font-family="Times,serif" font-size="9.00">PHYS102B</text>
</g>
<!-- MATH100 -->
<g id="node15" class="node">
<title>MATH100</title>
<path fill="#c69432" stroke="#030a10" d="M246,-286C246,-286 202,-286 202,-286 199,-286 196,-283 196,-280 196,-280 196,-274 196,-274 196,-271 199,-268 202,-268 202,-268 246,-268 246,-268 249,-268 252,-271 252,-274 252,-274 252,-280 252,-280 252,-283 249,-286 246,-286"/>
<text text-anchor="middle" x="224" y="-274.8" font-family="Times,serif" font-size="9.00">MATH100</text>
</g>
<!-- MATH100&#45;&gt;1 of [&#39;MATH100&#39;, &#39;MATH109&#39;] -->
<g id="edge4" class="edge">
<title>MATH100&#45;&gt;1 of [&#39;MATH100&#39;, &#39;MATH109&#39;]</title>
<path fill="none" stroke="black" d="M252.42,-277C265.09,-277 279.66,-277 290.41,-277"/>
<polygon fill="black" stroke="black" points="290.65,-278.75 295.65,-277 290.65,-275.25 290.65,-278.75"/>
</g>
<!-- MATH100&#45;&gt;1 of [&#39;MATH100&#39;, &#39;MATH102&#39;, &#39;MATH109&#39;] -->
<g id="edge7" class="edge">
<title>MATH100&#45;&gt;1 of [&#39;MATH100&#39;, &#39;MATH102&#39;, &#39;MATH109&#39;]</title>
<path fill="none" stroke="black" d="M244.6,-267.89C247.11,-266.62 249.63,-265.31 252,-264 266.42,-256.02 282.31,-245.84 293.1,-238.7"/>
<polygon fill="black" stroke="black" points="294.2,-240.07 297.39,-235.85 292.26,-237.16 294.2,-240.07"/>
</g>
<!-- EOS120 -->
<g id="node17" class="node">
<title>EOS120</title>
<path fill="#9fa7be" stroke="#030a10" d="M411,-168C411,-168 369,-168 369,-168 366,-168 363,-165 363,-162 363,-162 363,-156 363,-156 363,-153 366,-150 369,-150 369,-150 411,-150 411,-150 414,-150 417,-153 417,-156 417,-156 417,-162 417,-162 417,-165 414,-168 411,-168"/>
<text text-anchor="middle" x="390" y="-156.8" font-family="Times,serif" font-size="9.00">EOS120</text>
</g>
<!-- EOS120&#45;&gt;EOS202 -->
<g id="edge24" class="edge">
<title>EOS120&#45;&gt;EOS202</title>
<path fill="none" stroke="black" d="M417.22,-151.05C427.18,-148.02 438.62,-144.55 448.98,-141.41"/>
<polygon fill="black" stroke="black" points="449.69,-143.02 453.97,-139.9 448.67,-139.67 449.69,-143.02"/>
</g>
<!-- EOS120&#45;&gt;EOS240 -->
<g id="edge30" class="edge">
<title>EOS120&#45;&gt;EOS240</title>
<path fill="none" stroke="black" d="M417.07,-162.21C440.82,-165.22 476.83,-169.99 508,-175 519,-176.77 531.01,-178.92 541.68,-180.91"/>
<polygon fill="black" stroke="black" points="541.56,-182.67 546.8,-181.87 542.21,-179.23 541.56,-182.67"/>
</g>
<!-- EOS120&#45;&gt;EOS205 -->
<g id="edge22" class="edge">
<title>EOS120&#45;&gt;EOS205</title>
<path fill="none" stroke="black" d="M417.22,-167.25C427.18,-170.38 438.62,-173.98 448.98,-177.24"/>
<polygon fill="black" stroke="black" points="448.67,-178.98 453.97,-178.81 449.72,-175.64 448.67,-178.98"/>
</g>
<!-- EOS120&#45;&gt;EOS201 -->
<g id="edge1" class="edge">
<title>EOS120&#45;&gt;EOS201</title>
<path fill="none" stroke="black" d="M417.08,-158.71C450.05,-158.35 506.76,-157.73 541.94,-157.34"/>
<polygon fill="black" stroke="black" points="541.99,-159.09 546.97,-157.29 541.95,-155.59 541.99,-159.09"/>
</g>
<!-- CHEM102 -->
<g id="node18" class="node">
<title>CHEM102</title>
<path fill="#9fa7be" stroke="#030a10" d="M412,-200C412,-200 368,-200 368,-200 365,-200 362,-197 362,-194 362,-194 362,-188 362,-188 362,-185 365,-182 368,-182 368,-182 412,-182 412,-182 415,-182 418,-185 418,-188 418,-188 418,-194 418,-194 418,-197 415,-200 412,-200"/>
<text text-anchor="middle" x="390" y="-188.8" font-family="Times,serif" font-size="9.00">CHEM102</text>
</g>
<!-- CHEM102&#45;&gt;EOS240 -->
<g id="edge32" class="edge">
<title>CHEM102&#45;&gt;EOS240</title>
<path fill="none" stroke="black" d="M418.22,-195.22C429.29,-196.74 442.23,-198.26 454,-199 477.95,-200.51 484.1,-201.19 508,-199 519.1,-197.98 531.13,-196.01 541.79,-193.96"/>
<polygon fill="black" stroke="black" points="542.34,-195.63 546.9,-192.94 541.66,-192.2 542.34,-195.63"/>
</g>
<!-- CHEM102&#45;&gt;EOS205 -->
<g id="edge23" class="edge">
<title>CHEM102&#45;&gt;EOS205</title>
<path fill="none" stroke="black" d="M418.19,-189.78C427.85,-189.34 438.81,-188.85 448.78,-188.4"/>
<polygon fill="black" stroke="black" points="448.98,-190.15 453.89,-188.17 448.82,-186.65 448.98,-190.15"/>
</g>
<!-- PHYS120 -->
<g id="node19" class="node">
<title>PHYS120</title>
<path fill="#82a931" stroke="#030a10" d="M411,-286C411,-286 369,-286 369,-286 366,-286 363,-283 363,-280 363,-280 363,-274 363,-274 363,-271 366,-268 369,-268 369,-268 411,-268 411,-268 414,-268 417,-271 417,-274 417,-274 417,-280 417,-280 417,-283 414,-286 411,-286"/>
<text text-anchor="middle" x="390" y="-274.8" font-family="Times,serif" font-size="9.00">PHYS120</text>
</g>
<!-- PHYS120&#45;&gt;PHYS130 -->
<g id="edge26" class="edge">
<title>PHYS120&#45;&gt;PHYS130</title>
<path fill="none" stroke="black" d="M417.22,-281.42C427.18,-283.1 438.62,-285.03 448.98,-286.77"/>
<polygon fill="black" stroke="black" points="448.74,-288.51 453.97,-287.61 449.33,-285.06 448.74,-288.51"/>
</g>
<!-- PHYS120&#45;&gt;1 of [&#39;PHYS102A&#39;, &#39;PHYS110&#39;, &#39;PHYS120&#39;] -->
<g id="edge13" class="edge">
<title>PHYS120&#45;&gt;1 of [&#39;PHYS102A&#39;, &#39;PHYS110&#39;, &#39;PHYS120&#39;]</title>
<path fill="none" stroke="black" d="M417.22,-270.22C432.79,-266.2 451.98,-261.24 465.01,-257.87"/>
<polygon fill="black" stroke="black" points="465.45,-259.57 469.86,-256.62 464.58,-256.18 465.45,-259.57"/>
</g>
<!-- CHEM101 -->
<g id="node21" class="node">
<title>CHEM101</title>
<path fill="#f77189" stroke="#030a10" d="M246,-194C246,-194 202,-194 202,-194 199,-194 196,-191 196,-188 196,-188 196,-182 196,-182 196,-179 199,-176 202,-176 202,-176 246,-176 246,-176 249,-176 252,-179 252,-182 252,-182 252,-188 252,-188 252,-191 249,-194 246,-194"/>
<text text-anchor="middle" x="224" y="-182.8" font-family="Times,serif" font-size="9.00">CHEM101</text>
</g>
<!-- 1 of [&#39;CHEM101&#39;, &#39;CHEM150&#39;] -->
<g id="node30" class="node">
<title>1 of [&#39;CHEM101&#39;, &#39;CHEM150&#39;]</title>
<ellipse fill="#dfe6e9" stroke="#030a10" cx="307" cy="-195" rx="11" ry="11"/>
<text text-anchor="middle" x="307" y="-191.9" font-family="Times,serif" font-size="12.00">1</text>
</g>
<!-- CHEM101&#45;&gt;1 of [&#39;CHEM101&#39;, &#39;CHEM150&#39;] -->
<g id="edge18" class="edge">
<title>CHEM101&#45;&gt;1 of [&#39;CHEM101&#39;, &#39;CHEM150&#39;]</title>
<path fill="none" stroke="black" d="M252.42,-188.39C265.24,-189.97 280.02,-191.79 290.8,-193.12"/>
<polygon fill="black" stroke="black" points="290.87,-194.9 296.05,-193.77 291.3,-191.42 290.87,-194.9"/>
</g>
<!-- 1 of [&#39;MATH100&#39;, &#39;MATH109&#39;]&#45;&gt;MATH101 -->
<g id="edge3" class="edge">
<title>1 of [&#39;MATH100&#39;, &#39;MATH109&#39;]&#45;&gt;MATH101</title>
<path fill="none" stroke="black" d="M317.61,-279.97C327.24,-282.94 342.6,-287.68 356.62,-292.01"/>
<polygon fill="black" stroke="black" points="356.41,-293.77 361.71,-293.58 357.44,-290.43 356.41,-293.77"/>
</g>
<!-- 1 of [&#39;MATH100&#39;, &#39;MATH109&#39;]&#45;&gt;PHYS120 -->
<g id="edge21" class="edge">
<title>1 of [&#39;MATH100&#39;, &#39;MATH109&#39;]&#45;&gt;PHYS120</title>
<path fill="none" stroke="black" d="M318.26,-277C328.19,-277 343.76,-277 357.77,-277"/>
<polygon fill="black" stroke="black" points="357.85,-278.75 362.85,-277 357.85,-275.25 357.85,-278.75"/>
</g>
<!-- 1 of [&#39;MATH100&#39;, &#39;MATH102&#39;, &#39;MATH109&#39;]&#45;&gt;PHYS110 -->
<g id="edge6" class="edge">
<title>1 of [&#39;MATH100&#39;, &#39;MATH102&#39;, &#39;MATH109&#39;]&#45;&gt;PHYS110</title>
<path fill="none" stroke="black" d="M318.26,-230.13C328.19,-230.25 343.76,-230.44 357.77,-230.61"/>
<polygon fill="black" stroke="black" points="357.83,-232.37 362.85,-230.68 357.87,-228.87 357.83,-232.37"/>
</g>
<!-- 1 of [&#39;MATH100&#39;, &#39;MATH102&#39;, &#39;MATH109&#39;]&#45;&gt;PHYS111 -->
<g id="edge29" class="edge">
<title>1 of [&#39;MATH100&#39;, &#39;MATH102&#39;, &#39;MATH109&#39;]&#45;&gt;PHYS111</title>
<path fill="none" stroke="black" d="M317.86,-227.37C328.62,-224.65 346.39,-220.57 362,-219 391.25,-216.05 424.69,-218.9 448.49,-221.99"/>
<polygon fill="black" stroke="black" points="448.52,-223.76 453.71,-222.69 448.99,-220.29 448.52,-223.76"/>
</g>
<!-- 1 of [&#39;MATH100&#39;, &#39;MATH102&#39;, &#39;MATH109&#39;]&#45;&gt;CHEM102 -->
<g id="edge15" class="edge">
<title>1 of [&#39;MATH100&#39;, &#39;MATH102&#39;, &#39;MATH109&#39;]&#45;&gt;CHEM102</title>
<path fill="none" stroke="black" d="M317.29,-225.53C328.89,-219.94 349.16,-210.18 365.19,-202.46"/>
<polygon fill="black" stroke="black" points="366.27,-203.89 370.02,-200.14 364.75,-200.73 366.27,-203.89"/>
</g>
<!-- MATH102 -->
<g id="node25" class="node">
<title>MATH102</title>
<path fill="white" stroke="#030a10" stroke-opacity="0.125490" d="M238.33,-236C238.33,-236 209.67,-236 209.67,-236 207.33,-236 205,-233.67 205,-231.33 205,-231.33 205,-226.67 205,-226.67 205,-224.33 207.33,-222 209.67,-222 209.67,-222 238.33,-222 238.33,-222 240.67,-222 243,-224.33 243,-226.67 243,-226.67 243,-231.33 243,-231.33 243,-233.67 240.67,-236 238.33,-236"/>
<text text-anchor="middle" x="224" y="-228" font-family="Times,serif" font-size="5.00">MATH102</text>
</g>
<!-- MATH102&#45;&gt;1 of [&#39;MATH100&#39;, &#39;MATH102&#39;, &#39;MATH109&#39;] -->
<g id="edge8" class="edge">
<title>MATH102&#45;&gt;1 of [&#39;MATH100&#39;, &#39;MATH102&#39;, &#39;MATH109&#39;]</title>
<path fill="none" stroke="black" d="M243.38,-229.23C257.59,-229.4 277.05,-229.64 290.48,-229.81"/>
<polygon fill="black" stroke="black" points="290.82,-231.56 295.84,-229.87 290.86,-228.06 290.82,-231.56"/>
</g>
<!-- 1 of [&#39;PHYS102A&#39;, &#39;PHYS110&#39;, &#39;PHYS120&#39;]&#45;&gt;PHYS102B -->
<g id="edge10" class="edge">
<title>1 of [&#39;PHYS102A&#39;, &#39;PHYS110&#39;, &#39;PHYS120&#39;]&#45;&gt;PHYS102B</title>
<path fill="none" stroke="black" d="M492.09,-254C503.33,-254 522.11,-254 538.75,-254"/>
<polygon fill="black" stroke="black" points="538.84,-255.75 543.84,-254 538.84,-252.25 538.84,-255.75"/>
</g>
<!-- PHYS102A -->
<g id="node27" class="node">
<title>PHYS102A</title>
<path fill="white" stroke="#030a10" stroke-opacity="0.125490" d="M405.83,-261C405.83,-261 374.17,-261 374.17,-261 371.83,-261 369.5,-258.67 369.5,-256.33 369.5,-256.33 369.5,-251.67 369.5,-251.67 369.5,-249.33 371.83,-247 374.17,-247 374.17,-247 405.83,-247 405.83,-247 408.17,-247 410.5,-249.33 410.5,-251.67 410.5,-251.67 410.5,-256.33 410.5,-256.33 410.5,-258.67 408.17,-261 405.83,-261"/>
<text text-anchor="middle" x="390" y="-253" font-family="Times,serif" font-size="5.00">PHYS102A</text>
</g>
<!-- PHYS102A&#45;&gt;1 of [&#39;PHYS102A&#39;, &#39;PHYS110&#39;, &#39;PHYS120&#39;] -->
<g id="edge11" class="edge">
<title>PHYS102A&#45;&gt;1 of [&#39;PHYS102A&#39;, &#39;PHYS110&#39;, &#39;PHYS120&#39;]</title>
<path fill="none" stroke="black" d="M410.75,-254C426.99,-254 449.67,-254 464.59,-254"/>
<polygon fill="black" stroke="black" points="464.71,-255.75 469.71,-254 464.71,-252.25 464.71,-255.75"/>
</g>
<!-- MATH120 -->
<g id="node28" class="node">
<title>MATH120</title>
<path fill="white" stroke="#030a10" stroke-opacity="0.125490" d="M102.33,-259C102.33,-259 73.67,-259 73.67,-259 71.33,-259 69,-256.67 69,-254.33 69,-254.33 69,-249.67 69,-249.67 69,-247.33 71.33,-245 73.67,-245 73.67,-245 102.33,-245 102.33,-245 104.67,-245 107,-247.33 107,-249.67 107,-249.67 107,-254.33 107,-254.33 107,-256.67 104.67,-259 102.33,-259"/>
<text text-anchor="middle" x="88" y="-251" font-family="Times,serif" font-size="5.00">MATH120</text>
</g>
<!-- MATH120&#45;&gt;MATH109 -->
<g id="edge20" class="edge">
<title>MATH120&#45;&gt;MATH109</title>
<path fill="none" stroke="black" d="M107.07,-252C128.5,-252 164.62,-252 190.86,-252"/>
<polygon fill="black" stroke="black" points="190.96,-253.75 195.96,-252 190.96,-250.25 190.96,-253.75"/>
</g>
<!-- MATH120&#45;&gt;MATH100 -->
<g id="edge14" class="edge">
<title>MATH120&#45;&gt;MATH100</title>
<path fill="none" stroke="black" d="M107.07,-255.37C128.5,-259.37 164.62,-266.11 190.86,-271"/>
<polygon fill="black" stroke="black" points="190.73,-272.76 195.96,-271.96 191.37,-269.32 190.73,-272.76"/>
</g>
<!-- MATH120&#45;&gt;CHEM101 -->
<g id="edge25" class="edge">
<title>MATH120&#45;&gt;CHEM101</title>
<path fill="none" stroke="black" d="M107.03,-252.61C124.03,-252.36 149.56,-249.76 168,-238 186.3,-226.33 179.46,-212.05 196,-198 196.42,-197.65 196.84,-197.3 197.28,-196.96"/>
<polygon fill="black" stroke="black" points="198.31,-198.38 201.43,-194.1 196.32,-195.5 198.31,-198.38"/>
</g>
<!-- CHEM091 -->
<g id="node29" class="node">
<title>CHEM091</title>
<path fill="white" stroke="#030a10" stroke-opacity="0.125490" d="M321.33,-177C321.33,-177 292.67,-177 292.67,-177 290.33,-177 288,-174.67 288,-172.33 288,-172.33 288,-167.67 288,-167.67 288,-165.33 290.33,-163 292.67,-163 292.67,-163 321.33,-163 321.33,-163 323.67,-163 326,-165.33 326,-167.67 326,-167.67 326,-172.33 326,-172.33 326,-174.67 323.67,-177 321.33,-177"/>
<text text-anchor="middle" x="307" y="-169" font-family="Times,serif" font-size="5.00">CHEM091</text>
</g>
<!-- CHEM091&#45;&gt;CHEM102 -->
<g id="edge16" class="edge">
<title>CHEM091&#45;&gt;CHEM102</title>
<path fill="none" stroke="black" d="M326.38,-174.77C335.37,-177.09 346.45,-179.97 356.78,-182.65"/>
<polygon fill="black" stroke="black" points="356.5,-184.38 361.77,-183.94 357.37,-180.99 356.5,-184.38"/>
</g>
<!-- 1 of [&#39;CHEM101&#39;, &#39;CHEM150&#39;]&#45;&gt;CHEM102 -->
<g id="edge17" class="edge">
<title>1 of [&#39;CHEM101&#39;, &#39;CHEM150&#39;]&#45;&gt;CHEM102</title>
<path fill="none" stroke="black" d="M318.26,-194.49C327.96,-194.01 343.05,-193.27 356.81,-192.59"/>
<polygon fill="black" stroke="black" points="356.9,-194.34 361.8,-192.34 356.72,-190.84 356.9,-194.34"/>
</g>
<!-- CHEM150 -->
<g id="node31" class="node">
<title>CHEM150</title>
<path fill="white" stroke="#030a10" stroke-opacity="0.125490" d="M238.33,-215C238.33,-215 209.67,-215 209.67,-215 207.33,-215 205,-212.67 205,-210.33 205,-210.33 205,-205.67 205,-205.67 205,-203.33 207.33,-201 209.67,-201 209.67,-201 238.33,-201 238.33,-201 240.67,-201 243,-203.33 243,-205.67 243,-205.67 243,-210.33 243,-210.33 243,-212.67 240.67,-215 238.33,-215"/>
<text text-anchor="middle" x="224" y="-207" font-family="Times,serif" font-size="5.00">CHEM150</text>
</g>
<!-- CHEM150&#45;&gt;1 of [&#39;CHEM101&#39;, &#39;CHEM150&#39;] -->
<g id="edge19" class="edge">
<title>CHEM150&#45;&gt;1 of [&#39;CHEM101&#39;, &#39;CHEM150&#39;]</title>
<path fill="none" stroke="black" d="M243.38,-205.05C257.72,-202.75 277.4,-199.59 290.84,-197.43"/>
<polygon fill="black" stroke="black" points="291.18,-199.15 295.84,-196.63 290.63,-195.69 291.18,-199.15"/>
</g>
</g>
</svg>
