<?xml version="1.0" encoding="UTF-8" standalone="no"?>
<!DOCTYPE svg PUBLIC "-//W3C//DTD SVG 1.1//EN"
 "http://www.w3.org/Graphics/SVG/1.1/DTD/svg11.dtd">
<!-- Generated by graphviz version 2.43.0 (0)
 -->
<!-- Title: BIOC300A Pages: 1 -->
<svg width="539pt" height="135pt"
 viewBox="0.00 0.00 539.20 135.20" xmlns="http://www.w3.org/2000/svg" xmlns:xlink="http://www.w3.org/1999/xlink">
<g id="graph0" class="graph" transform="scale(1 1) rotate(0) translate(21.6 113.6)">
<title>BIOC300A</title>
<!-- course__CHEM231 -->
<g id="node1" class="node">
<title>course__CHEM231</title>
<g id="a_node1"><a xlink:href="../../../courses/CHEM231.html" xlink:title="CHEM231: Introduction to Organic Chemistry" target="_top">
<path fill="#ead9b8" stroke="#1b2730" stroke-width="1.6" d="M52,-92C52,-92 12,-92 12,-92 6,-92 0,-86 0,-80 0,-80 0,-68 0,-68 0,-62 6,-56 12,-56 12,-56 52,-56 52,-56 58,-56 64,-62 64,-68 64,-68 64,-80 64,-80 64,-86 58,-92 52,-92"/>
<text text-anchor="middle" x="32" y="-71.5" font-family="Avenir Next" font-size="10.00" fill="#17232b">CHEM231</text>
</a>
</g>
</g>
<!-- course__CHEM234 -->
<g id="node3" class="node">
<title>course__CHEM234</title>
<g id="a_node3"><a xlink:href="../../../courses/CHEM234.html" xlink:title="CHEM234: Organic Chemistry with Biological Applications" target="_top">
<path fill="#ead9b8" stroke="#1b2730" stroke-width="1.6" d="M177,-92C177,-92 137,-92 137,-92 131,-92 125,-86 125,-80 125,-80 125,-68 125,-68 125,-62 131,-56 137,-56 137,-56 177,-56 177,-56 183,-56 189,-62 189,-68 189,-68 189,-80 189,-80 189,-86 183,-92 177,-92"/>
<text text-anchor="middle" x="157" y="-71.5" font-family="Avenir Next" font-size="10.00" fill="#17232b">CHEM234</text>
</a>
</g>
</g>
<!-- course__CHEM231&#45;&gt;course__CHEM234 -->
<g id="edge4" class="edge">
<title>course__CHEM231&#45;&gt;course__CHEM234</title>
<path fill="none" stroke="#5d6972" stroke-width="1.2" d="M64.04,-74C80.35,-74 100.49,-74 117.77,-74"/>
<polygon fill="#5d6972" stroke="#5d6972" stroke-width="1.2" points="117.97,-76.45 124.97,-74 117.97,-71.55 117.97,-76.45"/>
</g>
<!-- course__BIOL225 -->
<g id="node2" class="node">
<title>course__BIOL225</title>
<g id="a_node2"><a xlink:href="../../../courses/BIOL225.html" xlink:title="BIOL225: Principles of Cell Biology" target="_top">
<path fill="#dbe8d2" stroke="#1b2730" stroke-width="1.6" d="M173.5,-36C173.5,-36 140.5,-36 140.5,-36 134.5,-36 128.5,-30 128.5,-24 128.5,-24 128.5,-12 128.5,-12 128.5,-6 134.5,0 140.5,0 140.5,0 173.5,0 173.5,0 179.5,0 185.5,-6 185.5,-12 185.5,-12 185.5,-24 185.5,-24 185.5,-30 179.5,-36 173.5,-36"/>
<text text-anchor="middle" x="157" y="-15.5" font-family="Avenir Next" font-size="10.00" fill="#17232b">BIOL225</text>
</a>
</g>
</g>
<!-- course__BIOC300A -->
<g id="node4" class="node">
<title>course__BIOC300A</title>
<g id="a_node4"><a xlink:href="../../../courses/BIOC300A.html" xlink:title="BIOC300A: General Biochemistry I" target="_top">
<path fill="#e2e8d5" stroke="#1f4f66" stroke-width="2" d="M366,-64C366,-64 262,-64 262,-64 256,-64 250,-58 250,-52 250,-52 250,-40 250,-40 250,-34 256,-28 262,-28 262,-28 366,-28 366,-28 372,-28 378,-34 378,-40 378,-40 378,-52 378,-52 378,-58 372,-64 366,-64"/>
<text text-anchor="middle" x="314" y="-49" font-family="Avenir Next" font-size="10.00" fill="#17232b">BIOC300A</text>
<text text-anchor="middle" x="314" y="-38" font-family="Avenir Next" font-size="10.00" fill="#17232b">General Biochemistry I</text>
</a>
</g>
</g>
<!-- course__BIOL225&#45;&gt;course__BIOC300A -->
<g id="edge1" class="edge">
<title>course__BIOL225&#45;&gt;course__BIOC300A</title>
<path fill="none" stroke="#5d6972" stroke-width="1.2" d="M185.71,-23.01C201.68,-25.89 222.54,-29.66 242.73,-33.31"/>
<polygon fill="#5d6972" stroke="#5d6972" stroke-width="1.2" points="242.52,-35.76 249.84,-34.59 243.39,-30.94 242.52,-35.76"/>
</g>
<!-- course__CHEM234&#45;&gt;course__BIOC300A -->
<g id="edge2" class="edge">
<title>course__CHEM234&#45;&gt;course__BIOC300A</title>
<path fill="none" stroke="#5d6972" stroke-width="1.2" d="M189.37,-68.33C204.89,-65.53 224.29,-62.03 243.09,-58.63"/>
<polygon fill="#5d6972" stroke="#5d6972" stroke-width="1.2" points="243.53,-61.04 249.98,-57.38 242.66,-56.22 243.53,-61.04"/>
</g>
<!-- course__BIOL435 -->
<g id="node5" class="node">
<title>course__BIOL435</title>
<g id="a_node5"><a xlink:href="../../../courses/BIOL435.html" xlink:title="BIOL435: Molecular Evolution" target="_top">
<path fill="#dbe8d2" stroke="#1b2730" stroke-width="1.6" d="M484,-64C484,-64 451,-64 451,-64 445,-64 439,-58 439,-52 439,-52 439,-40 439,-40 439,-34 445,-28 451,-28 451,-28 484,-28 484,-28 490,-28 496,-34 496,-40 496,-40 496,-52 496,-52 496,-58 490,-64 484,-64"/>
<text text-anchor="middle" x="467.5" y="-43.5" font-family="Avenir Next" font-size="10.00" fill="#17232b">BIOL435</text>
</a>
</g>
</g>
<!-- course__BIOC300A&#45;&gt;course__BIOL435 -->
<g id="edge3" class="edge">
<title>course__BIOC300A&#45;&gt;course__BIOL435</title>
<path fill="none" stroke="#5d6972" stroke-width="1.2" d="M378.37,-46C396.65,-46 415.92,-46 431.77,-46"/>
<polygon fill="#5d6972" stroke="#5d6972" stroke-width="1.2" points="431.79,-48.45 438.79,-46 431.79,-43.55 431.79,-48.45"/>
</g>
</g>
</svg>
