<?xml version="1.0" encoding="UTF-8" standalone="no"?>
<!DOCTYPE svg PUBLIC "-//W3C//DTD SVG 1.1//EN"
 "http://www.w3.org/Graphics/SVG/1.1/DTD/svg11.dtd">
<!-- Generated by graphviz version 2.43.0 (0)
 -->
<!-- Title: BIOC300A Pages: 1 -->
<svg width="952pt" height="344pt"
 viewBox="0.00 0.00 952.20 343.58" xmlns="http://www.w3.org/2000/svg" xmlns:xlink="http://www.w3.org/1999/xlink">
<g id="graph0" class="graph" transform="scale(1 1) rotate(0) translate(21.6 321.98)">
<title>BIOC300A</title>
<!-- course__BIOL150A -->
<g id="node1" class="node">
<title>course__BIOL150A</title>
<g id="a_node1"><a xlink:href="../../../courses/BIOL150A.html" xlink:title="BIOL150A: Modern Biology" target="_top">
<path fill="#dbe8d2" stroke="#7e8d96" d="M50,-218C50,-218 12,-218 12,-218 6,-218 0,-212 0,-206 0,-206 0,-194 0,-194 0,-188 6,-182 12,-182 12,-182 50,-182 50,-182 56,-182 62,-188 62,-194 62,-194 62,-206 62,-206 62,-212 56,-218 50,-218"/>
<text text-anchor="middle" x="31" y="-197.8" font-family="Avenir Next" font-size="9.00" fill="#41515b">BIOL150A</text>
</a>
</g>
</g>
<!-- choice_BIOL184_0_0 -->
<g id="node13" class="node">
<title>choice_BIOL184_0_0</title>
<path fill="#fff7ee" stroke="#b7793f" stroke-width="1.1" d="M460,-225C460,-225 430,-225 430,-225 424,-225 418,-219 418,-213 418,-213 418,-201 418,-201 418,-195 424,-189 430,-189 430,-189 460,-189 460,-189 466,-189 472,-195 472,-201 472,-201 472,-213 472,-213 472,-219 466,-225 460,-225"/>
<text text-anchor="middle" x="445" y="-204.8" font-family="Avenir Next" font-size="9.00">1 of</text>
</g>
<!-- course__BIOL150A&#45;&gt;choice_BIOL184_0_0 -->
<g id="edge3" class="edge">
<title>course__BIOL150A&#45;&gt;choice_BIOL184_0_0</title>
<path fill="none" stroke="#7a8389" d="M62.01,-199.24C118.71,-197.98 245.41,-195.95 352,-200 371.47,-200.74 393.2,-202.36 410.66,-203.85"/>
<polygon fill="#7a8389" stroke="#7a8389" points="410.67,-206.31 417.86,-204.48 411.1,-201.43 410.67,-206.31"/>
</g>
<!-- choice_BIOL186_0_0 -->
<g id="node14" class="node">
<title>choice_BIOL186_0_0</title>
<path fill="#fff7ee" stroke="#b7793f" stroke-width="1.1" d="M165,-246C165,-246 135,-246 135,-246 129,-246 123,-240 123,-234 123,-234 123,-222 123,-222 123,-216 129,-210 135,-210 135,-210 165,-210 165,-210 171,-210 177,-216 177,-222 177,-222 177,-234 177,-234 177,-240 171,-246 165,-246"/>
<text text-anchor="middle" x="150" y="-225.8" font-family="Avenir Next" font-size="9.00">1 of</text>
</g>
<!-- course__BIOL150A&#45;&gt;choice_BIOL186_0_0 -->
<g id="edge6" class="edge">
<title>course__BIOL150A&#45;&gt;choice_BIOL186_0_0</title>
<path fill="none" stroke="#7a8389" d="M62.13,-207.21C78.6,-211.15 99.03,-216.04 115.94,-220.09"/>
<polygon fill="#7a8389" stroke="#7a8389" points="115.57,-222.52 122.95,-221.76 116.71,-217.75 115.57,-222.52"/>
</g>
<!-- course__BIOL184 -->
<g id="node2" class="node">
<title>course__BIOL184</title>
<g id="a_node2"><a xlink:href="../../../courses/BIOL184.html" xlink:title="BIOL184: Evolution and Biodiversity" target="_top">
<path fill="#dbe8d2" stroke="#7e8d96" d="M47,-295C47,-295 15,-295 15,-295 9,-295 3,-289 3,-283 3,-283 3,-271 3,-271 3,-265 9,-259 15,-259 15,-259 47,-259 47,-259 53,-259 59,-265 59,-271 59,-271 59,-283 59,-283 59,-289 53,-295 47,-295"/>
<text text-anchor="middle" x="31" y="-274.8" font-family="Avenir Next" font-size="9.00" fill="#41515b">BIOL184</text>
</a>
</g>
</g>
<!-- course__BIOL225 -->
<g id="node9" class="node">
<title>course__BIOL225</title>
<g id="a_node9"><a xlink:href="../../../courses/BIOL225.html" xlink:title="BIOL225: Principles of Cell Biology" target="_top">
<path fill="#dbe8d2" stroke="#1b2730" stroke-width="1.6" d="M586.5,-274C586.5,-274 553.5,-274 553.5,-274 547.5,-274 541.5,-268 541.5,-262 541.5,-262 541.5,-250 541.5,-250 541.5,-244 547.5,-238 553.5,-238 553.5,-238 586.5,-238 586.5,-238 592.5,-238 598.5,-244 598.5,-250 598.5,-250 598.5,-262 598.5,-262 598.5,-268 592.5,-274 586.5,-274"/>
<text text-anchor="middle" x="570" y="-253.5" font-family="Avenir Next" font-size="10.00" fill="#17232b">BIOL225</text>
</a>
</g>
</g>
<!-- course__BIOL184&#45;&gt;course__BIOL225 -->
<g id="edge10" class="edge">
<title>course__BIOL184&#45;&gt;course__BIOL225</title>
<path fill="none" stroke="#5d6972" stroke-width="1.2" d="M59.25,-284.22C77.21,-288.6 101.33,-293.76 123,-296 276.2,-311.82 459.38,-279.2 534.4,-263.64"/>
<polygon fill="#5d6972" stroke="#5d6972" stroke-width="1.2" points="534.96,-266.02 541.31,-262.19 533.96,-261.23 534.96,-266.02"/>
</g>
<!-- course__BIOL184&#45;&gt;choice_BIOL186_0_0 -->
<g id="edge7" class="edge">
<title>course__BIOL184&#45;&gt;choice_BIOL186_0_0</title>
<path fill="none" stroke="#7a8389" d="M59.14,-265.64C76.06,-258.55 97.96,-249.38 115.9,-241.86"/>
<polygon fill="#7a8389" stroke="#7a8389" points="117.31,-243.93 122.82,-238.97 115.41,-239.41 117.31,-243.93"/>
</g>
<!-- course__BIOL186 -->
<g id="node3" class="node">
<title>course__BIOL186</title>
<g id="a_node3"><a xlink:href="../../../courses/BIOL186.html" xlink:title="BIOL186: Physiology and Cell Biology" target="_top">
<path fill="#dbe8d2" stroke="#7e8d96" d="M311,-246C311,-246 279,-246 279,-246 273,-246 267,-240 267,-234 267,-234 267,-222 267,-222 267,-216 273,-210 279,-210 279,-210 311,-210 311,-210 317,-210 323,-216 323,-222 323,-222 323,-234 323,-234 323,-240 317,-246 311,-246"/>
<text text-anchor="middle" x="295" y="-225.8" font-family="Avenir Next" font-size="9.00" fill="#41515b">BIOL186</text>
</a>
</g>
</g>
<!-- course__BIOL186&#45;&gt;course__BIOL225 -->
<g id="edge9" class="edge">
<title>course__BIOL186&#45;&gt;course__BIOL225</title>
<path fill="none" stroke="#5d6972" stroke-width="1.2" d="M323.17,-230.79C373,-235.9 478.9,-246.76 534.02,-252.41"/>
<polygon fill="#5d6972" stroke="#5d6972" stroke-width="1.2" points="533.91,-254.86 541.12,-253.14 534.41,-249.99 533.91,-254.86"/>
</g>
<!-- course__BIOL186&#45;&gt;choice_BIOL184_0_0 -->
<g id="edge4" class="edge">
<title>course__BIOL186&#45;&gt;choice_BIOL184_0_0</title>
<path fill="none" stroke="#7a8389" d="M323.15,-224.15C347.71,-220.66 383.97,-215.52 410.36,-211.77"/>
<polygon fill="#7a8389" stroke="#7a8389" points="410.94,-214.17 417.52,-210.76 410.25,-209.31 410.94,-214.17"/>
</g>
<!-- course__CHEM091 -->
<g id="node4" class="node">
<title>course__CHEM091</title>
<g id="a_node4"><a xlink:href="../../../courses/CHEM091.html" xlink:title="CHEM091: Introduction to Chemistry" target="_top">
<path fill="#ead9b8" stroke="#7e8d96" d="M313.5,-36C313.5,-36 276.5,-36 276.5,-36 270.5,-36 264.5,-30 264.5,-24 264.5,-24 264.5,-12 264.5,-12 264.5,-6 270.5,0 276.5,0 276.5,0 313.5,0 313.5,0 319.5,0 325.5,-6 325.5,-12 325.5,-12 325.5,-24 325.5,-24 325.5,-30 319.5,-36 313.5,-36"/>
<text text-anchor="middle" x="295" y="-15.8" font-family="Avenir Next" font-size="9.00" fill="#41515b">CHEM091</text>
</a>
</g>
</g>
<!-- course__CHEM102 -->
<g id="node7" class="node">
<title>course__CHEM102</title>
<g id="a_node7"><a xlink:href="../../../courses/CHEM102.html" xlink:title="CHEM102: Chemical Reactivity Fundamentals with Environmental Applications" target="_top">
<path fill="#ead9b8" stroke="#7e8d96" d="M463.5,-92C463.5,-92 426.5,-92 426.5,-92 420.5,-92 414.5,-86 414.5,-80 414.5,-80 414.5,-68 414.5,-68 414.5,-62 420.5,-56 426.5,-56 426.5,-56 463.5,-56 463.5,-56 469.5,-56 475.5,-62 475.5,-68 475.5,-68 475.5,-80 475.5,-80 475.5,-86 469.5,-92 463.5,-92"/>
<text text-anchor="middle" x="445" y="-71.8" font-family="Avenir Next" font-size="9.00" fill="#41515b">CHEM102</text>
</a>
</g>
</g>
<!-- course__CHEM091&#45;&gt;course__CHEM102 -->
<g id="edge12" class="edge">
<title>course__CHEM091&#45;&gt;course__CHEM102</title>
<path fill="none" stroke="#5d6972" stroke-width="1.2" d="M325.59,-29.2C349.29,-38.16 382.62,-50.78 407.89,-60.34"/>
<polygon fill="#5d6972" stroke="#5d6972" stroke-width="1.2" points="407.04,-62.64 414.46,-62.82 408.78,-58.05 407.04,-62.64"/>
</g>
<!-- course__CHEM101 -->
<g id="node5" class="node">
<title>course__CHEM101</title>
<g id="a_node5"><a xlink:href="../../../courses/CHEM101.html" xlink:title="Equivalent or cross&#45;listed: CHEM101: Fundamentals of Chemistry from Atoms to Materials | CHEM150: Engineering Chemistry" target="_top">
<path fill="#ead9b8" stroke="#7e8d96" d="M340,-148C340,-148 250,-148 250,-148 244,-148 238,-142 238,-136 238,-136 238,-124 238,-124 238,-118 244,-112 250,-112 250,-112 340,-112 340,-112 346,-112 352,-118 352,-124 352,-124 352,-136 352,-136 352,-142 346,-148 340,-148"/>
<text text-anchor="middle" x="295" y="-127.8" font-family="Avenir Next" font-size="9.00" fill="#41515b">CHEM101 / CHEM150</text>
</a>
</g>
</g>
<!-- course__CHEM101&#45;&gt;course__CHEM102 -->
<g id="edge13" class="edge">
<title>course__CHEM101&#45;&gt;course__CHEM102</title>
<path fill="none" stroke="#5d6972" stroke-width="1.2" d="M343.64,-111.97C364.35,-104.14 388.23,-95.1 407.5,-87.81"/>
<polygon fill="#5d6972" stroke="#5d6972" stroke-width="1.2" points="408.43,-90.08 414.11,-85.31 406.7,-85.49 408.43,-90.08"/>
</g>
<!-- course__CHEM231 -->
<g id="node8" class="node">
<title>course__CHEM231</title>
<g id="a_node8"><a xlink:href="../../../courses/CHEM231.html" xlink:title="CHEM231: Introduction to Organic Chemistry" target="_top">
<path fill="#ead9b8" stroke="#1b2730" stroke-width="1.6" d="M465,-148C465,-148 425,-148 425,-148 419,-148 413,-142 413,-136 413,-136 413,-124 413,-124 413,-118 419,-112 425,-112 425,-112 465,-112 465,-112 471,-112 477,-118 477,-124 477,-124 477,-136 477,-136 477,-142 471,-148 465,-148"/>
<text text-anchor="middle" x="445" y="-127.5" font-family="Avenir Next" font-size="10.00" fill="#17232b">CHEM231</text>
</a>
</g>
</g>
<!-- course__CHEM101&#45;&gt;course__CHEM231 -->
<g id="edge15" class="edge">
<title>course__CHEM101&#45;&gt;course__CHEM231</title>
<path fill="none" stroke="#5d6972" stroke-width="1.2" d="M352.37,-130C370.08,-130 389.22,-130 405.41,-130"/>
<polygon fill="#5d6972" stroke="#5d6972" stroke-width="1.2" points="405.62,-132.45 412.62,-130 405.62,-127.55 405.62,-132.45"/>
</g>
<!-- course__MATH100 -->
<g id="node6" class="node">
<title>course__MATH100</title>
<g id="a_node6"><a xlink:href="../../../courses/MATH100.html" xlink:title="Equivalent or cross&#45;listed: MATH100: Calculus I | MATH102: Calculus for Students in the Social and Biological Sciences | MATH109: Introduction to Calculus" target="_top">
<path fill="#dfe3f4" stroke="#7e8d96" d="M338.5,-92C338.5,-92 251.5,-92 251.5,-92 245.5,-92 239.5,-86 239.5,-80 239.5,-80 239.5,-68 239.5,-68 239.5,-62 245.5,-56 251.5,-56 251.5,-56 338.5,-56 338.5,-56 344.5,-56 350.5,-62 350.5,-68 350.5,-68 350.5,-80 350.5,-80 350.5,-86 344.5,-92 338.5,-92"/>
<text text-anchor="middle" x="295" y="-76.8" font-family="Avenir Next" font-size="9.00" fill="#41515b">MATH100 / MATH102</text>
<text text-anchor="middle" x="295" y="-66.8" font-family="Avenir Next" font-size="9.00" fill="#41515b">MATH109</text>
</a>
</g>
</g>
<!-- course__MATH100&#45;&gt;course__CHEM102 -->
<g id="edge14" class="edge">
<title>course__MATH100&#45;&gt;course__CHEM102</title>
<path fill="none" stroke="#5d6972" stroke-width="1.2" d="M350.69,-74C369.57,-74 390.25,-74 407.33,-74"/>
<polygon fill="#5d6972" stroke="#5d6972" stroke-width="1.2" points="407.42,-76.45 414.42,-74 407.42,-71.55 407.42,-76.45"/>
</g>
<!-- course__CHEM234 -->
<g id="node10" class="node">
<title>course__CHEM234</title>
<g id="a_node10"><a xlink:href="../../../courses/CHEM234.html" xlink:title="CHEM234: Organic Chemistry with Biological Applications" target="_top">
<path fill="#ead9b8" stroke="#1b2730" stroke-width="1.6" d="M590,-148C590,-148 550,-148 550,-148 544,-148 538,-142 538,-136 538,-136 538,-124 538,-124 538,-118 544,-112 550,-112 550,-112 590,-112 590,-112 596,-112 602,-118 602,-124 602,-124 602,-136 602,-136 602,-142 596,-148 590,-148"/>
<text text-anchor="middle" x="570" y="-127.5" font-family="Avenir Next" font-size="10.00" fill="#17232b">CHEM234</text>
</a>
</g>
</g>
<!-- course__CHEM102&#45;&gt;course__CHEM234 -->
<g id="edge16" class="edge">
<title>course__CHEM102&#45;&gt;course__CHEM234</title>
<path fill="none" stroke="#5d6972" stroke-width="1.2" d="M475.77,-87.56C492.49,-95.17 513.52,-104.74 531.36,-112.87"/>
<polygon fill="#5d6972" stroke="#5d6972" stroke-width="1.2" points="530.4,-115.12 537.78,-115.79 532.43,-110.66 530.4,-115.12"/>
</g>
<!-- course__CHEM231&#45;&gt;course__CHEM234 -->
<g id="edge17" class="edge">
<title>course__CHEM231&#45;&gt;course__CHEM234</title>
<path fill="none" stroke="#5d6972" stroke-width="1.2" d="M477.04,-130C493.35,-130 513.49,-130 530.77,-130"/>
<polygon fill="#5d6972" stroke="#5d6972" stroke-width="1.2" points="530.97,-132.45 537.97,-130 530.97,-127.55 530.97,-132.45"/>
</g>
<!-- course__BIOC300A -->
<g id="node11" class="node">
<title>course__BIOC300A</title>
<g id="a_node11"><a xlink:href="../../../courses/BIOC300A.html" xlink:title="BIOC300A: General Biochemistry I" target="_top">
<path fill="#e2e8d5" stroke="#1f4f66" stroke-width="2" d="M779,-211C779,-211 675,-211 675,-211 669,-211 663,-205 663,-199 663,-199 663,-187 663,-187 663,-181 669,-175 675,-175 675,-175 779,-175 779,-175 785,-175 791,-181 791,-187 791,-187 791,-199 791,-199 791,-205 785,-211 779,-211"/>
<text text-anchor="middle" x="727" y="-196" font-family="Avenir Next" font-size="10.00" fill="#17232b">BIOC300A</text>
<text text-anchor="middle" x="727" y="-185" font-family="Avenir Next" font-size="10.00" fill="#17232b">General Biochemistry I</text>
</a>
</g>
</g>
<!-- course__BIOL225&#45;&gt;course__BIOC300A -->
<g id="edge1" class="edge">
<title>course__BIOL225&#45;&gt;course__BIOC300A</title>
<path fill="none" stroke="#5d6972" stroke-width="1.2" d="M598.71,-244.74C619.81,-236.16 649.46,-224.11 674.83,-213.8"/>
<polygon fill="#5d6972" stroke="#5d6972" stroke-width="1.2" points="675.96,-215.99 681.52,-211.08 674.11,-211.45 675.96,-215.99"/>
</g>
<!-- course__CHEM234&#45;&gt;course__BIOC300A -->
<g id="edge2" class="edge">
<title>course__CHEM234&#45;&gt;course__BIOC300A</title>
<path fill="none" stroke="#5d6972" stroke-width="1.2" d="M602.37,-142.75C623.15,-151.2 650.89,-162.47 674.82,-172.2"/>
<polygon fill="#5d6972" stroke="#5d6972" stroke-width="1.2" points="674.06,-174.53 681.46,-174.9 675.9,-169.99 674.06,-174.53"/>
</g>
<!-- course__BIOL435 -->
<g id="node12" class="node">
<title>course__BIOL435</title>
<g id="a_node12"><a xlink:href="../../../courses/BIOL435.html" xlink:title="BIOL435: Molecular Evolution" target="_top">
<path fill="#dbe8d2" stroke="#1b2730" stroke-width="1.6" d="M897,-211C897,-211 864,-211 864,-211 858,-211 852,-205 852,-199 852,-199 852,-187 852,-187 852,-181 858,-175 864,-175 864,-175 897,-175 897,-175 903,-175 909,-181 909,-187 909,-187 909,-199 909,-199 909,-205 903,-211 897,-211"/>
<text text-anchor="middle" x="880.5" y="-190.5" font-family="Avenir Next" font-size="10.00" fill="#17232b">BIOL435</text>
</a>
</g>
</g>
<!-- course__BIOC300A&#45;&gt;course__BIOL435 -->
<g id="edge11" class="edge">
<title>course__BIOC300A&#45;&gt;course__BIOL435</title>
<path fill="none" stroke="#5d6972" stroke-width="1.2" d="M791.37,-193C809.65,-193 828.92,-193 844.77,-193"/>
<polygon fill="#5d6972" stroke="#5d6972" stroke-width="1.2" points="844.79,-195.45 851.79,-193 844.79,-190.55 844.79,-195.45"/>
</g>
<!-- choice_BIOL184_0_0&#45;&gt;course__BIOL184 -->
<g id="edge5" class="edge">
<title>choice_BIOL184_0_0&#45;&gt;course__BIOL184</title>
<path fill="none" stroke="#5d6972" stroke-width="1.2" d="M417.91,-224.76C400.16,-235.85 375.67,-249.26 352,-256 251.36,-284.66 126,-282.56 66.47,-279.41"/>
<polygon fill="#5d6972" stroke="#5d6972" stroke-width="1.2" points="66.33,-276.95 59.2,-279.01 66.05,-281.84 66.33,-276.95"/>
</g>
<!-- choice_BIOL186_0_0&#45;&gt;course__BIOL186 -->
<g id="edge8" class="edge">
<title>choice_BIOL186_0_0&#45;&gt;course__BIOL186</title>
<path fill="none" stroke="#5d6972" stroke-width="1.2" d="M177.23,-228C200.42,-228 234.4,-228 259.74,-228"/>
<polygon fill="#5d6972" stroke="#5d6972" stroke-width="1.2" points="259.97,-230.45 266.97,-228 259.97,-225.55 259.97,-230.45"/>
</g>
</g>
</svg>
