<?xml version="1.0" encoding="UTF-8" standalone="no"?>
<!DOCTYPE svg PUBLIC "-//W3C//DTD SVG 1.1//EN"
 "http://www.w3.org/Graphics/SVG/1.1/DTD/svg11.dtd">
<!-- Generated by graphviz version 2.43.0 (0)
 -->
<!-- Title: BIOC300A Pages: 1 -->
<svg width="952pt" height="338pt"
 viewBox="0.00 0.00 952.20 338.20" xmlns="http://www.w3.org/2000/svg" xmlns:xlink="http://www.w3.org/1999/xlink">
<g id="graph0" class="graph" transform="scale(1 1) rotate(0) translate(21.6 316.6)">
<title>BIOC300A</title>
<!-- course__BIOL150A -->
<g id="node1" class="node">
<title>course__BIOL150A</title>
<g id="a_node1"><a xlink:href="../../../courses/BIOL150A.html" xlink:title="BIOL150A: Modern Biology" target="_top">
<path fill="#dbe8d2" stroke="#7e8d96" d="M50,-113C50,-113 12,-113 12,-113 6,-113 0,-107 0,-101 0,-101 0,-89 0,-89 0,-83 6,-77 12,-77 12,-77 50,-77 50,-77 56,-77 62,-83 62,-89 62,-89 62,-101 62,-101 62,-107 56,-113 50,-113"/>
<text text-anchor="middle" x="31" y="-92.8" font-family="Avenir Next" font-size="9.00" fill="#41515b">BIOL150A</text>
</a>
</g>
</g>
<!-- choice_BIOL184_0_0 -->
<g id="node13" class="node">
<title>choice_BIOL184_0_0</title>
<path fill="#fff7ee" stroke="#b7793f" stroke-width="1.1" d="M165,-85C165,-85 135,-85 135,-85 129,-85 123,-79 123,-73 123,-73 123,-61 123,-61 123,-55 129,-49 135,-49 135,-49 165,-49 165,-49 171,-49 177,-55 177,-61 177,-61 177,-73 177,-73 177,-79 171,-85 165,-85"/>
<text text-anchor="middle" x="150" y="-64.8" font-family="Avenir Next" font-size="9.00">1 of</text>
</g>
<!-- course__BIOL150A&#45;&gt;choice_BIOL184_0_0 -->
<g id="edge3" class="edge">
<title>course__BIOL150A&#45;&gt;choice_BIOL184_0_0</title>
<path fill="none" stroke="#7a8389" d="M62.13,-87.79C78.6,-83.85 99.03,-78.96 115.94,-74.91"/>
<polygon fill="#7a8389" stroke="#7a8389" points="116.71,-77.25 122.95,-73.24 115.57,-72.48 116.71,-77.25"/>
</g>
<!-- choice_BIOL186_0_0 -->
<g id="node14" class="node">
<title>choice_BIOL186_0_0</title>
<path fill="#fff7ee" stroke="#b7793f" stroke-width="1.1" d="M460,-110C460,-110 430,-110 430,-110 424,-110 418,-104 418,-98 418,-98 418,-86 418,-86 418,-80 424,-74 430,-74 430,-74 460,-74 460,-74 466,-74 472,-80 472,-86 472,-86 472,-98 472,-98 472,-104 466,-110 460,-110"/>
<text text-anchor="middle" x="445" y="-89.8" font-family="Avenir Next" font-size="9.00">1 of</text>
</g>
<!-- course__BIOL150A&#45;&gt;choice_BIOL186_0_0 -->
<g id="edge6" class="edge">
<title>course__BIOL150A&#45;&gt;choice_BIOL186_0_0</title>
<path fill="none" stroke="#7a8389" d="M62,-95.33C118.67,-95.87 245.35,-96.74 352,-95 371.43,-94.68 393.17,-93.99 410.63,-93.35"/>
<polygon fill="#7a8389" stroke="#7a8389" points="410.93,-95.79 417.83,-93.08 410.75,-90.89 410.93,-95.79"/>
</g>
<!-- course__BIOL186 -->
<g id="node2" class="node">
<title>course__BIOL186</title>
<g id="a_node2"><a xlink:href="../../../courses/BIOL186.html" xlink:title="BIOL186: Physiology and Cell Biology" target="_top">
<path fill="#dbe8d2" stroke="#7e8d96" d="M47,-36C47,-36 15,-36 15,-36 9,-36 3,-30 3,-24 3,-24 3,-12 3,-12 3,-6 9,0 15,0 15,0 47,0 47,0 53,0 59,-6 59,-12 59,-12 59,-24 59,-24 59,-30 53,-36 47,-36"/>
<text text-anchor="middle" x="31" y="-15.8" font-family="Avenir Next" font-size="9.00" fill="#41515b">BIOL186</text>
</a>
</g>
</g>
<!-- course__BIOL225 -->
<g id="node9" class="node">
<title>course__BIOL225</title>
<g id="a_node9"><a xlink:href="../../../courses/BIOL225.html" xlink:title="BIOL225: Principles of Cell Biology" target="_top">
<path fill="#dbe8d2" stroke="#1b2730" stroke-width="1.6" d="M586.5,-61C586.5,-61 553.5,-61 553.5,-61 547.5,-61 541.5,-55 541.5,-49 541.5,-49 541.5,-37 541.5,-37 541.5,-31 547.5,-25 553.5,-25 553.5,-25 586.5,-25 586.5,-25 592.5,-25 598.5,-31 598.5,-37 598.5,-37 598.5,-49 598.5,-49 598.5,-55 592.5,-61 586.5,-61"/>
<text text-anchor="middle" x="570" y="-40.5" font-family="Avenir Next" font-size="10.00" fill="#17232b">BIOL225</text>
</a>
</g>
</g>
<!-- course__BIOL186&#45;&gt;course__BIOL225 -->
<g id="edge9" class="edge">
<title>course__BIOL186&#45;&gt;course__BIOL225</title>
<path fill="none" stroke="#5d6972" stroke-width="1.2" d="M59.01,-14.25C77.08,-11.93 101.42,-9.18 123,-8 178.54,-4.96 303.78,-8.02 352,-12 416.71,-17.34 491.56,-29.34 534.29,-36.74"/>
<polygon fill="#5d6972" stroke="#5d6972" stroke-width="1.2" points="534.06,-39.19 541.37,-37.98 534.9,-34.36 534.06,-39.19"/>
</g>
<!-- course__BIOL186&#45;&gt;choice_BIOL184_0_0 -->
<g id="edge4" class="edge">
<title>course__BIOL186&#45;&gt;choice_BIOL184_0_0</title>
<path fill="none" stroke="#7a8389" d="M59.14,-29.36C76.06,-36.45 97.96,-45.62 115.9,-53.14"/>
<polygon fill="#7a8389" stroke="#7a8389" points="115.41,-55.59 122.82,-56.03 117.31,-51.07 115.41,-55.59"/>
</g>
<!-- course__BIOL184 -->
<g id="node3" class="node">
<title>course__BIOL184</title>
<g id="a_node3"><a xlink:href="../../../courses/BIOL184.html" xlink:title="BIOL184: Evolution and Biodiversity" target="_top">
<path fill="#dbe8d2" stroke="#7e8d96" d="M311,-85C311,-85 279,-85 279,-85 273,-85 267,-79 267,-73 267,-73 267,-61 267,-61 267,-55 273,-49 279,-49 279,-49 311,-49 311,-49 317,-49 323,-55 323,-61 323,-61 323,-73 323,-73 323,-79 317,-85 311,-85"/>
<text text-anchor="middle" x="295" y="-64.8" font-family="Avenir Next" font-size="9.00" fill="#41515b">BIOL184</text>
</a>
</g>
</g>
<!-- course__BIOL184&#45;&gt;course__BIOL225 -->
<g id="edge10" class="edge">
<title>course__BIOL184&#45;&gt;course__BIOL225</title>
<path fill="none" stroke="#5d6972" stroke-width="1.2" d="M323.17,-64.61C373,-60.23 478.9,-50.92 534.02,-46.08"/>
<polygon fill="#5d6972" stroke="#5d6972" stroke-width="1.2" points="534.36,-48.5 541.12,-45.45 533.94,-43.62 534.36,-48.5"/>
</g>
<!-- course__BIOL184&#45;&gt;choice_BIOL186_0_0 -->
<g id="edge7" class="edge">
<title>course__BIOL184&#45;&gt;choice_BIOL186_0_0</title>
<path fill="none" stroke="#7a8389" d="M323.15,-71.59C347.71,-75.73 383.97,-81.86 410.36,-86.32"/>
<polygon fill="#7a8389" stroke="#7a8389" points="410.21,-88.78 417.52,-87.53 411.03,-83.95 410.21,-88.78"/>
</g>
<!-- course__CHEM091 -->
<g id="node4" class="node">
<title>course__CHEM091</title>
<g id="a_node4"><a xlink:href="../../../courses/CHEM091.html" xlink:title="CHEM091: Introduction to Chemistry" target="_top">
<path fill="#ead9b8" stroke="#7e8d96" d="M313.5,-183C313.5,-183 276.5,-183 276.5,-183 270.5,-183 264.5,-177 264.5,-171 264.5,-171 264.5,-159 264.5,-159 264.5,-153 270.5,-147 276.5,-147 276.5,-147 313.5,-147 313.5,-147 319.5,-147 325.5,-153 325.5,-159 325.5,-159 325.5,-171 325.5,-171 325.5,-177 319.5,-183 313.5,-183"/>
<text text-anchor="middle" x="295" y="-162.8" font-family="Avenir Next" font-size="9.00" fill="#41515b">CHEM091</text>
</a>
</g>
</g>
<!-- course__CHEM102 -->
<g id="node7" class="node">
<title>course__CHEM102</title>
<g id="a_node7"><a xlink:href="../../../courses/CHEM102.html" xlink:title="CHEM102: Chemical Reactivity Fundamentals with Environmental Applications" target="_top">
<path fill="#ead9b8" stroke="#7e8d96" d="M463.5,-239C463.5,-239 426.5,-239 426.5,-239 420.5,-239 414.5,-233 414.5,-227 414.5,-227 414.5,-215 414.5,-215 414.5,-209 420.5,-203 426.5,-203 426.5,-203 463.5,-203 463.5,-203 469.5,-203 475.5,-209 475.5,-215 475.5,-215 475.5,-227 475.5,-227 475.5,-233 469.5,-239 463.5,-239"/>
<text text-anchor="middle" x="445" y="-218.8" font-family="Avenir Next" font-size="9.00" fill="#41515b">CHEM102</text>
</a>
</g>
</g>
<!-- course__CHEM091&#45;&gt;course__CHEM102 -->
<g id="edge12" class="edge">
<title>course__CHEM091&#45;&gt;course__CHEM102</title>
<path fill="none" stroke="#5d6972" stroke-width="1.2" d="M325.59,-176.2C349.29,-185.16 382.62,-197.78 407.89,-207.34"/>
<polygon fill="#5d6972" stroke="#5d6972" stroke-width="1.2" points="407.04,-209.64 414.46,-209.82 408.78,-205.05 407.04,-209.64"/>
</g>
<!-- course__CHEM101 -->
<g id="node5" class="node">
<title>course__CHEM101</title>
<g id="a_node5"><a xlink:href="../../../courses/CHEM101.html" xlink:title="Equivalent or cross&#45;listed: CHEM101: Fundamentals of Chemistry from Atoms to Materials | CHEM150: Engineering Chemistry" target="_top">
<path fill="#ead9b8" stroke="#7e8d96" d="M340,-295C340,-295 250,-295 250,-295 244,-295 238,-289 238,-283 238,-283 238,-271 238,-271 238,-265 244,-259 250,-259 250,-259 340,-259 340,-259 346,-259 352,-265 352,-271 352,-271 352,-283 352,-283 352,-289 346,-295 340,-295"/>
<text text-anchor="middle" x="295" y="-274.8" font-family="Avenir Next" font-size="9.00" fill="#41515b">CHEM101 / CHEM150</text>
</a>
</g>
</g>
<!-- course__CHEM101&#45;&gt;course__CHEM102 -->
<g id="edge13" class="edge">
<title>course__CHEM101&#45;&gt;course__CHEM102</title>
<path fill="none" stroke="#5d6972" stroke-width="1.2" d="M343.64,-258.97C364.35,-251.14 388.23,-242.1 407.5,-234.81"/>
<polygon fill="#5d6972" stroke="#5d6972" stroke-width="1.2" points="408.43,-237.08 414.11,-232.31 406.7,-232.49 408.43,-237.08"/>
</g>
<!-- course__CHEM231 -->
<g id="node8" class="node">
<title>course__CHEM231</title>
<g id="a_node8"><a xlink:href="../../../courses/CHEM231.html" xlink:title="CHEM231: Introduction to Organic Chemistry" target="_top">
<path fill="#ead9b8" stroke="#1b2730" stroke-width="1.6" d="M465,-295C465,-295 425,-295 425,-295 419,-295 413,-289 413,-283 413,-283 413,-271 413,-271 413,-265 419,-259 425,-259 425,-259 465,-259 465,-259 471,-259 477,-265 477,-271 477,-271 477,-283 477,-283 477,-289 471,-295 465,-295"/>
<text text-anchor="middle" x="445" y="-274.5" font-family="Avenir Next" font-size="10.00" fill="#17232b">CHEM231</text>
</a>
</g>
</g>
<!-- course__CHEM101&#45;&gt;course__CHEM231 -->
<g id="edge15" class="edge">
<title>course__CHEM101&#45;&gt;course__CHEM231</title>
<path fill="none" stroke="#5d6972" stroke-width="1.2" d="M352.37,-277C370.08,-277 389.22,-277 405.41,-277"/>
<polygon fill="#5d6972" stroke="#5d6972" stroke-width="1.2" points="405.62,-279.45 412.62,-277 405.62,-274.55 405.62,-279.45"/>
</g>
<!-- course__MATH100 -->
<g id="node6" class="node">
<title>course__MATH100</title>
<g id="a_node6"><a xlink:href="../../../courses/MATH100.html" xlink:title="Equivalent or cross&#45;listed: MATH100: Calculus I | MATH102: Calculus for Students in the Social and Biological Sciences | MATH109: Introduction to Calculus" target="_top">
<path fill="#dfe3f4" stroke="#7e8d96" d="M338.5,-239C338.5,-239 251.5,-239 251.5,-239 245.5,-239 239.5,-233 239.5,-227 239.5,-227 239.5,-215 239.5,-215 239.5,-209 245.5,-203 251.5,-203 251.5,-203 338.5,-203 338.5,-203 344.5,-203 350.5,-209 350.5,-215 350.5,-215 350.5,-227 350.5,-227 350.5,-233 344.5,-239 338.5,-239"/>
<text text-anchor="middle" x="295" y="-223.8" font-family="Avenir Next" font-size="9.00" fill="#41515b">MATH100 / MATH102</text>
<text text-anchor="middle" x="295" y="-213.8" font-family="Avenir Next" font-size="9.00" fill="#41515b">MATH109</text>
</a>
</g>
</g>
<!-- course__MATH100&#45;&gt;course__CHEM102 -->
<g id="edge14" class="edge">
<title>course__MATH100&#45;&gt;course__CHEM102</title>
<path fill="none" stroke="#5d6972" stroke-width="1.2" d="M350.69,-221C369.57,-221 390.25,-221 407.33,-221"/>
<polygon fill="#5d6972" stroke="#5d6972" stroke-width="1.2" points="407.42,-223.45 414.42,-221 407.42,-218.55 407.42,-223.45"/>
</g>
<!-- course__CHEM234 -->
<g id="node10" class="node">
<title>course__CHEM234</title>
<g id="a_node10"><a xlink:href="../../../courses/CHEM234.html" xlink:title="CHEM234: Organic Chemistry with Biological Applications" target="_top">
<path fill="#ead9b8" stroke="#1b2730" stroke-width="1.6" d="M590,-239C590,-239 550,-239 550,-239 544,-239 538,-233 538,-227 538,-227 538,-215 538,-215 538,-209 544,-203 550,-203 550,-203 590,-203 590,-203 596,-203 602,-209 602,-215 602,-215 602,-227 602,-227 602,-233 596,-239 590,-239"/>
<text text-anchor="middle" x="570" y="-218.5" font-family="Avenir Next" font-size="10.00" fill="#17232b">CHEM234</text>
</a>
</g>
</g>
<!-- course__CHEM102&#45;&gt;course__CHEM234 -->
<g id="edge16" class="edge">
<title>course__CHEM102&#45;&gt;course__CHEM234</title>
<path fill="none" stroke="#5d6972" stroke-width="1.2" d="M475.77,-221C492.2,-221 512.78,-221 530.42,-221"/>
<polygon fill="#5d6972" stroke="#5d6972" stroke-width="1.2" points="530.78,-223.45 537.78,-221 530.78,-218.55 530.78,-223.45"/>
</g>
<!-- course__CHEM231&#45;&gt;course__CHEM234 -->
<g id="edge17" class="edge">
<title>course__CHEM231&#45;&gt;course__CHEM234</title>
<path fill="none" stroke="#5d6972" stroke-width="1.2" d="M477.04,-262.87C493.5,-255.37 513.85,-246.11 531.23,-238.2"/>
<polygon fill="#5d6972" stroke="#5d6972" stroke-width="1.2" points="532.62,-240.26 537.97,-235.13 530.59,-235.8 532.62,-240.26"/>
</g>
<!-- course__BIOC300A -->
<g id="node11" class="node">
<title>course__BIOC300A</title>
<g id="a_node11"><a xlink:href="../../../courses/BIOC300A.html" xlink:title="BIOC300A: General Biochemistry I" target="_top">
<path fill="#e2e8d5" stroke="#1f4f66" stroke-width="2" d="M779,-138C779,-138 675,-138 675,-138 669,-138 663,-132 663,-126 663,-126 663,-114 663,-114 663,-108 669,-102 675,-102 675,-102 779,-102 779,-102 785,-102 791,-108 791,-114 791,-114 791,-126 791,-126 791,-132 785,-138 779,-138"/>
<text text-anchor="middle" x="727" y="-123" font-family="Avenir Next" font-size="10.00" fill="#17232b">BIOC300A</text>
<text text-anchor="middle" x="727" y="-112" font-family="Avenir Next" font-size="10.00" fill="#17232b">General Biochemistry I</text>
</a>
</g>
</g>
<!-- course__BIOL225&#45;&gt;course__BIOC300A -->
<g id="edge1" class="edge">
<title>course__BIOL225&#45;&gt;course__BIOC300A</title>
<path fill="none" stroke="#5d6972" stroke-width="1.2" d="M598.71,-56.77C622.17,-68.42 656.18,-85.32 683.15,-98.71"/>
<polygon fill="#5d6972" stroke="#5d6972" stroke-width="1.2" points="682.13,-100.94 689.49,-101.86 684.31,-96.55 682.13,-100.94"/>
</g>
<!-- course__CHEM234&#45;&gt;course__BIOC300A -->
<g id="edge2" class="edge">
<title>course__CHEM234&#45;&gt;course__BIOC300A</title>
<path fill="none" stroke="#5d6972" stroke-width="1.2" d="M598.71,-202.94C624.86,-185.9 664.12,-160.32 692.12,-142.08"/>
<polygon fill="#5d6972" stroke="#5d6972" stroke-width="1.2" points="693.74,-143.94 698.27,-138.07 691.07,-139.84 693.74,-143.94"/>
</g>
<!-- course__BIOL435 -->
<g id="node12" class="node">
<title>course__BIOL435</title>
<g id="a_node12"><a xlink:href="../../../courses/BIOL435.html" xlink:title="BIOL435: Molecular Evolution" target="_top">
<path fill="#dbe8d2" stroke="#1b2730" stroke-width="1.6" d="M897,-138C897,-138 864,-138 864,-138 858,-138 852,-132 852,-126 852,-126 852,-114 852,-114 852,-108 858,-102 864,-102 864,-102 897,-102 897,-102 903,-102 909,-108 909,-114 909,-114 909,-126 909,-126 909,-132 903,-138 897,-138"/>
<text text-anchor="middle" x="880.5" y="-117.5" font-family="Avenir Next" font-size="10.00" fill="#17232b">BIOL435</text>
</a>
</g>
</g>
<!-- course__BIOC300A&#45;&gt;course__BIOL435 -->
<g id="edge11" class="edge">
<title>course__BIOC300A&#45;&gt;course__BIOL435</title>
<path fill="none" stroke="#5d6972" stroke-width="1.2" d="M791.37,-120C809.65,-120 828.92,-120 844.77,-120"/>
<polygon fill="#5d6972" stroke="#5d6972" stroke-width="1.2" points="844.79,-122.45 851.79,-120 844.79,-117.55 844.79,-122.45"/>
</g>
<!-- choice_BIOL184_0_0&#45;&gt;course__BIOL184 -->
<g id="edge5" class="edge">
<title>choice_BIOL184_0_0&#45;&gt;course__BIOL184</title>
<path fill="none" stroke="#5d6972" stroke-width="1.2" d="M177.23,-67C200.42,-67 234.4,-67 259.74,-67"/>
<polygon fill="#5d6972" stroke="#5d6972" stroke-width="1.2" points="259.97,-69.45 266.97,-67 259.97,-64.55 259.97,-69.45"/>
</g>
<!-- choice_BIOL186_0_0&#45;&gt;course__BIOL186 -->
<g id="edge8" class="edge">
<title>choice_BIOL186_0_0&#45;&gt;course__BIOL186</title>
<path fill="none" stroke="#5d6972" stroke-width="1.2" d="M419.66,-73.82C401.9,-61.63 376.7,-46.48 352,-39 251.85,-8.67 126.26,-11.56 66.57,-15.23"/>
<polygon fill="#5d6972" stroke="#5d6972" stroke-width="1.2" points="66.11,-12.81 59.28,-15.71 66.43,-17.7 66.11,-12.81"/>
</g>
</g>
</svg>
