<?xml version="1.0" encoding="UTF-8" standalone="no"?>
<!DOCTYPE svg PUBLIC "-//W3C//DTD SVG 1.1//EN"
 "http://www.w3.org/Graphics/SVG/1.1/DTD/svg11.dtd">
<!-- Generated by graphviz version 2.43.0 (0)
 -->
<!-- Title: BIOC299 Pages: 1 -->
<svg width="325pt" height="79pt"
 viewBox="0.00 0.00 325.20 79.20" xmlns="http://www.w3.org/2000/svg" xmlns:xlink="http://www.w3.org/1999/xlink">
<g id="graph0" class="graph" transform="scale(1 1) rotate(0) translate(21.6 57.6)">
<title>BIOC299</title>
<!-- course__CHEM231 -->
<g id="node1" class="node">
<title>course__CHEM231</title>
<g id="a_node1"><a xlink:href="../../../courses/CHEM231.html" xlink:title="CHEM231: Introduction to Organic Chemistry" target="_top">
<path fill="#ead9b8" stroke="#1b2730" stroke-width="1.6" d="M52,-36C52,-36 12,-36 12,-36 6,-36 0,-30 0,-24 0,-24 0,-12 0,-12 0,-6 6,0 12,0 12,0 52,0 52,0 58,0 64,-6 64,-12 64,-12 64,-24 64,-24 64,-30 58,-36 52,-36"/>
<text text-anchor="middle" x="32" y="-15.5" font-family="Avenir Next" font-size="10.00" fill="#17232b">CHEM231</text>
</a>
</g>
</g>
<!-- course__BIOC299 -->
<g id="node2" class="node">
<title>course__BIOC299</title>
<g id="a_node2"><a xlink:href="../../../courses/BIOC299.html" xlink:title="BIOC299: Biochemistry for Non&#45;Majors" target="_top">
<path fill="#e2e8d5" stroke="#1f4f66" stroke-width="2" d="M270,-36C270,-36 137,-36 137,-36 131,-36 125,-30 125,-24 125,-24 125,-12 125,-12 125,-6 131,0 137,0 137,0 270,0 270,0 276,0 282,-6 282,-12 282,-12 282,-24 282,-24 282,-30 276,-36 270,-36"/>
<text text-anchor="middle" x="203.5" y="-21" font-family="Avenir Next" font-size="10.00" fill="#17232b">BIOC299</text>
<text text-anchor="middle" x="203.5" y="-10" font-family="Avenir Next" font-size="10.00" fill="#17232b">Biochemistry for Non&#45;Majors</text>
</a>
</g>
</g>
<!-- course__CHEM231&#45;&gt;course__BIOC299 -->
<g id="edge1" class="edge">
<title>course__CHEM231&#45;&gt;course__BIOC299</title>
<path fill="none" stroke="#5d6972" stroke-width="1.2" d="M64.09,-18C79.33,-18 98.49,-18 117.67,-18"/>
<polygon fill="#5d6972" stroke="#5d6972" stroke-width="1.2" points="117.72,-20.45 124.72,-18 117.72,-15.55 117.72,-20.45"/>
</g>
</g>
</svg>
