<?xml version="1.0" encoding="UTF-8" standalone="no"?>
<!DOCTYPE svg PUBLIC "-//W3C//DTD SVG 1.1//EN"
 "http://www.w3.org/Graphics/SVG/1.1/DTD/svg11.dtd">
<!-- Generated by graphviz version 2.43.0 (0)
 -->
<!-- Title: BIOL215 Pages: 1 -->
<svg width="913pt" height="435pt"
 viewBox="0.00 0.00 913.20 435.15" xmlns="http://www.w3.org/2000/svg" xmlns:xlink="http://www.w3.org/1999/xlink">
<g id="graph0" class="graph" transform="scale(1 1) rotate(0) translate(21.6 413.55)">
<title>BIOL215</title>
<!-- course__BIOL186 -->
<g id="node1" class="node">
<title>course__BIOL186</title>
<g id="a_node1"><a xlink:href="../../../courses/BIOL186.html" xlink:title="BIOL186: Physiology and Cell Biology" target="_top">
<path fill="#dbe8d2" stroke="#1b2730" stroke-width="1.6" d="M328,-139.95C328,-139.95 295,-139.95 295,-139.95 289,-139.95 283,-133.95 283,-127.95 283,-127.95 283,-115.95 283,-115.95 283,-109.95 289,-103.95 295,-103.95 295,-103.95 328,-103.95 328,-103.95 334,-103.95 340,-109.95 340,-115.95 340,-115.95 340,-127.95 340,-127.95 340,-133.95 334,-139.95 328,-139.95"/>
<text text-anchor="middle" x="311.5" y="-119.45" font-family="Avenir Next" font-size="10.00" fill="#17232b">BIOL186</text>
</a>
</g>
</g>
<!-- course__BIOL150A -->
<g id="node2" class="node">
<title>course__BIOL150A</title>
<g id="a_node2"><a xlink:href="../../../courses/BIOL150A.html" xlink:title="Collapsed in simplified view: BIOL150A: Modern Biology | BIOL184: Evolution and Biodiversity" target="_top">
<path fill="#dbe8d2" stroke="#1b2730" stroke-width="1.6" d="M487,-139.95C487,-139.95 433,-139.95 433,-139.95 427,-139.95 421,-133.95 421,-127.95 421,-127.95 421,-115.95 421,-115.95 421,-109.95 427,-103.95 433,-103.95 433,-103.95 487,-103.95 487,-103.95 493,-103.95 499,-109.95 499,-115.95 499,-115.95 499,-127.95 499,-127.95 499,-133.95 493,-139.95 487,-139.95"/>
<text text-anchor="middle" x="460" y="-119.45" font-family="Avenir Next" font-size="10.00" fill="#17232b">Intro biology</text>
</a>
</g>
</g>
<!-- course__BIOL186&#45;&gt;course__BIOL150A -->
<g id="edge2" class="edge">
<title>course__BIOL186&#45;&gt;course__BIOL150A</title>
<path fill="none" stroke="#5d6972" stroke-width="1.2" d="M340.06,-115.94C360.71,-114.37 389.44,-114.04 413.49,-114.95"/>
<polygon fill="#5d6972" stroke="#5d6972" stroke-width="1.2" points="413.69,-117.41 420.79,-115.27 413.9,-112.52 413.69,-117.41"/>
</g>
<!-- course__BIOL150A&#45;&gt;course__BIOL186 -->
<g id="edge3" class="edge">
<title>course__BIOL150A&#45;&gt;course__BIOL186</title>
<path fill="none" stroke="#5d6972" stroke-width="1.2" d="M420.79,-128.63C398.04,-129.79 369.4,-129.72 347.29,-128.45"/>
<polygon fill="#5d6972" stroke="#5d6972" stroke-width="1.2" points="347.2,-125.98 340.06,-127.97 346.88,-130.87 347.2,-125.98"/>
</g>
<!-- course__BIOL215 -->
<g id="node3" class="node">
<title>course__BIOL215</title>
<g id="a_node3"><a xlink:href="../../../courses/BIOL215.html" xlink:title="BIOL215: Principles of Ecology" target="_top">
<path fill="#dbe8d2" stroke="#1f4f66" stroke-width="2" d="M507,-195.95C507,-195.95 413,-195.95 413,-195.95 407,-195.95 401,-189.95 401,-183.95 401,-183.95 401,-171.95 401,-171.95 401,-165.95 407,-159.95 413,-159.95 413,-159.95 507,-159.95 507,-159.95 513,-159.95 519,-165.95 519,-171.95 519,-171.95 519,-183.95 519,-183.95 519,-189.95 513,-195.95 507,-195.95"/>
<text text-anchor="middle" x="460" y="-180.95" font-family="Avenir Next" font-size="10.00" fill="#17232b">BIOL215</text>
<text text-anchor="middle" x="460" y="-169.95" font-family="Avenir Next" font-size="10.00" fill="#17232b">Principles of Ecology</text>
</a>
</g>
</g>
<!-- course__BIOL319 -->
<g id="node4" class="node">
<title>course__BIOL319</title>
<g id="a_node4"><a xlink:href="../../../courses/BIOL319.html" xlink:title="BIOL319: Marine Ecology" target="_top">
<path fill="#dbe8d2" stroke="#1b2730" stroke-width="1.6" d="M625,-391.95C625,-391.95 592,-391.95 592,-391.95 586,-391.95 580,-385.95 580,-379.95 580,-379.95 580,-367.95 580,-367.95 580,-361.95 586,-355.95 592,-355.95 592,-355.95 625,-355.95 625,-355.95 631,-355.95 637,-361.95 637,-367.95 637,-367.95 637,-379.95 637,-379.95 637,-385.95 631,-391.95 625,-391.95"/>
<text text-anchor="middle" x="608.5" y="-371.45" font-family="Avenir Next" font-size="10.00" fill="#17232b">BIOL319</text>
</a>
</g>
</g>
<!-- course__BIOL215&#45;&gt;course__BIOL319 -->
<g id="edge4" class="edge">
<title>course__BIOL215&#45;&gt;course__BIOL319</title>
<path fill="none" stroke="#5d6972" stroke-width="1.2" d="M472.61,-196.3C492.93,-227.96 536.9,-294.4 580,-345.95 581.19,-347.37 582.43,-348.8 583.7,-350.23"/>
<polygon fill="#5d6972" stroke="#5d6972" stroke-width="1.2" points="582.18,-352.19 588.73,-355.67 585.78,-348.86 582.18,-352.19"/>
</g>
<!-- course__BIOL330 -->
<g id="node5" class="node">
<title>course__BIOL330</title>
<g id="a_node5"><a xlink:href="../../../courses/BIOL330.html" xlink:title="BIOL330: Study Design and Data Analysis" target="_top">
<path fill="#dbe8d2" stroke="#1b2730" stroke-width="1.6" d="M625,-335.95C625,-335.95 592,-335.95 592,-335.95 586,-335.95 580,-329.95 580,-323.95 580,-323.95 580,-311.95 580,-311.95 580,-305.95 586,-299.95 592,-299.95 592,-299.95 625,-299.95 625,-299.95 631,-299.95 637,-305.95 637,-311.95 637,-311.95 637,-323.95 637,-323.95 637,-329.95 631,-335.95 625,-335.95"/>
<text text-anchor="middle" x="608.5" y="-315.45" font-family="Avenir Next" font-size="10.00" fill="#17232b">BIOL330</text>
</a>
</g>
</g>
<!-- course__BIOL215&#45;&gt;course__BIOL330 -->
<g id="edge5" class="edge">
<title>course__BIOL215&#45;&gt;course__BIOL330</title>
<path fill="none" stroke="#5d6972" stroke-width="1.2" d="M479.85,-195.97C506.19,-221.14 554.02,-266.84 583.06,-294.6"/>
<polygon fill="#5d6972" stroke="#5d6972" stroke-width="1.2" points="581.5,-296.5 588.25,-299.56 584.89,-292.95 581.5,-296.5"/>
</g>
<!-- course__BIOL335 -->
<g id="node6" class="node">
<title>course__BIOL335</title>
<g id="a_node6"><a xlink:href="../../../courses/BIOL335.html" xlink:title="BIOL335: Ichthyology" target="_top">
<path fill="#dbe8d2" stroke="#1b2730" stroke-width="1.6" d="M625,-279.95C625,-279.95 592,-279.95 592,-279.95 586,-279.95 580,-273.95 580,-267.95 580,-267.95 580,-255.95 580,-255.95 580,-249.95 586,-243.95 592,-243.95 592,-243.95 625,-243.95 625,-243.95 631,-243.95 637,-249.95 637,-255.95 637,-255.95 637,-267.95 637,-267.95 637,-273.95 631,-279.95 625,-279.95"/>
<text text-anchor="middle" x="608.5" y="-259.45" font-family="Avenir Next" font-size="10.00" fill="#17232b">BIOL335</text>
</a>
</g>
</g>
<!-- course__BIOL215&#45;&gt;course__BIOL335 -->
<g id="edge6" class="edge">
<title>course__BIOL215&#45;&gt;course__BIOL335</title>
<path fill="none" stroke="#5d6972" stroke-width="1.2" d="M492.43,-195.97C516.2,-209.6 548.81,-228.3 573.24,-242.31"/>
<polygon fill="#5d6972" stroke="#5d6972" stroke-width="1.2" points="572.29,-244.59 579.59,-245.95 574.73,-240.34 572.29,-244.59"/>
</g>
<!-- course__BIOL370 -->
<g id="node7" class="node">
<title>course__BIOL370</title>
<g id="a_node7"><a xlink:href="../../../courses/BIOL370.html" xlink:title="BIOL370: Conservation Biology" target="_top">
<path fill="#dbe8d2" stroke="#1b2730" stroke-width="1.6" d="M625,-223.95C625,-223.95 592,-223.95 592,-223.95 586,-223.95 580,-217.95 580,-211.95 580,-211.95 580,-199.95 580,-199.95 580,-193.95 586,-187.95 592,-187.95 592,-187.95 625,-187.95 625,-187.95 631,-187.95 637,-193.95 637,-199.95 637,-199.95 637,-211.95 637,-211.95 637,-217.95 631,-223.95 625,-223.95"/>
<text text-anchor="middle" x="608.5" y="-203.45" font-family="Avenir Next" font-size="10.00" fill="#17232b">BIOL370</text>
</a>
</g>
</g>
<!-- course__BIOL215&#45;&gt;course__BIOL370 -->
<g id="edge7" class="edge">
<title>course__BIOL215&#45;&gt;course__BIOL370</title>
<path fill="none" stroke="#5d6972" stroke-width="1.2" d="M519.32,-189.1C537.45,-192.56 556.85,-196.27 572.83,-199.33"/>
<polygon fill="#5d6972" stroke="#5d6972" stroke-width="1.2" points="572.58,-201.77 579.91,-200.68 573.5,-196.96 572.58,-201.77"/>
</g>
<!-- course__BIOL418 -->
<g id="node8" class="node">
<title>course__BIOL418</title>
<g id="a_node8"><a xlink:href="../../../courses/BIOL418.html" xlink:title="BIOL418: Forest Ecology" target="_top">
<path fill="#dbe8d2" stroke="#1b2730" stroke-width="1.6" d="M625,-167.95C625,-167.95 592,-167.95 592,-167.95 586,-167.95 580,-161.95 580,-155.95 580,-155.95 580,-143.95 580,-143.95 580,-137.95 586,-131.95 592,-131.95 592,-131.95 625,-131.95 625,-131.95 631,-131.95 637,-137.95 637,-143.95 637,-143.95 637,-155.95 637,-155.95 637,-161.95 631,-167.95 625,-167.95"/>
<text text-anchor="middle" x="608.5" y="-147.45" font-family="Avenir Next" font-size="10.00" fill="#17232b">BIOL418</text>
</a>
</g>
</g>
<!-- course__BIOL215&#45;&gt;course__BIOL418 -->
<g id="edge8" class="edge">
<title>course__BIOL215&#45;&gt;course__BIOL418</title>
<path fill="none" stroke="#5d6972" stroke-width="1.2" d="M519.32,-166.81C537.45,-163.34 556.85,-159.63 572.83,-156.58"/>
<polygon fill="#5d6972" stroke="#5d6972" stroke-width="1.2" points="573.5,-158.95 579.91,-155.23 572.58,-154.13 573.5,-158.95"/>
</g>
<!-- course__BIOL438 -->
<g id="node9" class="node">
<title>course__BIOL438</title>
<g id="a_node9"><a xlink:href="../../../courses/BIOL438.html" xlink:title="BIOL438: Nutrient Cycling and Prokaryotes" target="_top">
<path fill="#dbe8d2" stroke="#1b2730" stroke-width="1.6" d="M625,-111.95C625,-111.95 592,-111.95 592,-111.95 586,-111.95 580,-105.95 580,-99.95 580,-99.95 580,-87.95 580,-87.95 580,-81.95 586,-75.95 592,-75.95 592,-75.95 625,-75.95 625,-75.95 631,-75.95 637,-81.95 637,-87.95 637,-87.95 637,-99.95 637,-99.95 637,-105.95 631,-111.95 625,-111.95"/>
<text text-anchor="middle" x="608.5" y="-91.45" font-family="Avenir Next" font-size="10.00" fill="#17232b">BIOL438</text>
</a>
</g>
</g>
<!-- course__BIOL215&#45;&gt;course__BIOL438 -->
<g id="edge9" class="edge">
<title>course__BIOL215&#45;&gt;course__BIOL438</title>
<path fill="none" stroke="#5d6972" stroke-width="1.2" d="M500,-159.88C506.41,-156.7 512.94,-153.32 519,-149.95 537.83,-139.5 558.18,-126.73 574.61,-116.02"/>
<polygon fill="#5d6972" stroke="#5d6972" stroke-width="1.2" points="575.97,-118.07 580.48,-112.18 573.28,-113.97 575.97,-118.07"/>
</g>
<!-- course__BIOL457 -->
<g id="node10" class="node">
<title>course__BIOL457</title>
<g id="a_node10"><a xlink:href="../../../courses/BIOL457.html" xlink:title="BIOL457: Paleoecology and Environmental Change" target="_top">
<path fill="#dbe8d2" stroke="#1b2730" stroke-width="1.6" d="M625,-55.95C625,-55.95 592,-55.95 592,-55.95 586,-55.95 580,-49.95 580,-43.95 580,-43.95 580,-31.95 580,-31.95 580,-25.95 586,-19.95 592,-19.95 592,-19.95 625,-19.95 625,-19.95 631,-19.95 637,-25.95 637,-31.95 637,-31.95 637,-43.95 637,-43.95 637,-49.95 631,-55.95 625,-55.95"/>
<text text-anchor="middle" x="608.5" y="-35.45" font-family="Avenir Next" font-size="10.00" fill="#17232b">BIOL457</text>
</a>
</g>
</g>
<!-- course__BIOL215&#45;&gt;course__BIOL457 -->
<g id="edge13" class="edge">
<title>course__BIOL215&#45;&gt;course__BIOL457</title>
<path fill="none" stroke="#5d6972" stroke-width="1.2" d="M504.59,-159.88C509.69,-156.92 514.62,-153.61 519,-149.95 554.4,-120.36 550.2,-101.18 580,-65.95 581.32,-64.39 582.71,-62.81 584.13,-61.24"/>
<polygon fill="#5d6972" stroke="#5d6972" stroke-width="1.2" points="586.07,-62.75 589.05,-55.96 582.49,-59.41 586.07,-62.75"/>
</g>
<!-- choice_BIOL446_0_0 -->
<g id="node13" class="node">
<title>choice_BIOL446_0_0</title>
<path fill="#fff7ee" stroke="#b7793f" stroke-width="1.1" d="M740,-170.95C740,-170.95 710,-170.95 710,-170.95 704,-170.95 698,-164.95 698,-158.95 698,-158.95 698,-146.95 698,-146.95 698,-140.95 704,-134.95 710,-134.95 710,-134.95 740,-134.95 740,-134.95 746,-134.95 752,-140.95 752,-146.95 752,-146.95 752,-158.95 752,-158.95 752,-164.95 746,-170.95 740,-170.95"/>
<text text-anchor="middle" x="725" y="-150.75" font-family="Avenir Next" font-size="9.00">1 of</text>
</g>
<!-- course__BIOL215&#45;&gt;choice_BIOL446_0_0 -->
<g id="edge10" class="edge">
<title>course__BIOL215&#45;&gt;choice_BIOL446_0_0</title>
<path fill="none" stroke="#7a8389" d="M506.86,-159.82C511.28,-156.94 515.43,-153.66 519,-149.95 566.05,-101.04 523.23,-47.15 580,-9.95 601.19,3.93 614.92,2.46 637,-9.95 681.93,-35.21 706.37,-94.12 717.14,-127.92"/>
<polygon fill="#7a8389" stroke="#7a8389" points="714.83,-128.76 719.23,-134.73 719.52,-127.32 714.83,-128.76"/>
</g>
<!-- course__BIOL330&#45;&gt;choice_BIOL446_0_0 -->
<g id="edge11" class="edge">
<title>course__BIOL330&#45;&gt;choice_BIOL446_0_0</title>
<path fill="none" stroke="#7a8389" d="M628.42,-299.78C631.41,-296.61 634.37,-293.26 637,-289.95 666.36,-252.98 694.56,-205.71 710.54,-177.47"/>
<polygon fill="#7a8389" stroke="#7a8389" points="712.85,-178.36 714.14,-171.06 708.57,-175.96 712.85,-178.36"/>
</g>
<!-- course__BIOL446 -->
<g id="node11" class="node">
<title>course__BIOL446</title>
<g id="a_node11"><a xlink:href="../../../courses/BIOL446.html" xlink:title="BIOL446: Advanced Aquatic Ecology" target="_top">
<path fill="#dbe8d2" stroke="#1b2730" stroke-width="1.6" d="M858,-170.95C858,-170.95 825,-170.95 825,-170.95 819,-170.95 813,-164.95 813,-158.95 813,-158.95 813,-146.95 813,-146.95 813,-140.95 819,-134.95 825,-134.95 825,-134.95 858,-134.95 858,-134.95 864,-134.95 870,-140.95 870,-146.95 870,-146.95 870,-158.95 870,-158.95 870,-164.95 864,-170.95 858,-170.95"/>
<text text-anchor="middle" x="841.5" y="-150.45" font-family="Avenir Next" font-size="10.00" fill="#17232b">BIOL446</text>
</a>
</g>
</g>
<!-- BIOL215_notes -->
<g id="node12" class="node">
<title>BIOL215_notes</title>
<polygon fill="#fff7ee" stroke="#b7793f" stroke-width="1.1" points="216,-200.95 0,-200.95 0,-154.95 222,-154.95 222,-194.95 216,-200.95"/>
<polyline fill="none" stroke="#b7793f" stroke-width="1.1" points="216,-200.95 216,-194.95 "/>
<polyline fill="none" stroke="#b7793f" stroke-width="1.1" points="222,-194.95 216,-194.95 "/>
<text text-anchor="start" x="13" y="-181.35" font-family="Avenir Next" font-size="12.00">Published notes</text>
<text text-anchor="start" x="13" y="-168.35" font-family="Avenir Next" font-size="12.00">or permission of the department</text>
</g>
<!-- BIOL215_notes&#45;&gt;course__BIOL215 -->
<!-- choice_BIOL446_0_0&#45;&gt;course__BIOL446 -->
<g id="edge12" class="edge">
<title>choice_BIOL446_0_0&#45;&gt;course__BIOL446</title>
<path fill="none" stroke="#5d6972" stroke-width="1.2" d="M752.27,-152.95C768.1,-152.95 788.45,-152.95 805.62,-152.95"/>
<polygon fill="#5d6972" stroke="#5d6972" stroke-width="1.2" points="805.76,-155.4 812.76,-152.95 805.76,-150.5 805.76,-155.4"/>
</g>
</g>
</svg>
