<?xml version="1.0" encoding="UTF-8" standalone="no"?>
<!DOCTYPE svg PUBLIC "-//W3C//DTD SVG 1.1//EN"
 "http://www.w3.org/Graphics/SVG/1.1/DTD/svg11.dtd">
<!-- Generated by graphviz version 2.43.0 (0)
 -->
<!-- Title: BIOL215 Pages: 1 -->
<svg width="918pt" height="599pt"
 viewBox="0.00 0.00 918.20 599.20" xmlns="http://www.w3.org/2000/svg" xmlns:xlink="http://www.w3.org/1999/xlink">
<g id="graph0" class="graph" transform="scale(1 1) rotate(0) translate(21.6 577.6)">
<title>BIOL215</title>
<!-- course__BIOL150A -->
<g id="node1" class="node">
<title>course__BIOL150A</title>
<g id="a_node1"><a xlink:href="../../../courses/BIOL150A.html" xlink:title="BIOL150A: Modern Biology" target="_top">
<path fill="#dbe8d2" stroke="#7e8d96" d="M333,-113C333,-113 295,-113 295,-113 289,-113 283,-107 283,-101 283,-101 283,-89 283,-89 283,-83 289,-77 295,-77 295,-77 333,-77 333,-77 339,-77 345,-83 345,-89 345,-89 345,-101 345,-101 345,-107 339,-113 333,-113"/>
<text text-anchor="middle" x="314" y="-92.8" font-family="Avenir Next" font-size="9.00" fill="#41515b">BIOL150A</text>
</a>
</g>
</g>
<!-- choice_BIOL184_0_0 -->
<g id="node16" class="node">
<title>choice_BIOL184_0_0</title>
<path fill="#fff7ee" stroke="#b7793f" stroke-width="1.1" d="M480,-75C480,-75 450,-75 450,-75 444,-75 438,-69 438,-63 438,-63 438,-51 438,-51 438,-45 444,-39 450,-39 450,-39 480,-39 480,-39 486,-39 492,-45 492,-51 492,-51 492,-63 492,-63 492,-69 486,-75 480,-75"/>
<text text-anchor="middle" x="465" y="-54.8" font-family="Avenir Next" font-size="9.00">1 of</text>
</g>
<!-- course__BIOL150A&#45;&gt;choice_BIOL184_0_0 -->
<g id="edge2" class="edge">
<title>course__BIOL150A&#45;&gt;choice_BIOL184_0_0</title>
<path fill="none" stroke="#7a8389" d="M345.15,-87.31C370.03,-80.97 405.27,-71.98 430.91,-65.44"/>
<polygon fill="#7a8389" stroke="#7a8389" points="431.7,-67.77 437.88,-63.66 430.49,-63.02 431.7,-67.77"/>
</g>
<!-- choice_BIOL186_0_0 -->
<g id="node17" class="node">
<title>choice_BIOL186_0_0</title>
<path fill="#fff7ee" stroke="#b7793f" stroke-width="1.1" d="M745,-75C745,-75 715,-75 715,-75 709,-75 703,-69 703,-63 703,-63 703,-51 703,-51 703,-45 709,-39 715,-39 715,-39 745,-39 745,-39 751,-39 757,-45 757,-51 757,-51 757,-63 757,-63 757,-69 751,-75 745,-75"/>
<text text-anchor="middle" x="730" y="-54.8" font-family="Avenir Next" font-size="9.00">1 of</text>
</g>
<!-- course__BIOL150A&#45;&gt;choice_BIOL186_0_0 -->
<g id="edge5" class="edge">
<title>course__BIOL150A&#45;&gt;choice_BIOL186_0_0</title>
<path fill="none" stroke="#7a8389" d="M345.04,-96.87C402.98,-99.86 533.98,-103.65 642,-85 660.33,-81.83 680.12,-75.7 696.19,-69.97"/>
<polygon fill="#7a8389" stroke="#7a8389" points="697.09,-72.25 702.83,-67.55 695.42,-67.64 697.09,-72.25"/>
</g>
<!-- course__BIOL186 -->
<g id="node2" class="node">
<title>course__BIOL186</title>
<g id="a_node2"><a xlink:href="../../../courses/BIOL186.html" xlink:title="BIOL186: Physiology and Cell Biology" target="_top">
<path fill="#dbe8d2" stroke="#1b2730" stroke-width="1.6" d="M330.5,-36C330.5,-36 297.5,-36 297.5,-36 291.5,-36 285.5,-30 285.5,-24 285.5,-24 285.5,-12 285.5,-12 285.5,-6 291.5,0 297.5,0 297.5,0 330.5,0 330.5,0 336.5,0 342.5,-6 342.5,-12 342.5,-12 342.5,-24 342.5,-24 342.5,-30 336.5,-36 330.5,-36"/>
<text text-anchor="middle" x="314" y="-15.5" font-family="Avenir Next" font-size="10.00" fill="#17232b">BIOL186</text>
</a>
</g>
</g>
<!-- course__BIOL186&#45;&gt;choice_BIOL184_0_0 -->
<g id="edge3" class="edge">
<title>course__BIOL186&#45;&gt;choice_BIOL184_0_0</title>
<path fill="none" stroke="#7a8389" d="M342.68,-25.24C367.71,-31.8 404.6,-41.45 431.12,-48.39"/>
<polygon fill="#7a8389" stroke="#7a8389" points="430.58,-50.78 437.97,-50.19 431.82,-46.04 430.58,-50.78"/>
</g>
<!-- course__BIOL184 -->
<g id="node3" class="node">
<title>course__BIOL184</title>
<g id="a_node3"><a xlink:href="../../../courses/BIOL184.html" xlink:title="BIOL184: Evolution and Biodiversity" target="_top">
<path fill="#dbe8d2" stroke="#1b2730" stroke-width="1.6" d="M630,-75C630,-75 597,-75 597,-75 591,-75 585,-69 585,-63 585,-63 585,-51 585,-51 585,-45 591,-39 597,-39 597,-39 630,-39 630,-39 636,-39 642,-45 642,-51 642,-51 642,-63 642,-63 642,-69 636,-75 630,-75"/>
<text text-anchor="middle" x="613.5" y="-54.5" font-family="Avenir Next" font-size="10.00" fill="#17232b">BIOL184</text>
</a>
</g>
</g>
<!-- course__BIOL184&#45;&gt;choice_BIOL186_0_0 -->
<g id="edge6" class="edge">
<title>course__BIOL184&#45;&gt;choice_BIOL186_0_0</title>
<path fill="none" stroke="#7a8389" d="M642.22,-57C658.32,-57 678.71,-57 695.68,-57"/>
<polygon fill="#7a8389" stroke="#7a8389" points="695.72,-59.45 702.72,-57 695.72,-54.55 695.72,-59.45"/>
</g>
<!-- course__BIOL215 -->
<g id="node4" class="node">
<title>course__BIOL215</title>
<g id="a_node4"><a xlink:href="../../../courses/BIOL215.html" xlink:title="BIOL215: Principles of Ecology" target="_top">
<path fill="#dbe8d2" stroke="#1f4f66" stroke-width="2" d="M512,-369C512,-369 418,-369 418,-369 412,-369 406,-363 406,-357 406,-357 406,-345 406,-345 406,-339 412,-333 418,-333 418,-333 512,-333 512,-333 518,-333 524,-339 524,-345 524,-345 524,-357 524,-357 524,-363 518,-369 512,-369"/>
<text text-anchor="middle" x="465" y="-354" font-family="Avenir Next" font-size="10.00" fill="#17232b">BIOL215</text>
<text text-anchor="middle" x="465" y="-343" font-family="Avenir Next" font-size="10.00" fill="#17232b">Principles of Ecology</text>
</a>
</g>
</g>
<!-- course__BIOL319 -->
<g id="node5" class="node">
<title>course__BIOL319</title>
<g id="a_node5"><a xlink:href="../../../courses/BIOL319.html" xlink:title="BIOL319: Marine Ecology" target="_top">
<path fill="#dbe8d2" stroke="#1b2730" stroke-width="1.6" d="M630,-509C630,-509 597,-509 597,-509 591,-509 585,-503 585,-497 585,-497 585,-485 585,-485 585,-479 591,-473 597,-473 597,-473 630,-473 630,-473 636,-473 642,-479 642,-485 642,-485 642,-497 642,-497 642,-503 636,-509 630,-509"/>
<text text-anchor="middle" x="613.5" y="-488.5" font-family="Avenir Next" font-size="10.00" fill="#17232b">BIOL319</text>
</a>
</g>
</g>
<!-- course__BIOL215&#45;&gt;course__BIOL319 -->
<g id="edge8" class="edge">
<title>course__BIOL215&#45;&gt;course__BIOL319</title>
<path fill="none" stroke="#5d6972" stroke-width="1.2" d="M484.85,-369.02C511.19,-394.18 559.02,-439.89 588.06,-467.64"/>
<polygon fill="#5d6972" stroke="#5d6972" stroke-width="1.2" points="586.5,-469.54 593.25,-472.61 589.89,-466 586.5,-469.54"/>
</g>
<!-- course__BIOL330 -->
<g id="node6" class="node">
<title>course__BIOL330</title>
<g id="a_node6"><a xlink:href="../../../courses/BIOL330.html" xlink:title="BIOL330: Study Design and Data Analysis" target="_top">
<path fill="#dbe8d2" stroke="#1b2730" stroke-width="1.6" d="M630,-453C630,-453 597,-453 597,-453 591,-453 585,-447 585,-441 585,-441 585,-429 585,-429 585,-423 591,-417 597,-417 597,-417 630,-417 630,-417 636,-417 642,-423 642,-429 642,-429 642,-441 642,-441 642,-447 636,-453 630,-453"/>
<text text-anchor="middle" x="613.5" y="-432.5" font-family="Avenir Next" font-size="10.00" fill="#17232b">BIOL330</text>
</a>
</g>
</g>
<!-- course__BIOL215&#45;&gt;course__BIOL330 -->
<g id="edge9" class="edge">
<title>course__BIOL215&#45;&gt;course__BIOL330</title>
<path fill="none" stroke="#5d6972" stroke-width="1.2" d="M497.43,-369.02C521.2,-382.65 553.81,-401.35 578.24,-415.36"/>
<polygon fill="#5d6972" stroke="#5d6972" stroke-width="1.2" points="577.29,-417.64 584.59,-418.99 579.73,-413.39 577.29,-417.64"/>
</g>
<!-- course__BIOL335 -->
<g id="node7" class="node">
<title>course__BIOL335</title>
<g id="a_node7"><a xlink:href="../../../courses/BIOL335.html" xlink:title="BIOL335: Ichthyology" target="_top">
<path fill="#dbe8d2" stroke="#1b2730" stroke-width="1.6" d="M630,-341C630,-341 597,-341 597,-341 591,-341 585,-335 585,-329 585,-329 585,-317 585,-317 585,-311 591,-305 597,-305 597,-305 630,-305 630,-305 636,-305 642,-311 642,-317 642,-317 642,-329 642,-329 642,-335 636,-341 630,-341"/>
<text text-anchor="middle" x="613.5" y="-320.5" font-family="Avenir Next" font-size="10.00" fill="#17232b">BIOL335</text>
</a>
</g>
</g>
<!-- course__BIOL215&#45;&gt;course__BIOL335 -->
<g id="edge10" class="edge">
<title>course__BIOL215&#45;&gt;course__BIOL335</title>
<path fill="none" stroke="#5d6972" stroke-width="1.2" d="M524.32,-339.85C542.45,-336.39 561.85,-332.68 577.83,-329.63"/>
<polygon fill="#5d6972" stroke="#5d6972" stroke-width="1.2" points="578.5,-331.99 584.91,-328.27 577.58,-327.18 578.5,-331.99"/>
</g>
<!-- course__BIOL370 -->
<g id="node8" class="node">
<title>course__BIOL370</title>
<g id="a_node8"><a xlink:href="../../../courses/BIOL370.html" xlink:title="BIOL370: Conservation Biology" target="_top">
<path fill="#dbe8d2" stroke="#1b2730" stroke-width="1.6" d="M630,-397C630,-397 597,-397 597,-397 591,-397 585,-391 585,-385 585,-385 585,-373 585,-373 585,-367 591,-361 597,-361 597,-361 630,-361 630,-361 636,-361 642,-367 642,-373 642,-373 642,-385 642,-385 642,-391 636,-397 630,-397"/>
<text text-anchor="middle" x="613.5" y="-376.5" font-family="Avenir Next" font-size="10.00" fill="#17232b">BIOL370</text>
</a>
</g>
</g>
<!-- course__BIOL215&#45;&gt;course__BIOL370 -->
<g id="edge11" class="edge">
<title>course__BIOL215&#45;&gt;course__BIOL370</title>
<path fill="none" stroke="#5d6972" stroke-width="1.2" d="M524.32,-362.15C542.45,-365.61 561.85,-369.32 577.83,-372.37"/>
<polygon fill="#5d6972" stroke="#5d6972" stroke-width="1.2" points="577.58,-374.82 584.91,-373.73 578.5,-370.01 577.58,-374.82"/>
</g>
<!-- course__BIOL418 -->
<g id="node9" class="node">
<title>course__BIOL418</title>
<g id="a_node9"><a xlink:href="../../../courses/BIOL418.html" xlink:title="BIOL418: Forest Ecology" target="_top">
<path fill="#dbe8d2" stroke="#1b2730" stroke-width="1.6" d="M630,-285C630,-285 597,-285 597,-285 591,-285 585,-279 585,-273 585,-273 585,-261 585,-261 585,-255 591,-249 597,-249 597,-249 630,-249 630,-249 636,-249 642,-255 642,-261 642,-261 642,-273 642,-273 642,-279 636,-285 630,-285"/>
<text text-anchor="middle" x="613.5" y="-264.5" font-family="Avenir Next" font-size="10.00" fill="#17232b">BIOL418</text>
</a>
</g>
</g>
<!-- course__BIOL215&#45;&gt;course__BIOL418 -->
<g id="edge12" class="edge">
<title>course__BIOL215&#45;&gt;course__BIOL418</title>
<path fill="none" stroke="#5d6972" stroke-width="1.2" d="M497.43,-332.98C521.2,-319.35 553.81,-300.65 578.24,-286.64"/>
<polygon fill="#5d6972" stroke="#5d6972" stroke-width="1.2" points="579.73,-288.61 584.59,-283.01 577.29,-284.36 579.73,-288.61"/>
</g>
<!-- course__BIOL438 -->
<g id="node10" class="node">
<title>course__BIOL438</title>
<g id="a_node10"><a xlink:href="../../../courses/BIOL438.html" xlink:title="BIOL438: Nutrient Cycling and Prokaryotes" target="_top">
<path fill="#dbe8d2" stroke="#1b2730" stroke-width="1.6" d="M630,-229C630,-229 597,-229 597,-229 591,-229 585,-223 585,-217 585,-217 585,-205 585,-205 585,-199 591,-193 597,-193 597,-193 630,-193 630,-193 636,-193 642,-199 642,-205 642,-205 642,-217 642,-217 642,-223 636,-229 630,-229"/>
<text text-anchor="middle" x="613.5" y="-208.5" font-family="Avenir Next" font-size="10.00" fill="#17232b">BIOL438</text>
</a>
</g>
</g>
<!-- course__BIOL215&#45;&gt;course__BIOL438 -->
<g id="edge13" class="edge">
<title>course__BIOL215&#45;&gt;course__BIOL438</title>
<path fill="none" stroke="#5d6972" stroke-width="1.2" d="M484.85,-332.98C511.19,-307.82 559.02,-262.11 588.06,-234.36"/>
<polygon fill="#5d6972" stroke="#5d6972" stroke-width="1.2" points="589.89,-236 593.25,-229.39 586.5,-232.46 589.89,-236"/>
</g>
<!-- course__BIOL457 -->
<g id="node11" class="node">
<title>course__BIOL457</title>
<g id="a_node11"><a xlink:href="../../../courses/BIOL457.html" xlink:title="BIOL457: Paleoecology and Environmental Change" target="_top">
<path fill="#dbe8d2" stroke="#1b2730" stroke-width="1.6" d="M630,-173C630,-173 597,-173 597,-173 591,-173 585,-167 585,-161 585,-161 585,-149 585,-149 585,-143 591,-137 597,-137 597,-137 630,-137 630,-137 636,-137 642,-143 642,-149 642,-149 642,-161 642,-161 642,-167 636,-173 630,-173"/>
<text text-anchor="middle" x="613.5" y="-152.5" font-family="Avenir Next" font-size="10.00" fill="#17232b">BIOL457</text>
</a>
</g>
</g>
<!-- course__BIOL215&#45;&gt;course__BIOL457 -->
<g id="edge17" class="edge">
<title>course__BIOL215&#45;&gt;course__BIOL457</title>
<path fill="none" stroke="#5d6972" stroke-width="1.2" d="M477.61,-332.65C497.93,-300.99 541.9,-234.55 585,-183 586.19,-181.58 587.43,-180.15 588.7,-178.72"/>
<polygon fill="#5d6972" stroke="#5d6972" stroke-width="1.2" points="590.78,-180.09 593.73,-173.28 587.18,-176.77 590.78,-180.09"/>
</g>
<!-- choice_BIOL446_0_0 -->
<g id="node18" class="node">
<title>choice_BIOL446_0_0</title>
<path fill="#fff7ee" stroke="#b7793f" stroke-width="1.1" d="M745,-556C745,-556 715,-556 715,-556 709,-556 703,-550 703,-544 703,-544 703,-532 703,-532 703,-526 709,-520 715,-520 715,-520 745,-520 745,-520 751,-520 757,-526 757,-532 757,-532 757,-544 757,-544 757,-550 751,-556 745,-556"/>
<text text-anchor="middle" x="730" y="-535.8" font-family="Avenir Next" font-size="9.00">1 of</text>
</g>
<!-- course__BIOL215&#45;&gt;choice_BIOL446_0_0 -->
<g id="edge14" class="edge">
<title>course__BIOL215&#45;&gt;choice_BIOL446_0_0</title>
<path fill="none" stroke="#7a8389" d="M473,-369.21C487.71,-404.77 525.47,-483.09 585,-519 618.68,-539.32 664.78,-541.93 695.66,-540.87"/>
<polygon fill="#7a8389" stroke="#7a8389" points="695.9,-543.31 702.78,-540.55 695.68,-538.42 695.9,-543.31"/>
</g>
<!-- course__BIOL466 -->
<g id="node14" class="node">
<title>course__BIOL466</title>
<g id="a_node14"><a xlink:href="../../../courses/BIOL466.html" xlink:title="BIOL466: Frontiers in Marine Biology" target="_top">
<path fill="#dbe8d2" stroke="#7e8d96" d="M862.5,-482C862.5,-482 830.5,-482 830.5,-482 824.5,-482 818.5,-476 818.5,-470 818.5,-470 818.5,-458 818.5,-458 818.5,-452 824.5,-446 830.5,-446 830.5,-446 862.5,-446 862.5,-446 868.5,-446 874.5,-452 874.5,-458 874.5,-458 874.5,-470 874.5,-470 874.5,-476 868.5,-482 862.5,-482"/>
<text text-anchor="middle" x="846.5" y="-461.8" font-family="Avenir Next" font-size="9.00" fill="#41515b">BIOL466</text>
</a>
</g>
</g>
<!-- course__BIOL319&#45;&gt;course__BIOL466 -->
<g id="edge21" class="edge">
<title>course__BIOL319&#45;&gt;course__BIOL466</title>
<path fill="none" stroke="#5d6972" stroke-width="1.2" d="M642.36,-487.74C684.74,-482.79 765.28,-473.38 811.19,-468.01"/>
<polygon fill="#5d6972" stroke="#5d6972" stroke-width="1.2" points="811.59,-470.43 818.25,-467.18 811.02,-465.56 811.59,-470.43"/>
</g>
<!-- course__BIOL330&#45;&gt;course__BIOL466 -->
<g id="edge22" class="edge">
<title>course__BIOL330&#45;&gt;course__BIOL466</title>
<path fill="none" stroke="#5d6972" stroke-width="1.2" d="M642.36,-438.5C684.74,-443.82 765.28,-453.93 811.19,-459.69"/>
<polygon fill="#5d6972" stroke="#5d6972" stroke-width="1.2" points="811,-462.14 818.25,-460.58 811.61,-457.28 811,-462.14"/>
</g>
<!-- course__BIOL330&#45;&gt;choice_BIOL446_0_0 -->
<g id="edge15" class="edge">
<title>course__BIOL330&#45;&gt;choice_BIOL446_0_0</title>
<path fill="none" stroke="#7a8389" d="M634.71,-453.18C653.8,-470.35 682.53,-496.2 703.26,-514.84"/>
<polygon fill="#7a8389" stroke="#7a8389" points="701.77,-516.8 708.61,-519.66 705.04,-513.16 701.77,-516.8"/>
</g>
<!-- choice_BIOL461_0_0 -->
<g id="node19" class="node">
<title>choice_BIOL461_0_0</title>
<path fill="#fff7ee" stroke="#b7793f" stroke-width="1.1" d="M745,-408C745,-408 715,-408 715,-408 709,-408 703,-402 703,-396 703,-396 703,-384 703,-384 703,-378 709,-372 715,-372 715,-372 745,-372 745,-372 751,-372 757,-378 757,-384 757,-384 757,-396 757,-396 757,-402 751,-408 745,-408"/>
<text text-anchor="middle" x="730" y="-387.8" font-family="Avenir Next" font-size="9.00">1 of</text>
</g>
<!-- course__BIOL330&#45;&gt;choice_BIOL461_0_0 -->
<g id="edge18" class="edge">
<title>course__BIOL330&#45;&gt;choice_BIOL461_0_0</title>
<path fill="none" stroke="#7a8389" d="M642.22,-424.11C658.46,-417.72 679.07,-409.62 696.13,-402.92"/>
<polygon fill="#7a8389" stroke="#7a8389" points="697.1,-405.17 702.72,-400.33 695.31,-400.61 697.1,-405.17"/>
</g>
<!-- course__BIOL370&#45;&gt;choice_BIOL461_0_0 -->
<g id="edge19" class="edge">
<title>course__BIOL370&#45;&gt;choice_BIOL461_0_0</title>
<path fill="none" stroke="#7a8389" d="M642.22,-381.66C658.32,-383.21 678.71,-385.17 695.68,-386.8"/>
<polygon fill="#7a8389" stroke="#7a8389" points="695.52,-389.24 702.72,-387.48 695.98,-384.37 695.52,-389.24"/>
</g>
<!-- course__BIOL446 -->
<g id="node12" class="node">
<title>course__BIOL446</title>
<g id="a_node12"><a xlink:href="../../../courses/BIOL446.html" xlink:title="BIOL446: Advanced Aquatic Ecology" target="_top">
<path fill="#dbe8d2" stroke="#1b2730" stroke-width="1.6" d="M863,-556C863,-556 830,-556 830,-556 824,-556 818,-550 818,-544 818,-544 818,-532 818,-532 818,-526 824,-520 830,-520 830,-520 863,-520 863,-520 869,-520 875,-526 875,-532 875,-532 875,-544 875,-544 875,-550 869,-556 863,-556"/>
<text text-anchor="middle" x="846.5" y="-535.5" font-family="Avenir Next" font-size="10.00" fill="#17232b">BIOL446</text>
</a>
</g>
</g>
<!-- course__BIOL461 -->
<g id="node13" class="node">
<title>course__BIOL461</title>
<g id="a_node13"><a xlink:href="../../../courses/BIOL461.html" xlink:title="BIOL461: Fisheries Ecology and Management" target="_top">
<path fill="#dbe8d2" stroke="#7e8d96" d="M862.5,-408C862.5,-408 830.5,-408 830.5,-408 824.5,-408 818.5,-402 818.5,-396 818.5,-396 818.5,-384 818.5,-384 818.5,-378 824.5,-372 830.5,-372 830.5,-372 862.5,-372 862.5,-372 868.5,-372 874.5,-378 874.5,-384 874.5,-384 874.5,-396 874.5,-396 874.5,-402 868.5,-408 862.5,-408"/>
<text text-anchor="middle" x="846.5" y="-387.8" font-family="Avenir Next" font-size="9.00" fill="#41515b">BIOL461</text>
</a>
</g>
</g>
<!-- BIOL215_notes -->
<g id="node15" class="node">
<title>BIOL215_notes</title>
<polygon fill="#fff7ee" stroke="#b7793f" stroke-width="1.1" points="216,-374 0,-374 0,-328 222,-328 222,-368 216,-374"/>
<polyline fill="none" stroke="#b7793f" stroke-width="1.1" points="216,-374 216,-368 "/>
<polyline fill="none" stroke="#b7793f" stroke-width="1.1" points="222,-368 216,-368 "/>
<text text-anchor="start" x="13" y="-354.4" font-family="Avenir Next" font-size="12.00">Published notes</text>
<text text-anchor="start" x="13" y="-341.4" font-family="Avenir Next" font-size="12.00">or permission of the department</text>
</g>
<!-- BIOL215_notes&#45;&gt;course__BIOL215 -->
<!-- choice_BIOL184_0_0&#45;&gt;course__BIOL184 -->
<g id="edge4" class="edge">
<title>choice_BIOL184_0_0&#45;&gt;course__BIOL184</title>
<path fill="none" stroke="#5d6972" stroke-width="1.2" d="M492.19,-57C516.04,-57 551.43,-57 577.65,-57"/>
<polygon fill="#5d6972" stroke="#5d6972" stroke-width="1.2" points="577.79,-59.45 584.79,-57 577.79,-54.55 577.79,-59.45"/>
</g>
<!-- choice_BIOL186_0_0&#45;&gt;course__BIOL186 -->
<g id="edge7" class="edge">
<title>choice_BIOL186_0_0&#45;&gt;course__BIOL186</title>
<path fill="none" stroke="#5d6972" stroke-width="1.2" d="M702.83,-46.47C685.8,-40.15 662.95,-32.65 642,-29 536.87,-10.68 409.94,-13.33 349.82,-16.03"/>
<polygon fill="#5d6972" stroke="#5d6972" stroke-width="1.2" points="349.7,-13.58 342.83,-16.36 349.93,-18.48 349.7,-13.58"/>
</g>
<!-- choice_BIOL446_0_0&#45;&gt;course__BIOL446 -->
<g id="edge16" class="edge">
<title>choice_BIOL446_0_0&#45;&gt;course__BIOL446</title>
<path fill="none" stroke="#5d6972" stroke-width="1.2" d="M757.27,-538C773.1,-538 793.45,-538 810.62,-538"/>
<polygon fill="#5d6972" stroke="#5d6972" stroke-width="1.2" points="810.76,-540.45 817.76,-538 810.76,-535.55 810.76,-540.45"/>
</g>
<!-- choice_BIOL461_0_0&#45;&gt;course__BIOL461 -->
<g id="edge20" class="edge">
<title>choice_BIOL461_0_0&#45;&gt;course__BIOL461</title>
<path fill="none" stroke="#5d6972" stroke-width="1.2" d="M757.27,-390C773.21,-390 793.75,-390 810.99,-390"/>
<polygon fill="#5d6972" stroke="#5d6972" stroke-width="1.2" points="811.16,-392.45 818.16,-390 811.16,-387.55 811.16,-392.45"/>
</g>
</g>
</svg>
