<?xml version="1.0" encoding="UTF-8" standalone="no"?>
<!DOCTYPE svg PUBLIC "-//W3C//DTD SVG 1.1//EN"
 "http://www.w3.org/Graphics/SVG/1.1/DTD/svg11.dtd">
<!-- Generated by graphviz version 2.43.0 (0)
 -->
<!-- Title: BIOL225 Pages: 1 -->
<svg width="1128pt" height="416pt"
 viewBox="0.00 0.00 1128.20 415.78" xmlns="http://www.w3.org/2000/svg" xmlns:xlink="http://www.w3.org/1999/xlink">
<g id="graph0" class="graph" transform="scale(1 1) rotate(0) translate(21.6 394.18)">
<title>BIOL225</title>
<!-- course__BIOL150A -->
<g id="node1" class="node">
<title>course__BIOL150A</title>
<g id="a_node1"><a xlink:href="../../../courses/BIOL150A.html" xlink:title="BIOL150A: Modern Biology" target="_top">
<path fill="#dbe8d2" stroke="#7e8d96" d="M50,-110C50,-110 12,-110 12,-110 6,-110 0,-104 0,-98 0,-98 0,-86 0,-86 0,-80 6,-74 12,-74 12,-74 50,-74 50,-74 56,-74 62,-80 62,-86 62,-86 62,-98 62,-98 62,-104 56,-110 50,-110"/>
<text text-anchor="middle" x="31" y="-89.8" font-family="Avenir Next" font-size="9.00" fill="#41515b">BIOL150A</text>
</a>
</g>
</g>
<!-- choice_BIOL184_0_0 -->
<g id="node18" class="node">
<title>choice_BIOL184_0_0</title>
<path fill="#fff7ee" stroke="#b7793f" stroke-width="1.1" d="M165,-138C165,-138 135,-138 135,-138 129,-138 123,-132 123,-126 123,-126 123,-114 123,-114 123,-108 129,-102 135,-102 135,-102 165,-102 165,-102 171,-102 177,-108 177,-114 177,-114 177,-126 177,-126 177,-132 171,-138 165,-138"/>
<text text-anchor="middle" x="150" y="-117.8" font-family="Avenir Next" font-size="9.00">1 of</text>
</g>
<!-- course__BIOL150A&#45;&gt;choice_BIOL184_0_0 -->
<g id="edge2" class="edge">
<title>course__BIOL150A&#45;&gt;choice_BIOL184_0_0</title>
<path fill="none" stroke="#7a8389" d="M62.13,-99.21C78.6,-103.15 99.03,-108.04 115.94,-112.09"/>
<polygon fill="#7a8389" stroke="#7a8389" points="115.57,-114.52 122.95,-113.76 116.71,-109.75 115.57,-114.52"/>
</g>
<!-- choice_BIOL186_0_0 -->
<g id="node19" class="node">
<title>choice_BIOL186_0_0</title>
<path fill="#fff7ee" stroke="#b7793f" stroke-width="1.1" d="M440,-138C440,-138 410,-138 410,-138 404,-138 398,-132 398,-126 398,-126 398,-114 398,-114 398,-108 404,-102 410,-102 410,-102 440,-102 440,-102 446,-102 452,-108 452,-114 452,-114 452,-126 452,-126 452,-132 446,-138 440,-138"/>
<text text-anchor="middle" x="425" y="-117.8" font-family="Avenir Next" font-size="9.00">1 of</text>
</g>
<!-- course__BIOL150A&#45;&gt;choice_BIOL186_0_0 -->
<g id="edge5" class="edge">
<title>course__BIOL150A&#45;&gt;choice_BIOL186_0_0</title>
<path fill="none" stroke="#7a8389" d="M62.09,-89.92C111.07,-87 211.01,-82.99 295,-92 327.91,-95.53 364.74,-103.99 390.6,-110.69"/>
<polygon fill="#7a8389" stroke="#7a8389" points="390.2,-113.12 397.59,-112.53 391.44,-108.38 390.2,-113.12"/>
</g>
<!-- course__BIOL186 -->
<g id="node2" class="node">
<title>course__BIOL186</title>
<g id="a_node2"><a xlink:href="../../../courses/BIOL186.html" xlink:title="BIOL186: Physiology and Cell Biology" target="_top">
<path fill="#dbe8d2" stroke="#1b2730" stroke-width="1.6" d="M47.5,-187C47.5,-187 14.5,-187 14.5,-187 8.5,-187 2.5,-181 2.5,-175 2.5,-175 2.5,-163 2.5,-163 2.5,-157 8.5,-151 14.5,-151 14.5,-151 47.5,-151 47.5,-151 53.5,-151 59.5,-157 59.5,-163 59.5,-163 59.5,-175 59.5,-175 59.5,-181 53.5,-187 47.5,-187"/>
<text text-anchor="middle" x="31" y="-166.5" font-family="Avenir Next" font-size="10.00" fill="#17232b">BIOL186</text>
</a>
</g>
</g>
<!-- course__BIOL225 -->
<g id="node4" class="node">
<title>course__BIOL225</title>
<g id="a_node4"><a xlink:href="../../../courses/BIOL225.html" xlink:title="BIOL225: Principles of Cell Biology" target="_top">
<path fill="#dbe8d2" stroke="#1f4f66" stroke-width="2" d="M482,-211C482,-211 368,-211 368,-211 362,-211 356,-205 356,-199 356,-199 356,-187 356,-187 356,-181 362,-175 368,-175 368,-175 482,-175 482,-175 488,-175 494,-181 494,-187 494,-187 494,-199 494,-199 494,-205 488,-211 482,-211"/>
<text text-anchor="middle" x="425" y="-196" font-family="Avenir Next" font-size="10.00" fill="#17232b">BIOL225</text>
<text text-anchor="middle" x="425" y="-185" font-family="Avenir Next" font-size="10.00" fill="#17232b">Principles of Cell Biology</text>
</a>
</g>
</g>
<!-- course__BIOL186&#45;&gt;course__BIOL225 -->
<g id="edge8" class="edge">
<title>course__BIOL186&#45;&gt;course__BIOL225</title>
<path fill="none" stroke="#5d6972" stroke-width="1.2" d="M59.73,-174.97C77.68,-178.56 101.61,-182.85 123,-185 199.6,-192.71 287.67,-194.2 348.68,-194.07"/>
<polygon fill="#5d6972" stroke="#5d6972" stroke-width="1.2" points="348.99,-196.52 355.98,-194.05 348.97,-191.62 348.99,-196.52"/>
</g>
<!-- course__BIOL186&#45;&gt;choice_BIOL184_0_0 -->
<g id="edge3" class="edge">
<title>course__BIOL186&#45;&gt;choice_BIOL184_0_0</title>
<path fill="none" stroke="#7a8389" d="M59.73,-157.39C76.55,-150.34 98.12,-141.31 115.84,-133.89"/>
<polygon fill="#7a8389" stroke="#7a8389" points="117.17,-135.99 122.68,-131.02 115.27,-131.47 117.17,-135.99"/>
</g>
<!-- course__BIOL184 -->
<g id="node3" class="node">
<title>course__BIOL184</title>
<g id="a_node3"><a xlink:href="../../../courses/BIOL184.html" xlink:title="BIOL184: Evolution and Biodiversity" target="_top">
<path fill="#dbe8d2" stroke="#1b2730" stroke-width="1.6" d="M283,-138C283,-138 250,-138 250,-138 244,-138 238,-132 238,-126 238,-126 238,-114 238,-114 238,-108 244,-102 250,-102 250,-102 283,-102 283,-102 289,-102 295,-108 295,-114 295,-114 295,-126 295,-126 295,-132 289,-138 283,-138"/>
<text text-anchor="middle" x="266.5" y="-117.5" font-family="Avenir Next" font-size="10.00" fill="#17232b">BIOL184</text>
</a>
</g>
</g>
<!-- course__BIOL184&#45;&gt;course__BIOL225 -->
<g id="edge9" class="edge">
<title>course__BIOL184&#45;&gt;course__BIOL225</title>
<path fill="none" stroke="#5d6972" stroke-width="1.2" d="M295.12,-132.88C318.27,-143.68 351.79,-159.32 378.84,-171.93"/>
<polygon fill="#5d6972" stroke="#5d6972" stroke-width="1.2" points="377.83,-174.17 385.21,-174.91 379.9,-169.73 377.83,-174.17"/>
</g>
<!-- course__BIOL184&#45;&gt;choice_BIOL186_0_0 -->
<g id="edge6" class="edge">
<title>course__BIOL184&#45;&gt;choice_BIOL186_0_0</title>
<path fill="none" stroke="#7a8389" d="M295.12,-120C321.78,-120 362.19,-120 390.64,-120"/>
<polygon fill="#7a8389" stroke="#7a8389" points="390.96,-122.45 397.96,-120 390.96,-117.55 390.96,-122.45"/>
</g>
<!-- course__BIOC300A -->
<g id="node5" class="node">
<title>course__BIOC300A</title>
<g id="a_node5"><a xlink:href="../../../courses/BIOC300A.html" xlink:title="BIOC300A: General Biochemistry I" target="_top">
<path fill="#e2e8d5" stroke="#1b2730" stroke-width="1.6" d="M608,-361C608,-361 567,-361 567,-361 561,-361 555,-355 555,-349 555,-349 555,-337 555,-337 555,-331 561,-325 567,-325 567,-325 608,-325 608,-325 614,-325 620,-331 620,-337 620,-337 620,-349 620,-349 620,-355 614,-361 608,-361"/>
<text text-anchor="middle" x="587.5" y="-340.5" font-family="Avenir Next" font-size="10.00" fill="#17232b">BIOC300A</text>
</a>
</g>
</g>
<!-- course__BIOL225&#45;&gt;course__BIOC300A -->
<g id="edge1" class="edge">
<title>course__BIOL225&#45;&gt;course__BIOC300A</title>
<path fill="none" stroke="#5d6972" stroke-width="1.2" d="M445.36,-211.09C474.52,-238.35 529.71,-289.92 561.75,-319.87"/>
<polygon fill="#5d6972" stroke="#5d6972" stroke-width="1.2" points="560.28,-321.85 567.07,-324.84 563.63,-318.27 560.28,-321.85"/>
</g>
<!-- course__BIOL230 -->
<g id="node6" class="node">
<title>course__BIOL230</title>
<g id="a_node6"><a xlink:href="../../../courses/BIOL230.html" xlink:title="BIOL230: Principles of Genetics" target="_top">
<path fill="#dbe8d2" stroke="#1b2730" stroke-width="1.6" d="M604,-260C604,-260 571,-260 571,-260 565,-260 559,-254 559,-248 559,-248 559,-236 559,-236 559,-230 565,-224 571,-224 571,-224 604,-224 604,-224 610,-224 616,-230 616,-236 616,-236 616,-248 616,-248 616,-254 610,-260 604,-260"/>
<text text-anchor="middle" x="587.5" y="-239.5" font-family="Avenir Next" font-size="10.00" fill="#17232b">BIOL230</text>
</a>
</g>
</g>
<!-- course__BIOL225&#45;&gt;course__BIOL230 -->
<g id="edge10" class="edge">
<title>course__BIOL225&#45;&gt;course__BIOL230</title>
<path fill="none" stroke="#5d6972" stroke-width="1.2" d="M485.31,-211.11C507.74,-217.95 532.51,-225.52 551.93,-231.45"/>
<polygon fill="#5d6972" stroke="#5d6972" stroke-width="1.2" points="551.42,-233.85 558.83,-233.55 552.85,-229.17 551.42,-233.85"/>
</g>
<!-- course__BIOL321 -->
<g id="node7" class="node">
<title>course__BIOL321</title>
<g id="a_node7"><a xlink:href="../../../courses/BIOL321.html" xlink:title="BIOL321: Survey of Invertebrates" target="_top">
<path fill="#dbe8d2" stroke="#1b2730" stroke-width="1.6" d="M604,-92C604,-92 571,-92 571,-92 565,-92 559,-86 559,-80 559,-80 559,-68 559,-68 559,-62 565,-56 571,-56 571,-56 604,-56 604,-56 610,-56 616,-62 616,-68 616,-68 616,-80 616,-80 616,-86 610,-92 604,-92"/>
<text text-anchor="middle" x="587.5" y="-71.5" font-family="Avenir Next" font-size="10.00" fill="#17232b">BIOL321</text>
</a>
</g>
</g>
<!-- course__BIOL225&#45;&gt;course__BIOL321 -->
<g id="edge12" class="edge">
<title>course__BIOL225&#45;&gt;course__BIOL321</title>
<path fill="none" stroke="#5d6972" stroke-width="1.2" d="M454.51,-174.95C466.83,-166.94 481.3,-157.25 494,-148 516.59,-131.54 541.28,-111.69 559.46,-96.7"/>
<polygon fill="#5d6972" stroke="#5d6972" stroke-width="1.2" points="561.05,-98.56 564.88,-92.21 557.93,-94.79 561.05,-98.56"/>
</g>
<!-- choice_BIOL330_0_2 -->
<g id="node20" class="node">
<title>choice_BIOL330_0_2</title>
<path fill="#fff7ee" stroke="#b7793f" stroke-width="1.1" d="M723,-211C723,-211 693,-211 693,-211 687,-211 681,-205 681,-199 681,-199 681,-187 681,-187 681,-181 687,-175 693,-175 693,-175 723,-175 723,-175 729,-175 735,-181 735,-187 735,-187 735,-199 735,-199 735,-205 729,-211 723,-211"/>
<text text-anchor="middle" x="708" y="-190.8" font-family="Avenir Next" font-size="9.00">1 of</text>
</g>
<!-- course__BIOL225&#45;&gt;choice_BIOL330_0_2 -->
<g id="edge14" class="edge">
<title>course__BIOL225&#45;&gt;choice_BIOL330_0_2</title>
<path fill="none" stroke="#7a8389" d="M494.02,-193C550.95,-193 629.74,-193 673.79,-193"/>
<polygon fill="#7a8389" stroke="#7a8389" points="673.81,-195.45 680.81,-193 673.81,-190.55 673.81,-195.45"/>
</g>
<!-- choice_BIOL438_0_0 -->
<g id="node22" class="node">
<title>choice_BIOL438_0_0</title>
<path fill="#fff7ee" stroke="#b7793f" stroke-width="1.1" d="M723,-155C723,-155 693,-155 693,-155 687,-155 681,-149 681,-143 681,-143 681,-131 681,-131 681,-125 687,-119 693,-119 693,-119 723,-119 723,-119 729,-119 735,-125 735,-131 735,-131 735,-143 735,-143 735,-149 729,-155 723,-155"/>
<text text-anchor="middle" x="708" y="-134.8" font-family="Avenir Next" font-size="9.00">2 of</text>
</g>
<!-- course__BIOL225&#45;&gt;choice_BIOL438_0_0 -->
<g id="edge23" class="edge">
<title>course__BIOL225&#45;&gt;choice_BIOL438_0_0</title>
<path fill="none" stroke="#7a8389" d="M494.02,-179.44C550.95,-168.1 629.74,-152.4 673.79,-143.62"/>
<polygon fill="#7a8389" stroke="#7a8389" points="674.42,-145.99 680.81,-142.22 673.46,-141.19 674.42,-145.99"/>
</g>
<!-- choice_BIOL435_1 -->
<g id="node21" class="node">
<title>choice_BIOL435_1</title>
<path fill="#fff7ee" stroke="#b7793f" stroke-width="1.1" d="M956,-358C956,-358 926,-358 926,-358 920,-358 914,-352 914,-346 914,-346 914,-334 914,-334 914,-328 920,-322 926,-322 926,-322 956,-322 956,-322 962,-322 968,-328 968,-334 968,-334 968,-346 968,-346 968,-352 962,-358 956,-358"/>
<text text-anchor="middle" x="941" y="-337.8" font-family="Avenir Next" font-size="9.00">1 of</text>
</g>
<!-- course__BIOC300A&#45;&gt;choice_BIOL435_1 -->
<g id="edge20" class="edge">
<title>course__BIOC300A&#45;&gt;choice_BIOL435_1</title>
<path fill="none" stroke="#7a8389" d="M620.01,-351.04C669.74,-362.59 769.38,-381.12 853,-368 871.38,-365.12 891.17,-359 907.23,-353.22"/>
<polygon fill="#7a8389" stroke="#7a8389" points="908.15,-355.49 913.87,-350.77 906.45,-350.89 908.15,-355.49"/>
</g>
<!-- course__BIOL355 -->
<g id="node11" class="node">
<title>course__BIOL355</title>
<g id="a_node11"><a xlink:href="../../../courses/BIOL355.html" xlink:title="BIOL355: Evolution" target="_top">
<path fill="#dbe8d2" stroke="#7e8d96" d="M840.5,-358C840.5,-358 808.5,-358 808.5,-358 802.5,-358 796.5,-352 796.5,-346 796.5,-346 796.5,-334 796.5,-334 796.5,-328 802.5,-322 808.5,-322 808.5,-322 840.5,-322 840.5,-322 846.5,-322 852.5,-328 852.5,-334 852.5,-334 852.5,-346 852.5,-346 852.5,-352 846.5,-358 840.5,-358"/>
<text text-anchor="middle" x="824.5" y="-337.8" font-family="Avenir Next" font-size="9.00" fill="#41515b">BIOL355</text>
</a>
</g>
</g>
<!-- course__BIOL230&#45;&gt;course__BIOL355 -->
<g id="edge17" class="edge">
<title>course__BIOL230&#45;&gt;course__BIOL355</title>
<path fill="none" stroke="#5d6972" stroke-width="1.2" d="M609.12,-260.03C626.98,-274.74 654.12,-294.99 681,-307 716.06,-322.66 759.41,-331.33 789.03,-335.81"/>
<polygon fill="#5d6972" stroke="#5d6972" stroke-width="1.2" points="788.97,-338.28 796.25,-336.86 789.67,-333.43 788.97,-338.28"/>
</g>
<!-- course__BIOL370 -->
<g id="node12" class="node">
<title>course__BIOL370</title>
<g id="a_node12"><a xlink:href="../../../courses/BIOL370.html" xlink:title="BIOL370: Conservation Biology" target="_top">
<path fill="#dbe8d2" stroke="#7e8d96" d="M840.5,-260C840.5,-260 808.5,-260 808.5,-260 802.5,-260 796.5,-254 796.5,-248 796.5,-248 796.5,-236 796.5,-236 796.5,-230 802.5,-224 808.5,-224 808.5,-224 840.5,-224 840.5,-224 846.5,-224 852.5,-230 852.5,-236 852.5,-236 852.5,-248 852.5,-248 852.5,-254 846.5,-260 840.5,-260"/>
<text text-anchor="middle" x="824.5" y="-239.8" font-family="Avenir Next" font-size="9.00" fill="#41515b">BIOL370</text>
</a>
</g>
</g>
<!-- course__BIOL230&#45;&gt;course__BIOL370 -->
<g id="edge18" class="edge">
<title>course__BIOL230&#45;&gt;course__BIOL370</title>
<path fill="none" stroke="#5d6972" stroke-width="1.2" d="M616.38,-242C659.54,-242 742.43,-242 789.2,-242"/>
<polygon fill="#5d6972" stroke="#5d6972" stroke-width="1.2" points="789.38,-244.45 796.38,-242 789.38,-239.55 789.38,-244.45"/>
</g>
<!-- course__BIOL435 -->
<g id="node14" class="node">
<title>course__BIOL435</title>
<g id="a_node14"><a xlink:href="../../../courses/BIOL435.html" xlink:title="BIOL435: Molecular Evolution" target="_top">
<path fill="#dbe8d2" stroke="#7e8d96" d="M1073,-337C1073,-337 1041,-337 1041,-337 1035,-337 1029,-331 1029,-325 1029,-325 1029,-313 1029,-313 1029,-307 1035,-301 1041,-301 1041,-301 1073,-301 1073,-301 1079,-301 1085,-307 1085,-313 1085,-313 1085,-325 1085,-325 1085,-331 1079,-337 1073,-337"/>
<text text-anchor="middle" x="1057" y="-316.8" font-family="Avenir Next" font-size="9.00" fill="#41515b">BIOL435</text>
</a>
</g>
</g>
<!-- course__BIOL230&#45;&gt;course__BIOL435 -->
<g id="edge19" class="edge">
<title>course__BIOL230&#45;&gt;course__BIOL435</title>
<path fill="none" stroke="#5d6972" stroke-width="1.2" d="M616.01,-246.83C634.4,-250.05 659.14,-254.33 681,-258 806.27,-279.02 955.28,-302.94 1021.42,-313.49"/>
<polygon fill="#5d6972" stroke="#5d6972" stroke-width="1.2" points="1021.4,-315.97 1028.69,-314.65 1022.17,-311.13 1021.4,-315.97"/>
</g>
<!-- course__BIOL230&#45;&gt;choice_BIOL330_0_2 -->
<g id="edge15" class="edge">
<title>course__BIOL230&#45;&gt;choice_BIOL330_0_2</title>
<path fill="none" stroke="#7a8389" d="M616.28,-230.51C633.59,-223.36 655.93,-214.12 674.12,-206.6"/>
<polygon fill="#7a8389" stroke="#7a8389" points="675.08,-208.85 680.61,-203.91 673.21,-204.32 675.08,-208.85"/>
</g>
<!-- course__BIOL230&#45;&gt;choice_BIOL438_0_0 -->
<g id="edge24" class="edge">
<title>course__BIOL230&#45;&gt;choice_BIOL438_0_0</title>
<path fill="none" stroke="#7a8389" d="M608.87,-223.95C628.88,-206.22 659.48,-179.11 681.18,-159.87"/>
<polygon fill="#7a8389" stroke="#7a8389" points="682.88,-161.64 686.5,-155.17 679.63,-157.97 682.88,-161.64"/>
</g>
<!-- course__BIOL319 -->
<g id="node8" class="node">
<title>course__BIOL319</title>
<g id="a_node8"><a xlink:href="../../../courses/BIOL319.html" xlink:title="BIOL319: Marine Ecology" target="_top">
<path fill="#dbe8d2" stroke="#7e8d96" d="M840.5,-36C840.5,-36 808.5,-36 808.5,-36 802.5,-36 796.5,-30 796.5,-24 796.5,-24 796.5,-12 796.5,-12 796.5,-6 802.5,0 808.5,0 808.5,0 840.5,0 840.5,0 846.5,0 852.5,-6 852.5,-12 852.5,-12 852.5,-24 852.5,-24 852.5,-30 846.5,-36 840.5,-36"/>
<text text-anchor="middle" x="824.5" y="-15.8" font-family="Avenir Next" font-size="9.00" fill="#41515b">BIOL319</text>
</a>
</g>
</g>
<!-- course__BIOL321&#45;&gt;course__BIOL319 -->
<g id="edge11" class="edge">
<title>course__BIOL321&#45;&gt;course__BIOL319</title>
<path fill="none" stroke="#5d6972" stroke-width="1.2" d="M616.38,-67.36C659.63,-57.05 742.77,-37.24 789.48,-26.11"/>
<polygon fill="#5d6972" stroke="#5d6972" stroke-width="1.2" points="790.14,-28.47 796.38,-24.46 789,-23.7 790.14,-28.47"/>
</g>
<!-- course__BIOL322 -->
<g id="node9" class="node">
<title>course__BIOL322</title>
<g id="a_node9"><a xlink:href="../../../courses/BIOL322.html" xlink:title="BIOL322: Biology of Marine Invertebrates" target="_top">
<path fill="#dbe8d2" stroke="#7e8d96" d="M840.5,-92C840.5,-92 808.5,-92 808.5,-92 802.5,-92 796.5,-86 796.5,-80 796.5,-80 796.5,-68 796.5,-68 796.5,-62 802.5,-56 808.5,-56 808.5,-56 840.5,-56 840.5,-56 846.5,-56 852.5,-62 852.5,-68 852.5,-68 852.5,-80 852.5,-80 852.5,-86 846.5,-92 840.5,-92"/>
<text text-anchor="middle" x="824.5" y="-71.8" font-family="Avenir Next" font-size="9.00" fill="#41515b">BIOL322</text>
</a>
</g>
</g>
<!-- course__BIOL321&#45;&gt;course__BIOL322 -->
<g id="edge13" class="edge">
<title>course__BIOL321&#45;&gt;course__BIOL322</title>
<path fill="none" stroke="#5d6972" stroke-width="1.2" d="M616.38,-74C659.54,-74 742.43,-74 789.2,-74"/>
<polygon fill="#5d6972" stroke="#5d6972" stroke-width="1.2" points="789.38,-76.45 796.38,-74 789.38,-71.55 789.38,-76.45"/>
</g>
<!-- course__BIOL466 -->
<g id="node17" class="node">
<title>course__BIOL466</title>
<g id="a_node17"><a xlink:href="../../../courses/BIOL466.html" xlink:title="BIOL466: Frontiers in Marine Biology" target="_top">
<path fill="#dbe8d2" stroke="#7e8d96" d="M1073,-134C1073,-134 1041,-134 1041,-134 1035,-134 1029,-128 1029,-122 1029,-122 1029,-110 1029,-110 1029,-104 1035,-98 1041,-98 1041,-98 1073,-98 1073,-98 1079,-98 1085,-104 1085,-110 1085,-110 1085,-122 1085,-122 1085,-128 1079,-134 1073,-134"/>
<text text-anchor="middle" x="1057" y="-113.8" font-family="Avenir Next" font-size="9.00" fill="#41515b">BIOL466</text>
</a>
</g>
</g>
<!-- course__BIOL319&#45;&gt;course__BIOL466 -->
<g id="edge30" class="edge">
<title>course__BIOL319&#45;&gt;course__BIOL466</title>
<path fill="none" stroke="#5d6972" stroke-width="1.2" d="M852.85,-29.63C895.13,-47.6 976.27,-82.1 1022.18,-101.62"/>
<polygon fill="#5d6972" stroke="#5d6972" stroke-width="1.2" points="1021.29,-103.9 1028.69,-104.39 1023.21,-99.39 1021.29,-103.9"/>
</g>
<!-- course__BIOL330 -->
<g id="node10" class="node">
<title>course__BIOL330</title>
<g id="a_node10"><a xlink:href="../../../courses/BIOL330.html" xlink:title="BIOL330: Study Design and Data Analysis" target="_top">
<path fill="#dbe8d2" stroke="#1b2730" stroke-width="1.6" d="M841,-204C841,-204 808,-204 808,-204 802,-204 796,-198 796,-192 796,-192 796,-180 796,-180 796,-174 802,-168 808,-168 808,-168 841,-168 841,-168 847,-168 853,-174 853,-180 853,-180 853,-192 853,-192 853,-198 847,-204 841,-204"/>
<text text-anchor="middle" x="824.5" y="-183.5" font-family="Avenir Next" font-size="10.00" fill="#17232b">BIOL330</text>
</a>
</g>
</g>
<!-- course__BIOL446 -->
<g id="node15" class="node">
<title>course__BIOL446</title>
<g id="a_node15"><a xlink:href="../../../courses/BIOL446.html" xlink:title="BIOL446: Advanced Aquatic Ecology" target="_top">
<path fill="#dbe8d2" stroke="#7e8d96" d="M1073,-204C1073,-204 1041,-204 1041,-204 1035,-204 1029,-198 1029,-192 1029,-192 1029,-180 1029,-180 1029,-174 1035,-168 1041,-168 1041,-168 1073,-168 1073,-168 1079,-168 1085,-174 1085,-180 1085,-180 1085,-192 1085,-192 1085,-198 1079,-204 1073,-204"/>
<text text-anchor="middle" x="1057" y="-183.8" font-family="Avenir Next" font-size="9.00" fill="#41515b">BIOL446</text>
</a>
</g>
</g>
<!-- course__BIOL330&#45;&gt;course__BIOL446 -->
<g id="edge26" class="edge">
<title>course__BIOL330&#45;&gt;course__BIOL446</title>
<path fill="none" stroke="#5d6972" stroke-width="1.2" d="M853.3,-186C895.58,-186 975.96,-186 1021.77,-186"/>
<polygon fill="#5d6972" stroke="#5d6972" stroke-width="1.2" points="1021.81,-188.45 1028.81,-186 1021.81,-183.55 1021.81,-188.45"/>
</g>
<!-- course__BIOL330&#45;&gt;course__BIOL466 -->
<g id="edge31" class="edge">
<title>course__BIOL330&#45;&gt;course__BIOL466</title>
<path fill="none" stroke="#5d6972" stroke-width="1.2" d="M853.3,-177.56C895.67,-164.69 976.29,-140.21 1022.05,-126.31"/>
<polygon fill="#5d6972" stroke="#5d6972" stroke-width="1.2" points="1022.83,-128.63 1028.81,-124.26 1021.4,-123.95 1022.83,-128.63"/>
</g>
<!-- choice_BIOL461_0_0 -->
<g id="node23" class="node">
<title>choice_BIOL461_0_0</title>
<path fill="#fff7ee" stroke="#b7793f" stroke-width="1.1" d="M956,-260C956,-260 926,-260 926,-260 920,-260 914,-254 914,-248 914,-248 914,-236 914,-236 914,-230 920,-224 926,-224 926,-224 956,-224 956,-224 962,-224 968,-230 968,-236 968,-236 968,-248 968,-248 968,-254 962,-260 956,-260"/>
<text text-anchor="middle" x="941" y="-239.8" font-family="Avenir Next" font-size="9.00">1 of</text>
</g>
<!-- course__BIOL330&#45;&gt;choice_BIOL461_0_0 -->
<g id="edge27" class="edge">
<title>course__BIOL330&#45;&gt;choice_BIOL461_0_0</title>
<path fill="none" stroke="#7a8389" d="M853.22,-199.56C869.46,-207.5 890.07,-217.58 907.13,-225.92"/>
<polygon fill="#7a8389" stroke="#7a8389" points="906.35,-228.27 913.72,-229.15 908.51,-223.87 906.35,-228.27"/>
</g>
<!-- course__BIOL355&#45;&gt;choice_BIOL435_1 -->
<g id="edge21" class="edge">
<title>course__BIOL355&#45;&gt;choice_BIOL435_1</title>
<path fill="none" stroke="#7a8389" d="M852.63,-340C868.84,-340 889.54,-340 906.72,-340"/>
<polygon fill="#7a8389" stroke="#7a8389" points="906.85,-342.45 913.85,-340 906.85,-337.55 906.85,-342.45"/>
</g>
<!-- course__BIOL370&#45;&gt;choice_BIOL461_0_0 -->
<g id="edge28" class="edge">
<title>course__BIOL370&#45;&gt;choice_BIOL461_0_0</title>
<path fill="none" stroke="#7a8389" d="M852.63,-242C868.84,-242 889.54,-242 906.72,-242"/>
<polygon fill="#7a8389" stroke="#7a8389" points="906.85,-244.45 913.85,-242 906.85,-239.55 906.85,-244.45"/>
</g>
<!-- course__BIOL438 -->
<g id="node13" class="node">
<title>course__BIOL438</title>
<g id="a_node13"><a xlink:href="../../../courses/BIOL438.html" xlink:title="BIOL438: Nutrient Cycling and Prokaryotes" target="_top">
<path fill="#dbe8d2" stroke="#1b2730" stroke-width="1.6" d="M841,-148C841,-148 808,-148 808,-148 802,-148 796,-142 796,-136 796,-136 796,-124 796,-124 796,-118 802,-112 808,-112 808,-112 841,-112 841,-112 847,-112 853,-118 853,-124 853,-124 853,-136 853,-136 853,-142 847,-148 841,-148"/>
<text text-anchor="middle" x="824.5" y="-127.5" font-family="Avenir Next" font-size="10.00" fill="#17232b">BIOL438</text>
</a>
</g>
</g>
<!-- course__BIOL461 -->
<g id="node16" class="node">
<title>course__BIOL461</title>
<g id="a_node16"><a xlink:href="../../../courses/BIOL461.html" xlink:title="BIOL461: Fisheries Ecology and Management" target="_top">
<path fill="#dbe8d2" stroke="#7e8d96" d="M1073,-260C1073,-260 1041,-260 1041,-260 1035,-260 1029,-254 1029,-248 1029,-248 1029,-236 1029,-236 1029,-230 1035,-224 1041,-224 1041,-224 1073,-224 1073,-224 1079,-224 1085,-230 1085,-236 1085,-236 1085,-248 1085,-248 1085,-254 1079,-260 1073,-260"/>
<text text-anchor="middle" x="1057" y="-239.8" font-family="Avenir Next" font-size="9.00" fill="#41515b">BIOL461</text>
</a>
</g>
</g>
<!-- choice_BIOL184_0_0&#45;&gt;course__BIOL184 -->
<g id="edge4" class="edge">
<title>choice_BIOL184_0_0&#45;&gt;course__BIOL184</title>
<path fill="none" stroke="#5d6972" stroke-width="1.2" d="M177.27,-120C193.1,-120 213.45,-120 230.62,-120"/>
<polygon fill="#5d6972" stroke="#5d6972" stroke-width="1.2" points="230.76,-122.45 237.76,-120 230.76,-117.55 230.76,-122.45"/>
</g>
<!-- choice_BIOL186_0_0&#45;&gt;course__BIOL186 -->
<g id="edge7" class="edge">
<title>choice_BIOL186_0_0&#45;&gt;course__BIOL186</title>
<path fill="none" stroke="#5d6972" stroke-width="1.2" d="M398,-126.72C372.08,-133.16 331.05,-142.67 295,-148 213.8,-160 117.42,-165.49 66.89,-167.7"/>
<polygon fill="#5d6972" stroke="#5d6972" stroke-width="1.2" points="66.67,-165.26 59.78,-168.01 66.88,-170.16 66.67,-165.26"/>
</g>
<!-- choice_BIOL330_0_2&#45;&gt;course__BIOL330 -->
<g id="edge16" class="edge">
<title>choice_BIOL330_0_2&#45;&gt;course__BIOL330</title>
<path fill="none" stroke="#5d6972" stroke-width="1.2" d="M735.27,-191.39C751.1,-190.43 771.45,-189.18 788.62,-188.13"/>
<polygon fill="#5d6972" stroke="#5d6972" stroke-width="1.2" points="788.92,-190.57 795.76,-187.7 788.62,-185.68 788.92,-190.57"/>
</g>
<!-- choice_BIOL435_1&#45;&gt;course__BIOL435 -->
<g id="edge22" class="edge">
<title>choice_BIOL435_1&#45;&gt;course__BIOL435</title>
<path fill="none" stroke="#5d6972" stroke-width="1.2" d="M968.15,-335.18C984.03,-332.26 1004.47,-328.49 1021.64,-325.33"/>
<polygon fill="#5d6972" stroke="#5d6972" stroke-width="1.2" points="1022.34,-327.69 1028.78,-324.01 1021.45,-322.87 1022.34,-327.69"/>
</g>
<!-- choice_BIOL438_0_0&#45;&gt;course__BIOL438 -->
<g id="edge25" class="edge">
<title>choice_BIOL438_0_0&#45;&gt;course__BIOL438</title>
<path fill="none" stroke="#5d6972" stroke-width="1.2" d="M735.27,-135.39C751.1,-134.43 771.45,-133.18 788.62,-132.13"/>
<polygon fill="#5d6972" stroke="#5d6972" stroke-width="1.2" points="788.92,-134.57 795.76,-131.7 788.62,-129.68 788.92,-134.57"/>
</g>
<!-- choice_BIOL461_0_0&#45;&gt;course__BIOL461 -->
<g id="edge29" class="edge">
<title>choice_BIOL461_0_0&#45;&gt;course__BIOL461</title>
<path fill="none" stroke="#5d6972" stroke-width="1.2" d="M968.15,-242C984.03,-242 1004.47,-242 1021.64,-242"/>
<polygon fill="#5d6972" stroke="#5d6972" stroke-width="1.2" points="1021.78,-244.45 1028.78,-242 1021.78,-239.55 1021.78,-244.45"/>
</g>
</g>
</svg>
