<?xml version="1.0" encoding="UTF-8" standalone="no"?>
<!DOCTYPE svg PUBLIC "-//W3C//DTD SVG 1.1//EN"
 "http://www.w3.org/Graphics/SVG/1.1/DTD/svg11.dtd">
<!-- Generated by graphviz version 2.43.0 (0)
 -->
<!-- Title: BIOL321 Pages: 1 -->
<svg width="883pt" height="208pt"
 viewBox="0.00 0.00 883.20 208.20" xmlns="http://www.w3.org/2000/svg" xmlns:xlink="http://www.w3.org/1999/xlink">
<g id="graph0" class="graph" transform="scale(1 1) rotate(0) translate(21.6 186.6)">
<title>BIOL321</title>
<!-- course__BIOL150A -->
<g id="node1" class="node">
<title>course__BIOL150A</title>
<g id="a_node1"><a xlink:href="../../../courses/BIOL150A.html" xlink:title="BIOL150A: Modern Biology" target="_top">
<path fill="#dbe8d2" stroke="#7e8d96" d="M50,-165C50,-165 12,-165 12,-165 6,-165 0,-159 0,-153 0,-153 0,-141 0,-141 0,-135 6,-129 12,-129 12,-129 50,-129 50,-129 56,-129 62,-135 62,-141 62,-141 62,-153 62,-153 62,-159 56,-165 50,-165"/>
<text text-anchor="middle" x="31" y="-144.8" font-family="Avenir Next" font-size="9.00" fill="#41515b">BIOL150A</text>
</a>
</g>
</g>
<!-- choice_BIOL184_0_0 -->
<g id="node9" class="node">
<title>choice_BIOL184_0_0</title>
<path fill="#fff7ee" stroke="#b7793f" stroke-width="1.1" d="M399.5,-137C399.5,-137 369.5,-137 369.5,-137 363.5,-137 357.5,-131 357.5,-125 357.5,-125 357.5,-113 357.5,-113 357.5,-107 363.5,-101 369.5,-101 369.5,-101 399.5,-101 399.5,-101 405.5,-101 411.5,-107 411.5,-113 411.5,-113 411.5,-125 411.5,-125 411.5,-131 405.5,-137 399.5,-137"/>
<text text-anchor="middle" x="384.5" y="-116.8" font-family="Avenir Next" font-size="9.00">1 of</text>
</g>
<!-- course__BIOL150A&#45;&gt;choice_BIOL184_0_0 -->
<g id="edge1" class="edge">
<title>course__BIOL150A&#45;&gt;choice_BIOL184_0_0</title>
<path fill="none" stroke="#7a8389" d="M62.2,-149.97C111.35,-154.15 211.52,-159.89 295,-147 313.81,-144.09 334.11,-137.91 350.51,-132.09"/>
<polygon fill="#7a8389" stroke="#7a8389" points="351.54,-134.32 357.29,-129.63 349.87,-129.71 351.54,-134.32"/>
</g>
<!-- choice_BIOL186_0_0 -->
<g id="node10" class="node">
<title>choice_BIOL186_0_0</title>
<path fill="#fff7ee" stroke="#b7793f" stroke-width="1.1" d="M165,-137C165,-137 135,-137 135,-137 129,-137 123,-131 123,-125 123,-125 123,-113 123,-113 123,-107 129,-101 135,-101 135,-101 165,-101 165,-101 171,-101 177,-107 177,-113 177,-113 177,-125 177,-125 177,-131 171,-137 165,-137"/>
<text text-anchor="middle" x="150" y="-116.8" font-family="Avenir Next" font-size="9.00">1 of</text>
</g>
<!-- course__BIOL150A&#45;&gt;choice_BIOL186_0_0 -->
<g id="edge4" class="edge">
<title>course__BIOL150A&#45;&gt;choice_BIOL186_0_0</title>
<path fill="none" stroke="#7a8389" d="M62.13,-139.79C78.6,-135.85 99.03,-130.96 115.94,-126.91"/>
<polygon fill="#7a8389" stroke="#7a8389" points="116.71,-129.25 122.95,-125.24 115.57,-124.48 116.71,-129.25"/>
</g>
<!-- course__BIOL184 -->
<g id="node2" class="node">
<title>course__BIOL184</title>
<g id="a_node2"><a xlink:href="../../../courses/BIOL184.html" xlink:title="BIOL184: Evolution and Biodiversity" target="_top">
<path fill="#dbe8d2" stroke="#1b2730" stroke-width="1.6" d="M47.5,-88C47.5,-88 14.5,-88 14.5,-88 8.5,-88 2.5,-82 2.5,-76 2.5,-76 2.5,-64 2.5,-64 2.5,-58 8.5,-52 14.5,-52 14.5,-52 47.5,-52 47.5,-52 53.5,-52 59.5,-58 59.5,-64 59.5,-64 59.5,-76 59.5,-76 59.5,-82 53.5,-88 47.5,-88"/>
<text text-anchor="middle" x="31" y="-67.5" font-family="Avenir Next" font-size="10.00" fill="#17232b">BIOL184</text>
</a>
</g>
</g>
<!-- course__BIOL225 -->
<g id="node4" class="node">
<title>course__BIOL225</title>
<g id="a_node4"><a xlink:href="../../../courses/BIOL225.html" xlink:title="BIOL225: Principles of Cell Biology" target="_top">
<path fill="#dbe8d2" stroke="#1b2730" stroke-width="1.6" d="M401,-64C401,-64 368,-64 368,-64 362,-64 356,-58 356,-52 356,-52 356,-40 356,-40 356,-34 362,-28 368,-28 368,-28 401,-28 401,-28 407,-28 413,-34 413,-40 413,-40 413,-52 413,-52 413,-58 407,-64 401,-64"/>
<text text-anchor="middle" x="384.5" y="-43.5" font-family="Avenir Next" font-size="10.00" fill="#17232b">BIOL225</text>
</a>
</g>
</g>
<!-- course__BIOL184&#45;&gt;course__BIOL225 -->
<g id="edge8" class="edge">
<title>course__BIOL184&#45;&gt;course__BIOL225</title>
<path fill="none" stroke="#5d6972" stroke-width="1.2" d="M59.73,-64.06C77.69,-60.48 101.62,-56.2 123,-54 203.44,-45.74 298.52,-45.11 348.6,-45.49"/>
<polygon fill="#5d6972" stroke="#5d6972" stroke-width="1.2" points="348.63,-47.94 355.65,-45.55 348.68,-43.04 348.63,-47.94"/>
</g>
<!-- course__BIOL184&#45;&gt;choice_BIOL186_0_0 -->
<g id="edge5" class="edge">
<title>course__BIOL184&#45;&gt;choice_BIOL186_0_0</title>
<path fill="none" stroke="#7a8389" d="M59.73,-81.61C76.55,-88.66 98.12,-97.69 115.84,-105.11"/>
<polygon fill="#7a8389" stroke="#7a8389" points="115.27,-107.53 122.68,-107.98 117.17,-103.01 115.27,-107.53"/>
</g>
<!-- course__BIOL186 -->
<g id="node3" class="node">
<title>course__BIOL186</title>
<g id="a_node3"><a xlink:href="../../../courses/BIOL186.html" xlink:title="BIOL186: Physiology and Cell Biology" target="_top">
<path fill="#dbe8d2" stroke="#1b2730" stroke-width="1.6" d="M283,-137C283,-137 250,-137 250,-137 244,-137 238,-131 238,-125 238,-125 238,-113 238,-113 238,-107 244,-101 250,-101 250,-101 283,-101 283,-101 289,-101 295,-107 295,-113 295,-113 295,-125 295,-125 295,-131 289,-137 283,-137"/>
<text text-anchor="middle" x="266.5" y="-116.5" font-family="Avenir Next" font-size="10.00" fill="#17232b">BIOL186</text>
</a>
</g>
</g>
<!-- course__BIOL186&#45;&gt;course__BIOL225 -->
<g id="edge7" class="edge">
<title>course__BIOL186&#45;&gt;course__BIOL225</title>
<path fill="none" stroke="#5d6972" stroke-width="1.2" d="M295.28,-101.51C311.64,-91.22 332.45,-78.13 349.74,-67.24"/>
<polygon fill="#5d6972" stroke="#5d6972" stroke-width="1.2" points="351.32,-69.14 355.94,-63.34 348.71,-65 351.32,-69.14"/>
</g>
<!-- course__BIOL186&#45;&gt;choice_BIOL184_0_0 -->
<g id="edge2" class="edge">
<title>course__BIOL186&#45;&gt;choice_BIOL184_0_0</title>
<path fill="none" stroke="#7a8389" d="M295.28,-119C311.71,-119 332.61,-119 349.95,-119"/>
<polygon fill="#7a8389" stroke="#7a8389" points="350.14,-121.45 357.14,-119 350.14,-116.55 350.14,-121.45"/>
</g>
<!-- course__BIOL321 -->
<g id="node5" class="node">
<title>course__BIOL321</title>
<g id="a_node5"><a xlink:href="../../../courses/BIOL321.html" xlink:title="BIOL321: Survey of Invertebrates" target="_top">
<path fill="#dbe8d2" stroke="#1f4f66" stroke-width="2" d="M593,-64C593,-64 486,-64 486,-64 480,-64 474,-58 474,-52 474,-52 474,-40 474,-40 474,-34 480,-28 486,-28 486,-28 593,-28 593,-28 599,-28 605,-34 605,-40 605,-40 605,-52 605,-52 605,-58 599,-64 593,-64"/>
<text text-anchor="middle" x="539.5" y="-49" font-family="Avenir Next" font-size="10.00" fill="#17232b">BIOL321</text>
<text text-anchor="middle" x="539.5" y="-38" font-family="Avenir Next" font-size="10.00" fill="#17232b">Survey of Invertebrates</text>
</a>
</g>
</g>
<!-- course__BIOL225&#45;&gt;course__BIOL321 -->
<g id="edge10" class="edge">
<title>course__BIOL225&#45;&gt;course__BIOL321</title>
<path fill="none" stroke="#5d6972" stroke-width="1.2" d="M413.21,-46C428.25,-46 447.61,-46 466.6,-46"/>
<polygon fill="#5d6972" stroke="#5d6972" stroke-width="1.2" points="466.84,-48.45 473.84,-46 466.84,-43.55 466.84,-48.45"/>
</g>
<!-- course__BIOL319 -->
<g id="node6" class="node">
<title>course__BIOL319</title>
<g id="a_node6"><a xlink:href="../../../courses/BIOL319.html" xlink:title="BIOL319: Marine Ecology" target="_top">
<path fill="#dbe8d2" stroke="#1b2730" stroke-width="1.6" d="M711,-92C711,-92 678,-92 678,-92 672,-92 666,-86 666,-80 666,-80 666,-68 666,-68 666,-62 672,-56 678,-56 678,-56 711,-56 711,-56 717,-56 723,-62 723,-68 723,-68 723,-80 723,-80 723,-86 717,-92 711,-92"/>
<text text-anchor="middle" x="694.5" y="-71.5" font-family="Avenir Next" font-size="10.00" fill="#17232b">BIOL319</text>
</a>
</g>
</g>
<!-- course__BIOL321&#45;&gt;course__BIOL319 -->
<g id="edge9" class="edge">
<title>course__BIOL321&#45;&gt;course__BIOL319</title>
<path fill="none" stroke="#5d6972" stroke-width="1.2" d="M605.39,-57.87C623.75,-61.24 643.03,-64.76 658.85,-67.66"/>
<polygon fill="#5d6972" stroke="#5d6972" stroke-width="1.2" points="658.54,-70.09 665.86,-68.94 659.42,-65.27 658.54,-70.09"/>
</g>
<!-- course__BIOL322 -->
<g id="node7" class="node">
<title>course__BIOL322</title>
<g id="a_node7"><a xlink:href="../../../courses/BIOL322.html" xlink:title="BIOL322: Biology of Marine Invertebrates" target="_top">
<path fill="#dbe8d2" stroke="#1b2730" stroke-width="1.6" d="M711,-36C711,-36 678,-36 678,-36 672,-36 666,-30 666,-24 666,-24 666,-12 666,-12 666,-6 672,0 678,0 678,0 711,0 711,0 717,0 723,-6 723,-12 723,-12 723,-24 723,-24 723,-30 717,-36 711,-36"/>
<text text-anchor="middle" x="694.5" y="-15.5" font-family="Avenir Next" font-size="10.00" fill="#17232b">BIOL322</text>
</a>
</g>
</g>
<!-- course__BIOL321&#45;&gt;course__BIOL322 -->
<g id="edge11" class="edge">
<title>course__BIOL321&#45;&gt;course__BIOL322</title>
<path fill="none" stroke="#5d6972" stroke-width="1.2" d="M605.39,-34.13C623.75,-30.76 643.03,-27.24 658.85,-24.34"/>
<polygon fill="#5d6972" stroke="#5d6972" stroke-width="1.2" points="659.42,-26.73 665.86,-23.06 658.54,-21.91 659.42,-26.73"/>
</g>
<!-- course__BIOL466 -->
<g id="node8" class="node">
<title>course__BIOL466</title>
<g id="a_node8"><a xlink:href="../../../courses/BIOL466.html" xlink:title="BIOL466: Frontiers in Marine Biology" target="_top">
<path fill="#dbe8d2" stroke="#7e8d96" d="M828,-92C828,-92 796,-92 796,-92 790,-92 784,-86 784,-80 784,-80 784,-68 784,-68 784,-62 790,-56 796,-56 796,-56 828,-56 828,-56 834,-56 840,-62 840,-68 840,-68 840,-80 840,-80 840,-86 834,-92 828,-92"/>
<text text-anchor="middle" x="812" y="-71.8" font-family="Avenir Next" font-size="9.00" fill="#41515b">BIOL466</text>
</a>
</g>
</g>
<!-- course__BIOL319&#45;&gt;course__BIOL466 -->
<g id="edge12" class="edge">
<title>course__BIOL319&#45;&gt;course__BIOL466</title>
<path fill="none" stroke="#5d6972" stroke-width="1.2" d="M723.17,-74C739.28,-74 759.74,-74 776.85,-74"/>
<polygon fill="#5d6972" stroke="#5d6972" stroke-width="1.2" points="776.96,-76.45 783.96,-74 776.96,-71.55 776.96,-76.45"/>
</g>
<!-- choice_BIOL184_0_0&#45;&gt;course__BIOL184 -->
<g id="edge3" class="edge">
<title>choice_BIOL184_0_0&#45;&gt;course__BIOL184</title>
<path fill="none" stroke="#5d6972" stroke-width="1.2" d="M357.19,-108.94C339.79,-102.73 316.35,-95.17 295,-91 214.23,-75.21 117.29,-71.24 66.66,-70.28"/>
<polygon fill="#5d6972" stroke="#5d6972" stroke-width="1.2" points="66.58,-67.82 59.54,-70.16 66.49,-72.72 66.58,-67.82"/>
</g>
<!-- choice_BIOL186_0_0&#45;&gt;course__BIOL186 -->
<g id="edge6" class="edge">
<title>choice_BIOL186_0_0&#45;&gt;course__BIOL186</title>
<path fill="none" stroke="#5d6972" stroke-width="1.2" d="M177.27,-119C193.1,-119 213.45,-119 230.62,-119"/>
<polygon fill="#5d6972" stroke="#5d6972" stroke-width="1.2" points="230.76,-121.45 237.76,-119 230.76,-116.55 230.76,-121.45"/>
</g>
</g>
</svg>
