<?xml version="1.0" encoding="UTF-8" standalone="no"?>
<!DOCTYPE svg PUBLIC "-//W3C//DTD SVG 1.1//EN"
 "http://www.w3.org/Graphics/SVG/1.1/DTD/svg11.dtd">
<!-- Generated by graphviz version 2.43.0 (0)
 -->
<!-- Title: BIOL438 Pages: 1 -->
<svg width="988pt" height="232pt"
 viewBox="0.00 0.00 988.20 231.80" xmlns="http://www.w3.org/2000/svg" xmlns:xlink="http://www.w3.org/1999/xlink">
<g id="graph0" class="graph" transform="scale(1 1) rotate(0) translate(21.6 210.2)">
<title>BIOL438</title>
<!-- course__BIOL150A -->
<g id="node1" class="node">
<title>course__BIOL150A</title>
<g id="a_node1"><a xlink:href="../../../courses/BIOL150A.html" xlink:title="BIOL150A: Modern Biology" target="_top">
<path fill="#dbe8d2" stroke="#7e8d96" d="M50,-106C50,-106 12,-106 12,-106 6,-106 0,-100 0,-94 0,-94 0,-82 0,-82 0,-76 6,-70 12,-70 12,-70 50,-70 50,-70 56,-70 62,-76 62,-82 62,-82 62,-94 62,-94 62,-100 56,-106 50,-106"/>
<text text-anchor="middle" x="31" y="-85.8" font-family="Avenir Next" font-size="9.00" fill="#41515b">BIOL150A</text>
</a>
</g>
</g>
<!-- choice_BIOL184_0_0 -->
<g id="node10" class="node">
<title>choice_BIOL184_0_0</title>
<path fill="#fff7ee" stroke="#b7793f" stroke-width="1.1" d="M165,-134C165,-134 135,-134 135,-134 129,-134 123,-128 123,-122 123,-122 123,-110 123,-110 123,-104 129,-98 135,-98 135,-98 165,-98 165,-98 171,-98 177,-104 177,-110 177,-110 177,-122 177,-122 177,-128 171,-134 165,-134"/>
<text text-anchor="middle" x="150" y="-113.8" font-family="Avenir Next" font-size="9.00">1 of</text>
</g>
<!-- course__BIOL150A&#45;&gt;choice_BIOL184_0_0 -->
<g id="edge1" class="edge">
<title>course__BIOL150A&#45;&gt;choice_BIOL184_0_0</title>
<path fill="none" stroke="#7a8389" d="M62.13,-95.21C78.6,-99.15 99.03,-104.04 115.94,-108.09"/>
<polygon fill="#7a8389" stroke="#7a8389" points="115.57,-110.52 122.95,-109.76 116.71,-105.75 115.57,-110.52"/>
</g>
<!-- choice_BIOL186_0_0 -->
<g id="node11" class="node">
<title>choice_BIOL186_0_0</title>
<path fill="#fff7ee" stroke="#b7793f" stroke-width="1.1" d="M458.5,-123C458.5,-123 428.5,-123 428.5,-123 422.5,-123 416.5,-117 416.5,-111 416.5,-111 416.5,-99 416.5,-99 416.5,-93 422.5,-87 428.5,-87 428.5,-87 458.5,-87 458.5,-87 464.5,-87 470.5,-93 470.5,-99 470.5,-99 470.5,-111 470.5,-111 470.5,-117 464.5,-123 458.5,-123"/>
<text text-anchor="middle" x="443.5" y="-102.8" font-family="Avenir Next" font-size="9.00">1 of</text>
</g>
<!-- course__BIOL150A&#45;&gt;choice_BIOL186_0_0 -->
<g id="edge4" class="edge">
<title>course__BIOL150A&#45;&gt;choice_BIOL186_0_0</title>
<path fill="none" stroke="#7a8389" d="M62.09,-86.15C118.9,-83.06 245.79,-78.11 352,-88 371.08,-89.78 392.14,-93.62 409.13,-97.2"/>
<polygon fill="#7a8389" stroke="#7a8389" points="408.79,-99.63 416.15,-98.71 409.82,-94.84 408.79,-99.63"/>
</g>
<!-- course__BIOL186 -->
<g id="node2" class="node">
<title>course__BIOL186</title>
<g id="a_node2"><a xlink:href="../../../courses/BIOL186.html" xlink:title="BIOL186: Physiology and Cell Biology" target="_top">
<path fill="#dbe8d2" stroke="#7e8d96" d="M47,-183C47,-183 15,-183 15,-183 9,-183 3,-177 3,-171 3,-171 3,-159 3,-159 3,-153 9,-147 15,-147 15,-147 47,-147 47,-147 53,-147 59,-153 59,-159 59,-159 59,-171 59,-171 59,-177 53,-183 47,-183"/>
<text text-anchor="middle" x="31" y="-162.8" font-family="Avenir Next" font-size="9.00" fill="#41515b">BIOL186</text>
</a>
</g>
</g>
<!-- course__BIOL225 -->
<g id="node5" class="node">
<title>course__BIOL225</title>
<g id="a_node5"><a xlink:href="../../../courses/BIOL225.html" xlink:title="BIOL225: Principles of Cell Biology" target="_top">
<path fill="#dbe8d2" stroke="#1b2730" stroke-width="1.6" d="M460,-179C460,-179 427,-179 427,-179 421,-179 415,-173 415,-167 415,-167 415,-155 415,-155 415,-149 421,-143 427,-143 427,-143 460,-143 460,-143 466,-143 472,-149 472,-155 472,-155 472,-167 472,-167 472,-173 466,-179 460,-179"/>
<text text-anchor="middle" x="443.5" y="-158.5" font-family="Avenir Next" font-size="10.00" fill="#17232b">BIOL225</text>
</a>
</g>
</g>
<!-- course__BIOL186&#45;&gt;course__BIOL225 -->
<g id="edge7" class="edge">
<title>course__BIOL186&#45;&gt;course__BIOL225</title>
<path fill="none" stroke="#5d6972" stroke-width="1.2" d="M59.31,-171.08C77.3,-174.77 101.43,-179.12 123,-181 224.39,-189.85 250.82,-192.05 352,-181 370.62,-178.97 391.01,-174.65 407.72,-170.54"/>
<polygon fill="#5d6972" stroke="#5d6972" stroke-width="1.2" points="408.44,-172.89 414.63,-168.81 407.25,-168.14 408.44,-172.89"/>
</g>
<!-- course__BIOL186&#45;&gt;choice_BIOL184_0_0 -->
<g id="edge2" class="edge">
<title>course__BIOL186&#45;&gt;choice_BIOL184_0_0</title>
<path fill="none" stroke="#7a8389" d="M59.14,-153.64C76.06,-146.55 97.96,-137.38 115.9,-129.86"/>
<polygon fill="#7a8389" stroke="#7a8389" points="117.31,-131.93 122.82,-126.97 115.41,-127.41 117.31,-131.93"/>
</g>
<!-- course__BIOL184 -->
<g id="node3" class="node">
<title>course__BIOL184</title>
<g id="a_node3"><a xlink:href="../../../courses/BIOL184.html" xlink:title="BIOL184: Evolution and Biodiversity" target="_top">
<path fill="#dbe8d2" stroke="#7e8d96" d="M311,-134C311,-134 279,-134 279,-134 273,-134 267,-128 267,-122 267,-122 267,-110 267,-110 267,-104 273,-98 279,-98 279,-98 311,-98 311,-98 317,-98 323,-104 323,-110 323,-110 323,-122 323,-122 323,-128 317,-134 311,-134"/>
<text text-anchor="middle" x="295" y="-113.8" font-family="Avenir Next" font-size="9.00" fill="#41515b">BIOL184</text>
</a>
</g>
</g>
<!-- course__BIOL184&#45;&gt;course__BIOL225 -->
<g id="edge8" class="edge">
<title>course__BIOL184&#45;&gt;course__BIOL225</title>
<path fill="none" stroke="#5d6972" stroke-width="1.2" d="M323.21,-124.36C347.22,-131.73 382.31,-142.51 408.22,-150.47"/>
<polygon fill="#5d6972" stroke="#5d6972" stroke-width="1.2" points="407.53,-152.82 414.94,-152.53 408.96,-148.14 407.53,-152.82"/>
</g>
<!-- course__BIOL184&#45;&gt;choice_BIOL186_0_0 -->
<g id="edge5" class="edge">
<title>course__BIOL184&#45;&gt;choice_BIOL186_0_0</title>
<path fill="none" stroke="#7a8389" d="M323.21,-113.96C347.57,-112.13 383.34,-109.44 409.36,-107.49"/>
<polygon fill="#7a8389" stroke="#7a8389" points="409.62,-109.93 416.42,-106.96 409.25,-105.04 409.62,-109.93"/>
</g>
<!-- course__CHEM101 -->
<g id="node4" class="node">
<title>course__CHEM101</title>
<g id="a_node4"><a xlink:href="../../../courses/CHEM101.html" xlink:title="Equivalent or cross&#45;listed: CHEM101: Fundamentals of Chemistry from Atoms to Materials | CHEM150: Engineering Chemistry" target="_top">
<path fill="#ead9b8" stroke="#7e8d96" d="M340,-36C340,-36 250,-36 250,-36 244,-36 238,-30 238,-24 238,-24 238,-12 238,-12 238,-6 244,0 250,0 250,0 340,0 340,0 346,0 352,-6 352,-12 352,-12 352,-24 352,-24 352,-30 346,-36 340,-36"/>
<text text-anchor="middle" x="295" y="-15.8" font-family="Avenir Next" font-size="9.00" fill="#41515b">CHEM101 / CHEM150</text>
</a>
</g>
</g>
<!-- course__CHEM231 -->
<g id="node6" class="node">
<title>course__CHEM231</title>
<g id="a_node6"><a xlink:href="../../../courses/CHEM231.html" xlink:title="CHEM231: Introduction to Organic Chemistry" target="_top">
<path fill="#ead9b8" stroke="#7e8d96" d="M462,-57C462,-57 425,-57 425,-57 419,-57 413,-51 413,-45 413,-45 413,-33 413,-33 413,-27 419,-21 425,-21 425,-21 462,-21 462,-21 468,-21 474,-27 474,-33 474,-33 474,-45 474,-45 474,-51 468,-57 462,-57"/>
<text text-anchor="middle" x="443.5" y="-36.8" font-family="Avenir Next" font-size="9.00" fill="#41515b">CHEM231</text>
</a>
</g>
</g>
<!-- course__CHEM101&#45;&gt;course__CHEM231 -->
<g id="edge15" class="edge">
<title>course__CHEM101&#45;&gt;course__CHEM231</title>
<path fill="none" stroke="#5d6972" stroke-width="1.2" d="M352.22,-26.06C370.14,-28.63 389.49,-31.4 405.66,-33.72"/>
<polygon fill="#5d6972" stroke="#5d6972" stroke-width="1.2" points="405.58,-36.18 412.85,-34.75 406.27,-31.33 405.58,-36.18"/>
</g>
<!-- course__BIOL230 -->
<g id="node8" class="node">
<title>course__BIOL230</title>
<g id="a_node8"><a xlink:href="../../../courses/BIOL230.html" xlink:title="BIOL230: Principles of Genetics" target="_top">
<path fill="#dbe8d2" stroke="#1b2730" stroke-width="1.6" d="M580,-74C580,-74 547,-74 547,-74 541,-74 535,-68 535,-62 535,-62 535,-50 535,-50 535,-44 541,-38 547,-38 547,-38 580,-38 580,-38 586,-38 592,-44 592,-50 592,-50 592,-62 592,-62 592,-68 586,-74 580,-74"/>
<text text-anchor="middle" x="563.5" y="-53.5" font-family="Avenir Next" font-size="10.00" fill="#17232b">BIOL230</text>
</a>
</g>
</g>
<!-- course__BIOL225&#45;&gt;course__BIOL230 -->
<g id="edge9" class="edge">
<title>course__BIOL225&#45;&gt;course__BIOL230</title>
<path fill="none" stroke="#5d6972" stroke-width="1.2" d="M464.78,-142.95C484.71,-125.22 515.18,-98.11 536.79,-78.87"/>
<polygon fill="#5d6972" stroke="#5d6972" stroke-width="1.2" points="538.48,-80.65 542.08,-74.17 535.23,-76.99 538.48,-80.65"/>
</g>
<!-- choice_BIOL438_0_0 -->
<g id="node12" class="node">
<title>choice_BIOL438_0_0</title>
<path fill="#fff7ee" stroke="#b7793f" stroke-width="1.1" d="M695,-130C695,-130 665,-130 665,-130 659,-130 653,-124 653,-118 653,-118 653,-106 653,-106 653,-100 659,-94 665,-94 665,-94 695,-94 695,-94 701,-94 707,-100 707,-106 707,-106 707,-118 707,-118 707,-124 701,-130 695,-130"/>
<text text-anchor="middle" x="680" y="-109.8" font-family="Avenir Next" font-size="9.00">2 of</text>
</g>
<!-- course__BIOL225&#45;&gt;choice_BIOL438_0_0 -->
<g id="edge12" class="edge">
<title>course__BIOL225&#45;&gt;choice_BIOL438_0_0</title>
<path fill="none" stroke="#7a8389" d="M472.21,-158.47C502.05,-155.43 550.79,-149.49 592,-140 610.13,-135.82 629.9,-129.6 646.01,-124.08"/>
<polygon fill="#7a8389" stroke="#7a8389" points="646.86,-126.38 652.67,-121.76 645.26,-121.75 646.86,-126.38"/>
</g>
<!-- course__CHEM231&#45;&gt;course__BIOL230 -->
<g id="edge10" class="edge">
<title>course__CHEM231&#45;&gt;course__BIOL230</title>
<path fill="none" stroke="#5d6972" stroke-width="1.2" d="M474.28,-43.29C490.53,-45.63 510.73,-48.54 527.7,-50.99"/>
<polygon fill="#5d6972" stroke="#5d6972" stroke-width="1.2" points="527.48,-53.43 534.76,-52 528.18,-48.58 527.48,-53.43"/>
</g>
<!-- course__BIOL215 -->
<g id="node7" class="node">
<title>course__BIOL215</title>
<g id="a_node7"><a xlink:href="../../../courses/BIOL215.html" xlink:title="BIOL215: Principles of Ecology" target="_top">
<path fill="#dbe8d2" stroke="#1b2730" stroke-width="1.6" d="M580,-130C580,-130 547,-130 547,-130 541,-130 535,-124 535,-118 535,-118 535,-106 535,-106 535,-100 541,-94 547,-94 547,-94 580,-94 580,-94 586,-94 592,-100 592,-106 592,-106 592,-118 592,-118 592,-124 586,-130 580,-130"/>
<text text-anchor="middle" x="563.5" y="-109.5" font-family="Avenir Next" font-size="10.00" fill="#17232b">BIOL215</text>
</a>
</g>
</g>
<!-- course__BIOL215&#45;&gt;choice_BIOL438_0_0 -->
<g id="edge11" class="edge">
<title>course__BIOL215&#45;&gt;choice_BIOL438_0_0</title>
<path fill="none" stroke="#7a8389" d="M592.22,-112C608.32,-112 628.71,-112 645.68,-112"/>
<polygon fill="#7a8389" stroke="#7a8389" points="645.72,-114.45 652.72,-112 645.72,-109.55 645.72,-114.45"/>
</g>
<!-- course__BIOL230&#45;&gt;choice_BIOL438_0_0 -->
<g id="edge13" class="edge">
<title>course__BIOL230&#45;&gt;choice_BIOL438_0_0</title>
<path fill="none" stroke="#7a8389" d="M592.22,-69.56C608.46,-77.5 629.07,-87.58 646.13,-95.92"/>
<polygon fill="#7a8389" stroke="#7a8389" points="645.35,-98.27 652.72,-99.15 647.51,-93.87 645.35,-98.27"/>
</g>
<!-- course__BIOL438 -->
<g id="node9" class="node">
<title>course__BIOL438</title>
<g id="a_node9"><a xlink:href="../../../courses/BIOL438.html" xlink:title="BIOL438: Nutrient Cycling and Prokaryotes" target="_top">
<path fill="#dbe8d2" stroke="#1f4f66" stroke-width="2" d="M933,-130C933,-130 780,-130 780,-130 774,-130 768,-124 768,-118 768,-118 768,-106 768,-106 768,-100 774,-94 780,-94 780,-94 933,-94 933,-94 939,-94 945,-100 945,-106 945,-106 945,-118 945,-118 945,-124 939,-130 933,-130"/>
<text text-anchor="middle" x="856.5" y="-115" font-family="Avenir Next" font-size="10.00" fill="#17232b">BIOL438</text>
<text text-anchor="middle" x="856.5" y="-104" font-family="Avenir Next" font-size="10.00" fill="#17232b">Nutrient Cycling and Prokaryotes</text>
</a>
</g>
</g>
<!-- choice_BIOL184_0_0&#45;&gt;course__BIOL184 -->
<g id="edge3" class="edge">
<title>choice_BIOL184_0_0&#45;&gt;course__BIOL184</title>
<path fill="none" stroke="#5d6972" stroke-width="1.2" d="M177.23,-116C200.42,-116 234.4,-116 259.74,-116"/>
<polygon fill="#5d6972" stroke="#5d6972" stroke-width="1.2" points="259.97,-118.45 266.97,-116 259.97,-113.55 259.97,-118.45"/>
</g>
<!-- choice_BIOL186_0_0&#45;&gt;course__BIOL186 -->
<g id="edge6" class="edge">
<title>choice_BIOL186_0_0&#45;&gt;course__BIOL186</title>
<path fill="none" stroke="#5d6972" stroke-width="1.2" d="M416.4,-119.08C398.75,-127.89 374.62,-138.55 352,-144 250.26,-168.49 125.41,-168.34 66.24,-166.53"/>
<polygon fill="#5d6972" stroke="#5d6972" stroke-width="1.2" points="66.09,-164.07 59.01,-166.29 65.93,-168.97 66.09,-164.07"/>
</g>
<!-- choice_BIOL438_0_0&#45;&gt;course__BIOL438 -->
<g id="edge14" class="edge">
<title>choice_BIOL438_0_0&#45;&gt;course__BIOL438</title>
<path fill="none" stroke="#5d6972" stroke-width="1.2" d="M707.12,-112C721.75,-112 740.99,-112 760.74,-112"/>
<polygon fill="#5d6972" stroke="#5d6972" stroke-width="1.2" points="760.74,-114.45 767.74,-112 760.74,-109.55 760.74,-114.45"/>
</g>
</g>
</svg>
