<?xml version="1.0" encoding="UTF-8" standalone="no"?>
<!DOCTYPE svg PUBLIC "-//W3C//DTD SVG 1.1//EN"
 "http://www.w3.org/Graphics/SVG/1.1/DTD/svg11.dtd">
<!-- Generated by graphviz version 2.43.0 (0)
 -->
<!-- Title: BIOL330 Pages: 1 -->
<svg width="829pt" height="233pt"
 viewBox="0.00 0.00 829.20 233.20" xmlns="http://www.w3.org/2000/svg" xmlns:xlink="http://www.w3.org/1999/xlink">
<g id="graph0" class="graph" transform="scale(1 1) rotate(0) translate(21.6 211.6)">
<title>BIOL330</title>
<!-- course__BIOL225 -->
<g id="node1" class="node">
<title>course__BIOL225</title>
<g id="a_node1"><a xlink:href="../../../courses/BIOL225.html" xlink:title="BIOL225: Principles of Cell Biology" target="_top">
<path fill="#dbe8d2" stroke="#1b2730" stroke-width="1.6" d="M45,-116C45,-116 12,-116 12,-116 6,-116 0,-110 0,-104 0,-104 0,-92 0,-92 0,-86 6,-80 12,-80 12,-80 45,-80 45,-80 51,-80 57,-86 57,-92 57,-92 57,-104 57,-104 57,-110 51,-116 45,-116"/>
<text text-anchor="middle" x="28.5" y="-95.5" font-family="Avenir Next" font-size="10.00" fill="#17232b">BIOL225</text>
</a>
</g>
</g>
<!-- course__BIOL230 -->
<g id="node3" class="node">
<title>course__BIOL230</title>
<g id="a_node3"><a xlink:href="../../../courses/BIOL230.html" xlink:title="BIOL230: Principles of Genetics" target="_top">
<path fill="#dbe8d2" stroke="#1b2730" stroke-width="1.6" d="M177.5,-92C177.5,-92 144.5,-92 144.5,-92 138.5,-92 132.5,-86 132.5,-80 132.5,-80 132.5,-68 132.5,-68 132.5,-62 138.5,-56 144.5,-56 144.5,-56 177.5,-56 177.5,-56 183.5,-56 189.5,-62 189.5,-68 189.5,-68 189.5,-80 189.5,-80 189.5,-86 183.5,-92 177.5,-92"/>
<text text-anchor="middle" x="161" y="-71.5" font-family="Avenir Next" font-size="10.00" fill="#17232b">BIOL230</text>
</a>
</g>
</g>
<!-- course__BIOL225&#45;&gt;course__BIOL230 -->
<g id="edge1" class="edge">
<title>course__BIOL225&#45;&gt;course__BIOL230</title>
<path fill="none" stroke="#5d6972" stroke-width="1.2" d="M57.18,-92.91C77.07,-89.25 104.04,-84.29 125.37,-80.37"/>
<polygon fill="#5d6972" stroke="#5d6972" stroke-width="1.2" points="125.92,-82.76 132.36,-79.08 125.04,-77.94 125.92,-82.76"/>
</g>
<!-- choice_BIOL330_0_2 -->
<g id="node9" class="node">
<title>choice_BIOL330_0_2</title>
<path fill="#fff7ee" stroke="#b7793f" stroke-width="1.1" d="M307,-92C307,-92 277,-92 277,-92 271,-92 265,-86 265,-80 265,-80 265,-68 265,-68 265,-62 271,-56 277,-56 277,-56 307,-56 307,-56 313,-56 319,-62 319,-68 319,-68 319,-80 319,-80 319,-86 313,-92 307,-92"/>
<text text-anchor="middle" x="292" y="-71.8" font-family="Avenir Next" font-size="9.00">1 of</text>
</g>
<!-- course__BIOL225&#45;&gt;choice_BIOL330_0_2 -->
<g id="edge3" class="edge">
<title>course__BIOL225&#45;&gt;choice_BIOL330_0_2</title>
<path fill="none" stroke="#7a8389" d="M57.2,-101.65C91.79,-105.52 152.66,-110.06 204,-102 222.38,-99.12 242.17,-93 258.23,-87.22"/>
<polygon fill="#7a8389" stroke="#7a8389" points="259.15,-89.49 264.87,-84.77 257.45,-84.89 259.15,-89.49"/>
</g>
<!-- course__BIOL215 -->
<g id="node2" class="node">
<title>course__BIOL215</title>
<g id="a_node2"><a xlink:href="../../../courses/BIOL215.html" xlink:title="BIOL215: Principles of Ecology" target="_top">
<path fill="#dbe8d2" stroke="#1b2730" stroke-width="1.6" d="M177.5,-36C177.5,-36 144.5,-36 144.5,-36 138.5,-36 132.5,-30 132.5,-24 132.5,-24 132.5,-12 132.5,-12 132.5,-6 138.5,0 144.5,0 144.5,0 177.5,0 177.5,0 183.5,0 189.5,-6 189.5,-12 189.5,-12 189.5,-24 189.5,-24 189.5,-30 183.5,-36 177.5,-36"/>
<text text-anchor="middle" x="161" y="-15.5" font-family="Avenir Next" font-size="10.00" fill="#17232b">BIOL215</text>
</a>
</g>
</g>
<!-- course__BIOL215&#45;&gt;choice_BIOL330_0_2 -->
<g id="edge2" class="edge">
<title>course__BIOL215&#45;&gt;choice_BIOL330_0_2</title>
<path fill="none" stroke="#7a8389" d="M189.67,-30.01C209.71,-38.71 236.89,-50.51 258.05,-59.7"/>
<polygon fill="#7a8389" stroke="#7a8389" points="257.3,-62.04 264.69,-62.58 259.25,-57.55 257.3,-62.04"/>
</g>
<!-- choice_BIOL446_0_0 -->
<g id="node10" class="node">
<title>choice_BIOL446_0_0</title>
<path fill="#fff7ee" stroke="#b7793f" stroke-width="1.1" d="M656,-36C656,-36 626,-36 626,-36 620,-36 614,-30 614,-24 614,-24 614,-12 614,-12 614,-6 620,0 626,0 626,0 656,0 656,0 662,0 668,-6 668,-12 668,-12 668,-24 668,-24 668,-30 662,-36 656,-36"/>
<text text-anchor="middle" x="641" y="-15.8" font-family="Avenir Next" font-size="9.00">1 of</text>
</g>
<!-- course__BIOL215&#45;&gt;choice_BIOL446_0_0 -->
<g id="edge7" class="edge">
<title>course__BIOL215&#45;&gt;choice_BIOL446_0_0</title>
<path fill="none" stroke="#7a8389" d="M189.77,-18C272.52,-18 517.28,-18 606.76,-18"/>
<polygon fill="#7a8389" stroke="#7a8389" points="606.93,-20.45 613.93,-18 606.93,-15.55 606.93,-20.45"/>
</g>
<!-- course__BIOL230&#45;&gt;choice_BIOL330_0_2 -->
<g id="edge4" class="edge">
<title>course__BIOL230&#45;&gt;choice_BIOL330_0_2</title>
<path fill="none" stroke="#7a8389" d="M189.67,-74C209.54,-74 236.42,-74 257.5,-74"/>
<polygon fill="#7a8389" stroke="#7a8389" points="257.69,-76.45 264.69,-74 257.69,-71.55 257.69,-76.45"/>
</g>
<!-- course__STAT254 -->
<g id="node4" class="node">
<title>course__STAT254</title>
<g id="a_node4"><a xlink:href="../../../courses/STAT254.html" xlink:title="Collapsed in simplified view: STAT254: Probability and Statistics for Engineers | STAT255: Statistics for Life Sciences I | STAT260: Introduction to Probability and Statistics I" target="_top">
<path fill="#e6dde9" stroke="#1b2730" stroke-width="1.6" d="M192,-190C192,-190 130,-190 130,-190 124,-190 118,-184 118,-178 118,-178 118,-166 118,-166 118,-160 124,-154 130,-154 130,-154 192,-154 192,-154 198,-154 204,-160 204,-166 204,-166 204,-178 204,-178 204,-184 198,-190 192,-190"/>
<text text-anchor="middle" x="161" y="-169.5" font-family="Avenir Next" font-size="10.00" fill="#17232b">Intro statistics</text>
</a>
</g>
</g>
<!-- course__BIOL330 -->
<g id="node5" class="node">
<title>course__BIOL330</title>
<g id="a_node5"><a xlink:href="../../../courses/BIOL330.html" xlink:title="BIOL330: Study Design and Data Analysis" target="_top">
<path fill="#dbe8d2" stroke="#1f4f66" stroke-width="2" d="M541,-92C541,-92 392,-92 392,-92 386,-92 380,-86 380,-80 380,-80 380,-68 380,-68 380,-62 386,-56 392,-56 392,-56 541,-56 541,-56 547,-56 553,-62 553,-68 553,-68 553,-80 553,-80 553,-86 547,-92 541,-92"/>
<text text-anchor="middle" x="466.5" y="-77" font-family="Avenir Next" font-size="10.00" fill="#17232b">BIOL330</text>
<text text-anchor="middle" x="466.5" y="-66" font-family="Avenir Next" font-size="10.00" fill="#17232b">Study Design and Data Analysis</text>
</a>
</g>
</g>
<!-- course__STAT254&#45;&gt;course__BIOL330 -->
<g id="edge5" class="edge">
<title>course__STAT254&#45;&gt;course__BIOL330</title>
<path fill="none" stroke="#5d6972" stroke-width="1.2" d="M204.2,-158.37C255.72,-141.74 343.31,-113.45 402.74,-94.26"/>
<polygon fill="#5d6972" stroke="#5d6972" stroke-width="1.2" points="403.58,-96.57 409.49,-92.09 402.07,-91.91 403.58,-96.57"/>
</g>
<!-- course__BIOL461 -->
<g id="node7" class="node">
<title>course__BIOL461</title>
<g id="a_node7"><a xlink:href="../../../courses/BIOL461.html" xlink:title="BIOL461: Fisheries Ecology and Management" target="_top">
<path fill="#dbe8d2" stroke="#1b2730" stroke-width="1.6" d="M774,-92C774,-92 741,-92 741,-92 735,-92 729,-86 729,-80 729,-80 729,-68 729,-68 729,-62 735,-56 741,-56 741,-56 774,-56 774,-56 780,-56 786,-62 786,-68 786,-68 786,-80 786,-80 786,-86 780,-92 774,-92"/>
<text text-anchor="middle" x="757.5" y="-71.5" font-family="Avenir Next" font-size="10.00" fill="#17232b">BIOL461</text>
</a>
</g>
</g>
<!-- course__BIOL330&#45;&gt;course__BIOL461 -->
<g id="edge10" class="edge">
<title>course__BIOL330&#45;&gt;course__BIOL461</title>
<path fill="none" stroke="#5d6972" stroke-width="1.2" d="M553.04,-74C609.41,-74 680.22,-74 721.71,-74"/>
<polygon fill="#5d6972" stroke="#5d6972" stroke-width="1.2" points="721.86,-76.45 728.86,-74 721.86,-71.55 721.86,-76.45"/>
</g>
<!-- course__BIOL466 -->
<g id="node8" class="node">
<title>course__BIOL466</title>
<g id="a_node8"><a xlink:href="../../../courses/BIOL466.html" xlink:title="BIOL466: Frontiers in Marine Biology" target="_top">
<path fill="#dbe8d2" stroke="#1b2730" stroke-width="1.6" d="M774,-148C774,-148 741,-148 741,-148 735,-148 729,-142 729,-136 729,-136 729,-124 729,-124 729,-118 735,-112 741,-112 741,-112 774,-112 774,-112 780,-112 786,-118 786,-124 786,-124 786,-136 786,-136 786,-142 780,-148 774,-148"/>
<text text-anchor="middle" x="757.5" y="-127.5" font-family="Avenir Next" font-size="10.00" fill="#17232b">BIOL466</text>
</a>
</g>
</g>
<!-- course__BIOL330&#45;&gt;course__BIOL466 -->
<g id="edge11" class="edge">
<title>course__BIOL330&#45;&gt;course__BIOL466</title>
<path fill="none" stroke="#5d6972" stroke-width="1.2" d="M553.04,-90.57C609.52,-101.52 680.52,-115.28 721.97,-123.31"/>
<polygon fill="#5d6972" stroke="#5d6972" stroke-width="1.2" points="721.52,-125.72 728.86,-124.64 722.45,-120.91 721.52,-125.72"/>
</g>
<!-- course__BIOL330&#45;&gt;choice_BIOL446_0_0 -->
<g id="edge8" class="edge">
<title>course__BIOL330&#45;&gt;choice_BIOL446_0_0</title>
<path fill="none" stroke="#7a8389" d="M523.03,-55.97C550.64,-47.01 583.08,-36.48 606.79,-28.78"/>
<polygon fill="#7a8389" stroke="#7a8389" points="607.64,-31.08 613.54,-26.59 606.12,-26.42 607.64,-31.08"/>
</g>
<!-- course__BIOL446 -->
<g id="node6" class="node">
<title>course__BIOL446</title>
<g id="a_node6"><a xlink:href="../../../courses/BIOL446.html" xlink:title="BIOL446: Advanced Aquatic Ecology" target="_top">
<path fill="#dbe8d2" stroke="#1b2730" stroke-width="1.6" d="M774,-36C774,-36 741,-36 741,-36 735,-36 729,-30 729,-24 729,-24 729,-12 729,-12 729,-6 735,0 741,0 741,0 774,0 774,0 780,0 786,-6 786,-12 786,-12 786,-24 786,-24 786,-30 780,-36 774,-36"/>
<text text-anchor="middle" x="757.5" y="-15.5" font-family="Avenir Next" font-size="10.00" fill="#17232b">BIOL446</text>
</a>
</g>
</g>
<!-- choice_BIOL330_0_2&#45;&gt;course__BIOL330 -->
<g id="edge6" class="edge">
<title>choice_BIOL330_0_2&#45;&gt;course__BIOL330</title>
<path fill="none" stroke="#5d6972" stroke-width="1.2" d="M319.2,-74C333.8,-74 352.97,-74 372.6,-74"/>
<polygon fill="#5d6972" stroke="#5d6972" stroke-width="1.2" points="372.85,-76.45 379.85,-74 372.85,-71.55 372.85,-76.45"/>
</g>
<!-- choice_BIOL446_0_0&#45;&gt;course__BIOL446 -->
<g id="edge9" class="edge">
<title>choice_BIOL446_0_0&#45;&gt;course__BIOL446</title>
<path fill="none" stroke="#5d6972" stroke-width="1.2" d="M668.27,-18C684.1,-18 704.45,-18 721.62,-18"/>
<polygon fill="#5d6972" stroke="#5d6972" stroke-width="1.2" points="721.76,-20.45 728.76,-18 721.76,-15.55 721.76,-20.45"/>
</g>
</g>
</svg>
