<?xml version="1.0" encoding="UTF-8" standalone="no"?>
<!DOCTYPE svg PUBLIC "-//W3C//DTD SVG 1.1//EN"
 "http://www.w3.org/Graphics/SVG/1.1/DTD/svg11.dtd">
<!-- Generated by graphviz version 2.43.0 (0)
 -->
<!-- Title: BIOL460 Pages: 1 -->
<svg width="144pt" height="79pt"
 viewBox="0.00 0.00 144.20 79.20" xmlns="http://www.w3.org/2000/svg" xmlns:xlink="http://www.w3.org/1999/xlink">
<g id="graph0" class="graph" transform="scale(1 1) rotate(0) translate(21.6 57.6)">
<title>BIOL460</title>
<!-- course__BIOL460 -->
<g id="node1" class="node">
<title>course__BIOL460</title>
<g id="a_node1"><a xlink:href="../../../courses/BIOL460.html" xlink:title="BIOL460: Honours Seminar" target="_top">
<path fill="#dbe8d2" stroke="#1f4f66" stroke-width="2" d="M89,-36C89,-36 12,-36 12,-36 6,-36 0,-30 0,-24 0,-24 0,-12 0,-12 0,-6 6,0 12,0 12,0 89,0 89,0 95,0 101,-6 101,-12 101,-12 101,-24 101,-24 101,-30 95,-36 89,-36"/>
<text text-anchor="middle" x="50.5" y="-21" font-family="Avenir Next" font-size="10.00" fill="#17232b">BIOL460</text>
<text text-anchor="middle" x="50.5" y="-10" font-family="Avenir Next" font-size="10.00" fill="#17232b">Honours Seminar</text>
</a>
</g>
</g>
</g>
</svg>
