<?xml version="1.0" encoding="UTF-8" standalone="no"?>
<!DOCTYPE svg PUBLIC "-//W3C//DTD SVG 1.1//EN"
 "http://www.w3.org/Graphics/SVG/1.1/DTD/svg11.dtd">
<!-- Generated by graphviz version 2.43.0 (0)
 -->
<!-- Title: BIOL335 Pages: 1 -->
<svg width="235pt" height="79pt"
 viewBox="0.00 0.00 235.20 79.20" xmlns="http://www.w3.org/2000/svg" xmlns:xlink="http://www.w3.org/1999/xlink">
<g id="graph0" class="graph" transform="scale(1 1) rotate(0) translate(21.6 57.6)">
<title>BIOL335</title>
<!-- course__BIOL215 -->
<g id="node1" class="node">
<title>course__BIOL215</title>
<g id="a_node1"><a xlink:href="../../../courses/BIOL215.html" xlink:title="BIOL215: Principles of Ecology" target="_top">
<path fill="#dbe8d2" stroke="#1b2730" stroke-width="1.6" d="M45,-36C45,-36 12,-36 12,-36 6,-36 0,-30 0,-24 0,-24 0,-12 0,-12 0,-6 6,0 12,0 12,0 45,0 45,0 51,0 57,-6 57,-12 57,-12 57,-24 57,-24 57,-30 51,-36 45,-36"/>
<text text-anchor="middle" x="28.5" y="-15.5" font-family="Avenir Next" font-size="10.00" fill="#17232b">BIOL215</text>
</a>
</g>
</g>
<!-- course__BIOL335 -->
<g id="node2" class="node">
<title>course__BIOL335</title>
<g id="a_node2"><a xlink:href="../../../courses/BIOL335.html" xlink:title="BIOL335: Ichthyology" target="_top">
<path fill="#dbe8d2" stroke="#1f4f66" stroke-width="2" d="M180,-36C180,-36 130,-36 130,-36 124,-36 118,-30 118,-24 118,-24 118,-12 118,-12 118,-6 124,0 130,0 130,0 180,0 180,0 186,0 192,-6 192,-12 192,-12 192,-24 192,-24 192,-30 186,-36 180,-36"/>
<text text-anchor="middle" x="155" y="-21" font-family="Avenir Next" font-size="10.00" fill="#17232b">BIOL335</text>
<text text-anchor="middle" x="155" y="-10" font-family="Avenir Next" font-size="10.00" fill="#17232b">Ichthyology</text>
</a>
</g>
</g>
<!-- course__BIOL215&#45;&gt;course__BIOL335 -->
<g id="edge1" class="edge">
<title>course__BIOL215&#45;&gt;course__BIOL335</title>
<path fill="none" stroke="#5d6972" stroke-width="1.2" d="M57.13,-18C72.8,-18 92.76,-18 110.49,-18"/>
<polygon fill="#5d6972" stroke="#5d6972" stroke-width="1.2" points="110.93,-20.45 117.93,-18 110.93,-15.55 110.93,-20.45"/>
</g>
</g>
</svg>
