<?xml version="1.0" encoding="UTF-8" standalone="no"?>
<!DOCTYPE svg PUBLIC "-//W3C//DTD SVG 1.1//EN"
 "http://www.w3.org/Graphics/SVG/1.1/DTD/svg11.dtd">
<!-- Generated by graphviz version 2.43.0 (0)
 -->
<!-- Title: BIOL215 Pages: 1 -->
<svg width="533pt" height="513pt"
 viewBox="0.00 0.00 533.20 513.20" xmlns="http://www.w3.org/2000/svg" xmlns:xlink="http://www.w3.org/1999/xlink">
<g id="graph0" class="graph" transform="scale(1 1) rotate(0) translate(21.6 491.6)">
<title>BIOL215</title>
<!-- course__BIOL186 -->
<g id="node1" class="node">
<title>course__BIOL186</title>
<g id="a_node1"><a xlink:href="../../../courses/BIOL186.html" xlink:title="BIOL186: Physiology and Cell Biology" target="_top">
<path fill="#dbe8d2" stroke="#1b2730" stroke-width="1.6" d="M75.5,-36C75.5,-36 42.5,-36 42.5,-36 36.5,-36 30.5,-30 30.5,-24 30.5,-24 30.5,-12 30.5,-12 30.5,-6 36.5,0 42.5,0 42.5,0 75.5,0 75.5,0 81.5,0 87.5,-6 87.5,-12 87.5,-12 87.5,-24 87.5,-24 87.5,-30 81.5,-36 75.5,-36"/>
<text text-anchor="middle" x="59" y="-15.5" font-family="Avenir Next" font-size="10.00" fill="#17232b">BIOL186</text>
</a>
</g>
</g>
<!-- course__BIOL150A -->
<g id="node2" class="node">
<title>course__BIOL150A</title>
<g id="a_node2"><a xlink:href="../../../courses/BIOL150A.html" xlink:title="Collapsed in simplified view: BIOL150A: Modern Biology | BIOL184: Evolution and Biodiversity" target="_top">
<path fill="#dbe8d2" stroke="#1b2730" stroke-width="1.6" d="M245,-36C245,-36 191,-36 191,-36 185,-36 179,-30 179,-24 179,-24 179,-12 179,-12 179,-6 185,0 191,0 191,0 245,0 245,0 251,0 257,-6 257,-12 257,-12 257,-24 257,-24 257,-30 251,-36 245,-36"/>
<text text-anchor="middle" x="218" y="-15.5" font-family="Avenir Next" font-size="10.00" fill="#17232b">Intro biology</text>
</a>
</g>
</g>
<!-- course__BIOL186&#45;&gt;course__BIOL150A -->
<g id="edge1" class="edge">
<title>course__BIOL186&#45;&gt;course__BIOL150A</title>
<path fill="none" stroke="#5d6972" stroke-width="1.2" d="M87.71,-12.12C110.98,-10.36 144.69,-10.03 171.86,-11.14"/>
<polygon fill="#5d6972" stroke="#5d6972" stroke-width="1.2" points="171.86,-13.59 178.97,-11.47 172.09,-8.7 171.86,-13.59"/>
</g>
<!-- course__BIOL150A&#45;&gt;course__BIOL186 -->
<g id="edge2" class="edge">
<title>course__BIOL150A&#45;&gt;course__BIOL186</title>
<path fill="none" stroke="#5d6972" stroke-width="1.2" d="M178.97,-24.53C153.33,-25.88 119.76,-25.82 94.82,-24.35"/>
<polygon fill="#5d6972" stroke="#5d6972" stroke-width="1.2" points="94.85,-21.9 87.71,-23.88 94.53,-26.79 94.85,-21.9"/>
</g>
<!-- course__BIOL215 -->
<g id="node3" class="node">
<title>course__BIOL215</title>
<g id="a_node3"><a xlink:href="../../../courses/BIOL215.html" xlink:title="BIOL215: Principles of Ecology" target="_top">
<path fill="#dbe8d2" stroke="#1f4f66" stroke-width="2" d="M106,-274C106,-274 12,-274 12,-274 6,-274 0,-268 0,-262 0,-262 0,-250 0,-250 0,-244 6,-238 12,-238 12,-238 106,-238 106,-238 112,-238 118,-244 118,-250 118,-250 118,-262 118,-262 118,-268 112,-274 106,-274"/>
<text text-anchor="middle" x="59" y="-259" font-family="Avenir Next" font-size="10.00" fill="#17232b">BIOL215</text>
<text text-anchor="middle" x="59" y="-248" font-family="Avenir Next" font-size="10.00" fill="#17232b">Principles of Ecology</text>
</a>
</g>
</g>
<!-- course__BIOL319 -->
<g id="node4" class="node">
<title>course__BIOL319</title>
<g id="a_node4"><a xlink:href="../../../courses/BIOL319.html" xlink:title="BIOL319: Marine Ecology" target="_top">
<path fill="#dbe8d2" stroke="#1b2730" stroke-width="1.6" d="M234.5,-470C234.5,-470 201.5,-470 201.5,-470 195.5,-470 189.5,-464 189.5,-458 189.5,-458 189.5,-446 189.5,-446 189.5,-440 195.5,-434 201.5,-434 201.5,-434 234.5,-434 234.5,-434 240.5,-434 246.5,-440 246.5,-446 246.5,-446 246.5,-458 246.5,-458 246.5,-464 240.5,-470 234.5,-470"/>
<text text-anchor="middle" x="218" y="-449.5" font-family="Avenir Next" font-size="10.00" fill="#17232b">BIOL319</text>
</a>
</g>
</g>
<!-- course__BIOL215&#45;&gt;course__BIOL319 -->
<g id="edge3" class="edge">
<title>course__BIOL215&#45;&gt;course__BIOL319</title>
<path fill="none" stroke="#5d6972" stroke-width="1.2" d="M70.17,-274.08C88.92,-306.47 131.43,-375.53 179,-424 180.66,-425.7 182.44,-427.37 184.28,-429"/>
<polygon fill="#5d6972" stroke="#5d6972" stroke-width="1.2" points="183,-431.13 189.94,-433.75 186.15,-427.37 183,-431.13"/>
</g>
<!-- course__BIOL330 -->
<g id="node5" class="node">
<title>course__BIOL330</title>
<g id="a_node5"><a xlink:href="../../../courses/BIOL330.html" xlink:title="BIOL330: Study Design and Data Analysis" target="_top">
<path fill="#dbe8d2" stroke="#1b2730" stroke-width="1.6" d="M234.5,-414C234.5,-414 201.5,-414 201.5,-414 195.5,-414 189.5,-408 189.5,-402 189.5,-402 189.5,-390 189.5,-390 189.5,-384 195.5,-378 201.5,-378 201.5,-378 234.5,-378 234.5,-378 240.5,-378 246.5,-384 246.5,-390 246.5,-390 246.5,-402 246.5,-402 246.5,-408 240.5,-414 234.5,-414"/>
<text text-anchor="middle" x="218" y="-393.5" font-family="Avenir Next" font-size="10.00" fill="#17232b">BIOL330</text>
</a>
</g>
</g>
<!-- course__BIOL215&#45;&gt;course__BIOL330 -->
<g id="edge4" class="edge">
<title>course__BIOL215&#45;&gt;course__BIOL330</title>
<path fill="none" stroke="#5d6972" stroke-width="1.2" d="M77.92,-274.17C100.69,-296.93 141.52,-336.75 179,-368 181.07,-369.73 183.24,-371.48 185.45,-373.21"/>
<polygon fill="#5d6972" stroke="#5d6972" stroke-width="1.2" points="184.29,-375.41 191.33,-377.74 187.28,-371.53 184.29,-375.41"/>
</g>
<!-- course__BIOL335 -->
<g id="node6" class="node">
<title>course__BIOL335</title>
<g id="a_node6"><a xlink:href="../../../courses/BIOL335.html" xlink:title="BIOL335: Ichthyology" target="_top">
<path fill="#dbe8d2" stroke="#1b2730" stroke-width="1.6" d="M234.5,-358C234.5,-358 201.5,-358 201.5,-358 195.5,-358 189.5,-352 189.5,-346 189.5,-346 189.5,-334 189.5,-334 189.5,-328 195.5,-322 201.5,-322 201.5,-322 234.5,-322 234.5,-322 240.5,-322 246.5,-328 246.5,-334 246.5,-334 246.5,-346 246.5,-346 246.5,-352 240.5,-358 234.5,-358"/>
<text text-anchor="middle" x="218" y="-337.5" font-family="Avenir Next" font-size="10.00" fill="#17232b">BIOL335</text>
</a>
</g>
</g>
<!-- course__BIOL215&#45;&gt;course__BIOL335 -->
<g id="edge5" class="edge">
<title>course__BIOL215&#45;&gt;course__BIOL335</title>
<path fill="none" stroke="#5d6972" stroke-width="1.2" d="M93.68,-274.02C120.01,-288.11 156.46,-307.61 182.9,-321.75"/>
<polygon fill="#5d6972" stroke="#5d6972" stroke-width="1.2" points="182.06,-324.09 189.39,-325.23 184.37,-319.77 182.06,-324.09"/>
</g>
<!-- course__BIOL370 -->
<g id="node7" class="node">
<title>course__BIOL370</title>
<g id="a_node7"><a xlink:href="../../../courses/BIOL370.html" xlink:title="BIOL370: Conservation Biology" target="_top">
<path fill="#dbe8d2" stroke="#1b2730" stroke-width="1.6" d="M234.5,-302C234.5,-302 201.5,-302 201.5,-302 195.5,-302 189.5,-296 189.5,-290 189.5,-290 189.5,-278 189.5,-278 189.5,-272 195.5,-266 201.5,-266 201.5,-266 234.5,-266 234.5,-266 240.5,-266 246.5,-272 246.5,-278 246.5,-278 246.5,-290 246.5,-290 246.5,-296 240.5,-302 234.5,-302"/>
<text text-anchor="middle" x="218" y="-281.5" font-family="Avenir Next" font-size="10.00" fill="#17232b">BIOL370</text>
</a>
</g>
</g>
<!-- course__BIOL215&#45;&gt;course__BIOL370 -->
<g id="edge6" class="edge">
<title>course__BIOL215&#45;&gt;course__BIOL370</title>
<path fill="none" stroke="#5d6972" stroke-width="1.2" d="M118.01,-266.35C139.45,-270.17 163.08,-274.38 181.88,-277.74"/>
<polygon fill="#5d6972" stroke="#5d6972" stroke-width="1.2" points="181.77,-280.2 189.09,-279.02 182.63,-275.38 181.77,-280.2"/>
</g>
<!-- course__BIOL418 -->
<g id="node8" class="node">
<title>course__BIOL418</title>
<g id="a_node8"><a xlink:href="../../../courses/BIOL418.html" xlink:title="BIOL418: Forest Ecology" target="_top">
<path fill="#dbe8d2" stroke="#1b2730" stroke-width="1.6" d="M234.5,-246C234.5,-246 201.5,-246 201.5,-246 195.5,-246 189.5,-240 189.5,-234 189.5,-234 189.5,-222 189.5,-222 189.5,-216 195.5,-210 201.5,-210 201.5,-210 234.5,-210 234.5,-210 240.5,-210 246.5,-216 246.5,-222 246.5,-222 246.5,-234 246.5,-234 246.5,-240 240.5,-246 234.5,-246"/>
<text text-anchor="middle" x="218" y="-225.5" font-family="Avenir Next" font-size="10.00" fill="#17232b">BIOL418</text>
</a>
</g>
</g>
<!-- course__BIOL215&#45;&gt;course__BIOL418 -->
<g id="edge7" class="edge">
<title>course__BIOL215&#45;&gt;course__BIOL418</title>
<path fill="none" stroke="#5d6972" stroke-width="1.2" d="M118.01,-245.65C139.45,-241.83 163.08,-237.62 181.88,-234.26"/>
<polygon fill="#5d6972" stroke="#5d6972" stroke-width="1.2" points="182.63,-236.62 189.09,-232.98 181.77,-231.8 182.63,-236.62"/>
</g>
<!-- course__BIOL438 -->
<g id="node9" class="node">
<title>course__BIOL438</title>
<g id="a_node9"><a xlink:href="../../../courses/BIOL438.html" xlink:title="BIOL438: Nutrient Cycling and Prokaryotes" target="_top">
<path fill="#dbe8d2" stroke="#1b2730" stroke-width="1.6" d="M234.5,-190C234.5,-190 201.5,-190 201.5,-190 195.5,-190 189.5,-184 189.5,-178 189.5,-178 189.5,-166 189.5,-166 189.5,-160 195.5,-154 201.5,-154 201.5,-154 234.5,-154 234.5,-154 240.5,-154 246.5,-160 246.5,-166 246.5,-166 246.5,-178 246.5,-178 246.5,-184 240.5,-190 234.5,-190"/>
<text text-anchor="middle" x="218" y="-169.5" font-family="Avenir Next" font-size="10.00" fill="#17232b">BIOL438</text>
</a>
</g>
</g>
<!-- course__BIOL215&#45;&gt;course__BIOL438 -->
<g id="edge8" class="edge">
<title>course__BIOL215&#45;&gt;course__BIOL438</title>
<path fill="none" stroke="#5d6972" stroke-width="1.2" d="M93.68,-237.98C120.01,-223.89 156.46,-204.39 182.9,-190.25"/>
<polygon fill="#5d6972" stroke="#5d6972" stroke-width="1.2" points="184.37,-192.23 189.39,-186.77 182.06,-187.91 184.37,-192.23"/>
</g>
<!-- course__BIOL457 -->
<g id="node10" class="node">
<title>course__BIOL457</title>
<g id="a_node10"><a xlink:href="../../../courses/BIOL457.html" xlink:title="BIOL457: Paleoecology and Environmental Change" target="_top">
<path fill="#dbe8d2" stroke="#1b2730" stroke-width="1.6" d="M234.5,-134C234.5,-134 201.5,-134 201.5,-134 195.5,-134 189.5,-128 189.5,-122 189.5,-122 189.5,-110 189.5,-110 189.5,-104 195.5,-98 201.5,-98 201.5,-98 234.5,-98 234.5,-98 240.5,-98 246.5,-104 246.5,-110 246.5,-110 246.5,-122 246.5,-122 246.5,-128 240.5,-134 234.5,-134"/>
<text text-anchor="middle" x="218" y="-113.5" font-family="Avenir Next" font-size="10.00" fill="#17232b">BIOL457</text>
</a>
</g>
</g>
<!-- course__BIOL215&#45;&gt;course__BIOL457 -->
<g id="edge12" class="edge">
<title>course__BIOL215&#45;&gt;course__BIOL457</title>
<path fill="none" stroke="#5d6972" stroke-width="1.2" d="M77.92,-237.83C100.69,-215.07 141.52,-175.25 179,-144 181.07,-142.27 183.24,-140.52 185.45,-138.79"/>
<polygon fill="#5d6972" stroke="#5d6972" stroke-width="1.2" points="187.28,-140.47 191.33,-134.26 184.29,-136.59 187.28,-140.47"/>
</g>
<!-- choice_BIOL446_0_0 -->
<g id="node12" class="node">
<title>choice_BIOL446_0_0</title>
<path fill="#fff7ee" stroke="#b7793f" stroke-width="1.1" d="M360,-249C360,-249 330,-249 330,-249 324,-249 318,-243 318,-237 318,-237 318,-225 318,-225 318,-219 324,-213 330,-213 330,-213 360,-213 360,-213 366,-213 372,-219 372,-225 372,-225 372,-237 372,-237 372,-243 366,-249 360,-249"/>
<text text-anchor="middle" x="345" y="-228.8" font-family="Avenir Next" font-size="9.00">1 of</text>
</g>
<!-- course__BIOL215&#45;&gt;choice_BIOL446_0_0 -->
<g id="edge9" class="edge">
<title>course__BIOL215&#45;&gt;choice_BIOL446_0_0</title>
<path fill="none" stroke="#7a8389" d="M66.29,-237.94C80.08,-201.56 116.77,-120.18 179,-88 209.79,-72.08 226.78,-71.01 257,-88 301.93,-113.26 326.37,-172.17 337.14,-205.97"/>
<polygon fill="#7a8389" stroke="#7a8389" points="334.83,-206.81 339.23,-212.78 339.52,-205.37 334.83,-206.81"/>
</g>
<!-- course__BIOL330&#45;&gt;choice_BIOL446_0_0 -->
<g id="edge10" class="edge">
<title>course__BIOL330&#45;&gt;choice_BIOL446_0_0</title>
<path fill="none" stroke="#7a8389" d="M246.21,-377.9C250.03,-374.81 253.76,-371.48 257,-368 289.39,-333.29 316.83,-284.92 331.81,-255.91"/>
<polygon fill="#7a8389" stroke="#7a8389" points="334.17,-256.67 335.16,-249.33 329.8,-254.45 334.17,-256.67"/>
</g>
<!-- course__BIOL446 -->
<g id="node11" class="node">
<title>course__BIOL446</title>
<g id="a_node11"><a xlink:href="../../../courses/BIOL446.html" xlink:title="BIOL446: Advanced Aquatic Ecology" target="_top">
<path fill="#dbe8d2" stroke="#1b2730" stroke-width="1.6" d="M478,-249C478,-249 445,-249 445,-249 439,-249 433,-243 433,-237 433,-237 433,-225 433,-225 433,-219 439,-213 445,-213 445,-213 478,-213 478,-213 484,-213 490,-219 490,-225 490,-225 490,-237 490,-237 490,-243 484,-249 478,-249"/>
<text text-anchor="middle" x="461.5" y="-228.5" font-family="Avenir Next" font-size="10.00" fill="#17232b">BIOL446</text>
</a>
</g>
</g>
<!-- choice_BIOL446_0_0&#45;&gt;course__BIOL446 -->
<g id="edge11" class="edge">
<title>choice_BIOL446_0_0&#45;&gt;course__BIOL446</title>
<path fill="none" stroke="#5d6972" stroke-width="1.2" d="M372.27,-231C388.1,-231 408.45,-231 425.62,-231"/>
<polygon fill="#5d6972" stroke="#5d6972" stroke-width="1.2" points="425.76,-233.45 432.76,-231 425.76,-228.55 425.76,-233.45"/>
</g>
</g>
</svg>
