<?xml version="1.0" encoding="UTF-8" standalone="no"?>
<!DOCTYPE svg PUBLIC "-//W3C//DTD SVG 1.1//EN"
 "http://www.w3.org/Graphics/SVG/1.1/DTD/svg11.dtd">
<!-- Generated by graphviz version 2.43.0 (0)
 -->
<!-- Title: BIOL418 Pages: 1 -->
<svg width="747pt" height="264pt"
 viewBox="0.00 0.00 747.20 264.20" xmlns="http://www.w3.org/2000/svg" xmlns:xlink="http://www.w3.org/1999/xlink">
<g id="graph0" class="graph" transform="scale(1 1) rotate(0) translate(21.6 242.6)">
<title>BIOL418</title>
<!-- course__BIOL150A -->
<g id="node1" class="node">
<title>course__BIOL150A</title>
<g id="a_node1"><a xlink:href="../../../courses/BIOL150A.html" xlink:title="BIOL150A: Modern Biology" target="_top">
<path fill="#dbe8d2" stroke="#7e8d96" d="M311,-102C311,-102 273,-102 273,-102 267,-102 261,-96 261,-90 261,-90 261,-78 261,-78 261,-72 267,-66 273,-66 273,-66 311,-66 311,-66 317,-66 323,-72 323,-78 323,-78 323,-90 323,-90 323,-96 317,-102 311,-102"/>
<text text-anchor="middle" x="292" y="-81.8" font-family="Avenir Next" font-size="9.00" fill="#41515b">BIOL150A</text>
</a>
</g>
</g>
<!-- choice_BIOL184_0_0 -->
<g id="node7" class="node">
<title>choice_BIOL184_0_0</title>
<path fill="#fff7ee" stroke="#b7793f" stroke-width="1.1" d="M443,-80C443,-80 413,-80 413,-80 407,-80 401,-74 401,-68 401,-68 401,-56 401,-56 401,-50 407,-44 413,-44 413,-44 443,-44 443,-44 449,-44 455,-50 455,-56 455,-56 455,-68 455,-68 455,-74 449,-80 443,-80"/>
<text text-anchor="middle" x="428" y="-59.8" font-family="Avenir Next" font-size="9.00">1 of</text>
</g>
<!-- course__BIOL150A&#45;&gt;choice_BIOL184_0_0 -->
<g id="edge2" class="edge">
<title>course__BIOL150A&#45;&gt;choice_BIOL184_0_0</title>
<path fill="none" stroke="#7a8389" d="M323.07,-79.06C344.01,-75.63 371.94,-71.04 393.58,-67.49"/>
<polygon fill="#7a8389" stroke="#7a8389" points="394.14,-69.88 400.65,-66.33 393.35,-65.04 394.14,-69.88"/>
</g>
<!-- choice_BIOL186_0_0 -->
<g id="node8" class="node">
<title>choice_BIOL186_0_0</title>
<path fill="#fff7ee" stroke="#b7793f" stroke-width="1.1" d="M692,-80C692,-80 662,-80 662,-80 656,-80 650,-74 650,-68 650,-68 650,-56 650,-56 650,-50 656,-44 662,-44 662,-44 692,-44 692,-44 698,-44 704,-50 704,-56 704,-56 704,-68 704,-68 704,-74 698,-80 692,-80"/>
<text text-anchor="middle" x="677" y="-59.8" font-family="Avenir Next" font-size="9.00">1 of</text>
</g>
<!-- course__BIOL150A&#45;&gt;choice_BIOL186_0_0 -->
<g id="edge5" class="edge">
<title>course__BIOL150A&#45;&gt;choice_BIOL186_0_0</title>
<path fill="none" stroke="#7a8389" d="M323.06,-88.06C376.82,-94.56 492.78,-105.1 589,-90 607.38,-87.12 627.17,-81 643.23,-75.22"/>
<polygon fill="#7a8389" stroke="#7a8389" points="644.15,-77.49 649.87,-72.77 642.45,-72.89 644.15,-77.49"/>
</g>
<!-- course__BIOL186 -->
<g id="node2" class="node">
<title>course__BIOL186</title>
<g id="a_node2"><a xlink:href="../../../courses/BIOL186.html" xlink:title="BIOL186: Physiology and Cell Biology" target="_top">
<path fill="#dbe8d2" stroke="#7e8d96" d="M308,-36C308,-36 276,-36 276,-36 270,-36 264,-30 264,-24 264,-24 264,-12 264,-12 264,-6 270,0 276,0 276,0 308,0 308,0 314,0 320,-6 320,-12 320,-12 320,-24 320,-24 320,-30 314,-36 308,-36"/>
<text text-anchor="middle" x="292" y="-15.8" font-family="Avenir Next" font-size="9.00" fill="#41515b">BIOL186</text>
</a>
</g>
</g>
<!-- course__BIOL186&#45;&gt;choice_BIOL184_0_0 -->
<g id="edge3" class="edge">
<title>course__BIOL186&#45;&gt;choice_BIOL184_0_0</title>
<path fill="none" stroke="#7a8389" d="M320.12,-26.9C341.46,-33.91 371.3,-43.71 394.03,-51.17"/>
<polygon fill="#7a8389" stroke="#7a8389" points="393.42,-53.55 400.84,-53.41 394.95,-48.9 393.42,-53.55"/>
</g>
<!-- course__BIOL184 -->
<g id="node3" class="node">
<title>course__BIOL184</title>
<g id="a_node3"><a xlink:href="../../../courses/BIOL184.html" xlink:title="BIOL184: Evolution and Biodiversity" target="_top">
<path fill="#dbe8d2" stroke="#7e8d96" d="M577,-80C577,-80 545,-80 545,-80 539,-80 533,-74 533,-68 533,-68 533,-56 533,-56 533,-50 539,-44 545,-44 545,-44 577,-44 577,-44 583,-44 589,-50 589,-56 589,-56 589,-68 589,-68 589,-74 583,-80 577,-80"/>
<text text-anchor="middle" x="561" y="-59.8" font-family="Avenir Next" font-size="9.00" fill="#41515b">BIOL184</text>
</a>
</g>
</g>
<!-- course__BIOL184&#45;&gt;choice_BIOL186_0_0 -->
<g id="edge6" class="edge">
<title>course__BIOL184&#45;&gt;choice_BIOL186_0_0</title>
<path fill="none" stroke="#7a8389" d="M589.02,-62C605.15,-62 625.76,-62 642.87,-62"/>
<polygon fill="#7a8389" stroke="#7a8389" points="642.96,-64.45 649.96,-62 642.96,-59.55 642.96,-64.45"/>
</g>
<!-- course__BIOL215 -->
<g id="node4" class="node">
<title>course__BIOL215</title>
<g id="a_node4"><a xlink:href="../../../courses/BIOL215.html" xlink:title="BIOL215: Principles of Ecology" target="_top">
<path fill="#dbe8d2" stroke="#1b2730" stroke-width="1.6" d="M308.5,-221C308.5,-221 275.5,-221 275.5,-221 269.5,-221 263.5,-215 263.5,-209 263.5,-209 263.5,-197 263.5,-197 263.5,-191 269.5,-185 275.5,-185 275.5,-185 308.5,-185 308.5,-185 314.5,-185 320.5,-191 320.5,-197 320.5,-197 320.5,-209 320.5,-209 320.5,-215 314.5,-221 308.5,-221"/>
<text text-anchor="middle" x="292" y="-200.5" font-family="Avenir Next" font-size="10.00" fill="#17232b">BIOL215</text>
</a>
</g>
</g>
<!-- course__BIOL418 -->
<g id="node5" class="node">
<title>course__BIOL418</title>
<g id="a_node5"><a xlink:href="../../../courses/BIOL418.html" xlink:title="BIOL418: Forest Ecology" target="_top">
<path fill="#dbe8d2" stroke="#1f4f66" stroke-width="2" d="M460,-199C460,-199 396,-199 396,-199 390,-199 384,-193 384,-187 384,-187 384,-175 384,-175 384,-169 390,-163 396,-163 396,-163 460,-163 460,-163 466,-163 472,-169 472,-175 472,-175 472,-187 472,-187 472,-193 466,-199 460,-199"/>
<text text-anchor="middle" x="428" y="-184" font-family="Avenir Next" font-size="10.00" fill="#17232b">BIOL418</text>
<text text-anchor="middle" x="428" y="-173" font-family="Avenir Next" font-size="10.00" fill="#17232b">Forest Ecology</text>
</a>
</g>
</g>
<!-- course__BIOL215&#45;&gt;course__BIOL418 -->
<g id="edge8" class="edge">
<title>course__BIOL215&#45;&gt;course__BIOL418</title>
<path fill="none" stroke="#5d6972" stroke-width="1.2" d="M320.76,-198.44C337.01,-195.77 358.02,-192.33 377.05,-189.2"/>
<polygon fill="#5d6972" stroke="#5d6972" stroke-width="1.2" points="377.45,-191.62 383.96,-188.07 376.66,-186.78 377.45,-191.62"/>
</g>
<!-- BIOL418_notes -->
<g id="node6" class="node">
<title>BIOL418_notes</title>
<polygon fill="#fff7ee" stroke="#b7793f" stroke-width="1.1" points="194,-177 0,-177 0,-131 200,-131 200,-171 194,-177"/>
<polyline fill="none" stroke="#b7793f" stroke-width="1.1" points="194,-177 194,-171 "/>
<polyline fill="none" stroke="#b7793f" stroke-width="1.1" points="200,-171 194,-171 "/>
<text text-anchor="start" x="13" y="-157.4" font-family="Avenir Next" font-size="12.00">Published notes</text>
<text text-anchor="start" x="13" y="-144.4" font-family="Avenir Next" font-size="12.00">minimum third year standing</text>
</g>
<!-- BIOL418_notes&#45;&gt;course__BIOL418 -->
<!-- choice_BIOL184_0_0&#45;&gt;course__BIOL184 -->
<g id="edge4" class="edge">
<title>choice_BIOL184_0_0&#45;&gt;course__BIOL184</title>
<path fill="none" stroke="#5d6972" stroke-width="1.2" d="M455.19,-62C475.45,-62 503.67,-62 525.73,-62"/>
<polygon fill="#5d6972" stroke="#5d6972" stroke-width="1.2" points="525.95,-64.45 532.95,-62 525.95,-59.55 525.95,-64.45"/>
</g>
<!-- choice_BIOL186_0_0&#45;&gt;course__BIOL186 -->
<g id="edge7" class="edge">
<title>choice_BIOL186_0_0&#45;&gt;course__BIOL186</title>
<path fill="none" stroke="#5d6972" stroke-width="1.2" d="M649.8,-51.62C632.76,-45.35 609.91,-37.86 589,-34 495.52,-16.73 382.84,-16.05 327.33,-17.01"/>
<polygon fill="#5d6972" stroke="#5d6972" stroke-width="1.2" points="327.16,-14.57 320.21,-17.15 327.26,-19.47 327.16,-14.57"/>
</g>
</g>
</svg>
