<?xml version="1.0" encoding="UTF-8" standalone="no"?>
<!DOCTYPE svg PUBLIC "-//W3C//DTD SVG 1.1//EN"
 "http://www.w3.org/Graphics/SVG/1.1/DTD/svg11.dtd">
<!-- Generated by graphviz version 2.43.0 (0)
 -->
<!-- Title: BIOL319 Pages: 1 -->
<svg width="1116pt" height="292pt"
 viewBox="0.00 0.00 1116.20 292.20" xmlns="http://www.w3.org/2000/svg" xmlns:xlink="http://www.w3.org/1999/xlink">
<g id="graph0" class="graph" transform="scale(1 1) rotate(0) translate(21.6 270.6)">
<title>BIOL319</title>
<!-- course__BIOL150A -->
<g id="node1" class="node">
<title>course__BIOL150A</title>
<g id="a_node1"><a xlink:href="../../../courses/BIOL150A.html" xlink:title="BIOL150A: Modern Biology" target="_top">
<path fill="#dbe8d2" stroke="#7e8d96" d="M74.5,-249C74.5,-249 36.5,-249 36.5,-249 30.5,-249 24.5,-243 24.5,-237 24.5,-237 24.5,-225 24.5,-225 24.5,-219 30.5,-213 36.5,-213 36.5,-213 74.5,-213 74.5,-213 80.5,-213 86.5,-219 86.5,-225 86.5,-225 86.5,-237 86.5,-237 86.5,-243 80.5,-249 74.5,-249"/>
<text text-anchor="middle" x="55.5" y="-228.8" font-family="Avenir Next" font-size="9.00" fill="#41515b">BIOL150A</text>
</a>
</g>
</g>
<!-- choice_BIOL184_0_0 -->
<g id="node14" class="node">
<title>choice_BIOL184_0_0</title>
<path fill="#fff7ee" stroke="#b7793f" stroke-width="1.1" d="M477.5,-221C477.5,-221 447.5,-221 447.5,-221 441.5,-221 435.5,-215 435.5,-209 435.5,-209 435.5,-197 435.5,-197 435.5,-191 441.5,-185 447.5,-185 447.5,-185 477.5,-185 477.5,-185 483.5,-185 489.5,-191 489.5,-197 489.5,-197 489.5,-209 489.5,-209 489.5,-215 483.5,-221 477.5,-221"/>
<text text-anchor="middle" x="462.5" y="-200.8" font-family="Avenir Next" font-size="9.00">1 of</text>
</g>
<!-- course__BIOL150A&#45;&gt;choice_BIOL184_0_0 -->
<g id="edge1" class="edge">
<title>course__BIOL150A&#45;&gt;choice_BIOL184_0_0</title>
<path fill="none" stroke="#7a8389" d="M86.65,-233.34C139.43,-236.93 251.93,-242.24 346,-231 374.22,-227.63 405.51,-219.78 428.4,-213.25"/>
<polygon fill="#7a8389" stroke="#7a8389" points="429.18,-215.57 435.22,-211.27 427.81,-210.86 429.18,-215.57"/>
</g>
<!-- choice_BIOL186_0_0 -->
<g id="node15" class="node">
<title>choice_BIOL186_0_0</title>
<path fill="#fff7ee" stroke="#b7793f" stroke-width="1.1" d="M214,-221C214,-221 184,-221 184,-221 178,-221 172,-215 172,-209 172,-209 172,-197 172,-197 172,-191 178,-185 184,-185 184,-185 214,-185 214,-185 220,-185 226,-191 226,-197 226,-197 226,-209 226,-209 226,-215 220,-221 214,-221"/>
<text text-anchor="middle" x="199" y="-200.8" font-family="Avenir Next" font-size="9.00">1 of</text>
</g>
<!-- course__BIOL150A&#45;&gt;choice_BIOL186_0_0 -->
<g id="edge4" class="edge">
<title>course__BIOL150A&#45;&gt;choice_BIOL186_0_0</title>
<path fill="none" stroke="#7a8389" d="M86.51,-225.06C109.45,-220.52 141.05,-214.27 164.76,-209.58"/>
<polygon fill="#7a8389" stroke="#7a8389" points="165.45,-211.94 171.84,-208.18 164.5,-207.13 165.45,-211.94"/>
</g>
<!-- course__BIOL184 -->
<g id="node2" class="node">
<title>course__BIOL184</title>
<g id="a_node2"><a xlink:href="../../../courses/BIOL184.html" xlink:title="BIOL184: Evolution and Biodiversity" target="_top">
<path fill="#dbe8d2" stroke="#7e8d96" d="M71.5,-172C71.5,-172 39.5,-172 39.5,-172 33.5,-172 27.5,-166 27.5,-160 27.5,-160 27.5,-148 27.5,-148 27.5,-142 33.5,-136 39.5,-136 39.5,-136 71.5,-136 71.5,-136 77.5,-136 83.5,-142 83.5,-148 83.5,-148 83.5,-160 83.5,-160 83.5,-166 77.5,-172 71.5,-172"/>
<text text-anchor="middle" x="55.5" y="-151.8" font-family="Avenir Next" font-size="9.00" fill="#41515b">BIOL184</text>
</a>
</g>
</g>
<!-- course__BIOL225 -->
<g id="node6" class="node">
<title>course__BIOL225</title>
<g id="a_node6"><a xlink:href="../../../courses/BIOL225.html" xlink:title="BIOL225: Principles of Cell Biology" target="_top">
<path fill="#dbe8d2" stroke="#7e8d96" d="M478.5,-148C478.5,-148 446.5,-148 446.5,-148 440.5,-148 434.5,-142 434.5,-136 434.5,-136 434.5,-124 434.5,-124 434.5,-118 440.5,-112 446.5,-112 446.5,-112 478.5,-112 478.5,-112 484.5,-112 490.5,-118 490.5,-124 490.5,-124 490.5,-136 490.5,-136 490.5,-142 484.5,-148 478.5,-148"/>
<text text-anchor="middle" x="462.5" y="-127.8" font-family="Avenir Next" font-size="9.00" fill="#41515b">BIOL225</text>
</a>
</g>
</g>
<!-- course__BIOL184&#45;&gt;course__BIOL225 -->
<g id="edge8" class="edge">
<title>course__BIOL184&#45;&gt;course__BIOL225</title>
<path fill="none" stroke="#5d6972" stroke-width="1.2" d="M83.94,-149.33C107.29,-145.57 141.74,-140.51 172,-138 263.89,-130.39 372.68,-129.58 427.01,-129.73"/>
<polygon fill="#5d6972" stroke="#5d6972" stroke-width="1.2" points="427.3,-132.18 434.3,-129.76 427.31,-127.28 427.3,-132.18"/>
</g>
<!-- course__BIOL184&#45;&gt;choice_BIOL186_0_0 -->
<g id="edge5" class="edge">
<title>course__BIOL184&#45;&gt;choice_BIOL186_0_0</title>
<path fill="none" stroke="#7a8389" d="M83.78,-163.45C106.98,-171.48 140.35,-183.04 165.04,-191.59"/>
<polygon fill="#7a8389" stroke="#7a8389" points="164.34,-193.94 171.76,-193.91 165.94,-189.31 164.34,-193.94"/>
</g>
<!-- course__MATH100 -->
<g id="node3" class="node">
<title>course__MATH100</title>
<g id="a_node3"><a xlink:href="../../../courses/MATH100.html" xlink:title="Equivalent or cross&#45;listed: MATH100: Calculus I | MATH102: Calculus for Students in the Social and Biological Sciences | MATH109: Introduction to Calculus" target="_top">
<path fill="#dfe3f4" stroke="#7e8d96" d="M99,-74C99,-74 12,-74 12,-74 6,-74 0,-68 0,-62 0,-62 0,-50 0,-50 0,-44 6,-38 12,-38 12,-38 99,-38 99,-38 105,-38 111,-44 111,-50 111,-50 111,-62 111,-62 111,-68 105,-74 99,-74"/>
<text text-anchor="middle" x="55.5" y="-58.8" font-family="Avenir Next" font-size="9.00" fill="#41515b">MATH100 / MATH102</text>
<text text-anchor="middle" x="55.5" y="-48.8" font-family="Avenir Next" font-size="9.00" fill="#41515b">MATH109</text>
</a>
</g>
</g>
<!-- course__MATH101 -->
<g id="node5" class="node">
<title>course__MATH101</title>
<g id="a_node5"><a xlink:href="../../../courses/MATH101.html" xlink:title="MATH101: Calculus II" target="_top">
<path fill="#dfe3f4" stroke="#7e8d96" d="M334,-74C334,-74 299,-74 299,-74 293,-74 287,-68 287,-62 287,-62 287,-50 287,-50 287,-44 293,-38 299,-38 299,-38 334,-38 334,-38 340,-38 346,-44 346,-50 346,-50 346,-62 346,-62 346,-68 340,-74 334,-74"/>
<text text-anchor="middle" x="316.5" y="-53.8" font-family="Avenir Next" font-size="9.00" fill="#41515b">MATH101</text>
</a>
</g>
</g>
<!-- course__MATH100&#45;&gt;course__MATH101 -->
<g id="edge16" class="edge">
<title>course__MATH100&#45;&gt;course__MATH101</title>
<path fill="none" stroke="#5d6972" stroke-width="1.2" d="M111.11,-56C161.9,-56 236.1,-56 279.73,-56"/>
<polygon fill="#5d6972" stroke="#5d6972" stroke-width="1.2" points="279.98,-58.45 286.98,-56 279.98,-53.55 279.98,-58.45"/>
</g>
<!-- course__BIOL186 -->
<g id="node4" class="node">
<title>course__BIOL186</title>
<g id="a_node4"><a xlink:href="../../../courses/BIOL186.html" xlink:title="BIOL186: Physiology and Cell Biology" target="_top">
<path fill="#dbe8d2" stroke="#7e8d96" d="M332.5,-221C332.5,-221 300.5,-221 300.5,-221 294.5,-221 288.5,-215 288.5,-209 288.5,-209 288.5,-197 288.5,-197 288.5,-191 294.5,-185 300.5,-185 300.5,-185 332.5,-185 332.5,-185 338.5,-185 344.5,-191 344.5,-197 344.5,-197 344.5,-209 344.5,-209 344.5,-215 338.5,-221 332.5,-221"/>
<text text-anchor="middle" x="316.5" y="-200.8" font-family="Avenir Next" font-size="9.00" fill="#41515b">BIOL186</text>
</a>
</g>
</g>
<!-- course__BIOL186&#45;&gt;course__BIOL225 -->
<g id="edge7" class="edge">
<title>course__BIOL186&#45;&gt;course__BIOL225</title>
<path fill="none" stroke="#5d6972" stroke-width="1.2" d="M344.59,-189.27C368.07,-177.36 402.17,-160.08 427.48,-147.24"/>
<polygon fill="#5d6972" stroke="#5d6972" stroke-width="1.2" points="428.91,-149.27 434.05,-143.92 426.7,-144.9 428.91,-149.27"/>
</g>
<!-- course__BIOL186&#45;&gt;choice_BIOL184_0_0 -->
<g id="edge2" class="edge">
<title>course__BIOL186&#45;&gt;choice_BIOL184_0_0</title>
<path fill="none" stroke="#7a8389" d="M344.59,-203C368.17,-203 402.45,-203 427.8,-203"/>
<polygon fill="#7a8389" stroke="#7a8389" points="428.02,-205.45 435.02,-203 428.02,-200.55 428.02,-205.45"/>
</g>
<!-- course__MATH200 -->
<g id="node7" class="node">
<title>course__MATH200</title>
<g id="a_node7"><a xlink:href="../../../courses/MATH200.html" xlink:title="Equivalent or cross&#45;listed: MATH200: Calculus III | MATH202: Intermediate Calculus for CSC and EOS" target="_top">
<path fill="#dfe3f4" stroke="#7e8d96" d="M506,-47C506,-47 419,-47 419,-47 413,-47 407,-41 407,-35 407,-35 407,-23 407,-23 407,-17 413,-11 419,-11 419,-11 506,-11 506,-11 512,-11 518,-17 518,-23 518,-23 518,-35 518,-35 518,-41 512,-47 506,-47"/>
<text text-anchor="middle" x="462.5" y="-26.8" font-family="Avenir Next" font-size="9.00" fill="#41515b">MATH200 / MATH202</text>
</a>
</g>
</g>
<!-- course__MATH101&#45;&gt;course__MATH200 -->
<g id="edge17" class="edge">
<title>course__MATH101&#45;&gt;course__MATH200</title>
<path fill="none" stroke="#5d6972" stroke-width="1.2" d="M346.29,-50.6C361.58,-47.73 381,-44.09 399.51,-40.62"/>
<polygon fill="#5d6972" stroke="#5d6972" stroke-width="1.2" points="400.39,-42.95 406.82,-39.25 399.49,-38.13 400.39,-42.95"/>
</g>
<!-- course__STAT254 -->
<g id="node10" class="node">
<title>course__STAT254</title>
<g id="a_node10"><a xlink:href="../../../courses/STAT254.html" xlink:title="Equivalent or cross&#45;listed: STAT254: Probability and Statistics for Engineers | STAT260: Introduction to Probability and Statistics I" target="_top">
<path fill="#e6dde9" stroke="#1b2730" stroke-width="1.6" d="M675,-92C675,-92 591,-92 591,-92 585,-92 579,-86 579,-80 579,-80 579,-68 579,-68 579,-62 585,-56 591,-56 591,-56 675,-56 675,-56 681,-56 687,-62 687,-68 687,-68 687,-80 687,-80 687,-86 681,-92 675,-92"/>
<text text-anchor="middle" x="633" y="-71.5" font-family="Avenir Next" font-size="10.00" fill="#17232b">STAT254 / STAT260</text>
</a>
</g>
</g>
<!-- course__MATH101&#45;&gt;course__STAT254 -->
<g id="edge19" class="edge">
<title>course__MATH101&#45;&gt;course__STAT254</title>
<path fill="none" stroke="#5d6972" stroke-width="1.2" d="M346.24,-57.65C397.08,-60.55 503.88,-66.67 571.54,-70.54"/>
<polygon fill="#5d6972" stroke="#5d6972" stroke-width="1.2" points="571.65,-73 578.78,-70.95 571.93,-68.11 571.65,-73"/>
</g>
<!-- course__BIOL321 -->
<g id="node9" class="node">
<title>course__BIOL321</title>
<g id="a_node9"><a xlink:href="../../../courses/BIOL321.html" xlink:title="BIOL321: Survey of Invertebrates" target="_top">
<path fill="#dbe8d2" stroke="#1b2730" stroke-width="1.6" d="M649.5,-148C649.5,-148 616.5,-148 616.5,-148 610.5,-148 604.5,-142 604.5,-136 604.5,-136 604.5,-124 604.5,-124 604.5,-118 610.5,-112 616.5,-112 616.5,-112 649.5,-112 649.5,-112 655.5,-112 661.5,-118 661.5,-124 661.5,-124 661.5,-136 661.5,-136 661.5,-142 655.5,-148 649.5,-148"/>
<text text-anchor="middle" x="633" y="-127.5" font-family="Avenir Next" font-size="10.00" fill="#17232b">BIOL321</text>
</a>
</g>
</g>
<!-- course__BIOL225&#45;&gt;course__BIOL321 -->
<g id="edge14" class="edge">
<title>course__BIOL225&#45;&gt;course__BIOL321</title>
<path fill="none" stroke="#5d6972" stroke-width="1.2" d="M490.57,-130C519.51,-130 565.49,-130 597.12,-130"/>
<polygon fill="#5d6972" stroke="#5d6972" stroke-width="1.2" points="597.44,-132.45 604.43,-130 597.43,-127.55 597.44,-132.45"/>
</g>
<!-- course__MATH200&#45;&gt;course__STAT254 -->
<g id="edge18" class="edge">
<title>course__MATH200&#45;&gt;course__STAT254</title>
<path fill="none" stroke="#5d6972" stroke-width="1.2" d="M518.21,-43.61C535.34,-48.19 554.35,-53.26 571.84,-57.93"/>
<polygon fill="#5d6972" stroke="#5d6972" stroke-width="1.2" points="571.32,-60.33 578.72,-59.77 572.59,-55.6 571.32,-60.33"/>
</g>
<!-- course__BIOL215 -->
<g id="node8" class="node">
<title>course__BIOL215</title>
<g id="a_node8"><a xlink:href="../../../courses/BIOL215.html" xlink:title="BIOL215: Principles of Ecology" target="_top">
<path fill="#dbe8d2" stroke="#1b2730" stroke-width="1.6" d="M649.5,-204C649.5,-204 616.5,-204 616.5,-204 610.5,-204 604.5,-198 604.5,-192 604.5,-192 604.5,-180 604.5,-180 604.5,-174 610.5,-168 616.5,-168 616.5,-168 649.5,-168 649.5,-168 655.5,-168 661.5,-174 661.5,-180 661.5,-180 661.5,-192 661.5,-192 661.5,-198 655.5,-204 649.5,-204"/>
<text text-anchor="middle" x="633" y="-183.5" font-family="Avenir Next" font-size="10.00" fill="#17232b">BIOL215</text>
</a>
</g>
</g>
<!-- course__BIOL319 -->
<g id="node12" class="node">
<title>course__BIOL319</title>
<g id="a_node12"><a xlink:href="../../../courses/BIOL319.html" xlink:title="BIOL319: Marine Ecology" target="_top">
<path fill="#dbe8d2" stroke="#1f4f66" stroke-width="2" d="M943,-148C943,-148 875,-148 875,-148 869,-148 863,-142 863,-136 863,-136 863,-124 863,-124 863,-118 869,-112 875,-112 875,-112 943,-112 943,-112 949,-112 955,-118 955,-124 955,-124 955,-136 955,-136 955,-142 949,-148 943,-148"/>
<text text-anchor="middle" x="909" y="-133" font-family="Avenir Next" font-size="10.00" fill="#17232b">BIOL319</text>
<text text-anchor="middle" x="909" y="-122" font-family="Avenir Next" font-size="10.00" fill="#17232b">Marine Ecology</text>
</a>
</g>
</g>
<!-- course__BIOL215&#45;&gt;course__BIOL319 -->
<g id="edge11" class="edge">
<title>course__BIOL215&#45;&gt;course__BIOL319</title>
<path fill="none" stroke="#5d6972" stroke-width="1.2" d="M661.53,-180.37C706.91,-171.1 798.15,-152.45 855.99,-140.63"/>
<polygon fill="#5d6972" stroke="#5d6972" stroke-width="1.2" points="856.5,-143.03 862.87,-139.22 855.52,-138.22 856.5,-143.03"/>
</g>
<!-- course__BIOL321&#45;&gt;course__BIOL319 -->
<g id="edge12" class="edge">
<title>course__BIOL321&#45;&gt;course__BIOL319</title>
<path fill="none" stroke="#5d6972" stroke-width="1.2" d="M661.53,-130C706.82,-130 797.78,-130 855.64,-130"/>
<polygon fill="#5d6972" stroke="#5d6972" stroke-width="1.2" points="855.87,-132.45 862.87,-130 855.87,-127.55 855.87,-132.45"/>
</g>
<!-- choice_BIOL319_0_1 -->
<g id="node16" class="node">
<title>choice_BIOL319_0_1</title>
<path fill="#fff7ee" stroke="#b7793f" stroke-width="1.1" d="M790,-92C790,-92 760,-92 760,-92 754,-92 748,-86 748,-80 748,-80 748,-68 748,-68 748,-62 754,-56 760,-56 760,-56 790,-56 790,-56 796,-56 802,-62 802,-68 802,-68 802,-80 802,-80 802,-86 796,-92 790,-92"/>
<text text-anchor="middle" x="775" y="-71.8" font-family="Avenir Next" font-size="9.00">1 of</text>
</g>
<!-- course__STAT254&#45;&gt;choice_BIOL319_0_1 -->
<g id="edge10" class="edge">
<title>course__STAT254&#45;&gt;choice_BIOL319_0_1</title>
<path fill="none" stroke="#7a8389" d="M687.33,-74C705.29,-74 724.8,-74 740.76,-74"/>
<polygon fill="#7a8389" stroke="#7a8389" points="740.82,-76.45 747.82,-74 740.82,-71.55 740.82,-76.45"/>
</g>
<!-- course__STAT255 -->
<g id="node11" class="node">
<title>course__STAT255</title>
<g id="a_node11"><a xlink:href="../../../courses/STAT255.html" xlink:title="STAT255: Statistics for Life Sciences I" target="_top">
<path fill="#e6dde9" stroke="#1b2730" stroke-width="1.6" d="M650,-36C650,-36 616,-36 616,-36 610,-36 604,-30 604,-24 604,-24 604,-12 604,-12 604,-6 610,0 616,0 616,0 650,0 650,0 656,0 662,-6 662,-12 662,-12 662,-24 662,-24 662,-30 656,-36 650,-36"/>
<text text-anchor="middle" x="633" y="-15.5" font-family="Avenir Next" font-size="10.00" fill="#17232b">STAT255</text>
</a>
</g>
</g>
<!-- course__STAT255&#45;&gt;choice_BIOL319_0_1 -->
<g id="edge9" class="edge">
<title>course__STAT255&#45;&gt;choice_BIOL319_0_1</title>
<path fill="none" stroke="#7a8389" d="M662.33,-29.33C685.12,-38.45 717.17,-51.27 741.09,-60.84"/>
<polygon fill="#7a8389" stroke="#7a8389" points="740.2,-63.12 747.61,-63.44 742.02,-58.57 740.2,-63.12"/>
</g>
<!-- course__BIOL466 -->
<g id="node13" class="node">
<title>course__BIOL466</title>
<g id="a_node13"><a xlink:href="../../../courses/BIOL466.html" xlink:title="BIOL466: Frontiers in Marine Biology" target="_top">
<path fill="#dbe8d2" stroke="#1b2730" stroke-width="1.6" d="M1061,-148C1061,-148 1028,-148 1028,-148 1022,-148 1016,-142 1016,-136 1016,-136 1016,-124 1016,-124 1016,-118 1022,-112 1028,-112 1028,-112 1061,-112 1061,-112 1067,-112 1073,-118 1073,-124 1073,-124 1073,-136 1073,-136 1073,-142 1067,-148 1061,-148"/>
<text text-anchor="middle" x="1044.5" y="-127.5" font-family="Avenir Next" font-size="10.00" fill="#17232b">BIOL466</text>
</a>
</g>
</g>
<!-- course__BIOL319&#45;&gt;course__BIOL466 -->
<g id="edge15" class="edge">
<title>course__BIOL319&#45;&gt;course__BIOL466</title>
<path fill="none" stroke="#5d6972" stroke-width="1.2" d="M955.2,-130C972.65,-130 992.3,-130 1008.62,-130"/>
<polygon fill="#5d6972" stroke="#5d6972" stroke-width="1.2" points="1008.87,-132.45 1015.87,-130 1008.87,-127.55 1008.87,-132.45"/>
</g>
<!-- choice_BIOL184_0_0&#45;&gt;course__BIOL184 -->
<g id="edge3" class="edge">
<title>choice_BIOL184_0_0&#45;&gt;course__BIOL184</title>
<path fill="none" stroke="#5d6972" stroke-width="1.2" d="M435.14,-195.29C411.89,-188.81 376.99,-179.85 346,-175 254.7,-160.72 145.66,-156.12 91.13,-154.66"/>
<polygon fill="#5d6972" stroke="#5d6972" stroke-width="1.2" points="90.87,-152.21 83.81,-154.48 90.75,-157.11 90.87,-152.21"/>
</g>
<!-- choice_BIOL186_0_0&#45;&gt;course__BIOL186 -->
<g id="edge6" class="edge">
<title>choice_BIOL186_0_0&#45;&gt;course__BIOL186</title>
<path fill="none" stroke="#5d6972" stroke-width="1.2" d="M226.21,-203C242.4,-203 263.36,-203 280.9,-203"/>
<polygon fill="#5d6972" stroke="#5d6972" stroke-width="1.2" points="281.19,-205.45 288.19,-203 281.19,-200.55 281.19,-205.45"/>
</g>
<!-- choice_BIOL319_0_1&#45;&gt;course__BIOL319 -->
<g id="edge13" class="edge">
<title>choice_BIOL319_0_1&#45;&gt;course__BIOL319</title>
<path fill="none" stroke="#5d6972" stroke-width="1.2" d="M802.08,-85.06C818.28,-91.94 839.62,-100.99 858.9,-109.17"/>
<polygon fill="#5d6972" stroke="#5d6972" stroke-width="1.2" points="857.95,-111.43 865.35,-111.91 859.86,-106.92 857.95,-111.43"/>
</g>
</g>
</svg>
