<?xml version="1.0" encoding="UTF-8" standalone="no"?>
<!DOCTYPE svg PUBLIC "-//W3C//DTD SVG 1.1//EN"
 "http://www.w3.org/Graphics/SVG/1.1/DTD/svg11.dtd">
<!-- Generated by graphviz version 2.43.0 (0)
 -->
<!-- Title: BIOL438 Pages: 1 -->
<svg width="854pt" height="231pt"
 viewBox="0.00 0.00 854.20 231.20" xmlns="http://www.w3.org/2000/svg" xmlns:xlink="http://www.w3.org/1999/xlink">
<g id="graph0" class="graph" transform="scale(1 1) rotate(0) translate(21.6 209.6)">
<title>BIOL438</title>
<!-- course__BIOL225 -->
<g id="node1" class="node">
<title>course__BIOL225</title>
<g id="a_node1"><a xlink:href="../../../courses/BIOL225.html" xlink:title="BIOL225: Principles of Cell Biology" target="_top">
<path fill="#dbe8d2" stroke="#1b2730" stroke-width="1.6" d="M328,-163C328,-163 295,-163 295,-163 289,-163 283,-157 283,-151 283,-151 283,-139 283,-139 283,-133 289,-127 295,-127 295,-127 328,-127 328,-127 334,-127 340,-133 340,-139 340,-139 340,-151 340,-151 340,-157 334,-163 328,-163"/>
<text text-anchor="middle" x="311.5" y="-142.5" font-family="Avenir Next" font-size="10.00" fill="#17232b">BIOL225</text>
</a>
</g>
</g>
<!-- course__BIOL230 -->
<g id="node3" class="node">
<title>course__BIOL230</title>
<g id="a_node3"><a xlink:href="../../../courses/BIOL230.html" xlink:title="BIOL230: Principles of Genetics" target="_top">
<path fill="#dbe8d2" stroke="#1b2730" stroke-width="1.6" d="M446,-188C446,-188 413,-188 413,-188 407,-188 401,-182 401,-176 401,-176 401,-164 401,-164 401,-158 407,-152 413,-152 413,-152 446,-152 446,-152 452,-152 458,-158 458,-164 458,-164 458,-176 458,-176 458,-182 452,-188 446,-188"/>
<text text-anchor="middle" x="429.5" y="-167.5" font-family="Avenir Next" font-size="10.00" fill="#17232b">BIOL230</text>
</a>
</g>
</g>
<!-- course__BIOL225&#45;&gt;course__BIOL230 -->
<g id="edge2" class="edge">
<title>course__BIOL225&#45;&gt;course__BIOL230</title>
<path fill="none" stroke="#5d6972" stroke-width="1.2" d="M340.28,-150.99C356.35,-154.45 376.72,-158.84 393.83,-162.53"/>
<polygon fill="#5d6972" stroke="#5d6972" stroke-width="1.2" points="393.58,-164.98 400.94,-164.06 394.62,-160.19 393.58,-164.98"/>
</g>
<!-- choice_BIOL438_0_0 -->
<g id="node6" class="node">
<title>choice_BIOL438_0_0</title>
<path fill="#fff7ee" stroke="#b7793f" stroke-width="1.1" d="M561,-114C561,-114 531,-114 531,-114 525,-114 519,-108 519,-102 519,-102 519,-90 519,-90 519,-84 525,-78 531,-78 531,-78 561,-78 561,-78 567,-78 573,-84 573,-90 573,-90 573,-102 573,-102 573,-108 567,-114 561,-114"/>
<text text-anchor="middle" x="546" y="-93.8" font-family="Avenir Next" font-size="9.00">2 of</text>
</g>
<!-- course__BIOL225&#45;&gt;choice_BIOL438_0_0 -->
<g id="edge4" class="edge">
<title>course__BIOL225&#45;&gt;choice_BIOL438_0_0</title>
<path fill="none" stroke="#7a8389" d="M340.08,-139.19C383.01,-130.14 465.67,-112.72 511.8,-103"/>
<polygon fill="#7a8389" stroke="#7a8389" points="512.54,-105.35 518.88,-101.5 511.52,-100.55 512.54,-105.35"/>
</g>
<!-- course__BIOL215 -->
<g id="node2" class="node">
<title>course__BIOL215</title>
<g id="a_node2"><a xlink:href="../../../courses/BIOL215.html" xlink:title="BIOL215: Principles of Ecology" target="_top">
<path fill="#dbe8d2" stroke="#1b2730" stroke-width="1.6" d="M446,-90C446,-90 413,-90 413,-90 407,-90 401,-84 401,-78 401,-78 401,-66 401,-66 401,-60 407,-54 413,-54 413,-54 446,-54 446,-54 452,-54 458,-60 458,-66 458,-66 458,-78 458,-78 458,-84 452,-90 446,-90"/>
<text text-anchor="middle" x="429.5" y="-69.5" font-family="Avenir Next" font-size="10.00" fill="#17232b">BIOL215</text>
</a>
</g>
</g>
<!-- course__BIOL215&#45;&gt;choice_BIOL438_0_0 -->
<g id="edge3" class="edge">
<title>course__BIOL215&#45;&gt;choice_BIOL438_0_0</title>
<path fill="none" stroke="#7a8389" d="M458.22,-77.81C474.32,-81.18 494.71,-85.46 511.68,-89.02"/>
<polygon fill="#7a8389" stroke="#7a8389" points="511.36,-91.45 518.72,-90.49 512.37,-86.66 511.36,-91.45"/>
</g>
<!-- course__BIOL230&#45;&gt;choice_BIOL438_0_0 -->
<g id="edge5" class="edge">
<title>course__BIOL230&#45;&gt;choice_BIOL438_0_0</title>
<path fill="none" stroke="#7a8389" d="M458.22,-152.09C474.6,-141.5 495.44,-128.03 512.58,-116.95"/>
<polygon fill="#7a8389" stroke="#7a8389" points="514.17,-118.84 518.72,-112.99 511.51,-114.73 514.17,-118.84"/>
</g>
<!-- course__BIOL438 -->
<g id="node4" class="node">
<title>course__BIOL438</title>
<g id="a_node4"><a xlink:href="../../../courses/BIOL438.html" xlink:title="BIOL438: Nutrient Cycling and Prokaryotes" target="_top">
<path fill="#dbe8d2" stroke="#1f4f66" stroke-width="2" d="M799,-65C799,-65 646,-65 646,-65 640,-65 634,-59 634,-53 634,-53 634,-41 634,-41 634,-35 640,-29 646,-29 646,-29 799,-29 799,-29 805,-29 811,-35 811,-41 811,-41 811,-53 811,-53 811,-59 805,-65 799,-65"/>
<text text-anchor="middle" x="722.5" y="-50" font-family="Avenir Next" font-size="10.00" fill="#17232b">BIOL438</text>
<text text-anchor="middle" x="722.5" y="-39" font-family="Avenir Next" font-size="10.00" fill="#17232b">Nutrient Cycling and Prokaryotes</text>
</a>
</g>
</g>
<!-- BIOL438_notes -->
<g id="node5" class="node">
<title>BIOL438_notes</title>
<polygon fill="#fff7ee" stroke="#b7793f" stroke-width="1.1" points="216,-46 0,-46 0,0 222,0 222,-40 216,-46"/>
<polyline fill="none" stroke="#b7793f" stroke-width="1.1" points="216,-46 216,-40 "/>
<polyline fill="none" stroke="#b7793f" stroke-width="1.1" points="222,-40 216,-40 "/>
<text text-anchor="start" x="13" y="-26.4" font-family="Avenir Next" font-size="12.00">Published notes</text>
<text text-anchor="start" x="13" y="-13.4" font-family="Avenir Next" font-size="12.00">or permission of the department</text>
</g>
<!-- BIOL438_notes&#45;&gt;course__BIOL438 -->
<!-- choice_BIOL438_0_0&#45;&gt;course__BIOL438 -->
<g id="edge6" class="edge">
<title>choice_BIOL438_0_0&#45;&gt;course__BIOL438</title>
<path fill="none" stroke="#5d6972" stroke-width="1.2" d="M573.12,-88.66C593.55,-82.93 622.95,-74.67 650.2,-67.02"/>
<polygon fill="#5d6972" stroke="#5d6972" stroke-width="1.2" points="651,-69.34 657.08,-65.09 649.67,-64.62 651,-69.34"/>
</g>
</g>
</svg>
