<?xml version="1.0" encoding="UTF-8" standalone="no"?>
<!DOCTYPE svg PUBLIC "-//W3C//DTD SVG 1.1//EN"
 "http://www.w3.org/Graphics/SVG/1.1/DTD/svg11.dtd">
<!-- Generated by graphviz version 2.43.0 (0)
 -->
<!-- Title: BIOL490D Pages: 1 -->
<svg width="297pt" height="79pt"
 viewBox="0.00 0.00 297.20 79.20" xmlns="http://www.w3.org/2000/svg" xmlns:xlink="http://www.w3.org/1999/xlink">
<g id="graph0" class="graph" transform="scale(1 1) rotate(0) translate(21.6 57.6)">
<title>BIOL490D</title>
<!-- course__BIOL490D -->
<g id="node1" class="node">
<title>course__BIOL490D</title>
<g id="a_node1"><a xlink:href="../../../courses/BIOL490D.html" xlink:title="BIOL490D: Directed Studies and Research in Marine Biology" target="_top">
<path fill="#dbe8d2" stroke="#1f4f66" stroke-width="2" d="M242,-36C242,-36 12,-36 12,-36 6,-36 0,-30 0,-24 0,-24 0,-12 0,-12 0,-6 6,0 12,0 12,0 242,0 242,0 248,0 254,-6 254,-12 254,-12 254,-24 254,-24 254,-30 248,-36 242,-36"/>
<text text-anchor="middle" x="127" y="-21" font-family="Avenir Next" font-size="10.00" fill="#17232b">BIOL490D</text>
<text text-anchor="middle" x="127" y="-10" font-family="Avenir Next" font-size="10.00" fill="#17232b">Directed Studies and Research in Marine Biology</text>
</a>
</g>
</g>
</g>
</svg>
