<?xml version="1.0" encoding="UTF-8" standalone="no"?>
<!DOCTYPE svg PUBLIC "-//W3C//DTD SVG 1.1//EN"
 "http://www.w3.org/Graphics/SVG/1.1/DTD/svg11.dtd">
<!-- Generated by graphviz version 2.43.0 (0)
 -->
<!-- Title: BIOL457 Pages: 1 -->
<svg width="775pt" height="196pt"
 viewBox="0.00 0.00 775.20 195.70" xmlns="http://www.w3.org/2000/svg" xmlns:xlink="http://www.w3.org/1999/xlink">
<g id="graph0" class="graph" transform="scale(1 1) rotate(0) translate(21.6 174.1)">
<title>BIOL457</title>
<!-- course__BIOL215 -->
<g id="node1" class="node">
<title>course__BIOL215</title>
<g id="a_node1"><a xlink:href="../../../courses/BIOL215.html" xlink:title="BIOL215: Principles of Ecology" target="_top">
<path fill="#dbe8d2" stroke="#1b2730" stroke-width="1.6" d="M328,-152.5C328,-152.5 295,-152.5 295,-152.5 289,-152.5 283,-146.5 283,-140.5 283,-140.5 283,-128.5 283,-128.5 283,-122.5 289,-116.5 295,-116.5 295,-116.5 328,-116.5 328,-116.5 334,-116.5 340,-122.5 340,-128.5 340,-128.5 340,-140.5 340,-140.5 340,-146.5 334,-152.5 328,-152.5"/>
<text text-anchor="middle" x="311.5" y="-132" font-family="Avenir Next" font-size="10.00" fill="#17232b">BIOL215</text>
</a>
</g>
</g>
<!-- choice_BIOL457_0_0 -->
<g id="node5" class="node">
<title>choice_BIOL457_0_0</title>
<path fill="#fff7ee" stroke="#b7793f" stroke-width="1.1" d="M443,-96.5C443,-96.5 413,-96.5 413,-96.5 407,-96.5 401,-90.5 401,-84.5 401,-84.5 401,-72.5 401,-72.5 401,-66.5 407,-60.5 413,-60.5 413,-60.5 443,-60.5 443,-60.5 449,-60.5 455,-66.5 455,-72.5 455,-72.5 455,-84.5 455,-84.5 455,-90.5 449,-96.5 443,-96.5"/>
<text text-anchor="middle" x="428" y="-76.3" font-family="Avenir Next" font-size="9.00">1 of</text>
</g>
<!-- course__BIOL215&#45;&gt;choice_BIOL457_0_0 -->
<g id="edge2" class="edge">
<title>course__BIOL215&#45;&gt;choice_BIOL457_0_0</title>
<path fill="none" stroke="#7a8389" d="M340.22,-120.94C356.46,-113 377.07,-102.92 394.13,-94.58"/>
<polygon fill="#7a8389" stroke="#7a8389" points="395.51,-96.63 400.72,-91.35 393.35,-92.23 395.51,-96.63"/>
</g>
<!-- course__EOS330 -->
<g id="node2" class="node">
<title>course__EOS330</title>
<g id="a_node2"><a xlink:href="../../../courses/EOS330.html" xlink:title="EOS330: Paleobiology" target="_top">
<path fill="#d7e9ef" stroke="#1b2730" stroke-width="1.6" d="M326.5,-96.5C326.5,-96.5 296.5,-96.5 296.5,-96.5 290.5,-96.5 284.5,-90.5 284.5,-84.5 284.5,-84.5 284.5,-72.5 284.5,-72.5 284.5,-66.5 290.5,-60.5 296.5,-60.5 296.5,-60.5 326.5,-60.5 326.5,-60.5 332.5,-60.5 338.5,-66.5 338.5,-72.5 338.5,-72.5 338.5,-84.5 338.5,-84.5 338.5,-90.5 332.5,-96.5 326.5,-96.5"/>
<text text-anchor="middle" x="311.5" y="-76" font-family="Avenir Next" font-size="10.00" fill="#17232b">EOS330</text>
</a>
</g>
</g>
<!-- course__EOS330&#45;&gt;choice_BIOL457_0_0 -->
<g id="edge3" class="edge">
<title>course__EOS330&#45;&gt;choice_BIOL457_0_0</title>
<path fill="none" stroke="#7a8389" d="M338.77,-78.5C355.06,-78.5 376.14,-78.5 393.61,-78.5"/>
<polygon fill="#7a8389" stroke="#7a8389" points="393.85,-80.95 400.85,-78.5 393.85,-76.05 393.85,-80.95"/>
</g>
<!-- course__BIOL457 -->
<g id="node3" class="node">
<title>course__BIOL457</title>
<g id="a_node3"><a xlink:href="../../../courses/BIOL457.html" xlink:title="BIOL457: Paleoecology and Environmental Change" target="_top">
<path fill="#dbe8d2" stroke="#1f4f66" stroke-width="2" d="M720,-71.5C720,-71.5 528,-71.5 528,-71.5 522,-71.5 516,-65.5 516,-59.5 516,-59.5 516,-47.5 516,-47.5 516,-41.5 522,-35.5 528,-35.5 528,-35.5 720,-35.5 720,-35.5 726,-35.5 732,-41.5 732,-47.5 732,-47.5 732,-59.5 732,-59.5 732,-65.5 726,-71.5 720,-71.5"/>
<text text-anchor="middle" x="624" y="-56.5" font-family="Avenir Next" font-size="10.00" fill="#17232b">BIOL457</text>
<text text-anchor="middle" x="624" y="-45.5" font-family="Avenir Next" font-size="10.00" fill="#17232b">Paleoecology and Environmental Change</text>
</a>
</g>
</g>
<!-- BIOL457_notes -->
<g id="node4" class="node">
<title>BIOL457_notes</title>
<polygon fill="#fff7ee" stroke="#b7793f" stroke-width="1.1" points="216,-59 0,-59 0,0 222,0 222,-53 216,-59"/>
<polyline fill="none" stroke="#b7793f" stroke-width="1.1" points="216,-59 216,-53 "/>
<polyline fill="none" stroke="#b7793f" stroke-width="1.1" points="222,-53 216,-53 "/>
<text text-anchor="start" x="13" y="-39.4" font-family="Avenir Next" font-size="12.00">Published notes</text>
<text text-anchor="start" x="13" y="-26.4" font-family="Avenir Next" font-size="12.00">minimum third&#45;year standing</text>
<text text-anchor="start" x="13" y="-13.4" font-family="Avenir Next" font-size="12.00">or permission of the department</text>
</g>
<!-- BIOL457_notes&#45;&gt;course__BIOL457 -->
<!-- choice_BIOL457_0_0&#45;&gt;course__BIOL457 -->
<g id="edge4" class="edge">
<title>choice_BIOL457_0_0&#45;&gt;course__BIOL457</title>
<path fill="none" stroke="#5d6972" stroke-width="1.2" d="M455.16,-75.13C469.6,-73.27 488.63,-70.82 508.68,-68.23"/>
<polygon fill="#5d6972" stroke="#5d6972" stroke-width="1.2" points="509.18,-70.64 515.81,-67.31 508.56,-65.78 509.18,-70.64"/>
</g>
</g>
</svg>
