<?xml version="1.0" encoding="UTF-8" standalone="no"?>
<!DOCTYPE svg PUBLIC "-//W3C//DTD SVG 1.1//EN"
 "http://www.w3.org/Graphics/SVG/1.1/DTD/svg11.dtd">
<!-- Generated by graphviz version 2.43.0 (0)
 -->
<!-- Title: BIOL330 Pages: 1 -->
<svg width="1367pt" height="343pt"
 viewBox="0.00 0.00 1367.20 343.20" xmlns="http://www.w3.org/2000/svg" xmlns:xlink="http://www.w3.org/1999/xlink">
<g id="graph0" class="graph" transform="scale(1 1) rotate(0) translate(21.6 321.6)">
<title>BIOL330</title>
<!-- course__BIOL150A -->
<g id="node1" class="node">
<title>course__BIOL150A</title>
<g id="a_node1"><a xlink:href="../../../courses/BIOL150A.html" xlink:title="BIOL150A: Modern Biology" target="_top">
<path fill="#dbe8d2" stroke="#7e8d96" d="M74.5,-227C74.5,-227 36.5,-227 36.5,-227 30.5,-227 24.5,-221 24.5,-215 24.5,-215 24.5,-203 24.5,-203 24.5,-197 30.5,-191 36.5,-191 36.5,-191 74.5,-191 74.5,-191 80.5,-191 86.5,-197 86.5,-203 86.5,-203 86.5,-215 86.5,-215 86.5,-221 80.5,-227 74.5,-227"/>
<text text-anchor="middle" x="55.5" y="-206.8" font-family="Avenir Next" font-size="9.00" fill="#41515b">BIOL150A</text>
</a>
</g>
</g>
<!-- choice_BIOL184_0_0 -->
<g id="node18" class="node">
<title>choice_BIOL184_0_0</title>
<path fill="#fff7ee" stroke="#b7793f" stroke-width="1.1" d="M532.5,-202C532.5,-202 502.5,-202 502.5,-202 496.5,-202 490.5,-196 490.5,-190 490.5,-190 490.5,-178 490.5,-178 490.5,-172 496.5,-166 502.5,-166 502.5,-166 532.5,-166 532.5,-166 538.5,-166 544.5,-172 544.5,-178 544.5,-178 544.5,-190 544.5,-190 544.5,-196 538.5,-202 532.5,-202"/>
<text text-anchor="middle" x="517.5" y="-181.8" font-family="Avenir Next" font-size="9.00">1 of</text>
</g>
<!-- course__BIOL150A&#45;&gt;choice_BIOL184_0_0 -->
<g id="edge1" class="edge">
<title>course__BIOL150A&#45;&gt;choice_BIOL184_0_0</title>
<path fill="none" stroke="#7a8389" d="M86.59,-211.83C146.64,-216.9 285.49,-225.8 401,-212 429.22,-208.63 460.51,-200.78 483.4,-194.25"/>
<polygon fill="#7a8389" stroke="#7a8389" points="484.18,-196.57 490.22,-192.27 482.81,-191.86 484.18,-196.57"/>
</g>
<!-- choice_BIOL186_0_0 -->
<g id="node19" class="node">
<title>choice_BIOL186_0_0</title>
<path fill="#fff7ee" stroke="#b7793f" stroke-width="1.1" d="M214,-202C214,-202 184,-202 184,-202 178,-202 172,-196 172,-190 172,-190 172,-178 172,-178 172,-172 178,-166 184,-166 184,-166 214,-166 214,-166 220,-166 226,-172 226,-178 226,-178 226,-190 226,-190 226,-196 220,-202 214,-202"/>
<text text-anchor="middle" x="199" y="-181.8" font-family="Avenir Next" font-size="9.00">1 of</text>
</g>
<!-- course__BIOL150A&#45;&gt;choice_BIOL186_0_0 -->
<g id="edge4" class="edge">
<title>course__BIOL150A&#45;&gt;choice_BIOL186_0_0</title>
<path fill="none" stroke="#7a8389" d="M86.51,-203.7C109.45,-199.65 141.05,-194.06 164.76,-189.87"/>
<polygon fill="#7a8389" stroke="#7a8389" points="165.37,-192.25 171.84,-188.62 164.52,-187.43 165.37,-192.25"/>
</g>
<!-- course__BIOL184 -->
<g id="node2" class="node">
<title>course__BIOL184</title>
<g id="a_node2"><a xlink:href="../../../courses/BIOL184.html" xlink:title="BIOL184: Evolution and Biodiversity" target="_top">
<path fill="#dbe8d2" stroke="#7e8d96" d="M71.5,-153C71.5,-153 39.5,-153 39.5,-153 33.5,-153 27.5,-147 27.5,-141 27.5,-141 27.5,-129 27.5,-129 27.5,-123 33.5,-117 39.5,-117 39.5,-117 71.5,-117 71.5,-117 77.5,-117 83.5,-123 83.5,-129 83.5,-129 83.5,-141 83.5,-141 83.5,-147 77.5,-153 71.5,-153"/>
<text text-anchor="middle" x="55.5" y="-132.8" font-family="Avenir Next" font-size="9.00" fill="#41515b">BIOL184</text>
</a>
</g>
</g>
<!-- course__BIOL225 -->
<g id="node7" class="node">
<title>course__BIOL225</title>
<g id="a_node7"><a xlink:href="../../../courses/BIOL225.html" xlink:title="BIOL225: Principles of Cell Biology" target="_top">
<path fill="#dbe8d2" stroke="#1b2730" stroke-width="1.6" d="M534,-139C534,-139 501,-139 501,-139 495,-139 489,-133 489,-127 489,-127 489,-115 489,-115 489,-109 495,-103 501,-103 501,-103 534,-103 534,-103 540,-103 546,-109 546,-115 546,-115 546,-127 546,-127 546,-133 540,-139 534,-139"/>
<text text-anchor="middle" x="517.5" y="-118.5" font-family="Avenir Next" font-size="10.00" fill="#17232b">BIOL225</text>
</a>
</g>
</g>
<!-- course__BIOL184&#45;&gt;course__BIOL225 -->
<g id="edge8" class="edge">
<title>course__BIOL184&#45;&gt;course__BIOL225</title>
<path fill="none" stroke="#5d6972" stroke-width="1.2" d="M83.93,-130.12C107.26,-126.22 141.71,-121.09 172,-119 284.96,-111.21 419.23,-116.04 481.54,-119.08"/>
<polygon fill="#5d6972" stroke="#5d6972" stroke-width="1.2" points="481.66,-121.54 488.77,-119.44 481.9,-116.64 481.66,-121.54"/>
</g>
<!-- course__BIOL184&#45;&gt;choice_BIOL186_0_0 -->
<g id="edge5" class="edge">
<title>course__BIOL184&#45;&gt;choice_BIOL186_0_0</title>
<path fill="none" stroke="#7a8389" d="M83.78,-144.45C106.98,-152.48 140.35,-164.04 165.04,-172.59"/>
<polygon fill="#7a8389" stroke="#7a8389" points="164.34,-174.94 171.76,-174.91 165.94,-170.31 164.34,-174.94"/>
</g>
<!-- course__MATH100 -->
<g id="node3" class="node">
<title>course__MATH100</title>
<g id="a_node3"><a xlink:href="../../../courses/MATH100.html" xlink:title="Equivalent or cross&#45;listed: MATH100: Calculus I | MATH102: Calculus for Students in the Social and Biological Sciences | MATH109: Introduction to Calculus" target="_top">
<path fill="#dfe3f4" stroke="#7e8d96" d="M99,-300C99,-300 12,-300 12,-300 6,-300 0,-294 0,-288 0,-288 0,-276 0,-276 0,-270 6,-264 12,-264 12,-264 99,-264 99,-264 105,-264 111,-270 111,-276 111,-276 111,-288 111,-288 111,-294 105,-300 99,-300"/>
<text text-anchor="middle" x="55.5" y="-284.8" font-family="Avenir Next" font-size="9.00" fill="#41515b">MATH100 / MATH102</text>
<text text-anchor="middle" x="55.5" y="-274.8" font-family="Avenir Next" font-size="9.00" fill="#41515b">MATH109</text>
</a>
</g>
</g>
<!-- course__MATH101 -->
<g id="node6" class="node">
<title>course__MATH101</title>
<g id="a_node6"><a xlink:href="../../../courses/MATH101.html" xlink:title="MATH101: Calculus II" target="_top">
<path fill="#dfe3f4" stroke="#7e8d96" d="M361.5,-300C361.5,-300 326.5,-300 326.5,-300 320.5,-300 314.5,-294 314.5,-288 314.5,-288 314.5,-276 314.5,-276 314.5,-270 320.5,-264 326.5,-264 326.5,-264 361.5,-264 361.5,-264 367.5,-264 373.5,-270 373.5,-276 373.5,-276 373.5,-288 373.5,-288 373.5,-294 367.5,-300 361.5,-300"/>
<text text-anchor="middle" x="344" y="-279.8" font-family="Avenir Next" font-size="9.00" fill="#41515b">MATH101</text>
</a>
</g>
</g>
<!-- course__MATH100&#45;&gt;course__MATH101 -->
<g id="edge24" class="edge">
<title>course__MATH100&#45;&gt;course__MATH101</title>
<path fill="none" stroke="#5d6972" stroke-width="1.2" d="M111.06,-282C168.66,-282 257.81,-282 307.12,-282"/>
<polygon fill="#5d6972" stroke="#5d6972" stroke-width="1.2" points="307.39,-284.45 314.39,-282 307.39,-279.55 307.39,-284.45"/>
</g>
<!-- course__BIOL186 -->
<g id="node4" class="node">
<title>course__BIOL186</title>
<g id="a_node4"><a xlink:href="../../../courses/BIOL186.html" xlink:title="BIOL186: Physiology and Cell Biology" target="_top">
<path fill="#dbe8d2" stroke="#7e8d96" d="M360,-202C360,-202 328,-202 328,-202 322,-202 316,-196 316,-190 316,-190 316,-178 316,-178 316,-172 322,-166 328,-166 328,-166 360,-166 360,-166 366,-166 372,-172 372,-178 372,-178 372,-190 372,-190 372,-196 366,-202 360,-202"/>
<text text-anchor="middle" x="344" y="-181.8" font-family="Avenir Next" font-size="9.00" fill="#41515b">BIOL186</text>
</a>
</g>
</g>
<!-- course__BIOL186&#45;&gt;course__BIOL225 -->
<g id="edge7" class="edge">
<title>course__BIOL186&#45;&gt;course__BIOL225</title>
<path fill="none" stroke="#5d6972" stroke-width="1.2" d="M372.17,-174.02C401.98,-163.07 449.87,-145.48 482.23,-133.59"/>
<polygon fill="#5d6972" stroke="#5d6972" stroke-width="1.2" points="483.16,-135.86 488.88,-131.14 481.47,-131.26 483.16,-135.86"/>
</g>
<!-- course__BIOL186&#45;&gt;choice_BIOL184_0_0 -->
<g id="edge2" class="edge">
<title>course__BIOL186&#45;&gt;choice_BIOL184_0_0</title>
<path fill="none" stroke="#7a8389" d="M372.17,-184C402.29,-184 450.88,-184 483.25,-184"/>
<polygon fill="#7a8389" stroke="#7a8389" points="483.3,-186.45 490.3,-184 483.3,-181.55 483.3,-186.45"/>
</g>
<!-- course__CHEM101 -->
<g id="node5" class="node">
<title>course__CHEM101</title>
<g id="a_node5"><a xlink:href="../../../courses/CHEM101.html" xlink:title="Equivalent or cross&#45;listed: CHEM101: Fundamentals of Chemistry from Atoms to Materials | CHEM150: Engineering Chemistry" target="_top">
<path fill="#ead9b8" stroke="#7e8d96" d="M389,-62C389,-62 299,-62 299,-62 293,-62 287,-56 287,-50 287,-50 287,-38 287,-38 287,-32 293,-26 299,-26 299,-26 389,-26 389,-26 395,-26 401,-32 401,-38 401,-38 401,-50 401,-50 401,-56 395,-62 389,-62"/>
<text text-anchor="middle" x="344" y="-41.8" font-family="Avenir Next" font-size="9.00" fill="#41515b">CHEM101 / CHEM150</text>
</a>
</g>
</g>
<!-- course__CHEM231 -->
<g id="node8" class="node">
<title>course__CHEM231</title>
<g id="a_node8"><a xlink:href="../../../courses/CHEM231.html" xlink:title="CHEM231: Introduction to Organic Chemistry" target="_top">
<path fill="#ead9b8" stroke="#7e8d96" d="M536,-76C536,-76 499,-76 499,-76 493,-76 487,-70 487,-64 487,-64 487,-52 487,-52 487,-46 493,-40 499,-40 499,-40 536,-40 536,-40 542,-40 548,-46 548,-52 548,-52 548,-64 548,-64 548,-70 542,-76 536,-76"/>
<text text-anchor="middle" x="517.5" y="-55.8" font-family="Avenir Next" font-size="9.00" fill="#41515b">CHEM231</text>
</a>
</g>
</g>
<!-- course__CHEM101&#45;&gt;course__CHEM231 -->
<g id="edge23" class="edge">
<title>course__CHEM101&#45;&gt;course__CHEM231</title>
<path fill="none" stroke="#5d6972" stroke-width="1.2" d="M401.16,-48.58C426.89,-50.69 456.69,-53.12 479.55,-54.98"/>
<polygon fill="#5d6972" stroke="#5d6972" stroke-width="1.2" points="479.54,-57.44 486.71,-55.57 479.94,-52.56 479.54,-57.44"/>
</g>
<!-- course__MATH200 -->
<g id="node9" class="node">
<title>course__MATH200</title>
<g id="a_node9"><a xlink:href="../../../courses/MATH200.html" xlink:title="Equivalent or cross&#45;listed: MATH200: Calculus III | MATH202: Intermediate Calculus for CSC and EOS" target="_top">
<path fill="#dfe3f4" stroke="#7e8d96" d="M561,-300C561,-300 474,-300 474,-300 468,-300 462,-294 462,-288 462,-288 462,-276 462,-276 462,-270 468,-264 474,-264 474,-264 561,-264 561,-264 567,-264 573,-270 573,-276 573,-276 573,-288 573,-288 573,-294 567,-300 561,-300"/>
<text text-anchor="middle" x="517.5" y="-279.8" font-family="Avenir Next" font-size="9.00" fill="#41515b">MATH200 / MATH202</text>
</a>
</g>
</g>
<!-- course__MATH101&#45;&gt;course__MATH200 -->
<g id="edge25" class="edge">
<title>course__MATH101&#45;&gt;course__MATH200</title>
<path fill="none" stroke="#5d6972" stroke-width="1.2" d="M373.71,-282C395.68,-282 426.79,-282 454.37,-282"/>
<polygon fill="#5d6972" stroke="#5d6972" stroke-width="1.2" points="454.67,-284.45 461.67,-282 454.67,-279.55 454.67,-284.45"/>
</g>
<!-- course__STAT254 -->
<g id="node12" class="node">
<title>course__STAT254</title>
<g id="a_node12"><a xlink:href="../../../courses/STAT254.html" xlink:title="Equivalent or cross&#45;listed: STAT254: Probability and Statistics for Engineers | STAT260: Introduction to Probability and Statistics I" target="_top">
<path fill="#e6dde9" stroke="#1b2730" stroke-width="1.6" d="M730,-251C730,-251 646,-251 646,-251 640,-251 634,-245 634,-239 634,-239 634,-227 634,-227 634,-221 640,-215 646,-215 646,-215 730,-215 730,-215 736,-215 742,-221 742,-227 742,-227 742,-239 742,-239 742,-245 736,-251 730,-251"/>
<text text-anchor="middle" x="688" y="-230.5" font-family="Avenir Next" font-size="10.00" fill="#17232b">STAT254 / STAT260</text>
</a>
</g>
</g>
<!-- course__MATH101&#45;&gt;course__STAT254 -->
<g id="edge27" class="edge">
<title>course__MATH101&#45;&gt;course__STAT254</title>
<path fill="none" stroke="#5d6972" stroke-width="1.2" d="M373.62,-273.95C397.16,-267.62 431.5,-259.05 462,-254 517.48,-244.82 581.37,-239.34 626.85,-236.29"/>
<polygon fill="#5d6972" stroke="#5d6972" stroke-width="1.2" points="627.17,-238.72 633.99,-235.82 626.85,-233.83 627.17,-238.72"/>
</g>
<!-- course__BIOL230 -->
<g id="node11" class="node">
<title>course__BIOL230</title>
<g id="a_node11"><a xlink:href="../../../courses/BIOL230.html" xlink:title="BIOL230: Principles of Genetics" target="_top">
<path fill="#dbe8d2" stroke="#1b2730" stroke-width="1.6" d="M704.5,-92C704.5,-92 671.5,-92 671.5,-92 665.5,-92 659.5,-86 659.5,-80 659.5,-80 659.5,-68 659.5,-68 659.5,-62 665.5,-56 671.5,-56 671.5,-56 704.5,-56 704.5,-56 710.5,-56 716.5,-62 716.5,-68 716.5,-68 716.5,-80 716.5,-80 716.5,-86 710.5,-92 704.5,-92"/>
<text text-anchor="middle" x="688" y="-71.5" font-family="Avenir Next" font-size="10.00" fill="#17232b">BIOL230</text>
</a>
</g>
</g>
<!-- course__BIOL225&#45;&gt;course__BIOL230 -->
<g id="edge9" class="edge">
<title>course__BIOL225&#45;&gt;course__BIOL230</title>
<path fill="none" stroke="#5d6972" stroke-width="1.2" d="M546.32,-113.24C575.44,-105.12 621.18,-92.36 652.56,-83.61"/>
<polygon fill="#5d6972" stroke="#5d6972" stroke-width="1.2" points="653.33,-85.94 659.41,-81.69 652.01,-81.22 653.33,-85.94"/>
</g>
<!-- choice_BIOL330_0_2 -->
<g id="node21" class="node">
<title>choice_BIOL330_0_2</title>
<path fill="#fff7ee" stroke="#b7793f" stroke-width="1.1" d="M845,-92C845,-92 815,-92 815,-92 809,-92 803,-86 803,-80 803,-80 803,-68 803,-68 803,-62 809,-56 815,-56 815,-56 845,-56 845,-56 851,-56 857,-62 857,-68 857,-68 857,-80 857,-80 857,-86 851,-92 845,-92"/>
<text text-anchor="middle" x="830" y="-71.8" font-family="Avenir Next" font-size="9.00">1 of</text>
</g>
<!-- course__BIOL225&#45;&gt;choice_BIOL330_0_2 -->
<g id="edge14" class="edge">
<title>course__BIOL225&#45;&gt;choice_BIOL330_0_2</title>
<path fill="none" stroke="#7a8389" d="M546.31,-120.65C588.86,-119.67 672.51,-115.95 742,-102 760.24,-98.34 780.02,-92.16 796.11,-86.53"/>
<polygon fill="#7a8389" stroke="#7a8389" points="796.99,-88.82 802.76,-84.17 795.34,-84.2 796.99,-88.82"/>
</g>
<!-- course__CHEM231&#45;&gt;course__BIOL230 -->
<g id="edge10" class="edge">
<title>course__CHEM231&#45;&gt;course__BIOL230</title>
<path fill="none" stroke="#5d6972" stroke-width="1.2" d="M548.24,-60.82C577.28,-63.58 621.46,-67.78 652.13,-70.69"/>
<polygon fill="#5d6972" stroke="#5d6972" stroke-width="1.2" points="652.04,-73.14 659.24,-71.36 652.5,-68.26 652.04,-73.14"/>
</g>
<!-- course__MATH200&#45;&gt;course__STAT254 -->
<g id="edge26" class="edge">
<title>course__MATH200&#45;&gt;course__STAT254</title>
<path fill="none" stroke="#5d6972" stroke-width="1.2" d="M573.21,-266.09C590.34,-261.11 609.35,-255.58 626.84,-250.5"/>
<polygon fill="#5d6972" stroke="#5d6972" stroke-width="1.2" points="627.68,-252.8 633.72,-248.49 626.31,-248.1 627.68,-252.8"/>
</g>
<!-- course__BIOL215 -->
<g id="node10" class="node">
<title>course__BIOL215</title>
<g id="a_node10"><a xlink:href="../../../courses/BIOL215.html" xlink:title="BIOL215: Principles of Ecology" target="_top">
<path fill="#dbe8d2" stroke="#1b2730" stroke-width="1.6" d="M704.5,-36C704.5,-36 671.5,-36 671.5,-36 665.5,-36 659.5,-30 659.5,-24 659.5,-24 659.5,-12 659.5,-12 659.5,-6 665.5,0 671.5,0 671.5,0 704.5,0 704.5,0 710.5,0 716.5,-6 716.5,-12 716.5,-12 716.5,-24 716.5,-24 716.5,-30 710.5,-36 704.5,-36"/>
<text text-anchor="middle" x="688" y="-15.5" font-family="Avenir Next" font-size="10.00" fill="#17232b">BIOL215</text>
</a>
</g>
</g>
<!-- course__BIOL215&#45;&gt;choice_BIOL330_0_2 -->
<g id="edge13" class="edge">
<title>course__BIOL215&#45;&gt;choice_BIOL330_0_2</title>
<path fill="none" stroke="#7a8389" d="M716.66,-29.06C739.53,-38.21 772.06,-51.23 796.24,-60.89"/>
<polygon fill="#7a8389" stroke="#7a8389" points="795.41,-63.2 802.82,-63.53 797.23,-58.65 795.41,-63.2"/>
</g>
<!-- choice_BIOL446_0_0 -->
<g id="node22" class="node">
<title>choice_BIOL446_0_0</title>
<path fill="#fff7ee" stroke="#b7793f" stroke-width="1.1" d="M1194,-36C1194,-36 1164,-36 1164,-36 1158,-36 1152,-30 1152,-24 1152,-24 1152,-12 1152,-12 1152,-6 1158,0 1164,0 1164,0 1194,0 1194,0 1200,0 1206,-6 1206,-12 1206,-12 1206,-24 1206,-24 1206,-30 1200,-36 1194,-36"/>
<text text-anchor="middle" x="1179" y="-15.8" font-family="Avenir Next" font-size="9.00">1 of</text>
</g>
<!-- course__BIOL215&#45;&gt;choice_BIOL446_0_0 -->
<g id="edge18" class="edge">
<title>course__BIOL215&#45;&gt;choice_BIOL446_0_0</title>
<path fill="none" stroke="#7a8389" d="M716.69,-18C800.89,-18 1053.61,-18 1144.76,-18"/>
<polygon fill="#7a8389" stroke="#7a8389" points="1144.81,-20.45 1151.81,-18 1144.81,-15.55 1144.81,-20.45"/>
</g>
<!-- course__BIOL230&#45;&gt;choice_BIOL330_0_2 -->
<g id="edge15" class="edge">
<title>course__BIOL230&#45;&gt;choice_BIOL330_0_2</title>
<path fill="none" stroke="#7a8389" d="M716.66,-74C739.34,-74 771.51,-74 795.62,-74"/>
<polygon fill="#7a8389" stroke="#7a8389" points="795.82,-76.45 802.82,-74 795.82,-71.55 795.82,-76.45"/>
</g>
<!-- choice_BIOL330_0_0 -->
<g id="node20" class="node">
<title>choice_BIOL330_0_0</title>
<path fill="#fff7ee" stroke="#b7793f" stroke-width="1.1" d="M845,-193C845,-193 815,-193 815,-193 809,-193 803,-187 803,-181 803,-181 803,-169 803,-169 803,-163 809,-157 815,-157 815,-157 845,-157 845,-157 851,-157 857,-163 857,-169 857,-169 857,-181 857,-181 857,-187 851,-193 845,-193"/>
<text text-anchor="middle" x="830" y="-172.8" font-family="Avenir Next" font-size="9.00">1 of</text>
</g>
<!-- course__STAT254&#45;&gt;choice_BIOL330_0_0 -->
<g id="edge12" class="edge">
<title>course__STAT254&#45;&gt;choice_BIOL330_0_0</title>
<path fill="none" stroke="#7a8389" d="M732.53,-214.97C752.98,-206.5 776.95,-196.56 795.89,-188.72"/>
<polygon fill="#7a8389" stroke="#7a8389" points="797.09,-190.87 802.62,-185.93 795.22,-186.34 797.09,-190.87"/>
</g>
<!-- course__STAT255 -->
<g id="node13" class="node">
<title>course__STAT255</title>
<g id="a_node13"><a xlink:href="../../../courses/STAT255.html" xlink:title="STAT255: Statistics for Life Sciences I" target="_top">
<path fill="#e6dde9" stroke="#1b2730" stroke-width="1.6" d="M705,-193C705,-193 671,-193 671,-193 665,-193 659,-187 659,-181 659,-181 659,-169 659,-169 659,-163 665,-157 671,-157 671,-157 705,-157 705,-157 711,-157 717,-163 717,-169 717,-169 717,-181 717,-181 717,-187 711,-193 705,-193"/>
<text text-anchor="middle" x="688" y="-172.5" font-family="Avenir Next" font-size="10.00" fill="#17232b">STAT255</text>
</a>
</g>
</g>
<!-- course__STAT255&#45;&gt;choice_BIOL330_0_0 -->
<g id="edge11" class="edge">
<title>course__STAT255&#45;&gt;choice_BIOL330_0_0</title>
<path fill="none" stroke="#7a8389" d="M717.33,-175C739.92,-175 771.62,-175 795.47,-175"/>
<polygon fill="#7a8389" stroke="#7a8389" points="795.61,-177.45 802.61,-175 795.61,-172.55 795.61,-177.45"/>
</g>
<!-- course__BIOL330 -->
<g id="node14" class="node">
<title>course__BIOL330</title>
<g id="a_node14"><a xlink:href="../../../courses/BIOL330.html" xlink:title="BIOL330: Study Design and Data Analysis" target="_top">
<path fill="#dbe8d2" stroke="#1f4f66" stroke-width="2" d="M1079,-92C1079,-92 930,-92 930,-92 924,-92 918,-86 918,-80 918,-80 918,-68 918,-68 918,-62 924,-56 930,-56 930,-56 1079,-56 1079,-56 1085,-56 1091,-62 1091,-68 1091,-68 1091,-80 1091,-80 1091,-86 1085,-92 1079,-92"/>
<text text-anchor="middle" x="1004.5" y="-77" font-family="Avenir Next" font-size="10.00" fill="#17232b">BIOL330</text>
<text text-anchor="middle" x="1004.5" y="-66" font-family="Avenir Next" font-size="10.00" fill="#17232b">Study Design and Data Analysis</text>
</a>
</g>
</g>
<!-- course__BIOL461 -->
<g id="node16" class="node">
<title>course__BIOL461</title>
<g id="a_node16"><a xlink:href="../../../courses/BIOL461.html" xlink:title="BIOL461: Fisheries Ecology and Management" target="_top">
<path fill="#dbe8d2" stroke="#1b2730" stroke-width="1.6" d="M1312,-92C1312,-92 1279,-92 1279,-92 1273,-92 1267,-86 1267,-80 1267,-80 1267,-68 1267,-68 1267,-62 1273,-56 1279,-56 1279,-56 1312,-56 1312,-56 1318,-56 1324,-62 1324,-68 1324,-68 1324,-80 1324,-80 1324,-86 1318,-92 1312,-92"/>
<text text-anchor="middle" x="1295.5" y="-71.5" font-family="Avenir Next" font-size="10.00" fill="#17232b">BIOL461</text>
</a>
</g>
</g>
<!-- course__BIOL330&#45;&gt;course__BIOL461 -->
<g id="edge21" class="edge">
<title>course__BIOL330&#45;&gt;course__BIOL461</title>
<path fill="none" stroke="#5d6972" stroke-width="1.2" d="M1091.04,-74C1147.41,-74 1218.22,-74 1259.71,-74"/>
<polygon fill="#5d6972" stroke="#5d6972" stroke-width="1.2" points="1259.86,-76.45 1266.86,-74 1259.86,-71.55 1259.86,-76.45"/>
</g>
<!-- course__BIOL466 -->
<g id="node17" class="node">
<title>course__BIOL466</title>
<g id="a_node17"><a xlink:href="../../../courses/BIOL466.html" xlink:title="BIOL466: Frontiers in Marine Biology" target="_top">
<path fill="#dbe8d2" stroke="#1b2730" stroke-width="1.6" d="M1312,-148C1312,-148 1279,-148 1279,-148 1273,-148 1267,-142 1267,-136 1267,-136 1267,-124 1267,-124 1267,-118 1273,-112 1279,-112 1279,-112 1312,-112 1312,-112 1318,-112 1324,-118 1324,-124 1324,-124 1324,-136 1324,-136 1324,-142 1318,-148 1312,-148"/>
<text text-anchor="middle" x="1295.5" y="-127.5" font-family="Avenir Next" font-size="10.00" fill="#17232b">BIOL466</text>
</a>
</g>
</g>
<!-- course__BIOL330&#45;&gt;course__BIOL466 -->
<g id="edge22" class="edge">
<title>course__BIOL330&#45;&gt;course__BIOL466</title>
<path fill="none" stroke="#5d6972" stroke-width="1.2" d="M1091.04,-90.57C1147.52,-101.52 1218.52,-115.28 1259.97,-123.31"/>
<polygon fill="#5d6972" stroke="#5d6972" stroke-width="1.2" points="1259.52,-125.72 1266.86,-124.64 1260.45,-120.91 1259.52,-125.72"/>
</g>
<!-- course__BIOL330&#45;&gt;choice_BIOL446_0_0 -->
<g id="edge19" class="edge">
<title>course__BIOL330&#45;&gt;choice_BIOL446_0_0</title>
<path fill="none" stroke="#7a8389" d="M1061.03,-55.97C1088.64,-47.01 1121.08,-36.48 1144.79,-28.78"/>
<polygon fill="#7a8389" stroke="#7a8389" points="1145.64,-31.08 1151.54,-26.59 1144.12,-26.42 1145.64,-31.08"/>
</g>
<!-- course__BIOL446 -->
<g id="node15" class="node">
<title>course__BIOL446</title>
<g id="a_node15"><a xlink:href="../../../courses/BIOL446.html" xlink:title="BIOL446: Advanced Aquatic Ecology" target="_top">
<path fill="#dbe8d2" stroke="#1b2730" stroke-width="1.6" d="M1312,-36C1312,-36 1279,-36 1279,-36 1273,-36 1267,-30 1267,-24 1267,-24 1267,-12 1267,-12 1267,-6 1273,0 1279,0 1279,0 1312,0 1312,0 1318,0 1324,-6 1324,-12 1324,-12 1324,-24 1324,-24 1324,-30 1318,-36 1312,-36"/>
<text text-anchor="middle" x="1295.5" y="-15.5" font-family="Avenir Next" font-size="10.00" fill="#17232b">BIOL446</text>
</a>
</g>
</g>
<!-- choice_BIOL184_0_0&#45;&gt;course__BIOL184 -->
<g id="edge3" class="edge">
<title>choice_BIOL184_0_0&#45;&gt;course__BIOL184</title>
<path fill="none" stroke="#5d6972" stroke-width="1.2" d="M490.16,-176.2C466.92,-169.66 432.01,-160.67 401,-156 288.55,-139.08 153.49,-135.7 91.15,-135.09"/>
<polygon fill="#5d6972" stroke="#5d6972" stroke-width="1.2" points="90.93,-132.64 83.91,-135.03 90.89,-137.54 90.93,-132.64"/>
</g>
<!-- choice_BIOL186_0_0&#45;&gt;course__BIOL186 -->
<g id="edge6" class="edge">
<title>choice_BIOL186_0_0&#45;&gt;course__BIOL186</title>
<path fill="none" stroke="#5d6972" stroke-width="1.2" d="M226.23,-184C249.42,-184 283.4,-184 308.74,-184"/>
<polygon fill="#5d6972" stroke="#5d6972" stroke-width="1.2" points="308.97,-186.45 315.97,-184 308.97,-181.55 308.97,-186.45"/>
</g>
<!-- choice_BIOL330_0_0&#45;&gt;course__BIOL330 -->
<g id="edge16" class="edge">
<title>choice_BIOL330_0_0&#45;&gt;course__BIOL330</title>
<path fill="none" stroke="#5d6972" stroke-width="1.2" d="M857.2,-159.66C886.27,-142.64 933.41,-115.04 966.3,-95.78"/>
<polygon fill="#5d6972" stroke="#5d6972" stroke-width="1.2" points="967.87,-97.7 972.67,-92.05 965.4,-93.47 967.87,-97.7"/>
</g>
<!-- choice_BIOL330_0_2&#45;&gt;course__BIOL330 -->
<g id="edge17" class="edge">
<title>choice_BIOL330_0_2&#45;&gt;course__BIOL330</title>
<path fill="none" stroke="#5d6972" stroke-width="1.2" d="M857.2,-74C871.8,-74 890.97,-74 910.6,-74"/>
<polygon fill="#5d6972" stroke="#5d6972" stroke-width="1.2" points="910.85,-76.45 917.85,-74 910.85,-71.55 910.85,-76.45"/>
</g>
<!-- choice_BIOL446_0_0&#45;&gt;course__BIOL446 -->
<g id="edge20" class="edge">
<title>choice_BIOL446_0_0&#45;&gt;course__BIOL446</title>
<path fill="none" stroke="#5d6972" stroke-width="1.2" d="M1206.27,-18C1222.1,-18 1242.45,-18 1259.62,-18"/>
<polygon fill="#5d6972" stroke="#5d6972" stroke-width="1.2" points="1259.76,-20.45 1266.76,-18 1259.76,-15.55 1259.76,-20.45"/>
</g>
</g>
</svg>
