<?xml version="1.0" encoding="UTF-8" standalone="no"?>
<!DOCTYPE svg PUBLIC "-//W3C//DTD SVG 1.1//EN"
 "http://www.w3.org/Graphics/SVG/1.1/DTD/svg11.dtd">
<!-- Generated by graphviz version 2.43.0 (0)
 -->
<!-- Title: BIOL457 Pages: 1 -->
<svg width="962pt" height="264pt"
 viewBox="0.00 0.00 962.20 264.20" xmlns="http://www.w3.org/2000/svg" xmlns:xlink="http://www.w3.org/1999/xlink">
<g id="graph0" class="graph" transform="scale(1 1) rotate(0) translate(21.6 242.6)">
<title>BIOL457</title>
<!-- course__BIOL150A -->
<g id="node1" class="node">
<title>course__BIOL150A</title>
<g id="a_node1"><a xlink:href="../../../courses/BIOL150A.html" xlink:title="BIOL150A: Modern Biology" target="_top">
<path fill="#dbe8d2" stroke="#7e8d96" d="M50,-113C50,-113 12,-113 12,-113 6,-113 0,-107 0,-101 0,-101 0,-89 0,-89 0,-83 6,-77 12,-77 12,-77 50,-77 50,-77 56,-77 62,-83 62,-89 62,-89 62,-101 62,-101 62,-107 56,-113 50,-113"/>
<text text-anchor="middle" x="31" y="-92.8" font-family="Avenir Next" font-size="9.00" fill="#41515b">BIOL150A</text>
</a>
</g>
</g>
<!-- choice_BIOL184_0_0 -->
<g id="node8" class="node">
<title>choice_BIOL184_0_0</title>
<path fill="#fff7ee" stroke="#b7793f" stroke-width="1.1" d="M165,-64C165,-64 135,-64 135,-64 129,-64 123,-58 123,-52 123,-52 123,-40 123,-40 123,-34 129,-28 135,-28 135,-28 165,-28 165,-28 171,-28 177,-34 177,-40 177,-40 177,-52 177,-52 177,-58 171,-64 165,-64"/>
<text text-anchor="middle" x="150" y="-43.8" font-family="Avenir Next" font-size="9.00">1 of</text>
</g>
<!-- course__BIOL150A&#45;&gt;choice_BIOL184_0_0 -->
<g id="edge1" class="edge">
<title>course__BIOL150A&#45;&gt;choice_BIOL184_0_0</title>
<path fill="none" stroke="#7a8389" d="M62.13,-82.38C78.75,-75.42 99.39,-66.78 116.39,-59.66"/>
<polygon fill="#7a8389" stroke="#7a8389" points="117.44,-61.88 122.95,-56.91 115.54,-57.36 117.44,-61.88"/>
</g>
<!-- choice_BIOL186_0_0 -->
<g id="node9" class="node">
<title>choice_BIOL186_0_0</title>
<path fill="#fff7ee" stroke="#b7793f" stroke-width="1.1" d="M397,-64C397,-64 367,-64 367,-64 361,-64 355,-58 355,-52 355,-52 355,-40 355,-40 355,-34 361,-28 367,-28 367,-28 397,-28 397,-28 403,-28 409,-34 409,-40 409,-40 409,-52 409,-52 409,-58 403,-64 397,-64"/>
<text text-anchor="middle" x="382" y="-43.8" font-family="Avenir Next" font-size="9.00">1 of</text>
</g>
<!-- course__BIOL150A&#45;&gt;choice_BIOL186_0_0 -->
<g id="edge4" class="edge">
<title>course__BIOL150A&#45;&gt;choice_BIOL186_0_0</title>
<path fill="none" stroke="#7a8389" d="M62.17,-94.84C111.24,-94.07 211.19,-90.41 294,-74 312.25,-70.38 332.03,-64.21 348.12,-58.57"/>
<polygon fill="#7a8389" stroke="#7a8389" points="349,-60.86 354.77,-56.2 347.35,-56.24 349,-60.86"/>
</g>
<!-- choice_EOS330_0_1_2 -->
<g id="node11" class="node">
<title>choice_EOS330_0_1_2</title>
<path fill="#fff7ee" stroke="#b7793f" stroke-width="1.1" d="M397,-137C397,-137 367,-137 367,-137 361,-137 355,-131 355,-125 355,-125 355,-113 355,-113 355,-107 361,-101 367,-101 367,-101 397,-101 397,-101 403,-101 409,-107 409,-113 409,-113 409,-125 409,-125 409,-131 403,-137 397,-137"/>
<text text-anchor="middle" x="382" y="-116.8" font-family="Avenir Next" font-size="9.00">1 of</text>
</g>
<!-- course__BIOL150A&#45;&gt;choice_EOS330_0_1_2 -->
<g id="edge10" class="edge">
<title>course__BIOL150A&#45;&gt;choice_EOS330_0_1_2</title>
<path fill="none" stroke="#7a8389" d="M62.18,-101.42C79.83,-104.9 102.58,-108.9 123,-111 203.35,-119.27 298.45,-119.86 347.7,-119.48"/>
<polygon fill="#7a8389" stroke="#7a8389" points="347.94,-121.93 354.92,-119.42 347.9,-117.03 347.94,-121.93"/>
</g>
<!-- course__BIOL186 -->
<g id="node2" class="node">
<title>course__BIOL186</title>
<g id="a_node2"><a xlink:href="../../../courses/BIOL186.html" xlink:title="BIOL186: Physiology and Cell Biology" target="_top">
<path fill="#dbe8d2" stroke="#7e8d96" d="M47,-36C47,-36 15,-36 15,-36 9,-36 3,-30 3,-24 3,-24 3,-12 3,-12 3,-6 9,0 15,0 15,0 47,0 47,0 53,0 59,-6 59,-12 59,-12 59,-24 59,-24 59,-30 53,-36 47,-36"/>
<text text-anchor="middle" x="31" y="-15.8" font-family="Avenir Next" font-size="9.00" fill="#41515b">BIOL186</text>
</a>
</g>
</g>
<!-- course__BIOL186&#45;&gt;choice_BIOL184_0_0 -->
<g id="edge2" class="edge">
<title>course__BIOL186&#45;&gt;choice_BIOL184_0_0</title>
<path fill="none" stroke="#7a8389" d="M59.14,-24.49C76.06,-28.54 97.96,-33.79 115.9,-38.08"/>
<polygon fill="#7a8389" stroke="#7a8389" points="115.44,-40.49 122.82,-39.73 116.58,-35.72 115.44,-40.49"/>
</g>
<!-- course__BIOL184 -->
<g id="node3" class="node">
<title>course__BIOL184</title>
<g id="a_node3"><a xlink:href="../../../courses/BIOL184.html" xlink:title="BIOL184: Evolution and Biodiversity" target="_top">
<path fill="#dbe8d2" stroke="#7e8d96" d="M282,-64C282,-64 250,-64 250,-64 244,-64 238,-58 238,-52 238,-52 238,-40 238,-40 238,-34 244,-28 250,-28 250,-28 282,-28 282,-28 288,-28 294,-34 294,-40 294,-40 294,-52 294,-52 294,-58 288,-64 282,-64"/>
<text text-anchor="middle" x="266" y="-43.8" font-family="Avenir Next" font-size="9.00" fill="#41515b">BIOL184</text>
</a>
</g>
</g>
<!-- course__BIOL184&#45;&gt;choice_BIOL186_0_0 -->
<g id="edge5" class="edge">
<title>course__BIOL184&#45;&gt;choice_BIOL186_0_0</title>
<path fill="none" stroke="#7a8389" d="M294.02,-46C310.15,-46 330.76,-46 347.87,-46"/>
<polygon fill="#7a8389" stroke="#7a8389" points="347.96,-48.45 354.96,-46 347.96,-43.55 347.96,-48.45"/>
</g>
<!-- course__BIOL184&#45;&gt;choice_EOS330_0_1_2 -->
<g id="edge11" class="edge">
<title>course__BIOL184&#45;&gt;choice_EOS330_0_1_2</title>
<path fill="none" stroke="#7a8389" d="M294.02,-63.3C310.44,-73.81 331.5,-87.3 348.78,-98.37"/>
<polygon fill="#7a8389" stroke="#7a8389" points="347.75,-100.62 354.96,-102.33 350.39,-96.49 347.75,-100.62"/>
</g>
<!-- course__EOS120 -->
<g id="node4" class="node">
<title>course__EOS120</title>
<g id="a_node4"><a xlink:href="../../../courses/EOS120.html" xlink:title="EOS120: The Dynamic Earth" target="_top">
<path fill="#d7e9ef" stroke="#7e8d96" d="M397,-193C397,-193 367,-193 367,-193 361,-193 355,-187 355,-181 355,-181 355,-169 355,-169 355,-163 361,-157 367,-157 367,-157 397,-157 397,-157 403,-157 409,-163 409,-169 409,-169 409,-181 409,-181 409,-187 403,-193 397,-193"/>
<text text-anchor="middle" x="382" y="-172.8" font-family="Avenir Next" font-size="9.00" fill="#41515b">EOS120</text>
</a>
</g>
</g>
<!-- course__EOS330 -->
<g id="node6" class="node">
<title>course__EOS330</title>
<g id="a_node6"><a xlink:href="../../../courses/EOS330.html" xlink:title="EOS330: Paleobiology" target="_top">
<path fill="#d7e9ef" stroke="#1b2730" stroke-width="1.6" d="M513.5,-165C513.5,-165 483.5,-165 483.5,-165 477.5,-165 471.5,-159 471.5,-153 471.5,-153 471.5,-141 471.5,-141 471.5,-135 477.5,-129 483.5,-129 483.5,-129 513.5,-129 513.5,-129 519.5,-129 525.5,-135 525.5,-141 525.5,-141 525.5,-153 525.5,-153 525.5,-159 519.5,-165 513.5,-165"/>
<text text-anchor="middle" x="498.5" y="-144.5" font-family="Avenir Next" font-size="10.00" fill="#17232b">EOS330</text>
</a>
</g>
</g>
<!-- course__EOS120&#45;&gt;course__EOS330 -->
<g id="edge12" class="edge">
<title>course__EOS120&#45;&gt;course__EOS330</title>
<path fill="none" stroke="#5d6972" stroke-width="1.2" d="M409.27,-168.58C425.56,-164.59 446.64,-159.44 464.11,-155.16"/>
<polygon fill="#5d6972" stroke="#5d6972" stroke-width="1.2" points="465.14,-157.44 471.35,-153.39 463.97,-152.68 465.14,-157.44"/>
</g>
<!-- course__BIOL215 -->
<g id="node5" class="node">
<title>course__BIOL215</title>
<g id="a_node5"><a xlink:href="../../../courses/BIOL215.html" xlink:title="BIOL215: Principles of Ecology" target="_top">
<path fill="#dbe8d2" stroke="#1b2730" stroke-width="1.6" d="M515,-221C515,-221 482,-221 482,-221 476,-221 470,-215 470,-209 470,-209 470,-197 470,-197 470,-191 476,-185 482,-185 482,-185 515,-185 515,-185 521,-185 527,-191 527,-197 527,-197 527,-209 527,-209 527,-215 521,-221 515,-221"/>
<text text-anchor="middle" x="498.5" y="-200.5" font-family="Avenir Next" font-size="10.00" fill="#17232b">BIOL215</text>
</a>
</g>
</g>
<!-- choice_BIOL457_0_0 -->
<g id="node10" class="node">
<title>choice_BIOL457_0_0</title>
<path fill="#fff7ee" stroke="#b7793f" stroke-width="1.1" d="M630,-193C630,-193 600,-193 600,-193 594,-193 588,-187 588,-181 588,-181 588,-169 588,-169 588,-163 594,-157 600,-157 600,-157 630,-157 630,-157 636,-157 642,-163 642,-169 642,-169 642,-181 642,-181 642,-187 636,-193 630,-193"/>
<text text-anchor="middle" x="615" y="-172.8" font-family="Avenir Next" font-size="9.00">1 of</text>
</g>
<!-- course__BIOL215&#45;&gt;choice_BIOL457_0_0 -->
<g id="edge7" class="edge">
<title>course__BIOL215&#45;&gt;choice_BIOL457_0_0</title>
<path fill="none" stroke="#7a8389" d="M527.22,-196.22C543.32,-192.28 563.71,-187.3 580.68,-183.15"/>
<polygon fill="#7a8389" stroke="#7a8389" points="581.5,-185.47 587.72,-181.43 580.34,-180.71 581.5,-185.47"/>
</g>
<!-- course__EOS330&#45;&gt;choice_BIOL457_0_0 -->
<g id="edge8" class="edge">
<title>course__EOS330&#45;&gt;choice_BIOL457_0_0</title>
<path fill="none" stroke="#7a8389" d="M525.77,-153.42C542.06,-157.41 563.14,-162.56 580.61,-166.84"/>
<polygon fill="#7a8389" stroke="#7a8389" points="580.47,-169.32 587.85,-168.61 581.64,-164.56 580.47,-169.32"/>
</g>
<!-- course__BIOL457 -->
<g id="node7" class="node">
<title>course__BIOL457</title>
<g id="a_node7"><a xlink:href="../../../courses/BIOL457.html" xlink:title="BIOL457: Paleoecology and Environmental Change" target="_top">
<path fill="#dbe8d2" stroke="#1f4f66" stroke-width="2" d="M907,-193C907,-193 715,-193 715,-193 709,-193 703,-187 703,-181 703,-181 703,-169 703,-169 703,-163 709,-157 715,-157 715,-157 907,-157 907,-157 913,-157 919,-163 919,-169 919,-169 919,-181 919,-181 919,-187 913,-193 907,-193"/>
<text text-anchor="middle" x="811" y="-178" font-family="Avenir Next" font-size="10.00" fill="#17232b">BIOL457</text>
<text text-anchor="middle" x="811" y="-167" font-family="Avenir Next" font-size="10.00" fill="#17232b">Paleoecology and Environmental Change</text>
</a>
</g>
</g>
<!-- choice_BIOL184_0_0&#45;&gt;course__BIOL184 -->
<g id="edge3" class="edge">
<title>choice_BIOL184_0_0&#45;&gt;course__BIOL184</title>
<path fill="none" stroke="#5d6972" stroke-width="1.2" d="M177.15,-46C193.03,-46 213.47,-46 230.64,-46"/>
<polygon fill="#5d6972" stroke="#5d6972" stroke-width="1.2" points="230.78,-48.45 237.78,-46 230.78,-43.55 230.78,-48.45"/>
</g>
<!-- choice_BIOL186_0_0&#45;&gt;course__BIOL186 -->
<g id="edge6" class="edge">
<title>choice_BIOL186_0_0&#45;&gt;course__BIOL186</title>
<path fill="none" stroke="#5d6972" stroke-width="1.2" d="M354.87,-35.23C337.86,-28.81 315,-21.3 294,-18 213.27,-5.33 116.81,-10.44 66.46,-14.62"/>
<polygon fill="#5d6972" stroke="#5d6972" stroke-width="1.2" points="66.14,-12.19 59.37,-15.23 66.56,-17.07 66.14,-12.19"/>
</g>
<!-- choice_BIOL457_0_0&#45;&gt;course__BIOL457 -->
<g id="edge9" class="edge">
<title>choice_BIOL457_0_0&#45;&gt;course__BIOL457</title>
<path fill="none" stroke="#5d6972" stroke-width="1.2" d="M642.16,-175C656.6,-175 675.63,-175 695.68,-175"/>
<polygon fill="#5d6972" stroke="#5d6972" stroke-width="1.2" points="695.81,-177.45 702.81,-175 695.81,-172.55 695.81,-177.45"/>
</g>
<!-- choice_EOS330_0_1_2&#45;&gt;course__EOS330 -->
<g id="edge13" class="edge">
<title>choice_EOS330_0_1_2&#45;&gt;course__EOS330</title>
<path fill="none" stroke="#5d6972" stroke-width="1.2" d="M409.27,-125.42C425.56,-129.41 446.64,-134.56 464.11,-138.84"/>
<polygon fill="#5d6972" stroke="#5d6972" stroke-width="1.2" points="463.97,-141.32 471.35,-140.61 465.14,-136.56 463.97,-141.32"/>
</g>
</g>
</svg>
