<?xml version="1.0" encoding="UTF-8" standalone="no"?>
<!DOCTYPE svg PUBLIC "-//W3C//DTD SVG 1.1//EN"
 "http://www.w3.org/Graphics/SVG/1.1/DTD/svg11.dtd">
<!-- Generated by graphviz version 2.43.0 (0)
 -->
<!-- Title: BIOL370 Pages: 1 -->
<svg width="1200pt" height="360pt"
 viewBox="0.00 0.00 1200.20 360.20" xmlns="http://www.w3.org/2000/svg" xmlns:xlink="http://www.w3.org/1999/xlink">
<g id="graph0" class="graph" transform="scale(1 1) rotate(0) translate(21.6 338.6)">
<title>BIOL370</title>
<!-- course__BIOL150A -->
<g id="node1" class="node">
<title>course__BIOL150A</title>
<g id="a_node1"><a xlink:href="../../../courses/BIOL150A.html" xlink:title="BIOL150A: Modern Biology" target="_top">
<path fill="#dbe8d2" stroke="#7e8d96" d="M74.5,-317C74.5,-317 36.5,-317 36.5,-317 30.5,-317 24.5,-311 24.5,-305 24.5,-305 24.5,-293 24.5,-293 24.5,-287 30.5,-281 36.5,-281 36.5,-281 74.5,-281 74.5,-281 80.5,-281 86.5,-287 86.5,-293 86.5,-293 86.5,-305 86.5,-305 86.5,-311 80.5,-317 74.5,-317"/>
<text text-anchor="middle" x="55.5" y="-296.8" font-family="Avenir Next" font-size="9.00" fill="#41515b">BIOL150A</text>
</a>
</g>
</g>
<!-- choice_BIOL184_0_0 -->
<g id="node16" class="node">
<title>choice_BIOL184_0_0</title>
<path fill="#fff7ee" stroke="#b7793f" stroke-width="1.1" d="M532.5,-289C532.5,-289 502.5,-289 502.5,-289 496.5,-289 490.5,-283 490.5,-277 490.5,-277 490.5,-265 490.5,-265 490.5,-259 496.5,-253 502.5,-253 502.5,-253 532.5,-253 532.5,-253 538.5,-253 544.5,-259 544.5,-265 544.5,-265 544.5,-277 544.5,-277 544.5,-283 538.5,-289 532.5,-289"/>
<text text-anchor="middle" x="517.5" y="-268.8" font-family="Avenir Next" font-size="9.00">1 of</text>
</g>
<!-- course__BIOL150A&#45;&gt;choice_BIOL184_0_0 -->
<g id="edge1" class="edge">
<title>course__BIOL150A&#45;&gt;choice_BIOL184_0_0</title>
<path fill="none" stroke="#7a8389" d="M86.59,-301.39C146.64,-305.63 285.49,-312.8 401,-299 429.22,-295.63 460.51,-287.78 483.4,-281.25"/>
<polygon fill="#7a8389" stroke="#7a8389" points="484.18,-283.57 490.22,-279.27 482.81,-278.86 484.18,-283.57"/>
</g>
<!-- choice_BIOL186_0_0 -->
<g id="node17" class="node">
<title>choice_BIOL186_0_0</title>
<path fill="#fff7ee" stroke="#b7793f" stroke-width="1.1" d="M214,-289C214,-289 184,-289 184,-289 178,-289 172,-283 172,-277 172,-277 172,-265 172,-265 172,-259 178,-253 184,-253 184,-253 214,-253 214,-253 220,-253 226,-259 226,-265 226,-265 226,-277 226,-277 226,-283 220,-289 214,-289"/>
<text text-anchor="middle" x="199" y="-268.8" font-family="Avenir Next" font-size="9.00">1 of</text>
</g>
<!-- course__BIOL150A&#45;&gt;choice_BIOL186_0_0 -->
<g id="edge4" class="edge">
<title>course__BIOL150A&#45;&gt;choice_BIOL186_0_0</title>
<path fill="none" stroke="#7a8389" d="M86.51,-293.06C109.45,-288.52 141.05,-282.27 164.76,-277.58"/>
<polygon fill="#7a8389" stroke="#7a8389" points="165.45,-279.94 171.84,-276.18 164.5,-275.13 165.45,-279.94"/>
</g>
<!-- course__BIOL184 -->
<g id="node2" class="node">
<title>course__BIOL184</title>
<g id="a_node2"><a xlink:href="../../../courses/BIOL184.html" xlink:title="BIOL184: Evolution and Biodiversity" target="_top">
<path fill="#dbe8d2" stroke="#7e8d96" d="M71.5,-240C71.5,-240 39.5,-240 39.5,-240 33.5,-240 27.5,-234 27.5,-228 27.5,-228 27.5,-216 27.5,-216 27.5,-210 33.5,-204 39.5,-204 39.5,-204 71.5,-204 71.5,-204 77.5,-204 83.5,-210 83.5,-216 83.5,-216 83.5,-228 83.5,-228 83.5,-234 77.5,-240 71.5,-240"/>
<text text-anchor="middle" x="55.5" y="-219.8" font-family="Avenir Next" font-size="9.00" fill="#41515b">BIOL184</text>
</a>
</g>
</g>
<!-- course__BIOL225 -->
<g id="node7" class="node">
<title>course__BIOL225</title>
<g id="a_node7"><a xlink:href="../../../courses/BIOL225.html" xlink:title="BIOL225: Principles of Cell Biology" target="_top">
<path fill="#dbe8d2" stroke="#7e8d96" d="M533.5,-202C533.5,-202 501.5,-202 501.5,-202 495.5,-202 489.5,-196 489.5,-190 489.5,-190 489.5,-178 489.5,-178 489.5,-172 495.5,-166 501.5,-166 501.5,-166 533.5,-166 533.5,-166 539.5,-166 545.5,-172 545.5,-178 545.5,-178 545.5,-190 545.5,-190 545.5,-196 539.5,-202 533.5,-202"/>
<text text-anchor="middle" x="517.5" y="-181.8" font-family="Avenir Next" font-size="9.00" fill="#41515b">BIOL225</text>
</a>
</g>
</g>
<!-- course__BIOL184&#45;&gt;course__BIOL225 -->
<g id="edge8" class="edge">
<title>course__BIOL184&#45;&gt;course__BIOL225</title>
<path fill="none" stroke="#5d6972" stroke-width="1.2" d="M83.5,-217.68C106.87,-214.09 141.59,-209.07 172,-206 285.16,-194.56 419.88,-187.99 481.99,-185.36"/>
<polygon fill="#5d6972" stroke="#5d6972" stroke-width="1.2" points="482.31,-187.8 489.2,-185.06 482.11,-182.9 482.31,-187.8"/>
</g>
<!-- course__BIOL184&#45;&gt;choice_BIOL186_0_0 -->
<g id="edge5" class="edge">
<title>course__BIOL184&#45;&gt;choice_BIOL186_0_0</title>
<path fill="none" stroke="#7a8389" d="M83.78,-231.45C106.98,-239.48 140.35,-251.04 165.04,-259.59"/>
<polygon fill="#7a8389" stroke="#7a8389" points="164.34,-261.94 171.76,-261.91 165.94,-257.31 164.34,-261.94"/>
</g>
<!-- course__MATH100 -->
<g id="node3" class="node">
<title>course__MATH100</title>
<g id="a_node3"><a xlink:href="../../../courses/MATH100.html" xlink:title="Equivalent or cross&#45;listed: MATH100: Calculus I | MATH102: Calculus for Students in the Social and Biological Sciences | MATH109: Introduction to Calculus" target="_top">
<path fill="#dfe3f4" stroke="#7e8d96" d="M99,-69C99,-69 12,-69 12,-69 6,-69 0,-63 0,-57 0,-57 0,-45 0,-45 0,-39 6,-33 12,-33 12,-33 99,-33 99,-33 105,-33 111,-39 111,-45 111,-45 111,-57 111,-57 111,-63 105,-69 99,-69"/>
<text text-anchor="middle" x="55.5" y="-53.8" font-family="Avenir Next" font-size="9.00" fill="#41515b">MATH100 / MATH102</text>
<text text-anchor="middle" x="55.5" y="-43.8" font-family="Avenir Next" font-size="9.00" fill="#41515b">MATH109</text>
</a>
</g>
</g>
<!-- course__MATH101 -->
<g id="node6" class="node">
<title>course__MATH101</title>
<g id="a_node6"><a xlink:href="../../../courses/MATH101.html" xlink:title="MATH101: Calculus II" target="_top">
<path fill="#dfe3f4" stroke="#7e8d96" d="M361.5,-69C361.5,-69 326.5,-69 326.5,-69 320.5,-69 314.5,-63 314.5,-57 314.5,-57 314.5,-45 314.5,-45 314.5,-39 320.5,-33 326.5,-33 326.5,-33 361.5,-33 361.5,-33 367.5,-33 373.5,-39 373.5,-45 373.5,-45 373.5,-57 373.5,-57 373.5,-63 367.5,-69 361.5,-69"/>
<text text-anchor="middle" x="344" y="-48.8" font-family="Avenir Next" font-size="9.00" fill="#41515b">MATH101</text>
</a>
</g>
</g>
<!-- course__MATH100&#45;&gt;course__MATH101 -->
<g id="edge18" class="edge">
<title>course__MATH100&#45;&gt;course__MATH101</title>
<path fill="none" stroke="#5d6972" stroke-width="1.2" d="M111.06,-51C168.66,-51 257.81,-51 307.12,-51"/>
<polygon fill="#5d6972" stroke="#5d6972" stroke-width="1.2" points="307.39,-53.45 314.39,-51 307.39,-48.55 307.39,-53.45"/>
</g>
<!-- course__BIOL186 -->
<g id="node4" class="node">
<title>course__BIOL186</title>
<g id="a_node4"><a xlink:href="../../../courses/BIOL186.html" xlink:title="BIOL186: Physiology and Cell Biology" target="_top">
<path fill="#dbe8d2" stroke="#1b2730" stroke-width="1.6" d="M360.5,-289C360.5,-289 327.5,-289 327.5,-289 321.5,-289 315.5,-283 315.5,-277 315.5,-277 315.5,-265 315.5,-265 315.5,-259 321.5,-253 327.5,-253 327.5,-253 360.5,-253 360.5,-253 366.5,-253 372.5,-259 372.5,-265 372.5,-265 372.5,-277 372.5,-277 372.5,-283 366.5,-289 360.5,-289"/>
<text text-anchor="middle" x="344" y="-268.5" font-family="Avenir Next" font-size="10.00" fill="#17232b">BIOL186</text>
</a>
</g>
</g>
<!-- course__BIOL186&#45;&gt;course__BIOL225 -->
<g id="edge7" class="edge">
<title>course__BIOL186&#45;&gt;course__BIOL225</title>
<path fill="none" stroke="#5d6972" stroke-width="1.2" d="M372.55,-257.02C402.52,-241.82 450.44,-217.51 482.67,-201.16"/>
<polygon fill="#5d6972" stroke="#5d6972" stroke-width="1.2" points="484.16,-203.15 489.3,-197.8 481.95,-198.78 484.16,-203.15"/>
</g>
<!-- course__BIOL186&#45;&gt;choice_BIOL184_0_0 -->
<g id="edge2" class="edge">
<title>course__BIOL186&#45;&gt;choice_BIOL184_0_0</title>
<path fill="none" stroke="#7a8389" d="M372.55,-271C402.75,-271 451.17,-271 483.4,-271"/>
<polygon fill="#7a8389" stroke="#7a8389" points="483.42,-273.45 490.42,-271 483.42,-268.55 483.42,-273.45"/>
</g>
<!-- course__CHEM101 -->
<g id="node5" class="node">
<title>course__CHEM101</title>
<g id="a_node5"><a xlink:href="../../../courses/CHEM101.html" xlink:title="Equivalent or cross&#45;listed: CHEM101: Fundamentals of Chemistry from Atoms to Materials | CHEM150: Engineering Chemistry" target="_top">
<path fill="#ead9b8" stroke="#7e8d96" d="M389,-146C389,-146 299,-146 299,-146 293,-146 287,-140 287,-134 287,-134 287,-122 287,-122 287,-116 293,-110 299,-110 299,-110 389,-110 389,-110 395,-110 401,-116 401,-122 401,-122 401,-134 401,-134 401,-140 395,-146 389,-146"/>
<text text-anchor="middle" x="344" y="-125.8" font-family="Avenir Next" font-size="9.00" fill="#41515b">CHEM101 / CHEM150</text>
</a>
</g>
</g>
<!-- course__CHEM231 -->
<g id="node8" class="node">
<title>course__CHEM231</title>
<g id="a_node8"><a xlink:href="../../../courses/CHEM231.html" xlink:title="CHEM231: Introduction to Organic Chemistry" target="_top">
<path fill="#ead9b8" stroke="#7e8d96" d="M536,-146C536,-146 499,-146 499,-146 493,-146 487,-140 487,-134 487,-134 487,-122 487,-122 487,-116 493,-110 499,-110 499,-110 536,-110 536,-110 542,-110 548,-116 548,-122 548,-122 548,-134 548,-134 548,-140 542,-146 536,-146"/>
<text text-anchor="middle" x="517.5" y="-125.8" font-family="Avenir Next" font-size="9.00" fill="#41515b">CHEM231</text>
</a>
</g>
</g>
<!-- course__CHEM101&#45;&gt;course__CHEM231 -->
<g id="edge17" class="edge">
<title>course__CHEM101&#45;&gt;course__CHEM231</title>
<path fill="none" stroke="#5d6972" stroke-width="1.2" d="M401.16,-128C426.89,-128 456.69,-128 479.55,-128"/>
<polygon fill="#5d6972" stroke="#5d6972" stroke-width="1.2" points="479.71,-130.45 486.71,-128 479.71,-125.55 479.71,-130.45"/>
</g>
<!-- course__MATH200 -->
<g id="node9" class="node">
<title>course__MATH200</title>
<g id="a_node9"><a xlink:href="../../../courses/MATH200.html" xlink:title="Equivalent or cross&#45;listed: MATH200: Calculus III | MATH202: Intermediate Calculus for CSC and EOS" target="_top">
<path fill="#dfe3f4" stroke="#7e8d96" d="M561,-46C561,-46 474,-46 474,-46 468,-46 462,-40 462,-34 462,-34 462,-22 462,-22 462,-16 468,-10 474,-10 474,-10 561,-10 561,-10 567,-10 573,-16 573,-22 573,-22 573,-34 573,-34 573,-40 567,-46 561,-46"/>
<text text-anchor="middle" x="517.5" y="-25.8" font-family="Avenir Next" font-size="9.00" fill="#41515b">MATH200 / MATH202</text>
</a>
</g>
</g>
<!-- course__MATH101&#45;&gt;course__MATH200 -->
<g id="edge19" class="edge">
<title>course__MATH101&#45;&gt;course__MATH200</title>
<path fill="none" stroke="#5d6972" stroke-width="1.2" d="M373.71,-47.15C395.77,-44.19 427.06,-40 454.72,-36.29"/>
<polygon fill="#5d6972" stroke="#5d6972" stroke-width="1.2" points="455.06,-38.71 461.67,-35.35 454.41,-33.86 455.06,-38.71"/>
</g>
<!-- course__STAT254 -->
<g id="node12" class="node">
<title>course__STAT254</title>
<g id="a_node12"><a xlink:href="../../../courses/STAT254.html" xlink:title="Equivalent or cross&#45;listed: STAT254: Probability and Statistics for Engineers | STAT260: Introduction to Probability and Statistics I" target="_top">
<path fill="#e6dde9" stroke="#1b2730" stroke-width="1.6" d="M730,-92C730,-92 646,-92 646,-92 640,-92 634,-86 634,-80 634,-80 634,-68 634,-68 634,-62 640,-56 646,-56 646,-56 730,-56 730,-56 736,-56 742,-62 742,-68 742,-68 742,-80 742,-80 742,-86 736,-92 730,-92"/>
<text text-anchor="middle" x="688" y="-71.5" font-family="Avenir Next" font-size="10.00" fill="#17232b">STAT254 / STAT260</text>
</a>
</g>
</g>
<!-- course__MATH101&#45;&gt;course__STAT254 -->
<g id="edge21" class="edge">
<title>course__MATH101&#45;&gt;course__STAT254</title>
<path fill="none" stroke="#5d6972" stroke-width="1.2" d="M373.57,-52.92C429.09,-56.66 552.61,-64.96 626.94,-69.96"/>
<polygon fill="#5d6972" stroke="#5d6972" stroke-width="1.2" points="626.83,-72.41 633.97,-70.43 627.15,-67.52 626.83,-72.41"/>
</g>
<!-- course__BIOL230 -->
<g id="node11" class="node">
<title>course__BIOL230</title>
<g id="a_node11"><a xlink:href="../../../courses/BIOL230.html" xlink:title="BIOL230: Principles of Genetics" target="_top">
<path fill="#dbe8d2" stroke="#1b2730" stroke-width="1.6" d="M704.5,-148C704.5,-148 671.5,-148 671.5,-148 665.5,-148 659.5,-142 659.5,-136 659.5,-136 659.5,-124 659.5,-124 659.5,-118 665.5,-112 671.5,-112 671.5,-112 704.5,-112 704.5,-112 710.5,-112 716.5,-118 716.5,-124 716.5,-124 716.5,-136 716.5,-136 716.5,-142 710.5,-148 704.5,-148"/>
<text text-anchor="middle" x="688" y="-127.5" font-family="Avenir Next" font-size="10.00" fill="#17232b">BIOL230</text>
</a>
</g>
</g>
<!-- course__BIOL225&#45;&gt;course__BIOL230 -->
<g id="edge9" class="edge">
<title>course__BIOL225&#45;&gt;course__BIOL230</title>
<path fill="none" stroke="#5d6972" stroke-width="1.2" d="M545.57,-175.32C574.63,-166.01 620.88,-151.19 652.52,-141.05"/>
<polygon fill="#5d6972" stroke="#5d6972" stroke-width="1.2" points="653.52,-143.3 659.43,-138.83 652.02,-138.64 653.52,-143.3"/>
</g>
<!-- course__CHEM231&#45;&gt;course__BIOL230 -->
<g id="edge10" class="edge">
<title>course__CHEM231&#45;&gt;course__BIOL230</title>
<path fill="none" stroke="#5d6972" stroke-width="1.2" d="M548.24,-128.35C577.28,-128.7 621.46,-129.22 652.13,-129.59"/>
<polygon fill="#5d6972" stroke="#5d6972" stroke-width="1.2" points="652.21,-132.04 659.24,-129.67 652.27,-127.14 652.21,-132.04"/>
</g>
<!-- course__MATH200&#45;&gt;course__STAT254 -->
<g id="edge20" class="edge">
<title>course__MATH200&#45;&gt;course__STAT254</title>
<path fill="none" stroke="#5d6972" stroke-width="1.2" d="M573.21,-42.93C590.34,-47.61 609.35,-52.8 626.84,-57.58"/>
<polygon fill="#5d6972" stroke="#5d6972" stroke-width="1.2" points="626.32,-59.97 633.72,-59.45 627.61,-55.25 626.32,-59.97"/>
</g>
<!-- course__BIOL215 -->
<g id="node10" class="node">
<title>course__BIOL215</title>
<g id="a_node10"><a xlink:href="../../../courses/BIOL215.html" xlink:title="BIOL215: Principles of Ecology" target="_top">
<path fill="#dbe8d2" stroke="#1b2730" stroke-width="1.6" d="M704.5,-204C704.5,-204 671.5,-204 671.5,-204 665.5,-204 659.5,-198 659.5,-192 659.5,-192 659.5,-180 659.5,-180 659.5,-174 665.5,-168 671.5,-168 671.5,-168 704.5,-168 704.5,-168 710.5,-168 716.5,-174 716.5,-180 716.5,-180 716.5,-192 716.5,-192 716.5,-198 710.5,-204 704.5,-204"/>
<text text-anchor="middle" x="688" y="-183.5" font-family="Avenir Next" font-size="10.00" fill="#17232b">BIOL215</text>
</a>
</g>
</g>
<!-- course__BIOL370 -->
<g id="node14" class="node">
<title>course__BIOL370</title>
<g id="a_node14"><a xlink:href="../../../courses/BIOL370.html" xlink:title="BIOL370: Conservation Biology" target="_top">
<path fill="#dbe8d2" stroke="#1f4f66" stroke-width="2" d="M1027,-148C1027,-148 930,-148 930,-148 924,-148 918,-142 918,-136 918,-136 918,-124 918,-124 918,-118 924,-112 930,-112 930,-112 1027,-112 1027,-112 1033,-112 1039,-118 1039,-124 1039,-124 1039,-136 1039,-136 1039,-142 1033,-148 1027,-148"/>
<text text-anchor="middle" x="978.5" y="-133" font-family="Avenir Next" font-size="10.00" fill="#17232b">BIOL370</text>
<text text-anchor="middle" x="978.5" y="-122" font-family="Avenir Next" font-size="10.00" fill="#17232b">Conservation Biology</text>
</a>
</g>
</g>
<!-- course__BIOL215&#45;&gt;course__BIOL370 -->
<g id="edge13" class="edge">
<title>course__BIOL215&#45;&gt;course__BIOL370</title>
<path fill="none" stroke="#5d6972" stroke-width="1.2" d="M716.66,-180.63C761,-172.02 849.23,-154.9 910.74,-142.96"/>
<polygon fill="#5d6972" stroke="#5d6972" stroke-width="1.2" points="911.32,-145.34 917.73,-141.6 910.39,-140.53 911.32,-145.34"/>
</g>
<!-- course__BIOL230&#45;&gt;course__BIOL370 -->
<g id="edge14" class="edge">
<title>course__BIOL230&#45;&gt;course__BIOL370</title>
<path fill="none" stroke="#5d6972" stroke-width="1.2" d="M716.66,-130C760.91,-130 848.88,-130 910.36,-130"/>
<polygon fill="#5d6972" stroke="#5d6972" stroke-width="1.2" points="910.73,-132.45 917.73,-130 910.73,-127.55 910.73,-132.45"/>
</g>
<!-- choice_BIOL370_0_2 -->
<g id="node18" class="node">
<title>choice_BIOL370_0_2</title>
<path fill="#fff7ee" stroke="#b7793f" stroke-width="1.1" d="M845,-92C845,-92 815,-92 815,-92 809,-92 803,-86 803,-80 803,-80 803,-68 803,-68 803,-62 809,-56 815,-56 815,-56 845,-56 845,-56 851,-56 857,-62 857,-68 857,-68 857,-80 857,-80 857,-86 851,-92 845,-92"/>
<text text-anchor="middle" x="830" y="-71.8" font-family="Avenir Next" font-size="9.00">1 of</text>
</g>
<!-- course__STAT254&#45;&gt;choice_BIOL370_0_2 -->
<g id="edge12" class="edge">
<title>course__STAT254&#45;&gt;choice_BIOL370_0_2</title>
<path fill="none" stroke="#7a8389" d="M742.33,-74C760.29,-74 779.8,-74 795.76,-74"/>
<polygon fill="#7a8389" stroke="#7a8389" points="795.82,-76.45 802.82,-74 795.82,-71.55 795.82,-76.45"/>
</g>
<!-- course__STAT255 -->
<g id="node13" class="node">
<title>course__STAT255</title>
<g id="a_node13"><a xlink:href="../../../courses/STAT255.html" xlink:title="STAT255: Statistics for Life Sciences I" target="_top">
<path fill="#e6dde9" stroke="#1b2730" stroke-width="1.6" d="M705,-36C705,-36 671,-36 671,-36 665,-36 659,-30 659,-24 659,-24 659,-12 659,-12 659,-6 665,0 671,0 671,0 705,0 705,0 711,0 717,-6 717,-12 717,-12 717,-24 717,-24 717,-30 711,-36 705,-36"/>
<text text-anchor="middle" x="688" y="-15.5" font-family="Avenir Next" font-size="10.00" fill="#17232b">STAT255</text>
</a>
</g>
</g>
<!-- course__STAT255&#45;&gt;choice_BIOL370_0_2 -->
<g id="edge11" class="edge">
<title>course__STAT255&#45;&gt;choice_BIOL370_0_2</title>
<path fill="none" stroke="#7a8389" d="M717.33,-29.33C740.12,-38.45 772.17,-51.27 796.09,-60.84"/>
<polygon fill="#7a8389" stroke="#7a8389" points="795.2,-63.12 802.61,-63.44 797.02,-58.57 795.2,-63.12"/>
</g>
<!-- course__BIOL461 -->
<g id="node15" class="node">
<title>course__BIOL461</title>
<g id="a_node15"><a xlink:href="../../../courses/BIOL461.html" xlink:title="BIOL461: Fisheries Ecology and Management" target="_top">
<path fill="#dbe8d2" stroke="#1b2730" stroke-width="1.6" d="M1145,-148C1145,-148 1112,-148 1112,-148 1106,-148 1100,-142 1100,-136 1100,-136 1100,-124 1100,-124 1100,-118 1106,-112 1112,-112 1112,-112 1145,-112 1145,-112 1151,-112 1157,-118 1157,-124 1157,-124 1157,-136 1157,-136 1157,-142 1151,-148 1145,-148"/>
<text text-anchor="middle" x="1128.5" y="-127.5" font-family="Avenir Next" font-size="10.00" fill="#17232b">BIOL461</text>
</a>
</g>
</g>
<!-- course__BIOL370&#45;&gt;course__BIOL461 -->
<g id="edge16" class="edge">
<title>course__BIOL370&#45;&gt;course__BIOL461</title>
<path fill="none" stroke="#5d6972" stroke-width="1.2" d="M1039.27,-130C1057.5,-130 1076.92,-130 1092.89,-130"/>
<polygon fill="#5d6972" stroke="#5d6972" stroke-width="1.2" points="1092.97,-132.45 1099.97,-130 1092.97,-127.55 1092.97,-132.45"/>
</g>
<!-- choice_BIOL184_0_0&#45;&gt;course__BIOL184 -->
<g id="edge3" class="edge">
<title>choice_BIOL184_0_0&#45;&gt;course__BIOL184</title>
<path fill="none" stroke="#5d6972" stroke-width="1.2" d="M490.16,-263.2C466.92,-256.66 432.01,-247.67 401,-243 288.55,-226.08 153.49,-222.7 91.15,-222.09"/>
<polygon fill="#5d6972" stroke="#5d6972" stroke-width="1.2" points="90.93,-219.64 83.91,-222.03 90.89,-224.54 90.93,-219.64"/>
</g>
<!-- choice_BIOL186_0_0&#45;&gt;course__BIOL186 -->
<g id="edge6" class="edge">
<title>choice_BIOL186_0_0&#45;&gt;course__BIOL186</title>
<path fill="none" stroke="#5d6972" stroke-width="1.2" d="M226.23,-271C249.27,-271 282.97,-271 308.25,-271"/>
<polygon fill="#5d6972" stroke="#5d6972" stroke-width="1.2" points="308.48,-273.45 315.48,-271 308.48,-268.55 308.48,-273.45"/>
</g>
<!-- choice_BIOL370_0_2&#45;&gt;course__BIOL370 -->
<g id="edge15" class="edge">
<title>choice_BIOL370_0_2&#45;&gt;course__BIOL370</title>
<path fill="none" stroke="#5d6972" stroke-width="1.2" d="M857.19,-84.01C875.62,-91.06 900.94,-100.73 923.59,-109.39"/>
<polygon fill="#5d6972" stroke="#5d6972" stroke-width="1.2" points="922.8,-111.71 930.22,-111.93 924.55,-107.14 922.8,-111.71"/>
</g>
</g>
</svg>
