<?xml version="1.0" encoding="UTF-8" standalone="no"?>
<!DOCTYPE svg PUBLIC "-//W3C//DTD SVG 1.1//EN"
 "http://www.w3.org/Graphics/SVG/1.1/DTD/svg11.dtd">
<!-- Generated by graphviz version 2.43.0 (0)
 -->
<!-- Title: BIOL321 Pages: 1 -->
<svg width="883pt" height="208pt"
 viewBox="0.00 0.00 883.20 208.20" xmlns="http://www.w3.org/2000/svg" xmlns:xlink="http://www.w3.org/1999/xlink">
<g id="graph0" class="graph" transform="scale(1 1) rotate(0) translate(21.6 186.6)">
<title>BIOL321</title>
<!-- course__BIOL150A -->
<g id="node1" class="node">
<title>course__BIOL150A</title>
<g id="a_node1"><a xlink:href="../../../courses/BIOL150A.html" xlink:title="BIOL150A: Modern Biology" target="_top">
<path fill="#dbe8d2" stroke="#7e8d96" d="M50,-36C50,-36 12,-36 12,-36 6,-36 0,-30 0,-24 0,-24 0,-12 0,-12 0,-6 6,0 12,0 12,0 50,0 50,0 56,0 62,-6 62,-12 62,-12 62,-24 62,-24 62,-30 56,-36 50,-36"/>
<text text-anchor="middle" x="31" y="-15.8" font-family="Avenir Next" font-size="9.00" fill="#41515b">BIOL150A</text>
</a>
</g>
</g>
<!-- choice_BIOL184_0_0 -->
<g id="node9" class="node">
<title>choice_BIOL184_0_0</title>
<path fill="#fff7ee" stroke="#b7793f" stroke-width="1.1" d="M165,-64C165,-64 135,-64 135,-64 129,-64 123,-58 123,-52 123,-52 123,-40 123,-40 123,-34 129,-28 135,-28 135,-28 165,-28 165,-28 171,-28 177,-34 177,-40 177,-40 177,-52 177,-52 177,-58 171,-64 165,-64"/>
<text text-anchor="middle" x="150" y="-43.8" font-family="Avenir Next" font-size="9.00">1 of</text>
</g>
<!-- course__BIOL150A&#45;&gt;choice_BIOL184_0_0 -->
<g id="edge1" class="edge">
<title>course__BIOL150A&#45;&gt;choice_BIOL184_0_0</title>
<path fill="none" stroke="#7a8389" d="M62.13,-25.21C78.6,-29.15 99.03,-34.04 115.94,-38.09"/>
<polygon fill="#7a8389" stroke="#7a8389" points="115.57,-40.52 122.95,-39.76 116.71,-35.75 115.57,-40.52"/>
</g>
<!-- choice_BIOL186_0_0 -->
<g id="node10" class="node">
<title>choice_BIOL186_0_0</title>
<path fill="#fff7ee" stroke="#b7793f" stroke-width="1.1" d="M399.5,-64C399.5,-64 369.5,-64 369.5,-64 363.5,-64 357.5,-58 357.5,-52 357.5,-52 357.5,-40 357.5,-40 357.5,-34 363.5,-28 369.5,-28 369.5,-28 399.5,-28 399.5,-28 405.5,-28 411.5,-34 411.5,-40 411.5,-40 411.5,-52 411.5,-52 411.5,-58 405.5,-64 399.5,-64"/>
<text text-anchor="middle" x="384.5" y="-43.8" font-family="Avenir Next" font-size="9.00">1 of</text>
</g>
<!-- course__BIOL150A&#45;&gt;choice_BIOL186_0_0 -->
<g id="edge4" class="edge">
<title>course__BIOL150A&#45;&gt;choice_BIOL186_0_0</title>
<path fill="none" stroke="#7a8389" d="M62.2,-15.03C111.35,-10.85 211.52,-5.11 295,-18 313.81,-20.91 334.11,-27.09 350.51,-32.91"/>
<polygon fill="#7a8389" stroke="#7a8389" points="349.87,-35.29 357.29,-35.37 351.54,-30.68 349.87,-35.29"/>
</g>
<!-- course__BIOL186 -->
<g id="node2" class="node">
<title>course__BIOL186</title>
<g id="a_node2"><a xlink:href="../../../courses/BIOL186.html" xlink:title="BIOL186: Physiology and Cell Biology" target="_top">
<path fill="#dbe8d2" stroke="#1b2730" stroke-width="1.6" d="M47.5,-113C47.5,-113 14.5,-113 14.5,-113 8.5,-113 2.5,-107 2.5,-101 2.5,-101 2.5,-89 2.5,-89 2.5,-83 8.5,-77 14.5,-77 14.5,-77 47.5,-77 47.5,-77 53.5,-77 59.5,-83 59.5,-89 59.5,-89 59.5,-101 59.5,-101 59.5,-107 53.5,-113 47.5,-113"/>
<text text-anchor="middle" x="31" y="-92.5" font-family="Avenir Next" font-size="10.00" fill="#17232b">BIOL186</text>
</a>
</g>
</g>
<!-- course__BIOL225 -->
<g id="node4" class="node">
<title>course__BIOL225</title>
<g id="a_node4"><a xlink:href="../../../courses/BIOL225.html" xlink:title="BIOL225: Principles of Cell Biology" target="_top">
<path fill="#dbe8d2" stroke="#1b2730" stroke-width="1.6" d="M401,-137C401,-137 368,-137 368,-137 362,-137 356,-131 356,-125 356,-125 356,-113 356,-113 356,-107 362,-101 368,-101 368,-101 401,-101 401,-101 407,-101 413,-107 413,-113 413,-113 413,-125 413,-125 413,-131 407,-137 401,-137"/>
<text text-anchor="middle" x="384.5" y="-116.5" font-family="Avenir Next" font-size="10.00" fill="#17232b">BIOL225</text>
</a>
</g>
</g>
<!-- course__BIOL186&#45;&gt;course__BIOL225 -->
<g id="edge7" class="edge">
<title>course__BIOL186&#45;&gt;course__BIOL225</title>
<path fill="none" stroke="#5d6972" stroke-width="1.2" d="M59.73,-100.94C77.69,-104.52 101.62,-108.8 123,-111 203.44,-119.26 298.52,-119.89 348.6,-119.51"/>
<polygon fill="#5d6972" stroke="#5d6972" stroke-width="1.2" points="348.68,-121.96 355.65,-119.45 348.63,-117.06 348.68,-121.96"/>
</g>
<!-- course__BIOL186&#45;&gt;choice_BIOL184_0_0 -->
<g id="edge2" class="edge">
<title>course__BIOL186&#45;&gt;choice_BIOL184_0_0</title>
<path fill="none" stroke="#7a8389" d="M59.73,-83.39C76.55,-76.34 98.12,-67.31 115.84,-59.89"/>
<polygon fill="#7a8389" stroke="#7a8389" points="117.17,-61.99 122.68,-57.02 115.27,-57.47 117.17,-61.99"/>
</g>
<!-- course__BIOL184 -->
<g id="node3" class="node">
<title>course__BIOL184</title>
<g id="a_node3"><a xlink:href="../../../courses/BIOL184.html" xlink:title="BIOL184: Evolution and Biodiversity" target="_top">
<path fill="#dbe8d2" stroke="#1b2730" stroke-width="1.6" d="M283,-64C283,-64 250,-64 250,-64 244,-64 238,-58 238,-52 238,-52 238,-40 238,-40 238,-34 244,-28 250,-28 250,-28 283,-28 283,-28 289,-28 295,-34 295,-40 295,-40 295,-52 295,-52 295,-58 289,-64 283,-64"/>
<text text-anchor="middle" x="266.5" y="-43.5" font-family="Avenir Next" font-size="10.00" fill="#17232b">BIOL184</text>
</a>
</g>
</g>
<!-- course__BIOL184&#45;&gt;course__BIOL225 -->
<g id="edge8" class="edge">
<title>course__BIOL184&#45;&gt;course__BIOL225</title>
<path fill="none" stroke="#5d6972" stroke-width="1.2" d="M295.28,-63.49C311.64,-73.78 332.45,-86.87 349.74,-97.76"/>
<polygon fill="#5d6972" stroke="#5d6972" stroke-width="1.2" points="348.71,-100 355.94,-101.66 351.32,-95.86 348.71,-100"/>
</g>
<!-- course__BIOL184&#45;&gt;choice_BIOL186_0_0 -->
<g id="edge5" class="edge">
<title>course__BIOL184&#45;&gt;choice_BIOL186_0_0</title>
<path fill="none" stroke="#7a8389" d="M295.28,-46C311.71,-46 332.61,-46 349.95,-46"/>
<polygon fill="#7a8389" stroke="#7a8389" points="350.14,-48.45 357.14,-46 350.14,-43.55 350.14,-48.45"/>
</g>
<!-- course__BIOL321 -->
<g id="node5" class="node">
<title>course__BIOL321</title>
<g id="a_node5"><a xlink:href="../../../courses/BIOL321.html" xlink:title="BIOL321: Survey of Invertebrates" target="_top">
<path fill="#dbe8d2" stroke="#1f4f66" stroke-width="2" d="M593,-137C593,-137 486,-137 486,-137 480,-137 474,-131 474,-125 474,-125 474,-113 474,-113 474,-107 480,-101 486,-101 486,-101 593,-101 593,-101 599,-101 605,-107 605,-113 605,-113 605,-125 605,-125 605,-131 599,-137 593,-137"/>
<text text-anchor="middle" x="539.5" y="-122" font-family="Avenir Next" font-size="10.00" fill="#17232b">BIOL321</text>
<text text-anchor="middle" x="539.5" y="-111" font-family="Avenir Next" font-size="10.00" fill="#17232b">Survey of Invertebrates</text>
</a>
</g>
</g>
<!-- course__BIOL225&#45;&gt;course__BIOL321 -->
<g id="edge10" class="edge">
<title>course__BIOL225&#45;&gt;course__BIOL321</title>
<path fill="none" stroke="#5d6972" stroke-width="1.2" d="M413.21,-119C428.25,-119 447.61,-119 466.6,-119"/>
<polygon fill="#5d6972" stroke="#5d6972" stroke-width="1.2" points="466.84,-121.45 473.84,-119 466.84,-116.55 466.84,-121.45"/>
</g>
<!-- course__BIOL319 -->
<g id="node6" class="node">
<title>course__BIOL319</title>
<g id="a_node6"><a xlink:href="../../../courses/BIOL319.html" xlink:title="BIOL319: Marine Ecology" target="_top">
<path fill="#dbe8d2" stroke="#1b2730" stroke-width="1.6" d="M711,-165C711,-165 678,-165 678,-165 672,-165 666,-159 666,-153 666,-153 666,-141 666,-141 666,-135 672,-129 678,-129 678,-129 711,-129 711,-129 717,-129 723,-135 723,-141 723,-141 723,-153 723,-153 723,-159 717,-165 711,-165"/>
<text text-anchor="middle" x="694.5" y="-144.5" font-family="Avenir Next" font-size="10.00" fill="#17232b">BIOL319</text>
</a>
</g>
</g>
<!-- course__BIOL321&#45;&gt;course__BIOL319 -->
<g id="edge9" class="edge">
<title>course__BIOL321&#45;&gt;course__BIOL319</title>
<path fill="none" stroke="#5d6972" stroke-width="1.2" d="M605.39,-130.87C623.75,-134.24 643.03,-137.76 658.85,-140.66"/>
<polygon fill="#5d6972" stroke="#5d6972" stroke-width="1.2" points="658.54,-143.09 665.86,-141.94 659.42,-138.27 658.54,-143.09"/>
</g>
<!-- course__BIOL322 -->
<g id="node7" class="node">
<title>course__BIOL322</title>
<g id="a_node7"><a xlink:href="../../../courses/BIOL322.html" xlink:title="BIOL322: Biology of Marine Invertebrates" target="_top">
<path fill="#dbe8d2" stroke="#1b2730" stroke-width="1.6" d="M711,-109C711,-109 678,-109 678,-109 672,-109 666,-103 666,-97 666,-97 666,-85 666,-85 666,-79 672,-73 678,-73 678,-73 711,-73 711,-73 717,-73 723,-79 723,-85 723,-85 723,-97 723,-97 723,-103 717,-109 711,-109"/>
<text text-anchor="middle" x="694.5" y="-88.5" font-family="Avenir Next" font-size="10.00" fill="#17232b">BIOL322</text>
</a>
</g>
</g>
<!-- course__BIOL321&#45;&gt;course__BIOL322 -->
<g id="edge11" class="edge">
<title>course__BIOL321&#45;&gt;course__BIOL322</title>
<path fill="none" stroke="#5d6972" stroke-width="1.2" d="M605.39,-107.13C623.75,-103.76 643.03,-100.24 658.85,-97.34"/>
<polygon fill="#5d6972" stroke="#5d6972" stroke-width="1.2" points="659.42,-99.73 665.86,-96.06 658.54,-94.91 659.42,-99.73"/>
</g>
<!-- course__BIOL466 -->
<g id="node8" class="node">
<title>course__BIOL466</title>
<g id="a_node8"><a xlink:href="../../../courses/BIOL466.html" xlink:title="BIOL466: Frontiers in Marine Biology" target="_top">
<path fill="#dbe8d2" stroke="#7e8d96" d="M828,-165C828,-165 796,-165 796,-165 790,-165 784,-159 784,-153 784,-153 784,-141 784,-141 784,-135 790,-129 796,-129 796,-129 828,-129 828,-129 834,-129 840,-135 840,-141 840,-141 840,-153 840,-153 840,-159 834,-165 828,-165"/>
<text text-anchor="middle" x="812" y="-144.8" font-family="Avenir Next" font-size="9.00" fill="#41515b">BIOL466</text>
</a>
</g>
</g>
<!-- course__BIOL319&#45;&gt;course__BIOL466 -->
<g id="edge12" class="edge">
<title>course__BIOL319&#45;&gt;course__BIOL466</title>
<path fill="none" stroke="#5d6972" stroke-width="1.2" d="M723.17,-147C739.28,-147 759.74,-147 776.85,-147"/>
<polygon fill="#5d6972" stroke="#5d6972" stroke-width="1.2" points="776.96,-149.45 783.96,-147 776.96,-144.55 776.96,-149.45"/>
</g>
<!-- choice_BIOL184_0_0&#45;&gt;course__BIOL184 -->
<g id="edge3" class="edge">
<title>choice_BIOL184_0_0&#45;&gt;course__BIOL184</title>
<path fill="none" stroke="#5d6972" stroke-width="1.2" d="M177.27,-46C193.1,-46 213.45,-46 230.62,-46"/>
<polygon fill="#5d6972" stroke="#5d6972" stroke-width="1.2" points="230.76,-48.45 237.76,-46 230.76,-43.55 230.76,-48.45"/>
</g>
<!-- choice_BIOL186_0_0&#45;&gt;course__BIOL186 -->
<g id="edge6" class="edge">
<title>choice_BIOL186_0_0&#45;&gt;course__BIOL186</title>
<path fill="none" stroke="#5d6972" stroke-width="1.2" d="M357.19,-56.06C339.79,-62.27 316.35,-69.83 295,-74 214.23,-89.79 117.29,-93.76 66.66,-94.72"/>
<polygon fill="#5d6972" stroke="#5d6972" stroke-width="1.2" points="66.49,-92.28 59.54,-94.84 66.58,-97.18 66.49,-92.28"/>
</g>
</g>
</svg>
