<?xml version="1.0" encoding="UTF-8" standalone="no"?>
<!DOCTYPE svg PUBLIC "-//W3C//DTD SVG 1.1//EN"
 "http://www.w3.org/Graphics/SVG/1.1/DTD/svg11.dtd">
<!-- Generated by graphviz version 2.43.0 (0)
 -->
<!-- Title: BIOL446 Pages: 1 -->
<svg width="1896pt" height="825pt"
 viewBox="0.00 0.00 1896.20 824.95" xmlns="http://www.w3.org/2000/svg" xmlns:xlink="http://www.w3.org/1999/xlink">
<g id="graph0" class="graph" transform="scale(1 1) rotate(0) translate(21.6 803.35)">
<title>BIOL446</title>
<!-- course__BIOL150A -->
<g id="node1" class="node">
<title>course__BIOL150A</title>
<g id="a_node1"><a xlink:href="../../../courses/BIOL150A.html" xlink:title="BIOL150A: Modern Biology" target="_top">
<path fill="#dbe8d2" stroke="#7e8d96" d="M321,-710.75C321,-710.75 283,-710.75 283,-710.75 277,-710.75 271,-704.75 271,-698.75 271,-698.75 271,-686.75 271,-686.75 271,-680.75 277,-674.75 283,-674.75 283,-674.75 321,-674.75 321,-674.75 327,-674.75 333,-680.75 333,-686.75 333,-686.75 333,-698.75 333,-698.75 333,-704.75 327,-710.75 321,-710.75"/>
<text text-anchor="middle" x="302" y="-690.55" font-family="Avenir Next" font-size="9.00" fill="#41515b">BIOL150A</text>
</a>
</g>
</g>
<!-- choice_BIOL184_0_0 -->
<g id="node26" class="node">
<title>choice_BIOL184_0_0</title>
<path fill="#fff7ee" stroke="#b7793f" stroke-width="1.1" d="M753,-638.75C753,-638.75 723,-638.75 723,-638.75 717,-638.75 711,-632.75 711,-626.75 711,-626.75 711,-614.75 711,-614.75 711,-608.75 717,-602.75 723,-602.75 723,-602.75 753,-602.75 753,-602.75 759,-602.75 765,-608.75 765,-614.75 765,-614.75 765,-626.75 765,-626.75 765,-632.75 759,-638.75 753,-638.75"/>
<text text-anchor="middle" x="738" y="-618.55" font-family="Avenir Next" font-size="9.00">1 of</text>
</g>
<!-- course__BIOL150A&#45;&gt;choice_BIOL184_0_0 -->
<g id="edge2" class="edge">
<title>course__BIOL150A&#45;&gt;choice_BIOL184_0_0</title>
<path fill="none" stroke="#7a8389" d="M333,-697.71C390.14,-706.04 517.97,-719.29 620,-690.75 653.27,-681.45 686.64,-660 709.17,-643.28"/>
<polygon fill="#7a8389" stroke="#7a8389" points="710.84,-645.09 714.95,-638.92 707.88,-641.18 710.84,-645.09"/>
</g>
<!-- choice_BIOL186_0_0 -->
<g id="node27" class="node">
<title>choice_BIOL186_0_0</title>
<path fill="#fff7ee" stroke="#b7793f" stroke-width="1.1" d="M436,-680.75C436,-680.75 406,-680.75 406,-680.75 400,-680.75 394,-674.75 394,-668.75 394,-668.75 394,-656.75 394,-656.75 394,-650.75 400,-644.75 406,-644.75 406,-644.75 436,-644.75 436,-644.75 442,-644.75 448,-650.75 448,-656.75 448,-656.75 448,-668.75 448,-668.75 448,-674.75 442,-680.75 436,-680.75"/>
<text text-anchor="middle" x="421" y="-660.55" font-family="Avenir Next" font-size="9.00">1 of</text>
</g>
<!-- course__BIOL150A&#45;&gt;choice_BIOL186_0_0 -->
<g id="edge5" class="edge">
<title>course__BIOL150A&#45;&gt;choice_BIOL186_0_0</title>
<path fill="none" stroke="#7a8389" d="M333.13,-685.03C349.6,-680.81 370.03,-675.57 386.94,-671.23"/>
<polygon fill="#7a8389" stroke="#7a8389" points="387.77,-673.55 393.95,-669.43 386.56,-668.8 387.77,-673.55"/>
</g>
<!-- course__BIOL184 -->
<g id="node2" class="node">
<title>course__BIOL184</title>
<g id="a_node2"><a xlink:href="../../../courses/BIOL184.html" xlink:title="BIOL184: Evolution and Biodiversity" target="_top">
<path fill="#dbe8d2" stroke="#7e8d96" d="M318,-631.75C318,-631.75 286,-631.75 286,-631.75 280,-631.75 274,-625.75 274,-619.75 274,-619.75 274,-607.75 274,-607.75 274,-601.75 280,-595.75 286,-595.75 286,-595.75 318,-595.75 318,-595.75 324,-595.75 330,-601.75 330,-607.75 330,-607.75 330,-619.75 330,-619.75 330,-625.75 324,-631.75 318,-631.75"/>
<text text-anchor="middle" x="302" y="-611.55" font-family="Avenir Next" font-size="9.00" fill="#41515b">BIOL184</text>
</a>
</g>
</g>
<!-- course__BIOL225 -->
<g id="node7" class="node">
<title>course__BIOL225</title>
<g id="a_node7"><a xlink:href="../../../courses/BIOL225.html" xlink:title="BIOL225: Principles of Cell Biology" target="_top">
<path fill="#dbe8d2" stroke="#7e8d96" d="M927.5,-625.75C927.5,-625.75 895.5,-625.75 895.5,-625.75 889.5,-625.75 883.5,-619.75 883.5,-613.75 883.5,-613.75 883.5,-601.75 883.5,-601.75 883.5,-595.75 889.5,-589.75 895.5,-589.75 895.5,-589.75 927.5,-589.75 927.5,-589.75 933.5,-589.75 939.5,-595.75 939.5,-601.75 939.5,-601.75 939.5,-613.75 939.5,-613.75 939.5,-619.75 933.5,-625.75 927.5,-625.75"/>
<text text-anchor="middle" x="911.5" y="-605.55" font-family="Avenir Next" font-size="9.00" fill="#41515b">BIOL225</text>
</a>
</g>
</g>
<!-- course__BIOL184&#45;&gt;course__BIOL225 -->
<g id="edge9" class="edge">
<title>course__BIOL184&#45;&gt;course__BIOL225</title>
<path fill="none" stroke="#5d6972" stroke-width="1.2" d="M330.22,-610.55C404.68,-602.21 617.97,-581.31 795,-592.75 822.31,-594.52 853.03,-598.61 875.92,-602.08"/>
<polygon fill="#5d6972" stroke="#5d6972" stroke-width="1.2" points="875.77,-604.53 883.06,-603.18 876.51,-599.69 875.77,-604.53"/>
</g>
<!-- course__BIOL184&#45;&gt;choice_BIOL186_0_0 -->
<g id="edge6" class="edge">
<title>course__BIOL184&#45;&gt;choice_BIOL186_0_0</title>
<path fill="none" stroke="#7a8389" d="M330.14,-625.12C347.06,-632.21 368.96,-641.38 386.9,-648.89"/>
<polygon fill="#7a8389" stroke="#7a8389" points="386.41,-651.34 393.82,-651.79 388.31,-646.82 386.41,-651.34"/>
</g>
<!-- course__BIOL186 -->
<g id="node3" class="node">
<title>course__BIOL186</title>
<g id="a_node3"><a xlink:href="../../../courses/BIOL186.html" xlink:title="BIOL186: Physiology and Cell Biology" target="_top">
<path fill="#dbe8d2" stroke="#7e8d96" d="M580.5,-680.75C580.5,-680.75 548.5,-680.75 548.5,-680.75 542.5,-680.75 536.5,-674.75 536.5,-668.75 536.5,-668.75 536.5,-656.75 536.5,-656.75 536.5,-650.75 542.5,-644.75 548.5,-644.75 548.5,-644.75 580.5,-644.75 580.5,-644.75 586.5,-644.75 592.5,-650.75 592.5,-656.75 592.5,-656.75 592.5,-668.75 592.5,-668.75 592.5,-674.75 586.5,-680.75 580.5,-680.75"/>
<text text-anchor="middle" x="564.5" y="-660.55" font-family="Avenir Next" font-size="9.00" fill="#41515b">BIOL186</text>
</a>
</g>
</g>
<!-- course__BIOL186&#45;&gt;course__BIOL225 -->
<g id="edge8" class="edge">
<title>course__BIOL186&#45;&gt;course__BIOL225</title>
<path fill="none" stroke="#5d6972" stroke-width="1.2" d="M592.67,-663.53C635.96,-664.24 723.03,-663.42 795,-648.75 823.15,-643.02 853.74,-631.93 876.36,-622.72"/>
<polygon fill="#5d6972" stroke="#5d6972" stroke-width="1.2" points="877.58,-624.87 883.12,-619.94 875.71,-620.34 877.58,-624.87"/>
</g>
<!-- course__BIOL186&#45;&gt;choice_BIOL184_0_0 -->
<g id="edge3" class="edge">
<title>course__BIOL186&#45;&gt;choice_BIOL184_0_0</title>
<path fill="none" stroke="#7a8389" d="M592.67,-656.1C622.79,-648.72 671.38,-636.82 703.75,-628.9"/>
<polygon fill="#7a8389" stroke="#7a8389" points="704.58,-631.22 710.8,-627.17 703.41,-626.46 704.58,-631.22"/>
</g>
<!-- course__MATH100 -->
<g id="node4" class="node">
<title>course__MATH100</title>
<g id="a_node4"><a xlink:href="../../../courses/MATH100.html" xlink:title="Equivalent or cross&#45;listed: MATH100: Calculus I | MATH102: Calculus for Students in the Social and Biological Sciences | MATH109: Introduction to Calculus" target="_top">
<path fill="#dfe3f4" stroke="#7e8d96" d="M608,-166.75C608,-166.75 521,-166.75 521,-166.75 515,-166.75 509,-160.75 509,-154.75 509,-154.75 509,-142.75 509,-142.75 509,-136.75 515,-130.75 521,-130.75 521,-130.75 608,-130.75 608,-130.75 614,-130.75 620,-136.75 620,-142.75 620,-142.75 620,-154.75 620,-154.75 620,-160.75 614,-166.75 608,-166.75"/>
<text text-anchor="middle" x="564.5" y="-151.55" font-family="Avenir Next" font-size="9.00" fill="#41515b">MATH100 / MATH102</text>
<text text-anchor="middle" x="564.5" y="-141.55" font-family="Avenir Next" font-size="9.00" fill="#41515b">MATH109</text>
</a>
</g>
</g>
<!-- course__MATH101 -->
<g id="node6" class="node">
<title>course__MATH101</title>
<g id="a_node6"><a xlink:href="../../../courses/MATH101.html" xlink:title="MATH101: Calculus II" target="_top">
<path fill="#dfe3f4" stroke="#7e8d96" d="M755.5,-215.75C755.5,-215.75 720.5,-215.75 720.5,-215.75 714.5,-215.75 708.5,-209.75 708.5,-203.75 708.5,-203.75 708.5,-191.75 708.5,-191.75 708.5,-185.75 714.5,-179.75 720.5,-179.75 720.5,-179.75 755.5,-179.75 755.5,-179.75 761.5,-179.75 767.5,-185.75 767.5,-191.75 767.5,-191.75 767.5,-203.75 767.5,-203.75 767.5,-209.75 761.5,-215.75 755.5,-215.75"/>
<text text-anchor="middle" x="738" y="-195.55" font-family="Avenir Next" font-size="9.00" fill="#41515b">MATH101</text>
</a>
</g>
</g>
<!-- course__MATH100&#45;&gt;course__MATH101 -->
<g id="edge36" class="edge">
<title>course__MATH100&#45;&gt;course__MATH101</title>
<path fill="none" stroke="#5d6972" stroke-width="1.2" d="M620.24,-164.39C646.71,-171.96 677.74,-180.82 701.16,-187.51"/>
<polygon fill="#5d6972" stroke="#5d6972" stroke-width="1.2" points="700.76,-189.95 708.17,-189.52 702.11,-185.24 700.76,-189.95"/>
</g>
<!-- course__PHYS110 -->
<g id="node12" class="node">
<title>course__PHYS110</title>
<g id="a_node12"><a xlink:href="../../../courses/PHYS110.html" xlink:title="Equivalent or cross&#45;listed: PHYS110: Introductory Physics I | PHYS120: Physics I" target="_top">
<path fill="#efd8cf" stroke="#7e8d96" d="M953.5,-166.75C953.5,-166.75 869.5,-166.75 869.5,-166.75 863.5,-166.75 857.5,-160.75 857.5,-154.75 857.5,-154.75 857.5,-142.75 857.5,-142.75 857.5,-136.75 863.5,-130.75 869.5,-130.75 869.5,-130.75 953.5,-130.75 953.5,-130.75 959.5,-130.75 965.5,-136.75 965.5,-142.75 965.5,-142.75 965.5,-154.75 965.5,-154.75 965.5,-160.75 959.5,-166.75 953.5,-166.75"/>
<text text-anchor="middle" x="911.5" y="-146.55" font-family="Avenir Next" font-size="9.00" fill="#41515b">PHYS110 / PHYS120</text>
</a>
</g>
</g>
<!-- course__MATH100&#45;&gt;course__PHYS110 -->
<g id="edge41" class="edge">
<title>course__MATH100&#45;&gt;course__PHYS110</title>
<path fill="none" stroke="#5d6972" stroke-width="1.2" d="M620.17,-148.75C682.74,-148.75 784.92,-148.75 849.88,-148.75"/>
<polygon fill="#5d6972" stroke="#5d6972" stroke-width="1.2" points="850.22,-151.2 857.22,-148.75 850.22,-146.3 850.22,-151.2"/>
</g>
<!-- course__CHEM102 -->
<g id="node15" class="node">
<title>course__CHEM102</title>
<g id="a_node15"><a xlink:href="../../../courses/CHEM102.html" xlink:title="CHEM102: Chemical Reactivity Fundamentals with Environmental Applications" target="_top">
<path fill="#ead9b8" stroke="#7e8d96" d="M1215.5,-350.75C1215.5,-350.75 1178.5,-350.75 1178.5,-350.75 1172.5,-350.75 1166.5,-344.75 1166.5,-338.75 1166.5,-338.75 1166.5,-326.75 1166.5,-326.75 1166.5,-320.75 1172.5,-314.75 1178.5,-314.75 1178.5,-314.75 1215.5,-314.75 1215.5,-314.75 1221.5,-314.75 1227.5,-320.75 1227.5,-326.75 1227.5,-326.75 1227.5,-338.75 1227.5,-338.75 1227.5,-344.75 1221.5,-350.75 1215.5,-350.75"/>
<text text-anchor="middle" x="1197" y="-330.55" font-family="Avenir Next" font-size="9.00" fill="#41515b">CHEM102</text>
</a>
</g>
</g>
<!-- course__MATH100&#45;&gt;course__CHEM102 -->
<g id="edge26" class="edge">
<title>course__MATH100&#45;&gt;course__CHEM102</title>
<path fill="none" stroke="#5d6972" stroke-width="1.2" d="M588.11,-166.98C610.51,-184.26 646.4,-209.86 681,-225.75 848.69,-302.76 1072.52,-324.87 1159.39,-330.76"/>
<polygon fill="#5d6972" stroke="#5d6972" stroke-width="1.2" points="1159.24,-333.21 1166.39,-331.22 1159.56,-328.32 1159.24,-333.21"/>
</g>
<!-- course__PHYS111 -->
<g id="node18" class="node">
<title>course__PHYS111</title>
<g id="a_node18"><a xlink:href="../../../courses/PHYS111.html" xlink:title="Equivalent or cross&#45;listed: PHYS111: Introductory Physics II | PHYS130: Physics II" target="_top">
<path fill="#efd8cf" stroke="#7e8d96" d="M1239,-187.75C1239,-187.75 1155,-187.75 1155,-187.75 1149,-187.75 1143,-181.75 1143,-175.75 1143,-175.75 1143,-163.75 1143,-163.75 1143,-157.75 1149,-151.75 1155,-151.75 1155,-151.75 1239,-151.75 1239,-151.75 1245,-151.75 1251,-157.75 1251,-163.75 1251,-163.75 1251,-175.75 1251,-175.75 1251,-181.75 1245,-187.75 1239,-187.75"/>
<text text-anchor="middle" x="1197" y="-167.55" font-family="Avenir Next" font-size="9.00" fill="#41515b">PHYS111 / PHYS130</text>
</a>
</g>
</g>
<!-- course__MATH100&#45;&gt;course__PHYS111 -->
<g id="edge43" class="edge">
<title>course__MATH100&#45;&gt;course__PHYS111</title>
<path fill="none" stroke="#5d6972" stroke-width="1.2" d="M620.16,-138.9C697.52,-126.32 843.31,-107.67 967,-120.75 1025.07,-126.9 1090.06,-141.57 1135.93,-153.27"/>
<polygon fill="#5d6972" stroke="#5d6972" stroke-width="1.2" points="1135.45,-155.68 1142.84,-155.05 1136.67,-150.93 1135.45,-155.68"/>
</g>
<!-- choice_EOS311_0_2 -->
<g id="node31" class="node">
<title>choice_EOS311_0_2</title>
<path fill="#fff7ee" stroke="#b7793f" stroke-width="1.1" d="M1354,-93.75C1354,-93.75 1324,-93.75 1324,-93.75 1318,-93.75 1312,-87.75 1312,-81.75 1312,-81.75 1312,-69.75 1312,-69.75 1312,-63.75 1318,-57.75 1324,-57.75 1324,-57.75 1354,-57.75 1354,-57.75 1360,-57.75 1366,-63.75 1366,-69.75 1366,-69.75 1366,-81.75 1366,-81.75 1366,-87.75 1360,-93.75 1354,-93.75"/>
<text text-anchor="middle" x="1339" y="-73.55" font-family="Avenir Next" font-size="9.00">2 of</text>
</g>
<!-- course__MATH100&#45;&gt;choice_EOS311_0_2 -->
<g id="edge28" class="edge">
<title>course__MATH100&#45;&gt;choice_EOS311_0_2</title>
<path fill="none" stroke="#7a8389" d="M589.11,-130.73C642.96,-91.48 780.29,-1.75 910.5,-1.75 910.5,-1.75 910.5,-1.75 1056,-1.75 1143.17,-1.75 1168.46,5.26 1251,-22.75 1271.73,-29.79 1292.76,-42.42 1308.95,-53.58"/>
<polygon fill="#7a8389" stroke="#7a8389" points="1307.55,-55.59 1314.68,-57.61 1310.36,-51.58 1307.55,-55.59"/>
</g>
<!-- course__CHEM101 -->
<g id="node5" class="node">
<title>course__CHEM101</title>
<g id="a_node5"><a xlink:href="../../../courses/CHEM101.html" xlink:title="Equivalent or cross&#45;listed: CHEM101: Fundamentals of Chemistry from Atoms to Materials | CHEM150: Engineering Chemistry" target="_top">
<path fill="#ead9b8" stroke="#7e8d96" d="M783,-530.75C783,-530.75 693,-530.75 693,-530.75 687,-530.75 681,-524.75 681,-518.75 681,-518.75 681,-506.75 681,-506.75 681,-500.75 687,-494.75 693,-494.75 693,-494.75 783,-494.75 783,-494.75 789,-494.75 795,-500.75 795,-506.75 795,-506.75 795,-518.75 795,-518.75 795,-524.75 789,-530.75 783,-530.75"/>
<text text-anchor="middle" x="738" y="-510.55" font-family="Avenir Next" font-size="9.00" fill="#41515b">CHEM101 / CHEM150</text>
</a>
</g>
</g>
<!-- course__CHEM231 -->
<g id="node9" class="node">
<title>course__CHEM231</title>
<g id="a_node9"><a xlink:href="../../../courses/CHEM231.html" xlink:title="CHEM231: Introduction to Organic Chemistry" target="_top">
<path fill="#ead9b8" stroke="#7e8d96" d="M930,-558.75C930,-558.75 893,-558.75 893,-558.75 887,-558.75 881,-552.75 881,-546.75 881,-546.75 881,-534.75 881,-534.75 881,-528.75 887,-522.75 893,-522.75 893,-522.75 930,-522.75 930,-522.75 936,-522.75 942,-528.75 942,-534.75 942,-534.75 942,-546.75 942,-546.75 942,-552.75 936,-558.75 930,-558.75"/>
<text text-anchor="middle" x="911.5" y="-538.55" font-family="Avenir Next" font-size="9.00" fill="#41515b">CHEM231</text>
</a>
</g>
</g>
<!-- course__CHEM101&#45;&gt;course__CHEM231 -->
<g id="edge27" class="edge">
<title>course__CHEM101&#45;&gt;course__CHEM231</title>
<path fill="none" stroke="#5d6972" stroke-width="1.2" d="M795.16,-521.92C820.89,-526.12 850.69,-530.99 873.55,-534.72"/>
<polygon fill="#5d6972" stroke="#5d6972" stroke-width="1.2" points="873.41,-537.18 880.71,-535.89 874.2,-532.34 873.41,-537.18"/>
</g>
<!-- course__CHEM101&#45;&gt;course__CHEM102 -->
<g id="edge25" class="edge">
<title>course__CHEM101&#45;&gt;course__CHEM102</title>
<path fill="none" stroke="#5d6972" stroke-width="1.2" d="M795.33,-508.07C842.43,-502.82 910.73,-492.08 967,-470.75 1044.31,-441.45 1124.9,-386.12 1166.78,-355.16"/>
<polygon fill="#5d6972" stroke="#5d6972" stroke-width="1.2" points="1168.27,-357.11 1172.43,-350.96 1165.35,-353.17 1168.27,-357.11"/>
</g>
<!-- course__MATH200 -->
<g id="node10" class="node">
<title>course__MATH200</title>
<g id="a_node10"><a xlink:href="../../../courses/MATH200.html" xlink:title="Equivalent or cross&#45;listed: MATH200: Calculus III | MATH202: Intermediate Calculus for CSC and EOS" target="_top">
<path fill="#dfe3f4" stroke="#7e8d96" d="M955,-460.75C955,-460.75 868,-460.75 868,-460.75 862,-460.75 856,-454.75 856,-448.75 856,-448.75 856,-436.75 856,-436.75 856,-430.75 862,-424.75 868,-424.75 868,-424.75 955,-424.75 955,-424.75 961,-424.75 967,-430.75 967,-436.75 967,-436.75 967,-448.75 967,-448.75 967,-454.75 961,-460.75 955,-460.75"/>
<text text-anchor="middle" x="911.5" y="-440.55" font-family="Avenir Next" font-size="9.00" fill="#41515b">MATH200 / MATH202</text>
</a>
</g>
</g>
<!-- course__MATH101&#45;&gt;course__MATH200 -->
<g id="edge37" class="edge">
<title>course__MATH101&#45;&gt;course__MATH200</title>
<path fill="none" stroke="#5d6972" stroke-width="1.2" d="M745.31,-215.93C759.69,-255.26 798.19,-349.58 856,-409.75 859.77,-413.68 864.11,-417.32 868.65,-420.63"/>
<polygon fill="#5d6972" stroke="#5d6972" stroke-width="1.2" points="867.34,-422.7 874.49,-424.65 870.11,-418.66 867.34,-422.7"/>
</g>
<!-- course__MATH101&#45;&gt;course__PHYS111 -->
<g id="edge44" class="edge">
<title>course__MATH101&#45;&gt;course__PHYS111</title>
<path fill="none" stroke="#5d6972" stroke-width="1.2" d="M767.59,-196C840.77,-191.52 1036.11,-179.55 1135.74,-173.45"/>
<polygon fill="#5d6972" stroke="#5d6972" stroke-width="1.2" points="1135.91,-175.89 1142.75,-173.02 1135.61,-171 1135.91,-175.89"/>
</g>
<!-- course__STAT254 -->
<g id="node19" class="node">
<title>course__STAT254</title>
<g id="a_node19"><a xlink:href="../../../courses/STAT254.html" xlink:title="Equivalent or cross&#45;listed: STAT254: Probability and Statistics for Engineers | STAT260: Introduction to Probability and Statistics I" target="_top">
<path fill="#e6dde9" stroke="#7e8d96" d="M1237,-460.75C1237,-460.75 1157,-460.75 1157,-460.75 1151,-460.75 1145,-454.75 1145,-448.75 1145,-448.75 1145,-436.75 1145,-436.75 1145,-430.75 1151,-424.75 1157,-424.75 1157,-424.75 1237,-424.75 1237,-424.75 1243,-424.75 1249,-430.75 1249,-436.75 1249,-436.75 1249,-448.75 1249,-448.75 1249,-454.75 1243,-460.75 1237,-460.75"/>
<text text-anchor="middle" x="1197" y="-440.55" font-family="Avenir Next" font-size="9.00" fill="#41515b">STAT254 / STAT260</text>
</a>
</g>
</g>
<!-- course__MATH101&#45;&gt;course__STAT254 -->
<g id="edge46" class="edge">
<title>course__MATH101&#45;&gt;course__STAT254</title>
<path fill="none" stroke="#5d6972" stroke-width="1.2" d="M745.58,-215.77C759.75,-251.84 796.72,-332.87 856,-372.75 901.35,-403.27 1053.15,-425.69 1137.76,-436.16"/>
<polygon fill="#5d6972" stroke="#5d6972" stroke-width="1.2" points="1137.49,-438.59 1144.74,-437.01 1138.09,-433.73 1137.49,-438.59"/>
</g>
<!-- course__MATH101&#45;&gt;choice_EOS311_0_2 -->
<g id="edge29" class="edge">
<title>course__MATH101&#45;&gt;choice_EOS311_0_2</title>
<path fill="none" stroke="#7a8389" d="M759.71,-179.51C781.85,-161.17 818.83,-133.8 856,-120.75 939.18,-91.56 1209.71,-79.99 1304.68,-76.77"/>
<polygon fill="#7a8389" stroke="#7a8389" points="1304.82,-79.22 1311.74,-76.53 1304.66,-74.32 1304.82,-79.22"/>
</g>
<!-- course__BIOL230 -->
<g id="node14" class="node">
<title>course__BIOL230</title>
<g id="a_node14"><a xlink:href="../../../courses/BIOL230.html" xlink:title="BIOL230: Principles of Genetics" target="_top">
<path fill="#dbe8d2" stroke="#7e8d96" d="M1213,-586.75C1213,-586.75 1181,-586.75 1181,-586.75 1175,-586.75 1169,-580.75 1169,-574.75 1169,-574.75 1169,-562.75 1169,-562.75 1169,-556.75 1175,-550.75 1181,-550.75 1181,-550.75 1213,-550.75 1213,-550.75 1219,-550.75 1225,-556.75 1225,-562.75 1225,-562.75 1225,-574.75 1225,-574.75 1225,-580.75 1219,-586.75 1213,-586.75"/>
<text text-anchor="middle" x="1197" y="-566.55" font-family="Avenir Next" font-size="9.00" fill="#41515b">BIOL230</text>
</a>
</g>
</g>
<!-- course__BIOL225&#45;&gt;course__BIOL230 -->
<g id="edge10" class="edge">
<title>course__BIOL225&#45;&gt;course__BIOL230</title>
<path fill="none" stroke="#5d6972" stroke-width="1.2" d="M939.68,-604.01C991.65,-596.87 1104.97,-581.28 1161.91,-573.44"/>
<polygon fill="#5d6972" stroke="#5d6972" stroke-width="1.2" points="1162.3,-575.86 1168.9,-572.48 1161.63,-571.01 1162.3,-575.86"/>
</g>
<!-- choice_BIOL330_0_2 -->
<g id="node29" class="node">
<title>choice_BIOL330_0_2</title>
<path fill="#fff7ee" stroke="#b7793f" stroke-width="1.1" d="M1354,-629.75C1354,-629.75 1324,-629.75 1324,-629.75 1318,-629.75 1312,-623.75 1312,-617.75 1312,-617.75 1312,-605.75 1312,-605.75 1312,-599.75 1318,-593.75 1324,-593.75 1324,-593.75 1354,-593.75 1354,-593.75 1360,-593.75 1366,-599.75 1366,-605.75 1366,-605.75 1366,-617.75 1366,-617.75 1366,-623.75 1360,-629.75 1354,-629.75"/>
<text text-anchor="middle" x="1339" y="-609.55" font-family="Avenir Next" font-size="9.00">1 of</text>
</g>
<!-- course__BIOL225&#45;&gt;choice_BIOL330_0_2 -->
<g id="edge15" class="edge">
<title>course__BIOL225&#45;&gt;choice_BIOL330_0_2</title>
<path fill="none" stroke="#7a8389" d="M939.76,-608.01C1014.63,-608.71 1223.23,-610.68 1304.75,-611.44"/>
<polygon fill="#7a8389" stroke="#7a8389" points="1304.76,-613.89 1311.78,-611.51 1304.8,-608.99 1304.76,-613.89"/>
</g>
<!-- course__CHEM091 -->
<g id="node8" class="node">
<title>course__CHEM091</title>
<g id="a_node8"><a xlink:href="../../../courses/CHEM091.html" xlink:title="CHEM091: Introduction to Chemistry" target="_top">
<path fill="#ead9b8" stroke="#7e8d96" d="M930,-362.75C930,-362.75 893,-362.75 893,-362.75 887,-362.75 881,-356.75 881,-350.75 881,-350.75 881,-338.75 881,-338.75 881,-332.75 887,-326.75 893,-326.75 893,-326.75 930,-326.75 930,-326.75 936,-326.75 942,-332.75 942,-338.75 942,-338.75 942,-350.75 942,-350.75 942,-356.75 936,-362.75 930,-362.75"/>
<text text-anchor="middle" x="911.5" y="-342.55" font-family="Avenir Next" font-size="9.00" fill="#41515b">CHEM091</text>
</a>
</g>
</g>
<!-- course__CHEM091&#45;&gt;course__CHEM102 -->
<g id="edge24" class="edge">
<title>course__CHEM091&#45;&gt;course__CHEM102</title>
<path fill="none" stroke="#5d6972" stroke-width="1.2" d="M942.04,-343.5C994.13,-341.3 1102.17,-336.73 1159.09,-334.32"/>
<polygon fill="#5d6972" stroke="#5d6972" stroke-width="1.2" points="1159.21,-336.76 1166.1,-334.02 1159.01,-331.87 1159.21,-336.76"/>
</g>
<!-- course__CHEM231&#45;&gt;course__BIOL230 -->
<g id="edge11" class="edge">
<title>course__CHEM231&#45;&gt;course__BIOL230</title>
<path fill="none" stroke="#5d6972" stroke-width="1.2" d="M942.04,-543.67C994.83,-548.89 1105.12,-559.78 1161.38,-565.34"/>
<polygon fill="#5d6972" stroke="#5d6972" stroke-width="1.2" points="1161.42,-567.8 1168.62,-566.05 1161.9,-562.92 1161.42,-567.8"/>
</g>
<!-- course__MATH200&#45;&gt;course__STAT254 -->
<g id="edge45" class="edge">
<title>course__MATH200&#45;&gt;course__STAT254</title>
<path fill="none" stroke="#5d6972" stroke-width="1.2" d="M967.16,-442.75C1016.08,-442.75 1087.6,-442.75 1137.63,-442.75"/>
<polygon fill="#5d6972" stroke="#5d6972" stroke-width="1.2" points="1137.85,-445.2 1144.84,-442.75 1137.84,-440.3 1137.85,-445.2"/>
</g>
<!-- course__PHYS102A -->
<g id="node11" class="node">
<title>course__PHYS102A</title>
<g id="a_node11"><a xlink:href="../../../courses/PHYS102A.html" xlink:title="PHYS102A: General Physics I" target="_top">
<path fill="#efd8cf" stroke="#7e8d96" d="M931.5,-264.75C931.5,-264.75 891.5,-264.75 891.5,-264.75 885.5,-264.75 879.5,-258.75 879.5,-252.75 879.5,-252.75 879.5,-240.75 879.5,-240.75 879.5,-234.75 885.5,-228.75 891.5,-228.75 891.5,-228.75 931.5,-228.75 931.5,-228.75 937.5,-228.75 943.5,-234.75 943.5,-240.75 943.5,-240.75 943.5,-252.75 943.5,-252.75 943.5,-258.75 937.5,-264.75 931.5,-264.75"/>
<text text-anchor="middle" x="911.5" y="-244.55" font-family="Avenir Next" font-size="9.00" fill="#41515b">PHYS102A</text>
</a>
</g>
</g>
<!-- choice_PHYS102B_0 -->
<g id="node33" class="node">
<title>choice_PHYS102B_0</title>
<path fill="#fff7ee" stroke="#b7793f" stroke-width="1.1" d="M1070,-264.75C1070,-264.75 1040,-264.75 1040,-264.75 1034,-264.75 1028,-258.75 1028,-252.75 1028,-252.75 1028,-240.75 1028,-240.75 1028,-234.75 1034,-228.75 1040,-228.75 1040,-228.75 1070,-228.75 1070,-228.75 1076,-228.75 1082,-234.75 1082,-240.75 1082,-240.75 1082,-252.75 1082,-252.75 1082,-258.75 1076,-264.75 1070,-264.75"/>
<text text-anchor="middle" x="1055" y="-244.55" font-family="Avenir Next" font-size="9.00">1 of</text>
</g>
<!-- course__PHYS102A&#45;&gt;choice_PHYS102B_0 -->
<g id="edge38" class="edge">
<title>course__PHYS102A&#45;&gt;choice_PHYS102B_0</title>
<path fill="none" stroke="#7a8389" d="M943.55,-246.75C966.31,-246.75 997.17,-246.75 1020.48,-246.75"/>
<polygon fill="#7a8389" stroke="#7a8389" points="1020.77,-249.2 1027.77,-246.75 1020.77,-244.3 1020.77,-249.2"/>
</g>
<!-- course__PHYS110&#45;&gt;course__PHYS111 -->
<g id="edge42" class="edge">
<title>course__PHYS110&#45;&gt;course__PHYS111</title>
<path fill="none" stroke="#5d6972" stroke-width="1.2" d="M965.82,-152.7C1014.13,-156.28 1085.26,-161.55 1135.64,-165.28"/>
<polygon fill="#5d6972" stroke="#5d6972" stroke-width="1.2" points="1135.75,-167.75 1142.91,-165.82 1136.12,-162.86 1135.75,-167.75"/>
</g>
<!-- course__PHYS110&#45;&gt;choice_PHYS102B_0 -->
<g id="edge39" class="edge">
<title>course__PHYS110&#45;&gt;choice_PHYS102B_0</title>
<path fill="none" stroke="#7a8389" d="M938.78,-166.96C962.31,-183.25 996.88,-207.19 1022.01,-224.6"/>
<polygon fill="#7a8389" stroke="#7a8389" points="1020.71,-226.68 1027.86,-228.65 1023.5,-222.65 1020.71,-226.68"/>
</g>
<!-- course__BIOL215 -->
<g id="node13" class="node">
<title>course__BIOL215</title>
<g id="a_node13"><a xlink:href="../../../courses/BIOL215.html" xlink:title="BIOL215: Principles of Ecology" target="_top">
<path fill="#dbe8d2" stroke="#1b2730" stroke-width="1.6" d="M1213.5,-684.75C1213.5,-684.75 1180.5,-684.75 1180.5,-684.75 1174.5,-684.75 1168.5,-678.75 1168.5,-672.75 1168.5,-672.75 1168.5,-660.75 1168.5,-660.75 1168.5,-654.75 1174.5,-648.75 1180.5,-648.75 1180.5,-648.75 1213.5,-648.75 1213.5,-648.75 1219.5,-648.75 1225.5,-654.75 1225.5,-660.75 1225.5,-660.75 1225.5,-672.75 1225.5,-672.75 1225.5,-678.75 1219.5,-684.75 1213.5,-684.75"/>
<text text-anchor="middle" x="1197" y="-664.25" font-family="Avenir Next" font-size="10.00" fill="#17232b">BIOL215</text>
</a>
</g>
</g>
<!-- course__BIOL215&#45;&gt;choice_BIOL330_0_2 -->
<g id="edge14" class="edge">
<title>course__BIOL215&#45;&gt;choice_BIOL330_0_2</title>
<path fill="none" stroke="#7a8389" d="M1225.66,-655.89C1248.53,-646.9 1281.06,-634.12 1305.24,-624.63"/>
<polygon fill="#7a8389" stroke="#7a8389" points="1306.2,-626.88 1311.82,-622.04 1304.41,-622.32 1306.2,-626.88"/>
</g>
<!-- choice_BIOL446_0_0 -->
<g id="node30" class="node">
<title>choice_BIOL446_0_0</title>
<path fill="#fff7ee" stroke="#b7793f" stroke-width="1.1" d="M1634,-678.75C1634,-678.75 1604,-678.75 1604,-678.75 1598,-678.75 1592,-672.75 1592,-666.75 1592,-666.75 1592,-654.75 1592,-654.75 1592,-648.75 1598,-642.75 1604,-642.75 1604,-642.75 1634,-642.75 1634,-642.75 1640,-642.75 1646,-648.75 1646,-654.75 1646,-654.75 1646,-666.75 1646,-666.75 1646,-672.75 1640,-678.75 1634,-678.75"/>
<text text-anchor="middle" x="1619" y="-658.55" font-family="Avenir Next" font-size="9.00">1 of</text>
</g>
<!-- course__BIOL215&#45;&gt;choice_BIOL446_0_0 -->
<g id="edge19" class="edge">
<title>course__BIOL215&#45;&gt;choice_BIOL446_0_0</title>
<path fill="none" stroke="#7a8389" d="M1225.56,-666.36C1299.81,-665.3 1503.88,-662.38 1584.55,-661.23"/>
<polygon fill="#7a8389" stroke="#7a8389" points="1585,-663.68 1591.96,-661.13 1584.93,-658.78 1585,-663.68"/>
</g>
<!-- course__BIOL230&#45;&gt;choice_BIOL330_0_2 -->
<g id="edge16" class="edge">
<title>course__BIOL230&#45;&gt;choice_BIOL330_0_2</title>
<path fill="none" stroke="#7a8389" d="M1225.33,-577.15C1248.07,-584.13 1280.53,-594.1 1304.77,-601.55"/>
<polygon fill="#7a8389" stroke="#7a8389" points="1304.28,-603.96 1311.69,-603.67 1305.72,-599.28 1304.28,-603.96"/>
</g>
<!-- course__EOS311 -->
<g id="node22" class="node">
<title>course__EOS311</title>
<g id="a_node22"><a xlink:href="../../../courses/EOS311.html" xlink:title="Equivalent or cross&#45;listed: BIOL311: Biological Oceanography | EOS311: Biological Oceanography" target="_top">
<path fill="#d7e9ef" stroke="#1b2730" stroke-width="1.6" d="M1519,-289.75C1519,-289.75 1439,-289.75 1439,-289.75 1433,-289.75 1427,-283.75 1427,-277.75 1427,-277.75 1427,-265.75 1427,-265.75 1427,-259.75 1433,-253.75 1439,-253.75 1439,-253.75 1519,-253.75 1519,-253.75 1525,-253.75 1531,-259.75 1531,-265.75 1531,-265.75 1531,-277.75 1531,-277.75 1531,-283.75 1525,-289.75 1519,-289.75"/>
<text text-anchor="middle" x="1479" y="-269.25" font-family="Avenir Next" font-size="10.00" fill="#17232b">BIOL311 / EOS311</text>
</a>
</g>
</g>
<!-- course__CHEM102&#45;&gt;course__EOS311 -->
<g id="edge33" class="edge">
<title>course__CHEM102&#45;&gt;course__EOS311</title>
<path fill="none" stroke="#5d6972" stroke-width="1.2" d="M1227.7,-326.28C1273.28,-316.35 1361.33,-297.17 1419.9,-284.41"/>
<polygon fill="#5d6972" stroke="#5d6972" stroke-width="1.2" points="1420.57,-286.77 1426.89,-282.89 1419.53,-281.99 1420.57,-286.77"/>
</g>
<!-- course__MATH151 -->
<g id="node16" class="node">
<title>course__MATH151</title>
<g id="a_node16"><a xlink:href="../../../courses/MATH151.html" xlink:title="MATH151: Finite Mathematics" target="_top">
<path fill="#dfe3f4" stroke="#7e8d96" d="M1214.5,-68.75C1214.5,-68.75 1179.5,-68.75 1179.5,-68.75 1173.5,-68.75 1167.5,-62.75 1167.5,-56.75 1167.5,-56.75 1167.5,-44.75 1167.5,-44.75 1167.5,-38.75 1173.5,-32.75 1179.5,-32.75 1179.5,-32.75 1214.5,-32.75 1214.5,-32.75 1220.5,-32.75 1226.5,-38.75 1226.5,-44.75 1226.5,-44.75 1226.5,-56.75 1226.5,-56.75 1226.5,-62.75 1220.5,-68.75 1214.5,-68.75"/>
<text text-anchor="middle" x="1197" y="-48.55" font-family="Avenir Next" font-size="9.00" fill="#41515b">MATH151</text>
</a>
</g>
</g>
<!-- course__MATH151&#45;&gt;choice_EOS311_0_2 -->
<g id="edge30" class="edge">
<title>course__MATH151&#45;&gt;choice_EOS311_0_2</title>
<path fill="none" stroke="#7a8389" d="M1226.67,-55.87C1249.29,-59.91 1280.88,-65.55 1304.63,-69.8"/>
<polygon fill="#7a8389" stroke="#7a8389" points="1304.41,-72.24 1311.73,-71.06 1305.27,-67.42 1304.41,-72.24"/>
</g>
<!-- course__PHYS102B -->
<g id="node17" class="node">
<title>course__PHYS102B</title>
<g id="a_node17"><a xlink:href="../../../courses/PHYS102B.html" xlink:title="PHYS102B: General Physics II" target="_top">
<path fill="#efd8cf" stroke="#7e8d96" d="M1217,-264.75C1217,-264.75 1177,-264.75 1177,-264.75 1171,-264.75 1165,-258.75 1165,-252.75 1165,-252.75 1165,-240.75 1165,-240.75 1165,-234.75 1171,-228.75 1177,-228.75 1177,-228.75 1217,-228.75 1217,-228.75 1223,-228.75 1229,-234.75 1229,-240.75 1229,-240.75 1229,-252.75 1229,-252.75 1229,-258.75 1223,-264.75 1217,-264.75"/>
<text text-anchor="middle" x="1197" y="-244.55" font-family="Avenir Next" font-size="9.00" fill="#41515b">PHYS102B</text>
</a>
</g>
</g>
<!-- choice_EOS311_0_3 -->
<g id="node32" class="node">
<title>choice_EOS311_0_3</title>
<path fill="#fff7ee" stroke="#b7793f" stroke-width="1.1" d="M1354,-264.75C1354,-264.75 1324,-264.75 1324,-264.75 1318,-264.75 1312,-258.75 1312,-252.75 1312,-252.75 1312,-240.75 1312,-240.75 1312,-234.75 1318,-228.75 1324,-228.75 1324,-228.75 1354,-228.75 1354,-228.75 1360,-228.75 1366,-234.75 1366,-240.75 1366,-240.75 1366,-252.75 1366,-252.75 1366,-258.75 1360,-264.75 1354,-264.75"/>
<text text-anchor="middle" x="1339" y="-244.55" font-family="Avenir Next" font-size="9.00">1 of</text>
</g>
<!-- course__PHYS102B&#45;&gt;choice_EOS311_0_3 -->
<g id="edge31" class="edge">
<title>course__PHYS102B&#45;&gt;choice_EOS311_0_3</title>
<path fill="none" stroke="#7a8389" d="M1229.07,-246.75C1251.46,-246.75 1281.64,-246.75 1304.55,-246.75"/>
<polygon fill="#7a8389" stroke="#7a8389" points="1304.72,-249.2 1311.72,-246.75 1304.72,-244.3 1304.72,-249.2"/>
</g>
<!-- course__PHYS111&#45;&gt;choice_EOS311_0_3 -->
<g id="edge32" class="edge">
<title>course__PHYS111&#45;&gt;choice_EOS311_0_3</title>
<path fill="none" stroke="#7a8389" d="M1230.82,-187.81C1253.33,-200.19 1283.07,-216.54 1305.5,-228.88"/>
<polygon fill="#7a8389" stroke="#7a8389" points="1304.61,-231.18 1311.92,-232.41 1306.97,-226.89 1304.61,-231.18"/>
</g>
<!-- choice_BIOL330_0_0 -->
<g id="node28" class="node">
<title>choice_BIOL330_0_0</title>
<path fill="#fff7ee" stroke="#b7793f" stroke-width="1.1" d="M1354,-523.75C1354,-523.75 1324,-523.75 1324,-523.75 1318,-523.75 1312,-517.75 1312,-511.75 1312,-511.75 1312,-499.75 1312,-499.75 1312,-493.75 1318,-487.75 1324,-487.75 1324,-487.75 1354,-487.75 1354,-487.75 1360,-487.75 1366,-493.75 1366,-499.75 1366,-499.75 1366,-511.75 1366,-511.75 1366,-517.75 1360,-523.75 1354,-523.75"/>
<text text-anchor="middle" x="1339" y="-503.55" font-family="Avenir Next" font-size="9.00">1 of</text>
</g>
<!-- course__STAT254&#45;&gt;choice_BIOL330_0_0 -->
<g id="edge13" class="edge">
<title>course__STAT254&#45;&gt;choice_BIOL330_0_0</title>
<path fill="none" stroke="#7a8389" d="M1238.12,-460.81C1259.32,-470.35 1285.01,-481.91 1305.04,-490.92"/>
<polygon fill="#7a8389" stroke="#7a8389" points="1304.2,-493.23 1311.59,-493.87 1306.21,-488.76 1304.2,-493.23"/>
</g>
<!-- course__STAT255 -->
<g id="node20" class="node">
<title>course__STAT255</title>
<g id="a_node20"><a xlink:href="../../../courses/STAT255.html" xlink:title="STAT255: Statistics for Life Sciences I" target="_top">
<path fill="#e6dde9" stroke="#7e8d96" d="M1213,-523.75C1213,-523.75 1181,-523.75 1181,-523.75 1175,-523.75 1169,-517.75 1169,-511.75 1169,-511.75 1169,-499.75 1169,-499.75 1169,-493.75 1175,-487.75 1181,-487.75 1181,-487.75 1213,-487.75 1213,-487.75 1219,-487.75 1225,-493.75 1225,-499.75 1225,-499.75 1225,-511.75 1225,-511.75 1225,-517.75 1219,-523.75 1213,-523.75"/>
<text text-anchor="middle" x="1197" y="-503.55" font-family="Avenir Next" font-size="9.00" fill="#41515b">STAT255</text>
</a>
</g>
</g>
<!-- course__STAT255&#45;&gt;choice_BIOL330_0_0 -->
<g id="edge12" class="edge">
<title>course__STAT255&#45;&gt;choice_BIOL330_0_0</title>
<path fill="none" stroke="#7a8389" d="M1225.33,-505.75C1247.97,-505.75 1280.25,-505.75 1304.46,-505.75"/>
<polygon fill="#7a8389" stroke="#7a8389" points="1304.69,-508.2 1311.69,-505.75 1304.69,-503.3 1304.69,-508.2"/>
</g>
<!-- course__BIOL330 -->
<g id="node21" class="node">
<title>course__BIOL330</title>
<g id="a_node21"><a xlink:href="../../../courses/BIOL330.html" xlink:title="BIOL330: Study Design and Data Analysis" target="_top">
<path fill="#dbe8d2" stroke="#1b2730" stroke-width="1.6" d="M1495.5,-629.75C1495.5,-629.75 1462.5,-629.75 1462.5,-629.75 1456.5,-629.75 1450.5,-623.75 1450.5,-617.75 1450.5,-617.75 1450.5,-605.75 1450.5,-605.75 1450.5,-599.75 1456.5,-593.75 1462.5,-593.75 1462.5,-593.75 1495.5,-593.75 1495.5,-593.75 1501.5,-593.75 1507.5,-599.75 1507.5,-605.75 1507.5,-605.75 1507.5,-617.75 1507.5,-617.75 1507.5,-623.75 1501.5,-629.75 1495.5,-629.75"/>
<text text-anchor="middle" x="1479" y="-609.25" font-family="Avenir Next" font-size="10.00" fill="#17232b">BIOL330</text>
</a>
</g>
</g>
<!-- course__BIOL330&#45;&gt;choice_BIOL446_0_0 -->
<g id="edge21" class="edge">
<title>course__BIOL330&#45;&gt;choice_BIOL446_0_0</title>
<path fill="none" stroke="#7a8389" d="M1507.59,-621.55C1529.93,-629.48 1561.45,-640.68 1585.1,-649.07"/>
<polygon fill="#7a8389" stroke="#7a8389" points="1584.44,-651.44 1591.86,-651.47 1586.08,-646.82 1584.44,-651.44"/>
</g>
<!-- course__EOS311&#45;&gt;choice_BIOL446_0_0 -->
<g id="edge20" class="edge">
<title>course__EOS311&#45;&gt;choice_BIOL446_0_0</title>
<path fill="none" stroke="#7a8389" d="M1486.47,-289.99C1508.88,-353.17 1583.22,-562.71 1609.06,-635.54"/>
<polygon fill="#7a8389" stroke="#7a8389" points="1606.89,-636.78 1611.54,-642.55 1611.51,-635.14 1606.89,-636.78"/>
</g>
<!-- course__GEOG371 -->
<g id="node23" class="node">
<title>course__GEOG371</title>
<g id="a_node23"><a xlink:href="../../../courses/GEOG371.html" xlink:title="GEOG371: Water Resources Management" target="_top">
<path fill="#e7e2d8" stroke="#1b2730" stroke-width="1.6" d="M1498.5,-727.75C1498.5,-727.75 1459.5,-727.75 1459.5,-727.75 1453.5,-727.75 1447.5,-721.75 1447.5,-715.75 1447.5,-715.75 1447.5,-703.75 1447.5,-703.75 1447.5,-697.75 1453.5,-691.75 1459.5,-691.75 1459.5,-691.75 1498.5,-691.75 1498.5,-691.75 1504.5,-691.75 1510.5,-697.75 1510.5,-703.75 1510.5,-703.75 1510.5,-715.75 1510.5,-715.75 1510.5,-721.75 1504.5,-727.75 1498.5,-727.75"/>
<text text-anchor="middle" x="1479" y="-707.25" font-family="Avenir Next" font-size="10.00" fill="#17232b">GEOG371</text>
</a>
</g>
</g>
<!-- course__GEOG371&#45;&gt;choice_BIOL446_0_0 -->
<g id="edge22" class="edge">
<title>course__GEOG371&#45;&gt;choice_BIOL446_0_0</title>
<path fill="none" stroke="#7a8389" d="M1510.63,-698.88C1532.65,-691.06 1562.31,-680.53 1584.88,-672.51"/>
<polygon fill="#7a8389" stroke="#7a8389" points="1585.87,-674.76 1591.64,-670.11 1584.23,-670.15 1585.87,-674.76"/>
</g>
<!-- course__BIOL446 -->
<g id="node24" class="node">
<title>course__BIOL446</title>
<g id="a_node24"><a xlink:href="../../../courses/BIOL446.html" xlink:title="BIOL446: Advanced Aquatic Ecology" target="_top">
<path fill="#dbe8d2" stroke="#1f4f66" stroke-width="2" d="M1841,-727.75C1841,-727.75 1719,-727.75 1719,-727.75 1713,-727.75 1707,-721.75 1707,-715.75 1707,-715.75 1707,-703.75 1707,-703.75 1707,-697.75 1713,-691.75 1719,-691.75 1719,-691.75 1841,-691.75 1841,-691.75 1847,-691.75 1853,-697.75 1853,-703.75 1853,-703.75 1853,-715.75 1853,-715.75 1853,-721.75 1847,-727.75 1841,-727.75"/>
<text text-anchor="middle" x="1780" y="-712.75" font-family="Avenir Next" font-size="10.00" fill="#17232b">BIOL446</text>
<text text-anchor="middle" x="1780" y="-701.75" font-family="Avenir Next" font-size="10.00" fill="#17232b">Advanced Aquatic Ecology</text>
</a>
</g>
</g>
<!-- BIOL446_notes -->
<g id="node25" class="node">
<title>BIOL446_notes</title>
<polygon fill="#fff7ee" stroke="#b7793f" stroke-width="1.1" points="204,-781.75 0,-781.75 0,-735.75 210,-735.75 210,-775.75 204,-781.75"/>
<polyline fill="none" stroke="#b7793f" stroke-width="1.1" points="204,-781.75 204,-775.75 "/>
<polyline fill="none" stroke="#b7793f" stroke-width="1.1" points="210,-775.75 204,-775.75 "/>
<text text-anchor="start" x="13" y="-762.15" font-family="Avenir Next" font-size="12.00">Published notes</text>
<text text-anchor="start" x="13" y="-749.15" font-family="Avenir Next" font-size="12.00">minimum fourth&#45;year standing</text>
</g>
<!-- BIOL446_notes&#45;&gt;course__BIOL446 -->
<!-- choice_BIOL184_0_0&#45;&gt;course__BIOL184 -->
<g id="edge4" class="edge">
<title>choice_BIOL184_0_0&#45;&gt;course__BIOL184</title>
<path fill="none" stroke="#5d6972" stroke-width="1.2" d="M710.96,-620.33C636.25,-619.13 421.12,-615.66 337.15,-614.3"/>
<polygon fill="#5d6972" stroke="#5d6972" stroke-width="1.2" points="337.19,-611.86 330.15,-614.19 337.11,-616.75 337.19,-611.86"/>
</g>
<!-- choice_BIOL186_0_0&#45;&gt;course__BIOL186 -->
<g id="edge7" class="edge">
<title>choice_BIOL186_0_0&#45;&gt;course__BIOL186</title>
<path fill="none" stroke="#5d6972" stroke-width="1.2" d="M448.28,-662.75C471.12,-662.75 504.36,-662.75 529.28,-662.75"/>
<polygon fill="#5d6972" stroke="#5d6972" stroke-width="1.2" points="529.39,-665.2 536.39,-662.75 529.39,-660.3 529.39,-665.2"/>
</g>
<!-- choice_BIOL330_0_0&#45;&gt;course__BIOL330 -->
<g id="edge17" class="edge">
<title>choice_BIOL330_0_0&#45;&gt;course__BIOL330</title>
<path fill="none" stroke="#5d6972" stroke-width="1.2" d="M1363.72,-523.98C1387.12,-541.95 1422.96,-569.48 1448.26,-588.91"/>
<polygon fill="#5d6972" stroke="#5d6972" stroke-width="1.2" points="1447.08,-591.09 1454.12,-593.42 1450.07,-587.21 1447.08,-591.09"/>
</g>
<!-- choice_BIOL330_0_2&#45;&gt;course__BIOL330 -->
<g id="edge18" class="edge">
<title>choice_BIOL330_0_2&#45;&gt;course__BIOL330</title>
<path fill="none" stroke="#5d6972" stroke-width="1.2" d="M1366.28,-611.75C1388.11,-611.75 1419.34,-611.75 1443.24,-611.75"/>
<polygon fill="#5d6972" stroke="#5d6972" stroke-width="1.2" points="1443.4,-614.2 1450.4,-611.75 1443.4,-609.3 1443.4,-614.2"/>
</g>
<!-- choice_BIOL446_0_0&#45;&gt;course__BIOL446 -->
<g id="edge23" class="edge">
<title>choice_BIOL446_0_0&#45;&gt;course__BIOL446</title>
<path fill="none" stroke="#5d6972" stroke-width="1.2" d="M1646.26,-668.85C1664.56,-674.49 1689.83,-682.27 1713.42,-689.54"/>
<polygon fill="#5d6972" stroke="#5d6972" stroke-width="1.2" points="1712.93,-691.96 1720.34,-691.68 1714.38,-687.27 1712.93,-691.96"/>
</g>
<!-- choice_EOS311_0_2&#45;&gt;course__EOS311 -->
<g id="edge34" class="edge">
<title>choice_EOS311_0_2&#45;&gt;course__EOS311</title>
<path fill="none" stroke="#5d6972" stroke-width="1.2" d="M1352.74,-93.84C1377.69,-129.28 1433.02,-207.88 1461.04,-247.67"/>
<polygon fill="#5d6972" stroke="#5d6972" stroke-width="1.2" points="1459.26,-249.4 1465.3,-253.71 1463.27,-246.58 1459.26,-249.4"/>
</g>
<!-- choice_EOS311_0_3&#45;&gt;course__EOS311 -->
<g id="edge35" class="edge">
<title>choice_EOS311_0_3&#45;&gt;course__EOS311</title>
<path fill="none" stroke="#5d6972" stroke-width="1.2" d="M1366.28,-251.52C1381.4,-254.25 1401.03,-257.81 1419.61,-261.18"/>
<polygon fill="#5d6972" stroke="#5d6972" stroke-width="1.2" points="1419.62,-263.67 1426.94,-262.5 1420.49,-258.85 1419.62,-263.67"/>
</g>
<!-- choice_PHYS102B_0&#45;&gt;course__PHYS102B -->
<g id="edge40" class="edge">
<title>choice_PHYS102B_0&#45;&gt;course__PHYS102B</title>
<path fill="none" stroke="#5d6972" stroke-width="1.2" d="M1082,-246.75C1103.22,-246.75 1133.49,-246.75 1157.51,-246.75"/>
<polygon fill="#5d6972" stroke="#5d6972" stroke-width="1.2" points="1157.75,-249.2 1164.75,-246.75 1157.75,-244.3 1157.75,-249.2"/>
</g>
</g>
</svg>
