<?xml version="1.0" encoding="UTF-8" standalone="no"?>
<!DOCTYPE svg PUBLIC "-//W3C//DTD SVG 1.1//EN"
 "http://www.w3.org/Graphics/SVG/1.1/DTD/svg11.dtd">
<!-- Generated by graphviz version 2.43.0 (0)
 -->
<!-- Title: BIOL446 Pages: 1 -->
<svg width="1625pt" height="747pt"
 viewBox="0.00 0.00 1625.20 747.20" xmlns="http://www.w3.org/2000/svg" xmlns:xlink="http://www.w3.org/1999/xlink">
<g id="graph0" class="graph" transform="scale(1 1) rotate(0) translate(21.6 725.6)">
<title>BIOL446</title>
<!-- course__BIOL150A -->
<g id="node1" class="node">
<title>course__BIOL150A</title>
<g id="a_node1"><a xlink:href="../../../courses/BIOL150A.html" xlink:title="BIOL150A: Modern Biology" target="_top">
<path fill="#dbe8d2" stroke="#7e8d96" d="M50,-54C50,-54 12,-54 12,-54 6,-54 0,-48 0,-42 0,-42 0,-30 0,-30 0,-24 6,-18 12,-18 12,-18 50,-18 50,-18 56,-18 62,-24 62,-30 62,-30 62,-42 62,-42 62,-48 56,-54 50,-54"/>
<text text-anchor="middle" x="31" y="-33.8" font-family="Avenir Next" font-size="9.00" fill="#41515b">BIOL150A</text>
</a>
</g>
</g>
<!-- choice_BIOL184_0_0 -->
<g id="node25" class="node">
<title>choice_BIOL184_0_0</title>
<path fill="#fff7ee" stroke="#b7793f" stroke-width="1.1" d="M165,-127C165,-127 135,-127 135,-127 129,-127 123,-121 123,-115 123,-115 123,-103 123,-103 123,-97 129,-91 135,-91 135,-91 165,-91 165,-91 171,-91 177,-97 177,-103 177,-103 177,-115 177,-115 177,-121 171,-127 165,-127"/>
<text text-anchor="middle" x="150" y="-106.8" font-family="Avenir Next" font-size="9.00">1 of</text>
</g>
<!-- course__BIOL150A&#45;&gt;choice_BIOL184_0_0 -->
<g id="edge1" class="edge">
<title>course__BIOL150A&#45;&gt;choice_BIOL184_0_0</title>
<path fill="none" stroke="#7a8389" d="M60.92,-54.04C77.8,-64.57 99.13,-77.88 116.57,-88.77"/>
<polygon fill="#7a8389" stroke="#7a8389" points="115.57,-91.03 122.81,-92.66 118.16,-86.87 115.57,-91.03"/>
</g>
<!-- choice_BIOL186_0_0 -->
<g id="node26" class="node">
<title>choice_BIOL186_0_0</title>
<path fill="#fff7ee" stroke="#b7793f" stroke-width="1.1" d="M482,-36C482,-36 452,-36 452,-36 446,-36 440,-30 440,-24 440,-24 440,-12 440,-12 440,-6 446,0 452,0 452,0 482,0 482,0 488,0 494,-6 494,-12 494,-12 494,-24 494,-24 494,-30 488,-36 482,-36"/>
<text text-anchor="middle" x="467" y="-15.8" font-family="Avenir Next" font-size="9.00">1 of</text>
</g>
<!-- course__BIOL150A&#45;&gt;choice_BIOL186_0_0 -->
<g id="edge4" class="edge">
<title>course__BIOL150A&#45;&gt;choice_BIOL186_0_0</title>
<path fill="none" stroke="#7a8389" d="M62.17,-34.75C140.73,-31.49 351.15,-22.76 432.89,-19.37"/>
<polygon fill="#7a8389" stroke="#7a8389" points="433.04,-21.82 439.93,-19.08 432.84,-16.92 433.04,-21.82"/>
</g>
<!-- course__BIOL186 -->
<g id="node2" class="node">
<title>course__BIOL186</title>
<g id="a_node2"><a xlink:href="../../../courses/BIOL186.html" xlink:title="BIOL186: Physiology and Cell Biology" target="_top">
<path fill="#dbe8d2" stroke="#7e8d96" d="M47,-127C47,-127 15,-127 15,-127 9,-127 3,-121 3,-115 3,-115 3,-103 3,-103 3,-97 9,-91 15,-91 15,-91 47,-91 47,-91 53,-91 59,-97 59,-103 59,-103 59,-115 59,-115 59,-121 53,-127 47,-127"/>
<text text-anchor="middle" x="31" y="-106.8" font-family="Avenir Next" font-size="9.00" fill="#41515b">BIOL186</text>
</a>
</g>
</g>
<!-- course__BIOL225 -->
<g id="node7" class="node">
<title>course__BIOL225</title>
<g id="a_node7"><a xlink:href="../../../courses/BIOL225.html" xlink:title="BIOL225: Principles of Cell Biology" target="_top">
<path fill="#dbe8d2" stroke="#7e8d96" d="M656.5,-400C656.5,-400 624.5,-400 624.5,-400 618.5,-400 612.5,-394 612.5,-388 612.5,-388 612.5,-376 612.5,-376 612.5,-370 618.5,-364 624.5,-364 624.5,-364 656.5,-364 656.5,-364 662.5,-364 668.5,-370 668.5,-376 668.5,-376 668.5,-388 668.5,-388 668.5,-394 662.5,-400 656.5,-400"/>
<text text-anchor="middle" x="640.5" y="-379.8" font-family="Avenir Next" font-size="9.00" fill="#41515b">BIOL225</text>
</a>
</g>
</g>
<!-- course__BIOL186&#45;&gt;course__BIOL225 -->
<g id="edge7" class="edge">
<title>course__BIOL186&#45;&gt;course__BIOL225</title>
<path fill="none" stroke="#5d6972" stroke-width="1.2" d="M59.2,-122.92C120.92,-154.33 276.58,-232.52 410,-291 478.7,-321.12 560.73,-352.59 605.76,-369.48"/>
<polygon fill="#5d6972" stroke="#5d6972" stroke-width="1.2" points="604.98,-371.81 612.39,-371.97 606.69,-367.22 604.98,-371.81"/>
</g>
<!-- course__BIOL186&#45;&gt;choice_BIOL184_0_0 -->
<g id="edge2" class="edge">
<title>course__BIOL186&#45;&gt;choice_BIOL184_0_0</title>
<path fill="none" stroke="#7a8389" d="M59.14,-109C75.91,-109 97.57,-109 115.42,-109"/>
<polygon fill="#7a8389" stroke="#7a8389" points="115.82,-111.45 122.82,-109 115.82,-106.55 115.82,-111.45"/>
</g>
<!-- course__BIOL184 -->
<g id="node3" class="node">
<title>course__BIOL184</title>
<g id="a_node3"><a xlink:href="../../../courses/BIOL184.html" xlink:title="BIOL184: Evolution and Biodiversity" target="_top">
<path fill="#dbe8d2" stroke="#7e8d96" d="M309.5,-127C309.5,-127 277.5,-127 277.5,-127 271.5,-127 265.5,-121 265.5,-115 265.5,-115 265.5,-103 265.5,-103 265.5,-97 271.5,-91 277.5,-91 277.5,-91 309.5,-91 309.5,-91 315.5,-91 321.5,-97 321.5,-103 321.5,-103 321.5,-115 321.5,-115 321.5,-121 315.5,-127 309.5,-127"/>
<text text-anchor="middle" x="293.5" y="-106.8" font-family="Avenir Next" font-size="9.00" fill="#41515b">BIOL184</text>
</a>
</g>
</g>
<!-- course__BIOL184&#45;&gt;course__BIOL225 -->
<g id="edge8" class="edge">
<title>course__BIOL184&#45;&gt;course__BIOL225</title>
<path fill="none" stroke="#5d6972" stroke-width="1.2" d="M308.51,-127.44C329.05,-153.76 369.3,-202.8 410,-238 414.41,-241.81 579.97,-351.05 585,-354 591.68,-357.91 598.96,-361.86 605.96,-365.51"/>
<polygon fill="#5d6972" stroke="#5d6972" stroke-width="1.2" points="604.95,-367.74 612.29,-368.77 607.19,-363.39 604.95,-367.74"/>
</g>
<!-- course__BIOL184&#45;&gt;choice_BIOL186_0_0 -->
<g id="edge5" class="edge">
<title>course__BIOL184&#45;&gt;choice_BIOL186_0_0</title>
<path fill="none" stroke="#7a8389" d="M321.67,-94.58C352.05,-78.47 401.2,-52.39 433.56,-35.21"/>
<polygon fill="#7a8389" stroke="#7a8389" points="434.76,-37.35 439.8,-31.9 432.46,-33.02 434.76,-37.35"/>
</g>
<!-- course__MATH100 -->
<g id="node4" class="node">
<title>course__MATH100</title>
<g id="a_node4"><a xlink:href="../../../courses/MATH100.html" xlink:title="Equivalent or cross&#45;listed: MATH100: Calculus I | MATH102: Calculus for Students in the Social and Biological Sciences | MATH109: Introduction to Calculus" target="_top">
<path fill="#dfe3f4" stroke="#7e8d96" d="M337,-449C337,-449 250,-449 250,-449 244,-449 238,-443 238,-437 238,-437 238,-425 238,-425 238,-419 244,-413 250,-413 250,-413 337,-413 337,-413 343,-413 349,-419 349,-425 349,-425 349,-437 349,-437 349,-443 343,-449 337,-449"/>
<text text-anchor="middle" x="293.5" y="-433.8" font-family="Avenir Next" font-size="9.00" fill="#41515b">MATH100 / MATH102</text>
<text text-anchor="middle" x="293.5" y="-423.8" font-family="Avenir Next" font-size="9.00" fill="#41515b">MATH109</text>
</a>
</g>
</g>
<!-- course__MATH101 -->
<g id="node6" class="node">
<title>course__MATH101</title>
<g id="a_node6"><a xlink:href="../../../courses/MATH101.html" xlink:title="MATH101: Calculus II" target="_top">
<path fill="#dfe3f4" stroke="#7e8d96" d="M484.5,-599C484.5,-599 449.5,-599 449.5,-599 443.5,-599 437.5,-593 437.5,-587 437.5,-587 437.5,-575 437.5,-575 437.5,-569 443.5,-563 449.5,-563 449.5,-563 484.5,-563 484.5,-563 490.5,-563 496.5,-569 496.5,-575 496.5,-575 496.5,-587 496.5,-587 496.5,-593 490.5,-599 484.5,-599"/>
<text text-anchor="middle" x="467" y="-578.8" font-family="Avenir Next" font-size="9.00" fill="#41515b">MATH101</text>
</a>
</g>
</g>
<!-- course__MATH100&#45;&gt;course__MATH101 -->
<g id="edge35" class="edge">
<title>course__MATH100&#45;&gt;course__MATH101</title>
<path fill="none" stroke="#5d6972" stroke-width="1.2" d="M315.19,-449.09C346.35,-476.35 405.31,-527.92 439.56,-557.87"/>
<polygon fill="#5d6972" stroke="#5d6972" stroke-width="1.2" points="438.36,-560.08 445.24,-562.84 441.58,-556.39 438.36,-560.08"/>
</g>
<!-- course__PHYS110 -->
<g id="node12" class="node">
<title>course__PHYS110</title>
<g id="a_node12"><a xlink:href="../../../courses/PHYS110.html" xlink:title="Equivalent or cross&#45;listed: PHYS110: Introductory Physics I | PHYS120: Physics I" target="_top">
<path fill="#efd8cf" stroke="#7e8d96" d="M682.5,-344C682.5,-344 598.5,-344 598.5,-344 592.5,-344 586.5,-338 586.5,-332 586.5,-332 586.5,-320 586.5,-320 586.5,-314 592.5,-308 598.5,-308 598.5,-308 682.5,-308 682.5,-308 688.5,-308 694.5,-314 694.5,-320 694.5,-320 694.5,-332 694.5,-332 694.5,-338 688.5,-344 682.5,-344"/>
<text text-anchor="middle" x="640.5" y="-323.8" font-family="Avenir Next" font-size="9.00" fill="#41515b">PHYS110 / PHYS120</text>
</a>
</g>
</g>
<!-- course__MATH100&#45;&gt;course__PHYS110 -->
<g id="edge40" class="edge">
<title>course__MATH100&#45;&gt;course__PHYS110</title>
<path fill="none" stroke="#5d6972" stroke-width="1.2" d="M349.17,-414.36C411.86,-395.28 514.34,-364.09 579.28,-344.33"/>
<polygon fill="#5d6972" stroke="#5d6972" stroke-width="1.2" points="580.24,-346.6 586.22,-342.21 578.81,-341.91 580.24,-346.6"/>
</g>
<!-- course__CHEM102 -->
<g id="node15" class="node">
<title>course__CHEM102</title>
<g id="a_node15"><a xlink:href="../../../courses/CHEM102.html" xlink:title="CHEM102: Chemical Reactivity Fundamentals with Environmental Applications" target="_top">
<path fill="#ead9b8" stroke="#7e8d96" d="M944.5,-162C944.5,-162 907.5,-162 907.5,-162 901.5,-162 895.5,-156 895.5,-150 895.5,-150 895.5,-138 895.5,-138 895.5,-132 901.5,-126 907.5,-126 907.5,-126 944.5,-126 944.5,-126 950.5,-126 956.5,-132 956.5,-138 956.5,-138 956.5,-150 956.5,-150 956.5,-156 950.5,-162 944.5,-162"/>
<text text-anchor="middle" x="926" y="-141.8" font-family="Avenir Next" font-size="9.00" fill="#41515b">CHEM102</text>
</a>
</g>
</g>
<!-- course__MATH100&#45;&gt;course__CHEM102 -->
<g id="edge25" class="edge">
<title>course__MATH100&#45;&gt;course__CHEM102</title>
<path fill="none" stroke="#5d6972" stroke-width="1.2" d="M298.69,-412.78C309.73,-368.28 343.47,-252.55 410,-182 470.57,-117.77 499.38,-109.54 585,-88 693.87,-60.61 825.83,-103.47 888.53,-128.3"/>
<polygon fill="#5d6972" stroke="#5d6972" stroke-width="1.2" points="887.69,-130.61 895.1,-130.94 889.51,-126.06 887.69,-130.61"/>
</g>
<!-- course__PHYS111 -->
<g id="node18" class="node">
<title>course__PHYS111</title>
<g id="a_node18"><a xlink:href="../../../courses/PHYS111.html" xlink:title="Equivalent or cross&#45;listed: PHYS111: Introductory Physics II | PHYS130: Physics II" target="_top">
<path fill="#efd8cf" stroke="#7e8d96" d="M968,-354C968,-354 884,-354 884,-354 878,-354 872,-348 872,-342 872,-342 872,-330 872,-330 872,-324 878,-318 884,-318 884,-318 968,-318 968,-318 974,-318 980,-324 980,-330 980,-330 980,-342 980,-342 980,-348 974,-354 968,-354"/>
<text text-anchor="middle" x="926" y="-333.8" font-family="Avenir Next" font-size="9.00" fill="#41515b">PHYS111 / PHYS130</text>
</a>
</g>
</g>
<!-- course__MATH100&#45;&gt;course__PHYS111 -->
<g id="edge42" class="edge">
<title>course__MATH100&#45;&gt;course__PHYS111</title>
<path fill="none" stroke="#5d6972" stroke-width="1.2" d="M349.25,-432.61C427.02,-433.89 573.65,-432.57 696,-410 758.86,-398.41 828.36,-374.24 874.13,-356.67"/>
<polygon fill="#5d6972" stroke="#5d6972" stroke-width="1.2" points="875.06,-358.94 880.7,-354.13 873.29,-354.37 875.06,-358.94"/>
</g>
<!-- choice_EOS311_0_2 -->
<g id="node30" class="node">
<title>choice_EOS311_0_2</title>
<path fill="#fff7ee" stroke="#b7793f" stroke-width="1.1" d="M1083,-533C1083,-533 1053,-533 1053,-533 1047,-533 1041,-527 1041,-521 1041,-521 1041,-509 1041,-509 1041,-503 1047,-497 1053,-497 1053,-497 1083,-497 1083,-497 1089,-497 1095,-503 1095,-509 1095,-509 1095,-521 1095,-521 1095,-527 1089,-533 1083,-533"/>
<text text-anchor="middle" x="1068" y="-512.8" font-family="Avenir Next" font-size="9.00">2 of</text>
</g>
<!-- course__MATH100&#45;&gt;choice_EOS311_0_2 -->
<g id="edge27" class="edge">
<title>course__MATH100&#45;&gt;choice_EOS311_0_2</title>
<path fill="none" stroke="#7a8389" d="M349.13,-442.02C451.28,-462.01 678.38,-503.5 872,-518 928.5,-522.23 994.46,-519.65 1033.37,-517.35"/>
<polygon fill="#7a8389" stroke="#7a8389" points="1033.94,-519.77 1040.78,-516.9 1033.64,-514.88 1033.94,-519.77"/>
</g>
<!-- course__CHEM101 -->
<g id="node5" class="node">
<title>course__CHEM101</title>
<g id="a_node5"><a xlink:href="../../../courses/CHEM101.html" xlink:title="Equivalent or cross&#45;listed: CHEM101: Fundamentals of Chemistry from Atoms to Materials | CHEM150: Engineering Chemistry" target="_top">
<path fill="#ead9b8" stroke="#7e8d96" d="M512,-228C512,-228 422,-228 422,-228 416,-228 410,-222 410,-216 410,-216 410,-204 410,-204 410,-198 416,-192 422,-192 422,-192 512,-192 512,-192 518,-192 524,-198 524,-204 524,-204 524,-216 524,-216 524,-222 518,-228 512,-228"/>
<text text-anchor="middle" x="467" y="-207.8" font-family="Avenir Next" font-size="9.00" fill="#41515b">CHEM101 / CHEM150</text>
</a>
</g>
</g>
<!-- course__CHEM231 -->
<g id="node9" class="node">
<title>course__CHEM231</title>
<g id="a_node9"><a xlink:href="../../../courses/CHEM231.html" xlink:title="CHEM231: Introduction to Organic Chemistry" target="_top">
<path fill="#ead9b8" stroke="#7e8d96" d="M659,-288C659,-288 622,-288 622,-288 616,-288 610,-282 610,-276 610,-276 610,-264 610,-264 610,-258 616,-252 622,-252 622,-252 659,-252 659,-252 665,-252 671,-258 671,-264 671,-264 671,-276 671,-276 671,-282 665,-288 659,-288"/>
<text text-anchor="middle" x="640.5" y="-267.8" font-family="Avenir Next" font-size="9.00" fill="#41515b">CHEM231</text>
</a>
</g>
</g>
<!-- course__CHEM101&#45;&gt;course__CHEM231 -->
<g id="edge26" class="edge">
<title>course__CHEM101&#45;&gt;course__CHEM231</title>
<path fill="none" stroke="#5d6972" stroke-width="1.2" d="M519.46,-228C546.33,-237.4 578.59,-248.69 602.89,-257.19"/>
<polygon fill="#5d6972" stroke="#5d6972" stroke-width="1.2" points="602.11,-259.51 609.53,-259.51 603.73,-254.89 602.11,-259.51"/>
</g>
<!-- course__CHEM101&#45;&gt;course__CHEM102 -->
<g id="edge24" class="edge">
<title>course__CHEM101&#45;&gt;course__CHEM102</title>
<path fill="none" stroke="#5d6972" stroke-width="1.2" d="M524.07,-197.56C543.32,-193.53 565.05,-189.27 585,-186 694.7,-168 825.45,-153.9 888.04,-147.59"/>
<polygon fill="#5d6972" stroke="#5d6972" stroke-width="1.2" points="888.6,-150 895.33,-146.86 888.12,-145.12 888.6,-150"/>
</g>
<!-- course__MATH200 -->
<g id="node10" class="node">
<title>course__MATH200</title>
<g id="a_node10"><a xlink:href="../../../courses/MATH200.html" xlink:title="Equivalent or cross&#45;listed: MATH200: Calculus III | MATH202: Intermediate Calculus for CSC and EOS" target="_top">
<path fill="#dfe3f4" stroke="#7e8d96" d="M684,-651C684,-651 597,-651 597,-651 591,-651 585,-645 585,-639 585,-639 585,-627 585,-627 585,-621 591,-615 597,-615 597,-615 684,-615 684,-615 690,-615 696,-621 696,-627 696,-627 696,-639 696,-639 696,-645 690,-651 684,-651"/>
<text text-anchor="middle" x="640.5" y="-630.8" font-family="Avenir Next" font-size="9.00" fill="#41515b">MATH200 / MATH202</text>
</a>
</g>
</g>
<!-- course__MATH101&#45;&gt;course__MATH200 -->
<g id="edge36" class="edge">
<title>course__MATH101&#45;&gt;course__MATH200</title>
<path fill="none" stroke="#5d6972" stroke-width="1.2" d="M496.71,-589.7C518.77,-596.39 550.06,-605.88 577.72,-614.27"/>
<polygon fill="#5d6972" stroke="#5d6972" stroke-width="1.2" points="577.26,-616.69 584.67,-616.38 578.68,-612 577.26,-616.69"/>
</g>
<!-- course__MATH101&#45;&gt;course__PHYS111 -->
<g id="edge43" class="edge">
<title>course__MATH101&#45;&gt;course__PHYS111</title>
<path fill="none" stroke="#5d6972" stroke-width="1.2" d="M496.92,-573.92C558.34,-558.01 704.85,-515.38 811,-447 848.84,-422.63 884.69,-384.31 905.76,-359.68"/>
<polygon fill="#5d6972" stroke="#5d6972" stroke-width="1.2" points="907.88,-360.96 910.53,-354.03 904.14,-357.79 907.88,-360.96"/>
</g>
<!-- course__STAT254 -->
<g id="node19" class="node">
<title>course__STAT254</title>
<g id="a_node19"><a xlink:href="../../../courses/STAT254.html" xlink:title="Equivalent or cross&#45;listed: STAT254: Probability and Statistics for Engineers | STAT260: Introduction to Probability and Statistics I" target="_top">
<path fill="#e6dde9" stroke="#7e8d96" d="M966,-704C966,-704 886,-704 886,-704 880,-704 874,-698 874,-692 874,-692 874,-680 874,-680 874,-674 880,-668 886,-668 886,-668 966,-668 966,-668 972,-668 978,-674 978,-680 978,-680 978,-692 978,-692 978,-698 972,-704 966,-704"/>
<text text-anchor="middle" x="926" y="-683.8" font-family="Avenir Next" font-size="9.00" fill="#41515b">STAT254 / STAT260</text>
</a>
</g>
</g>
<!-- course__MATH101&#45;&gt;course__STAT254 -->
<g id="edge45" class="edge">
<title>course__MATH101&#45;&gt;course__STAT254</title>
<path fill="none" stroke="#5d6972" stroke-width="1.2" d="M487.31,-599.06C509.15,-618.23 546.68,-647.59 585,-661 679.33,-694 797.13,-694.35 866.41,-690.76"/>
<polygon fill="#5d6972" stroke="#5d6972" stroke-width="1.2" points="866.93,-693.18 873.79,-690.35 866.66,-688.29 866.93,-693.18"/>
</g>
<!-- course__MATH101&#45;&gt;choice_EOS311_0_2 -->
<g id="edge28" class="edge">
<title>course__MATH101&#45;&gt;choice_EOS311_0_2</title>
<path fill="none" stroke="#7a8389" d="M496.57,-583.28C575.12,-588.75 800.43,-599.1 980,-555 998.79,-550.39 1018.47,-541.7 1034.36,-533.6"/>
<polygon fill="#7a8389" stroke="#7a8389" points="1035.84,-535.59 1040.92,-530.18 1033.58,-531.24 1035.84,-535.59"/>
</g>
<!-- course__BIOL230 -->
<g id="node14" class="node">
<title>course__BIOL230</title>
<g id="a_node14"><a xlink:href="../../../courses/BIOL230.html" xlink:title="BIOL230: Principles of Genetics" target="_top">
<path fill="#dbe8d2" stroke="#7e8d96" d="M942,-298C942,-298 910,-298 910,-298 904,-298 898,-292 898,-286 898,-286 898,-274 898,-274 898,-268 904,-262 910,-262 910,-262 942,-262 942,-262 948,-262 954,-268 954,-274 954,-274 954,-286 954,-286 954,-292 948,-298 942,-298"/>
<text text-anchor="middle" x="926" y="-277.8" font-family="Avenir Next" font-size="9.00" fill="#41515b">BIOL230</text>
</a>
</g>
</g>
<!-- course__BIOL225&#45;&gt;course__BIOL230 -->
<g id="edge9" class="edge">
<title>course__BIOL225&#45;&gt;course__BIOL230</title>
<path fill="none" stroke="#5d6972" stroke-width="1.2" d="M668.68,-372.22C720.75,-353.49 834.43,-312.58 891.26,-292.14"/>
<polygon fill="#5d6972" stroke="#5d6972" stroke-width="1.2" points="892.14,-294.43 897.9,-289.75 890.48,-289.82 892.14,-294.43"/>
</g>
<!-- choice_BIOL330_0_2 -->
<g id="node28" class="node">
<title>choice_BIOL330_0_2</title>
<path fill="#fff7ee" stroke="#b7793f" stroke-width="1.1" d="M1083,-403C1083,-403 1053,-403 1053,-403 1047,-403 1041,-397 1041,-391 1041,-391 1041,-379 1041,-379 1041,-373 1047,-367 1053,-367 1053,-367 1083,-367 1083,-367 1089,-367 1095,-373 1095,-379 1095,-379 1095,-391 1095,-391 1095,-397 1089,-403 1083,-403"/>
<text text-anchor="middle" x="1068" y="-382.8" font-family="Avenir Next" font-size="9.00">1 of</text>
</g>
<!-- course__BIOL225&#45;&gt;choice_BIOL330_0_2 -->
<g id="edge14" class="edge">
<title>course__BIOL225&#45;&gt;choice_BIOL330_0_2</title>
<path fill="none" stroke="#7a8389" d="M668.76,-382.19C743.63,-382.72 952.23,-384.19 1033.75,-384.77"/>
<polygon fill="#7a8389" stroke="#7a8389" points="1033.76,-387.22 1040.78,-384.82 1033.8,-382.32 1033.76,-387.22"/>
</g>
<!-- course__CHEM091 -->
<g id="node8" class="node">
<title>course__CHEM091</title>
<g id="a_node8"><a xlink:href="../../../courses/CHEM091.html" xlink:title="CHEM091: Introduction to Chemistry" target="_top">
<path fill="#ead9b8" stroke="#7e8d96" d="M659,-134C659,-134 622,-134 622,-134 616,-134 610,-128 610,-122 610,-122 610,-110 610,-110 610,-104 616,-98 622,-98 622,-98 659,-98 659,-98 665,-98 671,-104 671,-110 671,-110 671,-122 671,-122 671,-128 665,-134 659,-134"/>
<text text-anchor="middle" x="640.5" y="-113.8" font-family="Avenir Next" font-size="9.00" fill="#41515b">CHEM091</text>
</a>
</g>
</g>
<!-- course__CHEM091&#45;&gt;course__CHEM102 -->
<g id="edge23" class="edge">
<title>course__CHEM091&#45;&gt;course__CHEM102</title>
<path fill="none" stroke="#5d6972" stroke-width="1.2" d="M671.04,-118.92C723.13,-124.06 831.17,-134.73 888.09,-140.35"/>
<polygon fill="#5d6972" stroke="#5d6972" stroke-width="1.2" points="887.9,-142.8 895.1,-141.05 888.38,-137.92 887.9,-142.8"/>
</g>
<!-- course__CHEM231&#45;&gt;course__BIOL230 -->
<g id="edge10" class="edge">
<title>course__CHEM231&#45;&gt;course__BIOL230</title>
<path fill="none" stroke="#5d6972" stroke-width="1.2" d="M671.04,-271.04C723.83,-272.9 834.12,-276.79 890.38,-278.78"/>
<polygon fill="#5d6972" stroke="#5d6972" stroke-width="1.2" points="890.54,-281.24 897.62,-279.03 890.71,-276.34 890.54,-281.24"/>
</g>
<!-- course__MATH200&#45;&gt;course__STAT254 -->
<g id="edge44" class="edge">
<title>course__MATH200&#45;&gt;course__STAT254</title>
<path fill="none" stroke="#5d6972" stroke-width="1.2" d="M696.16,-643.22C745.18,-652.38 816.89,-665.79 866.93,-675.14"/>
<polygon fill="#5d6972" stroke="#5d6972" stroke-width="1.2" points="866.51,-677.56 873.84,-676.44 867.41,-672.74 866.51,-677.56"/>
</g>
<!-- course__PHYS102A -->
<g id="node11" class="node">
<title>course__PHYS102A</title>
<g id="a_node11"><a xlink:href="../../../courses/PHYS102A.html" xlink:title="PHYS102A: General Physics I" target="_top">
<path fill="#efd8cf" stroke="#7e8d96" d="M660.5,-232C660.5,-232 620.5,-232 620.5,-232 614.5,-232 608.5,-226 608.5,-220 608.5,-220 608.5,-208 608.5,-208 608.5,-202 614.5,-196 620.5,-196 620.5,-196 660.5,-196 660.5,-196 666.5,-196 672.5,-202 672.5,-208 672.5,-208 672.5,-220 672.5,-220 672.5,-226 666.5,-232 660.5,-232"/>
<text text-anchor="middle" x="640.5" y="-211.8" font-family="Avenir Next" font-size="9.00" fill="#41515b">PHYS102A</text>
</a>
</g>
</g>
<!-- choice_PHYS102B_0 -->
<g id="node32" class="node">
<title>choice_PHYS102B_0</title>
<path fill="#fff7ee" stroke="#b7793f" stroke-width="1.1" d="M799,-232C799,-232 769,-232 769,-232 763,-232 757,-226 757,-220 757,-220 757,-208 757,-208 757,-202 763,-196 769,-196 769,-196 799,-196 799,-196 805,-196 811,-202 811,-208 811,-208 811,-220 811,-220 811,-226 805,-232 799,-232"/>
<text text-anchor="middle" x="784" y="-211.8" font-family="Avenir Next" font-size="9.00">1 of</text>
</g>
<!-- course__PHYS102A&#45;&gt;choice_PHYS102B_0 -->
<g id="edge37" class="edge">
<title>course__PHYS102A&#45;&gt;choice_PHYS102B_0</title>
<path fill="none" stroke="#7a8389" d="M672.55,-214C695.31,-214 726.17,-214 749.48,-214"/>
<polygon fill="#7a8389" stroke="#7a8389" points="749.77,-216.45 756.77,-214 749.77,-211.55 749.77,-216.45"/>
</g>
<!-- course__PHYS110&#45;&gt;course__PHYS111 -->
<g id="edge41" class="edge">
<title>course__PHYS110&#45;&gt;course__PHYS111</title>
<path fill="none" stroke="#5d6972" stroke-width="1.2" d="M694.82,-327.88C743.13,-329.58 814.26,-332.09 864.64,-333.87"/>
<polygon fill="#5d6972" stroke="#5d6972" stroke-width="1.2" points="864.83,-336.33 871.91,-334.13 865.01,-331.43 864.83,-336.33"/>
</g>
<!-- course__PHYS110&#45;&gt;choice_PHYS102B_0 -->
<g id="edge38" class="edge">
<title>course__PHYS110&#45;&gt;choice_PHYS102B_0</title>
<path fill="none" stroke="#7a8389" d="M680.16,-307.94C685.63,-304.87 691.07,-301.53 696,-298 720.76,-280.28 745.38,-255.69 762.08,-237.69"/>
<polygon fill="#7a8389" stroke="#7a8389" points="764.07,-239.14 767,-232.33 760.46,-235.83 764.07,-239.14"/>
</g>
<!-- course__BIOL215 -->
<g id="node13" class="node">
<title>course__BIOL215</title>
<g id="a_node13"><a xlink:href="../../../courses/BIOL215.html" xlink:title="BIOL215: Principles of Ecology" target="_top">
<path fill="#dbe8d2" stroke="#1b2730" stroke-width="1.6" d="M942.5,-452C942.5,-452 909.5,-452 909.5,-452 903.5,-452 897.5,-446 897.5,-440 897.5,-440 897.5,-428 897.5,-428 897.5,-422 903.5,-416 909.5,-416 909.5,-416 942.5,-416 942.5,-416 948.5,-416 954.5,-422 954.5,-428 954.5,-428 954.5,-440 954.5,-440 954.5,-446 948.5,-452 942.5,-452"/>
<text text-anchor="middle" x="926" y="-431.5" font-family="Avenir Next" font-size="10.00" fill="#17232b">BIOL215</text>
</a>
</g>
</g>
<!-- course__BIOL215&#45;&gt;choice_BIOL330_0_2 -->
<g id="edge13" class="edge">
<title>course__BIOL215&#45;&gt;choice_BIOL330_0_2</title>
<path fill="none" stroke="#7a8389" d="M954.66,-424.32C977.43,-416.35 1009.78,-405.03 1033.93,-396.58"/>
<polygon fill="#7a8389" stroke="#7a8389" points="1035.02,-398.79 1040.82,-394.16 1033.4,-394.16 1035.02,-398.79"/>
</g>
<!-- choice_BIOL446_0_0 -->
<g id="node29" class="node">
<title>choice_BIOL446_0_0</title>
<path fill="#fff7ee" stroke="#b7793f" stroke-width="1.1" d="M1363,-427C1363,-427 1333,-427 1333,-427 1327,-427 1321,-421 1321,-415 1321,-415 1321,-403 1321,-403 1321,-397 1327,-391 1333,-391 1333,-391 1363,-391 1363,-391 1369,-391 1375,-397 1375,-403 1375,-403 1375,-415 1375,-415 1375,-421 1369,-427 1363,-427"/>
<text text-anchor="middle" x="1348" y="-406.8" font-family="Avenir Next" font-size="9.00">1 of</text>
</g>
<!-- course__BIOL215&#45;&gt;choice_BIOL446_0_0 -->
<g id="edge18" class="edge">
<title>course__BIOL215&#45;&gt;choice_BIOL446_0_0</title>
<path fill="none" stroke="#7a8389" d="M954.56,-432.36C1028.81,-427.94 1232.88,-415.79 1313.55,-410.99"/>
<polygon fill="#7a8389" stroke="#7a8389" points="1314.12,-413.41 1320.96,-410.55 1313.83,-408.52 1314.12,-413.41"/>
</g>
<!-- course__BIOL230&#45;&gt;choice_BIOL330_0_2 -->
<g id="edge15" class="edge">
<title>course__BIOL230&#45;&gt;choice_BIOL330_0_2</title>
<path fill="none" stroke="#7a8389" d="M954.15,-292.76C962.67,-297.18 971.96,-302.43 980,-308 1003.1,-323.98 1026.81,-345.36 1043.63,-361.54"/>
<polygon fill="#7a8389" stroke="#7a8389" points="1042.34,-363.69 1049.07,-366.81 1045.75,-360.17 1042.34,-363.69"/>
</g>
<!-- course__EOS311 -->
<g id="node22" class="node">
<title>course__EOS311</title>
<g id="a_node22"><a xlink:href="../../../courses/EOS311.html" xlink:title="Equivalent or cross&#45;listed: BIOL311: Biological Oceanography | EOS311: Biological Oceanography" target="_top">
<path fill="#d7e9ef" stroke="#1b2730" stroke-width="1.6" d="M1248,-403C1248,-403 1168,-403 1168,-403 1162,-403 1156,-397 1156,-391 1156,-391 1156,-379 1156,-379 1156,-373 1162,-367 1168,-367 1168,-367 1248,-367 1248,-367 1254,-367 1260,-373 1260,-379 1260,-379 1260,-391 1260,-391 1260,-397 1254,-403 1248,-403"/>
<text text-anchor="middle" x="1208" y="-382.5" font-family="Avenir Next" font-size="10.00" fill="#17232b">BIOL311 / EOS311</text>
</a>
</g>
</g>
<!-- course__CHEM102&#45;&gt;course__EOS311 -->
<g id="edge32" class="edge">
<title>course__CHEM102&#45;&gt;course__EOS311</title>
<path fill="none" stroke="#5d6972" stroke-width="1.2" d="M946.65,-162.13C956.64,-171.36 968.98,-182.77 980,-193 984.9,-197.55 1150.59,-353.08 1156,-357 1158.87,-359.07 1161.9,-361.1 1165.01,-363.06"/>
<polygon fill="#5d6972" stroke="#5d6972" stroke-width="1.2" points="1164.2,-365.44 1171.46,-366.98 1166.75,-361.25 1164.2,-365.44"/>
</g>
<!-- course__MATH151 -->
<g id="node16" class="node">
<title>course__MATH151</title>
<g id="a_node16"><a xlink:href="../../../courses/MATH151.html" xlink:title="MATH151: Finite Mathematics" target="_top">
<path fill="#dfe3f4" stroke="#7e8d96" d="M943.5,-508C943.5,-508 908.5,-508 908.5,-508 902.5,-508 896.5,-502 896.5,-496 896.5,-496 896.5,-484 896.5,-484 896.5,-478 902.5,-472 908.5,-472 908.5,-472 943.5,-472 943.5,-472 949.5,-472 955.5,-478 955.5,-484 955.5,-484 955.5,-496 955.5,-496 955.5,-502 949.5,-508 943.5,-508"/>
<text text-anchor="middle" x="926" y="-487.8" font-family="Avenir Next" font-size="9.00" fill="#41515b">MATH151</text>
</a>
</g>
</g>
<!-- course__MATH151&#45;&gt;choice_EOS311_0_2 -->
<g id="edge29" class="edge">
<title>course__MATH151&#45;&gt;choice_EOS311_0_2</title>
<path fill="none" stroke="#7a8389" d="M955.67,-495.12C978.29,-499.16 1009.88,-504.8 1033.63,-509.04"/>
<polygon fill="#7a8389" stroke="#7a8389" points="1033.41,-511.49 1040.73,-510.31 1034.27,-506.67 1033.41,-511.49"/>
</g>
<!-- course__PHYS102B -->
<g id="node17" class="node">
<title>course__PHYS102B</title>
<g id="a_node17"><a xlink:href="../../../courses/PHYS102B.html" xlink:title="PHYS102B: General Physics II" target="_top">
<path fill="#efd8cf" stroke="#7e8d96" d="M946,-239C946,-239 906,-239 906,-239 900,-239 894,-233 894,-227 894,-227 894,-215 894,-215 894,-209 900,-203 906,-203 906,-203 946,-203 946,-203 952,-203 958,-209 958,-215 958,-215 958,-227 958,-227 958,-233 952,-239 946,-239"/>
<text text-anchor="middle" x="926" y="-218.8" font-family="Avenir Next" font-size="9.00" fill="#41515b">PHYS102B</text>
</a>
</g>
</g>
<!-- choice_EOS311_0_3 -->
<g id="node31" class="node">
<title>choice_EOS311_0_3</title>
<path fill="#fff7ee" stroke="#b7793f" stroke-width="1.1" d="M1083,-347C1083,-347 1053,-347 1053,-347 1047,-347 1041,-341 1041,-335 1041,-335 1041,-323 1041,-323 1041,-317 1047,-311 1053,-311 1053,-311 1083,-311 1083,-311 1089,-311 1095,-317 1095,-323 1095,-323 1095,-335 1095,-335 1095,-341 1089,-347 1083,-347"/>
<text text-anchor="middle" x="1068" y="-326.8" font-family="Avenir Next" font-size="9.00">1 of</text>
</g>
<!-- course__PHYS102B&#45;&gt;choice_EOS311_0_3 -->
<g id="edge30" class="edge">
<title>course__PHYS102B&#45;&gt;choice_EOS311_0_3</title>
<path fill="none" stroke="#7a8389" d="M958.19,-237.88C965.52,-242.22 973.18,-247.06 980,-252 1002.6,-268.37 1026.19,-289.54 1043.09,-305.53"/>
<polygon fill="#7a8389" stroke="#7a8389" points="1041.8,-307.69 1048.55,-310.75 1045.18,-304.14 1041.8,-307.69"/>
</g>
<!-- course__PHYS111&#45;&gt;choice_EOS311_0_3 -->
<g id="edge31" class="edge">
<title>course__PHYS111&#45;&gt;choice_EOS311_0_3</title>
<path fill="none" stroke="#7a8389" d="M980.33,-333.33C998.29,-332.44 1017.8,-331.46 1033.76,-330.66"/>
<polygon fill="#7a8389" stroke="#7a8389" points="1033.95,-333.11 1040.82,-330.31 1033.7,-328.21 1033.95,-333.11"/>
</g>
<!-- choice_BIOL330_0_0 -->
<g id="node27" class="node">
<title>choice_BIOL330_0_0</title>
<path fill="#fff7ee" stroke="#b7793f" stroke-width="1.1" d="M1083,-648C1083,-648 1053,-648 1053,-648 1047,-648 1041,-642 1041,-636 1041,-636 1041,-624 1041,-624 1041,-618 1047,-612 1053,-612 1053,-612 1083,-612 1083,-612 1089,-612 1095,-618 1095,-624 1095,-624 1095,-636 1095,-636 1095,-642 1089,-648 1083,-648"/>
<text text-anchor="middle" x="1068" y="-627.8" font-family="Avenir Next" font-size="9.00">1 of</text>
</g>
<!-- course__STAT254&#45;&gt;choice_BIOL330_0_0 -->
<g id="edge12" class="edge">
<title>course__STAT254&#45;&gt;choice_BIOL330_0_0</title>
<path fill="none" stroke="#7a8389" d="M972.07,-667.97C992.29,-659.89 1015.7,-650.52 1034.21,-643.12"/>
<polygon fill="#7a8389" stroke="#7a8389" points="1035.21,-645.36 1040.8,-640.48 1033.39,-640.81 1035.21,-645.36"/>
</g>
<!-- course__STAT255 -->
<g id="node20" class="node">
<title>course__STAT255</title>
<g id="a_node20"><a xlink:href="../../../courses/STAT255.html" xlink:title="STAT255: Statistics for Life Sciences I" target="_top">
<path fill="#e6dde9" stroke="#7e8d96" d="M942,-648C942,-648 910,-648 910,-648 904,-648 898,-642 898,-636 898,-636 898,-624 898,-624 898,-618 904,-612 910,-612 910,-612 942,-612 942,-612 948,-612 954,-618 954,-624 954,-624 954,-636 954,-636 954,-642 948,-648 942,-648"/>
<text text-anchor="middle" x="926" y="-627.8" font-family="Avenir Next" font-size="9.00" fill="#41515b">STAT255</text>
</a>
</g>
</g>
<!-- course__STAT255&#45;&gt;choice_BIOL330_0_0 -->
<g id="edge11" class="edge">
<title>course__STAT255&#45;&gt;choice_BIOL330_0_0</title>
<path fill="none" stroke="#7a8389" d="M954.33,-630C976.97,-630 1009.25,-630 1033.46,-630"/>
<polygon fill="#7a8389" stroke="#7a8389" points="1033.69,-632.45 1040.69,-630 1033.69,-627.55 1033.69,-632.45"/>
</g>
<!-- course__BIOL330 -->
<g id="node21" class="node">
<title>course__BIOL330</title>
<g id="a_node21"><a xlink:href="../../../courses/BIOL330.html" xlink:title="BIOL330: Study Design and Data Analysis" target="_top">
<path fill="#dbe8d2" stroke="#1b2730" stroke-width="1.6" d="M1224.5,-501C1224.5,-501 1191.5,-501 1191.5,-501 1185.5,-501 1179.5,-495 1179.5,-489 1179.5,-489 1179.5,-477 1179.5,-477 1179.5,-471 1185.5,-465 1191.5,-465 1191.5,-465 1224.5,-465 1224.5,-465 1230.5,-465 1236.5,-471 1236.5,-477 1236.5,-477 1236.5,-489 1236.5,-489 1236.5,-495 1230.5,-501 1224.5,-501"/>
<text text-anchor="middle" x="1208" y="-480.5" font-family="Avenir Next" font-size="10.00" fill="#17232b">BIOL330</text>
</a>
</g>
</g>
<!-- course__BIOL330&#45;&gt;choice_BIOL446_0_0 -->
<g id="edge20" class="edge">
<title>course__BIOL330&#45;&gt;choice_BIOL446_0_0</title>
<path fill="none" stroke="#7a8389" d="M1236.59,-468.2C1259.03,-456.17 1290.72,-439.18 1314.4,-426.48"/>
<polygon fill="#7a8389" stroke="#7a8389" points="1315.84,-428.49 1320.86,-423.02 1313.53,-424.17 1315.84,-428.49"/>
</g>
<!-- course__EOS311&#45;&gt;choice_BIOL446_0_0 -->
<g id="edge19" class="edge">
<title>course__EOS311&#45;&gt;choice_BIOL446_0_0</title>
<path fill="none" stroke="#7a8389" d="M1260.39,-393.94C1278.2,-397.03 1297.68,-400.42 1313.66,-403.2"/>
<polygon fill="#7a8389" stroke="#7a8389" points="1313.41,-405.65 1320.73,-404.43 1314.25,-400.82 1313.41,-405.65"/>
</g>
<!-- course__GEOG371 -->
<g id="node23" class="node">
<title>course__GEOG371</title>
<g id="a_node23"><a xlink:href="../../../courses/GEOG371.html" xlink:title="GEOG371: Water Resources Management" target="_top">
<path fill="#e7e2d8" stroke="#1b2730" stroke-width="1.6" d="M1227.5,-347C1227.5,-347 1188.5,-347 1188.5,-347 1182.5,-347 1176.5,-341 1176.5,-335 1176.5,-335 1176.5,-323 1176.5,-323 1176.5,-317 1182.5,-311 1188.5,-311 1188.5,-311 1227.5,-311 1227.5,-311 1233.5,-311 1239.5,-317 1239.5,-323 1239.5,-323 1239.5,-335 1239.5,-335 1239.5,-341 1233.5,-347 1227.5,-347"/>
<text text-anchor="middle" x="1208" y="-326.5" font-family="Avenir Next" font-size="10.00" fill="#17232b">GEOG371</text>
</a>
</g>
</g>
<!-- course__GEOG371&#45;&gt;choice_BIOL446_0_0 -->
<g id="edge21" class="edge">
<title>course__GEOG371&#45;&gt;choice_BIOL446_0_0</title>
<path fill="none" stroke="#7a8389" d="M1239.58,-345.55C1246.33,-349.27 1253.43,-353.23 1260,-357 1278.2,-367.43 1298.3,-379.42 1314.6,-389.25"/>
<polygon fill="#7a8389" stroke="#7a8389" points="1313.62,-391.52 1320.88,-393.05 1316.16,-387.33 1313.62,-391.52"/>
</g>
<!-- course__BIOL446 -->
<g id="node24" class="node">
<title>course__BIOL446</title>
<g id="a_node24"><a xlink:href="../../../courses/BIOL446.html" xlink:title="BIOL446: Advanced Aquatic Ecology" target="_top">
<path fill="#dbe8d2" stroke="#1f4f66" stroke-width="2" d="M1570,-427C1570,-427 1448,-427 1448,-427 1442,-427 1436,-421 1436,-415 1436,-415 1436,-403 1436,-403 1436,-397 1442,-391 1448,-391 1448,-391 1570,-391 1570,-391 1576,-391 1582,-397 1582,-403 1582,-403 1582,-415 1582,-415 1582,-421 1576,-427 1570,-427"/>
<text text-anchor="middle" x="1509" y="-412" font-family="Avenir Next" font-size="10.00" fill="#17232b">BIOL446</text>
<text text-anchor="middle" x="1509" y="-401" font-family="Avenir Next" font-size="10.00" fill="#17232b">Advanced Aquatic Ecology</text>
</a>
</g>
</g>
<!-- choice_BIOL184_0_0&#45;&gt;course__BIOL184 -->
<g id="edge3" class="edge">
<title>choice_BIOL184_0_0&#45;&gt;course__BIOL184</title>
<path fill="none" stroke="#5d6972" stroke-width="1.2" d="M177.28,-109C200.12,-109 233.36,-109 258.28,-109"/>
<polygon fill="#5d6972" stroke="#5d6972" stroke-width="1.2" points="258.39,-111.45 265.39,-109 258.39,-106.55 258.39,-111.45"/>
</g>
<!-- choice_BIOL186_0_0&#45;&gt;course__BIOL186 -->
<g id="edge6" class="edge">
<title>choice_BIOL186_0_0&#45;&gt;course__BIOL186</title>
<path fill="none" stroke="#5d6972" stroke-width="1.2" d="M439.54,-23.35C415.85,-28.11 380.13,-35.19 349,-41 248.73,-59.73 222.16,-57.07 123,-81 104.02,-85.58 83.18,-91.9 66.24,-97.37"/>
<polygon fill="#5d6972" stroke="#5d6972" stroke-width="1.2" points="65.13,-95.16 59.23,-99.66 66.65,-99.81 65.13,-95.16"/>
</g>
<!-- choice_BIOL330_0_0&#45;&gt;course__BIOL330 -->
<g id="edge16" class="edge">
<title>choice_BIOL330_0_0&#45;&gt;course__BIOL330</title>
<path fill="none" stroke="#5d6972" stroke-width="1.2" d="M1085.92,-611.97C1110.86,-585.41 1157.48,-535.75 1185.03,-506.4"/>
<polygon fill="#5d6972" stroke="#5d6972" stroke-width="1.2" points="1186.94,-507.95 1189.94,-501.17 1183.36,-504.6 1186.94,-507.95"/>
</g>
<!-- choice_BIOL330_0_2&#45;&gt;course__BIOL330 -->
<g id="edge17" class="edge">
<title>choice_BIOL330_0_2&#45;&gt;course__BIOL330</title>
<path fill="none" stroke="#5d6972" stroke-width="1.2" d="M1094.63,-403.2C1117.48,-419.43 1151.01,-443.24 1175.49,-460.62"/>
<polygon fill="#5d6972" stroke="#5d6972" stroke-width="1.2" points="1174.38,-462.84 1181.5,-464.89 1177.22,-458.84 1174.38,-462.84"/>
</g>
<!-- choice_BIOL446_0_0&#45;&gt;course__BIOL446 -->
<g id="edge22" class="edge">
<title>choice_BIOL446_0_0&#45;&gt;course__BIOL446</title>
<path fill="none" stroke="#5d6972" stroke-width="1.2" d="M1375.26,-409C1390.02,-409 1409.33,-409 1428.63,-409"/>
<polygon fill="#5d6972" stroke="#5d6972" stroke-width="1.2" points="1428.73,-411.45 1435.73,-409 1428.73,-406.55 1428.73,-411.45"/>
</g>
<!-- choice_EOS311_0_2&#45;&gt;course__EOS311 -->
<g id="edge33" class="edge">
<title>choice_EOS311_0_2&#45;&gt;course__EOS311</title>
<path fill="none" stroke="#5d6972" stroke-width="1.2" d="M1088.19,-496.92C1112.77,-473.77 1155.4,-433.61 1182.36,-408.21"/>
<polygon fill="#5d6972" stroke="#5d6972" stroke-width="1.2" points="1184.11,-409.92 1187.53,-403.34 1180.75,-406.36 1184.11,-409.92"/>
</g>
<!-- choice_EOS311_0_3&#45;&gt;course__EOS311 -->
<g id="edge34" class="edge">
<title>choice_EOS311_0_3&#45;&gt;course__EOS311</title>
<path fill="none" stroke="#5d6972" stroke-width="1.2" d="M1095.28,-339.66C1112.43,-346.62 1135.38,-355.94 1156.02,-364.31"/>
<polygon fill="#5d6972" stroke="#5d6972" stroke-width="1.2" points="1155.22,-366.63 1162.63,-366.99 1157.06,-362.09 1155.22,-366.63"/>
</g>
<!-- choice_PHYS102B_0&#45;&gt;course__PHYS102B -->
<g id="edge39" class="edge">
<title>choice_PHYS102B_0&#45;&gt;course__PHYS102B</title>
<path fill="none" stroke="#5d6972" stroke-width="1.2" d="M811,-215.3C832.22,-216.36 862.49,-217.87 886.51,-219.08"/>
<polygon fill="#5d6972" stroke="#5d6972" stroke-width="1.2" points="886.64,-221.53 893.75,-219.44 886.88,-216.64 886.64,-221.53"/>
</g>
</g>
</svg>
