<?xml version="1.0" encoding="UTF-8" standalone="no"?>
<!DOCTYPE svg PUBLIC "-//W3C//DTD SVG 1.1//EN"
 "http://www.w3.org/Graphics/SVG/1.1/DTD/svg11.dtd">
<!-- Generated by graphviz version 2.43.0 (0)
 -->
<!-- Title: BIOL225 Pages: 1 -->
<svg width="1411pt" height="416pt"
 viewBox="0.00 0.00 1411.20 415.78" xmlns="http://www.w3.org/2000/svg" xmlns:xlink="http://www.w3.org/1999/xlink">
<g id="graph0" class="graph" transform="scale(1 1) rotate(0) translate(21.6 394.18)">
<title>BIOL225</title>
<!-- course__BIOL150A -->
<g id="node1" class="node">
<title>course__BIOL150A</title>
<g id="a_node1"><a xlink:href="../../../courses/BIOL150A.html" xlink:title="BIOL150A: Modern Biology" target="_top">
<path fill="#dbe8d2" stroke="#7e8d96" d="M333,-330C333,-330 295,-330 295,-330 289,-330 283,-324 283,-318 283,-318 283,-306 283,-306 283,-300 289,-294 295,-294 295,-294 333,-294 333,-294 339,-294 345,-300 345,-306 345,-306 345,-318 345,-318 345,-324 339,-330 333,-330"/>
<text text-anchor="middle" x="314" y="-309.8" font-family="Avenir Next" font-size="9.00" fill="#41515b">BIOL150A</text>
</a>
</g>
</g>
<!-- choice_BIOL184_0_0 -->
<g id="node19" class="node">
<title>choice_BIOL184_0_0</title>
<path fill="#fff7ee" stroke="#b7793f" stroke-width="1.1" d="M448,-302C448,-302 418,-302 418,-302 412,-302 406,-296 406,-290 406,-290 406,-278 406,-278 406,-272 412,-266 418,-266 418,-266 448,-266 448,-266 454,-266 460,-272 460,-278 460,-278 460,-290 460,-290 460,-296 454,-302 448,-302"/>
<text text-anchor="middle" x="433" y="-281.8" font-family="Avenir Next" font-size="9.00">1 of</text>
</g>
<!-- course__BIOL150A&#45;&gt;choice_BIOL184_0_0 -->
<g id="edge3" class="edge">
<title>course__BIOL150A&#45;&gt;choice_BIOL184_0_0</title>
<path fill="none" stroke="#7a8389" d="M345.13,-304.79C361.6,-300.85 382.03,-295.96 398.94,-291.91"/>
<polygon fill="#7a8389" stroke="#7a8389" points="399.71,-294.25 405.95,-290.24 398.57,-289.48 399.71,-294.25"/>
</g>
<!-- choice_BIOL186_0_0 -->
<g id="node20" class="node">
<title>choice_BIOL186_0_0</title>
<path fill="#fff7ee" stroke="#b7793f" stroke-width="1.1" d="M723,-302C723,-302 693,-302 693,-302 687,-302 681,-296 681,-290 681,-290 681,-278 681,-278 681,-272 687,-266 693,-266 693,-266 723,-266 723,-266 729,-266 735,-272 735,-278 735,-278 735,-290 735,-290 735,-296 729,-302 723,-302"/>
<text text-anchor="middle" x="708" y="-281.8" font-family="Avenir Next" font-size="9.00">1 of</text>
</g>
<!-- course__BIOL150A&#45;&gt;choice_BIOL186_0_0 -->
<g id="edge6" class="edge">
<title>course__BIOL150A&#45;&gt;choice_BIOL186_0_0</title>
<path fill="none" stroke="#7a8389" d="M345.09,-314.08C394.07,-317 494.01,-321.01 578,-312 610.91,-308.47 647.74,-300.01 673.6,-293.31"/>
<polygon fill="#7a8389" stroke="#7a8389" points="674.44,-295.62 680.59,-291.47 673.2,-290.88 674.44,-295.62"/>
</g>
<!-- course__BIOL186 -->
<g id="node2" class="node">
<title>course__BIOL186</title>
<g id="a_node2"><a xlink:href="../../../courses/BIOL186.html" xlink:title="BIOL186: Physiology and Cell Biology" target="_top">
<path fill="#dbe8d2" stroke="#1b2730" stroke-width="1.6" d="M330.5,-253C330.5,-253 297.5,-253 297.5,-253 291.5,-253 285.5,-247 285.5,-241 285.5,-241 285.5,-229 285.5,-229 285.5,-223 291.5,-217 297.5,-217 297.5,-217 330.5,-217 330.5,-217 336.5,-217 342.5,-223 342.5,-229 342.5,-229 342.5,-241 342.5,-241 342.5,-247 336.5,-253 330.5,-253"/>
<text text-anchor="middle" x="314" y="-232.5" font-family="Avenir Next" font-size="10.00" fill="#17232b">BIOL186</text>
</a>
</g>
</g>
<!-- course__BIOL225 -->
<g id="node4" class="node">
<title>course__BIOL225</title>
<g id="a_node4"><a xlink:href="../../../courses/BIOL225.html" xlink:title="BIOL225: Principles of Cell Biology" target="_top">
<path fill="#dbe8d2" stroke="#1f4f66" stroke-width="2" d="M765,-211C765,-211 651,-211 651,-211 645,-211 639,-205 639,-199 639,-199 639,-187 639,-187 639,-181 645,-175 651,-175 651,-175 765,-175 765,-175 771,-175 777,-181 777,-187 777,-187 777,-199 777,-199 777,-205 771,-211 765,-211"/>
<text text-anchor="middle" x="708" y="-196" font-family="Avenir Next" font-size="10.00" fill="#17232b">BIOL225</text>
<text text-anchor="middle" x="708" y="-185" font-family="Avenir Next" font-size="10.00" fill="#17232b">Principles of Cell Biology</text>
</a>
</g>
</g>
<!-- course__BIOL186&#45;&gt;course__BIOL225 -->
<g id="edge9" class="edge">
<title>course__BIOL186&#45;&gt;course__BIOL225</title>
<path fill="none" stroke="#5d6972" stroke-width="1.2" d="M342.78,-229.46C360.75,-226.04 384.69,-221.79 406,-219 482.59,-208.98 570.67,-201.88 631.67,-197.66"/>
<polygon fill="#5d6972" stroke="#5d6972" stroke-width="1.2" points="632.16,-200.09 638.97,-197.16 631.82,-195.2 632.16,-200.09"/>
</g>
<!-- course__BIOL186&#45;&gt;choice_BIOL184_0_0 -->
<g id="edge4" class="edge">
<title>course__BIOL186&#45;&gt;choice_BIOL184_0_0</title>
<path fill="none" stroke="#7a8389" d="M342.73,-246.61C359.55,-253.66 381.12,-262.69 398.84,-270.11"/>
<polygon fill="#7a8389" stroke="#7a8389" points="398.27,-272.53 405.68,-272.98 400.17,-268.01 398.27,-272.53"/>
</g>
<!-- course__BIOL184 -->
<g id="node3" class="node">
<title>course__BIOL184</title>
<g id="a_node3"><a xlink:href="../../../courses/BIOL184.html" xlink:title="BIOL184: Evolution and Biodiversity" target="_top">
<path fill="#dbe8d2" stroke="#1b2730" stroke-width="1.6" d="M566,-302C566,-302 533,-302 533,-302 527,-302 521,-296 521,-290 521,-290 521,-278 521,-278 521,-272 527,-266 533,-266 533,-266 566,-266 566,-266 572,-266 578,-272 578,-278 578,-278 578,-290 578,-290 578,-296 572,-302 566,-302"/>
<text text-anchor="middle" x="549.5" y="-281.5" font-family="Avenir Next" font-size="10.00" fill="#17232b">BIOL184</text>
</a>
</g>
</g>
<!-- course__BIOL184&#45;&gt;course__BIOL225 -->
<g id="edge10" class="edge">
<title>course__BIOL184&#45;&gt;course__BIOL225</title>
<path fill="none" stroke="#5d6972" stroke-width="1.2" d="M578.12,-267.94C603.57,-253.14 641.55,-231.06 669.69,-214.69"/>
<polygon fill="#5d6972" stroke="#5d6972" stroke-width="1.2" points="671.08,-216.72 675.9,-211.08 668.62,-212.48 671.08,-216.72"/>
</g>
<!-- course__BIOL184&#45;&gt;choice_BIOL186_0_0 -->
<g id="edge7" class="edge">
<title>course__BIOL184&#45;&gt;choice_BIOL186_0_0</title>
<path fill="none" stroke="#7a8389" d="M578.12,-284C604.78,-284 645.19,-284 673.64,-284"/>
<polygon fill="#7a8389" stroke="#7a8389" points="673.96,-286.45 680.96,-284 673.96,-281.55 673.96,-286.45"/>
</g>
<!-- course__BIOC300A -->
<g id="node5" class="node">
<title>course__BIOC300A</title>
<g id="a_node5"><a xlink:href="../../../courses/BIOC300A.html" xlink:title="BIOC300A: General Biochemistry I" target="_top">
<path fill="#e2e8d5" stroke="#1b2730" stroke-width="1.6" d="M891,-361C891,-361 850,-361 850,-361 844,-361 838,-355 838,-349 838,-349 838,-337 838,-337 838,-331 844,-325 850,-325 850,-325 891,-325 891,-325 897,-325 903,-331 903,-337 903,-337 903,-349 903,-349 903,-355 897,-361 891,-361"/>
<text text-anchor="middle" x="870.5" y="-340.5" font-family="Avenir Next" font-size="10.00" fill="#17232b">BIOC300A</text>
</a>
</g>
</g>
<!-- course__BIOL225&#45;&gt;course__BIOC300A -->
<g id="edge2" class="edge">
<title>course__BIOL225&#45;&gt;course__BIOC300A</title>
<path fill="none" stroke="#5d6972" stroke-width="1.2" d="M728.68,-211.16C742.27,-223.72 760.77,-240.85 777,-256 800.08,-277.54 826.28,-302.2 844.89,-319.75"/>
<polygon fill="#5d6972" stroke="#5d6972" stroke-width="1.2" points="843.63,-321.94 850.41,-324.96 847,-318.38 843.63,-321.94"/>
</g>
<!-- course__BIOL230 -->
<g id="node6" class="node">
<title>course__BIOL230</title>
<g id="a_node6"><a xlink:href="../../../courses/BIOL230.html" xlink:title="BIOL230: Principles of Genetics" target="_top">
<path fill="#dbe8d2" stroke="#1b2730" stroke-width="1.6" d="M887,-260C887,-260 854,-260 854,-260 848,-260 842,-254 842,-248 842,-248 842,-236 842,-236 842,-230 848,-224 854,-224 854,-224 887,-224 887,-224 893,-224 899,-230 899,-236 899,-236 899,-248 899,-248 899,-254 893,-260 887,-260"/>
<text text-anchor="middle" x="870.5" y="-239.5" font-family="Avenir Next" font-size="10.00" fill="#17232b">BIOL230</text>
</a>
</g>
</g>
<!-- course__BIOL225&#45;&gt;course__BIOL230 -->
<g id="edge11" class="edge">
<title>course__BIOL225&#45;&gt;course__BIOL230</title>
<path fill="none" stroke="#5d6972" stroke-width="1.2" d="M768.31,-211.11C790.74,-217.95 815.51,-225.52 834.93,-231.45"/>
<polygon fill="#5d6972" stroke="#5d6972" stroke-width="1.2" points="834.42,-233.85 841.83,-233.55 835.85,-229.17 834.42,-233.85"/>
</g>
<!-- course__BIOL321 -->
<g id="node7" class="node">
<title>course__BIOL321</title>
<g id="a_node7"><a xlink:href="../../../courses/BIOL321.html" xlink:title="BIOL321: Survey of Invertebrates" target="_top">
<path fill="#dbe8d2" stroke="#1b2730" stroke-width="1.6" d="M887,-92C887,-92 854,-92 854,-92 848,-92 842,-86 842,-80 842,-80 842,-68 842,-68 842,-62 848,-56 854,-56 854,-56 887,-56 887,-56 893,-56 899,-62 899,-68 899,-68 899,-80 899,-80 899,-86 893,-92 887,-92"/>
<text text-anchor="middle" x="870.5" y="-71.5" font-family="Avenir Next" font-size="10.00" fill="#17232b">BIOL321</text>
</a>
</g>
</g>
<!-- course__BIOL225&#45;&gt;course__BIOL321 -->
<g id="edge13" class="edge">
<title>course__BIOL225&#45;&gt;course__BIOL321</title>
<path fill="none" stroke="#5d6972" stroke-width="1.2" d="M733.38,-174.93C761.74,-153.9 808.59,-119.16 839.25,-96.43"/>
<polygon fill="#5d6972" stroke="#5d6972" stroke-width="1.2" points="840.99,-98.19 845.16,-92.05 838.08,-94.25 840.99,-98.19"/>
</g>
<!-- choice_BIOL330_0_2 -->
<g id="node21" class="node">
<title>choice_BIOL330_0_2</title>
<path fill="#fff7ee" stroke="#b7793f" stroke-width="1.1" d="M1006,-211C1006,-211 976,-211 976,-211 970,-211 964,-205 964,-199 964,-199 964,-187 964,-187 964,-181 970,-175 976,-175 976,-175 1006,-175 1006,-175 1012,-175 1018,-181 1018,-187 1018,-187 1018,-199 1018,-199 1018,-205 1012,-211 1006,-211"/>
<text text-anchor="middle" x="991" y="-190.8" font-family="Avenir Next" font-size="9.00">1 of</text>
</g>
<!-- course__BIOL225&#45;&gt;choice_BIOL330_0_2 -->
<g id="edge15" class="edge">
<title>course__BIOL225&#45;&gt;choice_BIOL330_0_2</title>
<path fill="none" stroke="#7a8389" d="M777.02,-193C833.95,-193 912.74,-193 956.79,-193"/>
<polygon fill="#7a8389" stroke="#7a8389" points="956.81,-195.45 963.81,-193 956.81,-190.55 956.81,-195.45"/>
</g>
<!-- choice_BIOL438_0_0 -->
<g id="node23" class="node">
<title>choice_BIOL438_0_0</title>
<path fill="#fff7ee" stroke="#b7793f" stroke-width="1.1" d="M1006,-155C1006,-155 976,-155 976,-155 970,-155 964,-149 964,-143 964,-143 964,-131 964,-131 964,-125 970,-119 976,-119 976,-119 1006,-119 1006,-119 1012,-119 1018,-125 1018,-131 1018,-131 1018,-143 1018,-143 1018,-149 1012,-155 1006,-155"/>
<text text-anchor="middle" x="991" y="-134.8" font-family="Avenir Next" font-size="9.00">2 of</text>
</g>
<!-- course__BIOL225&#45;&gt;choice_BIOL438_0_0 -->
<g id="edge24" class="edge">
<title>course__BIOL225&#45;&gt;choice_BIOL438_0_0</title>
<path fill="none" stroke="#7a8389" d="M777.02,-179.44C833.95,-168.1 912.74,-152.4 956.79,-143.62"/>
<polygon fill="#7a8389" stroke="#7a8389" points="957.42,-145.99 963.81,-142.22 956.46,-141.19 957.42,-145.99"/>
</g>
<!-- choice_BIOL435_1 -->
<g id="node22" class="node">
<title>choice_BIOL435_1</title>
<path fill="#fff7ee" stroke="#b7793f" stroke-width="1.1" d="M1239,-358C1239,-358 1209,-358 1209,-358 1203,-358 1197,-352 1197,-346 1197,-346 1197,-334 1197,-334 1197,-328 1203,-322 1209,-322 1209,-322 1239,-322 1239,-322 1245,-322 1251,-328 1251,-334 1251,-334 1251,-346 1251,-346 1251,-352 1245,-358 1239,-358"/>
<text text-anchor="middle" x="1224" y="-337.8" font-family="Avenir Next" font-size="9.00">1 of</text>
</g>
<!-- course__BIOC300A&#45;&gt;choice_BIOL435_1 -->
<g id="edge21" class="edge">
<title>course__BIOC300A&#45;&gt;choice_BIOL435_1</title>
<path fill="none" stroke="#7a8389" d="M903.01,-351.04C952.74,-362.59 1052.38,-381.12 1136,-368 1154.38,-365.12 1174.17,-359 1190.23,-353.22"/>
<polygon fill="#7a8389" stroke="#7a8389" points="1191.15,-355.49 1196.87,-350.77 1189.45,-350.89 1191.15,-355.49"/>
</g>
<!-- course__BIOL355 -->
<g id="node11" class="node">
<title>course__BIOL355</title>
<g id="a_node11"><a xlink:href="../../../courses/BIOL355.html" xlink:title="BIOL355: Evolution" target="_top">
<path fill="#dbe8d2" stroke="#7e8d96" d="M1123.5,-358C1123.5,-358 1091.5,-358 1091.5,-358 1085.5,-358 1079.5,-352 1079.5,-346 1079.5,-346 1079.5,-334 1079.5,-334 1079.5,-328 1085.5,-322 1091.5,-322 1091.5,-322 1123.5,-322 1123.5,-322 1129.5,-322 1135.5,-328 1135.5,-334 1135.5,-334 1135.5,-346 1135.5,-346 1135.5,-352 1129.5,-358 1123.5,-358"/>
<text text-anchor="middle" x="1107.5" y="-337.8" font-family="Avenir Next" font-size="9.00" fill="#41515b">BIOL355</text>
</a>
</g>
</g>
<!-- course__BIOL230&#45;&gt;course__BIOL355 -->
<g id="edge18" class="edge">
<title>course__BIOL230&#45;&gt;course__BIOL355</title>
<path fill="none" stroke="#5d6972" stroke-width="1.2" d="M892.12,-260.03C909.98,-274.74 937.12,-294.99 964,-307 999.06,-322.66 1042.41,-331.33 1072.03,-335.81"/>
<polygon fill="#5d6972" stroke="#5d6972" stroke-width="1.2" points="1071.97,-338.28 1079.25,-336.86 1072.67,-333.43 1071.97,-338.28"/>
</g>
<!-- course__BIOL370 -->
<g id="node12" class="node">
<title>course__BIOL370</title>
<g id="a_node12"><a xlink:href="../../../courses/BIOL370.html" xlink:title="BIOL370: Conservation Biology" target="_top">
<path fill="#dbe8d2" stroke="#7e8d96" d="M1123.5,-260C1123.5,-260 1091.5,-260 1091.5,-260 1085.5,-260 1079.5,-254 1079.5,-248 1079.5,-248 1079.5,-236 1079.5,-236 1079.5,-230 1085.5,-224 1091.5,-224 1091.5,-224 1123.5,-224 1123.5,-224 1129.5,-224 1135.5,-230 1135.5,-236 1135.5,-236 1135.5,-248 1135.5,-248 1135.5,-254 1129.5,-260 1123.5,-260"/>
<text text-anchor="middle" x="1107.5" y="-239.8" font-family="Avenir Next" font-size="9.00" fill="#41515b">BIOL370</text>
</a>
</g>
</g>
<!-- course__BIOL230&#45;&gt;course__BIOL370 -->
<g id="edge19" class="edge">
<title>course__BIOL230&#45;&gt;course__BIOL370</title>
<path fill="none" stroke="#5d6972" stroke-width="1.2" d="M899.38,-242C942.54,-242 1025.43,-242 1072.2,-242"/>
<polygon fill="#5d6972" stroke="#5d6972" stroke-width="1.2" points="1072.38,-244.45 1079.38,-242 1072.38,-239.55 1072.38,-244.45"/>
</g>
<!-- course__BIOL435 -->
<g id="node14" class="node">
<title>course__BIOL435</title>
<g id="a_node14"><a xlink:href="../../../courses/BIOL435.html" xlink:title="BIOL435: Molecular Evolution" target="_top">
<path fill="#dbe8d2" stroke="#7e8d96" d="M1356,-337C1356,-337 1324,-337 1324,-337 1318,-337 1312,-331 1312,-325 1312,-325 1312,-313 1312,-313 1312,-307 1318,-301 1324,-301 1324,-301 1356,-301 1356,-301 1362,-301 1368,-307 1368,-313 1368,-313 1368,-325 1368,-325 1368,-331 1362,-337 1356,-337"/>
<text text-anchor="middle" x="1340" y="-316.8" font-family="Avenir Next" font-size="9.00" fill="#41515b">BIOL435</text>
</a>
</g>
</g>
<!-- course__BIOL230&#45;&gt;course__BIOL435 -->
<g id="edge20" class="edge">
<title>course__BIOL230&#45;&gt;course__BIOL435</title>
<path fill="none" stroke="#5d6972" stroke-width="1.2" d="M899.01,-246.83C917.4,-250.05 942.14,-254.33 964,-258 1089.27,-279.02 1238.28,-302.94 1304.42,-313.49"/>
<polygon fill="#5d6972" stroke="#5d6972" stroke-width="1.2" points="1304.4,-315.97 1311.69,-314.65 1305.17,-311.13 1304.4,-315.97"/>
</g>
<!-- course__BIOL230&#45;&gt;choice_BIOL330_0_2 -->
<g id="edge16" class="edge">
<title>course__BIOL230&#45;&gt;choice_BIOL330_0_2</title>
<path fill="none" stroke="#7a8389" d="M899.28,-230.51C916.59,-223.36 938.93,-214.12 957.12,-206.6"/>
<polygon fill="#7a8389" stroke="#7a8389" points="958.08,-208.85 963.61,-203.91 956.21,-204.32 958.08,-208.85"/>
</g>
<!-- course__BIOL230&#45;&gt;choice_BIOL438_0_0 -->
<g id="edge25" class="edge">
<title>course__BIOL230&#45;&gt;choice_BIOL438_0_0</title>
<path fill="none" stroke="#7a8389" d="M891.87,-223.95C911.88,-206.22 942.48,-179.11 964.18,-159.87"/>
<polygon fill="#7a8389" stroke="#7a8389" points="965.88,-161.64 969.5,-155.17 962.63,-157.97 965.88,-161.64"/>
</g>
<!-- course__BIOL319 -->
<g id="node8" class="node">
<title>course__BIOL319</title>
<g id="a_node8"><a xlink:href="../../../courses/BIOL319.html" xlink:title="BIOL319: Marine Ecology" target="_top">
<path fill="#dbe8d2" stroke="#7e8d96" d="M1123.5,-36C1123.5,-36 1091.5,-36 1091.5,-36 1085.5,-36 1079.5,-30 1079.5,-24 1079.5,-24 1079.5,-12 1079.5,-12 1079.5,-6 1085.5,0 1091.5,0 1091.5,0 1123.5,0 1123.5,0 1129.5,0 1135.5,-6 1135.5,-12 1135.5,-12 1135.5,-24 1135.5,-24 1135.5,-30 1129.5,-36 1123.5,-36"/>
<text text-anchor="middle" x="1107.5" y="-15.8" font-family="Avenir Next" font-size="9.00" fill="#41515b">BIOL319</text>
</a>
</g>
</g>
<!-- course__BIOL321&#45;&gt;course__BIOL319 -->
<g id="edge12" class="edge">
<title>course__BIOL321&#45;&gt;course__BIOL319</title>
<path fill="none" stroke="#5d6972" stroke-width="1.2" d="M899.38,-67.36C942.63,-57.05 1025.77,-37.24 1072.48,-26.11"/>
<polygon fill="#5d6972" stroke="#5d6972" stroke-width="1.2" points="1073.14,-28.47 1079.38,-24.46 1072,-23.7 1073.14,-28.47"/>
</g>
<!-- course__BIOL322 -->
<g id="node9" class="node">
<title>course__BIOL322</title>
<g id="a_node9"><a xlink:href="../../../courses/BIOL322.html" xlink:title="BIOL322: Biology of Marine Invertebrates" target="_top">
<path fill="#dbe8d2" stroke="#7e8d96" d="M1123.5,-92C1123.5,-92 1091.5,-92 1091.5,-92 1085.5,-92 1079.5,-86 1079.5,-80 1079.5,-80 1079.5,-68 1079.5,-68 1079.5,-62 1085.5,-56 1091.5,-56 1091.5,-56 1123.5,-56 1123.5,-56 1129.5,-56 1135.5,-62 1135.5,-68 1135.5,-68 1135.5,-80 1135.5,-80 1135.5,-86 1129.5,-92 1123.5,-92"/>
<text text-anchor="middle" x="1107.5" y="-71.8" font-family="Avenir Next" font-size="9.00" fill="#41515b">BIOL322</text>
</a>
</g>
</g>
<!-- course__BIOL321&#45;&gt;course__BIOL322 -->
<g id="edge14" class="edge">
<title>course__BIOL321&#45;&gt;course__BIOL322</title>
<path fill="none" stroke="#5d6972" stroke-width="1.2" d="M899.38,-74C942.54,-74 1025.43,-74 1072.2,-74"/>
<polygon fill="#5d6972" stroke="#5d6972" stroke-width="1.2" points="1072.38,-76.45 1079.38,-74 1072.38,-71.55 1072.38,-76.45"/>
</g>
<!-- course__BIOL466 -->
<g id="node17" class="node">
<title>course__BIOL466</title>
<g id="a_node17"><a xlink:href="../../../courses/BIOL466.html" xlink:title="BIOL466: Frontiers in Marine Biology" target="_top">
<path fill="#dbe8d2" stroke="#7e8d96" d="M1356,-134C1356,-134 1324,-134 1324,-134 1318,-134 1312,-128 1312,-122 1312,-122 1312,-110 1312,-110 1312,-104 1318,-98 1324,-98 1324,-98 1356,-98 1356,-98 1362,-98 1368,-104 1368,-110 1368,-110 1368,-122 1368,-122 1368,-128 1362,-134 1356,-134"/>
<text text-anchor="middle" x="1340" y="-113.8" font-family="Avenir Next" font-size="9.00" fill="#41515b">BIOL466</text>
</a>
</g>
</g>
<!-- course__BIOL319&#45;&gt;course__BIOL466 -->
<g id="edge31" class="edge">
<title>course__BIOL319&#45;&gt;course__BIOL466</title>
<path fill="none" stroke="#5d6972" stroke-width="1.2" d="M1135.85,-29.63C1178.13,-47.6 1259.27,-82.1 1305.18,-101.62"/>
<polygon fill="#5d6972" stroke="#5d6972" stroke-width="1.2" points="1304.29,-103.9 1311.69,-104.39 1306.21,-99.39 1304.29,-103.9"/>
</g>
<!-- course__BIOL330 -->
<g id="node10" class="node">
<title>course__BIOL330</title>
<g id="a_node10"><a xlink:href="../../../courses/BIOL330.html" xlink:title="BIOL330: Study Design and Data Analysis" target="_top">
<path fill="#dbe8d2" stroke="#1b2730" stroke-width="1.6" d="M1124,-204C1124,-204 1091,-204 1091,-204 1085,-204 1079,-198 1079,-192 1079,-192 1079,-180 1079,-180 1079,-174 1085,-168 1091,-168 1091,-168 1124,-168 1124,-168 1130,-168 1136,-174 1136,-180 1136,-180 1136,-192 1136,-192 1136,-198 1130,-204 1124,-204"/>
<text text-anchor="middle" x="1107.5" y="-183.5" font-family="Avenir Next" font-size="10.00" fill="#17232b">BIOL330</text>
</a>
</g>
</g>
<!-- course__BIOL446 -->
<g id="node15" class="node">
<title>course__BIOL446</title>
<g id="a_node15"><a xlink:href="../../../courses/BIOL446.html" xlink:title="BIOL446: Advanced Aquatic Ecology" target="_top">
<path fill="#dbe8d2" stroke="#7e8d96" d="M1356,-204C1356,-204 1324,-204 1324,-204 1318,-204 1312,-198 1312,-192 1312,-192 1312,-180 1312,-180 1312,-174 1318,-168 1324,-168 1324,-168 1356,-168 1356,-168 1362,-168 1368,-174 1368,-180 1368,-180 1368,-192 1368,-192 1368,-198 1362,-204 1356,-204"/>
<text text-anchor="middle" x="1340" y="-183.8" font-family="Avenir Next" font-size="9.00" fill="#41515b">BIOL446</text>
</a>
</g>
</g>
<!-- course__BIOL330&#45;&gt;course__BIOL446 -->
<g id="edge27" class="edge">
<title>course__BIOL330&#45;&gt;course__BIOL446</title>
<path fill="none" stroke="#5d6972" stroke-width="1.2" d="M1136.3,-186C1178.58,-186 1258.96,-186 1304.77,-186"/>
<polygon fill="#5d6972" stroke="#5d6972" stroke-width="1.2" points="1304.81,-188.45 1311.81,-186 1304.81,-183.55 1304.81,-188.45"/>
</g>
<!-- course__BIOL330&#45;&gt;course__BIOL466 -->
<g id="edge32" class="edge">
<title>course__BIOL330&#45;&gt;course__BIOL466</title>
<path fill="none" stroke="#5d6972" stroke-width="1.2" d="M1136.3,-177.56C1178.67,-164.69 1259.29,-140.21 1305.05,-126.31"/>
<polygon fill="#5d6972" stroke="#5d6972" stroke-width="1.2" points="1305.83,-128.63 1311.81,-124.26 1304.4,-123.95 1305.83,-128.63"/>
</g>
<!-- choice_BIOL461_0_0 -->
<g id="node24" class="node">
<title>choice_BIOL461_0_0</title>
<path fill="#fff7ee" stroke="#b7793f" stroke-width="1.1" d="M1239,-260C1239,-260 1209,-260 1209,-260 1203,-260 1197,-254 1197,-248 1197,-248 1197,-236 1197,-236 1197,-230 1203,-224 1209,-224 1209,-224 1239,-224 1239,-224 1245,-224 1251,-230 1251,-236 1251,-236 1251,-248 1251,-248 1251,-254 1245,-260 1239,-260"/>
<text text-anchor="middle" x="1224" y="-239.8" font-family="Avenir Next" font-size="9.00">1 of</text>
</g>
<!-- course__BIOL330&#45;&gt;choice_BIOL461_0_0 -->
<g id="edge28" class="edge">
<title>course__BIOL330&#45;&gt;choice_BIOL461_0_0</title>
<path fill="none" stroke="#7a8389" d="M1136.22,-199.56C1152.46,-207.5 1173.07,-217.58 1190.13,-225.92"/>
<polygon fill="#7a8389" stroke="#7a8389" points="1189.35,-228.27 1196.72,-229.15 1191.51,-223.87 1189.35,-228.27"/>
</g>
<!-- course__BIOL355&#45;&gt;choice_BIOL435_1 -->
<g id="edge22" class="edge">
<title>course__BIOL355&#45;&gt;choice_BIOL435_1</title>
<path fill="none" stroke="#7a8389" d="M1135.63,-340C1151.84,-340 1172.54,-340 1189.72,-340"/>
<polygon fill="#7a8389" stroke="#7a8389" points="1189.85,-342.45 1196.85,-340 1189.85,-337.55 1189.85,-342.45"/>
</g>
<!-- course__BIOL370&#45;&gt;choice_BIOL461_0_0 -->
<g id="edge29" class="edge">
<title>course__BIOL370&#45;&gt;choice_BIOL461_0_0</title>
<path fill="none" stroke="#7a8389" d="M1135.63,-242C1151.84,-242 1172.54,-242 1189.72,-242"/>
<polygon fill="#7a8389" stroke="#7a8389" points="1189.85,-244.45 1196.85,-242 1189.85,-239.55 1189.85,-244.45"/>
</g>
<!-- course__BIOL438 -->
<g id="node13" class="node">
<title>course__BIOL438</title>
<g id="a_node13"><a xlink:href="../../../courses/BIOL438.html" xlink:title="BIOL438: Nutrient Cycling and Prokaryotes" target="_top">
<path fill="#dbe8d2" stroke="#1b2730" stroke-width="1.6" d="M1124,-148C1124,-148 1091,-148 1091,-148 1085,-148 1079,-142 1079,-136 1079,-136 1079,-124 1079,-124 1079,-118 1085,-112 1091,-112 1091,-112 1124,-112 1124,-112 1130,-112 1136,-118 1136,-124 1136,-124 1136,-136 1136,-136 1136,-142 1130,-148 1124,-148"/>
<text text-anchor="middle" x="1107.5" y="-127.5" font-family="Avenir Next" font-size="10.00" fill="#17232b">BIOL438</text>
</a>
</g>
</g>
<!-- course__BIOL461 -->
<g id="node16" class="node">
<title>course__BIOL461</title>
<g id="a_node16"><a xlink:href="../../../courses/BIOL461.html" xlink:title="BIOL461: Fisheries Ecology and Management" target="_top">
<path fill="#dbe8d2" stroke="#7e8d96" d="M1356,-260C1356,-260 1324,-260 1324,-260 1318,-260 1312,-254 1312,-248 1312,-248 1312,-236 1312,-236 1312,-230 1318,-224 1324,-224 1324,-224 1356,-224 1356,-224 1362,-224 1368,-230 1368,-236 1368,-236 1368,-248 1368,-248 1368,-254 1362,-260 1356,-260"/>
<text text-anchor="middle" x="1340" y="-239.8" font-family="Avenir Next" font-size="9.00" fill="#41515b">BIOL461</text>
</a>
</g>
</g>
<!-- BIOL225_notes -->
<g id="node18" class="node">
<title>BIOL225_notes</title>
<polygon fill="#fff7ee" stroke="#b7793f" stroke-width="1.1" points="216,-174 0,-174 0,-128 222,-128 222,-168 216,-174"/>
<polyline fill="none" stroke="#b7793f" stroke-width="1.1" points="216,-174 216,-168 "/>
<polyline fill="none" stroke="#b7793f" stroke-width="1.1" points="222,-168 216,-168 "/>
<text text-anchor="start" x="13" y="-154.4" font-family="Avenir Next" font-size="12.00">Published notes</text>
<text text-anchor="start" x="13" y="-141.4" font-family="Avenir Next" font-size="12.00">or permission of the department</text>
</g>
<!-- BIOL225_notes&#45;&gt;course__BIOL225 -->
<!-- choice_BIOL184_0_0&#45;&gt;course__BIOL184 -->
<g id="edge5" class="edge">
<title>choice_BIOL184_0_0&#45;&gt;course__BIOL184</title>
<path fill="none" stroke="#5d6972" stroke-width="1.2" d="M460.27,-284C476.1,-284 496.45,-284 513.62,-284"/>
<polygon fill="#5d6972" stroke="#5d6972" stroke-width="1.2" points="513.76,-286.45 520.76,-284 513.76,-281.55 513.76,-286.45"/>
</g>
<!-- choice_BIOL186_0_0&#45;&gt;course__BIOL186 -->
<g id="edge8" class="edge">
<title>choice_BIOL186_0_0&#45;&gt;course__BIOL186</title>
<path fill="none" stroke="#5d6972" stroke-width="1.2" d="M681,-277.28C655.08,-270.84 614.05,-261.33 578,-256 496.8,-244 400.42,-238.51 349.89,-236.3"/>
<polygon fill="#5d6972" stroke="#5d6972" stroke-width="1.2" points="349.88,-233.84 342.78,-235.99 349.67,-238.74 349.88,-233.84"/>
</g>
<!-- choice_BIOL330_0_2&#45;&gt;course__BIOL330 -->
<g id="edge17" class="edge">
<title>choice_BIOL330_0_2&#45;&gt;course__BIOL330</title>
<path fill="none" stroke="#5d6972" stroke-width="1.2" d="M1018.27,-191.39C1034.1,-190.43 1054.45,-189.18 1071.62,-188.13"/>
<polygon fill="#5d6972" stroke="#5d6972" stroke-width="1.2" points="1071.92,-190.57 1078.76,-187.7 1071.62,-185.68 1071.92,-190.57"/>
</g>
<!-- choice_BIOL435_1&#45;&gt;course__BIOL435 -->
<g id="edge23" class="edge">
<title>choice_BIOL435_1&#45;&gt;course__BIOL435</title>
<path fill="none" stroke="#5d6972" stroke-width="1.2" d="M1251.15,-335.18C1267.03,-332.26 1287.47,-328.49 1304.64,-325.33"/>
<polygon fill="#5d6972" stroke="#5d6972" stroke-width="1.2" points="1305.34,-327.69 1311.78,-324.01 1304.45,-322.87 1305.34,-327.69"/>
</g>
<!-- choice_BIOL438_0_0&#45;&gt;course__BIOL438 -->
<g id="edge26" class="edge">
<title>choice_BIOL438_0_0&#45;&gt;course__BIOL438</title>
<path fill="none" stroke="#5d6972" stroke-width="1.2" d="M1018.27,-135.39C1034.1,-134.43 1054.45,-133.18 1071.62,-132.13"/>
<polygon fill="#5d6972" stroke="#5d6972" stroke-width="1.2" points="1071.92,-134.57 1078.76,-131.7 1071.62,-129.68 1071.92,-134.57"/>
</g>
<!-- choice_BIOL461_0_0&#45;&gt;course__BIOL461 -->
<g id="edge30" class="edge">
<title>choice_BIOL461_0_0&#45;&gt;course__BIOL461</title>
<path fill="none" stroke="#5d6972" stroke-width="1.2" d="M1251.15,-242C1267.03,-242 1287.47,-242 1304.64,-242"/>
<polygon fill="#5d6972" stroke="#5d6972" stroke-width="1.2" points="1304.78,-244.45 1311.78,-242 1304.78,-239.55 1304.78,-244.45"/>
</g>
</g>
</svg>
