<?xml version="1.0" encoding="UTF-8" standalone="no"?>
<!DOCTYPE svg PUBLIC "-//W3C//DTD SVG 1.1//EN"
 "http://www.w3.org/Graphics/SVG/1.1/DTD/svg11.dtd">
<!-- Generated by graphviz version 2.43.0 (0)
 -->
<!-- Title: BIOL435 Pages: 1 -->
<svg width="515pt" height="160pt"
 viewBox="0.00 0.00 515.20 160.20" xmlns="http://www.w3.org/2000/svg" xmlns:xlink="http://www.w3.org/1999/xlink">
<g id="graph0" class="graph" transform="scale(1 1) rotate(0) translate(21.6 138.6)">
<title>BIOL435</title>
<!-- course__BIOL230 -->
<g id="node1" class="node">
<title>course__BIOL230</title>
<g id="a_node1"><a xlink:href="../../../courses/BIOL230.html" xlink:title="BIOL230: Principles of Genetics" target="_top">
<path fill="#dbe8d2" stroke="#1b2730" stroke-width="1.6" d="M45,-64C45,-64 12,-64 12,-64 6,-64 0,-58 0,-52 0,-52 0,-40 0,-40 0,-34 6,-28 12,-28 12,-28 45,-28 45,-28 51,-28 57,-34 57,-40 57,-40 57,-52 57,-52 57,-58 51,-64 45,-64"/>
<text text-anchor="middle" x="28.5" y="-43.5" font-family="Avenir Next" font-size="10.00" fill="#17232b">BIOL230</text>
</a>
</g>
</g>
<!-- course__BIOL355 -->
<g id="node3" class="node">
<title>course__BIOL355</title>
<g id="a_node3"><a xlink:href="../../../courses/BIOL355.html" xlink:title="BIOL355: Evolution" target="_top">
<path fill="#dbe8d2" stroke="#1b2730" stroke-width="1.6" d="M167,-117C167,-117 134,-117 134,-117 128,-117 122,-111 122,-105 122,-105 122,-93 122,-93 122,-87 128,-81 134,-81 134,-81 167,-81 167,-81 173,-81 179,-87 179,-93 179,-93 179,-105 179,-105 179,-111 173,-117 167,-117"/>
<text text-anchor="middle" x="150.5" y="-96.5" font-family="Avenir Next" font-size="10.00" fill="#17232b">BIOL355</text>
</a>
</g>
</g>
<!-- course__BIOL230&#45;&gt;course__BIOL355 -->
<g id="edge1" class="edge">
<title>course__BIOL230&#45;&gt;course__BIOL355</title>
<path fill="none" stroke="#5d6972" stroke-width="1.2" d="M57.03,-58.16C74.29,-65.78 96.67,-75.67 115.09,-83.8"/>
<polygon fill="#5d6972" stroke="#5d6972" stroke-width="1.2" points="114.29,-86.13 121.68,-86.71 116.27,-81.64 114.29,-86.13"/>
</g>
<!-- course__BIOL435 -->
<g id="node4" class="node">
<title>course__BIOL435</title>
<g id="a_node4"><a xlink:href="../../../courses/BIOL435.html" xlink:title="BIOL435: Molecular Evolution" target="_top">
<path fill="#dbe8d2" stroke="#1f4f66" stroke-width="2" d="M460,-36C460,-36 371,-36 371,-36 365,-36 359,-30 359,-24 359,-24 359,-12 359,-12 359,-6 365,0 371,0 371,0 460,0 460,0 466,0 472,-6 472,-12 472,-12 472,-24 472,-24 472,-30 466,-36 460,-36"/>
<text text-anchor="middle" x="415.5" y="-21" font-family="Avenir Next" font-size="10.00" fill="#17232b">BIOL435</text>
<text text-anchor="middle" x="415.5" y="-10" font-family="Avenir Next" font-size="10.00" fill="#17232b">Molecular Evolution</text>
</a>
</g>
</g>
<!-- course__BIOL230&#45;&gt;course__BIOL435 -->
<g id="edge2" class="edge">
<title>course__BIOL230&#45;&gt;course__BIOL435</title>
<path fill="none" stroke="#5d6972" stroke-width="1.2" d="M57.16,-33.6C74.29,-26.61 96.98,-18.58 118,-15 197.73,-1.44 291.28,-5.65 351.65,-10.93"/>
<polygon fill="#5d6972" stroke="#5d6972" stroke-width="1.2" points="351.65,-13.39 358.84,-11.58 352.09,-8.51 351.65,-13.39"/>
</g>
<!-- course__BIOC300A -->
<g id="node2" class="node">
<title>course__BIOC300A</title>
<g id="a_node2"><a xlink:href="../../../courses/BIOC300A.html" xlink:title="BIOC300A: General Biochemistry I" target="_top">
<path fill="#e2e8d5" stroke="#1b2730" stroke-width="1.6" d="M171,-61C171,-61 130,-61 130,-61 124,-61 118,-55 118,-49 118,-49 118,-37 118,-37 118,-31 124,-25 130,-25 130,-25 171,-25 171,-25 177,-25 183,-31 183,-37 183,-37 183,-49 183,-49 183,-55 177,-61 171,-61"/>
<text text-anchor="middle" x="150.5" y="-40.5" font-family="Avenir Next" font-size="10.00" fill="#17232b">BIOC300A</text>
</a>
</g>
</g>
<!-- choice_BIOL435_1 -->
<g id="node5" class="node">
<title>choice_BIOL435_1</title>
<path fill="#fff7ee" stroke="#b7793f" stroke-width="1.1" d="M286,-61C286,-61 256,-61 256,-61 250,-61 244,-55 244,-49 244,-49 244,-37 244,-37 244,-31 250,-25 256,-25 256,-25 286,-25 286,-25 292,-25 298,-31 298,-37 298,-37 298,-49 298,-49 298,-55 292,-61 286,-61"/>
<text text-anchor="middle" x="271" y="-40.8" font-family="Avenir Next" font-size="9.00">1 of</text>
</g>
<!-- course__BIOC300A&#45;&gt;choice_BIOL435_1 -->
<g id="edge3" class="edge">
<title>course__BIOC300A&#45;&gt;choice_BIOL435_1</title>
<path fill="none" stroke="#7a8389" d="M183.26,-43C199.66,-43 219.69,-43 236.36,-43"/>
<polygon fill="#7a8389" stroke="#7a8389" points="236.76,-45.45 243.76,-43 236.76,-40.55 236.76,-45.45"/>
</g>
<!-- course__BIOL355&#45;&gt;choice_BIOL435_1 -->
<g id="edge4" class="edge">
<title>course__BIOL355&#45;&gt;choice_BIOL435_1</title>
<path fill="none" stroke="#7a8389" d="M179.28,-85.87C196.59,-77.69 218.93,-67.13 237.12,-58.54"/>
<polygon fill="#7a8389" stroke="#7a8389" points="238.33,-60.68 243.61,-55.47 236.24,-56.25 238.33,-60.68"/>
</g>
<!-- choice_BIOL435_1&#45;&gt;course__BIOL435 -->
<g id="edge5" class="edge">
<title>choice_BIOL435_1&#45;&gt;course__BIOL435</title>
<path fill="none" stroke="#5d6972" stroke-width="1.2" d="M298.14,-38.41C313.24,-35.77 332.93,-32.31 351.81,-29"/>
<polygon fill="#5d6972" stroke="#5d6972" stroke-width="1.2" points="352.24,-31.41 358.71,-27.79 351.4,-26.58 352.24,-31.41"/>
</g>
</g>
</svg>
