<?xml version="1.0" encoding="UTF-8" standalone="no"?>
<!DOCTYPE svg PUBLIC "-//W3C//DTD SVG 1.1//EN"
 "http://www.w3.org/Graphics/SVG/1.1/DTD/svg11.dtd">
<!-- Generated by graphviz version 2.43.0 (0)
 -->
<!-- Title: BIOL438 Pages: 1 -->
<svg width="988pt" height="257pt"
 viewBox="0.00 0.00 988.20 257.20" xmlns="http://www.w3.org/2000/svg" xmlns:xlink="http://www.w3.org/1999/xlink">
<g id="graph0" class="graph" transform="scale(1 1) rotate(0) translate(21.6 235.6)">
<title>BIOL438</title>
<!-- course__BIOL150A -->
<g id="node1" class="node">
<title>course__BIOL150A</title>
<g id="a_node1"><a xlink:href="../../../courses/BIOL150A.html" xlink:title="BIOL150A: Modern Biology" target="_top">
<path fill="#dbe8d2" stroke="#7e8d96" d="M50,-214C50,-214 12,-214 12,-214 6,-214 0,-208 0,-202 0,-202 0,-190 0,-190 0,-184 6,-178 12,-178 12,-178 50,-178 50,-178 56,-178 62,-184 62,-190 62,-190 62,-202 62,-202 62,-208 56,-214 50,-214"/>
<text text-anchor="middle" x="31" y="-193.8" font-family="Avenir Next" font-size="9.00" fill="#41515b">BIOL150A</text>
</a>
</g>
</g>
<!-- choice_BIOL184_0_0 -->
<g id="node10" class="node">
<title>choice_BIOL184_0_0</title>
<path fill="#fff7ee" stroke="#b7793f" stroke-width="1.1" d="M458.5,-186C458.5,-186 428.5,-186 428.5,-186 422.5,-186 416.5,-180 416.5,-174 416.5,-174 416.5,-162 416.5,-162 416.5,-156 422.5,-150 428.5,-150 428.5,-150 458.5,-150 458.5,-150 464.5,-150 470.5,-156 470.5,-162 470.5,-162 470.5,-174 470.5,-174 470.5,-180 464.5,-186 458.5,-186"/>
<text text-anchor="middle" x="443.5" y="-165.8" font-family="Avenir Next" font-size="9.00">1 of</text>
</g>
<!-- course__BIOL150A&#45;&gt;choice_BIOL184_0_0 -->
<g id="edge1" class="edge">
<title>course__BIOL150A&#45;&gt;choice_BIOL184_0_0</title>
<path fill="none" stroke="#7a8389" d="M62.22,-198.99C119.27,-203.97 246.53,-211.94 352,-196 371.49,-193.05 392.58,-186.73 409.48,-180.83"/>
<polygon fill="#7a8389" stroke="#7a8389" points="410.69,-183 416.46,-178.34 409.04,-178.39 410.69,-183"/>
</g>
<!-- choice_BIOL186_0_0 -->
<g id="node11" class="node">
<title>choice_BIOL186_0_0</title>
<path fill="#fff7ee" stroke="#b7793f" stroke-width="1.1" d="M165,-186C165,-186 135,-186 135,-186 129,-186 123,-180 123,-174 123,-174 123,-162 123,-162 123,-156 129,-150 135,-150 135,-150 165,-150 165,-150 171,-150 177,-156 177,-162 177,-162 177,-174 177,-174 177,-180 171,-186 165,-186"/>
<text text-anchor="middle" x="150" y="-165.8" font-family="Avenir Next" font-size="9.00">1 of</text>
</g>
<!-- course__BIOL150A&#45;&gt;choice_BIOL186_0_0 -->
<g id="edge4" class="edge">
<title>course__BIOL150A&#45;&gt;choice_BIOL186_0_0</title>
<path fill="none" stroke="#7a8389" d="M62.13,-188.79C78.6,-184.85 99.03,-179.96 115.94,-175.91"/>
<polygon fill="#7a8389" stroke="#7a8389" points="116.71,-178.25 122.95,-174.24 115.57,-173.48 116.71,-178.25"/>
</g>
<!-- course__BIOL184 -->
<g id="node2" class="node">
<title>course__BIOL184</title>
<g id="a_node2"><a xlink:href="../../../courses/BIOL184.html" xlink:title="BIOL184: Evolution and Biodiversity" target="_top">
<path fill="#dbe8d2" stroke="#7e8d96" d="M47,-137C47,-137 15,-137 15,-137 9,-137 3,-131 3,-125 3,-125 3,-113 3,-113 3,-107 9,-101 15,-101 15,-101 47,-101 47,-101 53,-101 59,-107 59,-113 59,-113 59,-125 59,-125 59,-131 53,-137 47,-137"/>
<text text-anchor="middle" x="31" y="-116.8" font-family="Avenir Next" font-size="9.00" fill="#41515b">BIOL184</text>
</a>
</g>
</g>
<!-- course__BIOL225 -->
<g id="node5" class="node">
<title>course__BIOL225</title>
<g id="a_node5"><a xlink:href="../../../courses/BIOL225.html" xlink:title="BIOL225: Principles of Cell Biology" target="_top">
<path fill="#dbe8d2" stroke="#1b2730" stroke-width="1.6" d="M460,-113C460,-113 427,-113 427,-113 421,-113 415,-107 415,-101 415,-101 415,-89 415,-89 415,-83 421,-77 427,-77 427,-77 460,-77 460,-77 466,-77 472,-83 472,-89 472,-89 472,-101 472,-101 472,-107 466,-113 460,-113"/>
<text text-anchor="middle" x="443.5" y="-92.5" font-family="Avenir Next" font-size="10.00" fill="#17232b">BIOL225</text>
</a>
</g>
</g>
<!-- course__BIOL184&#45;&gt;course__BIOL225 -->
<g id="edge8" class="edge">
<title>course__BIOL184&#45;&gt;course__BIOL225</title>
<path fill="none" stroke="#5d6972" stroke-width="1.2" d="M59.33,-113.1C77.32,-109.48 101.45,-105.15 123,-103 225.98,-92.72 348.51,-93.17 407.43,-94.18"/>
<polygon fill="#5d6972" stroke="#5d6972" stroke-width="1.2" points="407.59,-96.63 414.63,-94.31 407.68,-91.73 407.59,-96.63"/>
</g>
<!-- course__BIOL184&#45;&gt;choice_BIOL186_0_0 -->
<g id="edge5" class="edge">
<title>course__BIOL184&#45;&gt;choice_BIOL186_0_0</title>
<path fill="none" stroke="#7a8389" d="M59.14,-130.36C76.06,-137.45 97.96,-146.62 115.9,-154.14"/>
<polygon fill="#7a8389" stroke="#7a8389" points="115.41,-156.59 122.82,-157.03 117.31,-152.07 115.41,-156.59"/>
</g>
<!-- course__BIOL186 -->
<g id="node3" class="node">
<title>course__BIOL186</title>
<g id="a_node3"><a xlink:href="../../../courses/BIOL186.html" xlink:title="BIOL186: Physiology and Cell Biology" target="_top">
<path fill="#dbe8d2" stroke="#7e8d96" d="M311,-186C311,-186 279,-186 279,-186 273,-186 267,-180 267,-174 267,-174 267,-162 267,-162 267,-156 273,-150 279,-150 279,-150 311,-150 311,-150 317,-150 323,-156 323,-162 323,-162 323,-174 323,-174 323,-180 317,-186 311,-186"/>
<text text-anchor="middle" x="295" y="-165.8" font-family="Avenir Next" font-size="9.00" fill="#41515b">BIOL186</text>
</a>
</g>
</g>
<!-- course__BIOL186&#45;&gt;course__BIOL225 -->
<g id="edge7" class="edge">
<title>course__BIOL186&#45;&gt;course__BIOL225</title>
<path fill="none" stroke="#5d6972" stroke-width="1.2" d="M323.21,-154.44C347.32,-142.43 382.61,-124.84 408.55,-111.92"/>
<polygon fill="#5d6972" stroke="#5d6972" stroke-width="1.2" points="409.76,-114.05 414.94,-108.73 407.58,-109.66 409.76,-114.05"/>
</g>
<!-- course__BIOL186&#45;&gt;choice_BIOL184_0_0 -->
<g id="edge2" class="edge">
<title>course__BIOL186&#45;&gt;choice_BIOL184_0_0</title>
<path fill="none" stroke="#7a8389" d="M323.21,-168C347.57,-168 383.34,-168 409.36,-168"/>
<polygon fill="#7a8389" stroke="#7a8389" points="409.42,-170.45 416.42,-168 409.42,-165.55 409.42,-170.45"/>
</g>
<!-- course__CHEM101 -->
<g id="node4" class="node">
<title>course__CHEM101</title>
<g id="a_node4"><a xlink:href="../../../courses/CHEM101.html" xlink:title="Equivalent or cross&#45;listed: CHEM101: Fundamentals of Chemistry from Atoms to Materials | CHEM150: Engineering Chemistry" target="_top">
<path fill="#ead9b8" stroke="#7e8d96" d="M340,-36C340,-36 250,-36 250,-36 244,-36 238,-30 238,-24 238,-24 238,-12 238,-12 238,-6 244,0 250,0 250,0 340,0 340,0 346,0 352,-6 352,-12 352,-12 352,-24 352,-24 352,-30 346,-36 340,-36"/>
<text text-anchor="middle" x="295" y="-15.8" font-family="Avenir Next" font-size="9.00" fill="#41515b">CHEM101 / CHEM150</text>
</a>
</g>
</g>
<!-- course__CHEM231 -->
<g id="node6" class="node">
<title>course__CHEM231</title>
<g id="a_node6"><a xlink:href="../../../courses/CHEM231.html" xlink:title="CHEM231: Introduction to Organic Chemistry" target="_top">
<path fill="#ead9b8" stroke="#7e8d96" d="M462,-36C462,-36 425,-36 425,-36 419,-36 413,-30 413,-24 413,-24 413,-12 413,-12 413,-6 419,0 425,0 425,0 462,0 462,0 468,0 474,-6 474,-12 474,-12 474,-24 474,-24 474,-30 468,-36 462,-36"/>
<text text-anchor="middle" x="443.5" y="-15.8" font-family="Avenir Next" font-size="9.00" fill="#41515b">CHEM231</text>
</a>
</g>
</g>
<!-- course__CHEM101&#45;&gt;course__CHEM231 -->
<g id="edge15" class="edge">
<title>course__CHEM101&#45;&gt;course__CHEM231</title>
<path fill="none" stroke="#5d6972" stroke-width="1.2" d="M352.22,-18C370.14,-18 389.49,-18 405.66,-18"/>
<polygon fill="#5d6972" stroke="#5d6972" stroke-width="1.2" points="405.85,-20.45 412.85,-18 405.85,-15.55 405.85,-20.45"/>
</g>
<!-- course__BIOL230 -->
<g id="node8" class="node">
<title>course__BIOL230</title>
<g id="a_node8"><a xlink:href="../../../courses/BIOL230.html" xlink:title="BIOL230: Principles of Genetics" target="_top">
<path fill="#dbe8d2" stroke="#1b2730" stroke-width="1.6" d="M580,-36C580,-36 547,-36 547,-36 541,-36 535,-30 535,-24 535,-24 535,-12 535,-12 535,-6 541,0 547,0 547,0 580,0 580,0 586,0 592,-6 592,-12 592,-12 592,-24 592,-24 592,-30 586,-36 580,-36"/>
<text text-anchor="middle" x="563.5" y="-15.5" font-family="Avenir Next" font-size="10.00" fill="#17232b">BIOL230</text>
</a>
</g>
</g>
<!-- course__BIOL225&#45;&gt;course__BIOL230 -->
<g id="edge9" class="edge">
<title>course__BIOL225&#45;&gt;course__BIOL230</title>
<path fill="none" stroke="#5d6972" stroke-width="1.2" d="M472.17,-76.95C489.06,-65.92 510.78,-51.75 528.68,-40.07"/>
<polygon fill="#5d6972" stroke="#5d6972" stroke-width="1.2" points="530.08,-42.08 534.6,-36.21 527.4,-37.98 530.08,-42.08"/>
</g>
<!-- choice_BIOL438_0_0 -->
<g id="node12" class="node">
<title>choice_BIOL438_0_0</title>
<path fill="#fff7ee" stroke="#b7793f" stroke-width="1.1" d="M695,-92C695,-92 665,-92 665,-92 659,-92 653,-86 653,-80 653,-80 653,-68 653,-68 653,-62 659,-56 665,-56 665,-56 695,-56 695,-56 701,-56 707,-62 707,-68 707,-68 707,-80 707,-80 707,-86 701,-92 695,-92"/>
<text text-anchor="middle" x="680" y="-71.8" font-family="Avenir Next" font-size="9.00">2 of</text>
</g>
<!-- course__BIOL225&#45;&gt;choice_BIOL438_0_0 -->
<g id="edge12" class="edge">
<title>course__BIOL225&#45;&gt;choice_BIOL438_0_0</title>
<path fill="none" stroke="#7a8389" d="M472.14,-99.63C501.91,-103.84 550.59,-108.5 592,-102 610.38,-99.12 630.17,-93 646.23,-87.22"/>
<polygon fill="#7a8389" stroke="#7a8389" points="647.15,-89.49 652.87,-84.77 645.45,-84.89 647.15,-89.49"/>
</g>
<!-- course__CHEM231&#45;&gt;course__BIOL230 -->
<g id="edge10" class="edge">
<title>course__CHEM231&#45;&gt;course__BIOL230</title>
<path fill="none" stroke="#5d6972" stroke-width="1.2" d="M474.28,-18C490.53,-18 510.73,-18 527.7,-18"/>
<polygon fill="#5d6972" stroke="#5d6972" stroke-width="1.2" points="527.76,-20.45 534.76,-18 527.76,-15.55 527.76,-20.45"/>
</g>
<!-- course__BIOL215 -->
<g id="node7" class="node">
<title>course__BIOL215</title>
<g id="a_node7"><a xlink:href="../../../courses/BIOL215.html" xlink:title="BIOL215: Principles of Ecology" target="_top">
<path fill="#dbe8d2" stroke="#1b2730" stroke-width="1.6" d="M580,-92C580,-92 547,-92 547,-92 541,-92 535,-86 535,-80 535,-80 535,-68 535,-68 535,-62 541,-56 547,-56 547,-56 580,-56 580,-56 586,-56 592,-62 592,-68 592,-68 592,-80 592,-80 592,-86 586,-92 580,-92"/>
<text text-anchor="middle" x="563.5" y="-71.5" font-family="Avenir Next" font-size="10.00" fill="#17232b">BIOL215</text>
</a>
</g>
</g>
<!-- course__BIOL215&#45;&gt;choice_BIOL438_0_0 -->
<g id="edge11" class="edge">
<title>course__BIOL215&#45;&gt;choice_BIOL438_0_0</title>
<path fill="none" stroke="#7a8389" d="M592.22,-74C608.32,-74 628.71,-74 645.68,-74"/>
<polygon fill="#7a8389" stroke="#7a8389" points="645.72,-76.45 652.72,-74 645.72,-71.55 645.72,-76.45"/>
</g>
<!-- course__BIOL230&#45;&gt;choice_BIOL438_0_0 -->
<g id="edge13" class="edge">
<title>course__BIOL230&#45;&gt;choice_BIOL438_0_0</title>
<path fill="none" stroke="#7a8389" d="M592.22,-31.56C608.46,-39.5 629.07,-49.58 646.13,-57.92"/>
<polygon fill="#7a8389" stroke="#7a8389" points="645.35,-60.27 652.72,-61.15 647.51,-55.87 645.35,-60.27"/>
</g>
<!-- course__BIOL438 -->
<g id="node9" class="node">
<title>course__BIOL438</title>
<g id="a_node9"><a xlink:href="../../../courses/BIOL438.html" xlink:title="BIOL438: Nutrient Cycling and Prokaryotes" target="_top">
<path fill="#dbe8d2" stroke="#1f4f66" stroke-width="2" d="M933,-92C933,-92 780,-92 780,-92 774,-92 768,-86 768,-80 768,-80 768,-68 768,-68 768,-62 774,-56 780,-56 780,-56 933,-56 933,-56 939,-56 945,-62 945,-68 945,-68 945,-80 945,-80 945,-86 939,-92 933,-92"/>
<text text-anchor="middle" x="856.5" y="-77" font-family="Avenir Next" font-size="10.00" fill="#17232b">BIOL438</text>
<text text-anchor="middle" x="856.5" y="-66" font-family="Avenir Next" font-size="10.00" fill="#17232b">Nutrient Cycling and Prokaryotes</text>
</a>
</g>
</g>
<!-- choice_BIOL184_0_0&#45;&gt;course__BIOL184 -->
<g id="edge3" class="edge">
<title>choice_BIOL184_0_0&#45;&gt;course__BIOL184</title>
<path fill="none" stroke="#5d6972" stroke-width="1.2" d="M416.38,-158.13C398.52,-151.83 374.16,-144.1 352,-140 249.36,-121.03 125.43,-118.58 66.44,-118.63"/>
<polygon fill="#5d6972" stroke="#5d6972" stroke-width="1.2" points="66.23,-116.18 59.24,-118.65 66.24,-121.08 66.23,-116.18"/>
</g>
<!-- choice_BIOL186_0_0&#45;&gt;course__BIOL186 -->
<g id="edge6" class="edge">
<title>choice_BIOL186_0_0&#45;&gt;course__BIOL186</title>
<path fill="none" stroke="#5d6972" stroke-width="1.2" d="M177.23,-168C200.42,-168 234.4,-168 259.74,-168"/>
<polygon fill="#5d6972" stroke="#5d6972" stroke-width="1.2" points="259.97,-170.45 266.97,-168 259.97,-165.55 259.97,-170.45"/>
</g>
<!-- choice_BIOL438_0_0&#45;&gt;course__BIOL438 -->
<g id="edge14" class="edge">
<title>choice_BIOL438_0_0&#45;&gt;course__BIOL438</title>
<path fill="none" stroke="#5d6972" stroke-width="1.2" d="M707.12,-74C721.75,-74 740.99,-74 760.74,-74"/>
<polygon fill="#5d6972" stroke="#5d6972" stroke-width="1.2" points="760.74,-76.45 767.74,-74 760.74,-71.55 760.74,-76.45"/>
</g>
</g>
</svg>
