<?xml version="1.0" encoding="UTF-8" standalone="no"?>
<!DOCTYPE svg PUBLIC "-//W3C//DTD SVG 1.1//EN"
 "http://www.w3.org/Graphics/SVG/1.1/DTD/svg11.dtd">
<!-- Generated by graphviz version 2.43.0 (0)
 -->
<!-- Title: BIOL355 Pages: 1 -->
<svg width="876pt" height="250pt"
 viewBox="0.00 0.00 876.20 250.20" xmlns="http://www.w3.org/2000/svg" xmlns:xlink="http://www.w3.org/1999/xlink">
<g id="graph0" class="graph" transform="scale(1 1) rotate(0) translate(21.6 228.6)">
<title>BIOL355</title>
<!-- course__BIOL150A -->
<g id="node1" class="node">
<title>course__BIOL150A</title>
<g id="a_node1"><a xlink:href="../../../courses/BIOL150A.html" xlink:title="BIOL150A: Modern Biology" target="_top">
<path fill="#dbe8d2" stroke="#7e8d96" d="M50,-207C50,-207 12,-207 12,-207 6,-207 0,-201 0,-195 0,-195 0,-183 0,-183 0,-177 6,-171 12,-171 12,-171 50,-171 50,-171 56,-171 62,-177 62,-183 62,-183 62,-195 62,-195 62,-201 56,-207 50,-207"/>
<text text-anchor="middle" x="31" y="-186.8" font-family="Avenir Next" font-size="9.00" fill="#41515b">BIOL150A</text>
</a>
</g>
</g>
<!-- choice_BIOL184_0_0 -->
<g id="node10" class="node">
<title>choice_BIOL184_0_0</title>
<path fill="#fff7ee" stroke="#b7793f" stroke-width="1.1" d="M458.5,-179C458.5,-179 428.5,-179 428.5,-179 422.5,-179 416.5,-173 416.5,-167 416.5,-167 416.5,-155 416.5,-155 416.5,-149 422.5,-143 428.5,-143 428.5,-143 458.5,-143 458.5,-143 464.5,-143 470.5,-149 470.5,-155 470.5,-155 470.5,-167 470.5,-167 470.5,-173 464.5,-179 458.5,-179"/>
<text text-anchor="middle" x="443.5" y="-158.8" font-family="Avenir Next" font-size="9.00">1 of</text>
</g>
<!-- course__BIOL150A&#45;&gt;choice_BIOL184_0_0 -->
<g id="edge1" class="edge">
<title>course__BIOL150A&#45;&gt;choice_BIOL184_0_0</title>
<path fill="none" stroke="#7a8389" d="M62.22,-191.99C119.27,-196.97 246.53,-204.94 352,-189 371.49,-186.05 392.58,-179.73 409.48,-173.83"/>
<polygon fill="#7a8389" stroke="#7a8389" points="410.69,-176 416.46,-171.34 409.04,-171.39 410.69,-176"/>
</g>
<!-- choice_BIOL186_0_0 -->
<g id="node11" class="node">
<title>choice_BIOL186_0_0</title>
<path fill="#fff7ee" stroke="#b7793f" stroke-width="1.1" d="M165,-179C165,-179 135,-179 135,-179 129,-179 123,-173 123,-167 123,-167 123,-155 123,-155 123,-149 129,-143 135,-143 135,-143 165,-143 165,-143 171,-143 177,-149 177,-155 177,-155 177,-167 177,-167 177,-173 171,-179 165,-179"/>
<text text-anchor="middle" x="150" y="-158.8" font-family="Avenir Next" font-size="9.00">1 of</text>
</g>
<!-- course__BIOL150A&#45;&gt;choice_BIOL186_0_0 -->
<g id="edge4" class="edge">
<title>course__BIOL150A&#45;&gt;choice_BIOL186_0_0</title>
<path fill="none" stroke="#7a8389" d="M62.13,-181.79C78.6,-177.85 99.03,-172.96 115.94,-168.91"/>
<polygon fill="#7a8389" stroke="#7a8389" points="116.71,-171.25 122.95,-167.24 115.57,-166.48 116.71,-171.25"/>
</g>
<!-- course__BIOL184 -->
<g id="node2" class="node">
<title>course__BIOL184</title>
<g id="a_node2"><a xlink:href="../../../courses/BIOL184.html" xlink:title="BIOL184: Evolution and Biodiversity" target="_top">
<path fill="#dbe8d2" stroke="#7e8d96" d="M47,-130C47,-130 15,-130 15,-130 9,-130 3,-124 3,-118 3,-118 3,-106 3,-106 3,-100 9,-94 15,-94 15,-94 47,-94 47,-94 53,-94 59,-100 59,-106 59,-106 59,-118 59,-118 59,-124 53,-130 47,-130"/>
<text text-anchor="middle" x="31" y="-109.8" font-family="Avenir Next" font-size="9.00" fill="#41515b">BIOL184</text>
</a>
</g>
</g>
<!-- course__BIOL225 -->
<g id="node5" class="node">
<title>course__BIOL225</title>
<g id="a_node5"><a xlink:href="../../../courses/BIOL225.html" xlink:title="BIOL225: Principles of Cell Biology" target="_top">
<path fill="#dbe8d2" stroke="#7e8d96" d="M459.5,-92C459.5,-92 427.5,-92 427.5,-92 421.5,-92 415.5,-86 415.5,-80 415.5,-80 415.5,-68 415.5,-68 415.5,-62 421.5,-56 427.5,-56 427.5,-56 459.5,-56 459.5,-56 465.5,-56 471.5,-62 471.5,-68 471.5,-68 471.5,-80 471.5,-80 471.5,-86 465.5,-92 459.5,-92"/>
<text text-anchor="middle" x="443.5" y="-71.8" font-family="Avenir Next" font-size="9.00" fill="#41515b">BIOL225</text>
</a>
</g>
</g>
<!-- course__BIOL184&#45;&gt;course__BIOL225 -->
<g id="edge8" class="edge">
<title>course__BIOL184&#45;&gt;course__BIOL225</title>
<path fill="none" stroke="#5d6972" stroke-width="1.2" d="M59.36,-106.41C77.37,-102.93 101.5,-98.62 123,-96 226.47,-83.38 349.75,-77.44 408.33,-75.17"/>
<polygon fill="#5d6972" stroke="#5d6972" stroke-width="1.2" points="408.58,-77.61 415.48,-74.9 408.39,-72.72 408.58,-77.61"/>
</g>
<!-- course__BIOL184&#45;&gt;choice_BIOL186_0_0 -->
<g id="edge5" class="edge">
<title>course__BIOL184&#45;&gt;choice_BIOL186_0_0</title>
<path fill="none" stroke="#7a8389" d="M59.14,-123.36C76.06,-130.45 97.96,-139.62 115.9,-147.14"/>
<polygon fill="#7a8389" stroke="#7a8389" points="115.41,-149.59 122.82,-150.03 117.31,-145.07 115.41,-149.59"/>
</g>
<!-- course__BIOL186 -->
<g id="node3" class="node">
<title>course__BIOL186</title>
<g id="a_node3"><a xlink:href="../../../courses/BIOL186.html" xlink:title="BIOL186: Physiology and Cell Biology" target="_top">
<path fill="#dbe8d2" stroke="#7e8d96" d="M311,-179C311,-179 279,-179 279,-179 273,-179 267,-173 267,-167 267,-167 267,-155 267,-155 267,-149 273,-143 279,-143 279,-143 311,-143 311,-143 317,-143 323,-149 323,-155 323,-155 323,-167 323,-167 323,-173 317,-179 311,-179"/>
<text text-anchor="middle" x="295" y="-158.8" font-family="Avenir Next" font-size="9.00" fill="#41515b">BIOL186</text>
</a>
</g>
</g>
<!-- course__BIOL186&#45;&gt;course__BIOL225 -->
<g id="edge7" class="edge">
<title>course__BIOL186&#45;&gt;course__BIOL225</title>
<path fill="none" stroke="#5d6972" stroke-width="1.2" d="M323.21,-144.84C347.57,-130.37 383.36,-109.12 409.38,-93.67"/>
<polygon fill="#5d6972" stroke="#5d6972" stroke-width="1.2" points="410.67,-95.75 415.43,-90.07 408.16,-91.54 410.67,-95.75"/>
</g>
<!-- course__BIOL186&#45;&gt;choice_BIOL184_0_0 -->
<g id="edge2" class="edge">
<title>course__BIOL186&#45;&gt;choice_BIOL184_0_0</title>
<path fill="none" stroke="#7a8389" d="M323.21,-161C347.57,-161 383.34,-161 409.36,-161"/>
<polygon fill="#7a8389" stroke="#7a8389" points="409.42,-163.45 416.42,-161 409.42,-158.55 409.42,-163.45"/>
</g>
<!-- course__CHEM101 -->
<g id="node4" class="node">
<title>course__CHEM101</title>
<g id="a_node4"><a xlink:href="../../../courses/CHEM101.html" xlink:title="Equivalent or cross&#45;listed: CHEM101: Fundamentals of Chemistry from Atoms to Materials | CHEM150: Engineering Chemistry" target="_top">
<path fill="#ead9b8" stroke="#7e8d96" d="M340,-36C340,-36 250,-36 250,-36 244,-36 238,-30 238,-24 238,-24 238,-12 238,-12 238,-6 244,0 250,0 250,0 340,0 340,0 346,0 352,-6 352,-12 352,-12 352,-24 352,-24 352,-30 346,-36 340,-36"/>
<text text-anchor="middle" x="295" y="-15.8" font-family="Avenir Next" font-size="9.00" fill="#41515b">CHEM101 / CHEM150</text>
</a>
</g>
</g>
<!-- course__CHEM231 -->
<g id="node6" class="node">
<title>course__CHEM231</title>
<g id="a_node6"><a xlink:href="../../../courses/CHEM231.html" xlink:title="CHEM231: Introduction to Organic Chemistry" target="_top">
<path fill="#ead9b8" stroke="#7e8d96" d="M462,-36C462,-36 425,-36 425,-36 419,-36 413,-30 413,-24 413,-24 413,-12 413,-12 413,-6 419,0 425,0 425,0 462,0 462,0 468,0 474,-6 474,-12 474,-12 474,-24 474,-24 474,-30 468,-36 462,-36"/>
<text text-anchor="middle" x="443.5" y="-15.8" font-family="Avenir Next" font-size="9.00" fill="#41515b">CHEM231</text>
</a>
</g>
</g>
<!-- course__CHEM101&#45;&gt;course__CHEM231 -->
<g id="edge14" class="edge">
<title>course__CHEM101&#45;&gt;course__CHEM231</title>
<path fill="none" stroke="#5d6972" stroke-width="1.2" d="M352.22,-18C370.14,-18 389.49,-18 405.66,-18"/>
<polygon fill="#5d6972" stroke="#5d6972" stroke-width="1.2" points="405.85,-20.45 412.85,-18 405.85,-15.55 405.85,-20.45"/>
</g>
<!-- course__BIOL230 -->
<g id="node7" class="node">
<title>course__BIOL230</title>
<g id="a_node7"><a xlink:href="../../../courses/BIOL230.html" xlink:title="BIOL230: Principles of Genetics" target="_top">
<path fill="#dbe8d2" stroke="#1b2730" stroke-width="1.6" d="M580,-64C580,-64 547,-64 547,-64 541,-64 535,-58 535,-52 535,-52 535,-40 535,-40 535,-34 541,-28 547,-28 547,-28 580,-28 580,-28 586,-28 592,-34 592,-40 592,-40 592,-52 592,-52 592,-58 586,-64 580,-64"/>
<text text-anchor="middle" x="563.5" y="-43.5" font-family="Avenir Next" font-size="10.00" fill="#17232b">BIOL230</text>
</a>
</g>
</g>
<!-- course__BIOL225&#45;&gt;course__BIOL230 -->
<g id="edge9" class="edge">
<title>course__BIOL225&#45;&gt;course__BIOL230</title>
<path fill="none" stroke="#5d6972" stroke-width="1.2" d="M471.57,-67.58C488.27,-63.61 509.85,-58.49 527.8,-54.23"/>
<polygon fill="#5d6972" stroke="#5d6972" stroke-width="1.2" points="528.49,-56.59 534.74,-52.59 527.36,-51.82 528.49,-56.59"/>
</g>
<!-- course__CHEM231&#45;&gt;course__BIOL230 -->
<g id="edge10" class="edge">
<title>course__CHEM231&#45;&gt;course__BIOL230</title>
<path fill="none" stroke="#5d6972" stroke-width="1.2" d="M474.28,-25.07C490.53,-28.92 510.73,-33.72 527.7,-37.74"/>
<polygon fill="#5d6972" stroke="#5d6972" stroke-width="1.2" points="527.38,-40.19 534.76,-39.42 528.51,-35.42 527.38,-40.19"/>
</g>
<!-- course__BIOL355 -->
<g id="node8" class="node">
<title>course__BIOL355</title>
<g id="a_node8"><a xlink:href="../../../courses/BIOL355.html" xlink:title="BIOL355: Evolution" target="_top">
<path fill="#dbe8d2" stroke="#1f4f66" stroke-width="2" d="M703,-40C703,-40 665,-40 665,-40 659,-40 653,-34 653,-28 653,-28 653,-16 653,-16 653,-10 659,-4 665,-4 665,-4 703,-4 703,-4 709,-4 715,-10 715,-16 715,-16 715,-28 715,-28 715,-34 709,-40 703,-40"/>
<text text-anchor="middle" x="684" y="-25" font-family="Avenir Next" font-size="10.00" fill="#17232b">BIOL355</text>
<text text-anchor="middle" x="684" y="-14" font-family="Avenir Next" font-size="10.00" fill="#17232b">Evolution</text>
</a>
</g>
</g>
<!-- course__BIOL230&#45;&gt;course__BIOL355 -->
<g id="edge11" class="edge">
<title>course__BIOL230&#45;&gt;course__BIOL355</title>
<path fill="none" stroke="#5d6972" stroke-width="1.2" d="M592.28,-40.37C608.21,-37.15 628.4,-33.06 645.69,-29.56"/>
<polygon fill="#5d6972" stroke="#5d6972" stroke-width="1.2" points="646.53,-31.89 652.9,-28.1 645.55,-27.08 646.53,-31.89"/>
</g>
<!-- course__BIOL435 -->
<g id="node9" class="node">
<title>course__BIOL435</title>
<g id="a_node9"><a xlink:href="../../../courses/BIOL435.html" xlink:title="BIOL435: Molecular Evolution" target="_top">
<path fill="#dbe8d2" stroke="#1b2730" stroke-width="1.6" d="M821,-64C821,-64 788,-64 788,-64 782,-64 776,-58 776,-52 776,-52 776,-40 776,-40 776,-34 782,-28 788,-28 788,-28 821,-28 821,-28 827,-28 833,-34 833,-40 833,-40 833,-52 833,-52 833,-58 827,-64 821,-64"/>
<text text-anchor="middle" x="804.5" y="-43.5" font-family="Avenir Next" font-size="10.00" fill="#17232b">BIOL435</text>
</a>
</g>
</g>
<!-- course__BIOL230&#45;&gt;course__BIOL435 -->
<g id="edge12" class="edge">
<title>course__BIOL230&#45;&gt;course__BIOL435</title>
<path fill="none" stroke="#5d6972" stroke-width="1.2" d="M592.39,-47.58C609.81,-48.49 632.7,-49.54 653,-50 680.55,-50.62 687.45,-50.62 715,-50 732.6,-49.6 752.16,-48.76 768.4,-47.95"/>
<polygon fill="#5d6972" stroke="#5d6972" stroke-width="1.2" points="768.74,-50.39 775.61,-47.58 768.49,-45.49 768.74,-50.39"/>
</g>
<!-- course__BIOL355&#45;&gt;course__BIOL435 -->
<g id="edge13" class="edge">
<title>course__BIOL355&#45;&gt;course__BIOL435</title>
<path fill="none" stroke="#5d6972" stroke-width="1.2" d="M715.21,-28.12C731.53,-31.42 751.75,-35.52 768.73,-38.96"/>
<polygon fill="#5d6972" stroke="#5d6972" stroke-width="1.2" points="768.44,-41.4 775.78,-40.39 769.41,-36.6 768.44,-41.4"/>
</g>
<!-- choice_BIOL184_0_0&#45;&gt;course__BIOL184 -->
<g id="edge3" class="edge">
<title>choice_BIOL184_0_0&#45;&gt;course__BIOL184</title>
<path fill="none" stroke="#5d6972" stroke-width="1.2" d="M416.38,-151.13C398.52,-144.83 374.16,-137.1 352,-133 249.36,-114.03 125.43,-111.58 66.44,-111.63"/>
<polygon fill="#5d6972" stroke="#5d6972" stroke-width="1.2" points="66.23,-109.18 59.24,-111.65 66.24,-114.08 66.23,-109.18"/>
</g>
<!-- choice_BIOL186_0_0&#45;&gt;course__BIOL186 -->
<g id="edge6" class="edge">
<title>choice_BIOL186_0_0&#45;&gt;course__BIOL186</title>
<path fill="none" stroke="#5d6972" stroke-width="1.2" d="M177.23,-161C200.42,-161 234.4,-161 259.74,-161"/>
<polygon fill="#5d6972" stroke="#5d6972" stroke-width="1.2" points="259.97,-163.45 266.97,-161 259.97,-158.55 259.97,-163.45"/>
</g>
</g>
</svg>
