<?xml version="1.0" encoding="UTF-8" standalone="no"?>
<!DOCTYPE svg PUBLIC "-//W3C//DTD SVG 1.1//EN"
 "http://www.w3.org/Graphics/SVG/1.1/DTD/svg11.dtd">
<!-- Generated by graphviz version 2.43.0 (0)
 -->
<!-- Title: BIOL330 Pages: 1 -->
<svg width="1090pt" height="275pt"
 viewBox="0.00 0.00 1090.20 275.20" xmlns="http://www.w3.org/2000/svg" xmlns:xlink="http://www.w3.org/1999/xlink">
<g id="graph0" class="graph" transform="scale(1 1) rotate(0) translate(21.6 253.6)">
<title>BIOL330</title>
<!-- course__BIOL225 -->
<g id="node1" class="node">
<title>course__BIOL225</title>
<g id="a_node1"><a xlink:href="../../../courses/BIOL225.html" xlink:title="BIOL225: Principles of Cell Biology" target="_top">
<path fill="#dbe8d2" stroke="#1b2730" stroke-width="1.6" d="M306,-158C306,-158 273,-158 273,-158 267,-158 261,-152 261,-146 261,-146 261,-134 261,-134 261,-128 267,-122 273,-122 273,-122 306,-122 306,-122 312,-122 318,-128 318,-134 318,-134 318,-146 318,-146 318,-152 312,-158 306,-158"/>
<text text-anchor="middle" x="289.5" y="-137.5" font-family="Avenir Next" font-size="10.00" fill="#17232b">BIOL225</text>
</a>
</g>
</g>
<!-- course__BIOL230 -->
<g id="node3" class="node">
<title>course__BIOL230</title>
<g id="a_node3"><a xlink:href="../../../courses/BIOL230.html" xlink:title="BIOL230: Principles of Genetics" target="_top">
<path fill="#dbe8d2" stroke="#1b2730" stroke-width="1.6" d="M438.5,-134C438.5,-134 405.5,-134 405.5,-134 399.5,-134 393.5,-128 393.5,-122 393.5,-122 393.5,-110 393.5,-110 393.5,-104 399.5,-98 405.5,-98 405.5,-98 438.5,-98 438.5,-98 444.5,-98 450.5,-104 450.5,-110 450.5,-110 450.5,-122 450.5,-122 450.5,-128 444.5,-134 438.5,-134"/>
<text text-anchor="middle" x="422" y="-113.5" font-family="Avenir Next" font-size="10.00" fill="#17232b">BIOL230</text>
</a>
</g>
</g>
<!-- course__BIOL225&#45;&gt;course__BIOL230 -->
<g id="edge2" class="edge">
<title>course__BIOL225&#45;&gt;course__BIOL230</title>
<path fill="none" stroke="#5d6972" stroke-width="1.2" d="M318.18,-134.91C338.07,-131.25 365.04,-126.29 386.37,-122.37"/>
<polygon fill="#5d6972" stroke="#5d6972" stroke-width="1.2" points="386.92,-124.76 393.36,-121.08 386.04,-119.94 386.92,-124.76"/>
</g>
<!-- choice_BIOL330_0_2 -->
<g id="node10" class="node">
<title>choice_BIOL330_0_2</title>
<path fill="#fff7ee" stroke="#b7793f" stroke-width="1.1" d="M568,-158C568,-158 538,-158 538,-158 532,-158 526,-152 526,-146 526,-146 526,-134 526,-134 526,-128 532,-122 538,-122 538,-122 568,-122 568,-122 574,-122 580,-128 580,-134 580,-134 580,-146 580,-146 580,-152 574,-158 568,-158"/>
<text text-anchor="middle" x="553" y="-137.8" font-family="Avenir Next" font-size="9.00">1 of</text>
</g>
<!-- course__BIOL225&#45;&gt;choice_BIOL330_0_2 -->
<g id="edge4" class="edge">
<title>course__BIOL225&#45;&gt;choice_BIOL330_0_2</title>
<path fill="none" stroke="#7a8389" d="M318.39,-141.58C335.81,-142.49 358.7,-143.54 379,-144 417.21,-144.86 426.79,-144.88 465,-144 482.7,-143.59 502.4,-142.72 518.58,-141.9"/>
<polygon fill="#7a8389" stroke="#7a8389" points="518.88,-144.33 525.74,-141.52 518.62,-139.44 518.88,-144.33"/>
</g>
<!-- course__BIOL215 -->
<g id="node2" class="node">
<title>course__BIOL215</title>
<g id="a_node2"><a xlink:href="../../../courses/BIOL215.html" xlink:title="BIOL215: Principles of Ecology" target="_top">
<path fill="#dbe8d2" stroke="#1b2730" stroke-width="1.6" d="M438.5,-232C438.5,-232 405.5,-232 405.5,-232 399.5,-232 393.5,-226 393.5,-220 393.5,-220 393.5,-208 393.5,-208 393.5,-202 399.5,-196 405.5,-196 405.5,-196 438.5,-196 438.5,-196 444.5,-196 450.5,-202 450.5,-208 450.5,-208 450.5,-220 450.5,-220 450.5,-226 444.5,-232 438.5,-232"/>
<text text-anchor="middle" x="422" y="-211.5" font-family="Avenir Next" font-size="10.00" fill="#17232b">BIOL215</text>
</a>
</g>
</g>
<!-- course__BIOL215&#45;&gt;choice_BIOL330_0_2 -->
<g id="edge3" class="edge">
<title>course__BIOL215&#45;&gt;choice_BIOL330_0_2</title>
<path fill="none" stroke="#7a8389" d="M450.67,-198.13C470.89,-186.53 498.36,-170.77 519.6,-158.59"/>
<polygon fill="#7a8389" stroke="#7a8389" points="520.84,-160.7 525.69,-155.09 518.4,-156.45 520.84,-160.7"/>
</g>
<!-- choice_BIOL446_0_0 -->
<g id="node11" class="node">
<title>choice_BIOL446_0_0</title>
<path fill="#fff7ee" stroke="#b7793f" stroke-width="1.1" d="M917,-214C917,-214 887,-214 887,-214 881,-214 875,-208 875,-202 875,-202 875,-190 875,-190 875,-184 881,-178 887,-178 887,-178 917,-178 917,-178 923,-178 929,-184 929,-190 929,-190 929,-202 929,-202 929,-208 923,-214 917,-214"/>
<text text-anchor="middle" x="902" y="-193.8" font-family="Avenir Next" font-size="9.00">1 of</text>
</g>
<!-- course__BIOL215&#45;&gt;choice_BIOL446_0_0 -->
<g id="edge8" class="edge">
<title>course__BIOL215&#45;&gt;choice_BIOL446_0_0</title>
<path fill="none" stroke="#7a8389" d="M450.77,-212.95C533.52,-209.84 778.28,-200.62 867.76,-197.25"/>
<polygon fill="#7a8389" stroke="#7a8389" points="868.03,-199.69 874.93,-196.98 867.84,-194.8 868.03,-199.69"/>
</g>
<!-- course__BIOL230&#45;&gt;choice_BIOL330_0_2 -->
<g id="edge5" class="edge">
<title>course__BIOL230&#45;&gt;choice_BIOL330_0_2</title>
<path fill="none" stroke="#7a8389" d="M450.67,-121.15C470.63,-124.86 497.65,-129.89 518.78,-133.82"/>
<polygon fill="#7a8389" stroke="#7a8389" points="518.36,-136.23 525.69,-135.11 519.26,-131.42 518.36,-136.23"/>
</g>
<!-- course__STAT254 -->
<g id="node4" class="node">
<title>course__STAT254</title>
<g id="a_node4"><a xlink:href="../../../courses/STAT254.html" xlink:title="Collapsed in simplified view: STAT254: Probability and Statistics for Engineers | STAT255: Statistics for Life Sciences I | STAT260: Introduction to Probability and Statistics I" target="_top">
<path fill="#e6dde9" stroke="#1b2730" stroke-width="1.6" d="M453,-36C453,-36 391,-36 391,-36 385,-36 379,-30 379,-24 379,-24 379,-12 379,-12 379,-6 385,0 391,0 391,0 453,0 453,0 459,0 465,-6 465,-12 465,-12 465,-24 465,-24 465,-30 459,-36 453,-36"/>
<text text-anchor="middle" x="422" y="-15.5" font-family="Avenir Next" font-size="10.00" fill="#17232b">Intro statistics</text>
</a>
</g>
</g>
<!-- course__BIOL330 -->
<g id="node5" class="node">
<title>course__BIOL330</title>
<g id="a_node5"><a xlink:href="../../../courses/BIOL330.html" xlink:title="BIOL330: Study Design and Data Analysis" target="_top">
<path fill="#dbe8d2" stroke="#1f4f66" stroke-width="2" d="M802,-95C802,-95 653,-95 653,-95 647,-95 641,-89 641,-83 641,-83 641,-71 641,-71 641,-65 647,-59 653,-59 653,-59 802,-59 802,-59 808,-59 814,-65 814,-71 814,-71 814,-83 814,-83 814,-89 808,-95 802,-95"/>
<text text-anchor="middle" x="727.5" y="-80" font-family="Avenir Next" font-size="10.00" fill="#17232b">BIOL330</text>
<text text-anchor="middle" x="727.5" y="-69" font-family="Avenir Next" font-size="10.00" fill="#17232b">Study Design and Data Analysis</text>
</a>
</g>
</g>
<!-- course__STAT254&#45;&gt;course__BIOL330 -->
<g id="edge6" class="edge">
<title>course__STAT254&#45;&gt;course__BIOL330</title>
<path fill="none" stroke="#5d6972" stroke-width="1.2" d="M465.2,-26.2C508.55,-34.63 577.42,-48.02 633.58,-58.94"/>
<polygon fill="#5d6972" stroke="#5d6972" stroke-width="1.2" points="633.38,-61.39 640.71,-60.32 634.31,-56.58 633.38,-61.39"/>
</g>
<!-- course__BIOL461 -->
<g id="node7" class="node">
<title>course__BIOL461</title>
<g id="a_node7"><a xlink:href="../../../courses/BIOL461.html" xlink:title="BIOL461: Fisheries Ecology and Management" target="_top">
<path fill="#dbe8d2" stroke="#1b2730" stroke-width="1.6" d="M1035,-137C1035,-137 1002,-137 1002,-137 996,-137 990,-131 990,-125 990,-125 990,-113 990,-113 990,-107 996,-101 1002,-101 1002,-101 1035,-101 1035,-101 1041,-101 1047,-107 1047,-113 1047,-113 1047,-125 1047,-125 1047,-131 1041,-137 1035,-137"/>
<text text-anchor="middle" x="1018.5" y="-116.5" font-family="Avenir Next" font-size="10.00" fill="#17232b">BIOL461</text>
</a>
</g>
</g>
<!-- course__BIOL330&#45;&gt;course__BIOL461 -->
<g id="edge11" class="edge">
<title>course__BIOL330&#45;&gt;course__BIOL461</title>
<path fill="none" stroke="#5d6972" stroke-width="1.2" d="M814.04,-89.43C870.41,-97.62 941.22,-107.91 982.71,-113.94"/>
<polygon fill="#5d6972" stroke="#5d6972" stroke-width="1.2" points="982.58,-116.4 989.86,-114.98 983.28,-111.55 982.58,-116.4"/>
</g>
<!-- course__BIOL466 -->
<g id="node8" class="node">
<title>course__BIOL466</title>
<g id="a_node8"><a xlink:href="../../../courses/BIOL466.html" xlink:title="BIOL466: Frontiers in Marine Biology" target="_top">
<path fill="#dbe8d2" stroke="#1b2730" stroke-width="1.6" d="M1035,-81C1035,-81 1002,-81 1002,-81 996,-81 990,-75 990,-69 990,-69 990,-57 990,-57 990,-51 996,-45 1002,-45 1002,-45 1035,-45 1035,-45 1041,-45 1047,-51 1047,-57 1047,-57 1047,-69 1047,-69 1047,-75 1041,-81 1035,-81"/>
<text text-anchor="middle" x="1018.5" y="-60.5" font-family="Avenir Next" font-size="10.00" fill="#17232b">BIOL466</text>
</a>
</g>
</g>
<!-- course__BIOL330&#45;&gt;course__BIOL466 -->
<g id="edge12" class="edge">
<title>course__BIOL330&#45;&gt;course__BIOL466</title>
<path fill="none" stroke="#5d6972" stroke-width="1.2" d="M814.04,-72.86C870.41,-70.13 941.22,-66.7 982.71,-64.69"/>
<polygon fill="#5d6972" stroke="#5d6972" stroke-width="1.2" points="982.99,-67.12 989.86,-64.34 982.75,-62.23 982.99,-67.12"/>
</g>
<!-- course__BIOL330&#45;&gt;choice_BIOL446_0_0 -->
<g id="edge9" class="edge">
<title>course__BIOL330&#45;&gt;choice_BIOL446_0_0</title>
<path fill="none" stroke="#7a8389" d="M754.7,-95.07C785.31,-116.19 835.96,-151.13 868.9,-173.86"/>
<polygon fill="#7a8389" stroke="#7a8389" points="867.68,-175.99 874.84,-177.95 870.47,-171.96 867.68,-175.99"/>
</g>
<!-- course__BIOL446 -->
<g id="node6" class="node">
<title>course__BIOL446</title>
<g id="a_node6"><a xlink:href="../../../courses/BIOL446.html" xlink:title="BIOL446: Advanced Aquatic Ecology" target="_top">
<path fill="#dbe8d2" stroke="#1b2730" stroke-width="1.6" d="M1035,-214C1035,-214 1002,-214 1002,-214 996,-214 990,-208 990,-202 990,-202 990,-190 990,-190 990,-184 996,-178 1002,-178 1002,-178 1035,-178 1035,-178 1041,-178 1047,-184 1047,-190 1047,-190 1047,-202 1047,-202 1047,-208 1041,-214 1035,-214"/>
<text text-anchor="middle" x="1018.5" y="-193.5" font-family="Avenir Next" font-size="10.00" fill="#17232b">BIOL446</text>
</a>
</g>
</g>
<!-- BIOL330_notes -->
<g id="node9" class="node">
<title>BIOL330_notes</title>
<polygon fill="#fff7ee" stroke="#b7793f" stroke-width="1.1" points="194,-90 0,-90 0,-44 200,-44 200,-84 194,-90"/>
<polyline fill="none" stroke="#b7793f" stroke-width="1.1" points="194,-90 194,-84 "/>
<polyline fill="none" stroke="#b7793f" stroke-width="1.1" points="200,-84 194,-84 "/>
<text text-anchor="start" x="13" y="-70.4" font-family="Avenir Next" font-size="12.00">Published notes</text>
<text text-anchor="start" x="13" y="-57.4" font-family="Avenir Next" font-size="12.00">minimum third&#45;year standing</text>
</g>
<!-- BIOL330_notes&#45;&gt;course__BIOL330 -->
<!-- choice_BIOL330_0_2&#45;&gt;course__BIOL330 -->
<g id="edge7" class="edge">
<title>choice_BIOL330_0_2&#45;&gt;course__BIOL330</title>
<path fill="none" stroke="#5d6972" stroke-width="1.2" d="M580.2,-130.43C604.03,-121.73 640.01,-108.59 670.32,-97.52"/>
<polygon fill="#5d6972" stroke="#5d6972" stroke-width="1.2" points="671.36,-99.75 677.1,-95.04 669.68,-95.14 671.36,-99.75"/>
</g>
<!-- choice_BIOL446_0_0&#45;&gt;course__BIOL446 -->
<g id="edge10" class="edge">
<title>choice_BIOL446_0_0&#45;&gt;course__BIOL446</title>
<path fill="none" stroke="#5d6972" stroke-width="1.2" d="M929.27,-196C945.1,-196 965.45,-196 982.62,-196"/>
<polygon fill="#5d6972" stroke="#5d6972" stroke-width="1.2" points="982.76,-198.45 989.76,-196 982.76,-193.55 982.76,-198.45"/>
</g>
</g>
</svg>
