<?xml version="1.0" encoding="UTF-8" standalone="no"?>
<!DOCTYPE svg PUBLIC "-//W3C//DTD SVG 1.1//EN"
 "http://www.w3.org/Graphics/SVG/1.1/DTD/svg11.dtd">
<!-- Generated by graphviz version 2.43.0 (0)
 -->
<!-- Title: BIOL499A Pages: 1 -->
<svg width="593pt" height="89pt"
 viewBox="0.00 0.00 593.20 89.20" xmlns="http://www.w3.org/2000/svg" xmlns:xlink="http://www.w3.org/1999/xlink">
<g id="graph0" class="graph" transform="scale(1 1) rotate(0) translate(21.6 67.6)">
<title>BIOL499A</title>
<!-- course__BIOL499A -->
<g id="node1" class="node">
<title>course__BIOL499A</title>
<g id="a_node1"><a xlink:href="../../../courses/BIOL499A.html" xlink:title="BIOL499A: Honours Thesis I" target="_top">
<path fill="#dbe8d2" stroke="#1f4f66" stroke-width="2" d="M413,-41C413,-41 339,-41 339,-41 333,-41 327,-35 327,-29 327,-29 327,-17 327,-17 327,-11 333,-5 339,-5 339,-5 413,-5 413,-5 419,-5 425,-11 425,-17 425,-17 425,-29 425,-29 425,-35 419,-41 413,-41"/>
<text text-anchor="middle" x="376" y="-26" font-family="Avenir Next" font-size="10.00" fill="#17232b">BIOL499A</text>
<text text-anchor="middle" x="376" y="-15" font-family="Avenir Next" font-size="10.00" fill="#17232b">Honours Thesis I</text>
</a>
</g>
</g>
<!-- course__BIOL499B -->
<g id="node2" class="node">
<title>course__BIOL499B</title>
<g id="a_node2"><a xlink:href="../../../courses/BIOL499B.html" xlink:title="BIOL499B: Honours Thesis II" target="_top">
<path fill="#dbe8d2" stroke="#1b2730" stroke-width="1.6" d="M538,-41C538,-41 498,-41 498,-41 492,-41 486,-35 486,-29 486,-29 486,-17 486,-17 486,-11 492,-5 498,-5 498,-5 538,-5 538,-5 544,-5 550,-11 550,-17 550,-17 550,-29 550,-29 550,-35 544,-41 538,-41"/>
<text text-anchor="middle" x="518" y="-20.5" font-family="Avenir Next" font-size="10.00" fill="#17232b">BIOL499B</text>
</a>
</g>
</g>
<!-- course__BIOL499A&#45;&gt;course__BIOL499B -->
<g id="edge2" class="edge">
<title>course__BIOL499A&#45;&gt;course__BIOL499B</title>
<path fill="none" stroke="#5d6972" stroke-width="1.2" d="M425.18,-23C442.6,-23 462.03,-23 478.51,-23"/>
<polygon fill="#5d6972" stroke="#5d6972" stroke-width="1.2" points="478.86,-25.45 485.86,-23 478.86,-20.55 478.86,-25.45"/>
</g>
<!-- BIOL499A_notes -->
<g id="node3" class="node">
<title>BIOL499A_notes</title>
<polygon fill="#fff7ee" stroke="#b7793f" stroke-width="1.1" points="198,-46 0,-46 0,0 204,0 204,-40 198,-46"/>
<polyline fill="none" stroke="#b7793f" stroke-width="1.1" points="198,-46 198,-40 "/>
<polyline fill="none" stroke="#b7793f" stroke-width="1.1" points="204,-40 198,-40 "/>
<text text-anchor="start" x="13" y="-26.4" font-family="Avenir Next" font-size="12.00">Published notes</text>
<text text-anchor="start" x="13" y="-13.4" font-family="Avenir Next" font-size="12.00">Permission of the department</text>
</g>
<!-- BIOL499A_notes&#45;&gt;course__BIOL499A -->
</g>
</svg>
