<?xml version="1.0" encoding="UTF-8" standalone="no"?>
<!DOCTYPE svg PUBLIC "-//W3C//DTD SVG 1.1//EN"
 "http://www.w3.org/Graphics/SVG/1.1/DTD/svg11.dtd">
<!-- Generated by graphviz version 2.43.0 (0)
 -->
<!-- Title: BIOL370 Pages: 1 -->
<svg width="1200pt" height="331pt"
 viewBox="0.00 0.00 1200.20 331.09" xmlns="http://www.w3.org/2000/svg" xmlns:xlink="http://www.w3.org/1999/xlink">
<g id="graph0" class="graph" transform="scale(1 1) rotate(0) translate(21.6 309.49)">
<title>BIOL370</title>
<!-- course__BIOL150A -->
<g id="node1" class="node">
<title>course__BIOL150A</title>
<g id="a_node1"><a xlink:href="../../../courses/BIOL150A.html" xlink:title="BIOL150A: Modern Biology" target="_top">
<path fill="#dbe8d2" stroke="#7e8d96" d="M74.5,-207C74.5,-207 36.5,-207 36.5,-207 30.5,-207 24.5,-201 24.5,-195 24.5,-195 24.5,-183 24.5,-183 24.5,-177 30.5,-171 36.5,-171 36.5,-171 74.5,-171 74.5,-171 80.5,-171 86.5,-177 86.5,-183 86.5,-183 86.5,-195 86.5,-195 86.5,-201 80.5,-207 74.5,-207"/>
<text text-anchor="middle" x="55.5" y="-186.8" font-family="Avenir Next" font-size="9.00" fill="#41515b">BIOL150A</text>
</a>
</g>
</g>
<!-- choice_BIOL184_0_0 -->
<g id="node16" class="node">
<title>choice_BIOL184_0_0</title>
<path fill="#fff7ee" stroke="#b7793f" stroke-width="1.1" d="M214,-235C214,-235 184,-235 184,-235 178,-235 172,-229 172,-223 172,-223 172,-211 172,-211 172,-205 178,-199 184,-199 184,-199 214,-199 214,-199 220,-199 226,-205 226,-211 226,-211 226,-223 226,-223 226,-229 220,-235 214,-235"/>
<text text-anchor="middle" x="199" y="-214.8" font-family="Avenir Next" font-size="9.00">1 of</text>
</g>
<!-- course__BIOL150A&#45;&gt;choice_BIOL184_0_0 -->
<g id="edge1" class="edge">
<title>course__BIOL150A&#45;&gt;choice_BIOL184_0_0</title>
<path fill="none" stroke="#7a8389" d="M86.51,-194.94C109.45,-199.48 141.05,-205.73 164.76,-210.42"/>
<polygon fill="#7a8389" stroke="#7a8389" points="164.5,-212.87 171.84,-211.82 165.45,-208.06 164.5,-212.87"/>
</g>
<!-- choice_BIOL186_0_0 -->
<g id="node17" class="node">
<title>choice_BIOL186_0_0</title>
<path fill="#fff7ee" stroke="#b7793f" stroke-width="1.1" d="M532.5,-225C532.5,-225 502.5,-225 502.5,-225 496.5,-225 490.5,-219 490.5,-213 490.5,-213 490.5,-201 490.5,-201 490.5,-195 496.5,-189 502.5,-189 502.5,-189 532.5,-189 532.5,-189 538.5,-189 544.5,-195 544.5,-201 544.5,-201 544.5,-213 544.5,-213 544.5,-219 538.5,-225 532.5,-225"/>
<text text-anchor="middle" x="517.5" y="-204.8" font-family="Avenir Next" font-size="9.00">1 of</text>
</g>
<!-- course__BIOL150A&#45;&gt;choice_BIOL186_0_0 -->
<g id="edge4" class="edge">
<title>course__BIOL150A&#45;&gt;choice_BIOL186_0_0</title>
<path fill="none" stroke="#7a8389" d="M86.51,-187.44C146.41,-184.68 285.02,-180.02 401,-189 428.93,-191.16 460.33,-196.23 483.33,-200.44"/>
<polygon fill="#7a8389" stroke="#7a8389" points="483.16,-202.9 490.49,-201.77 484.05,-198.08 483.16,-202.9"/>
</g>
<!-- course__BIOL186 -->
<g id="node2" class="node">
<title>course__BIOL186</title>
<g id="a_node2"><a xlink:href="../../../courses/BIOL186.html" xlink:title="BIOL186: Physiology and Cell Biology" target="_top">
<path fill="#dbe8d2" stroke="#1b2730" stroke-width="1.6" d="M72,-284C72,-284 39,-284 39,-284 33,-284 27,-278 27,-272 27,-272 27,-260 27,-260 27,-254 33,-248 39,-248 39,-248 72,-248 72,-248 78,-248 84,-254 84,-260 84,-260 84,-272 84,-272 84,-278 78,-284 72,-284"/>
<text text-anchor="middle" x="55.5" y="-263.5" font-family="Avenir Next" font-size="10.00" fill="#17232b">BIOL186</text>
</a>
</g>
</g>
<!-- course__BIOL225 -->
<g id="node7" class="node">
<title>course__BIOL225</title>
<g id="a_node7"><a xlink:href="../../../courses/BIOL225.html" xlink:title="BIOL225: Principles of Cell Biology" target="_top">
<path fill="#dbe8d2" stroke="#7e8d96" d="M533.5,-281C533.5,-281 501.5,-281 501.5,-281 495.5,-281 489.5,-275 489.5,-269 489.5,-269 489.5,-257 489.5,-257 489.5,-251 495.5,-245 501.5,-245 501.5,-245 533.5,-245 533.5,-245 539.5,-245 545.5,-251 545.5,-257 545.5,-257 545.5,-269 545.5,-269 545.5,-275 539.5,-281 533.5,-281"/>
<text text-anchor="middle" x="517.5" y="-260.8" font-family="Avenir Next" font-size="9.00" fill="#41515b">BIOL225</text>
</a>
</g>
</g>
<!-- course__BIOL186&#45;&gt;course__BIOL225 -->
<g id="edge7" class="edge">
<title>course__BIOL186&#45;&gt;course__BIOL225</title>
<path fill="none" stroke="#5d6972" stroke-width="1.2" d="M84.39,-270.96C107.72,-274.85 141.91,-279.93 172,-282 273.54,-289 299.56,-290.29 401,-282 428.41,-279.76 459.13,-274.58 481.99,-270.19"/>
<polygon fill="#5d6972" stroke="#5d6972" stroke-width="1.2" points="482.72,-272.54 489.12,-268.8 481.78,-267.73 482.72,-272.54"/>
</g>
<!-- course__BIOL186&#45;&gt;choice_BIOL184_0_0 -->
<g id="edge2" class="edge">
<title>course__BIOL186&#45;&gt;choice_BIOL184_0_0</title>
<path fill="none" stroke="#7a8389" d="M84.12,-256.44C107.35,-248.39 140.61,-236.87 165.2,-228.36"/>
<polygon fill="#7a8389" stroke="#7a8389" points="166.07,-230.65 171.88,-226.04 164.47,-226.02 166.07,-230.65"/>
</g>
<!-- course__MATH100 -->
<g id="node3" class="node">
<title>course__MATH100</title>
<g id="a_node3"><a xlink:href="../../../courses/MATH100.html" xlink:title="Equivalent or cross&#45;listed: MATH100: Calculus I | MATH102: Calculus for Students in the Social and Biological Sciences | MATH109: Introduction to Calculus" target="_top">
<path fill="#dfe3f4" stroke="#7e8d96" d="M99,-67C99,-67 12,-67 12,-67 6,-67 0,-61 0,-55 0,-55 0,-43 0,-43 0,-37 6,-31 12,-31 12,-31 99,-31 99,-31 105,-31 111,-37 111,-43 111,-43 111,-55 111,-55 111,-61 105,-67 99,-67"/>
<text text-anchor="middle" x="55.5" y="-51.8" font-family="Avenir Next" font-size="9.00" fill="#41515b">MATH100 / MATH102</text>
<text text-anchor="middle" x="55.5" y="-41.8" font-family="Avenir Next" font-size="9.00" fill="#41515b">MATH109</text>
</a>
</g>
</g>
<!-- course__MATH101 -->
<g id="node6" class="node">
<title>course__MATH101</title>
<g id="a_node6"><a xlink:href="../../../courses/MATH101.html" xlink:title="MATH101: Calculus II" target="_top">
<path fill="#dfe3f4" stroke="#7e8d96" d="M361.5,-67C361.5,-67 326.5,-67 326.5,-67 320.5,-67 314.5,-61 314.5,-55 314.5,-55 314.5,-43 314.5,-43 314.5,-37 320.5,-31 326.5,-31 326.5,-31 361.5,-31 361.5,-31 367.5,-31 373.5,-37 373.5,-43 373.5,-43 373.5,-55 373.5,-55 373.5,-61 367.5,-67 361.5,-67"/>
<text text-anchor="middle" x="344" y="-46.8" font-family="Avenir Next" font-size="9.00" fill="#41515b">MATH101</text>
</a>
</g>
</g>
<!-- course__MATH100&#45;&gt;course__MATH101 -->
<g id="edge18" class="edge">
<title>course__MATH100&#45;&gt;course__MATH101</title>
<path fill="none" stroke="#5d6972" stroke-width="1.2" d="M111.06,-49C168.66,-49 257.81,-49 307.12,-49"/>
<polygon fill="#5d6972" stroke="#5d6972" stroke-width="1.2" points="307.39,-51.45 314.39,-49 307.39,-46.55 307.39,-51.45"/>
</g>
<!-- course__BIOL184 -->
<g id="node4" class="node">
<title>course__BIOL184</title>
<g id="a_node4"><a xlink:href="../../../courses/BIOL184.html" xlink:title="BIOL184: Evolution and Biodiversity" target="_top">
<path fill="#dbe8d2" stroke="#7e8d96" d="M360,-235C360,-235 328,-235 328,-235 322,-235 316,-229 316,-223 316,-223 316,-211 316,-211 316,-205 322,-199 328,-199 328,-199 360,-199 360,-199 366,-199 372,-205 372,-211 372,-211 372,-223 372,-223 372,-229 366,-235 360,-235"/>
<text text-anchor="middle" x="344" y="-214.8" font-family="Avenir Next" font-size="9.00" fill="#41515b">BIOL184</text>
</a>
</g>
</g>
<!-- course__BIOL184&#45;&gt;course__BIOL225 -->
<g id="edge8" class="edge">
<title>course__BIOL184&#45;&gt;course__BIOL225</title>
<path fill="none" stroke="#5d6972" stroke-width="1.2" d="M372.17,-224.29C402.03,-232.3 450.03,-245.17 482.39,-253.85"/>
<polygon fill="#5d6972" stroke="#5d6972" stroke-width="1.2" points="482.06,-256.3 489.45,-255.75 483.33,-251.57 482.06,-256.3"/>
</g>
<!-- course__BIOL184&#45;&gt;choice_BIOL186_0_0 -->
<g id="edge5" class="edge">
<title>course__BIOL184&#45;&gt;choice_BIOL186_0_0</title>
<path fill="none" stroke="#7a8389" d="M372.17,-215.42C402.29,-213.66 450.88,-210.83 483.25,-208.94"/>
<polygon fill="#7a8389" stroke="#7a8389" points="483.45,-211.38 490.3,-208.53 483.17,-206.49 483.45,-211.38"/>
</g>
<!-- course__CHEM101 -->
<g id="node5" class="node">
<title>course__CHEM101</title>
<g id="a_node5"><a xlink:href="../../../courses/CHEM101.html" xlink:title="Equivalent or cross&#45;listed: CHEM101: Fundamentals of Chemistry from Atoms to Materials | CHEM150: Engineering Chemistry" target="_top">
<path fill="#ead9b8" stroke="#7e8d96" d="M389,-137C389,-137 299,-137 299,-137 293,-137 287,-131 287,-125 287,-125 287,-113 287,-113 287,-107 293,-101 299,-101 299,-101 389,-101 389,-101 395,-101 401,-107 401,-113 401,-113 401,-125 401,-125 401,-131 395,-137 389,-137"/>
<text text-anchor="middle" x="344" y="-116.8" font-family="Avenir Next" font-size="9.00" fill="#41515b">CHEM101 / CHEM150</text>
</a>
</g>
</g>
<!-- course__CHEM231 -->
<g id="node8" class="node">
<title>course__CHEM231</title>
<g id="a_node8"><a xlink:href="../../../courses/CHEM231.html" xlink:title="CHEM231: Introduction to Organic Chemistry" target="_top">
<path fill="#ead9b8" stroke="#7e8d96" d="M536,-148C536,-148 499,-148 499,-148 493,-148 487,-142 487,-136 487,-136 487,-124 487,-124 487,-118 493,-112 499,-112 499,-112 536,-112 536,-112 542,-112 548,-118 548,-124 548,-124 548,-136 548,-136 548,-142 542,-148 536,-148"/>
<text text-anchor="middle" x="517.5" y="-127.8" font-family="Avenir Next" font-size="9.00" fill="#41515b">CHEM231</text>
</a>
</g>
</g>
<!-- course__CHEM101&#45;&gt;course__CHEM231 -->
<g id="edge17" class="edge">
<title>course__CHEM101&#45;&gt;course__CHEM231</title>
<path fill="none" stroke="#5d6972" stroke-width="1.2" d="M401.16,-122.6C426.89,-124.25 456.69,-126.16 479.55,-127.63"/>
<polygon fill="#5d6972" stroke="#5d6972" stroke-width="1.2" points="479.57,-130.09 486.71,-128.09 479.88,-125.2 479.57,-130.09"/>
</g>
<!-- course__MATH200 -->
<g id="node9" class="node">
<title>course__MATH200</title>
<g id="a_node9"><a xlink:href="../../../courses/MATH200.html" xlink:title="Equivalent or cross&#45;listed: MATH200: Calculus III | MATH202: Intermediate Calculus for CSC and EOS" target="_top">
<path fill="#dfe3f4" stroke="#7e8d96" d="M561,-92C561,-92 474,-92 474,-92 468,-92 462,-86 462,-80 462,-80 462,-68 462,-68 462,-62 468,-56 474,-56 474,-56 561,-56 561,-56 567,-56 573,-62 573,-68 573,-68 573,-80 573,-80 573,-86 567,-92 561,-92"/>
<text text-anchor="middle" x="517.5" y="-71.8" font-family="Avenir Next" font-size="9.00" fill="#41515b">MATH200 / MATH202</text>
</a>
</g>
</g>
<!-- course__MATH101&#45;&gt;course__MATH200 -->
<g id="edge19" class="edge">
<title>course__MATH101&#45;&gt;course__MATH200</title>
<path fill="none" stroke="#5d6972" stroke-width="1.2" d="M373.71,-53.18C395.77,-56.4 427.06,-60.96 454.72,-64.99"/>
<polygon fill="#5d6972" stroke="#5d6972" stroke-width="1.2" points="454.39,-67.42 461.67,-66.01 455.1,-62.57 454.39,-67.42"/>
</g>
<!-- course__STAT254 -->
<g id="node12" class="node">
<title>course__STAT254</title>
<g id="a_node12"><a xlink:href="../../../courses/STAT254.html" xlink:title="Equivalent or cross&#45;listed: STAT254: Probability and Statistics for Engineers | STAT260: Introduction to Probability and Statistics I" target="_top">
<path fill="#e6dde9" stroke="#1b2730" stroke-width="1.6" d="M730,-92C730,-92 646,-92 646,-92 640,-92 634,-86 634,-80 634,-80 634,-68 634,-68 634,-62 640,-56 646,-56 646,-56 730,-56 730,-56 736,-56 742,-62 742,-68 742,-68 742,-80 742,-80 742,-86 736,-92 730,-92"/>
<text text-anchor="middle" x="688" y="-71.5" font-family="Avenir Next" font-size="10.00" fill="#17232b">STAT254 / STAT260</text>
</a>
</g>
</g>
<!-- course__MATH101&#45;&gt;course__STAT254 -->
<g id="edge21" class="edge">
<title>course__MATH101&#45;&gt;course__STAT254</title>
<path fill="none" stroke="#5d6972" stroke-width="1.2" d="M373.57,-46.19C416.88,-42.48 501.67,-37.37 573,-46 590.77,-48.15 609.77,-52.12 627.06,-56.41"/>
<polygon fill="#5d6972" stroke="#5d6972" stroke-width="1.2" points="626.46,-58.79 633.85,-58.13 627.66,-54.04 626.46,-58.79"/>
</g>
<!-- course__BIOL230 -->
<g id="node11" class="node">
<title>course__BIOL230</title>
<g id="a_node11"><a xlink:href="../../../courses/BIOL230.html" xlink:title="BIOL230: Principles of Genetics" target="_top">
<path fill="#dbe8d2" stroke="#1b2730" stroke-width="1.6" d="M704.5,-148C704.5,-148 671.5,-148 671.5,-148 665.5,-148 659.5,-142 659.5,-136 659.5,-136 659.5,-124 659.5,-124 659.5,-118 665.5,-112 671.5,-112 671.5,-112 704.5,-112 704.5,-112 710.5,-112 716.5,-118 716.5,-124 716.5,-124 716.5,-136 716.5,-136 716.5,-142 710.5,-148 704.5,-148"/>
<text text-anchor="middle" x="688" y="-127.5" font-family="Avenir Next" font-size="10.00" fill="#17232b">BIOL230</text>
</a>
</g>
</g>
<!-- course__BIOL225&#45;&gt;course__BIOL230 -->
<g id="edge9" class="edge">
<title>course__BIOL225&#45;&gt;course__BIOL230</title>
<path fill="none" stroke="#5d6972" stroke-width="1.2" d="M545.67,-251.87C554.87,-247.39 564.86,-241.68 573,-235 606.74,-207.29 600.42,-185.91 634,-158 639.64,-153.31 646.2,-149.08 652.73,-145.41"/>
<polygon fill="#5d6972" stroke="#5d6972" stroke-width="1.2" points="654.21,-147.4 659.23,-141.94 651.9,-143.08 654.21,-147.4"/>
</g>
<!-- course__CHEM231&#45;&gt;course__BIOL230 -->
<g id="edge10" class="edge">
<title>course__CHEM231&#45;&gt;course__BIOL230</title>
<path fill="none" stroke="#5d6972" stroke-width="1.2" d="M548.24,-130C577.28,-130 621.46,-130 652.13,-130"/>
<polygon fill="#5d6972" stroke="#5d6972" stroke-width="1.2" points="652.24,-132.45 659.24,-130 652.24,-127.55 652.24,-132.45"/>
</g>
<!-- course__MATH200&#45;&gt;course__STAT254 -->
<g id="edge20" class="edge">
<title>course__MATH200&#45;&gt;course__STAT254</title>
<path fill="none" stroke="#5d6972" stroke-width="1.2" d="M573.21,-74C590.19,-74 609.01,-74 626.37,-74"/>
<polygon fill="#5d6972" stroke="#5d6972" stroke-width="1.2" points="626.72,-76.45 633.72,-74 626.72,-71.55 626.72,-76.45"/>
</g>
<!-- course__BIOL215 -->
<g id="node10" class="node">
<title>course__BIOL215</title>
<g id="a_node10"><a xlink:href="../../../courses/BIOL215.html" xlink:title="BIOL215: Principles of Ecology" target="_top">
<path fill="#dbe8d2" stroke="#1b2730" stroke-width="1.6" d="M704.5,-204C704.5,-204 671.5,-204 671.5,-204 665.5,-204 659.5,-198 659.5,-192 659.5,-192 659.5,-180 659.5,-180 659.5,-174 665.5,-168 671.5,-168 671.5,-168 704.5,-168 704.5,-168 710.5,-168 716.5,-174 716.5,-180 716.5,-180 716.5,-192 716.5,-192 716.5,-198 710.5,-204 704.5,-204"/>
<text text-anchor="middle" x="688" y="-183.5" font-family="Avenir Next" font-size="10.00" fill="#17232b">BIOL215</text>
</a>
</g>
</g>
<!-- course__BIOL370 -->
<g id="node14" class="node">
<title>course__BIOL370</title>
<g id="a_node14"><a xlink:href="../../../courses/BIOL370.html" xlink:title="BIOL370: Conservation Biology" target="_top">
<path fill="#dbe8d2" stroke="#1f4f66" stroke-width="2" d="M1027,-148C1027,-148 930,-148 930,-148 924,-148 918,-142 918,-136 918,-136 918,-124 918,-124 918,-118 924,-112 930,-112 930,-112 1027,-112 1027,-112 1033,-112 1039,-118 1039,-124 1039,-124 1039,-136 1039,-136 1039,-142 1033,-148 1027,-148"/>
<text text-anchor="middle" x="978.5" y="-133" font-family="Avenir Next" font-size="10.00" fill="#17232b">BIOL370</text>
<text text-anchor="middle" x="978.5" y="-122" font-family="Avenir Next" font-size="10.00" fill="#17232b">Conservation Biology</text>
</a>
</g>
</g>
<!-- course__BIOL215&#45;&gt;course__BIOL370 -->
<g id="edge13" class="edge">
<title>course__BIOL215&#45;&gt;course__BIOL370</title>
<path fill="none" stroke="#5d6972" stroke-width="1.2" d="M716.66,-180.63C761,-172.02 849.23,-154.9 910.74,-142.96"/>
<polygon fill="#5d6972" stroke="#5d6972" stroke-width="1.2" points="911.32,-145.34 917.73,-141.6 910.39,-140.53 911.32,-145.34"/>
</g>
<!-- course__BIOL230&#45;&gt;course__BIOL370 -->
<g id="edge14" class="edge">
<title>course__BIOL230&#45;&gt;course__BIOL370</title>
<path fill="none" stroke="#5d6972" stroke-width="1.2" d="M716.66,-130C760.91,-130 848.88,-130 910.36,-130"/>
<polygon fill="#5d6972" stroke="#5d6972" stroke-width="1.2" points="910.73,-132.45 917.73,-130 910.73,-127.55 910.73,-132.45"/>
</g>
<!-- choice_BIOL370_0_2 -->
<g id="node18" class="node">
<title>choice_BIOL370_0_2</title>
<path fill="#fff7ee" stroke="#b7793f" stroke-width="1.1" d="M845,-92C845,-92 815,-92 815,-92 809,-92 803,-86 803,-80 803,-80 803,-68 803,-68 803,-62 809,-56 815,-56 815,-56 845,-56 845,-56 851,-56 857,-62 857,-68 857,-68 857,-80 857,-80 857,-86 851,-92 845,-92"/>
<text text-anchor="middle" x="830" y="-71.8" font-family="Avenir Next" font-size="9.00">1 of</text>
</g>
<!-- course__STAT254&#45;&gt;choice_BIOL370_0_2 -->
<g id="edge12" class="edge">
<title>course__STAT254&#45;&gt;choice_BIOL370_0_2</title>
<path fill="none" stroke="#7a8389" d="M742.33,-74C760.29,-74 779.8,-74 795.76,-74"/>
<polygon fill="#7a8389" stroke="#7a8389" points="795.82,-76.45 802.82,-74 795.82,-71.55 795.82,-76.45"/>
</g>
<!-- course__STAT255 -->
<g id="node13" class="node">
<title>course__STAT255</title>
<g id="a_node13"><a xlink:href="../../../courses/STAT255.html" xlink:title="STAT255: Statistics for Life Sciences I" target="_top">
<path fill="#e6dde9" stroke="#1b2730" stroke-width="1.6" d="M705,-36C705,-36 671,-36 671,-36 665,-36 659,-30 659,-24 659,-24 659,-12 659,-12 659,-6 665,0 671,0 671,0 705,0 705,0 711,0 717,-6 717,-12 717,-12 717,-24 717,-24 717,-30 711,-36 705,-36"/>
<text text-anchor="middle" x="688" y="-15.5" font-family="Avenir Next" font-size="10.00" fill="#17232b">STAT255</text>
</a>
</g>
</g>
<!-- course__STAT255&#45;&gt;choice_BIOL370_0_2 -->
<g id="edge11" class="edge">
<title>course__STAT255&#45;&gt;choice_BIOL370_0_2</title>
<path fill="none" stroke="#7a8389" d="M717.33,-29.33C740.12,-38.45 772.17,-51.27 796.09,-60.84"/>
<polygon fill="#7a8389" stroke="#7a8389" points="795.2,-63.12 802.61,-63.44 797.02,-58.57 795.2,-63.12"/>
</g>
<!-- course__BIOL461 -->
<g id="node15" class="node">
<title>course__BIOL461</title>
<g id="a_node15"><a xlink:href="../../../courses/BIOL461.html" xlink:title="BIOL461: Fisheries Ecology and Management" target="_top">
<path fill="#dbe8d2" stroke="#1b2730" stroke-width="1.6" d="M1145,-148C1145,-148 1112,-148 1112,-148 1106,-148 1100,-142 1100,-136 1100,-136 1100,-124 1100,-124 1100,-118 1106,-112 1112,-112 1112,-112 1145,-112 1145,-112 1151,-112 1157,-118 1157,-124 1157,-124 1157,-136 1157,-136 1157,-142 1151,-148 1145,-148"/>
<text text-anchor="middle" x="1128.5" y="-127.5" font-family="Avenir Next" font-size="10.00" fill="#17232b">BIOL461</text>
</a>
</g>
</g>
<!-- course__BIOL370&#45;&gt;course__BIOL461 -->
<g id="edge16" class="edge">
<title>course__BIOL370&#45;&gt;course__BIOL461</title>
<path fill="none" stroke="#5d6972" stroke-width="1.2" d="M1039.27,-130C1057.5,-130 1076.92,-130 1092.89,-130"/>
<polygon fill="#5d6972" stroke="#5d6972" stroke-width="1.2" points="1092.97,-132.45 1099.97,-130 1092.97,-127.55 1092.97,-132.45"/>
</g>
<!-- choice_BIOL184_0_0&#45;&gt;course__BIOL184 -->
<g id="edge3" class="edge">
<title>choice_BIOL184_0_0&#45;&gt;course__BIOL184</title>
<path fill="none" stroke="#5d6972" stroke-width="1.2" d="M226.23,-217C249.42,-217 283.4,-217 308.74,-217"/>
<polygon fill="#5d6972" stroke="#5d6972" stroke-width="1.2" points="308.97,-219.45 315.97,-217 308.97,-214.55 308.97,-219.45"/>
</g>
<!-- choice_BIOL186_0_0&#45;&gt;course__BIOL186 -->
<g id="edge6" class="edge">
<title>choice_BIOL186_0_0&#45;&gt;course__BIOL186</title>
<path fill="none" stroke="#5d6972" stroke-width="1.2" d="M490.4,-217.73C467.32,-226.7 432.51,-238.96 401,-245 289.31,-266.41 153.89,-267.61 91.3,-266.81"/>
<polygon fill="#5d6972" stroke="#5d6972" stroke-width="1.2" points="91.07,-264.35 84.04,-266.7 91,-269.25 91.07,-264.35"/>
</g>
<!-- choice_BIOL370_0_2&#45;&gt;course__BIOL370 -->
<g id="edge15" class="edge">
<title>choice_BIOL370_0_2&#45;&gt;course__BIOL370</title>
<path fill="none" stroke="#5d6972" stroke-width="1.2" d="M857.19,-84.01C875.62,-91.06 900.94,-100.73 923.59,-109.39"/>
<polygon fill="#5d6972" stroke="#5d6972" stroke-width="1.2" points="922.8,-111.71 930.22,-111.93 924.55,-107.14 922.8,-111.71"/>
</g>
</g>
</svg>
