<?xml version="1.0" encoding="UTF-8" standalone="no"?>
<!DOCTYPE svg PUBLIC "-//W3C//DTD SVG 1.1//EN"
 "http://www.w3.org/Graphics/SVG/1.1/DTD/svg11.dtd">
<!-- Generated by graphviz version 2.43.0 (0)
 -->
<!-- Title: BIOL466 Pages: 1 -->
<svg width="1504pt" height="859pt"
 viewBox="0.00 0.00 1504.20 859.20" xmlns="http://www.w3.org/2000/svg" xmlns:xlink="http://www.w3.org/1999/xlink">
<g id="graph0" class="graph" transform="scale(1 1) rotate(0) translate(21.6 837.6)">
<title>BIOL466</title>
<!-- course__BIOL150A -->
<g id="node1" class="node">
<title>course__BIOL150A</title>
<g id="a_node1"><a xlink:href="../../../courses/BIOL150A.html" xlink:title="BIOL150A: Modern Biology" target="_top">
<path fill="#dbe8d2" stroke="#7e8d96" d="M74.5,-816C74.5,-816 36.5,-816 36.5,-816 30.5,-816 24.5,-810 24.5,-804 24.5,-804 24.5,-792 24.5,-792 24.5,-786 30.5,-780 36.5,-780 36.5,-780 74.5,-780 74.5,-780 80.5,-780 86.5,-786 86.5,-792 86.5,-792 86.5,-804 86.5,-804 86.5,-810 80.5,-816 74.5,-816"/>
<text text-anchor="middle" x="55.5" y="-795.8" font-family="Avenir Next" font-size="9.00" fill="#41515b">BIOL150A</text>
</a>
</g>
</g>
<!-- choice_BIOL184_0_0 -->
<g id="node26" class="node">
<title>choice_BIOL184_0_0</title>
<path fill="#fff7ee" stroke="#b7793f" stroke-width="1.1" d="M532.5,-788C532.5,-788 502.5,-788 502.5,-788 496.5,-788 490.5,-782 490.5,-776 490.5,-776 490.5,-764 490.5,-764 490.5,-758 496.5,-752 502.5,-752 502.5,-752 532.5,-752 532.5,-752 538.5,-752 544.5,-758 544.5,-764 544.5,-764 544.5,-776 544.5,-776 544.5,-782 538.5,-788 532.5,-788"/>
<text text-anchor="middle" x="517.5" y="-767.8" font-family="Avenir Next" font-size="9.00">1 of</text>
</g>
<!-- course__BIOL150A&#45;&gt;choice_BIOL184_0_0 -->
<g id="edge1" class="edge">
<title>course__BIOL150A&#45;&gt;choice_BIOL184_0_0</title>
<path fill="none" stroke="#7a8389" d="M86.59,-800.39C146.64,-804.63 285.49,-811.8 401,-798 429.22,-794.63 460.51,-786.78 483.4,-780.25"/>
<polygon fill="#7a8389" stroke="#7a8389" points="484.18,-782.57 490.22,-778.27 482.81,-777.86 484.18,-782.57"/>
</g>
<!-- choice_BIOL186_0_0 -->
<g id="node27" class="node">
<title>choice_BIOL186_0_0</title>
<path fill="#fff7ee" stroke="#b7793f" stroke-width="1.1" d="M214,-788C214,-788 184,-788 184,-788 178,-788 172,-782 172,-776 172,-776 172,-764 172,-764 172,-758 178,-752 184,-752 184,-752 214,-752 214,-752 220,-752 226,-758 226,-764 226,-764 226,-776 226,-776 226,-782 220,-788 214,-788"/>
<text text-anchor="middle" x="199" y="-767.8" font-family="Avenir Next" font-size="9.00">1 of</text>
</g>
<!-- course__BIOL150A&#45;&gt;choice_BIOL186_0_0 -->
<g id="edge4" class="edge">
<title>course__BIOL150A&#45;&gt;choice_BIOL186_0_0</title>
<path fill="none" stroke="#7a8389" d="M86.51,-792.06C109.45,-787.52 141.05,-781.27 164.76,-776.58"/>
<polygon fill="#7a8389" stroke="#7a8389" points="165.45,-778.94 171.84,-775.18 164.5,-774.13 165.45,-778.94"/>
</g>
<!-- course__BIOL184 -->
<g id="node2" class="node">
<title>course__BIOL184</title>
<g id="a_node2"><a xlink:href="../../../courses/BIOL184.html" xlink:title="BIOL184: Evolution and Biodiversity" target="_top">
<path fill="#dbe8d2" stroke="#7e8d96" d="M71.5,-739C71.5,-739 39.5,-739 39.5,-739 33.5,-739 27.5,-733 27.5,-727 27.5,-727 27.5,-715 27.5,-715 27.5,-709 33.5,-703 39.5,-703 39.5,-703 71.5,-703 71.5,-703 77.5,-703 83.5,-709 83.5,-715 83.5,-715 83.5,-727 83.5,-727 83.5,-733 77.5,-739 71.5,-739"/>
<text text-anchor="middle" x="55.5" y="-718.8" font-family="Avenir Next" font-size="9.00" fill="#41515b">BIOL184</text>
</a>
</g>
</g>
<!-- course__BIOL225 -->
<g id="node7" class="node">
<title>course__BIOL225</title>
<g id="a_node7"><a xlink:href="../../../courses/BIOL225.html" xlink:title="BIOL225: Principles of Cell Biology" target="_top">
<path fill="#dbe8d2" stroke="#7e8d96" d="M533.5,-715C533.5,-715 501.5,-715 501.5,-715 495.5,-715 489.5,-709 489.5,-703 489.5,-703 489.5,-691 489.5,-691 489.5,-685 495.5,-679 501.5,-679 501.5,-679 533.5,-679 533.5,-679 539.5,-679 545.5,-685 545.5,-691 545.5,-691 545.5,-703 545.5,-703 545.5,-709 539.5,-715 533.5,-715"/>
<text text-anchor="middle" x="517.5" y="-694.8" font-family="Avenir Next" font-size="9.00" fill="#41515b">BIOL225</text>
</a>
</g>
</g>
<!-- course__BIOL184&#45;&gt;course__BIOL225 -->
<g id="edge8" class="edge">
<title>course__BIOL184&#45;&gt;course__BIOL225</title>
<path fill="none" stroke="#5d6972" stroke-width="1.2" d="M83.94,-716.3C107.28,-712.51 141.73,-707.44 172,-705 285.17,-695.88 419.88,-695.88 481.99,-696.5"/>
<polygon fill="#5d6972" stroke="#5d6972" stroke-width="1.2" points="482.18,-698.95 489.2,-696.58 482.23,-694.05 482.18,-698.95"/>
</g>
<!-- course__BIOL184&#45;&gt;choice_BIOL186_0_0 -->
<g id="edge5" class="edge">
<title>course__BIOL184&#45;&gt;choice_BIOL186_0_0</title>
<path fill="none" stroke="#7a8389" d="M83.78,-730.45C106.98,-738.48 140.35,-750.04 165.04,-758.59"/>
<polygon fill="#7a8389" stroke="#7a8389" points="164.34,-760.94 171.76,-760.91 165.94,-756.31 164.34,-760.94"/>
</g>
<!-- course__MATH100 -->
<g id="node3" class="node">
<title>course__MATH100</title>
<g id="a_node3"><a xlink:href="../../../courses/MATH100.html" xlink:title="Equivalent or cross&#45;listed: MATH100: Calculus I | MATH102: Calculus for Students in the Social and Biological Sciences | MATH109: Introduction to Calculus" target="_top">
<path fill="#dfe3f4" stroke="#7e8d96" d="M99,-183C99,-183 12,-183 12,-183 6,-183 0,-177 0,-171 0,-171 0,-159 0,-159 0,-153 6,-147 12,-147 12,-147 99,-147 99,-147 105,-147 111,-153 111,-159 111,-159 111,-171 111,-171 111,-177 105,-183 99,-183"/>
<text text-anchor="middle" x="55.5" y="-167.8" font-family="Avenir Next" font-size="9.00" fill="#41515b">MATH100 / MATH102</text>
<text text-anchor="middle" x="55.5" y="-157.8" font-family="Avenir Next" font-size="9.00" fill="#41515b">MATH109</text>
</a>
</g>
</g>
<!-- course__MATH101 -->
<g id="node6" class="node">
<title>course__MATH101</title>
<g id="a_node6"><a xlink:href="../../../courses/MATH101.html" xlink:title="MATH101: Calculus II" target="_top">
<path fill="#dfe3f4" stroke="#7e8d96" d="M361.5,-330C361.5,-330 326.5,-330 326.5,-330 320.5,-330 314.5,-324 314.5,-318 314.5,-318 314.5,-306 314.5,-306 314.5,-300 320.5,-294 326.5,-294 326.5,-294 361.5,-294 361.5,-294 367.5,-294 373.5,-300 373.5,-306 373.5,-306 373.5,-318 373.5,-318 373.5,-324 367.5,-330 361.5,-330"/>
<text text-anchor="middle" x="344" y="-309.8" font-family="Avenir Next" font-size="9.00" fill="#41515b">MATH101</text>
</a>
</g>
</g>
<!-- course__MATH100&#45;&gt;course__MATH101 -->
<g id="edge40" class="edge">
<title>course__MATH100&#45;&gt;course__MATH101</title>
<path fill="none" stroke="#5d6972" stroke-width="1.2" d="M91.63,-183.03C146.77,-211.32 252.99,-265.82 308.03,-294.06"/>
<polygon fill="#5d6972" stroke="#5d6972" stroke-width="1.2" points="307.14,-296.35 314.48,-297.37 309.37,-291.99 307.14,-296.35"/>
</g>
<!-- course__PHYS110 -->
<g id="node12" class="node">
<title>course__PHYS110</title>
<g id="a_node12"><a xlink:href="../../../courses/PHYS110.html" xlink:title="Equivalent or cross&#45;listed: PHYS110: Introductory Physics I | PHYS120: Physics I" target="_top">
<path fill="#efd8cf" stroke="#7e8d96" d="M559.5,-92C559.5,-92 475.5,-92 475.5,-92 469.5,-92 463.5,-86 463.5,-80 463.5,-80 463.5,-68 463.5,-68 463.5,-62 469.5,-56 475.5,-56 475.5,-56 559.5,-56 559.5,-56 565.5,-56 571.5,-62 571.5,-68 571.5,-68 571.5,-80 571.5,-80 571.5,-86 565.5,-92 559.5,-92"/>
<text text-anchor="middle" x="517.5" y="-71.8" font-family="Avenir Next" font-size="9.00" fill="#41515b">PHYS110 / PHYS120</text>
</a>
</g>
</g>
<!-- course__MATH100&#45;&gt;course__PHYS110 -->
<g id="edge45" class="edge">
<title>course__MATH100&#45;&gt;course__PHYS110</title>
<path fill="none" stroke="#5d6972" stroke-width="1.2" d="M85.18,-146.82C107.83,-133.42 140.74,-116.01 172,-107 268.85,-79.11 386.68,-73.6 456.42,-73.12"/>
<polygon fill="#5d6972" stroke="#5d6972" stroke-width="1.2" points="456.45,-75.57 463.44,-73.08 456.42,-70.67 456.45,-75.57"/>
</g>
<!-- course__CHEM102 -->
<g id="node16" class="node">
<title>course__CHEM102</title>
<g id="a_node16"><a xlink:href="../../../courses/CHEM102.html" xlink:title="CHEM102: Chemical Reactivity Fundamentals with Environmental Applications" target="_top">
<path fill="#ead9b8" stroke="#7e8d96" d="M821.5,-288C821.5,-288 784.5,-288 784.5,-288 778.5,-288 772.5,-282 772.5,-276 772.5,-276 772.5,-264 772.5,-264 772.5,-258 778.5,-252 784.5,-252 784.5,-252 821.5,-252 821.5,-252 827.5,-252 833.5,-258 833.5,-264 833.5,-264 833.5,-276 833.5,-276 833.5,-282 827.5,-288 821.5,-288"/>
<text text-anchor="middle" x="803" y="-267.8" font-family="Avenir Next" font-size="9.00" fill="#41515b">CHEM102</text>
</a>
</g>
</g>
<!-- course__MATH100&#45;&gt;course__CHEM102 -->
<g id="edge30" class="edge">
<title>course__MATH100&#45;&gt;course__CHEM102</title>
<path fill="none" stroke="#5d6972" stroke-width="1.2" d="M111.16,-165C168.81,-165 262.3,-165 343,-165 343,-165 343,-165 518.5,-165 613.57,-165 716.04,-217.57 767.84,-248.31"/>
<polygon fill="#5d6972" stroke="#5d6972" stroke-width="1.2" points="766.64,-250.45 773.9,-251.95 769.16,-246.25 766.64,-250.45"/>
</g>
<!-- course__PHYS111 -->
<g id="node19" class="node">
<title>course__PHYS111</title>
<g id="a_node19"><a xlink:href="../../../courses/PHYS111.html" xlink:title="Equivalent or cross&#45;listed: PHYS111: Introductory Physics II | PHYS130: Physics II" target="_top">
<path fill="#efd8cf" stroke="#7e8d96" d="M845,-141C845,-141 761,-141 761,-141 755,-141 749,-135 749,-129 749,-129 749,-117 749,-117 749,-111 755,-105 761,-105 761,-105 845,-105 845,-105 851,-105 857,-111 857,-117 857,-117 857,-129 857,-129 857,-135 851,-141 845,-141"/>
<text text-anchor="middle" x="803" y="-120.8" font-family="Avenir Next" font-size="9.00" fill="#41515b">PHYS111 / PHYS130</text>
</a>
</g>
</g>
<!-- course__MATH100&#45;&gt;course__PHYS111 -->
<g id="edge47" class="edge">
<title>course__MATH100&#45;&gt;course__PHYS111</title>
<path fill="none" stroke="#5d6972" stroke-width="1.2" d="M111.08,-152.17C168.46,-139.82 261.56,-123 343,-123 343,-123 343,-123 518.5,-123 595.55,-123 684.39,-123 741.78,-123"/>
<polygon fill="#5d6972" stroke="#5d6972" stroke-width="1.2" points="741.97,-125.45 748.97,-123 741.97,-120.55 741.97,-125.45"/>
</g>
<!-- choice_EOS311_0_2 -->
<g id="node32" class="node">
<title>choice_EOS311_0_2</title>
<path fill="#fff7ee" stroke="#b7793f" stroke-width="1.1" d="M960,-496C960,-496 930,-496 930,-496 924,-496 918,-490 918,-484 918,-484 918,-472 918,-472 918,-466 924,-460 930,-460 930,-460 960,-460 960,-460 966,-460 972,-466 972,-472 972,-472 972,-484 972,-484 972,-490 966,-496 960,-496"/>
<text text-anchor="middle" x="945" y="-475.8" font-family="Avenir Next" font-size="9.00">2 of</text>
</g>
<!-- course__MATH100&#45;&gt;choice_EOS311_0_2 -->
<g id="edge32" class="edge">
<title>course__MATH100&#45;&gt;choice_EOS311_0_2</title>
<path fill="none" stroke="#7a8389" d="M62.45,-183.23C85.96,-251.35 179.13,-487 343,-487 343,-487 343,-487 662,-487 752.06,-487 858.21,-482.36 910.89,-479.74"/>
<polygon fill="#7a8389" stroke="#7a8389" points="911.09,-482.18 917.96,-479.39 910.85,-477.29 911.09,-482.18"/>
</g>
<!-- course__BIOL186 -->
<g id="node4" class="node">
<title>course__BIOL186</title>
<g id="a_node4"><a xlink:href="../../../courses/BIOL186.html" xlink:title="BIOL186: Physiology and Cell Biology" target="_top">
<path fill="#dbe8d2" stroke="#7e8d96" d="M360,-788C360,-788 328,-788 328,-788 322,-788 316,-782 316,-776 316,-776 316,-764 316,-764 316,-758 322,-752 328,-752 328,-752 360,-752 360,-752 366,-752 372,-758 372,-764 372,-764 372,-776 372,-776 372,-782 366,-788 360,-788"/>
<text text-anchor="middle" x="344" y="-767.8" font-family="Avenir Next" font-size="9.00" fill="#41515b">BIOL186</text>
</a>
</g>
</g>
<!-- course__BIOL186&#45;&gt;course__BIOL225 -->
<g id="edge7" class="edge">
<title>course__BIOL186&#45;&gt;course__BIOL225</title>
<path fill="none" stroke="#5d6972" stroke-width="1.2" d="M372.17,-758.43C402.16,-745.67 450.43,-725.12 482.8,-711.34"/>
<polygon fill="#5d6972" stroke="#5d6972" stroke-width="1.2" points="483.97,-713.51 489.45,-708.51 482.05,-709 483.97,-713.51"/>
</g>
<!-- course__BIOL186&#45;&gt;choice_BIOL184_0_0 -->
<g id="edge2" class="edge">
<title>course__BIOL186&#45;&gt;choice_BIOL184_0_0</title>
<path fill="none" stroke="#7a8389" d="M372.17,-770C402.29,-770 450.88,-770 483.25,-770"/>
<polygon fill="#7a8389" stroke="#7a8389" points="483.3,-772.45 490.3,-770 483.3,-767.55 483.3,-772.45"/>
</g>
<!-- course__CHEM101 -->
<g id="node5" class="node">
<title>course__CHEM101</title>
<g id="a_node5"><a xlink:href="../../../courses/CHEM101.html" xlink:title="Equivalent or cross&#45;listed: CHEM101: Fundamentals of Chemistry from Atoms to Materials | CHEM150: Engineering Chemistry" target="_top">
<path fill="#ead9b8" stroke="#7e8d96" d="M389,-589C389,-589 299,-589 299,-589 293,-589 287,-583 287,-577 287,-577 287,-565 287,-565 287,-559 293,-553 299,-553 299,-553 389,-553 389,-553 395,-553 401,-559 401,-565 401,-565 401,-577 401,-577 401,-583 395,-589 389,-589"/>
<text text-anchor="middle" x="344" y="-568.8" font-family="Avenir Next" font-size="9.00" fill="#41515b">CHEM101 / CHEM150</text>
</a>
</g>
</g>
<!-- course__CHEM231 -->
<g id="node9" class="node">
<title>course__CHEM231</title>
<g id="a_node9"><a xlink:href="../../../courses/CHEM231.html" xlink:title="CHEM231: Introduction to Organic Chemistry" target="_top">
<path fill="#ead9b8" stroke="#7e8d96" d="M536,-601C536,-601 499,-601 499,-601 493,-601 487,-595 487,-589 487,-589 487,-577 487,-577 487,-571 493,-565 499,-565 499,-565 536,-565 536,-565 542,-565 548,-571 548,-577 548,-577 548,-589 548,-589 548,-595 542,-601 536,-601"/>
<text text-anchor="middle" x="517.5" y="-580.8" font-family="Avenir Next" font-size="9.00" fill="#41515b">CHEM231</text>
</a>
</g>
</g>
<!-- course__CHEM101&#45;&gt;course__CHEM231 -->
<g id="edge31" class="edge">
<title>course__CHEM101&#45;&gt;course__CHEM231</title>
<path fill="none" stroke="#5d6972" stroke-width="1.2" d="M401.16,-574.93C426.89,-576.73 456.69,-578.81 479.55,-580.41"/>
<polygon fill="#5d6972" stroke="#5d6972" stroke-width="1.2" points="479.56,-582.87 486.71,-580.92 479.9,-577.98 479.56,-582.87"/>
</g>
<!-- course__CHEM101&#45;&gt;course__CHEM102 -->
<g id="edge29" class="edge">
<title>course__CHEM101&#45;&gt;course__CHEM102</title>
<path fill="none" stroke="#5d6972" stroke-width="1.2" d="M372.56,-552.85C452.09,-500.47 681.81,-349.16 768.42,-292.12"/>
<polygon fill="#5d6972" stroke="#5d6972" stroke-width="1.2" points="769.91,-294.07 774.41,-288.17 767.21,-289.98 769.91,-294.07"/>
</g>
<!-- course__MATH200 -->
<g id="node10" class="node">
<title>course__MATH200</title>
<g id="a_node10"><a xlink:href="../../../courses/MATH200.html" xlink:title="Equivalent or cross&#45;listed: MATH200: Calculus III | MATH202: Intermediate Calculus for CSC and EOS" target="_top">
<path fill="#dfe3f4" stroke="#7e8d96" d="M561,-330C561,-330 474,-330 474,-330 468,-330 462,-324 462,-318 462,-318 462,-306 462,-306 462,-300 468,-294 474,-294 474,-294 561,-294 561,-294 567,-294 573,-300 573,-306 573,-306 573,-318 573,-318 573,-324 567,-330 561,-330"/>
<text text-anchor="middle" x="517.5" y="-309.8" font-family="Avenir Next" font-size="9.00" fill="#41515b">MATH200 / MATH202</text>
</a>
</g>
</g>
<!-- course__MATH101&#45;&gt;course__MATH200 -->
<g id="edge41" class="edge">
<title>course__MATH101&#45;&gt;course__MATH200</title>
<path fill="none" stroke="#5d6972" stroke-width="1.2" d="M373.71,-312C395.68,-312 426.79,-312 454.37,-312"/>
<polygon fill="#5d6972" stroke="#5d6972" stroke-width="1.2" points="454.67,-314.45 461.67,-312 454.67,-309.55 454.67,-314.45"/>
</g>
<!-- course__MATH101&#45;&gt;course__PHYS111 -->
<g id="edge48" class="edge">
<title>course__MATH101&#45;&gt;course__PHYS111</title>
<path fill="none" stroke="#5d6972" stroke-width="1.2" d="M365.65,-293.98C388.05,-275.23 425.5,-246.14 462,-228 554.8,-181.89 671.96,-151.13 741.72,-135.39"/>
<polygon fill="#5d6972" stroke="#5d6972" stroke-width="1.2" points="742.44,-137.74 748.73,-133.83 741.37,-132.96 742.44,-137.74"/>
</g>
<!-- course__STAT254 -->
<g id="node20" class="node">
<title>course__STAT254</title>
<g id="a_node20"><a xlink:href="../../../courses/STAT254.html" xlink:title="Equivalent or cross&#45;listed: STAT254: Probability and Statistics for Engineers | STAT260: Introduction to Probability and Statistics I" target="_top">
<path fill="#e6dde9" stroke="#7e8d96" d="M843,-414C843,-414 763,-414 763,-414 757,-414 751,-408 751,-402 751,-402 751,-390 751,-390 751,-384 757,-378 763,-378 763,-378 843,-378 843,-378 849,-378 855,-384 855,-390 855,-390 855,-402 855,-402 855,-408 849,-414 843,-414"/>
<text text-anchor="middle" x="803" y="-393.8" font-family="Avenir Next" font-size="9.00" fill="#41515b">STAT254 / STAT260</text>
</a>
</g>
</g>
<!-- course__MATH101&#45;&gt;course__STAT254 -->
<g id="edge50" class="edge">
<title>course__MATH101&#45;&gt;course__STAT254</title>
<path fill="none" stroke="#5d6972" stroke-width="1.2" d="M373.74,-319.41C397.35,-325.36 431.73,-333.74 462,-340 560.21,-360.3 675.6,-378.03 743.55,-387.85"/>
<polygon fill="#5d6972" stroke="#5d6972" stroke-width="1.2" points="743.51,-390.31 750.78,-388.89 744.2,-385.46 743.51,-390.31"/>
</g>
<!-- course__MATH101&#45;&gt;choice_EOS311_0_2 -->
<g id="edge33" class="edge">
<title>course__MATH101&#45;&gt;choice_EOS311_0_2</title>
<path fill="none" stroke="#7a8389" d="M373.65,-327.23C396.93,-339.11 430.89,-355.33 462,-366 626.14,-422.29 831.32,-459.48 910.6,-472.66"/>
<polygon fill="#7a8389" stroke="#7a8389" points="910.57,-475.14 917.88,-473.86 911.37,-470.31 910.57,-475.14"/>
</g>
<!-- course__BIOL230 -->
<g id="node14" class="node">
<title>course__BIOL230</title>
<g id="a_node14"><a xlink:href="../../../courses/BIOL230.html" xlink:title="BIOL230: Principles of Genetics" target="_top">
<path fill="#dbe8d2" stroke="#7e8d96" d="M819,-666C819,-666 787,-666 787,-666 781,-666 775,-660 775,-654 775,-654 775,-642 775,-642 775,-636 781,-630 787,-630 787,-630 819,-630 819,-630 825,-630 831,-636 831,-642 831,-642 831,-654 831,-654 831,-660 825,-666 819,-666"/>
<text text-anchor="middle" x="803" y="-645.8" font-family="Avenir Next" font-size="9.00" fill="#41515b">BIOL230</text>
</a>
</g>
</g>
<!-- course__BIOL225&#45;&gt;course__BIOL230 -->
<g id="edge9" class="edge">
<title>course__BIOL225&#45;&gt;course__BIOL230</title>
<path fill="none" stroke="#5d6972" stroke-width="1.2" d="M545.68,-692.3C597.65,-683.32 710.97,-663.73 767.91,-653.89"/>
<polygon fill="#5d6972" stroke="#5d6972" stroke-width="1.2" points="768.42,-656.29 774.9,-652.68 767.58,-651.46 768.42,-656.29"/>
</g>
<!-- course__BIOL321 -->
<g id="node15" class="node">
<title>course__BIOL321</title>
<g id="a_node15"><a xlink:href="../../../courses/BIOL321.html" xlink:title="BIOL321: Survey of Invertebrates" target="_top">
<path fill="#dbe8d2" stroke="#7e8d96" d="M819,-764C819,-764 787,-764 787,-764 781,-764 775,-758 775,-752 775,-752 775,-740 775,-740 775,-734 781,-728 787,-728 787,-728 819,-728 819,-728 825,-728 831,-734 831,-740 831,-740 831,-752 831,-752 831,-758 825,-764 819,-764"/>
<text text-anchor="middle" x="803" y="-743.8" font-family="Avenir Next" font-size="9.00" fill="#41515b">BIOL321</text>
</a>
</g>
</g>
<!-- course__BIOL225&#45;&gt;course__BIOL321 -->
<g id="edge16" class="edge">
<title>course__BIOL225&#45;&gt;course__BIOL321</title>
<path fill="none" stroke="#5d6972" stroke-width="1.2" d="M545.68,-701.7C597.65,-710.68 710.97,-730.27 767.91,-740.11"/>
<polygon fill="#5d6972" stroke="#5d6972" stroke-width="1.2" points="767.58,-742.54 774.9,-741.32 768.42,-737.71 767.58,-742.54"/>
</g>
<!-- choice_BIOL330_0_2 -->
<g id="node30" class="node">
<title>choice_BIOL330_0_2</title>
<path fill="#fff7ee" stroke="#b7793f" stroke-width="1.1" d="M960,-638C960,-638 930,-638 930,-638 924,-638 918,-632 918,-626 918,-626 918,-614 918,-614 918,-608 924,-602 930,-602 930,-602 960,-602 960,-602 966,-602 972,-608 972,-614 972,-614 972,-626 972,-626 972,-632 966,-638 960,-638"/>
<text text-anchor="middle" x="945" y="-617.8" font-family="Avenir Next" font-size="9.00">1 of</text>
</g>
<!-- course__BIOL225&#45;&gt;choice_BIOL330_0_2 -->
<g id="edge20" class="edge">
<title>course__BIOL225&#45;&gt;choice_BIOL330_0_2</title>
<path fill="none" stroke="#7a8389" d="M545.69,-699.85C604.31,-705.03 746.22,-712.33 857,-676 878.89,-668.82 900.68,-654.78 916.98,-642.55"/>
<polygon fill="#7a8389" stroke="#7a8389" points="918.66,-644.35 922.73,-638.15 915.68,-640.46 918.66,-644.35"/>
</g>
<!-- course__CHEM091 -->
<g id="node8" class="node">
<title>course__CHEM091</title>
<g id="a_node8"><a xlink:href="../../../courses/CHEM091.html" xlink:title="CHEM091: Introduction to Chemistry" target="_top">
<path fill="#ead9b8" stroke="#7e8d96" d="M536,-274C536,-274 499,-274 499,-274 493,-274 487,-268 487,-262 487,-262 487,-250 487,-250 487,-244 493,-238 499,-238 499,-238 536,-238 536,-238 542,-238 548,-244 548,-250 548,-250 548,-262 548,-262 548,-268 542,-274 536,-274"/>
<text text-anchor="middle" x="517.5" y="-253.8" font-family="Avenir Next" font-size="9.00" fill="#41515b">CHEM091</text>
</a>
</g>
</g>
<!-- course__CHEM091&#45;&gt;course__CHEM102 -->
<g id="edge28" class="edge">
<title>course__CHEM091&#45;&gt;course__CHEM102</title>
<path fill="none" stroke="#5d6972" stroke-width="1.2" d="M548.04,-257.46C600.13,-260.03 708.17,-265.37 765.09,-268.18"/>
<polygon fill="#5d6972" stroke="#5d6972" stroke-width="1.2" points="764.99,-270.63 772.1,-268.52 765.23,-265.73 764.99,-270.63"/>
</g>
<!-- course__CHEM231&#45;&gt;course__BIOL230 -->
<g id="edge10" class="edge">
<title>course__CHEM231&#45;&gt;course__BIOL230</title>
<path fill="none" stroke="#5d6972" stroke-width="1.2" d="M548.04,-589.77C600.94,-601.9 711.57,-627.27 767.73,-640.14"/>
<polygon fill="#5d6972" stroke="#5d6972" stroke-width="1.2" points="767.25,-642.55 774.62,-641.72 768.35,-637.77 767.25,-642.55"/>
</g>
<!-- course__MATH200&#45;&gt;course__STAT254 -->
<g id="edge49" class="edge">
<title>course__MATH200&#45;&gt;course__STAT254</title>
<path fill="none" stroke="#5d6972" stroke-width="1.2" d="M573.16,-328.2C622.18,-342.72 693.89,-363.97 743.93,-378.79"/>
<polygon fill="#5d6972" stroke="#5d6972" stroke-width="1.2" points="743.44,-381.2 750.84,-380.84 744.83,-376.51 743.44,-381.2"/>
</g>
<!-- course__PHYS102A -->
<g id="node11" class="node">
<title>course__PHYS102A</title>
<g id="a_node11"><a xlink:href="../../../courses/PHYS102A.html" xlink:title="PHYS102A: General Physics I" target="_top">
<path fill="#efd8cf" stroke="#7e8d96" d="M537.5,-36C537.5,-36 497.5,-36 497.5,-36 491.5,-36 485.5,-30 485.5,-24 485.5,-24 485.5,-12 485.5,-12 485.5,-6 491.5,0 497.5,0 497.5,0 537.5,0 537.5,0 543.5,0 549.5,-6 549.5,-12 549.5,-12 549.5,-24 549.5,-24 549.5,-30 543.5,-36 537.5,-36"/>
<text text-anchor="middle" x="517.5" y="-15.8" font-family="Avenir Next" font-size="9.00" fill="#41515b">PHYS102A</text>
</a>
</g>
</g>
<!-- choice_PHYS102B_0 -->
<g id="node34" class="node">
<title>choice_PHYS102B_0</title>
<path fill="#fff7ee" stroke="#b7793f" stroke-width="1.1" d="M676,-50C676,-50 646,-50 646,-50 640,-50 634,-44 634,-38 634,-38 634,-26 634,-26 634,-20 640,-14 646,-14 646,-14 676,-14 676,-14 682,-14 688,-20 688,-26 688,-26 688,-38 688,-38 688,-44 682,-50 676,-50"/>
<text text-anchor="middle" x="661" y="-29.8" font-family="Avenir Next" font-size="9.00">1 of</text>
</g>
<!-- course__PHYS102A&#45;&gt;choice_PHYS102B_0 -->
<g id="edge42" class="edge">
<title>course__PHYS102A&#45;&gt;choice_PHYS102B_0</title>
<path fill="none" stroke="#7a8389" d="M549.55,-21.07C572.41,-23.33 603.43,-26.4 626.78,-28.71"/>
<polygon fill="#7a8389" stroke="#7a8389" points="626.56,-31.15 633.77,-29.4 627.04,-26.28 626.56,-31.15"/>
</g>
<!-- course__PHYS110&#45;&gt;course__PHYS111 -->
<g id="edge46" class="edge">
<title>course__PHYS110&#45;&gt;course__PHYS111</title>
<path fill="none" stroke="#5d6972" stroke-width="1.2" d="M571.82,-83.22C620.23,-91.58 691.55,-103.91 741.95,-112.62"/>
<polygon fill="#5d6972" stroke="#5d6972" stroke-width="1.2" points="741.6,-115.05 748.91,-113.82 742.43,-110.22 741.6,-115.05"/>
</g>
<!-- course__PHYS110&#45;&gt;choice_PHYS102B_0 -->
<g id="edge43" class="edge">
<title>course__PHYS110&#45;&gt;choice_PHYS102B_0</title>
<path fill="none" stroke="#7a8389" d="M571.59,-58.24C590.26,-52.7 610.67,-46.64 627.18,-41.74"/>
<polygon fill="#7a8389" stroke="#7a8389" points="627.98,-44.06 634,-39.72 626.59,-39.36 627.98,-44.06"/>
</g>
<!-- course__BIOL215 -->
<g id="node13" class="node">
<title>course__BIOL215</title>
<g id="a_node13"><a xlink:href="../../../courses/BIOL215.html" xlink:title="BIOL215: Principles of Ecology" target="_top">
<path fill="#dbe8d2" stroke="#7e8d96" d="M819,-610C819,-610 787,-610 787,-610 781,-610 775,-604 775,-598 775,-598 775,-586 775,-586 775,-580 781,-574 787,-574 787,-574 819,-574 819,-574 825,-574 831,-580 831,-586 831,-586 831,-598 831,-598 831,-604 825,-610 819,-610"/>
<text text-anchor="middle" x="803" y="-589.8" font-family="Avenir Next" font-size="9.00" fill="#41515b">BIOL215</text>
</a>
</g>
</g>
<!-- course__BIOL319 -->
<g id="node22" class="node">
<title>course__BIOL319</title>
<g id="a_node22"><a xlink:href="../../../courses/BIOL319.html" xlink:title="BIOL319: Marine Ecology" target="_top">
<path fill="#dbe8d2" stroke="#1b2730" stroke-width="1.6" d="M1101.5,-473C1101.5,-473 1068.5,-473 1068.5,-473 1062.5,-473 1056.5,-467 1056.5,-461 1056.5,-461 1056.5,-449 1056.5,-449 1056.5,-443 1062.5,-437 1068.5,-437 1068.5,-437 1101.5,-437 1101.5,-437 1107.5,-437 1113.5,-443 1113.5,-449 1113.5,-449 1113.5,-461 1113.5,-461 1113.5,-467 1107.5,-473 1101.5,-473"/>
<text text-anchor="middle" x="1085" y="-452.5" font-family="Avenir Next" font-size="10.00" fill="#17232b">BIOL319</text>
</a>
</g>
</g>
<!-- course__BIOL215&#45;&gt;course__BIOL319 -->
<g id="edge13" class="edge">
<title>course__BIOL215&#45;&gt;course__BIOL319</title>
<path fill="none" stroke="#5d6972" stroke-width="1.2" d="M831.1,-578.74C882.4,-553.64 993.6,-499.23 1049.89,-471.69"/>
<polygon fill="#5d6972" stroke="#5d6972" stroke-width="1.2" points="1051.26,-473.75 1056.47,-468.47 1049.11,-469.35 1051.26,-473.75"/>
</g>
<!-- course__BIOL215&#45;&gt;choice_BIOL330_0_2 -->
<g id="edge19" class="edge">
<title>course__BIOL215&#45;&gt;choice_BIOL330_0_2</title>
<path fill="none" stroke="#7a8389" d="M831.33,-597.47C854.07,-602.01 886.53,-608.51 910.77,-613.35"/>
<polygon fill="#7a8389" stroke="#7a8389" points="910.35,-615.77 917.69,-614.74 911.31,-610.96 910.35,-615.77"/>
</g>
<!-- course__BIOL230&#45;&gt;choice_BIOL330_0_2 -->
<g id="edge21" class="edge">
<title>course__BIOL230&#45;&gt;choice_BIOL330_0_2</title>
<path fill="none" stroke="#7a8389" d="M831.33,-642.53C854.07,-637.99 886.53,-631.49 910.77,-626.65"/>
<polygon fill="#7a8389" stroke="#7a8389" points="911.31,-629.04 917.69,-625.26 910.35,-624.23 911.31,-629.04"/>
</g>
<!-- course__BIOL321&#45;&gt;course__BIOL319 -->
<g id="edge14" class="edge">
<title>course__BIOL321&#45;&gt;course__BIOL319</title>
<path fill="none" stroke="#5d6972" stroke-width="1.2" d="M831.14,-736.84C867.97,-723.1 933.57,-693.77 972,-648 1022.27,-588.12 981.95,-542.22 1033,-483 1037.7,-477.55 1043.73,-472.96 1049.99,-469.18"/>
<polygon fill="#5d6972" stroke="#5d6972" stroke-width="1.2" points="1051.37,-471.22 1056.29,-465.67 1048.98,-466.94 1051.37,-471.22"/>
</g>
<!-- course__EOS311 -->
<g id="node24" class="node">
<title>course__EOS311</title>
<g id="a_node24"><a xlink:href="../../../courses/EOS311.html" xlink:title="Equivalent or cross&#45;listed: BIOL311: Biological Oceanography | EOS311: Biological Oceanography" target="_top">
<path fill="#d7e9ef" stroke="#1b2730" stroke-width="1.6" d="M1125,-410C1125,-410 1045,-410 1045,-410 1039,-410 1033,-404 1033,-398 1033,-398 1033,-386 1033,-386 1033,-380 1039,-374 1045,-374 1045,-374 1125,-374 1125,-374 1131,-374 1137,-380 1137,-386 1137,-386 1137,-398 1137,-398 1137,-404 1131,-410 1125,-410"/>
<text text-anchor="middle" x="1085" y="-389.5" font-family="Avenir Next" font-size="10.00" fill="#17232b">BIOL311 / EOS311</text>
</a>
</g>
</g>
<!-- course__CHEM102&#45;&gt;course__EOS311 -->
<g id="edge37" class="edge">
<title>course__CHEM102&#45;&gt;course__EOS311</title>
<path fill="none" stroke="#5d6972" stroke-width="1.2" d="M833.74,-278.72C867.81,-289.09 924.97,-307.71 972,-329 998.64,-341.06 1027.36,-357.28 1049.04,-370.25"/>
<polygon fill="#5d6972" stroke="#5d6972" stroke-width="1.2" points="1047.99,-372.47 1055.25,-373.98 1050.52,-368.27 1047.99,-372.47"/>
</g>
<!-- course__MATH151 -->
<g id="node17" class="node">
<title>course__MATH151</title>
<g id="a_node17"><a xlink:href="../../../courses/MATH151.html" xlink:title="MATH151: Finite Mathematics" target="_top">
<path fill="#dfe3f4" stroke="#7e8d96" d="M820.5,-554C820.5,-554 785.5,-554 785.5,-554 779.5,-554 773.5,-548 773.5,-542 773.5,-542 773.5,-530 773.5,-530 773.5,-524 779.5,-518 785.5,-518 785.5,-518 820.5,-518 820.5,-518 826.5,-518 832.5,-524 832.5,-530 832.5,-530 832.5,-542 832.5,-542 832.5,-548 826.5,-554 820.5,-554"/>
<text text-anchor="middle" x="803" y="-533.8" font-family="Avenir Next" font-size="9.00" fill="#41515b">MATH151</text>
</a>
</g>
</g>
<!-- course__MATH151&#45;&gt;choice_EOS311_0_2 -->
<g id="edge34" class="edge">
<title>course__MATH151&#45;&gt;choice_EOS311_0_2</title>
<path fill="none" stroke="#7a8389" d="M832.67,-524.12C855.48,-514.67 887.42,-501.44 911.24,-491.57"/>
<polygon fill="#7a8389" stroke="#7a8389" points="912.2,-493.82 917.73,-488.88 910.33,-489.3 912.2,-493.82"/>
</g>
<!-- course__PHYS102B -->
<g id="node18" class="node">
<title>course__PHYS102B</title>
<g id="a_node18"><a xlink:href="../../../courses/PHYS102B.html" xlink:title="PHYS102B: General Physics II" target="_top">
<path fill="#efd8cf" stroke="#7e8d96" d="M823,-68C823,-68 783,-68 783,-68 777,-68 771,-62 771,-56 771,-56 771,-44 771,-44 771,-38 777,-32 783,-32 783,-32 823,-32 823,-32 829,-32 835,-38 835,-44 835,-44 835,-56 835,-56 835,-62 829,-68 823,-68"/>
<text text-anchor="middle" x="803" y="-47.8" font-family="Avenir Next" font-size="9.00" fill="#41515b">PHYS102B</text>
</a>
</g>
</g>
<!-- choice_EOS311_0_3 -->
<g id="node33" class="node">
<title>choice_EOS311_0_3</title>
<path fill="#fff7ee" stroke="#b7793f" stroke-width="1.1" d="M960,-141C960,-141 930,-141 930,-141 924,-141 918,-135 918,-129 918,-129 918,-117 918,-117 918,-111 924,-105 930,-105 930,-105 960,-105 960,-105 966,-105 972,-111 972,-117 972,-117 972,-129 972,-129 972,-135 966,-141 960,-141"/>
<text text-anchor="middle" x="945" y="-120.8" font-family="Avenir Next" font-size="9.00">1 of</text>
</g>
<!-- course__PHYS102B&#45;&gt;choice_EOS311_0_3 -->
<g id="edge35" class="edge">
<title>course__PHYS102B&#45;&gt;choice_EOS311_0_3</title>
<path fill="none" stroke="#7a8389" d="M835.07,-66.2C857.75,-78.03 888.42,-94.02 911.44,-106.02"/>
<polygon fill="#7a8389" stroke="#7a8389" points="910.38,-108.23 917.72,-109.3 912.64,-103.89 910.38,-108.23"/>
</g>
<!-- course__PHYS111&#45;&gt;choice_EOS311_0_3 -->
<g id="edge36" class="edge">
<title>course__PHYS111&#45;&gt;choice_EOS311_0_3</title>
<path fill="none" stroke="#7a8389" d="M857.33,-123C875.29,-123 894.8,-123 910.76,-123"/>
<polygon fill="#7a8389" stroke="#7a8389" points="910.82,-125.45 917.82,-123 910.82,-120.55 910.82,-125.45"/>
</g>
<!-- choice_BIOL319_0_1 -->
<g id="node28" class="node">
<title>choice_BIOL319_0_1</title>
<path fill="#fff7ee" stroke="#b7793f" stroke-width="1.1" d="M960,-375C960,-375 930,-375 930,-375 924,-375 918,-369 918,-363 918,-363 918,-351 918,-351 918,-345 924,-339 930,-339 930,-339 960,-339 960,-339 966,-339 972,-345 972,-351 972,-351 972,-363 972,-363 972,-369 966,-375 960,-375"/>
<text text-anchor="middle" x="945" y="-354.8" font-family="Avenir Next" font-size="9.00">1 of</text>
</g>
<!-- course__STAT254&#45;&gt;choice_BIOL319_0_1 -->
<g id="edge12" class="edge">
<title>course__STAT254&#45;&gt;choice_BIOL319_0_1</title>
<path fill="none" stroke="#7a8389" d="M855.34,-381.7C873.91,-376.53 894.37,-370.82 910.96,-366.2"/>
<polygon fill="#7a8389" stroke="#7a8389" points="911.73,-368.53 917.81,-364.3 910.41,-363.81 911.73,-368.53"/>
</g>
<!-- choice_BIOL330_0_0 -->
<g id="node29" class="node">
<title>choice_BIOL330_0_0</title>
<path fill="#fff7ee" stroke="#b7793f" stroke-width="1.1" d="M960,-431C960,-431 930,-431 930,-431 924,-431 918,-425 918,-419 918,-419 918,-407 918,-407 918,-401 924,-395 930,-395 930,-395 960,-395 960,-395 966,-395 972,-401 972,-407 972,-407 972,-419 972,-419 972,-425 966,-431 960,-431"/>
<text text-anchor="middle" x="945" y="-410.8" font-family="Avenir Next" font-size="9.00">1 of</text>
</g>
<!-- course__STAT254&#45;&gt;choice_BIOL330_0_0 -->
<g id="edge18" class="edge">
<title>course__STAT254&#45;&gt;choice_BIOL330_0_0</title>
<path fill="none" stroke="#7a8389" d="M855.34,-402.23C873.74,-404.47 894.01,-406.93 910.51,-408.93"/>
<polygon fill="#7a8389" stroke="#7a8389" points="910.57,-411.41 917.81,-409.82 911.16,-406.54 910.57,-411.41"/>
</g>
<!-- course__STAT255 -->
<g id="node21" class="node">
<title>course__STAT255</title>
<g id="a_node21"><a xlink:href="../../../courses/STAT255.html" xlink:title="STAT255: Statistics for Life Sciences I" target="_top">
<path fill="#e6dde9" stroke="#7e8d96" d="M819,-358C819,-358 787,-358 787,-358 781,-358 775,-352 775,-346 775,-346 775,-334 775,-334 775,-328 781,-322 787,-322 787,-322 819,-322 819,-322 825,-322 831,-328 831,-334 831,-334 831,-346 831,-346 831,-352 825,-358 819,-358"/>
<text text-anchor="middle" x="803" y="-337.8" font-family="Avenir Next" font-size="9.00" fill="#41515b">STAT255</text>
</a>
</g>
</g>
<!-- course__STAT255&#45;&gt;choice_BIOL319_0_1 -->
<g id="edge11" class="edge">
<title>course__STAT255&#45;&gt;choice_BIOL319_0_1</title>
<path fill="none" stroke="#7a8389" d="M831.33,-343.32C853.97,-346.07 886.25,-349.99 910.46,-352.93"/>
<polygon fill="#7a8389" stroke="#7a8389" points="910.45,-355.39 917.69,-353.81 911.04,-350.53 910.45,-355.39"/>
</g>
<!-- course__STAT255&#45;&gt;choice_BIOL330_0_0 -->
<g id="edge17" class="edge">
<title>course__STAT255&#45;&gt;choice_BIOL330_0_0</title>
<path fill="none" stroke="#7a8389" d="M831.33,-354.25C854.26,-366.21 887.08,-383.32 911.39,-396"/>
<polygon fill="#7a8389" stroke="#7a8389" points="910.35,-398.22 917.69,-399.28 912.62,-393.87 910.35,-398.22"/>
</g>
<!-- choice_BIOL466_0 -->
<g id="node31" class="node">
<title>choice_BIOL466_0</title>
<path fill="#fff7ee" stroke="#b7793f" stroke-width="1.1" d="M1240,-473C1240,-473 1210,-473 1210,-473 1204,-473 1198,-467 1198,-461 1198,-461 1198,-449 1198,-449 1198,-443 1204,-437 1210,-437 1210,-437 1240,-437 1240,-437 1246,-437 1252,-443 1252,-449 1252,-449 1252,-461 1252,-461 1252,-467 1246,-473 1240,-473"/>
<text text-anchor="middle" x="1225" y="-452.8" font-family="Avenir Next" font-size="9.00">1 of</text>
</g>
<!-- course__BIOL319&#45;&gt;choice_BIOL466_0 -->
<g id="edge25" class="edge">
<title>course__BIOL319&#45;&gt;choice_BIOL466_0</title>
<path fill="none" stroke="#7a8389" d="M1113.59,-455C1135.83,-455 1167.18,-455 1190.79,-455"/>
<polygon fill="#7a8389" stroke="#7a8389" points="1190.86,-457.45 1197.86,-455 1190.86,-452.55 1190.86,-457.45"/>
</g>
<!-- course__BIOL330 -->
<g id="node23" class="node">
<title>course__BIOL330</title>
<g id="a_node23"><a xlink:href="../../../courses/BIOL330.html" xlink:title="BIOL330: Study Design and Data Analysis" target="_top">
<path fill="#dbe8d2" stroke="#1b2730" stroke-width="1.6" d="M1101.5,-529C1101.5,-529 1068.5,-529 1068.5,-529 1062.5,-529 1056.5,-523 1056.5,-517 1056.5,-517 1056.5,-505 1056.5,-505 1056.5,-499 1062.5,-493 1068.5,-493 1068.5,-493 1101.5,-493 1101.5,-493 1107.5,-493 1113.5,-499 1113.5,-505 1113.5,-505 1113.5,-517 1113.5,-517 1113.5,-523 1107.5,-529 1101.5,-529"/>
<text text-anchor="middle" x="1085" y="-508.5" font-family="Avenir Next" font-size="10.00" fill="#17232b">BIOL330</text>
</a>
</g>
</g>
<!-- course__BIOL466 -->
<g id="node25" class="node">
<title>course__BIOL466</title>
<g id="a_node25"><a xlink:href="../../../courses/BIOL466.html" xlink:title="BIOL466: Frontiers in Marine Biology" target="_top">
<path fill="#dbe8d2" stroke="#1f4f66" stroke-width="2" d="M1449,-497C1449,-497 1325,-497 1325,-497 1319,-497 1313,-491 1313,-485 1313,-485 1313,-473 1313,-473 1313,-467 1319,-461 1325,-461 1325,-461 1449,-461 1449,-461 1455,-461 1461,-467 1461,-473 1461,-473 1461,-485 1461,-485 1461,-491 1455,-497 1449,-497"/>
<text text-anchor="middle" x="1387" y="-482" font-family="Avenir Next" font-size="10.00" fill="#17232b">BIOL466</text>
<text text-anchor="middle" x="1387" y="-471" font-family="Avenir Next" font-size="10.00" fill="#17232b">Frontiers in Marine Biology</text>
</a>
</g>
</g>
<!-- course__BIOL330&#45;&gt;course__BIOL466 -->
<g id="edge27" class="edge">
<title>course__BIOL330&#45;&gt;course__BIOL466</title>
<path fill="none" stroke="#5d6972" stroke-width="1.2" d="M1113.69,-508.05C1156.91,-503.44 1242.08,-494.35 1305.71,-487.56"/>
<polygon fill="#5d6972" stroke="#5d6972" stroke-width="1.2" points="1306.27,-489.97 1312.97,-486.79 1305.75,-485.1 1306.27,-489.97"/>
</g>
<!-- course__EOS311&#45;&gt;choice_BIOL466_0 -->
<g id="edge24" class="edge">
<title>course__EOS311&#45;&gt;choice_BIOL466_0</title>
<path fill="none" stroke="#7a8389" d="M1125.55,-410.05C1146.44,-419.59 1171.77,-431.16 1191.51,-440.17"/>
<polygon fill="#7a8389" stroke="#7a8389" points="1190.58,-442.44 1197.97,-443.12 1192.62,-437.98 1190.58,-442.44"/>
</g>
<!-- choice_BIOL184_0_0&#45;&gt;course__BIOL184 -->
<g id="edge3" class="edge">
<title>choice_BIOL184_0_0&#45;&gt;course__BIOL184</title>
<path fill="none" stroke="#5d6972" stroke-width="1.2" d="M490.16,-762.2C466.92,-755.66 432.01,-746.67 401,-742 288.55,-725.08 153.49,-721.7 91.15,-721.09"/>
<polygon fill="#5d6972" stroke="#5d6972" stroke-width="1.2" points="90.93,-718.64 83.91,-721.03 90.89,-723.54 90.93,-718.64"/>
</g>
<!-- choice_BIOL186_0_0&#45;&gt;course__BIOL186 -->
<g id="edge6" class="edge">
<title>choice_BIOL186_0_0&#45;&gt;course__BIOL186</title>
<path fill="none" stroke="#5d6972" stroke-width="1.2" d="M226.23,-770C249.42,-770 283.4,-770 308.74,-770"/>
<polygon fill="#5d6972" stroke="#5d6972" stroke-width="1.2" points="308.97,-772.45 315.97,-770 308.97,-767.55 308.97,-772.45"/>
</g>
<!-- choice_BIOL319_0_1&#45;&gt;course__BIOL319 -->
<g id="edge15" class="edge">
<title>choice_BIOL319_0_1&#45;&gt;course__BIOL319</title>
<path fill="none" stroke="#5d6972" stroke-width="1.2" d="M970.63,-375.09C987.99,-387.77 1011.81,-405.06 1033,-420 1038.92,-424.18 1045.27,-428.58 1051.4,-432.81"/>
<polygon fill="#5d6972" stroke="#5d6972" stroke-width="1.2" points="1050.29,-435.02 1057.44,-436.96 1053.06,-430.98 1050.29,-435.02"/>
</g>
<!-- choice_BIOL330_0_0&#45;&gt;course__BIOL330 -->
<g id="edge22" class="edge">
<title>choice_BIOL330_0_0&#45;&gt;course__BIOL330</title>
<path fill="none" stroke="#5d6972" stroke-width="1.2" d="M966.31,-431.04C983.46,-445.86 1008.99,-466.93 1033,-483 1038.42,-486.63 1044.36,-490.21 1050.2,-493.54"/>
<polygon fill="#5d6972" stroke="#5d6972" stroke-width="1.2" points="1049.17,-495.77 1056.48,-497.04 1051.56,-491.49 1049.17,-495.77"/>
</g>
<!-- choice_BIOL330_0_2&#45;&gt;course__BIOL330 -->
<g id="edge23" class="edge">
<title>choice_BIOL330_0_2&#45;&gt;course__BIOL330</title>
<path fill="none" stroke="#5d6972" stroke-width="1.2" d="M969.1,-601.76C992.78,-583.05 1029.67,-553.91 1055.23,-533.72"/>
<polygon fill="#5d6972" stroke="#5d6972" stroke-width="1.2" points="1056.85,-535.57 1060.83,-529.3 1053.81,-531.72 1056.85,-535.57"/>
</g>
<!-- choice_BIOL466_0&#45;&gt;course__BIOL466 -->
<g id="edge26" class="edge">
<title>choice_BIOL466_0&#45;&gt;course__BIOL466</title>
<path fill="none" stroke="#5d6972" stroke-width="1.2" d="M1252.06,-458.91C1266.89,-461.13 1286.34,-464.05 1305.81,-466.97"/>
<polygon fill="#5d6972" stroke="#5d6972" stroke-width="1.2" points="1305.69,-469.43 1312.98,-468.05 1306.42,-464.59 1305.69,-469.43"/>
</g>
<!-- choice_EOS311_0_2&#45;&gt;course__EOS311 -->
<g id="edge38" class="edge">
<title>choice_EOS311_0_2&#45;&gt;course__EOS311</title>
<path fill="none" stroke="#5d6972" stroke-width="1.2" d="M972.28,-461.62C993.96,-448.11 1024.92,-428.82 1048.75,-413.97"/>
<polygon fill="#5d6972" stroke="#5d6972" stroke-width="1.2" points="1050.31,-415.88 1054.95,-410.1 1047.72,-411.72 1050.31,-415.88"/>
</g>
<!-- choice_EOS311_0_3&#45;&gt;course__EOS311 -->
<g id="edge39" class="edge">
<title>choice_EOS311_0_3&#45;&gt;course__EOS311</title>
<path fill="none" stroke="#5d6972" stroke-width="1.2" d="M955.27,-141.07C979.32,-187.95 1043.76,-313.56 1071.27,-367.18"/>
<polygon fill="#5d6972" stroke="#5d6972" stroke-width="1.2" points="1069.21,-368.55 1074.59,-373.66 1073.57,-366.31 1069.21,-368.55"/>
</g>
<!-- choice_PHYS102B_0&#45;&gt;course__PHYS102B -->
<g id="edge44" class="edge">
<title>choice_PHYS102B_0&#45;&gt;course__PHYS102B</title>
<path fill="none" stroke="#5d6972" stroke-width="1.2" d="M688,-35.34C709.22,-38.07 739.49,-41.96 763.51,-45.05"/>
<polygon fill="#5d6972" stroke="#5d6972" stroke-width="1.2" points="763.49,-47.52 770.75,-45.98 764.12,-42.66 763.49,-47.52"/>
</g>
</g>
</svg>
