<?xml version="1.0" encoding="UTF-8" standalone="no"?>
<!DOCTYPE svg PUBLIC "-//W3C//DTD SVG 1.1//EN"
 "http://www.w3.org/Graphics/SVG/1.1/DTD/svg11.dtd">
<!-- Generated by graphviz version 2.43.0 (0)
 -->
<!-- Title: BIOL446 Pages: 1 -->
<svg width="1502pt" height="864pt"
 viewBox="0.00 0.00 1502.20 863.95" xmlns="http://www.w3.org/2000/svg" xmlns:xlink="http://www.w3.org/1999/xlink">
<g id="graph0" class="graph" transform="scale(1 1) rotate(0) translate(21.6 842.35)">
<title>BIOL446</title>
<!-- course__BIOL150A -->
<g id="node1" class="node">
<title>course__BIOL150A</title>
<g id="a_node1"><a xlink:href="../../../courses/BIOL150A.html" xlink:title="BIOL150A: Modern Biology" target="_top">
<path fill="#dbe8d2" stroke="#7e8d96" d="M74.5,-820.75C74.5,-820.75 36.5,-820.75 36.5,-820.75 30.5,-820.75 24.5,-814.75 24.5,-808.75 24.5,-808.75 24.5,-796.75 24.5,-796.75 24.5,-790.75 30.5,-784.75 36.5,-784.75 36.5,-784.75 74.5,-784.75 74.5,-784.75 80.5,-784.75 86.5,-790.75 86.5,-796.75 86.5,-796.75 86.5,-808.75 86.5,-808.75 86.5,-814.75 80.5,-820.75 74.5,-820.75"/>
<text text-anchor="middle" x="55.5" y="-800.55" font-family="Avenir Next" font-size="9.00" fill="#41515b">BIOL150A</text>
</a>
</g>
</g>
<!-- choice_BIOL184_0_0 -->
<g id="node25" class="node">
<title>choice_BIOL184_0_0</title>
<path fill="#fff7ee" stroke="#b7793f" stroke-width="1.1" d="M532.5,-743.75C532.5,-743.75 502.5,-743.75 502.5,-743.75 496.5,-743.75 490.5,-737.75 490.5,-731.75 490.5,-731.75 490.5,-719.75 490.5,-719.75 490.5,-713.75 496.5,-707.75 502.5,-707.75 502.5,-707.75 532.5,-707.75 532.5,-707.75 538.5,-707.75 544.5,-713.75 544.5,-719.75 544.5,-719.75 544.5,-731.75 544.5,-731.75 544.5,-737.75 538.5,-743.75 532.5,-743.75"/>
<text text-anchor="middle" x="517.5" y="-723.55" font-family="Avenir Next" font-size="9.00">1 of</text>
</g>
<!-- course__BIOL150A&#45;&gt;choice_BIOL184_0_0 -->
<g id="edge1" class="edge">
<title>course__BIOL150A&#45;&gt;choice_BIOL184_0_0</title>
<path fill="none" stroke="#7a8389" d="M86.66,-805.09C120.67,-807.19 177.56,-809.06 226,-802.75 321.32,-790.34 429.89,-755.91 483.28,-737.59"/>
<polygon fill="#7a8389" stroke="#7a8389" points="484.31,-739.82 490.13,-735.22 482.71,-735.19 484.31,-739.82"/>
</g>
<!-- choice_BIOL186_0_0 -->
<g id="node26" class="node">
<title>choice_BIOL186_0_0</title>
<path fill="#fff7ee" stroke="#b7793f" stroke-width="1.1" d="M214,-792.75C214,-792.75 184,-792.75 184,-792.75 178,-792.75 172,-786.75 172,-780.75 172,-780.75 172,-768.75 172,-768.75 172,-762.75 178,-756.75 184,-756.75 184,-756.75 214,-756.75 214,-756.75 220,-756.75 226,-762.75 226,-768.75 226,-768.75 226,-780.75 226,-780.75 226,-786.75 220,-792.75 214,-792.75"/>
<text text-anchor="middle" x="199" y="-772.55" font-family="Avenir Next" font-size="9.00">1 of</text>
</g>
<!-- course__BIOL150A&#45;&gt;choice_BIOL186_0_0 -->
<g id="edge4" class="edge">
<title>course__BIOL150A&#45;&gt;choice_BIOL186_0_0</title>
<path fill="none" stroke="#7a8389" d="M86.51,-796.82C109.45,-792.28 141.05,-786.02 164.76,-781.33"/>
<polygon fill="#7a8389" stroke="#7a8389" points="165.45,-783.69 171.84,-779.93 164.5,-778.89 165.45,-783.69"/>
</g>
<!-- course__BIOL184 -->
<g id="node2" class="node">
<title>course__BIOL184</title>
<g id="a_node2"><a xlink:href="../../../courses/BIOL184.html" xlink:title="BIOL184: Evolution and Biodiversity" target="_top">
<path fill="#dbe8d2" stroke="#7e8d96" d="M71.5,-743.75C71.5,-743.75 39.5,-743.75 39.5,-743.75 33.5,-743.75 27.5,-737.75 27.5,-731.75 27.5,-731.75 27.5,-719.75 27.5,-719.75 27.5,-713.75 33.5,-707.75 39.5,-707.75 39.5,-707.75 71.5,-707.75 71.5,-707.75 77.5,-707.75 83.5,-713.75 83.5,-719.75 83.5,-719.75 83.5,-731.75 83.5,-731.75 83.5,-737.75 77.5,-743.75 71.5,-743.75"/>
<text text-anchor="middle" x="55.5" y="-723.55" font-family="Avenir Next" font-size="9.00" fill="#41515b">BIOL184</text>
</a>
</g>
</g>
<!-- course__BIOL225 -->
<g id="node7" class="node">
<title>course__BIOL225</title>
<g id="a_node7"><a xlink:href="../../../courses/BIOL225.html" xlink:title="BIOL225: Principles of Cell Biology" target="_top">
<path fill="#dbe8d2" stroke="#7e8d96" d="M533.5,-666.75C533.5,-666.75 501.5,-666.75 501.5,-666.75 495.5,-666.75 489.5,-660.75 489.5,-654.75 489.5,-654.75 489.5,-642.75 489.5,-642.75 489.5,-636.75 495.5,-630.75 501.5,-630.75 501.5,-630.75 533.5,-630.75 533.5,-630.75 539.5,-630.75 545.5,-636.75 545.5,-642.75 545.5,-642.75 545.5,-654.75 545.5,-654.75 545.5,-660.75 539.5,-666.75 533.5,-666.75"/>
<text text-anchor="middle" x="517.5" y="-646.55" font-family="Avenir Next" font-size="9.00" fill="#41515b">BIOL225</text>
</a>
</g>
</g>
<!-- course__BIOL184&#45;&gt;course__BIOL225 -->
<g id="edge8" class="edge">
<title>course__BIOL184&#45;&gt;course__BIOL225</title>
<path fill="none" stroke="#5d6972" stroke-width="1.2" d="M83.8,-713.41C126.22,-694.98 211,-661.11 287,-648.75 355.55,-637.61 437.14,-641.64 482.24,-645.35"/>
<polygon fill="#5d6972" stroke="#5d6972" stroke-width="1.2" points="482.24,-647.81 489.42,-645.96 482.66,-642.92 482.24,-647.81"/>
</g>
<!-- course__BIOL184&#45;&gt;choice_BIOL186_0_0 -->
<g id="edge5" class="edge">
<title>course__BIOL184&#45;&gt;choice_BIOL186_0_0</title>
<path fill="none" stroke="#7a8389" d="M83.78,-735.2C106.98,-743.23 140.35,-754.79 165.04,-763.34"/>
<polygon fill="#7a8389" stroke="#7a8389" points="164.34,-765.69 171.76,-765.67 165.94,-761.06 164.34,-765.69"/>
</g>
<!-- course__MATH100 -->
<g id="node3" class="node">
<title>course__MATH100</title>
<g id="a_node3"><a xlink:href="../../../courses/MATH100.html" xlink:title="Equivalent or cross&#45;listed: MATH100: Calculus I | MATH102: Calculus for Students in the Social and Biological Sciences | MATH109: Introduction to Calculus" target="_top">
<path fill="#dfe3f4" stroke="#7e8d96" d="M99,-208.75C99,-208.75 12,-208.75 12,-208.75 6,-208.75 0,-202.75 0,-196.75 0,-196.75 0,-184.75 0,-184.75 0,-178.75 6,-172.75 12,-172.75 12,-172.75 99,-172.75 99,-172.75 105,-172.75 111,-178.75 111,-184.75 111,-184.75 111,-196.75 111,-196.75 111,-202.75 105,-208.75 99,-208.75"/>
<text text-anchor="middle" x="55.5" y="-193.55" font-family="Avenir Next" font-size="9.00" fill="#41515b">MATH100 / MATH102</text>
<text text-anchor="middle" x="55.5" y="-183.55" font-family="Avenir Next" font-size="9.00" fill="#41515b">MATH109</text>
</a>
</g>
</g>
<!-- course__MATH101 -->
<g id="node6" class="node">
<title>course__MATH101</title>
<g id="a_node6"><a xlink:href="../../../courses/MATH101.html" xlink:title="MATH101: Calculus II" target="_top">
<path fill="#dfe3f4" stroke="#7e8d96" d="M361.5,-313.75C361.5,-313.75 326.5,-313.75 326.5,-313.75 320.5,-313.75 314.5,-307.75 314.5,-301.75 314.5,-301.75 314.5,-289.75 314.5,-289.75 314.5,-283.75 320.5,-277.75 326.5,-277.75 326.5,-277.75 361.5,-277.75 361.5,-277.75 367.5,-277.75 373.5,-283.75 373.5,-289.75 373.5,-289.75 373.5,-301.75 373.5,-301.75 373.5,-307.75 367.5,-313.75 361.5,-313.75"/>
<text text-anchor="middle" x="344" y="-293.55" font-family="Avenir Next" font-size="9.00" fill="#41515b">MATH101</text>
</a>
</g>
</g>
<!-- course__MATH100&#45;&gt;course__MATH101 -->
<g id="edge35" class="edge">
<title>course__MATH100&#45;&gt;course__MATH101</title>
<path fill="none" stroke="#5d6972" stroke-width="1.2" d="M105.75,-208.8C163.2,-229.86 256.78,-264.15 307.54,-282.76"/>
<polygon fill="#5d6972" stroke="#5d6972" stroke-width="1.2" points="306.99,-285.17 314.41,-285.28 308.68,-280.57 306.99,-285.17"/>
</g>
<!-- course__PHYS110 -->
<g id="node12" class="node">
<title>course__PHYS110</title>
<g id="a_node12"><a xlink:href="../../../courses/PHYS110.html" xlink:title="Equivalent or cross&#45;listed: PHYS110: Introductory Physics I | PHYS120: Physics I" target="_top">
<path fill="#efd8cf" stroke="#7e8d96" d="M559.5,-208.75C559.5,-208.75 475.5,-208.75 475.5,-208.75 469.5,-208.75 463.5,-202.75 463.5,-196.75 463.5,-196.75 463.5,-184.75 463.5,-184.75 463.5,-178.75 469.5,-172.75 475.5,-172.75 475.5,-172.75 559.5,-172.75 559.5,-172.75 565.5,-172.75 571.5,-178.75 571.5,-184.75 571.5,-184.75 571.5,-196.75 571.5,-196.75 571.5,-202.75 565.5,-208.75 559.5,-208.75"/>
<text text-anchor="middle" x="517.5" y="-188.55" font-family="Avenir Next" font-size="9.00" fill="#41515b">PHYS110 / PHYS120</text>
</a>
</g>
</g>
<!-- course__MATH100&#45;&gt;course__PHYS110 -->
<g id="edge40" class="edge">
<title>course__MATH100&#45;&gt;course__PHYS110</title>
<path fill="none" stroke="#5d6972" stroke-width="1.2" d="M111.07,-190.75C197.73,-190.75 366.2,-190.75 456.27,-190.75"/>
<polygon fill="#5d6972" stroke="#5d6972" stroke-width="1.2" points="456.42,-193.2 463.42,-190.75 456.42,-188.3 456.42,-193.2"/>
</g>
<!-- course__CHEM102 -->
<g id="node15" class="node">
<title>course__CHEM102</title>
<g id="a_node15"><a xlink:href="../../../courses/CHEM102.html" xlink:title="CHEM102: Chemical Reactivity Fundamentals with Environmental Applications" target="_top">
<path fill="#ead9b8" stroke="#7e8d96" d="M821.5,-509.75C821.5,-509.75 784.5,-509.75 784.5,-509.75 778.5,-509.75 772.5,-503.75 772.5,-497.75 772.5,-497.75 772.5,-485.75 772.5,-485.75 772.5,-479.75 778.5,-473.75 784.5,-473.75 784.5,-473.75 821.5,-473.75 821.5,-473.75 827.5,-473.75 833.5,-479.75 833.5,-485.75 833.5,-485.75 833.5,-497.75 833.5,-497.75 833.5,-503.75 827.5,-509.75 821.5,-509.75"/>
<text text-anchor="middle" x="803" y="-489.55" font-family="Avenir Next" font-size="9.00" fill="#41515b">CHEM102</text>
</a>
</g>
</g>
<!-- course__MATH100&#45;&gt;course__CHEM102 -->
<g id="edge25" class="edge">
<title>course__MATH100&#45;&gt;course__CHEM102</title>
<path fill="none" stroke="#5d6972" stroke-width="1.2" d="M63.34,-209.13C89,-274.48 186.09,-491.75 343,-491.75 343,-491.75 343,-491.75 518.5,-491.75 606.87,-491.75 710.75,-491.75 764.9,-491.75"/>
<polygon fill="#5d6972" stroke="#5d6972" stroke-width="1.2" points="765.2,-494.2 772.2,-491.75 765.2,-489.3 765.2,-494.2"/>
</g>
<!-- course__PHYS111 -->
<g id="node18" class="node">
<title>course__PHYS111</title>
<g id="a_node18"><a xlink:href="../../../courses/PHYS111.html" xlink:title="Equivalent or cross&#45;listed: PHYS111: Introductory Physics II | PHYS130: Physics II" target="_top">
<path fill="#efd8cf" stroke="#7e8d96" d="M845,-208.75C845,-208.75 761,-208.75 761,-208.75 755,-208.75 749,-202.75 749,-196.75 749,-196.75 749,-184.75 749,-184.75 749,-178.75 755,-172.75 761,-172.75 761,-172.75 845,-172.75 845,-172.75 851,-172.75 857,-178.75 857,-184.75 857,-184.75 857,-196.75 857,-196.75 857,-202.75 851,-208.75 845,-208.75"/>
<text text-anchor="middle" x="803" y="-188.55" font-family="Avenir Next" font-size="9.00" fill="#41515b">PHYS111 / PHYS130</text>
</a>
</g>
</g>
<!-- course__MATH100&#45;&gt;course__PHYS111 -->
<g id="edge42" class="edge">
<title>course__MATH100&#45;&gt;course__PHYS111</title>
<path fill="none" stroke="#5d6972" stroke-width="1.2" d="M111.22,-175.72C168.52,-161.32 261.38,-141.75 343,-141.75 343,-141.75 343,-141.75 518.5,-141.75 596.62,-141.75 685.09,-160.04 742.12,-174.27"/>
<polygon fill="#5d6972" stroke="#5d6972" stroke-width="1.2" points="741.53,-176.65 748.91,-175.99 742.73,-171.9 741.53,-176.65"/>
</g>
<!-- choice_EOS311_0_2 -->
<g id="node30" class="node">
<title>choice_EOS311_0_2</title>
<path fill="#fff7ee" stroke="#b7793f" stroke-width="1.1" d="M960,-93.75C960,-93.75 930,-93.75 930,-93.75 924,-93.75 918,-87.75 918,-81.75 918,-81.75 918,-69.75 918,-69.75 918,-63.75 924,-57.75 930,-57.75 930,-57.75 960,-57.75 960,-57.75 966,-57.75 972,-63.75 972,-69.75 972,-69.75 972,-81.75 972,-81.75 972,-87.75 966,-93.75 960,-93.75"/>
<text text-anchor="middle" x="945" y="-73.55" font-family="Avenir Next" font-size="9.00">2 of</text>
</g>
<!-- course__MATH100&#45;&gt;choice_EOS311_0_2 -->
<g id="edge27" class="edge">
<title>course__MATH100&#45;&gt;choice_EOS311_0_2</title>
<path fill="none" stroke="#7a8389" d="M70.41,-172.63C108.46,-125.33 219.65,-1.75 343,-1.75 343,-1.75 343,-1.75 662,-1.75 749.17,-1.75 774.46,5.26 857,-22.75 877.73,-29.79 898.76,-42.42 914.95,-53.58"/>
<polygon fill="#7a8389" stroke="#7a8389" points="913.55,-55.59 920.68,-57.61 916.36,-51.58 913.55,-55.59"/>
</g>
<!-- course__BIOL186 -->
<g id="node4" class="node">
<title>course__BIOL186</title>
<g id="a_node4"><a xlink:href="../../../courses/BIOL186.html" xlink:title="BIOL186: Physiology and Cell Biology" target="_top">
<path fill="#dbe8d2" stroke="#7e8d96" d="M360,-694.75C360,-694.75 328,-694.75 328,-694.75 322,-694.75 316,-688.75 316,-682.75 316,-682.75 316,-670.75 316,-670.75 316,-664.75 322,-658.75 328,-658.75 328,-658.75 360,-658.75 360,-658.75 366,-658.75 372,-664.75 372,-670.75 372,-670.75 372,-682.75 372,-682.75 372,-688.75 366,-694.75 360,-694.75"/>
<text text-anchor="middle" x="344" y="-674.55" font-family="Avenir Next" font-size="9.00" fill="#41515b">BIOL186</text>
</a>
</g>
</g>
<!-- course__BIOL186&#45;&gt;course__BIOL225 -->
<g id="edge7" class="edge">
<title>course__BIOL186&#45;&gt;course__BIOL225</title>
<path fill="none" stroke="#5d6972" stroke-width="1.2" d="M372.17,-672.32C402.03,-667.44 450.03,-659.61 482.39,-654.32"/>
<polygon fill="#5d6972" stroke="#5d6972" stroke-width="1.2" points="482.94,-656.72 489.45,-653.17 482.15,-651.88 482.94,-656.72"/>
</g>
<!-- course__BIOL186&#45;&gt;choice_BIOL184_0_0 -->
<g id="edge2" class="edge">
<title>course__BIOL186&#45;&gt;choice_BIOL184_0_0</title>
<path fill="none" stroke="#7a8389" d="M372.17,-684.52C402.29,-693.12 450.88,-707.01 483.25,-716.25"/>
<polygon fill="#7a8389" stroke="#7a8389" points="482.89,-718.7 490.3,-718.27 484.24,-713.99 482.89,-718.7"/>
</g>
<!-- course__CHEM101 -->
<g id="node5" class="node">
<title>course__CHEM101</title>
<g id="a_node5"><a xlink:href="../../../courses/CHEM101.html" xlink:title="Equivalent or cross&#45;listed: CHEM101: Fundamentals of Chemistry from Atoms to Materials | CHEM150: Engineering Chemistry" target="_top">
<path fill="#ead9b8" stroke="#7e8d96" d="M389,-561.75C389,-561.75 299,-561.75 299,-561.75 293,-561.75 287,-555.75 287,-549.75 287,-549.75 287,-537.75 287,-537.75 287,-531.75 293,-525.75 299,-525.75 299,-525.75 389,-525.75 389,-525.75 395,-525.75 401,-531.75 401,-537.75 401,-537.75 401,-549.75 401,-549.75 401,-555.75 395,-561.75 389,-561.75"/>
<text text-anchor="middle" x="344" y="-541.55" font-family="Avenir Next" font-size="9.00" fill="#41515b">CHEM101 / CHEM150</text>
</a>
</g>
</g>
<!-- course__CHEM231 -->
<g id="node9" class="node">
<title>course__CHEM231</title>
<g id="a_node9"><a xlink:href="../../../courses/CHEM231.html" xlink:title="CHEM231: Introduction to Organic Chemistry" target="_top">
<path fill="#ead9b8" stroke="#7e8d96" d="M536,-600.75C536,-600.75 499,-600.75 499,-600.75 493,-600.75 487,-594.75 487,-588.75 487,-588.75 487,-576.75 487,-576.75 487,-570.75 493,-564.75 499,-564.75 499,-564.75 536,-564.75 536,-564.75 542,-564.75 548,-570.75 548,-576.75 548,-576.75 548,-588.75 548,-588.75 548,-594.75 542,-600.75 536,-600.75"/>
<text text-anchor="middle" x="517.5" y="-580.55" font-family="Avenir Next" font-size="9.00" fill="#41515b">CHEM231</text>
</a>
</g>
</g>
<!-- course__CHEM101&#45;&gt;course__CHEM231 -->
<g id="edge26" class="edge">
<title>course__CHEM101&#45;&gt;course__CHEM231</title>
<path fill="none" stroke="#5d6972" stroke-width="1.2" d="M401.16,-556.52C427.01,-562.4 456.95,-569.21 479.84,-574.42"/>
<polygon fill="#5d6972" stroke="#5d6972" stroke-width="1.2" points="479.34,-576.82 486.71,-575.98 480.43,-572.04 479.34,-576.82"/>
</g>
<!-- course__CHEM101&#45;&gt;course__CHEM102 -->
<g id="edge24" class="edge">
<title>course__CHEM101&#45;&gt;course__CHEM102</title>
<path fill="none" stroke="#5d6972" stroke-width="1.2" d="M401.21,-538.46C469.21,-531.92 587.12,-520.12 688,-507.75 713.78,-504.59 742.75,-500.52 765.05,-497.27"/>
<polygon fill="#5d6972" stroke="#5d6972" stroke-width="1.2" points="765.46,-499.69 772.03,-496.25 764.75,-494.84 765.46,-499.69"/>
</g>
<!-- course__MATH200 -->
<g id="node10" class="node">
<title>course__MATH200</title>
<g id="a_node10"><a xlink:href="../../../courses/MATH200.html" xlink:title="Equivalent or cross&#45;listed: MATH200: Calculus III | MATH202: Intermediate Calculus for CSC and EOS" target="_top">
<path fill="#dfe3f4" stroke="#7e8d96" d="M561,-362.75C561,-362.75 474,-362.75 474,-362.75 468,-362.75 462,-356.75 462,-350.75 462,-350.75 462,-338.75 462,-338.75 462,-332.75 468,-326.75 474,-326.75 474,-326.75 561,-326.75 561,-326.75 567,-326.75 573,-332.75 573,-338.75 573,-338.75 573,-350.75 573,-350.75 573,-356.75 567,-362.75 561,-362.75"/>
<text text-anchor="middle" x="517.5" y="-342.55" font-family="Avenir Next" font-size="9.00" fill="#41515b">MATH200 / MATH202</text>
</a>
</g>
</g>
<!-- course__MATH101&#45;&gt;course__MATH200 -->
<g id="edge36" class="edge">
<title>course__MATH101&#45;&gt;course__MATH200</title>
<path fill="none" stroke="#5d6972" stroke-width="1.2" d="M373.71,-303.96C395.77,-310.26 427.06,-319.2 454.72,-327.1"/>
<polygon fill="#5d6972" stroke="#5d6972" stroke-width="1.2" points="454.27,-329.52 461.67,-329.09 455.61,-324.81 454.27,-329.52"/>
</g>
<!-- course__MATH101&#45;&gt;course__PHYS111 -->
<g id="edge43" class="edge">
<title>course__MATH101&#45;&gt;course__PHYS111</title>
<path fill="none" stroke="#5d6972" stroke-width="1.2" d="M373.56,-300.19C434.29,-308.32 579.56,-320.85 688,-274.75 721.87,-260.36 718.93,-239.97 749,-218.75 752.08,-216.58 755.35,-214.46 758.7,-212.42"/>
<polygon fill="#5d6972" stroke="#5d6972" stroke-width="1.2" points="759.99,-214.51 764.78,-208.85 757.5,-210.28 759.99,-214.51"/>
</g>
<!-- course__STAT254 -->
<g id="node19" class="node">
<title>course__STAT254</title>
<g id="a_node19"><a xlink:href="../../../courses/STAT254.html" xlink:title="Equivalent or cross&#45;listed: STAT254: Probability and Statistics for Engineers | STAT260: Introduction to Probability and Statistics I" target="_top">
<path fill="#e6dde9" stroke="#7e8d96" d="M843,-397.75C843,-397.75 763,-397.75 763,-397.75 757,-397.75 751,-391.75 751,-385.75 751,-385.75 751,-373.75 751,-373.75 751,-367.75 757,-361.75 763,-361.75 763,-361.75 843,-361.75 843,-361.75 849,-361.75 855,-367.75 855,-373.75 855,-373.75 855,-385.75 855,-385.75 855,-391.75 849,-397.75 843,-397.75"/>
<text text-anchor="middle" x="803" y="-377.55" font-family="Avenir Next" font-size="9.00" fill="#41515b">STAT254 / STAT260</text>
</a>
</g>
</g>
<!-- course__MATH101&#45;&gt;course__STAT254 -->
<g id="edge45" class="edge">
<title>course__MATH101&#45;&gt;course__STAT254</title>
<path fill="none" stroke="#5d6972" stroke-width="1.2" d="M364.74,-313.79C386.65,-332.53 423.97,-360.76 462,-372.75 556.93,-402.7 674.3,-396.24 743.37,-388.33"/>
<polygon fill="#5d6972" stroke="#5d6972" stroke-width="1.2" points="744.06,-390.72 750.73,-387.47 743.49,-385.85 744.06,-390.72"/>
</g>
<!-- course__MATH101&#45;&gt;choice_EOS311_0_2 -->
<g id="edge28" class="edge">
<title>course__MATH101&#45;&gt;choice_EOS311_0_2</title>
<path fill="none" stroke="#7a8389" d="M355.29,-277.67C373,-248.34 412.19,-190.87 462,-162.75 539.85,-118.8 815,-88.36 910.81,-78.88"/>
<polygon fill="#7a8389" stroke="#7a8389" points="911.2,-81.31 917.93,-78.19 910.72,-76.43 911.2,-81.31"/>
</g>
<!-- course__BIOL230 -->
<g id="node14" class="node">
<title>course__BIOL230</title>
<g id="a_node14"><a xlink:href="../../../courses/BIOL230.html" xlink:title="BIOL230: Principles of Genetics" target="_top">
<path fill="#dbe8d2" stroke="#7e8d96" d="M819,-628.75C819,-628.75 787,-628.75 787,-628.75 781,-628.75 775,-622.75 775,-616.75 775,-616.75 775,-604.75 775,-604.75 775,-598.75 781,-592.75 787,-592.75 787,-592.75 819,-592.75 819,-592.75 825,-592.75 831,-598.75 831,-604.75 831,-604.75 831,-616.75 831,-616.75 831,-622.75 825,-628.75 819,-628.75"/>
<text text-anchor="middle" x="803" y="-608.55" font-family="Avenir Next" font-size="9.00" fill="#41515b">BIOL230</text>
</a>
</g>
</g>
<!-- course__BIOL225&#45;&gt;course__BIOL230 -->
<g id="edge9" class="edge">
<title>course__BIOL225&#45;&gt;course__BIOL230</title>
<path fill="none" stroke="#5d6972" stroke-width="1.2" d="M545.68,-645.11C597.65,-638.15 710.97,-622.96 767.91,-615.32"/>
<polygon fill="#5d6972" stroke="#5d6972" stroke-width="1.2" points="768.29,-617.75 774.9,-614.39 767.64,-612.89 768.29,-617.75"/>
</g>
<!-- choice_BIOL330_0_2 -->
<g id="node28" class="node">
<title>choice_BIOL330_0_2</title>
<path fill="#fff7ee" stroke="#b7793f" stroke-width="1.1" d="M960,-652.75C960,-652.75 930,-652.75 930,-652.75 924,-652.75 918,-646.75 918,-640.75 918,-640.75 918,-628.75 918,-628.75 918,-622.75 924,-616.75 930,-616.75 930,-616.75 960,-616.75 960,-616.75 966,-616.75 972,-622.75 972,-628.75 972,-628.75 972,-640.75 972,-640.75 972,-646.75 966,-652.75 960,-652.75"/>
<text text-anchor="middle" x="945" y="-632.55" font-family="Avenir Next" font-size="9.00">1 of</text>
</g>
<!-- course__BIOL225&#45;&gt;choice_BIOL330_0_2 -->
<g id="edge14" class="edge">
<title>course__BIOL225&#45;&gt;choice_BIOL330_0_2</title>
<path fill="none" stroke="#7a8389" d="M545.51,-648.22C578.96,-647.53 637.69,-646.24 688,-644.75 763.13,-642.53 781.9,-641.81 857,-638.75 874.69,-638.03 894.39,-637.14 910.57,-636.37"/>
<polygon fill="#7a8389" stroke="#7a8389" points="910.86,-638.81 917.73,-636.03 910.63,-633.92 910.86,-638.81"/>
</g>
<!-- course__CHEM091 -->
<g id="node8" class="node">
<title>course__CHEM091</title>
<g id="a_node8"><a xlink:href="../../../courses/CHEM091.html" xlink:title="CHEM091: Introduction to Chemistry" target="_top">
<path fill="#ead9b8" stroke="#7e8d96" d="M536,-460.75C536,-460.75 499,-460.75 499,-460.75 493,-460.75 487,-454.75 487,-448.75 487,-448.75 487,-436.75 487,-436.75 487,-430.75 493,-424.75 499,-424.75 499,-424.75 536,-424.75 536,-424.75 542,-424.75 548,-430.75 548,-436.75 548,-436.75 548,-448.75 548,-448.75 548,-454.75 542,-460.75 536,-460.75"/>
<text text-anchor="middle" x="517.5" y="-440.55" font-family="Avenir Next" font-size="9.00" fill="#41515b">CHEM091</text>
</a>
</g>
</g>
<!-- course__CHEM091&#45;&gt;course__CHEM102 -->
<g id="edge23" class="edge">
<title>course__CHEM091&#45;&gt;course__CHEM102</title>
<path fill="none" stroke="#5d6972" stroke-width="1.2" d="M548.04,-447.86C600.13,-456.86 708.17,-475.54 765.09,-485.37"/>
<polygon fill="#5d6972" stroke="#5d6972" stroke-width="1.2" points="764.79,-487.81 772.1,-486.59 765.62,-482.98 764.79,-487.81"/>
</g>
<!-- course__CHEM231&#45;&gt;course__BIOL230 -->
<g id="edge10" class="edge">
<title>course__CHEM231&#45;&gt;course__BIOL230</title>
<path fill="none" stroke="#5d6972" stroke-width="1.2" d="M548.04,-585.67C600.83,-590.89 711.12,-601.78 767.38,-607.34"/>
<polygon fill="#5d6972" stroke="#5d6972" stroke-width="1.2" points="767.42,-609.8 774.62,-608.05 767.9,-604.92 767.42,-609.8"/>
</g>
<!-- course__MATH200&#45;&gt;course__STAT254 -->
<g id="edge44" class="edge">
<title>course__MATH200&#45;&gt;course__STAT254</title>
<path fill="none" stroke="#5d6972" stroke-width="1.2" d="M573.16,-351.5C622.08,-357.54 693.6,-366.37 743.63,-372.55"/>
<polygon fill="#5d6972" stroke="#5d6972" stroke-width="1.2" points="743.6,-375.01 750.84,-373.44 744.2,-370.15 743.6,-375.01"/>
</g>
<!-- course__PHYS102A -->
<g id="node11" class="node">
<title>course__PHYS102A</title>
<g id="a_node11"><a xlink:href="../../../courses/PHYS102A.html" xlink:title="PHYS102A: General Physics I" target="_top">
<path fill="#efd8cf" stroke="#7e8d96" d="M537.5,-264.75C537.5,-264.75 497.5,-264.75 497.5,-264.75 491.5,-264.75 485.5,-258.75 485.5,-252.75 485.5,-252.75 485.5,-240.75 485.5,-240.75 485.5,-234.75 491.5,-228.75 497.5,-228.75 497.5,-228.75 537.5,-228.75 537.5,-228.75 543.5,-228.75 549.5,-234.75 549.5,-240.75 549.5,-240.75 549.5,-252.75 549.5,-252.75 549.5,-258.75 543.5,-264.75 537.5,-264.75"/>
<text text-anchor="middle" x="517.5" y="-244.55" font-family="Avenir Next" font-size="9.00" fill="#41515b">PHYS102A</text>
</a>
</g>
</g>
<!-- choice_PHYS102B_0 -->
<g id="node32" class="node">
<title>choice_PHYS102B_0</title>
<path fill="#fff7ee" stroke="#b7793f" stroke-width="1.1" d="M676,-264.75C676,-264.75 646,-264.75 646,-264.75 640,-264.75 634,-258.75 634,-252.75 634,-252.75 634,-240.75 634,-240.75 634,-234.75 640,-228.75 646,-228.75 646,-228.75 676,-228.75 676,-228.75 682,-228.75 688,-234.75 688,-240.75 688,-240.75 688,-252.75 688,-252.75 688,-258.75 682,-264.75 676,-264.75"/>
<text text-anchor="middle" x="661" y="-244.55" font-family="Avenir Next" font-size="9.00">1 of</text>
</g>
<!-- course__PHYS102A&#45;&gt;choice_PHYS102B_0 -->
<g id="edge37" class="edge">
<title>course__PHYS102A&#45;&gt;choice_PHYS102B_0</title>
<path fill="none" stroke="#7a8389" d="M549.55,-246.75C572.31,-246.75 603.17,-246.75 626.48,-246.75"/>
<polygon fill="#7a8389" stroke="#7a8389" points="626.77,-249.2 633.77,-246.75 626.77,-244.3 626.77,-249.2"/>
</g>
<!-- course__PHYS110&#45;&gt;course__PHYS111 -->
<g id="edge41" class="edge">
<title>course__PHYS110&#45;&gt;course__PHYS111</title>
<path fill="none" stroke="#5d6972" stroke-width="1.2" d="M571.82,-190.75C620.13,-190.75 691.26,-190.75 741.64,-190.75"/>
<polygon fill="#5d6972" stroke="#5d6972" stroke-width="1.2" points="741.91,-193.2 748.91,-190.75 741.91,-188.3 741.91,-193.2"/>
</g>
<!-- course__PHYS110&#45;&gt;choice_PHYS102B_0 -->
<g id="edge38" class="edge">
<title>course__PHYS110&#45;&gt;choice_PHYS102B_0</title>
<path fill="none" stroke="#7a8389" d="M564.05,-208.78C584.63,-216.93 608.48,-226.36 627.25,-233.79"/>
<polygon fill="#7a8389" stroke="#7a8389" points="626.52,-236.14 633.93,-236.43 628.32,-231.58 626.52,-236.14"/>
</g>
<!-- course__BIOL215 -->
<g id="node13" class="node">
<title>course__BIOL215</title>
<g id="a_node13"><a xlink:href="../../../courses/BIOL215.html" xlink:title="BIOL215: Principles of Ecology" target="_top">
<path fill="#dbe8d2" stroke="#1b2730" stroke-width="1.6" d="M819.5,-726.75C819.5,-726.75 786.5,-726.75 786.5,-726.75 780.5,-726.75 774.5,-720.75 774.5,-714.75 774.5,-714.75 774.5,-702.75 774.5,-702.75 774.5,-696.75 780.5,-690.75 786.5,-690.75 786.5,-690.75 819.5,-690.75 819.5,-690.75 825.5,-690.75 831.5,-696.75 831.5,-702.75 831.5,-702.75 831.5,-714.75 831.5,-714.75 831.5,-720.75 825.5,-726.75 819.5,-726.75"/>
<text text-anchor="middle" x="803" y="-706.25" font-family="Avenir Next" font-size="10.00" fill="#17232b">BIOL215</text>
</a>
</g>
</g>
<!-- course__BIOL215&#45;&gt;choice_BIOL330_0_2 -->
<g id="edge13" class="edge">
<title>course__BIOL215&#45;&gt;choice_BIOL330_0_2</title>
<path fill="none" stroke="#7a8389" d="M831.66,-694.13C854.63,-681.99 887.34,-664.7 911.55,-651.91"/>
<polygon fill="#7a8389" stroke="#7a8389" points="912.77,-654.03 917.82,-648.59 910.48,-649.7 912.77,-654.03"/>
</g>
<!-- choice_BIOL446_0_0 -->
<g id="node29" class="node">
<title>choice_BIOL446_0_0</title>
<path fill="#fff7ee" stroke="#b7793f" stroke-width="1.1" d="M1240,-480.75C1240,-480.75 1210,-480.75 1210,-480.75 1204,-480.75 1198,-474.75 1198,-468.75 1198,-468.75 1198,-456.75 1198,-456.75 1198,-450.75 1204,-444.75 1210,-444.75 1210,-444.75 1240,-444.75 1240,-444.75 1246,-444.75 1252,-450.75 1252,-456.75 1252,-456.75 1252,-468.75 1252,-468.75 1252,-474.75 1246,-480.75 1240,-480.75"/>
<text text-anchor="middle" x="1225" y="-460.55" font-family="Avenir Next" font-size="9.00">1 of</text>
</g>
<!-- course__BIOL215&#45;&gt;choice_BIOL446_0_0 -->
<g id="edge18" class="edge">
<title>course__BIOL215&#45;&gt;choice_BIOL446_0_0</title>
<path fill="none" stroke="#7a8389" d="M831.71,-704.69C866.06,-698.88 925.74,-686.2 972,-662.75 1066.84,-614.69 1159.97,-527.52 1201.5,-485.98"/>
<polygon fill="#7a8389" stroke="#7a8389" points="1203.34,-487.6 1206.54,-480.91 1199.87,-484.14 1203.34,-487.6"/>
</g>
<!-- course__BIOL230&#45;&gt;choice_BIOL330_0_2 -->
<g id="edge15" class="edge">
<title>course__BIOL230&#45;&gt;choice_BIOL330_0_2</title>
<path fill="none" stroke="#7a8389" d="M831.33,-615.44C854.07,-619.34 886.53,-624.9 910.77,-629.06"/>
<polygon fill="#7a8389" stroke="#7a8389" points="910.38,-631.48 917.69,-630.24 911.21,-626.65 910.38,-631.48"/>
</g>
<!-- course__EOS311 -->
<g id="node22" class="node">
<title>course__EOS311</title>
<g id="a_node22"><a xlink:href="../../../courses/EOS311.html" xlink:title="Equivalent or cross&#45;listed: BIOL311: Biological Oceanography | EOS311: Biological Oceanography" target="_top">
<path fill="#d7e9ef" stroke="#1b2730" stroke-width="1.6" d="M1125,-452.75C1125,-452.75 1045,-452.75 1045,-452.75 1039,-452.75 1033,-446.75 1033,-440.75 1033,-440.75 1033,-428.75 1033,-428.75 1033,-422.75 1039,-416.75 1045,-416.75 1045,-416.75 1125,-416.75 1125,-416.75 1131,-416.75 1137,-422.75 1137,-428.75 1137,-428.75 1137,-440.75 1137,-440.75 1137,-446.75 1131,-452.75 1125,-452.75"/>
<text text-anchor="middle" x="1085" y="-432.25" font-family="Avenir Next" font-size="10.00" fill="#17232b">BIOL311 / EOS311</text>
</a>
</g>
</g>
<!-- course__CHEM102&#45;&gt;course__EOS311 -->
<g id="edge32" class="edge">
<title>course__CHEM102&#45;&gt;course__EOS311</title>
<path fill="none" stroke="#5d6972" stroke-width="1.2" d="M833.59,-487.63C867.26,-482.75 923.84,-473.98 972,-463.75 989.69,-460 1008.8,-455.29 1026.13,-450.78"/>
<polygon fill="#5d6972" stroke="#5d6972" stroke-width="1.2" points="1026.78,-453.14 1032.93,-448.99 1025.54,-448.4 1026.78,-453.14"/>
</g>
<!-- course__MATH151 -->
<g id="node16" class="node">
<title>course__MATH151</title>
<g id="a_node16"><a xlink:href="../../../courses/MATH151.html" xlink:title="MATH151: Finite Mathematics" target="_top">
<path fill="#dfe3f4" stroke="#7e8d96" d="M820.5,-68.75C820.5,-68.75 785.5,-68.75 785.5,-68.75 779.5,-68.75 773.5,-62.75 773.5,-56.75 773.5,-56.75 773.5,-44.75 773.5,-44.75 773.5,-38.75 779.5,-32.75 785.5,-32.75 785.5,-32.75 820.5,-32.75 820.5,-32.75 826.5,-32.75 832.5,-38.75 832.5,-44.75 832.5,-44.75 832.5,-56.75 832.5,-56.75 832.5,-62.75 826.5,-68.75 820.5,-68.75"/>
<text text-anchor="middle" x="803" y="-48.55" font-family="Avenir Next" font-size="9.00" fill="#41515b">MATH151</text>
</a>
</g>
</g>
<!-- course__MATH151&#45;&gt;choice_EOS311_0_2 -->
<g id="edge29" class="edge">
<title>course__MATH151&#45;&gt;choice_EOS311_0_2</title>
<path fill="none" stroke="#7a8389" d="M832.67,-55.87C855.29,-59.91 886.88,-65.55 910.63,-69.8"/>
<polygon fill="#7a8389" stroke="#7a8389" points="910.41,-72.24 917.73,-71.06 911.27,-67.42 910.41,-72.24"/>
</g>
<!-- course__PHYS102B -->
<g id="node17" class="node">
<title>course__PHYS102B</title>
<g id="a_node17"><a xlink:href="../../../courses/PHYS102B.html" xlink:title="PHYS102B: General Physics II" target="_top">
<path fill="#efd8cf" stroke="#7e8d96" d="M823,-264.75C823,-264.75 783,-264.75 783,-264.75 777,-264.75 771,-258.75 771,-252.75 771,-252.75 771,-240.75 771,-240.75 771,-234.75 777,-228.75 783,-228.75 783,-228.75 823,-228.75 823,-228.75 829,-228.75 835,-234.75 835,-240.75 835,-240.75 835,-252.75 835,-252.75 835,-258.75 829,-264.75 823,-264.75"/>
<text text-anchor="middle" x="803" y="-244.55" font-family="Avenir Next" font-size="9.00" fill="#41515b">PHYS102B</text>
</a>
</g>
</g>
<!-- choice_EOS311_0_3 -->
<g id="node31" class="node">
<title>choice_EOS311_0_3</title>
<path fill="#fff7ee" stroke="#b7793f" stroke-width="1.1" d="M960,-264.75C960,-264.75 930,-264.75 930,-264.75 924,-264.75 918,-258.75 918,-252.75 918,-252.75 918,-240.75 918,-240.75 918,-234.75 924,-228.75 930,-228.75 930,-228.75 960,-228.75 960,-228.75 966,-228.75 972,-234.75 972,-240.75 972,-240.75 972,-252.75 972,-252.75 972,-258.75 966,-264.75 960,-264.75"/>
<text text-anchor="middle" x="945" y="-244.55" font-family="Avenir Next" font-size="9.00">1 of</text>
</g>
<!-- course__PHYS102B&#45;&gt;choice_EOS311_0_3 -->
<g id="edge30" class="edge">
<title>course__PHYS102B&#45;&gt;choice_EOS311_0_3</title>
<path fill="none" stroke="#7a8389" d="M835.07,-246.75C857.46,-246.75 887.64,-246.75 910.55,-246.75"/>
<polygon fill="#7a8389" stroke="#7a8389" points="910.72,-249.2 917.72,-246.75 910.72,-244.3 910.72,-249.2"/>
</g>
<!-- course__PHYS111&#45;&gt;choice_EOS311_0_3 -->
<g id="edge31" class="edge">
<title>course__PHYS111&#45;&gt;choice_EOS311_0_3</title>
<path fill="none" stroke="#7a8389" d="M849.07,-208.78C869.29,-216.87 892.7,-226.23 911.21,-233.64"/>
<polygon fill="#7a8389" stroke="#7a8389" points="910.39,-235.95 917.8,-236.27 912.21,-231.4 910.39,-235.95"/>
</g>
<!-- choice_BIOL330_0_0 -->
<g id="node27" class="node">
<title>choice_BIOL330_0_0</title>
<path fill="#fff7ee" stroke="#b7793f" stroke-width="1.1" d="M960,-453.75C960,-453.75 930,-453.75 930,-453.75 924,-453.75 918,-447.75 918,-441.75 918,-441.75 918,-429.75 918,-429.75 918,-423.75 924,-417.75 930,-417.75 930,-417.75 960,-417.75 960,-417.75 966,-417.75 972,-423.75 972,-429.75 972,-429.75 972,-441.75 972,-441.75 972,-447.75 966,-453.75 960,-453.75"/>
<text text-anchor="middle" x="945" y="-433.55" font-family="Avenir Next" font-size="9.00">1 of</text>
</g>
<!-- course__STAT254&#45;&gt;choice_BIOL330_0_0 -->
<g id="edge12" class="edge">
<title>course__STAT254&#45;&gt;choice_BIOL330_0_0</title>
<path fill="none" stroke="#7a8389" d="M849.07,-397.78C869.29,-405.87 892.7,-415.23 911.21,-422.64"/>
<polygon fill="#7a8389" stroke="#7a8389" points="910.39,-424.95 917.8,-425.27 912.21,-420.4 910.39,-424.95"/>
</g>
<!-- course__STAT255 -->
<g id="node20" class="node">
<title>course__STAT255</title>
<g id="a_node20"><a xlink:href="../../../courses/STAT255.html" xlink:title="STAT255: Statistics for Life Sciences I" target="_top">
<path fill="#e6dde9" stroke="#7e8d96" d="M819,-453.75C819,-453.75 787,-453.75 787,-453.75 781,-453.75 775,-447.75 775,-441.75 775,-441.75 775,-429.75 775,-429.75 775,-423.75 781,-417.75 787,-417.75 787,-417.75 819,-417.75 819,-417.75 825,-417.75 831,-423.75 831,-429.75 831,-429.75 831,-441.75 831,-441.75 831,-447.75 825,-453.75 819,-453.75"/>
<text text-anchor="middle" x="803" y="-433.55" font-family="Avenir Next" font-size="9.00" fill="#41515b">STAT255</text>
</a>
</g>
</g>
<!-- course__STAT255&#45;&gt;choice_BIOL330_0_0 -->
<g id="edge11" class="edge">
<title>course__STAT255&#45;&gt;choice_BIOL330_0_0</title>
<path fill="none" stroke="#7a8389" d="M831.33,-435.75C853.97,-435.75 886.25,-435.75 910.46,-435.75"/>
<polygon fill="#7a8389" stroke="#7a8389" points="910.69,-438.2 917.69,-435.75 910.69,-433.3 910.69,-438.2"/>
</g>
<!-- course__BIOL330 -->
<g id="node21" class="node">
<title>course__BIOL330</title>
<g id="a_node21"><a xlink:href="../../../courses/BIOL330.html" xlink:title="BIOL330: Study Design and Data Analysis" target="_top">
<path fill="#dbe8d2" stroke="#1b2730" stroke-width="1.6" d="M1101.5,-508.75C1101.5,-508.75 1068.5,-508.75 1068.5,-508.75 1062.5,-508.75 1056.5,-502.75 1056.5,-496.75 1056.5,-496.75 1056.5,-484.75 1056.5,-484.75 1056.5,-478.75 1062.5,-472.75 1068.5,-472.75 1068.5,-472.75 1101.5,-472.75 1101.5,-472.75 1107.5,-472.75 1113.5,-478.75 1113.5,-484.75 1113.5,-484.75 1113.5,-496.75 1113.5,-496.75 1113.5,-502.75 1107.5,-508.75 1101.5,-508.75"/>
<text text-anchor="middle" x="1085" y="-488.25" font-family="Avenir Next" font-size="10.00" fill="#17232b">BIOL330</text>
</a>
</g>
</g>
<!-- course__BIOL330&#45;&gt;choice_BIOL446_0_0 -->
<g id="edge20" class="edge">
<title>course__BIOL330&#45;&gt;choice_BIOL446_0_0</title>
<path fill="none" stroke="#7a8389" d="M1113.59,-485.16C1135.83,-480.64 1167.18,-474.28 1190.79,-469.49"/>
<polygon fill="#7a8389" stroke="#7a8389" points="1191.48,-471.85 1197.86,-468.06 1190.51,-467.05 1191.48,-471.85"/>
</g>
<!-- course__EOS311&#45;&gt;choice_BIOL446_0_0 -->
<g id="edge19" class="edge">
<title>course__EOS311&#45;&gt;choice_BIOL446_0_0</title>
<path fill="none" stroke="#7a8389" d="M1137.39,-445.18C1155.2,-448.79 1174.68,-452.75 1190.66,-455.99"/>
<polygon fill="#7a8389" stroke="#7a8389" points="1190.38,-458.43 1197.73,-457.42 1191.36,-453.63 1190.38,-458.43"/>
</g>
<!-- course__GEOG371 -->
<g id="node23" class="node">
<title>course__GEOG371</title>
<g id="a_node23"><a xlink:href="../../../courses/GEOG371.html" xlink:title="GEOG371: Water Resources Management" target="_top">
<path fill="#e7e2d8" stroke="#1b2730" stroke-width="1.6" d="M1104.5,-396.75C1104.5,-396.75 1065.5,-396.75 1065.5,-396.75 1059.5,-396.75 1053.5,-390.75 1053.5,-384.75 1053.5,-384.75 1053.5,-372.75 1053.5,-372.75 1053.5,-366.75 1059.5,-360.75 1065.5,-360.75 1065.5,-360.75 1104.5,-360.75 1104.5,-360.75 1110.5,-360.75 1116.5,-366.75 1116.5,-372.75 1116.5,-372.75 1116.5,-384.75 1116.5,-384.75 1116.5,-390.75 1110.5,-396.75 1104.5,-396.75"/>
<text text-anchor="middle" x="1085" y="-376.25" font-family="Avenir Next" font-size="10.00" fill="#17232b">GEOG371</text>
</a>
</g>
</g>
<!-- course__GEOG371&#45;&gt;choice_BIOL446_0_0 -->
<g id="edge21" class="edge">
<title>course__GEOG371&#45;&gt;choice_BIOL446_0_0</title>
<path fill="none" stroke="#7a8389" d="M1116.67,-395.14C1123.42,-398.87 1130.49,-402.88 1137,-406.75 1155.26,-417.62 1175.22,-430.41 1191.41,-441.01"/>
<polygon fill="#7a8389" stroke="#7a8389" points="1190.45,-443.31 1197.65,-445.11 1193.14,-439.22 1190.45,-443.31"/>
</g>
<!-- course__BIOL446 -->
<g id="node24" class="node">
<title>course__BIOL446</title>
<g id="a_node24"><a xlink:href="../../../courses/BIOL446.html" xlink:title="BIOL446: Advanced Aquatic Ecology" target="_top">
<path fill="#dbe8d2" stroke="#1f4f66" stroke-width="2" d="M1447,-480.75C1447,-480.75 1325,-480.75 1325,-480.75 1319,-480.75 1313,-474.75 1313,-468.75 1313,-468.75 1313,-456.75 1313,-456.75 1313,-450.75 1319,-444.75 1325,-444.75 1325,-444.75 1447,-444.75 1447,-444.75 1453,-444.75 1459,-450.75 1459,-456.75 1459,-456.75 1459,-468.75 1459,-468.75 1459,-474.75 1453,-480.75 1447,-480.75"/>
<text text-anchor="middle" x="1386" y="-465.75" font-family="Avenir Next" font-size="10.00" fill="#17232b">BIOL446</text>
<text text-anchor="middle" x="1386" y="-454.75" font-family="Avenir Next" font-size="10.00" fill="#17232b">Advanced Aquatic Ecology</text>
</a>
</g>
</g>
<!-- choice_BIOL184_0_0&#45;&gt;course__BIOL184 -->
<g id="edge3" class="edge">
<title>choice_BIOL184_0_0&#45;&gt;course__BIOL184</title>
<path fill="none" stroke="#5d6972" stroke-width="1.2" d="M490.34,-725.75C411.89,-725.75 178.64,-725.75 90.63,-725.75"/>
<polygon fill="#5d6972" stroke="#5d6972" stroke-width="1.2" points="90.56,-723.3 83.56,-725.75 90.56,-728.2 90.56,-723.3"/>
</g>
<!-- choice_BIOL186_0_0&#45;&gt;course__BIOL186 -->
<g id="edge6" class="edge">
<title>choice_BIOL186_0_0&#45;&gt;course__BIOL186</title>
<path fill="none" stroke="#5d6972" stroke-width="1.2" d="M226.23,-756.78C249.97,-740.51 285.01,-716.49 310.51,-699.02"/>
<polygon fill="#5d6972" stroke="#5d6972" stroke-width="1.2" points="312.06,-700.92 316.45,-694.95 309.29,-696.88 312.06,-700.92"/>
</g>
<!-- choice_BIOL330_0_0&#45;&gt;course__BIOL330 -->
<g id="edge16" class="edge">
<title>choice_BIOL330_0_0&#45;&gt;course__BIOL330</title>
<path fill="none" stroke="#5d6972" stroke-width="1.2" d="M972.28,-446.23C994.3,-455 1025.88,-467.59 1049.85,-477.14"/>
<polygon fill="#5d6972" stroke="#5d6972" stroke-width="1.2" points="1048.99,-479.44 1056.4,-479.75 1050.8,-474.89 1048.99,-479.44"/>
</g>
<!-- choice_BIOL330_0_2&#45;&gt;course__BIOL330 -->
<g id="edge17" class="edge">
<title>choice_BIOL330_0_2&#45;&gt;course__BIOL330</title>
<path fill="none" stroke="#5d6972" stroke-width="1.2" d="M963.48,-616.52C988.47,-590.44 1034.4,-542.51 1061.78,-513.94"/>
<polygon fill="#5d6972" stroke="#5d6972" stroke-width="1.2" points="1063.59,-515.59 1066.66,-508.84 1060.05,-512.2 1063.59,-515.59"/>
</g>
<!-- choice_BIOL446_0_0&#45;&gt;course__BIOL446 -->
<g id="edge22" class="edge">
<title>choice_BIOL446_0_0&#45;&gt;course__BIOL446</title>
<path fill="none" stroke="#5d6972" stroke-width="1.2" d="M1252.26,-462.75C1267.02,-462.75 1286.33,-462.75 1305.63,-462.75"/>
<polygon fill="#5d6972" stroke="#5d6972" stroke-width="1.2" points="1305.73,-465.2 1312.73,-462.75 1305.73,-460.3 1305.73,-465.2"/>
</g>
<!-- choice_EOS311_0_2&#45;&gt;course__EOS311 -->
<g id="edge33" class="edge">
<title>choice_EOS311_0_2&#45;&gt;course__EOS311</title>
<path fill="none" stroke="#5d6972" stroke-width="1.2" d="M949.86,-93.78C964,-159.15 1013.07,-381.23 1033,-406.75 1034.43,-408.59 1036.01,-410.31 1037.71,-411.94"/>
<polygon fill="#5d6972" stroke="#5d6972" stroke-width="1.2" points="1036.2,-413.87 1043.12,-416.53 1039.37,-410.14 1036.2,-413.87"/>
</g>
<!-- choice_EOS311_0_3&#45;&gt;course__EOS311 -->
<g id="edge34" class="edge">
<title>choice_EOS311_0_3&#45;&gt;course__EOS311</title>
<path fill="none" stroke="#5d6972" stroke-width="1.2" d="M952,-264.94C963.36,-297.03 990.72,-364.3 1033,-406.75 1034.93,-408.69 1037.02,-410.54 1039.23,-412.28"/>
<polygon fill="#5d6972" stroke="#5d6972" stroke-width="1.2" points="1038.16,-414.53 1045.26,-416.67 1041.04,-410.57 1038.16,-414.53"/>
</g>
<!-- choice_PHYS102B_0&#45;&gt;course__PHYS102B -->
<g id="edge39" class="edge">
<title>choice_PHYS102B_0&#45;&gt;course__PHYS102B</title>
<path fill="none" stroke="#5d6972" stroke-width="1.2" d="M688,-246.75C709.22,-246.75 739.49,-246.75 763.51,-246.75"/>
<polygon fill="#5d6972" stroke="#5d6972" stroke-width="1.2" points="763.75,-249.2 770.75,-246.75 763.75,-244.3 763.75,-249.2"/>
</g>
</g>
</svg>
