<?xml version="1.0" encoding="UTF-8" standalone="no"?>
<!DOCTYPE svg PUBLIC "-//W3C//DTD SVG 1.1//EN"
 "http://www.w3.org/Graphics/SVG/1.1/DTD/svg11.dtd">
<!-- Generated by graphviz version 2.43.0 (0)
 -->
<!-- Title: BIOL184 Pages: 1 -->
<svg width="1646pt" height="778pt"
 viewBox="0.00 0.00 1646.20 778.20" xmlns="http://www.w3.org/2000/svg" xmlns:xlink="http://www.w3.org/1999/xlink">
<g id="graph0" class="graph" transform="scale(1 1) rotate(0) translate(21.6 756.6)">
<title>BIOL184</title>
<!-- course__BIOL150A -->
<g id="node1" class="node">
<title>course__BIOL150A</title>
<g id="a_node1"><a xlink:href="../../../courses/BIOL150A.html" xlink:title="BIOL150A: Modern Biology" target="_top">
<path fill="#dbe8d2" stroke="#1b2730" stroke-width="1.6" d="M335,-677C335,-677 295,-677 295,-677 289,-677 283,-671 283,-665 283,-665 283,-653 283,-653 283,-647 289,-641 295,-641 295,-641 335,-641 335,-641 341,-641 347,-647 347,-653 347,-653 347,-665 347,-665 347,-671 341,-677 335,-677"/>
<text text-anchor="middle" x="315" y="-656.5" font-family="Avenir Next" font-size="10.00" fill="#17232b">BIOL150A</text>
</a>
</g>
</g>
<!-- choice_BIOL184_0_0 -->
<g id="node24" class="node">
<title>choice_BIOL184_0_0</title>
<path fill="#fff7ee" stroke="#b7793f" stroke-width="1.1" d="M450,-677C450,-677 420,-677 420,-677 414,-677 408,-671 408,-665 408,-665 408,-653 408,-653 408,-647 414,-641 420,-641 420,-641 450,-641 450,-641 456,-641 462,-647 462,-653 462,-653 462,-665 462,-665 462,-671 456,-677 450,-677"/>
<text text-anchor="middle" x="435" y="-656.8" font-family="Avenir Next" font-size="9.00">1 of</text>
</g>
<!-- course__BIOL150A&#45;&gt;choice_BIOL184_0_0 -->
<g id="edge3" class="edge">
<title>course__BIOL150A&#45;&gt;choice_BIOL184_0_0</title>
<path fill="none" stroke="#7a8389" d="M347,-659C363.61,-659 384.08,-659 400.98,-659"/>
<polygon fill="#7a8389" stroke="#7a8389" points="400.99,-661.45 407.99,-659 400.99,-656.55 400.99,-661.45"/>
</g>
<!-- choice_BIOL186_0_0 -->
<g id="node25" class="node">
<title>choice_BIOL186_0_0</title>
<path fill="#fff7ee" stroke="#b7793f" stroke-width="1.1" d="M771,-735C771,-735 741,-735 741,-735 735,-735 729,-729 729,-723 729,-723 729,-711 729,-711 729,-705 735,-699 741,-699 741,-699 771,-699 771,-699 777,-699 783,-705 783,-711 783,-711 783,-723 783,-723 783,-729 777,-735 771,-735"/>
<text text-anchor="middle" x="756" y="-714.8" font-family="Avenir Next" font-size="9.00">1 of</text>
</g>
<!-- course__BIOL150A&#45;&gt;choice_BIOL186_0_0 -->
<g id="edge6" class="edge">
<title>course__BIOL150A&#45;&gt;choice_BIOL186_0_0</title>
<path fill="none" stroke="#7a8389" d="M347.1,-670.24C364.74,-676.16 387.35,-683.01 408,-687 521.53,-708.93 659.07,-714.84 721.4,-716.42"/>
<polygon fill="#7a8389" stroke="#7a8389" points="721.57,-718.88 728.62,-716.6 721.68,-713.98 721.57,-718.88"/>
</g>
<!-- choice_EOS330_0_1_2 -->
<g id="node32" class="node">
<title>choice_EOS330_0_1_2</title>
<path fill="#fff7ee" stroke="#b7793f" stroke-width="1.1" d="M771,-385C771,-385 741,-385 741,-385 735,-385 729,-379 729,-373 729,-373 729,-361 729,-361 729,-355 735,-349 741,-349 741,-349 771,-349 771,-349 777,-349 783,-355 783,-361 783,-361 783,-373 783,-373 783,-379 777,-385 771,-385"/>
<text text-anchor="middle" x="756" y="-364.8" font-family="Avenir Next" font-size="9.00">1 of</text>
</g>
<!-- course__BIOL150A&#45;&gt;choice_EOS330_0_1_2 -->
<g id="edge44" class="edge">
<title>course__BIOL150A&#45;&gt;choice_EOS330_0_1_2</title>
<path fill="none" stroke="#7a8389" d="M340.91,-640.99C379.54,-613.19 456.37,-558.41 523,-514 593.29,-467.15 677.41,-414.74 722.55,-386.9"/>
<polygon fill="#7a8389" stroke="#7a8389" points="723.98,-388.9 728.65,-383.14 721.41,-384.73 723.98,-388.9"/>
</g>
<!-- course__BIOL186 -->
<g id="node2" class="node">
<title>course__BIOL186</title>
<g id="a_node2"><a xlink:href="../../../courses/BIOL186.html" xlink:title="BIOL186: Physiology and Cell Biology" target="_top">
<path fill="#dbe8d2" stroke="#1b2730" stroke-width="1.6" d="M889,-686C889,-686 856,-686 856,-686 850,-686 844,-680 844,-674 844,-674 844,-662 844,-662 844,-656 850,-650 856,-650 856,-650 889,-650 889,-650 895,-650 901,-656 901,-662 901,-662 901,-674 901,-674 901,-680 895,-686 889,-686"/>
<text text-anchor="middle" x="872.5" y="-665.5" font-family="Avenir Next" font-size="10.00" fill="#17232b">BIOL186</text>
</a>
</g>
</g>
<!-- course__BIOL225 -->
<g id="node6" class="node">
<title>course__BIOL225</title>
<g id="a_node6"><a xlink:href="../../../courses/BIOL225.html" xlink:title="BIOL225: Principles of Cell Biology" target="_top">
<path fill="#dbe8d2" stroke="#1b2730" stroke-width="1.6" d="M612,-560C612,-560 579,-560 579,-560 573,-560 567,-554 567,-548 567,-548 567,-536 567,-536 567,-530 573,-524 579,-524 579,-524 612,-524 612,-524 618,-524 624,-530 624,-536 624,-536 624,-548 624,-548 624,-554 618,-560 612,-560"/>
<text text-anchor="middle" x="595.5" y="-539.5" font-family="Avenir Next" font-size="10.00" fill="#17232b">BIOL225</text>
</a>
</g>
</g>
<!-- course__BIOL186&#45;&gt;course__BIOL225 -->
<g id="edge9" class="edge">
<title>course__BIOL186&#45;&gt;course__BIOL225</title>
<path fill="none" stroke="#5d6972" stroke-width="1.2" d="M843.89,-655.35C793.25,-632.15 685.68,-582.86 630.58,-557.61"/>
<polygon fill="#5d6972" stroke="#5d6972" stroke-width="1.2" points="631.51,-555.35 624.13,-554.66 629.47,-559.8 631.51,-555.35"/>
</g>
<!-- course__BIOL186&#45;&gt;choice_BIOL184_0_0 -->
<g id="edge4" class="edge">
<title>course__BIOL186&#45;&gt;choice_BIOL184_0_0</title>
<path fill="none" stroke="#7a8389" d="M843.81,-667.43C767.18,-665.84 552.49,-661.41 469.42,-659.69"/>
<polygon fill="#7a8389" stroke="#7a8389" points="469.31,-657.24 462.26,-659.54 469.21,-662.14 469.31,-657.24"/>
</g>
<!-- course__EOS330 -->
<g id="node3" class="node">
<title>course__EOS330</title>
<g id="a_node3"><a xlink:href="../../../courses/EOS330.html" xlink:title="EOS330: Paleobiology" target="_top">
<path fill="#d7e9ef" stroke="#1b2730" stroke-width="1.6" d="M887.5,-385C887.5,-385 857.5,-385 857.5,-385 851.5,-385 845.5,-379 845.5,-373 845.5,-373 845.5,-361 845.5,-361 845.5,-355 851.5,-349 857.5,-349 857.5,-349 887.5,-349 887.5,-349 893.5,-349 899.5,-355 899.5,-361 899.5,-361 899.5,-373 899.5,-373 899.5,-379 893.5,-385 887.5,-385"/>
<text text-anchor="middle" x="872.5" y="-364.5" font-family="Avenir Next" font-size="10.00" fill="#17232b">EOS330</text>
</a>
</g>
</g>
<!-- choice_BIOL457_0_0 -->
<g id="node30" class="node">
<title>choice_BIOL457_0_0</title>
<path fill="#fff7ee" stroke="#b7793f" stroke-width="1.1" d="M1004,-366C1004,-366 974,-366 974,-366 968,-366 962,-360 962,-354 962,-354 962,-342 962,-342 962,-336 968,-330 974,-330 974,-330 1004,-330 1004,-330 1010,-330 1016,-336 1016,-342 1016,-342 1016,-354 1016,-354 1016,-360 1010,-366 1004,-366"/>
<text text-anchor="middle" x="989" y="-345.8" font-family="Avenir Next" font-size="9.00">1 of</text>
</g>
<!-- course__EOS330&#45;&gt;choice_BIOL457_0_0 -->
<g id="edge37" class="edge">
<title>course__EOS330&#45;&gt;choice_BIOL457_0_0</title>
<path fill="none" stroke="#7a8389" d="M899.77,-362.64C916.06,-359.94 937.14,-356.44 954.61,-353.54"/>
<polygon fill="#7a8389" stroke="#7a8389" points="955.35,-355.9 961.85,-352.34 954.55,-351.07 955.35,-355.9"/>
</g>
<!-- course__BIOL184 -->
<g id="node4" class="node">
<title>course__BIOL184</title>
<g id="a_node4"><a xlink:href="../../../courses/BIOL184.html" xlink:title="BIOL184: Evolution and Biodiversity" target="_top">
<path fill="#dbe8d2" stroke="#1f4f66" stroke-width="2" d="M656,-623C656,-623 535,-623 535,-623 529,-623 523,-617 523,-611 523,-611 523,-599 523,-599 523,-593 529,-587 535,-587 535,-587 656,-587 656,-587 662,-587 668,-593 668,-599 668,-599 668,-611 668,-611 668,-617 662,-623 656,-623"/>
<text text-anchor="middle" x="595.5" y="-608" font-family="Avenir Next" font-size="10.00" fill="#17232b">BIOL184</text>
<text text-anchor="middle" x="595.5" y="-597" font-family="Avenir Next" font-size="10.00" fill="#17232b">Evolution and Biodiversity</text>
</a>
</g>
</g>
<!-- course__BIOL184&#45;&gt;course__BIOL225 -->
<g id="edge10" class="edge">
<title>course__BIOL184&#45;&gt;course__BIOL225</title>
<path fill="none" stroke="#5d6972" stroke-width="1.2" d="M595.5,-586.8C595.5,-580.29 595.5,-573.78 595.5,-567.27"/>
<polygon fill="#5d6972" stroke="#5d6972" stroke-width="1.2" points="597.95,-567.21 595.5,-560.21 593.05,-567.21 597.95,-567.21"/>
</g>
<!-- course__BIOL184&#45;&gt;choice_BIOL186_0_0 -->
<g id="edge7" class="edge">
<title>course__BIOL184&#45;&gt;choice_BIOL186_0_0</title>
<path fill="none" stroke="#7a8389" d="M622.32,-623.24C650.03,-642.83 694.07,-673.94 723.72,-694.9"/>
<polygon fill="#7a8389" stroke="#7a8389" points="722.32,-696.91 729.46,-698.95 725.15,-692.91 722.32,-696.91"/>
</g>
<!-- course__BIOL184&#45;&gt;choice_EOS330_0_1_2 -->
<g id="edge45" class="edge">
<title>course__BIOL184&#45;&gt;choice_EOS330_0_1_2</title>
<path fill="none" stroke="#7a8389" d="M645.44,-586.91C653.68,-582.31 661.62,-576.71 668,-570 717.35,-518.1 741,-433.87 750.18,-392.11"/>
<polygon fill="#7a8389" stroke="#7a8389" points="752.62,-392.42 751.68,-385.07 747.83,-391.4 752.62,-392.42"/>
</g>
<!-- course__BIOL215 -->
<g id="node5" class="node">
<title>course__BIOL215</title>
<g id="a_node5"><a xlink:href="../../../courses/BIOL215.html" xlink:title="BIOL215: Principles of Ecology" target="_top">
<path fill="#dbe8d2" stroke="#1b2730" stroke-width="1.6" d="M612,-189C612,-189 579,-189 579,-189 573,-189 567,-183 567,-177 567,-177 567,-165 567,-165 567,-159 573,-153 579,-153 579,-153 612,-153 612,-153 618,-153 624,-159 624,-165 624,-165 624,-177 624,-177 624,-183 618,-189 612,-189"/>
<text text-anchor="middle" x="595.5" y="-168.5" font-family="Avenir Next" font-size="10.00" fill="#17232b">BIOL215</text>
</a>
</g>
</g>
<!-- course__BIOL335 -->
<g id="node10" class="node">
<title>course__BIOL335</title>
<g id="a_node10"><a xlink:href="../../../courses/BIOL335.html" xlink:title="BIOL335: Ichthyology" target="_top">
<path fill="#dbe8d2" stroke="#7e8d96" d="M1124,-123C1124,-123 1092,-123 1092,-123 1086,-123 1080,-117 1080,-111 1080,-111 1080,-99 1080,-99 1080,-93 1086,-87 1092,-87 1092,-87 1124,-87 1124,-87 1130,-87 1136,-93 1136,-99 1136,-99 1136,-111 1136,-111 1136,-117 1130,-123 1124,-123"/>
<text text-anchor="middle" x="1108" y="-102.8" font-family="Avenir Next" font-size="9.00" fill="#41515b">BIOL335</text>
</a>
</g>
</g>
<!-- course__BIOL215&#45;&gt;course__BIOL335 -->
<g id="edge20" class="edge">
<title>course__BIOL215&#45;&gt;course__BIOL335</title>
<path fill="none" stroke="#5d6972" stroke-width="1.2" d="M624.05,-161.6C650.6,-152.95 692.07,-140.51 729,-134 854.14,-111.95 1005.51,-106.66 1072.38,-105.4"/>
<polygon fill="#5d6972" stroke="#5d6972" stroke-width="1.2" points="1072.77,-107.84 1079.73,-105.27 1072.69,-102.94 1072.77,-107.84"/>
</g>
<!-- course__BIOL418 -->
<g id="node11" class="node">
<title>course__BIOL418</title>
<g id="a_node11"><a xlink:href="../../../courses/BIOL418.html" xlink:title="BIOL418: Forest Ecology" target="_top">
<path fill="#dbe8d2" stroke="#7e8d96" d="M1124,-67C1124,-67 1092,-67 1092,-67 1086,-67 1080,-61 1080,-55 1080,-55 1080,-43 1080,-43 1080,-37 1086,-31 1092,-31 1092,-31 1124,-31 1124,-31 1130,-31 1136,-37 1136,-43 1136,-43 1136,-55 1136,-55 1136,-61 1130,-67 1124,-67"/>
<text text-anchor="middle" x="1108" y="-46.8" font-family="Avenir Next" font-size="9.00" fill="#41515b">BIOL418</text>
</a>
</g>
</g>
<!-- course__BIOL215&#45;&gt;course__BIOL418 -->
<g id="edge24" class="edge">
<title>course__BIOL215&#45;&gt;course__BIOL418</title>
<path fill="none" stroke="#5d6972" stroke-width="1.2" d="M624.2,-158.94C650.69,-147.79 691.96,-131.43 729,-121 853.4,-85.97 1005.64,-62.77 1072.61,-53.52"/>
<polygon fill="#5d6972" stroke="#5d6972" stroke-width="1.2" points="1072.98,-55.94 1079.58,-52.56 1072.32,-51.09 1072.98,-55.94"/>
</g>
<!-- course__BIOL319 -->
<g id="node13" class="node">
<title>course__BIOL319</title>
<g id="a_node13"><a xlink:href="../../../courses/BIOL319.html" xlink:title="BIOL319: Marine Ecology" target="_top">
<path fill="#dbe8d2" stroke="#7e8d96" d="M1359,-430C1359,-430 1327,-430 1327,-430 1321,-430 1315,-424 1315,-418 1315,-418 1315,-406 1315,-406 1315,-400 1321,-394 1327,-394 1327,-394 1359,-394 1359,-394 1365,-394 1371,-400 1371,-406 1371,-406 1371,-418 1371,-418 1371,-424 1365,-430 1359,-430"/>
<text text-anchor="middle" x="1343" y="-409.8" font-family="Avenir Next" font-size="9.00" fill="#41515b">BIOL319</text>
</a>
</g>
</g>
<!-- course__BIOL215&#45;&gt;course__BIOL319 -->
<g id="edge12" class="edge">
<title>course__BIOL215&#45;&gt;course__BIOL319</title>
<path fill="none" stroke="#5d6972" stroke-width="1.2" d="M624,-180.7C650.52,-189.57 691.96,-202.17 729,-208 959.68,-244.31 1063.66,-93.71 1254,-229 1314.34,-271.89 1274.98,-321.72 1315,-384 1315.96,-385.49 1317,-386.97 1318.11,-388.43"/>
<polygon fill="#5d6972" stroke="#5d6972" stroke-width="1.2" points="1316.26,-390.04 1322.61,-393.89 1320.05,-386.93 1316.26,-390.04"/>
</g>
<!-- course__BIOL370 -->
<g id="node17" class="node">
<title>course__BIOL370</title>
<g id="a_node17"><a xlink:href="../../../courses/BIOL370.html" xlink:title="BIOL370: Conservation Biology" target="_top">
<path fill="#dbe8d2" stroke="#7e8d96" d="M1359,-374C1359,-374 1327,-374 1327,-374 1321,-374 1315,-368 1315,-362 1315,-362 1315,-350 1315,-350 1315,-344 1321,-338 1327,-338 1327,-338 1359,-338 1359,-338 1365,-338 1371,-344 1371,-350 1371,-350 1371,-362 1371,-362 1371,-368 1365,-374 1359,-374"/>
<text text-anchor="middle" x="1343" y="-353.8" font-family="Avenir Next" font-size="9.00" fill="#41515b">BIOL370</text>
</a>
</g>
</g>
<!-- course__BIOL215&#45;&gt;course__BIOL370 -->
<g id="edge22" class="edge">
<title>course__BIOL215&#45;&gt;course__BIOL370</title>
<path fill="none" stroke="#5d6972" stroke-width="1.2" d="M624.16,-167.48C735.46,-153.91 1149.66,-109.11 1254,-180 1312.85,-219.98 1276.06,-268.45 1315,-328 1315.97,-329.48 1317.03,-330.96 1318.14,-332.41"/>
<polygon fill="#5d6972" stroke="#5d6972" stroke-width="1.2" points="1316.3,-334.03 1322.65,-337.86 1320.07,-330.9 1316.3,-334.03"/>
</g>
<!-- choice_BIOL330_0_2 -->
<g id="node26" class="node">
<title>choice_BIOL330_0_2</title>
<path fill="#fff7ee" stroke="#b7793f" stroke-width="1.1" d="M1242,-364C1242,-364 1212,-364 1212,-364 1206,-364 1200,-358 1200,-352 1200,-352 1200,-340 1200,-340 1200,-334 1206,-328 1212,-328 1212,-328 1242,-328 1242,-328 1248,-328 1254,-334 1254,-340 1254,-340 1254,-352 1254,-352 1254,-358 1248,-364 1242,-364"/>
<text text-anchor="middle" x="1227" y="-343.8" font-family="Avenir Next" font-size="9.00">1 of</text>
</g>
<!-- course__BIOL215&#45;&gt;choice_BIOL330_0_2 -->
<g id="edge16" class="edge">
<title>course__BIOL215&#45;&gt;choice_BIOL330_0_2</title>
<path fill="none" stroke="#7a8389" d="M620.51,-189.06C646.05,-207.34 688.29,-234.99 729,-250 902.44,-313.97 959,-277.9 1139,-320 1157.13,-324.24 1177.05,-330.1 1193.25,-335.19"/>
<polygon fill="#7a8389" stroke="#7a8389" points="1192.54,-337.53 1199.95,-337.31 1194.02,-332.86 1192.54,-337.53"/>
</g>
<!-- choice_BIOL438_0_0 -->
<g id="node28" class="node">
<title>choice_BIOL438_0_0</title>
<path fill="#fff7ee" stroke="#b7793f" stroke-width="1.1" d="M1242,-275C1242,-275 1212,-275 1212,-275 1206,-275 1200,-269 1200,-263 1200,-263 1200,-251 1200,-251 1200,-245 1206,-239 1212,-239 1212,-239 1242,-239 1242,-239 1248,-239 1254,-245 1254,-251 1254,-251 1254,-263 1254,-263 1254,-269 1248,-275 1242,-275"/>
<text text-anchor="middle" x="1227" y="-254.8" font-family="Avenir Next" font-size="9.00">2 of</text>
</g>
<!-- course__BIOL215&#45;&gt;choice_BIOL438_0_0 -->
<g id="edge29" class="edge">
<title>course__BIOL215&#45;&gt;choice_BIOL438_0_0</title>
<path fill="none" stroke="#7a8389" d="M624.36,-174.81C726.7,-188.79 1081.69,-237.28 1192.61,-252.44"/>
<polygon fill="#7a8389" stroke="#7a8389" points="1192.6,-254.91 1199.86,-253.43 1193.26,-250.05 1192.6,-254.91"/>
</g>
<!-- choice_BIOL446_0_0 -->
<g id="node29" class="node">
<title>choice_BIOL446_0_0</title>
<path fill="#fff7ee" stroke="#b7793f" stroke-width="1.1" d="M1474,-135C1474,-135 1444,-135 1444,-135 1438,-135 1432,-129 1432,-123 1432,-123 1432,-111 1432,-111 1432,-105 1438,-99 1444,-99 1444,-99 1474,-99 1474,-99 1480,-99 1486,-105 1486,-111 1486,-111 1486,-123 1486,-123 1486,-129 1480,-135 1474,-135"/>
<text text-anchor="middle" x="1459" y="-114.8" font-family="Avenir Next" font-size="9.00">1 of</text>
</g>
<!-- course__BIOL215&#45;&gt;choice_BIOL446_0_0 -->
<g id="edge33" class="edge">
<title>course__BIOL215&#45;&gt;choice_BIOL446_0_0</title>
<path fill="none" stroke="#7a8389" d="M611.73,-152.7C650.28,-108.59 756.81,0 871.5,0 871.5,0 871.5,0 1228,0 1310.2,0 1392.72,-60.1 1432.87,-94.15"/>
<polygon fill="#7a8389" stroke="#7a8389" points="1431.58,-96.27 1438.48,-98.98 1434.77,-92.55 1431.58,-96.27"/>
</g>
<!-- course__BIOL215&#45;&gt;choice_BIOL457_0_0 -->
<g id="edge36" class="edge">
<title>course__BIOL215&#45;&gt;choice_BIOL457_0_0</title>
<path fill="none" stroke="#7a8389" d="M611.05,-189.41C633.41,-216.36 678.9,-266.14 729,-292 768.18,-312.23 893.93,-333.56 954.61,-343"/>
<polygon fill="#7a8389" stroke="#7a8389" points="954.39,-345.45 961.68,-344.1 955.14,-340.61 954.39,-345.45"/>
</g>
<!-- course__BIOC300A -->
<g id="node7" class="node">
<title>course__BIOC300A</title>
<g id="a_node7"><a xlink:href="../../../courses/BIOC300A.html" xlink:title="BIOC300A: General Biochemistry I" target="_top">
<path fill="#e2e8d5" stroke="#7e8d96" d="M1127,-641C1127,-641 1089,-641 1089,-641 1083,-641 1077,-635 1077,-629 1077,-629 1077,-617 1077,-617 1077,-611 1083,-605 1089,-605 1089,-605 1127,-605 1127,-605 1133,-605 1139,-611 1139,-617 1139,-617 1139,-629 1139,-629 1139,-635 1133,-641 1127,-641"/>
<text text-anchor="middle" x="1108" y="-620.8" font-family="Avenir Next" font-size="9.00" fill="#41515b">BIOC300A</text>
</a>
</g>
</g>
<!-- course__BIOL225&#45;&gt;course__BIOC300A -->
<g id="edge2" class="edge">
<title>course__BIOL225&#45;&gt;course__BIOC300A</title>
<path fill="none" stroke="#5d6972" stroke-width="1.2" d="M624.31,-546.41C710.38,-560.07 972.43,-601.65 1069.94,-617.12"/>
<polygon fill="#5d6972" stroke="#5d6972" stroke-width="1.2" points="1069.64,-619.55 1076.94,-618.23 1070.41,-614.71 1069.64,-619.55"/>
</g>
<!-- course__BIOL230 -->
<g id="node8" class="node">
<title>course__BIOL230</title>
<g id="a_node8"><a xlink:href="../../../courses/BIOL230.html" xlink:title="BIOL230: Principles of Genetics" target="_top">
<path fill="#dbe8d2" stroke="#7e8d96" d="M1124,-521C1124,-521 1092,-521 1092,-521 1086,-521 1080,-515 1080,-509 1080,-509 1080,-497 1080,-497 1080,-491 1086,-485 1092,-485 1092,-485 1124,-485 1124,-485 1130,-485 1136,-491 1136,-497 1136,-497 1136,-509 1136,-509 1136,-515 1130,-521 1124,-521"/>
<text text-anchor="middle" x="1108" y="-500.8" font-family="Avenir Next" font-size="9.00" fill="#41515b">BIOL230</text>
</a>
</g>
</g>
<!-- course__BIOL225&#45;&gt;course__BIOL230 -->
<g id="edge11" class="edge">
<title>course__BIOL225&#45;&gt;course__BIOL230</title>
<path fill="none" stroke="#5d6972" stroke-width="1.2" d="M624.31,-539.88C711.2,-533.24 977.48,-512.89 1072.7,-505.62"/>
<polygon fill="#5d6972" stroke="#5d6972" stroke-width="1.2" points="1072.99,-508.06 1079.79,-505.08 1072.62,-503.17 1072.99,-508.06"/>
</g>
<!-- course__BIOL321 -->
<g id="node9" class="node">
<title>course__BIOL321</title>
<g id="a_node9"><a xlink:href="../../../courses/BIOL321.html" xlink:title="BIOL321: Survey of Invertebrates" target="_top">
<path fill="#dbe8d2" stroke="#1b2730" stroke-width="1.6" d="M1124.5,-577C1124.5,-577 1091.5,-577 1091.5,-577 1085.5,-577 1079.5,-571 1079.5,-565 1079.5,-565 1079.5,-553 1079.5,-553 1079.5,-547 1085.5,-541 1091.5,-541 1091.5,-541 1124.5,-541 1124.5,-541 1130.5,-541 1136.5,-547 1136.5,-553 1136.5,-553 1136.5,-565 1136.5,-565 1136.5,-571 1130.5,-577 1124.5,-577"/>
<text text-anchor="middle" x="1108" y="-556.5" font-family="Avenir Next" font-size="10.00" fill="#17232b">BIOL321</text>
</a>
</g>
</g>
<!-- course__BIOL225&#45;&gt;course__BIOL321 -->
<g id="edge14" class="edge">
<title>course__BIOL225&#45;&gt;course__BIOL321</title>
<path fill="none" stroke="#5d6972" stroke-width="1.2" d="M624.31,-542.93C711.1,-545.82 976.86,-554.67 1072.37,-557.85"/>
<polygon fill="#5d6972" stroke="#5d6972" stroke-width="1.2" points="1072.4,-560.3 1079.48,-558.08 1072.56,-555.4 1072.4,-560.3"/>
</g>
<!-- course__BIOL225&#45;&gt;choice_BIOL330_0_2 -->
<g id="edge17" class="edge">
<title>course__BIOL225&#45;&gt;choice_BIOL330_0_2</title>
<path fill="none" stroke="#7a8389" d="M624.33,-538.19C721.75,-524.53 1046.56,-476.3 1139,-428 1166.34,-413.71 1191.26,-388.38 1207.35,-369.64"/>
<polygon fill="#7a8389" stroke="#7a8389" points="1209.42,-370.98 1212.06,-364.05 1205.67,-367.83 1209.42,-370.98"/>
</g>
<!-- course__BIOL225&#45;&gt;choice_BIOL438_0_0 -->
<g id="edge30" class="edge">
<title>course__BIOL225&#45;&gt;choice_BIOL438_0_0</title>
<path fill="none" stroke="#7a8389" d="M624.11,-534.65C728.45,-506.74 1095.01,-407.29 1139,-376 1173.61,-351.39 1199.9,-308.68 1214.12,-281.68"/>
<polygon fill="#7a8389" stroke="#7a8389" points="1216.45,-282.52 1217.48,-275.18 1212.09,-280.28 1216.45,-282.52"/>
</g>
<!-- choice_BIOL435_1 -->
<g id="node27" class="node">
<title>choice_BIOL435_1</title>
<path fill="#fff7ee" stroke="#b7793f" stroke-width="1.1" d="M1474,-528C1474,-528 1444,-528 1444,-528 1438,-528 1432,-522 1432,-516 1432,-516 1432,-504 1432,-504 1432,-498 1438,-492 1444,-492 1444,-492 1474,-492 1474,-492 1480,-492 1486,-498 1486,-504 1486,-504 1486,-516 1486,-516 1486,-522 1480,-528 1474,-528"/>
<text text-anchor="middle" x="1459" y="-507.8" font-family="Avenir Next" font-size="9.00">1 of</text>
</g>
<!-- course__BIOC300A&#45;&gt;choice_BIOL435_1 -->
<g id="edge26" class="edge">
<title>course__BIOC300A&#45;&gt;choice_BIOL435_1</title>
<path fill="none" stroke="#7a8389" d="M1139.15,-628.97C1189.93,-637.48 1294.43,-648.25 1371,-611 1404.62,-594.64 1430.46,-558.71 1444.94,-534.42"/>
<polygon fill="#7a8389" stroke="#7a8389" points="1447.15,-535.49 1448.55,-528.21 1442.92,-533.03 1447.15,-535.49"/>
</g>
<!-- course__BIOL355 -->
<g id="node16" class="node">
<title>course__BIOL355</title>
<g id="a_node16"><a xlink:href="../../../courses/BIOL355.html" xlink:title="BIOL355: Evolution" target="_top">
<path fill="#dbe8d2" stroke="#7e8d96" d="M1359,-528C1359,-528 1327,-528 1327,-528 1321,-528 1315,-522 1315,-516 1315,-516 1315,-504 1315,-504 1315,-498 1321,-492 1327,-492 1327,-492 1359,-492 1359,-492 1365,-492 1371,-498 1371,-504 1371,-504 1371,-516 1371,-516 1371,-522 1365,-528 1359,-528"/>
<text text-anchor="middle" x="1343" y="-507.8" font-family="Avenir Next" font-size="9.00" fill="#41515b">BIOL355</text>
</a>
</g>
</g>
<!-- course__BIOL230&#45;&gt;course__BIOL355 -->
<g id="edge21" class="edge">
<title>course__BIOL230&#45;&gt;course__BIOL355</title>
<path fill="none" stroke="#5d6972" stroke-width="1.2" d="M1136.18,-503.82C1178.8,-505.1 1261.27,-507.57 1307.84,-508.97"/>
<polygon fill="#5d6972" stroke="#5d6972" stroke-width="1.2" points="1307.92,-511.43 1314.99,-509.19 1308.07,-506.53 1307.92,-511.43"/>
</g>
<!-- course__BIOL230&#45;&gt;course__BIOL370 -->
<g id="edge23" class="edge">
<title>course__BIOL230&#45;&gt;course__BIOL370</title>
<path fill="none" stroke="#5d6972" stroke-width="1.2" d="M1136.04,-485.69C1154.13,-474.13 1178.46,-458.61 1200,-445 1237.04,-421.59 1279.65,-394.92 1308.45,-376.93"/>
<polygon fill="#5d6972" stroke="#5d6972" stroke-width="1.2" points="1310.1,-378.79 1314.74,-373 1307.5,-374.63 1310.1,-378.79"/>
</g>
<!-- course__BIOL435 -->
<g id="node19" class="node">
<title>course__BIOL435</title>
<g id="a_node19"><a xlink:href="../../../courses/BIOL435.html" xlink:title="BIOL435: Molecular Evolution" target="_top">
<path fill="#dbe8d2" stroke="#7e8d96" d="M1591,-503C1591,-503 1559,-503 1559,-503 1553,-503 1547,-497 1547,-491 1547,-491 1547,-479 1547,-479 1547,-473 1553,-467 1559,-467 1559,-467 1591,-467 1591,-467 1597,-467 1603,-473 1603,-479 1603,-479 1603,-491 1603,-491 1603,-497 1597,-503 1591,-503"/>
<text text-anchor="middle" x="1575" y="-482.8" font-family="Avenir Next" font-size="9.00" fill="#41515b">BIOL435</text>
</a>
</g>
</g>
<!-- course__BIOL230&#45;&gt;course__BIOL435 -->
<g id="edge25" class="edge">
<title>course__BIOL230&#45;&gt;course__BIOL435</title>
<path fill="none" stroke="#5d6972" stroke-width="1.2" d="M1136.26,-499.33C1175.63,-494.23 1250.73,-485.27 1315,-482 1390.9,-478.14 1410.01,-480.71 1486,-482 1503.63,-482.3 1523.23,-482.94 1539.46,-483.55"/>
<polygon fill="#5d6972" stroke="#5d6972" stroke-width="1.2" points="1539.57,-486.01 1546.66,-483.83 1539.75,-481.11 1539.57,-486.01"/>
</g>
<!-- course__BIOL230&#45;&gt;choice_BIOL330_0_2 -->
<g id="edge18" class="edge">
<title>course__BIOL230&#45;&gt;choice_BIOL330_0_2</title>
<path fill="none" stroke="#7a8389" d="M1126.24,-484.86C1130.53,-480.12 1135.03,-474.96 1139,-470 1165.66,-436.68 1193.47,-395.79 1210.27,-370.3"/>
<polygon fill="#7a8389" stroke="#7a8389" points="1212.5,-371.37 1214.29,-364.17 1208.4,-368.68 1212.5,-371.37"/>
</g>
<!-- course__BIOL230&#45;&gt;choice_BIOL438_0_0 -->
<g id="edge31" class="edge">
<title>course__BIOL230&#45;&gt;choice_BIOL438_0_0</title>
<path fill="none" stroke="#7a8389" d="M1117.6,-484.91C1138.27,-441.46 1190.73,-331.16 1214.26,-281.68"/>
<polygon fill="#7a8389" stroke="#7a8389" points="1216.59,-282.49 1217.38,-275.12 1212.16,-280.38 1216.59,-282.49"/>
</g>
<!-- course__BIOL321&#45;&gt;course__BIOL319 -->
<g id="edge13" class="edge">
<title>course__BIOL321&#45;&gt;course__BIOL319</title>
<path fill="none" stroke="#5d6972" stroke-width="1.2" d="M1136.64,-541.56C1179.67,-514.41 1262.53,-462.14 1308.76,-432.97"/>
<polygon fill="#5d6972" stroke="#5d6972" stroke-width="1.2" points="1310.14,-435 1314.75,-429.19 1307.53,-430.85 1310.14,-435"/>
</g>
<!-- course__BIOL322 -->
<g id="node14" class="node">
<title>course__BIOL322</title>
<g id="a_node14"><a xlink:href="../../../courses/BIOL322.html" xlink:title="BIOL322: Biology of Marine Invertebrates" target="_top">
<path fill="#dbe8d2" stroke="#7e8d96" d="M1359,-601C1359,-601 1327,-601 1327,-601 1321,-601 1315,-595 1315,-589 1315,-589 1315,-577 1315,-577 1315,-571 1321,-565 1327,-565 1327,-565 1359,-565 1359,-565 1365,-565 1371,-571 1371,-577 1371,-577 1371,-589 1371,-589 1371,-595 1365,-601 1359,-601"/>
<text text-anchor="middle" x="1343" y="-580.8" font-family="Avenir Next" font-size="9.00" fill="#41515b">BIOL322</text>
</a>
</g>
</g>
<!-- course__BIOL321&#45;&gt;course__BIOL322 -->
<g id="edge15" class="edge">
<title>course__BIOL321&#45;&gt;course__BIOL322</title>
<path fill="none" stroke="#5d6972" stroke-width="1.2" d="M1136.64,-561.85C1179.32,-566.24 1261.18,-574.67 1307.62,-579.46"/>
<polygon fill="#5d6972" stroke="#5d6972" stroke-width="1.2" points="1307.54,-581.91 1314.75,-580.19 1308.04,-577.04 1307.54,-581.91"/>
</g>
<!-- course__BIOL457 -->
<g id="node12" class="node">
<title>course__BIOL457</title>
<g id="a_node12"><a xlink:href="../../../courses/BIOL457.html" xlink:title="BIOL457: Paleoecology and Environmental Change" target="_top">
<path fill="#dbe8d2" stroke="#7e8d96" d="M1124,-366C1124,-366 1092,-366 1092,-366 1086,-366 1080,-360 1080,-354 1080,-354 1080,-342 1080,-342 1080,-336 1086,-330 1092,-330 1092,-330 1124,-330 1124,-330 1130,-330 1136,-336 1136,-342 1136,-342 1136,-354 1136,-354 1136,-360 1130,-366 1124,-366"/>
<text text-anchor="middle" x="1108" y="-345.8" font-family="Avenir Next" font-size="9.00" fill="#41515b">BIOL457</text>
</a>
</g>
</g>
<!-- course__BIOL466 -->
<g id="node22" class="node">
<title>course__BIOL466</title>
<g id="a_node22"><a xlink:href="../../../courses/BIOL466.html" xlink:title="BIOL466: Frontiers in Marine Biology" target="_top">
<path fill="#dbe8d2" stroke="#7e8d96" d="M1591,-399C1591,-399 1559,-399 1559,-399 1553,-399 1547,-393 1547,-387 1547,-387 1547,-375 1547,-375 1547,-369 1553,-363 1559,-363 1559,-363 1591,-363 1591,-363 1597,-363 1603,-369 1603,-375 1603,-375 1603,-387 1603,-387 1603,-393 1597,-399 1591,-399"/>
<text text-anchor="middle" x="1575" y="-378.8" font-family="Avenir Next" font-size="9.00" fill="#41515b">BIOL466</text>
</a>
</g>
</g>
<!-- course__BIOL319&#45;&gt;course__BIOL466 -->
<g id="edge42" class="edge">
<title>course__BIOL319&#45;&gt;course__BIOL466</title>
<path fill="none" stroke="#5d6972" stroke-width="1.2" d="M1371.29,-408.32C1413.3,-402.66 1493.78,-391.81 1539.69,-385.62"/>
<polygon fill="#5d6972" stroke="#5d6972" stroke-width="1.2" points="1540.14,-388.04 1546.75,-384.67 1539.48,-383.18 1540.14,-388.04"/>
</g>
<!-- course__BIOL330 -->
<g id="node15" class="node">
<title>course__BIOL330</title>
<g id="a_node15"><a xlink:href="../../../courses/BIOL330.html" xlink:title="BIOL330: Study Design and Data Analysis" target="_top">
<path fill="#dbe8d2" stroke="#7e8d96" d="M1359,-318C1359,-318 1327,-318 1327,-318 1321,-318 1315,-312 1315,-306 1315,-306 1315,-294 1315,-294 1315,-288 1321,-282 1327,-282 1327,-282 1359,-282 1359,-282 1365,-282 1371,-288 1371,-294 1371,-294 1371,-306 1371,-306 1371,-312 1365,-318 1359,-318"/>
<text text-anchor="middle" x="1343" y="-297.8" font-family="Avenir Next" font-size="9.00" fill="#41515b">BIOL330</text>
</a>
</g>
</g>
<!-- course__BIOL330&#45;&gt;course__BIOL466 -->
<g id="edge43" class="edge">
<title>course__BIOL330&#45;&gt;course__BIOL466</title>
<path fill="none" stroke="#5d6972" stroke-width="1.2" d="M1371.31,-310.06C1388.66,-316.42 1411.62,-324.78 1432,-332 1468.98,-345.1 1511.54,-359.73 1540.34,-369.56"/>
<polygon fill="#5d6972" stroke="#5d6972" stroke-width="1.2" points="1539.58,-371.89 1547,-371.83 1541.16,-367.25 1539.58,-371.89"/>
</g>
<!-- course__BIOL330&#45;&gt;choice_BIOL446_0_0 -->
<g id="edge34" class="edge">
<title>course__BIOL330&#45;&gt;choice_BIOL446_0_0</title>
<path fill="none" stroke="#7a8389" d="M1362.71,-281.92C1365.63,-278.73 1368.5,-275.36 1371,-272 1402.97,-229 1431.6,-173.02 1446.71,-141.45"/>
<polygon fill="#7a8389" stroke="#7a8389" points="1448.94,-142.47 1449.72,-135.1 1444.51,-140.37 1448.94,-142.47"/>
</g>
<!-- choice_BIOL461_0_0 -->
<g id="node31" class="node">
<title>choice_BIOL461_0_0</title>
<path fill="#fff7ee" stroke="#b7793f" stroke-width="1.1" d="M1474,-322C1474,-322 1444,-322 1444,-322 1438,-322 1432,-316 1432,-310 1432,-310 1432,-298 1432,-298 1432,-292 1438,-286 1444,-286 1444,-286 1474,-286 1474,-286 1480,-286 1486,-292 1486,-298 1486,-298 1486,-310 1486,-310 1486,-316 1480,-322 1474,-322"/>
<text text-anchor="middle" x="1459" y="-301.8" font-family="Avenir Next" font-size="9.00">1 of</text>
</g>
<!-- course__BIOL330&#45;&gt;choice_BIOL461_0_0 -->
<g id="edge39" class="edge">
<title>course__BIOL330&#45;&gt;choice_BIOL461_0_0</title>
<path fill="none" stroke="#7a8389" d="M1371.02,-300.95C1387.15,-301.51 1407.76,-302.24 1424.87,-302.84"/>
<polygon fill="#7a8389" stroke="#7a8389" points="1424.88,-305.29 1431.96,-303.09 1425.05,-300.39 1424.88,-305.29"/>
</g>
<!-- course__BIOL355&#45;&gt;choice_BIOL435_1 -->
<g id="edge27" class="edge">
<title>course__BIOL355&#45;&gt;choice_BIOL435_1</title>
<path fill="none" stroke="#7a8389" d="M1371.02,-510C1387.15,-510 1407.76,-510 1424.87,-510"/>
<polygon fill="#7a8389" stroke="#7a8389" points="1424.96,-512.45 1431.96,-510 1424.96,-507.55 1424.96,-512.45"/>
</g>
<!-- course__BIOL370&#45;&gt;choice_BIOL461_0_0 -->
<g id="edge40" class="edge">
<title>course__BIOL370&#45;&gt;choice_BIOL461_0_0</title>
<path fill="none" stroke="#7a8389" d="M1371.02,-343.68C1387.29,-336.25 1408.13,-326.75 1425.32,-318.9"/>
<polygon fill="#7a8389" stroke="#7a8389" points="1426.61,-321.01 1431.96,-315.88 1424.58,-316.55 1426.61,-321.01"/>
</g>
<!-- course__BIOL438 -->
<g id="node18" class="node">
<title>course__BIOL438</title>
<g id="a_node18"><a xlink:href="../../../courses/BIOL438.html" xlink:title="BIOL438: Nutrient Cycling and Prokaryotes" target="_top">
<path fill="#dbe8d2" stroke="#7e8d96" d="M1359,-262C1359,-262 1327,-262 1327,-262 1321,-262 1315,-256 1315,-250 1315,-250 1315,-238 1315,-238 1315,-232 1321,-226 1327,-226 1327,-226 1359,-226 1359,-226 1365,-226 1371,-232 1371,-238 1371,-238 1371,-250 1371,-250 1371,-256 1365,-262 1359,-262"/>
<text text-anchor="middle" x="1343" y="-241.8" font-family="Avenir Next" font-size="9.00" fill="#41515b">BIOL438</text>
</a>
</g>
</g>
<!-- course__BIOL446 -->
<g id="node20" class="node">
<title>course__BIOL446</title>
<g id="a_node20"><a xlink:href="../../../courses/BIOL446.html" xlink:title="BIOL446: Advanced Aquatic Ecology" target="_top">
<path fill="#dbe8d2" stroke="#7e8d96" d="M1591,-135C1591,-135 1559,-135 1559,-135 1553,-135 1547,-129 1547,-123 1547,-123 1547,-111 1547,-111 1547,-105 1553,-99 1559,-99 1559,-99 1591,-99 1591,-99 1597,-99 1603,-105 1603,-111 1603,-111 1603,-123 1603,-123 1603,-129 1597,-135 1591,-135"/>
<text text-anchor="middle" x="1575" y="-114.8" font-family="Avenir Next" font-size="9.00" fill="#41515b">BIOL446</text>
</a>
</g>
</g>
<!-- course__BIOL461 -->
<g id="node21" class="node">
<title>course__BIOL461</title>
<g id="a_node21"><a xlink:href="../../../courses/BIOL461.html" xlink:title="BIOL461: Fisheries Ecology and Management" target="_top">
<path fill="#dbe8d2" stroke="#7e8d96" d="M1591,-322C1591,-322 1559,-322 1559,-322 1553,-322 1547,-316 1547,-310 1547,-310 1547,-298 1547,-298 1547,-292 1553,-286 1559,-286 1559,-286 1591,-286 1591,-286 1597,-286 1603,-292 1603,-298 1603,-298 1603,-310 1603,-310 1603,-316 1597,-322 1591,-322"/>
<text text-anchor="middle" x="1575" y="-301.8" font-family="Avenir Next" font-size="9.00" fill="#41515b">BIOL461</text>
</a>
</g>
</g>
<!-- BIOL184_notes -->
<g id="node23" class="node">
<title>BIOL184_notes</title>
<polygon fill="#fff7ee" stroke="#b7793f" stroke-width="1.1" points="216,-654 0,-654 0,-556 222,-556 222,-648 216,-654"/>
<polyline fill="none" stroke="#b7793f" stroke-width="1.1" points="216,-654 216,-648 "/>
<polyline fill="none" stroke="#b7793f" stroke-width="1.1" points="222,-648 216,-648 "/>
<text text-anchor="start" x="13" y="-634.4" font-family="Avenir Next" font-size="12.00">Published notes</text>
<text text-anchor="start" x="13" y="-621.4" font-family="Avenir Next" font-size="12.00">Anatomy and Physiology 12</text>
<text text-anchor="start" x="13" y="-608.4" font-family="Avenir Next" font-size="12.00">Biology 11</text>
<text text-anchor="start" x="13" y="-595.4" font-family="Avenir Next" font-size="12.00">Biology 12</text>
<text text-anchor="start" x="13" y="-582.4" font-family="Avenir Next" font-size="12.00">Life Sciences 11</text>
<text text-anchor="start" x="13" y="-569.4" font-family="Avenir Next" font-size="12.00">or permission of the department</text>
</g>
<!-- BIOL184_notes&#45;&gt;course__BIOL184 -->
<!-- choice_BIOL184_0_0&#45;&gt;course__BIOL184 -->
<g id="edge5" class="edge">
<title>choice_BIOL184_0_0&#45;&gt;course__BIOL184</title>
<path fill="none" stroke="#5d6972" stroke-width="1.2" d="M462.17,-650.08C481.95,-643.35 509.88,-633.83 534.99,-625.27"/>
<polygon fill="#5d6972" stroke="#5d6972" stroke-width="1.2" points="535.81,-627.58 541.65,-623.01 534.23,-622.94 535.81,-627.58"/>
</g>
<!-- choice_BIOL186_0_0&#45;&gt;course__BIOL186 -->
<g id="edge8" class="edge">
<title>choice_BIOL186_0_0&#45;&gt;course__BIOL186</title>
<path fill="none" stroke="#5d6972" stroke-width="1.2" d="M783.27,-705.76C799.24,-698.92 819.81,-690.12 837.08,-682.73"/>
<polygon fill="#5d6972" stroke="#5d6972" stroke-width="1.2" points="838.28,-684.88 843.76,-679.87 836.36,-680.37 838.28,-684.88"/>
</g>
<!-- choice_BIOL330_0_2&#45;&gt;course__BIOL330 -->
<g id="edge19" class="edge">
<title>choice_BIOL330_0_2&#45;&gt;course__BIOL330</title>
<path fill="none" stroke="#5d6972" stroke-width="1.2" d="M1254.15,-335.45C1270.17,-328.98 1290.84,-320.64 1308.1,-313.68"/>
<polygon fill="#5d6972" stroke="#5d6972" stroke-width="1.2" points="1309.2,-315.88 1314.78,-310.98 1307.37,-311.33 1309.2,-315.88"/>
</g>
<!-- choice_BIOL435_1&#45;&gt;course__BIOL435 -->
<g id="edge28" class="edge">
<title>choice_BIOL435_1&#45;&gt;course__BIOL435</title>
<path fill="none" stroke="#5d6972" stroke-width="1.2" d="M1486.15,-504.26C1502.03,-500.78 1522.47,-496.3 1539.64,-492.53"/>
<polygon fill="#5d6972" stroke="#5d6972" stroke-width="1.2" points="1540.47,-494.86 1546.78,-490.97 1539.42,-490.08 1540.47,-494.86"/>
</g>
<!-- choice_BIOL438_0_0&#45;&gt;course__BIOL438 -->
<g id="edge32" class="edge">
<title>choice_BIOL438_0_0&#45;&gt;course__BIOL438</title>
<path fill="none" stroke="#5d6972" stroke-width="1.2" d="M1254.15,-254.02C1270.03,-252.21 1290.47,-249.88 1307.64,-247.92"/>
<polygon fill="#5d6972" stroke="#5d6972" stroke-width="1.2" points="1308.1,-250.33 1314.78,-247.1 1307.55,-245.46 1308.1,-250.33"/>
</g>
<!-- choice_BIOL446_0_0&#45;&gt;course__BIOL446 -->
<g id="edge35" class="edge">
<title>choice_BIOL446_0_0&#45;&gt;course__BIOL446</title>
<path fill="none" stroke="#5d6972" stroke-width="1.2" d="M1486.15,-117C1502.03,-117 1522.47,-117 1539.64,-117"/>
<polygon fill="#5d6972" stroke="#5d6972" stroke-width="1.2" points="1539.78,-119.45 1546.78,-117 1539.78,-114.55 1539.78,-119.45"/>
</g>
<!-- choice_BIOL457_0_0&#45;&gt;course__BIOL457 -->
<g id="edge38" class="edge">
<title>choice_BIOL457_0_0&#45;&gt;course__BIOL457</title>
<path fill="none" stroke="#5d6972" stroke-width="1.2" d="M1016.26,-348C1032.76,-348 1054.25,-348 1072.17,-348"/>
<polygon fill="#5d6972" stroke="#5d6972" stroke-width="1.2" points="1072.61,-350.45 1079.61,-348 1072.61,-345.55 1072.61,-350.45"/>
</g>
<!-- choice_BIOL461_0_0&#45;&gt;course__BIOL461 -->
<g id="edge41" class="edge">
<title>choice_BIOL461_0_0&#45;&gt;course__BIOL461</title>
<path fill="none" stroke="#5d6972" stroke-width="1.2" d="M1486.15,-304C1502.03,-304 1522.47,-304 1539.64,-304"/>
<polygon fill="#5d6972" stroke="#5d6972" stroke-width="1.2" points="1539.78,-306.45 1546.78,-304 1539.78,-301.55 1539.78,-306.45"/>
</g>
<!-- choice_EOS330_0_1_2&#45;&gt;course__EOS330 -->
<g id="edge46" class="edge">
<title>choice_EOS330_0_1_2&#45;&gt;course__EOS330</title>
<path fill="none" stroke="#5d6972" stroke-width="1.2" d="M783.27,-367C799.56,-367 820.64,-367 838.11,-367"/>
<polygon fill="#5d6972" stroke="#5d6972" stroke-width="1.2" points="838.35,-369.45 845.35,-367 838.35,-364.55 838.35,-369.45"/>
</g>
</g>
</svg>
