<?xml version="1.0" encoding="UTF-8" standalone="no"?>
<!DOCTYPE svg PUBLIC "-//W3C//DTD SVG 1.1//EN"
 "http://www.w3.org/Graphics/SVG/1.1/DTD/svg11.dtd">
<!-- Generated by graphviz version 2.43.0 (0)
 -->
<!-- Title: BIOL322 Pages: 1 -->
<svg width="804pt" height="180pt"
 viewBox="0.00 0.00 804.20 180.20" xmlns="http://www.w3.org/2000/svg" xmlns:xlink="http://www.w3.org/1999/xlink">
<g id="graph0" class="graph" transform="scale(1 1) rotate(0) translate(21.6 158.6)">
<title>BIOL322</title>
<!-- course__BIOL150A -->
<g id="node1" class="node">
<title>course__BIOL150A</title>
<g id="a_node1"><a xlink:href="../../../courses/BIOL150A.html" xlink:title="BIOL150A: Modern Biology" target="_top">
<path fill="#dbe8d2" stroke="#7e8d96" d="M50,-36C50,-36 12,-36 12,-36 6,-36 0,-30 0,-24 0,-24 0,-12 0,-12 0,-6 6,0 12,0 12,0 50,0 50,0 56,0 62,-6 62,-12 62,-12 62,-24 62,-24 62,-30 56,-36 50,-36"/>
<text text-anchor="middle" x="31" y="-15.8" font-family="Avenir Next" font-size="9.00" fill="#41515b">BIOL150A</text>
</a>
</g>
</g>
<!-- choice_BIOL184_0_0 -->
<g id="node7" class="node">
<title>choice_BIOL184_0_0</title>
<path fill="#fff7ee" stroke="#b7793f" stroke-width="1.1" d="M165,-64C165,-64 135,-64 135,-64 129,-64 123,-58 123,-52 123,-52 123,-40 123,-40 123,-34 129,-28 135,-28 135,-28 165,-28 165,-28 171,-28 177,-34 177,-40 177,-40 177,-52 177,-52 177,-58 171,-64 165,-64"/>
<text text-anchor="middle" x="150" y="-43.8" font-family="Avenir Next" font-size="9.00">1 of</text>
</g>
<!-- course__BIOL150A&#45;&gt;choice_BIOL184_0_0 -->
<g id="edge1" class="edge">
<title>course__BIOL150A&#45;&gt;choice_BIOL184_0_0</title>
<path fill="none" stroke="#7a8389" d="M62.13,-25.21C78.6,-29.15 99.03,-34.04 115.94,-38.09"/>
<polygon fill="#7a8389" stroke="#7a8389" points="115.57,-40.52 122.95,-39.76 116.71,-35.75 115.57,-40.52"/>
</g>
<!-- choice_BIOL186_0_0 -->
<g id="node8" class="node">
<title>choice_BIOL186_0_0</title>
<path fill="#fff7ee" stroke="#b7793f" stroke-width="1.1" d="M398,-64C398,-64 368,-64 368,-64 362,-64 356,-58 356,-52 356,-52 356,-40 356,-40 356,-34 362,-28 368,-28 368,-28 398,-28 398,-28 404,-28 410,-34 410,-40 410,-40 410,-52 410,-52 410,-58 404,-64 398,-64"/>
<text text-anchor="middle" x="383" y="-43.8" font-family="Avenir Next" font-size="9.00">1 of</text>
</g>
<!-- course__BIOL150A&#45;&gt;choice_BIOL186_0_0 -->
<g id="edge4" class="edge">
<title>course__BIOL150A&#45;&gt;choice_BIOL186_0_0</title>
<path fill="none" stroke="#7a8389" d="M62.09,-15.02C111.05,-10.84 210.85,-5.09 294,-18 312.71,-20.91 332.89,-27.09 349.2,-32.91"/>
<polygon fill="#7a8389" stroke="#7a8389" points="348.52,-35.27 355.94,-35.37 350.21,-30.67 348.52,-35.27"/>
</g>
<!-- course__BIOL186 -->
<g id="node2" class="node">
<title>course__BIOL186</title>
<g id="a_node2"><a xlink:href="../../../courses/BIOL186.html" xlink:title="BIOL186: Physiology and Cell Biology" target="_top">
<path fill="#dbe8d2" stroke="#7e8d96" d="M47,-113C47,-113 15,-113 15,-113 9,-113 3,-107 3,-101 3,-101 3,-89 3,-89 3,-83 9,-77 15,-77 15,-77 47,-77 47,-77 53,-77 59,-83 59,-89 59,-89 59,-101 59,-101 59,-107 53,-113 47,-113"/>
<text text-anchor="middle" x="31" y="-92.8" font-family="Avenir Next" font-size="9.00" fill="#41515b">BIOL186</text>
</a>
</g>
</g>
<!-- course__BIOL225 -->
<g id="node4" class="node">
<title>course__BIOL225</title>
<g id="a_node4"><a xlink:href="../../../courses/BIOL225.html" xlink:title="BIOL225: Principles of Cell Biology" target="_top">
<path fill="#dbe8d2" stroke="#7e8d96" d="M399,-137C399,-137 367,-137 367,-137 361,-137 355,-131 355,-125 355,-125 355,-113 355,-113 355,-107 361,-101 367,-101 367,-101 399,-101 399,-101 405,-101 411,-107 411,-113 411,-113 411,-125 411,-125 411,-131 405,-137 399,-137"/>
<text text-anchor="middle" x="383" y="-116.8" font-family="Avenir Next" font-size="9.00" fill="#41515b">BIOL225</text>
</a>
</g>
</g>
<!-- course__BIOL186&#45;&gt;course__BIOL225 -->
<g id="edge7" class="edge">
<title>course__BIOL186&#45;&gt;course__BIOL225</title>
<path fill="none" stroke="#5d6972" stroke-width="1.2" d="M59.33,-100.86C77.33,-104.46 101.46,-108.79 123,-111 203.02,-119.23 297.62,-119.86 347.39,-119.5"/>
<polygon fill="#5d6972" stroke="#5d6972" stroke-width="1.2" points="347.72,-121.95 354.69,-119.44 347.67,-117.05 347.72,-121.95"/>
</g>
<!-- course__BIOL186&#45;&gt;choice_BIOL184_0_0 -->
<g id="edge2" class="edge">
<title>course__BIOL186&#45;&gt;choice_BIOL184_0_0</title>
<path fill="none" stroke="#7a8389" d="M59.14,-83.64C76.06,-76.55 97.96,-67.38 115.9,-59.86"/>
<polygon fill="#7a8389" stroke="#7a8389" points="117.31,-61.93 122.82,-56.97 115.41,-57.41 117.31,-61.93"/>
</g>
<!-- course__BIOL184 -->
<g id="node3" class="node">
<title>course__BIOL184</title>
<g id="a_node3"><a xlink:href="../../../courses/BIOL184.html" xlink:title="BIOL184: Evolution and Biodiversity" target="_top">
<path fill="#dbe8d2" stroke="#7e8d96" d="M282,-64C282,-64 250,-64 250,-64 244,-64 238,-58 238,-52 238,-52 238,-40 238,-40 238,-34 244,-28 250,-28 250,-28 282,-28 282,-28 288,-28 294,-34 294,-40 294,-40 294,-52 294,-52 294,-58 288,-64 282,-64"/>
<text text-anchor="middle" x="266" y="-43.8" font-family="Avenir Next" font-size="9.00" fill="#41515b">BIOL184</text>
</a>
</g>
</g>
<!-- course__BIOL184&#45;&gt;course__BIOL225 -->
<g id="edge8" class="edge">
<title>course__BIOL184&#45;&gt;course__BIOL225</title>
<path fill="none" stroke="#5d6972" stroke-width="1.2" d="M294.25,-63.3C310.58,-73.66 331.46,-86.92 348.75,-97.89"/>
<polygon fill="#5d6972" stroke="#5d6972" stroke-width="1.2" points="347.72,-100.14 354.94,-101.82 350.35,-96 347.72,-100.14"/>
</g>
<!-- course__BIOL184&#45;&gt;choice_BIOL186_0_0 -->
<g id="edge5" class="edge">
<title>course__BIOL184&#45;&gt;choice_BIOL186_0_0</title>
<path fill="none" stroke="#7a8389" d="M294.25,-46C310.53,-46 331.32,-46 348.58,-46"/>
<polygon fill="#7a8389" stroke="#7a8389" points="348.73,-48.45 355.73,-46 348.73,-43.55 348.73,-48.45"/>
</g>
<!-- course__BIOL321 -->
<g id="node5" class="node">
<title>course__BIOL321</title>
<g id="a_node5"><a xlink:href="../../../courses/BIOL321.html" xlink:title="BIOL321: Survey of Invertebrates" target="_top">
<path fill="#dbe8d2" stroke="#1b2730" stroke-width="1.6" d="M517,-137C517,-137 484,-137 484,-137 478,-137 472,-131 472,-125 472,-125 472,-113 472,-113 472,-107 478,-101 484,-101 484,-101 517,-101 517,-101 523,-101 529,-107 529,-113 529,-113 529,-125 529,-125 529,-131 523,-137 517,-137"/>
<text text-anchor="middle" x="500.5" y="-116.5" font-family="Avenir Next" font-size="10.00" fill="#17232b">BIOL321</text>
</a>
</g>
</g>
<!-- course__BIOL225&#45;&gt;course__BIOL321 -->
<g id="edge9" class="edge">
<title>course__BIOL225&#45;&gt;course__BIOL321</title>
<path fill="none" stroke="#5d6972" stroke-width="1.2" d="M411.08,-119C427.07,-119 447.47,-119 464.65,-119"/>
<polygon fill="#5d6972" stroke="#5d6972" stroke-width="1.2" points="464.79,-121.45 471.79,-119 464.79,-116.55 464.79,-121.45"/>
</g>
<!-- course__BIOL322 -->
<g id="node6" class="node">
<title>course__BIOL322</title>
<g id="a_node6"><a xlink:href="../../../courses/BIOL322.html" xlink:title="BIOL322: Biology of Marine Invertebrates" target="_top">
<path fill="#dbe8d2" stroke="#1f4f66" stroke-width="2" d="M749,-137C749,-137 602,-137 602,-137 596,-137 590,-131 590,-125 590,-125 590,-113 590,-113 590,-107 596,-101 602,-101 602,-101 749,-101 749,-101 755,-101 761,-107 761,-113 761,-113 761,-125 761,-125 761,-131 755,-137 749,-137"/>
<text text-anchor="middle" x="675.5" y="-122" font-family="Avenir Next" font-size="10.00" fill="#17232b">BIOL322</text>
<text text-anchor="middle" x="675.5" y="-111" font-family="Avenir Next" font-size="10.00" fill="#17232b">Biology of Marine Invertebrates</text>
</a>
</g>
</g>
<!-- course__BIOL321&#45;&gt;course__BIOL322 -->
<g id="edge10" class="edge">
<title>course__BIOL321&#45;&gt;course__BIOL322</title>
<path fill="none" stroke="#5d6972" stroke-width="1.2" d="M529.3,-119C544.1,-119 563.24,-119 582.74,-119"/>
<polygon fill="#5d6972" stroke="#5d6972" stroke-width="1.2" points="582.94,-121.45 589.94,-119 582.94,-116.55 582.94,-121.45"/>
</g>
<!-- choice_BIOL184_0_0&#45;&gt;course__BIOL184 -->
<g id="edge3" class="edge">
<title>choice_BIOL184_0_0&#45;&gt;course__BIOL184</title>
<path fill="none" stroke="#5d6972" stroke-width="1.2" d="M177.15,-46C193.03,-46 213.47,-46 230.64,-46"/>
<polygon fill="#5d6972" stroke="#5d6972" stroke-width="1.2" points="230.78,-48.45 237.78,-46 230.78,-43.55 230.78,-48.45"/>
</g>
<!-- choice_BIOL186_0_0&#45;&gt;course__BIOL186 -->
<g id="edge6" class="edge">
<title>choice_BIOL186_0_0&#45;&gt;course__BIOL186</title>
<path fill="none" stroke="#5d6972" stroke-width="1.2" d="M355.84,-56.06C338.55,-62.27 315.24,-69.83 294,-74 213.34,-89.85 116.47,-93.79 66.14,-94.74"/>
<polygon fill="#5d6972" stroke="#5d6972" stroke-width="1.2" points="66.01,-92.29 59.05,-94.85 66.09,-97.19 66.01,-92.29"/>
</g>
</g>
</svg>
