<?xml version="1.0" encoding="UTF-8" standalone="no"?>
<!DOCTYPE svg PUBLIC "-//W3C//DTD SVG 1.1//EN"
 "http://www.w3.org/Graphics/SVG/1.1/DTD/svg11.dtd">
<!-- Generated by graphviz version 2.43.0 (0)
 -->
<!-- Title: BIOL321 Pages: 1 -->
<svg width="667pt" height="135pt"
 viewBox="0.00 0.00 667.20 135.20" xmlns="http://www.w3.org/2000/svg" xmlns:xlink="http://www.w3.org/1999/xlink">
<g id="graph0" class="graph" transform="scale(1 1) rotate(0) translate(21.6 113.6)">
<title>BIOL321</title>
<!-- course__BIOL186 -->
<g id="node1" class="node">
<title>course__BIOL186</title>
<g id="a_node1"><a xlink:href="../../../courses/BIOL186.html" xlink:title="BIOL186: Physiology and Cell Biology" target="_top">
<path fill="#dbe8d2" stroke="#1b2730" stroke-width="1.6" d="M45,-89C45,-89 12,-89 12,-89 6,-89 0,-83 0,-77 0,-77 0,-65 0,-65 0,-59 6,-53 12,-53 12,-53 45,-53 45,-53 51,-53 57,-59 57,-65 57,-65 57,-77 57,-77 57,-83 51,-89 45,-89"/>
<text text-anchor="middle" x="28.5" y="-68.5" font-family="Avenir Next" font-size="10.00" fill="#17232b">BIOL186</text>
</a>
</g>
</g>
<!-- course__BIOL150A -->
<g id="node2" class="node">
<title>course__BIOL150A</title>
<g id="a_node2"><a xlink:href="../../../courses/BIOL150A.html" xlink:title="Collapsed in simplified view: BIOL150A: Modern Biology | BIOL184: Evolution and Biodiversity" target="_top">
<path fill="#dbe8d2" stroke="#1b2730" stroke-width="1.6" d="M184,-89C184,-89 130,-89 130,-89 124,-89 118,-83 118,-77 118,-77 118,-65 118,-65 118,-59 124,-53 130,-53 130,-53 184,-53 184,-53 190,-53 196,-59 196,-65 196,-65 196,-77 196,-77 196,-83 190,-89 184,-89"/>
<text text-anchor="middle" x="157" y="-68.5" font-family="Avenir Next" font-size="10.00" fill="#17232b">Intro biology</text>
</a>
</g>
</g>
<!-- course__BIOL186&#45;&gt;course__BIOL150A -->
<g id="edge1" class="edge">
<title>course__BIOL186&#45;&gt;course__BIOL150A</title>
<path fill="none" stroke="#5d6972" stroke-width="1.2" d="M57.26,-64.67C72.79,-63.52 92.54,-63.22 110.28,-63.76"/>
<polygon fill="#5d6972" stroke="#5d6972" stroke-width="1.2" points="110.66,-66.23 117.75,-64.05 110.85,-61.33 110.66,-66.23"/>
</g>
<!-- course__BIOL225 -->
<g id="node3" class="node">
<title>course__BIOL225</title>
<g id="a_node3"><a xlink:href="../../../courses/BIOL225.html" xlink:title="BIOL225: Principles of Cell Biology" target="_top">
<path fill="#dbe8d2" stroke="#1b2730" stroke-width="1.6" d="M302,-64C302,-64 269,-64 269,-64 263,-64 257,-58 257,-52 257,-52 257,-40 257,-40 257,-34 263,-28 269,-28 269,-28 302,-28 302,-28 308,-28 314,-34 314,-40 314,-40 314,-52 314,-52 314,-58 308,-64 302,-64"/>
<text text-anchor="middle" x="285.5" y="-43.5" font-family="Avenir Next" font-size="10.00" fill="#17232b">BIOL225</text>
</a>
</g>
</g>
<!-- course__BIOL186&#45;&gt;course__BIOL225 -->
<g id="edge3" class="edge">
<title>course__BIOL186&#45;&gt;course__BIOL225</title>
<path fill="none" stroke="#5d6972" stroke-width="1.2" d="M57.27,-59.8C74.45,-53.48 97.14,-46.22 118,-43 163.02,-36.05 215.71,-38.79 249.56,-41.93"/>
<polygon fill="#5d6972" stroke="#5d6972" stroke-width="1.2" points="249.7,-44.4 256.91,-42.64 250.18,-39.53 249.7,-44.4"/>
</g>
<!-- course__BIOL150A&#45;&gt;course__BIOL186 -->
<g id="edge2" class="edge">
<title>course__BIOL150A&#45;&gt;course__BIOL186</title>
<path fill="none" stroke="#5d6972" stroke-width="1.2" d="M117.75,-77.95C100.85,-78.73 81.12,-78.68 64.6,-77.8"/>
<polygon fill="#5d6972" stroke="#5d6972" stroke-width="1.2" points="64.4,-75.33 57.26,-77.33 64.09,-80.22 64.4,-75.33"/>
</g>
<!-- course__BIOL150A&#45;&gt;course__BIOL225 -->
<g id="edge4" class="edge">
<title>course__BIOL150A&#45;&gt;course__BIOL225</title>
<path fill="none" stroke="#5d6972" stroke-width="1.2" d="M196.3,-63.43C213.35,-60.06 233.28,-56.12 249.88,-52.84"/>
<polygon fill="#5d6972" stroke="#5d6972" stroke-width="1.2" points="250.38,-55.24 256.78,-51.48 249.43,-50.43 250.38,-55.24"/>
</g>
<!-- course__BIOL321 -->
<g id="node4" class="node">
<title>course__BIOL321</title>
<g id="a_node4"><a xlink:href="../../../courses/BIOL321.html" xlink:title="BIOL321: Survey of Invertebrates" target="_top">
<path fill="#dbe8d2" stroke="#1f4f66" stroke-width="2" d="M494,-64C494,-64 387,-64 387,-64 381,-64 375,-58 375,-52 375,-52 375,-40 375,-40 375,-34 381,-28 387,-28 387,-28 494,-28 494,-28 500,-28 506,-34 506,-40 506,-40 506,-52 506,-52 506,-58 500,-64 494,-64"/>
<text text-anchor="middle" x="440.5" y="-49" font-family="Avenir Next" font-size="10.00" fill="#17232b">BIOL321</text>
<text text-anchor="middle" x="440.5" y="-38" font-family="Avenir Next" font-size="10.00" fill="#17232b">Survey of Invertebrates</text>
</a>
</g>
</g>
<!-- course__BIOL225&#45;&gt;course__BIOL321 -->
<g id="edge6" class="edge">
<title>course__BIOL225&#45;&gt;course__BIOL321</title>
<path fill="none" stroke="#5d6972" stroke-width="1.2" d="M314.21,-46C329.25,-46 348.61,-46 367.6,-46"/>
<polygon fill="#5d6972" stroke="#5d6972" stroke-width="1.2" points="367.84,-48.45 374.84,-46 367.84,-43.55 367.84,-48.45"/>
</g>
<!-- course__BIOL319 -->
<g id="node5" class="node">
<title>course__BIOL319</title>
<g id="a_node5"><a xlink:href="../../../courses/BIOL319.html" xlink:title="BIOL319: Marine Ecology" target="_top">
<path fill="#dbe8d2" stroke="#1b2730" stroke-width="1.6" d="M612,-92C612,-92 579,-92 579,-92 573,-92 567,-86 567,-80 567,-80 567,-68 567,-68 567,-62 573,-56 579,-56 579,-56 612,-56 612,-56 618,-56 624,-62 624,-68 624,-68 624,-80 624,-80 624,-86 618,-92 612,-92"/>
<text text-anchor="middle" x="595.5" y="-71.5" font-family="Avenir Next" font-size="10.00" fill="#17232b">BIOL319</text>
</a>
</g>
</g>
<!-- course__BIOL321&#45;&gt;course__BIOL319 -->
<g id="edge5" class="edge">
<title>course__BIOL321&#45;&gt;course__BIOL319</title>
<path fill="none" stroke="#5d6972" stroke-width="1.2" d="M506.39,-57.87C524.75,-61.24 544.03,-64.76 559.85,-67.66"/>
<polygon fill="#5d6972" stroke="#5d6972" stroke-width="1.2" points="559.54,-70.09 566.86,-68.94 560.42,-65.27 559.54,-70.09"/>
</g>
<!-- course__BIOL322 -->
<g id="node6" class="node">
<title>course__BIOL322</title>
<g id="a_node6"><a xlink:href="../../../courses/BIOL322.html" xlink:title="BIOL322: Biology of Marine Invertebrates" target="_top">
<path fill="#dbe8d2" stroke="#1b2730" stroke-width="1.6" d="M612,-36C612,-36 579,-36 579,-36 573,-36 567,-30 567,-24 567,-24 567,-12 567,-12 567,-6 573,0 579,0 579,0 612,0 612,0 618,0 624,-6 624,-12 624,-12 624,-24 624,-24 624,-30 618,-36 612,-36"/>
<text text-anchor="middle" x="595.5" y="-15.5" font-family="Avenir Next" font-size="10.00" fill="#17232b">BIOL322</text>
</a>
</g>
</g>
<!-- course__BIOL321&#45;&gt;course__BIOL322 -->
<g id="edge7" class="edge">
<title>course__BIOL321&#45;&gt;course__BIOL322</title>
<path fill="none" stroke="#5d6972" stroke-width="1.2" d="M506.39,-34.13C524.75,-30.76 544.03,-27.24 559.85,-24.34"/>
<polygon fill="#5d6972" stroke="#5d6972" stroke-width="1.2" points="560.42,-26.73 566.86,-23.06 559.54,-21.91 560.42,-26.73"/>
</g>
</g>
</svg>
