<?xml version="1.0" encoding="UTF-8" standalone="no"?>
<!DOCTYPE svg PUBLIC "-//W3C//DTD SVG 1.1//EN"
 "http://www.w3.org/Graphics/SVG/1.1/DTD/svg11.dtd">
<!-- Generated by graphviz version 2.43.0 (0)
 -->
<!-- Title: BIOL446 Pages: 1 -->
<svg width="858pt" height="287pt"
 viewBox="0.00 0.00 858.20 287.20" xmlns="http://www.w3.org/2000/svg" xmlns:xlink="http://www.w3.org/1999/xlink">
<g id="graph0" class="graph" transform="scale(1 1) rotate(0) translate(21.6 265.6)">
<title>BIOL446</title>
<!-- course__BIOL215 -->
<g id="node1" class="node">
<title>course__BIOL215</title>
<g id="a_node1"><a xlink:href="../../../courses/BIOL215.html" xlink:title="BIOL215: Principles of Ecology" target="_top">
<path fill="#dbe8d2" stroke="#1b2730" stroke-width="1.6" d="M316,-219C316,-219 283,-219 283,-219 277,-219 271,-213 271,-207 271,-207 271,-195 271,-195 271,-189 277,-183 283,-183 283,-183 316,-183 316,-183 322,-183 328,-189 328,-195 328,-195 328,-207 328,-207 328,-213 322,-219 316,-219"/>
<text text-anchor="middle" x="299.5" y="-198.5" font-family="Avenir Next" font-size="10.00" fill="#17232b">BIOL215</text>
</a>
</g>
</g>
<!-- course__BIOL330 -->
<g id="node2" class="node">
<title>course__BIOL330</title>
<g id="a_node2"><a xlink:href="../../../courses/BIOL330.html" xlink:title="BIOL330: Study Design and Data Analysis" target="_top">
<path fill="#dbe8d2" stroke="#1b2730" stroke-width="1.6" d="M457.5,-244C457.5,-244 424.5,-244 424.5,-244 418.5,-244 412.5,-238 412.5,-232 412.5,-232 412.5,-220 412.5,-220 412.5,-214 418.5,-208 424.5,-208 424.5,-208 457.5,-208 457.5,-208 463.5,-208 469.5,-214 469.5,-220 469.5,-220 469.5,-232 469.5,-232 469.5,-238 463.5,-244 457.5,-244"/>
<text text-anchor="middle" x="441" y="-223.5" font-family="Avenir Next" font-size="10.00" fill="#17232b">BIOL330</text>
</a>
</g>
</g>
<!-- course__BIOL215&#45;&gt;course__BIOL330 -->
<g id="edge2" class="edge">
<title>course__BIOL215&#45;&gt;course__BIOL330</title>
<path fill="none" stroke="#5d6972" stroke-width="1.2" d="M328.06,-205.94C350.22,-209.91 381.49,-215.51 405.35,-219.79"/>
<polygon fill="#5d6972" stroke="#5d6972" stroke-width="1.2" points="405.17,-222.25 412.5,-221.07 406.04,-217.42 405.17,-222.25"/>
</g>
<!-- choice_BIOL446_0_0 -->
<g id="node7" class="node">
<title>choice_BIOL446_0_0</title>
<path fill="#fff7ee" stroke="#b7793f" stroke-width="1.1" d="M596,-146C596,-146 566,-146 566,-146 560,-146 554,-140 554,-134 554,-134 554,-122 554,-122 554,-116 560,-110 566,-110 566,-110 596,-110 596,-110 602,-110 608,-116 608,-122 608,-122 608,-134 608,-134 608,-140 602,-146 596,-146"/>
<text text-anchor="middle" x="581" y="-125.8" font-family="Avenir Next" font-size="9.00">1 of</text>
</g>
<!-- course__BIOL215&#45;&gt;choice_BIOL446_0_0 -->
<g id="edge3" class="edge">
<title>course__BIOL215&#45;&gt;choice_BIOL446_0_0</title>
<path fill="none" stroke="#7a8389" d="M328.09,-195.29C365.63,-187.36 434.79,-172.14 493,-156 511.06,-150.99 530.98,-144.64 547.19,-139.26"/>
<polygon fill="#7a8389" stroke="#7a8389" points="548.04,-141.56 553.9,-137.02 546.48,-136.91 548.04,-141.56"/>
</g>
<!-- course__BIOL330&#45;&gt;choice_BIOL446_0_0 -->
<g id="edge5" class="edge">
<title>course__BIOL330&#45;&gt;choice_BIOL446_0_0</title>
<path fill="none" stroke="#7a8389" d="M469.75,-208.52C477.36,-203.6 485.56,-198.18 493,-193 512.57,-179.38 534.04,-163.35 550.75,-150.62"/>
<polygon fill="#7a8389" stroke="#7a8389" points="552.61,-152.29 556.68,-146.09 549.63,-148.39 552.61,-152.29"/>
</g>
<!-- course__EOS311 -->
<g id="node3" class="node">
<title>course__EOS311</title>
<g id="a_node3"><a xlink:href="../../../courses/EOS311.html" xlink:title="Equivalent or cross&#45;listed: BIOL311: Biological Oceanography | EOS311: Biological Oceanography" target="_top">
<path fill="#d7e9ef" stroke="#1b2730" stroke-width="1.6" d="M481,-146C481,-146 401,-146 401,-146 395,-146 389,-140 389,-134 389,-134 389,-122 389,-122 389,-116 395,-110 401,-110 401,-110 481,-110 481,-110 487,-110 493,-116 493,-122 493,-122 493,-134 493,-134 493,-140 487,-146 481,-146"/>
<text text-anchor="middle" x="441" y="-125.5" font-family="Avenir Next" font-size="10.00" fill="#17232b">BIOL311 / EOS311</text>
</a>
</g>
</g>
<!-- course__EOS311&#45;&gt;choice_BIOL446_0_0 -->
<g id="edge4" class="edge">
<title>course__EOS311&#45;&gt;choice_BIOL446_0_0</title>
<path fill="none" stroke="#7a8389" d="M493.39,-128C511.2,-128 530.68,-128 546.66,-128"/>
<polygon fill="#7a8389" stroke="#7a8389" points="546.73,-130.45 553.73,-128 546.73,-125.55 546.73,-130.45"/>
</g>
<!-- course__GEOG371 -->
<g id="node4" class="node">
<title>course__GEOG371</title>
<g id="a_node4"><a xlink:href="../../../courses/GEOG371.html" xlink:title="GEOG371: Water Resources Management" target="_top">
<path fill="#e7e2d8" stroke="#1b2730" stroke-width="1.6" d="M460.5,-90C460.5,-90 421.5,-90 421.5,-90 415.5,-90 409.5,-84 409.5,-78 409.5,-78 409.5,-66 409.5,-66 409.5,-60 415.5,-54 421.5,-54 421.5,-54 460.5,-54 460.5,-54 466.5,-54 472.5,-60 472.5,-66 472.5,-66 472.5,-78 472.5,-78 472.5,-84 466.5,-90 460.5,-90"/>
<text text-anchor="middle" x="441" y="-69.5" font-family="Avenir Next" font-size="10.00" fill="#17232b">GEOG371</text>
</a>
</g>
</g>
<!-- course__GEOG371&#45;&gt;choice_BIOL446_0_0 -->
<g id="edge6" class="edge">
<title>course__GEOG371&#45;&gt;choice_BIOL446_0_0</title>
<path fill="none" stroke="#7a8389" d="M472.63,-84.43C494.65,-93.36 524.31,-105.4 546.88,-114.56"/>
<polygon fill="#7a8389" stroke="#7a8389" points="546.23,-116.94 553.64,-117.3 548.08,-112.4 546.23,-116.94"/>
</g>
<!-- course__BIOL446 -->
<g id="node5" class="node">
<title>course__BIOL446</title>
<g id="a_node5"><a xlink:href="../../../courses/BIOL446.html" xlink:title="BIOL446: Advanced Aquatic Ecology" target="_top">
<path fill="#dbe8d2" stroke="#1f4f66" stroke-width="2" d="M803,-93C803,-93 681,-93 681,-93 675,-93 669,-87 669,-81 669,-81 669,-69 669,-69 669,-63 675,-57 681,-57 681,-57 803,-57 803,-57 809,-57 815,-63 815,-69 815,-69 815,-81 815,-81 815,-87 809,-93 803,-93"/>
<text text-anchor="middle" x="742" y="-78" font-family="Avenir Next" font-size="10.00" fill="#17232b">BIOL446</text>
<text text-anchor="middle" x="742" y="-67" font-family="Avenir Next" font-size="10.00" fill="#17232b">Advanced Aquatic Ecology</text>
</a>
</g>
</g>
<!-- BIOL446_notes -->
<g id="node6" class="node">
<title>BIOL446_notes</title>
<polygon fill="#fff7ee" stroke="#b7793f" stroke-width="1.1" points="204,-46 0,-46 0,0 210,0 210,-40 204,-46"/>
<polyline fill="none" stroke="#b7793f" stroke-width="1.1" points="204,-46 204,-40 "/>
<polyline fill="none" stroke="#b7793f" stroke-width="1.1" points="210,-40 204,-40 "/>
<text text-anchor="start" x="13" y="-26.4" font-family="Avenir Next" font-size="12.00">Published notes</text>
<text text-anchor="start" x="13" y="-13.4" font-family="Avenir Next" font-size="12.00">minimum fourth&#45;year standing</text>
</g>
<!-- BIOL446_notes&#45;&gt;course__BIOL446 -->
<!-- choice_BIOL446_0_0&#45;&gt;course__BIOL446 -->
<g id="edge7" class="edge">
<title>choice_BIOL446_0_0&#45;&gt;course__BIOL446</title>
<path fill="none" stroke="#5d6972" stroke-width="1.2" d="M608.26,-119.25C627.77,-112.74 655.2,-103.6 680.06,-95.31"/>
<polygon fill="#5d6972" stroke="#5d6972" stroke-width="1.2" points="681.13,-97.54 687,-93 679.58,-92.89 681.13,-97.54"/>
</g>
</g>
</svg>
