<?xml version="1.0" encoding="UTF-8" standalone="no"?>
<!DOCTYPE svg PUBLIC "-//W3C//DTD SVG 1.1//EN"
 "http://www.w3.org/Graphics/SVG/1.1/DTD/svg11.dtd">
<!-- Generated by graphviz version 2.43.0 (0)
 -->
<!-- Title: BIOL150A Pages: 1 -->
<svg width="372pt" height="191pt"
 viewBox="0.00 0.00 372.20 191.20" xmlns="http://www.w3.org/2000/svg" xmlns:xlink="http://www.w3.org/1999/xlink">
<g id="graph0" class="graph" transform="scale(1 1) rotate(0) translate(21.6 169.6)">
<title>BIOL150A</title>
<!-- course__BIOL186 -->
<g id="node1" class="node">
<title>course__BIOL186</title>
<g id="a_node1"><a xlink:href="../../../courses/BIOL186.html" xlink:title="BIOL186: Physiology and Cell Biology" target="_top">
<path fill="#dbe8d2" stroke="#1b2730" stroke-width="1.6" d="M45,-64C45,-64 12,-64 12,-64 6,-64 0,-58 0,-52 0,-52 0,-40 0,-40 0,-34 6,-28 12,-28 12,-28 45,-28 45,-28 51,-28 57,-34 57,-40 57,-40 57,-52 57,-52 57,-58 51,-64 45,-64"/>
<text text-anchor="middle" x="28.5" y="-43.5" font-family="Avenir Next" font-size="10.00" fill="#17232b">BIOL186</text>
</a>
</g>
</g>
<!-- course__BIOL150A -->
<g id="node3" class="node">
<title>course__BIOL150A</title>
<g id="a_node3"><a xlink:href="../../../courses/BIOL150A.html" xlink:title="Collapsed in simplified view: BIOL150A: Modern Biology | BIOL184: Evolution and Biodiversity" target="_top">
<path fill="#dbe8d2" stroke="#1f4f66" stroke-width="2" d="M199,-92C199,-92 130,-92 130,-92 124,-92 118,-86 118,-80 118,-80 118,-68 118,-68 118,-62 124,-56 130,-56 130,-56 199,-56 199,-56 205,-56 211,-62 211,-68 211,-68 211,-80 211,-80 211,-86 205,-92 199,-92"/>
<text text-anchor="middle" x="164.5" y="-77" font-family="Avenir Next" font-size="10.00" fill="#17232b">Intro biology</text>
<text text-anchor="middle" x="164.5" y="-66" font-family="Avenir Next" font-size="10.00" fill="#17232b">Modern Biology</text>
</a>
</g>
</g>
<!-- course__BIOL186&#45;&gt;course__BIOL150A -->
<g id="edge1" class="edge">
<title>course__BIOL186&#45;&gt;course__BIOL150A</title>
<path fill="none" stroke="#5d6972" stroke-width="1.2" d="M57.26,-45.59C72.69,-47.66 92.41,-51.4 110.66,-55.61"/>
<polygon fill="#5d6972" stroke="#5d6972" stroke-width="1.2" points="110.46,-58.08 117.84,-57.31 111.59,-53.31 110.46,-58.08"/>
</g>
<!-- course__BIOL225 -->
<g id="node5" class="node">
<title>course__BIOL225</title>
<g id="a_node5"><a xlink:href="../../../courses/BIOL225.html" xlink:title="BIOL225: Principles of Cell Biology" target="_top">
<path fill="#dbe8d2" stroke="#1b2730" stroke-width="1.6" d="M181,-36C181,-36 148,-36 148,-36 142,-36 136,-30 136,-24 136,-24 136,-12 136,-12 136,-6 142,0 148,0 148,0 181,0 181,0 187,0 193,-6 193,-12 193,-12 193,-24 193,-24 193,-30 187,-36 181,-36"/>
<text text-anchor="middle" x="164.5" y="-15.5" font-family="Avenir Next" font-size="10.00" fill="#17232b">BIOL225</text>
</a>
</g>
</g>
<!-- course__BIOL186&#45;&gt;course__BIOL225 -->
<g id="edge3" class="edge">
<title>course__BIOL186&#45;&gt;course__BIOL225</title>
<path fill="none" stroke="#5d6972" stroke-width="1.2" d="M57.26,-40.2C78.02,-35.86 106.52,-29.91 128.78,-25.25"/>
<polygon fill="#5d6972" stroke="#5d6972" stroke-width="1.2" points="129.42,-27.62 135.77,-23.79 128.42,-22.83 129.42,-27.62"/>
</g>
<!-- course__EOS330 -->
<g id="node2" class="node">
<title>course__EOS330</title>
<g id="a_node2"><a xlink:href="../../../courses/EOS330.html" xlink:title="EOS330: Paleobiology" target="_top">
<path fill="#d7e9ef" stroke="#1b2730" stroke-width="1.6" d="M43.5,-120C43.5,-120 13.5,-120 13.5,-120 7.5,-120 1.5,-114 1.5,-108 1.5,-108 1.5,-96 1.5,-96 1.5,-90 7.5,-84 13.5,-84 13.5,-84 43.5,-84 43.5,-84 49.5,-84 55.5,-90 55.5,-96 55.5,-96 55.5,-108 55.5,-108 55.5,-114 49.5,-120 43.5,-120"/>
<text text-anchor="middle" x="28.5" y="-99.5" font-family="Avenir Next" font-size="10.00" fill="#17232b">EOS330</text>
</a>
</g>
</g>
<!-- course__BIOL150A&#45;&gt;course__BIOL186 -->
<g id="edge2" class="edge">
<title>course__BIOL150A&#45;&gt;course__BIOL186</title>
<path fill="none" stroke="#5d6972" stroke-width="1.2" d="M117.84,-71.61C100.24,-68.53 80.44,-64.23 64.06,-59.88"/>
<polygon fill="#5d6972" stroke="#5d6972" stroke-width="1.2" points="64.66,-57.5 57.26,-58.02 63.37,-62.23 64.66,-57.5"/>
</g>
<!-- course__BIOL150A&#45;&gt;course__EOS330 -->
<g id="edge6" class="edge">
<title>course__BIOL150A&#45;&gt;course__EOS330</title>
<path fill="none" stroke="#5d6972" stroke-width="1.2" d="M117.87,-83.53C99.72,-87.33 79.23,-91.61 62.55,-95.09"/>
<polygon fill="#5d6972" stroke="#5d6972" stroke-width="1.2" points="62.01,-92.7 55.65,-96.53 63.01,-97.5 62.01,-92.7"/>
</g>
<!-- course__BIOL150A&#45;&gt;course__BIOL225 -->
<g id="edge4" class="edge">
<title>course__BIOL150A&#45;&gt;course__BIOL225</title>
<path fill="none" stroke="#5d6972" stroke-width="1.2" d="M164.5,-55.78C164.5,-51.73 164.5,-47.69 164.5,-43.65"/>
<polygon fill="#5d6972" stroke="#5d6972" stroke-width="1.2" points="166.95,-43.37 164.5,-36.38 162.05,-43.38 166.95,-43.37"/>
</g>
<!-- course__BIOL215 -->
<g id="node4" class="node">
<title>course__BIOL215</title>
<g id="a_node4"><a xlink:href="../../../courses/BIOL215.html" xlink:title="BIOL215: Principles of Ecology" target="_top">
<path fill="#dbe8d2" stroke="#1b2730" stroke-width="1.6" d="M181,-148C181,-148 148,-148 148,-148 142,-148 136,-142 136,-136 136,-136 136,-124 136,-124 136,-118 142,-112 148,-112 148,-112 181,-112 181,-112 187,-112 193,-118 193,-124 193,-124 193,-136 193,-136 193,-142 187,-148 181,-148"/>
<text text-anchor="middle" x="164.5" y="-127.5" font-family="Avenir Next" font-size="10.00" fill="#17232b">BIOL215</text>
</a>
</g>
</g>
<!-- course__BIOL321 -->
<g id="node6" class="node">
<title>course__BIOL321</title>
<g id="a_node6"><a xlink:href="../../../courses/BIOL321.html" xlink:title="BIOL321: Survey of Invertebrates" target="_top">
<path fill="#dbe8d2" stroke="#1b2730" stroke-width="1.6" d="M317,-36C317,-36 284,-36 284,-36 278,-36 272,-30 272,-24 272,-24 272,-12 272,-12 272,-6 278,0 284,0 284,0 317,0 317,0 323,0 329,-6 329,-12 329,-12 329,-24 329,-24 329,-30 323,-36 317,-36"/>
<text text-anchor="middle" x="300.5" y="-15.5" font-family="Avenir Next" font-size="10.00" fill="#17232b">BIOL321</text>
</a>
</g>
</g>
<!-- course__BIOL225&#45;&gt;course__BIOL321 -->
<g id="edge5" class="edge">
<title>course__BIOL225&#45;&gt;course__BIOL321</title>
<path fill="none" stroke="#5d6972" stroke-width="1.2" d="M193.26,-18C213.93,-18 242.28,-18 264.49,-18"/>
<polygon fill="#5d6972" stroke="#5d6972" stroke-width="1.2" points="264.77,-20.45 271.77,-18 264.77,-15.55 264.77,-20.45"/>
</g>
</g>
</svg>
