<?xml version="1.0" encoding="UTF-8" standalone="no"?>
<!DOCTYPE svg PUBLIC "-//W3C//DTD SVG 1.1//EN"
 "http://www.w3.org/Graphics/SVG/1.1/DTD/svg11.dtd">
<!-- Generated by graphviz version 2.43.0 (0)
 -->
<!-- Title: BIOL457 Pages: 1 -->
<svg width="492pt" height="135pt"
 viewBox="0.00 0.00 492.20 135.20" xmlns="http://www.w3.org/2000/svg" xmlns:xlink="http://www.w3.org/1999/xlink">
<g id="graph0" class="graph" transform="scale(1 1) rotate(0) translate(21.6 113.6)">
<title>BIOL457</title>
<!-- course__BIOL215 -->
<g id="node1" class="node">
<title>course__BIOL215</title>
<g id="a_node1"><a xlink:href="../../../courses/BIOL215.html" xlink:title="BIOL215: Principles of Ecology" target="_top">
<path fill="#dbe8d2" stroke="#1b2730" stroke-width="1.6" d="M45,-92C45,-92 12,-92 12,-92 6,-92 0,-86 0,-80 0,-80 0,-68 0,-68 0,-62 6,-56 12,-56 12,-56 45,-56 45,-56 51,-56 57,-62 57,-68 57,-68 57,-80 57,-80 57,-86 51,-92 45,-92"/>
<text text-anchor="middle" x="28.5" y="-71.5" font-family="Avenir Next" font-size="10.00" fill="#17232b">BIOL215</text>
</a>
</g>
</g>
<!-- choice_BIOL457_0_0 -->
<g id="node4" class="node">
<title>choice_BIOL457_0_0</title>
<path fill="#fff7ee" stroke="#b7793f" stroke-width="1.1" d="M160,-64C160,-64 130,-64 130,-64 124,-64 118,-58 118,-52 118,-52 118,-40 118,-40 118,-34 124,-28 130,-28 130,-28 160,-28 160,-28 166,-28 172,-34 172,-40 172,-40 172,-52 172,-52 172,-58 166,-64 160,-64"/>
<text text-anchor="middle" x="145" y="-43.8" font-family="Avenir Next" font-size="9.00">1 of</text>
</g>
<!-- course__BIOL215&#45;&gt;choice_BIOL457_0_0 -->
<g id="edge1" class="edge">
<title>course__BIOL215&#45;&gt;choice_BIOL457_0_0</title>
<path fill="none" stroke="#7a8389" d="M57.22,-67.22C73.32,-63.28 93.71,-58.3 110.68,-54.15"/>
<polygon fill="#7a8389" stroke="#7a8389" points="111.5,-56.47 117.72,-52.43 110.34,-51.71 111.5,-56.47"/>
</g>
<!-- course__EOS330 -->
<g id="node2" class="node">
<title>course__EOS330</title>
<g id="a_node2"><a xlink:href="../../../courses/EOS330.html" xlink:title="EOS330: Paleobiology" target="_top">
<path fill="#d7e9ef" stroke="#1b2730" stroke-width="1.6" d="M43.5,-36C43.5,-36 13.5,-36 13.5,-36 7.5,-36 1.5,-30 1.5,-24 1.5,-24 1.5,-12 1.5,-12 1.5,-6 7.5,0 13.5,0 13.5,0 43.5,0 43.5,0 49.5,0 55.5,-6 55.5,-12 55.5,-12 55.5,-24 55.5,-24 55.5,-30 49.5,-36 43.5,-36"/>
<text text-anchor="middle" x="28.5" y="-15.5" font-family="Avenir Next" font-size="10.00" fill="#17232b">EOS330</text>
</a>
</g>
</g>
<!-- course__EOS330&#45;&gt;choice_BIOL457_0_0 -->
<g id="edge2" class="edge">
<title>course__EOS330&#45;&gt;choice_BIOL457_0_0</title>
<path fill="none" stroke="#7a8389" d="M55.77,-24.42C72.06,-28.41 93.14,-33.56 110.61,-37.84"/>
<polygon fill="#7a8389" stroke="#7a8389" points="110.47,-40.32 117.85,-39.61 111.64,-35.56 110.47,-40.32"/>
</g>
<!-- course__BIOL457 -->
<g id="node3" class="node">
<title>course__BIOL457</title>
<g id="a_node3"><a xlink:href="../../../courses/BIOL457.html" xlink:title="BIOL457: Paleoecology and Environmental Change" target="_top">
<path fill="#dbe8d2" stroke="#1f4f66" stroke-width="2" d="M437,-64C437,-64 245,-64 245,-64 239,-64 233,-58 233,-52 233,-52 233,-40 233,-40 233,-34 239,-28 245,-28 245,-28 437,-28 437,-28 443,-28 449,-34 449,-40 449,-40 449,-52 449,-52 449,-58 443,-64 437,-64"/>
<text text-anchor="middle" x="341" y="-49" font-family="Avenir Next" font-size="10.00" fill="#17232b">BIOL457</text>
<text text-anchor="middle" x="341" y="-38" font-family="Avenir Next" font-size="10.00" fill="#17232b">Paleoecology and Environmental Change</text>
</a>
</g>
</g>
<!-- choice_BIOL457_0_0&#45;&gt;course__BIOL457 -->
<g id="edge3" class="edge">
<title>choice_BIOL457_0_0&#45;&gt;course__BIOL457</title>
<path fill="none" stroke="#5d6972" stroke-width="1.2" d="M172.16,-46C186.6,-46 205.63,-46 225.68,-46"/>
<polygon fill="#5d6972" stroke="#5d6972" stroke-width="1.2" points="225.81,-48.45 232.81,-46 225.81,-43.55 225.81,-48.45"/>
</g>
</g>
</svg>
