<?xml version="1.0" encoding="UTF-8" standalone="no"?>
<!DOCTYPE svg PUBLIC "-//W3C//DTD SVG 1.1//EN"
 "http://www.w3.org/Graphics/SVG/1.1/DTD/svg11.dtd">
<!-- Generated by graphviz version 2.43.0 (0)
 -->
<!-- Title: BIOL461 Pages: 1 -->
<svg width="1786pt" height="399pt"
 viewBox="0.00 0.00 1786.20 399.20" xmlns="http://www.w3.org/2000/svg" xmlns:xlink="http://www.w3.org/1999/xlink">
<g id="graph0" class="graph" transform="scale(1 1) rotate(0) translate(21.6 377.6)">
<title>BIOL461</title>
<!-- course__BIOL150A -->
<g id="node1" class="node">
<title>course__BIOL150A</title>
<g id="a_node1"><a xlink:href="../../../courses/BIOL150A.html" xlink:title="BIOL150A: Modern Biology" target="_top">
<path fill="#dbe8d2" stroke="#7e8d96" d="M333,-338C333,-338 295,-338 295,-338 289,-338 283,-332 283,-326 283,-326 283,-314 283,-314 283,-308 289,-302 295,-302 295,-302 333,-302 333,-302 339,-302 345,-308 345,-314 345,-314 345,-326 345,-326 345,-332 339,-338 333,-338"/>
<text text-anchor="middle" x="314" y="-317.8" font-family="Avenir Next" font-size="9.00" fill="#41515b">BIOL150A</text>
</a>
</g>
</g>
<!-- choice_BIOL184_0_0 -->
<g id="node18" class="node">
<title>choice_BIOL184_0_0</title>
<path fill="#fff7ee" stroke="#b7793f" stroke-width="1.1" d="M765,-356C765,-356 735,-356 735,-356 729,-356 723,-350 723,-344 723,-344 723,-332 723,-332 723,-326 729,-320 735,-320 735,-320 765,-320 765,-320 771,-320 777,-326 777,-332 777,-332 777,-344 777,-344 777,-350 771,-356 765,-356"/>
<text text-anchor="middle" x="750" y="-335.8" font-family="Avenir Next" font-size="9.00">1 of</text>
</g>
<!-- course__BIOL150A&#45;&gt;choice_BIOL184_0_0 -->
<g id="edge2" class="edge">
<title>course__BIOL150A&#45;&gt;choice_BIOL184_0_0</title>
<path fill="none" stroke="#7a8389" d="M345.17,-321.25C423.73,-324.51 634.15,-333.24 715.89,-336.63"/>
<polygon fill="#7a8389" stroke="#7a8389" points="715.84,-339.08 722.93,-336.92 716.04,-334.18 715.84,-339.08"/>
</g>
<!-- choice_BIOL186_0_0 -->
<g id="node19" class="node">
<title>choice_BIOL186_0_0</title>
<path fill="#fff7ee" stroke="#b7793f" stroke-width="1.1" d="M448,-265C448,-265 418,-265 418,-265 412,-265 406,-259 406,-253 406,-253 406,-241 406,-241 406,-235 412,-229 418,-229 418,-229 448,-229 448,-229 454,-229 460,-235 460,-241 460,-241 460,-253 460,-253 460,-259 454,-265 448,-265"/>
<text text-anchor="middle" x="433" y="-244.8" font-family="Avenir Next" font-size="9.00">1 of</text>
</g>
<!-- course__BIOL150A&#45;&gt;choice_BIOL186_0_0 -->
<g id="edge5" class="edge">
<title>course__BIOL150A&#45;&gt;choice_BIOL186_0_0</title>
<path fill="none" stroke="#7a8389" d="M343.92,-301.96C360.8,-291.43 382.13,-278.12 399.57,-267.23"/>
<polygon fill="#7a8389" stroke="#7a8389" points="401.16,-269.13 405.81,-263.34 398.57,-264.97 401.16,-269.13"/>
</g>
<!-- course__BIOL184 -->
<g id="node2" class="node">
<title>course__BIOL184</title>
<g id="a_node2"><a xlink:href="../../../courses/BIOL184.html" xlink:title="BIOL184: Evolution and Biodiversity" target="_top">
<path fill="#dbe8d2" stroke="#7e8d96" d="M330,-265C330,-265 298,-265 298,-265 292,-265 286,-259 286,-253 286,-253 286,-241 286,-241 286,-235 292,-229 298,-229 298,-229 330,-229 330,-229 336,-229 342,-235 342,-241 342,-241 342,-253 342,-253 342,-259 336,-265 330,-265"/>
<text text-anchor="middle" x="314" y="-244.8" font-family="Avenir Next" font-size="9.00" fill="#41515b">BIOL184</text>
</a>
</g>
</g>
<!-- course__BIOL225 -->
<g id="node7" class="node">
<title>course__BIOL225</title>
<g id="a_node7"><a xlink:href="../../../courses/BIOL225.html" xlink:title="BIOL225: Principles of Cell Biology" target="_top">
<path fill="#dbe8d2" stroke="#7e8d96" d="M939.5,-237C939.5,-237 907.5,-237 907.5,-237 901.5,-237 895.5,-231 895.5,-225 895.5,-225 895.5,-213 895.5,-213 895.5,-207 901.5,-201 907.5,-201 907.5,-201 939.5,-201 939.5,-201 945.5,-201 951.5,-207 951.5,-213 951.5,-213 951.5,-225 951.5,-225 951.5,-231 945.5,-237 939.5,-237"/>
<text text-anchor="middle" x="923.5" y="-216.8" font-family="Avenir Next" font-size="9.00" fill="#41515b">BIOL225</text>
</a>
</g>
</g>
<!-- course__BIOL184&#45;&gt;course__BIOL225 -->
<g id="edge9" class="edge">
<title>course__BIOL184&#45;&gt;course__BIOL225</title>
<path fill="none" stroke="#5d6972" stroke-width="1.2" d="M342.38,-236.23C360.19,-229.81 384.1,-222.29 406,-219 585.9,-191.95 805.04,-207.77 888.25,-215.51"/>
<polygon fill="#5d6972" stroke="#5d6972" stroke-width="1.2" points="888.2,-217.96 895.4,-216.18 888.67,-213.08 888.2,-217.96"/>
</g>
<!-- course__BIOL184&#45;&gt;choice_BIOL186_0_0 -->
<g id="edge6" class="edge">
<title>course__BIOL184&#45;&gt;choice_BIOL186_0_0</title>
<path fill="none" stroke="#7a8389" d="M342.14,-247C358.91,-247 380.57,-247 398.42,-247"/>
<polygon fill="#7a8389" stroke="#7a8389" points="398.82,-249.45 405.82,-247 398.82,-244.55 398.82,-249.45"/>
</g>
<!-- course__BIOL186 -->
<g id="node3" class="node">
<title>course__BIOL186</title>
<g id="a_node3"><a xlink:href="../../../courses/BIOL186.html" xlink:title="BIOL186: Physiology and Cell Biology" target="_top">
<path fill="#dbe8d2" stroke="#7e8d96" d="M592.5,-265C592.5,-265 560.5,-265 560.5,-265 554.5,-265 548.5,-259 548.5,-253 548.5,-253 548.5,-241 548.5,-241 548.5,-235 554.5,-229 560.5,-229 560.5,-229 592.5,-229 592.5,-229 598.5,-229 604.5,-235 604.5,-241 604.5,-241 604.5,-253 604.5,-253 604.5,-259 598.5,-265 592.5,-265"/>
<text text-anchor="middle" x="576.5" y="-244.8" font-family="Avenir Next" font-size="9.00" fill="#41515b">BIOL186</text>
</a>
</g>
</g>
<!-- course__BIOL186&#45;&gt;course__BIOL225 -->
<g id="edge8" class="edge">
<title>course__BIOL186&#45;&gt;course__BIOL225</title>
<path fill="none" stroke="#5d6972" stroke-width="1.2" d="M604.57,-244.8C666.64,-239.77 819.16,-227.39 887.9,-221.81"/>
<polygon fill="#5d6972" stroke="#5d6972" stroke-width="1.2" points="888.3,-224.23 895.08,-221.23 887.9,-219.35 888.3,-224.23"/>
</g>
<!-- course__BIOL186&#45;&gt;choice_BIOL184_0_0 -->
<g id="edge3" class="edge">
<title>course__BIOL186&#45;&gt;choice_BIOL184_0_0</title>
<path fill="none" stroke="#7a8389" d="M604.89,-262.3C628.2,-275.23 662.63,-294.13 693,-310 700.6,-313.97 708.84,-318.16 716.59,-322.04"/>
<polygon fill="#7a8389" stroke="#7a8389" points="715.62,-324.29 722.97,-325.23 717.8,-319.91 715.62,-324.29"/>
</g>
<!-- course__MATH100 -->
<g id="node4" class="node">
<title>course__MATH100</title>
<g id="a_node4"><a xlink:href="../../../courses/MATH100.html" xlink:title="Equivalent or cross&#45;listed: MATH100: Calculus I | MATH102: Calculus for Students in the Social and Biological Sciences | MATH109: Introduction to Calculus" target="_top">
<path fill="#dfe3f4" stroke="#7e8d96" d="M620,-139C620,-139 533,-139 533,-139 527,-139 521,-133 521,-127 521,-127 521,-115 521,-115 521,-109 527,-103 533,-103 533,-103 620,-103 620,-103 626,-103 632,-109 632,-115 632,-115 632,-127 632,-127 632,-133 626,-139 620,-139"/>
<text text-anchor="middle" x="576.5" y="-123.8" font-family="Avenir Next" font-size="9.00" fill="#41515b">MATH100 / MATH102</text>
<text text-anchor="middle" x="576.5" y="-113.8" font-family="Avenir Next" font-size="9.00" fill="#41515b">MATH109</text>
</a>
</g>
</g>
<!-- course__MATH101 -->
<g id="node6" class="node">
<title>course__MATH101</title>
<g id="a_node6"><a xlink:href="../../../courses/MATH101.html" xlink:title="MATH101: Calculus II" target="_top">
<path fill="#dfe3f4" stroke="#7e8d96" d="M767.5,-139C767.5,-139 732.5,-139 732.5,-139 726.5,-139 720.5,-133 720.5,-127 720.5,-127 720.5,-115 720.5,-115 720.5,-109 726.5,-103 732.5,-103 732.5,-103 767.5,-103 767.5,-103 773.5,-103 779.5,-109 779.5,-115 779.5,-115 779.5,-127 779.5,-127 779.5,-133 773.5,-139 767.5,-139"/>
<text text-anchor="middle" x="750" y="-118.8" font-family="Avenir Next" font-size="9.00" fill="#41515b">MATH101</text>
</a>
</g>
</g>
<!-- course__MATH100&#45;&gt;course__MATH101 -->
<g id="edge28" class="edge">
<title>course__MATH100&#45;&gt;course__MATH101</title>
<path fill="none" stroke="#5d6972" stroke-width="1.2" d="M632.24,-121C658.71,-121 689.74,-121 713.16,-121"/>
<polygon fill="#5d6972" stroke="#5d6972" stroke-width="1.2" points="713.17,-123.45 720.17,-121 713.17,-118.55 713.17,-123.45"/>
</g>
<!-- course__CHEM101 -->
<g id="node5" class="node">
<title>course__CHEM101</title>
<g id="a_node5"><a xlink:href="../../../courses/CHEM101.html" xlink:title="Equivalent or cross&#45;listed: CHEM101: Fundamentals of Chemistry from Atoms to Materials | CHEM150: Engineering Chemistry" target="_top">
<path fill="#ead9b8" stroke="#7e8d96" d="M795,-300C795,-300 705,-300 705,-300 699,-300 693,-294 693,-288 693,-288 693,-276 693,-276 693,-270 699,-264 705,-264 705,-264 795,-264 795,-264 801,-264 807,-270 807,-276 807,-276 807,-288 807,-288 807,-294 801,-300 795,-300"/>
<text text-anchor="middle" x="750" y="-279.8" font-family="Avenir Next" font-size="9.00" fill="#41515b">CHEM101 / CHEM150</text>
</a>
</g>
</g>
<!-- course__CHEM231 -->
<g id="node8" class="node">
<title>course__CHEM231</title>
<g id="a_node8"><a xlink:href="../../../courses/CHEM231.html" xlink:title="CHEM231: Introduction to Organic Chemistry" target="_top">
<path fill="#ead9b8" stroke="#7e8d96" d="M942,-300C942,-300 905,-300 905,-300 899,-300 893,-294 893,-288 893,-288 893,-276 893,-276 893,-270 899,-264 905,-264 905,-264 942,-264 942,-264 948,-264 954,-270 954,-276 954,-276 954,-288 954,-288 954,-294 948,-300 942,-300"/>
<text text-anchor="middle" x="923.5" y="-279.8" font-family="Avenir Next" font-size="9.00" fill="#41515b">CHEM231</text>
</a>
</g>
</g>
<!-- course__CHEM101&#45;&gt;course__CHEM231 -->
<g id="edge27" class="edge">
<title>course__CHEM101&#45;&gt;course__CHEM231</title>
<path fill="none" stroke="#5d6972" stroke-width="1.2" d="M807.16,-282C832.89,-282 862.69,-282 885.55,-282"/>
<polygon fill="#5d6972" stroke="#5d6972" stroke-width="1.2" points="885.71,-284.45 892.71,-282 885.71,-279.55 885.71,-284.45"/>
</g>
<!-- course__MATH200 -->
<g id="node9" class="node">
<title>course__MATH200</title>
<g id="a_node9"><a xlink:href="../../../courses/MATH200.html" xlink:title="Equivalent or cross&#45;listed: MATH200: Calculus III | MATH202: Intermediate Calculus for CSC and EOS" target="_top">
<path fill="#dfe3f4" stroke="#7e8d96" d="M967,-167C967,-167 880,-167 880,-167 874,-167 868,-161 868,-155 868,-155 868,-143 868,-143 868,-137 874,-131 880,-131 880,-131 967,-131 967,-131 973,-131 979,-137 979,-143 979,-143 979,-155 979,-155 979,-161 973,-167 967,-167"/>
<text text-anchor="middle" x="923.5" y="-146.8" font-family="Avenir Next" font-size="9.00" fill="#41515b">MATH200 / MATH202</text>
</a>
</g>
</g>
<!-- course__MATH101&#45;&gt;course__MATH200 -->
<g id="edge29" class="edge">
<title>course__MATH101&#45;&gt;course__MATH200</title>
<path fill="none" stroke="#5d6972" stroke-width="1.2" d="M779.71,-125.69C801.77,-129.29 833.06,-134.4 860.72,-138.91"/>
<polygon fill="#5d6972" stroke="#5d6972" stroke-width="1.2" points="860.37,-141.34 867.67,-140.05 861.16,-136.5 860.37,-141.34"/>
</g>
<!-- course__STAT254 -->
<g id="node12" class="node">
<title>course__STAT254</title>
<g id="a_node12"><a xlink:href="../../../courses/STAT254.html" xlink:title="Equivalent or cross&#45;listed: STAT254: Probability and Statistics for Engineers | STAT260: Introduction to Probability and Statistics I" target="_top">
<path fill="#e6dde9" stroke="#7e8d96" d="M1132,-146C1132,-146 1052,-146 1052,-146 1046,-146 1040,-140 1040,-134 1040,-134 1040,-122 1040,-122 1040,-116 1046,-110 1052,-110 1052,-110 1132,-110 1132,-110 1138,-110 1144,-116 1144,-122 1144,-122 1144,-134 1144,-134 1144,-140 1138,-146 1132,-146"/>
<text text-anchor="middle" x="1092" y="-125.8" font-family="Avenir Next" font-size="9.00" fill="#41515b">STAT254 / STAT260</text>
</a>
</g>
</g>
<!-- course__MATH101&#45;&gt;course__STAT254 -->
<g id="edge31" class="edge">
<title>course__MATH101&#45;&gt;course__STAT254</title>
<path fill="none" stroke="#5d6972" stroke-width="1.2" d="M779.8,-120.42C823.06,-119.69 907.39,-118.76 979,-121 996.38,-121.54 1015.25,-122.56 1032.47,-123.65"/>
<polygon fill="#5d6972" stroke="#5d6972" stroke-width="1.2" points="1032.59,-126.11 1039.74,-124.12 1032.91,-121.22 1032.59,-126.11"/>
</g>
<!-- course__BIOL230 -->
<g id="node11" class="node">
<title>course__BIOL230</title>
<g id="a_node11"><a xlink:href="../../../courses/BIOL230.html" xlink:title="BIOL230: Principles of Genetics" target="_top">
<path fill="#dbe8d2" stroke="#7e8d96" d="M1108,-300C1108,-300 1076,-300 1076,-300 1070,-300 1064,-294 1064,-288 1064,-288 1064,-276 1064,-276 1064,-270 1070,-264 1076,-264 1076,-264 1108,-264 1108,-264 1114,-264 1120,-270 1120,-276 1120,-276 1120,-288 1120,-288 1120,-294 1114,-300 1108,-300"/>
<text text-anchor="middle" x="1092" y="-279.8" font-family="Avenir Next" font-size="9.00" fill="#41515b">BIOL230</text>
</a>
</g>
</g>
<!-- course__BIOL225&#45;&gt;course__BIOL230 -->
<g id="edge10" class="edge">
<title>course__BIOL225&#45;&gt;course__BIOL230</title>
<path fill="none" stroke="#5d6972" stroke-width="1.2" d="M951.62,-229.26C980.41,-240.15 1025.95,-257.39 1057.09,-269.17"/>
<polygon fill="#5d6972" stroke="#5d6972" stroke-width="1.2" points="1056.48,-271.56 1063.89,-271.74 1058.21,-266.97 1056.48,-271.56"/>
</g>
<!-- choice_BIOL330_0_2 -->
<g id="node21" class="node">
<title>choice_BIOL330_0_2</title>
<path fill="#fff7ee" stroke="#b7793f" stroke-width="1.1" d="M1247,-202C1247,-202 1217,-202 1217,-202 1211,-202 1205,-196 1205,-190 1205,-190 1205,-178 1205,-178 1205,-172 1211,-166 1217,-166 1217,-166 1247,-166 1247,-166 1253,-166 1259,-172 1259,-178 1259,-178 1259,-190 1259,-190 1259,-196 1253,-202 1247,-202"/>
<text text-anchor="middle" x="1232" y="-181.8" font-family="Avenir Next" font-size="9.00">1 of</text>
</g>
<!-- course__BIOL225&#45;&gt;choice_BIOL330_0_2 -->
<g id="edge15" class="edge">
<title>course__BIOL225&#45;&gt;choice_BIOL330_0_2</title>
<path fill="none" stroke="#7a8389" d="M951.91,-213.16C975.23,-208.4 1009.67,-201.86 1040,-198 1095.04,-191 1159.48,-187.18 1197.68,-185.36"/>
<polygon fill="#7a8389" stroke="#7a8389" points="1198.08,-187.8 1204.96,-185.03 1197.86,-182.9 1198.08,-187.8"/>
</g>
<!-- course__CHEM231&#45;&gt;course__BIOL230 -->
<g id="edge11" class="edge">
<title>course__CHEM231&#45;&gt;course__BIOL230</title>
<path fill="none" stroke="#5d6972" stroke-width="1.2" d="M954.27,-282C982.98,-282 1026.42,-282 1056.6,-282"/>
<polygon fill="#5d6972" stroke="#5d6972" stroke-width="1.2" points="1056.97,-284.45 1063.97,-282 1056.97,-279.55 1056.97,-284.45"/>
</g>
<!-- course__MATH200&#45;&gt;course__STAT254 -->
<g id="edge30" class="edge">
<title>course__MATH200&#45;&gt;course__STAT254</title>
<path fill="none" stroke="#5d6972" stroke-width="1.2" d="M979.02,-142.12C996.11,-139.97 1015.05,-137.58 1032.41,-135.39"/>
<polygon fill="#5d6972" stroke="#5d6972" stroke-width="1.2" points="1033.11,-137.77 1039.75,-134.46 1032.5,-132.91 1033.11,-137.77"/>
</g>
<!-- course__BIOL215 -->
<g id="node10" class="node">
<title>course__BIOL215</title>
<g id="a_node10"><a xlink:href="../../../courses/BIOL215.html" xlink:title="BIOL215: Principles of Ecology" target="_top">
<path fill="#dbe8d2" stroke="#7e8d96" d="M1108,-244C1108,-244 1076,-244 1076,-244 1070,-244 1064,-238 1064,-232 1064,-232 1064,-220 1064,-220 1064,-214 1070,-208 1076,-208 1076,-208 1108,-208 1108,-208 1114,-208 1120,-214 1120,-220 1120,-220 1120,-232 1120,-232 1120,-238 1114,-244 1108,-244"/>
<text text-anchor="middle" x="1092" y="-223.8" font-family="Avenir Next" font-size="9.00" fill="#41515b">BIOL215</text>
</a>
</g>
</g>
<!-- course__BIOL370 -->
<g id="node15" class="node">
<title>course__BIOL370</title>
<g id="a_node15"><a xlink:href="../../../courses/BIOL370.html" xlink:title="BIOL370: Conservation Biology" target="_top">
<path fill="#dbe8d2" stroke="#1b2730" stroke-width="1.6" d="M1365,-224C1365,-224 1332,-224 1332,-224 1326,-224 1320,-218 1320,-212 1320,-212 1320,-200 1320,-200 1320,-194 1326,-188 1332,-188 1332,-188 1365,-188 1365,-188 1371,-188 1377,-194 1377,-200 1377,-200 1377,-212 1377,-212 1377,-218 1371,-224 1365,-224"/>
<text text-anchor="middle" x="1348.5" y="-203.5" font-family="Avenir Next" font-size="10.00" fill="#17232b">BIOL370</text>
</a>
</g>
</g>
<!-- course__BIOL215&#45;&gt;course__BIOL370 -->
<g id="edge21" class="edge">
<title>course__BIOL215&#45;&gt;course__BIOL370</title>
<path fill="none" stroke="#5d6972" stroke-width="1.2" d="M1120.24,-223.86C1166.68,-220.21 1261.14,-212.79 1312.44,-208.75"/>
<polygon fill="#5d6972" stroke="#5d6972" stroke-width="1.2" points="1312.9,-211.18 1319.69,-208.19 1312.52,-206.29 1312.9,-211.18"/>
</g>
<!-- course__BIOL215&#45;&gt;choice_BIOL330_0_2 -->
<g id="edge14" class="edge">
<title>course__BIOL215&#45;&gt;choice_BIOL330_0_2</title>
<path fill="none" stroke="#7a8389" d="M1120.26,-217.7C1142.57,-210.91 1174.2,-201.29 1197.94,-194.06"/>
<polygon fill="#7a8389" stroke="#7a8389" points="1198.75,-196.38 1204.73,-192 1197.32,-191.69 1198.75,-196.38"/>
</g>
<!-- course__BIOL230&#45;&gt;course__BIOL370 -->
<g id="edge22" class="edge">
<title>course__BIOL230&#45;&gt;course__BIOL370</title>
<path fill="none" stroke="#5d6972" stroke-width="1.2" d="M1120.24,-273.87C1166.77,-259.97 1261.53,-231.67 1312.76,-216.37"/>
<polygon fill="#5d6972" stroke="#5d6972" stroke-width="1.2" points="1313.68,-218.66 1319.69,-214.31 1312.28,-213.96 1313.68,-218.66"/>
</g>
<!-- course__BIOL230&#45;&gt;choice_BIOL330_0_2 -->
<g id="edge16" class="edge">
<title>course__BIOL230&#45;&gt;choice_BIOL330_0_2</title>
<path fill="none" stroke="#7a8389" d="M1120.26,-268.18C1128.09,-263.91 1136.53,-259 1144,-254 1165.57,-239.57 1188.37,-221.09 1205.22,-206.74"/>
<polygon fill="#7a8389" stroke="#7a8389" points="1206.97,-208.46 1210.69,-202.04 1203.78,-204.74 1206.97,-208.46"/>
</g>
<!-- choice_BIOL330_0_0 -->
<g id="node20" class="node">
<title>choice_BIOL330_0_0</title>
<path fill="#fff7ee" stroke="#b7793f" stroke-width="1.1" d="M1247,-90C1247,-90 1217,-90 1217,-90 1211,-90 1205,-84 1205,-78 1205,-78 1205,-66 1205,-66 1205,-60 1211,-54 1217,-54 1217,-54 1247,-54 1247,-54 1253,-54 1259,-60 1259,-66 1259,-66 1259,-78 1259,-78 1259,-84 1253,-90 1247,-90"/>
<text text-anchor="middle" x="1232" y="-69.8" font-family="Avenir Next" font-size="9.00">1 of</text>
</g>
<!-- course__STAT254&#45;&gt;choice_BIOL330_0_0 -->
<g id="edge13" class="edge">
<title>course__STAT254&#45;&gt;choice_BIOL330_0_0</title>
<path fill="none" stroke="#7a8389" d="M1137.42,-109.97C1157.04,-102.01 1179.7,-92.82 1197.81,-85.47"/>
<polygon fill="#7a8389" stroke="#7a8389" points="1199.2,-87.55 1204.77,-82.65 1197.36,-83.01 1199.2,-87.55"/>
</g>
<!-- choice_BIOL370_0_2 -->
<g id="node22" class="node">
<title>choice_BIOL370_0_2</title>
<path fill="#fff7ee" stroke="#b7793f" stroke-width="1.1" d="M1247,-146C1247,-146 1217,-146 1217,-146 1211,-146 1205,-140 1205,-134 1205,-134 1205,-122 1205,-122 1205,-116 1211,-110 1217,-110 1217,-110 1247,-110 1247,-110 1253,-110 1259,-116 1259,-122 1259,-122 1259,-134 1259,-134 1259,-140 1253,-146 1247,-146"/>
<text text-anchor="middle" x="1232" y="-125.8" font-family="Avenir Next" font-size="9.00">1 of</text>
</g>
<!-- course__STAT254&#45;&gt;choice_BIOL370_0_2 -->
<g id="edge20" class="edge">
<title>course__STAT254&#45;&gt;choice_BIOL370_0_2</title>
<path fill="none" stroke="#7a8389" d="M1144.39,-128C1162.2,-128 1181.68,-128 1197.66,-128"/>
<polygon fill="#7a8389" stroke="#7a8389" points="1197.73,-130.45 1204.73,-128 1197.73,-125.55 1197.73,-130.45"/>
</g>
<!-- course__STAT255 -->
<g id="node13" class="node">
<title>course__STAT255</title>
<g id="a_node13"><a xlink:href="../../../courses/STAT255.html" xlink:title="STAT255: Statistics for Life Sciences I" target="_top">
<path fill="#e6dde9" stroke="#7e8d96" d="M1108,-90C1108,-90 1076,-90 1076,-90 1070,-90 1064,-84 1064,-78 1064,-78 1064,-66 1064,-66 1064,-60 1070,-54 1076,-54 1076,-54 1108,-54 1108,-54 1114,-54 1120,-60 1120,-66 1120,-66 1120,-78 1120,-78 1120,-84 1114,-90 1108,-90"/>
<text text-anchor="middle" x="1092" y="-69.8" font-family="Avenir Next" font-size="9.00" fill="#41515b">STAT255</text>
</a>
</g>
</g>
<!-- course__STAT255&#45;&gt;choice_BIOL330_0_0 -->
<g id="edge12" class="edge">
<title>course__STAT255&#45;&gt;choice_BIOL330_0_0</title>
<path fill="none" stroke="#7a8389" d="M1120.26,-72C1142.47,-72 1173.93,-72 1197.64,-72"/>
<polygon fill="#7a8389" stroke="#7a8389" points="1197.73,-74.45 1204.73,-72 1197.73,-69.55 1197.73,-74.45"/>
</g>
<!-- course__STAT255&#45;&gt;choice_BIOL370_0_2 -->
<g id="edge19" class="edge">
<title>course__STAT255&#45;&gt;choice_BIOL370_0_2</title>
<path fill="none" stroke="#7a8389" d="M1120.26,-83.06C1142.57,-92.12 1174.2,-104.95 1197.94,-114.59"/>
<polygon fill="#7a8389" stroke="#7a8389" points="1197.32,-116.98 1204.73,-117.34 1199.16,-112.44 1197.32,-116.98"/>
</g>
<!-- course__BIOL330 -->
<g id="node14" class="node">
<title>course__BIOL330</title>
<g id="a_node14"><a xlink:href="../../../courses/BIOL330.html" xlink:title="BIOL330: Study Design and Data Analysis" target="_top">
<path fill="#dbe8d2" stroke="#1b2730" stroke-width="1.6" d="M1365,-116C1365,-116 1332,-116 1332,-116 1326,-116 1320,-110 1320,-104 1320,-104 1320,-92 1320,-92 1320,-86 1326,-80 1332,-80 1332,-80 1365,-80 1365,-80 1371,-80 1377,-86 1377,-92 1377,-92 1377,-104 1377,-104 1377,-110 1371,-116 1365,-116"/>
<text text-anchor="middle" x="1348.5" y="-95.5" font-family="Avenir Next" font-size="10.00" fill="#17232b">BIOL330</text>
</a>
</g>
</g>
<!-- choice_BIOL461_0_0 -->
<g id="node23" class="node">
<title>choice_BIOL461_0_0</title>
<path fill="#fff7ee" stroke="#b7793f" stroke-width="1.1" d="M1480,-116C1480,-116 1450,-116 1450,-116 1444,-116 1438,-110 1438,-104 1438,-104 1438,-92 1438,-92 1438,-86 1444,-80 1450,-80 1450,-80 1480,-80 1480,-80 1486,-80 1492,-86 1492,-92 1492,-92 1492,-104 1492,-104 1492,-110 1486,-116 1480,-116"/>
<text text-anchor="middle" x="1465" y="-95.8" font-family="Avenir Next" font-size="9.00">1 of</text>
</g>
<!-- course__BIOL330&#45;&gt;choice_BIOL461_0_0 -->
<g id="edge24" class="edge">
<title>course__BIOL330&#45;&gt;choice_BIOL461_0_0</title>
<path fill="none" stroke="#7a8389" d="M1377.22,-98C1393.32,-98 1413.71,-98 1430.68,-98"/>
<polygon fill="#7a8389" stroke="#7a8389" points="1430.72,-100.45 1437.72,-98 1430.72,-95.55 1430.72,-100.45"/>
</g>
<!-- course__BIOL370&#45;&gt;choice_BIOL461_0_0 -->
<g id="edge25" class="edge">
<title>course__BIOL370&#45;&gt;choice_BIOL461_0_0</title>
<path fill="none" stroke="#7a8389" d="M1368.66,-187.92C1388.15,-169.54 1418.41,-141.01 1439.59,-121.02"/>
<polygon fill="#7a8389" stroke="#7a8389" points="1441.36,-122.72 1444.77,-116.14 1438,-119.16 1441.36,-122.72"/>
</g>
<!-- course__BIOL461 -->
<g id="node16" class="node">
<title>course__BIOL461</title>
<g id="a_node16"><a xlink:href="../../../courses/BIOL461.html" xlink:title="BIOL461: Fisheries Ecology and Management" target="_top">
<path fill="#dbe8d2" stroke="#1f4f66" stroke-width="2" d="M1731,-65C1731,-65 1565,-65 1565,-65 1559,-65 1553,-59 1553,-53 1553,-53 1553,-41 1553,-41 1553,-35 1559,-29 1565,-29 1565,-29 1731,-29 1731,-29 1737,-29 1743,-35 1743,-41 1743,-41 1743,-53 1743,-53 1743,-59 1737,-65 1731,-65"/>
<text text-anchor="middle" x="1648" y="-50" font-family="Avenir Next" font-size="10.00" fill="#17232b">BIOL461</text>
<text text-anchor="middle" x="1648" y="-39" font-family="Avenir Next" font-size="10.00" fill="#17232b">Fisheries Ecology and Management</text>
</a>
</g>
</g>
<!-- BIOL461_notes -->
<g id="node17" class="node">
<title>BIOL461_notes</title>
<polygon fill="#fff7ee" stroke="#b7793f" stroke-width="1.1" points="216,-46 0,-46 0,0 222,0 222,-40 216,-46"/>
<polyline fill="none" stroke="#b7793f" stroke-width="1.1" points="216,-46 216,-40 "/>
<polyline fill="none" stroke="#b7793f" stroke-width="1.1" points="222,-40 216,-40 "/>
<text text-anchor="start" x="13" y="-26.4" font-family="Avenir Next" font-size="12.00">Published notes</text>
<text text-anchor="start" x="13" y="-13.4" font-family="Avenir Next" font-size="12.00">or permission of the department</text>
</g>
<!-- BIOL461_notes&#45;&gt;course__BIOL461 -->
<!-- choice_BIOL184_0_0&#45;&gt;course__BIOL184 -->
<g id="edge4" class="edge">
<title>choice_BIOL184_0_0&#45;&gt;course__BIOL184</title>
<path fill="none" stroke="#5d6972" stroke-width="1.2" d="M722.96,-334.28C665.38,-325.83 523.03,-303.65 406,-275 387.03,-270.36 366.2,-264.04 349.25,-258.58"/>
<polygon fill="#5d6972" stroke="#5d6972" stroke-width="1.2" points="349.66,-256.13 342.24,-256.3 348.14,-260.79 349.66,-256.13"/>
</g>
<!-- choice_BIOL186_0_0&#45;&gt;course__BIOL186 -->
<g id="edge7" class="edge">
<title>choice_BIOL186_0_0&#45;&gt;course__BIOL186</title>
<path fill="none" stroke="#5d6972" stroke-width="1.2" d="M460.28,-247C483.12,-247 516.36,-247 541.28,-247"/>
<polygon fill="#5d6972" stroke="#5d6972" stroke-width="1.2" points="541.39,-249.45 548.39,-247 541.39,-244.55 541.39,-249.45"/>
</g>
<!-- choice_BIOL330_0_0&#45;&gt;course__BIOL330 -->
<g id="edge17" class="edge">
<title>choice_BIOL330_0_0&#45;&gt;course__BIOL330</title>
<path fill="none" stroke="#5d6972" stroke-width="1.2" d="M1259.27,-77.96C1275.1,-81.56 1295.45,-86.18 1312.62,-90.08"/>
<polygon fill="#5d6972" stroke="#5d6972" stroke-width="1.2" points="1312.39,-92.54 1319.76,-91.7 1313.47,-87.76 1312.39,-92.54"/>
</g>
<!-- choice_BIOL330_0_2&#45;&gt;course__BIOL330 -->
<g id="edge18" class="edge">
<title>choice_BIOL330_0_2&#45;&gt;course__BIOL330</title>
<path fill="none" stroke="#5d6972" stroke-width="1.2" d="M1257,-165.97C1274.71,-152.67 1298.92,-134.49 1317.84,-120.28"/>
<polygon fill="#5d6972" stroke="#5d6972" stroke-width="1.2" points="1319.4,-122.17 1323.53,-116 1316.46,-118.25 1319.4,-122.17"/>
</g>
<!-- choice_BIOL370_0_2&#45;&gt;course__BIOL370 -->
<g id="edge23" class="edge">
<title>choice_BIOL370_0_2&#45;&gt;course__BIOL370</title>
<path fill="none" stroke="#5d6972" stroke-width="1.2" d="M1259.27,-145.89C1275.88,-157.21 1297.47,-171.92 1315.13,-183.95"/>
<polygon fill="#5d6972" stroke="#5d6972" stroke-width="1.2" points="1313.79,-186 1320.96,-187.92 1316.55,-181.95 1313.79,-186"/>
</g>
<!-- choice_BIOL461_0_0&#45;&gt;course__BIOL461 -->
<g id="edge26" class="edge">
<title>choice_BIOL461_0_0&#45;&gt;course__BIOL461</title>
<path fill="none" stroke="#5d6972" stroke-width="1.2" d="M1492.32,-90.58C1514.29,-84.39 1546.64,-75.28 1576.1,-66.98"/>
<polygon fill="#5d6972" stroke="#5d6972" stroke-width="1.2" points="1577.04,-69.26 1583.12,-65 1575.71,-64.54 1577.04,-69.26"/>
</g>
</g>
</svg>
