<?xml version="1.0" encoding="UTF-8" standalone="no"?>
<!DOCTYPE svg PUBLIC "-//W3C//DTD SVG 1.1//EN"
 "http://www.w3.org/Graphics/SVG/1.1/DTD/svg11.dtd">
<!-- Generated by graphviz version 2.43.0 (0)
 -->
<!-- Title: BIOL499B Pages: 1 -->
<svg width="269pt" height="79pt"
 viewBox="0.00 0.00 269.20 79.20" xmlns="http://www.w3.org/2000/svg" xmlns:xlink="http://www.w3.org/1999/xlink">
<g id="graph0" class="graph" transform="scale(1 1) rotate(0) translate(21.6 57.6)">
<title>BIOL499B</title>
<!-- course__BIOL499A -->
<g id="node1" class="node">
<title>course__BIOL499A</title>
<g id="a_node1"><a xlink:href="../../../courses/BIOL499A.html" xlink:title="BIOL499A: Honours Thesis I" target="_top">
<path fill="#dbe8d2" stroke="#1b2730" stroke-width="1.6" d="M52,-36C52,-36 12,-36 12,-36 6,-36 0,-30 0,-24 0,-24 0,-12 0,-12 0,-6 6,0 12,0 12,0 52,0 52,0 58,0 64,-6 64,-12 64,-12 64,-24 64,-24 64,-30 58,-36 52,-36"/>
<text text-anchor="middle" x="32" y="-15.5" font-family="Avenir Next" font-size="10.00" fill="#17232b">BIOL499A</text>
</a>
</g>
</g>
<!-- course__BIOL499B -->
<g id="node2" class="node">
<title>course__BIOL499B</title>
<g id="a_node2"><a xlink:href="../../../courses/BIOL499B.html" xlink:title="BIOL499B: Honours Thesis II" target="_top">
<path fill="#dbe8d2" stroke="#1f4f66" stroke-width="2" d="M214,-36C214,-36 137,-36 137,-36 131,-36 125,-30 125,-24 125,-24 125,-12 125,-12 125,-6 131,0 137,0 137,0 214,0 214,0 220,0 226,-6 226,-12 226,-12 226,-24 226,-24 226,-30 220,-36 214,-36"/>
<text text-anchor="middle" x="175.5" y="-21" font-family="Avenir Next" font-size="10.00" fill="#17232b">BIOL499B</text>
<text text-anchor="middle" x="175.5" y="-10" font-family="Avenir Next" font-size="10.00" fill="#17232b">Honours Thesis II</text>
</a>
</g>
</g>
<!-- course__BIOL499A&#45;&gt;course__BIOL499B -->
<g id="edge1" class="edge">
<title>course__BIOL499A&#45;&gt;course__BIOL499B</title>
<path fill="none" stroke="#5d6972" stroke-width="1.2" d="M64.05,-18C79.78,-18 99.38,-18 117.68,-18"/>
<polygon fill="#5d6972" stroke="#5d6972" stroke-width="1.2" points="117.89,-20.45 124.89,-18 117.89,-15.55 117.89,-20.45"/>
</g>
</g>
</svg>
