<?xml version="1.0" encoding="UTF-8" standalone="no"?>
<!DOCTYPE svg PUBLIC "-//W3C//DTD SVG 1.1//EN"
 "http://www.w3.org/Graphics/SVG/1.1/DTD/svg11.dtd">
<!-- Generated by graphviz version 2.43.0 (0)
 -->
<!-- Title: BIOL438 Pages: 1 -->
<svg width="571pt" height="177pt"
 viewBox="0.00 0.00 571.20 177.20" xmlns="http://www.w3.org/2000/svg" xmlns:xlink="http://www.w3.org/1999/xlink">
<g id="graph0" class="graph" transform="scale(1 1) rotate(0) translate(21.6 155.6)">
<title>BIOL438</title>
<!-- course__BIOL225 -->
<g id="node1" class="node">
<title>course__BIOL225</title>
<g id="a_node1"><a xlink:href="../../../courses/BIOL225.html" xlink:title="BIOL225: Principles of Cell Biology" target="_top">
<path fill="#dbe8d2" stroke="#1b2730" stroke-width="1.6" d="M45,-109C45,-109 12,-109 12,-109 6,-109 0,-103 0,-97 0,-97 0,-85 0,-85 0,-79 6,-73 12,-73 12,-73 45,-73 45,-73 51,-73 57,-79 57,-85 57,-85 57,-97 57,-97 57,-103 51,-109 45,-109"/>
<text text-anchor="middle" x="28.5" y="-88.5" font-family="Avenir Next" font-size="10.00" fill="#17232b">BIOL225</text>
</a>
</g>
</g>
<!-- course__BIOL230 -->
<g id="node3" class="node">
<title>course__BIOL230</title>
<g id="a_node3"><a xlink:href="../../../courses/BIOL230.html" xlink:title="BIOL230: Principles of Genetics" target="_top">
<path fill="#dbe8d2" stroke="#1b2730" stroke-width="1.6" d="M163,-134C163,-134 130,-134 130,-134 124,-134 118,-128 118,-122 118,-122 118,-110 118,-110 118,-104 124,-98 130,-98 130,-98 163,-98 163,-98 169,-98 175,-104 175,-110 175,-110 175,-122 175,-122 175,-128 169,-134 163,-134"/>
<text text-anchor="middle" x="146.5" y="-113.5" font-family="Avenir Next" font-size="10.00" fill="#17232b">BIOL230</text>
</a>
</g>
</g>
<!-- course__BIOL225&#45;&gt;course__BIOL230 -->
<g id="edge1" class="edge">
<title>course__BIOL225&#45;&gt;course__BIOL230</title>
<path fill="none" stroke="#5d6972" stroke-width="1.2" d="M57.28,-96.99C73.35,-100.45 93.72,-104.84 110.83,-108.53"/>
<polygon fill="#5d6972" stroke="#5d6972" stroke-width="1.2" points="110.58,-110.98 117.94,-110.06 111.62,-106.19 110.58,-110.98"/>
</g>
<!-- choice_BIOL438_0_0 -->
<g id="node5" class="node">
<title>choice_BIOL438_0_0</title>
<path fill="#fff7ee" stroke="#b7793f" stroke-width="1.1" d="M278,-85C278,-85 248,-85 248,-85 242,-85 236,-79 236,-73 236,-73 236,-61 236,-61 236,-55 242,-49 248,-49 248,-49 278,-49 278,-49 284,-49 290,-55 290,-61 290,-61 290,-73 290,-73 290,-79 284,-85 278,-85"/>
<text text-anchor="middle" x="263" y="-64.8" font-family="Avenir Next" font-size="9.00">2 of</text>
</g>
<!-- course__BIOL225&#45;&gt;choice_BIOL438_0_0 -->
<g id="edge3" class="edge">
<title>course__BIOL225&#45;&gt;choice_BIOL438_0_0</title>
<path fill="none" stroke="#7a8389" d="M57.08,-88.15C100.01,-83.72 182.67,-75.19 228.8,-70.43"/>
<polygon fill="#7a8389" stroke="#7a8389" points="229.17,-72.85 235.88,-69.7 228.67,-67.98 229.17,-72.85"/>
</g>
<!-- course__BIOL215 -->
<g id="node2" class="node">
<title>course__BIOL215</title>
<g id="a_node2"><a xlink:href="../../../courses/BIOL215.html" xlink:title="BIOL215: Principles of Ecology" target="_top">
<path fill="#dbe8d2" stroke="#1b2730" stroke-width="1.6" d="M163,-36C163,-36 130,-36 130,-36 124,-36 118,-30 118,-24 118,-24 118,-12 118,-12 118,-6 124,0 130,0 130,0 163,0 163,0 169,0 175,-6 175,-12 175,-12 175,-24 175,-24 175,-30 169,-36 163,-36"/>
<text text-anchor="middle" x="146.5" y="-15.5" font-family="Avenir Next" font-size="10.00" fill="#17232b">BIOL215</text>
</a>
</g>
</g>
<!-- course__BIOL215&#45;&gt;choice_BIOL438_0_0 -->
<g id="edge2" class="edge">
<title>course__BIOL215&#45;&gt;choice_BIOL438_0_0</title>
<path fill="none" stroke="#7a8389" d="M175.22,-29.86C191.46,-36.81 212.07,-45.63 229.13,-52.93"/>
<polygon fill="#7a8389" stroke="#7a8389" points="228.32,-55.25 235.72,-55.75 230.25,-50.75 228.32,-55.25"/>
</g>
<!-- course__BIOL230&#45;&gt;choice_BIOL438_0_0 -->
<g id="edge4" class="edge">
<title>course__BIOL230&#45;&gt;choice_BIOL438_0_0</title>
<path fill="none" stroke="#7a8389" d="M175.22,-104.14C191.46,-97.19 212.07,-88.37 229.13,-81.07"/>
<polygon fill="#7a8389" stroke="#7a8389" points="230.25,-83.25 235.72,-78.25 228.32,-78.75 230.25,-83.25"/>
</g>
<!-- course__BIOL438 -->
<g id="node4" class="node">
<title>course__BIOL438</title>
<g id="a_node4"><a xlink:href="../../../courses/BIOL438.html" xlink:title="BIOL438: Nutrient Cycling and Prokaryotes" target="_top">
<path fill="#dbe8d2" stroke="#1f4f66" stroke-width="2" d="M516,-85C516,-85 363,-85 363,-85 357,-85 351,-79 351,-73 351,-73 351,-61 351,-61 351,-55 357,-49 363,-49 363,-49 516,-49 516,-49 522,-49 528,-55 528,-61 528,-61 528,-73 528,-73 528,-79 522,-85 516,-85"/>
<text text-anchor="middle" x="439.5" y="-70" font-family="Avenir Next" font-size="10.00" fill="#17232b">BIOL438</text>
<text text-anchor="middle" x="439.5" y="-59" font-family="Avenir Next" font-size="10.00" fill="#17232b">Nutrient Cycling and Prokaryotes</text>
</a>
</g>
</g>
<!-- choice_BIOL438_0_0&#45;&gt;course__BIOL438 -->
<g id="edge5" class="edge">
<title>choice_BIOL438_0_0&#45;&gt;course__BIOL438</title>
<path fill="none" stroke="#5d6972" stroke-width="1.2" d="M290.12,-67C304.75,-67 323.99,-67 343.74,-67"/>
<polygon fill="#5d6972" stroke="#5d6972" stroke-width="1.2" points="343.74,-69.45 350.74,-67 343.74,-64.55 343.74,-69.45"/>
</g>
</g>
</svg>
