<?xml version="1.0" encoding="UTF-8" standalone="no"?>
<!DOCTYPE svg PUBLIC "-//W3C//DTD SVG 1.1//EN"
 "http://www.w3.org/Graphics/SVG/1.1/DTD/svg11.dtd">
<!-- Generated by graphviz version 2.43.0 (0)
 -->
<!-- Title: BIOL186 Pages: 1 -->
<svg width="452pt" height="191pt"
 viewBox="0.00 0.00 452.20 191.20" xmlns="http://www.w3.org/2000/svg" xmlns:xlink="http://www.w3.org/1999/xlink">
<g id="graph0" class="graph" transform="scale(1 1) rotate(0) translate(21.6 169.6)">
<title>BIOL186</title>
<!-- course__BIOL150A -->
<g id="node1" class="node">
<title>course__BIOL150A</title>
<g id="a_node1"><a xlink:href="../../../courses/BIOL150A.html" xlink:title="Collapsed in simplified view: BIOL150A: Modern Biology | BIOL184: Evolution and Biodiversity" target="_top">
<path fill="#dbe8d2" stroke="#1b2730" stroke-width="1.6" d="M66,-92C66,-92 12,-92 12,-92 6,-92 0,-86 0,-80 0,-80 0,-68 0,-68 0,-62 6,-56 12,-56 12,-56 66,-56 66,-56 72,-56 78,-62 78,-68 78,-68 78,-80 78,-80 78,-86 72,-92 66,-92"/>
<text text-anchor="middle" x="39" y="-71.5" font-family="Avenir Next" font-size="10.00" fill="#17232b">Intro biology</text>
</a>
</g>
</g>
<!-- course__BIOL186 -->
<g id="node2" class="node">
<title>course__BIOL186</title>
<g id="a_node2"><a xlink:href="../../../courses/BIOL186.html" xlink:title="BIOL186: Physiology and Cell Biology" target="_top">
<path fill="#dbe8d2" stroke="#1f4f66" stroke-width="2" d="M279,-92C279,-92 151,-92 151,-92 145,-92 139,-86 139,-80 139,-80 139,-68 139,-68 139,-62 145,-56 151,-56 151,-56 279,-56 279,-56 285,-56 291,-62 291,-68 291,-68 291,-80 291,-80 291,-86 285,-92 279,-92"/>
<text text-anchor="middle" x="215" y="-77" font-family="Avenir Next" font-size="10.00" fill="#17232b">BIOL186</text>
<text text-anchor="middle" x="215" y="-66" font-family="Avenir Next" font-size="10.00" fill="#17232b">Physiology and Cell Biology</text>
</a>
</g>
</g>
<!-- course__BIOL150A&#45;&gt;course__BIOL186 -->
<g id="edge2" class="edge">
<title>course__BIOL150A&#45;&gt;course__BIOL186</title>
<path fill="none" stroke="#5d6972" stroke-width="1.2" d="M78.19,-67.67C93.91,-66.82 112.77,-66.44 131.37,-66.51"/>
<polygon fill="#5d6972" stroke="#5d6972" stroke-width="1.2" points="131.73,-68.96 138.75,-66.56 131.77,-64.06 131.73,-68.96"/>
</g>
<!-- course__BIOL225 -->
<g id="node4" class="node">
<title>course__BIOL225</title>
<g id="a_node4"><a xlink:href="../../../courses/BIOL225.html" xlink:title="BIOL225: Principles of Cell Biology" target="_top">
<path fill="#dbe8d2" stroke="#1b2730" stroke-width="1.6" d="M231.5,-36C231.5,-36 198.5,-36 198.5,-36 192.5,-36 186.5,-30 186.5,-24 186.5,-24 186.5,-12 186.5,-12 186.5,-6 192.5,0 198.5,0 198.5,0 231.5,0 231.5,0 237.5,0 243.5,-6 243.5,-12 243.5,-12 243.5,-24 243.5,-24 243.5,-30 237.5,-36 231.5,-36"/>
<text text-anchor="middle" x="215" y="-15.5" font-family="Avenir Next" font-size="10.00" fill="#17232b">BIOL225</text>
</a>
</g>
</g>
<!-- course__BIOL150A&#45;&gt;course__BIOL225 -->
<g id="edge4" class="edge">
<title>course__BIOL150A&#45;&gt;course__BIOL225</title>
<path fill="none" stroke="#5d6972" stroke-width="1.2" d="M78.19,-61.71C108.47,-51.96 150.42,-38.46 179.66,-29.05"/>
<polygon fill="#5d6972" stroke="#5d6972" stroke-width="1.2" points="180.52,-31.35 186.43,-26.87 179.02,-26.69 180.52,-31.35"/>
</g>
<!-- course__BIOL186&#45;&gt;course__BIOL150A -->
<g id="edge1" class="edge">
<title>course__BIOL186&#45;&gt;course__BIOL150A</title>
<path fill="none" stroke="#5d6972" stroke-width="1.2" d="M138.75,-81.44C120.61,-81.63 101.78,-81.38 85.48,-80.68"/>
<polygon fill="#5d6972" stroke="#5d6972" stroke-width="1.2" points="85.29,-78.22 78.19,-80.33 85.06,-83.12 85.29,-78.22"/>
</g>
<!-- course__BIOL186&#45;&gt;course__BIOL225 -->
<g id="edge3" class="edge">
<title>course__BIOL186&#45;&gt;course__BIOL225</title>
<path fill="none" stroke="#5d6972" stroke-width="1.2" d="M215,-55.78C215,-51.73 215,-47.69 215,-43.65"/>
<polygon fill="#5d6972" stroke="#5d6972" stroke-width="1.2" points="217.45,-43.37 215,-36.38 212.55,-43.38 217.45,-43.37"/>
</g>
<!-- course__BIOL215 -->
<g id="node3" class="node">
<title>course__BIOL215</title>
<g id="a_node3"><a xlink:href="../../../courses/BIOL215.html" xlink:title="BIOL215: Principles of Ecology" target="_top">
<path fill="#dbe8d2" stroke="#1b2730" stroke-width="1.6" d="M231.5,-148C231.5,-148 198.5,-148 198.5,-148 192.5,-148 186.5,-142 186.5,-136 186.5,-136 186.5,-124 186.5,-124 186.5,-118 192.5,-112 198.5,-112 198.5,-112 231.5,-112 231.5,-112 237.5,-112 243.5,-118 243.5,-124 243.5,-124 243.5,-136 243.5,-136 243.5,-142 237.5,-148 231.5,-148"/>
<text text-anchor="middle" x="215" y="-127.5" font-family="Avenir Next" font-size="10.00" fill="#17232b">BIOL215</text>
</a>
</g>
</g>
<!-- course__BIOL370 -->
<g id="node6" class="node">
<title>course__BIOL370</title>
<g id="a_node6"><a xlink:href="../../../courses/BIOL370.html" xlink:title="BIOL370: Conservation Biology" target="_top">
<path fill="#dbe8d2" stroke="#1b2730" stroke-width="1.6" d="M397,-148C397,-148 364,-148 364,-148 358,-148 352,-142 352,-136 352,-136 352,-124 352,-124 352,-118 358,-112 364,-112 364,-112 397,-112 397,-112 403,-112 409,-118 409,-124 409,-124 409,-136 409,-136 409,-142 403,-148 397,-148"/>
<text text-anchor="middle" x="380.5" y="-127.5" font-family="Avenir Next" font-size="10.00" fill="#17232b">BIOL370</text>
</a>
</g>
</g>
<!-- course__BIOL215&#45;&gt;course__BIOL370 -->
<g id="edge6" class="edge">
<title>course__BIOL215&#45;&gt;course__BIOL370</title>
<path fill="none" stroke="#5d6972" stroke-width="1.2" d="M243.74,-130C271.54,-130 314.42,-130 344.54,-130"/>
<polygon fill="#5d6972" stroke="#5d6972" stroke-width="1.2" points="344.9,-132.45 351.9,-130 344.9,-127.55 344.9,-132.45"/>
</g>
<!-- course__BIOL321 -->
<g id="node5" class="node">
<title>course__BIOL321</title>
<g id="a_node5"><a xlink:href="../../../courses/BIOL321.html" xlink:title="BIOL321: Survey of Invertebrates" target="_top">
<path fill="#dbe8d2" stroke="#1b2730" stroke-width="1.6" d="M397,-36C397,-36 364,-36 364,-36 358,-36 352,-30 352,-24 352,-24 352,-12 352,-12 352,-6 358,0 364,0 364,0 397,0 397,0 403,0 409,-6 409,-12 409,-12 409,-24 409,-24 409,-30 403,-36 397,-36"/>
<text text-anchor="middle" x="380.5" y="-15.5" font-family="Avenir Next" font-size="10.00" fill="#17232b">BIOL321</text>
</a>
</g>
</g>
<!-- course__BIOL225&#45;&gt;course__BIOL321 -->
<g id="edge5" class="edge">
<title>course__BIOL225&#45;&gt;course__BIOL321</title>
<path fill="none" stroke="#5d6972" stroke-width="1.2" d="M243.74,-18C271.54,-18 314.42,-18 344.54,-18"/>
<polygon fill="#5d6972" stroke="#5d6972" stroke-width="1.2" points="344.9,-20.45 351.9,-18 344.9,-15.55 344.9,-20.45"/>
</g>
</g>
</svg>
