<?xml version="1.0" encoding="UTF-8" standalone="no"?>
<!DOCTYPE svg PUBLIC "-//W3C//DTD SVG 1.1//EN"
 "http://www.w3.org/Graphics/SVG/1.1/DTD/svg11.dtd">
<!-- Generated by graphviz version 2.43.0 (0)
 -->
<!-- Title: BIOL150A Pages: 1 -->
<svg width="1304pt" height="768pt"
 viewBox="0.00 0.00 1304.20 768.20" xmlns="http://www.w3.org/2000/svg" xmlns:xlink="http://www.w3.org/1999/xlink">
<g id="graph0" class="graph" transform="scale(1 1) rotate(0) translate(21.6 746.6)">
<title>BIOL150A</title>
<!-- course__BIOL150A -->
<g id="node1" class="node">
<title>course__BIOL150A</title>
<g id="a_node1"><a xlink:href="../../../courses/BIOL150A.html" xlink:title="BIOL150A: Modern Biology" target="_top">
<path fill="#dbe8d2" stroke="#1f4f66" stroke-width="2" d="M81,-676C81,-676 12,-676 12,-676 6,-676 0,-670 0,-664 0,-664 0,-652 0,-652 0,-646 6,-640 12,-640 12,-640 81,-640 81,-640 87,-640 93,-646 93,-652 93,-652 93,-664 93,-664 93,-670 87,-676 81,-676"/>
<text text-anchor="middle" x="46.5" y="-661" font-family="Avenir Next" font-size="10.00" fill="#17232b">BIOL150A</text>
<text text-anchor="middle" x="46.5" y="-650" font-family="Avenir Next" font-size="10.00" fill="#17232b">Modern Biology</text>
</a>
</g>
</g>
<!-- choice_BIOL184_0_0 -->
<g id="node23" class="node">
<title>choice_BIOL184_0_0</title>
<path fill="#fff7ee" stroke="#b7793f" stroke-width="1.1" d="M196,-725C196,-725 166,-725 166,-725 160,-725 154,-719 154,-713 154,-713 154,-701 154,-701 154,-695 160,-689 166,-689 166,-689 196,-689 196,-689 202,-689 208,-695 208,-701 208,-701 208,-713 208,-713 208,-719 202,-725 196,-725"/>
<text text-anchor="middle" x="181" y="-704.8" font-family="Avenir Next" font-size="9.00">1 of</text>
</g>
<!-- course__BIOL150A&#45;&gt;choice_BIOL184_0_0 -->
<g id="edge2" class="edge">
<title>course__BIOL150A&#45;&gt;choice_BIOL184_0_0</title>
<path fill="none" stroke="#7a8389" d="M93.1,-674.86C110.78,-681.4 130.65,-688.75 146.92,-694.77"/>
<polygon fill="#7a8389" stroke="#7a8389" points="146.24,-697.13 153.66,-697.26 147.94,-692.53 146.24,-697.13"/>
</g>
<!-- choice_BIOL186_0_0 -->
<g id="node24" class="node">
<title>choice_BIOL186_0_0</title>
<path fill="#fff7ee" stroke="#b7793f" stroke-width="1.1" d="M429,-683C429,-683 399,-683 399,-683 393,-683 387,-677 387,-671 387,-671 387,-659 387,-659 387,-653 393,-647 399,-647 399,-647 429,-647 429,-647 435,-647 441,-653 441,-659 441,-659 441,-671 441,-671 441,-677 435,-683 429,-683"/>
<text text-anchor="middle" x="414" y="-662.8" font-family="Avenir Next" font-size="9.00">1 of</text>
</g>
<!-- course__BIOL150A&#45;&gt;choice_BIOL186_0_0 -->
<g id="edge5" class="edge">
<title>course__BIOL150A&#45;&gt;choice_BIOL186_0_0</title>
<path fill="none" stroke="#7a8389" d="M93.05,-658.87C167.49,-660.3 313.51,-663.09 379.37,-664.36"/>
<polygon fill="#7a8389" stroke="#7a8389" points="379.57,-666.81 386.62,-664.49 379.67,-661.91 379.57,-666.81"/>
</g>
<!-- choice_EOS330_0_1_2 -->
<g id="node31" class="node">
<title>choice_EOS330_0_1_2</title>
<path fill="#fff7ee" stroke="#b7793f" stroke-width="1.1" d="M429,-375C429,-375 399,-375 399,-375 393,-375 387,-369 387,-363 387,-363 387,-351 387,-351 387,-345 393,-339 399,-339 399,-339 429,-339 429,-339 435,-339 441,-345 441,-351 441,-351 441,-363 441,-363 441,-369 435,-375 429,-375"/>
<text text-anchor="middle" x="414" y="-354.8" font-family="Avenir Next" font-size="9.00">1 of</text>
</g>
<!-- course__BIOL150A&#45;&gt;choice_EOS330_0_1_2 -->
<g id="edge43" class="edge">
<title>course__BIOL150A&#45;&gt;choice_EOS330_0_1_2</title>
<path fill="none" stroke="#7a8389" d="M69.54,-639.85C132.89,-587.68 315.41,-437.37 385.31,-379.81"/>
<polygon fill="#7a8389" stroke="#7a8389" points="387.08,-381.52 390.93,-375.17 383.97,-377.73 387.08,-381.52"/>
</g>
<!-- course__BIOL186 -->
<g id="node2" class="node">
<title>course__BIOL186</title>
<g id="a_node2"><a xlink:href="../../../courses/BIOL186.html" xlink:title="BIOL186: Physiology and Cell Biology" target="_top">
<path fill="#dbe8d2" stroke="#1b2730" stroke-width="1.6" d="M547,-683C547,-683 514,-683 514,-683 508,-683 502,-677 502,-671 502,-671 502,-659 502,-659 502,-653 508,-647 514,-647 514,-647 547,-647 547,-647 553,-647 559,-653 559,-659 559,-659 559,-671 559,-671 559,-677 553,-683 547,-683"/>
<text text-anchor="middle" x="530.5" y="-662.5" font-family="Avenir Next" font-size="10.00" fill="#17232b">BIOL186</text>
</a>
</g>
</g>
<!-- course__BIOL225 -->
<g id="node6" class="node">
<title>course__BIOL225</title>
<g id="a_node6"><a xlink:href="../../../courses/BIOL225.html" xlink:title="BIOL225: Principles of Cell Biology" target="_top">
<path fill="#dbe8d2" stroke="#7e8d96" d="M313.5,-550C313.5,-550 281.5,-550 281.5,-550 275.5,-550 269.5,-544 269.5,-538 269.5,-538 269.5,-526 269.5,-526 269.5,-520 275.5,-514 281.5,-514 281.5,-514 313.5,-514 313.5,-514 319.5,-514 325.5,-520 325.5,-526 325.5,-526 325.5,-538 325.5,-538 325.5,-544 319.5,-550 313.5,-550"/>
<text text-anchor="middle" x="297.5" y="-529.8" font-family="Avenir Next" font-size="9.00" fill="#41515b">BIOL225</text>
</a>
</g>
</g>
<!-- course__BIOL186&#45;&gt;course__BIOL225 -->
<g id="edge8" class="edge">
<title>course__BIOL186&#45;&gt;course__BIOL225</title>
<path fill="none" stroke="#5d6972" stroke-width="1.2" d="M501.76,-651.39C472.72,-636.91 426.02,-612.99 387,-590 367.97,-578.79 347.29,-565.32 330.71,-554.18"/>
<polygon fill="#5d6972" stroke="#5d6972" stroke-width="1.2" points="331.98,-552.07 324.8,-550.19 329.23,-556.13 331.98,-552.07"/>
</g>
<!-- course__BIOL186&#45;&gt;choice_BIOL184_0_0 -->
<g id="edge3" class="edge">
<title>course__BIOL186&#45;&gt;choice_BIOL184_0_0</title>
<path fill="none" stroke="#7a8389" d="M501.66,-675.8C484.46,-681.97 461.77,-689.22 441,-693 361.15,-707.55 265.34,-708.55 215.64,-707.87"/>
<polygon fill="#7a8389" stroke="#7a8389" points="215.39,-705.42 208.36,-707.75 215.32,-710.31 215.39,-705.42"/>
</g>
<!-- course__EOS330 -->
<g id="node3" class="node">
<title>course__EOS330</title>
<g id="a_node3"><a xlink:href="../../../courses/EOS330.html" xlink:title="EOS330: Paleobiology" target="_top">
<path fill="#d7e9ef" stroke="#1b2730" stroke-width="1.6" d="M545.5,-375C545.5,-375 515.5,-375 515.5,-375 509.5,-375 503.5,-369 503.5,-363 503.5,-363 503.5,-351 503.5,-351 503.5,-345 509.5,-339 515.5,-339 515.5,-339 545.5,-339 545.5,-339 551.5,-339 557.5,-345 557.5,-351 557.5,-351 557.5,-363 557.5,-363 557.5,-369 551.5,-375 545.5,-375"/>
<text text-anchor="middle" x="530.5" y="-354.5" font-family="Avenir Next" font-size="10.00" fill="#17232b">EOS330</text>
</a>
</g>
</g>
<!-- choice_BIOL457_0_0 -->
<g id="node29" class="node">
<title>choice_BIOL457_0_0</title>
<path fill="#fff7ee" stroke="#b7793f" stroke-width="1.1" d="M662,-361C662,-361 632,-361 632,-361 626,-361 620,-355 620,-349 620,-349 620,-337 620,-337 620,-331 626,-325 632,-325 632,-325 662,-325 662,-325 668,-325 674,-331 674,-337 674,-337 674,-349 674,-349 674,-355 668,-361 662,-361"/>
<text text-anchor="middle" x="647" y="-340.8" font-family="Avenir Next" font-size="9.00">1 of</text>
</g>
<!-- course__EOS330&#45;&gt;choice_BIOL457_0_0 -->
<g id="edge36" class="edge">
<title>course__EOS330&#45;&gt;choice_BIOL457_0_0</title>
<path fill="none" stroke="#7a8389" d="M557.77,-353.79C574.06,-351.8 595.14,-349.22 612.61,-347.08"/>
<polygon fill="#7a8389" stroke="#7a8389" points="613.2,-349.48 619.85,-346.2 612.61,-344.61 613.2,-349.48"/>
</g>
<!-- course__BIOL184 -->
<g id="node4" class="node">
<title>course__BIOL184</title>
<g id="a_node4"><a xlink:href="../../../courses/BIOL184.html" xlink:title="BIOL184: Evolution and Biodiversity" target="_top">
<path fill="#dbe8d2" stroke="#1b2730" stroke-width="1.6" d="M314,-620C314,-620 281,-620 281,-620 275,-620 269,-614 269,-608 269,-608 269,-596 269,-596 269,-590 275,-584 281,-584 281,-584 314,-584 314,-584 320,-584 326,-590 326,-596 326,-596 326,-608 326,-608 326,-614 320,-620 314,-620"/>
<text text-anchor="middle" x="297.5" y="-599.5" font-family="Avenir Next" font-size="10.00" fill="#17232b">BIOL184</text>
</a>
</g>
</g>
<!-- course__BIOL184&#45;&gt;course__BIOL225 -->
<g id="edge9" class="edge">
<title>course__BIOL184&#45;&gt;course__BIOL225</title>
<path fill="none" stroke="#5d6972" stroke-width="1.2" d="M297.5,-583.74C297.5,-574.87 297.5,-566.01 297.5,-557.15"/>
<polygon fill="#5d6972" stroke="#5d6972" stroke-width="1.2" points="299.95,-557.05 297.5,-550.05 295.05,-557.05 299.95,-557.05"/>
</g>
<!-- course__BIOL184&#45;&gt;choice_BIOL186_0_0 -->
<g id="edge6" class="edge">
<title>course__BIOL184&#45;&gt;choice_BIOL186_0_0</title>
<path fill="none" stroke="#7a8389" d="M326.22,-617.25C342.6,-626.27 363.44,-637.73 380.58,-647.16"/>
<polygon fill="#7a8389" stroke="#7a8389" points="379.4,-649.31 386.72,-650.54 381.77,-645.02 379.4,-649.31"/>
</g>
<!-- course__BIOL184&#45;&gt;choice_EOS330_0_1_2 -->
<g id="edge44" class="edge">
<title>course__BIOL184&#45;&gt;choice_EOS330_0_1_2</title>
<path fill="none" stroke="#7a8389" d="M311.54,-583.61C316.37,-576.42 321.72,-567.99 326,-560 359.18,-498.13 389.41,-420.91 403.93,-381.96"/>
<polygon fill="#7a8389" stroke="#7a8389" points="406.32,-382.55 406.45,-375.14 401.72,-380.85 406.32,-382.55"/>
</g>
<!-- course__BIOL215 -->
<g id="node5" class="node">
<title>course__BIOL215</title>
<g id="a_node5"><a xlink:href="../../../courses/BIOL215.html" xlink:title="BIOL215: Principles of Ecology" target="_top">
<path fill="#dbe8d2" stroke="#7e8d96" d="M313.5,-179C313.5,-179 281.5,-179 281.5,-179 275.5,-179 269.5,-173 269.5,-167 269.5,-167 269.5,-155 269.5,-155 269.5,-149 275.5,-143 281.5,-143 281.5,-143 313.5,-143 313.5,-143 319.5,-143 325.5,-149 325.5,-155 325.5,-155 325.5,-167 325.5,-167 325.5,-173 319.5,-179 313.5,-179"/>
<text text-anchor="middle" x="297.5" y="-158.8" font-family="Avenir Next" font-size="9.00" fill="#41515b">BIOL215</text>
</a>
</g>
</g>
<!-- course__BIOL335 -->
<g id="node10" class="node">
<title>course__BIOL335</title>
<g id="a_node10"><a xlink:href="../../../courses/BIOL335.html" xlink:title="BIOL335: Ichthyology" target="_top">
<path fill="#dbe8d2" stroke="#7e8d96" d="M782,-207C782,-207 750,-207 750,-207 744,-207 738,-201 738,-195 738,-195 738,-183 738,-183 738,-177 744,-171 750,-171 750,-171 782,-171 782,-171 788,-171 794,-177 794,-183 794,-183 794,-195 794,-195 794,-201 788,-207 782,-207"/>
<text text-anchor="middle" x="766" y="-186.8" font-family="Avenir Next" font-size="9.00" fill="#41515b">BIOL335</text>
</a>
</g>
</g>
<!-- course__BIOL215&#45;&gt;course__BIOL335 -->
<g id="edge19" class="edge">
<title>course__BIOL215&#45;&gt;course__BIOL335</title>
<path fill="none" stroke="#5d6972" stroke-width="1.2" d="M325.6,-162.63C405.79,-167.44 641.88,-181.61 730.69,-186.94"/>
<polygon fill="#5d6972" stroke="#5d6972" stroke-width="1.2" points="730.69,-189.4 737.83,-187.37 730.99,-184.5 730.69,-189.4"/>
</g>
<!-- course__BIOL418 -->
<g id="node11" class="node">
<title>course__BIOL418</title>
<g id="a_node11"><a xlink:href="../../../courses/BIOL418.html" xlink:title="BIOL418: Forest Ecology" target="_top">
<path fill="#dbe8d2" stroke="#7e8d96" d="M782,-151C782,-151 750,-151 750,-151 744,-151 738,-145 738,-139 738,-139 738,-127 738,-127 738,-121 744,-115 750,-115 750,-115 782,-115 782,-115 788,-115 794,-121 794,-127 794,-127 794,-139 794,-139 794,-145 788,-151 782,-151"/>
<text text-anchor="middle" x="766" y="-130.8" font-family="Avenir Next" font-size="9.00" fill="#41515b">BIOL418</text>
</a>
</g>
</g>
<!-- course__BIOL215&#45;&gt;course__BIOL418 -->
<g id="edge23" class="edge">
<title>course__BIOL215&#45;&gt;course__BIOL418</title>
<path fill="none" stroke="#5d6972" stroke-width="1.2" d="M325.6,-159.37C405.79,-154.56 641.88,-140.39 730.69,-135.06"/>
<polygon fill="#5d6972" stroke="#5d6972" stroke-width="1.2" points="730.99,-137.5 737.83,-134.63 730.69,-132.6 730.99,-137.5"/>
</g>
<!-- course__BIOL319 -->
<g id="node13" class="node">
<title>course__BIOL319</title>
<g id="a_node13"><a xlink:href="../../../courses/BIOL319.html" xlink:title="BIOL319: Marine Ecology" target="_top">
<path fill="#dbe8d2" stroke="#7e8d96" d="M1017,-377C1017,-377 985,-377 985,-377 979,-377 973,-371 973,-365 973,-365 973,-353 973,-353 973,-347 979,-341 985,-341 985,-341 1017,-341 1017,-341 1023,-341 1029,-347 1029,-353 1029,-353 1029,-365 1029,-365 1029,-371 1023,-377 1017,-377"/>
<text text-anchor="middle" x="1001" y="-356.8" font-family="Avenir Next" font-size="9.00" fill="#41515b">BIOL319</text>
</a>
</g>
</g>
<!-- course__BIOL215&#45;&gt;course__BIOL319 -->
<g id="edge11" class="edge">
<title>course__BIOL215&#45;&gt;course__BIOL319</title>
<path fill="none" stroke="#5d6972" stroke-width="1.2" d="M325.87,-168.72C343.29,-173.49 366.37,-179.52 387,-184 502.75,-209.14 806.12,-222.91 912,-276 919.68,-279.85 953.49,-312.69 976.89,-335.88"/>
<polygon fill="#5d6972" stroke="#5d6972" stroke-width="1.2" points="975.32,-337.77 982.01,-340.96 978.77,-334.29 975.32,-337.77"/>
</g>
<!-- course__BIOL370 -->
<g id="node17" class="node">
<title>course__BIOL370</title>
<g id="a_node17"><a xlink:href="../../../courses/BIOL370.html" xlink:title="BIOL370: Conservation Biology" target="_top">
<path fill="#dbe8d2" stroke="#7e8d96" d="M1017,-263C1017,-263 985,-263 985,-263 979,-263 973,-257 973,-251 973,-251 973,-239 973,-239 973,-233 979,-227 985,-227 985,-227 1017,-227 1017,-227 1023,-227 1029,-233 1029,-239 1029,-239 1029,-251 1029,-251 1029,-257 1023,-263 1017,-263"/>
<text text-anchor="middle" x="1001" y="-242.8" font-family="Avenir Next" font-size="9.00" fill="#41515b">BIOL370</text>
</a>
</g>
</g>
<!-- course__BIOL215&#45;&gt;course__BIOL370 -->
<g id="edge21" class="edge">
<title>course__BIOL215&#45;&gt;course__BIOL370</title>
<path fill="none" stroke="#5d6972" stroke-width="1.2" d="M317.76,-142.93C355.35,-109.64 442.43,-42 529.5,-42 529.5,-42 529.5,-42 767,-42 794.1,-42 923.58,-168.47 976.94,-221.76"/>
<polygon fill="#5d6972" stroke="#5d6972" stroke-width="1.2" points="975.48,-223.77 982.16,-226.99 978.94,-220.3 975.48,-223.77"/>
</g>
<!-- choice_BIOL330_0_2 -->
<g id="node25" class="node">
<title>choice_BIOL330_0_2</title>
<path fill="#fff7ee" stroke="#b7793f" stroke-width="1.1" d="M900,-207C900,-207 870,-207 870,-207 864,-207 858,-201 858,-195 858,-195 858,-183 858,-183 858,-177 864,-171 870,-171 870,-171 900,-171 900,-171 906,-171 912,-177 912,-183 912,-183 912,-195 912,-195 912,-201 906,-207 900,-207"/>
<text text-anchor="middle" x="885" y="-186.8" font-family="Avenir Next" font-size="9.00">1 of</text>
</g>
<!-- course__BIOL215&#45;&gt;choice_BIOL330_0_2 -->
<g id="edge15" class="edge">
<title>course__BIOL215&#45;&gt;choice_BIOL330_0_2</title>
<path fill="none" stroke="#7a8389" d="M325.61,-145.6C367.8,-123.13 452.35,-84 529.5,-84 529.5,-84 529.5,-84 648,-84 714.88,-84 736.9,-75.67 797,-105 825.51,-118.91 850.67,-145.66 866.51,-165.25"/>
<polygon fill="#7a8389" stroke="#7a8389" points="864.65,-166.85 870.92,-170.82 868.49,-163.81 864.65,-166.85"/>
</g>
<!-- choice_BIOL438_0_0 -->
<g id="node27" class="node">
<title>choice_BIOL438_0_0</title>
<path fill="#fff7ee" stroke="#b7793f" stroke-width="1.1" d="M900,-322C900,-322 870,-322 870,-322 864,-322 858,-316 858,-310 858,-310 858,-298 858,-298 858,-292 864,-286 870,-286 870,-286 900,-286 900,-286 906,-286 912,-292 912,-298 912,-298 912,-310 912,-310 912,-316 906,-322 900,-322"/>
<text text-anchor="middle" x="885" y="-301.8" font-family="Avenir Next" font-size="9.00">2 of</text>
</g>
<!-- course__BIOL215&#45;&gt;choice_BIOL438_0_0 -->
<g id="edge28" class="edge">
<title>course__BIOL215&#45;&gt;choice_BIOL438_0_0</title>
<path fill="none" stroke="#7a8389" d="M312.96,-179.18C328.93,-197.84 356.46,-226.05 387,-240 548.51,-313.76 768.38,-310.59 850.9,-306.27"/>
<polygon fill="#7a8389" stroke="#7a8389" points="851.14,-308.71 858,-305.88 850.87,-303.82 851.14,-308.71"/>
</g>
<!-- choice_BIOL446_0_0 -->
<g id="node28" class="node">
<title>choice_BIOL446_0_0</title>
<path fill="#fff7ee" stroke="#b7793f" stroke-width="1.1" d="M1132,-85C1132,-85 1102,-85 1102,-85 1096,-85 1090,-79 1090,-73 1090,-73 1090,-61 1090,-61 1090,-55 1096,-49 1102,-49 1102,-49 1132,-49 1132,-49 1138,-49 1144,-55 1144,-61 1144,-61 1144,-73 1144,-73 1144,-79 1138,-85 1132,-85"/>
<text text-anchor="middle" x="1117" y="-64.8" font-family="Avenir Next" font-size="9.00">1 of</text>
</g>
<!-- course__BIOL215&#45;&gt;choice_BIOL446_0_0 -->
<g id="edge32" class="edge">
<title>course__BIOL215&#45;&gt;choice_BIOL446_0_0</title>
<path fill="none" stroke="#7a8389" d="M310.26,-142.88C325.58,-120.51 354.28,-82.57 387,-59 442.62,-18.93 460.95,0 529.5,0 529.5,0 529.5,0 886,0 958.79,0 1039.55,-31.31 1083.36,-51.13"/>
<polygon fill="#7a8389" stroke="#7a8389" points="1082.43,-53.39 1089.81,-54.08 1084.47,-48.94 1082.43,-53.39"/>
</g>
<!-- course__BIOL215&#45;&gt;choice_BIOL457_0_0 -->
<g id="edge35" class="edge">
<title>course__BIOL215&#45;&gt;choice_BIOL457_0_0</title>
<path fill="none" stroke="#7a8389" d="M306.73,-179.37C319.75,-206.26 347.73,-255.98 387,-282 405.82,-294.47 546.89,-323.46 612.56,-336.47"/>
<polygon fill="#7a8389" stroke="#7a8389" points="612.46,-338.95 619.81,-337.9 613.41,-334.14 612.46,-338.95"/>
</g>
<!-- course__BIOC300A -->
<g id="node7" class="node">
<title>course__BIOC300A</title>
<g id="a_node7"><a xlink:href="../../../courses/BIOC300A.html" xlink:title="BIOC300A: General Biochemistry I" target="_top">
<path fill="#e2e8d5" stroke="#7e8d96" d="M785,-620C785,-620 747,-620 747,-620 741,-620 735,-614 735,-608 735,-608 735,-596 735,-596 735,-590 741,-584 747,-584 747,-584 785,-584 785,-584 791,-584 797,-590 797,-596 797,-596 797,-608 797,-608 797,-614 791,-620 785,-620"/>
<text text-anchor="middle" x="766" y="-599.8" font-family="Avenir Next" font-size="9.00" fill="#41515b">BIOC300A</text>
</a>
</g>
</g>
<!-- course__BIOL225&#45;&gt;course__BIOC300A -->
<g id="edge1" class="edge">
<title>course__BIOL225&#45;&gt;course__BIOC300A</title>
<path fill="none" stroke="#5d6972" stroke-width="1.2" d="M325.51,-538.37C342.98,-542.34 366.26,-547.38 387,-551 511.31,-572.7 660,-590.35 727.89,-597.96"/>
<polygon fill="#5d6972" stroke="#5d6972" stroke-width="1.2" points="727.76,-600.41 734.99,-598.75 728.3,-595.54 727.76,-600.41"/>
</g>
<!-- course__BIOL230 -->
<g id="node8" class="node">
<title>course__BIOL230</title>
<g id="a_node8"><a xlink:href="../../../courses/BIOL230.html" xlink:title="BIOL230: Principles of Genetics" target="_top">
<path fill="#dbe8d2" stroke="#7e8d96" d="M782,-508C782,-508 750,-508 750,-508 744,-508 738,-502 738,-496 738,-496 738,-484 738,-484 738,-478 744,-472 750,-472 750,-472 782,-472 782,-472 788,-472 794,-478 794,-484 794,-484 794,-496 794,-496 794,-502 788,-508 782,-508"/>
<text text-anchor="middle" x="766" y="-487.8" font-family="Avenir Next" font-size="9.00" fill="#41515b">BIOL230</text>
</a>
</g>
</g>
<!-- course__BIOL225&#45;&gt;course__BIOL230 -->
<g id="edge10" class="edge">
<title>course__BIOL225&#45;&gt;course__BIOL230</title>
<path fill="none" stroke="#5d6972" stroke-width="1.2" d="M325.6,-529.56C405.79,-522.34 641.88,-501.08 730.69,-493.09"/>
<polygon fill="#5d6972" stroke="#5d6972" stroke-width="1.2" points="731.08,-495.51 737.83,-492.45 730.64,-490.63 731.08,-495.51"/>
</g>
<!-- course__BIOL321 -->
<g id="node9" class="node">
<title>course__BIOL321</title>
<g id="a_node9"><a xlink:href="../../../courses/BIOL321.html" xlink:title="BIOL321: Survey of Invertebrates" target="_top">
<path fill="#dbe8d2" stroke="#7e8d96" d="M782,-564C782,-564 750,-564 750,-564 744,-564 738,-558 738,-552 738,-552 738,-540 738,-540 738,-534 744,-528 750,-528 750,-528 782,-528 782,-528 788,-528 794,-534 794,-540 794,-540 794,-552 794,-552 794,-558 788,-564 782,-564"/>
<text text-anchor="middle" x="766" y="-543.8" font-family="Avenir Next" font-size="9.00" fill="#41515b">BIOL321</text>
</a>
</g>
</g>
<!-- course__BIOL225&#45;&gt;course__BIOL321 -->
<g id="edge13" class="edge">
<title>course__BIOL225&#45;&gt;course__BIOL321</title>
<path fill="none" stroke="#5d6972" stroke-width="1.2" d="M325.6,-532.81C405.79,-535.22 641.88,-542.31 730.69,-544.97"/>
<polygon fill="#5d6972" stroke="#5d6972" stroke-width="1.2" points="730.76,-547.42 737.83,-545.18 730.9,-542.53 730.76,-547.42"/>
</g>
<!-- course__BIOL225&#45;&gt;choice_BIOL330_0_2 -->
<g id="edge16" class="edge">
<title>course__BIOL225&#45;&gt;choice_BIOL330_0_2</title>
<path fill="none" stroke="#7a8389" d="M325.8,-520.56C343.19,-513.44 366.26,-504.27 387,-497 476.94,-465.45 724.81,-433.24 797,-371 822.37,-349.13 858.39,-258.34 874.99,-213.83"/>
<polygon fill="#7a8389" stroke="#7a8389" points="877.35,-214.52 877.48,-207.1 872.75,-212.81 877.35,-214.52"/>
</g>
<!-- course__BIOL225&#45;&gt;choice_BIOL438_0_0 -->
<g id="edge29" class="edge">
<title>course__BIOL225&#45;&gt;choice_BIOL438_0_0</title>
<path fill="none" stroke="#7a8389" d="M325.8,-526.14C427.1,-504.31 776.68,-428.34 797,-415 834.97,-390.07 829.25,-368.17 858,-333 859.45,-331.22 860.98,-329.4 862.54,-327.59"/>
<polygon fill="#7a8389" stroke="#7a8389" points="864.49,-329.08 867.24,-322.19 860.79,-325.86 864.49,-329.08"/>
</g>
<!-- choice_BIOL435_1 -->
<g id="node26" class="node">
<title>choice_BIOL435_1</title>
<path fill="#fff7ee" stroke="#b7793f" stroke-width="1.1" d="M1132,-512C1132,-512 1102,-512 1102,-512 1096,-512 1090,-506 1090,-500 1090,-500 1090,-488 1090,-488 1090,-482 1096,-476 1102,-476 1102,-476 1132,-476 1132,-476 1138,-476 1144,-482 1144,-488 1144,-488 1144,-500 1144,-500 1144,-506 1138,-512 1132,-512"/>
<text text-anchor="middle" x="1117" y="-491.8" font-family="Avenir Next" font-size="9.00">1 of</text>
</g>
<!-- course__BIOC300A&#45;&gt;choice_BIOL435_1 -->
<g id="edge25" class="edge">
<title>course__BIOC300A&#45;&gt;choice_BIOL435_1</title>
<path fill="none" stroke="#7a8389" d="M797.32,-605.5C847.9,-610 951.55,-613.48 1029,-578 1058.01,-564.71 1083.24,-537.59 1098.95,-517.75"/>
<polygon fill="#7a8389" stroke="#7a8389" points="1100.98,-519.14 1103.32,-512.1 1097.1,-516.14 1100.98,-519.14"/>
</g>
<!-- course__BIOL355 -->
<g id="node16" class="node">
<title>course__BIOL355</title>
<g id="a_node16"><a xlink:href="../../../courses/BIOL355.html" xlink:title="BIOL355: Evolution" target="_top">
<path fill="#dbe8d2" stroke="#7e8d96" d="M1017,-512C1017,-512 985,-512 985,-512 979,-512 973,-506 973,-500 973,-500 973,-488 973,-488 973,-482 979,-476 985,-476 985,-476 1017,-476 1017,-476 1023,-476 1029,-482 1029,-488 1029,-488 1029,-500 1029,-500 1029,-506 1023,-512 1017,-512"/>
<text text-anchor="middle" x="1001" y="-491.8" font-family="Avenir Next" font-size="9.00" fill="#41515b">BIOL355</text>
</a>
</g>
</g>
<!-- course__BIOL230&#45;&gt;course__BIOL355 -->
<g id="edge20" class="edge">
<title>course__BIOL230&#45;&gt;course__BIOL355</title>
<path fill="none" stroke="#5d6972" stroke-width="1.2" d="M794.18,-490.47C836.8,-491.2 919.27,-492.61 965.84,-493.41"/>
<polygon fill="#5d6972" stroke="#5d6972" stroke-width="1.2" points="965.95,-495.87 972.99,-493.54 966.03,-490.97 965.95,-495.87"/>
</g>
<!-- course__BIOL230&#45;&gt;course__BIOL370 -->
<g id="edge22" class="edge">
<title>course__BIOL230&#45;&gt;course__BIOL370</title>
<path fill="none" stroke="#5d6972" stroke-width="1.2" d="M784.13,-471.98C825.62,-428.36 931.47,-317.06 977.76,-268.38"/>
<polygon fill="#5d6972" stroke="#5d6972" stroke-width="1.2" points="979.79,-269.8 982.84,-263.04 976.24,-266.43 979.79,-269.8"/>
</g>
<!-- course__BIOL435 -->
<g id="node19" class="node">
<title>course__BIOL435</title>
<g id="a_node19"><a xlink:href="../../../courses/BIOL435.html" xlink:title="BIOL435: Molecular Evolution" target="_top">
<path fill="#dbe8d2" stroke="#7e8d96" d="M1249,-487C1249,-487 1217,-487 1217,-487 1211,-487 1205,-481 1205,-475 1205,-475 1205,-463 1205,-463 1205,-457 1211,-451 1217,-451 1217,-451 1249,-451 1249,-451 1255,-451 1261,-457 1261,-463 1261,-463 1261,-475 1261,-475 1261,-481 1255,-487 1249,-487"/>
<text text-anchor="middle" x="1233" y="-466.8" font-family="Avenir Next" font-size="9.00" fill="#41515b">BIOL435</text>
</a>
</g>
</g>
<!-- course__BIOL230&#45;&gt;course__BIOL435 -->
<g id="edge24" class="edge">
<title>course__BIOL230&#45;&gt;course__BIOL435</title>
<path fill="none" stroke="#5d6972" stroke-width="1.2" d="M794.24,-485.81C833.58,-479.98 908.66,-469.74 973,-466 1048.87,-461.6 1068.01,-464.71 1144,-466 1161.63,-466.3 1181.23,-466.94 1197.46,-467.55"/>
<polygon fill="#5d6972" stroke="#5d6972" stroke-width="1.2" points="1197.57,-470.01 1204.66,-467.83 1197.75,-465.11 1197.57,-470.01"/>
</g>
<!-- course__BIOL230&#45;&gt;choice_BIOL330_0_2 -->
<g id="edge17" class="edge">
<title>course__BIOL230&#45;&gt;choice_BIOL330_0_2</title>
<path fill="none" stroke="#7a8389" d="M774.34,-471.84C780.46,-456.67 789.37,-434.45 797,-415 825.6,-342.12 858.63,-255.68 874.51,-213.97"/>
<polygon fill="#7a8389" stroke="#7a8389" points="876.89,-214.61 877.09,-207.19 872.31,-212.86 876.89,-214.61"/>
</g>
<!-- course__BIOL230&#45;&gt;choice_BIOL438_0_0 -->
<g id="edge30" class="edge">
<title>course__BIOL230&#45;&gt;choice_BIOL438_0_0</title>
<path fill="none" stroke="#7a8389" d="M784.99,-471.84C789.17,-467.19 793.44,-462.07 797,-457 830.27,-409.67 828.06,-391.51 858,-342 860.73,-337.49 863.78,-332.77 866.8,-328.26"/>
<polygon fill="#7a8389" stroke="#7a8389" points="868.96,-329.45 870.88,-322.28 864.91,-326.69 868.96,-329.45"/>
</g>
<!-- course__BIOL321&#45;&gt;course__BIOL319 -->
<g id="edge12" class="edge">
<title>course__BIOL321&#45;&gt;course__BIOL319</title>
<path fill="none" stroke="#5d6972" stroke-width="1.2" d="M789.77,-527.73C832.59,-493.36 925.03,-419.17 971.75,-381.67"/>
<polygon fill="#5d6972" stroke="#5d6972" stroke-width="1.2" points="973.56,-383.36 977.49,-377.07 970.49,-379.54 973.56,-383.36"/>
</g>
<!-- course__BIOL322 -->
<g id="node14" class="node">
<title>course__BIOL322</title>
<g id="a_node14"><a xlink:href="../../../courses/BIOL322.html" xlink:title="BIOL322: Biology of Marine Invertebrates" target="_top">
<path fill="#dbe8d2" stroke="#7e8d96" d="M1017,-568C1017,-568 985,-568 985,-568 979,-568 973,-562 973,-556 973,-556 973,-544 973,-544 973,-538 979,-532 985,-532 985,-532 1017,-532 1017,-532 1023,-532 1029,-538 1029,-544 1029,-544 1029,-556 1029,-556 1029,-562 1023,-568 1017,-568"/>
<text text-anchor="middle" x="1001" y="-547.8" font-family="Avenir Next" font-size="9.00" fill="#41515b">BIOL322</text>
</a>
</g>
</g>
<!-- course__BIOL321&#45;&gt;course__BIOL322 -->
<g id="edge14" class="edge">
<title>course__BIOL321&#45;&gt;course__BIOL322</title>
<path fill="none" stroke="#5d6972" stroke-width="1.2" d="M794.18,-546.47C836.8,-547.2 919.27,-548.61 965.84,-549.41"/>
<polygon fill="#5d6972" stroke="#5d6972" stroke-width="1.2" points="965.95,-551.87 972.99,-549.54 966.03,-546.97 965.95,-551.87"/>
</g>
<!-- course__BIOL457 -->
<g id="node12" class="node">
<title>course__BIOL457</title>
<g id="a_node12"><a xlink:href="../../../courses/BIOL457.html" xlink:title="BIOL457: Paleoecology and Environmental Change" target="_top">
<path fill="#dbe8d2" stroke="#7e8d96" d="M782,-361C782,-361 750,-361 750,-361 744,-361 738,-355 738,-349 738,-349 738,-337 738,-337 738,-331 744,-325 750,-325 750,-325 782,-325 782,-325 788,-325 794,-331 794,-337 794,-337 794,-349 794,-349 794,-355 788,-361 782,-361"/>
<text text-anchor="middle" x="766" y="-340.8" font-family="Avenir Next" font-size="9.00" fill="#41515b">BIOL457</text>
</a>
</g>
</g>
<!-- course__BIOL466 -->
<g id="node22" class="node">
<title>course__BIOL466</title>
<g id="a_node22"><a xlink:href="../../../courses/BIOL466.html" xlink:title="BIOL466: Frontiers in Marine Biology" target="_top">
<path fill="#dbe8d2" stroke="#7e8d96" d="M1249,-207C1249,-207 1217,-207 1217,-207 1211,-207 1205,-201 1205,-195 1205,-195 1205,-183 1205,-183 1205,-177 1211,-171 1217,-171 1217,-171 1249,-171 1249,-171 1255,-171 1261,-177 1261,-183 1261,-183 1261,-195 1261,-195 1261,-201 1255,-207 1249,-207"/>
<text text-anchor="middle" x="1233" y="-186.8" font-family="Avenir Next" font-size="9.00" fill="#41515b">BIOL466</text>
</a>
</g>
</g>
<!-- course__BIOL319&#45;&gt;course__BIOL466 -->
<g id="edge41" class="edge">
<title>course__BIOL319&#45;&gt;course__BIOL466</title>
<path fill="none" stroke="#5d6972" stroke-width="1.2" d="M1029.03,-344.94C1058.46,-329.11 1106.35,-301.82 1144,-273 1157.22,-262.88 1187.53,-233.37 1208.86,-212.19"/>
<polygon fill="#5d6972" stroke="#5d6972" stroke-width="1.2" points="1210.85,-213.68 1214.08,-207 1207.39,-210.2 1210.85,-213.68"/>
</g>
<!-- course__BIOL330 -->
<g id="node15" class="node">
<title>course__BIOL330</title>
<g id="a_node15"><a xlink:href="../../../courses/BIOL330.html" xlink:title="BIOL330: Study Design and Data Analysis" target="_top">
<path fill="#dbe8d2" stroke="#7e8d96" d="M1017,-207C1017,-207 985,-207 985,-207 979,-207 973,-201 973,-195 973,-195 973,-183 973,-183 973,-177 979,-171 985,-171 985,-171 1017,-171 1017,-171 1023,-171 1029,-177 1029,-183 1029,-183 1029,-195 1029,-195 1029,-201 1023,-207 1017,-207"/>
<text text-anchor="middle" x="1001" y="-186.8" font-family="Avenir Next" font-size="9.00" fill="#41515b">BIOL330</text>
</a>
</g>
</g>
<!-- course__BIOL330&#45;&gt;course__BIOL466 -->
<g id="edge42" class="edge">
<title>course__BIOL330&#45;&gt;course__BIOL466</title>
<path fill="none" stroke="#5d6972" stroke-width="1.2" d="M1029.29,-189C1071.3,-189 1151.78,-189 1197.69,-189"/>
<polygon fill="#5d6972" stroke="#5d6972" stroke-width="1.2" points="1197.75,-191.45 1204.75,-189 1197.75,-186.55 1197.75,-191.45"/>
</g>
<!-- course__BIOL330&#45;&gt;choice_BIOL446_0_0 -->
<g id="edge33" class="edge">
<title>course__BIOL330&#45;&gt;choice_BIOL446_0_0</title>
<path fill="none" stroke="#7a8389" d="M1018.82,-171C1038.77,-149.64 1072.09,-113.99 1094.06,-90.48"/>
<polygon fill="#7a8389" stroke="#7a8389" points="1096.12,-91.86 1099.11,-85.08 1092.54,-88.52 1096.12,-91.86"/>
</g>
<!-- choice_BIOL461_0_0 -->
<g id="node30" class="node">
<title>choice_BIOL461_0_0</title>
<path fill="#fff7ee" stroke="#b7793f" stroke-width="1.1" d="M1132,-263C1132,-263 1102,-263 1102,-263 1096,-263 1090,-257 1090,-251 1090,-251 1090,-239 1090,-239 1090,-233 1096,-227 1102,-227 1102,-227 1132,-227 1132,-227 1138,-227 1144,-233 1144,-239 1144,-239 1144,-251 1144,-251 1144,-257 1138,-263 1132,-263"/>
<text text-anchor="middle" x="1117" y="-242.8" font-family="Avenir Next" font-size="9.00">1 of</text>
</g>
<!-- course__BIOL330&#45;&gt;choice_BIOL461_0_0 -->
<g id="edge38" class="edge">
<title>course__BIOL330&#45;&gt;choice_BIOL461_0_0</title>
<path fill="none" stroke="#7a8389" d="M1029.02,-202.27C1045.29,-210.27 1066.13,-220.5 1083.32,-228.95"/>
<polygon fill="#7a8389" stroke="#7a8389" points="1082.6,-231.32 1089.96,-232.21 1084.76,-226.92 1082.6,-231.32"/>
</g>
<!-- course__BIOL355&#45;&gt;choice_BIOL435_1 -->
<g id="edge26" class="edge">
<title>course__BIOL355&#45;&gt;choice_BIOL435_1</title>
<path fill="none" stroke="#7a8389" d="M1029.02,-494C1045.15,-494 1065.76,-494 1082.87,-494"/>
<polygon fill="#7a8389" stroke="#7a8389" points="1082.96,-496.45 1089.96,-494 1082.96,-491.55 1082.96,-496.45"/>
</g>
<!-- course__BIOL370&#45;&gt;choice_BIOL461_0_0 -->
<g id="edge39" class="edge">
<title>course__BIOL370&#45;&gt;choice_BIOL461_0_0</title>
<path fill="none" stroke="#7a8389" d="M1029.02,-245C1045.15,-245 1065.76,-245 1082.87,-245"/>
<polygon fill="#7a8389" stroke="#7a8389" points="1082.96,-247.45 1089.96,-245 1082.96,-242.55 1082.96,-247.45"/>
</g>
<!-- course__BIOL438 -->
<g id="node18" class="node">
<title>course__BIOL438</title>
<g id="a_node18"><a xlink:href="../../../courses/BIOL438.html" xlink:title="BIOL438: Nutrient Cycling and Prokaryotes" target="_top">
<path fill="#dbe8d2" stroke="#7e8d96" d="M1017,-321C1017,-321 985,-321 985,-321 979,-321 973,-315 973,-309 973,-309 973,-297 973,-297 973,-291 979,-285 985,-285 985,-285 1017,-285 1017,-285 1023,-285 1029,-291 1029,-297 1029,-297 1029,-309 1029,-309 1029,-315 1023,-321 1017,-321"/>
<text text-anchor="middle" x="1001" y="-300.8" font-family="Avenir Next" font-size="9.00" fill="#41515b">BIOL438</text>
</a>
</g>
</g>
<!-- course__BIOL446 -->
<g id="node20" class="node">
<title>course__BIOL446</title>
<g id="a_node20"><a xlink:href="../../../courses/BIOL446.html" xlink:title="BIOL446: Advanced Aquatic Ecology" target="_top">
<path fill="#dbe8d2" stroke="#7e8d96" d="M1249,-85C1249,-85 1217,-85 1217,-85 1211,-85 1205,-79 1205,-73 1205,-73 1205,-61 1205,-61 1205,-55 1211,-49 1217,-49 1217,-49 1249,-49 1249,-49 1255,-49 1261,-55 1261,-61 1261,-61 1261,-73 1261,-73 1261,-79 1255,-85 1249,-85"/>
<text text-anchor="middle" x="1233" y="-64.8" font-family="Avenir Next" font-size="9.00" fill="#41515b">BIOL446</text>
</a>
</g>
</g>
<!-- course__BIOL461 -->
<g id="node21" class="node">
<title>course__BIOL461</title>
<g id="a_node21"><a xlink:href="../../../courses/BIOL461.html" xlink:title="BIOL461: Fisheries Ecology and Management" target="_top">
<path fill="#dbe8d2" stroke="#7e8d96" d="M1249,-263C1249,-263 1217,-263 1217,-263 1211,-263 1205,-257 1205,-251 1205,-251 1205,-239 1205,-239 1205,-233 1211,-227 1217,-227 1217,-227 1249,-227 1249,-227 1255,-227 1261,-233 1261,-239 1261,-239 1261,-251 1261,-251 1261,-257 1255,-263 1249,-263"/>
<text text-anchor="middle" x="1233" y="-242.8" font-family="Avenir Next" font-size="9.00" fill="#41515b">BIOL461</text>
</a>
</g>
</g>
<!-- choice_BIOL184_0_0&#45;&gt;course__BIOL184 -->
<g id="edge4" class="edge">
<title>choice_BIOL184_0_0&#45;&gt;course__BIOL184</title>
<path fill="none" stroke="#5d6972" stroke-width="1.2" d="M201.68,-688.95C220.94,-671.3 250.33,-644.34 271.29,-625.12"/>
<polygon fill="#5d6972" stroke="#5d6972" stroke-width="1.2" points="273.19,-626.7 276.69,-620.17 269.88,-623.09 273.19,-626.7"/>
</g>
<!-- choice_BIOL186_0_0&#45;&gt;course__BIOL186 -->
<g id="edge7" class="edge">
<title>choice_BIOL186_0_0&#45;&gt;course__BIOL186</title>
<path fill="none" stroke="#5d6972" stroke-width="1.2" d="M441.27,-665C457.1,-665 477.45,-665 494.62,-665"/>
<polygon fill="#5d6972" stroke="#5d6972" stroke-width="1.2" points="494.76,-667.45 501.76,-665 494.76,-662.55 494.76,-667.45"/>
</g>
<!-- choice_BIOL330_0_2&#45;&gt;course__BIOL330 -->
<g id="edge18" class="edge">
<title>choice_BIOL330_0_2&#45;&gt;course__BIOL330</title>
<path fill="none" stroke="#5d6972" stroke-width="1.2" d="M912.15,-189C928.03,-189 948.47,-189 965.64,-189"/>
<polygon fill="#5d6972" stroke="#5d6972" stroke-width="1.2" points="965.78,-191.45 972.78,-189 965.78,-186.55 965.78,-191.45"/>
</g>
<!-- choice_BIOL435_1&#45;&gt;course__BIOL435 -->
<g id="edge27" class="edge">
<title>choice_BIOL435_1&#45;&gt;course__BIOL435</title>
<path fill="none" stroke="#5d6972" stroke-width="1.2" d="M1144.15,-488.26C1160.03,-484.78 1180.47,-480.3 1197.64,-476.53"/>
<polygon fill="#5d6972" stroke="#5d6972" stroke-width="1.2" points="1198.47,-478.86 1204.78,-474.97 1197.42,-474.08 1198.47,-478.86"/>
</g>
<!-- choice_BIOL438_0_0&#45;&gt;course__BIOL438 -->
<g id="edge31" class="edge">
<title>choice_BIOL438_0_0&#45;&gt;course__BIOL438</title>
<path fill="none" stroke="#5d6972" stroke-width="1.2" d="M912.15,-303.77C928.03,-303.63 948.47,-303.45 965.64,-303.3"/>
<polygon fill="#5d6972" stroke="#5d6972" stroke-width="1.2" points="965.8,-305.75 972.78,-303.24 965.76,-300.85 965.8,-305.75"/>
</g>
<!-- choice_BIOL446_0_0&#45;&gt;course__BIOL446 -->
<g id="edge34" class="edge">
<title>choice_BIOL446_0_0&#45;&gt;course__BIOL446</title>
<path fill="none" stroke="#5d6972" stroke-width="1.2" d="M1144.15,-67C1160.03,-67 1180.47,-67 1197.64,-67"/>
<polygon fill="#5d6972" stroke="#5d6972" stroke-width="1.2" points="1197.78,-69.45 1204.78,-67 1197.78,-64.55 1197.78,-69.45"/>
</g>
<!-- choice_BIOL457_0_0&#45;&gt;course__BIOL457 -->
<g id="edge37" class="edge">
<title>choice_BIOL457_0_0&#45;&gt;course__BIOL457</title>
<path fill="none" stroke="#5d6972" stroke-width="1.2" d="M674.26,-343C690.76,-343 712.25,-343 730.17,-343"/>
<polygon fill="#5d6972" stroke="#5d6972" stroke-width="1.2" points="730.61,-345.45 737.61,-343 730.61,-340.55 730.61,-345.45"/>
</g>
<!-- choice_BIOL461_0_0&#45;&gt;course__BIOL461 -->
<g id="edge40" class="edge">
<title>choice_BIOL461_0_0&#45;&gt;course__BIOL461</title>
<path fill="none" stroke="#5d6972" stroke-width="1.2" d="M1144.15,-245C1160.03,-245 1180.47,-245 1197.64,-245"/>
<polygon fill="#5d6972" stroke="#5d6972" stroke-width="1.2" points="1197.78,-247.45 1204.78,-245 1197.78,-242.55 1197.78,-247.45"/>
</g>
<!-- choice_EOS330_0_1_2&#45;&gt;course__EOS330 -->
<g id="edge45" class="edge">
<title>choice_EOS330_0_1_2&#45;&gt;course__EOS330</title>
<path fill="none" stroke="#5d6972" stroke-width="1.2" d="M441.27,-357C457.56,-357 478.64,-357 496.11,-357"/>
<polygon fill="#5d6972" stroke="#5d6972" stroke-width="1.2" points="496.35,-359.45 503.35,-357 496.35,-354.55 496.35,-359.45"/>
</g>
</g>
</svg>
