<?xml version="1.0" encoding="UTF-8" standalone="no"?>
<!DOCTYPE svg PUBLIC "-//W3C//DTD SVG 1.1//EN"
 "http://www.w3.org/Graphics/SVG/1.1/DTD/svg11.dtd">
<!-- Generated by graphviz version 2.43.0 (0)
 -->
<!-- Title: BIOL466 Pages: 1 -->
<svg width="1627pt" height="808pt"
 viewBox="0.00 0.00 1627.20 808.20" xmlns="http://www.w3.org/2000/svg" xmlns:xlink="http://www.w3.org/1999/xlink">
<g id="graph0" class="graph" transform="scale(1 1) rotate(0) translate(21.6 786.6)">
<title>BIOL466</title>
<!-- course__BIOL150A -->
<g id="node1" class="node">
<title>course__BIOL150A</title>
<g id="a_node1"><a xlink:href="../../../courses/BIOL150A.html" xlink:title="BIOL150A: Modern Biology" target="_top">
<path fill="#dbe8d2" stroke="#7e8d96" d="M50,-692C50,-692 12,-692 12,-692 6,-692 0,-686 0,-680 0,-680 0,-668 0,-668 0,-662 6,-656 12,-656 12,-656 50,-656 50,-656 56,-656 62,-662 62,-668 62,-668 62,-680 62,-680 62,-686 56,-692 50,-692"/>
<text text-anchor="middle" x="31" y="-671.8" font-family="Avenir Next" font-size="9.00" fill="#41515b">BIOL150A</text>
</a>
</g>
</g>
<!-- choice_BIOL184_0_0 -->
<g id="node26" class="node">
<title>choice_BIOL184_0_0</title>
<path fill="#fff7ee" stroke="#b7793f" stroke-width="1.1" d="M165,-674C165,-674 135,-674 135,-674 129,-674 123,-668 123,-662 123,-662 123,-650 123,-650 123,-644 129,-638 135,-638 135,-638 165,-638 165,-638 171,-638 177,-644 177,-650 177,-650 177,-662 177,-662 177,-668 171,-674 165,-674"/>
<text text-anchor="middle" x="150" y="-653.8" font-family="Avenir Next" font-size="9.00">1 of</text>
</g>
<!-- course__BIOL150A&#45;&gt;choice_BIOL184_0_0 -->
<g id="edge1" class="edge">
<title>course__BIOL150A&#45;&gt;choice_BIOL184_0_0</title>
<path fill="none" stroke="#7a8389" d="M62.13,-669.36C78.6,-666.83 99.03,-663.69 115.94,-661.09"/>
<polygon fill="#7a8389" stroke="#7a8389" points="116.4,-663.49 122.95,-660.01 115.65,-658.65 116.4,-663.49"/>
</g>
<!-- choice_BIOL186_0_0 -->
<g id="node27" class="node">
<title>choice_BIOL186_0_0</title>
<path fill="#fff7ee" stroke="#b7793f" stroke-width="1.1" d="M482,-723C482,-723 452,-723 452,-723 446,-723 440,-717 440,-711 440,-711 440,-699 440,-699 440,-693 446,-687 452,-687 452,-687 482,-687 482,-687 488,-687 494,-693 494,-699 494,-699 494,-711 494,-711 494,-717 488,-723 482,-723"/>
<text text-anchor="middle" x="467" y="-702.8" font-family="Avenir Next" font-size="9.00">1 of</text>
</g>
<!-- course__BIOL150A&#45;&gt;choice_BIOL186_0_0 -->
<g id="edge4" class="edge">
<title>course__BIOL150A&#45;&gt;choice_BIOL186_0_0</title>
<path fill="none" stroke="#7a8389" d="M62.3,-677.7C79.98,-679.77 102.73,-682.27 123,-684 236.39,-693.7 371.23,-700.6 432.6,-703.49"/>
<polygon fill="#7a8389" stroke="#7a8389" points="432.61,-705.95 439.72,-703.82 432.84,-701.05 432.61,-705.95"/>
</g>
<!-- course__BIOL186 -->
<g id="node2" class="node">
<title>course__BIOL186</title>
<g id="a_node2"><a xlink:href="../../../courses/BIOL186.html" xlink:title="BIOL186: Physiology and Cell Biology" target="_top">
<path fill="#dbe8d2" stroke="#7e8d96" d="M47,-765C47,-765 15,-765 15,-765 9,-765 3,-759 3,-753 3,-753 3,-741 3,-741 3,-735 9,-729 15,-729 15,-729 47,-729 47,-729 53,-729 59,-735 59,-741 59,-741 59,-753 59,-753 59,-759 53,-765 47,-765"/>
<text text-anchor="middle" x="31" y="-744.8" font-family="Avenir Next" font-size="9.00" fill="#41515b">BIOL186</text>
</a>
</g>
</g>
<!-- course__BIOL225 -->
<g id="node7" class="node">
<title>course__BIOL225</title>
<g id="a_node7"><a xlink:href="../../../courses/BIOL225.html" xlink:title="BIOL225: Principles of Cell Biology" target="_top">
<path fill="#dbe8d2" stroke="#7e8d96" d="M656.5,-714C656.5,-714 624.5,-714 624.5,-714 618.5,-714 612.5,-708 612.5,-702 612.5,-702 612.5,-690 612.5,-690 612.5,-684 618.5,-678 624.5,-678 624.5,-678 656.5,-678 656.5,-678 662.5,-678 668.5,-684 668.5,-690 668.5,-690 668.5,-702 668.5,-702 668.5,-708 662.5,-714 656.5,-714"/>
<text text-anchor="middle" x="640.5" y="-693.8" font-family="Avenir Next" font-size="9.00" fill="#41515b">BIOL225</text>
</a>
</g>
</g>
<!-- course__BIOL186&#45;&gt;course__BIOL225 -->
<g id="edge7" class="edge">
<title>course__BIOL186&#45;&gt;course__BIOL225</title>
<path fill="none" stroke="#5d6972" stroke-width="1.2" d="M59.23,-749.1C134.16,-754.26 349.37,-764.94 524,-733 552.16,-727.85 582.98,-717.74 605.69,-709.38"/>
<polygon fill="#5d6972" stroke="#5d6972" stroke-width="1.2" points="606.77,-711.6 612.47,-706.85 605.06,-707.01 606.77,-711.6"/>
</g>
<!-- course__BIOL186&#45;&gt;choice_BIOL184_0_0 -->
<g id="edge2" class="edge">
<title>course__BIOL186&#45;&gt;choice_BIOL184_0_0</title>
<path fill="none" stroke="#7a8389" d="M55.4,-728.8C73.97,-714.36 100.03,-694.09 119.94,-678.6"/>
<polygon fill="#7a8389" stroke="#7a8389" points="121.62,-680.4 125.65,-674.16 118.62,-676.53 121.62,-680.4"/>
</g>
<!-- course__BIOL184 -->
<g id="node3" class="node">
<title>course__BIOL184</title>
<g id="a_node3"><a xlink:href="../../../courses/BIOL184.html" xlink:title="BIOL184: Evolution and Biodiversity" target="_top">
<path fill="#dbe8d2" stroke="#7e8d96" d="M309.5,-674C309.5,-674 277.5,-674 277.5,-674 271.5,-674 265.5,-668 265.5,-662 265.5,-662 265.5,-650 265.5,-650 265.5,-644 271.5,-638 277.5,-638 277.5,-638 309.5,-638 309.5,-638 315.5,-638 321.5,-644 321.5,-650 321.5,-650 321.5,-662 321.5,-662 321.5,-668 315.5,-674 309.5,-674"/>
<text text-anchor="middle" x="293.5" y="-653.8" font-family="Avenir Next" font-size="9.00" fill="#41515b">BIOL184</text>
</a>
</g>
</g>
<!-- course__BIOL184&#45;&gt;course__BIOL225 -->
<g id="edge8" class="edge">
<title>course__BIOL184&#45;&gt;course__BIOL225</title>
<path fill="none" stroke="#5d6972" stroke-width="1.2" d="M321.77,-657.86C364.83,-660.94 451.17,-667.69 524,-677 551.28,-680.49 582,-685.6 604.9,-689.64"/>
<polygon fill="#5d6972" stroke="#5d6972" stroke-width="1.2" points="604.72,-692.1 612.04,-690.91 605.58,-687.27 604.72,-692.1"/>
</g>
<!-- course__BIOL184&#45;&gt;choice_BIOL186_0_0 -->
<g id="edge5" class="edge">
<title>course__BIOL184&#45;&gt;choice_BIOL186_0_0</title>
<path fill="none" stroke="#7a8389" d="M321.67,-663.76C351.79,-672.37 400.38,-686.25 432.75,-695.5"/>
<polygon fill="#7a8389" stroke="#7a8389" points="432.39,-697.95 439.8,-697.51 433.74,-693.23 432.39,-697.95"/>
</g>
<!-- course__MATH100 -->
<g id="node4" class="node">
<title>course__MATH100</title>
<g id="a_node4"><a xlink:href="../../../courses/MATH100.html" xlink:title="Equivalent or cross&#45;listed: MATH100: Calculus I | MATH102: Calculus for Students in the Social and Biological Sciences | MATH109: Introduction to Calculus" target="_top">
<path fill="#dfe3f4" stroke="#7e8d96" d="M337,-218C337,-218 250,-218 250,-218 244,-218 238,-212 238,-206 238,-206 238,-194 238,-194 238,-188 244,-182 250,-182 250,-182 337,-182 337,-182 343,-182 349,-188 349,-194 349,-194 349,-206 349,-206 349,-212 343,-218 337,-218"/>
<text text-anchor="middle" x="293.5" y="-202.8" font-family="Avenir Next" font-size="9.00" fill="#41515b">MATH100 / MATH102</text>
<text text-anchor="middle" x="293.5" y="-192.8" font-family="Avenir Next" font-size="9.00" fill="#41515b">MATH109</text>
</a>
</g>
</g>
<!-- course__MATH101 -->
<g id="node6" class="node">
<title>course__MATH101</title>
<g id="a_node6"><a xlink:href="../../../courses/MATH101.html" xlink:title="MATH101: Calculus II" target="_top">
<path fill="#dfe3f4" stroke="#7e8d96" d="M484.5,-267C484.5,-267 449.5,-267 449.5,-267 443.5,-267 437.5,-261 437.5,-255 437.5,-255 437.5,-243 437.5,-243 437.5,-237 443.5,-231 449.5,-231 449.5,-231 484.5,-231 484.5,-231 490.5,-231 496.5,-237 496.5,-243 496.5,-243 496.5,-255 496.5,-255 496.5,-261 490.5,-267 484.5,-267"/>
<text text-anchor="middle" x="467" y="-246.8" font-family="Avenir Next" font-size="9.00" fill="#41515b">MATH101</text>
</a>
</g>
</g>
<!-- course__MATH100&#45;&gt;course__MATH101 -->
<g id="edge40" class="edge">
<title>course__MATH100&#45;&gt;course__MATH101</title>
<path fill="none" stroke="#5d6972" stroke-width="1.2" d="M349.24,-215.64C375.71,-223.2 406.74,-232.07 430.16,-238.76"/>
<polygon fill="#5d6972" stroke="#5d6972" stroke-width="1.2" points="429.76,-241.19 437.17,-240.76 431.11,-236.48 429.76,-241.19"/>
</g>
<!-- course__PHYS110 -->
<g id="node12" class="node">
<title>course__PHYS110</title>
<g id="a_node12"><a xlink:href="../../../courses/PHYS110.html" xlink:title="Equivalent or cross&#45;listed: PHYS110: Introductory Physics I | PHYS120: Physics I" target="_top">
<path fill="#efd8cf" stroke="#7e8d96" d="M682.5,-218C682.5,-218 598.5,-218 598.5,-218 592.5,-218 586.5,-212 586.5,-206 586.5,-206 586.5,-194 586.5,-194 586.5,-188 592.5,-182 598.5,-182 598.5,-182 682.5,-182 682.5,-182 688.5,-182 694.5,-188 694.5,-194 694.5,-194 694.5,-206 694.5,-206 694.5,-212 688.5,-218 682.5,-218"/>
<text text-anchor="middle" x="640.5" y="-197.8" font-family="Avenir Next" font-size="9.00" fill="#41515b">PHYS110 / PHYS120</text>
</a>
</g>
</g>
<!-- course__MATH100&#45;&gt;course__PHYS110 -->
<g id="edge45" class="edge">
<title>course__MATH100&#45;&gt;course__PHYS110</title>
<path fill="none" stroke="#5d6972" stroke-width="1.2" d="M349.17,-200C411.74,-200 513.92,-200 578.88,-200"/>
<polygon fill="#5d6972" stroke="#5d6972" stroke-width="1.2" points="579.22,-202.45 586.22,-200 579.22,-197.55 579.22,-202.45"/>
</g>
<!-- course__CHEM102 -->
<g id="node16" class="node">
<title>course__CHEM102</title>
<g id="a_node16"><a xlink:href="../../../courses/CHEM102.html" xlink:title="CHEM102: Chemical Reactivity Fundamentals with Environmental Applications" target="_top">
<path fill="#ead9b8" stroke="#7e8d96" d="M944.5,-390C944.5,-390 907.5,-390 907.5,-390 901.5,-390 895.5,-384 895.5,-378 895.5,-378 895.5,-366 895.5,-366 895.5,-360 901.5,-354 907.5,-354 907.5,-354 944.5,-354 944.5,-354 950.5,-354 956.5,-360 956.5,-366 956.5,-366 956.5,-378 956.5,-378 956.5,-384 950.5,-390 944.5,-390"/>
<text text-anchor="middle" x="926" y="-369.8" font-family="Avenir Next" font-size="9.00" fill="#41515b">CHEM102</text>
</a>
</g>
</g>
<!-- course__MATH100&#45;&gt;course__CHEM102 -->
<g id="edge30" class="edge">
<title>course__MATH100&#45;&gt;course__CHEM102</title>
<path fill="none" stroke="#5d6972" stroke-width="1.2" d="M317.11,-218.23C339.51,-235.5 375.4,-261.11 410,-277 576.95,-353.67 801.21,-368.49 888.29,-371.34"/>
<polygon fill="#5d6972" stroke="#5d6972" stroke-width="1.2" points="888.23,-373.79 895.31,-371.55 888.38,-368.89 888.23,-373.79"/>
</g>
<!-- course__PHYS111 -->
<g id="node19" class="node">
<title>course__PHYS111</title>
<g id="a_node19"><a xlink:href="../../../courses/PHYS111.html" xlink:title="Equivalent or cross&#45;listed: PHYS111: Introductory Physics II | PHYS130: Physics II" target="_top">
<path fill="#efd8cf" stroke="#7e8d96" d="M968,-241C968,-241 884,-241 884,-241 878,-241 872,-235 872,-229 872,-229 872,-217 872,-217 872,-211 878,-205 884,-205 884,-205 968,-205 968,-205 974,-205 980,-211 980,-217 980,-217 980,-229 980,-229 980,-235 974,-241 968,-241"/>
<text text-anchor="middle" x="926" y="-220.8" font-family="Avenir Next" font-size="9.00" fill="#41515b">PHYS111 / PHYS130</text>
</a>
</g>
</g>
<!-- course__MATH100&#45;&gt;course__PHYS111 -->
<g id="edge47" class="edge">
<title>course__MATH100&#45;&gt;course__PHYS111</title>
<path fill="none" stroke="#5d6972" stroke-width="1.2" d="M349.17,-190C426.55,-177.25 572.37,-158.4 696,-172 754.15,-178.4 819.13,-193.67 864.98,-205.84"/>
<polygon fill="#5d6972" stroke="#5d6972" stroke-width="1.2" points="864.49,-208.25 871.88,-207.69 865.75,-203.52 864.49,-208.25"/>
</g>
<!-- choice_EOS311_0_2 -->
<g id="node32" class="node">
<title>choice_EOS311_0_2</title>
<path fill="#fff7ee" stroke="#b7793f" stroke-width="1.1" d="M1083,-127C1083,-127 1053,-127 1053,-127 1047,-127 1041,-121 1041,-115 1041,-115 1041,-103 1041,-103 1041,-97 1047,-91 1053,-91 1053,-91 1083,-91 1083,-91 1089,-91 1095,-97 1095,-103 1095,-103 1095,-115 1095,-115 1095,-121 1089,-127 1083,-127"/>
<text text-anchor="middle" x="1068" y="-106.8" font-family="Avenir Next" font-size="9.00">2 of</text>
</g>
<!-- course__MATH100&#45;&gt;choice_EOS311_0_2 -->
<g id="edge32" class="edge">
<title>course__MATH100&#45;&gt;choice_EOS311_0_2</title>
<path fill="none" stroke="#7a8389" d="M321.31,-181.79C377.6,-145.36 513.36,-67 639.5,-67 639.5,-67 639.5,-67 785,-67 875.77,-67 981.19,-88.55 1033.71,-100.78"/>
<polygon fill="#7a8389" stroke="#7a8389" points="1033.38,-103.22 1040.76,-102.44 1034.5,-98.45 1033.38,-103.22"/>
</g>
<!-- course__CHEM101 -->
<g id="node5" class="node">
<title>course__CHEM101</title>
<g id="a_node5"><a xlink:href="../../../courses/CHEM101.html" xlink:title="Equivalent or cross&#45;listed: CHEM101: Fundamentals of Chemistry from Atoms to Materials | CHEM150: Engineering Chemistry" target="_top">
<path fill="#ead9b8" stroke="#7e8d96" d="M512,-595C512,-595 422,-595 422,-595 416,-595 410,-589 410,-583 410,-583 410,-571 410,-571 410,-565 416,-559 422,-559 422,-559 512,-559 512,-559 518,-559 524,-565 524,-571 524,-571 524,-583 524,-583 524,-589 518,-595 512,-595"/>
<text text-anchor="middle" x="467" y="-574.8" font-family="Avenir Next" font-size="9.00" fill="#41515b">CHEM101 / CHEM150</text>
</a>
</g>
</g>
<!-- course__CHEM231 -->
<g id="node9" class="node">
<title>course__CHEM231</title>
<g id="a_node9"><a xlink:href="../../../courses/CHEM231.html" xlink:title="CHEM231: Introduction to Organic Chemistry" target="_top">
<path fill="#ead9b8" stroke="#7e8d96" d="M659,-625C659,-625 622,-625 622,-625 616,-625 610,-619 610,-613 610,-613 610,-601 610,-601 610,-595 616,-589 622,-589 622,-589 659,-589 659,-589 665,-589 671,-595 671,-601 671,-601 671,-613 671,-613 671,-619 665,-625 659,-625"/>
<text text-anchor="middle" x="640.5" y="-604.8" font-family="Avenir Next" font-size="9.00" fill="#41515b">CHEM231</text>
</a>
</g>
</g>
<!-- course__CHEM101&#45;&gt;course__CHEM231 -->
<g id="edge31" class="edge">
<title>course__CHEM101&#45;&gt;course__CHEM231</title>
<path fill="none" stroke="#5d6972" stroke-width="1.2" d="M524.16,-586.82C549.89,-591.33 579.69,-596.54 602.55,-600.54"/>
<polygon fill="#5d6972" stroke="#5d6972" stroke-width="1.2" points="602.4,-603 609.71,-601.79 603.24,-598.17 602.4,-603"/>
</g>
<!-- course__CHEM101&#45;&gt;course__CHEM102 -->
<g id="edge29" class="edge">
<title>course__CHEM101&#45;&gt;course__CHEM102</title>
<path fill="none" stroke="#5d6972" stroke-width="1.2" d="M514.2,-558.9C560.51,-540.54 633.68,-510.92 696,-483 764.98,-452.1 844.04,-412.92 888.9,-390.34"/>
<polygon fill="#5d6972" stroke="#5d6972" stroke-width="1.2" points="890.11,-392.47 895.26,-387.13 887.91,-388.09 890.11,-392.47"/>
</g>
<!-- course__MATH200 -->
<g id="node10" class="node">
<title>course__MATH200</title>
<g id="a_node10"><a xlink:href="../../../courses/MATH200.html" xlink:title="Equivalent or cross&#45;listed: MATH200: Calculus III | MATH202: Intermediate Calculus for CSC and EOS" target="_top">
<path fill="#dfe3f4" stroke="#7e8d96" d="M684,-473C684,-473 597,-473 597,-473 591,-473 585,-467 585,-461 585,-461 585,-449 585,-449 585,-443 591,-437 597,-437 597,-437 684,-437 684,-437 690,-437 696,-443 696,-449 696,-449 696,-461 696,-461 696,-467 690,-473 684,-473"/>
<text text-anchor="middle" x="640.5" y="-452.8" font-family="Avenir Next" font-size="9.00" fill="#41515b">MATH200 / MATH202</text>
</a>
</g>
</g>
<!-- course__MATH101&#45;&gt;course__MATH200 -->
<g id="edge41" class="edge">
<title>course__MATH101&#45;&gt;course__MATH200</title>
<path fill="none" stroke="#5d6972" stroke-width="1.2" d="M476.52,-267.12C493.29,-301.28 533.49,-376.08 585,-424 588.43,-427.19 592.24,-430.18 596.21,-432.95"/>
<polygon fill="#5d6972" stroke="#5d6972" stroke-width="1.2" points="594.93,-435.04 602.12,-436.85 597.63,-430.95 594.93,-435.04"/>
</g>
<!-- course__MATH101&#45;&gt;course__PHYS111 -->
<g id="edge48" class="edge">
<title>course__MATH101&#45;&gt;course__PHYS111</title>
<path fill="none" stroke="#5d6972" stroke-width="1.2" d="M496.59,-247.37C569.77,-243.21 765.11,-232.1 864.74,-226.43"/>
<polygon fill="#5d6972" stroke="#5d6972" stroke-width="1.2" points="864.9,-228.87 871.75,-226.03 864.62,-223.98 864.9,-228.87"/>
</g>
<!-- course__STAT254 -->
<g id="node20" class="node">
<title>course__STAT254</title>
<g id="a_node20"><a xlink:href="../../../courses/STAT254.html" xlink:title="Equivalent or cross&#45;listed: STAT254: Probability and Statistics for Engineers | STAT260: Introduction to Probability and Statistics I" target="_top">
<path fill="#e6dde9" stroke="#7e8d96" d="M966,-490C966,-490 886,-490 886,-490 880,-490 874,-484 874,-478 874,-478 874,-466 874,-466 874,-460 880,-454 886,-454 886,-454 966,-454 966,-454 972,-454 978,-460 978,-466 978,-466 978,-478 978,-478 978,-484 972,-490 966,-490"/>
<text text-anchor="middle" x="926" y="-469.8" font-family="Avenir Next" font-size="9.00" fill="#41515b">STAT254 / STAT260</text>
</a>
</g>
</g>
<!-- course__MATH101&#45;&gt;course__STAT254 -->
<g id="edge50" class="edge">
<title>course__MATH101&#45;&gt;course__STAT254</title>
<path fill="none" stroke="#5d6972" stroke-width="1.2" d="M470.65,-267.33C478.42,-313.44 505.79,-434.05 585,-483 671.39,-536.39 795.12,-513.09 867.06,-492.04"/>
<polygon fill="#5d6972" stroke="#5d6972" stroke-width="1.2" points="867.84,-494.36 873.85,-490.01 866.44,-489.67 867.84,-494.36"/>
</g>
<!-- course__MATH101&#45;&gt;choice_EOS311_0_2 -->
<g id="edge33" class="edge">
<title>course__MATH101&#45;&gt;choice_EOS311_0_2</title>
<path fill="none" stroke="#7a8389" d="M489.22,-230.7C511.49,-212.58 548.31,-185.65 585,-172 745.15,-112.45 953.48,-107.69 1033.6,-108.3"/>
<polygon fill="#7a8389" stroke="#7a8389" points="1033.92,-110.75 1040.94,-108.37 1033.97,-105.85 1033.92,-110.75"/>
</g>
<!-- course__BIOL230 -->
<g id="node14" class="node">
<title>course__BIOL230</title>
<g id="a_node14"><a xlink:href="../../../courses/BIOL230.html" xlink:title="BIOL230: Principles of Genetics" target="_top">
<path fill="#dbe8d2" stroke="#7e8d96" d="M942,-714C942,-714 910,-714 910,-714 904,-714 898,-708 898,-702 898,-702 898,-690 898,-690 898,-684 904,-678 910,-678 910,-678 942,-678 942,-678 948,-678 954,-684 954,-690 954,-690 954,-702 954,-702 954,-708 948,-714 942,-714"/>
<text text-anchor="middle" x="926" y="-693.8" font-family="Avenir Next" font-size="9.00" fill="#41515b">BIOL230</text>
</a>
</g>
</g>
<!-- course__BIOL225&#45;&gt;course__BIOL230 -->
<g id="edge9" class="edge">
<title>course__BIOL225&#45;&gt;course__BIOL230</title>
<path fill="none" stroke="#5d6972" stroke-width="1.2" d="M668.68,-696C720.54,-696 833.51,-696 890.56,-696"/>
<polygon fill="#5d6972" stroke="#5d6972" stroke-width="1.2" points="890.9,-698.45 897.9,-696 890.9,-693.55 890.9,-698.45"/>
</g>
<!-- course__BIOL321 -->
<g id="node15" class="node">
<title>course__BIOL321</title>
<g id="a_node15"><a xlink:href="../../../courses/BIOL321.html" xlink:title="BIOL321: Survey of Invertebrates" target="_top">
<path fill="#dbe8d2" stroke="#7e8d96" d="M942,-602C942,-602 910,-602 910,-602 904,-602 898,-596 898,-590 898,-590 898,-578 898,-578 898,-572 904,-566 910,-566 910,-566 942,-566 942,-566 948,-566 954,-572 954,-578 954,-578 954,-590 954,-590 954,-596 948,-602 942,-602"/>
<text text-anchor="middle" x="926" y="-581.8" font-family="Avenir Next" font-size="9.00" fill="#41515b">BIOL321</text>
</a>
</g>
</g>
<!-- course__BIOL225&#45;&gt;course__BIOL321 -->
<g id="edge16" class="edge">
<title>course__BIOL225&#45;&gt;course__BIOL321</title>
<path fill="none" stroke="#5d6972" stroke-width="1.2" d="M668.68,-685.26C720.75,-664.69 834.43,-619.78 891.26,-597.33"/>
<polygon fill="#5d6972" stroke="#5d6972" stroke-width="1.2" points="892.29,-599.56 897.9,-594.71 890.49,-595 892.29,-599.56"/>
</g>
<!-- choice_BIOL330_0_2 -->
<g id="node30" class="node">
<title>choice_BIOL330_0_2</title>
<path fill="#fff7ee" stroke="#b7793f" stroke-width="1.1" d="M1083,-706C1083,-706 1053,-706 1053,-706 1047,-706 1041,-700 1041,-694 1041,-694 1041,-682 1041,-682 1041,-676 1047,-670 1053,-670 1053,-670 1083,-670 1083,-670 1089,-670 1095,-676 1095,-682 1095,-682 1095,-694 1095,-694 1095,-700 1089,-706 1083,-706"/>
<text text-anchor="middle" x="1068" y="-685.8" font-family="Avenir Next" font-size="9.00">1 of</text>
</g>
<!-- course__BIOL225&#45;&gt;choice_BIOL330_0_2 -->
<g id="edge20" class="edge">
<title>course__BIOL225&#45;&gt;choice_BIOL330_0_2</title>
<path fill="none" stroke="#7a8389" d="M668.56,-703.27C726.32,-717.71 865.77,-746.7 980,-724 998.66,-720.29 1018.33,-712.52 1034.24,-705.14"/>
<polygon fill="#7a8389" stroke="#7a8389" points="1035.55,-707.23 1040.82,-702.01 1033.44,-702.8 1035.55,-707.23"/>
</g>
<!-- course__CHEM091 -->
<g id="node8" class="node">
<title>course__CHEM091</title>
<g id="a_node8"><a xlink:href="../../../courses/CHEM091.html" xlink:title="CHEM091: Introduction to Chemistry" target="_top">
<path fill="#ead9b8" stroke="#7e8d96" d="M659,-414C659,-414 622,-414 622,-414 616,-414 610,-408 610,-402 610,-402 610,-390 610,-390 610,-384 616,-378 622,-378 622,-378 659,-378 659,-378 665,-378 671,-384 671,-390 671,-390 671,-402 671,-402 671,-408 665,-414 659,-414"/>
<text text-anchor="middle" x="640.5" y="-393.8" font-family="Avenir Next" font-size="9.00" fill="#41515b">CHEM091</text>
</a>
</g>
</g>
<!-- course__CHEM091&#45;&gt;course__CHEM102 -->
<g id="edge28" class="edge">
<title>course__CHEM091&#45;&gt;course__CHEM102</title>
<path fill="none" stroke="#5d6972" stroke-width="1.2" d="M671.04,-393.5C723.13,-389.09 831.17,-379.94 888.09,-375.12"/>
<polygon fill="#5d6972" stroke="#5d6972" stroke-width="1.2" points="888.33,-377.56 895.1,-374.53 887.92,-372.68 888.33,-377.56"/>
</g>
<!-- course__CHEM231&#45;&gt;course__BIOL230 -->
<g id="edge10" class="edge">
<title>course__CHEM231&#45;&gt;course__BIOL230</title>
<path fill="none" stroke="#5d6972" stroke-width="1.2" d="M671.04,-616.27C723.94,-632.88 834.57,-667.61 890.73,-685.24"/>
<polygon fill="#5d6972" stroke="#5d6972" stroke-width="1.2" points="890.21,-687.65 897.62,-687.41 891.68,-682.97 890.21,-687.65"/>
</g>
<!-- course__MATH200&#45;&gt;course__STAT254 -->
<g id="edge49" class="edge">
<title>course__MATH200&#45;&gt;course__STAT254</title>
<path fill="none" stroke="#5d6972" stroke-width="1.2" d="M696.16,-458.28C745.08,-461.21 816.6,-465.5 866.63,-468.5"/>
<polygon fill="#5d6972" stroke="#5d6972" stroke-width="1.2" points="866.71,-470.96 873.84,-468.93 867,-466.07 866.71,-470.96"/>
</g>
<!-- course__PHYS102A -->
<g id="node11" class="node">
<title>course__PHYS102A</title>
<g id="a_node11"><a xlink:href="../../../courses/PHYS102A.html" xlink:title="PHYS102A: General Physics I" target="_top">
<path fill="#efd8cf" stroke="#7e8d96" d="M660.5,-316C660.5,-316 620.5,-316 620.5,-316 614.5,-316 608.5,-310 608.5,-304 608.5,-304 608.5,-292 608.5,-292 608.5,-286 614.5,-280 620.5,-280 620.5,-280 660.5,-280 660.5,-280 666.5,-280 672.5,-286 672.5,-292 672.5,-292 672.5,-304 672.5,-304 672.5,-310 666.5,-316 660.5,-316"/>
<text text-anchor="middle" x="640.5" y="-295.8" font-family="Avenir Next" font-size="9.00" fill="#41515b">PHYS102A</text>
</a>
</g>
</g>
<!-- choice_PHYS102B_0 -->
<g id="node34" class="node">
<title>choice_PHYS102B_0</title>
<path fill="#fff7ee" stroke="#b7793f" stroke-width="1.1" d="M799,-316C799,-316 769,-316 769,-316 763,-316 757,-310 757,-304 757,-304 757,-292 757,-292 757,-286 763,-280 769,-280 769,-280 799,-280 799,-280 805,-280 811,-286 811,-292 811,-292 811,-304 811,-304 811,-310 805,-316 799,-316"/>
<text text-anchor="middle" x="784" y="-295.8" font-family="Avenir Next" font-size="9.00">1 of</text>
</g>
<!-- course__PHYS102A&#45;&gt;choice_PHYS102B_0 -->
<g id="edge42" class="edge">
<title>course__PHYS102A&#45;&gt;choice_PHYS102B_0</title>
<path fill="none" stroke="#7a8389" d="M672.55,-298C695.31,-298 726.17,-298 749.48,-298"/>
<polygon fill="#7a8389" stroke="#7a8389" points="749.77,-300.45 756.77,-298 749.77,-295.55 749.77,-300.45"/>
</g>
<!-- course__PHYS110&#45;&gt;course__PHYS111 -->
<g id="edge46" class="edge">
<title>course__PHYS110&#45;&gt;course__PHYS111</title>
<path fill="none" stroke="#5d6972" stroke-width="1.2" d="M694.82,-204.33C743.13,-208.25 814.26,-214.02 864.64,-218.1"/>
<polygon fill="#5d6972" stroke="#5d6972" stroke-width="1.2" points="864.74,-220.57 871.91,-218.69 865.14,-215.69 864.74,-220.57"/>
</g>
<!-- course__PHYS110&#45;&gt;choice_PHYS102B_0 -->
<g id="edge43" class="edge">
<title>course__PHYS110&#45;&gt;choice_PHYS102B_0</title>
<path fill="none" stroke="#7a8389" d="M667.78,-218.2C691.31,-234.5 725.88,-258.44 751.01,-275.84"/>
<polygon fill="#7a8389" stroke="#7a8389" points="749.71,-277.92 756.86,-279.89 752.5,-273.89 749.71,-277.92"/>
</g>
<!-- course__BIOL215 -->
<g id="node13" class="node">
<title>course__BIOL215</title>
<g id="a_node13"><a xlink:href="../../../courses/BIOL215.html" xlink:title="BIOL215: Principles of Ecology" target="_top">
<path fill="#dbe8d2" stroke="#7e8d96" d="M942,-658C942,-658 910,-658 910,-658 904,-658 898,-652 898,-646 898,-646 898,-634 898,-634 898,-628 904,-622 910,-622 910,-622 942,-622 942,-622 948,-622 954,-628 954,-634 954,-634 954,-646 954,-646 954,-652 948,-658 942,-658"/>
<text text-anchor="middle" x="926" y="-637.8" font-family="Avenir Next" font-size="9.00" fill="#41515b">BIOL215</text>
</a>
</g>
</g>
<!-- course__BIOL319 -->
<g id="node22" class="node">
<title>course__BIOL319</title>
<g id="a_node22"><a xlink:href="../../../courses/BIOL319.html" xlink:title="BIOL319: Marine Ecology" target="_top">
<path fill="#dbe8d2" stroke="#1b2730" stroke-width="1.6" d="M1224.5,-545C1224.5,-545 1191.5,-545 1191.5,-545 1185.5,-545 1179.5,-539 1179.5,-533 1179.5,-533 1179.5,-521 1179.5,-521 1179.5,-515 1185.5,-509 1191.5,-509 1191.5,-509 1224.5,-509 1224.5,-509 1230.5,-509 1236.5,-515 1236.5,-521 1236.5,-521 1236.5,-533 1236.5,-533 1236.5,-539 1230.5,-545 1224.5,-545"/>
<text text-anchor="middle" x="1208" y="-524.5" font-family="Avenir Next" font-size="10.00" fill="#17232b">BIOL319</text>
</a>
</g>
</g>
<!-- course__BIOL215&#45;&gt;course__BIOL319 -->
<g id="edge13" class="edge">
<title>course__BIOL215&#45;&gt;course__BIOL319</title>
<path fill="none" stroke="#5d6972" stroke-width="1.2" d="M954.08,-631.25C987.55,-620.22 1046.07,-600.26 1095,-580 1121.59,-568.99 1150.98,-555.01 1172.98,-544.18"/>
<polygon fill="#5d6972" stroke="#5d6972" stroke-width="1.2" points="1174.08,-546.36 1179.27,-541.06 1171.91,-541.97 1174.08,-546.36"/>
</g>
<!-- course__BIOL215&#45;&gt;choice_BIOL330_0_2 -->
<g id="edge19" class="edge">
<title>course__BIOL215&#45;&gt;choice_BIOL330_0_2</title>
<path fill="none" stroke="#7a8389" d="M954.33,-649.37C977.07,-657.17 1009.53,-668.29 1033.77,-676.61"/>
<polygon fill="#7a8389" stroke="#7a8389" points="1033.28,-679.03 1040.69,-678.98 1034.86,-674.39 1033.28,-679.03"/>
</g>
<!-- course__BIOL230&#45;&gt;choice_BIOL330_0_2 -->
<g id="edge21" class="edge">
<title>course__BIOL230&#45;&gt;choice_BIOL330_0_2</title>
<path fill="none" stroke="#7a8389" d="M954.33,-694.44C976.97,-693.14 1009.25,-691.3 1033.46,-689.92"/>
<polygon fill="#7a8389" stroke="#7a8389" points="1033.84,-692.35 1040.69,-689.5 1033.56,-687.46 1033.84,-692.35"/>
</g>
<!-- course__BIOL321&#45;&gt;course__BIOL319 -->
<g id="edge14" class="edge">
<title>course__BIOL321&#45;&gt;course__BIOL319</title>
<path fill="none" stroke="#5d6972" stroke-width="1.2" d="M954.26,-581.05C987.65,-577.19 1045.86,-569.63 1095,-559 1121.22,-553.33 1150.34,-544.94 1172.31,-538.18"/>
<polygon fill="#5d6972" stroke="#5d6972" stroke-width="1.2" points="1173.22,-540.46 1179.18,-536.05 1171.77,-535.78 1173.22,-540.46"/>
</g>
<!-- course__EOS311 -->
<g id="node24" class="node">
<title>course__EOS311</title>
<g id="a_node24"><a xlink:href="../../../courses/EOS311.html" xlink:title="Equivalent or cross&#45;listed: BIOL311: Biological Oceanography | EOS311: Biological Oceanography" target="_top">
<path fill="#d7e9ef" stroke="#1b2730" stroke-width="1.6" d="M1248,-347C1248,-347 1168,-347 1168,-347 1162,-347 1156,-341 1156,-335 1156,-335 1156,-323 1156,-323 1156,-317 1162,-311 1168,-311 1168,-311 1248,-311 1248,-311 1254,-311 1260,-317 1260,-323 1260,-323 1260,-335 1260,-335 1260,-341 1254,-347 1248,-347"/>
<text text-anchor="middle" x="1208" y="-326.5" font-family="Avenir Next" font-size="10.00" fill="#17232b">BIOL311 / EOS311</text>
</a>
</g>
</g>
<!-- course__CHEM102&#45;&gt;course__EOS311 -->
<g id="edge37" class="edge">
<title>course__CHEM102&#45;&gt;course__EOS311</title>
<path fill="none" stroke="#5d6972" stroke-width="1.2" d="M956.7,-367.44C1002.28,-360.44 1090.33,-346.92 1148.9,-337.92"/>
<polygon fill="#5d6972" stroke="#5d6972" stroke-width="1.2" points="1149.34,-340.33 1155.89,-336.85 1148.6,-335.49 1149.34,-340.33"/>
</g>
<!-- course__MATH151 -->
<g id="node17" class="node">
<title>course__MATH151</title>
<g id="a_node17"><a xlink:href="../../../courses/MATH151.html" xlink:title="MATH151: Finite Mathematics" target="_top">
<path fill="#dfe3f4" stroke="#7e8d96" d="M943.5,-36C943.5,-36 908.5,-36 908.5,-36 902.5,-36 896.5,-30 896.5,-24 896.5,-24 896.5,-12 896.5,-12 896.5,-6 902.5,0 908.5,0 908.5,0 943.5,0 943.5,0 949.5,0 955.5,-6 955.5,-12 955.5,-12 955.5,-24 955.5,-24 955.5,-30 949.5,-36 943.5,-36"/>
<text text-anchor="middle" x="926" y="-15.8" font-family="Avenir Next" font-size="9.00" fill="#41515b">MATH151</text>
</a>
</g>
</g>
<!-- course__MATH151&#45;&gt;choice_EOS311_0_2 -->
<g id="edge34" class="edge">
<title>course__MATH151&#45;&gt;choice_EOS311_0_2</title>
<path fill="none" stroke="#7a8389" d="M955.71,-35.65C963.61,-40.57 972.16,-45.95 980,-51 998.35,-62.82 1018.65,-76.33 1035.03,-87.34"/>
<polygon fill="#7a8389" stroke="#7a8389" points="1033.7,-89.4 1040.87,-91.27 1036.43,-85.33 1033.7,-89.4"/>
</g>
<!-- course__PHYS102B -->
<g id="node18" class="node">
<title>course__PHYS102B</title>
<g id="a_node18"><a xlink:href="../../../courses/PHYS102B.html" xlink:title="PHYS102B: General Physics II" target="_top">
<path fill="#efd8cf" stroke="#7e8d96" d="M946,-316C946,-316 906,-316 906,-316 900,-316 894,-310 894,-304 894,-304 894,-292 894,-292 894,-286 900,-280 906,-280 906,-280 946,-280 946,-280 952,-280 958,-286 958,-292 958,-292 958,-304 958,-304 958,-310 952,-316 946,-316"/>
<text text-anchor="middle" x="926" y="-295.8" font-family="Avenir Next" font-size="9.00" fill="#41515b">PHYS102B</text>
</a>
</g>
</g>
<!-- choice_EOS311_0_3 -->
<g id="node33" class="node">
<title>choice_EOS311_0_3</title>
<path fill="#fff7ee" stroke="#b7793f" stroke-width="1.1" d="M1083,-316C1083,-316 1053,-316 1053,-316 1047,-316 1041,-310 1041,-304 1041,-304 1041,-292 1041,-292 1041,-286 1047,-280 1053,-280 1053,-280 1083,-280 1083,-280 1089,-280 1095,-286 1095,-292 1095,-292 1095,-304 1095,-304 1095,-310 1089,-316 1083,-316"/>
<text text-anchor="middle" x="1068" y="-295.8" font-family="Avenir Next" font-size="9.00">1 of</text>
</g>
<!-- course__PHYS102B&#45;&gt;choice_EOS311_0_3 -->
<g id="edge35" class="edge">
<title>course__PHYS102B&#45;&gt;choice_EOS311_0_3</title>
<path fill="none" stroke="#7a8389" d="M958.07,-298C980.46,-298 1010.64,-298 1033.55,-298"/>
<polygon fill="#7a8389" stroke="#7a8389" points="1033.72,-300.45 1040.72,-298 1033.72,-295.55 1033.72,-300.45"/>
</g>
<!-- course__PHYS111&#45;&gt;choice_EOS311_0_3 -->
<g id="edge36" class="edge">
<title>course__PHYS111&#45;&gt;choice_EOS311_0_3</title>
<path fill="none" stroke="#7a8389" d="M960.89,-241.16C983.28,-253.15 1012.46,-268.78 1034.55,-280.62"/>
<polygon fill="#7a8389" stroke="#7a8389" points="1033.54,-282.86 1040.87,-284 1035.86,-278.54 1033.54,-282.86"/>
</g>
<!-- choice_BIOL319_0_1 -->
<g id="node28" class="node">
<title>choice_BIOL319_0_1</title>
<path fill="#fff7ee" stroke="#b7793f" stroke-width="1.1" d="M1083,-493C1083,-493 1053,-493 1053,-493 1047,-493 1041,-487 1041,-481 1041,-481 1041,-469 1041,-469 1041,-463 1047,-457 1053,-457 1053,-457 1083,-457 1083,-457 1089,-457 1095,-463 1095,-469 1095,-469 1095,-481 1095,-481 1095,-487 1089,-493 1083,-493"/>
<text text-anchor="middle" x="1068" y="-472.8" font-family="Avenir Next" font-size="9.00">1 of</text>
</g>
<!-- course__STAT254&#45;&gt;choice_BIOL319_0_1 -->
<g id="edge12" class="edge">
<title>course__STAT254&#45;&gt;choice_BIOL319_0_1</title>
<path fill="none" stroke="#7a8389" d="M978.34,-473.1C996.74,-473.49 1017.01,-473.93 1033.51,-474.28"/>
<polygon fill="#7a8389" stroke="#7a8389" points="1033.76,-476.74 1040.81,-474.44 1033.86,-471.84 1033.76,-476.74"/>
</g>
<!-- choice_BIOL330_0_0 -->
<g id="node29" class="node">
<title>choice_BIOL330_0_0</title>
<path fill="#fff7ee" stroke="#b7793f" stroke-width="1.1" d="M1083,-549C1083,-549 1053,-549 1053,-549 1047,-549 1041,-543 1041,-537 1041,-537 1041,-525 1041,-525 1041,-519 1047,-513 1053,-513 1053,-513 1083,-513 1083,-513 1089,-513 1095,-519 1095,-525 1095,-525 1095,-537 1095,-537 1095,-543 1089,-549 1083,-549"/>
<text text-anchor="middle" x="1068" y="-528.8" font-family="Avenir Next" font-size="9.00">1 of</text>
</g>
<!-- course__STAT254&#45;&gt;choice_BIOL330_0_0 -->
<g id="edge18" class="edge">
<title>course__STAT254&#45;&gt;choice_BIOL330_0_0</title>
<path fill="none" stroke="#7a8389" d="M969.77,-490.02C990.48,-498.75 1014.97,-509.07 1034.19,-517.17"/>
<polygon fill="#7a8389" stroke="#7a8389" points="1033.35,-519.48 1040.75,-519.94 1035.25,-514.96 1033.35,-519.48"/>
</g>
<!-- course__STAT255 -->
<g id="node21" class="node">
<title>course__STAT255</title>
<g id="a_node21"><a xlink:href="../../../courses/STAT255.html" xlink:title="STAT255: Statistics for Life Sciences I" target="_top">
<path fill="#e6dde9" stroke="#7e8d96" d="M942,-546C942,-546 910,-546 910,-546 904,-546 898,-540 898,-534 898,-534 898,-522 898,-522 898,-516 904,-510 910,-510 910,-510 942,-510 942,-510 948,-510 954,-516 954,-522 954,-522 954,-534 954,-534 954,-540 948,-546 942,-546"/>
<text text-anchor="middle" x="926" y="-525.8" font-family="Avenir Next" font-size="9.00" fill="#41515b">STAT255</text>
</a>
</g>
</g>
<!-- course__STAT255&#45;&gt;choice_BIOL319_0_1 -->
<g id="edge11" class="edge">
<title>course__STAT255&#45;&gt;choice_BIOL319_0_1</title>
<path fill="none" stroke="#7a8389" d="M954.33,-517.66C977.17,-509.01 1009.81,-496.65 1034.08,-487.46"/>
<polygon fill="#7a8389" stroke="#7a8389" points="1035.01,-489.73 1040.69,-484.96 1033.28,-485.15 1035.01,-489.73"/>
</g>
<!-- course__STAT255&#45;&gt;choice_BIOL330_0_0 -->
<g id="edge17" class="edge">
<title>course__STAT255&#45;&gt;choice_BIOL330_0_0</title>
<path fill="none" stroke="#7a8389" d="M954.33,-528.59C976.97,-529.07 1009.25,-529.76 1033.46,-530.28"/>
<polygon fill="#7a8389" stroke="#7a8389" points="1033.64,-532.74 1040.69,-530.44 1033.75,-527.84 1033.64,-532.74"/>
</g>
<!-- choice_BIOL466_0 -->
<g id="node31" class="node">
<title>choice_BIOL466_0</title>
<path fill="#fff7ee" stroke="#b7793f" stroke-width="1.1" d="M1363,-545C1363,-545 1333,-545 1333,-545 1327,-545 1321,-539 1321,-533 1321,-533 1321,-521 1321,-521 1321,-515 1327,-509 1333,-509 1333,-509 1363,-509 1363,-509 1369,-509 1375,-515 1375,-521 1375,-521 1375,-533 1375,-533 1375,-539 1369,-545 1363,-545"/>
<text text-anchor="middle" x="1348" y="-524.8" font-family="Avenir Next" font-size="9.00">1 of</text>
</g>
<!-- course__BIOL319&#45;&gt;choice_BIOL466_0 -->
<g id="edge25" class="edge">
<title>course__BIOL319&#45;&gt;choice_BIOL466_0</title>
<path fill="none" stroke="#7a8389" d="M1236.59,-527C1258.83,-527 1290.18,-527 1313.79,-527"/>
<polygon fill="#7a8389" stroke="#7a8389" points="1313.86,-529.45 1320.86,-527 1313.86,-524.55 1313.86,-529.45"/>
</g>
<!-- course__BIOL330 -->
<g id="node23" class="node">
<title>course__BIOL330</title>
<g id="a_node23"><a xlink:href="../../../courses/BIOL330.html" xlink:title="BIOL330: Study Design and Data Analysis" target="_top">
<path fill="#dbe8d2" stroke="#1b2730" stroke-width="1.6" d="M1224.5,-601C1224.5,-601 1191.5,-601 1191.5,-601 1185.5,-601 1179.5,-595 1179.5,-589 1179.5,-589 1179.5,-577 1179.5,-577 1179.5,-571 1185.5,-565 1191.5,-565 1191.5,-565 1224.5,-565 1224.5,-565 1230.5,-565 1236.5,-571 1236.5,-577 1236.5,-577 1236.5,-589 1236.5,-589 1236.5,-595 1230.5,-601 1224.5,-601"/>
<text text-anchor="middle" x="1208" y="-580.5" font-family="Avenir Next" font-size="10.00" fill="#17232b">BIOL330</text>
</a>
</g>
</g>
<!-- course__BIOL466 -->
<g id="node25" class="node">
<title>course__BIOL466</title>
<g id="a_node25"><a xlink:href="../../../courses/BIOL466.html" xlink:title="BIOL466: Frontiers in Marine Biology" target="_top">
<path fill="#dbe8d2" stroke="#1f4f66" stroke-width="2" d="M1572,-569C1572,-569 1448,-569 1448,-569 1442,-569 1436,-563 1436,-557 1436,-557 1436,-545 1436,-545 1436,-539 1442,-533 1448,-533 1448,-533 1572,-533 1572,-533 1578,-533 1584,-539 1584,-545 1584,-545 1584,-557 1584,-557 1584,-563 1578,-569 1572,-569"/>
<text text-anchor="middle" x="1510" y="-554" font-family="Avenir Next" font-size="10.00" fill="#17232b">BIOL466</text>
<text text-anchor="middle" x="1510" y="-543" font-family="Avenir Next" font-size="10.00" fill="#17232b">Frontiers in Marine Biology</text>
</a>
</g>
</g>
<!-- course__BIOL330&#45;&gt;course__BIOL466 -->
<g id="edge27" class="edge">
<title>course__BIOL330&#45;&gt;course__BIOL466</title>
<path fill="none" stroke="#5d6972" stroke-width="1.2" d="M1236.69,-580.05C1279.91,-575.44 1365.08,-566.35 1428.71,-559.56"/>
<polygon fill="#5d6972" stroke="#5d6972" stroke-width="1.2" points="1429.27,-561.97 1435.97,-558.79 1428.75,-557.1 1429.27,-561.97"/>
</g>
<!-- course__EOS311&#45;&gt;choice_BIOL466_0 -->
<g id="edge24" class="edge">
<title>course__EOS311&#45;&gt;choice_BIOL466_0</title>
<path fill="none" stroke="#7a8389" d="M1221.74,-347.27C1246.69,-383.08 1302.02,-462.47 1330.04,-502.67"/>
<polygon fill="#7a8389" stroke="#7a8389" points="1328.28,-504.43 1334.3,-508.77 1332.3,-501.63 1328.28,-504.43"/>
</g>
<!-- choice_BIOL184_0_0&#45;&gt;course__BIOL184 -->
<g id="edge3" class="edge">
<title>choice_BIOL184_0_0&#45;&gt;course__BIOL184</title>
<path fill="none" stroke="#5d6972" stroke-width="1.2" d="M177.28,-656C200.12,-656 233.36,-656 258.28,-656"/>
<polygon fill="#5d6972" stroke="#5d6972" stroke-width="1.2" points="258.39,-658.45 265.39,-656 258.39,-653.55 258.39,-658.45"/>
</g>
<!-- choice_BIOL186_0_0&#45;&gt;course__BIOL186 -->
<g id="edge6" class="edge">
<title>choice_BIOL186_0_0&#45;&gt;course__BIOL186</title>
<path fill="none" stroke="#5d6972" stroke-width="1.2" d="M439.96,-707.52C365.25,-714.75 150.12,-735.57 66.15,-743.7"/>
<polygon fill="#5d6972" stroke="#5d6972" stroke-width="1.2" points="65.88,-741.26 59.15,-744.37 66.35,-746.14 65.88,-741.26"/>
</g>
<!-- choice_BIOL319_0_1&#45;&gt;course__BIOL319 -->
<g id="edge15" class="edge">
<title>choice_BIOL319_0_1&#45;&gt;course__BIOL319</title>
<path fill="none" stroke="#5d6972" stroke-width="1.2" d="M1095.28,-484.9C1117.2,-493.16 1148.61,-505 1172.54,-514.02"/>
<polygon fill="#5d6972" stroke="#5d6972" stroke-width="1.2" points="1171.98,-516.42 1179.4,-516.6 1173.71,-511.84 1171.98,-516.42"/>
</g>
<!-- choice_BIOL330_0_0&#45;&gt;course__BIOL330 -->
<g id="edge22" class="edge">
<title>choice_BIOL330_0_0&#45;&gt;course__BIOL330</title>
<path fill="none" stroke="#5d6972" stroke-width="1.2" d="M1095.28,-540.9C1117.2,-549.16 1148.61,-561 1172.54,-570.02"/>
<polygon fill="#5d6972" stroke="#5d6972" stroke-width="1.2" points="1171.98,-572.42 1179.4,-572.6 1173.71,-567.84 1171.98,-572.42"/>
</g>
<!-- choice_BIOL330_0_2&#45;&gt;course__BIOL330 -->
<g id="edge23" class="edge">
<title>choice_BIOL330_0_2&#45;&gt;course__BIOL330</title>
<path fill="none" stroke="#5d6972" stroke-width="1.2" d="M1092.72,-669.95C1116.12,-652.15 1151.96,-624.88 1177.26,-605.63"/>
<polygon fill="#5d6972" stroke="#5d6972" stroke-width="1.2" points="1179.04,-607.35 1183.12,-601.17 1176.07,-603.45 1179.04,-607.35"/>
</g>
<!-- choice_BIOL466_0&#45;&gt;course__BIOL466 -->
<g id="edge26" class="edge">
<title>choice_BIOL466_0&#45;&gt;course__BIOL466</title>
<path fill="none" stroke="#5d6972" stroke-width="1.2" d="M1375.06,-530.91C1389.89,-533.13 1409.34,-536.05 1428.81,-538.97"/>
<polygon fill="#5d6972" stroke="#5d6972" stroke-width="1.2" points="1428.69,-541.43 1435.98,-540.05 1429.42,-536.59 1428.69,-541.43"/>
</g>
<!-- choice_EOS311_0_2&#45;&gt;course__EOS311 -->
<g id="edge38" class="edge">
<title>choice_EOS311_0_2&#45;&gt;course__EOS311</title>
<path fill="none" stroke="#5d6972" stroke-width="1.2" d="M1080.29,-127C1105.01,-166.4 1163.91,-260.3 1191.82,-304.81"/>
<polygon fill="#5d6972" stroke="#5d6972" stroke-width="1.2" points="1189.76,-306.12 1195.55,-310.75 1193.91,-303.52 1189.76,-306.12"/>
</g>
<!-- choice_EOS311_0_3&#45;&gt;course__EOS311 -->
<g id="edge39" class="edge">
<title>choice_EOS311_0_3&#45;&gt;course__EOS311</title>
<path fill="none" stroke="#5d6972" stroke-width="1.2" d="M1095.28,-303.9C1110.53,-307.33 1130.38,-311.79 1149.1,-315.99"/>
<polygon fill="#5d6972" stroke="#5d6972" stroke-width="1.2" points="1148.57,-318.39 1155.94,-317.53 1149.65,-313.61 1148.57,-318.39"/>
</g>
<!-- choice_PHYS102B_0&#45;&gt;course__PHYS102B -->
<g id="edge44" class="edge">
<title>choice_PHYS102B_0&#45;&gt;course__PHYS102B</title>
<path fill="none" stroke="#5d6972" stroke-width="1.2" d="M811,-298C832.22,-298 862.49,-298 886.51,-298"/>
<polygon fill="#5d6972" stroke="#5d6972" stroke-width="1.2" points="886.75,-300.45 893.75,-298 886.75,-295.55 886.75,-300.45"/>
</g>
</g>
</svg>
