<?xml version="1.0" encoding="UTF-8" standalone="no"?>
<!DOCTYPE svg PUBLIC "-//W3C//DTD SVG 1.1//EN"
 "http://www.w3.org/Graphics/SVG/1.1/DTD/svg11.dtd">
<!-- Generated by graphviz version 2.43.0 (0)
 -->
<!-- Title: BIOL435 Pages: 1 -->
<svg width="1054pt" height="359pt"
 viewBox="0.00 0.00 1054.20 359.20" xmlns="http://www.w3.org/2000/svg" xmlns:xlink="http://www.w3.org/1999/xlink">
<g id="graph0" class="graph" transform="scale(1 1) rotate(0) translate(21.6 337.6)">
<title>BIOL435</title>
<!-- course__BIOL150A -->
<g id="node1" class="node">
<title>course__BIOL150A</title>
<g id="a_node1"><a xlink:href="../../../courses/BIOL150A.html" xlink:title="BIOL150A: Modern Biology" target="_top">
<path fill="#dbe8d2" stroke="#7e8d96" d="M50,-36C50,-36 12,-36 12,-36 6,-36 0,-30 0,-24 0,-24 0,-12 0,-12 0,-6 6,0 12,0 12,0 50,0 50,0 56,0 62,-6 62,-12 62,-12 62,-24 62,-24 62,-30 56,-36 50,-36"/>
<text text-anchor="middle" x="31" y="-15.8" font-family="Avenir Next" font-size="9.00" fill="#41515b">BIOL150A</text>
</a>
</g>
</g>
<!-- choice_BIOL184_0_0 -->
<g id="node15" class="node">
<title>choice_BIOL184_0_0</title>
<path fill="#fff7ee" stroke="#b7793f" stroke-width="1.1" d="M165,-64C165,-64 135,-64 135,-64 129,-64 123,-58 123,-52 123,-52 123,-40 123,-40 123,-34 129,-28 135,-28 135,-28 165,-28 165,-28 171,-28 177,-34 177,-40 177,-40 177,-52 177,-52 177,-58 171,-64 165,-64"/>
<text text-anchor="middle" x="150" y="-43.8" font-family="Avenir Next" font-size="9.00">1 of</text>
</g>
<!-- course__BIOL150A&#45;&gt;choice_BIOL184_0_0 -->
<g id="edge3" class="edge">
<title>course__BIOL150A&#45;&gt;choice_BIOL184_0_0</title>
<path fill="none" stroke="#7a8389" d="M62.13,-25.21C78.6,-29.15 99.03,-34.04 115.94,-38.09"/>
<polygon fill="#7a8389" stroke="#7a8389" points="115.57,-40.52 122.95,-39.76 116.71,-35.75 115.57,-40.52"/>
</g>
<!-- choice_BIOL186_0_0 -->
<g id="node16" class="node">
<title>choice_BIOL186_0_0</title>
<path fill="#fff7ee" stroke="#b7793f" stroke-width="1.1" d="M458.5,-64C458.5,-64 428.5,-64 428.5,-64 422.5,-64 416.5,-58 416.5,-52 416.5,-52 416.5,-40 416.5,-40 416.5,-34 422.5,-28 428.5,-28 428.5,-28 458.5,-28 458.5,-28 464.5,-28 470.5,-34 470.5,-40 470.5,-40 470.5,-52 470.5,-52 470.5,-58 464.5,-64 458.5,-64"/>
<text text-anchor="middle" x="443.5" y="-43.8" font-family="Avenir Next" font-size="9.00">1 of</text>
</g>
<!-- course__BIOL150A&#45;&gt;choice_BIOL186_0_0 -->
<g id="edge6" class="edge">
<title>course__BIOL150A&#45;&gt;choice_BIOL186_0_0</title>
<path fill="none" stroke="#7a8389" d="M62.22,-15.01C119.27,-10.03 246.53,-2.06 352,-18 371.49,-20.95 392.58,-27.27 409.48,-33.17"/>
<polygon fill="#7a8389" stroke="#7a8389" points="409.04,-35.61 416.46,-35.66 410.69,-31 409.04,-35.61"/>
</g>
<!-- course__BIOL186 -->
<g id="node2" class="node">
<title>course__BIOL186</title>
<g id="a_node2"><a xlink:href="../../../courses/BIOL186.html" xlink:title="BIOL186: Physiology and Cell Biology" target="_top">
<path fill="#dbe8d2" stroke="#7e8d96" d="M47,-113C47,-113 15,-113 15,-113 9,-113 3,-107 3,-101 3,-101 3,-89 3,-89 3,-83 9,-77 15,-77 15,-77 47,-77 47,-77 53,-77 59,-83 59,-89 59,-89 59,-101 59,-101 59,-107 53,-113 47,-113"/>
<text text-anchor="middle" x="31" y="-92.8" font-family="Avenir Next" font-size="9.00" fill="#41515b">BIOL186</text>
</a>
</g>
</g>
<!-- course__BIOL225 -->
<g id="node7" class="node">
<title>course__BIOL225</title>
<g id="a_node7"><a xlink:href="../../../courses/BIOL225.html" xlink:title="BIOL225: Principles of Cell Biology" target="_top">
<path fill="#dbe8d2" stroke="#7e8d96" d="M459.5,-179C459.5,-179 427.5,-179 427.5,-179 421.5,-179 415.5,-173 415.5,-167 415.5,-167 415.5,-155 415.5,-155 415.5,-149 421.5,-143 427.5,-143 427.5,-143 459.5,-143 459.5,-143 465.5,-143 471.5,-149 471.5,-155 471.5,-155 471.5,-167 471.5,-167 471.5,-173 465.5,-179 459.5,-179"/>
<text text-anchor="middle" x="443.5" y="-158.8" font-family="Avenir Next" font-size="9.00" fill="#41515b">BIOL225</text>
</a>
</g>
</g>
<!-- course__BIOL186&#45;&gt;course__BIOL225 -->
<g id="edge9" class="edge">
<title>course__BIOL186&#45;&gt;course__BIOL225</title>
<path fill="none" stroke="#5d6972" stroke-width="1.2" d="M59.25,-99.38C131.5,-111 327.89,-142.57 407.89,-155.43"/>
<polygon fill="#5d6972" stroke="#5d6972" stroke-width="1.2" points="407.96,-157.93 415.26,-156.62 408.74,-153.09 407.96,-157.93"/>
</g>
<!-- course__BIOL186&#45;&gt;choice_BIOL184_0_0 -->
<g id="edge4" class="edge">
<title>course__BIOL186&#45;&gt;choice_BIOL184_0_0</title>
<path fill="none" stroke="#7a8389" d="M59.14,-83.64C76.06,-76.55 97.96,-67.38 115.9,-59.86"/>
<polygon fill="#7a8389" stroke="#7a8389" points="117.31,-61.93 122.82,-56.97 115.41,-57.41 117.31,-61.93"/>
</g>
<!-- course__BIOL184 -->
<g id="node3" class="node">
<title>course__BIOL184</title>
<g id="a_node3"><a xlink:href="../../../courses/BIOL184.html" xlink:title="BIOL184: Evolution and Biodiversity" target="_top">
<path fill="#dbe8d2" stroke="#7e8d96" d="M311,-64C311,-64 279,-64 279,-64 273,-64 267,-58 267,-52 267,-52 267,-40 267,-40 267,-34 273,-28 279,-28 279,-28 311,-28 311,-28 317,-28 323,-34 323,-40 323,-40 323,-52 323,-52 323,-58 317,-64 311,-64"/>
<text text-anchor="middle" x="295" y="-43.8" font-family="Avenir Next" font-size="9.00" fill="#41515b">BIOL184</text>
</a>
</g>
</g>
<!-- course__BIOL184&#45;&gt;course__BIOL225 -->
<g id="edge10" class="edge">
<title>course__BIOL184&#45;&gt;course__BIOL225</title>
<path fill="none" stroke="#5d6972" stroke-width="1.2" d="M319.21,-64.22C344.82,-84.33 386.06,-116.7 413.71,-138.4"/>
<polygon fill="#5d6972" stroke="#5d6972" stroke-width="1.2" points="412.38,-140.47 419.4,-142.86 415.4,-136.61 412.38,-140.47"/>
</g>
<!-- course__BIOL184&#45;&gt;choice_BIOL186_0_0 -->
<g id="edge7" class="edge">
<title>course__BIOL184&#45;&gt;choice_BIOL186_0_0</title>
<path fill="none" stroke="#7a8389" d="M323.21,-46C347.57,-46 383.34,-46 409.36,-46"/>
<polygon fill="#7a8389" stroke="#7a8389" points="409.42,-48.45 416.42,-46 409.42,-43.55 409.42,-48.45"/>
</g>
<!-- course__CHEM091 -->
<g id="node4" class="node">
<title>course__CHEM091</title>
<g id="a_node4"><a xlink:href="../../../courses/CHEM091.html" xlink:title="CHEM091: Introduction to Chemistry" target="_top">
<path fill="#ead9b8" stroke="#7e8d96" d="M313.5,-260C313.5,-260 276.5,-260 276.5,-260 270.5,-260 264.5,-254 264.5,-248 264.5,-248 264.5,-236 264.5,-236 264.5,-230 270.5,-224 276.5,-224 276.5,-224 313.5,-224 313.5,-224 319.5,-224 325.5,-230 325.5,-236 325.5,-236 325.5,-248 325.5,-248 325.5,-254 319.5,-260 313.5,-260"/>
<text text-anchor="middle" x="295" y="-239.8" font-family="Avenir Next" font-size="9.00" fill="#41515b">CHEM091</text>
</a>
</g>
</g>
<!-- course__CHEM102 -->
<g id="node8" class="node">
<title>course__CHEM102</title>
<g id="a_node8"><a xlink:href="../../../courses/CHEM102.html" xlink:title="CHEM102: Chemical Reactivity Fundamentals with Environmental Applications" target="_top">
<path fill="#ead9b8" stroke="#7e8d96" d="M462,-247C462,-247 425,-247 425,-247 419,-247 413,-241 413,-235 413,-235 413,-223 413,-223 413,-217 419,-211 425,-211 425,-211 462,-211 462,-211 468,-211 474,-217 474,-223 474,-223 474,-235 474,-235 474,-241 468,-247 462,-247"/>
<text text-anchor="middle" x="443.5" y="-226.8" font-family="Avenir Next" font-size="9.00" fill="#41515b">CHEM102</text>
</a>
</g>
</g>
<!-- course__CHEM091&#45;&gt;course__CHEM102 -->
<g id="edge18" class="edge">
<title>course__CHEM091&#45;&gt;course__CHEM102</title>
<path fill="none" stroke="#5d6972" stroke-width="1.2" d="M325.65,-239.37C348.78,-237.32 381.04,-234.45 405.8,-232.26"/>
<polygon fill="#5d6972" stroke="#5d6972" stroke-width="1.2" points="406.14,-234.69 412.9,-231.63 405.71,-229.81 406.14,-234.69"/>
</g>
<!-- course__CHEM101 -->
<g id="node5" class="node">
<title>course__CHEM101</title>
<g id="a_node5"><a xlink:href="../../../courses/CHEM101.html" xlink:title="Equivalent or cross&#45;listed: CHEM101: Fundamentals of Chemistry from Atoms to Materials | CHEM150: Engineering Chemistry" target="_top">
<path fill="#ead9b8" stroke="#7e8d96" d="M340,-316C340,-316 250,-316 250,-316 244,-316 238,-310 238,-304 238,-304 238,-292 238,-292 238,-286 244,-280 250,-280 250,-280 340,-280 340,-280 346,-280 352,-286 352,-292 352,-292 352,-304 352,-304 352,-310 346,-316 340,-316"/>
<text text-anchor="middle" x="295" y="-295.8" font-family="Avenir Next" font-size="9.00" fill="#41515b">CHEM101 / CHEM150</text>
</a>
</g>
</g>
<!-- course__CHEM101&#45;&gt;course__CHEM102 -->
<g id="edge19" class="edge">
<title>course__CHEM101&#45;&gt;course__CHEM102</title>
<path fill="none" stroke="#5d6972" stroke-width="1.2" d="M334.49,-279.87C356.62,-269.45 384.25,-256.43 406.03,-246.18"/>
<polygon fill="#5d6972" stroke="#5d6972" stroke-width="1.2" points="407.3,-248.29 412.59,-243.09 405.21,-243.85 407.3,-248.29"/>
</g>
<!-- course__CHEM231 -->
<g id="node9" class="node">
<title>course__CHEM231</title>
<g id="a_node9"><a xlink:href="../../../courses/CHEM231.html" xlink:title="CHEM231: Introduction to Organic Chemistry" target="_top">
<path fill="#ead9b8" stroke="#7e8d96" d="M462,-303C462,-303 425,-303 425,-303 419,-303 413,-297 413,-291 413,-291 413,-279 413,-279 413,-273 419,-267 425,-267 425,-267 462,-267 462,-267 468,-267 474,-273 474,-279 474,-279 474,-291 474,-291 474,-297 468,-303 462,-303"/>
<text text-anchor="middle" x="443.5" y="-282.8" font-family="Avenir Next" font-size="9.00" fill="#41515b">CHEM231</text>
</a>
</g>
</g>
<!-- course__CHEM101&#45;&gt;course__CHEM231 -->
<g id="edge21" class="edge">
<title>course__CHEM101&#45;&gt;course__CHEM231</title>
<path fill="none" stroke="#5d6972" stroke-width="1.2" d="M352.22,-293.01C370.14,-291.42 389.49,-289.7 405.66,-288.27"/>
<polygon fill="#5d6972" stroke="#5d6972" stroke-width="1.2" points="406.1,-290.69 412.85,-287.63 405.66,-285.81 406.1,-290.69"/>
</g>
<!-- course__MATH100 -->
<g id="node6" class="node">
<title>course__MATH100</title>
<g id="a_node6"><a xlink:href="../../../courses/MATH100.html" xlink:title="Equivalent or cross&#45;listed: MATH100: Calculus I | MATH102: Calculus for Students in the Social and Biological Sciences | MATH109: Introduction to Calculus" target="_top">
<path fill="#dfe3f4" stroke="#7e8d96" d="M338.5,-204C338.5,-204 251.5,-204 251.5,-204 245.5,-204 239.5,-198 239.5,-192 239.5,-192 239.5,-180 239.5,-180 239.5,-174 245.5,-168 251.5,-168 251.5,-168 338.5,-168 338.5,-168 344.5,-168 350.5,-174 350.5,-180 350.5,-180 350.5,-192 350.5,-192 350.5,-198 344.5,-204 338.5,-204"/>
<text text-anchor="middle" x="295" y="-188.8" font-family="Avenir Next" font-size="9.00" fill="#41515b">MATH100 / MATH102</text>
<text text-anchor="middle" x="295" y="-178.8" font-family="Avenir Next" font-size="9.00" fill="#41515b">MATH109</text>
</a>
</g>
</g>
<!-- course__MATH100&#45;&gt;course__CHEM102 -->
<g id="edge20" class="edge">
<title>course__MATH100&#45;&gt;course__CHEM102</title>
<path fill="none" stroke="#5d6972" stroke-width="1.2" d="M350.55,-202.01C369.06,-207.44 389.27,-213.38 406.02,-218.29"/>
<polygon fill="#5d6972" stroke="#5d6972" stroke-width="1.2" points="405.57,-220.71 412.97,-220.33 406.95,-216.01 405.57,-220.71"/>
</g>
<!-- course__BIOL230 -->
<g id="node10" class="node">
<title>course__BIOL230</title>
<g id="a_node10"><a xlink:href="../../../courses/BIOL230.html" xlink:title="BIOL230: Principles of Genetics" target="_top">
<path fill="#dbe8d2" stroke="#1b2730" stroke-width="1.6" d="M582,-303C582,-303 549,-303 549,-303 543,-303 537,-297 537,-291 537,-291 537,-279 537,-279 537,-273 543,-267 549,-267 549,-267 582,-267 582,-267 588,-267 594,-273 594,-279 594,-279 594,-291 594,-291 594,-297 588,-303 582,-303"/>
<text text-anchor="middle" x="565.5" y="-282.5" font-family="Avenir Next" font-size="10.00" fill="#17232b">BIOL230</text>
</a>
</g>
</g>
<!-- course__BIOL225&#45;&gt;course__BIOL230 -->
<g id="edge11" class="edge">
<title>course__BIOL225&#45;&gt;course__BIOL230</title>
<path fill="none" stroke="#5d6972" stroke-width="1.2" d="M461.22,-179.33C479.16,-198.87 508.65,-230.56 535,-257 536.6,-258.6 538.25,-260.24 539.93,-261.88"/>
<polygon fill="#5d6972" stroke="#5d6972" stroke-width="1.2" points="538.26,-263.67 544.99,-266.78 541.67,-260.15 538.26,-263.67"/>
</g>
<!-- course__BIOC300A -->
<g id="node12" class="node">
<title>course__BIOC300A</title>
<g id="a_node12"><a xlink:href="../../../courses/BIOC300A.html" xlink:title="BIOC300A: General Biochemistry I" target="_top">
<path fill="#e2e8d5" stroke="#1b2730" stroke-width="1.6" d="M710,-198C710,-198 669,-198 669,-198 663,-198 657,-192 657,-186 657,-186 657,-174 657,-174 657,-168 663,-162 669,-162 669,-162 710,-162 710,-162 716,-162 722,-168 722,-174 722,-174 722,-186 722,-186 722,-192 716,-198 710,-198"/>
<text text-anchor="middle" x="689.5" y="-177.5" font-family="Avenir Next" font-size="10.00" fill="#17232b">BIOC300A</text>
</a>
</g>
</g>
<!-- course__BIOL225&#45;&gt;course__BIOC300A -->
<g id="edge1" class="edge">
<title>course__BIOL225&#45;&gt;course__BIOC300A</title>
<path fill="none" stroke="#5d6972" stroke-width="1.2" d="M471.54,-163.11C514.83,-166.48 599.85,-173.1 649.63,-176.97"/>
<polygon fill="#5d6972" stroke="#5d6972" stroke-width="1.2" points="649.55,-179.42 656.71,-177.52 649.93,-174.54 649.55,-179.42"/>
</g>
<!-- course__CHEM234 -->
<g id="node11" class="node">
<title>course__CHEM234</title>
<g id="a_node11"><a xlink:href="../../../courses/CHEM234.html" xlink:title="CHEM234: Organic Chemistry with Biological Applications" target="_top">
<path fill="#ead9b8" stroke="#7e8d96" d="M584,-247C584,-247 547,-247 547,-247 541,-247 535,-241 535,-235 535,-235 535,-223 535,-223 535,-217 541,-211 547,-211 547,-211 584,-211 584,-211 590,-211 596,-217 596,-223 596,-223 596,-235 596,-235 596,-241 590,-247 584,-247"/>
<text text-anchor="middle" x="565.5" y="-226.8" font-family="Avenir Next" font-size="9.00" fill="#41515b">CHEM234</text>
</a>
</g>
</g>
<!-- course__CHEM102&#45;&gt;course__CHEM234 -->
<g id="edge22" class="edge">
<title>course__CHEM102&#45;&gt;course__CHEM234</title>
<path fill="none" stroke="#5d6972" stroke-width="1.2" d="M474.16,-229C490.32,-229 510.45,-229 527.61,-229"/>
<polygon fill="#5d6972" stroke="#5d6972" stroke-width="1.2" points="527.76,-231.45 534.76,-229 527.76,-226.55 527.76,-231.45"/>
</g>
<!-- course__CHEM231&#45;&gt;course__BIOL230 -->
<g id="edge12" class="edge">
<title>course__CHEM231&#45;&gt;course__BIOL230</title>
<path fill="none" stroke="#5d6972" stroke-width="1.2" d="M474.16,-285C490.92,-285 511.97,-285 529.53,-285"/>
<polygon fill="#5d6972" stroke="#5d6972" stroke-width="1.2" points="529.82,-287.45 536.82,-285 529.82,-282.55 529.82,-287.45"/>
</g>
<!-- course__CHEM231&#45;&gt;course__CHEM234 -->
<g id="edge23" class="edge">
<title>course__CHEM231&#45;&gt;course__CHEM234</title>
<path fill="none" stroke="#5d6972" stroke-width="1.2" d="M474.16,-271.16C490.46,-263.55 510.81,-254.05 528.07,-246"/>
<polygon fill="#5d6972" stroke="#5d6972" stroke-width="1.2" points="529.46,-248.06 534.76,-242.88 527.38,-243.62 529.46,-248.06"/>
</g>
<!-- course__BIOL355 -->
<g id="node13" class="node">
<title>course__BIOL355</title>
<g id="a_node13"><a xlink:href="../../../courses/BIOL355.html" xlink:title="BIOL355: Evolution" target="_top">
<path fill="#dbe8d2" stroke="#1b2730" stroke-width="1.6" d="M706,-254C706,-254 673,-254 673,-254 667,-254 661,-248 661,-242 661,-242 661,-230 661,-230 661,-224 667,-218 673,-218 673,-218 706,-218 706,-218 712,-218 718,-224 718,-230 718,-230 718,-242 718,-242 718,-248 712,-254 706,-254"/>
<text text-anchor="middle" x="689.5" y="-233.5" font-family="Avenir Next" font-size="10.00" fill="#17232b">BIOL355</text>
</a>
</g>
</g>
<!-- course__BIOL230&#45;&gt;course__BIOL355 -->
<g id="edge13" class="edge">
<title>course__BIOL230&#45;&gt;course__BIOL355</title>
<path fill="none" stroke="#5d6972" stroke-width="1.2" d="M594.18,-273.88C611.97,-266.74 635.2,-257.41 654.15,-249.79"/>
<polygon fill="#5d6972" stroke="#5d6972" stroke-width="1.2" points="655.34,-251.96 660.93,-247.07 653.52,-247.41 655.34,-251.96"/>
</g>
<!-- course__BIOL435 -->
<g id="node14" class="node">
<title>course__BIOL435</title>
<g id="a_node14"><a xlink:href="../../../courses/BIOL435.html" xlink:title="BIOL435: Molecular Evolution" target="_top">
<path fill="#dbe8d2" stroke="#1f4f66" stroke-width="2" d="M999,-278C999,-278 910,-278 910,-278 904,-278 898,-272 898,-266 898,-266 898,-254 898,-254 898,-248 904,-242 910,-242 910,-242 999,-242 999,-242 1005,-242 1011,-248 1011,-254 1011,-254 1011,-266 1011,-266 1011,-272 1005,-278 999,-278"/>
<text text-anchor="middle" x="954.5" y="-263" font-family="Avenir Next" font-size="10.00" fill="#17232b">BIOL435</text>
<text text-anchor="middle" x="954.5" y="-252" font-family="Avenir Next" font-size="10.00" fill="#17232b">Molecular Evolution</text>
</a>
</g>
</g>
<!-- course__BIOL230&#45;&gt;course__BIOL435 -->
<g id="edge14" class="edge">
<title>course__BIOL230&#45;&gt;course__BIOL435</title>
<path fill="none" stroke="#5d6972" stroke-width="1.2" d="M594.02,-283.22C655.5,-279.25 805.27,-269.58 890.84,-264.05"/>
<polygon fill="#5d6972" stroke="#5d6972" stroke-width="1.2" points="891.07,-266.49 897.9,-263.59 890.75,-261.6 891.07,-266.49"/>
</g>
<!-- course__CHEM234&#45;&gt;course__BIOC300A -->
<g id="edge2" class="edge">
<title>course__CHEM234&#45;&gt;course__BIOC300A</title>
<path fill="none" stroke="#5d6972" stroke-width="1.2" d="M596.03,-217.14C612.22,-210.64 632.48,-202.5 649.9,-195.5"/>
<polygon fill="#5d6972" stroke="#5d6972" stroke-width="1.2" points="651.09,-197.66 656.67,-192.78 649.27,-193.12 651.09,-197.66"/>
</g>
<!-- choice_BIOL435_1 -->
<g id="node17" class="node">
<title>choice_BIOL435_1</title>
<path fill="#fff7ee" stroke="#b7793f" stroke-width="1.1" d="M825,-254C825,-254 795,-254 795,-254 789,-254 783,-248 783,-242 783,-242 783,-230 783,-230 783,-224 789,-218 795,-218 795,-218 825,-218 825,-218 831,-218 837,-224 837,-230 837,-230 837,-242 837,-242 837,-248 831,-254 825,-254"/>
<text text-anchor="middle" x="810" y="-233.8" font-family="Avenir Next" font-size="9.00">1 of</text>
</g>
<!-- course__BIOC300A&#45;&gt;choice_BIOL435_1 -->
<g id="edge15" class="edge">
<title>course__BIOC300A&#45;&gt;choice_BIOL435_1</title>
<path fill="none" stroke="#7a8389" d="M722.26,-195.01C738.96,-202.9 759.41,-212.57 776.26,-220.53"/>
<polygon fill="#7a8389" stroke="#7a8389" points="775.39,-222.82 782.76,-223.6 777.48,-218.39 775.39,-222.82"/>
</g>
<!-- course__BIOL355&#45;&gt;choice_BIOL435_1 -->
<g id="edge16" class="edge">
<title>course__BIOL355&#45;&gt;choice_BIOL435_1</title>
<path fill="none" stroke="#7a8389" d="M718.28,-236C735.28,-236 757.15,-236 775.16,-236"/>
<polygon fill="#7a8389" stroke="#7a8389" points="775.61,-238.45 782.61,-236 775.61,-233.55 775.61,-238.45"/>
</g>
<!-- choice_BIOL184_0_0&#45;&gt;course__BIOL184 -->
<g id="edge5" class="edge">
<title>choice_BIOL184_0_0&#45;&gt;course__BIOL184</title>
<path fill="none" stroke="#5d6972" stroke-width="1.2" d="M177.23,-46C200.42,-46 234.4,-46 259.74,-46"/>
<polygon fill="#5d6972" stroke="#5d6972" stroke-width="1.2" points="259.97,-48.45 266.97,-46 259.97,-43.55 259.97,-48.45"/>
</g>
<!-- choice_BIOL186_0_0&#45;&gt;course__BIOL186 -->
<g id="edge8" class="edge">
<title>choice_BIOL186_0_0&#45;&gt;course__BIOL186</title>
<path fill="none" stroke="#5d6972" stroke-width="1.2" d="M416.38,-55.87C398.52,-62.17 374.16,-69.9 352,-74 249.36,-92.97 125.43,-95.42 66.44,-95.37"/>
<polygon fill="#5d6972" stroke="#5d6972" stroke-width="1.2" points="66.24,-92.92 59.24,-95.35 66.23,-97.82 66.24,-92.92"/>
</g>
<!-- choice_BIOL435_1&#45;&gt;course__BIOL435 -->
<g id="edge17" class="edge">
<title>choice_BIOL435_1&#45;&gt;course__BIOL435</title>
<path fill="none" stroke="#5d6972" stroke-width="1.2" d="M837.14,-240.4C852.24,-242.95 871.93,-246.26 890.81,-249.44"/>
<polygon fill="#5d6972" stroke="#5d6972" stroke-width="1.2" points="890.4,-251.86 897.71,-250.6 891.22,-247.03 890.4,-251.86"/>
</g>
</g>
</svg>
