<?xml version="1.0" encoding="UTF-8" standalone="no"?>
<!DOCTYPE svg PUBLIC "-//W3C//DTD SVG 1.1//EN"
 "http://www.w3.org/Graphics/SVG/1.1/DTD/svg11.dtd">
<!-- Generated by graphviz version 2.43.0 (0)
 -->
<!-- Title: BIOL335 Pages: 1 -->
<svg width="496pt" height="133pt"
 viewBox="0.00 0.00 496.20 133.20" xmlns="http://www.w3.org/2000/svg" xmlns:xlink="http://www.w3.org/1999/xlink">
<g id="graph0" class="graph" transform="scale(1 1) rotate(0) translate(21.6 111.6)">
<title>BIOL335</title>
<!-- course__BIOL215 -->
<g id="node1" class="node">
<title>course__BIOL215</title>
<g id="a_node1"><a xlink:href="../../../courses/BIOL215.html" xlink:title="BIOL215: Principles of Ecology" target="_top">
<path fill="#dbe8d2" stroke="#1b2730" stroke-width="1.6" d="M306,-90C306,-90 273,-90 273,-90 267,-90 261,-84 261,-78 261,-78 261,-66 261,-66 261,-60 267,-54 273,-54 273,-54 306,-54 306,-54 312,-54 318,-60 318,-66 318,-66 318,-78 318,-78 318,-84 312,-90 306,-90"/>
<text text-anchor="middle" x="289.5" y="-69.5" font-family="Avenir Next" font-size="10.00" fill="#17232b">BIOL215</text>
</a>
</g>
</g>
<!-- course__BIOL335 -->
<g id="node2" class="node">
<title>course__BIOL335</title>
<g id="a_node2"><a xlink:href="../../../courses/BIOL335.html" xlink:title="BIOL335: Ichthyology" target="_top">
<path fill="#dbe8d2" stroke="#1f4f66" stroke-width="2" d="M441,-65C441,-65 391,-65 391,-65 385,-65 379,-59 379,-53 379,-53 379,-41 379,-41 379,-35 385,-29 391,-29 391,-29 441,-29 441,-29 447,-29 453,-35 453,-41 453,-41 453,-53 453,-53 453,-59 447,-65 441,-65"/>
<text text-anchor="middle" x="416" y="-50" font-family="Avenir Next" font-size="10.00" fill="#17232b">BIOL335</text>
<text text-anchor="middle" x="416" y="-39" font-family="Avenir Next" font-size="10.00" fill="#17232b">Ichthyology</text>
</a>
</g>
</g>
<!-- course__BIOL215&#45;&gt;course__BIOL335 -->
<g id="edge2" class="edge">
<title>course__BIOL215&#45;&gt;course__BIOL335</title>
<path fill="none" stroke="#5d6972" stroke-width="1.2" d="M318.13,-66.45C333.94,-63.28 354.12,-59.22 371.97,-55.64"/>
<polygon fill="#5d6972" stroke="#5d6972" stroke-width="1.2" points="372.55,-58.02 378.93,-54.24 371.59,-53.22 372.55,-58.02"/>
</g>
<!-- BIOL335_notes -->
<g id="node3" class="node">
<title>BIOL335_notes</title>
<polygon fill="#fff7ee" stroke="#b7793f" stroke-width="1.1" points="194,-46 0,-46 0,0 200,0 200,-40 194,-46"/>
<polyline fill="none" stroke="#b7793f" stroke-width="1.1" points="194,-46 194,-40 "/>
<polyline fill="none" stroke="#b7793f" stroke-width="1.1" points="200,-40 194,-40 "/>
<text text-anchor="start" x="13" y="-26.4" font-family="Avenir Next" font-size="12.00">Published notes</text>
<text text-anchor="start" x="13" y="-13.4" font-family="Avenir Next" font-size="12.00">minimum third&#45;year standing</text>
</g>
<!-- BIOL335_notes&#45;&gt;course__BIOL335 -->
</g>
</svg>
