<?xml version="1.0" encoding="UTF-8" standalone="no"?>
<!DOCTYPE svg PUBLIC "-//W3C//DTD SVG 1.1//EN"
 "http://www.w3.org/Graphics/SVG/1.1/DTD/svg11.dtd">
<!-- Generated by graphviz version 2.43.0 (0)
 -->
<!-- Title: CHEM260 Pages: 1 -->
<svg width="520pt" height="191pt"
 viewBox="0.00 0.00 520.20 191.20" xmlns="http://www.w3.org/2000/svg" xmlns:xlink="http://www.w3.org/1999/xlink">
<g id="graph0" class="graph" transform="scale(1 1) rotate(0) translate(21.6 169.6)">
<title>CHEM260</title>
<!-- course__CHEM102 -->
<g id="node1" class="node">
<title>course__CHEM102</title>
<g id="a_node1"><a xlink:href="../../../courses/CHEM102.html" xlink:title="CHEM102: Chemical Reactivity Fundamentals with Environmental Applications" target="_top">
<path fill="#ead9b8" stroke="#1b2730" stroke-width="1.6" d="M52,-120C52,-120 12,-120 12,-120 6,-120 0,-114 0,-108 0,-108 0,-96 0,-96 0,-90 6,-84 12,-84 12,-84 52,-84 52,-84 58,-84 64,-90 64,-96 64,-96 64,-108 64,-108 64,-114 58,-120 52,-120"/>
<text text-anchor="middle" x="32" y="-99.5" font-family="Avenir Next" font-size="10.00" fill="#17232b">CHEM102</text>
</a>
</g>
</g>
<!-- course__CHEM260 -->
<g id="node3" class="node">
<title>course__CHEM260</title>
<g id="a_node3"><a xlink:href="../../../courses/CHEM260.html" xlink:title="CHEM260: Synthetic Chemistry Laboratory" target="_top">
<path fill="#ead9b8" stroke="#1f4f66" stroke-width="2" d="M284,-92C284,-92 137,-92 137,-92 131,-92 125,-86 125,-80 125,-80 125,-68 125,-68 125,-62 131,-56 137,-56 137,-56 284,-56 284,-56 290,-56 296,-62 296,-68 296,-68 296,-80 296,-80 296,-86 290,-92 284,-92"/>
<text text-anchor="middle" x="210.5" y="-77" font-family="Avenir Next" font-size="10.00" fill="#17232b">CHEM260</text>
<text text-anchor="middle" x="210.5" y="-66" font-family="Avenir Next" font-size="10.00" fill="#17232b">Synthetic Chemistry Laboratory</text>
</a>
</g>
</g>
<!-- course__CHEM102&#45;&gt;course__CHEM260 -->
<g id="edge1" class="edge">
<title>course__CHEM102&#45;&gt;course__CHEM260</title>
<path fill="none" stroke="#5d6972" stroke-width="1.2" d="M64.15,-97.06C79.31,-94.65 98.41,-91.62 117.73,-88.56"/>
<polygon fill="#5d6972" stroke="#5d6972" stroke-width="1.2" points="118.33,-90.94 124.86,-87.43 117.56,-86.1 118.33,-90.94"/>
</g>
<!-- course__CHEM231 -->
<g id="node2" class="node">
<title>course__CHEM231</title>
<g id="a_node2"><a xlink:href="../../../courses/CHEM231.html" xlink:title="CHEM231: Introduction to Organic Chemistry" target="_top">
<path fill="#ead9b8" stroke="#1b2730" stroke-width="1.6" d="M52,-64C52,-64 12,-64 12,-64 6,-64 0,-58 0,-52 0,-52 0,-40 0,-40 0,-34 6,-28 12,-28 12,-28 52,-28 52,-28 58,-28 64,-34 64,-40 64,-40 64,-52 64,-52 64,-58 58,-64 52,-64"/>
<text text-anchor="middle" x="32" y="-43.5" font-family="Avenir Next" font-size="10.00" fill="#17232b">CHEM231</text>
</a>
</g>
</g>
<!-- course__CHEM231&#45;&gt;course__CHEM260 -->
<g id="edge2" class="edge">
<title>course__CHEM231&#45;&gt;course__CHEM260</title>
<path fill="none" stroke="#5d6972" stroke-width="1.2" d="M64.15,-50.94C79.31,-53.35 98.41,-56.38 117.73,-59.44"/>
<polygon fill="#5d6972" stroke="#5d6972" stroke-width="1.2" points="117.56,-61.9 124.86,-60.57 118.33,-57.06 117.56,-61.9"/>
</g>
<!-- course__CHEM318 -->
<g id="node4" class="node">
<title>course__CHEM318</title>
<g id="a_node4"><a xlink:href="../../../courses/CHEM318.html" xlink:title="Equivalent or cross&#45;listed: CHEM318: Instrumental Techniques of Analysis | CHEM361: Analytical Chemistry Laboratory" target="_top">
<path fill="#ead9b8" stroke="#1b2730" stroke-width="1.6" d="M465,-148C465,-148 369,-148 369,-148 363,-148 357,-142 357,-136 357,-136 357,-124 357,-124 357,-118 363,-112 369,-112 369,-112 465,-112 465,-112 471,-112 477,-118 477,-124 477,-124 477,-136 477,-136 477,-142 471,-148 465,-148"/>
<text text-anchor="middle" x="417" y="-127.5" font-family="Avenir Next" font-size="10.00" fill="#17232b">CHEM318 / CHEM361</text>
</a>
</g>
</g>
<!-- course__CHEM260&#45;&gt;course__CHEM318 -->
<g id="edge3" class="edge">
<title>course__CHEM260&#45;&gt;course__CHEM318</title>
<path fill="none" stroke="#5d6972" stroke-width="1.2" d="M277.33,-92.03C300.6,-98.4 326.77,-105.57 350.06,-111.94"/>
<polygon fill="#5d6972" stroke="#5d6972" stroke-width="1.2" points="349.46,-114.32 356.86,-113.81 350.76,-109.59 349.46,-114.32"/>
</g>
<!-- course__CHEM362 -->
<g id="node5" class="node">
<title>course__CHEM362</title>
<g id="a_node5"><a xlink:href="../../../courses/CHEM362.html" xlink:title="CHEM362: Inorganic Chemistry Laboratory" target="_top">
<path fill="#ead9b8" stroke="#1b2730" stroke-width="1.6" d="M437,-92C437,-92 397,-92 397,-92 391,-92 385,-86 385,-80 385,-80 385,-68 385,-68 385,-62 391,-56 397,-56 397,-56 437,-56 437,-56 443,-56 449,-62 449,-68 449,-68 449,-80 449,-80 449,-86 443,-92 437,-92"/>
<text text-anchor="middle" x="417" y="-71.5" font-family="Avenir Next" font-size="10.00" fill="#17232b">CHEM362</text>
</a>
</g>
</g>
<!-- course__CHEM260&#45;&gt;course__CHEM362 -->
<g id="edge4" class="edge">
<title>course__CHEM260&#45;&gt;course__CHEM362</title>
<path fill="none" stroke="#5d6972" stroke-width="1.2" d="M296.15,-74C324.51,-74 354.73,-74 377.73,-74"/>
<polygon fill="#5d6972" stroke="#5d6972" stroke-width="1.2" points="377.93,-76.45 384.93,-74 377.93,-71.55 377.93,-76.45"/>
</g>
<!-- course__CHEM363 -->
<g id="node6" class="node">
<title>course__CHEM363</title>
<g id="a_node6"><a xlink:href="../../../courses/CHEM363.html" xlink:title="CHEM363: Organic Chemistry Laboratory" target="_top">
<path fill="#ead9b8" stroke="#1b2730" stroke-width="1.6" d="M437,-36C437,-36 397,-36 397,-36 391,-36 385,-30 385,-24 385,-24 385,-12 385,-12 385,-6 391,0 397,0 397,0 437,0 437,0 443,0 449,-6 449,-12 449,-12 449,-24 449,-24 449,-30 443,-36 437,-36"/>
<text text-anchor="middle" x="417" y="-15.5" font-family="Avenir Next" font-size="10.00" fill="#17232b">CHEM363</text>
</a>
</g>
</g>
<!-- course__CHEM260&#45;&gt;course__CHEM363 -->
<g id="edge5" class="edge">
<title>course__CHEM260&#45;&gt;course__CHEM363</title>
<path fill="none" stroke="#5d6972" stroke-width="1.2" d="M277.33,-55.97C310.59,-46.86 349.77,-36.14 377.98,-28.41"/>
<polygon fill="#5d6972" stroke="#5d6972" stroke-width="1.2" points="378.8,-30.73 384.9,-26.52 377.51,-26 378.8,-30.73"/>
</g>
</g>
</svg>
