<?xml version="1.0" encoding="UTF-8" standalone="no"?>
<!DOCTYPE svg PUBLIC "-//W3C//DTD SVG 1.1//EN"
 "http://www.w3.org/Graphics/SVG/1.1/DTD/svg11.dtd">
<!-- Generated by graphviz version 2.43.0 (0)
 -->
<!-- Title: CIVE315 Pages: 1 -->
<svg width="163pt" height="79pt"
 viewBox="0.00 0.00 163.20 79.20" xmlns="http://www.w3.org/2000/svg" xmlns:xlink="http://www.w3.org/1999/xlink">
<g id="graph0" class="graph" transform="scale(1 1) rotate(0) translate(21.6 57.6)">
<title>CIVE315</title>
<!-- course__CIVE315 -->
<g id="node1" class="node">
<title>course__CIVE315</title>
<g id="a_node1"><a xlink:href="../../../courses/CIVE315.html" xlink:title="CIVE315: Environmental Policy" target="_top">
<path fill="#f2ece3" stroke="#1f4f66" stroke-width="2" d="M108,-36C108,-36 12,-36 12,-36 6,-36 0,-30 0,-24 0,-24 0,-12 0,-12 0,-6 6,0 12,0 12,0 108,0 108,0 114,0 120,-6 120,-12 120,-12 120,-24 120,-24 120,-30 114,-36 108,-36"/>
<text text-anchor="middle" x="60" y="-21" font-family="Avenir Next" font-size="10.00" fill="#17232b">CIVE315</text>
<text text-anchor="middle" x="60" y="-10" font-family="Avenir Next" font-size="10.00" fill="#17232b">Environmental Policy</text>
</a>
</g>
</g>
</g>
</svg>
