<?xml version="1.0" encoding="UTF-8" standalone="no"?>
<!DOCTYPE svg PUBLIC "-//W3C//DTD SVG 1.1//EN"
 "http://www.w3.org/Graphics/SVG/1.1/DTD/svg11.dtd">
<!-- Generated by graphviz version 2.43.0 (0)
 -->
<!-- Title: CSC110 Pages: 1 -->
<svg width="1599pt" height="642pt"
 viewBox="0.00 0.00 1599.20 642.20" xmlns="http://www.w3.org/2000/svg" xmlns:xlink="http://www.w3.org/1999/xlink">
<g id="graph0" class="graph" transform="scale(1 1) rotate(0) translate(21.6 620.6)">
<title>CSC110</title>
<!-- course__MATH100 -->
<g id="node1" class="node">
<title>course__MATH100</title>
<g id="a_node1"><a xlink:href="../../../courses/MATH100.html" xlink:title="Equivalent or cross&#45;listed: MATH100: Calculus I | MATH102: Calculus for Students in the Social and Biological Sciences | MATH109: Introduction to Calculus" target="_top">
<path fill="#dfe3f4" stroke="#1b2730" stroke-width="1.6" d="M336,-338C336,-338 241,-338 241,-338 235,-338 229,-332 229,-326 229,-326 229,-314 229,-314 229,-308 235,-302 241,-302 241,-302 336,-302 336,-302 342,-302 348,-308 348,-314 348,-314 348,-326 348,-326 348,-332 342,-338 336,-338"/>
<text text-anchor="middle" x="288.5" y="-323" font-family="Avenir Next" font-size="10.00" fill="#17232b">MATH100 / MATH102</text>
<text text-anchor="middle" x="288.5" y="-312" font-family="Avenir Next" font-size="10.00" fill="#17232b">MATH109</text>
</a>
</g>
</g>
<!-- course__CSC110 -->
<g id="node2" class="node">
<title>course__CSC110</title>
<g id="a_node2"><a xlink:href="../../../courses/CSC110.html" xlink:title="Equivalent or cross&#45;listed: CSC110: Fundamentals of Programming I | CSC111: Fundamentals of Programming with Engineering Applications" target="_top">
<path fill="#e7ddec" stroke="#1f4f66" stroke-width="2" d="M570,-313C570,-313 421,-313 421,-313 415,-313 409,-307 409,-301 409,-301 409,-289 409,-289 409,-283 415,-277 421,-277 421,-277 570,-277 570,-277 576,-277 582,-283 582,-289 582,-289 582,-301 582,-301 582,-307 576,-313 570,-313"/>
<text text-anchor="middle" x="495.5" y="-298" font-family="Avenir Next" font-size="10.00" fill="#17232b">CSC110 / CSC111</text>
<text text-anchor="middle" x="495.5" y="-287" font-family="Avenir Next" font-size="10.00" fill="#17232b">Fundamentals of Programming I</text>
</a>
</g>
</g>
<!-- course__MATH100&#45;&gt;course__CSC110 -->
<g id="edge2" class="edge">
<title>course__MATH100&#45;&gt;course__CSC110</title>
<path fill="none" stroke="#5d6972" stroke-width="1.2" d="M348.24,-312.84C364.85,-310.81 383.35,-308.56 401.44,-306.35"/>
<polygon fill="#5d6972" stroke="#5d6972" stroke-width="1.2" points="401.97,-308.75 408.63,-305.47 401.38,-303.89 401.97,-308.75"/>
</g>
<!-- course__EOS321 -->
<g id="node3" class="node">
<title>course__EOS321</title>
<g id="a_node3"><a xlink:href="../../../courses/EOS321.html" xlink:title="EOS321: Earth History" target="_top">
<path fill="#d7e9ef" stroke="#1b2730" stroke-width="1.6" d="M716,-369C716,-369 686,-369 686,-369 680,-369 674,-363 674,-357 674,-357 674,-345 674,-345 674,-339 680,-333 686,-333 686,-333 716,-333 716,-333 722,-333 728,-339 728,-345 728,-345 728,-357 728,-357 728,-363 722,-369 716,-369"/>
<text text-anchor="middle" x="701" y="-348.5" font-family="Avenir Next" font-size="10.00" fill="#17232b">EOS321</text>
</a>
</g>
</g>
<!-- course__CSC110&#45;&gt;course__EOS321 -->
<g id="edge4" class="edge">
<title>course__CSC110&#45;&gt;course__EOS321</title>
<path fill="none" stroke="#5d6972" stroke-width="1.2" d="M562.01,-313.03C597.03,-322.67 638.65,-334.12 666.96,-341.91"/>
<polygon fill="#5d6972" stroke="#5d6972" stroke-width="1.2" points="666.45,-344.31 673.85,-343.8 667.75,-339.59 666.45,-344.31"/>
</g>
<!-- course__EOS325 -->
<g id="node4" class="node">
<title>course__EOS325</title>
<g id="a_node4"><a xlink:href="../../../courses/EOS325.html" xlink:title="EOS325: Earth System Modelling" target="_top">
<path fill="#d7e9ef" stroke="#1b2730" stroke-width="1.6" d="M716,-172C716,-172 686,-172 686,-172 680,-172 674,-166 674,-160 674,-160 674,-148 674,-148 674,-142 680,-136 686,-136 686,-136 716,-136 716,-136 722,-136 728,-142 728,-148 728,-148 728,-160 728,-160 728,-166 722,-172 716,-172"/>
<text text-anchor="middle" x="701" y="-151.5" font-family="Avenir Next" font-size="10.00" fill="#17232b">EOS325</text>
</a>
</g>
</g>
<!-- course__CSC110&#45;&gt;course__EOS325 -->
<g id="edge5" class="edge">
<title>course__CSC110&#45;&gt;course__EOS325</title>
<path fill="none" stroke="#5d6972" stroke-width="1.2" d="M522.69,-276.86C559.78,-251.16 627.56,-204.19 667.71,-176.37"/>
<polygon fill="#5d6972" stroke="#5d6972" stroke-width="1.2" points="669.55,-178.08 673.91,-172.07 666.76,-174.05 669.55,-178.08"/>
</g>
<!-- course__MATH248 -->
<g id="node5" class="node">
<title>course__MATH248</title>
<g id="a_node5"><a xlink:href="../../../courses/MATH248.html" xlink:title="Equivalent or cross&#45;listed: MATH248: Computer Assisted Mathematics | PHYS248: Computer Assisted Physics" target="_top">
<path fill="#dfe3f4" stroke="#1b2730" stroke-width="1.6" d="M747,-313C747,-313 655,-313 655,-313 649,-313 643,-307 643,-301 643,-301 643,-289 643,-289 643,-283 649,-277 655,-277 655,-277 747,-277 747,-277 753,-277 759,-283 759,-289 759,-289 759,-301 759,-301 759,-307 753,-313 747,-313"/>
<text text-anchor="middle" x="701" y="-292.5" font-family="Avenir Next" font-size="10.00" fill="#17232b">MATH248 / PHYS248</text>
</a>
</g>
</g>
<!-- course__CSC110&#45;&gt;course__MATH248 -->
<g id="edge22" class="edge">
<title>course__CSC110&#45;&gt;course__MATH248</title>
<path fill="none" stroke="#5d6972" stroke-width="1.2" d="M582.21,-295C600.08,-295 618.63,-295 635.57,-295"/>
<polygon fill="#5d6972" stroke="#5d6972" stroke-width="1.2" points="635.73,-297.45 642.73,-295 635.73,-292.55 635.73,-297.45"/>
</g>
<!-- course__EOS340 -->
<g id="node6" class="node">
<title>course__EOS340</title>
<g id="a_node6"><a xlink:href="../../../courses/EOS340.html" xlink:title="Equivalent or cross&#45;listed: EOS340: Atmospheric Physics | PHYS340: Atmospheric Physics" target="_top">
<path fill="#d7e9ef" stroke="#7e8d96" d="M1027,-172C1027,-172 947,-172 947,-172 941,-172 935,-166 935,-160 935,-160 935,-148 935,-148 935,-142 941,-136 947,-136 947,-136 1027,-136 1027,-136 1033,-136 1039,-142 1039,-148 1039,-148 1039,-160 1039,-160 1039,-166 1033,-172 1027,-172"/>
<text text-anchor="middle" x="987" y="-151.8" font-family="Avenir Next" font-size="9.00" fill="#41515b">EOS340 / PHYS340</text>
</a>
</g>
</g>
<!-- course__EOS325&#45;&gt;course__EOS340 -->
<g id="edge6" class="edge">
<title>course__EOS325&#45;&gt;course__EOS340</title>
<path fill="none" stroke="#5d6972" stroke-width="1.2" d="M728.21,-154C773.27,-154 866.47,-154 927.59,-154"/>
<polygon fill="#5d6972" stroke="#5d6972" stroke-width="1.2" points="927.88,-156.45 934.88,-154 927.88,-151.55 927.88,-156.45"/>
</g>
<!-- course__EOS423 -->
<g id="node7" class="node">
<title>course__EOS423</title>
<g id="a_node7"><a xlink:href="../../../courses/EOS423.html" xlink:title="EOS423: Advanced Sedimentology and Stratigraphy" target="_top">
<path fill="#d7e9ef" stroke="#7e8d96" d="M1002,-116C1002,-116 972,-116 972,-116 966,-116 960,-110 960,-104 960,-104 960,-92 960,-92 960,-86 966,-80 972,-80 972,-80 1002,-80 1002,-80 1008,-80 1014,-86 1014,-92 1014,-92 1014,-104 1014,-104 1014,-110 1008,-116 1002,-116"/>
<text text-anchor="middle" x="987" y="-95.8" font-family="Avenir Next" font-size="9.00" fill="#41515b">EOS423</text>
</a>
</g>
</g>
<!-- course__EOS325&#45;&gt;course__EOS423 -->
<g id="edge10" class="edge">
<title>course__EOS325&#45;&gt;course__EOS423</title>
<path fill="none" stroke="#5d6972" stroke-width="1.2" d="M728.21,-148.83C780.09,-138.6 895.79,-115.79 952.86,-104.53"/>
<polygon fill="#5d6972" stroke="#5d6972" stroke-width="1.2" points="953.46,-106.91 959.85,-103.16 952.51,-102.11 953.46,-106.91"/>
</g>
<!-- course__EOS431 -->
<g id="node8" class="node">
<title>course__EOS431</title>
<g id="a_node8"><a xlink:href="../../../courses/EOS431.html" xlink:title="Equivalent or cross&#45;listed: EOS431: Physical Oceanography | PHYS441: Physical Oceanography" target="_top">
<path fill="#d7e9ef" stroke="#7e8d96" d="M1027,-60C1027,-60 947,-60 947,-60 941,-60 935,-54 935,-48 935,-48 935,-36 935,-36 935,-30 941,-24 947,-24 947,-24 1027,-24 1027,-24 1033,-24 1039,-30 1039,-36 1039,-36 1039,-48 1039,-48 1039,-54 1033,-60 1027,-60"/>
<text text-anchor="middle" x="987" y="-39.8" font-family="Avenir Next" font-size="9.00" fill="#41515b">EOS431 / PHYS441</text>
</a>
</g>
</g>
<!-- course__EOS325&#45;&gt;course__EOS431 -->
<g id="edge13" class="edge">
<title>course__EOS325&#45;&gt;course__EOS431</title>
<path fill="none" stroke="#5d6972" stroke-width="1.2" d="M728.21,-143.66C774.68,-125.34 872.37,-86.81 933.24,-62.81"/>
<polygon fill="#5d6972" stroke="#5d6972" stroke-width="1.2" points="934.5,-64.94 940.11,-60.1 932.7,-60.38 934.5,-64.94"/>
</g>
<!-- choice_EOS460_0_0 -->
<g id="node28" class="node">
<title>choice_EOS460_0_0</title>
<path fill="#fff7ee" stroke="#b7793f" stroke-width="1.1" d="M862,-228C862,-228 832,-228 832,-228 826,-228 820,-222 820,-216 820,-216 820,-204 820,-204 820,-198 826,-192 832,-192 832,-192 862,-192 862,-192 868,-192 874,-198 874,-204 874,-204 874,-216 874,-216 874,-222 868,-228 862,-228"/>
<text text-anchor="middle" x="847" y="-207.8" font-family="Avenir Next" font-size="9.00">1 of</text>
</g>
<!-- course__EOS325&#45;&gt;choice_EOS460_0_0 -->
<g id="edge17" class="edge">
<title>course__EOS325&#45;&gt;choice_EOS460_0_0</title>
<path fill="none" stroke="#7a8389" d="M728.08,-164.14C751.89,-173.4 787.19,-187.13 812.96,-197.15"/>
<polygon fill="#7a8389" stroke="#7a8389" points="812.22,-199.49 819.63,-199.75 813.99,-194.92 812.22,-199.49"/>
</g>
<!-- course__MATH348 -->
<g id="node10" class="node">
<title>course__MATH348</title>
<g id="a_node10"><a xlink:href="../../../courses/MATH348.html" xlink:title="MATH348: Numerical Methods" target="_top">
<path fill="#dfe3f4" stroke="#7e8d96" d="M1004.5,-284C1004.5,-284 969.5,-284 969.5,-284 963.5,-284 957.5,-278 957.5,-272 957.5,-272 957.5,-260 957.5,-260 957.5,-254 963.5,-248 969.5,-248 969.5,-248 1004.5,-248 1004.5,-248 1010.5,-248 1016.5,-254 1016.5,-260 1016.5,-260 1016.5,-272 1016.5,-272 1016.5,-278 1010.5,-284 1004.5,-284"/>
<text text-anchor="middle" x="987" y="-263.8" font-family="Avenir Next" font-size="9.00" fill="#41515b">MATH348</text>
</a>
</g>
</g>
<!-- course__MATH248&#45;&gt;course__MATH348 -->
<g id="edge23" class="edge">
<title>course__MATH248&#45;&gt;course__MATH348</title>
<path fill="none" stroke="#5d6972" stroke-width="1.2" d="M759.13,-289.17C816.14,-283.35 901.96,-274.58 950.06,-269.67"/>
<polygon fill="#5d6972" stroke="#5d6972" stroke-width="1.2" points="950.44,-272.09 957.16,-268.95 949.94,-267.22 950.44,-272.09"/>
</g>
<!-- course__PHYS321A -->
<g id="node11" class="node">
<title>course__PHYS321A</title>
<g id="a_node11"><a xlink:href="../../../courses/PHYS321A.html" xlink:title="PHYS321A: Classical Mechanics I" target="_top">
<path fill="#efd8cf" stroke="#7e8d96" d="M1007,-452C1007,-452 967,-452 967,-452 961,-452 955,-446 955,-440 955,-440 955,-428 955,-428 955,-422 961,-416 967,-416 967,-416 1007,-416 1007,-416 1013,-416 1019,-422 1019,-428 1019,-428 1019,-440 1019,-440 1019,-446 1013,-452 1007,-452"/>
<text text-anchor="middle" x="987" y="-431.8" font-family="Avenir Next" font-size="9.00" fill="#41515b">PHYS321A</text>
</a>
</g>
</g>
<!-- course__MATH248&#45;&gt;course__PHYS321A -->
<g id="edge25" class="edge">
<title>course__MATH248&#45;&gt;course__PHYS321A</title>
<path fill="none" stroke="#5d6972" stroke-width="1.2" d="M738.8,-313.07C745.52,-316.37 752.47,-319.79 759,-323 786.11,-336.33 792.87,-339.71 820,-353 864.01,-374.56 914.62,-399.24 948.28,-415.64"/>
<polygon fill="#5d6972" stroke="#5d6972" stroke-width="1.2" points="947.41,-417.94 954.78,-418.8 949.56,-413.53 947.41,-417.94"/>
</g>
<!-- course__PHYS323 -->
<g id="node12" class="node">
<title>course__PHYS323</title>
<g id="a_node12"><a xlink:href="../../../courses/PHYS323.html" xlink:title="PHYS323: Quantum Mechanics I" target="_top">
<path fill="#efd8cf" stroke="#7e8d96" d="M1004,-340C1004,-340 970,-340 970,-340 964,-340 958,-334 958,-328 958,-328 958,-316 958,-316 958,-310 964,-304 970,-304 970,-304 1004,-304 1004,-304 1010,-304 1016,-310 1016,-316 1016,-316 1016,-328 1016,-328 1016,-334 1010,-340 1004,-340"/>
<text text-anchor="middle" x="987" y="-319.8" font-family="Avenir Next" font-size="9.00" fill="#41515b">PHYS323</text>
</a>
</g>
</g>
<!-- course__MATH248&#45;&gt;course__PHYS323 -->
<g id="edge27" class="edge">
<title>course__MATH248&#45;&gt;course__PHYS323</title>
<path fill="none" stroke="#5d6972" stroke-width="1.2" d="M759.13,-300.43C816.44,-305.88 902.89,-314.1 950.83,-318.66"/>
<polygon fill="#5d6972" stroke="#5d6972" stroke-width="1.2" points="950.7,-321.11 957.9,-319.33 951.17,-316.23 950.7,-321.11"/>
</g>
<!-- course__PHYS326 -->
<g id="node13" class="node">
<title>course__PHYS326</title>
<g id="a_node13"><a xlink:href="../../../courses/PHYS326.html" xlink:title="PHYS326: Electricity and Magnetism" target="_top">
<path fill="#efd8cf" stroke="#7e8d96" d="M1004,-396C1004,-396 970,-396 970,-396 964,-396 958,-390 958,-384 958,-384 958,-372 958,-372 958,-366 964,-360 970,-360 970,-360 1004,-360 1004,-360 1010,-360 1016,-366 1016,-372 1016,-372 1016,-384 1016,-384 1016,-390 1010,-396 1004,-396"/>
<text text-anchor="middle" x="987" y="-375.8" font-family="Avenir Next" font-size="9.00" fill="#41515b">PHYS326</text>
</a>
</g>
</g>
<!-- course__MATH248&#45;&gt;course__PHYS326 -->
<g id="edge28" class="edge">
<title>course__MATH248&#45;&gt;course__PHYS326</title>
<path fill="none" stroke="#5d6972" stroke-width="1.2" d="M759.13,-311.7C816.56,-328.48 903.25,-353.82 951.13,-367.81"/>
<polygon fill="#5d6972" stroke="#5d6972" stroke-width="1.2" points="950.5,-370.18 957.9,-369.79 951.87,-365.47 950.5,-370.18"/>
</g>
<!-- course__MATH248&#45;&gt;choice_EOS460_0_0 -->
<g id="edge18" class="edge">
<title>course__MATH248&#45;&gt;choice_EOS460_0_0</title>
<path fill="none" stroke="#7a8389" d="M732.54,-276.97C756.34,-262.93 789.3,-243.47 813.57,-229.15"/>
<polygon fill="#7a8389" stroke="#7a8389" points="815.07,-231.1 819.85,-225.44 812.58,-226.88 815.07,-231.1"/>
</g>
<!-- course__EOS433 -->
<g id="node16" class="node">
<title>course__EOS433</title>
<g id="a_node16"><a xlink:href="../../../courses/EOS433.html" xlink:title="EOS433: The Physics of Climate" target="_top">
<path fill="#d7e9ef" stroke="#7e8d96" d="M1282,-116C1282,-116 1252,-116 1252,-116 1246,-116 1240,-110 1240,-104 1240,-104 1240,-92 1240,-92 1240,-86 1246,-80 1252,-80 1252,-80 1282,-80 1282,-80 1288,-80 1294,-86 1294,-92 1294,-92 1294,-104 1294,-104 1294,-110 1288,-116 1282,-116"/>
<text text-anchor="middle" x="1267" y="-95.8" font-family="Avenir Next" font-size="9.00" fill="#41515b">EOS433</text>
</a>
</g>
</g>
<!-- course__EOS340&#45;&gt;course__EOS433 -->
<g id="edge14" class="edge">
<title>course__EOS340&#45;&gt;course__EOS433</title>
<path fill="none" stroke="#5d6972" stroke-width="1.2" d="M1039.31,-143.66C1095.72,-132.3 1184.69,-114.38 1232.68,-104.71"/>
<polygon fill="#5d6972" stroke="#5d6972" stroke-width="1.2" points="1233.35,-107.08 1239.73,-103.29 1232.39,-102.27 1233.35,-107.08"/>
</g>
<!-- course__EOS451 -->
<g id="node17" class="node">
<title>course__EOS451</title>
<g id="a_node17"><a xlink:href="../../../courses/EOS451.html" xlink:title="EOS451: Introductory Dynamic Meteorology" target="_top">
<path fill="#d7e9ef" stroke="#7e8d96" d="M1282,-284C1282,-284 1252,-284 1252,-284 1246,-284 1240,-278 1240,-272 1240,-272 1240,-260 1240,-260 1240,-254 1246,-248 1252,-248 1252,-248 1282,-248 1282,-248 1288,-248 1294,-254 1294,-260 1294,-260 1294,-272 1294,-272 1294,-278 1288,-284 1282,-284"/>
<text text-anchor="middle" x="1267" y="-263.8" font-family="Avenir Next" font-size="9.00" fill="#41515b">EOS451</text>
</a>
</g>
</g>
<!-- course__EOS340&#45;&gt;course__EOS451 -->
<g id="edge15" class="edge">
<title>course__EOS340&#45;&gt;course__EOS451</title>
<path fill="none" stroke="#5d6972" stroke-width="1.2" d="M1032.97,-172.12C1089.04,-194.71 1183.53,-232.77 1233.21,-252.79"/>
<polygon fill="#5d6972" stroke="#5d6972" stroke-width="1.2" points="1232.51,-255.15 1239.91,-255.49 1234.34,-250.6 1232.51,-255.15"/>
</g>
<!-- course__GEOG370 -->
<g id="node18" class="node">
<title>course__GEOG370</title>
<g id="a_node18"><a xlink:href="../../../courses/GEOG370.html" xlink:title="GEOG370: Methods in Hydrology" target="_top">
<path fill="#e7e2d8" stroke="#7e8d96" d="M1285.5,-172C1285.5,-172 1248.5,-172 1248.5,-172 1242.5,-172 1236.5,-166 1236.5,-160 1236.5,-160 1236.5,-148 1236.5,-148 1236.5,-142 1242.5,-136 1248.5,-136 1248.5,-136 1285.5,-136 1285.5,-136 1291.5,-136 1297.5,-142 1297.5,-148 1297.5,-148 1297.5,-160 1297.5,-160 1297.5,-166 1291.5,-172 1285.5,-172"/>
<text text-anchor="middle" x="1267" y="-151.8" font-family="Avenir Next" font-size="9.00" fill="#41515b">GEOG370</text>
</a>
</g>
</g>
<!-- course__EOS340&#45;&gt;course__GEOG370 -->
<g id="edge20" class="edge">
<title>course__EOS340&#45;&gt;course__GEOG370</title>
<path fill="none" stroke="#5d6972" stroke-width="1.2" d="M1039.31,-154C1094.38,-154 1180.47,-154 1229.18,-154"/>
<polygon fill="#5d6972" stroke="#5d6972" stroke-width="1.2" points="1229.38,-156.45 1236.38,-154 1229.38,-151.55 1229.38,-156.45"/>
</g>
<!-- choice_PHYS411_0_0 -->
<g id="node29" class="node">
<title>choice_PHYS411_0_0</title>
<path fill="#fff7ee" stroke="#b7793f" stroke-width="1.1" d="M1142,-319C1142,-319 1112,-319 1112,-319 1106,-319 1100,-313 1100,-307 1100,-307 1100,-295 1100,-295 1100,-289 1106,-283 1112,-283 1112,-283 1142,-283 1142,-283 1148,-283 1154,-289 1154,-295 1154,-295 1154,-307 1154,-307 1154,-313 1148,-319 1142,-319"/>
<text text-anchor="middle" x="1127" y="-298.8" font-family="Avenir Next" font-size="9.00">2 of</text>
</g>
<!-- course__EOS340&#45;&gt;choice_PHYS411_0_0 -->
<g id="edge30" class="edge">
<title>course__EOS340&#45;&gt;choice_PHYS411_0_0</title>
<path fill="none" stroke="#7a8389" d="M1025.54,-172.01C1030.3,-175.03 1034.93,-178.37 1039,-182 1073.98,-213.18 1071.94,-230.47 1100,-268 1102.29,-271.07 1104.74,-274.26 1107.18,-277.41"/>
<polygon fill="#7a8389" stroke="#7a8389" points="1105.29,-278.97 1111.53,-282.97 1109.15,-275.95 1105.29,-278.97"/>
</g>
<!-- course__EOS312 -->
<g id="node14" class="node">
<title>course__EOS312</title>
<g id="a_node14"><a xlink:href="../../../courses/EOS312.html" xlink:title="EOS312: Introductory Chemical Oceanography" target="_top">
<path fill="#d7e9ef" stroke="#7e8d96" d="M1282,-60C1282,-60 1252,-60 1252,-60 1246,-60 1240,-54 1240,-48 1240,-48 1240,-36 1240,-36 1240,-30 1246,-24 1252,-24 1252,-24 1282,-24 1282,-24 1288,-24 1294,-30 1294,-36 1294,-36 1294,-48 1294,-48 1294,-54 1288,-60 1282,-60"/>
<text text-anchor="middle" x="1267" y="-39.8" font-family="Avenir Next" font-size="9.00" fill="#41515b">EOS312</text>
</a>
</g>
</g>
<!-- course__EOS431&#45;&gt;course__EOS312 -->
<g id="edge3" class="edge">
<title>course__EOS431&#45;&gt;course__EOS312</title>
<path fill="none" stroke="#5d6972" stroke-width="1.2" d="M1039.31,-42C1095.72,-42 1184.69,-42 1232.68,-42"/>
<polygon fill="#5d6972" stroke="#5d6972" stroke-width="1.2" points="1232.73,-44.45 1239.73,-42 1232.73,-39.55 1232.73,-44.45"/>
</g>
<!-- choice_EOS401_0 -->
<g id="node27" class="node">
<title>choice_EOS401_0</title>
<path fill="#fff7ee" stroke="#b7793f" stroke-width="1.1" d="M1422,-36C1422,-36 1392,-36 1392,-36 1386,-36 1380,-30 1380,-24 1380,-24 1380,-12 1380,-12 1380,-6 1386,0 1392,0 1392,0 1422,0 1422,0 1428,0 1434,-6 1434,-12 1434,-12 1434,-24 1434,-24 1434,-30 1428,-36 1422,-36"/>
<text text-anchor="middle" x="1407" y="-15.8" font-family="Avenir Next" font-size="9.00">3 of</text>
</g>
<!-- course__EOS431&#45;&gt;choice_EOS401_0 -->
<g id="edge8" class="edge">
<title>course__EOS431&#45;&gt;choice_EOS401_0</title>
<path fill="none" stroke="#7a8389" d="M1039.22,-33.86C1085.12,-27 1154.36,-17.73 1215,-14 1261.14,-11.17 1272.79,-12.94 1319,-14 1336.7,-14.41 1356.4,-15.28 1372.58,-16.1"/>
<polygon fill="#7a8389" stroke="#7a8389" points="1372.62,-18.56 1379.74,-16.48 1372.88,-13.67 1372.62,-18.56"/>
</g>
<!-- course__EOS431&#45;&gt;choice_PHYS411_0_0 -->
<g id="edge31" class="edge">
<title>course__EOS431&#45;&gt;choice_PHYS411_0_0</title>
<path fill="none" stroke="#7a8389" d="M1028,-60.16C1032.04,-63.06 1035.82,-66.34 1039,-70 1092.59,-131.79 1114.63,-229.86 1122.38,-275.75"/>
<polygon fill="#7a8389" stroke="#7a8389" points="1120,-276.4 1123.54,-282.92 1124.84,-275.62 1120,-276.4"/>
</g>
<!-- course__EOS460 -->
<g id="node9" class="node">
<title>course__EOS460</title>
<g id="a_node9"><a xlink:href="../../../courses/EOS460.html" xlink:title="EOS460: Earth System Science" target="_top">
<path fill="#d7e9ef" stroke="#7e8d96" d="M1002,-228C1002,-228 972,-228 972,-228 966,-228 960,-222 960,-216 960,-216 960,-204 960,-204 960,-198 966,-192 972,-192 972,-192 1002,-192 1002,-192 1008,-192 1014,-198 1014,-204 1014,-204 1014,-216 1014,-216 1014,-222 1008,-228 1002,-228"/>
<text text-anchor="middle" x="987" y="-207.8" font-family="Avenir Next" font-size="9.00" fill="#41515b">EOS460</text>
</a>
</g>
</g>
<!-- course__MATH449 -->
<g id="node19" class="node">
<title>course__MATH449</title>
<g id="a_node19"><a xlink:href="../../../courses/MATH449.html" xlink:title="MATH449: Scientific Computing" target="_top">
<path fill="#dfe3f4" stroke="#7e8d96" d="M1284.5,-228C1284.5,-228 1249.5,-228 1249.5,-228 1243.5,-228 1237.5,-222 1237.5,-216 1237.5,-216 1237.5,-204 1237.5,-204 1237.5,-198 1243.5,-192 1249.5,-192 1249.5,-192 1284.5,-192 1284.5,-192 1290.5,-192 1296.5,-198 1296.5,-204 1296.5,-204 1296.5,-216 1296.5,-216 1296.5,-222 1290.5,-228 1284.5,-228"/>
<text text-anchor="middle" x="1267" y="-207.8" font-family="Avenir Next" font-size="9.00" fill="#41515b">MATH449</text>
</a>
</g>
</g>
<!-- course__MATH348&#45;&gt;course__MATH449 -->
<g id="edge24" class="edge">
<title>course__MATH348&#45;&gt;course__MATH449</title>
<path fill="none" stroke="#5d6972" stroke-width="1.2" d="M1016.7,-260.22C1067.82,-249.92 1174.47,-228.44 1230.26,-217.2"/>
<polygon fill="#5d6972" stroke="#5d6972" stroke-width="1.2" points="1231.07,-219.53 1237.45,-215.75 1230.11,-214.73 1231.07,-219.53"/>
</g>
<!-- course__EOS427 -->
<g id="node15" class="node">
<title>course__EOS427</title>
<g id="a_node15"><a xlink:href="../../../courses/EOS427.html" xlink:title="Equivalent or cross&#45;listed: EOS427: Geophysics | PHYS427: Geophysics" target="_top">
<path fill="#d7e9ef" stroke="#7e8d96" d="M1307,-424C1307,-424 1227,-424 1227,-424 1221,-424 1215,-418 1215,-412 1215,-412 1215,-400 1215,-400 1215,-394 1221,-388 1227,-388 1227,-388 1307,-388 1307,-388 1313,-388 1319,-394 1319,-400 1319,-400 1319,-412 1319,-412 1319,-418 1313,-424 1307,-424"/>
<text text-anchor="middle" x="1267" y="-403.8" font-family="Avenir Next" font-size="9.00" fill="#41515b">EOS427 / PHYS427</text>
</a>
</g>
</g>
<!-- course__PHYS321A&#45;&gt;course__EOS427 -->
<g id="edge11" class="edge">
<title>course__PHYS321A&#45;&gt;course__EOS427</title>
<path fill="none" stroke="#5d6972" stroke-width="1.2" d="M1019.08,-430.87C1064.6,-426.29 1150.21,-417.66 1207.68,-411.87"/>
<polygon fill="#5d6972" stroke="#5d6972" stroke-width="1.2" points="1208.17,-414.29 1214.89,-411.15 1207.68,-409.41 1208.17,-414.29"/>
</g>
<!-- course__PHYS321A&#45;&gt;course__EOS451 -->
<g id="edge16" class="edge">
<title>course__PHYS321A&#45;&gt;course__EOS451</title>
<path fill="none" stroke="#5d6972" stroke-width="1.2" d="M1019.2,-417.29C1025.78,-413.65 1032.65,-409.76 1039,-406 1118.79,-358.78 1135.21,-341.22 1215,-294 1221,-290.45 1227.47,-286.78 1233.72,-283.31"/>
<polygon fill="#5d6972" stroke="#5d6972" stroke-width="1.2" points="1234.92,-285.45 1239.87,-279.92 1232.56,-281.15 1234.92,-285.45"/>
</g>
<!-- course__PHYS321B -->
<g id="node20" class="node">
<title>course__PHYS321B</title>
<g id="a_node20"><a xlink:href="../../../courses/PHYS321B.html" xlink:title="PHYS321B: Classical Mechanics II" target="_top">
<path fill="#efd8cf" stroke="#7e8d96" d="M1287,-599C1287,-599 1247,-599 1247,-599 1241,-599 1235,-593 1235,-587 1235,-587 1235,-575 1235,-575 1235,-569 1241,-563 1247,-563 1247,-563 1287,-563 1287,-563 1293,-563 1299,-569 1299,-575 1299,-575 1299,-587 1299,-587 1299,-593 1293,-599 1287,-599"/>
<text text-anchor="middle" x="1267" y="-578.8" font-family="Avenir Next" font-size="9.00" fill="#41515b">PHYS321B</text>
</a>
</g>
</g>
<!-- course__PHYS321A&#45;&gt;course__PHYS321B -->
<g id="edge26" class="edge">
<title>course__PHYS321A&#45;&gt;course__PHYS321B</title>
<path fill="none" stroke="#5d6972" stroke-width="1.2" d="M1019.29,-451.27C1041.7,-463.58 1072.63,-480.46 1100,-495 1143.94,-518.34 1194.77,-544.56 1228.49,-561.85"/>
<polygon fill="#5d6972" stroke="#5d6972" stroke-width="1.2" points="1227.65,-564.17 1235,-565.18 1229.89,-559.81 1227.65,-564.17"/>
</g>
<!-- course__PHYS410 -->
<g id="node21" class="node">
<title>course__PHYS410</title>
<g id="a_node21"><a xlink:href="../../../courses/PHYS410.html" xlink:title="PHYS410: Topics in Mathematical Physics I" target="_top">
<path fill="#efd8cf" stroke="#7e8d96" d="M1284,-543C1284,-543 1250,-543 1250,-543 1244,-543 1238,-537 1238,-531 1238,-531 1238,-519 1238,-519 1238,-513 1244,-507 1250,-507 1250,-507 1284,-507 1284,-507 1290,-507 1296,-513 1296,-519 1296,-519 1296,-531 1296,-531 1296,-537 1290,-543 1284,-543"/>
<text text-anchor="middle" x="1267" y="-522.8" font-family="Avenir Next" font-size="9.00" fill="#41515b">PHYS410</text>
</a>
</g>
</g>
<!-- course__PHYS321A&#45;&gt;course__PHYS410 -->
<g id="edge29" class="edge">
<title>course__PHYS321A&#45;&gt;course__PHYS410</title>
<path fill="none" stroke="#5d6972" stroke-width="1.2" d="M1019.08,-444.17C1071.26,-461.25 1176.11,-495.58 1230.88,-513.5"/>
<polygon fill="#5d6972" stroke="#5d6972" stroke-width="1.2" points="1230.21,-515.86 1237.62,-515.71 1231.73,-511.2 1230.21,-515.86"/>
</g>
<!-- course__PHYS426 -->
<g id="node23" class="node">
<title>course__PHYS426</title>
<g id="a_node23"><a xlink:href="../../../courses/PHYS426.html" xlink:title="PHYS426: Fluid Mechanics" target="_top">
<path fill="#efd8cf" stroke="#7e8d96" d="M1284,-487C1284,-487 1250,-487 1250,-487 1244,-487 1238,-481 1238,-475 1238,-475 1238,-463 1238,-463 1238,-457 1244,-451 1250,-451 1250,-451 1284,-451 1284,-451 1290,-451 1296,-457 1296,-463 1296,-463 1296,-475 1296,-475 1296,-481 1290,-487 1284,-487"/>
<text text-anchor="middle" x="1267" y="-466.8" font-family="Avenir Next" font-size="9.00" fill="#41515b">PHYS426</text>
</a>
</g>
</g>
<!-- course__PHYS321A&#45;&gt;course__PHYS426 -->
<g id="edge36" class="edge">
<title>course__PHYS321A&#45;&gt;course__PHYS426</title>
<path fill="none" stroke="#5d6972" stroke-width="1.2" d="M1019.08,-437.91C1071.15,-444.47 1175.68,-457.63 1230.54,-464.54"/>
<polygon fill="#5d6972" stroke="#5d6972" stroke-width="1.2" points="1230.37,-466.98 1237.62,-465.43 1230.98,-462.12 1230.37,-466.98"/>
</g>
<!-- course__PHYS321A&#45;&gt;choice_PHYS411_0_0 -->
<g id="edge32" class="edge">
<title>course__PHYS321A&#45;&gt;choice_PHYS411_0_0</title>
<path fill="none" stroke="#7a8389" d="M1019.14,-419.34C1026,-415.46 1033,-410.95 1039,-406 1046.91,-399.46 1084.04,-353.59 1107.16,-324.68"/>
<polygon fill="#7a8389" stroke="#7a8389" points="1109.13,-326.14 1111.58,-319.14 1105.3,-323.08 1109.13,-326.14"/>
</g>
<!-- course__PHYS323&#45;&gt;choice_PHYS411_0_0 -->
<g id="edge33" class="edge">
<title>course__PHYS323&#45;&gt;choice_PHYS411_0_0</title>
<path fill="none" stroke="#7a8389" d="M1016.26,-317.7C1038.41,-314.33 1069.3,-309.63 1092.66,-306.07"/>
<polygon fill="#7a8389" stroke="#7a8389" points="1093.1,-308.49 1099.65,-305.01 1092.36,-303.64 1093.1,-308.49"/>
</g>
<!-- course__PHYS326&#45;&gt;course__EOS427 -->
<g id="edge12" class="edge">
<title>course__PHYS326&#45;&gt;course__EOS427</title>
<path fill="none" stroke="#5d6972" stroke-width="1.2" d="M1016.19,-380.84C1060.95,-385.35 1149.24,-394.24 1207.95,-400.15"/>
<polygon fill="#5d6972" stroke="#5d6972" stroke-width="1.2" points="1207.75,-402.6 1214.96,-400.86 1208.24,-397.72 1207.75,-402.6"/>
</g>
<!-- course__PHYS326&#45;&gt;choice_PHYS411_0_0 -->
<g id="edge34" class="edge">
<title>course__PHYS326&#45;&gt;choice_PHYS411_0_0</title>
<path fill="none" stroke="#7a8389" d="M1016.09,-362.65C1023.54,-358.56 1031.58,-354.12 1039,-350 1057.06,-339.96 1077.16,-328.65 1093.48,-319.42"/>
<polygon fill="#7a8389" stroke="#7a8389" points="1094.88,-321.45 1099.77,-315.87 1092.47,-317.18 1094.88,-321.45"/>
</g>
<!-- course__EOS312&#45;&gt;choice_EOS401_0 -->
<g id="edge7" class="edge">
<title>course__EOS312&#45;&gt;choice_EOS401_0</title>
<path fill="none" stroke="#7a8389" d="M1294.28,-37.43C1316.53,-33.56 1348.56,-27.99 1372.62,-23.8"/>
<polygon fill="#7a8389" stroke="#7a8389" points="1373.34,-26.17 1379.82,-22.55 1372.5,-21.34 1373.34,-26.17"/>
</g>
<!-- course__GEOG477 -->
<g id="node25" class="node">
<title>course__GEOG477</title>
<g id="a_node25"><a xlink:href="../../../courses/GEOG477.html" xlink:title="GEOG477: Field Studies in Physical Geography" target="_top">
<path fill="#e7e2d8" stroke="#7e8d96" d="M1544,-172C1544,-172 1507,-172 1507,-172 1501,-172 1495,-166 1495,-160 1495,-160 1495,-148 1495,-148 1495,-142 1501,-136 1507,-136 1507,-136 1544,-136 1544,-136 1550,-136 1556,-142 1556,-148 1556,-148 1556,-160 1556,-160 1556,-166 1550,-172 1544,-172"/>
<text text-anchor="middle" x="1525.5" y="-151.8" font-family="Avenir Next" font-size="9.00" fill="#41515b">GEOG477</text>
</a>
</g>
</g>
<!-- course__GEOG370&#45;&gt;course__GEOG477 -->
<g id="edge21" class="edge">
<title>course__GEOG370&#45;&gt;course__GEOG477</title>
<path fill="none" stroke="#5d6972" stroke-width="1.2" d="M1297.67,-154C1344.68,-154 1436.18,-154 1487.44,-154"/>
<polygon fill="#5d6972" stroke="#5d6972" stroke-width="1.2" points="1487.7,-156.45 1494.7,-154 1487.7,-151.55 1487.7,-156.45"/>
</g>
<!-- course__PHYS411 -->
<g id="node22" class="node">
<title>course__PHYS411</title>
<g id="a_node22"><a xlink:href="../../../courses/PHYS411.html" xlink:title="PHYS411: Time Series Analysis" target="_top">
<path fill="#efd8cf" stroke="#7e8d96" d="M1284,-340C1284,-340 1250,-340 1250,-340 1244,-340 1238,-334 1238,-328 1238,-328 1238,-316 1238,-316 1238,-310 1244,-304 1250,-304 1250,-304 1284,-304 1284,-304 1290,-304 1296,-310 1296,-316 1296,-316 1296,-328 1296,-328 1296,-334 1290,-340 1284,-340"/>
<text text-anchor="middle" x="1267" y="-319.8" font-family="Avenir Next" font-size="9.00" fill="#41515b">PHYS411</text>
</a>
</g>
</g>
<!-- course__EOS401 -->
<g id="node24" class="node">
<title>course__EOS401</title>
<g id="a_node24"><a xlink:href="../../../courses/EOS401.html" xlink:title="EOS401: Oceanographic Field School" target="_top">
<path fill="#d7e9ef" stroke="#7e8d96" d="M1540.5,-36C1540.5,-36 1510.5,-36 1510.5,-36 1504.5,-36 1498.5,-30 1498.5,-24 1498.5,-24 1498.5,-12 1498.5,-12 1498.5,-6 1504.5,0 1510.5,0 1510.5,0 1540.5,0 1540.5,0 1546.5,0 1552.5,-6 1552.5,-12 1552.5,-12 1552.5,-24 1552.5,-24 1552.5,-30 1546.5,-36 1540.5,-36"/>
<text text-anchor="middle" x="1525.5" y="-15.8" font-family="Avenir Next" font-size="9.00" fill="#41515b">EOS401</text>
</a>
</g>
</g>
<!-- CSC110_notes -->
<g id="node26" class="node">
<title>CSC110_notes</title>
<polygon fill="#fff7ee" stroke="#b7793f" stroke-width="1.1" points="162,-307 0,-307 0,-235 168,-235 168,-301 162,-307"/>
<polyline fill="none" stroke="#b7793f" stroke-width="1.1" points="162,-307 162,-301 "/>
<polyline fill="none" stroke="#b7793f" stroke-width="1.1" points="168,-301 162,-301 "/>
<text text-anchor="start" x="13" y="-287.4" font-family="Avenir Next" font-size="12.00">Published notes</text>
<text text-anchor="start" x="13" y="-274.4" font-family="Avenir Next" font-size="12.00">Foundations of Math 12</text>
<text text-anchor="start" x="13" y="-261.4" font-family="Avenir Next" font-size="12.00">Mathematics 12</text>
<text text-anchor="start" x="13" y="-248.4" font-family="Avenir Next" font-size="12.00">Pre&#45;Calculus 12</text>
</g>
<!-- CSC110_notes&#45;&gt;course__CSC110 -->
<!-- choice_EOS401_0&#45;&gt;course__EOS401 -->
<g id="edge9" class="edge">
<title>choice_EOS401_0&#45;&gt;course__EOS401</title>
<path fill="none" stroke="#5d6972" stroke-width="1.2" d="M1434.14,-18C1450.93,-18 1472.9,-18 1490.96,-18"/>
<polygon fill="#5d6972" stroke="#5d6972" stroke-width="1.2" points="1491.44,-20.45 1498.44,-18 1491.44,-15.55 1491.44,-20.45"/>
</g>
<!-- choice_EOS460_0_0&#45;&gt;course__EOS460 -->
<g id="edge19" class="edge">
<title>choice_EOS460_0_0&#45;&gt;course__EOS460</title>
<path fill="none" stroke="#5d6972" stroke-width="1.2" d="M874.28,-210C896.53,-210 928.56,-210 952.62,-210"/>
<polygon fill="#5d6972" stroke="#5d6972" stroke-width="1.2" points="952.82,-212.45 959.82,-210 952.82,-207.55 952.82,-212.45"/>
</g>
<!-- choice_PHYS411_0_0&#45;&gt;course__PHYS411 -->
<g id="edge35" class="edge">
<title>choice_PHYS411_0_0&#45;&gt;course__PHYS411</title>
<path fill="none" stroke="#5d6972" stroke-width="1.2" d="M1154.28,-305C1175.97,-308.3 1206.94,-313.01 1230.77,-316.64"/>
<polygon fill="#5d6972" stroke="#5d6972" stroke-width="1.2" points="1230.63,-319.1 1237.92,-317.73 1231.37,-314.25 1230.63,-319.1"/>
</g>
</g>
</svg>
