<?xml version="1.0" encoding="UTF-8" standalone="no"?>
<!DOCTYPE svg PUBLIC "-//W3C//DTD SVG 1.1//EN"
 "http://www.w3.org/Graphics/SVG/1.1/DTD/svg11.dtd">
<!-- Generated by graphviz version 2.43.0 (0)
 -->
<!-- Title: CSC110 Pages: 1 -->
<svg width="518pt" height="247pt"
 viewBox="0.00 0.00 518.20 247.20" xmlns="http://www.w3.org/2000/svg" xmlns:xlink="http://www.w3.org/1999/xlink">
<g id="graph0" class="graph" transform="scale(1 1) rotate(0) translate(21.6 225.6)">
<title>CSC110</title>
<!-- course__MATH100 -->
<g id="node1" class="node">
<title>course__MATH100</title>
<g id="a_node1"><a xlink:href="../../../courses/MATH100.html" xlink:title="Collapsed in simplified view: MATH100: Calculus I | MATH102: Calculus for Students in the Social and Biological Sciences | MATH109: Introduction to Calculus" target="_top">
<path fill="#dfe3f4" stroke="#1b2730" stroke-width="1.6" d="M52,-120C52,-120 12,-120 12,-120 6,-120 0,-114 0,-108 0,-108 0,-96 0,-96 0,-90 6,-84 12,-84 12,-84 52,-84 52,-84 58,-84 64,-90 64,-96 64,-96 64,-108 64,-108 64,-114 58,-120 52,-120"/>
<text text-anchor="middle" x="32" y="-99.5" font-family="Avenir Next" font-size="10.00" fill="#17232b">Calculus I</text>
</a>
</g>
</g>
<!-- course__CSC110 -->
<g id="node2" class="node">
<title>course__CSC110</title>
<g id="a_node2"><a xlink:href="../../../courses/CSC110.html" xlink:title="Collapsed in simplified view: CSC110: Fundamentals of Programming I | CSC111: Fundamentals of Programming with Engineering Applications" target="_top">
<path fill="#e7ddec" stroke="#1f4f66" stroke-width="2" d="M286,-120C286,-120 137,-120 137,-120 131,-120 125,-114 125,-108 125,-108 125,-96 125,-96 125,-90 131,-84 137,-84 137,-84 286,-84 286,-84 292,-84 298,-90 298,-96 298,-96 298,-108 298,-108 298,-114 292,-120 286,-120"/>
<text text-anchor="middle" x="211.5" y="-105" font-family="Avenir Next" font-size="10.00" fill="#17232b">Programming I</text>
<text text-anchor="middle" x="211.5" y="-94" font-family="Avenir Next" font-size="10.00" fill="#17232b">Fundamentals of Programming I</text>
</a>
</g>
</g>
<!-- course__MATH100&#45;&gt;course__CSC110 -->
<g id="edge2" class="edge">
<title>course__MATH100&#45;&gt;course__CSC110</title>
<path fill="none" stroke="#5d6972" stroke-width="1.2" d="M64.32,-102C79.48,-102 98.56,-102 117.87,-102"/>
<polygon fill="#5d6972" stroke="#5d6972" stroke-width="1.2" points="118,-104.45 125,-102 118,-99.55 118,-104.45"/>
</g>
<!-- course__CIVE210 -->
<g id="node3" class="node">
<title>course__CIVE210</title>
<g id="a_node3"><a xlink:href="../../../courses/CIVE210.html" xlink:title="CIVE210: Sustainability in Civil Engineering" target="_top">
<path fill="#f2ece3" stroke="#1b2730" stroke-width="1.6" d="M433.5,-204C433.5,-204 400.5,-204 400.5,-204 394.5,-204 388.5,-198 388.5,-192 388.5,-192 388.5,-180 388.5,-180 388.5,-174 394.5,-168 400.5,-168 400.5,-168 433.5,-168 433.5,-168 439.5,-168 445.5,-174 445.5,-180 445.5,-180 445.5,-192 445.5,-192 445.5,-198 439.5,-204 433.5,-204"/>
<text text-anchor="middle" x="417" y="-183.5" font-family="Avenir Next" font-size="10.00" fill="#17232b">CIVE210</text>
</a>
</g>
</g>
<!-- course__CSC110&#45;&gt;course__CIVE210 -->
<g id="edge1" class="edge">
<title>course__CSC110&#45;&gt;course__CIVE210</title>
<path fill="none" stroke="#5d6972" stroke-width="1.2" d="M256.16,-120.02C293.71,-135.52 347.14,-157.58 381.7,-171.84"/>
<polygon fill="#5d6972" stroke="#5d6972" stroke-width="1.2" points="380.94,-174.18 388.34,-174.58 382.81,-169.65 380.94,-174.18"/>
</g>
<!-- course__EOS321 -->
<g id="node4" class="node">
<title>course__EOS321</title>
<g id="a_node4"><a xlink:href="../../../courses/EOS321.html" xlink:title="EOS321: Earth History" target="_top">
<path fill="#d7e9ef" stroke="#1b2730" stroke-width="1.6" d="M432,-148C432,-148 402,-148 402,-148 396,-148 390,-142 390,-136 390,-136 390,-124 390,-124 390,-118 396,-112 402,-112 402,-112 432,-112 432,-112 438,-112 444,-118 444,-124 444,-124 444,-136 444,-136 444,-142 438,-148 432,-148"/>
<text text-anchor="middle" x="417" y="-127.5" font-family="Avenir Next" font-size="10.00" fill="#17232b">EOS321</text>
</a>
</g>
</g>
<!-- course__CSC110&#45;&gt;course__EOS321 -->
<g id="edge3" class="edge">
<title>course__CSC110&#45;&gt;course__EOS321</title>
<path fill="none" stroke="#5d6972" stroke-width="1.2" d="M298.21,-113.79C328.01,-117.89 359.69,-122.25 382.68,-125.42"/>
<polygon fill="#5d6972" stroke="#5d6972" stroke-width="1.2" points="382.56,-127.87 389.83,-126.4 383.22,-123.02 382.56,-127.87"/>
</g>
<!-- course__EOS325 -->
<g id="node5" class="node">
<title>course__EOS325</title>
<g id="a_node5"><a xlink:href="../../../courses/EOS325.html" xlink:title="EOS325: Earth System Modelling" target="_top">
<path fill="#d7e9ef" stroke="#1b2730" stroke-width="1.6" d="M432,-92C432,-92 402,-92 402,-92 396,-92 390,-86 390,-80 390,-80 390,-68 390,-68 390,-62 396,-56 402,-56 402,-56 432,-56 432,-56 438,-56 444,-62 444,-68 444,-68 444,-80 444,-80 444,-86 438,-92 432,-92"/>
<text text-anchor="middle" x="417" y="-71.5" font-family="Avenir Next" font-size="10.00" fill="#17232b">EOS325</text>
</a>
</g>
</g>
<!-- course__CSC110&#45;&gt;course__EOS325 -->
<g id="edge4" class="edge">
<title>course__CSC110&#45;&gt;course__EOS325</title>
<path fill="none" stroke="#5d6972" stroke-width="1.2" d="M298.21,-90.21C328.01,-86.11 359.69,-81.75 382.68,-78.58"/>
<polygon fill="#5d6972" stroke="#5d6972" stroke-width="1.2" points="383.22,-80.98 389.83,-77.6 382.56,-76.13 383.22,-80.98"/>
</g>
<!-- course__MATH248 -->
<g id="node6" class="node">
<title>course__MATH248</title>
<g id="a_node6"><a xlink:href="../../../courses/MATH248.html" xlink:title="Equivalent or cross&#45;listed: MATH248: Computer Assisted Mathematics | PHYS248: Computer Assisted Physics" target="_top">
<path fill="#dfe3f4" stroke="#1b2730" stroke-width="1.6" d="M463,-36C463,-36 371,-36 371,-36 365,-36 359,-30 359,-24 359,-24 359,-12 359,-12 359,-6 365,0 371,0 371,0 463,0 463,0 469,0 475,-6 475,-12 475,-12 475,-24 475,-24 475,-30 469,-36 463,-36"/>
<text text-anchor="middle" x="417" y="-15.5" font-family="Avenir Next" font-size="10.00" fill="#17232b">MATH248 / PHYS248</text>
</a>
</g>
</g>
<!-- course__CSC110&#45;&gt;course__MATH248 -->
<g id="edge5" class="edge">
<title>course__CSC110&#45;&gt;course__MATH248</title>
<path fill="none" stroke="#5d6972" stroke-width="1.2" d="M256.16,-83.98C288.24,-70.74 331.9,-52.71 365.49,-38.85"/>
<polygon fill="#5d6972" stroke="#5d6972" stroke-width="1.2" points="366.53,-41.07 372.07,-36.14 364.66,-36.54 366.53,-41.07"/>
</g>
</g>
</svg>
