<?xml version="1.0" encoding="UTF-8" standalone="no"?>
<!DOCTYPE svg PUBLIC "-//W3C//DTD SVG 1.1//EN"
 "http://www.w3.org/Graphics/SVG/1.1/DTD/svg11.dtd">
<!-- Generated by graphviz version 2.43.0 (0)
 -->
<!-- Title: CSC111 Pages: 1 -->
<svg width="660pt" height="191pt"
 viewBox="0.00 0.00 660.20 191.20" xmlns="http://www.w3.org/2000/svg" xmlns:xlink="http://www.w3.org/1999/xlink">
<g id="graph0" class="graph" transform="scale(1 1) rotate(0) translate(21.6 169.6)">
<title>CSC111</title>
<!-- course__MATH100 -->
<g id="node1" class="node">
<title>course__MATH100</title>
<g id="a_node1"><a xlink:href="../../../courses/MATH100.html" xlink:title="Collapsed in simplified view: MATH100: Calculus I | MATH102: Calculus for Students in the Social and Biological Sciences | MATH109: Introduction to Calculus" target="_top">
<path fill="#dfe3f4" stroke="#1b2730" stroke-width="1.6" d="M52,-92C52,-92 12,-92 12,-92 6,-92 0,-86 0,-80 0,-80 0,-68 0,-68 0,-62 6,-56 12,-56 12,-56 52,-56 52,-56 58,-56 64,-62 64,-68 64,-68 64,-80 64,-80 64,-86 58,-92 52,-92"/>
<text text-anchor="middle" x="32" y="-71.5" font-family="Avenir Next" font-size="10.00" fill="#17232b">Calculus I</text>
</a>
</g>
</g>
<!-- course__CSC110 -->
<g id="node2" class="node">
<title>course__CSC110</title>
<g id="a_node2"><a xlink:href="../../../courses/CSC111.html" xlink:title="Collapsed in simplified view: CSC110: Fundamentals of Programming I | CSC111: Fundamentals of Programming with Engineering Applications" target="_top">
<path fill="#e7ddec" stroke="#1f4f66" stroke-width="2" d="M428,-92C428,-92 137,-92 137,-92 131,-92 125,-86 125,-80 125,-80 125,-68 125,-68 125,-62 131,-56 137,-56 137,-56 428,-56 428,-56 434,-56 440,-62 440,-68 440,-68 440,-80 440,-80 440,-86 434,-92 428,-92"/>
<text text-anchor="middle" x="282.5" y="-77" font-family="Avenir Next" font-size="10.00" fill="#17232b">Programming I</text>
<text text-anchor="middle" x="282.5" y="-66" font-family="Avenir Next" font-size="10.00" fill="#17232b">Fundamentals of Programming with Engineering Applications</text>
</a>
</g>
</g>
<!-- course__MATH100&#45;&gt;course__CSC110 -->
<g id="edge1" class="edge">
<title>course__MATH100&#45;&gt;course__CSC110</title>
<path fill="none" stroke="#5d6972" stroke-width="1.2" d="M64.22,-74C78.86,-74 97.52,-74 117.74,-74"/>
<polygon fill="#5d6972" stroke="#5d6972" stroke-width="1.2" points="117.95,-76.45 124.95,-74 117.95,-71.55 117.95,-76.45"/>
</g>
<!-- course__EOS321 -->
<g id="node3" class="node">
<title>course__EOS321</title>
<g id="a_node3"><a xlink:href="../../../courses/EOS321.html" xlink:title="EOS321: Earth History" target="_top">
<path fill="#d7e9ef" stroke="#1b2730" stroke-width="1.6" d="M574,-148C574,-148 544,-148 544,-148 538,-148 532,-142 532,-136 532,-136 532,-124 532,-124 532,-118 538,-112 544,-112 544,-112 574,-112 574,-112 580,-112 586,-118 586,-124 586,-124 586,-136 586,-136 586,-142 580,-148 574,-148"/>
<text text-anchor="middle" x="559" y="-127.5" font-family="Avenir Next" font-size="10.00" fill="#17232b">EOS321</text>
</a>
</g>
</g>
<!-- course__CSC110&#45;&gt;course__EOS321 -->
<g id="edge2" class="edge">
<title>course__CSC110&#45;&gt;course__EOS321</title>
<path fill="none" stroke="#5d6972" stroke-width="1.2" d="M371.86,-92.03C424.03,-102.67 487.02,-115.52 524.73,-123.21"/>
<polygon fill="#5d6972" stroke="#5d6972" stroke-width="1.2" points="524.57,-125.68 531.92,-124.68 525.55,-120.88 524.57,-125.68"/>
</g>
<!-- course__EOS325 -->
<g id="node4" class="node">
<title>course__EOS325</title>
<g id="a_node4"><a xlink:href="../../../courses/EOS325.html" xlink:title="EOS325: Earth System Modelling" target="_top">
<path fill="#d7e9ef" stroke="#1b2730" stroke-width="1.6" d="M574,-92C574,-92 544,-92 544,-92 538,-92 532,-86 532,-80 532,-80 532,-68 532,-68 532,-62 538,-56 544,-56 544,-56 574,-56 574,-56 580,-56 586,-62 586,-68 586,-68 586,-80 586,-80 586,-86 580,-92 574,-92"/>
<text text-anchor="middle" x="559" y="-71.5" font-family="Avenir Next" font-size="10.00" fill="#17232b">EOS325</text>
</a>
</g>
</g>
<!-- course__CSC110&#45;&gt;course__EOS325 -->
<g id="edge3" class="edge">
<title>course__CSC110&#45;&gt;course__EOS325</title>
<path fill="none" stroke="#5d6972" stroke-width="1.2" d="M440.39,-74C472.33,-74 502.82,-74 524.75,-74"/>
<polygon fill="#5d6972" stroke="#5d6972" stroke-width="1.2" points="524.85,-76.45 531.85,-74 524.85,-71.55 524.85,-76.45"/>
</g>
<!-- course__MATH248 -->
<g id="node5" class="node">
<title>course__MATH248</title>
<g id="a_node5"><a xlink:href="../../../courses/MATH248.html" xlink:title="Equivalent or cross&#45;listed: MATH248: Computer Assisted Mathematics | PHYS248: Computer Assisted Physics" target="_top">
<path fill="#dfe3f4" stroke="#1b2730" stroke-width="1.6" d="M605,-36C605,-36 513,-36 513,-36 507,-36 501,-30 501,-24 501,-24 501,-12 501,-12 501,-6 507,0 513,0 513,0 605,0 605,0 611,0 617,-6 617,-12 617,-12 617,-24 617,-24 617,-30 611,-36 605,-36"/>
<text text-anchor="middle" x="559" y="-15.5" font-family="Avenir Next" font-size="10.00" fill="#17232b">MATH248 / PHYS248</text>
</a>
</g>
</g>
<!-- course__CSC110&#45;&gt;course__MATH248 -->
<g id="edge4" class="edge">
<title>course__CSC110&#45;&gt;course__MATH248</title>
<path fill="none" stroke="#5d6972" stroke-width="1.2" d="M371.86,-55.97C411.54,-47.88 457.48,-38.51 493.79,-31.1"/>
<polygon fill="#5d6972" stroke="#5d6972" stroke-width="1.2" points="494.55,-33.44 500.92,-29.64 493.57,-28.64 494.55,-33.44"/>
</g>
</g>
</svg>
