<?xml version="1.0" encoding="UTF-8" standalone="no"?>
<!DOCTYPE svg PUBLIC "-//W3C//DTD SVG 1.1//EN"
 "http://www.w3.org/Graphics/SVG/1.1/DTD/svg11.dtd">
<!-- Generated by graphviz version 2.43.0 (0)
 -->
<!-- Title: ECON383 Pages: 1 -->
<svg width="415pt" height="135pt"
 viewBox="0.00 0.00 415.20 135.20" xmlns="http://www.w3.org/2000/svg" xmlns:xlink="http://www.w3.org/1999/xlink">
<g id="graph0" class="graph" transform="scale(1 1) rotate(0) translate(21.6 113.6)">
<title>ECON383</title>
<!-- course__GEOG226 -->
<g id="node1" class="node">
<title>course__GEOG226</title>
<g id="a_node1"><a xlink:href="../../../courses/GEOG226.html" xlink:title="GEOG226: Quantitative Methods in Geography" target="_top">
<path fill="#e7e2d8" stroke="#1b2730" stroke-width="1.6" d="M62.5,-92C62.5,-92 23.5,-92 23.5,-92 17.5,-92 11.5,-86 11.5,-80 11.5,-80 11.5,-68 11.5,-68 11.5,-62 17.5,-56 23.5,-56 23.5,-56 62.5,-56 62.5,-56 68.5,-56 74.5,-62 74.5,-68 74.5,-68 74.5,-80 74.5,-80 74.5,-86 68.5,-92 62.5,-92"/>
<text text-anchor="middle" x="43" y="-71.5" font-family="Avenir Next" font-size="10.00" fill="#17232b">GEOG226</text>
</a>
</g>
</g>
<!-- choice_ECON383_0_0 -->
<g id="node4" class="node">
<title>choice_ECON383_0_0</title>
<path fill="#fff7ee" stroke="#b7793f" stroke-width="1.1" d="M189,-64C189,-64 159,-64 159,-64 153,-64 147,-58 147,-52 147,-52 147,-40 147,-40 147,-34 153,-28 159,-28 159,-28 189,-28 189,-28 195,-28 201,-34 201,-40 201,-40 201,-52 201,-52 201,-58 195,-64 189,-64"/>
<text text-anchor="middle" x="174" y="-43.8" font-family="Avenir Next" font-size="9.00">1 of</text>
</g>
<!-- course__GEOG226&#45;&gt;choice_ECON383_0_0 -->
<g id="edge1" class="edge">
<title>course__GEOG226&#45;&gt;choice_ECON383_0_0</title>
<path fill="none" stroke="#7a8389" d="M74.57,-67.36C94.17,-63.11 119.6,-57.59 139.71,-53.23"/>
<polygon fill="#7a8389" stroke="#7a8389" points="140.26,-55.61 146.58,-51.74 139.22,-50.83 140.26,-55.61"/>
</g>
<!-- course__STAT254 -->
<g id="node2" class="node">
<title>course__STAT254</title>
<g id="a_node2"><a xlink:href="../../../courses/STAT254.html" xlink:title="Collapsed in simplified view: STAT254: Probability and Statistics for Engineers | STAT255: Statistics for Life Sciences I | STAT260: Introduction to Probability and Statistics I" target="_top">
<path fill="#e6dde9" stroke="#1b2730" stroke-width="1.6" d="M74,-36C74,-36 12,-36 12,-36 6,-36 0,-30 0,-24 0,-24 0,-12 0,-12 0,-6 6,0 12,0 12,0 74,0 74,0 80,0 86,-6 86,-12 86,-12 86,-24 86,-24 86,-30 80,-36 74,-36"/>
<text text-anchor="middle" x="43" y="-15.5" font-family="Avenir Next" font-size="10.00" fill="#17232b">Intro statistics</text>
</a>
</g>
</g>
<!-- course__STAT254&#45;&gt;choice_ECON383_0_0 -->
<g id="edge2" class="edge">
<title>course__STAT254&#45;&gt;choice_ECON383_0_0</title>
<path fill="none" stroke="#7a8389" d="M86.24,-27.17C103.57,-30.93 123.35,-35.22 139.64,-38.76"/>
<polygon fill="#7a8389" stroke="#7a8389" points="139.5,-41.23 146.86,-40.33 140.54,-36.45 139.5,-41.23"/>
</g>
<!-- course__ECON383 -->
<g id="node3" class="node">
<title>course__ECON383</title>
<g id="a_node3"><a xlink:href="../../../courses/ECON383.html" xlink:title="ECON383: Climate Economics" target="_top">
<path fill="#f2ece3" stroke="#1f4f66" stroke-width="2" d="M360,-64C360,-64 274,-64 274,-64 268,-64 262,-58 262,-52 262,-52 262,-40 262,-40 262,-34 268,-28 274,-28 274,-28 360,-28 360,-28 366,-28 372,-34 372,-40 372,-40 372,-52 372,-52 372,-58 366,-64 360,-64"/>
<text text-anchor="middle" x="317" y="-49" font-family="Avenir Next" font-size="10.00" fill="#17232b">ECON383</text>
<text text-anchor="middle" x="317" y="-38" font-family="Avenir Next" font-size="10.00" fill="#17232b">Climate Economics</text>
</a>
</g>
</g>
<!-- choice_ECON383_0_0&#45;&gt;course__ECON383 -->
<g id="edge3" class="edge">
<title>choice_ECON383_0_0&#45;&gt;course__ECON383</title>
<path fill="none" stroke="#5d6972" stroke-width="1.2" d="M201.19,-46C216.24,-46 235.81,-46 254.52,-46"/>
<polygon fill="#5d6972" stroke="#5d6972" stroke-width="1.2" points="254.92,-48.45 261.92,-46 254.92,-43.55 254.92,-48.45"/>
</g>
</g>
</svg>
