<?xml version="1.0" encoding="UTF-8" standalone="no"?>
<!DOCTYPE svg PUBLIC "-//W3C//DTD SVG 1.1//EN"
 "http://www.w3.org/Graphics/SVG/1.1/DTD/svg11.dtd">
<!-- Generated by graphviz version 2.43.0 (0)
 -->
<!-- Title: ECON383 Pages: 1 -->
<svg width="153pt" height="79pt"
 viewBox="0.00 0.00 153.20 79.20" xmlns="http://www.w3.org/2000/svg" xmlns:xlink="http://www.w3.org/1999/xlink">
<g id="graph0" class="graph" transform="scale(1 1) rotate(0) translate(21.6 57.6)">
<title>ECON383</title>
<!-- course__ECON383 -->
<g id="node1" class="node">
<title>course__ECON383</title>
<g id="a_node1"><a xlink:href="../../../courses/ECON383.html" xlink:title="ECON383: Climate Economics" target="_top">
<path fill="#f2ece3" stroke="#1f4f66" stroke-width="2" d="M98,-36C98,-36 12,-36 12,-36 6,-36 0,-30 0,-24 0,-24 0,-12 0,-12 0,-6 6,0 12,0 12,0 98,0 98,0 104,0 110,-6 110,-12 110,-12 110,-24 110,-24 110,-30 104,-36 98,-36"/>
<text text-anchor="middle" x="55" y="-21" font-family="Avenir Next" font-size="10.00" fill="#17232b">ECON383</text>
<text text-anchor="middle" x="55" y="-10" font-family="Avenir Next" font-size="10.00" fill="#17232b">Climate Economics</text>
</a>
</g>
</g>
</g>
</svg>
