<?xml version="1.0" encoding="UTF-8" standalone="no"?>
<!DOCTYPE svg PUBLIC "-//W3C//DTD SVG 1.1//EN"
 "http://www.w3.org/Graphics/SVG/1.1/DTD/svg11.dtd">
<!-- Generated by graphviz version 2.43.0 (0)
 -->
<!-- Title: EOS120 Pages: 1 -->
<svg width="631pt" height="607pt"
 viewBox="0.00 0.00 631.20 607.20" xmlns="http://www.w3.org/2000/svg" xmlns:xlink="http://www.w3.org/1999/xlink">
<g id="graph0" class="graph" transform="scale(1 1) rotate(0) translate(21.6 585.6)">
<title>EOS120</title>
<!-- course__EOS120 -->
<g id="node1" class="node">
<title>course__EOS120</title>
<g id="a_node1"><a xlink:href="../../../courses/EOS120.html" xlink:title="EOS120: The Dynamic Earth" target="_top">
<path fill="#d7e9ef" stroke="#1f4f66" stroke-width="2" d="M98,-200C98,-200 12,-200 12,-200 6,-200 0,-194 0,-188 0,-188 0,-176 0,-176 0,-170 6,-164 12,-164 12,-164 98,-164 98,-164 104,-164 110,-170 110,-176 110,-176 110,-188 110,-188 110,-194 104,-200 98,-200"/>
<text text-anchor="middle" x="55" y="-185" font-family="Avenir Next" font-size="10.00" fill="#17232b">EOS120</text>
<text text-anchor="middle" x="55" y="-174" font-family="Avenir Next" font-size="10.00" fill="#17232b">The Dynamic Earth</text>
</a>
</g>
</g>
<!-- course__EOS202 -->
<g id="node2" class="node">
<title>course__EOS202</title>
<g id="a_node2"><a xlink:href="../../../courses/EOS202.html" xlink:title="EOS202: Structural Geology" target="_top">
<path fill="#d7e9ef" stroke="#1b2730" stroke-width="1.6" d="M213,-455C213,-455 183,-455 183,-455 177,-455 171,-449 171,-443 171,-443 171,-431 171,-431 171,-425 177,-419 183,-419 183,-419 213,-419 213,-419 219,-419 225,-425 225,-431 225,-431 225,-443 225,-443 225,-449 219,-455 213,-455"/>
<text text-anchor="middle" x="198" y="-434.5" font-family="Avenir Next" font-size="10.00" fill="#17232b">EOS202</text>
</a>
</g>
</g>
<!-- course__EOS120&#45;&gt;course__EOS202 -->
<g id="edge3" class="edge">
<title>course__EOS120&#45;&gt;course__EOS202</title>
<path fill="none" stroke="#5d6972" stroke-width="1.2" d="M66.14,-200.34C91.09,-245.46 155.46,-361.87 183.55,-412.68"/>
<polygon fill="#5d6972" stroke="#5d6972" stroke-width="1.2" points="181.42,-413.89 186.95,-418.83 185.71,-411.52 181.42,-413.89"/>
</g>
<!-- course__EOS205 -->
<g id="node3" class="node">
<title>course__EOS205</title>
<g id="a_node3"><a xlink:href="../../../courses/EOS205.html" xlink:title="EOS205: Mineralogy" target="_top">
<path fill="#d7e9ef" stroke="#1b2730" stroke-width="1.6" d="M213,-228C213,-228 183,-228 183,-228 177,-228 171,-222 171,-216 171,-216 171,-204 171,-204 171,-198 177,-192 183,-192 183,-192 213,-192 213,-192 219,-192 225,-198 225,-204 225,-204 225,-216 225,-216 225,-222 219,-228 213,-228"/>
<text text-anchor="middle" x="198" y="-207.5" font-family="Avenir Next" font-size="10.00" fill="#17232b">EOS205</text>
</a>
</g>
</g>
<!-- course__EOS120&#45;&gt;course__EOS205 -->
<g id="edge4" class="edge">
<title>course__EOS120&#45;&gt;course__EOS205</title>
<path fill="none" stroke="#5d6972" stroke-width="1.2" d="M110.11,-192.75C128.16,-196.33 147.73,-200.22 163.71,-203.39"/>
<polygon fill="#5d6972" stroke="#5d6972" stroke-width="1.2" points="163.45,-205.83 170.79,-204.79 164.4,-201.03 163.45,-205.83"/>
</g>
<!-- course__EOS313 -->
<g id="node4" class="node">
<title>course__EOS313</title>
<g id="a_node4"><a xlink:href="../../../courses/EOS313.html" xlink:title="EOS313: Introductory Geological Oceanography" target="_top">
<path fill="#d7e9ef" stroke="#1b2730" stroke-width="1.6" d="M213,-172C213,-172 183,-172 183,-172 177,-172 171,-166 171,-160 171,-160 171,-148 171,-148 171,-142 177,-136 183,-136 183,-136 213,-136 213,-136 219,-136 225,-142 225,-148 225,-148 225,-160 225,-160 225,-166 219,-172 213,-172"/>
<text text-anchor="middle" x="198" y="-151.5" font-family="Avenir Next" font-size="10.00" fill="#17232b">EOS313</text>
</a>
</g>
</g>
<!-- course__EOS120&#45;&gt;course__EOS313 -->
<g id="edge8" class="edge">
<title>course__EOS120&#45;&gt;course__EOS313</title>
<path fill="none" stroke="#5d6972" stroke-width="1.2" d="M110.11,-171.25C128.16,-167.67 147.73,-163.78 163.71,-160.61"/>
<polygon fill="#5d6972" stroke="#5d6972" stroke-width="1.2" points="164.4,-162.97 170.79,-159.21 163.45,-158.17 164.4,-162.97"/>
</g>
<!-- course__EOS330 -->
<g id="node5" class="node">
<title>course__EOS330</title>
<g id="a_node5"><a xlink:href="../../../courses/EOS330.html" xlink:title="EOS330: Paleobiology" target="_top">
<path fill="#d7e9ef" stroke="#1b2730" stroke-width="1.6" d="M213,-116C213,-116 183,-116 183,-116 177,-116 171,-110 171,-104 171,-104 171,-92 171,-92 171,-86 177,-80 183,-80 183,-80 213,-80 213,-80 219,-80 225,-86 225,-92 225,-92 225,-104 225,-104 225,-110 219,-116 213,-116"/>
<text text-anchor="middle" x="198" y="-95.5" font-family="Avenir Next" font-size="10.00" fill="#17232b">EOS330</text>
</a>
</g>
</g>
<!-- course__EOS120&#45;&gt;course__EOS330 -->
<g id="edge11" class="edge">
<title>course__EOS120&#45;&gt;course__EOS330</title>
<path fill="none" stroke="#5d6972" stroke-width="1.2" d="M86.25,-163.98C109.28,-150.26 140.92,-131.41 164.49,-117.37"/>
<polygon fill="#5d6972" stroke="#5d6972" stroke-width="1.2" points="165.84,-119.42 170.6,-113.73 163.33,-115.21 165.84,-119.42"/>
</g>
<!-- course__EOS410 -->
<g id="node10" class="node">
<title>course__EOS410</title>
<g id="a_node10"><a xlink:href="../../../courses/EOS410.html" xlink:title="EOS410: Global Tectonics" target="_top">
<path fill="#d7e9ef" stroke="#7e8d96" d="M329,-504C329,-504 299,-504 299,-504 293,-504 287,-498 287,-492 287,-492 287,-480 287,-480 287,-474 293,-468 299,-468 299,-468 329,-468 329,-468 335,-468 341,-474 341,-480 341,-480 341,-492 341,-492 341,-498 335,-504 329,-504"/>
<text text-anchor="middle" x="314" y="-483.8" font-family="Avenir Next" font-size="9.00" fill="#41515b">EOS410</text>
</a>
</g>
</g>
<!-- course__EOS202&#45;&gt;course__EOS410 -->
<g id="edge19" class="edge">
<title>course__EOS202&#45;&gt;course__EOS410</title>
<path fill="none" stroke="#5d6972" stroke-width="1.2" d="M225.15,-448.24C241.52,-455.28 262.74,-464.4 280.22,-471.91"/>
<polygon fill="#5d6972" stroke="#5d6972" stroke-width="1.2" points="279.57,-474.3 286.97,-474.81 281.5,-469.8 279.57,-474.3"/>
</g>
<!-- course__EOS300 -->
<g id="node11" class="node">
<title>course__EOS300</title>
<g id="a_node11"><a xlink:href="../../../courses/EOS300.html" xlink:title="EOS300: Earth Science Field School" target="_top">
<path fill="#d7e9ef" stroke="#7e8d96" d="M449.5,-508C449.5,-508 419.5,-508 419.5,-508 413.5,-508 407.5,-502 407.5,-496 407.5,-496 407.5,-484 407.5,-484 407.5,-478 413.5,-472 419.5,-472 419.5,-472 449.5,-472 449.5,-472 455.5,-472 461.5,-478 461.5,-484 461.5,-484 461.5,-496 461.5,-496 461.5,-502 455.5,-508 449.5,-508"/>
<text text-anchor="middle" x="434.5" y="-487.8" font-family="Avenir Next" font-size="9.00" fill="#41515b">EOS300</text>
</a>
</g>
</g>
<!-- course__EOS202&#45;&gt;course__EOS300 -->
<g id="edge7" class="edge">
<title>course__EOS202&#45;&gt;course__EOS300</title>
<path fill="none" stroke="#5d6972" stroke-width="1.2" d="M225.12,-439.33C254.01,-442.25 301.79,-448.11 342,-458 361.91,-462.9 383.59,-470.38 400.85,-476.88"/>
<polygon fill="#5d6972" stroke="#5d6972" stroke-width="1.2" points="400.06,-479.2 407.47,-479.41 401.81,-474.62 400.06,-479.2"/>
</g>
<!-- course__EOS201 -->
<g id="node7" class="node">
<title>course__EOS201</title>
<g id="a_node7"><a xlink:href="../../../courses/EOS201.html" xlink:title="EOS201: Sedimentary Geology" target="_top">
<path fill="#d7e9ef" stroke="#1b2730" stroke-width="1.6" d="M329,-354C329,-354 299,-354 299,-354 293,-354 287,-348 287,-342 287,-342 287,-330 287,-330 287,-324 293,-318 299,-318 299,-318 329,-318 329,-318 335,-318 341,-324 341,-330 341,-330 341,-342 341,-342 341,-348 335,-354 329,-354"/>
<text text-anchor="middle" x="314" y="-333.5" font-family="Avenir Next" font-size="10.00" fill="#17232b">EOS201</text>
</a>
</g>
</g>
<!-- course__EOS205&#45;&gt;course__EOS201 -->
<g id="edge2" class="edge">
<title>course__EOS205&#45;&gt;course__EOS201</title>
<path fill="none" stroke="#5d6972" stroke-width="1.2" d="M215.33,-228.05C235.48,-250.32 269.77,-288.22 291.9,-312.68"/>
<polygon fill="#5d6972" stroke="#5d6972" stroke-width="1.2" points="290.18,-314.43 296.7,-317.98 293.82,-311.15 290.18,-314.43"/>
</g>
<!-- course__EOS240 -->
<g id="node8" class="node">
<title>course__EOS240</title>
<g id="a_node8"><a xlink:href="../../../courses/EOS240.html" xlink:title="EOS240: Geochemistry" target="_top">
<path fill="#d7e9ef" stroke="#1b2730" stroke-width="1.6" d="M329,-228C329,-228 299,-228 299,-228 293,-228 287,-222 287,-216 287,-216 287,-204 287,-204 287,-198 293,-192 299,-192 299,-192 329,-192 329,-192 335,-192 341,-198 341,-204 341,-204 341,-216 341,-216 341,-222 335,-228 329,-228"/>
<text text-anchor="middle" x="314" y="-207.5" font-family="Avenir Next" font-size="10.00" fill="#17232b">EOS240</text>
</a>
</g>
</g>
<!-- course__EOS205&#45;&gt;course__EOS240 -->
<g id="edge5" class="edge">
<title>course__EOS205&#45;&gt;course__EOS240</title>
<path fill="none" stroke="#5d6972" stroke-width="1.2" d="M225.15,-210C241.37,-210 262.36,-210 279.76,-210"/>
<polygon fill="#5d6972" stroke="#5d6972" stroke-width="1.2" points="279.97,-212.45 286.97,-210 279.97,-207.55 279.97,-212.45"/>
</g>
<!-- course__EOS401 -->
<g id="node9" class="node">
<title>course__EOS401</title>
<g id="a_node9"><a xlink:href="../../../courses/EOS401.html" xlink:title="EOS401: Oceanographic Field School" target="_top">
<path fill="#d7e9ef" stroke="#7e8d96" d="M329,-172C329,-172 299,-172 299,-172 293,-172 287,-166 287,-160 287,-160 287,-148 287,-148 287,-142 293,-136 299,-136 299,-136 329,-136 329,-136 335,-136 341,-142 341,-148 341,-148 341,-160 341,-160 341,-166 335,-172 329,-172"/>
<text text-anchor="middle" x="314" y="-151.8" font-family="Avenir Next" font-size="9.00" fill="#41515b">EOS401</text>
</a>
</g>
</g>
<!-- course__EOS313&#45;&gt;course__EOS401 -->
<g id="edge15" class="edge">
<title>course__EOS313&#45;&gt;course__EOS401</title>
<path fill="none" stroke="#5d6972" stroke-width="1.2" d="M225.15,-154C241.37,-154 262.36,-154 279.76,-154"/>
<polygon fill="#5d6972" stroke="#5d6972" stroke-width="1.2" points="279.97,-156.45 286.97,-154 279.97,-151.55 279.97,-156.45"/>
</g>
<!-- course__BIOL457 -->
<g id="node6" class="node">
<title>course__BIOL457</title>
<g id="a_node6"><a xlink:href="../../../courses/BIOL457.html" xlink:title="BIOL457: Paleoecology and Environmental Change" target="_top">
<path fill="#dbe8d2" stroke="#7e8d96" d="M330,-116C330,-116 298,-116 298,-116 292,-116 286,-110 286,-104 286,-104 286,-92 286,-92 286,-86 292,-80 298,-80 298,-80 330,-80 330,-80 336,-80 342,-86 342,-92 342,-92 342,-104 342,-104 342,-110 336,-116 330,-116"/>
<text text-anchor="middle" x="314" y="-95.8" font-family="Avenir Next" font-size="9.00" fill="#41515b">BIOL457</text>
</a>
</g>
</g>
<!-- course__EOS330&#45;&gt;course__BIOL457 -->
<g id="edge1" class="edge">
<title>course__EOS330&#45;&gt;course__BIOL457</title>
<path fill="none" stroke="#5d6972" stroke-width="1.2" d="M225.15,-98C241.03,-98 261.47,-98 278.64,-98"/>
<polygon fill="#5d6972" stroke="#5d6972" stroke-width="1.2" points="278.78,-100.45 285.78,-98 278.78,-95.55 278.78,-100.45"/>
</g>
<!-- course__EOS201&#45;&gt;course__EOS300 -->
<g id="edge6" class="edge">
<title>course__EOS201&#45;&gt;course__EOS300</title>
<path fill="none" stroke="#5d6972" stroke-width="1.2" d="M325.82,-354.01C341.4,-379.3 371.72,-426.26 403,-462 404.38,-463.57 405.83,-465.15 407.33,-466.71"/>
<polygon fill="#5d6972" stroke="#5d6972" stroke-width="1.2" points="405.87,-468.71 412.56,-471.91 409.33,-465.23 405.87,-468.71"/>
</g>
<!-- course__EOS423 -->
<g id="node14" class="node">
<title>course__EOS423</title>
<g id="a_node14"><a xlink:href="../../../courses/EOS423.html" xlink:title="EOS423: Advanced Sedimentology and Stratigraphy" target="_top">
<path fill="#d7e9ef" stroke="#7e8d96" d="M449.5,-354C449.5,-354 419.5,-354 419.5,-354 413.5,-354 407.5,-348 407.5,-342 407.5,-342 407.5,-330 407.5,-330 407.5,-324 413.5,-318 419.5,-318 419.5,-318 449.5,-318 449.5,-318 455.5,-318 461.5,-324 461.5,-330 461.5,-330 461.5,-342 461.5,-342 461.5,-348 455.5,-354 449.5,-354"/>
<text text-anchor="middle" x="434.5" y="-333.8" font-family="Avenir Next" font-size="9.00" fill="#41515b">EOS423</text>
</a>
</g>
</g>
<!-- course__EOS201&#45;&gt;course__EOS423 -->
<g id="edge23" class="edge">
<title>course__EOS201&#45;&gt;course__EOS423</title>
<path fill="none" stroke="#5d6972" stroke-width="1.2" d="M341.01,-336C358.33,-336 381.25,-336 399.95,-336"/>
<polygon fill="#5d6972" stroke="#5d6972" stroke-width="1.2" points="400.15,-338.45 407.15,-336 400.15,-333.55 400.15,-338.45"/>
</g>
<!-- course__EOS450 -->
<g id="node16" class="node">
<title>course__EOS450</title>
<g id="a_node16"><a xlink:href="../../../courses/EOS450.html" xlink:title="EOS450: Quaternary Geology" target="_top">
<path fill="#d7e9ef" stroke="#7e8d96" d="M449.5,-256C449.5,-256 419.5,-256 419.5,-256 413.5,-256 407.5,-250 407.5,-244 407.5,-244 407.5,-232 407.5,-232 407.5,-226 413.5,-220 419.5,-220 419.5,-220 449.5,-220 449.5,-220 455.5,-220 461.5,-226 461.5,-232 461.5,-232 461.5,-244 461.5,-244 461.5,-250 455.5,-256 449.5,-256"/>
<text text-anchor="middle" x="434.5" y="-235.8" font-family="Avenir Next" font-size="9.00" fill="#41515b">EOS450</text>
</a>
</g>
</g>
<!-- course__EOS201&#45;&gt;course__EOS450 -->
<g id="edge26" class="edge">
<title>course__EOS201&#45;&gt;course__EOS450</title>
<path fill="none" stroke="#5d6972" stroke-width="1.2" d="M337.01,-317.8C356.55,-301.64 385.17,-277.97 406.17,-260.6"/>
<polygon fill="#5d6972" stroke="#5d6972" stroke-width="1.2" points="407.77,-262.46 411.61,-256.11 404.65,-258.68 407.77,-262.46"/>
</g>
<!-- course__GEOG376 -->
<g id="node17" class="node">
<title>course__GEOG376</title>
<g id="a_node17"><a xlink:href="../../../courses/GEOG376.html" xlink:title="GEOG376: Process Geomorphology" target="_top">
<path fill="#e7e2d8" stroke="#1b2730" stroke-width="1.6" d="M454,-452C454,-452 415,-452 415,-452 409,-452 403,-446 403,-440 403,-440 403,-428 403,-428 403,-422 409,-416 415,-416 415,-416 454,-416 454,-416 460,-416 466,-422 466,-428 466,-428 466,-440 466,-440 466,-446 460,-452 454,-452"/>
<text text-anchor="middle" x="434.5" y="-431.5" font-family="Avenir Next" font-size="10.00" fill="#17232b">GEOG376</text>
</a>
</g>
</g>
<!-- course__EOS201&#45;&gt;course__GEOG376 -->
<g id="edge29" class="edge">
<title>course__EOS201&#45;&gt;course__GEOG376</title>
<path fill="none" stroke="#5d6972" stroke-width="1.2" d="M337.01,-354.2C356.55,-370.36 385.17,-394.03 406.17,-411.4"/>
<polygon fill="#5d6972" stroke="#5d6972" stroke-width="1.2" points="404.65,-413.32 411.61,-415.89 407.77,-409.54 404.65,-413.32"/>
</g>
<!-- course__EOS408 -->
<g id="node21" class="node">
<title>course__EOS408</title>
<g id="a_node21"><a xlink:href="../../../courses/EOS408.html" xlink:title="EOS408: Marine Geology" target="_top">
<path fill="#d7e9ef" stroke="#7e8d96" d="M572.5,-274C572.5,-274 542.5,-274 542.5,-274 536.5,-274 530.5,-268 530.5,-262 530.5,-262 530.5,-250 530.5,-250 530.5,-244 536.5,-238 542.5,-238 542.5,-238 572.5,-238 572.5,-238 578.5,-238 584.5,-244 584.5,-250 584.5,-250 584.5,-262 584.5,-262 584.5,-268 578.5,-274 572.5,-274"/>
<text text-anchor="middle" x="557.5" y="-253.8" font-family="Avenir Next" font-size="9.00" fill="#41515b">EOS408</text>
</a>
</g>
</g>
<!-- course__EOS201&#45;&gt;course__EOS408 -->
<g id="edge17" class="edge">
<title>course__EOS201&#45;&gt;course__EOS408</title>
<path fill="none" stroke="#5d6972" stroke-width="1.2" d="M341.3,-327.29C385.58,-312.62 474.9,-283.03 523.38,-266.97"/>
<polygon fill="#5d6972" stroke="#5d6972" stroke-width="1.2" points="524.35,-269.23 530.23,-264.7 522.81,-264.58 524.35,-269.23"/>
</g>
<!-- course__EOS420 -->
<g id="node23" class="node">
<title>course__EOS420</title>
<g id="a_node23"><a xlink:href="../../../courses/EOS420.html" xlink:title="EOS420: Resource Geology" target="_top">
<path fill="#d7e9ef" stroke="#7e8d96" d="M572.5,-337C572.5,-337 542.5,-337 542.5,-337 536.5,-337 530.5,-331 530.5,-325 530.5,-325 530.5,-313 530.5,-313 530.5,-307 536.5,-301 542.5,-301 542.5,-301 572.5,-301 572.5,-301 578.5,-301 584.5,-307 584.5,-313 584.5,-313 584.5,-325 584.5,-325 584.5,-331 578.5,-337 572.5,-337"/>
<text text-anchor="middle" x="557.5" y="-316.8" font-family="Avenir Next" font-size="9.00" fill="#41515b">EOS420</text>
</a>
</g>
</g>
<!-- course__EOS201&#45;&gt;course__EOS420 -->
<g id="edge21" class="edge">
<title>course__EOS201&#45;&gt;course__EOS420</title>
<path fill="none" stroke="#5d6972" stroke-width="1.2" d="M341.07,-347.39C371.3,-359.07 422.52,-374.21 466,-364 486.36,-359.22 507.38,-349.14 524.03,-339.72"/>
<polygon fill="#5d6972" stroke="#5d6972" stroke-width="1.2" points="525.58,-341.65 530.41,-336.03 523.13,-337.41 525.58,-341.65"/>
</g>
<!-- course__EOS316 -->
<g id="node12" class="node">
<title>course__EOS316</title>
<g id="a_node12"><a xlink:href="../../../courses/EOS316.html" xlink:title="EOS316: Igneous and Metamorphic Geology" target="_top">
<path fill="#d7e9ef" stroke="#7e8d96" d="M449.5,-200C449.5,-200 419.5,-200 419.5,-200 413.5,-200 407.5,-194 407.5,-188 407.5,-188 407.5,-176 407.5,-176 407.5,-170 413.5,-164 419.5,-164 419.5,-164 449.5,-164 449.5,-164 455.5,-164 461.5,-170 461.5,-176 461.5,-176 461.5,-188 461.5,-188 461.5,-194 455.5,-200 449.5,-200"/>
<text text-anchor="middle" x="434.5" y="-179.8" font-family="Avenir Next" font-size="9.00" fill="#41515b">EOS316</text>
</a>
</g>
</g>
<!-- course__EOS240&#45;&gt;course__EOS316 -->
<g id="edge9" class="edge">
<title>course__EOS240&#45;&gt;course__EOS316</title>
<path fill="none" stroke="#5d6972" stroke-width="1.2" d="M341.01,-203.86C358.33,-199.76 381.25,-194.34 399.95,-189.93"/>
<polygon fill="#5d6972" stroke="#5d6972" stroke-width="1.2" points="400.9,-192.22 407.15,-188.23 399.77,-187.45 400.9,-192.22"/>
</g>
<!-- course__EOS335 -->
<g id="node13" class="node">
<title>course__EOS335</title>
<g id="a_node13"><a xlink:href="../../../courses/EOS335.html" xlink:title="EOS335: Isotopes in Natural Sciences" target="_top">
<path fill="#d7e9ef" stroke="#7e8d96" d="M449.5,-144C449.5,-144 419.5,-144 419.5,-144 413.5,-144 407.5,-138 407.5,-132 407.5,-132 407.5,-120 407.5,-120 407.5,-114 413.5,-108 419.5,-108 419.5,-108 449.5,-108 449.5,-108 455.5,-108 461.5,-114 461.5,-120 461.5,-120 461.5,-132 461.5,-132 461.5,-138 455.5,-144 449.5,-144"/>
<text text-anchor="middle" x="434.5" y="-123.8" font-family="Avenir Next" font-size="9.00" fill="#41515b">EOS335</text>
</a>
</g>
</g>
<!-- course__EOS240&#45;&gt;course__EOS335 -->
<g id="edge12" class="edge">
<title>course__EOS240&#45;&gt;course__EOS335</title>
<path fill="none" stroke="#5d6972" stroke-width="1.2" d="M340.42,-191.98C358.42,-179.22 382.68,-162.03 401.91,-148.39"/>
<polygon fill="#5d6972" stroke="#5d6972" stroke-width="1.2" points="403.42,-150.33 407.71,-144.28 400.58,-146.33 403.42,-150.33"/>
</g>
<!-- course__EOS440 -->
<g id="node15" class="node">
<title>course__EOS440</title>
<g id="a_node15"><a xlink:href="../../../courses/EOS440.html" xlink:title="EOS440: Hydrogeology" target="_top">
<path fill="#d7e9ef" stroke="#7e8d96" d="M449.5,-88C449.5,-88 419.5,-88 419.5,-88 413.5,-88 407.5,-82 407.5,-76 407.5,-76 407.5,-64 407.5,-64 407.5,-58 413.5,-52 419.5,-52 419.5,-52 449.5,-52 449.5,-52 455.5,-52 461.5,-58 461.5,-64 461.5,-64 461.5,-76 461.5,-76 461.5,-82 455.5,-88 449.5,-88"/>
<text text-anchor="middle" x="434.5" y="-67.8" font-family="Avenir Next" font-size="9.00" fill="#41515b">EOS440</text>
</a>
</g>
</g>
<!-- course__EOS240&#45;&gt;course__EOS440 -->
<g id="edge25" class="edge">
<title>course__EOS240&#45;&gt;course__EOS440</title>
<path fill="none" stroke="#5d6972" stroke-width="1.2" d="M333.1,-191.96C336.15,-188.72 339.22,-185.31 342,-182 371.64,-146.64 372.3,-132.44 403,-98 404.39,-96.44 405.86,-94.87 407.37,-93.32"/>
<polygon fill="#5d6972" stroke="#5d6972" stroke-width="1.2" points="409.36,-94.8 412.61,-88.14 405.91,-91.32 409.36,-94.8"/>
</g>
<!-- course__EOS240&#45;&gt;course__EOS450 -->
<g id="edge27" class="edge">
<title>course__EOS240&#45;&gt;course__EOS450</title>
<path fill="none" stroke="#5d6972" stroke-width="1.2" d="M341.01,-216.14C358.33,-220.24 381.25,-225.66 399.95,-230.07"/>
<polygon fill="#5d6972" stroke="#5d6972" stroke-width="1.2" points="399.77,-232.55 407.15,-231.77 400.9,-227.78 399.77,-232.55"/>
</g>
<!-- course__EOS321 -->
<g id="node18" class="node">
<title>course__EOS321</title>
<g id="a_node18"><a xlink:href="../../../courses/EOS321.html" xlink:title="EOS321: Earth History" target="_top">
<path fill="#d7e9ef" stroke="#7e8d96" d="M572.5,-564C572.5,-564 542.5,-564 542.5,-564 536.5,-564 530.5,-558 530.5,-552 530.5,-552 530.5,-540 530.5,-540 530.5,-534 536.5,-528 542.5,-528 542.5,-528 572.5,-528 572.5,-528 578.5,-528 584.5,-534 584.5,-540 584.5,-540 584.5,-552 584.5,-552 584.5,-558 578.5,-564 572.5,-564"/>
<text text-anchor="middle" x="557.5" y="-543.8" font-family="Avenir Next" font-size="9.00" fill="#41515b">EOS321</text>
</a>
</g>
</g>
<!-- course__EOS300&#45;&gt;course__EOS321 -->
<g id="edge10" class="edge">
<title>course__EOS300&#45;&gt;course__EOS321</title>
<path fill="none" stroke="#5d6972" stroke-width="1.2" d="M461.76,-502.15C479.99,-510.59 504.41,-521.89 523.89,-530.91"/>
<polygon fill="#5d6972" stroke="#5d6972" stroke-width="1.2" points="522.91,-533.16 530.3,-533.87 524.97,-528.71 522.91,-533.16"/>
</g>
<!-- course__EOS400 -->
<g id="node19" class="node">
<title>course__EOS400</title>
<g id="a_node19"><a xlink:href="../../../courses/EOS400.html" xlink:title="EOS400: Advanced Field Geology" target="_top">
<path fill="#d7e9ef" stroke="#7e8d96" d="M572.5,-508C572.5,-508 542.5,-508 542.5,-508 536.5,-508 530.5,-502 530.5,-496 530.5,-496 530.5,-484 530.5,-484 530.5,-478 536.5,-472 542.5,-472 542.5,-472 572.5,-472 572.5,-472 578.5,-472 584.5,-478 584.5,-484 584.5,-484 584.5,-496 584.5,-496 584.5,-502 578.5,-508 572.5,-508"/>
<text text-anchor="middle" x="557.5" y="-487.8" font-family="Avenir Next" font-size="9.00" fill="#41515b">EOS400</text>
</a>
</g>
</g>
<!-- course__EOS300&#45;&gt;course__EOS400 -->
<g id="edge13" class="edge">
<title>course__EOS300&#45;&gt;course__EOS400</title>
<path fill="none" stroke="#5d6972" stroke-width="1.2" d="M461.76,-490C479.75,-490 503.78,-490 523.13,-490"/>
<polygon fill="#5d6972" stroke="#5d6972" stroke-width="1.2" points="523.3,-492.45 530.3,-490 523.3,-487.55 523.3,-492.45"/>
</g>
<!-- course__EOS316&#45;&gt;course__EOS400 -->
<g id="edge14" class="edge">
<title>course__EOS316&#45;&gt;course__EOS400</title>
<path fill="none" stroke="#5d6972" stroke-width="1.2" d="M458.52,-200.22C461.35,-203.24 463.96,-206.53 466,-210 524.53,-309.26 469.29,-362.26 527,-462 527.8,-463.39 528.7,-464.75 529.66,-466.09"/>
<polygon fill="#5d6972" stroke="#5d6972" stroke-width="1.2" points="527.92,-467.83 534.24,-471.7 531.71,-464.73 527.92,-467.83"/>
</g>
<!-- course__EOS316&#45;&gt;course__EOS408 -->
<g id="edge18" class="edge">
<title>course__EOS316&#45;&gt;course__EOS408</title>
<path fill="none" stroke="#5d6972" stroke-width="1.2" d="M461.76,-198.06C480.07,-209.26 504.62,-224.27 524.15,-236.21"/>
<polygon fill="#5d6972" stroke="#5d6972" stroke-width="1.2" points="523.05,-238.41 530.3,-239.97 525.6,-234.23 523.05,-238.41"/>
</g>
<!-- course__EOS416 -->
<g id="node22" class="node">
<title>course__EOS416</title>
<g id="a_node22"><a xlink:href="../../../courses/EOS416.html" xlink:title="EOS416: High Temperature Petrology" target="_top">
<path fill="#d7e9ef" stroke="#7e8d96" d="M572.5,-204C572.5,-204 542.5,-204 542.5,-204 536.5,-204 530.5,-198 530.5,-192 530.5,-192 530.5,-180 530.5,-180 530.5,-174 536.5,-168 542.5,-168 542.5,-168 572.5,-168 572.5,-168 578.5,-168 584.5,-174 584.5,-180 584.5,-180 584.5,-192 584.5,-192 584.5,-198 578.5,-204 572.5,-204"/>
<text text-anchor="middle" x="557.5" y="-183.8" font-family="Avenir Next" font-size="9.00" fill="#41515b">EOS416</text>
</a>
</g>
</g>
<!-- course__EOS316&#45;&gt;course__EOS416 -->
<g id="edge20" class="edge">
<title>course__EOS316&#45;&gt;course__EOS416</title>
<path fill="none" stroke="#5d6972" stroke-width="1.2" d="M461.76,-182.87C479.75,-183.46 503.78,-184.26 523.13,-184.9"/>
<polygon fill="#5d6972" stroke="#5d6972" stroke-width="1.2" points="523.22,-187.35 530.3,-185.13 523.38,-182.45 523.22,-187.35"/>
</g>
<!-- course__EOS316&#45;&gt;course__EOS420 -->
<g id="edge22" class="edge">
<title>course__EOS316&#45;&gt;course__EOS420</title>
<path fill="none" stroke="#5d6972" stroke-width="1.2" d="M456.22,-200.3C459.56,-203.46 462.93,-206.77 466,-210 495.33,-240.93 499.71,-251.26 527,-284 530.08,-287.69 533.35,-291.59 536.54,-295.4"/>
<polygon fill="#5d6972" stroke="#5d6972" stroke-width="1.2" points="534.77,-297.09 541.15,-300.87 538.52,-293.93 534.77,-297.09"/>
</g>
<!-- course__EOS403 -->
<g id="node20" class="node">
<title>course__EOS403</title>
<g id="a_node20"><a xlink:href="../../../courses/EOS403.html" xlink:title="EOS403: Global Biogeochemical Cycles" target="_top">
<path fill="#d7e9ef" stroke="#7e8d96" d="M572.5,-148C572.5,-148 542.5,-148 542.5,-148 536.5,-148 530.5,-142 530.5,-136 530.5,-136 530.5,-124 530.5,-124 530.5,-118 536.5,-112 542.5,-112 542.5,-112 572.5,-112 572.5,-112 578.5,-112 584.5,-118 584.5,-124 584.5,-124 584.5,-136 584.5,-136 584.5,-142 578.5,-148 572.5,-148"/>
<text text-anchor="middle" x="557.5" y="-127.8" font-family="Avenir Next" font-size="9.00" fill="#41515b">EOS403</text>
</a>
</g>
</g>
<!-- course__EOS335&#45;&gt;course__EOS403 -->
<g id="edge16" class="edge">
<title>course__EOS335&#45;&gt;course__EOS403</title>
<path fill="none" stroke="#5d6972" stroke-width="1.2" d="M461.76,-126.87C479.75,-127.46 503.78,-128.26 523.13,-128.9"/>
<polygon fill="#5d6972" stroke="#5d6972" stroke-width="1.2" points="523.22,-131.35 530.3,-129.13 523.38,-126.45 523.22,-131.35"/>
</g>
<!-- course__EOS425 -->
<g id="node24" class="node">
<title>course__EOS425</title>
<g id="a_node24"><a xlink:href="../../../courses/EOS425.html" xlink:title="EOS425: Aqueous Chemistry in the Earth and Ocean" target="_top">
<path fill="#d7e9ef" stroke="#7e8d96" d="M572.5,-92C572.5,-92 542.5,-92 542.5,-92 536.5,-92 530.5,-86 530.5,-80 530.5,-80 530.5,-68 530.5,-68 530.5,-62 536.5,-56 542.5,-56 542.5,-56 572.5,-56 572.5,-56 578.5,-56 584.5,-62 584.5,-68 584.5,-68 584.5,-80 584.5,-80 584.5,-86 578.5,-92 572.5,-92"/>
<text text-anchor="middle" x="557.5" y="-71.8" font-family="Avenir Next" font-size="9.00" fill="#41515b">EOS425</text>
</a>
</g>
</g>
<!-- course__EOS335&#45;&gt;course__EOS425 -->
<g id="edge24" class="edge">
<title>course__EOS335&#45;&gt;course__EOS425</title>
<path fill="none" stroke="#5d6972" stroke-width="1.2" d="M461.76,-114.72C479.91,-106.91 504.2,-96.48 523.64,-88.12"/>
<polygon fill="#5d6972" stroke="#5d6972" stroke-width="1.2" points="524.83,-90.28 530.3,-85.26 522.9,-85.77 524.83,-90.28"/>
</g>
<!-- course__EOS460 -->
<g id="node25" class="node">
<title>course__EOS460</title>
<g id="a_node25"><a xlink:href="../../../courses/EOS460.html" xlink:title="EOS460: Earth System Science" target="_top">
<path fill="#d7e9ef" stroke="#7e8d96" d="M572.5,-36C572.5,-36 542.5,-36 542.5,-36 536.5,-36 530.5,-30 530.5,-24 530.5,-24 530.5,-12 530.5,-12 530.5,-6 536.5,0 542.5,0 542.5,0 572.5,0 572.5,0 578.5,0 584.5,-6 584.5,-12 584.5,-12 584.5,-24 584.5,-24 584.5,-30 578.5,-36 572.5,-36"/>
<text text-anchor="middle" x="557.5" y="-15.8" font-family="Avenir Next" font-size="9.00" fill="#41515b">EOS460</text>
</a>
</g>
</g>
<!-- course__EOS335&#45;&gt;course__EOS460 -->
<g id="edge28" class="edge">
<title>course__EOS335&#45;&gt;course__EOS460</title>
<path fill="none" stroke="#5d6972" stroke-width="1.2" d="M455.75,-107.92C476.34,-89.54 508.32,-61.01 530.71,-41.02"/>
<polygon fill="#5d6972" stroke="#5d6972" stroke-width="1.2" points="532.59,-42.62 536.18,-36.14 529.33,-38.97 532.59,-42.62"/>
</g>
<!-- course__GEOG476 -->
<g id="node26" class="node">
<title>course__GEOG476</title>
<g id="a_node26"><a xlink:href="../../../courses/GEOG476.html" xlink:title="GEOG476: Advanced Topics in Geomorphology" target="_top">
<path fill="#e7e2d8" stroke="#7e8d96" d="M576,-396C576,-396 539,-396 539,-396 533,-396 527,-390 527,-384 527,-384 527,-372 527,-372 527,-366 533,-360 539,-360 539,-360 576,-360 576,-360 582,-360 588,-366 588,-372 588,-372 588,-384 588,-384 588,-390 582,-396 576,-396"/>
<text text-anchor="middle" x="557.5" y="-375.8" font-family="Avenir Next" font-size="9.00" fill="#41515b">GEOG476</text>
</a>
</g>
</g>
<!-- course__GEOG376&#45;&gt;course__GEOG476 -->
<g id="edge30" class="edge">
<title>course__GEOG376&#45;&gt;course__GEOG476</title>
<path fill="none" stroke="#5d6972" stroke-width="1.2" d="M466.03,-419.87C482.47,-412.26 502.86,-402.82 520.12,-394.84"/>
<polygon fill="#5d6972" stroke="#5d6972" stroke-width="1.2" points="521.49,-396.9 526.81,-391.74 519.43,-392.46 521.49,-396.9"/>
</g>
<!-- course__GEOG477 -->
<g id="node27" class="node">
<title>course__GEOG477</title>
<g id="a_node27"><a xlink:href="../../../courses/GEOG477.html" xlink:title="GEOG477: Field Studies in Physical Geography" target="_top">
<path fill="#e7e2d8" stroke="#7e8d96" d="M576,-452C576,-452 539,-452 539,-452 533,-452 527,-446 527,-440 527,-440 527,-428 527,-428 527,-422 533,-416 539,-416 539,-416 576,-416 576,-416 582,-416 588,-422 588,-428 588,-428 588,-440 588,-440 588,-446 582,-452 576,-452"/>
<text text-anchor="middle" x="557.5" y="-431.8" font-family="Avenir Next" font-size="9.00" fill="#41515b">GEOG477</text>
</a>
</g>
</g>
<!-- course__GEOG376&#45;&gt;course__GEOG477 -->
<g id="edge31" class="edge">
<title>course__GEOG376&#45;&gt;course__GEOG477</title>
<path fill="none" stroke="#5d6972" stroke-width="1.2" d="M466.03,-434C482.33,-434 502.5,-434 519.66,-434"/>
<polygon fill="#5d6972" stroke="#5d6972" stroke-width="1.2" points="519.81,-436.45 526.81,-434 519.81,-431.55 519.81,-436.45"/>
</g>
</g>
</svg>
