<?xml version="1.0" encoding="UTF-8" standalone="no"?>
<!DOCTYPE svg PUBLIC "-//W3C//DTD SVG 1.1//EN"
 "http://www.w3.org/Graphics/SVG/1.1/DTD/svg11.dtd">
<!-- Generated by graphviz version 2.43.0 (0)
 -->
<!-- Title: EOS130 Pages: 1 -->
<svg width="1193pt" height="352pt"
 viewBox="0.00 0.00 1193.20 352.20" xmlns="http://www.w3.org/2000/svg" xmlns:xlink="http://www.w3.org/1999/xlink">
<g id="graph0" class="graph" transform="scale(1 1) rotate(0) translate(21.6 330.6)">
<title>EOS130</title>
<!-- course__EOS130 -->
<g id="node1" class="node">
<title>course__EOS130</title>
<g id="a_node1"><a xlink:href="../../../courses/EOS130.html" xlink:title="Equivalent or cross&#45;listed: EOS130: Climate Change | GEOG130: Climate Change" target="_top">
<path fill="#d7e9ef" stroke="#1f4f66" stroke-width="2" d="M98,-123C98,-123 12,-123 12,-123 6,-123 0,-117 0,-111 0,-111 0,-99 0,-99 0,-93 6,-87 12,-87 12,-87 98,-87 98,-87 104,-87 110,-93 110,-99 110,-99 110,-111 110,-111 110,-117 104,-123 98,-123"/>
<text text-anchor="middle" x="55" y="-108" font-family="Avenir Next" font-size="10.00" fill="#17232b">EOS130 / GEOG130</text>
<text text-anchor="middle" x="55" y="-97" font-family="Avenir Next" font-size="10.00" fill="#17232b">Climate Change</text>
</a>
</g>
</g>
<!-- course__EOS230 -->
<g id="node2" class="node">
<title>course__EOS230</title>
<g id="a_node2"><a xlink:href="../../../courses/EOS230.html" xlink:title="Equivalent or cross&#45;listed: EOS230: Introduction to Environmental Data Analysis | GEOG230: Introduction to Environmental Data Analysis" target="_top">
<path fill="#d7e9ef" stroke="#1b2730" stroke-width="1.6" d="M269,-151C269,-151 183,-151 183,-151 177,-151 171,-145 171,-139 171,-139 171,-127 171,-127 171,-121 177,-115 183,-115 183,-115 269,-115 269,-115 275,-115 281,-121 281,-127 281,-127 281,-139 281,-139 281,-145 275,-151 269,-151"/>
<text text-anchor="middle" x="226" y="-130.5" font-family="Avenir Next" font-size="10.00" fill="#17232b">EOS230 / GEOG230</text>
</a>
</g>
</g>
<!-- course__EOS130&#45;&gt;course__EOS230 -->
<g id="edge1" class="edge">
<title>course__EOS130&#45;&gt;course__EOS230</title>
<path fill="none" stroke="#5d6972" stroke-width="1.2" d="M110.4,-114.01C127.37,-116.83 146.21,-119.95 163.62,-122.83"/>
<polygon fill="#5d6972" stroke="#5d6972" stroke-width="1.2" points="163.68,-125.32 170.99,-124.05 164.48,-120.49 163.68,-125.32"/>
</g>
<!-- course__EOS261 -->
<g id="node3" class="node">
<title>course__EOS261</title>
<g id="a_node3"><a xlink:href="../../../courses/EOS261.html" xlink:title="EOS261: The Climate System" target="_top">
<path fill="#d7e9ef" stroke="#1b2730" stroke-width="1.6" d="M241,-207C241,-207 211,-207 211,-207 205,-207 199,-201 199,-195 199,-195 199,-183 199,-183 199,-177 205,-171 211,-171 211,-171 241,-171 241,-171 247,-171 253,-177 253,-183 253,-183 253,-195 253,-195 253,-201 247,-207 241,-207"/>
<text text-anchor="middle" x="226" y="-186.5" font-family="Avenir Next" font-size="10.00" fill="#17232b">EOS261</text>
</a>
</g>
</g>
<!-- course__EOS130&#45;&gt;course__EOS261 -->
<g id="edge2" class="edge">
<title>course__EOS130&#45;&gt;course__EOS261</title>
<path fill="none" stroke="#5d6972" stroke-width="1.2" d="M92.25,-123.02C122.1,-137.85 164.02,-158.69 192.72,-172.96"/>
<polygon fill="#5d6972" stroke="#5d6972" stroke-width="1.2" points="191.64,-175.15 199,-176.08 193.82,-170.77 191.64,-175.15"/>
</g>
<!-- course__GEOG209 -->
<g id="node4" class="node">
<title>course__GEOG209</title>
<g id="a_node4"><a xlink:href="../../../courses/GEOG209.html" xlink:title="GEOG209: Environmental Management" target="_top">
<path fill="#e7e2d8" stroke="#1b2730" stroke-width="1.6" d="M245.5,-95C245.5,-95 206.5,-95 206.5,-95 200.5,-95 194.5,-89 194.5,-83 194.5,-83 194.5,-71 194.5,-71 194.5,-65 200.5,-59 206.5,-59 206.5,-59 245.5,-59 245.5,-59 251.5,-59 257.5,-65 257.5,-71 257.5,-71 257.5,-83 257.5,-83 257.5,-89 251.5,-95 245.5,-95"/>
<text text-anchor="middle" x="226" y="-74.5" font-family="Avenir Next" font-size="10.00" fill="#17232b">GEOG209</text>
</a>
</g>
</g>
<!-- course__EOS130&#45;&gt;course__GEOG209 -->
<g id="edge19" class="edge">
<title>course__EOS130&#45;&gt;course__GEOG209</title>
<path fill="none" stroke="#5d6972" stroke-width="1.2" d="M110.4,-95.99C135.48,-91.83 164.62,-87 187.24,-83.26"/>
<polygon fill="#5d6972" stroke="#5d6972" stroke-width="1.2" points="187.84,-85.64 194.35,-82.08 187.04,-80.81 187.84,-85.64"/>
</g>
<!-- course__GEOG272 -->
<g id="node5" class="node">
<title>course__GEOG272</title>
<g id="a_node5"><a xlink:href="../../../courses/GEOG272.html" xlink:title="GEOG272: Climatology and Hydrology" target="_top">
<path fill="#e7e2d8" stroke="#1b2730" stroke-width="1.6" d="M245.5,-39C245.5,-39 206.5,-39 206.5,-39 200.5,-39 194.5,-33 194.5,-27 194.5,-27 194.5,-15 194.5,-15 194.5,-9 200.5,-3 206.5,-3 206.5,-3 245.5,-3 245.5,-3 251.5,-3 257.5,-9 257.5,-15 257.5,-15 257.5,-27 257.5,-27 257.5,-33 251.5,-39 245.5,-39"/>
<text text-anchor="middle" x="226" y="-18.5" font-family="Avenir Next" font-size="10.00" fill="#17232b">GEOG272</text>
</a>
</g>
</g>
<!-- course__EOS130&#45;&gt;course__GEOG272 -->
<g id="edge20" class="edge">
<title>course__EOS130&#45;&gt;course__GEOG272</title>
<path fill="none" stroke="#5d6972" stroke-width="1.2" d="M92.25,-86.98C120.45,-72.97 159.42,-53.6 187.84,-39.47"/>
<polygon fill="#5d6972" stroke="#5d6972" stroke-width="1.2" points="189.28,-41.49 194.46,-36.18 187.1,-37.1 189.28,-41.49"/>
</g>
<!-- choice_EOS321_0_1_0 -->
<g id="node19" class="node">
<title>choice_EOS321_0_1_0</title>
<path fill="#fff7ee" stroke="#b7793f" stroke-width="1.1" d="M384,-151C384,-151 354,-151 354,-151 348,-151 342,-145 342,-139 342,-139 342,-127 342,-127 342,-121 348,-115 354,-115 354,-115 384,-115 384,-115 390,-115 396,-121 396,-127 396,-127 396,-139 396,-139 396,-145 390,-151 384,-151"/>
<text text-anchor="middle" x="369" y="-130.8" font-family="Avenir Next" font-size="9.00">1 of</text>
</g>
<!-- course__EOS230&#45;&gt;choice_EOS321_0_1_0 -->
<g id="edge4" class="edge">
<title>course__EOS230&#45;&gt;choice_EOS321_0_1_0</title>
<path fill="none" stroke="#7a8389" d="M281.11,-133C299.16,-133 318.73,-133 334.71,-133"/>
<polygon fill="#7a8389" stroke="#7a8389" points="334.79,-135.45 341.79,-133 334.79,-130.55 334.79,-135.45"/>
</g>
<!-- choice_EOS325_0_2_0 -->
<g id="node20" class="node">
<title>choice_EOS325_0_2_0</title>
<path fill="#fff7ee" stroke="#b7793f" stroke-width="1.1" d="M384,-207C384,-207 354,-207 354,-207 348,-207 342,-201 342,-195 342,-195 342,-183 342,-183 342,-177 348,-171 354,-171 354,-171 384,-171 384,-171 390,-171 396,-177 396,-183 396,-183 396,-195 396,-195 396,-201 390,-207 384,-207"/>
<text text-anchor="middle" x="369" y="-186.8" font-family="Avenir Next" font-size="9.00">1 of</text>
</g>
<!-- course__EOS230&#45;&gt;choice_EOS325_0_2_0 -->
<g id="edge7" class="edge">
<title>course__EOS230&#45;&gt;choice_EOS325_0_2_0</title>
<path fill="none" stroke="#7a8389" d="M272.39,-151.03C292.75,-159.11 316.33,-168.48 334.98,-175.88"/>
<polygon fill="#7a8389" stroke="#7a8389" points="334.2,-178.21 341.61,-178.52 336.01,-173.66 334.2,-178.21"/>
</g>
<!-- course__EOS261&#45;&gt;choice_EOS321_0_1_0 -->
<g id="edge5" class="edge">
<title>course__EOS261&#45;&gt;choice_EOS321_0_1_0</title>
<path fill="none" stroke="#7a8389" d="M253.19,-178.6C276.34,-169.4 310.21,-155.95 335.16,-146.04"/>
<polygon fill="#7a8389" stroke="#7a8389" points="336.35,-148.21 341.95,-143.35 334.54,-143.65 336.35,-148.21"/>
</g>
<!-- course__EOS261&#45;&gt;choice_EOS325_0_2_0 -->
<g id="edge8" class="edge">
<title>course__EOS261&#45;&gt;choice_EOS325_0_2_0</title>
<path fill="none" stroke="#7a8389" d="M253.19,-189C276.24,-189 309.92,-189 334.84,-189"/>
<polygon fill="#7a8389" stroke="#7a8389" points="334.95,-191.45 341.95,-189 334.95,-186.55 334.95,-191.45"/>
</g>
<!-- choice_GEOG370_0_0 -->
<g id="node22" class="node">
<title>choice_GEOG370_0_0</title>
<path fill="#fff7ee" stroke="#b7793f" stroke-width="1.1" d="M779,-39C779,-39 749,-39 749,-39 743,-39 737,-33 737,-27 737,-27 737,-15 737,-15 737,-9 743,-3 749,-3 749,-3 779,-3 779,-3 785,-3 791,-9 791,-15 791,-15 791,-27 791,-27 791,-33 785,-39 779,-39"/>
<text text-anchor="middle" x="764" y="-18.8" font-family="Avenir Next" font-size="9.00">1 of</text>
</g>
<!-- course__GEOG272&#45;&gt;choice_GEOG370_0_0 -->
<g id="edge21" class="edge">
<title>course__GEOG272&#45;&gt;choice_GEOG370_0_0</title>
<path fill="none" stroke="#7a8389" d="M257.74,-21C351.4,-21 632.69,-21 729.69,-21"/>
<polygon fill="#7a8389" stroke="#7a8389" points="729.89,-23.45 736.89,-21 729.89,-18.55 729.89,-23.45"/>
</g>
<!-- course__EOS321 -->
<g id="node6" class="node">
<title>course__EOS321</title>
<g id="a_node6"><a xlink:href="../../../courses/EOS321.html" xlink:title="EOS321: Earth History" target="_top">
<path fill="#d7e9ef" stroke="#7e8d96" d="M499,-151C499,-151 469,-151 469,-151 463,-151 457,-145 457,-139 457,-139 457,-127 457,-127 457,-121 463,-115 469,-115 469,-115 499,-115 499,-115 505,-115 511,-121 511,-127 511,-127 511,-139 511,-139 511,-145 505,-151 499,-151"/>
<text text-anchor="middle" x="484" y="-130.8" font-family="Avenir Next" font-size="9.00" fill="#41515b">EOS321</text>
</a>
</g>
</g>
<!-- course__EOS325 -->
<g id="node7" class="node">
<title>course__EOS325</title>
<g id="a_node7"><a xlink:href="../../../courses/EOS325.html" xlink:title="EOS325: Earth System Modelling" target="_top">
<path fill="#d7e9ef" stroke="#7e8d96" d="M499,-207C499,-207 469,-207 469,-207 463,-207 457,-201 457,-195 457,-195 457,-183 457,-183 457,-177 463,-171 469,-171 469,-171 499,-171 499,-171 505,-171 511,-177 511,-183 511,-183 511,-195 511,-195 511,-201 505,-207 499,-207"/>
<text text-anchor="middle" x="484" y="-186.8" font-family="Avenir Next" font-size="9.00" fill="#41515b">EOS325</text>
</a>
</g>
</g>
<!-- course__EOS340 -->
<g id="node8" class="node">
<title>course__EOS340</title>
<g id="a_node8"><a xlink:href="../../../courses/EOS340.html" xlink:title="Equivalent or cross&#45;listed: EOS340: Atmospheric Physics | PHYS340: Atmospheric Physics" target="_top">
<path fill="#d7e9ef" stroke="#7e8d96" d="M664,-141C664,-141 584,-141 584,-141 578,-141 572,-135 572,-129 572,-129 572,-117 572,-117 572,-111 578,-105 584,-105 584,-105 664,-105 664,-105 670,-105 676,-111 676,-117 676,-117 676,-129 676,-129 676,-135 670,-141 664,-141"/>
<text text-anchor="middle" x="624" y="-120.8" font-family="Avenir Next" font-size="9.00" fill="#41515b">EOS340 / PHYS340</text>
</a>
</g>
</g>
<!-- course__EOS325&#45;&gt;course__EOS340 -->
<g id="edge10" class="edge">
<title>course__EOS325&#45;&gt;course__EOS340</title>
<path fill="none" stroke="#5d6972" stroke-width="1.2" d="M511.28,-176.43C530.36,-167.31 556.61,-154.75 578.88,-144.1"/>
<polygon fill="#5d6972" stroke="#5d6972" stroke-width="1.2" points="580.09,-146.24 585.35,-141.01 577.97,-141.82 580.09,-146.24"/>
</g>
<!-- course__EOS423 -->
<g id="node9" class="node">
<title>course__EOS423</title>
<g id="a_node9"><a xlink:href="../../../courses/EOS423.html" xlink:title="EOS423: Advanced Sedimentology and Stratigraphy" target="_top">
<path fill="#d7e9ef" stroke="#7e8d96" d="M639,-309C639,-309 609,-309 609,-309 603,-309 597,-303 597,-297 597,-297 597,-285 597,-285 597,-279 603,-273 609,-273 609,-273 639,-273 639,-273 645,-273 651,-279 651,-285 651,-285 651,-297 651,-297 651,-303 645,-309 639,-309"/>
<text text-anchor="middle" x="624" y="-288.8" font-family="Avenir Next" font-size="9.00" fill="#41515b">EOS423</text>
</a>
</g>
</g>
<!-- course__EOS325&#45;&gt;course__EOS423 -->
<g id="edge14" class="edge">
<title>course__EOS325&#45;&gt;course__EOS423</title>
<path fill="none" stroke="#5d6972" stroke-width="1.2" d="M504.12,-207.25C521.17,-223.01 547.18,-245.9 572,-263 577.86,-267.04 584.37,-270.98 590.71,-274.57"/>
<polygon fill="#5d6972" stroke="#5d6972" stroke-width="1.2" points="589.66,-276.79 596.97,-278.03 592.03,-272.5 589.66,-276.79"/>
</g>
<!-- course__EOS431 -->
<g id="node10" class="node">
<title>course__EOS431</title>
<g id="a_node10"><a xlink:href="../../../courses/EOS431.html" xlink:title="Equivalent or cross&#45;listed: EOS431: Physical Oceanography | PHYS441: Physical Oceanography" target="_top">
<path fill="#d7e9ef" stroke="#7e8d96" d="M664,-253C664,-253 584,-253 584,-253 578,-253 572,-247 572,-241 572,-241 572,-229 572,-229 572,-223 578,-217 584,-217 584,-217 664,-217 664,-217 670,-217 676,-223 676,-229 676,-229 676,-241 676,-241 676,-247 670,-253 664,-253"/>
<text text-anchor="middle" x="624" y="-232.8" font-family="Avenir Next" font-size="9.00" fill="#41515b">EOS431 / PHYS441</text>
</a>
</g>
</g>
<!-- course__EOS325&#45;&gt;course__EOS431 -->
<g id="edge15" class="edge">
<title>course__EOS325&#45;&gt;course__EOS431</title>
<path fill="none" stroke="#5d6972" stroke-width="1.2" d="M511.28,-197.76C526.53,-202.84 546.38,-209.46 565.1,-215.7"/>
<polygon fill="#5d6972" stroke="#5d6972" stroke-width="1.2" points="564.53,-218.09 571.94,-217.98 566.07,-213.44 564.53,-218.09"/>
</g>
<!-- course__EOS460 -->
<g id="node11" class="node">
<title>course__EOS460</title>
<g id="a_node11"><a xlink:href="../../../courses/EOS460.html" xlink:title="EOS460: Earth System Science" target="_top">
<path fill="#d7e9ef" stroke="#7e8d96" d="M639,-197C639,-197 609,-197 609,-197 603,-197 597,-191 597,-185 597,-185 597,-173 597,-173 597,-167 603,-161 609,-161 609,-161 639,-161 639,-161 645,-161 651,-167 651,-173 651,-173 651,-185 651,-185 651,-191 645,-197 639,-197"/>
<text text-anchor="middle" x="624" y="-176.8" font-family="Avenir Next" font-size="9.00" fill="#41515b">EOS460</text>
</a>
</g>
</g>
<!-- course__EOS325&#45;&gt;course__EOS460 -->
<g id="edge18" class="edge">
<title>course__EOS325&#45;&gt;course__EOS460</title>
<path fill="none" stroke="#5d6972" stroke-width="1.2" d="M511.28,-187.1C533.53,-185.48 565.56,-183.16 589.62,-181.42"/>
<polygon fill="#5d6972" stroke="#5d6972" stroke-width="1.2" points="590.01,-183.85 596.82,-180.9 589.66,-178.96 590.01,-183.85"/>
</g>
<!-- course__EOS433 -->
<g id="node13" class="node">
<title>course__EOS433</title>
<g id="a_node13"><a xlink:href="../../../courses/EOS433.html" xlink:title="EOS433: The Physics of Climate" target="_top">
<path fill="#d7e9ef" stroke="#7e8d96" d="M897.5,-92C897.5,-92 867.5,-92 867.5,-92 861.5,-92 855.5,-86 855.5,-80 855.5,-80 855.5,-68 855.5,-68 855.5,-62 861.5,-56 867.5,-56 867.5,-56 897.5,-56 897.5,-56 903.5,-56 909.5,-62 909.5,-68 909.5,-68 909.5,-80 909.5,-80 909.5,-86 903.5,-92 897.5,-92"/>
<text text-anchor="middle" x="882.5" y="-71.8" font-family="Avenir Next" font-size="9.00" fill="#41515b">EOS433</text>
</a>
</g>
</g>
<!-- course__EOS340&#45;&gt;course__EOS433 -->
<g id="edge16" class="edge">
<title>course__EOS340&#45;&gt;course__EOS433</title>
<path fill="none" stroke="#5d6972" stroke-width="1.2" d="M676.29,-113.2C727.53,-103.41 804.78,-88.66 848.42,-80.32"/>
<polygon fill="#5d6972" stroke="#5d6972" stroke-width="1.2" points="848.97,-82.71 855.38,-78.99 848.05,-77.9 848.97,-82.71"/>
</g>
<!-- course__EOS451 -->
<g id="node14" class="node">
<title>course__EOS451</title>
<g id="a_node14"><a xlink:href="../../../courses/EOS451.html" xlink:title="EOS451: Introductory Dynamic Meteorology" target="_top">
<path fill="#d7e9ef" stroke="#7e8d96" d="M897.5,-148C897.5,-148 867.5,-148 867.5,-148 861.5,-148 855.5,-142 855.5,-136 855.5,-136 855.5,-124 855.5,-124 855.5,-118 861.5,-112 867.5,-112 867.5,-112 897.5,-112 897.5,-112 903.5,-112 909.5,-118 909.5,-124 909.5,-124 909.5,-136 909.5,-136 909.5,-142 903.5,-148 897.5,-148"/>
<text text-anchor="middle" x="882.5" y="-127.8" font-family="Avenir Next" font-size="9.00" fill="#41515b">EOS451</text>
</a>
</g>
</g>
<!-- course__EOS340&#45;&gt;course__EOS451 -->
<g id="edge17" class="edge">
<title>course__EOS340&#45;&gt;course__EOS451</title>
<path fill="none" stroke="#5d6972" stroke-width="1.2" d="M676.29,-124.4C727.43,-125.8 804.46,-127.9 848.15,-129.09"/>
<polygon fill="#5d6972" stroke="#5d6972" stroke-width="1.2" points="848.32,-131.55 855.38,-129.29 848.45,-126.65 848.32,-131.55"/>
</g>
<!-- course__EOS340&#45;&gt;choice_GEOG370_0_0 -->
<g id="edge22" class="edge">
<title>course__EOS340&#45;&gt;choice_GEOG370_0_0</title>
<path fill="none" stroke="#7a8389" d="M649.35,-105C672.56,-87.84 707.58,-61.96 732.61,-43.46"/>
<polygon fill="#7a8389" stroke="#7a8389" points="734.25,-45.29 738.43,-39.16 731.34,-41.35 734.25,-45.29"/>
</g>
<!-- choice_PHYS411_0_0 -->
<g id="node23" class="node">
<title>choice_PHYS411_0_0</title>
<path fill="#fff7ee" stroke="#b7793f" stroke-width="1.1" d="M779,-204C779,-204 749,-204 749,-204 743,-204 737,-198 737,-192 737,-192 737,-180 737,-180 737,-174 743,-168 749,-168 749,-168 779,-168 779,-168 785,-168 791,-174 791,-180 791,-180 791,-192 791,-192 791,-198 785,-204 779,-204"/>
<text text-anchor="middle" x="764" y="-183.8" font-family="Avenir Next" font-size="9.00">2 of</text>
</g>
<!-- course__EOS340&#45;&gt;choice_PHYS411_0_0 -->
<g id="edge25" class="edge">
<title>course__EOS340&#45;&gt;choice_PHYS411_0_0</title>
<path fill="none" stroke="#7a8389" d="M664.55,-141.05C685.44,-150.59 710.77,-162.16 730.51,-171.17"/>
<polygon fill="#7a8389" stroke="#7a8389" points="729.58,-173.44 736.97,-174.12 731.62,-168.98 729.58,-173.44"/>
</g>
<!-- course__EOS312 -->
<g id="node12" class="node">
<title>course__EOS312</title>
<g id="a_node12"><a xlink:href="../../../courses/EOS312.html" xlink:title="EOS312: Introductory Chemical Oceanography" target="_top">
<path fill="#d7e9ef" stroke="#7e8d96" d="M897.5,-302C897.5,-302 867.5,-302 867.5,-302 861.5,-302 855.5,-296 855.5,-290 855.5,-290 855.5,-278 855.5,-278 855.5,-272 861.5,-266 867.5,-266 867.5,-266 897.5,-266 897.5,-266 903.5,-266 909.5,-272 909.5,-278 909.5,-278 909.5,-290 909.5,-290 909.5,-296 903.5,-302 897.5,-302"/>
<text text-anchor="middle" x="882.5" y="-281.8" font-family="Avenir Next" font-size="9.00" fill="#41515b">EOS312</text>
</a>
</g>
</g>
<!-- course__EOS431&#45;&gt;course__EOS312 -->
<g id="edge3" class="edge">
<title>course__EOS431&#45;&gt;course__EOS312</title>
<path fill="none" stroke="#5d6972" stroke-width="1.2" d="M676.29,-244.8C727.53,-254.59 804.78,-269.34 848.42,-277.68"/>
<polygon fill="#5d6972" stroke="#5d6972" stroke-width="1.2" points="848.05,-280.1 855.38,-279.01 848.97,-275.29 848.05,-280.1"/>
</g>
<!-- choice_EOS401_0 -->
<g id="node21" class="node">
<title>choice_EOS401_0</title>
<path fill="#fff7ee" stroke="#b7793f" stroke-width="1.1" d="M1016,-277C1016,-277 986,-277 986,-277 980,-277 974,-271 974,-265 974,-265 974,-253 974,-253 974,-247 980,-241 986,-241 986,-241 1016,-241 1016,-241 1022,-241 1028,-247 1028,-253 1028,-253 1028,-265 1028,-265 1028,-271 1022,-277 1016,-277"/>
<text text-anchor="middle" x="1001" y="-256.8" font-family="Avenir Next" font-size="9.00">3 of</text>
</g>
<!-- course__EOS431&#45;&gt;choice_EOS401_0 -->
<g id="edge12" class="edge">
<title>course__EOS431&#45;&gt;choice_EOS401_0</title>
<path fill="none" stroke="#7a8389" d="M676.36,-238.29C754.39,-243.28 900.67,-252.64 966.45,-256.85"/>
<polygon fill="#7a8389" stroke="#7a8389" points="966.55,-259.31 973.69,-257.32 966.86,-254.42 966.55,-259.31"/>
</g>
<!-- course__EOS431&#45;&gt;choice_PHYS411_0_0 -->
<g id="edge26" class="edge">
<title>course__EOS431&#45;&gt;choice_PHYS411_0_0</title>
<path fill="none" stroke="#7a8389" d="M675.99,-216.89C694.13,-210.45 714.06,-203.38 730.26,-197.63"/>
<polygon fill="#7a8389" stroke="#7a8389" points="731.18,-199.9 736.96,-195.25 729.54,-195.28 731.18,-199.9"/>
</g>
<!-- course__EOS312&#45;&gt;choice_EOS401_0 -->
<g id="edge11" class="edge">
<title>course__EOS312&#45;&gt;choice_EOS401_0</title>
<path fill="none" stroke="#7a8389" d="M909.64,-278.39C926.58,-274.75 948.79,-269.99 966.95,-266.09"/>
<polygon fill="#7a8389" stroke="#7a8389" points="967.61,-268.46 973.94,-264.59 966.58,-263.67 967.61,-268.46"/>
</g>
<!-- course__GEOG370 -->
<g id="node15" class="node">
<title>course__GEOG370</title>
<g id="a_node15"><a xlink:href="../../../courses/GEOG370.html" xlink:title="GEOG370: Methods in Hydrology" target="_top">
<path fill="#e7e2d8" stroke="#7e8d96" d="M901,-36C901,-36 864,-36 864,-36 858,-36 852,-30 852,-24 852,-24 852,-12 852,-12 852,-6 858,0 864,0 864,0 901,0 901,0 907,0 913,-6 913,-12 913,-12 913,-24 913,-24 913,-30 907,-36 901,-36"/>
<text text-anchor="middle" x="882.5" y="-15.8" font-family="Avenir Next" font-size="9.00" fill="#41515b">GEOG370</text>
</a>
</g>
</g>
<!-- course__GEOG477 -->
<g id="node18" class="node">
<title>course__GEOG477</title>
<g id="a_node18"><a xlink:href="../../../courses/GEOG477.html" xlink:title="GEOG477: Field Studies in Physical Geography" target="_top">
<path fill="#e7e2d8" stroke="#7e8d96" d="M1138,-36C1138,-36 1101,-36 1101,-36 1095,-36 1089,-30 1089,-24 1089,-24 1089,-12 1089,-12 1089,-6 1095,0 1101,0 1101,0 1138,0 1138,0 1144,0 1150,-6 1150,-12 1150,-12 1150,-24 1150,-24 1150,-30 1144,-36 1138,-36"/>
<text text-anchor="middle" x="1119.5" y="-15.8" font-family="Avenir Next" font-size="9.00" fill="#41515b">GEOG477</text>
</a>
</g>
</g>
<!-- course__GEOG370&#45;&gt;course__GEOG477 -->
<g id="edge24" class="edge">
<title>course__GEOG370&#45;&gt;course__GEOG477</title>
<path fill="none" stroke="#5d6972" stroke-width="1.2" d="M913.26,-18C956.17,-18 1035.34,-18 1081.81,-18"/>
<polygon fill="#5d6972" stroke="#5d6972" stroke-width="1.2" points="1081.98,-20.45 1088.98,-18 1081.98,-15.55 1081.98,-20.45"/>
</g>
<!-- course__PHYS411 -->
<g id="node16" class="node">
<title>course__PHYS411</title>
<g id="a_node16"><a xlink:href="../../../courses/PHYS411.html" xlink:title="PHYS411: Time Series Analysis" target="_top">
<path fill="#efd8cf" stroke="#7e8d96" d="M899.5,-204C899.5,-204 865.5,-204 865.5,-204 859.5,-204 853.5,-198 853.5,-192 853.5,-192 853.5,-180 853.5,-180 853.5,-174 859.5,-168 865.5,-168 865.5,-168 899.5,-168 899.5,-168 905.5,-168 911.5,-174 911.5,-180 911.5,-180 911.5,-192 911.5,-192 911.5,-198 905.5,-204 899.5,-204"/>
<text text-anchor="middle" x="882.5" y="-183.8" font-family="Avenir Next" font-size="9.00" fill="#41515b">PHYS411</text>
</a>
</g>
</g>
<!-- course__EOS401 -->
<g id="node17" class="node">
<title>course__EOS401</title>
<g id="a_node17"><a xlink:href="../../../courses/EOS401.html" xlink:title="EOS401: Oceanographic Field School" target="_top">
<path fill="#d7e9ef" stroke="#7e8d96" d="M1134.5,-277C1134.5,-277 1104.5,-277 1104.5,-277 1098.5,-277 1092.5,-271 1092.5,-265 1092.5,-265 1092.5,-253 1092.5,-253 1092.5,-247 1098.5,-241 1104.5,-241 1104.5,-241 1134.5,-241 1134.5,-241 1140.5,-241 1146.5,-247 1146.5,-253 1146.5,-253 1146.5,-265 1146.5,-265 1146.5,-271 1140.5,-277 1134.5,-277"/>
<text text-anchor="middle" x="1119.5" y="-256.8" font-family="Avenir Next" font-size="9.00" fill="#41515b">EOS401</text>
</a>
</g>
</g>
<!-- choice_EOS321_0_1_0&#45;&gt;course__EOS321 -->
<g id="edge6" class="edge">
<title>choice_EOS321_0_1_0&#45;&gt;course__EOS321</title>
<path fill="none" stroke="#5d6972" stroke-width="1.2" d="M396.21,-133C412.18,-133 432.74,-133 449.84,-133"/>
<polygon fill="#5d6972" stroke="#5d6972" stroke-width="1.2" points="449.93,-135.45 456.93,-133 449.93,-130.55 449.93,-135.45"/>
</g>
<!-- choice_EOS325_0_2_0&#45;&gt;course__EOS325 -->
<g id="edge9" class="edge">
<title>choice_EOS325_0_2_0&#45;&gt;course__EOS325</title>
<path fill="none" stroke="#5d6972" stroke-width="1.2" d="M396.21,-189C412.18,-189 432.74,-189 449.84,-189"/>
<polygon fill="#5d6972" stroke="#5d6972" stroke-width="1.2" points="449.93,-191.45 456.93,-189 449.93,-186.55 449.93,-191.45"/>
</g>
<!-- choice_EOS401_0&#45;&gt;course__EOS401 -->
<g id="edge13" class="edge">
<title>choice_EOS401_0&#45;&gt;course__EOS401</title>
<path fill="none" stroke="#5d6972" stroke-width="1.2" d="M1028.14,-259C1044.93,-259 1066.9,-259 1084.96,-259"/>
<polygon fill="#5d6972" stroke="#5d6972" stroke-width="1.2" points="1085.44,-261.45 1092.44,-259 1085.44,-256.55 1085.44,-261.45"/>
</g>
<!-- choice_GEOG370_0_0&#45;&gt;course__GEOG370 -->
<g id="edge23" class="edge">
<title>choice_GEOG370_0_0&#45;&gt;course__GEOG370</title>
<path fill="none" stroke="#5d6972" stroke-width="1.2" d="M791.14,-20.33C806.88,-19.92 827.15,-19.4 844.51,-18.95"/>
<polygon fill="#5d6972" stroke="#5d6972" stroke-width="1.2" points="844.81,-21.4 851.75,-18.77 844.69,-16.5 844.81,-21.4"/>
</g>
<!-- choice_PHYS411_0_0&#45;&gt;course__PHYS411 -->
<g id="edge27" class="edge">
<title>choice_PHYS411_0_0&#45;&gt;course__PHYS411</title>
<path fill="none" stroke="#5d6972" stroke-width="1.2" d="M791.14,-186C807.35,-186 828.37,-186 846.05,-186"/>
<polygon fill="#5d6972" stroke="#5d6972" stroke-width="1.2" points="846.41,-188.45 853.41,-186 846.41,-183.55 846.41,-188.45"/>
</g>
</g>
</svg>
