<?xml version="1.0" encoding="UTF-8" standalone="no"?>
<!DOCTYPE svg PUBLIC "-//W3C//DTD SVG 1.1//EN"
 "http://www.w3.org/Graphics/SVG/1.1/DTD/svg11.dtd">
<!-- Generated by graphviz version 2.43.0 (0)
 -->
<!-- Title: EOS110 Pages: 1 -->
<svg width="1219pt" height="401pt"
 viewBox="0.00 0.00 1219.20 401.20" xmlns="http://www.w3.org/2000/svg" xmlns:xlink="http://www.w3.org/1999/xlink">
<g id="graph0" class="graph" transform="scale(1 1) rotate(0) translate(21.6 379.6)">
<title>EOS110</title>
<!-- course__EOS110 -->
<g id="node1" class="node">
<title>course__EOS110</title>
<g id="a_node1"><a xlink:href="../../../courses/EOS110.html" xlink:title="Equivalent or cross&#45;listed: EOS110: Oceans and Atmosphere | EOS350: Understanding the Oceans" target="_top">
<path fill="#d7e9ef" stroke="#1f4f66" stroke-width="2" d="M124,-190C124,-190 12,-190 12,-190 6,-190 0,-184 0,-178 0,-178 0,-166 0,-166 0,-160 6,-154 12,-154 12,-154 124,-154 124,-154 130,-154 136,-160 136,-166 136,-166 136,-178 136,-178 136,-184 130,-190 124,-190"/>
<text text-anchor="middle" x="68" y="-175" font-family="Avenir Next" font-size="10.00" fill="#17232b">EOS110 / EOS350</text>
<text text-anchor="middle" x="68" y="-164" font-family="Avenir Next" font-size="10.00" fill="#17232b">Oceans and Atmosphere</text>
</a>
</g>
</g>
<!-- course__EOS230 -->
<g id="node2" class="node">
<title>course__EOS230</title>
<g id="a_node2"><a xlink:href="../../../courses/EOS230.html" xlink:title="Equivalent or cross&#45;listed: EOS230: Introduction to Environmental Data Analysis | GEOG230: Introduction to Environmental Data Analysis" target="_top">
<path fill="#d7e9ef" stroke="#1b2730" stroke-width="1.6" d="M295,-190C295,-190 209,-190 209,-190 203,-190 197,-184 197,-178 197,-178 197,-166 197,-166 197,-160 203,-154 209,-154 209,-154 295,-154 295,-154 301,-154 307,-160 307,-166 307,-166 307,-178 307,-178 307,-184 301,-190 295,-190"/>
<text text-anchor="middle" x="252" y="-169.5" font-family="Avenir Next" font-size="10.00" fill="#17232b">EOS230 / GEOG230</text>
</a>
</g>
</g>
<!-- course__EOS110&#45;&gt;course__EOS230 -->
<g id="edge1" class="edge">
<title>course__EOS110&#45;&gt;course__EOS230</title>
<path fill="none" stroke="#5d6972" stroke-width="1.2" d="M136.25,-172C153.71,-172 172.42,-172 189.55,-172"/>
<polygon fill="#5d6972" stroke="#5d6972" stroke-width="1.2" points="189.8,-174.45 196.8,-172 189.8,-169.55 189.8,-174.45"/>
</g>
<!-- course__EOS261 -->
<g id="node3" class="node">
<title>course__EOS261</title>
<g id="a_node3"><a xlink:href="../../../courses/EOS261.html" xlink:title="EOS261: The Climate System" target="_top">
<path fill="#d7e9ef" stroke="#1b2730" stroke-width="1.6" d="M267,-246C267,-246 237,-246 237,-246 231,-246 225,-240 225,-234 225,-234 225,-222 225,-222 225,-216 231,-210 237,-210 237,-210 267,-210 267,-210 273,-210 279,-216 279,-222 279,-222 279,-234 279,-234 279,-240 273,-246 267,-246"/>
<text text-anchor="middle" x="252" y="-225.5" font-family="Avenir Next" font-size="10.00" fill="#17232b">EOS261</text>
</a>
</g>
</g>
<!-- course__EOS110&#45;&gt;course__EOS261 -->
<g id="edge2" class="edge">
<title>course__EOS110&#45;&gt;course__EOS261</title>
<path fill="none" stroke="#5d6972" stroke-width="1.2" d="M127.59,-190.03C157.41,-199.2 192.58,-210.03 217.73,-217.76"/>
<polygon fill="#5d6972" stroke="#5d6972" stroke-width="1.2" points="217.13,-220.14 224.54,-219.86 218.57,-215.46 217.13,-220.14"/>
</g>
<!-- course__GEOG209 -->
<g id="node4" class="node">
<title>course__GEOG209</title>
<g id="a_node4"><a xlink:href="../../../courses/GEOG209.html" xlink:title="GEOG209: Environmental Management" target="_top">
<path fill="#e7e2d8" stroke="#1b2730" stroke-width="1.6" d="M271.5,-36C271.5,-36 232.5,-36 232.5,-36 226.5,-36 220.5,-30 220.5,-24 220.5,-24 220.5,-12 220.5,-12 220.5,-6 226.5,0 232.5,0 232.5,0 271.5,0 271.5,0 277.5,0 283.5,-6 283.5,-12 283.5,-12 283.5,-24 283.5,-24 283.5,-30 277.5,-36 271.5,-36"/>
<text text-anchor="middle" x="252" y="-15.5" font-family="Avenir Next" font-size="10.00" fill="#17232b">GEOG209</text>
</a>
</g>
</g>
<!-- course__EOS110&#45;&gt;course__GEOG209 -->
<g id="edge21" class="edge">
<title>course__EOS110&#45;&gt;course__GEOG209</title>
<path fill="none" stroke="#5d6972" stroke-width="1.2" d="M85.76,-153.94C109.28,-129.14 154.01,-83.88 197,-51 202.32,-46.93 208.17,-42.93 213.99,-39.19"/>
<polygon fill="#5d6972" stroke="#5d6972" stroke-width="1.2" points="215.64,-41.05 220.27,-35.25 213.04,-36.9 215.64,-41.05"/>
</g>
<!-- course__GEOG272 -->
<g id="node5" class="node">
<title>course__GEOG272</title>
<g id="a_node5"><a xlink:href="../../../courses/GEOG272.html" xlink:title="GEOG272: Climatology and Hydrology" target="_top">
<path fill="#e7e2d8" stroke="#1b2730" stroke-width="1.6" d="M271.5,-326C271.5,-326 232.5,-326 232.5,-326 226.5,-326 220.5,-320 220.5,-314 220.5,-314 220.5,-302 220.5,-302 220.5,-296 226.5,-290 232.5,-290 232.5,-290 271.5,-290 271.5,-290 277.5,-290 283.5,-296 283.5,-302 283.5,-302 283.5,-314 283.5,-314 283.5,-320 277.5,-326 271.5,-326"/>
<text text-anchor="middle" x="252" y="-305.5" font-family="Avenir Next" font-size="10.00" fill="#17232b">GEOG272</text>
</a>
</g>
</g>
<!-- course__EOS110&#45;&gt;course__GEOG272 -->
<g id="edge22" class="edge">
<title>course__EOS110&#45;&gt;course__GEOG272</title>
<path fill="none" stroke="#5d6972" stroke-width="1.2" d="M93.17,-190.06C126.07,-214.65 184.97,-258.66 220.76,-285.4"/>
<polygon fill="#5d6972" stroke="#5d6972" stroke-width="1.2" points="219.66,-287.64 226.73,-289.87 222.59,-283.71 219.66,-287.64"/>
</g>
<!-- choice_EOS312_0_0 -->
<g id="node19" class="node">
<title>choice_EOS312_0_0</title>
<path fill="#fff7ee" stroke="#b7793f" stroke-width="1.1" d="M805,-92C805,-92 775,-92 775,-92 769,-92 763,-86 763,-80 763,-80 763,-68 763,-68 763,-62 769,-56 775,-56 775,-56 805,-56 805,-56 811,-56 817,-62 817,-68 817,-68 817,-80 817,-80 817,-86 811,-92 805,-92"/>
<text text-anchor="middle" x="790" y="-71.8" font-family="Avenir Next" font-size="9.00">1 of</text>
</g>
<!-- course__EOS110&#45;&gt;choice_EOS312_0_0 -->
<g id="edge3" class="edge">
<title>course__EOS110&#45;&gt;choice_EOS312_0_0</title>
<path fill="none" stroke="#7a8389" d="M101.56,-153.95C158.85,-123.93 282.23,-67 394,-67 394,-67 394,-67 511,-67 599.35,-67 703.45,-70.58 755.63,-72.62"/>
<polygon fill="#7a8389" stroke="#7a8389" points="755.85,-75.08 762.94,-72.91 756.05,-70.18 755.85,-75.08"/>
</g>
<!-- choice_EOS321_0_1_0 -->
<g id="node20" class="node">
<title>choice_EOS321_0_1_0</title>
<path fill="#fff7ee" stroke="#b7793f" stroke-width="1.1" d="M410,-246C410,-246 380,-246 380,-246 374,-246 368,-240 368,-234 368,-234 368,-222 368,-222 368,-216 374,-210 380,-210 380,-210 410,-210 410,-210 416,-210 422,-216 422,-222 422,-222 422,-234 422,-234 422,-240 416,-246 410,-246"/>
<text text-anchor="middle" x="395" y="-225.8" font-family="Avenir Next" font-size="9.00">1 of</text>
</g>
<!-- course__EOS230&#45;&gt;choice_EOS321_0_1_0 -->
<g id="edge6" class="edge">
<title>course__EOS230&#45;&gt;choice_EOS321_0_1_0</title>
<path fill="none" stroke="#7a8389" d="M298.39,-190.03C318.75,-198.11 342.33,-207.48 360.98,-214.88"/>
<polygon fill="#7a8389" stroke="#7a8389" points="360.2,-217.21 367.61,-217.52 362.01,-212.66 360.2,-217.21"/>
</g>
<!-- choice_EOS325_0_2_0 -->
<g id="node21" class="node">
<title>choice_EOS325_0_2_0</title>
<path fill="#fff7ee" stroke="#b7793f" stroke-width="1.1" d="M410,-190C410,-190 380,-190 380,-190 374,-190 368,-184 368,-178 368,-178 368,-166 368,-166 368,-160 374,-154 380,-154 380,-154 410,-154 410,-154 416,-154 422,-160 422,-166 422,-166 422,-178 422,-178 422,-184 416,-190 410,-190"/>
<text text-anchor="middle" x="395" y="-169.8" font-family="Avenir Next" font-size="9.00">1 of</text>
</g>
<!-- course__EOS230&#45;&gt;choice_EOS325_0_2_0 -->
<g id="edge9" class="edge">
<title>course__EOS230&#45;&gt;choice_EOS325_0_2_0</title>
<path fill="none" stroke="#7a8389" d="M307.11,-172C325.16,-172 344.73,-172 360.71,-172"/>
<polygon fill="#7a8389" stroke="#7a8389" points="360.79,-174.45 367.79,-172 360.79,-169.55 360.79,-174.45"/>
</g>
<!-- course__EOS261&#45;&gt;choice_EOS321_0_1_0 -->
<g id="edge7" class="edge">
<title>course__EOS261&#45;&gt;choice_EOS321_0_1_0</title>
<path fill="none" stroke="#7a8389" d="M279.19,-228C302.24,-228 335.92,-228 360.84,-228"/>
<polygon fill="#7a8389" stroke="#7a8389" points="360.95,-230.45 367.95,-228 360.95,-225.55 360.95,-230.45"/>
</g>
<!-- course__EOS261&#45;&gt;choice_EOS325_0_2_0 -->
<g id="edge10" class="edge">
<title>course__EOS261&#45;&gt;choice_EOS325_0_2_0</title>
<path fill="none" stroke="#7a8389" d="M279.19,-217.6C302.34,-208.4 336.21,-194.95 361.16,-185.04"/>
<polygon fill="#7a8389" stroke="#7a8389" points="362.35,-187.21 367.95,-182.35 360.54,-182.65 362.35,-187.21"/>
</g>
<!-- choice_GEOG370_0_0 -->
<g id="node23" class="node">
<title>choice_GEOG370_0_0</title>
<path fill="#fff7ee" stroke="#b7793f" stroke-width="1.1" d="M805,-351C805,-351 775,-351 775,-351 769,-351 763,-345 763,-339 763,-339 763,-327 763,-327 763,-321 769,-315 775,-315 775,-315 805,-315 805,-315 811,-315 817,-321 817,-327 817,-327 817,-339 817,-339 817,-345 811,-351 805,-351"/>
<text text-anchor="middle" x="790" y="-330.8" font-family="Avenir Next" font-size="9.00">1 of</text>
</g>
<!-- course__GEOG272&#45;&gt;choice_GEOG370_0_0 -->
<g id="edge23" class="edge">
<title>course__GEOG272&#45;&gt;choice_GEOG370_0_0</title>
<path fill="none" stroke="#7a8389" d="M283.74,-309.43C377.4,-313.8 658.69,-326.92 755.69,-331.45"/>
<polygon fill="#7a8389" stroke="#7a8389" points="755.78,-333.9 762.89,-331.78 756.01,-329.01 755.78,-333.9"/>
</g>
<!-- course__EOS321 -->
<g id="node6" class="node">
<title>course__EOS321</title>
<g id="a_node6"><a xlink:href="../../../courses/EOS321.html" xlink:title="EOS321: Earth History" target="_top">
<path fill="#d7e9ef" stroke="#7e8d96" d="M525,-246C525,-246 495,-246 495,-246 489,-246 483,-240 483,-234 483,-234 483,-222 483,-222 483,-216 489,-210 495,-210 495,-210 525,-210 525,-210 531,-210 537,-216 537,-222 537,-222 537,-234 537,-234 537,-240 531,-246 525,-246"/>
<text text-anchor="middle" x="510" y="-225.8" font-family="Avenir Next" font-size="9.00" fill="#41515b">EOS321</text>
</a>
</g>
</g>
<!-- course__EOS325 -->
<g id="node7" class="node">
<title>course__EOS325</title>
<g id="a_node7"><a xlink:href="../../../courses/EOS325.html" xlink:title="EOS325: Earth System Modelling" target="_top">
<path fill="#d7e9ef" stroke="#7e8d96" d="M525,-190C525,-190 495,-190 495,-190 489,-190 483,-184 483,-178 483,-178 483,-166 483,-166 483,-160 489,-154 495,-154 495,-154 525,-154 525,-154 531,-154 537,-160 537,-166 537,-166 537,-178 537,-178 537,-184 531,-190 525,-190"/>
<text text-anchor="middle" x="510" y="-169.8" font-family="Avenir Next" font-size="9.00" fill="#41515b">EOS325</text>
</a>
</g>
</g>
<!-- course__EOS340 -->
<g id="node8" class="node">
<title>course__EOS340</title>
<g id="a_node8"><a xlink:href="../../../courses/EOS340.html" xlink:title="Equivalent or cross&#45;listed: EOS340: Atmospheric Physics | PHYS340: Atmospheric Physics" target="_top">
<path fill="#d7e9ef" stroke="#7e8d96" d="M690,-246C690,-246 610,-246 610,-246 604,-246 598,-240 598,-234 598,-234 598,-222 598,-222 598,-216 604,-210 610,-210 610,-210 690,-210 690,-210 696,-210 702,-216 702,-222 702,-222 702,-234 702,-234 702,-240 696,-246 690,-246"/>
<text text-anchor="middle" x="650" y="-225.8" font-family="Avenir Next" font-size="9.00" fill="#41515b">EOS340 / PHYS340</text>
</a>
</g>
</g>
<!-- course__EOS325&#45;&gt;course__EOS340 -->
<g id="edge12" class="edge">
<title>course__EOS325&#45;&gt;course__EOS340</title>
<path fill="none" stroke="#5d6972" stroke-width="1.2" d="M537.28,-182.66C554.43,-189.62 577.38,-198.94 598.02,-207.31"/>
<polygon fill="#5d6972" stroke="#5d6972" stroke-width="1.2" points="597.22,-209.63 604.63,-209.99 599.06,-205.09 597.22,-209.63"/>
</g>
<!-- course__EOS423 -->
<g id="node9" class="node">
<title>course__EOS423</title>
<g id="a_node9"><a xlink:href="../../../courses/EOS423.html" xlink:title="EOS423: Advanced Sedimentology and Stratigraphy" target="_top">
<path fill="#d7e9ef" stroke="#7e8d96" d="M665,-134C665,-134 635,-134 635,-134 629,-134 623,-128 623,-122 623,-122 623,-110 623,-110 623,-104 629,-98 635,-98 635,-98 665,-98 665,-98 671,-98 677,-104 677,-110 677,-110 677,-122 677,-122 677,-128 671,-134 665,-134"/>
<text text-anchor="middle" x="650" y="-113.8" font-family="Avenir Next" font-size="9.00" fill="#41515b">EOS423</text>
</a>
</g>
</g>
<!-- course__EOS325&#45;&gt;course__EOS423 -->
<g id="edge16" class="edge">
<title>course__EOS325&#45;&gt;course__EOS423</title>
<path fill="none" stroke="#5d6972" stroke-width="1.2" d="M537.28,-161.34C559.73,-152.23 592.11,-139.08 616.24,-129.29"/>
<polygon fill="#5d6972" stroke="#5d6972" stroke-width="1.2" points="617.25,-131.53 622.82,-126.63 615.41,-126.99 617.25,-131.53"/>
</g>
<!-- course__EOS431 -->
<g id="node10" class="node">
<title>course__EOS431</title>
<g id="a_node10"><a xlink:href="../../../courses/EOS431.html" xlink:title="Equivalent or cross&#45;listed: EOS431: Physical Oceanography | PHYS441: Physical Oceanography" target="_top">
<path fill="#d7e9ef" stroke="#7e8d96" d="M690,-190C690,-190 610,-190 610,-190 604,-190 598,-184 598,-178 598,-178 598,-166 598,-166 598,-160 604,-154 610,-154 610,-154 690,-154 690,-154 696,-154 702,-160 702,-166 702,-166 702,-178 702,-178 702,-184 696,-190 690,-190"/>
<text text-anchor="middle" x="650" y="-169.8" font-family="Avenir Next" font-size="9.00" fill="#41515b">EOS431 / PHYS441</text>
</a>
</g>
</g>
<!-- course__EOS325&#45;&gt;course__EOS431 -->
<g id="edge17" class="edge">
<title>course__EOS325&#45;&gt;course__EOS431</title>
<path fill="none" stroke="#5d6972" stroke-width="1.2" d="M537.28,-172C552.4,-172 572.03,-172 590.61,-172"/>
<polygon fill="#5d6972" stroke="#5d6972" stroke-width="1.2" points="590.94,-174.45 597.94,-172 590.94,-169.55 590.94,-174.45"/>
</g>
<!-- course__EOS460 -->
<g id="node11" class="node">
<title>course__EOS460</title>
<g id="a_node11"><a xlink:href="../../../courses/EOS460.html" xlink:title="EOS460: Earth System Science" target="_top">
<path fill="#d7e9ef" stroke="#7e8d96" d="M665,-302C665,-302 635,-302 635,-302 629,-302 623,-296 623,-290 623,-290 623,-278 623,-278 623,-272 629,-266 635,-266 635,-266 665,-266 665,-266 671,-266 677,-272 677,-278 677,-278 677,-290 677,-290 677,-296 671,-302 665,-302"/>
<text text-anchor="middle" x="650" y="-281.8" font-family="Avenir Next" font-size="9.00" fill="#41515b">EOS460</text>
</a>
</g>
</g>
<!-- course__EOS325&#45;&gt;course__EOS460 -->
<g id="edge20" class="edge">
<title>course__EOS325&#45;&gt;course__EOS460</title>
<path fill="none" stroke="#5d6972" stroke-width="1.2" d="M528.62,-190.11C549.58,-211.45 583.55,-245.35 598,-256 603.73,-260.22 610.18,-264.24 616.5,-267.85"/>
<polygon fill="#5d6972" stroke="#5d6972" stroke-width="1.2" points="615.45,-270.07 622.76,-271.32 617.82,-265.79 615.45,-270.07"/>
</g>
<!-- course__EOS433 -->
<g id="node13" class="node">
<title>course__EOS433</title>
<g id="a_node13"><a xlink:href="../../../courses/EOS433.html" xlink:title="EOS433: The Physics of Climate" target="_top">
<path fill="#d7e9ef" stroke="#7e8d96" d="M923.5,-302C923.5,-302 893.5,-302 893.5,-302 887.5,-302 881.5,-296 881.5,-290 881.5,-290 881.5,-278 881.5,-278 881.5,-272 887.5,-266 893.5,-266 893.5,-266 923.5,-266 923.5,-266 929.5,-266 935.5,-272 935.5,-278 935.5,-278 935.5,-290 935.5,-290 935.5,-296 929.5,-302 923.5,-302"/>
<text text-anchor="middle" x="908.5" y="-281.8" font-family="Avenir Next" font-size="9.00" fill="#41515b">EOS433</text>
</a>
</g>
</g>
<!-- course__EOS340&#45;&gt;course__EOS433 -->
<g id="edge18" class="edge">
<title>course__EOS340&#45;&gt;course__EOS433</title>
<path fill="none" stroke="#5d6972" stroke-width="1.2" d="M702.29,-239.2C753.53,-250.38 830.78,-267.25 874.42,-276.78"/>
<polygon fill="#5d6972" stroke="#5d6972" stroke-width="1.2" points="874.02,-279.2 881.38,-278.3 875.07,-274.41 874.02,-279.2"/>
</g>
<!-- course__EOS451 -->
<g id="node14" class="node">
<title>course__EOS451</title>
<g id="a_node14"><a xlink:href="../../../courses/EOS451.html" xlink:title="EOS451: Introductory Dynamic Meteorology" target="_top">
<path fill="#d7e9ef" stroke="#7e8d96" d="M923.5,-246C923.5,-246 893.5,-246 893.5,-246 887.5,-246 881.5,-240 881.5,-234 881.5,-234 881.5,-222 881.5,-222 881.5,-216 887.5,-210 893.5,-210 893.5,-210 923.5,-210 923.5,-210 929.5,-210 935.5,-216 935.5,-222 935.5,-222 935.5,-234 935.5,-234 935.5,-240 929.5,-246 923.5,-246"/>
<text text-anchor="middle" x="908.5" y="-225.8" font-family="Avenir Next" font-size="9.00" fill="#41515b">EOS451</text>
</a>
</g>
</g>
<!-- course__EOS340&#45;&gt;course__EOS451 -->
<g id="edge19" class="edge">
<title>course__EOS340&#45;&gt;course__EOS451</title>
<path fill="none" stroke="#5d6972" stroke-width="1.2" d="M702.29,-228C753.43,-228 830.46,-228 874.15,-228"/>
<polygon fill="#5d6972" stroke="#5d6972" stroke-width="1.2" points="874.38,-230.45 881.38,-228 874.38,-225.55 874.38,-230.45"/>
</g>
<!-- course__EOS340&#45;&gt;choice_GEOG370_0_0 -->
<g id="edge24" class="edge">
<title>course__EOS340&#45;&gt;choice_GEOG370_0_0</title>
<path fill="none" stroke="#7a8389" d="M686.46,-246.13C691.79,-249.23 697.13,-252.57 702,-256 724.97,-272.17 748.69,-293.53 765.55,-309.65"/>
<polygon fill="#7a8389" stroke="#7a8389" points="764.26,-311.81 771,-314.9 767.66,-308.28 764.26,-311.81"/>
</g>
<!-- choice_PHYS411_0_0 -->
<g id="node24" class="node">
<title>choice_PHYS411_0_0</title>
<path fill="#fff7ee" stroke="#b7793f" stroke-width="1.1" d="M805,-190C805,-190 775,-190 775,-190 769,-190 763,-184 763,-178 763,-178 763,-166 763,-166 763,-160 769,-154 775,-154 775,-154 805,-154 805,-154 811,-154 817,-160 817,-166 817,-166 817,-178 817,-178 817,-184 811,-190 805,-190"/>
<text text-anchor="middle" x="790" y="-169.8" font-family="Avenir Next" font-size="9.00">2 of</text>
</g>
<!-- course__EOS340&#45;&gt;choice_PHYS411_0_0 -->
<g id="edge27" class="edge">
<title>course__EOS340&#45;&gt;choice_PHYS411_0_0</title>
<path fill="none" stroke="#7a8389" d="M695.42,-209.97C715.04,-202.01 737.7,-192.82 755.81,-185.47"/>
<polygon fill="#7a8389" stroke="#7a8389" points="757.2,-187.55 762.77,-182.65 755.36,-183.01 757.2,-187.55"/>
</g>
<!-- course__EOS431&#45;&gt;choice_EOS312_0_0 -->
<g id="edge4" class="edge">
<title>course__EOS431&#45;&gt;choice_EOS312_0_0</title>
<path fill="none" stroke="#7a8389" d="M685.78,-153.98C691.3,-150.81 696.88,-147.43 702,-144 723.57,-129.57 746.37,-111.09 763.22,-96.74"/>
<polygon fill="#7a8389" stroke="#7a8389" points="764.97,-98.46 768.69,-92.04 761.78,-94.74 764.97,-98.46"/>
</g>
<!-- choice_EOS401_0 -->
<g id="node22" class="node">
<title>choice_EOS401_0</title>
<path fill="#fff7ee" stroke="#b7793f" stroke-width="1.1" d="M1042,-117C1042,-117 1012,-117 1012,-117 1006,-117 1000,-111 1000,-105 1000,-105 1000,-93 1000,-93 1000,-87 1006,-81 1012,-81 1012,-81 1042,-81 1042,-81 1048,-81 1054,-87 1054,-93 1054,-93 1054,-105 1054,-105 1054,-111 1048,-117 1042,-117"/>
<text text-anchor="middle" x="1027" y="-96.8" font-family="Avenir Next" font-size="9.00">3 of</text>
</g>
<!-- course__EOS431&#45;&gt;choice_EOS401_0 -->
<g id="edge14" class="edge">
<title>course__EOS431&#45;&gt;choice_EOS401_0</title>
<path fill="none" stroke="#7a8389" d="M702.11,-158.36C721.15,-153.51 742.99,-148.21 763,-144 845.09,-126.74 942.65,-111.38 992.71,-103.87"/>
<polygon fill="#7a8389" stroke="#7a8389" points="993.18,-106.28 999.75,-102.82 992.46,-101.43 993.18,-106.28"/>
</g>
<!-- course__EOS431&#45;&gt;choice_PHYS411_0_0 -->
<g id="edge28" class="edge">
<title>course__EOS431&#45;&gt;choice_PHYS411_0_0</title>
<path fill="none" stroke="#7a8389" d="M702.39,-172C720.2,-172 739.68,-172 755.66,-172"/>
<polygon fill="#7a8389" stroke="#7a8389" points="755.73,-174.45 762.73,-172 755.73,-169.55 755.73,-174.45"/>
</g>
<!-- course__EOS312 -->
<g id="node12" class="node">
<title>course__EOS312</title>
<g id="a_node12"><a xlink:href="../../../courses/EOS312.html" xlink:title="EOS312: Introductory Chemical Oceanography" target="_top">
<path fill="#d7e9ef" stroke="#1b2730" stroke-width="1.6" d="M923.5,-92C923.5,-92 893.5,-92 893.5,-92 887.5,-92 881.5,-86 881.5,-80 881.5,-80 881.5,-68 881.5,-68 881.5,-62 887.5,-56 893.5,-56 893.5,-56 923.5,-56 923.5,-56 929.5,-56 935.5,-62 935.5,-68 935.5,-68 935.5,-80 935.5,-80 935.5,-86 929.5,-92 923.5,-92"/>
<text text-anchor="middle" x="908.5" y="-71.5" font-family="Avenir Next" font-size="10.00" fill="#17232b">EOS312</text>
</a>
</g>
</g>
<!-- course__EOS312&#45;&gt;choice_EOS401_0 -->
<g id="edge13" class="edge">
<title>course__EOS312&#45;&gt;choice_EOS401_0</title>
<path fill="none" stroke="#7a8389" d="M935.64,-79.61C952.58,-83.25 974.79,-88.01 992.95,-91.91"/>
<polygon fill="#7a8389" stroke="#7a8389" points="992.58,-94.33 999.94,-93.41 993.61,-89.54 992.58,-94.33"/>
</g>
<!-- course__GEOG370 -->
<g id="node15" class="node">
<title>course__GEOG370</title>
<g id="a_node15"><a xlink:href="../../../courses/GEOG370.html" xlink:title="GEOG370: Methods in Hydrology" target="_top">
<path fill="#e7e2d8" stroke="#7e8d96" d="M927,-358C927,-358 890,-358 890,-358 884,-358 878,-352 878,-346 878,-346 878,-334 878,-334 878,-328 884,-322 890,-322 890,-322 927,-322 927,-322 933,-322 939,-328 939,-334 939,-334 939,-346 939,-346 939,-352 933,-358 927,-358"/>
<text text-anchor="middle" x="908.5" y="-337.8" font-family="Avenir Next" font-size="9.00" fill="#41515b">GEOG370</text>
</a>
</g>
</g>
<!-- course__GEOG477 -->
<g id="node18" class="node">
<title>course__GEOG477</title>
<g id="a_node18"><a xlink:href="../../../courses/GEOG477.html" xlink:title="GEOG477: Field Studies in Physical Geography" target="_top">
<path fill="#e7e2d8" stroke="#7e8d96" d="M1164,-358C1164,-358 1127,-358 1127,-358 1121,-358 1115,-352 1115,-346 1115,-346 1115,-334 1115,-334 1115,-328 1121,-322 1127,-322 1127,-322 1164,-322 1164,-322 1170,-322 1176,-328 1176,-334 1176,-334 1176,-346 1176,-346 1176,-352 1170,-358 1164,-358"/>
<text text-anchor="middle" x="1145.5" y="-337.8" font-family="Avenir Next" font-size="9.00" fill="#41515b">GEOG477</text>
</a>
</g>
</g>
<!-- course__GEOG370&#45;&gt;course__GEOG477 -->
<g id="edge26" class="edge">
<title>course__GEOG370&#45;&gt;course__GEOG477</title>
<path fill="none" stroke="#5d6972" stroke-width="1.2" d="M939.26,-340C982.17,-340 1061.34,-340 1107.81,-340"/>
<polygon fill="#5d6972" stroke="#5d6972" stroke-width="1.2" points="1107.98,-342.45 1114.98,-340 1107.98,-337.55 1107.98,-342.45"/>
</g>
<!-- course__PHYS411 -->
<g id="node16" class="node">
<title>course__PHYS411</title>
<g id="a_node16"><a xlink:href="../../../courses/PHYS411.html" xlink:title="PHYS411: Time Series Analysis" target="_top">
<path fill="#efd8cf" stroke="#7e8d96" d="M925.5,-190C925.5,-190 891.5,-190 891.5,-190 885.5,-190 879.5,-184 879.5,-178 879.5,-178 879.5,-166 879.5,-166 879.5,-160 885.5,-154 891.5,-154 891.5,-154 925.5,-154 925.5,-154 931.5,-154 937.5,-160 937.5,-166 937.5,-166 937.5,-178 937.5,-178 937.5,-184 931.5,-190 925.5,-190"/>
<text text-anchor="middle" x="908.5" y="-169.8" font-family="Avenir Next" font-size="9.00" fill="#41515b">PHYS411</text>
</a>
</g>
</g>
<!-- course__EOS401 -->
<g id="node17" class="node">
<title>course__EOS401</title>
<g id="a_node17"><a xlink:href="../../../courses/EOS401.html" xlink:title="EOS401: Oceanographic Field School" target="_top">
<path fill="#d7e9ef" stroke="#7e8d96" d="M1160.5,-117C1160.5,-117 1130.5,-117 1130.5,-117 1124.5,-117 1118.5,-111 1118.5,-105 1118.5,-105 1118.5,-93 1118.5,-93 1118.5,-87 1124.5,-81 1130.5,-81 1130.5,-81 1160.5,-81 1160.5,-81 1166.5,-81 1172.5,-87 1172.5,-93 1172.5,-93 1172.5,-105 1172.5,-105 1172.5,-111 1166.5,-117 1160.5,-117"/>
<text text-anchor="middle" x="1145.5" y="-96.8" font-family="Avenir Next" font-size="9.00" fill="#41515b">EOS401</text>
</a>
</g>
</g>
<!-- choice_EOS312_0_0&#45;&gt;course__EOS312 -->
<g id="edge5" class="edge">
<title>choice_EOS312_0_0&#45;&gt;course__EOS312</title>
<path fill="none" stroke="#5d6972" stroke-width="1.2" d="M817.14,-74C833.93,-74 855.9,-74 873.96,-74"/>
<polygon fill="#5d6972" stroke="#5d6972" stroke-width="1.2" points="874.44,-76.45 881.44,-74 874.44,-71.55 874.44,-76.45"/>
</g>
<!-- choice_EOS321_0_1_0&#45;&gt;course__EOS321 -->
<g id="edge8" class="edge">
<title>choice_EOS321_0_1_0&#45;&gt;course__EOS321</title>
<path fill="none" stroke="#5d6972" stroke-width="1.2" d="M422.21,-228C438.18,-228 458.74,-228 475.84,-228"/>
<polygon fill="#5d6972" stroke="#5d6972" stroke-width="1.2" points="475.93,-230.45 482.93,-228 475.93,-225.55 475.93,-230.45"/>
</g>
<!-- choice_EOS325_0_2_0&#45;&gt;course__EOS325 -->
<g id="edge11" class="edge">
<title>choice_EOS325_0_2_0&#45;&gt;course__EOS325</title>
<path fill="none" stroke="#5d6972" stroke-width="1.2" d="M422.21,-172C438.18,-172 458.74,-172 475.84,-172"/>
<polygon fill="#5d6972" stroke="#5d6972" stroke-width="1.2" points="475.93,-174.45 482.93,-172 475.93,-169.55 475.93,-174.45"/>
</g>
<!-- choice_EOS401_0&#45;&gt;course__EOS401 -->
<g id="edge15" class="edge">
<title>choice_EOS401_0&#45;&gt;course__EOS401</title>
<path fill="none" stroke="#5d6972" stroke-width="1.2" d="M1054.14,-99C1070.93,-99 1092.9,-99 1110.96,-99"/>
<polygon fill="#5d6972" stroke="#5d6972" stroke-width="1.2" points="1111.44,-101.45 1118.44,-99 1111.44,-96.55 1111.44,-101.45"/>
</g>
<!-- choice_GEOG370_0_0&#45;&gt;course__GEOG370 -->
<g id="edge25" class="edge">
<title>choice_GEOG370_0_0&#45;&gt;course__GEOG370</title>
<path fill="none" stroke="#5d6972" stroke-width="1.2" d="M817.14,-334.57C832.88,-335.52 853.15,-336.73 870.51,-337.78"/>
<polygon fill="#5d6972" stroke="#5d6972" stroke-width="1.2" points="870.61,-340.24 877.75,-338.21 870.91,-335.35 870.61,-340.24"/>
</g>
<!-- choice_PHYS411_0_0&#45;&gt;course__PHYS411 -->
<g id="edge29" class="edge">
<title>choice_PHYS411_0_0&#45;&gt;course__PHYS411</title>
<path fill="none" stroke="#5d6972" stroke-width="1.2" d="M817.14,-172C833.35,-172 854.37,-172 872.05,-172"/>
<polygon fill="#5d6972" stroke="#5d6972" stroke-width="1.2" points="872.41,-174.45 879.41,-172 872.41,-169.55 872.41,-174.45"/>
</g>
</g>
</svg>
