<?xml version="1.0" encoding="UTF-8" standalone="no"?>
<!DOCTYPE svg PUBLIC "-//W3C//DTD SVG 1.1//EN"
 "http://www.w3.org/Graphics/SVG/1.1/DTD/svg11.dtd">
<!-- Generated by graphviz version 2.43.0 (0)
 -->
<!-- Title: EOS205 Pages: 1 -->
<svg width="469pt" height="135pt"
 viewBox="0.00 0.00 469.20 135.20" xmlns="http://www.w3.org/2000/svg" xmlns:xlink="http://www.w3.org/1999/xlink">
<g id="graph0" class="graph" transform="scale(1 1) rotate(0) translate(21.6 113.6)">
<title>EOS205</title>
<!-- course__CHEM102 -->
<g id="node1" class="node">
<title>course__CHEM102</title>
<g id="a_node1"><a xlink:href="../../../courses/CHEM102.html" xlink:title="CHEM102: Chemical Reactivity Fundamentals with Environmental Applications" target="_top">
<path fill="#ead9b8" stroke="#1b2730" stroke-width="1.6" d="M52,-92C52,-92 12,-92 12,-92 6,-92 0,-86 0,-80 0,-80 0,-68 0,-68 0,-62 6,-56 12,-56 12,-56 52,-56 52,-56 58,-56 64,-62 64,-68 64,-68 64,-80 64,-80 64,-86 58,-92 52,-92"/>
<text text-anchor="middle" x="32" y="-71.5" font-family="Avenir Next" font-size="10.00" fill="#17232b">CHEM102</text>
</a>
</g>
</g>
<!-- course__EOS205 -->
<g id="node3" class="node">
<title>course__EOS205</title>
<g id="a_node3"><a xlink:href="../../../courses/EOS205.html" xlink:title="EOS205: Mineralogy" target="_top">
<path fill="#d7e9ef" stroke="#1f4f66" stroke-width="2" d="M184,-64C184,-64 137,-64 137,-64 131,-64 125,-58 125,-52 125,-52 125,-40 125,-40 125,-34 131,-28 137,-28 137,-28 184,-28 184,-28 190,-28 196,-34 196,-40 196,-40 196,-52 196,-52 196,-58 190,-64 184,-64"/>
<text text-anchor="middle" x="160.5" y="-49" font-family="Avenir Next" font-size="10.00" fill="#17232b">EOS205</text>
<text text-anchor="middle" x="160.5" y="-38" font-family="Avenir Next" font-size="10.00" fill="#17232b">Mineralogy</text>
</a>
</g>
</g>
<!-- course__CHEM102&#45;&gt;course__EOS205 -->
<g id="edge3" class="edge">
<title>course__CHEM102&#45;&gt;course__EOS205</title>
<path fill="none" stroke="#5d6972" stroke-width="1.2" d="M64.27,-67.08C80.27,-63.54 99.99,-59.17 117.32,-55.34"/>
<polygon fill="#5d6972" stroke="#5d6972" stroke-width="1.2" points="118.28,-57.63 124.58,-53.73 117.22,-52.85 118.28,-57.63"/>
</g>
<!-- course__EOS120 -->
<g id="node2" class="node">
<title>course__EOS120</title>
<g id="a_node2"><a xlink:href="../../../courses/EOS120.html" xlink:title="EOS120: The Dynamic Earth" target="_top">
<path fill="#d7e9ef" stroke="#1b2730" stroke-width="1.6" d="M47,-36C47,-36 17,-36 17,-36 11,-36 5,-30 5,-24 5,-24 5,-12 5,-12 5,-6 11,0 17,0 17,0 47,0 47,0 53,0 59,-6 59,-12 59,-12 59,-24 59,-24 59,-30 53,-36 47,-36"/>
<text text-anchor="middle" x="32" y="-15.5" font-family="Avenir Next" font-size="10.00" fill="#17232b">EOS120</text>
</a>
</g>
</g>
<!-- course__EOS120&#45;&gt;course__EOS205 -->
<g id="edge2" class="edge">
<title>course__EOS120&#45;&gt;course__EOS205</title>
<path fill="none" stroke="#5d6972" stroke-width="1.2" d="M59.21,-23.8C76.1,-27.54 98.42,-32.48 117.72,-36.75"/>
<polygon fill="#5d6972" stroke="#5d6972" stroke-width="1.2" points="117.32,-39.17 124.68,-38.29 118.37,-34.39 117.32,-39.17"/>
</g>
<!-- course__EOS201 -->
<g id="node4" class="node">
<title>course__EOS201</title>
<g id="a_node4"><a xlink:href="../../../courses/EOS201.html" xlink:title="EOS201: Sedimentary Geology" target="_top">
<path fill="#d7e9ef" stroke="#1b2730" stroke-width="1.6" d="M299,-92C299,-92 269,-92 269,-92 263,-92 257,-86 257,-80 257,-80 257,-68 257,-68 257,-62 263,-56 269,-56 269,-56 299,-56 299,-56 305,-56 311,-62 311,-68 311,-68 311,-80 311,-80 311,-86 305,-92 299,-92"/>
<text text-anchor="middle" x="284" y="-71.5" font-family="Avenir Next" font-size="10.00" fill="#17232b">EOS201</text>
</a>
</g>
</g>
<!-- course__EOS205&#45;&gt;course__EOS201 -->
<g id="edge1" class="edge">
<title>course__EOS205&#45;&gt;course__EOS201</title>
<path fill="none" stroke="#5d6972" stroke-width="1.2" d="M196.32,-54.02C213.13,-57.9 233.2,-62.52 249.8,-66.35"/>
<polygon fill="#5d6972" stroke="#5d6972" stroke-width="1.2" points="249.31,-68.75 256.68,-67.93 250.41,-63.97 249.31,-68.75"/>
</g>
<!-- course__EOS240 -->
<g id="node5" class="node">
<title>course__EOS240</title>
<g id="a_node5"><a xlink:href="../../../courses/EOS240.html" xlink:title="EOS240: Geochemistry" target="_top">
<path fill="#d7e9ef" stroke="#1b2730" stroke-width="1.6" d="M299,-36C299,-36 269,-36 269,-36 263,-36 257,-30 257,-24 257,-24 257,-12 257,-12 257,-6 263,0 269,0 269,0 299,0 299,0 305,0 311,-6 311,-12 311,-12 311,-24 311,-24 311,-30 305,-36 299,-36"/>
<text text-anchor="middle" x="284" y="-15.5" font-family="Avenir Next" font-size="10.00" fill="#17232b">EOS240</text>
</a>
</g>
</g>
<!-- course__EOS205&#45;&gt;course__EOS240 -->
<g id="edge4" class="edge">
<title>course__EOS205&#45;&gt;course__EOS240</title>
<path fill="none" stroke="#5d6972" stroke-width="1.2" d="M196.32,-37.98C213.13,-34.1 233.2,-29.48 249.8,-25.65"/>
<polygon fill="#5d6972" stroke="#5d6972" stroke-width="1.2" points="250.41,-28.03 256.68,-24.07 249.31,-23.25 250.41,-28.03"/>
</g>
<!-- course__EOS300 -->
<g id="node6" class="node">
<title>course__EOS300</title>
<g id="a_node6"><a xlink:href="../../../courses/EOS300.html" xlink:title="EOS300: Earth Science Field School" target="_top">
<path fill="#d7e9ef" stroke="#1b2730" stroke-width="1.6" d="M414,-92C414,-92 384,-92 384,-92 378,-92 372,-86 372,-80 372,-80 372,-68 372,-68 372,-62 378,-56 384,-56 384,-56 414,-56 414,-56 420,-56 426,-62 426,-68 426,-68 426,-80 426,-80 426,-86 420,-92 414,-92"/>
<text text-anchor="middle" x="399" y="-71.5" font-family="Avenir Next" font-size="10.00" fill="#17232b">EOS300</text>
</a>
</g>
</g>
<!-- course__EOS201&#45;&gt;course__EOS300 -->
<g id="edge5" class="edge">
<title>course__EOS201&#45;&gt;course__EOS300</title>
<path fill="none" stroke="#5d6972" stroke-width="1.2" d="M311.21,-74C327.18,-74 347.74,-74 364.84,-74"/>
<polygon fill="#5d6972" stroke="#5d6972" stroke-width="1.2" points="364.93,-76.45 371.93,-74 364.93,-71.55 364.93,-76.45"/>
</g>
<!-- course__EOS316 -->
<g id="node7" class="node">
<title>course__EOS316</title>
<g id="a_node7"><a xlink:href="../../../courses/EOS316.html" xlink:title="EOS316: Igneous and Metamorphic Geology" target="_top">
<path fill="#d7e9ef" stroke="#1b2730" stroke-width="1.6" d="M414,-36C414,-36 384,-36 384,-36 378,-36 372,-30 372,-24 372,-24 372,-12 372,-12 372,-6 378,0 384,0 384,0 414,0 414,0 420,0 426,-6 426,-12 426,-12 426,-24 426,-24 426,-30 420,-36 414,-36"/>
<text text-anchor="middle" x="399" y="-15.5" font-family="Avenir Next" font-size="10.00" fill="#17232b">EOS316</text>
</a>
</g>
</g>
<!-- course__EOS240&#45;&gt;course__EOS316 -->
<g id="edge6" class="edge">
<title>course__EOS240&#45;&gt;course__EOS316</title>
<path fill="none" stroke="#5d6972" stroke-width="1.2" d="M311.21,-18C327.18,-18 347.74,-18 364.84,-18"/>
<polygon fill="#5d6972" stroke="#5d6972" stroke-width="1.2" points="364.93,-20.45 371.93,-18 364.93,-15.55 364.93,-20.45"/>
</g>
</g>
</svg>
