<?xml version="1.0" encoding="UTF-8" standalone="no"?>
<!DOCTYPE svg PUBLIC "-//W3C//DTD SVG 1.1//EN"
 "http://www.w3.org/Graphics/SVG/1.1/DTD/svg11.dtd">
<!-- Generated by graphviz version 2.43.0 (0)
 -->
<!-- Title: EOS201 Pages: 1 -->
<svg width="519pt" height="359pt"
 viewBox="0.00 0.00 519.20 359.20" xmlns="http://www.w3.org/2000/svg" xmlns:xlink="http://www.w3.org/1999/xlink">
<g id="graph0" class="graph" transform="scale(1 1) rotate(0) translate(21.6 337.6)">
<title>EOS201</title>
<!-- course__EOS120 -->
<g id="node1" class="node">
<title>course__EOS120</title>
<g id="a_node1"><a xlink:href="../../../courses/EOS120.html" xlink:title="EOS120: The Dynamic Earth" target="_top">
<path fill="#d7e9ef" stroke="#1b2730" stroke-width="1.6" d="M42,-176C42,-176 12,-176 12,-176 6,-176 0,-170 0,-164 0,-164 0,-152 0,-152 0,-146 6,-140 12,-140 12,-140 42,-140 42,-140 48,-140 54,-146 54,-152 54,-152 54,-164 54,-164 54,-170 48,-176 42,-176"/>
<text text-anchor="middle" x="27" y="-155.5" font-family="Avenir Next" font-size="10.00" fill="#17232b">EOS120</text>
</a>
</g>
</g>
<!-- course__EOS205 -->
<g id="node2" class="node">
<title>course__EOS205</title>
<g id="a_node2"><a xlink:href="../../../courses/EOS205.html" xlink:title="EOS205: Mineralogy" target="_top">
<path fill="#d7e9ef" stroke="#1b2730" stroke-width="1.6" d="M157,-176C157,-176 127,-176 127,-176 121,-176 115,-170 115,-164 115,-164 115,-152 115,-152 115,-146 121,-140 127,-140 127,-140 157,-140 157,-140 163,-140 169,-146 169,-152 169,-152 169,-164 169,-164 169,-170 163,-176 157,-176"/>
<text text-anchor="middle" x="142" y="-155.5" font-family="Avenir Next" font-size="10.00" fill="#17232b">EOS205</text>
</a>
</g>
</g>
<!-- course__EOS120&#45;&gt;course__EOS205 -->
<g id="edge2" class="edge">
<title>course__EOS120&#45;&gt;course__EOS205</title>
<path fill="none" stroke="#5d6972" stroke-width="1.2" d="M54.21,-158C70.18,-158 90.74,-158 107.84,-158"/>
<polygon fill="#5d6972" stroke="#5d6972" stroke-width="1.2" points="107.93,-160.45 114.93,-158 107.93,-155.55 107.93,-160.45"/>
</g>
<!-- course__EOS201 -->
<g id="node3" class="node">
<title>course__EOS201</title>
<g id="a_node3"><a xlink:href="../../../courses/EOS201.html" xlink:title="EOS201: Sedimentary Geology" target="_top">
<path fill="#d7e9ef" stroke="#1f4f66" stroke-width="2" d="M340,-176C340,-176 242,-176 242,-176 236,-176 230,-170 230,-164 230,-164 230,-152 230,-152 230,-146 236,-140 242,-140 242,-140 340,-140 340,-140 346,-140 352,-146 352,-152 352,-152 352,-164 352,-164 352,-170 346,-176 340,-176"/>
<text text-anchor="middle" x="291" y="-161" font-family="Avenir Next" font-size="10.00" fill="#17232b">EOS201</text>
<text text-anchor="middle" x="291" y="-150" font-family="Avenir Next" font-size="10.00" fill="#17232b">Sedimentary Geology</text>
</a>
</g>
</g>
<!-- course__EOS205&#45;&gt;course__EOS201 -->
<g id="edge1" class="edge">
<title>course__EOS205&#45;&gt;course__EOS201</title>
<path fill="none" stroke="#5d6972" stroke-width="1.2" d="M169.28,-158C184.15,-158 203.5,-158 222.33,-158"/>
<polygon fill="#5d6972" stroke="#5d6972" stroke-width="1.2" points="222.79,-160.45 229.79,-158 222.79,-155.55 222.79,-160.45"/>
</g>
<!-- course__EOS300 -->
<g id="node4" class="node">
<title>course__EOS300</title>
<g id="a_node4"><a xlink:href="../../../courses/EOS300.html" xlink:title="EOS300: Earth Science Field School" target="_top">
<path fill="#d7e9ef" stroke="#1b2730" stroke-width="1.6" d="M459.5,-316C459.5,-316 429.5,-316 429.5,-316 423.5,-316 417.5,-310 417.5,-304 417.5,-304 417.5,-292 417.5,-292 417.5,-286 423.5,-280 429.5,-280 429.5,-280 459.5,-280 459.5,-280 465.5,-280 471.5,-286 471.5,-292 471.5,-292 471.5,-304 471.5,-304 471.5,-310 465.5,-316 459.5,-316"/>
<text text-anchor="middle" x="444.5" y="-295.5" font-family="Avenir Next" font-size="10.00" fill="#17232b">EOS300</text>
</a>
</g>
</g>
<!-- course__EOS201&#45;&gt;course__EOS300 -->
<g id="edge3" class="edge">
<title>course__EOS201&#45;&gt;course__EOS300</title>
<path fill="none" stroke="#5d6972" stroke-width="1.2" d="M311.68,-176.26C335.6,-198.45 377.22,-237.02 413,-270 414.74,-271.61 416.55,-273.27 418.36,-274.94"/>
<polygon fill="#5d6972" stroke="#5d6972" stroke-width="1.2" points="416.99,-277 423.8,-279.94 420.31,-273.4 416.99,-277"/>
</g>
<!-- course__EOS408 -->
<g id="node5" class="node">
<title>course__EOS408</title>
<g id="a_node5"><a xlink:href="../../../courses/EOS408.html" xlink:title="EOS408: Marine Geology" target="_top">
<path fill="#d7e9ef" stroke="#1b2730" stroke-width="1.6" d="M459.5,-260C459.5,-260 429.5,-260 429.5,-260 423.5,-260 417.5,-254 417.5,-248 417.5,-248 417.5,-236 417.5,-236 417.5,-230 423.5,-224 429.5,-224 429.5,-224 459.5,-224 459.5,-224 465.5,-224 471.5,-230 471.5,-236 471.5,-236 471.5,-248 471.5,-248 471.5,-254 465.5,-260 459.5,-260"/>
<text text-anchor="middle" x="444.5" y="-239.5" font-family="Avenir Next" font-size="10.00" fill="#17232b">EOS408</text>
</a>
</g>
</g>
<!-- course__EOS201&#45;&gt;course__EOS408 -->
<g id="edge4" class="edge">
<title>course__EOS201&#45;&gt;course__EOS408</title>
<path fill="none" stroke="#5d6972" stroke-width="1.2" d="M324.5,-176.02C349.99,-190.15 385.3,-209.73 410.83,-223.89"/>
<polygon fill="#5d6972" stroke="#5d6972" stroke-width="1.2" points="409.79,-226.11 417.1,-227.36 412.17,-221.83 409.79,-226.11"/>
</g>
<!-- course__EOS420 -->
<g id="node6" class="node">
<title>course__EOS420</title>
<g id="a_node6"><a xlink:href="../../../courses/EOS420.html" xlink:title="EOS420: Resource Geology" target="_top">
<path fill="#d7e9ef" stroke="#1b2730" stroke-width="1.6" d="M459.5,-204C459.5,-204 429.5,-204 429.5,-204 423.5,-204 417.5,-198 417.5,-192 417.5,-192 417.5,-180 417.5,-180 417.5,-174 423.5,-168 429.5,-168 429.5,-168 459.5,-168 459.5,-168 465.5,-168 471.5,-174 471.5,-180 471.5,-180 471.5,-192 471.5,-192 471.5,-198 465.5,-204 459.5,-204"/>
<text text-anchor="middle" x="444.5" y="-183.5" font-family="Avenir Next" font-size="10.00" fill="#17232b">EOS420</text>
</a>
</g>
</g>
<!-- course__EOS201&#45;&gt;course__EOS420 -->
<g id="edge5" class="edge">
<title>course__EOS201&#45;&gt;course__EOS420</title>
<path fill="none" stroke="#5d6972" stroke-width="1.2" d="M352.31,-169.15C372.1,-172.8 393.35,-176.73 410.35,-179.87"/>
<polygon fill="#5d6972" stroke="#5d6972" stroke-width="1.2" points="410.03,-182.31 417.36,-181.17 410.93,-177.49 410.03,-182.31"/>
</g>
<!-- course__EOS423 -->
<g id="node7" class="node">
<title>course__EOS423</title>
<g id="a_node7"><a xlink:href="../../../courses/EOS423.html" xlink:title="EOS423: Advanced Sedimentology and Stratigraphy" target="_top">
<path fill="#d7e9ef" stroke="#1b2730" stroke-width="1.6" d="M459.5,-148C459.5,-148 429.5,-148 429.5,-148 423.5,-148 417.5,-142 417.5,-136 417.5,-136 417.5,-124 417.5,-124 417.5,-118 423.5,-112 429.5,-112 429.5,-112 459.5,-112 459.5,-112 465.5,-112 471.5,-118 471.5,-124 471.5,-124 471.5,-136 471.5,-136 471.5,-142 465.5,-148 459.5,-148"/>
<text text-anchor="middle" x="444.5" y="-127.5" font-family="Avenir Next" font-size="10.00" fill="#17232b">EOS423</text>
</a>
</g>
</g>
<!-- course__EOS201&#45;&gt;course__EOS423 -->
<g id="edge6" class="edge">
<title>course__EOS201&#45;&gt;course__EOS423</title>
<path fill="none" stroke="#5d6972" stroke-width="1.2" d="M352.31,-146.85C372.1,-143.2 393.35,-139.27 410.35,-136.13"/>
<polygon fill="#5d6972" stroke="#5d6972" stroke-width="1.2" points="410.93,-138.51 417.36,-134.83 410.03,-133.69 410.93,-138.51"/>
</g>
<!-- course__EOS450 -->
<g id="node8" class="node">
<title>course__EOS450</title>
<g id="a_node8"><a xlink:href="../../../courses/EOS450.html" xlink:title="EOS450: Quaternary Geology" target="_top">
<path fill="#d7e9ef" stroke="#1b2730" stroke-width="1.6" d="M459.5,-92C459.5,-92 429.5,-92 429.5,-92 423.5,-92 417.5,-86 417.5,-80 417.5,-80 417.5,-68 417.5,-68 417.5,-62 423.5,-56 429.5,-56 429.5,-56 459.5,-56 459.5,-56 465.5,-56 471.5,-62 471.5,-68 471.5,-68 471.5,-80 471.5,-80 471.5,-86 465.5,-92 459.5,-92"/>
<text text-anchor="middle" x="444.5" y="-71.5" font-family="Avenir Next" font-size="10.00" fill="#17232b">EOS450</text>
</a>
</g>
</g>
<!-- course__EOS201&#45;&gt;course__EOS450 -->
<g id="edge7" class="edge">
<title>course__EOS201&#45;&gt;course__EOS450</title>
<path fill="none" stroke="#5d6972" stroke-width="1.2" d="M324.5,-139.98C349.99,-125.85 385.3,-106.27 410.83,-92.11"/>
<polygon fill="#5d6972" stroke="#5d6972" stroke-width="1.2" points="412.17,-94.17 417.1,-88.64 409.79,-89.89 412.17,-94.17"/>
</g>
<!-- course__GEOG376 -->
<g id="node9" class="node">
<title>course__GEOG376</title>
<g id="a_node9"><a xlink:href="../../../courses/GEOG376.html" xlink:title="GEOG376: Process Geomorphology" target="_top">
<path fill="#e7e2d8" stroke="#1b2730" stroke-width="1.6" d="M464,-36C464,-36 425,-36 425,-36 419,-36 413,-30 413,-24 413,-24 413,-12 413,-12 413,-6 419,0 425,0 425,0 464,0 464,0 470,0 476,-6 476,-12 476,-12 476,-24 476,-24 476,-30 470,-36 464,-36"/>
<text text-anchor="middle" x="444.5" y="-15.5" font-family="Avenir Next" font-size="10.00" fill="#17232b">GEOG376</text>
</a>
</g>
</g>
<!-- course__EOS201&#45;&gt;course__GEOG376 -->
<g id="edge8" class="edge">
<title>course__EOS201&#45;&gt;course__GEOG376</title>
<path fill="none" stroke="#5d6972" stroke-width="1.2" d="M311.68,-139.74C335.6,-117.55 377.22,-78.98 413,-46 414.74,-44.39 416.55,-42.73 418.36,-41.06"/>
<polygon fill="#5d6972" stroke="#5d6972" stroke-width="1.2" points="420.31,-42.6 423.8,-36.06 416.99,-39 420.31,-42.6"/>
</g>
</g>
</svg>
