<?xml version="1.0" encoding="UTF-8" standalone="no"?>
<!DOCTYPE svg PUBLIC "-//W3C//DTD SVG 1.1//EN"
 "http://www.w3.org/Graphics/SVG/1.1/DTD/svg11.dtd">
<!-- Generated by graphviz version 2.43.0 (0)
 -->
<!-- Title: EOS205 Pages: 1 -->
<svg width="773pt" height="611pt"
 viewBox="0.00 0.00 773.20 611.20" xmlns="http://www.w3.org/2000/svg" xmlns:xlink="http://www.w3.org/1999/xlink">
<g id="graph0" class="graph" transform="scale(1 1) rotate(0) translate(21.6 589.6)">
<title>EOS205</title>
<!-- course__CHEM091 -->
<g id="node1" class="node">
<title>course__CHEM091</title>
<g id="a_node1"><a xlink:href="../../../courses/CHEM091.html" xlink:title="CHEM091: Introduction to Chemistry" target="_top">
<path fill="#ead9b8" stroke="#7e8d96" d="M75.5,-407C75.5,-407 38.5,-407 38.5,-407 32.5,-407 26.5,-401 26.5,-395 26.5,-395 26.5,-383 26.5,-383 26.5,-377 32.5,-371 38.5,-371 38.5,-371 75.5,-371 75.5,-371 81.5,-371 87.5,-377 87.5,-383 87.5,-383 87.5,-395 87.5,-395 87.5,-401 81.5,-407 75.5,-407"/>
<text text-anchor="middle" x="57" y="-386.8" font-family="Avenir Next" font-size="9.00" fill="#41515b">CHEM091</text>
</a>
</g>
</g>
<!-- course__CHEM102 -->
<g id="node4" class="node">
<title>course__CHEM102</title>
<g id="a_node4"><a xlink:href="../../../courses/CHEM102.html" xlink:title="CHEM102: Chemical Reactivity Fundamentals with Environmental Applications" target="_top">
<path fill="#ead9b8" stroke="#1b2730" stroke-width="1.6" d="M227,-351C227,-351 187,-351 187,-351 181,-351 175,-345 175,-339 175,-339 175,-327 175,-327 175,-321 181,-315 187,-315 187,-315 227,-315 227,-315 233,-315 239,-321 239,-327 239,-327 239,-339 239,-339 239,-345 233,-351 227,-351"/>
<text text-anchor="middle" x="207" y="-330.5" font-family="Avenir Next" font-size="10.00" fill="#17232b">CHEM102</text>
</a>
</g>
</g>
<!-- course__CHEM091&#45;&gt;course__CHEM102 -->
<g id="edge1" class="edge">
<title>course__CHEM091&#45;&gt;course__CHEM102</title>
<path fill="none" stroke="#5d6972" stroke-width="1.2" d="M87.59,-377.8C110.73,-369.05 143.04,-356.82 168.07,-347.35"/>
<polygon fill="#5d6972" stroke="#5d6972" stroke-width="1.2" points="169.25,-349.53 174.93,-344.76 167.51,-344.94 169.25,-349.53"/>
</g>
<!-- course__CHEM101 -->
<g id="node2" class="node">
<title>course__CHEM101</title>
<g id="a_node2"><a xlink:href="../../../courses/CHEM101.html" xlink:title="Equivalent or cross&#45;listed: CHEM101: Fundamentals of Chemistry from Atoms to Materials | CHEM150: Engineering Chemistry" target="_top">
<path fill="#ead9b8" stroke="#7e8d96" d="M102,-351C102,-351 12,-351 12,-351 6,-351 0,-345 0,-339 0,-339 0,-327 0,-327 0,-321 6,-315 12,-315 12,-315 102,-315 102,-315 108,-315 114,-321 114,-327 114,-327 114,-339 114,-339 114,-345 108,-351 102,-351"/>
<text text-anchor="middle" x="57" y="-330.8" font-family="Avenir Next" font-size="9.00" fill="#41515b">CHEM101 / CHEM150</text>
</a>
</g>
</g>
<!-- course__CHEM101&#45;&gt;course__CHEM102 -->
<g id="edge2" class="edge">
<title>course__CHEM101&#45;&gt;course__CHEM102</title>
<path fill="none" stroke="#5d6972" stroke-width="1.2" d="M114.37,-333C132.08,-333 151.22,-333 167.41,-333"/>
<polygon fill="#5d6972" stroke="#5d6972" stroke-width="1.2" points="167.62,-335.45 174.62,-333 167.62,-330.55 167.62,-335.45"/>
</g>
<!-- course__MATH100 -->
<g id="node3" class="node">
<title>course__MATH100</title>
<g id="a_node3"><a xlink:href="../../../courses/MATH100.html" xlink:title="Equivalent or cross&#45;listed: MATH100: Calculus I | MATH102: Calculus for Students in the Social and Biological Sciences | MATH109: Introduction to Calculus" target="_top">
<path fill="#dfe3f4" stroke="#7e8d96" d="M100.5,-295C100.5,-295 13.5,-295 13.5,-295 7.5,-295 1.5,-289 1.5,-283 1.5,-283 1.5,-271 1.5,-271 1.5,-265 7.5,-259 13.5,-259 13.5,-259 100.5,-259 100.5,-259 106.5,-259 112.5,-265 112.5,-271 112.5,-271 112.5,-283 112.5,-283 112.5,-289 106.5,-295 100.5,-295"/>
<text text-anchor="middle" x="57" y="-279.8" font-family="Avenir Next" font-size="9.00" fill="#41515b">MATH100 / MATH102</text>
<text text-anchor="middle" x="57" y="-269.8" font-family="Avenir Next" font-size="9.00" fill="#41515b">MATH109</text>
</a>
</g>
</g>
<!-- course__MATH100&#45;&gt;course__CHEM102 -->
<g id="edge3" class="edge">
<title>course__MATH100&#45;&gt;course__CHEM102</title>
<path fill="none" stroke="#5d6972" stroke-width="1.2" d="M105.64,-295.03C125.81,-302.66 148.99,-311.43 167.98,-318.61"/>
<polygon fill="#5d6972" stroke="#5d6972" stroke-width="1.2" points="167.36,-321 174.78,-321.19 169.1,-316.42 167.36,-321"/>
</g>
<!-- course__EOS205 -->
<g id="node6" class="node">
<title>course__EOS205</title>
<g id="a_node6"><a xlink:href="../../../courses/EOS205.html" xlink:title="EOS205: Mineralogy" target="_top">
<path fill="#d7e9ef" stroke="#1f4f66" stroke-width="2" d="M359,-323C359,-323 312,-323 312,-323 306,-323 300,-317 300,-311 300,-311 300,-299 300,-299 300,-293 306,-287 312,-287 312,-287 359,-287 359,-287 365,-287 371,-293 371,-299 371,-299 371,-311 371,-311 371,-317 365,-323 359,-323"/>
<text text-anchor="middle" x="335.5" y="-308" font-family="Avenir Next" font-size="10.00" fill="#17232b">EOS205</text>
<text text-anchor="middle" x="335.5" y="-297" font-family="Avenir Next" font-size="10.00" fill="#17232b">Mineralogy</text>
</a>
</g>
</g>
<!-- course__CHEM102&#45;&gt;course__EOS205 -->
<g id="edge6" class="edge">
<title>course__CHEM102&#45;&gt;course__EOS205</title>
<path fill="none" stroke="#5d6972" stroke-width="1.2" d="M239.27,-326.08C255.27,-322.54 274.99,-318.17 292.32,-314.34"/>
<polygon fill="#5d6972" stroke="#5d6972" stroke-width="1.2" points="293.28,-316.63 299.58,-312.73 292.22,-311.85 293.28,-316.63"/>
</g>
<!-- course__EOS120 -->
<g id="node5" class="node">
<title>course__EOS120</title>
<g id="a_node5"><a xlink:href="../../../courses/EOS120.html" xlink:title="EOS120: The Dynamic Earth" target="_top">
<path fill="#d7e9ef" stroke="#1b2730" stroke-width="1.6" d="M222,-295C222,-295 192,-295 192,-295 186,-295 180,-289 180,-283 180,-283 180,-271 180,-271 180,-265 186,-259 192,-259 192,-259 222,-259 222,-259 228,-259 234,-265 234,-271 234,-271 234,-283 234,-283 234,-289 228,-295 222,-295"/>
<text text-anchor="middle" x="207" y="-274.5" font-family="Avenir Next" font-size="10.00" fill="#17232b">EOS120</text>
</a>
</g>
</g>
<!-- course__EOS120&#45;&gt;course__EOS205 -->
<g id="edge5" class="edge">
<title>course__EOS120&#45;&gt;course__EOS205</title>
<path fill="none" stroke="#5d6972" stroke-width="1.2" d="M234.21,-282.8C251.1,-286.54 273.42,-291.48 292.72,-295.75"/>
<polygon fill="#5d6972" stroke="#5d6972" stroke-width="1.2" points="292.32,-298.17 299.68,-297.29 293.37,-293.39 292.32,-298.17"/>
</g>
<!-- course__EOS201 -->
<g id="node7" class="node">
<title>course__EOS201</title>
<g id="a_node7"><a xlink:href="../../../courses/EOS201.html" xlink:title="EOS201: Sedimentary Geology" target="_top">
<path fill="#d7e9ef" stroke="#1b2730" stroke-width="1.6" d="M474,-246C474,-246 444,-246 444,-246 438,-246 432,-240 432,-234 432,-234 432,-222 432,-222 432,-216 438,-210 444,-210 444,-210 474,-210 474,-210 480,-210 486,-216 486,-222 486,-222 486,-234 486,-234 486,-240 480,-246 474,-246"/>
<text text-anchor="middle" x="459" y="-225.5" font-family="Avenir Next" font-size="10.00" fill="#17232b">EOS201</text>
</a>
</g>
</g>
<!-- course__EOS205&#45;&gt;course__EOS201 -->
<g id="edge4" class="edge">
<title>course__EOS205&#45;&gt;course__EOS201</title>
<path fill="none" stroke="#5d6972" stroke-width="1.2" d="M364.99,-286.95C383.14,-275.45 406.7,-260.51 425.56,-248.56"/>
<polygon fill="#5d6972" stroke="#5d6972" stroke-width="1.2" points="427.17,-250.44 431.77,-244.62 424.54,-246.3 427.17,-250.44"/>
</g>
<!-- course__EOS240 -->
<g id="node8" class="node">
<title>course__EOS240</title>
<g id="a_node8"><a xlink:href="../../../courses/EOS240.html" xlink:title="EOS240: Geochemistry" target="_top">
<path fill="#d7e9ef" stroke="#1b2730" stroke-width="1.6" d="M474,-400C474,-400 444,-400 444,-400 438,-400 432,-394 432,-388 432,-388 432,-376 432,-376 432,-370 438,-364 444,-364 444,-364 474,-364 474,-364 480,-364 486,-370 486,-376 486,-376 486,-388 486,-388 486,-394 480,-400 474,-400"/>
<text text-anchor="middle" x="459" y="-379.5" font-family="Avenir Next" font-size="10.00" fill="#17232b">EOS240</text>
</a>
</g>
</g>
<!-- course__EOS205&#45;&gt;course__EOS240 -->
<g id="edge7" class="edge">
<title>course__EOS205&#45;&gt;course__EOS240</title>
<path fill="none" stroke="#5d6972" stroke-width="1.2" d="M364.99,-323.05C383.14,-334.55 406.7,-349.49 425.56,-361.44"/>
<polygon fill="#5d6972" stroke="#5d6972" stroke-width="1.2" points="424.54,-363.7 431.77,-365.38 427.17,-359.56 424.54,-363.7"/>
</g>
<!-- course__EOS300 -->
<g id="node9" class="node">
<title>course__EOS300</title>
<g id="a_node9"><a xlink:href="../../../courses/EOS300.html" xlink:title="EOS300: Earth Science Field School" target="_top">
<path fill="#d7e9ef" stroke="#1b2730" stroke-width="1.6" d="M592.5,-148C592.5,-148 562.5,-148 562.5,-148 556.5,-148 550.5,-142 550.5,-136 550.5,-136 550.5,-124 550.5,-124 550.5,-118 556.5,-112 562.5,-112 562.5,-112 592.5,-112 592.5,-112 598.5,-112 604.5,-118 604.5,-124 604.5,-124 604.5,-136 604.5,-136 604.5,-142 598.5,-148 592.5,-148"/>
<text text-anchor="middle" x="577.5" y="-127.5" font-family="Avenir Next" font-size="10.00" fill="#17232b">EOS300</text>
</a>
</g>
</g>
<!-- course__EOS201&#45;&gt;course__EOS300 -->
<g id="edge8" class="edge">
<title>course__EOS201&#45;&gt;course__EOS300</title>
<path fill="none" stroke="#5d6972" stroke-width="1.2" d="M481.64,-209.8C500.77,-193.71 528.75,-170.17 549.37,-152.82"/>
<polygon fill="#5d6972" stroke="#5d6972" stroke-width="1.2" points="551.2,-154.49 554.98,-148.11 548.04,-150.74 551.2,-154.49"/>
</g>
<!-- course__EOS423 -->
<g id="node12" class="node">
<title>course__EOS423</title>
<g id="a_node12"><a xlink:href="../../../courses/EOS423.html" xlink:title="EOS423: Advanced Sedimentology and Stratigraphy" target="_top">
<path fill="#d7e9ef" stroke="#7e8d96" d="M592.5,-246C592.5,-246 562.5,-246 562.5,-246 556.5,-246 550.5,-240 550.5,-234 550.5,-234 550.5,-222 550.5,-222 550.5,-216 556.5,-210 562.5,-210 562.5,-210 592.5,-210 592.5,-210 598.5,-210 604.5,-216 604.5,-222 604.5,-222 604.5,-234 604.5,-234 604.5,-240 598.5,-246 592.5,-246"/>
<text text-anchor="middle" x="577.5" y="-225.8" font-family="Avenir Next" font-size="9.00" fill="#41515b">EOS423</text>
</a>
</g>
</g>
<!-- course__EOS201&#45;&gt;course__EOS423 -->
<g id="edge20" class="edge">
<title>course__EOS201&#45;&gt;course__EOS423</title>
<path fill="none" stroke="#5d6972" stroke-width="1.2" d="M486.14,-228C502.93,-228 524.9,-228 542.96,-228"/>
<polygon fill="#5d6972" stroke="#5d6972" stroke-width="1.2" points="543.44,-230.45 550.44,-228 543.44,-225.55 543.44,-230.45"/>
</g>
<!-- course__EOS450 -->
<g id="node14" class="node">
<title>course__EOS450</title>
<g id="a_node14"><a xlink:href="../../../courses/EOS450.html" xlink:title="EOS450: Quaternary Geology" target="_top">
<path fill="#d7e9ef" stroke="#7e8d96" d="M592.5,-344C592.5,-344 562.5,-344 562.5,-344 556.5,-344 550.5,-338 550.5,-332 550.5,-332 550.5,-320 550.5,-320 550.5,-314 556.5,-308 562.5,-308 562.5,-308 592.5,-308 592.5,-308 598.5,-308 604.5,-314 604.5,-320 604.5,-320 604.5,-332 604.5,-332 604.5,-338 598.5,-344 592.5,-344"/>
<text text-anchor="middle" x="577.5" y="-323.8" font-family="Avenir Next" font-size="9.00" fill="#41515b">EOS450</text>
</a>
</g>
</g>
<!-- course__EOS201&#45;&gt;course__EOS450 -->
<g id="edge23" class="edge">
<title>course__EOS201&#45;&gt;course__EOS450</title>
<path fill="none" stroke="#5d6972" stroke-width="1.2" d="M481.64,-246.2C500.77,-262.29 528.75,-285.83 549.37,-303.18"/>
<polygon fill="#5d6972" stroke="#5d6972" stroke-width="1.2" points="548.04,-305.26 554.98,-307.89 551.2,-301.51 548.04,-305.26"/>
</g>
<!-- course__GEOG376 -->
<g id="node15" class="node">
<title>course__GEOG376</title>
<g id="a_node15"><a xlink:href="../../../courses/GEOG376.html" xlink:title="GEOG376: Process Geomorphology" target="_top">
<path fill="#e7e2d8" stroke="#7e8d96" d="M596,-92C596,-92 559,-92 559,-92 553,-92 547,-86 547,-80 547,-80 547,-68 547,-68 547,-62 553,-56 559,-56 559,-56 596,-56 596,-56 602,-56 608,-62 608,-68 608,-68 608,-80 608,-80 608,-86 602,-92 596,-92"/>
<text text-anchor="middle" x="577.5" y="-71.8" font-family="Avenir Next" font-size="9.00" fill="#41515b">GEOG376</text>
</a>
</g>
</g>
<!-- course__EOS201&#45;&gt;course__GEOG376 -->
<g id="edge26" class="edge">
<title>course__EOS201&#45;&gt;course__GEOG376</title>
<path fill="none" stroke="#5d6972" stroke-width="1.2" d="M471,-209.62C486.53,-184.3 516.41,-137.75 547,-102 548.33,-100.44 549.75,-98.87 551.2,-97.32"/>
<polygon fill="#5d6972" stroke="#5d6972" stroke-width="1.2" points="553.12,-98.86 556.26,-92.14 549.62,-95.44 553.12,-98.86"/>
</g>
<!-- course__EOS408 -->
<g id="node19" class="node">
<title>course__EOS408</title>
<g id="a_node19"><a xlink:href="../../../courses/EOS408.html" xlink:title="EOS408: Marine Geology" target="_top">
<path fill="#d7e9ef" stroke="#7e8d96" d="M714.5,-341C714.5,-341 684.5,-341 684.5,-341 678.5,-341 672.5,-335 672.5,-329 672.5,-329 672.5,-317 672.5,-317 672.5,-311 678.5,-305 684.5,-305 684.5,-305 714.5,-305 714.5,-305 720.5,-305 726.5,-311 726.5,-317 726.5,-317 726.5,-329 726.5,-329 726.5,-335 720.5,-341 714.5,-341"/>
<text text-anchor="middle" x="699.5" y="-320.8" font-family="Avenir Next" font-size="9.00" fill="#41515b">EOS408</text>
</a>
</g>
</g>
<!-- course__EOS201&#45;&gt;course__EOS408 -->
<g id="edge15" class="edge">
<title>course__EOS201&#45;&gt;course__EOS408</title>
<path fill="none" stroke="#5d6972" stroke-width="1.2" d="M486.43,-238.53C530.25,-255.98 617.8,-290.85 665.56,-309.88"/>
<polygon fill="#5d6972" stroke="#5d6972" stroke-width="1.2" points="664.9,-312.25 672.31,-312.57 666.71,-307.7 664.9,-312.25"/>
</g>
<!-- course__EOS420 -->
<g id="node21" class="node">
<title>course__EOS420</title>
<g id="a_node21"><a xlink:href="../../../courses/EOS420.html" xlink:title="EOS420: Resource Geology" target="_top">
<path fill="#d7e9ef" stroke="#7e8d96" d="M714.5,-278C714.5,-278 684.5,-278 684.5,-278 678.5,-278 672.5,-272 672.5,-266 672.5,-266 672.5,-254 672.5,-254 672.5,-248 678.5,-242 684.5,-242 684.5,-242 714.5,-242 714.5,-242 720.5,-242 726.5,-248 726.5,-254 726.5,-254 726.5,-266 726.5,-266 726.5,-272 720.5,-278 714.5,-278"/>
<text text-anchor="middle" x="699.5" y="-257.8" font-family="Avenir Next" font-size="9.00" fill="#41515b">EOS420</text>
</a>
</g>
</g>
<!-- course__EOS201&#45;&gt;course__EOS420 -->
<g id="edge18" class="edge">
<title>course__EOS201&#45;&gt;course__EOS420</title>
<path fill="none" stroke="#5d6972" stroke-width="1.2" d="M486.07,-215.63C515.95,-203.15 566.19,-187.4 608,-200 632.32,-207.33 656.12,-223.57 673.2,-237.31"/>
<polygon fill="#5d6972" stroke="#5d6972" stroke-width="1.2" points="671.76,-239.3 678.73,-241.86 674.88,-235.52 671.76,-239.3"/>
</g>
<!-- course__EOS316 -->
<g id="node10" class="node">
<title>course__EOS316</title>
<g id="a_node10"><a xlink:href="../../../courses/EOS316.html" xlink:title="EOS316: Igneous and Metamorphic Geology" target="_top">
<path fill="#d7e9ef" stroke="#1b2730" stroke-width="1.6" d="M592.5,-400C592.5,-400 562.5,-400 562.5,-400 556.5,-400 550.5,-394 550.5,-388 550.5,-388 550.5,-376 550.5,-376 550.5,-370 556.5,-364 562.5,-364 562.5,-364 592.5,-364 592.5,-364 598.5,-364 604.5,-370 604.5,-376 604.5,-376 604.5,-388 604.5,-388 604.5,-394 598.5,-400 592.5,-400"/>
<text text-anchor="middle" x="577.5" y="-379.5" font-family="Avenir Next" font-size="10.00" fill="#17232b">EOS316</text>
</a>
</g>
</g>
<!-- course__EOS240&#45;&gt;course__EOS316 -->
<g id="edge9" class="edge">
<title>course__EOS240&#45;&gt;course__EOS316</title>
<path fill="none" stroke="#5d6972" stroke-width="1.2" d="M486.14,-382C502.93,-382 524.9,-382 542.96,-382"/>
<polygon fill="#5d6972" stroke="#5d6972" stroke-width="1.2" points="543.44,-384.45 550.44,-382 543.44,-379.55 543.44,-384.45"/>
</g>
<!-- course__EOS335 -->
<g id="node11" class="node">
<title>course__EOS335</title>
<g id="a_node11"><a xlink:href="../../../courses/EOS335.html" xlink:title="EOS335: Isotopes in Natural Sciences" target="_top">
<path fill="#d7e9ef" stroke="#7e8d96" d="M592.5,-512C592.5,-512 562.5,-512 562.5,-512 556.5,-512 550.5,-506 550.5,-500 550.5,-500 550.5,-488 550.5,-488 550.5,-482 556.5,-476 562.5,-476 562.5,-476 592.5,-476 592.5,-476 598.5,-476 604.5,-482 604.5,-488 604.5,-488 604.5,-500 604.5,-500 604.5,-506 598.5,-512 592.5,-512"/>
<text text-anchor="middle" x="577.5" y="-491.8" font-family="Avenir Next" font-size="9.00" fill="#41515b">EOS335</text>
</a>
</g>
</g>
<!-- course__EOS240&#45;&gt;course__EOS335 -->
<g id="edge11" class="edge">
<title>course__EOS240&#45;&gt;course__EOS335</title>
<path fill="none" stroke="#5d6972" stroke-width="1.2" d="M478.62,-400.07C496.21,-417.11 523.34,-443.35 547,-466 548.68,-467.61 550.42,-469.27 552.18,-470.94"/>
<polygon fill="#5d6972" stroke="#5d6972" stroke-width="1.2" points="550.67,-472.9 557.43,-475.95 554.05,-469.35 550.67,-472.9"/>
</g>
<!-- course__EOS440 -->
<g id="node13" class="node">
<title>course__EOS440</title>
<g id="a_node13"><a xlink:href="../../../courses/EOS440.html" xlink:title="EOS440: Hydrogeology" target="_top">
<path fill="#d7e9ef" stroke="#7e8d96" d="M592.5,-456C592.5,-456 562.5,-456 562.5,-456 556.5,-456 550.5,-450 550.5,-444 550.5,-444 550.5,-432 550.5,-432 550.5,-426 556.5,-420 562.5,-420 562.5,-420 592.5,-420 592.5,-420 598.5,-420 604.5,-426 604.5,-432 604.5,-432 604.5,-444 604.5,-444 604.5,-450 598.5,-456 592.5,-456"/>
<text text-anchor="middle" x="577.5" y="-435.8" font-family="Avenir Next" font-size="9.00" fill="#41515b">EOS440</text>
</a>
</g>
</g>
<!-- course__EOS240&#45;&gt;course__EOS440 -->
<g id="edge22" class="edge">
<title>course__EOS240&#45;&gt;course__EOS440</title>
<path fill="none" stroke="#5d6972" stroke-width="1.2" d="M486.14,-394.57C503.23,-402.78 525.68,-413.57 543.93,-422.34"/>
<polygon fill="#5d6972" stroke="#5d6972" stroke-width="1.2" points="543.07,-424.65 550.44,-425.47 545.19,-420.23 543.07,-424.65"/>
</g>
<!-- course__EOS240&#45;&gt;course__EOS450 -->
<g id="edge24" class="edge">
<title>course__EOS240&#45;&gt;course__EOS450</title>
<path fill="none" stroke="#5d6972" stroke-width="1.2" d="M486.14,-369.43C503.23,-361.22 525.68,-350.43 543.93,-341.66"/>
<polygon fill="#5d6972" stroke="#5d6972" stroke-width="1.2" points="545.19,-343.77 550.44,-338.53 543.07,-339.35 545.19,-343.77"/>
</g>
<!-- course__EOS321 -->
<g id="node16" class="node">
<title>course__EOS321</title>
<g id="a_node16"><a xlink:href="../../../courses/EOS321.html" xlink:title="EOS321: Earth History" target="_top">
<path fill="#d7e9ef" stroke="#7e8d96" d="M714.5,-148C714.5,-148 684.5,-148 684.5,-148 678.5,-148 672.5,-142 672.5,-136 672.5,-136 672.5,-124 672.5,-124 672.5,-118 678.5,-112 684.5,-112 684.5,-112 714.5,-112 714.5,-112 720.5,-112 726.5,-118 726.5,-124 726.5,-124 726.5,-136 726.5,-136 726.5,-142 720.5,-148 714.5,-148"/>
<text text-anchor="middle" x="699.5" y="-127.8" font-family="Avenir Next" font-size="9.00" fill="#41515b">EOS321</text>
</a>
</g>
</g>
<!-- course__EOS300&#45;&gt;course__EOS321 -->
<g id="edge10" class="edge">
<title>course__EOS300&#45;&gt;course__EOS321</title>
<path fill="none" stroke="#5d6972" stroke-width="1.2" d="M604.54,-130C622.26,-130 645.89,-130 665.01,-130"/>
<polygon fill="#5d6972" stroke="#5d6972" stroke-width="1.2" points="665.1,-132.45 672.1,-130 665.1,-127.55 665.1,-132.45"/>
</g>
<!-- course__EOS400 -->
<g id="node17" class="node">
<title>course__EOS400</title>
<g id="a_node17"><a xlink:href="../../../courses/EOS400.html" xlink:title="EOS400: Advanced Field Geology" target="_top">
<path fill="#d7e9ef" stroke="#7e8d96" d="M714.5,-208C714.5,-208 684.5,-208 684.5,-208 678.5,-208 672.5,-202 672.5,-196 672.5,-196 672.5,-184 672.5,-184 672.5,-178 678.5,-172 684.5,-172 684.5,-172 714.5,-172 714.5,-172 720.5,-172 726.5,-178 726.5,-184 726.5,-184 726.5,-196 726.5,-196 726.5,-202 720.5,-208 714.5,-208"/>
<text text-anchor="middle" x="699.5" y="-187.8" font-family="Avenir Next" font-size="9.00" fill="#41515b">EOS400</text>
</a>
</g>
</g>
<!-- course__EOS300&#45;&gt;course__EOS400 -->
<g id="edge12" class="edge">
<title>course__EOS300&#45;&gt;course__EOS400</title>
<path fill="none" stroke="#5d6972" stroke-width="1.2" d="M604.54,-143.02C622.5,-152 646.51,-164.01 665.77,-173.63"/>
<polygon fill="#5d6972" stroke="#5d6972" stroke-width="1.2" points="664.74,-175.86 672.1,-176.8 666.93,-171.48 664.74,-175.86"/>
</g>
<!-- course__EOS316&#45;&gt;course__EOS400 -->
<g id="edge13" class="edge">
<title>course__EOS316&#45;&gt;course__EOS400</title>
<path fill="none" stroke="#5d6972" stroke-width="1.2" d="M599.46,-363.88C602.52,-360.75 605.48,-357.4 608,-354 644.08,-305.29 637.94,-284.06 669,-232 672.55,-226.04 676.67,-219.83 680.69,-214.06"/>
<polygon fill="#5d6972" stroke="#5d6972" stroke-width="1.2" points="682.93,-215.14 684.97,-208.01 678.93,-212.31 682.93,-215.14"/>
</g>
<!-- course__EOS316&#45;&gt;course__EOS408 -->
<g id="edge16" class="edge">
<title>course__EOS316&#45;&gt;course__EOS408</title>
<path fill="none" stroke="#5d6972" stroke-width="1.2" d="M604.54,-369.2C622.5,-360.37 646.51,-348.56 665.77,-339.09"/>
<polygon fill="#5d6972" stroke="#5d6972" stroke-width="1.2" points="666.9,-341.27 672.1,-335.98 664.74,-336.87 666.9,-341.27"/>
</g>
<!-- course__EOS416 -->
<g id="node20" class="node">
<title>course__EOS416</title>
<g id="a_node20"><a xlink:href="../../../courses/EOS416.html" xlink:title="EOS416: High Temperature Petrology" target="_top">
<path fill="#d7e9ef" stroke="#7e8d96" d="M714.5,-400C714.5,-400 684.5,-400 684.5,-400 678.5,-400 672.5,-394 672.5,-388 672.5,-388 672.5,-376 672.5,-376 672.5,-370 678.5,-364 684.5,-364 684.5,-364 714.5,-364 714.5,-364 720.5,-364 726.5,-370 726.5,-376 726.5,-376 726.5,-388 726.5,-388 726.5,-394 720.5,-400 714.5,-400"/>
<text text-anchor="middle" x="699.5" y="-379.8" font-family="Avenir Next" font-size="9.00" fill="#41515b">EOS416</text>
</a>
</g>
</g>
<!-- course__EOS316&#45;&gt;course__EOS416 -->
<g id="edge17" class="edge">
<title>course__EOS316&#45;&gt;course__EOS416</title>
<path fill="none" stroke="#5d6972" stroke-width="1.2" d="M604.54,-382C622.26,-382 645.89,-382 665.01,-382"/>
<polygon fill="#5d6972" stroke="#5d6972" stroke-width="1.2" points="665.1,-384.45 672.1,-382 665.1,-379.55 665.1,-384.45"/>
</g>
<!-- course__EOS316&#45;&gt;course__EOS420 -->
<g id="edge19" class="edge">
<title>course__EOS316&#45;&gt;course__EOS420</title>
<path fill="none" stroke="#5d6972" stroke-width="1.2" d="M597.98,-363.75C601.35,-360.53 604.79,-357.18 608,-354 631.8,-330.36 658.35,-302.62 676.5,-283.43"/>
<polygon fill="#5d6972" stroke="#5d6972" stroke-width="1.2" points="678.36,-285.03 681.39,-278.26 674.8,-281.66 678.36,-285.03"/>
</g>
<!-- course__EOS403 -->
<g id="node18" class="node">
<title>course__EOS403</title>
<g id="a_node18"><a xlink:href="../../../courses/EOS403.html" xlink:title="EOS403: Global Biogeochemical Cycles" target="_top">
<path fill="#d7e9ef" stroke="#7e8d96" d="M714.5,-568C714.5,-568 684.5,-568 684.5,-568 678.5,-568 672.5,-562 672.5,-556 672.5,-556 672.5,-544 672.5,-544 672.5,-538 678.5,-532 684.5,-532 684.5,-532 714.5,-532 714.5,-532 720.5,-532 726.5,-538 726.5,-544 726.5,-544 726.5,-556 726.5,-556 726.5,-562 720.5,-568 714.5,-568"/>
<text text-anchor="middle" x="699.5" y="-547.8" font-family="Avenir Next" font-size="9.00" fill="#41515b">EOS403</text>
</a>
</g>
</g>
<!-- course__EOS335&#45;&gt;course__EOS403 -->
<g id="edge14" class="edge">
<title>course__EOS335&#45;&gt;course__EOS403</title>
<path fill="none" stroke="#5d6972" stroke-width="1.2" d="M604.54,-506.15C622.42,-514.5 646.3,-525.64 665.51,-534.61"/>
<polygon fill="#5d6972" stroke="#5d6972" stroke-width="1.2" points="664.72,-536.94 672.1,-537.68 666.79,-532.5 664.72,-536.94"/>
</g>
<!-- course__EOS425 -->
<g id="node22" class="node">
<title>course__EOS425</title>
<g id="a_node22"><a xlink:href="../../../courses/EOS425.html" xlink:title="EOS425: Aqueous Chemistry in the Earth and Ocean" target="_top">
<path fill="#d7e9ef" stroke="#7e8d96" d="M714.5,-512C714.5,-512 684.5,-512 684.5,-512 678.5,-512 672.5,-506 672.5,-500 672.5,-500 672.5,-488 672.5,-488 672.5,-482 678.5,-476 684.5,-476 684.5,-476 714.5,-476 714.5,-476 720.5,-476 726.5,-482 726.5,-488 726.5,-488 726.5,-500 726.5,-500 726.5,-506 720.5,-512 714.5,-512"/>
<text text-anchor="middle" x="699.5" y="-491.8" font-family="Avenir Next" font-size="9.00" fill="#41515b">EOS425</text>
</a>
</g>
</g>
<!-- course__EOS335&#45;&gt;course__EOS425 -->
<g id="edge21" class="edge">
<title>course__EOS335&#45;&gt;course__EOS425</title>
<path fill="none" stroke="#5d6972" stroke-width="1.2" d="M604.54,-494C622.26,-494 645.89,-494 665.01,-494"/>
<polygon fill="#5d6972" stroke="#5d6972" stroke-width="1.2" points="665.1,-496.45 672.1,-494 665.1,-491.55 665.1,-496.45"/>
</g>
<!-- course__EOS460 -->
<g id="node23" class="node">
<title>course__EOS460</title>
<g id="a_node23"><a xlink:href="../../../courses/EOS460.html" xlink:title="EOS460: Earth System Science" target="_top">
<path fill="#d7e9ef" stroke="#7e8d96" d="M714.5,-456C714.5,-456 684.5,-456 684.5,-456 678.5,-456 672.5,-450 672.5,-444 672.5,-444 672.5,-432 672.5,-432 672.5,-426 678.5,-420 684.5,-420 684.5,-420 714.5,-420 714.5,-420 720.5,-420 726.5,-426 726.5,-432 726.5,-432 726.5,-444 726.5,-444 726.5,-450 720.5,-456 714.5,-456"/>
<text text-anchor="middle" x="699.5" y="-435.8" font-family="Avenir Next" font-size="9.00" fill="#41515b">EOS460</text>
</a>
</g>
</g>
<!-- course__EOS335&#45;&gt;course__EOS460 -->
<g id="edge25" class="edge">
<title>course__EOS335&#45;&gt;course__EOS460</title>
<path fill="none" stroke="#5d6972" stroke-width="1.2" d="M604.54,-481.85C622.42,-473.5 646.3,-462.36 665.51,-453.39"/>
<polygon fill="#5d6972" stroke="#5d6972" stroke-width="1.2" points="666.79,-455.5 672.1,-450.32 664.72,-451.06 666.79,-455.5"/>
</g>
<!-- course__GEOG476 -->
<g id="node24" class="node">
<title>course__GEOG476</title>
<g id="a_node24"><a xlink:href="../../../courses/GEOG476.html" xlink:title="GEOG476: Advanced Topics in Geomorphology" target="_top">
<path fill="#e7e2d8" stroke="#7e8d96" d="M718,-92C718,-92 681,-92 681,-92 675,-92 669,-86 669,-80 669,-80 669,-68 669,-68 669,-62 675,-56 681,-56 681,-56 718,-56 718,-56 724,-56 730,-62 730,-68 730,-68 730,-80 730,-80 730,-86 724,-92 718,-92"/>
<text text-anchor="middle" x="699.5" y="-71.8" font-family="Avenir Next" font-size="9.00" fill="#41515b">GEOG476</text>
</a>
</g>
</g>
<!-- course__GEOG376&#45;&gt;course__GEOG476 -->
<g id="edge27" class="edge">
<title>course__GEOG376&#45;&gt;course__GEOG476</title>
<path fill="none" stroke="#5d6972" stroke-width="1.2" d="M608.16,-74C624.32,-74 644.45,-74 661.61,-74"/>
<polygon fill="#5d6972" stroke="#5d6972" stroke-width="1.2" points="661.76,-76.45 668.76,-74 661.76,-71.55 661.76,-76.45"/>
</g>
<!-- course__GEOG477 -->
<g id="node25" class="node">
<title>course__GEOG477</title>
<g id="a_node25"><a xlink:href="../../../courses/GEOG477.html" xlink:title="GEOG477: Field Studies in Physical Geography" target="_top">
<path fill="#e7e2d8" stroke="#7e8d96" d="M718,-36C718,-36 681,-36 681,-36 675,-36 669,-30 669,-24 669,-24 669,-12 669,-12 669,-6 675,0 681,0 681,0 718,0 718,0 724,0 730,-6 730,-12 730,-12 730,-24 730,-24 730,-30 724,-36 718,-36"/>
<text text-anchor="middle" x="699.5" y="-15.8" font-family="Avenir Next" font-size="9.00" fill="#41515b">GEOG477</text>
</a>
</g>
</g>
<!-- course__GEOG376&#45;&gt;course__GEOG477 -->
<g id="edge28" class="edge">
<title>course__GEOG376&#45;&gt;course__GEOG477</title>
<path fill="none" stroke="#5d6972" stroke-width="1.2" d="M608.16,-60.16C624.46,-52.55 644.81,-43.05 662.07,-35"/>
<polygon fill="#5d6972" stroke="#5d6972" stroke-width="1.2" points="663.46,-37.06 668.76,-31.88 661.38,-32.62 663.46,-37.06"/>
</g>
</g>
</svg>
