<?xml version="1.0" encoding="UTF-8" standalone="no"?>
<!DOCTYPE svg PUBLIC "-//W3C//DTD SVG 1.1//EN"
 "http://www.w3.org/Graphics/SVG/1.1/DTD/svg11.dtd">
<!-- Generated by graphviz version 2.43.0 (0)
 -->
<!-- Title: EOS313 Pages: 1 -->
<svg width="543pt" height="135pt"
 viewBox="0.00 0.00 543.20 135.20" xmlns="http://www.w3.org/2000/svg" xmlns:xlink="http://www.w3.org/1999/xlink">
<g id="graph0" class="graph" transform="scale(1 1) rotate(0) translate(21.6 113.6)">
<title>EOS313</title>
<!-- course__CHEM101 -->
<g id="node1" class="node">
<title>course__CHEM101</title>
<g id="a_node1"><a xlink:href="../../../courses/CHEM101.html" xlink:title="Equivalent or cross&#45;listed: CHEM101: Fundamentals of Chemistry from Atoms to Materials | CHEM150: Engineering Chemistry" target="_top">
<path fill="#ead9b8" stroke="#1b2730" stroke-width="1.6" d="M108,-92C108,-92 12,-92 12,-92 6,-92 0,-86 0,-80 0,-80 0,-68 0,-68 0,-62 6,-56 12,-56 12,-56 108,-56 108,-56 114,-56 120,-62 120,-68 120,-68 120,-80 120,-80 120,-86 114,-92 108,-92"/>
<text text-anchor="middle" x="60" y="-71.5" font-family="Avenir Next" font-size="10.00" fill="#17232b">CHEM101 / CHEM150</text>
</a>
</g>
</g>
<!-- course__EOS313 -->
<g id="node3" class="node">
<title>course__EOS313</title>
<g id="a_node3"><a xlink:href="../../../courses/EOS313.html" xlink:title="EOS313: Introductory Geological Oceanography" target="_top">
<path fill="#d7e9ef" stroke="#1f4f66" stroke-width="2" d="M373,-64C373,-64 193,-64 193,-64 187,-64 181,-58 181,-52 181,-52 181,-40 181,-40 181,-34 187,-28 193,-28 193,-28 373,-28 373,-28 379,-28 385,-34 385,-40 385,-40 385,-52 385,-52 385,-58 379,-64 373,-64"/>
<text text-anchor="middle" x="283" y="-49" font-family="Avenir Next" font-size="10.00" fill="#17232b">EOS313</text>
<text text-anchor="middle" x="283" y="-38" font-family="Avenir Next" font-size="10.00" fill="#17232b">Introductory Geological Oceanography</text>
</a>
</g>
</g>
<!-- course__CHEM101&#45;&gt;course__EOS313 -->
<g id="edge2" class="edge">
<title>course__CHEM101&#45;&gt;course__EOS313</title>
<path fill="none" stroke="#5d6972" stroke-width="1.2" d="M120.22,-66.5C136.7,-64.41 155.14,-62.07 173.5,-59.75"/>
<polygon fill="#5d6972" stroke="#5d6972" stroke-width="1.2" points="174.17,-62.13 180.8,-58.82 173.55,-57.27 174.17,-62.13"/>
</g>
<!-- course__EOS120 -->
<g id="node2" class="node">
<title>course__EOS120</title>
<g id="a_node2"><a xlink:href="../../../courses/EOS120.html" xlink:title="EOS120: The Dynamic Earth" target="_top">
<path fill="#d7e9ef" stroke="#1b2730" stroke-width="1.6" d="M75,-36C75,-36 45,-36 45,-36 39,-36 33,-30 33,-24 33,-24 33,-12 33,-12 33,-6 39,0 45,0 45,0 75,0 75,0 81,0 87,-6 87,-12 87,-12 87,-24 87,-24 87,-30 81,-36 75,-36"/>
<text text-anchor="middle" x="60" y="-15.5" font-family="Avenir Next" font-size="10.00" fill="#17232b">EOS120</text>
</a>
</g>
</g>
<!-- course__EOS120&#45;&gt;course__EOS313 -->
<g id="edge1" class="edge">
<title>course__EOS120&#45;&gt;course__EOS313</title>
<path fill="none" stroke="#5d6972" stroke-width="1.2" d="M87.22,-21.32C108.96,-24.08 141.41,-28.19 173.62,-32.27"/>
<polygon fill="#5d6972" stroke="#5d6972" stroke-width="1.2" points="173.67,-34.74 180.92,-33.19 174.28,-29.88 173.67,-34.74"/>
</g>
<!-- course__EOS401 -->
<g id="node4" class="node">
<title>course__EOS401</title>
<g id="a_node4"><a xlink:href="../../../courses/EOS401.html" xlink:title="EOS401: Oceanographic Field School" target="_top">
<path fill="#d7e9ef" stroke="#1b2730" stroke-width="1.6" d="M488,-64C488,-64 458,-64 458,-64 452,-64 446,-58 446,-52 446,-52 446,-40 446,-40 446,-34 452,-28 458,-28 458,-28 488,-28 488,-28 494,-28 500,-34 500,-40 500,-40 500,-52 500,-52 500,-58 494,-64 488,-64"/>
<text text-anchor="middle" x="473" y="-43.5" font-family="Avenir Next" font-size="10.00" fill="#17232b">EOS401</text>
</a>
</g>
</g>
<!-- course__EOS313&#45;&gt;course__EOS401 -->
<g id="edge3" class="edge">
<title>course__EOS313&#45;&gt;course__EOS401</title>
<path fill="none" stroke="#5d6972" stroke-width="1.2" d="M385.15,-46C404.42,-46 423.29,-46 438.49,-46"/>
<polygon fill="#5d6972" stroke="#5d6972" stroke-width="1.2" points="438.64,-48.45 445.64,-46 438.64,-43.55 438.64,-48.45"/>
</g>
</g>
</svg>
