<?xml version="1.0" encoding="UTF-8" standalone="no"?>
<!DOCTYPE svg PUBLIC "-//W3C//DTD SVG 1.1//EN"
 "http://www.w3.org/Graphics/SVG/1.1/DTD/svg11.dtd">
<!-- Generated by graphviz version 2.43.0 (0)
 -->
<!-- Title: EOS325 Pages: 1 -->
<svg width="925pt" height="516pt"
 viewBox="0.00 0.00 925.20 516.20" xmlns="http://www.w3.org/2000/svg" xmlns:xlink="http://www.w3.org/1999/xlink">
<g id="graph0" class="graph" transform="scale(1 1) rotate(0) translate(21.6 494.6)">
<title>EOS325</title>
<!-- course__MATH200 -->
<g id="node1" class="node">
<title>course__MATH200</title>
<g id="a_node1"><a xlink:href="../../../courses/MATH200.html" xlink:title="Equivalent or cross&#45;listed: MATH200: Calculus III | MATH202: Intermediate Calculus for CSC and EOS" target="_top">
<path fill="#dfe3f4" stroke="#1b2730" stroke-width="1.6" d="M107,-448C107,-448 12,-448 12,-448 6,-448 0,-442 0,-436 0,-436 0,-424 0,-424 0,-418 6,-412 12,-412 12,-412 107,-412 107,-412 113,-412 119,-418 119,-424 119,-424 119,-436 119,-436 119,-442 113,-448 107,-448"/>
<text text-anchor="middle" x="59.5" y="-427.5" font-family="Avenir Next" font-size="10.00" fill="#17232b">MATH200 / MATH202</text>
</a>
</g>
</g>
<!-- course__MATH204 -->
<g id="node8" class="node">
<title>course__MATH204</title>
<g id="a_node8"><a xlink:href="../../../courses/MATH204.html" xlink:title="MATH204: Calculus IV" target="_top">
<path fill="#dfe3f4" stroke="#1b2730" stroke-width="1.6" d="M254.5,-473C254.5,-473 215.5,-473 215.5,-473 209.5,-473 203.5,-467 203.5,-461 203.5,-461 203.5,-449 203.5,-449 203.5,-443 209.5,-437 215.5,-437 215.5,-437 254.5,-437 254.5,-437 260.5,-437 266.5,-443 266.5,-449 266.5,-449 266.5,-461 266.5,-461 266.5,-467 260.5,-473 254.5,-473"/>
<text text-anchor="middle" x="235" y="-452.5" font-family="Avenir Next" font-size="10.00" fill="#17232b">MATH204</text>
</a>
</g>
</g>
<!-- course__MATH200&#45;&gt;course__MATH204 -->
<g id="edge23" class="edge">
<title>course__MATH200&#45;&gt;course__MATH204</title>
<path fill="none" stroke="#5d6972" stroke-width="1.2" d="M119.24,-438.46C144.61,-442.12 173.56,-446.29 196.04,-449.53"/>
<polygon fill="#5d6972" stroke="#5d6972" stroke-width="1.2" points="195.82,-451.97 203.09,-450.55 196.52,-447.12 195.82,-451.97"/>
</g>
<!-- choice_EOS325_0_0 -->
<g id="node14" class="node">
<title>choice_EOS325_0_0</title>
<path fill="#fff7ee" stroke="#b7793f" stroke-width="1.1" d="M393,-382C393,-382 363,-382 363,-382 357,-382 351,-376 351,-370 351,-370 351,-358 351,-358 351,-352 357,-346 363,-346 363,-346 393,-346 393,-346 399,-346 405,-352 405,-358 405,-358 405,-370 405,-370 405,-376 399,-382 393,-382"/>
<text text-anchor="middle" x="378" y="-361.8" font-family="Avenir Next" font-size="9.00">1 of</text>
</g>
<!-- course__MATH200&#45;&gt;choice_EOS325_0_0 -->
<g id="edge3" class="edge">
<title>course__MATH200&#45;&gt;choice_EOS325_0_0</title>
<path fill="none" stroke="#7a8389" d="M119.13,-419.23C165.59,-410.52 232.09,-397.66 290,-385 307.77,-381.11 327.48,-376.39 343.64,-372.41"/>
<polygon fill="#7a8389" stroke="#7a8389" points="344.59,-374.7 350.8,-370.64 343.42,-369.94 344.59,-374.7"/>
</g>
<!-- course__PHYS102B -->
<g id="node2" class="node">
<title>course__PHYS102B</title>
<g id="a_node2"><a xlink:href="../../../courses/PHYS102B.html" xlink:title="Collapsed in simplified view: PHYS102B: General Physics II | PHYS111: Introductory Physics II | PHYS130: Physics II" target="_top">
<path fill="#efd8cf" stroke="#1b2730" stroke-width="1.6" d="M78.5,-102C78.5,-102 40.5,-102 40.5,-102 34.5,-102 28.5,-96 28.5,-90 28.5,-90 28.5,-78 28.5,-78 28.5,-72 34.5,-66 40.5,-66 40.5,-66 78.5,-66 78.5,-66 84.5,-66 90.5,-72 90.5,-78 90.5,-78 90.5,-90 90.5,-90 90.5,-96 84.5,-102 78.5,-102"/>
<text text-anchor="middle" x="59.5" y="-81.5" font-family="Avenir Next" font-size="10.00" fill="#17232b">Physics II</text>
</a>
</g>
</g>
<!-- course__EOS261 -->
<g id="node6" class="node">
<title>course__EOS261</title>
<g id="a_node6"><a xlink:href="../../../courses/EOS261.html" xlink:title="EOS261: The Climate System" target="_top">
<path fill="#d7e9ef" stroke="#1b2730" stroke-width="1.6" d="M250,-263C250,-263 220,-263 220,-263 214,-263 208,-257 208,-251 208,-251 208,-239 208,-239 208,-233 214,-227 220,-227 220,-227 250,-227 250,-227 256,-227 262,-233 262,-239 262,-239 262,-251 262,-251 262,-257 256,-263 250,-263"/>
<text text-anchor="middle" x="235" y="-242.5" font-family="Avenir Next" font-size="10.00" fill="#17232b">EOS261</text>
</a>
</g>
</g>
<!-- course__PHYS102B&#45;&gt;course__EOS261 -->
<g id="edge1" class="edge">
<title>course__PHYS102B&#45;&gt;course__EOS261</title>
<path fill="none" stroke="#5d6972" stroke-width="1.2" d="M73.48,-102.25C93.77,-129.79 135.32,-182.42 180,-217 186.46,-222 193.94,-226.53 201.24,-230.42"/>
<polygon fill="#5d6972" stroke="#5d6972" stroke-width="1.2" points="200.51,-232.8 207.86,-233.81 202.75,-228.44 200.51,-232.8"/>
</g>
<!-- course__EOS314 -->
<g id="node7" class="node">
<title>course__EOS314</title>
<g id="a_node7"><a xlink:href="../../../courses/EOS314.html" xlink:title="EOS314: Descriptive Physical Oceanography" target="_top">
<path fill="#d7e9ef" stroke="#1b2730" stroke-width="1.6" d="M250,-151C250,-151 220,-151 220,-151 214,-151 208,-145 208,-139 208,-139 208,-127 208,-127 208,-121 214,-115 220,-115 220,-115 250,-115 250,-115 256,-115 262,-121 262,-127 262,-127 262,-139 262,-139 262,-145 256,-151 250,-151"/>
<text text-anchor="middle" x="235" y="-130.5" font-family="Avenir Next" font-size="10.00" fill="#17232b">EOS314</text>
</a>
</g>
</g>
<!-- course__PHYS102B&#45;&gt;course__EOS314 -->
<g id="edge2" class="edge">
<title>course__PHYS102B&#45;&gt;course__EOS314</title>
<path fill="none" stroke="#5d6972" stroke-width="1.2" d="M90.72,-92.54C121.5,-101.23 169.1,-114.67 200.88,-123.65"/>
<polygon fill="#5d6972" stroke="#5d6972" stroke-width="1.2" points="200.41,-126.06 207.81,-125.6 201.74,-121.34 200.41,-126.06"/>
</g>
<!-- course__EOS325 -->
<g id="node9" class="node">
<title>course__EOS325</title>
<g id="a_node9"><a xlink:href="../../../courses/EOS325.html" xlink:title="EOS325: Earth System Modelling" target="_top">
<path fill="#d7e9ef" stroke="#1f4f66" stroke-width="2" d="M587,-263C587,-263 478,-263 478,-263 472,-263 466,-257 466,-251 466,-251 466,-239 466,-239 466,-233 472,-227 478,-227 478,-227 587,-227 587,-227 593,-227 599,-233 599,-239 599,-239 599,-251 599,-251 599,-257 593,-263 587,-263"/>
<text text-anchor="middle" x="532.5" y="-248" font-family="Avenir Next" font-size="10.00" fill="#17232b">EOS325</text>
<text text-anchor="middle" x="532.5" y="-237" font-family="Avenir Next" font-size="10.00" fill="#17232b">Earth System Modelling</text>
</a>
</g>
</g>
<!-- course__PHYS102B&#45;&gt;course__EOS325 -->
<g id="edge11" class="edge">
<title>course__PHYS102B&#45;&gt;course__EOS325</title>
<path fill="none" stroke="#5d6972" stroke-width="1.2" d="M90.65,-82.68C135.32,-81.63 221.19,-83.09 290,-105 373.36,-131.55 459.23,-190.26 502.63,-222.58"/>
<polygon fill="#5d6972" stroke="#5d6972" stroke-width="1.2" points="501.4,-224.72 508.47,-226.96 504.34,-220.8 501.4,-224.72"/>
</g>
<!-- course__EOS340 -->
<g id="node10" class="node">
<title>course__EOS340</title>
<g id="a_node10"><a xlink:href="../../../courses/EOS340.html" xlink:title="Equivalent or cross&#45;listed: EOS340: Atmospheric Physics | PHYS340: Atmospheric Physics" target="_top">
<path fill="#d7e9ef" stroke="#1b2730" stroke-width="1.6" d="M870,-188C870,-188 787,-188 787,-188 781,-188 775,-182 775,-176 775,-176 775,-164 775,-164 775,-158 781,-152 787,-152 787,-152 870,-152 870,-152 876,-152 882,-158 882,-164 882,-164 882,-176 882,-176 882,-182 876,-188 870,-188"/>
<text text-anchor="middle" x="828.5" y="-167.5" font-family="Avenir Next" font-size="10.00" fill="#17232b">EOS340 / PHYS340</text>
</a>
</g>
</g>
<!-- course__PHYS102B&#45;&gt;course__EOS340 -->
<g id="edge13" class="edge">
<title>course__PHYS102B&#45;&gt;course__EOS340</title>
<path fill="none" stroke="#5d6972" stroke-width="1.2" d="M90.88,-77.25C147.06,-65.38 271.13,-42 377,-42 377,-42 377,-42 533.5,-42 559.91,-42 708.73,-112.34 783.95,-148.73"/>
<polygon fill="#5d6972" stroke="#5d6972" stroke-width="1.2" points="783.19,-151.09 790.56,-151.93 785.33,-146.68 783.19,-151.09"/>
</g>
<!-- course__EOS431 -->
<g id="node12" class="node">
<title>course__EOS431</title>
<g id="a_node12"><a xlink:href="../../../courses/EOS431.html" xlink:title="Equivalent or cross&#45;listed: EOS431: Physical Oceanography | PHYS441: Physical Oceanography" target="_top">
<path fill="#d7e9ef" stroke="#1b2730" stroke-width="1.6" d="M870,-38C870,-38 787,-38 787,-38 781,-38 775,-32 775,-26 775,-26 775,-14 775,-14 775,-8 781,-2 787,-2 787,-2 870,-2 870,-2 876,-2 882,-8 882,-14 882,-14 882,-26 882,-26 882,-32 876,-38 870,-38"/>
<text text-anchor="middle" x="828.5" y="-17.5" font-family="Avenir Next" font-size="10.00" fill="#17232b">EOS431 / PHYS441</text>
</a>
</g>
</g>
<!-- course__PHYS102B&#45;&gt;course__EOS431 -->
<g id="edge21" class="edge">
<title>course__PHYS102B&#45;&gt;course__EOS431</title>
<path fill="none" stroke="#5d6972" stroke-width="1.2" d="M90.84,-65.89C114.36,-52.7 148.19,-35.54 180,-26 264.59,-0.62 288.69,0 377,0 377,0 377,0 533.5,0 614.86,0 708.6,-7.72 767.93,-13.57"/>
<polygon fill="#5d6972" stroke="#5d6972" stroke-width="1.2" points="767.79,-16.01 775,-14.27 768.27,-11.14 767.79,-16.01"/>
</g>
<!-- course__CSC110 -->
<g id="node3" class="node">
<title>course__CSC110</title>
<g id="a_node3"><a xlink:href="../../../courses/CSC110.html" xlink:title="Collapsed in simplified view: CSC110: Fundamentals of Programming I | CSC111: Fundamentals of Programming with Engineering Applications" target="_top">
<path fill="#e7ddec" stroke="#1b2730" stroke-width="1.6" d="M267.5,-207C267.5,-207 202.5,-207 202.5,-207 196.5,-207 190.5,-201 190.5,-195 190.5,-195 190.5,-183 190.5,-183 190.5,-177 196.5,-171 202.5,-171 202.5,-171 267.5,-171 267.5,-171 273.5,-171 279.5,-177 279.5,-183 279.5,-183 279.5,-195 279.5,-195 279.5,-201 273.5,-207 267.5,-207"/>
<text text-anchor="middle" x="235" y="-186.5" font-family="Avenir Next" font-size="10.00" fill="#17232b">Programming I</text>
</a>
</g>
</g>
<!-- choice_EOS325_0_2_0 -->
<g id="node15" class="node">
<title>choice_EOS325_0_2_0</title>
<path fill="#fff7ee" stroke="#b7793f" stroke-width="1.1" d="M393,-263C393,-263 363,-263 363,-263 357,-263 351,-257 351,-251 351,-251 351,-239 351,-239 351,-233 357,-227 363,-227 363,-227 393,-227 393,-227 399,-227 405,-233 405,-239 405,-239 405,-251 405,-251 405,-257 399,-263 393,-263"/>
<text text-anchor="middle" x="378" y="-242.8" font-family="Avenir Next" font-size="9.00">1 of</text>
</g>
<!-- course__CSC110&#45;&gt;choice_EOS325_0_2_0 -->
<g id="edge9" class="edge">
<title>course__CSC110&#45;&gt;choice_EOS325_0_2_0</title>
<path fill="none" stroke="#7a8389" d="M279.84,-206.41C300.67,-214.68 325.13,-224.4 344.31,-232.01"/>
<polygon fill="#7a8389" stroke="#7a8389" points="343.44,-234.31 350.85,-234.61 345.25,-229.75 343.44,-234.31"/>
</g>
<!-- course__EOS210 -->
<g id="node4" class="node">
<title>course__EOS210</title>
<g id="a_node4"><a xlink:href="../../../courses/EOS210.html" xlink:title="Collapsed in simplified view: EOS210: Introductory Geophysics | PHYS210: Introductory Geophysics" target="_top">
<path fill="#d7e9ef" stroke="#1b2730" stroke-width="1.6" d="M271.5,-375C271.5,-375 198.5,-375 198.5,-375 192.5,-375 186.5,-369 186.5,-363 186.5,-363 186.5,-351 186.5,-351 186.5,-345 192.5,-339 198.5,-339 198.5,-339 271.5,-339 271.5,-339 277.5,-339 283.5,-345 283.5,-351 283.5,-351 283.5,-363 283.5,-363 283.5,-369 277.5,-375 271.5,-375"/>
<text text-anchor="middle" x="235" y="-354.5" font-family="Avenir Next" font-size="10.00" fill="#17232b">Intro geophysics</text>
</a>
</g>
</g>
<!-- course__EOS210&#45;&gt;choice_EOS325_0_2_0 -->
<g id="edge5" class="edge">
<title>course__EOS210&#45;&gt;choice_EOS325_0_2_0</title>
<path fill="none" stroke="#7a8389" d="M274.3,-338.91C279.72,-335.85 285.11,-332.51 290,-329 314.72,-311.23 339.35,-286.65 356.06,-268.66"/>
<polygon fill="#7a8389" stroke="#7a8389" points="358.05,-270.12 360.98,-263.31 354.44,-266.8 358.05,-270.12"/>
</g>
<!-- course__EOS230 -->
<g id="node5" class="node">
<title>course__EOS230</title>
<g id="a_node5"><a xlink:href="../../../courses/EOS230.html" xlink:title="Equivalent or cross&#45;listed: EOS230: Introduction to Environmental Data Analysis | GEOG230: Introduction to Environmental Data Analysis" target="_top">
<path fill="#d7e9ef" stroke="#1b2730" stroke-width="1.6" d="M278,-319C278,-319 192,-319 192,-319 186,-319 180,-313 180,-307 180,-307 180,-295 180,-295 180,-289 186,-283 192,-283 192,-283 278,-283 278,-283 284,-283 290,-289 290,-295 290,-295 290,-307 290,-307 290,-313 284,-319 278,-319"/>
<text text-anchor="middle" x="235" y="-298.5" font-family="Avenir Next" font-size="10.00" fill="#17232b">EOS230 / GEOG230</text>
</a>
</g>
</g>
<!-- course__EOS230&#45;&gt;choice_EOS325_0_2_0 -->
<g id="edge6" class="edge">
<title>course__EOS230&#45;&gt;choice_EOS325_0_2_0</title>
<path fill="none" stroke="#7a8389" d="M281.39,-282.97C301.75,-274.89 325.33,-265.52 343.98,-258.12"/>
<polygon fill="#7a8389" stroke="#7a8389" points="345.01,-260.34 350.61,-255.48 343.2,-255.79 345.01,-260.34"/>
</g>
<!-- course__EOS261&#45;&gt;choice_EOS325_0_2_0 -->
<g id="edge7" class="edge">
<title>course__EOS261&#45;&gt;choice_EOS325_0_2_0</title>
<path fill="none" stroke="#7a8389" d="M262.19,-245C285.24,-245 318.92,-245 343.84,-245"/>
<polygon fill="#7a8389" stroke="#7a8389" points="343.95,-247.45 350.95,-245 343.95,-242.55 343.95,-247.45"/>
</g>
<!-- course__EOS314&#45;&gt;choice_EOS325_0_2_0 -->
<g id="edge8" class="edge">
<title>course__EOS314&#45;&gt;choice_EOS325_0_2_0</title>
<path fill="none" stroke="#7a8389" d="M262.16,-144.66C271.31,-149.22 281.42,-154.84 290,-161 314.72,-178.77 339.35,-203.35 356.06,-221.34"/>
<polygon fill="#7a8389" stroke="#7a8389" points="354.44,-223.2 360.98,-226.69 358.05,-219.88 354.44,-223.2"/>
</g>
<!-- course__MATH204&#45;&gt;choice_EOS325_0_0 -->
<g id="edge4" class="edge">
<title>course__MATH204&#45;&gt;choice_EOS325_0_0</title>
<path fill="none" stroke="#7a8389" d="M266.12,-436.88C273.94,-432.1 282.31,-426.91 290,-422 308.4,-410.25 328.7,-396.75 345.07,-385.72"/>
<polygon fill="#7a8389" stroke="#7a8389" points="346.48,-387.73 350.91,-381.78 343.73,-383.67 346.48,-387.73"/>
</g>
<!-- choice_EOS340_1 -->
<g id="node16" class="node">
<title>choice_EOS340_1</title>
<path fill="#fff7ee" stroke="#b7793f" stroke-width="1.1" d="M702,-349C702,-349 672,-349 672,-349 666,-349 660,-343 660,-337 660,-337 660,-325 660,-325 660,-319 666,-313 672,-313 672,-313 702,-313 702,-313 708,-313 714,-319 714,-325 714,-325 714,-337 714,-337 714,-343 708,-349 702,-349"/>
<text text-anchor="middle" x="687" y="-328.8" font-family="Avenir Next" font-size="9.00">1 of</text>
</g>
<!-- course__MATH204&#45;&gt;choice_EOS340_1 -->
<g id="edge15" class="edge">
<title>course__MATH204&#45;&gt;choice_EOS340_1</title>
<path fill="none" stroke="#7a8389" d="M266.67,-460.19C331.8,-469.7 487.08,-484.19 599,-429 631.59,-412.93 657.38,-378.76 672.17,-355.34"/>
<polygon fill="#7a8389" stroke="#7a8389" points="674.28,-356.58 675.87,-349.33 670.11,-354.01 674.28,-356.58"/>
</g>
<!-- choice_EOS431_0_0 -->
<g id="node17" class="node">
<title>choice_EOS431_0_0</title>
<path fill="#fff7ee" stroke="#b7793f" stroke-width="1.1" d="M702,-293C702,-293 672,-293 672,-293 666,-293 660,-287 660,-281 660,-281 660,-269 660,-269 660,-263 666,-257 672,-257 672,-257 702,-257 702,-257 708,-257 714,-263 714,-269 714,-269 714,-281 714,-281 714,-287 708,-293 702,-293"/>
<text text-anchor="middle" x="687" y="-272.8" font-family="Avenir Next" font-size="9.00">1 of</text>
</g>
<!-- course__MATH204&#45;&gt;choice_EOS431_0_0 -->
<g id="edge19" class="edge">
<title>course__MATH204&#45;&gt;choice_EOS431_0_0</title>
<path fill="none" stroke="#7a8389" d="M266.66,-443.96C300.62,-431.65 356.94,-410.96 405,-392 495.33,-356.37 600.76,-311.61 653.07,-289.18"/>
<polygon fill="#7a8389" stroke="#7a8389" points="654.32,-291.31 659.79,-286.3 652.39,-286.81 654.32,-291.31"/>
</g>
<!-- course__EOS423 -->
<g id="node11" class="node">
<title>course__EOS423</title>
<g id="a_node11"><a xlink:href="../../../courses/EOS423.html" xlink:title="EOS423: Advanced Sedimentology and Stratigraphy" target="_top">
<path fill="#d7e9ef" stroke="#1b2730" stroke-width="1.6" d="M843.5,-244C843.5,-244 813.5,-244 813.5,-244 807.5,-244 801.5,-238 801.5,-232 801.5,-232 801.5,-220 801.5,-220 801.5,-214 807.5,-208 813.5,-208 813.5,-208 843.5,-208 843.5,-208 849.5,-208 855.5,-214 855.5,-220 855.5,-220 855.5,-232 855.5,-232 855.5,-238 849.5,-244 843.5,-244"/>
<text text-anchor="middle" x="828.5" y="-223.5" font-family="Avenir Next" font-size="10.00" fill="#17232b">EOS423</text>
</a>
</g>
</g>
<!-- course__EOS325&#45;&gt;course__EOS423 -->
<g id="edge17" class="edge">
<title>course__EOS325&#45;&gt;course__EOS423</title>
<path fill="none" stroke="#5d6972" stroke-width="1.2" d="M599.11,-240.76C659.51,-236.86 746.69,-231.22 793.95,-228.17"/>
<polygon fill="#5d6972" stroke="#5d6972" stroke-width="1.2" points="794.36,-230.6 801.19,-227.7 794.04,-225.71 794.36,-230.6"/>
</g>
<!-- course__EOS460 -->
<g id="node13" class="node">
<title>course__EOS460</title>
<g id="a_node13"><a xlink:href="../../../courses/EOS460.html" xlink:title="EOS460: Earth System Science" target="_top">
<path fill="#d7e9ef" stroke="#1b2730" stroke-width="1.6" d="M843.5,-132C843.5,-132 813.5,-132 813.5,-132 807.5,-132 801.5,-126 801.5,-120 801.5,-120 801.5,-108 801.5,-108 801.5,-102 807.5,-96 813.5,-96 813.5,-96 843.5,-96 843.5,-96 849.5,-96 855.5,-102 855.5,-108 855.5,-108 855.5,-120 855.5,-120 855.5,-126 849.5,-132 843.5,-132"/>
<text text-anchor="middle" x="828.5" y="-111.5" font-family="Avenir Next" font-size="10.00" fill="#17232b">EOS460</text>
</a>
</g>
</g>
<!-- course__EOS325&#45;&gt;course__EOS460 -->
<g id="edge22" class="edge">
<title>course__EOS325&#45;&gt;course__EOS460</title>
<path fill="none" stroke="#5d6972" stroke-width="1.2" d="M574.07,-226.92C632.83,-200.74 740.5,-152.76 794.62,-128.65"/>
<polygon fill="#5d6972" stroke="#5d6972" stroke-width="1.2" points="795.86,-130.78 801.26,-125.69 793.87,-126.3 795.86,-130.78"/>
</g>
<!-- course__EOS325&#45;&gt;choice_EOS340_1 -->
<g id="edge14" class="edge">
<title>course__EOS325&#45;&gt;choice_EOS340_1</title>
<path fill="none" stroke="#7a8389" d="M565.47,-263.03C591.23,-277.56 627.32,-297.91 653.28,-312.55"/>
<polygon fill="#7a8389" stroke="#7a8389" points="652.35,-314.84 659.65,-316.14 654.76,-310.57 652.35,-314.84"/>
</g>
<!-- course__EOS325&#45;&gt;choice_EOS431_0_0 -->
<g id="edge18" class="edge">
<title>course__EOS325&#45;&gt;choice_EOS431_0_0</title>
<path fill="none" stroke="#7a8389" d="M599.06,-257.9C617.68,-261.56 637.17,-265.39 652.97,-268.5"/>
<polygon fill="#7a8389" stroke="#7a8389" points="652.61,-270.93 659.95,-269.87 653.55,-266.12 652.61,-270.93"/>
</g>
<!-- choice_EOS325_0_0&#45;&gt;course__EOS325 -->
<g id="edge10" class="edge">
<title>choice_EOS325_0_0&#45;&gt;course__EOS325</title>
<path fill="none" stroke="#5d6972" stroke-width="1.2" d="M402.16,-345.93C429.03,-324.96 473.37,-290.36 502.51,-267.63"/>
<polygon fill="#5d6972" stroke="#5d6972" stroke-width="1.2" points="504.11,-269.48 508.12,-263.24 501.09,-265.62 504.11,-269.48"/>
</g>
<!-- choice_EOS325_0_2_0&#45;&gt;course__EOS325 -->
<g id="edge12" class="edge">
<title>choice_EOS325_0_2_0&#45;&gt;course__EOS325</title>
<path fill="none" stroke="#5d6972" stroke-width="1.2" d="M405.22,-245C420.16,-245 439.69,-245 458.91,-245"/>
<polygon fill="#5d6972" stroke="#5d6972" stroke-width="1.2" points="458.97,-247.45 465.97,-245 458.97,-242.55 458.97,-247.45"/>
</g>
<!-- choice_EOS340_1&#45;&gt;course__EOS340 -->
<g id="edge16" class="edge">
<title>choice_EOS340_1&#45;&gt;course__EOS340</title>
<path fill="none" stroke="#5d6972" stroke-width="1.2" d="M705.95,-312.83C708.77,-309.65 711.55,-306.31 714,-303 746.12,-259.63 736.15,-235.46 775,-198 777.13,-195.94 779.45,-194 781.88,-192.16"/>
<polygon fill="#5d6972" stroke="#5d6972" stroke-width="1.2" points="783.38,-194.09 787.72,-188.07 780.58,-190.08 783.38,-194.09"/>
</g>
<!-- choice_EOS431_0_0&#45;&gt;course__EOS431 -->
<g id="edge20" class="edge">
<title>choice_EOS431_0_0&#45;&gt;course__EOS431</title>
<path fill="none" stroke="#5d6972" stroke-width="1.2" d="M694.68,-256.81C707.73,-222.25 738.56,-145.22 775,-86 784.18,-71.08 796.25,-55.68 806.5,-43.52"/>
<polygon fill="#5d6972" stroke="#5d6972" stroke-width="1.2" points="808.39,-45.09 811.07,-38.17 804.66,-41.91 808.39,-45.09"/>
</g>
</g>
</svg>
