<?xml version="1.0" encoding="UTF-8" standalone="no"?>
<!DOCTYPE svg PUBLIC "-//W3C//DTD SVG 1.1//EN"
 "http://www.w3.org/Graphics/SVG/1.1/DTD/svg11.dtd">
<!-- Generated by graphviz version 2.43.0 (0)
 -->
<!-- Title: EOS321 Pages: 1 -->
<svg width="659pt" height="413pt"
 viewBox="0.00 0.00 659.20 413.20" xmlns="http://www.w3.org/2000/svg" xmlns:xlink="http://www.w3.org/1999/xlink">
<g id="graph0" class="graph" transform="scale(1 1) rotate(0) translate(21.6 391.6)">
<title>EOS321</title>
<!-- course__CSC110 -->
<g id="node1" class="node">
<title>course__CSC110</title>
<g id="a_node1"><a xlink:href="../../../courses/CSC110.html" xlink:title="Collapsed in simplified view: CSC110: Fundamentals of Programming I | CSC111: Fundamentals of Programming with Engineering Applications" target="_top">
<path fill="#e7ddec" stroke="#1b2730" stroke-width="1.6" d="M337.5,-314C337.5,-314 272.5,-314 272.5,-314 266.5,-314 260.5,-308 260.5,-302 260.5,-302 260.5,-290 260.5,-290 260.5,-284 266.5,-278 272.5,-278 272.5,-278 337.5,-278 337.5,-278 343.5,-278 349.5,-284 349.5,-290 349.5,-290 349.5,-302 349.5,-302 349.5,-308 343.5,-314 337.5,-314"/>
<text text-anchor="middle" x="305" y="-293.5" font-family="Avenir Next" font-size="10.00" fill="#17232b">Programming I</text>
</a>
</g>
</g>
<!-- choice_EOS321_0_1_0 -->
<g id="node9" class="node">
<title>choice_EOS321_0_1_0</title>
<path fill="#fff7ee" stroke="#b7793f" stroke-width="1.1" d="M463,-202C463,-202 433,-202 433,-202 427,-202 421,-196 421,-190 421,-190 421,-178 421,-178 421,-172 427,-166 433,-166 433,-166 463,-166 463,-166 469,-166 475,-172 475,-178 475,-178 475,-190 475,-190 475,-196 469,-202 463,-202"/>
<text text-anchor="middle" x="448" y="-181.8" font-family="Avenir Next" font-size="9.00">1 of</text>
</g>
<!-- course__CSC110&#45;&gt;choice_EOS321_0_1_0 -->
<g id="edge6" class="edge">
<title>course__CSC110&#45;&gt;choice_EOS321_0_1_0</title>
<path fill="none" stroke="#7a8389" d="M344.3,-277.91C349.72,-274.85 355.11,-271.51 360,-268 384.72,-250.23 409.35,-225.65 426.06,-207.66"/>
<polygon fill="#7a8389" stroke="#7a8389" points="428.05,-209.12 430.98,-202.31 424.44,-205.8 428.05,-209.12"/>
</g>
<!-- course__EOS210 -->
<g id="node2" class="node">
<title>course__EOS210</title>
<g id="a_node2"><a xlink:href="../../../courses/EOS210.html" xlink:title="Collapsed in simplified view: EOS210: Introductory Geophysics | PHYS210: Introductory Geophysics" target="_top">
<path fill="#d7e9ef" stroke="#1b2730" stroke-width="1.6" d="M341.5,-258C341.5,-258 268.5,-258 268.5,-258 262.5,-258 256.5,-252 256.5,-246 256.5,-246 256.5,-234 256.5,-234 256.5,-228 262.5,-222 268.5,-222 268.5,-222 341.5,-222 341.5,-222 347.5,-222 353.5,-228 353.5,-234 353.5,-234 353.5,-246 353.5,-246 353.5,-252 347.5,-258 341.5,-258"/>
<text text-anchor="middle" x="305" y="-237.5" font-family="Avenir Next" font-size="10.00" fill="#17232b">Intro geophysics</text>
</a>
</g>
</g>
<!-- course__EOS210&#45;&gt;choice_EOS321_0_1_0 -->
<g id="edge2" class="edge">
<title>course__EOS210&#45;&gt;choice_EOS321_0_1_0</title>
<path fill="none" stroke="#7a8389" d="M351.39,-221.97C371.75,-213.89 395.33,-204.52 413.98,-197.12"/>
<polygon fill="#7a8389" stroke="#7a8389" points="415.01,-199.34 420.61,-194.48 413.2,-194.79 415.01,-199.34"/>
</g>
<!-- course__EOS230 -->
<g id="node3" class="node">
<title>course__EOS230</title>
<g id="a_node3"><a xlink:href="../../../courses/EOS230.html" xlink:title="Equivalent or cross&#45;listed: EOS230: Introduction to Environmental Data Analysis | GEOG230: Introduction to Environmental Data Analysis" target="_top">
<path fill="#d7e9ef" stroke="#1b2730" stroke-width="1.6" d="M348,-202C348,-202 262,-202 262,-202 256,-202 250,-196 250,-190 250,-190 250,-178 250,-178 250,-172 256,-166 262,-166 262,-166 348,-166 348,-166 354,-166 360,-172 360,-178 360,-178 360,-190 360,-190 360,-196 354,-202 348,-202"/>
<text text-anchor="middle" x="305" y="-181.5" font-family="Avenir Next" font-size="10.00" fill="#17232b">EOS230 / GEOG230</text>
</a>
</g>
</g>
<!-- course__EOS230&#45;&gt;choice_EOS321_0_1_0 -->
<g id="edge3" class="edge">
<title>course__EOS230&#45;&gt;choice_EOS321_0_1_0</title>
<path fill="none" stroke="#7a8389" d="M360.11,-184C378.16,-184 397.73,-184 413.71,-184"/>
<polygon fill="#7a8389" stroke="#7a8389" points="413.79,-186.45 420.79,-184 413.79,-181.55 413.79,-186.45"/>
</g>
<!-- course__EOS261 -->
<g id="node4" class="node">
<title>course__EOS261</title>
<g id="a_node4"><a xlink:href="../../../courses/EOS261.html" xlink:title="EOS261: The Climate System" target="_top">
<path fill="#d7e9ef" stroke="#1b2730" stroke-width="1.6" d="M320,-146C320,-146 290,-146 290,-146 284,-146 278,-140 278,-134 278,-134 278,-122 278,-122 278,-116 284,-110 290,-110 290,-110 320,-110 320,-110 326,-110 332,-116 332,-122 332,-122 332,-134 332,-134 332,-140 326,-146 320,-146"/>
<text text-anchor="middle" x="305" y="-125.5" font-family="Avenir Next" font-size="10.00" fill="#17232b">EOS261</text>
</a>
</g>
</g>
<!-- course__EOS261&#45;&gt;choice_EOS321_0_1_0 -->
<g id="edge4" class="edge">
<title>course__EOS261&#45;&gt;choice_EOS321_0_1_0</title>
<path fill="none" stroke="#7a8389" d="M332.19,-138.4C355.34,-147.6 389.21,-161.05 414.16,-170.96"/>
<polygon fill="#7a8389" stroke="#7a8389" points="413.54,-173.35 420.95,-173.65 415.35,-168.79 413.54,-173.35"/>
</g>
<!-- course__EOS300 -->
<g id="node5" class="node">
<title>course__EOS300</title>
<g id="a_node5"><a xlink:href="../../../courses/EOS300.html" xlink:title="EOS300: Earth Science Field School" target="_top">
<path fill="#d7e9ef" stroke="#1b2730" stroke-width="1.6" d="M320,-370C320,-370 290,-370 290,-370 284,-370 278,-364 278,-358 278,-358 278,-346 278,-346 278,-340 284,-334 290,-334 290,-334 320,-334 320,-334 326,-334 332,-340 332,-346 332,-346 332,-358 332,-358 332,-364 326,-370 320,-370"/>
<text text-anchor="middle" x="305" y="-349.5" font-family="Avenir Next" font-size="10.00" fill="#17232b">EOS300</text>
</a>
</g>
</g>
<!-- course__EOS321 -->
<g id="node7" class="node">
<title>course__EOS321</title>
<g id="a_node7"><a xlink:href="../../../courses/EOS321.html" xlink:title="EOS321: Earth History" target="_top">
<path fill="#d7e9ef" stroke="#1f4f66" stroke-width="2" d="M604,-202C604,-202 548,-202 548,-202 542,-202 536,-196 536,-190 536,-190 536,-178 536,-178 536,-172 542,-166 548,-166 548,-166 604,-166 604,-166 610,-166 616,-172 616,-178 616,-178 616,-190 616,-190 616,-196 610,-202 604,-202"/>
<text text-anchor="middle" x="576" y="-187" font-family="Avenir Next" font-size="10.00" fill="#17232b">EOS321</text>
<text text-anchor="middle" x="576" y="-176" font-family="Avenir Next" font-size="10.00" fill="#17232b">Earth History</text>
</a>
</g>
</g>
<!-- course__EOS300&#45;&gt;course__EOS321 -->
<g id="edge7" class="edge">
<title>course__EOS300&#45;&gt;course__EOS321</title>
<path fill="none" stroke="#5d6972" stroke-width="1.2" d="M332.1,-339.12C341.05,-334.54 351.06,-329.21 360,-324 426.75,-285.09 501.76,-234.63 543.18,-206.14"/>
<polygon fill="#5d6972" stroke="#5d6972" stroke-width="1.2" points="544.67,-208.09 549.05,-202.1 541.89,-204.05 544.67,-208.09"/>
</g>
<!-- course__EOS314 -->
<g id="node6" class="node">
<title>course__EOS314</title>
<g id="a_node6"><a xlink:href="../../../courses/EOS314.html" xlink:title="EOS314: Descriptive Physical Oceanography" target="_top">
<path fill="#d7e9ef" stroke="#1b2730" stroke-width="1.6" d="M320,-90C320,-90 290,-90 290,-90 284,-90 278,-84 278,-78 278,-78 278,-66 278,-66 278,-60 284,-54 290,-54 290,-54 320,-54 320,-54 326,-54 332,-60 332,-66 332,-66 332,-78 332,-78 332,-84 326,-90 320,-90"/>
<text text-anchor="middle" x="305" y="-69.5" font-family="Avenir Next" font-size="10.00" fill="#17232b">EOS314</text>
</a>
</g>
</g>
<!-- course__EOS314&#45;&gt;choice_EOS321_0_1_0 -->
<g id="edge5" class="edge">
<title>course__EOS314&#45;&gt;choice_EOS321_0_1_0</title>
<path fill="none" stroke="#7a8389" d="M332.16,-83.66C341.31,-88.22 351.42,-93.84 360,-100 384.72,-117.77 409.35,-142.35 426.06,-160.34"/>
<polygon fill="#7a8389" stroke="#7a8389" points="424.44,-162.2 430.98,-165.69 428.05,-158.88 424.44,-162.2"/>
</g>
<!-- EOS321_notes -->
<g id="node8" class="node">
<title>EOS321_notes</title>
<polygon fill="#fff7ee" stroke="#b7793f" stroke-width="1.1" points="183,-46 0,-46 0,0 189,0 189,-40 183,-46"/>
<polyline fill="none" stroke="#b7793f" stroke-width="1.1" points="183,-46 183,-40 "/>
<polyline fill="none" stroke="#b7793f" stroke-width="1.1" points="189,-40 183,-40 "/>
<text text-anchor="start" x="13" y="-26.4" font-family="Avenir Next" font-size="12.00">Published notes</text>
<text text-anchor="start" x="13" y="-13.4" font-family="Avenir Next" font-size="12.00">or permission of the school</text>
</g>
<!-- EOS321_notes&#45;&gt;course__EOS321 -->
<!-- choice_EOS321_0_1_0&#45;&gt;course__EOS321 -->
<g id="edge8" class="edge">
<title>choice_EOS321_0_1_0&#45;&gt;course__EOS321</title>
<path fill="none" stroke="#5d6972" stroke-width="1.2" d="M475.11,-184C490.51,-184 510.45,-184 528.46,-184"/>
<polygon fill="#5d6972" stroke="#5d6972" stroke-width="1.2" points="528.51,-186.45 535.51,-184 528.51,-181.55 528.51,-186.45"/>
</g>
</g>
</svg>
