<?xml version="1.0" encoding="UTF-8" standalone="no"?>
<!DOCTYPE svg PUBLIC "-//W3C//DTD SVG 1.1//EN"
 "http://www.w3.org/Graphics/SVG/1.1/DTD/svg11.dtd">
<!-- Generated by graphviz version 2.43.0 (0)
 -->
<!-- Title: EOS335 Pages: 1 -->
<svg width="840pt" height="219pt"
 viewBox="0.00 0.00 840.20 219.20" xmlns="http://www.w3.org/2000/svg" xmlns:xlink="http://www.w3.org/1999/xlink">
<g id="graph0" class="graph" transform="scale(1 1) rotate(0) translate(21.6 197.6)">
<title>EOS335</title>
<!-- course__CHEM091 -->
<g id="node1" class="node">
<title>course__CHEM091</title>
<g id="a_node1"><a xlink:href="../../../courses/CHEM091.html" xlink:title="CHEM091: Introduction to Chemistry" target="_top">
<path fill="#ead9b8" stroke="#7e8d96" d="M75.5,-176C75.5,-176 38.5,-176 38.5,-176 32.5,-176 26.5,-170 26.5,-164 26.5,-164 26.5,-152 26.5,-152 26.5,-146 32.5,-140 38.5,-140 38.5,-140 75.5,-140 75.5,-140 81.5,-140 87.5,-146 87.5,-152 87.5,-152 87.5,-164 87.5,-164 87.5,-170 81.5,-176 75.5,-176"/>
<text text-anchor="middle" x="57" y="-155.8" font-family="Avenir Next" font-size="9.00" fill="#41515b">CHEM091</text>
</a>
</g>
</g>
<!-- course__CHEM102 -->
<g id="node4" class="node">
<title>course__CHEM102</title>
<g id="a_node4"><a xlink:href="../../../courses/CHEM102.html" xlink:title="CHEM102: Chemical Reactivity Fundamentals with Environmental Applications" target="_top">
<path fill="#ead9b8" stroke="#7e8d96" d="M224,-120C224,-120 187,-120 187,-120 181,-120 175,-114 175,-108 175,-108 175,-96 175,-96 175,-90 181,-84 187,-84 187,-84 224,-84 224,-84 230,-84 236,-90 236,-96 236,-96 236,-108 236,-108 236,-114 230,-120 224,-120"/>
<text text-anchor="middle" x="205.5" y="-99.8" font-family="Avenir Next" font-size="9.00" fill="#41515b">CHEM102</text>
</a>
</g>
</g>
<!-- course__CHEM091&#45;&gt;course__CHEM102 -->
<g id="edge1" class="edge">
<title>course__CHEM091&#45;&gt;course__CHEM102</title>
<path fill="none" stroke="#5d6972" stroke-width="1.2" d="M87.65,-146.67C110.88,-137.79 143.31,-125.39 168.12,-115.91"/>
<polygon fill="#5d6972" stroke="#5d6972" stroke-width="1.2" points="169.23,-118.1 174.9,-113.32 167.48,-113.53 169.23,-118.1"/>
</g>
<!-- course__CHEM101 -->
<g id="node2" class="node">
<title>course__CHEM101</title>
<g id="a_node2"><a xlink:href="../../../courses/CHEM101.html" xlink:title="Equivalent or cross&#45;listed: CHEM101: Fundamentals of Chemistry from Atoms to Materials | CHEM150: Engineering Chemistry" target="_top">
<path fill="#ead9b8" stroke="#7e8d96" d="M102,-120C102,-120 12,-120 12,-120 6,-120 0,-114 0,-108 0,-108 0,-96 0,-96 0,-90 6,-84 12,-84 12,-84 102,-84 102,-84 108,-84 114,-90 114,-96 114,-96 114,-108 114,-108 114,-114 108,-120 102,-120"/>
<text text-anchor="middle" x="57" y="-99.8" font-family="Avenir Next" font-size="9.00" fill="#41515b">CHEM101 / CHEM150</text>
</a>
</g>
</g>
<!-- course__CHEM101&#45;&gt;course__CHEM102 -->
<g id="edge2" class="edge">
<title>course__CHEM101&#45;&gt;course__CHEM102</title>
<path fill="none" stroke="#5d6972" stroke-width="1.2" d="M114.22,-102C132.14,-102 151.49,-102 167.66,-102"/>
<polygon fill="#5d6972" stroke="#5d6972" stroke-width="1.2" points="167.85,-104.45 174.85,-102 167.85,-99.55 167.85,-104.45"/>
</g>
<!-- course__MATH100 -->
<g id="node3" class="node">
<title>course__MATH100</title>
<g id="a_node3"><a xlink:href="../../../courses/MATH100.html" xlink:title="Equivalent or cross&#45;listed: MATH100: Calculus I | MATH102: Calculus for Students in the Social and Biological Sciences | MATH109: Introduction to Calculus" target="_top">
<path fill="#dfe3f4" stroke="#7e8d96" d="M100.5,-64C100.5,-64 13.5,-64 13.5,-64 7.5,-64 1.5,-58 1.5,-52 1.5,-52 1.5,-40 1.5,-40 1.5,-34 7.5,-28 13.5,-28 13.5,-28 100.5,-28 100.5,-28 106.5,-28 112.5,-34 112.5,-40 112.5,-40 112.5,-52 112.5,-52 112.5,-58 106.5,-64 100.5,-64"/>
<text text-anchor="middle" x="57" y="-48.8" font-family="Avenir Next" font-size="9.00" fill="#41515b">MATH100 / MATH102</text>
<text text-anchor="middle" x="57" y="-38.8" font-family="Avenir Next" font-size="9.00" fill="#41515b">MATH109</text>
</a>
</g>
</g>
<!-- course__MATH100&#45;&gt;course__CHEM102 -->
<g id="edge3" class="edge">
<title>course__MATH100&#45;&gt;course__CHEM102</title>
<path fill="none" stroke="#5d6972" stroke-width="1.2" d="M105.16,-64.03C125.57,-71.83 149.09,-80.82 168.12,-88.09"/>
<polygon fill="#5d6972" stroke="#5d6972" stroke-width="1.2" points="167.5,-90.48 174.92,-90.69 169.25,-85.9 167.5,-90.48"/>
</g>
<!-- course__EOS205 -->
<g id="node6" class="node">
<title>course__EOS205</title>
<g id="a_node6"><a xlink:href="../../../courses/EOS205.html" xlink:title="EOS205: Mineralogy" target="_top">
<path fill="#d7e9ef" stroke="#7e8d96" d="M339,-92C339,-92 309,-92 309,-92 303,-92 297,-86 297,-80 297,-80 297,-68 297,-68 297,-62 303,-56 309,-56 309,-56 339,-56 339,-56 345,-56 351,-62 351,-68 351,-68 351,-80 351,-80 351,-86 345,-92 339,-92"/>
<text text-anchor="middle" x="324" y="-71.8" font-family="Avenir Next" font-size="9.00" fill="#41515b">EOS205</text>
</a>
</g>
</g>
<!-- course__CHEM102&#45;&gt;course__EOS205 -->
<g id="edge5" class="edge">
<title>course__CHEM102&#45;&gt;course__EOS205</title>
<path fill="none" stroke="#5d6972" stroke-width="1.2" d="M236.2,-94.86C252.6,-90.92 273.01,-86.02 289.91,-81.95"/>
<polygon fill="#5d6972" stroke="#5d6972" stroke-width="1.2" points="290.69,-84.29 296.92,-80.27 289.55,-79.52 290.69,-84.29"/>
</g>
<!-- course__EOS120 -->
<g id="node5" class="node">
<title>course__EOS120</title>
<g id="a_node5"><a xlink:href="../../../courses/EOS120.html" xlink:title="EOS120: The Dynamic Earth" target="_top">
<path fill="#d7e9ef" stroke="#7e8d96" d="M220.5,-64C220.5,-64 190.5,-64 190.5,-64 184.5,-64 178.5,-58 178.5,-52 178.5,-52 178.5,-40 178.5,-40 178.5,-34 184.5,-28 190.5,-28 190.5,-28 220.5,-28 220.5,-28 226.5,-28 232.5,-34 232.5,-40 232.5,-40 232.5,-52 232.5,-52 232.5,-58 226.5,-64 220.5,-64"/>
<text text-anchor="middle" x="205.5" y="-43.8" font-family="Avenir Next" font-size="9.00" fill="#41515b">EOS120</text>
</a>
</g>
</g>
<!-- course__EOS120&#45;&gt;course__EOS205 -->
<g id="edge4" class="edge">
<title>course__EOS120&#45;&gt;course__EOS205</title>
<path fill="none" stroke="#5d6972" stroke-width="1.2" d="M232.64,-52.28C249.58,-56.35 271.79,-61.69 289.95,-66.06"/>
<polygon fill="#5d6972" stroke="#5d6972" stroke-width="1.2" points="289.56,-68.48 296.94,-67.74 290.71,-63.72 289.56,-68.48"/>
</g>
<!-- course__EOS240 -->
<g id="node7" class="node">
<title>course__EOS240</title>
<g id="a_node7"><a xlink:href="../../../courses/EOS240.html" xlink:title="EOS240: Geochemistry" target="_top">
<path fill="#d7e9ef" stroke="#1b2730" stroke-width="1.6" d="M454,-92C454,-92 424,-92 424,-92 418,-92 412,-86 412,-80 412,-80 412,-68 412,-68 412,-62 418,-56 424,-56 424,-56 454,-56 454,-56 460,-56 466,-62 466,-68 466,-68 466,-80 466,-80 466,-86 460,-92 454,-92"/>
<text text-anchor="middle" x="439" y="-71.5" font-family="Avenir Next" font-size="10.00" fill="#17232b">EOS240</text>
</a>
</g>
</g>
<!-- course__EOS205&#45;&gt;course__EOS240 -->
<g id="edge6" class="edge">
<title>course__EOS205&#45;&gt;course__EOS240</title>
<path fill="none" stroke="#5d6972" stroke-width="1.2" d="M351.21,-74C367.18,-74 387.74,-74 404.84,-74"/>
<polygon fill="#5d6972" stroke="#5d6972" stroke-width="1.2" points="404.93,-76.45 411.93,-74 404.93,-71.55 404.93,-76.45"/>
</g>
<!-- course__EOS335 -->
<g id="node8" class="node">
<title>course__EOS335</title>
<g id="a_node8"><a xlink:href="../../../courses/EOS335.html" xlink:title="EOS335: Isotopes in Natural Sciences" target="_top">
<path fill="#d7e9ef" stroke="#1f4f66" stroke-width="2" d="M670,-92C670,-92 539,-92 539,-92 533,-92 527,-86 527,-80 527,-80 527,-68 527,-68 527,-62 533,-56 539,-56 539,-56 670,-56 670,-56 676,-56 682,-62 682,-68 682,-68 682,-80 682,-80 682,-86 676,-92 670,-92"/>
<text text-anchor="middle" x="604.5" y="-77" font-family="Avenir Next" font-size="10.00" fill="#17232b">EOS335</text>
<text text-anchor="middle" x="604.5" y="-66" font-family="Avenir Next" font-size="10.00" fill="#17232b">Isotopes in Natural Sciences</text>
</a>
</g>
</g>
<!-- course__EOS240&#45;&gt;course__EOS335 -->
<g id="edge7" class="edge">
<title>course__EOS240&#45;&gt;course__EOS335</title>
<path fill="none" stroke="#5d6972" stroke-width="1.2" d="M466.27,-74C480.98,-74 500.23,-74 519.64,-74"/>
<polygon fill="#5d6972" stroke="#5d6972" stroke-width="1.2" points="519.79,-76.45 526.79,-74 519.79,-71.55 519.79,-76.45"/>
</g>
<!-- course__EOS403 -->
<g id="node9" class="node">
<title>course__EOS403</title>
<g id="a_node9"><a xlink:href="../../../courses/EOS403.html" xlink:title="EOS403: Global Biogeochemical Cycles" target="_top">
<path fill="#d7e9ef" stroke="#1b2730" stroke-width="1.6" d="M785,-148C785,-148 755,-148 755,-148 749,-148 743,-142 743,-136 743,-136 743,-124 743,-124 743,-118 749,-112 755,-112 755,-112 785,-112 785,-112 791,-112 797,-118 797,-124 797,-124 797,-136 797,-136 797,-142 791,-148 785,-148"/>
<text text-anchor="middle" x="770" y="-127.5" font-family="Avenir Next" font-size="10.00" fill="#17232b">EOS403</text>
</a>
</g>
</g>
<!-- course__EOS335&#45;&gt;course__EOS403 -->
<g id="edge8" class="edge">
<title>course__EOS335&#45;&gt;course__EOS403</title>
<path fill="none" stroke="#5d6972" stroke-width="1.2" d="M658.13,-92.03C683.68,-100.78 713.6,-111.02 735.91,-118.67"/>
<polygon fill="#5d6972" stroke="#5d6972" stroke-width="1.2" points="735.16,-121 742.57,-120.95 736.75,-116.36 735.16,-121"/>
</g>
<!-- course__EOS425 -->
<g id="node10" class="node">
<title>course__EOS425</title>
<g id="a_node10"><a xlink:href="../../../courses/EOS425.html" xlink:title="EOS425: Aqueous Chemistry in the Earth and Ocean" target="_top">
<path fill="#d7e9ef" stroke="#1b2730" stroke-width="1.6" d="M785,-92C785,-92 755,-92 755,-92 749,-92 743,-86 743,-80 743,-80 743,-68 743,-68 743,-62 749,-56 755,-56 755,-56 785,-56 785,-56 791,-56 797,-62 797,-68 797,-68 797,-80 797,-80 797,-86 791,-92 785,-92"/>
<text text-anchor="middle" x="770" y="-71.5" font-family="Avenir Next" font-size="10.00" fill="#17232b">EOS425</text>
</a>
</g>
</g>
<!-- course__EOS335&#45;&gt;course__EOS425 -->
<g id="edge9" class="edge">
<title>course__EOS335&#45;&gt;course__EOS425</title>
<path fill="none" stroke="#5d6972" stroke-width="1.2" d="M682.46,-74C701.11,-74 720.09,-74 735.51,-74"/>
<polygon fill="#5d6972" stroke="#5d6972" stroke-width="1.2" points="735.77,-76.45 742.77,-74 735.77,-71.55 735.77,-76.45"/>
</g>
<!-- course__EOS460 -->
<g id="node11" class="node">
<title>course__EOS460</title>
<g id="a_node11"><a xlink:href="../../../courses/EOS460.html" xlink:title="EOS460: Earth System Science" target="_top">
<path fill="#d7e9ef" stroke="#1b2730" stroke-width="1.6" d="M785,-36C785,-36 755,-36 755,-36 749,-36 743,-30 743,-24 743,-24 743,-12 743,-12 743,-6 749,0 755,0 755,0 785,0 785,0 791,0 797,-6 797,-12 797,-12 797,-24 797,-24 797,-30 791,-36 785,-36"/>
<text text-anchor="middle" x="770" y="-15.5" font-family="Avenir Next" font-size="10.00" fill="#17232b">EOS460</text>
</a>
</g>
</g>
<!-- course__EOS335&#45;&gt;course__EOS460 -->
<g id="edge10" class="edge">
<title>course__EOS335&#45;&gt;course__EOS460</title>
<path fill="none" stroke="#5d6972" stroke-width="1.2" d="M658.13,-55.97C683.68,-47.22 713.6,-36.98 735.91,-29.33"/>
<polygon fill="#5d6972" stroke="#5d6972" stroke-width="1.2" points="736.75,-31.64 742.57,-27.05 735.16,-27 736.75,-31.64"/>
</g>
</g>
</svg>
