<?xml version="1.0" encoding="UTF-8" standalone="no"?>
<!DOCTYPE svg PUBLIC "-//W3C//DTD SVG 1.1//EN"
 "http://www.w3.org/Graphics/SVG/1.1/DTD/svg11.dtd">
<!-- Generated by graphviz version 2.43.0 (0)
 -->
<!-- Title: EOS335 Pages: 1 -->
<svg width="711pt" height="191pt"
 viewBox="0.00 0.00 711.20 191.20" xmlns="http://www.w3.org/2000/svg" xmlns:xlink="http://www.w3.org/1999/xlink">
<g id="graph0" class="graph" transform="scale(1 1) rotate(0) translate(21.6 169.6)">
<title>EOS335</title>
<!-- course__EOS240 -->
<g id="node1" class="node">
<title>course__EOS240</title>
<g id="a_node1"><a xlink:href="../../../courses/EOS240.html" xlink:title="EOS240: Geochemistry" target="_top">
<path fill="#d7e9ef" stroke="#1b2730" stroke-width="1.6" d="M325,-117C325,-117 295,-117 295,-117 289,-117 283,-111 283,-105 283,-105 283,-93 283,-93 283,-87 289,-81 295,-81 295,-81 325,-81 325,-81 331,-81 337,-87 337,-93 337,-93 337,-105 337,-105 337,-111 331,-117 325,-117"/>
<text text-anchor="middle" x="310" y="-96.5" font-family="Avenir Next" font-size="10.00" fill="#17232b">EOS240</text>
</a>
</g>
</g>
<!-- course__EOS335 -->
<g id="node2" class="node">
<title>course__EOS335</title>
<g id="a_node2"><a xlink:href="../../../courses/EOS335.html" xlink:title="EOS335: Isotopes in Natural Sciences" target="_top">
<path fill="#d7e9ef" stroke="#1f4f66" stroke-width="2" d="M541,-92C541,-92 410,-92 410,-92 404,-92 398,-86 398,-80 398,-80 398,-68 398,-68 398,-62 404,-56 410,-56 410,-56 541,-56 541,-56 547,-56 553,-62 553,-68 553,-68 553,-80 553,-80 553,-86 547,-92 541,-92"/>
<text text-anchor="middle" x="475.5" y="-77" font-family="Avenir Next" font-size="10.00" fill="#17232b">EOS335</text>
<text text-anchor="middle" x="475.5" y="-66" font-family="Avenir Next" font-size="10.00" fill="#17232b">Isotopes in Natural Sciences</text>
</a>
</g>
</g>
<!-- course__EOS240&#45;&gt;course__EOS335 -->
<g id="edge2" class="edge">
<title>course__EOS240&#45;&gt;course__EOS335</title>
<path fill="none" stroke="#5d6972" stroke-width="1.2" d="M337.27,-94.98C351.98,-92.73 371.23,-89.79 390.64,-86.82"/>
<polygon fill="#5d6972" stroke="#5d6972" stroke-width="1.2" points="391.24,-89.21 397.79,-85.73 390.5,-84.37 391.24,-89.21"/>
</g>
<!-- course__EOS403 -->
<g id="node3" class="node">
<title>course__EOS403</title>
<g id="a_node3"><a xlink:href="../../../courses/EOS403.html" xlink:title="EOS403: Global Biogeochemical Cycles" target="_top">
<path fill="#d7e9ef" stroke="#1b2730" stroke-width="1.6" d="M656,-148C656,-148 626,-148 626,-148 620,-148 614,-142 614,-136 614,-136 614,-124 614,-124 614,-118 620,-112 626,-112 626,-112 656,-112 656,-112 662,-112 668,-118 668,-124 668,-124 668,-136 668,-136 668,-142 662,-148 656,-148"/>
<text text-anchor="middle" x="641" y="-127.5" font-family="Avenir Next" font-size="10.00" fill="#17232b">EOS403</text>
</a>
</g>
</g>
<!-- course__EOS335&#45;&gt;course__EOS403 -->
<g id="edge3" class="edge">
<title>course__EOS335&#45;&gt;course__EOS403</title>
<path fill="none" stroke="#5d6972" stroke-width="1.2" d="M529.13,-92.03C554.68,-100.78 584.6,-111.02 606.91,-118.67"/>
<polygon fill="#5d6972" stroke="#5d6972" stroke-width="1.2" points="606.16,-121 613.57,-120.95 607.75,-116.36 606.16,-121"/>
</g>
<!-- course__EOS425 -->
<g id="node4" class="node">
<title>course__EOS425</title>
<g id="a_node4"><a xlink:href="../../../courses/EOS425.html" xlink:title="EOS425: Aqueous Chemistry in the Earth and Ocean" target="_top">
<path fill="#d7e9ef" stroke="#1b2730" stroke-width="1.6" d="M656,-92C656,-92 626,-92 626,-92 620,-92 614,-86 614,-80 614,-80 614,-68 614,-68 614,-62 620,-56 626,-56 626,-56 656,-56 656,-56 662,-56 668,-62 668,-68 668,-68 668,-80 668,-80 668,-86 662,-92 656,-92"/>
<text text-anchor="middle" x="641" y="-71.5" font-family="Avenir Next" font-size="10.00" fill="#17232b">EOS425</text>
</a>
</g>
</g>
<!-- course__EOS335&#45;&gt;course__EOS425 -->
<g id="edge4" class="edge">
<title>course__EOS335&#45;&gt;course__EOS425</title>
<path fill="none" stroke="#5d6972" stroke-width="1.2" d="M553.46,-74C572.11,-74 591.09,-74 606.51,-74"/>
<polygon fill="#5d6972" stroke="#5d6972" stroke-width="1.2" points="606.77,-76.45 613.77,-74 606.77,-71.55 606.77,-76.45"/>
</g>
<!-- course__EOS460 -->
<g id="node5" class="node">
<title>course__EOS460</title>
<g id="a_node5"><a xlink:href="../../../courses/EOS460.html" xlink:title="EOS460: Earth System Science" target="_top">
<path fill="#d7e9ef" stroke="#1b2730" stroke-width="1.6" d="M656,-36C656,-36 626,-36 626,-36 620,-36 614,-30 614,-24 614,-24 614,-12 614,-12 614,-6 620,0 626,0 626,0 656,0 656,0 662,0 668,-6 668,-12 668,-12 668,-24 668,-24 668,-30 662,-36 656,-36"/>
<text text-anchor="middle" x="641" y="-15.5" font-family="Avenir Next" font-size="10.00" fill="#17232b">EOS460</text>
</a>
</g>
</g>
<!-- course__EOS335&#45;&gt;course__EOS460 -->
<g id="edge5" class="edge">
<title>course__EOS335&#45;&gt;course__EOS460</title>
<path fill="none" stroke="#5d6972" stroke-width="1.2" d="M529.13,-55.97C554.68,-47.22 584.6,-36.98 606.91,-29.33"/>
<polygon fill="#5d6972" stroke="#5d6972" stroke-width="1.2" points="607.75,-31.64 613.57,-27.05 606.16,-27 607.75,-31.64"/>
</g>
<!-- EOS335_notes -->
<g id="node6" class="node">
<title>EOS335_notes</title>
<polygon fill="#fff7ee" stroke="#b7793f" stroke-width="1.1" points="216,-73 0,-73 0,-27 222,-27 222,-67 216,-73"/>
<polyline fill="none" stroke="#b7793f" stroke-width="1.1" points="216,-73 216,-67 "/>
<polyline fill="none" stroke="#b7793f" stroke-width="1.1" points="222,-67 216,-67 "/>
<text text-anchor="start" x="13" y="-53.4" font-family="Avenir Next" font-size="12.00">Published notes</text>
<text text-anchor="start" x="13" y="-40.4" font-family="Avenir Next" font-size="12.00">or permission of the department</text>
</g>
<!-- EOS335_notes&#45;&gt;course__EOS335 -->
</g>
</svg>
