<?xml version="1.0" encoding="UTF-8" standalone="no"?>
<!DOCTYPE svg PUBLIC "-//W3C//DTD SVG 1.1//EN"
 "http://www.w3.org/Graphics/SVG/1.1/DTD/svg11.dtd">
<!-- Generated by graphviz version 2.43.0 (0)
 -->
<!-- Title: EOS335 Pages: 1 -->
<svg width="1123pt" height="272pt"
 viewBox="0.00 0.00 1123.20 272.20" xmlns="http://www.w3.org/2000/svg" xmlns:xlink="http://www.w3.org/1999/xlink">
<g id="graph0" class="graph" transform="scale(1 1) rotate(0) translate(21.6 250.6)">
<title>EOS335</title>
<!-- course__CHEM091 -->
<g id="node1" class="node">
<title>course__CHEM091</title>
<g id="a_node1"><a xlink:href="../../../courses/CHEM091.html" xlink:title="CHEM091: Introduction to Chemistry" target="_top">
<path fill="#ead9b8" stroke="#7e8d96" d="M358.5,-229C358.5,-229 321.5,-229 321.5,-229 315.5,-229 309.5,-223 309.5,-217 309.5,-217 309.5,-205 309.5,-205 309.5,-199 315.5,-193 321.5,-193 321.5,-193 358.5,-193 358.5,-193 364.5,-193 370.5,-199 370.5,-205 370.5,-205 370.5,-217 370.5,-217 370.5,-223 364.5,-229 358.5,-229"/>
<text text-anchor="middle" x="340" y="-208.8" font-family="Avenir Next" font-size="9.00" fill="#41515b">CHEM091</text>
</a>
</g>
</g>
<!-- course__CHEM102 -->
<g id="node4" class="node">
<title>course__CHEM102</title>
<g id="a_node4"><a xlink:href="../../../courses/CHEM102.html" xlink:title="CHEM102: Chemical Reactivity Fundamentals with Environmental Applications" target="_top">
<path fill="#ead9b8" stroke="#7e8d96" d="M507,-173C507,-173 470,-173 470,-173 464,-173 458,-167 458,-161 458,-161 458,-149 458,-149 458,-143 464,-137 470,-137 470,-137 507,-137 507,-137 513,-137 519,-143 519,-149 519,-149 519,-161 519,-161 519,-167 513,-173 507,-173"/>
<text text-anchor="middle" x="488.5" y="-152.8" font-family="Avenir Next" font-size="9.00" fill="#41515b">CHEM102</text>
</a>
</g>
</g>
<!-- course__CHEM091&#45;&gt;course__CHEM102 -->
<g id="edge2" class="edge">
<title>course__CHEM091&#45;&gt;course__CHEM102</title>
<path fill="none" stroke="#5d6972" stroke-width="1.2" d="M370.65,-199.67C393.88,-190.79 426.31,-178.39 451.12,-168.91"/>
<polygon fill="#5d6972" stroke="#5d6972" stroke-width="1.2" points="452.23,-171.1 457.9,-166.32 450.48,-166.53 452.23,-171.1"/>
</g>
<!-- course__CHEM101 -->
<g id="node2" class="node">
<title>course__CHEM101</title>
<g id="a_node2"><a xlink:href="../../../courses/CHEM101.html" xlink:title="Equivalent or cross&#45;listed: CHEM101: Fundamentals of Chemistry from Atoms to Materials | CHEM150: Engineering Chemistry" target="_top">
<path fill="#ead9b8" stroke="#7e8d96" d="M385,-173C385,-173 295,-173 295,-173 289,-173 283,-167 283,-161 283,-161 283,-149 283,-149 283,-143 289,-137 295,-137 295,-137 385,-137 385,-137 391,-137 397,-143 397,-149 397,-149 397,-161 397,-161 397,-167 391,-173 385,-173"/>
<text text-anchor="middle" x="340" y="-152.8" font-family="Avenir Next" font-size="9.00" fill="#41515b">CHEM101 / CHEM150</text>
</a>
</g>
</g>
<!-- course__CHEM101&#45;&gt;course__CHEM102 -->
<g id="edge3" class="edge">
<title>course__CHEM101&#45;&gt;course__CHEM102</title>
<path fill="none" stroke="#5d6972" stroke-width="1.2" d="M397.22,-155C415.14,-155 434.49,-155 450.66,-155"/>
<polygon fill="#5d6972" stroke="#5d6972" stroke-width="1.2" points="450.85,-157.45 457.85,-155 450.85,-152.55 450.85,-157.45"/>
</g>
<!-- course__MATH100 -->
<g id="node3" class="node">
<title>course__MATH100</title>
<g id="a_node3"><a xlink:href="../../../courses/MATH100.html" xlink:title="Equivalent or cross&#45;listed: MATH100: Calculus I | MATH102: Calculus for Students in the Social and Biological Sciences | MATH109: Introduction to Calculus" target="_top">
<path fill="#dfe3f4" stroke="#7e8d96" d="M383.5,-117C383.5,-117 296.5,-117 296.5,-117 290.5,-117 284.5,-111 284.5,-105 284.5,-105 284.5,-93 284.5,-93 284.5,-87 290.5,-81 296.5,-81 296.5,-81 383.5,-81 383.5,-81 389.5,-81 395.5,-87 395.5,-93 395.5,-93 395.5,-105 395.5,-105 395.5,-111 389.5,-117 383.5,-117"/>
<text text-anchor="middle" x="340" y="-101.8" font-family="Avenir Next" font-size="9.00" fill="#41515b">MATH100 / MATH102</text>
<text text-anchor="middle" x="340" y="-91.8" font-family="Avenir Next" font-size="9.00" fill="#41515b">MATH109</text>
</a>
</g>
</g>
<!-- course__MATH100&#45;&gt;course__CHEM102 -->
<g id="edge4" class="edge">
<title>course__MATH100&#45;&gt;course__CHEM102</title>
<path fill="none" stroke="#5d6972" stroke-width="1.2" d="M388.16,-117.03C408.57,-124.83 432.09,-133.82 451.12,-141.09"/>
<polygon fill="#5d6972" stroke="#5d6972" stroke-width="1.2" points="450.5,-143.48 457.92,-143.69 452.25,-138.9 450.5,-143.48"/>
</g>
<!-- course__EOS205 -->
<g id="node6" class="node">
<title>course__EOS205</title>
<g id="a_node6"><a xlink:href="../../../courses/EOS205.html" xlink:title="EOS205: Mineralogy" target="_top">
<path fill="#d7e9ef" stroke="#7e8d96" d="M622,-117C622,-117 592,-117 592,-117 586,-117 580,-111 580,-105 580,-105 580,-93 580,-93 580,-87 586,-81 592,-81 592,-81 622,-81 622,-81 628,-81 634,-87 634,-93 634,-93 634,-105 634,-105 634,-111 628,-117 622,-117"/>
<text text-anchor="middle" x="607" y="-96.8" font-family="Avenir Next" font-size="9.00" fill="#41515b">EOS205</text>
</a>
</g>
</g>
<!-- course__CHEM102&#45;&gt;course__EOS205 -->
<g id="edge6" class="edge">
<title>course__CHEM102&#45;&gt;course__EOS205</title>
<path fill="none" stroke="#5d6972" stroke-width="1.2" d="M519.2,-140.72C535.74,-132.77 556.37,-122.86 573.37,-114.69"/>
<polygon fill="#5d6972" stroke="#5d6972" stroke-width="1.2" points="574.68,-116.78 579.92,-111.53 572.55,-112.36 574.68,-116.78"/>
</g>
<!-- course__EOS120 -->
<g id="node5" class="node">
<title>course__EOS120</title>
<g id="a_node5"><a xlink:href="../../../courses/EOS120.html" xlink:title="EOS120: The Dynamic Earth" target="_top">
<path fill="#d7e9ef" stroke="#7e8d96" d="M503.5,-117C503.5,-117 473.5,-117 473.5,-117 467.5,-117 461.5,-111 461.5,-105 461.5,-105 461.5,-93 461.5,-93 461.5,-87 467.5,-81 473.5,-81 473.5,-81 503.5,-81 503.5,-81 509.5,-81 515.5,-87 515.5,-93 515.5,-93 515.5,-105 515.5,-105 515.5,-111 509.5,-117 503.5,-117"/>
<text text-anchor="middle" x="488.5" y="-96.8" font-family="Avenir Next" font-size="9.00" fill="#41515b">EOS120</text>
</a>
</g>
</g>
<!-- course__EOS120&#45;&gt;course__EOS205 -->
<g id="edge5" class="edge">
<title>course__EOS120&#45;&gt;course__EOS205</title>
<path fill="none" stroke="#5d6972" stroke-width="1.2" d="M515.64,-99C532.43,-99 554.4,-99 572.46,-99"/>
<polygon fill="#5d6972" stroke="#5d6972" stroke-width="1.2" points="572.94,-101.45 579.94,-99 572.94,-96.55 572.94,-101.45"/>
</g>
<!-- course__EOS240 -->
<g id="node7" class="node">
<title>course__EOS240</title>
<g id="a_node7"><a xlink:href="../../../courses/EOS240.html" xlink:title="EOS240: Geochemistry" target="_top">
<path fill="#d7e9ef" stroke="#1b2730" stroke-width="1.6" d="M737,-117C737,-117 707,-117 707,-117 701,-117 695,-111 695,-105 695,-105 695,-93 695,-93 695,-87 701,-81 707,-81 707,-81 737,-81 737,-81 743,-81 749,-87 749,-93 749,-93 749,-105 749,-105 749,-111 743,-117 737,-117"/>
<text text-anchor="middle" x="722" y="-96.5" font-family="Avenir Next" font-size="10.00" fill="#17232b">EOS240</text>
</a>
</g>
</g>
<!-- course__EOS205&#45;&gt;course__EOS240 -->
<g id="edge7" class="edge">
<title>course__EOS205&#45;&gt;course__EOS240</title>
<path fill="none" stroke="#5d6972" stroke-width="1.2" d="M634.21,-99C650.18,-99 670.74,-99 687.84,-99"/>
<polygon fill="#5d6972" stroke="#5d6972" stroke-width="1.2" points="687.93,-101.45 694.93,-99 687.93,-96.55 687.93,-101.45"/>
</g>
<!-- course__EOS335 -->
<g id="node8" class="node">
<title>course__EOS335</title>
<g id="a_node8"><a xlink:href="../../../courses/EOS335.html" xlink:title="EOS335: Isotopes in Natural Sciences" target="_top">
<path fill="#d7e9ef" stroke="#1f4f66" stroke-width="2" d="M953,-92C953,-92 822,-92 822,-92 816,-92 810,-86 810,-80 810,-80 810,-68 810,-68 810,-62 816,-56 822,-56 822,-56 953,-56 953,-56 959,-56 965,-62 965,-68 965,-68 965,-80 965,-80 965,-86 959,-92 953,-92"/>
<text text-anchor="middle" x="887.5" y="-77" font-family="Avenir Next" font-size="10.00" fill="#17232b">EOS335</text>
<text text-anchor="middle" x="887.5" y="-66" font-family="Avenir Next" font-size="10.00" fill="#17232b">Isotopes in Natural Sciences</text>
</a>
</g>
</g>
<!-- course__EOS240&#45;&gt;course__EOS335 -->
<g id="edge8" class="edge">
<title>course__EOS240&#45;&gt;course__EOS335</title>
<path fill="none" stroke="#5d6972" stroke-width="1.2" d="M749.27,-94.98C763.98,-92.73 783.23,-89.79 802.64,-86.82"/>
<polygon fill="#5d6972" stroke="#5d6972" stroke-width="1.2" points="803.24,-89.21 809.79,-85.73 802.5,-84.37 803.24,-89.21"/>
</g>
<!-- course__EOS403 -->
<g id="node9" class="node">
<title>course__EOS403</title>
<g id="a_node9"><a xlink:href="../../../courses/EOS403.html" xlink:title="EOS403: Global Biogeochemical Cycles" target="_top">
<path fill="#d7e9ef" stroke="#1b2730" stroke-width="1.6" d="M1068,-148C1068,-148 1038,-148 1038,-148 1032,-148 1026,-142 1026,-136 1026,-136 1026,-124 1026,-124 1026,-118 1032,-112 1038,-112 1038,-112 1068,-112 1068,-112 1074,-112 1080,-118 1080,-124 1080,-124 1080,-136 1080,-136 1080,-142 1074,-148 1068,-148"/>
<text text-anchor="middle" x="1053" y="-127.5" font-family="Avenir Next" font-size="10.00" fill="#17232b">EOS403</text>
</a>
</g>
</g>
<!-- course__EOS335&#45;&gt;course__EOS403 -->
<g id="edge9" class="edge">
<title>course__EOS335&#45;&gt;course__EOS403</title>
<path fill="none" stroke="#5d6972" stroke-width="1.2" d="M941.13,-92.03C966.68,-100.78 996.6,-111.02 1018.91,-118.67"/>
<polygon fill="#5d6972" stroke="#5d6972" stroke-width="1.2" points="1018.16,-121 1025.57,-120.95 1019.75,-116.36 1018.16,-121"/>
</g>
<!-- course__EOS425 -->
<g id="node10" class="node">
<title>course__EOS425</title>
<g id="a_node10"><a xlink:href="../../../courses/EOS425.html" xlink:title="EOS425: Aqueous Chemistry in the Earth and Ocean" target="_top">
<path fill="#d7e9ef" stroke="#1b2730" stroke-width="1.6" d="M1068,-92C1068,-92 1038,-92 1038,-92 1032,-92 1026,-86 1026,-80 1026,-80 1026,-68 1026,-68 1026,-62 1032,-56 1038,-56 1038,-56 1068,-56 1068,-56 1074,-56 1080,-62 1080,-68 1080,-68 1080,-80 1080,-80 1080,-86 1074,-92 1068,-92"/>
<text text-anchor="middle" x="1053" y="-71.5" font-family="Avenir Next" font-size="10.00" fill="#17232b">EOS425</text>
</a>
</g>
</g>
<!-- course__EOS335&#45;&gt;course__EOS425 -->
<g id="edge10" class="edge">
<title>course__EOS335&#45;&gt;course__EOS425</title>
<path fill="none" stroke="#5d6972" stroke-width="1.2" d="M965.46,-74C984.11,-74 1003.09,-74 1018.51,-74"/>
<polygon fill="#5d6972" stroke="#5d6972" stroke-width="1.2" points="1018.77,-76.45 1025.77,-74 1018.77,-71.55 1018.77,-76.45"/>
</g>
<!-- course__EOS460 -->
<g id="node11" class="node">
<title>course__EOS460</title>
<g id="a_node11"><a xlink:href="../../../courses/EOS460.html" xlink:title="EOS460: Earth System Science" target="_top">
<path fill="#d7e9ef" stroke="#1b2730" stroke-width="1.6" d="M1068,-36C1068,-36 1038,-36 1038,-36 1032,-36 1026,-30 1026,-24 1026,-24 1026,-12 1026,-12 1026,-6 1032,0 1038,0 1038,0 1068,0 1068,0 1074,0 1080,-6 1080,-12 1080,-12 1080,-24 1080,-24 1080,-30 1074,-36 1068,-36"/>
<text text-anchor="middle" x="1053" y="-15.5" font-family="Avenir Next" font-size="10.00" fill="#17232b">EOS460</text>
</a>
</g>
</g>
<!-- course__EOS335&#45;&gt;course__EOS460 -->
<g id="edge11" class="edge">
<title>course__EOS335&#45;&gt;course__EOS460</title>
<path fill="none" stroke="#5d6972" stroke-width="1.2" d="M941.13,-55.97C966.68,-47.22 996.6,-36.98 1018.91,-29.33"/>
<polygon fill="#5d6972" stroke="#5d6972" stroke-width="1.2" points="1019.75,-31.64 1025.57,-27.05 1018.16,-27 1019.75,-31.64"/>
</g>
<!-- EOS335_notes -->
<g id="node12" class="node">
<title>EOS335_notes</title>
<polygon fill="#fff7ee" stroke="#b7793f" stroke-width="1.1" points="216,-73 0,-73 0,-27 222,-27 222,-67 216,-73"/>
<polyline fill="none" stroke="#b7793f" stroke-width="1.1" points="216,-73 216,-67 "/>
<polyline fill="none" stroke="#b7793f" stroke-width="1.1" points="222,-67 216,-67 "/>
<text text-anchor="start" x="13" y="-53.4" font-family="Avenir Next" font-size="12.00">Published notes</text>
<text text-anchor="start" x="13" y="-40.4" font-family="Avenir Next" font-size="12.00">or permission of the department</text>
</g>
<!-- EOS335_notes&#45;&gt;course__EOS335 -->
</g>
</svg>
