<?xml version="1.0" encoding="UTF-8" standalone="no"?>
<!DOCTYPE svg PUBLIC "-//W3C//DTD SVG 1.1//EN"
 "http://www.w3.org/Graphics/SVG/1.1/DTD/svg11.dtd">
<!-- Generated by graphviz version 2.43.0 (0)
 -->
<!-- Title: EOS325 Pages: 1 -->
<svg width="1175pt" height="626pt"
 viewBox="0.00 0.00 1175.20 626.20" xmlns="http://www.w3.org/2000/svg" xmlns:xlink="http://www.w3.org/1999/xlink">
<g id="graph0" class="graph" transform="scale(1 1) rotate(0) translate(21.6 604.6)">
<title>EOS325</title>
<!-- course__MATH200 -->
<g id="node1" class="node">
<title>course__MATH200</title>
<g id="a_node1"><a xlink:href="../../../courses/MATH200.html" xlink:title="Equivalent or cross&#45;listed: MATH200: Calculus III | MATH202: Intermediate Calculus for CSC and EOS" target="_top">
<path fill="#dfe3f4" stroke="#1b2730" stroke-width="1.6" d="M357,-450C357,-450 262,-450 262,-450 256,-450 250,-444 250,-438 250,-438 250,-426 250,-426 250,-420 256,-414 262,-414 262,-414 357,-414 357,-414 363,-414 369,-420 369,-426 369,-426 369,-438 369,-438 369,-444 363,-450 357,-450"/>
<text text-anchor="middle" x="309.5" y="-429.5" font-family="Avenir Next" font-size="10.00" fill="#17232b">MATH200 / MATH202</text>
</a>
</g>
</g>
<!-- course__MATH204 -->
<g id="node8" class="node">
<title>course__MATH204</title>
<g id="a_node8"><a xlink:href="../../../courses/MATH204.html" xlink:title="MATH204: Calculus IV" target="_top">
<path fill="#dfe3f4" stroke="#1b2730" stroke-width="1.6" d="M504.5,-496C504.5,-496 465.5,-496 465.5,-496 459.5,-496 453.5,-490 453.5,-484 453.5,-484 453.5,-472 453.5,-472 453.5,-466 459.5,-460 465.5,-460 465.5,-460 504.5,-460 504.5,-460 510.5,-460 516.5,-466 516.5,-472 516.5,-472 516.5,-484 516.5,-484 516.5,-490 510.5,-496 504.5,-496"/>
<text text-anchor="middle" x="485" y="-475.5" font-family="Avenir Next" font-size="10.00" fill="#17232b">MATH204</text>
</a>
</g>
</g>
<!-- course__MATH200&#45;&gt;course__MATH204 -->
<g id="edge24" class="edge">
<title>course__MATH200&#45;&gt;course__MATH204</title>
<path fill="none" stroke="#5d6972" stroke-width="1.2" d="M369.24,-447.57C394.61,-454.3 423.56,-461.98 446.04,-467.93"/>
<polygon fill="#5d6972" stroke="#5d6972" stroke-width="1.2" points="445.7,-470.38 453.09,-469.81 446.96,-465.64 445.7,-470.38"/>
</g>
<!-- choice_EOS325_0_0 -->
<g id="node15" class="node">
<title>choice_EOS325_0_0</title>
<path fill="#fff7ee" stroke="#b7793f" stroke-width="1.1" d="M643,-398C643,-398 613,-398 613,-398 607,-398 601,-392 601,-386 601,-386 601,-374 601,-374 601,-368 607,-362 613,-362 613,-362 643,-362 643,-362 649,-362 655,-368 655,-374 655,-374 655,-386 655,-386 655,-392 649,-398 643,-398"/>
<text text-anchor="middle" x="628" y="-377.8" font-family="Avenir Next" font-size="9.00">1 of</text>
</g>
<!-- course__MATH200&#45;&gt;choice_EOS325_0_0 -->
<g id="edge4" class="edge">
<title>course__MATH200&#45;&gt;choice_EOS325_0_0</title>
<path fill="none" stroke="#7a8389" d="M369.29,-422.34C435.37,-411.49 540.34,-394.24 593.62,-385.48"/>
<polygon fill="#7a8389" stroke="#7a8389" points="594.28,-387.86 600.79,-384.31 593.48,-383.02 594.28,-387.86"/>
</g>
<!-- course__PHYS102B -->
<g id="node2" class="node">
<title>course__PHYS102B</title>
<g id="a_node2"><a xlink:href="../../../courses/PHYS102B.html" xlink:title="Collapsed in simplified view: PHYS102B: General Physics II | PHYS111: Introductory Physics II | PHYS130: Physics II" target="_top">
<path fill="#efd8cf" stroke="#1b2730" stroke-width="1.6" d="M328.5,-188C328.5,-188 290.5,-188 290.5,-188 284.5,-188 278.5,-182 278.5,-176 278.5,-176 278.5,-164 278.5,-164 278.5,-158 284.5,-152 290.5,-152 290.5,-152 328.5,-152 328.5,-152 334.5,-152 340.5,-158 340.5,-164 340.5,-164 340.5,-176 340.5,-176 340.5,-182 334.5,-188 328.5,-188"/>
<text text-anchor="middle" x="309.5" y="-167.5" font-family="Avenir Next" font-size="10.00" fill="#17232b">Physics II</text>
</a>
</g>
</g>
<!-- course__EOS261 -->
<g id="node6" class="node">
<title>course__EOS261</title>
<g id="a_node6"><a xlink:href="../../../courses/EOS261.html" xlink:title="EOS261: The Climate System" target="_top">
<path fill="#d7e9ef" stroke="#1b2730" stroke-width="1.6" d="M500,-188C500,-188 470,-188 470,-188 464,-188 458,-182 458,-176 458,-176 458,-164 458,-164 458,-158 464,-152 470,-152 470,-152 500,-152 500,-152 506,-152 512,-158 512,-164 512,-164 512,-176 512,-176 512,-182 506,-188 500,-188"/>
<text text-anchor="middle" x="485" y="-167.5" font-family="Avenir Next" font-size="10.00" fill="#17232b">EOS261</text>
</a>
</g>
</g>
<!-- course__PHYS102B&#45;&gt;course__EOS261 -->
<g id="edge2" class="edge">
<title>course__PHYS102B&#45;&gt;course__EOS261</title>
<path fill="none" stroke="#5d6972" stroke-width="1.2" d="M340.72,-170C371.37,-170 418.7,-170 450.48,-170"/>
<polygon fill="#5d6972" stroke="#5d6972" stroke-width="1.2" points="450.81,-172.45 457.81,-170 450.81,-167.55 450.81,-172.45"/>
</g>
<!-- course__EOS314 -->
<g id="node7" class="node">
<title>course__EOS314</title>
<g id="a_node7"><a xlink:href="../../../courses/EOS314.html" xlink:title="EOS314: Descriptive Physical Oceanography" target="_top">
<path fill="#d7e9ef" stroke="#1b2730" stroke-width="1.6" d="M500,-132C500,-132 470,-132 470,-132 464,-132 458,-126 458,-120 458,-120 458,-108 458,-108 458,-102 464,-96 470,-96 470,-96 500,-96 500,-96 506,-96 512,-102 512,-108 512,-108 512,-120 512,-120 512,-126 506,-132 500,-132"/>
<text text-anchor="middle" x="485" y="-111.5" font-family="Avenir Next" font-size="10.00" fill="#17232b">EOS314</text>
</a>
</g>
</g>
<!-- course__PHYS102B&#45;&gt;course__EOS314 -->
<g id="edge3" class="edge">
<title>course__PHYS102B&#45;&gt;course__EOS314</title>
<path fill="none" stroke="#5d6972" stroke-width="1.2" d="M340.72,-160.25C371.5,-150.31 419.1,-134.95 450.88,-124.69"/>
<polygon fill="#5d6972" stroke="#5d6972" stroke-width="1.2" points="451.9,-126.94 457.81,-122.45 450.39,-122.27 451.9,-126.94"/>
</g>
<!-- course__EOS325 -->
<g id="node9" class="node">
<title>course__EOS325</title>
<g id="a_node9"><a xlink:href="../../../courses/EOS325.html" xlink:title="EOS325: Earth System Modelling" target="_top">
<path fill="#d7e9ef" stroke="#1f4f66" stroke-width="2" d="M837,-309C837,-309 728,-309 728,-309 722,-309 716,-303 716,-297 716,-297 716,-285 716,-285 716,-279 722,-273 728,-273 728,-273 837,-273 837,-273 843,-273 849,-279 849,-285 849,-285 849,-297 849,-297 849,-303 843,-309 837,-309"/>
<text text-anchor="middle" x="782.5" y="-294" font-family="Avenir Next" font-size="10.00" fill="#17232b">EOS325</text>
<text text-anchor="middle" x="782.5" y="-283" font-family="Avenir Next" font-size="10.00" fill="#17232b">Earth System Modelling</text>
</a>
</g>
</g>
<!-- course__PHYS102B&#45;&gt;course__EOS325 -->
<g id="edge12" class="edge">
<title>course__PHYS102B&#45;&gt;course__EOS325</title>
<path fill="none" stroke="#5d6972" stroke-width="1.2" d="M328.37,-151.97C350.15,-131.39 389.14,-98.92 430,-86 476.61,-71.26 494.11,-69.15 540,-86 640.25,-122.81 727.37,-221.74 763.6,-267.36"/>
<polygon fill="#5d6972" stroke="#5d6972" stroke-width="1.2" points="761.71,-268.92 767.96,-272.91 765.56,-265.9 761.71,-268.92"/>
</g>
<!-- course__EOS340 -->
<g id="node10" class="node">
<title>course__EOS340</title>
<g id="a_node10"><a xlink:href="../../../courses/EOS340.html" xlink:title="Equivalent or cross&#45;listed: EOS340: Atmospheric Physics | PHYS340: Atmospheric Physics" target="_top">
<path fill="#d7e9ef" stroke="#1b2730" stroke-width="1.6" d="M1120,-487C1120,-487 1037,-487 1037,-487 1031,-487 1025,-481 1025,-475 1025,-475 1025,-463 1025,-463 1025,-457 1031,-451 1037,-451 1037,-451 1120,-451 1120,-451 1126,-451 1132,-457 1132,-463 1132,-463 1132,-475 1132,-475 1132,-481 1126,-487 1120,-487"/>
<text text-anchor="middle" x="1078.5" y="-466.5" font-family="Avenir Next" font-size="10.00" fill="#17232b">EOS340 / PHYS340</text>
</a>
</g>
</g>
<!-- course__PHYS102B&#45;&gt;course__EOS340 -->
<g id="edge14" class="edge">
<title>course__PHYS102B&#45;&gt;course__EOS340</title>
<path fill="none" stroke="#5d6972" stroke-width="1.2" d="M316.57,-188.11C330.41,-226.65 367.97,-317.22 430,-366 502.26,-422.82 535.08,-429 627,-429 627,-429 627,-429 783.5,-429 865.3,-429 958.74,-444.39 1017.91,-456.08"/>
<polygon fill="#5d6972" stroke="#5d6972" stroke-width="1.2" points="1017.6,-458.52 1024.95,-457.48 1018.56,-453.71 1017.6,-458.52"/>
</g>
<!-- course__EOS431 -->
<g id="node12" class="node">
<title>course__EOS431</title>
<g id="a_node12"><a xlink:href="../../../courses/EOS431.html" xlink:title="Equivalent or cross&#45;listed: EOS431: Physical Oceanography | PHYS441: Physical Oceanography" target="_top">
<path fill="#d7e9ef" stroke="#1b2730" stroke-width="1.6" d="M1120,-560C1120,-560 1037,-560 1037,-560 1031,-560 1025,-554 1025,-548 1025,-548 1025,-536 1025,-536 1025,-530 1031,-524 1037,-524 1037,-524 1120,-524 1120,-524 1126,-524 1132,-530 1132,-536 1132,-536 1132,-548 1132,-548 1132,-554 1126,-560 1120,-560"/>
<text text-anchor="middle" x="1078.5" y="-539.5" font-family="Avenir Next" font-size="10.00" fill="#17232b">EOS431 / PHYS441</text>
</a>
</g>
</g>
<!-- course__PHYS102B&#45;&gt;course__EOS431 -->
<g id="edge22" class="edge">
<title>course__PHYS102B&#45;&gt;course__EOS431</title>
<path fill="none" stroke="#5d6972" stroke-width="1.2" d="M314.82,-188.09C330.14,-250.84 383.35,-457.88 430,-506 495.44,-573.49 532.99,-583 627,-583 627,-583 627,-583 783.5,-583 865.34,-583 958.77,-567.22 1017.92,-555.24"/>
<polygon fill="#5d6972" stroke="#5d6972" stroke-width="1.2" points="1018.6,-557.61 1024.96,-553.8 1017.61,-552.81 1018.6,-557.61"/>
</g>
<!-- course__CSC110 -->
<g id="node3" class="node">
<title>course__CSC110</title>
<g id="a_node3"><a xlink:href="../../../courses/CSC110.html" xlink:title="Collapsed in simplified view: CSC110: Fundamentals of Programming I | CSC111: Fundamentals of Programming with Engineering Applications" target="_top">
<path fill="#e7ddec" stroke="#1b2730" stroke-width="1.6" d="M517.5,-356C517.5,-356 452.5,-356 452.5,-356 446.5,-356 440.5,-350 440.5,-344 440.5,-344 440.5,-332 440.5,-332 440.5,-326 446.5,-320 452.5,-320 452.5,-320 517.5,-320 517.5,-320 523.5,-320 529.5,-326 529.5,-332 529.5,-332 529.5,-344 529.5,-344 529.5,-350 523.5,-356 517.5,-356"/>
<text text-anchor="middle" x="485" y="-335.5" font-family="Avenir Next" font-size="10.00" fill="#17232b">Programming I</text>
</a>
</g>
</g>
<!-- choice_EOS325_0_2_0 -->
<g id="node16" class="node">
<title>choice_EOS325_0_2_0</title>
<path fill="#fff7ee" stroke="#b7793f" stroke-width="1.1" d="M643,-272C643,-272 613,-272 613,-272 607,-272 601,-266 601,-260 601,-260 601,-248 601,-248 601,-242 607,-236 613,-236 613,-236 643,-236 643,-236 649,-236 655,-242 655,-248 655,-248 655,-260 655,-260 655,-266 649,-272 643,-272"/>
<text text-anchor="middle" x="628" y="-251.8" font-family="Avenir Next" font-size="9.00">1 of</text>
</g>
<!-- course__CSC110&#45;&gt;choice_EOS325_0_2_0 -->
<g id="edge10" class="edge">
<title>course__CSC110&#45;&gt;choice_EOS325_0_2_0</title>
<path fill="none" stroke="#7a8389" d="M521.98,-319.94C528.05,-316.72 534.24,-313.34 540,-310 558.39,-299.35 578.36,-286.58 594.52,-275.93"/>
<polygon fill="#7a8389" stroke="#7a8389" points="596.26,-277.72 600.75,-271.81 593.56,-273.63 596.26,-277.72"/>
</g>
<!-- course__EOS210 -->
<g id="node4" class="node">
<title>course__EOS210</title>
<g id="a_node4"><a xlink:href="../../../courses/EOS210.html" xlink:title="Collapsed in simplified view: EOS210: Introductory Geophysics | PHYS210: Introductory Geophysics" target="_top">
<path fill="#d7e9ef" stroke="#1b2730" stroke-width="1.6" d="M521.5,-300C521.5,-300 448.5,-300 448.5,-300 442.5,-300 436.5,-294 436.5,-288 436.5,-288 436.5,-276 436.5,-276 436.5,-270 442.5,-264 448.5,-264 448.5,-264 521.5,-264 521.5,-264 527.5,-264 533.5,-270 533.5,-276 533.5,-276 533.5,-288 533.5,-288 533.5,-294 527.5,-300 521.5,-300"/>
<text text-anchor="middle" x="485" y="-279.5" font-family="Avenir Next" font-size="10.00" fill="#17232b">Intro geophysics</text>
</a>
</g>
</g>
<!-- course__EOS210&#45;&gt;choice_EOS325_0_2_0 -->
<g id="edge6" class="edge">
<title>course__EOS210&#45;&gt;choice_EOS325_0_2_0</title>
<path fill="none" stroke="#7a8389" d="M533.74,-272.52C553.48,-268.6 575.9,-264.15 593.81,-260.59"/>
<polygon fill="#7a8389" stroke="#7a8389" points="594.3,-262.99 600.69,-259.23 593.34,-258.19 594.3,-262.99"/>
</g>
<!-- course__EOS230 -->
<g id="node5" class="node">
<title>course__EOS230</title>
<g id="a_node5"><a xlink:href="../../../courses/EOS230.html" xlink:title="Equivalent or cross&#45;listed: EOS230: Introduction to Environmental Data Analysis | GEOG230: Introduction to Environmental Data Analysis" target="_top">
<path fill="#d7e9ef" stroke="#1b2730" stroke-width="1.6" d="M528,-244C528,-244 442,-244 442,-244 436,-244 430,-238 430,-232 430,-232 430,-220 430,-220 430,-214 436,-208 442,-208 442,-208 528,-208 528,-208 534,-208 540,-214 540,-220 540,-220 540,-232 540,-232 540,-238 534,-244 528,-244"/>
<text text-anchor="middle" x="485" y="-223.5" font-family="Avenir Next" font-size="10.00" fill="#17232b">EOS230 / GEOG230</text>
</a>
</g>
</g>
<!-- course__EOS230&#45;&gt;choice_EOS325_0_2_0 -->
<g id="edge7" class="edge">
<title>course__EOS230&#45;&gt;choice_EOS325_0_2_0</title>
<path fill="none" stroke="#7a8389" d="M540.11,-236.75C558.16,-240.33 577.73,-244.22 593.71,-247.39"/>
<polygon fill="#7a8389" stroke="#7a8389" points="593.45,-249.83 600.79,-248.79 594.4,-245.03 593.45,-249.83"/>
</g>
<!-- course__EOS261&#45;&gt;choice_EOS325_0_2_0 -->
<g id="edge8" class="edge">
<title>course__EOS261&#45;&gt;choice_EOS325_0_2_0</title>
<path fill="none" stroke="#7a8389" d="M512.09,-182.9C521.03,-187.49 531.05,-192.81 540,-198 558.39,-208.65 578.36,-221.42 594.52,-232.07"/>
<polygon fill="#7a8389" stroke="#7a8389" points="593.56,-234.37 600.75,-236.19 596.26,-230.28 593.56,-234.37"/>
</g>
<!-- course__EOS314&#45;&gt;choice_EOS325_0_2_0 -->
<g id="edge9" class="edge">
<title>course__EOS314&#45;&gt;choice_EOS325_0_2_0</title>
<path fill="none" stroke="#7a8389" d="M512.13,-124.72C521.47,-129.26 531.72,-135.11 540,-142 570.4,-167.31 596.9,-204.96 612.43,-229.49"/>
<polygon fill="#7a8389" stroke="#7a8389" points="610.54,-231.1 616.33,-235.74 614.7,-228.5 610.54,-231.1"/>
</g>
<!-- course__MATH204&#45;&gt;choice_EOS325_0_0 -->
<g id="edge5" class="edge">
<title>course__MATH204&#45;&gt;choice_EOS325_0_0</title>
<path fill="none" stroke="#7a8389" d="M512.19,-459.8C535.64,-443.5 570.08,-419.56 595.12,-402.16"/>
<polygon fill="#7a8389" stroke="#7a8389" points="596.6,-404.11 600.95,-398.11 593.8,-400.09 596.6,-404.11"/>
</g>
<!-- choice_EOS340_1 -->
<g id="node17" class="node">
<title>choice_EOS340_1</title>
<path fill="#fff7ee" stroke="#b7793f" stroke-width="1.1" d="M952,-496C952,-496 922,-496 922,-496 916,-496 910,-490 910,-484 910,-484 910,-472 910,-472 910,-466 916,-460 922,-460 922,-460 952,-460 952,-460 958,-460 964,-466 964,-472 964,-472 964,-484 964,-484 964,-490 958,-496 952,-496"/>
<text text-anchor="middle" x="937" y="-475.8" font-family="Avenir Next" font-size="9.00">1 of</text>
</g>
<!-- course__MATH204&#45;&gt;choice_EOS340_1 -->
<g id="edge16" class="edge">
<title>course__MATH204&#45;&gt;choice_EOS340_1</title>
<path fill="none" stroke="#7a8389" d="M516.58,-478C597.8,-478 818.5,-478 902.73,-478"/>
<polygon fill="#7a8389" stroke="#7a8389" points="902.97,-480.45 909.97,-478 902.97,-475.55 902.97,-480.45"/>
</g>
<!-- choice_EOS431_0_0 -->
<g id="node18" class="node">
<title>choice_EOS431_0_0</title>
<path fill="#fff7ee" stroke="#b7793f" stroke-width="1.1" d="M952,-552C952,-552 922,-552 922,-552 916,-552 910,-546 910,-540 910,-540 910,-528 910,-528 910,-522 916,-516 922,-516 922,-516 952,-516 952,-516 958,-516 964,-522 964,-528 964,-528 964,-540 964,-540 964,-546 958,-552 952,-552"/>
<text text-anchor="middle" x="937" y="-531.8" font-family="Avenir Next" font-size="9.00">1 of</text>
</g>
<!-- course__MATH204&#45;&gt;choice_EOS431_0_0 -->
<g id="edge20" class="edge">
<title>course__MATH204&#45;&gt;choice_EOS431_0_0</title>
<path fill="none" stroke="#7a8389" d="M516.73,-482.44C539.88,-485.75 572.41,-490.3 601,-494 711.52,-508.29 842.81,-523.43 902.94,-530.27"/>
<polygon fill="#7a8389" stroke="#7a8389" points="902.68,-532.7 909.92,-531.06 903.24,-527.84 902.68,-532.7"/>
</g>
<!-- course__EOS423 -->
<g id="node11" class="node">
<title>course__EOS423</title>
<g id="a_node11"><a xlink:href="../../../courses/EOS423.html" xlink:title="EOS423: Advanced Sedimentology and Stratigraphy" target="_top">
<path fill="#d7e9ef" stroke="#1b2730" stroke-width="1.6" d="M1093.5,-341C1093.5,-341 1063.5,-341 1063.5,-341 1057.5,-341 1051.5,-335 1051.5,-329 1051.5,-329 1051.5,-317 1051.5,-317 1051.5,-311 1057.5,-305 1063.5,-305 1063.5,-305 1093.5,-305 1093.5,-305 1099.5,-305 1105.5,-311 1105.5,-317 1105.5,-317 1105.5,-329 1105.5,-329 1105.5,-335 1099.5,-341 1093.5,-341"/>
<text text-anchor="middle" x="1078.5" y="-320.5" font-family="Avenir Next" font-size="10.00" fill="#17232b">EOS423</text>
</a>
</g>
</g>
<!-- course__EOS325&#45;&gt;course__EOS423 -->
<g id="edge18" class="edge">
<title>course__EOS325&#45;&gt;course__EOS423</title>
<path fill="none" stroke="#5d6972" stroke-width="1.2" d="M849.11,-298.14C909.51,-304.72 996.69,-314.2 1043.95,-319.35"/>
<polygon fill="#5d6972" stroke="#5d6972" stroke-width="1.2" points="1043.96,-321.81 1051.19,-320.14 1044.49,-316.94 1043.96,-321.81"/>
</g>
<!-- course__EOS460 -->
<g id="node13" class="node">
<title>course__EOS460</title>
<g id="a_node13"><a xlink:href="../../../courses/EOS460.html" xlink:title="EOS460: Earth System Science" target="_top">
<path fill="#d7e9ef" stroke="#1b2730" stroke-width="1.6" d="M1093.5,-285C1093.5,-285 1063.5,-285 1063.5,-285 1057.5,-285 1051.5,-279 1051.5,-273 1051.5,-273 1051.5,-261 1051.5,-261 1051.5,-255 1057.5,-249 1063.5,-249 1063.5,-249 1093.5,-249 1093.5,-249 1099.5,-249 1105.5,-255 1105.5,-261 1105.5,-261 1105.5,-273 1105.5,-273 1105.5,-279 1099.5,-285 1093.5,-285"/>
<text text-anchor="middle" x="1078.5" y="-264.5" font-family="Avenir Next" font-size="10.00" fill="#17232b">EOS460</text>
</a>
</g>
</g>
<!-- course__EOS325&#45;&gt;course__EOS460 -->
<g id="edge23" class="edge">
<title>course__EOS325&#45;&gt;course__EOS460</title>
<path fill="none" stroke="#5d6972" stroke-width="1.2" d="M849.11,-285.64C909.51,-280.71 996.69,-273.6 1043.95,-269.74"/>
<polygon fill="#5d6972" stroke="#5d6972" stroke-width="1.2" points="1044.41,-272.16 1051.19,-269.15 1044.01,-267.28 1044.41,-272.16"/>
</g>
<!-- course__EOS325&#45;&gt;choice_EOS340_1 -->
<g id="edge15" class="edge">
<title>course__EOS325&#45;&gt;choice_EOS340_1</title>
<path fill="none" stroke="#7a8389" d="M798.4,-309.27C826.15,-343.29 885.7,-416.33 916.57,-454.17"/>
<polygon fill="#7a8389" stroke="#7a8389" points="914.94,-456.05 921.26,-459.93 918.74,-452.96 914.94,-456.05"/>
</g>
<!-- course__EOS325&#45;&gt;choice_EOS431_0_0 -->
<g id="edge19" class="edge">
<title>course__EOS325&#45;&gt;choice_EOS431_0_0</title>
<path fill="none" stroke="#7a8389" d="M792.44,-309.09C811.6,-347.14 859.04,-437.57 910,-506 911.07,-507.44 912.21,-508.89 913.39,-510.34"/>
<polygon fill="#7a8389" stroke="#7a8389" points="911.66,-512.08 918.07,-515.81 915.39,-508.9 911.66,-512.08"/>
</g>
<!-- EOS325_notes -->
<g id="node14" class="node">
<title>EOS325_notes</title>
<polygon fill="#fff7ee" stroke="#b7793f" stroke-width="1.1" points="183,-46 0,-46 0,0 189,0 189,-40 183,-46"/>
<polyline fill="none" stroke="#b7793f" stroke-width="1.1" points="183,-46 183,-40 "/>
<polyline fill="none" stroke="#b7793f" stroke-width="1.1" points="189,-40 183,-40 "/>
<text text-anchor="start" x="13" y="-26.4" font-family="Avenir Next" font-size="12.00">Published notes</text>
<text text-anchor="start" x="13" y="-13.4" font-family="Avenir Next" font-size="12.00">or permission of the school</text>
</g>
<!-- EOS325_notes&#45;&gt;course__EOS325 -->
<!-- choice_EOS325_0_0&#45;&gt;course__EOS325 -->
<g id="edge11" class="edge">
<title>choice_EOS325_0_0&#45;&gt;course__EOS325</title>
<path fill="none" stroke="#5d6972" stroke-width="1.2" d="M655.22,-364.7C679.84,-350.33 716.92,-328.69 744.54,-312.57"/>
<polygon fill="#5d6972" stroke="#5d6972" stroke-width="1.2" points="745.83,-314.66 750.64,-309.01 743.36,-310.42 745.83,-314.66"/>
</g>
<!-- choice_EOS325_0_2_0&#45;&gt;course__EOS325 -->
<g id="edge13" class="edge">
<title>choice_EOS325_0_2_0&#45;&gt;course__EOS325</title>
<path fill="none" stroke="#5d6972" stroke-width="1.2" d="M655.22,-260.36C670.22,-264 689.86,-268.77 709.16,-273.45"/>
<polygon fill="#5d6972" stroke="#5d6972" stroke-width="1.2" points="708.59,-275.83 715.97,-275.1 709.74,-271.07 708.59,-275.83"/>
</g>
<!-- choice_EOS340_1&#45;&gt;course__EOS340 -->
<g id="edge17" class="edge">
<title>choice_EOS340_1&#45;&gt;course__EOS340</title>
<path fill="none" stroke="#5d6972" stroke-width="1.2" d="M964.24,-476.31C979.29,-475.34 998.84,-474.07 1017.45,-472.87"/>
<polygon fill="#5d6972" stroke="#5d6972" stroke-width="1.2" points="1017.97,-475.3 1024.8,-472.4 1017.66,-470.41 1017.97,-475.3"/>
</g>
<!-- choice_EOS431_0_0&#45;&gt;course__EOS431 -->
<g id="edge21" class="edge">
<title>choice_EOS431_0_0&#45;&gt;course__EOS431</title>
<path fill="none" stroke="#5d6972" stroke-width="1.2" d="M964.24,-535.5C979.29,-536.37 998.84,-537.49 1017.45,-538.56"/>
<polygon fill="#5d6972" stroke="#5d6972" stroke-width="1.2" points="1017.67,-541.02 1024.8,-538.98 1017.95,-536.13 1017.67,-541.02"/>
</g>
</g>
</svg>
