<?xml version="1.0" encoding="UTF-8" standalone="no"?>
<!DOCTYPE svg PUBLIC "-//W3C//DTD SVG 1.1//EN"
 "http://www.w3.org/Graphics/SVG/1.1/DTD/svg11.dtd">
<!-- Generated by graphviz version 2.43.0 (0)
 -->
<!-- Title: EOS300 Pages: 1 -->
<svg width="829pt" height="191pt"
 viewBox="0.00 0.00 829.20 191.20" xmlns="http://www.w3.org/2000/svg" xmlns:xlink="http://www.w3.org/1999/xlink">
<g id="graph0" class="graph" transform="scale(1 1) rotate(0) translate(21.6 169.6)">
<title>EOS300</title>
<!-- course__CHEM091 -->
<g id="node1" class="node">
<title>course__CHEM091</title>
<g id="a_node1"><a xlink:href="../../../courses/CHEM091.html" xlink:title="CHEM091: Introduction to Chemistry" target="_top">
<path fill="#ead9b8" stroke="#7e8d96" d="M75.5,-148C75.5,-148 38.5,-148 38.5,-148 32.5,-148 26.5,-142 26.5,-136 26.5,-136 26.5,-124 26.5,-124 26.5,-118 32.5,-112 38.5,-112 38.5,-112 75.5,-112 75.5,-112 81.5,-112 87.5,-118 87.5,-124 87.5,-124 87.5,-136 87.5,-136 87.5,-142 81.5,-148 75.5,-148"/>
<text text-anchor="middle" x="57" y="-127.8" font-family="Avenir Next" font-size="9.00" fill="#41515b">CHEM091</text>
</a>
</g>
</g>
<!-- course__CHEM102 -->
<g id="node4" class="node">
<title>course__CHEM102</title>
<g id="a_node4"><a xlink:href="../../../courses/CHEM102.html" xlink:title="CHEM102: Chemical Reactivity Fundamentals with Environmental Applications" target="_top">
<path fill="#ead9b8" stroke="#7e8d96" d="M224,-92C224,-92 187,-92 187,-92 181,-92 175,-86 175,-80 175,-80 175,-68 175,-68 175,-62 181,-56 187,-56 187,-56 224,-56 224,-56 230,-56 236,-62 236,-68 236,-68 236,-80 236,-80 236,-86 230,-92 224,-92"/>
<text text-anchor="middle" x="205.5" y="-71.8" font-family="Avenir Next" font-size="9.00" fill="#41515b">CHEM102</text>
</a>
</g>
</g>
<!-- course__CHEM091&#45;&gt;course__CHEM102 -->
<g id="edge1" class="edge">
<title>course__CHEM091&#45;&gt;course__CHEM102</title>
<path fill="none" stroke="#5d6972" stroke-width="1.2" d="M87.65,-118.67C110.88,-109.79 143.31,-97.39 168.12,-87.91"/>
<polygon fill="#5d6972" stroke="#5d6972" stroke-width="1.2" points="169.23,-90.1 174.9,-85.32 167.48,-85.53 169.23,-90.1"/>
</g>
<!-- course__CHEM101 -->
<g id="node2" class="node">
<title>course__CHEM101</title>
<g id="a_node2"><a xlink:href="../../../courses/CHEM101.html" xlink:title="Equivalent or cross&#45;listed: CHEM101: Fundamentals of Chemistry from Atoms to Materials | CHEM150: Engineering Chemistry" target="_top">
<path fill="#ead9b8" stroke="#7e8d96" d="M102,-92C102,-92 12,-92 12,-92 6,-92 0,-86 0,-80 0,-80 0,-68 0,-68 0,-62 6,-56 12,-56 12,-56 102,-56 102,-56 108,-56 114,-62 114,-68 114,-68 114,-80 114,-80 114,-86 108,-92 102,-92"/>
<text text-anchor="middle" x="57" y="-71.8" font-family="Avenir Next" font-size="9.00" fill="#41515b">CHEM101 / CHEM150</text>
</a>
</g>
</g>
<!-- course__CHEM101&#45;&gt;course__CHEM102 -->
<g id="edge2" class="edge">
<title>course__CHEM101&#45;&gt;course__CHEM102</title>
<path fill="none" stroke="#5d6972" stroke-width="1.2" d="M114.22,-74C132.14,-74 151.49,-74 167.66,-74"/>
<polygon fill="#5d6972" stroke="#5d6972" stroke-width="1.2" points="167.85,-76.45 174.85,-74 167.85,-71.55 167.85,-76.45"/>
</g>
<!-- course__MATH100 -->
<g id="node3" class="node">
<title>course__MATH100</title>
<g id="a_node3"><a xlink:href="../../../courses/MATH100.html" xlink:title="Equivalent or cross&#45;listed: MATH100: Calculus I | MATH102: Calculus for Students in the Social and Biological Sciences | MATH109: Introduction to Calculus" target="_top">
<path fill="#dfe3f4" stroke="#7e8d96" d="M100.5,-36C100.5,-36 13.5,-36 13.5,-36 7.5,-36 1.5,-30 1.5,-24 1.5,-24 1.5,-12 1.5,-12 1.5,-6 7.5,0 13.5,0 13.5,0 100.5,0 100.5,0 106.5,0 112.5,-6 112.5,-12 112.5,-12 112.5,-24 112.5,-24 112.5,-30 106.5,-36 100.5,-36"/>
<text text-anchor="middle" x="57" y="-20.8" font-family="Avenir Next" font-size="9.00" fill="#41515b">MATH100 / MATH102</text>
<text text-anchor="middle" x="57" y="-10.8" font-family="Avenir Next" font-size="9.00" fill="#41515b">MATH109</text>
</a>
</g>
</g>
<!-- course__MATH100&#45;&gt;course__CHEM102 -->
<g id="edge3" class="edge">
<title>course__MATH100&#45;&gt;course__CHEM102</title>
<path fill="none" stroke="#5d6972" stroke-width="1.2" d="M105.16,-36.03C125.57,-43.83 149.09,-52.82 168.12,-60.09"/>
<polygon fill="#5d6972" stroke="#5d6972" stroke-width="1.2" points="167.5,-62.48 174.92,-62.69 169.25,-57.9 167.5,-62.48"/>
</g>
<!-- course__EOS205 -->
<g id="node6" class="node">
<title>course__EOS205</title>
<g id="a_node6"><a xlink:href="../../../courses/EOS205.html" xlink:title="EOS205: Mineralogy" target="_top">
<path fill="#d7e9ef" stroke="#1b2730" stroke-width="1.6" d="M339,-92C339,-92 309,-92 309,-92 303,-92 297,-86 297,-80 297,-80 297,-68 297,-68 297,-62 303,-56 309,-56 309,-56 339,-56 339,-56 345,-56 351,-62 351,-68 351,-68 351,-80 351,-80 351,-86 345,-92 339,-92"/>
<text text-anchor="middle" x="324" y="-71.5" font-family="Avenir Next" font-size="10.00" fill="#17232b">EOS205</text>
</a>
</g>
</g>
<!-- course__CHEM102&#45;&gt;course__EOS205 -->
<g id="edge7" class="edge">
<title>course__CHEM102&#45;&gt;course__EOS205</title>
<path fill="none" stroke="#5d6972" stroke-width="1.2" d="M236.2,-74C252.6,-74 273.01,-74 289.91,-74"/>
<polygon fill="#5d6972" stroke="#5d6972" stroke-width="1.2" points="289.92,-76.45 296.92,-74 289.92,-71.55 289.92,-76.45"/>
</g>
<!-- course__EOS120 -->
<g id="node5" class="node">
<title>course__EOS120</title>
<g id="a_node5"><a xlink:href="../../../courses/EOS120.html" xlink:title="EOS120: The Dynamic Earth" target="_top">
<path fill="#d7e9ef" stroke="#7e8d96" d="M220.5,-36C220.5,-36 190.5,-36 190.5,-36 184.5,-36 178.5,-30 178.5,-24 178.5,-24 178.5,-12 178.5,-12 178.5,-6 184.5,0 190.5,0 190.5,0 220.5,0 220.5,0 226.5,0 232.5,-6 232.5,-12 232.5,-12 232.5,-24 232.5,-24 232.5,-30 226.5,-36 220.5,-36"/>
<text text-anchor="middle" x="205.5" y="-15.8" font-family="Avenir Next" font-size="9.00" fill="#41515b">EOS120</text>
</a>
</g>
</g>
<!-- course__EOS120&#45;&gt;course__EOS205 -->
<g id="edge6" class="edge">
<title>course__EOS120&#45;&gt;course__EOS205</title>
<path fill="none" stroke="#5d6972" stroke-width="1.2" d="M232.64,-30.57C249.73,-38.78 272.18,-49.57 290.43,-58.34"/>
<polygon fill="#5d6972" stroke="#5d6972" stroke-width="1.2" points="289.57,-60.65 296.94,-61.47 291.69,-56.23 289.57,-60.65"/>
</g>
<!-- course__EOS202 -->
<g id="node8" class="node">
<title>course__EOS202</title>
<g id="a_node8"><a xlink:href="../../../courses/EOS202.html" xlink:title="EOS202: Structural Geology" target="_top">
<path fill="#d7e9ef" stroke="#1b2730" stroke-width="1.6" d="M454,-36C454,-36 424,-36 424,-36 418,-36 412,-30 412,-24 412,-24 412,-12 412,-12 412,-6 418,0 424,0 424,0 454,0 454,0 460,0 466,-6 466,-12 466,-12 466,-24 466,-24 466,-30 460,-36 454,-36"/>
<text text-anchor="middle" x="439" y="-15.5" font-family="Avenir Next" font-size="10.00" fill="#17232b">EOS202</text>
</a>
</g>
</g>
<!-- course__EOS120&#45;&gt;course__EOS202 -->
<g id="edge5" class="edge">
<title>course__EOS120&#45;&gt;course__EOS202</title>
<path fill="none" stroke="#5d6972" stroke-width="1.2" d="M232.61,-18C274.92,-18 358.42,-18 404.87,-18"/>
<polygon fill="#5d6972" stroke="#5d6972" stroke-width="1.2" points="404.99,-20.45 411.99,-18 404.99,-15.55 404.99,-20.45"/>
</g>
<!-- course__EOS201 -->
<g id="node7" class="node">
<title>course__EOS201</title>
<g id="a_node7"><a xlink:href="../../../courses/EOS201.html" xlink:title="EOS201: Sedimentary Geology" target="_top">
<path fill="#d7e9ef" stroke="#1b2730" stroke-width="1.6" d="M454,-92C454,-92 424,-92 424,-92 418,-92 412,-86 412,-80 412,-80 412,-68 412,-68 412,-62 418,-56 424,-56 424,-56 454,-56 454,-56 460,-56 466,-62 466,-68 466,-68 466,-80 466,-80 466,-86 460,-92 454,-92"/>
<text text-anchor="middle" x="439" y="-71.5" font-family="Avenir Next" font-size="10.00" fill="#17232b">EOS201</text>
</a>
</g>
</g>
<!-- course__EOS205&#45;&gt;course__EOS201 -->
<g id="edge4" class="edge">
<title>course__EOS205&#45;&gt;course__EOS201</title>
<path fill="none" stroke="#5d6972" stroke-width="1.2" d="M351.21,-74C367.18,-74 387.74,-74 404.84,-74"/>
<polygon fill="#5d6972" stroke="#5d6972" stroke-width="1.2" points="404.93,-76.45 411.93,-74 404.93,-71.55 404.93,-76.45"/>
</g>
<!-- course__EOS300 -->
<g id="node9" class="node">
<title>course__EOS300</title>
<g id="a_node9"><a xlink:href="../../../courses/EOS300.html" xlink:title="EOS300: Earth Science Field School" target="_top">
<path fill="#d7e9ef" stroke="#1f4f66" stroke-width="2" d="M659,-64C659,-64 539,-64 539,-64 533,-64 527,-58 527,-52 527,-52 527,-40 527,-40 527,-34 533,-28 539,-28 539,-28 659,-28 659,-28 665,-28 671,-34 671,-40 671,-40 671,-52 671,-52 671,-58 665,-64 659,-64"/>
<text text-anchor="middle" x="599" y="-49" font-family="Avenir Next" font-size="10.00" fill="#17232b">EOS300</text>
<text text-anchor="middle" x="599" y="-38" font-family="Avenir Next" font-size="10.00" fill="#17232b">Earth Science Field School</text>
</a>
</g>
</g>
<!-- course__EOS201&#45;&gt;course__EOS300 -->
<g id="edge8" class="edge">
<title>course__EOS201&#45;&gt;course__EOS300</title>
<path fill="none" stroke="#5d6972" stroke-width="1.2" d="M466.09,-69.38C480.92,-66.75 500.36,-63.3 519.74,-59.87"/>
<polygon fill="#5d6972" stroke="#5d6972" stroke-width="1.2" points="520.4,-62.24 526.86,-58.61 519.54,-57.42 520.4,-62.24"/>
</g>
<!-- course__EOS202&#45;&gt;course__EOS300 -->
<g id="edge9" class="edge">
<title>course__EOS202&#45;&gt;course__EOS300</title>
<path fill="none" stroke="#5d6972" stroke-width="1.2" d="M466.09,-22.62C480.92,-25.25 500.36,-28.7 519.74,-32.13"/>
<polygon fill="#5d6972" stroke="#5d6972" stroke-width="1.2" points="519.54,-34.58 526.86,-33.39 520.4,-29.76 519.54,-34.58"/>
</g>
<!-- course__EOS321 -->
<g id="node10" class="node">
<title>course__EOS321</title>
<g id="a_node10"><a xlink:href="../../../courses/EOS321.html" xlink:title="EOS321: Earth History" target="_top">
<path fill="#d7e9ef" stroke="#1b2730" stroke-width="1.6" d="M774,-92C774,-92 744,-92 744,-92 738,-92 732,-86 732,-80 732,-80 732,-68 732,-68 732,-62 738,-56 744,-56 744,-56 774,-56 774,-56 780,-56 786,-62 786,-68 786,-68 786,-80 786,-80 786,-86 780,-92 774,-92"/>
<text text-anchor="middle" x="759" y="-71.5" font-family="Avenir Next" font-size="10.00" fill="#17232b">EOS321</text>
</a>
</g>
</g>
<!-- course__EOS300&#45;&gt;course__EOS321 -->
<g id="edge10" class="edge">
<title>course__EOS300&#45;&gt;course__EOS321</title>
<path fill="none" stroke="#5d6972" stroke-width="1.2" d="M671.14,-58.61C689.89,-61.93 709.24,-65.36 724.91,-68.14"/>
<polygon fill="#5d6972" stroke="#5d6972" stroke-width="1.2" points="724.51,-70.55 731.83,-69.36 725.36,-65.73 724.51,-70.55"/>
</g>
<!-- course__EOS400 -->
<g id="node11" class="node">
<title>course__EOS400</title>
<g id="a_node11"><a xlink:href="../../../courses/EOS400.html" xlink:title="EOS400: Advanced Field Geology" target="_top">
<path fill="#d7e9ef" stroke="#1b2730" stroke-width="1.6" d="M774,-36C774,-36 744,-36 744,-36 738,-36 732,-30 732,-24 732,-24 732,-12 732,-12 732,-6 738,0 744,0 744,0 774,0 774,0 780,0 786,-6 786,-12 786,-12 786,-24 786,-24 786,-30 780,-36 774,-36"/>
<text text-anchor="middle" x="759" y="-15.5" font-family="Avenir Next" font-size="10.00" fill="#17232b">EOS400</text>
</a>
</g>
</g>
<!-- course__EOS300&#45;&gt;course__EOS400 -->
<g id="edge11" class="edge">
<title>course__EOS300&#45;&gt;course__EOS400</title>
<path fill="none" stroke="#5d6972" stroke-width="1.2" d="M671.14,-33.39C689.89,-30.07 709.24,-26.64 724.91,-23.86"/>
<polygon fill="#5d6972" stroke="#5d6972" stroke-width="1.2" points="725.36,-26.27 731.83,-22.64 724.51,-21.45 725.36,-26.27"/>
</g>
</g>
</svg>
