<?xml version="1.0" encoding="UTF-8" standalone="no"?>
<!DOCTYPE svg PUBLIC "-//W3C//DTD SVG 1.1//EN"
 "http://www.w3.org/Graphics/SVG/1.1/DTD/svg11.dtd">
<!-- Generated by graphviz version 2.43.0 (0)
 -->
<!-- Title: EOS316 Pages: 1 -->
<svg width="749pt" height="247pt"
 viewBox="0.00 0.00 749.20 247.20" xmlns="http://www.w3.org/2000/svg" xmlns:xlink="http://www.w3.org/1999/xlink">
<g id="graph0" class="graph" transform="scale(1 1) rotate(0) translate(21.6 225.6)">
<title>EOS316</title>
<!-- course__EOS205 -->
<g id="node1" class="node">
<title>course__EOS205</title>
<g id="a_node1"><a xlink:href="../../../courses/EOS205.html" xlink:title="EOS205: Mineralogy" target="_top">
<path fill="#d7e9ef" stroke="#1b2730" stroke-width="1.6" d="M42,-148C42,-148 12,-148 12,-148 6,-148 0,-142 0,-136 0,-136 0,-124 0,-124 0,-118 6,-112 12,-112 12,-112 42,-112 42,-112 48,-112 54,-118 54,-124 54,-124 54,-136 54,-136 54,-142 48,-148 42,-148"/>
<text text-anchor="middle" x="27" y="-127.5" font-family="Avenir Next" font-size="10.00" fill="#17232b">EOS205</text>
</a>
</g>
</g>
<!-- course__EOS240 -->
<g id="node2" class="node">
<title>course__EOS240</title>
<g id="a_node2"><a xlink:href="../../../courses/EOS240.html" xlink:title="EOS240: Geochemistry" target="_top">
<path fill="#d7e9ef" stroke="#1b2730" stroke-width="1.6" d="M186.5,-201C186.5,-201 156.5,-201 156.5,-201 150.5,-201 144.5,-195 144.5,-189 144.5,-189 144.5,-177 144.5,-177 144.5,-171 150.5,-165 156.5,-165 156.5,-165 186.5,-165 186.5,-165 192.5,-165 198.5,-171 198.5,-177 198.5,-177 198.5,-189 198.5,-189 198.5,-195 192.5,-201 186.5,-201"/>
<text text-anchor="middle" x="171.5" y="-180.5" font-family="Avenir Next" font-size="10.00" fill="#17232b">EOS240</text>
</a>
</g>
</g>
<!-- course__EOS205&#45;&gt;course__EOS240 -->
<g id="edge1" class="edge">
<title>course__EOS205&#45;&gt;course__EOS240</title>
<path fill="none" stroke="#5d6972" stroke-width="1.2" d="M54.14,-139.72C77.59,-148.44 112.13,-161.29 137.48,-170.72"/>
<polygon fill="#5d6972" stroke="#5d6972" stroke-width="1.2" points="136.63,-173.02 144.05,-173.16 138.34,-168.42 136.63,-173.02"/>
</g>
<!-- course__EOS316 -->
<g id="node4" class="node">
<title>course__EOS316</title>
<g id="a_node4"><a xlink:href="../../../courses/EOS316.html" xlink:title="EOS316: Igneous and Metamorphic Geology" target="_top">
<path fill="#d7e9ef" stroke="#1f4f66" stroke-width="2" d="M579,-120C579,-120 416,-120 416,-120 410,-120 404,-114 404,-108 404,-108 404,-96 404,-96 404,-90 410,-84 416,-84 416,-84 579,-84 579,-84 585,-84 591,-90 591,-96 591,-96 591,-108 591,-108 591,-114 585,-120 579,-120"/>
<text text-anchor="middle" x="497.5" y="-105" font-family="Avenir Next" font-size="10.00" fill="#17232b">EOS316</text>
<text text-anchor="middle" x="497.5" y="-94" font-family="Avenir Next" font-size="10.00" fill="#17232b">Igneous and Metamorphic Geology</text>
</a>
</g>
</g>
<!-- course__EOS205&#45;&gt;course__EOS316 -->
<g id="edge4" class="edge">
<title>course__EOS205&#45;&gt;course__EOS316</title>
<path fill="none" stroke="#5d6972" stroke-width="1.2" d="M54.02,-118.08C70.98,-110.98 93.83,-102.66 115,-99 209.37,-82.69 318.83,-85.76 396.24,-91.52"/>
<polygon fill="#5d6972" stroke="#5d6972" stroke-width="1.2" points="396.46,-94 403.63,-92.09 396.84,-89.11 396.46,-94"/>
</g>
<!-- choice_EOS316_0_1 -->
<g id="node9" class="node">
<title>choice_EOS316_0_1</title>
<path fill="#fff7ee" stroke="#b7793f" stroke-width="1.1" d="M331,-145C331,-145 301,-145 301,-145 295,-145 289,-139 289,-133 289,-133 289,-121 289,-121 289,-115 295,-109 301,-109 301,-109 331,-109 331,-109 337,-109 343,-115 343,-121 343,-121 343,-133 343,-133 343,-139 337,-145 331,-145"/>
<text text-anchor="middle" x="316" y="-124.8" font-family="Avenir Next" font-size="9.00">1 of</text>
</g>
<!-- course__EOS240&#45;&gt;choice_EOS316_0_1 -->
<g id="edge2" class="edge">
<title>course__EOS240&#45;&gt;choice_EOS316_0_1</title>
<path fill="none" stroke="#7a8389" d="M198.64,-172.73C222.09,-163.51 256.63,-149.94 281.98,-139.98"/>
<polygon fill="#7a8389" stroke="#7a8389" points="282.93,-142.24 288.55,-137.4 281.14,-137.68 282.93,-142.24"/>
</g>
<!-- course__PHYS217 -->
<g id="node3" class="node">
<title>course__PHYS217</title>
<g id="a_node3"><a xlink:href="../../../courses/PHYS217.html" xlink:title="Equivalent or cross&#45;listed: PHYS217: Introductory Thermodynamics | PHYS317: Thermodynamics" target="_top">
<path fill="#efd8cf" stroke="#1b2730" stroke-width="1.6" d="M216,-145C216,-145 127,-145 127,-145 121,-145 115,-139 115,-133 115,-133 115,-121 115,-121 115,-115 121,-109 127,-109 127,-109 216,-109 216,-109 222,-109 228,-115 228,-121 228,-121 228,-133 228,-133 228,-139 222,-145 216,-145"/>
<text text-anchor="middle" x="171.5" y="-124.5" font-family="Avenir Next" font-size="10.00" fill="#17232b">PHYS217 / PHYS317</text>
</a>
</g>
</g>
<!-- course__PHYS217&#45;&gt;choice_EOS316_0_1 -->
<g id="edge3" class="edge">
<title>course__PHYS217&#45;&gt;choice_EOS316_0_1</title>
<path fill="none" stroke="#7a8389" d="M228,-127C246.16,-127 265.76,-127 281.75,-127"/>
<polygon fill="#7a8389" stroke="#7a8389" points="281.83,-129.45 288.83,-127 281.83,-124.55 281.83,-129.45"/>
</g>
<!-- course__EOS400 -->
<g id="node5" class="node">
<title>course__EOS400</title>
<g id="a_node5"><a xlink:href="../../../courses/EOS400.html" xlink:title="EOS400: Advanced Field Geology" target="_top">
<path fill="#d7e9ef" stroke="#1b2730" stroke-width="1.6" d="M694,-204C694,-204 664,-204 664,-204 658,-204 652,-198 652,-192 652,-192 652,-180 652,-180 652,-174 658,-168 664,-168 664,-168 694,-168 694,-168 700,-168 706,-174 706,-180 706,-180 706,-192 706,-192 706,-198 700,-204 694,-204"/>
<text text-anchor="middle" x="679" y="-183.5" font-family="Avenir Next" font-size="10.00" fill="#17232b">EOS400</text>
</a>
</g>
</g>
<!-- course__EOS316&#45;&gt;course__EOS400 -->
<g id="edge6" class="edge">
<title>course__EOS316&#45;&gt;course__EOS400</title>
<path fill="none" stroke="#5d6972" stroke-width="1.2" d="M537.01,-120.02C569.19,-135.08 614.58,-156.32 645.09,-170.6"/>
<polygon fill="#5d6972" stroke="#5d6972" stroke-width="1.2" points="644.36,-172.96 651.74,-173.71 646.44,-168.53 644.36,-172.96"/>
</g>
<!-- course__EOS408 -->
<g id="node6" class="node">
<title>course__EOS408</title>
<g id="a_node6"><a xlink:href="../../../courses/EOS408.html" xlink:title="EOS408: Marine Geology" target="_top">
<path fill="#d7e9ef" stroke="#1b2730" stroke-width="1.6" d="M694,-148C694,-148 664,-148 664,-148 658,-148 652,-142 652,-136 652,-136 652,-124 652,-124 652,-118 658,-112 664,-112 664,-112 694,-112 694,-112 700,-112 706,-118 706,-124 706,-124 706,-136 706,-136 706,-142 700,-148 694,-148"/>
<text text-anchor="middle" x="679" y="-127.5" font-family="Avenir Next" font-size="10.00" fill="#17232b">EOS408</text>
</a>
</g>
</g>
<!-- course__EOS316&#45;&gt;course__EOS408 -->
<g id="edge7" class="edge">
<title>course__EOS316&#45;&gt;course__EOS408</title>
<path fill="none" stroke="#5d6972" stroke-width="1.2" d="M591.14,-116.45C610.3,-119.44 629.27,-122.4 644.58,-124.79"/>
<polygon fill="#5d6972" stroke="#5d6972" stroke-width="1.2" points="644.49,-127.25 651.79,-125.91 645.25,-122.41 644.49,-127.25"/>
</g>
<!-- course__EOS416 -->
<g id="node7" class="node">
<title>course__EOS416</title>
<g id="a_node7"><a xlink:href="../../../courses/EOS416.html" xlink:title="EOS416: High Temperature Petrology" target="_top">
<path fill="#d7e9ef" stroke="#1b2730" stroke-width="1.6" d="M694,-92C694,-92 664,-92 664,-92 658,-92 652,-86 652,-80 652,-80 652,-68 652,-68 652,-62 658,-56 664,-56 664,-56 694,-56 694,-56 700,-56 706,-62 706,-68 706,-68 706,-80 706,-80 706,-86 700,-92 694,-92"/>
<text text-anchor="middle" x="679" y="-71.5" font-family="Avenir Next" font-size="10.00" fill="#17232b">EOS416</text>
</a>
</g>
</g>
<!-- course__EOS316&#45;&gt;course__EOS416 -->
<g id="edge8" class="edge">
<title>course__EOS316&#45;&gt;course__EOS416</title>
<path fill="none" stroke="#5d6972" stroke-width="1.2" d="M591.14,-87.55C610.3,-84.56 629.27,-81.6 644.58,-79.21"/>
<polygon fill="#5d6972" stroke="#5d6972" stroke-width="1.2" points="645.25,-81.59 651.79,-78.09 644.49,-76.75 645.25,-81.59"/>
</g>
<!-- course__EOS420 -->
<g id="node8" class="node">
<title>course__EOS420</title>
<g id="a_node8"><a xlink:href="../../../courses/EOS420.html" xlink:title="EOS420: Resource Geology" target="_top">
<path fill="#d7e9ef" stroke="#1b2730" stroke-width="1.6" d="M694,-36C694,-36 664,-36 664,-36 658,-36 652,-30 652,-24 652,-24 652,-12 652,-12 652,-6 658,0 664,0 664,0 694,0 694,0 700,0 706,-6 706,-12 706,-12 706,-24 706,-24 706,-30 700,-36 694,-36"/>
<text text-anchor="middle" x="679" y="-15.5" font-family="Avenir Next" font-size="10.00" fill="#17232b">EOS420</text>
</a>
</g>
</g>
<!-- course__EOS316&#45;&gt;course__EOS420 -->
<g id="edge9" class="edge">
<title>course__EOS316&#45;&gt;course__EOS420</title>
<path fill="none" stroke="#5d6972" stroke-width="1.2" d="M537.01,-83.98C569.19,-68.92 614.58,-47.68 645.09,-33.4"/>
<polygon fill="#5d6972" stroke="#5d6972" stroke-width="1.2" points="646.44,-35.47 651.74,-30.29 644.36,-31.04 646.44,-35.47"/>
</g>
<!-- choice_EOS316_0_1&#45;&gt;course__EOS316 -->
<g id="edge5" class="edge">
<title>choice_EOS316_0_1&#45;&gt;course__EOS316</title>
<path fill="none" stroke="#5d6972" stroke-width="1.2" d="M343.1,-123.36C357.71,-121.33 376.96,-118.65 396.87,-115.88"/>
<polygon fill="#5d6972" stroke="#5d6972" stroke-width="1.2" points="397.34,-118.28 403.93,-114.89 396.66,-113.43 397.34,-118.28"/>
</g>
</g>
</svg>
