<?xml version="1.0" encoding="UTF-8" standalone="no"?>
<!DOCTYPE svg PUBLIC "-//W3C//DTD SVG 1.1//EN"
 "http://www.w3.org/Graphics/SVG/1.1/DTD/svg11.dtd">
<!-- Generated by graphviz version 2.43.0 (0)
 -->
<!-- Title: EOS340 Pages: 1 -->
<svg width="998pt" height="320pt"
 viewBox="0.00 0.00 998.20 320.28" xmlns="http://www.w3.org/2000/svg" xmlns:xlink="http://www.w3.org/1999/xlink">
<g id="graph0" class="graph" transform="scale(1 1) rotate(0) translate(21.6 298.68)">
<title>EOS340</title>
<!-- course__PHYS102A -->
<g id="node1" class="node">
<title>course__PHYS102A</title>
<g id="a_node1"><a xlink:href="../../../courses/PHYS102A.html" xlink:title="Collapsed in simplified view: PHYS102A: General Physics I | PHYS110: Introductory Physics I | PHYS120: Physics I" target="_top">
<path fill="#efd8cf" stroke="#1b2730" stroke-width="1.6" d="M47,-151.08C47,-151.08 12,-151.08 12,-151.08 6,-151.08 0,-145.08 0,-139.08 0,-139.08 0,-127.08 0,-127.08 0,-121.08 6,-115.08 12,-115.08 12,-115.08 47,-115.08 47,-115.08 53,-115.08 59,-121.08 59,-127.08 59,-127.08 59,-139.08 59,-139.08 59,-145.08 53,-151.08 47,-151.08"/>
<text text-anchor="middle" x="29.5" y="-130.58" font-family="Avenir Next" font-size="10.00" fill="#17232b">Physics I</text>
</a>
</g>
</g>
<!-- course__PHYS102B -->
<g id="node3" class="node">
<title>course__PHYS102B</title>
<g id="a_node3"><a xlink:href="../../../courses/PHYS102B.html" xlink:title="Collapsed in simplified view: PHYS102B: General Physics II | PHYS111: Introductory Physics II | PHYS130: Physics II" target="_top">
<path fill="#efd8cf" stroke="#1b2730" stroke-width="1.6" d="M170.5,-151.08C170.5,-151.08 132.5,-151.08 132.5,-151.08 126.5,-151.08 120.5,-145.08 120.5,-139.08 120.5,-139.08 120.5,-127.08 120.5,-127.08 120.5,-121.08 126.5,-115.08 132.5,-115.08 132.5,-115.08 170.5,-115.08 170.5,-115.08 176.5,-115.08 182.5,-121.08 182.5,-127.08 182.5,-127.08 182.5,-139.08 182.5,-139.08 182.5,-145.08 176.5,-151.08 170.5,-151.08"/>
<text text-anchor="middle" x="151.5" y="-130.58" font-family="Avenir Next" font-size="10.00" fill="#17232b">Physics II</text>
</a>
</g>
</g>
<!-- course__PHYS102A&#45;&gt;course__PHYS102B -->
<g id="edge14" class="edge">
<title>course__PHYS102A&#45;&gt;course__PHYS102B</title>
<path fill="none" stroke="#5d6972" stroke-width="1.2" d="M59.24,-133.08C75.38,-133.08 95.71,-133.08 113.07,-133.08"/>
<polygon fill="#5d6972" stroke="#5d6972" stroke-width="1.2" points="113.32,-135.53 120.32,-133.08 113.32,-130.63 113.32,-135.53"/>
</g>
<!-- course__MATH204 -->
<g id="node2" class="node">
<title>course__MATH204</title>
<g id="a_node2"><a xlink:href="../../../courses/MATH204.html" xlink:title="MATH204: Calculus IV" target="_top">
<path fill="#dfe3f4" stroke="#1b2730" stroke-width="1.6" d="M171,-85.08C171,-85.08 132,-85.08 132,-85.08 126,-85.08 120,-79.08 120,-73.08 120,-73.08 120,-61.08 120,-61.08 120,-55.08 126,-49.08 132,-49.08 132,-49.08 171,-49.08 171,-49.08 177,-49.08 183,-55.08 183,-61.08 183,-61.08 183,-73.08 183,-73.08 183,-79.08 177,-85.08 171,-85.08"/>
<text text-anchor="middle" x="151.5" y="-64.58" font-family="Avenir Next" font-size="10.00" fill="#17232b">MATH204</text>
</a>
</g>
</g>
<!-- course__EOS325 -->
<g id="node4" class="node">
<title>course__EOS325</title>
<g id="a_node4"><a xlink:href="../../../courses/EOS325.html" xlink:title="EOS325: Earth System Modelling" target="_top">
<path fill="#d7e9ef" stroke="#1b2730" stroke-width="1.6" d="M286,-113.08C286,-113.08 256,-113.08 256,-113.08 250,-113.08 244,-107.08 244,-101.08 244,-101.08 244,-89.08 244,-89.08 244,-83.08 250,-77.08 256,-77.08 256,-77.08 286,-77.08 286,-77.08 292,-77.08 298,-83.08 298,-89.08 298,-89.08 298,-101.08 298,-101.08 298,-107.08 292,-113.08 286,-113.08"/>
<text text-anchor="middle" x="271" y="-92.58" font-family="Avenir Next" font-size="10.00" fill="#17232b">EOS325</text>
</a>
</g>
</g>
<!-- course__MATH204&#45;&gt;course__EOS325 -->
<g id="edge1" class="edge">
<title>course__MATH204&#45;&gt;course__EOS325</title>
<path fill="none" stroke="#5d6972" stroke-width="1.2" d="M183.07,-74.37C199.61,-78.31 220.05,-83.18 236.96,-87.21"/>
<polygon fill="#5d6972" stroke="#5d6972" stroke-width="1.2" points="236.59,-89.64 243.97,-88.88 237.73,-84.88 236.59,-89.64"/>
</g>
<!-- choice_EOS340_1 -->
<g id="node12" class="node">
<title>choice_EOS340_1</title>
<path fill="#fff7ee" stroke="#b7793f" stroke-width="1.1" d="M401,-113.08C401,-113.08 371,-113.08 371,-113.08 365,-113.08 359,-107.08 359,-101.08 359,-101.08 359,-89.08 359,-89.08 359,-83.08 365,-77.08 371,-77.08 371,-77.08 401,-77.08 401,-77.08 407,-77.08 413,-83.08 413,-89.08 413,-89.08 413,-101.08 413,-101.08 413,-107.08 407,-113.08 401,-113.08"/>
<text text-anchor="middle" x="386" y="-92.88" font-family="Avenir Next" font-size="9.00">1 of</text>
</g>
<!-- course__MATH204&#45;&gt;choice_EOS340_1 -->
<g id="edge5" class="edge">
<title>course__MATH204&#45;&gt;choice_EOS340_1</title>
<path fill="none" stroke="#7a8389" d="M183.09,-64.34C212.68,-62.34 258.7,-60.92 298,-67.08 316.38,-69.97 336.17,-76.09 352.23,-81.87"/>
<polygon fill="#7a8389" stroke="#7a8389" points="351.45,-84.19 358.87,-84.31 353.15,-79.59 351.45,-84.19"/>
</g>
<!-- course__PHYS102B&#45;&gt;course__EOS325 -->
<g id="edge2" class="edge">
<title>course__PHYS102B&#45;&gt;course__EOS325</title>
<path fill="none" stroke="#5d6972" stroke-width="1.2" d="M182.76,-123.3C199.3,-117.95 219.82,-111.31 236.8,-105.82"/>
<polygon fill="#5d6972" stroke="#5d6972" stroke-width="1.2" points="237.93,-108.03 243.83,-103.55 236.42,-103.37 237.93,-108.03"/>
</g>
<!-- course__EOS340 -->
<g id="node5" class="node">
<title>course__EOS340</title>
<g id="a_node5"><a xlink:href="../../../courses/EOS340.html" xlink:title="Equivalent or cross&#45;listed: EOS340: Atmospheric Physics | PHYS340: Atmospheric Physics" target="_top">
<path fill="#d7e9ef" stroke="#1f4f66" stroke-width="2" d="M580,-137.08C580,-137.08 486,-137.08 486,-137.08 480,-137.08 474,-131.08 474,-125.08 474,-125.08 474,-113.08 474,-113.08 474,-107.08 480,-101.08 486,-101.08 486,-101.08 580,-101.08 580,-101.08 586,-101.08 592,-107.08 592,-113.08 592,-113.08 592,-125.08 592,-125.08 592,-131.08 586,-137.08 580,-137.08"/>
<text text-anchor="middle" x="533" y="-122.08" font-family="Avenir Next" font-size="10.00" fill="#17232b">EOS340 / PHYS340</text>
<text text-anchor="middle" x="533" y="-111.08" font-family="Avenir Next" font-size="10.00" fill="#17232b">Atmospheric Physics</text>
</a>
</g>
</g>
<!-- course__PHYS102B&#45;&gt;course__EOS340 -->
<g id="edge3" class="edge">
<title>course__PHYS102B&#45;&gt;course__EOS340</title>
<path fill="none" stroke="#5d6972" stroke-width="1.2" d="M182.6,-131.97C243.75,-129.72 383.76,-124.55 466.79,-121.49"/>
<polygon fill="#5d6972" stroke="#5d6972" stroke-width="1.2" points="467,-123.93 473.9,-121.23 466.82,-119.04 467,-123.93"/>
</g>
<!-- course__EOS325&#45;&gt;choice_EOS340_1 -->
<g id="edge4" class="edge">
<title>course__EOS325&#45;&gt;choice_EOS340_1</title>
<path fill="none" stroke="#7a8389" d="M298.21,-95.08C314.18,-95.08 334.74,-95.08 351.84,-95.08"/>
<polygon fill="#7a8389" stroke="#7a8389" points="351.93,-97.53 358.93,-95.08 351.93,-92.63 351.93,-97.53"/>
</g>
<!-- course__EOS433 -->
<g id="node6" class="node">
<title>course__EOS433</title>
<g id="a_node6"><a xlink:href="../../../courses/EOS433.html" xlink:title="EOS433: The Physics of Climate" target="_top">
<path fill="#d7e9ef" stroke="#1b2730" stroke-width="1.6" d="M699.5,-277.08C699.5,-277.08 669.5,-277.08 669.5,-277.08 663.5,-277.08 657.5,-271.08 657.5,-265.08 657.5,-265.08 657.5,-253.08 657.5,-253.08 657.5,-247.08 663.5,-241.08 669.5,-241.08 669.5,-241.08 699.5,-241.08 699.5,-241.08 705.5,-241.08 711.5,-247.08 711.5,-253.08 711.5,-253.08 711.5,-265.08 711.5,-265.08 711.5,-271.08 705.5,-277.08 699.5,-277.08"/>
<text text-anchor="middle" x="684.5" y="-256.58" font-family="Avenir Next" font-size="10.00" fill="#17232b">EOS433</text>
</a>
</g>
</g>
<!-- course__EOS340&#45;&gt;course__EOS433 -->
<g id="edge7" class="edge">
<title>course__EOS340&#45;&gt;course__EOS433</title>
<path fill="none" stroke="#5d6972" stroke-width="1.2" d="M553.31,-137.39C576.79,-159.63 617.67,-198.25 653,-231.08 654.74,-232.7 656.53,-234.36 658.34,-236.04"/>
<polygon fill="#5d6972" stroke="#5d6972" stroke-width="1.2" points="656.97,-238.1 663.78,-241.05 660.29,-234.5 656.97,-238.1"/>
</g>
<!-- course__EOS451 -->
<g id="node7" class="node">
<title>course__EOS451</title>
<g id="a_node7"><a xlink:href="../../../courses/EOS451.html" xlink:title="EOS451: Introductory Dynamic Meteorology" target="_top">
<path fill="#d7e9ef" stroke="#1b2730" stroke-width="1.6" d="M699.5,-221.08C699.5,-221.08 669.5,-221.08 669.5,-221.08 663.5,-221.08 657.5,-215.08 657.5,-209.08 657.5,-209.08 657.5,-197.08 657.5,-197.08 657.5,-191.08 663.5,-185.08 669.5,-185.08 669.5,-185.08 699.5,-185.08 699.5,-185.08 705.5,-185.08 711.5,-191.08 711.5,-197.08 711.5,-197.08 711.5,-209.08 711.5,-209.08 711.5,-215.08 705.5,-221.08 699.5,-221.08"/>
<text text-anchor="middle" x="684.5" y="-200.58" font-family="Avenir Next" font-size="10.00" fill="#17232b">EOS451</text>
</a>
</g>
</g>
<!-- course__EOS340&#45;&gt;course__EOS451 -->
<g id="edge8" class="edge">
<title>course__EOS340&#45;&gt;course__EOS451</title>
<path fill="none" stroke="#5d6972" stroke-width="1.2" d="M566.07,-137.1C591.22,-151.24 626.07,-170.82 651.26,-184.97"/>
<polygon fill="#5d6972" stroke="#5d6972" stroke-width="1.2" points="650.15,-187.15 657.45,-188.45 652.55,-182.88 650.15,-187.15"/>
</g>
<!-- course__GEOG370 -->
<g id="node8" class="node">
<title>course__GEOG370</title>
<g id="a_node8"><a xlink:href="../../../courses/GEOG370.html" xlink:title="GEOG370: Methods in Hydrology" target="_top">
<path fill="#e7e2d8" stroke="#1b2730" stroke-width="1.6" d="M704,-165.08C704,-165.08 665,-165.08 665,-165.08 659,-165.08 653,-159.08 653,-153.08 653,-153.08 653,-141.08 653,-141.08 653,-135.08 659,-129.08 665,-129.08 665,-129.08 704,-129.08 704,-129.08 710,-129.08 716,-135.08 716,-141.08 716,-141.08 716,-153.08 716,-153.08 716,-159.08 710,-165.08 704,-165.08"/>
<text text-anchor="middle" x="684.5" y="-144.58" font-family="Avenir Next" font-size="10.00" fill="#17232b">GEOG370</text>
</a>
</g>
</g>
<!-- course__EOS340&#45;&gt;course__GEOG370 -->
<g id="edge9" class="edge">
<title>course__EOS340&#45;&gt;course__GEOG370</title>
<path fill="none" stroke="#5d6972" stroke-width="1.2" d="M592.23,-129.99C610.15,-133.35 629.39,-136.95 645.58,-139.98"/>
<polygon fill="#5d6972" stroke="#5d6972" stroke-width="1.2" points="645.45,-142.45 652.78,-141.33 646.35,-137.63 645.45,-142.45"/>
</g>
<!-- course__GEOG489 -->
<g id="node9" class="node">
<title>course__GEOG489</title>
<g id="a_node9"><a xlink:href="../../../courses/GEOG489.html" xlink:title="GEOG489: Climate Solutions" target="_top">
<path fill="#e7e2d8" stroke="#1b2730" stroke-width="1.6" d="M704,-109.08C704,-109.08 665,-109.08 665,-109.08 659,-109.08 653,-103.08 653,-97.08 653,-97.08 653,-85.08 653,-85.08 653,-79.08 659,-73.08 665,-73.08 665,-73.08 704,-73.08 704,-73.08 710,-73.08 716,-79.08 716,-85.08 716,-85.08 716,-97.08 716,-97.08 716,-103.08 710,-109.08 704,-109.08"/>
<text text-anchor="middle" x="684.5" y="-88.58" font-family="Avenir Next" font-size="10.00" fill="#17232b">GEOG489</text>
</a>
</g>
</g>
<!-- course__EOS340&#45;&gt;course__GEOG489 -->
<g id="edge13" class="edge">
<title>course__EOS340&#45;&gt;course__GEOG489</title>
<path fill="none" stroke="#5d6972" stroke-width="1.2" d="M592.23,-108.18C610.15,-104.82 629.39,-101.22 645.58,-98.19"/>
<polygon fill="#5d6972" stroke="#5d6972" stroke-width="1.2" points="646.35,-100.54 652.78,-96.84 645.45,-95.72 646.35,-100.54"/>
</g>
<!-- course__PHYS411 -->
<g id="node10" class="node">
<title>course__PHYS411</title>
<g id="a_node10"><a xlink:href="../../../courses/PHYS411.html" xlink:title="PHYS411: Time Series Analysis" target="_top">
<path fill="#efd8cf" stroke="#1b2730" stroke-width="1.6" d="M702.5,-53.08C702.5,-53.08 666.5,-53.08 666.5,-53.08 660.5,-53.08 654.5,-47.08 654.5,-41.08 654.5,-41.08 654.5,-29.08 654.5,-29.08 654.5,-23.08 660.5,-17.08 666.5,-17.08 666.5,-17.08 702.5,-17.08 702.5,-17.08 708.5,-17.08 714.5,-23.08 714.5,-29.08 714.5,-29.08 714.5,-41.08 714.5,-41.08 714.5,-47.08 708.5,-53.08 702.5,-53.08"/>
<text text-anchor="middle" x="684.5" y="-32.58" font-family="Avenir Next" font-size="10.00" fill="#17232b">PHYS411</text>
</a>
</g>
</g>
<!-- course__EOS340&#45;&gt;course__PHYS411 -->
<g id="edge15" class="edge">
<title>course__EOS340&#45;&gt;course__PHYS411</title>
<path fill="none" stroke="#5d6972" stroke-width="1.2" d="M566.07,-101.06C590.12,-87.55 623.02,-69.07 647.88,-55.1"/>
<polygon fill="#5d6972" stroke="#5d6972" stroke-width="1.2" points="649.12,-57.21 654.02,-51.65 646.72,-52.94 649.12,-57.21"/>
</g>
<!-- choice_GEOG405_0 -->
<g id="node13" class="node">
<title>choice_GEOG405_0</title>
<path fill="#fff7ee" stroke="#b7793f" stroke-width="1.1" d="M819,-84.08C819,-84.08 789,-84.08 789,-84.08 783,-84.08 777,-78.08 777,-72.08 777,-72.08 777,-60.08 777,-60.08 777,-54.08 783,-48.08 789,-48.08 789,-48.08 819,-48.08 819,-48.08 825,-48.08 831,-54.08 831,-60.08 831,-60.08 831,-72.08 831,-72.08 831,-78.08 825,-84.08 819,-84.08"/>
<text text-anchor="middle" x="804" y="-63.88" font-family="Avenir Next" font-size="9.00">1 of</text>
</g>
<!-- course__EOS340&#45;&gt;choice_GEOG405_0 -->
<g id="edge11" class="edge">
<title>course__EOS340&#45;&gt;choice_GEOG405_0</title>
<path fill="none" stroke="#7a8389" d="M546.37,-100.75C565.54,-74.16 605.27,-26.02 653,-7.08 679.03,3.24 689.23,1.14 716,-7.08 739.15,-14.19 761.68,-29.79 778.01,-43.16"/>
<polygon fill="#7a8389" stroke="#7a8389" points="776.8,-45.34 783.73,-47.96 779.95,-41.59 776.8,-45.34"/>
</g>
<!-- course__GEOG370&#45;&gt;choice_GEOG405_0 -->
<g id="edge10" class="edge">
<title>course__GEOG370&#45;&gt;choice_GEOG405_0</title>
<path fill="none" stroke="#7a8389" d="M711.87,-128.91C729.26,-116.92 752.14,-101.14 770.63,-88.4"/>
<polygon fill="#7a8389" stroke="#7a8389" points="772.35,-90.19 776.72,-84.2 769.56,-86.16 772.35,-90.19"/>
</g>
<!-- course__GEOG405 -->
<g id="node11" class="node">
<title>course__GEOG405</title>
<g id="a_node11"><a xlink:href="../../../courses/GEOG405.html" xlink:title="GEOG405: Dynamics of the Cryosphere" target="_top">
<path fill="#e7e2d8" stroke="#1b2730" stroke-width="1.6" d="M943,-84.08C943,-84.08 904,-84.08 904,-84.08 898,-84.08 892,-78.08 892,-72.08 892,-72.08 892,-60.08 892,-60.08 892,-54.08 898,-48.08 904,-48.08 904,-48.08 943,-48.08 943,-48.08 949,-48.08 955,-54.08 955,-60.08 955,-60.08 955,-72.08 955,-72.08 955,-78.08 949,-84.08 943,-84.08"/>
<text text-anchor="middle" x="923.5" y="-63.58" font-family="Avenir Next" font-size="10.00" fill="#17232b">GEOG405</text>
</a>
</g>
</g>
<!-- choice_EOS340_1&#45;&gt;course__EOS340 -->
<g id="edge6" class="edge">
<title>choice_EOS340_1&#45;&gt;course__EOS340</title>
<path fill="none" stroke="#5d6972" stroke-width="1.2" d="M413.26,-99.43C428.3,-101.92 447.91,-105.17 466.84,-108.3"/>
<polygon fill="#5d6972" stroke="#5d6972" stroke-width="1.2" points="466.47,-110.72 473.78,-109.45 467.27,-105.89 466.47,-110.72"/>
</g>
<!-- choice_GEOG405_0&#45;&gt;course__GEOG405 -->
<g id="edge12" class="edge">
<title>choice_GEOG405_0&#45;&gt;course__GEOG405</title>
<path fill="none" stroke="#5d6972" stroke-width="1.2" d="M831.08,-66.08C846.81,-66.08 867.14,-66.08 884.62,-66.08"/>
<polygon fill="#5d6972" stroke="#5d6972" stroke-width="1.2" points="884.92,-68.53 891.92,-66.08 884.92,-63.63 884.92,-68.53"/>
</g>
</g>
</svg>
