<?xml version="1.0" encoding="UTF-8" standalone="no"?>
<!DOCTYPE svg PUBLIC "-//W3C//DTD SVG 1.1//EN"
 "http://www.w3.org/Graphics/SVG/1.1/DTD/svg11.dtd">
<!-- Generated by graphviz version 2.43.0 (0)
 -->
<!-- Title: EOS350 Pages: 1 -->
<svg width="1351pt" height="782pt"
 viewBox="0.00 0.00 1351.20 782.20" xmlns="http://www.w3.org/2000/svg" xmlns:xlink="http://www.w3.org/1999/xlink">
<g id="graph0" class="graph" transform="scale(1 1) rotate(0) translate(21.6 760.6)">
<title>EOS350</title>
<!-- course__EOS110 -->
<g id="node1" class="node">
<title>course__EOS110</title>
<g id="a_node1"><a xlink:href="../../../courses/EOS350.html" xlink:title="Equivalent or cross&#45;listed: EOS110: Oceans and Atmosphere | EOS350: Understanding the Oceans" target="_top">
<path fill="#d7e9ef" stroke="#1f4f66" stroke-width="2" d="M134,-468C134,-468 12,-468 12,-468 6,-468 0,-462 0,-456 0,-456 0,-444 0,-444 0,-438 6,-432 12,-432 12,-432 134,-432 134,-432 140,-432 146,-438 146,-444 146,-444 146,-456 146,-456 146,-462 140,-468 134,-468"/>
<text text-anchor="middle" x="73" y="-453" font-family="Avenir Next" font-size="10.00" fill="#17232b">EOS110 / EOS350</text>
<text text-anchor="middle" x="73" y="-442" font-family="Avenir Next" font-size="10.00" fill="#17232b">Understanding the Oceans</text>
</a>
</g>
</g>
<!-- course__EOS230 -->
<g id="node2" class="node">
<title>course__EOS230</title>
<g id="a_node2"><a xlink:href="../../../courses/EOS230.html" xlink:title="Equivalent or cross&#45;listed: EOS230: Introduction to Environmental Data Analysis | GEOG230: Introduction to Environmental Data Analysis" target="_top">
<path fill="#d7e9ef" stroke="#1b2730" stroke-width="1.6" d="M305,-468C305,-468 219,-468 219,-468 213,-468 207,-462 207,-456 207,-456 207,-444 207,-444 207,-438 213,-432 219,-432 219,-432 305,-432 305,-432 311,-432 317,-438 317,-444 317,-444 317,-456 317,-456 317,-462 311,-468 305,-468"/>
<text text-anchor="middle" x="262" y="-447.5" font-family="Avenir Next" font-size="10.00" fill="#17232b">EOS230 / GEOG230</text>
</a>
</g>
</g>
<!-- course__EOS110&#45;&gt;course__EOS230 -->
<g id="edge2" class="edge">
<title>course__EOS110&#45;&gt;course__EOS230</title>
<path fill="none" stroke="#5d6972" stroke-width="1.2" d="M146.03,-450C163.68,-450 182.4,-450 199.5,-450"/>
<polygon fill="#5d6972" stroke="#5d6972" stroke-width="1.2" points="199.72,-452.45 206.72,-450 199.72,-447.55 199.72,-452.45"/>
</g>
<!-- course__EOS261 -->
<g id="node3" class="node">
<title>course__EOS261</title>
<g id="a_node3"><a xlink:href="../../../courses/EOS261.html" xlink:title="EOS261: The Climate System" target="_top">
<path fill="#d7e9ef" stroke="#1b2730" stroke-width="1.6" d="M277,-524C277,-524 247,-524 247,-524 241,-524 235,-518 235,-512 235,-512 235,-500 235,-500 235,-494 241,-488 247,-488 247,-488 277,-488 277,-488 283,-488 289,-494 289,-500 289,-500 289,-512 289,-512 289,-518 283,-524 277,-524"/>
<text text-anchor="middle" x="262" y="-503.5" font-family="Avenir Next" font-size="10.00" fill="#17232b">EOS261</text>
</a>
</g>
</g>
<!-- course__EOS110&#45;&gt;course__EOS261 -->
<g id="edge3" class="edge">
<title>course__EOS110&#45;&gt;course__EOS261</title>
<path fill="none" stroke="#5d6972" stroke-width="1.2" d="M134.2,-468.03C165.23,-477.32 201.9,-488.3 227.8,-496.06"/>
<polygon fill="#5d6972" stroke="#5d6972" stroke-width="1.2" points="227.4,-498.49 234.8,-498.16 228.8,-493.8 227.4,-498.49"/>
</g>
<!-- course__GEOG209 -->
<g id="node4" class="node">
<title>course__GEOG209</title>
<g id="a_node4"><a xlink:href="../../../courses/GEOG209.html" xlink:title="GEOG209: Environmental Management" target="_top">
<path fill="#e7e2d8" stroke="#1b2730" stroke-width="1.6" d="M281.5,-78C281.5,-78 242.5,-78 242.5,-78 236.5,-78 230.5,-72 230.5,-66 230.5,-66 230.5,-54 230.5,-54 230.5,-48 236.5,-42 242.5,-42 242.5,-42 281.5,-42 281.5,-42 287.5,-42 293.5,-48 293.5,-54 293.5,-54 293.5,-66 293.5,-66 293.5,-72 287.5,-78 281.5,-78"/>
<text text-anchor="middle" x="262" y="-57.5" font-family="Avenir Next" font-size="10.00" fill="#17232b">GEOG209</text>
</a>
</g>
</g>
<!-- course__EOS110&#45;&gt;course__GEOG209 -->
<g id="edge22" class="edge">
<title>course__EOS110&#45;&gt;course__GEOG209</title>
<path fill="none" stroke="#5d6972" stroke-width="1.2" d="M81.77,-431.66C101.56,-385.29 155.86,-259.8 207,-158 219.77,-132.58 235.6,-104.17 246.81,-84.51"/>
<polygon fill="#5d6972" stroke="#5d6972" stroke-width="1.2" points="249.07,-85.49 250.43,-78.2 244.82,-83.06 249.07,-85.49"/>
</g>
<!-- course__GEOG272 -->
<g id="node5" class="node">
<title>course__GEOG272</title>
<g id="a_node5"><a xlink:href="../../../courses/GEOG272.html" xlink:title="GEOG272: Climatology and Hydrology" target="_top">
<path fill="#e7e2d8" stroke="#1b2730" stroke-width="1.6" d="M281.5,-204C281.5,-204 242.5,-204 242.5,-204 236.5,-204 230.5,-198 230.5,-192 230.5,-192 230.5,-180 230.5,-180 230.5,-174 236.5,-168 242.5,-168 242.5,-168 281.5,-168 281.5,-168 287.5,-168 293.5,-174 293.5,-180 293.5,-180 293.5,-192 293.5,-192 293.5,-198 287.5,-204 281.5,-204"/>
<text text-anchor="middle" x="262" y="-183.5" font-family="Avenir Next" font-size="10.00" fill="#17232b">GEOG272</text>
</a>
</g>
</g>
<!-- course__EOS110&#45;&gt;course__GEOG272 -->
<g id="edge23" class="edge">
<title>course__EOS110&#45;&gt;course__GEOG272</title>
<path fill="none" stroke="#5d6972" stroke-width="1.2" d="M86.85,-431.85C119.75,-385.42 206.99,-262.25 244.01,-209.99"/>
<polygon fill="#5d6972" stroke="#5d6972" stroke-width="1.2" points="246.01,-211.4 248.06,-204.27 242.01,-208.57 246.01,-211.4"/>
</g>
<!-- choice_EOS312_0_0 -->
<g id="node28" class="node">
<title>choice_EOS312_0_0</title>
<path fill="#fff7ee" stroke="#b7793f" stroke-width="1.1" d="M937,-739C937,-739 907,-739 907,-739 901,-739 895,-733 895,-727 895,-727 895,-715 895,-715 895,-709 901,-703 907,-703 907,-703 937,-703 937,-703 943,-703 949,-709 949,-715 949,-715 949,-727 949,-727 949,-733 943,-739 937,-739"/>
<text text-anchor="middle" x="922" y="-718.8" font-family="Avenir Next" font-size="9.00">1 of</text>
</g>
<!-- course__EOS110&#45;&gt;choice_EOS312_0_0 -->
<g id="edge4" class="edge">
<title>course__EOS110&#45;&gt;choice_EOS312_0_0</title>
<path fill="none" stroke="#7a8389" d="M84.85,-468.35C121.52,-527.76 247.32,-711 404,-711 404,-711 404,-711 643,-711 731.56,-711 835.89,-716.13 887.96,-719.04"/>
<polygon fill="#7a8389" stroke="#7a8389" points="887.82,-721.49 894.95,-719.44 888.1,-716.6 887.82,-721.49"/>
</g>
<!-- course__GEOG489 -->
<g id="node23" class="node">
<title>course__GEOG489</title>
<g id="a_node23"><a xlink:href="../../../courses/GEOG489.html" xlink:title="GEOG489: Climate Solutions" target="_top">
<path fill="#e7e2d8" stroke="#7e8d96" d="M1059,-412C1059,-412 1022,-412 1022,-412 1016,-412 1010,-406 1010,-400 1010,-400 1010,-388 1010,-388 1010,-382 1016,-376 1022,-376 1022,-376 1059,-376 1059,-376 1065,-376 1071,-382 1071,-388 1071,-388 1071,-400 1071,-400 1071,-406 1065,-412 1059,-412"/>
<text text-anchor="middle" x="1040.5" y="-391.8" font-family="Avenir Next" font-size="9.00" fill="#41515b">GEOG489</text>
</a>
</g>
</g>
<!-- course__EOS230&#45;&gt;course__GEOG489 -->
<g id="edge45" class="edge">
<title>course__EOS230&#45;&gt;course__GEOG489</title>
<path fill="none" stroke="#5d6972" stroke-width="1.2" d="M317.02,-441.41C369.4,-433.84 451.19,-424 522.5,-424 522.5,-424 522.5,-424 783,-424 861.63,-424 952.9,-409.92 1002.6,-401.05"/>
<polygon fill="#5d6972" stroke="#5d6972" stroke-width="1.2" points="1003.17,-403.44 1009.62,-399.78 1002.3,-398.62 1003.17,-403.44"/>
</g>
<!-- choice_EOS321_0_1_0 -->
<g id="node29" class="node">
<title>choice_EOS321_0_1_0</title>
<path fill="#fff7ee" stroke="#b7793f" stroke-width="1.1" d="M420,-550C420,-550 390,-550 390,-550 384,-550 378,-544 378,-538 378,-538 378,-526 378,-526 378,-520 384,-514 390,-514 390,-514 420,-514 420,-514 426,-514 432,-520 432,-526 432,-526 432,-538 432,-538 432,-544 426,-550 420,-550"/>
<text text-anchor="middle" x="405" y="-529.8" font-family="Avenir Next" font-size="9.00">1 of</text>
</g>
<!-- course__EOS230&#45;&gt;choice_EOS321_0_1_0 -->
<g id="edge7" class="edge">
<title>course__EOS230&#45;&gt;choice_EOS321_0_1_0</title>
<path fill="none" stroke="#7a8389" d="M298.94,-468.14C305.01,-471.35 311.22,-474.71 317,-478 335.28,-488.39 355.25,-500.71 371.43,-510.96"/>
<polygon fill="#7a8389" stroke="#7a8389" points="370.44,-513.23 377.67,-514.92 373.07,-509.1 370.44,-513.23"/>
</g>
<!-- choice_EOS325_0_2_0 -->
<g id="node30" class="node">
<title>choice_EOS325_0_2_0</title>
<path fill="#fff7ee" stroke="#b7793f" stroke-width="1.1" d="M420,-494C420,-494 390,-494 390,-494 384,-494 378,-488 378,-482 378,-482 378,-470 378,-470 378,-464 384,-458 390,-458 390,-458 420,-458 420,-458 426,-458 432,-464 432,-470 432,-470 432,-482 432,-482 432,-488 426,-494 420,-494"/>
<text text-anchor="middle" x="405" y="-473.8" font-family="Avenir Next" font-size="9.00">1 of</text>
</g>
<!-- course__EOS230&#45;&gt;choice_EOS325_0_2_0 -->
<g id="edge10" class="edge">
<title>course__EOS230&#45;&gt;choice_EOS325_0_2_0</title>
<path fill="none" stroke="#7a8389" d="M317.11,-459.98C335.16,-463.31 354.73,-466.91 370.71,-469.86"/>
<polygon fill="#7a8389" stroke="#7a8389" points="370.46,-472.31 377.79,-471.17 371.35,-467.49 370.46,-472.31"/>
</g>
<!-- course__EOS261&#45;&gt;choice_EOS321_0_1_0 -->
<g id="edge8" class="edge">
<title>course__EOS261&#45;&gt;choice_EOS321_0_1_0</title>
<path fill="none" stroke="#7a8389" d="M289.19,-510.83C312.24,-515.08 345.92,-521.29 370.84,-525.89"/>
<polygon fill="#7a8389" stroke="#7a8389" points="370.62,-528.34 377.95,-527.2 371.51,-523.52 370.62,-528.34"/>
</g>
<!-- course__EOS261&#45;&gt;choice_EOS325_0_2_0 -->
<g id="edge11" class="edge">
<title>course__EOS261&#45;&gt;choice_EOS325_0_2_0</title>
<path fill="none" stroke="#7a8389" d="M289.19,-500.43C312.24,-495.52 345.92,-488.36 370.84,-483.05"/>
<polygon fill="#7a8389" stroke="#7a8389" points="371.61,-485.4 377.95,-481.54 370.59,-480.6 371.61,-485.4"/>
</g>
<!-- course__GEOG301 -->
<g id="node8" class="node">
<title>course__GEOG301</title>
<g id="a_node8"><a xlink:href="../../../courses/GEOG301.html" xlink:title="GEOG301: Environmental Impact Assessment" target="_top">
<path fill="#e7e2d8" stroke="#7e8d96" d="M542,-36C542,-36 505,-36 505,-36 499,-36 493,-30 493,-24 493,-24 493,-12 493,-12 493,-6 499,0 505,0 505,0 542,0 542,0 548,0 554,-6 554,-12 554,-12 554,-24 554,-24 554,-30 548,-36 542,-36"/>
<text text-anchor="middle" x="523.5" y="-15.8" font-family="Avenir Next" font-size="9.00" fill="#41515b">GEOG301</text>
</a>
</g>
</g>
<!-- course__GEOG209&#45;&gt;course__GEOG301 -->
<g id="edge24" class="edge">
<title>course__GEOG209&#45;&gt;course__GEOG301</title>
<path fill="none" stroke="#5d6972" stroke-width="1.2" d="M293.53,-55.06C341.52,-47.29 434.41,-32.26 485.9,-23.92"/>
<polygon fill="#5d6972" stroke="#5d6972" stroke-width="1.2" points="486.37,-26.33 492.88,-22.79 485.58,-21.49 486.37,-26.33"/>
</g>
<!-- course__GEOG371 -->
<g id="node10" class="node">
<title>course__GEOG371</title>
<g id="a_node10"><a xlink:href="../../../courses/GEOG371.html" xlink:title="GEOG371: Water Resources Management" target="_top">
<path fill="#e7e2d8" stroke="#7e8d96" d="M542,-92C542,-92 505,-92 505,-92 499,-92 493,-86 493,-80 493,-80 493,-68 493,-68 493,-62 499,-56 505,-56 505,-56 542,-56 542,-56 548,-56 554,-62 554,-68 554,-68 554,-80 554,-80 554,-86 548,-92 542,-92"/>
<text text-anchor="middle" x="523.5" y="-71.8" font-family="Avenir Next" font-size="9.00" fill="#41515b">GEOG371</text>
</a>
</g>
</g>
<!-- course__GEOG209&#45;&gt;course__GEOG371 -->
<g id="edge29" class="edge">
<title>course__GEOG209&#45;&gt;course__GEOG371</title>
<path fill="none" stroke="#5d6972" stroke-width="1.2" d="M293.53,-61.65C341.42,-64.23 434.03,-69.23 485.59,-72.01"/>
<polygon fill="#5d6972" stroke="#5d6972" stroke-width="1.2" points="485.76,-74.47 492.88,-72.4 486.03,-69.58 485.76,-74.47"/>
</g>
<!-- course__GEOG313 -->
<g id="node9" class="node">
<title>course__GEOG313</title>
<g id="a_node9"><a xlink:href="../../../courses/GEOG313.html" xlink:title="GEOG313: Field Studies in Mountain Meteorology" target="_top">
<path fill="#e7e2d8" stroke="#7e8d96" d="M542,-155C542,-155 505,-155 505,-155 499,-155 493,-149 493,-143 493,-143 493,-131 493,-131 493,-125 499,-119 505,-119 505,-119 542,-119 542,-119 548,-119 554,-125 554,-131 554,-131 554,-143 554,-143 554,-149 548,-155 542,-155"/>
<text text-anchor="middle" x="523.5" y="-134.8" font-family="Avenir Next" font-size="9.00" fill="#41515b">GEOG313</text>
</a>
</g>
</g>
<!-- course__GEOG272&#45;&gt;course__GEOG313 -->
<g id="edge25" class="edge">
<title>course__GEOG272&#45;&gt;course__GEOG313</title>
<path fill="none" stroke="#5d6972" stroke-width="1.2" d="M293.53,-180.23C341.52,-171.17 434.41,-153.63 485.9,-143.91"/>
<polygon fill="#5d6972" stroke="#5d6972" stroke-width="1.2" points="486.46,-146.3 492.88,-142.59 485.55,-141.48 486.46,-146.3"/>
</g>
<!-- course__GEOG272&#45;&gt;course__GEOG371 -->
<g id="edge30" class="edge">
<title>course__GEOG272&#45;&gt;course__GEOG371</title>
<path fill="none" stroke="#5d6972" stroke-width="1.2" d="M293.53,-172.82C341.61,-152.07 434.79,-111.86 486.22,-89.66"/>
<polygon fill="#5d6972" stroke="#5d6972" stroke-width="1.2" points="487.43,-91.81 492.88,-86.78 485.49,-87.31 487.43,-91.81"/>
</g>
<!-- course__GEOG373 -->
<g id="node11" class="node">
<title>course__GEOG373</title>
<g id="a_node11"><a xlink:href="../../../courses/GEOG373.html" xlink:title="GEOG373: Applied Climatology" target="_top">
<path fill="#e7e2d8" stroke="#7e8d96" d="M542,-295C542,-295 505,-295 505,-295 499,-295 493,-289 493,-283 493,-283 493,-271 493,-271 493,-265 499,-259 505,-259 505,-259 542,-259 542,-259 548,-259 554,-265 554,-271 554,-271 554,-283 554,-283 554,-289 548,-295 542,-295"/>
<text text-anchor="middle" x="523.5" y="-274.8" font-family="Avenir Next" font-size="9.00" fill="#41515b">GEOG373</text>
</a>
</g>
</g>
<!-- course__GEOG272&#45;&gt;course__GEOG373 -->
<g id="edge31" class="edge">
<title>course__GEOG272&#45;&gt;course__GEOG373</title>
<path fill="none" stroke="#5d6972" stroke-width="1.2" d="M293.53,-196.71C341.61,-213.57 434.79,-246.24 486.22,-264.28"/>
<polygon fill="#5d6972" stroke="#5d6972" stroke-width="1.2" points="485.47,-266.61 492.88,-266.61 487.09,-261.99 485.47,-266.61"/>
</g>
<!-- choice_GEOG370_0_0 -->
<g id="node32" class="node">
<title>choice_GEOG370_0_0</title>
<path fill="#fff7ee" stroke="#b7793f" stroke-width="1.1" d="M937,-295C937,-295 907,-295 907,-295 901,-295 895,-289 895,-283 895,-283 895,-271 895,-271 895,-265 901,-259 907,-259 907,-259 937,-259 937,-259 943,-259 949,-265 949,-271 949,-271 949,-283 949,-283 949,-289 943,-295 937,-295"/>
<text text-anchor="middle" x="922" y="-274.8" font-family="Avenir Next" font-size="9.00">1 of</text>
</g>
<!-- course__GEOG272&#45;&gt;choice_GEOG370_0_0 -->
<g id="edge26" class="edge">
<title>course__GEOG272&#45;&gt;choice_GEOG370_0_0</title>
<path fill="none" stroke="#7a8389" d="M293.76,-186C342.34,-186 439.83,-186 522.5,-186 522.5,-186 522.5,-186 643,-186 735.78,-186 837.71,-232.34 888.49,-258.88"/>
<polygon fill="#7a8389" stroke="#7a8389" points="887.38,-261.07 894.72,-262.18 889.67,-256.74 887.38,-261.07"/>
</g>
<!-- course__EOS321 -->
<g id="node6" class="node">
<title>course__EOS321</title>
<g id="a_node6"><a xlink:href="../../../courses/EOS321.html" xlink:title="EOS321: Earth History" target="_top">
<path fill="#d7e9ef" stroke="#7e8d96" d="M538.5,-573C538.5,-573 508.5,-573 508.5,-573 502.5,-573 496.5,-567 496.5,-561 496.5,-561 496.5,-549 496.5,-549 496.5,-543 502.5,-537 508.5,-537 508.5,-537 538.5,-537 538.5,-537 544.5,-537 550.5,-543 550.5,-549 550.5,-549 550.5,-561 550.5,-561 550.5,-567 544.5,-573 538.5,-573"/>
<text text-anchor="middle" x="523.5" y="-552.8" font-family="Avenir Next" font-size="9.00" fill="#41515b">EOS321</text>
</a>
</g>
</g>
<!-- course__EOS325 -->
<g id="node7" class="node">
<title>course__EOS325</title>
<g id="a_node7"><a xlink:href="../../../courses/EOS325.html" xlink:title="EOS325: Earth System Modelling" target="_top">
<path fill="#d7e9ef" stroke="#7e8d96" d="M538.5,-517C538.5,-517 508.5,-517 508.5,-517 502.5,-517 496.5,-511 496.5,-505 496.5,-505 496.5,-493 496.5,-493 496.5,-487 502.5,-481 508.5,-481 508.5,-481 538.5,-481 538.5,-481 544.5,-481 550.5,-487 550.5,-493 550.5,-493 550.5,-505 550.5,-505 550.5,-511 544.5,-517 538.5,-517"/>
<text text-anchor="middle" x="523.5" y="-496.8" font-family="Avenir Next" font-size="9.00" fill="#41515b">EOS325</text>
</a>
</g>
</g>
<!-- course__EOS340 -->
<g id="node13" class="node">
<title>course__EOS340</title>
<g id="a_node13"><a xlink:href="../../../courses/EOS340.html" xlink:title="Equivalent or cross&#45;listed: EOS340: Atmospheric Physics | PHYS340: Atmospheric Physics" target="_top">
<path fill="#d7e9ef" stroke="#7e8d96" d="M822,-547C822,-547 742,-547 742,-547 736,-547 730,-541 730,-535 730,-535 730,-523 730,-523 730,-517 736,-511 742,-511 742,-511 822,-511 822,-511 828,-511 834,-517 834,-523 834,-523 834,-535 834,-535 834,-541 828,-547 822,-547"/>
<text text-anchor="middle" x="782" y="-526.8" font-family="Avenir Next" font-size="9.00" fill="#41515b">EOS340 / PHYS340</text>
</a>
</g>
</g>
<!-- course__EOS325&#45;&gt;course__EOS340 -->
<g id="edge13" class="edge">
<title>course__EOS325&#45;&gt;course__EOS340</title>
<path fill="none" stroke="#5d6972" stroke-width="1.2" d="M550.51,-502.04C590.61,-506.73 668.56,-515.85 722.64,-522.17"/>
<polygon fill="#5d6972" stroke="#5d6972" stroke-width="1.2" points="722.53,-524.63 729.77,-523.01 723.1,-519.76 722.53,-524.63"/>
</g>
<!-- course__EOS423 -->
<g id="node14" class="node">
<title>course__EOS423</title>
<g id="a_node14"><a xlink:href="../../../courses/EOS423.html" xlink:title="EOS423: Advanced Sedimentology and Stratigraphy" target="_top">
<path fill="#d7e9ef" stroke="#7e8d96" d="M797,-603C797,-603 767,-603 767,-603 761,-603 755,-597 755,-591 755,-591 755,-579 755,-579 755,-573 761,-567 767,-567 767,-567 797,-567 797,-567 803,-567 809,-573 809,-579 809,-579 809,-591 809,-591 809,-597 803,-603 797,-603"/>
<text text-anchor="middle" x="782" y="-582.8" font-family="Avenir Next" font-size="9.00" fill="#41515b">EOS423</text>
</a>
</g>
</g>
<!-- course__EOS325&#45;&gt;course__EOS423 -->
<g id="edge17" class="edge">
<title>course__EOS325&#45;&gt;course__EOS423</title>
<path fill="none" stroke="#5d6972" stroke-width="1.2" d="M550.51,-507.72C597.56,-523.49 696.7,-556.74 748.28,-574.03"/>
<polygon fill="#5d6972" stroke="#5d6972" stroke-width="1.2" points="747.51,-576.36 754.93,-576.26 749.07,-571.71 747.51,-576.36"/>
</g>
<!-- course__EOS431 -->
<g id="node15" class="node">
<title>course__EOS431</title>
<g id="a_node15"><a xlink:href="../../../courses/EOS431.html" xlink:title="Equivalent or cross&#45;listed: EOS431: Physical Oceanography | PHYS441: Physical Oceanography" target="_top">
<path fill="#d7e9ef" stroke="#7e8d96" d="M822,-673C822,-673 742,-673 742,-673 736,-673 730,-667 730,-661 730,-661 730,-649 730,-649 730,-643 736,-637 742,-637 742,-637 822,-637 822,-637 828,-637 834,-643 834,-649 834,-649 834,-661 834,-661 834,-667 828,-673 822,-673"/>
<text text-anchor="middle" x="782" y="-652.8" font-family="Avenir Next" font-size="9.00" fill="#41515b">EOS431 / PHYS441</text>
</a>
</g>
</g>
<!-- course__EOS325&#45;&gt;course__EOS431 -->
<g id="edge18" class="edge">
<title>course__EOS325&#45;&gt;course__EOS431</title>
<path fill="none" stroke="#5d6972" stroke-width="1.2" d="M550.59,-515.26C568.64,-526.48 593.24,-541.71 615,-555 659.47,-582.15 710.88,-613.05 744.57,-633.22"/>
<polygon fill="#5d6972" stroke="#5d6972" stroke-width="1.2" points="743.38,-635.37 750.64,-636.86 745.9,-631.16 743.38,-635.37"/>
</g>
<!-- course__EOS460 -->
<g id="node16" class="node">
<title>course__EOS460</title>
<g id="a_node16"><a xlink:href="../../../courses/EOS460.html" xlink:title="EOS460: Earth System Science" target="_top">
<path fill="#d7e9ef" stroke="#7e8d96" d="M797,-491C797,-491 767,-491 767,-491 761,-491 755,-485 755,-479 755,-479 755,-467 755,-467 755,-461 761,-455 767,-455 767,-455 797,-455 797,-455 803,-455 809,-461 809,-467 809,-467 809,-479 809,-479 809,-485 803,-491 797,-491"/>
<text text-anchor="middle" x="782" y="-470.8" font-family="Avenir Next" font-size="9.00" fill="#41515b">EOS460</text>
</a>
</g>
</g>
<!-- course__EOS325&#45;&gt;course__EOS460 -->
<g id="edge21" class="edge">
<title>course__EOS325&#45;&gt;course__EOS460</title>
<path fill="none" stroke="#5d6972" stroke-width="1.2" d="M550.51,-496.36C597.46,-491.6 696.3,-481.59 747.96,-476.35"/>
<polygon fill="#5d6972" stroke="#5d6972" stroke-width="1.2" points="748.21,-478.79 754.93,-475.64 747.71,-473.91 748.21,-478.79"/>
</g>
<!-- choice_GEOG450_0 -->
<g id="node34" class="node">
<title>choice_GEOG450_0</title>
<path fill="#fff7ee" stroke="#b7793f" stroke-width="1.1" d="M657,-36C657,-36 627,-36 627,-36 621,-36 615,-30 615,-24 615,-24 615,-12 615,-12 615,-6 621,0 627,0 627,0 657,0 657,0 663,0 669,-6 669,-12 669,-12 669,-24 669,-24 669,-30 663,-36 657,-36"/>
<text text-anchor="middle" x="642" y="-15.8" font-family="Avenir Next" font-size="9.00">2 of</text>
</g>
<!-- course__GEOG301&#45;&gt;choice_GEOG450_0 -->
<g id="edge36" class="edge">
<title>course__GEOG301&#45;&gt;choice_GEOG450_0</title>
<path fill="none" stroke="#7a8389" d="M554.2,-18C570.6,-18 591.01,-18 607.91,-18"/>
<polygon fill="#7a8389" stroke="#7a8389" points="607.92,-20.45 614.92,-18 607.92,-15.55 607.92,-20.45"/>
</g>
<!-- course__BIOL446 -->
<g id="node12" class="node">
<title>course__BIOL446</title>
<g id="a_node12"><a xlink:href="../../../courses/BIOL446.html" xlink:title="BIOL446: Advanced Aquatic Ecology" target="_top">
<path fill="#dbe8d2" stroke="#7e8d96" d="M798,-92C798,-92 766,-92 766,-92 760,-92 754,-86 754,-80 754,-80 754,-68 754,-68 754,-62 760,-56 766,-56 766,-56 798,-56 798,-56 804,-56 810,-62 810,-68 810,-68 810,-80 810,-80 810,-86 804,-92 798,-92"/>
<text text-anchor="middle" x="782" y="-71.8" font-family="Avenir Next" font-size="9.00" fill="#41515b">BIOL446</text>
</a>
</g>
</g>
<!-- course__GEOG371&#45;&gt;course__BIOL446 -->
<g id="edge1" class="edge">
<title>course__GEOG371&#45;&gt;course__BIOL446</title>
<path fill="none" stroke="#5d6972" stroke-width="1.2" d="M554.17,-74C602.06,-74 696.12,-74 746.77,-74"/>
<polygon fill="#5d6972" stroke="#5d6972" stroke-width="1.2" points="746.92,-76.45 753.92,-74 746.92,-71.55 746.92,-76.45"/>
</g>
<!-- course__GEOG371&#45;&gt;choice_GEOG450_0 -->
<g id="edge37" class="edge">
<title>course__GEOG371&#45;&gt;choice_GEOG450_0</title>
<path fill="none" stroke="#7a8389" d="M554.2,-59.72C570.74,-51.77 591.37,-41.86 608.37,-33.69"/>
<polygon fill="#7a8389" stroke="#7a8389" points="609.68,-35.78 614.92,-30.53 607.55,-31.36 609.68,-35.78"/>
</g>
<!-- course__GEOG484 -->
<g id="node18" class="node">
<title>course__GEOG484</title>
<g id="a_node18"><a xlink:href="../../../courses/GEOG484.html" xlink:title="GEOG484: Advanced Topics in Weather and Climate" target="_top">
<path fill="#e7e2d8" stroke="#7e8d96" d="M800.5,-295C800.5,-295 763.5,-295 763.5,-295 757.5,-295 751.5,-289 751.5,-283 751.5,-283 751.5,-271 751.5,-271 751.5,-265 757.5,-259 763.5,-259 763.5,-259 800.5,-259 800.5,-259 806.5,-259 812.5,-265 812.5,-271 812.5,-271 812.5,-283 812.5,-283 812.5,-289 806.5,-295 800.5,-295"/>
<text text-anchor="middle" x="782" y="-274.8" font-family="Avenir Next" font-size="9.00" fill="#41515b">GEOG484</text>
</a>
</g>
</g>
<!-- course__GEOG373&#45;&gt;course__GEOG484 -->
<g id="edge42" class="edge">
<title>course__GEOG373&#45;&gt;course__GEOG484</title>
<path fill="none" stroke="#5d6972" stroke-width="1.2" d="M554.17,-277C601.18,-277 692.68,-277 743.94,-277"/>
<polygon fill="#5d6972" stroke="#5d6972" stroke-width="1.2" points="744.2,-279.45 751.2,-277 744.2,-274.55 744.2,-279.45"/>
</g>
<!-- choice_GEOG405_0 -->
<g id="node33" class="node">
<title>choice_GEOG405_0</title>
<path fill="#fff7ee" stroke="#b7793f" stroke-width="1.1" d="M1174,-344C1174,-344 1144,-344 1144,-344 1138,-344 1132,-338 1132,-332 1132,-332 1132,-320 1132,-320 1132,-314 1138,-308 1144,-308 1144,-308 1174,-308 1174,-308 1180,-308 1186,-314 1186,-320 1186,-320 1186,-332 1186,-332 1186,-338 1180,-344 1174,-344"/>
<text text-anchor="middle" x="1159" y="-323.8" font-family="Avenir Next" font-size="9.00">1 of</text>
</g>
<!-- course__GEOG373&#45;&gt;choice_GEOG405_0 -->
<g id="edge33" class="edge">
<title>course__GEOG373&#45;&gt;choice_GEOG405_0</title>
<path fill="none" stroke="#7a8389" d="M554.16,-286.45C601.57,-300.69 697.58,-326 781,-326 781,-326 781,-326 923,-326 994.88,-326 1079.14,-326 1124.68,-326"/>
<polygon fill="#7a8389" stroke="#7a8389" points="1124.92,-328.45 1131.92,-326 1124.92,-323.55 1124.92,-328.45"/>
</g>
<!-- choice_GEOG477_0_0 -->
<g id="node35" class="node">
<title>choice_GEOG477_0_0</title>
<path fill="#fff7ee" stroke="#b7793f" stroke-width="1.1" d="M1174,-267C1174,-267 1144,-267 1144,-267 1138,-267 1132,-261 1132,-255 1132,-255 1132,-243 1132,-243 1132,-237 1138,-231 1144,-231 1144,-231 1174,-231 1174,-231 1180,-231 1186,-237 1186,-243 1186,-243 1186,-255 1186,-255 1186,-261 1180,-267 1174,-267"/>
<text text-anchor="middle" x="1159" y="-246.8" font-family="Avenir Next" font-size="9.00">1 of</text>
</g>
<!-- course__GEOG373&#45;&gt;choice_GEOG477_0_0 -->
<g id="edge40" class="edge">
<title>course__GEOG373&#45;&gt;choice_GEOG477_0_0</title>
<path fill="none" stroke="#7a8389" d="M554.16,-267.55C601.57,-253.31 697.58,-228 781,-228 781,-228 781,-228 923,-228 995.32,-228 1079.66,-237.99 1125.05,-244.19"/>
<polygon fill="#7a8389" stroke="#7a8389" points="1124.72,-246.62 1131.99,-245.15 1125.39,-241.76 1124.72,-246.62"/>
</g>
<!-- choice_GEOG489_0_1 -->
<g id="node36" class="node">
<title>choice_GEOG489_0_1</title>
<path fill="#fff7ee" stroke="#b7793f" stroke-width="1.1" d="M937,-393C937,-393 907,-393 907,-393 901,-393 895,-387 895,-381 895,-381 895,-369 895,-369 895,-363 901,-357 907,-357 907,-357 937,-357 937,-357 943,-357 949,-363 949,-369 949,-369 949,-381 949,-381 949,-387 943,-393 937,-393"/>
<text text-anchor="middle" x="922" y="-372.8" font-family="Avenir Next" font-size="9.00">1 of</text>
</g>
<!-- course__GEOG373&#45;&gt;choice_GEOG489_0_1 -->
<g id="edge43" class="edge">
<title>course__GEOG373&#45;&gt;choice_GEOG489_0_1</title>
<path fill="none" stroke="#7a8389" d="M543.57,-295.27C560.78,-310.55 587.54,-331.5 615,-342 709.05,-377.95 830.44,-378.86 887.96,-376.83"/>
<polygon fill="#7a8389" stroke="#7a8389" points="888.09,-379.28 894.99,-376.56 887.9,-374.38 888.09,-379.28"/>
</g>
<!-- course__EOS433 -->
<g id="node20" class="node">
<title>course__EOS433</title>
<g id="a_node20"><a xlink:href="../../../courses/EOS433.html" xlink:title="EOS433: The Physics of Climate" target="_top">
<path fill="#d7e9ef" stroke="#7e8d96" d="M1055.5,-529C1055.5,-529 1025.5,-529 1025.5,-529 1019.5,-529 1013.5,-523 1013.5,-517 1013.5,-517 1013.5,-505 1013.5,-505 1013.5,-499 1019.5,-493 1025.5,-493 1025.5,-493 1055.5,-493 1055.5,-493 1061.5,-493 1067.5,-499 1067.5,-505 1067.5,-505 1067.5,-517 1067.5,-517 1067.5,-523 1061.5,-529 1055.5,-529"/>
<text text-anchor="middle" x="1040.5" y="-508.8" font-family="Avenir Next" font-size="9.00" fill="#41515b">EOS433</text>
</a>
</g>
</g>
<!-- course__EOS340&#45;&gt;course__EOS433 -->
<g id="edge19" class="edge">
<title>course__EOS340&#45;&gt;course__EOS433</title>
<path fill="none" stroke="#5d6972" stroke-width="1.2" d="M834.29,-525.4C885.43,-521.81 962.46,-516.41 1006.15,-513.34"/>
<polygon fill="#5d6972" stroke="#5d6972" stroke-width="1.2" points="1006.57,-515.77 1013.38,-512.83 1006.23,-510.88 1006.57,-515.77"/>
</g>
<!-- course__EOS451 -->
<g id="node21" class="node">
<title>course__EOS451</title>
<g id="a_node21"><a xlink:href="../../../courses/EOS451.html" xlink:title="EOS451: Introductory Dynamic Meteorology" target="_top">
<path fill="#d7e9ef" stroke="#7e8d96" d="M1055.5,-585C1055.5,-585 1025.5,-585 1025.5,-585 1019.5,-585 1013.5,-579 1013.5,-573 1013.5,-573 1013.5,-561 1013.5,-561 1013.5,-555 1019.5,-549 1025.5,-549 1025.5,-549 1055.5,-549 1055.5,-549 1061.5,-549 1067.5,-555 1067.5,-561 1067.5,-561 1067.5,-573 1067.5,-573 1067.5,-579 1061.5,-585 1055.5,-585"/>
<text text-anchor="middle" x="1040.5" y="-564.8" font-family="Avenir Next" font-size="9.00" fill="#41515b">EOS451</text>
</a>
</g>
</g>
<!-- course__EOS340&#45;&gt;course__EOS451 -->
<g id="edge20" class="edge">
<title>course__EOS340&#45;&gt;course__EOS451</title>
<path fill="none" stroke="#5d6972" stroke-width="1.2" d="M834.29,-536.6C885.53,-544.19 962.78,-555.63 1006.42,-562.1"/>
<polygon fill="#5d6972" stroke="#5d6972" stroke-width="1.2" points="1006.1,-564.53 1013.38,-563.13 1006.82,-559.68 1006.1,-564.53"/>
</g>
<!-- course__EOS340&#45;&gt;choice_GEOG370_0_0 -->
<g id="edge27" class="edge">
<title>course__EOS340&#45;&gt;choice_GEOG370_0_0</title>
<path fill="none" stroke="#7a8389" d="M822.71,-510.99C826.86,-508.05 830.74,-504.72 834,-501 837.48,-497.03 889.78,-359.49 911.57,-301.93"/>
<polygon fill="#7a8389" stroke="#7a8389" points="913.89,-302.74 914.07,-295.32 909.31,-301 913.89,-302.74"/>
</g>
<!-- course__EOS340&#45;&gt;choice_GEOG405_0 -->
<g id="edge34" class="edge">
<title>course__EOS340&#45;&gt;choice_GEOG405_0</title>
<path fill="none" stroke="#7a8389" d="M834.05,-517.9C894.45,-503.07 996.24,-472.61 1071,-422 1099.77,-402.52 1125.5,-371.59 1141.38,-350.13"/>
<polygon fill="#7a8389" stroke="#7a8389" points="1143.45,-351.44 1145.59,-344.34 1139.49,-348.56 1143.45,-351.44"/>
</g>
<!-- course__EOS340&#45;&gt;choice_GEOG489_0_1 -->
<g id="edge44" class="edge">
<title>course__EOS340&#45;&gt;choice_GEOG489_0_1</title>
<path fill="none" stroke="#7a8389" d="M820.85,-510.87C825.51,-507.89 830.03,-504.59 834,-501 866.88,-471.32 893.82,-426.89 908.62,-399.49"/>
<polygon fill="#7a8389" stroke="#7a8389" points="910.82,-400.57 911.94,-393.24 906.49,-398.27 910.82,-400.57"/>
</g>
<!-- choice_PHYS411_0_0 -->
<g id="node37" class="node">
<title>choice_PHYS411_0_0</title>
<path fill="#fff7ee" stroke="#b7793f" stroke-width="1.1" d="M937,-641C937,-641 907,-641 907,-641 901,-641 895,-635 895,-629 895,-629 895,-617 895,-617 895,-611 901,-605 907,-605 907,-605 937,-605 937,-605 943,-605 949,-611 949,-617 949,-617 949,-629 949,-629 949,-635 943,-641 937,-641"/>
<text text-anchor="middle" x="922" y="-620.8" font-family="Avenir Next" font-size="9.00">2 of</text>
</g>
<!-- course__EOS340&#45;&gt;choice_PHYS411_0_0 -->
<g id="edge47" class="edge">
<title>course__EOS340&#45;&gt;choice_PHYS411_0_0</title>
<path fill="none" stroke="#7a8389" d="M817.7,-547.15C823.23,-550.3 828.83,-553.65 834,-557 854.72,-570.44 876.88,-587.3 893.65,-600.61"/>
<polygon fill="#7a8389" stroke="#7a8389" points="892.12,-602.52 899.12,-604.97 895.18,-598.69 892.12,-602.52"/>
</g>
<!-- course__EOS431&#45;&gt;choice_EOS312_0_0 -->
<g id="edge5" class="edge">
<title>course__EOS431&#45;&gt;choice_EOS312_0_0</title>
<path fill="none" stroke="#7a8389" d="M820.71,-673.03C841.88,-683.16 868.04,-695.67 888.33,-705.37"/>
<polygon fill="#7a8389" stroke="#7a8389" points="887.33,-707.61 894.7,-708.42 889.44,-703.19 887.33,-707.61"/>
</g>
<!-- choice_EOS401_0 -->
<g id="node31" class="node">
<title>choice_EOS401_0</title>
<path fill="#fff7ee" stroke="#b7793f" stroke-width="1.1" d="M1174,-714C1174,-714 1144,-714 1144,-714 1138,-714 1132,-708 1132,-702 1132,-702 1132,-690 1132,-690 1132,-684 1138,-678 1144,-678 1144,-678 1174,-678 1174,-678 1180,-678 1186,-684 1186,-690 1186,-690 1186,-702 1186,-702 1186,-708 1180,-714 1174,-714"/>
<text text-anchor="middle" x="1159" y="-693.8" font-family="Avenir Next" font-size="9.00">3 of</text>
</g>
<!-- course__EOS431&#45;&gt;choice_EOS401_0 -->
<g id="edge15" class="edge">
<title>course__EOS431&#45;&gt;choice_EOS401_0</title>
<path fill="none" stroke="#7a8389" d="M834.36,-660.61C912.39,-669.15 1058.67,-685.14 1124.45,-692.33"/>
<polygon fill="#7a8389" stroke="#7a8389" points="1124.47,-694.8 1131.69,-693.12 1125,-689.93 1124.47,-694.8"/>
</g>
<!-- course__EOS431&#45;&gt;choice_PHYS411_0_0 -->
<g id="edge48" class="edge">
<title>course__EOS431&#45;&gt;choice_PHYS411_0_0</title>
<path fill="none" stroke="#7a8389" d="M834.39,-643.08C852.2,-638.95 871.68,-634.44 887.66,-630.73"/>
<polygon fill="#7a8389" stroke="#7a8389" points="888.46,-633.06 894.73,-629.09 887.36,-628.29 888.46,-633.06"/>
</g>
<!-- course__GEOG450 -->
<g id="node17" class="node">
<title>course__GEOG450</title>
<g id="a_node17"><a xlink:href="../../../courses/GEOG450.html" xlink:title="GEOG450: Environment and Sustainability in Practice" target="_top">
<path fill="#e7e2d8" stroke="#7e8d96" d="M800.5,-36C800.5,-36 763.5,-36 763.5,-36 757.5,-36 751.5,-30 751.5,-24 751.5,-24 751.5,-12 751.5,-12 751.5,-6 757.5,0 763.5,0 763.5,0 800.5,0 800.5,0 806.5,0 812.5,-6 812.5,-12 812.5,-12 812.5,-24 812.5,-24 812.5,-30 806.5,-36 800.5,-36"/>
<text text-anchor="middle" x="782" y="-15.8" font-family="Avenir Next" font-size="9.00" fill="#41515b">GEOG450</text>
</a>
</g>
</g>
<!-- course__EOS312 -->
<g id="node19" class="node">
<title>course__EOS312</title>
<g id="a_node19"><a xlink:href="../../../courses/EOS312.html" xlink:title="EOS312: Introductory Chemical Oceanography" target="_top">
<path fill="#d7e9ef" stroke="#1b2730" stroke-width="1.6" d="M1055.5,-739C1055.5,-739 1025.5,-739 1025.5,-739 1019.5,-739 1013.5,-733 1013.5,-727 1013.5,-727 1013.5,-715 1013.5,-715 1013.5,-709 1019.5,-703 1025.5,-703 1025.5,-703 1055.5,-703 1055.5,-703 1061.5,-703 1067.5,-709 1067.5,-715 1067.5,-715 1067.5,-727 1067.5,-727 1067.5,-733 1061.5,-739 1055.5,-739"/>
<text text-anchor="middle" x="1040.5" y="-718.5" font-family="Avenir Next" font-size="10.00" fill="#17232b">EOS312</text>
</a>
</g>
</g>
<!-- course__EOS312&#45;&gt;choice_EOS401_0 -->
<g id="edge14" class="edge">
<title>course__EOS312&#45;&gt;choice_EOS401_0</title>
<path fill="none" stroke="#7a8389" d="M1067.64,-715.39C1084.58,-711.75 1106.79,-706.99 1124.95,-703.09"/>
<polygon fill="#7a8389" stroke="#7a8389" points="1125.61,-705.46 1131.94,-701.59 1124.58,-700.67 1125.61,-705.46"/>
</g>
<!-- course__GEOG370 -->
<g id="node22" class="node">
<title>course__GEOG370</title>
<g id="a_node22"><a xlink:href="../../../courses/GEOG370.html" xlink:title="GEOG370: Methods in Hydrology" target="_top">
<path fill="#e7e2d8" stroke="#7e8d96" d="M1059,-295C1059,-295 1022,-295 1022,-295 1016,-295 1010,-289 1010,-283 1010,-283 1010,-271 1010,-271 1010,-265 1016,-259 1022,-259 1022,-259 1059,-259 1059,-259 1065,-259 1071,-265 1071,-271 1071,-271 1071,-283 1071,-283 1071,-289 1065,-295 1059,-295"/>
<text text-anchor="middle" x="1040.5" y="-274.8" font-family="Avenir Next" font-size="9.00" fill="#41515b">GEOG370</text>
</a>
</g>
</g>
<!-- course__GEOG370&#45;&gt;choice_GEOG405_0 -->
<g id="edge32" class="edge">
<title>course__GEOG370&#45;&gt;choice_GEOG405_0</title>
<path fill="none" stroke="#7a8389" d="M1071.2,-289.49C1087.74,-296.45 1108.37,-305.13 1125.37,-312.27"/>
<polygon fill="#7a8389" stroke="#7a8389" points="1124.52,-314.58 1131.92,-315.03 1126.42,-310.06 1124.52,-314.58"/>
</g>
<!-- course__GEOG370&#45;&gt;choice_GEOG477_0_0 -->
<g id="edge39" class="edge">
<title>course__GEOG370&#45;&gt;choice_GEOG477_0_0</title>
<path fill="none" stroke="#7a8389" d="M1071.2,-269.86C1087.6,-265.92 1108.01,-261.02 1124.91,-256.95"/>
<polygon fill="#7a8389" stroke="#7a8389" points="1125.69,-259.29 1131.92,-255.27 1124.55,-254.52 1125.69,-259.29"/>
</g>
<!-- course__PHYS411 -->
<g id="node24" class="node">
<title>course__PHYS411</title>
<g id="a_node24"><a xlink:href="../../../courses/PHYS411.html" xlink:title="PHYS411: Time Series Analysis" target="_top">
<path fill="#efd8cf" stroke="#7e8d96" d="M1057.5,-641C1057.5,-641 1023.5,-641 1023.5,-641 1017.5,-641 1011.5,-635 1011.5,-629 1011.5,-629 1011.5,-617 1011.5,-617 1011.5,-611 1017.5,-605 1023.5,-605 1023.5,-605 1057.5,-605 1057.5,-605 1063.5,-605 1069.5,-611 1069.5,-617 1069.5,-617 1069.5,-629 1069.5,-629 1069.5,-635 1063.5,-641 1057.5,-641"/>
<text text-anchor="middle" x="1040.5" y="-620.8" font-family="Avenir Next" font-size="9.00" fill="#41515b">PHYS411</text>
</a>
</g>
</g>
<!-- course__EOS401 -->
<g id="node25" class="node">
<title>course__EOS401</title>
<g id="a_node25"><a xlink:href="../../../courses/EOS401.html" xlink:title="EOS401: Oceanographic Field School" target="_top">
<path fill="#d7e9ef" stroke="#7e8d96" d="M1292.5,-714C1292.5,-714 1262.5,-714 1262.5,-714 1256.5,-714 1250.5,-708 1250.5,-702 1250.5,-702 1250.5,-690 1250.5,-690 1250.5,-684 1256.5,-678 1262.5,-678 1262.5,-678 1292.5,-678 1292.5,-678 1298.5,-678 1304.5,-684 1304.5,-690 1304.5,-690 1304.5,-702 1304.5,-702 1304.5,-708 1298.5,-714 1292.5,-714"/>
<text text-anchor="middle" x="1277.5" y="-693.8" font-family="Avenir Next" font-size="9.00" fill="#41515b">EOS401</text>
</a>
</g>
</g>
<!-- course__GEOG405 -->
<g id="node26" class="node">
<title>course__GEOG405</title>
<g id="a_node26"><a xlink:href="../../../courses/GEOG405.html" xlink:title="GEOG405: Dynamics of the Cryosphere" target="_top">
<path fill="#e7e2d8" stroke="#7e8d96" d="M1296,-344C1296,-344 1259,-344 1259,-344 1253,-344 1247,-338 1247,-332 1247,-332 1247,-320 1247,-320 1247,-314 1253,-308 1259,-308 1259,-308 1296,-308 1296,-308 1302,-308 1308,-314 1308,-320 1308,-320 1308,-332 1308,-332 1308,-338 1302,-344 1296,-344"/>
<text text-anchor="middle" x="1277.5" y="-323.8" font-family="Avenir Next" font-size="9.00" fill="#41515b">GEOG405</text>
</a>
</g>
</g>
<!-- course__GEOG477 -->
<g id="node27" class="node">
<title>course__GEOG477</title>
<g id="a_node27"><a xlink:href="../../../courses/GEOG477.html" xlink:title="GEOG477: Field Studies in Physical Geography" target="_top">
<path fill="#e7e2d8" stroke="#7e8d96" d="M1296,-267C1296,-267 1259,-267 1259,-267 1253,-267 1247,-261 1247,-255 1247,-255 1247,-243 1247,-243 1247,-237 1253,-231 1259,-231 1259,-231 1296,-231 1296,-231 1302,-231 1308,-237 1308,-243 1308,-243 1308,-255 1308,-255 1308,-261 1302,-267 1296,-267"/>
<text text-anchor="middle" x="1277.5" y="-246.8" font-family="Avenir Next" font-size="9.00" fill="#41515b">GEOG477</text>
</a>
</g>
</g>
<!-- choice_EOS312_0_0&#45;&gt;course__EOS312 -->
<g id="edge6" class="edge">
<title>choice_EOS312_0_0&#45;&gt;course__EOS312</title>
<path fill="none" stroke="#5d6972" stroke-width="1.2" d="M949.14,-721C965.93,-721 987.9,-721 1005.96,-721"/>
<polygon fill="#5d6972" stroke="#5d6972" stroke-width="1.2" points="1006.44,-723.45 1013.44,-721 1006.44,-718.55 1006.44,-723.45"/>
</g>
<!-- choice_EOS321_0_1_0&#45;&gt;course__EOS321 -->
<g id="edge9" class="edge">
<title>choice_EOS321_0_1_0&#45;&gt;course__EOS321</title>
<path fill="none" stroke="#5d6972" stroke-width="1.2" d="M432.14,-537.16C449.08,-540.51 471.29,-544.89 489.45,-548.47"/>
<polygon fill="#5d6972" stroke="#5d6972" stroke-width="1.2" points="489.1,-550.9 496.44,-549.86 490.05,-546.1 489.1,-550.9"/>
</g>
<!-- choice_EOS325_0_2_0&#45;&gt;course__EOS325 -->
<g id="edge12" class="edge">
<title>choice_EOS325_0_2_0&#45;&gt;course__EOS325</title>
<path fill="none" stroke="#5d6972" stroke-width="1.2" d="M432.14,-481.16C449.08,-484.51 471.29,-488.89 489.45,-492.47"/>
<polygon fill="#5d6972" stroke="#5d6972" stroke-width="1.2" points="489.1,-494.9 496.44,-493.86 490.05,-490.1 489.1,-494.9"/>
</g>
<!-- choice_EOS401_0&#45;&gt;course__EOS401 -->
<g id="edge16" class="edge">
<title>choice_EOS401_0&#45;&gt;course__EOS401</title>
<path fill="none" stroke="#5d6972" stroke-width="1.2" d="M1186.14,-696C1202.93,-696 1224.9,-696 1242.96,-696"/>
<polygon fill="#5d6972" stroke="#5d6972" stroke-width="1.2" points="1243.44,-698.45 1250.44,-696 1243.44,-693.55 1243.44,-698.45"/>
</g>
<!-- choice_GEOG370_0_0&#45;&gt;course__GEOG370 -->
<g id="edge28" class="edge">
<title>choice_GEOG370_0_0&#45;&gt;course__GEOG370</title>
<path fill="none" stroke="#5d6972" stroke-width="1.2" d="M949.14,-277C964.88,-277 985.15,-277 1002.51,-277"/>
<polygon fill="#5d6972" stroke="#5d6972" stroke-width="1.2" points="1002.75,-279.45 1009.75,-277 1002.75,-274.55 1002.75,-279.45"/>
</g>
<!-- choice_GEOG405_0&#45;&gt;course__GEOG405 -->
<g id="edge35" class="edge">
<title>choice_GEOG405_0&#45;&gt;course__GEOG405</title>
<path fill="none" stroke="#5d6972" stroke-width="1.2" d="M1186.14,-326C1201.88,-326 1222.15,-326 1239.51,-326"/>
<polygon fill="#5d6972" stroke="#5d6972" stroke-width="1.2" points="1239.75,-328.45 1246.75,-326 1239.75,-323.55 1239.75,-328.45"/>
</g>
<!-- choice_GEOG450_0&#45;&gt;course__GEOG450 -->
<g id="edge38" class="edge">
<title>choice_GEOG450_0&#45;&gt;course__GEOG450</title>
<path fill="none" stroke="#5d6972" stroke-width="1.2" d="M669.28,-18C690.54,-18 720.73,-18 744.36,-18"/>
<polygon fill="#5d6972" stroke="#5d6972" stroke-width="1.2" points="744.47,-20.45 751.47,-18 744.47,-15.55 744.47,-20.45"/>
</g>
<!-- choice_GEOG477_0_0&#45;&gt;course__GEOG477 -->
<g id="edge41" class="edge">
<title>choice_GEOG477_0_0&#45;&gt;course__GEOG477</title>
<path fill="none" stroke="#5d6972" stroke-width="1.2" d="M1186.14,-249C1201.88,-249 1222.15,-249 1239.51,-249"/>
<polygon fill="#5d6972" stroke="#5d6972" stroke-width="1.2" points="1239.75,-251.45 1246.75,-249 1239.75,-246.55 1239.75,-251.45"/>
</g>
<!-- choice_GEOG489_0_1&#45;&gt;course__GEOG489 -->
<g id="edge46" class="edge">
<title>choice_GEOG489_0_1&#45;&gt;course__GEOG489</title>
<path fill="none" stroke="#5d6972" stroke-width="1.2" d="M949.14,-379.26C964.88,-381.83 985.15,-385.14 1002.51,-387.97"/>
<polygon fill="#5d6972" stroke="#5d6972" stroke-width="1.2" points="1002.44,-390.44 1009.75,-389.15 1003.23,-385.6 1002.44,-390.44"/>
</g>
<!-- choice_PHYS411_0_0&#45;&gt;course__PHYS411 -->
<g id="edge49" class="edge">
<title>choice_PHYS411_0_0&#45;&gt;course__PHYS411</title>
<path fill="none" stroke="#5d6972" stroke-width="1.2" d="M949.14,-623C965.35,-623 986.37,-623 1004.05,-623"/>
<polygon fill="#5d6972" stroke="#5d6972" stroke-width="1.2" points="1004.41,-625.45 1011.41,-623 1004.41,-620.55 1004.41,-625.45"/>
</g>
</g>
</svg>
