<?xml version="1.0" encoding="UTF-8" standalone="no"?>
<!DOCTYPE svg PUBLIC "-//W3C//DTD SVG 1.1//EN"
 "http://www.w3.org/Graphics/SVG/1.1/DTD/svg11.dtd">
<!-- Generated by graphviz version 2.43.0 (0)
 -->
<!-- Title: EOS350 Pages: 1 -->
<svg width="697pt" height="303pt"
 viewBox="0.00 0.00 697.20 303.20" xmlns="http://www.w3.org/2000/svg" xmlns:xlink="http://www.w3.org/1999/xlink">
<g id="graph0" class="graph" transform="scale(1 1) rotate(0) translate(21.6 281.6)">
<title>EOS350</title>
<!-- course__EOS110 -->
<g id="node1" class="node">
<title>course__EOS110</title>
<g id="a_node1"><a xlink:href="../../../courses/EOS350.html" xlink:title="Equivalent or cross&#45;listed: EOS110: Oceans and Atmosphere | EOS350: Understanding the Oceans" target="_top">
<path fill="#d7e9ef" stroke="#1f4f66" stroke-width="2" d="M471,-148C471,-148 349,-148 349,-148 343,-148 337,-142 337,-136 337,-136 337,-124 337,-124 337,-118 343,-112 349,-112 349,-112 471,-112 471,-112 477,-112 483,-118 483,-124 483,-124 483,-136 483,-136 483,-142 477,-148 471,-148"/>
<text text-anchor="middle" x="410" y="-133" font-family="Avenir Next" font-size="10.00" fill="#17232b">EOS110 / EOS350</text>
<text text-anchor="middle" x="410" y="-122" font-family="Avenir Next" font-size="10.00" fill="#17232b">Understanding the Oceans</text>
</a>
</g>
</g>
<!-- course__EOS230 -->
<g id="node2" class="node">
<title>course__EOS230</title>
<g id="a_node2"><a xlink:href="../../../courses/EOS230.html" xlink:title="Equivalent or cross&#45;listed: EOS230: Introduction to Environmental Data Analysis | GEOG230: Introduction to Environmental Data Analysis" target="_top">
<path fill="#d7e9ef" stroke="#1b2730" stroke-width="1.6" d="M642,-260C642,-260 556,-260 556,-260 550,-260 544,-254 544,-248 544,-248 544,-236 544,-236 544,-230 550,-224 556,-224 556,-224 642,-224 642,-224 648,-224 654,-230 654,-236 654,-236 654,-248 654,-248 654,-254 648,-260 642,-260"/>
<text text-anchor="middle" x="599" y="-239.5" font-family="Avenir Next" font-size="10.00" fill="#17232b">EOS230 / GEOG230</text>
</a>
</g>
</g>
<!-- course__EOS110&#45;&gt;course__EOS230 -->
<g id="edge2" class="edge">
<title>course__EOS110&#45;&gt;course__EOS230</title>
<path fill="none" stroke="#5d6972" stroke-width="1.2" d="M438.09,-148.07C464.68,-165.56 506.57,-192.53 544,-214 547.79,-216.17 551.76,-218.37 555.76,-220.54"/>
<polygon fill="#5d6972" stroke="#5d6972" stroke-width="1.2" points="554.71,-222.76 562.04,-223.9 557.02,-218.44 554.71,-222.76"/>
</g>
<!-- course__EOS261 -->
<g id="node3" class="node">
<title>course__EOS261</title>
<g id="a_node3"><a xlink:href="../../../courses/EOS261.html" xlink:title="EOS261: The Climate System" target="_top">
<path fill="#d7e9ef" stroke="#1b2730" stroke-width="1.6" d="M614,-204C614,-204 584,-204 584,-204 578,-204 572,-198 572,-192 572,-192 572,-180 572,-180 572,-174 578,-168 584,-168 584,-168 614,-168 614,-168 620,-168 626,-174 626,-180 626,-180 626,-192 626,-192 626,-198 620,-204 614,-204"/>
<text text-anchor="middle" x="599" y="-183.5" font-family="Avenir Next" font-size="10.00" fill="#17232b">EOS261</text>
</a>
</g>
</g>
<!-- course__EOS110&#45;&gt;course__EOS261 -->
<g id="edge3" class="edge">
<title>course__EOS110&#45;&gt;course__EOS261</title>
<path fill="none" stroke="#5d6972" stroke-width="1.2" d="M471.2,-148.03C502.23,-157.32 538.9,-168.3 564.8,-176.06"/>
<polygon fill="#5d6972" stroke="#5d6972" stroke-width="1.2" points="564.4,-178.49 571.8,-178.16 565.8,-173.8 564.4,-178.49"/>
</g>
<!-- course__EOS312 -->
<g id="node4" class="node">
<title>course__EOS312</title>
<g id="a_node4"><a xlink:href="../../../courses/EOS312.html" xlink:title="EOS312: Introductory Chemical Oceanography" target="_top">
<path fill="#d7e9ef" stroke="#1b2730" stroke-width="1.6" d="M614,-148C614,-148 584,-148 584,-148 578,-148 572,-142 572,-136 572,-136 572,-124 572,-124 572,-118 578,-112 584,-112 584,-112 614,-112 614,-112 620,-112 626,-118 626,-124 626,-124 626,-136 626,-136 626,-142 620,-148 614,-148"/>
<text text-anchor="middle" x="599" y="-127.5" font-family="Avenir Next" font-size="10.00" fill="#17232b">EOS312</text>
</a>
</g>
</g>
<!-- course__EOS110&#45;&gt;course__EOS312 -->
<g id="edge4" class="edge">
<title>course__EOS110&#45;&gt;course__EOS312</title>
<path fill="none" stroke="#5d6972" stroke-width="1.2" d="M483.03,-130C511.26,-130 542.24,-130 564.92,-130"/>
<polygon fill="#5d6972" stroke="#5d6972" stroke-width="1.2" points="564.98,-132.45 571.98,-130 564.98,-127.55 564.98,-132.45"/>
</g>
<!-- course__GEOG209 -->
<g id="node5" class="node">
<title>course__GEOG209</title>
<g id="a_node5"><a xlink:href="../../../courses/GEOG209.html" xlink:title="GEOG209: Environmental Management" target="_top">
<path fill="#e7e2d8" stroke="#1b2730" stroke-width="1.6" d="M618.5,-92C618.5,-92 579.5,-92 579.5,-92 573.5,-92 567.5,-86 567.5,-80 567.5,-80 567.5,-68 567.5,-68 567.5,-62 573.5,-56 579.5,-56 579.5,-56 618.5,-56 618.5,-56 624.5,-56 630.5,-62 630.5,-68 630.5,-68 630.5,-80 630.5,-80 630.5,-86 624.5,-92 618.5,-92"/>
<text text-anchor="middle" x="599" y="-71.5" font-family="Avenir Next" font-size="10.00" fill="#17232b">GEOG209</text>
</a>
</g>
</g>
<!-- course__EOS110&#45;&gt;course__GEOG209 -->
<g id="edge5" class="edge">
<title>course__EOS110&#45;&gt;course__GEOG209</title>
<path fill="none" stroke="#5d6972" stroke-width="1.2" d="M471.2,-111.97C500.48,-103.21 534.77,-92.94 560.3,-85.29"/>
<polygon fill="#5d6972" stroke="#5d6972" stroke-width="1.2" points="561.26,-87.56 567.26,-83.21 559.85,-82.87 561.26,-87.56"/>
</g>
<!-- course__GEOG272 -->
<g id="node6" class="node">
<title>course__GEOG272</title>
<g id="a_node6"><a xlink:href="../../../courses/GEOG272.html" xlink:title="GEOG272: Climatology and Hydrology" target="_top">
<path fill="#e7e2d8" stroke="#1b2730" stroke-width="1.6" d="M618.5,-36C618.5,-36 579.5,-36 579.5,-36 573.5,-36 567.5,-30 567.5,-24 567.5,-24 567.5,-12 567.5,-12 567.5,-6 573.5,0 579.5,0 579.5,0 618.5,0 618.5,0 624.5,0 630.5,-6 630.5,-12 630.5,-12 630.5,-24 630.5,-24 630.5,-30 624.5,-36 618.5,-36"/>
<text text-anchor="middle" x="599" y="-15.5" font-family="Avenir Next" font-size="10.00" fill="#17232b">GEOG272</text>
</a>
</g>
</g>
<!-- course__EOS110&#45;&gt;course__GEOG272 -->
<g id="edge6" class="edge">
<title>course__EOS110&#45;&gt;course__GEOG272</title>
<path fill="none" stroke="#5d6972" stroke-width="1.2" d="M438.09,-111.93C464.68,-94.44 506.57,-67.47 544,-46 549.52,-42.84 555.43,-39.61 561.24,-36.53"/>
<polygon fill="#5d6972" stroke="#5d6972" stroke-width="1.2" points="562.42,-38.67 567.48,-33.25 560.15,-34.33 562.42,-38.67"/>
</g>
<!-- EOS350_notes -->
<g id="node7" class="node">
<title>EOS350_notes</title>
<polygon fill="#fff7ee" stroke="#b7793f" stroke-width="1.1" points="208,-153 0,-153 0,-107 214,-107 214,-147 208,-153"/>
<polyline fill="none" stroke="#b7793f" stroke-width="1.1" points="208,-153 208,-147 "/>
<polyline fill="none" stroke="#b7793f" stroke-width="1.1" points="214,-147 208,-147 "/>
<text text-anchor="start" x="13" y="-133.4" font-family="Avenir Next" font-size="12.00">Published notes</text>
<text text-anchor="start" x="13" y="-120.4" font-family="Avenir Next" font-size="12.00">Minimum second&#45;year standing</text>
</g>
<!-- EOS350_notes&#45;&gt;course__EOS110 -->
</g>
</svg>
