<?xml version="1.0" encoding="UTF-8" standalone="no"?>
<!DOCTYPE svg PUBLIC "-//W3C//DTD SVG 1.1//EN"
 "http://www.w3.org/Graphics/SVG/1.1/DTD/svg11.dtd">
<!-- Generated by graphviz version 2.43.0 (0)
 -->
<!-- Title: EOS321 Pages: 1 -->
<svg width="1524pt" height="833pt"
 viewBox="0.00 0.00 1524.20 833.20" xmlns="http://www.w3.org/2000/svg" xmlns:xlink="http://www.w3.org/1999/xlink">
<g id="graph0" class="graph" transform="scale(1 1) rotate(0) translate(21.6 811.6)">
<title>EOS321</title>
<!-- course__CHEM091 -->
<g id="node1" class="node">
<title>course__CHEM091</title>
<g id="a_node1"><a xlink:href="../../../courses/CHEM091.html" xlink:title="CHEM091: Introduction to Chemistry" target="_top">
<path fill="#ead9b8" stroke="#7e8d96" d="M325.5,-337C325.5,-337 288.5,-337 288.5,-337 282.5,-337 276.5,-331 276.5,-325 276.5,-325 276.5,-313 276.5,-313 276.5,-307 282.5,-301 288.5,-301 288.5,-301 325.5,-301 325.5,-301 331.5,-301 337.5,-307 337.5,-313 337.5,-313 337.5,-325 337.5,-325 337.5,-331 331.5,-337 325.5,-337"/>
<text text-anchor="middle" x="307" y="-316.8" font-family="Avenir Next" font-size="9.00" fill="#41515b">CHEM091</text>
</a>
</g>
</g>
<!-- course__CHEM102 -->
<g id="node4" class="node">
<title>course__CHEM102</title>
<g id="a_node4"><a xlink:href="../../../courses/CHEM102.html" xlink:title="CHEM102: Chemical Reactivity Fundamentals with Environmental Applications" target="_top">
<path fill="#ead9b8" stroke="#7e8d96" d="M474,-309C474,-309 437,-309 437,-309 431,-309 425,-303 425,-297 425,-297 425,-285 425,-285 425,-279 431,-273 437,-273 437,-273 474,-273 474,-273 480,-273 486,-279 486,-285 486,-285 486,-297 486,-297 486,-303 480,-309 474,-309"/>
<text text-anchor="middle" x="455.5" y="-288.8" font-family="Avenir Next" font-size="9.00" fill="#41515b">CHEM102</text>
</a>
</g>
</g>
<!-- course__CHEM091&#45;&gt;course__CHEM102 -->
<g id="edge2" class="edge">
<title>course__CHEM091&#45;&gt;course__CHEM102</title>
<path fill="none" stroke="#5d6972" stroke-width="1.2" d="M337.65,-313.33C360.78,-308.91 393.04,-302.75 417.8,-298.01"/>
<polygon fill="#5d6972" stroke="#5d6972" stroke-width="1.2" points="418.48,-300.38 424.9,-296.66 417.56,-295.57 418.48,-300.38"/>
</g>
<!-- course__CHEM101 -->
<g id="node2" class="node">
<title>course__CHEM101</title>
<g id="a_node2"><a xlink:href="../../../courses/CHEM101.html" xlink:title="Equivalent or cross&#45;listed: CHEM101: Fundamentals of Chemistry from Atoms to Materials | CHEM150: Engineering Chemistry" target="_top">
<path fill="#ead9b8" stroke="#7e8d96" d="M352,-281C352,-281 262,-281 262,-281 256,-281 250,-275 250,-269 250,-269 250,-257 250,-257 250,-251 256,-245 262,-245 262,-245 352,-245 352,-245 358,-245 364,-251 364,-257 364,-257 364,-269 364,-269 364,-275 358,-281 352,-281"/>
<text text-anchor="middle" x="307" y="-260.8" font-family="Avenir Next" font-size="9.00" fill="#41515b">CHEM101 / CHEM150</text>
</a>
</g>
</g>
<!-- course__CHEM101&#45;&gt;course__CHEM102 -->
<g id="edge3" class="edge">
<title>course__CHEM101&#45;&gt;course__CHEM102</title>
<path fill="none" stroke="#5d6972" stroke-width="1.2" d="M364.22,-273.75C382.14,-277.17 401.49,-280.87 417.66,-283.96"/>
<polygon fill="#5d6972" stroke="#5d6972" stroke-width="1.2" points="417.52,-286.43 424.85,-285.33 418.44,-281.61 417.52,-286.43"/>
</g>
<!-- course__MATH100 -->
<g id="node3" class="node">
<title>course__MATH100</title>
<g id="a_node3"><a xlink:href="../../../courses/MATH100.html" xlink:title="Equivalent or cross&#45;listed: MATH100: Calculus I | MATH102: Calculus for Students in the Social and Biological Sciences | MATH109: Introduction to Calculus" target="_top">
<path fill="#dfe3f4" stroke="#7e8d96" d="M350.5,-523C350.5,-523 263.5,-523 263.5,-523 257.5,-523 251.5,-517 251.5,-511 251.5,-511 251.5,-499 251.5,-499 251.5,-493 257.5,-487 263.5,-487 263.5,-487 350.5,-487 350.5,-487 356.5,-487 362.5,-493 362.5,-499 362.5,-499 362.5,-511 362.5,-511 362.5,-517 356.5,-523 350.5,-523"/>
<text text-anchor="middle" x="307" y="-507.8" font-family="Avenir Next" font-size="9.00" fill="#41515b">MATH100 / MATH102</text>
<text text-anchor="middle" x="307" y="-497.8" font-family="Avenir Next" font-size="9.00" fill="#41515b">MATH109</text>
</a>
</g>
</g>
<!-- course__MATH100&#45;&gt;course__CHEM102 -->
<g id="edge4" class="edge">
<title>course__MATH100&#45;&gt;course__CHEM102</title>
<path fill="none" stroke="#5d6972" stroke-width="1.2" d="M320.49,-486.75C346.87,-448.22 408.27,-358.53 437.91,-315.24"/>
<polygon fill="#5d6972" stroke="#5d6972" stroke-width="1.2" points="440.11,-316.36 442.04,-309.2 436.07,-313.59 440.11,-316.36"/>
</g>
<!-- course__MATH101 -->
<g id="node7" class="node">
<title>course__MATH101</title>
<g id="a_node7"><a xlink:href="../../../courses/MATH101.html" xlink:title="MATH101: Calculus II" target="_top">
<path fill="#dfe3f4" stroke="#7e8d96" d="M618.5,-575C618.5,-575 583.5,-575 583.5,-575 577.5,-575 571.5,-569 571.5,-563 571.5,-563 571.5,-551 571.5,-551 571.5,-545 577.5,-539 583.5,-539 583.5,-539 618.5,-539 618.5,-539 624.5,-539 630.5,-545 630.5,-551 630.5,-551 630.5,-563 630.5,-563 630.5,-569 624.5,-575 618.5,-575"/>
<text text-anchor="middle" x="601" y="-554.8" font-family="Avenir Next" font-size="9.00" fill="#41515b">MATH101</text>
</a>
</g>
</g>
<!-- course__MATH100&#45;&gt;course__MATH101 -->
<g id="edge43" class="edge">
<title>course__MATH100&#45;&gt;course__MATH101</title>
<path fill="none" stroke="#5d6972" stroke-width="1.2" d="M362.58,-514.72C421.58,-525.23 513.91,-541.67 564.28,-550.64"/>
<polygon fill="#5d6972" stroke="#5d6972" stroke-width="1.2" points="564.08,-553.09 571.4,-551.91 564.93,-548.27 564.08,-553.09"/>
</g>
<!-- course__PHYS110 -->
<g id="node9" class="node">
<title>course__PHYS110</title>
<g id="a_node9"><a xlink:href="../../../courses/PHYS110.html" xlink:title="Equivalent or cross&#45;listed: PHYS110: Introductory Physics I | PHYS120: Physics I" target="_top">
<path fill="#efd8cf" stroke="#7e8d96" d="M643,-428C643,-428 559,-428 559,-428 553,-428 547,-422 547,-416 547,-416 547,-404 547,-404 547,-398 553,-392 559,-392 559,-392 643,-392 643,-392 649,-392 655,-398 655,-404 655,-404 655,-416 655,-416 655,-422 649,-428 643,-428"/>
<text text-anchor="middle" x="601" y="-407.8" font-family="Avenir Next" font-size="9.00" fill="#41515b">PHYS110 / PHYS120</text>
</a>
</g>
</g>
<!-- course__MATH100&#45;&gt;course__PHYS110 -->
<g id="edge47" class="edge">
<title>course__MATH100&#45;&gt;course__PHYS110</title>
<path fill="none" stroke="#5d6972" stroke-width="1.2" d="M348.4,-486.94C370.72,-477.34 399.1,-465.75 425,-457 462.56,-444.31 505.56,-432.72 539.53,-424.23"/>
<polygon fill="#5d6972" stroke="#5d6972" stroke-width="1.2" points="540.43,-426.53 546.64,-422.46 539.25,-421.77 540.43,-426.53"/>
</g>
<!-- course__PHYS111 -->
<g id="node17" class="node">
<title>course__PHYS111</title>
<g id="a_node17"><a xlink:href="../../../courses/PHYS111.html" xlink:title="Equivalent or cross&#45;listed: PHYS111: Introductory Physics II | PHYS130: Physics II" target="_top">
<path fill="#efd8cf" stroke="#7e8d96" d="M927,-459C927,-459 843,-459 843,-459 837,-459 831,-453 831,-447 831,-447 831,-435 831,-435 831,-429 837,-423 843,-423 843,-423 927,-423 927,-423 933,-423 939,-429 939,-435 939,-435 939,-447 939,-447 939,-453 933,-459 927,-459"/>
<text text-anchor="middle" x="885" y="-438.8" font-family="Avenir Next" font-size="9.00" fill="#41515b">PHYS111 / PHYS130</text>
</a>
</g>
</g>
<!-- course__MATH100&#45;&gt;course__PHYS111 -->
<g id="edge49" class="edge">
<title>course__MATH100&#45;&gt;course__PHYS111</title>
<path fill="none" stroke="#5d6972" stroke-width="1.2" d="M362.71,-498.92C470.84,-486.91 711.16,-460.2 823.69,-447.7"/>
<polygon fill="#5d6972" stroke="#5d6972" stroke-width="1.2" points="824.22,-450.11 830.91,-446.9 823.68,-445.24 824.22,-450.11"/>
</g>
<!-- course__CSC110 -->
<g id="node18" class="node">
<title>course__CSC110</title>
<g id="a_node18"><a xlink:href="../../../courses/CSC110.html" xlink:title="Equivalent or cross&#45;listed: CSC110: Fundamentals of Programming I | CSC111: Fundamentals of Programming with Engineering Applications" target="_top">
<path fill="#e7ddec" stroke="#1b2730" stroke-width="1.6" d="M1208.5,-629C1208.5,-629 1131.5,-629 1131.5,-629 1125.5,-629 1119.5,-623 1119.5,-617 1119.5,-617 1119.5,-605 1119.5,-605 1119.5,-599 1125.5,-593 1131.5,-593 1131.5,-593 1208.5,-593 1208.5,-593 1214.5,-593 1220.5,-599 1220.5,-605 1220.5,-605 1220.5,-617 1220.5,-617 1220.5,-623 1214.5,-629 1208.5,-629"/>
<text text-anchor="middle" x="1170" y="-608.5" font-family="Avenir Next" font-size="10.00" fill="#17232b">CSC110 / CSC111</text>
</a>
</g>
</g>
<!-- course__MATH100&#45;&gt;course__CSC110 -->
<g id="edge5" class="edge">
<title>course__MATH100&#45;&gt;course__CSC110</title>
<path fill="none" stroke="#5d6972" stroke-width="1.2" d="M318.7,-523.45C337.01,-553.59 377.04,-613.67 425,-650 492.45,-701.1 515.38,-725 600,-725 600,-725 600,-725 886,-725 983.47,-725 1087.04,-666.09 1137.58,-632.97"/>
<polygon fill="#5d6972" stroke="#5d6972" stroke-width="1.2" points="1138.99,-634.97 1143.48,-629.06 1136.29,-630.89 1138.99,-634.97"/>
</g>
<!-- choice_EOS314_0_0 -->
<g id="node30" class="node">
<title>choice_EOS314_0_0</title>
<path fill="#fff7ee" stroke="#b7793f" stroke-width="1.1" d="M1042,-666C1042,-666 1012,-666 1012,-666 1006,-666 1000,-660 1000,-654 1000,-654 1000,-642 1000,-642 1000,-636 1006,-630 1012,-630 1012,-630 1042,-630 1042,-630 1048,-630 1054,-636 1054,-642 1054,-642 1054,-654 1054,-654 1054,-660 1048,-666 1042,-666"/>
<text text-anchor="middle" x="1027" y="-645.8" font-family="Avenir Next" font-size="9.00">2 of</text>
</g>
<!-- course__MATH100&#45;&gt;choice_EOS314_0_0 -->
<g id="edge29" class="edge">
<title>course__MATH100&#45;&gt;choice_EOS314_0_0</title>
<path fill="none" stroke="#7a8389" d="M323.36,-523.05C363.7,-568.3 477.99,-683 600,-683 600,-683 600,-683 744,-683 834.47,-683 940.02,-665.04 992.63,-654.85"/>
<polygon fill="#7a8389" stroke="#7a8389" points="993.3,-657.22 999.7,-653.47 992.36,-652.41 993.3,-657.22"/>
</g>
<!-- course__EOS205 -->
<g id="node6" class="node">
<title>course__EOS205</title>
<g id="a_node6"><a xlink:href="../../../courses/EOS205.html" xlink:title="EOS205: Mineralogy" target="_top">
<path fill="#d7e9ef" stroke="#7e8d96" d="M616,-92C616,-92 586,-92 586,-92 580,-92 574,-86 574,-80 574,-80 574,-68 574,-68 574,-62 580,-56 586,-56 586,-56 616,-56 616,-56 622,-56 628,-62 628,-68 628,-68 628,-80 628,-80 628,-86 622,-92 616,-92"/>
<text text-anchor="middle" x="601" y="-71.8" font-family="Avenir Next" font-size="9.00" fill="#41515b">EOS205</text>
</a>
</g>
</g>
<!-- course__CHEM102&#45;&gt;course__EOS205 -->
<g id="edge9" class="edge">
<title>course__CHEM102&#45;&gt;course__EOS205</title>
<path fill="none" stroke="#5d6972" stroke-width="1.2" d="M468.49,-272.87C494.29,-233.86 555.07,-141.94 584.07,-98.09"/>
<polygon fill="#5d6972" stroke="#5d6972" stroke-width="1.2" points="586.13,-99.42 587.95,-92.23 582.04,-96.72 586.13,-99.42"/>
</g>
<!-- course__EOS261 -->
<g id="node21" class="node">
<title>course__EOS261</title>
<g id="a_node21"><a xlink:href="../../../courses/EOS261.html" xlink:title="EOS261: The Climate System" target="_top">
<path fill="#d7e9ef" stroke="#1b2730" stroke-width="1.6" d="M1185,-354C1185,-354 1155,-354 1155,-354 1149,-354 1143,-348 1143,-342 1143,-342 1143,-330 1143,-330 1143,-324 1149,-318 1155,-318 1155,-318 1185,-318 1185,-318 1191,-318 1197,-324 1197,-330 1197,-330 1197,-342 1197,-342 1197,-348 1191,-354 1185,-354"/>
<text text-anchor="middle" x="1170" y="-333.5" font-family="Avenir Next" font-size="10.00" fill="#17232b">EOS261</text>
</a>
</g>
</g>
<!-- course__CHEM102&#45;&gt;course__EOS261 -->
<g id="edge24" class="edge">
<title>course__CHEM102&#45;&gt;course__EOS261</title>
<path fill="none" stroke="#5d6972" stroke-width="1.2" d="M486.09,-291C537.94,-291 648.57,-291 742,-291 742,-291 742,-291 886,-291 977.23,-291 1082.97,-314.09 1135.62,-327.19"/>
<polygon fill="#5d6972" stroke="#5d6972" stroke-width="1.2" points="1135.3,-329.64 1142.69,-328.97 1136.5,-324.88 1135.3,-329.64"/>
</g>
<!-- course__EOS120 -->
<g id="node5" class="node">
<title>course__EOS120</title>
<g id="a_node5"><a xlink:href="../../../courses/EOS120.html" xlink:title="EOS120: The Dynamic Earth" target="_top">
<path fill="#d7e9ef" stroke="#7e8d96" d="M470.5,-64C470.5,-64 440.5,-64 440.5,-64 434.5,-64 428.5,-58 428.5,-52 428.5,-52 428.5,-40 428.5,-40 428.5,-34 434.5,-28 440.5,-28 440.5,-28 470.5,-28 470.5,-28 476.5,-28 482.5,-34 482.5,-40 482.5,-40 482.5,-52 482.5,-52 482.5,-58 476.5,-64 470.5,-64"/>
<text text-anchor="middle" x="455.5" y="-43.8" font-family="Avenir Next" font-size="9.00" fill="#41515b">EOS120</text>
</a>
</g>
</g>
<!-- course__EOS120&#45;&gt;course__EOS205 -->
<g id="edge8" class="edge">
<title>course__EOS120&#45;&gt;course__EOS205</title>
<path fill="none" stroke="#5d6972" stroke-width="1.2" d="M482.82,-51.14C506.49,-55.75 541.36,-62.56 566.91,-67.54"/>
<polygon fill="#5d6972" stroke="#5d6972" stroke-width="1.2" points="566.51,-69.96 573.85,-68.9 567.45,-65.15 566.51,-69.96"/>
</g>
<!-- course__EOS202 -->
<g id="node13" class="node">
<title>course__EOS202</title>
<g id="a_node13"><a xlink:href="../../../courses/EOS202.html" xlink:title="EOS202: Structural Geology" target="_top">
<path fill="#d7e9ef" stroke="#7e8d96" d="M900,-36C900,-36 870,-36 870,-36 864,-36 858,-30 858,-24 858,-24 858,-12 858,-12 858,-6 864,0 870,0 870,0 900,0 900,0 906,0 912,-6 912,-12 912,-12 912,-24 912,-24 912,-30 906,-36 900,-36"/>
<text text-anchor="middle" x="885" y="-15.8" font-family="Avenir Next" font-size="9.00" fill="#41515b">EOS202</text>
</a>
</g>
</g>
<!-- course__EOS120&#45;&gt;course__EOS202 -->
<g id="edge7" class="edge">
<title>course__EOS120&#45;&gt;course__EOS202</title>
<path fill="none" stroke="#5d6972" stroke-width="1.2" d="M482.6,-44.29C556.77,-39.43 768.73,-25.55 850.89,-20.17"/>
<polygon fill="#5d6972" stroke="#5d6972" stroke-width="1.2" points="851.15,-22.61 857.97,-19.7 850.83,-17.72 851.15,-22.61"/>
</g>
<!-- course__EOS201 -->
<g id="node12" class="node">
<title>course__EOS201</title>
<g id="a_node12"><a xlink:href="../../../courses/EOS201.html" xlink:title="EOS201: Sedimentary Geology" target="_top">
<path fill="#d7e9ef" stroke="#7e8d96" d="M900,-92C900,-92 870,-92 870,-92 864,-92 858,-86 858,-80 858,-80 858,-68 858,-68 858,-62 864,-56 870,-56 870,-56 900,-56 900,-56 906,-56 912,-62 912,-68 912,-68 912,-80 912,-80 912,-86 906,-92 900,-92"/>
<text text-anchor="middle" x="885" y="-71.8" font-family="Avenir Next" font-size="9.00" fill="#41515b">EOS201</text>
</a>
</g>
</g>
<!-- course__EOS205&#45;&gt;course__EOS201 -->
<g id="edge6" class="edge">
<title>course__EOS205&#45;&gt;course__EOS201</title>
<path fill="none" stroke="#5d6972" stroke-width="1.2" d="M628.02,-74C679.31,-74 793.38,-74 850.32,-74"/>
<polygon fill="#5d6972" stroke="#5d6972" stroke-width="1.2" points="850.63,-76.45 857.63,-74 850.63,-71.55 850.63,-76.45"/>
</g>
<!-- course__MATH101&#45;&gt;course__PHYS111 -->
<g id="edge50" class="edge">
<title>course__MATH101&#45;&gt;course__PHYS111</title>
<path fill="none" stroke="#5d6972" stroke-width="1.2" d="M630.59,-545.57C664.06,-532.15 721.14,-509.17 770,-489 791.31,-480.2 814.8,-470.34 834.89,-461.86"/>
<polygon fill="#5d6972" stroke="#5d6972" stroke-width="1.2" points="836.07,-464.02 841.56,-459.03 834.16,-459.5 836.07,-464.02"/>
</g>
<!-- course__EOS210 -->
<g id="node19" class="node">
<title>course__EOS210</title>
<g id="a_node19"><a xlink:href="../../../courses/EOS210.html" xlink:title="Equivalent or cross&#45;listed: EOS210: Introductory Geophysics | PHYS210: Introductory Geophysics" target="_top">
<path fill="#d7e9ef" stroke="#1b2730" stroke-width="1.6" d="M1211.5,-410C1211.5,-410 1128.5,-410 1128.5,-410 1122.5,-410 1116.5,-404 1116.5,-398 1116.5,-398 1116.5,-386 1116.5,-386 1116.5,-380 1122.5,-374 1128.5,-374 1128.5,-374 1211.5,-374 1211.5,-374 1217.5,-374 1223.5,-380 1223.5,-386 1223.5,-386 1223.5,-398 1223.5,-398 1223.5,-404 1217.5,-410 1211.5,-410"/>
<text text-anchor="middle" x="1170" y="-389.5" font-family="Avenir Next" font-size="10.00" fill="#17232b">EOS210 / PHYS210</text>
</a>
</g>
</g>
<!-- course__MATH101&#45;&gt;course__EOS210 -->
<g id="edge10" class="edge">
<title>course__MATH101&#45;&gt;course__EOS210</title>
<path fill="none" stroke="#5d6972" stroke-width="1.2" d="M630.76,-563.81C689.39,-576.59 826.71,-600.92 939,-578 993.43,-566.89 1012.66,-566.12 1054,-529 1095.31,-491.91 1075.12,-458.62 1115,-420 1117.13,-417.93 1119.45,-415.98 1121.88,-414.15"/>
<polygon fill="#5d6972" stroke="#5d6972" stroke-width="1.2" points="1123.39,-416.08 1127.74,-410.08 1120.6,-412.06 1123.39,-416.08"/>
</g>
<!-- choice_EOS261_0_4 -->
<g id="node29" class="node">
<title>choice_EOS261_0_4</title>
<path fill="#fff7ee" stroke="#b7793f" stroke-width="1.1" d="M1042,-519C1042,-519 1012,-519 1012,-519 1006,-519 1000,-513 1000,-507 1000,-507 1000,-495 1000,-495 1000,-489 1006,-483 1012,-483 1012,-483 1042,-483 1042,-483 1048,-483 1054,-489 1054,-495 1054,-495 1054,-507 1054,-507 1054,-513 1048,-519 1042,-519"/>
<text text-anchor="middle" x="1027" y="-498.8" font-family="Avenir Next" font-size="9.00">1 of</text>
</g>
<!-- course__MATH101&#45;&gt;choice_EOS261_0_4 -->
<g id="edge21" class="edge">
<title>course__MATH101&#45;&gt;choice_EOS261_0_4</title>
<path fill="none" stroke="#7a8389" d="M630.5,-552.23C673.76,-545.08 758.61,-531.42 831,-522 887.5,-514.64 953.46,-507.93 992.37,-504.16"/>
<polygon fill="#7a8389" stroke="#7a8389" points="993.04,-506.56 999.78,-503.45 992.57,-501.68 993.04,-506.56"/>
</g>
<!-- course__MATH101&#45;&gt;choice_EOS314_0_0 -->
<g id="edge30" class="edge">
<title>course__MATH101&#45;&gt;choice_EOS314_0_0</title>
<path fill="none" stroke="#7a8389" d="M630.3,-575.09C652.66,-588.45 685.13,-605.84 716,-615 813.53,-643.93 934.96,-648.17 992.61,-648.38"/>
<polygon fill="#7a8389" stroke="#7a8389" points="992.65,-650.83 999.66,-648.38 992.66,-645.93 992.65,-650.83"/>
</g>
<!-- course__PHYS102A -->
<g id="node8" class="node">
<title>course__PHYS102A</title>
<g id="a_node8"><a xlink:href="../../../courses/PHYS102A.html" xlink:title="PHYS102A: General Physics I" target="_top">
<path fill="#efd8cf" stroke="#7e8d96" d="M621,-358C621,-358 581,-358 581,-358 575,-358 569,-352 569,-346 569,-346 569,-334 569,-334 569,-328 575,-322 581,-322 581,-322 621,-322 621,-322 627,-322 633,-328 633,-334 633,-334 633,-346 633,-346 633,-352 627,-358 621,-358"/>
<text text-anchor="middle" x="601" y="-337.8" font-family="Avenir Next" font-size="9.00" fill="#41515b">PHYS102A</text>
</a>
</g>
</g>
<!-- choice_PHYS102B_0 -->
<g id="node33" class="node">
<title>choice_PHYS102B_0</title>
<path fill="#fff7ee" stroke="#b7793f" stroke-width="1.1" d="M758,-358C758,-358 728,-358 728,-358 722,-358 716,-352 716,-346 716,-346 716,-334 716,-334 716,-328 722,-322 728,-322 728,-322 758,-322 758,-322 764,-322 770,-328 770,-334 770,-334 770,-346 770,-346 770,-352 764,-358 758,-358"/>
<text text-anchor="middle" x="743" y="-337.8" font-family="Avenir Next" font-size="9.00">1 of</text>
</g>
<!-- course__PHYS102A&#45;&gt;choice_PHYS102B_0 -->
<g id="edge44" class="edge">
<title>course__PHYS102A&#45;&gt;choice_PHYS102B_0</title>
<path fill="none" stroke="#7a8389" d="M633.07,-340C655.46,-340 685.64,-340 708.55,-340"/>
<polygon fill="#7a8389" stroke="#7a8389" points="708.72,-342.45 715.72,-340 708.72,-337.55 708.72,-342.45"/>
</g>
<!-- course__PHYS110&#45;&gt;course__PHYS111 -->
<g id="edge48" class="edge">
<title>course__PHYS110&#45;&gt;course__PHYS111</title>
<path fill="none" stroke="#5d6972" stroke-width="1.2" d="M655.04,-415.83C702.94,-421.1 773.4,-428.84 823.48,-434.35"/>
<polygon fill="#5d6972" stroke="#5d6972" stroke-width="1.2" points="823.49,-436.81 830.72,-435.14 824.03,-431.94 823.49,-436.81"/>
</g>
<!-- course__PHYS110&#45;&gt;course__EOS210 -->
<g id="edge11" class="edge">
<title>course__PHYS110&#45;&gt;course__EOS210</title>
<path fill="none" stroke="#5d6972" stroke-width="1.2" d="M655.09,-408.31C760.95,-404.95 997.71,-397.44 1109.01,-393.9"/>
<polygon fill="#5d6972" stroke="#5d6972" stroke-width="1.2" points="1109.24,-396.35 1116.15,-393.68 1109.08,-391.45 1109.24,-396.35"/>
</g>
<!-- course__PHYS110&#45;&gt;choice_PHYS102B_0 -->
<g id="edge45" class="edge">
<title>course__PHYS110&#45;&gt;choice_PHYS102B_0</title>
<path fill="none" stroke="#7a8389" d="M638.05,-391.97C660.08,-380.96 688.02,-366.99 709.39,-356.31"/>
<polygon fill="#7a8389" stroke="#7a8389" points="710.63,-358.42 715.8,-353.1 708.44,-354.04 710.63,-358.42"/>
</g>
<!-- course__EOS110 -->
<g id="node10" class="node">
<title>course__EOS110</title>
<g id="a_node10"><a xlink:href="../../../courses/EOS110.html" xlink:title="Equivalent or cross&#45;listed: EOS110: Oceans and Atmosphere | EOS350: Understanding the Oceans" target="_top">
<path fill="#d7e9ef" stroke="#7e8d96" d="M922.5,-204C922.5,-204 847.5,-204 847.5,-204 841.5,-204 835.5,-198 835.5,-192 835.5,-192 835.5,-180 835.5,-180 835.5,-174 841.5,-168 847.5,-168 847.5,-168 922.5,-168 922.5,-168 928.5,-168 934.5,-174 934.5,-180 934.5,-180 934.5,-192 934.5,-192 934.5,-198 928.5,-204 922.5,-204"/>
<text text-anchor="middle" x="885" y="-183.8" font-family="Avenir Next" font-size="9.00" fill="#41515b">EOS110 / EOS350</text>
</a>
</g>
</g>
<!-- choice_EOS230_0_1 -->
<g id="node26" class="node">
<title>choice_EOS230_0_1</title>
<path fill="#fff7ee" stroke="#b7793f" stroke-width="1.1" d="M1042,-204C1042,-204 1012,-204 1012,-204 1006,-204 1000,-198 1000,-192 1000,-192 1000,-180 1000,-180 1000,-174 1006,-168 1012,-168 1012,-168 1042,-168 1042,-168 1048,-168 1054,-174 1054,-180 1054,-180 1054,-192 1054,-192 1054,-198 1048,-204 1042,-204"/>
<text text-anchor="middle" x="1027" y="-183.8" font-family="Avenir Next" font-size="9.00">1 of</text>
</g>
<!-- course__EOS110&#45;&gt;choice_EOS230_0_1 -->
<g id="edge12" class="edge">
<title>course__EOS110&#45;&gt;choice_EOS230_0_1</title>
<path fill="none" stroke="#7a8389" d="M934.57,-186C953.78,-186 975.38,-186 992.75,-186"/>
<polygon fill="#7a8389" stroke="#7a8389" points="992.92,-188.45 999.92,-186 992.92,-183.55 992.92,-188.45"/>
</g>
<!-- choice_EOS261_0_0 -->
<g id="node27" class="node">
<title>choice_EOS261_0_0</title>
<path fill="#fff7ee" stroke="#b7793f" stroke-width="1.1" d="M1042,-260C1042,-260 1012,-260 1012,-260 1006,-260 1000,-254 1000,-248 1000,-248 1000,-236 1000,-236 1000,-230 1006,-224 1012,-224 1012,-224 1042,-224 1042,-224 1048,-224 1054,-230 1054,-236 1054,-236 1054,-248 1054,-248 1054,-254 1048,-260 1042,-260"/>
<text text-anchor="middle" x="1027" y="-239.8" font-family="Avenir Next" font-size="9.00">1 of</text>
</g>
<!-- course__EOS110&#45;&gt;choice_EOS261_0_0 -->
<g id="edge16" class="edge">
<title>course__EOS110&#45;&gt;choice_EOS261_0_0</title>
<path fill="none" stroke="#7a8389" d="M931.07,-204.03C951.29,-212.11 974.7,-221.48 993.21,-228.88"/>
<polygon fill="#7a8389" stroke="#7a8389" points="992.39,-231.19 999.8,-231.52 994.21,-226.64 992.39,-231.19"/>
</g>
<!-- course__EOS130 -->
<g id="node11" class="node">
<title>course__EOS130</title>
<g id="a_node11"><a xlink:href="../../../courses/EOS130.html" xlink:title="Equivalent or cross&#45;listed: EOS130: Climate Change | GEOG130: Climate Change" target="_top">
<path fill="#d7e9ef" stroke="#7e8d96" d="M926.5,-260C926.5,-260 843.5,-260 843.5,-260 837.5,-260 831.5,-254 831.5,-248 831.5,-248 831.5,-236 831.5,-236 831.5,-230 837.5,-224 843.5,-224 843.5,-224 926.5,-224 926.5,-224 932.5,-224 938.5,-230 938.5,-236 938.5,-236 938.5,-248 938.5,-248 938.5,-254 932.5,-260 926.5,-260"/>
<text text-anchor="middle" x="885" y="-239.8" font-family="Avenir Next" font-size="9.00" fill="#41515b">EOS130 / GEOG130</text>
</a>
</g>
</g>
<!-- course__EOS130&#45;&gt;choice_EOS230_0_1 -->
<g id="edge13" class="edge">
<title>course__EOS130&#45;&gt;choice_EOS230_0_1</title>
<path fill="none" stroke="#7a8389" d="M931.07,-223.97C951.29,-215.89 974.7,-206.52 993.21,-199.12"/>
<polygon fill="#7a8389" stroke="#7a8389" points="994.21,-201.36 999.8,-196.48 992.39,-196.81 994.21,-201.36"/>
</g>
<!-- course__EOS130&#45;&gt;choice_EOS261_0_0 -->
<g id="edge17" class="edge">
<title>course__EOS130&#45;&gt;choice_EOS261_0_0</title>
<path fill="none" stroke="#7a8389" d="M938.53,-242C956.7,-242 976.54,-242 992.73,-242"/>
<polygon fill="#7a8389" stroke="#7a8389" points="992.89,-244.45 999.89,-242 992.89,-239.55 992.89,-244.45"/>
</g>
<!-- course__EOS300 -->
<g id="node22" class="node">
<title>course__EOS300</title>
<g id="a_node22"><a xlink:href="../../../courses/EOS300.html" xlink:title="EOS300: Earth Science Field School" target="_top">
<path fill="#d7e9ef" stroke="#1b2730" stroke-width="1.6" d="M1185,-92C1185,-92 1155,-92 1155,-92 1149,-92 1143,-86 1143,-80 1143,-80 1143,-68 1143,-68 1143,-62 1149,-56 1155,-56 1155,-56 1185,-56 1185,-56 1191,-56 1197,-62 1197,-68 1197,-68 1197,-80 1197,-80 1197,-86 1191,-92 1185,-92"/>
<text text-anchor="middle" x="1170" y="-71.5" font-family="Avenir Next" font-size="10.00" fill="#17232b">EOS300</text>
</a>
</g>
</g>
<!-- course__EOS201&#45;&gt;course__EOS300 -->
<g id="edge27" class="edge">
<title>course__EOS201&#45;&gt;course__EOS300</title>
<path fill="none" stroke="#5d6972" stroke-width="1.2" d="M912.12,-74C963.71,-74 1078.64,-74 1135.63,-74"/>
<polygon fill="#5d6972" stroke="#5d6972" stroke-width="1.2" points="1135.95,-76.45 1142.95,-74 1135.95,-71.55 1135.95,-76.45"/>
</g>
<!-- course__EOS202&#45;&gt;course__EOS300 -->
<g id="edge28" class="edge">
<title>course__EOS202&#45;&gt;course__EOS300</title>
<path fill="none" stroke="#5d6972" stroke-width="1.2" d="M912.12,-23.17C963.82,-33.4 1079.11,-56.21 1135.98,-67.47"/>
<polygon fill="#5d6972" stroke="#5d6972" stroke-width="1.2" points="1135.6,-69.89 1142.95,-68.84 1136.56,-65.08 1135.6,-69.89"/>
</g>
<!-- course__GEOG103 -->
<g id="node14" class="node">
<title>course__GEOG103</title>
<g id="a_node14"><a xlink:href="../../../courses/GEOG103.html" xlink:title="GEOG103: Our Natural Earth" target="_top">
<path fill="#e7e2d8" stroke="#7e8d96" d="M903.5,-148C903.5,-148 866.5,-148 866.5,-148 860.5,-148 854.5,-142 854.5,-136 854.5,-136 854.5,-124 854.5,-124 854.5,-118 860.5,-112 866.5,-112 866.5,-112 903.5,-112 903.5,-112 909.5,-112 915.5,-118 915.5,-124 915.5,-124 915.5,-136 915.5,-136 915.5,-142 909.5,-148 903.5,-148"/>
<text text-anchor="middle" x="885" y="-127.8" font-family="Avenir Next" font-size="9.00" fill="#41515b">GEOG103</text>
</a>
</g>
</g>
<!-- course__GEOG103&#45;&gt;choice_EOS230_0_1 -->
<g id="edge14" class="edge">
<title>course__GEOG103&#45;&gt;choice_EOS230_0_1</title>
<path fill="none" stroke="#7a8389" d="M915.69,-141.88C938.34,-150.93 969.52,-163.41 992.96,-172.78"/>
<polygon fill="#7a8389" stroke="#7a8389" points="992.25,-175.14 999.66,-175.46 994.07,-170.59 992.25,-175.14"/>
</g>
<!-- course__GEOG103&#45;&gt;choice_EOS261_0_0 -->
<g id="edge18" class="edge">
<title>course__GEOG103&#45;&gt;choice_EOS261_0_0</title>
<path fill="none" stroke="#7a8389" d="M915.76,-143.84C923.59,-147.98 931.84,-152.81 939,-158 952.4,-167.71 982.29,-197.31 1003.27,-218.63"/>
<polygon fill="#7a8389" stroke="#7a8389" points="1001.75,-220.57 1008.4,-223.85 1005.25,-217.14 1001.75,-220.57"/>
</g>
<!-- course__MATH151 -->
<g id="node15" class="node">
<title>course__MATH151</title>
<g id="a_node15"><a xlink:href="../../../courses/MATH151.html" xlink:title="MATH151: Finite Mathematics" target="_top">
<path fill="#dfe3f4" stroke="#7e8d96" d="M902.5,-568C902.5,-568 867.5,-568 867.5,-568 861.5,-568 855.5,-562 855.5,-556 855.5,-556 855.5,-544 855.5,-544 855.5,-538 861.5,-532 867.5,-532 867.5,-532 902.5,-532 902.5,-532 908.5,-532 914.5,-538 914.5,-544 914.5,-544 914.5,-556 914.5,-556 914.5,-562 908.5,-568 902.5,-568"/>
<text text-anchor="middle" x="885" y="-547.8" font-family="Avenir Next" font-size="9.00" fill="#41515b">MATH151</text>
</a>
</g>
</g>
<!-- course__MATH151&#45;&gt;choice_EOS261_0_4 -->
<g id="edge22" class="edge">
<title>course__MATH151&#45;&gt;choice_EOS261_0_4</title>
<path fill="none" stroke="#7a8389" d="M914.67,-539.97C937.39,-532.01 969.15,-520.9 992.94,-512.57"/>
<polygon fill="#7a8389" stroke="#7a8389" points="993.94,-514.82 999.73,-510.19 992.32,-510.19 993.94,-514.82"/>
</g>
<!-- course__MATH151&#45;&gt;choice_EOS314_0_0 -->
<g id="edge31" class="edge">
<title>course__MATH151&#45;&gt;choice_EOS314_0_0</title>
<path fill="none" stroke="#7a8389" d="M912,-568.2C935.28,-584.5 969.48,-608.44 994.35,-625.84"/>
<polygon fill="#7a8389" stroke="#7a8389" points="992.99,-627.89 1000.13,-629.89 995.8,-623.87 992.99,-627.89"/>
</g>
<!-- course__PHYS102B -->
<g id="node16" class="node">
<title>course__PHYS102B</title>
<g id="a_node16"><a xlink:href="../../../courses/PHYS102B.html" xlink:title="PHYS102B: General Physics II" target="_top">
<path fill="#efd8cf" stroke="#7e8d96" d="M905,-358C905,-358 865,-358 865,-358 859,-358 853,-352 853,-346 853,-346 853,-334 853,-334 853,-328 859,-322 865,-322 865,-322 905,-322 905,-322 911,-322 917,-328 917,-334 917,-334 917,-346 917,-346 917,-352 911,-358 905,-358"/>
<text text-anchor="middle" x="885" y="-337.8" font-family="Avenir Next" font-size="9.00" fill="#41515b">PHYS102B</text>
</a>
</g>
</g>
<!-- choice_EOS261_0_2 -->
<g id="node28" class="node">
<title>choice_EOS261_0_2</title>
<path fill="#fff7ee" stroke="#b7793f" stroke-width="1.1" d="M1042,-358C1042,-358 1012,-358 1012,-358 1006,-358 1000,-352 1000,-346 1000,-346 1000,-334 1000,-334 1000,-328 1006,-322 1012,-322 1012,-322 1042,-322 1042,-322 1048,-322 1054,-328 1054,-334 1054,-334 1054,-346 1054,-346 1054,-352 1048,-358 1042,-358"/>
<text text-anchor="middle" x="1027" y="-337.8" font-family="Avenir Next" font-size="9.00">1 of</text>
</g>
<!-- course__PHYS102B&#45;&gt;choice_EOS261_0_2 -->
<g id="edge20" class="edge">
<title>course__PHYS102B&#45;&gt;choice_EOS261_0_2</title>
<path fill="none" stroke="#7a8389" d="M917.07,-340C939.46,-340 969.64,-340 992.55,-340"/>
<polygon fill="#7a8389" stroke="#7a8389" points="992.72,-342.45 999.72,-340 992.72,-337.55 992.72,-342.45"/>
</g>
<!-- choice_EOS314_0_1 -->
<g id="node31" class="node">
<title>choice_EOS314_0_1</title>
<path fill="#fff7ee" stroke="#b7793f" stroke-width="1.1" d="M1042,-459C1042,-459 1012,-459 1012,-459 1006,-459 1000,-453 1000,-447 1000,-447 1000,-435 1000,-435 1000,-429 1006,-423 1012,-423 1012,-423 1042,-423 1042,-423 1048,-423 1054,-429 1054,-435 1054,-435 1054,-447 1054,-447 1054,-453 1048,-459 1042,-459"/>
<text text-anchor="middle" x="1027" y="-438.8" font-family="Avenir Next" font-size="9.00">1 of</text>
</g>
<!-- course__PHYS102B&#45;&gt;choice_EOS314_0_1 -->
<g id="edge32" class="edge">
<title>course__PHYS102B&#45;&gt;choice_EOS314_0_1</title>
<path fill="none" stroke="#7a8389" d="M911.03,-358.06C934.47,-374.97 969.59,-400.31 994.84,-418.52"/>
<polygon fill="#7a8389" stroke="#7a8389" points="993.61,-420.65 1000.72,-422.76 996.47,-416.68 993.61,-420.65"/>
</g>
<!-- course__PHYS111&#45;&gt;choice_EOS261_0_2 -->
<g id="edge19" class="edge">
<title>course__PHYS111&#45;&gt;choice_EOS261_0_2</title>
<path fill="none" stroke="#7a8389" d="M911.03,-422.94C934.47,-406.03 969.59,-380.69 994.84,-362.48"/>
<polygon fill="#7a8389" stroke="#7a8389" points="996.47,-364.32 1000.72,-358.24 993.61,-360.35 996.47,-364.32"/>
</g>
<!-- course__PHYS111&#45;&gt;choice_EOS314_0_1 -->
<g id="edge33" class="edge">
<title>course__PHYS111&#45;&gt;choice_EOS314_0_1</title>
<path fill="none" stroke="#7a8389" d="M939.33,-441C957.29,-441 976.8,-441 992.76,-441"/>
<polygon fill="#7a8389" stroke="#7a8389" points="992.82,-443.45 999.82,-441 992.82,-438.55 992.82,-443.45"/>
</g>
<!-- choice_EOS321_0_1_0 -->
<g id="node32" class="node">
<title>choice_EOS321_0_1_0</title>
<path fill="#fff7ee" stroke="#b7793f" stroke-width="1.1" d="M1328,-410C1328,-410 1298,-410 1298,-410 1292,-410 1286,-404 1286,-398 1286,-398 1286,-386 1286,-386 1286,-380 1292,-374 1298,-374 1298,-374 1328,-374 1328,-374 1334,-374 1340,-380 1340,-386 1340,-386 1340,-398 1340,-398 1340,-404 1334,-410 1328,-410"/>
<text text-anchor="middle" x="1313" y="-389.8" font-family="Avenir Next" font-size="9.00">1 of</text>
</g>
<!-- course__CSC110&#45;&gt;choice_EOS321_0_1_0 -->
<g id="edge40" class="edge">
<title>course__CSC110&#45;&gt;choice_EOS321_0_1_0</title>
<path fill="none" stroke="#7a8389" d="M1182.78,-592.7C1208.19,-553.24 1268.16,-460.1 1296.56,-415.98"/>
<polygon fill="#7a8389" stroke="#7a8389" points="1298.62,-417.3 1300.35,-410.09 1294.5,-414.65 1298.62,-417.3"/>
</g>
<!-- course__EOS210&#45;&gt;choice_EOS321_0_1_0 -->
<g id="edge36" class="edge">
<title>course__EOS210&#45;&gt;choice_EOS321_0_1_0</title>
<path fill="none" stroke="#7a8389" d="M1223.5,-392C1241.97,-392 1262.21,-392 1278.66,-392"/>
<polygon fill="#7a8389" stroke="#7a8389" points="1278.93,-394.45 1285.93,-392 1278.93,-389.55 1278.93,-394.45"/>
</g>
<!-- course__EOS230 -->
<g id="node20" class="node">
<title>course__EOS230</title>
<g id="a_node20"><a xlink:href="../../../courses/EOS230.html" xlink:title="Equivalent or cross&#45;listed: EOS230: Introduction to Environmental Data Analysis | GEOG230: Introduction to Environmental Data Analysis" target="_top">
<path fill="#d7e9ef" stroke="#1b2730" stroke-width="1.6" d="M1213,-253C1213,-253 1127,-253 1127,-253 1121,-253 1115,-247 1115,-241 1115,-241 1115,-229 1115,-229 1115,-223 1121,-217 1127,-217 1127,-217 1213,-217 1213,-217 1219,-217 1225,-223 1225,-229 1225,-229 1225,-241 1225,-241 1225,-247 1219,-253 1213,-253"/>
<text text-anchor="middle" x="1170" y="-232.5" font-family="Avenir Next" font-size="10.00" fill="#17232b">EOS230 / GEOG230</text>
</a>
</g>
</g>
<!-- course__EOS230&#45;&gt;choice_EOS321_0_1_0 -->
<g id="edge37" class="edge">
<title>course__EOS230&#45;&gt;choice_EOS321_0_1_0</title>
<path fill="none" stroke="#7a8389" d="M1187.17,-253.01C1212.75,-281.49 1262.52,-336.91 1290.88,-368.49"/>
<polygon fill="#7a8389" stroke="#7a8389" points="1289.08,-370.15 1295.58,-373.72 1292.73,-366.87 1289.08,-370.15"/>
</g>
<!-- course__EOS261&#45;&gt;choice_EOS321_0_1_0 -->
<g id="edge38" class="edge">
<title>course__EOS261&#45;&gt;choice_EOS321_0_1_0</title>
<path fill="none" stroke="#7a8389" d="M1197.19,-346.4C1220.34,-355.6 1254.21,-369.05 1279.16,-378.96"/>
<polygon fill="#7a8389" stroke="#7a8389" points="1278.54,-381.35 1285.95,-381.65 1280.35,-376.79 1278.54,-381.35"/>
</g>
<!-- course__EOS321 -->
<g id="node24" class="node">
<title>course__EOS321</title>
<g id="a_node24"><a xlink:href="../../../courses/EOS321.html" xlink:title="EOS321: Earth History" target="_top">
<path fill="#d7e9ef" stroke="#1f4f66" stroke-width="2" d="M1469,-410C1469,-410 1413,-410 1413,-410 1407,-410 1401,-404 1401,-398 1401,-398 1401,-386 1401,-386 1401,-380 1407,-374 1413,-374 1413,-374 1469,-374 1469,-374 1475,-374 1481,-380 1481,-386 1481,-386 1481,-398 1481,-398 1481,-404 1475,-410 1469,-410"/>
<text text-anchor="middle" x="1441" y="-395" font-family="Avenir Next" font-size="10.00" fill="#17232b">EOS321</text>
<text text-anchor="middle" x="1441" y="-384" font-family="Avenir Next" font-size="10.00" fill="#17232b">Earth History</text>
</a>
</g>
</g>
<!-- course__EOS300&#45;&gt;course__EOS321 -->
<g id="edge41" class="edge">
<title>course__EOS300&#45;&gt;course__EOS321</title>
<path fill="none" stroke="#5d6972" stroke-width="1.2" d="M1186.23,-92.01C1231.99,-146.1 1368.25,-307.18 1419.87,-368.21"/>
<polygon fill="#5d6972" stroke="#5d6972" stroke-width="1.2" points="1418.21,-370.03 1424.6,-373.8 1421.95,-366.87 1418.21,-370.03"/>
</g>
<!-- course__EOS314 -->
<g id="node23" class="node">
<title>course__EOS314</title>
<g id="a_node23"><a xlink:href="../../../courses/EOS314.html" xlink:title="EOS314: Descriptive Physical Oceanography" target="_top">
<path fill="#d7e9ef" stroke="#1b2730" stroke-width="1.6" d="M1185,-466C1185,-466 1155,-466 1155,-466 1149,-466 1143,-460 1143,-454 1143,-454 1143,-442 1143,-442 1143,-436 1149,-430 1155,-430 1155,-430 1185,-430 1185,-430 1191,-430 1197,-436 1197,-442 1197,-442 1197,-454 1197,-454 1197,-460 1191,-466 1185,-466"/>
<text text-anchor="middle" x="1170" y="-445.5" font-family="Avenir Next" font-size="10.00" fill="#17232b">EOS314</text>
</a>
</g>
</g>
<!-- course__EOS314&#45;&gt;choice_EOS321_0_1_0 -->
<g id="edge39" class="edge">
<title>course__EOS314&#45;&gt;choice_EOS321_0_1_0</title>
<path fill="none" stroke="#7a8389" d="M1197.19,-437.6C1220.34,-428.4 1254.21,-414.95 1279.16,-405.04"/>
<polygon fill="#7a8389" stroke="#7a8389" points="1280.35,-407.21 1285.95,-402.35 1278.54,-402.65 1280.35,-407.21"/>
</g>
<!-- EOS321_notes -->
<g id="node25" class="node">
<title>EOS321_notes</title>
<polygon fill="#fff7ee" stroke="#b7793f" stroke-width="1.1" points="183,-790 0,-790 0,-744 189,-744 189,-784 183,-790"/>
<polyline fill="none" stroke="#b7793f" stroke-width="1.1" points="183,-790 183,-784 "/>
<polyline fill="none" stroke="#b7793f" stroke-width="1.1" points="189,-784 183,-784 "/>
<text text-anchor="start" x="13" y="-770.4" font-family="Avenir Next" font-size="12.00">Published notes</text>
<text text-anchor="start" x="13" y="-757.4" font-family="Avenir Next" font-size="12.00">or permission of the school</text>
</g>
<!-- EOS321_notes&#45;&gt;course__EOS321 -->
<!-- choice_EOS230_0_1&#45;&gt;course__EOS230 -->
<g id="edge15" class="edge">
<title>choice_EOS230_0_1&#45;&gt;course__EOS230</title>
<path fill="none" stroke="#5d6972" stroke-width="1.2" d="M1054.19,-195.1C1069.93,-200.57 1090.64,-207.77 1110.12,-214.54"/>
<polygon fill="#5d6972" stroke="#5d6972" stroke-width="1.2" points="1109.54,-216.93 1116.95,-216.91 1111.15,-212.3 1109.54,-216.93"/>
</g>
<!-- choice_EOS261_0_0&#45;&gt;course__EOS261 -->
<g id="edge23" class="edge">
<title>choice_EOS261_0_0&#45;&gt;course__EOS261</title>
<path fill="none" stroke="#5d6972" stroke-width="1.2" d="M1054.19,-259.46C1077.64,-275.09 1112.08,-298.05 1137.12,-314.75"/>
<polygon fill="#5d6972" stroke="#5d6972" stroke-width="1.2" points="1135.77,-316.79 1142.95,-318.63 1138.48,-312.71 1135.77,-316.79"/>
</g>
<!-- choice_EOS261_0_2&#45;&gt;course__EOS261 -->
<g id="edge25" class="edge">
<title>choice_EOS261_0_2&#45;&gt;course__EOS261</title>
<path fill="none" stroke="#5d6972" stroke-width="1.2" d="M1054.19,-339.26C1077.24,-338.6 1110.92,-337.65 1135.84,-336.94"/>
<polygon fill="#5d6972" stroke="#5d6972" stroke-width="1.2" points="1136.02,-339.39 1142.95,-336.74 1135.88,-334.49 1136.02,-339.39"/>
</g>
<!-- choice_EOS261_0_4&#45;&gt;course__EOS261 -->
<g id="edge26" class="edge">
<title>choice_EOS261_0_4&#45;&gt;course__EOS261</title>
<path fill="none" stroke="#5d6972" stroke-width="1.2" d="M1043.63,-482.77C1047.17,-478.36 1050.83,-473.59 1054,-469 1084.67,-424.59 1075.93,-401.24 1115,-364 1121.21,-358.08 1128.92,-353.1 1136.55,-349.05"/>
<polygon fill="#5d6972" stroke="#5d6972" stroke-width="1.2" points="1137.74,-351.2 1142.9,-345.88 1135.55,-346.81 1137.74,-351.2"/>
</g>
<!-- choice_EOS314_0_0&#45;&gt;course__EOS314 -->
<g id="edge34" class="edge">
<title>choice_EOS314_0_0&#45;&gt;course__EOS314</title>
<path fill="none" stroke="#5d6972" stroke-width="1.2" d="M1042.79,-629.66C1046.51,-624.93 1050.45,-619.81 1054,-615 1090.71,-565.19 1131.23,-505.05 1153.02,-472.24"/>
<polygon fill="#5d6972" stroke="#5d6972" stroke-width="1.2" points="1155.29,-473.25 1157.12,-466.06 1151.21,-470.54 1155.29,-473.25"/>
</g>
<!-- choice_EOS314_0_1&#45;&gt;course__EOS314 -->
<g id="edge35" class="edge">
<title>choice_EOS314_0_1&#45;&gt;course__EOS314</title>
<path fill="none" stroke="#5d6972" stroke-width="1.2" d="M1054.19,-442.3C1077.24,-443.44 1110.92,-445.12 1135.84,-446.35"/>
<polygon fill="#5d6972" stroke="#5d6972" stroke-width="1.2" points="1135.84,-448.81 1142.95,-446.71 1136.08,-443.91 1135.84,-448.81"/>
</g>
<!-- choice_EOS321_0_1_0&#45;&gt;course__EOS321 -->
<g id="edge42" class="edge">
<title>choice_EOS321_0_1_0&#45;&gt;course__EOS321</title>
<path fill="none" stroke="#5d6972" stroke-width="1.2" d="M1340.11,-392C1355.51,-392 1375.45,-392 1393.46,-392"/>
<polygon fill="#5d6972" stroke="#5d6972" stroke-width="1.2" points="1393.51,-394.45 1400.51,-392 1393.51,-389.55 1393.51,-394.45"/>
</g>
<!-- choice_PHYS102B_0&#45;&gt;course__PHYS102B -->
<g id="edge46" class="edge">
<title>choice_PHYS102B_0&#45;&gt;course__PHYS102B</title>
<path fill="none" stroke="#5d6972" stroke-width="1.2" d="M770,-340C791.22,-340 821.49,-340 845.51,-340"/>
<polygon fill="#5d6972" stroke="#5d6972" stroke-width="1.2" points="845.75,-342.45 852.75,-340 845.75,-337.55 845.75,-342.45"/>
</g>
</g>
</svg>
