<?xml version="1.0" encoding="UTF-8" standalone="no"?>
<!DOCTYPE svg PUBLIC "-//W3C//DTD SVG 1.1//EN"
 "http://www.w3.org/Graphics/SVG/1.1/DTD/svg11.dtd">
<!-- Generated by graphviz version 2.43.0 (0)
 -->
<!-- Title: EOS350 Pages: 1 -->
<svg width="1566pt" height="401pt"
 viewBox="0.00 0.00 1566.20 401.20" xmlns="http://www.w3.org/2000/svg" xmlns:xlink="http://www.w3.org/1999/xlink">
<g id="graph0" class="graph" transform="scale(1 1) rotate(0) translate(21.6 379.6)">
<title>EOS350</title>
<!-- course__EOS110 -->
<g id="node1" class="node">
<title>course__EOS110</title>
<g id="a_node1"><a xlink:href="../../../courses/EOS350.html" xlink:title="Equivalent or cross&#45;listed: EOS110: Oceans and Atmosphere | EOS350: Understanding the Oceans" target="_top">
<path fill="#d7e9ef" stroke="#1f4f66" stroke-width="2" d="M471,-190C471,-190 349,-190 349,-190 343,-190 337,-184 337,-178 337,-178 337,-166 337,-166 337,-160 343,-154 349,-154 349,-154 471,-154 471,-154 477,-154 483,-160 483,-166 483,-166 483,-178 483,-178 483,-184 477,-190 471,-190"/>
<text text-anchor="middle" x="410" y="-175" font-family="Avenir Next" font-size="10.00" fill="#17232b">EOS110 / EOS350</text>
<text text-anchor="middle" x="410" y="-164" font-family="Avenir Next" font-size="10.00" fill="#17232b">Understanding the Oceans</text>
</a>
</g>
</g>
<!-- course__EOS230 -->
<g id="node2" class="node">
<title>course__EOS230</title>
<g id="a_node2"><a xlink:href="../../../courses/EOS230.html" xlink:title="Equivalent or cross&#45;listed: EOS230: Introduction to Environmental Data Analysis | GEOG230: Introduction to Environmental Data Analysis" target="_top">
<path fill="#d7e9ef" stroke="#1b2730" stroke-width="1.6" d="M642,-190C642,-190 556,-190 556,-190 550,-190 544,-184 544,-178 544,-178 544,-166 544,-166 544,-160 550,-154 556,-154 556,-154 642,-154 642,-154 648,-154 654,-160 654,-166 654,-166 654,-178 654,-178 654,-184 648,-190 642,-190"/>
<text text-anchor="middle" x="599" y="-169.5" font-family="Avenir Next" font-size="10.00" fill="#17232b">EOS230 / GEOG230</text>
</a>
</g>
</g>
<!-- course__EOS110&#45;&gt;course__EOS230 -->
<g id="edge2" class="edge">
<title>course__EOS110&#45;&gt;course__EOS230</title>
<path fill="none" stroke="#5d6972" stroke-width="1.2" d="M483.03,-172C500.68,-172 519.4,-172 536.5,-172"/>
<polygon fill="#5d6972" stroke="#5d6972" stroke-width="1.2" points="536.72,-174.45 543.72,-172 536.72,-169.55 536.72,-174.45"/>
</g>
<!-- course__EOS261 -->
<g id="node3" class="node">
<title>course__EOS261</title>
<g id="a_node3"><a xlink:href="../../../courses/EOS261.html" xlink:title="EOS261: The Climate System" target="_top">
<path fill="#d7e9ef" stroke="#1b2730" stroke-width="1.6" d="M614,-246C614,-246 584,-246 584,-246 578,-246 572,-240 572,-234 572,-234 572,-222 572,-222 572,-216 578,-210 584,-210 584,-210 614,-210 614,-210 620,-210 626,-216 626,-222 626,-222 626,-234 626,-234 626,-240 620,-246 614,-246"/>
<text text-anchor="middle" x="599" y="-225.5" font-family="Avenir Next" font-size="10.00" fill="#17232b">EOS261</text>
</a>
</g>
</g>
<!-- course__EOS110&#45;&gt;course__EOS261 -->
<g id="edge3" class="edge">
<title>course__EOS110&#45;&gt;course__EOS261</title>
<path fill="none" stroke="#5d6972" stroke-width="1.2" d="M471.2,-190.03C502.23,-199.32 538.9,-210.3 564.8,-218.06"/>
<polygon fill="#5d6972" stroke="#5d6972" stroke-width="1.2" points="564.4,-220.49 571.8,-220.16 565.8,-215.8 564.4,-220.49"/>
</g>
<!-- course__GEOG209 -->
<g id="node4" class="node">
<title>course__GEOG209</title>
<g id="a_node4"><a xlink:href="../../../courses/GEOG209.html" xlink:title="GEOG209: Environmental Management" target="_top">
<path fill="#e7e2d8" stroke="#1b2730" stroke-width="1.6" d="M618.5,-36C618.5,-36 579.5,-36 579.5,-36 573.5,-36 567.5,-30 567.5,-24 567.5,-24 567.5,-12 567.5,-12 567.5,-6 573.5,0 579.5,0 579.5,0 618.5,0 618.5,0 624.5,0 630.5,-6 630.5,-12 630.5,-12 630.5,-24 630.5,-24 630.5,-30 624.5,-36 618.5,-36"/>
<text text-anchor="middle" x="599" y="-15.5" font-family="Avenir Next" font-size="10.00" fill="#17232b">GEOG209</text>
</a>
</g>
</g>
<!-- course__EOS110&#45;&gt;course__GEOG209 -->
<g id="edge22" class="edge">
<title>course__EOS110&#45;&gt;course__GEOG209</title>
<path fill="none" stroke="#5d6972" stroke-width="1.2" d="M428.97,-153.59C453.66,-128.79 500.04,-83.96 544,-51 549.36,-46.98 555.23,-43.01 561.06,-39.28"/>
<polygon fill="#5d6972" stroke="#5d6972" stroke-width="1.2" points="562.71,-41.14 567.34,-35.35 560.11,-36.98 562.71,-41.14"/>
</g>
<!-- course__GEOG272 -->
<g id="node5" class="node">
<title>course__GEOG272</title>
<g id="a_node5"><a xlink:href="../../../courses/GEOG272.html" xlink:title="GEOG272: Climatology and Hydrology" target="_top">
<path fill="#e7e2d8" stroke="#1b2730" stroke-width="1.6" d="M618.5,-327C618.5,-327 579.5,-327 579.5,-327 573.5,-327 567.5,-321 567.5,-315 567.5,-315 567.5,-303 567.5,-303 567.5,-297 573.5,-291 579.5,-291 579.5,-291 618.5,-291 618.5,-291 624.5,-291 630.5,-297 630.5,-303 630.5,-303 630.5,-315 630.5,-315 630.5,-321 624.5,-327 618.5,-327"/>
<text text-anchor="middle" x="599" y="-306.5" font-family="Avenir Next" font-size="10.00" fill="#17232b">GEOG272</text>
</a>
</g>
</g>
<!-- course__EOS110&#45;&gt;course__GEOG272 -->
<g id="edge23" class="edge">
<title>course__EOS110&#45;&gt;course__GEOG272</title>
<path fill="none" stroke="#5d6972" stroke-width="1.2" d="M435.83,-190.19C469.88,-215.13 530.99,-259.91 567.69,-286.79"/>
<polygon fill="#5d6972" stroke="#5d6972" stroke-width="1.2" points="566.27,-288.79 573.36,-290.95 569.16,-284.84 566.27,-288.79"/>
</g>
<!-- choice_EOS312_0_0 -->
<g id="node20" class="node">
<title>choice_EOS312_0_0</title>
<path fill="#fff7ee" stroke="#b7793f" stroke-width="1.1" d="M1152,-92C1152,-92 1122,-92 1122,-92 1116,-92 1110,-86 1110,-80 1110,-80 1110,-68 1110,-68 1110,-62 1116,-56 1122,-56 1122,-56 1152,-56 1152,-56 1158,-56 1164,-62 1164,-68 1164,-68 1164,-80 1164,-80 1164,-86 1158,-92 1152,-92"/>
<text text-anchor="middle" x="1137" y="-71.8" font-family="Avenir Next" font-size="9.00">1 of</text>
</g>
<!-- course__EOS110&#45;&gt;choice_EOS312_0_0 -->
<g id="edge4" class="edge">
<title>course__EOS110&#45;&gt;choice_EOS312_0_0</title>
<path fill="none" stroke="#7a8389" d="M444.09,-153.95C502.32,-123.93 627.67,-67 741,-67 741,-67 741,-67 858,-67 946.35,-67 1050.45,-70.58 1102.63,-72.62"/>
<polygon fill="#7a8389" stroke="#7a8389" points="1102.85,-75.08 1109.94,-72.91 1103.05,-70.18 1102.85,-75.08"/>
</g>
<!-- choice_EOS321_0_1_0 -->
<g id="node21" class="node">
<title>choice_EOS321_0_1_0</title>
<path fill="#fff7ee" stroke="#b7793f" stroke-width="1.1" d="M757,-246C757,-246 727,-246 727,-246 721,-246 715,-240 715,-234 715,-234 715,-222 715,-222 715,-216 721,-210 727,-210 727,-210 757,-210 757,-210 763,-210 769,-216 769,-222 769,-222 769,-234 769,-234 769,-240 763,-246 757,-246"/>
<text text-anchor="middle" x="742" y="-225.8" font-family="Avenir Next" font-size="9.00">1 of</text>
</g>
<!-- course__EOS230&#45;&gt;choice_EOS321_0_1_0 -->
<g id="edge7" class="edge">
<title>course__EOS230&#45;&gt;choice_EOS321_0_1_0</title>
<path fill="none" stroke="#7a8389" d="M645.39,-190.03C665.75,-198.11 689.33,-207.48 707.98,-214.88"/>
<polygon fill="#7a8389" stroke="#7a8389" points="707.2,-217.21 714.61,-217.52 709.01,-212.66 707.2,-217.21"/>
</g>
<!-- choice_EOS325_0_2_0 -->
<g id="node22" class="node">
<title>choice_EOS325_0_2_0</title>
<path fill="#fff7ee" stroke="#b7793f" stroke-width="1.1" d="M757,-190C757,-190 727,-190 727,-190 721,-190 715,-184 715,-178 715,-178 715,-166 715,-166 715,-160 721,-154 727,-154 727,-154 757,-154 757,-154 763,-154 769,-160 769,-166 769,-166 769,-178 769,-178 769,-184 763,-190 757,-190"/>
<text text-anchor="middle" x="742" y="-169.8" font-family="Avenir Next" font-size="9.00">1 of</text>
</g>
<!-- course__EOS230&#45;&gt;choice_EOS325_0_2_0 -->
<g id="edge10" class="edge">
<title>course__EOS230&#45;&gt;choice_EOS325_0_2_0</title>
<path fill="none" stroke="#7a8389" d="M654.11,-172C672.16,-172 691.73,-172 707.71,-172"/>
<polygon fill="#7a8389" stroke="#7a8389" points="707.79,-174.45 714.79,-172 707.79,-169.55 707.79,-174.45"/>
</g>
<!-- course__EOS261&#45;&gt;choice_EOS321_0_1_0 -->
<g id="edge8" class="edge">
<title>course__EOS261&#45;&gt;choice_EOS321_0_1_0</title>
<path fill="none" stroke="#7a8389" d="M626.19,-228C649.24,-228 682.92,-228 707.84,-228"/>
<polygon fill="#7a8389" stroke="#7a8389" points="707.95,-230.45 714.95,-228 707.95,-225.55 707.95,-230.45"/>
</g>
<!-- course__EOS261&#45;&gt;choice_EOS325_0_2_0 -->
<g id="edge11" class="edge">
<title>course__EOS261&#45;&gt;choice_EOS325_0_2_0</title>
<path fill="none" stroke="#7a8389" d="M626.19,-217.6C649.34,-208.4 683.21,-194.95 708.16,-185.04"/>
<polygon fill="#7a8389" stroke="#7a8389" points="709.35,-187.21 714.95,-182.35 707.54,-182.65 709.35,-187.21"/>
</g>
<!-- choice_GEOG370_0_0 -->
<g id="node24" class="node">
<title>choice_GEOG370_0_0</title>
<path fill="#fff7ee" stroke="#b7793f" stroke-width="1.1" d="M1152,-351C1152,-351 1122,-351 1122,-351 1116,-351 1110,-345 1110,-339 1110,-339 1110,-327 1110,-327 1110,-321 1116,-315 1122,-315 1122,-315 1152,-315 1152,-315 1158,-315 1164,-321 1164,-327 1164,-327 1164,-339 1164,-339 1164,-345 1158,-351 1152,-351"/>
<text text-anchor="middle" x="1137" y="-330.8" font-family="Avenir Next" font-size="9.00">1 of</text>
</g>
<!-- course__GEOG272&#45;&gt;choice_GEOG370_0_0 -->
<g id="edge24" class="edge">
<title>course__GEOG272&#45;&gt;choice_GEOG370_0_0</title>
<path fill="none" stroke="#7a8389" d="M630.74,-310.38C724.4,-314.57 1005.69,-327.17 1102.69,-331.51"/>
<polygon fill="#7a8389" stroke="#7a8389" points="1102.78,-333.97 1109.89,-331.83 1103,-329.07 1102.78,-333.97"/>
</g>
<!-- course__EOS321 -->
<g id="node6" class="node">
<title>course__EOS321</title>
<g id="a_node6"><a xlink:href="../../../courses/EOS321.html" xlink:title="EOS321: Earth History" target="_top">
<path fill="#d7e9ef" stroke="#7e8d96" d="M872,-246C872,-246 842,-246 842,-246 836,-246 830,-240 830,-234 830,-234 830,-222 830,-222 830,-216 836,-210 842,-210 842,-210 872,-210 872,-210 878,-210 884,-216 884,-222 884,-222 884,-234 884,-234 884,-240 878,-246 872,-246"/>
<text text-anchor="middle" x="857" y="-225.8" font-family="Avenir Next" font-size="9.00" fill="#41515b">EOS321</text>
</a>
</g>
</g>
<!-- course__EOS325 -->
<g id="node7" class="node">
<title>course__EOS325</title>
<g id="a_node7"><a xlink:href="../../../courses/EOS325.html" xlink:title="EOS325: Earth System Modelling" target="_top">
<path fill="#d7e9ef" stroke="#7e8d96" d="M872,-190C872,-190 842,-190 842,-190 836,-190 830,-184 830,-178 830,-178 830,-166 830,-166 830,-160 836,-154 842,-154 842,-154 872,-154 872,-154 878,-154 884,-160 884,-166 884,-166 884,-178 884,-178 884,-184 878,-190 872,-190"/>
<text text-anchor="middle" x="857" y="-169.8" font-family="Avenir Next" font-size="9.00" fill="#41515b">EOS325</text>
</a>
</g>
</g>
<!-- course__EOS340 -->
<g id="node8" class="node">
<title>course__EOS340</title>
<g id="a_node8"><a xlink:href="../../../courses/EOS340.html" xlink:title="Equivalent or cross&#45;listed: EOS340: Atmospheric Physics | PHYS340: Atmospheric Physics" target="_top">
<path fill="#d7e9ef" stroke="#7e8d96" d="M1037,-246C1037,-246 957,-246 957,-246 951,-246 945,-240 945,-234 945,-234 945,-222 945,-222 945,-216 951,-210 957,-210 957,-210 1037,-210 1037,-210 1043,-210 1049,-216 1049,-222 1049,-222 1049,-234 1049,-234 1049,-240 1043,-246 1037,-246"/>
<text text-anchor="middle" x="997" y="-225.8" font-family="Avenir Next" font-size="9.00" fill="#41515b">EOS340 / PHYS340</text>
</a>
</g>
</g>
<!-- course__EOS325&#45;&gt;course__EOS340 -->
<g id="edge13" class="edge">
<title>course__EOS325&#45;&gt;course__EOS340</title>
<path fill="none" stroke="#5d6972" stroke-width="1.2" d="M884.28,-182.66C901.43,-189.62 924.38,-198.94 945.02,-207.31"/>
<polygon fill="#5d6972" stroke="#5d6972" stroke-width="1.2" points="944.22,-209.63 951.63,-209.99 946.06,-205.09 944.22,-209.63"/>
</g>
<!-- course__EOS423 -->
<g id="node9" class="node">
<title>course__EOS423</title>
<g id="a_node9"><a xlink:href="../../../courses/EOS423.html" xlink:title="EOS423: Advanced Sedimentology and Stratigraphy" target="_top">
<path fill="#d7e9ef" stroke="#7e8d96" d="M1012,-134C1012,-134 982,-134 982,-134 976,-134 970,-128 970,-122 970,-122 970,-110 970,-110 970,-104 976,-98 982,-98 982,-98 1012,-98 1012,-98 1018,-98 1024,-104 1024,-110 1024,-110 1024,-122 1024,-122 1024,-128 1018,-134 1012,-134"/>
<text text-anchor="middle" x="997" y="-113.8" font-family="Avenir Next" font-size="9.00" fill="#41515b">EOS423</text>
</a>
</g>
</g>
<!-- course__EOS325&#45;&gt;course__EOS423 -->
<g id="edge17" class="edge">
<title>course__EOS325&#45;&gt;course__EOS423</title>
<path fill="none" stroke="#5d6972" stroke-width="1.2" d="M884.28,-161.34C906.73,-152.23 939.11,-139.08 963.24,-129.29"/>
<polygon fill="#5d6972" stroke="#5d6972" stroke-width="1.2" points="964.25,-131.53 969.82,-126.63 962.41,-126.99 964.25,-131.53"/>
</g>
<!-- course__EOS431 -->
<g id="node10" class="node">
<title>course__EOS431</title>
<g id="a_node10"><a xlink:href="../../../courses/EOS431.html" xlink:title="Equivalent or cross&#45;listed: EOS431: Physical Oceanography | PHYS441: Physical Oceanography" target="_top">
<path fill="#d7e9ef" stroke="#7e8d96" d="M1037,-190C1037,-190 957,-190 957,-190 951,-190 945,-184 945,-178 945,-178 945,-166 945,-166 945,-160 951,-154 957,-154 957,-154 1037,-154 1037,-154 1043,-154 1049,-160 1049,-166 1049,-166 1049,-178 1049,-178 1049,-184 1043,-190 1037,-190"/>
<text text-anchor="middle" x="997" y="-169.8" font-family="Avenir Next" font-size="9.00" fill="#41515b">EOS431 / PHYS441</text>
</a>
</g>
</g>
<!-- course__EOS325&#45;&gt;course__EOS431 -->
<g id="edge18" class="edge">
<title>course__EOS325&#45;&gt;course__EOS431</title>
<path fill="none" stroke="#5d6972" stroke-width="1.2" d="M884.28,-172C899.4,-172 919.03,-172 937.61,-172"/>
<polygon fill="#5d6972" stroke="#5d6972" stroke-width="1.2" points="937.94,-174.45 944.94,-172 937.94,-169.55 937.94,-174.45"/>
</g>
<!-- course__EOS460 -->
<g id="node11" class="node">
<title>course__EOS460</title>
<g id="a_node11"><a xlink:href="../../../courses/EOS460.html" xlink:title="EOS460: Earth System Science" target="_top">
<path fill="#d7e9ef" stroke="#7e8d96" d="M1012,-302C1012,-302 982,-302 982,-302 976,-302 970,-296 970,-290 970,-290 970,-278 970,-278 970,-272 976,-266 982,-266 982,-266 1012,-266 1012,-266 1018,-266 1024,-272 1024,-278 1024,-278 1024,-290 1024,-290 1024,-296 1018,-302 1012,-302"/>
<text text-anchor="middle" x="997" y="-281.8" font-family="Avenir Next" font-size="9.00" fill="#41515b">EOS460</text>
</a>
</g>
</g>
<!-- course__EOS325&#45;&gt;course__EOS460 -->
<g id="edge21" class="edge">
<title>course__EOS325&#45;&gt;course__EOS460</title>
<path fill="none" stroke="#5d6972" stroke-width="1.2" d="M875.62,-190.11C896.58,-211.45 930.55,-245.35 945,-256 950.73,-260.22 957.18,-264.24 963.5,-267.85"/>
<polygon fill="#5d6972" stroke="#5d6972" stroke-width="1.2" points="962.45,-270.07 969.76,-271.32 964.82,-265.79 962.45,-270.07"/>
</g>
<!-- course__EOS433 -->
<g id="node13" class="node">
<title>course__EOS433</title>
<g id="a_node13"><a xlink:href="../../../courses/EOS433.html" xlink:title="EOS433: The Physics of Climate" target="_top">
<path fill="#d7e9ef" stroke="#7e8d96" d="M1270.5,-302C1270.5,-302 1240.5,-302 1240.5,-302 1234.5,-302 1228.5,-296 1228.5,-290 1228.5,-290 1228.5,-278 1228.5,-278 1228.5,-272 1234.5,-266 1240.5,-266 1240.5,-266 1270.5,-266 1270.5,-266 1276.5,-266 1282.5,-272 1282.5,-278 1282.5,-278 1282.5,-290 1282.5,-290 1282.5,-296 1276.5,-302 1270.5,-302"/>
<text text-anchor="middle" x="1255.5" y="-281.8" font-family="Avenir Next" font-size="9.00" fill="#41515b">EOS433</text>
</a>
</g>
</g>
<!-- course__EOS340&#45;&gt;course__EOS433 -->
<g id="edge19" class="edge">
<title>course__EOS340&#45;&gt;course__EOS433</title>
<path fill="none" stroke="#5d6972" stroke-width="1.2" d="M1049.29,-239.2C1100.53,-250.38 1177.78,-267.25 1221.42,-276.78"/>
<polygon fill="#5d6972" stroke="#5d6972" stroke-width="1.2" points="1221.02,-279.2 1228.38,-278.3 1222.07,-274.41 1221.02,-279.2"/>
</g>
<!-- course__EOS451 -->
<g id="node14" class="node">
<title>course__EOS451</title>
<g id="a_node14"><a xlink:href="../../../courses/EOS451.html" xlink:title="EOS451: Introductory Dynamic Meteorology" target="_top">
<path fill="#d7e9ef" stroke="#7e8d96" d="M1270.5,-246C1270.5,-246 1240.5,-246 1240.5,-246 1234.5,-246 1228.5,-240 1228.5,-234 1228.5,-234 1228.5,-222 1228.5,-222 1228.5,-216 1234.5,-210 1240.5,-210 1240.5,-210 1270.5,-210 1270.5,-210 1276.5,-210 1282.5,-216 1282.5,-222 1282.5,-222 1282.5,-234 1282.5,-234 1282.5,-240 1276.5,-246 1270.5,-246"/>
<text text-anchor="middle" x="1255.5" y="-225.8" font-family="Avenir Next" font-size="9.00" fill="#41515b">EOS451</text>
</a>
</g>
</g>
<!-- course__EOS340&#45;&gt;course__EOS451 -->
<g id="edge20" class="edge">
<title>course__EOS340&#45;&gt;course__EOS451</title>
<path fill="none" stroke="#5d6972" stroke-width="1.2" d="M1049.29,-228C1100.43,-228 1177.46,-228 1221.15,-228"/>
<polygon fill="#5d6972" stroke="#5d6972" stroke-width="1.2" points="1221.38,-230.45 1228.38,-228 1221.38,-225.55 1221.38,-230.45"/>
</g>
<!-- course__EOS340&#45;&gt;choice_GEOG370_0_0 -->
<g id="edge25" class="edge">
<title>course__EOS340&#45;&gt;choice_GEOG370_0_0</title>
<path fill="none" stroke="#7a8389" d="M1033.46,-246.13C1038.79,-249.23 1044.13,-252.57 1049,-256 1071.97,-272.17 1095.69,-293.53 1112.55,-309.65"/>
<polygon fill="#7a8389" stroke="#7a8389" points="1111.26,-311.81 1118,-314.9 1114.66,-308.28 1111.26,-311.81"/>
</g>
<!-- choice_PHYS411_0_0 -->
<g id="node25" class="node">
<title>choice_PHYS411_0_0</title>
<path fill="#fff7ee" stroke="#b7793f" stroke-width="1.1" d="M1152,-190C1152,-190 1122,-190 1122,-190 1116,-190 1110,-184 1110,-178 1110,-178 1110,-166 1110,-166 1110,-160 1116,-154 1122,-154 1122,-154 1152,-154 1152,-154 1158,-154 1164,-160 1164,-166 1164,-166 1164,-178 1164,-178 1164,-184 1158,-190 1152,-190"/>
<text text-anchor="middle" x="1137" y="-169.8" font-family="Avenir Next" font-size="9.00">2 of</text>
</g>
<!-- course__EOS340&#45;&gt;choice_PHYS411_0_0 -->
<g id="edge28" class="edge">
<title>course__EOS340&#45;&gt;choice_PHYS411_0_0</title>
<path fill="none" stroke="#7a8389" d="M1042.42,-209.97C1062.04,-202.01 1084.7,-192.82 1102.81,-185.47"/>
<polygon fill="#7a8389" stroke="#7a8389" points="1104.2,-187.55 1109.77,-182.65 1102.36,-183.01 1104.2,-187.55"/>
</g>
<!-- course__EOS431&#45;&gt;choice_EOS312_0_0 -->
<g id="edge5" class="edge">
<title>course__EOS431&#45;&gt;choice_EOS312_0_0</title>
<path fill="none" stroke="#7a8389" d="M1032.78,-153.98C1038.3,-150.81 1043.88,-147.43 1049,-144 1070.57,-129.57 1093.37,-111.09 1110.22,-96.74"/>
<polygon fill="#7a8389" stroke="#7a8389" points="1111.97,-98.46 1115.69,-92.04 1108.78,-94.74 1111.97,-98.46"/>
</g>
<!-- choice_EOS401_0 -->
<g id="node23" class="node">
<title>choice_EOS401_0</title>
<path fill="#fff7ee" stroke="#b7793f" stroke-width="1.1" d="M1389,-117C1389,-117 1359,-117 1359,-117 1353,-117 1347,-111 1347,-105 1347,-105 1347,-93 1347,-93 1347,-87 1353,-81 1359,-81 1359,-81 1389,-81 1389,-81 1395,-81 1401,-87 1401,-93 1401,-93 1401,-105 1401,-105 1401,-111 1395,-117 1389,-117"/>
<text text-anchor="middle" x="1374" y="-96.8" font-family="Avenir Next" font-size="9.00">3 of</text>
</g>
<!-- course__EOS431&#45;&gt;choice_EOS401_0 -->
<g id="edge15" class="edge">
<title>course__EOS431&#45;&gt;choice_EOS401_0</title>
<path fill="none" stroke="#7a8389" d="M1049.11,-158.36C1068.15,-153.51 1089.99,-148.21 1110,-144 1192.09,-126.74 1289.65,-111.38 1339.71,-103.87"/>
<polygon fill="#7a8389" stroke="#7a8389" points="1340.18,-106.28 1346.75,-102.82 1339.46,-101.43 1340.18,-106.28"/>
</g>
<!-- course__EOS431&#45;&gt;choice_PHYS411_0_0 -->
<g id="edge29" class="edge">
<title>course__EOS431&#45;&gt;choice_PHYS411_0_0</title>
<path fill="none" stroke="#7a8389" d="M1049.39,-172C1067.2,-172 1086.68,-172 1102.66,-172"/>
<polygon fill="#7a8389" stroke="#7a8389" points="1102.73,-174.45 1109.73,-172 1102.73,-169.55 1102.73,-174.45"/>
</g>
<!-- course__EOS312 -->
<g id="node12" class="node">
<title>course__EOS312</title>
<g id="a_node12"><a xlink:href="../../../courses/EOS312.html" xlink:title="EOS312: Introductory Chemical Oceanography" target="_top">
<path fill="#d7e9ef" stroke="#1b2730" stroke-width="1.6" d="M1270.5,-92C1270.5,-92 1240.5,-92 1240.5,-92 1234.5,-92 1228.5,-86 1228.5,-80 1228.5,-80 1228.5,-68 1228.5,-68 1228.5,-62 1234.5,-56 1240.5,-56 1240.5,-56 1270.5,-56 1270.5,-56 1276.5,-56 1282.5,-62 1282.5,-68 1282.5,-68 1282.5,-80 1282.5,-80 1282.5,-86 1276.5,-92 1270.5,-92"/>
<text text-anchor="middle" x="1255.5" y="-71.5" font-family="Avenir Next" font-size="10.00" fill="#17232b">EOS312</text>
</a>
</g>
</g>
<!-- course__EOS312&#45;&gt;choice_EOS401_0 -->
<g id="edge14" class="edge">
<title>course__EOS312&#45;&gt;choice_EOS401_0</title>
<path fill="none" stroke="#7a8389" d="M1282.64,-79.61C1299.58,-83.25 1321.79,-88.01 1339.95,-91.91"/>
<polygon fill="#7a8389" stroke="#7a8389" points="1339.58,-94.33 1346.94,-93.41 1340.61,-89.54 1339.58,-94.33"/>
</g>
<!-- course__GEOG370 -->
<g id="node15" class="node">
<title>course__GEOG370</title>
<g id="a_node15"><a xlink:href="../../../courses/GEOG370.html" xlink:title="GEOG370: Methods in Hydrology" target="_top">
<path fill="#e7e2d8" stroke="#7e8d96" d="M1274,-358C1274,-358 1237,-358 1237,-358 1231,-358 1225,-352 1225,-346 1225,-346 1225,-334 1225,-334 1225,-328 1231,-322 1237,-322 1237,-322 1274,-322 1274,-322 1280,-322 1286,-328 1286,-334 1286,-334 1286,-346 1286,-346 1286,-352 1280,-358 1274,-358"/>
<text text-anchor="middle" x="1255.5" y="-337.8" font-family="Avenir Next" font-size="9.00" fill="#41515b">GEOG370</text>
</a>
</g>
</g>
<!-- course__GEOG477 -->
<g id="node18" class="node">
<title>course__GEOG477</title>
<g id="a_node18"><a xlink:href="../../../courses/GEOG477.html" xlink:title="GEOG477: Field Studies in Physical Geography" target="_top">
<path fill="#e7e2d8" stroke="#7e8d96" d="M1511,-358C1511,-358 1474,-358 1474,-358 1468,-358 1462,-352 1462,-346 1462,-346 1462,-334 1462,-334 1462,-328 1468,-322 1474,-322 1474,-322 1511,-322 1511,-322 1517,-322 1523,-328 1523,-334 1523,-334 1523,-346 1523,-346 1523,-352 1517,-358 1511,-358"/>
<text text-anchor="middle" x="1492.5" y="-337.8" font-family="Avenir Next" font-size="9.00" fill="#41515b">GEOG477</text>
</a>
</g>
</g>
<!-- course__GEOG370&#45;&gt;course__GEOG477 -->
<g id="edge27" class="edge">
<title>course__GEOG370&#45;&gt;course__GEOG477</title>
<path fill="none" stroke="#5d6972" stroke-width="1.2" d="M1286.26,-340C1329.17,-340 1408.34,-340 1454.81,-340"/>
<polygon fill="#5d6972" stroke="#5d6972" stroke-width="1.2" points="1454.98,-342.45 1461.98,-340 1454.98,-337.55 1454.98,-342.45"/>
</g>
<!-- course__PHYS411 -->
<g id="node16" class="node">
<title>course__PHYS411</title>
<g id="a_node16"><a xlink:href="../../../courses/PHYS411.html" xlink:title="PHYS411: Time Series Analysis" target="_top">
<path fill="#efd8cf" stroke="#7e8d96" d="M1272.5,-190C1272.5,-190 1238.5,-190 1238.5,-190 1232.5,-190 1226.5,-184 1226.5,-178 1226.5,-178 1226.5,-166 1226.5,-166 1226.5,-160 1232.5,-154 1238.5,-154 1238.5,-154 1272.5,-154 1272.5,-154 1278.5,-154 1284.5,-160 1284.5,-166 1284.5,-166 1284.5,-178 1284.5,-178 1284.5,-184 1278.5,-190 1272.5,-190"/>
<text text-anchor="middle" x="1255.5" y="-169.8" font-family="Avenir Next" font-size="9.00" fill="#41515b">PHYS411</text>
</a>
</g>
</g>
<!-- course__EOS401 -->
<g id="node17" class="node">
<title>course__EOS401</title>
<g id="a_node17"><a xlink:href="../../../courses/EOS401.html" xlink:title="EOS401: Oceanographic Field School" target="_top">
<path fill="#d7e9ef" stroke="#7e8d96" d="M1507.5,-117C1507.5,-117 1477.5,-117 1477.5,-117 1471.5,-117 1465.5,-111 1465.5,-105 1465.5,-105 1465.5,-93 1465.5,-93 1465.5,-87 1471.5,-81 1477.5,-81 1477.5,-81 1507.5,-81 1507.5,-81 1513.5,-81 1519.5,-87 1519.5,-93 1519.5,-93 1519.5,-105 1519.5,-105 1519.5,-111 1513.5,-117 1507.5,-117"/>
<text text-anchor="middle" x="1492.5" y="-96.8" font-family="Avenir Next" font-size="9.00" fill="#41515b">EOS401</text>
</a>
</g>
</g>
<!-- EOS350_notes -->
<g id="node19" class="node">
<title>EOS350_notes</title>
<polygon fill="#fff7ee" stroke="#b7793f" stroke-width="1.1" points="208,-195 0,-195 0,-149 214,-149 214,-189 208,-195"/>
<polyline fill="none" stroke="#b7793f" stroke-width="1.1" points="208,-195 208,-189 "/>
<polyline fill="none" stroke="#b7793f" stroke-width="1.1" points="214,-189 208,-189 "/>
<text text-anchor="start" x="13" y="-175.4" font-family="Avenir Next" font-size="12.00">Published notes</text>
<text text-anchor="start" x="13" y="-162.4" font-family="Avenir Next" font-size="12.00">Minimum second&#45;year standing</text>
</g>
<!-- EOS350_notes&#45;&gt;course__EOS110 -->
<!-- choice_EOS312_0_0&#45;&gt;course__EOS312 -->
<g id="edge6" class="edge">
<title>choice_EOS312_0_0&#45;&gt;course__EOS312</title>
<path fill="none" stroke="#5d6972" stroke-width="1.2" d="M1164.14,-74C1180.93,-74 1202.9,-74 1220.96,-74"/>
<polygon fill="#5d6972" stroke="#5d6972" stroke-width="1.2" points="1221.44,-76.45 1228.44,-74 1221.44,-71.55 1221.44,-76.45"/>
</g>
<!-- choice_EOS321_0_1_0&#45;&gt;course__EOS321 -->
<g id="edge9" class="edge">
<title>choice_EOS321_0_1_0&#45;&gt;course__EOS321</title>
<path fill="none" stroke="#5d6972" stroke-width="1.2" d="M769.21,-228C785.18,-228 805.74,-228 822.84,-228"/>
<polygon fill="#5d6972" stroke="#5d6972" stroke-width="1.2" points="822.93,-230.45 829.93,-228 822.93,-225.55 822.93,-230.45"/>
</g>
<!-- choice_EOS325_0_2_0&#45;&gt;course__EOS325 -->
<g id="edge12" class="edge">
<title>choice_EOS325_0_2_0&#45;&gt;course__EOS325</title>
<path fill="none" stroke="#5d6972" stroke-width="1.2" d="M769.21,-172C785.18,-172 805.74,-172 822.84,-172"/>
<polygon fill="#5d6972" stroke="#5d6972" stroke-width="1.2" points="822.93,-174.45 829.93,-172 822.93,-169.55 822.93,-174.45"/>
</g>
<!-- choice_EOS401_0&#45;&gt;course__EOS401 -->
<g id="edge16" class="edge">
<title>choice_EOS401_0&#45;&gt;course__EOS401</title>
<path fill="none" stroke="#5d6972" stroke-width="1.2" d="M1401.14,-99C1417.93,-99 1439.9,-99 1457.96,-99"/>
<polygon fill="#5d6972" stroke="#5d6972" stroke-width="1.2" points="1458.44,-101.45 1465.44,-99 1458.44,-96.55 1458.44,-101.45"/>
</g>
<!-- choice_GEOG370_0_0&#45;&gt;course__GEOG370 -->
<g id="edge26" class="edge">
<title>choice_GEOG370_0_0&#45;&gt;course__GEOG370</title>
<path fill="none" stroke="#5d6972" stroke-width="1.2" d="M1164.14,-334.57C1179.88,-335.52 1200.15,-336.73 1217.51,-337.78"/>
<polygon fill="#5d6972" stroke="#5d6972" stroke-width="1.2" points="1217.61,-340.24 1224.75,-338.21 1217.91,-335.35 1217.61,-340.24"/>
</g>
<!-- choice_PHYS411_0_0&#45;&gt;course__PHYS411 -->
<g id="edge30" class="edge">
<title>choice_PHYS411_0_0&#45;&gt;course__PHYS411</title>
<path fill="none" stroke="#5d6972" stroke-width="1.2" d="M1164.14,-172C1180.35,-172 1201.37,-172 1219.05,-172"/>
<polygon fill="#5d6972" stroke="#5d6972" stroke-width="1.2" points="1219.41,-174.45 1226.41,-172 1219.41,-169.55 1219.41,-174.45"/>
</g>
</g>
</svg>
