<?xml version="1.0" encoding="UTF-8" standalone="no"?>
<!DOCTYPE svg PUBLIC "-//W3C//DTD SVG 1.1//EN"
 "http://www.w3.org/Graphics/SVG/1.1/DTD/svg11.dtd">
<!-- Generated by graphviz version 2.43.0 (0)
 -->
<!-- Title: EOS311 Pages: 1 -->
<svg width="1325pt" height="507pt"
 viewBox="0.00 0.00 1325.20 507.20" xmlns="http://www.w3.org/2000/svg" xmlns:xlink="http://www.w3.org/1999/xlink">
<g id="graph0" class="graph" transform="scale(1 1) rotate(0) translate(21.6 485.6)">
<title>EOS311</title>
<!-- course__MATH100 -->
<g id="node1" class="node">
<title>course__MATH100</title>
<g id="a_node1"><a xlink:href="../../../courses/MATH100.html" xlink:title="Equivalent or cross&#45;listed: MATH100: Calculus I | MATH102: Calculus for Students in the Social and Biological Sciences | MATH109: Introduction to Calculus" target="_top">
<path fill="#dfe3f4" stroke="#1b2730" stroke-width="1.6" d="M368,-204C368,-204 273,-204 273,-204 267,-204 261,-198 261,-192 261,-192 261,-180 261,-180 261,-174 267,-168 273,-168 273,-168 368,-168 368,-168 374,-168 380,-174 380,-180 380,-180 380,-192 380,-192 380,-198 374,-204 368,-204"/>
<text text-anchor="middle" x="320.5" y="-189" font-family="Avenir Next" font-size="10.00" fill="#17232b">MATH100 / MATH102</text>
<text text-anchor="middle" x="320.5" y="-178" font-family="Avenir Next" font-size="10.00" fill="#17232b">MATH109</text>
</a>
</g>
</g>
<!-- course__MATH101 -->
<g id="node4" class="node">
<title>course__MATH101</title>
<g id="a_node4"><a xlink:href="../../../courses/MATH101.html" xlink:title="MATH101: Calculus II" target="_top">
<path fill="#dfe3f4" stroke="#1b2730" stroke-width="1.6" d="M520.5,-204C520.5,-204 481.5,-204 481.5,-204 475.5,-204 469.5,-198 469.5,-192 469.5,-192 469.5,-180 469.5,-180 469.5,-174 475.5,-168 481.5,-168 481.5,-168 520.5,-168 520.5,-168 526.5,-168 532.5,-174 532.5,-180 532.5,-180 532.5,-192 532.5,-192 532.5,-198 526.5,-204 520.5,-204"/>
<text text-anchor="middle" x="501" y="-183.5" font-family="Avenir Next" font-size="10.00" fill="#17232b">MATH101</text>
</a>
</g>
</g>
<!-- course__MATH100&#45;&gt;course__MATH101 -->
<g id="edge16" class="edge">
<title>course__MATH100&#45;&gt;course__MATH101</title>
<path fill="none" stroke="#5d6972" stroke-width="1.2" d="M380.44,-186C407.31,-186 438.35,-186 462.06,-186"/>
<polygon fill="#5d6972" stroke="#5d6972" stroke-width="1.2" points="462.17,-188.45 469.17,-186 462.17,-183.55 462.17,-188.45"/>
</g>
<!-- course__PHYS110 -->
<g id="node6" class="node">
<title>course__PHYS110</title>
<g id="a_node6"><a xlink:href="../../../courses/PHYS110.html" xlink:title="Equivalent or cross&#45;listed: PHYS110: Introductory Physics I | PHYS120: Physics I" target="_top">
<path fill="#efd8cf" stroke="#1b2730" stroke-width="1.6" d="M545.5,-92C545.5,-92 456.5,-92 456.5,-92 450.5,-92 444.5,-86 444.5,-80 444.5,-80 444.5,-68 444.5,-68 444.5,-62 450.5,-56 456.5,-56 456.5,-56 545.5,-56 545.5,-56 551.5,-56 557.5,-62 557.5,-68 557.5,-68 557.5,-80 557.5,-80 557.5,-86 551.5,-92 545.5,-92"/>
<text text-anchor="middle" x="501" y="-71.5" font-family="Avenir Next" font-size="10.00" fill="#17232b">PHYS110 / PHYS120</text>
</a>
</g>
</g>
<!-- course__MATH100&#45;&gt;course__PHYS110 -->
<g id="edge20" class="edge">
<title>course__MATH100&#45;&gt;course__PHYS110</title>
<path fill="none" stroke="#5d6972" stroke-width="1.2" d="M347.72,-167.86C371.69,-151.46 408.29,-126.92 441,-107 447.16,-103.25 453.77,-99.39 460.25,-95.7"/>
<polygon fill="#5d6972" stroke="#5d6972" stroke-width="1.2" points="461.78,-97.65 466.67,-92.07 459.37,-93.38 461.78,-97.65"/>
</g>
<!-- course__CHEM102 -->
<g id="node7" class="node">
<title>course__CHEM102</title>
<g id="a_node7"><a xlink:href="../../../courses/CHEM102.html" xlink:title="CHEM102: Chemical Reactivity Fundamentals with Environmental Applications" target="_top">
<path fill="#ead9b8" stroke="#1b2730" stroke-width="1.6" d="M813.5,-356C813.5,-356 773.5,-356 773.5,-356 767.5,-356 761.5,-350 761.5,-344 761.5,-344 761.5,-332 761.5,-332 761.5,-326 767.5,-320 773.5,-320 773.5,-320 813.5,-320 813.5,-320 819.5,-320 825.5,-326 825.5,-332 825.5,-332 825.5,-344 825.5,-344 825.5,-350 819.5,-356 813.5,-356"/>
<text text-anchor="middle" x="793.5" y="-335.5" font-family="Avenir Next" font-size="10.00" fill="#17232b">CHEM102</text>
</a>
</g>
</g>
<!-- course__MATH100&#45;&gt;course__CHEM102 -->
<g id="edge6" class="edge">
<title>course__MATH100&#45;&gt;course__CHEM102</title>
<path fill="none" stroke="#5d6972" stroke-width="1.2" d="M326.3,-204.07C338.03,-244.13 372.35,-339.87 441,-378 543,-434.66 687.18,-385.2 754.77,-355.92"/>
<polygon fill="#5d6972" stroke="#5d6972" stroke-width="1.2" points="756.04,-358.04 761.46,-352.98 754.07,-353.55 756.04,-358.04"/>
</g>
<!-- course__PHYS111 -->
<g id="node10" class="node">
<title>course__PHYS111</title>
<g id="a_node10"><a xlink:href="../../../courses/PHYS111.html" xlink:title="Equivalent or cross&#45;listed: PHYS111: Introductory Physics II | PHYS130: Physics II" target="_top">
<path fill="#efd8cf" stroke="#1b2730" stroke-width="1.6" d="M838,-120C838,-120 749,-120 749,-120 743,-120 737,-114 737,-108 737,-108 737,-96 737,-96 737,-90 743,-84 749,-84 749,-84 838,-84 838,-84 844,-84 850,-90 850,-96 850,-96 850,-108 850,-108 850,-114 844,-120 838,-120"/>
<text text-anchor="middle" x="793.5" y="-99.5" font-family="Avenir Next" font-size="10.00" fill="#17232b">PHYS111 / PHYS130</text>
</a>
</g>
</g>
<!-- course__MATH100&#45;&gt;course__PHYS111 -->
<g id="edge22" class="edge">
<title>course__MATH100&#45;&gt;course__PHYS111</title>
<path fill="none" stroke="#5d6972" stroke-width="1.2" d="M380.28,-171.34C399.56,-166.77 421.14,-161.9 441,-158 541.53,-138.24 659.29,-120.59 729.79,-110.6"/>
<polygon fill="#5d6972" stroke="#5d6972" stroke-width="1.2" points="730.29,-113 736.88,-109.6 729.61,-108.15 730.29,-113"/>
</g>
<!-- choice_EOS311_0_2 -->
<g id="node16" class="node">
<title>choice_EOS311_0_2</title>
<path fill="#fff7ee" stroke="#b7793f" stroke-width="1.1" d="M953,-246C953,-246 923,-246 923,-246 917,-246 911,-240 911,-234 911,-234 911,-222 911,-222 911,-216 917,-210 923,-210 923,-210 953,-210 953,-210 959,-210 965,-216 965,-222 965,-222 965,-234 965,-234 965,-240 959,-246 953,-246"/>
<text text-anchor="middle" x="938" y="-225.8" font-family="Avenir Next" font-size="9.00">2 of</text>
</g>
<!-- course__MATH100&#45;&gt;choice_EOS311_0_2 -->
<g id="edge7" class="edge">
<title>course__MATH100&#45;&gt;choice_EOS311_0_2</title>
<path fill="none" stroke="#7a8389" d="M380.06,-201.93C399.33,-206.58 420.96,-211.17 441,-214 613.49,-238.38 822.98,-232.98 903.37,-229.63"/>
<polygon fill="#7a8389" stroke="#7a8389" points="903.86,-232.06 910.74,-229.32 903.65,-227.17 903.86,-232.06"/>
</g>
<!-- course__CHEM091 -->
<g id="node2" class="node">
<title>course__CHEM091</title>
<g id="a_node2"><a xlink:href="../../../courses/CHEM091.html" xlink:title="CHEM091: Introduction to Chemistry" target="_top">
<path fill="#ead9b8" stroke="#7e8d96" d="M519.5,-368C519.5,-368 482.5,-368 482.5,-368 476.5,-368 470.5,-362 470.5,-356 470.5,-356 470.5,-344 470.5,-344 470.5,-338 476.5,-332 482.5,-332 482.5,-332 519.5,-332 519.5,-332 525.5,-332 531.5,-338 531.5,-344 531.5,-344 531.5,-356 531.5,-356 531.5,-362 525.5,-368 519.5,-368"/>
<text text-anchor="middle" x="501" y="-347.8" font-family="Avenir Next" font-size="9.00" fill="#41515b">CHEM091</text>
</a>
</g>
</g>
<!-- course__CHEM091&#45;&gt;course__CHEM102 -->
<g id="edge4" class="edge">
<title>course__CHEM091&#45;&gt;course__CHEM102</title>
<path fill="none" stroke="#5d6972" stroke-width="1.2" d="M531.72,-348.77C584.7,-346.58 695.37,-342.01 754.05,-339.59"/>
<polygon fill="#5d6972" stroke="#5d6972" stroke-width="1.2" points="754.39,-342.03 761.29,-339.29 754.19,-337.13 754.39,-342.03"/>
</g>
<!-- course__CHEM101 -->
<g id="node3" class="node">
<title>course__CHEM101</title>
<g id="a_node3"><a xlink:href="../../../courses/CHEM101.html" xlink:title="Equivalent or cross&#45;listed: CHEM101: Fundamentals of Chemistry from Atoms to Materials | CHEM150: Engineering Chemistry" target="_top">
<path fill="#ead9b8" stroke="#1b2730" stroke-width="1.6" d="M549,-312C549,-312 453,-312 453,-312 447,-312 441,-306 441,-300 441,-300 441,-288 441,-288 441,-282 447,-276 453,-276 453,-276 549,-276 549,-276 555,-276 561,-282 561,-288 561,-288 561,-300 561,-300 561,-306 555,-312 549,-312"/>
<text text-anchor="middle" x="501" y="-291.5" font-family="Avenir Next" font-size="10.00" fill="#17232b">CHEM101 / CHEM150</text>
</a>
</g>
</g>
<!-- course__CHEM101&#45;&gt;course__CHEM102 -->
<g id="edge5" class="edge">
<title>course__CHEM101&#45;&gt;course__CHEM102</title>
<path fill="none" stroke="#5d6972" stroke-width="1.2" d="M561.14,-302.96C618.85,-311.7 704.95,-324.74 754.22,-332.2"/>
<polygon fill="#5d6972" stroke="#5d6972" stroke-width="1.2" points="753.92,-334.63 761.21,-333.26 754.66,-329.79 753.92,-334.63"/>
</g>
<!-- course__MATH101&#45;&gt;course__PHYS111 -->
<g id="edge23" class="edge">
<title>course__MATH101&#45;&gt;course__PHYS111</title>
<path fill="none" stroke="#5d6972" stroke-width="1.2" d="M532.6,-178.17C567.44,-169.15 626.01,-153.68 676,-139 693.71,-133.8 712.82,-127.86 730.35,-122.29"/>
<polygon fill="#5d6972" stroke="#5d6972" stroke-width="1.2" points="731.32,-124.55 737.24,-120.09 729.83,-119.89 731.32,-124.55"/>
</g>
<!-- course__MATH101&#45;&gt;choice_EOS311_0_2 -->
<g id="edge8" class="edge">
<title>course__MATH101&#45;&gt;choice_EOS311_0_2</title>
<path fill="none" stroke="#7a8389" d="M532.59,-188.95C611.62,-196.58 822.13,-216.91 903.89,-224.8"/>
<polygon fill="#7a8389" stroke="#7a8389" points="903.73,-227.25 910.93,-225.48 904.2,-222.37 903.73,-227.25"/>
</g>
<!-- course__PHYS102A -->
<g id="node5" class="node">
<title>course__PHYS102A</title>
<g id="a_node5"><a xlink:href="../../../courses/PHYS102A.html" xlink:title="PHYS102A: General Physics I" target="_top">
<path fill="#efd8cf" stroke="#1b2730" stroke-width="1.6" d="M522.5,-36C522.5,-36 479.5,-36 479.5,-36 473.5,-36 467.5,-30 467.5,-24 467.5,-24 467.5,-12 467.5,-12 467.5,-6 473.5,0 479.5,0 479.5,0 522.5,0 522.5,0 528.5,0 534.5,-6 534.5,-12 534.5,-12 534.5,-24 534.5,-24 534.5,-30 528.5,-36 522.5,-36"/>
<text text-anchor="middle" x="501" y="-15.5" font-family="Avenir Next" font-size="10.00" fill="#17232b">PHYS102A</text>
</a>
</g>
</g>
<!-- choice_PHYS102B_0 -->
<g id="node18" class="node">
<title>choice_PHYS102B_0</title>
<path fill="#fff7ee" stroke="#b7793f" stroke-width="1.1" d="M664,-50C664,-50 634,-50 634,-50 628,-50 622,-44 622,-38 622,-38 622,-26 622,-26 622,-20 628,-14 634,-14 634,-14 664,-14 664,-14 670,-14 676,-20 676,-26 676,-26 676,-38 676,-38 676,-44 670,-50 664,-50"/>
<text text-anchor="middle" x="649" y="-29.8" font-family="Avenir Next" font-size="9.00">1 of</text>
</g>
<!-- course__PHYS102A&#45;&gt;choice_PHYS102B_0 -->
<g id="edge17" class="edge">
<title>course__PHYS102A&#45;&gt;choice_PHYS102B_0</title>
<path fill="none" stroke="#7a8389" d="M534.77,-21.14C558.54,-23.42 590.59,-26.49 614.52,-28.79"/>
<polygon fill="#7a8389" stroke="#7a8389" points="614.47,-31.25 621.67,-29.48 614.94,-26.37 614.47,-31.25"/>
</g>
<!-- course__PHYS110&#45;&gt;course__PHYS111 -->
<g id="edge21" class="edge">
<title>course__PHYS110&#45;&gt;course__PHYS111</title>
<path fill="none" stroke="#5d6972" stroke-width="1.2" d="M557.67,-79.37C606.76,-84.1 678.25,-90.99 729.44,-95.92"/>
<polygon fill="#5d6972" stroke="#5d6972" stroke-width="1.2" points="729.32,-98.37 736.53,-96.6 729.79,-93.49 729.32,-98.37"/>
</g>
<!-- course__PHYS110&#45;&gt;choice_PHYS102B_0 -->
<g id="edge18" class="edge">
<title>course__PHYS110&#45;&gt;choice_PHYS102B_0</title>
<path fill="none" stroke="#7a8389" d="M557.61,-58C576.93,-52.44 597.98,-46.39 614.9,-41.52"/>
<polygon fill="#7a8389" stroke="#7a8389" points="615.83,-43.8 621.88,-39.51 614.47,-39.1 615.83,-43.8"/>
</g>
<!-- course__EOS311 -->
<g id="node11" class="node">
<title>course__EOS311</title>
<g id="a_node11"><a xlink:href="../../../courses/EOS311.html" xlink:title="Equivalent or cross&#45;listed: BIOL311: Biological Oceanography | EOS311: Biological Oceanography" target="_top">
<path fill="#d7e9ef" stroke="#1f4f66" stroke-width="2" d="M1152,-316C1152,-316 1038,-316 1038,-316 1032,-316 1026,-310 1026,-304 1026,-304 1026,-292 1026,-292 1026,-286 1032,-280 1038,-280 1038,-280 1152,-280 1152,-280 1158,-280 1164,-286 1164,-292 1164,-292 1164,-304 1164,-304 1164,-310 1158,-316 1152,-316"/>
<text text-anchor="middle" x="1095" y="-301" font-family="Avenir Next" font-size="10.00" fill="#17232b">BIOL311 / EOS311</text>
<text text-anchor="middle" x="1095" y="-290" font-family="Avenir Next" font-size="10.00" fill="#17232b">Biological Oceanography</text>
</a>
</g>
</g>
<!-- course__CHEM102&#45;&gt;course__EOS311 -->
<g id="edge12" class="edge">
<title>course__CHEM102&#45;&gt;course__EOS311</title>
<path fill="none" stroke="#5d6972" stroke-width="1.2" d="M825.7,-333.83C871,-327.78 956.36,-316.38 1018.67,-308.06"/>
<polygon fill="#5d6972" stroke="#5d6972" stroke-width="1.2" points="1019.15,-310.47 1025.77,-307.11 1018.51,-305.61 1019.15,-310.47"/>
</g>
<!-- course__MATH151 -->
<g id="node8" class="node">
<title>course__MATH151</title>
<g id="a_node8"><a xlink:href="../../../courses/MATH151.html" xlink:title="MATH151: Finite Mathematics" target="_top">
<path fill="#dfe3f4" stroke="#1b2730" stroke-width="1.6" d="M813,-176C813,-176 774,-176 774,-176 768,-176 762,-170 762,-164 762,-164 762,-152 762,-152 762,-146 768,-140 774,-140 774,-140 813,-140 813,-140 819,-140 825,-146 825,-152 825,-152 825,-164 825,-164 825,-170 819,-176 813,-176"/>
<text text-anchor="middle" x="793.5" y="-155.5" font-family="Avenir Next" font-size="10.00" fill="#17232b">MATH151</text>
</a>
</g>
</g>
<!-- course__MATH151&#45;&gt;choice_EOS311_0_2 -->
<g id="edge9" class="edge">
<title>course__MATH151&#45;&gt;choice_EOS311_0_2</title>
<path fill="none" stroke="#7a8389" d="M825.07,-173.02C848.39,-184.47 880.46,-200.23 904.3,-211.93"/>
<polygon fill="#7a8389" stroke="#7a8389" points="903.42,-214.24 910.79,-215.12 905.58,-209.84 903.42,-214.24"/>
</g>
<!-- course__PHYS102B -->
<g id="node9" class="node">
<title>course__PHYS102B</title>
<g id="a_node9"><a xlink:href="../../../courses/PHYS102B.html" xlink:title="PHYS102B: General Physics II" target="_top">
<path fill="#efd8cf" stroke="#1b2730" stroke-width="1.6" d="M815,-57C815,-57 772,-57 772,-57 766,-57 760,-51 760,-45 760,-45 760,-33 760,-33 760,-27 766,-21 772,-21 772,-21 815,-21 815,-21 821,-21 827,-27 827,-33 827,-33 827,-45 827,-45 827,-51 821,-57 815,-57"/>
<text text-anchor="middle" x="793.5" y="-36.5" font-family="Avenir Next" font-size="10.00" fill="#17232b">PHYS102B</text>
</a>
</g>
</g>
<!-- choice_EOS311_0_3 -->
<g id="node17" class="node">
<title>choice_EOS311_0_3</title>
<path fill="#fff7ee" stroke="#b7793f" stroke-width="1.1" d="M953,-120C953,-120 923,-120 923,-120 917,-120 911,-114 911,-108 911,-108 911,-96 911,-96 911,-90 917,-84 923,-84 923,-84 953,-84 953,-84 959,-84 965,-90 965,-96 965,-96 965,-108 965,-108 965,-114 959,-120 953,-120"/>
<text text-anchor="middle" x="938" y="-99.8" font-family="Avenir Next" font-size="9.00">1 of</text>
</g>
<!-- course__PHYS102B&#45;&gt;choice_EOS311_0_3 -->
<g id="edge10" class="edge">
<title>course__PHYS102B&#45;&gt;choice_EOS311_0_3</title>
<path fill="none" stroke="#7a8389" d="M827.19,-53.45C850.23,-63.64 880.96,-77.22 904.05,-87.43"/>
<polygon fill="#7a8389" stroke="#7a8389" points="903.25,-89.76 910.65,-90.35 905.24,-85.28 903.25,-89.76"/>
</g>
<!-- course__PHYS111&#45;&gt;choice_EOS311_0_3 -->
<g id="edge11" class="edge">
<title>course__PHYS111&#45;&gt;choice_EOS311_0_3</title>
<path fill="none" stroke="#7a8389" d="M850,-102C868.16,-102 887.76,-102 903.75,-102"/>
<polygon fill="#7a8389" stroke="#7a8389" points="903.83,-104.45 910.83,-102 903.83,-99.55 903.83,-104.45"/>
</g>
<!-- course__BIOL446 -->
<g id="node12" class="node">
<title>course__BIOL446</title>
<g id="a_node12"><a xlink:href="../../../courses/BIOL446.html" xlink:title="BIOL446: Advanced Aquatic Ecology" target="_top">
<path fill="#dbe8d2" stroke="#1b2730" stroke-width="1.6" d="M1270,-372C1270,-372 1237,-372 1237,-372 1231,-372 1225,-366 1225,-360 1225,-360 1225,-348 1225,-348 1225,-342 1231,-336 1237,-336 1237,-336 1270,-336 1270,-336 1276,-336 1282,-342 1282,-348 1282,-348 1282,-360 1282,-360 1282,-366 1276,-372 1270,-372"/>
<text text-anchor="middle" x="1253.5" y="-351.5" font-family="Avenir Next" font-size="10.00" fill="#17232b">BIOL446</text>
</a>
</g>
</g>
<!-- course__EOS311&#45;&gt;course__BIOL446 -->
<g id="edge2" class="edge">
<title>course__EOS311&#45;&gt;course__BIOL446</title>
<path fill="none" stroke="#5d6972" stroke-width="1.2" d="M1146.38,-316.03C1169.76,-324.39 1196.96,-334.13 1217.97,-341.65"/>
<polygon fill="#5d6972" stroke="#5d6972" stroke-width="1.2" points="1217.15,-343.95 1224.56,-344 1218.8,-339.34 1217.15,-343.95"/>
</g>
<!-- course__BIOL466 -->
<g id="node13" class="node">
<title>course__BIOL466</title>
<g id="a_node13"><a xlink:href="../../../courses/BIOL466.html" xlink:title="BIOL466: Frontiers in Marine Biology" target="_top">
<path fill="#dbe8d2" stroke="#1b2730" stroke-width="1.6" d="M1270,-316C1270,-316 1237,-316 1237,-316 1231,-316 1225,-310 1225,-304 1225,-304 1225,-292 1225,-292 1225,-286 1231,-280 1237,-280 1237,-280 1270,-280 1270,-280 1276,-280 1282,-286 1282,-292 1282,-292 1282,-304 1282,-304 1282,-310 1276,-316 1270,-316"/>
<text text-anchor="middle" x="1253.5" y="-295.5" font-family="Avenir Next" font-size="10.00" fill="#17232b">BIOL466</text>
</a>
</g>
</g>
<!-- course__EOS311&#45;&gt;course__BIOL466 -->
<g id="edge3" class="edge">
<title>course__EOS311&#45;&gt;course__BIOL466</title>
<path fill="none" stroke="#5d6972" stroke-width="1.2" d="M1164.19,-298C1182.76,-298 1202.1,-298 1217.93,-298"/>
<polygon fill="#5d6972" stroke="#5d6972" stroke-width="1.2" points="1217.94,-300.45 1224.94,-298 1217.94,-295.55 1217.94,-300.45"/>
</g>
<!-- course__EOS401 -->
<g id="node14" class="node">
<title>course__EOS401</title>
<g id="a_node14"><a xlink:href="../../../courses/EOS401.html" xlink:title="EOS401: Oceanographic Field School" target="_top">
<path fill="#d7e9ef" stroke="#1b2730" stroke-width="1.6" d="M1268.5,-260C1268.5,-260 1238.5,-260 1238.5,-260 1232.5,-260 1226.5,-254 1226.5,-248 1226.5,-248 1226.5,-236 1226.5,-236 1226.5,-230 1232.5,-224 1238.5,-224 1238.5,-224 1268.5,-224 1268.5,-224 1274.5,-224 1280.5,-230 1280.5,-236 1280.5,-236 1280.5,-248 1280.5,-248 1280.5,-254 1274.5,-260 1268.5,-260"/>
<text text-anchor="middle" x="1253.5" y="-239.5" font-family="Avenir Next" font-size="10.00" fill="#17232b">EOS401</text>
</a>
</g>
</g>
<!-- course__EOS311&#45;&gt;course__EOS401 -->
<g id="edge15" class="edge">
<title>course__EOS311&#45;&gt;course__EOS401</title>
<path fill="none" stroke="#5d6972" stroke-width="1.2" d="M1146.38,-279.97C1170.41,-271.38 1198.47,-261.33 1219.7,-253.74"/>
<polygon fill="#5d6972" stroke="#5d6972" stroke-width="1.2" points="1220.57,-256.03 1226.34,-251.36 1218.92,-251.41 1220.57,-256.03"/>
</g>
<!-- EOS311_notes -->
<g id="node15" class="node">
<title>EOS311_notes</title>
<polygon fill="#fff7ee" stroke="#b7793f" stroke-width="1.1" points="194,-464 0,-464 0,-418 200,-418 200,-458 194,-464"/>
<polyline fill="none" stroke="#b7793f" stroke-width="1.1" points="194,-464 194,-458 "/>
<polyline fill="none" stroke="#b7793f" stroke-width="1.1" points="200,-458 194,-458 "/>
<text text-anchor="start" x="13" y="-444.4" font-family="Avenir Next" font-size="12.00">Published notes</text>
<text text-anchor="start" x="13" y="-431.4" font-family="Avenir Next" font-size="12.00">minimum third&#45;year standing</text>
</g>
<!-- EOS311_notes&#45;&gt;course__EOS311 -->
<!-- choice_EOS311_0_2&#45;&gt;course__EOS311 -->
<g id="edge13" class="edge">
<title>choice_EOS311_0_2&#45;&gt;course__EOS311</title>
<path fill="none" stroke="#5d6972" stroke-width="1.2" d="M965.29,-239.87C987.67,-249.98 1020.35,-264.74 1047.18,-276.86"/>
<polygon fill="#5d6972" stroke="#5d6972" stroke-width="1.2" points="1046.48,-279.23 1053.86,-279.87 1048.49,-274.76 1046.48,-279.23"/>
</g>
<!-- choice_EOS311_0_3&#45;&gt;course__EOS311 -->
<g id="edge14" class="edge">
<title>choice_EOS311_0_3&#45;&gt;course__EOS311</title>
<path fill="none" stroke="#5d6972" stroke-width="1.2" d="M953.3,-120.09C981.45,-155.68 1044,-234.77 1075.34,-274.4"/>
<polygon fill="#5d6972" stroke="#5d6972" stroke-width="1.2" points="1073.47,-275.98 1079.73,-279.96 1077.31,-272.95 1073.47,-275.98"/>
</g>
<!-- choice_PHYS102B_0&#45;&gt;course__PHYS102B -->
<g id="edge19" class="edge">
<title>choice_PHYS102B_0&#45;&gt;course__PHYS102B</title>
<path fill="none" stroke="#5d6972" stroke-width="1.2" d="M676.14,-33.28C697.56,-34.34 728.24,-35.84 752.71,-37.05"/>
<polygon fill="#5d6972" stroke="#5d6972" stroke-width="1.2" points="752.65,-39.5 759.77,-37.39 752.89,-34.6 752.65,-39.5"/>
</g>
</g>
</svg>
