<?xml version="1.0" encoding="UTF-8" standalone="no"?>
<!DOCTYPE svg PUBLIC "-//W3C//DTD SVG 1.1//EN"
 "http://www.w3.org/Graphics/SVG/1.1/DTD/svg11.dtd">
<!-- Generated by graphviz version 2.43.0 (0)
 -->
<!-- Title: EOS403 Pages: 1 -->
<svg width="1132pt" height="245pt"
 viewBox="0.00 0.00 1132.20 245.20" xmlns="http://www.w3.org/2000/svg" xmlns:xlink="http://www.w3.org/1999/xlink">
<g id="graph0" class="graph" transform="scale(1 1) rotate(0) translate(21.6 223.6)">
<title>EOS403</title>
<!-- course__CHEM091 -->
<g id="node1" class="node">
<title>course__CHEM091</title>
<g id="a_node1"><a xlink:href="../../../courses/CHEM091.html" xlink:title="CHEM091: Introduction to Chemistry" target="_top">
<path fill="#ead9b8" stroke="#7e8d96" d="M358.5,-202C358.5,-202 321.5,-202 321.5,-202 315.5,-202 309.5,-196 309.5,-190 309.5,-190 309.5,-178 309.5,-178 309.5,-172 315.5,-166 321.5,-166 321.5,-166 358.5,-166 358.5,-166 364.5,-166 370.5,-172 370.5,-178 370.5,-178 370.5,-190 370.5,-190 370.5,-196 364.5,-202 358.5,-202"/>
<text text-anchor="middle" x="340" y="-181.8" font-family="Avenir Next" font-size="9.00" fill="#41515b">CHEM091</text>
</a>
</g>
</g>
<!-- course__CHEM102 -->
<g id="node4" class="node">
<title>course__CHEM102</title>
<g id="a_node4"><a xlink:href="../../../courses/CHEM102.html" xlink:title="CHEM102: Chemical Reactivity Fundamentals with Environmental Applications" target="_top">
<path fill="#ead9b8" stroke="#7e8d96" d="M507,-146C507,-146 470,-146 470,-146 464,-146 458,-140 458,-134 458,-134 458,-122 458,-122 458,-116 464,-110 470,-110 470,-110 507,-110 507,-110 513,-110 519,-116 519,-122 519,-122 519,-134 519,-134 519,-140 513,-146 507,-146"/>
<text text-anchor="middle" x="488.5" y="-125.8" font-family="Avenir Next" font-size="9.00" fill="#41515b">CHEM102</text>
</a>
</g>
</g>
<!-- course__CHEM091&#45;&gt;course__CHEM102 -->
<g id="edge2" class="edge">
<title>course__CHEM091&#45;&gt;course__CHEM102</title>
<path fill="none" stroke="#5d6972" stroke-width="1.2" d="M370.65,-172.67C393.88,-163.79 426.31,-151.39 451.12,-141.91"/>
<polygon fill="#5d6972" stroke="#5d6972" stroke-width="1.2" points="452.23,-144.1 457.9,-139.32 450.48,-139.53 452.23,-144.1"/>
</g>
<!-- course__CHEM101 -->
<g id="node2" class="node">
<title>course__CHEM101</title>
<g id="a_node2"><a xlink:href="../../../courses/CHEM101.html" xlink:title="Equivalent or cross&#45;listed: CHEM101: Fundamentals of Chemistry from Atoms to Materials | CHEM150: Engineering Chemistry" target="_top">
<path fill="#ead9b8" stroke="#7e8d96" d="M385,-146C385,-146 295,-146 295,-146 289,-146 283,-140 283,-134 283,-134 283,-122 283,-122 283,-116 289,-110 295,-110 295,-110 385,-110 385,-110 391,-110 397,-116 397,-122 397,-122 397,-134 397,-134 397,-140 391,-146 385,-146"/>
<text text-anchor="middle" x="340" y="-125.8" font-family="Avenir Next" font-size="9.00" fill="#41515b">CHEM101 / CHEM150</text>
</a>
</g>
</g>
<!-- course__CHEM101&#45;&gt;course__CHEM102 -->
<g id="edge3" class="edge">
<title>course__CHEM101&#45;&gt;course__CHEM102</title>
<path fill="none" stroke="#5d6972" stroke-width="1.2" d="M397.22,-128C415.14,-128 434.49,-128 450.66,-128"/>
<polygon fill="#5d6972" stroke="#5d6972" stroke-width="1.2" points="450.85,-130.45 457.85,-128 450.85,-125.55 450.85,-130.45"/>
</g>
<!-- course__MATH100 -->
<g id="node3" class="node">
<title>course__MATH100</title>
<g id="a_node3"><a xlink:href="../../../courses/MATH100.html" xlink:title="Equivalent or cross&#45;listed: MATH100: Calculus I | MATH102: Calculus for Students in the Social and Biological Sciences | MATH109: Introduction to Calculus" target="_top">
<path fill="#dfe3f4" stroke="#7e8d96" d="M383.5,-90C383.5,-90 296.5,-90 296.5,-90 290.5,-90 284.5,-84 284.5,-78 284.5,-78 284.5,-66 284.5,-66 284.5,-60 290.5,-54 296.5,-54 296.5,-54 383.5,-54 383.5,-54 389.5,-54 395.5,-60 395.5,-66 395.5,-66 395.5,-78 395.5,-78 395.5,-84 389.5,-90 383.5,-90"/>
<text text-anchor="middle" x="340" y="-74.8" font-family="Avenir Next" font-size="9.00" fill="#41515b">MATH100 / MATH102</text>
<text text-anchor="middle" x="340" y="-64.8" font-family="Avenir Next" font-size="9.00" fill="#41515b">MATH109</text>
</a>
</g>
</g>
<!-- course__MATH100&#45;&gt;course__CHEM102 -->
<g id="edge4" class="edge">
<title>course__MATH100&#45;&gt;course__CHEM102</title>
<path fill="none" stroke="#5d6972" stroke-width="1.2" d="M388.16,-90.03C408.57,-97.83 432.09,-106.82 451.12,-114.09"/>
<polygon fill="#5d6972" stroke="#5d6972" stroke-width="1.2" points="450.5,-116.48 457.92,-116.69 452.25,-111.9 450.5,-116.48"/>
</g>
<!-- course__EOS205 -->
<g id="node6" class="node">
<title>course__EOS205</title>
<g id="a_node6"><a xlink:href="../../../courses/EOS205.html" xlink:title="EOS205: Mineralogy" target="_top">
<path fill="#d7e9ef" stroke="#7e8d96" d="M622,-90C622,-90 592,-90 592,-90 586,-90 580,-84 580,-78 580,-78 580,-66 580,-66 580,-60 586,-54 592,-54 592,-54 622,-54 622,-54 628,-54 634,-60 634,-66 634,-66 634,-78 634,-78 634,-84 628,-90 622,-90"/>
<text text-anchor="middle" x="607" y="-69.8" font-family="Avenir Next" font-size="9.00" fill="#41515b">EOS205</text>
</a>
</g>
</g>
<!-- course__CHEM102&#45;&gt;course__EOS205 -->
<g id="edge6" class="edge">
<title>course__CHEM102&#45;&gt;course__EOS205</title>
<path fill="none" stroke="#5d6972" stroke-width="1.2" d="M519.2,-113.72C535.74,-105.77 556.37,-95.86 573.37,-87.69"/>
<polygon fill="#5d6972" stroke="#5d6972" stroke-width="1.2" points="574.68,-89.78 579.92,-84.53 572.55,-85.36 574.68,-89.78"/>
</g>
<!-- course__EOS120 -->
<g id="node5" class="node">
<title>course__EOS120</title>
<g id="a_node5"><a xlink:href="../../../courses/EOS120.html" xlink:title="EOS120: The Dynamic Earth" target="_top">
<path fill="#d7e9ef" stroke="#7e8d96" d="M503.5,-90C503.5,-90 473.5,-90 473.5,-90 467.5,-90 461.5,-84 461.5,-78 461.5,-78 461.5,-66 461.5,-66 461.5,-60 467.5,-54 473.5,-54 473.5,-54 503.5,-54 503.5,-54 509.5,-54 515.5,-60 515.5,-66 515.5,-66 515.5,-78 515.5,-78 515.5,-84 509.5,-90 503.5,-90"/>
<text text-anchor="middle" x="488.5" y="-69.8" font-family="Avenir Next" font-size="9.00" fill="#41515b">EOS120</text>
</a>
</g>
</g>
<!-- course__EOS120&#45;&gt;course__EOS205 -->
<g id="edge5" class="edge">
<title>course__EOS120&#45;&gt;course__EOS205</title>
<path fill="none" stroke="#5d6972" stroke-width="1.2" d="M515.64,-72C532.43,-72 554.4,-72 572.46,-72"/>
<polygon fill="#5d6972" stroke="#5d6972" stroke-width="1.2" points="572.94,-74.45 579.94,-72 572.94,-69.55 572.94,-74.45"/>
</g>
<!-- course__EOS240 -->
<g id="node7" class="node">
<title>course__EOS240</title>
<g id="a_node7"><a xlink:href="../../../courses/EOS240.html" xlink:title="EOS240: Geochemistry" target="_top">
<path fill="#d7e9ef" stroke="#1b2730" stroke-width="1.6" d="M737,-90C737,-90 707,-90 707,-90 701,-90 695,-84 695,-78 695,-78 695,-66 695,-66 695,-60 701,-54 707,-54 707,-54 737,-54 737,-54 743,-54 749,-60 749,-66 749,-66 749,-78 749,-78 749,-84 743,-90 737,-90"/>
<text text-anchor="middle" x="722" y="-69.5" font-family="Avenir Next" font-size="10.00" fill="#17232b">EOS240</text>
</a>
</g>
</g>
<!-- course__EOS205&#45;&gt;course__EOS240 -->
<g id="edge7" class="edge">
<title>course__EOS205&#45;&gt;course__EOS240</title>
<path fill="none" stroke="#5d6972" stroke-width="1.2" d="M634.21,-72C650.18,-72 670.74,-72 687.84,-72"/>
<polygon fill="#5d6972" stroke="#5d6972" stroke-width="1.2" points="687.93,-74.45 694.93,-72 687.93,-69.55 687.93,-74.45"/>
</g>
<!-- course__EOS335 -->
<g id="node8" class="node">
<title>course__EOS335</title>
<g id="a_node8"><a xlink:href="../../../courses/EOS335.html" xlink:title="EOS335: Isotopes in Natural Sciences" target="_top">
<path fill="#d7e9ef" stroke="#1b2730" stroke-width="1.6" d="M852,-90C852,-90 822,-90 822,-90 816,-90 810,-84 810,-78 810,-78 810,-66 810,-66 810,-60 816,-54 822,-54 822,-54 852,-54 852,-54 858,-54 864,-60 864,-66 864,-66 864,-78 864,-78 864,-84 858,-90 852,-90"/>
<text text-anchor="middle" x="837" y="-69.5" font-family="Avenir Next" font-size="10.00" fill="#17232b">EOS335</text>
</a>
</g>
</g>
<!-- course__EOS240&#45;&gt;course__EOS335 -->
<g id="edge8" class="edge">
<title>course__EOS240&#45;&gt;course__EOS335</title>
<path fill="none" stroke="#5d6972" stroke-width="1.2" d="M749.21,-72C765.18,-72 785.74,-72 802.84,-72"/>
<polygon fill="#5d6972" stroke="#5d6972" stroke-width="1.2" points="802.93,-74.45 809.93,-72 802.93,-69.55 802.93,-74.45"/>
</g>
<!-- course__EOS403 -->
<g id="node9" class="node">
<title>course__EOS403</title>
<g id="a_node9"><a xlink:href="../../../courses/EOS403.html" xlink:title="EOS403: Global Biogeochemical Cycles" target="_top">
<path fill="#d7e9ef" stroke="#1f4f66" stroke-width="2" d="M1077,-65C1077,-65 937,-65 937,-65 931,-65 925,-59 925,-53 925,-53 925,-41 925,-41 925,-35 931,-29 937,-29 937,-29 1077,-29 1077,-29 1083,-29 1089,-35 1089,-41 1089,-41 1089,-53 1089,-53 1089,-59 1083,-65 1077,-65"/>
<text text-anchor="middle" x="1007" y="-50" font-family="Avenir Next" font-size="10.00" fill="#17232b">EOS403</text>
<text text-anchor="middle" x="1007" y="-39" font-family="Avenir Next" font-size="10.00" fill="#17232b">Global Biogeochemical Cycles</text>
</a>
</g>
</g>
<!-- course__EOS335&#45;&gt;course__EOS403 -->
<g id="edge9" class="edge">
<title>course__EOS335&#45;&gt;course__EOS403</title>
<path fill="none" stroke="#5d6972" stroke-width="1.2" d="M864.25,-68.09C878.94,-65.91 898.21,-63.04 917.78,-60.13"/>
<polygon fill="#5d6972" stroke="#5d6972" stroke-width="1.2" points="918.14,-62.55 924.71,-59.1 917.42,-57.7 918.14,-62.55"/>
</g>
<!-- EOS403_notes -->
<g id="node10" class="node">
<title>EOS403_notes</title>
<polygon fill="#fff7ee" stroke="#b7793f" stroke-width="1.1" points="216,-46 0,-46 0,0 222,0 222,-40 216,-46"/>
<polyline fill="none" stroke="#b7793f" stroke-width="1.1" points="216,-46 216,-40 "/>
<polyline fill="none" stroke="#b7793f" stroke-width="1.1" points="222,-40 216,-40 "/>
<text text-anchor="start" x="13" y="-26.4" font-family="Avenir Next" font-size="12.00">Published notes</text>
<text text-anchor="start" x="13" y="-13.4" font-family="Avenir Next" font-size="12.00">or permission of the department</text>
</g>
<!-- EOS403_notes&#45;&gt;course__EOS403 -->
</g>
</svg>
