<?xml version="1.0" encoding="UTF-8" standalone="no"?>
<!DOCTYPE svg PUBLIC "-//W3C//DTD SVG 1.1//EN"
 "http://www.w3.org/Graphics/SVG/1.1/DTD/svg11.dtd">
<!-- Generated by graphviz version 2.43.0 (0)
 -->
<!-- Title: EOS410 Pages: 1 -->
<svg width="369pt" height="79pt"
 viewBox="0.00 0.00 369.20 79.20" xmlns="http://www.w3.org/2000/svg" xmlns:xlink="http://www.w3.org/1999/xlink">
<g id="graph0" class="graph" transform="scale(1 1) rotate(0) translate(21.6 57.6)">
<title>EOS410</title>
<!-- course__EOS120 -->
<g id="node1" class="node">
<title>course__EOS120</title>
<g id="a_node1"><a xlink:href="../../../courses/EOS120.html" xlink:title="EOS120: The Dynamic Earth" target="_top">
<path fill="#d7e9ef" stroke="#7e8d96" d="M42,-36C42,-36 12,-36 12,-36 6,-36 0,-30 0,-24 0,-24 0,-12 0,-12 0,-6 6,0 12,0 12,0 42,0 42,0 48,0 54,-6 54,-12 54,-12 54,-24 54,-24 54,-30 48,-36 42,-36"/>
<text text-anchor="middle" x="27" y="-15.8" font-family="Avenir Next" font-size="9.00" fill="#41515b">EOS120</text>
</a>
</g>
</g>
<!-- course__EOS202 -->
<g id="node2" class="node">
<title>course__EOS202</title>
<g id="a_node2"><a xlink:href="../../../courses/EOS202.html" xlink:title="EOS202: Structural Geology" target="_top">
<path fill="#d7e9ef" stroke="#1b2730" stroke-width="1.6" d="M157,-36C157,-36 127,-36 127,-36 121,-36 115,-30 115,-24 115,-24 115,-12 115,-12 115,-6 121,0 127,0 127,0 157,0 157,0 163,0 169,-6 169,-12 169,-12 169,-24 169,-24 169,-30 163,-36 157,-36"/>
<text text-anchor="middle" x="142" y="-15.5" font-family="Avenir Next" font-size="10.00" fill="#17232b">EOS202</text>
</a>
</g>
</g>
<!-- course__EOS120&#45;&gt;course__EOS202 -->
<g id="edge1" class="edge">
<title>course__EOS120&#45;&gt;course__EOS202</title>
<path fill="none" stroke="#5d6972" stroke-width="1.2" d="M54.21,-18C70.18,-18 90.74,-18 107.84,-18"/>
<polygon fill="#5d6972" stroke="#5d6972" stroke-width="1.2" points="107.93,-20.45 114.93,-18 107.93,-15.55 107.93,-20.45"/>
</g>
<!-- course__EOS410 -->
<g id="node3" class="node">
<title>course__EOS410</title>
<g id="a_node3"><a xlink:href="../../../courses/EOS410.html" xlink:title="EOS410: Global Tectonics" target="_top">
<path fill="#d7e9ef" stroke="#1f4f66" stroke-width="2" d="M314,-36C314,-36 242,-36 242,-36 236,-36 230,-30 230,-24 230,-24 230,-12 230,-12 230,-6 236,0 242,0 242,0 314,0 314,0 320,0 326,-6 326,-12 326,-12 326,-24 326,-24 326,-30 320,-36 314,-36"/>
<text text-anchor="middle" x="278" y="-21" font-family="Avenir Next" font-size="10.00" fill="#17232b">EOS410</text>
<text text-anchor="middle" x="278" y="-10" font-family="Avenir Next" font-size="10.00" fill="#17232b">Global Tectonics</text>
</a>
</g>
</g>
<!-- course__EOS202&#45;&gt;course__EOS410 -->
<g id="edge2" class="edge">
<title>course__EOS202&#45;&gt;course__EOS410</title>
<path fill="none" stroke="#5d6972" stroke-width="1.2" d="M169.15,-18C184.35,-18 204.08,-18 222.5,-18"/>
<polygon fill="#5d6972" stroke="#5d6972" stroke-width="1.2" points="222.76,-20.45 229.76,-18 222.76,-15.55 222.76,-20.45"/>
</g>
</g>
</svg>
