<?xml version="1.0" encoding="UTF-8" standalone="no"?>
<!DOCTYPE svg PUBLIC "-//W3C//DTD SVG 1.1//EN"
 "http://www.w3.org/Graphics/SVG/1.1/DTD/svg11.dtd">
<!-- Generated by graphviz version 2.43.0 (0)
 -->
<!-- Title: EOS491 Pages: 1 -->
<svg width="282pt" height="79pt"
 viewBox="0.00 0.00 282.20 79.20" xmlns="http://www.w3.org/2000/svg" xmlns:xlink="http://www.w3.org/1999/xlink">
<g id="graph0" class="graph" transform="scale(1 1) rotate(0) translate(21.6 57.6)">
<title>EOS491</title>
<!-- course__EOS491 -->
<g id="node1" class="node">
<title>course__EOS491</title>
<g id="a_node1"><a xlink:href="../../../courses/EOS491.html" xlink:title="EOS491: Advanced Topics in Earth and Ocean Sciences" target="_top">
<path fill="#d7e9ef" stroke="#1f4f66" stroke-width="2" d="M227,-36C227,-36 12,-36 12,-36 6,-36 0,-30 0,-24 0,-24 0,-12 0,-12 0,-6 6,0 12,0 12,0 227,0 227,0 233,0 239,-6 239,-12 239,-12 239,-24 239,-24 239,-30 233,-36 227,-36"/>
<text text-anchor="middle" x="119.5" y="-21" font-family="Avenir Next" font-size="10.00" fill="#17232b">EOS491</text>
<text text-anchor="middle" x="119.5" y="-10" font-family="Avenir Next" font-size="10.00" fill="#17232b">Advanced Topics in Earth and Ocean Sciences</text>
</a>
</g>
</g>
</g>
</svg>
