<?xml version="1.0" encoding="UTF-8" standalone="no"?>
<!DOCTYPE svg PUBLIC "-//W3C//DTD SVG 1.1//EN"
 "http://www.w3.org/Graphics/SVG/1.1/DTD/svg11.dtd">
<!-- Generated by graphviz version 2.43.0 (0)
 -->
<!-- Title: EOS433 Pages: 1 -->
<svg width="589pt" height="133pt"
 viewBox="0.00 0.00 589.20 133.20" xmlns="http://www.w3.org/2000/svg" xmlns:xlink="http://www.w3.org/1999/xlink">
<g id="graph0" class="graph" transform="scale(1 1) rotate(0) translate(21.6 111.6)">
<title>EOS433</title>
<!-- course__EOS340 -->
<g id="node1" class="node">
<title>course__EOS340</title>
<g id="a_node1"><a xlink:href="../../../courses/EOS340.html" xlink:title="Equivalent or cross&#45;listed: EOS340: Atmospheric Physics | PHYS340: Atmospheric Physics" target="_top">
<path fill="#d7e9ef" stroke="#1b2730" stroke-width="1.6" d="M345,-90C345,-90 262,-90 262,-90 256,-90 250,-84 250,-78 250,-78 250,-66 250,-66 250,-60 256,-54 262,-54 262,-54 345,-54 345,-54 351,-54 357,-60 357,-66 357,-66 357,-78 357,-78 357,-84 351,-90 345,-90"/>
<text text-anchor="middle" x="303.5" y="-69.5" font-family="Avenir Next" font-size="10.00" fill="#17232b">EOS340 / PHYS340</text>
</a>
</g>
</g>
<!-- course__EOS433 -->
<g id="node2" class="node">
<title>course__EOS433</title>
<g id="a_node2"><a xlink:href="../../../courses/EOS433.html" xlink:title="EOS433: The Physics of Climate" target="_top">
<path fill="#d7e9ef" stroke="#1f4f66" stroke-width="2" d="M534,-65C534,-65 430,-65 430,-65 424,-65 418,-59 418,-53 418,-53 418,-41 418,-41 418,-35 424,-29 430,-29 430,-29 534,-29 534,-29 540,-29 546,-35 546,-41 546,-41 546,-53 546,-53 546,-59 540,-65 534,-65"/>
<text text-anchor="middle" x="482" y="-50" font-family="Avenir Next" font-size="10.00" fill="#17232b">EOS433</text>
<text text-anchor="middle" x="482" y="-39" font-family="Avenir Next" font-size="10.00" fill="#17232b">The Physics of Climate</text>
</a>
</g>
</g>
<!-- course__EOS340&#45;&gt;course__EOS433 -->
<g id="edge2" class="edge">
<title>course__EOS340&#45;&gt;course__EOS433</title>
<path fill="none" stroke="#5d6972" stroke-width="1.2" d="M357.46,-64.5C374.22,-62.12 393.02,-59.46 410.79,-56.94"/>
<polygon fill="#5d6972" stroke="#5d6972" stroke-width="1.2" points="411.22,-59.36 417.81,-55.95 410.54,-54.51 411.22,-59.36"/>
</g>
<!-- EOS433_notes -->
<g id="node3" class="node">
<title>EOS433_notes</title>
<polygon fill="#fff7ee" stroke="#b7793f" stroke-width="1.1" points="183,-46 0,-46 0,0 189,0 189,-40 183,-46"/>
<polyline fill="none" stroke="#b7793f" stroke-width="1.1" points="183,-46 183,-40 "/>
<polyline fill="none" stroke="#b7793f" stroke-width="1.1" points="189,-40 183,-40 "/>
<text text-anchor="start" x="13" y="-26.4" font-family="Avenir Next" font-size="12.00">Published notes</text>
<text text-anchor="start" x="13" y="-13.4" font-family="Avenir Next" font-size="12.00">or permission of the school</text>
</g>
<!-- EOS433_notes&#45;&gt;course__EOS433 -->
</g>
</svg>
