<?xml version="1.0" encoding="UTF-8" standalone="no"?>
<!DOCTYPE svg PUBLIC "-//W3C//DTD SVG 1.1//EN"
 "http://www.w3.org/Graphics/SVG/1.1/DTD/svg11.dtd">
<!-- Generated by graphviz version 2.43.0 (0)
 -->
<!-- Title: EOS420 Pages: 1 -->
<svg width="513pt" height="189pt"
 viewBox="0.00 0.00 513.20 189.20" xmlns="http://www.w3.org/2000/svg" xmlns:xlink="http://www.w3.org/1999/xlink">
<g id="graph0" class="graph" transform="scale(1 1) rotate(0) translate(21.6 167.6)">
<title>EOS420</title>
<!-- course__EOS201 -->
<g id="node1" class="node">
<title>course__EOS201</title>
<g id="a_node1"><a xlink:href="../../../courses/EOS201.html" xlink:title="EOS201: Sedimentary Geology" target="_top">
<path fill="#d7e9ef" stroke="#1b2730" stroke-width="1.6" d="M292,-146C292,-146 262,-146 262,-146 256,-146 250,-140 250,-134 250,-134 250,-122 250,-122 250,-116 256,-110 262,-110 262,-110 292,-110 292,-110 298,-110 304,-116 304,-122 304,-122 304,-134 304,-134 304,-140 298,-146 292,-146"/>
<text text-anchor="middle" x="277" y="-125.5" font-family="Avenir Next" font-size="10.00" fill="#17232b">EOS201</text>
</a>
</g>
</g>
<!-- course__EOS420 -->
<g id="node3" class="node">
<title>course__EOS420</title>
<g id="a_node3"><a xlink:href="../../../courses/EOS420.html" xlink:title="EOS420: Resource Geology" target="_top">
<path fill="#d7e9ef" stroke="#1f4f66" stroke-width="2" d="M458,-90C458,-90 377,-90 377,-90 371,-90 365,-84 365,-78 365,-78 365,-66 365,-66 365,-60 371,-54 377,-54 377,-54 458,-54 458,-54 464,-54 470,-60 470,-66 470,-66 470,-78 470,-78 470,-84 464,-90 458,-90"/>
<text text-anchor="middle" x="417.5" y="-75" font-family="Avenir Next" font-size="10.00" fill="#17232b">EOS420</text>
<text text-anchor="middle" x="417.5" y="-64" font-family="Avenir Next" font-size="10.00" fill="#17232b">Resource Geology</text>
</a>
</g>
</g>
<!-- course__EOS201&#45;&gt;course__EOS420 -->
<g id="edge2" class="edge">
<title>course__EOS201&#45;&gt;course__EOS420</title>
<path fill="none" stroke="#5d6972" stroke-width="1.2" d="M304.05,-117.47C321.23,-110.52 344.32,-101.18 365.11,-92.78"/>
<polygon fill="#5d6972" stroke="#5d6972" stroke-width="1.2" points="366.19,-94.98 371.76,-90.09 364.36,-90.44 366.19,-94.98"/>
</g>
<!-- course__EOS316 -->
<g id="node2" class="node">
<title>course__EOS316</title>
<g id="a_node2"><a xlink:href="../../../courses/EOS316.html" xlink:title="EOS316: Igneous and Metamorphic Geology" target="_top">
<path fill="#d7e9ef" stroke="#1b2730" stroke-width="1.6" d="M292,-90C292,-90 262,-90 262,-90 256,-90 250,-84 250,-78 250,-78 250,-66 250,-66 250,-60 256,-54 262,-54 262,-54 292,-54 292,-54 298,-54 304,-60 304,-66 304,-66 304,-78 304,-78 304,-84 298,-90 292,-90"/>
<text text-anchor="middle" x="277" y="-69.5" font-family="Avenir Next" font-size="10.00" fill="#17232b">EOS316</text>
</a>
</g>
</g>
<!-- course__EOS316&#45;&gt;course__EOS420 -->
<g id="edge3" class="edge">
<title>course__EOS316&#45;&gt;course__EOS420</title>
<path fill="none" stroke="#5d6972" stroke-width="1.2" d="M304.05,-72C319.13,-72 338.76,-72 357.39,-72"/>
<polygon fill="#5d6972" stroke="#5d6972" stroke-width="1.2" points="357.75,-74.45 364.75,-72 357.75,-69.55 357.75,-74.45"/>
</g>
<!-- EOS420_notes -->
<g id="node4" class="node">
<title>EOS420_notes</title>
<polygon fill="#fff7ee" stroke="#b7793f" stroke-width="1.1" points="183,-46 0,-46 0,0 189,0 189,-40 183,-46"/>
<polyline fill="none" stroke="#b7793f" stroke-width="1.1" points="183,-46 183,-40 "/>
<polyline fill="none" stroke="#b7793f" stroke-width="1.1" points="189,-40 183,-40 "/>
<text text-anchor="start" x="13" y="-26.4" font-family="Avenir Next" font-size="12.00">Published notes</text>
<text text-anchor="start" x="13" y="-13.4" font-family="Avenir Next" font-size="12.00">or permission of the school</text>
</g>
<!-- EOS420_notes&#45;&gt;course__EOS420 -->
</g>
</svg>
