<?xml version="1.0" encoding="UTF-8" standalone="no"?>
<!DOCTYPE svg PUBLIC "-//W3C//DTD SVG 1.1//EN"
 "http://www.w3.org/Graphics/SVG/1.1/DTD/svg11.dtd">
<!-- Generated by graphviz version 2.43.0 (0)
 -->
<!-- Title: EOS400 Pages: 1 -->
<svg width="525pt" height="189pt"
 viewBox="0.00 0.00 525.20 189.20" xmlns="http://www.w3.org/2000/svg" xmlns:xlink="http://www.w3.org/1999/xlink">
<g id="graph0" class="graph" transform="scale(1 1) rotate(0) translate(21.6 167.6)">
<title>EOS400</title>
<!-- course__EOS300 -->
<g id="node1" class="node">
<title>course__EOS300</title>
<g id="a_node1"><a xlink:href="../../../courses/EOS300.html" xlink:title="EOS300: Earth Science Field School" target="_top">
<path fill="#d7e9ef" stroke="#1b2730" stroke-width="1.6" d="M275,-146C275,-146 245,-146 245,-146 239,-146 233,-140 233,-134 233,-134 233,-122 233,-122 233,-116 239,-110 245,-110 245,-110 275,-110 275,-110 281,-110 287,-116 287,-122 287,-122 287,-134 287,-134 287,-140 281,-146 275,-146"/>
<text text-anchor="middle" x="260" y="-125.5" font-family="Avenir Next" font-size="10.00" fill="#17232b">EOS300</text>
</a>
</g>
</g>
<!-- course__EOS400 -->
<g id="node3" class="node">
<title>course__EOS400</title>
<g id="a_node3"><a xlink:href="../../../courses/EOS400.html" xlink:title="EOS400: Advanced Field Geology" target="_top">
<path fill="#d7e9ef" stroke="#1f4f66" stroke-width="2" d="M470,-90C470,-90 360,-90 360,-90 354,-90 348,-84 348,-78 348,-78 348,-66 348,-66 348,-60 354,-54 360,-54 360,-54 470,-54 470,-54 476,-54 482,-60 482,-66 482,-66 482,-78 482,-78 482,-84 476,-90 470,-90"/>
<text text-anchor="middle" x="415" y="-75" font-family="Avenir Next" font-size="10.00" fill="#17232b">EOS400</text>
<text text-anchor="middle" x="415" y="-64" font-family="Avenir Next" font-size="10.00" fill="#17232b">Advanced Field Geology</text>
</a>
</g>
</g>
<!-- course__EOS300&#45;&gt;course__EOS400 -->
<g id="edge2" class="edge">
<title>course__EOS300&#45;&gt;course__EOS400</title>
<path fill="none" stroke="#5d6972" stroke-width="1.2" d="M287.3,-118.37C306.67,-111.28 333.72,-101.38 357.86,-92.55"/>
<polygon fill="#5d6972" stroke="#5d6972" stroke-width="1.2" points="358.85,-94.79 364.58,-90.09 357.17,-90.19 358.85,-94.79"/>
</g>
<!-- course__EOS316 -->
<g id="node2" class="node">
<title>course__EOS316</title>
<g id="a_node2"><a xlink:href="../../../courses/EOS316.html" xlink:title="EOS316: Igneous and Metamorphic Geology" target="_top">
<path fill="#d7e9ef" stroke="#1b2730" stroke-width="1.6" d="M275,-90C275,-90 245,-90 245,-90 239,-90 233,-84 233,-78 233,-78 233,-66 233,-66 233,-60 239,-54 245,-54 245,-54 275,-54 275,-54 281,-54 287,-60 287,-66 287,-66 287,-78 287,-78 287,-84 281,-90 275,-90"/>
<text text-anchor="middle" x="260" y="-69.5" font-family="Avenir Next" font-size="10.00" fill="#17232b">EOS316</text>
</a>
</g>
</g>
<!-- course__EOS316&#45;&gt;course__EOS400 -->
<g id="edge3" class="edge">
<title>course__EOS316&#45;&gt;course__EOS400</title>
<path fill="none" stroke="#5d6972" stroke-width="1.2" d="M287.3,-72C302.22,-72 321.69,-72 340.88,-72"/>
<polygon fill="#5d6972" stroke="#5d6972" stroke-width="1.2" points="340.92,-74.45 347.92,-72 340.92,-69.55 340.92,-74.45"/>
</g>
<!-- EOS400_notes -->
<g id="node4" class="node">
<title>EOS400_notes</title>
<polygon fill="#fff7ee" stroke="#b7793f" stroke-width="1.1" points="166,-46 0,-46 0,0 172,0 172,-40 166,-46"/>
<polyline fill="none" stroke="#b7793f" stroke-width="1.1" points="166,-46 166,-40 "/>
<polyline fill="none" stroke="#b7793f" stroke-width="1.1" points="172,-40 166,-40 "/>
<text text-anchor="start" x="13" y="-26.4" font-family="Avenir Next" font-size="12.00">Published notes</text>
<text text-anchor="start" x="13" y="-13.4" font-family="Avenir Next" font-size="12.00">permission of the school</text>
</g>
<!-- EOS400_notes&#45;&gt;course__EOS400 -->
</g>
</svg>
