<?xml version="1.0" encoding="UTF-8" standalone="no"?>
<!DOCTYPE svg PUBLIC "-//W3C//DTD SVG 1.1//EN"
 "http://www.w3.org/Graphics/SVG/1.1/DTD/svg11.dtd">
<!-- Generated by graphviz version 2.43.0 (0)
 -->
<!-- Title: EOS410 Pages: 1 -->
<svg width="619pt" height="133pt"
 viewBox="0.00 0.00 619.20 133.20" xmlns="http://www.w3.org/2000/svg" xmlns:xlink="http://www.w3.org/1999/xlink">
<g id="graph0" class="graph" transform="scale(1 1) rotate(0) translate(21.6 111.6)">
<title>EOS410</title>
<!-- course__EOS120 -->
<g id="node1" class="node">
<title>course__EOS120</title>
<g id="a_node1"><a xlink:href="../../../courses/EOS120.html" xlink:title="EOS120: The Dynamic Earth" target="_top">
<path fill="#d7e9ef" stroke="#7e8d96" d="M292,-90C292,-90 262,-90 262,-90 256,-90 250,-84 250,-78 250,-78 250,-66 250,-66 250,-60 256,-54 262,-54 262,-54 292,-54 292,-54 298,-54 304,-60 304,-66 304,-66 304,-78 304,-78 304,-84 298,-90 292,-90"/>
<text text-anchor="middle" x="277" y="-69.8" font-family="Avenir Next" font-size="9.00" fill="#41515b">EOS120</text>
</a>
</g>
</g>
<!-- course__EOS202 -->
<g id="node2" class="node">
<title>course__EOS202</title>
<g id="a_node2"><a xlink:href="../../../courses/EOS202.html" xlink:title="EOS202: Structural Geology" target="_top">
<path fill="#d7e9ef" stroke="#1b2730" stroke-width="1.6" d="M407,-90C407,-90 377,-90 377,-90 371,-90 365,-84 365,-78 365,-78 365,-66 365,-66 365,-60 371,-54 377,-54 377,-54 407,-54 407,-54 413,-54 419,-60 419,-66 419,-66 419,-78 419,-78 419,-84 413,-90 407,-90"/>
<text text-anchor="middle" x="392" y="-69.5" font-family="Avenir Next" font-size="10.00" fill="#17232b">EOS202</text>
</a>
</g>
</g>
<!-- course__EOS120&#45;&gt;course__EOS202 -->
<g id="edge2" class="edge">
<title>course__EOS120&#45;&gt;course__EOS202</title>
<path fill="none" stroke="#5d6972" stroke-width="1.2" d="M304.21,-72C320.18,-72 340.74,-72 357.84,-72"/>
<polygon fill="#5d6972" stroke="#5d6972" stroke-width="1.2" points="357.93,-74.45 364.93,-72 357.93,-69.55 357.93,-74.45"/>
</g>
<!-- course__EOS410 -->
<g id="node3" class="node">
<title>course__EOS410</title>
<g id="a_node3"><a xlink:href="../../../courses/EOS410.html" xlink:title="EOS410: Global Tectonics" target="_top">
<path fill="#d7e9ef" stroke="#1f4f66" stroke-width="2" d="M564,-65C564,-65 492,-65 492,-65 486,-65 480,-59 480,-53 480,-53 480,-41 480,-41 480,-35 486,-29 492,-29 492,-29 564,-29 564,-29 570,-29 576,-35 576,-41 576,-41 576,-53 576,-53 576,-59 570,-65 564,-65"/>
<text text-anchor="middle" x="528" y="-50" font-family="Avenir Next" font-size="10.00" fill="#17232b">EOS410</text>
<text text-anchor="middle" x="528" y="-39" font-family="Avenir Next" font-size="10.00" fill="#17232b">Global Tectonics</text>
</a>
</g>
</g>
<!-- course__EOS202&#45;&gt;course__EOS410 -->
<g id="edge3" class="edge">
<title>course__EOS202&#45;&gt;course__EOS410</title>
<path fill="none" stroke="#5d6972" stroke-width="1.2" d="M419.15,-67.12C434.35,-64.29 454.08,-60.6 472.5,-57.17"/>
<polygon fill="#5d6972" stroke="#5d6972" stroke-width="1.2" points="473.32,-59.51 479.76,-55.81 472.42,-54.69 473.32,-59.51"/>
</g>
<!-- EOS410_notes -->
<g id="node4" class="node">
<title>EOS410_notes</title>
<polygon fill="#fff7ee" stroke="#b7793f" stroke-width="1.1" points="183,-46 0,-46 0,0 189,0 189,-40 183,-46"/>
<polyline fill="none" stroke="#b7793f" stroke-width="1.1" points="183,-46 183,-40 "/>
<polyline fill="none" stroke="#b7793f" stroke-width="1.1" points="189,-40 183,-40 "/>
<text text-anchor="start" x="13" y="-26.4" font-family="Avenir Next" font-size="12.00">Published notes</text>
<text text-anchor="start" x="13" y="-13.4" font-family="Avenir Next" font-size="12.00">or permission of the school</text>
</g>
<!-- EOS410_notes&#45;&gt;course__EOS410 -->
</g>
</svg>
