<?xml version="1.0" encoding="UTF-8" standalone="no"?>
<!DOCTYPE svg PUBLIC "-//W3C//DTD SVG 1.1//EN"
 "http://www.w3.org/Graphics/SVG/1.1/DTD/svg11.dtd">
<!-- Generated by graphviz version 2.43.0 (0)
 -->
<!-- Title: EOS400 Pages: 1 -->
<svg width="292pt" height="135pt"
 viewBox="0.00 0.00 292.20 135.20" xmlns="http://www.w3.org/2000/svg" xmlns:xlink="http://www.w3.org/1999/xlink">
<g id="graph0" class="graph" transform="scale(1 1) rotate(0) translate(21.6 113.6)">
<title>EOS400</title>
<!-- course__EOS300 -->
<g id="node1" class="node">
<title>course__EOS300</title>
<g id="a_node1"><a xlink:href="../../../courses/EOS300.html" xlink:title="EOS300: Earth Science Field School" target="_top">
<path fill="#d7e9ef" stroke="#1b2730" stroke-width="1.6" d="M42,-92C42,-92 12,-92 12,-92 6,-92 0,-86 0,-80 0,-80 0,-68 0,-68 0,-62 6,-56 12,-56 12,-56 42,-56 42,-56 48,-56 54,-62 54,-68 54,-68 54,-80 54,-80 54,-86 48,-92 42,-92"/>
<text text-anchor="middle" x="27" y="-71.5" font-family="Avenir Next" font-size="10.00" fill="#17232b">EOS300</text>
</a>
</g>
</g>
<!-- course__EOS400 -->
<g id="node3" class="node">
<title>course__EOS400</title>
<g id="a_node3"><a xlink:href="../../../courses/EOS400.html" xlink:title="EOS400: Advanced Field Geology" target="_top">
<path fill="#d7e9ef" stroke="#1f4f66" stroke-width="2" d="M237,-64C237,-64 127,-64 127,-64 121,-64 115,-58 115,-52 115,-52 115,-40 115,-40 115,-34 121,-28 127,-28 127,-28 237,-28 237,-28 243,-28 249,-34 249,-40 249,-40 249,-52 249,-52 249,-58 243,-64 237,-64"/>
<text text-anchor="middle" x="182" y="-49" font-family="Avenir Next" font-size="10.00" fill="#17232b">EOS400</text>
<text text-anchor="middle" x="182" y="-38" font-family="Avenir Next" font-size="10.00" fill="#17232b">Advanced Field Geology</text>
</a>
</g>
</g>
<!-- course__EOS300&#45;&gt;course__EOS400 -->
<g id="edge1" class="edge">
<title>course__EOS300&#45;&gt;course__EOS400</title>
<path fill="none" stroke="#5d6972" stroke-width="1.2" d="M54.3,-69.19C69.22,-66.46 88.69,-62.89 107.88,-59.38"/>
<polygon fill="#5d6972" stroke="#5d6972" stroke-width="1.2" points="108.48,-61.76 114.92,-58.09 107.6,-56.94 108.48,-61.76"/>
</g>
<!-- course__EOS316 -->
<g id="node2" class="node">
<title>course__EOS316</title>
<g id="a_node2"><a xlink:href="../../../courses/EOS316.html" xlink:title="EOS316: Igneous and Metamorphic Geology" target="_top">
<path fill="#d7e9ef" stroke="#1b2730" stroke-width="1.6" d="M42,-36C42,-36 12,-36 12,-36 6,-36 0,-30 0,-24 0,-24 0,-12 0,-12 0,-6 6,0 12,0 12,0 42,0 42,0 48,0 54,-6 54,-12 54,-12 54,-24 54,-24 54,-30 48,-36 42,-36"/>
<text text-anchor="middle" x="27" y="-15.5" font-family="Avenir Next" font-size="10.00" fill="#17232b">EOS316</text>
</a>
</g>
</g>
<!-- course__EOS316&#45;&gt;course__EOS400 -->
<g id="edge2" class="edge">
<title>course__EOS316&#45;&gt;course__EOS400</title>
<path fill="none" stroke="#5d6972" stroke-width="1.2" d="M54.3,-22.81C69.22,-25.54 88.69,-29.11 107.88,-32.62"/>
<polygon fill="#5d6972" stroke="#5d6972" stroke-width="1.2" points="107.6,-35.06 114.92,-33.91 108.48,-30.24 107.6,-35.06"/>
</g>
</g>
</svg>
