<?xml version="1.0" encoding="UTF-8" standalone="no"?>
<!DOCTYPE svg PUBLIC "-//W3C//DTD SVG 1.1//EN"
 "http://www.w3.org/Graphics/SVG/1.1/DTD/svg11.dtd">
<!-- Generated by graphviz version 2.43.0 (0)
 -->
<!-- Title: EOS425 Pages: 1 -->
<svg width="1275pt" height="258pt"
 viewBox="0.00 0.00 1275.20 258.20" xmlns="http://www.w3.org/2000/svg" xmlns:xlink="http://www.w3.org/1999/xlink">
<g id="graph0" class="graph" transform="scale(1 1) rotate(0) translate(21.6 236.6)">
<title>EOS425</title>
<!-- course__CHEM091 -->
<g id="node1" class="node">
<title>course__CHEM091</title>
<g id="a_node1"><a xlink:href="../../../courses/CHEM091.html" xlink:title="CHEM091: Introduction to Chemistry" target="_top">
<path fill="#ead9b8" stroke="#7e8d96" d="M439.5,-215C439.5,-215 402.5,-215 402.5,-215 396.5,-215 390.5,-209 390.5,-203 390.5,-203 390.5,-191 390.5,-191 390.5,-185 396.5,-179 402.5,-179 402.5,-179 439.5,-179 439.5,-179 445.5,-179 451.5,-185 451.5,-191 451.5,-191 451.5,-203 451.5,-203 451.5,-209 445.5,-215 439.5,-215"/>
<text text-anchor="middle" x="421" y="-194.8" font-family="Avenir Next" font-size="9.00" fill="#41515b">CHEM091</text>
</a>
</g>
</g>
<!-- course__CHEM102 -->
<g id="node4" class="node">
<title>course__CHEM102</title>
<g id="a_node4"><a xlink:href="../../../courses/CHEM102.html" xlink:title="CHEM102: Chemical Reactivity Fundamentals with Environmental Applications" target="_top">
<path fill="#ead9b8" stroke="#7e8d96" d="M588,-159C588,-159 551,-159 551,-159 545,-159 539,-153 539,-147 539,-147 539,-135 539,-135 539,-129 545,-123 551,-123 551,-123 588,-123 588,-123 594,-123 600,-129 600,-135 600,-135 600,-147 600,-147 600,-153 594,-159 588,-159"/>
<text text-anchor="middle" x="569.5" y="-138.8" font-family="Avenir Next" font-size="9.00" fill="#41515b">CHEM102</text>
</a>
</g>
</g>
<!-- course__CHEM091&#45;&gt;course__CHEM102 -->
<g id="edge2" class="edge">
<title>course__CHEM091&#45;&gt;course__CHEM102</title>
<path fill="none" stroke="#5d6972" stroke-width="1.2" d="M451.65,-185.67C474.88,-176.79 507.31,-164.39 532.12,-154.91"/>
<polygon fill="#5d6972" stroke="#5d6972" stroke-width="1.2" points="533.23,-157.1 538.9,-152.32 531.48,-152.53 533.23,-157.1"/>
</g>
<!-- course__CHEM101 -->
<g id="node2" class="node">
<title>course__CHEM101</title>
<g id="a_node2"><a xlink:href="../../../courses/CHEM101.html" xlink:title="Equivalent or cross&#45;listed: CHEM101: Fundamentals of Chemistry from Atoms to Materials | CHEM150: Engineering Chemistry" target="_top">
<path fill="#ead9b8" stroke="#7e8d96" d="M466,-159C466,-159 376,-159 376,-159 370,-159 364,-153 364,-147 364,-147 364,-135 364,-135 364,-129 370,-123 376,-123 376,-123 466,-123 466,-123 472,-123 478,-129 478,-135 478,-135 478,-147 478,-147 478,-153 472,-159 466,-159"/>
<text text-anchor="middle" x="421" y="-138.8" font-family="Avenir Next" font-size="9.00" fill="#41515b">CHEM101 / CHEM150</text>
</a>
</g>
</g>
<!-- course__CHEM101&#45;&gt;course__CHEM102 -->
<g id="edge3" class="edge">
<title>course__CHEM101&#45;&gt;course__CHEM102</title>
<path fill="none" stroke="#5d6972" stroke-width="1.2" d="M478.22,-141C496.14,-141 515.49,-141 531.66,-141"/>
<polygon fill="#5d6972" stroke="#5d6972" stroke-width="1.2" points="531.85,-143.45 538.85,-141 531.85,-138.55 531.85,-143.45"/>
</g>
<!-- course__MATH100 -->
<g id="node3" class="node">
<title>course__MATH100</title>
<g id="a_node3"><a xlink:href="../../../courses/MATH100.html" xlink:title="Equivalent or cross&#45;listed: MATH100: Calculus I | MATH102: Calculus for Students in the Social and Biological Sciences | MATH109: Introduction to Calculus" target="_top">
<path fill="#dfe3f4" stroke="#7e8d96" d="M464.5,-103C464.5,-103 377.5,-103 377.5,-103 371.5,-103 365.5,-97 365.5,-91 365.5,-91 365.5,-79 365.5,-79 365.5,-73 371.5,-67 377.5,-67 377.5,-67 464.5,-67 464.5,-67 470.5,-67 476.5,-73 476.5,-79 476.5,-79 476.5,-91 476.5,-91 476.5,-97 470.5,-103 464.5,-103"/>
<text text-anchor="middle" x="421" y="-87.8" font-family="Avenir Next" font-size="9.00" fill="#41515b">MATH100 / MATH102</text>
<text text-anchor="middle" x="421" y="-77.8" font-family="Avenir Next" font-size="9.00" fill="#41515b">MATH109</text>
</a>
</g>
</g>
<!-- course__MATH100&#45;&gt;course__CHEM102 -->
<g id="edge4" class="edge">
<title>course__MATH100&#45;&gt;course__CHEM102</title>
<path fill="none" stroke="#5d6972" stroke-width="1.2" d="M469.16,-103.03C489.57,-110.83 513.09,-119.82 532.12,-127.09"/>
<polygon fill="#5d6972" stroke="#5d6972" stroke-width="1.2" points="531.5,-129.48 538.92,-129.69 533.25,-124.9 531.5,-129.48"/>
</g>
<!-- course__EOS205 -->
<g id="node6" class="node">
<title>course__EOS205</title>
<g id="a_node6"><a xlink:href="../../../courses/EOS205.html" xlink:title="EOS205: Mineralogy" target="_top">
<path fill="#d7e9ef" stroke="#7e8d96" d="M703,-103C703,-103 673,-103 673,-103 667,-103 661,-97 661,-91 661,-91 661,-79 661,-79 661,-73 667,-67 673,-67 673,-67 703,-67 703,-67 709,-67 715,-73 715,-79 715,-79 715,-91 715,-91 715,-97 709,-103 703,-103"/>
<text text-anchor="middle" x="688" y="-82.8" font-family="Avenir Next" font-size="9.00" fill="#41515b">EOS205</text>
</a>
</g>
</g>
<!-- course__CHEM102&#45;&gt;course__EOS205 -->
<g id="edge6" class="edge">
<title>course__CHEM102&#45;&gt;course__EOS205</title>
<path fill="none" stroke="#5d6972" stroke-width="1.2" d="M600.2,-126.72C616.74,-118.77 637.37,-108.86 654.37,-100.69"/>
<polygon fill="#5d6972" stroke="#5d6972" stroke-width="1.2" points="655.68,-102.78 660.92,-97.53 653.55,-98.36 655.68,-102.78"/>
</g>
<!-- course__EOS120 -->
<g id="node5" class="node">
<title>course__EOS120</title>
<g id="a_node5"><a xlink:href="../../../courses/EOS120.html" xlink:title="EOS120: The Dynamic Earth" target="_top">
<path fill="#d7e9ef" stroke="#7e8d96" d="M584.5,-103C584.5,-103 554.5,-103 554.5,-103 548.5,-103 542.5,-97 542.5,-91 542.5,-91 542.5,-79 542.5,-79 542.5,-73 548.5,-67 554.5,-67 554.5,-67 584.5,-67 584.5,-67 590.5,-67 596.5,-73 596.5,-79 596.5,-79 596.5,-91 596.5,-91 596.5,-97 590.5,-103 584.5,-103"/>
<text text-anchor="middle" x="569.5" y="-82.8" font-family="Avenir Next" font-size="9.00" fill="#41515b">EOS120</text>
</a>
</g>
</g>
<!-- course__EOS120&#45;&gt;course__EOS205 -->
<g id="edge5" class="edge">
<title>course__EOS120&#45;&gt;course__EOS205</title>
<path fill="none" stroke="#5d6972" stroke-width="1.2" d="M596.64,-85C613.43,-85 635.4,-85 653.46,-85"/>
<polygon fill="#5d6972" stroke="#5d6972" stroke-width="1.2" points="653.94,-87.45 660.94,-85 653.94,-82.55 653.94,-87.45"/>
</g>
<!-- course__EOS240 -->
<g id="node7" class="node">
<title>course__EOS240</title>
<g id="a_node7"><a xlink:href="../../../courses/EOS240.html" xlink:title="EOS240: Geochemistry" target="_top">
<path fill="#d7e9ef" stroke="#7e8d96" d="M818,-103C818,-103 788,-103 788,-103 782,-103 776,-97 776,-91 776,-91 776,-79 776,-79 776,-73 782,-67 788,-67 788,-67 818,-67 818,-67 824,-67 830,-73 830,-79 830,-79 830,-91 830,-91 830,-97 824,-103 818,-103"/>
<text text-anchor="middle" x="803" y="-82.8" font-family="Avenir Next" font-size="9.00" fill="#41515b">EOS240</text>
</a>
</g>
</g>
<!-- course__EOS205&#45;&gt;course__EOS240 -->
<g id="edge7" class="edge">
<title>course__EOS205&#45;&gt;course__EOS240</title>
<path fill="none" stroke="#5d6972" stroke-width="1.2" d="M715.21,-85C731.18,-85 751.74,-85 768.84,-85"/>
<polygon fill="#5d6972" stroke="#5d6972" stroke-width="1.2" points="768.93,-87.45 775.93,-85 768.93,-82.55 768.93,-87.45"/>
</g>
<!-- course__EOS335 -->
<g id="node8" class="node">
<title>course__EOS335</title>
<g id="a_node8"><a xlink:href="../../../courses/EOS335.html" xlink:title="EOS335: Isotopes in Natural Sciences" target="_top">
<path fill="#d7e9ef" stroke="#1b2730" stroke-width="1.6" d="M933,-103C933,-103 903,-103 903,-103 897,-103 891,-97 891,-91 891,-91 891,-79 891,-79 891,-73 897,-67 903,-67 903,-67 933,-67 933,-67 939,-67 945,-73 945,-79 945,-79 945,-91 945,-91 945,-97 939,-103 933,-103"/>
<text text-anchor="middle" x="918" y="-82.5" font-family="Avenir Next" font-size="10.00" fill="#17232b">EOS335</text>
</a>
</g>
</g>
<!-- course__EOS240&#45;&gt;course__EOS335 -->
<g id="edge8" class="edge">
<title>course__EOS240&#45;&gt;course__EOS335</title>
<path fill="none" stroke="#5d6972" stroke-width="1.2" d="M830.21,-85C846.18,-85 866.74,-85 883.84,-85"/>
<polygon fill="#5d6972" stroke="#5d6972" stroke-width="1.2" points="883.93,-87.45 890.93,-85 883.93,-82.55 883.93,-87.45"/>
</g>
<!-- course__EOS425 -->
<g id="node9" class="node">
<title>course__EOS425</title>
<g id="a_node9"><a xlink:href="../../../courses/EOS425.html" xlink:title="EOS425: Aqueous Chemistry in the Earth and Ocean" target="_top">
<path fill="#d7e9ef" stroke="#1f4f66" stroke-width="2" d="M1220,-78C1220,-78 1018,-78 1018,-78 1012,-78 1006,-72 1006,-66 1006,-66 1006,-54 1006,-54 1006,-48 1012,-42 1018,-42 1018,-42 1220,-42 1220,-42 1226,-42 1232,-48 1232,-54 1232,-54 1232,-66 1232,-66 1232,-72 1226,-78 1220,-78"/>
<text text-anchor="middle" x="1119" y="-63" font-family="Avenir Next" font-size="10.00" fill="#17232b">EOS425</text>
<text text-anchor="middle" x="1119" y="-52" font-family="Avenir Next" font-size="10.00" fill="#17232b">Aqueous Chemistry in the Earth and Ocean</text>
</a>
</g>
</g>
<!-- course__EOS335&#45;&gt;course__EOS425 -->
<g id="edge9" class="edge">
<title>course__EOS335&#45;&gt;course__EOS425</title>
<path fill="none" stroke="#5d6972" stroke-width="1.2" d="M945.02,-81.73C959.43,-79.92 978.51,-77.52 998.71,-74.99"/>
<polygon fill="#5d6972" stroke="#5d6972" stroke-width="1.2" points="999.26,-77.39 1005.9,-74.08 998.65,-72.52 999.26,-77.39"/>
</g>
<!-- EOS425_notes -->
<g id="node10" class="node">
<title>EOS425_notes</title>
<polygon fill="#fff7ee" stroke="#b7793f" stroke-width="1.1" points="297,-72 0,-72 0,0 303,0 303,-66 297,-72"/>
<polyline fill="none" stroke="#b7793f" stroke-width="1.1" points="297,-72 297,-66 "/>
<polyline fill="none" stroke="#b7793f" stroke-width="1.1" points="303,-66 297,-66 "/>
<text text-anchor="start" x="13" y="-52.4" font-family="Avenir Next" font-size="12.00">Published notes</text>
<text text-anchor="start" x="13" y="-39.4" font-family="Avenir Next" font-size="12.00">Complete 1.5 units of: 300&#45; or 400&#45;level CHEM</text>
<text text-anchor="start" x="13" y="-26.4" font-family="Avenir Next" font-size="12.00">course</text>
<text text-anchor="start" x="13" y="-13.4" font-family="Avenir Next" font-size="12.00">permission of the school</text>
</g>
<!-- EOS425_notes&#45;&gt;course__EOS425 -->
</g>
</svg>
