<?xml version="1.0" encoding="UTF-8" standalone="no"?>
<!DOCTYPE svg PUBLIC "-//W3C//DTD SVG 1.1//EN"
 "http://www.w3.org/Graphics/SVG/1.1/DTD/svg11.dtd">
<!-- Generated by graphviz version 2.43.0 (0)
 -->
<!-- Title: EOS431 Pages: 1 -->
<svg width="999pt" height="187pt"
 viewBox="0.00 0.00 999.20 187.20" xmlns="http://www.w3.org/2000/svg" xmlns:xlink="http://www.w3.org/1999/xlink">
<g id="graph0" class="graph" transform="scale(1 1) rotate(0) translate(21.6 165.6)">
<title>EOS431</title>
<!-- course__PHYS102A -->
<g id="node1" class="node">
<title>course__PHYS102A</title>
<g id="a_node1"><a xlink:href="../../../courses/PHYS102A.html" xlink:title="Collapsed in simplified view: PHYS102A: General Physics I | PHYS110: Introductory Physics I | PHYS120: Physics I" target="_top">
<path fill="#efd8cf" stroke="#1b2730" stroke-width="1.6" d="M47,-102C47,-102 12,-102 12,-102 6,-102 0,-96 0,-90 0,-90 0,-78 0,-78 0,-72 6,-66 12,-66 12,-66 47,-66 47,-66 53,-66 59,-72 59,-78 59,-78 59,-90 59,-90 59,-96 53,-102 47,-102"/>
<text text-anchor="middle" x="29.5" y="-81.5" font-family="Avenir Next" font-size="10.00" fill="#17232b">Physics I</text>
</a>
</g>
</g>
<!-- course__PHYS102B -->
<g id="node3" class="node">
<title>course__PHYS102B</title>
<g id="a_node3"><a xlink:href="../../../courses/PHYS102B.html" xlink:title="Collapsed in simplified view: PHYS102B: General Physics II | PHYS111: Introductory Physics II | PHYS130: Physics II" target="_top">
<path fill="#efd8cf" stroke="#1b2730" stroke-width="1.6" d="M170.5,-102C170.5,-102 132.5,-102 132.5,-102 126.5,-102 120.5,-96 120.5,-90 120.5,-90 120.5,-78 120.5,-78 120.5,-72 126.5,-66 132.5,-66 132.5,-66 170.5,-66 170.5,-66 176.5,-66 182.5,-72 182.5,-78 182.5,-78 182.5,-90 182.5,-90 182.5,-96 176.5,-102 170.5,-102"/>
<text text-anchor="middle" x="151.5" y="-81.5" font-family="Avenir Next" font-size="10.00" fill="#17232b">Physics II</text>
</a>
</g>
</g>
<!-- course__PHYS102A&#45;&gt;course__PHYS102B -->
<g id="edge11" class="edge">
<title>course__PHYS102A&#45;&gt;course__PHYS102B</title>
<path fill="none" stroke="#5d6972" stroke-width="1.2" d="M59.24,-84C75.38,-84 95.71,-84 113.07,-84"/>
<polygon fill="#5d6972" stroke="#5d6972" stroke-width="1.2" points="113.32,-86.45 120.32,-84 113.32,-81.55 113.32,-86.45"/>
</g>
<!-- course__MATH204 -->
<g id="node2" class="node">
<title>course__MATH204</title>
<g id="a_node2"><a xlink:href="../../../courses/MATH204.html" xlink:title="MATH204: Calculus IV" target="_top">
<path fill="#dfe3f4" stroke="#1b2730" stroke-width="1.6" d="M171,-36C171,-36 132,-36 132,-36 126,-36 120,-30 120,-24 120,-24 120,-12 120,-12 120,-6 126,0 132,0 132,0 171,0 171,0 177,0 183,-6 183,-12 183,-12 183,-24 183,-24 183,-30 177,-36 171,-36"/>
<text text-anchor="middle" x="151.5" y="-15.5" font-family="Avenir Next" font-size="10.00" fill="#17232b">MATH204</text>
</a>
</g>
</g>
<!-- course__EOS325 -->
<g id="node4" class="node">
<title>course__EOS325</title>
<g id="a_node4"><a xlink:href="../../../courses/EOS325.html" xlink:title="EOS325: Earth System Modelling" target="_top">
<path fill="#d7e9ef" stroke="#1b2730" stroke-width="1.6" d="M286,-64C286,-64 256,-64 256,-64 250,-64 244,-58 244,-52 244,-52 244,-40 244,-40 244,-34 250,-28 256,-28 256,-28 286,-28 286,-28 292,-28 298,-34 298,-40 298,-40 298,-52 298,-52 298,-58 292,-64 286,-64"/>
<text text-anchor="middle" x="271" y="-43.5" font-family="Avenir Next" font-size="10.00" fill="#17232b">EOS325</text>
</a>
</g>
</g>
<!-- course__MATH204&#45;&gt;course__EOS325 -->
<g id="edge2" class="edge">
<title>course__MATH204&#45;&gt;course__EOS325</title>
<path fill="none" stroke="#5d6972" stroke-width="1.2" d="M183.07,-25.28C199.61,-29.23 220.05,-34.1 236.96,-38.13"/>
<polygon fill="#5d6972" stroke="#5d6972" stroke-width="1.2" points="236.59,-40.56 243.97,-39.8 237.73,-35.79 236.59,-40.56"/>
</g>
<!-- choice_EOS431_0_0 -->
<g id="node10" class="node">
<title>choice_EOS431_0_0</title>
<path fill="#fff7ee" stroke="#b7793f" stroke-width="1.1" d="M401,-64C401,-64 371,-64 371,-64 365,-64 359,-58 359,-52 359,-52 359,-40 359,-40 359,-34 365,-28 371,-28 371,-28 401,-28 401,-28 407,-28 413,-34 413,-40 413,-40 413,-52 413,-52 413,-58 407,-64 401,-64"/>
<text text-anchor="middle" x="386" y="-43.8" font-family="Avenir Next" font-size="9.00">1 of</text>
</g>
<!-- course__MATH204&#45;&gt;choice_EOS431_0_0 -->
<g id="edge8" class="edge">
<title>course__MATH204&#45;&gt;choice_EOS431_0_0</title>
<path fill="none" stroke="#7a8389" d="M183.09,-15.26C212.68,-13.25 258.7,-11.83 298,-18 316.38,-20.88 336.17,-27 352.23,-32.78"/>
<polygon fill="#7a8389" stroke="#7a8389" points="351.45,-35.11 358.87,-35.23 353.15,-30.51 351.45,-35.11"/>
</g>
<!-- course__PHYS102B&#45;&gt;course__EOS325 -->
<g id="edge3" class="edge">
<title>course__PHYS102B&#45;&gt;course__EOS325</title>
<path fill="none" stroke="#5d6972" stroke-width="1.2" d="M182.76,-74.21C199.3,-68.86 219.82,-62.23 236.8,-56.74"/>
<polygon fill="#5d6972" stroke="#5d6972" stroke-width="1.2" points="237.93,-58.95 243.83,-54.46 236.42,-54.29 237.93,-58.95"/>
</g>
<!-- course__EOS431 -->
<g id="node5" class="node">
<title>course__EOS431</title>
<g id="a_node5"><a xlink:href="../../../courses/EOS431.html" xlink:title="Equivalent or cross&#45;listed: EOS431: Physical Oceanography | PHYS441: Physical Oceanography" target="_top">
<path fill="#d7e9ef" stroke="#1f4f66" stroke-width="2" d="M593,-88C593,-88 486,-88 486,-88 480,-88 474,-82 474,-76 474,-76 474,-64 474,-64 474,-58 480,-52 486,-52 486,-52 593,-52 593,-52 599,-52 605,-58 605,-64 605,-64 605,-76 605,-76 605,-82 599,-88 593,-88"/>
<text text-anchor="middle" x="539.5" y="-73" font-family="Avenir Next" font-size="10.00" fill="#17232b">EOS431 / PHYS441</text>
<text text-anchor="middle" x="539.5" y="-62" font-family="Avenir Next" font-size="10.00" fill="#17232b">Physical Oceanography</text>
</a>
</g>
</g>
<!-- course__PHYS102B&#45;&gt;course__EOS431 -->
<g id="edge10" class="edge">
<title>course__PHYS102B&#45;&gt;course__EOS431</title>
<path fill="none" stroke="#5d6972" stroke-width="1.2" d="M182.79,-82.9C243.55,-80.7 381.77,-75.68 466.92,-72.6"/>
<polygon fill="#5d6972" stroke="#5d6972" stroke-width="1.2" points="467.06,-75.04 473.97,-72.34 466.88,-70.15 467.06,-75.04"/>
</g>
<!-- course__EOS325&#45;&gt;choice_EOS431_0_0 -->
<g id="edge7" class="edge">
<title>course__EOS325&#45;&gt;choice_EOS431_0_0</title>
<path fill="none" stroke="#7a8389" d="M298.21,-46C314.18,-46 334.74,-46 351.84,-46"/>
<polygon fill="#7a8389" stroke="#7a8389" points="351.93,-48.45 358.93,-46 351.93,-43.55 351.93,-48.45"/>
</g>
<!-- course__EOS312 -->
<g id="node6" class="node">
<title>course__EOS312</title>
<g id="a_node6"><a xlink:href="../../../courses/EOS312.html" xlink:title="EOS312: Introductory Chemical Oceanography" target="_top">
<path fill="#d7e9ef" stroke="#1b2730" stroke-width="1.6" d="M711,-144C711,-144 681,-144 681,-144 675,-144 669,-138 669,-132 669,-132 669,-120 669,-120 669,-114 675,-108 681,-108 681,-108 711,-108 711,-108 717,-108 723,-114 723,-120 723,-120 723,-132 723,-132 723,-138 717,-144 711,-144"/>
<text text-anchor="middle" x="696" y="-123.5" font-family="Avenir Next" font-size="10.00" fill="#17232b">EOS312</text>
</a>
</g>
</g>
<!-- course__EOS431&#45;&gt;course__EOS312 -->
<g id="edge1" class="edge">
<title>course__EOS431&#45;&gt;course__EOS312</title>
<path fill="none" stroke="#5d6972" stroke-width="1.2" d="M590.24,-88.03C613.69,-96.53 641.05,-106.44 661.92,-114.01"/>
<polygon fill="#5d6972" stroke="#5d6972" stroke-width="1.2" points="661.32,-116.4 668.74,-116.48 662.99,-111.79 661.32,-116.4"/>
</g>
<!-- course__PHYS411 -->
<g id="node7" class="node">
<title>course__PHYS411</title>
<g id="a_node7"><a xlink:href="../../../courses/PHYS411.html" xlink:title="PHYS411: Time Series Analysis" target="_top">
<path fill="#efd8cf" stroke="#1b2730" stroke-width="1.6" d="M714,-88C714,-88 678,-88 678,-88 672,-88 666,-82 666,-76 666,-76 666,-64 666,-64 666,-58 672,-52 678,-52 678,-52 714,-52 714,-52 720,-52 726,-58 726,-64 726,-64 726,-76 726,-76 726,-82 720,-88 714,-88"/>
<text text-anchor="middle" x="696" y="-67.5" font-family="Avenir Next" font-size="10.00" fill="#17232b">PHYS411</text>
</a>
</g>
</g>
<!-- course__EOS431&#45;&gt;course__PHYS411 -->
<g id="edge12" class="edge">
<title>course__EOS431&#45;&gt;course__PHYS411</title>
<path fill="none" stroke="#5d6972" stroke-width="1.2" d="M605.13,-70C623.48,-70 642.82,-70 658.83,-70"/>
<polygon fill="#5d6972" stroke="#5d6972" stroke-width="1.2" points="658.94,-72.45 665.94,-70 658.94,-67.55 658.94,-72.45"/>
</g>
<!-- choice_EOS401_0 -->
<g id="node9" class="node">
<title>choice_EOS401_0</title>
<path fill="#fff7ee" stroke="#b7793f" stroke-width="1.1" d="M829,-91C829,-91 799,-91 799,-91 793,-91 787,-85 787,-79 787,-79 787,-67 787,-67 787,-61 793,-55 799,-55 799,-55 829,-55 829,-55 835,-55 841,-61 841,-67 841,-67 841,-79 841,-79 841,-85 835,-91 829,-91"/>
<text text-anchor="middle" x="814" y="-70.8" font-family="Avenir Next" font-size="9.00">3 of</text>
</g>
<!-- course__EOS431&#45;&gt;choice_EOS401_0 -->
<g id="edge5" class="edge">
<title>course__EOS431&#45;&gt;choice_EOS401_0</title>
<path fill="none" stroke="#7a8389" d="M597.43,-51.92C634.19,-42.59 682.99,-34.57 726,-42 744.53,-45.2 764.33,-51.97 780.36,-58.37"/>
<polygon fill="#7a8389" stroke="#7a8389" points="779.58,-60.7 786.98,-61.08 781.43,-56.16 779.58,-60.7"/>
</g>
<!-- course__EOS312&#45;&gt;choice_EOS401_0 -->
<g id="edge4" class="edge">
<title>course__EOS312&#45;&gt;choice_EOS401_0</title>
<path fill="none" stroke="#7a8389" d="M723.03,-114.11C739.93,-106.39 762.09,-96.26 780.19,-87.99"/>
<polygon fill="#7a8389" stroke="#7a8389" points="781.3,-90.18 786.65,-85.04 779.27,-85.72 781.3,-90.18"/>
</g>
<!-- course__EOS401 -->
<g id="node8" class="node">
<title>course__EOS401</title>
<g id="a_node8"><a xlink:href="../../../courses/EOS401.html" xlink:title="EOS401: Oceanographic Field School" target="_top">
<path fill="#d7e9ef" stroke="#1b2730" stroke-width="1.6" d="M944,-91C944,-91 914,-91 914,-91 908,-91 902,-85 902,-79 902,-79 902,-67 902,-67 902,-61 908,-55 914,-55 914,-55 944,-55 944,-55 950,-55 956,-61 956,-67 956,-67 956,-79 956,-79 956,-85 950,-91 944,-91"/>
<text text-anchor="middle" x="929" y="-70.5" font-family="Avenir Next" font-size="10.00" fill="#17232b">EOS401</text>
</a>
</g>
</g>
<!-- choice_EOS401_0&#45;&gt;course__EOS401 -->
<g id="edge6" class="edge">
<title>choice_EOS401_0&#45;&gt;course__EOS401</title>
<path fill="none" stroke="#5d6972" stroke-width="1.2" d="M841.21,-73C857.18,-73 877.74,-73 894.84,-73"/>
<polygon fill="#5d6972" stroke="#5d6972" stroke-width="1.2" points="894.93,-75.45 901.93,-73 894.93,-70.55 894.93,-75.45"/>
</g>
<!-- choice_EOS431_0_0&#45;&gt;course__EOS431 -->
<g id="edge9" class="edge">
<title>choice_EOS431_0_0&#45;&gt;course__EOS431</title>
<path fill="none" stroke="#5d6972" stroke-width="1.2" d="M413.04,-50.13C427.96,-52.49 447.49,-55.58 466.68,-58.62"/>
<polygon fill="#5d6972" stroke="#5d6972" stroke-width="1.2" points="466.42,-61.06 473.72,-59.74 467.19,-56.22 466.42,-61.06"/>
</g>
</g>
</svg>
