<?xml version="1.0" encoding="UTF-8" standalone="no"?>
<!DOCTYPE svg PUBLIC "-//W3C//DTD SVG 1.1//EN"
 "http://www.w3.org/Graphics/SVG/1.1/DTD/svg11.dtd">
<!-- Generated by graphviz version 2.43.0 (0)
 -->
<!-- Title: EOS425 Pages: 1 -->
<svg width="384pt" height="79pt"
 viewBox="0.00 0.00 384.20 79.20" xmlns="http://www.w3.org/2000/svg" xmlns:xlink="http://www.w3.org/1999/xlink">
<g id="graph0" class="graph" transform="scale(1 1) rotate(0) translate(21.6 57.6)">
<title>EOS425</title>
<!-- course__EOS335 -->
<g id="node1" class="node">
<title>course__EOS335</title>
<g id="a_node1"><a xlink:href="../../../courses/EOS335.html" xlink:title="EOS335: Isotopes in Natural Sciences" target="_top">
<path fill="#d7e9ef" stroke="#1b2730" stroke-width="1.6" d="M42,-36C42,-36 12,-36 12,-36 6,-36 0,-30 0,-24 0,-24 0,-12 0,-12 0,-6 6,0 12,0 12,0 42,0 42,0 48,0 54,-6 54,-12 54,-12 54,-24 54,-24 54,-30 48,-36 42,-36"/>
<text text-anchor="middle" x="27" y="-15.5" font-family="Avenir Next" font-size="10.00" fill="#17232b">EOS335</text>
</a>
</g>
</g>
<!-- course__EOS425 -->
<g id="node2" class="node">
<title>course__EOS425</title>
<g id="a_node2"><a xlink:href="../../../courses/EOS425.html" xlink:title="EOS425: Aqueous Chemistry in the Earth and Ocean" target="_top">
<path fill="#d7e9ef" stroke="#1f4f66" stroke-width="2" d="M329,-36C329,-36 127,-36 127,-36 121,-36 115,-30 115,-24 115,-24 115,-12 115,-12 115,-6 121,0 127,0 127,0 329,0 329,0 335,0 341,-6 341,-12 341,-12 341,-24 341,-24 341,-30 335,-36 329,-36"/>
<text text-anchor="middle" x="228" y="-21" font-family="Avenir Next" font-size="10.00" fill="#17232b">EOS425</text>
<text text-anchor="middle" x="228" y="-10" font-family="Avenir Next" font-size="10.00" fill="#17232b">Aqueous Chemistry in the Earth and Ocean</text>
</a>
</g>
</g>
<!-- course__EOS335&#45;&gt;course__EOS425 -->
<g id="edge1" class="edge">
<title>course__EOS335&#45;&gt;course__EOS425</title>
<path fill="none" stroke="#5d6972" stroke-width="1.2" d="M54.02,-18C68.43,-18 87.51,-18 107.71,-18"/>
<polygon fill="#5d6972" stroke="#5d6972" stroke-width="1.2" points="107.9,-20.45 114.9,-18 107.9,-15.55 107.9,-20.45"/>
</g>
</g>
</svg>
