<?xml version="1.0" encoding="UTF-8" standalone="no"?>
<!DOCTYPE svg PUBLIC "-//W3C//DTD SVG 1.1//EN"
 "http://www.w3.org/Graphics/SVG/1.1/DTD/svg11.dtd">
<!-- Generated by graphviz version 2.43.0 (0)
 -->
<!-- Title: EOS440 Pages: 1 -->
<svg width="1094pt" height="294pt"
 viewBox="0.00 0.00 1094.20 294.20" xmlns="http://www.w3.org/2000/svg" xmlns:xlink="http://www.w3.org/1999/xlink">
<g id="graph0" class="graph" transform="scale(1 1) rotate(0) translate(21.6 272.6)">
<title>EOS440</title>
<!-- course__CHEM091 -->
<g id="node1" class="node">
<title>course__CHEM091</title>
<g id="a_node1"><a xlink:href="../../../courses/CHEM091.html" xlink:title="CHEM091: Introduction to Chemistry" target="_top">
<path fill="#ead9b8" stroke="#7e8d96" d="M325.5,-251C325.5,-251 288.5,-251 288.5,-251 282.5,-251 276.5,-245 276.5,-239 276.5,-239 276.5,-227 276.5,-227 276.5,-221 282.5,-215 288.5,-215 288.5,-215 325.5,-215 325.5,-215 331.5,-215 337.5,-221 337.5,-227 337.5,-227 337.5,-239 337.5,-239 337.5,-245 331.5,-251 325.5,-251"/>
<text text-anchor="middle" x="307" y="-230.8" font-family="Avenir Next" font-size="9.00" fill="#41515b">CHEM091</text>
</a>
</g>
</g>
<!-- course__CHEM102 -->
<g id="node4" class="node">
<title>course__CHEM102</title>
<g id="a_node4"><a xlink:href="../../../courses/CHEM102.html" xlink:title="CHEM102: Chemical Reactivity Fundamentals with Environmental Applications" target="_top">
<path fill="#ead9b8" stroke="#7e8d96" d="M474,-223C474,-223 437,-223 437,-223 431,-223 425,-217 425,-211 425,-211 425,-199 425,-199 425,-193 431,-187 437,-187 437,-187 474,-187 474,-187 480,-187 486,-193 486,-199 486,-199 486,-211 486,-211 486,-217 480,-223 474,-223"/>
<text text-anchor="middle" x="455.5" y="-202.8" font-family="Avenir Next" font-size="9.00" fill="#41515b">CHEM102</text>
</a>
</g>
</g>
<!-- course__CHEM091&#45;&gt;course__CHEM102 -->
<g id="edge2" class="edge">
<title>course__CHEM091&#45;&gt;course__CHEM102</title>
<path fill="none" stroke="#5d6972" stroke-width="1.2" d="M337.65,-227.33C360.78,-222.91 393.04,-216.75 417.8,-212.01"/>
<polygon fill="#5d6972" stroke="#5d6972" stroke-width="1.2" points="418.48,-214.38 424.9,-210.66 417.56,-209.57 418.48,-214.38"/>
</g>
<!-- course__CHEM101 -->
<g id="node2" class="node">
<title>course__CHEM101</title>
<g id="a_node2"><a xlink:href="../../../courses/CHEM101.html" xlink:title="Equivalent or cross&#45;listed: CHEM101: Fundamentals of Chemistry from Atoms to Materials | CHEM150: Engineering Chemistry" target="_top">
<path fill="#ead9b8" stroke="#7e8d96" d="M352,-195C352,-195 262,-195 262,-195 256,-195 250,-189 250,-183 250,-183 250,-171 250,-171 250,-165 256,-159 262,-159 262,-159 352,-159 352,-159 358,-159 364,-165 364,-171 364,-171 364,-183 364,-183 364,-189 358,-195 352,-195"/>
<text text-anchor="middle" x="307" y="-174.8" font-family="Avenir Next" font-size="9.00" fill="#41515b">CHEM101 / CHEM150</text>
</a>
</g>
</g>
<!-- course__CHEM101&#45;&gt;course__CHEM102 -->
<g id="edge3" class="edge">
<title>course__CHEM101&#45;&gt;course__CHEM102</title>
<path fill="none" stroke="#5d6972" stroke-width="1.2" d="M364.22,-187.75C382.14,-191.17 401.49,-194.87 417.66,-197.96"/>
<polygon fill="#5d6972" stroke="#5d6972" stroke-width="1.2" points="417.52,-200.43 424.85,-199.33 418.44,-195.61 417.52,-200.43"/>
</g>
<!-- course__MATH100 -->
<g id="node3" class="node">
<title>course__MATH100</title>
<g id="a_node3"><a xlink:href="../../../courses/MATH100.html" xlink:title="Equivalent or cross&#45;listed: MATH100: Calculus I | MATH102: Calculus for Students in the Social and Biological Sciences | MATH109: Introduction to Calculus" target="_top">
<path fill="#dfe3f4" stroke="#7e8d96" d="M350.5,-111C350.5,-111 263.5,-111 263.5,-111 257.5,-111 251.5,-105 251.5,-99 251.5,-99 251.5,-87 251.5,-87 251.5,-81 257.5,-75 263.5,-75 263.5,-75 350.5,-75 350.5,-75 356.5,-75 362.5,-81 362.5,-87 362.5,-87 362.5,-99 362.5,-99 362.5,-105 356.5,-111 350.5,-111"/>
<text text-anchor="middle" x="307" y="-95.8" font-family="Avenir Next" font-size="9.00" fill="#41515b">MATH100 / MATH102</text>
<text text-anchor="middle" x="307" y="-85.8" font-family="Avenir Next" font-size="9.00" fill="#41515b">MATH109</text>
</a>
</g>
</g>
<!-- course__MATH100&#45;&gt;course__CHEM102 -->
<g id="edge4" class="edge">
<title>course__MATH100&#45;&gt;course__CHEM102</title>
<path fill="none" stroke="#5d6972" stroke-width="1.2" d="M331.86,-111.24C357.3,-130.69 397.6,-161.5 425,-182.45"/>
<polygon fill="#5d6972" stroke="#5d6972" stroke-width="1.2" points="423.6,-184.46 430.65,-186.76 426.57,-180.57 423.6,-184.46"/>
</g>
<!-- course__MATH101 -->
<g id="node6" class="node">
<title>course__MATH101</title>
<g id="a_node6"><a xlink:href="../../../courses/MATH101.html" xlink:title="MATH101: Calculus II" target="_top">
<path fill="#dfe3f4" stroke="#7e8d96" d="M473,-111C473,-111 438,-111 438,-111 432,-111 426,-105 426,-99 426,-99 426,-87 426,-87 426,-81 432,-75 438,-75 438,-75 473,-75 473,-75 479,-75 485,-81 485,-87 485,-87 485,-99 485,-99 485,-105 479,-111 473,-111"/>
<text text-anchor="middle" x="455.5" y="-90.8" font-family="Avenir Next" font-size="9.00" fill="#41515b">MATH101</text>
</a>
</g>
</g>
<!-- course__MATH100&#45;&gt;course__MATH101 -->
<g id="edge12" class="edge">
<title>course__MATH100&#45;&gt;course__MATH101</title>
<path fill="none" stroke="#5d6972" stroke-width="1.2" d="M362.55,-93C381.34,-93 401.9,-93 418.79,-93"/>
<polygon fill="#5d6972" stroke="#5d6972" stroke-width="1.2" points="418.8,-95.45 425.8,-93 418.8,-90.55 418.8,-95.45"/>
</g>
<!-- course__EOS205 -->
<g id="node7" class="node">
<title>course__EOS205</title>
<g id="a_node7"><a xlink:href="../../../courses/EOS205.html" xlink:title="EOS205: Mineralogy" target="_top">
<path fill="#d7e9ef" stroke="#7e8d96" d="M621.5,-188C621.5,-188 591.5,-188 591.5,-188 585.5,-188 579.5,-182 579.5,-176 579.5,-176 579.5,-164 579.5,-164 579.5,-158 585.5,-152 591.5,-152 591.5,-152 621.5,-152 621.5,-152 627.5,-152 633.5,-158 633.5,-164 633.5,-164 633.5,-176 633.5,-176 633.5,-182 627.5,-188 621.5,-188"/>
<text text-anchor="middle" x="606.5" y="-167.8" font-family="Avenir Next" font-size="9.00" fill="#41515b">EOS205</text>
</a>
</g>
</g>
<!-- course__CHEM102&#45;&gt;course__EOS205 -->
<g id="edge6" class="edge">
<title>course__CHEM102&#45;&gt;course__EOS205</title>
<path fill="none" stroke="#5d6972" stroke-width="1.2" d="M486.29,-198C511.14,-192.17 546.5,-183.86 572.25,-177.81"/>
<polygon fill="#5d6972" stroke="#5d6972" stroke-width="1.2" points="572.99,-180.15 579.25,-176.17 571.87,-175.38 572.99,-180.15"/>
</g>
<!-- course__EOS120 -->
<g id="node5" class="node">
<title>course__EOS120</title>
<g id="a_node5"><a xlink:href="../../../courses/EOS120.html" xlink:title="EOS120: The Dynamic Earth" target="_top">
<path fill="#d7e9ef" stroke="#7e8d96" d="M470.5,-167C470.5,-167 440.5,-167 440.5,-167 434.5,-167 428.5,-161 428.5,-155 428.5,-155 428.5,-143 428.5,-143 428.5,-137 434.5,-131 440.5,-131 440.5,-131 470.5,-131 470.5,-131 476.5,-131 482.5,-137 482.5,-143 482.5,-143 482.5,-155 482.5,-155 482.5,-161 476.5,-167 470.5,-167"/>
<text text-anchor="middle" x="455.5" y="-146.8" font-family="Avenir Next" font-size="9.00" fill="#41515b">EOS120</text>
</a>
</g>
</g>
<!-- course__EOS120&#45;&gt;course__EOS205 -->
<g id="edge5" class="edge">
<title>course__EOS120&#45;&gt;course__EOS205</title>
<path fill="none" stroke="#5d6972" stroke-width="1.2" d="M482.8,-152.71C507.8,-156.23 545.49,-161.54 572.5,-165.35"/>
<polygon fill="#5d6972" stroke="#5d6972" stroke-width="1.2" points="572.19,-167.78 579.47,-166.33 572.88,-162.93 572.19,-167.78"/>
</g>
<!-- course__MATH200 -->
<g id="node8" class="node">
<title>course__MATH200</title>
<g id="a_node8"><a xlink:href="../../../courses/MATH200.html" xlink:title="Equivalent or cross&#45;listed: MATH200: Calculus III | MATH202: Intermediate Calculus for CSC and EOS" target="_top">
<path fill="#dfe3f4" stroke="#1b2730" stroke-width="1.6" d="M654,-111C654,-111 559,-111 559,-111 553,-111 547,-105 547,-99 547,-99 547,-87 547,-87 547,-81 553,-75 559,-75 559,-75 654,-75 654,-75 660,-75 666,-81 666,-87 666,-87 666,-99 666,-99 666,-105 660,-111 654,-111"/>
<text text-anchor="middle" x="606.5" y="-90.5" font-family="Avenir Next" font-size="10.00" fill="#17232b">MATH200 / MATH202</text>
</a>
</g>
</g>
<!-- course__MATH101&#45;&gt;course__MATH200 -->
<g id="edge13" class="edge">
<title>course__MATH101&#45;&gt;course__MATH200</title>
<path fill="none" stroke="#5d6972" stroke-width="1.2" d="M485.23,-93C500.82,-93 520.78,-93 539.93,-93"/>
<polygon fill="#5d6972" stroke="#5d6972" stroke-width="1.2" points="539.95,-95.45 546.95,-93 539.95,-90.55 539.95,-95.45"/>
</g>
<!-- course__EOS240 -->
<g id="node9" class="node">
<title>course__EOS240</title>
<g id="a_node9"><a xlink:href="../../../courses/EOS240.html" xlink:title="EOS240: Geochemistry" target="_top">
<path fill="#d7e9ef" stroke="#1b2730" stroke-width="1.6" d="M773.5,-188C773.5,-188 743.5,-188 743.5,-188 737.5,-188 731.5,-182 731.5,-176 731.5,-176 731.5,-164 731.5,-164 731.5,-158 737.5,-152 743.5,-152 743.5,-152 773.5,-152 773.5,-152 779.5,-152 785.5,-158 785.5,-164 785.5,-164 785.5,-176 785.5,-176 785.5,-182 779.5,-188 773.5,-188"/>
<text text-anchor="middle" x="758.5" y="-167.5" font-family="Avenir Next" font-size="10.00" fill="#17232b">EOS240</text>
</a>
</g>
</g>
<!-- course__EOS205&#45;&gt;course__EOS240 -->
<g id="edge7" class="edge">
<title>course__EOS205&#45;&gt;course__EOS240</title>
<path fill="none" stroke="#5d6972" stroke-width="1.2" d="M633.63,-170C658.82,-170 697.05,-170 724.37,-170"/>
<polygon fill="#5d6972" stroke="#5d6972" stroke-width="1.2" points="724.42,-172.45 731.42,-170 724.42,-167.55 724.42,-172.45"/>
</g>
<!-- course__MATH204 -->
<g id="node10" class="node">
<title>course__MATH204</title>
<g id="a_node10"><a xlink:href="../../../courses/MATH204.html" xlink:title="MATH204: Calculus IV" target="_top">
<path fill="#dfe3f4" stroke="#1b2730" stroke-width="1.6" d="M778,-132C778,-132 739,-132 739,-132 733,-132 727,-126 727,-120 727,-120 727,-108 727,-108 727,-102 733,-96 739,-96 739,-96 778,-96 778,-96 784,-96 790,-102 790,-108 790,-108 790,-120 790,-120 790,-126 784,-132 778,-132"/>
<text text-anchor="middle" x="758.5" y="-111.5" font-family="Avenir Next" font-size="10.00" fill="#17232b">MATH204</text>
</a>
</g>
</g>
<!-- course__MATH200&#45;&gt;course__MATH204 -->
<g id="edge14" class="edge">
<title>course__MATH200&#45;&gt;course__MATH204</title>
<path fill="none" stroke="#5d6972" stroke-width="1.2" d="M666.35,-101.24C684.29,-103.75 703.52,-106.44 719.67,-108.7"/>
<polygon fill="#5d6972" stroke="#5d6972" stroke-width="1.2" points="719.59,-111.17 726.86,-109.71 720.27,-106.31 719.59,-111.17"/>
</g>
<!-- choice_EOS440_0_1 -->
<g id="node13" class="node">
<title>choice_EOS440_0_1</title>
<path fill="#fff7ee" stroke="#b7793f" stroke-width="1.1" d="M893,-111C893,-111 863,-111 863,-111 857,-111 851,-105 851,-99 851,-99 851,-87 851,-87 851,-81 857,-75 863,-75 863,-75 893,-75 893,-75 899,-75 905,-81 905,-87 905,-87 905,-99 905,-99 905,-105 899,-111 893,-111"/>
<text text-anchor="middle" x="878" y="-90.8" font-family="Avenir Next" font-size="9.00">1 of</text>
</g>
<!-- course__MATH200&#45;&gt;choice_EOS440_0_1 -->
<g id="edge8" class="edge">
<title>course__MATH200&#45;&gt;choice_EOS440_0_1</title>
<path fill="none" stroke="#7a8389" d="M666.27,-88.41C702.04,-86.19 748.66,-84.34 790,-86 807.73,-86.71 827.43,-88.24 843.6,-89.68"/>
<polygon fill="#7a8389" stroke="#7a8389" points="843.57,-92.14 850.76,-90.34 844.02,-87.26 843.57,-92.14"/>
</g>
<!-- course__EOS440 -->
<g id="node11" class="node">
<title>course__EOS440</title>
<g id="a_node11"><a xlink:href="../../../courses/EOS440.html" xlink:title="EOS440: Hydrogeology" target="_top">
<path fill="#d7e9ef" stroke="#1f4f66" stroke-width="2" d="M1039,-111C1039,-111 978,-111 978,-111 972,-111 966,-105 966,-99 966,-99 966,-87 966,-87 966,-81 972,-75 978,-75 978,-75 1039,-75 1039,-75 1045,-75 1051,-81 1051,-87 1051,-87 1051,-99 1051,-99 1051,-105 1045,-111 1039,-111"/>
<text text-anchor="middle" x="1008.5" y="-96" font-family="Avenir Next" font-size="10.00" fill="#17232b">EOS440</text>
<text text-anchor="middle" x="1008.5" y="-85" font-family="Avenir Next" font-size="10.00" fill="#17232b">Hydrogeology</text>
</a>
</g>
</g>
<!-- course__EOS240&#45;&gt;course__EOS440 -->
<g id="edge10" class="edge">
<title>course__EOS240&#45;&gt;course__EOS440</title>
<path fill="none" stroke="#5d6972" stroke-width="1.2" d="M785.57,-161.91C826.63,-149.16 907.03,-124.2 958.95,-108.07"/>
<polygon fill="#5d6972" stroke="#5d6972" stroke-width="1.2" points="959.81,-110.37 965.76,-105.96 958.35,-105.69 959.81,-110.37"/>
</g>
<!-- course__MATH204&#45;&gt;choice_EOS440_0_1 -->
<g id="edge9" class="edge">
<title>course__MATH204&#45;&gt;choice_EOS440_0_1</title>
<path fill="none" stroke="#7a8389" d="M790.07,-108.54C806.61,-105.58 827.05,-101.93 843.96,-98.91"/>
<polygon fill="#7a8389" stroke="#7a8389" points="844.51,-101.3 850.97,-97.65 843.65,-96.47 844.51,-101.3"/>
</g>
<!-- EOS440_notes -->
<g id="node12" class="node">
<title>EOS440_notes</title>
<polygon fill="#fff7ee" stroke="#b7793f" stroke-width="1.1" points="183,-46 0,-46 0,0 189,0 189,-40 183,-46"/>
<polyline fill="none" stroke="#b7793f" stroke-width="1.1" points="183,-46 183,-40 "/>
<polyline fill="none" stroke="#b7793f" stroke-width="1.1" points="189,-40 183,-40 "/>
<text text-anchor="start" x="13" y="-26.4" font-family="Avenir Next" font-size="12.00">Published notes</text>
<text text-anchor="start" x="13" y="-13.4" font-family="Avenir Next" font-size="12.00">or permission of the school</text>
</g>
<!-- EOS440_notes&#45;&gt;course__EOS440 -->
<!-- choice_EOS440_0_1&#45;&gt;course__EOS440 -->
<g id="edge11" class="edge">
<title>choice_EOS440_0_1&#45;&gt;course__EOS440</title>
<path fill="none" stroke="#5d6972" stroke-width="1.2" d="M905,-93C920.41,-93 940.44,-93 958.69,-93"/>
<polygon fill="#5d6972" stroke="#5d6972" stroke-width="1.2" points="958.85,-95.45 965.85,-93 958.85,-90.55 958.85,-95.45"/>
</g>
</g>
</svg>
