<?xml version="1.0" encoding="UTF-8" standalone="no"?>
<!DOCTYPE svg PUBLIC "-//W3C//DTD SVG 1.1//EN"
 "http://www.w3.org/Graphics/SVG/1.1/DTD/svg11.dtd">
<!-- Generated by graphviz version 2.43.0 (0)
 -->
<!-- Title: EOS427 Pages: 1 -->
<svg width="402pt" height="147pt"
 viewBox="0.00 0.00 402.20 147.49" xmlns="http://www.w3.org/2000/svg" xmlns:xlink="http://www.w3.org/1999/xlink">
<g id="graph0" class="graph" transform="scale(1 1) rotate(0) translate(21.6 125.89)">
<title>EOS427</title>
<!-- course__MATH346 -->
<g id="node1" class="node">
<title>course__MATH346</title>
<g id="a_node1"><a xlink:href="../../../courses/MATH346.html" xlink:title="MATH346: Introduction to Partial Differential Equations" target="_top">
<path fill="#dfe3f4" stroke="#1b2730" stroke-width="1.6" d="M51,-48.29C51,-48.29 12,-48.29 12,-48.29 6,-48.29 0,-42.29 0,-36.29 0,-36.29 0,-24.29 0,-24.29 0,-18.29 6,-12.29 12,-12.29 12,-12.29 51,-12.29 51,-12.29 57,-12.29 63,-18.29 63,-24.29 63,-24.29 63,-36.29 63,-36.29 63,-42.29 57,-48.29 51,-48.29"/>
<text text-anchor="middle" x="31.5" y="-27.79" font-family="Avenir Next" font-size="10.00" fill="#17232b">MATH346</text>
</a>
</g>
</g>
<!-- course__PHYS321A -->
<g id="node2" class="node">
<title>course__PHYS321A</title>
<g id="a_node2"><a xlink:href="../../../courses/PHYS321A.html" xlink:title="PHYS321A: Classical Mechanics I" target="_top">
<path fill="#efd8cf" stroke="#1b2730" stroke-width="1.6" d="M179,-104.29C179,-104.29 136,-104.29 136,-104.29 130,-104.29 124,-98.29 124,-92.29 124,-92.29 124,-80.29 124,-80.29 124,-74.29 130,-68.29 136,-68.29 136,-68.29 179,-68.29 179,-68.29 185,-68.29 191,-74.29 191,-80.29 191,-80.29 191,-92.29 191,-92.29 191,-98.29 185,-104.29 179,-104.29"/>
<text text-anchor="middle" x="157.5" y="-83.79" font-family="Avenir Next" font-size="10.00" fill="#17232b">PHYS321A</text>
</a>
</g>
</g>
<!-- course__MATH346&#45;&gt;course__PHYS321A -->
<g id="edge4" class="edge">
<title>course__MATH346&#45;&gt;course__PHYS321A</title>
<path fill="none" stroke="#5d6972" stroke-width="1.2" d="M63.15,-44.14C79.36,-51.46 99.45,-60.53 116.83,-68.38"/>
<polygon fill="#5d6972" stroke="#5d6972" stroke-width="1.2" points="116.21,-70.78 123.6,-71.43 118.22,-66.32 116.21,-70.78"/>
</g>
<!-- course__PHYS326 -->
<g id="node3" class="node">
<title>course__PHYS326</title>
<g id="a_node3"><a xlink:href="../../../courses/PHYS326.html" xlink:title="PHYS326: Electricity and Magnetism" target="_top">
<path fill="#efd8cf" stroke="#1b2730" stroke-width="1.6" d="M175.5,-48.29C175.5,-48.29 139.5,-48.29 139.5,-48.29 133.5,-48.29 127.5,-42.29 127.5,-36.29 127.5,-36.29 127.5,-24.29 127.5,-24.29 127.5,-18.29 133.5,-12.29 139.5,-12.29 139.5,-12.29 175.5,-12.29 175.5,-12.29 181.5,-12.29 187.5,-18.29 187.5,-24.29 187.5,-24.29 187.5,-36.29 187.5,-36.29 187.5,-42.29 181.5,-48.29 175.5,-48.29"/>
<text text-anchor="middle" x="157.5" y="-27.79" font-family="Avenir Next" font-size="10.00" fill="#17232b">PHYS326</text>
</a>
</g>
</g>
<!-- course__MATH346&#45;&gt;course__PHYS326 -->
<g id="edge5" class="edge">
<title>course__MATH346&#45;&gt;course__PHYS326</title>
<path fill="none" stroke="#5d6972" stroke-width="1.2" d="M63.15,-30.29C80.5,-30.29 102.29,-30.29 120.46,-30.29"/>
<polygon fill="#5d6972" stroke="#5d6972" stroke-width="1.2" points="120.48,-32.74 127.48,-30.29 120.48,-27.84 120.48,-32.74"/>
</g>
<!-- course__EOS427 -->
<g id="node4" class="node">
<title>course__EOS427</title>
<g id="a_node4"><a xlink:href="../../../courses/EOS427.html" xlink:title="Equivalent or cross&#45;listed: EOS427: Geophysics | PHYS427: Geophysics" target="_top">
<path fill="#d7e9ef" stroke="#1f4f66" stroke-width="2" d="M347,-48.29C347,-48.29 264,-48.29 264,-48.29 258,-48.29 252,-42.29 252,-36.29 252,-36.29 252,-24.29 252,-24.29 252,-18.29 258,-12.29 264,-12.29 264,-12.29 347,-12.29 347,-12.29 353,-12.29 359,-18.29 359,-24.29 359,-24.29 359,-36.29 359,-36.29 359,-42.29 353,-48.29 347,-48.29"/>
<text text-anchor="middle" x="305.5" y="-33.29" font-family="Avenir Next" font-size="10.00" fill="#17232b">EOS427 / PHYS427</text>
<text text-anchor="middle" x="305.5" y="-22.29" font-family="Avenir Next" font-size="10.00" fill="#17232b">Geophysics</text>
</a>
</g>
</g>
<!-- course__MATH346&#45;&gt;course__EOS427 -->
<g id="edge3" class="edge">
<title>course__MATH346&#45;&gt;course__EOS427</title>
<path fill="none" stroke="#5d6972" stroke-width="1.2" d="M63.31,-18.36C80.81,-12.22 103.3,-5.39 124,-2.29 164.43,3.75 209.91,-3.39 245.1,-11.97"/>
<polygon fill="#5d6972" stroke="#5d6972" stroke-width="1.2" points="244.61,-14.37 252,-13.7 245.81,-9.62 244.61,-14.37"/>
</g>
<!-- course__PHYS321A&#45;&gt;course__EOS427 -->
<g id="edge1" class="edge">
<title>course__PHYS321A&#45;&gt;course__EOS427</title>
<path fill="none" stroke="#5d6972" stroke-width="1.2" d="M191.27,-73.73C208.79,-67 230.81,-58.56 250.77,-50.9"/>
<polygon fill="#5d6972" stroke="#5d6972" stroke-width="1.2" points="251.79,-53.14 257.44,-48.34 250.03,-48.56 251.79,-53.14"/>
</g>
<!-- course__PHYS326&#45;&gt;course__EOS427 -->
<g id="edge2" class="edge">
<title>course__PHYS326&#45;&gt;course__EOS427</title>
<path fill="none" stroke="#5d6972" stroke-width="1.2" d="M187.69,-30.29C204,-30.29 224.93,-30.29 244.56,-30.29"/>
<polygon fill="#5d6972" stroke="#5d6972" stroke-width="1.2" points="244.72,-32.74 251.72,-30.29 244.72,-27.84 244.72,-32.74"/>
</g>
</g>
</svg>
