<?xml version="1.0" encoding="UTF-8" standalone="no"?>
<!DOCTYPE svg PUBLIC "-//W3C//DTD SVG 1.1//EN"
 "http://www.w3.org/Graphics/SVG/1.1/DTD/svg11.dtd">
<!-- Generated by graphviz version 2.43.0 (0)
 -->
<!-- Title: EOS499B Pages: 1 -->
<svg width="484pt" height="89pt"
 viewBox="0.00 0.00 484.20 89.20" xmlns="http://www.w3.org/2000/svg" xmlns:xlink="http://www.w3.org/1999/xlink">
<g id="graph0" class="graph" transform="scale(1 1) rotate(0) translate(21.6 67.6)">
<title>EOS499B</title>
<!-- course__EOS499A -->
<g id="node1" class="node">
<title>course__EOS499A</title>
<g id="a_node1"><a xlink:href="../../../courses/EOS499B.html" xlink:title="Equivalent or cross&#45;listed: EOS499A: Honours Thesis I | EOS499B: Honours Thesis II" target="_top">
<path fill="#d7e9ef" stroke="#1f4f66" stroke-width="2" d="M429,-41C429,-41 339,-41 339,-41 333,-41 327,-35 327,-29 327,-29 327,-17 327,-17 327,-11 333,-5 339,-5 339,-5 429,-5 429,-5 435,-5 441,-11 441,-17 441,-17 441,-29 441,-29 441,-35 435,-41 429,-41"/>
<text text-anchor="middle" x="384" y="-26" font-family="Avenir Next" font-size="10.00" fill="#17232b">EOS499A / EOS499B</text>
<text text-anchor="middle" x="384" y="-15" font-family="Avenir Next" font-size="10.00" fill="#17232b">Honours Thesis II</text>
</a>
</g>
</g>
<!-- EOS499B_notes -->
<g id="node2" class="node">
<title>EOS499B_notes</title>
<polygon fill="#fff7ee" stroke="#b7793f" stroke-width="1.1" points="198,-46 0,-46 0,0 204,0 204,-40 198,-46"/>
<polyline fill="none" stroke="#b7793f" stroke-width="1.1" points="198,-46 198,-40 "/>
<polyline fill="none" stroke="#b7793f" stroke-width="1.1" points="204,-40 198,-40 "/>
<text text-anchor="start" x="13" y="-26.4" font-family="Avenir Next" font-size="12.00">Published notes</text>
<text text-anchor="start" x="13" y="-13.4" font-family="Avenir Next" font-size="12.00">Permission of the department</text>
</g>
<!-- EOS499B_notes&#45;&gt;course__EOS499A -->
</g>
</svg>
