<?xml version="1.0" encoding="UTF-8" standalone="no"?>
<!DOCTYPE svg PUBLIC "-//W3C//DTD SVG 1.1//EN"
 "http://www.w3.org/Graphics/SVG/1.1/DTD/svg11.dtd">
<!-- Generated by graphviz version 2.43.0 (0)
 -->
<!-- Title: ES200 Pages: 1 -->
<svg width="244pt" height="79pt"
 viewBox="0.00 0.00 244.20 79.20" xmlns="http://www.w3.org/2000/svg" xmlns:xlink="http://www.w3.org/1999/xlink">
<g id="graph0" class="graph" transform="scale(1 1) rotate(0) translate(21.6 57.6)">
<title>ES200</title>
<!-- course__ES200 -->
<g id="node1" class="node">
<title>course__ES200</title>
<g id="a_node1"><a xlink:href="../../../courses/ES200.html" xlink:title="ES200: Introduction to Environmental Studies" target="_top">
<path fill="#f2ece3" stroke="#1f4f66" stroke-width="2" d="M189,-36C189,-36 12,-36 12,-36 6,-36 0,-30 0,-24 0,-24 0,-12 0,-12 0,-6 6,0 12,0 12,0 189,0 189,0 195,0 201,-6 201,-12 201,-12 201,-24 201,-24 201,-30 195,-36 189,-36"/>
<text text-anchor="middle" x="100.5" y="-21" font-family="Avenir Next" font-size="10.00" fill="#17232b">ES200</text>
<text text-anchor="middle" x="100.5" y="-10" font-family="Avenir Next" font-size="10.00" fill="#17232b">Introduction to Environmental Studies</text>
</a>
</g>
</g>
</g>
</svg>
