<?xml version="1.0" encoding="UTF-8" standalone="no"?>
<!DOCTYPE svg PUBLIC "-//W3C//DTD SVG 1.1//EN"
 "http://www.w3.org/Graphics/SVG/1.1/DTD/svg11.dtd">
<!-- Generated by graphviz version 2.43.0 (0)
 -->
<!-- Title: ES301 Pages: 1 -->
<svg width="140pt" height="79pt"
 viewBox="0.00 0.00 140.20 79.20" xmlns="http://www.w3.org/2000/svg" xmlns:xlink="http://www.w3.org/1999/xlink">
<g id="graph0" class="graph" transform="scale(1 1) rotate(0) translate(21.6 57.6)">
<title>ES301</title>
<!-- course__ES301 -->
<g id="node1" class="node">
<title>course__ES301</title>
<g id="a_node1"><a xlink:href="../../../courses/ES301.html" xlink:title="ES301: Political Ecology" target="_top">
<path fill="#f2ece3" stroke="#1f4f66" stroke-width="2" d="M85,-36C85,-36 12,-36 12,-36 6,-36 0,-30 0,-24 0,-24 0,-12 0,-12 0,-6 6,0 12,0 12,0 85,0 85,0 91,0 97,-6 97,-12 97,-12 97,-24 97,-24 97,-30 91,-36 85,-36"/>
<text text-anchor="middle" x="48.5" y="-21" font-family="Avenir Next" font-size="10.00" fill="#17232b">ES301</text>
<text text-anchor="middle" x="48.5" y="-10" font-family="Avenir Next" font-size="10.00" fill="#17232b">Political Ecology</text>
</a>
</g>
</g>
</g>
</svg>
