<?xml version="1.0" encoding="UTF-8" standalone="no"?>
<!DOCTYPE svg PUBLIC "-//W3C//DTD SVG 1.1//EN"
 "http://www.w3.org/Graphics/SVG/1.1/DTD/svg11.dtd">
<!-- Generated by graphviz version 2.43.0 (0)
 -->
<!-- Title: ES301 Pages: 1 -->
<svg width="379pt" height="135pt"
 viewBox="0.00 0.00 379.20 135.20" xmlns="http://www.w3.org/2000/svg" xmlns:xlink="http://www.w3.org/1999/xlink">
<g id="graph0" class="graph" transform="scale(1 1) rotate(0) translate(21.6 113.6)">
<title>ES301</title>
<!-- course__ES200 -->
<g id="node1" class="node">
<title>course__ES200</title>
<g id="a_node1"><a xlink:href="../../../courses/ES200.html" xlink:title="ES200: Introduction to Environmental Studies" target="_top">
<path fill="#f2ece3" stroke="#1b2730" stroke-width="1.6" d="M42,-64C42,-64 12,-64 12,-64 6,-64 0,-58 0,-52 0,-52 0,-40 0,-40 0,-34 6,-28 12,-28 12,-28 42,-28 42,-28 48,-28 54,-34 54,-40 54,-40 54,-52 54,-52 54,-58 48,-64 42,-64"/>
<text text-anchor="middle" x="27" y="-43.5" font-family="Avenir Next" font-size="10.00" fill="#17232b">ES200</text>
</a>
</g>
</g>
<!-- course__ES301 -->
<g id="node2" class="node">
<title>course__ES301</title>
<g id="a_node2"><a xlink:href="../../../courses/ES301.html" xlink:title="ES301: Political Ecology" target="_top">
<path fill="#f2ece3" stroke="#1f4f66" stroke-width="2" d="M200,-64C200,-64 127,-64 127,-64 121,-64 115,-58 115,-52 115,-52 115,-40 115,-40 115,-34 121,-28 127,-28 127,-28 200,-28 200,-28 206,-28 212,-34 212,-40 212,-40 212,-52 212,-52 212,-58 206,-64 200,-64"/>
<text text-anchor="middle" x="163.5" y="-49" font-family="Avenir Next" font-size="10.00" fill="#17232b">ES301</text>
<text text-anchor="middle" x="163.5" y="-38" font-family="Avenir Next" font-size="10.00" fill="#17232b">Political Ecology</text>
</a>
</g>
</g>
<!-- course__ES200&#45;&gt;course__ES301 -->
<g id="edge1" class="edge">
<title>course__ES200&#45;&gt;course__ES301</title>
<path fill="none" stroke="#5d6972" stroke-width="1.2" d="M54.25,-46C69.44,-46 89.13,-46 107.55,-46"/>
<polygon fill="#5d6972" stroke="#5d6972" stroke-width="1.2" points="107.81,-48.45 114.81,-46 107.81,-43.55 107.81,-48.45"/>
</g>
<!-- course__ES405 -->
<g id="node3" class="node">
<title>course__ES405</title>
<g id="a_node3"><a xlink:href="../../../courses/ES405.html" xlink:title="ES405: Climate, Energy and Politics" target="_top">
<path fill="#f2ece3" stroke="#1b2730" stroke-width="1.6" d="M319.5,-92C319.5,-92 289.5,-92 289.5,-92 283.5,-92 277.5,-86 277.5,-80 277.5,-80 277.5,-68 277.5,-68 277.5,-62 283.5,-56 289.5,-56 289.5,-56 319.5,-56 319.5,-56 325.5,-56 331.5,-62 331.5,-68 331.5,-68 331.5,-80 331.5,-80 331.5,-86 325.5,-92 319.5,-92"/>
<text text-anchor="middle" x="304.5" y="-71.5" font-family="Avenir Next" font-size="10.00" fill="#17232b">ES405</text>
</a>
</g>
</g>
<!-- course__ES301&#45;&gt;course__ES405 -->
<g id="edge2" class="edge">
<title>course__ES301&#45;&gt;course__ES405</title>
<path fill="none" stroke="#5d6972" stroke-width="1.2" d="M212.34,-55.64C231.44,-59.48 252.97,-63.82 270.31,-67.31"/>
<polygon fill="#5d6972" stroke="#5d6972" stroke-width="1.2" points="270.11,-69.77 277.46,-68.75 271.08,-64.97 270.11,-69.77"/>
</g>
<!-- course__GEOG450 -->
<g id="node4" class="node">
<title>course__GEOG450</title>
<g id="a_node4"><a xlink:href="../../../courses/GEOG450.html" xlink:title="GEOG450: Environment and Sustainability in Practice" target="_top">
<path fill="#e7e2d8" stroke="#1b2730" stroke-width="1.6" d="M324,-36C324,-36 285,-36 285,-36 279,-36 273,-30 273,-24 273,-24 273,-12 273,-12 273,-6 279,0 285,0 285,0 324,0 324,0 330,0 336,-6 336,-12 336,-12 336,-24 336,-24 336,-30 330,-36 324,-36"/>
<text text-anchor="middle" x="304.5" y="-15.5" font-family="Avenir Next" font-size="10.00" fill="#17232b">GEOG450</text>
</a>
</g>
</g>
<!-- course__ES301&#45;&gt;course__GEOG450 -->
<g id="edge3" class="edge">
<title>course__ES301&#45;&gt;course__GEOG450</title>
<path fill="none" stroke="#5d6972" stroke-width="1.2" d="M212.34,-36.36C229.93,-32.82 249.58,-28.86 266.11,-25.53"/>
<polygon fill="#5d6972" stroke="#5d6972" stroke-width="1.2" points="266.62,-27.93 273,-24.14 265.65,-23.13 266.62,-27.93"/>
</g>
</g>
</svg>
