<?xml version="1.0" encoding="UTF-8" standalone="no"?>
<!DOCTYPE svg PUBLIC "-//W3C//DTD SVG 1.1//EN"
 "http://www.w3.org/Graphics/SVG/1.1/DTD/svg11.dtd">
<!-- Generated by graphviz version 2.43.0 (0)
 -->
<!-- Title: ES405 Pages: 1 -->
<svg width="427pt" height="79pt"
 viewBox="0.00 0.00 427.20 79.20" xmlns="http://www.w3.org/2000/svg" xmlns:xlink="http://www.w3.org/1999/xlink">
<g id="graph0" class="graph" transform="scale(1 1) rotate(0) translate(21.6 57.6)">
<title>ES405</title>
<!-- course__ES200 -->
<g id="node1" class="node">
<title>course__ES200</title>
<g id="a_node1"><a xlink:href="../../../courses/ES200.html" xlink:title="ES200: Introduction to Environmental Studies" target="_top">
<path fill="#f2ece3" stroke="#1b2730" stroke-width="1.6" d="M42,-36C42,-36 12,-36 12,-36 6,-36 0,-30 0,-24 0,-24 0,-12 0,-12 0,-6 6,0 12,0 12,0 42,0 42,0 48,0 54,-6 54,-12 54,-12 54,-24 54,-24 54,-30 48,-36 42,-36"/>
<text text-anchor="middle" x="27" y="-15.5" font-family="Avenir Next" font-size="10.00" fill="#17232b">ES200</text>
</a>
</g>
</g>
<!-- course__ES301 -->
<g id="node2" class="node">
<title>course__ES301</title>
<g id="a_node2"><a xlink:href="../../../courses/ES301.html" xlink:title="ES301: Political Ecology" target="_top">
<path fill="#f2ece3" stroke="#1b2730" stroke-width="1.6" d="M157,-36C157,-36 127,-36 127,-36 121,-36 115,-30 115,-24 115,-24 115,-12 115,-12 115,-6 121,0 127,0 127,0 157,0 157,0 163,0 169,-6 169,-12 169,-12 169,-24 169,-24 169,-30 163,-36 157,-36"/>
<text text-anchor="middle" x="142" y="-15.5" font-family="Avenir Next" font-size="10.00" fill="#17232b">ES301</text>
</a>
</g>
</g>
<!-- course__ES200&#45;&gt;course__ES301 -->
<g id="edge1" class="edge">
<title>course__ES200&#45;&gt;course__ES301</title>
<path fill="none" stroke="#5d6972" stroke-width="1.2" d="M54.21,-18C70.18,-18 90.74,-18 107.84,-18"/>
<polygon fill="#5d6972" stroke="#5d6972" stroke-width="1.2" points="107.93,-20.45 114.93,-18 107.93,-15.55 107.93,-20.45"/>
</g>
<!-- course__ES405 -->
<g id="node3" class="node">
<title>course__ES405</title>
<g id="a_node3"><a xlink:href="../../../courses/ES405.html" xlink:title="ES405: Climate, Energy and Politics" target="_top">
<path fill="#f2ece3" stroke="#1f4f66" stroke-width="2" d="M372,-36C372,-36 242,-36 242,-36 236,-36 230,-30 230,-24 230,-24 230,-12 230,-12 230,-6 236,0 242,0 242,0 372,0 372,0 378,0 384,-6 384,-12 384,-12 384,-24 384,-24 384,-30 378,-36 372,-36"/>
<text text-anchor="middle" x="307" y="-21" font-family="Avenir Next" font-size="10.00" fill="#17232b">ES405</text>
<text text-anchor="middle" x="307" y="-10" font-family="Avenir Next" font-size="10.00" fill="#17232b">Climate, Energy and Politics</text>
</a>
</g>
</g>
<!-- course__ES301&#45;&gt;course__ES405 -->
<g id="edge2" class="edge">
<title>course__ES301&#45;&gt;course__ES405</title>
<path fill="none" stroke="#5d6972" stroke-width="1.2" d="M169.19,-18C183.94,-18 203.26,-18 222.72,-18"/>
<polygon fill="#5d6972" stroke="#5d6972" stroke-width="1.2" points="222.88,-20.45 229.88,-18 222.88,-15.55 222.88,-20.45"/>
</g>
</g>
</svg>
