<?xml version="1.0" encoding="UTF-8" standalone="no"?>
<!DOCTYPE svg PUBLIC "-//W3C//DTD SVG 1.1//EN"
 "http://www.w3.org/Graphics/SVG/1.1/DTD/svg11.dtd">
<!-- Generated by graphviz version 2.43.0 (0)
 -->
<!-- Title: GEOG230 Pages: 1 -->
<svg width="992pt" height="252pt"
 viewBox="0.00 0.00 992.20 251.70" xmlns="http://www.w3.org/2000/svg" xmlns:xlink="http://www.w3.org/1999/xlink">
<g id="graph0" class="graph" transform="scale(1 1) rotate(0) translate(21.6 230.1)">
<title>GEOG230</title>
<!-- course__EOS110 -->
<g id="node1" class="node">
<title>course__EOS110</title>
<g id="a_node1"><a xlink:href="../../../courses/EOS110.html" xlink:title="Equivalent or cross&#45;listed: EOS110: Oceans and Atmosphere | EOS350: Understanding the Oceans" target="_top">
<path fill="#d7e9ef" stroke="#1b2730" stroke-width="1.6" d="M408.5,-208.5C408.5,-208.5 331.5,-208.5 331.5,-208.5 325.5,-208.5 319.5,-202.5 319.5,-196.5 319.5,-196.5 319.5,-184.5 319.5,-184.5 319.5,-178.5 325.5,-172.5 331.5,-172.5 331.5,-172.5 408.5,-172.5 408.5,-172.5 414.5,-172.5 420.5,-178.5 420.5,-184.5 420.5,-184.5 420.5,-196.5 420.5,-196.5 420.5,-202.5 414.5,-208.5 408.5,-208.5"/>
<text text-anchor="middle" x="370" y="-188" font-family="Avenir Next" font-size="10.00" fill="#17232b">EOS110 / EOS350</text>
</a>
</g>
</g>
<!-- choice_EOS230_0_1 -->
<g id="node8" class="node">
<title>choice_EOS230_0_1</title>
<path fill="#fff7ee" stroke="#b7793f" stroke-width="1.1" d="M528,-124.5C528,-124.5 498,-124.5 498,-124.5 492,-124.5 486,-118.5 486,-112.5 486,-112.5 486,-100.5 486,-100.5 486,-94.5 492,-88.5 498,-88.5 498,-88.5 528,-88.5 528,-88.5 534,-88.5 540,-94.5 540,-100.5 540,-100.5 540,-112.5 540,-112.5 540,-118.5 534,-124.5 528,-124.5"/>
<text text-anchor="middle" x="513" y="-104.3" font-family="Avenir Next" font-size="9.00">1 of</text>
</g>
<!-- course__EOS110&#45;&gt;choice_EOS230_0_1 -->
<g id="edge2" class="edge">
<title>course__EOS110&#45;&gt;choice_EOS230_0_1</title>
<path fill="none" stroke="#7a8389" d="M406.98,-172.44C413.05,-169.22 419.24,-165.84 425,-162.5 443.39,-151.85 463.36,-139.08 479.52,-128.43"/>
<polygon fill="#7a8389" stroke="#7a8389" points="481.26,-130.22 485.75,-124.31 478.56,-126.13 481.26,-130.22"/>
</g>
<!-- course__EOS130 -->
<g id="node2" class="node">
<title>course__EOS130</title>
<g id="a_node2"><a xlink:href="../../../courses/EOS130.html" xlink:title="Equivalent or cross&#45;listed: EOS130: Climate Change | GEOG130: Climate Change" target="_top">
<path fill="#d7e9ef" stroke="#1b2730" stroke-width="1.6" d="M413,-152.5C413,-152.5 327,-152.5 327,-152.5 321,-152.5 315,-146.5 315,-140.5 315,-140.5 315,-128.5 315,-128.5 315,-122.5 321,-116.5 327,-116.5 327,-116.5 413,-116.5 413,-116.5 419,-116.5 425,-122.5 425,-128.5 425,-128.5 425,-140.5 425,-140.5 425,-146.5 419,-152.5 413,-152.5"/>
<text text-anchor="middle" x="370" y="-132" font-family="Avenir Next" font-size="10.00" fill="#17232b">EOS130 / GEOG130</text>
</a>
</g>
</g>
<!-- course__EOS130&#45;&gt;choice_EOS230_0_1 -->
<g id="edge3" class="edge">
<title>course__EOS130&#45;&gt;choice_EOS230_0_1</title>
<path fill="none" stroke="#7a8389" d="M425.11,-123.75C443.16,-120.17 462.73,-116.28 478.71,-113.11"/>
<polygon fill="#7a8389" stroke="#7a8389" points="479.4,-115.47 485.79,-111.71 478.45,-110.67 479.4,-115.47"/>
</g>
<!-- course__GEOG103 -->
<g id="node3" class="node">
<title>course__GEOG103</title>
<g id="a_node3"><a xlink:href="../../../courses/GEOG103.html" xlink:title="GEOG103: Our Natural Earth" target="_top">
<path fill="#e7e2d8" stroke="#1b2730" stroke-width="1.6" d="M389.5,-96.5C389.5,-96.5 350.5,-96.5 350.5,-96.5 344.5,-96.5 338.5,-90.5 338.5,-84.5 338.5,-84.5 338.5,-72.5 338.5,-72.5 338.5,-66.5 344.5,-60.5 350.5,-60.5 350.5,-60.5 389.5,-60.5 389.5,-60.5 395.5,-60.5 401.5,-66.5 401.5,-72.5 401.5,-72.5 401.5,-84.5 401.5,-84.5 401.5,-90.5 395.5,-96.5 389.5,-96.5"/>
<text text-anchor="middle" x="370" y="-76" font-family="Avenir Next" font-size="10.00" fill="#17232b">GEOG103</text>
</a>
</g>
</g>
<!-- course__GEOG103&#45;&gt;choice_EOS230_0_1 -->
<g id="edge4" class="edge">
<title>course__GEOG103&#45;&gt;choice_EOS230_0_1</title>
<path fill="none" stroke="#7a8389" d="M401.59,-84.58C424.35,-89.09 455.37,-95.25 478.74,-99.9"/>
<polygon fill="#7a8389" stroke="#7a8389" points="478.39,-102.32 485.73,-101.28 479.34,-97.52 478.39,-102.32"/>
</g>
<!-- course__EOS230 -->
<g id="node4" class="node">
<title>course__EOS230</title>
<g id="a_node4"><a xlink:href="../../../courses/GEOG230.html" xlink:title="Equivalent or cross&#45;listed: EOS230: Introduction to Environmental Data Analysis | GEOG230: Introduction to Environmental Data Analysis" target="_top">
<path fill="#d7e9ef" stroke="#1f4f66" stroke-width="2" d="M822,-71.5C822,-71.5 613,-71.5 613,-71.5 607,-71.5 601,-65.5 601,-59.5 601,-59.5 601,-47.5 601,-47.5 601,-41.5 607,-35.5 613,-35.5 613,-35.5 822,-35.5 822,-35.5 828,-35.5 834,-41.5 834,-47.5 834,-47.5 834,-59.5 834,-59.5 834,-65.5 828,-71.5 822,-71.5"/>
<text text-anchor="middle" x="717.5" y="-56.5" font-family="Avenir Next" font-size="10.00" fill="#17232b">EOS230 / GEOG230</text>
<text text-anchor="middle" x="717.5" y="-45.5" font-family="Avenir Next" font-size="10.00" fill="#17232b">Introduction to Environmental Data Analysis</text>
</a>
</g>
</g>
<!-- course__EOS321 -->
<g id="node5" class="node">
<title>course__EOS321</title>
<g id="a_node5"><a xlink:href="../../../courses/EOS321.html" xlink:title="EOS321: Earth History" target="_top">
<path fill="#d7e9ef" stroke="#1b2730" stroke-width="1.6" d="M937,-99.5C937,-99.5 907,-99.5 907,-99.5 901,-99.5 895,-93.5 895,-87.5 895,-87.5 895,-75.5 895,-75.5 895,-69.5 901,-63.5 907,-63.5 907,-63.5 937,-63.5 937,-63.5 943,-63.5 949,-69.5 949,-75.5 949,-75.5 949,-87.5 949,-87.5 949,-93.5 943,-99.5 937,-99.5"/>
<text text-anchor="middle" x="922" y="-79" font-family="Avenir Next" font-size="10.00" fill="#17232b">EOS321</text>
</a>
</g>
</g>
<!-- course__EOS230&#45;&gt;course__EOS321 -->
<g id="edge6" class="edge">
<title>course__EOS230&#45;&gt;course__EOS321</title>
<path fill="none" stroke="#5d6972" stroke-width="1.2" d="M834.24,-69.5C853.73,-72.2 872.49,-74.79 887.55,-76.87"/>
<polygon fill="#5d6972" stroke="#5d6972" stroke-width="1.2" points="887.36,-79.32 894.63,-77.85 888.03,-74.47 887.36,-79.32"/>
</g>
<!-- course__EOS325 -->
<g id="node6" class="node">
<title>course__EOS325</title>
<g id="a_node6"><a xlink:href="../../../courses/EOS325.html" xlink:title="EOS325: Earth System Modelling" target="_top">
<path fill="#d7e9ef" stroke="#1b2730" stroke-width="1.6" d="M937,-43.5C937,-43.5 907,-43.5 907,-43.5 901,-43.5 895,-37.5 895,-31.5 895,-31.5 895,-19.5 895,-19.5 895,-13.5 901,-7.5 907,-7.5 907,-7.5 937,-7.5 937,-7.5 943,-7.5 949,-13.5 949,-19.5 949,-19.5 949,-31.5 949,-31.5 949,-37.5 943,-43.5 937,-43.5"/>
<text text-anchor="middle" x="922" y="-23" font-family="Avenir Next" font-size="10.00" fill="#17232b">EOS325</text>
</a>
</g>
</g>
<!-- course__EOS230&#45;&gt;course__EOS325 -->
<g id="edge7" class="edge">
<title>course__EOS230&#45;&gt;course__EOS325</title>
<path fill="none" stroke="#5d6972" stroke-width="1.2" d="M834.24,-37.5C853.73,-34.8 872.49,-32.21 887.55,-30.13"/>
<polygon fill="#5d6972" stroke="#5d6972" stroke-width="1.2" points="888.03,-32.53 894.63,-29.15 887.36,-27.68 888.03,-32.53"/>
</g>
<!-- GEOG230_notes -->
<g id="node7" class="node">
<title>GEOG230_notes</title>
<polygon fill="#fff7ee" stroke="#b7793f" stroke-width="1.1" points="248,-59 0,-59 0,0 254,0 254,-53 248,-59"/>
<polyline fill="none" stroke="#b7793f" stroke-width="1.1" points="248,-59 248,-53 "/>
<polyline fill="none" stroke="#b7793f" stroke-width="1.1" points="254,-53 248,-53 "/>
<text text-anchor="start" x="13" y="-39.4" font-family="Avenir Next" font-size="12.00">Published notes</text>
<text text-anchor="start" x="13" y="-26.4" font-family="Avenir Next" font-size="12.00">Complete 1.5 units of: 100 level MATH</text>
<text text-anchor="start" x="13" y="-13.4" font-family="Avenir Next" font-size="12.00">or permission of the department</text>
</g>
<!-- GEOG230_notes&#45;&gt;course__EOS230 -->
<!-- choice_EOS230_0_1&#45;&gt;course__EOS230 -->
<g id="edge5" class="edge">
<title>choice_EOS230_0_1&#45;&gt;course__EOS230</title>
<path fill="none" stroke="#5d6972" stroke-width="1.2" d="M540.06,-99.68C565.4,-93.05 605.12,-82.65 640.47,-73.4"/>
<polygon fill="#5d6972" stroke="#5d6972" stroke-width="1.2" points="641.32,-75.71 647.48,-71.57 640.08,-70.97 641.32,-75.71"/>
</g>
</g>
</svg>
