<?xml version="1.0" encoding="UTF-8" standalone="no"?>
<!DOCTYPE svg PUBLIC "-//W3C//DTD SVG 1.1//EN"
 "http://www.w3.org/Graphics/SVG/1.1/DTD/svg11.dtd">
<!-- Generated by graphviz version 2.43.0 (0)
 -->
<!-- Title: GEOG420 Pages: 1 -->
<svg width="468pt" height="191pt"
 viewBox="0.00 0.00 468.20 191.20" xmlns="http://www.w3.org/2000/svg" xmlns:xlink="http://www.w3.org/1999/xlink">
<g id="graph0" class="graph" transform="scale(1 1) rotate(0) translate(21.6 169.6)">
<title>GEOG420</title>
<!-- course__GEOG319 -->
<g id="node1" class="node">
<title>course__GEOG319</title>
<g id="a_node1"><a xlink:href="../../../courses/GEOG319.html" xlink:title="GEOG319: Remote Sensing of the Environment using Passive Sensors" target="_top">
<path fill="#e7e2d8" stroke="#1b2730" stroke-width="1.6" d="M51,-148C51,-148 12,-148 12,-148 6,-148 0,-142 0,-136 0,-136 0,-124 0,-124 0,-118 6,-112 12,-112 12,-112 51,-112 51,-112 57,-112 63,-118 63,-124 63,-124 63,-136 63,-136 63,-142 57,-148 51,-148"/>
<text text-anchor="middle" x="31.5" y="-127.5" font-family="Avenir Next" font-size="10.00" fill="#17232b">GEOG319</text>
</a>
</g>
</g>
<!-- course__GEOG420 -->
<g id="node4" class="node">
<title>course__GEOG420</title>
<g id="a_node4"><a xlink:href="../../../courses/GEOG420.html" xlink:title="GEOG420: Field Studies in Coastal Geomatics" target="_top">
<path fill="#e7e2d8" stroke="#1f4f66" stroke-width="2" d="M413,-120C413,-120 251,-120 251,-120 245,-120 239,-114 239,-108 239,-108 239,-96 239,-96 239,-90 245,-84 251,-84 251,-84 413,-84 413,-84 419,-84 425,-90 425,-96 425,-96 425,-108 425,-108 425,-114 419,-120 413,-120"/>
<text text-anchor="middle" x="332" y="-105" font-family="Avenir Next" font-size="10.00" fill="#17232b">GEOG420</text>
<text text-anchor="middle" x="332" y="-94" font-family="Avenir Next" font-size="10.00" fill="#17232b">Field Studies in Coastal Geomatics</text>
</a>
</g>
</g>
<!-- course__GEOG319&#45;&gt;course__GEOG420 -->
<g id="edge3" class="edge">
<title>course__GEOG319&#45;&gt;course__GEOG420</title>
<path fill="none" stroke="#5d6972" stroke-width="1.2" d="M63.04,-127.14C102.45,-123.44 172.93,-116.83 231.72,-111.31"/>
<polygon fill="#5d6972" stroke="#5d6972" stroke-width="1.2" points="232.09,-113.74 238.83,-110.65 231.63,-108.86 232.09,-113.74"/>
</g>
<!-- course__GEOG328 -->
<g id="node2" class="node">
<title>course__GEOG328</title>
<g id="a_node2"><a xlink:href="../../../courses/GEOG328.html" xlink:title="GEOG328: GIS Analysis" target="_top">
<path fill="#e7e2d8" stroke="#1b2730" stroke-width="1.6" d="M51,-92C51,-92 12,-92 12,-92 6,-92 0,-86 0,-80 0,-80 0,-68 0,-68 0,-62 6,-56 12,-56 12,-56 51,-56 51,-56 57,-56 63,-62 63,-68 63,-68 63,-80 63,-80 63,-86 57,-92 51,-92"/>
<text text-anchor="middle" x="31.5" y="-71.5" font-family="Avenir Next" font-size="10.00" fill="#17232b">GEOG328</text>
</a>
</g>
</g>
<!-- choice_GEOG420_0_1 -->
<g id="node5" class="node">
<title>choice_GEOG420_0_1</title>
<path fill="#fff7ee" stroke="#b7793f" stroke-width="1.1" d="M166,-92C166,-92 136,-92 136,-92 130,-92 124,-86 124,-80 124,-80 124,-68 124,-68 124,-62 130,-56 136,-56 136,-56 166,-56 166,-56 172,-56 178,-62 178,-68 178,-68 178,-80 178,-80 178,-86 172,-92 166,-92"/>
<text text-anchor="middle" x="151" y="-71.8" font-family="Avenir Next" font-size="9.00">1 of</text>
</g>
<!-- course__GEOG328&#45;&gt;choice_GEOG420_0_1 -->
<g id="edge1" class="edge">
<title>course__GEOG328&#45;&gt;choice_GEOG420_0_1</title>
<path fill="none" stroke="#7a8389" d="M63.07,-74C79.61,-74 100.05,-74 116.96,-74"/>
<polygon fill="#7a8389" stroke="#7a8389" points="116.97,-76.45 123.97,-74 116.97,-71.55 116.97,-76.45"/>
</g>
<!-- course__GEOG329 -->
<g id="node3" class="node">
<title>course__GEOG329</title>
<g id="a_node3"><a xlink:href="../../../courses/GEOG329.html" xlink:title="GEOG329: GIS Applications and Tools" target="_top">
<path fill="#e7e2d8" stroke="#1b2730" stroke-width="1.6" d="M51,-36C51,-36 12,-36 12,-36 6,-36 0,-30 0,-24 0,-24 0,-12 0,-12 0,-6 6,0 12,0 12,0 51,0 51,0 57,0 63,-6 63,-12 63,-12 63,-24 63,-24 63,-30 57,-36 51,-36"/>
<text text-anchor="middle" x="31.5" y="-15.5" font-family="Avenir Next" font-size="10.00" fill="#17232b">GEOG329</text>
</a>
</g>
</g>
<!-- course__GEOG329&#45;&gt;choice_GEOG420_0_1 -->
<g id="edge2" class="edge">
<title>course__GEOG329&#45;&gt;choice_GEOG420_0_1</title>
<path fill="none" stroke="#7a8389" d="M63.07,-32.57C79.75,-40.52 100.42,-50.37 117.41,-58.47"/>
<polygon fill="#7a8389" stroke="#7a8389" points="116.59,-60.79 123.97,-61.59 118.7,-56.37 116.59,-60.79"/>
</g>
<!-- choice_GEOG420_0_1&#45;&gt;course__GEOG420 -->
<g id="edge4" class="edge">
<title>choice_GEOG420_0_1&#45;&gt;course__GEOG420</title>
<path fill="none" stroke="#5d6972" stroke-width="1.2" d="M178.03,-78.07C192.6,-80.35 211.8,-83.35 231.65,-86.46"/>
<polygon fill="#5d6972" stroke="#5d6972" stroke-width="1.2" points="231.4,-88.9 238.69,-87.56 232.15,-84.06 231.4,-88.9"/>
</g>
</g>
</svg>
