<?xml version="1.0" encoding="UTF-8" standalone="no"?>
<!DOCTYPE svg PUBLIC "-//W3C//DTD SVG 1.1//EN"
 "http://www.w3.org/Graphics/SVG/1.1/DTD/svg11.dtd">
<!-- Generated by graphviz version 2.43.0 (0)
 -->
<!-- Title: GEOG226 Pages: 1 -->
<svg width="595pt" height="303pt"
 viewBox="0.00 0.00 595.20 303.20" xmlns="http://www.w3.org/2000/svg" xmlns:xlink="http://www.w3.org/1999/xlink">
<g id="graph0" class="graph" transform="scale(1 1) rotate(0) translate(21.6 281.6)">
<title>GEOG226</title>
<!-- course__GEOG226 -->
<g id="node1" class="node">
<title>course__GEOG226</title>
<g id="a_node1"><a xlink:href="../../../courses/GEOG226.html" xlink:title="GEOG226: Quantitative Methods in Geography" target="_top">
<path fill="#e7e2d8" stroke="#1f4f66" stroke-width="2" d="M179,-148C179,-148 12,-148 12,-148 6,-148 0,-142 0,-136 0,-136 0,-124 0,-124 0,-118 6,-112 12,-112 12,-112 179,-112 179,-112 185,-112 191,-118 191,-124 191,-124 191,-136 191,-136 191,-142 185,-148 179,-148"/>
<text text-anchor="middle" x="95.5" y="-133" font-family="Avenir Next" font-size="10.00" fill="#17232b">GEOG226</text>
<text text-anchor="middle" x="95.5" y="-122" font-family="Avenir Next" font-size="10.00" fill="#17232b">Quantitative Methods in Geography</text>
</a>
</g>
</g>
<!-- course__GEOG319 -->
<g id="node2" class="node">
<title>course__GEOG319</title>
<g id="a_node2"><a xlink:href="../../../courses/GEOG319.html" xlink:title="GEOG319: Remote Sensing of the Environment using Passive Sensors" target="_top">
<path fill="#e7e2d8" stroke="#1b2730" stroke-width="1.6" d="M303,-204C303,-204 264,-204 264,-204 258,-204 252,-198 252,-192 252,-192 252,-180 252,-180 252,-174 258,-168 264,-168 264,-168 303,-168 303,-168 309,-168 315,-174 315,-180 315,-180 315,-192 315,-192 315,-198 309,-204 303,-204"/>
<text text-anchor="middle" x="283.5" y="-183.5" font-family="Avenir Next" font-size="10.00" fill="#17232b">GEOG319</text>
</a>
</g>
</g>
<!-- course__GEOG226&#45;&gt;course__GEOG319 -->
<g id="edge1" class="edge">
<title>course__GEOG226&#45;&gt;course__GEOG319</title>
<path fill="none" stroke="#5d6972" stroke-width="1.2" d="M156.38,-148.03C185.5,-156.79 219.6,-167.06 245,-174.71"/>
<polygon fill="#5d6972" stroke="#5d6972" stroke-width="1.2" points="244.51,-177.12 251.92,-176.79 245.93,-172.43 244.51,-177.12"/>
</g>
<!-- course__GEOG322 -->
<g id="node3" class="node">
<title>course__GEOG322</title>
<g id="a_node3"><a xlink:href="../../../courses/GEOG322.html" xlink:title="GEOG322: Remote Sensing of the Environment using Active Sensors" target="_top">
<path fill="#e7e2d8" stroke="#1b2730" stroke-width="1.6" d="M303,-260C303,-260 264,-260 264,-260 258,-260 252,-254 252,-248 252,-248 252,-236 252,-236 252,-230 258,-224 264,-224 264,-224 303,-224 303,-224 309,-224 315,-230 315,-236 315,-236 315,-248 315,-248 315,-254 309,-260 303,-260"/>
<text text-anchor="middle" x="283.5" y="-239.5" font-family="Avenir Next" font-size="10.00" fill="#17232b">GEOG322</text>
</a>
</g>
</g>
<!-- course__GEOG226&#45;&gt;course__GEOG322 -->
<g id="edge2" class="edge">
<title>course__GEOG226&#45;&gt;course__GEOG322</title>
<path fill="none" stroke="#5d6972" stroke-width="1.2" d="M126.8,-148.24C159.46,-167.91 211.42,-199.2 246.23,-220.16"/>
<polygon fill="#5d6972" stroke="#5d6972" stroke-width="1.2" points="245.26,-222.44 252.52,-223.95 247.79,-218.24 245.26,-222.44"/>
</g>
<!-- course__GEOG328 -->
<g id="node4" class="node">
<title>course__GEOG328</title>
<g id="a_node4"><a xlink:href="../../../courses/GEOG328.html" xlink:title="GEOG328: GIS Analysis" target="_top">
<path fill="#e7e2d8" stroke="#1b2730" stroke-width="1.6" d="M303,-92C303,-92 264,-92 264,-92 258,-92 252,-86 252,-80 252,-80 252,-68 252,-68 252,-62 258,-56 264,-56 264,-56 303,-56 303,-56 309,-56 315,-62 315,-68 315,-68 315,-80 315,-80 315,-86 309,-92 303,-92"/>
<text text-anchor="middle" x="283.5" y="-71.5" font-family="Avenir Next" font-size="10.00" fill="#17232b">GEOG328</text>
</a>
</g>
</g>
<!-- course__GEOG226&#45;&gt;course__GEOG328 -->
<g id="edge3" class="edge">
<title>course__GEOG226&#45;&gt;course__GEOG328</title>
<path fill="none" stroke="#5d6972" stroke-width="1.2" d="M156.38,-111.97C185.5,-103.21 219.6,-92.94 245,-85.29"/>
<polygon fill="#5d6972" stroke="#5d6972" stroke-width="1.2" points="245.93,-87.57 251.92,-83.21 244.51,-82.88 245.93,-87.57"/>
</g>
<!-- course__GEOG329 -->
<g id="node5" class="node">
<title>course__GEOG329</title>
<g id="a_node5"><a xlink:href="../../../courses/GEOG329.html" xlink:title="GEOG329: GIS Applications and Tools" target="_top">
<path fill="#e7e2d8" stroke="#1b2730" stroke-width="1.6" d="M303,-148C303,-148 264,-148 264,-148 258,-148 252,-142 252,-136 252,-136 252,-124 252,-124 252,-118 258,-112 264,-112 264,-112 303,-112 303,-112 309,-112 315,-118 315,-124 315,-124 315,-136 315,-136 315,-142 309,-148 303,-148"/>
<text text-anchor="middle" x="283.5" y="-127.5" font-family="Avenir Next" font-size="10.00" fill="#17232b">GEOG329</text>
</a>
</g>
</g>
<!-- course__GEOG226&#45;&gt;course__GEOG329 -->
<g id="edge4" class="edge">
<title>course__GEOG226&#45;&gt;course__GEOG329</title>
<path fill="none" stroke="#5d6972" stroke-width="1.2" d="M191.13,-130C209.95,-130 228.68,-130 244.24,-130"/>
<polygon fill="#5d6972" stroke="#5d6972" stroke-width="1.2" points="244.61,-132.45 251.61,-130 244.61,-127.55 244.61,-132.45"/>
</g>
<!-- course__STAT359 -->
<g id="node6" class="node">
<title>course__STAT359</title>
<g id="a_node6"><a xlink:href="../../../courses/STAT359.html" xlink:title="STAT359: Data Analysis" target="_top">
<path fill="#e6dde9" stroke="#1b2730" stroke-width="1.6" d="M300.5,-36C300.5,-36 266.5,-36 266.5,-36 260.5,-36 254.5,-30 254.5,-24 254.5,-24 254.5,-12 254.5,-12 254.5,-6 260.5,0 266.5,0 266.5,0 300.5,0 300.5,0 306.5,0 312.5,-6 312.5,-12 312.5,-12 312.5,-24 312.5,-24 312.5,-30 306.5,-36 300.5,-36"/>
<text text-anchor="middle" x="283.5" y="-15.5" font-family="Avenir Next" font-size="10.00" fill="#17232b">STAT359</text>
</a>
</g>
</g>
<!-- course__GEOG226&#45;&gt;course__STAT359 -->
<g id="edge18" class="edge">
<title>course__GEOG226&#45;&gt;course__STAT359</title>
<path fill="none" stroke="#5d6972" stroke-width="1.2" d="M126.8,-111.76C160.04,-91.74 213.28,-59.68 248.07,-38.73"/>
<polygon fill="#5d6972" stroke="#5d6972" stroke-width="1.2" points="249.61,-40.66 254.35,-34.95 247.09,-36.46 249.61,-40.66"/>
</g>
<!-- course__GEOG420 -->
<g id="node8" class="node">
<title>course__GEOG420</title>
<g id="a_node8"><a xlink:href="../../../courses/GEOG420.html" xlink:title="GEOG420: Field Studies in Coastal Geomatics" target="_top">
<path fill="#e7e2d8" stroke="#7e8d96" d="M540,-178C540,-178 503,-178 503,-178 497,-178 491,-172 491,-166 491,-166 491,-154 491,-154 491,-148 497,-142 503,-142 503,-142 540,-142 540,-142 546,-142 552,-148 552,-154 552,-154 552,-166 552,-166 552,-172 546,-178 540,-178"/>
<text text-anchor="middle" x="521.5" y="-157.8" font-family="Avenir Next" font-size="9.00" fill="#41515b">GEOG420</text>
</a>
</g>
</g>
<!-- course__GEOG319&#45;&gt;course__GEOG420 -->
<g id="edge10" class="edge">
<title>course__GEOG319&#45;&gt;course__GEOG420</title>
<path fill="none" stroke="#5d6972" stroke-width="1.2" d="M315.35,-182.6C358.64,-177.83 437.28,-169.17 483.61,-164.06"/>
<polygon fill="#5d6972" stroke="#5d6972" stroke-width="1.2" points="484.07,-166.48 490.76,-163.28 483.53,-161.61 484.07,-166.48"/>
</g>
<!-- choice_GEOG422_0 -->
<g id="node13" class="node">
<title>choice_GEOG422_0</title>
<path fill="#fff7ee" stroke="#b7793f" stroke-width="1.1" d="M418,-256C418,-256 388,-256 388,-256 382,-256 376,-250 376,-244 376,-244 376,-232 376,-232 376,-226 382,-220 388,-220 388,-220 418,-220 418,-220 424,-220 430,-226 430,-232 430,-232 430,-244 430,-244 430,-250 424,-256 418,-256"/>
<text text-anchor="middle" x="403" y="-235.8" font-family="Avenir Next" font-size="9.00">1 of</text>
</g>
<!-- course__GEOG319&#45;&gt;choice_GEOG422_0 -->
<g id="edge12" class="edge">
<title>course__GEOG319&#45;&gt;choice_GEOG422_0</title>
<path fill="none" stroke="#7a8389" d="M315.07,-199.53C331.75,-206.91 352.42,-216.06 369.41,-223.58"/>
<polygon fill="#7a8389" stroke="#7a8389" points="368.57,-225.89 375.97,-226.48 370.56,-221.41 368.57,-225.89"/>
</g>
<!-- course__GEOG322&#45;&gt;choice_GEOG422_0 -->
<g id="edge13" class="edge">
<title>course__GEOG322&#45;&gt;choice_GEOG422_0</title>
<path fill="none" stroke="#7a8389" d="M315.07,-240.96C331.61,-240.4 352.05,-239.7 368.96,-239.12"/>
<polygon fill="#7a8389" stroke="#7a8389" points="369.05,-241.57 375.97,-238.89 368.89,-236.68 369.05,-241.57"/>
</g>
<!-- choice_GEOG418_0 -->
<g id="node11" class="node">
<title>choice_GEOG418_0</title>
<path fill="#fff7ee" stroke="#b7793f" stroke-width="1.1" d="M418,-99C418,-99 388,-99 388,-99 382,-99 376,-93 376,-87 376,-87 376,-75 376,-75 376,-69 382,-63 388,-63 388,-63 418,-63 418,-63 424,-63 430,-69 430,-75 430,-75 430,-87 430,-87 430,-93 424,-99 418,-99"/>
<text text-anchor="middle" x="403" y="-78.8" font-family="Avenir Next" font-size="9.00">1 of</text>
</g>
<!-- course__GEOG328&#45;&gt;choice_GEOG418_0 -->
<g id="edge5" class="edge">
<title>course__GEOG328&#45;&gt;choice_GEOG418_0</title>
<path fill="none" stroke="#7a8389" d="M315.07,-75.82C331.61,-76.81 352.05,-78.02 368.96,-79.03"/>
<polygon fill="#7a8389" stroke="#7a8389" points="368.83,-81.48 375.97,-79.45 369.13,-76.59 368.83,-81.48"/>
</g>
<!-- choice_GEOG420_0_1 -->
<g id="node12" class="node">
<title>choice_GEOG420_0_1</title>
<path fill="#fff7ee" stroke="#b7793f" stroke-width="1.1" d="M418,-155C418,-155 388,-155 388,-155 382,-155 376,-149 376,-143 376,-143 376,-131 376,-131 376,-125 382,-119 388,-119 388,-119 418,-119 418,-119 424,-119 430,-125 430,-131 430,-131 430,-143 430,-143 430,-149 424,-155 418,-155"/>
<text text-anchor="middle" x="403" y="-134.8" font-family="Avenir Next" font-size="9.00">1 of</text>
</g>
<!-- course__GEOG328&#45;&gt;choice_GEOG420_0_1 -->
<g id="edge8" class="edge">
<title>course__GEOG328&#45;&gt;choice_GEOG420_0_1</title>
<path fill="none" stroke="#7a8389" d="M315.07,-90.39C331.75,-99.34 352.42,-110.42 369.41,-119.53"/>
<polygon fill="#7a8389" stroke="#7a8389" points="368.64,-121.89 375.97,-123.04 370.96,-117.58 368.64,-121.89"/>
</g>
<!-- choice_GEOG428_0 -->
<g id="node14" class="node">
<title>choice_GEOG428_0</title>
<path fill="#fff7ee" stroke="#b7793f" stroke-width="1.1" d="M418,-43C418,-43 388,-43 388,-43 382,-43 376,-37 376,-31 376,-31 376,-19 376,-19 376,-13 382,-7 388,-7 388,-7 418,-7 418,-7 424,-7 430,-13 430,-19 430,-19 430,-31 430,-31 430,-37 424,-43 418,-43"/>
<text text-anchor="middle" x="403" y="-22.8" font-family="Avenir Next" font-size="9.00">1 of</text>
</g>
<!-- course__GEOG328&#45;&gt;choice_GEOG428_0 -->
<g id="edge15" class="edge">
<title>course__GEOG328&#45;&gt;choice_GEOG428_0</title>
<path fill="none" stroke="#7a8389" d="M315.07,-61.25C331.75,-54.29 352.42,-45.68 369.41,-38.59"/>
<polygon fill="#7a8389" stroke="#7a8389" points="370.45,-40.81 375.97,-35.86 368.56,-36.29 370.45,-40.81"/>
</g>
<!-- course__GEOG329&#45;&gt;choice_GEOG418_0 -->
<g id="edge6" class="edge">
<title>course__GEOG329&#45;&gt;choice_GEOG418_0</title>
<path fill="none" stroke="#7a8389" d="M315.07,-117.25C331.75,-110.29 352.42,-101.68 369.41,-94.59"/>
<polygon fill="#7a8389" stroke="#7a8389" points="370.45,-96.81 375.97,-91.86 368.56,-92.29 370.45,-96.81"/>
</g>
<!-- course__GEOG329&#45;&gt;choice_GEOG420_0_1 -->
<g id="edge9" class="edge">
<title>course__GEOG329&#45;&gt;choice_GEOG420_0_1</title>
<path fill="none" stroke="#7a8389" d="M315.07,-131.82C331.61,-132.81 352.05,-134.02 368.96,-135.03"/>
<polygon fill="#7a8389" stroke="#7a8389" points="368.83,-137.48 375.97,-135.45 369.13,-132.59 368.83,-137.48"/>
</g>
<!-- course__GEOG329&#45;&gt;choice_GEOG428_0 -->
<g id="edge16" class="edge">
<title>course__GEOG329&#45;&gt;choice_GEOG428_0</title>
<path fill="none" stroke="#7a8389" d="M304.7,-111.95C324.54,-94.22 354.88,-67.11 376.4,-47.87"/>
<polygon fill="#7a8389" stroke="#7a8389" points="378.08,-49.66 381.67,-43.17 374.82,-46 378.08,-49.66"/>
</g>
<!-- course__GEOG418 -->
<g id="node7" class="node">
<title>course__GEOG418</title>
<g id="a_node7"><a xlink:href="../../../courses/GEOG418.html" xlink:title="GEOG418: Advanced Spatial Analysis and Geo&#45;statistics" target="_top">
<path fill="#e7e2d8" stroke="#7e8d96" d="M540,-99C540,-99 503,-99 503,-99 497,-99 491,-93 491,-87 491,-87 491,-75 491,-75 491,-69 497,-63 503,-63 503,-63 540,-63 540,-63 546,-63 552,-69 552,-75 552,-75 552,-87 552,-87 552,-93 546,-99 540,-99"/>
<text text-anchor="middle" x="521.5" y="-78.8" font-family="Avenir Next" font-size="9.00" fill="#41515b">GEOG418</text>
</a>
</g>
</g>
<!-- course__GEOG422 -->
<g id="node9" class="node">
<title>course__GEOG422</title>
<g id="a_node9"><a xlink:href="../../../courses/GEOG422.html" xlink:title="GEOG422: Advanced Topics in Remote Sensing" target="_top">
<path fill="#e7e2d8" stroke="#7e8d96" d="M540,-256C540,-256 503,-256 503,-256 497,-256 491,-250 491,-244 491,-244 491,-232 491,-232 491,-226 497,-220 503,-220 503,-220 540,-220 540,-220 546,-220 552,-226 552,-232 552,-232 552,-244 552,-244 552,-250 546,-256 540,-256"/>
<text text-anchor="middle" x="521.5" y="-235.8" font-family="Avenir Next" font-size="9.00" fill="#41515b">GEOG422</text>
</a>
</g>
</g>
<!-- course__GEOG428 -->
<g id="node10" class="node">
<title>course__GEOG428</title>
<g id="a_node10"><a xlink:href="../../../courses/GEOG428.html" xlink:title="GEOG428: Advanced Topics in Geographic Information Sciences" target="_top">
<path fill="#e7e2d8" stroke="#7e8d96" d="M540,-43C540,-43 503,-43 503,-43 497,-43 491,-37 491,-31 491,-31 491,-19 491,-19 491,-13 497,-7 503,-7 503,-7 540,-7 540,-7 546,-7 552,-13 552,-19 552,-19 552,-31 552,-31 552,-37 546,-43 540,-43"/>
<text text-anchor="middle" x="521.5" y="-22.8" font-family="Avenir Next" font-size="9.00" fill="#41515b">GEOG428</text>
</a>
</g>
</g>
<!-- choice_GEOG418_0&#45;&gt;course__GEOG418 -->
<g id="edge7" class="edge">
<title>choice_GEOG418_0&#45;&gt;course__GEOG418</title>
<path fill="none" stroke="#5d6972" stroke-width="1.2" d="M430.14,-81C445.88,-81 466.15,-81 483.51,-81"/>
<polygon fill="#5d6972" stroke="#5d6972" stroke-width="1.2" points="483.75,-83.45 490.75,-81 483.75,-78.55 483.75,-83.45"/>
</g>
<!-- choice_GEOG420_0_1&#45;&gt;course__GEOG420 -->
<g id="edge11" class="edge">
<title>choice_GEOG420_0_1&#45;&gt;course__GEOG420</title>
<path fill="none" stroke="#5d6972" stroke-width="1.2" d="M430.14,-142.16C445.88,-145.27 466.15,-149.27 483.51,-152.7"/>
<polygon fill="#5d6972" stroke="#5d6972" stroke-width="1.2" points="483.4,-155.17 490.75,-154.13 484.35,-150.37 483.4,-155.17"/>
</g>
<!-- choice_GEOG422_0&#45;&gt;course__GEOG422 -->
<g id="edge14" class="edge">
<title>choice_GEOG422_0&#45;&gt;course__GEOG422</title>
<path fill="none" stroke="#5d6972" stroke-width="1.2" d="M430.14,-238C445.88,-238 466.15,-238 483.51,-238"/>
<polygon fill="#5d6972" stroke="#5d6972" stroke-width="1.2" points="483.75,-240.45 490.75,-238 483.75,-235.55 483.75,-240.45"/>
</g>
<!-- choice_GEOG428_0&#45;&gt;course__GEOG428 -->
<g id="edge17" class="edge">
<title>choice_GEOG428_0&#45;&gt;course__GEOG428</title>
<path fill="none" stroke="#5d6972" stroke-width="1.2" d="M430.14,-25C445.88,-25 466.15,-25 483.51,-25"/>
<polygon fill="#5d6972" stroke="#5d6972" stroke-width="1.2" points="483.75,-27.45 490.75,-25 483.75,-22.55 483.75,-27.45"/>
</g>
</g>
</svg>
