<?xml version="1.0" encoding="UTF-8" standalone="no"?>
<!DOCTYPE svg PUBLIC "-//W3C//DTD SVG 1.1//EN"
 "http://www.w3.org/Graphics/SVG/1.1/DTD/svg11.dtd">
<!-- Generated by graphviz version 2.43.0 (0)
 -->
<!-- Title: GEOG450 Pages: 1 -->
<svg width="1056pt" height="337pt"
 viewBox="0.00 0.00 1056.20 337.20" xmlns="http://www.w3.org/2000/svg" xmlns:xlink="http://www.w3.org/1999/xlink">
<g id="graph0" class="graph" transform="scale(1 1) rotate(0) translate(21.6 315.6)">
<title>GEOG450</title>
<!-- course__EOS110 -->
<g id="node1" class="node">
<title>course__EOS110</title>
<g id="a_node1"><a xlink:href="../../../courses/EOS110.html" xlink:title="Equivalent or cross&#45;listed: EOS110: Oceans and Atmosphere | EOS350: Understanding the Oceans" target="_top">
<path fill="#d7e9ef" stroke="#7e8d96" d="M91,-92C91,-92 16,-92 16,-92 10,-92 4,-86 4,-80 4,-80 4,-68 4,-68 4,-62 10,-56 16,-56 16,-56 91,-56 91,-56 97,-56 103,-62 103,-68 103,-68 103,-80 103,-80 103,-86 97,-92 91,-92"/>
<text text-anchor="middle" x="53.5" y="-71.8" font-family="Avenir Next" font-size="9.00" fill="#41515b">EOS110 / EOS350</text>
</a>
</g>
</g>
<!-- choice_GEOG209_0_1_0 -->
<g id="node15" class="node">
<title>choice_GEOG209_0_1_0</title>
<path fill="#fff7ee" stroke="#b7793f" stroke-width="1.1" d="M210,-126C210,-126 180,-126 180,-126 174,-126 168,-120 168,-114 168,-114 168,-102 168,-102 168,-96 174,-90 180,-90 180,-90 210,-90 210,-90 216,-90 222,-96 222,-102 222,-102 222,-114 222,-114 222,-120 216,-126 210,-126"/>
<text text-anchor="middle" x="195" y="-105.8" font-family="Avenir Next" font-size="9.00">1 of</text>
</g>
<!-- course__EOS110&#45;&gt;choice_GEOG209_0_1_0 -->
<g id="edge6" class="edge">
<title>course__EOS110&#45;&gt;choice_GEOG209_0_1_0</title>
<path fill="none" stroke="#7a8389" d="M103.29,-85.89C122.26,-90.52 143.52,-95.7 160.68,-99.88"/>
<polygon fill="#7a8389" stroke="#7a8389" points="160.39,-102.33 167.77,-101.61 161.55,-97.57 160.39,-102.33"/>
</g>
<!-- choice_GEOG272_0 -->
<g id="node17" class="node">
<title>choice_GEOG272_0</title>
<path fill="#fff7ee" stroke="#b7793f" stroke-width="1.1" d="M210,-70C210,-70 180,-70 180,-70 174,-70 168,-64 168,-58 168,-58 168,-46 168,-46 168,-40 174,-34 180,-34 180,-34 210,-34 210,-34 216,-34 222,-40 222,-46 222,-46 222,-58 222,-58 222,-64 216,-70 210,-70"/>
<text text-anchor="middle" x="195" y="-49.8" font-family="Avenir Next" font-size="9.00">1 of</text>
</g>
<!-- course__EOS110&#45;&gt;choice_GEOG272_0 -->
<g id="edge12" class="edge">
<title>course__EOS110&#45;&gt;choice_GEOG272_0</title>
<path fill="none" stroke="#7a8389" d="M103.29,-66.31C122.26,-63.31 143.52,-59.96 160.68,-57.25"/>
<polygon fill="#7a8389" stroke="#7a8389" points="161.24,-59.65 167.77,-56.14 160.48,-54.81 161.24,-59.65"/>
</g>
<!-- course__EOS130 -->
<g id="node2" class="node">
<title>course__EOS130</title>
<g id="a_node2"><a xlink:href="../../../courses/EOS130.html" xlink:title="Equivalent or cross&#45;listed: EOS130: Climate Change | GEOG130: Climate Change" target="_top">
<path fill="#d7e9ef" stroke="#7e8d96" d="M95,-36C95,-36 12,-36 12,-36 6,-36 0,-30 0,-24 0,-24 0,-12 0,-12 0,-6 6,0 12,0 12,0 95,0 95,0 101,0 107,-6 107,-12 107,-12 107,-24 107,-24 107,-30 101,-36 95,-36"/>
<text text-anchor="middle" x="53.5" y="-15.8" font-family="Avenir Next" font-size="9.00" fill="#41515b">EOS130 / GEOG130</text>
</a>
</g>
</g>
<!-- course__EOS130&#45;&gt;choice_GEOG209_0_1_0 -->
<g id="edge5" class="edge">
<title>course__EOS130&#45;&gt;choice_GEOG209_0_1_0</title>
<path fill="none" stroke="#7a8389" d="M89.87,-36.06C95.67,-39.25 101.56,-42.63 107,-46 126.66,-58.18 147.81,-73.2 164.33,-85.41"/>
<polygon fill="#7a8389" stroke="#7a8389" points="163.12,-87.56 170.2,-89.77 166.04,-83.63 163.12,-87.56"/>
</g>
<!-- course__EOS130&#45;&gt;choice_GEOG272_0 -->
<g id="edge11" class="edge">
<title>course__EOS130&#45;&gt;choice_GEOG272_0</title>
<path fill="none" stroke="#7a8389" d="M107.24,-30.85C125.17,-35.22 144.7,-39.98 160.68,-43.88"/>
<polygon fill="#7a8389" stroke="#7a8389" points="160.37,-46.33 167.76,-45.6 161.54,-41.57 160.37,-46.33"/>
</g>
<!-- course__GEOG101A -->
<g id="node3" class="node">
<title>course__GEOG101A</title>
<g id="a_node3"><a xlink:href="../../../courses/GEOG101A.html" xlink:title="GEOG101A: Environment, Society and Sustainability" target="_top">
<path fill="#e7e2d8" stroke="#7e8d96" d="M75,-204C75,-204 32,-204 32,-204 26,-204 20,-198 20,-192 20,-192 20,-180 20,-180 20,-174 26,-168 32,-168 32,-168 75,-168 75,-168 81,-168 87,-174 87,-180 87,-180 87,-192 87,-192 87,-198 81,-204 75,-204"/>
<text text-anchor="middle" x="53.5" y="-183.8" font-family="Avenir Next" font-size="9.00" fill="#41515b">GEOG101A</text>
</a>
</g>
</g>
<!-- bundle_GEOG209_0_0 -->
<g id="node14" class="node">
<title>bundle_GEOG209_0_0</title>
<g id="a_node14"><a xlink:title="Grouped requirement junction">
<ellipse fill="#7a8790" stroke="#667780" cx="195" cy="-152" rx="6" ry="6"/>
</a>
</g>
</g>
<!-- course__GEOG101A&#45;&gt;bundle_GEOG209_0_0 -->
<g id="edge2" class="edge">
<title>course__GEOG101A&#45;&gt;bundle_GEOG209_0_0</title>
<path fill="none" stroke="#7a8389" d="M87.21,-178.03C117.63,-170.61 161.31,-159.97 182.11,-154.9"/>
<polygon fill="#7a8389" stroke="#7a8389" points="182.88,-157.23 189.1,-153.19 181.72,-152.47 182.88,-157.23"/>
</g>
<!-- course__GEOG103 -->
<g id="node4" class="node">
<title>course__GEOG103</title>
<g id="a_node4"><a xlink:href="../../../courses/GEOG103.html" xlink:title="GEOG103: Our Natural Earth" target="_top">
<path fill="#e7e2d8" stroke="#7e8d96" d="M72,-148C72,-148 35,-148 35,-148 29,-148 23,-142 23,-136 23,-136 23,-124 23,-124 23,-118 29,-112 35,-112 35,-112 72,-112 72,-112 78,-112 84,-118 84,-124 84,-124 84,-136 84,-136 84,-142 78,-148 72,-148"/>
<text text-anchor="middle" x="53.5" y="-127.8" font-family="Avenir Next" font-size="9.00" fill="#41515b">GEOG103</text>
</a>
</g>
</g>
<!-- course__GEOG103&#45;&gt;bundle_GEOG209_0_0 -->
<g id="edge3" class="edge">
<title>course__GEOG103&#45;&gt;bundle_GEOG209_0_0</title>
<path fill="none" stroke="#7a8389" d="M84.08,-134.67C114.44,-139.45 160.18,-146.67 181.83,-150.08"/>
<polygon fill="#7a8389" stroke="#7a8389" points="181.56,-152.52 188.86,-151.19 182.33,-147.68 181.56,-152.52"/>
</g>
<!-- course__GEOG103&#45;&gt;choice_GEOG209_0_1_0 -->
<g id="edge4" class="edge">
<title>course__GEOG103&#45;&gt;choice_GEOG209_0_1_0</title>
<path fill="none" stroke="#7a8389" d="M84.08,-125.33C106.55,-121.79 137.46,-116.92 160.78,-113.24"/>
<polygon fill="#7a8389" stroke="#7a8389" points="161.22,-115.65 167.75,-112.14 160.45,-110.81 161.22,-115.65"/>
</g>
<!-- course__GEOG103&#45;&gt;choice_GEOG272_0 -->
<g id="edge10" class="edge">
<title>course__GEOG103&#45;&gt;choice_GEOG272_0</title>
<path fill="none" stroke="#7a8389" d="M84.02,-114.47C91.54,-110.45 99.59,-106.1 107,-102 125.16,-91.94 145.27,-80.41 161.57,-70.96"/>
<polygon fill="#7a8389" stroke="#7a8389" points="163.03,-72.95 167.85,-67.31 160.57,-68.71 163.03,-72.95"/>
</g>
<!-- course__ES200 -->
<g id="node5" class="node">
<title>course__ES200</title>
<g id="a_node5"><a xlink:href="../../../courses/ES200.html" xlink:title="ES200: Introduction to Environmental Studies" target="_top">
<path fill="#f2ece3" stroke="#7e8d96" d="M443.5,-238C443.5,-238 413.5,-238 413.5,-238 407.5,-238 401.5,-232 401.5,-226 401.5,-226 401.5,-214 401.5,-214 401.5,-208 407.5,-202 413.5,-202 413.5,-202 443.5,-202 443.5,-202 449.5,-202 455.5,-208 455.5,-214 455.5,-214 455.5,-226 455.5,-226 455.5,-232 449.5,-238 443.5,-238"/>
<text text-anchor="middle" x="428.5" y="-217.8" font-family="Avenir Next" font-size="9.00" fill="#41515b">ES200</text>
</a>
</g>
</g>
<!-- course__ES301 -->
<g id="node9" class="node">
<title>course__ES301</title>
<g id="a_node9"><a xlink:href="../../../courses/ES301.html" xlink:title="ES301: Political Ecology" target="_top">
<path fill="#f2ece3" stroke="#1b2730" stroke-width="1.6" d="M581.5,-238C581.5,-238 551.5,-238 551.5,-238 545.5,-238 539.5,-232 539.5,-226 539.5,-226 539.5,-214 539.5,-214 539.5,-208 545.5,-202 551.5,-202 551.5,-202 581.5,-202 581.5,-202 587.5,-202 593.5,-208 593.5,-214 593.5,-214 593.5,-226 593.5,-226 593.5,-232 587.5,-238 581.5,-238"/>
<text text-anchor="middle" x="566.5" y="-217.5" font-family="Avenir Next" font-size="10.00" fill="#17232b">ES301</text>
</a>
</g>
</g>
<!-- course__ES200&#45;&gt;course__ES301 -->
<g id="edge1" class="edge">
<title>course__ES200&#45;&gt;course__ES301</title>
<path fill="none" stroke="#5d6972" stroke-width="1.2" d="M455.72,-220C477.55,-220 508.75,-220 532.31,-220"/>
<polygon fill="#5d6972" stroke="#5d6972" stroke-width="1.2" points="532.36,-222.45 539.36,-220 532.36,-217.55 532.36,-222.45"/>
</g>
<!-- course__GEOG209 -->
<g id="node6" class="node">
<title>course__GEOG209</title>
<g id="a_node6"><a xlink:href="../../../courses/GEOG209.html" xlink:title="GEOG209: Environmental Management" target="_top">
<path fill="#e7e2d8" stroke="#7e8d96" d="M447,-148C447,-148 410,-148 410,-148 404,-148 398,-142 398,-136 398,-136 398,-124 398,-124 398,-118 404,-112 410,-112 410,-112 447,-112 447,-112 453,-112 459,-118 459,-124 459,-124 459,-136 459,-136 459,-142 453,-148 447,-148"/>
<text text-anchor="middle" x="428.5" y="-127.8" font-family="Avenir Next" font-size="9.00" fill="#41515b">GEOG209</text>
</a>
</g>
</g>
<!-- course__GEOG301 -->
<g id="node10" class="node">
<title>course__GEOG301</title>
<g id="a_node10"><a xlink:href="../../../courses/GEOG301.html" xlink:title="GEOG301: Environmental Impact Assessment" target="_top">
<path fill="#e7e2d8" stroke="#1b2730" stroke-width="1.6" d="M586,-182C586,-182 547,-182 547,-182 541,-182 535,-176 535,-170 535,-170 535,-158 535,-158 535,-152 541,-146 547,-146 547,-146 586,-146 586,-146 592,-146 598,-152 598,-158 598,-158 598,-170 598,-170 598,-176 592,-182 586,-182"/>
<text text-anchor="middle" x="566.5" y="-161.5" font-family="Avenir Next" font-size="10.00" fill="#17232b">GEOG301</text>
</a>
</g>
</g>
<!-- course__GEOG209&#45;&gt;course__GEOG301 -->
<g id="edge14" class="edge">
<title>course__GEOG209&#45;&gt;course__GEOG301</title>
<path fill="none" stroke="#5d6972" stroke-width="1.2" d="M459.01,-137.38C479.17,-142.42 506.06,-149.14 527.78,-154.57"/>
<polygon fill="#5d6972" stroke="#5d6972" stroke-width="1.2" points="527.25,-156.96 534.63,-156.28 528.43,-152.21 527.25,-156.96"/>
</g>
<!-- course__GEOG371 -->
<g id="node12" class="node">
<title>course__GEOG371</title>
<g id="a_node12"><a xlink:href="../../../courses/GEOG371.html" xlink:title="GEOG371: Water Resources Management" target="_top">
<path fill="#e7e2d8" stroke="#1b2730" stroke-width="1.6" d="M586,-70C586,-70 547,-70 547,-70 541,-70 535,-64 535,-58 535,-58 535,-46 535,-46 535,-40 541,-34 547,-34 547,-34 586,-34 586,-34 592,-34 598,-40 598,-46 598,-46 598,-58 598,-58 598,-64 592,-70 586,-70"/>
<text text-anchor="middle" x="566.5" y="-49.5" font-family="Avenir Next" font-size="10.00" fill="#17232b">GEOG371</text>
</a>
</g>
</g>
<!-- course__GEOG209&#45;&gt;course__GEOG371 -->
<g id="edge15" class="edge">
<title>course__GEOG209&#45;&gt;course__GEOG371</title>
<path fill="none" stroke="#5d6972" stroke-width="1.2" d="M459.01,-113.08C479.35,-101.41 506.53,-85.82 528.34,-73.31"/>
<polygon fill="#5d6972" stroke="#5d6972" stroke-width="1.2" points="529.78,-75.31 534.63,-69.7 527.34,-71.06 529.78,-75.31"/>
</g>
<!-- course__GEOG272 -->
<g id="node7" class="node">
<title>course__GEOG272</title>
<g id="a_node7"><a xlink:href="../../../courses/GEOG272.html" xlink:title="GEOG272: Climatology and Hydrology" target="_top">
<path fill="#e7e2d8" stroke="#7e8d96" d="M447,-70C447,-70 410,-70 410,-70 404,-70 398,-64 398,-58 398,-58 398,-46 398,-46 398,-40 404,-34 410,-34 410,-34 447,-34 447,-34 453,-34 459,-40 459,-46 459,-46 459,-58 459,-58 459,-64 453,-70 447,-70"/>
<text text-anchor="middle" x="428.5" y="-49.8" font-family="Avenir Next" font-size="9.00" fill="#41515b">GEOG272</text>
</a>
</g>
</g>
<!-- course__GEOG272&#45;&gt;course__GEOG371 -->
<g id="edge16" class="edge">
<title>course__GEOG272&#45;&gt;course__GEOG371</title>
<path fill="none" stroke="#5d6972" stroke-width="1.2" d="M459.01,-52C479.08,-52 505.83,-52 527.5,-52"/>
<polygon fill="#5d6972" stroke="#5d6972" stroke-width="1.2" points="527.63,-54.45 534.63,-52 527.63,-49.55 527.63,-54.45"/>
</g>
<!-- course__EOS365 -->
<g id="node8" class="node">
<title>course__EOS365</title>
<g id="a_node8"><a xlink:href="../../../courses/EOS365.html" xlink:title="Equivalent or cross&#45;listed: EOS365: Climate and Society | ES365: Climate and Society" target="_top">
<path fill="#d7e9ef" stroke="#1b2730" stroke-width="1.6" d="M601,-294C601,-294 532,-294 532,-294 526,-294 520,-288 520,-282 520,-282 520,-270 520,-270 520,-264 526,-258 532,-258 532,-258 601,-258 601,-258 607,-258 613,-264 613,-270 613,-270 613,-282 613,-282 613,-288 607,-294 601,-294"/>
<text text-anchor="middle" x="566.5" y="-273.5" font-family="Avenir Next" font-size="10.00" fill="#17232b">EOS365 / ES365</text>
</a>
</g>
</g>
<!-- choice_GEOG450_0 -->
<g id="node18" class="node">
<title>choice_GEOG450_0</title>
<path fill="#fff7ee" stroke="#b7793f" stroke-width="1.1" d="M716,-182C716,-182 686,-182 686,-182 680,-182 674,-176 674,-170 674,-170 674,-158 674,-158 674,-152 680,-146 686,-146 686,-146 716,-146 716,-146 722,-146 728,-152 728,-158 728,-158 728,-170 728,-170 728,-176 722,-182 716,-182"/>
<text text-anchor="middle" x="701" y="-161.8" font-family="Avenir Next" font-size="9.00">2 of</text>
</g>
<!-- course__EOS365&#45;&gt;choice_GEOG450_0 -->
<g id="edge20" class="edge">
<title>course__EOS365&#45;&gt;choice_GEOG450_0</title>
<path fill="none" stroke="#7a8389" d="M598.94,-257.89C603.77,-254.76 608.6,-251.41 613,-248 636.9,-229.46 661.46,-205.18 678.36,-187.49"/>
<polygon fill="#7a8389" stroke="#7a8389" points="680.32,-188.99 683.35,-182.23 676.76,-185.62 680.32,-188.99"/>
</g>
<!-- course__ES301&#45;&gt;choice_GEOG450_0 -->
<g id="edge21" class="edge">
<title>course__ES301&#45;&gt;choice_GEOG450_0</title>
<path fill="none" stroke="#7a8389" d="M593.68,-208.94C614.82,-200 644.68,-187.38 667.38,-177.79"/>
<polygon fill="#7a8389" stroke="#7a8389" points="668.38,-180.02 673.88,-175.04 666.48,-175.51 668.38,-180.02"/>
</g>
<!-- course__GEOG301&#45;&gt;choice_GEOG450_0 -->
<g id="edge17" class="edge">
<title>course__GEOG301&#45;&gt;choice_GEOG450_0</title>
<path fill="none" stroke="#7a8389" d="M598.23,-164C618.75,-164 645.71,-164 666.73,-164"/>
<polygon fill="#7a8389" stroke="#7a8389" points="666.9,-166.45 673.9,-164 666.9,-161.55 666.9,-166.45"/>
</g>
<!-- course__GEOG314 -->
<g id="node11" class="node">
<title>course__GEOG314</title>
<g id="a_node11"><a xlink:href="../../../courses/GEOG314.html" xlink:title="GEOG314: Global Environmental Change and Human Response" target="_top">
<path fill="#e7e2d8" stroke="#1b2730" stroke-width="1.6" d="M586,-126C586,-126 547,-126 547,-126 541,-126 535,-120 535,-114 535,-114 535,-102 535,-102 535,-96 541,-90 547,-90 547,-90 586,-90 586,-90 592,-90 598,-96 598,-102 598,-102 598,-114 598,-114 598,-120 592,-126 586,-126"/>
<text text-anchor="middle" x="566.5" y="-105.5" font-family="Avenir Next" font-size="10.00" fill="#17232b">GEOG314</text>
</a>
</g>
</g>
<!-- course__GEOG314&#45;&gt;choice_GEOG450_0 -->
<g id="edge18" class="edge">
<title>course__GEOG314&#45;&gt;choice_GEOG450_0</title>
<path fill="none" stroke="#7a8389" d="M598.23,-120.99C618.93,-129.73 646.19,-141.26 667.28,-150.17"/>
<polygon fill="#7a8389" stroke="#7a8389" points="666.5,-152.5 673.9,-152.97 668.41,-147.99 666.5,-152.5"/>
</g>
<!-- course__GEOG371&#45;&gt;choice_GEOG450_0 -->
<g id="edge19" class="edge">
<title>course__GEOG371&#45;&gt;choice_GEOG450_0</title>
<path fill="none" stroke="#7a8389" d="M598.46,-69.8C603.44,-73.02 608.46,-76.48 613,-80 636.9,-98.54 661.46,-122.82 678.36,-140.51"/>
<polygon fill="#7a8389" stroke="#7a8389" points="676.76,-142.38 683.35,-145.77 680.32,-139.01 676.76,-142.38"/>
</g>
<!-- course__GEOG450 -->
<g id="node13" class="node">
<title>course__GEOG450</title>
<g id="a_node13"><a xlink:href="../../../courses/GEOG450.html" xlink:title="GEOG450: Environment and Sustainability in Practice" target="_top">
<path fill="#e7e2d8" stroke="#1f4f66" stroke-width="2" d="M1001,-182C1001,-182 801,-182 801,-182 795,-182 789,-176 789,-170 789,-170 789,-158 789,-158 789,-152 795,-146 801,-146 801,-146 1001,-146 1001,-146 1007,-146 1013,-152 1013,-158 1013,-158 1013,-170 1013,-170 1013,-176 1007,-182 1001,-182"/>
<text text-anchor="middle" x="901" y="-167" font-family="Avenir Next" font-size="10.00" fill="#17232b">GEOG450</text>
<text text-anchor="middle" x="901" y="-156" font-family="Avenir Next" font-size="10.00" fill="#17232b">Environment and Sustainability in Practice</text>
</a>
</g>
</g>
<!-- choice_GEOG209_0 -->
<g id="node16" class="node">
<title>choice_GEOG209_0</title>
<path fill="#fff7ee" stroke="#b7793f" stroke-width="1.1" d="M325,-148C325,-148 295,-148 295,-148 289,-148 283,-142 283,-136 283,-136 283,-124 283,-124 283,-118 289,-112 295,-112 295,-112 325,-112 325,-112 331,-112 337,-118 337,-124 337,-124 337,-136 337,-136 337,-142 331,-148 325,-148"/>
<text text-anchor="middle" x="310" y="-127.8" font-family="Avenir Next" font-size="9.00">1 of</text>
</g>
<!-- bundle_GEOG209_0_0&#45;&gt;choice_GEOG209_0 -->
<g id="edge7" class="edge">
<title>bundle_GEOG209_0_0&#45;&gt;choice_GEOG209_0</title>
<path fill="none" stroke="#7a8389" d="M201.15,-151C214.15,-148.47 249.16,-141.65 275.79,-136.47"/>
<polygon fill="#7a8389" stroke="#7a8389" points="276.31,-138.86 282.71,-135.12 275.37,-134.05 276.31,-138.86"/>
</g>
<!-- choice_GEOG209_0_1_0&#45;&gt;choice_GEOG209_0 -->
<g id="edge8" class="edge">
<title>choice_GEOG209_0_1_0&#45;&gt;choice_GEOG209_0</title>
<path fill="none" stroke="#7a8389" d="M222.21,-113.1C238.18,-116.21 258.74,-120.22 275.84,-123.54"/>
<polygon fill="#7a8389" stroke="#7a8389" points="275.59,-125.99 282.93,-124.93 276.53,-121.18 275.59,-125.99"/>
</g>
<!-- choice_GEOG209_0&#45;&gt;course__GEOG209 -->
<g id="edge9" class="edge">
<title>choice_GEOG209_0&#45;&gt;course__GEOG209</title>
<path fill="none" stroke="#5d6972" stroke-width="1.2" d="M337.14,-130C352.88,-130 373.15,-130 390.51,-130"/>
<polygon fill="#5d6972" stroke="#5d6972" stroke-width="1.2" points="390.75,-132.45 397.75,-130 390.75,-127.55 390.75,-132.45"/>
</g>
<!-- choice_GEOG272_0&#45;&gt;course__GEOG272 -->
<g id="edge13" class="edge">
<title>choice_GEOG272_0&#45;&gt;course__GEOG272</title>
<path fill="none" stroke="#5d6972" stroke-width="1.2" d="M222.11,-52C263.3,-52 343.52,-52 390.59,-52"/>
<polygon fill="#5d6972" stroke="#5d6972" stroke-width="1.2" points="390.85,-54.45 397.85,-52 390.85,-49.55 390.85,-54.45"/>
</g>
<!-- choice_GEOG450_0&#45;&gt;course__GEOG450 -->
<g id="edge22" class="edge">
<title>choice_GEOG450_0&#45;&gt;course__GEOG450</title>
<path fill="none" stroke="#5d6972" stroke-width="1.2" d="M728.29,-164C742.69,-164 761.66,-164 781.73,-164"/>
<polygon fill="#5d6972" stroke="#5d6972" stroke-width="1.2" points="781.87,-166.45 788.87,-164 781.87,-161.55 781.87,-166.45"/>
</g>
</g>
</svg>
