<?xml version="1.0" encoding="UTF-8" standalone="no"?>
<!DOCTYPE svg PUBLIC "-//W3C//DTD SVG 1.1//EN"
 "http://www.w3.org/Graphics/SVG/1.1/DTD/svg11.dtd">
<!-- Generated by graphviz version 2.43.0 (0)
 -->
<!-- Title: GEOG476 Pages: 1 -->
<svg width="885pt" height="191pt"
 viewBox="0.00 0.00 885.20 191.20" xmlns="http://www.w3.org/2000/svg" xmlns:xlink="http://www.w3.org/1999/xlink">
<g id="graph0" class="graph" transform="scale(1 1) rotate(0) translate(21.6 169.6)">
<title>GEOG476</title>
<!-- course__CHEM091 -->
<g id="node1" class="node">
<title>course__CHEM091</title>
<g id="a_node1"><a xlink:href="../../../courses/CHEM091.html" xlink:title="CHEM091: Introduction to Chemistry" target="_top">
<path fill="#ead9b8" stroke="#7e8d96" d="M75.5,-148C75.5,-148 38.5,-148 38.5,-148 32.5,-148 26.5,-142 26.5,-136 26.5,-136 26.5,-124 26.5,-124 26.5,-118 32.5,-112 38.5,-112 38.5,-112 75.5,-112 75.5,-112 81.5,-112 87.5,-118 87.5,-124 87.5,-124 87.5,-136 87.5,-136 87.5,-142 81.5,-148 75.5,-148"/>
<text text-anchor="middle" x="57" y="-127.8" font-family="Avenir Next" font-size="9.00" fill="#41515b">CHEM091</text>
</a>
</g>
</g>
<!-- course__CHEM102 -->
<g id="node4" class="node">
<title>course__CHEM102</title>
<g id="a_node4"><a xlink:href="../../../courses/CHEM102.html" xlink:title="CHEM102: Chemical Reactivity Fundamentals with Environmental Applications" target="_top">
<path fill="#ead9b8" stroke="#7e8d96" d="M224,-92C224,-92 187,-92 187,-92 181,-92 175,-86 175,-80 175,-80 175,-68 175,-68 175,-62 181,-56 187,-56 187,-56 224,-56 224,-56 230,-56 236,-62 236,-68 236,-68 236,-80 236,-80 236,-86 230,-92 224,-92"/>
<text text-anchor="middle" x="205.5" y="-71.8" font-family="Avenir Next" font-size="9.00" fill="#41515b">CHEM102</text>
</a>
</g>
</g>
<!-- course__CHEM091&#45;&gt;course__CHEM102 -->
<g id="edge1" class="edge">
<title>course__CHEM091&#45;&gt;course__CHEM102</title>
<path fill="none" stroke="#5d6972" stroke-width="1.2" d="M87.65,-118.67C110.88,-109.79 143.31,-97.39 168.12,-87.91"/>
<polygon fill="#5d6972" stroke="#5d6972" stroke-width="1.2" points="169.23,-90.1 174.9,-85.32 167.48,-85.53 169.23,-90.1"/>
</g>
<!-- course__CHEM101 -->
<g id="node2" class="node">
<title>course__CHEM101</title>
<g id="a_node2"><a xlink:href="../../../courses/CHEM101.html" xlink:title="Equivalent or cross&#45;listed: CHEM101: Fundamentals of Chemistry from Atoms to Materials | CHEM150: Engineering Chemistry" target="_top">
<path fill="#ead9b8" stroke="#7e8d96" d="M102,-92C102,-92 12,-92 12,-92 6,-92 0,-86 0,-80 0,-80 0,-68 0,-68 0,-62 6,-56 12,-56 12,-56 102,-56 102,-56 108,-56 114,-62 114,-68 114,-68 114,-80 114,-80 114,-86 108,-92 102,-92"/>
<text text-anchor="middle" x="57" y="-71.8" font-family="Avenir Next" font-size="9.00" fill="#41515b">CHEM101 / CHEM150</text>
</a>
</g>
</g>
<!-- course__CHEM101&#45;&gt;course__CHEM102 -->
<g id="edge2" class="edge">
<title>course__CHEM101&#45;&gt;course__CHEM102</title>
<path fill="none" stroke="#5d6972" stroke-width="1.2" d="M114.22,-74C132.14,-74 151.49,-74 167.66,-74"/>
<polygon fill="#5d6972" stroke="#5d6972" stroke-width="1.2" points="167.85,-76.45 174.85,-74 167.85,-71.55 167.85,-76.45"/>
</g>
<!-- course__MATH100 -->
<g id="node3" class="node">
<title>course__MATH100</title>
<g id="a_node3"><a xlink:href="../../../courses/MATH100.html" xlink:title="Equivalent or cross&#45;listed: MATH100: Calculus I | MATH102: Calculus for Students in the Social and Biological Sciences | MATH109: Introduction to Calculus" target="_top">
<path fill="#dfe3f4" stroke="#7e8d96" d="M100.5,-36C100.5,-36 13.5,-36 13.5,-36 7.5,-36 1.5,-30 1.5,-24 1.5,-24 1.5,-12 1.5,-12 1.5,-6 7.5,0 13.5,0 13.5,0 100.5,0 100.5,0 106.5,0 112.5,-6 112.5,-12 112.5,-12 112.5,-24 112.5,-24 112.5,-30 106.5,-36 100.5,-36"/>
<text text-anchor="middle" x="57" y="-20.8" font-family="Avenir Next" font-size="9.00" fill="#41515b">MATH100 / MATH102</text>
<text text-anchor="middle" x="57" y="-10.8" font-family="Avenir Next" font-size="9.00" fill="#41515b">MATH109</text>
</a>
</g>
</g>
<!-- course__MATH100&#45;&gt;course__CHEM102 -->
<g id="edge3" class="edge">
<title>course__MATH100&#45;&gt;course__CHEM102</title>
<path fill="none" stroke="#5d6972" stroke-width="1.2" d="M105.16,-36.03C125.57,-43.83 149.09,-52.82 168.12,-60.09"/>
<polygon fill="#5d6972" stroke="#5d6972" stroke-width="1.2" points="167.5,-62.48 174.92,-62.69 169.25,-57.9 167.5,-62.48"/>
</g>
<!-- course__EOS205 -->
<g id="node6" class="node">
<title>course__EOS205</title>
<g id="a_node6"><a xlink:href="../../../courses/EOS205.html" xlink:title="EOS205: Mineralogy" target="_top">
<path fill="#d7e9ef" stroke="#7e8d96" d="M339,-64C339,-64 309,-64 309,-64 303,-64 297,-58 297,-52 297,-52 297,-40 297,-40 297,-34 303,-28 309,-28 309,-28 339,-28 339,-28 345,-28 351,-34 351,-40 351,-40 351,-52 351,-52 351,-58 345,-64 339,-64"/>
<text text-anchor="middle" x="324" y="-43.8" font-family="Avenir Next" font-size="9.00" fill="#41515b">EOS205</text>
</a>
</g>
</g>
<!-- course__CHEM102&#45;&gt;course__EOS205 -->
<g id="edge6" class="edge">
<title>course__CHEM102&#45;&gt;course__EOS205</title>
<path fill="none" stroke="#5d6972" stroke-width="1.2" d="M236.2,-66.86C252.6,-62.92 273.01,-58.02 289.91,-53.95"/>
<polygon fill="#5d6972" stroke="#5d6972" stroke-width="1.2" points="290.69,-56.29 296.92,-52.27 289.55,-51.52 290.69,-56.29"/>
</g>
<!-- course__EOS120 -->
<g id="node5" class="node">
<title>course__EOS120</title>
<g id="a_node5"><a xlink:href="../../../courses/EOS120.html" xlink:title="EOS120: The Dynamic Earth" target="_top">
<path fill="#d7e9ef" stroke="#7e8d96" d="M220.5,-36C220.5,-36 190.5,-36 190.5,-36 184.5,-36 178.5,-30 178.5,-24 178.5,-24 178.5,-12 178.5,-12 178.5,-6 184.5,0 190.5,0 190.5,0 220.5,0 220.5,0 226.5,0 232.5,-6 232.5,-12 232.5,-12 232.5,-24 232.5,-24 232.5,-30 226.5,-36 220.5,-36"/>
<text text-anchor="middle" x="205.5" y="-15.8" font-family="Avenir Next" font-size="9.00" fill="#41515b">EOS120</text>
</a>
</g>
</g>
<!-- course__EOS120&#45;&gt;course__EOS205 -->
<g id="edge5" class="edge">
<title>course__EOS120&#45;&gt;course__EOS205</title>
<path fill="none" stroke="#5d6972" stroke-width="1.2" d="M232.64,-24.28C249.58,-28.35 271.79,-33.69 289.95,-38.06"/>
<polygon fill="#5d6972" stroke="#5d6972" stroke-width="1.2" points="289.56,-40.48 296.94,-39.74 290.71,-35.72 289.56,-40.48"/>
</g>
<!-- course__EOS201 -->
<g id="node7" class="node">
<title>course__EOS201</title>
<g id="a_node7"><a xlink:href="../../../courses/EOS201.html" xlink:title="EOS201: Sedimentary Geology" target="_top">
<path fill="#d7e9ef" stroke="#7e8d96" d="M454,-64C454,-64 424,-64 424,-64 418,-64 412,-58 412,-52 412,-52 412,-40 412,-40 412,-34 418,-28 424,-28 424,-28 454,-28 454,-28 460,-28 466,-34 466,-40 466,-40 466,-52 466,-52 466,-58 460,-64 454,-64"/>
<text text-anchor="middle" x="439" y="-43.8" font-family="Avenir Next" font-size="9.00" fill="#41515b">EOS201</text>
</a>
</g>
</g>
<!-- course__EOS205&#45;&gt;course__EOS201 -->
<g id="edge4" class="edge">
<title>course__EOS205&#45;&gt;course__EOS201</title>
<path fill="none" stroke="#5d6972" stroke-width="1.2" d="M351.21,-46C367.18,-46 387.74,-46 404.84,-46"/>
<polygon fill="#5d6972" stroke="#5d6972" stroke-width="1.2" points="404.93,-48.45 411.93,-46 404.93,-43.55 404.93,-48.45"/>
</g>
<!-- course__GEOG376 -->
<g id="node8" class="node">
<title>course__GEOG376</title>
<g id="a_node8"><a xlink:href="../../../courses/GEOG376.html" xlink:title="GEOG376: Process Geomorphology" target="_top">
<path fill="#e7e2d8" stroke="#1b2730" stroke-width="1.6" d="M578,-64C578,-64 539,-64 539,-64 533,-64 527,-58 527,-52 527,-52 527,-40 527,-40 527,-34 533,-28 539,-28 539,-28 578,-28 578,-28 584,-28 590,-34 590,-40 590,-40 590,-52 590,-52 590,-58 584,-64 578,-64"/>
<text text-anchor="middle" x="558.5" y="-43.5" font-family="Avenir Next" font-size="10.00" fill="#17232b">GEOG376</text>
</a>
</g>
</g>
<!-- course__EOS201&#45;&gt;course__GEOG376 -->
<g id="edge7" class="edge">
<title>course__EOS201&#45;&gt;course__GEOG376</title>
<path fill="none" stroke="#5d6972" stroke-width="1.2" d="M466.08,-46C481.81,-46 502.14,-46 519.62,-46"/>
<polygon fill="#5d6972" stroke="#5d6972" stroke-width="1.2" points="519.92,-48.45 526.92,-46 519.92,-43.55 519.92,-48.45"/>
</g>
<!-- course__GEOG476 -->
<g id="node9" class="node">
<title>course__GEOG476</title>
<g id="a_node9"><a xlink:href="../../../courses/GEOG476.html" xlink:title="GEOG476: Advanced Topics in Geomorphology" target="_top">
<path fill="#e7e2d8" stroke="#1f4f66" stroke-width="2" d="M830,-64C830,-64 663,-64 663,-64 657,-64 651,-58 651,-52 651,-52 651,-40 651,-40 651,-34 657,-28 663,-28 663,-28 830,-28 830,-28 836,-28 842,-34 842,-40 842,-40 842,-52 842,-52 842,-58 836,-64 830,-64"/>
<text text-anchor="middle" x="746.5" y="-49" font-family="Avenir Next" font-size="10.00" fill="#17232b">GEOG476</text>
<text text-anchor="middle" x="746.5" y="-38" font-family="Avenir Next" font-size="10.00" fill="#17232b">Advanced Topics in Geomorphology</text>
</a>
</g>
</g>
<!-- course__GEOG376&#45;&gt;course__GEOG476 -->
<g id="edge8" class="edge">
<title>course__GEOG376&#45;&gt;course__GEOG476</title>
<path fill="none" stroke="#5d6972" stroke-width="1.2" d="M590.21,-46C605.19,-46 624.16,-46 643.65,-46"/>
<polygon fill="#5d6972" stroke="#5d6972" stroke-width="1.2" points="643.85,-48.45 650.85,-46 643.85,-43.55 643.85,-48.45"/>
</g>
</g>
</svg>
