<?xml version="1.0" encoding="UTF-8" standalone="no"?>
<!DOCTYPE svg PUBLIC "-//W3C//DTD SVG 1.1//EN"
 "http://www.w3.org/Graphics/SVG/1.1/DTD/svg11.dtd">
<!-- Generated by graphviz version 2.43.0 (0)
 -->
<!-- Title: GEOG371 Pages: 1 -->
<svg width="457pt" height="135pt"
 viewBox="0.00 0.00 457.20 135.20" xmlns="http://www.w3.org/2000/svg" xmlns:xlink="http://www.w3.org/1999/xlink">
<g id="graph0" class="graph" transform="scale(1 1) rotate(0) translate(21.6 113.6)">
<title>GEOG371</title>
<!-- course__GEOG209 -->
<g id="node1" class="node">
<title>course__GEOG209</title>
<g id="a_node1"><a xlink:href="../../../courses/GEOG209.html" xlink:title="GEOG209: Environmental Management" target="_top">
<path fill="#e7e2d8" stroke="#1b2730" stroke-width="1.6" d="M51,-92C51,-92 12,-92 12,-92 6,-92 0,-86 0,-80 0,-80 0,-68 0,-68 0,-62 6,-56 12,-56 12,-56 51,-56 51,-56 57,-56 63,-62 63,-68 63,-68 63,-80 63,-80 63,-86 57,-92 51,-92"/>
<text text-anchor="middle" x="31.5" y="-71.5" font-family="Avenir Next" font-size="10.00" fill="#17232b">GEOG209</text>
</a>
</g>
</g>
<!-- course__GEOG371 -->
<g id="node3" class="node">
<title>course__GEOG371</title>
<g id="a_node3"><a xlink:href="../../../courses/GEOG371.html" xlink:title="GEOG371: Water Resources Management" target="_top">
<path fill="#e7e2d8" stroke="#1f4f66" stroke-width="2" d="M278,-64C278,-64 136,-64 136,-64 130,-64 124,-58 124,-52 124,-52 124,-40 124,-40 124,-34 130,-28 136,-28 136,-28 278,-28 278,-28 284,-28 290,-34 290,-40 290,-40 290,-52 290,-52 290,-58 284,-64 278,-64"/>
<text text-anchor="middle" x="207" y="-49" font-family="Avenir Next" font-size="10.00" fill="#17232b">GEOG371</text>
<text text-anchor="middle" x="207" y="-38" font-family="Avenir Next" font-size="10.00" fill="#17232b">Water Resources Management</text>
</a>
</g>
</g>
<!-- course__GEOG209&#45;&gt;course__GEOG371 -->
<g id="edge2" class="edge">
<title>course__GEOG209&#45;&gt;course__GEOG371</title>
<path fill="none" stroke="#5d6972" stroke-width="1.2" d="M63.12,-69.06C78.28,-66.61 97.45,-63.52 116.79,-60.4"/>
<polygon fill="#5d6972" stroke="#5d6972" stroke-width="1.2" points="117.39,-62.78 123.91,-59.25 116.61,-57.94 117.39,-62.78"/>
</g>
<!-- course__GEOG272 -->
<g id="node2" class="node">
<title>course__GEOG272</title>
<g id="a_node2"><a xlink:href="../../../courses/GEOG272.html" xlink:title="GEOG272: Climatology and Hydrology" target="_top">
<path fill="#e7e2d8" stroke="#1b2730" stroke-width="1.6" d="M51,-36C51,-36 12,-36 12,-36 6,-36 0,-30 0,-24 0,-24 0,-12 0,-12 0,-6 6,0 12,0 12,0 51,0 51,0 57,0 63,-6 63,-12 63,-12 63,-24 63,-24 63,-30 57,-36 51,-36"/>
<text text-anchor="middle" x="31.5" y="-15.5" font-family="Avenir Next" font-size="10.00" fill="#17232b">GEOG272</text>
</a>
</g>
</g>
<!-- course__GEOG272&#45;&gt;course__GEOG371 -->
<g id="edge3" class="edge">
<title>course__GEOG272&#45;&gt;course__GEOG371</title>
<path fill="none" stroke="#5d6972" stroke-width="1.2" d="M63.12,-22.94C78.28,-25.39 97.45,-28.48 116.79,-31.6"/>
<polygon fill="#5d6972" stroke="#5d6972" stroke-width="1.2" points="116.61,-34.06 123.91,-32.75 117.39,-29.22 116.61,-34.06"/>
</g>
<!-- course__BIOL446 -->
<g id="node4" class="node">
<title>course__BIOL446</title>
<g id="a_node4"><a xlink:href="../../../courses/BIOL446.html" xlink:title="BIOL446: Advanced Aquatic Ecology" target="_top">
<path fill="#dbe8d2" stroke="#1b2730" stroke-width="1.6" d="M399,-92C399,-92 366,-92 366,-92 360,-92 354,-86 354,-80 354,-80 354,-68 354,-68 354,-62 360,-56 366,-56 366,-56 399,-56 399,-56 405,-56 411,-62 411,-68 411,-68 411,-80 411,-80 411,-86 405,-92 399,-92"/>
<text text-anchor="middle" x="382.5" y="-71.5" font-family="Avenir Next" font-size="10.00" fill="#17232b">BIOL446</text>
</a>
</g>
</g>
<!-- course__GEOG371&#45;&gt;course__BIOL446 -->
<g id="edge1" class="edge">
<title>course__GEOG371&#45;&gt;course__BIOL446</title>
<path fill="none" stroke="#5d6972" stroke-width="1.2" d="M290.18,-59.26C310.08,-62.47 330.3,-65.74 346.64,-68.37"/>
<polygon fill="#5d6972" stroke="#5d6972" stroke-width="1.2" points="346.56,-70.84 353.86,-69.54 347.34,-66 346.56,-70.84"/>
</g>
<!-- course__GEOG450 -->
<g id="node5" class="node">
<title>course__GEOG450</title>
<g id="a_node5"><a xlink:href="../../../courses/GEOG450.html" xlink:title="GEOG450: Environment and Sustainability in Practice" target="_top">
<path fill="#e7e2d8" stroke="#1b2730" stroke-width="1.6" d="M402,-36C402,-36 363,-36 363,-36 357,-36 351,-30 351,-24 351,-24 351,-12 351,-12 351,-6 357,0 363,0 363,0 402,0 402,0 408,0 414,-6 414,-12 414,-12 414,-24 414,-24 414,-30 408,-36 402,-36"/>
<text text-anchor="middle" x="382.5" y="-15.5" font-family="Avenir Next" font-size="10.00" fill="#17232b">GEOG450</text>
</a>
</g>
</g>
<!-- course__GEOG371&#45;&gt;course__GEOG450 -->
<g id="edge4" class="edge">
<title>course__GEOG371&#45;&gt;course__GEOG450</title>
<path fill="none" stroke="#5d6972" stroke-width="1.2" d="M290.18,-32.74C308.86,-29.72 327.83,-26.66 343.6,-24.12"/>
<polygon fill="#5d6972" stroke="#5d6972" stroke-width="1.2" points="344.09,-26.52 350.61,-22.98 343.31,-21.68 344.09,-26.52"/>
</g>
</g>
</svg>
