<?xml version="1.0" encoding="UTF-8" standalone="no"?>
<!DOCTYPE svg PUBLIC "-//W3C//DTD SVG 1.1//EN"
 "http://www.w3.org/Graphics/SVG/1.1/DTD/svg11.dtd">
<!-- Generated by graphviz version 2.43.0 (0)
 -->
<!-- Title: GEOG323 Pages: 1 -->
<svg width="261pt" height="135pt"
 viewBox="0.00 0.00 261.20 135.20" xmlns="http://www.w3.org/2000/svg" xmlns:xlink="http://www.w3.org/1999/xlink">
<g id="graph0" class="graph" transform="scale(1 1) rotate(0) translate(21.6 113.6)">
<title>GEOG323</title>
<!-- course__GEOG222 -->
<g id="node1" class="node">
<title>course__GEOG222</title>
<g id="a_node1"><a xlink:href="../../../courses/GEOG222.html" xlink:title="GEOG222: Introduction to GIS" target="_top">
<path fill="#e7e2d8" stroke="#1b2730" stroke-width="1.6" d="M51,-92C51,-92 12,-92 12,-92 6,-92 0,-86 0,-80 0,-80 0,-68 0,-68 0,-62 6,-56 12,-56 12,-56 51,-56 51,-56 57,-56 63,-62 63,-68 63,-68 63,-80 63,-80 63,-86 57,-92 51,-92"/>
<text text-anchor="middle" x="31.5" y="-71.5" font-family="Avenir Next" font-size="10.00" fill="#17232b">GEOG222</text>
</a>
</g>
</g>
<!-- course__GEOG323 -->
<g id="node3" class="node">
<title>course__GEOG323</title>
<g id="a_node3"><a xlink:href="../../../courses/GEOG323.html" xlink:title="GEOG323: Digital Mapping" target="_top">
<path fill="#e7e2d8" stroke="#1f4f66" stroke-width="2" d="M206,-64C206,-64 136,-64 136,-64 130,-64 124,-58 124,-52 124,-52 124,-40 124,-40 124,-34 130,-28 136,-28 136,-28 206,-28 206,-28 212,-28 218,-34 218,-40 218,-40 218,-52 218,-52 218,-58 212,-64 206,-64"/>
<text text-anchor="middle" x="171" y="-49" font-family="Avenir Next" font-size="10.00" fill="#17232b">GEOG323</text>
<text text-anchor="middle" x="171" y="-38" font-family="Avenir Next" font-size="10.00" fill="#17232b">Digital Mapping</text>
</a>
</g>
</g>
<!-- course__GEOG222&#45;&gt;course__GEOG323 -->
<g id="edge1" class="edge">
<title>course__GEOG222&#45;&gt;course__GEOG323</title>
<path fill="none" stroke="#5d6972" stroke-width="1.2" d="M63.02,-67.79C78.8,-64.57 98.53,-60.55 116.73,-56.85"/>
<polygon fill="#5d6972" stroke="#5d6972" stroke-width="1.2" points="117.52,-59.19 123.89,-55.39 116.54,-54.39 117.52,-59.19"/>
</g>
<!-- course__GEOG226 -->
<g id="node2" class="node">
<title>course__GEOG226</title>
<g id="a_node2"><a xlink:href="../../../courses/GEOG226.html" xlink:title="GEOG226: Quantitative Methods in Geography" target="_top">
<path fill="#e7e2d8" stroke="#1b2730" stroke-width="1.6" d="M51,-36C51,-36 12,-36 12,-36 6,-36 0,-30 0,-24 0,-24 0,-12 0,-12 0,-6 6,0 12,0 12,0 51,0 51,0 57,0 63,-6 63,-12 63,-12 63,-24 63,-24 63,-30 57,-36 51,-36"/>
<text text-anchor="middle" x="31.5" y="-15.5" font-family="Avenir Next" font-size="10.00" fill="#17232b">GEOG226</text>
</a>
</g>
</g>
<!-- course__GEOG226&#45;&gt;course__GEOG323 -->
<g id="edge2" class="edge">
<title>course__GEOG226&#45;&gt;course__GEOG323</title>
<path fill="none" stroke="#5d6972" stroke-width="1.2" d="M63.02,-24.21C78.8,-27.43 98.53,-31.45 116.73,-35.15"/>
<polygon fill="#5d6972" stroke="#5d6972" stroke-width="1.2" points="116.54,-37.61 123.89,-36.61 117.52,-32.81 116.54,-37.61"/>
</g>
</g>
</svg>
