<?xml version="1.0" encoding="UTF-8" standalone="no"?>
<!DOCTYPE svg PUBLIC "-//W3C//DTD SVG 1.1//EN"
 "http://www.w3.org/Graphics/SVG/1.1/DTD/svg11.dtd">
<!-- Generated by graphviz version 2.43.0 (0)
 -->
<!-- Title: GEOG228 Pages: 1 -->
<svg width="911pt" height="296pt"
 viewBox="0.00 0.00 911.20 296.20" xmlns="http://www.w3.org/2000/svg" xmlns:xlink="http://www.w3.org/1999/xlink">
<g id="graph0" class="graph" transform="scale(1 1) rotate(0) translate(21.6 274.6)">
<title>GEOG228</title>
<!-- course__GEOG228 -->
<g id="node1" class="node">
<title>course__GEOG228</title>
<g id="a_node1"><a xlink:href="../../../courses/GEOG228.html" xlink:title="GEOG228: Introduction to Remote Sensing" target="_top">
<path fill="#e7e2d8" stroke="#1f4f66" stroke-width="2" d="M495,-169C495,-169 349,-169 349,-169 343,-169 337,-163 337,-157 337,-157 337,-145 337,-145 337,-139 343,-133 349,-133 349,-133 495,-133 495,-133 501,-133 507,-139 507,-145 507,-145 507,-157 507,-157 507,-163 501,-169 495,-169"/>
<text text-anchor="middle" x="422" y="-154" font-family="Avenir Next" font-size="10.00" fill="#17232b">GEOG228</text>
<text text-anchor="middle" x="422" y="-143" font-family="Avenir Next" font-size="10.00" fill="#17232b">Introduction to Remote Sensing</text>
</a>
</g>
</g>
<!-- course__GEOG319 -->
<g id="node2" class="node">
<title>course__GEOG319</title>
<g id="a_node2"><a xlink:href="../../../courses/GEOG319.html" xlink:title="GEOG319: Remote Sensing of the Environment using Passive Sensors" target="_top">
<path fill="#e7e2d8" stroke="#1b2730" stroke-width="1.6" d="M619,-197C619,-197 580,-197 580,-197 574,-197 568,-191 568,-185 568,-185 568,-173 568,-173 568,-167 574,-161 580,-161 580,-161 619,-161 619,-161 625,-161 631,-167 631,-173 631,-173 631,-185 631,-185 631,-191 625,-197 619,-197"/>
<text text-anchor="middle" x="599.5" y="-176.5" font-family="Avenir Next" font-size="10.00" fill="#17232b">GEOG319</text>
</a>
</g>
</g>
<!-- course__GEOG228&#45;&gt;course__GEOG319 -->
<g id="edge2" class="edge">
<title>course__GEOG228&#45;&gt;course__GEOG319</title>
<path fill="none" stroke="#5d6972" stroke-width="1.2" d="M507.15,-164.43C525.92,-167.42 544.9,-170.45 560.67,-172.96"/>
<polygon fill="#5d6972" stroke="#5d6972" stroke-width="1.2" points="560.38,-175.4 567.67,-174.08 561.15,-170.56 560.38,-175.4"/>
</g>
<!-- course__GEOG322 -->
<g id="node3" class="node">
<title>course__GEOG322</title>
<g id="a_node3"><a xlink:href="../../../courses/GEOG322.html" xlink:title="GEOG322: Remote Sensing of the Environment using Active Sensors" target="_top">
<path fill="#e7e2d8" stroke="#1b2730" stroke-width="1.6" d="M619,-253C619,-253 580,-253 580,-253 574,-253 568,-247 568,-241 568,-241 568,-229 568,-229 568,-223 574,-217 580,-217 580,-217 619,-217 619,-217 625,-217 631,-223 631,-229 631,-229 631,-241 631,-241 631,-247 625,-253 619,-253"/>
<text text-anchor="middle" x="599.5" y="-232.5" font-family="Avenir Next" font-size="10.00" fill="#17232b">GEOG322</text>
</a>
</g>
</g>
<!-- course__GEOG228&#45;&gt;course__GEOG322 -->
<g id="edge3" class="edge">
<title>course__GEOG228&#45;&gt;course__GEOG322</title>
<path fill="none" stroke="#5d6972" stroke-width="1.2" d="M460.65,-169.02C490.43,-183.27 531.78,-203.06 561.41,-217.25"/>
<polygon fill="#5d6972" stroke="#5d6972" stroke-width="1.2" points="560.55,-219.55 567.92,-220.36 562.66,-215.13 560.55,-219.55"/>
</g>
<!-- course__GEOG328 -->
<g id="node4" class="node">
<title>course__GEOG328</title>
<g id="a_node4"><a xlink:href="../../../courses/GEOG328.html" xlink:title="GEOG328: GIS Analysis" target="_top">
<path fill="#e7e2d8" stroke="#1b2730" stroke-width="1.6" d="M619,-141C619,-141 580,-141 580,-141 574,-141 568,-135 568,-129 568,-129 568,-117 568,-117 568,-111 574,-105 580,-105 580,-105 619,-105 619,-105 625,-105 631,-111 631,-117 631,-117 631,-129 631,-129 631,-135 625,-141 619,-141"/>
<text text-anchor="middle" x="599.5" y="-120.5" font-family="Avenir Next" font-size="10.00" fill="#17232b">GEOG328</text>
</a>
</g>
</g>
<!-- course__GEOG228&#45;&gt;course__GEOG328 -->
<g id="edge4" class="edge">
<title>course__GEOG228&#45;&gt;course__GEOG328</title>
<path fill="none" stroke="#5d6972" stroke-width="1.2" d="M507.15,-137.57C525.92,-134.58 544.9,-131.55 560.67,-129.04"/>
<polygon fill="#5d6972" stroke="#5d6972" stroke-width="1.2" points="561.15,-131.44 567.67,-127.92 560.38,-126.6 561.15,-131.44"/>
</g>
<!-- course__GEOG329 -->
<g id="node5" class="node">
<title>course__GEOG329</title>
<g id="a_node5"><a xlink:href="../../../courses/GEOG329.html" xlink:title="GEOG329: GIS Applications and Tools" target="_top">
<path fill="#e7e2d8" stroke="#1b2730" stroke-width="1.6" d="M619,-85C619,-85 580,-85 580,-85 574,-85 568,-79 568,-73 568,-73 568,-61 568,-61 568,-55 574,-49 580,-49 580,-49 619,-49 619,-49 625,-49 631,-55 631,-61 631,-61 631,-73 631,-73 631,-79 625,-85 619,-85"/>
<text text-anchor="middle" x="599.5" y="-64.5" font-family="Avenir Next" font-size="10.00" fill="#17232b">GEOG329</text>
</a>
</g>
</g>
<!-- course__GEOG228&#45;&gt;course__GEOG329 -->
<g id="edge5" class="edge">
<title>course__GEOG228&#45;&gt;course__GEOG329</title>
<path fill="none" stroke="#5d6972" stroke-width="1.2" d="M460.65,-132.98C490.43,-118.73 531.78,-98.94 561.41,-84.75"/>
<polygon fill="#5d6972" stroke="#5d6972" stroke-width="1.2" points="562.66,-86.87 567.92,-81.64 560.55,-82.45 562.66,-86.87"/>
</g>
<!-- course__GEOG420 -->
<g id="node7" class="node">
<title>course__GEOG420</title>
<g id="a_node7"><a xlink:href="../../../courses/GEOG420.html" xlink:title="GEOG420: Field Studies in Coastal Geomatics" target="_top">
<path fill="#e7e2d8" stroke="#7e8d96" d="M856,-172C856,-172 819,-172 819,-172 813,-172 807,-166 807,-160 807,-160 807,-148 807,-148 807,-142 813,-136 819,-136 819,-136 856,-136 856,-136 862,-136 868,-142 868,-148 868,-148 868,-160 868,-160 868,-166 862,-172 856,-172"/>
<text text-anchor="middle" x="837.5" y="-151.8" font-family="Avenir Next" font-size="9.00" fill="#41515b">GEOG420</text>
</a>
</g>
</g>
<!-- course__GEOG319&#45;&gt;course__GEOG420 -->
<g id="edge11" class="edge">
<title>course__GEOG319&#45;&gt;course__GEOG420</title>
<path fill="none" stroke="#5d6972" stroke-width="1.2" d="M631.35,-175.73C674.64,-171.15 753.28,-162.82 799.61,-157.91"/>
<polygon fill="#5d6972" stroke="#5d6972" stroke-width="1.2" points="800.05,-160.32 806.76,-157.15 799.54,-155.45 800.05,-160.32"/>
</g>
<!-- choice_GEOG422_0 -->
<g id="node13" class="node">
<title>choice_GEOG422_0</title>
<path fill="#fff7ee" stroke="#b7793f" stroke-width="1.1" d="M734,-249C734,-249 704,-249 704,-249 698,-249 692,-243 692,-237 692,-237 692,-225 692,-225 692,-219 698,-213 704,-213 704,-213 734,-213 734,-213 740,-213 746,-219 746,-225 746,-225 746,-237 746,-237 746,-243 740,-249 734,-249"/>
<text text-anchor="middle" x="719" y="-228.8" font-family="Avenir Next" font-size="9.00">1 of</text>
</g>
<!-- course__GEOG319&#45;&gt;choice_GEOG422_0 -->
<g id="edge13" class="edge">
<title>course__GEOG319&#45;&gt;choice_GEOG422_0</title>
<path fill="none" stroke="#7a8389" d="M631.07,-192.53C647.75,-199.91 668.42,-209.06 685.41,-216.58"/>
<polygon fill="#7a8389" stroke="#7a8389" points="684.57,-218.89 691.97,-219.48 686.56,-214.41 684.57,-218.89"/>
</g>
<!-- course__GEOG322&#45;&gt;choice_GEOG422_0 -->
<g id="edge14" class="edge">
<title>course__GEOG322&#45;&gt;choice_GEOG422_0</title>
<path fill="none" stroke="#7a8389" d="M631.07,-233.96C647.61,-233.4 668.05,-232.7 684.96,-232.12"/>
<polygon fill="#7a8389" stroke="#7a8389" points="685.05,-234.57 691.97,-231.89 684.89,-229.68 685.05,-234.57"/>
</g>
<!-- choice_GEOG418_0 -->
<g id="node11" class="node">
<title>choice_GEOG418_0</title>
<path fill="#fff7ee" stroke="#b7793f" stroke-width="1.1" d="M734,-92C734,-92 704,-92 704,-92 698,-92 692,-86 692,-80 692,-80 692,-68 692,-68 692,-62 698,-56 704,-56 704,-56 734,-56 734,-56 740,-56 746,-62 746,-68 746,-68 746,-80 746,-80 746,-86 740,-92 734,-92"/>
<text text-anchor="middle" x="719" y="-71.8" font-family="Avenir Next" font-size="9.00">1 of</text>
</g>
<!-- course__GEOG328&#45;&gt;choice_GEOG418_0 -->
<g id="edge6" class="edge">
<title>course__GEOG328&#45;&gt;choice_GEOG418_0</title>
<path fill="none" stroke="#7a8389" d="M631.07,-110.25C647.75,-103.29 668.42,-94.68 685.41,-87.59"/>
<polygon fill="#7a8389" stroke="#7a8389" points="686.45,-89.81 691.97,-84.86 684.56,-85.29 686.45,-89.81"/>
</g>
<!-- choice_GEOG420_0_1 -->
<g id="node12" class="node">
<title>choice_GEOG420_0_1</title>
<path fill="#fff7ee" stroke="#b7793f" stroke-width="1.1" d="M734,-148C734,-148 704,-148 704,-148 698,-148 692,-142 692,-136 692,-136 692,-124 692,-124 692,-118 698,-112 704,-112 704,-112 734,-112 734,-112 740,-112 746,-118 746,-124 746,-124 746,-136 746,-136 746,-142 740,-148 734,-148"/>
<text text-anchor="middle" x="719" y="-127.8" font-family="Avenir Next" font-size="9.00">1 of</text>
</g>
<!-- course__GEOG328&#45;&gt;choice_GEOG420_0_1 -->
<g id="edge9" class="edge">
<title>course__GEOG328&#45;&gt;choice_GEOG420_0_1</title>
<path fill="none" stroke="#7a8389" d="M631.07,-124.82C647.61,-125.81 668.05,-127.02 684.96,-128.03"/>
<polygon fill="#7a8389" stroke="#7a8389" points="684.83,-130.48 691.97,-128.45 685.13,-125.59 684.83,-130.48"/>
</g>
<!-- choice_GEOG428_0 -->
<g id="node14" class="node">
<title>choice_GEOG428_0</title>
<path fill="#fff7ee" stroke="#b7793f" stroke-width="1.1" d="M734,-36C734,-36 704,-36 704,-36 698,-36 692,-30 692,-24 692,-24 692,-12 692,-12 692,-6 698,0 704,0 704,0 734,0 734,0 740,0 746,-6 746,-12 746,-12 746,-24 746,-24 746,-30 740,-36 734,-36"/>
<text text-anchor="middle" x="719" y="-15.8" font-family="Avenir Next" font-size="9.00">1 of</text>
</g>
<!-- course__GEOG328&#45;&gt;choice_GEOG428_0 -->
<g id="edge16" class="edge">
<title>course__GEOG328&#45;&gt;choice_GEOG428_0</title>
<path fill="none" stroke="#7a8389" d="M620.7,-104.95C640.54,-87.22 670.88,-60.11 692.4,-40.87"/>
<polygon fill="#7a8389" stroke="#7a8389" points="694.08,-42.66 697.67,-36.17 690.82,-39 694.08,-42.66"/>
</g>
<!-- course__GEOG329&#45;&gt;choice_GEOG418_0 -->
<g id="edge7" class="edge">
<title>course__GEOG329&#45;&gt;choice_GEOG418_0</title>
<path fill="none" stroke="#7a8389" d="M631.07,-68.82C647.61,-69.81 668.05,-71.02 684.96,-72.03"/>
<polygon fill="#7a8389" stroke="#7a8389" points="684.83,-74.48 691.97,-72.45 685.13,-69.59 684.83,-74.48"/>
</g>
<!-- course__GEOG329&#45;&gt;choice_GEOG420_0_1 -->
<g id="edge10" class="edge">
<title>course__GEOG329&#45;&gt;choice_GEOG420_0_1</title>
<path fill="none" stroke="#7a8389" d="M631.07,-83.39C647.75,-92.34 668.42,-103.42 685.41,-112.53"/>
<polygon fill="#7a8389" stroke="#7a8389" points="684.64,-114.89 691.97,-116.04 686.96,-110.58 684.64,-114.89"/>
</g>
<!-- course__GEOG329&#45;&gt;choice_GEOG428_0 -->
<g id="edge17" class="edge">
<title>course__GEOG329&#45;&gt;choice_GEOG428_0</title>
<path fill="none" stroke="#7a8389" d="M631.07,-54.25C647.75,-47.29 668.42,-38.68 685.41,-31.59"/>
<polygon fill="#7a8389" stroke="#7a8389" points="686.45,-33.81 691.97,-28.86 684.56,-29.29 686.45,-33.81"/>
</g>
<!-- course__GEOG418 -->
<g id="node6" class="node">
<title>course__GEOG418</title>
<g id="a_node6"><a xlink:href="../../../courses/GEOG418.html" xlink:title="GEOG418: Advanced Spatial Analysis and Geo&#45;statistics" target="_top">
<path fill="#e7e2d8" stroke="#7e8d96" d="M856,-92C856,-92 819,-92 819,-92 813,-92 807,-86 807,-80 807,-80 807,-68 807,-68 807,-62 813,-56 819,-56 819,-56 856,-56 856,-56 862,-56 868,-62 868,-68 868,-68 868,-80 868,-80 868,-86 862,-92 856,-92"/>
<text text-anchor="middle" x="837.5" y="-71.8" font-family="Avenir Next" font-size="9.00" fill="#41515b">GEOG418</text>
</a>
</g>
</g>
<!-- course__GEOG422 -->
<g id="node8" class="node">
<title>course__GEOG422</title>
<g id="a_node8"><a xlink:href="../../../courses/GEOG422.html" xlink:title="GEOG422: Advanced Topics in Remote Sensing" target="_top">
<path fill="#e7e2d8" stroke="#7e8d96" d="M856,-249C856,-249 819,-249 819,-249 813,-249 807,-243 807,-237 807,-237 807,-225 807,-225 807,-219 813,-213 819,-213 819,-213 856,-213 856,-213 862,-213 868,-219 868,-225 868,-225 868,-237 868,-237 868,-243 862,-249 856,-249"/>
<text text-anchor="middle" x="837.5" y="-228.8" font-family="Avenir Next" font-size="9.00" fill="#41515b">GEOG422</text>
</a>
</g>
</g>
<!-- course__GEOG428 -->
<g id="node9" class="node">
<title>course__GEOG428</title>
<g id="a_node9"><a xlink:href="../../../courses/GEOG428.html" xlink:title="GEOG428: Advanced Topics in Geographic Information Sciences" target="_top">
<path fill="#e7e2d8" stroke="#7e8d96" d="M856,-36C856,-36 819,-36 819,-36 813,-36 807,-30 807,-24 807,-24 807,-12 807,-12 807,-6 813,0 819,0 819,0 856,0 856,0 862,0 868,-6 868,-12 868,-12 868,-24 868,-24 868,-30 862,-36 856,-36"/>
<text text-anchor="middle" x="837.5" y="-15.8" font-family="Avenir Next" font-size="9.00" fill="#41515b">GEOG428</text>
</a>
</g>
</g>
<!-- GEOG228_notes -->
<g id="node10" class="node">
<title>GEOG228_notes</title>
<polygon fill="#fff7ee" stroke="#b7793f" stroke-width="1.1" points="208,-174 0,-174 0,-128 214,-128 214,-168 208,-174"/>
<polyline fill="none" stroke="#b7793f" stroke-width="1.1" points="208,-174 208,-168 "/>
<polyline fill="none" stroke="#b7793f" stroke-width="1.1" points="214,-168 208,-168 "/>
<text text-anchor="start" x="13" y="-154.4" font-family="Avenir Next" font-size="12.00">Published notes</text>
<text text-anchor="start" x="13" y="-141.4" font-family="Avenir Next" font-size="12.00">Minimum second&#45;year standing</text>
</g>
<!-- GEOG228_notes&#45;&gt;course__GEOG228 -->
<!-- choice_GEOG418_0&#45;&gt;course__GEOG418 -->
<g id="edge8" class="edge">
<title>choice_GEOG418_0&#45;&gt;course__GEOG418</title>
<path fill="none" stroke="#5d6972" stroke-width="1.2" d="M746.14,-74C761.88,-74 782.15,-74 799.51,-74"/>
<polygon fill="#5d6972" stroke="#5d6972" stroke-width="1.2" points="799.75,-76.45 806.75,-74 799.75,-71.55 799.75,-76.45"/>
</g>
<!-- choice_GEOG420_0_1&#45;&gt;course__GEOG420 -->
<g id="edge12" class="edge">
<title>choice_GEOG420_0_1&#45;&gt;course__GEOG420</title>
<path fill="none" stroke="#5d6972" stroke-width="1.2" d="M746.14,-135.39C761.88,-138.63 782.15,-142.8 799.51,-146.38"/>
<polygon fill="#5d6972" stroke="#5d6972" stroke-width="1.2" points="799.4,-148.86 806.75,-147.87 800.38,-144.06 799.4,-148.86"/>
</g>
<!-- choice_GEOG422_0&#45;&gt;course__GEOG422 -->
<g id="edge15" class="edge">
<title>choice_GEOG422_0&#45;&gt;course__GEOG422</title>
<path fill="none" stroke="#5d6972" stroke-width="1.2" d="M746.14,-231C761.88,-231 782.15,-231 799.51,-231"/>
<polygon fill="#5d6972" stroke="#5d6972" stroke-width="1.2" points="799.75,-233.45 806.75,-231 799.75,-228.55 799.75,-233.45"/>
</g>
<!-- choice_GEOG428_0&#45;&gt;course__GEOG428 -->
<g id="edge18" class="edge">
<title>choice_GEOG428_0&#45;&gt;course__GEOG428</title>
<path fill="none" stroke="#5d6972" stroke-width="1.2" d="M746.14,-18C761.88,-18 782.15,-18 799.51,-18"/>
<polygon fill="#5d6972" stroke="#5d6972" stroke-width="1.2" points="799.75,-20.45 806.75,-18 799.75,-15.55 799.75,-20.45"/>
</g>
</g>
</svg>
