<?xml version="1.0" encoding="UTF-8" standalone="no"?>
<!DOCTYPE svg PUBLIC "-//W3C//DTD SVG 1.1//EN"
 "http://www.w3.org/Graphics/SVG/1.1/DTD/svg11.dtd">
<!-- Generated by graphviz version 2.43.0 (0)
 -->
<!-- Title: GEOG329 Pages: 1 -->
<svg width="436pt" height="191pt"
 viewBox="0.00 0.00 436.20 191.20" xmlns="http://www.w3.org/2000/svg" xmlns:xlink="http://www.w3.org/1999/xlink">
<g id="graph0" class="graph" transform="scale(1 1) rotate(0) translate(21.6 169.6)">
<title>GEOG329</title>
<!-- course__GEOG222 -->
<g id="node1" class="node">
<title>course__GEOG222</title>
<g id="a_node1"><a xlink:href="../../../courses/GEOG222.html" xlink:title="GEOG222: Introduction to GIS" target="_top">
<path fill="#e7e2d8" stroke="#1b2730" stroke-width="1.6" d="M51,-148C51,-148 12,-148 12,-148 6,-148 0,-142 0,-136 0,-136 0,-124 0,-124 0,-118 6,-112 12,-112 12,-112 51,-112 51,-112 57,-112 63,-118 63,-124 63,-124 63,-136 63,-136 63,-142 57,-148 51,-148"/>
<text text-anchor="middle" x="31.5" y="-127.5" font-family="Avenir Next" font-size="10.00" fill="#17232b">GEOG222</text>
</a>
</g>
</g>
<!-- course__GEOG329 -->
<g id="node4" class="node">
<title>course__GEOG329</title>
<g id="a_node4"><a xlink:href="../../../courses/GEOG329.html" xlink:title="GEOG329: GIS Applications and Tools" target="_top">
<path fill="#e7e2d8" stroke="#1f4f66" stroke-width="2" d="M257,-92C257,-92 136,-92 136,-92 130,-92 124,-86 124,-80 124,-80 124,-68 124,-68 124,-62 130,-56 136,-56 136,-56 257,-56 257,-56 263,-56 269,-62 269,-68 269,-68 269,-80 269,-80 269,-86 263,-92 257,-92"/>
<text text-anchor="middle" x="196.5" y="-77" font-family="Avenir Next" font-size="10.00" fill="#17232b">GEOG329</text>
<text text-anchor="middle" x="196.5" y="-66" font-family="Avenir Next" font-size="10.00" fill="#17232b">GIS Applications and Tools</text>
</a>
</g>
</g>
<!-- course__GEOG222&#45;&gt;course__GEOG329 -->
<g id="edge1" class="edge">
<title>course__GEOG222&#45;&gt;course__GEOG329</title>
<path fill="none" stroke="#5d6972" stroke-width="1.2" d="M63.16,-119.47C83.64,-112.43 111.26,-102.94 135.97,-94.45"/>
<polygon fill="#5d6972" stroke="#5d6972" stroke-width="1.2" points="137.03,-96.68 142.85,-92.09 135.43,-92.05 137.03,-96.68"/>
</g>
<!-- course__GEOG226 -->
<g id="node2" class="node">
<title>course__GEOG226</title>
<g id="a_node2"><a xlink:href="../../../courses/GEOG226.html" xlink:title="GEOG226: Quantitative Methods in Geography" target="_top">
<path fill="#e7e2d8" stroke="#1b2730" stroke-width="1.6" d="M51,-92C51,-92 12,-92 12,-92 6,-92 0,-86 0,-80 0,-80 0,-68 0,-68 0,-62 6,-56 12,-56 12,-56 51,-56 51,-56 57,-56 63,-62 63,-68 63,-68 63,-80 63,-80 63,-86 57,-92 51,-92"/>
<text text-anchor="middle" x="31.5" y="-71.5" font-family="Avenir Next" font-size="10.00" fill="#17232b">GEOG226</text>
</a>
</g>
</g>
<!-- course__GEOG226&#45;&gt;course__GEOG329 -->
<g id="edge3" class="edge">
<title>course__GEOG226&#45;&gt;course__GEOG329</title>
<path fill="none" stroke="#5d6972" stroke-width="1.2" d="M63.16,-74C78.44,-74 97.68,-74 116.73,-74"/>
<polygon fill="#5d6972" stroke="#5d6972" stroke-width="1.2" points="116.73,-76.45 123.73,-74 116.73,-71.55 116.73,-76.45"/>
</g>
<!-- course__GEOG228 -->
<g id="node3" class="node">
<title>course__GEOG228</title>
<g id="a_node3"><a xlink:href="../../../courses/GEOG228.html" xlink:title="GEOG228: Introduction to Remote Sensing" target="_top">
<path fill="#e7e2d8" stroke="#1b2730" stroke-width="1.6" d="M51,-36C51,-36 12,-36 12,-36 6,-36 0,-30 0,-24 0,-24 0,-12 0,-12 0,-6 6,0 12,0 12,0 51,0 51,0 57,0 63,-6 63,-12 63,-12 63,-24 63,-24 63,-30 57,-36 51,-36"/>
<text text-anchor="middle" x="31.5" y="-15.5" font-family="Avenir Next" font-size="10.00" fill="#17232b">GEOG228</text>
</a>
</g>
</g>
<!-- course__GEOG228&#45;&gt;course__GEOG329 -->
<g id="edge2" class="edge">
<title>course__GEOG228&#45;&gt;course__GEOG329</title>
<path fill="none" stroke="#5d6972" stroke-width="1.2" d="M63.16,-28.53C83.64,-35.57 111.26,-45.06 135.97,-53.55"/>
<polygon fill="#5d6972" stroke="#5d6972" stroke-width="1.2" points="135.43,-55.95 142.85,-55.91 137.03,-51.32 135.43,-55.95"/>
</g>
<!-- course__GEOG418 -->
<g id="node5" class="node">
<title>course__GEOG418</title>
<g id="a_node5"><a xlink:href="../../../courses/GEOG418.html" xlink:title="GEOG418: Advanced Spatial Analysis and Geo&#45;statistics" target="_top">
<path fill="#e7e2d8" stroke="#1b2730" stroke-width="1.6" d="M381,-148C381,-148 342,-148 342,-148 336,-148 330,-142 330,-136 330,-136 330,-124 330,-124 330,-118 336,-112 342,-112 342,-112 381,-112 381,-112 387,-112 393,-118 393,-124 393,-124 393,-136 393,-136 393,-142 387,-148 381,-148"/>
<text text-anchor="middle" x="361.5" y="-127.5" font-family="Avenir Next" font-size="10.00" fill="#17232b">GEOG418</text>
</a>
</g>
</g>
<!-- course__GEOG329&#45;&gt;course__GEOG418 -->
<g id="edge4" class="edge">
<title>course__GEOG329&#45;&gt;course__GEOG418</title>
<path fill="none" stroke="#5d6972" stroke-width="1.2" d="M249.97,-92.03C273.82,-100.22 301.49,-109.73 323.17,-117.18"/>
<polygon fill="#5d6972" stroke="#5d6972" stroke-width="1.2" points="322.57,-119.56 329.99,-119.52 324.17,-114.93 322.57,-119.56"/>
</g>
<!-- course__GEOG420 -->
<g id="node6" class="node">
<title>course__GEOG420</title>
<g id="a_node6"><a xlink:href="../../../courses/GEOG420.html" xlink:title="GEOG420: Field Studies in Coastal Geomatics" target="_top">
<path fill="#e7e2d8" stroke="#1b2730" stroke-width="1.6" d="M381,-92C381,-92 342,-92 342,-92 336,-92 330,-86 330,-80 330,-80 330,-68 330,-68 330,-62 336,-56 342,-56 342,-56 381,-56 381,-56 387,-56 393,-62 393,-68 393,-68 393,-80 393,-80 393,-86 387,-92 381,-92"/>
<text text-anchor="middle" x="361.5" y="-71.5" font-family="Avenir Next" font-size="10.00" fill="#17232b">GEOG420</text>
</a>
</g>
</g>
<!-- course__GEOG329&#45;&gt;course__GEOG420 -->
<g id="edge5" class="edge">
<title>course__GEOG329&#45;&gt;course__GEOG420</title>
<path fill="none" stroke="#5d6972" stroke-width="1.2" d="M269.47,-74C287.81,-74 306.8,-74 322.67,-74"/>
<polygon fill="#5d6972" stroke="#5d6972" stroke-width="1.2" points="322.72,-76.45 329.72,-74 322.72,-71.55 322.72,-76.45"/>
</g>
<!-- course__GEOG428 -->
<g id="node7" class="node">
<title>course__GEOG428</title>
<g id="a_node7"><a xlink:href="../../../courses/GEOG428.html" xlink:title="GEOG428: Advanced Topics in Geographic Information Sciences" target="_top">
<path fill="#e7e2d8" stroke="#1b2730" stroke-width="1.6" d="M381,-36C381,-36 342,-36 342,-36 336,-36 330,-30 330,-24 330,-24 330,-12 330,-12 330,-6 336,0 342,0 342,0 381,0 381,0 387,0 393,-6 393,-12 393,-12 393,-24 393,-24 393,-30 387,-36 381,-36"/>
<text text-anchor="middle" x="361.5" y="-15.5" font-family="Avenir Next" font-size="10.00" fill="#17232b">GEOG428</text>
</a>
</g>
</g>
<!-- course__GEOG329&#45;&gt;course__GEOG428 -->
<g id="edge6" class="edge">
<title>course__GEOG329&#45;&gt;course__GEOG428</title>
<path fill="none" stroke="#5d6972" stroke-width="1.2" d="M249.97,-55.97C273.82,-47.78 301.49,-38.27 323.17,-30.82"/>
<polygon fill="#5d6972" stroke="#5d6972" stroke-width="1.2" points="324.17,-33.07 329.99,-28.48 322.57,-28.44 324.17,-33.07"/>
</g>
</g>
</svg>
