<?xml version="1.0" encoding="UTF-8" standalone="no"?>
<!DOCTYPE svg PUBLIC "-//W3C//DTD SVG 1.1//EN"
 "http://www.w3.org/Graphics/SVG/1.1/DTD/svg11.dtd">
<!-- Generated by graphviz version 2.43.0 (0)
 -->
<!-- Title: GEOG103 Pages: 1 -->
<svg width="315pt" height="247pt"
 viewBox="0.00 0.00 315.20 247.20" xmlns="http://www.w3.org/2000/svg" xmlns:xlink="http://www.w3.org/1999/xlink">
<g id="graph0" class="graph" transform="scale(1 1) rotate(0) translate(21.6 225.6)">
<title>GEOG103</title>
<!-- course__GEOG103 -->
<g id="node1" class="node">
<title>course__GEOG103</title>
<g id="a_node1"><a xlink:href="../../../courses/GEOG103.html" xlink:title="GEOG103: Our Natural Earth" target="_top">
<path fill="#e7e2d8" stroke="#1f4f66" stroke-width="2" d="M89,-120C89,-120 12,-120 12,-120 6,-120 0,-114 0,-108 0,-108 0,-96 0,-96 0,-90 6,-84 12,-84 12,-84 89,-84 89,-84 95,-84 101,-90 101,-96 101,-96 101,-108 101,-108 101,-114 95,-120 89,-120"/>
<text text-anchor="middle" x="50.5" y="-105" font-family="Avenir Next" font-size="10.00" fill="#17232b">GEOG103</text>
<text text-anchor="middle" x="50.5" y="-94" font-family="Avenir Next" font-size="10.00" fill="#17232b">Our Natural Earth</text>
</a>
</g>
</g>
<!-- course__EOS230 -->
<g id="node2" class="node">
<title>course__EOS230</title>
<g id="a_node2"><a xlink:href="../../../courses/EOS230.html" xlink:title="Equivalent or cross&#45;listed: EOS230: Introduction to Environmental Data Analysis | GEOG230: Introduction to Environmental Data Analysis" target="_top">
<path fill="#d7e9ef" stroke="#1b2730" stroke-width="1.6" d="M260,-204C260,-204 174,-204 174,-204 168,-204 162,-198 162,-192 162,-192 162,-180 162,-180 162,-174 168,-168 174,-168 174,-168 260,-168 260,-168 266,-168 272,-174 272,-180 272,-180 272,-192 272,-192 272,-198 266,-204 260,-204"/>
<text text-anchor="middle" x="217" y="-183.5" font-family="Avenir Next" font-size="10.00" fill="#17232b">EOS230 / GEOG230</text>
</a>
</g>
</g>
<!-- course__GEOG103&#45;&gt;course__EOS230 -->
<g id="edge1" class="edge">
<title>course__GEOG103&#45;&gt;course__EOS230</title>
<path fill="none" stroke="#5d6972" stroke-width="1.2" d="M86.79,-120.02C112.4,-133.1 147.14,-150.84 174.15,-164.63"/>
<polygon fill="#5d6972" stroke="#5d6972" stroke-width="1.2" points="173.14,-166.86 180.49,-167.86 175.37,-162.5 173.14,-166.86"/>
</g>
<!-- course__EOS261 -->
<g id="node3" class="node">
<title>course__EOS261</title>
<g id="a_node3"><a xlink:href="../../../courses/EOS261.html" xlink:title="EOS261: The Climate System" target="_top">
<path fill="#d7e9ef" stroke="#1b2730" stroke-width="1.6" d="M232,-148C232,-148 202,-148 202,-148 196,-148 190,-142 190,-136 190,-136 190,-124 190,-124 190,-118 196,-112 202,-112 202,-112 232,-112 232,-112 238,-112 244,-118 244,-124 244,-124 244,-136 244,-136 244,-142 238,-148 232,-148"/>
<text text-anchor="middle" x="217" y="-127.5" font-family="Avenir Next" font-size="10.00" fill="#17232b">EOS261</text>
</a>
</g>
</g>
<!-- course__GEOG103&#45;&gt;course__EOS261 -->
<g id="edge2" class="edge">
<title>course__GEOG103&#45;&gt;course__EOS261</title>
<path fill="none" stroke="#5d6972" stroke-width="1.2" d="M101.3,-110.48C127.7,-114.97 159.4,-120.37 182.78,-124.35"/>
<polygon fill="#5d6972" stroke="#5d6972" stroke-width="1.2" points="182.44,-126.77 189.76,-125.53 183.27,-121.94 182.44,-126.77"/>
</g>
<!-- course__GEOG209 -->
<g id="node4" class="node">
<title>course__GEOG209</title>
<g id="a_node4"><a xlink:href="../../../courses/GEOG209.html" xlink:title="GEOG209: Environmental Management" target="_top">
<path fill="#e7e2d8" stroke="#1b2730" stroke-width="1.6" d="M236.5,-92C236.5,-92 197.5,-92 197.5,-92 191.5,-92 185.5,-86 185.5,-80 185.5,-80 185.5,-68 185.5,-68 185.5,-62 191.5,-56 197.5,-56 197.5,-56 236.5,-56 236.5,-56 242.5,-56 248.5,-62 248.5,-68 248.5,-68 248.5,-80 248.5,-80 248.5,-86 242.5,-92 236.5,-92"/>
<text text-anchor="middle" x="217" y="-71.5" font-family="Avenir Next" font-size="10.00" fill="#17232b">GEOG209</text>
</a>
</g>
</g>
<!-- course__GEOG103&#45;&gt;course__GEOG209 -->
<g id="edge3" class="edge">
<title>course__GEOG103&#45;&gt;course__GEOG209</title>
<path fill="none" stroke="#5d6972" stroke-width="1.2" d="M101.3,-93.52C126.05,-89.31 155.46,-84.3 178.3,-80.42"/>
<polygon fill="#5d6972" stroke="#5d6972" stroke-width="1.2" points="178.99,-82.79 185.48,-79.2 178.16,-77.96 178.99,-82.79"/>
</g>
<!-- course__GEOG272 -->
<g id="node5" class="node">
<title>course__GEOG272</title>
<g id="a_node5"><a xlink:href="../../../courses/GEOG272.html" xlink:title="GEOG272: Climatology and Hydrology" target="_top">
<path fill="#e7e2d8" stroke="#1b2730" stroke-width="1.6" d="M236.5,-36C236.5,-36 197.5,-36 197.5,-36 191.5,-36 185.5,-30 185.5,-24 185.5,-24 185.5,-12 185.5,-12 185.5,-6 191.5,0 197.5,0 197.5,0 236.5,0 236.5,0 242.5,0 248.5,-6 248.5,-12 248.5,-12 248.5,-24 248.5,-24 248.5,-30 242.5,-36 236.5,-36"/>
<text text-anchor="middle" x="217" y="-15.5" font-family="Avenir Next" font-size="10.00" fill="#17232b">GEOG272</text>
</a>
</g>
</g>
<!-- course__GEOG103&#45;&gt;course__GEOG272 -->
<g id="edge4" class="edge">
<title>course__GEOG103&#45;&gt;course__GEOG272</title>
<path fill="none" stroke="#5d6972" stroke-width="1.2" d="M86.79,-83.98C113.97,-70.1 151.44,-50.97 179.03,-36.88"/>
<polygon fill="#5d6972" stroke="#5d6972" stroke-width="1.2" points="180.35,-38.96 185.47,-33.59 178.12,-34.59 180.35,-38.96"/>
</g>
</g>
</svg>
