<?xml version="1.0" encoding="UTF-8" standalone="no"?>
<!DOCTYPE svg PUBLIC "-//W3C//DTD SVG 1.1//EN"
 "http://www.w3.org/Graphics/SVG/1.1/DTD/svg11.dtd">
<!-- Generated by graphviz version 2.43.0 (0)
 -->
<!-- Title: GEOG228 Pages: 1 -->
<svg width="674pt" height="247pt"
 viewBox="0.00 0.00 674.20 247.20" xmlns="http://www.w3.org/2000/svg" xmlns:xlink="http://www.w3.org/1999/xlink">
<g id="graph0" class="graph" transform="scale(1 1) rotate(0) translate(21.6 225.6)">
<title>GEOG228</title>
<!-- course__GEOG228 -->
<g id="node1" class="node">
<title>course__GEOG228</title>
<g id="a_node1"><a xlink:href="../../../courses/GEOG228.html" xlink:title="GEOG228: Introduction to Remote Sensing" target="_top">
<path fill="#e7e2d8" stroke="#1f4f66" stroke-width="2" d="M495,-120C495,-120 349,-120 349,-120 343,-120 337,-114 337,-108 337,-108 337,-96 337,-96 337,-90 343,-84 349,-84 349,-84 495,-84 495,-84 501,-84 507,-90 507,-96 507,-96 507,-108 507,-108 507,-114 501,-120 495,-120"/>
<text text-anchor="middle" x="422" y="-105" font-family="Avenir Next" font-size="10.00" fill="#17232b">GEOG228</text>
<text text-anchor="middle" x="422" y="-94" font-family="Avenir Next" font-size="10.00" fill="#17232b">Introduction to Remote Sensing</text>
</a>
</g>
</g>
<!-- course__GEOG319 -->
<g id="node2" class="node">
<title>course__GEOG319</title>
<g id="a_node2"><a xlink:href="../../../courses/GEOG319.html" xlink:title="GEOG319: Remote Sensing of the Environment using Passive Sensors" target="_top">
<path fill="#e7e2d8" stroke="#1b2730" stroke-width="1.6" d="M619,-204C619,-204 580,-204 580,-204 574,-204 568,-198 568,-192 568,-192 568,-180 568,-180 568,-174 574,-168 580,-168 580,-168 619,-168 619,-168 625,-168 631,-174 631,-180 631,-180 631,-192 631,-192 631,-198 625,-204 619,-204"/>
<text text-anchor="middle" x="599.5" y="-183.5" font-family="Avenir Next" font-size="10.00" fill="#17232b">GEOG319</text>
</a>
</g>
</g>
<!-- course__GEOG228&#45;&gt;course__GEOG319 -->
<g id="edge2" class="edge">
<title>course__GEOG228&#45;&gt;course__GEOG319</title>
<path fill="none" stroke="#5d6972" stroke-width="1.2" d="M460.65,-120.02C490.43,-134.27 531.78,-154.06 561.41,-168.25"/>
<polygon fill="#5d6972" stroke="#5d6972" stroke-width="1.2" points="560.55,-170.55 567.92,-171.36 562.66,-166.13 560.55,-170.55"/>
</g>
<!-- course__GEOG322 -->
<g id="node3" class="node">
<title>course__GEOG322</title>
<g id="a_node3"><a xlink:href="../../../courses/GEOG322.html" xlink:title="GEOG322: Remote Sensing of the Environment using Active Sensors" target="_top">
<path fill="#e7e2d8" stroke="#1b2730" stroke-width="1.6" d="M619,-148C619,-148 580,-148 580,-148 574,-148 568,-142 568,-136 568,-136 568,-124 568,-124 568,-118 574,-112 580,-112 580,-112 619,-112 619,-112 625,-112 631,-118 631,-124 631,-124 631,-136 631,-136 631,-142 625,-148 619,-148"/>
<text text-anchor="middle" x="599.5" y="-127.5" font-family="Avenir Next" font-size="10.00" fill="#17232b">GEOG322</text>
</a>
</g>
</g>
<!-- course__GEOG228&#45;&gt;course__GEOG322 -->
<g id="edge3" class="edge">
<title>course__GEOG228&#45;&gt;course__GEOG322</title>
<path fill="none" stroke="#5d6972" stroke-width="1.2" d="M507.15,-115.43C525.92,-118.42 544.9,-121.45 560.67,-123.96"/>
<polygon fill="#5d6972" stroke="#5d6972" stroke-width="1.2" points="560.38,-126.4 567.67,-125.08 561.15,-121.56 560.38,-126.4"/>
</g>
<!-- course__GEOG328 -->
<g id="node4" class="node">
<title>course__GEOG328</title>
<g id="a_node4"><a xlink:href="../../../courses/GEOG328.html" xlink:title="GEOG328: GIS Analysis" target="_top">
<path fill="#e7e2d8" stroke="#1b2730" stroke-width="1.6" d="M619,-92C619,-92 580,-92 580,-92 574,-92 568,-86 568,-80 568,-80 568,-68 568,-68 568,-62 574,-56 580,-56 580,-56 619,-56 619,-56 625,-56 631,-62 631,-68 631,-68 631,-80 631,-80 631,-86 625,-92 619,-92"/>
<text text-anchor="middle" x="599.5" y="-71.5" font-family="Avenir Next" font-size="10.00" fill="#17232b">GEOG328</text>
</a>
</g>
</g>
<!-- course__GEOG228&#45;&gt;course__GEOG328 -->
<g id="edge4" class="edge">
<title>course__GEOG228&#45;&gt;course__GEOG328</title>
<path fill="none" stroke="#5d6972" stroke-width="1.2" d="M507.15,-88.57C525.92,-85.58 544.9,-82.55 560.67,-80.04"/>
<polygon fill="#5d6972" stroke="#5d6972" stroke-width="1.2" points="561.15,-82.44 567.67,-78.92 560.38,-77.6 561.15,-82.44"/>
</g>
<!-- course__GEOG329 -->
<g id="node5" class="node">
<title>course__GEOG329</title>
<g id="a_node5"><a xlink:href="../../../courses/GEOG329.html" xlink:title="GEOG329: GIS Applications and Tools" target="_top">
<path fill="#e7e2d8" stroke="#1b2730" stroke-width="1.6" d="M619,-36C619,-36 580,-36 580,-36 574,-36 568,-30 568,-24 568,-24 568,-12 568,-12 568,-6 574,0 580,0 580,0 619,0 619,0 625,0 631,-6 631,-12 631,-12 631,-24 631,-24 631,-30 625,-36 619,-36"/>
<text text-anchor="middle" x="599.5" y="-15.5" font-family="Avenir Next" font-size="10.00" fill="#17232b">GEOG329</text>
</a>
</g>
</g>
<!-- course__GEOG228&#45;&gt;course__GEOG329 -->
<g id="edge5" class="edge">
<title>course__GEOG228&#45;&gt;course__GEOG329</title>
<path fill="none" stroke="#5d6972" stroke-width="1.2" d="M460.65,-83.98C490.43,-69.73 531.78,-49.94 561.41,-35.75"/>
<polygon fill="#5d6972" stroke="#5d6972" stroke-width="1.2" points="562.66,-37.87 567.92,-32.64 560.55,-33.45 562.66,-37.87"/>
</g>
<!-- GEOG228_notes -->
<g id="node6" class="node">
<title>GEOG228_notes</title>
<polygon fill="#fff7ee" stroke="#b7793f" stroke-width="1.1" points="208,-125 0,-125 0,-79 214,-79 214,-119 208,-125"/>
<polyline fill="none" stroke="#b7793f" stroke-width="1.1" points="208,-125 208,-119 "/>
<polyline fill="none" stroke="#b7793f" stroke-width="1.1" points="214,-119 208,-119 "/>
<text text-anchor="start" x="13" y="-105.4" font-family="Avenir Next" font-size="12.00">Published notes</text>
<text text-anchor="start" x="13" y="-92.4" font-family="Avenir Next" font-size="12.00">Minimum second&#45;year standing</text>
</g>
<!-- GEOG228_notes&#45;&gt;course__GEOG228 -->
</g>
</svg>
