<?xml version="1.0" encoding="UTF-8" standalone="no"?>
<!DOCTYPE svg PUBLIC "-//W3C//DTD SVG 1.1//EN"
 "http://www.w3.org/Graphics/SVG/1.1/DTD/svg11.dtd">
<!-- Generated by graphviz version 2.43.0 (0)
 -->
<!-- Title: GEOG405 Pages: 1 -->
<svg width="198pt" height="79pt"
 viewBox="0.00 0.00 198.20 79.20" xmlns="http://www.w3.org/2000/svg" xmlns:xlink="http://www.w3.org/1999/xlink">
<g id="graph0" class="graph" transform="scale(1 1) rotate(0) translate(21.6 57.6)">
<title>GEOG405</title>
<!-- course__GEOG405 -->
<g id="node1" class="node">
<title>course__GEOG405</title>
<g id="a_node1"><a xlink:href="../../../courses/GEOG405.html" xlink:title="GEOG405: Dynamics of the Cryosphere" target="_top">
<path fill="#e7e2d8" stroke="#1f4f66" stroke-width="2" d="M143,-36C143,-36 12,-36 12,-36 6,-36 0,-30 0,-24 0,-24 0,-12 0,-12 0,-6 6,0 12,0 12,0 143,0 143,0 149,0 155,-6 155,-12 155,-12 155,-24 155,-24 155,-30 149,-36 143,-36"/>
<text text-anchor="middle" x="77.5" y="-21" font-family="Avenir Next" font-size="10.00" fill="#17232b">GEOG405</text>
<text text-anchor="middle" x="77.5" y="-10" font-family="Avenir Next" font-size="10.00" fill="#17232b">Dynamics of the Cryosphere</text>
</a>
</g>
</g>
</g>
</svg>
