<?xml version="1.0" encoding="UTF-8" standalone="no"?>
<!DOCTYPE svg PUBLIC "-//W3C//DTD SVG 1.1//EN"
 "http://www.w3.org/Graphics/SVG/1.1/DTD/svg11.dtd">
<!-- Generated by graphviz version 2.43.0 (0)
 -->
<!-- Title: GEOG322 Pages: 1 -->
<svg width="961pt" height="252pt"
 viewBox="0.00 0.00 961.20 251.70" xmlns="http://www.w3.org/2000/svg" xmlns:xlink="http://www.w3.org/1999/xlink">
<g id="graph0" class="graph" transform="scale(1 1) rotate(0) translate(21.6 230.1)">
<title>GEOG322</title>
<!-- course__GEOG222 -->
<g id="node1" class="node">
<title>course__GEOG222</title>
<g id="a_node1"><a xlink:href="../../../courses/GEOG222.html" xlink:title="GEOG222: Introduction to GIS" target="_top">
<path fill="#e7e2d8" stroke="#1b2730" stroke-width="1.6" d="M424,-208.5C424,-208.5 385,-208.5 385,-208.5 379,-208.5 373,-202.5 373,-196.5 373,-196.5 373,-184.5 373,-184.5 373,-178.5 379,-172.5 385,-172.5 385,-172.5 424,-172.5 424,-172.5 430,-172.5 436,-178.5 436,-184.5 436,-184.5 436,-196.5 436,-196.5 436,-202.5 430,-208.5 424,-208.5"/>
<text text-anchor="middle" x="404.5" y="-188" font-family="Avenir Next" font-size="10.00" fill="#17232b">GEOG222</text>
</a>
</g>
</g>
<!-- course__GEOG322 -->
<g id="node4" class="node">
<title>course__GEOG322</title>
<g id="a_node4"><a xlink:href="../../../courses/GEOG322.html" xlink:title="GEOG322: Remote Sensing of the Environment using Active Sensors" target="_top">
<path fill="#e7e2d8" stroke="#1f4f66" stroke-width="2" d="M782,-124.5C782,-124.5 509,-124.5 509,-124.5 503,-124.5 497,-118.5 497,-112.5 497,-112.5 497,-100.5 497,-100.5 497,-94.5 503,-88.5 509,-88.5 509,-88.5 782,-88.5 782,-88.5 788,-88.5 794,-94.5 794,-100.5 794,-100.5 794,-112.5 794,-112.5 794,-118.5 788,-124.5 782,-124.5"/>
<text text-anchor="middle" x="645.5" y="-109.5" font-family="Avenir Next" font-size="10.00" fill="#17232b">GEOG322</text>
<text text-anchor="middle" x="645.5" y="-98.5" font-family="Avenir Next" font-size="10.00" fill="#17232b">Remote Sensing of the Environment using Active Sensors</text>
</a>
</g>
</g>
<!-- course__GEOG222&#45;&gt;course__GEOG322 -->
<g id="edge2" class="edge">
<title>course__GEOG222&#45;&gt;course__GEOG322</title>
<path fill="none" stroke="#5d6972" stroke-width="1.2" d="M436.26,-179.69C473.99,-166.43 538.76,-143.66 586.07,-127.04"/>
<polygon fill="#5d6972" stroke="#5d6972" stroke-width="1.2" points="587.13,-129.26 592.92,-124.63 585.5,-124.64 587.13,-129.26"/>
</g>
<!-- course__GEOG226 -->
<g id="node2" class="node">
<title>course__GEOG226</title>
<g id="a_node2"><a xlink:href="../../../courses/GEOG226.html" xlink:title="GEOG226: Quantitative Methods in Geography" target="_top">
<path fill="#e7e2d8" stroke="#1b2730" stroke-width="1.6" d="M424,-152.5C424,-152.5 385,-152.5 385,-152.5 379,-152.5 373,-146.5 373,-140.5 373,-140.5 373,-128.5 373,-128.5 373,-122.5 379,-116.5 385,-116.5 385,-116.5 424,-116.5 424,-116.5 430,-116.5 436,-122.5 436,-128.5 436,-128.5 436,-140.5 436,-140.5 436,-146.5 430,-152.5 424,-152.5"/>
<text text-anchor="middle" x="404.5" y="-132" font-family="Avenir Next" font-size="10.00" fill="#17232b">GEOG226</text>
</a>
</g>
</g>
<!-- course__GEOG226&#45;&gt;course__GEOG322 -->
<g id="edge4" class="edge">
<title>course__GEOG226&#45;&gt;course__GEOG322</title>
<path fill="none" stroke="#5d6972" stroke-width="1.2" d="M436.26,-130.9C450.86,-129.19 469.52,-127 489.64,-124.64"/>
<polygon fill="#5d6972" stroke="#5d6972" stroke-width="1.2" points="490.15,-127.05 496.82,-123.8 489.58,-122.18 490.15,-127.05"/>
</g>
<!-- course__GEOG228 -->
<g id="node3" class="node">
<title>course__GEOG228</title>
<g id="a_node3"><a xlink:href="../../../courses/GEOG228.html" xlink:title="GEOG228: Introduction to Remote Sensing" target="_top">
<path fill="#e7e2d8" stroke="#1b2730" stroke-width="1.6" d="M424,-96.5C424,-96.5 385,-96.5 385,-96.5 379,-96.5 373,-90.5 373,-84.5 373,-84.5 373,-72.5 373,-72.5 373,-66.5 379,-60.5 385,-60.5 385,-60.5 424,-60.5 424,-60.5 430,-60.5 436,-66.5 436,-72.5 436,-72.5 436,-84.5 436,-84.5 436,-90.5 430,-96.5 424,-96.5"/>
<text text-anchor="middle" x="404.5" y="-76" font-family="Avenir Next" font-size="10.00" fill="#17232b">GEOG228</text>
</a>
</g>
</g>
<!-- course__GEOG228&#45;&gt;course__GEOG322 -->
<g id="edge3" class="edge">
<title>course__GEOG228&#45;&gt;course__GEOG322</title>
<path fill="none" stroke="#5d6972" stroke-width="1.2" d="M436.26,-82.1C450.86,-83.81 469.52,-86 489.64,-88.36"/>
<polygon fill="#5d6972" stroke="#5d6972" stroke-width="1.2" points="489.58,-90.82 496.82,-89.2 490.15,-85.95 489.58,-90.82"/>
</g>
<!-- course__GEOG422 -->
<g id="node5" class="node">
<title>course__GEOG422</title>
<g id="a_node5"><a xlink:href="../../../courses/GEOG422.html" xlink:title="GEOG422: Advanced Topics in Remote Sensing" target="_top">
<path fill="#e7e2d8" stroke="#1b2730" stroke-width="1.6" d="M906,-124.5C906,-124.5 867,-124.5 867,-124.5 861,-124.5 855,-118.5 855,-112.5 855,-112.5 855,-100.5 855,-100.5 855,-94.5 861,-88.5 867,-88.5 867,-88.5 906,-88.5 906,-88.5 912,-88.5 918,-94.5 918,-100.5 918,-100.5 918,-112.5 918,-112.5 918,-118.5 912,-124.5 906,-124.5"/>
<text text-anchor="middle" x="886.5" y="-104" font-family="Avenir Next" font-size="10.00" fill="#17232b">GEOG422</text>
</a>
</g>
</g>
<!-- course__GEOG322&#45;&gt;course__GEOG422 -->
<g id="edge5" class="edge">
<title>course__GEOG322&#45;&gt;course__GEOG422</title>
<path fill="none" stroke="#5d6972" stroke-width="1.2" d="M794.12,-106.5C813.88,-106.5 832.54,-106.5 847.79,-106.5"/>
<polygon fill="#5d6972" stroke="#5d6972" stroke-width="1.2" points="848,-108.95 855,-106.5 848,-104.05 848,-108.95"/>
</g>
<!-- GEOG322_notes -->
<g id="node6" class="node">
<title>GEOG322_notes</title>
<polygon fill="#fff7ee" stroke="#b7793f" stroke-width="1.1" points="306,-59 0,-59 0,0 312,0 312,-53 306,-59"/>
<polyline fill="none" stroke="#b7793f" stroke-width="1.1" points="306,-59 306,-53 "/>
<polyline fill="none" stroke="#b7793f" stroke-width="1.1" points="312,-53 306,-53 "/>
<text text-anchor="start" x="13" y="-39.4" font-family="Avenir Next" font-size="12.00">Published notes</text>
<text text-anchor="start" x="13" y="-26.4" font-family="Avenir Next" font-size="12.00">1.5 units minimum 200 level STAT or equivalent</text>
<text text-anchor="start" x="13" y="-13.4" font-family="Avenir Next" font-size="12.00">minimum third&#45;year standing</text>
</g>
<!-- GEOG322_notes&#45;&gt;course__GEOG322 -->
</g>
</svg>
