<?xml version="1.0" encoding="UTF-8" standalone="no"?>
<!DOCTYPE svg PUBLIC "-//W3C//DTD SVG 1.1//EN"
 "http://www.w3.org/Graphics/SVG/1.1/DTD/svg11.dtd">
<!-- Generated by graphviz version 2.43.0 (0)
 -->
<!-- Title: GEOG371 Pages: 1 -->
<svg width="855pt" height="247pt"
 viewBox="0.00 0.00 855.20 247.20" xmlns="http://www.w3.org/2000/svg" xmlns:xlink="http://www.w3.org/1999/xlink">
<g id="graph0" class="graph" transform="scale(1 1) rotate(0) translate(21.6 225.6)">
<title>GEOG371</title>
<!-- course__EOS110 -->
<g id="node1" class="node">
<title>course__EOS110</title>
<g id="a_node1"><a xlink:href="../../../courses/EOS110.html" xlink:title="Equivalent or cross&#45;listed: EOS110: Oceans and Atmosphere | EOS350: Understanding the Oceans" target="_top">
<path fill="#d7e9ef" stroke="#7e8d96" d="M91,-92C91,-92 16,-92 16,-92 10,-92 4,-86 4,-80 4,-80 4,-68 4,-68 4,-62 10,-56 16,-56 16,-56 91,-56 91,-56 97,-56 103,-62 103,-68 103,-68 103,-80 103,-80 103,-86 97,-92 91,-92"/>
<text text-anchor="middle" x="53.5" y="-71.8" font-family="Avenir Next" font-size="9.00" fill="#41515b">EOS110 / EOS350</text>
</a>
</g>
</g>
<!-- choice_GEOG209_0_1_0 -->
<g id="node11" class="node">
<title>choice_GEOG209_0_1_0</title>
<path fill="#fff7ee" stroke="#b7793f" stroke-width="1.1" d="M210,-126C210,-126 180,-126 180,-126 174,-126 168,-120 168,-114 168,-114 168,-102 168,-102 168,-96 174,-90 180,-90 180,-90 210,-90 210,-90 216,-90 222,-96 222,-102 222,-102 222,-114 222,-114 222,-120 216,-126 210,-126"/>
<text text-anchor="middle" x="195" y="-105.8" font-family="Avenir Next" font-size="9.00">1 of</text>
</g>
<!-- course__EOS110&#45;&gt;choice_GEOG209_0_1_0 -->
<g id="edge6" class="edge">
<title>course__EOS110&#45;&gt;choice_GEOG209_0_1_0</title>
<path fill="none" stroke="#7a8389" d="M103.29,-85.89C122.26,-90.52 143.52,-95.7 160.68,-99.88"/>
<polygon fill="#7a8389" stroke="#7a8389" points="160.39,-102.33 167.77,-101.61 161.55,-97.57 160.39,-102.33"/>
</g>
<!-- choice_GEOG272_0 -->
<g id="node13" class="node">
<title>choice_GEOG272_0</title>
<path fill="#fff7ee" stroke="#b7793f" stroke-width="1.1" d="M210,-70C210,-70 180,-70 180,-70 174,-70 168,-64 168,-58 168,-58 168,-46 168,-46 168,-40 174,-34 180,-34 180,-34 210,-34 210,-34 216,-34 222,-40 222,-46 222,-46 222,-58 222,-58 222,-64 216,-70 210,-70"/>
<text text-anchor="middle" x="195" y="-49.8" font-family="Avenir Next" font-size="9.00">1 of</text>
</g>
<!-- course__EOS110&#45;&gt;choice_GEOG272_0 -->
<g id="edge12" class="edge">
<title>course__EOS110&#45;&gt;choice_GEOG272_0</title>
<path fill="none" stroke="#7a8389" d="M103.29,-66.31C122.26,-63.31 143.52,-59.96 160.68,-57.25"/>
<polygon fill="#7a8389" stroke="#7a8389" points="161.24,-59.65 167.77,-56.14 160.48,-54.81 161.24,-59.65"/>
</g>
<!-- course__EOS130 -->
<g id="node2" class="node">
<title>course__EOS130</title>
<g id="a_node2"><a xlink:href="../../../courses/EOS130.html" xlink:title="Equivalent or cross&#45;listed: EOS130: Climate Change | GEOG130: Climate Change" target="_top">
<path fill="#d7e9ef" stroke="#7e8d96" d="M95,-36C95,-36 12,-36 12,-36 6,-36 0,-30 0,-24 0,-24 0,-12 0,-12 0,-6 6,0 12,0 12,0 95,0 95,0 101,0 107,-6 107,-12 107,-12 107,-24 107,-24 107,-30 101,-36 95,-36"/>
<text text-anchor="middle" x="53.5" y="-15.8" font-family="Avenir Next" font-size="9.00" fill="#41515b">EOS130 / GEOG130</text>
</a>
</g>
</g>
<!-- course__EOS130&#45;&gt;choice_GEOG209_0_1_0 -->
<g id="edge5" class="edge">
<title>course__EOS130&#45;&gt;choice_GEOG209_0_1_0</title>
<path fill="none" stroke="#7a8389" d="M89.87,-36.06C95.67,-39.25 101.56,-42.63 107,-46 126.66,-58.18 147.81,-73.2 164.33,-85.41"/>
<polygon fill="#7a8389" stroke="#7a8389" points="163.12,-87.56 170.2,-89.77 166.04,-83.63 163.12,-87.56"/>
</g>
<!-- course__EOS130&#45;&gt;choice_GEOG272_0 -->
<g id="edge11" class="edge">
<title>course__EOS130&#45;&gt;choice_GEOG272_0</title>
<path fill="none" stroke="#7a8389" d="M107.24,-30.85C125.17,-35.22 144.7,-39.98 160.68,-43.88"/>
<polygon fill="#7a8389" stroke="#7a8389" points="160.37,-46.33 167.76,-45.6 161.54,-41.57 160.37,-46.33"/>
</g>
<!-- course__GEOG101A -->
<g id="node3" class="node">
<title>course__GEOG101A</title>
<g id="a_node3"><a xlink:href="../../../courses/GEOG101A.html" xlink:title="GEOG101A: Environment, Society and Sustainability" target="_top">
<path fill="#e7e2d8" stroke="#7e8d96" d="M75,-204C75,-204 32,-204 32,-204 26,-204 20,-198 20,-192 20,-192 20,-180 20,-180 20,-174 26,-168 32,-168 32,-168 75,-168 75,-168 81,-168 87,-174 87,-180 87,-180 87,-192 87,-192 87,-198 81,-204 75,-204"/>
<text text-anchor="middle" x="53.5" y="-183.8" font-family="Avenir Next" font-size="9.00" fill="#41515b">GEOG101A</text>
</a>
</g>
</g>
<!-- bundle_GEOG209_0_0 -->
<g id="node10" class="node">
<title>bundle_GEOG209_0_0</title>
<g id="a_node10"><a xlink:title="Grouped requirement junction">
<ellipse fill="#7a8790" stroke="#667780" cx="195" cy="-152" rx="6" ry="6"/>
</a>
</g>
</g>
<!-- course__GEOG101A&#45;&gt;bundle_GEOG209_0_0 -->
<g id="edge2" class="edge">
<title>course__GEOG101A&#45;&gt;bundle_GEOG209_0_0</title>
<path fill="none" stroke="#7a8389" d="M87.21,-178.03C117.63,-170.61 161.31,-159.97 182.11,-154.9"/>
<polygon fill="#7a8389" stroke="#7a8389" points="182.88,-157.23 189.1,-153.19 181.72,-152.47 182.88,-157.23"/>
</g>
<!-- course__GEOG103 -->
<g id="node4" class="node">
<title>course__GEOG103</title>
<g id="a_node4"><a xlink:href="../../../courses/GEOG103.html" xlink:title="GEOG103: Our Natural Earth" target="_top">
<path fill="#e7e2d8" stroke="#7e8d96" d="M72,-148C72,-148 35,-148 35,-148 29,-148 23,-142 23,-136 23,-136 23,-124 23,-124 23,-118 29,-112 35,-112 35,-112 72,-112 72,-112 78,-112 84,-118 84,-124 84,-124 84,-136 84,-136 84,-142 78,-148 72,-148"/>
<text text-anchor="middle" x="53.5" y="-127.8" font-family="Avenir Next" font-size="9.00" fill="#41515b">GEOG103</text>
</a>
</g>
</g>
<!-- course__GEOG103&#45;&gt;bundle_GEOG209_0_0 -->
<g id="edge3" class="edge">
<title>course__GEOG103&#45;&gt;bundle_GEOG209_0_0</title>
<path fill="none" stroke="#7a8389" d="M84.08,-134.67C114.44,-139.45 160.18,-146.67 181.83,-150.08"/>
<polygon fill="#7a8389" stroke="#7a8389" points="181.56,-152.52 188.86,-151.19 182.33,-147.68 181.56,-152.52"/>
</g>
<!-- course__GEOG103&#45;&gt;choice_GEOG209_0_1_0 -->
<g id="edge4" class="edge">
<title>course__GEOG103&#45;&gt;choice_GEOG209_0_1_0</title>
<path fill="none" stroke="#7a8389" d="M84.08,-125.33C106.55,-121.79 137.46,-116.92 160.78,-113.24"/>
<polygon fill="#7a8389" stroke="#7a8389" points="161.22,-115.65 167.75,-112.14 160.45,-110.81 161.22,-115.65"/>
</g>
<!-- course__GEOG103&#45;&gt;choice_GEOG272_0 -->
<g id="edge10" class="edge">
<title>course__GEOG103&#45;&gt;choice_GEOG272_0</title>
<path fill="none" stroke="#7a8389" d="M84.02,-114.47C91.54,-110.45 99.59,-106.1 107,-102 125.16,-91.94 145.27,-80.41 161.57,-70.96"/>
<polygon fill="#7a8389" stroke="#7a8389" points="163.03,-72.95 167.85,-67.31 160.57,-68.71 163.03,-72.95"/>
</g>
<!-- course__GEOG209 -->
<g id="node5" class="node">
<title>course__GEOG209</title>
<g id="a_node5"><a xlink:href="../../../courses/GEOG209.html" xlink:title="GEOG209: Environmental Management" target="_top">
<path fill="#e7e2d8" stroke="#1b2730" stroke-width="1.6" d="M449,-126C449,-126 410,-126 410,-126 404,-126 398,-120 398,-114 398,-114 398,-102 398,-102 398,-96 404,-90 410,-90 410,-90 449,-90 449,-90 455,-90 461,-96 461,-102 461,-102 461,-114 461,-114 461,-120 455,-126 449,-126"/>
<text text-anchor="middle" x="429.5" y="-105.5" font-family="Avenir Next" font-size="10.00" fill="#17232b">GEOG209</text>
</a>
</g>
</g>
<!-- course__GEOG371 -->
<g id="node7" class="node">
<title>course__GEOG371</title>
<g id="a_node7"><a xlink:href="../../../courses/GEOG371.html" xlink:title="GEOG371: Water Resources Management" target="_top">
<path fill="#e7e2d8" stroke="#1f4f66" stroke-width="2" d="M676,-98C676,-98 534,-98 534,-98 528,-98 522,-92 522,-86 522,-86 522,-74 522,-74 522,-68 528,-62 534,-62 534,-62 676,-62 676,-62 682,-62 688,-68 688,-74 688,-74 688,-86 688,-86 688,-92 682,-98 676,-98"/>
<text text-anchor="middle" x="605" y="-83" font-family="Avenir Next" font-size="10.00" fill="#17232b">GEOG371</text>
<text text-anchor="middle" x="605" y="-72" font-family="Avenir Next" font-size="10.00" fill="#17232b">Water Resources Management</text>
</a>
</g>
</g>
<!-- course__GEOG209&#45;&gt;course__GEOG371 -->
<g id="edge14" class="edge">
<title>course__GEOG209&#45;&gt;course__GEOG371</title>
<path fill="none" stroke="#5d6972" stroke-width="1.2" d="M461.12,-103.06C476.28,-100.61 495.45,-97.52 514.79,-94.4"/>
<polygon fill="#5d6972" stroke="#5d6972" stroke-width="1.2" points="515.39,-96.78 521.91,-93.25 514.61,-91.94 515.39,-96.78"/>
</g>
<!-- course__GEOG272 -->
<g id="node6" class="node">
<title>course__GEOG272</title>
<g id="a_node6"><a xlink:href="../../../courses/GEOG272.html" xlink:title="GEOG272: Climatology and Hydrology" target="_top">
<path fill="#e7e2d8" stroke="#1b2730" stroke-width="1.6" d="M449,-70C449,-70 410,-70 410,-70 404,-70 398,-64 398,-58 398,-58 398,-46 398,-46 398,-40 404,-34 410,-34 410,-34 449,-34 449,-34 455,-34 461,-40 461,-46 461,-46 461,-58 461,-58 461,-64 455,-70 449,-70"/>
<text text-anchor="middle" x="429.5" y="-49.5" font-family="Avenir Next" font-size="10.00" fill="#17232b">GEOG272</text>
</a>
</g>
</g>
<!-- course__GEOG272&#45;&gt;course__GEOG371 -->
<g id="edge15" class="edge">
<title>course__GEOG272&#45;&gt;course__GEOG371</title>
<path fill="none" stroke="#5d6972" stroke-width="1.2" d="M461.12,-56.94C476.28,-59.39 495.45,-62.48 514.79,-65.6"/>
<polygon fill="#5d6972" stroke="#5d6972" stroke-width="1.2" points="514.61,-68.06 521.91,-66.75 515.39,-63.22 514.61,-68.06"/>
</g>
<!-- course__BIOL446 -->
<g id="node8" class="node">
<title>course__BIOL446</title>
<g id="a_node8"><a xlink:href="../../../courses/BIOL446.html" xlink:title="BIOL446: Advanced Aquatic Ecology" target="_top">
<path fill="#dbe8d2" stroke="#1b2730" stroke-width="1.6" d="M797,-126C797,-126 764,-126 764,-126 758,-126 752,-120 752,-114 752,-114 752,-102 752,-102 752,-96 758,-90 764,-90 764,-90 797,-90 797,-90 803,-90 809,-96 809,-102 809,-102 809,-114 809,-114 809,-120 803,-126 797,-126"/>
<text text-anchor="middle" x="780.5" y="-105.5" font-family="Avenir Next" font-size="10.00" fill="#17232b">BIOL446</text>
</a>
</g>
</g>
<!-- course__GEOG371&#45;&gt;course__BIOL446 -->
<g id="edge1" class="edge">
<title>course__GEOG371&#45;&gt;course__BIOL446</title>
<path fill="none" stroke="#5d6972" stroke-width="1.2" d="M688.18,-93.26C708.08,-96.47 728.3,-99.74 744.64,-102.37"/>
<polygon fill="#5d6972" stroke="#5d6972" stroke-width="1.2" points="744.56,-104.84 751.86,-103.54 745.34,-100 744.56,-104.84"/>
</g>
<!-- course__GEOG450 -->
<g id="node9" class="node">
<title>course__GEOG450</title>
<g id="a_node9"><a xlink:href="../../../courses/GEOG450.html" xlink:title="GEOG450: Environment and Sustainability in Practice" target="_top">
<path fill="#e7e2d8" stroke="#1b2730" stroke-width="1.6" d="M800,-70C800,-70 761,-70 761,-70 755,-70 749,-64 749,-58 749,-58 749,-46 749,-46 749,-40 755,-34 761,-34 761,-34 800,-34 800,-34 806,-34 812,-40 812,-46 812,-46 812,-58 812,-58 812,-64 806,-70 800,-70"/>
<text text-anchor="middle" x="780.5" y="-49.5" font-family="Avenir Next" font-size="10.00" fill="#17232b">GEOG450</text>
</a>
</g>
</g>
<!-- course__GEOG371&#45;&gt;course__GEOG450 -->
<g id="edge16" class="edge">
<title>course__GEOG371&#45;&gt;course__GEOG450</title>
<path fill="none" stroke="#5d6972" stroke-width="1.2" d="M688.18,-66.74C706.86,-63.72 725.83,-60.66 741.6,-58.12"/>
<polygon fill="#5d6972" stroke="#5d6972" stroke-width="1.2" points="742.09,-60.52 748.61,-56.98 741.31,-55.68 742.09,-60.52"/>
</g>
<!-- choice_GEOG209_0 -->
<g id="node12" class="node">
<title>choice_GEOG209_0</title>
<path fill="#fff7ee" stroke="#b7793f" stroke-width="1.1" d="M325,-126C325,-126 295,-126 295,-126 289,-126 283,-120 283,-114 283,-114 283,-102 283,-102 283,-96 289,-90 295,-90 295,-90 325,-90 325,-90 331,-90 337,-96 337,-102 337,-102 337,-114 337,-114 337,-120 331,-126 325,-126"/>
<text text-anchor="middle" x="310" y="-105.8" font-family="Avenir Next" font-size="9.00">1 of</text>
</g>
<!-- bundle_GEOG209_0_0&#45;&gt;choice_GEOG209_0 -->
<g id="edge7" class="edge">
<title>bundle_GEOG209_0_0&#45;&gt;choice_GEOG209_0</title>
<path fill="none" stroke="#7a8389" d="M200.86,-150.11C213.63,-145.14 249.03,-131.35 275.88,-120.89"/>
<polygon fill="#7a8389" stroke="#7a8389" points="276.87,-123.14 282.51,-118.32 275.09,-118.57 276.87,-123.14"/>
</g>
<!-- choice_GEOG209_0_1_0&#45;&gt;choice_GEOG209_0 -->
<g id="edge8" class="edge">
<title>choice_GEOG209_0_1_0&#45;&gt;choice_GEOG209_0</title>
<path fill="none" stroke="#7a8389" d="M222.21,-108C238.18,-108 258.74,-108 275.84,-108"/>
<polygon fill="#7a8389" stroke="#7a8389" points="275.93,-110.45 282.93,-108 275.93,-105.55 275.93,-110.45"/>
</g>
<!-- choice_GEOG209_0&#45;&gt;course__GEOG209 -->
<g id="edge9" class="edge">
<title>choice_GEOG209_0&#45;&gt;course__GEOG209</title>
<path fill="none" stroke="#5d6972" stroke-width="1.2" d="M337.08,-108C352.81,-108 373.14,-108 390.62,-108"/>
<polygon fill="#5d6972" stroke="#5d6972" stroke-width="1.2" points="390.92,-110.45 397.92,-108 390.92,-105.55 390.92,-110.45"/>
</g>
<!-- choice_GEOG272_0&#45;&gt;course__GEOG272 -->
<g id="edge13" class="edge">
<title>choice_GEOG272_0&#45;&gt;course__GEOG272</title>
<path fill="none" stroke="#5d6972" stroke-width="1.2" d="M222.22,-52C263.45,-52 343.61,-52 390.95,-52"/>
<polygon fill="#5d6972" stroke="#5d6972" stroke-width="1.2" points="390.97,-54.45 397.97,-52 390.97,-49.55 390.97,-54.45"/>
</g>
</g>
</svg>
