<?xml version="1.0" encoding="UTF-8" standalone="no"?>
<!DOCTYPE svg PUBLIC "-//W3C//DTD SVG 1.1//EN"
 "http://www.w3.org/Graphics/SVG/1.1/DTD/svg11.dtd">
<!-- Generated by graphviz version 2.43.0 (0)
 -->
<!-- Title: GEOG230 Pages: 1 -->
<svg width="677pt" height="191pt"
 viewBox="0.00 0.00 677.20 191.20" xmlns="http://www.w3.org/2000/svg" xmlns:xlink="http://www.w3.org/1999/xlink">
<g id="graph0" class="graph" transform="scale(1 1) rotate(0) translate(21.6 169.6)">
<title>GEOG230</title>
<!-- course__EOS110 -->
<g id="node1" class="node">
<title>course__EOS110</title>
<g id="a_node1"><a xlink:href="../../../courses/EOS110.html" xlink:title="Equivalent or cross&#45;listed: EOS110: Oceans and Atmosphere | EOS350: Understanding the Oceans" target="_top">
<path fill="#d7e9ef" stroke="#1b2730" stroke-width="1.6" d="M93.5,-148C93.5,-148 16.5,-148 16.5,-148 10.5,-148 4.5,-142 4.5,-136 4.5,-136 4.5,-124 4.5,-124 4.5,-118 10.5,-112 16.5,-112 16.5,-112 93.5,-112 93.5,-112 99.5,-112 105.5,-118 105.5,-124 105.5,-124 105.5,-136 105.5,-136 105.5,-142 99.5,-148 93.5,-148"/>
<text text-anchor="middle" x="55" y="-127.5" font-family="Avenir Next" font-size="10.00" fill="#17232b">EOS110 / EOS350</text>
</a>
</g>
</g>
<!-- choice_EOS230_0_1 -->
<g id="node7" class="node">
<title>choice_EOS230_0_1</title>
<path fill="#fff7ee" stroke="#b7793f" stroke-width="1.1" d="M213,-92C213,-92 183,-92 183,-92 177,-92 171,-86 171,-80 171,-80 171,-68 171,-68 171,-62 177,-56 183,-56 183,-56 213,-56 213,-56 219,-56 225,-62 225,-68 225,-68 225,-80 225,-80 225,-86 219,-92 213,-92"/>
<text text-anchor="middle" x="198" y="-71.8" font-family="Avenir Next" font-size="9.00">1 of</text>
</g>
<!-- course__EOS110&#45;&gt;choice_EOS230_0_1 -->
<g id="edge1" class="edge">
<title>course__EOS110&#45;&gt;choice_EOS230_0_1</title>
<path fill="none" stroke="#7a8389" d="M101.39,-111.97C121.75,-103.89 145.33,-94.52 163.98,-87.12"/>
<polygon fill="#7a8389" stroke="#7a8389" points="165.01,-89.34 170.61,-84.48 163.2,-84.79 165.01,-89.34"/>
</g>
<!-- course__EOS130 -->
<g id="node2" class="node">
<title>course__EOS130</title>
<g id="a_node2"><a xlink:href="../../../courses/EOS130.html" xlink:title="Equivalent or cross&#45;listed: EOS130: Climate Change | GEOG130: Climate Change" target="_top">
<path fill="#d7e9ef" stroke="#1b2730" stroke-width="1.6" d="M98,-92C98,-92 12,-92 12,-92 6,-92 0,-86 0,-80 0,-80 0,-68 0,-68 0,-62 6,-56 12,-56 12,-56 98,-56 98,-56 104,-56 110,-62 110,-68 110,-68 110,-80 110,-80 110,-86 104,-92 98,-92"/>
<text text-anchor="middle" x="55" y="-71.5" font-family="Avenir Next" font-size="10.00" fill="#17232b">EOS130 / GEOG130</text>
</a>
</g>
</g>
<!-- course__EOS130&#45;&gt;choice_EOS230_0_1 -->
<g id="edge2" class="edge">
<title>course__EOS130&#45;&gt;choice_EOS230_0_1</title>
<path fill="none" stroke="#7a8389" d="M110.11,-74C128.16,-74 147.73,-74 163.71,-74"/>
<polygon fill="#7a8389" stroke="#7a8389" points="163.79,-76.45 170.79,-74 163.79,-71.55 163.79,-76.45"/>
</g>
<!-- course__GEOG103 -->
<g id="node3" class="node">
<title>course__GEOG103</title>
<g id="a_node3"><a xlink:href="../../../courses/GEOG103.html" xlink:title="GEOG103: Our Natural Earth" target="_top">
<path fill="#e7e2d8" stroke="#1b2730" stroke-width="1.6" d="M74.5,-36C74.5,-36 35.5,-36 35.5,-36 29.5,-36 23.5,-30 23.5,-24 23.5,-24 23.5,-12 23.5,-12 23.5,-6 29.5,0 35.5,0 35.5,0 74.5,0 74.5,0 80.5,0 86.5,-6 86.5,-12 86.5,-12 86.5,-24 86.5,-24 86.5,-30 80.5,-36 74.5,-36"/>
<text text-anchor="middle" x="55" y="-15.5" font-family="Avenir Next" font-size="10.00" fill="#17232b">GEOG103</text>
</a>
</g>
</g>
<!-- course__GEOG103&#45;&gt;choice_EOS230_0_1 -->
<g id="edge3" class="edge">
<title>course__GEOG103&#45;&gt;choice_EOS230_0_1</title>
<path fill="none" stroke="#7a8389" d="M86.59,-30.15C109.45,-39.23 140.64,-51.62 164.04,-60.91"/>
<polygon fill="#7a8389" stroke="#7a8389" points="163.32,-63.26 170.73,-63.57 165.13,-58.71 163.32,-63.26"/>
</g>
<!-- course__EOS230 -->
<g id="node4" class="node">
<title>course__EOS230</title>
<g id="a_node4"><a xlink:href="../../../courses/GEOG230.html" xlink:title="Equivalent or cross&#45;listed: EOS230: Introduction to Environmental Data Analysis | GEOG230: Introduction to Environmental Data Analysis" target="_top">
<path fill="#d7e9ef" stroke="#1f4f66" stroke-width="2" d="M507,-92C507,-92 298,-92 298,-92 292,-92 286,-86 286,-80 286,-80 286,-68 286,-68 286,-62 292,-56 298,-56 298,-56 507,-56 507,-56 513,-56 519,-62 519,-68 519,-68 519,-80 519,-80 519,-86 513,-92 507,-92"/>
<text text-anchor="middle" x="402.5" y="-77" font-family="Avenir Next" font-size="10.00" fill="#17232b">EOS230 / GEOG230</text>
<text text-anchor="middle" x="402.5" y="-66" font-family="Avenir Next" font-size="10.00" fill="#17232b">Introduction to Environmental Data Analysis</text>
</a>
</g>
</g>
<!-- course__EOS321 -->
<g id="node5" class="node">
<title>course__EOS321</title>
<g id="a_node5"><a xlink:href="../../../courses/EOS321.html" xlink:title="EOS321: Earth History" target="_top">
<path fill="#d7e9ef" stroke="#1b2730" stroke-width="1.6" d="M622,-120C622,-120 592,-120 592,-120 586,-120 580,-114 580,-108 580,-108 580,-96 580,-96 580,-90 586,-84 592,-84 592,-84 622,-84 622,-84 628,-84 634,-90 634,-96 634,-96 634,-108 634,-108 634,-114 628,-120 622,-120"/>
<text text-anchor="middle" x="607" y="-99.5" font-family="Avenir Next" font-size="10.00" fill="#17232b">EOS321</text>
</a>
</g>
</g>
<!-- course__EOS230&#45;&gt;course__EOS321 -->
<g id="edge5" class="edge">
<title>course__EOS230&#45;&gt;course__EOS321</title>
<path fill="none" stroke="#5d6972" stroke-width="1.2" d="M519.24,-90C538.73,-92.7 557.49,-95.29 572.55,-97.37"/>
<polygon fill="#5d6972" stroke="#5d6972" stroke-width="1.2" points="572.36,-99.82 579.63,-98.35 573.03,-94.97 572.36,-99.82"/>
</g>
<!-- course__EOS325 -->
<g id="node6" class="node">
<title>course__EOS325</title>
<g id="a_node6"><a xlink:href="../../../courses/EOS325.html" xlink:title="EOS325: Earth System Modelling" target="_top">
<path fill="#d7e9ef" stroke="#1b2730" stroke-width="1.6" d="M622,-64C622,-64 592,-64 592,-64 586,-64 580,-58 580,-52 580,-52 580,-40 580,-40 580,-34 586,-28 592,-28 592,-28 622,-28 622,-28 628,-28 634,-34 634,-40 634,-40 634,-52 634,-52 634,-58 628,-64 622,-64"/>
<text text-anchor="middle" x="607" y="-43.5" font-family="Avenir Next" font-size="10.00" fill="#17232b">EOS325</text>
</a>
</g>
</g>
<!-- course__EOS230&#45;&gt;course__EOS325 -->
<g id="edge6" class="edge">
<title>course__EOS230&#45;&gt;course__EOS325</title>
<path fill="none" stroke="#5d6972" stroke-width="1.2" d="M519.24,-58C538.73,-55.3 557.49,-52.71 572.55,-50.63"/>
<polygon fill="#5d6972" stroke="#5d6972" stroke-width="1.2" points="573.03,-53.03 579.63,-49.65 572.36,-48.18 573.03,-53.03"/>
</g>
<!-- choice_EOS230_0_1&#45;&gt;course__EOS230 -->
<g id="edge4" class="edge">
<title>choice_EOS230_0_1&#45;&gt;course__EOS230</title>
<path fill="none" stroke="#5d6972" stroke-width="1.2" d="M225.06,-74C239.39,-74 258.33,-74 278.48,-74"/>
<polygon fill="#5d6972" stroke="#5d6972" stroke-width="1.2" points="278.65,-76.45 285.65,-74 278.65,-71.55 278.65,-76.45"/>
</g>
</g>
</svg>
