<?xml version="1.0" encoding="UTF-8" standalone="no"?>
<!DOCTYPE svg PUBLIC "-//W3C//DTD SVG 1.1//EN"
 "http://www.w3.org/Graphics/SVG/1.1/DTD/svg11.dtd">
<!-- Generated by graphviz version 2.43.0 (0)
 -->
<!-- Title: GEOG103 Pages: 1 -->
<svg width="1306pt" height="711pt"
 viewBox="0.00 0.00 1306.20 711.20" xmlns="http://www.w3.org/2000/svg" xmlns:xlink="http://www.w3.org/1999/xlink">
<g id="graph0" class="graph" transform="scale(1 1) rotate(0) translate(21.6 689.6)">
<title>GEOG103</title>
<!-- course__GEOG103 -->
<g id="node1" class="node">
<title>course__GEOG103</title>
<g id="a_node1"><a xlink:href="../../../courses/GEOG103.html" xlink:title="GEOG103: Our Natural Earth" target="_top">
<path fill="#e7e2d8" stroke="#1f4f66" stroke-width="2" d="M89,-329C89,-329 12,-329 12,-329 6,-329 0,-323 0,-317 0,-317 0,-305 0,-305 0,-299 6,-293 12,-293 12,-293 89,-293 89,-293 95,-293 101,-299 101,-305 101,-305 101,-317 101,-317 101,-323 95,-329 89,-329"/>
<text text-anchor="middle" x="50.5" y="-314" font-family="Avenir Next" font-size="10.00" fill="#17232b">GEOG103</text>
<text text-anchor="middle" x="50.5" y="-303" font-family="Avenir Next" font-size="10.00" fill="#17232b">Our Natural Earth</text>
</a>
</g>
</g>
<!-- course__EOS230 -->
<g id="node2" class="node">
<title>course__EOS230</title>
<g id="a_node2"><a xlink:href="../../../courses/EOS230.html" xlink:title="Equivalent or cross&#45;listed: EOS230: Introduction to Environmental Data Analysis | GEOG230: Introduction to Environmental Data Analysis" target="_top">
<path fill="#d7e9ef" stroke="#1b2730" stroke-width="1.6" d="M260,-357C260,-357 174,-357 174,-357 168,-357 162,-351 162,-345 162,-345 162,-333 162,-333 162,-327 168,-321 174,-321 174,-321 260,-321 260,-321 266,-321 272,-327 272,-333 272,-333 272,-345 272,-345 272,-351 266,-357 260,-357"/>
<text text-anchor="middle" x="217" y="-336.5" font-family="Avenir Next" font-size="10.00" fill="#17232b">EOS230 / GEOG230</text>
</a>
</g>
</g>
<!-- course__GEOG103&#45;&gt;course__EOS230 -->
<g id="edge2" class="edge">
<title>course__GEOG103&#45;&gt;course__EOS230</title>
<path fill="none" stroke="#5d6972" stroke-width="1.2" d="M101.3,-319.48C118.17,-322.35 137.2,-325.59 154.84,-328.59"/>
<polygon fill="#5d6972" stroke="#5d6972" stroke-width="1.2" points="154.47,-331.01 161.78,-329.77 155.29,-326.18 154.47,-331.01"/>
</g>
<!-- course__EOS261 -->
<g id="node3" class="node">
<title>course__EOS261</title>
<g id="a_node3"><a xlink:href="../../../courses/EOS261.html" xlink:title="EOS261: The Climate System" target="_top">
<path fill="#d7e9ef" stroke="#1b2730" stroke-width="1.6" d="M232,-413C232,-413 202,-413 202,-413 196,-413 190,-407 190,-401 190,-401 190,-389 190,-389 190,-383 196,-377 202,-377 202,-377 232,-377 232,-377 238,-377 244,-383 244,-389 244,-389 244,-401 244,-401 244,-407 238,-413 232,-413"/>
<text text-anchor="middle" x="217" y="-392.5" font-family="Avenir Next" font-size="10.00" fill="#17232b">EOS261</text>
</a>
</g>
</g>
<!-- course__GEOG103&#45;&gt;course__EOS261 -->
<g id="edge3" class="edge">
<title>course__GEOG103&#45;&gt;course__EOS261</title>
<path fill="none" stroke="#5d6972" stroke-width="1.2" d="M86.79,-329.02C115.46,-343.66 155.57,-364.14 183.47,-378.39"/>
<polygon fill="#5d6972" stroke="#5d6972" stroke-width="1.2" points="182.58,-380.69 189.93,-381.69 184.81,-376.32 182.58,-380.69"/>
</g>
<!-- course__GEOG209 -->
<g id="node4" class="node">
<title>course__GEOG209</title>
<g id="a_node4"><a xlink:href="../../../courses/GEOG209.html" xlink:title="GEOG209: Environmental Management" target="_top">
<path fill="#e7e2d8" stroke="#1b2730" stroke-width="1.6" d="M236.5,-301C236.5,-301 197.5,-301 197.5,-301 191.5,-301 185.5,-295 185.5,-289 185.5,-289 185.5,-277 185.5,-277 185.5,-271 191.5,-265 197.5,-265 197.5,-265 236.5,-265 236.5,-265 242.5,-265 248.5,-271 248.5,-277 248.5,-277 248.5,-289 248.5,-289 248.5,-295 242.5,-301 236.5,-301"/>
<text text-anchor="middle" x="217" y="-280.5" font-family="Avenir Next" font-size="10.00" fill="#17232b">GEOG209</text>
</a>
</g>
</g>
<!-- course__GEOG103&#45;&gt;course__GEOG209 -->
<g id="edge20" class="edge">
<title>course__GEOG103&#45;&gt;course__GEOG209</title>
<path fill="none" stroke="#5d6972" stroke-width="1.2" d="M101.3,-302.52C126.05,-298.31 155.46,-293.3 178.3,-289.42"/>
<polygon fill="#5d6972" stroke="#5d6972" stroke-width="1.2" points="178.99,-291.79 185.48,-288.2 178.16,-286.96 178.99,-291.79"/>
</g>
<!-- course__GEOG272 -->
<g id="node5" class="node">
<title>course__GEOG272</title>
<g id="a_node5"><a xlink:href="../../../courses/GEOG272.html" xlink:title="GEOG272: Climatology and Hydrology" target="_top">
<path fill="#e7e2d8" stroke="#1b2730" stroke-width="1.6" d="M236.5,-179C236.5,-179 197.5,-179 197.5,-179 191.5,-179 185.5,-173 185.5,-167 185.5,-167 185.5,-155 185.5,-155 185.5,-149 191.5,-143 197.5,-143 197.5,-143 236.5,-143 236.5,-143 242.5,-143 248.5,-149 248.5,-155 248.5,-155 248.5,-167 248.5,-167 248.5,-173 242.5,-179 236.5,-179"/>
<text text-anchor="middle" x="217" y="-158.5" font-family="Avenir Next" font-size="10.00" fill="#17232b">GEOG272</text>
</a>
</g>
</g>
<!-- course__GEOG103&#45;&gt;course__GEOG272 -->
<g id="edge21" class="edge">
<title>course__GEOG103&#45;&gt;course__GEOG272</title>
<path fill="none" stroke="#5d6972" stroke-width="1.2" d="M71.34,-292.91C101.23,-265.65 157.79,-214.08 190.63,-184.13"/>
<polygon fill="#5d6972" stroke="#5d6972" stroke-width="1.2" points="192.57,-185.68 196.09,-179.16 189.26,-182.06 192.57,-185.68"/>
</g>
<!-- course__GEOG489 -->
<g id="node23" class="node">
<title>course__GEOG489</title>
<g id="a_node23"><a xlink:href="../../../courses/GEOG489.html" xlink:title="GEOG489: Climate Solutions" target="_top">
<path fill="#e7e2d8" stroke="#7e8d96" d="M1014,-366C1014,-366 977,-366 977,-366 971,-366 965,-360 965,-354 965,-354 965,-342 965,-342 965,-336 971,-330 977,-330 977,-330 1014,-330 1014,-330 1020,-330 1026,-336 1026,-342 1026,-342 1026,-354 1026,-354 1026,-360 1020,-366 1014,-366"/>
<text text-anchor="middle" x="995.5" y="-345.8" font-family="Avenir Next" font-size="9.00" fill="#41515b">GEOG489</text>
</a>
</g>
</g>
<!-- course__EOS230&#45;&gt;course__GEOG489 -->
<g id="edge43" class="edge">
<title>course__EOS230&#45;&gt;course__GEOG489</title>
<path fill="none" stroke="#5d6972" stroke-width="1.2" d="M272.17,-338.01C324.67,-337.14 406.54,-336 477.5,-336 477.5,-336 477.5,-336 738,-336 816.39,-336 908.12,-341.66 957.87,-345.21"/>
<polygon fill="#5d6972" stroke="#5d6972" stroke-width="1.2" points="957.74,-347.65 964.9,-345.71 958.09,-342.77 957.74,-347.65"/>
</g>
<!-- choice_EOS321_0_1_0 -->
<g id="node28" class="node">
<title>choice_EOS321_0_1_0</title>
<path fill="#fff7ee" stroke="#b7793f" stroke-width="1.1" d="M375,-403C375,-403 345,-403 345,-403 339,-403 333,-397 333,-391 333,-391 333,-379 333,-379 333,-373 339,-367 345,-367 345,-367 375,-367 375,-367 381,-367 387,-373 387,-379 387,-379 387,-391 387,-391 387,-397 381,-403 375,-403"/>
<text text-anchor="middle" x="360" y="-382.8" font-family="Avenir Next" font-size="9.00">1 of</text>
</g>
<!-- course__EOS230&#45;&gt;choice_EOS321_0_1_0 -->
<g id="edge5" class="edge">
<title>course__EOS230&#45;&gt;choice_EOS321_0_1_0</title>
<path fill="none" stroke="#7a8389" d="M272.11,-356.65C290.16,-362.54 309.73,-368.92 325.71,-374.14"/>
<polygon fill="#7a8389" stroke="#7a8389" points="325.37,-376.61 332.79,-376.45 326.89,-371.95 325.37,-376.61"/>
</g>
<!-- choice_EOS325_0_2_0 -->
<g id="node29" class="node">
<title>choice_EOS325_0_2_0</title>
<path fill="#fff7ee" stroke="#b7793f" stroke-width="1.1" d="M375,-459C375,-459 345,-459 345,-459 339,-459 333,-453 333,-447 333,-447 333,-435 333,-435 333,-429 339,-423 345,-423 345,-423 375,-423 375,-423 381,-423 387,-429 387,-435 387,-435 387,-447 387,-447 387,-453 381,-459 375,-459"/>
<text text-anchor="middle" x="360" y="-438.8" font-family="Avenir Next" font-size="9.00">1 of</text>
</g>
<!-- course__EOS230&#45;&gt;choice_EOS325_0_2_0 -->
<g id="edge8" class="edge">
<title>course__EOS230&#45;&gt;choice_EOS325_0_2_0</title>
<path fill="none" stroke="#7a8389" d="M255.53,-357.05C261.17,-360.16 266.83,-363.53 272,-367 294.62,-382.2 318.04,-402.41 334.87,-417.87"/>
<polygon fill="#7a8389" stroke="#7a8389" points="333.51,-419.96 340.31,-422.92 336.84,-416.36 333.51,-419.96"/>
</g>
<!-- course__EOS261&#45;&gt;choice_EOS321_0_1_0 -->
<g id="edge6" class="edge">
<title>course__EOS261&#45;&gt;choice_EOS321_0_1_0</title>
<path fill="none" stroke="#7a8389" d="M244.19,-393.14C267.24,-391.51 300.92,-389.12 325.84,-387.35"/>
<polygon fill="#7a8389" stroke="#7a8389" points="326.14,-389.79 332.95,-386.85 325.79,-384.9 326.14,-389.79"/>
</g>
<!-- course__EOS261&#45;&gt;choice_EOS325_0_2_0 -->
<g id="edge9" class="edge">
<title>course__EOS261&#45;&gt;choice_EOS325_0_2_0</title>
<path fill="none" stroke="#7a8389" d="M244.19,-403.54C267.34,-411.1 301.21,-422.15 326.16,-430.29"/>
<polygon fill="#7a8389" stroke="#7a8389" points="325.53,-432.66 332.95,-432.5 327.05,-428 325.53,-432.66"/>
</g>
<!-- course__GEOG301 -->
<g id="node8" class="node">
<title>course__GEOG301</title>
<g id="a_node8"><a xlink:href="../../../courses/GEOG301.html" xlink:title="GEOG301: Environmental Impact Assessment" target="_top">
<path fill="#e7e2d8" stroke="#7e8d96" d="M497,-305C497,-305 460,-305 460,-305 454,-305 448,-299 448,-293 448,-293 448,-281 448,-281 448,-275 454,-269 460,-269 460,-269 497,-269 497,-269 503,-269 509,-275 509,-281 509,-281 509,-293 509,-293 509,-299 503,-305 497,-305"/>
<text text-anchor="middle" x="478.5" y="-284.8" font-family="Avenir Next" font-size="9.00" fill="#41515b">GEOG301</text>
</a>
</g>
</g>
<!-- course__GEOG209&#45;&gt;course__GEOG301 -->
<g id="edge22" class="edge">
<title>course__GEOG209&#45;&gt;course__GEOG301</title>
<path fill="none" stroke="#5d6972" stroke-width="1.2" d="M248.53,-283.47C296.42,-284.21 389.03,-285.64 440.59,-286.43"/>
<polygon fill="#5d6972" stroke="#5d6972" stroke-width="1.2" points="440.85,-288.89 447.88,-286.54 440.92,-283.99 440.85,-288.89"/>
</g>
<!-- course__GEOG371 -->
<g id="node10" class="node">
<title>course__GEOG371</title>
<g id="a_node10"><a xlink:href="../../../courses/GEOG371.html" xlink:title="GEOG371: Water Resources Management" target="_top">
<path fill="#e7e2d8" stroke="#7e8d96" d="M497,-249C497,-249 460,-249 460,-249 454,-249 448,-243 448,-237 448,-237 448,-225 448,-225 448,-219 454,-213 460,-213 460,-213 497,-213 497,-213 503,-213 509,-219 509,-225 509,-225 509,-237 509,-237 509,-243 503,-249 497,-249"/>
<text text-anchor="middle" x="478.5" y="-228.8" font-family="Avenir Next" font-size="9.00" fill="#41515b">GEOG371</text>
</a>
</g>
</g>
<!-- course__GEOG209&#45;&gt;course__GEOG371 -->
<g id="edge27" class="edge">
<title>course__GEOG209&#45;&gt;course__GEOG371</title>
<path fill="none" stroke="#5d6972" stroke-width="1.2" d="M248.53,-276.88C296.52,-267.27 389.41,-248.65 440.9,-238.33"/>
<polygon fill="#5d6972" stroke="#5d6972" stroke-width="1.2" points="441.5,-240.71 447.88,-236.93 440.54,-235.91 441.5,-240.71"/>
</g>
<!-- course__GEOG313 -->
<g id="node9" class="node">
<title>course__GEOG313</title>
<g id="a_node9"><a xlink:href="../../../courses/GEOG313.html" xlink:title="GEOG313: Field Studies in Mountain Meteorology" target="_top">
<path fill="#e7e2d8" stroke="#7e8d96" d="M497,-179C497,-179 460,-179 460,-179 454,-179 448,-173 448,-167 448,-167 448,-155 448,-155 448,-149 454,-143 460,-143 460,-143 497,-143 497,-143 503,-143 509,-149 509,-155 509,-155 509,-167 509,-167 509,-173 503,-179 497,-179"/>
<text text-anchor="middle" x="478.5" y="-158.8" font-family="Avenir Next" font-size="9.00" fill="#41515b">GEOG313</text>
</a>
</g>
</g>
<!-- course__GEOG272&#45;&gt;course__GEOG313 -->
<g id="edge23" class="edge">
<title>course__GEOG272&#45;&gt;course__GEOG313</title>
<path fill="none" stroke="#5d6972" stroke-width="1.2" d="M248.53,-161C296.42,-161 389.03,-161 440.59,-161"/>
<polygon fill="#5d6972" stroke="#5d6972" stroke-width="1.2" points="440.88,-163.45 447.88,-161 440.88,-158.55 440.88,-163.45"/>
</g>
<!-- course__GEOG272&#45;&gt;course__GEOG371 -->
<g id="edge28" class="edge">
<title>course__GEOG272&#45;&gt;course__GEOG371</title>
<path fill="none" stroke="#5d6972" stroke-width="1.2" d="M248.53,-169.24C296.52,-182.18 389.41,-207.24 440.9,-221.13"/>
<polygon fill="#5d6972" stroke="#5d6972" stroke-width="1.2" points="440.49,-223.55 447.88,-223.01 441.76,-218.82 440.49,-223.55"/>
</g>
<!-- course__GEOG373 -->
<g id="node11" class="node">
<title>course__GEOG373</title>
<g id="a_node11"><a xlink:href="../../../courses/GEOG373.html" xlink:title="GEOG373: Applied Climatology" target="_top">
<path fill="#e7e2d8" stroke="#7e8d96" d="M497,-123C497,-123 460,-123 460,-123 454,-123 448,-117 448,-111 448,-111 448,-99 448,-99 448,-93 454,-87 460,-87 460,-87 497,-87 497,-87 503,-87 509,-93 509,-99 509,-99 509,-111 509,-111 509,-117 503,-123 497,-123"/>
<text text-anchor="middle" x="478.5" y="-102.8" font-family="Avenir Next" font-size="9.00" fill="#41515b">GEOG373</text>
</a>
</g>
</g>
<!-- course__GEOG272&#45;&gt;course__GEOG373 -->
<g id="edge29" class="edge">
<title>course__GEOG272&#45;&gt;course__GEOG373</title>
<path fill="none" stroke="#5d6972" stroke-width="1.2" d="M248.53,-154.41C296.52,-144.06 389.41,-124.01 440.9,-112.9"/>
<polygon fill="#5d6972" stroke="#5d6972" stroke-width="1.2" points="441.56,-115.26 447.88,-111.39 440.52,-110.47 441.56,-115.26"/>
</g>
<!-- choice_GEOG370_0_0 -->
<g id="node31" class="node">
<title>choice_GEOG370_0_0</title>
<path fill="#fff7ee" stroke="#b7793f" stroke-width="1.1" d="M892,-109C892,-109 862,-109 862,-109 856,-109 850,-103 850,-97 850,-97 850,-85 850,-85 850,-79 856,-73 862,-73 862,-73 892,-73 892,-73 898,-73 904,-79 904,-85 904,-85 904,-97 904,-97 904,-103 898,-109 892,-109"/>
<text text-anchor="middle" x="877" y="-88.8" font-family="Avenir Next" font-size="9.00">1 of</text>
</g>
<!-- course__GEOG272&#45;&gt;choice_GEOG370_0_0 -->
<g id="edge24" class="edge">
<title>course__GEOG272&#45;&gt;choice_GEOG370_0_0</title>
<path fill="none" stroke="#7a8389" d="M233.2,-142.84C270.26,-100.74 370.14,0 477.5,0 477.5,0 477.5,0 598,0 690.78,0 792.71,-46.34 843.49,-72.88"/>
<polygon fill="#7a8389" stroke="#7a8389" points="842.38,-75.07 849.72,-76.18 844.67,-70.74 842.38,-75.07"/>
</g>
<!-- course__EOS321 -->
<g id="node6" class="node">
<title>course__EOS321</title>
<g id="a_node6"><a xlink:href="../../../courses/EOS321.html" xlink:title="EOS321: Earth History" target="_top">
<path fill="#d7e9ef" stroke="#7e8d96" d="M493.5,-403C493.5,-403 463.5,-403 463.5,-403 457.5,-403 451.5,-397 451.5,-391 451.5,-391 451.5,-379 451.5,-379 451.5,-373 457.5,-367 463.5,-367 463.5,-367 493.5,-367 493.5,-367 499.5,-367 505.5,-373 505.5,-379 505.5,-379 505.5,-391 505.5,-391 505.5,-397 499.5,-403 493.5,-403"/>
<text text-anchor="middle" x="478.5" y="-382.8" font-family="Avenir Next" font-size="9.00" fill="#41515b">EOS321</text>
</a>
</g>
</g>
<!-- course__EOS325 -->
<g id="node7" class="node">
<title>course__EOS325</title>
<g id="a_node7"><a xlink:href="../../../courses/EOS325.html" xlink:title="EOS325: Earth System Modelling" target="_top">
<path fill="#d7e9ef" stroke="#7e8d96" d="M493.5,-459C493.5,-459 463.5,-459 463.5,-459 457.5,-459 451.5,-453 451.5,-447 451.5,-447 451.5,-435 451.5,-435 451.5,-429 457.5,-423 463.5,-423 463.5,-423 493.5,-423 493.5,-423 499.5,-423 505.5,-429 505.5,-435 505.5,-435 505.5,-447 505.5,-447 505.5,-453 499.5,-459 493.5,-459"/>
<text text-anchor="middle" x="478.5" y="-438.8" font-family="Avenir Next" font-size="9.00" fill="#41515b">EOS325</text>
</a>
</g>
</g>
<!-- course__EOS340 -->
<g id="node13" class="node">
<title>course__EOS340</title>
<g id="a_node13"><a xlink:href="../../../courses/EOS340.html" xlink:title="Equivalent or cross&#45;listed: EOS340: Atmospheric Physics | PHYS340: Atmospheric Physics" target="_top">
<path fill="#d7e9ef" stroke="#7e8d96" d="M777,-515C777,-515 697,-515 697,-515 691,-515 685,-509 685,-503 685,-503 685,-491 685,-491 685,-485 691,-479 697,-479 697,-479 777,-479 777,-479 783,-479 789,-485 789,-491 789,-491 789,-503 789,-503 789,-509 783,-515 777,-515"/>
<text text-anchor="middle" x="737" y="-494.8" font-family="Avenir Next" font-size="9.00" fill="#41515b">EOS340 / PHYS340</text>
</a>
</g>
</g>
<!-- course__EOS325&#45;&gt;course__EOS340 -->
<g id="edge11" class="edge">
<title>course__EOS325&#45;&gt;course__EOS340</title>
<path fill="none" stroke="#5d6972" stroke-width="1.2" d="M505.51,-446.68C545.61,-455.43 623.56,-472.45 677.64,-484.26"/>
<polygon fill="#5d6972" stroke="#5d6972" stroke-width="1.2" points="677.41,-486.72 684.77,-485.82 678.45,-481.93 677.41,-486.72"/>
</g>
<!-- course__EOS423 -->
<g id="node14" class="node">
<title>course__EOS423</title>
<g id="a_node14"><a xlink:href="../../../courses/EOS423.html" xlink:title="EOS423: Advanced Sedimentology and Stratigraphy" target="_top">
<path fill="#d7e9ef" stroke="#7e8d96" d="M752,-459C752,-459 722,-459 722,-459 716,-459 710,-453 710,-447 710,-447 710,-435 710,-435 710,-429 716,-423 722,-423 722,-423 752,-423 752,-423 758,-423 764,-429 764,-435 764,-435 764,-447 764,-447 764,-453 758,-459 752,-459"/>
<text text-anchor="middle" x="737" y="-438.8" font-family="Avenir Next" font-size="9.00" fill="#41515b">EOS423</text>
</a>
</g>
</g>
<!-- course__EOS325&#45;&gt;course__EOS423 -->
<g id="edge15" class="edge">
<title>course__EOS325&#45;&gt;course__EOS423</title>
<path fill="none" stroke="#5d6972" stroke-width="1.2" d="M505.51,-441C552.36,-441 650.89,-441 702.64,-441"/>
<polygon fill="#5d6972" stroke="#5d6972" stroke-width="1.2" points="702.93,-443.45 709.93,-441 702.92,-438.55 702.93,-443.45"/>
</g>
<!-- course__EOS431 -->
<g id="node15" class="node">
<title>course__EOS431</title>
<g id="a_node15"><a xlink:href="../../../courses/EOS431.html" xlink:title="Equivalent or cross&#45;listed: EOS431: Physical Oceanography | PHYS441: Physical Oceanography" target="_top">
<path fill="#d7e9ef" stroke="#7e8d96" d="M777,-612C777,-612 697,-612 697,-612 691,-612 685,-606 685,-600 685,-600 685,-588 685,-588 685,-582 691,-576 697,-576 697,-576 777,-576 777,-576 783,-576 789,-582 789,-588 789,-588 789,-600 789,-600 789,-606 783,-612 777,-612"/>
<text text-anchor="middle" x="737" y="-591.8" font-family="Avenir Next" font-size="9.00" fill="#41515b">EOS431 / PHYS441</text>
</a>
</g>
</g>
<!-- course__EOS325&#45;&gt;course__EOS431 -->
<g id="edge16" class="edge">
<title>course__EOS325&#45;&gt;course__EOS431</title>
<path fill="none" stroke="#5d6972" stroke-width="1.2" d="M505.51,-456.51C551.4,-483.89 646.87,-540.83 699.4,-572.17"/>
<polygon fill="#5d6972" stroke="#5d6972" stroke-width="1.2" points="698.31,-574.37 705.58,-575.86 700.83,-570.17 698.31,-574.37"/>
</g>
<!-- course__EOS460 -->
<g id="node16" class="node">
<title>course__EOS460</title>
<g id="a_node16"><a xlink:href="../../../courses/EOS460.html" xlink:title="EOS460: Earth System Science" target="_top">
<path fill="#d7e9ef" stroke="#7e8d96" d="M752,-403C752,-403 722,-403 722,-403 716,-403 710,-397 710,-391 710,-391 710,-379 710,-379 710,-373 716,-367 722,-367 722,-367 752,-367 752,-367 758,-367 764,-373 764,-379 764,-379 764,-391 764,-391 764,-397 758,-403 752,-403"/>
<text text-anchor="middle" x="737" y="-382.8" font-family="Avenir Next" font-size="9.00" fill="#41515b">EOS460</text>
</a>
</g>
</g>
<!-- course__EOS325&#45;&gt;course__EOS460 -->
<g id="edge19" class="edge">
<title>course__EOS325&#45;&gt;course__EOS460</title>
<path fill="none" stroke="#5d6972" stroke-width="1.2" d="M505.51,-435.32C552.46,-425.07 651.3,-403.49 702.96,-392.21"/>
<polygon fill="#5d6972" stroke="#5d6972" stroke-width="1.2" points="703.61,-394.58 709.93,-390.69 702.56,-389.79 703.61,-394.58"/>
</g>
<!-- choice_GEOG450_0 -->
<g id="node33" class="node">
<title>choice_GEOG450_0</title>
<path fill="#fff7ee" stroke="#b7793f" stroke-width="1.1" d="M612,-305C612,-305 582,-305 582,-305 576,-305 570,-299 570,-293 570,-293 570,-281 570,-281 570,-275 576,-269 582,-269 582,-269 612,-269 612,-269 618,-269 624,-275 624,-281 624,-281 624,-293 624,-293 624,-299 618,-305 612,-305"/>
<text text-anchor="middle" x="597" y="-284.8" font-family="Avenir Next" font-size="9.00">2 of</text>
</g>
<!-- course__GEOG301&#45;&gt;choice_GEOG450_0 -->
<g id="edge34" class="edge">
<title>course__GEOG301&#45;&gt;choice_GEOG450_0</title>
<path fill="none" stroke="#7a8389" d="M509.2,-287C525.6,-287 546.01,-287 562.91,-287"/>
<polygon fill="#7a8389" stroke="#7a8389" points="562.92,-289.45 569.92,-287 562.92,-284.55 562.92,-289.45"/>
</g>
<!-- course__BIOL446 -->
<g id="node12" class="node">
<title>course__BIOL446</title>
<g id="a_node12"><a xlink:href="../../../courses/BIOL446.html" xlink:title="BIOL446: Advanced Aquatic Ecology" target="_top">
<path fill="#dbe8d2" stroke="#7e8d96" d="M753,-249C753,-249 721,-249 721,-249 715,-249 709,-243 709,-237 709,-237 709,-225 709,-225 709,-219 715,-213 721,-213 721,-213 753,-213 753,-213 759,-213 765,-219 765,-225 765,-225 765,-237 765,-237 765,-243 759,-249 753,-249"/>
<text text-anchor="middle" x="737" y="-228.8" font-family="Avenir Next" font-size="9.00" fill="#41515b">BIOL446</text>
</a>
</g>
</g>
<!-- course__GEOG371&#45;&gt;course__BIOL446 -->
<g id="edge1" class="edge">
<title>course__GEOG371&#45;&gt;course__BIOL446</title>
<path fill="none" stroke="#5d6972" stroke-width="1.2" d="M509.17,-231C557.06,-231 651.12,-231 701.77,-231"/>
<polygon fill="#5d6972" stroke="#5d6972" stroke-width="1.2" points="701.92,-233.45 708.92,-231 701.92,-228.55 701.92,-233.45"/>
</g>
<!-- course__GEOG371&#45;&gt;choice_GEOG450_0 -->
<g id="edge35" class="edge">
<title>course__GEOG371&#45;&gt;choice_GEOG450_0</title>
<path fill="none" stroke="#7a8389" d="M509.2,-245.28C525.74,-253.23 546.37,-263.14 563.37,-271.31"/>
<polygon fill="#7a8389" stroke="#7a8389" points="562.55,-273.64 569.92,-274.47 564.68,-269.22 562.55,-273.64"/>
</g>
<!-- course__GEOG484 -->
<g id="node18" class="node">
<title>course__GEOG484</title>
<g id="a_node18"><a xlink:href="../../../courses/GEOG484.html" xlink:title="GEOG484: Advanced Topics in Weather and Climate" target="_top">
<path fill="#e7e2d8" stroke="#7e8d96" d="M755.5,-109C755.5,-109 718.5,-109 718.5,-109 712.5,-109 706.5,-103 706.5,-97 706.5,-97 706.5,-85 706.5,-85 706.5,-79 712.5,-73 718.5,-73 718.5,-73 755.5,-73 755.5,-73 761.5,-73 767.5,-79 767.5,-85 767.5,-85 767.5,-97 767.5,-97 767.5,-103 761.5,-109 755.5,-109"/>
<text text-anchor="middle" x="737" y="-88.8" font-family="Avenir Next" font-size="9.00" fill="#41515b">GEOG484</text>
</a>
</g>
</g>
<!-- course__GEOG373&#45;&gt;course__GEOG484 -->
<g id="edge40" class="edge">
<title>course__GEOG373&#45;&gt;course__GEOG484</title>
<path fill="none" stroke="#5d6972" stroke-width="1.2" d="M509.17,-103.38C556.18,-100.81 647.68,-95.82 698.94,-93.02"/>
<polygon fill="#5d6972" stroke="#5d6972" stroke-width="1.2" points="699.34,-95.45 706.2,-92.63 699.07,-90.56 699.34,-95.45"/>
</g>
<!-- choice_GEOG405_0 -->
<g id="node32" class="node">
<title>choice_GEOG405_0</title>
<path fill="#fff7ee" stroke="#b7793f" stroke-width="1.1" d="M1129,-158C1129,-158 1099,-158 1099,-158 1093,-158 1087,-152 1087,-146 1087,-146 1087,-134 1087,-134 1087,-128 1093,-122 1099,-122 1099,-122 1129,-122 1129,-122 1135,-122 1141,-128 1141,-134 1141,-134 1141,-146 1141,-146 1141,-152 1135,-158 1129,-158"/>
<text text-anchor="middle" x="1114" y="-137.8" font-family="Avenir Next" font-size="9.00">1 of</text>
</g>
<!-- course__GEOG373&#45;&gt;choice_GEOG405_0 -->
<g id="edge31" class="edge">
<title>course__GEOG373&#45;&gt;choice_GEOG405_0</title>
<path fill="none" stroke="#7a8389" d="M509.33,-111.75C556.97,-121.92 653.3,-140 736,-140 736,-140 736,-140 878,-140 949.88,-140 1034.14,-140 1079.68,-140"/>
<polygon fill="#7a8389" stroke="#7a8389" points="1079.92,-142.45 1086.92,-140 1079.92,-137.55 1079.92,-142.45"/>
</g>
<!-- choice_GEOG477_0_0 -->
<g id="node34" class="node">
<title>choice_GEOG477_0_0</title>
<path fill="#fff7ee" stroke="#b7793f" stroke-width="1.1" d="M1129,-81C1129,-81 1099,-81 1099,-81 1093,-81 1087,-75 1087,-69 1087,-69 1087,-57 1087,-57 1087,-51 1093,-45 1099,-45 1099,-45 1129,-45 1129,-45 1135,-45 1141,-51 1141,-57 1141,-57 1141,-69 1141,-69 1141,-75 1135,-81 1129,-81"/>
<text text-anchor="middle" x="1114" y="-60.8" font-family="Avenir Next" font-size="9.00">1 of</text>
</g>
<!-- course__GEOG373&#45;&gt;choice_GEOG477_0_0 -->
<g id="edge38" class="edge">
<title>course__GEOG373&#45;&gt;choice_GEOG477_0_0</title>
<path fill="none" stroke="#7a8389" d="M509.32,-92.7C556.55,-74.37 651.86,-42 736,-42 736,-42 736,-42 878,-42 950.32,-42 1034.66,-51.99 1080.05,-58.19"/>
<polygon fill="#7a8389" stroke="#7a8389" points="1079.72,-60.62 1086.99,-59.15 1080.39,-55.76 1079.72,-60.62"/>
</g>
<!-- choice_GEOG489_0_1 -->
<g id="node35" class="node">
<title>choice_GEOG489_0_1</title>
<path fill="#fff7ee" stroke="#b7793f" stroke-width="1.1" d="M892,-403C892,-403 862,-403 862,-403 856,-403 850,-397 850,-391 850,-391 850,-379 850,-379 850,-373 856,-367 862,-367 862,-367 892,-367 892,-367 898,-367 904,-373 904,-379 904,-379 904,-391 904,-391 904,-397 898,-403 892,-403"/>
<text text-anchor="middle" x="877" y="-382.8" font-family="Avenir Next" font-size="9.00">1 of</text>
</g>
<!-- course__GEOG373&#45;&gt;choice_GEOG489_0_1 -->
<g id="edge41" class="edge">
<title>course__GEOG373&#45;&gt;choice_GEOG489_0_1</title>
<path fill="none" stroke="#7a8389" d="M506.57,-123.12C524.02,-134.07 547.57,-147.5 570,-156 663.09,-191.28 710.86,-141.33 789,-203 839.85,-243.14 862.64,-320.3 871.37,-360.02"/>
<polygon fill="#7a8389" stroke="#7a8389" points="869,-360.64 872.84,-366.98 873.79,-359.63 869,-360.64"/>
</g>
<!-- course__EOS433 -->
<g id="node20" class="node">
<title>course__EOS433</title>
<g id="a_node20"><a xlink:href="../../../courses/EOS433.html" xlink:title="EOS433: The Physics of Climate" target="_top">
<path fill="#d7e9ef" stroke="#7e8d96" d="M1010.5,-434C1010.5,-434 980.5,-434 980.5,-434 974.5,-434 968.5,-428 968.5,-422 968.5,-422 968.5,-410 968.5,-410 968.5,-404 974.5,-398 980.5,-398 980.5,-398 1010.5,-398 1010.5,-398 1016.5,-398 1022.5,-404 1022.5,-410 1022.5,-410 1022.5,-422 1022.5,-422 1022.5,-428 1016.5,-434 1010.5,-434"/>
<text text-anchor="middle" x="995.5" y="-413.8" font-family="Avenir Next" font-size="9.00" fill="#41515b">EOS433</text>
</a>
</g>
</g>
<!-- course__EOS340&#45;&gt;course__EOS433 -->
<g id="edge17" class="edge">
<title>course__EOS340&#45;&gt;course__EOS433</title>
<path fill="none" stroke="#5d6972" stroke-width="1.2" d="M789.29,-480.8C840.64,-464.59 918.1,-440.13 961.69,-426.36"/>
<polygon fill="#5d6972" stroke="#5d6972" stroke-width="1.2" points="962.45,-428.69 968.38,-424.25 960.97,-424.02 962.45,-428.69"/>
</g>
<!-- course__EOS451 -->
<g id="node21" class="node">
<title>course__EOS451</title>
<g id="a_node21"><a xlink:href="../../../courses/EOS451.html" xlink:title="EOS451: Introductory Dynamic Meteorology" target="_top">
<path fill="#d7e9ef" stroke="#7e8d96" d="M1010.5,-490C1010.5,-490 980.5,-490 980.5,-490 974.5,-490 968.5,-484 968.5,-478 968.5,-478 968.5,-466 968.5,-466 968.5,-460 974.5,-454 980.5,-454 980.5,-454 1010.5,-454 1010.5,-454 1016.5,-454 1022.5,-460 1022.5,-466 1022.5,-466 1022.5,-478 1022.5,-478 1022.5,-484 1016.5,-490 1010.5,-490"/>
<text text-anchor="middle" x="995.5" y="-469.8" font-family="Avenir Next" font-size="9.00" fill="#41515b">EOS451</text>
</a>
</g>
</g>
<!-- course__EOS340&#45;&gt;course__EOS451 -->
<g id="edge18" class="edge">
<title>course__EOS340&#45;&gt;course__EOS451</title>
<path fill="none" stroke="#5d6972" stroke-width="1.2" d="M789.29,-492C840.43,-487.02 917.46,-479.51 961.15,-475.25"/>
<polygon fill="#5d6972" stroke="#5d6972" stroke-width="1.2" points="961.65,-477.66 968.38,-474.55 961.18,-472.79 961.65,-477.66"/>
</g>
<!-- course__EOS340&#45;&gt;choice_GEOG370_0_0 -->
<g id="edge25" class="edge">
<title>course__EOS340&#45;&gt;choice_GEOG370_0_0</title>
<path fill="none" stroke="#7a8389" d="M778.99,-478.87C782.76,-475.98 786.2,-472.71 789,-469 831.9,-412.27 863.24,-191.78 872.89,-116.42"/>
<polygon fill="#7a8389" stroke="#7a8389" points="875.35,-116.43 873.8,-109.18 870.49,-115.82 875.35,-116.43"/>
</g>
<!-- course__EOS340&#45;&gt;choice_GEOG405_0 -->
<g id="edge32" class="edge">
<title>course__EOS340&#45;&gt;choice_GEOG405_0</title>
<path fill="none" stroke="#7a8389" d="M789.12,-515.02C851.95,-533.61 958.52,-553.12 1026,-500 1079.37,-457.99 1103.9,-240.18 1110.85,-165.31"/>
<polygon fill="#7a8389" stroke="#7a8389" points="1113.31,-165.31 1111.5,-158.11 1108.43,-164.86 1113.31,-165.31"/>
</g>
<!-- course__EOS340&#45;&gt;choice_GEOG489_0_1 -->
<g id="edge42" class="edge">
<title>course__EOS340&#45;&gt;choice_GEOG489_0_1</title>
<path fill="none" stroke="#7a8389" d="M773.87,-478.9C779.09,-475.81 784.28,-472.47 789,-469 813.51,-450.94 838.17,-426.39 854.94,-408.5"/>
<polygon fill="#7a8389" stroke="#7a8389" points="856.92,-409.97 859.88,-403.17 853.32,-406.64 856.92,-409.97"/>
</g>
<!-- choice_PHYS411_0_0 -->
<g id="node36" class="node">
<title>choice_PHYS411_0_0</title>
<path fill="#fff7ee" stroke="#b7793f" stroke-width="1.1" d="M892,-588C892,-588 862,-588 862,-588 856,-588 850,-582 850,-576 850,-576 850,-564 850,-564 850,-558 856,-552 862,-552 862,-552 892,-552 892,-552 898,-552 904,-558 904,-564 904,-564 904,-576 904,-576 904,-582 898,-588 892,-588"/>
<text text-anchor="middle" x="877" y="-567.8" font-family="Avenir Next" font-size="9.00">2 of</text>
</g>
<!-- course__EOS340&#45;&gt;choice_PHYS411_0_0 -->
<g id="edge45" class="edge">
<title>course__EOS340&#45;&gt;choice_PHYS411_0_0</title>
<path fill="none" stroke="#7a8389" d="M772.11,-515.04C793.81,-526.52 821.76,-541.31 843.2,-552.65"/>
<polygon fill="#7a8389" stroke="#7a8389" points="842.3,-554.94 849.63,-556.05 844.59,-550.61 842.3,-554.94"/>
</g>
<!-- course__EOS312 -->
<g id="node19" class="node">
<title>course__EOS312</title>
<g id="a_node19"><a xlink:href="../../../courses/EOS312.html" xlink:title="EOS312: Introductory Chemical Oceanography" target="_top">
<path fill="#d7e9ef" stroke="#7e8d96" d="M1010.5,-644C1010.5,-644 980.5,-644 980.5,-644 974.5,-644 968.5,-638 968.5,-632 968.5,-632 968.5,-620 968.5,-620 968.5,-614 974.5,-608 980.5,-608 980.5,-608 1010.5,-608 1010.5,-608 1016.5,-608 1022.5,-614 1022.5,-620 1022.5,-620 1022.5,-632 1022.5,-632 1022.5,-638 1016.5,-644 1010.5,-644"/>
<text text-anchor="middle" x="995.5" y="-623.8" font-family="Avenir Next" font-size="9.00" fill="#41515b">EOS312</text>
</a>
</g>
</g>
<!-- course__EOS431&#45;&gt;course__EOS312 -->
<g id="edge4" class="edge">
<title>course__EOS431&#45;&gt;course__EOS312</title>
<path fill="none" stroke="#5d6972" stroke-width="1.2" d="M789.29,-600.4C840.53,-606.79 917.78,-616.43 961.42,-621.87"/>
<polygon fill="#5d6972" stroke="#5d6972" stroke-width="1.2" points="961.13,-624.31 968.38,-622.74 961.74,-619.44 961.13,-624.31"/>
</g>
<!-- choice_EOS401_0 -->
<g id="node30" class="node">
<title>choice_EOS401_0</title>
<path fill="#fff7ee" stroke="#b7793f" stroke-width="1.1" d="M1129,-668C1129,-668 1099,-668 1099,-668 1093,-668 1087,-662 1087,-656 1087,-656 1087,-644 1087,-644 1087,-638 1093,-632 1099,-632 1099,-632 1129,-632 1129,-632 1135,-632 1141,-638 1141,-644 1141,-644 1141,-656 1141,-656 1141,-662 1135,-668 1129,-668"/>
<text text-anchor="middle" x="1114" y="-647.8" font-family="Avenir Next" font-size="9.00">3 of</text>
</g>
<!-- course__EOS431&#45;&gt;choice_EOS401_0 -->
<g id="edge13" class="edge">
<title>course__EOS431&#45;&gt;choice_EOS401_0</title>
<path fill="none" stroke="#7a8389" d="M789.18,-609.08C808.23,-614.57 830.06,-620.73 850,-626 900.86,-639.45 912.77,-647.73 965,-654 991.92,-657.23 998.9,-654.62 1026,-654 1043.7,-653.59 1063.4,-652.72 1079.58,-651.9"/>
<polygon fill="#7a8389" stroke="#7a8389" points="1079.88,-654.33 1086.74,-651.52 1079.62,-649.44 1079.88,-654.33"/>
</g>
<!-- course__EOS431&#45;&gt;choice_PHYS411_0_0 -->
<g id="edge46" class="edge">
<title>course__EOS431&#45;&gt;choice_PHYS411_0_0</title>
<path fill="none" stroke="#7a8389" d="M789.39,-585.06C807.2,-581.97 826.68,-578.58 842.66,-575.8"/>
<polygon fill="#7a8389" stroke="#7a8389" points="843.25,-578.18 849.73,-574.57 842.41,-573.35 843.25,-578.18"/>
</g>
<!-- course__GEOG450 -->
<g id="node17" class="node">
<title>course__GEOG450</title>
<g id="a_node17"><a xlink:href="../../../courses/GEOG450.html" xlink:title="GEOG450: Environment and Sustainability in Practice" target="_top">
<path fill="#e7e2d8" stroke="#7e8d96" d="M755.5,-305C755.5,-305 718.5,-305 718.5,-305 712.5,-305 706.5,-299 706.5,-293 706.5,-293 706.5,-281 706.5,-281 706.5,-275 712.5,-269 718.5,-269 718.5,-269 755.5,-269 755.5,-269 761.5,-269 767.5,-275 767.5,-281 767.5,-281 767.5,-293 767.5,-293 767.5,-299 761.5,-305 755.5,-305"/>
<text text-anchor="middle" x="737" y="-284.8" font-family="Avenir Next" font-size="9.00" fill="#41515b">GEOG450</text>
</a>
</g>
</g>
<!-- course__EOS312&#45;&gt;choice_EOS401_0 -->
<g id="edge12" class="edge">
<title>course__EOS312&#45;&gt;choice_EOS401_0</title>
<path fill="none" stroke="#7a8389" d="M1022.64,-631.39C1039.58,-634.88 1061.79,-639.45 1079.95,-643.19"/>
<polygon fill="#7a8389" stroke="#7a8389" points="1079.59,-645.62 1086.94,-644.63 1080.58,-640.82 1079.59,-645.62"/>
</g>
<!-- course__GEOG370 -->
<g id="node22" class="node">
<title>course__GEOG370</title>
<g id="a_node22"><a xlink:href="../../../courses/GEOG370.html" xlink:title="GEOG370: Methods in Hydrology" target="_top">
<path fill="#e7e2d8" stroke="#7e8d96" d="M1014,-109C1014,-109 977,-109 977,-109 971,-109 965,-103 965,-97 965,-97 965,-85 965,-85 965,-79 971,-73 977,-73 977,-73 1014,-73 1014,-73 1020,-73 1026,-79 1026,-85 1026,-85 1026,-97 1026,-97 1026,-103 1020,-109 1014,-109"/>
<text text-anchor="middle" x="995.5" y="-88.8" font-family="Avenir Next" font-size="9.00" fill="#41515b">GEOG370</text>
</a>
</g>
</g>
<!-- course__GEOG370&#45;&gt;choice_GEOG405_0 -->
<g id="edge30" class="edge">
<title>course__GEOG370&#45;&gt;choice_GEOG405_0</title>
<path fill="none" stroke="#7a8389" d="M1026.2,-103.49C1042.74,-110.45 1063.37,-119.13 1080.37,-126.27"/>
<polygon fill="#7a8389" stroke="#7a8389" points="1079.52,-128.58 1086.92,-129.03 1081.42,-124.06 1079.52,-128.58"/>
</g>
<!-- course__GEOG370&#45;&gt;choice_GEOG477_0_0 -->
<g id="edge37" class="edge">
<title>course__GEOG370&#45;&gt;choice_GEOG477_0_0</title>
<path fill="none" stroke="#7a8389" d="M1026.2,-83.86C1042.6,-79.92 1063.01,-75.02 1079.91,-70.95"/>
<polygon fill="#7a8389" stroke="#7a8389" points="1080.69,-73.29 1086.92,-69.27 1079.55,-68.52 1080.69,-73.29"/>
</g>
<!-- course__PHYS411 -->
<g id="node24" class="node">
<title>course__PHYS411</title>
<g id="a_node24"><a xlink:href="../../../courses/PHYS411.html" xlink:title="PHYS411: Time Series Analysis" target="_top">
<path fill="#efd8cf" stroke="#7e8d96" d="M1012.5,-588C1012.5,-588 978.5,-588 978.5,-588 972.5,-588 966.5,-582 966.5,-576 966.5,-576 966.5,-564 966.5,-564 966.5,-558 972.5,-552 978.5,-552 978.5,-552 1012.5,-552 1012.5,-552 1018.5,-552 1024.5,-558 1024.5,-564 1024.5,-564 1024.5,-576 1024.5,-576 1024.5,-582 1018.5,-588 1012.5,-588"/>
<text text-anchor="middle" x="995.5" y="-567.8" font-family="Avenir Next" font-size="9.00" fill="#41515b">PHYS411</text>
</a>
</g>
</g>
<!-- course__EOS401 -->
<g id="node25" class="node">
<title>course__EOS401</title>
<g id="a_node25"><a xlink:href="../../../courses/EOS401.html" xlink:title="EOS401: Oceanographic Field School" target="_top">
<path fill="#d7e9ef" stroke="#7e8d96" d="M1247.5,-668C1247.5,-668 1217.5,-668 1217.5,-668 1211.5,-668 1205.5,-662 1205.5,-656 1205.5,-656 1205.5,-644 1205.5,-644 1205.5,-638 1211.5,-632 1217.5,-632 1217.5,-632 1247.5,-632 1247.5,-632 1253.5,-632 1259.5,-638 1259.5,-644 1259.5,-644 1259.5,-656 1259.5,-656 1259.5,-662 1253.5,-668 1247.5,-668"/>
<text text-anchor="middle" x="1232.5" y="-647.8" font-family="Avenir Next" font-size="9.00" fill="#41515b">EOS401</text>
</a>
</g>
</g>
<!-- course__GEOG405 -->
<g id="node26" class="node">
<title>course__GEOG405</title>
<g id="a_node26"><a xlink:href="../../../courses/GEOG405.html" xlink:title="GEOG405: Dynamics of the Cryosphere" target="_top">
<path fill="#e7e2d8" stroke="#7e8d96" d="M1251,-158C1251,-158 1214,-158 1214,-158 1208,-158 1202,-152 1202,-146 1202,-146 1202,-134 1202,-134 1202,-128 1208,-122 1214,-122 1214,-122 1251,-122 1251,-122 1257,-122 1263,-128 1263,-134 1263,-134 1263,-146 1263,-146 1263,-152 1257,-158 1251,-158"/>
<text text-anchor="middle" x="1232.5" y="-137.8" font-family="Avenir Next" font-size="9.00" fill="#41515b">GEOG405</text>
</a>
</g>
</g>
<!-- course__GEOG477 -->
<g id="node27" class="node">
<title>course__GEOG477</title>
<g id="a_node27"><a xlink:href="../../../courses/GEOG477.html" xlink:title="GEOG477: Field Studies in Physical Geography" target="_top">
<path fill="#e7e2d8" stroke="#7e8d96" d="M1251,-81C1251,-81 1214,-81 1214,-81 1208,-81 1202,-75 1202,-69 1202,-69 1202,-57 1202,-57 1202,-51 1208,-45 1214,-45 1214,-45 1251,-45 1251,-45 1257,-45 1263,-51 1263,-57 1263,-57 1263,-69 1263,-69 1263,-75 1257,-81 1251,-81"/>
<text text-anchor="middle" x="1232.5" y="-60.8" font-family="Avenir Next" font-size="9.00" fill="#41515b">GEOG477</text>
</a>
</g>
</g>
<!-- choice_EOS321_0_1_0&#45;&gt;course__EOS321 -->
<g id="edge7" class="edge">
<title>choice_EOS321_0_1_0&#45;&gt;course__EOS321</title>
<path fill="none" stroke="#5d6972" stroke-width="1.2" d="M387.14,-385C403.93,-385 425.9,-385 443.96,-385"/>
<polygon fill="#5d6972" stroke="#5d6972" stroke-width="1.2" points="444.44,-387.45 451.44,-385 444.44,-382.55 444.44,-387.45"/>
</g>
<!-- choice_EOS325_0_2_0&#45;&gt;course__EOS325 -->
<g id="edge10" class="edge">
<title>choice_EOS325_0_2_0&#45;&gt;course__EOS325</title>
<path fill="none" stroke="#5d6972" stroke-width="1.2" d="M387.14,-441C403.93,-441 425.9,-441 443.96,-441"/>
<polygon fill="#5d6972" stroke="#5d6972" stroke-width="1.2" points="444.44,-443.45 451.44,-441 444.44,-438.55 444.44,-443.45"/>
</g>
<!-- choice_EOS401_0&#45;&gt;course__EOS401 -->
<g id="edge14" class="edge">
<title>choice_EOS401_0&#45;&gt;course__EOS401</title>
<path fill="none" stroke="#5d6972" stroke-width="1.2" d="M1141.14,-650C1157.93,-650 1179.9,-650 1197.96,-650"/>
<polygon fill="#5d6972" stroke="#5d6972" stroke-width="1.2" points="1198.44,-652.45 1205.44,-650 1198.44,-647.55 1198.44,-652.45"/>
</g>
<!-- choice_GEOG370_0_0&#45;&gt;course__GEOG370 -->
<g id="edge26" class="edge">
<title>choice_GEOG370_0_0&#45;&gt;course__GEOG370</title>
<path fill="none" stroke="#5d6972" stroke-width="1.2" d="M904.14,-91C919.88,-91 940.15,-91 957.51,-91"/>
<polygon fill="#5d6972" stroke="#5d6972" stroke-width="1.2" points="957.75,-93.45 964.75,-91 957.75,-88.55 957.75,-93.45"/>
</g>
<!-- choice_GEOG405_0&#45;&gt;course__GEOG405 -->
<g id="edge33" class="edge">
<title>choice_GEOG405_0&#45;&gt;course__GEOG405</title>
<path fill="none" stroke="#5d6972" stroke-width="1.2" d="M1141.14,-140C1156.88,-140 1177.15,-140 1194.51,-140"/>
<polygon fill="#5d6972" stroke="#5d6972" stroke-width="1.2" points="1194.75,-142.45 1201.75,-140 1194.75,-137.55 1194.75,-142.45"/>
</g>
<!-- choice_GEOG450_0&#45;&gt;course__GEOG450 -->
<g id="edge36" class="edge">
<title>choice_GEOG450_0&#45;&gt;course__GEOG450</title>
<path fill="none" stroke="#5d6972" stroke-width="1.2" d="M624.28,-287C645.54,-287 675.73,-287 699.36,-287"/>
<polygon fill="#5d6972" stroke="#5d6972" stroke-width="1.2" points="699.47,-289.45 706.47,-287 699.47,-284.55 699.47,-289.45"/>
</g>
<!-- choice_GEOG477_0_0&#45;&gt;course__GEOG477 -->
<g id="edge39" class="edge">
<title>choice_GEOG477_0_0&#45;&gt;course__GEOG477</title>
<path fill="none" stroke="#5d6972" stroke-width="1.2" d="M1141.14,-63C1156.88,-63 1177.15,-63 1194.51,-63"/>
<polygon fill="#5d6972" stroke="#5d6972" stroke-width="1.2" points="1194.75,-65.45 1201.75,-63 1194.75,-60.55 1194.75,-65.45"/>
</g>
<!-- choice_GEOG489_0_1&#45;&gt;course__GEOG489 -->
<g id="edge44" class="edge">
<title>choice_GEOG489_0_1&#45;&gt;course__GEOG489</title>
<path fill="none" stroke="#5d6972" stroke-width="1.2" d="M904.14,-376.7C920.02,-371.66 940.51,-365.15 957.97,-359.6"/>
<polygon fill="#5d6972" stroke="#5d6972" stroke-width="1.2" points="958.82,-361.9 964.75,-357.45 957.33,-357.23 958.82,-361.9"/>
</g>
<!-- choice_PHYS411_0_0&#45;&gt;course__PHYS411 -->
<g id="edge47" class="edge">
<title>choice_PHYS411_0_0&#45;&gt;course__PHYS411</title>
<path fill="none" stroke="#5d6972" stroke-width="1.2" d="M904.14,-570C920.35,-570 941.37,-570 959.05,-570"/>
<polygon fill="#5d6972" stroke="#5d6972" stroke-width="1.2" points="959.41,-572.45 966.41,-570 959.41,-567.55 959.41,-572.45"/>
</g>
</g>
</svg>
