<?xml version="1.0" encoding="UTF-8" standalone="no"?>
<!DOCTYPE svg PUBLIC "-//W3C//DTD SVG 1.1//EN"
 "http://www.w3.org/Graphics/SVG/1.1/DTD/svg11.dtd">
<!-- Generated by graphviz version 2.43.0 (0)
 -->
<!-- Title: GEOG272 Pages: 1 -->
<svg width="603pt" height="247pt"
 viewBox="0.00 0.00 603.20 247.20" xmlns="http://www.w3.org/2000/svg" xmlns:xlink="http://www.w3.org/1999/xlink">
<g id="graph0" class="graph" transform="scale(1 1) rotate(0) translate(21.6 225.6)">
<title>GEOG272</title>
<!-- course__EOS110 -->
<g id="node1" class="node">
<title>course__EOS110</title>
<g id="a_node1"><a xlink:href="../../../courses/EOS110.html" xlink:title="Equivalent or cross&#45;listed: EOS110: Oceans and Atmosphere | EOS350: Understanding the Oceans" target="_top">
<path fill="#d7e9ef" stroke="#1b2730" stroke-width="1.6" d="M93.5,-176C93.5,-176 16.5,-176 16.5,-176 10.5,-176 4.5,-170 4.5,-164 4.5,-164 4.5,-152 4.5,-152 4.5,-146 10.5,-140 16.5,-140 16.5,-140 93.5,-140 93.5,-140 99.5,-140 105.5,-146 105.5,-152 105.5,-152 105.5,-164 105.5,-164 105.5,-170 99.5,-176 93.5,-176"/>
<text text-anchor="middle" x="55" y="-155.5" font-family="Avenir Next" font-size="10.00" fill="#17232b">EOS110 / EOS350</text>
</a>
</g>
</g>
<!-- choice_GEOG272_0 -->
<g id="node9" class="node">
<title>choice_GEOG272_0</title>
<path fill="#fff7ee" stroke="#b7793f" stroke-width="1.1" d="M213,-120C213,-120 183,-120 183,-120 177,-120 171,-114 171,-108 171,-108 171,-96 171,-96 171,-90 177,-84 183,-84 183,-84 213,-84 213,-84 219,-84 225,-90 225,-96 225,-96 225,-108 225,-108 225,-114 219,-120 213,-120"/>
<text text-anchor="middle" x="198" y="-99.8" font-family="Avenir Next" font-size="9.00">1 of</text>
</g>
<!-- course__EOS110&#45;&gt;choice_GEOG272_0 -->
<g id="edge3" class="edge">
<title>course__EOS110&#45;&gt;choice_GEOG272_0</title>
<path fill="none" stroke="#7a8389" d="M101.39,-139.97C121.75,-131.89 145.33,-122.52 163.98,-115.12"/>
<polygon fill="#7a8389" stroke="#7a8389" points="165.01,-117.34 170.61,-112.48 163.2,-112.79 165.01,-117.34"/>
</g>
<!-- course__EOS130 -->
<g id="node2" class="node">
<title>course__EOS130</title>
<g id="a_node2"><a xlink:href="../../../courses/EOS130.html" xlink:title="Equivalent or cross&#45;listed: EOS130: Climate Change | GEOG130: Climate Change" target="_top">
<path fill="#d7e9ef" stroke="#1b2730" stroke-width="1.6" d="M98,-120C98,-120 12,-120 12,-120 6,-120 0,-114 0,-108 0,-108 0,-96 0,-96 0,-90 6,-84 12,-84 12,-84 98,-84 98,-84 104,-84 110,-90 110,-96 110,-96 110,-108 110,-108 110,-114 104,-120 98,-120"/>
<text text-anchor="middle" x="55" y="-99.5" font-family="Avenir Next" font-size="10.00" fill="#17232b">EOS130 / GEOG130</text>
</a>
</g>
</g>
<!-- course__EOS130&#45;&gt;choice_GEOG272_0 -->
<g id="edge2" class="edge">
<title>course__EOS130&#45;&gt;choice_GEOG272_0</title>
<path fill="none" stroke="#7a8389" d="M110.11,-102C128.16,-102 147.73,-102 163.71,-102"/>
<polygon fill="#7a8389" stroke="#7a8389" points="163.79,-104.45 170.79,-102 163.79,-99.55 163.79,-104.45"/>
</g>
<!-- course__GEOG103 -->
<g id="node3" class="node">
<title>course__GEOG103</title>
<g id="a_node3"><a xlink:href="../../../courses/GEOG103.html" xlink:title="GEOG103: Our Natural Earth" target="_top">
<path fill="#e7e2d8" stroke="#1b2730" stroke-width="1.6" d="M74.5,-64C74.5,-64 35.5,-64 35.5,-64 29.5,-64 23.5,-58 23.5,-52 23.5,-52 23.5,-40 23.5,-40 23.5,-34 29.5,-28 35.5,-28 35.5,-28 74.5,-28 74.5,-28 80.5,-28 86.5,-34 86.5,-40 86.5,-40 86.5,-52 86.5,-52 86.5,-58 80.5,-64 74.5,-64"/>
<text text-anchor="middle" x="55" y="-43.5" font-family="Avenir Next" font-size="10.00" fill="#17232b">GEOG103</text>
</a>
</g>
</g>
<!-- course__GEOG103&#45;&gt;choice_GEOG272_0 -->
<g id="edge1" class="edge">
<title>course__GEOG103&#45;&gt;choice_GEOG272_0</title>
<path fill="none" stroke="#7a8389" d="M86.59,-58.15C109.45,-67.23 140.64,-79.62 164.04,-88.91"/>
<polygon fill="#7a8389" stroke="#7a8389" points="163.32,-91.26 170.73,-91.57 165.13,-86.71 163.32,-91.26"/>
</g>
<!-- course__GEOG272 -->
<g id="node4" class="node">
<title>course__GEOG272</title>
<g id="a_node4"><a xlink:href="../../../courses/GEOG272.html" xlink:title="GEOG272: Climatology and Hydrology" target="_top">
<path fill="#e7e2d8" stroke="#1f4f66" stroke-width="2" d="M424,-120C424,-120 298,-120 298,-120 292,-120 286,-114 286,-108 286,-108 286,-96 286,-96 286,-90 292,-84 298,-84 298,-84 424,-84 424,-84 430,-84 436,-90 436,-96 436,-96 436,-108 436,-108 436,-114 430,-120 424,-120"/>
<text text-anchor="middle" x="361" y="-105" font-family="Avenir Next" font-size="10.00" fill="#17232b">GEOG272</text>
<text text-anchor="middle" x="361" y="-94" font-family="Avenir Next" font-size="10.00" fill="#17232b">Climatology and Hydrology</text>
</a>
</g>
</g>
<!-- course__GEOG313 -->
<g id="node5" class="node">
<title>course__GEOG313</title>
<g id="a_node5"><a xlink:href="../../../courses/GEOG313.html" xlink:title="GEOG313: Field Studies in Mountain Meteorology" target="_top">
<path fill="#e7e2d8" stroke="#1b2730" stroke-width="1.6" d="M548,-204C548,-204 509,-204 509,-204 503,-204 497,-198 497,-192 497,-192 497,-180 497,-180 497,-174 503,-168 509,-168 509,-168 548,-168 548,-168 554,-168 560,-174 560,-180 560,-180 560,-192 560,-192 560,-198 554,-204 548,-204"/>
<text text-anchor="middle" x="528.5" y="-183.5" font-family="Avenir Next" font-size="10.00" fill="#17232b">GEOG313</text>
</a>
</g>
</g>
<!-- course__GEOG272&#45;&gt;course__GEOG313 -->
<g id="edge5" class="edge">
<title>course__GEOG272&#45;&gt;course__GEOG313</title>
<path fill="none" stroke="#5d6972" stroke-width="1.2" d="M397.5,-120.02C424.85,-133.9 462.55,-153.03 490.31,-167.12"/>
<polygon fill="#5d6972" stroke="#5d6972" stroke-width="1.2" points="489.43,-169.43 496.78,-170.41 491.65,-165.06 489.43,-169.43"/>
</g>
<!-- course__GEOG370 -->
<g id="node6" class="node">
<title>course__GEOG370</title>
<g id="a_node6"><a xlink:href="../../../courses/GEOG370.html" xlink:title="GEOG370: Methods in Hydrology" target="_top">
<path fill="#e7e2d8" stroke="#1b2730" stroke-width="1.6" d="M548,-148C548,-148 509,-148 509,-148 503,-148 497,-142 497,-136 497,-136 497,-124 497,-124 497,-118 503,-112 509,-112 509,-112 548,-112 548,-112 554,-112 560,-118 560,-124 560,-124 560,-136 560,-136 560,-142 554,-148 548,-148"/>
<text text-anchor="middle" x="528.5" y="-127.5" font-family="Avenir Next" font-size="10.00" fill="#17232b">GEOG370</text>
</a>
</g>
</g>
<!-- course__GEOG272&#45;&gt;course__GEOG370 -->
<g id="edge6" class="edge">
<title>course__GEOG272&#45;&gt;course__GEOG370</title>
<path fill="none" stroke="#5d6972" stroke-width="1.2" d="M436.04,-114.53C454.55,-117.66 473.64,-120.89 489.57,-123.58"/>
<polygon fill="#5d6972" stroke="#5d6972" stroke-width="1.2" points="489.34,-126.03 496.65,-124.78 490.16,-121.2 489.34,-126.03"/>
</g>
<!-- course__GEOG371 -->
<g id="node7" class="node">
<title>course__GEOG371</title>
<g id="a_node7"><a xlink:href="../../../courses/GEOG371.html" xlink:title="GEOG371: Water Resources Management" target="_top">
<path fill="#e7e2d8" stroke="#1b2730" stroke-width="1.6" d="M548,-92C548,-92 509,-92 509,-92 503,-92 497,-86 497,-80 497,-80 497,-68 497,-68 497,-62 503,-56 509,-56 509,-56 548,-56 548,-56 554,-56 560,-62 560,-68 560,-68 560,-80 560,-80 560,-86 554,-92 548,-92"/>
<text text-anchor="middle" x="528.5" y="-71.5" font-family="Avenir Next" font-size="10.00" fill="#17232b">GEOG371</text>
</a>
</g>
</g>
<!-- course__GEOG272&#45;&gt;course__GEOG371 -->
<g id="edge7" class="edge">
<title>course__GEOG272&#45;&gt;course__GEOG371</title>
<path fill="none" stroke="#5d6972" stroke-width="1.2" d="M436.04,-89.47C454.55,-86.34 473.64,-83.11 489.57,-80.42"/>
<polygon fill="#5d6972" stroke="#5d6972" stroke-width="1.2" points="490.16,-82.8 496.65,-79.22 489.34,-77.97 490.16,-82.8"/>
</g>
<!-- course__GEOG373 -->
<g id="node8" class="node">
<title>course__GEOG373</title>
<g id="a_node8"><a xlink:href="../../../courses/GEOG373.html" xlink:title="GEOG373: Applied Climatology" target="_top">
<path fill="#e7e2d8" stroke="#1b2730" stroke-width="1.6" d="M548,-36C548,-36 509,-36 509,-36 503,-36 497,-30 497,-24 497,-24 497,-12 497,-12 497,-6 503,0 509,0 509,0 548,0 548,0 554,0 560,-6 560,-12 560,-12 560,-24 560,-24 560,-30 554,-36 548,-36"/>
<text text-anchor="middle" x="528.5" y="-15.5" font-family="Avenir Next" font-size="10.00" fill="#17232b">GEOG373</text>
</a>
</g>
</g>
<!-- course__GEOG272&#45;&gt;course__GEOG373 -->
<g id="edge8" class="edge">
<title>course__GEOG272&#45;&gt;course__GEOG373</title>
<path fill="none" stroke="#5d6972" stroke-width="1.2" d="M397.5,-83.98C424.85,-70.1 462.55,-50.97 490.31,-36.88"/>
<polygon fill="#5d6972" stroke="#5d6972" stroke-width="1.2" points="491.65,-38.94 496.78,-33.59 489.43,-34.57 491.65,-38.94"/>
</g>
<!-- choice_GEOG272_0&#45;&gt;course__GEOG272 -->
<g id="edge4" class="edge">
<title>choice_GEOG272_0&#45;&gt;course__GEOG272</title>
<path fill="none" stroke="#5d6972" stroke-width="1.2" d="M225.23,-102C239.99,-102 259.3,-102 278.68,-102"/>
<polygon fill="#5d6972" stroke="#5d6972" stroke-width="1.2" points="278.82,-104.45 285.82,-102 278.82,-99.55 278.82,-104.45"/>
</g>
</g>
</svg>
