<?xml version="1.0" encoding="UTF-8" standalone="no"?>
<!DOCTYPE svg PUBLIC "-//W3C//DTD SVG 1.1//EN"
 "http://www.w3.org/Graphics/SVG/1.1/DTD/svg11.dtd">
<!-- Generated by graphviz version 2.43.0 (0)
 -->
<!-- Title: GEOG314 Pages: 1 -->
<svg width="315pt" height="79pt"
 viewBox="0.00 0.00 315.20 79.20" xmlns="http://www.w3.org/2000/svg" xmlns:xlink="http://www.w3.org/1999/xlink">
<g id="graph0" class="graph" transform="scale(1 1) rotate(0) translate(21.6 57.6)">
<title>GEOG314</title>
<!-- course__GEOG314 -->
<g id="node1" class="node">
<title>course__GEOG314</title>
<g id="a_node1"><a xlink:href="../../../courses/GEOG314.html" xlink:title="GEOG314: Global Environmental Change and Human Response" target="_top">
<path fill="#e7e2d8" stroke="#1f4f66" stroke-width="2" d="M260,-36C260,-36 12,-36 12,-36 6,-36 0,-30 0,-24 0,-24 0,-12 0,-12 0,-6 6,0 12,0 12,0 260,0 260,0 266,0 272,-6 272,-12 272,-12 272,-24 272,-24 272,-30 266,-36 260,-36"/>
<text text-anchor="middle" x="136" y="-21" font-family="Avenir Next" font-size="10.00" fill="#17232b">GEOG314</text>
<text text-anchor="middle" x="136" y="-10" font-family="Avenir Next" font-size="10.00" fill="#17232b">Global Environmental Change and Human Response</text>
</a>
</g>
</g>
</g>
</svg>
