<?xml version="1.0" encoding="UTF-8" standalone="no"?>
<!DOCTYPE svg PUBLIC "-//W3C//DTD SVG 1.1//EN"
 "http://www.w3.org/Graphics/SVG/1.1/DTD/svg11.dtd">
<!-- Generated by graphviz version 2.43.0 (0)
 -->
<!-- Title: GEOG226 Pages: 1 -->
<svg width="358pt" height="303pt"
 viewBox="0.00 0.00 358.20 303.20" xmlns="http://www.w3.org/2000/svg" xmlns:xlink="http://www.w3.org/1999/xlink">
<g id="graph0" class="graph" transform="scale(1 1) rotate(0) translate(21.6 281.6)">
<title>GEOG226</title>
<!-- course__GEOG226 -->
<g id="node1" class="node">
<title>course__GEOG226</title>
<g id="a_node1"><a xlink:href="../../../courses/GEOG226.html" xlink:title="GEOG226: Quantitative Methods in Geography" target="_top">
<path fill="#e7e2d8" stroke="#1f4f66" stroke-width="2" d="M179,-148C179,-148 12,-148 12,-148 6,-148 0,-142 0,-136 0,-136 0,-124 0,-124 0,-118 6,-112 12,-112 12,-112 179,-112 179,-112 185,-112 191,-118 191,-124 191,-124 191,-136 191,-136 191,-142 185,-148 179,-148"/>
<text text-anchor="middle" x="95.5" y="-133" font-family="Avenir Next" font-size="10.00" fill="#17232b">GEOG226</text>
<text text-anchor="middle" x="95.5" y="-122" font-family="Avenir Next" font-size="10.00" fill="#17232b">Quantitative Methods in Geography</text>
</a>
</g>
</g>
<!-- course__GEOG319 -->
<g id="node2" class="node">
<title>course__GEOG319</title>
<g id="a_node2"><a xlink:href="../../../courses/GEOG319.html" xlink:title="GEOG319: Remote Sensing of the Environment using Passive Sensors" target="_top">
<path fill="#e7e2d8" stroke="#1b2730" stroke-width="1.6" d="M303,-260C303,-260 264,-260 264,-260 258,-260 252,-254 252,-248 252,-248 252,-236 252,-236 252,-230 258,-224 264,-224 264,-224 303,-224 303,-224 309,-224 315,-230 315,-236 315,-236 315,-248 315,-248 315,-254 309,-260 303,-260"/>
<text text-anchor="middle" x="283.5" y="-239.5" font-family="Avenir Next" font-size="10.00" fill="#17232b">GEOG319</text>
</a>
</g>
</g>
<!-- course__GEOG226&#45;&gt;course__GEOG319 -->
<g id="edge1" class="edge">
<title>course__GEOG226&#45;&gt;course__GEOG319</title>
<path fill="none" stroke="#5d6972" stroke-width="1.2" d="M126.8,-148.24C159.46,-167.91 211.42,-199.2 246.23,-220.16"/>
<polygon fill="#5d6972" stroke="#5d6972" stroke-width="1.2" points="245.26,-222.44 252.52,-223.95 247.79,-218.24 245.26,-222.44"/>
</g>
<!-- course__GEOG322 -->
<g id="node3" class="node">
<title>course__GEOG322</title>
<g id="a_node3"><a xlink:href="../../../courses/GEOG322.html" xlink:title="GEOG322: Remote Sensing of the Environment using Active Sensors" target="_top">
<path fill="#e7e2d8" stroke="#1b2730" stroke-width="1.6" d="M303,-204C303,-204 264,-204 264,-204 258,-204 252,-198 252,-192 252,-192 252,-180 252,-180 252,-174 258,-168 264,-168 264,-168 303,-168 303,-168 309,-168 315,-174 315,-180 315,-180 315,-192 315,-192 315,-198 309,-204 303,-204"/>
<text text-anchor="middle" x="283.5" y="-183.5" font-family="Avenir Next" font-size="10.00" fill="#17232b">GEOG322</text>
</a>
</g>
</g>
<!-- course__GEOG226&#45;&gt;course__GEOG322 -->
<g id="edge2" class="edge">
<title>course__GEOG226&#45;&gt;course__GEOG322</title>
<path fill="none" stroke="#5d6972" stroke-width="1.2" d="M156.38,-148.03C185.5,-156.79 219.6,-167.06 245,-174.71"/>
<polygon fill="#5d6972" stroke="#5d6972" stroke-width="1.2" points="244.51,-177.12 251.92,-176.79 245.93,-172.43 244.51,-177.12"/>
</g>
<!-- course__GEOG328 -->
<g id="node4" class="node">
<title>course__GEOG328</title>
<g id="a_node4"><a xlink:href="../../../courses/GEOG328.html" xlink:title="GEOG328: GIS Analysis" target="_top">
<path fill="#e7e2d8" stroke="#1b2730" stroke-width="1.6" d="M303,-148C303,-148 264,-148 264,-148 258,-148 252,-142 252,-136 252,-136 252,-124 252,-124 252,-118 258,-112 264,-112 264,-112 303,-112 303,-112 309,-112 315,-118 315,-124 315,-124 315,-136 315,-136 315,-142 309,-148 303,-148"/>
<text text-anchor="middle" x="283.5" y="-127.5" font-family="Avenir Next" font-size="10.00" fill="#17232b">GEOG328</text>
</a>
</g>
</g>
<!-- course__GEOG226&#45;&gt;course__GEOG328 -->
<g id="edge3" class="edge">
<title>course__GEOG226&#45;&gt;course__GEOG328</title>
<path fill="none" stroke="#5d6972" stroke-width="1.2" d="M191.13,-130C209.95,-130 228.68,-130 244.24,-130"/>
<polygon fill="#5d6972" stroke="#5d6972" stroke-width="1.2" points="244.61,-132.45 251.61,-130 244.61,-127.55 244.61,-132.45"/>
</g>
<!-- course__GEOG329 -->
<g id="node5" class="node">
<title>course__GEOG329</title>
<g id="a_node5"><a xlink:href="../../../courses/GEOG329.html" xlink:title="GEOG329: GIS Applications and Tools" target="_top">
<path fill="#e7e2d8" stroke="#1b2730" stroke-width="1.6" d="M303,-92C303,-92 264,-92 264,-92 258,-92 252,-86 252,-80 252,-80 252,-68 252,-68 252,-62 258,-56 264,-56 264,-56 303,-56 303,-56 309,-56 315,-62 315,-68 315,-68 315,-80 315,-80 315,-86 309,-92 303,-92"/>
<text text-anchor="middle" x="283.5" y="-71.5" font-family="Avenir Next" font-size="10.00" fill="#17232b">GEOG329</text>
</a>
</g>
</g>
<!-- course__GEOG226&#45;&gt;course__GEOG329 -->
<g id="edge4" class="edge">
<title>course__GEOG226&#45;&gt;course__GEOG329</title>
<path fill="none" stroke="#5d6972" stroke-width="1.2" d="M156.38,-111.97C185.5,-103.21 219.6,-92.94 245,-85.29"/>
<polygon fill="#5d6972" stroke="#5d6972" stroke-width="1.2" points="245.93,-87.57 251.92,-83.21 244.51,-82.88 245.93,-87.57"/>
</g>
<!-- course__STAT359 -->
<g id="node6" class="node">
<title>course__STAT359</title>
<g id="a_node6"><a xlink:href="../../../courses/STAT359.html" xlink:title="STAT359: Data Analysis" target="_top">
<path fill="#e6dde9" stroke="#1b2730" stroke-width="1.6" d="M300.5,-36C300.5,-36 266.5,-36 266.5,-36 260.5,-36 254.5,-30 254.5,-24 254.5,-24 254.5,-12 254.5,-12 254.5,-6 260.5,0 266.5,0 266.5,0 300.5,0 300.5,0 306.5,0 312.5,-6 312.5,-12 312.5,-12 312.5,-24 312.5,-24 312.5,-30 306.5,-36 300.5,-36"/>
<text text-anchor="middle" x="283.5" y="-15.5" font-family="Avenir Next" font-size="10.00" fill="#17232b">STAT359</text>
</a>
</g>
</g>
<!-- course__GEOG226&#45;&gt;course__STAT359 -->
<g id="edge5" class="edge">
<title>course__GEOG226&#45;&gt;course__STAT359</title>
<path fill="none" stroke="#5d6972" stroke-width="1.2" d="M126.8,-111.76C160.04,-91.74 213.28,-59.68 248.07,-38.73"/>
<polygon fill="#5d6972" stroke="#5d6972" stroke-width="1.2" points="249.61,-40.66 254.35,-34.95 247.09,-36.46 249.61,-40.66"/>
</g>
</g>
</svg>
