<?xml version="1.0" encoding="UTF-8" standalone="no"?>
<!DOCTYPE svg PUBLIC "-//W3C//DTD SVG 1.1//EN"
 "http://www.w3.org/Graphics/SVG/1.1/DTD/svg11.dtd">
<!-- Generated by graphviz version 2.43.0 (0)
 -->
<!-- Title: GEOG489 Pages: 1 -->
<svg width="432pt" height="303pt"
 viewBox="0.00 0.00 432.20 303.20" xmlns="http://www.w3.org/2000/svg" xmlns:xlink="http://www.w3.org/1999/xlink">
<g id="graph0" class="graph" transform="scale(1 1) rotate(0) translate(21.6 281.6)">
<title>GEOG489</title>
<!-- course__EOS230 -->
<g id="node1" class="node">
<title>course__EOS230</title>
<g id="a_node1"><a xlink:href="../../../courses/EOS230.html" xlink:title="Equivalent or cross&#45;listed: EOS230: Introduction to Environmental Data Analysis | GEOG230: Introduction to Environmental Data Analysis" target="_top">
<path fill="#d7e9ef" stroke="#1b2730" stroke-width="1.6" d="M98,-260C98,-260 12,-260 12,-260 6,-260 0,-254 0,-248 0,-248 0,-236 0,-236 0,-230 6,-224 12,-224 12,-224 98,-224 98,-224 104,-224 110,-230 110,-236 110,-236 110,-248 110,-248 110,-254 104,-260 98,-260"/>
<text text-anchor="middle" x="55" y="-239.5" font-family="Avenir Next" font-size="10.00" fill="#17232b">EOS230 / GEOG230</text>
</a>
</g>
</g>
<!-- course__GEOG489 -->
<g id="node6" class="node">
<title>course__GEOG489</title>
<g id="a_node6"><a xlink:href="../../../courses/GEOG489.html" xlink:title="GEOG489: Climate Solutions" target="_top">
<path fill="#e7e2d8" stroke="#1f4f66" stroke-width="2" d="M377,-176C377,-176 298,-176 298,-176 292,-176 286,-170 286,-164 286,-164 286,-152 286,-152 286,-146 292,-140 298,-140 298,-140 377,-140 377,-140 383,-140 389,-146 389,-152 389,-152 389,-164 389,-164 389,-170 383,-176 377,-176"/>
<text text-anchor="middle" x="337.5" y="-161" font-family="Avenir Next" font-size="10.00" fill="#17232b">GEOG489</text>
<text text-anchor="middle" x="337.5" y="-150" font-family="Avenir Next" font-size="10.00" fill="#17232b">Climate Solutions</text>
</a>
</g>
</g>
<!-- course__EOS230&#45;&gt;course__GEOG489 -->
<g id="edge5" class="edge">
<title>course__EOS230&#45;&gt;course__GEOG489</title>
<path fill="none" stroke="#5d6972" stroke-width="1.2" d="M110.08,-225.8C158.59,-211.28 229.54,-190.03 279.05,-175.21"/>
<polygon fill="#5d6972" stroke="#5d6972" stroke-width="1.2" points="279.88,-177.51 285.89,-173.16 278.48,-172.82 279.88,-177.51"/>
</g>
<!-- course__EOS340 -->
<g id="node2" class="node">
<title>course__EOS340</title>
<g id="a_node2"><a xlink:href="../../../courses/EOS340.html" xlink:title="Equivalent or cross&#45;listed: EOS340: Atmospheric Physics | PHYS340: Atmospheric Physics" target="_top">
<path fill="#d7e9ef" stroke="#1b2730" stroke-width="1.6" d="M96.5,-204C96.5,-204 13.5,-204 13.5,-204 7.5,-204 1.5,-198 1.5,-192 1.5,-192 1.5,-180 1.5,-180 1.5,-174 7.5,-168 13.5,-168 13.5,-168 96.5,-168 96.5,-168 102.5,-168 108.5,-174 108.5,-180 108.5,-180 108.5,-192 108.5,-192 108.5,-198 102.5,-204 96.5,-204"/>
<text text-anchor="middle" x="55" y="-183.5" font-family="Avenir Next" font-size="10.00" fill="#17232b">EOS340 / PHYS340</text>
</a>
</g>
</g>
<!-- choice_GEOG489_0_1 -->
<g id="node7" class="node">
<title>choice_GEOG489_0_1</title>
<path fill="#fff7ee" stroke="#b7793f" stroke-width="1.1" d="M213,-176C213,-176 183,-176 183,-176 177,-176 171,-170 171,-164 171,-164 171,-152 171,-152 171,-146 177,-140 183,-140 183,-140 213,-140 213,-140 219,-140 225,-146 225,-152 225,-152 225,-164 225,-164 225,-170 219,-176 213,-176"/>
<text text-anchor="middle" x="198" y="-155.8" font-family="Avenir Next" font-size="9.00">1 of</text>
</g>
<!-- course__EOS340&#45;&gt;choice_GEOG489_0_1 -->
<g id="edge2" class="edge">
<title>course__EOS340&#45;&gt;choice_GEOG489_0_1</title>
<path fill="none" stroke="#7a8389" d="M108.5,-175.57C126.97,-171.91 147.21,-167.89 163.66,-164.62"/>
<polygon fill="#7a8389" stroke="#7a8389" points="164.54,-166.94 170.93,-163.18 163.59,-162.14 164.54,-166.94"/>
</g>
<!-- course__EOS365 -->
<g id="node3" class="node">
<title>course__EOS365</title>
<g id="a_node3"><a xlink:href="../../../courses/EOS365.html" xlink:title="Equivalent or cross&#45;listed: EOS365: Climate and Society | ES365: Climate and Society" target="_top">
<path fill="#d7e9ef" stroke="#1b2730" stroke-width="1.6" d="M89.5,-92C89.5,-92 20.5,-92 20.5,-92 14.5,-92 8.5,-86 8.5,-80 8.5,-80 8.5,-68 8.5,-68 8.5,-62 14.5,-56 20.5,-56 20.5,-56 89.5,-56 89.5,-56 95.5,-56 101.5,-62 101.5,-68 101.5,-68 101.5,-80 101.5,-80 101.5,-86 95.5,-92 89.5,-92"/>
<text text-anchor="middle" x="55" y="-71.5" font-family="Avenir Next" font-size="10.00" fill="#17232b">EOS365 / ES365</text>
</a>
</g>
</g>
<!-- choice_GEOG489_0_2 -->
<g id="node8" class="node">
<title>choice_GEOG489_0_2</title>
<path fill="#fff7ee" stroke="#b7793f" stroke-width="1.1" d="M213,-92C213,-92 183,-92 183,-92 177,-92 171,-86 171,-80 171,-80 171,-68 171,-68 171,-62 177,-56 183,-56 183,-56 213,-56 213,-56 219,-56 225,-62 225,-68 225,-68 225,-80 225,-80 225,-86 219,-92 213,-92"/>
<text text-anchor="middle" x="198" y="-71.8" font-family="Avenir Next" font-size="9.00">1 of</text>
</g>
<!-- course__EOS365&#45;&gt;choice_GEOG489_0_2 -->
<g id="edge4" class="edge">
<title>course__EOS365&#45;&gt;choice_GEOG489_0_2</title>
<path fill="none" stroke="#7a8389" d="M101.78,-74C121.94,-74 145.19,-74 163.67,-74"/>
<polygon fill="#7a8389" stroke="#7a8389" points="163.76,-76.45 170.76,-74 163.76,-71.55 163.76,-76.45"/>
</g>
<!-- course__GEOG314 -->
<g id="node4" class="node">
<title>course__GEOG314</title>
<g id="a_node4"><a xlink:href="../../../courses/GEOG314.html" xlink:title="GEOG314: Global Environmental Change and Human Response" target="_top">
<path fill="#e7e2d8" stroke="#1b2730" stroke-width="1.6" d="M74.5,-36C74.5,-36 35.5,-36 35.5,-36 29.5,-36 23.5,-30 23.5,-24 23.5,-24 23.5,-12 23.5,-12 23.5,-6 29.5,0 35.5,0 35.5,0 74.5,0 74.5,0 80.5,0 86.5,-6 86.5,-12 86.5,-12 86.5,-24 86.5,-24 86.5,-30 80.5,-36 74.5,-36"/>
<text text-anchor="middle" x="55" y="-15.5" font-family="Avenir Next" font-size="10.00" fill="#17232b">GEOG314</text>
</a>
</g>
</g>
<!-- course__GEOG314&#45;&gt;choice_GEOG489_0_2 -->
<g id="edge3" class="edge">
<title>course__GEOG314&#45;&gt;choice_GEOG489_0_2</title>
<path fill="none" stroke="#7a8389" d="M86.59,-30.15C109.45,-39.23 140.64,-51.62 164.04,-60.91"/>
<polygon fill="#7a8389" stroke="#7a8389" points="163.32,-63.26 170.73,-63.57 165.13,-58.71 163.32,-63.26"/>
</g>
<!-- course__GEOG373 -->
<g id="node5" class="node">
<title>course__GEOG373</title>
<g id="a_node5"><a xlink:href="../../../courses/GEOG373.html" xlink:title="GEOG373: Applied Climatology" target="_top">
<path fill="#e7e2d8" stroke="#1b2730" stroke-width="1.6" d="M74.5,-148C74.5,-148 35.5,-148 35.5,-148 29.5,-148 23.5,-142 23.5,-136 23.5,-136 23.5,-124 23.5,-124 23.5,-118 29.5,-112 35.5,-112 35.5,-112 74.5,-112 74.5,-112 80.5,-112 86.5,-118 86.5,-124 86.5,-124 86.5,-136 86.5,-136 86.5,-142 80.5,-148 74.5,-148"/>
<text text-anchor="middle" x="55" y="-127.5" font-family="Avenir Next" font-size="10.00" fill="#17232b">GEOG373</text>
</a>
</g>
</g>
<!-- course__GEOG373&#45;&gt;choice_GEOG489_0_1 -->
<g id="edge1" class="edge">
<title>course__GEOG373&#45;&gt;choice_GEOG489_0_1</title>
<path fill="none" stroke="#7a8389" d="M86.59,-136.08C109.35,-140.59 140.37,-146.75 163.74,-151.4"/>
<polygon fill="#7a8389" stroke="#7a8389" points="163.39,-153.82 170.73,-152.78 164.34,-149.02 163.39,-153.82"/>
</g>
<!-- choice_GEOG489_0_1&#45;&gt;course__GEOG489 -->
<g id="edge6" class="edge">
<title>choice_GEOG489_0_1&#45;&gt;course__GEOG489</title>
<path fill="none" stroke="#5d6972" stroke-width="1.2" d="M225.19,-158C240.32,-158 259.99,-158 278.58,-158"/>
<polygon fill="#5d6972" stroke="#5d6972" stroke-width="1.2" points="278.91,-160.45 285.91,-158 278.91,-155.55 278.91,-160.45"/>
</g>
<!-- choice_GEOG489_0_2&#45;&gt;course__GEOG489 -->
<g id="edge7" class="edge">
<title>choice_GEOG489_0_2&#45;&gt;course__GEOG489</title>
<path fill="none" stroke="#5d6972" stroke-width="1.2" d="M225.19,-90C246.5,-103.02 276.82,-121.54 300.43,-135.96"/>
<polygon fill="#5d6972" stroke="#5d6972" stroke-width="1.2" points="299.34,-138.17 306.59,-139.73 301.89,-133.99 299.34,-138.17"/>
</g>
</g>
</svg>
