<?xml version="1.0" encoding="UTF-8" standalone="no"?>
<!DOCTYPE svg PUBLIC "-//W3C//DTD SVG 1.1//EN"
 "http://www.w3.org/Graphics/SVG/1.1/DTD/svg11.dtd">
<!-- Generated by graphviz version 2.43.0 (0)
 -->
<!-- Title: GEOG484 Pages: 1 -->
<svg width="787pt" height="191pt"
 viewBox="0.00 0.00 787.20 191.20" xmlns="http://www.w3.org/2000/svg" xmlns:xlink="http://www.w3.org/1999/xlink">
<g id="graph0" class="graph" transform="scale(1 1) rotate(0) translate(21.6 169.6)">
<title>GEOG484</title>
<!-- course__EOS110 -->
<g id="node1" class="node">
<title>course__EOS110</title>
<g id="a_node1"><a xlink:href="../../../courses/EOS110.html" xlink:title="Equivalent or cross&#45;listed: EOS110: Oceans and Atmosphere | EOS350: Understanding the Oceans" target="_top">
<path fill="#d7e9ef" stroke="#7e8d96" d="M91,-148C91,-148 16,-148 16,-148 10,-148 4,-142 4,-136 4,-136 4,-124 4,-124 4,-118 10,-112 16,-112 16,-112 91,-112 91,-112 97,-112 103,-118 103,-124 103,-124 103,-136 103,-136 103,-142 97,-148 91,-148"/>
<text text-anchor="middle" x="53.5" y="-127.8" font-family="Avenir Next" font-size="9.00" fill="#41515b">EOS110 / EOS350</text>
</a>
</g>
</g>
<!-- choice_GEOG272_0 -->
<g id="node7" class="node">
<title>choice_GEOG272_0</title>
<path fill="#fff7ee" stroke="#b7793f" stroke-width="1.1" d="M210,-92C210,-92 180,-92 180,-92 174,-92 168,-86 168,-80 168,-80 168,-68 168,-68 168,-62 174,-56 180,-56 180,-56 210,-56 210,-56 216,-56 222,-62 222,-68 222,-68 222,-80 222,-80 222,-86 216,-92 210,-92"/>
<text text-anchor="middle" x="195" y="-71.8" font-family="Avenir Next" font-size="9.00">1 of</text>
</g>
<!-- course__EOS110&#45;&gt;choice_GEOG272_0 -->
<g id="edge3" class="edge">
<title>course__EOS110&#45;&gt;choice_GEOG272_0</title>
<path fill="none" stroke="#7a8389" d="M99.41,-111.97C119.55,-103.89 142.88,-94.52 161.33,-87.12"/>
<polygon fill="#7a8389" stroke="#7a8389" points="162.31,-89.36 167.89,-84.48 160.48,-84.82 162.31,-89.36"/>
</g>
<!-- course__EOS130 -->
<g id="node2" class="node">
<title>course__EOS130</title>
<g id="a_node2"><a xlink:href="../../../courses/EOS130.html" xlink:title="Equivalent or cross&#45;listed: EOS130: Climate Change | GEOG130: Climate Change" target="_top">
<path fill="#d7e9ef" stroke="#7e8d96" d="M95,-92C95,-92 12,-92 12,-92 6,-92 0,-86 0,-80 0,-80 0,-68 0,-68 0,-62 6,-56 12,-56 12,-56 95,-56 95,-56 101,-56 107,-62 107,-68 107,-68 107,-80 107,-80 107,-86 101,-92 95,-92"/>
<text text-anchor="middle" x="53.5" y="-71.8" font-family="Avenir Next" font-size="9.00" fill="#41515b">EOS130 / GEOG130</text>
</a>
</g>
</g>
<!-- course__EOS130&#45;&gt;choice_GEOG272_0 -->
<g id="edge2" class="edge">
<title>course__EOS130&#45;&gt;choice_GEOG272_0</title>
<path fill="none" stroke="#7a8389" d="M107.24,-74C125.17,-74 144.7,-74 160.68,-74"/>
<polygon fill="#7a8389" stroke="#7a8389" points="160.76,-76.45 167.76,-74 160.76,-71.55 160.76,-76.45"/>
</g>
<!-- course__GEOG103 -->
<g id="node3" class="node">
<title>course__GEOG103</title>
<g id="a_node3"><a xlink:href="../../../courses/GEOG103.html" xlink:title="GEOG103: Our Natural Earth" target="_top">
<path fill="#e7e2d8" stroke="#7e8d96" d="M72,-36C72,-36 35,-36 35,-36 29,-36 23,-30 23,-24 23,-24 23,-12 23,-12 23,-6 29,0 35,0 35,0 72,0 72,0 78,0 84,-6 84,-12 84,-12 84,-24 84,-24 84,-30 78,-36 72,-36"/>
<text text-anchor="middle" x="53.5" y="-15.8" font-family="Avenir Next" font-size="9.00" fill="#41515b">GEOG103</text>
</a>
</g>
</g>
<!-- course__GEOG103&#45;&gt;choice_GEOG272_0 -->
<g id="edge1" class="edge">
<title>course__GEOG103&#45;&gt;choice_GEOG272_0</title>
<path fill="none" stroke="#7a8389" d="M84.08,-29.88C106.65,-38.93 137.72,-51.41 161.08,-60.78"/>
<polygon fill="#7a8389" stroke="#7a8389" points="160.34,-63.13 167.75,-63.46 162.17,-58.58 160.34,-63.13"/>
</g>
<!-- course__GEOG272 -->
<g id="node4" class="node">
<title>course__GEOG272</title>
<g id="a_node4"><a xlink:href="../../../courses/GEOG272.html" xlink:title="GEOG272: Climatology and Hydrology" target="_top">
<path fill="#e7e2d8" stroke="#7e8d96" d="M332,-92C332,-92 295,-92 295,-92 289,-92 283,-86 283,-80 283,-80 283,-68 283,-68 283,-62 289,-56 295,-56 295,-56 332,-56 332,-56 338,-56 344,-62 344,-68 344,-68 344,-80 344,-80 344,-86 338,-92 332,-92"/>
<text text-anchor="middle" x="313.5" y="-71.8" font-family="Avenir Next" font-size="9.00" fill="#41515b">GEOG272</text>
</a>
</g>
</g>
<!-- course__GEOG373 -->
<g id="node5" class="node">
<title>course__GEOG373</title>
<g id="a_node5"><a xlink:href="../../../courses/GEOG373.html" xlink:title="GEOG373: Applied Climatology" target="_top">
<path fill="#e7e2d8" stroke="#1b2730" stroke-width="1.6" d="M456,-92C456,-92 417,-92 417,-92 411,-92 405,-86 405,-80 405,-80 405,-68 405,-68 405,-62 411,-56 417,-56 417,-56 456,-56 456,-56 462,-56 468,-62 468,-68 468,-68 468,-80 468,-80 468,-86 462,-92 456,-92"/>
<text text-anchor="middle" x="436.5" y="-71.5" font-family="Avenir Next" font-size="10.00" fill="#17232b">GEOG373</text>
</a>
</g>
</g>
<!-- course__GEOG272&#45;&gt;course__GEOG373 -->
<g id="edge5" class="edge">
<title>course__GEOG272&#45;&gt;course__GEOG373</title>
<path fill="none" stroke="#5d6972" stroke-width="1.2" d="M344.1,-74C360.26,-74 380.45,-74 397.73,-74"/>
<polygon fill="#5d6972" stroke="#5d6972" stroke-width="1.2" points="397.94,-76.45 404.94,-74 397.94,-71.55 397.94,-76.45"/>
</g>
<!-- course__GEOG484 -->
<g id="node6" class="node">
<title>course__GEOG484</title>
<g id="a_node6"><a xlink:href="../../../courses/GEOG484.html" xlink:title="GEOG484: Advanced Topics in Weather and Climate" target="_top">
<path fill="#e7e2d8" stroke="#1f4f66" stroke-width="2" d="M732,-92C732,-92 541,-92 541,-92 535,-92 529,-86 529,-80 529,-80 529,-68 529,-68 529,-62 535,-56 541,-56 541,-56 732,-56 732,-56 738,-56 744,-62 744,-68 744,-68 744,-80 744,-80 744,-86 738,-92 732,-92"/>
<text text-anchor="middle" x="636.5" y="-77" font-family="Avenir Next" font-size="10.00" fill="#17232b">GEOG484</text>
<text text-anchor="middle" x="636.5" y="-66" font-family="Avenir Next" font-size="10.00" fill="#17232b">Advanced Topics in Weather and Climate</text>
</a>
</g>
</g>
<!-- course__GEOG373&#45;&gt;course__GEOG484 -->
<g id="edge6" class="edge">
<title>course__GEOG373&#45;&gt;course__GEOG484</title>
<path fill="none" stroke="#5d6972" stroke-width="1.2" d="M468,-74C482.95,-74 501.97,-74 521.81,-74"/>
<polygon fill="#5d6972" stroke="#5d6972" stroke-width="1.2" points="521.85,-76.45 528.85,-74 521.85,-71.55 521.85,-76.45"/>
</g>
<!-- choice_GEOG272_0&#45;&gt;course__GEOG272 -->
<g id="edge4" class="edge">
<title>choice_GEOG272_0&#45;&gt;course__GEOG272</title>
<path fill="none" stroke="#5d6972" stroke-width="1.2" d="M222.14,-74C237.88,-74 258.15,-74 275.51,-74"/>
<polygon fill="#5d6972" stroke="#5d6972" stroke-width="1.2" points="275.75,-76.45 282.75,-74 275.75,-71.55 275.75,-76.45"/>
</g>
</g>
</svg>
