<?xml version="1.0" encoding="UTF-8" standalone="no"?>
<!DOCTYPE svg PUBLIC "-//W3C//DTD SVG 1.1//EN"
 "http://www.w3.org/Graphics/SVG/1.1/DTD/svg11.dtd">
<!-- Generated by graphviz version 2.43.0 (0)
 -->
<!-- Title: GEOG370 Pages: 1 -->
<svg width="835pt" height="196pt"
 viewBox="0.00 0.00 835.20 195.70" xmlns="http://www.w3.org/2000/svg" xmlns:xlink="http://www.w3.org/1999/xlink">
<g id="graph0" class="graph" transform="scale(1 1) rotate(0) translate(21.6 174.1)">
<title>GEOG370</title>
<!-- course__EOS340 -->
<g id="node1" class="node">
<title>course__EOS340</title>
<g id="a_node1"><a xlink:href="../../../courses/EOS340.html" xlink:title="Equivalent or cross&#45;listed: EOS340: Atmospheric Physics | PHYS340: Atmospheric Physics" target="_top">
<path fill="#d7e9ef" stroke="#1b2730" stroke-width="1.6" d="M356,-152.5C356,-152.5 273,-152.5 273,-152.5 267,-152.5 261,-146.5 261,-140.5 261,-140.5 261,-128.5 261,-128.5 261,-122.5 267,-116.5 273,-116.5 273,-116.5 356,-116.5 356,-116.5 362,-116.5 368,-122.5 368,-128.5 368,-128.5 368,-140.5 368,-140.5 368,-146.5 362,-152.5 356,-152.5"/>
<text text-anchor="middle" x="314.5" y="-132" font-family="Avenir Next" font-size="10.00" fill="#17232b">EOS340 / PHYS340</text>
</a>
</g>
</g>
<!-- choice_GEOG370_0_0 -->
<g id="node6" class="node">
<title>choice_GEOG370_0_0</title>
<path fill="#fff7ee" stroke="#b7793f" stroke-width="1.1" d="M471,-96.5C471,-96.5 441,-96.5 441,-96.5 435,-96.5 429,-90.5 429,-84.5 429,-84.5 429,-72.5 429,-72.5 429,-66.5 435,-60.5 441,-60.5 441,-60.5 471,-60.5 471,-60.5 477,-60.5 483,-66.5 483,-72.5 483,-72.5 483,-84.5 483,-84.5 483,-90.5 477,-96.5 471,-96.5"/>
<text text-anchor="middle" x="456" y="-76.3" font-family="Avenir Next" font-size="9.00">1 of</text>
</g>
<!-- course__EOS340&#45;&gt;choice_GEOG370_0_0 -->
<g id="edge3" class="edge">
<title>course__EOS340&#45;&gt;choice_GEOG370_0_0</title>
<path fill="none" stroke="#7a8389" d="M360.41,-116.47C380.55,-108.39 403.88,-99.02 422.33,-91.62"/>
<polygon fill="#7a8389" stroke="#7a8389" points="423.31,-93.86 428.89,-88.98 421.48,-89.32 423.31,-93.86"/>
</g>
<!-- course__GEOG272 -->
<g id="node2" class="node">
<title>course__GEOG272</title>
<g id="a_node2"><a xlink:href="../../../courses/GEOG272.html" xlink:title="GEOG272: Climatology and Hydrology" target="_top">
<path fill="#e7e2d8" stroke="#1b2730" stroke-width="1.6" d="M334,-96.5C334,-96.5 295,-96.5 295,-96.5 289,-96.5 283,-90.5 283,-84.5 283,-84.5 283,-72.5 283,-72.5 283,-66.5 289,-60.5 295,-60.5 295,-60.5 334,-60.5 334,-60.5 340,-60.5 346,-66.5 346,-72.5 346,-72.5 346,-84.5 346,-84.5 346,-90.5 340,-96.5 334,-96.5"/>
<text text-anchor="middle" x="314.5" y="-76" font-family="Avenir Next" font-size="10.00" fill="#17232b">GEOG272</text>
</a>
</g>
</g>
<!-- course__GEOG272&#45;&gt;choice_GEOG370_0_0 -->
<g id="edge2" class="edge">
<title>course__GEOG272&#45;&gt;choice_GEOG370_0_0</title>
<path fill="none" stroke="#7a8389" d="M346.11,-78.5C368.4,-78.5 398.58,-78.5 421.51,-78.5"/>
<polygon fill="#7a8389" stroke="#7a8389" points="421.68,-80.95 428.68,-78.5 421.68,-76.05 421.68,-80.95"/>
</g>
<!-- course__GEOG370 -->
<g id="node3" class="node">
<title>course__GEOG370</title>
<g id="a_node3"><a xlink:href="../../../courses/GEOG370.html" xlink:title="GEOG370: Methods in Hydrology" target="_top">
<path fill="#e7e2d8" stroke="#1f4f66" stroke-width="2" d="M656,-71.5C656,-71.5 556,-71.5 556,-71.5 550,-71.5 544,-65.5 544,-59.5 544,-59.5 544,-47.5 544,-47.5 544,-41.5 550,-35.5 556,-35.5 556,-35.5 656,-35.5 656,-35.5 662,-35.5 668,-41.5 668,-47.5 668,-47.5 668,-59.5 668,-59.5 668,-65.5 662,-71.5 656,-71.5"/>
<text text-anchor="middle" x="606" y="-56.5" font-family="Avenir Next" font-size="10.00" fill="#17232b">GEOG370</text>
<text text-anchor="middle" x="606" y="-45.5" font-family="Avenir Next" font-size="10.00" fill="#17232b">Methods in Hydrology</text>
</a>
</g>
</g>
<!-- course__GEOG477 -->
<g id="node4" class="node">
<title>course__GEOG477</title>
<g id="a_node4"><a xlink:href="../../../courses/GEOG477.html" xlink:title="GEOG477: Field Studies in Physical Geography" target="_top">
<path fill="#e7e2d8" stroke="#1b2730" stroke-width="1.6" d="M780,-71.5C780,-71.5 741,-71.5 741,-71.5 735,-71.5 729,-65.5 729,-59.5 729,-59.5 729,-47.5 729,-47.5 729,-41.5 735,-35.5 741,-35.5 741,-35.5 780,-35.5 780,-35.5 786,-35.5 792,-41.5 792,-47.5 792,-47.5 792,-59.5 792,-59.5 792,-65.5 786,-71.5 780,-71.5"/>
<text text-anchor="middle" x="760.5" y="-51" font-family="Avenir Next" font-size="10.00" fill="#17232b">GEOG477</text>
</a>
</g>
</g>
<!-- course__GEOG370&#45;&gt;course__GEOG477 -->
<g id="edge5" class="edge">
<title>course__GEOG370&#45;&gt;course__GEOG477</title>
<path fill="none" stroke="#5d6972" stroke-width="1.2" d="M668.15,-53.5C686.26,-53.5 705.55,-53.5 721.72,-53.5"/>
<polygon fill="#5d6972" stroke="#5d6972" stroke-width="1.2" points="721.91,-55.95 728.91,-53.5 721.91,-51.05 721.91,-55.95"/>
</g>
<!-- GEOG370_notes -->
<g id="node5" class="node">
<title>GEOG370_notes</title>
<polygon fill="#fff7ee" stroke="#b7793f" stroke-width="1.1" points="194,-59 0,-59 0,0 200,0 200,-53 194,-59"/>
<polyline fill="none" stroke="#b7793f" stroke-width="1.1" points="194,-59 194,-53 "/>
<polyline fill="none" stroke="#b7793f" stroke-width="1.1" points="200,-53 194,-53 "/>
<text text-anchor="start" x="13" y="-39.4" font-family="Avenir Next" font-size="12.00">Published notes</text>
<text text-anchor="start" x="13" y="-26.4" font-family="Avenir Next" font-size="12.00">1.5 units 100 level Math</text>
<text text-anchor="start" x="13" y="-13.4" font-family="Avenir Next" font-size="12.00">minimum third&#45;year standing</text>
</g>
<!-- GEOG370_notes&#45;&gt;course__GEOG370 -->
<!-- choice_GEOG370_0_0&#45;&gt;course__GEOG370 -->
<g id="edge4" class="edge">
<title>choice_GEOG370_0_0&#45;&gt;course__GEOG370</title>
<path fill="none" stroke="#5d6972" stroke-width="1.2" d="M483.12,-74.09C498.12,-71.55 517.73,-68.24 536.81,-65.02"/>
<polygon fill="#5d6972" stroke="#5d6972" stroke-width="1.2" points="537.32,-67.42 543.81,-63.84 536.5,-62.59 537.32,-67.42"/>
</g>
</g>
</svg>
