<?xml version="1.0" encoding="UTF-8" standalone="no"?>
<!DOCTYPE svg PUBLIC "-//W3C//DTD SVG 1.1//EN"
 "http://www.w3.org/Graphics/SVG/1.1/DTD/svg11.dtd">
<!-- Generated by graphviz version 2.43.0 (0)
 -->
<!-- Title: GEOG499B Pages: 1 -->
<svg width="175pt" height="79pt"
 viewBox="0.00 0.00 175.20 79.20" xmlns="http://www.w3.org/2000/svg" xmlns:xlink="http://www.w3.org/1999/xlink">
<g id="graph0" class="graph" transform="scale(1 1) rotate(0) translate(21.6 57.6)">
<title>GEOG499B</title>
<!-- course__GEOG499A -->
<g id="node1" class="node">
<title>course__GEOG499A</title>
<g id="a_node1"><a xlink:href="../../../courses/GEOG499B.html" xlink:title="Equivalent or cross&#45;listed: GEOG499A: Honours Thesis | GEOG499B: Honours Thesis" target="_top">
<path fill="#e7e2d8" stroke="#1f4f66" stroke-width="2" d="M120,-36C120,-36 12,-36 12,-36 6,-36 0,-30 0,-24 0,-24 0,-12 0,-12 0,-6 6,0 12,0 12,0 120,0 120,0 126,0 132,-6 132,-12 132,-12 132,-24 132,-24 132,-30 126,-36 120,-36"/>
<text text-anchor="middle" x="66" y="-21" font-family="Avenir Next" font-size="10.00" fill="#17232b">GEOG499A / GEOG499B</text>
<text text-anchor="middle" x="66" y="-10" font-family="Avenir Next" font-size="10.00" fill="#17232b">Honours Thesis</text>
</a>
</g>
</g>
</g>
</svg>
