<?xml version="1.0" encoding="UTF-8" standalone="no"?>
<!DOCTYPE svg PUBLIC "-//W3C//DTD SVG 1.1//EN"
 "http://www.w3.org/Graphics/SVG/1.1/DTD/svg11.dtd">
<!-- Generated by graphviz version 2.43.0 (0)
 -->
<!-- Title: GEOG376 Pages: 1 -->
<svg width="532pt" height="135pt"
 viewBox="0.00 0.00 532.20 135.20" xmlns="http://www.w3.org/2000/svg" xmlns:xlink="http://www.w3.org/1999/xlink">
<g id="graph0" class="graph" transform="scale(1 1) rotate(0) translate(21.6 113.6)">
<title>GEOG376</title>
<!-- course__EOS120 -->
<g id="node1" class="node">
<title>course__EOS120</title>
<g id="a_node1"><a xlink:href="../../../courses/EOS120.html" xlink:title="EOS120: The Dynamic Earth" target="_top">
<path fill="#d7e9ef" stroke="#1b2730" stroke-width="1.6" d="M42,-64C42,-64 12,-64 12,-64 6,-64 0,-58 0,-52 0,-52 0,-40 0,-40 0,-34 6,-28 12,-28 12,-28 42,-28 42,-28 48,-28 54,-34 54,-40 54,-40 54,-52 54,-52 54,-58 48,-64 42,-64"/>
<text text-anchor="middle" x="27" y="-43.5" font-family="Avenir Next" font-size="10.00" fill="#17232b">EOS120</text>
</a>
</g>
</g>
<!-- course__EOS201 -->
<g id="node2" class="node">
<title>course__EOS201</title>
<g id="a_node2"><a xlink:href="../../../courses/EOS201.html" xlink:title="EOS201: Sedimentary Geology" target="_top">
<path fill="#d7e9ef" stroke="#1b2730" stroke-width="1.6" d="M157,-64C157,-64 127,-64 127,-64 121,-64 115,-58 115,-52 115,-52 115,-40 115,-40 115,-34 121,-28 127,-28 127,-28 157,-28 157,-28 163,-28 169,-34 169,-40 169,-40 169,-52 169,-52 169,-58 163,-64 157,-64"/>
<text text-anchor="middle" x="142" y="-43.5" font-family="Avenir Next" font-size="10.00" fill="#17232b">EOS201</text>
</a>
</g>
</g>
<!-- course__EOS120&#45;&gt;course__EOS201 -->
<g id="edge1" class="edge">
<title>course__EOS120&#45;&gt;course__EOS201</title>
<path fill="none" stroke="#5d6972" stroke-width="1.2" d="M54.21,-46C70.18,-46 90.74,-46 107.84,-46"/>
<polygon fill="#5d6972" stroke="#5d6972" stroke-width="1.2" points="107.93,-48.45 114.93,-46 107.93,-43.55 107.93,-48.45"/>
</g>
<!-- course__GEOG376 -->
<g id="node3" class="node">
<title>course__GEOG376</title>
<g id="a_node3"><a xlink:href="../../../courses/GEOG376.html" xlink:title="GEOG376: Process Geomorphology" target="_top">
<path fill="#e7e2d8" stroke="#1f4f66" stroke-width="2" d="M353,-64C353,-64 242,-64 242,-64 236,-64 230,-58 230,-52 230,-52 230,-40 230,-40 230,-34 236,-28 242,-28 242,-28 353,-28 353,-28 359,-28 365,-34 365,-40 365,-40 365,-52 365,-52 365,-58 359,-64 353,-64"/>
<text text-anchor="middle" x="297.5" y="-49" font-family="Avenir Next" font-size="10.00" fill="#17232b">GEOG376</text>
<text text-anchor="middle" x="297.5" y="-38" font-family="Avenir Next" font-size="10.00" fill="#17232b">Process Geomorphology</text>
</a>
</g>
</g>
<!-- course__EOS201&#45;&gt;course__GEOG376 -->
<g id="edge2" class="edge">
<title>course__EOS201&#45;&gt;course__GEOG376</title>
<path fill="none" stroke="#5d6972" stroke-width="1.2" d="M169.04,-46C183.97,-46 203.54,-46 222.84,-46"/>
<polygon fill="#5d6972" stroke="#5d6972" stroke-width="1.2" points="222.93,-48.45 229.93,-46 222.93,-43.55 222.93,-48.45"/>
</g>
<!-- course__GEOG476 -->
<g id="node4" class="node">
<title>course__GEOG476</title>
<g id="a_node4"><a xlink:href="../../../courses/GEOG476.html" xlink:title="GEOG476: Advanced Topics in Geomorphology" target="_top">
<path fill="#e7e2d8" stroke="#1b2730" stroke-width="1.6" d="M477,-92C477,-92 438,-92 438,-92 432,-92 426,-86 426,-80 426,-80 426,-68 426,-68 426,-62 432,-56 438,-56 438,-56 477,-56 477,-56 483,-56 489,-62 489,-68 489,-68 489,-80 489,-80 489,-86 483,-92 477,-92"/>
<text text-anchor="middle" x="457.5" y="-71.5" font-family="Avenir Next" font-size="10.00" fill="#17232b">GEOG476</text>
</a>
</g>
</g>
<!-- course__GEOG376&#45;&gt;course__GEOG476 -->
<g id="edge3" class="edge">
<title>course__GEOG376&#45;&gt;course__GEOG476</title>
<path fill="none" stroke="#5d6972" stroke-width="1.2" d="M365.05,-57.79C383.33,-61.03 402.53,-64.44 418.59,-67.28"/>
<polygon fill="#5d6972" stroke="#5d6972" stroke-width="1.2" points="418.41,-69.74 425.73,-68.55 419.26,-64.91 418.41,-69.74"/>
</g>
<!-- course__GEOG477 -->
<g id="node5" class="node">
<title>course__GEOG477</title>
<g id="a_node5"><a xlink:href="../../../courses/GEOG477.html" xlink:title="GEOG477: Field Studies in Physical Geography" target="_top">
<path fill="#e7e2d8" stroke="#1b2730" stroke-width="1.6" d="M477,-36C477,-36 438,-36 438,-36 432,-36 426,-30 426,-24 426,-24 426,-12 426,-12 426,-6 432,0 438,0 438,0 477,0 477,0 483,0 489,-6 489,-12 489,-12 489,-24 489,-24 489,-30 483,-36 477,-36"/>
<text text-anchor="middle" x="457.5" y="-15.5" font-family="Avenir Next" font-size="10.00" fill="#17232b">GEOG477</text>
</a>
</g>
</g>
<!-- course__GEOG376&#45;&gt;course__GEOG477 -->
<g id="edge4" class="edge">
<title>course__GEOG376&#45;&gt;course__GEOG477</title>
<path fill="none" stroke="#5d6972" stroke-width="1.2" d="M365.05,-34.21C383.33,-30.97 402.53,-27.56 418.59,-24.72"/>
<polygon fill="#5d6972" stroke="#5d6972" stroke-width="1.2" points="419.26,-27.09 425.73,-23.45 418.41,-22.26 419.26,-27.09"/>
</g>
</g>
</svg>
