<?xml version="1.0" encoding="UTF-8" standalone="no"?>
<!DOCTYPE svg PUBLIC "-//W3C//DTD SVG 1.1//EN"
 "http://www.w3.org/Graphics/SVG/1.1/DTD/svg11.dtd">
<!-- Generated by graphviz version 2.43.0 (0)
 -->
<!-- Title: GEOG222 Pages: 1 -->
<svg width="511pt" height="303pt"
 viewBox="0.00 0.00 511.20 303.20" xmlns="http://www.w3.org/2000/svg" xmlns:xlink="http://www.w3.org/1999/xlink">
<g id="graph0" class="graph" transform="scale(1 1) rotate(0) translate(21.6 281.6)">
<title>GEOG222</title>
<!-- course__GEOG222 -->
<g id="node1" class="node">
<title>course__GEOG222</title>
<g id="a_node1"><a xlink:href="../../../courses/GEOG222.html" xlink:title="GEOG222: Introduction to GIS" target="_top">
<path fill="#e7e2d8" stroke="#1f4f66" stroke-width="2" d="M95,-148C95,-148 12,-148 12,-148 6,-148 0,-142 0,-136 0,-136 0,-124 0,-124 0,-118 6,-112 12,-112 12,-112 95,-112 95,-112 101,-112 107,-118 107,-124 107,-124 107,-136 107,-136 107,-142 101,-148 95,-148"/>
<text text-anchor="middle" x="53.5" y="-133" font-family="Avenir Next" font-size="10.00" fill="#17232b">GEOG222</text>
<text text-anchor="middle" x="53.5" y="-122" font-family="Avenir Next" font-size="10.00" fill="#17232b">Introduction to GIS</text>
</a>
</g>
</g>
<!-- course__GEOG319 -->
<g id="node2" class="node">
<title>course__GEOG319</title>
<g id="a_node2"><a xlink:href="../../../courses/GEOG319.html" xlink:title="GEOG319: Remote Sensing of the Environment using Passive Sensors" target="_top">
<path fill="#e7e2d8" stroke="#1b2730" stroke-width="1.6" d="M219,-204C219,-204 180,-204 180,-204 174,-204 168,-198 168,-192 168,-192 168,-180 168,-180 168,-174 174,-168 180,-168 180,-168 219,-168 219,-168 225,-168 231,-174 231,-180 231,-180 231,-192 231,-192 231,-198 225,-204 219,-204"/>
<text text-anchor="middle" x="199.5" y="-183.5" font-family="Avenir Next" font-size="10.00" fill="#17232b">GEOG319</text>
</a>
</g>
</g>
<!-- course__GEOG222&#45;&gt;course__GEOG319 -->
<g id="edge1" class="edge">
<title>course__GEOG222&#45;&gt;course__GEOG319</title>
<path fill="none" stroke="#5d6972" stroke-width="1.2" d="M100.86,-148.03C120.33,-155.6 142.69,-164.3 161.09,-171.45"/>
<polygon fill="#5d6972" stroke="#5d6972" stroke-width="1.2" points="160.27,-173.76 167.68,-174.02 162.05,-169.19 160.27,-173.76"/>
</g>
<!-- course__GEOG322 -->
<g id="node3" class="node">
<title>course__GEOG322</title>
<g id="a_node3"><a xlink:href="../../../courses/GEOG322.html" xlink:title="GEOG322: Remote Sensing of the Environment using Active Sensors" target="_top">
<path fill="#e7e2d8" stroke="#1b2730" stroke-width="1.6" d="M219,-260C219,-260 180,-260 180,-260 174,-260 168,-254 168,-248 168,-248 168,-236 168,-236 168,-230 174,-224 180,-224 180,-224 219,-224 219,-224 225,-224 231,-230 231,-236 231,-236 231,-248 231,-248 231,-254 225,-260 219,-260"/>
<text text-anchor="middle" x="199.5" y="-239.5" font-family="Avenir Next" font-size="10.00" fill="#17232b">GEOG322</text>
</a>
</g>
</g>
<!-- course__GEOG222&#45;&gt;course__GEOG322 -->
<g id="edge2" class="edge">
<title>course__GEOG222&#45;&gt;course__GEOG322</title>
<path fill="none" stroke="#5d6972" stroke-width="1.2" d="M77.96,-148.24C102.96,-167.69 142.57,-198.5 169.51,-219.45"/>
<polygon fill="#5d6972" stroke="#5d6972" stroke-width="1.2" points="168.02,-221.4 175.05,-223.76 171.03,-217.53 168.02,-221.4"/>
</g>
<!-- course__GEOG323 -->
<g id="node4" class="node">
<title>course__GEOG323</title>
<g id="a_node4"><a xlink:href="../../../courses/GEOG323.html" xlink:title="GEOG323: Digital Mapping" target="_top">
<path fill="#e7e2d8" stroke="#1b2730" stroke-width="1.6" d="M219,-36C219,-36 180,-36 180,-36 174,-36 168,-30 168,-24 168,-24 168,-12 168,-12 168,-6 174,0 180,0 180,0 219,0 219,0 225,0 231,-6 231,-12 231,-12 231,-24 231,-24 231,-30 225,-36 219,-36"/>
<text text-anchor="middle" x="199.5" y="-15.5" font-family="Avenir Next" font-size="10.00" fill="#17232b">GEOG323</text>
</a>
</g>
</g>
<!-- course__GEOG222&#45;&gt;course__GEOG323 -->
<g id="edge3" class="edge">
<title>course__GEOG222&#45;&gt;course__GEOG323</title>
<path fill="none" stroke="#5d6972" stroke-width="1.2" d="M77.96,-111.76C102.96,-92.31 142.57,-61.5 169.51,-40.55"/>
<polygon fill="#5d6972" stroke="#5d6972" stroke-width="1.2" points="171.03,-42.47 175.05,-36.24 168.02,-38.6 171.03,-42.47"/>
</g>
<!-- course__GEOG328 -->
<g id="node5" class="node">
<title>course__GEOG328</title>
<g id="a_node5"><a xlink:href="../../../courses/GEOG328.html" xlink:title="GEOG328: GIS Analysis" target="_top">
<path fill="#e7e2d8" stroke="#1b2730" stroke-width="1.6" d="M219,-92C219,-92 180,-92 180,-92 174,-92 168,-86 168,-80 168,-80 168,-68 168,-68 168,-62 174,-56 180,-56 180,-56 219,-56 219,-56 225,-56 231,-62 231,-68 231,-68 231,-80 231,-80 231,-86 225,-92 219,-92"/>
<text text-anchor="middle" x="199.5" y="-71.5" font-family="Avenir Next" font-size="10.00" fill="#17232b">GEOG328</text>
</a>
</g>
</g>
<!-- course__GEOG222&#45;&gt;course__GEOG328 -->
<g id="edge4" class="edge">
<title>course__GEOG222&#45;&gt;course__GEOG328</title>
<path fill="none" stroke="#5d6972" stroke-width="1.2" d="M100.86,-111.97C120.33,-104.4 142.69,-95.7 161.09,-88.55"/>
<polygon fill="#5d6972" stroke="#5d6972" stroke-width="1.2" points="162.05,-90.81 167.68,-85.98 160.27,-86.24 162.05,-90.81"/>
</g>
<!-- course__GEOG329 -->
<g id="node6" class="node">
<title>course__GEOG329</title>
<g id="a_node6"><a xlink:href="../../../courses/GEOG329.html" xlink:title="GEOG329: GIS Applications and Tools" target="_top">
<path fill="#e7e2d8" stroke="#1b2730" stroke-width="1.6" d="M219,-148C219,-148 180,-148 180,-148 174,-148 168,-142 168,-136 168,-136 168,-124 168,-124 168,-118 174,-112 180,-112 180,-112 219,-112 219,-112 225,-112 231,-118 231,-124 231,-124 231,-136 231,-136 231,-142 225,-148 219,-148"/>
<text text-anchor="middle" x="199.5" y="-127.5" font-family="Avenir Next" font-size="10.00" fill="#17232b">GEOG329</text>
</a>
</g>
</g>
<!-- course__GEOG222&#45;&gt;course__GEOG329 -->
<g id="edge5" class="edge">
<title>course__GEOG222&#45;&gt;course__GEOG329</title>
<path fill="none" stroke="#5d6972" stroke-width="1.2" d="M107.3,-130C124.98,-130 144.33,-130 160.64,-130"/>
<polygon fill="#5d6972" stroke="#5d6972" stroke-width="1.2" points="160.9,-132.45 167.9,-130 160.9,-127.55 160.9,-132.45"/>
</g>
<!-- course__GEOG420 -->
<g id="node8" class="node">
<title>course__GEOG420</title>
<g id="a_node8"><a xlink:href="../../../courses/GEOG420.html" xlink:title="GEOG420: Field Studies in Coastal Geomatics" target="_top">
<path fill="#e7e2d8" stroke="#7e8d96" d="M456,-178C456,-178 419,-178 419,-178 413,-178 407,-172 407,-166 407,-166 407,-154 407,-154 407,-148 413,-142 419,-142 419,-142 456,-142 456,-142 462,-142 468,-148 468,-154 468,-154 468,-166 468,-166 468,-172 462,-178 456,-178"/>
<text text-anchor="middle" x="437.5" y="-157.8" font-family="Avenir Next" font-size="9.00" fill="#41515b">GEOG420</text>
</a>
</g>
</g>
<!-- course__GEOG319&#45;&gt;course__GEOG420 -->
<g id="edge11" class="edge">
<title>course__GEOG319&#45;&gt;course__GEOG420</title>
<path fill="none" stroke="#5d6972" stroke-width="1.2" d="M231.35,-182.6C274.64,-177.83 353.28,-169.17 399.61,-164.06"/>
<polygon fill="#5d6972" stroke="#5d6972" stroke-width="1.2" points="400.07,-166.48 406.76,-163.28 399.53,-161.61 400.07,-166.48"/>
</g>
<!-- choice_GEOG422_0 -->
<g id="node13" class="node">
<title>choice_GEOG422_0</title>
<path fill="#fff7ee" stroke="#b7793f" stroke-width="1.1" d="M334,-256C334,-256 304,-256 304,-256 298,-256 292,-250 292,-244 292,-244 292,-232 292,-232 292,-226 298,-220 304,-220 304,-220 334,-220 334,-220 340,-220 346,-226 346,-232 346,-232 346,-244 346,-244 346,-250 340,-256 334,-256"/>
<text text-anchor="middle" x="319" y="-235.8" font-family="Avenir Next" font-size="9.00">1 of</text>
</g>
<!-- course__GEOG319&#45;&gt;choice_GEOG422_0 -->
<g id="edge13" class="edge">
<title>course__GEOG319&#45;&gt;choice_GEOG422_0</title>
<path fill="none" stroke="#7a8389" d="M231.07,-199.53C247.75,-206.91 268.42,-216.06 285.41,-223.58"/>
<polygon fill="#7a8389" stroke="#7a8389" points="284.57,-225.89 291.97,-226.48 286.56,-221.41 284.57,-225.89"/>
</g>
<!-- course__GEOG322&#45;&gt;choice_GEOG422_0 -->
<g id="edge14" class="edge">
<title>course__GEOG322&#45;&gt;choice_GEOG422_0</title>
<path fill="none" stroke="#7a8389" d="M231.07,-240.96C247.61,-240.4 268.05,-239.7 284.96,-239.12"/>
<polygon fill="#7a8389" stroke="#7a8389" points="285.05,-241.57 291.97,-238.89 284.89,-236.68 285.05,-241.57"/>
</g>
<!-- choice_GEOG418_0 -->
<g id="node11" class="node">
<title>choice_GEOG418_0</title>
<path fill="#fff7ee" stroke="#b7793f" stroke-width="1.1" d="M334,-99C334,-99 304,-99 304,-99 298,-99 292,-93 292,-87 292,-87 292,-75 292,-75 292,-69 298,-63 304,-63 304,-63 334,-63 334,-63 340,-63 346,-69 346,-75 346,-75 346,-87 346,-87 346,-93 340,-99 334,-99"/>
<text text-anchor="middle" x="319" y="-78.8" font-family="Avenir Next" font-size="9.00">1 of</text>
</g>
<!-- course__GEOG328&#45;&gt;choice_GEOG418_0 -->
<g id="edge6" class="edge">
<title>course__GEOG328&#45;&gt;choice_GEOG418_0</title>
<path fill="none" stroke="#7a8389" d="M231.07,-75.82C247.61,-76.81 268.05,-78.02 284.96,-79.03"/>
<polygon fill="#7a8389" stroke="#7a8389" points="284.83,-81.48 291.97,-79.45 285.13,-76.59 284.83,-81.48"/>
</g>
<!-- choice_GEOG420_0_1 -->
<g id="node12" class="node">
<title>choice_GEOG420_0_1</title>
<path fill="#fff7ee" stroke="#b7793f" stroke-width="1.1" d="M334,-155C334,-155 304,-155 304,-155 298,-155 292,-149 292,-143 292,-143 292,-131 292,-131 292,-125 298,-119 304,-119 304,-119 334,-119 334,-119 340,-119 346,-125 346,-131 346,-131 346,-143 346,-143 346,-149 340,-155 334,-155"/>
<text text-anchor="middle" x="319" y="-134.8" font-family="Avenir Next" font-size="9.00">1 of</text>
</g>
<!-- course__GEOG328&#45;&gt;choice_GEOG420_0_1 -->
<g id="edge9" class="edge">
<title>course__GEOG328&#45;&gt;choice_GEOG420_0_1</title>
<path fill="none" stroke="#7a8389" d="M231.07,-90.39C247.75,-99.34 268.42,-110.42 285.41,-119.53"/>
<polygon fill="#7a8389" stroke="#7a8389" points="284.64,-121.89 291.97,-123.04 286.96,-117.58 284.64,-121.89"/>
</g>
<!-- choice_GEOG428_0 -->
<g id="node14" class="node">
<title>choice_GEOG428_0</title>
<path fill="#fff7ee" stroke="#b7793f" stroke-width="1.1" d="M334,-43C334,-43 304,-43 304,-43 298,-43 292,-37 292,-31 292,-31 292,-19 292,-19 292,-13 298,-7 304,-7 304,-7 334,-7 334,-7 340,-7 346,-13 346,-19 346,-19 346,-31 346,-31 346,-37 340,-43 334,-43"/>
<text text-anchor="middle" x="319" y="-22.8" font-family="Avenir Next" font-size="9.00">1 of</text>
</g>
<!-- course__GEOG328&#45;&gt;choice_GEOG428_0 -->
<g id="edge16" class="edge">
<title>course__GEOG328&#45;&gt;choice_GEOG428_0</title>
<path fill="none" stroke="#7a8389" d="M231.07,-61.25C247.75,-54.29 268.42,-45.68 285.41,-38.59"/>
<polygon fill="#7a8389" stroke="#7a8389" points="286.45,-40.81 291.97,-35.86 284.56,-36.29 286.45,-40.81"/>
</g>
<!-- course__GEOG329&#45;&gt;choice_GEOG418_0 -->
<g id="edge7" class="edge">
<title>course__GEOG329&#45;&gt;choice_GEOG418_0</title>
<path fill="none" stroke="#7a8389" d="M231.07,-117.25C247.75,-110.29 268.42,-101.68 285.41,-94.59"/>
<polygon fill="#7a8389" stroke="#7a8389" points="286.45,-96.81 291.97,-91.86 284.56,-92.29 286.45,-96.81"/>
</g>
<!-- course__GEOG329&#45;&gt;choice_GEOG420_0_1 -->
<g id="edge10" class="edge">
<title>course__GEOG329&#45;&gt;choice_GEOG420_0_1</title>
<path fill="none" stroke="#7a8389" d="M231.07,-131.82C247.61,-132.81 268.05,-134.02 284.96,-135.03"/>
<polygon fill="#7a8389" stroke="#7a8389" points="284.83,-137.48 291.97,-135.45 285.13,-132.59 284.83,-137.48"/>
</g>
<!-- course__GEOG329&#45;&gt;choice_GEOG428_0 -->
<g id="edge17" class="edge">
<title>course__GEOG329&#45;&gt;choice_GEOG428_0</title>
<path fill="none" stroke="#7a8389" d="M220.7,-111.95C240.54,-94.22 270.88,-67.11 292.4,-47.87"/>
<polygon fill="#7a8389" stroke="#7a8389" points="294.08,-49.66 297.67,-43.17 290.82,-46 294.08,-49.66"/>
</g>
<!-- course__GEOG418 -->
<g id="node7" class="node">
<title>course__GEOG418</title>
<g id="a_node7"><a xlink:href="../../../courses/GEOG418.html" xlink:title="GEOG418: Advanced Spatial Analysis and Geo&#45;statistics" target="_top">
<path fill="#e7e2d8" stroke="#7e8d96" d="M456,-99C456,-99 419,-99 419,-99 413,-99 407,-93 407,-87 407,-87 407,-75 407,-75 407,-69 413,-63 419,-63 419,-63 456,-63 456,-63 462,-63 468,-69 468,-75 468,-75 468,-87 468,-87 468,-93 462,-99 456,-99"/>
<text text-anchor="middle" x="437.5" y="-78.8" font-family="Avenir Next" font-size="9.00" fill="#41515b">GEOG418</text>
</a>
</g>
</g>
<!-- course__GEOG422 -->
<g id="node9" class="node">
<title>course__GEOG422</title>
<g id="a_node9"><a xlink:href="../../../courses/GEOG422.html" xlink:title="GEOG422: Advanced Topics in Remote Sensing" target="_top">
<path fill="#e7e2d8" stroke="#7e8d96" d="M456,-256C456,-256 419,-256 419,-256 413,-256 407,-250 407,-244 407,-244 407,-232 407,-232 407,-226 413,-220 419,-220 419,-220 456,-220 456,-220 462,-220 468,-226 468,-232 468,-232 468,-244 468,-244 468,-250 462,-256 456,-256"/>
<text text-anchor="middle" x="437.5" y="-235.8" font-family="Avenir Next" font-size="9.00" fill="#41515b">GEOG422</text>
</a>
</g>
</g>
<!-- course__GEOG428 -->
<g id="node10" class="node">
<title>course__GEOG428</title>
<g id="a_node10"><a xlink:href="../../../courses/GEOG428.html" xlink:title="GEOG428: Advanced Topics in Geographic Information Sciences" target="_top">
<path fill="#e7e2d8" stroke="#7e8d96" d="M456,-43C456,-43 419,-43 419,-43 413,-43 407,-37 407,-31 407,-31 407,-19 407,-19 407,-13 413,-7 419,-7 419,-7 456,-7 456,-7 462,-7 468,-13 468,-19 468,-19 468,-31 468,-31 468,-37 462,-43 456,-43"/>
<text text-anchor="middle" x="437.5" y="-22.8" font-family="Avenir Next" font-size="9.00" fill="#41515b">GEOG428</text>
</a>
</g>
</g>
<!-- choice_GEOG418_0&#45;&gt;course__GEOG418 -->
<g id="edge8" class="edge">
<title>choice_GEOG418_0&#45;&gt;course__GEOG418</title>
<path fill="none" stroke="#5d6972" stroke-width="1.2" d="M346.14,-81C361.88,-81 382.15,-81 399.51,-81"/>
<polygon fill="#5d6972" stroke="#5d6972" stroke-width="1.2" points="399.75,-83.45 406.75,-81 399.75,-78.55 399.75,-83.45"/>
</g>
<!-- choice_GEOG420_0_1&#45;&gt;course__GEOG420 -->
<g id="edge12" class="edge">
<title>choice_GEOG420_0_1&#45;&gt;course__GEOG420</title>
<path fill="none" stroke="#5d6972" stroke-width="1.2" d="M346.14,-142.16C361.88,-145.27 382.15,-149.27 399.51,-152.7"/>
<polygon fill="#5d6972" stroke="#5d6972" stroke-width="1.2" points="399.4,-155.17 406.75,-154.13 400.35,-150.37 399.4,-155.17"/>
</g>
<!-- choice_GEOG422_0&#45;&gt;course__GEOG422 -->
<g id="edge15" class="edge">
<title>choice_GEOG422_0&#45;&gt;course__GEOG422</title>
<path fill="none" stroke="#5d6972" stroke-width="1.2" d="M346.14,-238C361.88,-238 382.15,-238 399.51,-238"/>
<polygon fill="#5d6972" stroke="#5d6972" stroke-width="1.2" points="399.75,-240.45 406.75,-238 399.75,-235.55 399.75,-240.45"/>
</g>
<!-- choice_GEOG428_0&#45;&gt;course__GEOG428 -->
<g id="edge18" class="edge">
<title>choice_GEOG428_0&#45;&gt;course__GEOG428</title>
<path fill="none" stroke="#5d6972" stroke-width="1.2" d="M346.14,-25C361.88,-25 382.15,-25 399.51,-25"/>
<polygon fill="#5d6972" stroke="#5d6972" stroke-width="1.2" points="399.75,-27.45 406.75,-25 399.75,-22.55 399.75,-27.45"/>
</g>
</g>
</svg>
