<?xml version="1.0" encoding="UTF-8" standalone="no"?>
<!DOCTYPE svg PUBLIC "-//W3C//DTD SVG 1.1//EN"
 "http://www.w3.org/Graphics/SVG/1.1/DTD/svg11.dtd">
<!-- Generated by graphviz version 2.43.0 (0)
 -->
<!-- Title: MATH377 Pages: 1 -->
<svg width="1049pt" height="258pt"
 viewBox="0.00 0.00 1049.20 258.20" xmlns="http://www.w3.org/2000/svg" xmlns:xlink="http://www.w3.org/1999/xlink">
<g id="graph0" class="graph" transform="scale(1 1) rotate(0) translate(21.6 236.6)">
<title>MATH377</title>
<!-- course__MATH100 -->
<g id="node1" class="node">
<title>course__MATH100</title>
<g id="a_node1"><a xlink:href="../../../courses/MATH100.html" xlink:title="Equivalent or cross&#45;listed: MATH100: Calculus I | MATH102: Calculus for Students in the Social and Biological Sciences | MATH109: Introduction to Calculus" target="_top">
<path fill="#dfe3f4" stroke="#7e8d96" d="M99,-109C99,-109 12,-109 12,-109 6,-109 0,-103 0,-97 0,-97 0,-85 0,-85 0,-79 6,-73 12,-73 12,-73 99,-73 99,-73 105,-73 111,-79 111,-85 111,-85 111,-97 111,-97 111,-103 105,-109 99,-109"/>
<text text-anchor="middle" x="55.5" y="-93.8" font-family="Avenir Next" font-size="9.00" fill="#41515b">MATH100 / MATH102</text>
<text text-anchor="middle" x="55.5" y="-83.8" font-family="Avenir Next" font-size="9.00" fill="#41515b">MATH109</text>
</a>
</g>
</g>
<!-- course__MATH101 -->
<g id="node2" class="node">
<title>course__MATH101</title>
<g id="a_node2"><a xlink:href="../../../courses/MATH101.html" xlink:title="MATH101: Calculus II" target="_top">
<path fill="#dfe3f4" stroke="#7e8d96" d="M219,-134C219,-134 184,-134 184,-134 178,-134 172,-128 172,-122 172,-122 172,-110 172,-110 172,-104 178,-98 184,-98 184,-98 219,-98 219,-98 225,-98 231,-104 231,-110 231,-110 231,-122 231,-122 231,-128 225,-134 219,-134"/>
<text text-anchor="middle" x="201.5" y="-113.8" font-family="Avenir Next" font-size="9.00" fill="#41515b">MATH101</text>
</a>
</g>
</g>
<!-- course__MATH100&#45;&gt;course__MATH101 -->
<g id="edge1" class="edge">
<title>course__MATH100&#45;&gt;course__MATH101</title>
<path fill="none" stroke="#5d6972" stroke-width="1.2" d="M111.35,-100.52C129.27,-103.63 148.7,-107.01 164.83,-109.81"/>
<polygon fill="#5d6972" stroke="#5d6972" stroke-width="1.2" points="164.67,-112.27 171.99,-111.05 165.51,-107.44 164.67,-112.27"/>
</g>
<!-- choice_MATH211_0 -->
<g id="node10" class="node">
<title>choice_MATH211_0</title>
<path fill="#fff7ee" stroke="#b7793f" stroke-width="1.1" d="M514,-47C514,-47 484,-47 484,-47 478,-47 472,-41 472,-35 472,-35 472,-23 472,-23 472,-17 478,-11 484,-11 484,-11 514,-11 514,-11 520,-11 526,-17 526,-23 526,-23 526,-35 526,-35 526,-41 520,-47 514,-47"/>
<text text-anchor="middle" x="499" y="-26.8" font-family="Avenir Next" font-size="9.00">1 of</text>
</g>
<!-- course__MATH100&#45;&gt;choice_MATH211_0 -->
<g id="edge4" class="edge">
<title>course__MATH100&#45;&gt;choice_MATH211_0</title>
<path fill="none" stroke="#7a8389" d="M111.02,-85.22C180.76,-77.57 305.19,-63.03 411,-46 428.79,-43.14 448.5,-39.34 464.66,-36.06"/>
<polygon fill="#7a8389" stroke="#7a8389" points="465.45,-38.4 471.81,-34.59 464.46,-33.6 465.45,-38.4"/>
</g>
<!-- course__MATH200 -->
<g id="node4" class="node">
<title>course__MATH200</title>
<g id="a_node4"><a xlink:href="../../../courses/MATH200.html" xlink:title="Equivalent or cross&#45;listed: MATH200: Calculus III | MATH202: Intermediate Calculus for CSC and EOS" target="_top">
<path fill="#dfe3f4" stroke="#1b2730" stroke-width="1.6" d="M399,-180C399,-180 304,-180 304,-180 298,-180 292,-174 292,-168 292,-168 292,-156 292,-156 292,-150 298,-144 304,-144 304,-144 399,-144 399,-144 405,-144 411,-150 411,-156 411,-156 411,-168 411,-168 411,-174 405,-180 399,-180"/>
<text text-anchor="middle" x="351.5" y="-159.5" font-family="Avenir Next" font-size="10.00" fill="#17232b">MATH200 / MATH202</text>
</a>
</g>
</g>
<!-- course__MATH101&#45;&gt;course__MATH200 -->
<g id="edge2" class="edge">
<title>course__MATH101&#45;&gt;course__MATH200</title>
<path fill="none" stroke="#5d6972" stroke-width="1.2" d="M231.04,-124.87C246.59,-129.7 266.52,-135.9 285.62,-141.84"/>
<polygon fill="#5d6972" stroke="#5d6972" stroke-width="1.2" points="284.93,-144.18 292.34,-143.92 286.38,-139.51 284.93,-144.18"/>
</g>
<!-- course__STAT254 -->
<g id="node7" class="node">
<title>course__STAT254</title>
<g id="a_node7"><a xlink:href="../../../courses/STAT254.html" xlink:title="Equivalent or cross&#45;listed: STAT254: Probability and Statistics for Engineers | STAT260: Introduction to Probability and Statistics I" target="_top">
<path fill="#e6dde9" stroke="#1b2730" stroke-width="1.6" d="M683,-159C683,-159 599,-159 599,-159 593,-159 587,-153 587,-147 587,-147 587,-135 587,-135 587,-129 593,-123 599,-123 599,-123 683,-123 683,-123 689,-123 695,-129 695,-135 695,-135 695,-147 695,-147 695,-153 689,-159 683,-159"/>
<text text-anchor="middle" x="641" y="-138.5" font-family="Avenir Next" font-size="10.00" fill="#17232b">STAT254 / STAT260</text>
</a>
</g>
</g>
<!-- course__MATH101&#45;&gt;course__STAT254 -->
<g id="edge13" class="edge">
<title>course__MATH101&#45;&gt;course__STAT254</title>
<path fill="none" stroke="#5d6972" stroke-width="1.2" d="M231.21,-117.64C301.68,-121.67 484.42,-132.11 579.9,-137.57"/>
<polygon fill="#5d6972" stroke="#5d6972" stroke-width="1.2" points="579.77,-140.01 586.9,-137.97 580.05,-135.12 579.77,-140.01"/>
</g>
<!-- course__MATH151 -->
<g id="node3" class="node">
<title>course__MATH151</title>
<g id="a_node3"><a xlink:href="../../../courses/MATH151.html" xlink:title="MATH151: Finite Mathematics" target="_top">
<path fill="#dfe3f4" stroke="#7e8d96" d="M369,-36C369,-36 334,-36 334,-36 328,-36 322,-30 322,-24 322,-24 322,-12 322,-12 322,-6 328,0 334,0 334,0 369,0 369,0 375,0 381,-6 381,-12 381,-12 381,-24 381,-24 381,-30 375,-36 369,-36"/>
<text text-anchor="middle" x="351.5" y="-15.8" font-family="Avenir Next" font-size="9.00" fill="#41515b">MATH151</text>
</a>
</g>
</g>
<!-- course__MATH151&#45;&gt;choice_MATH211_0 -->
<g id="edge5" class="edge">
<title>course__MATH151&#45;&gt;choice_MATH211_0</title>
<path fill="none" stroke="#7a8389" d="M381.25,-20.17C405.22,-21.99 439.4,-24.57 464.58,-26.47"/>
<polygon fill="#7a8389" stroke="#7a8389" points="464.59,-28.93 471.76,-27.02 464.96,-24.05 464.59,-28.93"/>
</g>
<!-- course__MATH204 -->
<g id="node5" class="node">
<title>course__MATH204</title>
<g id="a_node5"><a xlink:href="../../../courses/MATH204.html" xlink:title="MATH204: Calculus IV" target="_top">
<path fill="#dfe3f4" stroke="#1b2730" stroke-width="1.6" d="M660.5,-215C660.5,-215 621.5,-215 621.5,-215 615.5,-215 609.5,-209 609.5,-203 609.5,-203 609.5,-191 609.5,-191 609.5,-185 615.5,-179 621.5,-179 621.5,-179 660.5,-179 660.5,-179 666.5,-179 672.5,-185 672.5,-191 672.5,-191 672.5,-203 672.5,-203 672.5,-209 666.5,-215 660.5,-215"/>
<text text-anchor="middle" x="641" y="-194.5" font-family="Avenir Next" font-size="10.00" fill="#17232b">MATH204</text>
</a>
</g>
</g>
<!-- course__MATH200&#45;&gt;course__MATH204 -->
<g id="edge3" class="edge">
<title>course__MATH200&#45;&gt;course__MATH204</title>
<path fill="none" stroke="#5d6972" stroke-width="1.2" d="M411.03,-169.12C468.18,-176.08 553.47,-186.47 602.21,-192.4"/>
<polygon fill="#5d6972" stroke="#5d6972" stroke-width="1.2" points="602.18,-194.86 609.42,-193.28 602.77,-190 602.18,-194.86"/>
</g>
<!-- course__MATH200&#45;&gt;course__STAT254 -->
<g id="edge12" class="edge">
<title>course__MATH200&#45;&gt;course__STAT254</title>
<path fill="none" stroke="#5d6972" stroke-width="1.2" d="M411.03,-157.73C460.16,-154.14 530.09,-149.03 579.72,-145.4"/>
<polygon fill="#5d6972" stroke="#5d6972" stroke-width="1.2" points="580.08,-147.83 586.88,-144.88 579.72,-142.95 580.08,-147.83"/>
</g>
<!-- course__MATH377 -->
<g id="node9" class="node">
<title>course__MATH377</title>
<g id="a_node9"><a xlink:href="../../../courses/MATH377.html" xlink:title="MATH377: Mathematical Modelling" target="_top">
<path fill="#dfe3f4" stroke="#1f4f66" stroke-width="2" d="M994,-131C994,-131 883,-131 883,-131 877,-131 871,-125 871,-119 871,-119 871,-107 871,-107 871,-101 877,-95 883,-95 883,-95 994,-95 994,-95 1000,-95 1006,-101 1006,-107 1006,-107 1006,-119 1006,-119 1006,-125 1000,-131 994,-131"/>
<text text-anchor="middle" x="938.5" y="-116" font-family="Avenir Next" font-size="10.00" fill="#17232b">MATH377</text>
<text text-anchor="middle" x="938.5" y="-105" font-family="Avenir Next" font-size="10.00" fill="#17232b">Mathematical Modelling</text>
</a>
</g>
</g>
<!-- course__MATH204&#45;&gt;course__MATH377 -->
<g id="edge10" class="edge">
<title>course__MATH204&#45;&gt;course__MATH377</title>
<path fill="none" stroke="#5d6972" stroke-width="1.2" d="M672.51,-188.33C718.09,-175.37 805.21,-150.61 867.1,-133.01"/>
<polygon fill="#5d6972" stroke="#5d6972" stroke-width="1.2" points="868.08,-135.28 874.14,-131.01 866.74,-130.57 868.08,-135.28"/>
</g>
<!-- course__MATH211 -->
<g id="node6" class="node">
<title>course__MATH211</title>
<g id="a_node6"><a xlink:href="../../../courses/MATH211.html" xlink:title="MATH211: Matrix Algebra I" target="_top">
<path fill="#dfe3f4" stroke="#1b2730" stroke-width="1.6" d="M660.5,-47C660.5,-47 621.5,-47 621.5,-47 615.5,-47 609.5,-41 609.5,-35 609.5,-35 609.5,-23 609.5,-23 609.5,-17 615.5,-11 621.5,-11 621.5,-11 660.5,-11 660.5,-11 666.5,-11 672.5,-17 672.5,-23 672.5,-23 672.5,-35 672.5,-35 672.5,-41 666.5,-47 660.5,-47"/>
<text text-anchor="middle" x="641" y="-26.5" font-family="Avenir Next" font-size="10.00" fill="#17232b">MATH211</text>
</a>
</g>
</g>
<!-- course__MATH211&#45;&gt;course__MATH377 -->
<g id="edge9" class="edge">
<title>course__MATH211&#45;&gt;course__MATH377</title>
<path fill="none" stroke="#5d6972" stroke-width="1.2" d="M672.51,-37.67C718.09,-50.63 805.21,-75.39 867.1,-92.99"/>
<polygon fill="#5d6972" stroke="#5d6972" stroke-width="1.2" points="866.74,-95.43 874.14,-94.99 868.08,-90.72 866.74,-95.43"/>
</g>
<!-- choice_MATH377_0_3 -->
<g id="node11" class="node">
<title>choice_MATH377_0_3</title>
<path fill="#fff7ee" stroke="#b7793f" stroke-width="1.1" d="M798,-131C798,-131 768,-131 768,-131 762,-131 756,-125 756,-119 756,-119 756,-107 756,-107 756,-101 762,-95 768,-95 768,-95 798,-95 798,-95 804,-95 810,-101 810,-107 810,-107 810,-119 810,-119 810,-125 804,-131 798,-131"/>
<text text-anchor="middle" x="783" y="-110.8" font-family="Avenir Next" font-size="9.00">1 of</text>
</g>
<!-- course__STAT254&#45;&gt;choice_MATH377_0_3 -->
<g id="edge7" class="edge">
<title>course__STAT254&#45;&gt;choice_MATH377_0_3</title>
<path fill="none" stroke="#7a8389" d="M695.33,-130.33C713.29,-126.74 732.8,-122.84 748.76,-119.65"/>
<polygon fill="#7a8389" stroke="#7a8389" points="749.43,-122.01 755.82,-118.24 748.47,-117.21 749.43,-122.01"/>
</g>
<!-- course__STAT255 -->
<g id="node8" class="node">
<title>course__STAT255</title>
<g id="a_node8"><a xlink:href="../../../courses/STAT255.html" xlink:title="STAT255: Statistics for Life Sciences I" target="_top">
<path fill="#e6dde9" stroke="#1b2730" stroke-width="1.6" d="M658,-103C658,-103 624,-103 624,-103 618,-103 612,-97 612,-91 612,-91 612,-79 612,-79 612,-73 618,-67 624,-67 624,-67 658,-67 658,-67 664,-67 670,-73 670,-79 670,-79 670,-91 670,-91 670,-97 664,-103 658,-103"/>
<text text-anchor="middle" x="641" y="-82.5" font-family="Avenir Next" font-size="10.00" fill="#17232b">STAT255</text>
</a>
</g>
</g>
<!-- course__STAT255&#45;&gt;choice_MATH377_0_3 -->
<g id="edge8" class="edge">
<title>course__STAT255&#45;&gt;choice_MATH377_0_3</title>
<path fill="none" stroke="#7a8389" d="M670.33,-90.67C692.92,-95.18 724.62,-101.52 748.47,-106.29"/>
<polygon fill="#7a8389" stroke="#7a8389" points="748.26,-108.75 755.61,-107.72 749.22,-103.95 748.26,-108.75"/>
</g>
<!-- choice_MATH211_0&#45;&gt;course__MATH211 -->
<g id="edge6" class="edge">
<title>choice_MATH211_0&#45;&gt;course__MATH211</title>
<path fill="none" stroke="#5d6972" stroke-width="1.2" d="M526,-29C547.36,-29 577.9,-29 602,-29"/>
<polygon fill="#5d6972" stroke="#5d6972" stroke-width="1.2" points="602.25,-31.45 609.25,-29 602.25,-26.55 602.25,-31.45"/>
</g>
<!-- choice_MATH377_0_3&#45;&gt;course__MATH377 -->
<g id="edge11" class="edge">
<title>choice_MATH377_0_3&#45;&gt;course__MATH377</title>
<path fill="none" stroke="#5d6972" stroke-width="1.2" d="M810.04,-113C824.97,-113 844.54,-113 863.84,-113"/>
<polygon fill="#5d6972" stroke="#5d6972" stroke-width="1.2" points="863.93,-115.45 870.93,-113 863.93,-110.55 863.93,-115.45"/>
</g>
</g>
</svg>
