<?xml version="1.0" encoding="UTF-8" standalone="no"?>
<!DOCTYPE svg PUBLIC "-//W3C//DTD SVG 1.1//EN"
 "http://www.w3.org/Graphics/SVG/1.1/DTD/svg11.dtd">
<!-- Generated by graphviz version 2.43.0 (0)
 -->
<!-- Title: MATH109 Pages: 1 -->
<svg width="1180pt" height="551pt"
 viewBox="0.00 0.00 1180.20 551.20" xmlns="http://www.w3.org/2000/svg" xmlns:xlink="http://www.w3.org/1999/xlink">
<g id="graph0" class="graph" transform="scale(1 1) rotate(0) translate(21.6 529.6)">
<title>MATH109</title>
<!-- course__MATH100 -->
<g id="node1" class="node">
<title>course__MATH100</title>
<g id="a_node1"><a xlink:href="../../../courses/MATH109.html" xlink:title="Collapsed in simplified view: MATH100: Calculus I | MATH102: Calculus for Students in the Social and Biological Sciences | MATH109: Introduction to Calculus" target="_top">
<path fill="#dfe3f4" stroke="#1f4f66" stroke-width="2" d="M570,-207C570,-207 462,-207 462,-207 456,-207 450,-201 450,-195 450,-195 450,-183 450,-183 450,-177 456,-171 462,-171 462,-171 570,-171 570,-171 576,-171 582,-177 582,-183 582,-183 582,-195 582,-195 582,-201 576,-207 570,-207"/>
<text text-anchor="middle" x="516" y="-192" font-family="Avenir Next" font-size="10.00" fill="#17232b">Calculus I</text>
<text text-anchor="middle" x="516" y="-181" font-family="Avenir Next" font-size="10.00" fill="#17232b">Introduction to Calculus</text>
</a>
</g>
</g>
<!-- course__CHEM102 -->
<g id="node2" class="node">
<title>course__CHEM102</title>
<g id="a_node2"><a xlink:href="../../../courses/CHEM102.html" xlink:title="CHEM102: Chemical Reactivity Fundamentals with Environmental Applications" target="_top">
<path fill="#ead9b8" stroke="#1b2730" stroke-width="1.6" d="M707.5,-402C707.5,-402 667.5,-402 667.5,-402 661.5,-402 655.5,-396 655.5,-390 655.5,-390 655.5,-378 655.5,-378 655.5,-372 661.5,-366 667.5,-366 667.5,-366 707.5,-366 707.5,-366 713.5,-366 719.5,-372 719.5,-378 719.5,-378 719.5,-390 719.5,-390 719.5,-396 713.5,-402 707.5,-402"/>
<text text-anchor="middle" x="687.5" y="-381.5" font-family="Avenir Next" font-size="10.00" fill="#17232b">CHEM102</text>
</a>
</g>
</g>
<!-- course__MATH100&#45;&gt;course__CHEM102 -->
<g id="edge2" class="edge">
<title>course__MATH100&#45;&gt;course__CHEM102</title>
<path fill="none" stroke="#5d6972" stroke-width="1.2" d="M532.44,-207.05C556.11,-234.7 602.87,-289.15 643,-335 650.31,-343.35 658.36,-352.44 665.52,-360.51"/>
<polygon fill="#5d6972" stroke="#5d6972" stroke-width="1.2" points="663.84,-362.3 670.33,-365.9 667.5,-359.04 663.84,-362.3"/>
</g>
<!-- course__CSC110 -->
<g id="node3" class="node">
<title>course__CSC110</title>
<g id="a_node3"><a xlink:href="../../../courses/CSC110.html" xlink:title="Collapsed in simplified view: CSC110: Fundamentals of Programming I | CSC111: Fundamentals of Programming with Engineering Applications" target="_top">
<path fill="#e7ddec" stroke="#1b2730" stroke-width="1.6" d="M720,-92C720,-92 655,-92 655,-92 649,-92 643,-86 643,-80 643,-80 643,-68 643,-68 643,-62 649,-56 655,-56 655,-56 720,-56 720,-56 726,-56 732,-62 732,-68 732,-68 732,-80 732,-80 732,-86 726,-92 720,-92"/>
<text text-anchor="middle" x="687.5" y="-71.5" font-family="Avenir Next" font-size="10.00" fill="#17232b">Programming I</text>
</a>
</g>
</g>
<!-- course__MATH100&#45;&gt;course__CSC110 -->
<g id="edge4" class="edge">
<title>course__MATH100&#45;&gt;course__CSC110</title>
<path fill="none" stroke="#5d6972" stroke-width="1.2" d="M543.86,-170.78C573.61,-150.59 621.6,-118.03 653.59,-96.33"/>
<polygon fill="#5d6972" stroke="#5d6972" stroke-width="1.2" points="655.35,-98.09 659.77,-92.14 652.6,-94.04 655.35,-98.09"/>
</g>
<!-- course__MATH101 -->
<g id="node4" class="node">
<title>course__MATH101</title>
<g id="a_node4"><a xlink:href="../../../courses/MATH101.html" xlink:title="MATH101: Calculus II" target="_top">
<path fill="#dfe3f4" stroke="#1b2730" stroke-width="1.6" d="M707,-232C707,-232 668,-232 668,-232 662,-232 656,-226 656,-220 656,-220 656,-208 656,-208 656,-202 662,-196 668,-196 668,-196 707,-196 707,-196 713,-196 719,-202 719,-208 719,-208 719,-220 719,-220 719,-226 713,-232 707,-232"/>
<text text-anchor="middle" x="687.5" y="-211.5" font-family="Avenir Next" font-size="10.00" fill="#17232b">MATH101</text>
</a>
</g>
</g>
<!-- course__MATH100&#45;&gt;course__MATH101 -->
<g id="edge19" class="edge">
<title>course__MATH100&#45;&gt;course__MATH101</title>
<path fill="none" stroke="#5d6972" stroke-width="1.2" d="M582.05,-198.59C604.66,-201.93 629.26,-205.56 648.9,-208.45"/>
<polygon fill="#5d6972" stroke="#5d6972" stroke-width="1.2" points="648.62,-210.89 655.9,-209.49 649.34,-206.04 648.62,-210.89"/>
</g>
<!-- course__MATH211 -->
<g id="node5" class="node">
<title>course__MATH211</title>
<g id="a_node5"><a xlink:href="../../../courses/MATH211.html" xlink:title="MATH211: Matrix Algebra I" target="_top">
<path fill="#dfe3f4" stroke="#1b2730" stroke-width="1.6" d="M707,-36C707,-36 668,-36 668,-36 662,-36 656,-30 656,-24 656,-24 656,-12 656,-12 656,-6 662,0 668,0 668,0 707,0 707,0 713,0 719,-6 719,-12 719,-12 719,-24 719,-24 719,-30 713,-36 707,-36"/>
<text text-anchor="middle" x="687.5" y="-15.5" font-family="Avenir Next" font-size="10.00" fill="#17232b">MATH211</text>
</a>
</g>
</g>
<!-- course__MATH100&#45;&gt;course__MATH211 -->
<g id="edge20" class="edge">
<title>course__MATH100&#45;&gt;course__MATH211</title>
<path fill="none" stroke="#5d6972" stroke-width="1.2" d="M530.34,-170.85C551.94,-142.2 596.84,-85.7 643,-46 645.22,-44.09 647.58,-42.21 650.01,-40.39"/>
<polygon fill="#5d6972" stroke="#5d6972" stroke-width="1.2" points="651.52,-42.32 655.78,-36.24 648.66,-38.34 651.52,-42.32"/>
</g>
<!-- course__PHYS102A -->
<g id="node6" class="node">
<title>course__PHYS102A</title>
<g id="a_node6"><a xlink:href="../../../courses/PHYS102A.html" xlink:title="Collapsed in simplified view: PHYS102A: General Physics I | PHYS110: Introductory Physics I | PHYS120: Physics I" target="_top">
<path fill="#efd8cf" stroke="#1b2730" stroke-width="1.6" d="M705,-288C705,-288 670,-288 670,-288 664,-288 658,-282 658,-276 658,-276 658,-264 658,-264 658,-258 664,-252 670,-252 670,-252 705,-252 705,-252 711,-252 717,-258 717,-264 717,-264 717,-276 717,-276 717,-282 711,-288 705,-288"/>
<text text-anchor="middle" x="687.5" y="-267.5" font-family="Avenir Next" font-size="10.00" fill="#17232b">Physics I</text>
</a>
</g>
</g>
<!-- course__MATH100&#45;&gt;course__PHYS102A -->
<g id="edge21" class="edge">
<title>course__MATH100&#45;&gt;course__PHYS102A</title>
<path fill="none" stroke="#5d6972" stroke-width="1.2" d="M555.04,-207.18C583.86,-220.95 623.17,-239.74 651.28,-253.17"/>
<polygon fill="#5d6972" stroke="#5d6972" stroke-width="1.2" points="650.44,-255.49 657.82,-256.29 652.56,-251.06 650.44,-255.49"/>
</g>
<!-- course__PHYS102B -->
<g id="node9" class="node">
<title>course__PHYS102B</title>
<g id="a_node9"><a xlink:href="../../../courses/PHYS102B.html" xlink:title="Collapsed in simplified view: PHYS102B: General Physics II | PHYS111: Introductory Physics II | PHYS130: Physics II" target="_top">
<path fill="#efd8cf" stroke="#1b2730" stroke-width="1.6" d="M844,-270C844,-270 806,-270 806,-270 800,-270 794,-264 794,-258 794,-258 794,-246 794,-246 794,-240 800,-234 806,-234 806,-234 844,-234 844,-234 850,-234 856,-240 856,-246 856,-246 856,-258 856,-258 856,-264 850,-270 844,-270"/>
<text text-anchor="middle" x="825" y="-249.5" font-family="Avenir Next" font-size="10.00" fill="#17232b">Physics II</text>
</a>
</g>
</g>
<!-- course__MATH100&#45;&gt;course__PHYS102B -->
<g id="edge23" class="edge">
<title>course__MATH100&#45;&gt;course__PHYS102B</title>
<path fill="none" stroke="#5d6972" stroke-width="1.2" d="M530.82,-207.31C551.74,-233.32 594.21,-279.83 643,-298 680.07,-311.81 693.5,-307.09 732,-298 752.25,-293.22 773.13,-283.26 789.87,-273.83"/>
<polygon fill="#5d6972" stroke="#5d6972" stroke-width="1.2" points="791.47,-275.73 796.3,-270.11 789.02,-271.49 791.47,-275.73"/>
</g>
<!-- choice_EOS311_0_2 -->
<g id="node15" class="node">
<title>choice_EOS311_0_2</title>
<path fill="#fff7ee" stroke="#b7793f" stroke-width="1.1" d="M840,-214C840,-214 810,-214 810,-214 804,-214 798,-208 798,-202 798,-202 798,-190 798,-190 798,-184 804,-178 810,-178 810,-178 840,-178 840,-178 846,-178 852,-184 852,-190 852,-190 852,-202 852,-202 852,-208 846,-214 840,-214"/>
<text text-anchor="middle" x="825" y="-193.8" font-family="Avenir Next" font-size="9.00">2 of</text>
</g>
<!-- course__MATH100&#45;&gt;choice_EOS311_0_2 -->
<g id="edge8" class="edge">
<title>course__MATH100&#45;&gt;choice_EOS311_0_2</title>
<path fill="none" stroke="#7a8389" d="M582.44,-185.78C625.06,-184.25 681.86,-183.28 732,-186 751.51,-187.06 773.25,-189.37 790.69,-191.5"/>
<polygon fill="#7a8389" stroke="#7a8389" points="790.64,-193.96 797.89,-192.4 791.25,-189.1 790.64,-193.96"/>
</g>
<!-- choice_EOS314_0_0 -->
<g id="node16" class="node">
<title>choice_EOS314_0_0</title>
<path fill="#fff7ee" stroke="#b7793f" stroke-width="1.1" d="M840,-158C840,-158 810,-158 810,-158 804,-158 798,-152 798,-146 798,-146 798,-134 798,-134 798,-128 804,-122 810,-122 810,-122 840,-122 840,-122 846,-122 852,-128 852,-134 852,-134 852,-146 852,-146 852,-152 846,-158 840,-158"/>
<text text-anchor="middle" x="825" y="-137.8" font-family="Avenir Next" font-size="9.00">2 of</text>
</g>
<!-- course__MATH100&#45;&gt;choice_EOS314_0_0 -->
<g id="edge15" class="edge">
<title>course__MATH100&#45;&gt;choice_EOS314_0_0</title>
<path fill="none" stroke="#7a8389" d="M582.11,-178.61C646.02,-168.41 740.96,-153.25 790.76,-145.31"/>
<polygon fill="#7a8389" stroke="#7a8389" points="791.24,-147.71 797.77,-144.19 790.47,-142.87 791.24,-147.71"/>
</g>
<!-- course__CHEM245 -->
<g id="node7" class="node">
<title>course__CHEM245</title>
<g id="a_node7"><a xlink:href="../../../courses/CHEM245.html" xlink:title="CHEM245: Introduction to Thermodynamics" target="_top">
<path fill="#ead9b8" stroke="#1b2730" stroke-width="1.6" d="M845,-368C845,-368 805,-368 805,-368 799,-368 793,-362 793,-356 793,-356 793,-344 793,-344 793,-338 799,-332 805,-332 805,-332 845,-332 845,-332 851,-332 857,-338 857,-344 857,-344 857,-356 857,-356 857,-362 851,-368 845,-368"/>
<text text-anchor="middle" x="825" y="-347.5" font-family="Avenir Next" font-size="10.00" fill="#17232b">CHEM245</text>
</a>
</g>
</g>
<!-- course__CHEM102&#45;&gt;course__CHEM245 -->
<g id="edge3" class="edge">
<title>course__CHEM102&#45;&gt;course__CHEM245</title>
<path fill="none" stroke="#5d6972" stroke-width="1.2" d="M719.59,-376.2C739.24,-371.27 764.79,-364.86 785.69,-359.61"/>
<polygon fill="#5d6972" stroke="#5d6972" stroke-width="1.2" points="786.4,-361.96 792.59,-357.88 785.2,-357.21 786.4,-361.96"/>
</g>
<!-- course__EOS240 -->
<g id="node8" class="node">
<title>course__EOS240</title>
<g id="a_node8"><a xlink:href="../../../courses/EOS240.html" xlink:title="EOS240: Geochemistry" target="_top">
<path fill="#d7e9ef" stroke="#1b2730" stroke-width="1.6" d="M840,-508C840,-508 810,-508 810,-508 804,-508 798,-502 798,-496 798,-496 798,-484 798,-484 798,-478 804,-472 810,-472 810,-472 840,-472 840,-472 846,-472 852,-478 852,-484 852,-484 852,-496 852,-496 852,-502 846,-508 840,-508"/>
<text text-anchor="middle" x="825" y="-487.5" font-family="Avenir Next" font-size="10.00" fill="#17232b">EOS240</text>
</a>
</g>
</g>
<!-- course__CHEM102&#45;&gt;course__EOS240 -->
<g id="edge5" class="edge">
<title>course__CHEM102&#45;&gt;course__EOS240</title>
<path fill="none" stroke="#5d6972" stroke-width="1.2" d="M711.79,-402.22C734.77,-420.2 769.96,-447.73 794.8,-467.15"/>
<polygon fill="#5d6972" stroke="#5d6972" stroke-width="1.2" points="793.53,-469.28 800.56,-471.66 796.55,-465.42 793.53,-469.28"/>
</g>
<!-- course__EOS261 -->
<g id="node10" class="node">
<title>course__EOS261</title>
<g id="a_node10"><a xlink:href="../../../courses/EOS261.html" xlink:title="EOS261: The Climate System" target="_top">
<path fill="#d7e9ef" stroke="#1b2730" stroke-width="1.6" d="M985,-381C985,-381 955,-381 955,-381 949,-381 943,-375 943,-369 943,-369 943,-357 943,-357 943,-351 949,-345 955,-345 955,-345 985,-345 985,-345 991,-345 997,-351 997,-357 997,-357 997,-369 997,-369 997,-375 991,-381 985,-381"/>
<text text-anchor="middle" x="970" y="-360.5" font-family="Avenir Next" font-size="10.00" fill="#17232b">EOS261</text>
</a>
</g>
</g>
<!-- course__CHEM102&#45;&gt;course__EOS261 -->
<g id="edge6" class="edge">
<title>course__CHEM102&#45;&gt;course__EOS261</title>
<path fill="none" stroke="#5d6972" stroke-width="1.2" d="M719.61,-383.8C753.47,-383.37 809.16,-382.05 857,-378 883.64,-375.75 913.65,-371.64 935.89,-368.3"/>
<polygon fill="#5d6972" stroke="#5d6972" stroke-width="1.2" points="936.28,-370.72 942.83,-367.24 935.54,-365.87 936.28,-370.72"/>
</g>
<!-- course__EOS311 -->
<g id="node11" class="node">
<title>course__EOS311</title>
<g id="a_node11"><a xlink:href="../../../courses/EOS311.html" xlink:title="Equivalent or cross&#45;listed: BIOL311: Biological Oceanography | EOS311: Biological Oceanography" target="_top">
<path fill="#d7e9ef" stroke="#1b2730" stroke-width="1.6" d="M1010,-295C1010,-295 930,-295 930,-295 924,-295 918,-289 918,-283 918,-283 918,-271 918,-271 918,-265 924,-259 930,-259 930,-259 1010,-259 1010,-259 1016,-259 1022,-265 1022,-271 1022,-271 1022,-283 1022,-283 1022,-289 1016,-295 1010,-295"/>
<text text-anchor="middle" x="970" y="-274.5" font-family="Avenir Next" font-size="10.00" fill="#17232b">BIOL311 / EOS311</text>
</a>
</g>
</g>
<!-- course__CHEM102&#45;&gt;course__EOS311 -->
<g id="edge10" class="edge">
<title>course__CHEM102&#45;&gt;course__EOS311</title>
<path fill="none" stroke="#5d6972" stroke-width="1.2" d="M714.46,-365.74C734.97,-352.05 764.74,-333.71 793,-322 830.81,-306.33 875.51,-294.98 910.4,-287.6"/>
<polygon fill="#5d6972" stroke="#5d6972" stroke-width="1.2" points="911.34,-289.91 917.69,-286.09 910.34,-285.11 911.34,-289.91"/>
</g>
<!-- course__EOS312 -->
<g id="node13" class="node">
<title>course__EOS312</title>
<g id="a_node13"><a xlink:href="../../../courses/EOS312.html" xlink:title="EOS312: Introductory Chemical Oceanography" target="_top">
<path fill="#d7e9ef" stroke="#1b2730" stroke-width="1.6" d="M1125,-337C1125,-337 1095,-337 1095,-337 1089,-337 1083,-331 1083,-325 1083,-325 1083,-313 1083,-313 1083,-307 1089,-301 1095,-301 1095,-301 1125,-301 1125,-301 1131,-301 1137,-307 1137,-313 1137,-313 1137,-325 1137,-325 1137,-331 1131,-337 1125,-337"/>
<text text-anchor="middle" x="1110" y="-316.5" font-family="Avenir Next" font-size="10.00" fill="#17232b">EOS312</text>
</a>
</g>
</g>
<!-- course__CHEM102&#45;&gt;course__EOS312 -->
<g id="edge14" class="edge">
<title>course__CHEM102&#45;&gt;course__EOS312</title>
<path fill="none" stroke="#5d6972" stroke-width="1.2" d="M719.66,-392.07C780.21,-406.16 917.04,-430.24 1022,-391 1048.4,-381.13 1072.58,-359.64 1088.71,-342.7"/>
<polygon fill="#5d6972" stroke="#5d6972" stroke-width="1.2" points="1090.9,-343.94 1093.87,-337.15 1087.31,-340.61 1090.9,-343.94"/>
</g>
<!-- course__MATH101&#45;&gt;course__PHYS102B -->
<g id="edge24" class="edge">
<title>course__MATH101&#45;&gt;course__PHYS102B</title>
<path fill="none" stroke="#5d6972" stroke-width="1.2" d="M719.25,-222.62C739.31,-228.25 765.62,-235.63 786.85,-241.58"/>
<polygon fill="#5d6972" stroke="#5d6972" stroke-width="1.2" points="786.44,-244.01 793.84,-243.54 787.76,-239.29 786.44,-244.01"/>
</g>
<!-- course__MATH101&#45;&gt;choice_EOS311_0_2 -->
<g id="edge9" class="edge">
<title>course__MATH101&#45;&gt;choice_EOS311_0_2</title>
<path fill="none" stroke="#7a8389" d="M719.25,-209.92C740.57,-207.08 768.96,-203.31 790.8,-200.41"/>
<polygon fill="#7a8389" stroke="#7a8389" points="791.32,-202.81 797.93,-199.46 790.67,-197.96 791.32,-202.81"/>
</g>
<!-- course__MATH101&#45;&gt;choice_EOS314_0_0 -->
<g id="edge16" class="edge">
<title>course__MATH101&#45;&gt;choice_EOS314_0_0</title>
<path fill="none" stroke="#7a8389" d="M719.25,-197.21C740.85,-185.41 769.7,-169.66 791.65,-157.67"/>
<polygon fill="#7a8389" stroke="#7a8389" points="792.97,-159.74 797.93,-154.24 790.62,-155.44 792.97,-159.74"/>
</g>
<!-- course__PHYS102A&#45;&gt;course__PHYS102B -->
<g id="edge22" class="edge">
<title>course__PHYS102A&#45;&gt;course__PHYS102B</title>
<path fill="none" stroke="#5d6972" stroke-width="1.2" d="M717.24,-266.18C737.48,-263.49 764.76,-259.87 786.69,-256.96"/>
<polygon fill="#5d6972" stroke="#5d6972" stroke-width="1.2" points="787.28,-259.35 793.9,-256 786.63,-254.49 787.28,-259.35"/>
</g>
<!-- course__PHYS102B&#45;&gt;course__EOS261 -->
<g id="edge7" class="edge">
<title>course__PHYS102B&#45;&gt;course__EOS261</title>
<path fill="none" stroke="#5d6972" stroke-width="1.2" d="M849.29,-270.08C874.02,-289.27 913.13,-319.63 939.87,-340.39"/>
<polygon fill="#5d6972" stroke="#5d6972" stroke-width="1.2" points="938.68,-342.57 945.72,-344.93 941.69,-338.7 938.68,-342.57"/>
</g>
<!-- course__PHYS102B&#45;&gt;course__EOS311 -->
<g id="edge12" class="edge">
<title>course__PHYS102B&#45;&gt;course__EOS311</title>
<path fill="none" stroke="#5d6972" stroke-width="1.2" d="M856.33,-257.3C872.1,-260.06 891.94,-263.53 910.56,-266.78"/>
<polygon fill="#5d6972" stroke="#5d6972" stroke-width="1.2" points="910.57,-269.27 917.89,-268.06 911.42,-264.45 910.57,-269.27"/>
</g>
<!-- course__EOS314 -->
<g id="node12" class="node">
<title>course__EOS314</title>
<g id="a_node12"><a xlink:href="../../../courses/EOS314.html" xlink:title="EOS314: Descriptive Physical Oceanography" target="_top">
<path fill="#d7e9ef" stroke="#1b2730" stroke-width="1.6" d="M985,-239C985,-239 955,-239 955,-239 949,-239 943,-233 943,-227 943,-227 943,-215 943,-215 943,-209 949,-203 955,-203 955,-203 985,-203 985,-203 991,-203 997,-209 997,-215 997,-215 997,-227 997,-227 997,-233 991,-239 985,-239"/>
<text text-anchor="middle" x="970" y="-218.5" font-family="Avenir Next" font-size="10.00" fill="#17232b">EOS314</text>
</a>
</g>
</g>
<!-- course__PHYS102B&#45;&gt;course__EOS314 -->
<g id="edge18" class="edge">
<title>course__PHYS102B&#45;&gt;course__EOS314</title>
<path fill="none" stroke="#5d6972" stroke-width="1.2" d="M856.33,-245.43C879.61,-240.38 911.72,-233.42 935.71,-228.22"/>
<polygon fill="#5d6972" stroke="#5d6972" stroke-width="1.2" points="936.24,-230.61 942.56,-226.73 935.2,-225.82 936.24,-230.61"/>
</g>
<!-- course__EOS314&#45;&gt;course__EOS312 -->
<g id="edge13" class="edge">
<title>course__EOS314&#45;&gt;course__EOS312</title>
<path fill="none" stroke="#5d6972" stroke-width="1.2" d="M997.2,-234.24C1005.33,-238.65 1014.19,-243.78 1022,-249 1043.57,-263.43 1066.37,-281.91 1083.22,-296.26"/>
<polygon fill="#5d6972" stroke="#5d6972" stroke-width="1.2" points="1081.78,-298.26 1088.69,-300.96 1084.97,-294.54 1081.78,-298.26"/>
</g>
<!-- MATH109_notes -->
<g id="node14" class="node">
<title>MATH109_notes</title>
<polygon fill="#fff7ee" stroke="#b7793f" stroke-width="1.1" points="321,-264 0,-264 0,-114 327,-114 327,-258 321,-264"/>
<polyline fill="none" stroke="#b7793f" stroke-width="1.1" points="321,-264 321,-258 "/>
<polyline fill="none" stroke="#b7793f" stroke-width="1.1" points="327,-258 321,-258 "/>
<text text-anchor="start" x="13" y="-244.4" font-family="Avenir Next" font-size="12.00">Published notes</text>
<text text-anchor="start" x="13" y="-231.4" font-family="Avenir Next" font-size="12.00">Earn a minimum grade of C in each of the</text>
<text text-anchor="start" x="13" y="-218.4" font-family="Avenir Next" font-size="12.00">following</text>
<text text-anchor="start" x="13" y="-205.4" font-family="Avenir Next" font-size="12.00">Pre&#45;Calculus 12</text>
<text text-anchor="start" x="13" y="-192.4" font-family="Avenir Next" font-size="12.00">Earn a minimum grade of C+ in each of the</text>
<text text-anchor="start" x="13" y="-179.4" font-family="Avenir Next" font-size="12.00">following</text>
<text text-anchor="start" x="13" y="-166.4" font-family="Avenir Next" font-size="12.00">Completed Pre&#45;Calculus 12 with a minimum grade</text>
<text text-anchor="start" x="13" y="-153.4" font-family="Avenir Next" font-size="12.00">of B (73%)</text>
<text text-anchor="start" x="13" y="-140.4" font-family="Avenir Next" font-size="12.00">or permission of the department</text>
<text text-anchor="start" x="13" y="-127.4" font-family="Avenir Next" font-size="12.00">permission of the department</text>
</g>
<!-- MATH109_notes&#45;&gt;course__MATH100 -->
<!-- choice_EOS311_0_2&#45;&gt;course__EOS311 -->
<g id="edge11" class="edge">
<title>choice_EOS311_0_2&#45;&gt;course__EOS311</title>
<path fill="none" stroke="#5d6972" stroke-width="1.2" d="M852.09,-211.22C870.46,-221.89 895.67,-236.44 918,-249 921.76,-251.11 925.68,-253.3 929.6,-255.47"/>
<polygon fill="#5d6972" stroke="#5d6972" stroke-width="1.2" points="928.44,-257.63 935.75,-258.87 930.81,-253.34 928.44,-257.63"/>
</g>
<!-- choice_EOS314_0_0&#45;&gt;course__EOS314 -->
<g id="edge17" class="edge">
<title>choice_EOS314_0_0&#45;&gt;course__EOS314</title>
<path fill="none" stroke="#5d6972" stroke-width="1.2" d="M852.23,-154.86C876.01,-168.33 911.16,-188.24 936.67,-202.69"/>
<polygon fill="#5d6972" stroke="#5d6972" stroke-width="1.2" points="935.64,-204.92 942.94,-206.24 938.05,-200.66 935.64,-204.92"/>
</g>
</g>
</svg>
