<?xml version="1.0" encoding="UTF-8" standalone="no"?>
<!DOCTYPE svg PUBLIC "-//W3C//DTD SVG 1.1//EN"
 "http://www.w3.org/Graphics/SVG/1.1/DTD/svg11.dtd">
<!-- Generated by graphviz version 2.43.0 (0)
 -->
<!-- Title: MATH436 Pages: 1 -->
<svg width="870pt" height="177pt"
 viewBox="0.00 0.00 870.20 177.20" xmlns="http://www.w3.org/2000/svg" xmlns:xlink="http://www.w3.org/1999/xlink">
<g id="graph0" class="graph" transform="scale(1 1) rotate(0) translate(21.6 155.6)">
<title>MATH436</title>
<!-- course__MATH100 -->
<g id="node1" class="node">
<title>course__MATH100</title>
<g id="a_node1"><a xlink:href="../../../courses/MATH100.html" xlink:title="Equivalent or cross&#45;listed: MATH100: Calculus I | MATH102: Calculus for Students in the Social and Biological Sciences | MATH109: Introduction to Calculus" target="_top">
<path fill="#dfe3f4" stroke="#7e8d96" d="M99,-109C99,-109 12,-109 12,-109 6,-109 0,-103 0,-97 0,-97 0,-85 0,-85 0,-79 6,-73 12,-73 12,-73 99,-73 99,-73 105,-73 111,-79 111,-85 111,-85 111,-97 111,-97 111,-103 105,-109 99,-109"/>
<text text-anchor="middle" x="55.5" y="-93.8" font-family="Avenir Next" font-size="9.00" fill="#41515b">MATH100 / MATH102</text>
<text text-anchor="middle" x="55.5" y="-83.8" font-family="Avenir Next" font-size="9.00" fill="#41515b">MATH109</text>
</a>
</g>
</g>
<!-- course__MATH101 -->
<g id="node2" class="node">
<title>course__MATH101</title>
<g id="a_node2"><a xlink:href="../../../courses/MATH101.html" xlink:title="MATH101: Calculus II" target="_top">
<path fill="#dfe3f4" stroke="#7e8d96" d="M219,-134C219,-134 184,-134 184,-134 178,-134 172,-128 172,-122 172,-122 172,-110 172,-110 172,-104 178,-98 184,-98 184,-98 219,-98 219,-98 225,-98 231,-104 231,-110 231,-110 231,-122 231,-122 231,-128 225,-134 219,-134"/>
<text text-anchor="middle" x="201.5" y="-113.8" font-family="Avenir Next" font-size="9.00" fill="#41515b">MATH101</text>
</a>
</g>
</g>
<!-- course__MATH100&#45;&gt;course__MATH101 -->
<g id="edge1" class="edge">
<title>course__MATH100&#45;&gt;course__MATH101</title>
<path fill="none" stroke="#5d6972" stroke-width="1.2" d="M111.35,-100.52C129.27,-103.63 148.7,-107.01 164.83,-109.81"/>
<polygon fill="#5d6972" stroke="#5d6972" stroke-width="1.2" points="164.67,-112.27 171.99,-111.05 165.51,-107.44 164.67,-112.27"/>
</g>
<!-- choice_MATH211_0 -->
<g id="node9" class="node">
<title>choice_MATH211_0</title>
<path fill="#fff7ee" stroke="#b7793f" stroke-width="1.1" d="M334,-78C334,-78 304,-78 304,-78 298,-78 292,-72 292,-66 292,-66 292,-54 292,-54 292,-48 298,-42 304,-42 304,-42 334,-42 334,-42 340,-42 346,-48 346,-54 346,-54 346,-66 346,-66 346,-72 340,-78 334,-78"/>
<text text-anchor="middle" x="319" y="-57.8" font-family="Avenir Next" font-size="9.00">1 of</text>
</g>
<!-- course__MATH100&#45;&gt;choice_MATH211_0 -->
<g id="edge4" class="edge">
<title>course__MATH100&#45;&gt;choice_MATH211_0</title>
<path fill="none" stroke="#7a8389" d="M111,-84.54C163.46,-78.32 241.1,-69.12 284.86,-63.93"/>
<polygon fill="#7a8389" stroke="#7a8389" points="285.18,-66.36 291.85,-63.1 284.61,-61.49 285.18,-66.36"/>
</g>
<!-- course__MATH200 -->
<g id="node4" class="node">
<title>course__MATH200</title>
<g id="a_node4"><a xlink:href="../../../courses/MATH200.html" xlink:title="Equivalent or cross&#45;listed: MATH200: Calculus III | MATH202: Intermediate Calculus for CSC and EOS" target="_top">
<path fill="#dfe3f4" stroke="#7e8d96" d="M506,-134C506,-134 419,-134 419,-134 413,-134 407,-128 407,-122 407,-122 407,-110 407,-110 407,-104 413,-98 419,-98 419,-98 506,-98 506,-98 512,-98 518,-104 518,-110 518,-110 518,-122 518,-122 518,-128 512,-134 506,-134"/>
<text text-anchor="middle" x="462.5" y="-113.8" font-family="Avenir Next" font-size="9.00" fill="#41515b">MATH200 / MATH202</text>
</a>
</g>
</g>
<!-- course__MATH101&#45;&gt;course__MATH200 -->
<g id="edge2" class="edge">
<title>course__MATH101&#45;&gt;course__MATH200</title>
<path fill="none" stroke="#5d6972" stroke-width="1.2" d="M231.21,-116C271.67,-116 346.48,-116 399.86,-116"/>
<polygon fill="#5d6972" stroke="#5d6972" stroke-width="1.2" points="399.92,-118.45 406.92,-116 399.92,-113.55 399.92,-118.45"/>
</g>
<!-- course__MATH151 -->
<g id="node3" class="node">
<title>course__MATH151</title>
<g id="a_node3"><a xlink:href="../../../courses/MATH151.html" xlink:title="MATH151: Finite Mathematics" target="_top">
<path fill="#dfe3f4" stroke="#7e8d96" d="M219,-36C219,-36 184,-36 184,-36 178,-36 172,-30 172,-24 172,-24 172,-12 172,-12 172,-6 178,0 184,0 184,0 219,0 219,0 225,0 231,-6 231,-12 231,-12 231,-24 231,-24 231,-30 225,-36 219,-36"/>
<text text-anchor="middle" x="201.5" y="-15.8" font-family="Avenir Next" font-size="9.00" fill="#41515b">MATH151</text>
</a>
</g>
</g>
<!-- course__MATH151&#45;&gt;choice_MATH211_0 -->
<g id="edge5" class="edge">
<title>course__MATH151&#45;&gt;choice_MATH211_0</title>
<path fill="none" stroke="#7a8389" d="M231.05,-28.38C247.45,-34.34 268.1,-41.85 285.17,-48.06"/>
<polygon fill="#7a8389" stroke="#7a8389" points="284.34,-50.37 291.75,-50.46 286.01,-45.76 284.34,-50.37"/>
</g>
<!-- course__MATH204 -->
<g id="node6" class="node">
<title>course__MATH204</title>
<g id="a_node6"><a xlink:href="../../../courses/MATH204.html" xlink:title="MATH204: Calculus IV" target="_top">
<path fill="#dfe3f4" stroke="#1b2730" stroke-width="1.6" d="M630,-134C630,-134 591,-134 591,-134 585,-134 579,-128 579,-122 579,-122 579,-110 579,-110 579,-104 585,-98 591,-98 591,-98 630,-98 630,-98 636,-98 642,-104 642,-110 642,-110 642,-122 642,-122 642,-128 636,-134 630,-134"/>
<text text-anchor="middle" x="610.5" y="-113.5" font-family="Avenir Next" font-size="10.00" fill="#17232b">MATH204</text>
</a>
</g>
</g>
<!-- course__MATH200&#45;&gt;course__MATH204 -->
<g id="edge3" class="edge">
<title>course__MATH200&#45;&gt;course__MATH204</title>
<path fill="none" stroke="#5d6972" stroke-width="1.2" d="M518.28,-116C535.96,-116 555.17,-116 571.38,-116"/>
<polygon fill="#5d6972" stroke="#5d6972" stroke-width="1.2" points="571.6,-118.45 578.6,-116 571.6,-113.55 571.6,-118.45"/>
</g>
<!-- course__MATH211 -->
<g id="node5" class="node">
<title>course__MATH211</title>
<g id="a_node5"><a xlink:href="../../../courses/MATH211.html" xlink:title="MATH211: Matrix Algebra I" target="_top">
<path fill="#dfe3f4" stroke="#7e8d96" d="M480,-78C480,-78 445,-78 445,-78 439,-78 433,-72 433,-66 433,-66 433,-54 433,-54 433,-48 439,-42 445,-42 445,-42 480,-42 480,-42 486,-42 492,-48 492,-54 492,-54 492,-66 492,-66 492,-72 486,-78 480,-78"/>
<text text-anchor="middle" x="462.5" y="-57.8" font-family="Avenir Next" font-size="9.00" fill="#41515b">MATH211</text>
</a>
</g>
</g>
<!-- course__MATH311 -->
<g id="node7" class="node">
<title>course__MATH311</title>
<g id="a_node7"><a xlink:href="../../../courses/MATH311.html" xlink:title="MATH311: Linear Algebra" target="_top">
<path fill="#dfe3f4" stroke="#1b2730" stroke-width="1.6" d="M630,-78C630,-78 591,-78 591,-78 585,-78 579,-72 579,-66 579,-66 579,-54 579,-54 579,-48 585,-42 591,-42 591,-42 630,-42 630,-42 636,-42 642,-48 642,-54 642,-54 642,-66 642,-66 642,-72 636,-78 630,-78"/>
<text text-anchor="middle" x="610.5" y="-57.5" font-family="Avenir Next" font-size="10.00" fill="#17232b">MATH311</text>
</a>
</g>
</g>
<!-- course__MATH211&#45;&gt;course__MATH311 -->
<g id="edge7" class="edge">
<title>course__MATH211&#45;&gt;course__MATH311</title>
<path fill="none" stroke="#5d6972" stroke-width="1.2" d="M492.34,-60C515.11,-60 547.06,-60 571.84,-60"/>
<polygon fill="#5d6972" stroke="#5d6972" stroke-width="1.2" points="571.95,-62.45 578.95,-60 571.95,-57.55 571.95,-62.45"/>
</g>
<!-- course__MATH436 -->
<g id="node8" class="node">
<title>course__MATH436</title>
<g id="a_node8"><a xlink:href="../../../courses/MATH436.html" xlink:title="MATH436: Calculus on Manifolds" target="_top">
<path fill="#dfe3f4" stroke="#1f4f66" stroke-width="2" d="M815,-106C815,-106 715,-106 715,-106 709,-106 703,-100 703,-94 703,-94 703,-82 703,-82 703,-76 709,-70 715,-70 715,-70 815,-70 815,-70 821,-70 827,-76 827,-82 827,-82 827,-94 827,-94 827,-100 821,-106 815,-106"/>
<text text-anchor="middle" x="765" y="-91" font-family="Avenir Next" font-size="10.00" fill="#17232b">MATH436</text>
<text text-anchor="middle" x="765" y="-80" font-family="Avenir Next" font-size="10.00" fill="#17232b">Calculus on Manifolds</text>
</a>
</g>
</g>
<!-- course__MATH204&#45;&gt;course__MATH436 -->
<g id="edge9" class="edge">
<title>course__MATH204&#45;&gt;course__MATH436</title>
<path fill="none" stroke="#5d6972" stroke-width="1.2" d="M642.36,-110.33C657.73,-107.51 676.96,-103.98 695.57,-100.56"/>
<polygon fill="#5d6972" stroke="#5d6972" stroke-width="1.2" points="696.49,-102.89 702.93,-99.21 695.61,-98.07 696.49,-102.89"/>
</g>
<!-- course__MATH311&#45;&gt;course__MATH436 -->
<g id="edge8" class="edge">
<title>course__MATH311&#45;&gt;course__MATH436</title>
<path fill="none" stroke="#5d6972" stroke-width="1.2" d="M642.36,-65.67C657.73,-68.49 676.96,-72.02 695.57,-75.44"/>
<polygon fill="#5d6972" stroke="#5d6972" stroke-width="1.2" points="695.61,-77.93 702.93,-76.79 696.49,-73.11 695.61,-77.93"/>
</g>
<!-- choice_MATH211_0&#45;&gt;course__MATH211 -->
<g id="edge6" class="edge">
<title>choice_MATH211_0&#45;&gt;course__MATH211</title>
<path fill="none" stroke="#5d6972" stroke-width="1.2" d="M346.28,-60C368.69,-60 401.1,-60 425.84,-60"/>
<polygon fill="#5d6972" stroke="#5d6972" stroke-width="1.2" points="425.93,-62.45 432.93,-60 425.93,-57.55 425.93,-62.45"/>
</g>
</g>
</svg>
