<?xml version="1.0" encoding="UTF-8" standalone="no"?>
<!DOCTYPE svg PUBLIC "-//W3C//DTD SVG 1.1//EN"
 "http://www.w3.org/Graphics/SVG/1.1/DTD/svg11.dtd">
<!-- Generated by graphviz version 2.43.0 (0)
 -->
<!-- Title: MATH442 Pages: 1 -->
<svg width="1314pt" height="212pt"
 viewBox="0.00 0.00 1314.20 212.20" xmlns="http://www.w3.org/2000/svg" xmlns:xlink="http://www.w3.org/1999/xlink">
<g id="graph0" class="graph" transform="scale(1 1) rotate(0) translate(21.6 190.6)">
<title>MATH442</title>
<!-- course__MATH100 -->
<g id="node1" class="node">
<title>course__MATH100</title>
<g id="a_node1"><a xlink:href="../../../courses/MATH100.html" xlink:title="Equivalent or cross&#45;listed: MATH100: Calculus I | MATH102: Calculus for Students in the Social and Biological Sciences | MATH109: Introduction to Calculus" target="_top">
<path fill="#dfe3f4" stroke="#7e8d96" d="M99,-109C99,-109 12,-109 12,-109 6,-109 0,-103 0,-97 0,-97 0,-85 0,-85 0,-79 6,-73 12,-73 12,-73 99,-73 99,-73 105,-73 111,-79 111,-85 111,-85 111,-97 111,-97 111,-103 105,-109 99,-109"/>
<text text-anchor="middle" x="55.5" y="-93.8" font-family="Avenir Next" font-size="9.00" fill="#41515b">MATH100 / MATH102</text>
<text text-anchor="middle" x="55.5" y="-83.8" font-family="Avenir Next" font-size="9.00" fill="#41515b">MATH109</text>
</a>
</g>
</g>
<!-- course__MATH101 -->
<g id="node2" class="node">
<title>course__MATH101</title>
<g id="a_node2"><a xlink:href="../../../courses/MATH101.html" xlink:title="MATH101: Calculus II" target="_top">
<path fill="#dfe3f4" stroke="#7e8d96" d="M219,-134C219,-134 184,-134 184,-134 178,-134 172,-128 172,-122 172,-122 172,-110 172,-110 172,-104 178,-98 184,-98 184,-98 219,-98 219,-98 225,-98 231,-104 231,-110 231,-110 231,-122 231,-122 231,-128 225,-134 219,-134"/>
<text text-anchor="middle" x="201.5" y="-113.8" font-family="Avenir Next" font-size="9.00" fill="#41515b">MATH101</text>
</a>
</g>
</g>
<!-- course__MATH100&#45;&gt;course__MATH101 -->
<g id="edge1" class="edge">
<title>course__MATH100&#45;&gt;course__MATH101</title>
<path fill="none" stroke="#5d6972" stroke-width="1.2" d="M111.35,-100.52C129.27,-103.63 148.7,-107.01 164.83,-109.81"/>
<polygon fill="#5d6972" stroke="#5d6972" stroke-width="1.2" points="164.67,-112.27 171.99,-111.05 165.51,-107.44 164.67,-112.27"/>
</g>
<!-- choice_MATH211_0 -->
<g id="node10" class="node">
<title>choice_MATH211_0</title>
<path fill="#fff7ee" stroke="#b7793f" stroke-width="1.1" d="M506,-50C506,-50 476,-50 476,-50 470,-50 464,-44 464,-38 464,-38 464,-26 464,-26 464,-20 470,-14 476,-14 476,-14 506,-14 506,-14 512,-14 518,-20 518,-26 518,-26 518,-38 518,-38 518,-44 512,-50 506,-50"/>
<text text-anchor="middle" x="491" y="-29.8" font-family="Avenir Next" font-size="9.00">1 of</text>
</g>
<!-- course__MATH100&#45;&gt;choice_MATH211_0 -->
<g id="edge4" class="edge">
<title>course__MATH100&#45;&gt;choice_MATH211_0</title>
<path fill="none" stroke="#7a8389" d="M111.18,-84.42C179.53,-76.08 300.05,-60.97 403,-46 420.72,-43.42 440.43,-40.28 456.6,-37.62"/>
<polygon fill="#7a8389" stroke="#7a8389" points="457.26,-39.99 463.76,-36.44 456.46,-35.16 457.26,-39.99"/>
</g>
<!-- course__MATH200 -->
<g id="node4" class="node">
<title>course__MATH200</title>
<g id="a_node4"><a xlink:href="../../../courses/MATH200.html" xlink:title="Equivalent or cross&#45;listed: MATH200: Calculus III | MATH202: Intermediate Calculus for CSC and EOS" target="_top">
<path fill="#dfe3f4" stroke="#7e8d96" d="M391,-134C391,-134 304,-134 304,-134 298,-134 292,-128 292,-122 292,-122 292,-110 292,-110 292,-104 298,-98 304,-98 304,-98 391,-98 391,-98 397,-98 403,-104 403,-110 403,-110 403,-122 403,-122 403,-128 397,-134 391,-134"/>
<text text-anchor="middle" x="347.5" y="-113.8" font-family="Avenir Next" font-size="9.00" fill="#41515b">MATH200 / MATH202</text>
</a>
</g>
</g>
<!-- course__MATH101&#45;&gt;course__MATH200 -->
<g id="edge2" class="edge">
<title>course__MATH101&#45;&gt;course__MATH200</title>
<path fill="none" stroke="#5d6972" stroke-width="1.2" d="M231.29,-116C246.58,-116 266,-116 284.51,-116"/>
<polygon fill="#5d6972" stroke="#5d6972" stroke-width="1.2" points="284.82,-118.45 291.82,-116 284.82,-113.55 284.82,-118.45"/>
</g>
<!-- course__MATH151 -->
<g id="node3" class="node">
<title>course__MATH151</title>
<g id="a_node3"><a xlink:href="../../../courses/MATH151.html" xlink:title="MATH151: Finite Mathematics" target="_top">
<path fill="#dfe3f4" stroke="#7e8d96" d="M365,-36C365,-36 330,-36 330,-36 324,-36 318,-30 318,-24 318,-24 318,-12 318,-12 318,-6 324,0 330,0 330,0 365,0 365,0 371,0 377,-6 377,-12 377,-12 377,-24 377,-24 377,-30 371,-36 365,-36"/>
<text text-anchor="middle" x="347.5" y="-15.8" font-family="Avenir Next" font-size="9.00" fill="#41515b">MATH151</text>
</a>
</g>
</g>
<!-- course__MATH151&#45;&gt;choice_MATH211_0 -->
<g id="edge5" class="edge">
<title>course__MATH151&#45;&gt;choice_MATH211_0</title>
<path fill="none" stroke="#7a8389" d="M377.13,-20.83C400.11,-23.11 432.41,-26.3 456.58,-28.69"/>
<polygon fill="#7a8389" stroke="#7a8389" points="456.59,-31.16 463.79,-29.41 457.07,-26.28 456.59,-31.16"/>
</g>
<!-- course__MATH204 -->
<g id="node5" class="node">
<title>course__MATH204</title>
<g id="a_node5"><a xlink:href="../../../courses/MATH204.html" xlink:title="MATH204: Calculus IV" target="_top">
<path fill="#dfe3f4" stroke="#7e8d96" d="M626,-120C626,-120 591,-120 591,-120 585,-120 579,-114 579,-108 579,-108 579,-96 579,-96 579,-90 585,-84 591,-84 591,-84 626,-84 626,-84 632,-84 638,-90 638,-96 638,-96 638,-108 638,-108 638,-114 632,-120 626,-120"/>
<text text-anchor="middle" x="608.5" y="-99.8" font-family="Avenir Next" font-size="9.00" fill="#41515b">MATH204</text>
</a>
</g>
</g>
<!-- course__MATH200&#45;&gt;course__MATH204 -->
<g id="edge3" class="edge">
<title>course__MATH200&#45;&gt;course__MATH204</title>
<path fill="none" stroke="#5d6972" stroke-width="1.2" d="M403.11,-113.05C453.9,-110.3 528.1,-106.29 571.73,-103.93"/>
<polygon fill="#5d6972" stroke="#5d6972" stroke-width="1.2" points="572.13,-106.37 578.98,-103.54 571.86,-101.47 572.13,-106.37"/>
</g>
<!-- choice_MATH342_0_1 -->
<g id="node11" class="node">
<title>choice_MATH342_0_1</title>
<path fill="#fff7ee" stroke="#b7793f" stroke-width="1.1" d="M741,-169C741,-169 711,-169 711,-169 705,-169 699,-163 699,-157 699,-157 699,-145 699,-145 699,-139 705,-133 711,-133 711,-133 741,-133 741,-133 747,-133 753,-139 753,-145 753,-145 753,-157 753,-157 753,-163 747,-169 741,-169"/>
<text text-anchor="middle" x="726" y="-148.8" font-family="Avenir Next" font-size="9.00">1 of</text>
</g>
<!-- course__MATH200&#45;&gt;choice_MATH342_0_1 -->
<g id="edge9" class="edge">
<title>course__MATH200&#45;&gt;choice_MATH342_0_1</title>
<path fill="none" stroke="#7a8389" d="M403.25,-121.09C482.39,-128.45 626.39,-141.83 691.47,-147.88"/>
<polygon fill="#7a8389" stroke="#7a8389" points="691.44,-150.34 698.64,-148.55 691.89,-145.46 691.44,-150.34"/>
</g>
<!-- course__MATH341 -->
<g id="node7" class="node">
<title>course__MATH341</title>
<g id="a_node7"><a xlink:href="../../../courses/MATH341.html" xlink:title="MATH341: Nonlinear dynamics and chaos" target="_top">
<path fill="#dfe3f4" stroke="#1b2730" stroke-width="1.6" d="M865,-74C865,-74 826,-74 826,-74 820,-74 814,-68 814,-62 814,-62 814,-50 814,-50 814,-44 820,-38 826,-38 826,-38 865,-38 865,-38 871,-38 877,-44 877,-50 877,-50 877,-62 877,-62 877,-68 871,-74 865,-74"/>
<text text-anchor="middle" x="845.5" y="-53.5" font-family="Avenir Next" font-size="10.00" fill="#17232b">MATH341</text>
</a>
</g>
</g>
<!-- course__MATH204&#45;&gt;course__MATH341 -->
<g id="edge8" class="edge">
<title>course__MATH204&#45;&gt;course__MATH341</title>
<path fill="none" stroke="#5d6972" stroke-width="1.2" d="M638.32,-96.36C680.75,-88.05 760.08,-72.53 807,-63.34"/>
<polygon fill="#5d6972" stroke="#5d6972" stroke-width="1.2" points="807.56,-65.73 813.96,-61.98 806.62,-60.92 807.56,-65.73"/>
</g>
<!-- course__MATH204&#45;&gt;choice_MATH342_0_1 -->
<g id="edge10" class="edge">
<title>course__MATH204&#45;&gt;choice_MATH342_0_1</title>
<path fill="none" stroke="#7a8389" d="M638.05,-114.11C654.45,-121.07 675.1,-129.83 692.17,-137.07"/>
<polygon fill="#7a8389" stroke="#7a8389" points="691.35,-139.39 698.75,-139.86 693.27,-134.88 691.35,-139.39"/>
</g>
<!-- course__MATH211 -->
<g id="node6" class="node">
<title>course__MATH211</title>
<g id="a_node6"><a xlink:href="../../../courses/MATH211.html" xlink:title="MATH211: Matrix Algebra I" target="_top">
<path fill="#dfe3f4" stroke="#7e8d96" d="M626,-50C626,-50 591,-50 591,-50 585,-50 579,-44 579,-38 579,-38 579,-26 579,-26 579,-20 585,-14 591,-14 591,-14 626,-14 626,-14 632,-14 638,-20 638,-26 638,-26 638,-38 638,-38 638,-44 632,-50 626,-50"/>
<text text-anchor="middle" x="608.5" y="-29.8" font-family="Avenir Next" font-size="9.00" fill="#41515b">MATH211</text>
</a>
</g>
</g>
<!-- course__MATH211&#45;&gt;course__MATH341 -->
<g id="edge7" class="edge">
<title>course__MATH211&#45;&gt;course__MATH341</title>
<path fill="none" stroke="#5d6972" stroke-width="1.2" d="M638.13,-34C667.12,-36.11 713.23,-39.73 753,-44 770.54,-45.88 789.93,-48.37 806.32,-50.59"/>
<polygon fill="#5d6972" stroke="#5d6972" stroke-width="1.2" points="806.36,-53.06 813.63,-51.58 807.02,-48.21 806.36,-53.06"/>
</g>
<!-- course__MATH342 -->
<g id="node8" class="node">
<title>course__MATH342</title>
<g id="a_node8"><a xlink:href="../../../courses/MATH342.html" xlink:title="MATH342: Intermediate Ordinary Differential Equations" target="_top">
<path fill="#dfe3f4" stroke="#1b2730" stroke-width="1.6" d="M865,-130C865,-130 826,-130 826,-130 820,-130 814,-124 814,-118 814,-118 814,-106 814,-106 814,-100 820,-94 826,-94 826,-94 865,-94 865,-94 871,-94 877,-100 877,-106 877,-106 877,-118 877,-118 877,-124 871,-130 865,-130"/>
<text text-anchor="middle" x="845.5" y="-109.5" font-family="Avenir Next" font-size="10.00" fill="#17232b">MATH342</text>
</a>
</g>
</g>
<!-- course__MATH211&#45;&gt;course__MATH342 -->
<g id="edge11" class="edge">
<title>course__MATH211&#45;&gt;course__MATH342</title>
<path fill="none" stroke="#5d6972" stroke-width="1.2" d="M638.32,-41.81C680.84,-56.28 760.4,-83.37 807.29,-99.33"/>
<polygon fill="#5d6972" stroke="#5d6972" stroke-width="1.2" points="806.54,-101.67 813.96,-101.6 808.12,-97.03 806.54,-101.67"/>
</g>
<!-- choice_MATH442_0_0_1 -->
<g id="node12" class="node">
<title>choice_MATH442_0_0_1</title>
<path fill="#fff7ee" stroke="#b7793f" stroke-width="1.1" d="M980,-102C980,-102 950,-102 950,-102 944,-102 938,-96 938,-90 938,-90 938,-78 938,-78 938,-72 944,-66 950,-66 950,-66 980,-66 980,-66 986,-66 992,-72 992,-78 992,-78 992,-90 992,-90 992,-96 986,-102 980,-102"/>
<text text-anchor="middle" x="965" y="-81.8" font-family="Avenir Next" font-size="9.00">1 of</text>
</g>
<!-- course__MATH341&#45;&gt;choice_MATH442_0_0_1 -->
<g id="edge13" class="edge">
<title>course__MATH341&#45;&gt;choice_MATH442_0_0_1</title>
<path fill="none" stroke="#7a8389" d="M877.07,-63.28C893.61,-67.23 914.05,-72.1 930.96,-76.13"/>
<polygon fill="#7a8389" stroke="#7a8389" points="930.59,-78.56 937.97,-77.8 931.73,-73.79 930.59,-78.56"/>
</g>
<!-- course__MATH342&#45;&gt;choice_MATH442_0_0_1 -->
<g id="edge14" class="edge">
<title>course__MATH342&#45;&gt;choice_MATH442_0_0_1</title>
<path fill="none" stroke="#7a8389" d="M877.07,-104.72C893.61,-100.77 914.05,-95.9 930.96,-91.87"/>
<polygon fill="#7a8389" stroke="#7a8389" points="931.73,-94.21 937.97,-90.2 930.59,-89.44 931.73,-94.21"/>
</g>
<!-- course__MATH442 -->
<g id="node9" class="node">
<title>course__MATH442</title>
<g id="a_node9"><a xlink:href="../../../courses/MATH442.html" xlink:title="MATH442: Advanced Ordinary Differential Equations" target="_top">
<path fill="#dfe3f4" stroke="#1f4f66" stroke-width="2" d="M1259,-102C1259,-102 1065,-102 1065,-102 1059,-102 1053,-96 1053,-90 1053,-90 1053,-78 1053,-78 1053,-72 1059,-66 1065,-66 1065,-66 1259,-66 1259,-66 1265,-66 1271,-72 1271,-78 1271,-78 1271,-90 1271,-90 1271,-96 1265,-102 1259,-102"/>
<text text-anchor="middle" x="1162" y="-87" font-family="Avenir Next" font-size="10.00" fill="#17232b">MATH442</text>
<text text-anchor="middle" x="1162" y="-76" font-family="Avenir Next" font-size="10.00" fill="#17232b">Advanced Ordinary Differential Equations</text>
</a>
</g>
</g>
<!-- choice_MATH211_0&#45;&gt;course__MATH211 -->
<g id="edge6" class="edge">
<title>choice_MATH211_0&#45;&gt;course__MATH211</title>
<path fill="none" stroke="#5d6972" stroke-width="1.2" d="M518.21,-32C534.05,-32 554.46,-32 571.76,-32"/>
<polygon fill="#5d6972" stroke="#5d6972" stroke-width="1.2" points="571.97,-34.45 578.97,-32 571.97,-29.55 571.97,-34.45"/>
</g>
<!-- choice_MATH342_0_1&#45;&gt;course__MATH342 -->
<g id="edge12" class="edge">
<title>choice_MATH342_0_1&#45;&gt;course__MATH342</title>
<path fill="none" stroke="#5d6972" stroke-width="1.2" d="M753.08,-142.34C768.95,-137.07 789.5,-130.26 807.09,-124.42"/>
<polygon fill="#5d6972" stroke="#5d6972" stroke-width="1.2" points="808.05,-126.68 813.92,-122.15 806.51,-122.03 808.05,-126.68"/>
</g>
<!-- choice_MATH442_0_0_1&#45;&gt;course__MATH442 -->
<g id="edge15" class="edge">
<title>choice_MATH442_0_0_1&#45;&gt;course__MATH442</title>
<path fill="none" stroke="#5d6972" stroke-width="1.2" d="M992.3,-84C1006.71,-84 1025.69,-84 1045.71,-84"/>
<polygon fill="#5d6972" stroke="#5d6972" stroke-width="1.2" points="1045.82,-86.45 1052.82,-84 1045.82,-81.55 1045.82,-86.45"/>
</g>
</g>
</svg>
