<?xml version="1.0" encoding="UTF-8" standalone="no"?>
<!DOCTYPE svg PUBLIC "-//W3C//DTD SVG 1.1//EN"
 "http://www.w3.org/Graphics/SVG/1.1/DTD/svg11.dtd">
<!-- Generated by graphviz version 2.43.0 (0)
 -->
<!-- Title: MATH211 Pages: 1 -->
<svg width="1133pt" height="793pt"
 viewBox="0.00 0.00 1133.20 793.20" xmlns="http://www.w3.org/2000/svg" xmlns:xlink="http://www.w3.org/1999/xlink">
<g id="graph0" class="graph" transform="scale(1 1) rotate(0) translate(21.6 771.6)">
<title>MATH211</title>
<!-- course__MATH100 -->
<g id="node1" class="node">
<title>course__MATH100</title>
<g id="a_node1"><a xlink:href="../../../courses/MATH100.html" xlink:title="Equivalent or cross&#45;listed: MATH100: Calculus I | MATH102: Calculus for Students in the Social and Biological Sciences | MATH109: Introduction to Calculus" target="_top">
<path fill="#dfe3f4" stroke="#1b2730" stroke-width="1.6" d="M107,-316C107,-316 12,-316 12,-316 6,-316 0,-310 0,-304 0,-304 0,-292 0,-292 0,-286 6,-280 12,-280 12,-280 107,-280 107,-280 113,-280 119,-286 119,-292 119,-292 119,-304 119,-304 119,-310 113,-316 107,-316"/>
<text text-anchor="middle" x="59.5" y="-301" font-family="Avenir Next" font-size="10.00" fill="#17232b">MATH100 / MATH102</text>
<text text-anchor="middle" x="59.5" y="-290" font-family="Avenir Next" font-size="10.00" fill="#17232b">MATH109</text>
</a>
</g>
</g>
<!-- choice_MATH211_0 -->
<g id="node28" class="node">
<title>choice_MATH211_0</title>
<path fill="#fff7ee" stroke="#b7793f" stroke-width="1.1" d="M222,-288C222,-288 192,-288 192,-288 186,-288 180,-282 180,-276 180,-276 180,-264 180,-264 180,-258 186,-252 192,-252 192,-252 222,-252 222,-252 228,-252 234,-258 234,-264 234,-264 234,-276 234,-276 234,-282 228,-288 222,-288"/>
<text text-anchor="middle" x="207" y="-267.8" font-family="Avenir Next" font-size="9.00">1 of</text>
</g>
<!-- course__MATH100&#45;&gt;choice_MATH211_0 -->
<g id="edge6" class="edge">
<title>course__MATH100&#45;&gt;choice_MATH211_0</title>
<path fill="none" stroke="#7a8389" d="M119.26,-286.69C137.45,-283.19 156.86,-279.46 172.69,-276.41"/>
<polygon fill="#7a8389" stroke="#7a8389" points="173.29,-278.79 179.7,-275.06 172.36,-273.98 173.29,-278.79"/>
</g>
<!-- course__MATH151 -->
<g id="node2" class="node">
<title>course__MATH151</title>
<g id="a_node2"><a xlink:href="../../../courses/MATH151.html" xlink:title="MATH151: Finite Mathematics" target="_top">
<path fill="#dfe3f4" stroke="#1b2730" stroke-width="1.6" d="M79,-260C79,-260 40,-260 40,-260 34,-260 28,-254 28,-248 28,-248 28,-236 28,-236 28,-230 34,-224 40,-224 40,-224 79,-224 79,-224 85,-224 91,-230 91,-236 91,-236 91,-248 91,-248 91,-254 85,-260 79,-260"/>
<text text-anchor="middle" x="59.5" y="-239.5" font-family="Avenir Next" font-size="10.00" fill="#17232b">MATH151</text>
</a>
</g>
</g>
<!-- course__MATH151&#45;&gt;choice_MATH211_0 -->
<g id="edge7" class="edge">
<title>course__MATH151&#45;&gt;choice_MATH211_0</title>
<path fill="none" stroke="#7a8389" d="M91,-247.87C114.97,-252.48 148.3,-258.9 172.91,-263.63"/>
<polygon fill="#7a8389" stroke="#7a8389" points="172.59,-266.06 179.92,-264.98 173.51,-261.25 172.59,-266.06"/>
</g>
<!-- course__MATH211 -->
<g id="node3" class="node">
<title>course__MATH211</title>
<g id="a_node3"><a xlink:href="../../../courses/MATH211.html" xlink:title="MATH211: Matrix Algebra I" target="_top">
<path fill="#dfe3f4" stroke="#1f4f66" stroke-width="2" d="M378,-288C378,-288 307,-288 307,-288 301,-288 295,-282 295,-276 295,-276 295,-264 295,-264 295,-258 301,-252 307,-252 307,-252 378,-252 378,-252 384,-252 390,-258 390,-264 390,-264 390,-276 390,-276 390,-282 384,-288 378,-288"/>
<text text-anchor="middle" x="342.5" y="-273" font-family="Avenir Next" font-size="10.00" fill="#17232b">MATH211</text>
<text text-anchor="middle" x="342.5" y="-262" font-family="Avenir Next" font-size="10.00" fill="#17232b">Matrix Algebra I</text>
</a>
</g>
</g>
<!-- course__MATH248 -->
<g id="node4" class="node">
<title>course__MATH248</title>
<g id="a_node4"><a xlink:href="../../../courses/MATH248.html" xlink:title="Equivalent or cross&#45;listed: MATH248: Computer Assisted Mathematics | PHYS248: Computer Assisted Physics" target="_top">
<path fill="#dfe3f4" stroke="#1b2730" stroke-width="1.6" d="M556.5,-589C556.5,-589 464.5,-589 464.5,-589 458.5,-589 452.5,-583 452.5,-577 452.5,-577 452.5,-565 452.5,-565 452.5,-559 458.5,-553 464.5,-553 464.5,-553 556.5,-553 556.5,-553 562.5,-553 568.5,-559 568.5,-565 568.5,-565 568.5,-577 568.5,-577 568.5,-583 562.5,-589 556.5,-589"/>
<text text-anchor="middle" x="510.5" y="-568.5" font-family="Avenir Next" font-size="10.00" fill="#17232b">MATH248 / PHYS248</text>
</a>
</g>
</g>
<!-- course__MATH211&#45;&gt;course__MATH248 -->
<g id="edge9" class="edge">
<title>course__MATH211&#45;&gt;course__MATH248</title>
<path fill="none" stroke="#5d6972" stroke-width="1.2" d="M353.63,-288.38C382.24,-340.24 463.61,-487.79 495.98,-546.49"/>
<polygon fill="#5d6972" stroke="#5d6972" stroke-width="1.2" points="493.97,-547.92 499.5,-552.86 498.26,-545.55 493.97,-547.92"/>
</g>
<!-- course__MATH311 -->
<g id="node5" class="node">
<title>course__MATH311</title>
<g id="a_node5"><a xlink:href="../../../courses/MATH311.html" xlink:title="MATH311: Linear Algebra" target="_top">
<path fill="#dfe3f4" stroke="#1b2730" stroke-width="1.6" d="M530,-697C530,-697 491,-697 491,-697 485,-697 479,-691 479,-685 479,-685 479,-673 479,-673 479,-667 485,-661 491,-661 491,-661 530,-661 530,-661 536,-661 542,-667 542,-673 542,-673 542,-685 542,-685 542,-691 536,-697 530,-697"/>
<text text-anchor="middle" x="510.5" y="-676.5" font-family="Avenir Next" font-size="10.00" fill="#17232b">MATH311</text>
</a>
</g>
</g>
<!-- course__MATH211&#45;&gt;course__MATH311 -->
<g id="edge10" class="edge">
<title>course__MATH211&#45;&gt;course__MATH311</title>
<path fill="none" stroke="#5d6972" stroke-width="1.2" d="M347.33,-288.26C358.49,-339.39 393.86,-487.5 451,-599 461.32,-619.14 476.48,-639.71 488.78,-654.94"/>
<polygon fill="#5d6972" stroke="#5d6972" stroke-width="1.2" points="487.18,-656.85 493.51,-660.71 490.97,-653.75 487.18,-656.85"/>
</g>
<!-- course__MATH341 -->
<g id="node6" class="node">
<title>course__MATH341</title>
<g id="a_node6"><a xlink:href="../../../courses/MATH341.html" xlink:title="MATH341: Nonlinear dynamics and chaos" target="_top">
<path fill="#dfe3f4" stroke="#1b2730" stroke-width="1.6" d="M530,-453C530,-453 491,-453 491,-453 485,-453 479,-447 479,-441 479,-441 479,-429 479,-429 479,-423 485,-417 491,-417 491,-417 530,-417 530,-417 536,-417 542,-423 542,-429 542,-429 542,-441 542,-441 542,-447 536,-453 530,-453"/>
<text text-anchor="middle" x="510.5" y="-432.5" font-family="Avenir Next" font-size="10.00" fill="#17232b">MATH341</text>
</a>
</g>
</g>
<!-- course__MATH211&#45;&gt;course__MATH341 -->
<g id="edge11" class="edge">
<title>course__MATH211&#45;&gt;course__MATH341</title>
<path fill="none" stroke="#5d6972" stroke-width="1.2" d="M360.25,-288.22C381.09,-310.7 417.95,-349.88 451,-382 461.46,-392.17 473.34,-403.04 483.64,-412.28"/>
<polygon fill="#5d6972" stroke="#5d6972" stroke-width="1.2" points="482.02,-414.11 488.87,-416.95 485.28,-410.46 482.02,-414.11"/>
</g>
<!-- course__MATH342 -->
<g id="node7" class="node">
<title>course__MATH342</title>
<g id="a_node7"><a xlink:href="../../../courses/MATH342.html" xlink:title="MATH342: Intermediate Ordinary Differential Equations" target="_top">
<path fill="#dfe3f4" stroke="#1b2730" stroke-width="1.6" d="M530,-372C530,-372 491,-372 491,-372 485,-372 479,-366 479,-360 479,-360 479,-348 479,-348 479,-342 485,-336 491,-336 491,-336 530,-336 530,-336 536,-336 542,-342 542,-348 542,-348 542,-360 542,-360 542,-366 536,-372 530,-372"/>
<text text-anchor="middle" x="510.5" y="-351.5" font-family="Avenir Next" font-size="10.00" fill="#17232b">MATH342</text>
</a>
</g>
</g>
<!-- course__MATH211&#45;&gt;course__MATH342 -->
<g id="edge12" class="edge">
<title>course__MATH211&#45;&gt;course__MATH342</title>
<path fill="none" stroke="#5d6972" stroke-width="1.2" d="M377.72,-288.2C398.77,-299.3 426.34,-313.68 451,-326 457.86,-329.43 465.22,-333.02 472.32,-336.43"/>
<polygon fill="#5d6972" stroke="#5d6972" stroke-width="1.2" points="471.37,-338.7 478.74,-339.52 473.49,-334.28 471.37,-338.7"/>
</g>
<!-- course__MATH346 -->
<g id="node8" class="node">
<title>course__MATH346</title>
<g id="a_node8"><a xlink:href="../../../courses/MATH346.html" xlink:title="MATH346: Introduction to Partial Differential Equations" target="_top">
<path fill="#dfe3f4" stroke="#1b2730" stroke-width="1.6" d="M530,-316C530,-316 491,-316 491,-316 485,-316 479,-310 479,-304 479,-304 479,-292 479,-292 479,-286 485,-280 491,-280 491,-280 530,-280 530,-280 536,-280 542,-286 542,-292 542,-292 542,-304 542,-304 542,-310 536,-316 530,-316"/>
<text text-anchor="middle" x="510.5" y="-295.5" font-family="Avenir Next" font-size="10.00" fill="#17232b">MATH346</text>
</a>
</g>
</g>
<!-- course__MATH211&#45;&gt;course__MATH346 -->
<g id="edge13" class="edge">
<title>course__MATH211&#45;&gt;course__MATH346</title>
<path fill="none" stroke="#5d6972" stroke-width="1.2" d="M390.18,-277.87C416.02,-282.23 447.7,-287.58 471.92,-291.66"/>
<polygon fill="#5d6972" stroke="#5d6972" stroke-width="1.2" points="471.56,-294.08 478.87,-292.83 472.37,-289.25 471.56,-294.08"/>
</g>
<!-- course__MATH347 -->
<g id="node9" class="node">
<title>course__MATH347</title>
<g id="a_node9"><a xlink:href="../../../courses/MATH347.html" xlink:title="Equivalent or cross&#45;listed: MATH347: Introduction to Continuous Optimization | MATH492: Topics in Applied Mathematics" target="_top">
<path fill="#dfe3f4" stroke="#1b2730" stroke-width="1.6" d="M558,-260C558,-260 463,-260 463,-260 457,-260 451,-254 451,-248 451,-248 451,-236 451,-236 451,-230 457,-224 463,-224 463,-224 558,-224 558,-224 564,-224 570,-230 570,-236 570,-236 570,-248 570,-248 570,-254 564,-260 558,-260"/>
<text text-anchor="middle" x="510.5" y="-239.5" font-family="Avenir Next" font-size="10.00" fill="#17232b">MATH347 / MATH492</text>
</a>
</g>
</g>
<!-- course__MATH211&#45;&gt;course__MATH347 -->
<g id="edge14" class="edge">
<title>course__MATH211&#45;&gt;course__MATH347</title>
<path fill="none" stroke="#5d6972" stroke-width="1.2" d="M390.18,-262.13C406.77,-259.33 425.78,-256.12 443.67,-253.1"/>
<polygon fill="#5d6972" stroke="#5d6972" stroke-width="1.2" points="444.24,-255.49 450.73,-251.91 443.42,-250.66 444.24,-255.49"/>
</g>
<!-- course__MATH369 -->
<g id="node10" class="node">
<title>course__MATH369</title>
<g id="a_node10"><a xlink:href="../../../courses/MATH369.html" xlink:title="MATH369: Differential Geometry in R3" target="_top">
<path fill="#dfe3f4" stroke="#1b2730" stroke-width="1.6" d="M530,-204C530,-204 491,-204 491,-204 485,-204 479,-198 479,-192 479,-192 479,-180 479,-180 479,-174 485,-168 491,-168 491,-168 530,-168 530,-168 536,-168 542,-174 542,-180 542,-180 542,-192 542,-192 542,-198 536,-204 530,-204"/>
<text text-anchor="middle" x="510.5" y="-183.5" font-family="Avenir Next" font-size="10.00" fill="#17232b">MATH369</text>
</a>
</g>
</g>
<!-- course__MATH211&#45;&gt;course__MATH369 -->
<g id="edge16" class="edge">
<title>course__MATH211&#45;&gt;course__MATH369</title>
<path fill="none" stroke="#5d6972" stroke-width="1.2" d="M377.72,-251.8C398.77,-240.7 426.34,-226.32 451,-214 457.86,-210.57 465.22,-206.98 472.32,-203.57"/>
<polygon fill="#5d6972" stroke="#5d6972" stroke-width="1.2" points="473.49,-205.72 478.74,-200.48 471.37,-201.3 473.49,-205.72"/>
</g>
<!-- course__MATH377 -->
<g id="node11" class="node">
<title>course__MATH377</title>
<g id="a_node11"><a xlink:href="../../../courses/MATH377.html" xlink:title="MATH377: Mathematical Modelling" target="_top">
<path fill="#dfe3f4" stroke="#1b2730" stroke-width="1.6" d="M530,-148C530,-148 491,-148 491,-148 485,-148 479,-142 479,-136 479,-136 479,-124 479,-124 479,-118 485,-112 491,-112 491,-112 530,-112 530,-112 536,-112 542,-118 542,-124 542,-124 542,-136 542,-136 542,-142 536,-148 530,-148"/>
<text text-anchor="middle" x="510.5" y="-127.5" font-family="Avenir Next" font-size="10.00" fill="#17232b">MATH377</text>
</a>
</g>
</g>
<!-- course__MATH211&#45;&gt;course__MATH377 -->
<g id="edge17" class="edge">
<title>course__MATH211&#45;&gt;course__MATH377</title>
<path fill="none" stroke="#5d6972" stroke-width="1.2" d="M357.5,-251.76C376.58,-227.83 412.78,-185.64 451,-158 457.5,-153.3 464.9,-149.05 472.21,-145.36"/>
<polygon fill="#5d6972" stroke="#5d6972" stroke-width="1.2" points="473.64,-147.39 478.87,-142.14 471.5,-142.98 473.64,-147.39"/>
</g>
<!-- course__PHYS325 -->
<g id="node12" class="node">
<title>course__PHYS325</title>
<g id="a_node12"><a xlink:href="../../../courses/PHYS325.html" xlink:title="PHYS325: Optics" target="_top">
<path fill="#efd8cf" stroke="#1b2730" stroke-width="1.6" d="M528.5,-92C528.5,-92 492.5,-92 492.5,-92 486.5,-92 480.5,-86 480.5,-80 480.5,-80 480.5,-68 480.5,-68 480.5,-62 486.5,-56 492.5,-56 492.5,-56 528.5,-56 528.5,-56 534.5,-56 540.5,-62 540.5,-68 540.5,-68 540.5,-80 540.5,-80 540.5,-86 534.5,-92 528.5,-92"/>
<text text-anchor="middle" x="510.5" y="-71.5" font-family="Avenir Next" font-size="10.00" fill="#17232b">PHYS325</text>
</a>
</g>
</g>
<!-- course__MATH211&#45;&gt;course__PHYS325 -->
<g id="edge34" class="edge">
<title>course__MATH211&#45;&gt;course__PHYS325</title>
<path fill="none" stroke="#5d6972" stroke-width="1.2" d="M351.07,-251.74C365.81,-218.14 401.32,-145.92 451,-102 457.59,-96.17 465.61,-91.3 473.56,-87.33"/>
<polygon fill="#5d6972" stroke="#5d6972" stroke-width="1.2" points="474.91,-89.41 480.2,-84.21 472.83,-84.97 474.91,-89.41"/>
</g>
<!-- course__STAT353 -->
<g id="node13" class="node">
<title>course__STAT353</title>
<g id="a_node13"><a xlink:href="../../../courses/STAT353.html" xlink:title="STAT353: Applied Regression Analysis" target="_top">
<path fill="#e6dde9" stroke="#1b2730" stroke-width="1.6" d="M527.5,-36C527.5,-36 493.5,-36 493.5,-36 487.5,-36 481.5,-30 481.5,-24 481.5,-24 481.5,-12 481.5,-12 481.5,-6 487.5,0 493.5,0 493.5,0 527.5,0 527.5,0 533.5,0 539.5,-6 539.5,-12 539.5,-12 539.5,-24 539.5,-24 539.5,-30 533.5,-36 527.5,-36"/>
<text text-anchor="middle" x="510.5" y="-15.5" font-family="Avenir Next" font-size="10.00" fill="#17232b">STAT353</text>
</a>
</g>
</g>
<!-- course__MATH211&#45;&gt;course__STAT353 -->
<g id="edge47" class="edge">
<title>course__MATH211&#45;&gt;course__STAT353</title>
<path fill="none" stroke="#5d6972" stroke-width="1.2" d="M347.76,-251.91C358.37,-210.42 389.66,-107.28 451,-46 457.73,-39.28 466.39,-33.94 474.97,-29.81"/>
<polygon fill="#5d6972" stroke="#5d6972" stroke-width="1.2" points="476.1,-31.99 481.48,-26.89 474.09,-27.52 476.1,-31.99"/>
</g>
<!-- course__EOS460 -->
<g id="node14" class="node">
<title>course__EOS460</title>
<g id="a_node14"><a xlink:href="../../../courses/EOS460.html" xlink:title="EOS460: Earth System Science" target="_top">
<path fill="#d7e9ef" stroke="#7e8d96" d="M793,-694C793,-694 763,-694 763,-694 757,-694 751,-688 751,-682 751,-682 751,-670 751,-670 751,-664 757,-658 763,-658 763,-658 793,-658 793,-658 799,-658 805,-664 805,-670 805,-670 805,-682 805,-682 805,-688 799,-694 793,-694"/>
<text text-anchor="middle" x="778" y="-673.8" font-family="Avenir Next" font-size="9.00" fill="#41515b">EOS460</text>
</a>
</g>
</g>
<!-- course__MATH248&#45;&gt;course__EOS460 -->
<g id="edge5" class="edge">
<title>course__MATH248&#45;&gt;course__EOS460</title>
<path fill="none" stroke="#5d6972" stroke-width="1.2" d="M547.37,-589.13C570.86,-600.66 602.39,-615.54 631,-627 669.14,-642.28 714.1,-656.87 743.95,-666.1"/>
<polygon fill="#5d6972" stroke="#5d6972" stroke-width="1.2" points="743.42,-668.5 750.83,-668.21 744.86,-663.81 743.42,-668.5"/>
</g>
<!-- course__MATH348 -->
<g id="node15" class="node">
<title>course__MATH348</title>
<g id="a_node15"><a xlink:href="../../../courses/MATH348.html" xlink:title="MATH348: Numerical Methods" target="_top">
<path fill="#dfe3f4" stroke="#1b2730" stroke-width="1.6" d="M797.5,-638C797.5,-638 758.5,-638 758.5,-638 752.5,-638 746.5,-632 746.5,-626 746.5,-626 746.5,-614 746.5,-614 746.5,-608 752.5,-602 758.5,-602 758.5,-602 797.5,-602 797.5,-602 803.5,-602 809.5,-608 809.5,-614 809.5,-614 809.5,-626 809.5,-626 809.5,-632 803.5,-638 797.5,-638"/>
<text text-anchor="middle" x="778" y="-617.5" font-family="Avenir Next" font-size="10.00" fill="#17232b">MATH348</text>
</a>
</g>
</g>
<!-- course__MATH248&#45;&gt;course__MATH348 -->
<g id="edge15" class="edge">
<title>course__MATH248&#45;&gt;course__MATH348</title>
<path fill="none" stroke="#5d6972" stroke-width="1.2" d="M561.17,-589.04C582.41,-596.06 607.65,-603.48 631,-608 667.25,-615.02 709.35,-617.93 739,-619.14"/>
<polygon fill="#5d6972" stroke="#5d6972" stroke-width="1.2" points="739.17,-621.6 746.26,-619.42 739.35,-616.71 739.17,-621.6"/>
</g>
<!-- course__PHYS321A -->
<g id="node18" class="node">
<title>course__PHYS321A</title>
<g id="a_node18"><a xlink:href="../../../courses/PHYS321A.html" xlink:title="PHYS321A: Classical Mechanics I" target="_top">
<path fill="#efd8cf" stroke="#7e8d96" d="M798,-484C798,-484 758,-484 758,-484 752,-484 746,-478 746,-472 746,-472 746,-460 746,-460 746,-454 752,-448 758,-448 758,-448 798,-448 798,-448 804,-448 810,-454 810,-460 810,-460 810,-472 810,-472 810,-478 804,-484 798,-484"/>
<text text-anchor="middle" x="778" y="-463.8" font-family="Avenir Next" font-size="9.00" fill="#41515b">PHYS321A</text>
</a>
</g>
</g>
<!-- course__MATH248&#45;&gt;course__PHYS321A -->
<g id="edge23" class="edge">
<title>course__MATH248&#45;&gt;course__PHYS321A</title>
<path fill="none" stroke="#5d6972" stroke-width="1.2" d="M568.71,-580.24C603.81,-583.32 648.81,-582.51 685,-566 719.68,-550.18 747.23,-514.5 762.83,-490.33"/>
<polygon fill="#5d6972" stroke="#5d6972" stroke-width="1.2" points="765.07,-491.37 766.73,-484.15 760.93,-488.76 765.07,-491.37"/>
</g>
<!-- course__PHYS323 -->
<g id="node19" class="node">
<title>course__PHYS323</title>
<g id="a_node19"><a xlink:href="../../../courses/PHYS323.html" xlink:title="PHYS323: Quantum Mechanics I" target="_top">
<path fill="#efd8cf" stroke="#7e8d96" d="M795,-309C795,-309 761,-309 761,-309 755,-309 749,-303 749,-297 749,-297 749,-285 749,-285 749,-279 755,-273 761,-273 761,-273 795,-273 795,-273 801,-273 807,-279 807,-285 807,-285 807,-297 807,-297 807,-303 801,-309 795,-309"/>
<text text-anchor="middle" x="778" y="-288.8" font-family="Avenir Next" font-size="9.00" fill="#41515b">PHYS323</text>
</a>
</g>
</g>
<!-- course__MATH248&#45;&gt;course__PHYS323 -->
<g id="edge30" class="edge">
<title>course__MATH248&#45;&gt;course__PHYS323</title>
<path fill="none" stroke="#5d6972" stroke-width="1.2" d="M558.38,-552.95C603.34,-534.86 666.95,-506.89 685,-487 737.55,-429.11 703.83,-387.83 746,-322 747.62,-319.48 749.47,-317 751.45,-314.6"/>
<polygon fill="#5d6972" stroke="#5d6972" stroke-width="1.2" points="753.42,-316.07 756.24,-309.21 749.76,-312.82 753.42,-316.07"/>
</g>
<!-- course__PHYS326 -->
<g id="node20" class="node">
<title>course__PHYS326</title>
<g id="a_node20"><a xlink:href="../../../courses/PHYS326.html" xlink:title="PHYS326: Electricity and Magnetism" target="_top">
<path fill="#efd8cf" stroke="#7e8d96" d="M795,-368C795,-368 761,-368 761,-368 755,-368 749,-362 749,-356 749,-356 749,-344 749,-344 749,-338 755,-332 761,-332 761,-332 795,-332 795,-332 801,-332 807,-338 807,-344 807,-344 807,-356 807,-356 807,-362 801,-368 795,-368"/>
<text text-anchor="middle" x="778" y="-347.8" font-family="Avenir Next" font-size="9.00" fill="#41515b">PHYS326</text>
</a>
</g>
</g>
<!-- course__MATH248&#45;&gt;course__PHYS326 -->
<g id="edge35" class="edge">
<title>course__MATH248&#45;&gt;course__PHYS326</title>
<path fill="none" stroke="#5d6972" stroke-width="1.2" d="M568.59,-568.09C605.64,-563.43 652.83,-551.92 685,-524 736.87,-478.98 707.92,-439.17 746,-382 747.88,-379.17 750.03,-376.37 752.3,-373.67"/>
<polygon fill="#5d6972" stroke="#5d6972" stroke-width="1.2" points="754.26,-375.16 757.08,-368.3 750.6,-371.9 754.26,-375.16"/>
</g>
<!-- course__MATH436 -->
<g id="node16" class="node">
<title>course__MATH436</title>
<g id="a_node16"><a xlink:href="../../../courses/MATH436.html" xlink:title="MATH436: Calculus on Manifolds" target="_top">
<path fill="#dfe3f4" stroke="#7e8d96" d="M795.5,-750C795.5,-750 760.5,-750 760.5,-750 754.5,-750 748.5,-744 748.5,-738 748.5,-738 748.5,-726 748.5,-726 748.5,-720 754.5,-714 760.5,-714 760.5,-714 795.5,-714 795.5,-714 801.5,-714 807.5,-720 807.5,-726 807.5,-726 807.5,-738 807.5,-738 807.5,-744 801.5,-750 795.5,-750"/>
<text text-anchor="middle" x="778" y="-729.8" font-family="Avenir Next" font-size="9.00" fill="#41515b">MATH436</text>
</a>
</g>
</g>
<!-- course__MATH311&#45;&gt;course__MATH436 -->
<g id="edge18" class="edge">
<title>course__MATH311&#45;&gt;course__MATH436</title>
<path fill="none" stroke="#5d6972" stroke-width="1.2" d="M542.22,-685.13C591.62,-694.99 688.52,-714.34 741.06,-724.83"/>
<polygon fill="#5d6972" stroke="#5d6972" stroke-width="1.2" points="740.83,-727.28 748.17,-726.25 741.79,-722.47 740.83,-727.28"/>
</g>
<!-- choice_MATH442_0_0_1 -->
<g id="node29" class="node">
<title>choice_MATH442_0_0_1</title>
<path fill="#fff7ee" stroke="#b7793f" stroke-width="1.1" d="M673,-477C673,-477 643,-477 643,-477 637,-477 631,-471 631,-465 631,-465 631,-453 631,-453 631,-447 637,-441 643,-441 643,-441 673,-441 673,-441 679,-441 685,-447 685,-453 685,-453 685,-465 685,-465 685,-471 679,-477 673,-477"/>
<text text-anchor="middle" x="658" y="-456.8" font-family="Avenir Next" font-size="9.00">1 of</text>
</g>
<!-- course__MATH341&#45;&gt;choice_MATH442_0_0_1 -->
<g id="edge19" class="edge">
<title>course__MATH341&#45;&gt;choice_MATH442_0_0_1</title>
<path fill="none" stroke="#7a8389" d="M542,-440.03C565.97,-443.98 599.3,-449.48 623.91,-453.54"/>
<polygon fill="#7a8389" stroke="#7a8389" points="623.62,-455.98 630.92,-454.7 624.41,-451.14 623.62,-455.98"/>
</g>
<!-- course__PHYS321B -->
<g id="node24" class="node">
<title>course__PHYS321B</title>
<g id="a_node24"><a xlink:href="../../../courses/PHYS321B.html" xlink:title="PHYS321B: Classical Mechanics II" target="_top">
<path fill="#efd8cf" stroke="#7e8d96" d="M1058,-218C1058,-218 1018,-218 1018,-218 1012,-218 1006,-212 1006,-206 1006,-206 1006,-194 1006,-194 1006,-188 1012,-182 1018,-182 1018,-182 1058,-182 1058,-182 1064,-182 1070,-188 1070,-194 1070,-194 1070,-206 1070,-206 1070,-212 1064,-218 1058,-218"/>
<text text-anchor="middle" x="1038" y="-197.8" font-family="Avenir Next" font-size="9.00" fill="#41515b">PHYS321B</text>
</a>
</g>
</g>
<!-- course__MATH342&#45;&gt;course__PHYS321B -->
<g id="edge28" class="edge">
<title>course__MATH342&#45;&gt;course__PHYS321B</title>
<path fill="none" stroke="#5d6972" stroke-width="1.2" d="M542.3,-356.69C578.59,-358.47 639.69,-357.01 685,-333 721.46,-313.68 710.47,-283.99 746,-263 827.09,-215.09 940.17,-203.47 998.62,-200.74"/>
<polygon fill="#5d6972" stroke="#5d6972" stroke-width="1.2" points="998.92,-203.18 1005.81,-200.44 998.71,-198.29 998.92,-203.18"/>
</g>
<!-- course__MATH342&#45;&gt;choice_MATH442_0_0_1 -->
<g id="edge20" class="edge">
<title>course__MATH342&#45;&gt;choice_MATH442_0_0_1</title>
<path fill="none" stroke="#7a8389" d="M536.51,-372.05C561.29,-389.93 599.29,-417.35 625.98,-436.61"/>
<polygon fill="#7a8389" stroke="#7a8389" points="624.72,-438.72 631.83,-440.83 627.58,-434.75 624.72,-438.72"/>
</g>
<!-- choice_PHYS321A_1 -->
<g id="node30" class="node">
<title>choice_PHYS321A_1</title>
<path fill="#fff7ee" stroke="#b7793f" stroke-width="1.1" d="M673,-421C673,-421 643,-421 643,-421 637,-421 631,-415 631,-409 631,-409 631,-397 631,-397 631,-391 637,-385 643,-385 643,-385 673,-385 673,-385 679,-385 685,-391 685,-397 685,-397 685,-409 685,-409 685,-415 679,-421 673,-421"/>
<text text-anchor="middle" x="658" y="-400.8" font-family="Avenir Next" font-size="9.00">1 of</text>
</g>
<!-- course__MATH342&#45;&gt;choice_PHYS321A_1 -->
<g id="edge24" class="edge">
<title>course__MATH342&#45;&gt;choice_PHYS321A_1</title>
<path fill="none" stroke="#7a8389" d="M542,-364.27C566.07,-372.38 599.58,-383.66 624.22,-391.96"/>
<polygon fill="#7a8389" stroke="#7a8389" points="623.51,-394.31 630.92,-394.22 625.07,-389.66 623.51,-394.31"/>
</g>
<!-- choice_PHYS323_1 -->
<g id="node31" class="node">
<title>choice_PHYS323_1</title>
<path fill="#fff7ee" stroke="#b7793f" stroke-width="1.1" d="M673,-267C673,-267 643,-267 643,-267 637,-267 631,-261 631,-255 631,-255 631,-243 631,-243 631,-237 637,-231 643,-231 643,-231 673,-231 673,-231 679,-231 685,-237 685,-243 685,-243 685,-255 685,-255 685,-261 679,-267 673,-267"/>
<text text-anchor="middle" x="658" y="-246.8" font-family="Avenir Next" font-size="9.00">1 of</text>
</g>
<!-- course__MATH342&#45;&gt;choice_PHYS323_1 -->
<g id="edge31" class="edge">
<title>course__MATH342&#45;&gt;choice_PHYS323_1</title>
<path fill="none" stroke="#7a8389" d="M542.13,-341.3C551.38,-336.95 561.37,-331.72 570,-326 593.56,-310.38 617.4,-288.78 634.15,-272.44"/>
<polygon fill="#7a8389" stroke="#7a8389" points="636.29,-273.77 639.55,-267.11 632.85,-270.28 636.29,-273.77"/>
</g>
<!-- choice_PHYS326_1 -->
<g id="node32" class="node">
<title>choice_PHYS326_1</title>
<path fill="#fff7ee" stroke="#b7793f" stroke-width="1.1" d="M673,-323C673,-323 643,-323 643,-323 637,-323 631,-317 631,-311 631,-311 631,-299 631,-299 631,-293 637,-287 643,-287 643,-287 673,-287 673,-287 679,-287 685,-293 685,-299 685,-299 685,-311 685,-311 685,-317 679,-323 673,-323"/>
<text text-anchor="middle" x="658" y="-302.8" font-family="Avenir Next" font-size="9.00">1 of</text>
</g>
<!-- course__MATH342&#45;&gt;choice_PHYS326_1 -->
<g id="edge36" class="edge">
<title>course__MATH342&#45;&gt;choice_PHYS326_1</title>
<path fill="none" stroke="#7a8389" d="M542,-343.73C566.07,-335.62 599.58,-324.34 624.22,-316.04"/>
<polygon fill="#7a8389" stroke="#7a8389" points="625.07,-318.34 630.92,-313.78 623.51,-313.69 625.07,-318.34"/>
</g>
<!-- course__EOS427 -->
<g id="node21" class="node">
<title>course__EOS427</title>
<g id="a_node21"><a xlink:href="../../../courses/EOS427.html" xlink:title="Equivalent or cross&#45;listed: EOS427: Geophysics | PHYS427: Geophysics" target="_top">
<path fill="#d7e9ef" stroke="#7e8d96" d="M1078,-400C1078,-400 998,-400 998,-400 992,-400 986,-394 986,-388 986,-388 986,-376 986,-376 986,-370 992,-364 998,-364 998,-364 1078,-364 1078,-364 1084,-364 1090,-370 1090,-376 1090,-376 1090,-388 1090,-388 1090,-394 1084,-400 1078,-400"/>
<text text-anchor="middle" x="1038" y="-379.8" font-family="Avenir Next" font-size="9.00" fill="#41515b">EOS427 / PHYS427</text>
</a>
</g>
</g>
<!-- course__MATH346&#45;&gt;course__EOS427 -->
<g id="edge3" class="edge">
<title>course__MATH346&#45;&gt;course__EOS427</title>
<path fill="none" stroke="#5d6972" stroke-width="1.2" d="M542.1,-286.88C551.65,-282.52 561.82,-276.89 570,-270 605.84,-239.81 589.37,-205.51 631,-184 652.32,-172.98 661.09,-181.92 685,-184 792.88,-193.37 833.29,-168.42 925,-226 975.69,-257.83 1010.37,-321.74 1026.56,-357.08"/>
<polygon fill="#5d6972" stroke="#5d6972" stroke-width="1.2" points="1024.45,-358.36 1029.55,-363.75 1028.92,-356.36 1024.45,-358.36"/>
</g>
<!-- course__MATH346&#45;&gt;course__PHYS321B -->
<g id="edge29" class="edge">
<title>course__MATH346&#45;&gt;course__PHYS321B</title>
<path fill="none" stroke="#5d6972" stroke-width="1.2" d="M542.01,-287.26C551.67,-282.9 561.91,-277.17 570,-270 607.82,-236.46 586.69,-198.34 631,-174 751.39,-107.86 923.17,-157.21 998.78,-184.76"/>
<polygon fill="#5d6972" stroke="#5d6972" stroke-width="1.2" points="998.38,-187.22 1005.8,-187.35 1000.08,-182.62 998.38,-187.22"/>
</g>
<!-- course__PHYS411 -->
<g id="node26" class="node">
<title>course__PHYS411</title>
<g id="a_node26"><a xlink:href="../../../courses/PHYS411.html" xlink:title="PHYS411: Time Series Analysis" target="_top">
<path fill="#efd8cf" stroke="#1b2730" stroke-width="1.6" d="M1056,-127C1056,-127 1020,-127 1020,-127 1014,-127 1008,-121 1008,-115 1008,-115 1008,-103 1008,-103 1008,-97 1014,-91 1020,-91 1020,-91 1056,-91 1056,-91 1062,-91 1068,-97 1068,-103 1068,-103 1068,-115 1068,-115 1068,-121 1062,-127 1056,-127"/>
<text text-anchor="middle" x="1038" y="-106.5" font-family="Avenir Next" font-size="10.00" fill="#17232b">PHYS411</text>
</a>
</g>
</g>
<!-- course__MATH346&#45;&gt;course__PHYS411 -->
<g id="edge44" class="edge">
<title>course__MATH346&#45;&gt;course__PHYS411</title>
<path fill="none" stroke="#5d6972" stroke-width="1.2" d="M542.14,-287.86C551.91,-283.51 562.2,-277.64 570,-270 613.02,-227.85 581.43,-183.2 631,-149 745.93,-69.71 924.62,-88.82 1000.71,-101.8"/>
<polygon fill="#5d6972" stroke="#5d6972" stroke-width="1.2" points="1000.43,-104.23 1007.75,-103.03 1001.27,-99.41 1000.43,-104.23"/>
</g>
<!-- course__PHYS426 -->
<g id="node27" class="node">
<title>course__PHYS426</title>
<g id="a_node27"><a xlink:href="../../../courses/PHYS426.html" xlink:title="PHYS426: Fluid Mechanics" target="_top">
<path fill="#efd8cf" stroke="#7e8d96" d="M1055,-463C1055,-463 1021,-463 1021,-463 1015,-463 1009,-457 1009,-451 1009,-451 1009,-439 1009,-439 1009,-433 1015,-427 1021,-427 1021,-427 1055,-427 1055,-427 1061,-427 1067,-433 1067,-439 1067,-439 1067,-451 1067,-451 1067,-457 1061,-463 1055,-463"/>
<text text-anchor="middle" x="1038" y="-442.8" font-family="Avenir Next" font-size="9.00" fill="#41515b">PHYS426</text>
</a>
</g>
</g>
<!-- course__MATH346&#45;&gt;course__PHYS426 -->
<g id="edge46" class="edge">
<title>course__MATH346&#45;&gt;course__PHYS426</title>
<path fill="none" stroke="#5d6972" stroke-width="1.2" d="M542.27,-284.9C551.43,-280.57 561.33,-275.46 570,-270 599.43,-251.48 598.2,-232.54 631,-221 672.95,-206.24 879.38,-226.46 925,-263 980.21,-307.22 941.45,-355.06 986,-410 990.82,-415.94 996.9,-421.28 1003.17,-425.9"/>
<polygon fill="#5d6972" stroke="#5d6972" stroke-width="1.2" points="1001.81,-427.94 1008.95,-429.94 1004.61,-423.92 1001.81,-427.94"/>
</g>
<!-- course__MATH346&#45;&gt;choice_PHYS321A_1 -->
<g id="edge25" class="edge">
<title>course__MATH346&#45;&gt;choice_PHYS321A_1</title>
<path fill="none" stroke="#7a8389" d="M542.13,-310.7C551.38,-315.05 561.37,-320.28 570,-326 593.56,-341.62 617.4,-363.22 634.15,-379.56"/>
<polygon fill="#7a8389" stroke="#7a8389" points="632.85,-381.72 639.55,-384.89 636.29,-378.23 632.85,-381.72"/>
</g>
<!-- course__MATH346&#45;&gt;choice_PHYS323_1 -->
<g id="edge32" class="edge">
<title>course__MATH346&#45;&gt;choice_PHYS323_1</title>
<path fill="none" stroke="#7a8389" d="M542,-287.73C566.07,-279.62 599.58,-268.34 624.22,-260.04"/>
<polygon fill="#7a8389" stroke="#7a8389" points="625.07,-262.34 630.92,-257.78 623.51,-257.69 625.07,-262.34"/>
</g>
<!-- course__MATH346&#45;&gt;choice_PHYS326_1 -->
<g id="edge37" class="edge">
<title>course__MATH346&#45;&gt;choice_PHYS326_1</title>
<path fill="none" stroke="#7a8389" d="M542,-299.47C565.97,-300.62 599.3,-302.22 623.91,-303.41"/>
<polygon fill="#7a8389" stroke="#7a8389" points="623.81,-305.86 630.92,-303.75 624.05,-300.96 623.81,-305.86"/>
</g>
<!-- course__MATH449 -->
<g id="node23" class="node">
<title>course__MATH449</title>
<g id="a_node23"><a xlink:href="../../../courses/MATH449.html" xlink:title="MATH449: Scientific Computing" target="_top">
<path fill="#dfe3f4" stroke="#7e8d96" d="M1055.5,-638C1055.5,-638 1020.5,-638 1020.5,-638 1014.5,-638 1008.5,-632 1008.5,-626 1008.5,-626 1008.5,-614 1008.5,-614 1008.5,-608 1014.5,-602 1020.5,-602 1020.5,-602 1055.5,-602 1055.5,-602 1061.5,-602 1067.5,-608 1067.5,-614 1067.5,-614 1067.5,-626 1067.5,-626 1067.5,-632 1061.5,-638 1055.5,-638"/>
<text text-anchor="middle" x="1038" y="-617.8" font-family="Avenir Next" font-size="9.00" fill="#41515b">MATH449</text>
</a>
</g>
</g>
<!-- course__MATH348&#45;&gt;course__MATH449 -->
<g id="edge22" class="edge">
<title>course__MATH348&#45;&gt;course__MATH449</title>
<path fill="none" stroke="#5d6972" stroke-width="1.2" d="M809.61,-620C857.57,-620 950.21,-620 1001.2,-620"/>
<polygon fill="#5d6972" stroke="#5d6972" stroke-width="1.2" points="1001.41,-622.45 1008.41,-620 1001.41,-617.55 1001.41,-622.45"/>
</g>
<!-- course__MATH442 -->
<g id="node17" class="node">
<title>course__MATH442</title>
<g id="a_node17"><a xlink:href="../../../courses/MATH442.html" xlink:title="MATH442: Advanced Ordinary Differential Equations" target="_top">
<path fill="#dfe3f4" stroke="#7e8d96" d="M795.5,-428C795.5,-428 760.5,-428 760.5,-428 754.5,-428 748.5,-422 748.5,-416 748.5,-416 748.5,-404 748.5,-404 748.5,-398 754.5,-392 760.5,-392 760.5,-392 795.5,-392 795.5,-392 801.5,-392 807.5,-398 807.5,-404 807.5,-404 807.5,-416 807.5,-416 807.5,-422 801.5,-428 795.5,-428"/>
<text text-anchor="middle" x="778" y="-407.8" font-family="Avenir Next" font-size="9.00" fill="#41515b">MATH442</text>
</a>
</g>
</g>
<!-- course__PHYS321A&#45;&gt;course__EOS427 -->
<g id="edge1" class="edge">
<title>course__PHYS321A&#45;&gt;course__EOS427</title>
<path fill="none" stroke="#5d6972" stroke-width="1.2" d="M810.12,-455.87C851.81,-442.3 926.57,-417.95 978.84,-400.93"/>
<polygon fill="#5d6972" stroke="#5d6972" stroke-width="1.2" points="979.85,-403.18 985.74,-398.69 978.33,-398.53 979.85,-403.18"/>
</g>
<!-- course__EOS451 -->
<g id="node22" class="node">
<title>course__EOS451</title>
<g id="a_node22"><a xlink:href="../../../courses/EOS451.html" xlink:title="EOS451: Introductory Dynamic Meteorology" target="_top">
<path fill="#d7e9ef" stroke="#7e8d96" d="M1053,-582C1053,-582 1023,-582 1023,-582 1017,-582 1011,-576 1011,-570 1011,-570 1011,-558 1011,-558 1011,-552 1017,-546 1023,-546 1023,-546 1053,-546 1053,-546 1059,-546 1065,-552 1065,-558 1065,-558 1065,-570 1065,-570 1065,-576 1059,-582 1053,-582"/>
<text text-anchor="middle" x="1038" y="-561.8" font-family="Avenir Next" font-size="9.00" fill="#41515b">EOS451</text>
</a>
</g>
</g>
<!-- course__PHYS321A&#45;&gt;course__EOS451 -->
<g id="edge4" class="edge">
<title>course__PHYS321A&#45;&gt;course__EOS451</title>
<path fill="none" stroke="#5d6972" stroke-width="1.2" d="M810.08,-477.83C827.91,-484.62 850.71,-493.29 871,-501 917.14,-518.53 970.5,-538.78 1004,-551.48"/>
<polygon fill="#5d6972" stroke="#5d6972" stroke-width="1.2" points="1003.42,-553.89 1010.83,-554.08 1005.16,-549.3 1003.42,-553.89"/>
</g>
<!-- course__PHYS321A&#45;&gt;course__PHYS321B -->
<g id="edge27" class="edge">
<title>course__PHYS321A&#45;&gt;course__PHYS321B</title>
<path fill="none" stroke="#5d6972" stroke-width="1.2" d="M799.53,-447.82C803.06,-444.59 806.66,-441.23 810,-438 888.54,-362.07 976.47,-266.7 1015.89,-223.36"/>
<polygon fill="#5d6972" stroke="#5d6972" stroke-width="1.2" points="1017.78,-224.92 1020.68,-218.09 1014.16,-221.63 1017.78,-224.92"/>
</g>
<!-- course__PHYS410 -->
<g id="node25" class="node">
<title>course__PHYS410</title>
<g id="a_node25"><a xlink:href="../../../courses/PHYS410.html" xlink:title="PHYS410: Topics in Mathematical Physics I" target="_top">
<path fill="#efd8cf" stroke="#1b2730" stroke-width="1.6" d="M1056,-526C1056,-526 1020,-526 1020,-526 1014,-526 1008,-520 1008,-514 1008,-514 1008,-502 1008,-502 1008,-496 1014,-490 1020,-490 1020,-490 1056,-490 1056,-490 1062,-490 1068,-496 1068,-502 1068,-502 1068,-514 1068,-514 1068,-520 1062,-526 1056,-526"/>
<text text-anchor="middle" x="1038" y="-505.5" font-family="Avenir Next" font-size="10.00" fill="#17232b">PHYS410</text>
</a>
</g>
</g>
<!-- course__PHYS321A&#45;&gt;course__PHYS410 -->
<g id="edge39" class="edge">
<title>course__PHYS321A&#45;&gt;course__PHYS410</title>
<path fill="none" stroke="#5d6972" stroke-width="1.2" d="M810.12,-471.07C858.02,-478.86 949.61,-493.77 1000.55,-502.07"/>
<polygon fill="#5d6972" stroke="#5d6972" stroke-width="1.2" points="1000.45,-504.53 1007.76,-503.24 1001.24,-499.7 1000.45,-504.53"/>
</g>
<!-- course__PHYS321A&#45;&gt;course__PHYS426 -->
<g id="edge45" class="edge">
<title>course__PHYS321A&#45;&gt;course__PHYS426</title>
<path fill="none" stroke="#5d6972" stroke-width="1.2" d="M810.12,-463.47C858.41,-459.54 951.08,-451.99 1001.76,-447.87"/>
<polygon fill="#5d6972" stroke="#5d6972" stroke-width="1.2" points="1002.15,-450.3 1008.92,-447.29 1001.75,-445.41 1002.15,-450.3"/>
</g>
<!-- choice_PHYS411_0_0 -->
<g id="node33" class="node">
<title>choice_PHYS411_0_0</title>
<path fill="#fff7ee" stroke="#b7793f" stroke-width="1.1" d="M913,-309C913,-309 883,-309 883,-309 877,-309 871,-303 871,-297 871,-297 871,-285 871,-285 871,-279 877,-273 883,-273 883,-273 913,-273 913,-273 919,-273 925,-279 925,-285 925,-285 925,-297 925,-297 925,-303 919,-309 913,-309"/>
<text text-anchor="middle" x="898" y="-288.8" font-family="Avenir Next" font-size="9.00">2 of</text>
</g>
<!-- course__PHYS321A&#45;&gt;choice_PHYS411_0_0 -->
<g id="edge40" class="edge">
<title>course__PHYS321A&#45;&gt;choice_PHYS411_0_0</title>
<path fill="none" stroke="#7a8389" d="M800.98,-447.92C804.19,-444.79 807.32,-441.43 810,-438 845.4,-392.74 839.54,-372.09 871,-324 872.94,-321.03 875.09,-317.99 877.29,-315.03"/>
<polygon fill="#7a8389" stroke="#7a8389" points="879.53,-316.13 881.83,-309.08 875.64,-313.15 879.53,-316.13"/>
</g>
<!-- course__PHYS323&#45;&gt;choice_PHYS411_0_0 -->
<g id="edge41" class="edge">
<title>course__PHYS323&#45;&gt;choice_PHYS411_0_0</title>
<path fill="none" stroke="#7a8389" d="M807.26,-291C824.21,-291 845.84,-291 863.62,-291"/>
<polygon fill="#7a8389" stroke="#7a8389" points="863.98,-293.45 870.98,-291 863.98,-288.55 863.98,-293.45"/>
</g>
<!-- course__PHYS326&#45;&gt;course__EOS427 -->
<g id="edge2" class="edge">
<title>course__PHYS326&#45;&gt;course__EOS427</title>
<path fill="none" stroke="#5d6972" stroke-width="1.2" d="M807.1,-353.49C848.1,-358.57 925.24,-368.14 978.8,-374.78"/>
<polygon fill="#5d6972" stroke="#5d6972" stroke-width="1.2" points="978.62,-377.23 985.86,-375.66 979.22,-372.36 978.62,-377.23"/>
</g>
<!-- course__PHYS326&#45;&gt;choice_PHYS411_0_0 -->
<g id="edge42" class="edge">
<title>course__PHYS326&#45;&gt;choice_PHYS411_0_0</title>
<path fill="none" stroke="#7a8389" d="M807.26,-335.87C824.51,-327.25 846.62,-316.19 864.57,-307.21"/>
<polygon fill="#7a8389" stroke="#7a8389" points="865.82,-309.33 870.98,-304.01 863.63,-304.95 865.82,-309.33"/>
</g>
<!-- choice_MATH211_0&#45;&gt;course__MATH211 -->
<g id="edge8" class="edge">
<title>choice_MATH211_0&#45;&gt;course__MATH211</title>
<path fill="none" stroke="#5d6972" stroke-width="1.2" d="M234.06,-270C249.33,-270 269.2,-270 287.69,-270"/>
<polygon fill="#5d6972" stroke="#5d6972" stroke-width="1.2" points="287.97,-272.45 294.97,-270 287.97,-267.55 287.97,-272.45"/>
</g>
<!-- choice_MATH442_0_0_1&#45;&gt;course__MATH442 -->
<g id="edge21" class="edge">
<title>choice_MATH442_0_0_1&#45;&gt;course__MATH442</title>
<path fill="none" stroke="#5d6972" stroke-width="1.2" d="M685.19,-448.13C701.88,-441.19 723.7,-432.13 741.89,-424.58"/>
<polygon fill="#5d6972" stroke="#5d6972" stroke-width="1.2" points="742.88,-426.82 748.41,-421.87 741,-422.3 742.88,-426.82"/>
</g>
<!-- choice_PHYS321A_1&#45;&gt;course__PHYS321A -->
<g id="edge26" class="edge">
<title>choice_PHYS321A_1&#45;&gt;course__PHYS321A</title>
<path fill="none" stroke="#5d6972" stroke-width="1.2" d="M685.19,-416.98C701.15,-425.51 721.82,-436.54 739.5,-445.98"/>
<polygon fill="#5d6972" stroke="#5d6972" stroke-width="1.2" points="738.53,-448.24 745.86,-449.38 740.84,-443.92 738.53,-448.24"/>
</g>
<!-- choice_PHYS323_1&#45;&gt;course__PHYS323 -->
<g id="edge33" class="edge">
<title>choice_PHYS323_1&#45;&gt;course__PHYS323</title>
<path fill="none" stroke="#5d6972" stroke-width="1.2" d="M685.19,-258.32C701.85,-264.25 723.64,-272.01 741.8,-278.47"/>
<polygon fill="#5d6972" stroke="#5d6972" stroke-width="1.2" points="741.41,-280.93 748.83,-280.97 743.05,-276.32 741.41,-280.93"/>
</g>
<!-- choice_PHYS326_1&#45;&gt;course__PHYS326 -->
<g id="edge38" class="edge">
<title>choice_PHYS326_1&#45;&gt;course__PHYS326</title>
<path fill="none" stroke="#5d6972" stroke-width="1.2" d="M685.19,-314.99C702,-321.4 724.02,-329.8 742.28,-336.76"/>
<polygon fill="#5d6972" stroke="#5d6972" stroke-width="1.2" points="741.41,-339.05 748.83,-339.26 743.16,-334.47 741.41,-339.05"/>
</g>
<!-- choice_PHYS411_0_0&#45;&gt;course__PHYS411 -->
<g id="edge43" class="edge">
<title>choice_PHYS411_0_0&#45;&gt;course__PHYS411</title>
<path fill="none" stroke="#5d6972" stroke-width="1.2" d="M911.99,-272.65C928.76,-249.1 959,-207.09 986,-172 996.18,-158.77 1007.87,-144.28 1017.49,-132.54"/>
<polygon fill="#5d6972" stroke="#5d6972" stroke-width="1.2" points="1019.48,-133.97 1022.03,-127.01 1015.7,-130.86 1019.48,-133.97"/>
</g>
</g>
</svg>
