<?xml version="1.0" encoding="UTF-8" standalone="no"?>
<!DOCTYPE svg PUBLIC "-//W3C//DTD SVG 1.1//EN"
 "http://www.w3.org/Graphics/SVG/1.1/DTD/svg11.dtd">
<!-- Generated by graphviz version 2.43.0 (0)
 -->
<!-- Title: MATH248 Pages: 1 -->
<svg width="768pt" height="303pt"
 viewBox="0.00 0.00 768.20 303.20" xmlns="http://www.w3.org/2000/svg" xmlns:xlink="http://www.w3.org/1999/xlink">
<g id="graph0" class="graph" transform="scale(1 1) rotate(0) translate(21.6 281.6)">
<title>MATH248</title>
<!-- course__PHYS102A -->
<g id="node1" class="node">
<title>course__PHYS102A</title>
<g id="a_node1"><a xlink:href="../../../courses/PHYS102A.html" xlink:title="Collapsed in simplified view: PHYS102A: General Physics I | PHYS110: Introductory Physics I | PHYS120: Physics I" target="_top">
<path fill="#efd8cf" stroke="#1b2730" stroke-width="1.6" d="M47,-232C47,-232 12,-232 12,-232 6,-232 0,-226 0,-220 0,-220 0,-208 0,-208 0,-202 6,-196 12,-196 12,-196 47,-196 47,-196 53,-196 59,-202 59,-208 59,-208 59,-220 59,-220 59,-226 53,-232 47,-232"/>
<text text-anchor="middle" x="29.5" y="-211.5" font-family="Avenir Next" font-size="10.00" fill="#17232b">Physics I</text>
</a>
</g>
</g>
<!-- course__PHYS102B -->
<g id="node5" class="node">
<title>course__PHYS102B</title>
<g id="a_node5"><a xlink:href="../../../courses/PHYS102B.html" xlink:title="Collapsed in simplified view: PHYS102B: General Physics II | PHYS111: Introductory Physics II | PHYS130: Physics II" target="_top">
<path fill="#efd8cf" stroke="#1b2730" stroke-width="1.6" d="M198.5,-232C198.5,-232 160.5,-232 160.5,-232 154.5,-232 148.5,-226 148.5,-220 148.5,-220 148.5,-208 148.5,-208 148.5,-202 154.5,-196 160.5,-196 160.5,-196 198.5,-196 198.5,-196 204.5,-196 210.5,-202 210.5,-208 210.5,-208 210.5,-220 210.5,-220 210.5,-226 204.5,-232 198.5,-232"/>
<text text-anchor="middle" x="179.5" y="-211.5" font-family="Avenir Next" font-size="10.00" fill="#17232b">Physics II</text>
</a>
</g>
</g>
<!-- course__PHYS102A&#45;&gt;course__PHYS102B -->
<g id="edge7" class="edge">
<title>course__PHYS102A&#45;&gt;course__PHYS102B</title>
<path fill="none" stroke="#5d6972" stroke-width="1.2" d="M59.04,-214C82.35,-214 115.5,-214 140.97,-214"/>
<polygon fill="#5d6972" stroke="#5d6972" stroke-width="1.2" points="141.27,-216.45 148.27,-214 141.27,-211.55 141.27,-216.45"/>
</g>
<!-- course__CSC110 -->
<g id="node2" class="node">
<title>course__CSC110</title>
<g id="a_node2"><a xlink:href="../../../courses/CSC110.html" xlink:title="Collapsed in simplified view: CSC110: Fundamentals of Programming I | CSC111: Fundamentals of Programming with Engineering Applications" target="_top">
<path fill="#e7ddec" stroke="#1b2730" stroke-width="1.6" d="M212,-176C212,-176 147,-176 147,-176 141,-176 135,-170 135,-164 135,-164 135,-152 135,-152 135,-146 141,-140 147,-140 147,-140 212,-140 212,-140 218,-140 224,-146 224,-152 224,-152 224,-164 224,-164 224,-170 218,-176 212,-176"/>
<text text-anchor="middle" x="179.5" y="-155.5" font-family="Avenir Next" font-size="10.00" fill="#17232b">Programming I</text>
</a>
</g>
</g>
<!-- course__MATH248 -->
<g id="node6" class="node">
<title>course__MATH248</title>
<g id="a_node6"><a xlink:href="../../../courses/MATH248.html" xlink:title="Equivalent or cross&#45;listed: MATH248: Computer Assisted Mathematics | PHYS248: Computer Assisted Physics" target="_top">
<path fill="#dfe3f4" stroke="#1f4f66" stroke-width="2" d="M464,-148C464,-148 312,-148 312,-148 306,-148 300,-142 300,-136 300,-136 300,-124 300,-124 300,-118 306,-112 312,-112 312,-112 464,-112 464,-112 470,-112 476,-118 476,-124 476,-124 476,-136 476,-136 476,-142 470,-148 464,-148"/>
<text text-anchor="middle" x="388" y="-133" font-family="Avenir Next" font-size="10.00" fill="#17232b">MATH248 / PHYS248</text>
<text text-anchor="middle" x="388" y="-122" font-family="Avenir Next" font-size="10.00" fill="#17232b">Computer Assisted Mathematics</text>
</a>
</g>
</g>
<!-- course__CSC110&#45;&gt;course__MATH248 -->
<g id="edge4" class="edge">
<title>course__CSC110&#45;&gt;course__MATH248</title>
<path fill="none" stroke="#5d6972" stroke-width="1.2" d="M224.04,-152.1C244.07,-149.38 268.67,-146.04 292.63,-142.8"/>
<polygon fill="#5d6972" stroke="#5d6972" stroke-width="1.2" points="293.1,-145.21 299.7,-141.84 292.44,-140.35 293.1,-145.21"/>
</g>
<!-- course__MATH200 -->
<g id="node3" class="node">
<title>course__MATH200</title>
<g id="a_node3"><a xlink:href="../../../courses/MATH200.html" xlink:title="Equivalent or cross&#45;listed: MATH200: Calculus III | MATH202: Intermediate Calculus for CSC and EOS" target="_top">
<path fill="#dfe3f4" stroke="#1b2730" stroke-width="1.6" d="M227,-120C227,-120 132,-120 132,-120 126,-120 120,-114 120,-108 120,-108 120,-96 120,-96 120,-90 126,-84 132,-84 132,-84 227,-84 227,-84 233,-84 239,-90 239,-96 239,-96 239,-108 239,-108 239,-114 233,-120 227,-120"/>
<text text-anchor="middle" x="179.5" y="-99.5" font-family="Avenir Next" font-size="10.00" fill="#17232b">MATH200 / MATH202</text>
</a>
</g>
</g>
<!-- course__MATH200&#45;&gt;course__MATH248 -->
<g id="edge3" class="edge">
<title>course__MATH200&#45;&gt;course__MATH248</title>
<path fill="none" stroke="#5d6972" stroke-width="1.2" d="M239.12,-109.95C255.75,-112.2 274.3,-114.72 292.48,-117.18"/>
<polygon fill="#5d6972" stroke="#5d6972" stroke-width="1.2" points="292.43,-119.65 299.7,-118.16 293.09,-114.79 292.43,-119.65"/>
</g>
<!-- course__MATH211 -->
<g id="node4" class="node">
<title>course__MATH211</title>
<g id="a_node4"><a xlink:href="../../../courses/MATH211.html" xlink:title="MATH211: Matrix Algebra I" target="_top">
<path fill="#dfe3f4" stroke="#1b2730" stroke-width="1.6" d="M199,-64C199,-64 160,-64 160,-64 154,-64 148,-58 148,-52 148,-52 148,-40 148,-40 148,-34 154,-28 160,-28 160,-28 199,-28 199,-28 205,-28 211,-34 211,-40 211,-40 211,-52 211,-52 211,-58 205,-64 199,-64"/>
<text text-anchor="middle" x="179.5" y="-43.5" font-family="Avenir Next" font-size="10.00" fill="#17232b">MATH211</text>
</a>
</g>
</g>
<!-- course__MATH211&#45;&gt;course__MATH248 -->
<g id="edge2" class="edge">
<title>course__MATH211&#45;&gt;course__MATH248</title>
<path fill="none" stroke="#5d6972" stroke-width="1.2" d="M211.42,-58.58C244.28,-71.94 296.8,-93.31 335.84,-109.19"/>
<polygon fill="#5d6972" stroke="#5d6972" stroke-width="1.2" points="335.07,-111.52 342.48,-111.89 336.92,-106.98 335.07,-111.52"/>
</g>
<!-- course__PHYS102B&#45;&gt;course__MATH248 -->
<g id="edge5" class="edge">
<title>course__PHYS102B&#45;&gt;course__MATH248</title>
<path fill="none" stroke="#5d6972" stroke-width="1.2" d="M210.53,-201.79C243.31,-188.45 296.37,-166.86 335.77,-150.84"/>
<polygon fill="#5d6972" stroke="#5d6972" stroke-width="1.2" points="336.9,-153.02 342.46,-148.12 335.05,-148.49 336.9,-153.02"/>
</g>
<!-- course__EOS460 -->
<g id="node7" class="node">
<title>course__EOS460</title>
<g id="a_node7"><a xlink:href="../../../courses/EOS460.html" xlink:title="EOS460: Earth System Science" target="_top">
<path fill="#d7e9ef" stroke="#1b2730" stroke-width="1.6" d="M585.5,-260C585.5,-260 555.5,-260 555.5,-260 549.5,-260 543.5,-254 543.5,-248 543.5,-248 543.5,-236 543.5,-236 543.5,-230 549.5,-224 555.5,-224 555.5,-224 585.5,-224 585.5,-224 591.5,-224 597.5,-230 597.5,-236 597.5,-236 597.5,-248 597.5,-248 597.5,-254 591.5,-260 585.5,-260"/>
<text text-anchor="middle" x="570.5" y="-239.5" font-family="Avenir Next" font-size="10.00" fill="#17232b">EOS460</text>
</a>
</g>
</g>
<!-- course__MATH248&#45;&gt;course__EOS460 -->
<g id="edge1" class="edge">
<title>course__MATH248&#45;&gt;course__EOS460</title>
<path fill="none" stroke="#5d6972" stroke-width="1.2" d="M418.4,-148.24C451.04,-168.49 503.53,-201.07 537.27,-222"/>
<polygon fill="#5d6972" stroke="#5d6972" stroke-width="1.2" points="536.1,-224.16 543.34,-225.77 538.68,-219.99 536.1,-224.16"/>
</g>
<!-- course__MATH348 -->
<g id="node8" class="node">
<title>course__MATH348</title>
<g id="a_node8"><a xlink:href="../../../courses/MATH348.html" xlink:title="MATH348: Numerical Methods" target="_top">
<path fill="#dfe3f4" stroke="#1b2730" stroke-width="1.6" d="M590,-204C590,-204 551,-204 551,-204 545,-204 539,-198 539,-192 539,-192 539,-180 539,-180 539,-174 545,-168 551,-168 551,-168 590,-168 590,-168 596,-168 602,-174 602,-180 602,-180 602,-192 602,-192 602,-198 596,-204 590,-204"/>
<text text-anchor="middle" x="570.5" y="-183.5" font-family="Avenir Next" font-size="10.00" fill="#17232b">MATH348</text>
</a>
</g>
</g>
<!-- course__MATH248&#45;&gt;course__MATH348 -->
<g id="edge6" class="edge">
<title>course__MATH248&#45;&gt;course__MATH348</title>
<path fill="none" stroke="#5d6972" stroke-width="1.2" d="M447.1,-148.03C474.99,-156.68 507.58,-166.79 532.12,-174.4"/>
<polygon fill="#5d6972" stroke="#5d6972" stroke-width="1.2" points="531.41,-176.75 538.82,-176.48 532.86,-172.07 531.41,-176.75"/>
</g>
<!-- course__PHYS321A -->
<g id="node9" class="node">
<title>course__PHYS321A</title>
<g id="a_node9"><a xlink:href="../../../courses/PHYS321A.html" xlink:title="PHYS321A: Classical Mechanics I" target="_top">
<path fill="#efd8cf" stroke="#1b2730" stroke-width="1.6" d="M592,-148C592,-148 549,-148 549,-148 543,-148 537,-142 537,-136 537,-136 537,-124 537,-124 537,-118 543,-112 549,-112 549,-112 592,-112 592,-112 598,-112 604,-118 604,-124 604,-124 604,-136 604,-136 604,-142 598,-148 592,-148"/>
<text text-anchor="middle" x="570.5" y="-127.5" font-family="Avenir Next" font-size="10.00" fill="#17232b">PHYS321A</text>
</a>
</g>
</g>
<!-- course__MATH248&#45;&gt;course__PHYS321A -->
<g id="edge8" class="edge">
<title>course__MATH248&#45;&gt;course__PHYS321A</title>
<path fill="none" stroke="#5d6972" stroke-width="1.2" d="M476.08,-130C494.84,-130 513.79,-130 529.67,-130"/>
<polygon fill="#5d6972" stroke="#5d6972" stroke-width="1.2" points="529.73,-132.45 536.73,-130 529.73,-127.55 529.73,-132.45"/>
</g>
<!-- course__PHYS323 -->
<g id="node10" class="node">
<title>course__PHYS323</title>
<g id="a_node10"><a xlink:href="../../../courses/PHYS323.html" xlink:title="PHYS323: Quantum Mechanics I" target="_top">
<path fill="#efd8cf" stroke="#1b2730" stroke-width="1.6" d="M588.5,-92C588.5,-92 552.5,-92 552.5,-92 546.5,-92 540.5,-86 540.5,-80 540.5,-80 540.5,-68 540.5,-68 540.5,-62 546.5,-56 552.5,-56 552.5,-56 588.5,-56 588.5,-56 594.5,-56 600.5,-62 600.5,-68 600.5,-68 600.5,-80 600.5,-80 600.5,-86 594.5,-92 588.5,-92"/>
<text text-anchor="middle" x="570.5" y="-71.5" font-family="Avenir Next" font-size="10.00" fill="#17232b">PHYS323</text>
</a>
</g>
</g>
<!-- course__MATH248&#45;&gt;course__PHYS323 -->
<g id="edge9" class="edge">
<title>course__MATH248&#45;&gt;course__PHYS323</title>
<path fill="none" stroke="#5d6972" stroke-width="1.2" d="M447.1,-111.97C475.55,-103.15 508.9,-92.8 533.6,-85.14"/>
<polygon fill="#5d6972" stroke="#5d6972" stroke-width="1.2" points="534.37,-87.47 540.33,-83.05 532.92,-82.79 534.37,-87.47"/>
</g>
<!-- course__PHYS326 -->
<g id="node11" class="node">
<title>course__PHYS326</title>
<g id="a_node11"><a xlink:href="../../../courses/PHYS326.html" xlink:title="PHYS326: Electricity and Magnetism" target="_top">
<path fill="#efd8cf" stroke="#1b2730" stroke-width="1.6" d="M588.5,-36C588.5,-36 552.5,-36 552.5,-36 546.5,-36 540.5,-30 540.5,-24 540.5,-24 540.5,-12 540.5,-12 540.5,-6 546.5,0 552.5,0 552.5,0 588.5,0 588.5,0 594.5,0 600.5,-6 600.5,-12 600.5,-12 600.5,-24 600.5,-24 600.5,-30 594.5,-36 588.5,-36"/>
<text text-anchor="middle" x="570.5" y="-15.5" font-family="Avenir Next" font-size="10.00" fill="#17232b">PHYS326</text>
</a>
</g>
</g>
<!-- course__MATH248&#45;&gt;course__PHYS326 -->
<g id="edge10" class="edge">
<title>course__MATH248&#45;&gt;course__PHYS326</title>
<path fill="none" stroke="#5d6972" stroke-width="1.2" d="M418.4,-111.76C450.09,-92.09 500.53,-60.8 534.3,-39.84"/>
<polygon fill="#5d6972" stroke="#5d6972" stroke-width="1.2" points="535.75,-41.82 540.41,-36.05 533.17,-37.66 535.75,-41.82"/>
</g>
<!-- course__PHYS426 -->
<g id="node12" class="node">
<title>course__PHYS426</title>
<g id="a_node12"><a xlink:href="../../../courses/PHYS426.html" xlink:title="PHYS426: Fluid Mechanics" target="_top">
<path fill="#efd8cf" stroke="#1b2730" stroke-width="1.6" d="M713,-148C713,-148 677,-148 677,-148 671,-148 665,-142 665,-136 665,-136 665,-124 665,-124 665,-118 671,-112 677,-112 677,-112 713,-112 713,-112 719,-112 725,-118 725,-124 725,-124 725,-136 725,-136 725,-142 719,-148 713,-148"/>
<text text-anchor="middle" x="695" y="-127.5" font-family="Avenir Next" font-size="10.00" fill="#17232b">PHYS426</text>
</a>
</g>
</g>
<!-- course__PHYS321A&#45;&gt;course__PHYS426 -->
<g id="edge11" class="edge">
<title>course__PHYS321A&#45;&gt;course__PHYS426</title>
<path fill="none" stroke="#5d6972" stroke-width="1.2" d="M604.01,-130C620.5,-130 640.6,-130 657.61,-130"/>
<polygon fill="#5d6972" stroke="#5d6972" stroke-width="1.2" points="657.7,-132.45 664.7,-130 657.7,-127.55 657.7,-132.45"/>
</g>
</g>
</svg>
