<?xml version="1.0" encoding="UTF-8" standalone="no"?>
<!DOCTYPE svg PUBLIC "-//W3C//DTD SVG 1.1//EN"
 "http://www.w3.org/Graphics/SVG/1.1/DTD/svg11.dtd">
<!-- Generated by graphviz version 2.43.0 (0)
 -->
<!-- Title: MATH341 Pages: 1 -->
<svg width="458pt" height="135pt"
 viewBox="0.00 0.00 458.20 135.20" xmlns="http://www.w3.org/2000/svg" xmlns:xlink="http://www.w3.org/1999/xlink">
<g id="graph0" class="graph" transform="scale(1 1) rotate(0) translate(21.6 113.6)">
<title>MATH341</title>
<!-- course__MATH204 -->
<g id="node1" class="node">
<title>course__MATH204</title>
<g id="a_node1"><a xlink:href="../../../courses/MATH204.html" xlink:title="MATH204: Calculus IV" target="_top">
<path fill="#dfe3f4" stroke="#1b2730" stroke-width="1.6" d="M51,-92C51,-92 12,-92 12,-92 6,-92 0,-86 0,-80 0,-80 0,-68 0,-68 0,-62 6,-56 12,-56 12,-56 51,-56 51,-56 57,-56 63,-62 63,-68 63,-68 63,-80 63,-80 63,-86 57,-92 51,-92"/>
<text text-anchor="middle" x="31.5" y="-71.5" font-family="Avenir Next" font-size="10.00" fill="#17232b">MATH204</text>
</a>
</g>
</g>
<!-- course__MATH341 -->
<g id="node3" class="node">
<title>course__MATH341</title>
<g id="a_node3"><a xlink:href="../../../courses/MATH341.html" xlink:title="MATH341: Nonlinear dynamics and chaos" target="_top">
<path fill="#dfe3f4" stroke="#1f4f66" stroke-width="2" d="M279,-64C279,-64 136,-64 136,-64 130,-64 124,-58 124,-52 124,-52 124,-40 124,-40 124,-34 130,-28 136,-28 136,-28 279,-28 279,-28 285,-28 291,-34 291,-40 291,-40 291,-52 291,-52 291,-58 285,-64 279,-64"/>
<text text-anchor="middle" x="207.5" y="-49" font-family="Avenir Next" font-size="10.00" fill="#17232b">MATH341</text>
<text text-anchor="middle" x="207.5" y="-38" font-family="Avenir Next" font-size="10.00" fill="#17232b">Nonlinear dynamics and chaos</text>
</a>
</g>
</g>
<!-- course__MATH204&#45;&gt;course__MATH341 -->
<g id="edge2" class="edge">
<title>course__MATH204&#45;&gt;course__MATH341</title>
<path fill="none" stroke="#5d6972" stroke-width="1.2" d="M63.21,-69.06C78.33,-66.63 97.42,-63.55 116.7,-60.45"/>
<polygon fill="#5d6972" stroke="#5d6972" stroke-width="1.2" points="117.28,-62.84 123.8,-59.31 116.5,-58 117.28,-62.84"/>
</g>
<!-- course__MATH211 -->
<g id="node2" class="node">
<title>course__MATH211</title>
<g id="a_node2"><a xlink:href="../../../courses/MATH211.html" xlink:title="MATH211: Matrix Algebra I" target="_top">
<path fill="#dfe3f4" stroke="#1b2730" stroke-width="1.6" d="M51,-36C51,-36 12,-36 12,-36 6,-36 0,-30 0,-24 0,-24 0,-12 0,-12 0,-6 6,0 12,0 12,0 51,0 51,0 57,0 63,-6 63,-12 63,-12 63,-24 63,-24 63,-30 57,-36 51,-36"/>
<text text-anchor="middle" x="31.5" y="-15.5" font-family="Avenir Next" font-size="10.00" fill="#17232b">MATH211</text>
</a>
</g>
</g>
<!-- course__MATH211&#45;&gt;course__MATH341 -->
<g id="edge1" class="edge">
<title>course__MATH211&#45;&gt;course__MATH341</title>
<path fill="none" stroke="#5d6972" stroke-width="1.2" d="M63.21,-22.94C78.33,-25.37 97.42,-28.45 116.7,-31.55"/>
<polygon fill="#5d6972" stroke="#5d6972" stroke-width="1.2" points="116.5,-34 123.8,-32.69 117.28,-29.16 116.5,-34"/>
</g>
<!-- course__MATH442 -->
<g id="node4" class="node">
<title>course__MATH442</title>
<g id="a_node4"><a xlink:href="../../../courses/MATH442.html" xlink:title="MATH442: Advanced Ordinary Differential Equations" target="_top">
<path fill="#dfe3f4" stroke="#1b2730" stroke-width="1.6" d="M403,-64C403,-64 364,-64 364,-64 358,-64 352,-58 352,-52 352,-52 352,-40 352,-40 352,-34 358,-28 364,-28 364,-28 403,-28 403,-28 409,-28 415,-34 415,-40 415,-40 415,-52 415,-52 415,-58 409,-64 403,-64"/>
<text text-anchor="middle" x="383.5" y="-43.5" font-family="Avenir Next" font-size="10.00" fill="#17232b">MATH442</text>
</a>
</g>
</g>
<!-- course__MATH341&#45;&gt;course__MATH442 -->
<g id="edge3" class="edge">
<title>course__MATH341&#45;&gt;course__MATH442</title>
<path fill="none" stroke="#5d6972" stroke-width="1.2" d="M291.17,-46C309.87,-46 328.85,-46 344.62,-46"/>
<polygon fill="#5d6972" stroke="#5d6972" stroke-width="1.2" points="344.63,-48.45 351.63,-46 344.63,-43.55 344.63,-48.45"/>
</g>
</g>
</svg>
