<?xml version="1.0" encoding="UTF-8" standalone="no"?>
<!DOCTYPE svg PUBLIC "-//W3C//DTD SVG 1.1//EN"
 "http://www.w3.org/Graphics/SVG/1.1/DTD/svg11.dtd">
<!-- Generated by graphviz version 2.43.0 (0)
 -->
<!-- Title: MATH101 Pages: 1 -->
<svg width="580pt" height="345pt"
 viewBox="0.00 0.00 580.20 345.20" xmlns="http://www.w3.org/2000/svg" xmlns:xlink="http://www.w3.org/1999/xlink">
<g id="graph0" class="graph" transform="scale(1 1) rotate(0) translate(21.6 323.6)">
<title>MATH101</title>
<!-- course__MATH100 -->
<g id="node1" class="node">
<title>course__MATH100</title>
<g id="a_node1"><a xlink:href="../../../courses/MATH100.html" xlink:title="Collapsed in simplified view: MATH100: Calculus I | MATH102: Calculus for Students in the Social and Biological Sciences | MATH109: Introduction to Calculus" target="_top">
<path fill="#dfe3f4" stroke="#1b2730" stroke-width="1.6" d="M52,-113C52,-113 12,-113 12,-113 6,-113 0,-107 0,-101 0,-101 0,-89 0,-89 0,-83 6,-77 12,-77 12,-77 52,-77 52,-77 58,-77 64,-83 64,-89 64,-89 64,-101 64,-101 64,-107 58,-113 52,-113"/>
<text text-anchor="middle" x="32" y="-92.5" font-family="Avenir Next" font-size="10.00" fill="#17232b">Calculus I</text>
</a>
</g>
</g>
<!-- course__MATH101 -->
<g id="node2" class="node">
<title>course__MATH101</title>
<g id="a_node2"><a xlink:href="../../../courses/MATH101.html" xlink:title="MATH101: Calculus II" target="_top">
<path fill="#dfe3f4" stroke="#1f4f66" stroke-width="2" d="M180,-183C180,-183 137,-183 137,-183 131,-183 125,-177 125,-171 125,-171 125,-159 125,-159 125,-153 131,-147 137,-147 137,-147 180,-147 180,-147 186,-147 192,-153 192,-159 192,-159 192,-171 192,-171 192,-177 186,-183 180,-183"/>
<text text-anchor="middle" x="158.5" y="-168" font-family="Avenir Next" font-size="10.00" fill="#17232b">MATH101</text>
<text text-anchor="middle" x="158.5" y="-157" font-family="Avenir Next" font-size="10.00" fill="#17232b">Calculus II</text>
</a>
</g>
</g>
<!-- course__MATH100&#45;&gt;course__MATH101 -->
<g id="edge11" class="edge">
<title>course__MATH100&#45;&gt;course__MATH101</title>
<path fill="none" stroke="#5d6972" stroke-width="1.2" d="M64.1,-112.48C80.65,-121.79 101.15,-133.32 118.73,-143.2"/>
<polygon fill="#5d6972" stroke="#5d6972" stroke-width="1.2" points="117.76,-145.47 125.06,-146.76 120.16,-141.2 117.76,-145.47"/>
</g>
<!-- course__PHYS102B -->
<g id="node5" class="node">
<title>course__PHYS102B</title>
<g id="a_node5"><a xlink:href="../../../courses/PHYS102B.html" xlink:title="Collapsed in simplified view: PHYS102B: General Physics II | PHYS111: Introductory Physics II | PHYS130: Physics II" target="_top">
<path fill="#efd8cf" stroke="#1b2730" stroke-width="1.6" d="M331.5,-148C331.5,-148 293.5,-148 293.5,-148 287.5,-148 281.5,-142 281.5,-136 281.5,-136 281.5,-124 281.5,-124 281.5,-118 287.5,-112 293.5,-112 293.5,-112 331.5,-112 331.5,-112 337.5,-112 343.5,-118 343.5,-124 343.5,-124 343.5,-136 343.5,-136 343.5,-142 337.5,-148 331.5,-148"/>
<text text-anchor="middle" x="312.5" y="-127.5" font-family="Avenir Next" font-size="10.00" fill="#17232b">Physics II</text>
</a>
</g>
</g>
<!-- course__MATH100&#45;&gt;course__PHYS102B -->
<g id="edge13" class="edge">
<title>course__MATH100&#45;&gt;course__PHYS102B</title>
<path fill="none" stroke="#5d6972" stroke-width="1.2" d="M64.14,-98.91C115.76,-105.4 218.85,-118.36 274.24,-125.32"/>
<polygon fill="#5d6972" stroke="#5d6972" stroke-width="1.2" points="274.16,-127.78 281.41,-126.22 274.77,-122.91 274.16,-127.78"/>
</g>
<!-- choice_EOS311_0_2 -->
<g id="node11" class="node">
<title>choice_EOS311_0_2</title>
<path fill="#fff7ee" stroke="#b7793f" stroke-width="1.1" d="M327.5,-92C327.5,-92 297.5,-92 297.5,-92 291.5,-92 285.5,-86 285.5,-80 285.5,-80 285.5,-68 285.5,-68 285.5,-62 291.5,-56 297.5,-56 297.5,-56 327.5,-56 327.5,-56 333.5,-56 339.5,-62 339.5,-68 339.5,-68 339.5,-80 339.5,-80 339.5,-86 333.5,-92 327.5,-92"/>
<text text-anchor="middle" x="312.5" y="-71.8" font-family="Avenir Next" font-size="9.00">2 of</text>
</g>
<!-- course__MATH100&#45;&gt;choice_EOS311_0_2 -->
<g id="edge3" class="edge">
<title>course__MATH100&#45;&gt;choice_EOS311_0_2</title>
<path fill="none" stroke="#7a8389" d="M64.14,-92.65C117.01,-88.67 223.87,-80.61 278.18,-76.51"/>
<polygon fill="#7a8389" stroke="#7a8389" points="278.69,-78.93 285.49,-75.96 278.32,-74.04 278.69,-78.93"/>
</g>
<!-- choice_EOS314_0_0 -->
<g id="node12" class="node">
<title>choice_EOS314_0_0</title>
<path fill="#fff7ee" stroke="#b7793f" stroke-width="1.1" d="M327.5,-36C327.5,-36 297.5,-36 297.5,-36 291.5,-36 285.5,-30 285.5,-24 285.5,-24 285.5,-12 285.5,-12 285.5,-6 291.5,0 297.5,0 297.5,0 327.5,0 327.5,0 333.5,0 339.5,-6 339.5,-12 339.5,-12 339.5,-24 339.5,-24 339.5,-30 333.5,-36 327.5,-36"/>
<text text-anchor="middle" x="312.5" y="-15.8" font-family="Avenir Next" font-size="9.00">2 of</text>
</g>
<!-- course__MATH100&#45;&gt;choice_EOS314_0_0 -->
<g id="edge7" class="edge">
<title>course__MATH100&#45;&gt;choice_EOS314_0_0</title>
<path fill="none" stroke="#7a8389" d="M64.14,-86.39C117.12,-71.74 224.31,-42.11 278.52,-27.12"/>
<polygon fill="#7a8389" stroke="#7a8389" points="279.39,-29.42 285.49,-25.19 278.09,-24.7 279.39,-29.42"/>
</g>
<!-- course__EOS210 -->
<g id="node3" class="node">
<title>course__EOS210</title>
<g id="a_node3"><a xlink:href="../../../courses/EOS210.html" xlink:title="Collapsed in simplified view: EOS210: Introductory Geophysics | PHYS210: Introductory Geophysics" target="_top">
<path fill="#d7e9ef" stroke="#1b2730" stroke-width="1.6" d="M349,-302C349,-302 276,-302 276,-302 270,-302 264,-296 264,-290 264,-290 264,-278 264,-278 264,-272 270,-266 276,-266 276,-266 349,-266 349,-266 355,-266 361,-272 361,-278 361,-278 361,-290 361,-290 361,-296 355,-302 349,-302"/>
<text text-anchor="middle" x="312.5" y="-281.5" font-family="Avenir Next" font-size="10.00" fill="#17232b">Intro geophysics</text>
</a>
</g>
</g>
<!-- course__MATH101&#45;&gt;course__EOS210 -->
<g id="edge1" class="edge">
<title>course__MATH101&#45;&gt;course__EOS210</title>
<path fill="none" stroke="#5d6972" stroke-width="1.2" d="M176.71,-183.11C194.7,-201.49 224.28,-230.12 253,-251 258.33,-254.88 264.16,-258.65 270.01,-262.18"/>
<polygon fill="#5d6972" stroke="#5d6972" stroke-width="1.2" points="269.07,-264.47 276.35,-265.9 271.55,-260.24 269.07,-264.47"/>
</g>
<!-- course__MATH200 -->
<g id="node4" class="node">
<title>course__MATH200</title>
<g id="a_node4"><a xlink:href="../../../courses/MATH200.html" xlink:title="Equivalent or cross&#45;listed: MATH200: Calculus III | MATH202: Intermediate Calculus for CSC and EOS" target="_top">
<path fill="#dfe3f4" stroke="#1b2730" stroke-width="1.6" d="M360,-204C360,-204 265,-204 265,-204 259,-204 253,-198 253,-192 253,-192 253,-180 253,-180 253,-174 259,-168 265,-168 265,-168 360,-168 360,-168 366,-168 372,-174 372,-180 372,-180 372,-192 372,-192 372,-198 366,-204 360,-204"/>
<text text-anchor="middle" x="312.5" y="-183.5" font-family="Avenir Next" font-size="10.00" fill="#17232b">MATH200 / MATH202</text>
</a>
</g>
</g>
<!-- course__MATH101&#45;&gt;course__MATH200 -->
<g id="edge12" class="edge">
<title>course__MATH101&#45;&gt;course__MATH200</title>
<path fill="none" stroke="#5d6972" stroke-width="1.2" d="M192.11,-169.51C207.74,-171.66 227.06,-174.33 245.56,-176.89"/>
<polygon fill="#5d6972" stroke="#5d6972" stroke-width="1.2" points="245.61,-179.37 252.88,-177.9 246.28,-174.52 245.61,-179.37"/>
</g>
<!-- course__MATH101&#45;&gt;course__PHYS102B -->
<g id="edge14" class="edge">
<title>course__MATH101&#45;&gt;course__PHYS102B</title>
<path fill="none" stroke="#5d6972" stroke-width="1.2" d="M192.11,-157.49C216.27,-151.93 249.23,-144.34 274.39,-138.54"/>
<polygon fill="#5d6972" stroke="#5d6972" stroke-width="1.2" points="275,-140.92 281.27,-136.96 273.9,-136.14 275,-140.92"/>
</g>
<!-- course__STAT254 -->
<g id="node10" class="node">
<title>course__STAT254</title>
<g id="a_node10"><a xlink:href="../../../courses/STAT254.html" xlink:title="Collapsed in simplified view: STAT254: Probability and Statistics for Engineers | STAT255: Statistics for Life Sciences I | STAT260: Introduction to Probability and Statistics I" target="_top">
<path fill="#e6dde9" stroke="#1b2730" stroke-width="1.6" d="M516,-260C516,-260 454,-260 454,-260 448,-260 442,-254 442,-248 442,-248 442,-236 442,-236 442,-230 448,-224 454,-224 454,-224 516,-224 516,-224 522,-224 528,-230 528,-236 528,-236 528,-248 528,-248 528,-254 522,-260 516,-260"/>
<text text-anchor="middle" x="485" y="-239.5" font-family="Avenir Next" font-size="10.00" fill="#17232b">Intro statistics</text>
</a>
</g>
</g>
<!-- course__MATH101&#45;&gt;course__STAT254 -->
<g id="edge17" class="edge">
<title>course__MATH101&#45;&gt;course__STAT254</title>
<path fill="none" stroke="#5d6972" stroke-width="1.2" d="M187.39,-183.05C205.4,-193.82 229.73,-206.76 253,-214 313.72,-232.89 387.11,-239.14 434.63,-241.15"/>
<polygon fill="#5d6972" stroke="#5d6972" stroke-width="1.2" points="434.65,-243.6 441.74,-241.42 434.84,-238.7 434.65,-243.6"/>
</g>
<!-- course__MATH101&#45;&gt;choice_EOS311_0_2 -->
<g id="edge4" class="edge">
<title>course__MATH101&#45;&gt;choice_EOS311_0_2</title>
<path fill="none" stroke="#7a8389" d="M184.26,-146.86C202.75,-133.68 228.87,-115.8 253,-102 261.26,-97.28 270.43,-92.62 279.02,-88.51"/>
<polygon fill="#7a8389" stroke="#7a8389" points="280.17,-90.67 285.45,-85.47 278.08,-86.24 280.17,-90.67"/>
</g>
<!-- course__MATH101&#45;&gt;choice_EOS314_0_0 -->
<g id="edge8" class="edge">
<title>course__MATH101&#45;&gt;choice_EOS314_0_0</title>
<path fill="none" stroke="#7a8389" d="M170.09,-146.74C185.56,-121.35 216.51,-75.25 253,-46 260.63,-39.88 269.82,-34.69 278.63,-30.51"/>
<polygon fill="#7a8389" stroke="#7a8389" points="279.89,-32.62 285.26,-27.5 277.87,-28.16 279.89,-32.62"/>
</g>
<!-- course__MATH200&#45;&gt;course__STAT254 -->
<g id="edge16" class="edge">
<title>course__MATH200&#45;&gt;course__STAT254</title>
<path fill="none" stroke="#5d6972" stroke-width="1.2" d="M368.39,-204.03C389.81,-211.06 414.19,-219.07 435.01,-225.91"/>
<polygon fill="#5d6972" stroke="#5d6972" stroke-width="1.2" points="434.51,-228.32 441.93,-228.18 436.04,-223.67 434.51,-228.32"/>
</g>
<!-- course__EOS261 -->
<g id="node6" class="node">
<title>course__EOS261</title>
<g id="a_node6"><a xlink:href="../../../courses/EOS261.html" xlink:title="EOS261: The Climate System" target="_top">
<path fill="#d7e9ef" stroke="#1b2730" stroke-width="1.6" d="M500,-148C500,-148 470,-148 470,-148 464,-148 458,-142 458,-136 458,-136 458,-124 458,-124 458,-118 464,-112 470,-112 470,-112 500,-112 500,-112 506,-112 512,-118 512,-124 512,-124 512,-136 512,-136 512,-142 506,-148 500,-148"/>
<text text-anchor="middle" x="485" y="-127.5" font-family="Avenir Next" font-size="10.00" fill="#17232b">EOS261</text>
</a>
</g>
</g>
<!-- course__PHYS102B&#45;&gt;course__EOS261 -->
<g id="edge2" class="edge">
<title>course__PHYS102B&#45;&gt;course__EOS261</title>
<path fill="none" stroke="#5d6972" stroke-width="1.2" d="M343.59,-130C373.59,-130 419.57,-130 450.67,-130"/>
<polygon fill="#5d6972" stroke="#5d6972" stroke-width="1.2" points="450.84,-132.45 457.84,-130 450.84,-127.55 450.84,-132.45"/>
</g>
<!-- course__EOS311 -->
<g id="node7" class="node">
<title>course__EOS311</title>
<g id="a_node7"><a xlink:href="../../../courses/EOS311.html" xlink:title="Equivalent or cross&#45;listed: BIOL311: Biological Oceanography | EOS311: Biological Oceanography" target="_top">
<path fill="#d7e9ef" stroke="#1b2730" stroke-width="1.6" d="M525,-92C525,-92 445,-92 445,-92 439,-92 433,-86 433,-80 433,-80 433,-68 433,-68 433,-62 439,-56 445,-56 445,-56 525,-56 525,-56 531,-56 537,-62 537,-68 537,-68 537,-80 537,-80 537,-86 531,-92 525,-92"/>
<text text-anchor="middle" x="485" y="-71.5" font-family="Avenir Next" font-size="10.00" fill="#17232b">BIOL311 / EOS311</text>
</a>
</g>
</g>
<!-- course__PHYS102B&#45;&gt;course__EOS311 -->
<g id="edge6" class="edge">
<title>course__PHYS102B&#45;&gt;course__EOS311</title>
<path fill="none" stroke="#5d6972" stroke-width="1.2" d="M343.59,-120.12C366.33,-112.65 398.24,-102.17 425.9,-93.08"/>
<polygon fill="#5d6972" stroke="#5d6972" stroke-width="1.2" points="426.94,-95.32 432.83,-90.81 425.41,-90.66 426.94,-95.32"/>
</g>
<!-- course__EOS314 -->
<g id="node8" class="node">
<title>course__EOS314</title>
<g id="a_node8"><a xlink:href="../../../courses/EOS314.html" xlink:title="EOS314: Descriptive Physical Oceanography" target="_top">
<path fill="#d7e9ef" stroke="#1b2730" stroke-width="1.6" d="M500,-36C500,-36 470,-36 470,-36 464,-36 458,-30 458,-24 458,-24 458,-12 458,-12 458,-6 464,0 470,0 470,0 500,0 500,0 506,0 512,-6 512,-12 512,-12 512,-24 512,-24 512,-30 506,-36 500,-36"/>
<text text-anchor="middle" x="485" y="-15.5" font-family="Avenir Next" font-size="10.00" fill="#17232b">EOS314</text>
</a>
</g>
</g>
<!-- course__PHYS102B&#45;&gt;course__EOS314 -->
<g id="edge10" class="edge">
<title>course__PHYS102B&#45;&gt;course__EOS314</title>
<path fill="none" stroke="#5d6972" stroke-width="1.2" d="M343.6,-117.68C353.02,-113.28 363.23,-107.93 372,-102 402.49,-81.39 403.1,-67.46 433,-46 438.79,-41.85 445.25,-37.86 451.59,-34.26"/>
<polygon fill="#5d6972" stroke="#5d6972" stroke-width="1.2" points="452.91,-36.33 457.85,-30.8 450.54,-32.04 452.91,-36.33"/>
</g>
<!-- course__PHYS229 -->
<g id="node9" class="node">
<title>course__PHYS229</title>
<g id="a_node9"><a xlink:href="../../../courses/PHYS229.html" xlink:title="PHYS229: Introduction to Experimental Physics" target="_top">
<path fill="#efd8cf" stroke="#1b2730" stroke-width="1.6" d="M503,-204C503,-204 467,-204 467,-204 461,-204 455,-198 455,-192 455,-192 455,-180 455,-180 455,-174 461,-168 467,-168 467,-168 503,-168 503,-168 509,-168 515,-174 515,-180 515,-180 515,-192 515,-192 515,-198 509,-204 503,-204"/>
<text text-anchor="middle" x="485" y="-183.5" font-family="Avenir Next" font-size="10.00" fill="#17232b">PHYS229</text>
</a>
</g>
</g>
<!-- course__PHYS102B&#45;&gt;course__PHYS229 -->
<g id="edge15" class="edge">
<title>course__PHYS102B&#45;&gt;course__PHYS229</title>
<path fill="none" stroke="#5d6972" stroke-width="1.2" d="M343.59,-139.88C372.74,-149.46 416.97,-163.99 447.98,-174.17"/>
<polygon fill="#5d6972" stroke="#5d6972" stroke-width="1.2" points="447.37,-176.55 454.78,-176.4 448.89,-171.89 447.37,-176.55"/>
</g>
<!-- choice_EOS311_0_2&#45;&gt;course__EOS311 -->
<g id="edge5" class="edge">
<title>choice_EOS311_0_2&#45;&gt;course__EOS311</title>
<path fill="none" stroke="#5d6972" stroke-width="1.2" d="M339.77,-74C362.59,-74 396.47,-74 425.66,-74"/>
<polygon fill="#5d6972" stroke="#5d6972" stroke-width="1.2" points="425.97,-76.45 432.97,-74 425.97,-71.55 425.97,-76.45"/>
</g>
<!-- choice_EOS314_0_0&#45;&gt;course__EOS314 -->
<g id="edge9" class="edge">
<title>choice_EOS314_0_0&#45;&gt;course__EOS314</title>
<path fill="none" stroke="#5d6972" stroke-width="1.2" d="M339.77,-18C369.64,-18 418.47,-18 450.92,-18"/>
<polygon fill="#5d6972" stroke="#5d6972" stroke-width="1.2" points="450.98,-20.45 457.98,-18 450.98,-15.55 450.98,-20.45"/>
</g>
</g>
</svg>
