<?xml version="1.0" encoding="UTF-8" standalone="no"?>
<!DOCTYPE svg PUBLIC "-//W3C//DTD SVG 1.1//EN"
 "http://www.w3.org/Graphics/SVG/1.1/DTD/svg11.dtd">
<!-- Generated by graphviz version 2.43.0 (0)
 -->
<!-- Title: MATH348 Pages: 1 -->
<svg width="751pt" height="180pt"
 viewBox="0.00 0.00 751.20 180.20" xmlns="http://www.w3.org/2000/svg" xmlns:xlink="http://www.w3.org/1999/xlink">
<g id="graph0" class="graph" transform="scale(1 1) rotate(0) translate(21.6 158.6)">
<title>MATH348</title>
<!-- course__MATH200 -->
<g id="node1" class="node">
<title>course__MATH200</title>
<g id="a_node1"><a xlink:href="../../../courses/MATH200.html" xlink:title="Equivalent or cross&#45;listed: MATH200: Calculus III | MATH202: Intermediate Calculus for CSC and EOS" target="_top">
<path fill="#dfe3f4" stroke="#1b2730" stroke-width="1.6" d="M107,-92C107,-92 12,-92 12,-92 6,-92 0,-86 0,-80 0,-80 0,-68 0,-68 0,-62 6,-56 12,-56 12,-56 107,-56 107,-56 113,-56 119,-62 119,-68 119,-68 119,-80 119,-80 119,-86 113,-92 107,-92"/>
<text text-anchor="middle" x="59.5" y="-71.5" font-family="Avenir Next" font-size="10.00" fill="#17232b">MATH200 / MATH202</text>
</a>
</g>
</g>
<!-- course__MATH204 -->
<g id="node3" class="node">
<title>course__MATH204</title>
<g id="a_node3"><a xlink:href="../../../courses/MATH204.html" xlink:title="MATH204: Calculus IV" target="_top">
<path fill="#dfe3f4" stroke="#1b2730" stroke-width="1.6" d="M257.5,-137C257.5,-137 218.5,-137 218.5,-137 212.5,-137 206.5,-131 206.5,-125 206.5,-125 206.5,-113 206.5,-113 206.5,-107 212.5,-101 218.5,-101 218.5,-101 257.5,-101 257.5,-101 263.5,-101 269.5,-107 269.5,-113 269.5,-113 269.5,-125 269.5,-125 269.5,-131 263.5,-137 257.5,-137"/>
<text text-anchor="middle" x="238" y="-116.5" font-family="Avenir Next" font-size="10.00" fill="#17232b">MATH204</text>
</a>
</g>
</g>
<!-- course__MATH200&#45;&gt;course__MATH204 -->
<g id="edge1" class="edge">
<title>course__MATH200&#45;&gt;course__MATH204</title>
<path fill="none" stroke="#5d6972" stroke-width="1.2" d="M119.27,-88.98C145.63,-95.7 175.95,-103.43 199.21,-109.37"/>
<polygon fill="#5d6972" stroke="#5d6972" stroke-width="1.2" points="198.81,-111.79 206.2,-111.15 200.02,-107.04 198.81,-111.79"/>
</g>
<!-- course__MATH248 -->
<g id="node4" class="node">
<title>course__MATH248</title>
<g id="a_node4"><a xlink:href="../../../courses/MATH248.html" xlink:title="Equivalent or cross&#45;listed: MATH248: Computer Assisted Mathematics | PHYS248: Computer Assisted Physics" target="_top">
<path fill="#dfe3f4" stroke="#1b2730" stroke-width="1.6" d="M284,-39C284,-39 192,-39 192,-39 186,-39 180,-33 180,-27 180,-27 180,-15 180,-15 180,-9 186,-3 192,-3 192,-3 284,-3 284,-3 290,-3 296,-9 296,-15 296,-15 296,-27 296,-27 296,-33 290,-39 284,-39"/>
<text text-anchor="middle" x="238" y="-18.5" font-family="Avenir Next" font-size="10.00" fill="#17232b">MATH248 / PHYS248</text>
</a>
</g>
</g>
<!-- course__MATH200&#45;&gt;course__MATH248 -->
<g id="edge3" class="edge">
<title>course__MATH200&#45;&gt;course__MATH248</title>
<path fill="none" stroke="#5d6972" stroke-width="1.2" d="M119.27,-56.35C136.54,-51.17 155.5,-45.47 173.07,-40.2"/>
<polygon fill="#5d6972" stroke="#5d6972" stroke-width="1.2" points="173.98,-42.48 179.98,-38.12 172.57,-37.79 173.98,-42.48"/>
</g>
<!-- choice_MATH348_0_2 -->
<g id="node7" class="node">
<title>choice_MATH348_0_2</title>
<path fill="#fff7ee" stroke="#b7793f" stroke-width="1.1" d="M399,-88C399,-88 369,-88 369,-88 363,-88 357,-82 357,-76 357,-76 357,-64 357,-64 357,-58 363,-52 369,-52 369,-52 399,-52 399,-52 405,-52 411,-58 411,-64 411,-64 411,-76 411,-76 411,-82 405,-88 399,-88"/>
<text text-anchor="middle" x="384" y="-67.8" font-family="Avenir Next" font-size="9.00">1 of</text>
</g>
<!-- course__MATH200&#45;&gt;choice_MATH348_0_2 -->
<g id="edge4" class="edge">
<title>course__MATH200&#45;&gt;choice_MATH348_0_2</title>
<path fill="none" stroke="#7a8389" d="M119.28,-73.27C186.78,-72.43 295.18,-71.09 349.58,-70.41"/>
<polygon fill="#7a8389" stroke="#7a8389" points="349.92,-72.86 356.89,-70.32 349.86,-67.96 349.92,-72.86"/>
</g>
<!-- course__MATH211 -->
<g id="node2" class="node">
<title>course__MATH211</title>
<g id="a_node2"><a xlink:href="../../../courses/MATH211.html" xlink:title="MATH211: Matrix Algebra I" target="_top">
<path fill="#dfe3f4" stroke="#1b2730" stroke-width="1.6" d="M79,-36C79,-36 40,-36 40,-36 34,-36 28,-30 28,-24 28,-24 28,-12 28,-12 28,-6 34,0 40,0 40,0 79,0 79,0 85,0 91,-6 91,-12 91,-12 91,-24 91,-24 91,-30 85,-36 79,-36"/>
<text text-anchor="middle" x="59.5" y="-15.5" font-family="Avenir Next" font-size="10.00" fill="#17232b">MATH211</text>
</a>
</g>
</g>
<!-- course__MATH211&#45;&gt;course__MATH248 -->
<g id="edge2" class="edge">
<title>course__MATH211&#45;&gt;course__MATH248</title>
<path fill="none" stroke="#5d6972" stroke-width="1.2" d="M91.24,-18.52C113.64,-18.9 144.78,-19.43 172.54,-19.9"/>
<polygon fill="#5d6972" stroke="#5d6972" stroke-width="1.2" points="172.85,-22.36 179.89,-20.03 172.93,-17.46 172.85,-22.36"/>
</g>
<!-- course__MATH204&#45;&gt;choice_MATH348_0_2 -->
<g id="edge5" class="edge">
<title>course__MATH204&#45;&gt;choice_MATH348_0_2</title>
<path fill="none" stroke="#7a8389" d="M269.54,-108.61C293.13,-100.58 325.74,-89.48 349.94,-81.25"/>
<polygon fill="#7a8389" stroke="#7a8389" points="351.01,-83.47 356.85,-78.9 349.43,-78.83 351.01,-83.47"/>
</g>
<!-- course__MATH348 -->
<g id="node5" class="node">
<title>course__MATH348</title>
<g id="a_node5"><a xlink:href="../../../courses/MATH348.html" xlink:title="MATH348: Numerical Methods" target="_top">
<path fill="#dfe3f4" stroke="#1f4f66" stroke-width="2" d="M572,-63C572,-63 484,-63 484,-63 478,-63 472,-57 472,-51 472,-51 472,-39 472,-39 472,-33 478,-27 484,-27 484,-27 572,-27 572,-27 578,-27 584,-33 584,-39 584,-39 584,-51 584,-51 584,-57 578,-63 572,-63"/>
<text text-anchor="middle" x="528" y="-48" font-family="Avenir Next" font-size="10.00" fill="#17232b">MATH348</text>
<text text-anchor="middle" x="528" y="-37" font-family="Avenir Next" font-size="10.00" fill="#17232b">Numerical Methods</text>
</a>
</g>
</g>
<!-- course__MATH248&#45;&gt;course__MATH348 -->
<g id="edge6" class="edge">
<title>course__MATH248&#45;&gt;course__MATH348</title>
<path fill="none" stroke="#5d6972" stroke-width="1.2" d="M296.24,-25.77C344.87,-29.82 414.54,-35.63 464.58,-39.8"/>
<polygon fill="#5d6972" stroke="#5d6972" stroke-width="1.2" points="464.64,-42.26 471.82,-40.4 465.05,-37.38 464.64,-42.26"/>
</g>
<!-- course__MATH449 -->
<g id="node6" class="node">
<title>course__MATH449</title>
<g id="a_node6"><a xlink:href="../../../courses/MATH449.html" xlink:title="MATH449: Scientific Computing" target="_top">
<path fill="#dfe3f4" stroke="#1b2730" stroke-width="1.6" d="M696,-63C696,-63 657,-63 657,-63 651,-63 645,-57 645,-51 645,-51 645,-39 645,-39 645,-33 651,-27 657,-27 657,-27 696,-27 696,-27 702,-27 708,-33 708,-39 708,-39 708,-51 708,-51 708,-57 702,-63 696,-63"/>
<text text-anchor="middle" x="676.5" y="-42.5" font-family="Avenir Next" font-size="10.00" fill="#17232b">MATH449</text>
</a>
</g>
</g>
<!-- course__MATH348&#45;&gt;course__MATH449 -->
<g id="edge8" class="edge">
<title>course__MATH348&#45;&gt;course__MATH449</title>
<path fill="none" stroke="#5d6972" stroke-width="1.2" d="M584.39,-45C602.09,-45 621.28,-45 637.46,-45"/>
<polygon fill="#5d6972" stroke="#5d6972" stroke-width="1.2" points="637.67,-47.45 644.67,-45 637.67,-42.55 637.67,-47.45"/>
</g>
<!-- choice_MATH348_0_2&#45;&gt;course__MATH348 -->
<g id="edge7" class="edge">
<title>choice_MATH348_0_2&#45;&gt;course__MATH348</title>
<path fill="none" stroke="#5d6972" stroke-width="1.2" d="M411.04,-65.41C426.16,-62.75 445.9,-59.28 464.79,-55.95"/>
<polygon fill="#5d6972" stroke="#5d6972" stroke-width="1.2" points="465.24,-58.36 471.71,-54.73 464.39,-53.54 465.24,-58.36"/>
</g>
</g>
</svg>
