<?xml version="1.0" encoding="UTF-8" standalone="no"?>
<!DOCTYPE svg PUBLIC "-//W3C//DTD SVG 1.1//EN"
 "http://www.w3.org/Graphics/SVG/1.1/DTD/svg11.dtd">
<!-- Generated by graphviz version 2.43.0 (0)
 -->
<!-- Title: MATH301 Pages: 1 -->
<svg width="455pt" height="79pt"
 viewBox="0.00 0.00 455.20 79.20" xmlns="http://www.w3.org/2000/svg" xmlns:xlink="http://www.w3.org/1999/xlink">
<g id="graph0" class="graph" transform="scale(1 1) rotate(0) translate(21.6 57.6)">
<title>MATH301</title>
<!-- course__MATH200 -->
<g id="node1" class="node">
<title>course__MATH200</title>
<g id="a_node1"><a xlink:href="../../../courses/MATH200.html" xlink:title="Equivalent or cross&#45;listed: MATH200: Calculus III | MATH202: Intermediate Calculus for CSC and EOS" target="_top">
<path fill="#dfe3f4" stroke="#1b2730" stroke-width="1.6" d="M107,-36C107,-36 12,-36 12,-36 6,-36 0,-30 0,-24 0,-24 0,-12 0,-12 0,-6 6,0 12,0 12,0 107,0 107,0 113,0 119,-6 119,-12 119,-12 119,-24 119,-24 119,-30 113,-36 107,-36"/>
<text text-anchor="middle" x="59.5" y="-15.5" font-family="Avenir Next" font-size="10.00" fill="#17232b">MATH200 / MATH202</text>
</a>
</g>
</g>
<!-- course__MATH204 -->
<g id="node2" class="node">
<title>course__MATH204</title>
<g id="a_node2"><a xlink:href="../../../courses/MATH204.html" xlink:title="MATH204: Calculus IV" target="_top">
<path fill="#dfe3f4" stroke="#1b2730" stroke-width="1.6" d="M231,-36C231,-36 192,-36 192,-36 186,-36 180,-30 180,-24 180,-24 180,-12 180,-12 180,-6 186,0 192,0 192,0 231,0 231,0 237,0 243,-6 243,-12 243,-12 243,-24 243,-24 243,-30 237,-36 231,-36"/>
<text text-anchor="middle" x="211.5" y="-15.5" font-family="Avenir Next" font-size="10.00" fill="#17232b">MATH204</text>
</a>
</g>
</g>
<!-- course__MATH200&#45;&gt;course__MATH204 -->
<g id="edge1" class="edge">
<title>course__MATH200&#45;&gt;course__MATH204</title>
<path fill="none" stroke="#5d6972" stroke-width="1.2" d="M119.35,-18C137.29,-18 156.52,-18 172.67,-18"/>
<polygon fill="#5d6972" stroke="#5d6972" stroke-width="1.2" points="172.86,-20.45 179.86,-18 172.86,-15.55 172.86,-20.45"/>
</g>
<!-- course__MATH301 -->
<g id="node3" class="node">
<title>course__MATH301</title>
<g id="a_node3"><a xlink:href="../../../courses/MATH301.html" xlink:title="MATH301: Complex Variables" target="_top">
<path fill="#dfe3f4" stroke="#1f4f66" stroke-width="2" d="M400,-36C400,-36 316,-36 316,-36 310,-36 304,-30 304,-24 304,-24 304,-12 304,-12 304,-6 310,0 316,0 316,0 400,0 400,0 406,0 412,-6 412,-12 412,-12 412,-24 412,-24 412,-30 406,-36 400,-36"/>
<text text-anchor="middle" x="358" y="-21" font-family="Avenir Next" font-size="10.00" fill="#17232b">MATH301</text>
<text text-anchor="middle" x="358" y="-10" font-family="Avenir Next" font-size="10.00" fill="#17232b">Complex Variables</text>
</a>
</g>
</g>
<!-- course__MATH204&#45;&gt;course__MATH301 -->
<g id="edge2" class="edge">
<title>course__MATH204&#45;&gt;course__MATH301</title>
<path fill="none" stroke="#5d6972" stroke-width="1.2" d="M243.14,-18C258.72,-18 278.22,-18 296.65,-18"/>
<polygon fill="#5d6972" stroke="#5d6972" stroke-width="1.2" points="296.92,-20.45 303.92,-18 296.92,-15.55 296.92,-20.45"/>
</g>
</g>
</svg>
