<?xml version="1.0" encoding="UTF-8" standalone="no"?>
<!DOCTYPE svg PUBLIC "-//W3C//DTD SVG 1.1//EN"
 "http://www.w3.org/Graphics/SVG/1.1/DTD/svg11.dtd">
<!-- Generated by graphviz version 2.43.0 (0)
 -->
<!-- Title: MATH200 Pages: 1 -->
<svg width="752pt" height="555pt"
 viewBox="0.00 0.00 752.20 555.20" xmlns="http://www.w3.org/2000/svg" xmlns:xlink="http://www.w3.org/1999/xlink">
<g id="graph0" class="graph" transform="scale(1 1) rotate(0) translate(21.6 533.6)">
<title>MATH200</title>
<!-- course__MATH101 -->
<g id="node1" class="node">
<title>course__MATH101</title>
<g id="a_node1"><a xlink:href="../../../courses/MATH101.html" xlink:title="MATH101: Calculus II" target="_top">
<path fill="#dfe3f4" stroke="#1b2730" stroke-width="1.6" d="M51,-312C51,-312 12,-312 12,-312 6,-312 0,-306 0,-300 0,-300 0,-288 0,-288 0,-282 6,-276 12,-276 12,-276 51,-276 51,-276 57,-276 63,-282 63,-288 63,-288 63,-300 63,-300 63,-306 57,-312 51,-312"/>
<text text-anchor="middle" x="31.5" y="-291.5" font-family="Avenir Next" font-size="10.00" fill="#17232b">MATH101</text>
</a>
</g>
</g>
<!-- course__MATH200 -->
<g id="node2" class="node">
<title>course__MATH200</title>
<g id="a_node2"><a xlink:href="../../../courses/MATH200.html" xlink:title="Equivalent or cross&#45;listed: MATH200: Calculus III | MATH202: Intermediate Calculus for CSC and EOS" target="_top">
<path fill="#dfe3f4" stroke="#1f4f66" stroke-width="2" d="M231,-288C231,-288 136,-288 136,-288 130,-288 124,-282 124,-276 124,-276 124,-264 124,-264 124,-258 130,-252 136,-252 136,-252 231,-252 231,-252 237,-252 243,-258 243,-264 243,-264 243,-276 243,-276 243,-282 237,-288 231,-288"/>
<text text-anchor="middle" x="183.5" y="-273" font-family="Avenir Next" font-size="10.00" fill="#17232b">MATH200 / MATH202</text>
<text text-anchor="middle" x="183.5" y="-262" font-family="Avenir Next" font-size="10.00" fill="#17232b">Calculus III</text>
</a>
</g>
</g>
<!-- course__MATH101&#45;&gt;course__MATH200 -->
<g id="edge7" class="edge">
<title>course__MATH101&#45;&gt;course__MATH200</title>
<path fill="none" stroke="#5d6972" stroke-width="1.2" d="M63.22,-289.09C78.65,-286.62 97.99,-283.52 116.57,-280.55"/>
<polygon fill="#5d6972" stroke="#5d6972" stroke-width="1.2" points="117.39,-282.9 123.92,-279.37 116.62,-278.06 117.39,-282.9"/>
</g>
<!-- course__STAT254 -->
<g id="node6" class="node">
<title>course__STAT254</title>
<g id="a_node6"><a xlink:href="../../../courses/STAT254.html" xlink:title="Collapsed in simplified view: STAT254: Probability and Statistics for Engineers | STAT255: Statistics for Life Sciences I | STAT260: Introduction to Probability and Statistics I" target="_top">
<path fill="#e6dde9" stroke="#1b2730" stroke-width="1.6" d="M393,-512C393,-512 331,-512 331,-512 325,-512 319,-506 319,-500 319,-500 319,-488 319,-488 319,-482 325,-476 331,-476 331,-476 393,-476 393,-476 399,-476 405,-482 405,-488 405,-488 405,-500 405,-500 405,-506 399,-512 393,-512"/>
<text text-anchor="middle" x="362" y="-491.5" font-family="Avenir Next" font-size="10.00" fill="#17232b">Intro statistics</text>
</a>
</g>
</g>
<!-- course__MATH101&#45;&gt;course__STAT254 -->
<g id="edge27" class="edge">
<title>course__MATH101&#45;&gt;course__STAT254</title>
<path fill="none" stroke="#5d6972" stroke-width="1.2" d="M61.28,-312.05C110.68,-342.95 214.9,-407.82 304,-461 310.19,-464.69 316.78,-468.57 323.2,-472.31"/>
<polygon fill="#5d6972" stroke="#5d6972" stroke-width="1.2" points="322.27,-474.6 329.55,-475.99 324.73,-470.36 322.27,-474.6"/>
</g>
<!-- course__MATH204 -->
<g id="node3" class="node">
<title>course__MATH204</title>
<g id="a_node3"><a xlink:href="../../../courses/MATH204.html" xlink:title="MATH204: Calculus IV" target="_top">
<path fill="#dfe3f4" stroke="#1b2730" stroke-width="1.6" d="M381.5,-232C381.5,-232 342.5,-232 342.5,-232 336.5,-232 330.5,-226 330.5,-220 330.5,-220 330.5,-208 330.5,-208 330.5,-202 336.5,-196 342.5,-196 342.5,-196 381.5,-196 381.5,-196 387.5,-196 393.5,-202 393.5,-208 393.5,-208 393.5,-220 393.5,-220 393.5,-226 387.5,-232 381.5,-232"/>
<text text-anchor="middle" x="362" y="-211.5" font-family="Avenir Next" font-size="10.00" fill="#17232b">MATH204</text>
</a>
</g>
</g>
<!-- course__MATH200&#45;&gt;course__MATH204 -->
<g id="edge8" class="edge">
<title>course__MATH200&#45;&gt;course__MATH204</title>
<path fill="none" stroke="#5d6972" stroke-width="1.2" d="M241.32,-251.97C268.28,-243.42 299.75,-233.43 323.65,-225.85"/>
<polygon fill="#5d6972" stroke="#5d6972" stroke-width="1.2" points="324.57,-228.13 330.5,-223.68 323.09,-223.46 324.57,-228.13"/>
</g>
<!-- course__MATH248 -->
<g id="node4" class="node">
<title>course__MATH248</title>
<g id="a_node4"><a xlink:href="../../../courses/MATH248.html" xlink:title="Equivalent or cross&#45;listed: MATH248: Computer Assisted Mathematics | PHYS248: Computer Assisted Physics" target="_top">
<path fill="#dfe3f4" stroke="#1b2730" stroke-width="1.6" d="M408,-36C408,-36 316,-36 316,-36 310,-36 304,-30 304,-24 304,-24 304,-12 304,-12 304,-6 310,0 316,0 316,0 408,0 408,0 414,0 420,-6 420,-12 420,-12 420,-24 420,-24 420,-30 414,-36 408,-36"/>
<text text-anchor="middle" x="362" y="-15.5" font-family="Avenir Next" font-size="10.00" fill="#17232b">MATH248 / PHYS248</text>
</a>
</g>
</g>
<!-- course__MATH200&#45;&gt;course__MATH248 -->
<g id="edge9" class="edge">
<title>course__MATH200&#45;&gt;course__MATH248</title>
<path fill="none" stroke="#5d6972" stroke-width="1.2" d="M191.12,-251.71C206.16,-212.1 246.15,-116.96 304,-55 309.12,-49.52 315.21,-44.48 321.47,-40"/>
<polygon fill="#5d6972" stroke="#5d6972" stroke-width="1.2" points="322.85,-42.02 327.25,-36.05 320.09,-37.98 322.85,-42.02"/>
</g>
<!-- course__PHYS216 -->
<g id="node5" class="node">
<title>course__PHYS216</title>
<g id="a_node5"><a xlink:href="../../../courses/PHYS216.html" xlink:title="PHYS216: Introductory Electricity and Magnetism" target="_top">
<path fill="#efd8cf" stroke="#1b2730" stroke-width="1.6" d="M380,-288C380,-288 344,-288 344,-288 338,-288 332,-282 332,-276 332,-276 332,-264 332,-264 332,-258 338,-252 344,-252 344,-252 380,-252 380,-252 386,-252 392,-258 392,-264 392,-264 392,-276 392,-276 392,-282 386,-288 380,-288"/>
<text text-anchor="middle" x="362" y="-267.5" font-family="Avenir Next" font-size="10.00" fill="#17232b">PHYS216</text>
</a>
</g>
</g>
<!-- course__MATH200&#45;&gt;course__PHYS216 -->
<g id="edge25" class="edge">
<title>course__MATH200&#45;&gt;course__PHYS216</title>
<path fill="none" stroke="#5d6972" stroke-width="1.2" d="M243.27,-270C270.17,-270 301.2,-270 324.65,-270"/>
<polygon fill="#5d6972" stroke="#5d6972" stroke-width="1.2" points="324.67,-272.45 331.67,-270 324.67,-267.55 324.67,-272.45"/>
</g>
<!-- course__MATH200&#45;&gt;course__STAT254 -->
<g id="edge26" class="edge">
<title>course__MATH200&#45;&gt;course__STAT254</title>
<path fill="none" stroke="#5d6972" stroke-width="1.2" d="M192.15,-288.06C208.32,-324.49 249.01,-407.86 304,-461 308.05,-464.91 312.65,-468.54 317.43,-471.85"/>
<polygon fill="#5d6972" stroke="#5d6972" stroke-width="1.2" points="316.37,-474.08 323.57,-475.86 319.05,-469.98 316.37,-474.08"/>
</g>
<!-- course__MATH352 -->
<g id="node13" class="node">
<title>course__MATH352</title>
<g id="a_node13"><a xlink:href="../../../courses/MATH352.html" xlink:title="Equivalent or cross&#45;listed: MATH352: Introduction to Probability | STAT350: Mathematical Statistics I" target="_top">
<path fill="#dfe3f4" stroke="#1b2730" stroke-width="1.6" d="M697,-491C697,-491 608,-491 608,-491 602,-491 596,-485 596,-479 596,-479 596,-467 596,-467 596,-461 602,-455 608,-455 608,-455 697,-455 697,-455 703,-455 709,-461 709,-467 709,-467 709,-479 709,-479 709,-485 703,-491 697,-491"/>
<text text-anchor="middle" x="652.5" y="-470.5" font-family="Avenir Next" font-size="10.00" fill="#17232b">MATH352 / STAT350</text>
</a>
</g>
</g>
<!-- course__MATH200&#45;&gt;course__MATH352 -->
<g id="edge21" class="edge">
<title>course__MATH200&#45;&gt;course__MATH352</title>
<path fill="none" stroke="#5d6972" stroke-width="1.2" d="M209.17,-288.24C232.67,-305.05 269.5,-329.9 304,-347 399.81,-394.48 518.11,-433.53 589.04,-455.01"/>
<polygon fill="#5d6972" stroke="#5d6972" stroke-width="1.2" points="588.35,-457.36 595.76,-457.04 589.76,-452.67 588.35,-457.36"/>
</g>
<!-- choice_EOS325_0_0 -->
<g id="node15" class="node">
<title>choice_EOS325_0_0</title>
<path fill="#fff7ee" stroke="#b7793f" stroke-width="1.1" d="M523,-323C523,-323 493,-323 493,-323 487,-323 481,-317 481,-311 481,-311 481,-299 481,-299 481,-293 487,-287 493,-287 493,-287 523,-287 523,-287 529,-287 535,-293 535,-299 535,-299 535,-311 535,-311 535,-317 529,-323 523,-323"/>
<text text-anchor="middle" x="508" y="-302.8" font-family="Avenir Next" font-size="9.00">1 of</text>
</g>
<!-- course__MATH200&#45;&gt;choice_EOS325_0_0 -->
<g id="edge1" class="edge">
<title>course__MATH200&#45;&gt;choice_EOS325_0_0</title>
<path fill="none" stroke="#7a8389" d="M243.03,-286.13C262.3,-290.78 283.93,-295.33 304,-298 363.4,-305.91 433.38,-306.4 473.73,-305.84"/>
<polygon fill="#7a8389" stroke="#7a8389" points="473.95,-308.29 480.91,-305.72 473.87,-303.39 473.95,-308.29"/>
</g>
<!-- choice_EOS440_0_1 -->
<g id="node16" class="node">
<title>choice_EOS440_0_1</title>
<path fill="#fff7ee" stroke="#b7793f" stroke-width="1.1" d="M523,-183C523,-183 493,-183 493,-183 487,-183 481,-177 481,-171 481,-171 481,-159 481,-159 481,-153 487,-147 493,-147 493,-147 523,-147 523,-147 529,-147 535,-153 535,-159 535,-159 535,-171 535,-171 535,-177 529,-183 523,-183"/>
<text text-anchor="middle" x="508" y="-162.8" font-family="Avenir Next" font-size="9.00">1 of</text>
</g>
<!-- course__MATH200&#45;&gt;choice_EOS440_0_1 -->
<g id="edge4" class="edge">
<title>course__MATH200&#45;&gt;choice_EOS440_0_1</title>
<path fill="none" stroke="#7a8389" d="M203.4,-251.98C225.57,-232.06 264.33,-200.83 304,-186 360.82,-164.75 432.44,-162.53 473.65,-163.39"/>
<polygon fill="#7a8389" stroke="#7a8389" points="473.67,-165.84 480.73,-163.58 473.8,-160.95 473.67,-165.84"/>
</g>
<!-- choice_MATH342_0_1 -->
<g id="node17" class="node">
<title>choice_MATH342_0_1</title>
<path fill="#fff7ee" stroke="#b7793f" stroke-width="1.1" d="M523,-127C523,-127 493,-127 493,-127 487,-127 481,-121 481,-115 481,-115 481,-103 481,-103 481,-97 487,-91 493,-91 493,-91 523,-91 523,-91 529,-91 535,-97 535,-103 535,-103 535,-115 535,-115 535,-121 529,-127 523,-127"/>
<text text-anchor="middle" x="508" y="-106.8" font-family="Avenir Next" font-size="9.00">1 of</text>
</g>
<!-- course__MATH200&#45;&gt;choice_MATH342_0_1 -->
<g id="edge11" class="edge">
<title>course__MATH200&#45;&gt;choice_MATH342_0_1</title>
<path fill="none" stroke="#7a8389" d="M199.02,-251.61C219.65,-226.76 259.9,-182.81 304,-159 358.99,-129.31 431.83,-116.94 473.64,-112.02"/>
<polygon fill="#7a8389" stroke="#7a8389" points="474.14,-114.43 480.82,-111.22 473.59,-109.56 474.14,-114.43"/>
</g>
<!-- choice_MATH346_0_1 -->
<g id="node18" class="node">
<title>choice_MATH346_0_1</title>
<path fill="#fff7ee" stroke="#b7793f" stroke-width="1.1" d="M523,-379C523,-379 493,-379 493,-379 487,-379 481,-373 481,-367 481,-367 481,-355 481,-355 481,-349 487,-343 493,-343 493,-343 523,-343 523,-343 529,-343 535,-349 535,-355 535,-355 535,-367 535,-367 535,-373 529,-379 523,-379"/>
<text text-anchor="middle" x="508" y="-358.8" font-family="Avenir Next" font-size="9.00">1 of</text>
</g>
<!-- course__MATH200&#45;&gt;choice_MATH346_0_1 -->
<g id="edge14" class="edge">
<title>course__MATH200&#45;&gt;choice_MATH346_0_1</title>
<path fill="none" stroke="#7a8389" d="M225.67,-288.1C248.45,-297.62 277.44,-308.95 304,-317 362.77,-334.8 433.17,-348.39 473.73,-355.49"/>
<polygon fill="#7a8389" stroke="#7a8389" points="473.38,-357.92 480.7,-356.7 474.22,-353.09 473.38,-357.92"/>
</g>
<!-- choice_MATH348_0_2 -->
<g id="node19" class="node">
<title>choice_MATH348_0_2</title>
<path fill="#fff7ee" stroke="#b7793f" stroke-width="1.1" d="M523,-71C523,-71 493,-71 493,-71 487,-71 481,-65 481,-59 481,-59 481,-47 481,-47 481,-41 487,-35 493,-35 493,-35 523,-35 523,-35 529,-35 535,-41 535,-47 535,-47 535,-59 535,-59 535,-65 529,-71 523,-71"/>
<text text-anchor="middle" x="508" y="-50.8" font-family="Avenir Next" font-size="9.00">1 of</text>
</g>
<!-- course__MATH200&#45;&gt;choice_MATH348_0_2 -->
<g id="edge17" class="edge">
<title>course__MATH200&#45;&gt;choice_MATH348_0_2</title>
<path fill="none" stroke="#7a8389" d="M193.69,-251.87C210.92,-219.71 251.15,-152.62 304,-116 356.62,-79.55 431.13,-63.57 473.71,-57.06"/>
<polygon fill="#7a8389" stroke="#7a8389" points="474.2,-59.46 480.77,-56.02 473.49,-54.61 474.2,-59.46"/>
</g>
<!-- course__MATH301 -->
<g id="node9" class="node">
<title>course__MATH301</title>
<g id="a_node9"><a xlink:href="../../../courses/MATH301.html" xlink:title="MATH301: Complex Variables" target="_top">
<path fill="#dfe3f4" stroke="#1b2730" stroke-width="1.6" d="M672,-232C672,-232 633,-232 633,-232 627,-232 621,-226 621,-220 621,-220 621,-208 621,-208 621,-202 627,-196 633,-196 633,-196 672,-196 672,-196 678,-196 684,-202 684,-208 684,-208 684,-220 684,-220 684,-226 678,-232 672,-232"/>
<text text-anchor="middle" x="652.5" y="-211.5" font-family="Avenir Next" font-size="10.00" fill="#17232b">MATH301</text>
</a>
</g>
</g>
<!-- course__MATH204&#45;&gt;course__MATH301 -->
<g id="edge10" class="edge">
<title>course__MATH204&#45;&gt;course__MATH301</title>
<path fill="none" stroke="#5d6972" stroke-width="1.2" d="M393.6,-214C446.73,-214 555.86,-214 613.65,-214"/>
<polygon fill="#5d6972" stroke="#5d6972" stroke-width="1.2" points="613.78,-216.45 620.78,-214 613.78,-211.55 613.78,-216.45"/>
</g>
<!-- course__MATH377 -->
<g id="node14" class="node">
<title>course__MATH377</title>
<g id="a_node14"><a xlink:href="../../../courses/MATH377.html" xlink:title="MATH377: Mathematical Modelling" target="_top">
<path fill="#dfe3f4" stroke="#1b2730" stroke-width="1.6" d="M672,-288C672,-288 633,-288 633,-288 627,-288 621,-282 621,-276 621,-276 621,-264 621,-264 621,-258 627,-252 633,-252 633,-252 672,-252 672,-252 678,-252 684,-258 684,-264 684,-264 684,-276 684,-276 684,-282 678,-288 672,-288"/>
<text text-anchor="middle" x="652.5" y="-267.5" font-family="Avenir Next" font-size="10.00" fill="#17232b">MATH377</text>
</a>
</g>
</g>
<!-- course__MATH204&#45;&gt;course__MATH377 -->
<g id="edge23" class="edge">
<title>course__MATH204&#45;&gt;course__MATH377</title>
<path fill="none" stroke="#5d6972" stroke-width="1.2" d="M393.6,-219.94C446.73,-230.25 555.86,-251.43 613.65,-262.65"/>
<polygon fill="#5d6972" stroke="#5d6972" stroke-width="1.2" points="613.44,-265.11 620.78,-264.04 614.37,-260.3 613.44,-265.11"/>
</g>
<!-- course__MATH204&#45;&gt;choice_EOS325_0_0 -->
<g id="edge2" class="edge">
<title>course__MATH204&#45;&gt;choice_EOS325_0_0</title>
<path fill="none" stroke="#7a8389" d="M393.68,-227.89C402.35,-232.13 411.69,-237 420,-242 440.21,-254.16 461.68,-269.68 478.24,-282.27"/>
<polygon fill="#7a8389" stroke="#7a8389" points="477.06,-284.46 484.11,-286.77 480.04,-280.57 477.06,-284.46"/>
</g>
<!-- course__MATH204&#45;&gt;choice_EOS440_0_1 -->
<g id="edge5" class="edge">
<title>course__MATH204&#45;&gt;choice_EOS440_0_1</title>
<path fill="none" stroke="#7a8389" d="M393.54,-203.61C417.13,-195.58 449.74,-184.48 473.94,-176.25"/>
<polygon fill="#7a8389" stroke="#7a8389" points="475.01,-178.47 480.85,-173.9 473.43,-173.83 475.01,-178.47"/>
</g>
<!-- course__MATH204&#45;&gt;choice_MATH342_0_1 -->
<g id="edge12" class="edge">
<title>course__MATH204&#45;&gt;choice_MATH342_0_1</title>
<path fill="none" stroke="#7a8389" d="M387.75,-195.95C412.28,-178.07 449.89,-150.65 476.3,-131.39"/>
<polygon fill="#7a8389" stroke="#7a8389" points="477.87,-133.27 482.09,-127.17 474.99,-129.31 477.87,-133.27"/>
</g>
<!-- course__MATH204&#45;&gt;choice_MATH346_0_1 -->
<g id="edge15" class="edge">
<title>course__MATH204&#45;&gt;choice_MATH346_0_1</title>
<path fill="none" stroke="#7a8389" d="M393.51,-225.39C402.65,-229.71 412.28,-235.25 420,-242 456.66,-274.05 450.78,-294.82 481,-333 482.23,-334.56 483.54,-336.14 484.87,-337.71"/>
<polygon fill="#7a8389" stroke="#7a8389" points="483.05,-339.35 489.51,-342.99 486.73,-336.12 483.05,-339.35"/>
</g>
<!-- course__MATH204&#45;&gt;choice_MATH348_0_2 -->
<g id="edge18" class="edge">
<title>course__MATH204&#45;&gt;choice_MATH348_0_2</title>
<path fill="none" stroke="#7a8389" d="M378.9,-195.81C401.45,-170.09 444.07,-121.68 481,-81 482.38,-79.48 483.81,-77.92 485.25,-76.35"/>
<polygon fill="#7a8389" stroke="#7a8389" points="487.21,-77.83 490.16,-71.02 483.61,-74.51 487.21,-77.83"/>
</g>
<!-- course__MATH348 -->
<g id="node12" class="node">
<title>course__MATH348</title>
<g id="a_node12"><a xlink:href="../../../courses/MATH348.html" xlink:title="MATH348: Numerical Methods" target="_top">
<path fill="#dfe3f4" stroke="#1b2730" stroke-width="1.6" d="M672,-43C672,-43 633,-43 633,-43 627,-43 621,-37 621,-31 621,-31 621,-19 621,-19 621,-13 627,-7 633,-7 633,-7 672,-7 672,-7 678,-7 684,-13 684,-19 684,-19 684,-31 684,-31 684,-37 678,-43 672,-43"/>
<text text-anchor="middle" x="652.5" y="-22.5" font-family="Avenir Next" font-size="10.00" fill="#17232b">MATH348</text>
</a>
</g>
</g>
<!-- course__MATH248&#45;&gt;course__MATH348 -->
<g id="edge19" class="edge">
<title>course__MATH248&#45;&gt;course__MATH348</title>
<path fill="none" stroke="#5d6972" stroke-width="1.2" d="M420.34,-19.39C477.71,-20.78 564.3,-22.88 613.6,-24.08"/>
<polygon fill="#5d6972" stroke="#5d6972" stroke-width="1.2" points="613.84,-26.54 620.89,-24.26 613.95,-21.64 613.84,-26.54"/>
</g>
<!-- course__STAT254&#45;&gt;course__MATH352 -->
<g id="edge22" class="edge">
<title>course__STAT254&#45;&gt;course__MATH352</title>
<path fill="none" stroke="#5d6972" stroke-width="1.2" d="M405.26,-490.92C453.59,-487.41 533.19,-481.61 588.76,-477.57"/>
<polygon fill="#5d6972" stroke="#5d6972" stroke-width="1.2" points="588.95,-480.01 595.76,-477.06 588.6,-475.12 588.95,-480.01"/>
</g>
<!-- course__STAT254&#45;&gt;course__MATH377 -->
<g id="edge24" class="edge">
<title>course__STAT254&#45;&gt;course__MATH377</title>
<path fill="none" stroke="#5d6972" stroke-width="1.2" d="M402.84,-475.91C439.99,-457.69 495.47,-426.89 535,-389 570.15,-355.31 559.51,-330.24 596,-298 601.46,-293.18 607.9,-288.95 614.42,-285.34"/>
<polygon fill="#5d6972" stroke="#5d6972" stroke-width="1.2" points="615.87,-287.35 620.94,-281.94 613.6,-283.01 615.87,-287.35"/>
</g>
<!-- course__EOS325 -->
<g id="node7" class="node">
<title>course__EOS325</title>
<g id="a_node7"><a xlink:href="../../../courses/EOS325.html" xlink:title="EOS325: Earth System Modelling" target="_top">
<path fill="#d7e9ef" stroke="#1b2730" stroke-width="1.6" d="M667.5,-344C667.5,-344 637.5,-344 637.5,-344 631.5,-344 625.5,-338 625.5,-332 625.5,-332 625.5,-320 625.5,-320 625.5,-314 631.5,-308 637.5,-308 637.5,-308 667.5,-308 667.5,-308 673.5,-308 679.5,-314 679.5,-320 679.5,-320 679.5,-332 679.5,-332 679.5,-338 673.5,-344 667.5,-344"/>
<text text-anchor="middle" x="652.5" y="-323.5" font-family="Avenir Next" font-size="10.00" fill="#17232b">EOS325</text>
</a>
</g>
</g>
<!-- course__EOS440 -->
<g id="node8" class="node">
<title>course__EOS440</title>
<g id="a_node8"><a xlink:href="../../../courses/EOS440.html" xlink:title="EOS440: Hydrogeology" target="_top">
<path fill="#d7e9ef" stroke="#1b2730" stroke-width="1.6" d="M667.5,-176C667.5,-176 637.5,-176 637.5,-176 631.5,-176 625.5,-170 625.5,-164 625.5,-164 625.5,-152 625.5,-152 625.5,-146 631.5,-140 637.5,-140 637.5,-140 667.5,-140 667.5,-140 673.5,-140 679.5,-146 679.5,-152 679.5,-152 679.5,-164 679.5,-164 679.5,-170 673.5,-176 667.5,-176"/>
<text text-anchor="middle" x="652.5" y="-155.5" font-family="Avenir Next" font-size="10.00" fill="#17232b">EOS440</text>
</a>
</g>
</g>
<!-- course__MATH342 -->
<g id="node10" class="node">
<title>course__MATH342</title>
<g id="a_node10"><a xlink:href="../../../courses/MATH342.html" xlink:title="MATH342: Intermediate Ordinary Differential Equations" target="_top">
<path fill="#dfe3f4" stroke="#1b2730" stroke-width="1.6" d="M672,-120C672,-120 633,-120 633,-120 627,-120 621,-114 621,-108 621,-108 621,-96 621,-96 621,-90 627,-84 633,-84 633,-84 672,-84 672,-84 678,-84 684,-90 684,-96 684,-96 684,-108 684,-108 684,-114 678,-120 672,-120"/>
<text text-anchor="middle" x="652.5" y="-99.5" font-family="Avenir Next" font-size="10.00" fill="#17232b">MATH342</text>
</a>
</g>
</g>
<!-- course__MATH346 -->
<g id="node11" class="node">
<title>course__MATH346</title>
<g id="a_node11"><a xlink:href="../../../courses/MATH346.html" xlink:title="MATH346: Introduction to Partial Differential Equations" target="_top">
<path fill="#dfe3f4" stroke="#1b2730" stroke-width="1.6" d="M672,-400C672,-400 633,-400 633,-400 627,-400 621,-394 621,-388 621,-388 621,-376 621,-376 621,-370 627,-364 633,-364 633,-364 672,-364 672,-364 678,-364 684,-370 684,-376 684,-376 684,-388 684,-388 684,-394 678,-400 672,-400"/>
<text text-anchor="middle" x="652.5" y="-379.5" font-family="Avenir Next" font-size="10.00" fill="#17232b">MATH346</text>
</a>
</g>
</g>
<!-- choice_EOS325_0_0&#45;&gt;course__EOS325 -->
<g id="edge3" class="edge">
<title>choice_EOS325_0_0&#45;&gt;course__EOS325</title>
<path fill="none" stroke="#5d6972" stroke-width="1.2" d="M535.14,-308.85C558.39,-312.28 592.54,-317.31 617.83,-321.04"/>
<polygon fill="#5d6972" stroke="#5d6972" stroke-width="1.2" points="617.76,-323.5 625.05,-322.1 618.48,-318.66 617.76,-323.5"/>
</g>
<!-- choice_EOS440_0_1&#45;&gt;course__EOS440 -->
<g id="edge6" class="edge">
<title>choice_EOS440_0_1&#45;&gt;course__EOS440</title>
<path fill="none" stroke="#5d6972" stroke-width="1.2" d="M535.14,-163.72C558.39,-162.57 592.54,-160.9 617.83,-159.65"/>
<polygon fill="#5d6972" stroke="#5d6972" stroke-width="1.2" points="618.18,-162.09 625.05,-159.3 617.93,-157.2 618.18,-162.09"/>
</g>
<!-- choice_MATH342_0_1&#45;&gt;course__MATH342 -->
<g id="edge13" class="edge">
<title>choice_MATH342_0_1&#45;&gt;course__MATH342</title>
<path fill="none" stroke="#5d6972" stroke-width="1.2" d="M535.14,-107.72C557.15,-106.63 588.92,-105.07 613.7,-103.86"/>
<polygon fill="#5d6972" stroke="#5d6972" stroke-width="1.2" points="613.95,-106.3 620.82,-103.51 613.71,-101.4 613.95,-106.3"/>
</g>
<!-- choice_MATH346_0_1&#45;&gt;course__MATH346 -->
<g id="edge16" class="edge">
<title>choice_MATH346_0_1&#45;&gt;course__MATH346</title>
<path fill="none" stroke="#5d6972" stroke-width="1.2" d="M535.14,-364.85C557.15,-368.1 588.92,-372.78 613.7,-376.43"/>
<polygon fill="#5d6972" stroke="#5d6972" stroke-width="1.2" points="613.54,-378.88 620.82,-377.48 614.26,-374.03 613.54,-378.88"/>
</g>
<!-- choice_MATH348_0_2&#45;&gt;course__MATH348 -->
<g id="edge20" class="edge">
<title>choice_MATH348_0_2&#45;&gt;course__MATH348</title>
<path fill="none" stroke="#5d6972" stroke-width="1.2" d="M535.14,-47.86C557.15,-43.54 588.92,-37.3 613.7,-32.43"/>
<polygon fill="#5d6972" stroke="#5d6972" stroke-width="1.2" points="614.43,-34.78 620.82,-31.03 613.48,-29.97 614.43,-34.78"/>
</g>
</g>
</svg>
