<?xml version="1.0" encoding="UTF-8" standalone="no"?>
<!DOCTYPE svg PUBLIC "-//W3C//DTD SVG 1.1//EN"
 "http://www.w3.org/Graphics/SVG/1.1/DTD/svg11.dtd">
<!-- Generated by graphviz version 2.43.0 (0)
 -->
<!-- Title: MATH436 Pages: 1 -->
<svg width="291pt" height="135pt"
 viewBox="0.00 0.00 291.20 135.20" xmlns="http://www.w3.org/2000/svg" xmlns:xlink="http://www.w3.org/1999/xlink">
<g id="graph0" class="graph" transform="scale(1 1) rotate(0) translate(21.6 113.6)">
<title>MATH436</title>
<!-- course__MATH204 -->
<g id="node1" class="node">
<title>course__MATH204</title>
<g id="a_node1"><a xlink:href="../../../courses/MATH204.html" xlink:title="MATH204: Calculus IV" target="_top">
<path fill="#dfe3f4" stroke="#1b2730" stroke-width="1.6" d="M51,-92C51,-92 12,-92 12,-92 6,-92 0,-86 0,-80 0,-80 0,-68 0,-68 0,-62 6,-56 12,-56 12,-56 51,-56 51,-56 57,-56 63,-62 63,-68 63,-68 63,-80 63,-80 63,-86 57,-92 51,-92"/>
<text text-anchor="middle" x="31.5" y="-71.5" font-family="Avenir Next" font-size="10.00" fill="#17232b">MATH204</text>
</a>
</g>
</g>
<!-- course__MATH436 -->
<g id="node3" class="node">
<title>course__MATH436</title>
<g id="a_node3"><a xlink:href="../../../courses/MATH436.html" xlink:title="MATH436: Calculus on Manifolds" target="_top">
<path fill="#dfe3f4" stroke="#1f4f66" stroke-width="2" d="M236,-64C236,-64 136,-64 136,-64 130,-64 124,-58 124,-52 124,-52 124,-40 124,-40 124,-34 130,-28 136,-28 136,-28 236,-28 236,-28 242,-28 248,-34 248,-40 248,-40 248,-52 248,-52 248,-58 242,-64 236,-64"/>
<text text-anchor="middle" x="186" y="-49" font-family="Avenir Next" font-size="10.00" fill="#17232b">MATH436</text>
<text text-anchor="middle" x="186" y="-38" font-family="Avenir Next" font-size="10.00" fill="#17232b">Calculus on Manifolds</text>
</a>
</g>
</g>
<!-- course__MATH204&#45;&gt;course__MATH436 -->
<g id="edge2" class="edge">
<title>course__MATH204&#45;&gt;course__MATH436</title>
<path fill="none" stroke="#5d6972" stroke-width="1.2" d="M63.36,-68.33C78.73,-65.51 97.96,-61.98 116.57,-58.56"/>
<polygon fill="#5d6972" stroke="#5d6972" stroke-width="1.2" points="117.49,-60.89 123.93,-57.21 116.61,-56.07 117.49,-60.89"/>
</g>
<!-- course__MATH311 -->
<g id="node2" class="node">
<title>course__MATH311</title>
<g id="a_node2"><a xlink:href="../../../courses/MATH311.html" xlink:title="MATH311: Linear Algebra" target="_top">
<path fill="#dfe3f4" stroke="#1b2730" stroke-width="1.6" d="M51,-36C51,-36 12,-36 12,-36 6,-36 0,-30 0,-24 0,-24 0,-12 0,-12 0,-6 6,0 12,0 12,0 51,0 51,0 57,0 63,-6 63,-12 63,-12 63,-24 63,-24 63,-30 57,-36 51,-36"/>
<text text-anchor="middle" x="31.5" y="-15.5" font-family="Avenir Next" font-size="10.00" fill="#17232b">MATH311</text>
</a>
</g>
</g>
<!-- course__MATH311&#45;&gt;course__MATH436 -->
<g id="edge1" class="edge">
<title>course__MATH311&#45;&gt;course__MATH436</title>
<path fill="none" stroke="#5d6972" stroke-width="1.2" d="M63.36,-23.67C78.73,-26.49 97.96,-30.02 116.57,-33.44"/>
<polygon fill="#5d6972" stroke="#5d6972" stroke-width="1.2" points="116.61,-35.93 123.93,-34.79 117.49,-31.11 116.61,-35.93"/>
</g>
</g>
</svg>
