<?xml version="1.0" encoding="UTF-8" standalone="no"?>
<!DOCTYPE svg PUBLIC "-//W3C//DTD SVG 1.1//EN"
 "http://www.w3.org/Graphics/SVG/1.1/DTD/svg11.dtd">
<!-- Generated by graphviz version 2.43.0 (0)
 -->
<!-- Title: MATH442 Pages: 1 -->
<svg width="1580pt" height="248pt"
 viewBox="0.00 0.00 1580.20 248.20" xmlns="http://www.w3.org/2000/svg" xmlns:xlink="http://www.w3.org/1999/xlink">
<g id="graph0" class="graph" transform="scale(1 1) rotate(0) translate(21.6 226.6)">
<title>MATH442</title>
<!-- course__MATH100 -->
<g id="node1" class="node">
<title>course__MATH100</title>
<g id="a_node1"><a xlink:href="../../../courses/MATH100.html" xlink:title="Equivalent or cross&#45;listed: MATH100: Calculus I | MATH102: Calculus for Students in the Social and Biological Sciences | MATH109: Introduction to Calculus" target="_top">
<path fill="#dfe3f4" stroke="#7e8d96" d="M365,-99C365,-99 278,-99 278,-99 272,-99 266,-93 266,-87 266,-87 266,-75 266,-75 266,-69 272,-63 278,-63 278,-63 365,-63 365,-63 371,-63 377,-69 377,-75 377,-75 377,-87 377,-87 377,-93 371,-99 365,-99"/>
<text text-anchor="middle" x="321.5" y="-83.8" font-family="Avenir Next" font-size="9.00" fill="#41515b">MATH100 / MATH102</text>
<text text-anchor="middle" x="321.5" y="-73.8" font-family="Avenir Next" font-size="9.00" fill="#41515b">MATH109</text>
</a>
</g>
</g>
<!-- course__MATH101 -->
<g id="node2" class="node">
<title>course__MATH101</title>
<g id="a_node2"><a xlink:href="../../../courses/MATH101.html" xlink:title="MATH101: Calculus II" target="_top">
<path fill="#dfe3f4" stroke="#7e8d96" d="M485,-125C485,-125 450,-125 450,-125 444,-125 438,-119 438,-113 438,-113 438,-101 438,-101 438,-95 444,-89 450,-89 450,-89 485,-89 485,-89 491,-89 497,-95 497,-101 497,-101 497,-113 497,-113 497,-119 491,-125 485,-125"/>
<text text-anchor="middle" x="467.5" y="-104.8" font-family="Avenir Next" font-size="9.00" fill="#41515b">MATH101</text>
</a>
</g>
</g>
<!-- course__MATH100&#45;&gt;course__MATH101 -->
<g id="edge2" class="edge">
<title>course__MATH100&#45;&gt;course__MATH101</title>
<path fill="none" stroke="#5d6972" stroke-width="1.2" d="M377.35,-90.9C395.27,-94.14 414.7,-97.65 430.83,-100.56"/>
<polygon fill="#5d6972" stroke="#5d6972" stroke-width="1.2" points="430.66,-103.02 437.99,-101.85 431.54,-98.2 430.66,-103.02"/>
</g>
<!-- choice_MATH211_0 -->
<g id="node11" class="node">
<title>choice_MATH211_0</title>
<path fill="#fff7ee" stroke="#b7793f" stroke-width="1.1" d="M772,-36C772,-36 742,-36 742,-36 736,-36 730,-30 730,-24 730,-24 730,-12 730,-12 730,-6 736,0 742,0 742,0 772,0 772,0 778,0 784,-6 784,-12 784,-12 784,-24 784,-24 784,-30 778,-36 772,-36"/>
<text text-anchor="middle" x="757" y="-15.8" font-family="Avenir Next" font-size="9.00">1 of</text>
</g>
<!-- course__MATH100&#45;&gt;choice_MATH211_0 -->
<g id="edge5" class="edge">
<title>course__MATH100&#45;&gt;choice_MATH211_0</title>
<path fill="none" stroke="#7a8389" d="M377.44,-68.92C425.01,-58.84 495.76,-44.75 558,-36 615.76,-27.88 683.54,-22.63 722.94,-20.01"/>
<polygon fill="#7a8389" stroke="#7a8389" points="723.14,-22.45 729.96,-19.55 722.82,-17.56 723.14,-22.45"/>
</g>
<!-- course__MATH200 -->
<g id="node4" class="node">
<title>course__MATH200</title>
<g id="a_node4"><a xlink:href="../../../courses/MATH200.html" xlink:title="Equivalent or cross&#45;listed: MATH200: Calculus III | MATH202: Intermediate Calculus for CSC and EOS" target="_top">
<path fill="#dfe3f4" stroke="#7e8d96" d="M657,-138C657,-138 570,-138 570,-138 564,-138 558,-132 558,-126 558,-126 558,-114 558,-114 558,-108 564,-102 570,-102 570,-102 657,-102 657,-102 663,-102 669,-108 669,-114 669,-114 669,-126 669,-126 669,-132 663,-138 657,-138"/>
<text text-anchor="middle" x="613.5" y="-117.8" font-family="Avenir Next" font-size="9.00" fill="#41515b">MATH200 / MATH202</text>
</a>
</g>
</g>
<!-- course__MATH101&#45;&gt;course__MATH200 -->
<g id="edge3" class="edge">
<title>course__MATH101&#45;&gt;course__MATH200</title>
<path fill="none" stroke="#5d6972" stroke-width="1.2" d="M497.29,-109.6C512.58,-110.98 532,-112.73 550.51,-114.4"/>
<polygon fill="#5d6972" stroke="#5d6972" stroke-width="1.2" points="550.63,-116.87 557.82,-115.06 551.07,-111.99 550.63,-116.87"/>
</g>
<!-- course__MATH151 -->
<g id="node3" class="node">
<title>course__MATH151</title>
<g id="a_node3"><a xlink:href="../../../courses/MATH151.html" xlink:title="MATH151: Finite Mathematics" target="_top">
<path fill="#dfe3f4" stroke="#7e8d96" d="M631,-82C631,-82 596,-82 596,-82 590,-82 584,-76 584,-70 584,-70 584,-58 584,-58 584,-52 590,-46 596,-46 596,-46 631,-46 631,-46 637,-46 643,-52 643,-58 643,-58 643,-70 643,-70 643,-76 637,-82 631,-82"/>
<text text-anchor="middle" x="613.5" y="-61.8" font-family="Avenir Next" font-size="9.00" fill="#41515b">MATH151</text>
</a>
</g>
</g>
<!-- course__MATH151&#45;&gt;choice_MATH211_0 -->
<g id="edge6" class="edge">
<title>course__MATH151&#45;&gt;choice_MATH211_0</title>
<path fill="none" stroke="#7a8389" d="M643.13,-54.69C666.21,-47.19 698.69,-36.63 722.89,-28.76"/>
<polygon fill="#7a8389" stroke="#7a8389" points="723.89,-31.01 729.79,-26.52 722.38,-26.35 723.89,-31.01"/>
</g>
<!-- course__MATH204 -->
<g id="node5" class="node">
<title>course__MATH204</title>
<g id="a_node5"><a xlink:href="../../../courses/MATH204.html" xlink:title="MATH204: Calculus IV" target="_top">
<path fill="#dfe3f4" stroke="#7e8d96" d="M892,-151C892,-151 857,-151 857,-151 851,-151 845,-145 845,-139 845,-139 845,-127 845,-127 845,-121 851,-115 857,-115 857,-115 892,-115 892,-115 898,-115 904,-121 904,-127 904,-127 904,-139 904,-139 904,-145 898,-151 892,-151"/>
<text text-anchor="middle" x="874.5" y="-130.8" font-family="Avenir Next" font-size="9.00" fill="#41515b">MATH204</text>
</a>
</g>
</g>
<!-- course__MATH200&#45;&gt;course__MATH204 -->
<g id="edge4" class="edge">
<title>course__MATH200&#45;&gt;course__MATH204</title>
<path fill="none" stroke="#5d6972" stroke-width="1.2" d="M669.11,-122.74C719.9,-125.29 794.1,-129.01 837.73,-131.2"/>
<polygon fill="#5d6972" stroke="#5d6972" stroke-width="1.2" points="837.87,-133.66 844.98,-131.57 838.12,-128.77 837.87,-133.66"/>
</g>
<!-- choice_MATH342_0_1 -->
<g id="node12" class="node">
<title>choice_MATH342_0_1</title>
<path fill="#fff7ee" stroke="#b7793f" stroke-width="1.1" d="M1007,-102C1007,-102 977,-102 977,-102 971,-102 965,-96 965,-90 965,-90 965,-78 965,-78 965,-72 971,-66 977,-66 977,-66 1007,-66 1007,-66 1013,-66 1019,-72 1019,-78 1019,-78 1019,-90 1019,-90 1019,-96 1013,-102 1007,-102"/>
<text text-anchor="middle" x="992" y="-81.8" font-family="Avenir Next" font-size="9.00">1 of</text>
</g>
<!-- course__MATH200&#45;&gt;choice_MATH342_0_1 -->
<g id="edge10" class="edge">
<title>course__MATH200&#45;&gt;choice_MATH342_0_1</title>
<path fill="none" stroke="#7a8389" d="M669.25,-114.77C748.39,-107.2 892.39,-93.43 957.47,-87.21"/>
<polygon fill="#7a8389" stroke="#7a8389" points="957.9,-89.63 964.64,-86.52 957.43,-84.75 957.9,-89.63"/>
</g>
<!-- course__MATH341 -->
<g id="node7" class="node">
<title>course__MATH341</title>
<g id="a_node7"><a xlink:href="../../../courses/MATH341.html" xlink:title="MATH341: Nonlinear dynamics and chaos" target="_top">
<path fill="#dfe3f4" stroke="#1b2730" stroke-width="1.6" d="M1131,-151C1131,-151 1092,-151 1092,-151 1086,-151 1080,-145 1080,-139 1080,-139 1080,-127 1080,-127 1080,-121 1086,-115 1092,-115 1092,-115 1131,-115 1131,-115 1137,-115 1143,-121 1143,-127 1143,-127 1143,-139 1143,-139 1143,-145 1137,-151 1131,-151"/>
<text text-anchor="middle" x="1111.5" y="-130.5" font-family="Avenir Next" font-size="10.00" fill="#17232b">MATH341</text>
</a>
</g>
</g>
<!-- course__MATH204&#45;&gt;course__MATH341 -->
<g id="edge9" class="edge">
<title>course__MATH204&#45;&gt;course__MATH341</title>
<path fill="none" stroke="#5d6972" stroke-width="1.2" d="M904.32,-133C946.66,-133 1025.75,-133 1072.71,-133"/>
<polygon fill="#5d6972" stroke="#5d6972" stroke-width="1.2" points="1072.96,-135.45 1079.96,-133 1072.96,-130.55 1072.96,-135.45"/>
</g>
<!-- course__MATH204&#45;&gt;choice_MATH342_0_1 -->
<g id="edge11" class="edge">
<title>course__MATH204&#45;&gt;choice_MATH342_0_1</title>
<path fill="none" stroke="#7a8389" d="M904.05,-120.89C920.45,-113.93 941.1,-105.17 958.17,-97.93"/>
<polygon fill="#7a8389" stroke="#7a8389" points="959.27,-100.12 964.75,-95.14 957.35,-95.61 959.27,-100.12"/>
</g>
<!-- course__MATH211 -->
<g id="node6" class="node">
<title>course__MATH211</title>
<g id="a_node6"><a xlink:href="../../../courses/MATH211.html" xlink:title="MATH211: Matrix Algebra I" target="_top">
<path fill="#dfe3f4" stroke="#7e8d96" d="M892,-36C892,-36 857,-36 857,-36 851,-36 845,-30 845,-24 845,-24 845,-12 845,-12 845,-6 851,0 857,0 857,0 892,0 892,0 898,0 904,-6 904,-12 904,-12 904,-24 904,-24 904,-30 898,-36 892,-36"/>
<text text-anchor="middle" x="874.5" y="-15.8" font-family="Avenir Next" font-size="9.00" fill="#41515b">MATH211</text>
</a>
</g>
</g>
<!-- course__MATH211&#45;&gt;course__MATH341 -->
<g id="edge8" class="edge">
<title>course__MATH211&#45;&gt;course__MATH341</title>
<path fill="none" stroke="#5d6972" stroke-width="1.2" d="M904.07,-21.78C934.03,-26.58 981.84,-36.69 1019,-56 1026.36,-59.83 1060.23,-88.92 1084.61,-110.21"/>
<polygon fill="#5d6972" stroke="#5d6972" stroke-width="1.2" points="1083.09,-112.13 1089.97,-114.9 1086.31,-108.45 1083.09,-112.13"/>
</g>
<!-- course__MATH342 -->
<g id="node8" class="node">
<title>course__MATH342</title>
<g id="a_node8"><a xlink:href="../../../courses/MATH342.html" xlink:title="MATH342: Intermediate Ordinary Differential Equations" target="_top">
<path fill="#dfe3f4" stroke="#1b2730" stroke-width="1.6" d="M1131,-95C1131,-95 1092,-95 1092,-95 1086,-95 1080,-89 1080,-83 1080,-83 1080,-71 1080,-71 1080,-65 1086,-59 1092,-59 1092,-59 1131,-59 1131,-59 1137,-59 1143,-65 1143,-71 1143,-71 1143,-83 1143,-83 1143,-89 1137,-95 1131,-95"/>
<text text-anchor="middle" x="1111.5" y="-74.5" font-family="Avenir Next" font-size="10.00" fill="#17232b">MATH342</text>
</a>
</g>
</g>
<!-- course__MATH211&#45;&gt;course__MATH342 -->
<g id="edge12" class="edge">
<title>course__MATH211&#45;&gt;course__MATH342</title>
<path fill="none" stroke="#5d6972" stroke-width="1.2" d="M904.22,-13.64C933.68,-10.21 980.52,-7.69 1019,-19 1042.99,-26.05 1066.75,-41.43 1084.04,-54.58"/>
<polygon fill="#5d6972" stroke="#5d6972" stroke-width="1.2" points="1082.61,-56.57 1089.64,-58.93 1085.62,-52.7 1082.61,-56.57"/>
</g>
<!-- choice_MATH442_0_0_1 -->
<g id="node13" class="node">
<title>choice_MATH442_0_0_1</title>
<path fill="#fff7ee" stroke="#b7793f" stroke-width="1.1" d="M1246,-151C1246,-151 1216,-151 1216,-151 1210,-151 1204,-145 1204,-139 1204,-139 1204,-127 1204,-127 1204,-121 1210,-115 1216,-115 1216,-115 1246,-115 1246,-115 1252,-115 1258,-121 1258,-127 1258,-127 1258,-139 1258,-139 1258,-145 1252,-151 1246,-151"/>
<text text-anchor="middle" x="1231" y="-130.8" font-family="Avenir Next" font-size="9.00">1 of</text>
</g>
<!-- course__MATH341&#45;&gt;choice_MATH442_0_0_1 -->
<g id="edge14" class="edge">
<title>course__MATH341&#45;&gt;choice_MATH442_0_0_1</title>
<path fill="none" stroke="#7a8389" d="M1143.07,-133C1159.61,-133 1180.05,-133 1196.96,-133"/>
<polygon fill="#7a8389" stroke="#7a8389" points="1196.97,-135.45 1203.97,-133 1196.97,-130.55 1196.97,-135.45"/>
</g>
<!-- course__MATH342&#45;&gt;choice_MATH442_0_0_1 -->
<g id="edge15" class="edge">
<title>course__MATH342&#45;&gt;choice_MATH442_0_0_1</title>
<path fill="none" stroke="#7a8389" d="M1143.07,-91.57C1159.75,-99.52 1180.42,-109.37 1197.41,-117.47"/>
<polygon fill="#7a8389" stroke="#7a8389" points="1196.59,-119.79 1203.97,-120.59 1198.7,-115.37 1196.59,-119.79"/>
</g>
<!-- course__MATH442 -->
<g id="node9" class="node">
<title>course__MATH442</title>
<g id="a_node9"><a xlink:href="../../../courses/MATH442.html" xlink:title="MATH442: Advanced Ordinary Differential Equations" target="_top">
<path fill="#dfe3f4" stroke="#1f4f66" stroke-width="2" d="M1525,-175C1525,-175 1331,-175 1331,-175 1325,-175 1319,-169 1319,-163 1319,-163 1319,-151 1319,-151 1319,-145 1325,-139 1331,-139 1331,-139 1525,-139 1525,-139 1531,-139 1537,-145 1537,-151 1537,-151 1537,-163 1537,-163 1537,-169 1531,-175 1525,-175"/>
<text text-anchor="middle" x="1428" y="-160" font-family="Avenir Next" font-size="10.00" fill="#17232b">MATH442</text>
<text text-anchor="middle" x="1428" y="-149" font-family="Avenir Next" font-size="10.00" fill="#17232b">Advanced Ordinary Differential Equations</text>
</a>
</g>
</g>
<!-- MATH442_notes -->
<g id="node10" class="node">
<title>MATH442_notes</title>
<polygon fill="#fff7ee" stroke="#b7793f" stroke-width="1.1" points="199,-205 0,-205 0,-159 205,-159 205,-199 199,-205"/>
<polyline fill="none" stroke="#b7793f" stroke-width="1.1" points="199,-205 199,-199 "/>
<polyline fill="none" stroke="#b7793f" stroke-width="1.1" points="205,-199 199,-199 "/>
<text text-anchor="start" x="13" y="-185.4" font-family="Avenir Next" font-size="12.00">Published notes</text>
<text text-anchor="start" x="13" y="-172.4" font-family="Avenir Next" font-size="12.00">permission of the department</text>
</g>
<!-- MATH442_notes&#45;&gt;course__MATH442 -->
<!-- choice_MATH211_0&#45;&gt;course__MATH211 -->
<g id="edge7" class="edge">
<title>choice_MATH211_0&#45;&gt;course__MATH211</title>
<path fill="none" stroke="#5d6972" stroke-width="1.2" d="M784.21,-18C800.05,-18 820.46,-18 837.76,-18"/>
<polygon fill="#5d6972" stroke="#5d6972" stroke-width="1.2" points="837.97,-20.45 844.97,-18 837.97,-15.55 837.97,-20.45"/>
</g>
<!-- choice_MATH342_0_1&#45;&gt;course__MATH342 -->
<g id="edge13" class="edge">
<title>choice_MATH342_0_1&#45;&gt;course__MATH342</title>
<path fill="none" stroke="#5d6972" stroke-width="1.2" d="M1019.08,-82.45C1034.81,-81.51 1055.14,-80.3 1072.62,-79.26"/>
<polygon fill="#5d6972" stroke="#5d6972" stroke-width="1.2" points="1073.08,-81.68 1079.92,-78.82 1072.79,-76.79 1073.08,-81.68"/>
</g>
<!-- choice_MATH442_0_0_1&#45;&gt;course__MATH442 -->
<g id="edge16" class="edge">
<title>choice_MATH442_0_0_1&#45;&gt;course__MATH442</title>
<path fill="none" stroke="#5d6972" stroke-width="1.2" d="M1258.3,-136.24C1272.71,-138.01 1291.69,-140.35 1311.71,-142.81"/>
<polygon fill="#5d6972" stroke="#5d6972" stroke-width="1.2" points="1311.58,-145.26 1318.82,-143.69 1312.17,-140.4 1311.58,-145.26"/>
</g>
</g>
</svg>
