<?xml version="1.0" encoding="UTF-8" standalone="no"?>
<!DOCTYPE svg PUBLIC "-//W3C//DTD SVG 1.1//EN"
 "http://www.w3.org/Graphics/SVG/1.1/DTD/svg11.dtd">
<!-- Generated by graphviz version 2.43.0 (0)
 -->
<!-- Title: MATH211 Pages: 1 -->
<svg width="1070pt" height="583pt"
 viewBox="0.00 0.00 1070.20 583.20" xmlns="http://www.w3.org/2000/svg" xmlns:xlink="http://www.w3.org/1999/xlink">
<g id="graph0" class="graph" transform="scale(1 1) rotate(0) translate(21.6 561.6)">
<title>MATH211</title>
<!-- course__MATH100 -->
<g id="node1" class="node">
<title>course__MATH100</title>
<g id="a_node1"><a xlink:href="../../../courses/MATH100.html" xlink:title="Collapsed in simplified view: MATH100: Calculus I | MATH102: Calculus for Students in the Social and Biological Sciences | MATH109: Introduction to Calculus" target="_top">
<path fill="#dfe3f4" stroke="#1b2730" stroke-width="1.6" d="M440,-369C440,-369 400,-369 400,-369 394,-369 388,-363 388,-357 388,-357 388,-345 388,-345 388,-339 394,-333 400,-333 400,-333 440,-333 440,-333 446,-333 452,-339 452,-345 452,-345 452,-357 452,-357 452,-363 446,-369 440,-369"/>
<text text-anchor="middle" x="420" y="-348.5" font-family="Avenir Next" font-size="10.00" fill="#17232b">Calculus I</text>
</a>
</g>
</g>
<!-- choice_MATH211_0 -->
<g id="node18" class="node">
<title>choice_MATH211_0</title>
<path fill="#fff7ee" stroke="#b7793f" stroke-width="1.1" d="M555,-313C555,-313 525,-313 525,-313 519,-313 513,-307 513,-301 513,-301 513,-289 513,-289 513,-283 519,-277 525,-277 525,-277 555,-277 555,-277 561,-277 567,-283 567,-289 567,-289 567,-301 567,-301 567,-307 561,-313 555,-313"/>
<text text-anchor="middle" x="540" y="-292.8" font-family="Avenir Next" font-size="9.00">1 of</text>
</g>
<!-- course__MATH100&#45;&gt;choice_MATH211_0 -->
<g id="edge2" class="edge">
<title>course__MATH100&#45;&gt;choice_MATH211_0</title>
<path fill="none" stroke="#7a8389" d="M452,-336.29C468.76,-328.33 489.44,-318.52 506.44,-310.45"/>
<polygon fill="#7a8389" stroke="#7a8389" points="507.72,-312.56 512.99,-307.34 505.62,-308.13 507.72,-312.56"/>
</g>
<!-- course__MATH151 -->
<g id="node2" class="node">
<title>course__MATH151</title>
<g id="a_node2"><a xlink:href="../../../courses/MATH151.html" xlink:title="MATH151: Finite Mathematics" target="_top">
<path fill="#dfe3f4" stroke="#1b2730" stroke-width="1.6" d="M439.5,-313C439.5,-313 400.5,-313 400.5,-313 394.5,-313 388.5,-307 388.5,-301 388.5,-301 388.5,-289 388.5,-289 388.5,-283 394.5,-277 400.5,-277 400.5,-277 439.5,-277 439.5,-277 445.5,-277 451.5,-283 451.5,-289 451.5,-289 451.5,-301 451.5,-301 451.5,-307 445.5,-313 439.5,-313"/>
<text text-anchor="middle" x="420" y="-292.5" font-family="Avenir Next" font-size="10.00" fill="#17232b">MATH151</text>
</a>
</g>
</g>
<!-- course__MATH151&#45;&gt;choice_MATH211_0 -->
<g id="edge3" class="edge">
<title>course__MATH151&#45;&gt;choice_MATH211_0</title>
<path fill="none" stroke="#7a8389" d="M451.7,-295C468.31,-295 488.84,-295 505.82,-295"/>
<polygon fill="#7a8389" stroke="#7a8389" points="505.86,-297.45 512.86,-295 505.86,-292.55 505.86,-297.45"/>
</g>
<!-- course__MATH211 -->
<g id="node3" class="node">
<title>course__MATH211</title>
<g id="a_node3"><a xlink:href="../../../courses/MATH211.html" xlink:title="MATH211: Matrix Algebra I" target="_top">
<path fill="#dfe3f4" stroke="#1f4f66" stroke-width="2" d="M711,-288C711,-288 640,-288 640,-288 634,-288 628,-282 628,-276 628,-276 628,-264 628,-264 628,-258 634,-252 640,-252 640,-252 711,-252 711,-252 717,-252 723,-258 723,-264 723,-264 723,-276 723,-276 723,-282 717,-288 711,-288"/>
<text text-anchor="middle" x="675.5" y="-273" font-family="Avenir Next" font-size="10.00" fill="#17232b">MATH211</text>
<text text-anchor="middle" x="675.5" y="-262" font-family="Avenir Next" font-size="10.00" fill="#17232b">Matrix Algebra I</text>
</a>
</g>
</g>
<!-- course__MATH248 -->
<g id="node4" class="node">
<title>course__MATH248</title>
<g id="a_node4"><a xlink:href="../../../courses/MATH248.html" xlink:title="Equivalent or cross&#45;listed: MATH248: Computer Assisted Mathematics | PHYS248: Computer Assisted Physics" target="_top">
<path fill="#dfe3f4" stroke="#1b2730" stroke-width="1.6" d="M889.5,-540C889.5,-540 797.5,-540 797.5,-540 791.5,-540 785.5,-534 785.5,-528 785.5,-528 785.5,-516 785.5,-516 785.5,-510 791.5,-504 797.5,-504 797.5,-504 889.5,-504 889.5,-504 895.5,-504 901.5,-510 901.5,-516 901.5,-516 901.5,-528 901.5,-528 901.5,-534 895.5,-540 889.5,-540"/>
<text text-anchor="middle" x="843.5" y="-519.5" font-family="Avenir Next" font-size="10.00" fill="#17232b">MATH248 / PHYS248</text>
</a>
</g>
</g>
<!-- course__MATH211&#45;&gt;course__MATH248 -->
<g id="edge5" class="edge">
<title>course__MATH211&#45;&gt;course__MATH248</title>
<path fill="none" stroke="#5d6972" stroke-width="1.2" d="M680.76,-288.09C691.37,-329.58 722.66,-432.72 784,-494 786.11,-496.1 788.4,-498.07 790.82,-499.91"/>
<polygon fill="#5d6972" stroke="#5d6972" stroke-width="1.2" points="789.53,-501.99 796.68,-503.96 792.32,-497.96 789.53,-501.99"/>
</g>
<!-- course__MATH311 -->
<g id="node5" class="node">
<title>course__MATH311</title>
<g id="a_node5"><a xlink:href="../../../courses/MATH311.html" xlink:title="MATH311: Linear Algebra" target="_top">
<path fill="#dfe3f4" stroke="#1b2730" stroke-width="1.6" d="M863,-484C863,-484 824,-484 824,-484 818,-484 812,-478 812,-472 812,-472 812,-460 812,-460 812,-454 818,-448 824,-448 824,-448 863,-448 863,-448 869,-448 875,-454 875,-460 875,-460 875,-472 875,-472 875,-478 869,-484 863,-484"/>
<text text-anchor="middle" x="843.5" y="-463.5" font-family="Avenir Next" font-size="10.00" fill="#17232b">MATH311</text>
</a>
</g>
</g>
<!-- course__MATH211&#45;&gt;course__MATH311 -->
<g id="edge6" class="edge">
<title>course__MATH211&#45;&gt;course__MATH311</title>
<path fill="none" stroke="#5d6972" stroke-width="1.2" d="M684.07,-288.26C698.81,-321.86 734.32,-394.08 784,-438 790.33,-443.59 797.97,-448.31 805.61,-452.19"/>
<polygon fill="#5d6972" stroke="#5d6972" stroke-width="1.2" points="804.63,-454.44 812,-455.25 806.74,-450.02 804.63,-454.44"/>
</g>
<!-- course__MATH341 -->
<g id="node6" class="node">
<title>course__MATH341</title>
<g id="a_node6"><a xlink:href="../../../courses/MATH341.html" xlink:title="MATH341: Nonlinear dynamics and chaos" target="_top">
<path fill="#dfe3f4" stroke="#1b2730" stroke-width="1.6" d="M863,-428C863,-428 824,-428 824,-428 818,-428 812,-422 812,-416 812,-416 812,-404 812,-404 812,-398 818,-392 824,-392 824,-392 863,-392 863,-392 869,-392 875,-398 875,-404 875,-404 875,-416 875,-416 875,-422 869,-428 863,-428"/>
<text text-anchor="middle" x="843.5" y="-407.5" font-family="Avenir Next" font-size="10.00" fill="#17232b">MATH341</text>
</a>
</g>
</g>
<!-- course__MATH211&#45;&gt;course__MATH341 -->
<g id="edge7" class="edge">
<title>course__MATH211&#45;&gt;course__MATH341</title>
<path fill="none" stroke="#5d6972" stroke-width="1.2" d="M690.5,-288.24C709.58,-312.17 745.78,-354.36 784,-382 790.5,-386.7 797.9,-390.95 805.21,-394.64"/>
<polygon fill="#5d6972" stroke="#5d6972" stroke-width="1.2" points="804.5,-397.02 811.87,-397.86 806.64,-392.61 804.5,-397.02"/>
</g>
<!-- course__MATH342 -->
<g id="node7" class="node">
<title>course__MATH342</title>
<g id="a_node7"><a xlink:href="../../../courses/MATH342.html" xlink:title="MATH342: Intermediate Ordinary Differential Equations" target="_top">
<path fill="#dfe3f4" stroke="#1b2730" stroke-width="1.6" d="M863,-372C863,-372 824,-372 824,-372 818,-372 812,-366 812,-360 812,-360 812,-348 812,-348 812,-342 818,-336 824,-336 824,-336 863,-336 863,-336 869,-336 875,-342 875,-348 875,-348 875,-360 875,-360 875,-366 869,-372 863,-372"/>
<text text-anchor="middle" x="843.5" y="-351.5" font-family="Avenir Next" font-size="10.00" fill="#17232b">MATH342</text>
</a>
</g>
</g>
<!-- course__MATH211&#45;&gt;course__MATH342 -->
<g id="edge8" class="edge">
<title>course__MATH211&#45;&gt;course__MATH342</title>
<path fill="none" stroke="#5d6972" stroke-width="1.2" d="M710.72,-288.2C731.77,-299.3 759.34,-313.68 784,-326 790.86,-329.43 798.22,-333.02 805.32,-336.43"/>
<polygon fill="#5d6972" stroke="#5d6972" stroke-width="1.2" points="804.37,-338.7 811.74,-339.52 806.49,-334.28 804.37,-338.7"/>
</g>
<!-- course__MATH346 -->
<g id="node8" class="node">
<title>course__MATH346</title>
<g id="a_node8"><a xlink:href="../../../courses/MATH346.html" xlink:title="MATH346: Introduction to Partial Differential Equations" target="_top">
<path fill="#dfe3f4" stroke="#1b2730" stroke-width="1.6" d="M863,-316C863,-316 824,-316 824,-316 818,-316 812,-310 812,-304 812,-304 812,-292 812,-292 812,-286 818,-280 824,-280 824,-280 863,-280 863,-280 869,-280 875,-286 875,-292 875,-292 875,-304 875,-304 875,-310 869,-316 863,-316"/>
<text text-anchor="middle" x="843.5" y="-295.5" font-family="Avenir Next" font-size="10.00" fill="#17232b">MATH346</text>
</a>
</g>
</g>
<!-- course__MATH211&#45;&gt;course__MATH346 -->
<g id="edge9" class="edge">
<title>course__MATH211&#45;&gt;course__MATH346</title>
<path fill="none" stroke="#5d6972" stroke-width="1.2" d="M723.18,-277.87C749.02,-282.23 780.7,-287.58 804.92,-291.66"/>
<polygon fill="#5d6972" stroke="#5d6972" stroke-width="1.2" points="804.56,-294.08 811.87,-292.83 805.37,-289.25 804.56,-294.08"/>
</g>
<!-- course__MATH347 -->
<g id="node9" class="node">
<title>course__MATH347</title>
<g id="a_node9"><a xlink:href="../../../courses/MATH347.html" xlink:title="Equivalent or cross&#45;listed: MATH347: Introduction to Continuous Optimization | MATH492: Topics in Applied Mathematics" target="_top">
<path fill="#dfe3f4" stroke="#1b2730" stroke-width="1.6" d="M891,-260C891,-260 796,-260 796,-260 790,-260 784,-254 784,-248 784,-248 784,-236 784,-236 784,-230 790,-224 796,-224 796,-224 891,-224 891,-224 897,-224 903,-230 903,-236 903,-236 903,-248 903,-248 903,-254 897,-260 891,-260"/>
<text text-anchor="middle" x="843.5" y="-239.5" font-family="Avenir Next" font-size="10.00" fill="#17232b">MATH347 / MATH492</text>
</a>
</g>
</g>
<!-- course__MATH211&#45;&gt;course__MATH347 -->
<g id="edge10" class="edge">
<title>course__MATH211&#45;&gt;course__MATH347</title>
<path fill="none" stroke="#5d6972" stroke-width="1.2" d="M723.18,-262.13C739.77,-259.33 758.78,-256.12 776.67,-253.1"/>
<polygon fill="#5d6972" stroke="#5d6972" stroke-width="1.2" points="777.24,-255.49 783.73,-251.91 776.42,-250.66 777.24,-255.49"/>
</g>
<!-- course__MATH369 -->
<g id="node10" class="node">
<title>course__MATH369</title>
<g id="a_node10"><a xlink:href="../../../courses/MATH369.html" xlink:title="MATH369: Differential Geometry in R3" target="_top">
<path fill="#dfe3f4" stroke="#1b2730" stroke-width="1.6" d="M863,-204C863,-204 824,-204 824,-204 818,-204 812,-198 812,-192 812,-192 812,-180 812,-180 812,-174 818,-168 824,-168 824,-168 863,-168 863,-168 869,-168 875,-174 875,-180 875,-180 875,-192 875,-192 875,-198 869,-204 863,-204"/>
<text text-anchor="middle" x="843.5" y="-183.5" font-family="Avenir Next" font-size="10.00" fill="#17232b">MATH369</text>
</a>
</g>
</g>
<!-- course__MATH211&#45;&gt;course__MATH369 -->
<g id="edge12" class="edge">
<title>course__MATH211&#45;&gt;course__MATH369</title>
<path fill="none" stroke="#5d6972" stroke-width="1.2" d="M710.72,-251.8C731.77,-240.7 759.34,-226.32 784,-214 790.86,-210.57 798.22,-206.98 805.32,-203.57"/>
<polygon fill="#5d6972" stroke="#5d6972" stroke-width="1.2" points="806.49,-205.72 811.74,-200.48 804.37,-201.3 806.49,-205.72"/>
</g>
<!-- course__MATH377 -->
<g id="node11" class="node">
<title>course__MATH377</title>
<g id="a_node11"><a xlink:href="../../../courses/MATH377.html" xlink:title="MATH377: Mathematical Modelling" target="_top">
<path fill="#dfe3f4" stroke="#1b2730" stroke-width="1.6" d="M863,-148C863,-148 824,-148 824,-148 818,-148 812,-142 812,-136 812,-136 812,-124 812,-124 812,-118 818,-112 824,-112 824,-112 863,-112 863,-112 869,-112 875,-118 875,-124 875,-124 875,-136 875,-136 875,-142 869,-148 863,-148"/>
<text text-anchor="middle" x="843.5" y="-127.5" font-family="Avenir Next" font-size="10.00" fill="#17232b">MATH377</text>
</a>
</g>
</g>
<!-- course__MATH211&#45;&gt;course__MATH377 -->
<g id="edge13" class="edge">
<title>course__MATH211&#45;&gt;course__MATH377</title>
<path fill="none" stroke="#5d6972" stroke-width="1.2" d="M690.5,-251.76C709.58,-227.83 745.78,-185.64 784,-158 790.5,-153.3 797.9,-149.05 805.21,-145.36"/>
<polygon fill="#5d6972" stroke="#5d6972" stroke-width="1.2" points="806.64,-147.39 811.87,-142.14 804.5,-142.98 806.64,-147.39"/>
</g>
<!-- course__PHYS325 -->
<g id="node12" class="node">
<title>course__PHYS325</title>
<g id="a_node12"><a xlink:href="../../../courses/PHYS325.html" xlink:title="PHYS325: Optics" target="_top">
<path fill="#efd8cf" stroke="#1b2730" stroke-width="1.6" d="M861.5,-92C861.5,-92 825.5,-92 825.5,-92 819.5,-92 813.5,-86 813.5,-80 813.5,-80 813.5,-68 813.5,-68 813.5,-62 819.5,-56 825.5,-56 825.5,-56 861.5,-56 861.5,-56 867.5,-56 873.5,-62 873.5,-68 873.5,-68 873.5,-80 873.5,-80 873.5,-86 867.5,-92 861.5,-92"/>
<text text-anchor="middle" x="843.5" y="-71.5" font-family="Avenir Next" font-size="10.00" fill="#17232b">PHYS325</text>
</a>
</g>
</g>
<!-- course__MATH211&#45;&gt;course__PHYS325 -->
<g id="edge14" class="edge">
<title>course__MATH211&#45;&gt;course__PHYS325</title>
<path fill="none" stroke="#5d6972" stroke-width="1.2" d="M684.07,-251.74C698.81,-218.14 734.32,-145.92 784,-102 790.59,-96.17 798.61,-91.3 806.56,-87.33"/>
<polygon fill="#5d6972" stroke="#5d6972" stroke-width="1.2" points="807.91,-89.41 813.2,-84.21 805.83,-84.97 807.91,-89.41"/>
</g>
<!-- course__STAT353 -->
<g id="node13" class="node">
<title>course__STAT353</title>
<g id="a_node13"><a xlink:href="../../../courses/STAT353.html" xlink:title="STAT353: Applied Regression Analysis" target="_top">
<path fill="#e6dde9" stroke="#1b2730" stroke-width="1.6" d="M860.5,-36C860.5,-36 826.5,-36 826.5,-36 820.5,-36 814.5,-30 814.5,-24 814.5,-24 814.5,-12 814.5,-12 814.5,-6 820.5,0 826.5,0 826.5,0 860.5,0 860.5,0 866.5,0 872.5,-6 872.5,-12 872.5,-12 872.5,-24 872.5,-24 872.5,-30 866.5,-36 860.5,-36"/>
<text text-anchor="middle" x="843.5" y="-15.5" font-family="Avenir Next" font-size="10.00" fill="#17232b">STAT353</text>
</a>
</g>
</g>
<!-- course__MATH211&#45;&gt;course__STAT353 -->
<g id="edge17" class="edge">
<title>course__MATH211&#45;&gt;course__STAT353</title>
<path fill="none" stroke="#5d6972" stroke-width="1.2" d="M680.76,-251.91C691.37,-210.42 722.66,-107.28 784,-46 790.73,-39.28 799.39,-33.94 807.97,-29.81"/>
<polygon fill="#5d6972" stroke="#5d6972" stroke-width="1.2" points="809.1,-31.99 814.48,-26.89 807.09,-27.52 809.1,-31.99"/>
</g>
<!-- course__MATH348 -->
<g id="node14" class="node">
<title>course__MATH348</title>
<g id="a_node14"><a xlink:href="../../../courses/MATH348.html" xlink:title="MATH348: Numerical Methods" target="_top">
<path fill="#dfe3f4" stroke="#1b2730" stroke-width="1.6" d="M1015,-540C1015,-540 976,-540 976,-540 970,-540 964,-534 964,-528 964,-528 964,-516 964,-516 964,-510 970,-504 976,-504 976,-504 1015,-504 1015,-504 1021,-504 1027,-510 1027,-516 1027,-516 1027,-528 1027,-528 1027,-534 1021,-540 1015,-540"/>
<text text-anchor="middle" x="995.5" y="-519.5" font-family="Avenir Next" font-size="10.00" fill="#17232b">MATH348</text>
</a>
</g>
</g>
<!-- course__MATH248&#45;&gt;course__MATH348 -->
<g id="edge11" class="edge">
<title>course__MATH248&#45;&gt;course__MATH348</title>
<path fill="none" stroke="#5d6972" stroke-width="1.2" d="M901.64,-522C920.02,-522 939.92,-522 956.56,-522"/>
<polygon fill="#5d6972" stroke="#5d6972" stroke-width="1.2" points="956.96,-524.45 963.96,-522 956.96,-519.55 956.96,-524.45"/>
</g>
<!-- course__PHYS410 -->
<g id="node15" class="node">
<title>course__PHYS410</title>
<g id="a_node15"><a xlink:href="../../../courses/PHYS410.html" xlink:title="PHYS410: Topics in Mathematical Physics I" target="_top">
<path fill="#efd8cf" stroke="#1b2730" stroke-width="1.6" d="M1013.5,-344C1013.5,-344 977.5,-344 977.5,-344 971.5,-344 965.5,-338 965.5,-332 965.5,-332 965.5,-320 965.5,-320 965.5,-314 971.5,-308 977.5,-308 977.5,-308 1013.5,-308 1013.5,-308 1019.5,-308 1025.5,-314 1025.5,-320 1025.5,-320 1025.5,-332 1025.5,-332 1025.5,-338 1019.5,-344 1013.5,-344"/>
<text text-anchor="middle" x="995.5" y="-323.5" font-family="Avenir Next" font-size="10.00" fill="#17232b">PHYS410</text>
</a>
</g>
</g>
<!-- course__MATH346&#45;&gt;course__PHYS410 -->
<g id="edge15" class="edge">
<title>course__MATH346&#45;&gt;course__PHYS410</title>
<path fill="none" stroke="#5d6972" stroke-width="1.2" d="M875.22,-303.73C899.35,-308.24 933.01,-314.52 958.42,-319.26"/>
<polygon fill="#5d6972" stroke="#5d6972" stroke-width="1.2" points="958.02,-321.68 965.35,-320.56 958.92,-316.87 958.02,-321.68"/>
</g>
<!-- course__PHYS411 -->
<g id="node16" class="node">
<title>course__PHYS411</title>
<g id="a_node16"><a xlink:href="../../../courses/PHYS411.html" xlink:title="PHYS411: Time Series Analysis" target="_top">
<path fill="#efd8cf" stroke="#1b2730" stroke-width="1.6" d="M1013.5,-288C1013.5,-288 977.5,-288 977.5,-288 971.5,-288 965.5,-282 965.5,-276 965.5,-276 965.5,-264 965.5,-264 965.5,-258 971.5,-252 977.5,-252 977.5,-252 1013.5,-252 1013.5,-252 1019.5,-252 1025.5,-258 1025.5,-264 1025.5,-264 1025.5,-276 1025.5,-276 1025.5,-282 1019.5,-288 1013.5,-288"/>
<text text-anchor="middle" x="995.5" y="-267.5" font-family="Avenir Next" font-size="10.00" fill="#17232b">PHYS411</text>
</a>
</g>
</g>
<!-- course__MATH346&#45;&gt;course__PHYS411 -->
<g id="edge16" class="edge">
<title>course__MATH346&#45;&gt;course__PHYS411</title>
<path fill="none" stroke="#5d6972" stroke-width="1.2" d="M875.22,-292.27C899.35,-287.76 933.01,-281.48 958.42,-276.74"/>
<polygon fill="#5d6972" stroke="#5d6972" stroke-width="1.2" points="958.92,-279.13 965.35,-275.44 958.02,-274.32 958.92,-279.13"/>
</g>
<!-- MATH211_notes -->
<g id="node17" class="node">
<title>MATH211_notes</title>
<polygon fill="#fff7ee" stroke="#b7793f" stroke-width="1.1" points="321,-282 0,-282 0,-210 327,-210 327,-276 321,-282"/>
<polyline fill="none" stroke="#b7793f" stroke-width="1.1" points="321,-282 321,-276 "/>
<polyline fill="none" stroke="#b7793f" stroke-width="1.1" points="327,-276 321,-276 "/>
<text text-anchor="start" x="13" y="-262.4" font-family="Avenir Next" font-size="12.00">Published notes</text>
<text text-anchor="start" x="13" y="-249.4" font-family="Avenir Next" font-size="12.00">Completed Pre&#45;Calculus 12 with a minimum grade</text>
<text text-anchor="start" x="13" y="-236.4" font-family="Avenir Next" font-size="12.00">of A (86%)</text>
<text text-anchor="start" x="13" y="-223.4" font-family="Avenir Next" font-size="12.00">permission of the department</text>
</g>
<!-- MATH211_notes&#45;&gt;course__MATH211 -->
<!-- choice_MATH211_0&#45;&gt;course__MATH211 -->
<g id="edge4" class="edge">
<title>choice_MATH211_0&#45;&gt;course__MATH211</title>
<path fill="none" stroke="#5d6972" stroke-width="1.2" d="M567.06,-290.12C582.33,-287.26 602.2,-283.54 620.69,-280.08"/>
<polygon fill="#5d6972" stroke="#5d6972" stroke-width="1.2" points="621.54,-282.41 627.97,-278.71 620.64,-277.59 621.54,-282.41"/>
</g>
</g>
</svg>
