<?xml version="1.0" encoding="UTF-8" standalone="no"?>
<!DOCTYPE svg PUBLIC "-//W3C//DTD SVG 1.1//EN"
 "http://www.w3.org/Graphics/SVG/1.1/DTD/svg11.dtd">
<!-- Generated by graphviz version 2.43.0 (0)
 -->
<!-- Title: MATH248 Pages: 1 -->
<svg width="1268pt" height="476pt"
 viewBox="0.00 0.00 1268.20 476.20" xmlns="http://www.w3.org/2000/svg" xmlns:xlink="http://www.w3.org/1999/xlink">
<g id="graph0" class="graph" transform="scale(1 1) rotate(0) translate(21.6 454.6)">
<title>MATH248</title>
<!-- course__MATH100 -->
<g id="node1" class="node">
<title>course__MATH100</title>
<g id="a_node1"><a xlink:href="../../../courses/MATH100.html" xlink:title="Equivalent or cross&#45;listed: MATH100: Calculus I | MATH102: Calculus for Students in the Social and Biological Sciences | MATH109: Introduction to Calculus" target="_top">
<path fill="#dfe3f4" stroke="#7e8d96" d="M99,-289C99,-289 12,-289 12,-289 6,-289 0,-283 0,-277 0,-277 0,-265 0,-265 0,-259 6,-253 12,-253 12,-253 99,-253 99,-253 105,-253 111,-259 111,-265 111,-265 111,-277 111,-277 111,-283 105,-289 99,-289"/>
<text text-anchor="middle" x="55.5" y="-273.8" font-family="Avenir Next" font-size="9.00" fill="#41515b">MATH100 / MATH102</text>
<text text-anchor="middle" x="55.5" y="-263.8" font-family="Avenir Next" font-size="9.00" fill="#41515b">MATH109</text>
</a>
</g>
</g>
<!-- course__MATH101 -->
<g id="node2" class="node">
<title>course__MATH101</title>
<g id="a_node2"><a xlink:href="../../../courses/MATH101.html" xlink:title="MATH101: Calculus II" target="_top">
<path fill="#dfe3f4" stroke="#7e8d96" d="M246,-289C246,-289 211,-289 211,-289 205,-289 199,-283 199,-277 199,-277 199,-265 199,-265 199,-259 205,-253 211,-253 211,-253 246,-253 246,-253 252,-253 258,-259 258,-265 258,-265 258,-277 258,-277 258,-283 252,-289 246,-289"/>
<text text-anchor="middle" x="228.5" y="-268.8" font-family="Avenir Next" font-size="9.00" fill="#41515b">MATH101</text>
</a>
</g>
</g>
<!-- course__MATH100&#45;&gt;course__MATH101 -->
<g id="edge6" class="edge">
<title>course__MATH100&#45;&gt;course__MATH101</title>
<path fill="none" stroke="#5d6972" stroke-width="1.2" d="M111.08,-271C137.36,-271 168.15,-271 191.46,-271"/>
<polygon fill="#5d6972" stroke="#5d6972" stroke-width="1.2" points="191.75,-273.45 198.75,-271 191.75,-268.55 191.75,-273.45"/>
</g>
<!-- course__PHYS110 -->
<g id="node4" class="node">
<title>course__PHYS110</title>
<g id="a_node4"><a xlink:href="../../../courses/PHYS110.html" xlink:title="Equivalent or cross&#45;listed: PHYS110: Introductory Physics I | PHYS120: Physics I" target="_top">
<path fill="#efd8cf" stroke="#1b2730" stroke-width="1.6" d="M273,-226C273,-226 184,-226 184,-226 178,-226 172,-220 172,-214 172,-214 172,-202 172,-202 172,-196 178,-190 184,-190 184,-190 273,-190 273,-190 279,-190 285,-196 285,-202 285,-202 285,-214 285,-214 285,-220 279,-226 273,-226"/>
<text text-anchor="middle" x="228.5" y="-205.5" font-family="Avenir Next" font-size="10.00" fill="#17232b">PHYS110 / PHYS120</text>
</a>
</g>
</g>
<!-- course__MATH100&#45;&gt;course__PHYS110 -->
<g id="edge17" class="edge">
<title>course__MATH100&#45;&gt;course__PHYS110</title>
<path fill="none" stroke="#5d6972" stroke-width="1.2" d="M105.5,-252.95C126.16,-245.33 150.32,-236.43 171.67,-228.57"/>
<polygon fill="#5d6972" stroke="#5d6972" stroke-width="1.2" points="172.77,-230.77 178.49,-226.06 171.08,-226.18 172.77,-230.77"/>
</g>
<!-- course__CSC110 -->
<g id="node5" class="node">
<title>course__CSC110</title>
<g id="a_node5"><a xlink:href="../../../courses/CSC110.html" xlink:title="Equivalent or cross&#45;listed: CSC110: Fundamentals of Programming I | CSC111: Fundamentals of Programming with Engineering Applications" target="_top">
<path fill="#e7ddec" stroke="#1b2730" stroke-width="1.6" d="M559,-341C559,-341 482,-341 482,-341 476,-341 470,-335 470,-329 470,-329 470,-317 470,-317 470,-311 476,-305 482,-305 482,-305 559,-305 559,-305 565,-305 571,-311 571,-317 571,-317 571,-329 571,-329 571,-335 565,-341 559,-341"/>
<text text-anchor="middle" x="520.5" y="-320.5" font-family="Avenir Next" font-size="10.00" fill="#17232b">CSC110 / CSC111</text>
</a>
</g>
</g>
<!-- course__MATH100&#45;&gt;course__CSC110 -->
<g id="edge1" class="edge">
<title>course__MATH100&#45;&gt;course__CSC110</title>
<path fill="none" stroke="#5d6972" stroke-width="1.2" d="M111.05,-286.23C130.19,-291.03 151.92,-295.89 172,-299 273.49,-314.69 393.24,-320.13 462.37,-322.01"/>
<polygon fill="#5d6972" stroke="#5d6972" stroke-width="1.2" points="462.66,-324.46 469.72,-322.2 462.78,-319.57 462.66,-324.46"/>
</g>
<!-- course__PHYS111 -->
<g id="node8" class="node">
<title>course__PHYS111</title>
<g id="a_node8"><a xlink:href="../../../courses/PHYS111.html" xlink:title="Equivalent or cross&#45;listed: PHYS111: Introductory Physics II | PHYS130: Physics II" target="_top">
<path fill="#efd8cf" stroke="#1b2730" stroke-width="1.6" d="M565,-222C565,-222 476,-222 476,-222 470,-222 464,-216 464,-210 464,-210 464,-198 464,-198 464,-192 470,-186 476,-186 476,-186 565,-186 565,-186 571,-186 577,-192 577,-198 577,-198 577,-210 577,-210 577,-216 571,-222 565,-222"/>
<text text-anchor="middle" x="520.5" y="-201.5" font-family="Avenir Next" font-size="10.00" fill="#17232b">PHYS111 / PHYS130</text>
</a>
</g>
</g>
<!-- course__MATH100&#45;&gt;course__PHYS111 -->
<g id="edge19" class="edge">
<title>course__MATH100&#45;&gt;course__PHYS111</title>
<path fill="none" stroke="#5d6972" stroke-width="1.2" d="M72.25,-252.68C92.64,-230.52 130.51,-194.38 172,-180 267.15,-147.02 385.56,-167.1 456.7,-185.17"/>
<polygon fill="#5d6972" stroke="#5d6972" stroke-width="1.2" points="456.47,-187.64 463.86,-187.02 457.7,-182.9 456.47,-187.64"/>
</g>
<!-- choice_MATH211_0 -->
<g id="node22" class="node">
<title>choice_MATH211_0</title>
<path fill="#fff7ee" stroke="#b7793f" stroke-width="1.1" d="M388,-409C388,-409 358,-409 358,-409 352,-409 346,-403 346,-397 346,-397 346,-385 346,-385 346,-379 352,-373 358,-373 358,-373 388,-373 388,-373 394,-373 400,-379 400,-385 400,-385 400,-397 400,-397 400,-403 394,-409 388,-409"/>
<text text-anchor="middle" x="373" y="-388.8" font-family="Avenir Next" font-size="9.00">1 of</text>
</g>
<!-- course__MATH100&#45;&gt;choice_MATH211_0 -->
<g id="edge8" class="edge">
<title>course__MATH100&#45;&gt;choice_MATH211_0</title>
<path fill="none" stroke="#7a8389" d="M82.47,-289.14C105.19,-304.3 139.55,-325.54 172,-339 228.43,-362.41 298.27,-377.68 338.72,-385.29"/>
<polygon fill="#7a8389" stroke="#7a8389" points="338.35,-387.71 345.68,-386.57 339.24,-382.89 338.35,-387.71"/>
</g>
<!-- course__MATH200 -->
<g id="node6" class="node">
<title>course__MATH200</title>
<g id="a_node6"><a xlink:href="../../../courses/MATH200.html" xlink:title="Equivalent or cross&#45;listed: MATH200: Calculus III | MATH202: Intermediate Calculus for CSC and EOS" target="_top">
<path fill="#dfe3f4" stroke="#1b2730" stroke-width="1.6" d="M568,-285C568,-285 473,-285 473,-285 467,-285 461,-279 461,-273 461,-273 461,-261 461,-261 461,-255 467,-249 473,-249 473,-249 568,-249 568,-249 574,-249 580,-255 580,-261 580,-261 580,-273 580,-273 580,-279 574,-285 568,-285"/>
<text text-anchor="middle" x="520.5" y="-264.5" font-family="Avenir Next" font-size="10.00" fill="#17232b">MATH200 / MATH202</text>
</a>
</g>
</g>
<!-- course__MATH101&#45;&gt;course__MATH200 -->
<g id="edge7" class="edge">
<title>course__MATH101&#45;&gt;course__MATH200</title>
<path fill="none" stroke="#5d6972" stroke-width="1.2" d="M258.1,-270.61C303.21,-269.98 392.06,-268.76 453.57,-267.91"/>
<polygon fill="#5d6972" stroke="#5d6972" stroke-width="1.2" points="453.96,-270.35 460.93,-267.81 453.89,-265.45 453.96,-270.35"/>
</g>
<!-- course__MATH101&#45;&gt;course__PHYS111 -->
<g id="edge20" class="edge">
<title>course__MATH101&#45;&gt;course__PHYS111</title>
<path fill="none" stroke="#5d6972" stroke-width="1.2" d="M258.1,-264.39C304.06,-253.77 395.42,-232.67 457.01,-218.44"/>
<polygon fill="#5d6972" stroke="#5d6972" stroke-width="1.2" points="457.72,-220.79 463.99,-216.82 456.62,-216.01 457.72,-220.79"/>
</g>
<!-- course__MATH151 -->
<g id="node3" class="node">
<title>course__MATH151</title>
<g id="a_node3"><a xlink:href="../../../courses/MATH151.html" xlink:title="MATH151: Finite Mathematics" target="_top">
<path fill="#dfe3f4" stroke="#7e8d96" d="M246,-432C246,-432 211,-432 211,-432 205,-432 199,-426 199,-420 199,-420 199,-408 199,-408 199,-402 205,-396 211,-396 211,-396 246,-396 246,-396 252,-396 258,-402 258,-408 258,-408 258,-420 258,-420 258,-426 252,-432 246,-432"/>
<text text-anchor="middle" x="228.5" y="-411.8" font-family="Avenir Next" font-size="9.00" fill="#41515b">MATH151</text>
</a>
</g>
</g>
<!-- course__MATH151&#45;&gt;choice_MATH211_0 -->
<g id="edge9" class="edge">
<title>course__MATH151&#45;&gt;choice_MATH211_0</title>
<path fill="none" stroke="#7a8389" d="M258.34,-409.35C281.58,-405.59 314.29,-400.31 338.65,-396.38"/>
<polygon fill="#7a8389" stroke="#7a8389" points="339.09,-398.79 345.61,-395.26 338.31,-393.96 339.09,-398.79"/>
</g>
<!-- course__PHYS110&#45;&gt;course__PHYS111 -->
<g id="edge18" class="edge">
<title>course__PHYS110&#45;&gt;course__PHYS111</title>
<path fill="none" stroke="#5d6972" stroke-width="1.2" d="M285.07,-207.23C334.08,-206.56 405.45,-205.57 456.55,-204.87"/>
<polygon fill="#5d6972" stroke="#5d6972" stroke-width="1.2" points="456.66,-207.32 463.62,-204.77 456.59,-202.42 456.66,-207.32"/>
</g>
<!-- course__MATH248 -->
<g id="node9" class="node">
<title>course__MATH248</title>
<g id="a_node9"><a xlink:href="../../../courses/MATH248.html" xlink:title="Equivalent or cross&#45;listed: MATH248: Computer Assisted Mathematics | PHYS248: Computer Assisted Physics" target="_top">
<path fill="#dfe3f4" stroke="#1f4f66" stroke-width="2" d="M805,-285C805,-285 653,-285 653,-285 647,-285 641,-279 641,-273 641,-273 641,-261 641,-261 641,-255 647,-249 653,-249 653,-249 805,-249 805,-249 811,-249 817,-255 817,-261 817,-261 817,-273 817,-273 817,-279 811,-285 805,-285"/>
<text text-anchor="middle" x="729" y="-270" font-family="Avenir Next" font-size="10.00" fill="#17232b">MATH248 / PHYS248</text>
<text text-anchor="middle" x="729" y="-259" font-family="Avenir Next" font-size="10.00" fill="#17232b">Computer Assisted Mathematics</text>
</a>
</g>
</g>
<!-- course__CSC110&#45;&gt;course__MATH248 -->
<g id="edge13" class="edge">
<title>course__CSC110&#45;&gt;course__MATH248</title>
<path fill="none" stroke="#5d6972" stroke-width="1.2" d="M571.22,-309.52C596.2,-302.74 626.95,-294.4 654.58,-286.91"/>
<polygon fill="#5d6972" stroke="#5d6972" stroke-width="1.2" points="655.42,-289.22 661.53,-285.03 654.13,-284.49 655.42,-289.22"/>
</g>
<!-- course__MATH200&#45;&gt;course__MATH248 -->
<g id="edge12" class="edge">
<title>course__MATH200&#45;&gt;course__MATH248</title>
<path fill="none" stroke="#5d6972" stroke-width="1.2" d="M580.12,-267C596.75,-267 615.3,-267 633.48,-267"/>
<polygon fill="#5d6972" stroke="#5d6972" stroke-width="1.2" points="633.7,-269.45 640.7,-267 633.7,-264.55 633.7,-269.45"/>
</g>
<!-- course__MATH211 -->
<g id="node7" class="node">
<title>course__MATH211</title>
<g id="a_node7"><a xlink:href="../../../courses/MATH211.html" xlink:title="MATH211: Matrix Algebra I" target="_top">
<path fill="#dfe3f4" stroke="#1b2730" stroke-width="1.6" d="M540,-409C540,-409 501,-409 501,-409 495,-409 489,-403 489,-397 489,-397 489,-385 489,-385 489,-379 495,-373 501,-373 501,-373 540,-373 540,-373 546,-373 552,-379 552,-385 552,-385 552,-397 552,-397 552,-403 546,-409 540,-409"/>
<text text-anchor="middle" x="520.5" y="-388.5" font-family="Avenir Next" font-size="10.00" fill="#17232b">MATH211</text>
</a>
</g>
</g>
<!-- course__MATH211&#45;&gt;course__MATH248 -->
<g id="edge11" class="edge">
<title>course__MATH211&#45;&gt;course__MATH248</title>
<path fill="none" stroke="#5d6972" stroke-width="1.2" d="M551.53,-372.97C588.69,-350.65 651.93,-312.68 691.75,-288.77"/>
<polygon fill="#5d6972" stroke="#5d6972" stroke-width="1.2" points="693.2,-290.76 697.94,-285.05 690.67,-286.56 693.2,-290.76"/>
</g>
<!-- course__PHYS411 -->
<g id="node20" class="node">
<title>course__PHYS411</title>
<g id="a_node20"><a xlink:href="../../../courses/PHYS411.html" xlink:title="PHYS411: Time Series Analysis" target="_top">
<path fill="#efd8cf" stroke="#7e8d96" d="M1190,-433C1190,-433 1156,-433 1156,-433 1150,-433 1144,-427 1144,-421 1144,-421 1144,-409 1144,-409 1144,-403 1150,-397 1156,-397 1156,-397 1190,-397 1190,-397 1196,-397 1202,-403 1202,-409 1202,-409 1202,-421 1202,-421 1202,-427 1196,-433 1190,-433"/>
<text text-anchor="middle" x="1173" y="-412.8" font-family="Avenir Next" font-size="9.00" fill="#41515b">PHYS411</text>
</a>
</g>
</g>
<!-- course__MATH211&#45;&gt;course__PHYS411 -->
<g id="edge30" class="edge">
<title>course__MATH211&#45;&gt;course__PHYS411</title>
<path fill="none" stroke="#5d6972" stroke-width="1.2" d="M552,-392.13C659.66,-396.1 1021.52,-409.45 1136.57,-413.69"/>
<polygon fill="#5d6972" stroke="#5d6972" stroke-width="1.2" points="1136.7,-416.15 1143.78,-413.96 1136.88,-411.25 1136.7,-416.15"/>
</g>
<!-- course__PHYS111&#45;&gt;course__MATH248 -->
<g id="edge14" class="edge">
<title>course__PHYS111&#45;&gt;course__MATH248</title>
<path fill="none" stroke="#5d6972" stroke-width="1.2" d="M577.11,-220.97C603.21,-228.93 634.51,-238.48 661.82,-246.81"/>
<polygon fill="#5d6972" stroke="#5d6972" stroke-width="1.2" points="661.26,-249.2 668.67,-248.9 662.69,-244.51 661.26,-249.2"/>
</g>
<!-- course__EOS460 -->
<g id="node10" class="node">
<title>course__EOS460</title>
<g id="a_node10"><a xlink:href="../../../courses/EOS460.html" xlink:title="EOS460: Earth System Science" target="_top">
<path fill="#d7e9ef" stroke="#1b2730" stroke-width="1.6" d="M926.5,-216C926.5,-216 896.5,-216 896.5,-216 890.5,-216 884.5,-210 884.5,-204 884.5,-204 884.5,-192 884.5,-192 884.5,-186 890.5,-180 896.5,-180 896.5,-180 926.5,-180 926.5,-180 932.5,-180 938.5,-186 938.5,-192 938.5,-192 938.5,-204 938.5,-204 938.5,-210 932.5,-216 926.5,-216"/>
<text text-anchor="middle" x="911.5" y="-195.5" font-family="Avenir Next" font-size="10.00" fill="#17232b">EOS460</text>
</a>
</g>
</g>
<!-- course__MATH248&#45;&gt;course__EOS460 -->
<g id="edge5" class="edge">
<title>course__MATH248&#45;&gt;course__EOS460</title>
<path fill="none" stroke="#5d6972" stroke-width="1.2" d="M777.42,-248.87C808.91,-236.83 849.45,-221.34 877.47,-210.63"/>
<polygon fill="#5d6972" stroke="#5d6972" stroke-width="1.2" points="878.65,-212.8 884.31,-208.01 876.9,-208.22 878.65,-212.8"/>
</g>
<!-- course__MATH348 -->
<g id="node11" class="node">
<title>course__MATH348</title>
<g id="a_node11"><a xlink:href="../../../courses/MATH348.html" xlink:title="MATH348: Numerical Methods" target="_top">
<path fill="#dfe3f4" stroke="#1b2730" stroke-width="1.6" d="M931,-384C931,-384 892,-384 892,-384 886,-384 880,-378 880,-372 880,-372 880,-360 880,-360 880,-354 886,-348 892,-348 892,-348 931,-348 931,-348 937,-348 943,-354 943,-360 943,-360 943,-372 943,-372 943,-378 937,-384 931,-384"/>
<text text-anchor="middle" x="911.5" y="-363.5" font-family="Avenir Next" font-size="10.00" fill="#17232b">MATH348</text>
</a>
</g>
</g>
<!-- course__MATH248&#45;&gt;course__MATH348 -->
<g id="edge15" class="edge">
<title>course__MATH248&#45;&gt;course__MATH348</title>
<path fill="none" stroke="#5d6972" stroke-width="1.2" d="M763.11,-285.16C794.31,-302.27 840.99,-327.87 873.42,-345.66"/>
<polygon fill="#5d6972" stroke="#5d6972" stroke-width="1.2" points="872.4,-347.89 879.71,-349.11 874.75,-343.6 872.4,-347.89"/>
</g>
<!-- course__PHYS321A -->
<g id="node12" class="node">
<title>course__PHYS321A</title>
<g id="a_node12"><a xlink:href="../../../courses/PHYS321A.html" xlink:title="PHYS321A: Classical Mechanics I" target="_top">
<path fill="#efd8cf" stroke="#1b2730" stroke-width="1.6" d="M933,-160C933,-160 890,-160 890,-160 884,-160 878,-154 878,-148 878,-148 878,-136 878,-136 878,-130 884,-124 890,-124 890,-124 933,-124 933,-124 939,-124 945,-130 945,-136 945,-136 945,-148 945,-148 945,-154 939,-160 933,-160"/>
<text text-anchor="middle" x="911.5" y="-139.5" font-family="Avenir Next" font-size="10.00" fill="#17232b">PHYS321A</text>
</a>
</g>
</g>
<!-- course__MATH248&#45;&gt;course__PHYS321A -->
<g id="edge21" class="edge">
<title>course__MATH248&#45;&gt;course__PHYS321A</title>
<path fill="none" stroke="#5d6972" stroke-width="1.2" d="M756.25,-248.82C788.6,-226.42 843.55,-188.36 878.39,-164.24"/>
<polygon fill="#5d6972" stroke="#5d6972" stroke-width="1.2" points="879.86,-166.2 884.22,-160.2 877.07,-162.17 879.86,-166.2"/>
</g>
<!-- course__PHYS323 -->
<g id="node13" class="node">
<title>course__PHYS323</title>
<g id="a_node13"><a xlink:href="../../../courses/PHYS323.html" xlink:title="PHYS323: Quantum Mechanics I" target="_top">
<path fill="#efd8cf" stroke="#1b2730" stroke-width="1.6" d="M929.5,-328C929.5,-328 893.5,-328 893.5,-328 887.5,-328 881.5,-322 881.5,-316 881.5,-316 881.5,-304 881.5,-304 881.5,-298 887.5,-292 893.5,-292 893.5,-292 929.5,-292 929.5,-292 935.5,-292 941.5,-298 941.5,-304 941.5,-304 941.5,-316 941.5,-316 941.5,-322 935.5,-328 929.5,-328"/>
<text text-anchor="middle" x="911.5" y="-307.5" font-family="Avenir Next" font-size="10.00" fill="#17232b">PHYS323</text>
</a>
</g>
</g>
<!-- course__MATH248&#45;&gt;course__PHYS323 -->
<g id="edge23" class="edge">
<title>course__MATH248&#45;&gt;course__PHYS323</title>
<path fill="none" stroke="#5d6972" stroke-width="1.2" d="M805.76,-285.05C829.48,-290.7 854.56,-296.67 874.24,-301.36"/>
<polygon fill="#5d6972" stroke="#5d6972" stroke-width="1.2" points="873.85,-303.79 881.23,-303.03 874.99,-299.02 873.85,-303.79"/>
</g>
<!-- course__PHYS326 -->
<g id="node14" class="node">
<title>course__PHYS326</title>
<g id="a_node14"><a xlink:href="../../../courses/PHYS326.html" xlink:title="PHYS326: Electricity and Magnetism" target="_top">
<path fill="#efd8cf" stroke="#1b2730" stroke-width="1.6" d="M929.5,-272C929.5,-272 893.5,-272 893.5,-272 887.5,-272 881.5,-266 881.5,-260 881.5,-260 881.5,-248 881.5,-248 881.5,-242 887.5,-236 893.5,-236 893.5,-236 929.5,-236 929.5,-236 935.5,-236 941.5,-242 941.5,-248 941.5,-248 941.5,-260 941.5,-260 941.5,-266 935.5,-272 929.5,-272"/>
<text text-anchor="middle" x="911.5" y="-251.5" font-family="Avenir Next" font-size="10.00" fill="#17232b">PHYS326</text>
</a>
</g>
</g>
<!-- course__MATH248&#45;&gt;course__PHYS326 -->
<g id="edge24" class="edge">
<title>course__MATH248&#45;&gt;course__PHYS326</title>
<path fill="none" stroke="#5d6972" stroke-width="1.2" d="M817.08,-260.73C837.09,-259.29 857.31,-257.83 873.8,-256.64"/>
<polygon fill="#5d6972" stroke="#5d6972" stroke-width="1.2" points="874.29,-259.06 881.1,-256.12 873.94,-254.18 874.29,-259.06"/>
</g>
<!-- course__MATH449 -->
<g id="node17" class="node">
<title>course__MATH449</title>
<g id="a_node17"><a xlink:href="../../../courses/MATH449.html" xlink:title="MATH449: Scientific Computing" target="_top">
<path fill="#dfe3f4" stroke="#7e8d96" d="M1190.5,-377C1190.5,-377 1155.5,-377 1155.5,-377 1149.5,-377 1143.5,-371 1143.5,-365 1143.5,-365 1143.5,-353 1143.5,-353 1143.5,-347 1149.5,-341 1155.5,-341 1155.5,-341 1190.5,-341 1190.5,-341 1196.5,-341 1202.5,-347 1202.5,-353 1202.5,-353 1202.5,-365 1202.5,-365 1202.5,-371 1196.5,-377 1190.5,-377"/>
<text text-anchor="middle" x="1173" y="-356.8" font-family="Avenir Next" font-size="9.00" fill="#41515b">MATH449</text>
</a>
</g>
</g>
<!-- course__MATH348&#45;&gt;course__MATH449 -->
<g id="edge16" class="edge">
<title>course__MATH348&#45;&gt;course__MATH449</title>
<path fill="none" stroke="#5d6972" stroke-width="1.2" d="M943.03,-365.18C991.17,-363.88 1084.52,-361.36 1135.91,-359.97"/>
<polygon fill="#5d6972" stroke="#5d6972" stroke-width="1.2" points="1136.24,-362.42 1143.17,-359.78 1136.11,-357.52 1136.24,-362.42"/>
</g>
<!-- course__EOS427 -->
<g id="node15" class="node">
<title>course__EOS427</title>
<g id="a_node15"><a xlink:href="../../../courses/EOS427.html" xlink:title="Equivalent or cross&#45;listed: EOS427: Geophysics | PHYS427: Geophysics" target="_top">
<path fill="#d7e9ef" stroke="#7e8d96" d="M1213,-267C1213,-267 1133,-267 1133,-267 1127,-267 1121,-261 1121,-255 1121,-255 1121,-243 1121,-243 1121,-237 1127,-231 1133,-231 1133,-231 1213,-231 1213,-231 1219,-231 1225,-237 1225,-243 1225,-243 1225,-255 1225,-255 1225,-261 1219,-267 1213,-267"/>
<text text-anchor="middle" x="1173" y="-246.8" font-family="Avenir Next" font-size="9.00" fill="#41515b">EOS427 / PHYS427</text>
</a>
</g>
</g>
<!-- course__PHYS321A&#45;&gt;course__EOS427 -->
<g id="edge2" class="edge">
<title>course__PHYS321A&#45;&gt;course__EOS427</title>
<path fill="none" stroke="#5d6972" stroke-width="1.2" d="M945.1,-155.44C989.49,-173.74 1069.36,-206.68 1121.52,-228.19"/>
<polygon fill="#5d6972" stroke="#5d6972" stroke-width="1.2" points="1120.65,-230.48 1128.06,-230.88 1122.52,-225.95 1120.65,-230.48"/>
</g>
<!-- course__EOS451 -->
<g id="node16" class="node">
<title>course__EOS451</title>
<g id="a_node16"><a xlink:href="../../../courses/EOS451.html" xlink:title="EOS451: Introductory Dynamic Meteorology" target="_top">
<path fill="#d7e9ef" stroke="#7e8d96" d="M1188,-204C1188,-204 1158,-204 1158,-204 1152,-204 1146,-198 1146,-192 1146,-192 1146,-180 1146,-180 1146,-174 1152,-168 1158,-168 1158,-168 1188,-168 1188,-168 1194,-168 1200,-174 1200,-180 1200,-180 1200,-192 1200,-192 1200,-198 1194,-204 1188,-204"/>
<text text-anchor="middle" x="1173" y="-183.8" font-family="Avenir Next" font-size="9.00" fill="#41515b">EOS451</text>
</a>
</g>
</g>
<!-- course__PHYS321A&#45;&gt;course__EOS451 -->
<g id="edge4" class="edge">
<title>course__PHYS321A&#45;&gt;course__EOS451</title>
<path fill="none" stroke="#5d6972" stroke-width="1.2" d="M945.1,-147.53C994.8,-155.95 1088.97,-171.92 1138.94,-180.39"/>
<polygon fill="#5d6972" stroke="#5d6972" stroke-width="1.2" points="1138.67,-182.83 1145.98,-181.59 1139.48,-178 1138.67,-182.83"/>
</g>
<!-- course__PHYS321B -->
<g id="node18" class="node">
<title>course__PHYS321B</title>
<g id="a_node18"><a xlink:href="../../../courses/PHYS321B.html" xlink:title="PHYS321B: Classical Mechanics II" target="_top">
<path fill="#efd8cf" stroke="#7e8d96" d="M1193,-148C1193,-148 1153,-148 1153,-148 1147,-148 1141,-142 1141,-136 1141,-136 1141,-124 1141,-124 1141,-118 1147,-112 1153,-112 1153,-112 1193,-112 1193,-112 1199,-112 1205,-118 1205,-124 1205,-124 1205,-136 1205,-136 1205,-142 1199,-148 1193,-148"/>
<text text-anchor="middle" x="1173" y="-127.8" font-family="Avenir Next" font-size="9.00" fill="#41515b">PHYS321B</text>
</a>
</g>
</g>
<!-- course__PHYS321A&#45;&gt;course__PHYS321B -->
<g id="edge22" class="edge">
<title>course__PHYS321A&#45;&gt;course__PHYS321B</title>
<path fill="none" stroke="#5d6972" stroke-width="1.2" d="M945.1,-140.49C993.11,-138.27 1082.63,-134.13 1133.7,-131.77"/>
<polygon fill="#5d6972" stroke="#5d6972" stroke-width="1.2" points="1134.07,-134.21 1140.94,-131.44 1133.84,-129.31 1134.07,-134.21"/>
</g>
<!-- course__PHYS410 -->
<g id="node19" class="node">
<title>course__PHYS410</title>
<g id="a_node19"><a xlink:href="../../../courses/PHYS410.html" xlink:title="PHYS410: Topics in Mathematical Physics I" target="_top">
<path fill="#efd8cf" stroke="#7e8d96" d="M1190,-92C1190,-92 1156,-92 1156,-92 1150,-92 1144,-86 1144,-80 1144,-80 1144,-68 1144,-68 1144,-62 1150,-56 1156,-56 1156,-56 1190,-56 1190,-56 1196,-56 1202,-62 1202,-68 1202,-68 1202,-80 1202,-80 1202,-86 1196,-92 1190,-92"/>
<text text-anchor="middle" x="1173" y="-71.8" font-family="Avenir Next" font-size="9.00" fill="#41515b">PHYS410</text>
</a>
</g>
</g>
<!-- course__PHYS321A&#45;&gt;course__PHYS410 -->
<g id="edge25" class="edge">
<title>course__PHYS321A&#45;&gt;course__PHYS410</title>
<path fill="none" stroke="#5d6972" stroke-width="1.2" d="M945.1,-133.46C994.12,-120.61 1086.41,-96.43 1136.87,-83.21"/>
<polygon fill="#5d6972" stroke="#5d6972" stroke-width="1.2" points="1137.55,-85.56 1143.7,-81.42 1136.31,-80.82 1137.55,-85.56"/>
</g>
<!-- course__PHYS426 -->
<g id="node21" class="node">
<title>course__PHYS426</title>
<g id="a_node21"><a xlink:href="../../../courses/PHYS426.html" xlink:title="PHYS426: Fluid Mechanics" target="_top">
<path fill="#efd8cf" stroke="#1b2730" stroke-width="1.6" d="M1191,-36C1191,-36 1155,-36 1155,-36 1149,-36 1143,-30 1143,-24 1143,-24 1143,-12 1143,-12 1143,-6 1149,0 1155,0 1155,0 1191,0 1191,0 1197,0 1203,-6 1203,-12 1203,-12 1203,-24 1203,-24 1203,-30 1197,-36 1191,-36"/>
<text text-anchor="middle" x="1173" y="-15.5" font-family="Avenir Next" font-size="10.00" fill="#17232b">PHYS426</text>
</a>
</g>
</g>
<!-- course__PHYS321A&#45;&gt;course__PHYS426 -->
<g id="edge31" class="edge">
<title>course__PHYS321A&#45;&gt;course__PHYS426</title>
<path fill="none" stroke="#5d6972" stroke-width="1.2" d="M945.1,-126.42C993.96,-103.08 1085.8,-59.19 1136.37,-35.03"/>
<polygon fill="#5d6972" stroke="#5d6972" stroke-width="1.2" points="1137.66,-37.12 1142.92,-31.89 1135.55,-32.7 1137.66,-37.12"/>
</g>
<!-- choice_PHYS411_0_0 -->
<g id="node23" class="node">
<title>choice_PHYS411_0_0</title>
<path fill="#fff7ee" stroke="#b7793f" stroke-width="1.1" d="M1048,-326C1048,-326 1018,-326 1018,-326 1012,-326 1006,-320 1006,-314 1006,-314 1006,-302 1006,-302 1006,-296 1012,-290 1018,-290 1018,-290 1048,-290 1048,-290 1054,-290 1060,-296 1060,-302 1060,-302 1060,-314 1060,-314 1060,-320 1054,-326 1048,-326"/>
<text text-anchor="middle" x="1033" y="-305.8" font-family="Avenir Next" font-size="9.00">2 of</text>
</g>
<!-- course__PHYS321A&#45;&gt;choice_PHYS411_0_0 -->
<g id="edge26" class="edge">
<title>course__PHYS321A&#45;&gt;choice_PHYS411_0_0</title>
<path fill="none" stroke="#7a8389" d="M935.35,-160.15C938.75,-163.28 942.08,-166.61 945,-170 976.14,-206.16 1003.98,-254.5 1019.37,-283.32"/>
<polygon fill="#7a8389" stroke="#7a8389" points="1017.39,-284.82 1022.83,-289.86 1021.72,-282.53 1017.39,-284.82"/>
</g>
<!-- course__PHYS323&#45;&gt;choice_PHYS411_0_0 -->
<g id="edge27" class="edge">
<title>course__PHYS323&#45;&gt;choice_PHYS411_0_0</title>
<path fill="none" stroke="#7a8389" d="M941.73,-309.51C958.9,-309.22 980.67,-308.86 998.53,-308.56"/>
<polygon fill="#7a8389" stroke="#7a8389" points="998.96,-311 1005.92,-308.44 998.88,-306.1 998.96,-311"/>
</g>
<!-- course__PHYS326&#45;&gt;course__EOS427 -->
<g id="edge3" class="edge">
<title>course__PHYS326&#45;&gt;course__EOS427</title>
<path fill="none" stroke="#5d6972" stroke-width="1.2" d="M941.51,-253.44C983.03,-252.64 1060.28,-251.15 1113.84,-250.12"/>
<polygon fill="#5d6972" stroke="#5d6972" stroke-width="1.2" points="1113.95,-252.57 1120.9,-249.98 1113.85,-247.67 1113.95,-252.57"/>
</g>
<!-- course__PHYS326&#45;&gt;choice_PHYS411_0_0 -->
<g id="edge28" class="edge">
<title>course__PHYS326&#45;&gt;choice_PHYS411_0_0</title>
<path fill="none" stroke="#7a8389" d="M941.73,-267.21C959.21,-275.11 981.45,-285.16 999.48,-293.3"/>
<polygon fill="#7a8389" stroke="#7a8389" points="998.53,-295.56 1005.92,-296.21 1000.55,-291.1 998.53,-295.56"/>
</g>
<!-- choice_MATH211_0&#45;&gt;course__MATH211 -->
<g id="edge10" class="edge">
<title>choice_MATH211_0&#45;&gt;course__MATH211</title>
<path fill="none" stroke="#5d6972" stroke-width="1.2" d="M400.01,-391C422.8,-391 456.2,-391 481.9,-391"/>
<polygon fill="#5d6972" stroke="#5d6972" stroke-width="1.2" points="481.93,-393.45 488.92,-391 481.92,-388.55 481.93,-393.45"/>
</g>
<!-- choice_PHYS411_0_0&#45;&gt;course__PHYS411 -->
<g id="edge29" class="edge">
<title>choice_PHYS411_0_0&#45;&gt;course__PHYS411</title>
<path fill="none" stroke="#5d6972" stroke-width="1.2" d="M1051.59,-326.28C1068.45,-343.22 1095.09,-368.52 1121,-387 1126.19,-390.7 1131.93,-394.29 1137.62,-397.58"/>
<polygon fill="#5d6972" stroke="#5d6972" stroke-width="1.2" points="1136.45,-399.73 1143.75,-401.03 1138.86,-395.46 1136.45,-399.73"/>
</g>
</g>
</svg>
