<?xml version="1.0" encoding="UTF-8" standalone="no"?>
<!DOCTYPE svg PUBLIC "-//W3C//DTD SVG 1.1//EN"
 "http://www.w3.org/Graphics/SVG/1.1/DTD/svg11.dtd">
<!-- Generated by graphviz version 2.43.0 (0)
 -->
<!-- Title: MATH492 Pages: 1 -->
<svg width="1252pt" height="244pt"
 viewBox="0.00 0.00 1252.20 244.20" xmlns="http://www.w3.org/2000/svg" xmlns:xlink="http://www.w3.org/1999/xlink">
<g id="graph0" class="graph" transform="scale(1 1) rotate(0) translate(21.6 222.6)">
<title>MATH492</title>
<!-- course__MATH100 -->
<g id="node1" class="node">
<title>course__MATH100</title>
<g id="a_node1"><a xlink:href="../../../courses/MATH100.html" xlink:title="Equivalent or cross&#45;listed: MATH100: Calculus I | MATH102: Calculus for Students in the Social and Biological Sciences | MATH109: Introduction to Calculus" target="_top">
<path fill="#dfe3f4" stroke="#7e8d96" d="M440,-176C440,-176 353,-176 353,-176 347,-176 341,-170 341,-164 341,-164 341,-152 341,-152 341,-146 347,-140 353,-140 353,-140 440,-140 440,-140 446,-140 452,-146 452,-152 452,-152 452,-164 452,-164 452,-170 446,-176 440,-176"/>
<text text-anchor="middle" x="396.5" y="-160.8" font-family="Avenir Next" font-size="9.00" fill="#41515b">MATH100 / MATH102</text>
<text text-anchor="middle" x="396.5" y="-150.8" font-family="Avenir Next" font-size="9.00" fill="#41515b">MATH109</text>
</a>
</g>
</g>
<!-- course__MATH101 -->
<g id="node2" class="node">
<title>course__MATH101</title>
<g id="a_node2"><a xlink:href="../../../courses/MATH101.html" xlink:title="MATH101: Calculus II" target="_top">
<path fill="#dfe3f4" stroke="#7e8d96" d="M560,-201C560,-201 525,-201 525,-201 519,-201 513,-195 513,-189 513,-189 513,-177 513,-177 513,-171 519,-165 525,-165 525,-165 560,-165 560,-165 566,-165 572,-171 572,-177 572,-177 572,-189 572,-189 572,-195 566,-201 560,-201"/>
<text text-anchor="middle" x="542.5" y="-180.8" font-family="Avenir Next" font-size="9.00" fill="#41515b">MATH101</text>
</a>
</g>
</g>
<!-- course__MATH100&#45;&gt;course__MATH101 -->
<g id="edge2" class="edge">
<title>course__MATH100&#45;&gt;course__MATH101</title>
<path fill="none" stroke="#5d6972" stroke-width="1.2" d="M452.35,-167.52C470.27,-170.63 489.7,-174.01 505.83,-176.81"/>
<polygon fill="#5d6972" stroke="#5d6972" stroke-width="1.2" points="505.67,-179.27 512.99,-178.05 506.51,-174.44 505.67,-179.27"/>
</g>
<!-- choice_MATH211_0 -->
<g id="node9" class="node">
<title>choice_MATH211_0</title>
<path fill="#fff7ee" stroke="#b7793f" stroke-width="1.1" d="M847,-124C847,-124 817,-124 817,-124 811,-124 805,-118 805,-112 805,-112 805,-100 805,-100 805,-94 811,-88 817,-88 817,-88 847,-88 847,-88 853,-88 859,-94 859,-100 859,-100 859,-112 859,-112 859,-118 853,-124 847,-124"/>
<text text-anchor="middle" x="832" y="-103.8" font-family="Avenir Next" font-size="9.00">1 of</text>
</g>
<!-- course__MATH100&#45;&gt;choice_MATH211_0 -->
<g id="edge5" class="edge">
<title>course__MATH100&#45;&gt;choice_MATH211_0</title>
<path fill="none" stroke="#7a8389" d="M452.4,-151.41C543.48,-140.49 723.14,-118.94 797.53,-110.01"/>
<polygon fill="#7a8389" stroke="#7a8389" points="798.16,-112.41 804.81,-109.14 797.57,-107.54 798.16,-112.41"/>
</g>
<!-- course__MATH200 -->
<g id="node4" class="node">
<title>course__MATH200</title>
<g id="a_node4"><a xlink:href="../../../courses/MATH200.html" xlink:title="Equivalent or cross&#45;listed: MATH200: Calculus III | MATH202: Intermediate Calculus for CSC and EOS" target="_top">
<path fill="#dfe3f4" stroke="#7e8d96" d="M732,-201C732,-201 645,-201 645,-201 639,-201 633,-195 633,-189 633,-189 633,-177 633,-177 633,-171 639,-165 645,-165 645,-165 732,-165 732,-165 738,-165 744,-171 744,-177 744,-177 744,-189 744,-189 744,-195 738,-201 732,-201"/>
<text text-anchor="middle" x="688.5" y="-180.8" font-family="Avenir Next" font-size="9.00" fill="#41515b">MATH200 / MATH202</text>
</a>
</g>
</g>
<!-- course__MATH101&#45;&gt;course__MATH200 -->
<g id="edge3" class="edge">
<title>course__MATH101&#45;&gt;course__MATH200</title>
<path fill="none" stroke="#5d6972" stroke-width="1.2" d="M572.29,-183C587.58,-183 607,-183 625.51,-183"/>
<polygon fill="#5d6972" stroke="#5d6972" stroke-width="1.2" points="625.82,-185.45 632.82,-183 625.82,-180.55 625.82,-185.45"/>
</g>
<!-- course__MATH151 -->
<g id="node3" class="node">
<title>course__MATH151</title>
<g id="a_node3"><a xlink:href="../../../courses/MATH151.html" xlink:title="MATH151: Finite Mathematics" target="_top">
<path fill="#dfe3f4" stroke="#7e8d96" d="M706,-103C706,-103 671,-103 671,-103 665,-103 659,-97 659,-91 659,-91 659,-79 659,-79 659,-73 665,-67 671,-67 671,-67 706,-67 706,-67 712,-67 718,-73 718,-79 718,-79 718,-91 718,-91 718,-97 712,-103 706,-103"/>
<text text-anchor="middle" x="688.5" y="-82.8" font-family="Avenir Next" font-size="9.00" fill="#41515b">MATH151</text>
</a>
</g>
</g>
<!-- course__MATH151&#45;&gt;choice_MATH211_0 -->
<g id="edge6" class="edge">
<title>course__MATH151&#45;&gt;choice_MATH211_0</title>
<path fill="none" stroke="#7a8389" d="M718.13,-89.25C741.11,-92.66 773.41,-97.45 797.58,-101.04"/>
<polygon fill="#7a8389" stroke="#7a8389" points="797.51,-103.51 804.79,-102.11 798.23,-98.66 797.51,-103.51"/>
</g>
<!-- course__MATH204 -->
<g id="node5" class="node">
<title>course__MATH204</title>
<g id="a_node5"><a xlink:href="../../../courses/MATH204.html" xlink:title="MATH204: Calculus IV" target="_top">
<path fill="#dfe3f4" stroke="#1b2730" stroke-width="1.6" d="M971,-185C971,-185 932,-185 932,-185 926,-185 920,-179 920,-173 920,-173 920,-161 920,-161 920,-155 926,-149 932,-149 932,-149 971,-149 971,-149 977,-149 983,-155 983,-161 983,-161 983,-173 983,-173 983,-179 977,-185 971,-185"/>
<text text-anchor="middle" x="951.5" y="-164.5" font-family="Avenir Next" font-size="10.00" fill="#17232b">MATH204</text>
</a>
</g>
</g>
<!-- course__MATH200&#45;&gt;course__MATH204 -->
<g id="edge4" class="edge">
<title>course__MATH200&#45;&gt;course__MATH204</title>
<path fill="none" stroke="#5d6972" stroke-width="1.2" d="M744.21,-179.65C794.76,-176.55 868.53,-172.02 912.79,-169.31"/>
<polygon fill="#5d6972" stroke="#5d6972" stroke-width="1.2" points="913.06,-171.75 919.9,-168.88 912.77,-166.86 913.06,-171.75"/>
</g>
<!-- course__MATH347 -->
<g id="node7" class="node">
<title>course__MATH347</title>
<g id="a_node7"><a xlink:href="../../../courses/MATH492.html" xlink:title="Equivalent or cross&#45;listed: MATH347: Introduction to Continuous Optimization | MATH492: Topics in Applied Mathematics" target="_top">
<path fill="#dfe3f4" stroke="#1f4f66" stroke-width="2" d="M1197,-124C1197,-124 1056,-124 1056,-124 1050,-124 1044,-118 1044,-112 1044,-112 1044,-100 1044,-100 1044,-94 1050,-88 1056,-88 1056,-88 1197,-88 1197,-88 1203,-88 1209,-94 1209,-100 1209,-100 1209,-112 1209,-112 1209,-118 1203,-124 1197,-124"/>
<text text-anchor="middle" x="1126.5" y="-109" font-family="Avenir Next" font-size="10.00" fill="#17232b">MATH347 / MATH492</text>
<text text-anchor="middle" x="1126.5" y="-98" font-family="Avenir Next" font-size="10.00" fill="#17232b">Topics in Applied Mathematics</text>
</a>
</g>
</g>
<!-- course__MATH204&#45;&gt;course__MATH347 -->
<g id="edge9" class="edge">
<title>course__MATH204&#45;&gt;course__MATH347</title>
<path fill="none" stroke="#5d6972" stroke-width="1.2" d="M983.03,-156.23C1006.38,-148 1039.26,-136.41 1067.55,-126.43"/>
<polygon fill="#5d6972" stroke="#5d6972" stroke-width="1.2" points="1068.48,-128.7 1074.26,-124.07 1066.85,-124.08 1068.48,-128.7"/>
</g>
<!-- course__MATH211 -->
<g id="node6" class="node">
<title>course__MATH211</title>
<g id="a_node6"><a xlink:href="../../../courses/MATH211.html" xlink:title="MATH211: Matrix Algebra I" target="_top">
<path fill="#dfe3f4" stroke="#1b2730" stroke-width="1.6" d="M971,-124C971,-124 932,-124 932,-124 926,-124 920,-118 920,-112 920,-112 920,-100 920,-100 920,-94 926,-88 932,-88 932,-88 971,-88 971,-88 977,-88 983,-94 983,-100 983,-100 983,-112 983,-112 983,-118 977,-124 971,-124"/>
<text text-anchor="middle" x="951.5" y="-103.5" font-family="Avenir Next" font-size="10.00" fill="#17232b">MATH211</text>
</a>
</g>
</g>
<!-- course__MATH211&#45;&gt;course__MATH347 -->
<g id="edge8" class="edge">
<title>course__MATH211&#45;&gt;course__MATH347</title>
<path fill="none" stroke="#5d6972" stroke-width="1.2" d="M983.03,-106C998.15,-106 1017.27,-106 1036.54,-106"/>
<polygon fill="#5d6972" stroke="#5d6972" stroke-width="1.2" points="1036.65,-108.45 1043.65,-106 1036.65,-103.55 1036.65,-108.45"/>
</g>
<!-- MATH492_notes -->
<g id="node8" class="node">
<title>MATH492_notes</title>
<polygon fill="#fff7ee" stroke="#b7793f" stroke-width="1.1" points="274,-72 0,-72 0,0 280,0 280,-66 274,-72"/>
<polyline fill="none" stroke="#b7793f" stroke-width="1.1" points="274,-72 274,-66 "/>
<polyline fill="none" stroke="#b7793f" stroke-width="1.1" points="280,-66 274,-66 "/>
<text text-anchor="start" x="13" y="-52.4" font-family="Avenir Next" font-size="12.00">Published notes</text>
<text text-anchor="start" x="13" y="-39.4" font-family="Avenir Next" font-size="12.00">Minimum third&#45;year standing</text>
<text text-anchor="start" x="13" y="-26.4" font-family="Avenir Next" font-size="12.00">additional prerequisites set by department</text>
<text text-anchor="start" x="13" y="-13.4" font-family="Avenir Next" font-size="12.00">depending upon topic</text>
</g>
<!-- MATH492_notes&#45;&gt;course__MATH347 -->
<!-- choice_MATH211_0&#45;&gt;course__MATH211 -->
<g id="edge7" class="edge">
<title>choice_MATH211_0&#45;&gt;course__MATH211</title>
<path fill="none" stroke="#5d6972" stroke-width="1.2" d="M859.08,-106C874.81,-106 895.14,-106 912.62,-106"/>
<polygon fill="#5d6972" stroke="#5d6972" stroke-width="1.2" points="912.92,-108.45 919.92,-106 912.92,-103.55 912.92,-108.45"/>
</g>
</g>
</svg>
