<?xml version="1.0" encoding="UTF-8" standalone="no"?>
<!DOCTYPE svg PUBLIC "-//W3C//DTD SVG 1.1//EN"
 "http://www.w3.org/Graphics/SVG/1.1/DTD/svg11.dtd">
<!-- Generated by graphviz version 2.43.0 (0)
 -->
<!-- Title: MATH346 Pages: 1 -->
<svg width="1510pt" height="506pt"
 viewBox="0.00 0.00 1510.20 506.20" xmlns="http://www.w3.org/2000/svg" xmlns:xlink="http://www.w3.org/1999/xlink">
<g id="graph0" class="graph" transform="scale(1 1) rotate(0) translate(21.6 484.6)">
<title>MATH346</title>
<!-- course__MATH100 -->
<g id="node1" class="node">
<title>course__MATH100</title>
<g id="a_node1"><a xlink:href="../../../courses/MATH100.html" xlink:title="Equivalent or cross&#45;listed: MATH100: Calculus I | MATH102: Calculus for Students in the Social and Biological Sciences | MATH109: Introduction to Calculus" target="_top">
<path fill="#dfe3f4" stroke="#7e8d96" d="M99,-270C99,-270 12,-270 12,-270 6,-270 0,-264 0,-258 0,-258 0,-246 0,-246 0,-240 6,-234 12,-234 12,-234 99,-234 99,-234 105,-234 111,-240 111,-246 111,-246 111,-258 111,-258 111,-264 105,-270 99,-270"/>
<text text-anchor="middle" x="55.5" y="-254.8" font-family="Avenir Next" font-size="9.00" fill="#41515b">MATH100 / MATH102</text>
<text text-anchor="middle" x="55.5" y="-244.8" font-family="Avenir Next" font-size="9.00" fill="#41515b">MATH109</text>
</a>
</g>
</g>
<!-- course__MATH101 -->
<g id="node2" class="node">
<title>course__MATH101</title>
<g id="a_node2"><a xlink:href="../../../courses/MATH101.html" xlink:title="MATH101: Calculus II" target="_top">
<path fill="#dfe3f4" stroke="#7e8d96" d="M219,-295C219,-295 184,-295 184,-295 178,-295 172,-289 172,-283 172,-283 172,-271 172,-271 172,-265 178,-259 184,-259 184,-259 219,-259 219,-259 225,-259 231,-265 231,-271 231,-271 231,-283 231,-283 231,-289 225,-295 219,-295"/>
<text text-anchor="middle" x="201.5" y="-274.8" font-family="Avenir Next" font-size="9.00" fill="#41515b">MATH101</text>
</a>
</g>
</g>
<!-- course__MATH100&#45;&gt;course__MATH101 -->
<g id="edge5" class="edge">
<title>course__MATH100&#45;&gt;course__MATH101</title>
<path fill="none" stroke="#5d6972" stroke-width="1.2" d="M111.35,-261.52C129.27,-264.63 148.7,-268.01 164.83,-270.81"/>
<polygon fill="#5d6972" stroke="#5d6972" stroke-width="1.2" points="164.67,-273.27 171.99,-272.05 165.51,-268.44 164.67,-273.27"/>
</g>
<!-- choice_MATH211_0 -->
<g id="node17" class="node">
<title>choice_MATH211_0</title>
<path fill="#fff7ee" stroke="#b7793f" stroke-width="1.1" d="M514,-223C514,-223 484,-223 484,-223 478,-223 472,-217 472,-211 472,-211 472,-199 472,-199 472,-193 478,-187 484,-187 484,-187 514,-187 514,-187 520,-187 526,-193 526,-199 526,-199 526,-211 526,-211 526,-217 520,-223 514,-223"/>
<text text-anchor="middle" x="499" y="-202.8" font-family="Avenir Next" font-size="9.00">1 of</text>
</g>
<!-- course__MATH100&#45;&gt;choice_MATH211_0 -->
<g id="edge8" class="edge">
<title>course__MATH100&#45;&gt;choice_MATH211_0</title>
<path fill="none" stroke="#7a8389" d="M111.08,-246.19C203.65,-236.34 388.74,-216.63 464.5,-208.57"/>
<polygon fill="#7a8389" stroke="#7a8389" points="465.21,-210.95 471.91,-207.78 464.69,-206.08 465.21,-210.95"/>
</g>
<!-- course__MATH200 -->
<g id="node4" class="node">
<title>course__MATH200</title>
<g id="a_node4"><a xlink:href="../../../courses/MATH200.html" xlink:title="Equivalent or cross&#45;listed: MATH200: Calculus III | MATH202: Intermediate Calculus for CSC and EOS" target="_top">
<path fill="#dfe3f4" stroke="#1b2730" stroke-width="1.6" d="M399,-295C399,-295 304,-295 304,-295 298,-295 292,-289 292,-283 292,-283 292,-271 292,-271 292,-265 298,-259 304,-259 304,-259 399,-259 399,-259 405,-259 411,-265 411,-271 411,-271 411,-283 411,-283 411,-289 405,-295 399,-295"/>
<text text-anchor="middle" x="351.5" y="-274.5" font-family="Avenir Next" font-size="10.00" fill="#17232b">MATH200 / MATH202</text>
</a>
</g>
</g>
<!-- course__MATH101&#45;&gt;course__MATH200 -->
<g id="edge6" class="edge">
<title>course__MATH101&#45;&gt;course__MATH200</title>
<path fill="none" stroke="#5d6972" stroke-width="1.2" d="M231.04,-277C246.24,-277 265.62,-277 284.33,-277"/>
<polygon fill="#5d6972" stroke="#5d6972" stroke-width="1.2" points="284.73,-279.45 291.73,-277 284.73,-274.55 284.73,-279.45"/>
</g>
<!-- course__MATH151 -->
<g id="node3" class="node">
<title>course__MATH151</title>
<g id="a_node3"><a xlink:href="../../../courses/MATH151.html" xlink:title="MATH151: Finite Mathematics" target="_top">
<path fill="#dfe3f4" stroke="#7e8d96" d="M369,-197C369,-197 334,-197 334,-197 328,-197 322,-191 322,-185 322,-185 322,-173 322,-173 322,-167 328,-161 334,-161 334,-161 369,-161 369,-161 375,-161 381,-167 381,-173 381,-173 381,-185 381,-185 381,-191 375,-197 369,-197"/>
<text text-anchor="middle" x="351.5" y="-176.8" font-family="Avenir Next" font-size="9.00" fill="#41515b">MATH151</text>
</a>
</g>
</g>
<!-- course__MATH151&#45;&gt;choice_MATH211_0 -->
<g id="edge9" class="edge">
<title>course__MATH151&#45;&gt;choice_MATH211_0</title>
<path fill="none" stroke="#7a8389" d="M381.25,-184.14C405.22,-188.42 439.4,-194.53 464.58,-199.03"/>
<polygon fill="#7a8389" stroke="#7a8389" points="464.44,-201.49 471.76,-200.31 465.3,-196.67 464.44,-201.49"/>
</g>
<!-- course__MATH204 -->
<g id="node5" class="node">
<title>course__MATH204</title>
<g id="a_node5"><a xlink:href="../../../courses/MATH204.html" xlink:title="MATH204: Calculus IV" target="_top">
<path fill="#dfe3f4" stroke="#1b2730" stroke-width="1.6" d="M638,-321C638,-321 599,-321 599,-321 593,-321 587,-315 587,-309 587,-309 587,-297 587,-297 587,-291 593,-285 599,-285 599,-285 638,-285 638,-285 644,-285 650,-291 650,-297 650,-297 650,-309 650,-309 650,-315 644,-321 638,-321"/>
<text text-anchor="middle" x="618.5" y="-300.5" font-family="Avenir Next" font-size="10.00" fill="#17232b">MATH204</text>
</a>
</g>
</g>
<!-- course__MATH200&#45;&gt;course__MATH204 -->
<g id="edge7" class="edge">
<title>course__MATH200&#45;&gt;course__MATH204</title>
<path fill="none" stroke="#5d6972" stroke-width="1.2" d="M411.31,-282.77C462.73,-287.82 535.87,-294.99 579.8,-299.3"/>
<polygon fill="#5d6972" stroke="#5d6972" stroke-width="1.2" points="579.65,-301.75 586.86,-299.99 580.13,-296.87 579.65,-301.75"/>
</g>
<!-- choice_MATH346_0_1 -->
<g id="node18" class="node">
<title>choice_MATH346_0_1</title>
<path fill="#fff7ee" stroke="#b7793f" stroke-width="1.1" d="M753,-272C753,-272 723,-272 723,-272 717,-272 711,-266 711,-260 711,-260 711,-248 711,-248 711,-242 717,-236 723,-236 723,-236 753,-236 753,-236 759,-236 765,-242 765,-248 765,-248 765,-260 765,-260 765,-266 759,-272 753,-272"/>
<text text-anchor="middle" x="738" y="-251.8" font-family="Avenir Next" font-size="9.00">1 of</text>
</g>
<!-- course__MATH200&#45;&gt;choice_MATH346_0_1 -->
<g id="edge11" class="edge">
<title>course__MATH200&#45;&gt;choice_MATH346_0_1</title>
<path fill="none" stroke="#7a8389" d="M411.32,-273.48C493.15,-268.59 638.64,-259.88 703.82,-255.99"/>
<polygon fill="#7a8389" stroke="#7a8389" points="704.14,-258.42 710.98,-255.56 703.85,-253.53 704.14,-258.42"/>
</g>
<!-- course__PHYS321A -->
<g id="node8" class="node">
<title>course__PHYS321A</title>
<g id="a_node8"><a xlink:href="../../../courses/PHYS321A.html" xlink:title="PHYS321A: Classical Mechanics I" target="_top">
<path fill="#efd8cf" stroke="#1b2730" stroke-width="1.6" d="M1172,-249C1172,-249 1129,-249 1129,-249 1123,-249 1117,-243 1117,-237 1117,-237 1117,-225 1117,-225 1117,-219 1123,-213 1129,-213 1129,-213 1172,-213 1172,-213 1178,-213 1184,-219 1184,-225 1184,-225 1184,-237 1184,-237 1184,-243 1178,-249 1172,-249"/>
<text text-anchor="middle" x="1150.5" y="-228.5" font-family="Avenir Next" font-size="10.00" fill="#17232b">PHYS321A</text>
</a>
</g>
</g>
<!-- course__MATH204&#45;&gt;course__PHYS321A -->
<g id="edge15" class="edge">
<title>course__MATH204&#45;&gt;course__PHYS321A</title>
<path fill="none" stroke="#5d6972" stroke-width="1.2" d="M650.29,-298.82C741.22,-286.46 1008.6,-250.14 1109.95,-236.37"/>
<polygon fill="#5d6972" stroke="#5d6972" stroke-width="1.2" points="1110.34,-238.79 1116.95,-235.42 1109.68,-233.94 1110.34,-238.79"/>
</g>
<!-- course__PHYS323 -->
<g id="node9" class="node">
<title>course__PHYS323</title>
<g id="a_node9"><a xlink:href="../../../courses/PHYS323.html" xlink:title="PHYS323: Quantum Mechanics I" target="_top">
<path fill="#efd8cf" stroke="#1b2730" stroke-width="1.6" d="M1168.5,-407C1168.5,-407 1132.5,-407 1132.5,-407 1126.5,-407 1120.5,-401 1120.5,-395 1120.5,-395 1120.5,-383 1120.5,-383 1120.5,-377 1126.5,-371 1132.5,-371 1132.5,-371 1168.5,-371 1168.5,-371 1174.5,-371 1180.5,-377 1180.5,-383 1180.5,-383 1180.5,-395 1180.5,-395 1180.5,-401 1174.5,-407 1168.5,-407"/>
<text text-anchor="middle" x="1150.5" y="-386.5" font-family="Avenir Next" font-size="10.00" fill="#17232b">PHYS323</text>
</a>
</g>
</g>
<!-- course__MATH204&#45;&gt;course__PHYS323 -->
<g id="edge19" class="edge">
<title>course__MATH204&#45;&gt;course__PHYS323</title>
<path fill="none" stroke="#5d6972" stroke-width="1.2" d="M650.14,-310.34C690.33,-319.78 763.13,-336.24 826,-347 929.8,-364.77 1053.48,-378.88 1113.4,-385.28"/>
<polygon fill="#5d6972" stroke="#5d6972" stroke-width="1.2" points="1113.16,-387.72 1120.38,-386.02 1113.68,-382.84 1113.16,-387.72"/>
</g>
<!-- course__PHYS326 -->
<g id="node10" class="node">
<title>course__PHYS326</title>
<g id="a_node10"><a xlink:href="../../../courses/PHYS326.html" xlink:title="PHYS326: Electricity and Magnetism" target="_top">
<path fill="#efd8cf" stroke="#1b2730" stroke-width="1.6" d="M1168.5,-463C1168.5,-463 1132.5,-463 1132.5,-463 1126.5,-463 1120.5,-457 1120.5,-451 1120.5,-451 1120.5,-439 1120.5,-439 1120.5,-433 1126.5,-427 1132.5,-427 1132.5,-427 1168.5,-427 1168.5,-427 1174.5,-427 1180.5,-433 1180.5,-439 1180.5,-439 1180.5,-451 1180.5,-451 1180.5,-457 1174.5,-463 1168.5,-463"/>
<text text-anchor="middle" x="1150.5" y="-442.5" font-family="Avenir Next" font-size="10.00" fill="#17232b">PHYS326</text>
</a>
</g>
</g>
<!-- course__MATH204&#45;&gt;course__PHYS326 -->
<g id="edge21" class="edge">
<title>course__MATH204&#45;&gt;course__PHYS326</title>
<path fill="none" stroke="#5d6972" stroke-width="1.2" d="M650.28,-319.05C667.78,-327.77 690.27,-338.31 711,-346 855.07,-399.46 1036.92,-429.25 1113.21,-440.16"/>
<polygon fill="#5d6972" stroke="#5d6972" stroke-width="1.2" points="1112.99,-442.6 1120.26,-441.15 1113.67,-437.75 1112.99,-442.6"/>
</g>
<!-- course__MATH204&#45;&gt;choice_MATH346_0_1 -->
<g id="edge12" class="edge">
<title>course__MATH204&#45;&gt;choice_MATH346_0_1</title>
<path fill="none" stroke="#7a8389" d="M650.07,-290.25C666.75,-283.29 687.42,-274.68 704.41,-267.59"/>
<polygon fill="#7a8389" stroke="#7a8389" points="705.45,-269.81 710.97,-264.86 703.56,-265.29 705.45,-269.81"/>
</g>
<!-- course__MATH211 -->
<g id="node6" class="node">
<title>course__MATH211</title>
<g id="a_node6"><a xlink:href="../../../courses/MATH211.html" xlink:title="MATH211: Matrix Algebra I" target="_top">
<path fill="#dfe3f4" stroke="#1b2730" stroke-width="1.6" d="M638,-223C638,-223 599,-223 599,-223 593,-223 587,-217 587,-211 587,-211 587,-199 587,-199 587,-193 593,-187 599,-187 599,-187 638,-187 638,-187 644,-187 650,-193 650,-199 650,-199 650,-211 650,-211 650,-217 644,-223 638,-223"/>
<text text-anchor="middle" x="618.5" y="-202.5" font-family="Avenir Next" font-size="10.00" fill="#17232b">MATH211</text>
</a>
</g>
</g>
<!-- course__MATH346 -->
<g id="node7" class="node">
<title>course__MATH346</title>
<g id="a_node7"><a xlink:href="../../../courses/MATH346.html" xlink:title="MATH346: Introduction to Partial Differential Equations" target="_top">
<path fill="#dfe3f4" stroke="#1f4f66" stroke-width="2" d="M1044,-337C1044,-337 838,-337 838,-337 832,-337 826,-331 826,-325 826,-325 826,-313 826,-313 826,-307 832,-301 838,-301 838,-301 1044,-301 1044,-301 1050,-301 1056,-307 1056,-313 1056,-313 1056,-325 1056,-325 1056,-331 1050,-337 1044,-337"/>
<text text-anchor="middle" x="941" y="-322" font-family="Avenir Next" font-size="10.00" fill="#17232b">MATH346</text>
<text text-anchor="middle" x="941" y="-311" font-family="Avenir Next" font-size="10.00" fill="#17232b">Introduction to Partial Differential Equations</text>
</a>
</g>
</g>
<!-- course__MATH211&#45;&gt;course__MATH346 -->
<g id="edge13" class="edge">
<title>course__MATH211&#45;&gt;course__MATH346</title>
<path fill="none" stroke="#5d6972" stroke-width="1.2" d="M650.01,-206.35C679.94,-208.38 726.55,-213.43 765,-226 817.49,-243.16 872.96,-275.36 907.03,-297"/>
<polygon fill="#5d6972" stroke="#5d6972" stroke-width="1.2" points="905.92,-299.2 913.14,-300.91 908.56,-295.07 905.92,-299.2"/>
</g>
<!-- course__MATH346&#45;&gt;course__PHYS321A -->
<g id="edge16" class="edge">
<title>course__MATH346&#45;&gt;course__PHYS321A</title>
<path fill="none" stroke="#5d6972" stroke-width="1.2" d="M1014.42,-301C1028.44,-296.69 1042.85,-291.67 1056,-286 1076.95,-276.98 1099.01,-264.18 1116.43,-253.2"/>
<polygon fill="#5d6972" stroke="#5d6972" stroke-width="1.2" points="1118.05,-255.07 1122.63,-249.25 1115.41,-250.94 1118.05,-255.07"/>
</g>
<!-- course__MATH346&#45;&gt;course__PHYS323 -->
<g id="edge20" class="edge">
<title>course__MATH346&#45;&gt;course__PHYS323</title>
<path fill="none" stroke="#5d6972" stroke-width="1.2" d="M995.44,-337.03C1032.54,-349.54 1080.98,-365.88 1113.55,-376.87"/>
<polygon fill="#5d6972" stroke="#5d6972" stroke-width="1.2" points="1112.84,-379.22 1120.25,-379.13 1114.4,-374.57 1112.84,-379.22"/>
</g>
<!-- course__MATH346&#45;&gt;course__PHYS326 -->
<g id="edge22" class="edge">
<title>course__MATH346&#45;&gt;course__PHYS326</title>
<path fill="none" stroke="#5d6972" stroke-width="1.2" d="M971.73,-337.05C1009.39,-359.92 1074.18,-399.27 1114.28,-423.61"/>
<polygon fill="#5d6972" stroke="#5d6972" stroke-width="1.2" points="1113.24,-425.85 1120.49,-427.39 1115.78,-421.66 1113.24,-425.85"/>
</g>
<!-- course__EOS427 -->
<g id="node11" class="node">
<title>course__EOS427</title>
<g id="a_node11"><a xlink:href="../../../courses/EOS427.html" xlink:title="Equivalent or cross&#45;listed: EOS427: Geophysics | PHYS427: Geophysics" target="_top">
<path fill="#d7e9ef" stroke="#1b2730" stroke-width="1.6" d="M1455,-351C1455,-351 1372,-351 1372,-351 1366,-351 1360,-345 1360,-339 1360,-339 1360,-327 1360,-327 1360,-321 1366,-315 1372,-315 1372,-315 1455,-315 1455,-315 1461,-315 1467,-321 1467,-327 1467,-327 1467,-339 1467,-339 1467,-345 1461,-351 1455,-351"/>
<text text-anchor="middle" x="1413.5" y="-330.5" font-family="Avenir Next" font-size="10.00" fill="#17232b">EOS427 / PHYS427</text>
</a>
</g>
</g>
<!-- course__MATH346&#45;&gt;course__EOS427 -->
<g id="edge3" class="edge">
<title>course__MATH346&#45;&gt;course__EOS427</title>
<path fill="none" stroke="#5d6972" stroke-width="1.2" d="M1056.2,-322.4C1149.73,-325.18 1278.37,-329.01 1352.75,-331.22"/>
<polygon fill="#5d6972" stroke="#5d6972" stroke-width="1.2" points="1352.71,-333.67 1359.78,-331.43 1352.85,-328.77 1352.71,-333.67"/>
</g>
<!-- course__PHYS321B -->
<g id="node13" class="node">
<title>course__PHYS321B</title>
<g id="a_node13"><a xlink:href="../../../courses/PHYS321B.html" xlink:title="PHYS321B: Classical Mechanics II" target="_top">
<path fill="#efd8cf" stroke="#1b2730" stroke-width="1.6" d="M1435,-36C1435,-36 1392,-36 1392,-36 1386,-36 1380,-30 1380,-24 1380,-24 1380,-12 1380,-12 1380,-6 1386,0 1392,0 1392,0 1435,0 1435,0 1441,0 1447,-6 1447,-12 1447,-12 1447,-24 1447,-24 1447,-30 1441,-36 1435,-36"/>
<text text-anchor="middle" x="1413.5" y="-15.5" font-family="Avenir Next" font-size="10.00" fill="#17232b">PHYS321B</text>
</a>
</g>
</g>
<!-- course__MATH346&#45;&gt;course__PHYS321B -->
<g id="edge18" class="edge">
<title>course__MATH346&#45;&gt;course__PHYS321B</title>
<path fill="none" stroke="#5d6972" stroke-width="1.2" d="M960.19,-300.63C990.72,-270.45 1055.01,-209.58 1117,-168 1203.26,-110.14 1314.83,-59.29 1373.1,-34.33"/>
<polygon fill="#5d6972" stroke="#5d6972" stroke-width="1.2" points="1374.11,-36.56 1379.59,-31.56 1372.19,-32.06 1374.11,-36.56"/>
</g>
<!-- course__PHYS411 -->
<g id="node15" class="node">
<title>course__PHYS411</title>
<g id="a_node15"><a xlink:href="../../../courses/PHYS411.html" xlink:title="PHYS411: Time Series Analysis" target="_top">
<path fill="#efd8cf" stroke="#1b2730" stroke-width="1.6" d="M1431.5,-407C1431.5,-407 1395.5,-407 1395.5,-407 1389.5,-407 1383.5,-401 1383.5,-395 1383.5,-395 1383.5,-383 1383.5,-383 1383.5,-377 1389.5,-371 1395.5,-371 1395.5,-371 1431.5,-371 1431.5,-371 1437.5,-371 1443.5,-377 1443.5,-383 1443.5,-383 1443.5,-395 1443.5,-395 1443.5,-401 1437.5,-407 1431.5,-407"/>
<text text-anchor="middle" x="1413.5" y="-386.5" font-family="Avenir Next" font-size="10.00" fill="#17232b">PHYS411</text>
</a>
</g>
</g>
<!-- course__MATH346&#45;&gt;course__PHYS411 -->
<g id="edge28" class="edge">
<title>course__MATH346&#45;&gt;course__PHYS411</title>
<path fill="none" stroke="#5d6972" stroke-width="1.2" d="M1056.29,-328.78C1126.61,-335.71 1218.41,-346.38 1299,-361 1325.13,-365.74 1354.2,-372.95 1376.37,-378.87"/>
<polygon fill="#5d6972" stroke="#5d6972" stroke-width="1.2" points="1375.92,-381.28 1383.32,-380.74 1377.2,-376.55 1375.92,-381.28"/>
</g>
<!-- course__PHYS426 -->
<g id="node16" class="node">
<title>course__PHYS426</title>
<g id="a_node16"><a xlink:href="../../../courses/PHYS426.html" xlink:title="PHYS426: Fluid Mechanics" target="_top">
<path fill="#efd8cf" stroke="#1b2730" stroke-width="1.6" d="M1431.5,-120C1431.5,-120 1395.5,-120 1395.5,-120 1389.5,-120 1383.5,-114 1383.5,-108 1383.5,-108 1383.5,-96 1383.5,-96 1383.5,-90 1389.5,-84 1395.5,-84 1395.5,-84 1431.5,-84 1431.5,-84 1437.5,-84 1443.5,-90 1443.5,-96 1443.5,-96 1443.5,-108 1443.5,-108 1443.5,-114 1437.5,-120 1431.5,-120"/>
<text text-anchor="middle" x="1413.5" y="-99.5" font-family="Avenir Next" font-size="10.00" fill="#17232b">PHYS426</text>
</a>
</g>
</g>
<!-- course__MATH346&#45;&gt;course__PHYS426 -->
<g id="edge30" class="edge">
<title>course__MATH346&#45;&gt;course__PHYS426</title>
<path fill="none" stroke="#5d6972" stroke-width="1.2" d="M965.63,-300.96C998.35,-276.55 1059.9,-232.64 1117,-203 1171.2,-174.86 1187.3,-173.02 1245,-153 1289.77,-137.46 1342.14,-121.94 1376.24,-112.17"/>
<polygon fill="#5d6972" stroke="#5d6972" stroke-width="1.2" points="1377.17,-114.45 1383.23,-110.17 1375.83,-109.74 1377.17,-114.45"/>
</g>
<!-- course__PHYS321A&#45;&gt;course__EOS427 -->
<g id="edge1" class="edge">
<title>course__PHYS321A&#45;&gt;course__EOS427</title>
<path fill="none" stroke="#5d6972" stroke-width="1.2" d="M1184.03,-241.32C1214.12,-251.09 1259.96,-266.52 1299,-282 1322.01,-291.13 1347.17,-302.3 1367.93,-311.86"/>
<polygon fill="#5d6972" stroke="#5d6972" stroke-width="1.2" points="1367.13,-314.19 1374.51,-314.91 1369.19,-309.74 1367.13,-314.19"/>
</g>
<!-- course__EOS451 -->
<g id="node12" class="node">
<title>course__EOS451</title>
<g id="a_node12"><a xlink:href="../../../courses/EOS451.html" xlink:title="EOS451: Introductory Dynamic Meteorology" target="_top">
<path fill="#d7e9ef" stroke="#1b2730" stroke-width="1.6" d="M1428.5,-239C1428.5,-239 1398.5,-239 1398.5,-239 1392.5,-239 1386.5,-233 1386.5,-227 1386.5,-227 1386.5,-215 1386.5,-215 1386.5,-209 1392.5,-203 1398.5,-203 1398.5,-203 1428.5,-203 1428.5,-203 1434.5,-203 1440.5,-209 1440.5,-215 1440.5,-215 1440.5,-227 1440.5,-227 1440.5,-233 1434.5,-239 1428.5,-239"/>
<text text-anchor="middle" x="1413.5" y="-218.5" font-family="Avenir Next" font-size="10.00" fill="#17232b">EOS451</text>
</a>
</g>
</g>
<!-- course__PHYS321A&#45;&gt;course__EOS451 -->
<g id="edge4" class="edge">
<title>course__PHYS321A&#45;&gt;course__EOS451</title>
<path fill="none" stroke="#5d6972" stroke-width="1.2" d="M1184.03,-229.75C1233.91,-227.84 1328.81,-224.21 1379.17,-222.28"/>
<polygon fill="#5d6972" stroke="#5d6972" stroke-width="1.2" points="1379.36,-224.72 1386.27,-222.01 1379.18,-219.83 1379.36,-224.72"/>
</g>
<!-- course__PHYS321A&#45;&gt;course__PHYS321B -->
<g id="edge17" class="edge">
<title>course__PHYS321A&#45;&gt;course__PHYS321B</title>
<path fill="none" stroke="#5d6972" stroke-width="1.2" d="M1172.95,-212.93C1191.85,-197.05 1220.15,-173.37 1245,-153 1293.73,-113.04 1350.99,-67.11 1384.37,-40.43"/>
<polygon fill="#5d6972" stroke="#5d6972" stroke-width="1.2" points="1385.98,-42.29 1389.92,-36 1382.92,-38.46 1385.98,-42.29"/>
</g>
<!-- course__PHYS410 -->
<g id="node14" class="node">
<title>course__PHYS410</title>
<g id="a_node14"><a xlink:href="../../../courses/PHYS410.html" xlink:title="PHYS410: Topics in Mathematical Physics I" target="_top">
<path fill="#efd8cf" stroke="#1b2730" stroke-width="1.6" d="M1431.5,-183C1431.5,-183 1395.5,-183 1395.5,-183 1389.5,-183 1383.5,-177 1383.5,-171 1383.5,-171 1383.5,-159 1383.5,-159 1383.5,-153 1389.5,-147 1395.5,-147 1395.5,-147 1431.5,-147 1431.5,-147 1437.5,-147 1443.5,-153 1443.5,-159 1443.5,-159 1443.5,-171 1443.5,-171 1443.5,-177 1437.5,-183 1431.5,-183"/>
<text text-anchor="middle" x="1413.5" y="-162.5" font-family="Avenir Next" font-size="10.00" fill="#17232b">PHYS410</text>
</a>
</g>
</g>
<!-- course__PHYS321A&#45;&gt;course__PHYS410 -->
<g id="edge23" class="edge">
<title>course__PHYS321A&#45;&gt;course__PHYS410</title>
<path fill="none" stroke="#5d6972" stroke-width="1.2" d="M1184.03,-222.77C1232.97,-210.4 1325.24,-187.07 1376.27,-174.16"/>
<polygon fill="#5d6972" stroke="#5d6972" stroke-width="1.2" points="1377,-176.5 1383.19,-172.41 1375.8,-171.75 1377,-176.5"/>
</g>
<!-- course__PHYS321A&#45;&gt;course__PHYS426 -->
<g id="edge29" class="edge">
<title>course__PHYS321A&#45;&gt;course__PHYS426</title>
<path fill="none" stroke="#5d6972" stroke-width="1.2" d="M1184.03,-214.92C1233.17,-190.63 1325.99,-144.76 1376.89,-119.6"/>
<polygon fill="#5d6972" stroke="#5d6972" stroke-width="1.2" points="1378,-121.79 1383.19,-116.49 1375.83,-117.39 1378,-121.79"/>
</g>
<!-- choice_PHYS411_0_0 -->
<g id="node19" class="node">
<title>choice_PHYS411_0_0</title>
<path fill="#fff7ee" stroke="#b7793f" stroke-width="1.1" d="M1287,-407C1287,-407 1257,-407 1257,-407 1251,-407 1245,-401 1245,-395 1245,-395 1245,-383 1245,-383 1245,-377 1251,-371 1257,-371 1257,-371 1287,-371 1287,-371 1293,-371 1299,-377 1299,-383 1299,-383 1299,-395 1299,-395 1299,-401 1293,-407 1287,-407"/>
<text text-anchor="middle" x="1272" y="-386.8" font-family="Avenir Next" font-size="9.00">2 of</text>
</g>
<!-- course__PHYS321A&#45;&gt;choice_PHYS411_0_0 -->
<g id="edge24" class="edge">
<title>course__PHYS321A&#45;&gt;choice_PHYS411_0_0</title>
<path fill="none" stroke="#7a8389" d="M1165.21,-249.12C1186.79,-277.66 1228.72,-333.1 1252.8,-364.94"/>
<polygon fill="#7a8389" stroke="#7a8389" points="1250.91,-366.49 1257.08,-370.6 1254.82,-363.54 1250.91,-366.49"/>
</g>
<!-- course__PHYS323&#45;&gt;choice_PHYS411_0_0 -->
<g id="edge25" class="edge">
<title>course__PHYS323&#45;&gt;choice_PHYS411_0_0</title>
<path fill="none" stroke="#7a8389" d="M1180.73,-389C1197.9,-389 1219.67,-389 1237.53,-389"/>
<polygon fill="#7a8389" stroke="#7a8389" points="1237.92,-391.45 1244.92,-389 1237.92,-386.55 1237.92,-391.45"/>
</g>
<!-- course__PHYS326&#45;&gt;course__EOS427 -->
<g id="edge2" class="edge">
<title>course__PHYS326&#45;&gt;course__EOS427</title>
<path fill="none" stroke="#5d6972" stroke-width="1.2" d="M1180.72,-444.14C1211.61,-442.2 1261.03,-436.06 1299,-417 1331.89,-400.49 1329.97,-382.27 1360,-361 1362.9,-358.94 1365.97,-356.93 1369.12,-355"/>
<polygon fill="#5d6972" stroke="#5d6972" stroke-width="1.2" points="1370.87,-356.8 1375.64,-351.12 1368.37,-352.59 1370.87,-356.8"/>
</g>
<!-- course__PHYS326&#45;&gt;choice_PHYS411_0_0 -->
<g id="edge26" class="edge">
<title>course__PHYS326&#45;&gt;choice_PHYS411_0_0</title>
<path fill="none" stroke="#7a8389" d="M1180.73,-431.3C1198.21,-423.11 1220.45,-412.69 1238.48,-404.24"/>
<polygon fill="#7a8389" stroke="#7a8389" points="1239.62,-406.41 1244.92,-401.22 1237.54,-401.98 1239.62,-406.41"/>
</g>
<!-- choice_MATH211_0&#45;&gt;course__MATH211 -->
<g id="edge10" class="edge">
<title>choice_MATH211_0&#45;&gt;course__MATH211</title>
<path fill="none" stroke="#5d6972" stroke-width="1.2" d="M526.08,-205C541.81,-205 562.14,-205 579.62,-205"/>
<polygon fill="#5d6972" stroke="#5d6972" stroke-width="1.2" points="579.92,-207.45 586.92,-205 579.92,-202.55 579.92,-207.45"/>
</g>
<!-- choice_MATH346_0_1&#45;&gt;course__MATH346 -->
<g id="edge14" class="edge">
<title>choice_MATH346_0_1&#45;&gt;course__MATH346</title>
<path fill="none" stroke="#5d6972" stroke-width="1.2" d="M765.28,-262.5C793.53,-271.63 839.46,-286.49 877.14,-298.67"/>
<polygon fill="#5d6972" stroke="#5d6972" stroke-width="1.2" points="876.65,-301.09 884.07,-300.91 878.16,-296.43 876.65,-301.09"/>
</g>
<!-- choice_PHYS411_0_0&#45;&gt;course__PHYS411 -->
<g id="edge27" class="edge">
<title>choice_PHYS411_0_0&#45;&gt;course__PHYS411</title>
<path fill="none" stroke="#5d6972" stroke-width="1.2" d="M1299.24,-389C1320.98,-389 1352.12,-389 1376.25,-389"/>
<polygon fill="#5d6972" stroke="#5d6972" stroke-width="1.2" points="1376.49,-391.45 1383.49,-389 1376.49,-386.55 1376.49,-391.45"/>
</g>
</g>
</svg>
