<?xml version="1.0" encoding="UTF-8" standalone="no"?>
<!DOCTYPE svg PUBLIC "-//W3C//DTD SVG 1.1//EN"
 "http://www.w3.org/Graphics/SVG/1.1/DTD/svg11.dtd">
<!-- Generated by graphviz version 2.43.0 (0)
 -->
<!-- Title: MATH109 Pages: 1 -->
<svg width="730pt" height="465pt"
 viewBox="0.00 0.00 730.20 464.95" xmlns="http://www.w3.org/2000/svg" xmlns:xlink="http://www.w3.org/1999/xlink">
<g id="graph0" class="graph" transform="scale(1 1) rotate(0) translate(21.6 443.35)">
<title>MATH109</title>
<!-- course__MATH100 -->
<g id="node1" class="node">
<title>course__MATH100</title>
<g id="a_node1"><a xlink:href="../../../courses/MATH109.html" xlink:title="Collapsed in simplified view: MATH100: Calculus I | MATH102: Calculus for Students in the Social and Biological Sciences | MATH109: Introduction to Calculus" target="_top">
<path fill="#dfe3f4" stroke="#1f4f66" stroke-width="2" d="M120,-204C120,-204 12,-204 12,-204 6,-204 0,-198 0,-192 0,-192 0,-180 0,-180 0,-174 6,-168 12,-168 12,-168 120,-168 120,-168 126,-168 132,-174 132,-180 132,-180 132,-192 132,-192 132,-198 126,-204 120,-204"/>
<text text-anchor="middle" x="66" y="-189" font-family="Avenir Next" font-size="10.00" fill="#17232b">Calculus I</text>
<text text-anchor="middle" x="66" y="-178" font-family="Avenir Next" font-size="10.00" fill="#17232b">Introduction to Calculus</text>
</a>
</g>
</g>
<!-- course__CHEM102 -->
<g id="node2" class="node">
<title>course__CHEM102</title>
<g id="a_node2"><a xlink:href="../../../courses/CHEM102.html" xlink:title="CHEM102: Chemical Reactivity Fundamentals with Environmental Applications" target="_top">
<path fill="#ead9b8" stroke="#1b2730" stroke-width="1.6" d="M257.5,-386C257.5,-386 217.5,-386 217.5,-386 211.5,-386 205.5,-380 205.5,-374 205.5,-374 205.5,-362 205.5,-362 205.5,-356 211.5,-350 217.5,-350 217.5,-350 257.5,-350 257.5,-350 263.5,-350 269.5,-356 269.5,-362 269.5,-362 269.5,-374 269.5,-374 269.5,-380 263.5,-386 257.5,-386"/>
<text text-anchor="middle" x="237.5" y="-365.5" font-family="Avenir Next" font-size="10.00" fill="#17232b">CHEM102</text>
</a>
</g>
</g>
<!-- course__MATH100&#45;&gt;course__CHEM102 -->
<g id="edge1" class="edge">
<title>course__MATH100&#45;&gt;course__CHEM102</title>
<path fill="none" stroke="#5d6972" stroke-width="1.2" d="M80.21,-204.07C101.97,-233.27 147.53,-291.87 193,-335 196.69,-338.5 200.74,-341.98 204.84,-345.3"/>
<polygon fill="#5d6972" stroke="#5d6972" stroke-width="1.2" points="203.42,-347.3 210.44,-349.7 206.45,-343.45 203.42,-347.3"/>
</g>
<!-- course__CSC110 -->
<g id="node3" class="node">
<title>course__CSC110</title>
<g id="a_node3"><a xlink:href="../../../courses/CSC110.html" xlink:title="Collapsed in simplified view: CSC110: Fundamentals of Programming I | CSC111: Fundamentals of Programming with Engineering Applications" target="_top">
<path fill="#e7ddec" stroke="#1b2730" stroke-width="1.6" d="M270,-36C270,-36 205,-36 205,-36 199,-36 193,-30 193,-24 193,-24 193,-12 193,-12 193,-6 199,0 205,0 205,0 270,0 270,0 276,0 282,-6 282,-12 282,-12 282,-24 282,-24 282,-30 276,-36 270,-36"/>
<text text-anchor="middle" x="237.5" y="-15.5" font-family="Avenir Next" font-size="10.00" fill="#17232b">Programming I</text>
</a>
</g>
</g>
<!-- course__MATH100&#45;&gt;course__CSC110 -->
<g id="edge5" class="edge">
<title>course__MATH100&#45;&gt;course__CSC110</title>
<path fill="none" stroke="#5d6972" stroke-width="1.2" d="M82.4,-167.6C105.28,-140.7 150.17,-89.67 193,-51 196.87,-47.51 201.08,-43.99 205.32,-40.62"/>
<polygon fill="#5d6972" stroke="#5d6972" stroke-width="1.2" points="207.05,-42.38 211.07,-36.14 204.04,-38.51 207.05,-42.38"/>
</g>
<!-- course__MATH101 -->
<g id="node4" class="node">
<title>course__MATH101</title>
<g id="a_node4"><a xlink:href="../../../courses/MATH101.html" xlink:title="MATH101: Calculus II" target="_top">
<path fill="#dfe3f4" stroke="#1b2730" stroke-width="1.6" d="M257,-288C257,-288 218,-288 218,-288 212,-288 206,-282 206,-276 206,-276 206,-264 206,-264 206,-258 212,-252 218,-252 218,-252 257,-252 257,-252 263,-252 269,-258 269,-264 269,-264 269,-276 269,-276 269,-282 263,-288 257,-288"/>
<text text-anchor="middle" x="237.5" y="-267.5" font-family="Avenir Next" font-size="10.00" fill="#17232b">MATH101</text>
</a>
</g>
</g>
<!-- course__MATH100&#45;&gt;course__MATH101 -->
<g id="edge20" class="edge">
<title>course__MATH100&#45;&gt;course__MATH101</title>
<path fill="none" stroke="#5d6972" stroke-width="1.2" d="M103.36,-204.02C131.76,-218.09 171.05,-237.57 199.59,-251.71"/>
<polygon fill="#5d6972" stroke="#5d6972" stroke-width="1.2" points="198.51,-253.91 205.87,-254.82 200.69,-249.52 198.51,-253.91"/>
</g>
<!-- course__MATH211 -->
<g id="node5" class="node">
<title>course__MATH211</title>
<g id="a_node5"><a xlink:href="../../../courses/MATH211.html" xlink:title="MATH211: Matrix Algebra I" target="_top">
<path fill="#dfe3f4" stroke="#1b2730" stroke-width="1.6" d="M257,-232C257,-232 218,-232 218,-232 212,-232 206,-226 206,-220 206,-220 206,-208 206,-208 206,-202 212,-196 218,-196 218,-196 257,-196 257,-196 263,-196 269,-202 269,-208 269,-208 269,-220 269,-220 269,-226 263,-232 257,-232"/>
<text text-anchor="middle" x="237.5" y="-211.5" font-family="Avenir Next" font-size="10.00" fill="#17232b">MATH211</text>
</a>
</g>
</g>
<!-- course__MATH100&#45;&gt;course__MATH211 -->
<g id="edge21" class="edge">
<title>course__MATH100&#45;&gt;course__MATH211</title>
<path fill="none" stroke="#5d6972" stroke-width="1.2" d="M132.05,-196.75C154.66,-200.48 179.26,-204.54 198.9,-207.79"/>
<polygon fill="#5d6972" stroke="#5d6972" stroke-width="1.2" points="198.6,-210.22 205.9,-208.95 199.4,-205.39 198.6,-210.22"/>
</g>
<!-- course__PHYS102A -->
<g id="node6" class="node">
<title>course__PHYS102A</title>
<g id="a_node6"><a xlink:href="../../../courses/PHYS102A.html" xlink:title="Collapsed in simplified view: PHYS102A: General Physics I | PHYS110: Introductory Physics I | PHYS120: Physics I" target="_top">
<path fill="#efd8cf" stroke="#1b2730" stroke-width="1.6" d="M255,-176C255,-176 220,-176 220,-176 214,-176 208,-170 208,-164 208,-164 208,-152 208,-152 208,-146 214,-140 220,-140 220,-140 255,-140 255,-140 261,-140 267,-146 267,-152 267,-152 267,-164 267,-164 267,-170 261,-176 255,-176"/>
<text text-anchor="middle" x="237.5" y="-155.5" font-family="Avenir Next" font-size="10.00" fill="#17232b">Physics I</text>
</a>
</g>
</g>
<!-- course__MATH100&#45;&gt;course__PHYS102A -->
<g id="edge22" class="edge">
<title>course__MATH100&#45;&gt;course__PHYS102A</title>
<path fill="none" stroke="#5d6972" stroke-width="1.2" d="M132.05,-175.25C155.33,-171.41 180.71,-167.22 200.62,-163.93"/>
<polygon fill="#5d6972" stroke="#5d6972" stroke-width="1.2" points="201.19,-166.32 207.7,-162.76 200.39,-161.48 201.19,-166.32"/>
</g>
<!-- course__PHYS102B -->
<g id="node9" class="node">
<title>course__PHYS102B</title>
<g id="a_node9"><a xlink:href="../../../courses/PHYS102B.html" xlink:title="Collapsed in simplified view: PHYS102B: General Physics II | PHYS111: Introductory Physics II | PHYS130: Physics II" target="_top">
<path fill="#efd8cf" stroke="#1b2730" stroke-width="1.6" d="M394,-176C394,-176 356,-176 356,-176 350,-176 344,-170 344,-164 344,-164 344,-152 344,-152 344,-146 350,-140 356,-140 356,-140 394,-140 394,-140 400,-140 406,-146 406,-152 406,-152 406,-164 406,-164 406,-170 400,-176 394,-176"/>
<text text-anchor="middle" x="375" y="-155.5" font-family="Avenir Next" font-size="10.00" fill="#17232b">Physics II</text>
</a>
</g>
</g>
<!-- course__MATH100&#45;&gt;course__PHYS102B -->
<g id="edge24" class="edge">
<title>course__MATH100&#45;&gt;course__PHYS102B</title>
<path fill="none" stroke="#5d6972" stroke-width="1.2" d="M97.86,-167.89C122.64,-154.45 158.81,-137.26 193,-130 231.69,-121.79 242.88,-124.18 282,-130 300.5,-132.75 320.42,-138.46 336.98,-144"/>
<polygon fill="#5d6972" stroke="#5d6972" stroke-width="1.2" points="336.44,-146.41 343.85,-146.36 338.03,-141.77 336.44,-146.41"/>
</g>
<!-- choice_EOS311_0_2 -->
<g id="node15" class="node">
<title>choice_EOS311_0_2</title>
<path fill="#fff7ee" stroke="#b7793f" stroke-width="1.1" d="M390,-232C390,-232 360,-232 360,-232 354,-232 348,-226 348,-220 348,-220 348,-208 348,-208 348,-202 354,-196 360,-196 360,-196 390,-196 390,-196 396,-196 402,-202 402,-208 402,-208 402,-220 402,-220 402,-226 396,-232 390,-232"/>
<text text-anchor="middle" x="375" y="-211.8" font-family="Avenir Next" font-size="9.00">2 of</text>
</g>
<!-- course__MATH100&#45;&gt;choice_EOS311_0_2 -->
<g id="edge9" class="edge">
<title>course__MATH100&#45;&gt;choice_EOS311_0_2</title>
<path fill="none" stroke="#7a8389" d="M80.36,-204.36C101,-230.98 143.48,-279.17 193,-298 229.97,-312.06 245.12,-312.3 282,-298 298.24,-291.7 330.47,-260.07 352.14,-237.48"/>
<polygon fill="#7a8389" stroke="#7a8389" points="354.07,-239 357.13,-232.24 350.53,-235.62 354.07,-239"/>
</g>
<!-- choice_EOS314_0_0 -->
<g id="node16" class="node">
<title>choice_EOS314_0_0</title>
<path fill="#fff7ee" stroke="#b7793f" stroke-width="1.1" d="M390,-120C390,-120 360,-120 360,-120 354,-120 348,-114 348,-108 348,-108 348,-96 348,-96 348,-90 354,-84 360,-84 360,-84 390,-84 390,-84 396,-84 402,-90 402,-96 402,-96 402,-108 402,-108 402,-114 396,-120 390,-120"/>
<text text-anchor="middle" x="375" y="-99.8" font-family="Avenir Next" font-size="9.00">2 of</text>
</g>
<!-- course__MATH100&#45;&gt;choice_EOS314_0_0 -->
<g id="edge16" class="edge">
<title>course__MATH100&#45;&gt;choice_EOS314_0_0</title>
<path fill="none" stroke="#7a8389" d="M93.66,-167.78C118.28,-151.97 156.45,-129.95 193,-119 243.03,-104.01 304,-101.29 340.87,-101.25"/>
<polygon fill="#7a8389" stroke="#7a8389" points="340.91,-103.7 347.91,-101.27 340.92,-98.8 340.91,-103.7"/>
</g>
<!-- course__CHEM245 -->
<g id="node7" class="node">
<title>course__CHEM245</title>
<g id="a_node7"><a xlink:href="../../../courses/CHEM245.html" xlink:title="CHEM245: Introduction to Thermodynamics" target="_top">
<path fill="#ead9b8" stroke="#1b2730" stroke-width="1.6" d="M395,-330C395,-330 355,-330 355,-330 349,-330 343,-324 343,-318 343,-318 343,-306 343,-306 343,-300 349,-294 355,-294 355,-294 395,-294 395,-294 401,-294 407,-300 407,-306 407,-306 407,-318 407,-318 407,-324 401,-330 395,-330"/>
<text text-anchor="middle" x="375" y="-309.5" font-family="Avenir Next" font-size="10.00" fill="#17232b">CHEM245</text>
</a>
</g>
</g>
<!-- course__CHEM102&#45;&gt;course__CHEM245 -->
<g id="edge2" class="edge">
<title>course__CHEM102&#45;&gt;course__CHEM245</title>
<path fill="none" stroke="#5d6972" stroke-width="1.2" d="M269.59,-355.15C289.33,-346.99 315.01,-336.38 335.97,-327.72"/>
<polygon fill="#5d6972" stroke="#5d6972" stroke-width="1.2" points="337.06,-329.92 342.59,-324.98 335.18,-325.39 337.06,-329.92"/>
</g>
<!-- course__EOS240 -->
<g id="node8" class="node">
<title>course__EOS240</title>
<g id="a_node8"><a xlink:href="../../../courses/EOS240.html" xlink:title="EOS240: Geochemistry" target="_top">
<path fill="#d7e9ef" stroke="#1b2730" stroke-width="1.6" d="M390,-386C390,-386 360,-386 360,-386 354,-386 348,-380 348,-374 348,-374 348,-362 348,-362 348,-356 354,-350 360,-350 360,-350 390,-350 390,-350 396,-350 402,-356 402,-362 402,-362 402,-374 402,-374 402,-380 396,-386 390,-386"/>
<text text-anchor="middle" x="375" y="-365.5" font-family="Avenir Next" font-size="10.00" fill="#17232b">EOS240</text>
</a>
</g>
</g>
<!-- course__CHEM102&#45;&gt;course__EOS240 -->
<g id="edge6" class="edge">
<title>course__CHEM102&#45;&gt;course__EOS240</title>
<path fill="none" stroke="#5d6972" stroke-width="1.2" d="M269.59,-368C290.79,-368 318.84,-368 340.53,-368"/>
<polygon fill="#5d6972" stroke="#5d6972" stroke-width="1.2" points="340.62,-370.45 347.62,-368 340.62,-365.55 340.62,-370.45"/>
</g>
<!-- course__EOS261 -->
<g id="node11" class="node">
<title>course__EOS261</title>
<g id="a_node11"><a xlink:href="../../../courses/EOS261.html" xlink:title="EOS261: The Climate System" target="_top">
<path fill="#d7e9ef" stroke="#1b2730" stroke-width="1.6" d="M535,-204C535,-204 505,-204 505,-204 499,-204 493,-198 493,-192 493,-192 493,-180 493,-180 493,-174 499,-168 505,-168 505,-168 535,-168 535,-168 541,-168 547,-174 547,-180 547,-180 547,-192 547,-192 547,-198 541,-204 535,-204"/>
<text text-anchor="middle" x="520" y="-183.5" font-family="Avenir Next" font-size="10.00" fill="#17232b">EOS261</text>
</a>
</g>
</g>
<!-- course__CHEM102&#45;&gt;course__EOS261 -->
<g id="edge7" class="edge">
<title>course__CHEM102&#45;&gt;course__EOS261</title>
<path fill="none" stroke="#5d6972" stroke-width="1.2" d="M258.93,-349.88C279.44,-332.1 312.32,-304.71 343,-284 395.77,-248.37 412.31,-244.88 468,-214 473.9,-210.73 480.2,-207.25 486.28,-203.91"/>
<polygon fill="#5d6972" stroke="#5d6972" stroke-width="1.2" points="487.81,-205.86 492.77,-200.35 485.45,-201.57 487.81,-205.86"/>
</g>
<!-- course__EOS311 -->
<g id="node12" class="node">
<title>course__EOS311</title>
<g id="a_node12"><a xlink:href="../../../courses/EOS311.html" xlink:title="Equivalent or cross&#45;listed: BIOL311: Biological Oceanography | EOS311: Biological Oceanography" target="_top">
<path fill="#d7e9ef" stroke="#1b2730" stroke-width="1.6" d="M560,-260C560,-260 480,-260 480,-260 474,-260 468,-254 468,-248 468,-248 468,-236 468,-236 468,-230 474,-224 480,-224 480,-224 560,-224 560,-224 566,-224 572,-230 572,-236 572,-236 572,-248 572,-248 572,-254 566,-260 560,-260"/>
<text text-anchor="middle" x="520" y="-239.5" font-family="Avenir Next" font-size="10.00" fill="#17232b">BIOL311 / EOS311</text>
</a>
</g>
</g>
<!-- course__CHEM102&#45;&gt;course__EOS311 -->
<g id="edge11" class="edge">
<title>course__CHEM102&#45;&gt;course__EOS311</title>
<path fill="none" stroke="#5d6972" stroke-width="1.2" d="M269.75,-384.09C304.96,-399.82 363,-418.41 407,-396 460.3,-368.86 494.21,-303.15 509.51,-266.95"/>
<polygon fill="#5d6972" stroke="#5d6972" stroke-width="1.2" points="511.92,-267.53 512.32,-260.13 507.39,-265.67 511.92,-267.53"/>
</g>
<!-- course__EOS312 -->
<g id="node14" class="node">
<title>course__EOS312</title>
<g id="a_node14"><a xlink:href="../../../courses/EOS312.html" xlink:title="EOS312: Introductory Chemical Oceanography" target="_top">
<path fill="#d7e9ef" stroke="#1b2730" stroke-width="1.6" d="M675,-312C675,-312 645,-312 645,-312 639,-312 633,-306 633,-300 633,-300 633,-288 633,-288 633,-282 639,-276 645,-276 645,-276 675,-276 675,-276 681,-276 687,-282 687,-288 687,-288 687,-300 687,-300 687,-306 681,-312 675,-312"/>
<text text-anchor="middle" x="660" y="-291.5" font-family="Avenir Next" font-size="10.00" fill="#17232b">EOS312</text>
</a>
</g>
</g>
<!-- course__CHEM102&#45;&gt;course__EOS312 -->
<g id="edge15" class="edge">
<title>course__CHEM102&#45;&gt;course__EOS312</title>
<path fill="none" stroke="#5d6972" stroke-width="1.2" d="M267.88,-386.05C288.16,-397.42 316.21,-411.03 343,-417 370.76,-423.19 379.29,-423.4 407,-417 491.66,-397.44 580.77,-345.36 626.97,-315.62"/>
<polygon fill="#5d6972" stroke="#5d6972" stroke-width="1.2" points="628.39,-317.62 632.93,-311.76 625.72,-313.51 628.39,-317.62"/>
</g>
<!-- course__CIVE210 -->
<g id="node10" class="node">
<title>course__CIVE210</title>
<g id="a_node10"><a xlink:href="../../../courses/CIVE210.html" xlink:title="CIVE210: Sustainability in Civil Engineering" target="_top">
<path fill="#f2ece3" stroke="#1b2730" stroke-width="1.6" d="M536.5,-64C536.5,-64 503.5,-64 503.5,-64 497.5,-64 491.5,-58 491.5,-52 491.5,-52 491.5,-40 491.5,-40 491.5,-34 497.5,-28 503.5,-28 503.5,-28 536.5,-28 536.5,-28 542.5,-28 548.5,-34 548.5,-40 548.5,-40 548.5,-52 548.5,-52 548.5,-58 542.5,-64 536.5,-64"/>
<text text-anchor="middle" x="520" y="-43.5" font-family="Avenir Next" font-size="10.00" fill="#17232b">CIVE210</text>
</a>
</g>
</g>
<!-- course__CSC110&#45;&gt;course__CIVE210 -->
<g id="edge3" class="edge">
<title>course__CSC110&#45;&gt;course__CIVE210</title>
<path fill="none" stroke="#5d6972" stroke-width="1.2" d="M282.02,-22.34C337.61,-27.89 432.72,-37.39 483.92,-42.5"/>
<polygon fill="#5d6972" stroke="#5d6972" stroke-width="1.2" points="483.93,-44.96 491.14,-43.22 484.42,-40.09 483.93,-44.96"/>
</g>
<!-- course__MATH101&#45;&gt;course__PHYS102B -->
<g id="edge25" class="edge">
<title>course__MATH101&#45;&gt;course__PHYS102B</title>
<path fill="none" stroke="#5d6972" stroke-width="1.2" d="M267.99,-251.99C272.77,-248.8 277.59,-245.4 282,-242 311.13,-219.51 315.79,-210.78 343,-186 344.77,-184.39 346.6,-182.73 348.44,-181.06"/>
<polygon fill="#5d6972" stroke="#5d6972" stroke-width="1.2" points="350.42,-182.57 353.97,-176.05 347.13,-178.93 350.42,-182.57"/>
</g>
<!-- course__MATH101&#45;&gt;choice_EOS311_0_2 -->
<g id="edge10" class="edge">
<title>course__MATH101&#45;&gt;choice_EOS311_0_2</title>
<path fill="none" stroke="#7a8389" d="M269.25,-257.29C290.76,-248.4 319.45,-236.54 341.37,-227.49"/>
<polygon fill="#7a8389" stroke="#7a8389" points="342.4,-229.71 347.93,-224.77 340.53,-225.18 342.4,-229.71"/>
</g>
<!-- course__MATH101&#45;&gt;choice_EOS314_0_0 -->
<g id="edge17" class="edge">
<title>course__MATH101&#45;&gt;choice_EOS314_0_0</title>
<path fill="none" stroke="#7a8389" d="M269.05,-253.16C273.7,-249.82 278.21,-246.08 282,-242 320.59,-200.48 307.91,-174.52 343,-130 344.26,-128.4 345.62,-126.81 347.04,-125.25"/>
<polygon fill="#7a8389" stroke="#7a8389" points="348.93,-126.83 352.05,-120.1 345.41,-123.41 348.93,-126.83"/>
</g>
<!-- course__PHYS102A&#45;&gt;course__PHYS102B -->
<g id="edge23" class="edge">
<title>course__PHYS102A&#45;&gt;course__PHYS102B</title>
<path fill="none" stroke="#5d6972" stroke-width="1.2" d="M267.24,-158C287.48,-158 314.76,-158 336.69,-158"/>
<polygon fill="#5d6972" stroke="#5d6972" stroke-width="1.2" points="336.9,-160.45 343.9,-158 336.9,-155.55 336.9,-160.45"/>
</g>
<!-- course__PHYS102B&#45;&gt;course__CIVE210 -->
<g id="edge4" class="edge">
<title>course__PHYS102B&#45;&gt;course__CIVE210</title>
<path fill="none" stroke="#5d6972" stroke-width="1.2" d="M399.29,-139.76C424.02,-120.39 463.13,-89.76 489.87,-68.81"/>
<polygon fill="#5d6972" stroke="#5d6972" stroke-width="1.2" points="491.72,-70.48 495.72,-64.24 488.69,-66.62 491.72,-70.48"/>
</g>
<!-- course__PHYS102B&#45;&gt;course__EOS261 -->
<g id="edge8" class="edge">
<title>course__PHYS102B&#45;&gt;course__EOS261</title>
<path fill="none" stroke="#5d6972" stroke-width="1.2" d="M406.33,-163.94C429.51,-168.48 461.45,-174.73 485.4,-179.42"/>
<polygon fill="#5d6972" stroke="#5d6972" stroke-width="1.2" points="485.22,-181.88 492.56,-180.82 486.16,-177.07 485.22,-181.88"/>
</g>
<!-- course__PHYS102B&#45;&gt;course__EOS311 -->
<g id="edge13" class="edge">
<title>course__PHYS102B&#45;&gt;course__EOS311</title>
<path fill="none" stroke="#5d6972" stroke-width="1.2" d="M405.22,-176.24C423.2,-187.36 446.8,-201.73 468,-214 471.73,-216.16 475.63,-218.37 479.55,-220.57"/>
<polygon fill="#5d6972" stroke="#5d6972" stroke-width="1.2" points="478.38,-222.72 485.68,-223.99 480.76,-218.44 478.38,-222.72"/>
</g>
<!-- course__EOS314 -->
<g id="node13" class="node">
<title>course__EOS314</title>
<g id="a_node13"><a xlink:href="../../../courses/EOS314.html" xlink:title="EOS314: Descriptive Physical Oceanography" target="_top">
<path fill="#d7e9ef" stroke="#1b2730" stroke-width="1.6" d="M535,-148C535,-148 505,-148 505,-148 499,-148 493,-142 493,-136 493,-136 493,-124 493,-124 493,-118 499,-112 505,-112 505,-112 535,-112 535,-112 541,-112 547,-118 547,-124 547,-124 547,-136 547,-136 547,-142 541,-148 535,-148"/>
<text text-anchor="middle" x="520" y="-127.5" font-family="Avenir Next" font-size="10.00" fill="#17232b">EOS314</text>
</a>
</g>
</g>
<!-- course__PHYS102B&#45;&gt;course__EOS314 -->
<g id="edge19" class="edge">
<title>course__PHYS102B&#45;&gt;course__EOS314</title>
<path fill="none" stroke="#5d6972" stroke-width="1.2" d="M406.33,-152.06C429.51,-147.52 461.45,-141.27 485.4,-136.58"/>
<polygon fill="#5d6972" stroke="#5d6972" stroke-width="1.2" points="486.16,-138.93 492.56,-135.18 485.22,-134.12 486.16,-138.93"/>
</g>
<!-- course__EOS314&#45;&gt;course__EOS312 -->
<g id="edge14" class="edge">
<title>course__EOS314&#45;&gt;course__EOS312</title>
<path fill="none" stroke="#5d6972" stroke-width="1.2" d="M547.04,-141.11C555.6,-145.55 564.77,-151.24 572,-158 606.68,-190.43 633.56,-239.5 647.78,-268.98"/>
<polygon fill="#5d6972" stroke="#5d6972" stroke-width="1.2" points="645.74,-270.4 650.95,-275.68 650.17,-268.3 645.74,-270.4"/>
</g>
<!-- choice_EOS311_0_2&#45;&gt;course__EOS311 -->
<g id="edge12" class="edge">
<title>choice_EOS311_0_2&#45;&gt;course__EOS311</title>
<path fill="none" stroke="#5d6972" stroke-width="1.2" d="M402.23,-219.14C418.6,-222.34 440.35,-226.6 460.64,-230.57"/>
<polygon fill="#5d6972" stroke="#5d6972" stroke-width="1.2" points="460.41,-233.02 467.75,-231.96 461.35,-228.22 460.41,-233.02"/>
</g>
<!-- choice_EOS314_0_0&#45;&gt;course__EOS314 -->
<g id="edge18" class="edge">
<title>choice_EOS314_0_0&#45;&gt;course__EOS314</title>
<path fill="none" stroke="#5d6972" stroke-width="1.2" d="M402.23,-107.14C425.81,-111.75 460.56,-118.56 486.02,-123.54"/>
<polygon fill="#5d6972" stroke="#5d6972" stroke-width="1.2" points="485.6,-125.96 492.94,-124.9 486.54,-121.15 485.6,-125.96"/>
</g>
</g>
</svg>
