<?xml version="1.0" encoding="UTF-8" standalone="no"?>
<!DOCTYPE svg PUBLIC "-//W3C//DTD SVG 1.1//EN"
 "http://www.w3.org/Graphics/SVG/1.1/DTD/svg11.dtd">
<!-- Generated by graphviz version 2.43.0 (0)
 -->
<!-- Title: MATH301 Pages: 1 -->
<svg width="747pt" height="79pt"
 viewBox="0.00 0.00 747.20 79.20" xmlns="http://www.w3.org/2000/svg" xmlns:xlink="http://www.w3.org/1999/xlink">
<g id="graph0" class="graph" transform="scale(1 1) rotate(0) translate(21.6 57.6)">
<title>MATH301</title>
<!-- course__MATH100 -->
<g id="node1" class="node">
<title>course__MATH100</title>
<g id="a_node1"><a xlink:href="../../../courses/MATH100.html" xlink:title="Equivalent or cross&#45;listed: MATH100: Calculus I | MATH102: Calculus for Students in the Social and Biological Sciences | MATH109: Introduction to Calculus" target="_top">
<path fill="#dfe3f4" stroke="#7e8d96" d="M99,-36C99,-36 12,-36 12,-36 6,-36 0,-30 0,-24 0,-24 0,-12 0,-12 0,-6 6,0 12,0 12,0 99,0 99,0 105,0 111,-6 111,-12 111,-12 111,-24 111,-24 111,-30 105,-36 99,-36"/>
<text text-anchor="middle" x="55.5" y="-20.8" font-family="Avenir Next" font-size="9.00" fill="#41515b">MATH100 / MATH102</text>
<text text-anchor="middle" x="55.5" y="-10.8" font-family="Avenir Next" font-size="9.00" fill="#41515b">MATH109</text>
</a>
</g>
</g>
<!-- course__MATH101 -->
<g id="node2" class="node">
<title>course__MATH101</title>
<g id="a_node2"><a xlink:href="../../../courses/MATH101.html" xlink:title="MATH101: Calculus II" target="_top">
<path fill="#dfe3f4" stroke="#7e8d96" d="M219,-36C219,-36 184,-36 184,-36 178,-36 172,-30 172,-24 172,-24 172,-12 172,-12 172,-6 178,0 184,0 184,0 219,0 219,0 225,0 231,-6 231,-12 231,-12 231,-24 231,-24 231,-30 225,-36 219,-36"/>
<text text-anchor="middle" x="201.5" y="-15.8" font-family="Avenir Next" font-size="9.00" fill="#41515b">MATH101</text>
</a>
</g>
</g>
<!-- course__MATH100&#45;&gt;course__MATH101 -->
<g id="edge1" class="edge">
<title>course__MATH100&#45;&gt;course__MATH101</title>
<path fill="none" stroke="#5d6972" stroke-width="1.2" d="M111.35,-18C129.27,-18 148.7,-18 164.83,-18"/>
<polygon fill="#5d6972" stroke="#5d6972" stroke-width="1.2" points="164.99,-20.45 171.99,-18 164.99,-15.55 164.99,-20.45"/>
</g>
<!-- course__MATH200 -->
<g id="node3" class="node">
<title>course__MATH200</title>
<g id="a_node3"><a xlink:href="../../../courses/MATH200.html" xlink:title="Equivalent or cross&#45;listed: MATH200: Calculus III | MATH202: Intermediate Calculus for CSC and EOS" target="_top">
<path fill="#dfe3f4" stroke="#1b2730" stroke-width="1.6" d="M399,-36C399,-36 304,-36 304,-36 298,-36 292,-30 292,-24 292,-24 292,-12 292,-12 292,-6 298,0 304,0 304,0 399,0 399,0 405,0 411,-6 411,-12 411,-12 411,-24 411,-24 411,-30 405,-36 399,-36"/>
<text text-anchor="middle" x="351.5" y="-15.5" font-family="Avenir Next" font-size="10.00" fill="#17232b">MATH200 / MATH202</text>
</a>
</g>
</g>
<!-- course__MATH101&#45;&gt;course__MATH200 -->
<g id="edge2" class="edge">
<title>course__MATH101&#45;&gt;course__MATH200</title>
<path fill="none" stroke="#5d6972" stroke-width="1.2" d="M231.04,-18C246.24,-18 265.62,-18 284.33,-18"/>
<polygon fill="#5d6972" stroke="#5d6972" stroke-width="1.2" points="284.73,-20.45 291.73,-18 284.73,-15.55 284.73,-20.45"/>
</g>
<!-- course__MATH204 -->
<g id="node4" class="node">
<title>course__MATH204</title>
<g id="a_node4"><a xlink:href="../../../courses/MATH204.html" xlink:title="MATH204: Calculus IV" target="_top">
<path fill="#dfe3f4" stroke="#1b2730" stroke-width="1.6" d="M523,-36C523,-36 484,-36 484,-36 478,-36 472,-30 472,-24 472,-24 472,-12 472,-12 472,-6 478,0 484,0 484,0 523,0 523,0 529,0 535,-6 535,-12 535,-12 535,-24 535,-24 535,-30 529,-36 523,-36"/>
<text text-anchor="middle" x="503.5" y="-15.5" font-family="Avenir Next" font-size="10.00" fill="#17232b">MATH204</text>
</a>
</g>
</g>
<!-- course__MATH200&#45;&gt;course__MATH204 -->
<g id="edge3" class="edge">
<title>course__MATH200&#45;&gt;course__MATH204</title>
<path fill="none" stroke="#5d6972" stroke-width="1.2" d="M411.35,-18C429.29,-18 448.52,-18 464.67,-18"/>
<polygon fill="#5d6972" stroke="#5d6972" stroke-width="1.2" points="464.86,-20.45 471.86,-18 464.86,-15.55 464.86,-20.45"/>
</g>
<!-- course__MATH301 -->
<g id="node5" class="node">
<title>course__MATH301</title>
<g id="a_node5"><a xlink:href="../../../courses/MATH301.html" xlink:title="MATH301: Complex Variables" target="_top">
<path fill="#dfe3f4" stroke="#1f4f66" stroke-width="2" d="M692,-36C692,-36 608,-36 608,-36 602,-36 596,-30 596,-24 596,-24 596,-12 596,-12 596,-6 602,0 608,0 608,0 692,0 692,0 698,0 704,-6 704,-12 704,-12 704,-24 704,-24 704,-30 698,-36 692,-36"/>
<text text-anchor="middle" x="650" y="-21" font-family="Avenir Next" font-size="10.00" fill="#17232b">MATH301</text>
<text text-anchor="middle" x="650" y="-10" font-family="Avenir Next" font-size="10.00" fill="#17232b">Complex Variables</text>
</a>
</g>
</g>
<!-- course__MATH204&#45;&gt;course__MATH301 -->
<g id="edge4" class="edge">
<title>course__MATH204&#45;&gt;course__MATH301</title>
<path fill="none" stroke="#5d6972" stroke-width="1.2" d="M535.14,-18C550.72,-18 570.22,-18 588.65,-18"/>
<polygon fill="#5d6972" stroke="#5d6972" stroke-width="1.2" points="588.92,-20.45 595.92,-18 588.92,-15.55 588.92,-20.45"/>
</g>
</g>
</svg>
