<?xml version="1.0" encoding="UTF-8" standalone="no"?>
<!DOCTYPE svg PUBLIC "-//W3C//DTD SVG 1.1//EN"
 "http://www.w3.org/Graphics/SVG/1.1/DTD/svg11.dtd">
<!-- Generated by graphviz version 2.43.0 (0)
 -->
<!-- Title: MATH102 Pages: 1 -->
<svg width="899pt" height="465pt"
 viewBox="0.00 0.00 899.20 464.95" xmlns="http://www.w3.org/2000/svg" xmlns:xlink="http://www.w3.org/1999/xlink">
<g id="graph0" class="graph" transform="scale(1 1) rotate(0) translate(21.6 443.35)">
<title>MATH102</title>
<!-- course__MATH100 -->
<g id="node1" class="node">
<title>course__MATH100</title>
<g id="a_node1"><a xlink:href="../../../courses/MATH102.html" xlink:title="Collapsed in simplified view: MATH100: Calculus I | MATH102: Calculus for Students in the Social and Biological Sciences | MATH109: Introduction to Calculus" target="_top">
<path fill="#dfe3f4" stroke="#1f4f66" stroke-width="2" d="M289,-204C289,-204 12,-204 12,-204 6,-204 0,-198 0,-192 0,-192 0,-180 0,-180 0,-174 6,-168 12,-168 12,-168 289,-168 289,-168 295,-168 301,-174 301,-180 301,-180 301,-192 301,-192 301,-198 295,-204 289,-204"/>
<text text-anchor="middle" x="150.5" y="-189" font-family="Avenir Next" font-size="10.00" fill="#17232b">Calculus I</text>
<text text-anchor="middle" x="150.5" y="-178" font-family="Avenir Next" font-size="10.00" fill="#17232b">Calculus for Students in the Social and Biological Sciences</text>
</a>
</g>
</g>
<!-- course__CHEM102 -->
<g id="node2" class="node">
<title>course__CHEM102</title>
<g id="a_node2"><a xlink:href="../../../courses/CHEM102.html" xlink:title="CHEM102: Chemical Reactivity Fundamentals with Environmental Applications" target="_top">
<path fill="#ead9b8" stroke="#1b2730" stroke-width="1.6" d="M426.5,-386C426.5,-386 386.5,-386 386.5,-386 380.5,-386 374.5,-380 374.5,-374 374.5,-374 374.5,-362 374.5,-362 374.5,-356 380.5,-350 386.5,-350 386.5,-350 426.5,-350 426.5,-350 432.5,-350 438.5,-356 438.5,-362 438.5,-362 438.5,-374 438.5,-374 438.5,-380 432.5,-386 426.5,-386"/>
<text text-anchor="middle" x="406.5" y="-365.5" font-family="Avenir Next" font-size="10.00" fill="#17232b">CHEM102</text>
</a>
</g>
</g>
<!-- course__MATH100&#45;&gt;course__CHEM102 -->
<g id="edge1" class="edge">
<title>course__MATH100&#45;&gt;course__CHEM102</title>
<path fill="none" stroke="#5d6972" stroke-width="1.2" d="M176.78,-204.12C223.57,-237.64 323.5,-309.24 374.37,-345.69"/>
<polygon fill="#5d6972" stroke="#5d6972" stroke-width="1.2" points="373.2,-347.87 380.32,-349.96 376.06,-343.89 373.2,-347.87"/>
</g>
<!-- course__CSC110 -->
<g id="node3" class="node">
<title>course__CSC110</title>
<g id="a_node3"><a xlink:href="../../../courses/CSC110.html" xlink:title="Collapsed in simplified view: CSC110: Fundamentals of Programming I | CSC111: Fundamentals of Programming with Engineering Applications" target="_top">
<path fill="#e7ddec" stroke="#1b2730" stroke-width="1.6" d="M439,-36C439,-36 374,-36 374,-36 368,-36 362,-30 362,-24 362,-24 362,-12 362,-12 362,-6 368,0 374,0 374,0 439,0 439,0 445,0 451,-6 451,-12 451,-12 451,-24 451,-24 451,-30 445,-36 439,-36"/>
<text text-anchor="middle" x="406.5" y="-15.5" font-family="Avenir Next" font-size="10.00" fill="#17232b">Programming I</text>
</a>
</g>
</g>
<!-- course__MATH100&#45;&gt;course__CSC110 -->
<g id="edge5" class="edge">
<title>course__MATH100&#45;&gt;course__CSC110</title>
<path fill="none" stroke="#5d6972" stroke-width="1.2" d="M179.17,-167.7C226.24,-136.57 321.72,-73.41 372.31,-39.95"/>
<polygon fill="#5d6972" stroke="#5d6972" stroke-width="1.2" points="373.77,-41.93 378.25,-36.02 371.06,-37.84 373.77,-41.93"/>
</g>
<!-- course__MATH101 -->
<g id="node4" class="node">
<title>course__MATH101</title>
<g id="a_node4"><a xlink:href="../../../courses/MATH101.html" xlink:title="MATH101: Calculus II" target="_top">
<path fill="#dfe3f4" stroke="#1b2730" stroke-width="1.6" d="M426,-288C426,-288 387,-288 387,-288 381,-288 375,-282 375,-276 375,-276 375,-264 375,-264 375,-258 381,-252 387,-252 387,-252 426,-252 426,-252 432,-252 438,-258 438,-264 438,-264 438,-276 438,-276 438,-282 432,-288 426,-288"/>
<text text-anchor="middle" x="406.5" y="-267.5" font-family="Avenir Next" font-size="10.00" fill="#17232b">MATH101</text>
</a>
</g>
</g>
<!-- course__MATH100&#45;&gt;course__MATH101 -->
<g id="edge20" class="edge">
<title>course__MATH100&#45;&gt;course__MATH101</title>
<path fill="none" stroke="#5d6972" stroke-width="1.2" d="M205.99,-204.02C254.87,-220.19 325.3,-243.48 368.09,-257.63"/>
<polygon fill="#5d6972" stroke="#5d6972" stroke-width="1.2" points="367.55,-260.03 374.97,-259.9 369.09,-255.38 367.55,-260.03"/>
</g>
<!-- course__MATH211 -->
<g id="node5" class="node">
<title>course__MATH211</title>
<g id="a_node5"><a xlink:href="../../../courses/MATH211.html" xlink:title="MATH211: Matrix Algebra I" target="_top">
<path fill="#dfe3f4" stroke="#1b2730" stroke-width="1.6" d="M426,-232C426,-232 387,-232 387,-232 381,-232 375,-226 375,-220 375,-220 375,-208 375,-208 375,-202 381,-196 387,-196 387,-196 426,-196 426,-196 432,-196 438,-202 438,-208 438,-208 438,-220 438,-220 438,-226 432,-232 426,-232"/>
<text text-anchor="middle" x="406.5" y="-211.5" font-family="Avenir Next" font-size="10.00" fill="#17232b">MATH211</text>
</a>
</g>
</g>
<!-- course__MATH100&#45;&gt;course__MATH211 -->
<g id="edge21" class="edge">
<title>course__MATH100&#45;&gt;course__MATH211</title>
<path fill="none" stroke="#5d6972" stroke-width="1.2" d="M301.09,-202.49C325.81,-205.22 349.35,-207.81 367.8,-209.84"/>
<polygon fill="#5d6972" stroke="#5d6972" stroke-width="1.2" points="367.64,-212.29 374.87,-210.62 368.18,-207.42 367.64,-212.29"/>
</g>
<!-- course__PHYS102A -->
<g id="node6" class="node">
<title>course__PHYS102A</title>
<g id="a_node6"><a xlink:href="../../../courses/PHYS102A.html" xlink:title="Collapsed in simplified view: PHYS102A: General Physics I | PHYS110: Introductory Physics I | PHYS120: Physics I" target="_top">
<path fill="#efd8cf" stroke="#1b2730" stroke-width="1.6" d="M424,-176C424,-176 389,-176 389,-176 383,-176 377,-170 377,-164 377,-164 377,-152 377,-152 377,-146 383,-140 389,-140 389,-140 424,-140 424,-140 430,-140 436,-146 436,-152 436,-152 436,-164 436,-164 436,-170 430,-176 424,-176"/>
<text text-anchor="middle" x="406.5" y="-155.5" font-family="Avenir Next" font-size="10.00" fill="#17232b">Physics I</text>
</a>
</g>
</g>
<!-- course__MATH100&#45;&gt;course__PHYS102A -->
<g id="edge22" class="edge">
<title>course__MATH100&#45;&gt;course__PHYS102A</title>
<path fill="none" stroke="#5d6972" stroke-width="1.2" d="M301.09,-169.51C326.57,-166.7 350.8,-164.03 369.49,-161.97"/>
<polygon fill="#5d6972" stroke="#5d6972" stroke-width="1.2" points="369.94,-164.39 376.63,-161.18 369.4,-159.51 369.94,-164.39"/>
</g>
<!-- course__PHYS102B -->
<g id="node9" class="node">
<title>course__PHYS102B</title>
<g id="a_node9"><a xlink:href="../../../courses/PHYS102B.html" xlink:title="Collapsed in simplified view: PHYS102B: General Physics II | PHYS111: Introductory Physics II | PHYS130: Physics II" target="_top">
<path fill="#efd8cf" stroke="#1b2730" stroke-width="1.6" d="M563,-176C563,-176 525,-176 525,-176 519,-176 513,-170 513,-164 513,-164 513,-152 513,-152 513,-146 519,-140 525,-140 525,-140 563,-140 563,-140 569,-140 575,-146 575,-152 575,-152 575,-164 575,-164 575,-170 569,-176 563,-176"/>
<text text-anchor="middle" x="544" y="-155.5" font-family="Avenir Next" font-size="10.00" fill="#17232b">Physics II</text>
</a>
</g>
</g>
<!-- course__MATH100&#45;&gt;course__PHYS102B -->
<g id="edge24" class="edge">
<title>course__MATH100&#45;&gt;course__PHYS102B</title>
<path fill="none" stroke="#5d6972" stroke-width="1.2" d="M196.99,-167.91C255.53,-146.84 360.48,-116.53 451,-130 469.5,-132.75 489.42,-138.46 505.98,-144"/>
<polygon fill="#5d6972" stroke="#5d6972" stroke-width="1.2" points="505.44,-146.41 512.85,-146.36 507.03,-141.77 505.44,-146.41"/>
</g>
<!-- choice_EOS311_0_2 -->
<g id="node15" class="node">
<title>choice_EOS311_0_2</title>
<path fill="#fff7ee" stroke="#b7793f" stroke-width="1.1" d="M559,-232C559,-232 529,-232 529,-232 523,-232 517,-226 517,-220 517,-220 517,-208 517,-208 517,-202 523,-196 529,-196 529,-196 559,-196 559,-196 565,-196 571,-202 571,-208 571,-208 571,-220 571,-220 571,-226 565,-232 559,-232"/>
<text text-anchor="middle" x="544" y="-211.8" font-family="Avenir Next" font-size="9.00">2 of</text>
</g>
<!-- course__MATH100&#45;&gt;choice_EOS311_0_2 -->
<g id="edge9" class="edge">
<title>course__MATH100&#45;&gt;choice_EOS311_0_2</title>
<path fill="none" stroke="#7a8389" d="M175.77,-204.09C213.35,-230.85 288.9,-279.76 362,-298 400.38,-307.57 414.12,-312.3 451,-298 467.24,-291.7 499.47,-260.07 521.14,-237.48"/>
<polygon fill="#7a8389" stroke="#7a8389" points="523.07,-239 526.13,-232.24 519.53,-235.62 523.07,-239"/>
</g>
<!-- choice_EOS314_0_0 -->
<g id="node16" class="node">
<title>choice_EOS314_0_0</title>
<path fill="#fff7ee" stroke="#b7793f" stroke-width="1.1" d="M559,-120C559,-120 529,-120 529,-120 523,-120 517,-114 517,-108 517,-108 517,-96 517,-96 517,-90 523,-84 529,-84 529,-84 559,-84 559,-84 565,-84 571,-90 571,-96 571,-96 571,-108 571,-108 571,-114 565,-120 559,-120"/>
<text text-anchor="middle" x="544" y="-99.8" font-family="Avenir Next" font-size="9.00">2 of</text>
</g>
<!-- course__MATH100&#45;&gt;choice_EOS314_0_0 -->
<g id="edge16" class="edge">
<title>course__MATH100&#45;&gt;choice_EOS314_0_0</title>
<path fill="none" stroke="#7a8389" d="M200.55,-167.87C242.77,-152.99 305.61,-132.55 362,-121 412.86,-110.58 473,-105.71 509.55,-103.56"/>
<polygon fill="#7a8389" stroke="#7a8389" points="510.13,-105.98 516.98,-103.14 509.85,-101.09 510.13,-105.98"/>
</g>
<!-- course__CHEM245 -->
<g id="node7" class="node">
<title>course__CHEM245</title>
<g id="a_node7"><a xlink:href="../../../courses/CHEM245.html" xlink:title="CHEM245: Introduction to Thermodynamics" target="_top">
<path fill="#ead9b8" stroke="#1b2730" stroke-width="1.6" d="M564,-330C564,-330 524,-330 524,-330 518,-330 512,-324 512,-318 512,-318 512,-306 512,-306 512,-300 518,-294 524,-294 524,-294 564,-294 564,-294 570,-294 576,-300 576,-306 576,-306 576,-318 576,-318 576,-324 570,-330 564,-330"/>
<text text-anchor="middle" x="544" y="-309.5" font-family="Avenir Next" font-size="10.00" fill="#17232b">CHEM245</text>
</a>
</g>
</g>
<!-- course__CHEM102&#45;&gt;course__CHEM245 -->
<g id="edge2" class="edge">
<title>course__CHEM102&#45;&gt;course__CHEM245</title>
<path fill="none" stroke="#5d6972" stroke-width="1.2" d="M438.59,-355.15C458.33,-346.99 484.01,-336.38 504.97,-327.72"/>
<polygon fill="#5d6972" stroke="#5d6972" stroke-width="1.2" points="506.06,-329.92 511.59,-324.98 504.18,-325.39 506.06,-329.92"/>
</g>
<!-- course__EOS240 -->
<g id="node8" class="node">
<title>course__EOS240</title>
<g id="a_node8"><a xlink:href="../../../courses/EOS240.html" xlink:title="EOS240: Geochemistry" target="_top">
<path fill="#d7e9ef" stroke="#1b2730" stroke-width="1.6" d="M559,-386C559,-386 529,-386 529,-386 523,-386 517,-380 517,-374 517,-374 517,-362 517,-362 517,-356 523,-350 529,-350 529,-350 559,-350 559,-350 565,-350 571,-356 571,-362 571,-362 571,-374 571,-374 571,-380 565,-386 559,-386"/>
<text text-anchor="middle" x="544" y="-365.5" font-family="Avenir Next" font-size="10.00" fill="#17232b">EOS240</text>
</a>
</g>
</g>
<!-- course__CHEM102&#45;&gt;course__EOS240 -->
<g id="edge6" class="edge">
<title>course__CHEM102&#45;&gt;course__EOS240</title>
<path fill="none" stroke="#5d6972" stroke-width="1.2" d="M438.59,-368C459.79,-368 487.84,-368 509.53,-368"/>
<polygon fill="#5d6972" stroke="#5d6972" stroke-width="1.2" points="509.62,-370.45 516.62,-368 509.62,-365.55 509.62,-370.45"/>
</g>
<!-- course__EOS261 -->
<g id="node11" class="node">
<title>course__EOS261</title>
<g id="a_node11"><a xlink:href="../../../courses/EOS261.html" xlink:title="EOS261: The Climate System" target="_top">
<path fill="#d7e9ef" stroke="#1b2730" stroke-width="1.6" d="M704,-204C704,-204 674,-204 674,-204 668,-204 662,-198 662,-192 662,-192 662,-180 662,-180 662,-174 668,-168 674,-168 674,-168 704,-168 704,-168 710,-168 716,-174 716,-180 716,-180 716,-192 716,-192 716,-198 710,-204 704,-204"/>
<text text-anchor="middle" x="689" y="-183.5" font-family="Avenir Next" font-size="10.00" fill="#17232b">EOS261</text>
</a>
</g>
</g>
<!-- course__CHEM102&#45;&gt;course__EOS261 -->
<g id="edge7" class="edge">
<title>course__CHEM102&#45;&gt;course__EOS261</title>
<path fill="none" stroke="#5d6972" stroke-width="1.2" d="M427.93,-349.88C448.44,-332.1 481.32,-304.71 512,-284 564.77,-248.37 581.31,-244.88 637,-214 642.9,-210.73 649.2,-207.25 655.28,-203.91"/>
<polygon fill="#5d6972" stroke="#5d6972" stroke-width="1.2" points="656.81,-205.86 661.77,-200.35 654.45,-201.57 656.81,-205.86"/>
</g>
<!-- course__EOS311 -->
<g id="node12" class="node">
<title>course__EOS311</title>
<g id="a_node12"><a xlink:href="../../../courses/EOS311.html" xlink:title="Equivalent or cross&#45;listed: BIOL311: Biological Oceanography | EOS311: Biological Oceanography" target="_top">
<path fill="#d7e9ef" stroke="#1b2730" stroke-width="1.6" d="M729,-260C729,-260 649,-260 649,-260 643,-260 637,-254 637,-248 637,-248 637,-236 637,-236 637,-230 643,-224 649,-224 649,-224 729,-224 729,-224 735,-224 741,-230 741,-236 741,-236 741,-248 741,-248 741,-254 735,-260 729,-260"/>
<text text-anchor="middle" x="689" y="-239.5" font-family="Avenir Next" font-size="10.00" fill="#17232b">BIOL311 / EOS311</text>
</a>
</g>
</g>
<!-- course__CHEM102&#45;&gt;course__EOS311 -->
<g id="edge11" class="edge">
<title>course__CHEM102&#45;&gt;course__EOS311</title>
<path fill="none" stroke="#5d6972" stroke-width="1.2" d="M438.75,-384.09C473.96,-399.82 532,-418.41 576,-396 629.3,-368.86 663.21,-303.15 678.51,-266.95"/>
<polygon fill="#5d6972" stroke="#5d6972" stroke-width="1.2" points="680.92,-267.53 681.32,-260.13 676.39,-265.67 680.92,-267.53"/>
</g>
<!-- course__EOS312 -->
<g id="node14" class="node">
<title>course__EOS312</title>
<g id="a_node14"><a xlink:href="../../../courses/EOS312.html" xlink:title="EOS312: Introductory Chemical Oceanography" target="_top">
<path fill="#d7e9ef" stroke="#1b2730" stroke-width="1.6" d="M844,-312C844,-312 814,-312 814,-312 808,-312 802,-306 802,-300 802,-300 802,-288 802,-288 802,-282 808,-276 814,-276 814,-276 844,-276 844,-276 850,-276 856,-282 856,-288 856,-288 856,-300 856,-300 856,-306 850,-312 844,-312"/>
<text text-anchor="middle" x="829" y="-291.5" font-family="Avenir Next" font-size="10.00" fill="#17232b">EOS312</text>
</a>
</g>
</g>
<!-- course__CHEM102&#45;&gt;course__EOS312 -->
<g id="edge15" class="edge">
<title>course__CHEM102&#45;&gt;course__EOS312</title>
<path fill="none" stroke="#5d6972" stroke-width="1.2" d="M436.88,-386.05C457.16,-397.42 485.21,-411.03 512,-417 539.76,-423.19 548.29,-423.4 576,-417 660.66,-397.44 749.77,-345.36 795.97,-315.62"/>
<polygon fill="#5d6972" stroke="#5d6972" stroke-width="1.2" points="797.39,-317.62 801.93,-311.76 794.72,-313.51 797.39,-317.62"/>
</g>
<!-- course__CIVE210 -->
<g id="node10" class="node">
<title>course__CIVE210</title>
<g id="a_node10"><a xlink:href="../../../courses/CIVE210.html" xlink:title="CIVE210: Sustainability in Civil Engineering" target="_top">
<path fill="#f2ece3" stroke="#1b2730" stroke-width="1.6" d="M705.5,-64C705.5,-64 672.5,-64 672.5,-64 666.5,-64 660.5,-58 660.5,-52 660.5,-52 660.5,-40 660.5,-40 660.5,-34 666.5,-28 672.5,-28 672.5,-28 705.5,-28 705.5,-28 711.5,-28 717.5,-34 717.5,-40 717.5,-40 717.5,-52 717.5,-52 717.5,-58 711.5,-64 705.5,-64"/>
<text text-anchor="middle" x="689" y="-43.5" font-family="Avenir Next" font-size="10.00" fill="#17232b">CIVE210</text>
</a>
</g>
</g>
<!-- course__CSC110&#45;&gt;course__CIVE210 -->
<g id="edge3" class="edge">
<title>course__CSC110&#45;&gt;course__CIVE210</title>
<path fill="none" stroke="#5d6972" stroke-width="1.2" d="M451.02,-22.34C506.61,-27.89 601.72,-37.39 652.92,-42.5"/>
<polygon fill="#5d6972" stroke="#5d6972" stroke-width="1.2" points="652.93,-44.96 660.14,-43.22 653.42,-40.09 652.93,-44.96"/>
</g>
<!-- course__MATH101&#45;&gt;course__PHYS102B -->
<g id="edge25" class="edge">
<title>course__MATH101&#45;&gt;course__PHYS102B</title>
<path fill="none" stroke="#5d6972" stroke-width="1.2" d="M436.99,-251.99C441.77,-248.8 446.59,-245.4 451,-242 480.13,-219.51 484.79,-210.78 512,-186 513.77,-184.39 515.6,-182.73 517.44,-181.06"/>
<polygon fill="#5d6972" stroke="#5d6972" stroke-width="1.2" points="519.42,-182.57 522.97,-176.05 516.13,-178.93 519.42,-182.57"/>
</g>
<!-- course__MATH101&#45;&gt;choice_EOS311_0_2 -->
<g id="edge10" class="edge">
<title>course__MATH101&#45;&gt;choice_EOS311_0_2</title>
<path fill="none" stroke="#7a8389" d="M438.25,-257.29C459.76,-248.4 488.45,-236.54 510.37,-227.49"/>
<polygon fill="#7a8389" stroke="#7a8389" points="511.4,-229.71 516.93,-224.77 509.53,-225.18 511.4,-229.71"/>
</g>
<!-- course__MATH101&#45;&gt;choice_EOS314_0_0 -->
<g id="edge17" class="edge">
<title>course__MATH101&#45;&gt;choice_EOS314_0_0</title>
<path fill="none" stroke="#7a8389" d="M438.05,-253.16C442.7,-249.82 447.21,-246.08 451,-242 489.59,-200.48 476.91,-174.52 512,-130 513.26,-128.4 514.62,-126.81 516.04,-125.25"/>
<polygon fill="#7a8389" stroke="#7a8389" points="517.93,-126.83 521.05,-120.1 514.41,-123.41 517.93,-126.83"/>
</g>
<!-- course__PHYS102A&#45;&gt;course__PHYS102B -->
<g id="edge23" class="edge">
<title>course__PHYS102A&#45;&gt;course__PHYS102B</title>
<path fill="none" stroke="#5d6972" stroke-width="1.2" d="M436.24,-158C456.48,-158 483.76,-158 505.69,-158"/>
<polygon fill="#5d6972" stroke="#5d6972" stroke-width="1.2" points="505.9,-160.45 512.9,-158 505.9,-155.55 505.9,-160.45"/>
</g>
<!-- course__PHYS102B&#45;&gt;course__CIVE210 -->
<g id="edge4" class="edge">
<title>course__PHYS102B&#45;&gt;course__CIVE210</title>
<path fill="none" stroke="#5d6972" stroke-width="1.2" d="M568.29,-139.76C593.02,-120.39 632.13,-89.76 658.87,-68.81"/>
<polygon fill="#5d6972" stroke="#5d6972" stroke-width="1.2" points="660.72,-70.48 664.72,-64.24 657.69,-66.62 660.72,-70.48"/>
</g>
<!-- course__PHYS102B&#45;&gt;course__EOS261 -->
<g id="edge8" class="edge">
<title>course__PHYS102B&#45;&gt;course__EOS261</title>
<path fill="none" stroke="#5d6972" stroke-width="1.2" d="M575.33,-163.94C598.51,-168.48 630.45,-174.73 654.4,-179.42"/>
<polygon fill="#5d6972" stroke="#5d6972" stroke-width="1.2" points="654.22,-181.88 661.56,-180.82 655.16,-177.07 654.22,-181.88"/>
</g>
<!-- course__PHYS102B&#45;&gt;course__EOS311 -->
<g id="edge13" class="edge">
<title>course__PHYS102B&#45;&gt;course__EOS311</title>
<path fill="none" stroke="#5d6972" stroke-width="1.2" d="M574.22,-176.24C592.2,-187.36 615.8,-201.73 637,-214 640.73,-216.16 644.63,-218.37 648.55,-220.57"/>
<polygon fill="#5d6972" stroke="#5d6972" stroke-width="1.2" points="647.38,-222.72 654.68,-223.99 649.76,-218.44 647.38,-222.72"/>
</g>
<!-- course__EOS314 -->
<g id="node13" class="node">
<title>course__EOS314</title>
<g id="a_node13"><a xlink:href="../../../courses/EOS314.html" xlink:title="EOS314: Descriptive Physical Oceanography" target="_top">
<path fill="#d7e9ef" stroke="#1b2730" stroke-width="1.6" d="M704,-148C704,-148 674,-148 674,-148 668,-148 662,-142 662,-136 662,-136 662,-124 662,-124 662,-118 668,-112 674,-112 674,-112 704,-112 704,-112 710,-112 716,-118 716,-124 716,-124 716,-136 716,-136 716,-142 710,-148 704,-148"/>
<text text-anchor="middle" x="689" y="-127.5" font-family="Avenir Next" font-size="10.00" fill="#17232b">EOS314</text>
</a>
</g>
</g>
<!-- course__PHYS102B&#45;&gt;course__EOS314 -->
<g id="edge19" class="edge">
<title>course__PHYS102B&#45;&gt;course__EOS314</title>
<path fill="none" stroke="#5d6972" stroke-width="1.2" d="M575.33,-152.06C598.51,-147.52 630.45,-141.27 654.4,-136.58"/>
<polygon fill="#5d6972" stroke="#5d6972" stroke-width="1.2" points="655.16,-138.93 661.56,-135.18 654.22,-134.12 655.16,-138.93"/>
</g>
<!-- course__EOS314&#45;&gt;course__EOS312 -->
<g id="edge14" class="edge">
<title>course__EOS314&#45;&gt;course__EOS312</title>
<path fill="none" stroke="#5d6972" stroke-width="1.2" d="M716.04,-141.11C724.6,-145.55 733.77,-151.24 741,-158 775.68,-190.43 802.56,-239.5 816.78,-268.98"/>
<polygon fill="#5d6972" stroke="#5d6972" stroke-width="1.2" points="814.74,-270.4 819.95,-275.68 819.17,-268.3 814.74,-270.4"/>
</g>
<!-- choice_EOS311_0_2&#45;&gt;course__EOS311 -->
<g id="edge12" class="edge">
<title>choice_EOS311_0_2&#45;&gt;course__EOS311</title>
<path fill="none" stroke="#5d6972" stroke-width="1.2" d="M571.23,-219.14C587.6,-222.34 609.35,-226.6 629.64,-230.57"/>
<polygon fill="#5d6972" stroke="#5d6972" stroke-width="1.2" points="629.41,-233.02 636.75,-231.96 630.35,-228.22 629.41,-233.02"/>
</g>
<!-- choice_EOS314_0_0&#45;&gt;course__EOS314 -->
<g id="edge18" class="edge">
<title>choice_EOS314_0_0&#45;&gt;course__EOS314</title>
<path fill="none" stroke="#5d6972" stroke-width="1.2" d="M571.23,-107.14C594.81,-111.75 629.56,-118.56 655.02,-123.54"/>
<polygon fill="#5d6972" stroke="#5d6972" stroke-width="1.2" points="654.6,-125.96 661.94,-124.9 655.54,-121.15 654.6,-125.96"/>
</g>
</g>
</svg>
