<?xml version="1.0" encoding="UTF-8" standalone="no"?>
<!DOCTYPE svg PUBLIC "-//W3C//DTD SVG 1.1//EN"
 "http://www.w3.org/Graphics/SVG/1.1/DTD/svg11.dtd">
<!-- Generated by graphviz version 2.43.0 (0)
 -->
<!-- Title: MATH492 Pages: 1 -->
<svg width="673pt" height="202pt"
 viewBox="0.00 0.00 673.20 202.20" xmlns="http://www.w3.org/2000/svg" xmlns:xlink="http://www.w3.org/1999/xlink">
<g id="graph0" class="graph" transform="scale(1 1) rotate(0) translate(21.6 180.6)">
<title>MATH492</title>
<!-- course__MATH204 -->
<g id="node1" class="node">
<title>course__MATH204</title>
<g id="a_node1"><a xlink:href="../../../courses/MATH204.html" xlink:title="MATH204: Calculus IV" target="_top">
<path fill="#dfe3f4" stroke="#1b2730" stroke-width="1.6" d="M392,-159C392,-159 353,-159 353,-159 347,-159 341,-153 341,-147 341,-147 341,-135 341,-135 341,-129 347,-123 353,-123 353,-123 392,-123 392,-123 398,-123 404,-129 404,-135 404,-135 404,-147 404,-147 404,-153 398,-159 392,-159"/>
<text text-anchor="middle" x="372.5" y="-138.5" font-family="Avenir Next" font-size="10.00" fill="#17232b">MATH204</text>
</a>
</g>
</g>
<!-- course__MATH347 -->
<g id="node3" class="node">
<title>course__MATH347</title>
<g id="a_node3"><a xlink:href="../../../courses/MATH492.html" xlink:title="Equivalent or cross&#45;listed: MATH347: Introduction to Continuous Optimization | MATH492: Topics in Applied Mathematics" target="_top">
<path fill="#dfe3f4" stroke="#1f4f66" stroke-width="2" d="M618,-103C618,-103 477,-103 477,-103 471,-103 465,-97 465,-91 465,-91 465,-79 465,-79 465,-73 471,-67 477,-67 477,-67 618,-67 618,-67 624,-67 630,-73 630,-79 630,-79 630,-91 630,-91 630,-97 624,-103 618,-103"/>
<text text-anchor="middle" x="547.5" y="-88" font-family="Avenir Next" font-size="10.00" fill="#17232b">MATH347 / MATH492</text>
<text text-anchor="middle" x="547.5" y="-77" font-family="Avenir Next" font-size="10.00" fill="#17232b">Topics in Applied Mathematics</text>
</a>
</g>
</g>
<!-- course__MATH204&#45;&gt;course__MATH347 -->
<g id="edge3" class="edge">
<title>course__MATH204&#45;&gt;course__MATH347</title>
<path fill="none" stroke="#5d6972" stroke-width="1.2" d="M404.03,-131.12C426.12,-123.97 456.74,-114.06 483.93,-105.25"/>
<polygon fill="#5d6972" stroke="#5d6972" stroke-width="1.2" points="484.86,-107.53 490.77,-103.04 483.35,-102.87 484.86,-107.53"/>
</g>
<!-- course__MATH211 -->
<g id="node2" class="node">
<title>course__MATH211</title>
<g id="a_node2"><a xlink:href="../../../courses/MATH211.html" xlink:title="MATH211: Matrix Algebra I" target="_top">
<path fill="#dfe3f4" stroke="#1b2730" stroke-width="1.6" d="M392,-103C392,-103 353,-103 353,-103 347,-103 341,-97 341,-91 341,-91 341,-79 341,-79 341,-73 347,-67 353,-67 353,-67 392,-67 392,-67 398,-67 404,-73 404,-79 404,-79 404,-91 404,-91 404,-97 398,-103 392,-103"/>
<text text-anchor="middle" x="372.5" y="-82.5" font-family="Avenir Next" font-size="10.00" fill="#17232b">MATH211</text>
</a>
</g>
</g>
<!-- course__MATH211&#45;&gt;course__MATH347 -->
<g id="edge2" class="edge">
<title>course__MATH211&#45;&gt;course__MATH347</title>
<path fill="none" stroke="#5d6972" stroke-width="1.2" d="M404.03,-85C419.15,-85 438.27,-85 457.54,-85"/>
<polygon fill="#5d6972" stroke="#5d6972" stroke-width="1.2" points="457.65,-87.45 464.65,-85 457.65,-82.55 457.65,-87.45"/>
</g>
<!-- MATH492_notes -->
<g id="node4" class="node">
<title>MATH492_notes</title>
<polygon fill="#fff7ee" stroke="#b7793f" stroke-width="1.1" points="274,-72 0,-72 0,0 280,0 280,-66 274,-72"/>
<polyline fill="none" stroke="#b7793f" stroke-width="1.1" points="274,-72 274,-66 "/>
<polyline fill="none" stroke="#b7793f" stroke-width="1.1" points="280,-66 274,-66 "/>
<text text-anchor="start" x="13" y="-52.4" font-family="Avenir Next" font-size="12.00">Published notes</text>
<text text-anchor="start" x="13" y="-39.4" font-family="Avenir Next" font-size="12.00">Minimum third&#45;year standing</text>
<text text-anchor="start" x="13" y="-26.4" font-family="Avenir Next" font-size="12.00">additional prerequisites set by department</text>
<text text-anchor="start" x="13" y="-13.4" font-family="Avenir Next" font-size="12.00">depending upon topic</text>
</g>
<!-- MATH492_notes&#45;&gt;course__MATH347 -->
</g>
</svg>
