<?xml version="1.0" encoding="UTF-8" standalone="no"?>
<!DOCTYPE svg PUBLIC "-//W3C//DTD SVG 1.1//EN"
 "http://www.w3.org/Graphics/SVG/1.1/DTD/svg11.dtd">
<!-- Generated by graphviz version 2.43.0 (0)
 -->
<!-- Title: MATH102 Pages: 1 -->
<svg width="1349pt" height="551pt"
 viewBox="0.00 0.00 1349.20 551.20" xmlns="http://www.w3.org/2000/svg" xmlns:xlink="http://www.w3.org/1999/xlink">
<g id="graph0" class="graph" transform="scale(1 1) rotate(0) translate(21.6 529.6)">
<title>MATH102</title>
<!-- course__MATH100 -->
<g id="node1" class="node">
<title>course__MATH100</title>
<g id="a_node1"><a xlink:href="../../../courses/MATH102.html" xlink:title="Collapsed in simplified view: MATH100: Calculus I | MATH102: Calculus for Students in the Social and Biological Sciences | MATH109: Introduction to Calculus" target="_top">
<path fill="#dfe3f4" stroke="#1f4f66" stroke-width="2" d="M739,-207C739,-207 462,-207 462,-207 456,-207 450,-201 450,-195 450,-195 450,-183 450,-183 450,-177 456,-171 462,-171 462,-171 739,-171 739,-171 745,-171 751,-177 751,-183 751,-183 751,-195 751,-195 751,-201 745,-207 739,-207"/>
<text text-anchor="middle" x="600.5" y="-192" font-family="Avenir Next" font-size="10.00" fill="#17232b">Calculus I</text>
<text text-anchor="middle" x="600.5" y="-181" font-family="Avenir Next" font-size="10.00" fill="#17232b">Calculus for Students in the Social and Biological Sciences</text>
</a>
</g>
</g>
<!-- course__CHEM102 -->
<g id="node2" class="node">
<title>course__CHEM102</title>
<g id="a_node2"><a xlink:href="../../../courses/CHEM102.html" xlink:title="CHEM102: Chemical Reactivity Fundamentals with Environmental Applications" target="_top">
<path fill="#ead9b8" stroke="#1b2730" stroke-width="1.6" d="M876.5,-402C876.5,-402 836.5,-402 836.5,-402 830.5,-402 824.5,-396 824.5,-390 824.5,-390 824.5,-378 824.5,-378 824.5,-372 830.5,-366 836.5,-366 836.5,-366 876.5,-366 876.5,-366 882.5,-366 888.5,-372 888.5,-378 888.5,-378 888.5,-390 888.5,-390 888.5,-396 882.5,-402 876.5,-402"/>
<text text-anchor="middle" x="856.5" y="-381.5" font-family="Avenir Next" font-size="10.00" fill="#17232b">CHEM102</text>
</a>
</g>
</g>
<!-- course__MATH100&#45;&gt;course__CHEM102 -->
<g id="edge2" class="edge">
<title>course__MATH100&#45;&gt;course__CHEM102</title>
<path fill="none" stroke="#5d6972" stroke-width="1.2" d="M625.4,-207.35C672.13,-243.22 775.48,-322.57 826.23,-361.53"/>
<polygon fill="#5d6972" stroke="#5d6972" stroke-width="1.2" points="824.81,-363.53 831.85,-365.85 827.79,-359.64 824.81,-363.53"/>
</g>
<!-- course__CSC110 -->
<g id="node3" class="node">
<title>course__CSC110</title>
<g id="a_node3"><a xlink:href="../../../courses/CSC110.html" xlink:title="Collapsed in simplified view: CSC110: Fundamentals of Programming I | CSC111: Fundamentals of Programming with Engineering Applications" target="_top">
<path fill="#e7ddec" stroke="#1b2730" stroke-width="1.6" d="M889,-92C889,-92 824,-92 824,-92 818,-92 812,-86 812,-80 812,-80 812,-68 812,-68 812,-62 818,-56 824,-56 824,-56 889,-56 889,-56 895,-56 901,-62 901,-68 901,-68 901,-80 901,-80 901,-86 895,-92 889,-92"/>
<text text-anchor="middle" x="856.5" y="-71.5" font-family="Avenir Next" font-size="10.00" fill="#17232b">Programming I</text>
</a>
</g>
</g>
<!-- course__MATH100&#45;&gt;course__CSC110 -->
<g id="edge4" class="edge">
<title>course__MATH100&#45;&gt;course__CSC110</title>
<path fill="none" stroke="#5d6972" stroke-width="1.2" d="M641.47,-170.9C686.83,-150.36 760.75,-116.9 808.75,-95.17"/>
<polygon fill="#5d6972" stroke="#5d6972" stroke-width="1.2" points="809.98,-97.3 815.35,-92.18 807.96,-92.83 809.98,-97.3"/>
</g>
<!-- course__MATH101 -->
<g id="node4" class="node">
<title>course__MATH101</title>
<g id="a_node4"><a xlink:href="../../../courses/MATH101.html" xlink:title="MATH101: Calculus II" target="_top">
<path fill="#dfe3f4" stroke="#1b2730" stroke-width="1.6" d="M876,-232C876,-232 837,-232 837,-232 831,-232 825,-226 825,-220 825,-220 825,-208 825,-208 825,-202 831,-196 837,-196 837,-196 876,-196 876,-196 882,-196 888,-202 888,-208 888,-208 888,-220 888,-220 888,-226 882,-232 876,-232"/>
<text text-anchor="middle" x="856.5" y="-211.5" font-family="Avenir Next" font-size="10.00" fill="#17232b">MATH101</text>
</a>
</g>
</g>
<!-- course__MATH100&#45;&gt;course__MATH101 -->
<g id="edge19" class="edge">
<title>course__MATH100&#45;&gt;course__MATH101</title>
<path fill="none" stroke="#5d6972" stroke-width="1.2" d="M751.09,-203.72C775.81,-206.16 799.35,-208.47 817.8,-210.29"/>
<polygon fill="#5d6972" stroke="#5d6972" stroke-width="1.2" points="817.66,-212.74 824.87,-210.98 818.14,-207.86 817.66,-212.74"/>
</g>
<!-- course__MATH211 -->
<g id="node5" class="node">
<title>course__MATH211</title>
<g id="a_node5"><a xlink:href="../../../courses/MATH211.html" xlink:title="MATH211: Matrix Algebra I" target="_top">
<path fill="#dfe3f4" stroke="#1b2730" stroke-width="1.6" d="M876,-36C876,-36 837,-36 837,-36 831,-36 825,-30 825,-24 825,-24 825,-12 825,-12 825,-6 831,0 837,0 837,0 876,0 876,0 882,0 888,-6 888,-12 888,-12 888,-24 888,-24 888,-30 882,-36 876,-36"/>
<text text-anchor="middle" x="856.5" y="-15.5" font-family="Avenir Next" font-size="10.00" fill="#17232b">MATH211</text>
</a>
</g>
</g>
<!-- course__MATH100&#45;&gt;course__MATH211 -->
<g id="edge20" class="edge">
<title>course__MATH100&#45;&gt;course__MATH211</title>
<path fill="none" stroke="#5d6972" stroke-width="1.2" d="M627.61,-170.96C667.26,-143.63 745.12,-90.23 812,-46 814.85,-44.12 817.81,-42.18 820.78,-40.24"/>
<polygon fill="#5d6972" stroke="#5d6972" stroke-width="1.2" points="822.35,-42.14 826.89,-36.27 819.68,-38.03 822.35,-42.14"/>
</g>
<!-- course__PHYS102A -->
<g id="node6" class="node">
<title>course__PHYS102A</title>
<g id="a_node6"><a xlink:href="../../../courses/PHYS102A.html" xlink:title="Collapsed in simplified view: PHYS102A: General Physics I | PHYS110: Introductory Physics I | PHYS120: Physics I" target="_top">
<path fill="#efd8cf" stroke="#1b2730" stroke-width="1.6" d="M874,-288C874,-288 839,-288 839,-288 833,-288 827,-282 827,-276 827,-276 827,-264 827,-264 827,-258 833,-252 839,-252 839,-252 874,-252 874,-252 880,-252 886,-258 886,-264 886,-264 886,-276 886,-276 886,-282 880,-288 874,-288"/>
<text text-anchor="middle" x="856.5" y="-267.5" font-family="Avenir Next" font-size="10.00" fill="#17232b">Physics I</text>
</a>
</g>
</g>
<!-- course__MATH100&#45;&gt;course__PHYS102A -->
<g id="edge21" class="edge">
<title>course__MATH100&#45;&gt;course__PHYS102A</title>
<path fill="none" stroke="#5d6972" stroke-width="1.2" d="M658.19,-207.08C707.77,-222.89 778.23,-245.36 820.16,-258.73"/>
<polygon fill="#5d6972" stroke="#5d6972" stroke-width="1.2" points="819.48,-261.08 826.89,-260.88 820.97,-256.42 819.48,-261.08"/>
</g>
<!-- course__PHYS102B -->
<g id="node9" class="node">
<title>course__PHYS102B</title>
<g id="a_node9"><a xlink:href="../../../courses/PHYS102B.html" xlink:title="Collapsed in simplified view: PHYS102B: General Physics II | PHYS111: Introductory Physics II | PHYS130: Physics II" target="_top">
<path fill="#efd8cf" stroke="#1b2730" stroke-width="1.6" d="M1013,-270C1013,-270 975,-270 975,-270 969,-270 963,-264 963,-258 963,-258 963,-246 963,-246 963,-240 969,-234 975,-234 975,-234 1013,-234 1013,-234 1019,-234 1025,-240 1025,-246 1025,-246 1025,-258 1025,-258 1025,-264 1019,-270 1013,-270"/>
<text text-anchor="middle" x="994" y="-249.5" font-family="Avenir Next" font-size="10.00" fill="#17232b">Physics II</text>
</a>
</g>
</g>
<!-- course__MATH100&#45;&gt;course__PHYS102B -->
<g id="edge23" class="edge">
<title>course__MATH100&#45;&gt;course__PHYS102B</title>
<path fill="none" stroke="#5d6972" stroke-width="1.2" d="M626.48,-207.05C664.37,-233.18 739.63,-280.37 812,-298 850.43,-307.36 862.5,-307.09 901,-298 921.25,-293.22 942.13,-283.26 958.87,-273.83"/>
<polygon fill="#5d6972" stroke="#5d6972" stroke-width="1.2" points="960.47,-275.73 965.3,-270.11 958.02,-271.49 960.47,-275.73"/>
</g>
<!-- choice_EOS311_0_2 -->
<g id="node15" class="node">
<title>choice_EOS311_0_2</title>
<path fill="#fff7ee" stroke="#b7793f" stroke-width="1.1" d="M1009,-214C1009,-214 979,-214 979,-214 973,-214 967,-208 967,-202 967,-202 967,-190 967,-190 967,-184 973,-178 979,-178 979,-178 1009,-178 1009,-178 1015,-178 1021,-184 1021,-190 1021,-190 1021,-202 1021,-202 1021,-208 1015,-214 1009,-214"/>
<text text-anchor="middle" x="994" y="-193.8" font-family="Avenir Next" font-size="9.00">2 of</text>
</g>
<!-- course__MATH100&#45;&gt;choice_EOS311_0_2 -->
<g id="edge8" class="edge">
<title>course__MATH100&#45;&gt;choice_EOS311_0_2</title>
<path fill="none" stroke="#7a8389" d="M751.26,-183.73C799.13,-183.06 852.32,-183.36 901,-186 920.51,-187.06 942.25,-189.37 959.69,-191.5"/>
<polygon fill="#7a8389" stroke="#7a8389" points="959.64,-193.96 966.89,-192.4 960.25,-189.1 959.64,-193.96"/>
</g>
<!-- choice_EOS314_0_0 -->
<g id="node16" class="node">
<title>choice_EOS314_0_0</title>
<path fill="#fff7ee" stroke="#b7793f" stroke-width="1.1" d="M1009,-158C1009,-158 979,-158 979,-158 973,-158 967,-152 967,-146 967,-146 967,-134 967,-134 967,-128 973,-122 979,-122 979,-122 1009,-122 1009,-122 1015,-122 1021,-128 1021,-134 1021,-134 1021,-146 1021,-146 1021,-152 1015,-158 1009,-158"/>
<text text-anchor="middle" x="994" y="-137.8" font-family="Avenir Next" font-size="9.00">2 of</text>
</g>
<!-- course__MATH100&#45;&gt;choice_EOS314_0_0 -->
<g id="edge15" class="edge">
<title>course__MATH100&#45;&gt;choice_EOS314_0_0</title>
<path fill="none" stroke="#7a8389" d="M745.33,-171C822.98,-161.28 912.37,-150.09 959.64,-144.17"/>
<polygon fill="#7a8389" stroke="#7a8389" points="960.22,-146.57 966.86,-143.27 959.61,-141.71 960.22,-146.57"/>
</g>
<!-- course__CHEM245 -->
<g id="node7" class="node">
<title>course__CHEM245</title>
<g id="a_node7"><a xlink:href="../../../courses/CHEM245.html" xlink:title="CHEM245: Introduction to Thermodynamics" target="_top">
<path fill="#ead9b8" stroke="#1b2730" stroke-width="1.6" d="M1014,-368C1014,-368 974,-368 974,-368 968,-368 962,-362 962,-356 962,-356 962,-344 962,-344 962,-338 968,-332 974,-332 974,-332 1014,-332 1014,-332 1020,-332 1026,-338 1026,-344 1026,-344 1026,-356 1026,-356 1026,-362 1020,-368 1014,-368"/>
<text text-anchor="middle" x="994" y="-347.5" font-family="Avenir Next" font-size="10.00" fill="#17232b">CHEM245</text>
</a>
</g>
</g>
<!-- course__CHEM102&#45;&gt;course__CHEM245 -->
<g id="edge3" class="edge">
<title>course__CHEM102&#45;&gt;course__CHEM245</title>
<path fill="none" stroke="#5d6972" stroke-width="1.2" d="M888.59,-376.2C908.24,-371.27 933.79,-364.86 954.69,-359.61"/>
<polygon fill="#5d6972" stroke="#5d6972" stroke-width="1.2" points="955.4,-361.96 961.59,-357.88 954.2,-357.21 955.4,-361.96"/>
</g>
<!-- course__EOS240 -->
<g id="node8" class="node">
<title>course__EOS240</title>
<g id="a_node8"><a xlink:href="../../../courses/EOS240.html" xlink:title="EOS240: Geochemistry" target="_top">
<path fill="#d7e9ef" stroke="#1b2730" stroke-width="1.6" d="M1009,-508C1009,-508 979,-508 979,-508 973,-508 967,-502 967,-496 967,-496 967,-484 967,-484 967,-478 973,-472 979,-472 979,-472 1009,-472 1009,-472 1015,-472 1021,-478 1021,-484 1021,-484 1021,-496 1021,-496 1021,-502 1015,-508 1009,-508"/>
<text text-anchor="middle" x="994" y="-487.5" font-family="Avenir Next" font-size="10.00" fill="#17232b">EOS240</text>
</a>
</g>
</g>
<!-- course__CHEM102&#45;&gt;course__EOS240 -->
<g id="edge5" class="edge">
<title>course__CHEM102&#45;&gt;course__EOS240</title>
<path fill="none" stroke="#5d6972" stroke-width="1.2" d="M880.79,-402.22C903.77,-420.2 938.96,-447.73 963.8,-467.15"/>
<polygon fill="#5d6972" stroke="#5d6972" stroke-width="1.2" points="962.53,-469.28 969.56,-471.66 965.55,-465.42 962.53,-469.28"/>
</g>
<!-- course__EOS261 -->
<g id="node10" class="node">
<title>course__EOS261</title>
<g id="a_node10"><a xlink:href="../../../courses/EOS261.html" xlink:title="EOS261: The Climate System" target="_top">
<path fill="#d7e9ef" stroke="#1b2730" stroke-width="1.6" d="M1154,-381C1154,-381 1124,-381 1124,-381 1118,-381 1112,-375 1112,-369 1112,-369 1112,-357 1112,-357 1112,-351 1118,-345 1124,-345 1124,-345 1154,-345 1154,-345 1160,-345 1166,-351 1166,-357 1166,-357 1166,-369 1166,-369 1166,-375 1160,-381 1154,-381"/>
<text text-anchor="middle" x="1139" y="-360.5" font-family="Avenir Next" font-size="10.00" fill="#17232b">EOS261</text>
</a>
</g>
</g>
<!-- course__CHEM102&#45;&gt;course__EOS261 -->
<g id="edge6" class="edge">
<title>course__CHEM102&#45;&gt;course__EOS261</title>
<path fill="none" stroke="#5d6972" stroke-width="1.2" d="M888.61,-383.8C922.47,-383.37 978.16,-382.05 1026,-378 1052.64,-375.75 1082.65,-371.64 1104.89,-368.3"/>
<polygon fill="#5d6972" stroke="#5d6972" stroke-width="1.2" points="1105.28,-370.72 1111.83,-367.24 1104.54,-365.87 1105.28,-370.72"/>
</g>
<!-- course__EOS311 -->
<g id="node11" class="node">
<title>course__EOS311</title>
<g id="a_node11"><a xlink:href="../../../courses/EOS311.html" xlink:title="Equivalent or cross&#45;listed: BIOL311: Biological Oceanography | EOS311: Biological Oceanography" target="_top">
<path fill="#d7e9ef" stroke="#1b2730" stroke-width="1.6" d="M1179,-295C1179,-295 1099,-295 1099,-295 1093,-295 1087,-289 1087,-283 1087,-283 1087,-271 1087,-271 1087,-265 1093,-259 1099,-259 1099,-259 1179,-259 1179,-259 1185,-259 1191,-265 1191,-271 1191,-271 1191,-283 1191,-283 1191,-289 1185,-295 1179,-295"/>
<text text-anchor="middle" x="1139" y="-274.5" font-family="Avenir Next" font-size="10.00" fill="#17232b">BIOL311 / EOS311</text>
</a>
</g>
</g>
<!-- course__CHEM102&#45;&gt;course__EOS311 -->
<g id="edge10" class="edge">
<title>course__CHEM102&#45;&gt;course__EOS311</title>
<path fill="none" stroke="#5d6972" stroke-width="1.2" d="M883.46,-365.74C903.97,-352.05 933.74,-333.71 962,-322 999.81,-306.33 1044.51,-294.98 1079.4,-287.6"/>
<polygon fill="#5d6972" stroke="#5d6972" stroke-width="1.2" points="1080.34,-289.91 1086.69,-286.09 1079.34,-285.11 1080.34,-289.91"/>
</g>
<!-- course__EOS312 -->
<g id="node13" class="node">
<title>course__EOS312</title>
<g id="a_node13"><a xlink:href="../../../courses/EOS312.html" xlink:title="EOS312: Introductory Chemical Oceanography" target="_top">
<path fill="#d7e9ef" stroke="#1b2730" stroke-width="1.6" d="M1294,-337C1294,-337 1264,-337 1264,-337 1258,-337 1252,-331 1252,-325 1252,-325 1252,-313 1252,-313 1252,-307 1258,-301 1264,-301 1264,-301 1294,-301 1294,-301 1300,-301 1306,-307 1306,-313 1306,-313 1306,-325 1306,-325 1306,-331 1300,-337 1294,-337"/>
<text text-anchor="middle" x="1279" y="-316.5" font-family="Avenir Next" font-size="10.00" fill="#17232b">EOS312</text>
</a>
</g>
</g>
<!-- course__CHEM102&#45;&gt;course__EOS312 -->
<g id="edge14" class="edge">
<title>course__CHEM102&#45;&gt;course__EOS312</title>
<path fill="none" stroke="#5d6972" stroke-width="1.2" d="M888.66,-392.07C949.21,-406.16 1086.04,-430.24 1191,-391 1217.4,-381.13 1241.58,-359.64 1257.71,-342.7"/>
<polygon fill="#5d6972" stroke="#5d6972" stroke-width="1.2" points="1259.9,-343.94 1262.87,-337.15 1256.31,-340.61 1259.9,-343.94"/>
</g>
<!-- course__MATH101&#45;&gt;course__PHYS102B -->
<g id="edge24" class="edge">
<title>course__MATH101&#45;&gt;course__PHYS102B</title>
<path fill="none" stroke="#5d6972" stroke-width="1.2" d="M888.25,-222.62C908.31,-228.25 934.62,-235.63 955.85,-241.58"/>
<polygon fill="#5d6972" stroke="#5d6972" stroke-width="1.2" points="955.44,-244.01 962.84,-243.54 956.76,-239.29 955.44,-244.01"/>
</g>
<!-- course__MATH101&#45;&gt;choice_EOS311_0_2 -->
<g id="edge9" class="edge">
<title>course__MATH101&#45;&gt;choice_EOS311_0_2</title>
<path fill="none" stroke="#7a8389" d="M888.25,-209.92C909.57,-207.08 937.96,-203.31 959.8,-200.41"/>
<polygon fill="#7a8389" stroke="#7a8389" points="960.32,-202.81 966.93,-199.46 959.67,-197.96 960.32,-202.81"/>
</g>
<!-- course__MATH101&#45;&gt;choice_EOS314_0_0 -->
<g id="edge16" class="edge">
<title>course__MATH101&#45;&gt;choice_EOS314_0_0</title>
<path fill="none" stroke="#7a8389" d="M888.25,-197.21C909.85,-185.41 938.7,-169.66 960.65,-157.67"/>
<polygon fill="#7a8389" stroke="#7a8389" points="961.97,-159.74 966.93,-154.24 959.62,-155.44 961.97,-159.74"/>
</g>
<!-- course__PHYS102A&#45;&gt;course__PHYS102B -->
<g id="edge22" class="edge">
<title>course__PHYS102A&#45;&gt;course__PHYS102B</title>
<path fill="none" stroke="#5d6972" stroke-width="1.2" d="M886.24,-266.18C906.48,-263.49 933.76,-259.87 955.69,-256.96"/>
<polygon fill="#5d6972" stroke="#5d6972" stroke-width="1.2" points="956.28,-259.35 962.9,-256 955.63,-254.49 956.28,-259.35"/>
</g>
<!-- course__PHYS102B&#45;&gt;course__EOS261 -->
<g id="edge7" class="edge">
<title>course__PHYS102B&#45;&gt;course__EOS261</title>
<path fill="none" stroke="#5d6972" stroke-width="1.2" d="M1018.29,-270.08C1043.02,-289.27 1082.13,-319.63 1108.87,-340.39"/>
<polygon fill="#5d6972" stroke="#5d6972" stroke-width="1.2" points="1107.68,-342.57 1114.72,-344.93 1110.69,-338.7 1107.68,-342.57"/>
</g>
<!-- course__PHYS102B&#45;&gt;course__EOS311 -->
<g id="edge12" class="edge">
<title>course__PHYS102B&#45;&gt;course__EOS311</title>
<path fill="none" stroke="#5d6972" stroke-width="1.2" d="M1025.33,-257.3C1041.1,-260.06 1060.94,-263.53 1079.56,-266.78"/>
<polygon fill="#5d6972" stroke="#5d6972" stroke-width="1.2" points="1079.57,-269.27 1086.89,-268.06 1080.42,-264.45 1079.57,-269.27"/>
</g>
<!-- course__EOS314 -->
<g id="node12" class="node">
<title>course__EOS314</title>
<g id="a_node12"><a xlink:href="../../../courses/EOS314.html" xlink:title="EOS314: Descriptive Physical Oceanography" target="_top">
<path fill="#d7e9ef" stroke="#1b2730" stroke-width="1.6" d="M1154,-239C1154,-239 1124,-239 1124,-239 1118,-239 1112,-233 1112,-227 1112,-227 1112,-215 1112,-215 1112,-209 1118,-203 1124,-203 1124,-203 1154,-203 1154,-203 1160,-203 1166,-209 1166,-215 1166,-215 1166,-227 1166,-227 1166,-233 1160,-239 1154,-239"/>
<text text-anchor="middle" x="1139" y="-218.5" font-family="Avenir Next" font-size="10.00" fill="#17232b">EOS314</text>
</a>
</g>
</g>
<!-- course__PHYS102B&#45;&gt;course__EOS314 -->
<g id="edge18" class="edge">
<title>course__PHYS102B&#45;&gt;course__EOS314</title>
<path fill="none" stroke="#5d6972" stroke-width="1.2" d="M1025.33,-245.43C1048.61,-240.38 1080.72,-233.42 1104.71,-228.22"/>
<polygon fill="#5d6972" stroke="#5d6972" stroke-width="1.2" points="1105.24,-230.61 1111.56,-226.73 1104.2,-225.82 1105.24,-230.61"/>
</g>
<!-- course__EOS314&#45;&gt;course__EOS312 -->
<g id="edge13" class="edge">
<title>course__EOS314&#45;&gt;course__EOS312</title>
<path fill="none" stroke="#5d6972" stroke-width="1.2" d="M1166.2,-234.24C1174.33,-238.65 1183.19,-243.78 1191,-249 1212.57,-263.43 1235.37,-281.91 1252.22,-296.26"/>
<polygon fill="#5d6972" stroke="#5d6972" stroke-width="1.2" points="1250.78,-298.26 1257.69,-300.96 1253.97,-294.54 1250.78,-298.26"/>
</g>
<!-- MATH102_notes -->
<g id="node14" class="node">
<title>MATH102_notes</title>
<polygon fill="#fff7ee" stroke="#b7793f" stroke-width="1.1" points="321,-264 0,-264 0,-114 327,-114 327,-258 321,-264"/>
<polyline fill="none" stroke="#b7793f" stroke-width="1.1" points="321,-264 321,-258 "/>
<polyline fill="none" stroke="#b7793f" stroke-width="1.1" points="327,-258 321,-258 "/>
<text text-anchor="start" x="13" y="-244.4" font-family="Avenir Next" font-size="12.00">Published notes</text>
<text text-anchor="start" x="13" y="-231.4" font-family="Avenir Next" font-size="12.00">Earn a minimum grade of C in each of the</text>
<text text-anchor="start" x="13" y="-218.4" font-family="Avenir Next" font-size="12.00">following</text>
<text text-anchor="start" x="13" y="-205.4" font-family="Avenir Next" font-size="12.00">Pre&#45;Calculus 12</text>
<text text-anchor="start" x="13" y="-192.4" font-family="Avenir Next" font-size="12.00">Earn a minimum grade of C+ in each of the</text>
<text text-anchor="start" x="13" y="-179.4" font-family="Avenir Next" font-size="12.00">following</text>
<text text-anchor="start" x="13" y="-166.4" font-family="Avenir Next" font-size="12.00">Completed Pre&#45;Calculus 12 with a minimum grade</text>
<text text-anchor="start" x="13" y="-153.4" font-family="Avenir Next" font-size="12.00">of B (73%)</text>
<text text-anchor="start" x="13" y="-140.4" font-family="Avenir Next" font-size="12.00">or permission of the department</text>
<text text-anchor="start" x="13" y="-127.4" font-family="Avenir Next" font-size="12.00">permission of the department</text>
</g>
<!-- MATH102_notes&#45;&gt;course__MATH100 -->
<!-- choice_EOS311_0_2&#45;&gt;course__EOS311 -->
<g id="edge11" class="edge">
<title>choice_EOS311_0_2&#45;&gt;course__EOS311</title>
<path fill="none" stroke="#5d6972" stroke-width="1.2" d="M1021.09,-211.22C1039.46,-221.89 1064.67,-236.44 1087,-249 1090.76,-251.11 1094.68,-253.3 1098.6,-255.47"/>
<polygon fill="#5d6972" stroke="#5d6972" stroke-width="1.2" points="1097.44,-257.63 1104.75,-258.87 1099.81,-253.34 1097.44,-257.63"/>
</g>
<!-- choice_EOS314_0_0&#45;&gt;course__EOS314 -->
<g id="edge17" class="edge">
<title>choice_EOS314_0_0&#45;&gt;course__EOS314</title>
<path fill="none" stroke="#5d6972" stroke-width="1.2" d="M1021.23,-154.86C1045.01,-168.33 1080.16,-188.24 1105.67,-202.69"/>
<polygon fill="#5d6972" stroke="#5d6972" stroke-width="1.2" points="1104.64,-204.92 1111.94,-206.24 1107.05,-200.66 1104.64,-204.92"/>
</g>
</g>
</svg>
