<?xml version="1.0" encoding="UTF-8" standalone="no"?>
<!DOCTYPE svg PUBLIC "-//W3C//DTD SVG 1.1//EN"
 "http://www.w3.org/Graphics/SVG/1.1/DTD/svg11.dtd">
<!-- Generated by graphviz version 2.43.0 (0)
 -->
<!-- Title: MATH109 Pages: 1 -->
<svg width="730pt" height="551pt"
 viewBox="0.00 0.00 730.20 551.20" xmlns="http://www.w3.org/2000/svg" xmlns:xlink="http://www.w3.org/1999/xlink">
<g id="graph0" class="graph" transform="scale(1 1) rotate(0) translate(21.6 529.6)">
<title>MATH109</title>
<!-- course__MATH100 -->
<g id="node1" class="node">
<title>course__MATH100</title>
<g id="a_node1"><a xlink:href="../../../courses/MATH109.html" xlink:title="Collapsed in simplified view: MATH100: Calculus I | MATH102: Calculus for Students in the Social and Biological Sciences | MATH109: Introduction to Calculus" target="_top">
<path fill="#dfe3f4" stroke="#1f4f66" stroke-width="2" d="M120,-207C120,-207 12,-207 12,-207 6,-207 0,-201 0,-195 0,-195 0,-183 0,-183 0,-177 6,-171 12,-171 12,-171 120,-171 120,-171 126,-171 132,-177 132,-183 132,-183 132,-195 132,-195 132,-201 126,-207 120,-207"/>
<text text-anchor="middle" x="66" y="-192" font-family="Avenir Next" font-size="10.00" fill="#17232b">Calculus I</text>
<text text-anchor="middle" x="66" y="-181" font-family="Avenir Next" font-size="10.00" fill="#17232b">Introduction to Calculus</text>
</a>
</g>
</g>
<!-- course__CHEM102 -->
<g id="node2" class="node">
<title>course__CHEM102</title>
<g id="a_node2"><a xlink:href="../../../courses/CHEM102.html" xlink:title="CHEM102: Chemical Reactivity Fundamentals with Environmental Applications" target="_top">
<path fill="#ead9b8" stroke="#1b2730" stroke-width="1.6" d="M257.5,-401C257.5,-401 217.5,-401 217.5,-401 211.5,-401 205.5,-395 205.5,-389 205.5,-389 205.5,-377 205.5,-377 205.5,-371 211.5,-365 217.5,-365 217.5,-365 257.5,-365 257.5,-365 263.5,-365 269.5,-371 269.5,-377 269.5,-377 269.5,-389 269.5,-389 269.5,-395 263.5,-401 257.5,-401"/>
<text text-anchor="middle" x="237.5" y="-380.5" font-family="Avenir Next" font-size="10.00" fill="#17232b">CHEM102</text>
</a>
</g>
</g>
<!-- course__MATH100&#45;&gt;course__CHEM102 -->
<g id="edge1" class="edge">
<title>course__MATH100&#45;&gt;course__CHEM102</title>
<path fill="none" stroke="#5d6972" stroke-width="1.2" d="M82.38,-207.1C105.98,-234.82 152.63,-289.35 193,-335 200.14,-343.08 208.04,-351.84 215.12,-359.63"/>
<polygon fill="#5d6972" stroke="#5d6972" stroke-width="1.2" points="213.35,-361.33 219.87,-364.86 216.97,-358.03 213.35,-361.33"/>
</g>
<!-- course__CSC110 -->
<g id="node3" class="node">
<title>course__CSC110</title>
<g id="a_node3"><a xlink:href="../../../courses/CSC110.html" xlink:title="Collapsed in simplified view: CSC110: Fundamentals of Programming I | CSC111: Fundamentals of Programming with Engineering Applications" target="_top">
<path fill="#e7ddec" stroke="#1b2730" stroke-width="1.6" d="M270,-92C270,-92 205,-92 205,-92 199,-92 193,-86 193,-80 193,-80 193,-68 193,-68 193,-62 199,-56 205,-56 205,-56 270,-56 270,-56 276,-56 282,-62 282,-68 282,-68 282,-80 282,-80 282,-86 276,-92 270,-92"/>
<text text-anchor="middle" x="237.5" y="-71.5" font-family="Avenir Next" font-size="10.00" fill="#17232b">Programming I</text>
</a>
</g>
</g>
<!-- course__MATH100&#45;&gt;course__CSC110 -->
<g id="edge3" class="edge">
<title>course__MATH100&#45;&gt;course__CSC110</title>
<path fill="none" stroke="#5d6972" stroke-width="1.2" d="M93.86,-170.78C123.61,-150.59 171.6,-118.03 203.59,-96.33"/>
<polygon fill="#5d6972" stroke="#5d6972" stroke-width="1.2" points="205.35,-98.09 209.77,-92.14 202.6,-94.04 205.35,-98.09"/>
</g>
<!-- course__MATH101 -->
<g id="node4" class="node">
<title>course__MATH101</title>
<g id="a_node4"><a xlink:href="../../../courses/MATH101.html" xlink:title="MATH101: Calculus II" target="_top">
<path fill="#dfe3f4" stroke="#1b2730" stroke-width="1.6" d="M257,-232C257,-232 218,-232 218,-232 212,-232 206,-226 206,-220 206,-220 206,-208 206,-208 206,-202 212,-196 218,-196 218,-196 257,-196 257,-196 263,-196 269,-202 269,-208 269,-208 269,-220 269,-220 269,-226 263,-232 257,-232"/>
<text text-anchor="middle" x="237.5" y="-211.5" font-family="Avenir Next" font-size="10.00" fill="#17232b">MATH101</text>
</a>
</g>
</g>
<!-- course__MATH100&#45;&gt;course__MATH101 -->
<g id="edge18" class="edge">
<title>course__MATH100&#45;&gt;course__MATH101</title>
<path fill="none" stroke="#5d6972" stroke-width="1.2" d="M132.05,-198.59C154.66,-201.93 179.26,-205.56 198.9,-208.45"/>
<polygon fill="#5d6972" stroke="#5d6972" stroke-width="1.2" points="198.62,-210.89 205.9,-209.49 199.34,-206.04 198.62,-210.89"/>
</g>
<!-- course__MATH211 -->
<g id="node5" class="node">
<title>course__MATH211</title>
<g id="a_node5"><a xlink:href="../../../courses/MATH211.html" xlink:title="MATH211: Matrix Algebra I" target="_top">
<path fill="#dfe3f4" stroke="#1b2730" stroke-width="1.6" d="M257,-36C257,-36 218,-36 218,-36 212,-36 206,-30 206,-24 206,-24 206,-12 206,-12 206,-6 212,0 218,0 218,0 257,0 257,0 263,0 269,-6 269,-12 269,-12 269,-24 269,-24 269,-30 263,-36 257,-36"/>
<text text-anchor="middle" x="237.5" y="-15.5" font-family="Avenir Next" font-size="10.00" fill="#17232b">MATH211</text>
</a>
</g>
</g>
<!-- course__MATH100&#45;&gt;course__MATH211 -->
<g id="edge19" class="edge">
<title>course__MATH100&#45;&gt;course__MATH211</title>
<path fill="none" stroke="#5d6972" stroke-width="1.2" d="M80.34,-170.85C101.94,-142.2 146.84,-85.7 193,-46 195.22,-44.09 197.58,-42.21 200.01,-40.39"/>
<polygon fill="#5d6972" stroke="#5d6972" stroke-width="1.2" points="201.52,-42.32 205.78,-36.24 198.66,-38.34 201.52,-42.32"/>
</g>
<!-- course__PHYS102A -->
<g id="node6" class="node">
<title>course__PHYS102A</title>
<g id="a_node6"><a xlink:href="../../../courses/PHYS102A.html" xlink:title="Collapsed in simplified view: PHYS102A: General Physics I | PHYS110: Introductory Physics I | PHYS120: Physics I" target="_top">
<path fill="#efd8cf" stroke="#1b2730" stroke-width="1.6" d="M255,-288C255,-288 220,-288 220,-288 214,-288 208,-282 208,-276 208,-276 208,-264 208,-264 208,-258 214,-252 220,-252 220,-252 255,-252 255,-252 261,-252 267,-258 267,-264 267,-264 267,-276 267,-276 267,-282 261,-288 255,-288"/>
<text text-anchor="middle" x="237.5" y="-267.5" font-family="Avenir Next" font-size="10.00" fill="#17232b">Physics I</text>
</a>
</g>
</g>
<!-- course__MATH100&#45;&gt;course__PHYS102A -->
<g id="edge20" class="edge">
<title>course__MATH100&#45;&gt;course__PHYS102A</title>
<path fill="none" stroke="#5d6972" stroke-width="1.2" d="M105.04,-207.18C133.86,-220.95 173.17,-239.74 201.28,-253.17"/>
<polygon fill="#5d6972" stroke="#5d6972" stroke-width="1.2" points="200.44,-255.49 207.82,-256.29 202.56,-251.06 200.44,-255.49"/>
</g>
<!-- course__PHYS102B -->
<g id="node9" class="node">
<title>course__PHYS102B</title>
<g id="a_node9"><a xlink:href="../../../courses/PHYS102B.html" xlink:title="Collapsed in simplified view: PHYS102B: General Physics II | PHYS111: Introductory Physics II | PHYS130: Physics II" target="_top">
<path fill="#efd8cf" stroke="#1b2730" stroke-width="1.6" d="M394,-270C394,-270 356,-270 356,-270 350,-270 344,-264 344,-258 344,-258 344,-246 344,-246 344,-240 350,-234 356,-234 356,-234 394,-234 394,-234 400,-234 406,-240 406,-246 406,-246 406,-258 406,-258 406,-264 400,-270 394,-270"/>
<text text-anchor="middle" x="375" y="-249.5" font-family="Avenir Next" font-size="10.00" fill="#17232b">Physics II</text>
</a>
</g>
</g>
<!-- course__MATH100&#45;&gt;course__PHYS102B -->
<g id="edge22" class="edge">
<title>course__MATH100&#45;&gt;course__PHYS102B</title>
<path fill="none" stroke="#5d6972" stroke-width="1.2" d="M80.82,-207.31C101.74,-233.32 144.21,-279.83 193,-298 230.07,-311.81 243.5,-307.09 282,-298 302.25,-293.22 323.13,-283.26 339.87,-273.83"/>
<polygon fill="#5d6972" stroke="#5d6972" stroke-width="1.2" points="341.47,-275.73 346.3,-270.11 339.02,-271.49 341.47,-275.73"/>
</g>
<!-- choice_EOS311_0_2 -->
<g id="node14" class="node">
<title>choice_EOS311_0_2</title>
<path fill="#fff7ee" stroke="#b7793f" stroke-width="1.1" d="M390,-214C390,-214 360,-214 360,-214 354,-214 348,-208 348,-202 348,-202 348,-190 348,-190 348,-184 354,-178 360,-178 360,-178 390,-178 390,-178 396,-178 402,-184 402,-190 402,-190 402,-202 402,-202 402,-208 396,-214 390,-214"/>
<text text-anchor="middle" x="375" y="-193.8" font-family="Avenir Next" font-size="9.00">2 of</text>
</g>
<!-- course__MATH100&#45;&gt;choice_EOS311_0_2 -->
<g id="edge7" class="edge">
<title>course__MATH100&#45;&gt;choice_EOS311_0_2</title>
<path fill="none" stroke="#7a8389" d="M132.44,-185.78C175.06,-184.25 231.86,-183.28 282,-186 301.51,-187.06 323.25,-189.37 340.69,-191.5"/>
<polygon fill="#7a8389" stroke="#7a8389" points="340.64,-193.96 347.89,-192.4 341.25,-189.1 340.64,-193.96"/>
</g>
<!-- choice_EOS314_0_0 -->
<g id="node15" class="node">
<title>choice_EOS314_0_0</title>
<path fill="#fff7ee" stroke="#b7793f" stroke-width="1.1" d="M390,-158C390,-158 360,-158 360,-158 354,-158 348,-152 348,-146 348,-146 348,-134 348,-134 348,-128 354,-122 360,-122 360,-122 390,-122 390,-122 396,-122 402,-128 402,-134 402,-134 402,-146 402,-146 402,-152 396,-158 390,-158"/>
<text text-anchor="middle" x="375" y="-137.8" font-family="Avenir Next" font-size="9.00">2 of</text>
</g>
<!-- course__MATH100&#45;&gt;choice_EOS314_0_0 -->
<g id="edge14" class="edge">
<title>course__MATH100&#45;&gt;choice_EOS314_0_0</title>
<path fill="none" stroke="#7a8389" d="M132.11,-178.61C196.02,-168.41 290.96,-153.25 340.76,-145.31"/>
<polygon fill="#7a8389" stroke="#7a8389" points="341.24,-147.71 347.77,-144.19 340.47,-142.87 341.24,-147.71"/>
</g>
<!-- course__CHEM245 -->
<g id="node7" class="node">
<title>course__CHEM245</title>
<g id="a_node7"><a xlink:href="../../../courses/CHEM245.html" xlink:title="CHEM245: Introduction to Thermodynamics" target="_top">
<path fill="#ead9b8" stroke="#1b2730" stroke-width="1.6" d="M395,-368C395,-368 355,-368 355,-368 349,-368 343,-362 343,-356 343,-356 343,-344 343,-344 343,-338 349,-332 355,-332 355,-332 395,-332 395,-332 401,-332 407,-338 407,-344 407,-344 407,-356 407,-356 407,-362 401,-368 395,-368"/>
<text text-anchor="middle" x="375" y="-347.5" font-family="Avenir Next" font-size="10.00" fill="#17232b">CHEM245</text>
</a>
</g>
</g>
<!-- course__CHEM102&#45;&gt;course__CHEM245 -->
<g id="edge2" class="edge">
<title>course__CHEM102&#45;&gt;course__CHEM245</title>
<path fill="none" stroke="#5d6972" stroke-width="1.2" d="M269.59,-375.43C289.24,-370.64 314.79,-364.42 335.69,-359.33"/>
<polygon fill="#5d6972" stroke="#5d6972" stroke-width="1.2" points="336.37,-361.69 342.59,-357.65 335.21,-356.93 336.37,-361.69"/>
</g>
<!-- course__EOS240 -->
<g id="node8" class="node">
<title>course__EOS240</title>
<g id="a_node8"><a xlink:href="../../../courses/EOS240.html" xlink:title="EOS240: Geochemistry" target="_top">
<path fill="#d7e9ef" stroke="#1b2730" stroke-width="1.6" d="M390,-508C390,-508 360,-508 360,-508 354,-508 348,-502 348,-496 348,-496 348,-484 348,-484 348,-478 354,-472 360,-472 360,-472 390,-472 390,-472 396,-472 402,-478 402,-484 402,-484 402,-496 402,-496 402,-502 396,-508 390,-508"/>
<text text-anchor="middle" x="375" y="-487.5" font-family="Avenir Next" font-size="10.00" fill="#17232b">EOS240</text>
</a>
</g>
</g>
<!-- course__CHEM102&#45;&gt;course__EOS240 -->
<g id="edge4" class="edge">
<title>course__CHEM102&#45;&gt;course__EOS240</title>
<path fill="none" stroke="#5d6972" stroke-width="1.2" d="M261.49,-401.15C284.55,-419.37 320.15,-447.48 345.11,-467.19"/>
<polygon fill="#5d6972" stroke="#5d6972" stroke-width="1.2" points="343.89,-469.34 350.9,-471.76 346.93,-465.5 343.89,-469.34"/>
</g>
<!-- course__EOS261 -->
<g id="node10" class="node">
<title>course__EOS261</title>
<g id="a_node10"><a xlink:href="../../../courses/EOS261.html" xlink:title="EOS261: The Climate System" target="_top">
<path fill="#d7e9ef" stroke="#1b2730" stroke-width="1.6" d="M535,-381C535,-381 505,-381 505,-381 499,-381 493,-375 493,-369 493,-369 493,-357 493,-357 493,-351 499,-345 505,-345 505,-345 535,-345 535,-345 541,-345 547,-351 547,-357 547,-357 547,-369 547,-369 547,-375 541,-381 535,-381"/>
<text text-anchor="middle" x="520" y="-360.5" font-family="Avenir Next" font-size="10.00" fill="#17232b">EOS261</text>
</a>
</g>
</g>
<!-- course__CHEM102&#45;&gt;course__EOS261 -->
<g id="edge5" class="edge">
<title>course__CHEM102&#45;&gt;course__EOS261</title>
<path fill="none" stroke="#5d6972" stroke-width="1.2" d="M269.61,-383.04C303.46,-382.86 359.16,-381.9 407,-378 433.64,-375.83 463.65,-371.72 485.9,-368.35"/>
<polygon fill="#5d6972" stroke="#5d6972" stroke-width="1.2" points="486.28,-370.77 492.83,-367.28 485.54,-365.92 486.28,-370.77"/>
</g>
<!-- course__EOS311 -->
<g id="node11" class="node">
<title>course__EOS311</title>
<g id="a_node11"><a xlink:href="../../../courses/EOS311.html" xlink:title="Equivalent or cross&#45;listed: BIOL311: Biological Oceanography | EOS311: Biological Oceanography" target="_top">
<path fill="#d7e9ef" stroke="#1b2730" stroke-width="1.6" d="M560,-295C560,-295 480,-295 480,-295 474,-295 468,-289 468,-283 468,-283 468,-271 468,-271 468,-265 474,-259 480,-259 480,-259 560,-259 560,-259 566,-259 572,-265 572,-271 572,-271 572,-283 572,-283 572,-289 566,-295 560,-295"/>
<text text-anchor="middle" x="520" y="-274.5" font-family="Avenir Next" font-size="10.00" fill="#17232b">BIOL311 / EOS311</text>
</a>
</g>
</g>
<!-- course__CHEM102&#45;&gt;course__EOS311 -->
<g id="edge9" class="edge">
<title>course__CHEM102&#45;&gt;course__EOS311</title>
<path fill="none" stroke="#5d6972" stroke-width="1.2" d="M264.93,-364.78C285.45,-351.35 315.01,-333.48 343,-322 380.86,-306.46 425.57,-295.12 460.44,-287.7"/>
<polygon fill="#5d6972" stroke="#5d6972" stroke-width="1.2" points="461.38,-290.01 467.73,-286.18 460.38,-285.21 461.38,-290.01"/>
</g>
<!-- course__EOS312 -->
<g id="node13" class="node">
<title>course__EOS312</title>
<g id="a_node13"><a xlink:href="../../../courses/EOS312.html" xlink:title="EOS312: Introductory Chemical Oceanography" target="_top">
<path fill="#d7e9ef" stroke="#1b2730" stroke-width="1.6" d="M675,-337C675,-337 645,-337 645,-337 639,-337 633,-331 633,-325 633,-325 633,-313 633,-313 633,-307 639,-301 645,-301 645,-301 675,-301 675,-301 681,-301 687,-307 687,-313 687,-313 687,-325 687,-325 687,-331 681,-337 675,-337"/>
<text text-anchor="middle" x="660" y="-316.5" font-family="Avenir Next" font-size="10.00" fill="#17232b">EOS312</text>
</a>
</g>
</g>
<!-- course__CHEM102&#45;&gt;course__EOS312 -->
<g id="edge13" class="edge">
<title>course__CHEM102&#45;&gt;course__EOS312</title>
<path fill="none" stroke="#5d6972" stroke-width="1.2" d="M269.66,-391.22C330.21,-405.59 467.03,-430.25 572,-391 598.4,-381.13 622.58,-359.64 638.71,-342.7"/>
<polygon fill="#5d6972" stroke="#5d6972" stroke-width="1.2" points="640.9,-343.94 643.87,-337.15 637.31,-340.61 640.9,-343.94"/>
</g>
<!-- course__MATH101&#45;&gt;course__PHYS102B -->
<g id="edge23" class="edge">
<title>course__MATH101&#45;&gt;course__PHYS102B</title>
<path fill="none" stroke="#5d6972" stroke-width="1.2" d="M269.25,-222.62C289.31,-228.25 315.62,-235.63 336.85,-241.58"/>
<polygon fill="#5d6972" stroke="#5d6972" stroke-width="1.2" points="336.44,-244.01 343.84,-243.54 337.76,-239.29 336.44,-244.01"/>
</g>
<!-- course__MATH101&#45;&gt;choice_EOS311_0_2 -->
<g id="edge8" class="edge">
<title>course__MATH101&#45;&gt;choice_EOS311_0_2</title>
<path fill="none" stroke="#7a8389" d="M269.25,-209.92C290.57,-207.08 318.96,-203.31 340.8,-200.41"/>
<polygon fill="#7a8389" stroke="#7a8389" points="341.32,-202.81 347.93,-199.46 340.67,-197.96 341.32,-202.81"/>
</g>
<!-- course__MATH101&#45;&gt;choice_EOS314_0_0 -->
<g id="edge15" class="edge">
<title>course__MATH101&#45;&gt;choice_EOS314_0_0</title>
<path fill="none" stroke="#7a8389" d="M269.25,-197.21C290.85,-185.41 319.7,-169.66 341.65,-157.67"/>
<polygon fill="#7a8389" stroke="#7a8389" points="342.97,-159.74 347.93,-154.24 340.62,-155.44 342.97,-159.74"/>
</g>
<!-- course__PHYS102A&#45;&gt;course__PHYS102B -->
<g id="edge21" class="edge">
<title>course__PHYS102A&#45;&gt;course__PHYS102B</title>
<path fill="none" stroke="#5d6972" stroke-width="1.2" d="M267.24,-266.18C287.48,-263.49 314.76,-259.87 336.69,-256.96"/>
<polygon fill="#5d6972" stroke="#5d6972" stroke-width="1.2" points="337.28,-259.35 343.9,-256 336.63,-254.49 337.28,-259.35"/>
</g>
<!-- course__PHYS102B&#45;&gt;course__EOS261 -->
<g id="edge6" class="edge">
<title>course__PHYS102B&#45;&gt;course__EOS261</title>
<path fill="none" stroke="#5d6972" stroke-width="1.2" d="M399.29,-270.08C424.02,-289.27 463.13,-319.63 489.87,-340.39"/>
<polygon fill="#5d6972" stroke="#5d6972" stroke-width="1.2" points="488.68,-342.57 495.72,-344.93 491.69,-338.7 488.68,-342.57"/>
</g>
<!-- course__PHYS102B&#45;&gt;course__EOS311 -->
<g id="edge11" class="edge">
<title>course__PHYS102B&#45;&gt;course__EOS311</title>
<path fill="none" stroke="#5d6972" stroke-width="1.2" d="M406.33,-257.3C422.1,-260.06 441.94,-263.53 460.56,-266.78"/>
<polygon fill="#5d6972" stroke="#5d6972" stroke-width="1.2" points="460.57,-269.27 467.89,-268.06 461.42,-264.45 460.57,-269.27"/>
</g>
<!-- course__EOS314 -->
<g id="node12" class="node">
<title>course__EOS314</title>
<g id="a_node12"><a xlink:href="../../../courses/EOS314.html" xlink:title="EOS314: Descriptive Physical Oceanography" target="_top">
<path fill="#d7e9ef" stroke="#1b2730" stroke-width="1.6" d="M535,-239C535,-239 505,-239 505,-239 499,-239 493,-233 493,-227 493,-227 493,-215 493,-215 493,-209 499,-203 505,-203 505,-203 535,-203 535,-203 541,-203 547,-209 547,-215 547,-215 547,-227 547,-227 547,-233 541,-239 535,-239"/>
<text text-anchor="middle" x="520" y="-218.5" font-family="Avenir Next" font-size="10.00" fill="#17232b">EOS314</text>
</a>
</g>
</g>
<!-- course__PHYS102B&#45;&gt;course__EOS314 -->
<g id="edge17" class="edge">
<title>course__PHYS102B&#45;&gt;course__EOS314</title>
<path fill="none" stroke="#5d6972" stroke-width="1.2" d="M406.33,-245.43C429.61,-240.38 461.72,-233.42 485.71,-228.22"/>
<polygon fill="#5d6972" stroke="#5d6972" stroke-width="1.2" points="486.24,-230.61 492.56,-226.73 485.2,-225.82 486.24,-230.61"/>
</g>
<!-- course__EOS314&#45;&gt;course__EOS312 -->
<g id="edge12" class="edge">
<title>course__EOS314&#45;&gt;course__EOS312</title>
<path fill="none" stroke="#5d6972" stroke-width="1.2" d="M547.2,-234.24C555.33,-238.65 564.19,-243.78 572,-249 593.57,-263.43 616.37,-281.91 633.22,-296.26"/>
<polygon fill="#5d6972" stroke="#5d6972" stroke-width="1.2" points="631.78,-298.26 638.69,-300.96 634.97,-294.54 631.78,-298.26"/>
</g>
<!-- choice_EOS311_0_2&#45;&gt;course__EOS311 -->
<g id="edge10" class="edge">
<title>choice_EOS311_0_2&#45;&gt;course__EOS311</title>
<path fill="none" stroke="#5d6972" stroke-width="1.2" d="M402.09,-211.22C420.46,-221.89 445.67,-236.44 468,-249 471.76,-251.11 475.68,-253.3 479.6,-255.47"/>
<polygon fill="#5d6972" stroke="#5d6972" stroke-width="1.2" points="478.44,-257.63 485.75,-258.87 480.81,-253.34 478.44,-257.63"/>
</g>
<!-- choice_EOS314_0_0&#45;&gt;course__EOS314 -->
<g id="edge16" class="edge">
<title>choice_EOS314_0_0&#45;&gt;course__EOS314</title>
<path fill="none" stroke="#5d6972" stroke-width="1.2" d="M402.23,-154.86C426.01,-168.33 461.16,-188.24 486.67,-202.69"/>
<polygon fill="#5d6972" stroke="#5d6972" stroke-width="1.2" points="485.64,-204.92 492.94,-206.24 488.05,-200.66 485.64,-204.92"/>
</g>
</g>
</svg>
