<?xml version="1.0" encoding="UTF-8" standalone="no"?>
<!DOCTYPE svg PUBLIC "-//W3C//DTD SVG 1.1//EN"
 "http://www.w3.org/Graphics/SVG/1.1/DTD/svg11.dtd">
<!-- Generated by graphviz version 2.43.0 (0)
 -->
<!-- Title: MATH341 Pages: 1 -->
<svg width="1037pt" height="177pt"
 viewBox="0.00 0.00 1037.20 177.20" xmlns="http://www.w3.org/2000/svg" xmlns:xlink="http://www.w3.org/1999/xlink">
<g id="graph0" class="graph" transform="scale(1 1) rotate(0) translate(21.6 155.6)">
<title>MATH341</title>
<!-- course__MATH100 -->
<g id="node1" class="node">
<title>course__MATH100</title>
<g id="a_node1"><a xlink:href="../../../courses/MATH100.html" xlink:title="Equivalent or cross&#45;listed: MATH100: Calculus I | MATH102: Calculus for Students in the Social and Biological Sciences | MATH109: Introduction to Calculus" target="_top">
<path fill="#dfe3f4" stroke="#7e8d96" d="M99,-109C99,-109 12,-109 12,-109 6,-109 0,-103 0,-97 0,-97 0,-85 0,-85 0,-79 6,-73 12,-73 12,-73 99,-73 99,-73 105,-73 111,-79 111,-85 111,-85 111,-97 111,-97 111,-103 105,-109 99,-109"/>
<text text-anchor="middle" x="55.5" y="-93.8" font-family="Avenir Next" font-size="9.00" fill="#41515b">MATH100 / MATH102</text>
<text text-anchor="middle" x="55.5" y="-83.8" font-family="Avenir Next" font-size="9.00" fill="#41515b">MATH109</text>
</a>
</g>
</g>
<!-- course__MATH101 -->
<g id="node2" class="node">
<title>course__MATH101</title>
<g id="a_node2"><a xlink:href="../../../courses/MATH101.html" xlink:title="MATH101: Calculus II" target="_top">
<path fill="#dfe3f4" stroke="#7e8d96" d="M219,-134C219,-134 184,-134 184,-134 178,-134 172,-128 172,-122 172,-122 172,-110 172,-110 172,-104 178,-98 184,-98 184,-98 219,-98 219,-98 225,-98 231,-104 231,-110 231,-110 231,-122 231,-122 231,-128 225,-134 219,-134"/>
<text text-anchor="middle" x="201.5" y="-113.8" font-family="Avenir Next" font-size="9.00" fill="#41515b">MATH101</text>
</a>
</g>
</g>
<!-- course__MATH100&#45;&gt;course__MATH101 -->
<g id="edge1" class="edge">
<title>course__MATH100&#45;&gt;course__MATH101</title>
<path fill="none" stroke="#5d6972" stroke-width="1.2" d="M111.35,-100.52C129.27,-103.63 148.7,-107.01 164.83,-109.81"/>
<polygon fill="#5d6972" stroke="#5d6972" stroke-width="1.2" points="164.67,-112.27 171.99,-111.05 165.51,-107.44 164.67,-112.27"/>
</g>
<!-- choice_MATH211_0 -->
<g id="node9" class="node">
<title>choice_MATH211_0</title>
<path fill="#fff7ee" stroke="#b7793f" stroke-width="1.1" d="M506,-78C506,-78 476,-78 476,-78 470,-78 464,-72 464,-66 464,-66 464,-54 464,-54 464,-48 470,-42 476,-42 476,-42 506,-42 506,-42 512,-42 518,-48 518,-54 518,-54 518,-66 518,-66 518,-72 512,-78 506,-78"/>
<text text-anchor="middle" x="491" y="-57.8" font-family="Avenir Next" font-size="9.00">1 of</text>
</g>
<!-- course__MATH100&#45;&gt;choice_MATH211_0 -->
<g id="edge4" class="edge">
<title>course__MATH100&#45;&gt;choice_MATH211_0</title>
<path fill="none" stroke="#7a8389" d="M111.4,-87.07C202.48,-80.56 382.14,-67.71 456.53,-62.39"/>
<polygon fill="#7a8389" stroke="#7a8389" points="457.01,-64.82 463.81,-61.87 456.66,-59.93 457.01,-64.82"/>
</g>
<!-- course__MATH200 -->
<g id="node4" class="node">
<title>course__MATH200</title>
<g id="a_node4"><a xlink:href="../../../courses/MATH200.html" xlink:title="Equivalent or cross&#45;listed: MATH200: Calculus III | MATH202: Intermediate Calculus for CSC and EOS" target="_top">
<path fill="#dfe3f4" stroke="#7e8d96" d="M391,-134C391,-134 304,-134 304,-134 298,-134 292,-128 292,-122 292,-122 292,-110 292,-110 292,-104 298,-98 304,-98 304,-98 391,-98 391,-98 397,-98 403,-104 403,-110 403,-110 403,-122 403,-122 403,-128 397,-134 391,-134"/>
<text text-anchor="middle" x="347.5" y="-113.8" font-family="Avenir Next" font-size="9.00" fill="#41515b">MATH200 / MATH202</text>
</a>
</g>
</g>
<!-- course__MATH101&#45;&gt;course__MATH200 -->
<g id="edge2" class="edge">
<title>course__MATH101&#45;&gt;course__MATH200</title>
<path fill="none" stroke="#5d6972" stroke-width="1.2" d="M231.29,-116C246.58,-116 266,-116 284.51,-116"/>
<polygon fill="#5d6972" stroke="#5d6972" stroke-width="1.2" points="284.82,-118.45 291.82,-116 284.82,-113.55 284.82,-118.45"/>
</g>
<!-- course__MATH151 -->
<g id="node3" class="node">
<title>course__MATH151</title>
<g id="a_node3"><a xlink:href="../../../courses/MATH151.html" xlink:title="MATH151: Finite Mathematics" target="_top">
<path fill="#dfe3f4" stroke="#7e8d96" d="M365,-36C365,-36 330,-36 330,-36 324,-36 318,-30 318,-24 318,-24 318,-12 318,-12 318,-6 324,0 330,0 330,0 365,0 365,0 371,0 377,-6 377,-12 377,-12 377,-24 377,-24 377,-30 371,-36 365,-36"/>
<text text-anchor="middle" x="347.5" y="-15.8" font-family="Avenir Next" font-size="9.00" fill="#41515b">MATH151</text>
</a>
</g>
</g>
<!-- course__MATH151&#45;&gt;choice_MATH211_0 -->
<g id="edge5" class="edge">
<title>course__MATH151&#45;&gt;choice_MATH211_0</title>
<path fill="none" stroke="#7a8389" d="M377.13,-26.5C400.21,-33.35 432.69,-42.99 456.89,-50.17"/>
<polygon fill="#7a8389" stroke="#7a8389" points="456.39,-52.58 463.79,-52.22 457.78,-47.88 456.39,-52.58"/>
</g>
<!-- course__MATH204 -->
<g id="node5" class="node">
<title>course__MATH204</title>
<g id="a_node5"><a xlink:href="../../../courses/MATH204.html" xlink:title="MATH204: Calculus IV" target="_top">
<path fill="#dfe3f4" stroke="#1b2730" stroke-width="1.6" d="M630,-134C630,-134 591,-134 591,-134 585,-134 579,-128 579,-122 579,-122 579,-110 579,-110 579,-104 585,-98 591,-98 591,-98 630,-98 630,-98 636,-98 642,-104 642,-110 642,-110 642,-122 642,-122 642,-128 636,-134 630,-134"/>
<text text-anchor="middle" x="610.5" y="-113.5" font-family="Avenir Next" font-size="10.00" fill="#17232b">MATH204</text>
</a>
</g>
</g>
<!-- course__MATH200&#45;&gt;course__MATH204 -->
<g id="edge3" class="edge">
<title>course__MATH200&#45;&gt;course__MATH204</title>
<path fill="none" stroke="#5d6972" stroke-width="1.2" d="M403.21,-116C453.76,-116 527.53,-116 571.79,-116"/>
<polygon fill="#5d6972" stroke="#5d6972" stroke-width="1.2" points="571.9,-118.45 578.9,-116 571.9,-113.55 571.9,-118.45"/>
</g>
<!-- course__MATH341 -->
<g id="node7" class="node">
<title>course__MATH341</title>
<g id="a_node7"><a xlink:href="../../../courses/MATH341.html" xlink:title="MATH341: Nonlinear dynamics and chaos" target="_top">
<path fill="#dfe3f4" stroke="#1f4f66" stroke-width="2" d="M858,-106C858,-106 715,-106 715,-106 709,-106 703,-100 703,-94 703,-94 703,-82 703,-82 703,-76 709,-70 715,-70 715,-70 858,-70 858,-70 864,-70 870,-76 870,-82 870,-82 870,-94 870,-94 870,-100 864,-106 858,-106"/>
<text text-anchor="middle" x="786.5" y="-91" font-family="Avenir Next" font-size="10.00" fill="#17232b">MATH341</text>
<text text-anchor="middle" x="786.5" y="-80" font-family="Avenir Next" font-size="10.00" fill="#17232b">Nonlinear dynamics and chaos</text>
</a>
</g>
</g>
<!-- course__MATH204&#45;&gt;course__MATH341 -->
<g id="edge8" class="edge">
<title>course__MATH204&#45;&gt;course__MATH341</title>
<path fill="none" stroke="#5d6972" stroke-width="1.2" d="M642.21,-111.06C657.33,-108.63 676.42,-105.55 695.7,-102.45"/>
<polygon fill="#5d6972" stroke="#5d6972" stroke-width="1.2" points="696.28,-104.84 702.8,-101.31 695.5,-100 696.28,-104.84"/>
</g>
<!-- course__MATH211 -->
<g id="node6" class="node">
<title>course__MATH211</title>
<g id="a_node6"><a xlink:href="../../../courses/MATH211.html" xlink:title="MATH211: Matrix Algebra I" target="_top">
<path fill="#dfe3f4" stroke="#1b2730" stroke-width="1.6" d="M630,-78C630,-78 591,-78 591,-78 585,-78 579,-72 579,-66 579,-66 579,-54 579,-54 579,-48 585,-42 591,-42 591,-42 630,-42 630,-42 636,-42 642,-48 642,-54 642,-54 642,-66 642,-66 642,-72 636,-78 630,-78"/>
<text text-anchor="middle" x="610.5" y="-57.5" font-family="Avenir Next" font-size="10.00" fill="#17232b">MATH211</text>
</a>
</g>
</g>
<!-- course__MATH211&#45;&gt;course__MATH341 -->
<g id="edge7" class="edge">
<title>course__MATH211&#45;&gt;course__MATH341</title>
<path fill="none" stroke="#5d6972" stroke-width="1.2" d="M642.21,-64.94C657.33,-67.37 676.42,-70.45 695.7,-73.55"/>
<polygon fill="#5d6972" stroke="#5d6972" stroke-width="1.2" points="695.5,-76 702.8,-74.69 696.28,-71.16 695.5,-76"/>
</g>
<!-- course__MATH442 -->
<g id="node8" class="node">
<title>course__MATH442</title>
<g id="a_node8"><a xlink:href="../../../courses/MATH442.html" xlink:title="MATH442: Advanced Ordinary Differential Equations" target="_top">
<path fill="#dfe3f4" stroke="#1b2730" stroke-width="1.6" d="M982,-106C982,-106 943,-106 943,-106 937,-106 931,-100 931,-94 931,-94 931,-82 931,-82 931,-76 937,-70 943,-70 943,-70 982,-70 982,-70 988,-70 994,-76 994,-82 994,-82 994,-94 994,-94 994,-100 988,-106 982,-106"/>
<text text-anchor="middle" x="962.5" y="-85.5" font-family="Avenir Next" font-size="10.00" fill="#17232b">MATH442</text>
</a>
</g>
</g>
<!-- course__MATH341&#45;&gt;course__MATH442 -->
<g id="edge9" class="edge">
<title>course__MATH341&#45;&gt;course__MATH442</title>
<path fill="none" stroke="#5d6972" stroke-width="1.2" d="M870.17,-88C888.87,-88 907.85,-88 923.62,-88"/>
<polygon fill="#5d6972" stroke="#5d6972" stroke-width="1.2" points="923.63,-90.45 930.63,-88 923.63,-85.55 923.63,-90.45"/>
</g>
<!-- choice_MATH211_0&#45;&gt;course__MATH211 -->
<g id="edge6" class="edge">
<title>choice_MATH211_0&#45;&gt;course__MATH211</title>
<path fill="none" stroke="#5d6972" stroke-width="1.2" d="M518.08,-60C533.81,-60 554.14,-60 571.62,-60"/>
<polygon fill="#5d6972" stroke="#5d6972" stroke-width="1.2" points="571.92,-62.45 578.92,-60 571.92,-57.55 571.92,-62.45"/>
</g>
</g>
</svg>
