<?xml version="1.0" encoding="UTF-8" standalone="no"?>
<!DOCTYPE svg PUBLIC "-//W3C//DTD SVG 1.1//EN"
 "http://www.w3.org/Graphics/SVG/1.1/DTD/svg11.dtd">
<!-- Generated by graphviz version 2.43.0 (0)
 -->
<!-- Title: PHYS460B Pages: 1 -->
<svg width="252pt" height="79pt"
 viewBox="0.00 0.00 252.20 79.20" xmlns="http://www.w3.org/2000/svg" xmlns:xlink="http://www.w3.org/1999/xlink">
<g id="graph0" class="graph" transform="scale(1 1) rotate(0) translate(21.6 57.6)">
<title>PHYS460B</title>
<!-- course__PHYS460A -->
<g id="node1" class="node">
<title>course__PHYS460A</title>
<g id="a_node1"><a xlink:href="../../../courses/PHYS460A.html" xlink:title="PHYS460A: Colloquium I" target="_top">
<path fill="#efd8cf" stroke="#1b2730" stroke-width="1.6" d="M55,-36C55,-36 12,-36 12,-36 6,-36 0,-30 0,-24 0,-24 0,-12 0,-12 0,-6 6,0 12,0 12,0 55,0 55,0 61,0 67,-6 67,-12 67,-12 67,-24 67,-24 67,-30 61,-36 55,-36"/>
<text text-anchor="middle" x="33.5" y="-15.5" font-family="Avenir Next" font-size="10.00" fill="#17232b">PHYS460A</text>
</a>
</g>
</g>
<!-- course__PHYS460B -->
<g id="node2" class="node">
<title>course__PHYS460B</title>
<g id="a_node2"><a xlink:href="../../../courses/PHYS460B.html" xlink:title="PHYS460B: Colloquium II" target="_top">
<path fill="#efd8cf" stroke="#1f4f66" stroke-width="2" d="M197,-36C197,-36 140,-36 140,-36 134,-36 128,-30 128,-24 128,-24 128,-12 128,-12 128,-6 134,0 140,0 140,0 197,0 197,0 203,0 209,-6 209,-12 209,-12 209,-24 209,-24 209,-30 203,-36 197,-36"/>
<text text-anchor="middle" x="168.5" y="-21" font-family="Avenir Next" font-size="10.00" fill="#17232b">PHYS460B</text>
<text text-anchor="middle" x="168.5" y="-10" font-family="Avenir Next" font-size="10.00" fill="#17232b">Colloquium II</text>
</a>
</g>
</g>
<!-- course__PHYS460A&#45;&gt;course__PHYS460B -->
<g id="edge1" class="edge">
<title>course__PHYS460A&#45;&gt;course__PHYS460B</title>
<path fill="none" stroke="#5d6972" stroke-width="1.2" d="M67.04,-18C83.05,-18 102.66,-18 120.29,-18"/>
<polygon fill="#5d6972" stroke="#5d6972" stroke-width="1.2" points="120.7,-20.45 127.7,-18 120.7,-15.55 120.7,-20.45"/>
</g>
</g>
</svg>
