<?xml version="1.0" encoding="UTF-8" standalone="no"?>
<!DOCTYPE svg PUBLIC "-//W3C//DTD SVG 1.1//EN"
 "http://www.w3.org/Graphics/SVG/1.1/DTD/svg11.dtd">
<!-- Generated by graphviz version 2.43.0 (0)
 -->
<!-- Title: PHYS110 Pages: 1 -->
<svg width="1139pt" height="527pt"
 viewBox="0.00 0.00 1139.20 527.20" xmlns="http://www.w3.org/2000/svg" xmlns:xlink="http://www.w3.org/1999/xlink">
<g id="graph0" class="graph" transform="scale(1 1) rotate(0) translate(21.6 505.6)">
<title>PHYS110</title>
<!-- course__MATH100 -->
<g id="node1" class="node">
<title>course__MATH100</title>
<g id="a_node1"><a xlink:href="../../../courses/MATH100.html" xlink:title="Collapsed in simplified view: MATH100: Calculus I | MATH102: Calculus for Students in the Social and Biological Sciences | MATH109: Introduction to Calculus" target="_top">
<path fill="#dfe3f4" stroke="#1b2730" stroke-width="1.6" d="M438,-260C438,-260 398,-260 398,-260 392,-260 386,-254 386,-248 386,-248 386,-236 386,-236 386,-230 392,-224 398,-224 398,-224 438,-224 438,-224 444,-224 450,-230 450,-236 450,-236 450,-248 450,-248 450,-254 444,-260 438,-260"/>
<text text-anchor="middle" x="418" y="-239.5" font-family="Avenir Next" font-size="10.00" fill="#17232b">Calculus I</text>
</a>
</g>
</g>
<!-- course__PHYS102A -->
<g id="node2" class="node">
<title>course__PHYS102A</title>
<g id="a_node2"><a xlink:href="../../../courses/PHYS110.html" xlink:title="Collapsed in simplified view: PHYS102A: General Physics I | PHYS110: Introductory Physics I | PHYS120: Physics I" target="_top">
<path fill="#efd8cf" stroke="#1f4f66" stroke-width="2" d="M621,-309C621,-309 523,-309 523,-309 517,-309 511,-303 511,-297 511,-297 511,-285 511,-285 511,-279 517,-273 523,-273 523,-273 621,-273 621,-273 627,-273 633,-279 633,-285 633,-285 633,-297 633,-297 633,-303 627,-309 621,-309"/>
<text text-anchor="middle" x="572" y="-294" font-family="Avenir Next" font-size="10.00" fill="#17232b">Physics I</text>
<text text-anchor="middle" x="572" y="-283" font-family="Avenir Next" font-size="10.00" fill="#17232b">Introductory Physics I</text>
</a>
</g>
</g>
<!-- course__MATH100&#45;&gt;course__PHYS102A -->
<g id="edge8" class="edge">
<title>course__MATH100&#45;&gt;course__PHYS102A</title>
<path fill="none" stroke="#5d6972" stroke-width="1.2" d="M450.13,-252.03C466.9,-257.44 488.23,-264.32 508.28,-270.78"/>
<polygon fill="#5d6972" stroke="#5d6972" stroke-width="1.2" points="507.6,-273.14 515.02,-272.95 509.11,-268.47 507.6,-273.14"/>
</g>
<!-- course__PHYS102B -->
<g id="node4" class="node">
<title>course__PHYS102B</title>
<g id="a_node4"><a xlink:href="../../../courses/PHYS102B.html" xlink:title="Collapsed in simplified view: PHYS102B: General Physics II | PHYS111: Introductory Physics II | PHYS130: Physics II" target="_top">
<path fill="#efd8cf" stroke="#1b2730" stroke-width="1.6" d="M761.5,-260C761.5,-260 723.5,-260 723.5,-260 717.5,-260 711.5,-254 711.5,-248 711.5,-248 711.5,-236 711.5,-236 711.5,-230 717.5,-224 723.5,-224 723.5,-224 761.5,-224 761.5,-224 767.5,-224 773.5,-230 773.5,-236 773.5,-236 773.5,-248 773.5,-248 773.5,-254 767.5,-260 761.5,-260"/>
<text text-anchor="middle" x="742.5" y="-239.5" font-family="Avenir Next" font-size="10.00" fill="#17232b">Physics II</text>
</a>
</g>
</g>
<!-- course__MATH100&#45;&gt;course__PHYS102B -->
<g id="edge10" class="edge">
<title>course__MATH100&#45;&gt;course__PHYS102B</title>
<path fill="none" stroke="#5d6972" stroke-width="1.2" d="M450.22,-242C509.88,-242 639.88,-242 704.09,-242"/>
<polygon fill="#5d6972" stroke="#5d6972" stroke-width="1.2" points="704.21,-244.45 711.21,-242 704.21,-239.55 704.21,-244.45"/>
</g>
<!-- course__EOS210 -->
<g id="node3" class="node">
<title>course__EOS210</title>
<g id="a_node3"><a xlink:href="../../../courses/EOS210.html" xlink:title="Collapsed in simplified view: EOS210: Introductory Geophysics | PHYS210: Introductory Geophysics" target="_top">
<path fill="#d7e9ef" stroke="#1b2730" stroke-width="1.6" d="M779,-316C779,-316 706,-316 706,-316 700,-316 694,-310 694,-304 694,-304 694,-292 694,-292 694,-286 700,-280 706,-280 706,-280 779,-280 779,-280 785,-280 791,-286 791,-292 791,-292 791,-304 791,-304 791,-310 785,-316 779,-316"/>
<text text-anchor="middle" x="742.5" y="-295.5" font-family="Avenir Next" font-size="10.00" fill="#17232b">Intro geophysics</text>
</a>
</g>
</g>
<!-- course__PHYS102A&#45;&gt;course__EOS210 -->
<g id="edge2" class="edge">
<title>course__PHYS102A&#45;&gt;course__EOS210</title>
<path fill="none" stroke="#5d6972" stroke-width="1.2" d="M633.36,-293.51C650.79,-294.23 669.71,-295.02 686.78,-295.73"/>
<polygon fill="#5d6972" stroke="#5d6972" stroke-width="1.2" points="686.88,-298.18 693.98,-296.03 687.08,-293.29 686.88,-298.18"/>
</g>
<!-- course__PHYS102A&#45;&gt;course__PHYS102B -->
<g id="edge9" class="edge">
<title>course__PHYS102A&#45;&gt;course__PHYS102B</title>
<path fill="none" stroke="#5d6972" stroke-width="1.2" d="M633.36,-273.45C657.11,-266.54 683.63,-258.83 704.46,-252.77"/>
<polygon fill="#5d6972" stroke="#5d6972" stroke-width="1.2" points="705.26,-255.09 711.3,-250.78 703.89,-250.39 705.26,-255.09"/>
</g>
<!-- course__EOS311 -->
<g id="node5" class="node">
<title>course__EOS311</title>
<g id="a_node5"><a xlink:href="../../../courses/EOS311.html" xlink:title="Equivalent or cross&#45;listed: BIOL311: Biological Oceanography | EOS311: Biological Oceanography" target="_top">
<path fill="#d7e9ef" stroke="#1b2730" stroke-width="1.6" d="M950,-484C950,-484 870,-484 870,-484 864,-484 858,-478 858,-472 858,-472 858,-460 858,-460 858,-454 864,-448 870,-448 870,-448 950,-448 950,-448 956,-448 962,-454 962,-460 962,-460 962,-472 962,-472 962,-478 956,-484 950,-484"/>
<text text-anchor="middle" x="910" y="-463.5" font-family="Avenir Next" font-size="10.00" fill="#17232b">BIOL311 / EOS311</text>
</a>
</g>
</g>
<!-- course__PHYS102B&#45;&gt;course__EOS311 -->
<g id="edge3" class="edge">
<title>course__PHYS102B&#45;&gt;course__EOS311</title>
<path fill="none" stroke="#5d6972" stroke-width="1.2" d="M773.54,-255.46C779.96,-259.41 786.23,-264.26 791,-270 841.76,-331.1 798.95,-378.87 852,-438 853.76,-439.96 855.69,-441.8 857.74,-443.52"/>
<polygon fill="#5d6972" stroke="#5d6972" stroke-width="1.2" points="856.36,-445.55 863.42,-447.82 859.31,-441.64 856.36,-445.55"/>
</g>
<!-- course__EOS314 -->
<g id="node6" class="node">
<title>course__EOS314</title>
<g id="a_node6"><a xlink:href="../../../courses/EOS314.html" xlink:title="EOS314: Descriptive Physical Oceanography" target="_top">
<path fill="#d7e9ef" stroke="#1b2730" stroke-width="1.6" d="M925,-428C925,-428 895,-428 895,-428 889,-428 883,-422 883,-416 883,-416 883,-404 883,-404 883,-398 889,-392 895,-392 895,-392 925,-392 925,-392 931,-392 937,-398 937,-404 937,-404 937,-416 937,-416 937,-422 931,-428 925,-428"/>
<text text-anchor="middle" x="910" y="-407.5" font-family="Avenir Next" font-size="10.00" fill="#17232b">EOS314</text>
</a>
</g>
</g>
<!-- course__PHYS102B&#45;&gt;course__EOS314 -->
<g id="edge4" class="edge">
<title>course__PHYS102B&#45;&gt;course__EOS314</title>
<path fill="none" stroke="#5d6972" stroke-width="1.2" d="M773.92,-256.61C780.03,-260.42 786.08,-264.91 791,-270 830.39,-310.75 811.08,-342.77 852,-382 858.91,-388.63 867.7,-393.98 876.29,-398.16"/>
<polygon fill="#5d6972" stroke="#5d6972" stroke-width="1.2" points="875.4,-400.45 882.78,-401.13 877.43,-395.99 875.4,-400.45"/>
</g>
<!-- course__EOS340 -->
<g id="node7" class="node">
<title>course__EOS340</title>
<g id="a_node7"><a xlink:href="../../../courses/EOS340.html" xlink:title="Equivalent or cross&#45;listed: EOS340: Atmospheric Physics | PHYS340: Atmospheric Physics" target="_top">
<path fill="#d7e9ef" stroke="#1b2730" stroke-width="1.6" d="M951.5,-372C951.5,-372 868.5,-372 868.5,-372 862.5,-372 856.5,-366 856.5,-360 856.5,-360 856.5,-348 856.5,-348 856.5,-342 862.5,-336 868.5,-336 868.5,-336 951.5,-336 951.5,-336 957.5,-336 963.5,-342 963.5,-348 963.5,-348 963.5,-360 963.5,-360 963.5,-366 957.5,-372 951.5,-372"/>
<text text-anchor="middle" x="910" y="-351.5" font-family="Avenir Next" font-size="10.00" fill="#17232b">EOS340 / PHYS340</text>
</a>
</g>
</g>
<!-- course__PHYS102B&#45;&gt;course__EOS340 -->
<g id="edge5" class="edge">
<title>course__PHYS102B&#45;&gt;course__EOS340</title>
<path fill="none" stroke="#5d6972" stroke-width="1.2" d="M773.51,-258.39C779.45,-262 785.54,-265.95 791,-270 820.57,-291.91 821.62,-305.23 852,-326 855.32,-328.27 858.86,-330.47 862.48,-332.56"/>
<polygon fill="#5d6972" stroke="#5d6972" stroke-width="1.2" points="861.32,-334.71 868.62,-335.98 863.7,-330.43 861.32,-334.71"/>
</g>
<!-- course__EOS431 -->
<g id="node8" class="node">
<title>course__EOS431</title>
<g id="a_node8"><a xlink:href="../../../courses/EOS431.html" xlink:title="Equivalent or cross&#45;listed: EOS431: Physical Oceanography | PHYS441: Physical Oceanography" target="_top">
<path fill="#d7e9ef" stroke="#1b2730" stroke-width="1.6" d="M951.5,-316C951.5,-316 868.5,-316 868.5,-316 862.5,-316 856.5,-310 856.5,-304 856.5,-304 856.5,-292 856.5,-292 856.5,-286 862.5,-280 868.5,-280 868.5,-280 951.5,-280 951.5,-280 957.5,-280 963.5,-286 963.5,-292 963.5,-292 963.5,-304 963.5,-304 963.5,-310 957.5,-316 951.5,-316"/>
<text text-anchor="middle" x="910" y="-295.5" font-family="Avenir Next" font-size="10.00" fill="#17232b">EOS431 / PHYS441</text>
</a>
</g>
</g>
<!-- course__PHYS102B&#45;&gt;course__EOS431 -->
<g id="edge6" class="edge">
<title>course__PHYS102B&#45;&gt;course__EOS431</title>
<path fill="none" stroke="#5d6972" stroke-width="1.2" d="M773.86,-252.27C795.01,-259.43 823.94,-269.22 849.6,-277.9"/>
<polygon fill="#5d6972" stroke="#5d6972" stroke-width="1.2" points="848.97,-280.28 856.39,-280.2 850.54,-275.63 848.97,-280.28"/>
</g>
<!-- course__MATH248 -->
<g id="node9" class="node">
<title>course__MATH248</title>
<g id="a_node9"><a xlink:href="../../../courses/MATH248.html" xlink:title="Equivalent or cross&#45;listed: MATH248: Computer Assisted Mathematics | PHYS248: Computer Assisted Physics" target="_top">
<path fill="#dfe3f4" stroke="#1b2730" stroke-width="1.6" d="M956,-260C956,-260 864,-260 864,-260 858,-260 852,-254 852,-248 852,-248 852,-236 852,-236 852,-230 858,-224 864,-224 864,-224 956,-224 956,-224 962,-224 968,-230 968,-236 968,-236 968,-248 968,-248 968,-254 962,-260 956,-260"/>
<text text-anchor="middle" x="910" y="-239.5" font-family="Avenir Next" font-size="10.00" fill="#17232b">MATH248 / PHYS248</text>
</a>
</g>
</g>
<!-- course__PHYS102B&#45;&gt;course__MATH248 -->
<g id="edge7" class="edge">
<title>course__PHYS102B&#45;&gt;course__MATH248</title>
<path fill="none" stroke="#5d6972" stroke-width="1.2" d="M773.86,-242C793.64,-242 820.23,-242 844.58,-242"/>
<polygon fill="#5d6972" stroke="#5d6972" stroke-width="1.2" points="844.71,-244.45 851.71,-242 844.71,-239.55 844.71,-244.45"/>
</g>
<!-- course__PHYS215 -->
<g id="node10" class="node">
<title>course__PHYS215</title>
<g id="a_node10"><a xlink:href="../../../courses/PHYS215.html" xlink:title="PHYS215: Introductory Quantum Physics" target="_top">
<path fill="#efd8cf" stroke="#1b2730" stroke-width="1.6" d="M928,-204C928,-204 892,-204 892,-204 886,-204 880,-198 880,-192 880,-192 880,-180 880,-180 880,-174 886,-168 892,-168 892,-168 928,-168 928,-168 934,-168 940,-174 940,-180 940,-180 940,-192 940,-192 940,-198 934,-204 928,-204"/>
<text text-anchor="middle" x="910" y="-183.5" font-family="Avenir Next" font-size="10.00" fill="#17232b">PHYS215</text>
</a>
</g>
</g>
<!-- course__PHYS102B&#45;&gt;course__PHYS215 -->
<g id="edge11" class="edge">
<title>course__PHYS102B&#45;&gt;course__PHYS215</title>
<path fill="none" stroke="#5d6972" stroke-width="1.2" d="M773.86,-231.73C801.85,-222.26 843.42,-208.19 873.06,-198.16"/>
<polygon fill="#5d6972" stroke="#5d6972" stroke-width="1.2" points="874.1,-200.4 879.95,-195.83 872.53,-195.75 874.1,-200.4"/>
</g>
<!-- course__PHYS216 -->
<g id="node11" class="node">
<title>course__PHYS216</title>
<g id="a_node11"><a xlink:href="../../../courses/PHYS216.html" xlink:title="PHYS216: Introductory Electricity and Magnetism" target="_top">
<path fill="#efd8cf" stroke="#1b2730" stroke-width="1.6" d="M928,-148C928,-148 892,-148 892,-148 886,-148 880,-142 880,-136 880,-136 880,-124 880,-124 880,-118 886,-112 892,-112 892,-112 928,-112 928,-112 934,-112 940,-118 940,-124 940,-124 940,-136 940,-136 940,-142 934,-148 928,-148"/>
<text text-anchor="middle" x="910" y="-127.5" font-family="Avenir Next" font-size="10.00" fill="#17232b">PHYS216</text>
</a>
</g>
</g>
<!-- course__PHYS102B&#45;&gt;course__PHYS216 -->
<g id="edge12" class="edge">
<title>course__PHYS102B&#45;&gt;course__PHYS216</title>
<path fill="none" stroke="#5d6972" stroke-width="1.2" d="M764.19,-223.93C785.36,-205.94 819.66,-178.17 852,-158 858.73,-153.8 866.18,-149.75 873.42,-146.09"/>
<polygon fill="#5d6972" stroke="#5d6972" stroke-width="1.2" points="874.78,-148.15 879.98,-142.86 872.61,-143.76 874.78,-148.15"/>
</g>
<!-- course__PHYS217 -->
<g id="node12" class="node">
<title>course__PHYS217</title>
<g id="a_node12"><a xlink:href="../../../courses/PHYS217.html" xlink:title="Equivalent or cross&#45;listed: PHYS217: Introductory Thermodynamics | PHYS317: Thermodynamics" target="_top">
<path fill="#efd8cf" stroke="#1b2730" stroke-width="1.6" d="M954.5,-92C954.5,-92 865.5,-92 865.5,-92 859.5,-92 853.5,-86 853.5,-80 853.5,-80 853.5,-68 853.5,-68 853.5,-62 859.5,-56 865.5,-56 865.5,-56 954.5,-56 954.5,-56 960.5,-56 966.5,-62 966.5,-68 966.5,-68 966.5,-80 966.5,-80 966.5,-86 960.5,-92 954.5,-92"/>
<text text-anchor="middle" x="910" y="-71.5" font-family="Avenir Next" font-size="10.00" fill="#17232b">PHYS217 / PHYS317</text>
</a>
</g>
</g>
<!-- course__PHYS102B&#45;&gt;course__PHYS217 -->
<g id="edge13" class="edge">
<title>course__PHYS102B&#45;&gt;course__PHYS217</title>
<path fill="none" stroke="#5d6972" stroke-width="1.2" d="M753.73,-223.96C770.88,-195.05 807.91,-137.95 852,-102 854.64,-99.85 857.47,-97.81 860.41,-95.89"/>
<polygon fill="#5d6972" stroke="#5d6972" stroke-width="1.2" points="861.88,-97.85 866.56,-92.1 859.32,-93.68 861.88,-97.85"/>
</g>
<!-- course__PHYS229 -->
<g id="node13" class="node">
<title>course__PHYS229</title>
<g id="a_node13"><a xlink:href="../../../courses/PHYS229.html" xlink:title="PHYS229: Introduction to Experimental Physics" target="_top">
<path fill="#efd8cf" stroke="#1b2730" stroke-width="1.6" d="M928,-36C928,-36 892,-36 892,-36 886,-36 880,-30 880,-24 880,-24 880,-12 880,-12 880,-6 886,0 892,0 892,0 928,0 928,0 934,0 940,-6 940,-12 940,-12 940,-24 940,-24 940,-30 934,-36 928,-36"/>
<text text-anchor="middle" x="910" y="-15.5" font-family="Avenir Next" font-size="10.00" fill="#17232b">PHYS229</text>
</a>
</g>
</g>
<!-- course__PHYS102B&#45;&gt;course__PHYS229 -->
<g id="edge14" class="edge">
<title>course__PHYS102B&#45;&gt;course__PHYS229</title>
<path fill="none" stroke="#5d6972" stroke-width="1.2" d="M749.29,-223.99C762.17,-186.42 796.51,-98.84 852,-46 858.18,-40.12 865.82,-35.24 873.49,-31.29"/>
<polygon fill="#5d6972" stroke="#5d6972" stroke-width="1.2" points="874.67,-33.44 879.9,-28.18 872.53,-29.03 874.67,-33.44"/>
</g>
<!-- course__PHYS321A -->
<g id="node14" class="node">
<title>course__PHYS321A</title>
<g id="a_node14"><a xlink:href="../../../courses/PHYS321A.html" xlink:title="PHYS321A: Classical Mechanics I" target="_top">
<path fill="#efd8cf" stroke="#1b2730" stroke-width="1.6" d="M1084,-260C1084,-260 1041,-260 1041,-260 1035,-260 1029,-254 1029,-248 1029,-248 1029,-236 1029,-236 1029,-230 1035,-224 1041,-224 1041,-224 1084,-224 1084,-224 1090,-224 1096,-230 1096,-236 1096,-236 1096,-248 1096,-248 1096,-254 1090,-260 1084,-260"/>
<text text-anchor="middle" x="1062.5" y="-239.5" font-family="Avenir Next" font-size="10.00" fill="#17232b">PHYS321A</text>
</a>
</g>
</g>
<!-- course__MATH248&#45;&gt;course__PHYS321A -->
<g id="edge15" class="edge">
<title>course__MATH248&#45;&gt;course__PHYS321A</title>
<path fill="none" stroke="#5d6972" stroke-width="1.2" d="M968.33,-242C986.05,-242 1005.18,-242 1021.46,-242"/>
<polygon fill="#5d6972" stroke="#5d6972" stroke-width="1.2" points="1021.73,-244.45 1028.73,-242 1021.73,-239.55 1021.73,-244.45"/>
</g>
<!-- PHYS110_notes -->
<g id="node15" class="node">
<title>PHYS110_notes</title>
<polygon fill="#fff7ee" stroke="#b7793f" stroke-width="1.1" points="319,-327 0,-327 0,-255 325,-255 325,-321 319,-327"/>
<polyline fill="none" stroke="#b7793f" stroke-width="1.1" points="319,-327 319,-321 "/>
<polyline fill="none" stroke="#b7793f" stroke-width="1.1" points="325,-321 319,-321 "/>
<text text-anchor="start" x="13" y="-307.4" font-family="Avenir Next" font-size="12.00">Published notes</text>
<text text-anchor="start" x="13" y="-294.4" font-family="Avenir Next" font-size="12.00">1.5 units of 100&#45;level PHYS</text>
<text text-anchor="start" x="13" y="-281.4" font-family="Avenir Next" font-size="12.00">Completed Physics 12 with a minimum grade of B</text>
<text text-anchor="start" x="13" y="-268.4" font-family="Avenir Next" font-size="12.00">(73%)</text>
</g>
<!-- PHYS110_notes&#45;&gt;course__PHYS102A -->
</g>
</svg>
