<?xml version="1.0" encoding="UTF-8" standalone="no"?>
<!DOCTYPE svg PUBLIC "-//W3C//DTD SVG 1.1//EN"
 "http://www.w3.org/Graphics/SVG/1.1/DTD/svg11.dtd">
<!-- Generated by graphviz version 2.43.0 (0)
 -->
<!-- Title: PHYS130 Pages: 1 -->
<svg width="942pt" height="611pt"
 viewBox="0.00 0.00 942.20 611.20" xmlns="http://www.w3.org/2000/svg" xmlns:xlink="http://www.w3.org/1999/xlink">
<g id="graph0" class="graph" transform="scale(1 1) rotate(0) translate(21.6 589.6)">
<title>PHYS130</title>
<!-- course__MATH100 -->
<g id="node1" class="node">
<title>course__MATH100</title>
<g id="a_node1"><a xlink:href="../../../courses/MATH100.html" xlink:title="Collapsed in simplified view: MATH100: Calculus I | MATH102: Calculus for Students in the Social and Biological Sciences | MATH109: Introduction to Calculus" target="_top">
<path fill="#dfe3f4" stroke="#1b2730" stroke-width="1.6" d="M52,-141C52,-141 12,-141 12,-141 6,-141 0,-135 0,-129 0,-129 0,-117 0,-117 0,-111 6,-105 12,-105 12,-105 52,-105 52,-105 58,-105 64,-111 64,-117 64,-117 64,-129 64,-129 64,-135 58,-141 52,-141"/>
<text text-anchor="middle" x="32" y="-120.5" font-family="Avenir Next" font-size="10.00" fill="#17232b">Calculus I</text>
</a>
</g>
</g>
<!-- course__MATH101 -->
<g id="node2" class="node">
<title>course__MATH101</title>
<g id="a_node2"><a xlink:href="../../../courses/MATH101.html" xlink:title="MATH101: Calculus II" target="_top">
<path fill="#dfe3f4" stroke="#1b2730" stroke-width="1.6" d="M176,-141C176,-141 137,-141 137,-141 131,-141 125,-135 125,-129 125,-129 125,-117 125,-117 125,-111 131,-105 137,-105 137,-105 176,-105 176,-105 182,-105 188,-111 188,-117 188,-117 188,-129 188,-129 188,-135 182,-141 176,-141"/>
<text text-anchor="middle" x="156.5" y="-120.5" font-family="Avenir Next" font-size="10.00" fill="#17232b">MATH101</text>
</a>
</g>
</g>
<!-- course__MATH100&#45;&gt;course__MATH101 -->
<g id="edge18" class="edge">
<title>course__MATH100&#45;&gt;course__MATH101</title>
<path fill="none" stroke="#5d6972" stroke-width="1.2" d="M64.23,-123C80.48,-123 100.48,-123 117.61,-123"/>
<polygon fill="#5d6972" stroke="#5d6972" stroke-width="1.2" points="117.75,-125.45 124.75,-123 117.75,-120.55 117.75,-125.45"/>
</g>
<!-- course__PHYS102A -->
<g id="node3" class="node">
<title>course__PHYS102A</title>
<g id="a_node3"><a xlink:href="../../../courses/PHYS102A.html" xlink:title="Collapsed in simplified view: PHYS102A: General Physics I | PHYS110: Introductory Physics I | PHYS120: Physics I" target="_top">
<path fill="#efd8cf" stroke="#1b2730" stroke-width="1.6" d="M174,-197C174,-197 139,-197 139,-197 133,-197 127,-191 127,-185 127,-185 127,-173 127,-173 127,-167 133,-161 139,-161 139,-161 174,-161 174,-161 180,-161 186,-167 186,-173 186,-173 186,-185 186,-185 186,-191 180,-197 174,-197"/>
<text text-anchor="middle" x="156.5" y="-176.5" font-family="Avenir Next" font-size="10.00" fill="#17232b">Physics I</text>
</a>
</g>
</g>
<!-- course__MATH100&#45;&gt;course__PHYS102A -->
<g id="edge20" class="edge">
<title>course__MATH100&#45;&gt;course__PHYS102A</title>
<path fill="none" stroke="#5d6972" stroke-width="1.2" d="M64.23,-137.28C81.25,-145.06 102.38,-154.72 120.02,-162.78"/>
<polygon fill="#5d6972" stroke="#5d6972" stroke-width="1.2" points="119.46,-165.22 126.85,-165.9 121.5,-160.76 119.46,-165.22"/>
</g>
<!-- course__PHYS102B -->
<g id="node4" class="node">
<title>course__PHYS102B</title>
<g id="a_node4"><a xlink:href="../../../courses/PHYS130.html" xlink:title="Collapsed in simplified view: PHYS102B: General Physics II | PHYS111: Introductory Physics II | PHYS130: Physics II" target="_top">
<path fill="#efd8cf" stroke="#1f4f66" stroke-width="2" d="M299,-246C299,-246 261,-246 261,-246 255,-246 249,-240 249,-234 249,-234 249,-222 249,-222 249,-216 255,-210 261,-210 261,-210 299,-210 299,-210 305,-210 311,-216 311,-222 311,-222 311,-234 311,-234 311,-240 305,-246 299,-246"/>
<text text-anchor="middle" x="280" y="-231" font-family="Avenir Next" font-size="10.00" fill="#17232b">Physics II</text>
<text text-anchor="middle" x="280" y="-220" font-family="Avenir Next" font-size="10.00" fill="#17232b">Physics II</text>
</a>
</g>
</g>
<!-- course__MATH100&#45;&gt;course__PHYS102B -->
<g id="edge22" class="edge">
<title>course__MATH100&#45;&gt;course__PHYS102B</title>
<path fill="none" stroke="#5d6972" stroke-width="1.2" d="M47.06,-141.2C63.45,-160.98 92.48,-191.78 125,-207 162.15,-224.39 209.48,-228.53 241.8,-229.03"/>
<polygon fill="#5d6972" stroke="#5d6972" stroke-width="1.2" points="241.84,-231.48 248.86,-229.08 241.88,-226.58 241.84,-231.48"/>
</g>
<!-- choice_EOS311_0_2 -->
<g id="node18" class="node">
<title>choice_EOS311_0_2</title>
<path fill="#fff7ee" stroke="#b7793f" stroke-width="1.1" d="M295,-40C295,-40 265,-40 265,-40 259,-40 253,-34 253,-28 253,-28 253,-16 253,-16 253,-10 259,-4 265,-4 265,-4 295,-4 295,-4 301,-4 307,-10 307,-16 307,-16 307,-28 307,-28 307,-34 301,-40 295,-40"/>
<text text-anchor="middle" x="280" y="-19.8" font-family="Avenir Next" font-size="9.00">2 of</text>
</g>
<!-- course__MATH100&#45;&gt;choice_EOS311_0_2 -->
<g id="edge3" class="edge">
<title>course__MATH100&#45;&gt;choice_EOS311_0_2</title>
<path fill="none" stroke="#7a8389" d="M64.29,-108.13C81.99,-99.86 104.6,-89.56 125,-81 166.36,-63.66 214.77,-45.45 246.11,-33.92"/>
<polygon fill="#7a8389" stroke="#7a8389" points="247.19,-36.14 252.92,-31.43 245.5,-31.54 247.19,-36.14"/>
</g>
<!-- choice_EOS314_0_0 -->
<g id="node19" class="node">
<title>choice_EOS314_0_0</title>
<path fill="#fff7ee" stroke="#b7793f" stroke-width="1.1" d="M295,-96C295,-96 265,-96 265,-96 259,-96 253,-90 253,-84 253,-84 253,-72 253,-72 253,-66 259,-60 265,-60 265,-60 295,-60 295,-60 301,-60 307,-66 307,-72 307,-72 307,-84 307,-84 307,-90 301,-96 295,-96"/>
<text text-anchor="middle" x="280" y="-75.8" font-family="Avenir Next" font-size="9.00">2 of</text>
</g>
<!-- course__MATH100&#45;&gt;choice_EOS314_0_0 -->
<g id="edge7" class="edge">
<title>course__MATH100&#45;&gt;choice_EOS314_0_0</title>
<path fill="none" stroke="#7a8389" d="M64.14,-111.95C81.79,-106.08 104.39,-99.23 125,-95 166.1,-86.55 214.29,-82.09 245.67,-79.89"/>
<polygon fill="#7a8389" stroke="#7a8389" points="246.07,-82.32 252.89,-79.4 245.74,-77.43 246.07,-82.32"/>
</g>
<!-- course__MATH101&#45;&gt;course__PHYS102B -->
<g id="edge23" class="edge">
<title>course__MATH101&#45;&gt;course__PHYS102B</title>
<path fill="none" stroke="#5d6972" stroke-width="1.2" d="M178.39,-141.05C198.9,-158.78 230.28,-185.89 252.53,-205.13"/>
<polygon fill="#5d6972" stroke="#5d6972" stroke-width="1.2" points="251.08,-207.11 257.98,-209.83 254.29,-203.4 251.08,-207.11"/>
</g>
<!-- course__MATH101&#45;&gt;choice_EOS311_0_2 -->
<g id="edge4" class="edge">
<title>course__MATH101&#45;&gt;choice_EOS311_0_2</title>
<path fill="none" stroke="#7a8389" d="M179.22,-104.94C199.4,-88.17 229.53,-63.12 251.4,-44.94"/>
<polygon fill="#7a8389" stroke="#7a8389" points="253.24,-46.6 257.06,-40.24 250.11,-42.83 253.24,-46.6"/>
</g>
<!-- course__MATH101&#45;&gt;choice_EOS314_0_0 -->
<g id="edge8" class="edge">
<title>course__MATH101&#45;&gt;choice_EOS314_0_0</title>
<path fill="none" stroke="#7a8389" d="M188.16,-111.64C205.78,-105.12 227.93,-96.91 245.94,-90.24"/>
<polygon fill="#7a8389" stroke="#7a8389" points="247.17,-92.4 252.88,-87.67 245.46,-87.81 247.17,-92.4"/>
</g>
<!-- course__PHYS102A&#45;&gt;course__PHYS102B -->
<g id="edge21" class="edge">
<title>course__PHYS102A&#45;&gt;course__PHYS102B</title>
<path fill="none" stroke="#5d6972" stroke-width="1.2" d="M186.29,-190.61C202.9,-197.31 223.95,-205.8 241.8,-213"/>
<polygon fill="#5d6972" stroke="#5d6972" stroke-width="1.2" points="241.31,-215.44 248.72,-215.79 243.14,-210.9 241.31,-215.44"/>
</g>
<!-- course__CIVE210 -->
<g id="node5" class="node">
<title>course__CIVE210</title>
<g id="a_node5"><a xlink:href="../../../courses/CIVE210.html" xlink:title="CIVE210: Sustainability in Civil Engineering" target="_top">
<path fill="#f2ece3" stroke="#1b2730" stroke-width="1.6" d="M446.5,-246C446.5,-246 413.5,-246 413.5,-246 407.5,-246 401.5,-240 401.5,-234 401.5,-234 401.5,-222 401.5,-222 401.5,-216 407.5,-210 413.5,-210 413.5,-210 446.5,-210 446.5,-210 452.5,-210 458.5,-216 458.5,-222 458.5,-222 458.5,-234 458.5,-234 458.5,-240 452.5,-246 446.5,-246"/>
<text text-anchor="middle" x="430" y="-225.5" font-family="Avenir Next" font-size="10.00" fill="#17232b">CIVE210</text>
</a>
</g>
</g>
<!-- course__PHYS102B&#45;&gt;course__CIVE210 -->
<g id="edge1" class="edge">
<title>course__PHYS102B&#45;&gt;course__CIVE210</title>
<path fill="none" stroke="#5d6972" stroke-width="1.2" d="M311.31,-228C335.32,-228 368.9,-228 394.05,-228"/>
<polygon fill="#5d6972" stroke="#5d6972" stroke-width="1.2" points="394.23,-230.45 401.23,-228 394.23,-225.55 394.23,-230.45"/>
</g>
<!-- course__EOS261 -->
<g id="node6" class="node">
<title>course__EOS261</title>
<g id="a_node6"><a xlink:href="../../../courses/EOS261.html" xlink:title="EOS261: The Climate System" target="_top">
<path fill="#d7e9ef" stroke="#1b2730" stroke-width="1.6" d="M445,-148C445,-148 415,-148 415,-148 409,-148 403,-142 403,-136 403,-136 403,-124 403,-124 403,-118 409,-112 415,-112 415,-112 445,-112 445,-112 451,-112 457,-118 457,-124 457,-124 457,-136 457,-136 457,-142 451,-148 445,-148"/>
<text text-anchor="middle" x="430" y="-127.5" font-family="Avenir Next" font-size="10.00" fill="#17232b">EOS261</text>
</a>
</g>
</g>
<!-- course__PHYS102B&#45;&gt;course__EOS261 -->
<g id="edge2" class="edge">
<title>course__PHYS102B&#45;&gt;course__EOS261</title>
<path fill="none" stroke="#5d6972" stroke-width="1.2" d="M304.9,-209.98C323,-196.56 348.66,-178.04 372,-163 379.89,-157.92 388.58,-152.7 396.74,-147.96"/>
<polygon fill="#5d6972" stroke="#5d6972" stroke-width="1.2" points="398.02,-150.05 402.86,-144.44 395.58,-145.8 398.02,-150.05"/>
</g>
<!-- course__EOS311 -->
<g id="node7" class="node">
<title>course__EOS311</title>
<g id="a_node7"><a xlink:href="../../../courses/EOS311.html" xlink:title="Equivalent or cross&#45;listed: BIOL311: Biological Oceanography | EOS311: Biological Oceanography" target="_top">
<path fill="#d7e9ef" stroke="#1b2730" stroke-width="1.6" d="M470,-36C470,-36 390,-36 390,-36 384,-36 378,-30 378,-24 378,-24 378,-12 378,-12 378,-6 384,0 390,0 390,0 470,0 470,0 476,0 482,-6 482,-12 482,-12 482,-24 482,-24 482,-30 476,-36 470,-36"/>
<text text-anchor="middle" x="430" y="-15.5" font-family="Avenir Next" font-size="10.00" fill="#17232b">BIOL311 / EOS311</text>
</a>
</g>
</g>
<!-- course__PHYS102B&#45;&gt;course__EOS311 -->
<g id="edge6" class="edge">
<title>course__PHYS102B&#45;&gt;course__EOS311</title>
<path fill="none" stroke="#5d6972" stroke-width="1.2" d="M285.79,-209.92C296.04,-174.32 323.24,-94.41 372,-46 374.11,-43.9 376.41,-41.94 378.84,-40.1"/>
<polygon fill="#5d6972" stroke="#5d6972" stroke-width="1.2" points="380.34,-42.03 384.7,-36.03 377.55,-38.01 380.34,-42.03"/>
</g>
<!-- course__EOS314 -->
<g id="node8" class="node">
<title>course__EOS314</title>
<g id="a_node8"><a xlink:href="../../../courses/EOS314.html" xlink:title="EOS314: Descriptive Physical Oceanography" target="_top">
<path fill="#d7e9ef" stroke="#1b2730" stroke-width="1.6" d="M445,-92C445,-92 415,-92 415,-92 409,-92 403,-86 403,-80 403,-80 403,-68 403,-68 403,-62 409,-56 415,-56 415,-56 445,-56 445,-56 451,-56 457,-62 457,-68 457,-68 457,-80 457,-80 457,-86 451,-92 445,-92"/>
<text text-anchor="middle" x="430" y="-71.5" font-family="Avenir Next" font-size="10.00" fill="#17232b">EOS314</text>
</a>
</g>
</g>
<!-- course__PHYS102B&#45;&gt;course__EOS314 -->
<g id="edge10" class="edge">
<title>course__PHYS102B&#45;&gt;course__EOS314</title>
<path fill="none" stroke="#5d6972" stroke-width="1.2" d="M290.48,-209.56C304.97,-182.89 334.88,-133.33 372,-102 379.25,-95.88 388.07,-90.71 396.58,-86.54"/>
<polygon fill="#5d6972" stroke="#5d6972" stroke-width="1.2" points="397.69,-88.73 403,-83.55 395.62,-84.29 397.69,-88.73"/>
</g>
<!-- course__MATH248 -->
<g id="node9" class="node">
<title>course__MATH248</title>
<g id="a_node9"><a xlink:href="../../../courses/MATH248.html" xlink:title="Equivalent or cross&#45;listed: MATH248: Computer Assisted Mathematics | PHYS248: Computer Assisted Physics" target="_top">
<path fill="#dfe3f4" stroke="#1b2730" stroke-width="1.6" d="M476,-568C476,-568 384,-568 384,-568 378,-568 372,-562 372,-556 372,-556 372,-544 372,-544 372,-538 378,-532 384,-532 384,-532 476,-532 476,-532 482,-532 488,-538 488,-544 488,-544 488,-556 488,-556 488,-562 482,-568 476,-568"/>
<text text-anchor="middle" x="430" y="-547.5" font-family="Avenir Next" font-size="10.00" fill="#17232b">MATH248 / PHYS248</text>
</a>
</g>
</g>
<!-- course__PHYS102B&#45;&gt;course__MATH248 -->
<g id="edge19" class="edge">
<title>course__PHYS102B&#45;&gt;course__MATH248</title>
<path fill="none" stroke="#5d6972" stroke-width="1.2" d="M282.21,-246.02C286.35,-294.86 303.75,-431.82 372,-517 375.2,-520.99 379.01,-524.59 383.14,-527.82"/>
<polygon fill="#5d6972" stroke="#5d6972" stroke-width="1.2" points="381.81,-529.88 388.92,-531.99 384.68,-525.91 381.81,-529.88"/>
</g>
<!-- course__PHYS215 -->
<g id="node10" class="node">
<title>course__PHYS215</title>
<g id="a_node10"><a xlink:href="../../../courses/PHYS215.html" xlink:title="PHYS215: Introductory Quantum Physics" target="_top">
<path fill="#efd8cf" stroke="#1b2730" stroke-width="1.6" d="M448,-470C448,-470 412,-470 412,-470 406,-470 400,-464 400,-458 400,-458 400,-446 400,-446 400,-440 406,-434 412,-434 412,-434 448,-434 448,-434 454,-434 460,-440 460,-446 460,-446 460,-458 460,-458 460,-464 454,-470 448,-470"/>
<text text-anchor="middle" x="430" y="-449.5" font-family="Avenir Next" font-size="10.00" fill="#17232b">PHYS215</text>
</a>
</g>
</g>
<!-- course__PHYS102B&#45;&gt;course__PHYS215 -->
<g id="edge24" class="edge">
<title>course__PHYS102B&#45;&gt;course__PHYS215</title>
<path fill="none" stroke="#5d6972" stroke-width="1.2" d="M285.04,-246.02C294.29,-283.58 320.32,-371.17 372,-424 378.02,-430.16 385.68,-435.16 393.41,-439.15"/>
<polygon fill="#5d6972" stroke="#5d6972" stroke-width="1.2" points="392.52,-441.44 399.89,-442.26 394.64,-437.02 392.52,-441.44"/>
</g>
<!-- course__PHYS216 -->
<g id="node11" class="node">
<title>course__PHYS216</title>
<g id="a_node11"><a xlink:href="../../../courses/PHYS216.html" xlink:title="PHYS216: Introductory Electricity and Magnetism" target="_top">
<path fill="#efd8cf" stroke="#1b2730" stroke-width="1.6" d="M448,-414C448,-414 412,-414 412,-414 406,-414 400,-408 400,-402 400,-402 400,-390 400,-390 400,-384 406,-378 412,-378 412,-378 448,-378 448,-378 454,-378 460,-384 460,-390 460,-390 460,-402 460,-402 460,-408 454,-414 448,-414"/>
<text text-anchor="middle" x="430" y="-393.5" font-family="Avenir Next" font-size="10.00" fill="#17232b">PHYS216</text>
</a>
</g>
</g>
<!-- course__PHYS102B&#45;&gt;course__PHYS216 -->
<g id="edge25" class="edge">
<title>course__PHYS102B&#45;&gt;course__PHYS216</title>
<path fill="none" stroke="#5d6972" stroke-width="1.2" d="M288.86,-246.12C302.22,-275.15 331.88,-332.42 372,-368 378.32,-373.6 385.95,-378.36 393.55,-382.27"/>
<polygon fill="#5d6972" stroke="#5d6972" stroke-width="1.2" points="392.54,-384.5 399.9,-385.36 394.68,-380.09 392.54,-384.5"/>
</g>
<!-- course__PHYS217 -->
<g id="node12" class="node">
<title>course__PHYS217</title>
<g id="a_node12"><a xlink:href="../../../courses/PHYS217.html" xlink:title="Equivalent or cross&#45;listed: PHYS217: Introductory Thermodynamics | PHYS317: Thermodynamics" target="_top">
<path fill="#efd8cf" stroke="#1b2730" stroke-width="1.6" d="M474.5,-358C474.5,-358 385.5,-358 385.5,-358 379.5,-358 373.5,-352 373.5,-346 373.5,-346 373.5,-334 373.5,-334 373.5,-328 379.5,-322 385.5,-322 385.5,-322 474.5,-322 474.5,-322 480.5,-322 486.5,-328 486.5,-334 486.5,-334 486.5,-346 486.5,-346 486.5,-352 480.5,-358 474.5,-358"/>
<text text-anchor="middle" x="430" y="-337.5" font-family="Avenir Next" font-size="10.00" fill="#17232b">PHYS217 / PHYS317</text>
</a>
</g>
</g>
<!-- course__PHYS102B&#45;&gt;course__PHYS217 -->
<g id="edge26" class="edge">
<title>course__PHYS102B&#45;&gt;course__PHYS217</title>
<path fill="none" stroke="#5d6972" stroke-width="1.2" d="M297.5,-246.03C314.82,-264.25 343.45,-292.43 372,-312 375.32,-314.28 378.85,-316.47 382.47,-318.57"/>
<polygon fill="#5d6972" stroke="#5d6972" stroke-width="1.2" points="381.31,-320.72 388.62,-321.99 383.69,-316.44 381.31,-320.72"/>
</g>
<!-- course__PHYS229 -->
<g id="node13" class="node">
<title>course__PHYS229</title>
<g id="a_node13"><a xlink:href="../../../courses/PHYS229.html" xlink:title="PHYS229: Introduction to Experimental Physics" target="_top">
<path fill="#efd8cf" stroke="#1b2730" stroke-width="1.6" d="M448,-302C448,-302 412,-302 412,-302 406,-302 400,-296 400,-290 400,-290 400,-278 400,-278 400,-272 406,-266 412,-266 412,-266 448,-266 448,-266 454,-266 460,-272 460,-278 460,-278 460,-290 460,-290 460,-296 454,-302 448,-302"/>
<text text-anchor="middle" x="430" y="-281.5" font-family="Avenir Next" font-size="10.00" fill="#17232b">PHYS229</text>
</a>
</g>
</g>
<!-- course__PHYS102B&#45;&gt;course__PHYS229 -->
<g id="edge27" class="edge">
<title>course__PHYS102B&#45;&gt;course__PHYS229</title>
<path fill="none" stroke="#5d6972" stroke-width="1.2" d="M311.31,-239.47C334.96,-248.42 367.9,-260.88 392.91,-270.34"/>
<polygon fill="#5d6972" stroke="#5d6972" stroke-width="1.2" points="392.33,-272.74 399.74,-272.93 394.06,-268.16 392.33,-272.74"/>
</g>
<!-- course__EOS325 -->
<g id="node14" class="node">
<title>course__EOS325</title>
<g id="a_node14"><a xlink:href="../../../courses/EOS325.html" xlink:title="EOS325: Earth System Modelling" target="_top">
<path fill="#d7e9ef" stroke="#1b2730" stroke-width="1.6" d="M712.5,-197C712.5,-197 682.5,-197 682.5,-197 676.5,-197 670.5,-191 670.5,-185 670.5,-185 670.5,-173 670.5,-173 670.5,-167 676.5,-161 682.5,-161 682.5,-161 712.5,-161 712.5,-161 718.5,-161 724.5,-167 724.5,-173 724.5,-173 724.5,-185 724.5,-185 724.5,-191 718.5,-197 712.5,-197"/>
<text text-anchor="middle" x="697.5" y="-176.5" font-family="Avenir Next" font-size="10.00" fill="#17232b">EOS325</text>
</a>
</g>
</g>
<!-- course__PHYS102B&#45;&gt;course__EOS325 -->
<g id="edge13" class="edge">
<title>course__PHYS102B&#45;&gt;course__EOS325</title>
<path fill="none" stroke="#5d6972" stroke-width="1.2" d="M311.3,-216.72C328.8,-210.71 351.35,-203.79 372,-200 476.9,-180.74 603.7,-178.47 662.94,-178.6"/>
<polygon fill="#5d6972" stroke="#5d6972" stroke-width="1.2" points="663.16,-181.05 670.17,-178.63 663.18,-176.15 663.16,-181.05"/>
</g>
<!-- course__EOS340 -->
<g id="node16" class="node">
<title>course__EOS340</title>
<g id="a_node16"><a xlink:href="../../../courses/EOS340.html" xlink:title="Equivalent or cross&#45;listed: EOS340: Atmospheric Physics | PHYS340: Atmospheric Physics" target="_top">
<path fill="#d7e9ef" stroke="#1b2730" stroke-width="1.6" d="M887,-386C887,-386 804,-386 804,-386 798,-386 792,-380 792,-374 792,-374 792,-362 792,-362 792,-356 798,-350 804,-350 804,-350 887,-350 887,-350 893,-350 899,-356 899,-362 899,-362 899,-374 899,-374 899,-380 893,-386 887,-386"/>
<text text-anchor="middle" x="845.5" y="-365.5" font-family="Avenir Next" font-size="10.00" fill="#17232b">EOS340 / PHYS340</text>
</a>
</g>
</g>
<!-- course__PHYS102B&#45;&gt;course__EOS340 -->
<g id="edge15" class="edge">
<title>course__PHYS102B&#45;&gt;course__EOS340</title>
<path fill="none" stroke="#5d6972" stroke-width="1.2" d="M281.06,-246.08C282.34,-294.06 293.2,-424.67 372,-480 514.39,-579.97 734.27,-445.97 814.17,-390.27"/>
<polygon fill="#5d6972" stroke="#5d6972" stroke-width="1.2" points="815.81,-392.11 820.12,-386.08 812.99,-388.1 815.81,-392.11"/>
</g>
<!-- choice_EOS325_0_2_0 -->
<g id="node20" class="node">
<title>choice_EOS325_0_2_0</title>
<path fill="#fff7ee" stroke="#b7793f" stroke-width="1.1" d="M591,-148C591,-148 561,-148 561,-148 555,-148 549,-142 549,-136 549,-136 549,-124 549,-124 549,-118 555,-112 561,-112 561,-112 591,-112 591,-112 597,-112 603,-118 603,-124 603,-124 603,-136 603,-136 603,-142 597,-148 591,-148"/>
<text text-anchor="middle" x="576" y="-127.8" font-family="Avenir Next" font-size="9.00">1 of</text>
</g>
<!-- course__EOS261&#45;&gt;choice_EOS325_0_2_0 -->
<g id="edge11" class="edge">
<title>course__EOS261&#45;&gt;choice_EOS325_0_2_0</title>
<path fill="none" stroke="#7a8389" d="M457.08,-130C480.68,-130 515.59,-130 541.3,-130"/>
<polygon fill="#7a8389" stroke="#7a8389" points="541.63,-132.45 548.63,-130 541.63,-127.55 541.63,-132.45"/>
</g>
<!-- course__EOS314&#45;&gt;choice_EOS325_0_2_0 -->
<g id="edge12" class="edge">
<title>course__EOS314&#45;&gt;choice_EOS325_0_2_0</title>
<path fill="none" stroke="#7a8389" d="M457.08,-84.14C480.89,-93.4 516.19,-107.13 541.96,-117.15"/>
<polygon fill="#7a8389" stroke="#7a8389" points="541.22,-119.49 548.63,-119.75 542.99,-114.92 541.22,-119.49"/>
</g>
<!-- course__PHYS321A -->
<g id="node15" class="node">
<title>course__PHYS321A</title>
<g id="a_node15"><a xlink:href="../../../courses/PHYS321A.html" xlink:title="PHYS321A: Classical Mechanics I" target="_top">
<path fill="#efd8cf" stroke="#1b2730" stroke-width="1.6" d="M719,-568C719,-568 676,-568 676,-568 670,-568 664,-562 664,-556 664,-556 664,-544 664,-544 664,-538 670,-532 676,-532 676,-532 719,-532 719,-532 725,-532 731,-538 731,-544 731,-544 731,-556 731,-556 731,-562 725,-568 719,-568"/>
<text text-anchor="middle" x="697.5" y="-547.5" font-family="Avenir Next" font-size="10.00" fill="#17232b">PHYS321A</text>
</a>
</g>
</g>
<!-- course__MATH248&#45;&gt;course__PHYS321A -->
<g id="edge28" class="edge">
<title>course__MATH248&#45;&gt;course__PHYS321A</title>
<path fill="none" stroke="#5d6972" stroke-width="1.2" d="M488.28,-550C539.11,-550 612.05,-550 656.74,-550"/>
<polygon fill="#5d6972" stroke="#5d6972" stroke-width="1.2" points="656.93,-552.45 663.93,-550 656.93,-547.55 656.93,-552.45"/>
</g>
<!-- course__EOS325&#45;&gt;course__EOS340 -->
<g id="edge16" class="edge">
<title>course__EOS325&#45;&gt;course__EOS340</title>
<path fill="none" stroke="#5d6972" stroke-width="1.2" d="M712.5,-197.12C738.99,-231.41 796.44,-305.78 826.04,-344.1"/>
<polygon fill="#5d6972" stroke="#5d6972" stroke-width="1.2" points="824.33,-345.89 830.54,-349.93 828.2,-342.9 824.33,-345.89"/>
</g>
<!-- course__EOS431 -->
<g id="node17" class="node">
<title>course__EOS431</title>
<g id="a_node17"><a xlink:href="../../../courses/EOS431.html" xlink:title="Equivalent or cross&#45;listed: EOS431: Physical Oceanography | PHYS441: Physical Oceanography" target="_top">
<path fill="#d7e9ef" stroke="#1b2730" stroke-width="1.6" d="M887,-197C887,-197 804,-197 804,-197 798,-197 792,-191 792,-185 792,-185 792,-173 792,-173 792,-167 798,-161 804,-161 804,-161 887,-161 887,-161 893,-161 899,-167 899,-173 899,-173 899,-185 899,-185 899,-191 893,-197 887,-197"/>
<text text-anchor="middle" x="845.5" y="-176.5" font-family="Avenir Next" font-size="10.00" fill="#17232b">EOS431 / PHYS441</text>
</a>
</g>
</g>
<!-- course__EOS325&#45;&gt;course__EOS431 -->
<g id="edge17" class="edge">
<title>course__EOS325&#45;&gt;course__EOS431</title>
<path fill="none" stroke="#5d6972" stroke-width="1.2" d="M724.6,-179C741.33,-179 763.76,-179 784.68,-179"/>
<polygon fill="#5d6972" stroke="#5d6972" stroke-width="1.2" points="784.71,-181.45 791.71,-179 784.71,-176.55 784.71,-181.45"/>
</g>
<!-- choice_EOS311_0_2&#45;&gt;course__EOS311 -->
<g id="edge5" class="edge">
<title>choice_EOS311_0_2&#45;&gt;course__EOS311</title>
<path fill="none" stroke="#5d6972" stroke-width="1.2" d="M307.12,-21.29C324.72,-20.82 348.64,-20.17 370.64,-19.58"/>
<polygon fill="#5d6972" stroke="#5d6972" stroke-width="1.2" points="370.77,-22.02 377.7,-19.39 370.64,-17.13 370.77,-22.02"/>
</g>
<!-- choice_EOS314_0_0&#45;&gt;course__EOS314 -->
<g id="edge9" class="edge">
<title>choice_EOS314_0_0&#45;&gt;course__EOS314</title>
<path fill="none" stroke="#5d6972" stroke-width="1.2" d="M307.12,-77.29C331.7,-76.63 368.62,-75.63 395.38,-74.91"/>
<polygon fill="#5d6972" stroke="#5d6972" stroke-width="1.2" points="395.71,-77.35 402.64,-74.71 395.58,-72.45 395.71,-77.35"/>
</g>
<!-- choice_EOS325_0_2_0&#45;&gt;course__EOS325 -->
<g id="edge14" class="edge">
<title>choice_EOS325_0_2_0&#45;&gt;course__EOS325</title>
<path fill="none" stroke="#5d6972" stroke-width="1.2" d="M603.22,-140.75C620.97,-148.03 644.55,-157.7 663.56,-165.49"/>
<polygon fill="#5d6972" stroke="#5d6972" stroke-width="1.2" points="662.93,-167.88 670.34,-168.27 664.79,-163.35 662.93,-167.88"/>
</g>
</g>
</svg>
