<?xml version="1.0" encoding="UTF-8" standalone="no"?>
<!DOCTYPE svg PUBLIC "-//W3C//DTD SVG 1.1//EN"
 "http://www.w3.org/Graphics/SVG/1.1/DTD/svg11.dtd">
<!-- Generated by graphviz version 2.43.0 (0)
 -->
<!-- Title: PHYS499 Pages: 1 -->
<svg width="567pt" height="115pt"
 viewBox="0.00 0.00 567.20 115.20" xmlns="http://www.w3.org/2000/svg" xmlns:xlink="http://www.w3.org/1999/xlink">
<g id="graph0" class="graph" transform="scale(1 1) rotate(0) translate(21.6 93.6)">
<title>PHYS499</title>
<!-- course__PHYS499 -->
<g id="node1" class="node">
<title>course__PHYS499</title>
<g id="a_node1"><a xlink:href="../../../courses/PHYS499.html" xlink:title="PHYS499: Honours Thesis" target="_top">
<path fill="#efd8cf" stroke="#1f4f66" stroke-width="2" d="M512,-54C512,-54 444,-54 444,-54 438,-54 432,-48 432,-42 432,-42 432,-30 432,-30 432,-24 438,-18 444,-18 444,-18 512,-18 512,-18 518,-18 524,-24 524,-30 524,-30 524,-42 524,-42 524,-48 518,-54 512,-54"/>
<text text-anchor="middle" x="478" y="-39" font-family="Avenir Next" font-size="10.00" fill="#17232b">PHYS499</text>
<text text-anchor="middle" x="478" y="-28" font-family="Avenir Next" font-size="10.00" fill="#17232b">Honours Thesis</text>
</a>
</g>
</g>
<!-- PHYS499_notes -->
<g id="node2" class="node">
<title>PHYS499_notes</title>
<polygon fill="#fff7ee" stroke="#b7793f" stroke-width="1.1" points="303,-72 0,-72 0,0 309,0 309,-66 303,-72"/>
<polyline fill="none" stroke="#b7793f" stroke-width="1.1" points="303,-72 303,-66 "/>
<polyline fill="none" stroke="#b7793f" stroke-width="1.1" points="309,-66 303,-66 "/>
<text text-anchor="start" x="13" y="-52.4" font-family="Avenir Next" font-size="12.00">Published notes</text>
<text text-anchor="start" x="13" y="-39.4" font-family="Avenir Next" font-size="12.00">Minimum fourth&#45;year standing</text>
<text text-anchor="start" x="13" y="-26.4" font-family="Avenir Next" font-size="12.00">declared in an Honours program offered by the</text>
<text text-anchor="start" x="13" y="-13.4" font-family="Avenir Next" font-size="12.00">department</text>
</g>
<!-- PHYS499_notes&#45;&gt;course__PHYS499 -->
</g>
</svg>
