<?xml version="1.0" encoding="UTF-8" standalone="no"?>
<!DOCTYPE svg PUBLIC "-//W3C//DTD SVG 1.1//EN"
 "http://www.w3.org/Graphics/SVG/1.1/DTD/svg11.dtd">
<!-- Generated by graphviz version 2.43.0 (0)
 -->
<!-- Title: PHYS340 Pages: 1 -->
<svg width="759pt" height="247pt"
 viewBox="0.00 0.00 759.20 247.20" xmlns="http://www.w3.org/2000/svg" xmlns:xlink="http://www.w3.org/1999/xlink">
<g id="graph0" class="graph" transform="scale(1 1) rotate(0) translate(21.6 225.6)">
<title>PHYS340</title>
<!-- course__PHYS102A -->
<g id="node1" class="node">
<title>course__PHYS102A</title>
<g id="a_node1"><a xlink:href="../../../courses/PHYS102A.html" xlink:title="Collapsed in simplified view: PHYS102A: General Physics I | PHYS110: Introductory Physics I | PHYS120: Physics I" target="_top">
<path fill="#efd8cf" stroke="#1b2730" stroke-width="1.6" d="M47,-134C47,-134 12,-134 12,-134 6,-134 0,-128 0,-122 0,-122 0,-110 0,-110 0,-104 6,-98 12,-98 12,-98 47,-98 47,-98 53,-98 59,-104 59,-110 59,-110 59,-122 59,-122 59,-128 53,-134 47,-134"/>
<text text-anchor="middle" x="29.5" y="-113.5" font-family="Avenir Next" font-size="10.00" fill="#17232b">Physics I</text>
</a>
</g>
</g>
<!-- course__PHYS102B -->
<g id="node3" class="node">
<title>course__PHYS102B</title>
<g id="a_node3"><a xlink:href="../../../courses/PHYS102B.html" xlink:title="Collapsed in simplified view: PHYS102B: General Physics II | PHYS111: Introductory Physics II | PHYS130: Physics II" target="_top">
<path fill="#efd8cf" stroke="#1b2730" stroke-width="1.6" d="M170.5,-134C170.5,-134 132.5,-134 132.5,-134 126.5,-134 120.5,-128 120.5,-122 120.5,-122 120.5,-110 120.5,-110 120.5,-104 126.5,-98 132.5,-98 132.5,-98 170.5,-98 170.5,-98 176.5,-98 182.5,-104 182.5,-110 182.5,-110 182.5,-122 182.5,-122 182.5,-128 176.5,-134 170.5,-134"/>
<text text-anchor="middle" x="151.5" y="-113.5" font-family="Avenir Next" font-size="10.00" fill="#17232b">Physics II</text>
</a>
</g>
</g>
<!-- course__PHYS102A&#45;&gt;course__PHYS102B -->
<g id="edge10" class="edge">
<title>course__PHYS102A&#45;&gt;course__PHYS102B</title>
<path fill="none" stroke="#5d6972" stroke-width="1.2" d="M59.24,-116C75.38,-116 95.71,-116 113.07,-116"/>
<polygon fill="#5d6972" stroke="#5d6972" stroke-width="1.2" points="113.32,-118.45 120.32,-116 113.32,-113.55 113.32,-118.45"/>
</g>
<!-- course__MATH204 -->
<g id="node2" class="node">
<title>course__MATH204</title>
<g id="a_node2"><a xlink:href="../../../courses/MATH204.html" xlink:title="MATH204: Calculus IV" target="_top">
<path fill="#dfe3f4" stroke="#1b2730" stroke-width="1.6" d="M171,-68C171,-68 132,-68 132,-68 126,-68 120,-62 120,-56 120,-56 120,-44 120,-44 120,-38 126,-32 132,-32 132,-32 171,-32 171,-32 177,-32 183,-38 183,-44 183,-44 183,-56 183,-56 183,-62 177,-68 171,-68"/>
<text text-anchor="middle" x="151.5" y="-47.5" font-family="Avenir Next" font-size="10.00" fill="#17232b">MATH204</text>
</a>
</g>
</g>
<!-- course__EOS325 -->
<g id="node4" class="node">
<title>course__EOS325</title>
<g id="a_node4"><a xlink:href="../../../courses/EOS325.html" xlink:title="EOS325: Earth System Modelling" target="_top">
<path fill="#d7e9ef" stroke="#1b2730" stroke-width="1.6" d="M286,-96C286,-96 256,-96 256,-96 250,-96 244,-90 244,-84 244,-84 244,-72 244,-72 244,-66 250,-60 256,-60 256,-60 286,-60 286,-60 292,-60 298,-66 298,-72 298,-72 298,-84 298,-84 298,-90 292,-96 286,-96"/>
<text text-anchor="middle" x="271" y="-75.5" font-family="Avenir Next" font-size="10.00" fill="#17232b">EOS325</text>
</a>
</g>
</g>
<!-- course__MATH204&#45;&gt;course__EOS325 -->
<g id="edge1" class="edge">
<title>course__MATH204&#45;&gt;course__EOS325</title>
<path fill="none" stroke="#5d6972" stroke-width="1.2" d="M183.07,-57.28C199.61,-61.23 220.05,-66.1 236.96,-70.13"/>
<polygon fill="#5d6972" stroke="#5d6972" stroke-width="1.2" points="236.59,-72.56 243.97,-71.8 237.73,-67.79 236.59,-72.56"/>
</g>
<!-- choice_EOS340_1 -->
<g id="node10" class="node">
<title>choice_EOS340_1</title>
<path fill="#fff7ee" stroke="#b7793f" stroke-width="1.1" d="M401,-96C401,-96 371,-96 371,-96 365,-96 359,-90 359,-84 359,-84 359,-72 359,-72 359,-66 365,-60 371,-60 371,-60 401,-60 401,-60 407,-60 413,-66 413,-72 413,-72 413,-84 413,-84 413,-90 407,-96 401,-96"/>
<text text-anchor="middle" x="386" y="-75.8" font-family="Avenir Next" font-size="9.00">1 of</text>
</g>
<!-- course__MATH204&#45;&gt;choice_EOS340_1 -->
<g id="edge5" class="edge">
<title>course__MATH204&#45;&gt;choice_EOS340_1</title>
<path fill="none" stroke="#7a8389" d="M183.09,-47.26C212.68,-45.25 258.7,-43.83 298,-50 316.38,-52.88 336.17,-59 352.23,-64.78"/>
<polygon fill="#7a8389" stroke="#7a8389" points="351.45,-67.11 358.87,-67.23 353.15,-62.51 351.45,-67.11"/>
</g>
<!-- course__PHYS102B&#45;&gt;course__EOS325 -->
<g id="edge2" class="edge">
<title>course__PHYS102B&#45;&gt;course__EOS325</title>
<path fill="none" stroke="#5d6972" stroke-width="1.2" d="M182.76,-106.21C199.3,-100.86 219.82,-94.23 236.8,-88.74"/>
<polygon fill="#5d6972" stroke="#5d6972" stroke-width="1.2" points="237.93,-90.95 243.83,-86.46 236.42,-86.29 237.93,-90.95"/>
</g>
<!-- course__EOS340 -->
<g id="node5" class="node">
<title>course__EOS340</title>
<g id="a_node5"><a xlink:href="../../../courses/PHYS340.html" xlink:title="Equivalent or cross&#45;listed: EOS340: Atmospheric Physics | PHYS340: Atmospheric Physics" target="_top">
<path fill="#d7e9ef" stroke="#1f4f66" stroke-width="2" d="M580,-120C580,-120 486,-120 486,-120 480,-120 474,-114 474,-108 474,-108 474,-96 474,-96 474,-90 480,-84 486,-84 486,-84 580,-84 580,-84 586,-84 592,-90 592,-96 592,-96 592,-108 592,-108 592,-114 586,-120 580,-120"/>
<text text-anchor="middle" x="533" y="-105" font-family="Avenir Next" font-size="10.00" fill="#17232b">EOS340 / PHYS340</text>
<text text-anchor="middle" x="533" y="-94" font-family="Avenir Next" font-size="10.00" fill="#17232b">Atmospheric Physics</text>
</a>
</g>
</g>
<!-- course__PHYS102B&#45;&gt;course__EOS340 -->
<g id="edge3" class="edge">
<title>course__PHYS102B&#45;&gt;course__EOS340</title>
<path fill="none" stroke="#5d6972" stroke-width="1.2" d="M182.6,-114.89C243.75,-112.63 383.76,-107.47 466.79,-104.41"/>
<polygon fill="#5d6972" stroke="#5d6972" stroke-width="1.2" points="467,-106.85 473.9,-104.14 466.82,-101.95 467,-106.85"/>
</g>
<!-- course__EOS325&#45;&gt;choice_EOS340_1 -->
<g id="edge4" class="edge">
<title>course__EOS325&#45;&gt;choice_EOS340_1</title>
<path fill="none" stroke="#7a8389" d="M298.21,-78C314.18,-78 334.74,-78 351.84,-78"/>
<polygon fill="#7a8389" stroke="#7a8389" points="351.93,-80.45 358.93,-78 351.93,-75.55 351.93,-80.45"/>
</g>
<!-- course__EOS433 -->
<g id="node6" class="node">
<title>course__EOS433</title>
<g id="a_node6"><a xlink:href="../../../courses/EOS433.html" xlink:title="EOS433: The Physics of Climate" target="_top">
<path fill="#d7e9ef" stroke="#1b2730" stroke-width="1.6" d="M699.5,-204C699.5,-204 669.5,-204 669.5,-204 663.5,-204 657.5,-198 657.5,-192 657.5,-192 657.5,-180 657.5,-180 657.5,-174 663.5,-168 669.5,-168 669.5,-168 699.5,-168 699.5,-168 705.5,-168 711.5,-174 711.5,-180 711.5,-180 711.5,-192 711.5,-192 711.5,-198 705.5,-204 699.5,-204"/>
<text text-anchor="middle" x="684.5" y="-183.5" font-family="Avenir Next" font-size="10.00" fill="#17232b">EOS433</text>
</a>
</g>
</g>
<!-- course__EOS340&#45;&gt;course__EOS433 -->
<g id="edge7" class="edge">
<title>course__EOS340&#45;&gt;course__EOS433</title>
<path fill="none" stroke="#5d6972" stroke-width="1.2" d="M566.07,-120.02C591.22,-134.15 626.07,-153.73 651.26,-167.89"/>
<polygon fill="#5d6972" stroke="#5d6972" stroke-width="1.2" points="650.15,-170.07 657.45,-171.36 652.55,-165.8 650.15,-170.07"/>
</g>
<!-- course__EOS451 -->
<g id="node7" class="node">
<title>course__EOS451</title>
<g id="a_node7"><a xlink:href="../../../courses/EOS451.html" xlink:title="EOS451: Introductory Dynamic Meteorology" target="_top">
<path fill="#d7e9ef" stroke="#1b2730" stroke-width="1.6" d="M699.5,-148C699.5,-148 669.5,-148 669.5,-148 663.5,-148 657.5,-142 657.5,-136 657.5,-136 657.5,-124 657.5,-124 657.5,-118 663.5,-112 669.5,-112 669.5,-112 699.5,-112 699.5,-112 705.5,-112 711.5,-118 711.5,-124 711.5,-124 711.5,-136 711.5,-136 711.5,-142 705.5,-148 699.5,-148"/>
<text text-anchor="middle" x="684.5" y="-127.5" font-family="Avenir Next" font-size="10.00" fill="#17232b">EOS451</text>
</a>
</g>
</g>
<!-- course__EOS340&#45;&gt;course__EOS451 -->
<g id="edge8" class="edge">
<title>course__EOS340&#45;&gt;course__EOS451</title>
<path fill="none" stroke="#5d6972" stroke-width="1.2" d="M592.23,-112.91C611.88,-116.59 633.15,-120.57 650.2,-123.76"/>
<polygon fill="#5d6972" stroke="#5d6972" stroke-width="1.2" points="649.9,-126.2 657.23,-125.08 650.8,-121.38 649.9,-126.2"/>
</g>
<!-- course__GEOG370 -->
<g id="node8" class="node">
<title>course__GEOG370</title>
<g id="a_node8"><a xlink:href="../../../courses/GEOG370.html" xlink:title="GEOG370: Methods in Hydrology" target="_top">
<path fill="#e7e2d8" stroke="#1b2730" stroke-width="1.6" d="M704,-92C704,-92 665,-92 665,-92 659,-92 653,-86 653,-80 653,-80 653,-68 653,-68 653,-62 659,-56 665,-56 665,-56 704,-56 704,-56 710,-56 716,-62 716,-68 716,-68 716,-80 716,-80 716,-86 710,-92 704,-92"/>
<text text-anchor="middle" x="684.5" y="-71.5" font-family="Avenir Next" font-size="10.00" fill="#17232b">GEOG370</text>
</a>
</g>
</g>
<!-- course__EOS340&#45;&gt;course__GEOG370 -->
<g id="edge9" class="edge">
<title>course__EOS340&#45;&gt;course__GEOG370</title>
<path fill="none" stroke="#5d6972" stroke-width="1.2" d="M592.23,-91.09C610.15,-87.74 629.39,-84.13 645.58,-81.1"/>
<polygon fill="#5d6972" stroke="#5d6972" stroke-width="1.2" points="646.35,-83.45 652.78,-79.75 645.45,-78.63 646.35,-83.45"/>
</g>
<!-- course__PHYS411 -->
<g id="node9" class="node">
<title>course__PHYS411</title>
<g id="a_node9"><a xlink:href="../../../courses/PHYS411.html" xlink:title="PHYS411: Time Series Analysis" target="_top">
<path fill="#efd8cf" stroke="#1b2730" stroke-width="1.6" d="M702.5,-36C702.5,-36 666.5,-36 666.5,-36 660.5,-36 654.5,-30 654.5,-24 654.5,-24 654.5,-12 654.5,-12 654.5,-6 660.5,0 666.5,0 666.5,0 702.5,0 702.5,0 708.5,0 714.5,-6 714.5,-12 714.5,-12 714.5,-24 714.5,-24 714.5,-30 708.5,-36 702.5,-36"/>
<text text-anchor="middle" x="684.5" y="-15.5" font-family="Avenir Next" font-size="10.00" fill="#17232b">PHYS411</text>
</a>
</g>
</g>
<!-- course__EOS340&#45;&gt;course__PHYS411 -->
<g id="edge11" class="edge">
<title>course__EOS340&#45;&gt;course__PHYS411</title>
<path fill="none" stroke="#5d6972" stroke-width="1.2" d="M566.07,-83.98C590.12,-70.47 623.02,-51.98 647.88,-38.01"/>
<polygon fill="#5d6972" stroke="#5d6972" stroke-width="1.2" points="649.12,-40.13 654.02,-34.56 646.72,-35.86 649.12,-40.13"/>
</g>
<!-- choice_EOS340_1&#45;&gt;course__EOS340 -->
<g id="edge6" class="edge">
<title>choice_EOS340_1&#45;&gt;course__EOS340</title>
<path fill="none" stroke="#5d6972" stroke-width="1.2" d="M413.26,-82.35C428.3,-84.84 447.91,-88.08 466.84,-91.22"/>
<polygon fill="#5d6972" stroke="#5d6972" stroke-width="1.2" points="466.47,-93.64 473.78,-92.36 467.27,-88.8 466.47,-93.64"/>
</g>
</g>
</svg>
