<?xml version="1.0" encoding="UTF-8" standalone="no"?>
<!DOCTYPE svg PUBLIC "-//W3C//DTD SVG 1.1//EN"
 "http://www.w3.org/Graphics/SVG/1.1/DTD/svg11.dtd">
<!-- Generated by graphviz version 2.43.0 (0)
 -->
<!-- Title: PHYS102A Pages: 1 -->
<svg width="732pt" height="527pt"
 viewBox="0.00 0.00 732.20 527.20" xmlns="http://www.w3.org/2000/svg" xmlns:xlink="http://www.w3.org/1999/xlink">
<g id="graph0" class="graph" transform="scale(1 1) rotate(0) translate(21.6 505.6)">
<title>PHYS102A</title>
<!-- course__MATH100 -->
<g id="node1" class="node">
<title>course__MATH100</title>
<g id="a_node1"><a xlink:href="../../../courses/MATH100.html" xlink:title="Collapsed in simplified view: MATH100: Calculus I | MATH102: Calculus for Students in the Social and Biological Sciences | MATH109: Introduction to Calculus" target="_top">
<path fill="#dfe3f4" stroke="#1b2730" stroke-width="1.6" d="M52,-284C52,-284 12,-284 12,-284 6,-284 0,-278 0,-272 0,-272 0,-260 0,-260 0,-254 6,-248 12,-248 12,-248 52,-248 52,-248 58,-248 64,-254 64,-260 64,-260 64,-272 64,-272 64,-278 58,-284 52,-284"/>
<text text-anchor="middle" x="32" y="-263.5" font-family="Avenir Next" font-size="10.00" fill="#17232b">Calculus I</text>
</a>
</g>
</g>
<!-- course__PHYS102A -->
<g id="node2" class="node">
<title>course__PHYS102A</title>
<g id="a_node2"><a xlink:href="../../../courses/PHYS102A.html" xlink:title="Collapsed in simplified view: PHYS102A: General Physics I | PHYS110: Introductory Physics I | PHYS120: Physics I" target="_top">
<path fill="#efd8cf" stroke="#1f4f66" stroke-width="2" d="M214,-309C214,-309 137,-309 137,-309 131,-309 125,-303 125,-297 125,-297 125,-285 125,-285 125,-279 131,-273 137,-273 137,-273 214,-273 214,-273 220,-273 226,-279 226,-285 226,-285 226,-297 226,-297 226,-303 220,-309 214,-309"/>
<text text-anchor="middle" x="175.5" y="-294" font-family="Avenir Next" font-size="10.00" fill="#17232b">Physics I</text>
<text text-anchor="middle" x="175.5" y="-283" font-family="Avenir Next" font-size="10.00" fill="#17232b">General Physics I</text>
</a>
</g>
</g>
<!-- course__MATH100&#45;&gt;course__PHYS102A -->
<g id="edge7" class="edge">
<title>course__MATH100&#45;&gt;course__PHYS102A</title>
<path fill="none" stroke="#5d6972" stroke-width="1.2" d="M64.05,-271.49C79.78,-274.27 99.38,-277.73 117.68,-280.96"/>
<polygon fill="#5d6972" stroke="#5d6972" stroke-width="1.2" points="117.57,-283.43 124.89,-282.24 118.42,-278.6 117.57,-283.43"/>
</g>
<!-- course__PHYS102B -->
<g id="node4" class="node">
<title>course__PHYS102B</title>
<g id="a_node4"><a xlink:href="../../../courses/PHYS102B.html" xlink:title="Collapsed in simplified view: PHYS102B: General Physics II | PHYS111: Introductory Physics II | PHYS130: Physics II" target="_top">
<path fill="#efd8cf" stroke="#1b2730" stroke-width="1.6" d="M354.5,-260C354.5,-260 316.5,-260 316.5,-260 310.5,-260 304.5,-254 304.5,-248 304.5,-248 304.5,-236 304.5,-236 304.5,-230 310.5,-224 316.5,-224 316.5,-224 354.5,-224 354.5,-224 360.5,-224 366.5,-230 366.5,-236 366.5,-236 366.5,-248 366.5,-248 366.5,-254 360.5,-260 354.5,-260"/>
<text text-anchor="middle" x="335.5" y="-239.5" font-family="Avenir Next" font-size="10.00" fill="#17232b">Physics II</text>
</a>
</g>
</g>
<!-- course__MATH100&#45;&gt;course__PHYS102B -->
<g id="edge9" class="edge">
<title>course__MATH100&#45;&gt;course__PHYS102B</title>
<path fill="none" stroke="#5d6972" stroke-width="1.2" d="M64.13,-263.52C120.08,-259.07 237.39,-249.73 297.41,-244.95"/>
<polygon fill="#5d6972" stroke="#5d6972" stroke-width="1.2" points="297.65,-247.39 304.43,-244.39 297.26,-242.51 297.65,-247.39"/>
</g>
<!-- course__EOS210 -->
<g id="node3" class="node">
<title>course__EOS210</title>
<g id="a_node3"><a xlink:href="../../../courses/EOS210.html" xlink:title="Collapsed in simplified view: EOS210: Introductory Geophysics | PHYS210: Introductory Geophysics" target="_top">
<path fill="#d7e9ef" stroke="#1b2730" stroke-width="1.6" d="M372,-316C372,-316 299,-316 299,-316 293,-316 287,-310 287,-304 287,-304 287,-292 287,-292 287,-286 293,-280 299,-280 299,-280 372,-280 372,-280 378,-280 384,-286 384,-292 384,-292 384,-304 384,-304 384,-310 378,-316 372,-316"/>
<text text-anchor="middle" x="335.5" y="-295.5" font-family="Avenir Next" font-size="10.00" fill="#17232b">Intro geophysics</text>
</a>
</g>
</g>
<!-- course__PHYS102A&#45;&gt;course__EOS210 -->
<g id="edge1" class="edge">
<title>course__PHYS102A&#45;&gt;course__EOS210</title>
<path fill="none" stroke="#5d6972" stroke-width="1.2" d="M226.06,-293.2C243,-293.95 262.06,-294.79 279.42,-295.56"/>
<polygon fill="#5d6972" stroke="#5d6972" stroke-width="1.2" points="279.64,-298.02 286.74,-295.88 279.85,-293.13 279.64,-298.02"/>
</g>
<!-- course__PHYS102A&#45;&gt;course__PHYS102B -->
<g id="edge8" class="edge">
<title>course__PHYS102A&#45;&gt;course__PHYS102B</title>
<path fill="none" stroke="#5d6972" stroke-width="1.2" d="M226.06,-275.63C249.25,-268.44 276.39,-260.02 297.72,-253.41"/>
<polygon fill="#5d6972" stroke="#5d6972" stroke-width="1.2" points="298.47,-255.74 304.43,-251.33 297.02,-251.06 298.47,-255.74"/>
</g>
<!-- course__EOS311 -->
<g id="node5" class="node">
<title>course__EOS311</title>
<g id="a_node5"><a xlink:href="../../../courses/EOS311.html" xlink:title="Equivalent or cross&#45;listed: BIOL311: Biological Oceanography | EOS311: Biological Oceanography" target="_top">
<path fill="#d7e9ef" stroke="#1b2730" stroke-width="1.6" d="M543,-484C543,-484 463,-484 463,-484 457,-484 451,-478 451,-472 451,-472 451,-460 451,-460 451,-454 457,-448 463,-448 463,-448 543,-448 543,-448 549,-448 555,-454 555,-460 555,-460 555,-472 555,-472 555,-478 549,-484 543,-484"/>
<text text-anchor="middle" x="503" y="-463.5" font-family="Avenir Next" font-size="10.00" fill="#17232b">BIOL311 / EOS311</text>
</a>
</g>
</g>
<!-- course__PHYS102B&#45;&gt;course__EOS311 -->
<g id="edge2" class="edge">
<title>course__PHYS102B&#45;&gt;course__EOS311</title>
<path fill="none" stroke="#5d6972" stroke-width="1.2" d="M366.54,-255.46C372.96,-259.41 379.23,-264.26 384,-270 434.76,-331.1 391.95,-378.87 445,-438 446.76,-439.96 448.69,-441.8 450.74,-443.52"/>
<polygon fill="#5d6972" stroke="#5d6972" stroke-width="1.2" points="449.36,-445.55 456.42,-447.82 452.31,-441.64 449.36,-445.55"/>
</g>
<!-- course__EOS314 -->
<g id="node6" class="node">
<title>course__EOS314</title>
<g id="a_node6"><a xlink:href="../../../courses/EOS314.html" xlink:title="EOS314: Descriptive Physical Oceanography" target="_top">
<path fill="#d7e9ef" stroke="#1b2730" stroke-width="1.6" d="M518,-428C518,-428 488,-428 488,-428 482,-428 476,-422 476,-416 476,-416 476,-404 476,-404 476,-398 482,-392 488,-392 488,-392 518,-392 518,-392 524,-392 530,-398 530,-404 530,-404 530,-416 530,-416 530,-422 524,-428 518,-428"/>
<text text-anchor="middle" x="503" y="-407.5" font-family="Avenir Next" font-size="10.00" fill="#17232b">EOS314</text>
</a>
</g>
</g>
<!-- course__PHYS102B&#45;&gt;course__EOS314 -->
<g id="edge3" class="edge">
<title>course__PHYS102B&#45;&gt;course__EOS314</title>
<path fill="none" stroke="#5d6972" stroke-width="1.2" d="M366.92,-256.61C373.03,-260.42 379.08,-264.91 384,-270 423.39,-310.75 404.08,-342.77 445,-382 451.91,-388.63 460.7,-393.98 469.29,-398.16"/>
<polygon fill="#5d6972" stroke="#5d6972" stroke-width="1.2" points="468.4,-400.45 475.78,-401.13 470.43,-395.99 468.4,-400.45"/>
</g>
<!-- course__EOS340 -->
<g id="node7" class="node">
<title>course__EOS340</title>
<g id="a_node7"><a xlink:href="../../../courses/EOS340.html" xlink:title="Equivalent or cross&#45;listed: EOS340: Atmospheric Physics | PHYS340: Atmospheric Physics" target="_top">
<path fill="#d7e9ef" stroke="#1b2730" stroke-width="1.6" d="M544.5,-372C544.5,-372 461.5,-372 461.5,-372 455.5,-372 449.5,-366 449.5,-360 449.5,-360 449.5,-348 449.5,-348 449.5,-342 455.5,-336 461.5,-336 461.5,-336 544.5,-336 544.5,-336 550.5,-336 556.5,-342 556.5,-348 556.5,-348 556.5,-360 556.5,-360 556.5,-366 550.5,-372 544.5,-372"/>
<text text-anchor="middle" x="503" y="-351.5" font-family="Avenir Next" font-size="10.00" fill="#17232b">EOS340 / PHYS340</text>
</a>
</g>
</g>
<!-- course__PHYS102B&#45;&gt;course__EOS340 -->
<g id="edge4" class="edge">
<title>course__PHYS102B&#45;&gt;course__EOS340</title>
<path fill="none" stroke="#5d6972" stroke-width="1.2" d="M366.51,-258.39C372.45,-262 378.54,-265.95 384,-270 413.57,-291.91 414.62,-305.23 445,-326 448.32,-328.27 451.86,-330.47 455.48,-332.56"/>
<polygon fill="#5d6972" stroke="#5d6972" stroke-width="1.2" points="454.32,-334.71 461.62,-335.98 456.7,-330.43 454.32,-334.71"/>
</g>
<!-- course__EOS431 -->
<g id="node8" class="node">
<title>course__EOS431</title>
<g id="a_node8"><a xlink:href="../../../courses/EOS431.html" xlink:title="Equivalent or cross&#45;listed: EOS431: Physical Oceanography | PHYS441: Physical Oceanography" target="_top">
<path fill="#d7e9ef" stroke="#1b2730" stroke-width="1.6" d="M544.5,-316C544.5,-316 461.5,-316 461.5,-316 455.5,-316 449.5,-310 449.5,-304 449.5,-304 449.5,-292 449.5,-292 449.5,-286 455.5,-280 461.5,-280 461.5,-280 544.5,-280 544.5,-280 550.5,-280 556.5,-286 556.5,-292 556.5,-292 556.5,-304 556.5,-304 556.5,-310 550.5,-316 544.5,-316"/>
<text text-anchor="middle" x="503" y="-295.5" font-family="Avenir Next" font-size="10.00" fill="#17232b">EOS431 / PHYS441</text>
</a>
</g>
</g>
<!-- course__PHYS102B&#45;&gt;course__EOS431 -->
<g id="edge5" class="edge">
<title>course__PHYS102B&#45;&gt;course__EOS431</title>
<path fill="none" stroke="#5d6972" stroke-width="1.2" d="M366.86,-252.27C388.01,-259.43 416.94,-269.22 442.6,-277.9"/>
<polygon fill="#5d6972" stroke="#5d6972" stroke-width="1.2" points="441.97,-280.28 449.39,-280.2 443.54,-275.63 441.97,-280.28"/>
</g>
<!-- course__MATH248 -->
<g id="node9" class="node">
<title>course__MATH248</title>
<g id="a_node9"><a xlink:href="../../../courses/MATH248.html" xlink:title="Equivalent or cross&#45;listed: MATH248: Computer Assisted Mathematics | PHYS248: Computer Assisted Physics" target="_top">
<path fill="#dfe3f4" stroke="#1b2730" stroke-width="1.6" d="M549,-260C549,-260 457,-260 457,-260 451,-260 445,-254 445,-248 445,-248 445,-236 445,-236 445,-230 451,-224 457,-224 457,-224 549,-224 549,-224 555,-224 561,-230 561,-236 561,-236 561,-248 561,-248 561,-254 555,-260 549,-260"/>
<text text-anchor="middle" x="503" y="-239.5" font-family="Avenir Next" font-size="10.00" fill="#17232b">MATH248 / PHYS248</text>
</a>
</g>
</g>
<!-- course__PHYS102B&#45;&gt;course__MATH248 -->
<g id="edge6" class="edge">
<title>course__PHYS102B&#45;&gt;course__MATH248</title>
<path fill="none" stroke="#5d6972" stroke-width="1.2" d="M366.86,-242C386.64,-242 413.23,-242 437.58,-242"/>
<polygon fill="#5d6972" stroke="#5d6972" stroke-width="1.2" points="437.71,-244.45 444.71,-242 437.71,-239.55 437.71,-244.45"/>
</g>
<!-- course__PHYS215 -->
<g id="node10" class="node">
<title>course__PHYS215</title>
<g id="a_node10"><a xlink:href="../../../courses/PHYS215.html" xlink:title="PHYS215: Introductory Quantum Physics" target="_top">
<path fill="#efd8cf" stroke="#1b2730" stroke-width="1.6" d="M521,-204C521,-204 485,-204 485,-204 479,-204 473,-198 473,-192 473,-192 473,-180 473,-180 473,-174 479,-168 485,-168 485,-168 521,-168 521,-168 527,-168 533,-174 533,-180 533,-180 533,-192 533,-192 533,-198 527,-204 521,-204"/>
<text text-anchor="middle" x="503" y="-183.5" font-family="Avenir Next" font-size="10.00" fill="#17232b">PHYS215</text>
</a>
</g>
</g>
<!-- course__PHYS102B&#45;&gt;course__PHYS215 -->
<g id="edge10" class="edge">
<title>course__PHYS102B&#45;&gt;course__PHYS215</title>
<path fill="none" stroke="#5d6972" stroke-width="1.2" d="M366.86,-231.73C394.85,-222.26 436.42,-208.19 466.06,-198.16"/>
<polygon fill="#5d6972" stroke="#5d6972" stroke-width="1.2" points="467.1,-200.4 472.95,-195.83 465.53,-195.75 467.1,-200.4"/>
</g>
<!-- course__PHYS216 -->
<g id="node11" class="node">
<title>course__PHYS216</title>
<g id="a_node11"><a xlink:href="../../../courses/PHYS216.html" xlink:title="PHYS216: Introductory Electricity and Magnetism" target="_top">
<path fill="#efd8cf" stroke="#1b2730" stroke-width="1.6" d="M521,-148C521,-148 485,-148 485,-148 479,-148 473,-142 473,-136 473,-136 473,-124 473,-124 473,-118 479,-112 485,-112 485,-112 521,-112 521,-112 527,-112 533,-118 533,-124 533,-124 533,-136 533,-136 533,-142 527,-148 521,-148"/>
<text text-anchor="middle" x="503" y="-127.5" font-family="Avenir Next" font-size="10.00" fill="#17232b">PHYS216</text>
</a>
</g>
</g>
<!-- course__PHYS102B&#45;&gt;course__PHYS216 -->
<g id="edge11" class="edge">
<title>course__PHYS102B&#45;&gt;course__PHYS216</title>
<path fill="none" stroke="#5d6972" stroke-width="1.2" d="M357.19,-223.93C378.36,-205.94 412.66,-178.17 445,-158 451.73,-153.8 459.18,-149.75 466.42,-146.09"/>
<polygon fill="#5d6972" stroke="#5d6972" stroke-width="1.2" points="467.78,-148.15 472.98,-142.86 465.61,-143.76 467.78,-148.15"/>
</g>
<!-- course__PHYS217 -->
<g id="node12" class="node">
<title>course__PHYS217</title>
<g id="a_node12"><a xlink:href="../../../courses/PHYS217.html" xlink:title="Equivalent or cross&#45;listed: PHYS217: Introductory Thermodynamics | PHYS317: Thermodynamics" target="_top">
<path fill="#efd8cf" stroke="#1b2730" stroke-width="1.6" d="M547.5,-92C547.5,-92 458.5,-92 458.5,-92 452.5,-92 446.5,-86 446.5,-80 446.5,-80 446.5,-68 446.5,-68 446.5,-62 452.5,-56 458.5,-56 458.5,-56 547.5,-56 547.5,-56 553.5,-56 559.5,-62 559.5,-68 559.5,-68 559.5,-80 559.5,-80 559.5,-86 553.5,-92 547.5,-92"/>
<text text-anchor="middle" x="503" y="-71.5" font-family="Avenir Next" font-size="10.00" fill="#17232b">PHYS217 / PHYS317</text>
</a>
</g>
</g>
<!-- course__PHYS102B&#45;&gt;course__PHYS217 -->
<g id="edge12" class="edge">
<title>course__PHYS102B&#45;&gt;course__PHYS217</title>
<path fill="none" stroke="#5d6972" stroke-width="1.2" d="M346.73,-223.96C363.88,-195.05 400.91,-137.95 445,-102 447.64,-99.85 450.47,-97.81 453.41,-95.89"/>
<polygon fill="#5d6972" stroke="#5d6972" stroke-width="1.2" points="454.88,-97.85 459.56,-92.1 452.32,-93.68 454.88,-97.85"/>
</g>
<!-- course__PHYS229 -->
<g id="node13" class="node">
<title>course__PHYS229</title>
<g id="a_node13"><a xlink:href="../../../courses/PHYS229.html" xlink:title="PHYS229: Introduction to Experimental Physics" target="_top">
<path fill="#efd8cf" stroke="#1b2730" stroke-width="1.6" d="M521,-36C521,-36 485,-36 485,-36 479,-36 473,-30 473,-24 473,-24 473,-12 473,-12 473,-6 479,0 485,0 485,0 521,0 521,0 527,0 533,-6 533,-12 533,-12 533,-24 533,-24 533,-30 527,-36 521,-36"/>
<text text-anchor="middle" x="503" y="-15.5" font-family="Avenir Next" font-size="10.00" fill="#17232b">PHYS229</text>
</a>
</g>
</g>
<!-- course__PHYS102B&#45;&gt;course__PHYS229 -->
<g id="edge13" class="edge">
<title>course__PHYS102B&#45;&gt;course__PHYS229</title>
<path fill="none" stroke="#5d6972" stroke-width="1.2" d="M342.29,-223.99C355.17,-186.42 389.51,-98.84 445,-46 451.18,-40.12 458.82,-35.24 466.49,-31.29"/>
<polygon fill="#5d6972" stroke="#5d6972" stroke-width="1.2" points="467.67,-33.44 472.9,-28.18 465.53,-29.03 467.67,-33.44"/>
</g>
<!-- course__PHYS321A -->
<g id="node14" class="node">
<title>course__PHYS321A</title>
<g id="a_node14"><a xlink:href="../../../courses/PHYS321A.html" xlink:title="PHYS321A: Classical Mechanics I" target="_top">
<path fill="#efd8cf" stroke="#1b2730" stroke-width="1.6" d="M677,-260C677,-260 634,-260 634,-260 628,-260 622,-254 622,-248 622,-248 622,-236 622,-236 622,-230 628,-224 634,-224 634,-224 677,-224 677,-224 683,-224 689,-230 689,-236 689,-236 689,-248 689,-248 689,-254 683,-260 677,-260"/>
<text text-anchor="middle" x="655.5" y="-239.5" font-family="Avenir Next" font-size="10.00" fill="#17232b">PHYS321A</text>
</a>
</g>
</g>
<!-- course__MATH248&#45;&gt;course__PHYS321A -->
<g id="edge14" class="edge">
<title>course__MATH248&#45;&gt;course__PHYS321A</title>
<path fill="none" stroke="#5d6972" stroke-width="1.2" d="M561.33,-242C579.05,-242 598.18,-242 614.46,-242"/>
<polygon fill="#5d6972" stroke="#5d6972" stroke-width="1.2" points="614.73,-244.45 621.73,-242 614.73,-239.55 614.73,-244.45"/>
</g>
</g>
</svg>
