<?xml version="1.0" encoding="UTF-8" standalone="no"?>
<!DOCTYPE svg PUBLIC "-//W3C//DTD SVG 1.1//EN"
 "http://www.w3.org/Graphics/SVG/1.1/DTD/svg11.dtd">
<!-- Generated by graphviz version 2.43.0 (0)
 -->
<!-- Title: PHYS325 Pages: 1 -->
<svg width="227pt" height="191pt"
 viewBox="0.00 0.00 227.20 191.20" xmlns="http://www.w3.org/2000/svg" xmlns:xlink="http://www.w3.org/1999/xlink">
<g id="graph0" class="graph" transform="scale(1 1) rotate(0) translate(21.6 169.6)">
<title>PHYS325</title>
<!-- course__MATH204 -->
<g id="node1" class="node">
<title>course__MATH204</title>
<g id="a_node1"><a xlink:href="../../../courses/MATH204.html" xlink:title="MATH204: Calculus IV" target="_top">
<path fill="#dfe3f4" stroke="#1b2730" stroke-width="1.6" d="M51,-148C51,-148 12,-148 12,-148 6,-148 0,-142 0,-136 0,-136 0,-124 0,-124 0,-118 6,-112 12,-112 12,-112 51,-112 51,-112 57,-112 63,-118 63,-124 63,-124 63,-136 63,-136 63,-142 57,-148 51,-148"/>
<text text-anchor="middle" x="31.5" y="-127.5" font-family="Avenir Next" font-size="10.00" fill="#17232b">MATH204</text>
</a>
</g>
</g>
<!-- course__PHYS325 -->
<g id="node4" class="node">
<title>course__PHYS325</title>
<g id="a_node4"><a xlink:href="../../../courses/PHYS325.html" xlink:title="PHYS325: Optics" target="_top">
<path fill="#efd8cf" stroke="#1f4f66" stroke-width="2" d="M172,-92C172,-92 136,-92 136,-92 130,-92 124,-86 124,-80 124,-80 124,-68 124,-68 124,-62 130,-56 136,-56 136,-56 172,-56 172,-56 178,-56 184,-62 184,-68 184,-68 184,-80 184,-80 184,-86 178,-92 172,-92"/>
<text text-anchor="middle" x="154" y="-77" font-family="Avenir Next" font-size="10.00" fill="#17232b">PHYS325</text>
<text text-anchor="middle" x="154" y="-66" font-family="Avenir Next" font-size="10.00" fill="#17232b">Optics</text>
</a>
</g>
</g>
<!-- course__MATH204&#45;&gt;course__PHYS325 -->
<g id="edge2" class="edge">
<title>course__MATH204&#45;&gt;course__PHYS325</title>
<path fill="none" stroke="#5d6972" stroke-width="1.2" d="M63.22,-115.72C79.72,-108.06 100.14,-98.57 117.33,-90.57"/>
<polygon fill="#5d6972" stroke="#5d6972" stroke-width="1.2" points="118.68,-92.65 124,-87.48 116.62,-88.21 118.68,-92.65"/>
</g>
<!-- course__MATH211 -->
<g id="node2" class="node">
<title>course__MATH211</title>
<g id="a_node2"><a xlink:href="../../../courses/MATH211.html" xlink:title="MATH211: Matrix Algebra I" target="_top">
<path fill="#dfe3f4" stroke="#1b2730" stroke-width="1.6" d="M51,-92C51,-92 12,-92 12,-92 6,-92 0,-86 0,-80 0,-80 0,-68 0,-68 0,-62 6,-56 12,-56 12,-56 51,-56 51,-56 57,-56 63,-62 63,-68 63,-68 63,-80 63,-80 63,-86 57,-92 51,-92"/>
<text text-anchor="middle" x="31.5" y="-71.5" font-family="Avenir Next" font-size="10.00" fill="#17232b">MATH211</text>
</a>
</g>
</g>
<!-- course__MATH211&#45;&gt;course__PHYS325 -->
<g id="edge3" class="edge">
<title>course__MATH211&#45;&gt;course__PHYS325</title>
<path fill="none" stroke="#5d6972" stroke-width="1.2" d="M63.22,-74C79.57,-74 99.78,-74 116.88,-74"/>
<polygon fill="#5d6972" stroke="#5d6972" stroke-width="1.2" points="117,-76.45 124,-74 117,-71.55 117,-76.45"/>
</g>
<!-- course__PHYS216 -->
<g id="node3" class="node">
<title>course__PHYS216</title>
<g id="a_node3"><a xlink:href="../../../courses/PHYS216.html" xlink:title="PHYS216: Introductory Electricity and Magnetism" target="_top">
<path fill="#efd8cf" stroke="#1b2730" stroke-width="1.6" d="M49.5,-36C49.5,-36 13.5,-36 13.5,-36 7.5,-36 1.5,-30 1.5,-24 1.5,-24 1.5,-12 1.5,-12 1.5,-6 7.5,0 13.5,0 13.5,0 49.5,0 49.5,0 55.5,0 61.5,-6 61.5,-12 61.5,-12 61.5,-24 61.5,-24 61.5,-30 55.5,-36 49.5,-36"/>
<text text-anchor="middle" x="31.5" y="-15.5" font-family="Avenir Next" font-size="10.00" fill="#17232b">PHYS216</text>
</a>
</g>
</g>
<!-- course__PHYS216&#45;&gt;course__PHYS325 -->
<g id="edge1" class="edge">
<title>course__PHYS216&#45;&gt;course__PHYS325</title>
<path fill="none" stroke="#5d6972" stroke-width="1.2" d="M61.67,-31.56C78.42,-39.34 99.58,-49.17 117.32,-57.42"/>
<polygon fill="#5d6972" stroke="#5d6972" stroke-width="1.2" points="116.3,-59.65 123.68,-60.37 118.37,-55.2 116.3,-59.65"/>
</g>
</g>
</svg>
