<?xml version="1.0" encoding="UTF-8" standalone="no"?>
<!DOCTYPE svg PUBLIC "-//W3C//DTD SVG 1.1//EN"
 "http://www.w3.org/Graphics/SVG/1.1/DTD/svg11.dtd">
<!-- Generated by graphviz version 2.43.0 (0)
 -->
<!-- Title: PHYS102B Pages: 1 -->
<svg width="984pt" height="555pt"
 viewBox="0.00 0.00 984.20 555.20" xmlns="http://www.w3.org/2000/svg" xmlns:xlink="http://www.w3.org/1999/xlink">
<g id="graph0" class="graph" transform="scale(1 1) rotate(0) translate(21.6 533.6)">
<title>PHYS102B</title>
<!-- course__MATH100 -->
<g id="node1" class="node">
<title>course__MATH100</title>
<g id="a_node1"><a xlink:href="../../../courses/MATH100.html" xlink:title="Collapsed in simplified view: MATH100: Calculus I | MATH102: Calculus for Students in the Social and Biological Sciences | MATH109: Introduction to Calculus" target="_top">
<path fill="#dfe3f4" stroke="#1b2730" stroke-width="1.6" d="M52,-145C52,-145 12,-145 12,-145 6,-145 0,-139 0,-133 0,-133 0,-121 0,-121 0,-115 6,-109 12,-109 12,-109 52,-109 52,-109 58,-109 64,-115 64,-121 64,-121 64,-133 64,-133 64,-139 58,-145 52,-145"/>
<text text-anchor="middle" x="32" y="-124.5" font-family="Avenir Next" font-size="10.00" fill="#17232b">Calculus I</text>
</a>
</g>
</g>
<!-- course__MATH101 -->
<g id="node2" class="node">
<title>course__MATH101</title>
<g id="a_node2"><a xlink:href="../../../courses/MATH101.html" xlink:title="MATH101: Calculus II" target="_top">
<path fill="#dfe3f4" stroke="#1b2730" stroke-width="1.6" d="M176,-145C176,-145 137,-145 137,-145 131,-145 125,-139 125,-133 125,-133 125,-121 125,-121 125,-115 131,-109 137,-109 137,-109 176,-109 176,-109 182,-109 188,-115 188,-121 188,-121 188,-133 188,-133 188,-139 182,-145 176,-145"/>
<text text-anchor="middle" x="156.5" y="-124.5" font-family="Avenir Next" font-size="10.00" fill="#17232b">MATH101</text>
</a>
</g>
</g>
<!-- course__MATH100&#45;&gt;course__MATH101 -->
<g id="edge17" class="edge">
<title>course__MATH100&#45;&gt;course__MATH101</title>
<path fill="none" stroke="#5d6972" stroke-width="1.2" d="M64.23,-127C80.48,-127 100.48,-127 117.61,-127"/>
<polygon fill="#5d6972" stroke="#5d6972" stroke-width="1.2" points="117.75,-129.45 124.75,-127 117.75,-124.55 117.75,-129.45"/>
</g>
<!-- course__PHYS102A -->
<g id="node3" class="node">
<title>course__PHYS102A</title>
<g id="a_node3"><a xlink:href="../../../courses/PHYS102A.html" xlink:title="Collapsed in simplified view: PHYS102A: General Physics I | PHYS110: Introductory Physics I | PHYS120: Physics I" target="_top">
<path fill="#efd8cf" stroke="#1b2730" stroke-width="1.6" d="M174,-243C174,-243 139,-243 139,-243 133,-243 127,-237 127,-231 127,-231 127,-219 127,-219 127,-213 133,-207 139,-207 139,-207 174,-207 174,-207 180,-207 186,-213 186,-219 186,-219 186,-231 186,-231 186,-237 180,-243 174,-243"/>
<text text-anchor="middle" x="156.5" y="-222.5" font-family="Avenir Next" font-size="10.00" fill="#17232b">Physics I</text>
</a>
</g>
</g>
<!-- course__MATH100&#45;&gt;course__PHYS102A -->
<g id="edge19" class="edge">
<title>course__MATH100&#45;&gt;course__PHYS102A</title>
<path fill="none" stroke="#5d6972" stroke-width="1.2" d="M55.75,-145.2C75.95,-161.36 105.54,-185.03 127.25,-202.4"/>
<polygon fill="#5d6972" stroke="#5d6972" stroke-width="1.2" points="125.87,-204.43 132.87,-206.89 128.93,-200.61 125.87,-204.43"/>
</g>
<!-- course__PHYS102B -->
<g id="node4" class="node">
<title>course__PHYS102B</title>
<g id="a_node4"><a xlink:href="../../../courses/PHYS102B.html" xlink:title="Collapsed in simplified view: PHYS102B: General Physics II | PHYS111: Introductory Physics II | PHYS130: Physics II" target="_top">
<path fill="#efd8cf" stroke="#1f4f66" stroke-width="2" d="M341,-243C341,-243 261,-243 261,-243 255,-243 249,-237 249,-231 249,-231 249,-219 249,-219 249,-213 255,-207 261,-207 261,-207 341,-207 341,-207 347,-207 353,-213 353,-219 353,-219 353,-231 353,-231 353,-237 347,-243 341,-243"/>
<text text-anchor="middle" x="301" y="-228" font-family="Avenir Next" font-size="10.00" fill="#17232b">Physics II</text>
<text text-anchor="middle" x="301" y="-217" font-family="Avenir Next" font-size="10.00" fill="#17232b">General Physics II</text>
</a>
</g>
</g>
<!-- course__MATH100&#45;&gt;course__PHYS102B -->
<g id="edge21" class="edge">
<title>course__MATH100&#45;&gt;course__PHYS102B</title>
<path fill="none" stroke="#5d6972" stroke-width="1.2" d="M64.15,-138.43C108.08,-154.56 188.96,-184.24 243.61,-204.3"/>
<polygon fill="#5d6972" stroke="#5d6972" stroke-width="1.2" points="243.06,-206.71 250.47,-206.82 244.75,-202.11 243.06,-206.71"/>
</g>
<!-- choice_EOS311_0_2 -->
<g id="node17" class="node">
<title>choice_EOS311_0_2</title>
<path fill="#fff7ee" stroke="#b7793f" stroke-width="1.1" d="M316,-46C316,-46 286,-46 286,-46 280,-46 274,-40 274,-34 274,-34 274,-22 274,-22 274,-16 280,-10 286,-10 286,-10 316,-10 316,-10 322,-10 328,-16 328,-22 328,-22 328,-34 328,-34 328,-40 322,-46 316,-46"/>
<text text-anchor="middle" x="301" y="-25.8" font-family="Avenir Next" font-size="9.00">2 of</text>
</g>
<!-- course__MATH100&#45;&gt;choice_EOS311_0_2 -->
<g id="edge2" class="edge">
<title>course__MATH100&#45;&gt;choice_EOS311_0_2</title>
<path fill="none" stroke="#7a8389" d="M64.18,-112.18C81.85,-104.02 104.46,-93.96 125,-86 173.83,-67.08 231.71,-48.66 267.14,-37.82"/>
<polygon fill="#7a8389" stroke="#7a8389" points="267.94,-40.14 273.92,-35.76 266.51,-35.45 267.94,-40.14"/>
</g>
<!-- choice_EOS314_0_0 -->
<g id="node18" class="node">
<title>choice_EOS314_0_0</title>
<path fill="#fff7ee" stroke="#b7793f" stroke-width="1.1" d="M316,-102C316,-102 286,-102 286,-102 280,-102 274,-96 274,-90 274,-90 274,-78 274,-78 274,-72 280,-66 286,-66 286,-66 316,-66 316,-66 322,-66 328,-72 328,-78 328,-78 328,-90 328,-90 328,-96 322,-102 316,-102"/>
<text text-anchor="middle" x="301" y="-81.8" font-family="Avenir Next" font-size="9.00">2 of</text>
</g>
<!-- course__MATH100&#45;&gt;choice_EOS314_0_0 -->
<g id="edge6" class="edge">
<title>course__MATH100&#45;&gt;choice_EOS314_0_0</title>
<path fill="none" stroke="#7a8389" d="M64.1,-115.75C81.73,-109.83 104.34,-102.98 125,-99 173.78,-89.59 231.34,-86.09 266.76,-84.78"/>
<polygon fill="#7a8389" stroke="#7a8389" points="267.06,-87.22 273.97,-84.53 266.89,-82.32 267.06,-87.22"/>
</g>
<!-- course__MATH101&#45;&gt;course__PHYS102B -->
<g id="edge22" class="edge">
<title>course__MATH101&#45;&gt;course__PHYS102B</title>
<path fill="none" stroke="#5d6972" stroke-width="1.2" d="M183.97,-145.2C207.66,-161.5 242.47,-185.44 267.78,-202.84"/>
<polygon fill="#5d6972" stroke="#5d6972" stroke-width="1.2" points="266.52,-204.95 273.67,-206.89 269.29,-200.91 266.52,-204.95"/>
</g>
<!-- course__MATH101&#45;&gt;choice_EOS311_0_2 -->
<g id="edge3" class="edge">
<title>course__MATH101&#45;&gt;choice_EOS311_0_2</title>
<path fill="none" stroke="#7a8389" d="M178.97,-108.78C197.07,-93.8 223.96,-72.44 249,-56 254.89,-52.13 261.36,-48.29 267.65,-44.76"/>
<polygon fill="#7a8389" stroke="#7a8389" points="268.91,-46.86 273.85,-41.33 266.54,-42.57 268.91,-46.86"/>
</g>
<!-- course__MATH101&#45;&gt;choice_EOS314_0_0 -->
<g id="edge7" class="edge">
<title>course__MATH101&#45;&gt;choice_EOS314_0_0</title>
<path fill="none" stroke="#7a8389" d="M188.07,-117.78C211.29,-110.77 243.19,-101.14 266.99,-93.96"/>
<polygon fill="#7a8389" stroke="#7a8389" points="267.79,-96.28 273.79,-91.91 266.38,-91.59 267.79,-96.28"/>
</g>
<!-- course__PHYS102A&#45;&gt;course__PHYS102B -->
<g id="edge20" class="edge">
<title>course__PHYS102A&#45;&gt;course__PHYS102B</title>
<path fill="none" stroke="#5d6972" stroke-width="1.2" d="M186.34,-225C202.2,-225 222.48,-225 241.5,-225"/>
<polygon fill="#5d6972" stroke="#5d6972" stroke-width="1.2" points="241.72,-227.45 248.72,-225 241.72,-222.55 241.72,-227.45"/>
</g>
<!-- course__EOS261 -->
<g id="node5" class="node">
<title>course__EOS261</title>
<g id="a_node5"><a xlink:href="../../../courses/EOS261.html" xlink:title="EOS261: The Climate System" target="_top">
<path fill="#d7e9ef" stroke="#1b2730" stroke-width="1.6" d="M487,-148C487,-148 457,-148 457,-148 451,-148 445,-142 445,-136 445,-136 445,-124 445,-124 445,-118 451,-112 457,-112 457,-112 487,-112 487,-112 493,-112 499,-118 499,-124 499,-124 499,-136 499,-136 499,-142 493,-148 487,-148"/>
<text text-anchor="middle" x="472" y="-127.5" font-family="Avenir Next" font-size="10.00" fill="#17232b">EOS261</text>
</a>
</g>
</g>
<!-- course__PHYS102B&#45;&gt;course__EOS261 -->
<g id="edge1" class="edge">
<title>course__PHYS102B&#45;&gt;course__EOS261</title>
<path fill="none" stroke="#5d6972" stroke-width="1.2" d="M334.19,-206.91C364.14,-190.07 408.55,-165.11 438.58,-148.23"/>
<polygon fill="#5d6972" stroke="#5d6972" stroke-width="1.2" points="439.85,-150.32 444.76,-144.75 437.45,-146.05 439.85,-150.32"/>
</g>
<!-- course__EOS311 -->
<g id="node6" class="node">
<title>course__EOS311</title>
<g id="a_node6"><a xlink:href="../../../courses/EOS311.html" xlink:title="Equivalent or cross&#45;listed: BIOL311: Biological Oceanography | EOS311: Biological Oceanography" target="_top">
<path fill="#d7e9ef" stroke="#1b2730" stroke-width="1.6" d="M512,-36C512,-36 432,-36 432,-36 426,-36 420,-30 420,-24 420,-24 420,-12 420,-12 420,-6 426,0 432,0 432,0 512,0 512,0 518,0 524,-6 524,-12 524,-12 524,-24 524,-24 524,-30 518,-36 512,-36"/>
<text text-anchor="middle" x="472" y="-15.5" font-family="Avenir Next" font-size="10.00" fill="#17232b">BIOL311 / EOS311</text>
</a>
</g>
</g>
<!-- course__PHYS102B&#45;&gt;course__EOS311 -->
<g id="edge5" class="edge">
<title>course__PHYS102B&#45;&gt;course__EOS311</title>
<path fill="none" stroke="#5d6972" stroke-width="1.2" d="M309.24,-206.97C324.11,-171.87 361.2,-93.65 414,-46 416.3,-43.92 418.79,-41.96 421.38,-40.12"/>
<polygon fill="#5d6972" stroke="#5d6972" stroke-width="1.2" points="423.11,-41.92 427.62,-36.04 420.43,-37.82 423.11,-41.92"/>
</g>
<!-- course__EOS314 -->
<g id="node7" class="node">
<title>course__EOS314</title>
<g id="a_node7"><a xlink:href="../../../courses/EOS314.html" xlink:title="EOS314: Descriptive Physical Oceanography" target="_top">
<path fill="#d7e9ef" stroke="#1b2730" stroke-width="1.6" d="M487,-92C487,-92 457,-92 457,-92 451,-92 445,-86 445,-80 445,-80 445,-68 445,-68 445,-62 451,-56 457,-56 457,-56 487,-56 487,-56 493,-56 499,-62 499,-68 499,-68 499,-80 499,-80 499,-86 493,-92 487,-92"/>
<text text-anchor="middle" x="472" y="-71.5" font-family="Avenir Next" font-size="10.00" fill="#17232b">EOS314</text>
</a>
</g>
</g>
<!-- course__PHYS102B&#45;&gt;course__EOS314 -->
<g id="edge9" class="edge">
<title>course__PHYS102B&#45;&gt;course__EOS314</title>
<path fill="none" stroke="#5d6972" stroke-width="1.2" d="M315.09,-206.74C334.38,-180.82 372.67,-133.05 414,-102 421.3,-96.52 429.84,-91.65 438.06,-87.58"/>
<polygon fill="#5d6972" stroke="#5d6972" stroke-width="1.2" points="439.58,-89.56 444.85,-84.34 437.47,-85.14 439.58,-89.56"/>
</g>
<!-- course__MATH248 -->
<g id="node8" class="node">
<title>course__MATH248</title>
<g id="a_node8"><a xlink:href="../../../courses/MATH248.html" xlink:title="Equivalent or cross&#45;listed: MATH248: Computer Assisted Mathematics | PHYS248: Computer Assisted Physics" target="_top">
<path fill="#dfe3f4" stroke="#1b2730" stroke-width="1.6" d="M518,-456C518,-456 426,-456 426,-456 420,-456 414,-450 414,-444 414,-444 414,-432 414,-432 414,-426 420,-420 426,-420 426,-420 518,-420 518,-420 524,-420 530,-426 530,-432 530,-432 530,-444 530,-444 530,-450 524,-456 518,-456"/>
<text text-anchor="middle" x="472" y="-435.5" font-family="Avenir Next" font-size="10.00" fill="#17232b">MATH248 / PHYS248</text>
</a>
</g>
</g>
<!-- course__PHYS102B&#45;&gt;course__MATH248 -->
<g id="edge18" class="edge">
<title>course__PHYS102B&#45;&gt;course__MATH248</title>
<path fill="none" stroke="#5d6972" stroke-width="1.2" d="M308.85,-243.08C323.29,-279.09 360.01,-360.55 414,-410 416.24,-412.05 418.66,-413.99 421.19,-415.81"/>
<polygon fill="#5d6972" stroke="#5d6972" stroke-width="1.2" points="420.09,-418.02 427.28,-419.84 422.8,-413.93 420.09,-418.02"/>
</g>
<!-- course__PHYS215 -->
<g id="node9" class="node">
<title>course__PHYS215</title>
<g id="a_node9"><a xlink:href="../../../courses/PHYS215.html" xlink:title="PHYS215: Introductory Quantum Physics" target="_top">
<path fill="#efd8cf" stroke="#1b2730" stroke-width="1.6" d="M490,-512C490,-512 454,-512 454,-512 448,-512 442,-506 442,-500 442,-500 442,-488 442,-488 442,-482 448,-476 454,-476 454,-476 490,-476 490,-476 496,-476 502,-482 502,-488 502,-488 502,-500 502,-500 502,-506 496,-512 490,-512"/>
<text text-anchor="middle" x="472" y="-491.5" font-family="Avenir Next" font-size="10.00" fill="#17232b">PHYS215</text>
</a>
</g>
</g>
<!-- course__PHYS102B&#45;&gt;course__PHYS215 -->
<g id="edge23" class="edge">
<title>course__PHYS102B&#45;&gt;course__PHYS215</title>
<path fill="none" stroke="#5d6972" stroke-width="1.2" d="M305.99,-243.1C316.45,-286.74 348.49,-399.06 414,-466 420.02,-472.16 427.68,-477.16 435.41,-481.15"/>
<polygon fill="#5d6972" stroke="#5d6972" stroke-width="1.2" points="434.52,-483.44 441.89,-484.26 436.64,-479.02 434.52,-483.44"/>
</g>
<!-- course__PHYS216 -->
<g id="node10" class="node">
<title>course__PHYS216</title>
<g id="a_node10"><a xlink:href="../../../courses/PHYS216.html" xlink:title="PHYS216: Introductory Electricity and Magnetism" target="_top">
<path fill="#efd8cf" stroke="#1b2730" stroke-width="1.6" d="M490,-400C490,-400 454,-400 454,-400 448,-400 442,-394 442,-388 442,-388 442,-376 442,-376 442,-370 448,-364 454,-364 454,-364 490,-364 490,-364 496,-364 502,-370 502,-376 502,-376 502,-388 502,-388 502,-394 496,-400 490,-400"/>
<text text-anchor="middle" x="472" y="-379.5" font-family="Avenir Next" font-size="10.00" fill="#17232b">PHYS216</text>
</a>
</g>
</g>
<!-- course__PHYS102B&#45;&gt;course__PHYS216 -->
<g id="edge24" class="edge">
<title>course__PHYS102B&#45;&gt;course__PHYS216</title>
<path fill="none" stroke="#5d6972" stroke-width="1.2" d="M315.35,-243.04C334.96,-268.72 373.64,-316.33 414,-349 420.6,-354.34 428.16,-359.36 435.57,-363.79"/>
<polygon fill="#5d6972" stroke="#5d6972" stroke-width="1.2" points="434.46,-365.98 441.74,-367.37 436.92,-361.74 434.46,-365.98"/>
</g>
<!-- course__PHYS217 -->
<g id="node11" class="node">
<title>course__PHYS217</title>
<g id="a_node11"><a xlink:href="../../../courses/PHYS217.html" xlink:title="Equivalent or cross&#45;listed: PHYS217: Introductory Thermodynamics | PHYS317: Thermodynamics" target="_top">
<path fill="#efd8cf" stroke="#1b2730" stroke-width="1.6" d="M516.5,-302C516.5,-302 427.5,-302 427.5,-302 421.5,-302 415.5,-296 415.5,-290 415.5,-290 415.5,-278 415.5,-278 415.5,-272 421.5,-266 427.5,-266 427.5,-266 516.5,-266 516.5,-266 522.5,-266 528.5,-272 528.5,-278 528.5,-278 528.5,-290 528.5,-290 528.5,-296 522.5,-302 516.5,-302"/>
<text text-anchor="middle" x="472" y="-281.5" font-family="Avenir Next" font-size="10.00" fill="#17232b">PHYS217 / PHYS317</text>
</a>
</g>
</g>
<!-- course__PHYS102B&#45;&gt;course__PHYS217 -->
<g id="edge25" class="edge">
<title>course__PHYS102B&#45;&gt;course__PHYS217</title>
<path fill="none" stroke="#5d6972" stroke-width="1.2" d="M353.16,-242.86C371.94,-249.42 393.32,-256.88 412.67,-263.64"/>
<polygon fill="#5d6972" stroke="#5d6972" stroke-width="1.2" points="412.01,-266 419.43,-266 413.63,-261.37 412.01,-266"/>
</g>
<!-- course__PHYS229 -->
<g id="node12" class="node">
<title>course__PHYS229</title>
<g id="a_node12"><a xlink:href="../../../courses/PHYS229.html" xlink:title="PHYS229: Introduction to Experimental Physics" target="_top">
<path fill="#efd8cf" stroke="#1b2730" stroke-width="1.6" d="M490,-246C490,-246 454,-246 454,-246 448,-246 442,-240 442,-234 442,-234 442,-222 442,-222 442,-216 448,-210 454,-210 454,-210 490,-210 490,-210 496,-210 502,-216 502,-222 502,-222 502,-234 502,-234 502,-240 496,-246 490,-246"/>
<text text-anchor="middle" x="472" y="-225.5" font-family="Avenir Next" font-size="10.00" fill="#17232b">PHYS229</text>
</a>
</g>
</g>
<!-- course__PHYS102B&#45;&gt;course__PHYS229 -->
<g id="edge26" class="edge">
<title>course__PHYS102B&#45;&gt;course__PHYS229</title>
<path fill="none" stroke="#5d6972" stroke-width="1.2" d="M353.16,-225.91C379.4,-226.37 410.74,-226.93 434.51,-227.35"/>
<polygon fill="#5d6972" stroke="#5d6972" stroke-width="1.2" points="434.58,-229.8 441.62,-227.48 434.67,-224.9 434.58,-229.8"/>
</g>
<!-- course__EOS325 -->
<g id="node13" class="node">
<title>course__EOS325</title>
<g id="a_node13"><a xlink:href="../../../courses/EOS325.html" xlink:title="EOS325: Earth System Modelling" target="_top">
<path fill="#d7e9ef" stroke="#1b2730" stroke-width="1.6" d="M754.5,-197C754.5,-197 724.5,-197 724.5,-197 718.5,-197 712.5,-191 712.5,-185 712.5,-185 712.5,-173 712.5,-173 712.5,-167 718.5,-161 724.5,-161 724.5,-161 754.5,-161 754.5,-161 760.5,-161 766.5,-167 766.5,-173 766.5,-173 766.5,-185 766.5,-185 766.5,-191 760.5,-197 754.5,-197"/>
<text text-anchor="middle" x="739.5" y="-176.5" font-family="Avenir Next" font-size="10.00" fill="#17232b">EOS325</text>
</a>
</g>
</g>
<!-- course__PHYS102B&#45;&gt;course__EOS325 -->
<g id="edge12" class="edge">
<title>course__PHYS102B&#45;&gt;course__EOS325</title>
<path fill="none" stroke="#5d6972" stroke-width="1.2" d="M353.27,-211.8C372.23,-207.39 393.98,-202.86 414,-200 519.58,-184.89 646.05,-180.65 705.08,-179.46"/>
<polygon fill="#5d6972" stroke="#5d6972" stroke-width="1.2" points="705.33,-181.9 712.28,-179.32 705.23,-177.01 705.33,-181.9"/>
</g>
<!-- course__EOS340 -->
<g id="node15" class="node">
<title>course__EOS340</title>
<g id="a_node15"><a xlink:href="../../../courses/EOS340.html" xlink:title="Equivalent or cross&#45;listed: EOS340: Atmospheric Physics | PHYS340: Atmospheric Physics" target="_top">
<path fill="#d7e9ef" stroke="#1b2730" stroke-width="1.6" d="M929,-302C929,-302 846,-302 846,-302 840,-302 834,-296 834,-290 834,-290 834,-278 834,-278 834,-272 840,-266 846,-266 846,-266 929,-266 929,-266 935,-266 941,-272 941,-278 941,-278 941,-290 941,-290 941,-296 935,-302 929,-302"/>
<text text-anchor="middle" x="887.5" y="-281.5" font-family="Avenir Next" font-size="10.00" fill="#17232b">EOS340 / PHYS340</text>
</a>
</g>
</g>
<!-- course__PHYS102B&#45;&gt;course__EOS340 -->
<g id="edge14" class="edge">
<title>course__PHYS102B&#45;&gt;course__EOS340</title>
<path fill="none" stroke="#5d6972" stroke-width="1.2" d="M318.02,-243.26C338.01,-264.52 374.4,-298.43 414,-312 555.67,-360.56 735.11,-325.79 826.73,-301.72"/>
<polygon fill="#5d6972" stroke="#5d6972" stroke-width="1.2" points="827.57,-304.03 833.71,-299.86 826.31,-299.3 827.57,-304.03"/>
</g>
<!-- choice_EOS325_0_2_0 -->
<g id="node19" class="node">
<title>choice_EOS325_0_2_0</title>
<path fill="#fff7ee" stroke="#b7793f" stroke-width="1.1" d="M633,-148C633,-148 603,-148 603,-148 597,-148 591,-142 591,-136 591,-136 591,-124 591,-124 591,-118 597,-112 603,-112 603,-112 633,-112 633,-112 639,-112 645,-118 645,-124 645,-124 645,-136 645,-136 645,-142 639,-148 633,-148"/>
<text text-anchor="middle" x="618" y="-127.8" font-family="Avenir Next" font-size="9.00">1 of</text>
</g>
<!-- course__EOS261&#45;&gt;choice_EOS325_0_2_0 -->
<g id="edge10" class="edge">
<title>course__EOS261&#45;&gt;choice_EOS325_0_2_0</title>
<path fill="none" stroke="#7a8389" d="M499.08,-130C522.68,-130 557.59,-130 583.3,-130"/>
<polygon fill="#7a8389" stroke="#7a8389" points="583.63,-132.45 590.63,-130 583.63,-127.55 583.63,-132.45"/>
</g>
<!-- course__EOS314&#45;&gt;choice_EOS325_0_2_0 -->
<g id="edge11" class="edge">
<title>course__EOS314&#45;&gt;choice_EOS325_0_2_0</title>
<path fill="none" stroke="#7a8389" d="M499.08,-84.14C522.89,-93.4 558.19,-107.13 583.96,-117.15"/>
<polygon fill="#7a8389" stroke="#7a8389" points="583.22,-119.49 590.63,-119.75 584.99,-114.92 583.22,-119.49"/>
</g>
<!-- course__PHYS321A -->
<g id="node14" class="node">
<title>course__PHYS321A</title>
<g id="a_node14"><a xlink:href="../../../courses/PHYS321A.html" xlink:title="PHYS321A: Classical Mechanics I" target="_top">
<path fill="#efd8cf" stroke="#1b2730" stroke-width="1.6" d="M761,-456C761,-456 718,-456 718,-456 712,-456 706,-450 706,-444 706,-444 706,-432 706,-432 706,-426 712,-420 718,-420 718,-420 761,-420 761,-420 767,-420 773,-426 773,-432 773,-432 773,-444 773,-444 773,-450 767,-456 761,-456"/>
<text text-anchor="middle" x="739.5" y="-435.5" font-family="Avenir Next" font-size="10.00" fill="#17232b">PHYS321A</text>
</a>
</g>
</g>
<!-- course__MATH248&#45;&gt;course__PHYS321A -->
<g id="edge27" class="edge">
<title>course__MATH248&#45;&gt;course__PHYS321A</title>
<path fill="none" stroke="#5d6972" stroke-width="1.2" d="M530.28,-438C581.11,-438 654.05,-438 698.74,-438"/>
<polygon fill="#5d6972" stroke="#5d6972" stroke-width="1.2" points="698.93,-440.45 705.93,-438 698.93,-435.55 698.93,-440.45"/>
</g>
<!-- course__EOS325&#45;&gt;course__EOS340 -->
<g id="edge15" class="edge">
<title>course__EOS325&#45;&gt;course__EOS340</title>
<path fill="none" stroke="#5d6972" stroke-width="1.2" d="M765.6,-197.05C790.46,-214.93 828.59,-242.35 855.37,-261.61"/>
<polygon fill="#5d6972" stroke="#5d6972" stroke-width="1.2" points="854.13,-263.74 861.24,-265.83 856.99,-259.76 854.13,-263.74"/>
</g>
<!-- course__EOS431 -->
<g id="node16" class="node">
<title>course__EOS431</title>
<g id="a_node16"><a xlink:href="../../../courses/EOS431.html" xlink:title="Equivalent or cross&#45;listed: EOS431: Physical Oceanography | PHYS441: Physical Oceanography" target="_top">
<path fill="#d7e9ef" stroke="#1b2730" stroke-width="1.6" d="M929,-197C929,-197 846,-197 846,-197 840,-197 834,-191 834,-185 834,-185 834,-173 834,-173 834,-167 840,-161 846,-161 846,-161 929,-161 929,-161 935,-161 941,-167 941,-173 941,-173 941,-185 941,-185 941,-191 935,-197 929,-197"/>
<text text-anchor="middle" x="887.5" y="-176.5" font-family="Avenir Next" font-size="10.00" fill="#17232b">EOS431 / PHYS441</text>
</a>
</g>
</g>
<!-- course__EOS325&#45;&gt;course__EOS431 -->
<g id="edge16" class="edge">
<title>course__EOS325&#45;&gt;course__EOS431</title>
<path fill="none" stroke="#5d6972" stroke-width="1.2" d="M766.6,-179C783.33,-179 805.76,-179 826.68,-179"/>
<polygon fill="#5d6972" stroke="#5d6972" stroke-width="1.2" points="826.71,-181.45 833.71,-179 826.71,-176.55 826.71,-181.45"/>
</g>
<!-- choice_EOS311_0_2&#45;&gt;course__EOS311 -->
<g id="edge4" class="edge">
<title>choice_EOS311_0_2&#45;&gt;course__EOS311</title>
<path fill="none" stroke="#5d6972" stroke-width="1.2" d="M328.04,-26.46C350.48,-25.13 383.73,-23.16 412.51,-21.46"/>
<polygon fill="#5d6972" stroke="#5d6972" stroke-width="1.2" points="412.88,-23.89 419.73,-21.03 412.59,-19 412.88,-23.89"/>
</g>
<!-- choice_EOS314_0_0&#45;&gt;course__EOS314 -->
<g id="edge8" class="edge">
<title>choice_EOS314_0_0&#45;&gt;course__EOS314</title>
<path fill="none" stroke="#5d6972" stroke-width="1.2" d="M328.04,-82.46C357.56,-80.71 405.76,-77.86 437.93,-75.96"/>
<polygon fill="#5d6972" stroke="#5d6972" stroke-width="1.2" points="438.09,-78.4 444.93,-75.54 437.8,-73.51 438.09,-78.4"/>
</g>
<!-- choice_EOS325_0_2_0&#45;&gt;course__EOS325 -->
<g id="edge13" class="edge">
<title>choice_EOS325_0_2_0&#45;&gt;course__EOS325</title>
<path fill="none" stroke="#5d6972" stroke-width="1.2" d="M645.22,-140.75C662.97,-148.03 686.55,-157.7 705.56,-165.49"/>
<polygon fill="#5d6972" stroke="#5d6972" stroke-width="1.2" points="704.93,-167.88 712.34,-168.27 706.79,-163.35 704.93,-167.88"/>
</g>
</g>
</svg>
