<?xml version="1.0" encoding="UTF-8" standalone="no"?>
<!DOCTYPE svg PUBLIC "-//W3C//DTD SVG 1.1//EN"
 "http://www.w3.org/Graphics/SVG/1.1/DTD/svg11.dtd">
<!-- Generated by graphviz version 2.43.0 (0)
 -->
<!-- Title: PHYS248 Pages: 1 -->
<svg width="1241pt" height="476pt"
 viewBox="0.00 0.00 1241.20 476.20" xmlns="http://www.w3.org/2000/svg" xmlns:xlink="http://www.w3.org/1999/xlink">
<g id="graph0" class="graph" transform="scale(1 1) rotate(0) translate(21.6 454.6)">
<title>PHYS248</title>
<!-- course__MATH100 -->
<g id="node1" class="node">
<title>course__MATH100</title>
<g id="a_node1"><a xlink:href="../../../courses/MATH100.html" xlink:title="Equivalent or cross&#45;listed: MATH100: Calculus I | MATH102: Calculus for Students in the Social and Biological Sciences | MATH109: Introduction to Calculus" target="_top">
<path fill="#dfe3f4" stroke="#7e8d96" d="M99,-289C99,-289 12,-289 12,-289 6,-289 0,-283 0,-277 0,-277 0,-265 0,-265 0,-259 6,-253 12,-253 12,-253 99,-253 99,-253 105,-253 111,-259 111,-265 111,-265 111,-277 111,-277 111,-283 105,-289 99,-289"/>
<text text-anchor="middle" x="55.5" y="-273.8" font-family="Avenir Next" font-size="9.00" fill="#41515b">MATH100 / MATH102</text>
<text text-anchor="middle" x="55.5" y="-263.8" font-family="Avenir Next" font-size="9.00" fill="#41515b">MATH109</text>
</a>
</g>
</g>
<!-- course__MATH101 -->
<g id="node2" class="node">
<title>course__MATH101</title>
<g id="a_node2"><a xlink:href="../../../courses/MATH101.html" xlink:title="MATH101: Calculus II" target="_top">
<path fill="#dfe3f4" stroke="#7e8d96" d="M246,-289C246,-289 211,-289 211,-289 205,-289 199,-283 199,-277 199,-277 199,-265 199,-265 199,-259 205,-253 211,-253 211,-253 246,-253 246,-253 252,-253 258,-259 258,-265 258,-265 258,-277 258,-277 258,-283 252,-289 246,-289"/>
<text text-anchor="middle" x="228.5" y="-268.8" font-family="Avenir Next" font-size="9.00" fill="#41515b">MATH101</text>
</a>
</g>
</g>
<!-- course__MATH100&#45;&gt;course__MATH101 -->
<g id="edge6" class="edge">
<title>course__MATH100&#45;&gt;course__MATH101</title>
<path fill="none" stroke="#5d6972" stroke-width="1.2" d="M111.08,-271C137.36,-271 168.15,-271 191.46,-271"/>
<polygon fill="#5d6972" stroke="#5d6972" stroke-width="1.2" points="191.75,-273.45 198.75,-271 191.75,-268.55 191.75,-273.45"/>
</g>
<!-- course__PHYS110 -->
<g id="node4" class="node">
<title>course__PHYS110</title>
<g id="a_node4"><a xlink:href="../../../courses/PHYS110.html" xlink:title="Equivalent or cross&#45;listed: PHYS110: Introductory Physics I | PHYS120: Physics I" target="_top">
<path fill="#efd8cf" stroke="#1b2730" stroke-width="1.6" d="M273,-226C273,-226 184,-226 184,-226 178,-226 172,-220 172,-214 172,-214 172,-202 172,-202 172,-196 178,-190 184,-190 184,-190 273,-190 273,-190 279,-190 285,-196 285,-202 285,-202 285,-214 285,-214 285,-220 279,-226 273,-226"/>
<text text-anchor="middle" x="228.5" y="-205.5" font-family="Avenir Next" font-size="10.00" fill="#17232b">PHYS110 / PHYS120</text>
</a>
</g>
</g>
<!-- course__MATH100&#45;&gt;course__PHYS110 -->
<g id="edge17" class="edge">
<title>course__MATH100&#45;&gt;course__PHYS110</title>
<path fill="none" stroke="#5d6972" stroke-width="1.2" d="M105.5,-252.95C126.16,-245.33 150.32,-236.43 171.67,-228.57"/>
<polygon fill="#5d6972" stroke="#5d6972" stroke-width="1.2" points="172.77,-230.77 178.49,-226.06 171.08,-226.18 172.77,-230.77"/>
</g>
<!-- course__CSC110 -->
<g id="node5" class="node">
<title>course__CSC110</title>
<g id="a_node5"><a xlink:href="../../../courses/CSC110.html" xlink:title="Equivalent or cross&#45;listed: CSC110: Fundamentals of Programming I | CSC111: Fundamentals of Programming with Engineering Applications" target="_top">
<path fill="#e7ddec" stroke="#1b2730" stroke-width="1.6" d="M559,-341C559,-341 482,-341 482,-341 476,-341 470,-335 470,-329 470,-329 470,-317 470,-317 470,-311 476,-305 482,-305 482,-305 559,-305 559,-305 565,-305 571,-311 571,-317 571,-317 571,-329 571,-329 571,-335 565,-341 559,-341"/>
<text text-anchor="middle" x="520.5" y="-320.5" font-family="Avenir Next" font-size="10.00" fill="#17232b">CSC110 / CSC111</text>
</a>
</g>
</g>
<!-- course__MATH100&#45;&gt;course__CSC110 -->
<g id="edge1" class="edge">
<title>course__MATH100&#45;&gt;course__CSC110</title>
<path fill="none" stroke="#5d6972" stroke-width="1.2" d="M111.05,-286.23C130.19,-291.03 151.92,-295.89 172,-299 273.49,-314.69 393.24,-320.13 462.37,-322.01"/>
<polygon fill="#5d6972" stroke="#5d6972" stroke-width="1.2" points="462.66,-324.46 469.72,-322.2 462.78,-319.57 462.66,-324.46"/>
</g>
<!-- course__PHYS111 -->
<g id="node8" class="node">
<title>course__PHYS111</title>
<g id="a_node8"><a xlink:href="../../../courses/PHYS111.html" xlink:title="Equivalent or cross&#45;listed: PHYS111: Introductory Physics II | PHYS130: Physics II" target="_top">
<path fill="#efd8cf" stroke="#1b2730" stroke-width="1.6" d="M565,-222C565,-222 476,-222 476,-222 470,-222 464,-216 464,-210 464,-210 464,-198 464,-198 464,-192 470,-186 476,-186 476,-186 565,-186 565,-186 571,-186 577,-192 577,-198 577,-198 577,-210 577,-210 577,-216 571,-222 565,-222"/>
<text text-anchor="middle" x="520.5" y="-201.5" font-family="Avenir Next" font-size="10.00" fill="#17232b">PHYS111 / PHYS130</text>
</a>
</g>
</g>
<!-- course__MATH100&#45;&gt;course__PHYS111 -->
<g id="edge19" class="edge">
<title>course__MATH100&#45;&gt;course__PHYS111</title>
<path fill="none" stroke="#5d6972" stroke-width="1.2" d="M72.25,-252.68C92.64,-230.52 130.51,-194.38 172,-180 267.15,-147.02 385.56,-167.1 456.7,-185.17"/>
<polygon fill="#5d6972" stroke="#5d6972" stroke-width="1.2" points="456.47,-187.64 463.86,-187.02 457.7,-182.9 456.47,-187.64"/>
</g>
<!-- choice_MATH211_0 -->
<g id="node22" class="node">
<title>choice_MATH211_0</title>
<path fill="#fff7ee" stroke="#b7793f" stroke-width="1.1" d="M388,-409C388,-409 358,-409 358,-409 352,-409 346,-403 346,-397 346,-397 346,-385 346,-385 346,-379 352,-373 358,-373 358,-373 388,-373 388,-373 394,-373 400,-379 400,-385 400,-385 400,-397 400,-397 400,-403 394,-409 388,-409"/>
<text text-anchor="middle" x="373" y="-388.8" font-family="Avenir Next" font-size="9.00">1 of</text>
</g>
<!-- course__MATH100&#45;&gt;choice_MATH211_0 -->
<g id="edge8" class="edge">
<title>course__MATH100&#45;&gt;choice_MATH211_0</title>
<path fill="none" stroke="#7a8389" d="M82.47,-289.14C105.19,-304.3 139.55,-325.54 172,-339 228.43,-362.41 298.27,-377.68 338.72,-385.29"/>
<polygon fill="#7a8389" stroke="#7a8389" points="338.35,-387.71 345.68,-386.57 339.24,-382.89 338.35,-387.71"/>
</g>
<!-- course__MATH200 -->
<g id="node6" class="node">
<title>course__MATH200</title>
<g id="a_node6"><a xlink:href="../../../courses/MATH200.html" xlink:title="Equivalent or cross&#45;listed: MATH200: Calculus III | MATH202: Intermediate Calculus for CSC and EOS" target="_top">
<path fill="#dfe3f4" stroke="#1b2730" stroke-width="1.6" d="M568,-285C568,-285 473,-285 473,-285 467,-285 461,-279 461,-273 461,-273 461,-261 461,-261 461,-255 467,-249 473,-249 473,-249 568,-249 568,-249 574,-249 580,-255 580,-261 580,-261 580,-273 580,-273 580,-279 574,-285 568,-285"/>
<text text-anchor="middle" x="520.5" y="-264.5" font-family="Avenir Next" font-size="10.00" fill="#17232b">MATH200 / MATH202</text>
</a>
</g>
</g>
<!-- course__MATH101&#45;&gt;course__MATH200 -->
<g id="edge7" class="edge">
<title>course__MATH101&#45;&gt;course__MATH200</title>
<path fill="none" stroke="#5d6972" stroke-width="1.2" d="M258.1,-270.61C303.21,-269.98 392.06,-268.76 453.57,-267.91"/>
<polygon fill="#5d6972" stroke="#5d6972" stroke-width="1.2" points="453.96,-270.35 460.93,-267.81 453.89,-265.45 453.96,-270.35"/>
</g>
<!-- course__MATH101&#45;&gt;course__PHYS111 -->
<g id="edge20" class="edge">
<title>course__MATH101&#45;&gt;course__PHYS111</title>
<path fill="none" stroke="#5d6972" stroke-width="1.2" d="M258.1,-264.39C304.06,-253.77 395.42,-232.67 457.01,-218.44"/>
<polygon fill="#5d6972" stroke="#5d6972" stroke-width="1.2" points="457.72,-220.79 463.99,-216.82 456.62,-216.01 457.72,-220.79"/>
</g>
<!-- course__MATH151 -->
<g id="node3" class="node">
<title>course__MATH151</title>
<g id="a_node3"><a xlink:href="../../../courses/MATH151.html" xlink:title="MATH151: Finite Mathematics" target="_top">
<path fill="#dfe3f4" stroke="#7e8d96" d="M246,-432C246,-432 211,-432 211,-432 205,-432 199,-426 199,-420 199,-420 199,-408 199,-408 199,-402 205,-396 211,-396 211,-396 246,-396 246,-396 252,-396 258,-402 258,-408 258,-408 258,-420 258,-420 258,-426 252,-432 246,-432"/>
<text text-anchor="middle" x="228.5" y="-411.8" font-family="Avenir Next" font-size="9.00" fill="#41515b">MATH151</text>
</a>
</g>
</g>
<!-- course__MATH151&#45;&gt;choice_MATH211_0 -->
<g id="edge9" class="edge">
<title>course__MATH151&#45;&gt;choice_MATH211_0</title>
<path fill="none" stroke="#7a8389" d="M258.34,-409.35C281.58,-405.59 314.29,-400.31 338.65,-396.38"/>
<polygon fill="#7a8389" stroke="#7a8389" points="339.09,-398.79 345.61,-395.26 338.31,-393.96 339.09,-398.79"/>
</g>
<!-- course__PHYS110&#45;&gt;course__PHYS111 -->
<g id="edge18" class="edge">
<title>course__PHYS110&#45;&gt;course__PHYS111</title>
<path fill="none" stroke="#5d6972" stroke-width="1.2" d="M285.07,-207.23C334.08,-206.56 405.45,-205.57 456.55,-204.87"/>
<polygon fill="#5d6972" stroke="#5d6972" stroke-width="1.2" points="456.66,-207.32 463.62,-204.77 456.59,-202.42 456.66,-207.32"/>
</g>
<!-- course__MATH248 -->
<g id="node9" class="node">
<title>course__MATH248</title>
<g id="a_node9"><a xlink:href="../../../courses/PHYS248.html" xlink:title="Equivalent or cross&#45;listed: MATH248: Computer Assisted Mathematics | PHYS248: Computer Assisted Physics" target="_top">
<path fill="#dfe3f4" stroke="#1f4f66" stroke-width="2" d="M778,-285C778,-285 653,-285 653,-285 647,-285 641,-279 641,-273 641,-273 641,-261 641,-261 641,-255 647,-249 653,-249 653,-249 778,-249 778,-249 784,-249 790,-255 790,-261 790,-261 790,-273 790,-273 790,-279 784,-285 778,-285"/>
<text text-anchor="middle" x="715.5" y="-270" font-family="Avenir Next" font-size="10.00" fill="#17232b">MATH248 / PHYS248</text>
<text text-anchor="middle" x="715.5" y="-259" font-family="Avenir Next" font-size="10.00" fill="#17232b">Computer Assisted Physics</text>
</a>
</g>
</g>
<!-- course__CSC110&#45;&gt;course__MATH248 -->
<g id="edge13" class="edge">
<title>course__CSC110&#45;&gt;course__MATH248</title>
<path fill="none" stroke="#5d6972" stroke-width="1.2" d="M571.2,-308.58C593.76,-302.03 620.83,-294.18 645.33,-287.07"/>
<polygon fill="#5d6972" stroke="#5d6972" stroke-width="1.2" points="646.13,-289.39 652.17,-285.09 644.76,-284.68 646.13,-289.39"/>
</g>
<!-- course__MATH200&#45;&gt;course__MATH248 -->
<g id="edge12" class="edge">
<title>course__MATH200&#45;&gt;course__MATH248</title>
<path fill="none" stroke="#5d6972" stroke-width="1.2" d="M580.19,-267C597.03,-267 615.7,-267 633.62,-267"/>
<polygon fill="#5d6972" stroke="#5d6972" stroke-width="1.2" points="633.72,-269.45 640.72,-267 633.72,-264.55 633.72,-269.45"/>
</g>
<!-- course__MATH211 -->
<g id="node7" class="node">
<title>course__MATH211</title>
<g id="a_node7"><a xlink:href="../../../courses/MATH211.html" xlink:title="MATH211: Matrix Algebra I" target="_top">
<path fill="#dfe3f4" stroke="#1b2730" stroke-width="1.6" d="M540,-409C540,-409 501,-409 501,-409 495,-409 489,-403 489,-397 489,-397 489,-385 489,-385 489,-379 495,-373 501,-373 501,-373 540,-373 540,-373 546,-373 552,-379 552,-385 552,-385 552,-397 552,-397 552,-403 546,-409 540,-409"/>
<text text-anchor="middle" x="520.5" y="-388.5" font-family="Avenir Next" font-size="10.00" fill="#17232b">MATH211</text>
</a>
</g>
</g>
<!-- course__MATH211&#45;&gt;course__MATH248 -->
<g id="edge11" class="edge">
<title>course__MATH211&#45;&gt;course__MATH248</title>
<path fill="none" stroke="#5d6972" stroke-width="1.2" d="M549.56,-372.97C584.15,-350.75 642.91,-312.99 680.16,-289.06"/>
<polygon fill="#5d6972" stroke="#5d6972" stroke-width="1.2" points="681.84,-290.9 686.4,-285.05 679.19,-286.77 681.84,-290.9"/>
</g>
<!-- course__PHYS411 -->
<g id="node20" class="node">
<title>course__PHYS411</title>
<g id="a_node20"><a xlink:href="../../../courses/PHYS411.html" xlink:title="PHYS411: Time Series Analysis" target="_top">
<path fill="#efd8cf" stroke="#7e8d96" d="M1163,-433C1163,-433 1129,-433 1129,-433 1123,-433 1117,-427 1117,-421 1117,-421 1117,-409 1117,-409 1117,-403 1123,-397 1129,-397 1129,-397 1163,-397 1163,-397 1169,-397 1175,-403 1175,-409 1175,-409 1175,-421 1175,-421 1175,-427 1169,-433 1163,-433"/>
<text text-anchor="middle" x="1146" y="-412.8" font-family="Avenir Next" font-size="9.00" fill="#41515b">PHYS411</text>
</a>
</g>
</g>
<!-- course__MATH211&#45;&gt;course__PHYS411 -->
<g id="edge30" class="edge">
<title>course__MATH211&#45;&gt;course__PHYS411</title>
<path fill="none" stroke="#5d6972" stroke-width="1.2" d="M552.42,-392.19C657.15,-396.22 998.15,-409.35 1109.48,-413.63"/>
<polygon fill="#5d6972" stroke="#5d6972" stroke-width="1.2" points="1109.7,-416.09 1116.79,-413.91 1109.89,-411.2 1109.7,-416.09"/>
</g>
<!-- course__PHYS111&#45;&gt;course__MATH248 -->
<g id="edge14" class="edge">
<title>course__PHYS111&#45;&gt;course__MATH248</title>
<path fill="none" stroke="#5d6972" stroke-width="1.2" d="M576.81,-222.05C600.43,-229.76 628.1,-238.8 652.42,-246.74"/>
<polygon fill="#5d6972" stroke="#5d6972" stroke-width="1.2" points="651.77,-249.1 659.19,-248.94 653.29,-244.44 651.77,-249.1"/>
</g>
<!-- course__EOS460 -->
<g id="node10" class="node">
<title>course__EOS460</title>
<g id="a_node10"><a xlink:href="../../../courses/EOS460.html" xlink:title="EOS460: Earth System Science" target="_top">
<path fill="#d7e9ef" stroke="#1b2730" stroke-width="1.6" d="M899.5,-216C899.5,-216 869.5,-216 869.5,-216 863.5,-216 857.5,-210 857.5,-204 857.5,-204 857.5,-192 857.5,-192 857.5,-186 863.5,-180 869.5,-180 869.5,-180 899.5,-180 899.5,-180 905.5,-180 911.5,-186 911.5,-192 911.5,-192 911.5,-204 911.5,-204 911.5,-210 905.5,-216 899.5,-216"/>
<text text-anchor="middle" x="884.5" y="-195.5" font-family="Avenir Next" font-size="10.00" fill="#17232b">EOS460</text>
</a>
</g>
</g>
<!-- course__MATH248&#45;&gt;course__EOS460 -->
<g id="edge5" class="edge">
<title>course__MATH248&#45;&gt;course__EOS460</title>
<path fill="none" stroke="#5d6972" stroke-width="1.2" d="M760.38,-248.87C788.59,-237.22 824.65,-222.31 850.45,-211.66"/>
<polygon fill="#5d6972" stroke="#5d6972" stroke-width="1.2" points="851.57,-213.84 857.1,-208.91 849.7,-209.32 851.57,-213.84"/>
</g>
<!-- course__MATH348 -->
<g id="node11" class="node">
<title>course__MATH348</title>
<g id="a_node11"><a xlink:href="../../../courses/MATH348.html" xlink:title="MATH348: Numerical Methods" target="_top">
<path fill="#dfe3f4" stroke="#1b2730" stroke-width="1.6" d="M904,-384C904,-384 865,-384 865,-384 859,-384 853,-378 853,-372 853,-372 853,-360 853,-360 853,-354 859,-348 865,-348 865,-348 904,-348 904,-348 910,-348 916,-354 916,-360 916,-360 916,-372 916,-372 916,-378 910,-384 904,-384"/>
<text text-anchor="middle" x="884.5" y="-363.5" font-family="Avenir Next" font-size="10.00" fill="#17232b">MATH348</text>
</a>
</g>
</g>
<!-- course__MATH248&#45;&gt;course__MATH348 -->
<g id="edge15" class="edge">
<title>course__MATH248&#45;&gt;course__MATH348</title>
<path fill="none" stroke="#5d6972" stroke-width="1.2" d="M747.13,-285.16C775.26,-301.83 816.99,-326.57 846.88,-344.29"/>
<polygon fill="#5d6972" stroke="#5d6972" stroke-width="1.2" points="845.79,-346.49 853.06,-347.96 848.29,-342.28 845.79,-346.49"/>
</g>
<!-- course__PHYS321A -->
<g id="node12" class="node">
<title>course__PHYS321A</title>
<g id="a_node12"><a xlink:href="../../../courses/PHYS321A.html" xlink:title="PHYS321A: Classical Mechanics I" target="_top">
<path fill="#efd8cf" stroke="#1b2730" stroke-width="1.6" d="M906,-160C906,-160 863,-160 863,-160 857,-160 851,-154 851,-148 851,-148 851,-136 851,-136 851,-130 857,-124 863,-124 863,-124 906,-124 906,-124 912,-124 918,-130 918,-136 918,-136 918,-148 918,-148 918,-154 912,-160 906,-160"/>
<text text-anchor="middle" x="884.5" y="-139.5" font-family="Avenir Next" font-size="10.00" fill="#17232b">PHYS321A</text>
</a>
</g>
</g>
<!-- course__MATH248&#45;&gt;course__PHYS321A -->
<g id="edge21" class="edge">
<title>course__MATH248&#45;&gt;course__PHYS321A</title>
<path fill="none" stroke="#5d6972" stroke-width="1.2" d="M740.78,-248.82C770.59,-226.51 821.14,-188.68 853.39,-164.54"/>
<polygon fill="#5d6972" stroke="#5d6972" stroke-width="1.2" points="855.05,-166.35 859.19,-160.2 852.12,-162.43 855.05,-166.35"/>
</g>
<!-- course__PHYS323 -->
<g id="node13" class="node">
<title>course__PHYS323</title>
<g id="a_node13"><a xlink:href="../../../courses/PHYS323.html" xlink:title="PHYS323: Quantum Mechanics I" target="_top">
<path fill="#efd8cf" stroke="#1b2730" stroke-width="1.6" d="M902.5,-328C902.5,-328 866.5,-328 866.5,-328 860.5,-328 854.5,-322 854.5,-316 854.5,-316 854.5,-304 854.5,-304 854.5,-298 860.5,-292 866.5,-292 866.5,-292 902.5,-292 902.5,-292 908.5,-292 914.5,-298 914.5,-304 914.5,-304 914.5,-316 914.5,-316 914.5,-322 908.5,-328 902.5,-328"/>
<text text-anchor="middle" x="884.5" y="-307.5" font-family="Avenir Next" font-size="10.00" fill="#17232b">PHYS323</text>
</a>
</g>
</g>
<!-- course__MATH248&#45;&gt;course__PHYS323 -->
<g id="edge23" class="edge">
<title>course__MATH248&#45;&gt;course__PHYS323</title>
<path fill="none" stroke="#5d6972" stroke-width="1.2" d="M786.84,-285.11C807.77,-290.5 829.84,-296.18 847.59,-300.75"/>
<polygon fill="#5d6972" stroke="#5d6972" stroke-width="1.2" points="847.03,-303.14 854.42,-302.51 848.25,-298.39 847.03,-303.14"/>
</g>
<!-- course__PHYS326 -->
<g id="node14" class="node">
<title>course__PHYS326</title>
<g id="a_node14"><a xlink:href="../../../courses/PHYS326.html" xlink:title="PHYS326: Electricity and Magnetism" target="_top">
<path fill="#efd8cf" stroke="#1b2730" stroke-width="1.6" d="M902.5,-272C902.5,-272 866.5,-272 866.5,-272 860.5,-272 854.5,-266 854.5,-260 854.5,-260 854.5,-248 854.5,-248 854.5,-242 860.5,-236 866.5,-236 866.5,-236 902.5,-236 902.5,-236 908.5,-236 914.5,-242 914.5,-248 914.5,-248 914.5,-260 914.5,-260 914.5,-266 908.5,-272 902.5,-272"/>
<text text-anchor="middle" x="884.5" y="-251.5" font-family="Avenir Next" font-size="10.00" fill="#17232b">PHYS326</text>
</a>
</g>
</g>
<!-- course__MATH248&#45;&gt;course__PHYS326 -->
<g id="edge24" class="edge">
<title>course__MATH248&#45;&gt;course__PHYS326</title>
<path fill="none" stroke="#5d6972" stroke-width="1.2" d="M790.23,-261.26C809.94,-259.73 830.37,-258.14 847.07,-256.84"/>
<polygon fill="#5d6972" stroke="#5d6972" stroke-width="1.2" points="847.68,-259.25 854.47,-256.26 847.3,-254.36 847.68,-259.25"/>
</g>
<!-- course__MATH449 -->
<g id="node17" class="node">
<title>course__MATH449</title>
<g id="a_node17"><a xlink:href="../../../courses/MATH449.html" xlink:title="MATH449: Scientific Computing" target="_top">
<path fill="#dfe3f4" stroke="#7e8d96" d="M1163.5,-377C1163.5,-377 1128.5,-377 1128.5,-377 1122.5,-377 1116.5,-371 1116.5,-365 1116.5,-365 1116.5,-353 1116.5,-353 1116.5,-347 1122.5,-341 1128.5,-341 1128.5,-341 1163.5,-341 1163.5,-341 1169.5,-341 1175.5,-347 1175.5,-353 1175.5,-353 1175.5,-365 1175.5,-365 1175.5,-371 1169.5,-377 1163.5,-377"/>
<text text-anchor="middle" x="1146" y="-356.8" font-family="Avenir Next" font-size="9.00" fill="#41515b">MATH449</text>
</a>
</g>
</g>
<!-- course__MATH348&#45;&gt;course__MATH449 -->
<g id="edge16" class="edge">
<title>course__MATH348&#45;&gt;course__MATH449</title>
<path fill="none" stroke="#5d6972" stroke-width="1.2" d="M916.03,-365.18C964.17,-363.88 1057.52,-361.36 1108.91,-359.97"/>
<polygon fill="#5d6972" stroke="#5d6972" stroke-width="1.2" points="1109.24,-362.42 1116.17,-359.78 1109.11,-357.52 1109.24,-362.42"/>
</g>
<!-- course__EOS427 -->
<g id="node15" class="node">
<title>course__EOS427</title>
<g id="a_node15"><a xlink:href="../../../courses/EOS427.html" xlink:title="Equivalent or cross&#45;listed: EOS427: Geophysics | PHYS427: Geophysics" target="_top">
<path fill="#d7e9ef" stroke="#7e8d96" d="M1186,-267C1186,-267 1106,-267 1106,-267 1100,-267 1094,-261 1094,-255 1094,-255 1094,-243 1094,-243 1094,-237 1100,-231 1106,-231 1106,-231 1186,-231 1186,-231 1192,-231 1198,-237 1198,-243 1198,-243 1198,-255 1198,-255 1198,-261 1192,-267 1186,-267"/>
<text text-anchor="middle" x="1146" y="-246.8" font-family="Avenir Next" font-size="9.00" fill="#41515b">EOS427 / PHYS427</text>
</a>
</g>
</g>
<!-- course__PHYS321A&#45;&gt;course__EOS427 -->
<g id="edge2" class="edge">
<title>course__PHYS321A&#45;&gt;course__EOS427</title>
<path fill="none" stroke="#5d6972" stroke-width="1.2" d="M918.1,-155.44C962.49,-173.74 1042.36,-206.68 1094.52,-228.19"/>
<polygon fill="#5d6972" stroke="#5d6972" stroke-width="1.2" points="1093.65,-230.48 1101.06,-230.88 1095.52,-225.95 1093.65,-230.48"/>
</g>
<!-- course__EOS451 -->
<g id="node16" class="node">
<title>course__EOS451</title>
<g id="a_node16"><a xlink:href="../../../courses/EOS451.html" xlink:title="EOS451: Introductory Dynamic Meteorology" target="_top">
<path fill="#d7e9ef" stroke="#7e8d96" d="M1161,-204C1161,-204 1131,-204 1131,-204 1125,-204 1119,-198 1119,-192 1119,-192 1119,-180 1119,-180 1119,-174 1125,-168 1131,-168 1131,-168 1161,-168 1161,-168 1167,-168 1173,-174 1173,-180 1173,-180 1173,-192 1173,-192 1173,-198 1167,-204 1161,-204"/>
<text text-anchor="middle" x="1146" y="-183.8" font-family="Avenir Next" font-size="9.00" fill="#41515b">EOS451</text>
</a>
</g>
</g>
<!-- course__PHYS321A&#45;&gt;course__EOS451 -->
<g id="edge4" class="edge">
<title>course__PHYS321A&#45;&gt;course__EOS451</title>
<path fill="none" stroke="#5d6972" stroke-width="1.2" d="M918.1,-147.53C967.8,-155.95 1061.97,-171.92 1111.94,-180.39"/>
<polygon fill="#5d6972" stroke="#5d6972" stroke-width="1.2" points="1111.67,-182.83 1118.98,-181.59 1112.48,-178 1111.67,-182.83"/>
</g>
<!-- course__PHYS321B -->
<g id="node18" class="node">
<title>course__PHYS321B</title>
<g id="a_node18"><a xlink:href="../../../courses/PHYS321B.html" xlink:title="PHYS321B: Classical Mechanics II" target="_top">
<path fill="#efd8cf" stroke="#7e8d96" d="M1166,-148C1166,-148 1126,-148 1126,-148 1120,-148 1114,-142 1114,-136 1114,-136 1114,-124 1114,-124 1114,-118 1120,-112 1126,-112 1126,-112 1166,-112 1166,-112 1172,-112 1178,-118 1178,-124 1178,-124 1178,-136 1178,-136 1178,-142 1172,-148 1166,-148"/>
<text text-anchor="middle" x="1146" y="-127.8" font-family="Avenir Next" font-size="9.00" fill="#41515b">PHYS321B</text>
</a>
</g>
</g>
<!-- course__PHYS321A&#45;&gt;course__PHYS321B -->
<g id="edge22" class="edge">
<title>course__PHYS321A&#45;&gt;course__PHYS321B</title>
<path fill="none" stroke="#5d6972" stroke-width="1.2" d="M918.1,-140.49C966.11,-138.27 1055.63,-134.13 1106.7,-131.77"/>
<polygon fill="#5d6972" stroke="#5d6972" stroke-width="1.2" points="1107.07,-134.21 1113.94,-131.44 1106.84,-129.31 1107.07,-134.21"/>
</g>
<!-- course__PHYS410 -->
<g id="node19" class="node">
<title>course__PHYS410</title>
<g id="a_node19"><a xlink:href="../../../courses/PHYS410.html" xlink:title="PHYS410: Topics in Mathematical Physics I" target="_top">
<path fill="#efd8cf" stroke="#7e8d96" d="M1163,-92C1163,-92 1129,-92 1129,-92 1123,-92 1117,-86 1117,-80 1117,-80 1117,-68 1117,-68 1117,-62 1123,-56 1129,-56 1129,-56 1163,-56 1163,-56 1169,-56 1175,-62 1175,-68 1175,-68 1175,-80 1175,-80 1175,-86 1169,-92 1163,-92"/>
<text text-anchor="middle" x="1146" y="-71.8" font-family="Avenir Next" font-size="9.00" fill="#41515b">PHYS410</text>
</a>
</g>
</g>
<!-- course__PHYS321A&#45;&gt;course__PHYS410 -->
<g id="edge25" class="edge">
<title>course__PHYS321A&#45;&gt;course__PHYS410</title>
<path fill="none" stroke="#5d6972" stroke-width="1.2" d="M918.1,-133.46C967.12,-120.61 1059.41,-96.43 1109.87,-83.21"/>
<polygon fill="#5d6972" stroke="#5d6972" stroke-width="1.2" points="1110.55,-85.56 1116.7,-81.42 1109.31,-80.82 1110.55,-85.56"/>
</g>
<!-- course__PHYS426 -->
<g id="node21" class="node">
<title>course__PHYS426</title>
<g id="a_node21"><a xlink:href="../../../courses/PHYS426.html" xlink:title="PHYS426: Fluid Mechanics" target="_top">
<path fill="#efd8cf" stroke="#1b2730" stroke-width="1.6" d="M1164,-36C1164,-36 1128,-36 1128,-36 1122,-36 1116,-30 1116,-24 1116,-24 1116,-12 1116,-12 1116,-6 1122,0 1128,0 1128,0 1164,0 1164,0 1170,0 1176,-6 1176,-12 1176,-12 1176,-24 1176,-24 1176,-30 1170,-36 1164,-36"/>
<text text-anchor="middle" x="1146" y="-15.5" font-family="Avenir Next" font-size="10.00" fill="#17232b">PHYS426</text>
</a>
</g>
</g>
<!-- course__PHYS321A&#45;&gt;course__PHYS426 -->
<g id="edge31" class="edge">
<title>course__PHYS321A&#45;&gt;course__PHYS426</title>
<path fill="none" stroke="#5d6972" stroke-width="1.2" d="M918.1,-126.42C966.96,-103.08 1058.8,-59.19 1109.37,-35.03"/>
<polygon fill="#5d6972" stroke="#5d6972" stroke-width="1.2" points="1110.66,-37.12 1115.92,-31.89 1108.55,-32.7 1110.66,-37.12"/>
</g>
<!-- choice_PHYS411_0_0 -->
<g id="node23" class="node">
<title>choice_PHYS411_0_0</title>
<path fill="#fff7ee" stroke="#b7793f" stroke-width="1.1" d="M1021,-326C1021,-326 991,-326 991,-326 985,-326 979,-320 979,-314 979,-314 979,-302 979,-302 979,-296 985,-290 991,-290 991,-290 1021,-290 1021,-290 1027,-290 1033,-296 1033,-302 1033,-302 1033,-314 1033,-314 1033,-320 1027,-326 1021,-326"/>
<text text-anchor="middle" x="1006" y="-305.8" font-family="Avenir Next" font-size="9.00">2 of</text>
</g>
<!-- course__PHYS321A&#45;&gt;choice_PHYS411_0_0 -->
<g id="edge26" class="edge">
<title>course__PHYS321A&#45;&gt;choice_PHYS411_0_0</title>
<path fill="none" stroke="#7a8389" d="M908.35,-160.15C911.75,-163.28 915.08,-166.61 918,-170 949.14,-206.16 976.98,-254.5 992.37,-283.32"/>
<polygon fill="#7a8389" stroke="#7a8389" points="990.39,-284.82 995.83,-289.86 994.72,-282.53 990.39,-284.82"/>
</g>
<!-- course__PHYS323&#45;&gt;choice_PHYS411_0_0 -->
<g id="edge27" class="edge">
<title>course__PHYS323&#45;&gt;choice_PHYS411_0_0</title>
<path fill="none" stroke="#7a8389" d="M914.73,-309.51C931.9,-309.22 953.67,-308.86 971.53,-308.56"/>
<polygon fill="#7a8389" stroke="#7a8389" points="971.96,-311 978.92,-308.44 971.88,-306.1 971.96,-311"/>
</g>
<!-- course__PHYS326&#45;&gt;course__EOS427 -->
<g id="edge3" class="edge">
<title>course__PHYS326&#45;&gt;course__EOS427</title>
<path fill="none" stroke="#5d6972" stroke-width="1.2" d="M914.51,-253.44C956.03,-252.64 1033.28,-251.15 1086.84,-250.12"/>
<polygon fill="#5d6972" stroke="#5d6972" stroke-width="1.2" points="1086.95,-252.57 1093.9,-249.98 1086.85,-247.67 1086.95,-252.57"/>
</g>
<!-- course__PHYS326&#45;&gt;choice_PHYS411_0_0 -->
<g id="edge28" class="edge">
<title>course__PHYS326&#45;&gt;choice_PHYS411_0_0</title>
<path fill="none" stroke="#7a8389" d="M914.73,-267.21C932.21,-275.11 954.45,-285.16 972.48,-293.3"/>
<polygon fill="#7a8389" stroke="#7a8389" points="971.53,-295.56 978.92,-296.21 973.55,-291.1 971.53,-295.56"/>
</g>
<!-- choice_MATH211_0&#45;&gt;course__MATH211 -->
<g id="edge10" class="edge">
<title>choice_MATH211_0&#45;&gt;course__MATH211</title>
<path fill="none" stroke="#5d6972" stroke-width="1.2" d="M400.01,-391C422.8,-391 456.2,-391 481.9,-391"/>
<polygon fill="#5d6972" stroke="#5d6972" stroke-width="1.2" points="481.93,-393.45 488.92,-391 481.92,-388.55 481.93,-393.45"/>
</g>
<!-- choice_PHYS411_0_0&#45;&gt;course__PHYS411 -->
<g id="edge29" class="edge">
<title>choice_PHYS411_0_0&#45;&gt;course__PHYS411</title>
<path fill="none" stroke="#5d6972" stroke-width="1.2" d="M1024.59,-326.28C1041.45,-343.22 1068.09,-368.52 1094,-387 1099.19,-390.7 1104.93,-394.29 1110.62,-397.58"/>
<polygon fill="#5d6972" stroke="#5d6972" stroke-width="1.2" points="1109.45,-399.73 1116.75,-401.03 1111.86,-395.46 1109.45,-399.73"/>
</g>
</g>
</svg>
