<?xml version="1.0" encoding="UTF-8" standalone="no"?>
<!DOCTYPE svg PUBLIC "-//W3C//DTD SVG 1.1//EN"
 "http://www.w3.org/Graphics/SVG/1.1/DTD/svg11.dtd">
<!-- Generated by graphviz version 2.43.0 (0)
 -->
<!-- Title: PHYS102B Pages: 1 -->
<svg width="1762pt" height="638pt"
 viewBox="0.00 0.00 1762.20 638.20" xmlns="http://www.w3.org/2000/svg" xmlns:xlink="http://www.w3.org/1999/xlink">
<g id="graph0" class="graph" transform="scale(1 1) rotate(0) translate(21.6 616.6)">
<title>PHYS102B</title>
<!-- course__MATH100 -->
<g id="node1" class="node">
<title>course__MATH100</title>
<g id="a_node1"><a xlink:href="../../../courses/MATH100.html" xlink:title="Equivalent or cross&#45;listed: MATH100: Calculus I | MATH102: Calculus for Students in the Social and Biological Sciences | MATH109: Introduction to Calculus" target="_top">
<path fill="#dfe3f4" stroke="#7e8d96" d="M99,-438C99,-438 12,-438 12,-438 6,-438 0,-432 0,-426 0,-426 0,-414 0,-414 0,-408 6,-402 12,-402 12,-402 99,-402 99,-402 105,-402 111,-408 111,-414 111,-414 111,-426 111,-426 111,-432 105,-438 99,-438"/>
<text text-anchor="middle" x="55.5" y="-422.8" font-family="Avenir Next" font-size="9.00" fill="#41515b">MATH100 / MATH102</text>
<text text-anchor="middle" x="55.5" y="-412.8" font-family="Avenir Next" font-size="9.00" fill="#41515b">MATH109</text>
</a>
</g>
</g>
<!-- course__PHYS110 -->
<g id="node3" class="node">
<title>course__PHYS110</title>
<g id="a_node3"><a xlink:href="../../../courses/PHYS110.html" xlink:title="Equivalent or cross&#45;listed: PHYS110: Introductory Physics I | PHYS120: Physics I" target="_top">
<path fill="#efd8cf" stroke="#1b2730" stroke-width="1.6" d="M273,-291C273,-291 184,-291 184,-291 178,-291 172,-285 172,-279 172,-279 172,-267 172,-267 172,-261 178,-255 184,-255 184,-255 273,-255 273,-255 279,-255 285,-261 285,-267 285,-267 285,-279 285,-279 285,-285 279,-291 273,-291"/>
<text text-anchor="middle" x="228.5" y="-270.5" font-family="Avenir Next" font-size="10.00" fill="#17232b">PHYS110 / PHYS120</text>
</a>
</g>
</g>
<!-- course__MATH100&#45;&gt;course__PHYS110 -->
<g id="edge50" class="edge">
<title>course__MATH100&#45;&gt;course__PHYS110</title>
<path fill="none" stroke="#5d6972" stroke-width="1.2" d="M77.47,-401.97C108.49,-375.3 166.62,-325.34 200.7,-296.04"/>
<polygon fill="#5d6972" stroke="#5d6972" stroke-width="1.2" points="202.65,-297.59 206.36,-291.17 199.46,-293.88 202.65,-297.59"/>
</g>
<!-- course__EOS311 -->
<g id="node6" class="node">
<title>course__EOS311</title>
<g id="a_node6"><a xlink:href="../../../courses/EOS311.html" xlink:title="Equivalent or cross&#45;listed: BIOL311: Biological Oceanography | EOS311: Biological Oceanography" target="_top">
<path fill="#d7e9ef" stroke="#1b2730" stroke-width="1.6" d="M833,-508C833,-508 753,-508 753,-508 747,-508 741,-502 741,-496 741,-496 741,-484 741,-484 741,-478 747,-472 753,-472 753,-472 833,-472 833,-472 839,-472 845,-478 845,-484 845,-484 845,-496 845,-496 845,-502 839,-508 833,-508"/>
<text text-anchor="middle" x="793" y="-487.5" font-family="Avenir Next" font-size="10.00" fill="#17232b">BIOL311 / EOS311</text>
</a>
</g>
</g>
<!-- course__MATH100&#45;&gt;course__EOS311 -->
<g id="edge6" class="edge">
<title>course__MATH100&#45;&gt;course__EOS311</title>
<path fill="none" stroke="#5d6972" stroke-width="1.2" d="M106.89,-438.09C126.95,-444.78 150.37,-451.95 172,-457 259.53,-477.44 282.12,-487 372,-487 372,-487 372,-487 514,-487 589.91,-487 677.47,-488.13 733.72,-489.01"/>
<polygon fill="#5d6972" stroke="#5d6972" stroke-width="1.2" points="733.73,-491.46 740.76,-489.12 733.8,-486.56 733.73,-491.46"/>
</g>
<!-- course__EOS314 -->
<g id="node7" class="node">
<title>course__EOS314</title>
<g id="a_node7"><a xlink:href="../../../courses/EOS314.html" xlink:title="EOS314: Descriptive Physical Oceanography" target="_top">
<path fill="#d7e9ef" stroke="#1b2730" stroke-width="1.6" d="M808,-368C808,-368 778,-368 778,-368 772,-368 766,-362 766,-356 766,-356 766,-344 766,-344 766,-338 772,-332 778,-332 778,-332 808,-332 808,-332 814,-332 820,-338 820,-344 820,-344 820,-356 820,-356 820,-362 814,-368 808,-368"/>
<text text-anchor="middle" x="793" y="-347.5" font-family="Avenir Next" font-size="10.00" fill="#17232b">EOS314</text>
</a>
</g>
</g>
<!-- course__MATH100&#45;&gt;course__EOS314 -->
<g id="edge14" class="edge">
<title>course__MATH100&#45;&gt;course__EOS314</title>
<path fill="none" stroke="#5d6972" stroke-width="1.2" d="M111.14,-414.15C174,-407.94 280.32,-399 372,-399 372,-399 372,-399 514,-399 603.63,-399 707.09,-373.99 758.87,-359.7"/>
<polygon fill="#5d6972" stroke="#5d6972" stroke-width="1.2" points="759.74,-362.01 765.82,-357.76 758.42,-357.29 759.74,-362.01"/>
</g>
<!-- course__EOS312 -->
<g id="node16" class="node">
<title>course__EOS312</title>
<g id="a_node16"><a xlink:href="../../../courses/EOS312.html" xlink:title="EOS312: Introductory Chemical Oceanography" target="_top">
<path fill="#d7e9ef" stroke="#7e8d96" d="M1466.5,-434C1466.5,-434 1436.5,-434 1436.5,-434 1430.5,-434 1424.5,-428 1424.5,-422 1424.5,-422 1424.5,-410 1424.5,-410 1424.5,-404 1430.5,-398 1436.5,-398 1436.5,-398 1466.5,-398 1466.5,-398 1472.5,-398 1478.5,-404 1478.5,-410 1478.5,-410 1478.5,-422 1478.5,-422 1478.5,-428 1472.5,-434 1466.5,-434"/>
<text text-anchor="middle" x="1451.5" y="-413.8" font-family="Avenir Next" font-size="9.00" fill="#41515b">EOS312</text>
</a>
</g>
</g>
<!-- course__MATH100&#45;&gt;course__EOS312 -->
<g id="edge11" class="edge">
<title>course__MATH100&#45;&gt;course__EOS312</title>
<path fill="none" stroke="#5d6972" stroke-width="1.2" d="M111.14,-425.85C174,-432.06 280.32,-441 372,-441 372,-441 372,-441 1192.5,-441 1273.4,-441 1367.91,-428.67 1417.02,-421.33"/>
<polygon fill="#5d6972" stroke="#5d6972" stroke-width="1.2" points="1417.66,-423.71 1424.21,-420.24 1416.92,-418.87 1417.66,-423.71"/>
</g>
<!-- course__PHYS102A -->
<g id="node2" class="node">
<title>course__PHYS102A</title>
<g id="a_node2"><a xlink:href="../../../courses/PHYS102A.html" xlink:title="PHYS102A: General Physics I" target="_top">
<path fill="#efd8cf" stroke="#1b2730" stroke-width="1.6" d="M250,-123C250,-123 207,-123 207,-123 201,-123 195,-117 195,-111 195,-111 195,-99 195,-99 195,-93 201,-87 207,-87 207,-87 250,-87 250,-87 256,-87 262,-93 262,-99 262,-99 262,-111 262,-111 262,-117 256,-123 250,-123"/>
<text text-anchor="middle" x="228.5" y="-102.5" font-family="Avenir Next" font-size="10.00" fill="#17232b">PHYS102A</text>
</a>
</g>
</g>
<!-- choice_PHYS102B_0 -->
<g id="node35" class="node">
<title>choice_PHYS102B_0</title>
<path fill="#fff7ee" stroke="#b7793f" stroke-width="1.1" d="M388,-123C388,-123 358,-123 358,-123 352,-123 346,-117 346,-111 346,-111 346,-99 346,-99 346,-93 352,-87 358,-87 358,-87 388,-87 388,-87 394,-87 400,-93 400,-99 400,-99 400,-111 400,-111 400,-117 394,-123 388,-123"/>
<text text-anchor="middle" x="373" y="-102.8" font-family="Avenir Next" font-size="9.00">1 of</text>
</g>
<!-- course__PHYS102A&#45;&gt;choice_PHYS102B_0 -->
<g id="edge47" class="edge">
<title>course__PHYS102A&#45;&gt;choice_PHYS102B_0</title>
<path fill="none" stroke="#7a8389" d="M262.19,-105C285.03,-105 315.43,-105 338.45,-105"/>
<polygon fill="#7a8389" stroke="#7a8389" points="338.65,-107.45 345.65,-105 338.65,-102.55 338.65,-107.45"/>
</g>
<!-- choice_EOS311_0_3 -->
<g id="node25" class="node">
<title>choice_EOS311_0_3</title>
<path fill="#fff7ee" stroke="#b7793f" stroke-width="1.1" d="M668,-368C668,-368 638,-368 638,-368 632,-368 626,-362 626,-356 626,-356 626,-344 626,-344 626,-338 632,-332 638,-332 638,-332 668,-332 668,-332 674,-332 680,-338 680,-344 680,-344 680,-356 680,-356 680,-362 674,-368 668,-368"/>
<text text-anchor="middle" x="653" y="-347.8" font-family="Avenir Next" font-size="9.00">1 of</text>
</g>
<!-- course__PHYS110&#45;&gt;choice_EOS311_0_3 -->
<g id="edge5" class="edge">
<title>course__PHYS110&#45;&gt;choice_EOS311_0_3</title>
<path fill="none" stroke="#7a8389" d="M285.13,-284.83C304.38,-288.83 326.12,-293.23 346,-297 444.86,-315.74 562.2,-335.32 618.54,-344.56"/>
<polygon fill="#7a8389" stroke="#7a8389" points="618.45,-347.03 625.75,-345.74 619.24,-342.19 618.45,-347.03"/>
</g>
<!-- choice_EOS314_0_1 -->
<g id="node27" class="node">
<title>choice_EOS314_0_1</title>
<path fill="#fff7ee" stroke="#b7793f" stroke-width="1.1" d="M668,-312C668,-312 638,-312 638,-312 632,-312 626,-306 626,-300 626,-300 626,-288 626,-288 626,-282 632,-276 638,-276 638,-276 668,-276 668,-276 674,-276 680,-282 680,-288 680,-288 680,-300 680,-300 680,-306 674,-312 668,-312"/>
<text text-anchor="middle" x="653" y="-291.8" font-family="Avenir Next" font-size="9.00">1 of</text>
</g>
<!-- course__PHYS110&#45;&gt;choice_EOS314_0_1 -->
<g id="edge13" class="edge">
<title>course__PHYS110&#45;&gt;choice_EOS314_0_1</title>
<path fill="none" stroke="#7a8389" d="M285.17,-275.77C374.21,-280.19 545.99,-288.73 618.45,-292.33"/>
<polygon fill="#7a8389" stroke="#7a8389" points="618.45,-294.79 625.56,-292.69 618.69,-289.89 618.45,-294.79"/>
</g>
<!-- choice_EOS340_0 -->
<g id="node30" class="node">
<title>choice_EOS340_0</title>
<path fill="#fff7ee" stroke="#b7793f" stroke-width="1.1" d="M668,-116C668,-116 638,-116 638,-116 632,-116 626,-110 626,-104 626,-104 626,-92 626,-92 626,-86 632,-80 638,-80 638,-80 668,-80 668,-80 674,-80 680,-86 680,-92 680,-92 680,-104 680,-104 680,-110 674,-116 668,-116"/>
<text text-anchor="middle" x="653" y="-95.8" font-family="Avenir Next" font-size="9.00">1 of</text>
</g>
<!-- course__PHYS110&#45;&gt;choice_EOS340_0 -->
<g id="edge24" class="edge">
<title>course__PHYS110&#45;&gt;choice_EOS340_0</title>
<path fill="none" stroke="#7a8389" d="M271.65,-254.9C317.98,-235.06 394.65,-202.42 461,-175 516.37,-152.12 581.09,-126.2 619.19,-111.03"/>
<polygon fill="#7a8389" stroke="#7a8389" points="620.39,-113.19 625.99,-108.32 618.58,-108.63 620.39,-113.19"/>
</g>
<!-- choice_EOS431_0_1 -->
<g id="node33" class="node">
<title>choice_EOS431_0_1</title>
<path fill="#fff7ee" stroke="#b7793f" stroke-width="1.1" d="M668,-256C668,-256 638,-256 638,-256 632,-256 626,-250 626,-244 626,-244 626,-232 626,-232 626,-226 632,-220 638,-220 638,-220 668,-220 668,-220 674,-220 680,-226 680,-232 680,-232 680,-244 680,-244 680,-250 674,-256 668,-256"/>
<text text-anchor="middle" x="653" y="-235.8" font-family="Avenir Next" font-size="9.00">1 of</text>
</g>
<!-- course__PHYS110&#45;&gt;choice_EOS431_0_1 -->
<g id="edge35" class="edge">
<title>course__PHYS110&#45;&gt;choice_EOS431_0_1</title>
<path fill="none" stroke="#7a8389" d="M285.17,-268.39C374.21,-261.01 545.99,-246.78 618.45,-240.78"/>
<polygon fill="#7a8389" stroke="#7a8389" points="618.79,-243.21 625.56,-240.19 618.38,-238.33 618.79,-243.21"/>
</g>
<!-- course__PHYS110&#45;&gt;choice_PHYS102B_0 -->
<g id="edge48" class="edge">
<title>course__PHYS110&#45;&gt;choice_PHYS102B_0</title>
<path fill="none" stroke="#7a8389" d="M245.02,-254.7C271,-224.07 323.26,-162.46 351.98,-128.61"/>
<polygon fill="#7a8389" stroke="#7a8389" points="354.05,-129.95 356.71,-123.02 350.32,-126.78 354.05,-129.95"/>
</g>
<!-- course__PHYS102B -->
<g id="node4" class="node">
<title>course__PHYS102B</title>
<g id="a_node4"><a xlink:href="../../../courses/PHYS102B.html" xlink:title="PHYS102B: General Physics II" target="_top">
<path fill="#efd8cf" stroke="#1f4f66" stroke-width="2" d="M553,-221C553,-221 473,-221 473,-221 467,-221 461,-215 461,-209 461,-209 461,-197 461,-197 461,-191 467,-185 473,-185 473,-185 553,-185 553,-185 559,-185 565,-191 565,-197 565,-197 565,-209 565,-209 565,-215 559,-221 553,-221"/>
<text text-anchor="middle" x="513" y="-206" font-family="Avenir Next" font-size="10.00" fill="#17232b">PHYS102B</text>
<text text-anchor="middle" x="513" y="-195" font-family="Avenir Next" font-size="10.00" fill="#17232b">General Physics II</text>
</a>
</g>
</g>
<!-- course__EOS261 -->
<g id="node5" class="node">
<title>course__EOS261</title>
<g id="a_node5"><a xlink:href="../../../courses/EOS261.html" xlink:title="EOS261: The Climate System" target="_top">
<path fill="#d7e9ef" stroke="#1b2730" stroke-width="1.6" d="M808,-214C808,-214 778,-214 778,-214 772,-214 766,-208 766,-202 766,-202 766,-190 766,-190 766,-184 772,-178 778,-178 778,-178 808,-178 808,-178 814,-178 820,-184 820,-190 820,-190 820,-202 820,-202 820,-208 814,-214 808,-214"/>
<text text-anchor="middle" x="793" y="-193.5" font-family="Avenir Next" font-size="10.00" fill="#17232b">EOS261</text>
</a>
</g>
</g>
<!-- course__PHYS102B&#45;&gt;course__EOS261 -->
<g id="edge3" class="edge">
<title>course__PHYS102B&#45;&gt;course__EOS261</title>
<path fill="none" stroke="#5d6972" stroke-width="1.2" d="M565.31,-201.71C621.72,-200.29 710.69,-198.05 758.68,-196.84"/>
<polygon fill="#5d6972" stroke="#5d6972" stroke-width="1.2" points="758.8,-199.29 765.73,-196.66 758.67,-194.39 758.8,-199.29"/>
</g>
<!-- course__EOS325 -->
<g id="node11" class="node">
<title>course__EOS325</title>
<g id="a_node11"><a xlink:href="../../../courses/EOS325.html" xlink:title="EOS325: Earth System Modelling" target="_top">
<path fill="#d7e9ef" stroke="#1b2730" stroke-width="1.6" d="M1064,-210C1064,-210 1034,-210 1034,-210 1028,-210 1022,-204 1022,-198 1022,-198 1022,-186 1022,-186 1022,-180 1028,-174 1034,-174 1034,-174 1064,-174 1064,-174 1070,-174 1076,-180 1076,-186 1076,-186 1076,-198 1076,-198 1076,-204 1070,-210 1064,-210"/>
<text text-anchor="middle" x="1049" y="-189.5" font-family="Avenir Next" font-size="10.00" fill="#17232b">EOS325</text>
</a>
</g>
</g>
<!-- course__PHYS102B&#45;&gt;course__EOS325 -->
<g id="edge21" class="edge">
<title>course__PHYS102B&#45;&gt;course__EOS325</title>
<path fill="none" stroke="#5d6972" stroke-width="1.2" d="M565.03,-192.02C648.09,-175.7 817.58,-148.93 960,-168 978.54,-170.48 998.71,-175.78 1015.05,-180.77"/>
<polygon fill="#5d6972" stroke="#5d6972" stroke-width="1.2" points="1014.39,-183.14 1021.81,-182.89 1015.86,-178.46 1014.39,-183.14"/>
</g>
<!-- course__PHYS102B&#45;&gt;choice_EOS311_0_3 -->
<g id="edge4" class="edge">
<title>course__PHYS102B&#45;&gt;choice_EOS311_0_3</title>
<path fill="none" stroke="#7a8389" d="M530.92,-221.03C555.86,-247.59 602.48,-297.25 630.03,-326.6"/>
<polygon fill="#7a8389" stroke="#7a8389" points="628.36,-328.4 634.94,-331.83 631.94,-325.05 628.36,-328.4"/>
</g>
<!-- course__PHYS102B&#45;&gt;choice_EOS314_0_1 -->
<g id="edge12" class="edge">
<title>course__PHYS102B&#45;&gt;choice_EOS314_0_1</title>
<path fill="none" stroke="#7a8389" d="M541.59,-221.2C564.22,-236.11 596.27,-257.25 620.01,-272.9"/>
<polygon fill="#7a8389" stroke="#7a8389" points="618.66,-274.95 625.86,-276.76 621.36,-270.86 618.66,-274.95"/>
</g>
<!-- course__PHYS102B&#45;&gt;choice_EOS340_0 -->
<g id="edge23" class="edge">
<title>course__PHYS102B&#45;&gt;choice_EOS340_0</title>
<path fill="none" stroke="#7a8389" d="M543.26,-184.9C550.48,-180.21 558.11,-175.05 565,-170 586.16,-154.48 608.98,-135.5 625.94,-120.93"/>
<polygon fill="#7a8389" stroke="#7a8389" points="627.76,-122.59 631.45,-116.17 624.56,-118.89 627.76,-122.59"/>
</g>
<!-- course__PHYS102B&#45;&gt;choice_EOS431_0_1 -->
<g id="edge34" class="edge">
<title>course__PHYS102B&#45;&gt;choice_EOS431_0_1</title>
<path fill="none" stroke="#7a8389" d="M565.39,-216.03C583.2,-220.55 602.68,-225.49 618.66,-229.54"/>
<polygon fill="#7a8389" stroke="#7a8389" points="618.34,-231.99 625.73,-231.34 619.55,-227.24 618.34,-231.99"/>
</g>
<!-- choice_EOS321_0_1_0 -->
<g id="node28" class="node">
<title>choice_EOS321_0_1_0</title>
<path fill="#fff7ee" stroke="#b7793f" stroke-width="1.1" d="M948,-270C948,-270 918,-270 918,-270 912,-270 906,-264 906,-258 906,-258 906,-246 906,-246 906,-240 912,-234 918,-234 918,-234 948,-234 948,-234 954,-234 960,-240 960,-246 960,-246 960,-258 960,-258 960,-264 954,-270 948,-270"/>
<text text-anchor="middle" x="933" y="-249.8" font-family="Avenir Next" font-size="9.00">1 of</text>
</g>
<!-- course__EOS261&#45;&gt;choice_EOS321_0_1_0 -->
<g id="edge16" class="edge">
<title>course__EOS261&#45;&gt;choice_EOS321_0_1_0</title>
<path fill="none" stroke="#7a8389" d="M820.28,-206.66C842.73,-215.77 875.11,-228.92 899.24,-238.71"/>
<polygon fill="#7a8389" stroke="#7a8389" points="898.41,-241.01 905.82,-241.37 900.25,-236.47 898.41,-241.01"/>
</g>
<!-- choice_EOS325_0_2_0 -->
<g id="node29" class="node">
<title>choice_EOS325_0_2_0</title>
<path fill="#fff7ee" stroke="#b7793f" stroke-width="1.1" d="M948,-214C948,-214 918,-214 918,-214 912,-214 906,-208 906,-202 906,-202 906,-190 906,-190 906,-184 912,-178 918,-178 918,-178 948,-178 948,-178 954,-178 960,-184 960,-190 960,-190 960,-202 960,-202 960,-208 954,-214 948,-214"/>
<text text-anchor="middle" x="933" y="-193.8" font-family="Avenir Next" font-size="9.00">1 of</text>
</g>
<!-- course__EOS261&#45;&gt;choice_EOS325_0_2_0 -->
<g id="edge19" class="edge">
<title>course__EOS261&#45;&gt;choice_EOS325_0_2_0</title>
<path fill="none" stroke="#7a8389" d="M820.28,-196C842.53,-196 874.56,-196 898.62,-196"/>
<polygon fill="#7a8389" stroke="#7a8389" points="898.82,-198.45 905.82,-196 898.82,-193.55 898.82,-198.45"/>
</g>
<!-- course__BIOL446 -->
<g id="node8" class="node">
<title>course__BIOL446</title>
<g id="a_node8"><a xlink:href="../../../courses/BIOL446.html" xlink:title="BIOL446: Advanced Aquatic Ecology" target="_top">
<path fill="#dbe8d2" stroke="#7e8d96" d="M1065,-508C1065,-508 1033,-508 1033,-508 1027,-508 1021,-502 1021,-496 1021,-496 1021,-484 1021,-484 1021,-478 1027,-472 1033,-472 1033,-472 1065,-472 1065,-472 1071,-472 1077,-478 1077,-484 1077,-484 1077,-496 1077,-496 1077,-502 1071,-508 1065,-508"/>
<text text-anchor="middle" x="1049" y="-487.8" font-family="Avenir Next" font-size="9.00" fill="#41515b">BIOL446</text>
</a>
</g>
</g>
<!-- course__EOS311&#45;&gt;course__BIOL446 -->
<g id="edge1" class="edge">
<title>course__EOS311&#45;&gt;course__BIOL446</title>
<path fill="none" stroke="#5d6972" stroke-width="1.2" d="M845.1,-490C895.22,-490 970.25,-490 1013.64,-490"/>
<polygon fill="#5d6972" stroke="#5d6972" stroke-width="1.2" points="1013.85,-492.45 1020.85,-490 1013.85,-487.55 1013.85,-492.45"/>
</g>
<!-- course__BIOL466 -->
<g id="node9" class="node">
<title>course__BIOL466</title>
<g id="a_node9"><a xlink:href="../../../courses/BIOL466.html" xlink:title="BIOL466: Frontiers in Marine Biology" target="_top">
<path fill="#dbe8d2" stroke="#7e8d96" d="M1065,-564C1065,-564 1033,-564 1033,-564 1027,-564 1021,-558 1021,-552 1021,-552 1021,-540 1021,-540 1021,-534 1027,-528 1033,-528 1033,-528 1065,-528 1065,-528 1071,-528 1077,-534 1077,-540 1077,-540 1077,-552 1077,-552 1077,-558 1071,-564 1065,-564"/>
<text text-anchor="middle" x="1049" y="-543.8" font-family="Avenir Next" font-size="9.00" fill="#41515b">BIOL466</text>
</a>
</g>
</g>
<!-- course__EOS311&#45;&gt;course__BIOL466 -->
<g id="edge2" class="edge">
<title>course__EOS311&#45;&gt;course__BIOL466</title>
<path fill="none" stroke="#5d6972" stroke-width="1.2" d="M845.1,-501.27C895.32,-512.34 970.56,-528.93 1013.91,-538.48"/>
<polygon fill="#5d6972" stroke="#5d6972" stroke-width="1.2" points="1013.48,-540.9 1020.85,-540.01 1014.54,-536.11 1013.48,-540.9"/>
</g>
<!-- choice_EOS401_0 -->
<g id="node32" class="node">
<title>choice_EOS401_0</title>
<path fill="#fff7ee" stroke="#b7793f" stroke-width="1.1" d="M1585,-434C1585,-434 1555,-434 1555,-434 1549,-434 1543,-428 1543,-422 1543,-422 1543,-410 1543,-410 1543,-404 1549,-398 1555,-398 1555,-398 1585,-398 1585,-398 1591,-398 1597,-404 1597,-410 1597,-410 1597,-422 1597,-422 1597,-428 1591,-434 1585,-434"/>
<text text-anchor="middle" x="1570" y="-413.8" font-family="Avenir Next" font-size="9.00">3 of</text>
</g>
<!-- course__EOS311&#45;&gt;choice_EOS401_0 -->
<g id="edge29" class="edge">
<title>course__EOS311&#45;&gt;choice_EOS401_0</title>
<path fill="none" stroke="#7a8389" d="M818.9,-508.05C862.85,-538.07 958.05,-595 1048,-595 1048,-595 1048,-595 1334,-595 1435.07,-595 1519.79,-488.92 1553.44,-440.09"/>
<polygon fill="#7a8389" stroke="#7a8389" points="1555.57,-441.32 1557.48,-434.15 1551.52,-438.56 1555.57,-441.32"/>
</g>
<!-- choice_EOS312_0_0 -->
<g id="node26" class="node">
<title>choice_EOS312_0_0</title>
<path fill="#fff7ee" stroke="#b7793f" stroke-width="1.1" d="M1348,-410C1348,-410 1318,-410 1318,-410 1312,-410 1306,-404 1306,-398 1306,-398 1306,-386 1306,-386 1306,-380 1312,-374 1318,-374 1318,-374 1348,-374 1348,-374 1354,-374 1360,-380 1360,-386 1360,-386 1360,-398 1360,-398 1360,-404 1354,-410 1348,-410"/>
<text text-anchor="middle" x="1333" y="-389.8" font-family="Avenir Next" font-size="9.00">1 of</text>
</g>
<!-- course__EOS314&#45;&gt;choice_EOS312_0_0 -->
<g id="edge8" class="edge">
<title>course__EOS314&#45;&gt;choice_EOS312_0_0</title>
<path fill="none" stroke="#7a8389" d="M820.22,-353.08C842.91,-355.68 876.59,-359.39 906,-362 1052.01,-374.96 1226.58,-385.8 1298.51,-390.06"/>
<polygon fill="#7a8389" stroke="#7a8389" points="1298.42,-392.51 1305.55,-390.47 1298.71,-387.62 1298.42,-392.51"/>
</g>
<!-- course__EOS314&#45;&gt;choice_EOS321_0_1_0 -->
<g id="edge17" class="edge">
<title>course__EOS314&#45;&gt;choice_EOS321_0_1_0</title>
<path fill="none" stroke="#7a8389" d="M819.63,-331.8C842.48,-315.57 876.01,-291.76 900.49,-274.38"/>
<polygon fill="#7a8389" stroke="#7a8389" points="902.22,-276.16 906.5,-270.11 899.38,-272.16 902.22,-276.16"/>
</g>
<!-- course__EOS314&#45;&gt;choice_EOS325_0_2_0 -->
<g id="edge20" class="edge">
<title>course__EOS314&#45;&gt;choice_EOS325_0_2_0</title>
<path fill="none" stroke="#7a8389" d="M809.83,-331.95C831.41,-307.38 871.36,-262.13 906,-224 907.38,-222.48 908.81,-220.92 910.25,-219.35"/>
<polygon fill="#7a8389" stroke="#7a8389" points="912.22,-220.83 915.16,-214.02 908.61,-217.51 912.22,-220.83"/>
</g>
<!-- choice_EOS401_0_3 -->
<g id="node31" class="node">
<title>choice_EOS401_0_3</title>
<path fill="#fff7ee" stroke="#b7793f" stroke-width="1.1" d="M1348,-354C1348,-354 1318,-354 1318,-354 1312,-354 1306,-348 1306,-342 1306,-342 1306,-330 1306,-330 1306,-324 1312,-318 1318,-318 1318,-318 1348,-318 1348,-318 1354,-318 1360,-324 1360,-330 1360,-330 1360,-342 1360,-342 1360,-348 1354,-354 1348,-354"/>
<text text-anchor="middle" x="1333" y="-333.8" font-family="Avenir Next" font-size="9.00">1 of</text>
</g>
<!-- course__EOS314&#45;&gt;choice_EOS401_0_3 -->
<g id="edge27" class="edge">
<title>course__EOS314&#45;&gt;choice_EOS401_0_3</title>
<path fill="none" stroke="#7a8389" d="M820.31,-349.32C909.43,-347 1199.81,-339.44 1298.68,-336.87"/>
<polygon fill="#7a8389" stroke="#7a8389" points="1298.8,-339.31 1305.74,-336.68 1298.68,-334.42 1298.8,-339.31"/>
</g>
<!-- course__EOS321 -->
<g id="node10" class="node">
<title>course__EOS321</title>
<g id="a_node10"><a xlink:href="../../../courses/EOS321.html" xlink:title="EOS321: Earth History" target="_top">
<path fill="#d7e9ef" stroke="#7e8d96" d="M1064,-270C1064,-270 1034,-270 1034,-270 1028,-270 1022,-264 1022,-258 1022,-258 1022,-246 1022,-246 1022,-240 1028,-234 1034,-234 1034,-234 1064,-234 1064,-234 1070,-234 1076,-240 1076,-246 1076,-246 1076,-258 1076,-258 1076,-264 1070,-270 1064,-270"/>
<text text-anchor="middle" x="1049" y="-249.8" font-family="Avenir Next" font-size="9.00" fill="#41515b">EOS321</text>
</a>
</g>
</g>
<!-- course__EOS340 -->
<g id="node12" class="node">
<title>course__EOS340</title>
<g id="a_node12"><a xlink:href="../../../courses/EOS340.html" xlink:title="Equivalent or cross&#45;listed: EOS340: Atmospheric Physics | PHYS340: Atmospheric Physics" target="_top">
<path fill="#d7e9ef" stroke="#1b2730" stroke-width="1.6" d="M1233,-146C1233,-146 1150,-146 1150,-146 1144,-146 1138,-140 1138,-134 1138,-134 1138,-122 1138,-122 1138,-116 1144,-110 1150,-110 1150,-110 1233,-110 1233,-110 1239,-110 1245,-116 1245,-122 1245,-122 1245,-134 1245,-134 1245,-140 1239,-146 1233,-146"/>
<text text-anchor="middle" x="1191.5" y="-125.5" font-family="Avenir Next" font-size="10.00" fill="#17232b">EOS340 / PHYS340</text>
</a>
</g>
</g>
<!-- course__EOS325&#45;&gt;course__EOS340 -->
<g id="edge26" class="edge">
<title>course__EOS325&#45;&gt;course__EOS340</title>
<path fill="none" stroke="#5d6972" stroke-width="1.2" d="M1076.1,-180.11C1095.17,-171.43 1121.53,-159.42 1144.15,-149.11"/>
<polygon fill="#5d6972" stroke="#5d6972" stroke-width="1.2" points="1145.37,-151.25 1150.73,-146.12 1143.34,-146.79 1145.37,-151.25"/>
</g>
<!-- course__EOS423 -->
<g id="node13" class="node">
<title>course__EOS423</title>
<g id="a_node13"><a xlink:href="../../../courses/EOS423.html" xlink:title="EOS423: Advanced Sedimentology and Stratigraphy" target="_top">
<path fill="#d7e9ef" stroke="#7e8d96" d="M1206.5,-261C1206.5,-261 1176.5,-261 1176.5,-261 1170.5,-261 1164.5,-255 1164.5,-249 1164.5,-249 1164.5,-237 1164.5,-237 1164.5,-231 1170.5,-225 1176.5,-225 1176.5,-225 1206.5,-225 1206.5,-225 1212.5,-225 1218.5,-231 1218.5,-237 1218.5,-237 1218.5,-249 1218.5,-249 1218.5,-255 1212.5,-261 1206.5,-261"/>
<text text-anchor="middle" x="1191.5" y="-240.8" font-family="Avenir Next" font-size="9.00" fill="#41515b">EOS423</text>
</a>
</g>
</g>
<!-- course__EOS325&#45;&gt;course__EOS423 -->
<g id="edge33" class="edge">
<title>course__EOS325&#45;&gt;course__EOS423</title>
<path fill="none" stroke="#5d6972" stroke-width="1.2" d="M1076.1,-201.47C1099.02,-209.79 1132.49,-221.94 1157.31,-230.95"/>
<polygon fill="#5d6972" stroke="#5d6972" stroke-width="1.2" points="1156.65,-233.32 1164.07,-233.4 1158.32,-228.71 1156.65,-233.32"/>
</g>
<!-- course__EOS431 -->
<g id="node14" class="node">
<title>course__EOS431</title>
<g id="a_node14"><a xlink:href="../../../courses/EOS431.html" xlink:title="Equivalent or cross&#45;listed: EOS431: Physical Oceanography | PHYS441: Physical Oceanography" target="_top">
<path fill="#d7e9ef" stroke="#1b2730" stroke-width="1.6" d="M1233,-319C1233,-319 1150,-319 1150,-319 1144,-319 1138,-313 1138,-307 1138,-307 1138,-295 1138,-295 1138,-289 1144,-283 1150,-283 1150,-283 1233,-283 1233,-283 1239,-283 1245,-289 1245,-295 1245,-295 1245,-307 1245,-307 1245,-313 1239,-319 1233,-319"/>
<text text-anchor="middle" x="1191.5" y="-298.5" font-family="Avenir Next" font-size="10.00" fill="#17232b">EOS431 / PHYS441</text>
</a>
</g>
</g>
<!-- course__EOS325&#45;&gt;course__EOS431 -->
<g id="edge36" class="edge">
<title>course__EOS325&#45;&gt;course__EOS431</title>
<path fill="none" stroke="#5d6972" stroke-width="1.2" d="M1067.91,-210.16C1085.04,-227.02 1112.03,-252.25 1138,-271 1141.89,-273.81 1146.06,-276.57 1150.29,-279.21"/>
<polygon fill="#5d6972" stroke="#5d6972" stroke-width="1.2" points="1149.25,-281.45 1156.51,-282.99 1151.8,-277.26 1149.25,-281.45"/>
</g>
<!-- course__EOS460 -->
<g id="node15" class="node">
<title>course__EOS460</title>
<g id="a_node15"><a xlink:href="../../../courses/EOS460.html" xlink:title="EOS460: Earth System Science" target="_top">
<path fill="#d7e9ef" stroke="#7e8d96" d="M1206.5,-205C1206.5,-205 1176.5,-205 1176.5,-205 1170.5,-205 1164.5,-199 1164.5,-193 1164.5,-193 1164.5,-181 1164.5,-181 1164.5,-175 1170.5,-169 1176.5,-169 1176.5,-169 1206.5,-169 1206.5,-169 1212.5,-169 1218.5,-175 1218.5,-181 1218.5,-181 1218.5,-193 1218.5,-193 1218.5,-199 1212.5,-205 1206.5,-205"/>
<text text-anchor="middle" x="1191.5" y="-184.8" font-family="Avenir Next" font-size="9.00" fill="#41515b">EOS460</text>
</a>
</g>
</g>
<!-- course__EOS325&#45;&gt;course__EOS460 -->
<g id="edge40" class="edge">
<title>course__EOS325&#45;&gt;course__EOS460</title>
<path fill="none" stroke="#5d6972" stroke-width="1.2" d="M1076.1,-191.07C1098.92,-190.26 1132.2,-189.07 1156.99,-188.19"/>
<polygon fill="#5d6972" stroke="#5d6972" stroke-width="1.2" points="1157.16,-190.64 1164.07,-187.94 1156.98,-185.74 1157.16,-190.64"/>
</g>
<!-- course__EOS433 -->
<g id="node17" class="node">
<title>course__EOS433</title>
<g id="a_node17"><a xlink:href="../../../courses/EOS433.html" xlink:title="EOS433: The Physics of Climate" target="_top">
<path fill="#d7e9ef" stroke="#7e8d96" d="M1466.5,-36C1466.5,-36 1436.5,-36 1436.5,-36 1430.5,-36 1424.5,-30 1424.5,-24 1424.5,-24 1424.5,-12 1424.5,-12 1424.5,-6 1430.5,0 1436.5,0 1436.5,0 1466.5,0 1466.5,0 1472.5,0 1478.5,-6 1478.5,-12 1478.5,-12 1478.5,-24 1478.5,-24 1478.5,-30 1472.5,-36 1466.5,-36"/>
<text text-anchor="middle" x="1451.5" y="-15.8" font-family="Avenir Next" font-size="9.00" fill="#41515b">EOS433</text>
</a>
</g>
</g>
<!-- course__EOS340&#45;&gt;course__EOS433 -->
<g id="edge38" class="edge">
<title>course__EOS340&#45;&gt;course__EOS433</title>
<path fill="none" stroke="#5d6972" stroke-width="1.2" d="M1234.81,-109.96C1286.05,-88.12 1371.23,-51.8 1417.74,-31.97"/>
<polygon fill="#5d6972" stroke="#5d6972" stroke-width="1.2" points="1418.83,-34.17 1424.31,-29.17 1416.91,-29.66 1418.83,-34.17"/>
</g>
<!-- course__EOS451 -->
<g id="node18" class="node">
<title>course__EOS451</title>
<g id="a_node18"><a xlink:href="../../../courses/EOS451.html" xlink:title="EOS451: Introductory Dynamic Meteorology" target="_top">
<path fill="#d7e9ef" stroke="#7e8d96" d="M1466.5,-246C1466.5,-246 1436.5,-246 1436.5,-246 1430.5,-246 1424.5,-240 1424.5,-234 1424.5,-234 1424.5,-222 1424.5,-222 1424.5,-216 1430.5,-210 1436.5,-210 1436.5,-210 1466.5,-210 1466.5,-210 1472.5,-210 1478.5,-216 1478.5,-222 1478.5,-222 1478.5,-234 1478.5,-234 1478.5,-240 1472.5,-246 1466.5,-246"/>
<text text-anchor="middle" x="1451.5" y="-225.8" font-family="Avenir Next" font-size="9.00" fill="#41515b">EOS451</text>
</a>
</g>
</g>
<!-- course__EOS340&#45;&gt;course__EOS451 -->
<g id="edge39" class="edge">
<title>course__EOS340&#45;&gt;course__EOS451</title>
<path fill="none" stroke="#5d6972" stroke-width="1.2" d="M1239.22,-146.11C1290.74,-166.08 1372.31,-197.69 1417.55,-215.23"/>
<polygon fill="#5d6972" stroke="#5d6972" stroke-width="1.2" points="1416.8,-217.57 1424.22,-217.81 1418.57,-213 1416.8,-217.57"/>
</g>
<!-- course__GEOG370 -->
<g id="node19" class="node">
<title>course__GEOG370</title>
<g id="a_node19"><a xlink:href="../../../courses/GEOG370.html" xlink:title="GEOG370: Methods in Hydrology" target="_top">
<path fill="#e7e2d8" stroke="#7e8d96" d="M1470,-190C1470,-190 1433,-190 1433,-190 1427,-190 1421,-184 1421,-178 1421,-178 1421,-166 1421,-166 1421,-160 1427,-154 1433,-154 1433,-154 1470,-154 1470,-154 1476,-154 1482,-160 1482,-166 1482,-166 1482,-178 1482,-178 1482,-184 1476,-190 1470,-190"/>
<text text-anchor="middle" x="1451.5" y="-169.8" font-family="Avenir Next" font-size="9.00" fill="#41515b">GEOG370</text>
</a>
</g>
</g>
<!-- course__EOS340&#45;&gt;course__GEOG370 -->
<g id="edge41" class="edge">
<title>course__EOS340&#45;&gt;course__GEOG370</title>
<path fill="none" stroke="#5d6972" stroke-width="1.2" d="M1245.02,-136.96C1295.26,-145.53 1369.73,-158.23 1413.87,-165.75"/>
<polygon fill="#5d6972" stroke="#5d6972" stroke-width="1.2" points="1413.64,-168.2 1420.95,-166.96 1414.46,-163.37 1413.64,-168.2"/>
</g>
<!-- course__GEOG489 -->
<g id="node20" class="node">
<title>course__GEOG489</title>
<g id="a_node20"><a xlink:href="../../../courses/GEOG489.html" xlink:title="GEOG489: Climate Solutions" target="_top">
<path fill="#e7e2d8" stroke="#7e8d96" d="M1470,-92C1470,-92 1433,-92 1433,-92 1427,-92 1421,-86 1421,-80 1421,-80 1421,-68 1421,-68 1421,-62 1427,-56 1433,-56 1433,-56 1470,-56 1470,-56 1476,-56 1482,-62 1482,-68 1482,-68 1482,-80 1482,-80 1482,-86 1476,-92 1470,-92"/>
<text text-anchor="middle" x="1451.5" y="-71.8" font-family="Avenir Next" font-size="9.00" fill="#41515b">GEOG489</text>
</a>
</g>
</g>
<!-- course__EOS340&#45;&gt;course__GEOG489 -->
<g id="edge46" class="edge">
<title>course__EOS340&#45;&gt;course__GEOG489</title>
<path fill="none" stroke="#5d6972" stroke-width="1.2" d="M1245.02,-117.01C1295.26,-106.49 1369.73,-90.9 1413.87,-81.67"/>
<polygon fill="#5d6972" stroke="#5d6972" stroke-width="1.2" points="1414.6,-84.02 1420.95,-80.19 1413.59,-79.22 1414.6,-84.02"/>
</g>
<!-- choice_GEOG405_0 -->
<g id="node34" class="node">
<title>choice_GEOG405_0</title>
<path fill="#fff7ee" stroke="#b7793f" stroke-width="1.1" d="M1585,-141C1585,-141 1555,-141 1555,-141 1549,-141 1543,-135 1543,-129 1543,-129 1543,-117 1543,-117 1543,-111 1549,-105 1555,-105 1555,-105 1585,-105 1585,-105 1591,-105 1597,-111 1597,-117 1597,-117 1597,-129 1597,-129 1597,-135 1591,-141 1585,-141"/>
<text text-anchor="middle" x="1570" y="-120.8" font-family="Avenir Next" font-size="9.00">1 of</text>
</g>
<!-- course__EOS340&#45;&gt;choice_GEOG405_0 -->
<g id="edge43" class="edge">
<title>course__EOS340&#45;&gt;choice_GEOG405_0</title>
<path fill="none" stroke="#7a8389" d="M1245.25,-127.3C1323.97,-126.25 1469.96,-124.32 1535.56,-123.44"/>
<polygon fill="#7a8389" stroke="#7a8389" points="1535.81,-125.89 1542.78,-123.35 1535.74,-120.99 1535.81,-125.89"/>
</g>
<!-- choice_PHYS411_0_0 -->
<g id="node36" class="node">
<title>choice_PHYS411_0_0</title>
<path fill="#fff7ee" stroke="#b7793f" stroke-width="1.1" d="M1348,-298C1348,-298 1318,-298 1318,-298 1312,-298 1306,-292 1306,-286 1306,-286 1306,-274 1306,-274 1306,-268 1312,-262 1318,-262 1318,-262 1348,-262 1348,-262 1354,-262 1360,-268 1360,-274 1360,-274 1360,-286 1360,-286 1360,-292 1354,-298 1348,-298"/>
<text text-anchor="middle" x="1333" y="-277.8" font-family="Avenir Next" font-size="9.00">2 of</text>
</g>
<!-- course__EOS340&#45;&gt;choice_PHYS411_0_0 -->
<g id="edge51" class="edge">
<title>course__EOS340&#45;&gt;choice_PHYS411_0_0</title>
<path fill="none" stroke="#7a8389" d="M1227.81,-146.09C1233.86,-149.94 1239.85,-154.28 1245,-159 1279.31,-190.38 1278.83,-206.26 1306,-244 1308.78,-247.87 1311.74,-251.97 1314.62,-255.96"/>
<polygon fill="#7a8389" stroke="#7a8389" points="1312.68,-257.45 1318.76,-261.69 1316.65,-254.58 1312.68,-257.45"/>
</g>
<!-- course__EOS431&#45;&gt;choice_EOS312_0_0 -->
<g id="edge9" class="edge">
<title>course__EOS431&#45;&gt;choice_EOS312_0_0</title>
<path fill="none" stroke="#7a8389" d="M1220.39,-319.2C1243.26,-334.11 1275.66,-355.25 1299.66,-370.9"/>
<polygon fill="#7a8389" stroke="#7a8389" points="1298.37,-372.99 1305.57,-374.76 1301.05,-368.88 1298.37,-372.99"/>
</g>
<!-- course__EOS431&#45;&gt;choice_EOS401_0_3 -->
<g id="edge28" class="edge">
<title>course__EOS431&#45;&gt;choice_EOS401_0_3</title>
<path fill="none" stroke="#7a8389" d="M1245.24,-314.23C1263.17,-318.73 1282.7,-323.63 1298.68,-327.64"/>
<polygon fill="#7a8389" stroke="#7a8389" points="1298.37,-330.09 1305.76,-329.42 1299.56,-325.34 1298.37,-330.09"/>
</g>
<!-- course__EOS431&#45;&gt;choice_PHYS411_0_0 -->
<g id="edge52" class="edge">
<title>course__EOS431&#45;&gt;choice_PHYS411_0_0</title>
<path fill="none" stroke="#7a8389" d="M1245.24,-293.06C1263.17,-290.36 1282.7,-287.42 1298.68,-285.02"/>
<polygon fill="#7a8389" stroke="#7a8389" points="1299.2,-287.42 1305.76,-283.95 1298.47,-282.57 1299.2,-287.42"/>
</g>
<!-- course__EOS312&#45;&gt;choice_EOS401_0 -->
<g id="edge30" class="edge">
<title>course__EOS312&#45;&gt;choice_EOS401_0</title>
<path fill="none" stroke="#7a8389" d="M1478.64,-416C1495.43,-416 1517.4,-416 1535.46,-416"/>
<polygon fill="#7a8389" stroke="#7a8389" points="1535.94,-418.45 1542.94,-416 1535.94,-413.55 1535.94,-418.45"/>
</g>
<!-- course__GEOG477 -->
<g id="node24" class="node">
<title>course__GEOG477</title>
<g id="a_node24"><a xlink:href="../../../courses/GEOG477.html" xlink:title="GEOG477: Field Studies in Physical Geography" target="_top">
<path fill="#e7e2d8" stroke="#7e8d96" d="M1707,-194C1707,-194 1670,-194 1670,-194 1664,-194 1658,-188 1658,-182 1658,-182 1658,-170 1658,-170 1658,-164 1664,-158 1670,-158 1670,-158 1707,-158 1707,-158 1713,-158 1719,-164 1719,-170 1719,-170 1719,-182 1719,-182 1719,-188 1713,-194 1707,-194"/>
<text text-anchor="middle" x="1688.5" y="-173.8" font-family="Avenir Next" font-size="9.00" fill="#41515b">GEOG477</text>
</a>
</g>
</g>
<!-- course__GEOG370&#45;&gt;course__GEOG477 -->
<g id="edge45" class="edge">
<title>course__GEOG370&#45;&gt;course__GEOG477</title>
<path fill="none" stroke="#5d6972" stroke-width="1.2" d="M1482.26,-172.51C1525.17,-173.24 1604.34,-174.58 1650.81,-175.38"/>
<polygon fill="#5d6972" stroke="#5d6972" stroke-width="1.2" points="1650.94,-177.83 1657.98,-175.5 1651.02,-172.93 1650.94,-177.83"/>
</g>
<!-- course__GEOG370&#45;&gt;choice_GEOG405_0 -->
<g id="edge42" class="edge">
<title>course__GEOG370&#45;&gt;choice_GEOG405_0</title>
<path fill="none" stroke="#7a8389" d="M1482.2,-159.51C1498.74,-152.55 1519.37,-143.87 1536.37,-136.73"/>
<polygon fill="#7a8389" stroke="#7a8389" points="1537.42,-138.94 1542.92,-133.97 1535.52,-134.42 1537.42,-138.94"/>
</g>
<!-- course__PHYS411 -->
<g id="node21" class="node">
<title>course__PHYS411</title>
<g id="a_node21"><a xlink:href="../../../courses/PHYS411.html" xlink:title="PHYS411: Time Series Analysis" target="_top">
<path fill="#efd8cf" stroke="#7e8d96" d="M1468.5,-302C1468.5,-302 1434.5,-302 1434.5,-302 1428.5,-302 1422.5,-296 1422.5,-290 1422.5,-290 1422.5,-278 1422.5,-278 1422.5,-272 1428.5,-266 1434.5,-266 1434.5,-266 1468.5,-266 1468.5,-266 1474.5,-266 1480.5,-272 1480.5,-278 1480.5,-278 1480.5,-290 1480.5,-290 1480.5,-296 1474.5,-302 1468.5,-302"/>
<text text-anchor="middle" x="1451.5" y="-281.8" font-family="Avenir Next" font-size="9.00" fill="#41515b">PHYS411</text>
</a>
</g>
</g>
<!-- course__EOS401 -->
<g id="node22" class="node">
<title>course__EOS401</title>
<g id="a_node22"><a xlink:href="../../../courses/EOS401.html" xlink:title="EOS401: Oceanographic Field School" target="_top">
<path fill="#d7e9ef" stroke="#7e8d96" d="M1703.5,-434C1703.5,-434 1673.5,-434 1673.5,-434 1667.5,-434 1661.5,-428 1661.5,-422 1661.5,-422 1661.5,-410 1661.5,-410 1661.5,-404 1667.5,-398 1673.5,-398 1673.5,-398 1703.5,-398 1703.5,-398 1709.5,-398 1715.5,-404 1715.5,-410 1715.5,-410 1715.5,-422 1715.5,-422 1715.5,-428 1709.5,-434 1703.5,-434"/>
<text text-anchor="middle" x="1688.5" y="-413.8" font-family="Avenir Next" font-size="9.00" fill="#41515b">EOS401</text>
</a>
</g>
</g>
<!-- course__GEOG405 -->
<g id="node23" class="node">
<title>course__GEOG405</title>
<g id="a_node23"><a xlink:href="../../../courses/GEOG405.html" xlink:title="GEOG405: Dynamics of the Cryosphere" target="_top">
<path fill="#e7e2d8" stroke="#7e8d96" d="M1707,-138C1707,-138 1670,-138 1670,-138 1664,-138 1658,-132 1658,-126 1658,-126 1658,-114 1658,-114 1658,-108 1664,-102 1670,-102 1670,-102 1707,-102 1707,-102 1713,-102 1719,-108 1719,-114 1719,-114 1719,-126 1719,-126 1719,-132 1713,-138 1707,-138"/>
<text text-anchor="middle" x="1688.5" y="-117.8" font-family="Avenir Next" font-size="9.00" fill="#41515b">GEOG405</text>
</a>
</g>
</g>
<!-- choice_EOS311_0_3&#45;&gt;course__EOS311 -->
<g id="edge7" class="edge">
<title>choice_EOS311_0_3&#45;&gt;course__EOS311</title>
<path fill="none" stroke="#5d6972" stroke-width="1.2" d="M671.76,-368.02C696.46,-393.08 741.25,-438.51 768.64,-466.3"/>
<polygon fill="#5d6972" stroke="#5d6972" stroke-width="1.2" points="767.21,-468.34 773.87,-471.61 770.7,-464.9 767.21,-468.34"/>
</g>
<!-- choice_EOS312_0_0&#45;&gt;course__EOS312 -->
<g id="edge10" class="edge">
<title>choice_EOS312_0_0&#45;&gt;course__EOS312</title>
<path fill="none" stroke="#5d6972" stroke-width="1.2" d="M1360.14,-397.39C1377.08,-400.88 1399.29,-405.45 1417.45,-409.19"/>
<polygon fill="#5d6972" stroke="#5d6972" stroke-width="1.2" points="1417.09,-411.62 1424.44,-410.63 1418.08,-406.82 1417.09,-411.62"/>
</g>
<!-- choice_EOS314_0_1&#45;&gt;course__EOS314 -->
<g id="edge15" class="edge">
<title>choice_EOS314_0_1&#45;&gt;course__EOS314</title>
<path fill="none" stroke="#5d6972" stroke-width="1.2" d="M680.28,-304.66C702.73,-313.77 735.11,-326.92 759.24,-336.71"/>
<polygon fill="#5d6972" stroke="#5d6972" stroke-width="1.2" points="758.41,-339.01 765.82,-339.37 760.25,-334.47 758.41,-339.01"/>
</g>
<!-- choice_EOS321_0_1_0&#45;&gt;course__EOS321 -->
<g id="edge18" class="edge">
<title>choice_EOS321_0_1_0&#45;&gt;course__EOS321</title>
<path fill="none" stroke="#5d6972" stroke-width="1.2" d="M960.15,-252C976.37,-252 997.36,-252 1014.76,-252"/>
<polygon fill="#5d6972" stroke="#5d6972" stroke-width="1.2" points="1014.97,-254.45 1021.97,-252 1014.97,-249.55 1014.97,-254.45"/>
</g>
<!-- choice_EOS325_0_2_0&#45;&gt;course__EOS325 -->
<g id="edge22" class="edge">
<title>choice_EOS325_0_2_0&#45;&gt;course__EOS325</title>
<path fill="none" stroke="#5d6972" stroke-width="1.2" d="M960.15,-195.08C976.37,-194.51 997.36,-193.78 1014.76,-193.17"/>
<polygon fill="#5d6972" stroke="#5d6972" stroke-width="1.2" points="1015.06,-195.61 1021.97,-192.91 1014.89,-190.71 1015.06,-195.61"/>
</g>
<!-- choice_EOS340_0&#45;&gt;course__EOS340 -->
<g id="edge25" class="edge">
<title>choice_EOS340_0&#45;&gt;course__EOS340</title>
<path fill="none" stroke="#5d6972" stroke-width="1.2" d="M680.24,-99.47C762.15,-104.05 1014.56,-118.16 1130.78,-124.66"/>
<polygon fill="#5d6972" stroke="#5d6972" stroke-width="1.2" points="1130.78,-127.11 1137.9,-125.06 1131.05,-122.22 1130.78,-127.11"/>
</g>
<!-- choice_EOS401_0_3&#45;&gt;choice_EOS401_0 -->
<g id="edge31" class="edge">
<title>choice_EOS401_0_3&#45;&gt;choice_EOS401_0</title>
<path fill="none" stroke="#7a8389" d="M1360.05,-344.87C1403.1,-359.52 1489.03,-388.78 1536.17,-404.82"/>
<polygon fill="#7a8389" stroke="#7a8389" points="1535.42,-407.16 1542.84,-407.09 1537,-402.52 1535.42,-407.16"/>
</g>
<!-- choice_EOS401_0&#45;&gt;course__EOS401 -->
<g id="edge32" class="edge">
<title>choice_EOS401_0&#45;&gt;course__EOS401</title>
<path fill="none" stroke="#5d6972" stroke-width="1.2" d="M1597.14,-416C1613.93,-416 1635.9,-416 1653.96,-416"/>
<polygon fill="#5d6972" stroke="#5d6972" stroke-width="1.2" points="1654.44,-418.45 1661.44,-416 1654.44,-413.55 1654.44,-418.45"/>
</g>
<!-- choice_EOS431_0_1&#45;&gt;course__EOS431 -->
<g id="edge37" class="edge">
<title>choice_EOS431_0_1&#45;&gt;course__EOS431</title>
<path fill="none" stroke="#5d6972" stroke-width="1.2" d="M680.01,-243.14C725.6,-251.98 822.99,-270.04 906,-280 983.34,-289.28 1073.03,-295.08 1130.7,-298.18"/>
<polygon fill="#5d6972" stroke="#5d6972" stroke-width="1.2" points="1130.81,-300.64 1137.93,-298.56 1131.06,-295.75 1130.81,-300.64"/>
</g>
<!-- choice_GEOG405_0&#45;&gt;course__GEOG405 -->
<g id="edge44" class="edge">
<title>choice_GEOG405_0&#45;&gt;course__GEOG405</title>
<path fill="none" stroke="#5d6972" stroke-width="1.2" d="M1597.14,-122.33C1612.88,-121.92 1633.15,-121.4 1650.51,-120.95"/>
<polygon fill="#5d6972" stroke="#5d6972" stroke-width="1.2" points="1650.81,-123.4 1657.75,-120.77 1650.69,-118.5 1650.81,-123.4"/>
</g>
<!-- choice_PHYS102B_0&#45;&gt;course__PHYS102B -->
<g id="edge49" class="edge">
<title>choice_PHYS102B_0&#45;&gt;course__PHYS102B</title>
<path fill="none" stroke="#5d6972" stroke-width="1.2" d="M399.63,-123.2C422.48,-139.43 456.01,-163.24 480.49,-180.62"/>
<polygon fill="#5d6972" stroke="#5d6972" stroke-width="1.2" points="479.38,-182.84 486.5,-184.89 482.22,-178.84 479.38,-182.84"/>
</g>
<!-- choice_PHYS411_0_0&#45;&gt;course__PHYS411 -->
<g id="edge53" class="edge">
<title>choice_PHYS411_0_0&#45;&gt;course__PHYS411</title>
<path fill="none" stroke="#5d6972" stroke-width="1.2" d="M1360.14,-280.9C1376.35,-281.45 1397.37,-282.18 1415.05,-282.78"/>
<polygon fill="#5d6972" stroke="#5d6972" stroke-width="1.2" points="1415.33,-285.24 1422.41,-283.04 1415.5,-280.35 1415.33,-285.24"/>
</g>
</g>
</svg>
