<?xml version="1.0" encoding="UTF-8" standalone="no"?>
<!DOCTYPE svg PUBLIC "-//W3C//DTD SVG 1.1//EN"
 "http://www.w3.org/Graphics/SVG/1.1/DTD/svg11.dtd">
<!-- Generated by graphviz version 2.43.0 (0)
 -->
<!-- Title: PHYS102A Pages: 1 -->
<svg width="1311pt" height="541pt"
 viewBox="0.00 0.00 1311.20 541.20" xmlns="http://www.w3.org/2000/svg" xmlns:xlink="http://www.w3.org/1999/xlink">
<g id="graph0" class="graph" transform="scale(1 1) rotate(0) translate(21.6 519.6)">
<title>PHYS102A</title>
<!-- course__PHYS102A -->
<g id="node1" class="node">
<title>course__PHYS102A</title>
<g id="a_node1"><a xlink:href="../../../courses/PHYS102A.html" xlink:title="PHYS102A: General Physics I" target="_top">
<path fill="#efd8cf" stroke="#1f4f66" stroke-width="2" d="M89,-204C89,-204 12,-204 12,-204 6,-204 0,-198 0,-192 0,-192 0,-180 0,-180 0,-174 6,-168 12,-168 12,-168 89,-168 89,-168 95,-168 101,-174 101,-180 101,-180 101,-192 101,-192 101,-198 95,-204 89,-204"/>
<text text-anchor="middle" x="50.5" y="-189" font-family="Avenir Next" font-size="10.00" fill="#17232b">PHYS102A</text>
<text text-anchor="middle" x="50.5" y="-178" font-family="Avenir Next" font-size="10.00" fill="#17232b">General Physics I</text>
</a>
</g>
</g>
<!-- course__PHYS102B -->
<g id="node2" class="node">
<title>course__PHYS102B</title>
<g id="a_node2"><a xlink:href="../../../courses/PHYS102B.html" xlink:title="PHYS102B: General Physics II" target="_top">
<path fill="#efd8cf" stroke="#1b2730" stroke-width="1.6" d="M217,-204C217,-204 174,-204 174,-204 168,-204 162,-198 162,-192 162,-192 162,-180 162,-180 162,-174 168,-168 174,-168 174,-168 217,-168 217,-168 223,-168 229,-174 229,-180 229,-180 229,-192 229,-192 229,-198 223,-204 217,-204"/>
<text text-anchor="middle" x="195.5" y="-183.5" font-family="Avenir Next" font-size="10.00" fill="#17232b">PHYS102B</text>
</a>
</g>
</g>
<!-- course__PHYS102A&#45;&gt;course__PHYS102B -->
<g id="edge31" class="edge">
<title>course__PHYS102A&#45;&gt;course__PHYS102B</title>
<path fill="none" stroke="#5d6972" stroke-width="1.2" d="M101.11,-186C118.46,-186 137.71,-186 154.21,-186"/>
<polygon fill="#5d6972" stroke="#5d6972" stroke-width="1.2" points="154.58,-188.45 161.58,-186 154.58,-183.55 154.58,-188.45"/>
</g>
<!-- course__EOS261 -->
<g id="node3" class="node">
<title>course__EOS261</title>
<g id="a_node3"><a xlink:href="../../../courses/EOS261.html" xlink:title="EOS261: The Climate System" target="_top">
<path fill="#d7e9ef" stroke="#7e8d96" d="M357,-204C357,-204 327,-204 327,-204 321,-204 315,-198 315,-192 315,-192 315,-180 315,-180 315,-174 321,-168 327,-168 327,-168 357,-168 357,-168 363,-168 369,-174 369,-180 369,-180 369,-192 369,-192 369,-198 363,-204 357,-204"/>
<text text-anchor="middle" x="342" y="-183.8" font-family="Avenir Next" font-size="9.00" fill="#41515b">EOS261</text>
</a>
</g>
</g>
<!-- course__PHYS102B&#45;&gt;course__EOS261 -->
<g id="edge3" class="edge">
<title>course__PHYS102B&#45;&gt;course__EOS261</title>
<path fill="none" stroke="#5d6972" stroke-width="1.2" d="M229.29,-186C252.68,-186 284.04,-186 307.57,-186"/>
<polygon fill="#5d6972" stroke="#5d6972" stroke-width="1.2" points="307.61,-188.45 314.61,-186 307.61,-183.55 307.61,-188.45"/>
</g>
<!-- course__EOS311 -->
<g id="node4" class="node">
<title>course__EOS311</title>
<g id="a_node4"><a xlink:href="../../../courses/EOS311.html" xlink:title="Equivalent or cross&#45;listed: BIOL311: Biological Oceanography | EOS311: Biological Oceanography" target="_top">
<path fill="#d7e9ef" stroke="#1b2730" stroke-width="1.6" d="M382,-417C382,-417 302,-417 302,-417 296,-417 290,-411 290,-405 290,-405 290,-393 290,-393 290,-387 296,-381 302,-381 302,-381 382,-381 382,-381 388,-381 394,-387 394,-393 394,-393 394,-405 394,-405 394,-411 388,-417 382,-417"/>
<text text-anchor="middle" x="342" y="-396.5" font-family="Avenir Next" font-size="10.00" fill="#17232b">BIOL311 / EOS311</text>
</a>
</g>
</g>
<!-- course__PHYS102B&#45;&gt;course__EOS311 -->
<g id="edge4" class="edge">
<title>course__PHYS102B&#45;&gt;course__EOS311</title>
<path fill="none" stroke="#5d6972" stroke-width="1.2" d="M208.82,-204.16C234.84,-242.52 295.4,-331.78 324.63,-374.87"/>
<polygon fill="#5d6972" stroke="#5d6972" stroke-width="1.2" points="322.75,-376.47 328.71,-380.89 326.81,-373.72 322.75,-376.47"/>
</g>
<!-- course__EOS314 -->
<g id="node5" class="node">
<title>course__EOS314</title>
<g id="a_node5"><a xlink:href="../../../courses/EOS314.html" xlink:title="EOS314: Descriptive Physical Oceanography" target="_top">
<path fill="#d7e9ef" stroke="#1b2730" stroke-width="1.6" d="M357,-260C357,-260 327,-260 327,-260 321,-260 315,-254 315,-248 315,-248 315,-236 315,-236 315,-230 321,-224 327,-224 327,-224 357,-224 357,-224 363,-224 369,-230 369,-236 369,-236 369,-248 369,-248 369,-254 363,-260 357,-260"/>
<text text-anchor="middle" x="342" y="-239.5" font-family="Avenir Next" font-size="10.00" fill="#17232b">EOS314</text>
</a>
</g>
</g>
<!-- course__PHYS102B&#45;&gt;course__EOS314 -->
<g id="edge8" class="edge">
<title>course__PHYS102B&#45;&gt;course__EOS314</title>
<path fill="none" stroke="#5d6972" stroke-width="1.2" d="M229.29,-198.71C252.78,-207.81 284.31,-220.03 307.88,-229.16"/>
<polygon fill="#5d6972" stroke="#5d6972" stroke-width="1.2" points="307.2,-231.53 314.61,-231.77 308.97,-226.96 307.2,-231.53"/>
</g>
<!-- course__EOS325 -->
<g id="node9" class="node">
<title>course__EOS325</title>
<g id="a_node9"><a xlink:href="../../../courses/EOS325.html" xlink:title="EOS325: Earth System Modelling" target="_top">
<path fill="#d7e9ef" stroke="#7e8d96" d="M613,-183C613,-183 583,-183 583,-183 577,-183 571,-177 571,-171 571,-171 571,-159 571,-159 571,-153 577,-147 583,-147 583,-147 613,-147 613,-147 619,-147 625,-153 625,-159 625,-159 625,-171 625,-171 625,-177 619,-183 613,-183"/>
<text text-anchor="middle" x="598" y="-162.8" font-family="Avenir Next" font-size="9.00" fill="#41515b">EOS325</text>
</a>
</g>
</g>
<!-- course__PHYS102B&#45;&gt;course__EOS325 -->
<g id="edge14" class="edge">
<title>course__PHYS102B&#45;&gt;course__EOS325</title>
<path fill="none" stroke="#5d6972" stroke-width="1.2" d="M229.29,-173.63C246.99,-167.6 269.38,-161.02 290,-158 388.69,-143.54 507.11,-153.96 563.7,-160.61"/>
<polygon fill="#5d6972" stroke="#5d6972" stroke-width="1.2" points="563.7,-163.08 570.94,-161.48 564.29,-158.21 563.7,-163.08"/>
</g>
<!-- course__EOS340 -->
<g id="node10" class="node">
<title>course__EOS340</title>
<g id="a_node10"><a xlink:href="../../../courses/EOS340.html" xlink:title="Equivalent or cross&#45;listed: EOS340: Atmospheric Physics | PHYS340: Atmospheric Physics" target="_top">
<path fill="#d7e9ef" stroke="#1b2730" stroke-width="1.6" d="M782,-92C782,-92 699,-92 699,-92 693,-92 687,-86 687,-80 687,-80 687,-68 687,-68 687,-62 693,-56 699,-56 699,-56 782,-56 782,-56 788,-56 794,-62 794,-68 794,-68 794,-80 794,-80 794,-86 788,-92 782,-92"/>
<text text-anchor="middle" x="740.5" y="-71.5" font-family="Avenir Next" font-size="10.00" fill="#17232b">EOS340 / PHYS340</text>
</a>
</g>
</g>
<!-- course__PHYS102B&#45;&gt;course__EOS340 -->
<g id="edge16" class="edge">
<title>course__PHYS102B&#45;&gt;course__EOS340</title>
<path fill="none" stroke="#5d6972" stroke-width="1.2" d="M229.1,-169.71C246.74,-161.5 269.14,-152.03 290,-146 426.24,-106.6 592.36,-87.06 679.51,-78.89"/>
<polygon fill="#5d6972" stroke="#5d6972" stroke-width="1.2" points="679.93,-81.32 686.67,-78.23 679.48,-76.44 679.93,-81.32"/>
</g>
<!-- choice_EOS321_0_1_0 -->
<g id="node22" class="node">
<title>choice_EOS321_0_1_0</title>
<path fill="#fff7ee" stroke="#b7793f" stroke-width="1.1" d="M497,-260C497,-260 467,-260 467,-260 461,-260 455,-254 455,-248 455,-248 455,-236 455,-236 455,-230 461,-224 467,-224 467,-224 497,-224 497,-224 503,-224 509,-230 509,-236 509,-236 509,-248 509,-248 509,-254 503,-260 497,-260"/>
<text text-anchor="middle" x="482" y="-239.8" font-family="Avenir Next" font-size="9.00">1 of</text>
</g>
<!-- course__EOS261&#45;&gt;choice_EOS321_0_1_0 -->
<g id="edge9" class="edge">
<title>course__EOS261&#45;&gt;choice_EOS321_0_1_0</title>
<path fill="none" stroke="#7a8389" d="M369.28,-196.66C391.73,-205.77 424.11,-218.92 448.24,-228.71"/>
<polygon fill="#7a8389" stroke="#7a8389" points="447.41,-231.01 454.82,-231.37 449.25,-226.47 447.41,-231.01"/>
</g>
<!-- choice_EOS325_0_2_0 -->
<g id="node23" class="node">
<title>choice_EOS325_0_2_0</title>
<path fill="#fff7ee" stroke="#b7793f" stroke-width="1.1" d="M497,-204C497,-204 467,-204 467,-204 461,-204 455,-198 455,-192 455,-192 455,-180 455,-180 455,-174 461,-168 467,-168 467,-168 497,-168 497,-168 503,-168 509,-174 509,-180 509,-180 509,-192 509,-192 509,-198 503,-204 497,-204"/>
<text text-anchor="middle" x="482" y="-183.8" font-family="Avenir Next" font-size="9.00">1 of</text>
</g>
<!-- course__EOS261&#45;&gt;choice_EOS325_0_2_0 -->
<g id="edge12" class="edge">
<title>course__EOS261&#45;&gt;choice_EOS325_0_2_0</title>
<path fill="none" stroke="#7a8389" d="M369.28,-186C391.53,-186 423.56,-186 447.62,-186"/>
<polygon fill="#7a8389" stroke="#7a8389" points="447.82,-188.45 454.82,-186 447.82,-183.55 447.82,-188.45"/>
</g>
<!-- course__BIOL446 -->
<g id="node6" class="node">
<title>course__BIOL446</title>
<g id="a_node6"><a xlink:href="../../../courses/BIOL446.html" xlink:title="BIOL446: Advanced Aquatic Ecology" target="_top">
<path fill="#dbe8d2" stroke="#7e8d96" d="M614,-498C614,-498 582,-498 582,-498 576,-498 570,-492 570,-486 570,-486 570,-474 570,-474 570,-468 576,-462 582,-462 582,-462 614,-462 614,-462 620,-462 626,-468 626,-474 626,-474 626,-486 626,-486 626,-492 620,-498 614,-498"/>
<text text-anchor="middle" x="598" y="-477.8" font-family="Avenir Next" font-size="9.00" fill="#41515b">BIOL446</text>
</a>
</g>
</g>
<!-- course__EOS311&#45;&gt;course__BIOL446 -->
<g id="edge1" class="edge">
<title>course__EOS311&#45;&gt;course__BIOL446</title>
<path fill="none" stroke="#5d6972" stroke-width="1.2" d="M394.1,-415.29C444.32,-431.31 519.56,-455.31 562.91,-469.13"/>
<polygon fill="#5d6972" stroke="#5d6972" stroke-width="1.2" points="562.43,-471.55 569.85,-471.34 563.92,-466.88 562.43,-471.55"/>
</g>
<!-- course__BIOL466 -->
<g id="node7" class="node">
<title>course__BIOL466</title>
<g id="a_node7"><a xlink:href="../../../courses/BIOL466.html" xlink:title="BIOL466: Frontiers in Marine Biology" target="_top">
<path fill="#dbe8d2" stroke="#7e8d96" d="M614,-442C614,-442 582,-442 582,-442 576,-442 570,-436 570,-430 570,-430 570,-418 570,-418 570,-412 576,-406 582,-406 582,-406 614,-406 614,-406 620,-406 626,-412 626,-418 626,-418 626,-430 626,-430 626,-436 620,-442 614,-442"/>
<text text-anchor="middle" x="598" y="-421.8" font-family="Avenir Next" font-size="9.00" fill="#41515b">BIOL466</text>
</a>
</g>
</g>
<!-- course__EOS311&#45;&gt;course__BIOL466 -->
<g id="edge2" class="edge">
<title>course__EOS311&#45;&gt;course__BIOL466</title>
<path fill="none" stroke="#5d6972" stroke-width="1.2" d="M394.1,-404.03C444.22,-408.96 519.25,-416.35 562.64,-420.62"/>
<polygon fill="#5d6972" stroke="#5d6972" stroke-width="1.2" points="562.64,-423.08 569.85,-421.33 563.12,-418.2 562.64,-423.08"/>
</g>
<!-- choice_EOS401_0 -->
<g id="node25" class="node">
<title>choice_EOS401_0</title>
<path fill="#fff7ee" stroke="#b7793f" stroke-width="1.1" d="M1134,-344C1134,-344 1104,-344 1104,-344 1098,-344 1092,-338 1092,-332 1092,-332 1092,-320 1092,-320 1092,-314 1098,-308 1104,-308 1104,-308 1134,-308 1134,-308 1140,-308 1146,-314 1146,-320 1146,-320 1146,-332 1146,-332 1146,-338 1140,-344 1134,-344"/>
<text text-anchor="middle" x="1119" y="-323.8" font-family="Avenir Next" font-size="9.00">3 of</text>
</g>
<!-- course__EOS311&#45;&gt;choice_EOS401_0 -->
<g id="edge20" class="edge">
<title>course__EOS311&#45;&gt;choice_EOS401_0</title>
<path fill="none" stroke="#7a8389" d="M394.43,-391.27C445.65,-384.26 526.57,-375 597,-375 597,-375 597,-375 883,-375 949.44,-375 966.26,-368.9 1031,-354 1049.13,-349.83 1068.9,-343.6 1085.01,-338.08"/>
<polygon fill="#7a8389" stroke="#7a8389" points="1085.87,-340.38 1091.67,-335.77 1084.26,-335.75 1085.87,-340.38"/>
</g>
<!-- choice_EOS312_0_0 -->
<g id="node21" class="node">
<title>choice_EOS312_0_0</title>
<path fill="#fff7ee" stroke="#b7793f" stroke-width="1.1" d="M897,-344C897,-344 867,-344 867,-344 861,-344 855,-338 855,-332 855,-332 855,-320 855,-320 855,-314 861,-308 867,-308 867,-308 897,-308 897,-308 903,-308 909,-314 909,-320 909,-320 909,-332 909,-332 909,-338 903,-344 897,-344"/>
<text text-anchor="middle" x="882" y="-323.8" font-family="Avenir Next" font-size="9.00">1 of</text>
</g>
<!-- course__EOS314&#45;&gt;choice_EOS312_0_0 -->
<g id="edge5" class="edge">
<title>course__EOS314&#45;&gt;choice_EOS312_0_0</title>
<path fill="none" stroke="#7a8389" d="M369.4,-255.5C391.62,-266.21 424.57,-280.58 455,-288 597.97,-322.89 774.9,-326.53 847.52,-326.4"/>
<polygon fill="#7a8389" stroke="#7a8389" points="847.63,-328.85 854.62,-326.37 847.61,-323.95 847.63,-328.85"/>
</g>
<!-- course__EOS314&#45;&gt;choice_EOS321_0_1_0 -->
<g id="edge10" class="edge">
<title>course__EOS314&#45;&gt;choice_EOS321_0_1_0</title>
<path fill="none" stroke="#7a8389" d="M369.28,-242C391.53,-242 423.56,-242 447.62,-242"/>
<polygon fill="#7a8389" stroke="#7a8389" points="447.82,-244.45 454.82,-242 447.82,-239.55 447.82,-244.45"/>
</g>
<!-- course__EOS314&#45;&gt;choice_EOS325_0_2_0 -->
<g id="edge13" class="edge">
<title>course__EOS314&#45;&gt;choice_EOS325_0_2_0</title>
<path fill="none" stroke="#7a8389" d="M369.28,-231.34C391.73,-222.23 424.11,-209.08 448.24,-199.29"/>
<polygon fill="#7a8389" stroke="#7a8389" points="449.25,-201.53 454.82,-196.63 447.41,-196.99 449.25,-201.53"/>
</g>
<!-- choice_EOS401_0_3 -->
<g id="node24" class="node">
<title>choice_EOS401_0_3</title>
<path fill="#fff7ee" stroke="#b7793f" stroke-width="1.1" d="M897,-288C897,-288 867,-288 867,-288 861,-288 855,-282 855,-276 855,-276 855,-264 855,-264 855,-258 861,-252 867,-252 867,-252 897,-252 897,-252 903,-252 909,-258 909,-264 909,-264 909,-276 909,-276 909,-282 903,-288 897,-288"/>
<text text-anchor="middle" x="882" y="-267.8" font-family="Avenir Next" font-size="9.00">1 of</text>
</g>
<!-- course__EOS314&#45;&gt;choice_EOS401_0_3 -->
<g id="edge18" class="edge">
<title>course__EOS314&#45;&gt;choice_EOS401_0_3</title>
<path fill="none" stroke="#7a8389" d="M369.36,-250.54C391.84,-257.34 425.16,-266.33 455,-270 600.48,-287.91 776.04,-278.09 847.9,-272.74"/>
<polygon fill="#7a8389" stroke="#7a8389" points="848.14,-275.18 854.93,-272.21 847.77,-270.29 848.14,-275.18"/>
</g>
<!-- course__EOS321 -->
<g id="node8" class="node">
<title>course__EOS321</title>
<g id="a_node8"><a xlink:href="../../../courses/EOS321.html" xlink:title="EOS321: Earth History" target="_top">
<path fill="#d7e9ef" stroke="#7e8d96" d="M613,-260C613,-260 583,-260 583,-260 577,-260 571,-254 571,-248 571,-248 571,-236 571,-236 571,-230 577,-224 583,-224 583,-224 613,-224 613,-224 619,-224 625,-230 625,-236 625,-236 625,-248 625,-248 625,-254 619,-260 613,-260"/>
<text text-anchor="middle" x="598" y="-239.8" font-family="Avenir Next" font-size="9.00" fill="#41515b">EOS321</text>
</a>
</g>
</g>
<!-- course__EOS325&#45;&gt;course__EOS340 -->
<g id="edge17" class="edge">
<title>course__EOS325&#45;&gt;course__EOS340</title>
<path fill="none" stroke="#5d6972" stroke-width="1.2" d="M622.69,-146.74C640.08,-133.67 664.49,-115.97 687,-102 690.49,-99.84 694.15,-97.67 697.86,-95.55"/>
<polygon fill="#5d6972" stroke="#5d6972" stroke-width="1.2" points="699.21,-97.61 704.12,-92.05 696.82,-93.33 699.21,-97.61"/>
</g>
<!-- course__EOS423 -->
<g id="node11" class="node">
<title>course__EOS423</title>
<g id="a_node11"><a xlink:href="../../../courses/EOS423.html" xlink:title="EOS423: Advanced Sedimentology and Stratigraphy" target="_top">
<path fill="#d7e9ef" stroke="#7e8d96" d="M755.5,-148C755.5,-148 725.5,-148 725.5,-148 719.5,-148 713.5,-142 713.5,-136 713.5,-136 713.5,-124 713.5,-124 713.5,-118 719.5,-112 725.5,-112 725.5,-112 755.5,-112 755.5,-112 761.5,-112 767.5,-118 767.5,-124 767.5,-124 767.5,-136 767.5,-136 767.5,-142 761.5,-148 755.5,-148"/>
<text text-anchor="middle" x="740.5" y="-127.8" font-family="Avenir Next" font-size="9.00" fill="#41515b">EOS423</text>
</a>
</g>
</g>
<!-- course__EOS325&#45;&gt;course__EOS423 -->
<g id="edge24" class="edge">
<title>course__EOS325&#45;&gt;course__EOS423</title>
<path fill="none" stroke="#5d6972" stroke-width="1.2" d="M625.1,-158.5C647.92,-152.81 681.2,-144.52 705.99,-138.35"/>
<polygon fill="#5d6972" stroke="#5d6972" stroke-width="1.2" points="706.87,-140.65 713.07,-136.59 705.68,-135.9 706.87,-140.65"/>
</g>
<!-- course__EOS431 -->
<g id="node12" class="node">
<title>course__EOS431</title>
<g id="a_node12"><a xlink:href="../../../courses/EOS431.html" xlink:title="Equivalent or cross&#45;listed: EOS431: Physical Oceanography | PHYS441: Physical Oceanography" target="_top">
<path fill="#d7e9ef" stroke="#1b2730" stroke-width="1.6" d="M782,-260C782,-260 699,-260 699,-260 693,-260 687,-254 687,-248 687,-248 687,-236 687,-236 687,-230 693,-224 699,-224 699,-224 782,-224 782,-224 788,-224 794,-230 794,-236 794,-236 794,-248 794,-248 794,-254 788,-260 782,-260"/>
<text text-anchor="middle" x="740.5" y="-239.5" font-family="Avenir Next" font-size="10.00" fill="#17232b">EOS431 / PHYS441</text>
</a>
</g>
</g>
<!-- course__EOS325&#45;&gt;course__EOS431 -->
<g id="edge25" class="edge">
<title>course__EOS325&#45;&gt;course__EOS431</title>
<path fill="none" stroke="#5d6972" stroke-width="1.2" d="M625.12,-179.7C642.59,-189.5 666.12,-202.62 687,-214 690.87,-216.11 694.91,-218.29 698.95,-220.47"/>
<polygon fill="#5d6972" stroke="#5d6972" stroke-width="1.2" points="697.95,-222.71 705.28,-223.86 700.27,-218.4 697.95,-222.71"/>
</g>
<!-- course__EOS460 -->
<g id="node13" class="node">
<title>course__EOS460</title>
<g id="a_node13"><a xlink:href="../../../courses/EOS460.html" xlink:title="EOS460: Earth System Science" target="_top">
<path fill="#d7e9ef" stroke="#7e8d96" d="M755.5,-204C755.5,-204 725.5,-204 725.5,-204 719.5,-204 713.5,-198 713.5,-192 713.5,-192 713.5,-180 713.5,-180 713.5,-174 719.5,-168 725.5,-168 725.5,-168 755.5,-168 755.5,-168 761.5,-168 767.5,-174 767.5,-180 767.5,-180 767.5,-192 767.5,-192 767.5,-198 761.5,-204 755.5,-204"/>
<text text-anchor="middle" x="740.5" y="-183.8" font-family="Avenir Next" font-size="9.00" fill="#41515b">EOS460</text>
</a>
</g>
</g>
<!-- course__EOS325&#45;&gt;course__EOS460 -->
<g id="edge28" class="edge">
<title>course__EOS325&#45;&gt;course__EOS460</title>
<path fill="none" stroke="#5d6972" stroke-width="1.2" d="M625.1,-168.9C647.92,-172.31 681.2,-177.29 705.99,-180.99"/>
<polygon fill="#5d6972" stroke="#5d6972" stroke-width="1.2" points="705.78,-183.44 713.07,-182.05 706.5,-178.59 705.78,-183.44"/>
</g>
<!-- course__EOS433 -->
<g id="node15" class="node">
<title>course__EOS433</title>
<g id="a_node15"><a xlink:href="../../../courses/EOS433.html" xlink:title="EOS433: The Physics of Climate" target="_top">
<path fill="#d7e9ef" stroke="#7e8d96" d="M1015.5,-36C1015.5,-36 985.5,-36 985.5,-36 979.5,-36 973.5,-30 973.5,-24 973.5,-24 973.5,-12 973.5,-12 973.5,-6 979.5,0 985.5,0 985.5,0 1015.5,0 1015.5,0 1021.5,0 1027.5,-6 1027.5,-12 1027.5,-12 1027.5,-24 1027.5,-24 1027.5,-30 1021.5,-36 1015.5,-36"/>
<text text-anchor="middle" x="1000.5" y="-15.8" font-family="Avenir Next" font-size="9.00" fill="#41515b">EOS433</text>
</a>
</g>
</g>
<!-- course__EOS340&#45;&gt;course__EOS433 -->
<g id="edge26" class="edge">
<title>course__EOS340&#45;&gt;course__EOS433</title>
<path fill="none" stroke="#5d6972" stroke-width="1.2" d="M794.02,-62.6C845.66,-51.39 922.89,-34.63 966.47,-25.17"/>
<polygon fill="#5d6972" stroke="#5d6972" stroke-width="1.2" points="967.11,-27.54 973.43,-23.66 966.07,-22.75 967.11,-27.54"/>
</g>
<!-- course__EOS451 -->
<g id="node16" class="node">
<title>course__EOS451</title>
<g id="a_node16"><a xlink:href="../../../courses/EOS451.html" xlink:title="EOS451: Introductory Dynamic Meteorology" target="_top">
<path fill="#d7e9ef" stroke="#7e8d96" d="M1015.5,-148C1015.5,-148 985.5,-148 985.5,-148 979.5,-148 973.5,-142 973.5,-136 973.5,-136 973.5,-124 973.5,-124 973.5,-118 979.5,-112 985.5,-112 985.5,-112 1015.5,-112 1015.5,-112 1021.5,-112 1027.5,-118 1027.5,-124 1027.5,-124 1027.5,-136 1027.5,-136 1027.5,-142 1021.5,-148 1015.5,-148"/>
<text text-anchor="middle" x="1000.5" y="-127.8" font-family="Avenir Next" font-size="9.00" fill="#41515b">EOS451</text>
</a>
</g>
</g>
<!-- course__EOS340&#45;&gt;course__EOS451 -->
<g id="edge27" class="edge">
<title>course__EOS340&#45;&gt;course__EOS451</title>
<path fill="none" stroke="#5d6972" stroke-width="1.2" d="M794.02,-85.4C845.66,-96.61 922.89,-113.37 966.47,-122.83"/>
<polygon fill="#5d6972" stroke="#5d6972" stroke-width="1.2" points="966.07,-125.25 973.43,-124.34 967.11,-120.46 966.07,-125.25"/>
</g>
<!-- course__GEOG370 -->
<g id="node17" class="node">
<title>course__GEOG370</title>
<g id="a_node17"><a xlink:href="../../../courses/GEOG370.html" xlink:title="GEOG370: Methods in Hydrology" target="_top">
<path fill="#e7e2d8" stroke="#7e8d96" d="M1019,-92C1019,-92 982,-92 982,-92 976,-92 970,-86 970,-80 970,-80 970,-68 970,-68 970,-62 976,-56 982,-56 982,-56 1019,-56 1019,-56 1025,-56 1031,-62 1031,-68 1031,-68 1031,-80 1031,-80 1031,-86 1025,-92 1019,-92"/>
<text text-anchor="middle" x="1000.5" y="-71.8" font-family="Avenir Next" font-size="9.00" fill="#41515b">GEOG370</text>
</a>
</g>
</g>
<!-- course__EOS340&#45;&gt;course__GEOG370 -->
<g id="edge29" class="edge">
<title>course__EOS340&#45;&gt;course__GEOG370</title>
<path fill="none" stroke="#5d6972" stroke-width="1.2" d="M794.02,-74C844.26,-74 918.73,-74 962.87,-74"/>
<polygon fill="#5d6972" stroke="#5d6972" stroke-width="1.2" points="962.95,-76.45 969.95,-74 962.95,-71.55 962.95,-76.45"/>
</g>
<!-- choice_PHYS411_0_0 -->
<g id="node26" class="node">
<title>choice_PHYS411_0_0</title>
<path fill="#fff7ee" stroke="#b7793f" stroke-width="1.1" d="M897,-218C897,-218 867,-218 867,-218 861,-218 855,-212 855,-206 855,-206 855,-194 855,-194 855,-188 861,-182 867,-182 867,-182 897,-182 897,-182 903,-182 909,-188 909,-194 909,-194 909,-206 909,-206 909,-212 903,-218 897,-218"/>
<text text-anchor="middle" x="882" y="-197.8" font-family="Avenir Next" font-size="9.00">2 of</text>
</g>
<!-- course__EOS340&#45;&gt;choice_PHYS411_0_0 -->
<g id="edge32" class="edge">
<title>course__EOS340&#45;&gt;choice_PHYS411_0_0</title>
<path fill="none" stroke="#7a8389" d="M779.24,-92.01C784.39,-95.07 789.46,-98.42 794,-102 821.6,-123.75 847.57,-154.94 863.83,-176.25"/>
<polygon fill="#7a8389" stroke="#7a8389" points="861.98,-177.87 868.15,-181.98 865.89,-174.92 861.98,-177.87"/>
</g>
<!-- course__EOS431&#45;&gt;choice_EOS312_0_0 -->
<g id="edge6" class="edge">
<title>course__EOS431&#45;&gt;choice_EOS312_0_0</title>
<path fill="none" stroke="#7a8389" d="M771.43,-260.02C794.21,-273.74 825.51,-292.59 848.83,-306.63"/>
<polygon fill="#7a8389" stroke="#7a8389" points="847.62,-308.76 854.88,-310.27 850.15,-304.56 847.62,-308.76"/>
</g>
<!-- course__EOS431&#45;&gt;choice_EOS401_0_3 -->
<g id="edge19" class="edge">
<title>course__EOS431&#45;&gt;choice_EOS401_0_3</title>
<path fill="none" stroke="#7a8389" d="M794.24,-252.59C812.17,-256.18 831.7,-260.1 847.68,-263.31"/>
<polygon fill="#7a8389" stroke="#7a8389" points="847.41,-265.76 854.76,-264.73 848.38,-260.95 847.41,-265.76"/>
</g>
<!-- course__EOS431&#45;&gt;choice_PHYS411_0_0 -->
<g id="edge33" class="edge">
<title>course__EOS431&#45;&gt;choice_PHYS411_0_0</title>
<path fill="none" stroke="#7a8389" d="M794.24,-226.12C812.17,-220.72 831.7,-214.84 847.68,-210.03"/>
<polygon fill="#7a8389" stroke="#7a8389" points="848.76,-212.27 854.76,-207.9 847.35,-207.57 848.76,-212.27"/>
</g>
<!-- course__EOS312 -->
<g id="node14" class="node">
<title>course__EOS312</title>
<g id="a_node14"><a xlink:href="../../../courses/EOS312.html" xlink:title="EOS312: Introductory Chemical Oceanography" target="_top">
<path fill="#d7e9ef" stroke="#7e8d96" d="M1015.5,-344C1015.5,-344 985.5,-344 985.5,-344 979.5,-344 973.5,-338 973.5,-332 973.5,-332 973.5,-320 973.5,-320 973.5,-314 979.5,-308 985.5,-308 985.5,-308 1015.5,-308 1015.5,-308 1021.5,-308 1027.5,-314 1027.5,-320 1027.5,-320 1027.5,-332 1027.5,-332 1027.5,-338 1021.5,-344 1015.5,-344"/>
<text text-anchor="middle" x="1000.5" y="-323.8" font-family="Avenir Next" font-size="9.00" fill="#41515b">EOS312</text>
</a>
</g>
</g>
<!-- course__EOS312&#45;&gt;choice_EOS401_0 -->
<g id="edge21" class="edge">
<title>course__EOS312&#45;&gt;choice_EOS401_0</title>
<path fill="none" stroke="#7a8389" d="M1027.64,-326C1044.43,-326 1066.4,-326 1084.46,-326"/>
<polygon fill="#7a8389" stroke="#7a8389" points="1084.94,-328.45 1091.94,-326 1084.94,-323.55 1084.94,-328.45"/>
</g>
<!-- course__GEOG477 -->
<g id="node20" class="node">
<title>course__GEOG477</title>
<g id="a_node20"><a xlink:href="../../../courses/GEOG477.html" xlink:title="GEOG477: Field Studies in Physical Geography" target="_top">
<path fill="#e7e2d8" stroke="#7e8d96" d="M1256,-92C1256,-92 1219,-92 1219,-92 1213,-92 1207,-86 1207,-80 1207,-80 1207,-68 1207,-68 1207,-62 1213,-56 1219,-56 1219,-56 1256,-56 1256,-56 1262,-56 1268,-62 1268,-68 1268,-68 1268,-80 1268,-80 1268,-86 1262,-92 1256,-92"/>
<text text-anchor="middle" x="1237.5" y="-71.8" font-family="Avenir Next" font-size="9.00" fill="#41515b">GEOG477</text>
</a>
</g>
</g>
<!-- course__GEOG370&#45;&gt;course__GEOG477 -->
<g id="edge30" class="edge">
<title>course__GEOG370&#45;&gt;course__GEOG477</title>
<path fill="none" stroke="#5d6972" stroke-width="1.2" d="M1031.26,-74C1074.17,-74 1153.34,-74 1199.81,-74"/>
<polygon fill="#5d6972" stroke="#5d6972" stroke-width="1.2" points="1199.98,-76.45 1206.98,-74 1199.98,-71.55 1199.98,-76.45"/>
</g>
<!-- course__PHYS411 -->
<g id="node18" class="node">
<title>course__PHYS411</title>
<g id="a_node18"><a xlink:href="../../../courses/PHYS411.html" xlink:title="PHYS411: Time Series Analysis" target="_top">
<path fill="#efd8cf" stroke="#7e8d96" d="M1017.5,-218C1017.5,-218 983.5,-218 983.5,-218 977.5,-218 971.5,-212 971.5,-206 971.5,-206 971.5,-194 971.5,-194 971.5,-188 977.5,-182 983.5,-182 983.5,-182 1017.5,-182 1017.5,-182 1023.5,-182 1029.5,-188 1029.5,-194 1029.5,-194 1029.5,-206 1029.5,-206 1029.5,-212 1023.5,-218 1017.5,-218"/>
<text text-anchor="middle" x="1000.5" y="-197.8" font-family="Avenir Next" font-size="9.00" fill="#41515b">PHYS411</text>
</a>
</g>
</g>
<!-- course__EOS401 -->
<g id="node19" class="node">
<title>course__EOS401</title>
<g id="a_node19"><a xlink:href="../../../courses/EOS401.html" xlink:title="EOS401: Oceanographic Field School" target="_top">
<path fill="#d7e9ef" stroke="#7e8d96" d="M1252.5,-344C1252.5,-344 1222.5,-344 1222.5,-344 1216.5,-344 1210.5,-338 1210.5,-332 1210.5,-332 1210.5,-320 1210.5,-320 1210.5,-314 1216.5,-308 1222.5,-308 1222.5,-308 1252.5,-308 1252.5,-308 1258.5,-308 1264.5,-314 1264.5,-320 1264.5,-320 1264.5,-332 1264.5,-332 1264.5,-338 1258.5,-344 1252.5,-344"/>
<text text-anchor="middle" x="1237.5" y="-323.8" font-family="Avenir Next" font-size="9.00" fill="#41515b">EOS401</text>
</a>
</g>
</g>
<!-- choice_EOS312_0_0&#45;&gt;course__EOS312 -->
<g id="edge7" class="edge">
<title>choice_EOS312_0_0&#45;&gt;course__EOS312</title>
<path fill="none" stroke="#5d6972" stroke-width="1.2" d="M909.14,-326C925.93,-326 947.9,-326 965.96,-326"/>
<polygon fill="#5d6972" stroke="#5d6972" stroke-width="1.2" points="966.44,-328.45 973.44,-326 966.44,-323.55 966.44,-328.45"/>
</g>
<!-- choice_EOS321_0_1_0&#45;&gt;course__EOS321 -->
<g id="edge11" class="edge">
<title>choice_EOS321_0_1_0&#45;&gt;course__EOS321</title>
<path fill="none" stroke="#5d6972" stroke-width="1.2" d="M509.15,-242C525.37,-242 546.36,-242 563.76,-242"/>
<polygon fill="#5d6972" stroke="#5d6972" stroke-width="1.2" points="563.97,-244.45 570.97,-242 563.97,-239.55 563.97,-244.45"/>
</g>
<!-- choice_EOS325_0_2_0&#45;&gt;course__EOS325 -->
<g id="edge15" class="edge">
<title>choice_EOS325_0_2_0&#45;&gt;course__EOS325</title>
<path fill="none" stroke="#5d6972" stroke-width="1.2" d="M509.15,-181.18C525.37,-178.19 546.36,-174.33 563.76,-171.12"/>
<polygon fill="#5d6972" stroke="#5d6972" stroke-width="1.2" points="564.53,-173.47 570.97,-169.8 563.64,-168.65 564.53,-173.47"/>
</g>
<!-- choice_EOS401_0_3&#45;&gt;choice_EOS401_0 -->
<g id="edge22" class="edge">
<title>choice_EOS401_0_3&#45;&gt;choice_EOS401_0</title>
<path fill="none" stroke="#7a8389" d="M909.15,-273.94C938.89,-278.65 988.8,-287.26 1031,-298 1049.16,-302.62 1069.09,-308.94 1085.28,-314.41"/>
<polygon fill="#7a8389" stroke="#7a8389" points="1084.56,-316.75 1091.98,-316.69 1086.14,-312.11 1084.56,-316.75"/>
</g>
<!-- choice_EOS401_0&#45;&gt;course__EOS401 -->
<g id="edge23" class="edge">
<title>choice_EOS401_0&#45;&gt;course__EOS401</title>
<path fill="none" stroke="#5d6972" stroke-width="1.2" d="M1146.14,-326C1162.93,-326 1184.9,-326 1202.96,-326"/>
<polygon fill="#5d6972" stroke="#5d6972" stroke-width="1.2" points="1203.44,-328.45 1210.44,-326 1203.44,-323.55 1203.44,-328.45"/>
</g>
<!-- choice_PHYS411_0_0&#45;&gt;course__PHYS411 -->
<g id="edge34" class="edge">
<title>choice_PHYS411_0_0&#45;&gt;course__PHYS411</title>
<path fill="none" stroke="#5d6972" stroke-width="1.2" d="M909.14,-200C925.35,-200 946.37,-200 964.05,-200"/>
<polygon fill="#5d6972" stroke="#5d6972" stroke-width="1.2" points="964.41,-202.45 971.41,-200 964.41,-197.55 964.41,-202.45"/>
</g>
</g>
</svg>
