<?xml version="1.0" encoding="UTF-8" standalone="no"?>
<!DOCTYPE svg PUBLIC "-//W3C//DTD SVG 1.1//EN"
 "http://www.w3.org/Graphics/SVG/1.1/DTD/svg11.dtd">
<!-- Generated by graphviz version 2.43.0 (0)
 -->
<!-- Title: PHYS110 Pages: 1 -->
<svg width="753pt" height="527pt"
 viewBox="0.00 0.00 753.20 527.20" xmlns="http://www.w3.org/2000/svg" xmlns:xlink="http://www.w3.org/1999/xlink">
<g id="graph0" class="graph" transform="scale(1 1) rotate(0) translate(21.6 505.6)">
<title>PHYS110</title>
<!-- course__MATH100 -->
<g id="node1" class="node">
<title>course__MATH100</title>
<g id="a_node1"><a xlink:href="../../../courses/MATH100.html" xlink:title="Collapsed in simplified view: MATH100: Calculus I | MATH102: Calculus for Students in the Social and Biological Sciences | MATH109: Introduction to Calculus" target="_top">
<path fill="#dfe3f4" stroke="#1b2730" stroke-width="1.6" d="M52,-284C52,-284 12,-284 12,-284 6,-284 0,-278 0,-272 0,-272 0,-260 0,-260 0,-254 6,-248 12,-248 12,-248 52,-248 52,-248 58,-248 64,-254 64,-260 64,-260 64,-272 64,-272 64,-278 58,-284 52,-284"/>
<text text-anchor="middle" x="32" y="-263.5" font-family="Avenir Next" font-size="10.00" fill="#17232b">Calculus I</text>
</a>
</g>
</g>
<!-- course__PHYS102A -->
<g id="node2" class="node">
<title>course__PHYS102A</title>
<g id="a_node2"><a xlink:href="../../../courses/PHYS110.html" xlink:title="Collapsed in simplified view: PHYS102A: General Physics I | PHYS110: Introductory Physics I | PHYS120: Physics I" target="_top">
<path fill="#efd8cf" stroke="#1f4f66" stroke-width="2" d="M235,-309C235,-309 137,-309 137,-309 131,-309 125,-303 125,-297 125,-297 125,-285 125,-285 125,-279 131,-273 137,-273 137,-273 235,-273 235,-273 241,-273 247,-279 247,-285 247,-285 247,-297 247,-297 247,-303 241,-309 235,-309"/>
<text text-anchor="middle" x="186" y="-294" font-family="Avenir Next" font-size="10.00" fill="#17232b">Physics I</text>
<text text-anchor="middle" x="186" y="-283" font-family="Avenir Next" font-size="10.00" fill="#17232b">Introductory Physics I</text>
</a>
</g>
</g>
<!-- course__MATH100&#45;&gt;course__PHYS102A -->
<g id="edge7" class="edge">
<title>course__MATH100&#45;&gt;course__PHYS102A</title>
<path fill="none" stroke="#5d6972" stroke-width="1.2" d="M64.13,-271.12C79.54,-273.65 98.79,-276.82 117.36,-279.87"/>
<polygon fill="#5d6972" stroke="#5d6972" stroke-width="1.2" points="117.4,-282.37 124.71,-281.08 118.2,-277.53 117.4,-282.37"/>
</g>
<!-- course__PHYS102B -->
<g id="node4" class="node">
<title>course__PHYS102B</title>
<g id="a_node4"><a xlink:href="../../../courses/PHYS102B.html" xlink:title="Collapsed in simplified view: PHYS102B: General Physics II | PHYS111: Introductory Physics II | PHYS130: Physics II" target="_top">
<path fill="#efd8cf" stroke="#1b2730" stroke-width="1.6" d="M375.5,-260C375.5,-260 337.5,-260 337.5,-260 331.5,-260 325.5,-254 325.5,-248 325.5,-248 325.5,-236 325.5,-236 325.5,-230 331.5,-224 337.5,-224 337.5,-224 375.5,-224 375.5,-224 381.5,-224 387.5,-230 387.5,-236 387.5,-236 387.5,-248 387.5,-248 387.5,-254 381.5,-260 375.5,-260"/>
<text text-anchor="middle" x="356.5" y="-239.5" font-family="Avenir Next" font-size="10.00" fill="#17232b">Physics II</text>
</a>
</g>
</g>
<!-- course__MATH100&#45;&gt;course__PHYS102B -->
<g id="edge9" class="edge">
<title>course__MATH100&#45;&gt;course__PHYS102B</title>
<path fill="none" stroke="#5d6972" stroke-width="1.2" d="M64.22,-263.68C123.88,-259.24 253.88,-249.56 318.09,-244.78"/>
<polygon fill="#5d6972" stroke="#5d6972" stroke-width="1.2" points="318.41,-247.22 325.21,-244.25 318.05,-242.33 318.41,-247.22"/>
</g>
<!-- course__EOS210 -->
<g id="node3" class="node">
<title>course__EOS210</title>
<g id="a_node3"><a xlink:href="../../../courses/EOS210.html" xlink:title="Collapsed in simplified view: EOS210: Introductory Geophysics | PHYS210: Introductory Geophysics" target="_top">
<path fill="#d7e9ef" stroke="#1b2730" stroke-width="1.6" d="M393,-316C393,-316 320,-316 320,-316 314,-316 308,-310 308,-304 308,-304 308,-292 308,-292 308,-286 314,-280 320,-280 320,-280 393,-280 393,-280 399,-280 405,-286 405,-292 405,-292 405,-304 405,-304 405,-310 399,-316 393,-316"/>
<text text-anchor="middle" x="356.5" y="-295.5" font-family="Avenir Next" font-size="10.00" fill="#17232b">Intro geophysics</text>
</a>
</g>
</g>
<!-- course__PHYS102A&#45;&gt;course__EOS210 -->
<g id="edge1" class="edge">
<title>course__PHYS102A&#45;&gt;course__EOS210</title>
<path fill="none" stroke="#5d6972" stroke-width="1.2" d="M247.36,-293.51C264.79,-294.23 283.71,-295.02 300.78,-295.73"/>
<polygon fill="#5d6972" stroke="#5d6972" stroke-width="1.2" points="300.88,-298.18 307.98,-296.03 301.08,-293.29 300.88,-298.18"/>
</g>
<!-- course__PHYS102A&#45;&gt;course__PHYS102B -->
<g id="edge8" class="edge">
<title>course__PHYS102A&#45;&gt;course__PHYS102B</title>
<path fill="none" stroke="#5d6972" stroke-width="1.2" d="M247.36,-273.45C271.11,-266.54 297.63,-258.83 318.46,-252.77"/>
<polygon fill="#5d6972" stroke="#5d6972" stroke-width="1.2" points="319.26,-255.09 325.3,-250.78 317.89,-250.39 319.26,-255.09"/>
</g>
<!-- course__EOS311 -->
<g id="node5" class="node">
<title>course__EOS311</title>
<g id="a_node5"><a xlink:href="../../../courses/EOS311.html" xlink:title="Equivalent or cross&#45;listed: BIOL311: Biological Oceanography | EOS311: Biological Oceanography" target="_top">
<path fill="#d7e9ef" stroke="#1b2730" stroke-width="1.6" d="M564,-484C564,-484 484,-484 484,-484 478,-484 472,-478 472,-472 472,-472 472,-460 472,-460 472,-454 478,-448 484,-448 484,-448 564,-448 564,-448 570,-448 576,-454 576,-460 576,-460 576,-472 576,-472 576,-478 570,-484 564,-484"/>
<text text-anchor="middle" x="524" y="-463.5" font-family="Avenir Next" font-size="10.00" fill="#17232b">BIOL311 / EOS311</text>
</a>
</g>
</g>
<!-- course__PHYS102B&#45;&gt;course__EOS311 -->
<g id="edge2" class="edge">
<title>course__PHYS102B&#45;&gt;course__EOS311</title>
<path fill="none" stroke="#5d6972" stroke-width="1.2" d="M387.54,-255.46C393.96,-259.41 400.23,-264.26 405,-270 455.76,-331.1 412.95,-378.87 466,-438 467.76,-439.96 469.69,-441.8 471.74,-443.52"/>
<polygon fill="#5d6972" stroke="#5d6972" stroke-width="1.2" points="470.36,-445.55 477.42,-447.82 473.31,-441.64 470.36,-445.55"/>
</g>
<!-- course__EOS314 -->
<g id="node6" class="node">
<title>course__EOS314</title>
<g id="a_node6"><a xlink:href="../../../courses/EOS314.html" xlink:title="EOS314: Descriptive Physical Oceanography" target="_top">
<path fill="#d7e9ef" stroke="#1b2730" stroke-width="1.6" d="M539,-428C539,-428 509,-428 509,-428 503,-428 497,-422 497,-416 497,-416 497,-404 497,-404 497,-398 503,-392 509,-392 509,-392 539,-392 539,-392 545,-392 551,-398 551,-404 551,-404 551,-416 551,-416 551,-422 545,-428 539,-428"/>
<text text-anchor="middle" x="524" y="-407.5" font-family="Avenir Next" font-size="10.00" fill="#17232b">EOS314</text>
</a>
</g>
</g>
<!-- course__PHYS102B&#45;&gt;course__EOS314 -->
<g id="edge3" class="edge">
<title>course__PHYS102B&#45;&gt;course__EOS314</title>
<path fill="none" stroke="#5d6972" stroke-width="1.2" d="M387.92,-256.61C394.03,-260.42 400.08,-264.91 405,-270 444.39,-310.75 425.08,-342.77 466,-382 472.91,-388.63 481.7,-393.98 490.29,-398.16"/>
<polygon fill="#5d6972" stroke="#5d6972" stroke-width="1.2" points="489.4,-400.45 496.78,-401.13 491.43,-395.99 489.4,-400.45"/>
</g>
<!-- course__EOS340 -->
<g id="node7" class="node">
<title>course__EOS340</title>
<g id="a_node7"><a xlink:href="../../../courses/EOS340.html" xlink:title="Equivalent or cross&#45;listed: EOS340: Atmospheric Physics | PHYS340: Atmospheric Physics" target="_top">
<path fill="#d7e9ef" stroke="#1b2730" stroke-width="1.6" d="M565.5,-372C565.5,-372 482.5,-372 482.5,-372 476.5,-372 470.5,-366 470.5,-360 470.5,-360 470.5,-348 470.5,-348 470.5,-342 476.5,-336 482.5,-336 482.5,-336 565.5,-336 565.5,-336 571.5,-336 577.5,-342 577.5,-348 577.5,-348 577.5,-360 577.5,-360 577.5,-366 571.5,-372 565.5,-372"/>
<text text-anchor="middle" x="524" y="-351.5" font-family="Avenir Next" font-size="10.00" fill="#17232b">EOS340 / PHYS340</text>
</a>
</g>
</g>
<!-- course__PHYS102B&#45;&gt;course__EOS340 -->
<g id="edge4" class="edge">
<title>course__PHYS102B&#45;&gt;course__EOS340</title>
<path fill="none" stroke="#5d6972" stroke-width="1.2" d="M387.51,-258.39C393.45,-262 399.54,-265.95 405,-270 434.57,-291.91 435.62,-305.23 466,-326 469.32,-328.27 472.86,-330.47 476.48,-332.56"/>
<polygon fill="#5d6972" stroke="#5d6972" stroke-width="1.2" points="475.32,-334.71 482.62,-335.98 477.7,-330.43 475.32,-334.71"/>
</g>
<!-- course__EOS431 -->
<g id="node8" class="node">
<title>course__EOS431</title>
<g id="a_node8"><a xlink:href="../../../courses/EOS431.html" xlink:title="Equivalent or cross&#45;listed: EOS431: Physical Oceanography | PHYS441: Physical Oceanography" target="_top">
<path fill="#d7e9ef" stroke="#1b2730" stroke-width="1.6" d="M565.5,-316C565.5,-316 482.5,-316 482.5,-316 476.5,-316 470.5,-310 470.5,-304 470.5,-304 470.5,-292 470.5,-292 470.5,-286 476.5,-280 482.5,-280 482.5,-280 565.5,-280 565.5,-280 571.5,-280 577.5,-286 577.5,-292 577.5,-292 577.5,-304 577.5,-304 577.5,-310 571.5,-316 565.5,-316"/>
<text text-anchor="middle" x="524" y="-295.5" font-family="Avenir Next" font-size="10.00" fill="#17232b">EOS431 / PHYS441</text>
</a>
</g>
</g>
<!-- course__PHYS102B&#45;&gt;course__EOS431 -->
<g id="edge5" class="edge">
<title>course__PHYS102B&#45;&gt;course__EOS431</title>
<path fill="none" stroke="#5d6972" stroke-width="1.2" d="M387.86,-252.27C409.01,-259.43 437.94,-269.22 463.6,-277.9"/>
<polygon fill="#5d6972" stroke="#5d6972" stroke-width="1.2" points="462.97,-280.28 470.39,-280.2 464.54,-275.63 462.97,-280.28"/>
</g>
<!-- course__MATH248 -->
<g id="node9" class="node">
<title>course__MATH248</title>
<g id="a_node9"><a xlink:href="../../../courses/MATH248.html" xlink:title="Equivalent or cross&#45;listed: MATH248: Computer Assisted Mathematics | PHYS248: Computer Assisted Physics" target="_top">
<path fill="#dfe3f4" stroke="#1b2730" stroke-width="1.6" d="M570,-260C570,-260 478,-260 478,-260 472,-260 466,-254 466,-248 466,-248 466,-236 466,-236 466,-230 472,-224 478,-224 478,-224 570,-224 570,-224 576,-224 582,-230 582,-236 582,-236 582,-248 582,-248 582,-254 576,-260 570,-260"/>
<text text-anchor="middle" x="524" y="-239.5" font-family="Avenir Next" font-size="10.00" fill="#17232b">MATH248 / PHYS248</text>
</a>
</g>
</g>
<!-- course__PHYS102B&#45;&gt;course__MATH248 -->
<g id="edge6" class="edge">
<title>course__PHYS102B&#45;&gt;course__MATH248</title>
<path fill="none" stroke="#5d6972" stroke-width="1.2" d="M387.86,-242C407.64,-242 434.23,-242 458.58,-242"/>
<polygon fill="#5d6972" stroke="#5d6972" stroke-width="1.2" points="458.71,-244.45 465.71,-242 458.71,-239.55 458.71,-244.45"/>
</g>
<!-- course__PHYS215 -->
<g id="node10" class="node">
<title>course__PHYS215</title>
<g id="a_node10"><a xlink:href="../../../courses/PHYS215.html" xlink:title="PHYS215: Introductory Quantum Physics" target="_top">
<path fill="#efd8cf" stroke="#1b2730" stroke-width="1.6" d="M542,-204C542,-204 506,-204 506,-204 500,-204 494,-198 494,-192 494,-192 494,-180 494,-180 494,-174 500,-168 506,-168 506,-168 542,-168 542,-168 548,-168 554,-174 554,-180 554,-180 554,-192 554,-192 554,-198 548,-204 542,-204"/>
<text text-anchor="middle" x="524" y="-183.5" font-family="Avenir Next" font-size="10.00" fill="#17232b">PHYS215</text>
</a>
</g>
</g>
<!-- course__PHYS102B&#45;&gt;course__PHYS215 -->
<g id="edge10" class="edge">
<title>course__PHYS102B&#45;&gt;course__PHYS215</title>
<path fill="none" stroke="#5d6972" stroke-width="1.2" d="M387.86,-231.73C415.85,-222.26 457.42,-208.19 487.06,-198.16"/>
<polygon fill="#5d6972" stroke="#5d6972" stroke-width="1.2" points="488.1,-200.4 493.95,-195.83 486.53,-195.75 488.1,-200.4"/>
</g>
<!-- course__PHYS216 -->
<g id="node11" class="node">
<title>course__PHYS216</title>
<g id="a_node11"><a xlink:href="../../../courses/PHYS216.html" xlink:title="PHYS216: Introductory Electricity and Magnetism" target="_top">
<path fill="#efd8cf" stroke="#1b2730" stroke-width="1.6" d="M542,-148C542,-148 506,-148 506,-148 500,-148 494,-142 494,-136 494,-136 494,-124 494,-124 494,-118 500,-112 506,-112 506,-112 542,-112 542,-112 548,-112 554,-118 554,-124 554,-124 554,-136 554,-136 554,-142 548,-148 542,-148"/>
<text text-anchor="middle" x="524" y="-127.5" font-family="Avenir Next" font-size="10.00" fill="#17232b">PHYS216</text>
</a>
</g>
</g>
<!-- course__PHYS102B&#45;&gt;course__PHYS216 -->
<g id="edge11" class="edge">
<title>course__PHYS102B&#45;&gt;course__PHYS216</title>
<path fill="none" stroke="#5d6972" stroke-width="1.2" d="M378.19,-223.93C399.36,-205.94 433.66,-178.17 466,-158 472.73,-153.8 480.18,-149.75 487.42,-146.09"/>
<polygon fill="#5d6972" stroke="#5d6972" stroke-width="1.2" points="488.78,-148.15 493.98,-142.86 486.61,-143.76 488.78,-148.15"/>
</g>
<!-- course__PHYS217 -->
<g id="node12" class="node">
<title>course__PHYS217</title>
<g id="a_node12"><a xlink:href="../../../courses/PHYS217.html" xlink:title="Equivalent or cross&#45;listed: PHYS217: Introductory Thermodynamics | PHYS317: Thermodynamics" target="_top">
<path fill="#efd8cf" stroke="#1b2730" stroke-width="1.6" d="M568.5,-92C568.5,-92 479.5,-92 479.5,-92 473.5,-92 467.5,-86 467.5,-80 467.5,-80 467.5,-68 467.5,-68 467.5,-62 473.5,-56 479.5,-56 479.5,-56 568.5,-56 568.5,-56 574.5,-56 580.5,-62 580.5,-68 580.5,-68 580.5,-80 580.5,-80 580.5,-86 574.5,-92 568.5,-92"/>
<text text-anchor="middle" x="524" y="-71.5" font-family="Avenir Next" font-size="10.00" fill="#17232b">PHYS217 / PHYS317</text>
</a>
</g>
</g>
<!-- course__PHYS102B&#45;&gt;course__PHYS217 -->
<g id="edge12" class="edge">
<title>course__PHYS102B&#45;&gt;course__PHYS217</title>
<path fill="none" stroke="#5d6972" stroke-width="1.2" d="M367.73,-223.96C384.88,-195.05 421.91,-137.95 466,-102 468.64,-99.85 471.47,-97.81 474.41,-95.89"/>
<polygon fill="#5d6972" stroke="#5d6972" stroke-width="1.2" points="475.88,-97.85 480.56,-92.1 473.32,-93.68 475.88,-97.85"/>
</g>
<!-- course__PHYS229 -->
<g id="node13" class="node">
<title>course__PHYS229</title>
<g id="a_node13"><a xlink:href="../../../courses/PHYS229.html" xlink:title="PHYS229: Introduction to Experimental Physics" target="_top">
<path fill="#efd8cf" stroke="#1b2730" stroke-width="1.6" d="M542,-36C542,-36 506,-36 506,-36 500,-36 494,-30 494,-24 494,-24 494,-12 494,-12 494,-6 500,0 506,0 506,0 542,0 542,0 548,0 554,-6 554,-12 554,-12 554,-24 554,-24 554,-30 548,-36 542,-36"/>
<text text-anchor="middle" x="524" y="-15.5" font-family="Avenir Next" font-size="10.00" fill="#17232b">PHYS229</text>
</a>
</g>
</g>
<!-- course__PHYS102B&#45;&gt;course__PHYS229 -->
<g id="edge13" class="edge">
<title>course__PHYS102B&#45;&gt;course__PHYS229</title>
<path fill="none" stroke="#5d6972" stroke-width="1.2" d="M363.29,-223.99C376.17,-186.42 410.51,-98.84 466,-46 472.18,-40.12 479.82,-35.24 487.49,-31.29"/>
<polygon fill="#5d6972" stroke="#5d6972" stroke-width="1.2" points="488.67,-33.44 493.9,-28.18 486.53,-29.03 488.67,-33.44"/>
</g>
<!-- course__PHYS321A -->
<g id="node14" class="node">
<title>course__PHYS321A</title>
<g id="a_node14"><a xlink:href="../../../courses/PHYS321A.html" xlink:title="PHYS321A: Classical Mechanics I" target="_top">
<path fill="#efd8cf" stroke="#1b2730" stroke-width="1.6" d="M698,-260C698,-260 655,-260 655,-260 649,-260 643,-254 643,-248 643,-248 643,-236 643,-236 643,-230 649,-224 655,-224 655,-224 698,-224 698,-224 704,-224 710,-230 710,-236 710,-236 710,-248 710,-248 710,-254 704,-260 698,-260"/>
<text text-anchor="middle" x="676.5" y="-239.5" font-family="Avenir Next" font-size="10.00" fill="#17232b">PHYS321A</text>
</a>
</g>
</g>
<!-- course__MATH248&#45;&gt;course__PHYS321A -->
<g id="edge14" class="edge">
<title>course__MATH248&#45;&gt;course__PHYS321A</title>
<path fill="none" stroke="#5d6972" stroke-width="1.2" d="M582.33,-242C600.05,-242 619.18,-242 635.46,-242"/>
<polygon fill="#5d6972" stroke="#5d6972" stroke-width="1.2" points="635.73,-244.45 642.73,-242 635.73,-239.55 635.73,-244.45"/>
</g>
</g>
</svg>
