<?xml version="1.0" encoding="UTF-8" standalone="no"?>
<!DOCTYPE svg PUBLIC "-//W3C//DTD SVG 1.1//EN"
 "http://www.w3.org/Graphics/SVG/1.1/DTD/svg11.dtd">
<!-- Generated by graphviz version 2.43.0 (0)
 -->
<!-- Title: PHYS120 Pages: 1 -->
<svg width="690pt" height="583pt"
 viewBox="0.00 0.00 690.20 583.20" xmlns="http://www.w3.org/2000/svg" xmlns:xlink="http://www.w3.org/1999/xlink">
<g id="graph0" class="graph" transform="scale(1 1) rotate(0) translate(21.6 561.6)">
<title>PHYS120</title>
<!-- course__MATH100 -->
<g id="node1" class="node">
<title>course__MATH100</title>
<g id="a_node1"><a xlink:href="../../../courses/MATH100.html" xlink:title="Collapsed in simplified view: MATH100: Calculus I | MATH102: Calculus for Students in the Social and Biological Sciences | MATH109: Introduction to Calculus" target="_top">
<path fill="#dfe3f4" stroke="#1b2730" stroke-width="1.6" d="M52,-312C52,-312 12,-312 12,-312 6,-312 0,-306 0,-300 0,-300 0,-288 0,-288 0,-282 6,-276 12,-276 12,-276 52,-276 52,-276 58,-276 64,-282 64,-288 64,-288 64,-300 64,-300 64,-306 58,-312 52,-312"/>
<text text-anchor="middle" x="32" y="-291.5" font-family="Avenir Next" font-size="10.00" fill="#17232b">Calculus I</text>
</a>
</g>
</g>
<!-- course__PHYS102A -->
<g id="node2" class="node">
<title>course__PHYS102A</title>
<g id="a_node2"><a xlink:href="../../../courses/PHYS120.html" xlink:title="Collapsed in simplified view: PHYS102A: General Physics I | PHYS110: Introductory Physics I | PHYS120: Physics I" target="_top">
<path fill="#efd8cf" stroke="#1f4f66" stroke-width="2" d="M172,-337C172,-337 137,-337 137,-337 131,-337 125,-331 125,-325 125,-325 125,-313 125,-313 125,-307 131,-301 137,-301 137,-301 172,-301 172,-301 178,-301 184,-307 184,-313 184,-313 184,-325 184,-325 184,-331 178,-337 172,-337"/>
<text text-anchor="middle" x="154.5" y="-322" font-family="Avenir Next" font-size="10.00" fill="#17232b">Physics I</text>
<text text-anchor="middle" x="154.5" y="-311" font-family="Avenir Next" font-size="10.00" fill="#17232b">Physics I</text>
</a>
</g>
</g>
<!-- course__MATH100&#45;&gt;course__PHYS102A -->
<g id="edge8" class="edge">
<title>course__MATH100&#45;&gt;course__PHYS102A</title>
<path fill="none" stroke="#5d6972" stroke-width="1.2" d="M64.03,-300.44C80.38,-303.83 100.53,-308.01 117.55,-311.54"/>
<polygon fill="#5d6972" stroke="#5d6972" stroke-width="1.2" points="117.29,-313.99 124.64,-313.01 118.29,-309.19 117.29,-313.99"/>
</g>
<!-- course__PHYS102B -->
<g id="node4" class="node">
<title>course__PHYS102B</title>
<g id="a_node4"><a xlink:href="../../../courses/PHYS102B.html" xlink:title="Collapsed in simplified view: PHYS102B: General Physics II | PHYS111: Introductory Physics II | PHYS130: Physics II" target="_top">
<path fill="#efd8cf" stroke="#1b2730" stroke-width="1.6" d="M312.5,-288C312.5,-288 274.5,-288 274.5,-288 268.5,-288 262.5,-282 262.5,-276 262.5,-276 262.5,-264 262.5,-264 262.5,-258 268.5,-252 274.5,-252 274.5,-252 312.5,-252 312.5,-252 318.5,-252 324.5,-258 324.5,-264 324.5,-264 324.5,-276 324.5,-276 324.5,-282 318.5,-288 312.5,-288"/>
<text text-anchor="middle" x="293.5" y="-267.5" font-family="Avenir Next" font-size="10.00" fill="#17232b">Physics II</text>
</a>
</g>
</g>
<!-- course__MATH100&#45;&gt;course__PHYS102B -->
<g id="edge10" class="edge">
<title>course__MATH100&#45;&gt;course__PHYS102B</title>
<path fill="none" stroke="#5d6972" stroke-width="1.2" d="M64.04,-291.13C111.97,-286.7 203.8,-278.2 255.24,-273.45"/>
<polygon fill="#5d6972" stroke="#5d6972" stroke-width="1.2" points="255.48,-275.88 262.22,-272.8 255.03,-271.01 255.48,-275.88"/>
</g>
<!-- course__EOS210 -->
<g id="node3" class="node">
<title>course__EOS210</title>
<g id="a_node3"><a xlink:href="../../../courses/EOS210.html" xlink:title="Collapsed in simplified view: EOS210: Introductory Geophysics | PHYS210: Introductory Geophysics" target="_top">
<path fill="#d7e9ef" stroke="#1b2730" stroke-width="1.6" d="M330,-344C330,-344 257,-344 257,-344 251,-344 245,-338 245,-332 245,-332 245,-320 245,-320 245,-314 251,-308 257,-308 257,-308 330,-308 330,-308 336,-308 342,-314 342,-320 342,-320 342,-332 342,-332 342,-338 336,-344 330,-344"/>
<text text-anchor="middle" x="293.5" y="-323.5" font-family="Avenir Next" font-size="10.00" fill="#17232b">Intro geophysics</text>
</a>
</g>
</g>
<!-- course__PHYS102A&#45;&gt;course__EOS210 -->
<g id="edge2" class="edge">
<title>course__PHYS102A&#45;&gt;course__EOS210</title>
<path fill="none" stroke="#5d6972" stroke-width="1.2" d="M184.22,-320.47C199.74,-321.26 219.42,-322.27 237.74,-323.2"/>
<polygon fill="#5d6972" stroke="#5d6972" stroke-width="1.2" points="237.83,-325.66 244.94,-323.57 238.08,-320.77 237.83,-325.66"/>
</g>
<!-- course__PHYS102A&#45;&gt;course__PHYS102B -->
<g id="edge9" class="edge">
<title>course__PHYS102A&#45;&gt;course__PHYS102B</title>
<path fill="none" stroke="#5d6972" stroke-width="1.2" d="M184.22,-308.73C204.98,-301.3 233.21,-291.21 255.64,-283.19"/>
<polygon fill="#5d6972" stroke="#5d6972" stroke-width="1.2" points="256.63,-285.43 262.4,-280.77 254.98,-280.82 256.63,-285.43"/>
</g>
<!-- course__CIVE210 -->
<g id="node5" class="node">
<title>course__CIVE210</title>
<g id="a_node5"><a xlink:href="../../../courses/CIVE210.html" xlink:title="CIVE210: Sustainability in Civil Engineering" target="_top">
<path fill="#f2ece3" stroke="#1b2730" stroke-width="1.6" d="M477.5,-540C477.5,-540 444.5,-540 444.5,-540 438.5,-540 432.5,-534 432.5,-528 432.5,-528 432.5,-516 432.5,-516 432.5,-510 438.5,-504 444.5,-504 444.5,-504 477.5,-504 477.5,-504 483.5,-504 489.5,-510 489.5,-516 489.5,-516 489.5,-528 489.5,-528 489.5,-534 483.5,-540 477.5,-540"/>
<text text-anchor="middle" x="461" y="-519.5" font-family="Avenir Next" font-size="10.00" fill="#17232b">CIVE210</text>
</a>
</g>
</g>
<!-- course__PHYS102B&#45;&gt;course__CIVE210 -->
<g id="edge1" class="edge">
<title>course__PHYS102B&#45;&gt;course__CIVE210</title>
<path fill="none" stroke="#5d6972" stroke-width="1.2" d="M324.73,-283.3C331.14,-287.26 337.36,-292.15 342,-298 398.65,-369.51 343.67,-424.69 403,-494 409.11,-501.14 417.48,-506.63 425.92,-510.78"/>
<polygon fill="#5d6972" stroke="#5d6972" stroke-width="1.2" points="424.96,-513.04 432.35,-513.69 426.98,-508.57 424.96,-513.04"/>
</g>
<!-- course__EOS311 -->
<g id="node6" class="node">
<title>course__EOS311</title>
<g id="a_node6"><a xlink:href="../../../courses/EOS311.html" xlink:title="Equivalent or cross&#45;listed: BIOL311: Biological Oceanography | EOS311: Biological Oceanography" target="_top">
<path fill="#d7e9ef" stroke="#1b2730" stroke-width="1.6" d="M501,-484C501,-484 421,-484 421,-484 415,-484 409,-478 409,-472 409,-472 409,-460 409,-460 409,-454 415,-448 421,-448 421,-448 501,-448 501,-448 507,-448 513,-454 513,-460 513,-460 513,-472 513,-472 513,-478 507,-484 501,-484"/>
<text text-anchor="middle" x="461" y="-463.5" font-family="Avenir Next" font-size="10.00" fill="#17232b">BIOL311 / EOS311</text>
</a>
</g>
</g>
<!-- course__PHYS102B&#45;&gt;course__EOS311 -->
<g id="edge3" class="edge">
<title>course__PHYS102B&#45;&gt;course__EOS311</title>
<path fill="none" stroke="#5d6972" stroke-width="1.2" d="M324.77,-283.98C331.03,-287.87 337.18,-292.55 342,-298 386.98,-348.82 356.12,-388.92 403,-438 404.9,-439.99 406.97,-441.86 409.17,-443.61"/>
<polygon fill="#5d6972" stroke="#5d6972" stroke-width="1.2" points="408.11,-445.87 415.22,-447.98 410.97,-441.89 408.11,-445.87"/>
</g>
<!-- course__EOS314 -->
<g id="node7" class="node">
<title>course__EOS314</title>
<g id="a_node7"><a xlink:href="../../../courses/EOS314.html" xlink:title="EOS314: Descriptive Physical Oceanography" target="_top">
<path fill="#d7e9ef" stroke="#1b2730" stroke-width="1.6" d="M476,-428C476,-428 446,-428 446,-428 440,-428 434,-422 434,-416 434,-416 434,-404 434,-404 434,-398 440,-392 446,-392 446,-392 476,-392 476,-392 482,-392 488,-398 488,-404 488,-404 488,-416 488,-416 488,-422 482,-428 476,-428"/>
<text text-anchor="middle" x="461" y="-407.5" font-family="Avenir Next" font-size="10.00" fill="#17232b">EOS314</text>
</a>
</g>
</g>
<!-- course__PHYS102B&#45;&gt;course__EOS314 -->
<g id="edge4" class="edge">
<title>course__PHYS102B&#45;&gt;course__EOS314</title>
<path fill="none" stroke="#5d6972" stroke-width="1.2" d="M324.94,-285.42C330.91,-289.12 336.9,-293.36 342,-298 376.14,-329.03 367.7,-352.29 403,-382 410.19,-388.05 418.92,-393.18 427.35,-397.33"/>
<polygon fill="#5d6972" stroke="#5d6972" stroke-width="1.2" points="426.34,-399.56 433.72,-400.31 428.42,-395.12 426.34,-399.56"/>
</g>
<!-- course__EOS340 -->
<g id="node8" class="node">
<title>course__EOS340</title>
<g id="a_node8"><a xlink:href="../../../courses/EOS340.html" xlink:title="Equivalent or cross&#45;listed: EOS340: Atmospheric Physics | PHYS340: Atmospheric Physics" target="_top">
<path fill="#d7e9ef" stroke="#1b2730" stroke-width="1.6" d="M502.5,-372C502.5,-372 419.5,-372 419.5,-372 413.5,-372 407.5,-366 407.5,-360 407.5,-360 407.5,-348 407.5,-348 407.5,-342 413.5,-336 419.5,-336 419.5,-336 502.5,-336 502.5,-336 508.5,-336 514.5,-342 514.5,-348 514.5,-348 514.5,-360 514.5,-360 514.5,-366 508.5,-372 502.5,-372"/>
<text text-anchor="middle" x="461" y="-351.5" font-family="Avenir Next" font-size="10.00" fill="#17232b">EOS340 / PHYS340</text>
</a>
</g>
</g>
<!-- course__PHYS102B&#45;&gt;course__EOS340 -->
<g id="edge5" class="edge">
<title>course__PHYS102B&#45;&gt;course__EOS340</title>
<path fill="none" stroke="#5d6972" stroke-width="1.2" d="M324.82,-285.85C346.53,-297.15 376.49,-312.65 403,-326 407.3,-328.17 411.79,-330.41 416.29,-332.64"/>
<polygon fill="#5d6972" stroke="#5d6972" stroke-width="1.2" points="415.49,-334.97 422.85,-335.88 417.66,-330.58 415.49,-334.97"/>
</g>
<!-- course__EOS431 -->
<g id="node9" class="node">
<title>course__EOS431</title>
<g id="a_node9"><a xlink:href="../../../courses/EOS431.html" xlink:title="Equivalent or cross&#45;listed: EOS431: Physical Oceanography | PHYS441: Physical Oceanography" target="_top">
<path fill="#d7e9ef" stroke="#1b2730" stroke-width="1.6" d="M502.5,-316C502.5,-316 419.5,-316 419.5,-316 413.5,-316 407.5,-310 407.5,-304 407.5,-304 407.5,-292 407.5,-292 407.5,-286 413.5,-280 419.5,-280 419.5,-280 502.5,-280 502.5,-280 508.5,-280 514.5,-286 514.5,-292 514.5,-292 514.5,-304 514.5,-304 514.5,-310 508.5,-316 502.5,-316"/>
<text text-anchor="middle" x="461" y="-295.5" font-family="Avenir Next" font-size="10.00" fill="#17232b">EOS431 / PHYS441</text>
</a>
</g>
</g>
<!-- course__PHYS102B&#45;&gt;course__EOS431 -->
<g id="edge6" class="edge">
<title>course__PHYS102B&#45;&gt;course__EOS431</title>
<path fill="none" stroke="#5d6972" stroke-width="1.2" d="M324.86,-275.14C345.92,-278.7 374.69,-283.57 400.27,-287.89"/>
<polygon fill="#5d6972" stroke="#5d6972" stroke-width="1.2" points="400.08,-290.35 407.39,-289.1 400.9,-285.52 400.08,-290.35"/>
</g>
<!-- course__MATH248 -->
<g id="node10" class="node">
<title>course__MATH248</title>
<g id="a_node10"><a xlink:href="../../../courses/MATH248.html" xlink:title="Equivalent or cross&#45;listed: MATH248: Computer Assisted Mathematics | PHYS248: Computer Assisted Physics" target="_top">
<path fill="#dfe3f4" stroke="#1b2730" stroke-width="1.6" d="M507,-260C507,-260 415,-260 415,-260 409,-260 403,-254 403,-248 403,-248 403,-236 403,-236 403,-230 409,-224 415,-224 415,-224 507,-224 507,-224 513,-224 519,-230 519,-236 519,-236 519,-248 519,-248 519,-254 513,-260 507,-260"/>
<text text-anchor="middle" x="461" y="-239.5" font-family="Avenir Next" font-size="10.00" fill="#17232b">MATH248 / PHYS248</text>
</a>
</g>
</g>
<!-- course__PHYS102B&#45;&gt;course__MATH248 -->
<g id="edge7" class="edge">
<title>course__PHYS102B&#45;&gt;course__MATH248</title>
<path fill="none" stroke="#5d6972" stroke-width="1.2" d="M324.86,-264.86C344.64,-261.52 371.23,-257.02 395.58,-252.9"/>
<polygon fill="#5d6972" stroke="#5d6972" stroke-width="1.2" points="396.22,-255.28 402.71,-251.69 395.4,-250.44 396.22,-255.28"/>
</g>
<!-- course__PHYS215 -->
<g id="node11" class="node">
<title>course__PHYS215</title>
<g id="a_node11"><a xlink:href="../../../courses/PHYS215.html" xlink:title="PHYS215: Introductory Quantum Physics" target="_top">
<path fill="#efd8cf" stroke="#1b2730" stroke-width="1.6" d="M479,-204C479,-204 443,-204 443,-204 437,-204 431,-198 431,-192 431,-192 431,-180 431,-180 431,-174 437,-168 443,-168 443,-168 479,-168 479,-168 485,-168 491,-174 491,-180 491,-180 491,-192 491,-192 491,-198 485,-204 479,-204"/>
<text text-anchor="middle" x="461" y="-183.5" font-family="Avenir Next" font-size="10.00" fill="#17232b">PHYS215</text>
</a>
</g>
</g>
<!-- course__PHYS102B&#45;&gt;course__PHYS215 -->
<g id="edge11" class="edge">
<title>course__PHYS102B&#45;&gt;course__PHYS215</title>
<path fill="none" stroke="#5d6972" stroke-width="1.2" d="M324.82,-254.15C346.53,-242.85 376.49,-227.35 403,-214 409.94,-210.51 417.37,-206.82 424.5,-203.3"/>
<polygon fill="#5d6972" stroke="#5d6972" stroke-width="1.2" points="425.75,-205.42 430.95,-200.13 423.58,-201.02 425.75,-205.42"/>
</g>
<!-- course__PHYS216 -->
<g id="node12" class="node">
<title>course__PHYS216</title>
<g id="a_node12"><a xlink:href="../../../courses/PHYS216.html" xlink:title="PHYS216: Introductory Electricity and Magnetism" target="_top">
<path fill="#efd8cf" stroke="#1b2730" stroke-width="1.6" d="M479,-148C479,-148 443,-148 443,-148 437,-148 431,-142 431,-136 431,-136 431,-124 431,-124 431,-118 437,-112 443,-112 443,-112 479,-112 479,-112 485,-112 491,-118 491,-124 491,-124 491,-136 491,-136 491,-142 485,-148 479,-148"/>
<text text-anchor="middle" x="461" y="-127.5" font-family="Avenir Next" font-size="10.00" fill="#17232b">PHYS216</text>
</a>
</g>
</g>
<!-- course__PHYS102B&#45;&gt;course__PHYS216 -->
<g id="edge12" class="edge">
<title>course__PHYS102B&#45;&gt;course__PHYS216</title>
<path fill="none" stroke="#5d6972" stroke-width="1.2" d="M308.71,-251.83C328.05,-227.97 364.69,-185.87 403,-158 409.48,-153.28 416.89,-148.99 424.16,-145.25"/>
<polygon fill="#5d6972" stroke="#5d6972" stroke-width="1.2" points="425.58,-147.28 430.77,-141.98 423.41,-142.89 425.58,-147.28"/>
</g>
<!-- course__PHYS217 -->
<g id="node13" class="node">
<title>course__PHYS217</title>
<g id="a_node13"><a xlink:href="../../../courses/PHYS217.html" xlink:title="Equivalent or cross&#45;listed: PHYS217: Introductory Thermodynamics | PHYS317: Thermodynamics" target="_top">
<path fill="#efd8cf" stroke="#1b2730" stroke-width="1.6" d="M505.5,-92C505.5,-92 416.5,-92 416.5,-92 410.5,-92 404.5,-86 404.5,-80 404.5,-80 404.5,-68 404.5,-68 404.5,-62 410.5,-56 416.5,-56 416.5,-56 505.5,-56 505.5,-56 511.5,-56 517.5,-62 517.5,-68 517.5,-68 517.5,-80 517.5,-80 517.5,-86 511.5,-92 505.5,-92"/>
<text text-anchor="middle" x="461" y="-71.5" font-family="Avenir Next" font-size="10.00" fill="#17232b">PHYS217 / PHYS317</text>
</a>
</g>
</g>
<!-- course__PHYS102B&#45;&gt;course__PHYS217 -->
<g id="edge13" class="edge">
<title>course__PHYS102B&#45;&gt;course__PHYS217</title>
<path fill="none" stroke="#5d6972" stroke-width="1.2" d="M302.23,-251.8C317.25,-218.28 353.32,-146.19 403,-102 405.32,-99.94 407.81,-97.99 410.42,-96.16"/>
<polygon fill="#5d6972" stroke="#5d6972" stroke-width="1.2" points="412.14,-97.96 416.68,-92.1 409.47,-93.86 412.14,-97.96"/>
</g>
<!-- course__PHYS229 -->
<g id="node14" class="node">
<title>course__PHYS229</title>
<g id="a_node14"><a xlink:href="../../../courses/PHYS229.html" xlink:title="PHYS229: Introduction to Experimental Physics" target="_top">
<path fill="#efd8cf" stroke="#1b2730" stroke-width="1.6" d="M479,-36C479,-36 443,-36 443,-36 437,-36 431,-30 431,-24 431,-24 431,-12 431,-12 431,-6 437,0 443,0 443,0 479,0 479,0 485,0 491,-6 491,-12 491,-12 491,-24 491,-24 491,-30 485,-36 479,-36"/>
<text text-anchor="middle" x="461" y="-15.5" font-family="Avenir Next" font-size="10.00" fill="#17232b">PHYS229</text>
</a>
</g>
</g>
<!-- course__PHYS102B&#45;&gt;course__PHYS229 -->
<g id="edge14" class="edge">
<title>course__PHYS102B&#45;&gt;course__PHYS229</title>
<path fill="none" stroke="#5d6972" stroke-width="1.2" d="M298.89,-251.95C309.8,-210.55 341.76,-107.58 403,-46 409.07,-39.89 416.75,-34.9 424.48,-30.92"/>
<polygon fill="#5d6972" stroke="#5d6972" stroke-width="1.2" points="425.71,-33.05 430.96,-27.81 423.59,-28.63 425.71,-33.05"/>
</g>
<!-- course__PHYS321A -->
<g id="node15" class="node">
<title>course__PHYS321A</title>
<g id="a_node15"><a xlink:href="../../../courses/PHYS321A.html" xlink:title="PHYS321A: Classical Mechanics I" target="_top">
<path fill="#efd8cf" stroke="#1b2730" stroke-width="1.6" d="M635,-260C635,-260 592,-260 592,-260 586,-260 580,-254 580,-248 580,-248 580,-236 580,-236 580,-230 586,-224 592,-224 592,-224 635,-224 635,-224 641,-224 647,-230 647,-236 647,-236 647,-248 647,-248 647,-254 641,-260 635,-260"/>
<text text-anchor="middle" x="613.5" y="-239.5" font-family="Avenir Next" font-size="10.00" fill="#17232b">PHYS321A</text>
</a>
</g>
</g>
<!-- course__MATH248&#45;&gt;course__PHYS321A -->
<g id="edge15" class="edge">
<title>course__MATH248&#45;&gt;course__PHYS321A</title>
<path fill="none" stroke="#5d6972" stroke-width="1.2" d="M519.33,-242C537.05,-242 556.18,-242 572.46,-242"/>
<polygon fill="#5d6972" stroke="#5d6972" stroke-width="1.2" points="572.73,-244.45 579.73,-242 572.73,-239.55 572.73,-244.45"/>
</g>
</g>
</svg>
