<?xml version="1.0" encoding="UTF-8" standalone="no"?>
<!DOCTYPE svg PUBLIC "-//W3C//DTD SVG 1.1//EN"
 "http://www.w3.org/Graphics/SVG/1.1/DTD/svg11.dtd">
<!-- Generated by graphviz version 2.43.0 (0)
 -->
<!-- Title: PHYS323 Pages: 1 -->
<svg width="702pt" height="247pt"
 viewBox="0.00 0.00 702.20 247.20" xmlns="http://www.w3.org/2000/svg" xmlns:xlink="http://www.w3.org/1999/xlink">
<g id="graph0" class="graph" transform="scale(1 1) rotate(0) translate(21.6 225.6)">
<title>PHYS323</title>
<!-- course__MATH204 -->
<g id="node1" class="node">
<title>course__MATH204</title>
<g id="a_node1"><a xlink:href="../../../courses/MATH204.html" xlink:title="MATH204: Calculus IV" target="_top">
<path fill="#dfe3f4" stroke="#1b2730" stroke-width="1.6" d="M51,-148C51,-148 12,-148 12,-148 6,-148 0,-142 0,-136 0,-136 0,-124 0,-124 0,-118 6,-112 12,-112 12,-112 51,-112 51,-112 57,-112 63,-118 63,-124 63,-124 63,-136 63,-136 63,-142 57,-148 51,-148"/>
<text text-anchor="middle" x="31.5" y="-127.5" font-family="Avenir Next" font-size="10.00" fill="#17232b">MATH204</text>
</a>
</g>
</g>
<!-- course__MATH342 -->
<g id="node3" class="node">
<title>course__MATH342</title>
<g id="a_node3"><a xlink:href="../../../courses/MATH342.html" xlink:title="MATH342: Intermediate Ordinary Differential Equations" target="_top">
<path fill="#dfe3f4" stroke="#1b2730" stroke-width="1.6" d="M201.5,-204C201.5,-204 162.5,-204 162.5,-204 156.5,-204 150.5,-198 150.5,-192 150.5,-192 150.5,-180 150.5,-180 150.5,-174 156.5,-168 162.5,-168 162.5,-168 201.5,-168 201.5,-168 207.5,-168 213.5,-174 213.5,-180 213.5,-180 213.5,-192 213.5,-192 213.5,-198 207.5,-204 201.5,-204"/>
<text text-anchor="middle" x="182" y="-183.5" font-family="Avenir Next" font-size="10.00" fill="#17232b">MATH342</text>
</a>
</g>
</g>
<!-- course__MATH204&#45;&gt;course__MATH342 -->
<g id="edge1" class="edge">
<title>course__MATH204&#45;&gt;course__MATH342</title>
<path fill="none" stroke="#5d6972" stroke-width="1.2" d="M63.27,-141.6C86.57,-150.39 118.68,-162.5 143.48,-171.85"/>
<polygon fill="#5d6972" stroke="#5d6972" stroke-width="1.2" points="142.86,-174.23 150.27,-174.41 144.58,-169.65 142.86,-174.23"/>
</g>
<!-- course__MATH346 -->
<g id="node4" class="node">
<title>course__MATH346</title>
<g id="a_node4"><a xlink:href="../../../courses/MATH346.html" xlink:title="MATH346: Introduction to Partial Differential Equations" target="_top">
<path fill="#dfe3f4" stroke="#1b2730" stroke-width="1.6" d="M201.5,-148C201.5,-148 162.5,-148 162.5,-148 156.5,-148 150.5,-142 150.5,-136 150.5,-136 150.5,-124 150.5,-124 150.5,-118 156.5,-112 162.5,-112 162.5,-112 201.5,-112 201.5,-112 207.5,-112 213.5,-118 213.5,-124 213.5,-124 213.5,-136 213.5,-136 213.5,-142 207.5,-148 201.5,-148"/>
<text text-anchor="middle" x="182" y="-127.5" font-family="Avenir Next" font-size="10.00" fill="#17232b">MATH346</text>
</a>
</g>
</g>
<!-- course__MATH204&#45;&gt;course__MATH346 -->
<g id="edge2" class="edge">
<title>course__MATH204&#45;&gt;course__MATH346</title>
<path fill="none" stroke="#5d6972" stroke-width="1.2" d="M63.27,-130C86.47,-130 118.4,-130 143.16,-130"/>
<polygon fill="#5d6972" stroke="#5d6972" stroke-width="1.2" points="143.27,-132.45 150.27,-130 143.27,-127.55 143.27,-132.45"/>
</g>
<!-- course__PHYS215 -->
<g id="node5" class="node">
<title>course__PHYS215</title>
<g id="a_node5"><a xlink:href="../../../courses/PHYS215.html" xlink:title="PHYS215: Introductory Quantum Physics" target="_top">
<path fill="#efd8cf" stroke="#1b2730" stroke-width="1.6" d="M200,-92C200,-92 164,-92 164,-92 158,-92 152,-86 152,-80 152,-80 152,-68 152,-68 152,-62 158,-56 164,-56 164,-56 200,-56 200,-56 206,-56 212,-62 212,-68 212,-68 212,-80 212,-80 212,-86 206,-92 200,-92"/>
<text text-anchor="middle" x="182" y="-71.5" font-family="Avenir Next" font-size="10.00" fill="#17232b">PHYS215</text>
</a>
</g>
</g>
<!-- course__MATH204&#45;&gt;course__PHYS215 -->
<g id="edge3" class="edge">
<title>course__MATH204&#45;&gt;course__PHYS215</title>
<path fill="none" stroke="#5d6972" stroke-width="1.2" d="M63.27,-118.4C87.03,-109.44 119.97,-97.02 144.96,-87.59"/>
<polygon fill="#5d6972" stroke="#5d6972" stroke-width="1.2" points="146.1,-89.78 151.79,-85.02 144.37,-85.19 146.1,-89.78"/>
</g>
<!-- course__MATH248 -->
<g id="node2" class="node">
<title>course__MATH248</title>
<g id="a_node2"><a xlink:href="../../../courses/MATH248.html" xlink:title="Equivalent or cross&#45;listed: MATH248: Computer Assisted Mathematics | PHYS248: Computer Assisted Physics" target="_top">
<path fill="#dfe3f4" stroke="#1b2730" stroke-width="1.6" d="M228,-36C228,-36 136,-36 136,-36 130,-36 124,-30 124,-24 124,-24 124,-12 124,-12 124,-6 130,0 136,0 136,0 228,0 228,0 234,0 240,-6 240,-12 240,-12 240,-24 240,-24 240,-30 234,-36 228,-36"/>
<text text-anchor="middle" x="182" y="-15.5" font-family="Avenir Next" font-size="10.00" fill="#17232b">MATH248 / PHYS248</text>
</a>
</g>
</g>
<!-- course__PHYS323 -->
<g id="node6" class="node">
<title>course__PHYS323</title>
<g id="a_node6"><a xlink:href="../../../courses/PHYS323.html" xlink:title="PHYS323: Quantum Mechanics I" target="_top">
<path fill="#efd8cf" stroke="#1f4f66" stroke-width="2" d="M526,-92C526,-92 428,-92 428,-92 422,-92 416,-86 416,-80 416,-80 416,-68 416,-68 416,-62 422,-56 428,-56 428,-56 526,-56 526,-56 532,-56 538,-62 538,-68 538,-68 538,-80 538,-80 538,-86 532,-92 526,-92"/>
<text text-anchor="middle" x="477" y="-77" font-family="Avenir Next" font-size="10.00" fill="#17232b">PHYS323</text>
<text text-anchor="middle" x="477" y="-66" font-family="Avenir Next" font-size="10.00" fill="#17232b">Quantum Mechanics I</text>
</a>
</g>
</g>
<!-- course__MATH248&#45;&gt;course__PHYS323 -->
<g id="edge5" class="edge">
<title>course__MATH248&#45;&gt;course__PHYS323</title>
<path fill="none" stroke="#5d6972" stroke-width="1.2" d="M240.19,-28.93C288.54,-38.17 357.89,-51.43 408.87,-61.17"/>
<polygon fill="#5d6972" stroke="#5d6972" stroke-width="1.2" points="408.6,-63.61 415.93,-62.52 409.52,-58.8 408.6,-63.61"/>
</g>
<!-- choice_PHYS323_1 -->
<g id="node8" class="node">
<title>choice_PHYS323_1</title>
<path fill="#fff7ee" stroke="#b7793f" stroke-width="1.1" d="M343,-148C343,-148 313,-148 313,-148 307,-148 301,-142 301,-136 301,-136 301,-124 301,-124 301,-118 307,-112 313,-112 313,-112 343,-112 343,-112 349,-112 355,-118 355,-124 355,-124 355,-136 355,-136 355,-142 349,-148 343,-148"/>
<text text-anchor="middle" x="328" y="-127.8" font-family="Avenir Next" font-size="9.00">1 of</text>
</g>
<!-- course__MATH342&#45;&gt;choice_PHYS323_1 -->
<g id="edge6" class="edge">
<title>course__MATH342&#45;&gt;choice_PHYS323_1</title>
<path fill="none" stroke="#7a8389" d="M213.54,-174.12C237.23,-164.91 270.02,-152.16 294.25,-142.73"/>
<polygon fill="#7a8389" stroke="#7a8389" points="295.21,-144.99 300.85,-140.17 293.44,-140.42 295.21,-144.99"/>
</g>
<!-- course__MATH346&#45;&gt;choice_PHYS323_1 -->
<g id="edge7" class="edge">
<title>course__MATH346&#45;&gt;choice_PHYS323_1</title>
<path fill="none" stroke="#7a8389" d="M213.54,-130C237.03,-130 269.46,-130 293.63,-130"/>
<polygon fill="#7a8389" stroke="#7a8389" points="293.85,-132.45 300.85,-130 293.85,-127.55 293.85,-132.45"/>
</g>
<!-- course__PHYS215&#45;&gt;course__PHYS323 -->
<g id="edge4" class="edge">
<title>course__PHYS215&#45;&gt;course__PHYS323</title>
<path fill="none" stroke="#5d6972" stroke-width="1.2" d="M212.17,-74C257.67,-74 346.77,-74 408.77,-74"/>
<polygon fill="#5d6972" stroke="#5d6972" stroke-width="1.2" points="408.81,-76.45 415.81,-74 408.81,-71.55 408.81,-76.45"/>
</g>
<!-- course__PHYS411 -->
<g id="node7" class="node">
<title>course__PHYS411</title>
<g id="a_node7"><a xlink:href="../../../courses/PHYS411.html" xlink:title="PHYS411: Time Series Analysis" target="_top">
<path fill="#efd8cf" stroke="#1b2730" stroke-width="1.6" d="M647,-92C647,-92 611,-92 611,-92 605,-92 599,-86 599,-80 599,-80 599,-68 599,-68 599,-62 605,-56 611,-56 611,-56 647,-56 647,-56 653,-56 659,-62 659,-68 659,-68 659,-80 659,-80 659,-86 653,-92 647,-92"/>
<text text-anchor="middle" x="629" y="-71.5" font-family="Avenir Next" font-size="10.00" fill="#17232b">PHYS411</text>
</a>
</g>
</g>
<!-- course__PHYS323&#45;&gt;course__PHYS411 -->
<g id="edge9" class="edge">
<title>course__PHYS323&#45;&gt;course__PHYS411</title>
<path fill="none" stroke="#5d6972" stroke-width="1.2" d="M538.15,-74C556.24,-74 575.54,-74 591.59,-74"/>
<polygon fill="#5d6972" stroke="#5d6972" stroke-width="1.2" points="591.72,-76.45 598.72,-74 591.72,-71.55 591.72,-76.45"/>
</g>
<!-- choice_PHYS323_1&#45;&gt;course__PHYS323 -->
<g id="edge8" class="edge">
<title>choice_PHYS323_1&#45;&gt;course__PHYS323</title>
<path fill="none" stroke="#5d6972" stroke-width="1.2" d="M355.28,-119.99C373.77,-112.94 399.17,-103.27 421.91,-94.61"/>
<polygon fill="#5d6972" stroke="#5d6972" stroke-width="1.2" points="422.89,-96.86 428.56,-92.07 421.14,-92.28 422.89,-96.86"/>
</g>
</g>
</svg>
