<?xml version="1.0" encoding="UTF-8" standalone="no"?>
<!DOCTYPE svg PUBLIC "-//W3C//DTD SVG 1.1//EN"
 "http://www.w3.org/Graphics/SVG/1.1/DTD/svg11.dtd">
<!-- Generated by graphviz version 2.43.0 (0)
 -->
<!-- Title: PHYS321A Pages: 1 -->
<svg width="1494pt" height="540pt"
 viewBox="0.00 0.00 1494.20 540.20" xmlns="http://www.w3.org/2000/svg" xmlns:xlink="http://www.w3.org/1999/xlink">
<g id="graph0" class="graph" transform="scale(1 1) rotate(0) translate(21.6 518.6)">
<title>PHYS321A</title>
<!-- course__MATH100 -->
<g id="node1" class="node">
<title>course__MATH100</title>
<g id="a_node1"><a xlink:href="../../../courses/MATH100.html" xlink:title="Equivalent or cross&#45;listed: MATH100: Calculus I | MATH102: Calculus for Students in the Social and Biological Sciences | MATH109: Introduction to Calculus" target="_top">
<path fill="#dfe3f4" stroke="#7e8d96" d="M99,-120C99,-120 12,-120 12,-120 6,-120 0,-114 0,-108 0,-108 0,-96 0,-96 0,-90 6,-84 12,-84 12,-84 99,-84 99,-84 105,-84 111,-90 111,-96 111,-96 111,-108 111,-108 111,-114 105,-120 99,-120"/>
<text text-anchor="middle" x="55.5" y="-104.8" font-family="Avenir Next" font-size="9.00" fill="#41515b">MATH100 / MATH102</text>
<text text-anchor="middle" x="55.5" y="-94.8" font-family="Avenir Next" font-size="9.00" fill="#41515b">MATH109</text>
</a>
</g>
</g>
<!-- course__MATH101 -->
<g id="node2" class="node">
<title>course__MATH101</title>
<g id="a_node2"><a xlink:href="../../../courses/MATH101.html" xlink:title="MATH101: Calculus II" target="_top">
<path fill="#dfe3f4" stroke="#7e8d96" d="M219,-211C219,-211 184,-211 184,-211 178,-211 172,-205 172,-199 172,-199 172,-187 172,-187 172,-181 178,-175 184,-175 184,-175 219,-175 219,-175 225,-175 231,-181 231,-187 231,-187 231,-199 231,-199 231,-205 225,-211 219,-211"/>
<text text-anchor="middle" x="201.5" y="-190.8" font-family="Avenir Next" font-size="9.00" fill="#41515b">MATH101</text>
</a>
</g>
</g>
<!-- course__MATH100&#45;&gt;course__MATH101 -->
<g id="edge5" class="edge">
<title>course__MATH100&#45;&gt;course__MATH101</title>
<path fill="none" stroke="#5d6972" stroke-width="1.2" d="M85.29,-120.2C108.45,-134.83 141.06,-155.44 165.68,-171"/>
<polygon fill="#5d6972" stroke="#5d6972" stroke-width="1.2" points="164.53,-173.17 171.76,-174.84 167.15,-169.02 164.53,-173.17"/>
</g>
<!-- course__PHYS110 -->
<g id="node5" class="node">
<title>course__PHYS110</title>
<g id="a_node5"><a xlink:href="../../../courses/PHYS110.html" xlink:title="Equivalent or cross&#45;listed: PHYS110: Introductory Physics I | PHYS120: Physics I" target="_top">
<path fill="#efd8cf" stroke="#1b2730" stroke-width="1.6" d="M393,-71C393,-71 304,-71 304,-71 298,-71 292,-65 292,-59 292,-59 292,-47 292,-47 292,-41 298,-35 304,-35 304,-35 393,-35 393,-35 399,-35 405,-41 405,-47 405,-47 405,-59 405,-59 405,-65 399,-71 393,-71"/>
<text text-anchor="middle" x="348.5" y="-50.5" font-family="Avenir Next" font-size="10.00" fill="#17232b">PHYS110 / PHYS120</text>
</a>
</g>
</g>
<!-- course__MATH100&#45;&gt;course__PHYS110 -->
<g id="edge23" class="edge">
<title>course__MATH100&#45;&gt;course__PHYS110</title>
<path fill="none" stroke="#5d6972" stroke-width="1.2" d="M111.23,-92.78C160.45,-84.5 232.74,-72.32 284.38,-63.63"/>
<polygon fill="#5d6972" stroke="#5d6972" stroke-width="1.2" points="285.03,-66 291.52,-62.43 284.21,-61.17 285.03,-66"/>
</g>
<!-- course__CSC110 -->
<g id="node6" class="node">
<title>course__CSC110</title>
<g id="a_node6"><a xlink:href="../../../courses/CSC110.html" xlink:title="Equivalent or cross&#45;listed: CSC110: Fundamentals of Programming I | CSC111: Fundamentals of Programming with Engineering Applications" target="_top">
<path fill="#e7ddec" stroke="#7e8d96" d="M674.5,-36C674.5,-36 600.5,-36 600.5,-36 594.5,-36 588.5,-30 588.5,-24 588.5,-24 588.5,-12 588.5,-12 588.5,-6 594.5,0 600.5,0 600.5,0 674.5,0 674.5,0 680.5,0 686.5,-6 686.5,-12 686.5,-12 686.5,-24 686.5,-24 686.5,-30 680.5,-36 674.5,-36"/>
<text text-anchor="middle" x="637.5" y="-15.8" font-family="Avenir Next" font-size="9.00" fill="#41515b">CSC110 / CSC111</text>
</a>
</g>
</g>
<!-- course__MATH100&#45;&gt;course__CSC110 -->
<g id="edge1" class="edge">
<title>course__MATH100&#45;&gt;course__CSC110</title>
<path fill="none" stroke="#5d6972" stroke-width="1.2" d="M98.94,-83.89C145.36,-65.09 222.45,-36.81 292,-25 392.86,-7.88 512.71,-10.51 581.16,-14.14"/>
<polygon fill="#5d6972" stroke="#5d6972" stroke-width="1.2" points="581.31,-16.6 588.43,-14.54 581.58,-11.71 581.31,-16.6"/>
</g>
<!-- course__PHYS111 -->
<g id="node9" class="node">
<title>course__PHYS111</title>
<g id="a_node9"><a xlink:href="../../../courses/PHYS111.html" xlink:title="Equivalent or cross&#45;listed: PHYS111: Introductory Physics II | PHYS130: Physics II" target="_top">
<path fill="#efd8cf" stroke="#1b2730" stroke-width="1.6" d="M682,-132C682,-132 593,-132 593,-132 587,-132 581,-126 581,-120 581,-120 581,-108 581,-108 581,-102 587,-96 593,-96 593,-96 682,-96 682,-96 688,-96 694,-102 694,-108 694,-108 694,-120 694,-120 694,-126 688,-132 682,-132"/>
<text text-anchor="middle" x="637.5" y="-111.5" font-family="Avenir Next" font-size="10.00" fill="#17232b">PHYS111 / PHYS130</text>
</a>
</g>
</g>
<!-- course__MATH100&#45;&gt;course__PHYS111 -->
<g id="edge25" class="edge">
<title>course__MATH100&#45;&gt;course__PHYS111</title>
<path fill="none" stroke="#5d6972" stroke-width="1.2" d="M111.06,-103.13C219.07,-105.36 459.49,-110.34 573.8,-112.7"/>
<polygon fill="#5d6972" stroke="#5d6972" stroke-width="1.2" points="573.76,-115.15 580.81,-112.85 573.86,-110.25 573.76,-115.15"/>
</g>
<!-- choice_MATH211_0 -->
<g id="node20" class="node">
<title>choice_MATH211_0</title>
<path fill="#fff7ee" stroke="#b7793f" stroke-width="1.1" d="M508,-235C508,-235 478,-235 478,-235 472,-235 466,-229 466,-223 466,-223 466,-211 466,-211 466,-205 472,-199 478,-199 478,-199 508,-199 508,-199 514,-199 520,-205 520,-211 520,-211 520,-223 520,-223 520,-229 514,-235 508,-235"/>
<text text-anchor="middle" x="493" y="-214.8" font-family="Avenir Next" font-size="9.00">1 of</text>
</g>
<!-- course__MATH100&#45;&gt;choice_MATH211_0 -->
<g id="edge8" class="edge">
<title>course__MATH100&#45;&gt;choice_MATH211_0</title>
<path fill="none" stroke="#7a8389" d="M111.22,-116.45C202.84,-140.64 384.57,-188.63 459.02,-208.29"/>
<polygon fill="#7a8389" stroke="#7a8389" points="458.49,-210.69 465.88,-210.1 459.74,-205.95 458.49,-210.69"/>
</g>
<!-- course__MATH200 -->
<g id="node4" class="node">
<title>course__MATH200</title>
<g id="a_node4"><a xlink:href="../../../courses/MATH200.html" xlink:title="Equivalent or cross&#45;listed: MATH200: Calculus III | MATH202: Intermediate Calculus for CSC and EOS" target="_top">
<path fill="#dfe3f4" stroke="#7e8d96" d="M392,-326C392,-326 305,-326 305,-326 299,-326 293,-320 293,-314 293,-314 293,-302 293,-302 293,-296 299,-290 305,-290 305,-290 392,-290 392,-290 398,-290 404,-296 404,-302 404,-302 404,-314 404,-314 404,-320 398,-326 392,-326"/>
<text text-anchor="middle" x="348.5" y="-305.8" font-family="Avenir Next" font-size="9.00" fill="#41515b">MATH200 / MATH202</text>
</a>
</g>
</g>
<!-- course__MATH101&#45;&gt;course__MATH200 -->
<g id="edge6" class="edge">
<title>course__MATH101&#45;&gt;course__MATH200</title>
<path fill="none" stroke="#5d6972" stroke-width="1.2" d="M225.48,-211.22C250.82,-231.33 291.64,-263.7 319.01,-285.4"/>
<polygon fill="#5d6972" stroke="#5d6972" stroke-width="1.2" points="317.62,-287.43 324.63,-289.86 320.67,-283.59 317.62,-287.43"/>
</g>
<!-- course__MATH101&#45;&gt;course__PHYS111 -->
<g id="edge26" class="edge">
<title>course__MATH101&#45;&gt;course__PHYS111</title>
<path fill="none" stroke="#5d6972" stroke-width="1.2" d="M231.31,-187.76C300.76,-175.11 478.68,-142.73 573.99,-125.38"/>
<polygon fill="#5d6972" stroke="#5d6972" stroke-width="1.2" points="574.54,-127.77 580.99,-124.1 573.66,-122.95 574.54,-127.77"/>
</g>
<!-- course__MATH151 -->
<g id="node3" class="node">
<title>course__MATH151</title>
<g id="a_node3"><a xlink:href="../../../courses/MATH151.html" xlink:title="MATH151: Finite Mathematics" target="_top">
<path fill="#dfe3f4" stroke="#7e8d96" d="M366,-253C366,-253 331,-253 331,-253 325,-253 319,-247 319,-241 319,-241 319,-229 319,-229 319,-223 325,-217 331,-217 331,-217 366,-217 366,-217 372,-217 378,-223 378,-229 378,-229 378,-241 378,-241 378,-247 372,-253 366,-253"/>
<text text-anchor="middle" x="348.5" y="-232.8" font-family="Avenir Next" font-size="9.00" fill="#41515b">MATH151</text>
</a>
</g>
</g>
<!-- course__MATH151&#45;&gt;choice_MATH211_0 -->
<g id="edge9" class="edge">
<title>course__MATH151&#45;&gt;choice_MATH211_0</title>
<path fill="none" stroke="#7a8389" d="M378.34,-231.36C401.58,-228.42 434.29,-224.29 458.65,-221.21"/>
<polygon fill="#7a8389" stroke="#7a8389" points="458.97,-223.64 465.61,-220.33 458.36,-218.78 458.97,-223.64"/>
</g>
<!-- course__MATH204 -->
<g id="node7" class="node">
<title>course__MATH204</title>
<g id="a_node7"><a xlink:href="../../../courses/MATH204.html" xlink:title="MATH204: Calculus IV" target="_top">
<path fill="#dfe3f4" stroke="#1b2730" stroke-width="1.6" d="M657,-375C657,-375 618,-375 618,-375 612,-375 606,-369 606,-363 606,-363 606,-351 606,-351 606,-345 612,-339 618,-339 618,-339 657,-339 657,-339 663,-339 669,-345 669,-351 669,-351 669,-363 669,-363 669,-369 663,-375 657,-375"/>
<text text-anchor="middle" x="637.5" y="-354.5" font-family="Avenir Next" font-size="10.00" fill="#17232b">MATH204</text>
</a>
</g>
</g>
<!-- course__MATH200&#45;&gt;course__MATH204 -->
<g id="edge7" class="edge">
<title>course__MATH200&#45;&gt;course__MATH204</title>
<path fill="none" stroke="#5d6972" stroke-width="1.2" d="M404.16,-317.33C461.2,-327.07 549.13,-342.08 598.85,-350.57"/>
<polygon fill="#5d6972" stroke="#5d6972" stroke-width="1.2" points="598.59,-353.01 605.9,-351.78 599.42,-348.18 598.59,-353.01"/>
</g>
<!-- course__MATH248 -->
<g id="node10" class="node">
<title>course__MATH248</title>
<g id="a_node10"><a xlink:href="../../../courses/MATH248.html" xlink:title="Equivalent or cross&#45;listed: MATH248: Computer Assisted Mathematics | PHYS248: Computer Assisted Physics" target="_top">
<path fill="#dfe3f4" stroke="#1b2730" stroke-width="1.6" d="M974,-187C974,-187 882,-187 882,-187 876,-187 870,-181 870,-175 870,-175 870,-163 870,-163 870,-157 876,-151 882,-151 882,-151 974,-151 974,-151 980,-151 986,-157 986,-163 986,-163 986,-175 986,-175 986,-181 980,-187 974,-187"/>
<text text-anchor="middle" x="928" y="-166.5" font-family="Avenir Next" font-size="10.00" fill="#17232b">MATH248 / PHYS248</text>
</a>
</g>
</g>
<!-- course__MATH200&#45;&gt;course__MATH248 -->
<g id="edge12" class="edge">
<title>course__MATH200&#45;&gt;course__MATH248</title>
<path fill="none" stroke="#5d6972" stroke-width="1.2" d="M402.21,-289.9C436.15,-277.91 481.03,-261.42 520,-245 547.66,-233.34 552.23,-224.57 581,-216 676.63,-187.53 792.32,-176.24 862.75,-171.81"/>
<polygon fill="#5d6972" stroke="#5d6972" stroke-width="1.2" points="863,-174.25 869.84,-171.37 862.7,-169.35 863,-174.25"/>
</g>
<!-- choice_MATH342_0_1 -->
<g id="node21" class="node">
<title>choice_MATH342_0_1</title>
<path fill="#fff7ee" stroke="#b7793f" stroke-width="1.1" d="M797,-418C797,-418 767,-418 767,-418 761,-418 755,-412 755,-406 755,-406 755,-394 755,-394 755,-388 761,-382 767,-382 767,-382 797,-382 797,-382 803,-382 809,-388 809,-394 809,-394 809,-406 809,-406 809,-412 803,-418 797,-418"/>
<text text-anchor="middle" x="782" y="-397.8" font-family="Avenir Next" font-size="9.00">1 of</text>
</g>
<!-- course__MATH200&#45;&gt;choice_MATH342_0_1 -->
<g id="edge15" class="edge">
<title>course__MATH200&#45;&gt;choice_MATH342_0_1</title>
<path fill="none" stroke="#7a8389" d="M401.33,-326.04C421.49,-332.99 444.79,-340.95 466,-348 516.95,-364.94 528.31,-374.7 581,-385 638.91,-396.32 707.78,-399.23 747.73,-399.9"/>
<polygon fill="#7a8389" stroke="#7a8389" points="747.81,-402.35 754.85,-400 747.88,-397.45 747.81,-402.35"/>
</g>
<!-- choice_MATH346_0_1 -->
<g id="node22" class="node">
<title>choice_MATH346_0_1</title>
<path fill="#fff7ee" stroke="#b7793f" stroke-width="1.1" d="M797,-362C797,-362 767,-362 767,-362 761,-362 755,-356 755,-350 755,-350 755,-338 755,-338 755,-332 761,-326 767,-326 767,-326 797,-326 797,-326 803,-326 809,-332 809,-338 809,-338 809,-350 809,-350 809,-356 803,-362 797,-362"/>
<text text-anchor="middle" x="782" y="-341.8" font-family="Avenir Next" font-size="9.00">1 of</text>
</g>
<!-- course__MATH200&#45;&gt;choice_MATH346_0_1 -->
<g id="edge19" class="edge">
<title>course__MATH200&#45;&gt;choice_MATH346_0_1</title>
<path fill="none" stroke="#7a8389" d="M404.26,-309.48C472.35,-311.75 592.07,-317.14 694,-329 711.82,-331.07 731.54,-334.39 747.69,-337.37"/>
<polygon fill="#7a8389" stroke="#7a8389" points="747.51,-339.83 754.84,-338.72 748.41,-335.02 747.51,-339.83"/>
</g>
<!-- course__PHYS110&#45;&gt;course__PHYS111 -->
<g id="edge24" class="edge">
<title>course__PHYS110&#45;&gt;course__PHYS111</title>
<path fill="none" stroke="#5d6972" stroke-width="1.2" d="M405.3,-63.15C438.66,-69.38 481.84,-77.73 520,-86 537.59,-89.81 556.59,-94.25 574.05,-98.45"/>
<polygon fill="#5d6972" stroke="#5d6972" stroke-width="1.2" points="573.53,-100.84 580.91,-100.1 574.68,-96.08 573.53,-100.84"/>
</g>
<!-- course__CSC110&#45;&gt;course__MATH248 -->
<g id="edge13" class="edge">
<title>course__CSC110&#45;&gt;course__MATH248</title>
<path fill="none" stroke="#5d6972" stroke-width="1.2" d="M673.01,-36.06C726.44,-64.03 828.96,-117.69 886.05,-147.57"/>
<polygon fill="#5d6972" stroke="#5d6972" stroke-width="1.2" points="885.11,-149.84 892.45,-150.92 887.38,-145.5 885.11,-149.84"/>
</g>
<!-- course__PHYS321A -->
<g id="node13" class="node">
<title>course__PHYS321A</title>
<g id="a_node13"><a xlink:href="../../../courses/PHYS321A.html" xlink:title="PHYS321A: Classical Mechanics I" target="_top">
<path fill="#efd8cf" stroke="#1f4f66" stroke-width="2" d="M1271,-325C1271,-325 1174,-325 1174,-325 1168,-325 1162,-319 1162,-313 1162,-313 1162,-301 1162,-301 1162,-295 1168,-289 1174,-289 1174,-289 1271,-289 1271,-289 1277,-289 1283,-295 1283,-301 1283,-301 1283,-313 1283,-313 1283,-319 1277,-325 1271,-325"/>
<text text-anchor="middle" x="1222.5" y="-310" font-family="Avenir Next" font-size="10.00" fill="#17232b">PHYS321A</text>
<text text-anchor="middle" x="1222.5" y="-299" font-family="Avenir Next" font-size="10.00" fill="#17232b">Classical Mechanics I</text>
</a>
</g>
</g>
<!-- course__MATH204&#45;&gt;course__PHYS321A -->
<g id="edge27" class="edge">
<title>course__MATH204&#45;&gt;course__PHYS321A</title>
<path fill="none" stroke="#5d6972" stroke-width="1.2" d="M659.97,-375.14C682.13,-392.58 718.51,-417.76 755,-428 903.06,-469.56 958.99,-487 1101,-428 1148.03,-408.46 1186.2,-360.66 1206.23,-331.33"/>
<polygon fill="#5d6972" stroke="#5d6972" stroke-width="1.2" points="1208.36,-332.54 1210.22,-325.36 1204.29,-329.82 1208.36,-332.54"/>
</g>
<!-- course__MATH204&#45;&gt;choice_MATH342_0_1 -->
<g id="edge16" class="edge">
<title>course__MATH204&#45;&gt;choice_MATH342_0_1</title>
<path fill="none" stroke="#7a8389" d="M669.07,-366.22C692.29,-373.23 724.19,-382.86 747.99,-390.04"/>
<polygon fill="#7a8389" stroke="#7a8389" points="747.38,-392.41 754.79,-392.09 748.79,-387.72 747.38,-392.41"/>
</g>
<!-- course__MATH204&#45;&gt;choice_MATH346_0_1 -->
<g id="edge20" class="edge">
<title>course__MATH204&#45;&gt;choice_MATH346_0_1</title>
<path fill="none" stroke="#7a8389" d="M669.07,-354.21C692.19,-352.1 723.91,-349.21 747.68,-347.04"/>
<polygon fill="#7a8389" stroke="#7a8389" points="748.04,-349.47 754.79,-346.39 747.59,-344.59 748.04,-349.47"/>
</g>
<!-- course__MATH211 -->
<g id="node8" class="node">
<title>course__MATH211</title>
<g id="a_node8"><a xlink:href="../../../courses/MATH211.html" xlink:title="MATH211: Matrix Algebra I" target="_top">
<path fill="#dfe3f4" stroke="#7e8d96" d="M655,-262C655,-262 620,-262 620,-262 614,-262 608,-256 608,-250 608,-250 608,-238 608,-238 608,-232 614,-226 620,-226 620,-226 655,-226 655,-226 661,-226 667,-232 667,-238 667,-238 667,-250 667,-250 667,-256 661,-262 655,-262"/>
<text text-anchor="middle" x="637.5" y="-241.8" font-family="Avenir Next" font-size="9.00" fill="#41515b">MATH211</text>
</a>
</g>
</g>
<!-- course__MATH211&#45;&gt;course__MATH248 -->
<g id="edge11" class="edge">
<title>course__MATH211&#45;&gt;course__MATH248</title>
<path fill="none" stroke="#5d6972" stroke-width="1.2" d="M667.22,-236.53C712.57,-224.74 801.91,-201.52 863.03,-185.63"/>
<polygon fill="#5d6972" stroke="#5d6972" stroke-width="1.2" points="863.81,-187.96 869.97,-183.83 862.58,-183.22 863.81,-187.96"/>
</g>
<!-- course__MATH342 -->
<g id="node11" class="node">
<title>course__MATH342</title>
<g id="a_node11"><a xlink:href="../../../courses/MATH342.html" xlink:title="MATH342: Intermediate Ordinary Differential Equations" target="_top">
<path fill="#dfe3f4" stroke="#1b2730" stroke-width="1.6" d="M947.5,-418C947.5,-418 908.5,-418 908.5,-418 902.5,-418 896.5,-412 896.5,-406 896.5,-406 896.5,-394 896.5,-394 896.5,-388 902.5,-382 908.5,-382 908.5,-382 947.5,-382 947.5,-382 953.5,-382 959.5,-388 959.5,-394 959.5,-394 959.5,-406 959.5,-406 959.5,-412 953.5,-418 947.5,-418"/>
<text text-anchor="middle" x="928" y="-397.5" font-family="Avenir Next" font-size="10.00" fill="#17232b">MATH342</text>
</a>
</g>
</g>
<!-- course__MATH211&#45;&gt;course__MATH342 -->
<g id="edge17" class="edge">
<title>course__MATH211&#45;&gt;course__MATH342</title>
<path fill="none" stroke="#5d6972" stroke-width="1.2" d="M667.15,-253.9C701.77,-266.36 761.3,-289.38 809,-316 841.39,-334.08 875.63,-359.21 898.83,-377.27"/>
<polygon fill="#5d6972" stroke="#5d6972" stroke-width="1.2" points="897.46,-379.31 904.49,-381.69 900.49,-375.45 897.46,-379.31"/>
</g>
<!-- course__MATH346 -->
<g id="node12" class="node">
<title>course__MATH346</title>
<g id="a_node12"><a xlink:href="../../../courses/MATH346.html" xlink:title="MATH346: Introduction to Partial Differential Equations" target="_top">
<path fill="#dfe3f4" stroke="#1b2730" stroke-width="1.6" d="M947.5,-319C947.5,-319 908.5,-319 908.5,-319 902.5,-319 896.5,-313 896.5,-307 896.5,-307 896.5,-295 896.5,-295 896.5,-289 902.5,-283 908.5,-283 908.5,-283 947.5,-283 947.5,-283 953.5,-283 959.5,-289 959.5,-295 959.5,-295 959.5,-307 959.5,-307 959.5,-313 953.5,-319 947.5,-319"/>
<text text-anchor="middle" x="928" y="-298.5" font-family="Avenir Next" font-size="10.00" fill="#17232b">MATH346</text>
</a>
</g>
</g>
<!-- course__MATH211&#45;&gt;course__MATH346 -->
<g id="edge21" class="edge">
<title>course__MATH211&#45;&gt;course__MATH346</title>
<path fill="none" stroke="#5d6972" stroke-width="1.2" d="M667.22,-249.67C719.57,-260.02 830.5,-281.93 889.02,-293.5"/>
<polygon fill="#5d6972" stroke="#5d6972" stroke-width="1.2" points="888.89,-295.97 896.23,-294.92 889.84,-291.16 888.89,-295.97"/>
</g>
<!-- course__PHYS111&#45;&gt;course__MATH248 -->
<g id="edge14" class="edge">
<title>course__PHYS111&#45;&gt;course__MATH248</title>
<path fill="none" stroke="#5d6972" stroke-width="1.2" d="M694.13,-124.6C742.29,-133.79 811.98,-147.07 862.56,-156.72"/>
<polygon fill="#5d6972" stroke="#5d6972" stroke-width="1.2" points="862.24,-159.15 869.57,-158.05 863.15,-154.33 862.24,-159.15"/>
</g>
<!-- course__MATH248&#45;&gt;course__PHYS321A -->
<g id="edge28" class="edge">
<title>course__MATH248&#45;&gt;course__PHYS321A</title>
<path fill="none" stroke="#5d6972" stroke-width="1.2" d="M967.24,-187.04C1021.22,-212.51 1119.54,-258.9 1176.82,-285.92"/>
<polygon fill="#5d6972" stroke="#5d6972" stroke-width="1.2" points="1175.88,-288.18 1183.25,-288.95 1177.97,-283.75 1175.88,-288.18"/>
</g>
<!-- course__PHYS321B -->
<g id="node16" class="node">
<title>course__PHYS321B</title>
<g id="a_node16"><a xlink:href="../../../courses/PHYS321B.html" xlink:title="PHYS321B: Classical Mechanics II" target="_top">
<path fill="#efd8cf" stroke="#1b2730" stroke-width="1.6" d="M1419,-497C1419,-497 1376,-497 1376,-497 1370,-497 1364,-491 1364,-485 1364,-485 1364,-473 1364,-473 1364,-467 1370,-461 1376,-461 1376,-461 1419,-461 1419,-461 1425,-461 1431,-467 1431,-473 1431,-473 1431,-485 1431,-485 1431,-491 1425,-497 1419,-497"/>
<text text-anchor="middle" x="1397.5" y="-476.5" font-family="Avenir Next" font-size="10.00" fill="#17232b">PHYS321B</text>
</a>
</g>
</g>
<!-- course__MATH342&#45;&gt;course__PHYS321B -->
<g id="edge33" class="edge">
<title>course__MATH342&#45;&gt;course__PHYS321B</title>
<path fill="none" stroke="#5d6972" stroke-width="1.2" d="M959.9,-408.12C983.61,-414.16 1017.22,-422.31 1047,-428 1158.35,-449.29 1291.15,-466.43 1356.34,-474.31"/>
<polygon fill="#5d6972" stroke="#5d6972" stroke-width="1.2" points="1356.33,-476.77 1363.57,-475.18 1356.92,-471.91 1356.33,-476.77"/>
</g>
<!-- choice_PHYS321A_1 -->
<g id="node23" class="node">
<title>choice_PHYS321A_1</title>
<path fill="#fff7ee" stroke="#b7793f" stroke-width="1.1" d="M1089,-418C1089,-418 1059,-418 1059,-418 1053,-418 1047,-412 1047,-406 1047,-406 1047,-394 1047,-394 1047,-388 1053,-382 1059,-382 1059,-382 1089,-382 1089,-382 1095,-382 1101,-388 1101,-394 1101,-394 1101,-406 1101,-406 1101,-412 1095,-418 1089,-418"/>
<text text-anchor="middle" x="1074" y="-397.8" font-family="Avenir Next" font-size="9.00">1 of</text>
</g>
<!-- course__MATH342&#45;&gt;choice_PHYS321A_1 -->
<g id="edge29" class="edge">
<title>course__MATH342&#45;&gt;choice_PHYS321A_1</title>
<path fill="none" stroke="#7a8389" d="M959.54,-400C983.03,-400 1015.46,-400 1039.63,-400"/>
<polygon fill="#7a8389" stroke="#7a8389" points="1039.85,-402.45 1046.85,-400 1039.85,-397.55 1039.85,-402.45"/>
</g>
<!-- course__EOS427 -->
<g id="node14" class="node">
<title>course__EOS427</title>
<g id="a_node14"><a xlink:href="../../../courses/EOS427.html" xlink:title="Equivalent or cross&#45;listed: EOS427: Geophysics | PHYS427: Geophysics" target="_top">
<path fill="#d7e9ef" stroke="#1b2730" stroke-width="1.6" d="M1439,-217C1439,-217 1356,-217 1356,-217 1350,-217 1344,-211 1344,-205 1344,-205 1344,-193 1344,-193 1344,-187 1350,-181 1356,-181 1356,-181 1439,-181 1439,-181 1445,-181 1451,-187 1451,-193 1451,-193 1451,-205 1451,-205 1451,-211 1445,-217 1439,-217"/>
<text text-anchor="middle" x="1397.5" y="-196.5" font-family="Avenir Next" font-size="10.00" fill="#17232b">EOS427 / PHYS427</text>
</a>
</g>
</g>
<!-- course__MATH346&#45;&gt;course__EOS427 -->
<g id="edge3" class="edge">
<title>course__MATH346&#45;&gt;course__EOS427</title>
<path fill="none" stroke="#5d6972" stroke-width="1.2" d="M959.67,-294.31C1036.05,-277.64 1235.81,-234.06 1336.56,-212.08"/>
<polygon fill="#5d6972" stroke="#5d6972" stroke-width="1.2" points="1337.32,-214.42 1343.64,-210.53 1336.28,-209.63 1337.32,-214.42"/>
</g>
<!-- course__MATH346&#45;&gt;course__PHYS321B -->
<g id="edge34" class="edge">
<title>course__MATH346&#45;&gt;course__PHYS321B</title>
<path fill="none" stroke="#5d6972" stroke-width="1.2" d="M959.67,-312.68C1041.72,-343.92 1266.15,-429.37 1357.27,-464.06"/>
<polygon fill="#5d6972" stroke="#5d6972" stroke-width="1.2" points="1356.44,-466.37 1363.86,-466.57 1358.19,-461.79 1356.44,-466.37"/>
</g>
<!-- course__PHYS426 -->
<g id="node19" class="node">
<title>course__PHYS426</title>
<g id="a_node19"><a xlink:href="../../../courses/PHYS426.html" xlink:title="PHYS426: Fluid Mechanics" target="_top">
<path fill="#efd8cf" stroke="#1b2730" stroke-width="1.6" d="M1415.5,-273C1415.5,-273 1379.5,-273 1379.5,-273 1373.5,-273 1367.5,-267 1367.5,-261 1367.5,-261 1367.5,-249 1367.5,-249 1367.5,-243 1373.5,-237 1379.5,-237 1379.5,-237 1415.5,-237 1415.5,-237 1421.5,-237 1427.5,-243 1427.5,-249 1427.5,-249 1427.5,-261 1427.5,-261 1427.5,-267 1421.5,-273 1415.5,-273"/>
<text text-anchor="middle" x="1397.5" y="-252.5" font-family="Avenir Next" font-size="10.00" fill="#17232b">PHYS426</text>
</a>
</g>
</g>
<!-- course__MATH346&#45;&gt;course__PHYS426 -->
<g id="edge38" class="edge">
<title>course__MATH346&#45;&gt;course__PHYS426</title>
<path fill="none" stroke="#5d6972" stroke-width="1.2" d="M959.67,-297.98C1042.56,-289.83 1270.77,-267.37 1360.03,-258.59"/>
<polygon fill="#5d6972" stroke="#5d6972" stroke-width="1.2" points="1360.5,-261 1367.22,-257.88 1360.02,-256.13 1360.5,-261"/>
</g>
<!-- course__MATH346&#45;&gt;choice_PHYS321A_1 -->
<g id="edge30" class="edge">
<title>course__MATH346&#45;&gt;choice_PHYS321A_1</title>
<path fill="none" stroke="#7a8389" d="M955.41,-319.16C979.47,-335.7 1015.05,-360.16 1040.77,-377.84"/>
<polygon fill="#7a8389" stroke="#7a8389" points="1039.6,-380.01 1046.76,-381.96 1042.38,-375.97 1039.6,-380.01"/>
</g>
<!-- course__PHYS321A&#45;&gt;course__EOS427 -->
<g id="edge2" class="edge">
<title>course__PHYS321A&#45;&gt;course__EOS427</title>
<path fill="none" stroke="#5d6972" stroke-width="1.2" d="M1249.36,-288.78C1273.45,-272.07 1310.58,-246.94 1344,-227 1347.58,-224.86 1351.34,-222.7 1355.12,-220.58"/>
<polygon fill="#5d6972" stroke="#5d6972" stroke-width="1.2" points="1356.56,-222.59 1361.5,-217.06 1354.19,-218.3 1356.56,-222.59"/>
</g>
<!-- course__EOS451 -->
<g id="node15" class="node">
<title>course__EOS451</title>
<g id="a_node15"><a xlink:href="../../../courses/EOS451.html" xlink:title="EOS451: Introductory Dynamic Meteorology" target="_top">
<path fill="#d7e9ef" stroke="#1b2730" stroke-width="1.6" d="M1412.5,-441C1412.5,-441 1382.5,-441 1382.5,-441 1376.5,-441 1370.5,-435 1370.5,-429 1370.5,-429 1370.5,-417 1370.5,-417 1370.5,-411 1376.5,-405 1382.5,-405 1382.5,-405 1412.5,-405 1412.5,-405 1418.5,-405 1424.5,-411 1424.5,-417 1424.5,-417 1424.5,-429 1424.5,-429 1424.5,-435 1418.5,-441 1412.5,-441"/>
<text text-anchor="middle" x="1397.5" y="-420.5" font-family="Avenir Next" font-size="10.00" fill="#17232b">EOS451</text>
</a>
</g>
</g>
<!-- course__PHYS321A&#45;&gt;course__EOS451 -->
<g id="edge4" class="edge">
<title>course__PHYS321A&#45;&gt;course__EOS451</title>
<path fill="none" stroke="#5d6972" stroke-width="1.2" d="M1259.23,-325.09C1267.27,-329.62 1275.6,-334.71 1283,-340 1312.71,-361.21 1314.12,-374.03 1344,-395 1350.28,-399.41 1357.33,-403.61 1364.19,-407.36"/>
<polygon fill="#5d6972" stroke="#5d6972" stroke-width="1.2" points="1363.06,-409.54 1370.39,-410.67 1365.37,-405.22 1363.06,-409.54"/>
</g>
<!-- course__PHYS321A&#45;&gt;course__PHYS321B -->
<g id="edge32" class="edge">
<title>course__PHYS321A&#45;&gt;course__PHYS321B</title>
<path fill="none" stroke="#5d6972" stroke-width="1.2" d="M1263.46,-325.04C1270.48,-329.31 1277.33,-334.31 1283,-340 1322.73,-379.88 1303.95,-411.45 1344,-451 1348.03,-454.98 1352.74,-458.54 1357.66,-461.68"/>
<polygon fill="#5d6972" stroke="#5d6972" stroke-width="1.2" points="1356.7,-463.95 1363.97,-465.43 1359.2,-459.74 1356.7,-463.95"/>
</g>
<!-- course__PHYS410 -->
<g id="node17" class="node">
<title>course__PHYS410</title>
<g id="a_node17"><a xlink:href="../../../courses/PHYS410.html" xlink:title="PHYS410: Topics in Mathematical Physics I" target="_top">
<path fill="#efd8cf" stroke="#1b2730" stroke-width="1.6" d="M1415.5,-385C1415.5,-385 1379.5,-385 1379.5,-385 1373.5,-385 1367.5,-379 1367.5,-373 1367.5,-373 1367.5,-361 1367.5,-361 1367.5,-355 1373.5,-349 1379.5,-349 1379.5,-349 1415.5,-349 1415.5,-349 1421.5,-349 1427.5,-355 1427.5,-361 1427.5,-361 1427.5,-373 1427.5,-373 1427.5,-379 1421.5,-385 1415.5,-385"/>
<text text-anchor="middle" x="1397.5" y="-364.5" font-family="Avenir Next" font-size="10.00" fill="#17232b">PHYS410</text>
</a>
</g>
</g>
<!-- course__PHYS321A&#45;&gt;course__PHYS410 -->
<g id="edge35" class="edge">
<title>course__PHYS321A&#45;&gt;course__PHYS410</title>
<path fill="none" stroke="#5d6972" stroke-width="1.2" d="M1275.41,-325C1302.88,-334.53 1335.93,-345.99 1360.56,-354.53"/>
<polygon fill="#5d6972" stroke="#5d6972" stroke-width="1.2" points="1359.85,-356.88 1367.27,-356.86 1361.46,-352.25 1359.85,-356.88"/>
</g>
<!-- course__PHYS411 -->
<g id="node18" class="node">
<title>course__PHYS411</title>
<g id="a_node18"><a xlink:href="../../../courses/PHYS411.html" xlink:title="PHYS411: Time Series Analysis" target="_top">
<path fill="#efd8cf" stroke="#1b2730" stroke-width="1.6" d="M1415.5,-329C1415.5,-329 1379.5,-329 1379.5,-329 1373.5,-329 1367.5,-323 1367.5,-317 1367.5,-317 1367.5,-305 1367.5,-305 1367.5,-299 1373.5,-293 1379.5,-293 1379.5,-293 1415.5,-293 1415.5,-293 1421.5,-293 1427.5,-299 1427.5,-305 1427.5,-305 1427.5,-317 1427.5,-317 1427.5,-323 1421.5,-329 1415.5,-329"/>
<text text-anchor="middle" x="1397.5" y="-308.5" font-family="Avenir Next" font-size="10.00" fill="#17232b">PHYS411</text>
</a>
</g>
</g>
<!-- course__PHYS321A&#45;&gt;course__PHYS411 -->
<g id="edge36" class="edge">
<title>course__PHYS321A&#45;&gt;course__PHYS411</title>
<path fill="none" stroke="#5d6972" stroke-width="1.2" d="M1283.04,-308.38C1308.79,-308.97 1338.09,-309.65 1360.46,-310.17"/>
<polygon fill="#5d6972" stroke="#5d6972" stroke-width="1.2" points="1360.41,-312.62 1367.46,-310.33 1360.52,-307.72 1360.41,-312.62"/>
</g>
<!-- course__PHYS321A&#45;&gt;course__PHYS426 -->
<g id="edge37" class="edge">
<title>course__PHYS321A&#45;&gt;course__PHYS426</title>
<path fill="none" stroke="#5d6972" stroke-width="1.2" d="M1283.04,-289.1C1308.9,-281.33 1338.34,-272.48 1360.75,-265.75"/>
<polygon fill="#5d6972" stroke="#5d6972" stroke-width="1.2" points="1361.47,-268.09 1367.46,-263.73 1360.06,-263.4 1361.47,-268.09"/>
</g>
<!-- choice_MATH211_0&#45;&gt;course__MATH211 -->
<g id="edge10" class="edge">
<title>choice_MATH211_0&#45;&gt;course__MATH211</title>
<path fill="none" stroke="#5d6972" stroke-width="1.2" d="M520.14,-221.95C542.66,-226.22 575.4,-232.42 600.42,-237.16"/>
<polygon fill="#5d6972" stroke="#5d6972" stroke-width="1.2" points="600.25,-239.63 607.59,-238.52 601.17,-234.81 600.25,-239.63"/>
</g>
<!-- choice_MATH342_0_1&#45;&gt;course__MATH342 -->
<g id="edge18" class="edge">
<title>choice_MATH342_0_1&#45;&gt;course__MATH342</title>
<path fill="none" stroke="#5d6972" stroke-width="1.2" d="M809.08,-400C831.43,-400 863.91,-400 889.13,-400"/>
<polygon fill="#5d6972" stroke="#5d6972" stroke-width="1.2" points="889.37,-402.45 896.37,-400 889.37,-397.55 889.37,-402.45"/>
</g>
<!-- choice_MATH346_0_1&#45;&gt;course__MATH346 -->
<g id="edge22" class="edge">
<title>choice_MATH346_0_1&#45;&gt;course__MATH346</title>
<path fill="none" stroke="#5d6972" stroke-width="1.2" d="M809.08,-336.21C831.52,-329.51 864.19,-319.75 889.46,-312.21"/>
<polygon fill="#5d6972" stroke="#5d6972" stroke-width="1.2" points="890.36,-314.5 896.37,-310.15 888.96,-309.8 890.36,-314.5"/>
</g>
<!-- choice_PHYS321A_1&#45;&gt;course__PHYS321A -->
<g id="edge31" class="edge">
<title>choice_PHYS321A_1&#45;&gt;course__PHYS321A</title>
<path fill="none" stroke="#5d6972" stroke-width="1.2" d="M1101.19,-383.37C1125.12,-368.19 1160.66,-345.62 1186.91,-328.96"/>
<polygon fill="#5d6972" stroke="#5d6972" stroke-width="1.2" points="1188.44,-330.89 1193.03,-325.07 1185.81,-326.75 1188.44,-330.89"/>
</g>
</g>
</svg>
