<?xml version="1.0" encoding="UTF-8" standalone="no"?>
<!DOCTYPE svg PUBLIC "-//W3C//DTD SVG 1.1//EN"
 "http://www.w3.org/Graphics/SVG/1.1/DTD/svg11.dtd">
<!-- Generated by graphviz version 2.43.0 (0)
 -->
<!-- Title: PHYS210 Pages: 1 -->
<svg width="1278pt" height="383pt"
 viewBox="0.00 0.00 1278.20 383.20" xmlns="http://www.w3.org/2000/svg" xmlns:xlink="http://www.w3.org/1999/xlink">
<g id="graph0" class="graph" transform="scale(1 1) rotate(0) translate(21.6 361.6)">
<title>PHYS210</title>
<!-- course__MATH100 -->
<g id="node1" class="node">
<title>course__MATH100</title>
<g id="a_node1"><a xlink:href="../../../courses/MATH100.html" xlink:title="Equivalent or cross&#45;listed: MATH100: Calculus I | MATH102: Calculus for Students in the Social and Biological Sciences | MATH109: Introduction to Calculus" target="_top">
<path fill="#dfe3f4" stroke="#7e8d96" d="M99,-176C99,-176 12,-176 12,-176 6,-176 0,-170 0,-164 0,-164 0,-152 0,-152 0,-146 6,-140 12,-140 12,-140 99,-140 99,-140 105,-140 111,-146 111,-152 111,-152 111,-164 111,-164 111,-170 105,-176 99,-176"/>
<text text-anchor="middle" x="55.5" y="-160.8" font-family="Avenir Next" font-size="9.00" fill="#41515b">MATH100 / MATH102</text>
<text text-anchor="middle" x="55.5" y="-150.8" font-family="Avenir Next" font-size="9.00" fill="#41515b">MATH109</text>
</a>
</g>
</g>
<!-- course__MATH101 -->
<g id="node2" class="node">
<title>course__MATH101</title>
<g id="a_node2"><a xlink:href="../../../courses/MATH101.html" xlink:title="MATH101: Calculus II" target="_top">
<path fill="#dfe3f4" stroke="#1b2730" stroke-width="1.6" d="M248,-204C248,-204 209,-204 209,-204 203,-204 197,-198 197,-192 197,-192 197,-180 197,-180 197,-174 203,-168 209,-168 209,-168 248,-168 248,-168 254,-168 260,-174 260,-180 260,-180 260,-192 260,-192 260,-198 254,-204 248,-204"/>
<text text-anchor="middle" x="228.5" y="-183.5" font-family="Avenir Next" font-size="10.00" fill="#17232b">MATH101</text>
</a>
</g>
</g>
<!-- course__MATH100&#45;&gt;course__MATH101 -->
<g id="edge18" class="edge">
<title>course__MATH100&#45;&gt;course__MATH101</title>
<path fill="none" stroke="#5d6972" stroke-width="1.2" d="M111.08,-166.94C136.76,-171.14 166.76,-176.05 189.87,-179.84"/>
<polygon fill="#5d6972" stroke="#5d6972" stroke-width="1.2" points="189.5,-182.26 196.8,-180.97 190.29,-177.42 189.5,-182.26"/>
</g>
<!-- course__PHYS110 -->
<g id="node3" class="node">
<title>course__PHYS110</title>
<g id="a_node3"><a xlink:href="../../../courses/PHYS110.html" xlink:title="Equivalent or cross&#45;listed: PHYS110: Introductory Physics I | PHYS120: Physics I" target="_top">
<path fill="#efd8cf" stroke="#1b2730" stroke-width="1.6" d="M273,-148C273,-148 184,-148 184,-148 178,-148 172,-142 172,-136 172,-136 172,-124 172,-124 172,-118 178,-112 184,-112 184,-112 273,-112 273,-112 279,-112 285,-118 285,-124 285,-124 285,-136 285,-136 285,-142 279,-148 273,-148"/>
<text text-anchor="middle" x="228.5" y="-127.5" font-family="Avenir Next" font-size="10.00" fill="#17232b">PHYS110 / PHYS120</text>
</a>
</g>
</g>
<!-- course__MATH100&#45;&gt;course__PHYS110 -->
<g id="edge19" class="edge">
<title>course__MATH100&#45;&gt;course__PHYS110</title>
<path fill="none" stroke="#5d6972" stroke-width="1.2" d="M111.08,-149.06C128.25,-146.25 147.34,-143.13 165.02,-140.23"/>
<polygon fill="#5d6972" stroke="#5d6972" stroke-width="1.2" points="165.46,-142.64 171.97,-139.09 164.67,-137.81 165.46,-142.64"/>
</g>
<!-- course__EOS210 -->
<g id="node4" class="node">
<title>course__EOS210</title>
<g id="a_node4"><a xlink:href="../../../courses/PHYS210.html" xlink:title="Equivalent or cross&#45;listed: EOS210: Introductory Geophysics | PHYS210: Introductory Geophysics" target="_top">
<path fill="#d7e9ef" stroke="#1f4f66" stroke-width="2" d="M469,-202C469,-202 358,-202 358,-202 352,-202 346,-196 346,-190 346,-190 346,-178 346,-178 346,-172 352,-166 358,-166 358,-166 469,-166 469,-166 475,-166 481,-172 481,-178 481,-178 481,-190 481,-190 481,-196 475,-202 469,-202"/>
<text text-anchor="middle" x="413.5" y="-187" font-family="Avenir Next" font-size="10.00" fill="#17232b">EOS210 / PHYS210</text>
<text text-anchor="middle" x="413.5" y="-176" font-family="Avenir Next" font-size="10.00" fill="#17232b">Introductory Geophysics</text>
</a>
</g>
</g>
<!-- course__MATH101&#45;&gt;course__EOS210 -->
<g id="edge1" class="edge">
<title>course__MATH101&#45;&gt;course__EOS210</title>
<path fill="none" stroke="#5d6972" stroke-width="1.2" d="M260.13,-185.67C281.52,-185.43 311.03,-185.11 338.39,-184.81"/>
<polygon fill="#5d6972" stroke="#5d6972" stroke-width="1.2" points="338.69,-187.26 345.66,-184.73 338.64,-182.36 338.69,-187.26"/>
</g>
<!-- course__PHYS110&#45;&gt;course__EOS210 -->
<g id="edge2" class="edge">
<title>course__PHYS110&#45;&gt;course__EOS210</title>
<path fill="none" stroke="#5d6972" stroke-width="1.2" d="M285.4,-146.5C304.02,-151.99 324.96,-158.17 344.4,-163.9"/>
<polygon fill="#5d6972" stroke="#5d6972" stroke-width="1.2" points="343.8,-166.28 351.21,-165.91 345.19,-161.58 343.8,-166.28"/>
</g>
<!-- course__EOS340 -->
<g id="node7" class="node">
<title>course__EOS340</title>
<g id="a_node7"><a xlink:href="../../../courses/EOS340.html" xlink:title="Equivalent or cross&#45;listed: EOS340: Atmospheric Physics | PHYS340: Atmospheric Physics" target="_top">
<path fill="#d7e9ef" stroke="#7e8d96" d="M749,-148C749,-148 669,-148 669,-148 663,-148 657,-142 657,-136 657,-136 657,-124 657,-124 657,-118 663,-112 669,-112 669,-112 749,-112 749,-112 755,-112 761,-118 761,-124 761,-124 761,-136 761,-136 761,-142 755,-148 749,-148"/>
<text text-anchor="middle" x="709" y="-127.8" font-family="Avenir Next" font-size="9.00" fill="#41515b">EOS340 / PHYS340</text>
</a>
</g>
</g>
<!-- course__PHYS110&#45;&gt;course__EOS340 -->
<g id="edge6" class="edge">
<title>course__PHYS110&#45;&gt;course__EOS340</title>
<path fill="none" stroke="#5d6972" stroke-width="1.2" d="M285.33,-130C376.63,-130 557,-130 649.81,-130"/>
<polygon fill="#5d6972" stroke="#5d6972" stroke-width="1.2" points="649.88,-132.45 656.88,-130 649.88,-127.55 649.88,-132.45"/>
</g>
<!-- course__EOS321 -->
<g id="node5" class="node">
<title>course__EOS321</title>
<g id="a_node5"><a xlink:href="../../../courses/EOS321.html" xlink:title="EOS321: Earth History" target="_top">
<path fill="#d7e9ef" stroke="#1b2730" stroke-width="1.6" d="M584,-200C584,-200 554,-200 554,-200 548,-200 542,-194 542,-188 542,-188 542,-176 542,-176 542,-170 548,-164 554,-164 554,-164 584,-164 584,-164 590,-164 596,-170 596,-176 596,-176 596,-188 596,-188 596,-194 590,-200 584,-200"/>
<text text-anchor="middle" x="569" y="-179.5" font-family="Avenir Next" font-size="10.00" fill="#17232b">EOS321</text>
</a>
</g>
</g>
<!-- course__EOS210&#45;&gt;course__EOS321 -->
<g id="edge4" class="edge">
<title>course__EOS210&#45;&gt;course__EOS321</title>
<path fill="none" stroke="#5d6972" stroke-width="1.2" d="M481.38,-183.13C499.71,-182.89 518.8,-182.64 534.38,-182.44"/>
<polygon fill="#5d6972" stroke="#5d6972" stroke-width="1.2" points="534.76,-184.88 541.73,-182.34 534.7,-179.98 534.76,-184.88"/>
</g>
<!-- course__EOS325 -->
<g id="node6" class="node">
<title>course__EOS325</title>
<g id="a_node6"><a xlink:href="../../../courses/EOS325.html" xlink:title="EOS325: Earth System Modelling" target="_top">
<path fill="#d7e9ef" stroke="#1b2730" stroke-width="1.6" d="M584,-256C584,-256 554,-256 554,-256 548,-256 542,-250 542,-244 542,-244 542,-232 542,-232 542,-226 548,-220 554,-220 554,-220 584,-220 584,-220 590,-220 596,-226 596,-232 596,-232 596,-244 596,-244 596,-250 590,-256 584,-256"/>
<text text-anchor="middle" x="569" y="-235.5" font-family="Avenir Next" font-size="10.00" fill="#17232b">EOS325</text>
</a>
</g>
</g>
<!-- course__EOS210&#45;&gt;course__EOS325 -->
<g id="edge5" class="edge">
<title>course__EOS210&#45;&gt;course__EOS325</title>
<path fill="none" stroke="#5d6972" stroke-width="1.2" d="M466.04,-202.13C488.79,-210.13 514.86,-219.31 534.95,-226.37"/>
<polygon fill="#5d6972" stroke="#5d6972" stroke-width="1.2" points="534.37,-228.77 541.79,-228.78 536,-224.15 534.37,-228.77"/>
</g>
<!-- course__EOS325&#45;&gt;course__EOS340 -->
<g id="edge7" class="edge">
<title>course__EOS325&#45;&gt;course__EOS340</title>
<path fill="none" stroke="#5d6972" stroke-width="1.2" d="M593.1,-219.92C616.78,-201.39 653.67,-172.52 679.23,-152.51"/>
<polygon fill="#5d6972" stroke="#5d6972" stroke-width="1.2" points="680.82,-154.38 684.83,-148.14 677.8,-150.52 680.82,-154.38"/>
</g>
<!-- course__EOS423 -->
<g id="node8" class="node">
<title>course__EOS423</title>
<g id="a_node8"><a xlink:href="../../../courses/EOS423.html" xlink:title="EOS423: Advanced Sedimentology and Stratigraphy" target="_top">
<path fill="#d7e9ef" stroke="#7e8d96" d="M724,-284C724,-284 694,-284 694,-284 688,-284 682,-278 682,-272 682,-272 682,-260 682,-260 682,-254 688,-248 694,-248 694,-248 724,-248 724,-248 730,-248 736,-254 736,-260 736,-260 736,-272 736,-272 736,-278 730,-284 724,-284"/>
<text text-anchor="middle" x="709" y="-263.8" font-family="Avenir Next" font-size="9.00" fill="#41515b">EOS423</text>
</a>
</g>
</g>
<!-- course__EOS325&#45;&gt;course__EOS423 -->
<g id="edge11" class="edge">
<title>course__EOS325&#45;&gt;course__EOS423</title>
<path fill="none" stroke="#5d6972" stroke-width="1.2" d="M596.28,-243.33C618.63,-247.87 650.84,-254.4 674.93,-259.29"/>
<polygon fill="#5d6972" stroke="#5d6972" stroke-width="1.2" points="674.47,-261.7 681.82,-260.69 675.44,-256.89 674.47,-261.7"/>
</g>
<!-- course__EOS431 -->
<g id="node9" class="node">
<title>course__EOS431</title>
<g id="a_node9"><a xlink:href="../../../courses/EOS431.html" xlink:title="Equivalent or cross&#45;listed: EOS431: Physical Oceanography | PHYS441: Physical Oceanography" target="_top">
<path fill="#d7e9ef" stroke="#7e8d96" d="M749,-228C749,-228 669,-228 669,-228 663,-228 657,-222 657,-216 657,-216 657,-204 657,-204 657,-198 663,-192 669,-192 669,-192 749,-192 749,-192 755,-192 761,-198 761,-204 761,-204 761,-216 761,-216 761,-222 755,-228 749,-228"/>
<text text-anchor="middle" x="709" y="-207.8" font-family="Avenir Next" font-size="9.00" fill="#41515b">EOS431 / PHYS441</text>
</a>
</g>
</g>
<!-- course__EOS325&#45;&gt;course__EOS431 -->
<g id="edge12" class="edge">
<title>course__EOS325&#45;&gt;course__EOS431</title>
<path fill="none" stroke="#5d6972" stroke-width="1.2" d="M596.28,-232.67C611.4,-229.6 631.03,-225.62 649.61,-221.85"/>
<polygon fill="#5d6972" stroke="#5d6972" stroke-width="1.2" points="650.57,-224.15 656.94,-220.36 649.59,-219.35 650.57,-224.15"/>
</g>
<!-- course__EOS460 -->
<g id="node10" class="node">
<title>course__EOS460</title>
<g id="a_node10"><a xlink:href="../../../courses/EOS460.html" xlink:title="EOS460: Earth System Science" target="_top">
<path fill="#d7e9ef" stroke="#7e8d96" d="M724,-340C724,-340 694,-340 694,-340 688,-340 682,-334 682,-328 682,-328 682,-316 682,-316 682,-310 688,-304 694,-304 694,-304 724,-304 724,-304 730,-304 736,-310 736,-316 736,-316 736,-328 736,-328 736,-334 730,-340 724,-340"/>
<text text-anchor="middle" x="709" y="-319.8" font-family="Avenir Next" font-size="9.00" fill="#41515b">EOS460</text>
</a>
</g>
</g>
<!-- course__EOS325&#45;&gt;course__EOS460 -->
<g id="edge15" class="edge">
<title>course__EOS325&#45;&gt;course__EOS460</title>
<path fill="none" stroke="#5d6972" stroke-width="1.2" d="M596.35,-255.64C613.45,-266.92 636.32,-281.69 657,-294 662.99,-297.57 669.45,-301.24 675.7,-304.71"/>
<polygon fill="#5d6972" stroke="#5d6972" stroke-width="1.2" points="674.54,-306.87 681.86,-308.1 676.91,-302.58 674.54,-306.87"/>
</g>
<!-- course__EOS433 -->
<g id="node12" class="node">
<title>course__EOS433</title>
<g id="a_node12"><a xlink:href="../../../courses/EOS433.html" xlink:title="EOS433: The Physics of Climate" target="_top">
<path fill="#d7e9ef" stroke="#7e8d96" d="M982.5,-148C982.5,-148 952.5,-148 952.5,-148 946.5,-148 940.5,-142 940.5,-136 940.5,-136 940.5,-124 940.5,-124 940.5,-118 946.5,-112 952.5,-112 952.5,-112 982.5,-112 982.5,-112 988.5,-112 994.5,-118 994.5,-124 994.5,-124 994.5,-136 994.5,-136 994.5,-142 988.5,-148 982.5,-148"/>
<text text-anchor="middle" x="967.5" y="-127.8" font-family="Avenir Next" font-size="9.00" fill="#41515b">EOS433</text>
</a>
</g>
</g>
<!-- course__EOS340&#45;&gt;course__EOS433 -->
<g id="edge13" class="edge">
<title>course__EOS340&#45;&gt;course__EOS433</title>
<path fill="none" stroke="#5d6972" stroke-width="1.2" d="M761.29,-130C812.43,-130 889.46,-130 933.15,-130"/>
<polygon fill="#5d6972" stroke="#5d6972" stroke-width="1.2" points="933.38,-132.45 940.38,-130 933.38,-127.55 933.38,-132.45"/>
</g>
<!-- course__EOS451 -->
<g id="node13" class="node">
<title>course__EOS451</title>
<g id="a_node13"><a xlink:href="../../../courses/EOS451.html" xlink:title="EOS451: Introductory Dynamic Meteorology" target="_top">
<path fill="#d7e9ef" stroke="#7e8d96" d="M982.5,-92C982.5,-92 952.5,-92 952.5,-92 946.5,-92 940.5,-86 940.5,-80 940.5,-80 940.5,-68 940.5,-68 940.5,-62 946.5,-56 952.5,-56 952.5,-56 982.5,-56 982.5,-56 988.5,-56 994.5,-62 994.5,-68 994.5,-68 994.5,-80 994.5,-80 994.5,-86 988.5,-92 982.5,-92"/>
<text text-anchor="middle" x="967.5" y="-71.8" font-family="Avenir Next" font-size="9.00" fill="#41515b">EOS451</text>
</a>
</g>
</g>
<!-- course__EOS340&#45;&gt;course__EOS451 -->
<g id="edge14" class="edge">
<title>course__EOS340&#45;&gt;course__EOS451</title>
<path fill="none" stroke="#5d6972" stroke-width="1.2" d="M761.29,-118.8C812.53,-107.62 889.78,-90.75 933.42,-81.22"/>
<polygon fill="#5d6972" stroke="#5d6972" stroke-width="1.2" points="934.07,-83.59 940.38,-79.7 933.02,-78.8 934.07,-83.59"/>
</g>
<!-- course__GEOG370 -->
<g id="node14" class="node">
<title>course__GEOG370</title>
<g id="a_node14"><a xlink:href="../../../courses/GEOG370.html" xlink:title="GEOG370: Methods in Hydrology" target="_top">
<path fill="#e7e2d8" stroke="#7e8d96" d="M986,-36C986,-36 949,-36 949,-36 943,-36 937,-30 937,-24 937,-24 937,-12 937,-12 937,-6 943,0 949,0 949,0 986,0 986,0 992,0 998,-6 998,-12 998,-12 998,-24 998,-24 998,-30 992,-36 986,-36"/>
<text text-anchor="middle" x="967.5" y="-15.8" font-family="Avenir Next" font-size="9.00" fill="#41515b">GEOG370</text>
</a>
</g>
</g>
<!-- course__EOS340&#45;&gt;course__GEOG370 -->
<g id="edge16" class="edge">
<title>course__EOS340&#45;&gt;course__GEOG370</title>
<path fill="none" stroke="#5d6972" stroke-width="1.2" d="M751.5,-111.88C800.96,-90.28 882.83,-54.54 929.98,-33.94"/>
<polygon fill="#5d6972" stroke="#5d6972" stroke-width="1.2" points="931.25,-36.07 936.68,-31.02 929.29,-31.58 931.25,-36.07"/>
</g>
<!-- choice_PHYS411_0_0 -->
<g id="node19" class="node">
<title>choice_PHYS411_0_0</title>
<path fill="#fff7ee" stroke="#b7793f" stroke-width="1.1" d="M864,-204C864,-204 834,-204 834,-204 828,-204 822,-198 822,-192 822,-192 822,-180 822,-180 822,-174 828,-168 834,-168 834,-168 864,-168 864,-168 870,-168 876,-174 876,-180 876,-180 876,-192 876,-192 876,-198 870,-204 864,-204"/>
<text text-anchor="middle" x="849" y="-183.8" font-family="Avenir Next" font-size="9.00">2 of</text>
</g>
<!-- course__EOS340&#45;&gt;choice_PHYS411_0_0 -->
<g id="edge20" class="edge">
<title>course__EOS340&#45;&gt;choice_PHYS411_0_0</title>
<path fill="none" stroke="#7a8389" d="M754.42,-148.03C774.04,-155.99 796.7,-165.18 814.81,-172.53"/>
<polygon fill="#7a8389" stroke="#7a8389" points="814.36,-174.99 821.77,-175.35 816.2,-170.45 814.36,-174.99"/>
</g>
<!-- course__EOS312 -->
<g id="node11" class="node">
<title>course__EOS312</title>
<g id="a_node11"><a xlink:href="../../../courses/EOS312.html" xlink:title="EOS312: Introductory Chemical Oceanography" target="_top">
<path fill="#d7e9ef" stroke="#7e8d96" d="M982.5,-302C982.5,-302 952.5,-302 952.5,-302 946.5,-302 940.5,-296 940.5,-290 940.5,-290 940.5,-278 940.5,-278 940.5,-272 946.5,-266 952.5,-266 952.5,-266 982.5,-266 982.5,-266 988.5,-266 994.5,-272 994.5,-278 994.5,-278 994.5,-290 994.5,-290 994.5,-296 988.5,-302 982.5,-302"/>
<text text-anchor="middle" x="967.5" y="-281.8" font-family="Avenir Next" font-size="9.00" fill="#41515b">EOS312</text>
</a>
</g>
</g>
<!-- course__EOS431&#45;&gt;course__EOS312 -->
<g id="edge3" class="edge">
<title>course__EOS431&#45;&gt;course__EOS312</title>
<path fill="none" stroke="#5d6972" stroke-width="1.2" d="M755.34,-228.08C775.54,-235.75 799.76,-244.42 822,-251 859.65,-262.14 903.74,-271.72 933.23,-277.65"/>
<polygon fill="#5d6972" stroke="#5d6972" stroke-width="1.2" points="933.06,-280.11 940.4,-279.07 934.02,-275.31 933.06,-280.11"/>
</g>
<!-- choice_EOS401_0 -->
<g id="node18" class="node">
<title>choice_EOS401_0</title>
<path fill="#fff7ee" stroke="#b7793f" stroke-width="1.1" d="M1101,-277C1101,-277 1071,-277 1071,-277 1065,-277 1059,-271 1059,-265 1059,-265 1059,-253 1059,-253 1059,-247 1065,-241 1071,-241 1071,-241 1101,-241 1101,-241 1107,-241 1113,-247 1113,-253 1113,-253 1113,-265 1113,-265 1113,-271 1107,-277 1101,-277"/>
<text text-anchor="middle" x="1086" y="-256.8" font-family="Avenir Next" font-size="9.00">3 of</text>
</g>
<!-- course__EOS431&#45;&gt;choice_EOS401_0 -->
<g id="edge9" class="edge">
<title>course__EOS431&#45;&gt;choice_EOS401_0</title>
<path fill="none" stroke="#7a8389" d="M761.36,-216.71C839.39,-226.91 985.67,-246.02 1051.45,-254.62"/>
<polygon fill="#7a8389" stroke="#7a8389" points="1051.43,-257.08 1058.69,-255.56 1052.07,-252.23 1051.43,-257.08"/>
</g>
<!-- course__EOS431&#45;&gt;choice_PHYS411_0_0 -->
<g id="edge21" class="edge">
<title>course__EOS431&#45;&gt;choice_PHYS411_0_0</title>
<path fill="none" stroke="#7a8389" d="M761.39,-201.06C779.2,-197.97 798.68,-194.58 814.66,-191.8"/>
<polygon fill="#7a8389" stroke="#7a8389" points="815.25,-194.18 821.73,-190.57 814.41,-189.35 815.25,-194.18"/>
</g>
<!-- course__EOS312&#45;&gt;choice_EOS401_0 -->
<g id="edge8" class="edge">
<title>course__EOS312&#45;&gt;choice_EOS401_0</title>
<path fill="none" stroke="#7a8389" d="M994.64,-278.39C1011.58,-274.75 1033.79,-269.99 1051.95,-266.09"/>
<polygon fill="#7a8389" stroke="#7a8389" points="1052.61,-268.46 1058.94,-264.59 1051.58,-263.67 1052.61,-268.46"/>
</g>
<!-- course__GEOG477 -->
<g id="node17" class="node">
<title>course__GEOG477</title>
<g id="a_node17"><a xlink:href="../../../courses/GEOG477.html" xlink:title="GEOG477: Field Studies in Physical Geography" target="_top">
<path fill="#e7e2d8" stroke="#7e8d96" d="M1223,-36C1223,-36 1186,-36 1186,-36 1180,-36 1174,-30 1174,-24 1174,-24 1174,-12 1174,-12 1174,-6 1180,0 1186,0 1186,0 1223,0 1223,0 1229,0 1235,-6 1235,-12 1235,-12 1235,-24 1235,-24 1235,-30 1229,-36 1223,-36"/>
<text text-anchor="middle" x="1204.5" y="-15.8" font-family="Avenir Next" font-size="9.00" fill="#41515b">GEOG477</text>
</a>
</g>
</g>
<!-- course__GEOG370&#45;&gt;course__GEOG477 -->
<g id="edge17" class="edge">
<title>course__GEOG370&#45;&gt;course__GEOG477</title>
<path fill="none" stroke="#5d6972" stroke-width="1.2" d="M998.26,-18C1041.17,-18 1120.34,-18 1166.81,-18"/>
<polygon fill="#5d6972" stroke="#5d6972" stroke-width="1.2" points="1166.98,-20.45 1173.98,-18 1166.98,-15.55 1166.98,-20.45"/>
</g>
<!-- course__PHYS411 -->
<g id="node15" class="node">
<title>course__PHYS411</title>
<g id="a_node15"><a xlink:href="../../../courses/PHYS411.html" xlink:title="PHYS411: Time Series Analysis" target="_top">
<path fill="#efd8cf" stroke="#7e8d96" d="M984.5,-204C984.5,-204 950.5,-204 950.5,-204 944.5,-204 938.5,-198 938.5,-192 938.5,-192 938.5,-180 938.5,-180 938.5,-174 944.5,-168 950.5,-168 950.5,-168 984.5,-168 984.5,-168 990.5,-168 996.5,-174 996.5,-180 996.5,-180 996.5,-192 996.5,-192 996.5,-198 990.5,-204 984.5,-204"/>
<text text-anchor="middle" x="967.5" y="-183.8" font-family="Avenir Next" font-size="9.00" fill="#41515b">PHYS411</text>
</a>
</g>
</g>
<!-- course__EOS401 -->
<g id="node16" class="node">
<title>course__EOS401</title>
<g id="a_node16"><a xlink:href="../../../courses/EOS401.html" xlink:title="EOS401: Oceanographic Field School" target="_top">
<path fill="#d7e9ef" stroke="#7e8d96" d="M1219.5,-277C1219.5,-277 1189.5,-277 1189.5,-277 1183.5,-277 1177.5,-271 1177.5,-265 1177.5,-265 1177.5,-253 1177.5,-253 1177.5,-247 1183.5,-241 1189.5,-241 1189.5,-241 1219.5,-241 1219.5,-241 1225.5,-241 1231.5,-247 1231.5,-253 1231.5,-253 1231.5,-265 1231.5,-265 1231.5,-271 1225.5,-277 1219.5,-277"/>
<text text-anchor="middle" x="1204.5" y="-256.8" font-family="Avenir Next" font-size="9.00" fill="#41515b">EOS401</text>
</a>
</g>
</g>
<!-- choice_EOS401_0&#45;&gt;course__EOS401 -->
<g id="edge10" class="edge">
<title>choice_EOS401_0&#45;&gt;course__EOS401</title>
<path fill="none" stroke="#5d6972" stroke-width="1.2" d="M1113.14,-259C1129.93,-259 1151.9,-259 1169.96,-259"/>
<polygon fill="#5d6972" stroke="#5d6972" stroke-width="1.2" points="1170.44,-261.45 1177.44,-259 1170.44,-256.55 1170.44,-261.45"/>
</g>
<!-- choice_PHYS411_0_0&#45;&gt;course__PHYS411 -->
<g id="edge22" class="edge">
<title>choice_PHYS411_0_0&#45;&gt;course__PHYS411</title>
<path fill="none" stroke="#5d6972" stroke-width="1.2" d="M876.14,-186C892.35,-186 913.37,-186 931.05,-186"/>
<polygon fill="#5d6972" stroke="#5d6972" stroke-width="1.2" points="931.41,-188.45 938.41,-186 931.41,-183.55 931.41,-188.45"/>
</g>
</g>
</svg>
