<?xml version="1.0" encoding="UTF-8" standalone="no"?>
<!DOCTYPE svg PUBLIC "-//W3C//DTD SVG 1.1//EN"
 "http://www.w3.org/Graphics/SVG/1.1/DTD/svg11.dtd">
<!-- Generated by graphviz version 2.43.0 (0)
 -->
<!-- Title: PHYS429A Pages: 1 -->
<svg width="501pt" height="102pt"
 viewBox="0.00 0.00 501.20 102.20" xmlns="http://www.w3.org/2000/svg" xmlns:xlink="http://www.w3.org/1999/xlink">
<g id="graph0" class="graph" transform="scale(1 1) rotate(0) translate(21.6 80.6)">
<title>PHYS429A</title>
<!-- course__PHYS429A -->
<g id="node1" class="node">
<title>course__PHYS429A</title>
<g id="a_node1"><a xlink:href="../../../courses/PHYS429A.html" xlink:title="PHYS429A: Honours Laboratory" target="_top">
<path fill="#efd8cf" stroke="#1f4f66" stroke-width="2" d="M446,-47.5C446,-47.5 357,-47.5 357,-47.5 351,-47.5 345,-41.5 345,-35.5 345,-35.5 345,-23.5 345,-23.5 345,-17.5 351,-11.5 357,-11.5 357,-11.5 446,-11.5 446,-11.5 452,-11.5 458,-17.5 458,-23.5 458,-23.5 458,-35.5 458,-35.5 458,-41.5 452,-47.5 446,-47.5"/>
<text text-anchor="middle" x="401.5" y="-32.5" font-family="Avenir Next" font-size="10.00" fill="#17232b">PHYS429A</text>
<text text-anchor="middle" x="401.5" y="-21.5" font-family="Avenir Next" font-size="10.00" fill="#17232b">Honours Laboratory</text>
</a>
</g>
</g>
<!-- PHYS429A_notes -->
<g id="node2" class="node">
<title>PHYS429A_notes</title>
<polygon fill="#fff7ee" stroke="#b7793f" stroke-width="1.1" points="216,-59 0,-59 0,0 222,0 222,-53 216,-59"/>
<polyline fill="none" stroke="#b7793f" stroke-width="1.1" points="216,-59 216,-53 "/>
<polyline fill="none" stroke="#b7793f" stroke-width="1.1" points="222,-53 216,-53 "/>
<text text-anchor="start" x="13" y="-39.4" font-family="Avenir Next" font-size="12.00">Published notes</text>
<text text-anchor="start" x="13" y="-26.4" font-family="Avenir Next" font-size="12.00">Minimum fourth&#45;year standing</text>
<text text-anchor="start" x="13" y="-13.4" font-family="Avenir Next" font-size="12.00">or permission of the department</text>
</g>
<!-- PHYS429A_notes&#45;&gt;course__PHYS429A -->
</g>
</svg>
