<?xml version="1.0" encoding="UTF-8" standalone="no"?>
<!DOCTYPE svg PUBLIC "-//W3C//DTD SVG 1.1//EN"
 "http://www.w3.org/Graphics/SVG/1.1/DTD/svg11.dtd">
<!-- Generated by graphviz version 2.43.0 (0)
 -->
<!-- Title: PHYS110 Pages: 1 -->
<svg width="753pt" height="583pt"
 viewBox="0.00 0.00 753.20 583.20" xmlns="http://www.w3.org/2000/svg" xmlns:xlink="http://www.w3.org/1999/xlink">
<g id="graph0" class="graph" transform="scale(1 1) rotate(0) translate(21.6 561.6)">
<title>PHYS110</title>
<!-- course__MATH100 -->
<g id="node1" class="node">
<title>course__MATH100</title>
<g id="a_node1"><a xlink:href="../../../courses/MATH100.html" xlink:title="Collapsed in simplified view: MATH100: Calculus I | MATH102: Calculus for Students in the Social and Biological Sciences | MATH109: Introduction to Calculus" target="_top">
<path fill="#dfe3f4" stroke="#1b2730" stroke-width="1.6" d="M52,-312C52,-312 12,-312 12,-312 6,-312 0,-306 0,-300 0,-300 0,-288 0,-288 0,-282 6,-276 12,-276 12,-276 52,-276 52,-276 58,-276 64,-282 64,-288 64,-288 64,-300 64,-300 64,-306 58,-312 52,-312"/>
<text text-anchor="middle" x="32" y="-291.5" font-family="Avenir Next" font-size="10.00" fill="#17232b">Calculus I</text>
</a>
</g>
</g>
<!-- course__PHYS102A -->
<g id="node2" class="node">
<title>course__PHYS102A</title>
<g id="a_node2"><a xlink:href="../../../courses/PHYS110.html" xlink:title="Collapsed in simplified view: PHYS102A: General Physics I | PHYS110: Introductory Physics I | PHYS120: Physics I" target="_top">
<path fill="#efd8cf" stroke="#1f4f66" stroke-width="2" d="M235,-337C235,-337 137,-337 137,-337 131,-337 125,-331 125,-325 125,-325 125,-313 125,-313 125,-307 131,-301 137,-301 137,-301 235,-301 235,-301 241,-301 247,-307 247,-313 247,-313 247,-325 247,-325 247,-331 241,-337 235,-337"/>
<text text-anchor="middle" x="186" y="-322" font-family="Avenir Next" font-size="10.00" fill="#17232b">Physics I</text>
<text text-anchor="middle" x="186" y="-311" font-family="Avenir Next" font-size="10.00" fill="#17232b">Introductory Physics I</text>
</a>
</g>
</g>
<!-- course__MATH100&#45;&gt;course__PHYS102A -->
<g id="edge8" class="edge">
<title>course__MATH100&#45;&gt;course__PHYS102A</title>
<path fill="none" stroke="#5d6972" stroke-width="1.2" d="M64.13,-299.12C79.54,-301.65 98.79,-304.82 117.36,-307.87"/>
<polygon fill="#5d6972" stroke="#5d6972" stroke-width="1.2" points="117.4,-310.37 124.71,-309.08 118.2,-305.53 117.4,-310.37"/>
</g>
<!-- course__PHYS102B -->
<g id="node4" class="node">
<title>course__PHYS102B</title>
<g id="a_node4"><a xlink:href="../../../courses/PHYS102B.html" xlink:title="Collapsed in simplified view: PHYS102B: General Physics II | PHYS111: Introductory Physics II | PHYS130: Physics II" target="_top">
<path fill="#efd8cf" stroke="#1b2730" stroke-width="1.6" d="M375.5,-288C375.5,-288 337.5,-288 337.5,-288 331.5,-288 325.5,-282 325.5,-276 325.5,-276 325.5,-264 325.5,-264 325.5,-258 331.5,-252 337.5,-252 337.5,-252 375.5,-252 375.5,-252 381.5,-252 387.5,-258 387.5,-264 387.5,-264 387.5,-276 387.5,-276 387.5,-282 381.5,-288 375.5,-288"/>
<text text-anchor="middle" x="356.5" y="-267.5" font-family="Avenir Next" font-size="10.00" fill="#17232b">Physics II</text>
</a>
</g>
</g>
<!-- course__MATH100&#45;&gt;course__PHYS102B -->
<g id="edge10" class="edge">
<title>course__MATH100&#45;&gt;course__PHYS102B</title>
<path fill="none" stroke="#5d6972" stroke-width="1.2" d="M64.22,-291.68C123.88,-287.24 253.88,-277.56 318.09,-272.78"/>
<polygon fill="#5d6972" stroke="#5d6972" stroke-width="1.2" points="318.41,-275.22 325.21,-272.25 318.05,-270.33 318.41,-275.22"/>
</g>
<!-- course__EOS210 -->
<g id="node3" class="node">
<title>course__EOS210</title>
<g id="a_node3"><a xlink:href="../../../courses/EOS210.html" xlink:title="Collapsed in simplified view: EOS210: Introductory Geophysics | PHYS210: Introductory Geophysics" target="_top">
<path fill="#d7e9ef" stroke="#1b2730" stroke-width="1.6" d="M393,-344C393,-344 320,-344 320,-344 314,-344 308,-338 308,-332 308,-332 308,-320 308,-320 308,-314 314,-308 320,-308 320,-308 393,-308 393,-308 399,-308 405,-314 405,-320 405,-320 405,-332 405,-332 405,-338 399,-344 393,-344"/>
<text text-anchor="middle" x="356.5" y="-323.5" font-family="Avenir Next" font-size="10.00" fill="#17232b">Intro geophysics</text>
</a>
</g>
</g>
<!-- course__PHYS102A&#45;&gt;course__EOS210 -->
<g id="edge2" class="edge">
<title>course__PHYS102A&#45;&gt;course__EOS210</title>
<path fill="none" stroke="#5d6972" stroke-width="1.2" d="M247.36,-321.51C264.79,-322.23 283.71,-323.02 300.78,-323.73"/>
<polygon fill="#5d6972" stroke="#5d6972" stroke-width="1.2" points="300.88,-326.18 307.98,-324.03 301.08,-321.29 300.88,-326.18"/>
</g>
<!-- course__PHYS102A&#45;&gt;course__PHYS102B -->
<g id="edge9" class="edge">
<title>course__PHYS102A&#45;&gt;course__PHYS102B</title>
<path fill="none" stroke="#5d6972" stroke-width="1.2" d="M247.36,-301.45C271.11,-294.54 297.63,-286.83 318.46,-280.77"/>
<polygon fill="#5d6972" stroke="#5d6972" stroke-width="1.2" points="319.26,-283.09 325.3,-278.78 317.89,-278.39 319.26,-283.09"/>
</g>
<!-- course__CIVE210 -->
<g id="node5" class="node">
<title>course__CIVE210</title>
<g id="a_node5"><a xlink:href="../../../courses/CIVE210.html" xlink:title="CIVE210: Sustainability in Civil Engineering" target="_top">
<path fill="#f2ece3" stroke="#1b2730" stroke-width="1.6" d="M540.5,-540C540.5,-540 507.5,-540 507.5,-540 501.5,-540 495.5,-534 495.5,-528 495.5,-528 495.5,-516 495.5,-516 495.5,-510 501.5,-504 507.5,-504 507.5,-504 540.5,-504 540.5,-504 546.5,-504 552.5,-510 552.5,-516 552.5,-516 552.5,-528 552.5,-528 552.5,-534 546.5,-540 540.5,-540"/>
<text text-anchor="middle" x="524" y="-519.5" font-family="Avenir Next" font-size="10.00" fill="#17232b">CIVE210</text>
</a>
</g>
</g>
<!-- course__PHYS102B&#45;&gt;course__CIVE210 -->
<g id="edge1" class="edge">
<title>course__PHYS102B&#45;&gt;course__CIVE210</title>
<path fill="none" stroke="#5d6972" stroke-width="1.2" d="M387.73,-283.3C394.14,-287.26 400.36,-292.15 405,-298 461.65,-369.51 406.67,-424.69 466,-494 472.11,-501.14 480.48,-506.63 488.92,-510.78"/>
<polygon fill="#5d6972" stroke="#5d6972" stroke-width="1.2" points="487.96,-513.04 495.35,-513.69 489.98,-508.57 487.96,-513.04"/>
</g>
<!-- course__EOS311 -->
<g id="node6" class="node">
<title>course__EOS311</title>
<g id="a_node6"><a xlink:href="../../../courses/EOS311.html" xlink:title="Equivalent or cross&#45;listed: BIOL311: Biological Oceanography | EOS311: Biological Oceanography" target="_top">
<path fill="#d7e9ef" stroke="#1b2730" stroke-width="1.6" d="M564,-484C564,-484 484,-484 484,-484 478,-484 472,-478 472,-472 472,-472 472,-460 472,-460 472,-454 478,-448 484,-448 484,-448 564,-448 564,-448 570,-448 576,-454 576,-460 576,-460 576,-472 576,-472 576,-478 570,-484 564,-484"/>
<text text-anchor="middle" x="524" y="-463.5" font-family="Avenir Next" font-size="10.00" fill="#17232b">BIOL311 / EOS311</text>
</a>
</g>
</g>
<!-- course__PHYS102B&#45;&gt;course__EOS311 -->
<g id="edge3" class="edge">
<title>course__PHYS102B&#45;&gt;course__EOS311</title>
<path fill="none" stroke="#5d6972" stroke-width="1.2" d="M387.77,-283.98C394.03,-287.87 400.18,-292.55 405,-298 449.98,-348.82 419.12,-388.92 466,-438 467.9,-439.99 469.97,-441.86 472.17,-443.61"/>
<polygon fill="#5d6972" stroke="#5d6972" stroke-width="1.2" points="471.11,-445.87 478.22,-447.98 473.97,-441.89 471.11,-445.87"/>
</g>
<!-- course__EOS314 -->
<g id="node7" class="node">
<title>course__EOS314</title>
<g id="a_node7"><a xlink:href="../../../courses/EOS314.html" xlink:title="EOS314: Descriptive Physical Oceanography" target="_top">
<path fill="#d7e9ef" stroke="#1b2730" stroke-width="1.6" d="M539,-428C539,-428 509,-428 509,-428 503,-428 497,-422 497,-416 497,-416 497,-404 497,-404 497,-398 503,-392 509,-392 509,-392 539,-392 539,-392 545,-392 551,-398 551,-404 551,-404 551,-416 551,-416 551,-422 545,-428 539,-428"/>
<text text-anchor="middle" x="524" y="-407.5" font-family="Avenir Next" font-size="10.00" fill="#17232b">EOS314</text>
</a>
</g>
</g>
<!-- course__PHYS102B&#45;&gt;course__EOS314 -->
<g id="edge4" class="edge">
<title>course__PHYS102B&#45;&gt;course__EOS314</title>
<path fill="none" stroke="#5d6972" stroke-width="1.2" d="M387.94,-285.42C393.91,-289.12 399.9,-293.36 405,-298 439.14,-329.03 430.7,-352.29 466,-382 473.19,-388.05 481.92,-393.18 490.35,-397.33"/>
<polygon fill="#5d6972" stroke="#5d6972" stroke-width="1.2" points="489.34,-399.56 496.72,-400.31 491.42,-395.12 489.34,-399.56"/>
</g>
<!-- course__EOS340 -->
<g id="node8" class="node">
<title>course__EOS340</title>
<g id="a_node8"><a xlink:href="../../../courses/EOS340.html" xlink:title="Equivalent or cross&#45;listed: EOS340: Atmospheric Physics | PHYS340: Atmospheric Physics" target="_top">
<path fill="#d7e9ef" stroke="#1b2730" stroke-width="1.6" d="M565.5,-372C565.5,-372 482.5,-372 482.5,-372 476.5,-372 470.5,-366 470.5,-360 470.5,-360 470.5,-348 470.5,-348 470.5,-342 476.5,-336 482.5,-336 482.5,-336 565.5,-336 565.5,-336 571.5,-336 577.5,-342 577.5,-348 577.5,-348 577.5,-360 577.5,-360 577.5,-366 571.5,-372 565.5,-372"/>
<text text-anchor="middle" x="524" y="-351.5" font-family="Avenir Next" font-size="10.00" fill="#17232b">EOS340 / PHYS340</text>
</a>
</g>
</g>
<!-- course__PHYS102B&#45;&gt;course__EOS340 -->
<g id="edge5" class="edge">
<title>course__PHYS102B&#45;&gt;course__EOS340</title>
<path fill="none" stroke="#5d6972" stroke-width="1.2" d="M387.82,-285.85C409.53,-297.15 439.49,-312.65 466,-326 470.3,-328.17 474.79,-330.41 479.29,-332.64"/>
<polygon fill="#5d6972" stroke="#5d6972" stroke-width="1.2" points="478.49,-334.97 485.85,-335.88 480.66,-330.58 478.49,-334.97"/>
</g>
<!-- course__EOS431 -->
<g id="node9" class="node">
<title>course__EOS431</title>
<g id="a_node9"><a xlink:href="../../../courses/EOS431.html" xlink:title="Equivalent or cross&#45;listed: EOS431: Physical Oceanography | PHYS441: Physical Oceanography" target="_top">
<path fill="#d7e9ef" stroke="#1b2730" stroke-width="1.6" d="M565.5,-316C565.5,-316 482.5,-316 482.5,-316 476.5,-316 470.5,-310 470.5,-304 470.5,-304 470.5,-292 470.5,-292 470.5,-286 476.5,-280 482.5,-280 482.5,-280 565.5,-280 565.5,-280 571.5,-280 577.5,-286 577.5,-292 577.5,-292 577.5,-304 577.5,-304 577.5,-310 571.5,-316 565.5,-316"/>
<text text-anchor="middle" x="524" y="-295.5" font-family="Avenir Next" font-size="10.00" fill="#17232b">EOS431 / PHYS441</text>
</a>
</g>
</g>
<!-- course__PHYS102B&#45;&gt;course__EOS431 -->
<g id="edge6" class="edge">
<title>course__PHYS102B&#45;&gt;course__EOS431</title>
<path fill="none" stroke="#5d6972" stroke-width="1.2" d="M387.86,-275.14C408.92,-278.7 437.69,-283.57 463.27,-287.89"/>
<polygon fill="#5d6972" stroke="#5d6972" stroke-width="1.2" points="463.08,-290.35 470.39,-289.1 463.9,-285.52 463.08,-290.35"/>
</g>
<!-- course__MATH248 -->
<g id="node10" class="node">
<title>course__MATH248</title>
<g id="a_node10"><a xlink:href="../../../courses/MATH248.html" xlink:title="Equivalent or cross&#45;listed: MATH248: Computer Assisted Mathematics | PHYS248: Computer Assisted Physics" target="_top">
<path fill="#dfe3f4" stroke="#1b2730" stroke-width="1.6" d="M570,-260C570,-260 478,-260 478,-260 472,-260 466,-254 466,-248 466,-248 466,-236 466,-236 466,-230 472,-224 478,-224 478,-224 570,-224 570,-224 576,-224 582,-230 582,-236 582,-236 582,-248 582,-248 582,-254 576,-260 570,-260"/>
<text text-anchor="middle" x="524" y="-239.5" font-family="Avenir Next" font-size="10.00" fill="#17232b">MATH248 / PHYS248</text>
</a>
</g>
</g>
<!-- course__PHYS102B&#45;&gt;course__MATH248 -->
<g id="edge7" class="edge">
<title>course__PHYS102B&#45;&gt;course__MATH248</title>
<path fill="none" stroke="#5d6972" stroke-width="1.2" d="M387.86,-264.86C407.64,-261.52 434.23,-257.02 458.58,-252.9"/>
<polygon fill="#5d6972" stroke="#5d6972" stroke-width="1.2" points="459.22,-255.28 465.71,-251.69 458.4,-250.44 459.22,-255.28"/>
</g>
<!-- course__PHYS215 -->
<g id="node11" class="node">
<title>course__PHYS215</title>
<g id="a_node11"><a xlink:href="../../../courses/PHYS215.html" xlink:title="PHYS215: Introductory Quantum Physics" target="_top">
<path fill="#efd8cf" stroke="#1b2730" stroke-width="1.6" d="M542,-204C542,-204 506,-204 506,-204 500,-204 494,-198 494,-192 494,-192 494,-180 494,-180 494,-174 500,-168 506,-168 506,-168 542,-168 542,-168 548,-168 554,-174 554,-180 554,-180 554,-192 554,-192 554,-198 548,-204 542,-204"/>
<text text-anchor="middle" x="524" y="-183.5" font-family="Avenir Next" font-size="10.00" fill="#17232b">PHYS215</text>
</a>
</g>
</g>
<!-- course__PHYS102B&#45;&gt;course__PHYS215 -->
<g id="edge11" class="edge">
<title>course__PHYS102B&#45;&gt;course__PHYS215</title>
<path fill="none" stroke="#5d6972" stroke-width="1.2" d="M387.82,-254.15C409.53,-242.85 439.49,-227.35 466,-214 472.94,-210.51 480.37,-206.82 487.5,-203.3"/>
<polygon fill="#5d6972" stroke="#5d6972" stroke-width="1.2" points="488.75,-205.42 493.95,-200.13 486.58,-201.02 488.75,-205.42"/>
</g>
<!-- course__PHYS216 -->
<g id="node12" class="node">
<title>course__PHYS216</title>
<g id="a_node12"><a xlink:href="../../../courses/PHYS216.html" xlink:title="PHYS216: Introductory Electricity and Magnetism" target="_top">
<path fill="#efd8cf" stroke="#1b2730" stroke-width="1.6" d="M542,-148C542,-148 506,-148 506,-148 500,-148 494,-142 494,-136 494,-136 494,-124 494,-124 494,-118 500,-112 506,-112 506,-112 542,-112 542,-112 548,-112 554,-118 554,-124 554,-124 554,-136 554,-136 554,-142 548,-148 542,-148"/>
<text text-anchor="middle" x="524" y="-127.5" font-family="Avenir Next" font-size="10.00" fill="#17232b">PHYS216</text>
</a>
</g>
</g>
<!-- course__PHYS102B&#45;&gt;course__PHYS216 -->
<g id="edge12" class="edge">
<title>course__PHYS102B&#45;&gt;course__PHYS216</title>
<path fill="none" stroke="#5d6972" stroke-width="1.2" d="M371.71,-251.83C391.05,-227.97 427.69,-185.87 466,-158 472.48,-153.28 479.89,-148.99 487.16,-145.25"/>
<polygon fill="#5d6972" stroke="#5d6972" stroke-width="1.2" points="488.58,-147.28 493.77,-141.98 486.41,-142.89 488.58,-147.28"/>
</g>
<!-- course__PHYS217 -->
<g id="node13" class="node">
<title>course__PHYS217</title>
<g id="a_node13"><a xlink:href="../../../courses/PHYS217.html" xlink:title="Equivalent or cross&#45;listed: PHYS217: Introductory Thermodynamics | PHYS317: Thermodynamics" target="_top">
<path fill="#efd8cf" stroke="#1b2730" stroke-width="1.6" d="M568.5,-92C568.5,-92 479.5,-92 479.5,-92 473.5,-92 467.5,-86 467.5,-80 467.5,-80 467.5,-68 467.5,-68 467.5,-62 473.5,-56 479.5,-56 479.5,-56 568.5,-56 568.5,-56 574.5,-56 580.5,-62 580.5,-68 580.5,-68 580.5,-80 580.5,-80 580.5,-86 574.5,-92 568.5,-92"/>
<text text-anchor="middle" x="524" y="-71.5" font-family="Avenir Next" font-size="10.00" fill="#17232b">PHYS217 / PHYS317</text>
</a>
</g>
</g>
<!-- course__PHYS102B&#45;&gt;course__PHYS217 -->
<g id="edge13" class="edge">
<title>course__PHYS102B&#45;&gt;course__PHYS217</title>
<path fill="none" stroke="#5d6972" stroke-width="1.2" d="M365.23,-251.8C380.25,-218.28 416.32,-146.19 466,-102 468.32,-99.94 470.81,-97.99 473.42,-96.16"/>
<polygon fill="#5d6972" stroke="#5d6972" stroke-width="1.2" points="475.14,-97.96 479.68,-92.1 472.47,-93.86 475.14,-97.96"/>
</g>
<!-- course__PHYS229 -->
<g id="node14" class="node">
<title>course__PHYS229</title>
<g id="a_node14"><a xlink:href="../../../courses/PHYS229.html" xlink:title="PHYS229: Introduction to Experimental Physics" target="_top">
<path fill="#efd8cf" stroke="#1b2730" stroke-width="1.6" d="M542,-36C542,-36 506,-36 506,-36 500,-36 494,-30 494,-24 494,-24 494,-12 494,-12 494,-6 500,0 506,0 506,0 542,0 542,0 548,0 554,-6 554,-12 554,-12 554,-24 554,-24 554,-30 548,-36 542,-36"/>
<text text-anchor="middle" x="524" y="-15.5" font-family="Avenir Next" font-size="10.00" fill="#17232b">PHYS229</text>
</a>
</g>
</g>
<!-- course__PHYS102B&#45;&gt;course__PHYS229 -->
<g id="edge14" class="edge">
<title>course__PHYS102B&#45;&gt;course__PHYS229</title>
<path fill="none" stroke="#5d6972" stroke-width="1.2" d="M361.89,-251.95C372.8,-210.55 404.76,-107.58 466,-46 472.07,-39.89 479.75,-34.9 487.48,-30.92"/>
<polygon fill="#5d6972" stroke="#5d6972" stroke-width="1.2" points="488.71,-33.05 493.96,-27.81 486.59,-28.63 488.71,-33.05"/>
</g>
<!-- course__PHYS321A -->
<g id="node15" class="node">
<title>course__PHYS321A</title>
<g id="a_node15"><a xlink:href="../../../courses/PHYS321A.html" xlink:title="PHYS321A: Classical Mechanics I" target="_top">
<path fill="#efd8cf" stroke="#1b2730" stroke-width="1.6" d="M698,-260C698,-260 655,-260 655,-260 649,-260 643,-254 643,-248 643,-248 643,-236 643,-236 643,-230 649,-224 655,-224 655,-224 698,-224 698,-224 704,-224 710,-230 710,-236 710,-236 710,-248 710,-248 710,-254 704,-260 698,-260"/>
<text text-anchor="middle" x="676.5" y="-239.5" font-family="Avenir Next" font-size="10.00" fill="#17232b">PHYS321A</text>
</a>
</g>
</g>
<!-- course__MATH248&#45;&gt;course__PHYS321A -->
<g id="edge15" class="edge">
<title>course__MATH248&#45;&gt;course__PHYS321A</title>
<path fill="none" stroke="#5d6972" stroke-width="1.2" d="M582.33,-242C600.05,-242 619.18,-242 635.46,-242"/>
<polygon fill="#5d6972" stroke="#5d6972" stroke-width="1.2" points="635.73,-244.45 642.73,-242 635.73,-239.55 635.73,-244.45"/>
</g>
</g>
</svg>
