<?xml version="1.0" encoding="UTF-8" standalone="no"?>
<!DOCTYPE svg PUBLIC "-//W3C//DTD SVG 1.1//EN"
 "http://www.w3.org/Graphics/SVG/1.1/DTD/svg11.dtd">
<!-- Generated by graphviz version 2.43.0 (0)
 -->
<!-- Title: PHYS317 Pages: 1 -->
<svg width="515pt" height="135pt"
 viewBox="0.00 0.00 515.20 135.20" xmlns="http://www.w3.org/2000/svg" xmlns:xlink="http://www.w3.org/1999/xlink">
<g id="graph0" class="graph" transform="scale(1 1) rotate(0) translate(21.6 113.6)">
<title>PHYS317</title>
<!-- course__PHYS102A -->
<g id="node1" class="node">
<title>course__PHYS102A</title>
<g id="a_node1"><a xlink:href="../../../courses/PHYS102A.html" xlink:title="Collapsed in simplified view: PHYS102A: General Physics I | PHYS110: Introductory Physics I | PHYS120: Physics I" target="_top">
<path fill="#efd8cf" stroke="#1b2730" stroke-width="1.6" d="M47,-92C47,-92 12,-92 12,-92 6,-92 0,-86 0,-80 0,-80 0,-68 0,-68 0,-62 6,-56 12,-56 12,-56 47,-56 47,-56 53,-56 59,-62 59,-68 59,-68 59,-80 59,-80 59,-86 53,-92 47,-92"/>
<text text-anchor="middle" x="29.5" y="-71.5" font-family="Avenir Next" font-size="10.00" fill="#17232b">Physics I</text>
</a>
</g>
</g>
<!-- course__PHYS102B -->
<g id="node3" class="node">
<title>course__PHYS102B</title>
<g id="a_node3"><a xlink:href="../../../courses/PHYS102B.html" xlink:title="Collapsed in simplified view: PHYS102B: General Physics II | PHYS111: Introductory Physics II | PHYS130: Physics II" target="_top">
<path fill="#efd8cf" stroke="#1b2730" stroke-width="1.6" d="M170.5,-92C170.5,-92 132.5,-92 132.5,-92 126.5,-92 120.5,-86 120.5,-80 120.5,-80 120.5,-68 120.5,-68 120.5,-62 126.5,-56 132.5,-56 132.5,-56 170.5,-56 170.5,-56 176.5,-56 182.5,-62 182.5,-68 182.5,-68 182.5,-80 182.5,-80 182.5,-86 176.5,-92 170.5,-92"/>
<text text-anchor="middle" x="151.5" y="-71.5" font-family="Avenir Next" font-size="10.00" fill="#17232b">Physics II</text>
</a>
</g>
</g>
<!-- course__PHYS102A&#45;&gt;course__PHYS102B -->
<g id="edge2" class="edge">
<title>course__PHYS102A&#45;&gt;course__PHYS102B</title>
<path fill="none" stroke="#5d6972" stroke-width="1.2" d="M59.24,-74C75.38,-74 95.71,-74 113.07,-74"/>
<polygon fill="#5d6972" stroke="#5d6972" stroke-width="1.2" points="113.32,-76.45 120.32,-74 113.32,-71.55 113.32,-76.45"/>
</g>
<!-- course__MATH204 -->
<g id="node2" class="node">
<title>course__MATH204</title>
<g id="a_node2"><a xlink:href="../../../courses/MATH204.html" xlink:title="MATH204: Calculus IV" target="_top">
<path fill="#dfe3f4" stroke="#1b2730" stroke-width="1.6" d="M171,-36C171,-36 132,-36 132,-36 126,-36 120,-30 120,-24 120,-24 120,-12 120,-12 120,-6 126,0 132,0 132,0 171,0 171,0 177,0 183,-6 183,-12 183,-12 183,-24 183,-24 183,-30 177,-36 171,-36"/>
<text text-anchor="middle" x="151.5" y="-15.5" font-family="Avenir Next" font-size="10.00" fill="#17232b">MATH204</text>
</a>
</g>
</g>
<!-- course__PHYS217 -->
<g id="node4" class="node">
<title>course__PHYS217</title>
<g id="a_node4"><a xlink:href="../../../courses/PHYS317.html" xlink:title="Equivalent or cross&#45;listed: PHYS217: Introductory Thermodynamics | PHYS317: Thermodynamics" target="_top">
<path fill="#efd8cf" stroke="#1f4f66" stroke-width="2" d="M345,-64C345,-64 256,-64 256,-64 250,-64 244,-58 244,-52 244,-52 244,-40 244,-40 244,-34 250,-28 256,-28 256,-28 345,-28 345,-28 351,-28 357,-34 357,-40 357,-40 357,-52 357,-52 357,-58 351,-64 345,-64"/>
<text text-anchor="middle" x="300.5" y="-49" font-family="Avenir Next" font-size="10.00" fill="#17232b">PHYS217 / PHYS317</text>
<text text-anchor="middle" x="300.5" y="-38" font-family="Avenir Next" font-size="10.00" fill="#17232b">Thermodynamics</text>
</a>
</g>
</g>
<!-- course__MATH204&#45;&gt;course__PHYS217 -->
<g id="edge4" class="edge">
<title>course__MATH204&#45;&gt;course__PHYS217</title>
<path fill="none" stroke="#5d6972" stroke-width="1.2" d="M183.32,-23.87C198.78,-26.81 218.09,-30.49 236.51,-34"/>
<polygon fill="#5d6972" stroke="#5d6972" stroke-width="1.2" points="236.45,-36.48 243.78,-35.39 237.36,-31.67 236.45,-36.48"/>
</g>
<!-- course__PHYS102B&#45;&gt;course__PHYS217 -->
<g id="edge3" class="edge">
<title>course__PHYS102B&#45;&gt;course__PHYS217</title>
<path fill="none" stroke="#5d6972" stroke-width="1.2" d="M182.6,-68.27C198.31,-65.27 218.14,-61.5 236.99,-57.91"/>
<polygon fill="#5d6972" stroke="#5d6972" stroke-width="1.2" points="237.46,-60.31 243.88,-56.59 236.54,-55.5 237.46,-60.31"/>
</g>
<!-- course__EOS316 -->
<g id="node5" class="node">
<title>course__EOS316</title>
<g id="a_node5"><a xlink:href="../../../courses/EOS316.html" xlink:title="EOS316: Igneous and Metamorphic Geology" target="_top">
<path fill="#d7e9ef" stroke="#1b2730" stroke-width="1.6" d="M460,-64C460,-64 430,-64 430,-64 424,-64 418,-58 418,-52 418,-52 418,-40 418,-40 418,-34 424,-28 430,-28 430,-28 460,-28 460,-28 466,-28 472,-34 472,-40 472,-40 472,-52 472,-52 472,-58 466,-64 460,-64"/>
<text text-anchor="middle" x="445" y="-43.5" font-family="Avenir Next" font-size="10.00" fill="#17232b">EOS316</text>
</a>
</g>
</g>
<!-- course__PHYS217&#45;&gt;course__EOS316 -->
<g id="edge1" class="edge">
<title>course__PHYS217&#45;&gt;course__EOS316</title>
<path fill="none" stroke="#5d6972" stroke-width="1.2" d="M357,-46C375.16,-46 394.76,-46 410.75,-46"/>
<polygon fill="#5d6972" stroke="#5d6972" stroke-width="1.2" points="410.83,-48.45 417.83,-46 410.83,-43.55 410.83,-48.45"/>
</g>
</g>
</svg>
