<?xml version="1.0" encoding="UTF-8" standalone="no"?>
<!DOCTYPE svg PUBLIC "-//W3C//DTD SVG 1.1//EN"
 "http://www.w3.org/Graphics/SVG/1.1/DTD/svg11.dtd">
<!-- Generated by graphviz version 2.43.0 (0)
 -->
<!-- Title: PHYS102A Pages: 1 -->
<svg width="732pt" height="583pt"
 viewBox="0.00 0.00 732.20 583.20" xmlns="http://www.w3.org/2000/svg" xmlns:xlink="http://www.w3.org/1999/xlink">
<g id="graph0" class="graph" transform="scale(1 1) rotate(0) translate(21.6 561.6)">
<title>PHYS102A</title>
<!-- course__MATH100 -->
<g id="node1" class="node">
<title>course__MATH100</title>
<g id="a_node1"><a xlink:href="../../../courses/MATH100.html" xlink:title="Collapsed in simplified view: MATH100: Calculus I | MATH102: Calculus for Students in the Social and Biological Sciences | MATH109: Introduction to Calculus" target="_top">
<path fill="#dfe3f4" stroke="#1b2730" stroke-width="1.6" d="M52,-312C52,-312 12,-312 12,-312 6,-312 0,-306 0,-300 0,-300 0,-288 0,-288 0,-282 6,-276 12,-276 12,-276 52,-276 52,-276 58,-276 64,-282 64,-288 64,-288 64,-300 64,-300 64,-306 58,-312 52,-312"/>
<text text-anchor="middle" x="32" y="-291.5" font-family="Avenir Next" font-size="10.00" fill="#17232b">Calculus I</text>
</a>
</g>
</g>
<!-- course__PHYS102A -->
<g id="node2" class="node">
<title>course__PHYS102A</title>
<g id="a_node2"><a xlink:href="../../../courses/PHYS102A.html" xlink:title="Collapsed in simplified view: PHYS102A: General Physics I | PHYS110: Introductory Physics I | PHYS120: Physics I" target="_top">
<path fill="#efd8cf" stroke="#1f4f66" stroke-width="2" d="M214,-337C214,-337 137,-337 137,-337 131,-337 125,-331 125,-325 125,-325 125,-313 125,-313 125,-307 131,-301 137,-301 137,-301 214,-301 214,-301 220,-301 226,-307 226,-313 226,-313 226,-325 226,-325 226,-331 220,-337 214,-337"/>
<text text-anchor="middle" x="175.5" y="-322" font-family="Avenir Next" font-size="10.00" fill="#17232b">Physics I</text>
<text text-anchor="middle" x="175.5" y="-311" font-family="Avenir Next" font-size="10.00" fill="#17232b">General Physics I</text>
</a>
</g>
</g>
<!-- course__MATH100&#45;&gt;course__PHYS102A -->
<g id="edge8" class="edge">
<title>course__MATH100&#45;&gt;course__PHYS102A</title>
<path fill="none" stroke="#5d6972" stroke-width="1.2" d="M64.05,-299.49C79.78,-302.27 99.38,-305.73 117.68,-308.96"/>
<polygon fill="#5d6972" stroke="#5d6972" stroke-width="1.2" points="117.57,-311.43 124.89,-310.24 118.42,-306.6 117.57,-311.43"/>
</g>
<!-- course__PHYS102B -->
<g id="node4" class="node">
<title>course__PHYS102B</title>
<g id="a_node4"><a xlink:href="../../../courses/PHYS102B.html" xlink:title="Collapsed in simplified view: PHYS102B: General Physics II | PHYS111: Introductory Physics II | PHYS130: Physics II" target="_top">
<path fill="#efd8cf" stroke="#1b2730" stroke-width="1.6" d="M354.5,-288C354.5,-288 316.5,-288 316.5,-288 310.5,-288 304.5,-282 304.5,-276 304.5,-276 304.5,-264 304.5,-264 304.5,-258 310.5,-252 316.5,-252 316.5,-252 354.5,-252 354.5,-252 360.5,-252 366.5,-258 366.5,-264 366.5,-264 366.5,-276 366.5,-276 366.5,-282 360.5,-288 354.5,-288"/>
<text text-anchor="middle" x="335.5" y="-267.5" font-family="Avenir Next" font-size="10.00" fill="#17232b">Physics II</text>
</a>
</g>
</g>
<!-- course__MATH100&#45;&gt;course__PHYS102B -->
<g id="edge10" class="edge">
<title>course__MATH100&#45;&gt;course__PHYS102B</title>
<path fill="none" stroke="#5d6972" stroke-width="1.2" d="M64.13,-291.52C120.08,-287.07 237.39,-277.73 297.41,-272.95"/>
<polygon fill="#5d6972" stroke="#5d6972" stroke-width="1.2" points="297.65,-275.39 304.43,-272.39 297.26,-270.51 297.65,-275.39"/>
</g>
<!-- course__EOS210 -->
<g id="node3" class="node">
<title>course__EOS210</title>
<g id="a_node3"><a xlink:href="../../../courses/EOS210.html" xlink:title="Collapsed in simplified view: EOS210: Introductory Geophysics | PHYS210: Introductory Geophysics" target="_top">
<path fill="#d7e9ef" stroke="#1b2730" stroke-width="1.6" d="M372,-344C372,-344 299,-344 299,-344 293,-344 287,-338 287,-332 287,-332 287,-320 287,-320 287,-314 293,-308 299,-308 299,-308 372,-308 372,-308 378,-308 384,-314 384,-320 384,-320 384,-332 384,-332 384,-338 378,-344 372,-344"/>
<text text-anchor="middle" x="335.5" y="-323.5" font-family="Avenir Next" font-size="10.00" fill="#17232b">Intro geophysics</text>
</a>
</g>
</g>
<!-- course__PHYS102A&#45;&gt;course__EOS210 -->
<g id="edge2" class="edge">
<title>course__PHYS102A&#45;&gt;course__EOS210</title>
<path fill="none" stroke="#5d6972" stroke-width="1.2" d="M226.06,-321.2C243,-321.95 262.06,-322.79 279.42,-323.56"/>
<polygon fill="#5d6972" stroke="#5d6972" stroke-width="1.2" points="279.64,-326.02 286.74,-323.88 279.85,-321.13 279.64,-326.02"/>
</g>
<!-- course__PHYS102A&#45;&gt;course__PHYS102B -->
<g id="edge9" class="edge">
<title>course__PHYS102A&#45;&gt;course__PHYS102B</title>
<path fill="none" stroke="#5d6972" stroke-width="1.2" d="M226.06,-303.63C249.25,-296.44 276.39,-288.02 297.72,-281.41"/>
<polygon fill="#5d6972" stroke="#5d6972" stroke-width="1.2" points="298.47,-283.74 304.43,-279.33 297.02,-279.06 298.47,-283.74"/>
</g>
<!-- course__CIVE210 -->
<g id="node5" class="node">
<title>course__CIVE210</title>
<g id="a_node5"><a xlink:href="../../../courses/CIVE210.html" xlink:title="CIVE210: Sustainability in Civil Engineering" target="_top">
<path fill="#f2ece3" stroke="#1b2730" stroke-width="1.6" d="M519.5,-540C519.5,-540 486.5,-540 486.5,-540 480.5,-540 474.5,-534 474.5,-528 474.5,-528 474.5,-516 474.5,-516 474.5,-510 480.5,-504 486.5,-504 486.5,-504 519.5,-504 519.5,-504 525.5,-504 531.5,-510 531.5,-516 531.5,-516 531.5,-528 531.5,-528 531.5,-534 525.5,-540 519.5,-540"/>
<text text-anchor="middle" x="503" y="-519.5" font-family="Avenir Next" font-size="10.00" fill="#17232b">CIVE210</text>
</a>
</g>
</g>
<!-- course__PHYS102B&#45;&gt;course__CIVE210 -->
<g id="edge1" class="edge">
<title>course__PHYS102B&#45;&gt;course__CIVE210</title>
<path fill="none" stroke="#5d6972" stroke-width="1.2" d="M366.73,-283.3C373.14,-287.26 379.36,-292.15 384,-298 440.65,-369.51 385.67,-424.69 445,-494 451.11,-501.14 459.48,-506.63 467.92,-510.78"/>
<polygon fill="#5d6972" stroke="#5d6972" stroke-width="1.2" points="466.96,-513.04 474.35,-513.69 468.98,-508.57 466.96,-513.04"/>
</g>
<!-- course__EOS311 -->
<g id="node6" class="node">
<title>course__EOS311</title>
<g id="a_node6"><a xlink:href="../../../courses/EOS311.html" xlink:title="Equivalent or cross&#45;listed: BIOL311: Biological Oceanography | EOS311: Biological Oceanography" target="_top">
<path fill="#d7e9ef" stroke="#1b2730" stroke-width="1.6" d="M543,-484C543,-484 463,-484 463,-484 457,-484 451,-478 451,-472 451,-472 451,-460 451,-460 451,-454 457,-448 463,-448 463,-448 543,-448 543,-448 549,-448 555,-454 555,-460 555,-460 555,-472 555,-472 555,-478 549,-484 543,-484"/>
<text text-anchor="middle" x="503" y="-463.5" font-family="Avenir Next" font-size="10.00" fill="#17232b">BIOL311 / EOS311</text>
</a>
</g>
</g>
<!-- course__PHYS102B&#45;&gt;course__EOS311 -->
<g id="edge3" class="edge">
<title>course__PHYS102B&#45;&gt;course__EOS311</title>
<path fill="none" stroke="#5d6972" stroke-width="1.2" d="M366.77,-283.98C373.03,-287.87 379.18,-292.55 384,-298 428.98,-348.82 398.12,-388.92 445,-438 446.9,-439.99 448.97,-441.86 451.17,-443.61"/>
<polygon fill="#5d6972" stroke="#5d6972" stroke-width="1.2" points="450.11,-445.87 457.22,-447.98 452.97,-441.89 450.11,-445.87"/>
</g>
<!-- course__EOS314 -->
<g id="node7" class="node">
<title>course__EOS314</title>
<g id="a_node7"><a xlink:href="../../../courses/EOS314.html" xlink:title="EOS314: Descriptive Physical Oceanography" target="_top">
<path fill="#d7e9ef" stroke="#1b2730" stroke-width="1.6" d="M518,-428C518,-428 488,-428 488,-428 482,-428 476,-422 476,-416 476,-416 476,-404 476,-404 476,-398 482,-392 488,-392 488,-392 518,-392 518,-392 524,-392 530,-398 530,-404 530,-404 530,-416 530,-416 530,-422 524,-428 518,-428"/>
<text text-anchor="middle" x="503" y="-407.5" font-family="Avenir Next" font-size="10.00" fill="#17232b">EOS314</text>
</a>
</g>
</g>
<!-- course__PHYS102B&#45;&gt;course__EOS314 -->
<g id="edge4" class="edge">
<title>course__PHYS102B&#45;&gt;course__EOS314</title>
<path fill="none" stroke="#5d6972" stroke-width="1.2" d="M366.94,-285.42C372.91,-289.12 378.9,-293.36 384,-298 418.14,-329.03 409.7,-352.29 445,-382 452.19,-388.05 460.92,-393.18 469.35,-397.33"/>
<polygon fill="#5d6972" stroke="#5d6972" stroke-width="1.2" points="468.34,-399.56 475.72,-400.31 470.42,-395.12 468.34,-399.56"/>
</g>
<!-- course__EOS340 -->
<g id="node8" class="node">
<title>course__EOS340</title>
<g id="a_node8"><a xlink:href="../../../courses/EOS340.html" xlink:title="Equivalent or cross&#45;listed: EOS340: Atmospheric Physics | PHYS340: Atmospheric Physics" target="_top">
<path fill="#d7e9ef" stroke="#1b2730" stroke-width="1.6" d="M544.5,-372C544.5,-372 461.5,-372 461.5,-372 455.5,-372 449.5,-366 449.5,-360 449.5,-360 449.5,-348 449.5,-348 449.5,-342 455.5,-336 461.5,-336 461.5,-336 544.5,-336 544.5,-336 550.5,-336 556.5,-342 556.5,-348 556.5,-348 556.5,-360 556.5,-360 556.5,-366 550.5,-372 544.5,-372"/>
<text text-anchor="middle" x="503" y="-351.5" font-family="Avenir Next" font-size="10.00" fill="#17232b">EOS340 / PHYS340</text>
</a>
</g>
</g>
<!-- course__PHYS102B&#45;&gt;course__EOS340 -->
<g id="edge5" class="edge">
<title>course__PHYS102B&#45;&gt;course__EOS340</title>
<path fill="none" stroke="#5d6972" stroke-width="1.2" d="M366.82,-285.85C388.53,-297.15 418.49,-312.65 445,-326 449.3,-328.17 453.79,-330.41 458.29,-332.64"/>
<polygon fill="#5d6972" stroke="#5d6972" stroke-width="1.2" points="457.49,-334.97 464.85,-335.88 459.66,-330.58 457.49,-334.97"/>
</g>
<!-- course__EOS431 -->
<g id="node9" class="node">
<title>course__EOS431</title>
<g id="a_node9"><a xlink:href="../../../courses/EOS431.html" xlink:title="Equivalent or cross&#45;listed: EOS431: Physical Oceanography | PHYS441: Physical Oceanography" target="_top">
<path fill="#d7e9ef" stroke="#1b2730" stroke-width="1.6" d="M544.5,-316C544.5,-316 461.5,-316 461.5,-316 455.5,-316 449.5,-310 449.5,-304 449.5,-304 449.5,-292 449.5,-292 449.5,-286 455.5,-280 461.5,-280 461.5,-280 544.5,-280 544.5,-280 550.5,-280 556.5,-286 556.5,-292 556.5,-292 556.5,-304 556.5,-304 556.5,-310 550.5,-316 544.5,-316"/>
<text text-anchor="middle" x="503" y="-295.5" font-family="Avenir Next" font-size="10.00" fill="#17232b">EOS431 / PHYS441</text>
</a>
</g>
</g>
<!-- course__PHYS102B&#45;&gt;course__EOS431 -->
<g id="edge6" class="edge">
<title>course__PHYS102B&#45;&gt;course__EOS431</title>
<path fill="none" stroke="#5d6972" stroke-width="1.2" d="M366.86,-275.14C387.92,-278.7 416.69,-283.57 442.27,-287.89"/>
<polygon fill="#5d6972" stroke="#5d6972" stroke-width="1.2" points="442.08,-290.35 449.39,-289.1 442.9,-285.52 442.08,-290.35"/>
</g>
<!-- course__MATH248 -->
<g id="node10" class="node">
<title>course__MATH248</title>
<g id="a_node10"><a xlink:href="../../../courses/MATH248.html" xlink:title="Equivalent or cross&#45;listed: MATH248: Computer Assisted Mathematics | PHYS248: Computer Assisted Physics" target="_top">
<path fill="#dfe3f4" stroke="#1b2730" stroke-width="1.6" d="M549,-260C549,-260 457,-260 457,-260 451,-260 445,-254 445,-248 445,-248 445,-236 445,-236 445,-230 451,-224 457,-224 457,-224 549,-224 549,-224 555,-224 561,-230 561,-236 561,-236 561,-248 561,-248 561,-254 555,-260 549,-260"/>
<text text-anchor="middle" x="503" y="-239.5" font-family="Avenir Next" font-size="10.00" fill="#17232b">MATH248 / PHYS248</text>
</a>
</g>
</g>
<!-- course__PHYS102B&#45;&gt;course__MATH248 -->
<g id="edge7" class="edge">
<title>course__PHYS102B&#45;&gt;course__MATH248</title>
<path fill="none" stroke="#5d6972" stroke-width="1.2" d="M366.86,-264.86C386.64,-261.52 413.23,-257.02 437.58,-252.9"/>
<polygon fill="#5d6972" stroke="#5d6972" stroke-width="1.2" points="438.22,-255.28 444.71,-251.69 437.4,-250.44 438.22,-255.28"/>
</g>
<!-- course__PHYS215 -->
<g id="node11" class="node">
<title>course__PHYS215</title>
<g id="a_node11"><a xlink:href="../../../courses/PHYS215.html" xlink:title="PHYS215: Introductory Quantum Physics" target="_top">
<path fill="#efd8cf" stroke="#1b2730" stroke-width="1.6" d="M521,-204C521,-204 485,-204 485,-204 479,-204 473,-198 473,-192 473,-192 473,-180 473,-180 473,-174 479,-168 485,-168 485,-168 521,-168 521,-168 527,-168 533,-174 533,-180 533,-180 533,-192 533,-192 533,-198 527,-204 521,-204"/>
<text text-anchor="middle" x="503" y="-183.5" font-family="Avenir Next" font-size="10.00" fill="#17232b">PHYS215</text>
</a>
</g>
</g>
<!-- course__PHYS102B&#45;&gt;course__PHYS215 -->
<g id="edge11" class="edge">
<title>course__PHYS102B&#45;&gt;course__PHYS215</title>
<path fill="none" stroke="#5d6972" stroke-width="1.2" d="M366.82,-254.15C388.53,-242.85 418.49,-227.35 445,-214 451.94,-210.51 459.37,-206.82 466.5,-203.3"/>
<polygon fill="#5d6972" stroke="#5d6972" stroke-width="1.2" points="467.75,-205.42 472.95,-200.13 465.58,-201.02 467.75,-205.42"/>
</g>
<!-- course__PHYS216 -->
<g id="node12" class="node">
<title>course__PHYS216</title>
<g id="a_node12"><a xlink:href="../../../courses/PHYS216.html" xlink:title="PHYS216: Introductory Electricity and Magnetism" target="_top">
<path fill="#efd8cf" stroke="#1b2730" stroke-width="1.6" d="M521,-148C521,-148 485,-148 485,-148 479,-148 473,-142 473,-136 473,-136 473,-124 473,-124 473,-118 479,-112 485,-112 485,-112 521,-112 521,-112 527,-112 533,-118 533,-124 533,-124 533,-136 533,-136 533,-142 527,-148 521,-148"/>
<text text-anchor="middle" x="503" y="-127.5" font-family="Avenir Next" font-size="10.00" fill="#17232b">PHYS216</text>
</a>
</g>
</g>
<!-- course__PHYS102B&#45;&gt;course__PHYS216 -->
<g id="edge12" class="edge">
<title>course__PHYS102B&#45;&gt;course__PHYS216</title>
<path fill="none" stroke="#5d6972" stroke-width="1.2" d="M350.71,-251.83C370.05,-227.97 406.69,-185.87 445,-158 451.48,-153.28 458.89,-148.99 466.16,-145.25"/>
<polygon fill="#5d6972" stroke="#5d6972" stroke-width="1.2" points="467.58,-147.28 472.77,-141.98 465.41,-142.89 467.58,-147.28"/>
</g>
<!-- course__PHYS217 -->
<g id="node13" class="node">
<title>course__PHYS217</title>
<g id="a_node13"><a xlink:href="../../../courses/PHYS217.html" xlink:title="Equivalent or cross&#45;listed: PHYS217: Introductory Thermodynamics | PHYS317: Thermodynamics" target="_top">
<path fill="#efd8cf" stroke="#1b2730" stroke-width="1.6" d="M547.5,-92C547.5,-92 458.5,-92 458.5,-92 452.5,-92 446.5,-86 446.5,-80 446.5,-80 446.5,-68 446.5,-68 446.5,-62 452.5,-56 458.5,-56 458.5,-56 547.5,-56 547.5,-56 553.5,-56 559.5,-62 559.5,-68 559.5,-68 559.5,-80 559.5,-80 559.5,-86 553.5,-92 547.5,-92"/>
<text text-anchor="middle" x="503" y="-71.5" font-family="Avenir Next" font-size="10.00" fill="#17232b">PHYS217 / PHYS317</text>
</a>
</g>
</g>
<!-- course__PHYS102B&#45;&gt;course__PHYS217 -->
<g id="edge13" class="edge">
<title>course__PHYS102B&#45;&gt;course__PHYS217</title>
<path fill="none" stroke="#5d6972" stroke-width="1.2" d="M344.23,-251.8C359.25,-218.28 395.32,-146.19 445,-102 447.32,-99.94 449.81,-97.99 452.42,-96.16"/>
<polygon fill="#5d6972" stroke="#5d6972" stroke-width="1.2" points="454.14,-97.96 458.68,-92.1 451.47,-93.86 454.14,-97.96"/>
</g>
<!-- course__PHYS229 -->
<g id="node14" class="node">
<title>course__PHYS229</title>
<g id="a_node14"><a xlink:href="../../../courses/PHYS229.html" xlink:title="PHYS229: Introduction to Experimental Physics" target="_top">
<path fill="#efd8cf" stroke="#1b2730" stroke-width="1.6" d="M521,-36C521,-36 485,-36 485,-36 479,-36 473,-30 473,-24 473,-24 473,-12 473,-12 473,-6 479,0 485,0 485,0 521,0 521,0 527,0 533,-6 533,-12 533,-12 533,-24 533,-24 533,-30 527,-36 521,-36"/>
<text text-anchor="middle" x="503" y="-15.5" font-family="Avenir Next" font-size="10.00" fill="#17232b">PHYS229</text>
</a>
</g>
</g>
<!-- course__PHYS102B&#45;&gt;course__PHYS229 -->
<g id="edge14" class="edge">
<title>course__PHYS102B&#45;&gt;course__PHYS229</title>
<path fill="none" stroke="#5d6972" stroke-width="1.2" d="M340.89,-251.95C351.8,-210.55 383.76,-107.58 445,-46 451.07,-39.89 458.75,-34.9 466.48,-30.92"/>
<polygon fill="#5d6972" stroke="#5d6972" stroke-width="1.2" points="467.71,-33.05 472.96,-27.81 465.59,-28.63 467.71,-33.05"/>
</g>
<!-- course__PHYS321A -->
<g id="node15" class="node">
<title>course__PHYS321A</title>
<g id="a_node15"><a xlink:href="../../../courses/PHYS321A.html" xlink:title="PHYS321A: Classical Mechanics I" target="_top">
<path fill="#efd8cf" stroke="#1b2730" stroke-width="1.6" d="M677,-260C677,-260 634,-260 634,-260 628,-260 622,-254 622,-248 622,-248 622,-236 622,-236 622,-230 628,-224 634,-224 634,-224 677,-224 677,-224 683,-224 689,-230 689,-236 689,-236 689,-248 689,-248 689,-254 683,-260 677,-260"/>
<text text-anchor="middle" x="655.5" y="-239.5" font-family="Avenir Next" font-size="10.00" fill="#17232b">PHYS321A</text>
</a>
</g>
</g>
<!-- course__MATH248&#45;&gt;course__PHYS321A -->
<g id="edge15" class="edge">
<title>course__MATH248&#45;&gt;course__PHYS321A</title>
<path fill="none" stroke="#5d6972" stroke-width="1.2" d="M561.33,-242C579.05,-242 598.18,-242 614.46,-242"/>
<polygon fill="#5d6972" stroke="#5d6972" stroke-width="1.2" points="614.73,-244.45 621.73,-242 614.73,-239.55 614.73,-244.45"/>
</g>
</g>
</svg>
