<?xml version="1.0" encoding="UTF-8" standalone="no"?>
<!DOCTYPE svg PUBLIC "-//W3C//DTD SVG 1.1//EN"
 "http://www.w3.org/Graphics/SVG/1.1/DTD/svg11.dtd">
<!-- Generated by graphviz version 2.43.0 (0)
 -->
<!-- Title: PHYS110 Pages: 1 -->
<svg width="1811pt" height="1223pt"
 viewBox="0.00 0.00 1811.20 1223.41" xmlns="http://www.w3.org/2000/svg" xmlns:xlink="http://www.w3.org/1999/xlink">
<g id="graph0" class="graph" transform="scale(1 1) rotate(0) translate(21.6 1201.81)">
<title>PHYS110</title>
<!-- course__MATH100 -->
<g id="node1" class="node">
<title>course__MATH100</title>
<g id="a_node1"><a xlink:href="../../../courses/MATH100.html" xlink:title="Equivalent or cross&#45;listed: MATH100: Calculus I | MATH102: Calculus for Students in the Social and Biological Sciences | MATH109: Introduction to Calculus" target="_top">
<path fill="#dfe3f4" stroke="#1b2730" stroke-width="1.6" d="M107,-940.21C107,-940.21 12,-940.21 12,-940.21 6,-940.21 0,-934.21 0,-928.21 0,-928.21 0,-916.21 0,-916.21 0,-910.21 6,-904.21 12,-904.21 12,-904.21 107,-904.21 107,-904.21 113,-904.21 119,-910.21 119,-916.21 119,-916.21 119,-928.21 119,-928.21 119,-934.21 113,-940.21 107,-940.21"/>
<text text-anchor="middle" x="59.5" y="-925.21" font-family="Avenir Next" font-size="10.00" fill="#17232b">MATH100 / MATH102</text>
<text text-anchor="middle" x="59.5" y="-914.21" font-family="Avenir Next" font-size="10.00" fill="#17232b">MATH109</text>
</a>
</g>
</g>
<!-- course__PHYS110 -->
<g id="node2" class="node">
<title>course__PHYS110</title>
<g id="a_node2"><a xlink:href="../../../courses/PHYS110.html" xlink:title="Equivalent or cross&#45;listed: PHYS110: Introductory Physics I | PHYS120: Physics I" target="_top">
<path fill="#efd8cf" stroke="#1f4f66" stroke-width="2" d="M290,-860.21C290,-860.21 192,-860.21 192,-860.21 186,-860.21 180,-854.21 180,-848.21 180,-848.21 180,-836.21 180,-836.21 180,-830.21 186,-824.21 192,-824.21 192,-824.21 290,-824.21 290,-824.21 296,-824.21 302,-830.21 302,-836.21 302,-836.21 302,-848.21 302,-848.21 302,-854.21 296,-860.21 290,-860.21"/>
<text text-anchor="middle" x="241" y="-845.21" font-family="Avenir Next" font-size="10.00" fill="#17232b">PHYS110 / PHYS120</text>
<text text-anchor="middle" x="241" y="-834.21" font-family="Avenir Next" font-size="10.00" fill="#17232b">Introductory Physics I</text>
</a>
</g>
</g>
<!-- course__MATH100&#45;&gt;course__PHYS110 -->
<g id="edge72" class="edge">
<title>course__MATH100&#45;&gt;course__PHYS110</title>
<path fill="none" stroke="#5d6972" stroke-width="1.2" d="M101.23,-904.05C128.43,-891.93 164.29,-875.95 192.74,-863.27"/>
<polygon fill="#5d6972" stroke="#5d6972" stroke-width="1.2" points="194.03,-865.38 199.43,-860.29 192.04,-860.9 194.03,-865.38"/>
</g>
<!-- course__PHYS111 -->
<g id="node5" class="node">
<title>course__PHYS111</title>
<g id="a_node5"><a xlink:href="../../../courses/PHYS111.html" xlink:title="Equivalent or cross&#45;listed: PHYS111: Introductory Physics II | PHYS130: Physics II" target="_top">
<path fill="#efd8cf" stroke="#1b2730" stroke-width="1.6" d="M464,-684.21C464,-684.21 375,-684.21 375,-684.21 369,-684.21 363,-678.21 363,-672.21 363,-672.21 363,-660.21 363,-660.21 363,-654.21 369,-648.21 375,-648.21 375,-648.21 464,-648.21 464,-648.21 470,-648.21 476,-654.21 476,-660.21 476,-660.21 476,-672.21 476,-672.21 476,-678.21 470,-684.21 464,-684.21"/>
<text text-anchor="middle" x="419.5" y="-663.71" font-family="Avenir Next" font-size="10.00" fill="#17232b">PHYS111 / PHYS130</text>
</a>
</g>
</g>
<!-- course__MATH100&#45;&gt;course__PHYS111 -->
<g id="edge74" class="edge">
<title>course__MATH100&#45;&gt;course__PHYS111</title>
<path fill="none" stroke="#5d6972" stroke-width="1.2" d="M78.64,-903.9C101.31,-881.49 141.79,-842.96 180,-814.21 246.52,-764.15 330.46,-714.99 378.96,-687.83"/>
<polygon fill="#5d6972" stroke="#5d6972" stroke-width="1.2" points="380.35,-689.86 385.27,-684.3 377.96,-685.58 380.35,-689.86"/>
</g>
<!-- course__EOS261 -->
<g id="node7" class="node">
<title>course__EOS261</title>
<g id="a_node7"><a xlink:href="../../../courses/EOS261.html" xlink:title="EOS261: The Climate System" target="_top">
<path fill="#d7e9ef" stroke="#7e8d96" d="M725,-974.21C725,-974.21 695,-974.21 695,-974.21 689,-974.21 683,-968.21 683,-962.21 683,-962.21 683,-950.21 683,-950.21 683,-944.21 689,-938.21 695,-938.21 695,-938.21 725,-938.21 725,-938.21 731,-938.21 737,-944.21 737,-950.21 737,-950.21 737,-962.21 737,-962.21 737,-968.21 731,-974.21 725,-974.21"/>
<text text-anchor="middle" x="710" y="-954.01" font-family="Avenir Next" font-size="9.00" fill="#41515b">EOS261</text>
</a>
</g>
</g>
<!-- course__MATH100&#45;&gt;course__EOS261 -->
<g id="edge9" class="edge">
<title>course__MATH100&#45;&gt;course__EOS261</title>
<path fill="none" stroke="#5d6972" stroke-width="1.2" d="M119.19,-925.28C251.95,-932.24 571.79,-949.01 675.75,-954.46"/>
<polygon fill="#5d6972" stroke="#5d6972" stroke-width="1.2" points="675.74,-956.92 682.86,-954.84 675.99,-952.02 675.74,-956.92"/>
</g>
<!-- course__EOS311 -->
<g id="node8" class="node">
<title>course__EOS311</title>
<g id="a_node8"><a xlink:href="../../../courses/EOS311.html" xlink:title="Equivalent or cross&#45;listed: BIOL311: Biological Oceanography | EOS311: Biological Oceanography" target="_top">
<path fill="#d7e9ef" stroke="#1b2730" stroke-width="1.6" d="M750,-708.21C750,-708.21 670,-708.21 670,-708.21 664,-708.21 658,-702.21 658,-696.21 658,-696.21 658,-684.21 658,-684.21 658,-678.21 664,-672.21 670,-672.21 670,-672.21 750,-672.21 750,-672.21 756,-672.21 762,-678.21 762,-684.21 762,-684.21 762,-696.21 762,-696.21 762,-702.21 756,-708.21 750,-708.21"/>
<text text-anchor="middle" x="710" y="-687.71" font-family="Avenir Next" font-size="10.00" fill="#17232b">BIOL311 / EOS311</text>
</a>
</g>
</g>
<!-- course__MATH100&#45;&gt;course__EOS311 -->
<g id="edge12" class="edge">
<title>course__MATH100&#45;&gt;course__EOS311</title>
<path fill="none" stroke="#5d6972" stroke-width="1.2" d="M67.71,-903.94C83.19,-866.73 122.9,-781.23 180,-729.21 309.21,-611.48 365.73,-599.11 537,-564.21 560.52,-559.41 568.98,-554.66 591,-564.21 638.75,-584.91 676.01,-635.5 695.05,-665.91"/>
<polygon fill="#5d6972" stroke="#5d6972" stroke-width="1.2" points="693.08,-667.38 698.83,-672.07 697.26,-664.82 693.08,-667.38"/>
</g>
<!-- course__EOS314 -->
<g id="node9" class="node">
<title>course__EOS314</title>
<g id="a_node9"><a xlink:href="../../../courses/EOS314.html" xlink:title="EOS314: Descriptive Physical Oceanography" target="_top">
<path fill="#d7e9ef" stroke="#1b2730" stroke-width="1.6" d="M725,-1114.21C725,-1114.21 695,-1114.21 695,-1114.21 689,-1114.21 683,-1108.21 683,-1102.21 683,-1102.21 683,-1090.21 683,-1090.21 683,-1084.21 689,-1078.21 695,-1078.21 695,-1078.21 725,-1078.21 725,-1078.21 731,-1078.21 737,-1084.21 737,-1090.21 737,-1090.21 737,-1102.21 737,-1102.21 737,-1108.21 731,-1114.21 725,-1114.21"/>
<text text-anchor="middle" x="710" y="-1093.71" font-family="Avenir Next" font-size="10.00" fill="#17232b">EOS314</text>
</a>
</g>
</g>
<!-- course__MATH100&#45;&gt;course__EOS314 -->
<g id="edge20" class="edge">
<title>course__MATH100&#45;&gt;course__EOS314</title>
<path fill="none" stroke="#5d6972" stroke-width="1.2" d="M99.24,-940.39C155.93,-966.28 265.38,-1013.59 363,-1040.21 475.55,-1070.89 613.56,-1087.02 675.79,-1093.19"/>
<polygon fill="#5d6972" stroke="#5d6972" stroke-width="1.2" points="675.79,-1095.65 682.99,-1093.89 676.26,-1090.78 675.79,-1095.65"/>
</g>
<!-- course__EOS312 -->
<g id="node39" class="node">
<title>course__EOS312</title>
<g id="a_node39"><a xlink:href="../../../courses/EOS312.html" xlink:title="EOS312: Introductory Chemical Oceanography" target="_top">
<path fill="#d7e9ef" stroke="#7e8d96" d="M1515.5,-1109.21C1515.5,-1109.21 1485.5,-1109.21 1485.5,-1109.21 1479.5,-1109.21 1473.5,-1103.21 1473.5,-1097.21 1473.5,-1097.21 1473.5,-1085.21 1473.5,-1085.21 1473.5,-1079.21 1479.5,-1073.21 1485.5,-1073.21 1485.5,-1073.21 1515.5,-1073.21 1515.5,-1073.21 1521.5,-1073.21 1527.5,-1079.21 1527.5,-1085.21 1527.5,-1085.21 1527.5,-1097.21 1527.5,-1097.21 1527.5,-1103.21 1521.5,-1109.21 1515.5,-1109.21"/>
<text text-anchor="middle" x="1500.5" y="-1089.01" font-family="Avenir Next" font-size="9.00" fill="#41515b">EOS312</text>
</a>
</g>
</g>
<!-- course__MATH100&#45;&gt;course__EOS312 -->
<g id="edge17" class="edge">
<title>course__MATH100&#45;&gt;course__EOS312</title>
<path fill="none" stroke="#5d6972" stroke-width="1.2" d="M72.72,-940.35C113.88,-999.07 254.17,-1180.21 418.5,-1180.21 418.5,-1180.21 418.5,-1180.21 1241.5,-1180.21 1326.75,-1180.21 1419.61,-1136.24 1467.27,-1110.11"/>
<polygon fill="#5d6972" stroke="#5d6972" stroke-width="1.2" points="1468.48,-1112.25 1473.41,-1106.71 1466.11,-1107.96 1468.48,-1112.25"/>
</g>
<!-- course__EOS210 -->
<g id="node3" class="node">
<title>course__EOS210</title>
<g id="a_node3"><a xlink:href="../../../courses/EOS210.html" xlink:title="Equivalent or cross&#45;listed: EOS210: Introductory Geophysics | PHYS210: Introductory Geophysics" target="_top">
<path fill="#d7e9ef" stroke="#1b2730" stroke-width="1.6" d="M461,-1030.21C461,-1030.21 378,-1030.21 378,-1030.21 372,-1030.21 366,-1024.21 366,-1018.21 366,-1018.21 366,-1006.21 366,-1006.21 366,-1000.21 372,-994.21 378,-994.21 378,-994.21 461,-994.21 461,-994.21 467,-994.21 473,-1000.21 473,-1006.21 473,-1006.21 473,-1018.21 473,-1018.21 473,-1024.21 467,-1030.21 461,-1030.21"/>
<text text-anchor="middle" x="419.5" y="-1009.71" font-family="Avenir Next" font-size="10.00" fill="#17232b">EOS210 / PHYS210</text>
</a>
</g>
</g>
<!-- course__PHYS110&#45;&gt;course__EOS210 -->
<g id="edge5" class="edge">
<title>course__PHYS110&#45;&gt;course__EOS210</title>
<path fill="none" stroke="#5d6972" stroke-width="1.2" d="M260.89,-860.4C293.13,-891.46 358.76,-954.66 394.31,-988.91"/>
<polygon fill="#5d6972" stroke="#5d6972" stroke-width="1.2" points="393.01,-991.05 399.75,-994.14 396.41,-987.52 393.01,-991.05"/>
</g>
<!-- course__PHYS102B -->
<g id="node4" class="node">
<title>course__PHYS102B</title>
<g id="a_node4"><a xlink:href="../../../courses/PHYS102B.html" xlink:title="PHYS102B: General Physics II" target="_top">
<path fill="#efd8cf" stroke="#1b2730" stroke-width="1.6" d="M441,-820.21C441,-820.21 398,-820.21 398,-820.21 392,-820.21 386,-814.21 386,-808.21 386,-808.21 386,-796.21 386,-796.21 386,-790.21 392,-784.21 398,-784.21 398,-784.21 441,-784.21 441,-784.21 447,-784.21 453,-790.21 453,-796.21 453,-796.21 453,-808.21 453,-808.21 453,-814.21 447,-820.21 441,-820.21"/>
<text text-anchor="middle" x="419.5" y="-799.71" font-family="Avenir Next" font-size="10.00" fill="#17232b">PHYS102B</text>
</a>
</g>
</g>
<!-- course__PHYS110&#45;&gt;course__PHYS102B -->
<g id="edge71" class="edge">
<title>course__PHYS110&#45;&gt;course__PHYS102B</title>
<path fill="none" stroke="#5d6972" stroke-width="1.2" d="M302.25,-828.55C327.48,-822.83 356.12,-816.34 378.66,-811.24"/>
<polygon fill="#5d6972" stroke="#5d6972" stroke-width="1.2" points="379.46,-813.57 385.75,-809.63 378.38,-808.79 379.46,-813.57"/>
</g>
<!-- course__PHYS110&#45;&gt;course__PHYS111 -->
<g id="edge73" class="edge">
<title>course__PHYS110&#45;&gt;course__PHYS111</title>
<path fill="none" stroke="#5d6972" stroke-width="1.2" d="M260.22,-824.03C292.54,-791.81 359.84,-724.7 395.37,-689.27"/>
<polygon fill="#5d6972" stroke="#5d6972" stroke-width="1.2" points="397.15,-690.96 400.38,-684.28 393.69,-687.49 397.15,-690.96"/>
</g>
<!-- choice_EOS321_0_1_0 -->
<g id="node52" class="node">
<title>choice_EOS321_0_1_0</title>
<path fill="#fff7ee" stroke="#b7793f" stroke-width="1.1" d="M871,-1065.21C871,-1065.21 841,-1065.21 841,-1065.21 835,-1065.21 829,-1059.21 829,-1053.21 829,-1053.21 829,-1041.21 829,-1041.21 829,-1035.21 835,-1029.21 841,-1029.21 841,-1029.21 871,-1029.21 871,-1029.21 877,-1029.21 883,-1035.21 883,-1041.21 883,-1041.21 883,-1053.21 883,-1053.21 883,-1059.21 877,-1065.21 871,-1065.21"/>
<text text-anchor="middle" x="856" y="-1045.01" font-family="Avenir Next" font-size="9.00">1 of</text>
</g>
<!-- course__EOS210&#45;&gt;choice_EOS321_0_1_0 -->
<g id="edge23" class="edge">
<title>course__EOS210&#45;&gt;choice_EOS321_0_1_0</title>
<path fill="none" stroke="#7a8389" d="M473.34,-1016.46C563.98,-1023.76 746.54,-1038.47 821.6,-1044.52"/>
<polygon fill="#7a8389" stroke="#7a8389" points="821.77,-1046.99 828.95,-1045.11 822.17,-1042.1 821.77,-1046.99"/>
</g>
<!-- choice_EOS325_0_2_0 -->
<g id="node54" class="node">
<title>choice_EOS325_0_2_0</title>
<path fill="#fff7ee" stroke="#b7793f" stroke-width="1.1" d="M871,-1009.21C871,-1009.21 841,-1009.21 841,-1009.21 835,-1009.21 829,-1003.21 829,-997.21 829,-997.21 829,-985.21 829,-985.21 829,-979.21 835,-973.21 841,-973.21 841,-973.21 871,-973.21 871,-973.21 877,-973.21 883,-979.21 883,-985.21 883,-985.21 883,-997.21 883,-997.21 883,-1003.21 877,-1009.21 871,-1009.21"/>
<text text-anchor="middle" x="856" y="-989.01" font-family="Avenir Next" font-size="9.00">1 of</text>
</g>
<!-- course__EOS210&#45;&gt;choice_EOS325_0_2_0 -->
<g id="edge29" class="edge">
<title>course__EOS210&#45;&gt;choice_EOS325_0_2_0</title>
<path fill="none" stroke="#7a8389" d="M473.34,-1009.65C563.98,-1005.27 746.54,-996.45 821.6,-992.82"/>
<polygon fill="#7a8389" stroke="#7a8389" points="822.08,-995.25 828.95,-992.47 821.84,-990.36 822.08,-995.25"/>
</g>
<!-- choice_EOS261_0_2 -->
<g id="node48" class="node">
<title>choice_EOS261_0_2</title>
<path fill="#fff7ee" stroke="#b7793f" stroke-width="1.1" d="M579,-876.21C579,-876.21 549,-876.21 549,-876.21 543,-876.21 537,-870.21 537,-864.21 537,-864.21 537,-852.21 537,-852.21 537,-846.21 543,-840.21 549,-840.21 549,-840.21 579,-840.21 579,-840.21 585,-840.21 591,-846.21 591,-852.21 591,-852.21 591,-864.21 591,-864.21 591,-870.21 585,-876.21 579,-876.21"/>
<text text-anchor="middle" x="564" y="-856.01" font-family="Avenir Next" font-size="9.00">1 of</text>
</g>
<!-- course__PHYS102B&#45;&gt;choice_EOS261_0_2 -->
<g id="edge7" class="edge">
<title>course__PHYS102B&#45;&gt;choice_EOS261_0_2</title>
<path fill="none" stroke="#7a8389" d="M453.19,-815.05C476.23,-824.11 506.96,-836.18 530.05,-845.26"/>
<polygon fill="#7a8389" stroke="#7a8389" points="529.24,-847.57 536.65,-847.85 531.03,-843.01 529.24,-847.57"/>
</g>
<!-- choice_EOS311_0_3 -->
<g id="node49" class="node">
<title>choice_EOS311_0_3</title>
<path fill="#fff7ee" stroke="#b7793f" stroke-width="1.1" d="M579,-708.21C579,-708.21 549,-708.21 549,-708.21 543,-708.21 537,-702.21 537,-696.21 537,-696.21 537,-684.21 537,-684.21 537,-678.21 543,-672.21 549,-672.21 549,-672.21 579,-672.21 579,-672.21 585,-672.21 591,-678.21 591,-684.21 591,-684.21 591,-696.21 591,-696.21 591,-702.21 585,-708.21 579,-708.21"/>
<text text-anchor="middle" x="564" y="-688.01" font-family="Avenir Next" font-size="9.00">1 of</text>
</g>
<!-- course__PHYS102B&#45;&gt;choice_EOS311_0_3 -->
<g id="edge10" class="edge">
<title>course__PHYS102B&#45;&gt;choice_EOS311_0_3</title>
<path fill="none" stroke="#7a8389" d="M443.71,-783.96C468.35,-764.6 507.33,-733.96 533.97,-713.02"/>
<polygon fill="#7a8389" stroke="#7a8389" points="535.81,-714.69 539.8,-708.44 532.78,-710.84 535.81,-714.69"/>
</g>
<!-- choice_EOS314_0_1 -->
<g id="node51" class="node">
<title>choice_EOS314_0_1</title>
<path fill="#fff7ee" stroke="#b7793f" stroke-width="1.1" d="M579,-932.21C579,-932.21 549,-932.21 549,-932.21 543,-932.21 537,-926.21 537,-920.21 537,-920.21 537,-908.21 537,-908.21 537,-902.21 543,-896.21 549,-896.21 549,-896.21 579,-896.21 579,-896.21 585,-896.21 591,-902.21 591,-908.21 591,-908.21 591,-920.21 591,-920.21 591,-926.21 585,-932.21 579,-932.21"/>
<text text-anchor="middle" x="564" y="-912.01" font-family="Avenir Next" font-size="9.00">1 of</text>
</g>
<!-- course__PHYS102B&#45;&gt;choice_EOS314_0_1 -->
<g id="edge18" class="edge">
<title>course__PHYS102B&#45;&gt;choice_EOS314_0_1</title>
<path fill="none" stroke="#7a8389" d="M443.71,-820.45C468.35,-839.81 507.33,-870.45 533.97,-891.39"/>
<polygon fill="#7a8389" stroke="#7a8389" points="532.78,-893.57 539.8,-895.97 535.81,-889.72 532.78,-893.57"/>
</g>
<!-- choice_EOS325_0_1 -->
<g id="node53" class="node">
<title>choice_EOS325_0_1</title>
<path fill="#fff7ee" stroke="#b7793f" stroke-width="1.1" d="M579,-820.21C579,-820.21 549,-820.21 549,-820.21 543,-820.21 537,-814.21 537,-808.21 537,-808.21 537,-796.21 537,-796.21 537,-790.21 543,-784.21 549,-784.21 549,-784.21 579,-784.21 579,-784.21 585,-784.21 591,-790.21 591,-796.21 591,-796.21 591,-808.21 591,-808.21 591,-814.21 585,-820.21 579,-820.21"/>
<text text-anchor="middle" x="564" y="-800.01" font-family="Avenir Next" font-size="9.00">1 of</text>
</g>
<!-- course__PHYS102B&#45;&gt;choice_EOS325_0_1 -->
<g id="edge27" class="edge">
<title>course__PHYS102B&#45;&gt;choice_EOS325_0_1</title>
<path fill="none" stroke="#7a8389" d="M453.19,-802.21C476.03,-802.21 506.43,-802.21 529.45,-802.21"/>
<polygon fill="#7a8389" stroke="#7a8389" points="529.65,-804.66 536.65,-802.21 529.65,-799.76 529.65,-804.66"/>
</g>
<!-- choice_EOS340_0 -->
<g id="node55" class="node">
<title>choice_EOS340_0</title>
<path fill="#fff7ee" stroke="#b7793f" stroke-width="1.1" d="M579,-610.21C579,-610.21 549,-610.21 549,-610.21 543,-610.21 537,-604.21 537,-598.21 537,-598.21 537,-586.21 537,-586.21 537,-580.21 543,-574.21 549,-574.21 549,-574.21 579,-574.21 579,-574.21 585,-574.21 591,-580.21 591,-586.21 591,-586.21 591,-598.21 591,-598.21 591,-604.21 585,-610.21 579,-610.21"/>
<text text-anchor="middle" x="564" y="-590.01" font-family="Avenir Next" font-size="9.00">1 of</text>
</g>
<!-- course__PHYS102B&#45;&gt;choice_EOS340_0 -->
<g id="edge34" class="edge">
<title>course__PHYS102B&#45;&gt;choice_EOS340_0</title>
<path fill="none" stroke="#7a8389" d="M432.9,-783.94C458.65,-745.99 517.92,-658.64 546.71,-616.21"/>
<polygon fill="#7a8389" stroke="#7a8389" points="548.83,-617.45 550.73,-610.28 544.78,-614.7 548.83,-617.45"/>
</g>
<!-- choice_EOS431_0_1 -->
<g id="node58" class="node">
<title>choice_EOS431_0_1</title>
<path fill="#fff7ee" stroke="#b7793f" stroke-width="1.1" d="M579,-764.21C579,-764.21 549,-764.21 549,-764.21 543,-764.21 537,-758.21 537,-752.21 537,-752.21 537,-740.21 537,-740.21 537,-734.21 543,-728.21 549,-728.21 549,-728.21 579,-728.21 579,-728.21 585,-728.21 591,-734.21 591,-740.21 591,-740.21 591,-752.21 591,-752.21 591,-758.21 585,-764.21 579,-764.21"/>
<text text-anchor="middle" x="564" y="-744.01" font-family="Avenir Next" font-size="9.00">1 of</text>
</g>
<!-- course__PHYS102B&#45;&gt;choice_EOS431_0_1 -->
<g id="edge51" class="edge">
<title>course__PHYS102B&#45;&gt;choice_EOS431_0_1</title>
<path fill="none" stroke="#7a8389" d="M453.19,-789.36C476.23,-780.31 506.96,-768.23 530.05,-759.16"/>
<polygon fill="#7a8389" stroke="#7a8389" points="531.03,-761.4 536.65,-756.56 529.24,-756.84 531.03,-761.4"/>
</g>
<!-- course__CIVE210 -->
<g id="node6" class="node">
<title>course__CIVE210</title>
<g id="a_node6"><a xlink:href="../../../courses/CIVE210.html" xlink:title="CIVE210: Sustainability in Civil Engineering" target="_top">
<path fill="#f2ece3" stroke="#1b2730" stroke-width="1.6" d="M726.5,-795.21C726.5,-795.21 693.5,-795.21 693.5,-795.21 687.5,-795.21 681.5,-789.21 681.5,-783.21 681.5,-783.21 681.5,-771.21 681.5,-771.21 681.5,-765.21 687.5,-759.21 693.5,-759.21 693.5,-759.21 726.5,-759.21 726.5,-759.21 732.5,-759.21 738.5,-765.21 738.5,-771.21 738.5,-771.21 738.5,-783.21 738.5,-783.21 738.5,-789.21 732.5,-795.21 726.5,-795.21"/>
<text text-anchor="middle" x="710" y="-774.71" font-family="Avenir Next" font-size="10.00" fill="#17232b">CIVE210</text>
</a>
</g>
</g>
<!-- course__PHYS111&#45;&gt;course__CIVE210 -->
<g id="edge3" class="edge">
<title>course__PHYS111&#45;&gt;course__CIVE210</title>
<path fill="none" stroke="#5d6972" stroke-width="1.2" d="M476.27,-653.94C510.6,-649.01 554.8,-647.48 591,-662.21 596.99,-664.64 653.39,-721.01 686,-753.91"/>
<polygon fill="#5d6972" stroke="#5d6972" stroke-width="1.2" points="684.35,-755.73 691.02,-758.98 687.83,-752.28 684.35,-755.73"/>
</g>
<!-- course__MATH248 -->
<g id="node10" class="node">
<title>course__MATH248</title>
<g id="a_node10"><a xlink:href="../../../courses/MATH248.html" xlink:title="Equivalent or cross&#45;listed: MATH248: Computer Assisted Mathematics | PHYS248: Computer Assisted Physics" target="_top">
<path fill="#dfe3f4" stroke="#1b2730" stroke-width="1.6" d="M756,-271.21C756,-271.21 664,-271.21 664,-271.21 658,-271.21 652,-265.21 652,-259.21 652,-259.21 652,-247.21 652,-247.21 652,-241.21 658,-235.21 664,-235.21 664,-235.21 756,-235.21 756,-235.21 762,-235.21 768,-241.21 768,-247.21 768,-247.21 768,-259.21 768,-259.21 768,-265.21 762,-271.21 756,-271.21"/>
<text text-anchor="middle" x="710" y="-250.71" font-family="Avenir Next" font-size="10.00" fill="#17232b">MATH248 / PHYS248</text>
</a>
</g>
</g>
<!-- course__PHYS111&#45;&gt;course__MATH248 -->
<g id="edge68" class="edge">
<title>course__PHYS111&#45;&gt;course__MATH248</title>
<path fill="none" stroke="#5d6972" stroke-width="1.2" d="M433.08,-648.19C479.29,-582.05 639.63,-352.51 692.18,-277.28"/>
<polygon fill="#5d6972" stroke="#5d6972" stroke-width="1.2" points="694.35,-278.45 696.35,-271.31 690.33,-275.65 694.35,-278.45"/>
</g>
<!-- course__PHYS215 -->
<g id="node11" class="node">
<title>course__PHYS215</title>
<g id="a_node11"><a xlink:href="../../../courses/PHYS215.html" xlink:title="PHYS215: Introductory Quantum Physics" target="_top">
<path fill="#efd8cf" stroke="#1b2730" stroke-width="1.6" d="M728,-75.21C728,-75.21 692,-75.21 692,-75.21 686,-75.21 680,-69.21 680,-63.21 680,-63.21 680,-51.21 680,-51.21 680,-45.21 686,-39.21 692,-39.21 692,-39.21 728,-39.21 728,-39.21 734,-39.21 740,-45.21 740,-51.21 740,-51.21 740,-63.21 740,-63.21 740,-69.21 734,-75.21 728,-75.21"/>
<text text-anchor="middle" x="710" y="-54.71" font-family="Avenir Next" font-size="10.00" fill="#17232b">PHYS215</text>
</a>
</g>
</g>
<!-- course__PHYS111&#45;&gt;course__PHYS215 -->
<g id="edge75" class="edge">
<title>course__PHYS111&#45;&gt;course__PHYS215</title>
<path fill="none" stroke="#5d6972" stroke-width="1.2" d="M425.19,-647.97C439,-595.45 482.01,-439.83 537,-318.21 578.92,-225.48 591.98,-202.39 652,-120.21 662.18,-106.26 674.97,-91.9 685.86,-80.41"/>
<polygon fill="#5d6972" stroke="#5d6972" stroke-width="1.2" points="687.63,-82.1 690.71,-75.35 684.1,-78.71 687.63,-82.1"/>
</g>
<!-- course__PHYS216 -->
<g id="node12" class="node">
<title>course__PHYS216</title>
<g id="a_node12"><a xlink:href="../../../courses/PHYS216.html" xlink:title="PHYS216: Introductory Electricity and Magnetism" target="_top">
<path fill="#efd8cf" stroke="#1b2730" stroke-width="1.6" d="M728,-166.21C728,-166.21 692,-166.21 692,-166.21 686,-166.21 680,-160.21 680,-154.21 680,-154.21 680,-142.21 680,-142.21 680,-136.21 686,-130.21 692,-130.21 692,-130.21 728,-130.21 728,-130.21 734,-130.21 740,-136.21 740,-142.21 740,-142.21 740,-154.21 740,-154.21 740,-160.21 734,-166.21 728,-166.21"/>
<text text-anchor="middle" x="710" y="-145.71" font-family="Avenir Next" font-size="10.00" fill="#17232b">PHYS216</text>
</a>
</g>
</g>
<!-- course__PHYS111&#45;&gt;course__PHYS216 -->
<g id="edge76" class="edge">
<title>course__PHYS111&#45;&gt;course__PHYS216</title>
<path fill="none" stroke="#5d6972" stroke-width="1.2" d="M428.24,-648.17C446.14,-606.85 492.26,-502.44 537,-418.21 583.84,-330.02 596.67,-308.33 652,-225.21 664.12,-206.99 678.84,-187.17 690.28,-172.2"/>
<polygon fill="#5d6972" stroke="#5d6972" stroke-width="1.2" points="692.33,-173.55 694.65,-166.5 688.44,-170.56 692.33,-173.55"/>
</g>
<!-- course__PHYS217 -->
<g id="node13" class="node">
<title>course__PHYS217</title>
<g id="a_node13"><a xlink:href="../../../courses/PHYS217.html" xlink:title="Equivalent or cross&#45;listed: PHYS217: Introductory Thermodynamics | PHYS317: Thermodynamics" target="_top">
<path fill="#efd8cf" stroke="#1b2730" stroke-width="1.6" d="M754.5,-561.21C754.5,-561.21 665.5,-561.21 665.5,-561.21 659.5,-561.21 653.5,-555.21 653.5,-549.21 653.5,-549.21 653.5,-537.21 653.5,-537.21 653.5,-531.21 659.5,-525.21 665.5,-525.21 665.5,-525.21 754.5,-525.21 754.5,-525.21 760.5,-525.21 766.5,-531.21 766.5,-537.21 766.5,-537.21 766.5,-549.21 766.5,-549.21 766.5,-555.21 760.5,-561.21 754.5,-561.21"/>
<text text-anchor="middle" x="710" y="-540.71" font-family="Avenir Next" font-size="10.00" fill="#17232b">PHYS217 / PHYS317</text>
</a>
</g>
</g>
<!-- course__PHYS111&#45;&gt;course__PHYS217 -->
<g id="edge77" class="edge">
<title>course__PHYS111&#45;&gt;course__PHYS217</title>
<path fill="none" stroke="#5d6972" stroke-width="1.2" d="M434.87,-648.21C454.94,-624.48 493.81,-583.51 537,-564.21 571.1,-548.96 612.59,-543.57 646.27,-542.05"/>
<polygon fill="#5d6972" stroke="#5d6972" stroke-width="1.2" points="646.43,-544.5 653.33,-541.78 646.25,-539.6 646.43,-544.5"/>
</g>
<!-- course__PHYS229 -->
<g id="node14" class="node">
<title>course__PHYS229</title>
<g id="a_node14"><a xlink:href="../../../courses/PHYS229.html" xlink:title="PHYS229: Introduction to Experimental Physics" target="_top">
<path fill="#efd8cf" stroke="#1b2730" stroke-width="1.6" d="M728,-505.21C728,-505.21 692,-505.21 692,-505.21 686,-505.21 680,-499.21 680,-493.21 680,-493.21 680,-481.21 680,-481.21 680,-475.21 686,-469.21 692,-469.21 692,-469.21 728,-469.21 728,-469.21 734,-469.21 740,-475.21 740,-481.21 740,-481.21 740,-493.21 740,-493.21 740,-499.21 734,-505.21 728,-505.21"/>
<text text-anchor="middle" x="710" y="-484.71" font-family="Avenir Next" font-size="10.00" fill="#17232b">PHYS229</text>
</a>
</g>
</g>
<!-- course__PHYS111&#45;&gt;course__PHYS229 -->
<g id="edge78" class="edge">
<title>course__PHYS111&#45;&gt;course__PHYS229</title>
<path fill="none" stroke="#5d6972" stroke-width="1.2" d="M433.43,-647.79C452.96,-621.26 492.46,-572.4 537,-544.21 579.61,-517.24 636.31,-501.69 672.73,-493.84"/>
<polygon fill="#5d6972" stroke="#5d6972" stroke-width="1.2" points="673.39,-496.21 679.74,-492.37 672.39,-491.41 673.39,-496.21"/>
</g>
<!-- course__PHYS111&#45;&gt;choice_EOS261_0_2 -->
<g id="edge6" class="edge">
<title>course__PHYS111&#45;&gt;choice_EOS261_0_2</title>
<path fill="none" stroke="#7a8389" d="M432.34,-684.49C452.62,-715.39 495.78,-779.55 537,-830.21 538.26,-831.75 539.57,-833.32 540.92,-834.88"/>
<polygon fill="#7a8389" stroke="#7a8389" points="539.11,-836.52 545.58,-840.14 542.78,-833.27 539.11,-836.52"/>
</g>
<!-- course__PHYS111&#45;&gt;choice_EOS311_0_3 -->
<g id="edge11" class="edge">
<title>course__PHYS111&#45;&gt;choice_EOS311_0_3</title>
<path fill="none" stroke="#7a8389" d="M476,-675.55C494.16,-678.61 513.76,-681.91 529.75,-684.61"/>
<polygon fill="#7a8389" stroke="#7a8389" points="529.52,-687.05 536.83,-685.8 530.33,-682.22 529.52,-687.05"/>
</g>
<!-- course__PHYS111&#45;&gt;choice_EOS314_0_1 -->
<g id="edge19" class="edge">
<title>course__PHYS111&#45;&gt;choice_EOS314_0_1</title>
<path fill="none" stroke="#7a8389" d="M429.7,-684.22C454.88,-733.46 523.95,-867.84 537,-886.21 538.04,-887.67 539.16,-889.14 540.31,-890.6"/>
<polygon fill="#7a8389" stroke="#7a8389" points="538.56,-892.33 544.94,-896.11 542.32,-889.18 538.56,-892.33"/>
</g>
<!-- course__PHYS111&#45;&gt;choice_EOS325_0_1 -->
<g id="edge28" class="edge">
<title>course__PHYS111&#45;&gt;choice_EOS325_0_1</title>
<path fill="none" stroke="#7a8389" d="M439.42,-684.27C464.97,-708.65 510.54,-752.14 538.63,-778.94"/>
<polygon fill="#7a8389" stroke="#7a8389" points="537.24,-781.01 544,-784.07 540.63,-777.47 537.24,-781.01"/>
</g>
<!-- course__PHYS111&#45;&gt;choice_EOS340_0 -->
<g id="edge35" class="edge">
<title>course__PHYS111&#45;&gt;choice_EOS340_0</title>
<path fill="none" stroke="#7a8389" d="M455.36,-648.1C478.31,-636.19 508.14,-620.69 530.58,-609.04"/>
<polygon fill="#7a8389" stroke="#7a8389" points="531.91,-611.11 536.99,-605.71 529.65,-606.76 531.91,-611.11"/>
</g>
<!-- course__PHYS111&#45;&gt;choice_EOS431_0_1 -->
<g id="edge52" class="edge">
<title>course__PHYS111&#45;&gt;choice_EOS431_0_1</title>
<path fill="none" stroke="#7a8389" d="M452.84,-684.36C476.1,-697.42 507.36,-714.97 530.63,-728.04"/>
<polygon fill="#7a8389" stroke="#7a8389" points="529.67,-730.31 536.97,-731.6 532.07,-726.03 529.67,-730.31"/>
</g>
<!-- course__CIVE315 -->
<g id="node17" class="node">
<title>course__CIVE315</title>
<g id="a_node17"><a xlink:href="../../../courses/CIVE315.html" xlink:title="CIVE315: Environmental Policy" target="_top">
<path fill="#f2ece3" stroke="#7e8d96" d="M993.5,-827.21C993.5,-827.21 961.5,-827.21 961.5,-827.21 955.5,-827.21 949.5,-821.21 949.5,-815.21 949.5,-815.21 949.5,-803.21 949.5,-803.21 949.5,-797.21 955.5,-791.21 961.5,-791.21 961.5,-791.21 993.5,-791.21 993.5,-791.21 999.5,-791.21 1005.5,-797.21 1005.5,-803.21 1005.5,-803.21 1005.5,-815.21 1005.5,-815.21 1005.5,-821.21 999.5,-827.21 993.5,-827.21"/>
<text text-anchor="middle" x="977.5" y="-807.01" font-family="Avenir Next" font-size="9.00" fill="#41515b">CIVE315</text>
</a>
</g>
</g>
<!-- course__CIVE210&#45;&gt;course__CIVE315 -->
<g id="edge4" class="edge">
<title>course__CIVE210&#45;&gt;course__CIVE315</title>
<path fill="none" stroke="#5d6972" stroke-width="1.2" d="M738.91,-780.57C787.87,-786.47 889.05,-798.67 942.19,-805.07"/>
<polygon fill="#5d6972" stroke="#5d6972" stroke-width="1.2" points="942.12,-807.53 949.36,-805.93 942.7,-802.66 942.12,-807.53"/>
</g>
<!-- course__EOS460 -->
<g id="node34" class="node">
<title>course__EOS460</title>
<g id="a_node34"><a xlink:href="../../../courses/EOS460.html" xlink:title="EOS460: Earth System Science" target="_top">
<path fill="#d7e9ef" stroke="#7e8d96" d="M1255.5,-995.21C1255.5,-995.21 1225.5,-995.21 1225.5,-995.21 1219.5,-995.21 1213.5,-989.21 1213.5,-983.21 1213.5,-983.21 1213.5,-971.21 1213.5,-971.21 1213.5,-965.21 1219.5,-959.21 1225.5,-959.21 1225.5,-959.21 1255.5,-959.21 1255.5,-959.21 1261.5,-959.21 1267.5,-965.21 1267.5,-971.21 1267.5,-971.21 1267.5,-983.21 1267.5,-983.21 1267.5,-989.21 1261.5,-995.21 1255.5,-995.21"/>
<text text-anchor="middle" x="1240.5" y="-975.01" font-family="Avenir Next" font-size="9.00" fill="#41515b">EOS460</text>
</a>
</g>
</g>
<!-- course__EOS261&#45;&gt;course__EOS460 -->
<g id="edge61" class="edge">
<title>course__EOS261&#45;&gt;course__EOS460</title>
<path fill="none" stroke="#5d6972" stroke-width="1.2" d="M737.21,-957.25C825,-960.74 1108.69,-972.01 1206.21,-975.88"/>
<polygon fill="#5d6972" stroke="#5d6972" stroke-width="1.2" points="1206.35,-978.34 1213.45,-976.17 1206.55,-973.44 1206.35,-978.34"/>
</g>
<!-- course__EOS261&#45;&gt;choice_EOS321_0_1_0 -->
<g id="edge24" class="edge">
<title>course__EOS261&#45;&gt;choice_EOS321_0_1_0</title>
<path fill="none" stroke="#7a8389" d="M737.08,-972.69C761.09,-987.86 796.79,-1010.42 822.62,-1026.74"/>
<polygon fill="#7a8389" stroke="#7a8389" points="821.4,-1028.87 828.63,-1030.54 824.02,-1024.73 821.4,-1028.87"/>
</g>
<!-- course__EOS261&#45;&gt;choice_EOS325_0_2_0 -->
<g id="edge30" class="edge">
<title>course__EOS261&#45;&gt;choice_EOS325_0_2_0</title>
<path fill="none" stroke="#7a8389" d="M737.08,-962.54C760.78,-968.31 795.89,-976.84 821.63,-983.1"/>
<polygon fill="#7a8389" stroke="#7a8389" points="821.25,-985.52 828.63,-984.8 822.41,-980.76 821.25,-985.52"/>
</g>
<!-- course__BIOL446 -->
<g id="node15" class="node">
<title>course__BIOL446</title>
<g id="a_node15"><a xlink:href="../../../courses/BIOL446.html" xlink:title="BIOL446: Advanced Aquatic Ecology" target="_top">
<path fill="#dbe8d2" stroke="#7e8d96" d="M993.5,-673.21C993.5,-673.21 961.5,-673.21 961.5,-673.21 955.5,-673.21 949.5,-667.21 949.5,-661.21 949.5,-661.21 949.5,-649.21 949.5,-649.21 949.5,-643.21 955.5,-637.21 961.5,-637.21 961.5,-637.21 993.5,-637.21 993.5,-637.21 999.5,-637.21 1005.5,-643.21 1005.5,-649.21 1005.5,-649.21 1005.5,-661.21 1005.5,-661.21 1005.5,-667.21 999.5,-673.21 993.5,-673.21"/>
<text text-anchor="middle" x="977.5" y="-653.01" font-family="Avenir Next" font-size="9.00" fill="#41515b">BIOL446</text>
</a>
</g>
</g>
<!-- course__EOS311&#45;&gt;course__BIOL446 -->
<g id="edge1" class="edge">
<title>course__EOS311&#45;&gt;course__BIOL446</title>
<path fill="none" stroke="#5d6972" stroke-width="1.2" d="M762.19,-683.46C815.26,-676.46 896.71,-665.72 942.4,-659.7"/>
<polygon fill="#5d6972" stroke="#5d6972" stroke-width="1.2" points="942.79,-662.12 949.41,-658.78 942.15,-657.26 942.79,-662.12"/>
</g>
<!-- course__BIOL466 -->
<g id="node16" class="node">
<title>course__BIOL466</title>
<g id="a_node16"><a xlink:href="../../../courses/BIOL466.html" xlink:title="BIOL466: Frontiers in Marine Biology" target="_top">
<path fill="#dbe8d2" stroke="#7e8d96" d="M993.5,-729.21C993.5,-729.21 961.5,-729.21 961.5,-729.21 955.5,-729.21 949.5,-723.21 949.5,-717.21 949.5,-717.21 949.5,-705.21 949.5,-705.21 949.5,-699.21 955.5,-693.21 961.5,-693.21 961.5,-693.21 993.5,-693.21 993.5,-693.21 999.5,-693.21 1005.5,-699.21 1005.5,-705.21 1005.5,-705.21 1005.5,-717.21 1005.5,-717.21 1005.5,-723.21 999.5,-729.21 993.5,-729.21"/>
<text text-anchor="middle" x="977.5" y="-709.01" font-family="Avenir Next" font-size="9.00" fill="#41515b">BIOL466</text>
</a>
</g>
</g>
<!-- course__EOS311&#45;&gt;course__BIOL466 -->
<g id="edge2" class="edge">
<title>course__EOS311&#45;&gt;course__BIOL466</title>
<path fill="none" stroke="#5d6972" stroke-width="1.2" d="M762.19,-694.26C815.26,-698.45 896.71,-704.9 942.4,-708.51"/>
<polygon fill="#5d6972" stroke="#5d6972" stroke-width="1.2" points="942.24,-710.95 949.41,-709.06 942.63,-706.07 942.24,-710.95"/>
</g>
<!-- choice_EOS401_0 -->
<g id="node57" class="node">
<title>choice_EOS401_0</title>
<path fill="#fff7ee" stroke="#b7793f" stroke-width="1.1" d="M1634,-1019.21C1634,-1019.21 1604,-1019.21 1604,-1019.21 1598,-1019.21 1592,-1013.21 1592,-1007.21 1592,-1007.21 1592,-995.21 1592,-995.21 1592,-989.21 1598,-983.21 1604,-983.21 1604,-983.21 1634,-983.21 1634,-983.21 1640,-983.21 1646,-989.21 1646,-995.21 1646,-995.21 1646,-1007.21 1646,-1007.21 1646,-1013.21 1640,-1019.21 1634,-1019.21"/>
<text text-anchor="middle" x="1619" y="-999.01" font-family="Avenir Next" font-size="9.00">3 of</text>
</g>
<!-- course__EOS311&#45;&gt;choice_EOS401_0 -->
<g id="edge41" class="edge">
<title>course__EOS311&#45;&gt;choice_EOS401_0</title>
<path fill="none" stroke="#7a8389" d="M752.41,-708.23C803.91,-728.97 894.99,-760.21 976.5,-760.21 976.5,-760.21 976.5,-760.21 1383,-760.21 1502.86,-760.21 1581.5,-914.89 1608.04,-976.41"/>
<polygon fill="#7a8389" stroke="#7a8389" points="1605.88,-977.6 1610.87,-983.09 1610.39,-975.69 1605.88,-977.6"/>
</g>
<!-- choice_EOS312_0_0 -->
<g id="node50" class="node">
<title>choice_EOS312_0_0</title>
<path fill="#fff7ee" stroke="#b7793f" stroke-width="1.1" d="M1397,-1109.21C1397,-1109.21 1367,-1109.21 1367,-1109.21 1361,-1109.21 1355,-1103.21 1355,-1097.21 1355,-1097.21 1355,-1085.21 1355,-1085.21 1355,-1079.21 1361,-1073.21 1367,-1073.21 1367,-1073.21 1397,-1073.21 1397,-1073.21 1403,-1073.21 1409,-1079.21 1409,-1085.21 1409,-1085.21 1409,-1097.21 1409,-1097.21 1409,-1103.21 1403,-1109.21 1397,-1109.21"/>
<text text-anchor="middle" x="1382" y="-1089.01" font-family="Avenir Next" font-size="9.00">1 of</text>
</g>
<!-- course__EOS314&#45;&gt;choice_EOS312_0_0 -->
<g id="edge14" class="edge">
<title>course__EOS314&#45;&gt;choice_EOS312_0_0</title>
<path fill="none" stroke="#7a8389" d="M737.16,-1103.14C784.53,-1115.07 887.83,-1138.21 976.5,-1138.21 976.5,-1138.21 976.5,-1138.21 1100,-1138.21 1190.7,-1138.21 1295.64,-1114.09 1347.89,-1100.41"/>
<polygon fill="#7a8389" stroke="#7a8389" points="1348.76,-1102.71 1354.9,-1098.55 1347.51,-1097.97 1348.76,-1102.71"/>
</g>
<!-- course__EOS314&#45;&gt;choice_EOS321_0_1_0 -->
<g id="edge25" class="edge">
<title>course__EOS314&#45;&gt;choice_EOS321_0_1_0</title>
<path fill="none" stroke="#7a8389" d="M737.08,-1087.33C760.89,-1079.23 796.19,-1067.22 821.96,-1058.45"/>
<polygon fill="#7a8389" stroke="#7a8389" points="822.79,-1060.75 828.63,-1056.18 821.21,-1056.11 822.79,-1060.75"/>
</g>
<!-- course__EOS314&#45;&gt;choice_EOS325_0_2_0 -->
<g id="edge31" class="edge">
<title>course__EOS314&#45;&gt;choice_EOS325_0_2_0</title>
<path fill="none" stroke="#7a8389" d="M735.75,-1078.16C760.28,-1060.28 797.89,-1032.85 824.3,-1013.59"/>
<polygon fill="#7a8389" stroke="#7a8389" points="825.87,-1015.48 830.09,-1009.37 822.99,-1011.52 825.87,-1015.48"/>
</g>
<!-- choice_EOS401_0_3 -->
<g id="node56" class="node">
<title>choice_EOS401_0_3</title>
<path fill="#fff7ee" stroke="#b7793f" stroke-width="1.1" d="M1397,-1019.21C1397,-1019.21 1367,-1019.21 1367,-1019.21 1361,-1019.21 1355,-1013.21 1355,-1007.21 1355,-1007.21 1355,-995.21 1355,-995.21 1355,-989.21 1361,-983.21 1367,-983.21 1367,-983.21 1397,-983.21 1397,-983.21 1403,-983.21 1409,-989.21 1409,-995.21 1409,-995.21 1409,-1007.21 1409,-1007.21 1409,-1013.21 1403,-1019.21 1397,-1019.21"/>
<text text-anchor="middle" x="1382" y="-999.01" font-family="Avenir Next" font-size="9.00">1 of</text>
</g>
<!-- course__EOS314&#45;&gt;choice_EOS401_0_3 -->
<g id="edge39" class="edge">
<title>course__EOS314&#45;&gt;choice_EOS401_0_3</title>
<path fill="none" stroke="#7a8389" d="M737,-1096.21C784.55,-1096.21 888.69,-1096.21 976.5,-1096.21 976.5,-1096.21 976.5,-1096.21 1100,-1096.21 1187.61,-1096.21 1213,-1094.61 1294,-1061.21 1316.06,-1052.11 1338.15,-1036.78 1354.56,-1023.89"/>
<polygon fill="#7a8389" stroke="#7a8389" points="1356.4,-1025.55 1360.33,-1019.26 1353.34,-1021.72 1356.4,-1025.55"/>
</g>
<!-- course__MATH348 -->
<g id="node21" class="node">
<title>course__MATH348</title>
<g id="a_node21"><a xlink:href="../../../courses/MATH348.html" xlink:title="MATH348: Numerical Methods" target="_top">
<path fill="#dfe3f4" stroke="#7e8d96" d="M995,-229.21C995,-229.21 960,-229.21 960,-229.21 954,-229.21 948,-223.21 948,-217.21 948,-217.21 948,-205.21 948,-205.21 948,-199.21 954,-193.21 960,-193.21 960,-193.21 995,-193.21 995,-193.21 1001,-193.21 1007,-199.21 1007,-205.21 1007,-205.21 1007,-217.21 1007,-217.21 1007,-223.21 1001,-229.21 995,-229.21"/>
<text text-anchor="middle" x="977.5" y="-209.01" font-family="Avenir Next" font-size="9.00" fill="#41515b">MATH348</text>
</a>
</g>
</g>
<!-- course__MATH248&#45;&gt;course__MATH348 -->
<g id="edge69" class="edge">
<title>course__MATH248&#45;&gt;course__MATH348</title>
<path fill="none" stroke="#5d6972" stroke-width="1.2" d="M768.28,-244.14C820.7,-235.85 896.63,-223.84 940.84,-216.85"/>
<polygon fill="#5d6972" stroke="#5d6972" stroke-width="1.2" points="941.39,-219.24 947.92,-215.73 940.62,-214.4 941.39,-219.24"/>
</g>
<!-- course__PHYS321A -->
<g id="node22" class="node">
<title>course__PHYS321A</title>
<g id="a_node22"><a xlink:href="../../../courses/PHYS321A.html" xlink:title="PHYS321A: Classical Mechanics I" target="_top">
<path fill="#efd8cf" stroke="#1b2730" stroke-width="1.6" d="M999,-292.21C999,-292.21 956,-292.21 956,-292.21 950,-292.21 944,-286.21 944,-280.21 944,-280.21 944,-268.21 944,-268.21 944,-262.21 950,-256.21 956,-256.21 956,-256.21 999,-256.21 999,-256.21 1005,-256.21 1011,-262.21 1011,-268.21 1011,-268.21 1011,-280.21 1011,-280.21 1011,-286.21 1005,-292.21 999,-292.21"/>
<text text-anchor="middle" x="977.5" y="-271.71" font-family="Avenir Next" font-size="10.00" fill="#17232b">PHYS321A</text>
</a>
</g>
</g>
<!-- course__MATH248&#45;&gt;course__PHYS321A -->
<g id="edge79" class="edge">
<title>course__MATH248&#45;&gt;course__PHYS321A</title>
<path fill="none" stroke="#5d6972" stroke-width="1.2" d="M768.28,-257.74C819.11,-261.76 892.05,-267.53 936.74,-271.06"/>
<polygon fill="#5d6972" stroke="#5d6972" stroke-width="1.2" points="936.76,-273.52 943.93,-271.63 937.14,-268.64 936.76,-273.52"/>
</g>
<!-- course__PHYS323 -->
<g id="node23" class="node">
<title>course__PHYS323</title>
<g id="a_node23"><a xlink:href="../../../courses/PHYS323.html" xlink:title="PHYS323: Quantum Mechanics I" target="_top">
<path fill="#efd8cf" stroke="#7e8d96" d="M994.5,-110.21C994.5,-110.21 960.5,-110.21 960.5,-110.21 954.5,-110.21 948.5,-104.21 948.5,-98.21 948.5,-98.21 948.5,-86.21 948.5,-86.21 948.5,-80.21 954.5,-74.21 960.5,-74.21 960.5,-74.21 994.5,-74.21 994.5,-74.21 1000.5,-74.21 1006.5,-80.21 1006.5,-86.21 1006.5,-86.21 1006.5,-98.21 1006.5,-98.21 1006.5,-104.21 1000.5,-110.21 994.5,-110.21"/>
<text text-anchor="middle" x="977.5" y="-90.01" font-family="Avenir Next" font-size="9.00" fill="#41515b">PHYS323</text>
</a>
</g>
</g>
<!-- course__MATH248&#45;&gt;course__PHYS323 -->
<g id="edge82" class="edge">
<title>course__MATH248&#45;&gt;course__PHYS323</title>
<path fill="none" stroke="#5d6972" stroke-width="1.2" d="M740.68,-235.21C790.22,-205.16 889.49,-144.97 942.04,-113.1"/>
<polygon fill="#5d6972" stroke="#5d6972" stroke-width="1.2" points="943.5,-115.08 948.21,-109.36 940.96,-110.89 943.5,-115.08"/>
</g>
<!-- course__PHYS326 -->
<g id="node25" class="node">
<title>course__PHYS326</title>
<g id="a_node25"><a xlink:href="../../../courses/PHYS326.html" xlink:title="PHYS326: Electricity and Magnetism" target="_top">
<path fill="#efd8cf" stroke="#7e8d96" d="M994.5,-166.21C994.5,-166.21 960.5,-166.21 960.5,-166.21 954.5,-166.21 948.5,-160.21 948.5,-154.21 948.5,-154.21 948.5,-142.21 948.5,-142.21 948.5,-136.21 954.5,-130.21 960.5,-130.21 960.5,-130.21 994.5,-130.21 994.5,-130.21 1000.5,-130.21 1006.5,-136.21 1006.5,-142.21 1006.5,-142.21 1006.5,-154.21 1006.5,-154.21 1006.5,-160.21 1000.5,-166.21 994.5,-166.21"/>
<text text-anchor="middle" x="977.5" y="-146.01" font-family="Avenir Next" font-size="9.00" fill="#41515b">PHYS326</text>
</a>
</g>
</g>
<!-- course__MATH248&#45;&gt;course__PHYS326 -->
<g id="edge85" class="edge">
<title>course__MATH248&#45;&gt;course__PHYS326</title>
<path fill="none" stroke="#5d6972" stroke-width="1.2" d="M756.64,-235.16C809.07,-214.42 893.95,-180.85 941.45,-162.07"/>
<polygon fill="#5d6972" stroke="#5d6972" stroke-width="1.2" points="942.57,-164.26 948.18,-159.41 940.77,-159.7 942.57,-164.26"/>
</g>
<!-- choice_EOS460_0_0 -->
<g id="node59" class="node">
<title>choice_EOS460_0_0</title>
<path fill="#fff7ee" stroke="#b7793f" stroke-width="1.1" d="M1114,-911.21C1114,-911.21 1084,-911.21 1084,-911.21 1078,-911.21 1072,-905.21 1072,-899.21 1072,-899.21 1072,-887.21 1072,-887.21 1072,-881.21 1078,-875.21 1084,-875.21 1084,-875.21 1114,-875.21 1114,-875.21 1120,-875.21 1126,-881.21 1126,-887.21 1126,-887.21 1126,-899.21 1126,-899.21 1126,-905.21 1120,-911.21 1114,-911.21"/>
<text text-anchor="middle" x="1099" y="-891.01" font-family="Avenir Next" font-size="9.00">1 of</text>
</g>
<!-- course__MATH248&#45;&gt;choice_EOS460_0_0 -->
<g id="edge59" class="edge">
<title>course__MATH248&#45;&gt;choice_EOS460_0_0</title>
<path fill="none" stroke="#7a8389" d="M725.6,-271.36C785.54,-345.91 1009.63,-624.67 1011,-627.21 1055.76,-709.92 1082.57,-819.62 1092.99,-868.22"/>
<polygon fill="#7a8389" stroke="#7a8389" points="1090.62,-868.86 1094.46,-875.2 1095.41,-867.85 1090.62,-868.86"/>
</g>
<!-- course__PHYS215&#45;&gt;course__PHYS323 -->
<g id="edge81" class="edge">
<title>course__PHYS215&#45;&gt;course__PHYS323</title>
<path fill="none" stroke="#5d6972" stroke-width="1.2" d="M740.17,-61.05C789.32,-67.53 888.42,-80.6 941.33,-87.57"/>
<polygon fill="#5d6972" stroke="#5d6972" stroke-width="1.2" points="941.22,-90.03 948.48,-88.51 941.86,-85.17 941.22,-90.03"/>
</g>
<!-- course__PHYS325 -->
<g id="node24" class="node">
<title>course__PHYS325</title>
<g id="a_node24"><a xlink:href="../../../courses/PHYS325.html" xlink:title="PHYS325: Optics" target="_top">
<path fill="#efd8cf" stroke="#7e8d96" d="M994.5,-54.21C994.5,-54.21 960.5,-54.21 960.5,-54.21 954.5,-54.21 948.5,-48.21 948.5,-42.21 948.5,-42.21 948.5,-30.21 948.5,-30.21 948.5,-24.21 954.5,-18.21 960.5,-18.21 960.5,-18.21 994.5,-18.21 994.5,-18.21 1000.5,-18.21 1006.5,-24.21 1006.5,-30.21 1006.5,-30.21 1006.5,-42.21 1006.5,-42.21 1006.5,-48.21 1000.5,-54.21 994.5,-54.21"/>
<text text-anchor="middle" x="977.5" y="-34.01" font-family="Avenir Next" font-size="9.00" fill="#41515b">PHYS325</text>
</a>
</g>
</g>
<!-- course__PHYS216&#45;&gt;course__PHYS325 -->
<g id="edge83" class="edge">
<title>course__PHYS216&#45;&gt;course__PHYS325</title>
<path fill="none" stroke="#5d6972" stroke-width="1.2" d="M740.18,-132.79C763.82,-120.56 798.14,-103.39 829,-90.21 866.84,-74.03 911.32,-58.16 941.46,-47.86"/>
<polygon fill="#5d6972" stroke="#5d6972" stroke-width="1.2" points="942.59,-50.07 948.43,-45.49 941.01,-45.43 942.59,-50.07"/>
</g>
<!-- course__PHYS216&#45;&gt;course__PHYS326 -->
<g id="edge84" class="edge">
<title>course__PHYS216&#45;&gt;course__PHYS326</title>
<path fill="none" stroke="#5d6972" stroke-width="1.2" d="M740.17,-148.21C789.32,-148.21 888.42,-148.21 941.33,-148.21"/>
<polygon fill="#5d6972" stroke="#5d6972" stroke-width="1.2" points="941.48,-150.66 948.48,-148.21 941.48,-145.76 941.48,-150.66"/>
</g>
<!-- course__EOS316 -->
<g id="node18" class="node">
<title>course__EOS316</title>
<g id="a_node18"><a xlink:href="../../../courses/EOS316.html" xlink:title="EOS316: Igneous and Metamorphic Geology" target="_top">
<path fill="#d7e9ef" stroke="#7e8d96" d="M992.5,-533.21C992.5,-533.21 962.5,-533.21 962.5,-533.21 956.5,-533.21 950.5,-527.21 950.5,-521.21 950.5,-521.21 950.5,-509.21 950.5,-509.21 950.5,-503.21 956.5,-497.21 962.5,-497.21 962.5,-497.21 992.5,-497.21 992.5,-497.21 998.5,-497.21 1004.5,-503.21 1004.5,-509.21 1004.5,-509.21 1004.5,-521.21 1004.5,-521.21 1004.5,-527.21 998.5,-533.21 992.5,-533.21"/>
<text text-anchor="middle" x="977.5" y="-513.01" font-family="Avenir Next" font-size="9.00" fill="#41515b">EOS316</text>
</a>
</g>
</g>
<!-- course__PHYS217&#45;&gt;course__EOS316 -->
<g id="edge22" class="edge">
<title>course__PHYS217&#45;&gt;course__EOS316</title>
<path fill="none" stroke="#5d6972" stroke-width="1.2" d="M766.66,-537.34C820.1,-531.7 899.04,-523.38 943.3,-518.71"/>
<polygon fill="#5d6972" stroke="#5d6972" stroke-width="1.2" points="943.65,-521.13 950.36,-517.96 943.14,-516.26 943.65,-521.13"/>
</g>
<!-- course__EOS400 -->
<g id="node27" class="node">
<title>course__EOS400</title>
<g id="a_node27"><a xlink:href="../../../courses/EOS400.html" xlink:title="EOS400: Advanced Field Geology" target="_top">
<path fill="#d7e9ef" stroke="#7e8d96" d="M1255.5,-631.21C1255.5,-631.21 1225.5,-631.21 1225.5,-631.21 1219.5,-631.21 1213.5,-625.21 1213.5,-619.21 1213.5,-619.21 1213.5,-607.21 1213.5,-607.21 1213.5,-601.21 1219.5,-595.21 1225.5,-595.21 1225.5,-595.21 1255.5,-595.21 1255.5,-595.21 1261.5,-595.21 1267.5,-601.21 1267.5,-607.21 1267.5,-607.21 1267.5,-619.21 1267.5,-619.21 1267.5,-625.21 1261.5,-631.21 1255.5,-631.21"/>
<text text-anchor="middle" x="1240.5" y="-611.01" font-family="Avenir Next" font-size="9.00" fill="#41515b">EOS400</text>
</a>
</g>
</g>
<!-- course__EOS316&#45;&gt;course__EOS400 -->
<g id="edge38" class="edge">
<title>course__EOS316&#45;&gt;course__EOS400</title>
<path fill="none" stroke="#5d6972" stroke-width="1.2" d="M1004.66,-525.38C1023.39,-532.64 1049.22,-542.6 1072,-551.21 1118.58,-568.79 1172.63,-588.71 1206.45,-601.12"/>
<polygon fill="#5d6972" stroke="#5d6972" stroke-width="1.2" points="1205.93,-603.54 1213.35,-603.65 1207.62,-598.94 1205.93,-603.54"/>
</g>
<!-- course__EOS408 -->
<g id="node28" class="node">
<title>course__EOS408</title>
<g id="a_node28"><a xlink:href="../../../courses/EOS408.html" xlink:title="EOS408: Marine Geology" target="_top">
<path fill="#d7e9ef" stroke="#7e8d96" d="M1255.5,-575.21C1255.5,-575.21 1225.5,-575.21 1225.5,-575.21 1219.5,-575.21 1213.5,-569.21 1213.5,-563.21 1213.5,-563.21 1213.5,-551.21 1213.5,-551.21 1213.5,-545.21 1219.5,-539.21 1225.5,-539.21 1225.5,-539.21 1255.5,-539.21 1255.5,-539.21 1261.5,-539.21 1267.5,-545.21 1267.5,-551.21 1267.5,-551.21 1267.5,-563.21 1267.5,-563.21 1267.5,-569.21 1261.5,-575.21 1255.5,-575.21"/>
<text text-anchor="middle" x="1240.5" y="-555.01" font-family="Avenir Next" font-size="9.00" fill="#41515b">EOS408</text>
</a>
</g>
</g>
<!-- course__EOS316&#45;&gt;course__EOS408 -->
<g id="edge45" class="edge">
<title>course__EOS316&#45;&gt;course__EOS408</title>
<path fill="none" stroke="#5d6972" stroke-width="1.2" d="M1004.96,-519.46C1052.86,-527.17 1153.83,-543.42 1206.29,-551.86"/>
<polygon fill="#5d6972" stroke="#5d6972" stroke-width="1.2" points="1206.06,-554.31 1213.36,-553 1206.83,-549.47 1206.06,-554.31"/>
</g>
<!-- course__EOS416 -->
<g id="node29" class="node">
<title>course__EOS416</title>
<g id="a_node29"><a xlink:href="../../../courses/EOS416.html" xlink:title="EOS416: High Temperature Petrology" target="_top">
<path fill="#d7e9ef" stroke="#7e8d96" d="M1255.5,-519.21C1255.5,-519.21 1225.5,-519.21 1225.5,-519.21 1219.5,-519.21 1213.5,-513.21 1213.5,-507.21 1213.5,-507.21 1213.5,-495.21 1213.5,-495.21 1213.5,-489.21 1219.5,-483.21 1225.5,-483.21 1225.5,-483.21 1255.5,-483.21 1255.5,-483.21 1261.5,-483.21 1267.5,-489.21 1267.5,-495.21 1267.5,-495.21 1267.5,-507.21 1267.5,-507.21 1267.5,-513.21 1261.5,-519.21 1255.5,-519.21"/>
<text text-anchor="middle" x="1240.5" y="-499.01" font-family="Avenir Next" font-size="9.00" fill="#41515b">EOS416</text>
</a>
</g>
</g>
<!-- course__EOS316&#45;&gt;course__EOS416 -->
<g id="edge46" class="edge">
<title>course__EOS316&#45;&gt;course__EOS416</title>
<path fill="none" stroke="#5d6972" stroke-width="1.2" d="M1004.96,-513.79C1052.86,-511.22 1153.83,-505.8 1206.29,-502.99"/>
<polygon fill="#5d6972" stroke="#5d6972" stroke-width="1.2" points="1206.5,-505.43 1213.36,-502.61 1206.23,-500.54 1206.5,-505.43"/>
</g>
<!-- course__EOS420 -->
<g id="node30" class="node">
<title>course__EOS420</title>
<g id="a_node30"><a xlink:href="../../../courses/EOS420.html" xlink:title="EOS420: Resource Geology" target="_top">
<path fill="#d7e9ef" stroke="#7e8d96" d="M1255.5,-463.21C1255.5,-463.21 1225.5,-463.21 1225.5,-463.21 1219.5,-463.21 1213.5,-457.21 1213.5,-451.21 1213.5,-451.21 1213.5,-439.21 1213.5,-439.21 1213.5,-433.21 1219.5,-427.21 1225.5,-427.21 1225.5,-427.21 1255.5,-427.21 1255.5,-427.21 1261.5,-427.21 1267.5,-433.21 1267.5,-439.21 1267.5,-439.21 1267.5,-451.21 1267.5,-451.21 1267.5,-457.21 1261.5,-463.21 1255.5,-463.21"/>
<text text-anchor="middle" x="1240.5" y="-443.01" font-family="Avenir Next" font-size="9.00" fill="#41515b">EOS420</text>
</a>
</g>
</g>
<!-- course__EOS316&#45;&gt;course__EOS420 -->
<g id="edge47" class="edge">
<title>course__EOS316&#45;&gt;course__EOS420</title>
<path fill="none" stroke="#5d6972" stroke-width="1.2" d="M1004.96,-508.11C1052.86,-495.26 1153.83,-468.18 1206.29,-454.11"/>
<polygon fill="#5d6972" stroke="#5d6972" stroke-width="1.2" points="1207.23,-456.4 1213.36,-452.22 1205.96,-451.67 1207.23,-456.4"/>
</g>
<!-- course__EOS321 -->
<g id="node19" class="node">
<title>course__EOS321</title>
<g id="a_node19"><a xlink:href="../../../courses/EOS321.html" xlink:title="EOS321: Earth History" target="_top">
<path fill="#d7e9ef" stroke="#7e8d96" d="M992.5,-1065.21C992.5,-1065.21 962.5,-1065.21 962.5,-1065.21 956.5,-1065.21 950.5,-1059.21 950.5,-1053.21 950.5,-1053.21 950.5,-1041.21 950.5,-1041.21 950.5,-1035.21 956.5,-1029.21 962.5,-1029.21 962.5,-1029.21 992.5,-1029.21 992.5,-1029.21 998.5,-1029.21 1004.5,-1035.21 1004.5,-1041.21 1004.5,-1041.21 1004.5,-1053.21 1004.5,-1053.21 1004.5,-1059.21 998.5,-1065.21 992.5,-1065.21"/>
<text text-anchor="middle" x="977.5" y="-1045.01" font-family="Avenir Next" font-size="9.00" fill="#41515b">EOS321</text>
</a>
</g>
</g>
<!-- course__EOS325 -->
<g id="node20" class="node">
<title>course__EOS325</title>
<g id="a_node20"><a xlink:href="../../../courses/EOS325.html" xlink:title="EOS325: Earth System Modelling" target="_top">
<path fill="#d7e9ef" stroke="#7e8d96" d="M992.5,-939.21C992.5,-939.21 962.5,-939.21 962.5,-939.21 956.5,-939.21 950.5,-933.21 950.5,-927.21 950.5,-927.21 950.5,-915.21 950.5,-915.21 950.5,-909.21 956.5,-903.21 962.5,-903.21 962.5,-903.21 992.5,-903.21 992.5,-903.21 998.5,-903.21 1004.5,-909.21 1004.5,-915.21 1004.5,-915.21 1004.5,-927.21 1004.5,-927.21 1004.5,-933.21 998.5,-939.21 992.5,-939.21"/>
<text text-anchor="middle" x="977.5" y="-919.01" font-family="Avenir Next" font-size="9.00" fill="#41515b">EOS325</text>
</a>
</g>
</g>
<!-- course__EOS340 -->
<g id="node26" class="node">
<title>course__EOS340</title>
<g id="a_node26"><a xlink:href="../../../courses/EOS340.html" xlink:title="Equivalent or cross&#45;listed: EOS340: Atmospheric Physics | PHYS340: Atmospheric Physics" target="_top">
<path fill="#d7e9ef" stroke="#1b2730" stroke-width="1.6" d="M1282,-687.21C1282,-687.21 1199,-687.21 1199,-687.21 1193,-687.21 1187,-681.21 1187,-675.21 1187,-675.21 1187,-663.21 1187,-663.21 1187,-657.21 1193,-651.21 1199,-651.21 1199,-651.21 1282,-651.21 1282,-651.21 1288,-651.21 1294,-657.21 1294,-663.21 1294,-663.21 1294,-675.21 1294,-675.21 1294,-681.21 1288,-687.21 1282,-687.21"/>
<text text-anchor="middle" x="1240.5" y="-666.71" font-family="Avenir Next" font-size="10.00" fill="#17232b">EOS340 / PHYS340</text>
</a>
</g>
</g>
<!-- course__EOS325&#45;&gt;course__EOS340 -->
<g id="edge37" class="edge">
<title>course__EOS325&#45;&gt;course__EOS340</title>
<path fill="none" stroke="#5d6972" stroke-width="1.2" d="M997.27,-903.08C1043.72,-858.24 1163.97,-742.14 1215.49,-692.39"/>
<polygon fill="#5d6972" stroke="#5d6972" stroke-width="1.2" points="1217.21,-694.13 1220.55,-687.5 1213.81,-690.6 1217.21,-694.13"/>
</g>
<!-- course__EOS423 -->
<g id="node31" class="node">
<title>course__EOS423</title>
<g id="a_node31"><a xlink:href="../../../courses/EOS423.html" xlink:title="EOS423: Advanced Sedimentology and Stratigraphy" target="_top">
<path fill="#d7e9ef" stroke="#7e8d96" d="M1255.5,-1051.21C1255.5,-1051.21 1225.5,-1051.21 1225.5,-1051.21 1219.5,-1051.21 1213.5,-1045.21 1213.5,-1039.21 1213.5,-1039.21 1213.5,-1027.21 1213.5,-1027.21 1213.5,-1021.21 1219.5,-1015.21 1225.5,-1015.21 1225.5,-1015.21 1255.5,-1015.21 1255.5,-1015.21 1261.5,-1015.21 1267.5,-1021.21 1267.5,-1027.21 1267.5,-1027.21 1267.5,-1039.21 1267.5,-1039.21 1267.5,-1045.21 1261.5,-1051.21 1255.5,-1051.21"/>
<text text-anchor="middle" x="1240.5" y="-1031.01" font-family="Avenir Next" font-size="9.00" fill="#41515b">EOS423</text>
</a>
</g>
</g>
<!-- course__EOS325&#45;&gt;course__EOS423 -->
<g id="edge48" class="edge">
<title>course__EOS325&#45;&gt;course__EOS423</title>
<path fill="none" stroke="#5d6972" stroke-width="1.2" d="M1004.96,-932.56C1052.96,-953.16 1154.25,-996.62 1206.61,-1019.09"/>
<polygon fill="#5d6972" stroke="#5d6972" stroke-width="1.2" points="1205.96,-1021.48 1213.36,-1021.99 1207.89,-1016.98 1205.96,-1021.48"/>
</g>
<!-- course__EOS431 -->
<g id="node33" class="node">
<title>course__EOS431</title>
<g id="a_node33"><a xlink:href="../../../courses/EOS431.html" xlink:title="Equivalent or cross&#45;listed: EOS431: Physical Oceanography | PHYS441: Physical Oceanography" target="_top">
<path fill="#d7e9ef" stroke="#1b2730" stroke-width="1.6" d="M1282,-939.21C1282,-939.21 1199,-939.21 1199,-939.21 1193,-939.21 1187,-933.21 1187,-927.21 1187,-927.21 1187,-915.21 1187,-915.21 1187,-909.21 1193,-903.21 1199,-903.21 1199,-903.21 1282,-903.21 1282,-903.21 1288,-903.21 1294,-909.21 1294,-915.21 1294,-915.21 1294,-927.21 1294,-927.21 1294,-933.21 1288,-939.21 1282,-939.21"/>
<text text-anchor="middle" x="1240.5" y="-918.71" font-family="Avenir Next" font-size="10.00" fill="#17232b">EOS431 / PHYS441</text>
</a>
</g>
</g>
<!-- course__EOS325&#45;&gt;course__EOS431 -->
<g id="edge53" class="edge">
<title>course__EOS325&#45;&gt;course__EOS431</title>
<path fill="none" stroke="#5d6972" stroke-width="1.2" d="M1004.96,-921.21C1045.64,-921.21 1124.6,-921.21 1179.61,-921.21"/>
<polygon fill="#5d6972" stroke="#5d6972" stroke-width="1.2" points="1179.87,-923.66 1186.87,-921.21 1179.87,-918.76 1179.87,-923.66"/>
</g>
<!-- course__EOS325&#45;&gt;choice_EOS460_0_0 -->
<g id="edge58" class="edge">
<title>course__EOS325&#45;&gt;choice_EOS460_0_0</title>
<path fill="none" stroke="#7a8389" d="M1004.72,-915.06C1022.39,-910.92 1045.84,-905.43 1064.81,-900.98"/>
<polygon fill="#7a8389" stroke="#7a8389" points="1065.58,-903.32 1071.84,-899.34 1064.46,-898.55 1065.58,-903.32"/>
</g>
<!-- course__MATH449 -->
<g id="node35" class="node">
<title>course__MATH449</title>
<g id="a_node35"><a xlink:href="../../../courses/MATH449.html" xlink:title="MATH449: Scientific Computing" target="_top">
<path fill="#dfe3f4" stroke="#7e8d96" d="M1258,-99.21C1258,-99.21 1223,-99.21 1223,-99.21 1217,-99.21 1211,-93.21 1211,-87.21 1211,-87.21 1211,-75.21 1211,-75.21 1211,-69.21 1217,-63.21 1223,-63.21 1223,-63.21 1258,-63.21 1258,-63.21 1264,-63.21 1270,-69.21 1270,-75.21 1270,-75.21 1270,-87.21 1270,-87.21 1270,-93.21 1264,-99.21 1258,-99.21"/>
<text text-anchor="middle" x="1240.5" y="-79.01" font-family="Avenir Next" font-size="9.00" fill="#41515b">MATH449</text>
</a>
</g>
</g>
<!-- course__MATH348&#45;&gt;course__MATH449 -->
<g id="edge70" class="edge">
<title>course__MATH348&#45;&gt;course__MATH449</title>
<path fill="none" stroke="#5d6972" stroke-width="1.2" d="M1004.82,-192.98C1023.19,-180.67 1048.53,-164.48 1072,-152.21 1116.21,-129.08 1169.64,-107.46 1204.07,-94.29"/>
<polygon fill="#5d6972" stroke="#5d6972" stroke-width="1.2" points="1205.03,-96.55 1210.7,-91.77 1203.29,-91.97 1205.03,-96.55"/>
</g>
<!-- course__EOS427 -->
<g id="node32" class="node">
<title>course__EOS427</title>
<g id="a_node32"><a xlink:href="../../../courses/EOS427.html" xlink:title="Equivalent or cross&#45;listed: EOS427: Geophysics | PHYS427: Geophysics" target="_top">
<path fill="#d7e9ef" stroke="#7e8d96" d="M1280.5,-155.21C1280.5,-155.21 1200.5,-155.21 1200.5,-155.21 1194.5,-155.21 1188.5,-149.21 1188.5,-143.21 1188.5,-143.21 1188.5,-131.21 1188.5,-131.21 1188.5,-125.21 1194.5,-119.21 1200.5,-119.21 1200.5,-119.21 1280.5,-119.21 1280.5,-119.21 1286.5,-119.21 1292.5,-125.21 1292.5,-131.21 1292.5,-131.21 1292.5,-143.21 1292.5,-143.21 1292.5,-149.21 1286.5,-155.21 1280.5,-155.21"/>
<text text-anchor="middle" x="1240.5" y="-135.01" font-family="Avenir Next" font-size="9.00" fill="#41515b">EOS427 / PHYS427</text>
</a>
</g>
</g>
<!-- course__PHYS321A&#45;&gt;course__EOS427 -->
<g id="edge49" class="edge">
<title>course__PHYS321A&#45;&gt;course__EOS427</title>
<path fill="none" stroke="#5d6972" stroke-width="1.2" d="M1011.33,-256.52C1029.24,-246.91 1051.81,-234.85 1072,-224.21 1114.8,-201.65 1163.95,-176.17 1197.89,-158.64"/>
<polygon fill="#5d6972" stroke="#5d6972" stroke-width="1.2" points="1199.37,-160.63 1204.47,-155.25 1197.12,-156.28 1199.37,-160.63"/>
</g>
<!-- course__PHYS321B -->
<g id="node36" class="node">
<title>course__PHYS321B</title>
<g id="a_node36"><a xlink:href="../../../courses/PHYS321B.html" xlink:title="PHYS321B: Classical Mechanics II" target="_top">
<path fill="#efd8cf" stroke="#7e8d96" d="M1260.5,-211.21C1260.5,-211.21 1220.5,-211.21 1220.5,-211.21 1214.5,-211.21 1208.5,-205.21 1208.5,-199.21 1208.5,-199.21 1208.5,-187.21 1208.5,-187.21 1208.5,-181.21 1214.5,-175.21 1220.5,-175.21 1220.5,-175.21 1260.5,-175.21 1260.5,-175.21 1266.5,-175.21 1272.5,-181.21 1272.5,-187.21 1272.5,-187.21 1272.5,-199.21 1272.5,-199.21 1272.5,-205.21 1266.5,-211.21 1260.5,-211.21"/>
<text text-anchor="middle" x="1240.5" y="-191.01" font-family="Avenir Next" font-size="9.00" fill="#41515b">PHYS321B</text>
</a>
</g>
</g>
<!-- course__PHYS321A&#45;&gt;course__PHYS321B -->
<g id="edge80" class="edge">
<title>course__PHYS321A&#45;&gt;course__PHYS321B</title>
<path fill="none" stroke="#5d6972" stroke-width="1.2" d="M1011.03,-264.11C1059.32,-249.12 1149.79,-221.05 1201.21,-205.09"/>
<polygon fill="#5d6972" stroke="#5d6972" stroke-width="1.2" points="1202.23,-207.34 1208.19,-202.92 1200.78,-202.66 1202.23,-207.34"/>
</g>
<!-- course__PHYS410 -->
<g id="node37" class="node">
<title>course__PHYS410</title>
<g id="a_node37"><a xlink:href="../../../courses/PHYS410.html" xlink:title="PHYS410: Topics in Mathematical Physics I" target="_top">
<path fill="#efd8cf" stroke="#7e8d96" d="M1257.5,-365.21C1257.5,-365.21 1223.5,-365.21 1223.5,-365.21 1217.5,-365.21 1211.5,-359.21 1211.5,-353.21 1211.5,-353.21 1211.5,-341.21 1211.5,-341.21 1211.5,-335.21 1217.5,-329.21 1223.5,-329.21 1223.5,-329.21 1257.5,-329.21 1257.5,-329.21 1263.5,-329.21 1269.5,-335.21 1269.5,-341.21 1269.5,-341.21 1269.5,-353.21 1269.5,-353.21 1269.5,-359.21 1263.5,-365.21 1257.5,-365.21"/>
<text text-anchor="middle" x="1240.5" y="-345.01" font-family="Avenir Next" font-size="9.00" fill="#41515b">PHYS410</text>
</a>
</g>
</g>
<!-- course__PHYS321A&#45;&gt;course__PHYS410 -->
<g id="edge86" class="edge">
<title>course__PHYS321A&#45;&gt;course__PHYS410</title>
<path fill="none" stroke="#5d6972" stroke-width="1.2" d="M1011.19,-290.19C1028.85,-298.32 1051.25,-307.8 1072,-314.21 1116.82,-328.04 1170.23,-337.38 1204.49,-342.5"/>
<polygon fill="#5d6972" stroke="#5d6972" stroke-width="1.2" points="1204.21,-344.93 1211.49,-343.52 1204.92,-340.08 1204.21,-344.93"/>
</g>
<!-- course__PHYS426 -->
<g id="node38" class="node">
<title>course__PHYS426</title>
<g id="a_node38"><a xlink:href="../../../courses/PHYS426.html" xlink:title="PHYS426: Fluid Mechanics" target="_top">
<path fill="#efd8cf" stroke="#7e8d96" d="M1257.5,-267.21C1257.5,-267.21 1223.5,-267.21 1223.5,-267.21 1217.5,-267.21 1211.5,-261.21 1211.5,-255.21 1211.5,-255.21 1211.5,-243.21 1211.5,-243.21 1211.5,-237.21 1217.5,-231.21 1223.5,-231.21 1223.5,-231.21 1257.5,-231.21 1257.5,-231.21 1263.5,-231.21 1269.5,-237.21 1269.5,-243.21 1269.5,-243.21 1269.5,-255.21 1269.5,-255.21 1269.5,-261.21 1263.5,-267.21 1257.5,-267.21"/>
<text text-anchor="middle" x="1240.5" y="-247.01" font-family="Avenir Next" font-size="9.00" fill="#41515b">PHYS426</text>
</a>
</g>
</g>
<!-- course__PHYS321A&#45;&gt;course__PHYS426 -->
<g id="edge93" class="edge">
<title>course__PHYS321A&#45;&gt;course__PHYS426</title>
<path fill="none" stroke="#5d6972" stroke-width="1.2" d="M1011.03,-271.09C1060.26,-266.37 1153.34,-257.46 1204.17,-252.59"/>
<polygon fill="#5d6972" stroke="#5d6972" stroke-width="1.2" points="1204.62,-255.01 1211.36,-251.9 1204.16,-250.13 1204.62,-255.01"/>
</g>
<!-- course__EOS451 -->
<g id="node41" class="node">
<title>course__EOS451</title>
<g id="a_node41"><a xlink:href="../../../courses/EOS451.html" xlink:title="EOS451: Introductory Dynamic Meteorology" target="_top">
<path fill="#d7e9ef" stroke="#7e8d96" d="M1515.5,-470.21C1515.5,-470.21 1485.5,-470.21 1485.5,-470.21 1479.5,-470.21 1473.5,-464.21 1473.5,-458.21 1473.5,-458.21 1473.5,-446.21 1473.5,-446.21 1473.5,-440.21 1479.5,-434.21 1485.5,-434.21 1485.5,-434.21 1515.5,-434.21 1515.5,-434.21 1521.5,-434.21 1527.5,-440.21 1527.5,-446.21 1527.5,-446.21 1527.5,-458.21 1527.5,-458.21 1527.5,-464.21 1521.5,-470.21 1515.5,-470.21"/>
<text text-anchor="middle" x="1500.5" y="-450.01" font-family="Avenir Next" font-size="9.00" fill="#41515b">EOS451</text>
</a>
</g>
</g>
<!-- course__PHYS321A&#45;&gt;course__EOS451 -->
<g id="edge57" class="edge">
<title>course__PHYS321A&#45;&gt;course__EOS451</title>
<path fill="none" stroke="#5d6972" stroke-width="1.2" d="M1001.62,-292.42C1019.91,-306.16 1046.52,-324.71 1072,-337.21 1209.43,-404.62 1391.76,-436.74 1465.96,-447.69"/>
<polygon fill="#5d6972" stroke="#5d6972" stroke-width="1.2" points="1465.93,-450.16 1473.21,-448.74 1466.64,-445.31 1465.93,-450.16"/>
</g>
<!-- choice_PHYS411_0_0 -->
<g id="node61" class="node">
<title>choice_PHYS411_0_0</title>
<path fill="#fff7ee" stroke="#b7793f" stroke-width="1.1" d="M1397,-316.21C1397,-316.21 1367,-316.21 1367,-316.21 1361,-316.21 1355,-310.21 1355,-304.21 1355,-304.21 1355,-292.21 1355,-292.21 1355,-286.21 1361,-280.21 1367,-280.21 1367,-280.21 1397,-280.21 1397,-280.21 1403,-280.21 1409,-286.21 1409,-292.21 1409,-292.21 1409,-304.21 1409,-304.21 1409,-310.21 1403,-316.21 1397,-316.21"/>
<text text-anchor="middle" x="1382" y="-296.01" font-family="Avenir Next" font-size="9.00">2 of</text>
</g>
<!-- course__PHYS321A&#45;&gt;choice_PHYS411_0_0 -->
<g id="edge89" class="edge">
<title>course__PHYS321A&#45;&gt;choice_PHYS411_0_0</title>
<path fill="none" stroke="#7a8389" d="M1011.1,-276.15C1086.43,-280.64 1271.93,-291.7 1347.82,-296.23"/>
<polygon fill="#7a8389" stroke="#7a8389" points="1347.69,-298.67 1354.82,-296.65 1347.98,-293.78 1347.69,-298.67"/>
</g>
<!-- course__PHYS323&#45;&gt;choice_PHYS411_0_0 -->
<g id="edge90" class="edge">
<title>course__PHYS323&#45;&gt;choice_PHYS411_0_0</title>
<path fill="none" stroke="#7a8389" d="M1005.08,-74.08C1063.3,-36.85 1204.06,39.46 1294,-26.21 1373.9,-84.54 1382.1,-217.19 1381.83,-272.86"/>
<polygon fill="#7a8389" stroke="#7a8389" points="1379.38,-272.86 1381.75,-279.88 1384.28,-272.91 1379.38,-272.86"/>
</g>
<!-- course__PHYS326&#45;&gt;course__EOS427 -->
<g id="edge50" class="edge">
<title>course__PHYS326&#45;&gt;course__EOS427</title>
<path fill="none" stroke="#5d6972" stroke-width="1.2" d="M1006.68,-147.02C1048.18,-145.27 1126.69,-141.96 1180.99,-139.67"/>
<polygon fill="#5d6972" stroke="#5d6972" stroke-width="1.2" points="1181.26,-142.11 1188.15,-139.37 1181.06,-137.22 1181.26,-142.11"/>
</g>
<!-- course__PHYS326&#45;&gt;choice_PHYS411_0_0 -->
<g id="edge91" class="edge">
<title>course__PHYS326&#45;&gt;choice_PHYS411_0_0</title>
<path fill="none" stroke="#7a8389" d="M1000.07,-130.03C1054.22,-86.68 1198.44,14.27 1294,-53.21 1366.4,-104.32 1378.92,-221.15 1380.82,-272.82"/>
<polygon fill="#7a8389" stroke="#7a8389" points="1378.38,-273.03 1381.03,-279.96 1383.28,-272.89 1378.38,-273.03"/>
</g>
<!-- course__EOS433 -->
<g id="node40" class="node">
<title>course__EOS433</title>
<g id="a_node40"><a xlink:href="../../../courses/EOS433.html" xlink:title="EOS433: The Physics of Climate" target="_top">
<path fill="#d7e9ef" stroke="#7e8d96" d="M1515.5,-673.21C1515.5,-673.21 1485.5,-673.21 1485.5,-673.21 1479.5,-673.21 1473.5,-667.21 1473.5,-661.21 1473.5,-661.21 1473.5,-649.21 1473.5,-649.21 1473.5,-643.21 1479.5,-637.21 1485.5,-637.21 1485.5,-637.21 1515.5,-637.21 1515.5,-637.21 1521.5,-637.21 1527.5,-643.21 1527.5,-649.21 1527.5,-649.21 1527.5,-661.21 1527.5,-661.21 1527.5,-667.21 1521.5,-673.21 1515.5,-673.21"/>
<text text-anchor="middle" x="1500.5" y="-653.01" font-family="Avenir Next" font-size="9.00" fill="#41515b">EOS433</text>
</a>
</g>
</g>
<!-- course__EOS340&#45;&gt;course__EOS433 -->
<g id="edge55" class="edge">
<title>course__EOS340&#45;&gt;course__EOS433</title>
<path fill="none" stroke="#5d6972" stroke-width="1.2" d="M1294.02,-666.36C1345.55,-663.56 1422.57,-659.38 1466.2,-657.01"/>
<polygon fill="#5d6972" stroke="#5d6972" stroke-width="1.2" points="1466.57,-659.45 1473.43,-656.62 1466.31,-654.55 1466.57,-659.45"/>
</g>
<!-- course__EOS340&#45;&gt;course__EOS451 -->
<g id="edge56" class="edge">
<title>course__EOS340&#45;&gt;course__EOS451</title>
<path fill="none" stroke="#5d6972" stroke-width="1.2" d="M1281.31,-651.16C1285.87,-648.2 1290.22,-644.88 1294,-641.21 1333.25,-603.05 1316.25,-572.88 1355,-534.21 1387.4,-501.87 1435.17,-478.11 1466.79,-464.72"/>
<polygon fill="#5d6972" stroke="#5d6972" stroke-width="1.2" points="1467.76,-466.97 1473.29,-462.02 1465.88,-462.45 1467.76,-466.97"/>
</g>
<!-- course__GEOG370 -->
<g id="node42" class="node">
<title>course__GEOG370</title>
<g id="a_node42"><a xlink:href="../../../courses/GEOG370.html" xlink:title="GEOG370: Methods in Hydrology" target="_top">
<path fill="#e7e2d8" stroke="#7e8d96" d="M1519,-617.21C1519,-617.21 1482,-617.21 1482,-617.21 1476,-617.21 1470,-611.21 1470,-605.21 1470,-605.21 1470,-593.21 1470,-593.21 1470,-587.21 1476,-581.21 1482,-581.21 1482,-581.21 1519,-581.21 1519,-581.21 1525,-581.21 1531,-587.21 1531,-593.21 1531,-593.21 1531,-605.21 1531,-605.21 1531,-611.21 1525,-617.21 1519,-617.21"/>
<text text-anchor="middle" x="1500.5" y="-597.01" font-family="Avenir Next" font-size="9.00" fill="#41515b">GEOG370</text>
</a>
</g>
</g>
<!-- course__EOS340&#45;&gt;course__GEOG370 -->
<g id="edge62" class="edge">
<title>course__EOS340&#45;&gt;course__GEOG370</title>
<path fill="none" stroke="#5d6972" stroke-width="1.2" d="M1294.02,-654.96C1344.37,-641.3 1419.04,-621.04 1463.14,-609.07"/>
<polygon fill="#5d6972" stroke="#5d6972" stroke-width="1.2" points="1463.83,-611.42 1469.95,-607.22 1462.55,-606.69 1463.83,-611.42"/>
</g>
<!-- course__GEOG489 -->
<g id="node43" class="node">
<title>course__GEOG489</title>
<g id="a_node43"><a xlink:href="../../../courses/GEOG489.html" xlink:title="GEOG489: Climate Solutions" target="_top">
<path fill="#e7e2d8" stroke="#7e8d96" d="M1519,-729.21C1519,-729.21 1482,-729.21 1482,-729.21 1476,-729.21 1470,-723.21 1470,-717.21 1470,-717.21 1470,-705.21 1470,-705.21 1470,-699.21 1476,-693.21 1482,-693.21 1482,-693.21 1519,-693.21 1519,-693.21 1525,-693.21 1531,-699.21 1531,-705.21 1531,-705.21 1531,-717.21 1531,-717.21 1531,-723.21 1525,-729.21 1519,-729.21"/>
<text text-anchor="middle" x="1500.5" y="-709.01" font-family="Avenir Next" font-size="9.00" fill="#41515b">GEOG489</text>
</a>
</g>
</g>
<!-- course__EOS340&#45;&gt;course__GEOG489 -->
<g id="edge67" class="edge">
<title>course__EOS340&#45;&gt;course__GEOG489</title>
<path fill="none" stroke="#5d6972" stroke-width="1.2" d="M1294.02,-677.76C1344.26,-685.94 1418.73,-698.06 1462.87,-705.24"/>
<polygon fill="#5d6972" stroke="#5d6972" stroke-width="1.2" points="1462.64,-707.69 1469.95,-706.4 1463.43,-702.85 1462.64,-707.69"/>
</g>
<!-- choice_GEOG405_0 -->
<g id="node60" class="node">
<title>choice_GEOG405_0</title>
<path fill="#fff7ee" stroke="#b7793f" stroke-width="1.1" d="M1634,-568.21C1634,-568.21 1604,-568.21 1604,-568.21 1598,-568.21 1592,-562.21 1592,-556.21 1592,-556.21 1592,-544.21 1592,-544.21 1592,-538.21 1598,-532.21 1604,-532.21 1604,-532.21 1634,-532.21 1634,-532.21 1640,-532.21 1646,-538.21 1646,-544.21 1646,-544.21 1646,-556.21 1646,-556.21 1646,-562.21 1640,-568.21 1634,-568.21"/>
<text text-anchor="middle" x="1619" y="-548.01" font-family="Avenir Next" font-size="9.00">1 of</text>
</g>
<!-- course__EOS340&#45;&gt;choice_GEOG405_0 -->
<g id="edge64" class="edge">
<title>course__EOS340&#45;&gt;choice_GEOG405_0</title>
<path fill="none" stroke="#7a8389" d="M1281.86,-651.2C1303.51,-641.6 1330.66,-629.65 1355,-619.21 1405.9,-597.37 1416.6,-585.88 1470,-571.21 1508.69,-560.57 1554.63,-555.13 1584.95,-552.48"/>
<polygon fill="#7a8389" stroke="#7a8389" points="1585.16,-554.92 1591.93,-551.89 1584.75,-550.03 1585.16,-554.92"/>
</g>
<!-- course__EOS340&#45;&gt;choice_PHYS411_0_0 -->
<g id="edge87" class="edge">
<title>course__EOS340&#45;&gt;choice_PHYS411_0_0</title>
<path fill="none" stroke="#7a8389" d="M1283.61,-651.14C1287.5,-648.25 1291.07,-644.95 1294,-641.21 1333.57,-590.7 1366.49,-394.24 1377.27,-323.65"/>
<polygon fill="#7a8389" stroke="#7a8389" points="1379.73,-323.73 1378.35,-316.45 1374.89,-323 1379.73,-323.73"/>
</g>
<!-- course__EOS431&#45;&gt;choice_EOS312_0_0 -->
<g id="edge15" class="edge">
<title>course__EOS431&#45;&gt;choice_EOS312_0_0</title>
<path fill="none" stroke="#7a8389" d="M1281.2,-939.37C1285.77,-942.31 1290.17,-945.59 1294,-949.21 1330.2,-983.3 1357.03,-1035.68 1370.74,-1066.38"/>
<polygon fill="#7a8389" stroke="#7a8389" points="1368.57,-1067.53 1373.62,-1072.96 1373.05,-1065.57 1368.57,-1067.53"/>
</g>
<!-- course__EOS431&#45;&gt;choice_EOS401_0_3 -->
<g id="edge40" class="edge">
<title>course__EOS431&#45;&gt;choice_EOS401_0_3</title>
<path fill="none" stroke="#7a8389" d="M1276.08,-939.34C1282.09,-942.58 1288.24,-945.95 1294,-949.21 1312.26,-959.52 1332.37,-971.5 1348.66,-981.36"/>
<polygon fill="#7a8389" stroke="#7a8389" points="1347.67,-983.63 1354.93,-985.17 1350.21,-979.44 1347.67,-983.63"/>
</g>
<!-- course__EOS431&#45;&gt;choice_PHYS411_0_0 -->
<g id="edge88" class="edge">
<title>course__EOS431&#45;&gt;choice_PHYS411_0_0</title>
<path fill="none" stroke="#7a8389" d="M1245.88,-902.94C1255.02,-864.77 1276.68,-773.76 1294,-697.21 1325.87,-556.33 1362.11,-387 1375.58,-323.71"/>
<polygon fill="#7a8389" stroke="#7a8389" points="1378.05,-323.88 1377.11,-316.52 1373.26,-322.86 1378.05,-323.88"/>
</g>
<!-- course__EOS312&#45;&gt;choice_EOS401_0 -->
<g id="edge42" class="edge">
<title>course__EOS312&#45;&gt;choice_EOS401_0</title>
<path fill="none" stroke="#7a8389" d="M1525.08,-1072.99C1543.47,-1058.78 1569.12,-1038.97 1588.81,-1023.75"/>
<polygon fill="#7a8389" stroke="#7a8389" points="1590.42,-1025.61 1594.46,-1019.39 1587.42,-1021.73 1590.42,-1025.61"/>
</g>
<!-- course__GEOG477 -->
<g id="node47" class="node">
<title>course__GEOG477</title>
<g id="a_node47"><a xlink:href="../../../courses/GEOG477.html" xlink:title="GEOG477: Field Studies in Physical Geography" target="_top">
<path fill="#e7e2d8" stroke="#7e8d96" d="M1756,-621.21C1756,-621.21 1719,-621.21 1719,-621.21 1713,-621.21 1707,-615.21 1707,-609.21 1707,-609.21 1707,-597.21 1707,-597.21 1707,-591.21 1713,-585.21 1719,-585.21 1719,-585.21 1756,-585.21 1756,-585.21 1762,-585.21 1768,-591.21 1768,-597.21 1768,-597.21 1768,-609.21 1768,-609.21 1768,-615.21 1762,-621.21 1756,-621.21"/>
<text text-anchor="middle" x="1737.5" y="-601.01" font-family="Avenir Next" font-size="9.00" fill="#41515b">GEOG477</text>
</a>
</g>
</g>
<!-- course__GEOG370&#45;&gt;course__GEOG477 -->
<g id="edge66" class="edge">
<title>course__GEOG370&#45;&gt;course__GEOG477</title>
<path fill="none" stroke="#5d6972" stroke-width="1.2" d="M1531.26,-599.71C1574.17,-600.44 1653.34,-601.79 1699.81,-602.58"/>
<polygon fill="#5d6972" stroke="#5d6972" stroke-width="1.2" points="1699.94,-605.03 1706.98,-602.7 1700.02,-600.13 1699.94,-605.03"/>
</g>
<!-- course__GEOG370&#45;&gt;choice_GEOG405_0 -->
<g id="edge63" class="edge">
<title>course__GEOG370&#45;&gt;choice_GEOG405_0</title>
<path fill="none" stroke="#7a8389" d="M1531.2,-586.71C1547.74,-579.76 1568.37,-571.08 1585.37,-563.93"/>
<polygon fill="#7a8389" stroke="#7a8389" points="1586.42,-566.15 1591.92,-561.17 1584.52,-561.63 1586.42,-566.15"/>
</g>
<!-- course__PHYS411 -->
<g id="node44" class="node">
<title>course__PHYS411</title>
<g id="a_node44"><a xlink:href="../../../courses/PHYS411.html" xlink:title="PHYS411: Time Series Analysis" target="_top">
<path fill="#efd8cf" stroke="#7e8d96" d="M1517.5,-316.21C1517.5,-316.21 1483.5,-316.21 1483.5,-316.21 1477.5,-316.21 1471.5,-310.21 1471.5,-304.21 1471.5,-304.21 1471.5,-292.21 1471.5,-292.21 1471.5,-286.21 1477.5,-280.21 1483.5,-280.21 1483.5,-280.21 1517.5,-280.21 1517.5,-280.21 1523.5,-280.21 1529.5,-286.21 1529.5,-292.21 1529.5,-292.21 1529.5,-304.21 1529.5,-304.21 1529.5,-310.21 1523.5,-316.21 1517.5,-316.21"/>
<text text-anchor="middle" x="1500.5" y="-296.01" font-family="Avenir Next" font-size="9.00" fill="#41515b">PHYS411</text>
</a>
</g>
</g>
<!-- course__EOS401 -->
<g id="node45" class="node">
<title>course__EOS401</title>
<g id="a_node45"><a xlink:href="../../../courses/EOS401.html" xlink:title="EOS401: Oceanographic Field School" target="_top">
<path fill="#d7e9ef" stroke="#7e8d96" d="M1752.5,-1019.21C1752.5,-1019.21 1722.5,-1019.21 1722.5,-1019.21 1716.5,-1019.21 1710.5,-1013.21 1710.5,-1007.21 1710.5,-1007.21 1710.5,-995.21 1710.5,-995.21 1710.5,-989.21 1716.5,-983.21 1722.5,-983.21 1722.5,-983.21 1752.5,-983.21 1752.5,-983.21 1758.5,-983.21 1764.5,-989.21 1764.5,-995.21 1764.5,-995.21 1764.5,-1007.21 1764.5,-1007.21 1764.5,-1013.21 1758.5,-1019.21 1752.5,-1019.21"/>
<text text-anchor="middle" x="1737.5" y="-999.01" font-family="Avenir Next" font-size="9.00" fill="#41515b">EOS401</text>
</a>
</g>
</g>
<!-- course__GEOG405 -->
<g id="node46" class="node">
<title>course__GEOG405</title>
<g id="a_node46"><a xlink:href="../../../courses/GEOG405.html" xlink:title="GEOG405: Dynamics of the Cryosphere" target="_top">
<path fill="#e7e2d8" stroke="#7e8d96" d="M1756,-565.21C1756,-565.21 1719,-565.21 1719,-565.21 1713,-565.21 1707,-559.21 1707,-553.21 1707,-553.21 1707,-541.21 1707,-541.21 1707,-535.21 1713,-529.21 1719,-529.21 1719,-529.21 1756,-529.21 1756,-529.21 1762,-529.21 1768,-535.21 1768,-541.21 1768,-541.21 1768,-553.21 1768,-553.21 1768,-559.21 1762,-565.21 1756,-565.21"/>
<text text-anchor="middle" x="1737.5" y="-545.01" font-family="Avenir Next" font-size="9.00" fill="#41515b">GEOG405</text>
</a>
</g>
</g>
<!-- choice_EOS261_0_2&#45;&gt;course__EOS261 -->
<g id="edge8" class="edge">
<title>choice_EOS261_0_2&#45;&gt;course__EOS261</title>
<path fill="none" stroke="#5d6972" stroke-width="1.2" d="M591.08,-875.95C615.09,-892.29 650.79,-916.59 676.62,-934.17"/>
<polygon fill="#5d6972" stroke="#5d6972" stroke-width="1.2" points="675.46,-936.35 682.63,-938.26 678.22,-932.3 675.46,-936.35"/>
</g>
<!-- choice_EOS311_0_3&#45;&gt;course__EOS311 -->
<g id="edge13" class="edge">
<title>choice_EOS311_0_3&#45;&gt;course__EOS311</title>
<path fill="none" stroke="#5d6972" stroke-width="1.2" d="M591.08,-690.21C607.68,-690.21 629.87,-690.21 650.53,-690.21"/>
<polygon fill="#5d6972" stroke="#5d6972" stroke-width="1.2" points="650.76,-692.66 657.76,-690.21 650.76,-687.76 650.76,-692.66"/>
</g>
<!-- choice_EOS312_0_0&#45;&gt;course__EOS312 -->
<g id="edge16" class="edge">
<title>choice_EOS312_0_0&#45;&gt;course__EOS312</title>
<path fill="none" stroke="#5d6972" stroke-width="1.2" d="M1409.14,-1091.21C1425.93,-1091.21 1447.9,-1091.21 1465.96,-1091.21"/>
<polygon fill="#5d6972" stroke="#5d6972" stroke-width="1.2" points="1466.44,-1093.66 1473.44,-1091.21 1466.44,-1088.76 1466.44,-1093.66"/>
</g>
<!-- choice_EOS314_0_1&#45;&gt;course__EOS314 -->
<g id="edge21" class="edge">
<title>choice_EOS314_0_1&#45;&gt;course__EOS314</title>
<path fill="none" stroke="#5d6972" stroke-width="1.2" d="M579.33,-932.32C605.53,-965.44 661.13,-1035.71 690.28,-1072.55"/>
<polygon fill="#5d6972" stroke="#5d6972" stroke-width="1.2" points="688.46,-1074.19 694.72,-1078.16 692.3,-1071.15 688.46,-1074.19"/>
</g>
<!-- choice_EOS321_0_1_0&#45;&gt;course__EOS321 -->
<g id="edge26" class="edge">
<title>choice_EOS321_0_1_0&#45;&gt;course__EOS321</title>
<path fill="none" stroke="#5d6972" stroke-width="1.2" d="M883.22,-1047.21C900.89,-1047.21 924.34,-1047.21 943.31,-1047.21"/>
<polygon fill="#5d6972" stroke="#5d6972" stroke-width="1.2" points="943.34,-1049.66 950.34,-1047.21 943.34,-1044.76 943.34,-1049.66"/>
</g>
<!-- choice_EOS325_0_1&#45;&gt;course__EOS325 -->
<g id="edge32" class="edge">
<title>choice_EOS325_0_1&#45;&gt;course__EOS325</title>
<path fill="none" stroke="#5d6972" stroke-width="1.2" d="M584.56,-820.54C605.35,-839.63 637.22,-867.65 652,-874.21 751.25,-918.24 882.75,-922.75 943.34,-922.19"/>
<polygon fill="#5d6972" stroke="#5d6972" stroke-width="1.2" points="943.41,-924.63 950.37,-922.09 943.34,-919.74 943.41,-924.63"/>
</g>
<!-- choice_EOS325_0_2_0&#45;&gt;course__EOS325 -->
<g id="edge33" class="edge">
<title>choice_EOS325_0_2_0&#45;&gt;course__EOS325</title>
<path fill="none" stroke="#5d6972" stroke-width="1.2" d="M883.22,-975.84C901.13,-965.36 924.96,-951.4 944.06,-940.21"/>
<polygon fill="#5d6972" stroke="#5d6972" stroke-width="1.2" points="945.53,-942.18 950.34,-936.53 943.06,-937.96 945.53,-942.18"/>
</g>
<!-- choice_EOS340_0&#45;&gt;course__EOS340 -->
<g id="edge36" class="edge">
<title>choice_EOS340_0&#45;&gt;course__EOS340</title>
<path fill="none" stroke="#5d6972" stroke-width="1.2" d="M591.24,-593.32C660.23,-596.44 852.35,-606.46 1011,-627.21 1068.63,-634.74 1133.78,-647.1 1179.73,-656.47"/>
<polygon fill="#5d6972" stroke="#5d6972" stroke-width="1.2" points="1179.3,-658.88 1186.65,-657.89 1180.28,-654.08 1179.3,-658.88"/>
</g>
<!-- choice_EOS401_0_3&#45;&gt;choice_EOS401_0 -->
<g id="edge43" class="edge">
<title>choice_EOS401_0_3&#45;&gt;choice_EOS401_0</title>
<path fill="none" stroke="#7a8389" d="M1409.05,-1001.21C1451.92,-1001.21 1537.32,-1001.21 1584.59,-1001.21"/>
<polygon fill="#7a8389" stroke="#7a8389" points="1584.84,-1003.66 1591.84,-1001.21 1584.84,-998.76 1584.84,-1003.66"/>
</g>
<!-- choice_EOS401_0&#45;&gt;course__EOS401 -->
<g id="edge44" class="edge">
<title>choice_EOS401_0&#45;&gt;course__EOS401</title>
<path fill="none" stroke="#5d6972" stroke-width="1.2" d="M1646.14,-1001.21C1662.93,-1001.21 1684.9,-1001.21 1702.96,-1001.21"/>
<polygon fill="#5d6972" stroke="#5d6972" stroke-width="1.2" points="1703.44,-1003.66 1710.44,-1001.21 1703.44,-998.76 1703.44,-1003.66"/>
</g>
<!-- choice_EOS431_0_1&#45;&gt;course__EOS431 -->
<g id="edge54" class="edge">
<title>choice_EOS431_0_1&#45;&gt;course__EOS431</title>
<path fill="none" stroke="#5d6972" stroke-width="1.2" d="M585.58,-764.31C602.28,-777.93 627.07,-795.8 652,-805.21 850.67,-880.19 922.65,-804.05 1126,-865.21 1153.19,-873.38 1181.86,-887.58 1203.58,-899.63"/>
<polygon fill="#5d6972" stroke="#5d6972" stroke-width="1.2" points="1202.5,-901.83 1209.8,-903.13 1204.9,-897.56 1202.5,-901.83"/>
</g>
<!-- choice_EOS460_0_0&#45;&gt;course__EOS460 -->
<g id="edge60" class="edge">
<title>choice_EOS460_0_0&#45;&gt;course__EOS460</title>
<path fill="none" stroke="#5d6972" stroke-width="1.2" d="M1126.3,-910.94C1143.38,-922.25 1166.24,-937.02 1187,-949.21 1193.35,-952.93 1200.23,-956.75 1206.85,-960.33"/>
<polygon fill="#5d6972" stroke="#5d6972" stroke-width="1.2" points="1206.04,-962.67 1213.36,-963.81 1208.35,-958.35 1206.04,-962.67"/>
</g>
<!-- choice_GEOG405_0&#45;&gt;course__GEOG405 -->
<g id="edge65" class="edge">
<title>choice_GEOG405_0&#45;&gt;course__GEOG405</title>
<path fill="none" stroke="#5d6972" stroke-width="1.2" d="M1646.14,-549.53C1661.88,-549.13 1682.15,-548.61 1699.51,-548.16"/>
<polygon fill="#5d6972" stroke="#5d6972" stroke-width="1.2" points="1699.81,-550.6 1706.75,-547.97 1699.69,-545.7 1699.81,-550.6"/>
</g>
<!-- choice_PHYS411_0_0&#45;&gt;course__PHYS411 -->
<g id="edge92" class="edge">
<title>choice_PHYS411_0_0&#45;&gt;course__PHYS411</title>
<path fill="none" stroke="#5d6972" stroke-width="1.2" d="M1409.14,-298.21C1425.35,-298.21 1446.37,-298.21 1464.05,-298.21"/>
<polygon fill="#5d6972" stroke="#5d6972" stroke-width="1.2" points="1464.41,-300.66 1471.41,-298.21 1464.41,-295.76 1464.41,-300.66"/>
</g>
</g>
</svg>
