<?xml version="1.0" encoding="UTF-8" standalone="no"?>
<!DOCTYPE svg PUBLIC "-//W3C//DTD SVG 1.1//EN"
 "http://www.w3.org/Graphics/SVG/1.1/DTD/svg11.dtd">
<!-- Generated by graphviz version 2.43.0 (0)
 -->
<!-- Title: POLI350 Pages: 1 -->
<svg width="364pt" height="79pt"
 viewBox="0.00 0.00 364.20 79.20" xmlns="http://www.w3.org/2000/svg" xmlns:xlink="http://www.w3.org/1999/xlink">
<g id="graph0" class="graph" transform="scale(1 1) rotate(0) translate(21.6 57.6)">
<title>POLI350</title>
<!-- course__ADMN311 -->
<g id="node1" class="node">
<title>course__ADMN311</title>
<g id="a_node1"><a xlink:href="../../../courses/POLI350.html" xlink:title="Equivalent or cross&#45;listed: ADMN311: Introduction to Public Administration | POLI350: Introduction to Public Administration" target="_top">
<path fill="#f2ece3" stroke="#1f4f66" stroke-width="2" d="M183,-36C183,-36 12,-36 12,-36 6,-36 0,-30 0,-24 0,-24 0,-12 0,-12 0,-6 6,0 12,0 12,0 183,0 183,0 189,0 195,-6 195,-12 195,-12 195,-24 195,-24 195,-30 189,-36 183,-36"/>
<text text-anchor="middle" x="97.5" y="-21" font-family="Avenir Next" font-size="10.00" fill="#17232b">ADMN311 / POLI350</text>
<text text-anchor="middle" x="97.5" y="-10" font-family="Avenir Next" font-size="10.00" fill="#17232b">Introduction to Public Administration</text>
</a>
</g>
</g>
<!-- course__ADMN420 -->
<g id="node2" class="node">
<title>course__ADMN420</title>
<g id="a_node2"><a xlink:href="../../../courses/ADMN420.html" xlink:title="ADMN420: The Public Policy Process" target="_top">
<path fill="#f2ece3" stroke="#1b2730" stroke-width="1.6" d="M309,-36C309,-36 268,-36 268,-36 262,-36 256,-30 256,-24 256,-24 256,-12 256,-12 256,-6 262,0 268,0 268,0 309,0 309,0 315,0 321,-6 321,-12 321,-12 321,-24 321,-24 321,-30 315,-36 309,-36"/>
<text text-anchor="middle" x="288.5" y="-15.5" font-family="Avenir Next" font-size="10.00" fill="#17232b">ADMN420</text>
</a>
</g>
</g>
<!-- course__ADMN311&#45;&gt;course__ADMN420 -->
<g id="edge1" class="edge">
<title>course__ADMN311&#45;&gt;course__ADMN420</title>
<path fill="none" stroke="#5d6972" stroke-width="1.2" d="M195.21,-18C214.1,-18 232.87,-18 248.5,-18"/>
<polygon fill="#5d6972" stroke="#5d6972" stroke-width="1.2" points="248.91,-20.45 255.91,-18 248.91,-15.55 248.91,-20.45"/>
</g>
</g>
</svg>
