<?xml version="1.0" encoding="UTF-8" standalone="no"?>
<!DOCTYPE svg PUBLIC "-//W3C//DTD SVG 1.1//EN"
 "http://www.w3.org/Graphics/SVG/1.1/DTD/svg11.dtd">
<!-- Generated by graphviz version 2.43.0 (0)
 -->
<!-- Title: STAT353 Pages: 1 -->
<svg width="609pt" height="135pt"
 viewBox="0.00 0.00 609.20 135.20" xmlns="http://www.w3.org/2000/svg" xmlns:xlink="http://www.w3.org/1999/xlink">
<g id="graph0" class="graph" transform="scale(1 1) rotate(0) translate(21.6 113.6)">
<title>STAT353</title>
<!-- course__MATH100 -->
<g id="node1" class="node">
<title>course__MATH100</title>
<g id="a_node1"><a xlink:href="../../../courses/MATH100.html" xlink:title="Equivalent or cross&#45;listed: MATH100: Calculus I | MATH102: Calculus for Students in the Social and Biological Sciences | MATH109: Introduction to Calculus" target="_top">
<path fill="#dfe3f4" stroke="#7e8d96" d="M99,-92C99,-92 12,-92 12,-92 6,-92 0,-86 0,-80 0,-80 0,-68 0,-68 0,-62 6,-56 12,-56 12,-56 99,-56 99,-56 105,-56 111,-62 111,-68 111,-68 111,-80 111,-80 111,-86 105,-92 99,-92"/>
<text text-anchor="middle" x="55.5" y="-76.8" font-family="Avenir Next" font-size="9.00" fill="#41515b">MATH100 / MATH102</text>
<text text-anchor="middle" x="55.5" y="-66.8" font-family="Avenir Next" font-size="9.00" fill="#41515b">MATH109</text>
</a>
</g>
</g>
<!-- choice_MATH211_0 -->
<g id="node5" class="node">
<title>choice_MATH211_0</title>
<path fill="#fff7ee" stroke="#b7793f" stroke-width="1.1" d="M214,-64C214,-64 184,-64 184,-64 178,-64 172,-58 172,-52 172,-52 172,-40 172,-40 172,-34 178,-28 184,-28 184,-28 214,-28 214,-28 220,-28 226,-34 226,-40 226,-40 226,-52 226,-52 226,-58 220,-64 214,-64"/>
<text text-anchor="middle" x="199" y="-43.8" font-family="Avenir Next" font-size="9.00">1 of</text>
</g>
<!-- course__MATH100&#45;&gt;choice_MATH211_0 -->
<g id="edge1" class="edge">
<title>course__MATH100&#45;&gt;choice_MATH211_0</title>
<path fill="none" stroke="#7a8389" d="M111.21,-63.17C129.28,-59.6 148.83,-55.73 164.79,-52.57"/>
<polygon fill="#7a8389" stroke="#7a8389" points="165.46,-54.94 171.85,-51.17 164.51,-50.13 165.46,-54.94"/>
</g>
<!-- course__MATH151 -->
<g id="node2" class="node">
<title>course__MATH151</title>
<g id="a_node2"><a xlink:href="../../../courses/MATH151.html" xlink:title="MATH151: Finite Mathematics" target="_top">
<path fill="#dfe3f4" stroke="#7e8d96" d="M73,-36C73,-36 38,-36 38,-36 32,-36 26,-30 26,-24 26,-24 26,-12 26,-12 26,-6 32,0 38,0 38,0 73,0 73,0 79,0 85,-6 85,-12 85,-12 85,-24 85,-24 85,-30 79,-36 73,-36"/>
<text text-anchor="middle" x="55.5" y="-15.8" font-family="Avenir Next" font-size="9.00" fill="#41515b">MATH151</text>
</a>
</g>
</g>
<!-- course__MATH151&#45;&gt;choice_MATH211_0 -->
<g id="edge2" class="edge">
<title>course__MATH151&#45;&gt;choice_MATH211_0</title>
<path fill="none" stroke="#7a8389" d="M85.13,-23.67C108.21,-28.23 140.69,-34.66 164.89,-39.45"/>
<polygon fill="#7a8389" stroke="#7a8389" points="164.45,-41.86 171.79,-40.81 165.4,-37.05 164.45,-41.86"/>
</g>
<!-- course__MATH211 -->
<g id="node3" class="node">
<title>course__MATH211</title>
<g id="a_node3"><a xlink:href="../../../courses/MATH211.html" xlink:title="MATH211: Matrix Algebra I" target="_top">
<path fill="#dfe3f4" stroke="#1b2730" stroke-width="1.6" d="M338,-64C338,-64 299,-64 299,-64 293,-64 287,-58 287,-52 287,-52 287,-40 287,-40 287,-34 293,-28 299,-28 299,-28 338,-28 338,-28 344,-28 350,-34 350,-40 350,-40 350,-52 350,-52 350,-58 344,-64 338,-64"/>
<text text-anchor="middle" x="318.5" y="-43.5" font-family="Avenir Next" font-size="10.00" fill="#17232b">MATH211</text>
</a>
</g>
</g>
<!-- course__STAT353 -->
<g id="node4" class="node">
<title>course__STAT353</title>
<g id="a_node4"><a xlink:href="../../../courses/STAT353.html" xlink:title="STAT353: Applied Regression Analysis" target="_top">
<path fill="#e6dde9" stroke="#1f4f66" stroke-width="2" d="M554,-64C554,-64 423,-64 423,-64 417,-64 411,-58 411,-52 411,-52 411,-40 411,-40 411,-34 417,-28 423,-28 423,-28 554,-28 554,-28 560,-28 566,-34 566,-40 566,-40 566,-52 566,-52 566,-58 560,-64 554,-64"/>
<text text-anchor="middle" x="488.5" y="-49" font-family="Avenir Next" font-size="10.00" fill="#17232b">STAT353</text>
<text text-anchor="middle" x="488.5" y="-38" font-family="Avenir Next" font-size="10.00" fill="#17232b">Applied Regression Analysis</text>
</a>
</g>
</g>
<!-- course__MATH211&#45;&gt;course__STAT353 -->
<g id="edge4" class="edge">
<title>course__MATH211&#45;&gt;course__STAT353</title>
<path fill="none" stroke="#5d6972" stroke-width="1.2" d="M350.31,-46C365.5,-46 384.63,-46 403.73,-46"/>
<polygon fill="#5d6972" stroke="#5d6972" stroke-width="1.2" points="403.77,-48.45 410.77,-46 403.77,-43.55 403.77,-48.45"/>
</g>
<!-- choice_MATH211_0&#45;&gt;course__MATH211 -->
<g id="edge3" class="edge">
<title>choice_MATH211_0&#45;&gt;course__MATH211</title>
<path fill="none" stroke="#5d6972" stroke-width="1.2" d="M226.08,-46C241.81,-46 262.14,-46 279.62,-46"/>
<polygon fill="#5d6972" stroke="#5d6972" stroke-width="1.2" points="279.92,-48.45 286.92,-46 279.92,-43.55 279.92,-48.45"/>
</g>
</g>
</svg>
