<?xml version="1.0" encoding="UTF-8" standalone="no"?>
<!DOCTYPE svg PUBLIC "-//W3C//DTD SVG 1.1//EN"
 "http://www.w3.org/Graphics/SVG/1.1/DTD/svg11.dtd">
<!-- Generated by graphviz version 2.43.0 (0)
 -->
<!-- Title: STAT254 Pages: 1 -->
<svg width="727pt" height="359pt"
 viewBox="0.00 0.00 727.20 359.20" xmlns="http://www.w3.org/2000/svg" xmlns:xlink="http://www.w3.org/1999/xlink">
<g id="graph0" class="graph" transform="scale(1 1) rotate(0) translate(21.6 337.6)">
<title>STAT254</title>
<!-- course__MATH101 -->
<g id="node1" class="node">
<title>course__MATH101</title>
<g id="a_node1"><a xlink:href="../../../courses/MATH101.html" xlink:title="MATH101: Calculus II" target="_top">
<path fill="#dfe3f4" stroke="#1b2730" stroke-width="1.6" d="M51,-123C51,-123 12,-123 12,-123 6,-123 0,-117 0,-111 0,-111 0,-99 0,-99 0,-93 6,-87 12,-87 12,-87 51,-87 51,-87 57,-87 63,-93 63,-99 63,-99 63,-111 63,-111 63,-117 57,-123 51,-123"/>
<text text-anchor="middle" x="31.5" y="-102.5" font-family="Avenir Next" font-size="10.00" fill="#17232b">MATH101</text>
</a>
</g>
</g>
<!-- course__MATH200 -->
<g id="node2" class="node">
<title>course__MATH200</title>
<g id="a_node2"><a xlink:href="../../../courses/MATH200.html" xlink:title="Equivalent or cross&#45;listed: MATH200: Calculus III | MATH202: Intermediate Calculus for CSC and EOS" target="_top">
<path fill="#dfe3f4" stroke="#1b2730" stroke-width="1.6" d="M231,-99C231,-99 136,-99 136,-99 130,-99 124,-93 124,-87 124,-87 124,-75 124,-75 124,-69 130,-63 136,-63 136,-63 231,-63 231,-63 237,-63 243,-69 243,-75 243,-75 243,-87 243,-87 243,-93 237,-99 231,-99"/>
<text text-anchor="middle" x="183.5" y="-78.5" font-family="Avenir Next" font-size="10.00" fill="#17232b">MATH200 / MATH202</text>
</a>
</g>
</g>
<!-- course__MATH101&#45;&gt;course__MATH200 -->
<g id="edge4" class="edge">
<title>course__MATH101&#45;&gt;course__MATH200</title>
<path fill="none" stroke="#5d6972" stroke-width="1.2" d="M63.22,-100.09C78.65,-97.62 97.99,-94.52 116.57,-91.55"/>
<polygon fill="#5d6972" stroke="#5d6972" stroke-width="1.2" points="117.39,-93.9 123.92,-90.37 116.62,-89.06 117.39,-93.9"/>
</g>
<!-- course__STAT254 -->
<g id="node3" class="node">
<title>course__STAT254</title>
<g id="a_node3"><a xlink:href="../../../courses/STAT254.html" xlink:title="Collapsed in simplified view: STAT254: Probability and Statistics for Engineers | STAT255: Statistics for Life Sciences I | STAT260: Introduction to Probability and Statistics I" target="_top">
<path fill="#e6dde9" stroke="#1f4f66" stroke-width="2" d="M498,-148C498,-148 316,-148 316,-148 310,-148 304,-142 304,-136 304,-136 304,-124 304,-124 304,-118 310,-112 316,-112 316,-112 498,-112 498,-112 504,-112 510,-118 510,-124 510,-124 510,-136 510,-136 510,-142 504,-148 498,-148"/>
<text text-anchor="middle" x="407" y="-133" font-family="Avenir Next" font-size="10.00" fill="#17232b">Intro statistics</text>
<text text-anchor="middle" x="407" y="-122" font-family="Avenir Next" font-size="10.00" fill="#17232b">Probability and Statistics for Engineers</text>
</a>
</g>
</g>
<!-- course__MATH101&#45;&gt;course__STAT254 -->
<g id="edge9" class="edge">
<title>course__MATH101&#45;&gt;course__STAT254</title>
<path fill="none" stroke="#5d6972" stroke-width="1.2" d="M63.07,-107.05C113.55,-110.42 216.72,-117.33 296.78,-122.69"/>
<polygon fill="#5d6972" stroke="#5d6972" stroke-width="1.2" points="296.82,-125.15 303.97,-123.17 297.15,-120.26 296.82,-125.15"/>
</g>
<!-- course__MATH200&#45;&gt;course__STAT254 -->
<g id="edge8" class="edge">
<title>course__MATH200&#45;&gt;course__STAT254</title>
<path fill="none" stroke="#5d6972" stroke-width="1.2" d="M243.28,-94C266,-99.03 292.51,-104.89 317.45,-110.41"/>
<polygon fill="#5d6972" stroke="#5d6972" stroke-width="1.2" points="317.07,-112.84 324.43,-111.96 318.13,-108.05 317.07,-112.84"/>
</g>
<!-- course__MATH352 -->
<g id="node7" class="node">
<title>course__MATH352</title>
<g id="a_node7"><a xlink:href="../../../courses/MATH352.html" xlink:title="Equivalent or cross&#45;listed: MATH352: Introduction to Probability | STAT350: Mathematical Statistics I" target="_top">
<path fill="#dfe3f4" stroke="#1b2730" stroke-width="1.6" d="M672,-36C672,-36 583,-36 583,-36 577,-36 571,-30 571,-24 571,-24 571,-12 571,-12 571,-6 577,0 583,0 583,0 672,0 672,0 678,0 684,-6 684,-12 684,-12 684,-24 684,-24 684,-30 678,-36 672,-36"/>
<text text-anchor="middle" x="627.5" y="-15.5" font-family="Avenir Next" font-size="10.00" fill="#17232b">MATH352 / STAT350</text>
</a>
</g>
</g>
<!-- course__MATH200&#45;&gt;course__MATH352 -->
<g id="edge5" class="edge">
<title>course__MATH200&#45;&gt;course__MATH352</title>
<path fill="none" stroke="#5d6972" stroke-width="1.2" d="M243.19,-72.63C326.45,-60.77 478.19,-39.14 563.66,-26.96"/>
<polygon fill="#5d6972" stroke="#5d6972" stroke-width="1.2" points="564.12,-29.37 570.71,-25.95 563.43,-24.52 564.12,-29.37"/>
</g>
<!-- course__BIOL319 -->
<g id="node4" class="node">
<title>course__BIOL319</title>
<g id="a_node4"><a xlink:href="../../../courses/BIOL319.html" xlink:title="BIOL319: Marine Ecology" target="_top">
<path fill="#dbe8d2" stroke="#1b2730" stroke-width="1.6" d="M644,-316C644,-316 611,-316 611,-316 605,-316 599,-310 599,-304 599,-304 599,-292 599,-292 599,-286 605,-280 611,-280 611,-280 644,-280 644,-280 650,-280 656,-286 656,-292 656,-292 656,-304 656,-304 656,-310 650,-316 644,-316"/>
<text text-anchor="middle" x="627.5" y="-295.5" font-family="Avenir Next" font-size="10.00" fill="#17232b">BIOL319</text>
</a>
</g>
</g>
<!-- course__STAT254&#45;&gt;course__BIOL319 -->
<g id="edge1" class="edge">
<title>course__STAT254&#45;&gt;course__BIOL319</title>
<path fill="none" stroke="#5d6972" stroke-width="1.2" d="M426.35,-148.42C455.32,-176.85 514.22,-232.11 571,-270 577.67,-274.45 585.14,-278.67 592.38,-282.43"/>
<polygon fill="#5d6972" stroke="#5d6972" stroke-width="1.2" points="591.59,-284.77 598.94,-285.74 593.8,-280.4 591.59,-284.77"/>
</g>
<!-- course__BIOL330 -->
<g id="node5" class="node">
<title>course__BIOL330</title>
<g id="a_node5"><a xlink:href="../../../courses/BIOL330.html" xlink:title="BIOL330: Study Design and Data Analysis" target="_top">
<path fill="#dbe8d2" stroke="#1b2730" stroke-width="1.6" d="M644,-260C644,-260 611,-260 611,-260 605,-260 599,-254 599,-248 599,-248 599,-236 599,-236 599,-230 605,-224 611,-224 611,-224 644,-224 644,-224 650,-224 656,-230 656,-236 656,-236 656,-248 656,-248 656,-254 650,-260 644,-260"/>
<text text-anchor="middle" x="627.5" y="-239.5" font-family="Avenir Next" font-size="10.00" fill="#17232b">BIOL330</text>
</a>
</g>
</g>
<!-- course__STAT254&#45;&gt;course__BIOL330 -->
<g id="edge2" class="edge">
<title>course__STAT254&#45;&gt;course__BIOL330</title>
<path fill="none" stroke="#5d6972" stroke-width="1.2" d="M442.93,-148.11C475.91,-165.18 526.76,-191.44 571,-214 577.92,-217.53 585.33,-221.29 592.42,-224.86"/>
<polygon fill="#5d6972" stroke="#5d6972" stroke-width="1.2" points="591.46,-227.12 598.81,-228.09 593.67,-222.75 591.46,-227.12"/>
</g>
<!-- course__BIOL370 -->
<g id="node6" class="node">
<title>course__BIOL370</title>
<g id="a_node6"><a xlink:href="../../../courses/BIOL370.html" xlink:title="BIOL370: Conservation Biology" target="_top">
<path fill="#dbe8d2" stroke="#1b2730" stroke-width="1.6" d="M644,-204C644,-204 611,-204 611,-204 605,-204 599,-198 599,-192 599,-192 599,-180 599,-180 599,-174 605,-168 611,-168 611,-168 644,-168 644,-168 650,-168 656,-174 656,-180 656,-180 656,-192 656,-192 656,-198 650,-204 644,-204"/>
<text text-anchor="middle" x="627.5" y="-183.5" font-family="Avenir Next" font-size="10.00" fill="#17232b">BIOL370</text>
</a>
</g>
</g>
<!-- course__STAT254&#45;&gt;course__BIOL370 -->
<g id="edge3" class="edge">
<title>course__STAT254&#45;&gt;course__BIOL370</title>
<path fill="none" stroke="#5d6972" stroke-width="1.2" d="M478.34,-148.03C516.34,-157.77 561.56,-169.36 591.96,-177.15"/>
<polygon fill="#5d6972" stroke="#5d6972" stroke-width="1.2" points="591.59,-179.58 598.98,-178.95 592.8,-174.83 591.59,-179.58"/>
</g>
<!-- course__STAT254&#45;&gt;course__MATH352 -->
<g id="edge6" class="edge">
<title>course__STAT254&#45;&gt;course__MATH352</title>
<path fill="none" stroke="#5d6972" stroke-width="1.2" d="M442.93,-111.89C475.91,-94.82 526.76,-68.56 571,-46 575.26,-43.83 579.72,-41.57 584.16,-39.31"/>
<polygon fill="#5d6972" stroke="#5d6972" stroke-width="1.2" points="585.51,-41.38 590.65,-36.03 583.3,-37 585.51,-41.38"/>
</g>
<!-- course__MATH377 -->
<g id="node8" class="node">
<title>course__MATH377</title>
<g id="a_node8"><a xlink:href="../../../courses/MATH377.html" xlink:title="MATH377: Mathematical Modelling" target="_top">
<path fill="#dfe3f4" stroke="#1b2730" stroke-width="1.6" d="M647,-148C647,-148 608,-148 608,-148 602,-148 596,-142 596,-136 596,-136 596,-124 596,-124 596,-118 602,-112 608,-112 608,-112 647,-112 647,-112 653,-112 659,-118 659,-124 659,-124 659,-136 659,-136 659,-142 653,-148 647,-148"/>
<text text-anchor="middle" x="627.5" y="-127.5" font-family="Avenir Next" font-size="10.00" fill="#17232b">MATH377</text>
</a>
</g>
</g>
<!-- course__STAT254&#45;&gt;course__MATH377 -->
<g id="edge7" class="edge">
<title>course__STAT254&#45;&gt;course__MATH377</title>
<path fill="none" stroke="#5d6972" stroke-width="1.2" d="M510.21,-130C538.15,-130 566.71,-130 588.53,-130"/>
<polygon fill="#5d6972" stroke="#5d6972" stroke-width="1.2" points="588.66,-132.45 595.66,-130 588.66,-127.55 588.66,-132.45"/>
</g>
<!-- course__STAT359 -->
<g id="node9" class="node">
<title>course__STAT359</title>
<g id="a_node9"><a xlink:href="../../../courses/STAT359.html" xlink:title="STAT359: Data Analysis" target="_top">
<path fill="#e6dde9" stroke="#1b2730" stroke-width="1.6" d="M644.5,-92C644.5,-92 610.5,-92 610.5,-92 604.5,-92 598.5,-86 598.5,-80 598.5,-80 598.5,-68 598.5,-68 598.5,-62 604.5,-56 610.5,-56 610.5,-56 644.5,-56 644.5,-56 650.5,-56 656.5,-62 656.5,-68 656.5,-68 656.5,-80 656.5,-80 656.5,-86 650.5,-92 644.5,-92"/>
<text text-anchor="middle" x="627.5" y="-71.5" font-family="Avenir Next" font-size="10.00" fill="#17232b">STAT359</text>
</a>
</g>
</g>
<!-- course__STAT254&#45;&gt;course__STAT359 -->
<g id="edge10" class="edge">
<title>course__STAT254&#45;&gt;course__STAT359</title>
<path fill="none" stroke="#5d6972" stroke-width="1.2" d="M478.34,-111.97C516.1,-102.29 561.01,-90.79 591.41,-82.99"/>
<polygon fill="#5d6972" stroke="#5d6972" stroke-width="1.2" points="592.25,-85.31 598.43,-81.2 591.04,-80.56 592.25,-85.31"/>
</g>
</g>
</svg>
