<?xml version="1.0" encoding="UTF-8" standalone="no"?>
<!DOCTYPE svg PUBLIC "-//W3C//DTD SVG 1.1//EN"
 "http://www.w3.org/Graphics/SVG/1.1/DTD/svg11.dtd">
<!-- Generated by graphviz version 2.43.0 (0)
 -->
<!-- Title: STAT260 Pages: 1 -->
<svg width="739pt" height="359pt"
 viewBox="0.00 0.00 739.20 359.20" xmlns="http://www.w3.org/2000/svg" xmlns:xlink="http://www.w3.org/1999/xlink">
<g id="graph0" class="graph" transform="scale(1 1) rotate(0) translate(21.6 337.6)">
<title>STAT260</title>
<!-- course__MATH101 -->
<g id="node1" class="node">
<title>course__MATH101</title>
<g id="a_node1"><a xlink:href="../../../courses/MATH101.html" xlink:title="MATH101: Calculus II" target="_top">
<path fill="#dfe3f4" stroke="#1b2730" stroke-width="1.6" d="M51,-123C51,-123 12,-123 12,-123 6,-123 0,-117 0,-111 0,-111 0,-99 0,-99 0,-93 6,-87 12,-87 12,-87 51,-87 51,-87 57,-87 63,-93 63,-99 63,-99 63,-111 63,-111 63,-117 57,-123 51,-123"/>
<text text-anchor="middle" x="31.5" y="-102.5" font-family="Avenir Next" font-size="10.00" fill="#17232b">MATH101</text>
</a>
</g>
</g>
<!-- course__MATH200 -->
<g id="node2" class="node">
<title>course__MATH200</title>
<g id="a_node2"><a xlink:href="../../../courses/MATH200.html" xlink:title="Equivalent or cross&#45;listed: MATH200: Calculus III | MATH202: Intermediate Calculus for CSC and EOS" target="_top">
<path fill="#dfe3f4" stroke="#1b2730" stroke-width="1.6" d="M231,-99C231,-99 136,-99 136,-99 130,-99 124,-93 124,-87 124,-87 124,-75 124,-75 124,-69 130,-63 136,-63 136,-63 231,-63 231,-63 237,-63 243,-69 243,-75 243,-75 243,-87 243,-87 243,-93 237,-99 231,-99"/>
<text text-anchor="middle" x="183.5" y="-78.5" font-family="Avenir Next" font-size="10.00" fill="#17232b">MATH200 / MATH202</text>
</a>
</g>
</g>
<!-- course__MATH101&#45;&gt;course__MATH200 -->
<g id="edge4" class="edge">
<title>course__MATH101&#45;&gt;course__MATH200</title>
<path fill="none" stroke="#5d6972" stroke-width="1.2" d="M63.22,-100.09C78.65,-97.62 97.99,-94.52 116.57,-91.55"/>
<polygon fill="#5d6972" stroke="#5d6972" stroke-width="1.2" points="117.39,-93.9 123.92,-90.37 116.62,-89.06 117.39,-93.9"/>
</g>
<!-- course__STAT254 -->
<g id="node3" class="node">
<title>course__STAT254</title>
<g id="a_node3"><a xlink:href="../../../courses/STAT260.html" xlink:title="Collapsed in simplified view: STAT254: Probability and Statistics for Engineers | STAT255: Statistics for Life Sciences I | STAT260: Introduction to Probability and Statistics I" target="_top">
<path fill="#e6dde9" stroke="#1f4f66" stroke-width="2" d="M510,-148C510,-148 316,-148 316,-148 310,-148 304,-142 304,-136 304,-136 304,-124 304,-124 304,-118 310,-112 316,-112 316,-112 510,-112 510,-112 516,-112 522,-118 522,-124 522,-124 522,-136 522,-136 522,-142 516,-148 510,-148"/>
<text text-anchor="middle" x="413" y="-133" font-family="Avenir Next" font-size="10.00" fill="#17232b">Intro statistics</text>
<text text-anchor="middle" x="413" y="-122" font-family="Avenir Next" font-size="10.00" fill="#17232b">Introduction to Probability and Statistics I</text>
</a>
</g>
</g>
<!-- course__MATH101&#45;&gt;course__STAT254 -->
<g id="edge9" class="edge">
<title>course__MATH101&#45;&gt;course__STAT254</title>
<path fill="none" stroke="#5d6972" stroke-width="1.2" d="M63.23,-107.02C113.51,-110.34 215.82,-117.08 296.69,-122.4"/>
<polygon fill="#5d6972" stroke="#5d6972" stroke-width="1.2" points="296.81,-124.87 303.96,-122.88 297.13,-119.98 296.81,-124.87"/>
</g>
<!-- course__MATH200&#45;&gt;course__STAT254 -->
<g id="edge8" class="edge">
<title>course__MATH200&#45;&gt;course__STAT254</title>
<path fill="none" stroke="#5d6972" stroke-width="1.2" d="M243.09,-93.62C266.9,-98.75 294.96,-104.79 321.3,-110.46"/>
<polygon fill="#5d6972" stroke="#5d6972" stroke-width="1.2" points="320.96,-112.9 328.31,-111.98 321.99,-108.11 320.96,-112.9"/>
</g>
<!-- course__MATH352 -->
<g id="node7" class="node">
<title>course__MATH352</title>
<g id="a_node7"><a xlink:href="../../../courses/MATH352.html" xlink:title="Equivalent or cross&#45;listed: MATH352: Introduction to Probability | STAT350: Mathematical Statistics I" target="_top">
<path fill="#dfe3f4" stroke="#1b2730" stroke-width="1.6" d="M684,-36C684,-36 595,-36 595,-36 589,-36 583,-30 583,-24 583,-24 583,-12 583,-12 583,-6 589,0 595,0 595,0 684,0 684,0 690,0 696,-6 696,-12 696,-12 696,-24 696,-24 696,-30 690,-36 684,-36"/>
<text text-anchor="middle" x="639.5" y="-15.5" font-family="Avenir Next" font-size="10.00" fill="#17232b">MATH352 / STAT350</text>
</a>
</g>
</g>
<!-- course__MATH200&#45;&gt;course__MATH352 -->
<g id="edge5" class="edge">
<title>course__MATH200&#45;&gt;course__MATH352</title>
<path fill="none" stroke="#5d6972" stroke-width="1.2" d="M243.39,-72.83C329.23,-60.92 488.06,-38.88 575.94,-26.68"/>
<polygon fill="#5d6972" stroke="#5d6972" stroke-width="1.2" points="576.32,-29.1 582.92,-25.71 575.65,-24.25 576.32,-29.1"/>
</g>
<!-- course__BIOL319 -->
<g id="node4" class="node">
<title>course__BIOL319</title>
<g id="a_node4"><a xlink:href="../../../courses/BIOL319.html" xlink:title="BIOL319: Marine Ecology" target="_top">
<path fill="#dbe8d2" stroke="#1b2730" stroke-width="1.6" d="M656,-316C656,-316 623,-316 623,-316 617,-316 611,-310 611,-304 611,-304 611,-292 611,-292 611,-286 617,-280 623,-280 623,-280 656,-280 656,-280 662,-280 668,-286 668,-292 668,-292 668,-304 668,-304 668,-310 662,-316 656,-316"/>
<text text-anchor="middle" x="639.5" y="-295.5" font-family="Avenir Next" font-size="10.00" fill="#17232b">BIOL319</text>
</a>
</g>
</g>
<!-- course__STAT254&#45;&gt;course__BIOL319 -->
<g id="edge1" class="edge">
<title>course__STAT254&#45;&gt;course__BIOL319</title>
<path fill="none" stroke="#5d6972" stroke-width="1.2" d="M433.16,-148.35C463.37,-176.68 524.66,-231.82 583,-270 589.64,-274.34 597.04,-278.5 604.22,-282.22"/>
<polygon fill="#5d6972" stroke="#5d6972" stroke-width="1.2" points="603.37,-284.54 610.72,-285.51 605.58,-280.16 603.37,-284.54"/>
</g>
<!-- course__BIOL330 -->
<g id="node5" class="node">
<title>course__BIOL330</title>
<g id="a_node5"><a xlink:href="../../../courses/BIOL330.html" xlink:title="BIOL330: Study Design and Data Analysis" target="_top">
<path fill="#dbe8d2" stroke="#1b2730" stroke-width="1.6" d="M656,-260C656,-260 623,-260 623,-260 617,-260 611,-254 611,-248 611,-248 611,-236 611,-236 611,-230 617,-224 623,-224 623,-224 656,-224 656,-224 662,-224 668,-230 668,-236 668,-236 668,-248 668,-248 668,-254 662,-260 656,-260"/>
<text text-anchor="middle" x="639.5" y="-239.5" font-family="Avenir Next" font-size="10.00" fill="#17232b">BIOL330</text>
</a>
</g>
</g>
<!-- course__STAT254&#45;&gt;course__BIOL330 -->
<g id="edge2" class="edge">
<title>course__STAT254&#45;&gt;course__BIOL330</title>
<path fill="none" stroke="#5d6972" stroke-width="1.2" d="M450.57,-148.24C493.15,-169.48 562.91,-204.29 604.4,-224.99"/>
<polygon fill="#5d6972" stroke="#5d6972" stroke-width="1.2" points="603.45,-227.25 610.81,-228.18 605.64,-222.87 603.45,-227.25"/>
</g>
<!-- course__BIOL370 -->
<g id="node6" class="node">
<title>course__BIOL370</title>
<g id="a_node6"><a xlink:href="../../../courses/BIOL370.html" xlink:title="BIOL370: Conservation Biology" target="_top">
<path fill="#dbe8d2" stroke="#1b2730" stroke-width="1.6" d="M656,-204C656,-204 623,-204 623,-204 617,-204 611,-198 611,-192 611,-192 611,-180 611,-180 611,-174 617,-168 623,-168 623,-168 656,-168 656,-168 662,-168 668,-174 668,-180 668,-180 668,-192 668,-192 668,-198 662,-204 656,-204"/>
<text text-anchor="middle" x="639.5" y="-183.5" font-family="Avenir Next" font-size="10.00" fill="#17232b">BIOL370</text>
</a>
</g>
</g>
<!-- course__STAT254&#45;&gt;course__BIOL370 -->
<g id="edge3" class="edge">
<title>course__STAT254&#45;&gt;course__BIOL370</title>
<path fill="none" stroke="#5d6972" stroke-width="1.2" d="M486.27,-148.03C525.71,-157.87 572.73,-169.6 603.98,-177.39"/>
<polygon fill="#5d6972" stroke="#5d6972" stroke-width="1.2" points="603.4,-179.77 610.78,-179.09 604.58,-175.01 603.4,-179.77"/>
</g>
<!-- course__STAT254&#45;&gt;course__MATH352 -->
<g id="edge6" class="edge">
<title>course__STAT254&#45;&gt;course__MATH352</title>
<path fill="none" stroke="#5d6972" stroke-width="1.2" d="M450.57,-111.76C490.4,-91.89 554.02,-60.15 596.03,-39.19"/>
<polygon fill="#5d6972" stroke="#5d6972" stroke-width="1.2" points="597.15,-41.37 602.32,-36.05 594.96,-36.98 597.15,-41.37"/>
</g>
<!-- course__MATH377 -->
<g id="node8" class="node">
<title>course__MATH377</title>
<g id="a_node8"><a xlink:href="../../../courses/MATH377.html" xlink:title="MATH377: Mathematical Modelling" target="_top">
<path fill="#dfe3f4" stroke="#1b2730" stroke-width="1.6" d="M659,-148C659,-148 620,-148 620,-148 614,-148 608,-142 608,-136 608,-136 608,-124 608,-124 608,-118 614,-112 620,-112 620,-112 659,-112 659,-112 665,-112 671,-118 671,-124 671,-124 671,-136 671,-136 671,-142 665,-148 659,-148"/>
<text text-anchor="middle" x="639.5" y="-127.5" font-family="Avenir Next" font-size="10.00" fill="#17232b">MATH377</text>
</a>
</g>
</g>
<!-- course__STAT254&#45;&gt;course__MATH377 -->
<g id="edge7" class="edge">
<title>course__STAT254&#45;&gt;course__MATH377</title>
<path fill="none" stroke="#5d6972" stroke-width="1.2" d="M522.3,-130C550.51,-130 579.05,-130 600.79,-130"/>
<polygon fill="#5d6972" stroke="#5d6972" stroke-width="1.2" points="600.89,-132.45 607.89,-130 600.89,-127.55 600.89,-132.45"/>
</g>
<!-- course__STAT359 -->
<g id="node9" class="node">
<title>course__STAT359</title>
<g id="a_node9"><a xlink:href="../../../courses/STAT359.html" xlink:title="STAT359: Data Analysis" target="_top">
<path fill="#e6dde9" stroke="#1b2730" stroke-width="1.6" d="M656.5,-92C656.5,-92 622.5,-92 622.5,-92 616.5,-92 610.5,-86 610.5,-80 610.5,-80 610.5,-68 610.5,-68 610.5,-62 616.5,-56 622.5,-56 622.5,-56 656.5,-56 656.5,-56 662.5,-56 668.5,-62 668.5,-68 668.5,-68 668.5,-80 668.5,-80 668.5,-86 662.5,-92 656.5,-92"/>
<text text-anchor="middle" x="639.5" y="-71.5" font-family="Avenir Next" font-size="10.00" fill="#17232b">STAT359</text>
</a>
</g>
</g>
<!-- course__STAT254&#45;&gt;course__STAT359 -->
<g id="edge10" class="edge">
<title>course__STAT254&#45;&gt;course__STAT359</title>
<path fill="none" stroke="#5d6972" stroke-width="1.2" d="M486.27,-111.97C525.48,-102.19 572.17,-90.55 603.41,-82.75"/>
<polygon fill="#5d6972" stroke="#5d6972" stroke-width="1.2" points="604.02,-85.13 610.22,-81.05 602.84,-80.37 604.02,-85.13"/>
</g>
</g>
</svg>
