<?xml version="1.0" encoding="UTF-8" standalone="no"?>
<!DOCTYPE svg PUBLIC "-//W3C//DTD SVG 1.1//EN"
 "http://www.w3.org/Graphics/SVG/1.1/DTD/svg11.dtd">
<!-- Generated by graphviz version 2.43.0 (0)
 -->
<!-- Title: STAT353 Pages: 1 -->
<svg width="322pt" height="79pt"
 viewBox="0.00 0.00 322.20 79.20" xmlns="http://www.w3.org/2000/svg" xmlns:xlink="http://www.w3.org/1999/xlink">
<g id="graph0" class="graph" transform="scale(1 1) rotate(0) translate(21.6 57.6)">
<title>STAT353</title>
<!-- course__MATH211 -->
<g id="node1" class="node">
<title>course__MATH211</title>
<g id="a_node1"><a xlink:href="../../../courses/MATH211.html" xlink:title="MATH211: Matrix Algebra I" target="_top">
<path fill="#dfe3f4" stroke="#1b2730" stroke-width="1.6" d="M51,-36C51,-36 12,-36 12,-36 6,-36 0,-30 0,-24 0,-24 0,-12 0,-12 0,-6 6,0 12,0 12,0 51,0 51,0 57,0 63,-6 63,-12 63,-12 63,-24 63,-24 63,-30 57,-36 51,-36"/>
<text text-anchor="middle" x="31.5" y="-15.5" font-family="Avenir Next" font-size="10.00" fill="#17232b">MATH211</text>
</a>
</g>
</g>
<!-- course__STAT353 -->
<g id="node2" class="node">
<title>course__STAT353</title>
<g id="a_node2"><a xlink:href="../../../courses/STAT353.html" xlink:title="STAT353: Applied Regression Analysis" target="_top">
<path fill="#e6dde9" stroke="#1f4f66" stroke-width="2" d="M267,-36C267,-36 136,-36 136,-36 130,-36 124,-30 124,-24 124,-24 124,-12 124,-12 124,-6 130,0 136,0 136,0 267,0 267,0 273,0 279,-6 279,-12 279,-12 279,-24 279,-24 279,-30 273,-36 267,-36"/>
<text text-anchor="middle" x="201.5" y="-21" font-family="Avenir Next" font-size="10.00" fill="#17232b">STAT353</text>
<text text-anchor="middle" x="201.5" y="-10" font-family="Avenir Next" font-size="10.00" fill="#17232b">Applied Regression Analysis</text>
</a>
</g>
</g>
<!-- course__MATH211&#45;&gt;course__STAT353 -->
<g id="edge1" class="edge">
<title>course__MATH211&#45;&gt;course__STAT353</title>
<path fill="none" stroke="#5d6972" stroke-width="1.2" d="M63.31,-18C78.5,-18 97.63,-18 116.73,-18"/>
<polygon fill="#5d6972" stroke="#5d6972" stroke-width="1.2" points="116.77,-20.45 123.77,-18 116.77,-15.55 116.77,-20.45"/>
</g>
</g>
</svg>
