<?xml version="1.0" encoding="UTF-8" standalone="no"?>
<!DOCTYPE svg PUBLIC "-//W3C//DTD SVG 1.1//EN"
 "http://www.w3.org/Graphics/SVG/1.1/DTD/svg11.dtd">
<!-- Generated by graphviz version 2.43.0 (0)
 -->
<!-- Title: STAT353 Pages: 1 -->
<svg width="605pt" height="133pt"
 viewBox="0.00 0.00 605.20 133.20" xmlns="http://www.w3.org/2000/svg" xmlns:xlink="http://www.w3.org/1999/xlink">
<g id="graph0" class="graph" transform="scale(1 1) rotate(0) translate(21.6 111.6)">
<title>STAT353</title>
<!-- course__MATH211 -->
<g id="node1" class="node">
<title>course__MATH211</title>
<g id="a_node1"><a xlink:href="../../../courses/MATH211.html" xlink:title="MATH211: Matrix Algebra I" target="_top">
<path fill="#dfe3f4" stroke="#1b2730" stroke-width="1.6" d="M334,-90C334,-90 295,-90 295,-90 289,-90 283,-84 283,-78 283,-78 283,-66 283,-66 283,-60 289,-54 295,-54 295,-54 334,-54 334,-54 340,-54 346,-60 346,-66 346,-66 346,-78 346,-78 346,-84 340,-90 334,-90"/>
<text text-anchor="middle" x="314.5" y="-69.5" font-family="Avenir Next" font-size="10.00" fill="#17232b">MATH211</text>
</a>
</g>
</g>
<!-- course__STAT353 -->
<g id="node2" class="node">
<title>course__STAT353</title>
<g id="a_node2"><a xlink:href="../../../courses/STAT353.html" xlink:title="STAT353: Applied Regression Analysis" target="_top">
<path fill="#e6dde9" stroke="#1f4f66" stroke-width="2" d="M550,-65C550,-65 419,-65 419,-65 413,-65 407,-59 407,-53 407,-53 407,-41 407,-41 407,-35 413,-29 419,-29 419,-29 550,-29 550,-29 556,-29 562,-35 562,-41 562,-41 562,-53 562,-53 562,-59 556,-65 550,-65"/>
<text text-anchor="middle" x="484.5" y="-50" font-family="Avenir Next" font-size="10.00" fill="#17232b">STAT353</text>
<text text-anchor="middle" x="484.5" y="-39" font-family="Avenir Next" font-size="10.00" fill="#17232b">Applied Regression Analysis</text>
</a>
</g>
</g>
<!-- course__MATH211&#45;&gt;course__STAT353 -->
<g id="edge2" class="edge">
<title>course__MATH211&#45;&gt;course__STAT353</title>
<path fill="none" stroke="#5d6972" stroke-width="1.2" d="M346.31,-67.41C361.5,-65.15 380.63,-62.31 399.73,-59.47"/>
<polygon fill="#5d6972" stroke="#5d6972" stroke-width="1.2" points="400.2,-61.87 406.77,-58.42 399.48,-57.03 400.2,-61.87"/>
</g>
<!-- STAT353_notes -->
<g id="node3" class="node">
<title>STAT353_notes</title>
<polygon fill="#fff7ee" stroke="#b7793f" stroke-width="1.1" points="216,-46 0,-46 0,0 222,0 222,-40 216,-46"/>
<polyline fill="none" stroke="#b7793f" stroke-width="1.1" points="216,-46 216,-40 "/>
<polyline fill="none" stroke="#b7793f" stroke-width="1.1" points="222,-40 216,-40 "/>
<text text-anchor="start" x="13" y="-26.4" font-family="Avenir Next" font-size="12.00">Published notes</text>
<text text-anchor="start" x="13" y="-13.4" font-family="Avenir Next" font-size="12.00">or permission of the department</text>
</g>
<!-- STAT353_notes&#45;&gt;course__STAT353 -->
</g>
</svg>
