<?xml version="1.0" encoding="UTF-8" standalone="no"?>
<!DOCTYPE svg PUBLIC "-//W3C//DTD SVG 1.1//EN"
 "http://www.w3.org/Graphics/SVG/1.1/DTD/svg11.dtd">
<!-- Generated by graphviz version 2.43.0 (0)
 -->
<!-- Title: STAT260 Pages: 1 -->
<svg width="1397pt" height="359pt"
 viewBox="0.00 0.00 1397.20 359.20" xmlns="http://www.w3.org/2000/svg" xmlns:xlink="http://www.w3.org/1999/xlink">
<g id="graph0" class="graph" transform="scale(1 1) rotate(0) translate(21.6 337.6)">
<title>STAT260</title>
<!-- course__MATH100 -->
<g id="node1" class="node">
<title>course__MATH100</title>
<g id="a_node1"><a xlink:href="../../../courses/MATH100.html" xlink:title="Equivalent or cross&#45;listed: MATH100: Calculus I | MATH102: Calculus for Students in the Social and Biological Sciences | MATH109: Introduction to Calculus" target="_top">
<path fill="#dfe3f4" stroke="#7e8d96" d="M353,-243C353,-243 266,-243 266,-243 260,-243 254,-237 254,-231 254,-231 254,-219 254,-219 254,-213 260,-207 266,-207 266,-207 353,-207 353,-207 359,-207 365,-213 365,-219 365,-219 365,-231 365,-231 365,-237 359,-243 353,-243"/>
<text text-anchor="middle" x="309.5" y="-227.8" font-family="Avenir Next" font-size="9.00" fill="#41515b">MATH100 / MATH102</text>
<text text-anchor="middle" x="309.5" y="-217.8" font-family="Avenir Next" font-size="9.00" fill="#41515b">MATH109</text>
</a>
</g>
</g>
<!-- course__MATH101 -->
<g id="node2" class="node">
<title>course__MATH101</title>
<g id="a_node2"><a xlink:href="../../../courses/MATH101.html" xlink:title="MATH101: Calculus II" target="_top">
<path fill="#dfe3f4" stroke="#1b2730" stroke-width="1.6" d="M477,-243C477,-243 438,-243 438,-243 432,-243 426,-237 426,-231 426,-231 426,-219 426,-219 426,-213 432,-207 438,-207 438,-207 477,-207 477,-207 483,-207 489,-213 489,-219 489,-219 489,-231 489,-231 489,-237 483,-243 477,-243"/>
<text text-anchor="middle" x="457.5" y="-222.5" font-family="Avenir Next" font-size="10.00" fill="#17232b">MATH101</text>
</a>
</g>
</g>
<!-- course__MATH100&#45;&gt;course__MATH101 -->
<g id="edge11" class="edge">
<title>course__MATH100&#45;&gt;course__MATH101</title>
<path fill="none" stroke="#5d6972" stroke-width="1.2" d="M365.28,-225C382.96,-225 402.17,-225 418.38,-225"/>
<polygon fill="#5d6972" stroke="#5d6972" stroke-width="1.2" points="418.6,-227.45 425.6,-225 418.6,-222.55 418.6,-227.45"/>
</g>
<!-- course__MATH200 -->
<g id="node3" class="node">
<title>course__MATH200</title>
<g id="a_node3"><a xlink:href="../../../courses/MATH200.html" xlink:title="Equivalent or cross&#45;listed: MATH200: Calculus III | MATH202: Intermediate Calculus for CSC and EOS" target="_top">
<path fill="#dfe3f4" stroke="#1b2730" stroke-width="1.6" d="M657,-264C657,-264 562,-264 562,-264 556,-264 550,-258 550,-252 550,-252 550,-240 550,-240 550,-234 556,-228 562,-228 562,-228 657,-228 657,-228 663,-228 669,-234 669,-240 669,-240 669,-252 669,-252 669,-258 663,-264 657,-264"/>
<text text-anchor="middle" x="609.5" y="-243.5" font-family="Avenir Next" font-size="10.00" fill="#17232b">MATH200 / MATH202</text>
</a>
</g>
</g>
<!-- course__MATH101&#45;&gt;course__MATH200 -->
<g id="edge12" class="edge">
<title>course__MATH101&#45;&gt;course__MATH200</title>
<path fill="none" stroke="#5d6972" stroke-width="1.2" d="M489.22,-229.3C504.65,-231.46 523.99,-234.17 542.57,-236.77"/>
<polygon fill="#5d6972" stroke="#5d6972" stroke-width="1.2" points="542.65,-239.25 549.92,-237.8 543.33,-234.4 542.65,-239.25"/>
</g>
<!-- course__STAT254 -->
<g id="node4" class="node">
<title>course__STAT254</title>
<g id="a_node4"><a xlink:href="../../../courses/STAT260.html" xlink:title="Equivalent or cross&#45;listed: STAT254: Probability and Statistics for Engineers | STAT260: Introduction to Probability and Statistics I" target="_top">
<path fill="#e6dde9" stroke="#1f4f66" stroke-width="2" d="M936,-204C936,-204 742,-204 742,-204 736,-204 730,-198 730,-192 730,-192 730,-180 730,-180 730,-174 736,-168 742,-168 742,-168 936,-168 936,-168 942,-168 948,-174 948,-180 948,-180 948,-192 948,-192 948,-198 942,-204 936,-204"/>
<text text-anchor="middle" x="839" y="-189" font-family="Avenir Next" font-size="10.00" fill="#17232b">STAT254 / STAT260</text>
<text text-anchor="middle" x="839" y="-178" font-family="Avenir Next" font-size="10.00" fill="#17232b">Introduction to Probability and Statistics I</text>
</a>
</g>
</g>
<!-- course__MATH101&#45;&gt;course__STAT254 -->
<g id="edge17" class="edge">
<title>course__MATH101&#45;&gt;course__STAT254</title>
<path fill="none" stroke="#5d6972" stroke-width="1.2" d="M489.23,-221.84C539.51,-216.68 641.82,-206.16 722.69,-197.85"/>
<polygon fill="#5d6972" stroke="#5d6972" stroke-width="1.2" points="723.24,-200.26 729.96,-197.1 722.74,-195.38 723.24,-200.26"/>
</g>
<!-- course__MATH200&#45;&gt;course__STAT254 -->
<g id="edge16" class="edge">
<title>course__MATH200&#45;&gt;course__STAT254</title>
<path fill="none" stroke="#5d6972" stroke-width="1.2" d="M669.09,-230.55C697.61,-223.03 732.23,-213.9 762.68,-205.86"/>
<polygon fill="#5d6972" stroke="#5d6972" stroke-width="1.2" points="763.37,-208.22 769.52,-204.06 762.13,-203.48 763.37,-208.22"/>
</g>
<!-- course__MATH352 -->
<g id="node8" class="node">
<title>course__MATH352</title>
<g id="a_node8"><a xlink:href="../../../courses/MATH352.html" xlink:title="Equivalent or cross&#45;listed: MATH352: Introduction to Probability | STAT350: Mathematical Statistics I" target="_top">
<path fill="#dfe3f4" stroke="#1b2730" stroke-width="1.6" d="M1110,-316C1110,-316 1021,-316 1021,-316 1015,-316 1009,-310 1009,-304 1009,-304 1009,-292 1009,-292 1009,-286 1015,-280 1021,-280 1021,-280 1110,-280 1110,-280 1116,-280 1122,-286 1122,-292 1122,-292 1122,-304 1122,-304 1122,-310 1116,-316 1110,-316"/>
<text text-anchor="middle" x="1065.5" y="-295.5" font-family="Avenir Next" font-size="10.00" fill="#17232b">MATH352 / STAT350</text>
</a>
</g>
</g>
<!-- course__MATH200&#45;&gt;course__MATH352 -->
<g id="edge13" class="edge">
<title>course__MATH200&#45;&gt;course__MATH352</title>
<path fill="none" stroke="#5d6972" stroke-width="1.2" d="M669.39,-252.74C755.23,-262.58 914.06,-280.77 1001.94,-290.83"/>
<polygon fill="#5d6972" stroke="#5d6972" stroke-width="1.2" points="1001.69,-293.27 1008.92,-291.63 1002.24,-288.4 1001.69,-293.27"/>
</g>
<!-- course__BIOL319 -->
<g id="node5" class="node">
<title>course__BIOL319</title>
<g id="a_node5"><a xlink:href="../../../courses/BIOL319.html" xlink:title="BIOL319: Marine Ecology" target="_top">
<path fill="#dbe8d2" stroke="#1b2730" stroke-width="1.6" d="M1082,-260C1082,-260 1049,-260 1049,-260 1043,-260 1037,-254 1037,-248 1037,-248 1037,-236 1037,-236 1037,-230 1043,-224 1049,-224 1049,-224 1082,-224 1082,-224 1088,-224 1094,-230 1094,-236 1094,-236 1094,-248 1094,-248 1094,-254 1088,-260 1082,-260"/>
<text text-anchor="middle" x="1065.5" y="-239.5" font-family="Avenir Next" font-size="10.00" fill="#17232b">BIOL319</text>
</a>
</g>
</g>
<!-- course__STAT254&#45;&gt;course__BIOL319 -->
<g id="edge2" class="edge">
<title>course__STAT254&#45;&gt;course__BIOL319</title>
<path fill="none" stroke="#5d6972" stroke-width="1.2" d="M912.27,-204.03C951.71,-213.87 998.73,-225.6 1029.98,-233.39"/>
<polygon fill="#5d6972" stroke="#5d6972" stroke-width="1.2" points="1029.4,-235.77 1036.78,-235.09 1030.58,-231.01 1029.4,-235.77"/>
</g>
<!-- course__BIOL330 -->
<g id="node6" class="node">
<title>course__BIOL330</title>
<g id="a_node6"><a xlink:href="../../../courses/BIOL330.html" xlink:title="BIOL330: Study Design and Data Analysis" target="_top">
<path fill="#dbe8d2" stroke="#1b2730" stroke-width="1.6" d="M1082,-204C1082,-204 1049,-204 1049,-204 1043,-204 1037,-198 1037,-192 1037,-192 1037,-180 1037,-180 1037,-174 1043,-168 1049,-168 1049,-168 1082,-168 1082,-168 1088,-168 1094,-174 1094,-180 1094,-180 1094,-192 1094,-192 1094,-198 1088,-204 1082,-204"/>
<text text-anchor="middle" x="1065.5" y="-183.5" font-family="Avenir Next" font-size="10.00" fill="#17232b">BIOL330</text>
</a>
</g>
</g>
<!-- course__STAT254&#45;&gt;course__BIOL330 -->
<g id="edge3" class="edge">
<title>course__STAT254&#45;&gt;course__BIOL330</title>
<path fill="none" stroke="#5d6972" stroke-width="1.2" d="M948.3,-186C977.72,-186 1007.5,-186 1029.54,-186"/>
<polygon fill="#5d6972" stroke="#5d6972" stroke-width="1.2" points="1029.71,-188.45 1036.71,-186 1029.71,-183.55 1029.71,-188.45"/>
</g>
<!-- course__BIOL370 -->
<g id="node7" class="node">
<title>course__BIOL370</title>
<g id="a_node7"><a xlink:href="../../../courses/BIOL370.html" xlink:title="BIOL370: Conservation Biology" target="_top">
<path fill="#dbe8d2" stroke="#1b2730" stroke-width="1.6" d="M1082,-148C1082,-148 1049,-148 1049,-148 1043,-148 1037,-142 1037,-136 1037,-136 1037,-124 1037,-124 1037,-118 1043,-112 1049,-112 1049,-112 1082,-112 1082,-112 1088,-112 1094,-118 1094,-124 1094,-124 1094,-136 1094,-136 1094,-142 1088,-148 1082,-148"/>
<text text-anchor="middle" x="1065.5" y="-127.5" font-family="Avenir Next" font-size="10.00" fill="#17232b">BIOL370</text>
</a>
</g>
</g>
<!-- course__STAT254&#45;&gt;course__BIOL370 -->
<g id="edge4" class="edge">
<title>course__STAT254&#45;&gt;course__BIOL370</title>
<path fill="none" stroke="#5d6972" stroke-width="1.2" d="M912.27,-167.97C951.71,-158.13 998.73,-146.4 1029.98,-138.61"/>
<polygon fill="#5d6972" stroke="#5d6972" stroke-width="1.2" points="1030.58,-140.99 1036.78,-136.91 1029.4,-136.23 1030.58,-140.99"/>
</g>
<!-- course__STAT254&#45;&gt;course__MATH352 -->
<g id="edge14" class="edge">
<title>course__STAT254&#45;&gt;course__MATH352</title>
<path fill="none" stroke="#5d6972" stroke-width="1.2" d="M876.57,-204.24C916.4,-224.11 980.02,-255.85 1022.03,-276.81"/>
<polygon fill="#5d6972" stroke="#5d6972" stroke-width="1.2" points="1020.96,-279.02 1028.32,-279.95 1023.15,-274.63 1020.96,-279.02"/>
</g>
<!-- course__MATH377 -->
<g id="node9" class="node">
<title>course__MATH377</title>
<g id="a_node9"><a xlink:href="../../../courses/MATH377.html" xlink:title="MATH377: Mathematical Modelling" target="_top">
<path fill="#dfe3f4" stroke="#1b2730" stroke-width="1.6" d="M1085,-92C1085,-92 1046,-92 1046,-92 1040,-92 1034,-86 1034,-80 1034,-80 1034,-68 1034,-68 1034,-62 1040,-56 1046,-56 1046,-56 1085,-56 1085,-56 1091,-56 1097,-62 1097,-68 1097,-68 1097,-80 1097,-80 1097,-86 1091,-92 1085,-92"/>
<text text-anchor="middle" x="1065.5" y="-71.5" font-family="Avenir Next" font-size="10.00" fill="#17232b">MATH377</text>
</a>
</g>
</g>
<!-- course__STAT254&#45;&gt;course__MATH377 -->
<g id="edge15" class="edge">
<title>course__STAT254&#45;&gt;course__MATH377</title>
<path fill="none" stroke="#5d6972" stroke-width="1.2" d="M876.57,-167.76C918.08,-147.05 985.45,-113.44 1027.24,-92.59"/>
<polygon fill="#5d6972" stroke="#5d6972" stroke-width="1.2" points="1028.56,-94.67 1033.73,-89.35 1026.37,-90.29 1028.56,-94.67"/>
</g>
<!-- course__STAT359 -->
<g id="node10" class="node">
<title>course__STAT359</title>
<g id="a_node10"><a xlink:href="../../../courses/STAT359.html" xlink:title="STAT359: Data Analysis" target="_top">
<path fill="#e6dde9" stroke="#1b2730" stroke-width="1.6" d="M1082.5,-36C1082.5,-36 1048.5,-36 1048.5,-36 1042.5,-36 1036.5,-30 1036.5,-24 1036.5,-24 1036.5,-12 1036.5,-12 1036.5,-6 1042.5,0 1048.5,0 1048.5,0 1082.5,0 1082.5,0 1088.5,0 1094.5,-6 1094.5,-12 1094.5,-12 1094.5,-24 1094.5,-24 1094.5,-30 1088.5,-36 1082.5,-36"/>
<text text-anchor="middle" x="1065.5" y="-15.5" font-family="Avenir Next" font-size="10.00" fill="#17232b">STAT359</text>
</a>
</g>
</g>
<!-- course__STAT254&#45;&gt;course__STAT359 -->
<g id="edge18" class="edge">
<title>course__STAT254&#45;&gt;course__STAT359</title>
<path fill="none" stroke="#5d6972" stroke-width="1.2" d="M859.16,-167.65C889.37,-139.32 950.66,-84.18 1009,-46 1015.57,-41.7 1022.88,-37.58 1029.99,-33.89"/>
<polygon fill="#5d6972" stroke="#5d6972" stroke-width="1.2" points="1031.3,-35.98 1036.44,-30.63 1029.08,-31.61 1031.3,-35.98"/>
</g>
<!-- course__BIOL466 -->
<g id="node13" class="node">
<title>course__BIOL466</title>
<g id="a_node13"><a xlink:href="../../../courses/BIOL466.html" xlink:title="BIOL466: Frontiers in Marine Biology" target="_top">
<path fill="#dbe8d2" stroke="#7e8d96" d="M1342,-270C1342,-270 1310,-270 1310,-270 1304,-270 1298,-264 1298,-258 1298,-258 1298,-246 1298,-246 1298,-240 1304,-234 1310,-234 1310,-234 1342,-234 1342,-234 1348,-234 1354,-240 1354,-246 1354,-246 1354,-258 1354,-258 1354,-264 1348,-270 1342,-270"/>
<text text-anchor="middle" x="1326" y="-249.8" font-family="Avenir Next" font-size="9.00" fill="#41515b">BIOL466</text>
</a>
</g>
</g>
<!-- course__BIOL319&#45;&gt;course__BIOL466 -->
<g id="edge9" class="edge">
<title>course__BIOL319&#45;&gt;course__BIOL466</title>
<path fill="none" stroke="#5d6972" stroke-width="1.2" d="M1094.16,-243.07C1141.71,-244.91 1238.8,-248.67 1290.62,-250.67"/>
<polygon fill="#5d6972" stroke="#5d6972" stroke-width="1.2" points="1290.83,-253.13 1297.92,-250.95 1291.02,-248.23 1290.83,-253.13"/>
</g>
<!-- course__BIOL446 -->
<g id="node11" class="node">
<title>course__BIOL446</title>
<g id="a_node11"><a xlink:href="../../../courses/BIOL446.html" xlink:title="BIOL446: Advanced Aquatic Ecology" target="_top">
<path fill="#dbe8d2" stroke="#7e8d96" d="M1342,-200C1342,-200 1310,-200 1310,-200 1304,-200 1298,-194 1298,-188 1298,-188 1298,-176 1298,-176 1298,-170 1304,-164 1310,-164 1310,-164 1342,-164 1342,-164 1348,-164 1354,-170 1354,-176 1354,-176 1354,-188 1354,-188 1354,-194 1348,-200 1342,-200"/>
<text text-anchor="middle" x="1326" y="-179.8" font-family="Avenir Next" font-size="9.00" fill="#41515b">BIOL446</text>
</a>
</g>
</g>
<!-- course__BIOL330&#45;&gt;course__BIOL446 -->
<g id="edge5" class="edge">
<title>course__BIOL330&#45;&gt;course__BIOL446</title>
<path fill="none" stroke="#5d6972" stroke-width="1.2" d="M1094.16,-185.57C1141.71,-184.84 1238.8,-183.33 1290.62,-182.53"/>
<polygon fill="#5d6972" stroke="#5d6972" stroke-width="1.2" points="1290.96,-184.98 1297.92,-182.42 1290.89,-180.08 1290.96,-184.98"/>
</g>
<!-- course__BIOL330&#45;&gt;course__BIOL466 -->
<g id="edge10" class="edge">
<title>course__BIOL330&#45;&gt;course__BIOL466</title>
<path fill="none" stroke="#5d6972" stroke-width="1.2" d="M1094.16,-193.06C1141.81,-205.23 1239.2,-230.09 1290.94,-243.3"/>
<polygon fill="#5d6972" stroke="#5d6972" stroke-width="1.2" points="1290.53,-245.73 1297.92,-245.09 1291.75,-240.98 1290.53,-245.73"/>
</g>
<!-- choice_BIOL461_0_0 -->
<g id="node15" class="node">
<title>choice_BIOL461_0_0</title>
<path fill="#fff7ee" stroke="#b7793f" stroke-width="1.1" d="M1225,-148C1225,-148 1195,-148 1195,-148 1189,-148 1183,-142 1183,-136 1183,-136 1183,-124 1183,-124 1183,-118 1189,-112 1195,-112 1195,-112 1225,-112 1225,-112 1231,-112 1237,-118 1237,-124 1237,-124 1237,-136 1237,-136 1237,-142 1231,-148 1225,-148"/>
<text text-anchor="middle" x="1210" y="-127.8" font-family="Avenir Next" font-size="9.00">1 of</text>
</g>
<!-- course__BIOL330&#45;&gt;choice_BIOL461_0_0 -->
<g id="edge6" class="edge">
<title>course__BIOL330&#45;&gt;choice_BIOL461_0_0</title>
<path fill="none" stroke="#7a8389" d="M1094.31,-175.07C1117.71,-165.88 1151.21,-152.71 1175.96,-142.98"/>
<polygon fill="#7a8389" stroke="#7a8389" points="1177.08,-145.18 1182.7,-140.34 1175.29,-140.62 1177.08,-145.18"/>
</g>
<!-- course__BIOL370&#45;&gt;choice_BIOL461_0_0 -->
<g id="edge7" class="edge">
<title>course__BIOL370&#45;&gt;choice_BIOL461_0_0</title>
<path fill="none" stroke="#7a8389" d="M1094.31,-130C1117.61,-130 1150.92,-130 1175.65,-130"/>
<polygon fill="#7a8389" stroke="#7a8389" points="1175.7,-132.45 1182.7,-130 1175.7,-127.55 1175.7,-132.45"/>
</g>
<!-- course__BIOL461 -->
<g id="node12" class="node">
<title>course__BIOL461</title>
<g id="a_node12"><a xlink:href="../../../courses/BIOL461.html" xlink:title="BIOL461: Fisheries Ecology and Management" target="_top">
<path fill="#dbe8d2" stroke="#7e8d96" d="M1342,-144C1342,-144 1310,-144 1310,-144 1304,-144 1298,-138 1298,-132 1298,-132 1298,-120 1298,-120 1298,-114 1304,-108 1310,-108 1310,-108 1342,-108 1342,-108 1348,-108 1354,-114 1354,-120 1354,-120 1354,-132 1354,-132 1354,-138 1348,-144 1342,-144"/>
<text text-anchor="middle" x="1326" y="-123.8" font-family="Avenir Next" font-size="9.00" fill="#41515b">BIOL461</text>
</a>
</g>
</g>
<!-- STAT260_notes -->
<g id="node14" class="node">
<title>STAT260_notes</title>
<polygon fill="#fff7ee" stroke="#b7793f" stroke-width="1.1" points="187,-184.5 0,-184.5 0,-125.5 193,-125.5 193,-178.5 187,-184.5"/>
<polyline fill="none" stroke="#b7793f" stroke-width="1.1" points="187,-184.5 187,-178.5 "/>
<polyline fill="none" stroke="#b7793f" stroke-width="1.1" points="193,-178.5 187,-178.5 "/>
<text text-anchor="start" x="13" y="-164.9" font-family="Avenir Next" font-size="12.00">Published notes</text>
<text text-anchor="start" x="13" y="-151.9" font-family="Avenir Next" font-size="12.00">Admission to BEng program</text>
<text text-anchor="start" x="13" y="-138.9" font-family="Avenir Next" font-size="12.00">Concurrently enrolled in</text>
</g>
<!-- STAT260_notes&#45;&gt;course__STAT254 -->
<!-- choice_BIOL461_0_0&#45;&gt;course__BIOL461 -->
<g id="edge8" class="edge">
<title>choice_BIOL461_0_0&#45;&gt;course__BIOL461</title>
<path fill="none" stroke="#5d6972" stroke-width="1.2" d="M1237.15,-129.08C1253.03,-128.53 1273.47,-127.81 1290.64,-127.21"/>
<polygon fill="#5d6972" stroke="#5d6972" stroke-width="1.2" points="1290.87,-129.65 1297.78,-126.96 1290.7,-124.75 1290.87,-129.65"/>
</g>
</g>
</svg>
