<?xml version="1.0" encoding="UTF-8" standalone="no"?>
<!DOCTYPE svg PUBLIC "-//W3C//DTD SVG 1.1//EN"
 "http://www.w3.org/Graphics/SVG/1.1/DTD/svg11.dtd">
<!-- Generated by graphviz version 2.43.0 (0)
 -->
<!-- Title: STAT353 Pages: 1 -->
<svg width="892pt" height="189pt"
 viewBox="0.00 0.00 892.20 189.20" xmlns="http://www.w3.org/2000/svg" xmlns:xlink="http://www.w3.org/1999/xlink">
<g id="graph0" class="graph" transform="scale(1 1) rotate(0) translate(21.6 167.6)">
<title>STAT353</title>
<!-- course__MATH100 -->
<g id="node1" class="node">
<title>course__MATH100</title>
<g id="a_node1"><a xlink:href="../../../courses/MATH100.html" xlink:title="Equivalent or cross&#45;listed: MATH100: Calculus I | MATH102: Calculus for Students in the Social and Biological Sciences | MATH109: Introduction to Calculus" target="_top">
<path fill="#dfe3f4" stroke="#7e8d96" d="M382,-146C382,-146 295,-146 295,-146 289,-146 283,-140 283,-134 283,-134 283,-122 283,-122 283,-116 289,-110 295,-110 295,-110 382,-110 382,-110 388,-110 394,-116 394,-122 394,-122 394,-134 394,-134 394,-140 388,-146 382,-146"/>
<text text-anchor="middle" x="338.5" y="-130.8" font-family="Avenir Next" font-size="9.00" fill="#41515b">MATH100 / MATH102</text>
<text text-anchor="middle" x="338.5" y="-120.8" font-family="Avenir Next" font-size="9.00" fill="#41515b">MATH109</text>
</a>
</g>
</g>
<!-- choice_MATH211_0 -->
<g id="node6" class="node">
<title>choice_MATH211_0</title>
<path fill="#fff7ee" stroke="#b7793f" stroke-width="1.1" d="M497,-90C497,-90 467,-90 467,-90 461,-90 455,-84 455,-78 455,-78 455,-66 455,-66 455,-60 461,-54 467,-54 467,-54 497,-54 497,-54 503,-54 509,-60 509,-66 509,-66 509,-78 509,-78 509,-84 503,-90 497,-90"/>
<text text-anchor="middle" x="482" y="-69.8" font-family="Avenir Next" font-size="9.00">1 of</text>
</g>
<!-- course__MATH100&#45;&gt;choice_MATH211_0 -->
<g id="edge2" class="edge">
<title>course__MATH100&#45;&gt;choice_MATH211_0</title>
<path fill="none" stroke="#7a8389" d="M385.05,-109.97C405.63,-101.83 429.48,-92.39 448.25,-84.96"/>
<polygon fill="#7a8389" stroke="#7a8389" points="449.32,-87.17 454.93,-82.32 447.52,-82.62 449.32,-87.17"/>
</g>
<!-- course__MATH151 -->
<g id="node2" class="node">
<title>course__MATH151</title>
<g id="a_node2"><a xlink:href="../../../courses/MATH151.html" xlink:title="MATH151: Finite Mathematics" target="_top">
<path fill="#dfe3f4" stroke="#7e8d96" d="M356,-90C356,-90 321,-90 321,-90 315,-90 309,-84 309,-78 309,-78 309,-66 309,-66 309,-60 315,-54 321,-54 321,-54 356,-54 356,-54 362,-54 368,-60 368,-66 368,-66 368,-78 368,-78 368,-84 362,-90 356,-90"/>
<text text-anchor="middle" x="338.5" y="-69.8" font-family="Avenir Next" font-size="9.00" fill="#41515b">MATH151</text>
</a>
</g>
</g>
<!-- course__MATH151&#45;&gt;choice_MATH211_0 -->
<g id="edge3" class="edge">
<title>course__MATH151&#45;&gt;choice_MATH211_0</title>
<path fill="none" stroke="#7a8389" d="M368.13,-72C391.11,-72 423.41,-72 447.58,-72"/>
<polygon fill="#7a8389" stroke="#7a8389" points="447.79,-74.45 454.79,-72 447.79,-69.55 447.79,-74.45"/>
</g>
<!-- course__MATH211 -->
<g id="node3" class="node">
<title>course__MATH211</title>
<g id="a_node3"><a xlink:href="../../../courses/MATH211.html" xlink:title="MATH211: Matrix Algebra I" target="_top">
<path fill="#dfe3f4" stroke="#1b2730" stroke-width="1.6" d="M621,-90C621,-90 582,-90 582,-90 576,-90 570,-84 570,-78 570,-78 570,-66 570,-66 570,-60 576,-54 582,-54 582,-54 621,-54 621,-54 627,-54 633,-60 633,-66 633,-66 633,-78 633,-78 633,-84 627,-90 621,-90"/>
<text text-anchor="middle" x="601.5" y="-69.5" font-family="Avenir Next" font-size="10.00" fill="#17232b">MATH211</text>
</a>
</g>
</g>
<!-- course__STAT353 -->
<g id="node4" class="node">
<title>course__STAT353</title>
<g id="a_node4"><a xlink:href="../../../courses/STAT353.html" xlink:title="STAT353: Applied Regression Analysis" target="_top">
<path fill="#e6dde9" stroke="#1f4f66" stroke-width="2" d="M837,-65C837,-65 706,-65 706,-65 700,-65 694,-59 694,-53 694,-53 694,-41 694,-41 694,-35 700,-29 706,-29 706,-29 837,-29 837,-29 843,-29 849,-35 849,-41 849,-41 849,-53 849,-53 849,-59 843,-65 837,-65"/>
<text text-anchor="middle" x="771.5" y="-50" font-family="Avenir Next" font-size="10.00" fill="#17232b">STAT353</text>
<text text-anchor="middle" x="771.5" y="-39" font-family="Avenir Next" font-size="10.00" fill="#17232b">Applied Regression Analysis</text>
</a>
</g>
</g>
<!-- course__MATH211&#45;&gt;course__STAT353 -->
<g id="edge5" class="edge">
<title>course__MATH211&#45;&gt;course__STAT353</title>
<path fill="none" stroke="#5d6972" stroke-width="1.2" d="M633.31,-67.41C648.5,-65.15 667.63,-62.31 686.73,-59.47"/>
<polygon fill="#5d6972" stroke="#5d6972" stroke-width="1.2" points="687.2,-61.87 693.77,-58.42 686.48,-57.03 687.2,-61.87"/>
</g>
<!-- STAT353_notes -->
<g id="node5" class="node">
<title>STAT353_notes</title>
<polygon fill="#fff7ee" stroke="#b7793f" stroke-width="1.1" points="216,-46 0,-46 0,0 222,0 222,-40 216,-46"/>
<polyline fill="none" stroke="#b7793f" stroke-width="1.1" points="216,-46 216,-40 "/>
<polyline fill="none" stroke="#b7793f" stroke-width="1.1" points="222,-40 216,-40 "/>
<text text-anchor="start" x="13" y="-26.4" font-family="Avenir Next" font-size="12.00">Published notes</text>
<text text-anchor="start" x="13" y="-13.4" font-family="Avenir Next" font-size="12.00">or permission of the department</text>
</g>
<!-- STAT353_notes&#45;&gt;course__STAT353 -->
<!-- choice_MATH211_0&#45;&gt;course__MATH211 -->
<g id="edge4" class="edge">
<title>choice_MATH211_0&#45;&gt;course__MATH211</title>
<path fill="none" stroke="#5d6972" stroke-width="1.2" d="M509.08,-72C524.81,-72 545.14,-72 562.62,-72"/>
<polygon fill="#5d6972" stroke="#5d6972" stroke-width="1.2" points="562.92,-74.45 569.92,-72 562.92,-69.55 562.92,-74.45"/>
</g>
</g>
</svg>
