<?xml version="1.0" encoding="UTF-8" standalone="no"?>
<!DOCTYPE svg PUBLIC "-//W3C//DTD SVG 1.1//EN"
 "http://www.w3.org/Graphics/SVG/1.1/DTD/svg11.dtd">
<!-- Generated by graphviz version 2.43.0 (0)
 -->
<!-- Title: STAT254 Pages: 1 -->
<svg width="1385pt" height="359pt"
 viewBox="0.00 0.00 1385.20 359.20" xmlns="http://www.w3.org/2000/svg" xmlns:xlink="http://www.w3.org/1999/xlink">
<g id="graph0" class="graph" transform="scale(1 1) rotate(0) translate(21.6 337.6)">
<title>STAT254</title>
<!-- course__MATH100 -->
<g id="node1" class="node">
<title>course__MATH100</title>
<g id="a_node1"><a xlink:href="../../../courses/MATH100.html" xlink:title="Equivalent or cross&#45;listed: MATH100: Calculus I | MATH102: Calculus for Students in the Social and Biological Sciences | MATH109: Introduction to Calculus" target="_top">
<path fill="#dfe3f4" stroke="#7e8d96" d="M353,-243C353,-243 266,-243 266,-243 260,-243 254,-237 254,-231 254,-231 254,-219 254,-219 254,-213 260,-207 266,-207 266,-207 353,-207 353,-207 359,-207 365,-213 365,-219 365,-219 365,-231 365,-231 365,-237 359,-243 353,-243"/>
<text text-anchor="middle" x="309.5" y="-227.8" font-family="Avenir Next" font-size="9.00" fill="#41515b">MATH100 / MATH102</text>
<text text-anchor="middle" x="309.5" y="-217.8" font-family="Avenir Next" font-size="9.00" fill="#41515b">MATH109</text>
</a>
</g>
</g>
<!-- course__MATH101 -->
<g id="node2" class="node">
<title>course__MATH101</title>
<g id="a_node2"><a xlink:href="../../../courses/MATH101.html" xlink:title="MATH101: Calculus II" target="_top">
<path fill="#dfe3f4" stroke="#1b2730" stroke-width="1.6" d="M477,-243C477,-243 438,-243 438,-243 432,-243 426,-237 426,-231 426,-231 426,-219 426,-219 426,-213 432,-207 438,-207 438,-207 477,-207 477,-207 483,-207 489,-213 489,-219 489,-219 489,-231 489,-231 489,-237 483,-243 477,-243"/>
<text text-anchor="middle" x="457.5" y="-222.5" font-family="Avenir Next" font-size="10.00" fill="#17232b">MATH101</text>
</a>
</g>
</g>
<!-- course__MATH100&#45;&gt;course__MATH101 -->
<g id="edge11" class="edge">
<title>course__MATH100&#45;&gt;course__MATH101</title>
<path fill="none" stroke="#5d6972" stroke-width="1.2" d="M365.28,-225C382.96,-225 402.17,-225 418.38,-225"/>
<polygon fill="#5d6972" stroke="#5d6972" stroke-width="1.2" points="418.6,-227.45 425.6,-225 418.6,-222.55 418.6,-227.45"/>
</g>
<!-- course__MATH200 -->
<g id="node3" class="node">
<title>course__MATH200</title>
<g id="a_node3"><a xlink:href="../../../courses/MATH200.html" xlink:title="Equivalent or cross&#45;listed: MATH200: Calculus III | MATH202: Intermediate Calculus for CSC and EOS" target="_top">
<path fill="#dfe3f4" stroke="#1b2730" stroke-width="1.6" d="M657,-264C657,-264 562,-264 562,-264 556,-264 550,-258 550,-252 550,-252 550,-240 550,-240 550,-234 556,-228 562,-228 562,-228 657,-228 657,-228 663,-228 669,-234 669,-240 669,-240 669,-252 669,-252 669,-258 663,-264 657,-264"/>
<text text-anchor="middle" x="609.5" y="-243.5" font-family="Avenir Next" font-size="10.00" fill="#17232b">MATH200 / MATH202</text>
</a>
</g>
</g>
<!-- course__MATH101&#45;&gt;course__MATH200 -->
<g id="edge12" class="edge">
<title>course__MATH101&#45;&gt;course__MATH200</title>
<path fill="none" stroke="#5d6972" stroke-width="1.2" d="M489.22,-229.3C504.65,-231.46 523.99,-234.17 542.57,-236.77"/>
<polygon fill="#5d6972" stroke="#5d6972" stroke-width="1.2" points="542.65,-239.25 549.92,-237.8 543.33,-234.4 542.65,-239.25"/>
</g>
<!-- course__STAT254 -->
<g id="node4" class="node">
<title>course__STAT254</title>
<g id="a_node4"><a xlink:href="../../../courses/STAT254.html" xlink:title="Equivalent or cross&#45;listed: STAT254: Probability and Statistics for Engineers | STAT260: Introduction to Probability and Statistics I" target="_top">
<path fill="#e6dde9" stroke="#1f4f66" stroke-width="2" d="M924,-204C924,-204 742,-204 742,-204 736,-204 730,-198 730,-192 730,-192 730,-180 730,-180 730,-174 736,-168 742,-168 742,-168 924,-168 924,-168 930,-168 936,-174 936,-180 936,-180 936,-192 936,-192 936,-198 930,-204 924,-204"/>
<text text-anchor="middle" x="833" y="-189" font-family="Avenir Next" font-size="10.00" fill="#17232b">STAT254 / STAT260</text>
<text text-anchor="middle" x="833" y="-178" font-family="Avenir Next" font-size="10.00" fill="#17232b">Probability and Statistics for Engineers</text>
</a>
</g>
</g>
<!-- course__MATH101&#45;&gt;course__STAT254 -->
<g id="edge17" class="edge">
<title>course__MATH101&#45;&gt;course__STAT254</title>
<path fill="none" stroke="#5d6972" stroke-width="1.2" d="M489.07,-221.81C539.55,-216.54 642.72,-205.76 722.78,-197.4"/>
<polygon fill="#5d6972" stroke="#5d6972" stroke-width="1.2" points="723.26,-199.82 729.97,-196.65 722.75,-194.94 723.26,-199.82"/>
</g>
<!-- course__MATH200&#45;&gt;course__STAT254 -->
<g id="edge16" class="edge">
<title>course__MATH200&#45;&gt;course__STAT254</title>
<path fill="none" stroke="#5d6972" stroke-width="1.2" d="M669.28,-230.08C696.69,-222.65 729.59,-213.74 758.61,-205.88"/>
<polygon fill="#5d6972" stroke="#5d6972" stroke-width="1.2" points="759.4,-208.21 765.51,-204.01 758.11,-203.48 759.4,-208.21"/>
</g>
<!-- course__MATH352 -->
<g id="node8" class="node">
<title>course__MATH352</title>
<g id="a_node8"><a xlink:href="../../../courses/MATH352.html" xlink:title="Equivalent or cross&#45;listed: MATH352: Introduction to Probability | STAT350: Mathematical Statistics I" target="_top">
<path fill="#dfe3f4" stroke="#1b2730" stroke-width="1.6" d="M1098,-316C1098,-316 1009,-316 1009,-316 1003,-316 997,-310 997,-304 997,-304 997,-292 997,-292 997,-286 1003,-280 1009,-280 1009,-280 1098,-280 1098,-280 1104,-280 1110,-286 1110,-292 1110,-292 1110,-304 1110,-304 1110,-310 1104,-316 1098,-316"/>
<text text-anchor="middle" x="1053.5" y="-295.5" font-family="Avenir Next" font-size="10.00" fill="#17232b">MATH352 / STAT350</text>
</a>
</g>
</g>
<!-- course__MATH200&#45;&gt;course__MATH352 -->
<g id="edge13" class="edge">
<title>course__MATH200&#45;&gt;course__MATH352</title>
<path fill="none" stroke="#5d6972" stroke-width="1.2" d="M669.19,-252.91C752.45,-262.7 904.19,-280.55 989.66,-290.61"/>
<polygon fill="#5d6972" stroke="#5d6972" stroke-width="1.2" points="989.47,-293.05 996.71,-291.44 990.04,-288.18 989.47,-293.05"/>
</g>
<!-- course__BIOL319 -->
<g id="node5" class="node">
<title>course__BIOL319</title>
<g id="a_node5"><a xlink:href="../../../courses/BIOL319.html" xlink:title="BIOL319: Marine Ecology" target="_top">
<path fill="#dbe8d2" stroke="#1b2730" stroke-width="1.6" d="M1070,-260C1070,-260 1037,-260 1037,-260 1031,-260 1025,-254 1025,-248 1025,-248 1025,-236 1025,-236 1025,-230 1031,-224 1037,-224 1037,-224 1070,-224 1070,-224 1076,-224 1082,-230 1082,-236 1082,-236 1082,-248 1082,-248 1082,-254 1076,-260 1070,-260"/>
<text text-anchor="middle" x="1053.5" y="-239.5" font-family="Avenir Next" font-size="10.00" fill="#17232b">BIOL319</text>
</a>
</g>
</g>
<!-- course__STAT254&#45;&gt;course__BIOL319 -->
<g id="edge2" class="edge">
<title>course__STAT254&#45;&gt;course__BIOL319</title>
<path fill="none" stroke="#5d6972" stroke-width="1.2" d="M904.34,-204.03C942.34,-213.77 987.56,-225.36 1017.96,-233.15"/>
<polygon fill="#5d6972" stroke="#5d6972" stroke-width="1.2" points="1017.59,-235.58 1024.98,-234.95 1018.8,-230.83 1017.59,-235.58"/>
</g>
<!-- course__BIOL330 -->
<g id="node6" class="node">
<title>course__BIOL330</title>
<g id="a_node6"><a xlink:href="../../../courses/BIOL330.html" xlink:title="BIOL330: Study Design and Data Analysis" target="_top">
<path fill="#dbe8d2" stroke="#1b2730" stroke-width="1.6" d="M1070,-204C1070,-204 1037,-204 1037,-204 1031,-204 1025,-198 1025,-192 1025,-192 1025,-180 1025,-180 1025,-174 1031,-168 1037,-168 1037,-168 1070,-168 1070,-168 1076,-168 1082,-174 1082,-180 1082,-180 1082,-192 1082,-192 1082,-198 1076,-204 1070,-204"/>
<text text-anchor="middle" x="1053.5" y="-183.5" font-family="Avenir Next" font-size="10.00" fill="#17232b">BIOL330</text>
</a>
</g>
</g>
<!-- course__STAT254&#45;&gt;course__BIOL330 -->
<g id="edge3" class="edge">
<title>course__STAT254&#45;&gt;course__BIOL330</title>
<path fill="none" stroke="#5d6972" stroke-width="1.2" d="M936.21,-186C965.55,-186 995.57,-186 1017.75,-186"/>
<polygon fill="#5d6972" stroke="#5d6972" stroke-width="1.2" points="1017.97,-188.45 1024.97,-186 1017.97,-183.55 1017.97,-188.45"/>
</g>
<!-- course__BIOL370 -->
<g id="node7" class="node">
<title>course__BIOL370</title>
<g id="a_node7"><a xlink:href="../../../courses/BIOL370.html" xlink:title="BIOL370: Conservation Biology" target="_top">
<path fill="#dbe8d2" stroke="#1b2730" stroke-width="1.6" d="M1070,-148C1070,-148 1037,-148 1037,-148 1031,-148 1025,-142 1025,-136 1025,-136 1025,-124 1025,-124 1025,-118 1031,-112 1037,-112 1037,-112 1070,-112 1070,-112 1076,-112 1082,-118 1082,-124 1082,-124 1082,-136 1082,-136 1082,-142 1076,-148 1070,-148"/>
<text text-anchor="middle" x="1053.5" y="-127.5" font-family="Avenir Next" font-size="10.00" fill="#17232b">BIOL370</text>
</a>
</g>
</g>
<!-- course__STAT254&#45;&gt;course__BIOL370 -->
<g id="edge4" class="edge">
<title>course__STAT254&#45;&gt;course__BIOL370</title>
<path fill="none" stroke="#5d6972" stroke-width="1.2" d="M904.34,-167.97C942.34,-158.23 987.56,-146.64 1017.96,-138.85"/>
<polygon fill="#5d6972" stroke="#5d6972" stroke-width="1.2" points="1018.8,-141.17 1024.98,-137.05 1017.59,-136.42 1018.8,-141.17"/>
</g>
<!-- course__STAT254&#45;&gt;course__MATH352 -->
<g id="edge14" class="edge">
<title>course__STAT254&#45;&gt;course__MATH352</title>
<path fill="none" stroke="#5d6972" stroke-width="1.2" d="M868.93,-204.11C901.91,-221.18 952.76,-247.44 997,-270 1001.26,-272.17 1005.72,-274.43 1010.16,-276.69"/>
<polygon fill="#5d6972" stroke="#5d6972" stroke-width="1.2" points="1009.3,-279 1016.65,-279.97 1011.51,-274.62 1009.3,-279"/>
</g>
<!-- course__MATH377 -->
<g id="node9" class="node">
<title>course__MATH377</title>
<g id="a_node9"><a xlink:href="../../../courses/MATH377.html" xlink:title="MATH377: Mathematical Modelling" target="_top">
<path fill="#dfe3f4" stroke="#1b2730" stroke-width="1.6" d="M1073,-92C1073,-92 1034,-92 1034,-92 1028,-92 1022,-86 1022,-80 1022,-80 1022,-68 1022,-68 1022,-62 1028,-56 1034,-56 1034,-56 1073,-56 1073,-56 1079,-56 1085,-62 1085,-68 1085,-68 1085,-80 1085,-80 1085,-86 1079,-92 1073,-92"/>
<text text-anchor="middle" x="1053.5" y="-71.5" font-family="Avenir Next" font-size="10.00" fill="#17232b">MATH377</text>
</a>
</g>
</g>
<!-- course__STAT254&#45;&gt;course__MATH377 -->
<g id="edge15" class="edge">
<title>course__STAT254&#45;&gt;course__MATH377</title>
<path fill="none" stroke="#5d6972" stroke-width="1.2" d="M868.93,-167.89C901.91,-150.82 952.76,-124.56 997,-102 1002.93,-98.98 1009.23,-95.78 1015.37,-92.68"/>
<polygon fill="#5d6972" stroke="#5d6972" stroke-width="1.2" points="1016.8,-94.7 1021.94,-89.36 1014.59,-90.33 1016.8,-94.7"/>
</g>
<!-- course__STAT359 -->
<g id="node10" class="node">
<title>course__STAT359</title>
<g id="a_node10"><a xlink:href="../../../courses/STAT359.html" xlink:title="STAT359: Data Analysis" target="_top">
<path fill="#e6dde9" stroke="#1b2730" stroke-width="1.6" d="M1070.5,-36C1070.5,-36 1036.5,-36 1036.5,-36 1030.5,-36 1024.5,-30 1024.5,-24 1024.5,-24 1024.5,-12 1024.5,-12 1024.5,-6 1030.5,0 1036.5,0 1036.5,0 1070.5,0 1070.5,0 1076.5,0 1082.5,-6 1082.5,-12 1082.5,-12 1082.5,-24 1082.5,-24 1082.5,-30 1076.5,-36 1070.5,-36"/>
<text text-anchor="middle" x="1053.5" y="-15.5" font-family="Avenir Next" font-size="10.00" fill="#17232b">STAT359</text>
</a>
</g>
</g>
<!-- course__STAT254&#45;&gt;course__STAT359 -->
<g id="edge18" class="edge">
<title>course__STAT254&#45;&gt;course__STAT359</title>
<path fill="none" stroke="#5d6972" stroke-width="1.2" d="M852.35,-167.58C881.32,-139.15 940.22,-83.89 997,-46 1003.53,-41.64 1010.83,-37.5 1017.93,-33.8"/>
<polygon fill="#5d6972" stroke="#5d6972" stroke-width="1.2" points="1019.24,-35.89 1024.38,-30.54 1017.02,-31.52 1019.24,-35.89"/>
</g>
<!-- course__BIOL466 -->
<g id="node13" class="node">
<title>course__BIOL466</title>
<g id="a_node13"><a xlink:href="../../../courses/BIOL466.html" xlink:title="BIOL466: Frontiers in Marine Biology" target="_top">
<path fill="#dbe8d2" stroke="#7e8d96" d="M1330,-270C1330,-270 1298,-270 1298,-270 1292,-270 1286,-264 1286,-258 1286,-258 1286,-246 1286,-246 1286,-240 1292,-234 1298,-234 1298,-234 1330,-234 1330,-234 1336,-234 1342,-240 1342,-246 1342,-246 1342,-258 1342,-258 1342,-264 1336,-270 1330,-270"/>
<text text-anchor="middle" x="1314" y="-249.8" font-family="Avenir Next" font-size="9.00" fill="#41515b">BIOL466</text>
</a>
</g>
</g>
<!-- course__BIOL319&#45;&gt;course__BIOL466 -->
<g id="edge9" class="edge">
<title>course__BIOL319&#45;&gt;course__BIOL466</title>
<path fill="none" stroke="#5d6972" stroke-width="1.2" d="M1082.16,-243.07C1129.71,-244.91 1226.8,-248.67 1278.62,-250.67"/>
<polygon fill="#5d6972" stroke="#5d6972" stroke-width="1.2" points="1278.83,-253.13 1285.92,-250.95 1279.02,-248.23 1278.83,-253.13"/>
</g>
<!-- course__BIOL446 -->
<g id="node11" class="node">
<title>course__BIOL446</title>
<g id="a_node11"><a xlink:href="../../../courses/BIOL446.html" xlink:title="BIOL446: Advanced Aquatic Ecology" target="_top">
<path fill="#dbe8d2" stroke="#7e8d96" d="M1330,-200C1330,-200 1298,-200 1298,-200 1292,-200 1286,-194 1286,-188 1286,-188 1286,-176 1286,-176 1286,-170 1292,-164 1298,-164 1298,-164 1330,-164 1330,-164 1336,-164 1342,-170 1342,-176 1342,-176 1342,-188 1342,-188 1342,-194 1336,-200 1330,-200"/>
<text text-anchor="middle" x="1314" y="-179.8" font-family="Avenir Next" font-size="9.00" fill="#41515b">BIOL446</text>
</a>
</g>
</g>
<!-- course__BIOL330&#45;&gt;course__BIOL446 -->
<g id="edge5" class="edge">
<title>course__BIOL330&#45;&gt;course__BIOL446</title>
<path fill="none" stroke="#5d6972" stroke-width="1.2" d="M1082.16,-185.57C1129.71,-184.84 1226.8,-183.33 1278.62,-182.53"/>
<polygon fill="#5d6972" stroke="#5d6972" stroke-width="1.2" points="1278.96,-184.98 1285.92,-182.42 1278.89,-180.08 1278.96,-184.98"/>
</g>
<!-- course__BIOL330&#45;&gt;course__BIOL466 -->
<g id="edge10" class="edge">
<title>course__BIOL330&#45;&gt;course__BIOL466</title>
<path fill="none" stroke="#5d6972" stroke-width="1.2" d="M1082.16,-193.06C1129.81,-205.23 1227.2,-230.09 1278.94,-243.3"/>
<polygon fill="#5d6972" stroke="#5d6972" stroke-width="1.2" points="1278.53,-245.73 1285.92,-245.09 1279.75,-240.98 1278.53,-245.73"/>
</g>
<!-- choice_BIOL461_0_0 -->
<g id="node15" class="node">
<title>choice_BIOL461_0_0</title>
<path fill="#fff7ee" stroke="#b7793f" stroke-width="1.1" d="M1213,-148C1213,-148 1183,-148 1183,-148 1177,-148 1171,-142 1171,-136 1171,-136 1171,-124 1171,-124 1171,-118 1177,-112 1183,-112 1183,-112 1213,-112 1213,-112 1219,-112 1225,-118 1225,-124 1225,-124 1225,-136 1225,-136 1225,-142 1219,-148 1213,-148"/>
<text text-anchor="middle" x="1198" y="-127.8" font-family="Avenir Next" font-size="9.00">1 of</text>
</g>
<!-- course__BIOL330&#45;&gt;choice_BIOL461_0_0 -->
<g id="edge6" class="edge">
<title>course__BIOL330&#45;&gt;choice_BIOL461_0_0</title>
<path fill="none" stroke="#7a8389" d="M1082.31,-175.07C1105.71,-165.88 1139.21,-152.71 1163.96,-142.98"/>
<polygon fill="#7a8389" stroke="#7a8389" points="1165.08,-145.18 1170.7,-140.34 1163.29,-140.62 1165.08,-145.18"/>
</g>
<!-- course__BIOL370&#45;&gt;choice_BIOL461_0_0 -->
<g id="edge7" class="edge">
<title>course__BIOL370&#45;&gt;choice_BIOL461_0_0</title>
<path fill="none" stroke="#7a8389" d="M1082.31,-130C1105.61,-130 1138.92,-130 1163.65,-130"/>
<polygon fill="#7a8389" stroke="#7a8389" points="1163.7,-132.45 1170.7,-130 1163.7,-127.55 1163.7,-132.45"/>
</g>
<!-- course__BIOL461 -->
<g id="node12" class="node">
<title>course__BIOL461</title>
<g id="a_node12"><a xlink:href="../../../courses/BIOL461.html" xlink:title="BIOL461: Fisheries Ecology and Management" target="_top">
<path fill="#dbe8d2" stroke="#7e8d96" d="M1330,-144C1330,-144 1298,-144 1298,-144 1292,-144 1286,-138 1286,-132 1286,-132 1286,-120 1286,-120 1286,-114 1292,-108 1298,-108 1298,-108 1330,-108 1330,-108 1336,-108 1342,-114 1342,-120 1342,-120 1342,-132 1342,-132 1342,-138 1336,-144 1330,-144"/>
<text text-anchor="middle" x="1314" y="-123.8" font-family="Avenir Next" font-size="9.00" fill="#41515b">BIOL461</text>
</a>
</g>
</g>
<!-- STAT254_notes -->
<g id="node14" class="node">
<title>STAT254_notes</title>
<polygon fill="#fff7ee" stroke="#b7793f" stroke-width="1.1" points="187,-184.5 0,-184.5 0,-125.5 193,-125.5 193,-178.5 187,-184.5"/>
<polyline fill="none" stroke="#b7793f" stroke-width="1.1" points="187,-184.5 187,-178.5 "/>
<polyline fill="none" stroke="#b7793f" stroke-width="1.1" points="193,-178.5 187,-178.5 "/>
<text text-anchor="start" x="13" y="-164.9" font-family="Avenir Next" font-size="12.00">Published notes</text>
<text text-anchor="start" x="13" y="-151.9" font-family="Avenir Next" font-size="12.00">Admission to BEng program</text>
<text text-anchor="start" x="13" y="-138.9" font-family="Avenir Next" font-size="12.00">Concurrently enrolled in</text>
</g>
<!-- STAT254_notes&#45;&gt;course__STAT254 -->
<!-- choice_BIOL461_0_0&#45;&gt;course__BIOL461 -->
<g id="edge8" class="edge">
<title>choice_BIOL461_0_0&#45;&gt;course__BIOL461</title>
<path fill="none" stroke="#5d6972" stroke-width="1.2" d="M1225.15,-129.08C1241.03,-128.53 1261.47,-127.81 1278.64,-127.21"/>
<polygon fill="#5d6972" stroke="#5d6972" stroke-width="1.2" points="1278.87,-129.65 1285.78,-126.96 1278.7,-124.75 1278.87,-129.65"/>
</g>
</g>
</svg>
