<?xml version="1.0" encoding="UTF-8" standalone="no"?>
<!DOCTYPE svg PUBLIC "-//W3C//DTD SVG 1.1//EN"
 "http://www.w3.org/Graphics/SVG/1.1/DTD/svg11.dtd">
<!-- Generated by graphviz version 2.43.0 (0)
 -->
<!-- Title: STAT254 Pages: 1 -->
<svg width="727pt" height="415pt"
 viewBox="0.00 0.00 727.20 415.20" xmlns="http://www.w3.org/2000/svg" xmlns:xlink="http://www.w3.org/1999/xlink">
<g id="graph0" class="graph" transform="scale(1 1) rotate(0) translate(21.6 393.6)">
<title>STAT254</title>
<!-- course__MATH101 -->
<g id="node1" class="node">
<title>course__MATH101</title>
<g id="a_node1"><a xlink:href="../../../courses/MATH101.html" xlink:title="MATH101: Calculus II" target="_top">
<path fill="#dfe3f4" stroke="#1b2730" stroke-width="1.6" d="M51,-151C51,-151 12,-151 12,-151 6,-151 0,-145 0,-139 0,-139 0,-127 0,-127 0,-121 6,-115 12,-115 12,-115 51,-115 51,-115 57,-115 63,-121 63,-127 63,-127 63,-139 63,-139 63,-145 57,-151 51,-151"/>
<text text-anchor="middle" x="31.5" y="-130.5" font-family="Avenir Next" font-size="10.00" fill="#17232b">MATH101</text>
</a>
</g>
</g>
<!-- course__MATH200 -->
<g id="node2" class="node">
<title>course__MATH200</title>
<g id="a_node2"><a xlink:href="../../../courses/MATH200.html" xlink:title="Equivalent or cross&#45;listed: MATH200: Calculus III | MATH202: Intermediate Calculus for CSC and EOS" target="_top">
<path fill="#dfe3f4" stroke="#1b2730" stroke-width="1.6" d="M231,-127C231,-127 136,-127 136,-127 130,-127 124,-121 124,-115 124,-115 124,-103 124,-103 124,-97 130,-91 136,-91 136,-91 231,-91 231,-91 237,-91 243,-97 243,-103 243,-103 243,-115 243,-115 243,-121 237,-127 231,-127"/>
<text text-anchor="middle" x="183.5" y="-106.5" font-family="Avenir Next" font-size="10.00" fill="#17232b">MATH200 / MATH202</text>
</a>
</g>
</g>
<!-- course__MATH101&#45;&gt;course__MATH200 -->
<g id="edge5" class="edge">
<title>course__MATH101&#45;&gt;course__MATH200</title>
<path fill="none" stroke="#5d6972" stroke-width="1.2" d="M63.22,-128.09C78.65,-125.62 97.99,-122.52 116.57,-119.55"/>
<polygon fill="#5d6972" stroke="#5d6972" stroke-width="1.2" points="117.39,-121.9 123.92,-118.37 116.62,-117.06 117.39,-121.9"/>
</g>
<!-- course__STAT254 -->
<g id="node3" class="node">
<title>course__STAT254</title>
<g id="a_node3"><a xlink:href="../../../courses/STAT254.html" xlink:title="Collapsed in simplified view: STAT254: Probability and Statistics for Engineers | STAT255: Statistics for Life Sciences I | STAT260: Introduction to Probability and Statistics I" target="_top">
<path fill="#e6dde9" stroke="#1f4f66" stroke-width="2" d="M498,-176C498,-176 316,-176 316,-176 310,-176 304,-170 304,-164 304,-164 304,-152 304,-152 304,-146 310,-140 316,-140 316,-140 498,-140 498,-140 504,-140 510,-146 510,-152 510,-152 510,-164 510,-164 510,-170 504,-176 498,-176"/>
<text text-anchor="middle" x="407" y="-161" font-family="Avenir Next" font-size="10.00" fill="#17232b">Intro statistics</text>
<text text-anchor="middle" x="407" y="-150" font-family="Avenir Next" font-size="10.00" fill="#17232b">Probability and Statistics for Engineers</text>
</a>
</g>
</g>
<!-- course__MATH101&#45;&gt;course__STAT254 -->
<g id="edge10" class="edge">
<title>course__MATH101&#45;&gt;course__STAT254</title>
<path fill="none" stroke="#5d6972" stroke-width="1.2" d="M63.07,-135.05C113.55,-138.42 216.72,-145.33 296.78,-150.69"/>
<polygon fill="#5d6972" stroke="#5d6972" stroke-width="1.2" points="296.82,-153.15 303.97,-151.17 297.15,-148.26 296.82,-153.15"/>
</g>
<!-- course__MATH200&#45;&gt;course__STAT254 -->
<g id="edge9" class="edge">
<title>course__MATH200&#45;&gt;course__STAT254</title>
<path fill="none" stroke="#5d6972" stroke-width="1.2" d="M243.28,-122C266,-127.03 292.51,-132.89 317.45,-138.41"/>
<polygon fill="#5d6972" stroke="#5d6972" stroke-width="1.2" points="317.07,-140.84 324.43,-139.96 318.13,-136.05 317.07,-140.84"/>
</g>
<!-- course__MATH352 -->
<g id="node8" class="node">
<title>course__MATH352</title>
<g id="a_node8"><a xlink:href="../../../courses/MATH352.html" xlink:title="Equivalent or cross&#45;listed: MATH352: Introduction to Probability | STAT350: Mathematical Statistics I" target="_top">
<path fill="#dfe3f4" stroke="#1b2730" stroke-width="1.6" d="M672,-36C672,-36 583,-36 583,-36 577,-36 571,-30 571,-24 571,-24 571,-12 571,-12 571,-6 577,0 583,0 583,0 672,0 672,0 678,0 684,-6 684,-12 684,-12 684,-24 684,-24 684,-30 678,-36 672,-36"/>
<text text-anchor="middle" x="627.5" y="-15.5" font-family="Avenir Next" font-size="10.00" fill="#17232b">MATH352 / STAT350</text>
</a>
</g>
</g>
<!-- course__MATH200&#45;&gt;course__MATH352 -->
<g id="edge6" class="edge">
<title>course__MATH200&#45;&gt;course__MATH352</title>
<path fill="none" stroke="#5d6972" stroke-width="1.2" d="M243.19,-96.92C326.45,-79.78 478.19,-48.53 563.66,-30.94"/>
<polygon fill="#5d6972" stroke="#5d6972" stroke-width="1.2" points="564.34,-33.3 570.71,-29.49 563.35,-28.5 564.34,-33.3"/>
</g>
<!-- course__BIOL319 -->
<g id="node4" class="node">
<title>course__BIOL319</title>
<g id="a_node4"><a xlink:href="../../../courses/BIOL319.html" xlink:title="BIOL319: Marine Ecology" target="_top">
<path fill="#dbe8d2" stroke="#1b2730" stroke-width="1.6" d="M644,-372C644,-372 611,-372 611,-372 605,-372 599,-366 599,-360 599,-360 599,-348 599,-348 599,-342 605,-336 611,-336 611,-336 644,-336 644,-336 650,-336 656,-342 656,-348 656,-348 656,-360 656,-360 656,-366 650,-372 644,-372"/>
<text text-anchor="middle" x="627.5" y="-351.5" font-family="Avenir Next" font-size="10.00" fill="#17232b">BIOL319</text>
</a>
</g>
</g>
<!-- course__STAT254&#45;&gt;course__BIOL319 -->
<g id="edge1" class="edge">
<title>course__STAT254&#45;&gt;course__BIOL319</title>
<path fill="none" stroke="#5d6972" stroke-width="1.2" d="M422.09,-176.1C448.51,-209.14 508.46,-280.03 571,-326 577.52,-330.8 584.99,-335.19 592.29,-339"/>
<polygon fill="#5d6972" stroke="#5d6972" stroke-width="1.2" points="591.56,-341.37 598.91,-342.33 593.76,-336.99 591.56,-341.37"/>
</g>
<!-- course__BIOL330 -->
<g id="node5" class="node">
<title>course__BIOL330</title>
<g id="a_node5"><a xlink:href="../../../courses/BIOL330.html" xlink:title="BIOL330: Study Design and Data Analysis" target="_top">
<path fill="#dbe8d2" stroke="#1b2730" stroke-width="1.6" d="M644,-316C644,-316 611,-316 611,-316 605,-316 599,-310 599,-304 599,-304 599,-292 599,-292 599,-286 605,-280 611,-280 611,-280 644,-280 644,-280 650,-280 656,-286 656,-292 656,-292 656,-304 656,-304 656,-310 650,-316 644,-316"/>
<text text-anchor="middle" x="627.5" y="-295.5" font-family="Avenir Next" font-size="10.00" fill="#17232b">BIOL330</text>
</a>
</g>
</g>
<!-- course__STAT254&#45;&gt;course__BIOL330 -->
<g id="edge2" class="edge">
<title>course__STAT254&#45;&gt;course__BIOL330</title>
<path fill="none" stroke="#5d6972" stroke-width="1.2" d="M432.17,-176.14C463.42,-199.23 519.89,-239.73 571,-270 577.75,-274 585.15,-277.99 592.28,-281.65"/>
<polygon fill="#5d6972" stroke="#5d6972" stroke-width="1.2" points="591.37,-283.93 598.72,-284.9 593.58,-279.56 591.37,-283.93"/>
</g>
<!-- course__BIOL370 -->
<g id="node6" class="node">
<title>course__BIOL370</title>
<g id="a_node6"><a xlink:href="../../../courses/BIOL370.html" xlink:title="BIOL370: Conservation Biology" target="_top">
<path fill="#dbe8d2" stroke="#1b2730" stroke-width="1.6" d="M644,-260C644,-260 611,-260 611,-260 605,-260 599,-254 599,-248 599,-248 599,-236 599,-236 599,-230 605,-224 611,-224 611,-224 644,-224 644,-224 650,-224 656,-230 656,-236 656,-236 656,-248 656,-248 656,-254 650,-260 644,-260"/>
<text text-anchor="middle" x="627.5" y="-239.5" font-family="Avenir Next" font-size="10.00" fill="#17232b">BIOL370</text>
</a>
</g>
</g>
<!-- course__STAT254&#45;&gt;course__BIOL370 -->
<g id="edge3" class="edge">
<title>course__STAT254&#45;&gt;course__BIOL370</title>
<path fill="none" stroke="#5d6972" stroke-width="1.2" d="M454.87,-176.02C496.07,-191.86 555.07,-214.54 592.06,-228.76"/>
<polygon fill="#5d6972" stroke="#5d6972" stroke-width="1.2" points="591.28,-231.09 598.7,-231.31 593.04,-226.51 591.28,-231.09"/>
</g>
<!-- course__ECON383 -->
<g id="node7" class="node">
<title>course__ECON383</title>
<g id="a_node7"><a xlink:href="../../../courses/ECON383.html" xlink:title="ECON383: Climate Economics" target="_top">
<path fill="#f2ece3" stroke="#1b2730" stroke-width="1.6" d="M646.5,-204C646.5,-204 608.5,-204 608.5,-204 602.5,-204 596.5,-198 596.5,-192 596.5,-192 596.5,-180 596.5,-180 596.5,-174 602.5,-168 608.5,-168 608.5,-168 646.5,-168 646.5,-168 652.5,-168 658.5,-174 658.5,-180 658.5,-180 658.5,-192 658.5,-192 658.5,-198 652.5,-204 646.5,-204"/>
<text text-anchor="middle" x="627.5" y="-183.5" font-family="Avenir Next" font-size="10.00" fill="#17232b">ECON383</text>
</a>
</g>
</g>
<!-- course__STAT254&#45;&gt;course__ECON383 -->
<g id="edge4" class="edge">
<title>course__STAT254&#45;&gt;course__ECON383</title>
<path fill="none" stroke="#5d6972" stroke-width="1.2" d="M510.21,-171.1C538.35,-174.7 567.12,-178.39 589,-181.19"/>
<polygon fill="#5d6972" stroke="#5d6972" stroke-width="1.2" points="588.89,-183.65 596.15,-182.11 589.51,-178.79 588.89,-183.65"/>
</g>
<!-- course__STAT254&#45;&gt;course__MATH352 -->
<g id="edge7" class="edge">
<title>course__STAT254&#45;&gt;course__MATH352</title>
<path fill="none" stroke="#5d6972" stroke-width="1.2" d="M438.9,-139.79C459.42,-127.41 486.75,-110.37 510,-94 538.21,-74.14 541.9,-64.53 571,-46 574.44,-43.81 578.08,-41.65 581.77,-39.57"/>
<polygon fill="#5d6972" stroke="#5d6972" stroke-width="1.2" points="583.06,-41.66 588.03,-36.15 580.71,-37.36 583.06,-41.66"/>
</g>
<!-- course__MATH377 -->
<g id="node9" class="node">
<title>course__MATH377</title>
<g id="a_node9"><a xlink:href="../../../courses/MATH377.html" xlink:title="MATH377: Mathematical Modelling" target="_top">
<path fill="#dfe3f4" stroke="#1b2730" stroke-width="1.6" d="M647,-148C647,-148 608,-148 608,-148 602,-148 596,-142 596,-136 596,-136 596,-124 596,-124 596,-118 602,-112 608,-112 608,-112 647,-112 647,-112 653,-112 659,-118 659,-124 659,-124 659,-136 659,-136 659,-142 653,-148 647,-148"/>
<text text-anchor="middle" x="627.5" y="-127.5" font-family="Avenir Next" font-size="10.00" fill="#17232b">MATH377</text>
</a>
</g>
</g>
<!-- course__STAT254&#45;&gt;course__MATH377 -->
<g id="edge8" class="edge">
<title>course__STAT254&#45;&gt;course__MATH377</title>
<path fill="none" stroke="#5d6972" stroke-width="1.2" d="M510.21,-144.9C538.15,-141.32 566.71,-137.66 588.53,-134.87"/>
<polygon fill="#5d6972" stroke="#5d6972" stroke-width="1.2" points="589.03,-137.27 595.66,-133.95 588.41,-132.41 589.03,-137.27"/>
</g>
<!-- course__STAT359 -->
<g id="node10" class="node">
<title>course__STAT359</title>
<g id="a_node10"><a xlink:href="../../../courses/STAT359.html" xlink:title="STAT359: Data Analysis" target="_top">
<path fill="#e6dde9" stroke="#1b2730" stroke-width="1.6" d="M644.5,-92C644.5,-92 610.5,-92 610.5,-92 604.5,-92 598.5,-86 598.5,-80 598.5,-80 598.5,-68 598.5,-68 598.5,-62 604.5,-56 610.5,-56 610.5,-56 644.5,-56 644.5,-56 650.5,-56 656.5,-62 656.5,-68 656.5,-68 656.5,-80 656.5,-80 656.5,-86 650.5,-92 644.5,-92"/>
<text text-anchor="middle" x="627.5" y="-71.5" font-family="Avenir Next" font-size="10.00" fill="#17232b">STAT359</text>
</a>
</g>
</g>
<!-- course__STAT254&#45;&gt;course__STAT359 -->
<g id="edge11" class="edge">
<title>course__STAT254&#45;&gt;course__STAT359</title>
<path fill="none" stroke="#5d6972" stroke-width="1.2" d="M454.87,-139.98C495.95,-124.19 554.73,-101.59 591.74,-87.36"/>
<polygon fill="#5d6972" stroke="#5d6972" stroke-width="1.2" points="592.73,-89.61 598.39,-84.81 590.97,-85.03 592.73,-89.61"/>
</g>
</g>
</svg>
