<?xml version="1.0" encoding="UTF-8" standalone="no"?>
<!DOCTYPE svg PUBLIC "-//W3C//DTD SVG 1.1//EN"
 "http://www.w3.org/Graphics/SVG/1.1/DTD/svg11.dtd">
<!-- Generated by graphviz version 2.43.0 (0)
 -->
<!-- Title: unix Pages: 1 -->
<svg width="1471pt" height="613pt"
 viewBox="0.00 0.00 1471.00 612.50" xmlns="http://www.w3.org/2000/svg" xmlns:xlink="http://www.w3.org/1999/xlink">
<g id="graph0" class="graph" transform="scale(1 1) rotate(0) translate(4 608.5)">
<title>unix</title>
<polygon fill="white" stroke="transparent" points="-4,4 -4,-608.5 1467,-608.5 1467,4 -4,4"/>
<text text-anchor="middle" x="731.5" y="-589.3" font-family="Times,serif" font-size="14.00">Physics and Earth Sciences (Geophysics)</text>
<g id="clust1" class="cluster">
<title>cluster_Required.1</title>
<polygon fill="none" stroke="black" points="86,-351.5 86,-440.5 211,-440.5 211,-351.5 86,-351.5"/>
<text text-anchor="middle" x="148.5" y="-425.3" font-family="Times,serif" font-size="14.00">Program requires: 1</text>
</g>
<g id="clust2" class="cluster">
<title>cluster_Required.2</title>
<polygon fill="none" stroke="black" points="307,-484.5 307,-573.5 432,-573.5 432,-484.5 307,-484.5"/>
<text text-anchor="middle" x="369.5" y="-558.3" font-family="Times,serif" font-size="14.00">Program requires: 1</text>
</g>
<g id="clust3" class="cluster">
<title>cluster_Required.3</title>
<polygon fill="none" stroke="black" points="85.5,-223.5 85.5,-312.5 210.5,-312.5 210.5,-223.5 85.5,-223.5"/>
<text text-anchor="middle" x="148" y="-297.3" font-family="Times,serif" font-size="14.00">Program requires: 1</text>
</g>
<g id="clust4" class="cluster">
<title>cluster_Required.4</title>
<polygon fill="none" stroke="black" points="307,-215.5 307,-304.5 432,-304.5 432,-215.5 307,-215.5"/>
<text text-anchor="middle" x="369.5" y="-289.3" font-family="Times,serif" font-size="14.00">Program requires: 1</text>
</g>
<g id="clust5" class="cluster">
<title>cluster_Required.5</title>
<polygon fill="none" stroke="black" points="455.5,-146.5 455.5,-235.5 580.5,-235.5 580.5,-146.5 455.5,-146.5"/>
<text text-anchor="middle" x="518" y="-220.3" font-family="Times,serif" font-size="14.00">Program requires: 1</text>
</g>
<g id="clust6" class="cluster">
<title>cluster_Required.6</title>
<polygon fill="none" stroke="black" points="708.5,-291.5 708.5,-380.5 833.5,-380.5 833.5,-291.5 708.5,-291.5"/>
<text text-anchor="middle" x="771" y="-365.3" font-family="Times,serif" font-size="14.00">Program requires: 1</text>
</g>
<g id="clust7" class="cluster">
<title>cluster_Required.7</title>
<polygon fill="none" stroke="black" points="1244,-112.5 1244,-201.5 1369,-201.5 1369,-112.5 1244,-112.5"/>
<text text-anchor="middle" x="1306.5" y="-186.3" font-family="Times,serif" font-size="14.00">Program requires: 1</text>
</g>
<!-- CHEM102 -->
<g id="node1" class="node">
<title>CHEM102</title>
<path fill="#9fa7be" stroke="#030a10" d="M397,-371C397,-371 341,-371 341,-371 337.5,-371 334,-367.5 334,-364 334,-364 334,-357 334,-357 334,-353.5 337.5,-350 341,-350 341,-350 397,-350 397,-350 400.5,-350 404,-353.5 404,-357 404,-357 404,-364 404,-364 404,-367.5 400.5,-371 397,-371"/>
<text text-anchor="middle" x="369" y="-357.4" font-family="Times,serif" font-size="12.00">CHEM102</text>
</g>
<!-- EOS205 -->
<g id="node7" class="node">
<title>EOS205</title>
<path fill="#9fa7be" stroke="#030a10" d="M539.5,-462C539.5,-462 495.5,-462 495.5,-462 492,-462 488.5,-458.5 488.5,-455 488.5,-455 488.5,-448 488.5,-448 488.5,-444.5 492,-441 495.5,-441 495.5,-441 539.5,-441 539.5,-441 543,-441 546.5,-444.5 546.5,-448 546.5,-448 546.5,-455 546.5,-455 546.5,-458.5 543,-462 539.5,-462"/>
<text text-anchor="middle" x="517.5" y="-448.4" font-family="Times,serif" font-size="12.00">EOS205</text>
</g>
<!-- CHEM102&#45;&gt;EOS205 -->
<g id="edge100" class="edge">
<title>CHEM102&#45;&gt;EOS205</title>
<path fill="none" stroke="black" d="M387.09,-371.12C413.89,-387.76 465.74,-419.97 495.02,-438.16"/>
<polygon fill="black" stroke="black" points="494.35,-439.8 499.52,-440.95 496.19,-436.83 494.35,-439.8"/>
</g>
<!-- EOS110 -->
<g id="node2" class="node">
<title>EOS110</title>
<path fill="#9fa7be" stroke="#030a10" d="M51,-333C51,-333 7,-333 7,-333 3.5,-333 0,-329.5 0,-326 0,-326 0,-319 0,-319 0,-315.5 3.5,-312 7,-312 7,-312 51,-312 51,-312 54.5,-312 58,-315.5 58,-319 58,-319 58,-326 58,-326 58,-329.5 54.5,-333 51,-333"/>
<text text-anchor="middle" x="29" y="-319.4" font-family="Times,serif" font-size="12.00">EOS110</text>
</g>
<!-- EOS120 -->
<g id="node3" class="node">
<title>EOS120</title>
<path fill="#9fa7be" stroke="#030a10" d="M391,-476C391,-476 347,-476 347,-476 343.5,-476 340,-472.5 340,-469 340,-469 340,-462 340,-462 340,-458.5 343.5,-455 347,-455 347,-455 391,-455 391,-455 394.5,-455 398,-458.5 398,-462 398,-462 398,-469 398,-469 398,-472.5 394.5,-476 391,-476"/>
<text text-anchor="middle" x="369" y="-462.4" font-family="Times,serif" font-size="12.00">EOS120</text>
</g>
<!-- EOS201 -->
<g id="node5" class="node">
<title>EOS201</title>
<path fill="#9fa7be" stroke="#030a10" d="M666.5,-484C666.5,-484 622.5,-484 622.5,-484 619,-484 615.5,-480.5 615.5,-477 615.5,-477 615.5,-470 615.5,-470 615.5,-466.5 619,-463 622.5,-463 622.5,-463 666.5,-463 666.5,-463 670,-463 673.5,-466.5 673.5,-470 673.5,-470 673.5,-477 673.5,-477 673.5,-480.5 670,-484 666.5,-484"/>
<text text-anchor="middle" x="644.5" y="-470.4" font-family="Times,serif" font-size="12.00">EOS201</text>
</g>
<!-- EOS120&#45;&gt;EOS201 -->
<g id="edge1" class="edge">
<title>EOS120&#45;&gt;EOS201</title>
<path fill="none" stroke="black" d="M398.24,-466.33C449.14,-467.82 556.03,-470.94 610.33,-472.53"/>
<polygon fill="black" stroke="black" points="610.37,-474.28 615.41,-472.68 610.47,-470.79 610.37,-474.28"/>
</g>
<!-- EOS202 -->
<g id="node6" class="node">
<title>EOS202</title>
<path fill="#9fa7be" stroke="#030a10" d="M539.5,-506C539.5,-506 495.5,-506 495.5,-506 492,-506 488.5,-502.5 488.5,-499 488.5,-499 488.5,-492 488.5,-492 488.5,-488.5 492,-485 495.5,-485 495.5,-485 539.5,-485 539.5,-485 543,-485 546.5,-488.5 546.5,-492 546.5,-492 546.5,-499 546.5,-499 546.5,-502.5 543,-506 539.5,-506"/>
<text text-anchor="middle" x="517.5" y="-492.4" font-family="Times,serif" font-size="12.00">EOS202</text>
</g>
<!-- EOS120&#45;&gt;EOS202 -->
<g id="edge107" class="edge">
<title>EOS120&#45;&gt;EOS202</title>
<path fill="none" stroke="black" d="M398.25,-471.29C422.57,-476.27 457.69,-483.46 483.34,-488.71"/>
<polygon fill="black" stroke="black" points="483.09,-490.45 488.34,-489.74 483.79,-487.02 483.09,-490.45"/>
</g>
<!-- EOS120&#45;&gt;EOS205 -->
<g id="edge99" class="edge">
<title>EOS120&#45;&gt;EOS205</title>
<path fill="none" stroke="black" d="M398.25,-462.8C422.57,-460.48 457.69,-457.12 483.34,-454.67"/>
<polygon fill="black" stroke="black" points="483.53,-456.41 488.34,-454.19 483.2,-452.93 483.53,-456.41"/>
</g>
<!-- MATH101 -->
<g id="node4" class="node">
<title>MATH101</title>
<path fill="#9fa7be" stroke="#030a10" d="M396.5,-334C396.5,-334 341.5,-334 341.5,-334 338,-334 334.5,-330.5 334.5,-327 334.5,-327 334.5,-320 334.5,-320 334.5,-316.5 338,-313 341.5,-313 341.5,-313 396.5,-313 396.5,-313 400,-313 403.5,-316.5 403.5,-320 403.5,-320 403.5,-327 403.5,-327 403.5,-330.5 400,-334 396.5,-334"/>
<text text-anchor="middle" x="369" y="-320.4" font-family="Times,serif" font-size="12.00">MATH101</text>
</g>
<!-- MATH200 -->
<g id="node8" class="node">
<title>MATH200</title>
<path fill="#9fa7be" stroke="#030a10" d="M545,-377C545,-377 490,-377 490,-377 486.5,-377 483,-373.5 483,-370 483,-370 483,-363 483,-363 483,-359.5 486.5,-356 490,-356 490,-356 545,-356 545,-356 548.5,-356 552,-359.5 552,-363 552,-363 552,-370 552,-370 552,-373.5 548.5,-377 545,-377"/>
<text text-anchor="middle" x="517.5" y="-363.4" font-family="Times,serif" font-size="12.00">MATH200</text>
</g>
<!-- MATH101&#45;&gt;MATH200 -->
<g id="edge46" class="edge">
<title>MATH101&#45;&gt;MATH200</title>
<path fill="none" stroke="black" d="M398.66,-334.04C415.16,-339.89 436.35,-347.07 455.5,-352.5 462.63,-354.53 470.3,-356.47 477.71,-358.22"/>
<polygon fill="black" stroke="black" points="477.52,-359.97 482.78,-359.41 478.31,-356.57 477.52,-359.97"/>
</g>
<!-- PHYS229 -->
<g id="node12" class="node">
<title>PHYS229</title>
<path fill="#9fa7be" stroke="#030a10" d="M796.5,-283C796.5,-283 744.5,-283 744.5,-283 741,-283 737.5,-279.5 737.5,-276 737.5,-276 737.5,-269 737.5,-269 737.5,-265.5 741,-262 744.5,-262 744.5,-262 796.5,-262 796.5,-262 800,-262 803.5,-265.5 803.5,-269 803.5,-269 803.5,-276 803.5,-276 803.5,-279.5 800,-283 796.5,-283"/>
<text text-anchor="middle" x="770.5" y="-269.4" font-family="Times,serif" font-size="12.00">PHYS229</text>
</g>
<!-- MATH101&#45;&gt;PHYS229 -->
<g id="edge125" class="edge">
<title>MATH101&#45;&gt;PHYS229</title>
<path fill="none" stroke="black" d="M403.86,-319.57C460.75,-312.9 579.08,-298.82 679,-285.5 696.54,-283.16 715.96,-280.4 732.3,-278.02"/>
<polygon fill="black" stroke="black" points="732.58,-279.75 737.27,-277.29 732.07,-276.28 732.58,-279.75"/>
</g>
<!-- PHYS130 -->
<g id="node34" class="node">
<title>PHYS130</title>
<path fill="#36ada4" stroke="#030a10" d="M543.5,-204C543.5,-204 491.5,-204 491.5,-204 488,-204 484.5,-200.5 484.5,-197 484.5,-197 484.5,-190 484.5,-190 484.5,-186.5 488,-183 491.5,-183 491.5,-183 543.5,-183 543.5,-183 547,-183 550.5,-186.5 550.5,-190 550.5,-190 550.5,-197 550.5,-197 550.5,-200.5 547,-204 543.5,-204"/>
<text text-anchor="middle" x="517.5" y="-190.4" font-family="Times,serif" font-size="12.00">PHYS130</text>
</g>
<!-- MATH101&#45;&gt;PHYS130 -->
<g id="edge120" class="edge">
<title>MATH101&#45;&gt;PHYS130</title>
<path fill="none" stroke="black" d="M403.6,-317.92C413.34,-315.24 423.6,-311.29 432,-305.5 469.04,-279.97 496.62,-232.99 509.1,-208.79"/>
<polygon fill="black" stroke="black" points="510.7,-209.52 511.4,-204.27 507.58,-207.93 510.7,-209.52"/>
</g>
<!-- EOS210 -->
<g id="node36" class="node">
<title>EOS210</title>
<path fill="#39a7d0" stroke="#030a10" d="M792.5,-349C792.5,-349 748.5,-349 748.5,-349 745,-349 741.5,-345.5 741.5,-342 741.5,-342 741.5,-335 741.5,-335 741.5,-331.5 745,-328 748.5,-328 748.5,-328 792.5,-328 792.5,-328 796,-328 799.5,-331.5 799.5,-335 799.5,-335 799.5,-342 799.5,-342 799.5,-345.5 796,-349 792.5,-349"/>
<text text-anchor="middle" x="770.5" y="-335.4" font-family="Times,serif" font-size="12.00">EOS210</text>
</g>
<!-- MATH101&#45;&gt;EOS210 -->
<g id="edge37" class="edge">
<title>MATH101&#45;&gt;EOS210</title>
<path fill="none" stroke="black" d="M403.79,-331.86C413.53,-335.33 423.75,-340.09 432,-346.5 446.5,-357.77 439.23,-371.97 455.5,-380.5 543.47,-426.64 582,-401.91 679,-380.5 703.89,-375.01 730.07,-361.95 747.83,-351.84"/>
<polygon fill="black" stroke="black" points="749.16,-353.1 752.61,-349.08 747.41,-350.07 749.16,-353.1"/>
</g>
<!-- PHYS210 -->
<g id="node37" class="node">
<title>PHYS210</title>
<path fill="#39a7d0" stroke="#030a10" d="M796.5,-321C796.5,-321 744.5,-321 744.5,-321 741,-321 737.5,-317.5 737.5,-314 737.5,-314 737.5,-307 737.5,-307 737.5,-303.5 741,-300 744.5,-300 744.5,-300 796.5,-300 796.5,-300 800,-300 803.5,-303.5 803.5,-307 803.5,-307 803.5,-314 803.5,-314 803.5,-317.5 800,-321 796.5,-321"/>
<text text-anchor="middle" x="770.5" y="-307.4" font-family="Times,serif" font-size="12.00">PHYS210</text>
</g>
<!-- MATH101&#45;&gt;PHYS210 -->
<g id="edge64" class="edge">
<title>MATH101&#45;&gt;PHYS210</title>
<path fill="none" stroke="black" d="M403.84,-322.42C460.68,-320.59 578.95,-316.78 679,-313.5 696.36,-312.93 715.6,-312.3 731.86,-311.76"/>
<polygon fill="black" stroke="black" points="732.31,-313.49 737.25,-311.58 732.19,-310 732.31,-313.49"/>
</g>
<!-- EOS300 -->
<g id="node14" class="node">
<title>EOS300</title>
<path fill="#9fa7be" stroke="#030a10" d="M792.5,-484C792.5,-484 748.5,-484 748.5,-484 745,-484 741.5,-480.5 741.5,-477 741.5,-477 741.5,-470 741.5,-470 741.5,-466.5 745,-463 748.5,-463 748.5,-463 792.5,-463 792.5,-463 796,-463 799.5,-466.5 799.5,-470 799.5,-470 799.5,-477 799.5,-477 799.5,-480.5 796,-484 792.5,-484"/>
<text text-anchor="middle" x="770.5" y="-470.4" font-family="Times,serif" font-size="12.00">EOS300</text>
</g>
<!-- EOS201&#45;&gt;EOS300 -->
<g id="edge95" class="edge">
<title>EOS201&#45;&gt;EOS300</title>
<path fill="none" stroke="black" d="M673.64,-473.5C692.19,-473.5 716.57,-473.5 736.1,-473.5"/>
<polygon fill="black" stroke="black" points="736.47,-475.25 741.47,-473.5 736.47,-471.75 736.47,-475.25"/>
</g>
<!-- EOS202&#45;&gt;EOS300 -->
<g id="edge96" class="edge">
<title>EOS202&#45;&gt;EOS300</title>
<path fill="none" stroke="black" d="M546.69,-494.98C578.79,-494.18 632.79,-492.22 679,-487.5 698.06,-485.56 719.24,-482.34 736.31,-479.48"/>
<polygon fill="black" stroke="black" points="736.83,-481.17 741.47,-478.61 736.25,-477.72 736.83,-481.17"/>
</g>
<!-- EOS410 -->
<g id="node22" class="node">
<title>EOS410</title>
<path fill="#9fa7be" stroke="#030a10" d="M666.5,-528C666.5,-528 622.5,-528 622.5,-528 619,-528 615.5,-524.5 615.5,-521 615.5,-521 615.5,-514 615.5,-514 615.5,-510.5 619,-507 622.5,-507 622.5,-507 666.5,-507 666.5,-507 670,-507 673.5,-510.5 673.5,-514 673.5,-514 673.5,-521 673.5,-521 673.5,-524.5 670,-528 666.5,-528"/>
<text text-anchor="middle" x="644.5" y="-514.4" font-family="Times,serif" font-size="12.00">EOS410</text>
</g>
<!-- EOS202&#45;&gt;EOS410 -->
<g id="edge35" class="edge">
<title>EOS202&#45;&gt;EOS410</title>
<path fill="none" stroke="black" d="M546.55,-500.44C565.4,-503.76 590.32,-508.14 610.18,-511.64"/>
<polygon fill="black" stroke="black" points="609.88,-513.36 615.11,-512.51 610.49,-509.92 609.88,-513.36"/>
</g>
<!-- EOS205&#45;&gt;EOS201 -->
<g id="edge2" class="edge">
<title>EOS205&#45;&gt;EOS201</title>
<path fill="none" stroke="black" d="M546.55,-456.44C565.4,-459.76 590.32,-464.14 610.18,-467.64"/>
<polygon fill="black" stroke="black" points="609.88,-469.36 615.11,-468.51 610.49,-465.92 609.88,-469.36"/>
</g>
<!-- EOS205&#45;&gt;EOS300 -->
<g id="edge97" class="edge">
<title>EOS205&#45;&gt;EOS300</title>
<path fill="none" stroke="black" d="M546.69,-452.02C578.79,-452.82 632.79,-454.79 679,-459.5 698.06,-461.45 719.24,-464.66 736.31,-467.52"/>
<polygon fill="black" stroke="black" points="736.25,-469.29 741.47,-468.4 736.83,-465.84 736.25,-469.29"/>
</g>
<!-- PHYS216 -->
<g id="node11" class="node">
<title>PHYS216</title>
<path fill="#9fa7be" stroke="#030a10" d="M796.5,-173C796.5,-173 744.5,-173 744.5,-173 741,-173 737.5,-169.5 737.5,-166 737.5,-166 737.5,-159 737.5,-159 737.5,-155.5 741,-152 744.5,-152 744.5,-152 796.5,-152 796.5,-152 800,-152 803.5,-155.5 803.5,-159 803.5,-159 803.5,-166 803.5,-166 803.5,-169.5 800,-173 796.5,-173"/>
<text text-anchor="middle" x="770.5" y="-159.4" font-family="Times,serif" font-size="12.00">PHYS216</text>
</g>
<!-- MATH200&#45;&gt;PHYS216 -->
<g id="edge90" class="edge">
<title>MATH200&#45;&gt;PHYS216</title>
<path fill="none" stroke="black" d="M552.05,-361.33C561.48,-359.23 571.59,-356.37 580.5,-352.5 629.06,-331.41 642.44,-323.8 679,-285.5 696.29,-267.39 694.01,-257.93 708.5,-237.5 723.94,-215.73 743.74,-192.06 756.52,-177.26"/>
<polygon fill="black" stroke="black" points="757.98,-178.25 759.93,-173.33 755.34,-175.96 757.98,-178.25"/>
</g>
<!-- PHYS248 -->
<g id="node13" class="node">
<title>PHYS248</title>
<path fill="#9fa7be" stroke="#030a10" d="M1025.5,-243C1025.5,-243 973.5,-243 973.5,-243 970,-243 966.5,-239.5 966.5,-236 966.5,-236 966.5,-229 966.5,-229 966.5,-225.5 970,-222 973.5,-222 973.5,-222 1025.5,-222 1025.5,-222 1029,-222 1032.5,-225.5 1032.5,-229 1032.5,-229 1032.5,-236 1032.5,-236 1032.5,-239.5 1029,-243 1025.5,-243"/>
<text text-anchor="middle" x="999.5" y="-229.4" font-family="Times,serif" font-size="12.00">PHYS248</text>
</g>
<!-- MATH200&#45;&gt;PHYS248 -->
<g id="edge6" class="edge">
<title>MATH200&#45;&gt;PHYS248</title>
<path fill="none" stroke="black" d="M531.79,-377.13C548.79,-390.03 579.66,-411.22 610,-420.5 705.02,-449.58 739.16,-457.73 833.5,-426.5 883.71,-409.88 897.98,-398.34 929,-355.5 958.67,-314.52 931.04,-285.01 965,-247.5 965.27,-247.2 965.55,-246.91 965.84,-246.62"/>
<polygon fill="black" stroke="black" points="967.23,-247.73 969.9,-243.16 964.96,-245.07 967.23,-247.73"/>
</g>
<!-- 1 of [&#39;MATH200&#39;, &#39;MATH201&#39;, &#39;MATH204&#39;] -->
<g id="node61" class="node">
<title>1 of [&#39;MATH200&#39;, &#39;MATH201&#39;, &#39;MATH204&#39;]</title>
<path fill="#e9dbd0" stroke="#030a10" d="M906.5,-352C906.5,-352 885.5,-352 885.5,-352 882,-352 878.5,-348.5 878.5,-345 878.5,-345 878.5,-338 878.5,-338 878.5,-334.5 882,-331 885.5,-331 885.5,-331 906.5,-331 906.5,-331 910,-331 913.5,-334.5 913.5,-338 913.5,-338 913.5,-345 913.5,-345 913.5,-348.5 910,-352 906.5,-352"/>
<text text-anchor="middle" x="896" y="-338.4" font-family="Times,serif" font-size="12.00">1 of</text>
</g>
<!-- MATH200&#45;&gt;1 of [&#39;MATH200&#39;, &#39;MATH201&#39;, &#39;MATH204&#39;] -->
<g id="edge67" class="edge">
<title>MATH200&#45;&gt;1 of [&#39;MATH200&#39;, &#39;MATH201&#39;, &#39;MATH204&#39;]</title>
<path fill="none" stroke="black" d="M538.77,-377.01C590.49,-402.27 730.56,-460.96 833.5,-413.5 858.75,-401.86 877.47,-374.19 887.28,-356.74"/>
<polygon fill="black" stroke="black" points="888.95,-357.33 889.81,-352.11 885.87,-355.66 888.95,-357.33"/>
</g>
<!-- 1 of [&#39;MATH200&#39;, &#39;MATH205&#39;] -->
<g id="node63" class="node">
<title>1 of [&#39;MATH200&#39;, &#39;MATH205&#39;]</title>
<path fill="#e9dbd0" stroke="#030a10" d="M655,-377C655,-377 634,-377 634,-377 630.5,-377 627,-373.5 627,-370 627,-370 627,-363 627,-363 627,-359.5 630.5,-356 634,-356 634,-356 655,-356 655,-356 658.5,-356 662,-359.5 662,-363 662,-363 662,-370 662,-370 662,-373.5 658.5,-377 655,-377"/>
<text text-anchor="middle" x="644.5" y="-363.4" font-family="Times,serif" font-size="12.00">1 of</text>
</g>
<!-- MATH200&#45;&gt;1 of [&#39;MATH200&#39;, &#39;MATH205&#39;] -->
<g id="edge71" class="edge">
<title>MATH200&#45;&gt;1 of [&#39;MATH200&#39;, &#39;MATH205&#39;]</title>
<path fill="none" stroke="black" d="M552.33,-366.5C574.4,-366.5 602.57,-366.5 621.71,-366.5"/>
<polygon fill="black" stroke="black" points="621.86,-368.25 626.86,-366.5 621.86,-364.75 621.86,-368.25"/>
</g>
<!-- MATH204 -->
<g id="node9" class="node">
<title>MATH204</title>
<path fill="#9fa7be" stroke="#030a10" d="M798,-410C798,-410 743,-410 743,-410 739.5,-410 736,-406.5 736,-403 736,-403 736,-396 736,-396 736,-392.5 739.5,-389 743,-389 743,-389 798,-389 798,-389 801.5,-389 805,-392.5 805,-396 805,-396 805,-403 805,-403 805,-406.5 801.5,-410 798,-410"/>
<text text-anchor="middle" x="770.5" y="-396.4" font-family="Times,serif" font-size="12.00">MATH204</text>
</g>
<!-- PHYS215 -->
<g id="node17" class="node">
<title>PHYS215</title>
<path fill="#9fa7be" stroke="#030a10" d="M922,-308C922,-308 870,-308 870,-308 866.5,-308 863,-304.5 863,-301 863,-301 863,-294 863,-294 863,-290.5 866.5,-287 870,-287 870,-287 922,-287 922,-287 925.5,-287 929,-290.5 929,-294 929,-294 929,-301 929,-301 929,-304.5 925.5,-308 922,-308"/>
<text text-anchor="middle" x="896" y="-294.4" font-family="Times,serif" font-size="12.00">PHYS215</text>
</g>
<!-- MATH204&#45;&gt;PHYS215 -->
<g id="edge19" class="edge">
<title>MATH204&#45;&gt;PHYS215</title>
<path fill="none" stroke="black" d="M805.04,-395.34C815.11,-392.72 825.57,-388.44 833.5,-381.5 857.98,-360.07 840.86,-338.34 863,-314.5 864.11,-313.3 865.33,-312.17 866.62,-311.11"/>
<polygon fill="black" stroke="black" points="867.69,-312.5 870.67,-308.12 865.61,-309.68 867.69,-312.5"/>
</g>
<!-- PHYS317 -->
<g id="node18" class="node">
<title>PHYS317</title>
<path fill="#9fa7be" stroke="#030a10" d="M922,-280C922,-280 870,-280 870,-280 866.5,-280 863,-276.5 863,-273 863,-273 863,-266 863,-266 863,-262.5 866.5,-259 870,-259 870,-259 922,-259 922,-259 925.5,-259 929,-262.5 929,-266 929,-266 929,-273 929,-273 929,-276.5 925.5,-280 922,-280"/>
<text text-anchor="middle" x="896" y="-266.4" font-family="Times,serif" font-size="12.00">PHYS317</text>
</g>
<!-- MATH204&#45;&gt;PHYS317 -->
<g id="edge52" class="edge">
<title>MATH204&#45;&gt;PHYS317</title>
<path fill="none" stroke="black" d="M805.23,-395.98C815.43,-393.39 825.92,-388.98 833.5,-381.5 865.56,-349.84 833.5,-318.56 863,-284.5 863.26,-284.21 863.52,-283.92 863.79,-283.63"/>
<polygon fill="black" stroke="black" points="865.05,-284.85 867.62,-280.22 862.73,-282.24 865.05,-284.85"/>
</g>
<!-- PHYS321A -->
<g id="node19" class="node">
<title>PHYS321A</title>
<path fill="#9fa7be" stroke="#030a10" d="M1209,-167C1209,-167 1148,-167 1148,-167 1144.5,-167 1141,-163.5 1141,-160 1141,-160 1141,-153 1141,-153 1141,-149.5 1144.5,-146 1148,-146 1148,-146 1209,-146 1209,-146 1212.5,-146 1216,-149.5 1216,-153 1216,-153 1216,-160 1216,-160 1216,-163.5 1212.5,-167 1209,-167"/>
<text text-anchor="middle" x="1178.5" y="-153.4" font-family="Times,serif" font-size="12.00">PHYS321A</text>
</g>
<!-- MATH204&#45;&gt;PHYS321A -->
<g id="edge110" class="edge">
<title>MATH204&#45;&gt;PHYS321A</title>
<path fill="none" stroke="black" d="M805.29,-394.3C838.26,-388.26 889.13,-376.37 929,-355.5 1019.05,-308.38 1031.29,-279.47 1105,-209.5 1122.11,-193.26 1121.48,-183.74 1141,-170.5 1141.34,-170.27 1141.68,-170.05 1142.02,-169.83"/>
<polygon fill="black" stroke="black" points="1143.26,-171.13 1146.7,-167.1 1141.5,-168.11 1143.26,-171.13"/>
</g>
<!-- PHYS325 -->
<g id="node20" class="node">
<title>PHYS325</title>
<path fill="#9fa7be" stroke="#030a10" d="M1025.5,-95C1025.5,-95 973.5,-95 973.5,-95 970,-95 966.5,-91.5 966.5,-88 966.5,-88 966.5,-81 966.5,-81 966.5,-77.5 970,-74 973.5,-74 973.5,-74 1025.5,-74 1025.5,-74 1029,-74 1032.5,-77.5 1032.5,-81 1032.5,-81 1032.5,-88 1032.5,-88 1032.5,-91.5 1029,-95 1025.5,-95"/>
<text text-anchor="middle" x="999.5" y="-81.4" font-family="Times,serif" font-size="12.00">PHYS325</text>
</g>
<!-- MATH204&#45;&gt;PHYS325 -->
<g id="edge105" class="edge">
<title>MATH204&#45;&gt;PHYS325</title>
<path fill="none" stroke="black" d="M805.01,-394.84C814.97,-392.19 825.37,-388.03 833.5,-381.5 854.82,-364.38 841.3,-344.15 863,-327.5 886.95,-309.13 908.42,-333.58 929,-311.5 993.31,-242.5 908.38,-176.06 964.97,-99.36"/>
<polygon fill="black" stroke="black" points="966.48,-100.27 968.15,-95.24 963.71,-98.13 966.48,-100.27"/>
</g>
<!-- PHYS326 -->
<g id="node21" class="node">
<title>PHYS326</title>
<path fill="#9fa7be" stroke="#030a10" d="M1204.5,-195C1204.5,-195 1152.5,-195 1152.5,-195 1149,-195 1145.5,-191.5 1145.5,-188 1145.5,-188 1145.5,-181 1145.5,-181 1145.5,-177.5 1149,-174 1152.5,-174 1152.5,-174 1204.5,-174 1204.5,-174 1208,-174 1211.5,-177.5 1211.5,-181 1211.5,-181 1211.5,-188 1211.5,-188 1211.5,-191.5 1208,-195 1204.5,-195"/>
<text text-anchor="middle" x="1178.5" y="-181.4" font-family="Times,serif" font-size="12.00">PHYS326</text>
</g>
<!-- MATH204&#45;&gt;PHYS326 -->
<g id="edge24" class="edge">
<title>MATH204&#45;&gt;PHYS326</title>
<path fill="none" stroke="black" d="M805.01,-401.65C880.61,-405.76 1061.26,-411.16 1105,-372.5 1164.17,-320.21 1089.87,-258.68 1141,-198.5 1141.16,-198.31 1141.33,-198.12 1141.5,-197.93"/>
<polygon fill="black" stroke="black" points="1142.93,-198.99 1145.47,-194.34 1140.59,-196.4 1142.93,-198.99"/>
</g>
<!-- PHYS323 -->
<g id="node24" class="node">
<title>PHYS323</title>
<path fill="#9fa7be" stroke="#030a10" d="M1204.5,-308C1204.5,-308 1152.5,-308 1152.5,-308 1149,-308 1145.5,-304.5 1145.5,-301 1145.5,-301 1145.5,-294 1145.5,-294 1145.5,-290.5 1149,-287 1152.5,-287 1152.5,-287 1204.5,-287 1204.5,-287 1208,-287 1211.5,-290.5 1211.5,-294 1211.5,-294 1211.5,-301 1211.5,-301 1211.5,-304.5 1208,-308 1204.5,-308"/>
<text text-anchor="middle" x="1178.5" y="-294.4" font-family="Times,serif" font-size="12.00">PHYS323</text>
</g>
<!-- MATH204&#45;&gt;PHYS323 -->
<g id="edge44" class="edge">
<title>MATH204&#45;&gt;PHYS323</title>
<path fill="none" stroke="black" d="M805.13,-409.46C868.13,-426.09 1006.45,-452.94 1105,-401.5 1140.89,-382.77 1162.63,-337.28 1172.03,-313.14"/>
<polygon fill="black" stroke="black" points="1173.72,-313.63 1173.85,-308.33 1170.44,-312.39 1173.72,-313.63"/>
</g>
<!-- MATH204&#45;&gt;1 of [&#39;MATH200&#39;, &#39;MATH201&#39;, &#39;MATH204&#39;] -->
<g id="edge69" class="edge">
<title>MATH204&#45;&gt;1 of [&#39;MATH200&#39;, &#39;MATH201&#39;, &#39;MATH204&#39;]</title>
<path fill="none" stroke="black" d="M805.29,-391.64C814.63,-388.94 824.63,-385.56 833.5,-381.5 834.63,-380.99 857.16,-366.28 874.63,-354.85"/>
<polygon fill="black" stroke="black" points="875.72,-356.23 878.94,-352.03 873.8,-353.3 875.72,-356.23"/>
</g>
<!-- MATH211 -->
<g id="node10" class="node">
<title>MATH211</title>
<path fill="#9fa7be" stroke="#030a10" d="M672,-130C672,-130 617,-130 617,-130 613.5,-130 610,-126.5 610,-123 610,-123 610,-116 610,-116 610,-112.5 613.5,-109 617,-109 617,-109 672,-109 672,-109 675.5,-109 679,-112.5 679,-116 679,-116 679,-123 679,-123 679,-126.5 675.5,-130 672,-130"/>
<text text-anchor="middle" x="644.5" y="-116.4" font-family="Times,serif" font-size="12.00">MATH211</text>
</g>
<!-- PHYS411 -->
<g id="node25" class="node">
<title>PHYS411</title>
<path fill="#9fa7be" stroke="#030a10" d="M1456,-28C1456,-28 1404,-28 1404,-28 1400.5,-28 1397,-24.5 1397,-21 1397,-21 1397,-14 1397,-14 1397,-10.5 1400.5,-7 1404,-7 1404,-7 1456,-7 1456,-7 1459.5,-7 1463,-10.5 1463,-14 1463,-14 1463,-21 1463,-21 1463,-24.5 1459.5,-28 1456,-28"/>
<text text-anchor="middle" x="1430" y="-14.4" font-family="Times,serif" font-size="12.00">PHYS411</text>
</g>
<!-- MATH211&#45;&gt;PHYS411 -->
<g id="edge53" class="edge">
<title>MATH211&#45;&gt;PHYS411</title>
<path fill="none" stroke="black" d="M649.89,-108.84C658.24,-90 678.33,-51.08 708.5,-32.5 780,11.51 811.05,-2.5 895,-2.5 895,-2.5 895,-2.5 1179.5,-2.5 1254.86,-2.5 1342.8,-9.41 1391.57,-13.85"/>
<polygon fill="black" stroke="black" points="1391.6,-15.61 1396.74,-14.32 1391.92,-12.12 1391.6,-15.61"/>
</g>
<!-- 1 of [&#39;MATH110&#39;, &#39;MATH211&#39;] -->
<g id="node40" class="node">
<title>1 of [&#39;MATH110&#39;, &#39;MATH211&#39;]</title>
<path fill="#e9dbd0" stroke="#030a10" d="M906.5,-136C906.5,-136 885.5,-136 885.5,-136 882,-136 878.5,-132.5 878.5,-129 878.5,-129 878.5,-122 878.5,-122 878.5,-118.5 882,-115 885.5,-115 885.5,-115 906.5,-115 906.5,-115 910,-115 913.5,-118.5 913.5,-122 913.5,-122 913.5,-129 913.5,-129 913.5,-132.5 910,-136 906.5,-136"/>
<text text-anchor="middle" x="896" y="-122.4" font-family="Times,serif" font-size="12.00">1 of</text>
</g>
<!-- MATH211&#45;&gt;1 of [&#39;MATH110&#39;, &#39;MATH211&#39;] -->
<g id="edge5" class="edge">
<title>MATH211&#45;&gt;1 of [&#39;MATH110&#39;, &#39;MATH211&#39;]</title>
<path fill="none" stroke="black" d="M679.15,-120.31C731.17,-121.56 829.67,-123.93 873.28,-124.98"/>
<polygon fill="black" stroke="black" points="873.28,-126.73 878.32,-125.1 873.36,-123.23 873.28,-126.73"/>
</g>
<!-- PHYS216&#45;&gt;PHYS326 -->
<g id="edge25" class="edge">
<title>PHYS216&#45;&gt;PHYS326</title>
<path fill="none" stroke="black" d="M803.77,-167.98C813.57,-170.26 824.19,-173.36 833.5,-177.5 898.2,-206.3 897.34,-246.57 965,-267.5 1045.26,-292.34 1066.07,-236.52 1141,-198.5 1141.72,-198.14 1142.45,-197.78 1143.19,-197.42"/>
<polygon fill="black" stroke="black" points="1144.36,-198.81 1148.18,-195.13 1142.9,-195.63 1144.36,-198.81"/>
</g>
<!-- 1 of [&#39;PHYS216&#39;, &#39;ECE216&#39;, &#39;ELEC216&#39;] -->
<g id="node71" class="node">
<title>1 of [&#39;PHYS216&#39;, &#39;ECE216&#39;, &#39;ELEC216&#39;]</title>
<path fill="#e9dbd0" stroke="#030a10" d="M906.5,-105C906.5,-105 885.5,-105 885.5,-105 882,-105 878.5,-101.5 878.5,-98 878.5,-98 878.5,-91 878.5,-91 878.5,-87.5 882,-84 885.5,-84 885.5,-84 906.5,-84 906.5,-84 910,-84 913.5,-87.5 913.5,-91 913.5,-91 913.5,-98 913.5,-98 913.5,-101.5 910,-105 906.5,-105"/>
<text text-anchor="middle" x="896" y="-91.4" font-family="Times,serif" font-size="12.00">1 of</text>
</g>
<!-- PHYS216&#45;&gt;1 of [&#39;PHYS216&#39;, &#39;ECE216&#39;, &#39;ELEC216&#39;] -->
<g id="edge102" class="edge">
<title>PHYS216&#45;&gt;1 of [&#39;PHYS216&#39;, &#39;ECE216&#39;, &#39;ELEC216&#39;]</title>
<path fill="none" stroke="black" d="M803.65,-158.81C813.76,-156.61 824.59,-153.1 833.5,-147.5 851.02,-136.5 847,-124.61 863,-111.5 866.29,-108.81 870.07,-106.35 873.85,-104.2"/>
<polygon fill="black" stroke="black" points="874.71,-105.73 878.27,-101.81 873.04,-102.65 874.71,-105.73"/>
</g>
<!-- 1 of [&#39;PHYS248&#39;, &#39;CSC226&#39;, &#39;CSC349A&#39;, &#39;MATH248&#39;] -->
<g id="node48" class="node">
<title>1 of [&#39;PHYS248&#39;, &#39;CSC226&#39;, &#39;CSC349A&#39;, &#39;MATH248&#39;]</title>
<path fill="#e9dbd0" stroke="#030a10" d="M1098,-174C1098,-174 1077,-174 1077,-174 1073.5,-174 1070,-170.5 1070,-167 1070,-167 1070,-160 1070,-160 1070,-156.5 1073.5,-153 1077,-153 1077,-153 1098,-153 1098,-153 1101.5,-153 1105,-156.5 1105,-160 1105,-160 1105,-167 1105,-167 1105,-170.5 1101.5,-174 1098,-174"/>
<text text-anchor="middle" x="1087.5" y="-160.4" font-family="Times,serif" font-size="12.00">1 of</text>
</g>
<!-- PHYS248&#45;&gt;1 of [&#39;PHYS248&#39;, &#39;CSC226&#39;, &#39;CSC349A&#39;, &#39;MATH248&#39;] -->
<g id="edge27" class="edge">
<title>PHYS248&#45;&gt;1 of [&#39;PHYS248&#39;, &#39;CSC226&#39;, &#39;CSC349A&#39;, &#39;MATH248&#39;]</title>
<path fill="none" stroke="black" d="M1026.64,-221.99C1029.2,-220.61 1031.7,-219.11 1034,-217.5 1038.41,-214.42 1058.84,-192.99 1072.87,-178.08"/>
<polygon fill="black" stroke="black" points="1074.49,-178.91 1076.64,-174.06 1071.94,-176.51 1074.49,-178.91"/>
</g>
<!-- MATH342 -->
<g id="node15" class="node">
<title>MATH342</title>
<path fill="#9fa7be" stroke="#030a10" d="M1027,-215C1027,-215 972,-215 972,-215 968.5,-215 965,-211.5 965,-208 965,-208 965,-201 965,-201 965,-197.5 968.5,-194 972,-194 972,-194 1027,-194 1027,-194 1030.5,-194 1034,-197.5 1034,-201 1034,-201 1034,-208 1034,-208 1034,-211.5 1030.5,-215 1027,-215"/>
<text text-anchor="middle" x="999.5" y="-201.4" font-family="Times,serif" font-size="12.00">MATH342</text>
</g>
<!-- 1 of [&#39;PHYS301&#39;, &#39;MATH342&#39;, &#39;MATH346&#39;] -->
<g id="node52" class="node">
<title>1 of [&#39;PHYS301&#39;, &#39;MATH342&#39;, &#39;MATH346&#39;]</title>
<path fill="#e9dbd0" stroke="#030a10" d="M1098,-206C1098,-206 1077,-206 1077,-206 1073.5,-206 1070,-202.5 1070,-199 1070,-199 1070,-192 1070,-192 1070,-188.5 1073.5,-185 1077,-185 1077,-185 1098,-185 1098,-185 1101.5,-185 1105,-188.5 1105,-192 1105,-192 1105,-199 1105,-199 1105,-202.5 1101.5,-206 1098,-206"/>
<text text-anchor="middle" x="1087.5" y="-192.4" font-family="Times,serif" font-size="12.00">1 of</text>
</g>
<!-- MATH342&#45;&gt;1 of [&#39;PHYS301&#39;, &#39;MATH342&#39;, &#39;MATH346&#39;] -->
<g id="edge33" class="edge">
<title>MATH342&#45;&gt;1 of [&#39;PHYS301&#39;, &#39;MATH342&#39;, &#39;MATH346&#39;]</title>
<path fill="none" stroke="black" d="M1034.49,-200.95C1044.69,-199.88 1055.61,-198.74 1064.79,-197.77"/>
<polygon fill="black" stroke="black" points="1065.18,-199.49 1069.98,-197.23 1064.82,-196.01 1065.18,-199.49"/>
</g>
<!-- MATH346 -->
<g id="node16" class="node">
<title>MATH346</title>
<path fill="#9fa7be" stroke="#030a10" d="M1027,-123C1027,-123 972,-123 972,-123 968.5,-123 965,-119.5 965,-116 965,-116 965,-109 965,-109 965,-105.5 968.5,-102 972,-102 972,-102 1027,-102 1027,-102 1030.5,-102 1034,-105.5 1034,-109 1034,-109 1034,-116 1034,-116 1034,-119.5 1030.5,-123 1027,-123"/>
<text text-anchor="middle" x="999.5" y="-109.4" font-family="Times,serif" font-size="12.00">MATH346</text>
</g>
<!-- MATH346&#45;&gt;PHYS411 -->
<g id="edge54" class="edge">
<title>MATH346&#45;&gt;PHYS411</title>
<path fill="none" stroke="black" d="M1034.12,-105.05C1112.99,-87.56 1309.39,-44.02 1391.74,-25.76"/>
<polygon fill="black" stroke="black" points="1392.49,-27.39 1397,-24.6 1391.74,-23.97 1392.49,-27.39"/>
</g>
<!-- EOS427 -->
<g id="node38" class="node">
<title>EOS427</title>
<path fill="#a48cf4" stroke="#030a10" d="M1328,-170C1328,-170 1284,-170 1284,-170 1280.5,-170 1277,-166.5 1277,-163 1277,-163 1277,-156 1277,-156 1277,-152.5 1280.5,-149 1284,-149 1284,-149 1328,-149 1328,-149 1331.5,-149 1335,-152.5 1335,-156 1335,-156 1335,-163 1335,-163 1335,-166.5 1331.5,-170 1328,-170"/>
<text text-anchor="middle" x="1306" y="-156.4" font-family="Times,serif" font-size="12.00">EOS427</text>
</g>
<!-- MATH346&#45;&gt;EOS427 -->
<g id="edge94" class="edge">
<title>MATH346&#45;&gt;EOS427</title>
<path fill="none" stroke="black" d="M1034.17,-116.66C1076.65,-122.02 1151.9,-131.93 1216,-142.5 1234.43,-145.54 1254.9,-149.42 1271.56,-152.7"/>
<polygon fill="black" stroke="black" points="1271.36,-154.45 1276.61,-153.7 1272.04,-151.01 1271.36,-154.45"/>
</g>
<!-- PHYS427 -->
<g id="node39" class="node">
<title>PHYS427</title>
<path fill="#a48cf4" stroke="#030a10" d="M1332,-142C1332,-142 1280,-142 1280,-142 1276.5,-142 1273,-138.5 1273,-135 1273,-135 1273,-128 1273,-128 1273,-124.5 1276.5,-121 1280,-121 1280,-121 1332,-121 1332,-121 1335.5,-121 1339,-124.5 1339,-128 1339,-128 1339,-135 1339,-135 1339,-138.5 1335.5,-142 1332,-142"/>
<text text-anchor="middle" x="1306" y="-128.4" font-family="Times,serif" font-size="12.00">PHYS427</text>
</g>
<!-- MATH346&#45;&gt;PHYS427 -->
<g id="edge49" class="edge">
<title>MATH346&#45;&gt;PHYS427</title>
<path fill="none" stroke="black" d="M1034.13,-113.5C1076.56,-114.88 1151.75,-117.77 1216,-122.5 1232.98,-123.75 1251.73,-125.58 1267.63,-127.27"/>
<polygon fill="black" stroke="black" points="1267.75,-129.04 1272.9,-127.83 1268.12,-125.56 1267.75,-129.04"/>
</g>
<!-- MATH346&#45;&gt;1 of [&#39;PHYS301&#39;, &#39;MATH342&#39;, &#39;MATH346&#39;] -->
<g id="edge34" class="edge">
<title>MATH346&#45;&gt;1 of [&#39;PHYS301&#39;, &#39;MATH342&#39;, &#39;MATH346&#39;]</title>
<path fill="none" stroke="black" d="M1029.28,-123.2C1030.94,-124.22 1032.52,-125.32 1034,-126.5 1055.64,-143.86 1052.59,-155.9 1070,-177.5 1070.84,-178.54 1071.72,-179.6 1072.62,-180.65"/>
<polygon fill="black" stroke="black" points="1071.53,-182.06 1076.15,-184.66 1074.16,-179.75 1071.53,-182.06"/>
</g>
<!-- PHYS215&#45;&gt;PHYS323 -->
<g id="edge43" class="edge">
<title>PHYS215&#45;&gt;PHYS323</title>
<path fill="none" stroke="black" d="M929.18,-297.5C981.45,-297.5 1084.56,-297.5 1140.05,-297.5"/>
<polygon fill="black" stroke="black" points="1140.27,-299.25 1145.27,-297.5 1140.27,-295.75 1140.27,-299.25"/>
</g>
<!-- PHYS321A&#45;&gt;EOS427 -->
<g id="edge92" class="edge">
<title>PHYS321A&#45;&gt;EOS427</title>
<path fill="none" stroke="black" d="M1216.14,-157.38C1233.71,-157.8 1254.61,-158.3 1271.72,-158.71"/>
<polygon fill="black" stroke="black" points="1271.86,-160.46 1276.9,-158.83 1271.94,-156.96 1271.86,-160.46"/>
</g>
<!-- PHYS321A&#45;&gt;PHYS427 -->
<g id="edge47" class="edge">
<title>PHYS321A&#45;&gt;PHYS427</title>
<path fill="none" stroke="black" d="M1216.14,-149.2C1232.4,-145.97 1251.51,-142.16 1267.83,-138.91"/>
<polygon fill="black" stroke="black" points="1268.24,-140.61 1272.8,-137.92 1267.55,-137.18 1268.24,-140.61"/>
</g>
<!-- 2 of [&#39;EOS340&#39;, &#39;EOS431&#39;, &#39;PHYS321A&#39;, &#39;PHYS323&#39;, &#39;PHYS326&#39;, &#39;PHYS340&#39;, &#39;PHYS441&#39;] -->
<g id="node56" class="node">
<title>2 of [&#39;EOS340&#39;, &#39;EOS431&#39;, &#39;PHYS321A&#39;, &#39;PHYS323&#39;, &#39;PHYS326&#39;, &#39;PHYS340&#39;, &#39;PHYS441&#39;]</title>
<path fill="#d1b79e" stroke="#030a10" d="M1316.5,-237C1316.5,-237 1295.5,-237 1295.5,-237 1292,-237 1288.5,-233.5 1288.5,-230 1288.5,-230 1288.5,-223 1288.5,-223 1288.5,-219.5 1292,-216 1295.5,-216 1295.5,-216 1316.5,-216 1316.5,-216 1320,-216 1323.5,-219.5 1323.5,-223 1323.5,-223 1323.5,-230 1323.5,-230 1323.5,-233.5 1320,-237 1316.5,-237"/>
<text text-anchor="middle" x="1306" y="-223.4" font-family="Times,serif" font-size="12.00">2 of</text>
</g>
<!-- PHYS321A&#45;&gt;2 of [&#39;EOS340&#39;, &#39;EOS431&#39;, &#39;PHYS321A&#39;, &#39;PHYS323&#39;, &#39;PHYS326&#39;, &#39;PHYS340&#39;, &#39;PHYS441&#39;] -->
<g id="edge58" class="edge">
<title>PHYS321A&#45;&gt;2 of [&#39;EOS340&#39;, &#39;EOS431&#39;, &#39;PHYS321A&#39;, &#39;PHYS323&#39;, &#39;PHYS326&#39;, &#39;PHYS340&#39;, &#39;PHYS441&#39;]</title>
<path fill="none" stroke="black" d="M1210.34,-167.05C1212.31,-168.11 1214.22,-169.26 1216,-170.5 1231.5,-181.32 1228.55,-191.62 1244,-202.5 1255.89,-210.87 1271.1,-216.86 1283.36,-220.77"/>
<polygon fill="black" stroke="black" points="1283.12,-222.53 1288.42,-222.32 1284.15,-219.18 1283.12,-222.53"/>
</g>
<!-- PHYS326&#45;&gt;EOS427 -->
<g id="edge93" class="edge">
<title>PHYS326&#45;&gt;EOS427</title>
<path fill="none" stroke="black" d="M1211.82,-178.06C1230.14,-174.41 1253.03,-169.86 1271.54,-166.17"/>
<polygon fill="black" stroke="black" points="1272.07,-167.85 1276.63,-165.15 1271.39,-164.41 1272.07,-167.85"/>
</g>
<!-- PHYS326&#45;&gt;PHYS427 -->
<g id="edge48" class="edge">
<title>PHYS326&#45;&gt;PHYS427</title>
<path fill="none" stroke="black" d="M1207.85,-173.92C1210.66,-172.55 1213.43,-171.08 1216,-169.5 1229.98,-160.95 1229.37,-152.88 1244,-145.5 1251.39,-141.77 1259.79,-139.03 1267.93,-137"/>
<polygon fill="black" stroke="black" points="1268.49,-138.67 1272.96,-135.84 1267.69,-135.26 1268.49,-138.67"/>
</g>
<!-- PHYS326&#45;&gt;2 of [&#39;EOS340&#39;, &#39;EOS431&#39;, &#39;PHYS321A&#39;, &#39;PHYS323&#39;, &#39;PHYS326&#39;, &#39;PHYS340&#39;, &#39;PHYS441&#39;] -->
<g id="edge60" class="edge">
<title>PHYS326&#45;&gt;2 of [&#39;EOS340&#39;, &#39;EOS431&#39;, &#39;PHYS321A&#39;, &#39;PHYS323&#39;, &#39;PHYS326&#39;, &#39;PHYS340&#39;, &#39;PHYS441&#39;]</title>
<path fill="none" stroke="black" d="M1211.17,-195.1C1233.8,-202.67 1263.63,-212.66 1283.53,-219.32"/>
<polygon fill="black" stroke="black" points="1283.06,-221.01 1288.36,-220.93 1284.17,-217.69 1283.06,-221.01"/>
</g>
<!-- EOS480 -->
<g id="node23" class="node">
<title>EOS480</title>
<path fill="#9fa7be" stroke="#030a10" d="M51,-361C51,-361 7,-361 7,-361 3.5,-361 0,-357.5 0,-354 0,-354 0,-347 0,-347 0,-343.5 3.5,-340 7,-340 7,-340 51,-340 51,-340 54.5,-340 58,-343.5 58,-347 58,-347 58,-354 58,-354 58,-357.5 54.5,-361 51,-361"/>
<text text-anchor="middle" x="29" y="-347.4" font-family="Times,serif" font-size="12.00">EOS480</text>
</g>
<!-- PHYS323&#45;&gt;2 of [&#39;EOS340&#39;, &#39;EOS431&#39;, &#39;PHYS321A&#39;, &#39;PHYS323&#39;, &#39;PHYS326&#39;, &#39;PHYS340&#39;, &#39;PHYS441&#39;] -->
<g id="edge59" class="edge">
<title>PHYS323&#45;&gt;2 of [&#39;EOS340&#39;, &#39;EOS431&#39;, &#39;PHYS321A&#39;, &#39;PHYS323&#39;, &#39;PHYS326&#39;, &#39;PHYS340&#39;, &#39;PHYS441&#39;]</title>
<path fill="none" stroke="black" d="M1208.82,-286.87C1211.28,-285.79 1213.7,-284.67 1216,-283.5 1241.36,-270.68 1268.61,-252.51 1286.18,-240.16"/>
<polygon fill="black" stroke="black" points="1287.36,-241.47 1290.43,-237.15 1285.34,-238.61 1287.36,-241.47"/>
</g>
<!-- CHEM101 -->
<g id="node26" class="node">
<title>CHEM101</title>
<path fill="#f77189" stroke="#030a10" d="M176,-409C176,-409 120,-409 120,-409 116.5,-409 113,-405.5 113,-402 113,-402 113,-395 113,-395 113,-391.5 116.5,-388 120,-388 120,-388 176,-388 176,-388 179.5,-388 183,-391.5 183,-395 183,-395 183,-402 183,-402 183,-405.5 179.5,-409 176,-409"/>
<text text-anchor="middle" x="148" y="-395.4" font-family="Times,serif" font-size="12.00">CHEM101</text>
</g>
<!-- 1 of [&#39;CHEM101&#39;, &#39;CHEM150&#39;] -->
<g id="node70" class="node">
<title>1 of [&#39;CHEM101&#39;, &#39;CHEM150&#39;]</title>
<path fill="#e9dbd0" stroke="#030a10" d="M268.5,-381C268.5,-381 247.5,-381 247.5,-381 244,-381 240.5,-377.5 240.5,-374 240.5,-374 240.5,-367 240.5,-367 240.5,-363.5 244,-360 247.5,-360 247.5,-360 268.5,-360 268.5,-360 272,-360 275.5,-363.5 275.5,-367 275.5,-367 275.5,-374 275.5,-374 275.5,-377.5 272,-381 268.5,-381"/>
<text text-anchor="middle" x="258" y="-367.4" font-family="Times,serif" font-size="12.00">1 of</text>
</g>
<!-- CHEM101&#45;&gt;1 of [&#39;CHEM101&#39;, &#39;CHEM150&#39;] -->
<g id="edge86" class="edge">
<title>CHEM101&#45;&gt;1 of [&#39;CHEM101&#39;, &#39;CHEM150&#39;]</title>
<path fill="none" stroke="black" d="M183.22,-391.25C192.28,-389.2 202.04,-386.87 211,-384.5 219,-382.39 227.7,-379.81 235.36,-377.45"/>
<polygon fill="black" stroke="black" points="236.22,-379.01 240.48,-375.85 235.18,-375.67 236.22,-379.01"/>
</g>
<!-- CHEM150 -->
<g id="node27" class="node">
<title>CHEM150</title>
<path fill="#f77189" stroke="#030a10" d="M176,-381C176,-381 120,-381 120,-381 116.5,-381 113,-377.5 113,-374 113,-374 113,-367 113,-367 113,-363.5 116.5,-360 120,-360 120,-360 176,-360 176,-360 179.5,-360 183,-363.5 183,-367 183,-367 183,-374 183,-374 183,-377.5 179.5,-381 176,-381"/>
<text text-anchor="middle" x="148" y="-367.4" font-family="Times,serif" font-size="12.00">CHEM150</text>
</g>
<!-- CHEM150&#45;&gt;1 of [&#39;CHEM101&#39;, &#39;CHEM150&#39;] -->
<g id="edge87" class="edge">
<title>CHEM150&#45;&gt;1 of [&#39;CHEM101&#39;, &#39;CHEM150&#39;]</title>
<path fill="none" stroke="black" d="M183.17,-370.5C200.12,-370.5 220.1,-370.5 235,-370.5"/>
<polygon fill="black" stroke="black" points="235.24,-372.25 240.24,-370.5 235.24,-368.75 235.24,-372.25"/>
</g>
<!-- CSC110 -->
<g id="node28" class="node">
<title>CSC110</title>
<path fill="#ce9032" stroke="#030a10" d="M391,-514C391,-514 347,-514 347,-514 343.5,-514 340,-510.5 340,-507 340,-507 340,-500 340,-500 340,-496.5 343.5,-493 347,-493 347,-493 391,-493 391,-493 394.5,-493 398,-496.5 398,-500 398,-500 398,-507 398,-507 398,-510.5 394.5,-514 391,-514"/>
<text text-anchor="middle" x="369" y="-500.4" font-family="Times,serif" font-size="12.00">CSC110</text>
</g>
<!-- 1 of [&#39;CSC110&#39;, &#39;CSC111&#39;] -->
<g id="node42" class="node">
<title>1 of [&#39;CSC110&#39;, &#39;CSC111&#39;]</title>
<path fill="#e9dbd0" stroke="#030a10" d="M528,-542C528,-542 507,-542 507,-542 503.5,-542 500,-538.5 500,-535 500,-535 500,-528 500,-528 500,-524.5 503.5,-521 507,-521 507,-521 528,-521 528,-521 531.5,-521 535,-524.5 535,-528 535,-528 535,-535 535,-535 535,-538.5 531.5,-542 528,-542"/>
<text text-anchor="middle" x="517.5" y="-528.4" font-family="Times,serif" font-size="12.00">1 of</text>
</g>
<!-- CSC110&#45;&gt;1 of [&#39;CSC110&#39;, &#39;CSC111&#39;] -->
<g id="edge8" class="edge">
<title>CSC110&#45;&gt;1 of [&#39;CSC110&#39;, &#39;CSC111&#39;]</title>
<path fill="none" stroke="black" d="M398.25,-508.9C426.35,-514.27 468.87,-522.4 494.54,-527.31"/>
<polygon fill="black" stroke="black" points="494.51,-529.08 499.75,-528.3 495.17,-525.64 494.51,-529.08"/>
</g>
<!-- CSC111 -->
<g id="node29" class="node">
<title>CSC111</title>
<path fill="#ce9032" stroke="#030a10" d="M390.5,-542C390.5,-542 347.5,-542 347.5,-542 344,-542 340.5,-538.5 340.5,-535 340.5,-535 340.5,-528 340.5,-528 340.5,-524.5 344,-521 347.5,-521 347.5,-521 390.5,-521 390.5,-521 394,-521 397.5,-524.5 397.5,-528 397.5,-528 397.5,-535 397.5,-535 397.5,-538.5 394,-542 390.5,-542"/>
<text text-anchor="middle" x="369" y="-528.4" font-family="Times,serif" font-size="12.00">CSC111</text>
</g>
<!-- CSC111&#45;&gt;1 of [&#39;CSC110&#39;, &#39;CSC111&#39;] -->
<g id="edge9" class="edge">
<title>CSC111&#45;&gt;1 of [&#39;CSC110&#39;, &#39;CSC111&#39;]</title>
<path fill="none" stroke="black" d="M397.56,-531.5C425.72,-531.5 468.9,-531.5 494.75,-531.5"/>
<polygon fill="black" stroke="black" points="494.99,-533.25 499.99,-531.5 494.99,-529.75 494.99,-533.25"/>
</g>
<!-- MATH100 -->
<g id="node30" class="node">
<title>MATH100</title>
<path fill="#97a431" stroke="#030a10" d="M175.5,-281C175.5,-281 120.5,-281 120.5,-281 117,-281 113.5,-277.5 113.5,-274 113.5,-274 113.5,-267 113.5,-267 113.5,-263.5 117,-260 120.5,-260 120.5,-260 175.5,-260 175.5,-260 179,-260 182.5,-263.5 182.5,-267 182.5,-267 182.5,-274 182.5,-274 182.5,-277.5 179,-281 175.5,-281"/>
<text text-anchor="middle" x="148" y="-267.4" font-family="Times,serif" font-size="12.00">MATH100</text>
</g>
<!-- 1 of [&#39;MATH100&#39;, &#39;MATH109&#39;] -->
<g id="node43" class="node">
<title>1 of [&#39;MATH100&#39;, &#39;MATH109&#39;]</title>
<path fill="#e9dbd0" stroke="#030a10" d="M268.5,-273C268.5,-273 247.5,-273 247.5,-273 244,-273 240.5,-269.5 240.5,-266 240.5,-266 240.5,-259 240.5,-259 240.5,-255.5 244,-252 247.5,-252 247.5,-252 268.5,-252 268.5,-252 272,-252 275.5,-255.5 275.5,-259 275.5,-259 275.5,-266 275.5,-266 275.5,-269.5 272,-273 268.5,-273"/>
<text text-anchor="middle" x="258" y="-259.4" font-family="Times,serif" font-size="12.00">1 of</text>
</g>
<!-- MATH100&#45;&gt;1 of [&#39;MATH100&#39;, &#39;MATH109&#39;] -->
<g id="edge11" class="edge">
<title>MATH100&#45;&gt;1 of [&#39;MATH100&#39;, &#39;MATH109&#39;]</title>
<path fill="none" stroke="black" d="M182.58,-268.02C199.68,-266.75 219.97,-265.25 235.05,-264.13"/>
<polygon fill="black" stroke="black" points="235.5,-265.85 240.35,-263.74 235.24,-262.36 235.5,-265.85"/>
</g>
<!-- 1 of [&#39;MATH100&#39;, &#39;MATH102&#39;, &#39;MATH109&#39;] -->
<g id="node46" class="node">
<title>1 of [&#39;MATH100&#39;, &#39;MATH102&#39;, &#39;MATH109&#39;]</title>
<path fill="#e9dbd0" stroke="#030a10" d="M268.5,-245C268.5,-245 247.5,-245 247.5,-245 244,-245 240.5,-241.5 240.5,-238 240.5,-238 240.5,-231 240.5,-231 240.5,-227.5 244,-224 247.5,-224 247.5,-224 268.5,-224 268.5,-224 272,-224 275.5,-227.5 275.5,-231 275.5,-231 275.5,-238 275.5,-238 275.5,-241.5 272,-245 268.5,-245"/>
<text text-anchor="middle" x="258" y="-231.4" font-family="Times,serif" font-size="12.00">1 of</text>
</g>
<!-- MATH100&#45;&gt;1 of [&#39;MATH100&#39;, &#39;MATH102&#39;, &#39;MATH109&#39;] -->
<g id="edge21" class="edge">
<title>MATH100&#45;&gt;1 of [&#39;MATH100&#39;, &#39;MATH102&#39;, &#39;MATH109&#39;]</title>
<path fill="none" stroke="black" d="M182.53,-264.37C191.86,-262.28 201.93,-259.65 211,-256.5 219.31,-253.62 228.1,-249.66 235.75,-245.89"/>
<polygon fill="black" stroke="black" points="236.66,-247.39 240.34,-243.58 235.09,-244.26 236.66,-247.39"/>
</g>
<!-- 1 of [&#39;MATH100&#39;, &#39;MATH109&#39;, &#39;MATH120&#39;] -->
<g id="node55" class="node">
<title>1 of [&#39;MATH100&#39;, &#39;MATH109&#39;, &#39;MATH120&#39;]</title>
<path fill="#e9dbd0" stroke="#030a10" d="M268.5,-351C268.5,-351 247.5,-351 247.5,-351 244,-351 240.5,-347.5 240.5,-344 240.5,-344 240.5,-337 240.5,-337 240.5,-333.5 244,-330 247.5,-330 247.5,-330 268.5,-330 268.5,-330 272,-330 275.5,-333.5 275.5,-337 275.5,-337 275.5,-344 275.5,-344 275.5,-347.5 272,-351 268.5,-351"/>
<text text-anchor="middle" x="258" y="-337.4" font-family="Times,serif" font-size="12.00">1 of</text>
</g>
<!-- MATH100&#45;&gt;1 of [&#39;MATH100&#39;, &#39;MATH109&#39;, &#39;MATH120&#39;] -->
<g id="edge40" class="edge">
<title>MATH100&#45;&gt;1 of [&#39;MATH100&#39;, &#39;MATH109&#39;, &#39;MATH120&#39;]</title>
<path fill="none" stroke="black" d="M165.4,-281.13C184.46,-293.49 215.93,-313.89 236.57,-327.26"/>
<polygon fill="black" stroke="black" points="235.65,-328.75 240.8,-330 237.55,-325.81 235.65,-328.75"/>
</g>
<!-- 1 of [&#39;MATH100&#39;, &#39;MATH102&#39;, &#39;MATH109&#39;, &#39;MATH122&#39;] -->
<g id="node65" class="node">
<title>1 of [&#39;MATH100&#39;, &#39;MATH102&#39;, &#39;MATH109&#39;, &#39;MATH122&#39;]</title>
<path fill="#e9dbd0" stroke="#030a10" d="M268.5,-217C268.5,-217 247.5,-217 247.5,-217 244,-217 240.5,-213.5 240.5,-210 240.5,-210 240.5,-203 240.5,-203 240.5,-199.5 244,-196 247.5,-196 247.5,-196 268.5,-196 268.5,-196 272,-196 275.5,-199.5 275.5,-203 275.5,-203 275.5,-210 275.5,-210 275.5,-213.5 272,-217 268.5,-217"/>
<text text-anchor="middle" x="258" y="-203.4" font-family="Times,serif" font-size="12.00">1 of</text>
</g>
<!-- MATH100&#45;&gt;1 of [&#39;MATH100&#39;, &#39;MATH102&#39;, &#39;MATH109&#39;, &#39;MATH122&#39;] -->
<g id="edge76" class="edge">
<title>MATH100&#45;&gt;1 of [&#39;MATH100&#39;, &#39;MATH102&#39;, &#39;MATH109&#39;, &#39;MATH122&#39;]</title>
<path fill="none" stroke="black" d="M182.5,-267.26C192.24,-265.21 202.52,-261.89 211,-256.5 226.91,-246.4 225.05,-236.35 239.1,-220.82"/>
<polygon fill="black" stroke="black" points="240.37,-222.01 242.57,-217.19 237.85,-219.59 240.37,-222.01"/>
</g>
<!-- 1 of [&#39;MATH100&#39;, &#39;MATH102&#39;, &#39;MATH109&#39;, &#39;MATH120&#39;] -->
<g id="node74" class="node">
<title>1 of [&#39;MATH100&#39;, &#39;MATH102&#39;, &#39;MATH109&#39;, &#39;MATH120&#39;]</title>
<path fill="#e9dbd0" stroke="#030a10" d="M268.5,-323C268.5,-323 247.5,-323 247.5,-323 244,-323 240.5,-319.5 240.5,-316 240.5,-316 240.5,-309 240.5,-309 240.5,-305.5 244,-302 247.5,-302 247.5,-302 268.5,-302 268.5,-302 272,-302 275.5,-305.5 275.5,-309 275.5,-309 275.5,-316 275.5,-316 275.5,-319.5 272,-323 268.5,-323"/>
<text text-anchor="middle" x="258" y="-309.4" font-family="Times,serif" font-size="12.00">1 of</text>
</g>
<!-- MATH100&#45;&gt;1 of [&#39;MATH100&#39;, &#39;MATH102&#39;, &#39;MATH109&#39;, &#39;MATH120&#39;] -->
<g id="edge114" class="edge">
<title>MATH100&#45;&gt;1 of [&#39;MATH100&#39;, &#39;MATH102&#39;, &#39;MATH109&#39;, &#39;MATH120&#39;]</title>
<path fill="none" stroke="black" d="M176.25,-281.1C194.49,-288.19 218.17,-297.4 235.16,-304.01"/>
<polygon fill="black" stroke="black" points="234.91,-305.79 240.21,-305.97 236.18,-302.53 234.91,-305.79"/>
</g>
<!-- MATH109 -->
<g id="node31" class="node">
<title>MATH109</title>
<path fill="#97a431" stroke="#030a10" d="M175.5,-253C175.5,-253 120.5,-253 120.5,-253 117,-253 113.5,-249.5 113.5,-246 113.5,-246 113.5,-239 113.5,-239 113.5,-235.5 117,-232 120.5,-232 120.5,-232 175.5,-232 175.5,-232 179,-232 182.5,-235.5 182.5,-239 182.5,-239 182.5,-246 182.5,-246 182.5,-249.5 179,-253 175.5,-253"/>
<text text-anchor="middle" x="148" y="-239.4" font-family="Times,serif" font-size="12.00">MATH109</text>
</g>
<!-- MATH109&#45;&gt;1 of [&#39;MATH100&#39;, &#39;MATH109&#39;] -->
<g id="edge12" class="edge">
<title>MATH109&#45;&gt;1 of [&#39;MATH100&#39;, &#39;MATH109&#39;]</title>
<path fill="none" stroke="black" d="M182.58,-248.72C199.68,-251.89 219.97,-255.65 235.05,-258.44"/>
<polygon fill="black" stroke="black" points="235.12,-260.23 240.35,-259.42 235.75,-256.79 235.12,-260.23"/>
</g>
<!-- MATH109&#45;&gt;1 of [&#39;MATH100&#39;, &#39;MATH102&#39;, &#39;MATH109&#39;] -->
<g id="edge23" class="edge">
<title>MATH109&#45;&gt;1 of [&#39;MATH100&#39;, &#39;MATH102&#39;, &#39;MATH109&#39;]</title>
<path fill="none" stroke="black" d="M182.58,-240.02C199.68,-238.75 219.97,-237.25 235.05,-236.13"/>
<polygon fill="black" stroke="black" points="235.5,-237.85 240.35,-235.74 235.24,-234.36 235.5,-237.85"/>
</g>
<!-- MATH109&#45;&gt;1 of [&#39;MATH100&#39;, &#39;MATH109&#39;, &#39;MATH120&#39;] -->
<g id="edge41" class="edge">
<title>MATH109&#45;&gt;1 of [&#39;MATH100&#39;, &#39;MATH109&#39;, &#39;MATH120&#39;]</title>
<path fill="none" stroke="black" d="M182.58,-244.14C192.65,-246.1 203.11,-249.77 211,-256.5 235.3,-277.23 220.41,-297.71 238.89,-325.61"/>
<polygon fill="black" stroke="black" points="237.54,-326.73 241.87,-329.78 240.39,-324.69 237.54,-326.73"/>
</g>
<!-- MATH109&#45;&gt;1 of [&#39;MATH100&#39;, &#39;MATH102&#39;, &#39;MATH109&#39;, &#39;MATH122&#39;] -->
<g id="edge78" class="edge">
<title>MATH109&#45;&gt;1 of [&#39;MATH100&#39;, &#39;MATH102&#39;, &#39;MATH109&#39;, &#39;MATH122&#39;]</title>
<path fill="none" stroke="black" d="M180.53,-231.99C198.09,-226.14 219.52,-219 235.22,-213.76"/>
<polygon fill="black" stroke="black" points="236.12,-215.31 240.31,-212.07 235.01,-211.99 236.12,-215.31"/>
</g>
<!-- MATH109&#45;&gt;1 of [&#39;MATH100&#39;, &#39;MATH102&#39;, &#39;MATH109&#39;, &#39;MATH120&#39;] -->
<g id="edge116" class="edge">
<title>MATH109&#45;&gt;1 of [&#39;MATH100&#39;, &#39;MATH102&#39;, &#39;MATH109&#39;, &#39;MATH120&#39;]</title>
<path fill="none" stroke="black" d="M182.76,-245.36C192.5,-247.4 202.73,-250.81 211,-256.5 228.19,-268.32 224.42,-280.26 238.87,-297.82"/>
<polygon fill="black" stroke="black" points="237.86,-299.31 242.48,-301.9 240.48,-296.99 237.86,-299.31"/>
</g>
<!-- PHYS120 -->
<g id="node32" class="node">
<title>PHYS120</title>
<path fill="#32b166" stroke="#030a10" d="M395,-273C395,-273 343,-273 343,-273 339.5,-273 336,-269.5 336,-266 336,-266 336,-259 336,-259 336,-255.5 339.5,-252 343,-252 343,-252 395,-252 395,-252 398.5,-252 402,-255.5 402,-259 402,-259 402,-266 402,-266 402,-269.5 398.5,-273 395,-273"/>
<text text-anchor="middle" x="369" y="-259.4" font-family="Times,serif" font-size="12.00">PHYS120</text>
</g>
<!-- PHYS120&#45;&gt;PHYS130 -->
<g id="edge119" class="edge">
<title>PHYS120&#45;&gt;PHYS130</title>
<path fill="none" stroke="black" d="M402.22,-257.49C412.01,-255.37 422.65,-252.45 432,-248.5 457.06,-237.92 482.83,-219.92 499.22,-207.41"/>
<polygon fill="black" stroke="black" points="500.69,-208.48 503.58,-204.03 498.55,-205.71 500.69,-208.48"/>
</g>
<!-- 1 of [&#39;PHYS110&#39;, &#39;PHYS120&#39;] -->
<g id="node44" class="node">
<title>1 of [&#39;PHYS110&#39;, &#39;PHYS120&#39;]</title>
<path fill="#e9dbd0" stroke="#030a10" d="M655,-254C655,-254 634,-254 634,-254 630.5,-254 627,-250.5 627,-247 627,-247 627,-240 627,-240 627,-236.5 630.5,-233 634,-233 634,-233 655,-233 655,-233 658.5,-233 662,-236.5 662,-240 662,-240 662,-247 662,-247 662,-250.5 658.5,-254 655,-254"/>
<text text-anchor="middle" x="644.5" y="-240.4" font-family="Times,serif" font-size="12.00">1 of</text>
</g>
<!-- PHYS120&#45;&gt;1 of [&#39;PHYS110&#39;, &#39;PHYS120&#39;] -->
<g id="edge15" class="edge">
<title>PHYS120&#45;&gt;1 of [&#39;PHYS110&#39;, &#39;PHYS120&#39;]</title>
<path fill="none" stroke="black" d="M402.18,-260.27C458.47,-256.36 573.39,-248.37 621.53,-245.03"/>
<polygon fill="black" stroke="black" points="621.92,-246.76 626.79,-244.66 621.68,-243.26 621.92,-246.76"/>
</g>
<!-- 1 of [&#39;PHYS120&#39;, &#39;PHYS130&#39;] -->
<g id="node75" class="node">
<title>1 of [&#39;PHYS120&#39;, &#39;PHYS130&#39;]</title>
<path fill="#e9dbd0" stroke="#030a10" d="M655,-282C655,-282 634,-282 634,-282 630.5,-282 627,-278.5 627,-275 627,-275 627,-268 627,-268 627,-264.5 630.5,-261 634,-261 634,-261 655,-261 655,-261 658.5,-261 662,-264.5 662,-268 662,-268 662,-275 662,-275 662,-278.5 658.5,-282 655,-282"/>
<text text-anchor="middle" x="644.5" y="-268.4" font-family="Times,serif" font-size="12.00">1 of</text>
</g>
<!-- PHYS120&#45;&gt;1 of [&#39;PHYS120&#39;, &#39;PHYS130&#39;] -->
<g id="edge123" class="edge">
<title>PHYS120&#45;&gt;1 of [&#39;PHYS120&#39;, &#39;PHYS130&#39;]</title>
<path fill="none" stroke="black" d="M402.06,-264.66C418.1,-265.67 437.82,-266.8 455.5,-267.5 515.57,-269.9 586.5,-270.92 621.58,-271.3"/>
<polygon fill="black" stroke="black" points="621.88,-273.05 626.9,-271.36 621.91,-269.55 621.88,-273.05"/>
</g>
<!-- PHYS110 -->
<g id="node33" class="node">
<title>PHYS110</title>
<path fill="#32b166" stroke="#030a10" d="M395,-245C395,-245 343,-245 343,-245 339.5,-245 336,-241.5 336,-238 336,-238 336,-231 336,-231 336,-227.5 339.5,-224 343,-224 343,-224 395,-224 395,-224 398.5,-224 402,-227.5 402,-231 402,-231 402,-238 402,-238 402,-241.5 398.5,-245 395,-245"/>
<text text-anchor="middle" x="369" y="-231.4" font-family="Times,serif" font-size="12.00">PHYS110</text>
</g>
<!-- PHYS111 -->
<g id="node35" class="node">
<title>PHYS111</title>
<path fill="#36ada4" stroke="#030a10" d="M543,-176C543,-176 492,-176 492,-176 488.5,-176 485,-172.5 485,-169 485,-169 485,-162 485,-162 485,-158.5 488.5,-155 492,-155 492,-155 543,-155 543,-155 546.5,-155 550,-158.5 550,-162 550,-162 550,-169 550,-169 550,-172.5 546.5,-176 543,-176"/>
<text text-anchor="middle" x="517.5" y="-162.4" font-family="Times,serif" font-size="12.00">PHYS111</text>
</g>
<!-- PHYS110&#45;&gt;PHYS111 -->
<g id="edge126" class="edge">
<title>PHYS110&#45;&gt;PHYS111</title>
<path fill="none" stroke="black" d="M383.1,-224C399.22,-211.58 427.85,-191.15 455.5,-179.5 463.13,-176.29 471.62,-173.75 479.78,-171.77"/>
<polygon fill="black" stroke="black" points="480.34,-173.43 484.81,-170.6 479.55,-170.02 480.34,-173.43"/>
</g>
<!-- PHYS110&#45;&gt;1 of [&#39;PHYS110&#39;, &#39;PHYS120&#39;] -->
<g id="edge14" class="edge">
<title>PHYS110&#45;&gt;1 of [&#39;PHYS110&#39;, &#39;PHYS120&#39;]</title>
<path fill="none" stroke="black" d="M402.18,-235.56C458.47,-237.41 573.39,-241.2 621.53,-242.78"/>
<polygon fill="black" stroke="black" points="621.73,-244.54 626.79,-242.95 621.85,-241.04 621.73,-244.54"/>
</g>
<!-- 1 of [&#39;PHYS111&#39;, &#39;PHYS130&#39;] -->
<g id="node45" class="node">
<title>1 of [&#39;PHYS111&#39;, &#39;PHYS130&#39;]</title>
<path fill="#e9dbd0" stroke="#030a10" d="M655,-185C655,-185 634,-185 634,-185 630.5,-185 627,-181.5 627,-178 627,-178 627,-171 627,-171 627,-167.5 630.5,-164 634,-164 634,-164 655,-164 655,-164 658.5,-164 662,-167.5 662,-171 662,-171 662,-178 662,-178 662,-181.5 658.5,-185 655,-185"/>
<text text-anchor="middle" x="644.5" y="-171.4" font-family="Times,serif" font-size="12.00">1 of</text>
</g>
<!-- PHYS130&#45;&gt;1 of [&#39;PHYS111&#39;, &#39;PHYS130&#39;] -->
<g id="edge18" class="edge">
<title>PHYS130&#45;&gt;1 of [&#39;PHYS111&#39;, &#39;PHYS130&#39;]</title>
<path fill="none" stroke="black" d="M550.69,-188.61C573,-185.22 602.11,-180.79 621.73,-177.81"/>
<polygon fill="black" stroke="black" points="622.08,-179.53 626.76,-177.05 621.55,-176.07 622.08,-179.53"/>
</g>
<!-- PHYS130&#45;&gt;1 of [&#39;PHYS120&#39;, &#39;PHYS130&#39;] -->
<g id="edge124" class="edge">
<title>PHYS130&#45;&gt;1 of [&#39;PHYS120&#39;, &#39;PHYS130&#39;]</title>
<path fill="none" stroke="black" d="M531.85,-204.22C549.16,-217.79 580.62,-241.33 610,-257.5 613.81,-259.6 618,-261.58 622.09,-263.36"/>
<polygon fill="black" stroke="black" points="621.52,-265.02 626.81,-265.35 622.88,-261.8 621.52,-265.02"/>
</g>
<!-- PHYS111&#45;&gt;1 of [&#39;PHYS111&#39;, &#39;PHYS130&#39;] -->
<g id="edge17" class="edge">
<title>PHYS111&#45;&gt;1 of [&#39;PHYS111&#39;, &#39;PHYS130&#39;]</title>
<path fill="none" stroke="black" d="M550.04,-167.77C572.48,-169.39 602.05,-171.52 621.86,-172.94"/>
<polygon fill="black" stroke="black" points="621.81,-174.7 626.93,-173.31 622.06,-171.2 621.81,-174.7"/>
</g>
<!-- 1 of [&#39;MATH110&#39;, &#39;MATH211&#39;]&#45;&gt;PHYS248 -->
<g id="edge3" class="edge">
<title>1 of [&#39;MATH110&#39;, &#39;MATH211&#39;]&#45;&gt;PHYS248</title>
<path fill="none" stroke="black" d="M902.53,-136.27C912.63,-155.04 935.76,-193.97 965,-217.5 965.62,-218 966.26,-218.49 966.92,-218.96"/>
<polygon fill="black" stroke="black" points="966.29,-220.64 971.44,-221.9 968.2,-217.71 966.29,-220.64"/>
</g>
<!-- 1 of [&#39;MATH110&#39;, &#39;MATH211&#39;]&#45;&gt;MATH342 -->
<g id="edge65" class="edge">
<title>1 of [&#39;MATH110&#39;, &#39;MATH211&#39;]&#45;&gt;MATH342</title>
<path fill="none" stroke="black" d="M906.24,-136.18C918.55,-149.91 941.53,-173.85 965,-189.5 965.87,-190.09 966.78,-190.66 967.7,-191.21"/>
<polygon fill="black" stroke="black" points="967.21,-192.95 972.43,-193.88 968.93,-189.9 967.21,-192.95"/>
</g>
<!-- 1 of [&#39;MATH110&#39;, &#39;MATH211&#39;]&#45;&gt;MATH346 -->
<g id="edge73" class="edge">
<title>1 of [&#39;MATH110&#39;, &#39;MATH211&#39;]&#45;&gt;MATH346</title>
<path fill="none" stroke="black" d="M913.76,-123.36C926.21,-121.76 943.7,-119.52 959.56,-117.49"/>
<polygon fill="black" stroke="black" points="960.13,-119.18 964.86,-116.81 959.68,-115.71 960.13,-119.18"/>
</g>
<!-- 1 of [&#39;MATH110&#39;, &#39;MATH211&#39;]&#45;&gt;PHYS325 -->
<g id="edge106" class="edge">
<title>1 of [&#39;MATH110&#39;, &#39;MATH211&#39;]&#45;&gt;PHYS325</title>
<path fill="none" stroke="black" d="M913.76,-118.73C928.27,-112.87 949.65,-104.23 967.3,-97.1"/>
<polygon fill="black" stroke="black" points="968.19,-98.63 972.18,-95.14 966.88,-95.39 968.19,-98.63"/>
</g>
<!-- MATH110 -->
<g id="node41" class="node">
<title>MATH110</title>
<path fill="white" stroke="#030a10" stroke-opacity="0.125490" d="M784.83,-144.5C784.83,-144.5 756.17,-144.5 756.17,-144.5 753.83,-144.5 751.5,-142.17 751.5,-139.84 751.5,-139.84 751.5,-135.17 751.5,-135.17 751.5,-132.84 753.83,-130.5 756.17,-130.5 756.17,-130.5 784.83,-130.5 784.83,-130.5 787.17,-130.5 789.5,-132.84 789.5,-135.17 789.5,-135.17 789.5,-139.84 789.5,-139.84 789.5,-142.17 787.17,-144.5 784.83,-144.5"/>
<text text-anchor="middle" x="770.5" y="-136.5" font-family="Times,serif" font-size="5.00">MATH110</text>
</g>
<!-- MATH110&#45;&gt;1 of [&#39;MATH110&#39;, &#39;MATH211&#39;] -->
<g id="edge4" class="edge">
<title>MATH110&#45;&gt;1 of [&#39;MATH110&#39;, &#39;MATH211&#39;]</title>
<path fill="none" stroke="black" d="M789.72,-135.73C811.93,-133.57 849.42,-129.93 873.15,-127.63"/>
<polygon fill="black" stroke="black" points="873.48,-129.35 878.29,-127.13 873.14,-125.87 873.48,-129.35"/>
</g>
<!-- 1 of [&#39;CSC110&#39;, &#39;CSC111&#39;]&#45;&gt;PHYS248 -->
<g id="edge7" class="edge">
<title>1 of [&#39;CSC110&#39;, &#39;CSC111&#39;]&#45;&gt;PHYS248</title>
<path fill="none" stroke="black" d="M535,-533.44C584.33,-538.38 733.44,-547.19 833.5,-487.5 885.73,-456.35 899.29,-442.57 929,-389.5 960.81,-332.69 923.1,-297.34 965,-247.5 965.26,-247.19 965.53,-246.89 965.81,-246.59"/>
<polygon fill="black" stroke="black" points="967.21,-247.68 969.76,-243.04 964.87,-245.08 967.21,-247.68"/>
</g>
<!-- 1 of [&#39;MATH100&#39;, &#39;MATH109&#39;]&#45;&gt;MATH101 -->
<g id="edge10" class="edge">
<title>1 of [&#39;MATH100&#39;, &#39;MATH109&#39;]&#45;&gt;MATH101</title>
<path fill="none" stroke="black" d="M272.05,-273.23C273.73,-274.65 275.41,-276.1 277,-277.5 290.68,-289.57 291.16,-296.46 307,-305.5 313.78,-309.37 321.46,-312.48 329.04,-314.95"/>
<polygon fill="black" stroke="black" points="328.96,-316.75 334.25,-316.56 329.99,-313.41 328.96,-316.75"/>
</g>
<!-- 1 of [&#39;MATH100&#39;, &#39;MATH109&#39;]&#45;&gt;PHYS120 -->
<g id="edge98" class="edge">
<title>1 of [&#39;MATH100&#39;, &#39;MATH109&#39;]&#45;&gt;PHYS120</title>
<path fill="none" stroke="black" d="M275.55,-262.5C290.14,-262.5 311.94,-262.5 330.7,-262.5"/>
<polygon fill="black" stroke="black" points="330.9,-264.25 335.9,-262.5 330.9,-260.75 330.9,-264.25"/>
</g>
<!-- 1 of [&#39;PHYS110&#39;, &#39;PHYS120&#39;]&#45;&gt;PHYS216 -->
<g id="edge88" class="edge">
<title>1 of [&#39;PHYS110&#39;, &#39;PHYS120&#39;]&#45;&gt;PHYS216</title>
<path fill="none" stroke="black" d="M661.71,-232.91C684.08,-218.3 724.43,-191.95 748.91,-175.95"/>
<polygon fill="black" stroke="black" points="750.06,-177.29 753.29,-173.09 748.14,-174.36 750.06,-177.29"/>
</g>
<!-- 1 of [&#39;PHYS110&#39;, &#39;PHYS120&#39;]&#45;&gt;PHYS229 -->
<g id="edge121" class="edge">
<title>1 of [&#39;PHYS110&#39;, &#39;PHYS120&#39;]&#45;&gt;PHYS229</title>
<path fill="none" stroke="black" d="M662.07,-247.49C674.77,-250.53 692.73,-254.82 708.5,-258.5 716.06,-260.27 724.16,-262.14 731.91,-263.92"/>
<polygon fill="black" stroke="black" points="731.93,-265.73 737.2,-265.14 732.72,-262.32 731.93,-265.73"/>
</g>
<!-- 1 of [&#39;PHYS110&#39;, &#39;PHYS120&#39;]&#45;&gt;PHYS215 -->
<g id="edge13" class="edge">
<title>1 of [&#39;PHYS110&#39;, &#39;PHYS120&#39;]&#45;&gt;PHYS215</title>
<path fill="none" stroke="black" d="M662,-240.88C702.24,-234.82 804.27,-221.53 833.5,-237.5 854.81,-249.15 844.53,-267.74 863,-283.5 863.18,-283.66 863.37,-283.82 863.56,-283.97"/>
<polygon fill="black" stroke="black" points="862.68,-285.5 867.77,-287 864.73,-282.66 862.68,-285.5"/>
</g>
<!-- 1 of [&#39;PHYS110&#39;, &#39;PHYS120&#39;]&#45;&gt;PHYS317 -->
<g id="edge50" class="edge">
<title>1 of [&#39;PHYS110&#39;, &#39;PHYS120&#39;]&#45;&gt;PHYS317</title>
<path fill="none" stroke="black" d="M662.06,-236.84C695.7,-224.35 773.93,-200.73 833.5,-224.5 850.29,-231.2 848.33,-241.94 863,-252.5 864.78,-253.78 866.67,-255.03 868.61,-256.23"/>
<polygon fill="black" stroke="black" points="867.98,-257.9 873.18,-258.94 869.76,-254.88 867.98,-257.9"/>
</g>
<!-- 1 of [&#39;PHYS110&#39;, &#39;PHYS120&#39;]&#45;&gt;PHYS321A -->
<g id="edge108" class="edge">
<title>1 of [&#39;PHYS110&#39;, &#39;PHYS120&#39;]&#45;&gt;PHYS321A</title>
<path fill="none" stroke="black" d="M653.47,-232.66C661.02,-221.93 672.19,-204.8 679,-188.5 699.85,-138.63 666.61,-104.68 708.5,-70.5 740.64,-44.28 853.52,-62.5 895,-62.5 895,-62.5 895,-62.5 1000.5,-62.5 1067.49,-62.5 1133.83,-115.67 1162.61,-142.03"/>
<polygon fill="black" stroke="black" points="1161.72,-143.6 1166.58,-145.72 1164.1,-141.03 1161.72,-143.6"/>
</g>
<!-- 1 of [&#39;PHYS110&#39;, &#39;PHYS120&#39;]&#45;&gt;EOS210 -->
<g id="edge38" class="edge">
<title>1 of [&#39;PHYS110&#39;, &#39;PHYS120&#39;]&#45;&gt;EOS210</title>
<path fill="none" stroke="black" d="M662.3,-247.72C668.16,-249.86 674.41,-253 679,-257.5 702.22,-280.29 683.42,-303.77 708.5,-324.5 716.27,-330.93 726.43,-334.54 736.22,-336.52"/>
<polygon fill="black" stroke="black" points="736.06,-338.27 741.29,-337.42 736.67,-334.83 736.06,-338.27"/>
</g>
<!-- 1 of [&#39;PHYS110&#39;, &#39;PHYS120&#39;]&#45;&gt;PHYS210 -->
<g id="edge63" class="edge">
<title>1 of [&#39;PHYS110&#39;, &#39;PHYS120&#39;]&#45;&gt;PHYS210</title>
<path fill="none" stroke="black" d="M662.15,-249.01C667.74,-251.23 673.85,-254.08 679,-257.5 694.31,-267.68 693.08,-276.49 708.5,-286.5 715.77,-291.22 724.12,-295.26 732.26,-298.6"/>
<polygon fill="black" stroke="black" points="731.99,-300.38 737.28,-300.59 733.28,-297.13 731.99,-300.38"/>
</g>
<!-- 1 of [&#39;PHYS111&#39;, &#39;PHYS130&#39;]&#45;&gt;PHYS216 -->
<g id="edge89" class="edge">
<title>1 of [&#39;PHYS111&#39;, &#39;PHYS130&#39;]&#45;&gt;PHYS216</title>
<path fill="none" stroke="black" d="M662.22,-172.88C680.05,-171.16 708.85,-168.37 732.12,-166.12"/>
<polygon fill="black" stroke="black" points="732.49,-167.84 737.3,-165.62 732.15,-164.36 732.49,-167.84"/>
</g>
<!-- 1 of [&#39;PHYS111&#39;, &#39;PHYS130&#39;]&#45;&gt;PHYS215 -->
<g id="edge16" class="edge">
<title>1 of [&#39;PHYS111&#39;, &#39;PHYS130&#39;]&#45;&gt;PHYS215</title>
<path fill="none" stroke="black" d="M662.12,-178.99C706.81,-191.12 826.61,-223.96 833.5,-229.5 854.8,-246.65 842.83,-265.03 863,-283.5 863.08,-283.58 863.17,-283.66 863.25,-283.73"/>
<polygon fill="black" stroke="black" points="862.33,-285.23 867.35,-286.91 864.47,-282.46 862.33,-285.23"/>
</g>
<!-- 1 of [&#39;PHYS111&#39;, &#39;PHYS130&#39;]&#45;&gt;PHYS317 -->
<g id="edge51" class="edge">
<title>1 of [&#39;PHYS111&#39;, &#39;PHYS130&#39;]&#45;&gt;PHYS317</title>
<path fill="none" stroke="black" d="M662.3,-175.38C705.78,-177.77 819.54,-184.89 833.5,-194.5 857.32,-210.91 842.73,-231.87 863,-252.5 864.19,-253.71 865.49,-254.86 866.85,-255.94"/>
<polygon fill="black" stroke="black" points="866.03,-257.5 871.12,-258.98 868.06,-254.65 866.03,-257.5"/>
</g>
<!-- 1 of [&#39;PHYS111&#39;, &#39;PHYS130&#39;]&#45;&gt;PHYS321A -->
<g id="edge109" class="edge">
<title>1 of [&#39;PHYS111&#39;, &#39;PHYS130&#39;]&#45;&gt;PHYS321A</title>
<path fill="none" stroke="black" d="M655.91,-163.73C663.11,-155.84 672.52,-144.62 679,-133.5 697.24,-102.2 679.16,-78.76 708.5,-57.5 775.72,-8.8 811.99,-47.5 895,-47.5 895,-47.5 895,-47.5 1000.5,-47.5 1047.16,-47.5 1064.44,-34.44 1105,-57.5 1138.57,-76.59 1160.95,-118.29 1171.16,-141.01"/>
<polygon fill="black" stroke="black" points="1169.65,-141.94 1173.26,-145.82 1172.86,-140.53 1169.65,-141.94"/>
</g>
<!-- 1 of [&#39;MATH100&#39;, &#39;MATH102&#39;, &#39;MATH109&#39;]&#45;&gt;CHEM102 -->
<g id="edge83" class="edge">
<title>1 of [&#39;MATH100&#39;, &#39;MATH102&#39;, &#39;MATH109&#39;]&#45;&gt;CHEM102</title>
<path fill="none" stroke="black" d="M274.2,-245.18C275.23,-246.23 276.17,-247.34 277,-248.5 301.17,-282.54 278.01,-307.47 307,-337.5 312.99,-343.71 320.82,-348.26 328.86,-351.58"/>
<polygon fill="black" stroke="black" points="328.58,-353.35 333.88,-353.5 329.83,-350.08 328.58,-353.35"/>
</g>
<!-- 1 of [&#39;MATH100&#39;, &#39;MATH102&#39;, &#39;MATH109&#39;]&#45;&gt;PHYS110 -->
<g id="edge20" class="edge">
<title>1 of [&#39;MATH100&#39;, &#39;MATH102&#39;, &#39;MATH109&#39;]&#45;&gt;PHYS110</title>
<path fill="none" stroke="black" d="M275.55,-234.5C290.14,-234.5 311.94,-234.5 330.7,-234.5"/>
<polygon fill="black" stroke="black" points="330.9,-236.25 335.9,-234.5 330.9,-232.75 330.9,-236.25"/>
</g>
<!-- 1 of [&#39;MATH100&#39;, &#39;MATH102&#39;, &#39;MATH109&#39;]&#45;&gt;PHYS111 -->
<g id="edge127" class="edge">
<title>1 of [&#39;MATH100&#39;, &#39;MATH102&#39;, &#39;MATH109&#39;]&#45;&gt;PHYS111</title>
<path fill="none" stroke="black" d="M275.63,-226.78C284.76,-222.75 296.35,-217.95 307,-214.5 366.42,-195.26 437.59,-180.25 479.82,-172.16"/>
<polygon fill="black" stroke="black" points="480.23,-173.86 484.82,-171.2 479.58,-170.42 480.23,-173.86"/>
</g>
<!-- MATH102 -->
<g id="node47" class="node">
<title>MATH102</title>
<path fill="white" stroke="#030a10" stroke-opacity="0.125490" d="M162.33,-215.5C162.33,-215.5 133.67,-215.5 133.67,-215.5 131.33,-215.5 129,-213.17 129,-210.84 129,-210.84 129,-206.17 129,-206.17 129,-203.84 131.33,-201.5 133.67,-201.5 133.67,-201.5 162.33,-201.5 162.33,-201.5 164.67,-201.5 167,-203.84 167,-206.17 167,-206.17 167,-210.84 167,-210.84 167,-213.17 164.67,-215.5 162.33,-215.5"/>
<text text-anchor="middle" x="148" y="-207.5" font-family="Times,serif" font-size="5.00">MATH102</text>
</g>
<!-- MATH102&#45;&gt;1 of [&#39;MATH100&#39;, &#39;MATH102&#39;, &#39;MATH109&#39;] -->
<g id="edge22" class="edge">
<title>MATH102&#45;&gt;1 of [&#39;MATH100&#39;, &#39;MATH102&#39;, &#39;MATH109&#39;]</title>
<path fill="none" stroke="black" d="M167.21,-212.45C179.59,-215.17 196.31,-218.93 211,-222.5 218.95,-224.44 227.64,-226.67 235.3,-228.69"/>
<polygon fill="black" stroke="black" points="235.14,-230.45 240.43,-230.04 236.04,-227.07 235.14,-230.45"/>
</g>
<!-- MATH102&#45;&gt;1 of [&#39;MATH100&#39;, &#39;MATH102&#39;, &#39;MATH109&#39;, &#39;MATH122&#39;] -->
<g id="edge77" class="edge">
<title>MATH102&#45;&gt;1 of [&#39;MATH100&#39;, &#39;MATH102&#39;, &#39;MATH109&#39;, &#39;MATH122&#39;]</title>
<path fill="none" stroke="black" d="M167.32,-208.16C186.1,-207.82 215.31,-207.27 235.25,-206.91"/>
<polygon fill="black" stroke="black" points="235.4,-208.65 240.37,-206.81 235.33,-205.15 235.4,-208.65"/>
</g>
<!-- MATH102&#45;&gt;1 of [&#39;MATH100&#39;, &#39;MATH102&#39;, &#39;MATH109&#39;, &#39;MATH120&#39;] -->
<g id="edge115" class="edge">
<title>MATH102&#45;&gt;1 of [&#39;MATH100&#39;, &#39;MATH102&#39;, &#39;MATH109&#39;, &#39;MATH120&#39;]</title>
<path fill="none" stroke="black" d="M167.08,-208.17C180.68,-208.86 198.97,-211.95 211,-222.5 236.9,-245.22 219.41,-267.45 238.97,-297.68"/>
<polygon fill="black" stroke="black" points="237.54,-298.7 241.83,-301.8 240.41,-296.7 237.54,-298.7"/>
</g>
<!-- 1 of [&#39;PHYS248&#39;, &#39;CSC226&#39;, &#39;CSC349A&#39;, &#39;MATH248&#39;]&#45;&gt;PHYS321A -->
<g id="edge111" class="edge">
<title>1 of [&#39;PHYS248&#39;, &#39;CSC226&#39;, &#39;CSC349A&#39;, &#39;MATH248&#39;]&#45;&gt;PHYS321A</title>
<path fill="none" stroke="black" d="M1105.24,-162.19C1113.89,-161.51 1124.88,-160.64 1135.66,-159.79"/>
<polygon fill="black" stroke="black" points="1136.08,-161.52 1140.92,-159.38 1135.8,-158.03 1136.08,-161.52"/>
</g>
<!-- 1 of [&#39;PHYS248&#39;, &#39;CSC226&#39;, &#39;CSC349A&#39;, &#39;MATH248&#39;]&#45;&gt;PHYS326 -->
<g id="edge26" class="edge">
<title>1 of [&#39;PHYS248&#39;, &#39;CSC226&#39;, &#39;CSC349A&#39;, &#39;MATH248&#39;]&#45;&gt;PHYS326</title>
<path fill="none" stroke="black" d="M1105.24,-167.45C1115.11,-169.78 1128.01,-172.83 1140.18,-175.7"/>
<polygon fill="black" stroke="black" points="1140.07,-177.47 1145.34,-176.91 1140.87,-174.06 1140.07,-177.47"/>
</g>
<!-- CSC226 -->
<g id="node49" class="node">
<title>CSC226</title>
<path fill="white" stroke="#030a10" stroke-opacity="0.125490" d="M1010.83,-186.5C1010.83,-186.5 988.17,-186.5 988.17,-186.5 985.83,-186.5 983.5,-184.17 983.5,-181.84 983.5,-181.84 983.5,-177.17 983.5,-177.17 983.5,-174.84 985.83,-172.5 988.17,-172.5 988.17,-172.5 1010.83,-172.5 1010.83,-172.5 1013.17,-172.5 1015.5,-174.84 1015.5,-177.17 1015.5,-177.17 1015.5,-181.84 1015.5,-181.84 1015.5,-184.17 1013.17,-186.5 1010.83,-186.5"/>
<text text-anchor="middle" x="999.5" y="-178.5" font-family="Times,serif" font-size="5.00">CSC226</text>
</g>
<!-- CSC226&#45;&gt;1 of [&#39;PHYS248&#39;, &#39;CSC226&#39;, &#39;CSC349A&#39;, &#39;MATH248&#39;] -->
<g id="edge28" class="edge">
<title>CSC226&#45;&gt;1 of [&#39;PHYS248&#39;, &#39;CSC226&#39;, &#39;CSC349A&#39;, &#39;MATH248&#39;]</title>
<path fill="none" stroke="black" d="M1015.88,-176.64C1029.5,-174.11 1049.56,-170.38 1064.81,-167.54"/>
<polygon fill="black" stroke="black" points="1065.19,-169.25 1069.79,-166.61 1064.55,-165.81 1065.19,-169.25"/>
</g>
<!-- CSC349A -->
<g id="node50" class="node">
<title>CSC349A</title>
<path fill="white" stroke="#030a10" stroke-opacity="0.125490" d="M1012.83,-165.5C1012.83,-165.5 986.17,-165.5 986.17,-165.5 983.83,-165.5 981.5,-163.17 981.5,-160.84 981.5,-160.84 981.5,-156.17 981.5,-156.17 981.5,-153.84 983.83,-151.5 986.17,-151.5 986.17,-151.5 1012.83,-151.5 1012.83,-151.5 1015.17,-151.5 1017.5,-153.84 1017.5,-156.17 1017.5,-156.17 1017.5,-160.84 1017.5,-160.84 1017.5,-163.17 1015.17,-165.5 1012.83,-165.5"/>
<text text-anchor="middle" x="999.5" y="-157.5" font-family="Times,serif" font-size="5.00">CSC349A</text>
</g>
<!-- CSC349A&#45;&gt;1 of [&#39;PHYS248&#39;, &#39;CSC226&#39;, &#39;CSC349A&#39;, &#39;MATH248&#39;] -->
<g id="edge29" class="edge">
<title>CSC349A&#45;&gt;1 of [&#39;PHYS248&#39;, &#39;CSC226&#39;, &#39;CSC349A&#39;, &#39;MATH248&#39;]</title>
<path fill="none" stroke="black" d="M1017.9,-159.51C1031.45,-160.3 1050.34,-161.4 1064.86,-162.24"/>
<polygon fill="black" stroke="black" points="1064.9,-164 1070,-162.54 1065.11,-160.51 1064.9,-164"/>
</g>
<!-- MATH248 -->
<g id="node51" class="node">
<title>MATH248</title>
<path fill="white" stroke="#030a10" stroke-opacity="0.125490" d="M1013.83,-144.5C1013.83,-144.5 985.17,-144.5 985.17,-144.5 982.83,-144.5 980.5,-142.17 980.5,-139.84 980.5,-139.84 980.5,-135.17 980.5,-135.17 980.5,-132.84 982.83,-130.5 985.17,-130.5 985.17,-130.5 1013.83,-130.5 1013.83,-130.5 1016.17,-130.5 1018.5,-132.84 1018.5,-135.17 1018.5,-135.17 1018.5,-139.84 1018.5,-139.84 1018.5,-142.17 1016.17,-144.5 1013.83,-144.5"/>
<text text-anchor="middle" x="999.5" y="-136.5" font-family="Times,serif" font-size="5.00">MATH248</text>
</g>
<!-- MATH248&#45;&gt;1 of [&#39;PHYS248&#39;, &#39;CSC226&#39;, &#39;CSC349A&#39;, &#39;MATH248&#39;] -->
<g id="edge30" class="edge">
<title>MATH248&#45;&gt;1 of [&#39;PHYS248&#39;, &#39;CSC226&#39;, &#39;CSC349A&#39;, &#39;MATH248&#39;]</title>
<path fill="none" stroke="black" d="M1018.74,-143.02C1032.18,-147.08 1050.51,-152.62 1064.71,-156.92"/>
<polygon fill="black" stroke="black" points="1064.45,-158.67 1069.75,-158.44 1065.47,-155.32 1064.45,-158.67"/>
</g>
<!-- 1 of [&#39;PHYS301&#39;, &#39;MATH342&#39;, &#39;MATH346&#39;]&#45;&gt;PHYS321A -->
<g id="edge112" class="edge">
<title>1 of [&#39;PHYS301&#39;, &#39;MATH342&#39;, &#39;MATH346&#39;]&#45;&gt;PHYS321A</title>
<path fill="none" stroke="black" d="M1105.37,-187.06C1115.59,-182.04 1128.94,-175.68 1141,-170.5 1142.06,-170.05 1143.15,-169.59 1144.25,-169.13"/>
<polygon fill="black" stroke="black" points="1145.15,-170.65 1149.12,-167.14 1143.83,-167.41 1145.15,-170.65"/>
</g>
<!-- 1 of [&#39;PHYS301&#39;, &#39;MATH342&#39;, &#39;MATH346&#39;]&#45;&gt;PHYS326 -->
<g id="edge31" class="edge">
<title>1 of [&#39;PHYS301&#39;, &#39;MATH342&#39;, &#39;MATH346&#39;]&#45;&gt;PHYS326</title>
<path fill="none" stroke="black" d="M1105.24,-193.43C1115.11,-192.21 1128.01,-190.62 1140.18,-189.12"/>
<polygon fill="black" stroke="black" points="1140.59,-190.83 1145.34,-188.48 1140.16,-187.35 1140.59,-190.83"/>
</g>
<!-- 1 of [&#39;PHYS301&#39;, &#39;MATH342&#39;, &#39;MATH346&#39;]&#45;&gt;PHYS323 -->
<g id="edge45" class="edge">
<title>1 of [&#39;PHYS301&#39;, &#39;MATH342&#39;, &#39;MATH346&#39;]&#45;&gt;PHYS323</title>
<path fill="none" stroke="black" d="M1092.23,-206.27C1099.09,-224.6 1115.41,-261.97 1141,-283.5 1141.18,-283.66 1141.37,-283.81 1141.55,-283.96"/>
<polygon fill="black" stroke="black" points="1140.58,-285.42 1145.67,-286.88 1142.61,-282.56 1140.58,-285.42"/>
</g>
<!-- PHYS301 -->
<g id="node53" class="node">
<title>PHYS301</title>
<path fill="white" stroke="#030a10" stroke-opacity="0.125490" d="M1013.33,-264.5C1013.33,-264.5 985.67,-264.5 985.67,-264.5 983.33,-264.5 981,-262.17 981,-259.84 981,-259.84 981,-255.17 981,-255.17 981,-252.84 983.33,-250.5 985.67,-250.5 985.67,-250.5 1013.33,-250.5 1013.33,-250.5 1015.67,-250.5 1018,-252.84 1018,-255.17 1018,-255.17 1018,-259.84 1018,-259.84 1018,-262.17 1015.67,-264.5 1013.33,-264.5"/>
<text text-anchor="middle" x="999.5" y="-256.5" font-family="Times,serif" font-size="5.00">PHYS301</text>
</g>
<!-- PHYS301&#45;&gt;1 of [&#39;PHYS301&#39;, &#39;MATH342&#39;, &#39;MATH346&#39;] -->
<g id="edge32" class="edge">
<title>PHYS301&#45;&gt;1 of [&#39;PHYS301&#39;, &#39;MATH342&#39;, &#39;MATH346&#39;]</title>
<path fill="none" stroke="black" d="M1018.2,-253.33C1023.5,-251.66 1029.18,-249.42 1034,-246.5 1049.88,-236.9 1064.73,-221.65 1074.56,-210.33"/>
<polygon fill="black" stroke="black" points="1076.03,-211.29 1077.94,-206.35 1073.37,-209.02 1076.03,-211.29"/>
</g>
<!-- MATH120 -->
<g id="node54" class="node">
<title>MATH120</title>
<path fill="white" stroke="#030a10" stroke-opacity="0.125490" d="M43.33,-304.5C43.33,-304.5 14.67,-304.5 14.67,-304.5 12.33,-304.5 10,-302.17 10,-299.84 10,-299.84 10,-295.17 10,-295.17 10,-292.84 12.33,-290.5 14.67,-290.5 14.67,-290.5 43.33,-290.5 43.33,-290.5 45.67,-290.5 48,-292.84 48,-295.17 48,-295.17 48,-299.84 48,-299.84 48,-302.17 45.67,-304.5 43.33,-304.5"/>
<text text-anchor="middle" x="29" y="-296.5" font-family="Times,serif" font-size="5.00">MATH120</text>
</g>
<!-- MATH120&#45;&gt;CHEM101 -->
<g id="edge118" class="edge">
<title>MATH120&#45;&gt;CHEM101</title>
<path fill="none" stroke="black" d="M48.25,-302.08C51.83,-303.65 55.3,-305.73 58,-308.5 83.05,-334.25 58.58,-360.72 85.5,-384.5 91.75,-390.03 99.73,-393.5 107.85,-395.66"/>
<polygon fill="black" stroke="black" points="107.65,-397.41 112.91,-396.84 108.44,-394 107.65,-397.41"/>
</g>
<!-- MATH120&#45;&gt;MATH100 -->
<g id="edge36" class="edge">
<title>MATH120&#45;&gt;MATH100</title>
<path fill="none" stroke="black" d="M48.02,-293.34C63.98,-289.66 87.81,-284.16 108.09,-279.48"/>
<polygon fill="black" stroke="black" points="108.69,-281.14 113.17,-278.31 107.9,-277.73 108.69,-281.14"/>
</g>
<!-- MATH120&#45;&gt;MATH109 -->
<g id="edge91" class="edge">
<title>MATH120&#45;&gt;MATH109</title>
<path fill="none" stroke="black" d="M37.6,-290.25C47.72,-281.01 66.55,-265.19 85.5,-256.5 92.54,-253.28 100.37,-250.76 108.04,-248.82"/>
<polygon fill="black" stroke="black" points="108.85,-250.42 113.3,-247.56 108.03,-247.02 108.85,-250.42"/>
</g>
<!-- MATH120&#45;&gt;1 of [&#39;MATH100&#39;, &#39;MATH109&#39;, &#39;MATH120&#39;] -->
<g id="edge42" class="edge">
<title>MATH120&#45;&gt;1 of [&#39;MATH100&#39;, &#39;MATH109&#39;, &#39;MATH120&#39;]</title>
<path fill="none" stroke="black" d="M48.11,-304.51C51.41,-305.81 54.82,-307.18 58,-308.5 70.32,-313.61 72.63,-317.03 85.5,-320.5 137.97,-334.67 202.14,-338.8 235.12,-340.01"/>
<polygon fill="black" stroke="black" points="235.08,-341.76 240.14,-340.18 235.2,-338.26 235.08,-341.76"/>
</g>
<!-- 1 of [&#39;MATH120&#39;, &#39;MATH151&#39;] -->
<g id="node67" class="node">
<title>1 of [&#39;MATH120&#39;, &#39;MATH151&#39;]</title>
<path fill="#e9dbd0" stroke="#030a10" d="M158.5,-151C158.5,-151 137.5,-151 137.5,-151 134,-151 130.5,-147.5 130.5,-144 130.5,-144 130.5,-137 130.5,-137 130.5,-133.5 134,-130 137.5,-130 137.5,-130 158.5,-130 158.5,-130 162,-130 165.5,-133.5 165.5,-137 165.5,-137 165.5,-144 165.5,-144 165.5,-147.5 162,-151 158.5,-151"/>
<text text-anchor="middle" x="148" y="-137.4" font-family="Times,serif" font-size="12.00">1 of</text>
</g>
<!-- MATH120&#45;&gt;1 of [&#39;MATH120&#39;, &#39;MATH151&#39;] -->
<g id="edge81" class="edge">
<title>MATH120&#45;&gt;1 of [&#39;MATH120&#39;, &#39;MATH151&#39;]</title>
<path fill="none" stroke="black" d="M31.65,-290.39C36.61,-270.3 53.09,-212.31 85.5,-176.5 96.52,-164.33 112.64,-155.1 125.61,-149.04"/>
<polygon fill="black" stroke="black" points="126.4,-150.61 130.23,-146.95 124.96,-147.42 126.4,-150.61"/>
</g>
<!-- MATH120&#45;&gt;1 of [&#39;MATH100&#39;, &#39;MATH102&#39;, &#39;MATH109&#39;, &#39;MATH120&#39;] -->
<g id="edge117" class="edge">
<title>MATH120&#45;&gt;1 of [&#39;MATH100&#39;, &#39;MATH102&#39;, &#39;MATH109&#39;, &#39;MATH120&#39;]</title>
<path fill="none" stroke="black" d="M48.22,-304.16C58.92,-307.71 72.79,-311.71 85.5,-313.5 138.73,-321.02 202.19,-317.44 234.96,-314.67"/>
<polygon fill="black" stroke="black" points="235.51,-316.38 240.34,-314.2 235.2,-312.89 235.51,-316.38"/>
</g>
<!-- 1 of [&#39;MATH100&#39;, &#39;MATH109&#39;, &#39;MATH120&#39;]&#45;&gt;CSC111 -->
<g id="edge39" class="edge">
<title>1 of [&#39;MATH100&#39;, &#39;MATH109&#39;, &#39;MATH120&#39;]&#45;&gt;CSC111</title>
<path fill="none" stroke="black" d="M273.04,-351.18C274.55,-352.83 275.93,-354.61 277,-356.5 312.8,-419.88 256.61,-464.98 307,-517.5 314.37,-525.18 325.03,-529.04 335.39,-530.87"/>
<polygon fill="black" stroke="black" points="335.23,-532.61 340.43,-531.61 335.74,-529.15 335.23,-532.61"/>
</g>
<!-- 2 of [&#39;EOS340&#39;, &#39;EOS431&#39;, &#39;PHYS321A&#39;, &#39;PHYS323&#39;, &#39;PHYS326&#39;, &#39;PHYS340&#39;, &#39;PHYS441&#39;]&#45;&gt;PHYS411 -->
<g id="edge55" class="edge">
<title>2 of [&#39;EOS340&#39;, &#39;EOS431&#39;, &#39;PHYS321A&#39;, &#39;PHYS323&#39;, &#39;PHYS326&#39;, &#39;PHYS340&#39;, &#39;PHYS441&#39;]&#45;&gt;PHYS411</title>
<path fill="none" stroke="black" d="M1323.69,-224.09C1337.61,-221.24 1357.02,-215.17 1369,-202.5 1415.25,-153.6 1425.85,-68.69 1428.28,-33.49"/>
<polygon fill="black" stroke="black" points="1430.04,-33.38 1428.6,-28.29 1426.55,-33.17 1430.04,-33.38"/>
</g>
<!-- EOS340 -->
<g id="node57" class="node">
<title>EOS340</title>
<path fill="white" stroke="#030a10" stroke-opacity="0.125490" d="M1190.33,-258.5C1190.33,-258.5 1166.67,-258.5 1166.67,-258.5 1164.33,-258.5 1162,-256.17 1162,-253.84 1162,-253.84 1162,-249.17 1162,-249.17 1162,-246.84 1164.33,-244.5 1166.67,-244.5 1166.67,-244.5 1190.33,-244.5 1190.33,-244.5 1192.67,-244.5 1195,-246.84 1195,-249.17 1195,-249.17 1195,-253.84 1195,-253.84 1195,-256.17 1192.67,-258.5 1190.33,-258.5"/>
<text text-anchor="middle" x="1178.5" y="-250.5" font-family="Times,serif" font-size="5.00">EOS340</text>
</g>
<!-- EOS340&#45;&gt;2 of [&#39;EOS340&#39;, &#39;EOS431&#39;, &#39;PHYS321A&#39;, &#39;PHYS323&#39;, &#39;PHYS326&#39;, &#39;PHYS340&#39;, &#39;PHYS441&#39;] -->
<g id="edge56" class="edge">
<title>EOS340&#45;&gt;2 of [&#39;EOS340&#39;, &#39;EOS431&#39;, &#39;PHYS321A&#39;, &#39;PHYS323&#39;, &#39;PHYS326&#39;, &#39;PHYS340&#39;, &#39;PHYS441&#39;]</title>
<path fill="none" stroke="black" d="M1195.14,-248.39C1217.35,-243.96 1258.1,-235.84 1283.25,-230.84"/>
<polygon fill="black" stroke="black" points="1283.8,-232.51 1288.36,-229.82 1283.12,-229.08 1283.8,-232.51"/>
</g>
<!-- EOS431 -->
<g id="node58" class="node">
<title>EOS431</title>
<path fill="white" stroke="#030a10" stroke-opacity="0.125490" d="M1190.33,-237.5C1190.33,-237.5 1166.67,-237.5 1166.67,-237.5 1164.33,-237.5 1162,-235.17 1162,-232.84 1162,-232.84 1162,-228.17 1162,-228.17 1162,-225.84 1164.33,-223.5 1166.67,-223.5 1166.67,-223.5 1190.33,-223.5 1190.33,-223.5 1192.67,-223.5 1195,-225.84 1195,-228.17 1195,-228.17 1195,-232.84 1195,-232.84 1195,-235.17 1192.67,-237.5 1190.33,-237.5"/>
<text text-anchor="middle" x="1178.5" y="-229.5" font-family="Times,serif" font-size="5.00">EOS431</text>
</g>
<!-- EOS431&#45;&gt;2 of [&#39;EOS340&#39;, &#39;EOS431&#39;, &#39;PHYS321A&#39;, &#39;PHYS323&#39;, &#39;PHYS326&#39;, &#39;PHYS340&#39;, &#39;PHYS441&#39;] -->
<g id="edge57" class="edge">
<title>EOS431&#45;&gt;2 of [&#39;EOS340&#39;, &#39;EOS431&#39;, &#39;PHYS321A&#39;, &#39;PHYS323&#39;, &#39;PHYS326&#39;, &#39;PHYS340&#39;, &#39;PHYS441&#39;]</title>
<path fill="none" stroke="black" d="M1195.14,-230C1217.35,-229.3 1258.1,-228 1283.25,-227.2"/>
<polygon fill="black" stroke="black" points="1283.42,-228.94 1288.36,-227.03 1283.31,-225.44 1283.42,-228.94"/>
</g>
<!-- PHYS340 -->
<g id="node59" class="node">
<title>PHYS340</title>
<path fill="white" stroke="#030a10" stroke-opacity="0.125490" d="M1192.33,-216.5C1192.33,-216.5 1164.67,-216.5 1164.67,-216.5 1162.33,-216.5 1160,-214.17 1160,-211.84 1160,-211.84 1160,-207.17 1160,-207.17 1160,-204.84 1162.33,-202.5 1164.67,-202.5 1164.67,-202.5 1192.33,-202.5 1192.33,-202.5 1194.67,-202.5 1197,-204.84 1197,-207.17 1197,-207.17 1197,-211.84 1197,-211.84 1197,-214.17 1194.67,-216.5 1192.33,-216.5"/>
<text text-anchor="middle" x="1178.5" y="-208.5" font-family="Times,serif" font-size="5.00">PHYS340</text>
</g>
<!-- PHYS340&#45;&gt;2 of [&#39;EOS340&#39;, &#39;EOS431&#39;, &#39;PHYS321A&#39;, &#39;PHYS323&#39;, &#39;PHYS326&#39;, &#39;PHYS340&#39;, &#39;PHYS441&#39;] -->
<g id="edge61" class="edge">
<title>PHYS340&#45;&gt;2 of [&#39;EOS340&#39;, &#39;EOS431&#39;, &#39;PHYS321A&#39;, &#39;PHYS323&#39;, &#39;PHYS326&#39;, &#39;PHYS340&#39;, &#39;PHYS441&#39;]</title>
<path fill="none" stroke="black" d="M1197.21,-211.9C1219.8,-214.96 1258.83,-220.25 1283.21,-223.55"/>
<polygon fill="black" stroke="black" points="1282.99,-225.29 1288.18,-224.22 1283.46,-221.82 1282.99,-225.29"/>
</g>
<!-- PHYS441 -->
<g id="node60" class="node">
<title>PHYS441</title>
<path fill="white" stroke="#030a10" stroke-opacity="0.125490" d="M1192.33,-279.5C1192.33,-279.5 1164.67,-279.5 1164.67,-279.5 1162.33,-279.5 1160,-277.17 1160,-274.84 1160,-274.84 1160,-270.17 1160,-270.17 1160,-267.84 1162.33,-265.5 1164.67,-265.5 1164.67,-265.5 1192.33,-265.5 1192.33,-265.5 1194.67,-265.5 1197,-267.84 1197,-270.17 1197,-270.17 1197,-274.84 1197,-274.84 1197,-277.17 1194.67,-279.5 1192.33,-279.5"/>
<text text-anchor="middle" x="1178.5" y="-271.5" font-family="Times,serif" font-size="5.00">PHYS441</text>
</g>
<!-- PHYS441&#45;&gt;2 of [&#39;EOS340&#39;, &#39;EOS431&#39;, &#39;PHYS321A&#39;, &#39;PHYS323&#39;, &#39;PHYS326&#39;, &#39;PHYS340&#39;, &#39;PHYS441&#39;] -->
<g id="edge62" class="edge">
<title>PHYS441&#45;&gt;2 of [&#39;EOS340&#39;, &#39;EOS431&#39;, &#39;PHYS321A&#39;, &#39;PHYS323&#39;, &#39;PHYS326&#39;, &#39;PHYS340&#39;, &#39;PHYS441&#39;]</title>
<path fill="none" stroke="black" d="M1197.05,-267.53C1203.09,-265.74 1209.87,-263.63 1216,-261.5 1239.37,-253.4 1265.69,-242.87 1283.6,-235.49"/>
<polygon fill="black" stroke="black" points="1284.47,-237.02 1288.42,-233.49 1283.13,-233.79 1284.47,-237.02"/>
</g>
<!-- 1 of [&#39;MATH200&#39;, &#39;MATH201&#39;, &#39;MATH204&#39;]&#45;&gt;MATH342 -->
<g id="edge66" class="edge">
<title>1 of [&#39;MATH200&#39;, &#39;MATH201&#39;, &#39;MATH204&#39;]&#45;&gt;MATH342</title>
<path fill="none" stroke="black" d="M913.63,-335.6C919.15,-332.94 924.92,-329.29 929,-324.5 960.11,-287.94 933.09,-257.11 964.95,-219.35"/>
<polygon fill="black" stroke="black" points="966.64,-220.09 968.68,-215.2 964.04,-217.75 966.64,-220.09"/>
</g>
<!-- 1 of [&#39;MATH200&#39;, &#39;MATH201&#39;, &#39;MATH204&#39;]&#45;&gt;MATH346 -->
<g id="edge74" class="edge">
<title>1 of [&#39;MATH200&#39;, &#39;MATH201&#39;, &#39;MATH204&#39;]&#45;&gt;MATH346</title>
<path fill="none" stroke="black" d="M913.7,-336.07C919.36,-333.43 925.21,-329.68 929,-324.5 980.75,-253.7 911.74,-198.39 965.12,-127.28"/>
<polygon fill="black" stroke="black" points="966.75,-128.02 968.45,-123.01 964,-125.87 966.75,-128.02"/>
</g>
<!-- MATH201 -->
<g id="node62" class="node">
<title>MATH201</title>
<path fill="white" stroke="#030a10" stroke-opacity="0.125490" d="M784.83,-254.5C784.83,-254.5 756.17,-254.5 756.17,-254.5 753.83,-254.5 751.5,-252.17 751.5,-249.84 751.5,-249.84 751.5,-245.17 751.5,-245.17 751.5,-242.84 753.83,-240.5 756.17,-240.5 756.17,-240.5 784.83,-240.5 784.83,-240.5 787.17,-240.5 789.5,-242.84 789.5,-245.17 789.5,-245.17 789.5,-249.84 789.5,-249.84 789.5,-252.17 787.17,-254.5 784.83,-254.5"/>
<text text-anchor="middle" x="770.5" y="-246.5" font-family="Times,serif" font-size="5.00">MATH201</text>
</g>
<!-- MATH201&#45;&gt;1 of [&#39;MATH200&#39;, &#39;MATH201&#39;, &#39;MATH204&#39;] -->
<g id="edge68" class="edge">
<title>MATH201&#45;&gt;1 of [&#39;MATH200&#39;, &#39;MATH201&#39;, &#39;MATH204&#39;]</title>
<path fill="none" stroke="black" d="M789.63,-246.74C802.92,-247.06 820.77,-249.43 833.5,-258.5 855.45,-274.15 846.41,-290.25 863,-311.5 867.41,-317.15 872.89,-322.69 878.07,-327.45"/>
<polygon fill="black" stroke="black" points="877.06,-328.89 881.95,-330.92 879.39,-326.28 877.06,-328.89"/>
</g>
<!-- 1 of [&#39;MATH200&#39;, &#39;MATH205&#39;]&#45;&gt;MATH204 -->
<g id="edge70" class="edge">
<title>1 of [&#39;MATH200&#39;, &#39;MATH205&#39;]&#45;&gt;MATH204</title>
<path fill="none" stroke="black" d="M662.22,-370.95C679.75,-375.62 707.89,-383.11 730.96,-389.25"/>
<polygon fill="black" stroke="black" points="730.51,-390.94 735.8,-390.53 731.41,-387.56 730.51,-390.94"/>
</g>
<!-- MATH205 -->
<g id="node64" class="node">
<title>MATH205</title>
<path fill="white" stroke="#030a10" stroke-opacity="0.125490" d="M531.83,-348.5C531.83,-348.5 503.17,-348.5 503.17,-348.5 500.83,-348.5 498.5,-346.17 498.5,-343.84 498.5,-343.84 498.5,-339.17 498.5,-339.17 498.5,-336.84 500.83,-334.5 503.17,-334.5 503.17,-334.5 531.83,-334.5 531.83,-334.5 534.17,-334.5 536.5,-336.84 536.5,-339.17 536.5,-339.17 536.5,-343.84 536.5,-343.84 536.5,-346.17 534.17,-348.5 531.83,-348.5"/>
<text text-anchor="middle" x="517.5" y="-340.5" font-family="Times,serif" font-size="5.00">MATH205</text>
</g>
<!-- MATH205&#45;&gt;1 of [&#39;MATH200&#39;, &#39;MATH205&#39;] -->
<g id="edge72" class="edge">
<title>MATH205&#45;&gt;1 of [&#39;MATH200&#39;, &#39;MATH205&#39;]</title>
<path fill="none" stroke="black" d="M536.72,-344.52C549.09,-346.63 565.81,-349.57 580.5,-352.5 594.34,-355.27 609.82,-358.7 621.97,-361.48"/>
<polygon fill="black" stroke="black" points="621.7,-363.21 626.96,-362.62 622.48,-359.8 621.7,-363.21"/>
</g>
<!-- 1 of [&#39;MATH100&#39;, &#39;MATH102&#39;, &#39;MATH109&#39;, &#39;MATH122&#39;]&#45;&gt;MATH211 -->
<g id="edge75" class="edge">
<title>1 of [&#39;MATH100&#39;, &#39;MATH102&#39;, &#39;MATH109&#39;, &#39;MATH122&#39;]&#45;&gt;MATH211</title>
<path fill="none" stroke="black" d="M275.86,-196.43C284.86,-191.4 296.27,-185.53 307,-181.5 370.58,-157.64 388.78,-158.17 455.5,-145.5 506.77,-135.77 566.57,-128.13 604.71,-123.71"/>
<polygon fill="black" stroke="black" points="604.95,-125.45 609.71,-123.14 604.55,-121.97 604.95,-125.45"/>
</g>
<!-- MATH122 -->
<g id="node66" class="node">
<title>MATH122</title>
<path fill="white" stroke="#030a10" stroke-opacity="0.125490" d="M162.33,-194.5C162.33,-194.5 133.67,-194.5 133.67,-194.5 131.33,-194.5 129,-192.17 129,-189.84 129,-189.84 129,-185.17 129,-185.17 129,-182.84 131.33,-180.5 133.67,-180.5 133.67,-180.5 162.33,-180.5 162.33,-180.5 164.67,-180.5 167,-182.84 167,-185.17 167,-185.17 167,-189.84 167,-189.84 167,-192.17 164.67,-194.5 162.33,-194.5"/>
<text text-anchor="middle" x="148" y="-186.5" font-family="Times,serif" font-size="5.00">MATH122</text>
</g>
<!-- MATH122&#45;&gt;1 of [&#39;MATH100&#39;, &#39;MATH102&#39;, &#39;MATH109&#39;, &#39;MATH122&#39;] -->
<g id="edge79" class="edge">
<title>MATH122&#45;&gt;1 of [&#39;MATH100&#39;, &#39;MATH102&#39;, &#39;MATH109&#39;, &#39;MATH122&#39;]</title>
<path fill="none" stroke="black" d="M167.32,-190.73C186.1,-194.03 215.31,-199.17 235.25,-202.68"/>
<polygon fill="black" stroke="black" points="235.14,-204.43 240.37,-203.58 235.74,-200.99 235.14,-204.43"/>
</g>
<!-- 1 of [&#39;MATH120&#39;, &#39;MATH151&#39;]&#45;&gt;MATH211 -->
<g id="edge80" class="edge">
<title>1 of [&#39;MATH120&#39;, &#39;MATH151&#39;]&#45;&gt;MATH211</title>
<path fill="none" stroke="black" d="M165.74,-139.79C235.43,-136.83 503.69,-125.44 604.71,-121.15"/>
<polygon fill="black" stroke="black" points="605.05,-122.89 609.98,-120.93 604.91,-119.39 605.05,-122.89"/>
</g>
<!-- MATH151 -->
<g id="node68" class="node">
<title>MATH151</title>
<path fill="white" stroke="#030a10" stroke-opacity="0.125490" d="M43.33,-147.5C43.33,-147.5 14.67,-147.5 14.67,-147.5 12.33,-147.5 10,-145.17 10,-142.84 10,-142.84 10,-138.17 10,-138.17 10,-135.84 12.33,-133.5 14.67,-133.5 14.67,-133.5 43.33,-133.5 43.33,-133.5 45.67,-133.5 48,-135.84 48,-138.17 48,-138.17 48,-142.84 48,-142.84 48,-145.17 45.67,-147.5 43.33,-147.5"/>
<text text-anchor="middle" x="29" y="-139.5" font-family="Times,serif" font-size="5.00">MATH151</text>
</g>
<!-- MATH151&#45;&gt;1 of [&#39;MATH120&#39;, &#39;MATH151&#39;] -->
<g id="edge82" class="edge">
<title>MATH151&#45;&gt;1 of [&#39;MATH120&#39;, &#39;MATH151&#39;]</title>
<path fill="none" stroke="black" d="M48.02,-140.5C68.79,-140.5 102.92,-140.5 125.17,-140.5"/>
<polygon fill="black" stroke="black" points="125.28,-142.25 130.28,-140.5 125.28,-138.75 125.28,-142.25"/>
</g>
<!-- CHEM091 -->
<g id="node69" class="node">
<title>CHEM091</title>
<path fill="white" stroke="#030a10" stroke-opacity="0.125490" d="M272.33,-294.5C272.33,-294.5 243.67,-294.5 243.67,-294.5 241.33,-294.5 239,-292.17 239,-289.84 239,-289.84 239,-285.17 239,-285.17 239,-282.84 241.33,-280.5 243.67,-280.5 243.67,-280.5 272.33,-280.5 272.33,-280.5 274.67,-280.5 277,-282.84 277,-285.17 277,-285.17 277,-289.84 277,-289.84 277,-292.17 274.67,-294.5 272.33,-294.5"/>
<text text-anchor="middle" x="258" y="-286.5" font-family="Times,serif" font-size="5.00">CHEM091</text>
</g>
<!-- CHEM091&#45;&gt;CHEM102 -->
<g id="edge84" class="edge">
<title>CHEM091&#45;&gt;CHEM102</title>
<path fill="none" stroke="black" d="M272,-294.64C273.75,-295.83 275.47,-297.13 277,-298.5 293.27,-313.12 289.43,-324.48 307,-337.5 313.55,-342.36 321.25,-346.3 328.92,-349.46"/>
<polygon fill="black" stroke="black" points="328.4,-351.14 333.69,-351.33 329.67,-347.88 328.4,-351.14"/>
</g>
<!-- 1 of [&#39;CHEM101&#39;, &#39;CHEM150&#39;]&#45;&gt;CHEM102 -->
<g id="edge85" class="edge">
<title>1 of [&#39;CHEM101&#39;, &#39;CHEM150&#39;]&#45;&gt;CHEM102</title>
<path fill="none" stroke="black" d="M275.55,-368.98C289.6,-367.7 310.32,-365.79 328.58,-364.12"/>
<polygon fill="black" stroke="black" points="328.84,-365.85 333.66,-363.65 328.52,-362.37 328.84,-365.85"/>
</g>
<!-- 1 of [&#39;PHYS216&#39;, &#39;ECE216&#39;, &#39;ELEC216&#39;]&#45;&gt;PHYS325 -->
<g id="edge101" class="edge">
<title>1 of [&#39;PHYS216&#39;, &#39;ECE216&#39;, &#39;ELEC216&#39;]&#45;&gt;PHYS325</title>
<path fill="none" stroke="black" d="M913.76,-92.85C926.62,-91.58 944.87,-89.79 961.14,-88.18"/>
<polygon fill="black" stroke="black" points="961.31,-89.93 966.11,-87.69 960.97,-86.44 961.31,-89.93"/>
</g>
<!-- ECE216 -->
<g id="node72" class="node">
<title>ECE216</title>
<path fill="white" stroke="#030a10" stroke-opacity="0.125490" d="M781.83,-87.5C781.83,-87.5 759.17,-87.5 759.17,-87.5 756.83,-87.5 754.5,-85.17 754.5,-82.84 754.5,-82.84 754.5,-78.17 754.5,-78.17 754.5,-75.84 756.83,-73.5 759.17,-73.5 759.17,-73.5 781.83,-73.5 781.83,-73.5 784.17,-73.5 786.5,-75.84 786.5,-78.17 786.5,-78.17 786.5,-82.84 786.5,-82.84 786.5,-85.17 784.17,-87.5 781.83,-87.5"/>
<text text-anchor="middle" x="770.5" y="-79.5" font-family="Times,serif" font-size="5.00">ECE216</text>
</g>
<!-- ECE216&#45;&gt;1 of [&#39;PHYS216&#39;, &#39;ECE216&#39;, &#39;ELEC216&#39;] -->
<g id="edge103" class="edge">
<title>ECE216&#45;&gt;1 of [&#39;PHYS216&#39;, &#39;ECE216&#39;, &#39;ELEC216&#39;]</title>
<path fill="none" stroke="black" d="M786.64,-82.22C808.29,-84.67 848.21,-89.2 873.08,-92.02"/>
<polygon fill="black" stroke="black" points="872.99,-93.77 878.15,-92.59 873.38,-90.29 872.99,-93.77"/>
</g>
<!-- ELEC216 -->
<g id="node73" class="node">
<title>ELEC216</title>
<path fill="white" stroke="#030a10" stroke-opacity="0.125490" d="M783.33,-108.5C783.33,-108.5 757.67,-108.5 757.67,-108.5 755.33,-108.5 753,-106.17 753,-103.84 753,-103.84 753,-99.17 753,-99.17 753,-96.84 755.33,-94.5 757.67,-94.5 757.67,-94.5 783.33,-94.5 783.33,-94.5 785.67,-94.5 788,-96.84 788,-99.17 788,-99.17 788,-103.84 788,-103.84 788,-106.17 785.67,-108.5 783.33,-108.5"/>
<text text-anchor="middle" x="770.5" y="-100.5" font-family="Times,serif" font-size="5.00">ELEC216</text>
</g>
<!-- ELEC216&#45;&gt;1 of [&#39;PHYS216&#39;, &#39;ECE216&#39;, &#39;ELEC216&#39;] -->
<g id="edge104" class="edge">
<title>ELEC216&#45;&gt;1 of [&#39;PHYS216&#39;, &#39;ECE216&#39;, &#39;ELEC216&#39;]</title>
<path fill="none" stroke="black" d="M788.16,-100.56C810.07,-99.32 848.64,-97.13 872.96,-95.75"/>
<polygon fill="black" stroke="black" points="873.32,-97.48 878.21,-95.45 873.12,-93.99 873.32,-97.48"/>
</g>
<!-- 1 of [&#39;MATH100&#39;, &#39;MATH102&#39;, &#39;MATH109&#39;, &#39;MATH120&#39;]&#45;&gt;CSC110 -->
<g id="edge113" class="edge">
<title>1 of [&#39;MATH100&#39;, &#39;MATH102&#39;, &#39;MATH109&#39;, &#39;MATH120&#39;]&#45;&gt;CSC110</title>
<path fill="none" stroke="black" d="M273.71,-323.16C274.96,-324.51 276.09,-325.96 277,-327.5 312.13,-386.72 262.88,-426.63 307,-479.5 314.08,-487.99 324.57,-493.49 334.86,-497.05"/>
<polygon fill="black" stroke="black" points="334.58,-498.8 339.88,-498.65 335.64,-495.46 334.58,-498.8"/>
</g>
<!-- 1 of [&#39;PHYS120&#39;, &#39;PHYS130&#39;]&#45;&gt;PHYS229 -->
<g id="edge122" class="edge">
<title>1 of [&#39;PHYS120&#39;, &#39;PHYS130&#39;]&#45;&gt;PHYS229</title>
<path fill="none" stroke="black" d="M662.22,-271.64C680.05,-271.78 708.85,-272.01 732.12,-272.2"/>
<polygon fill="black" stroke="black" points="732.28,-273.95 737.3,-272.24 732.31,-270.45 732.28,-273.95"/>
</g>
</g>
</svg>
