<?xml version="1.0" encoding="UTF-8" standalone="no"?>
<!DOCTYPE svg PUBLIC "-//W3C//DTD SVG 1.1//EN"
 "http://www.w3.org/Graphics/SVG/1.1/DTD/svg11.dtd">
<!-- Generated by graphviz version 2.43.0 (0)
 -->
<!-- Title: unix Pages: 1 -->
<svg width="930pt" height="506pt"
 viewBox="0.00 0.00 930.00 505.50" xmlns="http://www.w3.org/2000/svg" xmlns:xlink="http://www.w3.org/1999/xlink">
<g id="graph0" class="graph" transform="scale(1 1) rotate(0) translate(4 501.5)">
<title>unix</title>
<polygon fill="white" stroke="transparent" points="-4,4 -4,-501.5 926,-501.5 926,4 -4,4"/>
<text text-anchor="middle" x="461" y="-482.3" font-family="Times,serif" font-size="14.00">Earth Sciences (Minor) PROPOSED CHANGES</text>
<text text-anchor="middle" x="461" y="-467.3" font-family="Times,serif" font-size="14.00">Using options: [&#39;EOS202&#39;, &#39;EOS205&#39;, &#39;EOS240&#39;]</text>
<g id="clust1" class="cluster">
<title>cluster_Required.1</title>
<polygon fill="none" stroke="black" points="186,-284 186,-373 311,-373 311,-284 186,-284"/>
<text text-anchor="middle" x="248.5" y="-357.8" font-family="Times,serif" font-size="14.00">Program requires: 1</text>
</g>
<g id="clust2" class="cluster">
<title>cluster_Required.2</title>
<polygon fill="none" stroke="black" points="185.5,-165 185.5,-254 310.5,-254 310.5,-165 185.5,-165"/>
<text text-anchor="middle" x="248" y="-238.8" font-family="Times,serif" font-size="14.00">Program requires: 1</text>
</g>
<g id="clust3" class="cluster">
<title>cluster_Required.3</title>
<polygon fill="none" stroke="black" points="405,-8 405,-125 530,-125 530,-8 405,-8"/>
<text text-anchor="middle" x="467.5" y="-109.8" font-family="Times,serif" font-size="14.00">Program requires: 1</text>
</g>
<g id="clust4" class="cluster">
<title>cluster_Required.4</title>
<polygon fill="none" stroke="black" points="550,-102 550,-191 742,-191 742,-102 550,-102"/>
<text text-anchor="middle" x="646" y="-175.8" font-family="Times,serif" font-size="14.00">Program requires: 1</text>
</g>
<g id="clust5" class="cluster">
<title>cluster_Required.5</title>
<polygon fill="none" stroke="black" points="554,-341 554,-430 734,-430 734,-341 554,-341"/>
<text text-anchor="middle" x="644" y="-414.8" font-family="Times,serif" font-size="14.00">Program requires: 3</text>
</g>
<g id="clust6" class="cluster">
<title>cluster_Required.6</title>
<polygon fill="none" stroke="black" points="0,-301 0,-362 166,-362 166,-301 0,-301"/>
<text text-anchor="middle" x="83" y="-346.8" font-family="Times,serif" font-size="14.00">Program requires: 4.5 units</text>
</g>
<!-- EOS120 -->
<g id="node1" class="node">
<title>EOS120</title>
<path fill="#9fa7be" stroke="#030a10" d="M489.5,-420.5C489.5,-420.5 445.5,-420.5 445.5,-420.5 442,-420.5 438.5,-417 438.5,-413.5 438.5,-413.5 438.5,-406.5 438.5,-406.5 438.5,-403 442,-399.5 445.5,-399.5 445.5,-399.5 489.5,-399.5 489.5,-399.5 493,-399.5 496.5,-403 496.5,-406.5 496.5,-406.5 496.5,-413.5 496.5,-413.5 496.5,-417 493,-420.5 489.5,-420.5"/>
<text text-anchor="middle" x="467.5" y="-406.9" font-family="Times,serif" font-size="12.00">EOS120</text>
</g>
<!-- EOS201 -->
<g id="node14" class="node">
<title>EOS201</title>
<path fill="#37aabb" stroke="#030a10" d="M719,-398.5C719,-398.5 675,-398.5 675,-398.5 671.5,-398.5 668,-395 668,-391.5 668,-391.5 668,-384.5 668,-384.5 668,-381 671.5,-377.5 675,-377.5 675,-377.5 719,-377.5 719,-377.5 722.5,-377.5 726,-381 726,-384.5 726,-384.5 726,-391.5 726,-391.5 726,-395 722.5,-398.5 719,-398.5"/>
<text text-anchor="middle" x="697" y="-384.9" font-family="Times,serif" font-size="12.00">EOS201</text>
</g>
<!-- EOS120&#45;&gt;EOS201 -->
<g id="edge1" class="edge">
<title>EOS120&#45;&gt;EOS201</title>
<path fill="none" stroke="black" d="M496.57,-414.42C527.91,-418.55 580.01,-422.98 624,-415 639.56,-412.18 656.14,-406.19 669.46,-400.56"/>
<polygon fill="black" stroke="black" points="670.31,-402.1 674.21,-398.52 668.92,-398.89 670.31,-402.1"/>
</g>
<!-- EOS202 -->
<g id="node15" class="node">
<title>EOS202</title>
<path fill="#37aabb" stroke="#030a10" d="M613,-370.5C613,-370.5 569,-370.5 569,-370.5 565.5,-370.5 562,-367 562,-363.5 562,-363.5 562,-356.5 562,-356.5 562,-353 565.5,-349.5 569,-349.5 569,-349.5 613,-349.5 613,-349.5 616.5,-349.5 620,-353 620,-356.5 620,-356.5 620,-363.5 620,-363.5 620,-367 616.5,-370.5 613,-370.5"/>
<text text-anchor="middle" x="591" y="-356.9" font-family="Times,serif" font-size="12.00">EOS202</text>
</g>
<!-- EOS120&#45;&gt;EOS202 -->
<g id="edge24" class="edge">
<title>EOS120&#45;&gt;EOS202</title>
<path fill="none" stroke="black" d="M492.27,-399.44C508.46,-392.34 530.43,-382.87 550,-375 552.29,-374.08 554.66,-373.15 557.05,-372.22"/>
<polygon fill="black" stroke="black" points="557.92,-373.75 561.96,-370.32 556.67,-370.49 557.92,-373.75"/>
</g>
<!-- EOS205 -->
<g id="node16" class="node">
<title>EOS205</title>
<path fill="#37aabb" stroke="#030a10" d="M613,-398.5C613,-398.5 569,-398.5 569,-398.5 565.5,-398.5 562,-395 562,-391.5 562,-391.5 562,-384.5 562,-384.5 562,-381 565.5,-377.5 569,-377.5 569,-377.5 613,-377.5 613,-377.5 616.5,-377.5 620,-381 620,-384.5 620,-384.5 620,-391.5 620,-391.5 620,-395 616.5,-398.5 613,-398.5"/>
<text text-anchor="middle" x="591" y="-384.9" font-family="Times,serif" font-size="12.00">EOS205</text>
</g>
<!-- EOS120&#45;&gt;EOS205 -->
<g id="edge22" class="edge">
<title>EOS120&#45;&gt;EOS205</title>
<path fill="none" stroke="black" d="M496.68,-404.9C514.62,-401.65 537.94,-397.43 556.79,-394.01"/>
<polygon fill="black" stroke="black" points="557.36,-395.69 561.97,-393.07 556.74,-392.24 557.36,-395.69"/>
</g>
<!-- EOS240 -->
<g id="node17" class="node">
<title>EOS240</title>
<path fill="#37aabb" stroke="#030a10" d="M719,-370.5C719,-370.5 675,-370.5 675,-370.5 671.5,-370.5 668,-367 668,-363.5 668,-363.5 668,-356.5 668,-356.5 668,-353 671.5,-349.5 675,-349.5 675,-349.5 719,-349.5 719,-349.5 722.5,-349.5 726,-353 726,-356.5 726,-356.5 726,-363.5 726,-363.5 726,-367 722.5,-370.5 719,-370.5"/>
<text text-anchor="middle" x="697" y="-356.9" font-family="Times,serif" font-size="12.00">EOS240</text>
</g>
<!-- EOS120&#45;&gt;EOS240 -->
<g id="edge30" class="edge">
<title>EOS120&#45;&gt;EOS240</title>
<path fill="none" stroke="black" d="M496.71,-413.37C528.63,-416.1 581.68,-417.33 624,-402 642.8,-395.19 642.64,-384.92 660,-375 661.27,-374.28 662.58,-373.57 663.91,-372.88"/>
<polygon fill="black" stroke="black" points="664.82,-374.38 668.53,-370.6 663.27,-371.24 664.82,-374.38"/>
</g>
<!-- EOS313 -->
<g id="node29" class="node">
<title>EOS313</title>
<path fill="#8197f4" stroke="#030a10" d="M613,-459.5C613,-459.5 569,-459.5 569,-459.5 565.5,-459.5 562,-456 562,-452.5 562,-452.5 562,-445.5 562,-445.5 562,-442 565.5,-438.5 569,-438.5 569,-438.5 613,-438.5 613,-438.5 616.5,-438.5 620,-442 620,-445.5 620,-445.5 620,-452.5 620,-452.5 620,-456 616.5,-459.5 613,-459.5"/>
<text text-anchor="middle" x="591" y="-445.9" font-family="Times,serif" font-size="12.00">EOS313</text>
</g>
<!-- EOS120&#45;&gt;EOS313 -->
<g id="edge36" class="edge">
<title>EOS120&#45;&gt;EOS313</title>
<path fill="none" stroke="black" d="M496.68,-419.05C514.62,-424.8 537.94,-432.29 556.79,-438.34"/>
<polygon fill="black" stroke="black" points="556.68,-440.14 561.97,-440 557.75,-436.81 556.68,-440.14"/>
</g>
<!-- MATH101 -->
<g id="node2" class="node">
<title>MATH101</title>
<path fill="#9fa7be" stroke="#030a10" d="M495,-190.5C495,-190.5 440,-190.5 440,-190.5 436.5,-190.5 433,-187 433,-183.5 433,-183.5 433,-176.5 433,-176.5 433,-173 436.5,-169.5 440,-169.5 440,-169.5 495,-169.5 495,-169.5 498.5,-169.5 502,-173 502,-176.5 502,-176.5 502,-183.5 502,-183.5 502,-187 498.5,-190.5 495,-190.5"/>
<text text-anchor="middle" x="467.5" y="-176.9" font-family="Times,serif" font-size="12.00">MATH101</text>
</g>
<!-- PHYS130 -->
<g id="node13" class="node">
<title>PHYS130</title>
<path fill="#34af8a" stroke="#030a10" d="M617,-159.5C617,-159.5 565,-159.5 565,-159.5 561.5,-159.5 558,-156 558,-152.5 558,-152.5 558,-145.5 558,-145.5 558,-142 561.5,-138.5 565,-138.5 565,-138.5 617,-138.5 617,-138.5 620.5,-138.5 624,-142 624,-145.5 624,-145.5 624,-152.5 624,-152.5 624,-156 620.5,-159.5 617,-159.5"/>
<text text-anchor="middle" x="591" y="-145.9" font-family="Times,serif" font-size="12.00">PHYS130</text>
</g>
<!-- MATH101&#45;&gt;PHYS130 -->
<g id="edge27" class="edge">
<title>MATH101&#45;&gt;PHYS130</title>
<path fill="none" stroke="black" d="M502.02,-171.45C517.81,-167.42 536.69,-162.6 552.9,-158.46"/>
<polygon fill="black" stroke="black" points="553.43,-160.14 557.84,-157.2 552.57,-156.74 553.43,-160.14"/>
</g>
<!-- 2 of [&#39;MATH100&#39;, &#39;MATH101&#39;, &#39;MATH102&#39;, &#39;MATH109&#39;, &#39;MATH151&#39;] -->
<g id="node33" class="node">
<title>2 of [&#39;MATH100&#39;, &#39;MATH101&#39;, &#39;MATH102&#39;, &#39;MATH109&#39;, &#39;MATH151&#39;]</title>
<path fill="#d1b79e" stroke="#030a10" d="M600.5,-232C600.5,-232 581.5,-232 581.5,-232 578.5,-232 575.5,-229 575.5,-226 575.5,-226 575.5,-220 575.5,-220 575.5,-217 578.5,-214 581.5,-214 581.5,-214 600.5,-214 600.5,-214 603.5,-214 606.5,-217 606.5,-220 606.5,-220 606.5,-226 606.5,-226 606.5,-229 603.5,-232 600.5,-232"/>
<text text-anchor="middle" x="591" y="-220.8" font-family="Times,serif" font-size="9.00">2 of</text>
</g>
<!-- MATH101&#45;&gt;2 of [&#39;MATH100&#39;, &#39;MATH101&#39;, &#39;MATH102&#39;, &#39;MATH109&#39;, &#39;MATH151&#39;] -->
<g id="edge40" class="edge">
<title>MATH101&#45;&gt;2 of [&#39;MATH100&#39;, &#39;MATH101&#39;, &#39;MATH102&#39;, &#39;MATH109&#39;, &#39;MATH151&#39;]</title>
<path fill="none" stroke="black" d="M502.04,-186.02C511.31,-188.26 521.22,-191.21 530,-195 539.73,-199.2 540.54,-203.22 550,-208 556.44,-211.25 563.75,-214.19 570.35,-216.6"/>
<polygon fill="black" stroke="black" points="569.94,-218.31 575.23,-218.33 571.1,-215.01 569.94,-218.31"/>
</g>
<!-- CHEM102 -->
<g id="node3" class="node">
<title>CHEM102</title>
<path fill="#9fa7be" stroke="#030a10" d="M495.5,-336.5C495.5,-336.5 439.5,-336.5 439.5,-336.5 436,-336.5 432.5,-333 432.5,-329.5 432.5,-329.5 432.5,-322.5 432.5,-322.5 432.5,-319 436,-315.5 439.5,-315.5 439.5,-315.5 495.5,-315.5 495.5,-315.5 499,-315.5 502.5,-319 502.5,-322.5 502.5,-322.5 502.5,-329.5 502.5,-329.5 502.5,-333 499,-336.5 495.5,-336.5"/>
<text text-anchor="middle" x="467.5" y="-322.9" font-family="Times,serif" font-size="12.00">CHEM102</text>
</g>
<!-- CHEM102&#45;&gt;EOS205 -->
<g id="edge23" class="edge">
<title>CHEM102&#45;&gt;EOS205</title>
<path fill="none" stroke="black" d="M484.23,-336.52C500.29,-346.96 526.17,-362.94 550,-374 552.22,-375.03 554.54,-376.03 556.89,-376.99"/>
<polygon fill="black" stroke="black" points="556.45,-378.7 561.75,-378.89 557.73,-375.44 556.45,-378.7"/>
</g>
<!-- CHEM102&#45;&gt;EOS240 -->
<g id="edge32" class="edge">
<title>CHEM102&#45;&gt;EOS240</title>
<path fill="none" stroke="black" d="M502.56,-329.74C534.13,-333.37 582.35,-339.28 624,-346 636.65,-348.04 650.48,-350.64 662.61,-353.04"/>
<polygon fill="black" stroke="black" points="662.45,-354.8 667.69,-354.06 663.13,-351.36 662.45,-354.8"/>
</g>
<!-- EOS311 -->
<g id="node31" class="node">
<title>EOS311</title>
<path fill="#8197f4" stroke="#030a10" d="M915,-243.5C915,-243.5 871,-243.5 871,-243.5 867.5,-243.5 864,-240 864,-236.5 864,-236.5 864,-229.5 864,-229.5 864,-226 867.5,-222.5 871,-222.5 871,-222.5 915,-222.5 915,-222.5 918.5,-222.5 922,-226 922,-229.5 922,-229.5 922,-236.5 922,-236.5 922,-240 918.5,-243.5 915,-243.5"/>
<text text-anchor="middle" x="893" y="-229.9" font-family="Times,serif" font-size="12.00">EOS311</text>
</g>
<!-- CHEM102&#45;&gt;EOS311 -->
<g id="edge50" class="edge">
<title>CHEM102&#45;&gt;EOS311</title>
<path fill="none" stroke="black" d="M502.82,-316.34C540.92,-305.94 604.41,-289.61 660,-280 734,-267.2 755.55,-281.75 828,-262 841.92,-258.21 856.64,-251.73 868.45,-245.85"/>
<polygon fill="black" stroke="black" points="869.32,-247.37 872.99,-243.55 867.74,-244.25 869.32,-247.37"/>
</g>
<!-- CHEM101 -->
<g id="node4" class="node">
<title>CHEM101</title>
<path fill="#f77189" stroke="#030a10" d="M276,-313.5C276,-313.5 220,-313.5 220,-313.5 216.5,-313.5 213,-310 213,-306.5 213,-306.5 213,-299.5 213,-299.5 213,-296 216.5,-292.5 220,-292.5 220,-292.5 276,-292.5 276,-292.5 279.5,-292.5 283,-296 283,-299.5 283,-299.5 283,-306.5 283,-306.5 283,-310 279.5,-313.5 276,-313.5"/>
<text text-anchor="middle" x="248" y="-299.9" font-family="Times,serif" font-size="12.00">CHEM101</text>
</g>
<!-- 1 of [&#39;CHEM101&#39;, &#39;CHEM150&#39;] -->
<g id="node25" class="node">
<title>1 of [&#39;CHEM101&#39;, &#39;CHEM150&#39;]</title>
<path fill="#e9dbd0" stroke="#030a10" d="M367.5,-324C367.5,-324 348.5,-324 348.5,-324 345.5,-324 342.5,-321 342.5,-318 342.5,-318 342.5,-312 342.5,-312 342.5,-309 345.5,-306 348.5,-306 348.5,-306 367.5,-306 367.5,-306 370.5,-306 373.5,-309 373.5,-312 373.5,-312 373.5,-318 373.5,-318 373.5,-321 370.5,-324 367.5,-324"/>
<text text-anchor="middle" x="358" y="-312.8" font-family="Times,serif" font-size="9.00">1 of</text>
</g>
<!-- CHEM101&#45;&gt;1 of [&#39;CHEM101&#39;, &#39;CHEM150&#39;] -->
<g id="edge18" class="edge">
<title>CHEM101&#45;&gt;1 of [&#39;CHEM101&#39;, &#39;CHEM150&#39;]</title>
<path fill="none" stroke="black" d="M283.17,-306.8C300.89,-308.77 321.93,-311.1 337,-312.78"/>
<polygon fill="black" stroke="black" points="337.1,-314.55 342.27,-313.36 337.49,-311.07 337.1,-314.55"/>
</g>
<!-- CHEM150 -->
<g id="node5" class="node">
<title>CHEM150</title>
<path fill="#f77189" stroke="#030a10" d="M276,-341.5C276,-341.5 220,-341.5 220,-341.5 216.5,-341.5 213,-338 213,-334.5 213,-334.5 213,-327.5 213,-327.5 213,-324 216.5,-320.5 220,-320.5 220,-320.5 276,-320.5 276,-320.5 279.5,-320.5 283,-324 283,-327.5 283,-327.5 283,-334.5 283,-334.5 283,-338 279.5,-341.5 276,-341.5"/>
<text text-anchor="middle" x="248" y="-327.9" font-family="Times,serif" font-size="12.00">CHEM150</text>
</g>
<!-- CHEM150&#45;&gt;1 of [&#39;CHEM101&#39;, &#39;CHEM150&#39;] -->
<g id="edge19" class="edge">
<title>CHEM150&#45;&gt;1 of [&#39;CHEM101&#39;, &#39;CHEM150&#39;]</title>
<path fill="none" stroke="black" d="M283.17,-325.94C300.89,-323.31 321.93,-320.2 337,-317.96"/>
<polygon fill="black" stroke="black" points="337.58,-319.65 342.27,-317.18 337.06,-316.18 337.58,-319.65"/>
</g>
<!-- MATH100 -->
<g id="node6" class="node">
<title>MATH100</title>
<path fill="#c69432" stroke="#030a10" d="M275.5,-222.5C275.5,-222.5 220.5,-222.5 220.5,-222.5 217,-222.5 213.5,-219 213.5,-215.5 213.5,-215.5 213.5,-208.5 213.5,-208.5 213.5,-205 217,-201.5 220.5,-201.5 220.5,-201.5 275.5,-201.5 275.5,-201.5 279,-201.5 282.5,-205 282.5,-208.5 282.5,-208.5 282.5,-215.5 282.5,-215.5 282.5,-219 279,-222.5 275.5,-222.5"/>
<text text-anchor="middle" x="248" y="-208.9" font-family="Times,serif" font-size="12.00">MATH100</text>
</g>
<!-- 1 of [&#39;MATH100&#39;, &#39;MATH109&#39;] -->
<g id="node19" class="node">
<title>1 of [&#39;MATH100&#39;, &#39;MATH109&#39;]</title>
<path fill="#e9dbd0" stroke="#030a10" d="M367.5,-187C367.5,-187 348.5,-187 348.5,-187 345.5,-187 342.5,-184 342.5,-181 342.5,-181 342.5,-175 342.5,-175 342.5,-172 345.5,-169 348.5,-169 348.5,-169 367.5,-169 367.5,-169 370.5,-169 373.5,-172 373.5,-175 373.5,-175 373.5,-181 373.5,-181 373.5,-184 370.5,-187 367.5,-187"/>
<text text-anchor="middle" x="358" y="-175.8" font-family="Times,serif" font-size="9.00">1 of</text>
</g>
<!-- MATH100&#45;&gt;1 of [&#39;MATH100&#39;, &#39;MATH109&#39;] -->
<g id="edge4" class="edge">
<title>MATH100&#45;&gt;1 of [&#39;MATH100&#39;, &#39;MATH109&#39;]</title>
<path fill="none" stroke="black" d="M282.78,-205.58C292.02,-203.5 301.98,-200.95 311,-198 319.91,-195.09 329.46,-191.09 337.54,-187.43"/>
<polygon fill="black" stroke="black" points="338.55,-188.89 342.36,-185.21 337.09,-185.71 338.55,-188.89"/>
</g>
<!-- 1 of [&#39;MATH100&#39;, &#39;MATH102&#39;, &#39;MATH109&#39;] -->
<g id="node20" class="node">
<title>1 of [&#39;MATH100&#39;, &#39;MATH102&#39;, &#39;MATH109&#39;]</title>
<path fill="#e9dbd0" stroke="#030a10" d="M367.5,-227C367.5,-227 348.5,-227 348.5,-227 345.5,-227 342.5,-224 342.5,-221 342.5,-221 342.5,-215 342.5,-215 342.5,-212 345.5,-209 348.5,-209 348.5,-209 367.5,-209 367.5,-209 370.5,-209 373.5,-212 373.5,-215 373.5,-215 373.5,-221 373.5,-221 373.5,-224 370.5,-227 367.5,-227"/>
<text text-anchor="middle" x="358" y="-215.8" font-family="Times,serif" font-size="9.00">1 of</text>
</g>
<!-- MATH100&#45;&gt;1 of [&#39;MATH100&#39;, &#39;MATH102&#39;, &#39;MATH109&#39;] -->
<g id="edge7" class="edge">
<title>MATH100&#45;&gt;1 of [&#39;MATH100&#39;, &#39;MATH102&#39;, &#39;MATH109&#39;]</title>
<path fill="none" stroke="black" d="M282.58,-213.87C300.45,-214.86 321.81,-216.05 337.06,-216.89"/>
<polygon fill="black" stroke="black" points="337.29,-218.66 342.38,-217.19 337.49,-215.16 337.29,-218.66"/>
</g>
<!-- MATH100&#45;&gt;2 of [&#39;MATH100&#39;, &#39;MATH101&#39;, &#39;MATH102&#39;, &#39;MATH109&#39;, &#39;MATH151&#39;] -->
<g id="edge39" class="edge">
<title>MATH100&#45;&gt;2 of [&#39;MATH100&#39;, &#39;MATH101&#39;, &#39;MATH102&#39;, &#39;MATH109&#39;, &#39;MATH151&#39;]</title>
<path fill="none" stroke="black" d="M282.53,-220.34C299.36,-224.11 320.13,-228.13 339,-230 424.7,-238.49 527.6,-229.71 570.12,-225.26"/>
<polygon fill="black" stroke="black" points="570.46,-226.98 575.24,-224.71 570.09,-223.5 570.46,-226.98"/>
</g>
<!-- MATH109 -->
<g id="node7" class="node">
<title>MATH109</title>
<path fill="#c69432" stroke="#030a10" d="M275.5,-194.5C275.5,-194.5 220.5,-194.5 220.5,-194.5 217,-194.5 213.5,-191 213.5,-187.5 213.5,-187.5 213.5,-180.5 213.5,-180.5 213.5,-177 217,-173.5 220.5,-173.5 220.5,-173.5 275.5,-173.5 275.5,-173.5 279,-173.5 282.5,-177 282.5,-180.5 282.5,-180.5 282.5,-187.5 282.5,-187.5 282.5,-191 279,-194.5 275.5,-194.5"/>
<text text-anchor="middle" x="248" y="-180.9" font-family="Times,serif" font-size="12.00">MATH109</text>
</g>
<!-- MATH109&#45;&gt;1 of [&#39;MATH100&#39;, &#39;MATH109&#39;] -->
<g id="edge5" class="edge">
<title>MATH109&#45;&gt;1 of [&#39;MATH100&#39;, &#39;MATH109&#39;]</title>
<path fill="none" stroke="black" d="M282.58,-182.13C300.45,-181.14 321.81,-179.95 337.06,-179.11"/>
<polygon fill="black" stroke="black" points="337.49,-180.84 342.38,-178.81 337.29,-177.34 337.49,-180.84"/>
</g>
<!-- MATH109&#45;&gt;1 of [&#39;MATH100&#39;, &#39;MATH102&#39;, &#39;MATH109&#39;] -->
<g id="edge9" class="edge">
<title>MATH109&#45;&gt;1 of [&#39;MATH100&#39;, &#39;MATH102&#39;, &#39;MATH109&#39;]</title>
<path fill="none" stroke="black" d="M282.73,-191.16C291.97,-193.39 301.94,-196.05 311,-199 319.85,-201.88 329.39,-205.7 337.47,-209.15"/>
<polygon fill="black" stroke="black" points="337.02,-210.86 342.3,-211.25 338.41,-207.65 337.02,-210.86"/>
</g>
<!-- MATH109&#45;&gt;2 of [&#39;MATH100&#39;, &#39;MATH101&#39;, &#39;MATH102&#39;, &#39;MATH109&#39;, &#39;MATH151&#39;] -->
<g id="edge42" class="edge">
<title>MATH109&#45;&gt;2 of [&#39;MATH100&#39;, &#39;MATH101&#39;, &#39;MATH102&#39;, &#39;MATH109&#39;, &#39;MATH151&#39;]</title>
<path fill="none" stroke="black" d="M282.69,-188.47C308.65,-192.23 345.36,-198.24 377,-206 389.69,-209.11 392.13,-212.7 405,-215 464.48,-225.65 536.34,-224.97 570.34,-223.86"/>
<polygon fill="black" stroke="black" points="570.53,-225.61 575.46,-223.68 570.4,-222.11 570.53,-225.61"/>
</g>
<!-- PHYS102A -->
<g id="node8" class="node">
<title>PHYS102A</title>
<path fill="#82a931" stroke="#030a10" d="M498,-65.5C498,-65.5 437,-65.5 437,-65.5 433.5,-65.5 430,-62 430,-58.5 430,-58.5 430,-51.5 430,-51.5 430,-48 433.5,-44.5 437,-44.5 437,-44.5 498,-44.5 498,-44.5 501.5,-44.5 505,-48 505,-51.5 505,-51.5 505,-58.5 505,-58.5 505,-62 501.5,-65.5 498,-65.5"/>
<text text-anchor="middle" x="467.5" y="-51.9" font-family="Times,serif" font-size="12.00">PHYS102A</text>
</g>
<!-- 1 of [&#39;PHYS102A&#39;, &#39;PHYS110&#39;, &#39;PHYS120&#39;] -->
<g id="node22" class="node">
<title>1 of [&#39;PHYS102A&#39;, &#39;PHYS110&#39;, &#39;PHYS120&#39;]</title>
<path fill="#e9dbd0" stroke="#030a10" d="M600.5,-68C600.5,-68 581.5,-68 581.5,-68 578.5,-68 575.5,-65 575.5,-62 575.5,-62 575.5,-56 575.5,-56 575.5,-53 578.5,-50 581.5,-50 581.5,-50 600.5,-50 600.5,-50 603.5,-50 606.5,-53 606.5,-56 606.5,-56 606.5,-62 606.5,-62 606.5,-65 603.5,-68 600.5,-68"/>
<text text-anchor="middle" x="591" y="-56.8" font-family="Times,serif" font-size="9.00">1 of</text>
</g>
<!-- PHYS102A&#45;&gt;1 of [&#39;PHYS102A&#39;, &#39;PHYS110&#39;, &#39;PHYS120&#39;] -->
<g id="edge11" class="edge">
<title>PHYS102A&#45;&gt;1 of [&#39;PHYS102A&#39;, &#39;PHYS110&#39;, &#39;PHYS120&#39;]</title>
<path fill="none" stroke="black" d="M505.28,-56.21C526.68,-56.92 552.8,-57.78 570.33,-58.35"/>
<polygon fill="black" stroke="black" points="570.42,-60.11 575.48,-58.52 570.54,-56.61 570.42,-60.11"/>
</g>
<!-- 1 of [&#39;PHYS102A&#39;, &#39;PHYS110&#39;, &#39;PHYS112&#39;, &#39;PHYS120&#39;] -->
<g id="node36" class="node">
<title>1 of [&#39;PHYS102A&#39;, &#39;PHYS110&#39;, &#39;PHYS112&#39;, &#39;PHYS120&#39;]</title>
<path fill="#e9dbd0" stroke="#030a10" d="M600.5,-93C600.5,-93 581.5,-93 581.5,-93 578.5,-93 575.5,-90 575.5,-87 575.5,-87 575.5,-81 575.5,-81 575.5,-78 578.5,-75 581.5,-75 581.5,-75 600.5,-75 600.5,-75 603.5,-75 606.5,-78 606.5,-81 606.5,-81 606.5,-87 606.5,-87 606.5,-90 603.5,-93 600.5,-93"/>
<text text-anchor="middle" x="591" y="-81.8" font-family="Times,serif" font-size="9.00">1 of</text>
</g>
<!-- PHYS102A&#45;&gt;1 of [&#39;PHYS102A&#39;, &#39;PHYS110&#39;, &#39;PHYS112&#39;, &#39;PHYS120&#39;] -->
<g id="edge53" class="edge">
<title>PHYS102A&#45;&gt;1 of [&#39;PHYS102A&#39;, &#39;PHYS110&#39;, &#39;PHYS112&#39;, &#39;PHYS120&#39;]</title>
<path fill="none" stroke="black" d="M505.28,-63.78C526.68,-68.89 552.8,-75.12 570.33,-79.3"/>
<polygon fill="black" stroke="black" points="570.21,-81.07 575.48,-80.53 571.02,-77.67 570.21,-81.07"/>
</g>
<!-- PHYS110 -->
<g id="node9" class="node">
<title>PHYS110</title>
<path fill="#82a931" stroke="#030a10" d="M493.5,-93.5C493.5,-93.5 441.5,-93.5 441.5,-93.5 438,-93.5 434.5,-90 434.5,-86.5 434.5,-86.5 434.5,-79.5 434.5,-79.5 434.5,-76 438,-72.5 441.5,-72.5 441.5,-72.5 493.5,-72.5 493.5,-72.5 497,-72.5 500.5,-76 500.5,-79.5 500.5,-79.5 500.5,-86.5 500.5,-86.5 500.5,-90 497,-93.5 493.5,-93.5"/>
<text text-anchor="middle" x="467.5" y="-79.9" font-family="Times,serif" font-size="12.00">PHYS110</text>
</g>
<!-- PHYS111 -->
<g id="node12" class="node">
<title>PHYS111</title>
<path fill="#34af8a" stroke="#030a10" d="M722.5,-159.5C722.5,-159.5 671.5,-159.5 671.5,-159.5 668,-159.5 664.5,-156 664.5,-152.5 664.5,-152.5 664.5,-145.5 664.5,-145.5 664.5,-142 668,-138.5 671.5,-138.5 671.5,-138.5 722.5,-138.5 722.5,-138.5 726,-138.5 729.5,-142 729.5,-145.5 729.5,-145.5 729.5,-152.5 729.5,-152.5 729.5,-156 726,-159.5 722.5,-159.5"/>
<text text-anchor="middle" x="697" y="-145.9" font-family="Times,serif" font-size="12.00">PHYS111</text>
</g>
<!-- PHYS110&#45;&gt;PHYS111 -->
<g id="edge28" class="edge">
<title>PHYS110&#45;&gt;PHYS111</title>
<path fill="none" stroke="black" d="M500.66,-89.95C532.31,-97.05 581.89,-108.87 624,-122 631.8,-124.43 648.59,-130.7 663.99,-136.59"/>
<polygon fill="black" stroke="black" points="663.42,-138.25 668.72,-138.4 664.67,-134.98 663.42,-138.25"/>
</g>
<!-- PHYS110&#45;&gt;1 of [&#39;PHYS102A&#39;, &#39;PHYS110&#39;, &#39;PHYS120&#39;] -->
<g id="edge12" class="edge">
<title>PHYS110&#45;&gt;1 of [&#39;PHYS102A&#39;, &#39;PHYS110&#39;, &#39;PHYS120&#39;]</title>
<path fill="none" stroke="black" d="M500.74,-76.63C522.85,-72.26 551.47,-66.61 570.26,-62.9"/>
<polygon fill="black" stroke="black" points="570.72,-64.59 575.29,-61.91 570.04,-61.16 570.72,-64.59"/>
</g>
<!-- PHYS110&#45;&gt;1 of [&#39;PHYS102A&#39;, &#39;PHYS110&#39;, &#39;PHYS112&#39;, &#39;PHYS120&#39;] -->
<g id="edge54" class="edge">
<title>PHYS110&#45;&gt;1 of [&#39;PHYS102A&#39;, &#39;PHYS110&#39;, &#39;PHYS112&#39;, &#39;PHYS120&#39;]</title>
<path fill="none" stroke="black" d="M500.74,-83.27C522.85,-83.45 551.47,-83.68 570.26,-83.84"/>
<polygon fill="black" stroke="black" points="570.27,-85.59 575.29,-83.88 570.3,-82.09 570.27,-85.59"/>
</g>
<!-- PHYS120 -->
<g id="node10" class="node">
<title>PHYS120</title>
<path fill="#82a931" stroke="#030a10" d="M493.5,-37.5C493.5,-37.5 441.5,-37.5 441.5,-37.5 438,-37.5 434.5,-34 434.5,-30.5 434.5,-30.5 434.5,-23.5 434.5,-23.5 434.5,-20 438,-16.5 441.5,-16.5 441.5,-16.5 493.5,-16.5 493.5,-16.5 497,-16.5 500.5,-20 500.5,-23.5 500.5,-23.5 500.5,-30.5 500.5,-30.5 500.5,-34 497,-37.5 493.5,-37.5"/>
<text text-anchor="middle" x="467.5" y="-23.9" font-family="Times,serif" font-size="12.00">PHYS120</text>
</g>
<!-- PHYS120&#45;&gt;PHYS130 -->
<g id="edge26" class="edge">
<title>PHYS120&#45;&gt;PHYS130</title>
<path fill="none" stroke="black" d="M500.69,-28.28C511.08,-30.16 521.97,-33.88 530,-41 549.77,-58.54 537.34,-73.8 550,-97 557.35,-110.47 568.04,-124.17 576.53,-134.12"/>
<polygon fill="black" stroke="black" points="575.41,-135.51 580.01,-138.15 578.06,-133.22 575.41,-135.51"/>
</g>
<!-- PHYS120&#45;&gt;1 of [&#39;PHYS102A&#39;, &#39;PHYS110&#39;, &#39;PHYS120&#39;] -->
<g id="edge13" class="edge">
<title>PHYS120&#45;&gt;1 of [&#39;PHYS102A&#39;, &#39;PHYS110&#39;, &#39;PHYS120&#39;]</title>
<path fill="none" stroke="black" d="M500.52,-33.86C510.04,-36.01 520.47,-38.49 530,-41 543.62,-44.59 558.81,-49.15 570.5,-52.79"/>
<polygon fill="black" stroke="black" points="569.99,-54.46 575.28,-54.28 571.03,-51.12 569.99,-54.46"/>
</g>
<!-- 1 of [&#39;PHYS102B&#39;, &#39;PHYS111&#39;, &#39;PHYS120&#39;] -->
<g id="node35" class="node">
<title>1 of [&#39;PHYS102B&#39;, &#39;PHYS111&#39;, &#39;PHYS120&#39;]</title>
<path fill="#e9dbd0" stroke="#030a10" d="M808.5,-79C808.5,-79 789.5,-79 789.5,-79 786.5,-79 783.5,-76 783.5,-73 783.5,-73 783.5,-67 783.5,-67 783.5,-64 786.5,-61 789.5,-61 789.5,-61 808.5,-61 808.5,-61 811.5,-61 814.5,-64 814.5,-67 814.5,-67 814.5,-73 814.5,-73 814.5,-76 811.5,-79 808.5,-79"/>
<text text-anchor="middle" x="799" y="-67.8" font-family="Times,serif" font-size="9.00">1 of</text>
</g>
<!-- PHYS120&#45;&gt;1 of [&#39;PHYS102B&#39;, &#39;PHYS111&#39;, &#39;PHYS120&#39;] -->
<g id="edge48" class="edge">
<title>PHYS120&#45;&gt;1 of [&#39;PHYS102B&#39;, &#39;PHYS111&#39;, &#39;PHYS120&#39;]</title>
<path fill="none" stroke="black" d="M500.67,-31.1C532.12,-35.12 581.36,-41.44 624,-47 679.7,-54.26 745.4,-62.99 777.82,-67.31"/>
<polygon fill="black" stroke="black" points="777.92,-69.09 783.11,-68.01 778.38,-65.62 777.92,-69.09"/>
</g>
<!-- PHYS120&#45;&gt;1 of [&#39;PHYS102A&#39;, &#39;PHYS110&#39;, &#39;PHYS112&#39;, &#39;PHYS120&#39;] -->
<g id="edge56" class="edge">
<title>PHYS120&#45;&gt;1 of [&#39;PHYS102A&#39;, &#39;PHYS110&#39;, &#39;PHYS112&#39;, &#39;PHYS120&#39;]</title>
<path fill="none" stroke="black" d="M500.71,-29.64C510.76,-31.65 521.43,-35.1 530,-41 543.2,-50.09 537.23,-61.32 550,-71 555.84,-75.43 563.26,-78.38 570.11,-80.34"/>
<polygon fill="black" stroke="black" points="569.93,-82.1 575.2,-81.65 570.8,-78.71 569.93,-82.1"/>
</g>
<!-- PHYS102B -->
<g id="node11" class="node">
<title>PHYS102B</title>
<path fill="#34af8a" stroke="#030a10" d="M727,-131.5C727,-131.5 667,-131.5 667,-131.5 663.5,-131.5 660,-128 660,-124.5 660,-124.5 660,-117.5 660,-117.5 660,-114 663.5,-110.5 667,-110.5 667,-110.5 727,-110.5 727,-110.5 730.5,-110.5 734,-114 734,-117.5 734,-117.5 734,-124.5 734,-124.5 734,-128 730.5,-131.5 727,-131.5"/>
<text text-anchor="middle" x="697" y="-117.9" font-family="Times,serif" font-size="12.00">PHYS102B</text>
</g>
<!-- PHYS102B&#45;&gt;1 of [&#39;PHYS102B&#39;, &#39;PHYS111&#39;, &#39;PHYS120&#39;] -->
<g id="edge46" class="edge">
<title>PHYS102B&#45;&gt;1 of [&#39;PHYS102B&#39;, &#39;PHYS111&#39;, &#39;PHYS120&#39;]</title>
<path fill="none" stroke="black" d="M718.72,-110.43C736.39,-101.42 761.61,-88.56 778.82,-79.78"/>
<polygon fill="black" stroke="black" points="779.8,-81.25 783.45,-77.42 778.2,-78.13 779.8,-81.25"/>
</g>
<!-- 1 of [&#39;PHYS102B&#39;, &#39;PHYS111&#39;, &#39;PHYS112&#39;, &#39;PHYS130&#39;] -->
<g id="node38" class="node">
<title>1 of [&#39;PHYS102B&#39;, &#39;PHYS111&#39;, &#39;PHYS112&#39;, &#39;PHYS130&#39;]</title>
<path fill="#e9dbd0" stroke="#030a10" d="M808.5,-180C808.5,-180 789.5,-180 789.5,-180 786.5,-180 783.5,-177 783.5,-174 783.5,-174 783.5,-168 783.5,-168 783.5,-165 786.5,-162 789.5,-162 789.5,-162 808.5,-162 808.5,-162 811.5,-162 814.5,-165 814.5,-168 814.5,-168 814.5,-174 814.5,-174 814.5,-177 811.5,-180 808.5,-180"/>
<text text-anchor="middle" x="799" y="-168.8" font-family="Times,serif" font-size="9.00">1 of</text>
</g>
<!-- PHYS102B&#45;&gt;1 of [&#39;PHYS102B&#39;, &#39;PHYS111&#39;, &#39;PHYS112&#39;, &#39;PHYS130&#39;] -->
<g id="edge58" class="edge">
<title>PHYS102B&#45;&gt;1 of [&#39;PHYS102B&#39;, &#39;PHYS111&#39;, &#39;PHYS112&#39;, &#39;PHYS130&#39;]</title>
<path fill="none" stroke="black" d="M731.48,-131.5C735.08,-132.9 738.65,-134.41 742,-136 755.59,-142.46 769.97,-151.49 780.75,-158.77"/>
<polygon fill="black" stroke="black" points="780.02,-160.39 785.14,-161.76 781.99,-157.5 780.02,-160.39"/>
</g>
<!-- PHYS111&#45;&gt;1 of [&#39;PHYS102B&#39;, &#39;PHYS111&#39;, &#39;PHYS120&#39;] -->
<g id="edge47" class="edge">
<title>PHYS111&#45;&gt;1 of [&#39;PHYS102B&#39;, &#39;PHYS111&#39;, &#39;PHYS120&#39;]</title>
<path fill="none" stroke="black" d="M729.75,-141.25C734.04,-139.54 738.25,-137.47 742,-135 762.5,-121.46 779.83,-98.38 789.56,-83.68"/>
<polygon fill="black" stroke="black" points="791.08,-84.55 792.34,-79.41 788.15,-82.65 791.08,-84.55"/>
</g>
<!-- PHYS111&#45;&gt;1 of [&#39;PHYS102B&#39;, &#39;PHYS111&#39;, &#39;PHYS112&#39;, &#39;PHYS130&#39;] -->
<g id="edge59" class="edge">
<title>PHYS111&#45;&gt;1 of [&#39;PHYS102B&#39;, &#39;PHYS111&#39;, &#39;PHYS112&#39;, &#39;PHYS130&#39;]</title>
<path fill="none" stroke="black" d="M729.64,-155.96C745.5,-159.45 764.23,-163.57 778.06,-166.61"/>
<polygon fill="black" stroke="black" points="778.04,-168.4 783.3,-167.77 778.79,-164.98 778.04,-168.4"/>
</g>
<!-- PHYS130&#45;&gt;1 of [&#39;PHYS102B&#39;, &#39;PHYS111&#39;, &#39;PHYS112&#39;, &#39;PHYS130&#39;] -->
<g id="edge61" class="edge">
<title>PHYS130&#45;&gt;1 of [&#39;PHYS102B&#39;, &#39;PHYS111&#39;, &#39;PHYS112&#39;, &#39;PHYS130&#39;]</title>
<path fill="none" stroke="black" d="M624.01,-156.59C635.32,-159 648.17,-161.45 660,-163 701.94,-168.5 751.54,-170.22 778.38,-170.76"/>
<polygon fill="black" stroke="black" points="778.4,-172.51 783.43,-170.85 778.46,-169.01 778.4,-172.51"/>
</g>
<!-- 1 of [&#39;EOS201&#39;, &#39;EOS240&#39;] -->
<g id="node39" class="node">
<title>1 of [&#39;EOS201&#39;, &#39;EOS240&#39;]</title>
<path fill="#e9dbd0" stroke="#030a10" d="M808.5,-396C808.5,-396 789.5,-396 789.5,-396 786.5,-396 783.5,-393 783.5,-390 783.5,-390 783.5,-384 783.5,-384 783.5,-381 786.5,-378 789.5,-378 789.5,-378 808.5,-378 808.5,-378 811.5,-378 814.5,-381 814.5,-384 814.5,-384 814.5,-390 814.5,-390 814.5,-393 811.5,-396 808.5,-396"/>
<text text-anchor="middle" x="799" y="-384.8" font-family="Times,serif" font-size="9.00">1 of</text>
</g>
<!-- EOS201&#45;&gt;1 of [&#39;EOS201&#39;, &#39;EOS240&#39;] -->
<g id="edge63" class="edge">
<title>EOS201&#45;&gt;1 of [&#39;EOS201&#39;, &#39;EOS240&#39;]</title>
<path fill="none" stroke="black" d="M726.12,-387.72C742.69,-387.55 763.25,-387.35 778.13,-387.2"/>
<polygon fill="black" stroke="black" points="778.35,-388.95 783.34,-387.15 778.32,-385.45 778.35,-388.95"/>
</g>
<!-- EOS410 -->
<g id="node28" class="node">
<title>EOS410</title>
<path fill="#8197f4" stroke="#030a10" d="M719,-304.5C719,-304.5 675,-304.5 675,-304.5 671.5,-304.5 668,-301 668,-297.5 668,-297.5 668,-290.5 668,-290.5 668,-287 671.5,-283.5 675,-283.5 675,-283.5 719,-283.5 719,-283.5 722.5,-283.5 726,-287 726,-290.5 726,-290.5 726,-297.5 726,-297.5 726,-301 722.5,-304.5 719,-304.5"/>
<text text-anchor="middle" x="697" y="-290.9" font-family="Times,serif" font-size="12.00">EOS410</text>
</g>
<!-- EOS202&#45;&gt;EOS410 -->
<g id="edge35" class="edge">
<title>EOS202&#45;&gt;EOS410</title>
<path fill="none" stroke="black" d="M604.38,-349.22C617.53,-338.13 639.24,-320.86 660,-309 661.27,-308.28 662.58,-307.57 663.91,-306.88"/>
<polygon fill="black" stroke="black" points="664.82,-308.38 668.53,-304.6 663.27,-305.24 664.82,-308.38"/>
</g>
<!-- EOS205&#45;&gt;EOS201 -->
<g id="edge2" class="edge">
<title>EOS205&#45;&gt;EOS201</title>
<path fill="none" stroke="black" d="M620.14,-388C633.21,-388 648.84,-388 662.5,-388"/>
<polygon fill="black" stroke="black" points="662.83,-389.75 667.83,-388 662.83,-386.25 662.83,-389.75"/>
</g>
<!-- EOS205&#45;&gt;EOS240 -->
<g id="edge31" class="edge">
<title>EOS205&#45;&gt;EOS240</title>
<path fill="none" stroke="black" d="M620.14,-380.42C633.32,-376.87 649.11,-372.62 662.87,-368.92"/>
<polygon fill="black" stroke="black" points="663.46,-370.57 667.83,-367.58 662.55,-367.19 663.46,-370.57"/>
</g>
<!-- EOS316 -->
<g id="node26" class="node">
<title>EOS316</title>
<path fill="#8197f4" stroke="#030a10" d="M719,-332.5C719,-332.5 675,-332.5 675,-332.5 671.5,-332.5 668,-329 668,-325.5 668,-325.5 668,-318.5 668,-318.5 668,-315 671.5,-311.5 675,-311.5 675,-311.5 719,-311.5 719,-311.5 722.5,-311.5 726,-315 726,-318.5 726,-318.5 726,-325.5 726,-325.5 726,-329 722.5,-332.5 719,-332.5"/>
<text text-anchor="middle" x="697" y="-318.9" font-family="Times,serif" font-size="12.00">EOS316</text>
</g>
<!-- EOS205&#45;&gt;EOS316 -->
<g id="edge33" class="edge">
<title>EOS205&#45;&gt;EOS316</title>
<path fill="none" stroke="black" d="M618.25,-377.42C620.24,-376.35 622.18,-375.2 624,-374 642.35,-361.85 641.96,-352.61 660,-340 662.36,-338.35 664.9,-336.76 667.49,-335.26"/>
<polygon fill="black" stroke="black" points="668.66,-336.61 672.19,-332.66 666.97,-333.55 668.66,-336.61"/>
</g>
<!-- EOS335 -->
<g id="node27" class="node">
<title>EOS335</title>
<path fill="#8197f4" stroke="#030a10" d="M821,-370.5C821,-370.5 777,-370.5 777,-370.5 773.5,-370.5 770,-367 770,-363.5 770,-363.5 770,-356.5 770,-356.5 770,-353 773.5,-349.5 777,-349.5 777,-349.5 821,-349.5 821,-349.5 824.5,-349.5 828,-353 828,-356.5 828,-356.5 828,-363.5 828,-363.5 828,-367 824.5,-370.5 821,-370.5"/>
<text text-anchor="middle" x="799" y="-356.9" font-family="Times,serif" font-size="12.00">EOS335</text>
</g>
<!-- EOS240&#45;&gt;EOS335 -->
<g id="edge34" class="edge">
<title>EOS240&#45;&gt;EOS335</title>
<path fill="none" stroke="black" d="M726.12,-360C738.05,-360 752.05,-360 764.51,-360"/>
<polygon fill="black" stroke="black" points="764.74,-361.75 769.74,-360 764.74,-358.25 764.74,-361.75"/>
</g>
<!-- EOS240&#45;&gt;1 of [&#39;EOS201&#39;, &#39;EOS240&#39;] -->
<g id="edge64" class="edge">
<title>EOS240&#45;&gt;1 of [&#39;EOS201&#39;, &#39;EOS240&#39;]</title>
<path fill="none" stroke="black" d="M726.12,-367.59C742.69,-372.07 763.25,-377.62 778.13,-381.63"/>
<polygon fill="black" stroke="black" points="778.05,-383.43 783.34,-383.04 778.97,-380.05 778.05,-383.43"/>
</g>
<!-- EOS300+ -->
<g id="node18" class="node">
<title>EOS300+</title>
<path fill="#8197f4" stroke="#030a10" d="M108,-330.5C108,-330.5 57,-330.5 57,-330.5 53.5,-330.5 50,-327 50,-323.5 50,-323.5 50,-316.5 50,-316.5 50,-313 53.5,-309.5 57,-309.5 57,-309.5 108,-309.5 108,-309.5 111.5,-309.5 115,-313 115,-316.5 115,-316.5 115,-323.5 115,-323.5 115,-327 111.5,-330.5 108,-330.5"/>
<text text-anchor="middle" x="82.5" y="-316.9" font-family="Times,serif" font-size="12.00">EOS300+</text>
</g>
<!-- 1 of [&#39;MATH100&#39;, &#39;MATH109&#39;]&#45;&gt;MATH101 -->
<g id="edge3" class="edge">
<title>1 of [&#39;MATH100&#39;, &#39;MATH109&#39;]&#45;&gt;MATH101</title>
<path fill="none" stroke="black" d="M373.95,-178.28C387.76,-178.54 408.9,-178.93 427.49,-179.27"/>
<polygon fill="black" stroke="black" points="427.63,-181.03 432.66,-179.37 427.69,-177.53 427.63,-181.03"/>
</g>
<!-- 1 of [&#39;MATH100&#39;, &#39;MATH109&#39;]&#45;&gt;PHYS120 -->
<g id="edge21" class="edge">
<title>1 of [&#39;MATH100&#39;, &#39;MATH109&#39;]&#45;&gt;PHYS120</title>
<path fill="none" stroke="black" d="M359.18,-168.69C360.18,-143.91 366.48,-75.84 405,-41 411.71,-34.93 420.51,-31.32 429.34,-29.21"/>
<polygon fill="black" stroke="black" points="429.69,-30.92 434.23,-28.19 428.98,-27.5 429.69,-30.92"/>
</g>
<!-- 1 of [&#39;MATH100&#39;, &#39;MATH102&#39;, &#39;MATH109&#39;]&#45;&gt;CHEM102 -->
<g id="edge15" class="edge">
<title>1 of [&#39;MATH100&#39;, &#39;MATH102&#39;, &#39;MATH109&#39;]&#45;&gt;CHEM102</title>
<path fill="none" stroke="black" d="M368.17,-227.21C386.88,-246.01 429.63,-288.96 452.1,-311.53"/>
<polygon fill="black" stroke="black" points="451.02,-312.92 455.78,-315.23 453.5,-310.46 451.02,-312.92"/>
</g>
<!-- 1 of [&#39;MATH100&#39;, &#39;MATH102&#39;, &#39;MATH109&#39;]&#45;&gt;PHYS110 -->
<g id="edge6" class="edge">
<title>1 of [&#39;MATH100&#39;, &#39;MATH102&#39;, &#39;MATH109&#39;]&#45;&gt;PHYS110</title>
<path fill="none" stroke="black" d="M365.71,-208.73C369.27,-203.62 373.59,-197.1 377,-191 391.54,-164.95 386.38,-153.3 405,-130 415.69,-116.63 430.96,-104.93 443.61,-96.55"/>
<polygon fill="black" stroke="black" points="444.9,-97.8 448.14,-93.61 443,-94.86 444.9,-97.8"/>
</g>
<!-- 1 of [&#39;MATH100&#39;, &#39;MATH102&#39;, &#39;MATH109&#39;]&#45;&gt;PHYS111 -->
<g id="edge29" class="edge">
<title>1 of [&#39;MATH100&#39;, &#39;MATH102&#39;, &#39;MATH109&#39;]&#45;&gt;PHYS111</title>
<path fill="none" stroke="black" d="M365.88,-208.76C376.15,-195.25 395.31,-171.13 405,-166 454.5,-139.79 478.1,-171.06 530,-150 540.3,-145.82 539.46,-138.51 550,-135 581.2,-124.6 591.26,-131.85 624,-135 635.54,-136.11 647.98,-138.2 659.22,-140.44"/>
<polygon fill="black" stroke="black" points="659.04,-142.19 664.29,-141.47 659.74,-138.76 659.04,-142.19"/>
</g>
<!-- MATH102 -->
<g id="node21" class="node">
<title>MATH102</title>
<path fill="white" stroke="#030a10" stroke-opacity="0.125490" d="M262.33,-276C262.33,-276 233.67,-276 233.67,-276 231.33,-276 229,-273.67 229,-271.33 229,-271.33 229,-266.67 229,-266.67 229,-264.33 231.33,-262 233.67,-262 233.67,-262 262.33,-262 262.33,-262 264.67,-262 267,-264.33 267,-266.67 267,-266.67 267,-271.33 267,-271.33 267,-273.67 264.67,-276 262.33,-276"/>
<text text-anchor="middle" x="248" y="-268" font-family="Times,serif" font-size="5.00">MATH102</text>
</g>
<!-- MATH102&#45;&gt;1 of [&#39;MATH100&#39;, &#39;MATH102&#39;, &#39;MATH109&#39;] -->
<g id="edge8" class="edge">
<title>MATH102&#45;&gt;1 of [&#39;MATH100&#39;, &#39;MATH102&#39;, &#39;MATH109&#39;]</title>
<path fill="none" stroke="black" d="M267.08,-267.12C279.85,-265.27 297.09,-261.72 311,-255 323.53,-248.95 335.71,-238.91 344.39,-230.81"/>
<polygon fill="black" stroke="black" points="345.95,-231.74 348.35,-227.02 343.53,-229.21 345.95,-231.74"/>
</g>
<!-- MATH102&#45;&gt;2 of [&#39;MATH100&#39;, &#39;MATH101&#39;, &#39;MATH102&#39;, &#39;MATH109&#39;, &#39;MATH151&#39;] -->
<g id="edge41" class="edge">
<title>MATH102&#45;&gt;2 of [&#39;MATH100&#39;, &#39;MATH101&#39;, &#39;MATH102&#39;, &#39;MATH109&#39;, &#39;MATH151&#39;]</title>
<path fill="none" stroke="black" d="M267.17,-267.48C311.99,-263.59 431.4,-252.43 530,-236 543.49,-233.75 558.54,-230.49 570.19,-227.8"/>
<polygon fill="black" stroke="black" points="570.81,-229.45 575.28,-226.6 570.01,-226.04 570.81,-229.45"/>
</g>
<!-- 1 of [&#39;PHYS102A&#39;, &#39;PHYS110&#39;, &#39;PHYS120&#39;]&#45;&gt;PHYS102B -->
<g id="edge10" class="edge">
<title>1 of [&#39;PHYS102A&#39;, &#39;PHYS110&#39;, &#39;PHYS120&#39;]&#45;&gt;PHYS102B</title>
<path fill="none" stroke="black" d="M606.63,-64.19C612.19,-66.36 618.5,-69.06 624,-72 643.33,-82.35 663.86,-96.7 678.03,-107.19"/>
<polygon fill="black" stroke="black" points="677.16,-108.73 682.22,-110.31 679.26,-105.92 677.16,-108.73"/>
</g>
<!-- EOS314 -->
<g id="node30" class="node">
<title>EOS314</title>
<path fill="#8197f4" stroke="#030a10" d="M915,-80.5C915,-80.5 871,-80.5 871,-80.5 867.5,-80.5 864,-77 864,-73.5 864,-73.5 864,-66.5 864,-66.5 864,-63 867.5,-59.5 871,-59.5 871,-59.5 915,-59.5 915,-59.5 918.5,-59.5 922,-63 922,-66.5 922,-66.5 922,-73.5 922,-73.5 922,-77 918.5,-80.5 915,-80.5"/>
<text text-anchor="middle" x="893" y="-66.9" font-family="Times,serif" font-size="12.00">EOS314</text>
</g>
<!-- 1 of [&#39;PHYS102A&#39;, &#39;PHYS110&#39;, &#39;PHYS120&#39;]&#45;&gt;EOS314 -->
<g id="edge44" class="edge">
<title>1 of [&#39;PHYS102A&#39;, &#39;PHYS110&#39;, &#39;PHYS120&#39;]&#45;&gt;EOS314</title>
<path fill="none" stroke="black" d="M606.68,-57.95C643.83,-55.52 744.57,-50.25 828,-58 838.06,-58.94 848.91,-60.68 858.75,-62.56"/>
<polygon fill="black" stroke="black" points="858.56,-64.3 863.8,-63.55 859.23,-60.87 858.56,-64.3"/>
</g>
<!-- MATH120 -->
<g id="node23" class="node">
<title>MATH120</title>
<path fill="white" stroke="#030a10" stroke-opacity="0.125490" d="M96.83,-219C96.83,-219 68.17,-219 68.17,-219 65.83,-219 63.5,-216.67 63.5,-214.33 63.5,-214.33 63.5,-209.67 63.5,-209.67 63.5,-207.33 65.83,-205 68.17,-205 68.17,-205 96.83,-205 96.83,-205 99.17,-205 101.5,-207.33 101.5,-209.67 101.5,-209.67 101.5,-214.33 101.5,-214.33 101.5,-216.67 99.17,-219 96.83,-219"/>
<text text-anchor="middle" x="82.5" y="-211" font-family="Times,serif" font-size="5.00">MATH120</text>
</g>
<!-- MATH120&#45;&gt;CHEM101 -->
<g id="edge25" class="edge">
<title>MATH120&#45;&gt;CHEM101</title>
<path fill="none" stroke="black" d="M92.62,-219.14C109.94,-232.44 149.12,-261.39 185.5,-280 193.06,-283.87 201.44,-287.44 209.5,-290.55"/>
<polygon fill="black" stroke="black" points="209.18,-292.3 214.48,-292.42 210.42,-289.02 209.18,-292.3"/>
</g>
<!-- MATH120&#45;&gt;MATH100 -->
<g id="edge14" class="edge">
<title>MATH120&#45;&gt;MATH100</title>
<path fill="none" stroke="black" d="M101.62,-212C127.19,-212 174.5,-212 208.2,-212"/>
<polygon fill="black" stroke="black" points="208.49,-213.75 213.49,-212 208.49,-210.25 208.49,-213.75"/>
</g>
<!-- MATH120&#45;&gt;MATH109 -->
<g id="edge20" class="edge">
<title>MATH120&#45;&gt;MATH109</title>
<path fill="none" stroke="black" d="M101.62,-208.9C127.19,-204.52 174.5,-196.42 208.2,-190.64"/>
<polygon fill="black" stroke="black" points="208.86,-192.31 213.49,-189.74 208.26,-188.86 208.86,-192.31"/>
</g>
<!-- CHEM091 -->
<g id="node24" class="node">
<title>CHEM091</title>
<path fill="white" stroke="#030a10" stroke-opacity="0.125490" d="M372.33,-345C372.33,-345 343.67,-345 343.67,-345 341.33,-345 339,-342.67 339,-340.33 339,-340.33 339,-335.67 339,-335.67 339,-333.33 341.33,-331 343.67,-331 343.67,-331 372.33,-331 372.33,-331 374.67,-331 377,-333.33 377,-335.67 377,-335.67 377,-340.33 377,-340.33 377,-342.67 374.67,-345 372.33,-345"/>
<text text-anchor="middle" x="358" y="-337" font-family="Times,serif" font-size="5.00">CHEM091</text>
</g>
<!-- CHEM091&#45;&gt;CHEM102 -->
<g id="edge16" class="edge">
<title>CHEM091&#45;&gt;CHEM102</title>
<path fill="none" stroke="black" d="M377.24,-335.96C390.81,-334.45 409.85,-332.32 426.86,-330.43"/>
<polygon fill="black" stroke="black" points="427.29,-332.14 432.06,-329.84 426.9,-328.66 427.29,-332.14"/>
</g>
<!-- 1 of [&#39;CHEM101&#39;, &#39;CHEM150&#39;]&#45;&gt;CHEM102 -->
<g id="edge17" class="edge">
<title>1 of [&#39;CHEM101&#39;, &#39;CHEM150&#39;]&#45;&gt;CHEM102</title>
<path fill="none" stroke="black" d="M373.95,-316.53C387.66,-317.93 408.58,-320.07 427.07,-321.97"/>
<polygon fill="black" stroke="black" points="427.06,-323.72 432.21,-322.49 427.41,-320.24 427.06,-323.72"/>
</g>
<!-- 1 of [&#39;CHEM101&#39;, &#39;CHEM150&#39;]&#45;&gt;EOS313 -->
<g id="edge37" class="edge">
<title>1 of [&#39;CHEM101&#39;, &#39;CHEM150&#39;]&#45;&gt;EOS313</title>
<path fill="none" stroke="black" d="M373.58,-324.13C374.85,-325.32 376.02,-326.61 377,-328 402.63,-364.31 371.31,-395.01 405,-424 447.08,-460.22 515.68,-459.16 556.47,-454.49"/>
<polygon fill="black" stroke="black" points="557.04,-456.19 561.79,-453.85 556.62,-452.71 557.04,-456.19"/>
</g>
<!-- 1 of [&#39;CHEM101&#39;, &#39;CHEM150&#39;]&#45;&gt;EOS311 -->
<g id="edge49" class="edge">
<title>1 of [&#39;CHEM101&#39;, &#39;CHEM150&#39;]&#45;&gt;EOS311</title>
<path fill="none" stroke="black" d="M373.53,-312.76C444.58,-301.83 756.06,-253.91 858.91,-238.09"/>
<polygon fill="black" stroke="black" points="859.26,-239.81 863.94,-237.32 858.73,-236.35 859.26,-239.81"/>
</g>
<!-- EOS450 -->
<g id="node32" class="node">
<title>EOS450</title>
<path fill="#8197f4" stroke="#030a10" d="M915,-397.5C915,-397.5 871,-397.5 871,-397.5 867.5,-397.5 864,-394 864,-390.5 864,-390.5 864,-383.5 864,-383.5 864,-380 867.5,-376.5 871,-376.5 871,-376.5 915,-376.5 915,-376.5 918.5,-376.5 922,-380 922,-383.5 922,-383.5 922,-390.5 922,-390.5 922,-394 918.5,-397.5 915,-397.5"/>
<text text-anchor="middle" x="893" y="-383.9" font-family="Times,serif" font-size="12.00">EOS450</text>
</g>
<!-- 2 of [&#39;MATH100&#39;, &#39;MATH101&#39;, &#39;MATH102&#39;, &#39;MATH109&#39;, &#39;MATH151&#39;]&#45;&gt;EOS314 -->
<g id="edge38" class="edge">
<title>2 of [&#39;MATH100&#39;, &#39;MATH101&#39;, &#39;MATH102&#39;, &#39;MATH109&#39;, &#39;MATH151&#39;]&#45;&gt;EOS314</title>
<path fill="none" stroke="black" d="M606.71,-222.27C652.59,-219.72 792.19,-209.96 828,-184 861.97,-159.38 880.25,-110.87 887.79,-85.82"/>
<polygon fill="black" stroke="black" points="889.52,-86.13 889.24,-80.84 886.16,-85.15 889.52,-86.13"/>
</g>
<!-- 2 of [&#39;MATH100&#39;, &#39;MATH101&#39;, &#39;MATH102&#39;, &#39;MATH109&#39;, &#39;MATH151&#39;]&#45;&gt;EOS311 -->
<g id="edge51" class="edge">
<title>2 of [&#39;MATH100&#39;, &#39;MATH101&#39;, &#39;MATH102&#39;, &#39;MATH109&#39;, &#39;MATH151&#39;]&#45;&gt;EOS311</title>
<path fill="none" stroke="black" d="M606.88,-223.5C652.88,-225.03 793.61,-229.72 858.53,-231.88"/>
<polygon fill="black" stroke="black" points="858.77,-233.64 863.83,-232.06 858.89,-230.15 858.77,-233.64"/>
</g>
<!-- MATH151 -->
<g id="node34" class="node">
<title>MATH151</title>
<path fill="white" stroke="#030a10" stroke-opacity="0.125490" d="M481.83,-212C481.83,-212 453.17,-212 453.17,-212 450.83,-212 448.5,-209.67 448.5,-207.33 448.5,-207.33 448.5,-202.67 448.5,-202.67 448.5,-200.33 450.83,-198 453.17,-198 453.17,-198 481.83,-198 481.83,-198 484.17,-198 486.5,-200.33 486.5,-202.67 486.5,-202.67 486.5,-207.33 486.5,-207.33 486.5,-209.67 484.17,-212 481.83,-212"/>
<text text-anchor="middle" x="467.5" y="-204" font-family="Times,serif" font-size="5.00">MATH151</text>
</g>
<!-- MATH151&#45;&gt;2 of [&#39;MATH100&#39;, &#39;MATH101&#39;, &#39;MATH102&#39;, &#39;MATH109&#39;, &#39;MATH151&#39;] -->
<g id="edge43" class="edge">
<title>MATH151&#45;&gt;2 of [&#39;MATH100&#39;, &#39;MATH101&#39;, &#39;MATH102&#39;, &#39;MATH109&#39;, &#39;MATH151&#39;]</title>
<path fill="none" stroke="black" d="M486.69,-207.69C509.22,-211.03 547.43,-216.69 570.53,-220.12"/>
<polygon fill="black" stroke="black" points="570.3,-221.85 575.5,-220.85 570.81,-218.39 570.3,-221.85"/>
</g>
<!-- 1 of [&#39;PHYS102B&#39;, &#39;PHYS111&#39;, &#39;PHYS120&#39;]&#45;&gt;EOS314 -->
<g id="edge45" class="edge">
<title>1 of [&#39;PHYS102B&#39;, &#39;PHYS111&#39;, &#39;PHYS120&#39;]&#45;&gt;EOS314</title>
<path fill="none" stroke="black" d="M814.78,-70C826.65,-70 843.76,-70 858.86,-70"/>
<polygon fill="black" stroke="black" points="858.89,-71.75 863.89,-70 858.89,-68.25 858.89,-71.75"/>
</g>
<!-- 1 of [&#39;PHYS102A&#39;, &#39;PHYS110&#39;, &#39;PHYS112&#39;, &#39;PHYS120&#39;]&#45;&gt;EOS311 -->
<g id="edge52" class="edge">
<title>1 of [&#39;PHYS102A&#39;, &#39;PHYS110&#39;, &#39;PHYS112&#39;, &#39;PHYS120&#39;]&#45;&gt;EOS311</title>
<path fill="none" stroke="black" d="M606.58,-83.39C634.02,-82.74 694.78,-83.6 742,-101 805.6,-124.44 859.5,-188.99 881.45,-218.25"/>
<polygon fill="black" stroke="black" points="880.07,-219.33 884.46,-222.3 882.88,-217.24 880.07,-219.33"/>
</g>
<!-- PHYS112 -->
<g id="node37" class="node">
<title>PHYS112</title>
<path fill="white" stroke="#030a10" stroke-opacity="0.125490" d="M481.33,-147C481.33,-147 453.67,-147 453.67,-147 451.33,-147 449,-144.67 449,-142.33 449,-142.33 449,-137.67 449,-137.67 449,-135.33 451.33,-133 453.67,-133 453.67,-133 481.33,-133 481.33,-133 483.67,-133 486,-135.33 486,-137.67 486,-137.67 486,-142.33 486,-142.33 486,-144.67 483.67,-147 481.33,-147"/>
<text text-anchor="middle" x="467.5" y="-139" font-family="Times,serif" font-size="5.00">PHYS112</text>
</g>
<!-- PHYS112&#45;&gt;1 of [&#39;PHYS102A&#39;, &#39;PHYS110&#39;, &#39;PHYS112&#39;, &#39;PHYS120&#39;] -->
<g id="edge55" class="edge">
<title>PHYS112&#45;&gt;1 of [&#39;PHYS102A&#39;, &#39;PHYS110&#39;, &#39;PHYS112&#39;, &#39;PHYS120&#39;]</title>
<path fill="none" stroke="black" d="M486.11,-139.09C499.1,-137.71 516.73,-134.32 530,-126 542.06,-118.44 538.66,-109.6 550,-101 556.04,-96.42 563.49,-92.82 570.32,-90.13"/>
<polygon fill="black" stroke="black" points="571.31,-91.63 575.39,-88.25 570.09,-88.35 571.31,-91.63"/>
</g>
<!-- PHYS112&#45;&gt;1 of [&#39;PHYS102B&#39;, &#39;PHYS111&#39;, &#39;PHYS112&#39;, &#39;PHYS130&#39;] -->
<g id="edge60" class="edge">
<title>PHYS112&#45;&gt;1 of [&#39;PHYS102B&#39;, &#39;PHYS111&#39;, &#39;PHYS112&#39;, &#39;PHYS130&#39;]</title>
<path fill="none" stroke="black" d="M486.2,-144.8C499.23,-148.94 516.88,-155.87 530,-166 541.54,-174.91 536.92,-185.56 550,-192 588.28,-210.85 700.02,-199.61 742,-192 754.58,-189.72 768.02,-184.77 778.57,-180.25"/>
<polygon fill="black" stroke="black" points="779.33,-181.83 783.21,-178.22 777.92,-178.63 779.33,-181.83"/>
</g>
<!-- 1 of [&#39;PHYS102B&#39;, &#39;PHYS111&#39;, &#39;PHYS112&#39;, &#39;PHYS130&#39;]&#45;&gt;EOS311 -->
<g id="edge57" class="edge">
<title>1 of [&#39;PHYS102B&#39;, &#39;PHYS111&#39;, &#39;PHYS112&#39;, &#39;PHYS130&#39;]&#45;&gt;EOS311</title>
<path fill="none" stroke="black" d="M813.57,-180.15C828.97,-190.52 854.21,-207.53 871.89,-219.45"/>
<polygon fill="black" stroke="black" points="871.08,-221.01 876.21,-222.36 873.04,-218.11 871.08,-221.01"/>
</g>
<!-- 1 of [&#39;EOS201&#39;, &#39;EOS240&#39;]&#45;&gt;EOS450 -->
<g id="edge62" class="edge">
<title>1 of [&#39;EOS201&#39;, &#39;EOS240&#39;]&#45;&gt;EOS450</title>
<path fill="none" stroke="black" d="M814.78,-387C826.65,-387 843.76,-387 858.86,-387"/>
<polygon fill="black" stroke="black" points="858.89,-388.75 863.89,-387 858.89,-385.25 858.89,-388.75"/>
</g>
</g>
</svg>
