<?xml version="1.0" encoding="UTF-8" standalone="no"?>
<!DOCTYPE svg PUBLIC "-//W3C//DTD SVG 1.1//EN"
 "http://www.w3.org/Graphics/SVG/1.1/DTD/svg11.dtd">
<!-- Generated by graphviz version 2.43.0 (0)
 -->
<!-- Title: unix Pages: 1 -->
<svg width="758pt" height="323pt"
 viewBox="0.00 0.00 758.00 323.00" xmlns="http://www.w3.org/2000/svg" xmlns:xlink="http://www.w3.org/1999/xlink">
<g id="graph0" class="graph" transform="scale(1 1) rotate(0) translate(4 319)">
<title>unix</title>
<polygon fill="white" stroke="transparent" points="-4,4 -4,-319 754,-319 754,4 -4,4"/>
<text text-anchor="middle" x="375" y="-299.8" font-family="Times,serif" font-size="14.00">Earth Sciences (Minor) PROPOSED CHANGES</text>
<text text-anchor="middle" x="375" y="-284.8" font-family="Times,serif" font-size="14.00">Using options: [&#39;EOS202&#39;, &#39;EOS205&#39;, &#39;EOS201&#39;]</text>
<g id="clust1" class="cluster">
<title>cluster_Required.1</title>
<polygon fill="none" stroke="black" points="186,-180 186,-269 311,-269 311,-180 186,-180"/>
<text text-anchor="middle" x="248.5" y="-253.8" font-family="Times,serif" font-size="14.00">Program requires: 1</text>
</g>
<g id="clust2" class="cluster">
<title>cluster_Required.2</title>
<polygon fill="none" stroke="black" points="185.5,-61 185.5,-150 310.5,-150 310.5,-61 185.5,-61"/>
<text text-anchor="middle" x="248" y="-134.8" font-family="Times,serif" font-size="14.00">Program requires: 1</text>
</g>
<g id="clust3" class="cluster">
<title>cluster_Required.3</title>
<polygon fill="none" stroke="black" points="405,-61 405,-178 530,-178 530,-61 405,-61"/>
<text text-anchor="middle" x="467.5" y="-162.8" font-family="Times,serif" font-size="14.00">Program requires: 1</text>
</g>
<g id="clust4" class="cluster">
<title>cluster_Required.4</title>
<polygon fill="none" stroke="black" points="550,-8 550,-97 742,-97 742,-8 550,-8"/>
<text text-anchor="middle" x="646" y="-81.8" font-family="Times,serif" font-size="14.00">Program requires: 1</text>
</g>
<g id="clust5" class="cluster">
<title>cluster_Required.5</title>
<polygon fill="none" stroke="black" points="554,-178 554,-267 734,-267 734,-178 554,-178"/>
<text text-anchor="middle" x="644" y="-251.8" font-family="Times,serif" font-size="14.00">Program requires: 3</text>
</g>
<g id="clust6" class="cluster">
<title>cluster_Required.6</title>
<polygon fill="none" stroke="black" points="0,-165 0,-226 166,-226 166,-165 0,-165"/>
<text text-anchor="middle" x="83" y="-210.8" font-family="Times,serif" font-size="14.00">Program requires: 4.5 units</text>
</g>
<!-- EOS120 -->
<g id="node1" class="node">
<title>EOS120</title>
<path fill="#9fa7be" stroke="#030a10" d="M489.5,-207.5C489.5,-207.5 445.5,-207.5 445.5,-207.5 442,-207.5 438.5,-204 438.5,-200.5 438.5,-200.5 438.5,-193.5 438.5,-193.5 438.5,-190 442,-186.5 445.5,-186.5 445.5,-186.5 489.5,-186.5 489.5,-186.5 493,-186.5 496.5,-190 496.5,-193.5 496.5,-193.5 496.5,-200.5 496.5,-200.5 496.5,-204 493,-207.5 489.5,-207.5"/>
<text text-anchor="middle" x="467.5" y="-193.9" font-family="Times,serif" font-size="12.00">EOS120</text>
</g>
<!-- EOS201 -->
<g id="node14" class="node">
<title>EOS201</title>
<path fill="#37aabb" stroke="#030a10" d="M719,-207.5C719,-207.5 675,-207.5 675,-207.5 671.5,-207.5 668,-204 668,-200.5 668,-200.5 668,-193.5 668,-193.5 668,-190 671.5,-186.5 675,-186.5 675,-186.5 719,-186.5 719,-186.5 722.5,-186.5 726,-190 726,-193.5 726,-193.5 726,-200.5 726,-200.5 726,-204 722.5,-207.5 719,-207.5"/>
<text text-anchor="middle" x="697" y="-193.9" font-family="Times,serif" font-size="12.00">EOS201</text>
</g>
<!-- EOS120&#45;&gt;EOS201 -->
<g id="edge1" class="edge">
<title>EOS120&#45;&gt;EOS201</title>
<path fill="none" stroke="black" d="M496.63,-189.65C507.2,-186.66 519.25,-182.97 530,-179 539.14,-175.62 540.47,-172.05 550,-170 582.16,-163.1 591.64,-164.13 624,-170 639.56,-172.82 656.14,-178.81 669.46,-184.44"/>
<polygon fill="black" stroke="black" points="668.92,-186.11 674.21,-186.48 670.31,-182.9 668.92,-186.11"/>
</g>
<!-- EOS202 -->
<g id="node15" class="node">
<title>EOS202</title>
<path fill="#37aabb" stroke="#030a10" d="M613,-207.5C613,-207.5 569,-207.5 569,-207.5 565.5,-207.5 562,-204 562,-200.5 562,-200.5 562,-193.5 562,-193.5 562,-190 565.5,-186.5 569,-186.5 569,-186.5 613,-186.5 613,-186.5 616.5,-186.5 620,-190 620,-193.5 620,-193.5 620,-200.5 620,-200.5 620,-204 616.5,-207.5 613,-207.5"/>
<text text-anchor="middle" x="591" y="-193.9" font-family="Times,serif" font-size="12.00">EOS202</text>
</g>
<!-- EOS120&#45;&gt;EOS202 -->
<g id="edge24" class="edge">
<title>EOS120&#45;&gt;EOS202</title>
<path fill="none" stroke="black" d="M496.68,-197C514.62,-197 537.94,-197 556.79,-197"/>
<polygon fill="black" stroke="black" points="556.97,-198.75 561.97,-197 556.97,-195.25 556.97,-198.75"/>
</g>
<!-- EOS205 -->
<g id="node16" class="node">
<title>EOS205</title>
<path fill="#37aabb" stroke="#030a10" d="M613,-235.5C613,-235.5 569,-235.5 569,-235.5 565.5,-235.5 562,-232 562,-228.5 562,-228.5 562,-221.5 562,-221.5 562,-218 565.5,-214.5 569,-214.5 569,-214.5 613,-214.5 613,-214.5 616.5,-214.5 620,-218 620,-221.5 620,-221.5 620,-228.5 620,-228.5 620,-232 616.5,-235.5 613,-235.5"/>
<text text-anchor="middle" x="591" y="-221.9" font-family="Times,serif" font-size="12.00">EOS205</text>
</g>
<!-- EOS120&#45;&gt;EOS205 -->
<g id="edge22" class="edge">
<title>EOS120&#45;&gt;EOS205</title>
<path fill="none" stroke="black" d="M496.68,-203.49C514.62,-207.63 537.94,-213 556.79,-217.35"/>
<polygon fill="black" stroke="black" points="556.71,-219.12 561.97,-218.54 557.49,-215.71 556.71,-219.12"/>
</g>
<!-- EOS240 -->
<g id="node17" class="node">
<title>EOS240</title>
<path fill="#37aabb" stroke="#030a10" d="M719,-235.5C719,-235.5 675,-235.5 675,-235.5 671.5,-235.5 668,-232 668,-228.5 668,-228.5 668,-221.5 668,-221.5 668,-218 671.5,-214.5 675,-214.5 675,-214.5 719,-214.5 719,-214.5 722.5,-214.5 726,-218 726,-221.5 726,-221.5 726,-228.5 726,-228.5 726,-232 722.5,-235.5 719,-235.5"/>
<text text-anchor="middle" x="697" y="-221.9" font-family="Times,serif" font-size="12.00">EOS240</text>
</g>
<!-- EOS120&#45;&gt;EOS240 -->
<g id="edge30" class="edge">
<title>EOS120&#45;&gt;EOS240</title>
<path fill="none" stroke="black" d="M496.58,-187.69C528.37,-178.68 581.31,-168.35 624,-183 643.17,-189.58 642.37,-201 660,-211 660.92,-211.52 661.86,-212.03 662.82,-212.53"/>
<polygon fill="black" stroke="black" points="662.46,-214.3 667.72,-214.92 664,-211.16 662.46,-214.3"/>
</g>
<!-- MATH101 -->
<g id="node2" class="node">
<title>MATH101</title>
<path fill="#9fa7be" stroke="#030a10" d="M495,-37.5C495,-37.5 440,-37.5 440,-37.5 436.5,-37.5 433,-34 433,-30.5 433,-30.5 433,-23.5 433,-23.5 433,-20 436.5,-16.5 440,-16.5 440,-16.5 495,-16.5 495,-16.5 498.5,-16.5 502,-20 502,-23.5 502,-23.5 502,-30.5 502,-30.5 502,-34 498.5,-37.5 495,-37.5"/>
<text text-anchor="middle" x="467.5" y="-23.9" font-family="Times,serif" font-size="12.00">MATH101</text>
</g>
<!-- PHYS130 -->
<g id="node13" class="node">
<title>PHYS130</title>
<path fill="#34af8a" stroke="#030a10" d="M617,-37.5C617,-37.5 565,-37.5 565,-37.5 561.5,-37.5 558,-34 558,-30.5 558,-30.5 558,-23.5 558,-23.5 558,-20 561.5,-16.5 565,-16.5 565,-16.5 617,-16.5 617,-16.5 620.5,-16.5 624,-20 624,-23.5 624,-23.5 624,-30.5 624,-30.5 624,-34 620.5,-37.5 617,-37.5"/>
<text text-anchor="middle" x="591" y="-23.9" font-family="Times,serif" font-size="12.00">PHYS130</text>
</g>
<!-- MATH101&#45;&gt;PHYS130 -->
<g id="edge27" class="edge">
<title>MATH101&#45;&gt;PHYS130</title>
<path fill="none" stroke="black" d="M502.02,-27C517.67,-27 536.36,-27 552.48,-27"/>
<polygon fill="black" stroke="black" points="552.84,-28.75 557.84,-27 552.84,-25.25 552.84,-28.75"/>
</g>
<!-- CHEM102 -->
<g id="node3" class="node">
<title>CHEM102</title>
<path fill="#9fa7be" stroke="#030a10" d="M495.5,-235.5C495.5,-235.5 439.5,-235.5 439.5,-235.5 436,-235.5 432.5,-232 432.5,-228.5 432.5,-228.5 432.5,-221.5 432.5,-221.5 432.5,-218 436,-214.5 439.5,-214.5 439.5,-214.5 495.5,-214.5 495.5,-214.5 499,-214.5 502.5,-218 502.5,-221.5 502.5,-221.5 502.5,-228.5 502.5,-228.5 502.5,-232 499,-235.5 495.5,-235.5"/>
<text text-anchor="middle" x="467.5" y="-221.9" font-family="Times,serif" font-size="12.00">CHEM102</text>
</g>
<!-- CHEM102&#45;&gt;EOS205 -->
<g id="edge23" class="edge">
<title>CHEM102&#45;&gt;EOS205</title>
<path fill="none" stroke="black" d="M502.67,-225C519.59,-225 539.93,-225 556.73,-225"/>
<polygon fill="black" stroke="black" points="556.82,-226.75 561.82,-225 556.82,-223.25 556.82,-226.75"/>
</g>
<!-- CHEM102&#45;&gt;EOS240 -->
<g id="edge32" class="edge">
<title>CHEM102&#45;&gt;EOS240</title>
<path fill="none" stroke="black" d="M502.83,-232.23C517.32,-234.94 534.41,-237.67 550,-239 582.77,-241.79 591.26,-242.15 624,-239 636.75,-237.77 650.61,-235.35 662.72,-232.85"/>
<polygon fill="black" stroke="black" points="663.27,-234.53 667.8,-231.78 662.55,-231.1 663.27,-234.53"/>
</g>
<!-- CHEM101 -->
<g id="node4" class="node">
<title>CHEM101</title>
<path fill="#f77189" stroke="#030a10" d="M276,-237.5C276,-237.5 220,-237.5 220,-237.5 216.5,-237.5 213,-234 213,-230.5 213,-230.5 213,-223.5 213,-223.5 213,-220 216.5,-216.5 220,-216.5 220,-216.5 276,-216.5 276,-216.5 279.5,-216.5 283,-220 283,-223.5 283,-223.5 283,-230.5 283,-230.5 283,-234 279.5,-237.5 276,-237.5"/>
<text text-anchor="middle" x="248" y="-223.9" font-family="Times,serif" font-size="12.00">CHEM101</text>
</g>
<!-- 1 of [&#39;CHEM101&#39;, &#39;CHEM150&#39;] -->
<g id="node25" class="node">
<title>1 of [&#39;CHEM101&#39;, &#39;CHEM150&#39;]</title>
<path fill="#e9dbd0" stroke="#030a10" d="M367.5,-222C367.5,-222 348.5,-222 348.5,-222 345.5,-222 342.5,-219 342.5,-216 342.5,-216 342.5,-210 342.5,-210 342.5,-207 345.5,-204 348.5,-204 348.5,-204 367.5,-204 367.5,-204 370.5,-204 373.5,-207 373.5,-210 373.5,-210 373.5,-216 373.5,-216 373.5,-219 370.5,-222 367.5,-222"/>
<text text-anchor="middle" x="358" y="-210.8" font-family="Times,serif" font-size="9.00">1 of</text>
</g>
<!-- CHEM101&#45;&gt;1 of [&#39;CHEM101&#39;, &#39;CHEM150&#39;] -->
<g id="edge18" class="edge">
<title>CHEM101&#45;&gt;1 of [&#39;CHEM101&#39;, &#39;CHEM150&#39;]</title>
<path fill="none" stroke="black" d="M283.17,-222.57C300.89,-220.27 321.93,-217.55 337,-215.59"/>
<polygon fill="black" stroke="black" points="337.53,-217.29 342.27,-214.91 337.08,-213.82 337.53,-217.29"/>
</g>
<!-- CHEM150 -->
<g id="node5" class="node">
<title>CHEM150</title>
<path fill="#f77189" stroke="#030a10" d="M276,-209.5C276,-209.5 220,-209.5 220,-209.5 216.5,-209.5 213,-206 213,-202.5 213,-202.5 213,-195.5 213,-195.5 213,-192 216.5,-188.5 220,-188.5 220,-188.5 276,-188.5 276,-188.5 279.5,-188.5 283,-192 283,-195.5 283,-195.5 283,-202.5 283,-202.5 283,-206 279.5,-209.5 276,-209.5"/>
<text text-anchor="middle" x="248" y="-195.9" font-family="Times,serif" font-size="12.00">CHEM150</text>
</g>
<!-- CHEM150&#45;&gt;1 of [&#39;CHEM101&#39;, &#39;CHEM150&#39;] -->
<g id="edge19" class="edge">
<title>CHEM150&#45;&gt;1 of [&#39;CHEM101&#39;, &#39;CHEM150&#39;]</title>
<path fill="none" stroke="black" d="M283.17,-203.43C300.89,-205.73 321.93,-208.45 337,-210.41"/>
<polygon fill="black" stroke="black" points="337.08,-212.18 342.27,-211.09 337.53,-208.71 337.08,-212.18"/>
</g>
<!-- MATH100 -->
<g id="node6" class="node">
<title>MATH100</title>
<path fill="#c69432" stroke="#030a10" d="M275.5,-90.5C275.5,-90.5 220.5,-90.5 220.5,-90.5 217,-90.5 213.5,-87 213.5,-83.5 213.5,-83.5 213.5,-76.5 213.5,-76.5 213.5,-73 217,-69.5 220.5,-69.5 220.5,-69.5 275.5,-69.5 275.5,-69.5 279,-69.5 282.5,-73 282.5,-76.5 282.5,-76.5 282.5,-83.5 282.5,-83.5 282.5,-87 279,-90.5 275.5,-90.5"/>
<text text-anchor="middle" x="248" y="-76.9" font-family="Times,serif" font-size="12.00">MATH100</text>
</g>
<!-- 1 of [&#39;MATH100&#39;, &#39;MATH109&#39;] -->
<g id="node19" class="node">
<title>1 of [&#39;MATH100&#39;, &#39;MATH109&#39;]</title>
<path fill="#e9dbd0" stroke="#030a10" d="M367.5,-89C367.5,-89 348.5,-89 348.5,-89 345.5,-89 342.5,-86 342.5,-83 342.5,-83 342.5,-77 342.5,-77 342.5,-74 345.5,-71 348.5,-71 348.5,-71 367.5,-71 367.5,-71 370.5,-71 373.5,-74 373.5,-77 373.5,-77 373.5,-83 373.5,-83 373.5,-86 370.5,-89 367.5,-89"/>
<text text-anchor="middle" x="358" y="-77.8" font-family="Times,serif" font-size="9.00">1 of</text>
</g>
<!-- MATH100&#45;&gt;1 of [&#39;MATH100&#39;, &#39;MATH109&#39;] -->
<g id="edge4" class="edge">
<title>MATH100&#45;&gt;1 of [&#39;MATH100&#39;, &#39;MATH109&#39;]</title>
<path fill="none" stroke="black" d="M282.58,-80C300.45,-80 321.81,-80 337.06,-80"/>
<polygon fill="black" stroke="black" points="337.38,-81.75 342.38,-80 337.38,-78.25 337.38,-81.75"/>
</g>
<!-- 1 of [&#39;MATH100&#39;, &#39;MATH102&#39;, &#39;MATH109&#39;] -->
<g id="node20" class="node">
<title>1 of [&#39;MATH100&#39;, &#39;MATH102&#39;, &#39;MATH109&#39;]</title>
<path fill="#e9dbd0" stroke="#030a10" d="M367.5,-117C367.5,-117 348.5,-117 348.5,-117 345.5,-117 342.5,-114 342.5,-111 342.5,-111 342.5,-105 342.5,-105 342.5,-102 345.5,-99 348.5,-99 348.5,-99 367.5,-99 367.5,-99 370.5,-99 373.5,-102 373.5,-105 373.5,-105 373.5,-111 373.5,-111 373.5,-114 370.5,-117 367.5,-117"/>
<text text-anchor="middle" x="358" y="-105.8" font-family="Times,serif" font-size="9.00">1 of</text>
</g>
<!-- MATH100&#45;&gt;1 of [&#39;MATH100&#39;, &#39;MATH102&#39;, &#39;MATH109&#39;] -->
<g id="edge7" class="edge">
<title>MATH100&#45;&gt;1 of [&#39;MATH100&#39;, &#39;MATH102&#39;, &#39;MATH109&#39;]</title>
<path fill="none" stroke="black" d="M282.52,-87.86C291.77,-90.1 301.79,-92.58 311,-95 319.64,-97.27 329.15,-99.92 337.27,-102.25"/>
<polygon fill="black" stroke="black" points="336.83,-103.94 342.12,-103.64 337.8,-100.58 336.83,-103.94"/>
</g>
<!-- MATH109 -->
<g id="node7" class="node">
<title>MATH109</title>
<path fill="#c69432" stroke="#030a10" d="M275.5,-118.5C275.5,-118.5 220.5,-118.5 220.5,-118.5 217,-118.5 213.5,-115 213.5,-111.5 213.5,-111.5 213.5,-104.5 213.5,-104.5 213.5,-101 217,-97.5 220.5,-97.5 220.5,-97.5 275.5,-97.5 275.5,-97.5 279,-97.5 282.5,-101 282.5,-104.5 282.5,-104.5 282.5,-111.5 282.5,-111.5 282.5,-115 279,-118.5 275.5,-118.5"/>
<text text-anchor="middle" x="248" y="-104.9" font-family="Times,serif" font-size="12.00">MATH109</text>
</g>
<!-- MATH109&#45;&gt;1 of [&#39;MATH100&#39;, &#39;MATH109&#39;] -->
<g id="edge5" class="edge">
<title>MATH109&#45;&gt;1 of [&#39;MATH100&#39;, &#39;MATH109&#39;]</title>
<path fill="none" stroke="black" d="M282.57,-100.89C291.82,-98.81 301.83,-96.43 311,-94 319.69,-91.7 329.2,-88.86 337.31,-86.34"/>
<polygon fill="black" stroke="black" points="337.92,-87.98 342.16,-84.82 336.87,-84.64 337.92,-87.98"/>
</g>
<!-- MATH109&#45;&gt;1 of [&#39;MATH100&#39;, &#39;MATH102&#39;, &#39;MATH109&#39;] -->
<g id="edge9" class="edge">
<title>MATH109&#45;&gt;1 of [&#39;MATH100&#39;, &#39;MATH102&#39;, &#39;MATH109&#39;]</title>
<path fill="none" stroke="black" d="M282.58,-108C300.45,-108 321.81,-108 337.06,-108"/>
<polygon fill="black" stroke="black" points="337.38,-109.75 342.38,-108 337.38,-106.25 337.38,-109.75"/>
</g>
<!-- PHYS102A -->
<g id="node8" class="node">
<title>PHYS102A</title>
<path fill="#82a931" stroke="#030a10" d="M498,-146.5C498,-146.5 437,-146.5 437,-146.5 433.5,-146.5 430,-143 430,-139.5 430,-139.5 430,-132.5 430,-132.5 430,-129 433.5,-125.5 437,-125.5 437,-125.5 498,-125.5 498,-125.5 501.5,-125.5 505,-129 505,-132.5 505,-132.5 505,-139.5 505,-139.5 505,-143 501.5,-146.5 498,-146.5"/>
<text text-anchor="middle" x="467.5" y="-132.9" font-family="Times,serif" font-size="12.00">PHYS102A</text>
</g>
<!-- 1 of [&#39;PHYS102A&#39;, &#39;PHYS110&#39;, &#39;PHYS120&#39;] -->
<g id="node22" class="node">
<title>1 of [&#39;PHYS102A&#39;, &#39;PHYS110&#39;, &#39;PHYS120&#39;]</title>
<path fill="#e9dbd0" stroke="#030a10" d="M600.5,-123C600.5,-123 581.5,-123 581.5,-123 578.5,-123 575.5,-120 575.5,-117 575.5,-117 575.5,-111 575.5,-111 575.5,-108 578.5,-105 581.5,-105 581.5,-105 600.5,-105 600.5,-105 603.5,-105 606.5,-108 606.5,-111 606.5,-111 606.5,-117 606.5,-117 606.5,-120 603.5,-123 600.5,-123"/>
<text text-anchor="middle" x="591" y="-111.8" font-family="Times,serif" font-size="9.00">1 of</text>
</g>
<!-- PHYS102A&#45;&gt;1 of [&#39;PHYS102A&#39;, &#39;PHYS110&#39;, &#39;PHYS120&#39;] -->
<g id="edge11" class="edge">
<title>PHYS102A&#45;&gt;1 of [&#39;PHYS102A&#39;, &#39;PHYS110&#39;, &#39;PHYS120&#39;]</title>
<path fill="none" stroke="black" d="M505.28,-129.34C526.68,-125.47 552.8,-120.74 570.33,-117.56"/>
<polygon fill="black" stroke="black" points="570.87,-119.24 575.48,-116.63 570.25,-115.8 570.87,-119.24"/>
</g>
<!-- PHYS110 -->
<g id="node9" class="node">
<title>PHYS110</title>
<path fill="#82a931" stroke="#030a10" d="M493.5,-118.5C493.5,-118.5 441.5,-118.5 441.5,-118.5 438,-118.5 434.5,-115 434.5,-111.5 434.5,-111.5 434.5,-104.5 434.5,-104.5 434.5,-101 438,-97.5 441.5,-97.5 441.5,-97.5 493.5,-97.5 493.5,-97.5 497,-97.5 500.5,-101 500.5,-104.5 500.5,-104.5 500.5,-111.5 500.5,-111.5 500.5,-115 497,-118.5 493.5,-118.5"/>
<text text-anchor="middle" x="467.5" y="-104.9" font-family="Times,serif" font-size="12.00">PHYS110</text>
</g>
<!-- PHYS111 -->
<g id="node12" class="node">
<title>PHYS111</title>
<path fill="#34af8a" stroke="#030a10" d="M616.5,-65.5C616.5,-65.5 565.5,-65.5 565.5,-65.5 562,-65.5 558.5,-62 558.5,-58.5 558.5,-58.5 558.5,-51.5 558.5,-51.5 558.5,-48 562,-44.5 565.5,-44.5 565.5,-44.5 616.5,-44.5 616.5,-44.5 620,-44.5 623.5,-48 623.5,-51.5 623.5,-51.5 623.5,-58.5 623.5,-58.5 623.5,-62 620,-65.5 616.5,-65.5"/>
<text text-anchor="middle" x="591" y="-51.9" font-family="Times,serif" font-size="12.00">PHYS111</text>
</g>
<!-- PHYS110&#45;&gt;PHYS111 -->
<g id="edge28" class="edge">
<title>PHYS110&#45;&gt;PHYS111</title>
<path fill="none" stroke="black" d="M500.77,-102.89C510.4,-100.77 520.82,-97.88 530,-94 545.29,-87.54 560.96,-77.2 572.45,-68.79"/>
<polygon fill="black" stroke="black" points="573.52,-70.18 576.49,-65.79 571.43,-67.37 573.52,-70.18"/>
</g>
<!-- PHYS110&#45;&gt;1 of [&#39;PHYS102A&#39;, &#39;PHYS110&#39;, &#39;PHYS120&#39;] -->
<g id="edge12" class="edge">
<title>PHYS110&#45;&gt;1 of [&#39;PHYS102A&#39;, &#39;PHYS110&#39;, &#39;PHYS120&#39;]</title>
<path fill="none" stroke="black" d="M500.74,-109.59C522.85,-110.68 551.47,-112.1 570.26,-113.03"/>
<polygon fill="black" stroke="black" points="570.21,-114.77 575.29,-113.27 570.38,-111.28 570.21,-114.77"/>
</g>
<!-- PHYS120 -->
<g id="node10" class="node">
<title>PHYS120</title>
<path fill="#82a931" stroke="#030a10" d="M493.5,-90.5C493.5,-90.5 441.5,-90.5 441.5,-90.5 438,-90.5 434.5,-87 434.5,-83.5 434.5,-83.5 434.5,-76.5 434.5,-76.5 434.5,-73 438,-69.5 441.5,-69.5 441.5,-69.5 493.5,-69.5 493.5,-69.5 497,-69.5 500.5,-73 500.5,-76.5 500.5,-76.5 500.5,-83.5 500.5,-83.5 500.5,-87 497,-90.5 493.5,-90.5"/>
<text text-anchor="middle" x="467.5" y="-76.9" font-family="Times,serif" font-size="12.00">PHYS120</text>
</g>
<!-- PHYS120&#45;&gt;PHYS130 -->
<g id="edge26" class="edge">
<title>PHYS120&#45;&gt;PHYS130</title>
<path fill="none" stroke="black" d="M490.09,-69.38C506.4,-61.49 529.42,-50.64 550,-42 552,-41.16 554.07,-40.32 556.15,-39.48"/>
<polygon fill="black" stroke="black" points="557.04,-41.01 561.05,-37.55 555.76,-37.75 557.04,-41.01"/>
</g>
<!-- PHYS120&#45;&gt;1 of [&#39;PHYS102A&#39;, &#39;PHYS110&#39;, &#39;PHYS120&#39;] -->
<g id="edge13" class="edge">
<title>PHYS120&#45;&gt;1 of [&#39;PHYS102A&#39;, &#39;PHYS110&#39;, &#39;PHYS120&#39;]</title>
<path fill="none" stroke="black" d="M500.53,-87.38C510.05,-89.69 520.48,-92.33 530,-95 543.63,-98.81 558.82,-103.63 570.51,-107.46"/>
<polygon fill="black" stroke="black" points="569.99,-109.13 575.29,-109.04 571.09,-105.81 569.99,-109.13"/>
</g>
<!-- PHYS102B -->
<g id="node11" class="node">
<title>PHYS102B</title>
<path fill="#34af8a" stroke="#030a10" d="M727,-65.5C727,-65.5 667,-65.5 667,-65.5 663.5,-65.5 660,-62 660,-58.5 660,-58.5 660,-51.5 660,-51.5 660,-48 663.5,-44.5 667,-44.5 667,-44.5 727,-44.5 727,-44.5 730.5,-44.5 734,-48 734,-51.5 734,-51.5 734,-58.5 734,-58.5 734,-62 730.5,-65.5 727,-65.5"/>
<text text-anchor="middle" x="697" y="-51.9" font-family="Times,serif" font-size="12.00">PHYS102B</text>
</g>
<!-- EOS205&#45;&gt;EOS201 -->
<g id="edge2" class="edge">
<title>EOS205&#45;&gt;EOS201</title>
<path fill="none" stroke="black" d="M620.14,-217.42C633.32,-213.87 649.11,-209.62 662.87,-205.92"/>
<polygon fill="black" stroke="black" points="663.46,-207.57 667.83,-204.58 662.55,-204.19 663.46,-207.57"/>
</g>
<!-- EOS205&#45;&gt;EOS240 -->
<g id="edge31" class="edge">
<title>EOS205&#45;&gt;EOS240</title>
<path fill="none" stroke="black" d="M620.14,-225C633.21,-225 648.84,-225 662.5,-225"/>
<polygon fill="black" stroke="black" points="662.83,-226.75 667.83,-225 662.83,-223.25 662.83,-226.75"/>
</g>
<!-- EOS300+ -->
<g id="node18" class="node">
<title>EOS300+</title>
<path fill="#8197f4" stroke="#030a10" d="M108,-194.5C108,-194.5 57,-194.5 57,-194.5 53.5,-194.5 50,-191 50,-187.5 50,-187.5 50,-180.5 50,-180.5 50,-177 53.5,-173.5 57,-173.5 57,-173.5 108,-173.5 108,-173.5 111.5,-173.5 115,-177 115,-180.5 115,-180.5 115,-187.5 115,-187.5 115,-191 111.5,-194.5 108,-194.5"/>
<text text-anchor="middle" x="82.5" y="-180.9" font-family="Times,serif" font-size="12.00">EOS300+</text>
</g>
<!-- 1 of [&#39;MATH100&#39;, &#39;MATH109&#39;]&#45;&gt;MATH101 -->
<g id="edge3" class="edge">
<title>1 of [&#39;MATH100&#39;, &#39;MATH109&#39;]&#45;&gt;MATH101</title>
<path fill="none" stroke="black" d="M368.45,-70.76C377.24,-62.63 391.05,-51.03 405,-44 412.13,-40.41 420.11,-37.49 427.91,-35.15"/>
<polygon fill="black" stroke="black" points="428.41,-36.83 432.73,-33.77 427.44,-33.47 428.41,-36.83"/>
</g>
<!-- 1 of [&#39;MATH100&#39;, &#39;MATH109&#39;]&#45;&gt;PHYS120 -->
<g id="edge21" class="edge">
<title>1 of [&#39;MATH100&#39;, &#39;MATH109&#39;]&#45;&gt;PHYS120</title>
<path fill="none" stroke="black" d="M373.95,-80C388.19,-80 410.2,-80 429.19,-80"/>
<polygon fill="black" stroke="black" points="429.46,-81.75 434.46,-80 429.46,-78.25 429.46,-81.75"/>
</g>
<!-- 1 of [&#39;MATH100&#39;, &#39;MATH102&#39;, &#39;MATH109&#39;]&#45;&gt;CHEM102 -->
<g id="edge15" class="edge">
<title>1 of [&#39;MATH100&#39;, &#39;MATH102&#39;, &#39;MATH109&#39;]&#45;&gt;CHEM102</title>
<path fill="none" stroke="black" d="M360.29,-117.06C363.68,-137.26 374.72,-186.15 405,-211 411.38,-216.24 419.33,-219.6 427.38,-221.75"/>
<polygon fill="black" stroke="black" points="427.12,-223.48 432.39,-222.93 427.92,-220.08 427.12,-223.48"/>
</g>
<!-- 1 of [&#39;MATH100&#39;, &#39;MATH102&#39;, &#39;MATH109&#39;]&#45;&gt;PHYS110 -->
<g id="edge6" class="edge">
<title>1 of [&#39;MATH100&#39;, &#39;MATH102&#39;, &#39;MATH109&#39;]&#45;&gt;PHYS110</title>
<path fill="none" stroke="black" d="M373.95,-108C388.19,-108 410.2,-108 429.19,-108"/>
<polygon fill="black" stroke="black" points="429.46,-109.75 434.46,-108 429.46,-106.25 429.46,-109.75"/>
</g>
<!-- 1 of [&#39;MATH100&#39;, &#39;MATH102&#39;, &#39;MATH109&#39;]&#45;&gt;PHYS111 -->
<g id="edge29" class="edge">
<title>1 of [&#39;MATH100&#39;, &#39;MATH102&#39;, &#39;MATH109&#39;]&#45;&gt;PHYS111</title>
<path fill="none" stroke="black" d="M370.69,-98.76C372.84,-96.92 375.04,-94.95 377,-93 390.66,-79.46 387.66,-68.32 405,-60 452.27,-37.33 514.44,-41.53 553.31,-47.55"/>
<polygon fill="black" stroke="black" points="553.19,-49.31 558.41,-48.37 553.75,-45.85 553.19,-49.31"/>
</g>
<!-- MATH102 -->
<g id="node21" class="node">
<title>MATH102</title>
<path fill="white" stroke="#030a10" stroke-opacity="0.125490" d="M262.33,-172C262.33,-172 233.67,-172 233.67,-172 231.33,-172 229,-169.67 229,-167.33 229,-167.33 229,-162.67 229,-162.67 229,-160.33 231.33,-158 233.67,-158 233.67,-158 262.33,-158 262.33,-158 264.67,-158 267,-160.33 267,-162.67 267,-162.67 267,-167.33 267,-167.33 267,-169.67 264.67,-172 262.33,-172"/>
<text text-anchor="middle" x="248" y="-164" font-family="Times,serif" font-size="5.00">MATH102</text>
</g>
<!-- MATH102&#45;&gt;1 of [&#39;MATH100&#39;, &#39;MATH102&#39;, &#39;MATH109&#39;] -->
<g id="edge8" class="edge">
<title>MATH102&#45;&gt;1 of [&#39;MATH100&#39;, &#39;MATH102&#39;, &#39;MATH109&#39;]</title>
<path fill="none" stroke="black" d="M267.24,-163.43C280.08,-161.74 297.35,-158.23 311,-151 325.03,-143.57 337.95,-130.73 346.5,-121.01"/>
<polygon fill="black" stroke="black" points="347.96,-121.99 349.89,-117.06 345.3,-119.72 347.96,-121.99"/>
</g>
<!-- 1 of [&#39;PHYS102A&#39;, &#39;PHYS110&#39;, &#39;PHYS120&#39;]&#45;&gt;PHYS102B -->
<g id="edge10" class="edge">
<title>1 of [&#39;PHYS102A&#39;, &#39;PHYS110&#39;, &#39;PHYS120&#39;]&#45;&gt;PHYS102B</title>
<path fill="none" stroke="black" d="M606.78,-106.9C612.23,-104.2 618.44,-101.04 624,-98 641.21,-88.58 660.25,-77.16 674.43,-68.46"/>
<polygon fill="black" stroke="black" points="675.7,-69.73 679.04,-65.62 673.87,-66.75 675.7,-69.73"/>
</g>
<!-- MATH120 -->
<g id="node23" class="node">
<title>MATH120</title>
<path fill="white" stroke="#030a10" stroke-opacity="0.125490" d="M96.83,-115C96.83,-115 68.17,-115 68.17,-115 65.83,-115 63.5,-112.67 63.5,-110.33 63.5,-110.33 63.5,-105.67 63.5,-105.67 63.5,-103.33 65.83,-101 68.17,-101 68.17,-101 96.83,-101 96.83,-101 99.17,-101 101.5,-103.33 101.5,-105.67 101.5,-105.67 101.5,-110.33 101.5,-110.33 101.5,-112.67 99.17,-115 96.83,-115"/>
<text text-anchor="middle" x="82.5" y="-107" font-family="Times,serif" font-size="5.00">MATH120</text>
</g>
<!-- MATH120&#45;&gt;CHEM101 -->
<g id="edge25" class="edge">
<title>MATH120&#45;&gt;CHEM101</title>
<path fill="none" stroke="black" d="M99.26,-115.1C117.6,-124.09 147.68,-141.19 166,-164 180.68,-182.28 167.69,-197.76 185.5,-213 191.77,-218.37 199.68,-221.79 207.71,-223.94"/>
<polygon fill="black" stroke="black" points="207.45,-225.68 212.72,-225.12 208.26,-222.27 207.45,-225.68"/>
</g>
<!-- MATH120&#45;&gt;MATH100 -->
<g id="edge14" class="edge">
<title>MATH120&#45;&gt;MATH100</title>
<path fill="none" stroke="black" d="M101.62,-104.9C127.19,-100.52 174.5,-92.42 208.2,-86.64"/>
<polygon fill="black" stroke="black" points="208.86,-88.31 213.49,-85.74 208.26,-84.86 208.86,-88.31"/>
</g>
<!-- MATH120&#45;&gt;MATH109 -->
<g id="edge20" class="edge">
<title>MATH120&#45;&gt;MATH109</title>
<path fill="none" stroke="black" d="M101.62,-108C127.19,-108 174.5,-108 208.2,-108"/>
<polygon fill="black" stroke="black" points="208.49,-109.75 213.49,-108 208.49,-106.25 208.49,-109.75"/>
</g>
<!-- CHEM091 -->
<g id="node24" class="node">
<title>CHEM091</title>
<path fill="white" stroke="#030a10" stroke-opacity="0.125490" d="M372.33,-243C372.33,-243 343.67,-243 343.67,-243 341.33,-243 339,-240.67 339,-238.33 339,-238.33 339,-233.67 339,-233.67 339,-231.33 341.33,-229 343.67,-229 343.67,-229 372.33,-229 372.33,-229 374.67,-229 377,-231.33 377,-233.67 377,-233.67 377,-238.33 377,-238.33 377,-240.67 374.67,-243 372.33,-243"/>
<text text-anchor="middle" x="358" y="-235" font-family="Times,serif" font-size="5.00">CHEM091</text>
</g>
<!-- CHEM091&#45;&gt;CHEM102 -->
<g id="edge16" class="edge">
<title>CHEM091&#45;&gt;CHEM102</title>
<path fill="none" stroke="black" d="M377.24,-234.13C390.81,-232.75 409.85,-230.8 426.86,-229.06"/>
<polygon fill="black" stroke="black" points="427.27,-230.77 432.06,-228.52 426.91,-227.29 427.27,-230.77"/>
</g>
<!-- 1 of [&#39;CHEM101&#39;, &#39;CHEM150&#39;]&#45;&gt;CHEM102 -->
<g id="edge17" class="edge">
<title>1 of [&#39;CHEM101&#39;, &#39;CHEM150&#39;]&#45;&gt;CHEM102</title>
<path fill="none" stroke="black" d="M373.95,-214.67C387.66,-216.2 408.58,-218.53 427.07,-220.6"/>
<polygon fill="black" stroke="black" points="427.05,-222.36 432.21,-221.17 427.43,-218.88 427.05,-222.36"/>
</g>
</g>
</svg>
